<?xml version="1.0" encoding="utf-8"?>
<!DOCTYPE svg PUBLIC "-//W3C//DTD SVG 1.1//EN" "http://www.w3.org/Graphics/SVG/1.1/DTD/svg11.dtd">
<svg version="1.1" id="Layer_1" xmlns="http://www.w3.org/2000/svg" xmlns:xlink="http://www.w3.org/1999/xlink" x="0px" y="0px" width="96mm" height="55mm" viewBox="0 0 96 55" style="background-color:#ffffff;enable-background:new 0 0 96 55;" xml:space="preserve">
<symbol id="airflow" viewBox="-12 -12 24 24">
<path d="M-4.38,10.73l4.2-3.84V3.55L-4.07,7.13l-.31-.29L-.18,3V-6.89a3.37,3.37,0,0,0-1.68.53l1.68-4.15L0-11l.21.51h0v0l1.65,4.1A3.26,3.26,0,0,0,.24-6.89v14l-.08,0L-4.07,11Z"/>
<rect fill="none" x="-12" y="-12" width="24" height="24"/>
</symbol>
<symbol id="anastomosis" viewBox="-12 -12 24 24">
<path d="M2.23-4.78l.37.24L5.22-2.78l-.47.57L2.49-3.7l-4.61,8-.24.44-.37-.34L-5.22,2.3l.55-.52,2.1,1.82L2-4.39Z"/>
<rect fill="none" x="-12" y="-12" width="24" height="24"/>
</symbol>
<symbol id="bivouac" viewBox="-12 -12 24 24">
<path d="M.25-7.66l.24.58L.54-7l3.88.48-3.31.91L6,6H8.35v.48l-16.7.07V6.05h2.64L0-7.08Zm0,1.32L-5.13,6H-4l2.07-5L.2-4l2.09,5L4.37,6H5.44Z"/>
<rect fill="none" x="-12" y="-12" width="24" height="24"/>
</symbol>
<symbol id="bones" viewBox="-12 -12 24 24">
<path d="M2.44,4.27l-.16,0H2.13a.22.22,0,0,1-.11,0l-.1-.06a.39.39,0,0,1-.09-.11l-.08-.13a1.51,1.51,0,0,1-.06-.15l-.07-.17s0-.11-.08-.19-.06-.16-.08-.21a4.75,4.75,0,0,0-.38-.71c-.18-.29-.43-.64-.74-1A11.15,11.15,0,0,0-.7.32,6.73,6.73,0,0,0-2-.64a4.12,4.12,0,0,0-1.44-.52A1.64,1.64,0,0,1-5-2.19.72.72,0,0,1-5-2.44a1,1,0,0,1,0-.29A.52.52,0,0,1-4.87-3a.54.54,0,0,1,.35-.15L-4-3.22l.46,0a.54.54,0,0,0,.27-.06A.52.52,0,0,0-3-3.56a.74.74,0,0,0,.13-.31.54.54,0,0,1,.15-.26.54.54,0,0,1,.3-.15.83.83,0,0,1,.47,0,1.11,1.11,0,0,1,.35.4A7.46,7.46,0,0,1-1-2.76q.18.42.33.72a3.22,3.22,0,0,0,.39.57L.1-1a4.77,4.77,0,0,0,.58.43c.28.18.51.33.69.43l1,.56a1.84,1.84,0,0,0,.39.23A5.29,5.29,0,0,1,3.22.9l.43.26a3.7,3.7,0,0,1,.46.3l.36.29a2.28,2.28,0,0,1,.31.32A1,1,0,0,1,5,2.4c.2.48,0,.78-.47.91h0a8.48,8.48,0,0,0-1.12.09,1,1,0,0,0-.42.44A1,1,0,0,1,2.44,4.27Z"/>
<rect fill="none" x="-12" y="-12" width="24" height="24"/>
</symbol>
<symbol id="calcite" viewBox="-12 -12 24 24">
<path d="M2.36-2.22l.05.46.34,3.91L2,2.22,1.65-1.26-2.52-.06l-.23-.7L1.89-2.08Z"/>
<rect fill="none" x="-12" y="-12" width="24" height="24"/>
</symbol>
<symbol id="cauliflower" viewBox="-12 -12 24 24">
<path d="M5.58,3.22v-3A2.12,2.12,0,0,0,6.92-.43a1.78,1.78,0,0,0,.55-1.32,1.92,1.92,0,0,0-.65-1.42,2.19,2.19,0,0,0-1.53-.59,2.21,2.21,0,0,0-1.54.59,1.78,1.78,0,0,0-.64,1.42A1.86,1.86,0,0,0,3.65-.43,2.12,2.12,0,0,0,5,.23v3H.26v-3A2.17,2.17,0,0,0,1.61-.43a1.81,1.81,0,0,0,.54-1.32,1.91,1.91,0,0,0-.64-1.42A2.21,2.21,0,0,0,0-3.76a2.21,2.21,0,0,0-1.54.59,1.82,1.82,0,0,0-.64,1.42A1.83,1.83,0,0,0-1.66-.43,2.12,2.12,0,0,0-.32.23v3H-5v-3A2.12,2.12,0,0,0-3.71-.43a1.78,1.78,0,0,0,.55-1.32,1.92,1.92,0,0,0-.65-1.42,2.19,2.19,0,0,0-1.53-.59,2.21,2.21,0,0,0-1.54.59,1.83,1.83,0,0,0-.65,1.42A1.87,1.87,0,0,0-7-.43,2.12,2.12,0,0,0-5.64.23v3H-8v.54H8V3.22Z"/>
<rect fill="none" x="-12" y="-12" width="24" height="24"/>
</symbol>
<symbol id="clay" viewBox="-12 -12 24 24">
<path d="M1.85-1.33a3,3,0,0,1,1.67.48,3.23,3.23,0,0,1,1,1l.29.51-1,.43a3.81,3.81,0,0,0-.23-.4A3.74,3.74,0,0,0,2.93,0,1.77,1.77,0,0,0,1.85-.32a2.57,2.57,0,0,0-1.1.15A.86.86,0,0,0,.51.14,2.23,2.23,0,0,1,0,.88a2.55,2.55,0,0,1-1.45.43,3.16,3.16,0,0,1-2.75-1,4.28,4.28,0,0,1-.37-.57,3.91,3.91,0,0,1-.21-.47l0-.16,1-.22a1.87,1.87,0,0,0,.45.79A2.12,2.12,0,0,0-1.51.33,1.82,1.82,0,0,0-.69.14l.21-.36A1.53,1.53,0,0,1,.17-1,3.76,3.76,0,0,1,1.85-1.33Z"/>
<rect fill="none" x="-12" y="-12" width="24" height="24"/>
</symbol>
<symbol id="crystals" viewBox="-12 -12 24 24">
<path d="M-2.94-5.38,0-.72,2.94-5.38,3.62-5,.68-.36H6.56V.36H.68L3.62,5l-.68.36L0,.72-2.94,5.38-3.62,5-.68.36H-6.56V-.36H-.68L-3.62-5Z"/>
<rect fill="none" x="-12" y="-12" width="24" height="24"/>
</symbol>
<symbol id="curtain" viewBox="-12 -12 24 24">
<path d="M3.57-6.69l.52.53L.39-3V-.33L.1-.26a3.79,3.79,0,0,0-1,.41c-.58.3-.87.65-.87,1v.07A1.61,1.61,0,0,0-.84,2.48a3.69,3.69,0,0,0,.45.24L0,2.86l.13.05L.39,3V6.12H-.39V3.51a7.65,7.65,0,0,1-.9-.46A2.19,2.19,0,0,1-2.54,1.28V1.23A2,2,0,0,1-1.31-.48,5.32,5.32,0,0,1-.39-.86V-3l-3.7-3.14.52-.53L0-3.67Z"/>
<rect fill="none" x="-12" y="-12" width="24" height="24"/>
</symbol>
<symbol id="disk" viewBox="-12 -12 24 24">
<path d="M-.09-4.19a2.43,2.43,0,0,1,1.7.64A2,2,0,0,1,2.35-2,2.09,2.09,0,0,1,1.81-.55,2.44,2.44,0,0,1,.35.23l2.18,3.6-.68.33L0,1.14-1.48,4.19l-.71-.29L-.41.25A2.53,2.53,0,0,1-1.9-.47a2,2,0,0,1-.63-1.41,2,2,0,0,1,.67-1.61,2.46,2.46,0,0,1,1.72-.7ZM1.05-3.06.56-3.49l-.69,0A1.72,1.72,0,0,0-1.29-3a1.51,1.51,0,0,0-.45,1.08,1.36,1.36,0,0,0,.51,1A1.68,1.68,0,0,0-.07-.44v0l0,0A1.7,1.7,0,0,0,1.11-.92,1.36,1.36,0,0,0,1.56-2,1.47,1.47,0,0,0,1.05-3.06Z"/>
<rect fill="none" x="-12" y="-12" width="24" height="24"/>
</symbol>
<symbol id="entrance" viewBox="-12 -12 24 24">
<path d="M4.46,9H-4.46L0-9Z"/>
<rect fill="none" x="-12" y="-12" width="24" height="24"/>
</symbol>
<symbol id="flowstone" viewBox="-12 -12 24 24">
<rect x="-6" y="-0.21" width="12" height="0.42"/>
<rect fill="none" x="-12" y="-12" width="24" height="24"/>
</symbol>
<symbol id="flutes" viewBox="-12 -12 24 24">
<path d="M-7-1H7v.72H3.87A4.7,4.7,0,0,1,2.16,1.5,4.2,4.2,0,0,1,0,2.13,3.94,3.94,0,0,1-2.19,1.5,4.18,4.18,0,0,1-3.76-.27H-7Zm4.17.72A3.15,3.15,0,0,0-1.65,1,3.21,3.21,0,0,0,0,1.41,3.49,3.49,0,0,0,1.6,1,3.68,3.68,0,0,0,3-.27Z"/>
<rect fill="none" x="-12" y="-12" width="24" height="24"/>
</symbol>
<symbol id="gradient" viewBox="-12 -12 24 24">
<path d="M2.58-3.83,0-10-2.58-3.83A4.74,4.74,0,0,1-.17-4.5V10H.25V-4.5A6.65,6.65,0,0,1,2.58-3.83Z"/>
<rect fill="none" x="-12" y="-12" width="24" height="24"/>
</symbol>
<symbol id="guano" viewBox="-12 -12 24 24">
<path d="M-3.24-3a2.15,2.15,0,0,1,1.57.55A3.93,3.93,0,0,1-.59.24a4.32,4.32,0,0,1,2.75-2.3,2.68,2.68,0,0,1,2.23.36A2.36,2.36,0,0,1,5.5.19l-.79,0a1.72,1.72,0,0,0-.79-1.37,1.94,1.94,0,0,0-1.55-.24A3.53,3.53,0,0,0,.48,0,6.63,6.63,0,0,0-.69,3l-.79-.09a10.72,10.72,0,0,0,0-3.16A3.21,3.21,0,0,0-2.22-2,1.44,1.44,0,0,0-3.37-2.3,3.45,3.45,0,0,0-5-1.54l-.5-.55a4.29,4.29,0,0,1,2-.91A.9.9,0,0,1-3.24-3Z"/>
<rect fill="none" x="-12" y="-12" width="24" height="24"/>
</symbol>
<symbol id="helictites" viewBox="-12 -12 24 24">
<path d="M-4.59-7.92h.79v7.7l3.41,0V-7.92H.39V-.17L4.2-.12h.39v8H3.8V.6L.39.55V7.92H-.39V.55L-4.2.5l-.39,0v-8.4Z"/>
<rect fill="none" x="-12" y="-12" width="24" height="24"/>
</symbol>
<symbol id="human" viewBox="-12 -12 24 24">
<path d="M-3.59-3.29A5.13,5.13,0,0,1,0-4.66,5.13,5.13,0,0,1,3.59-3.29,4.3,4.3,0,0,1,5.09,0a4.3,4.3,0,0,1-1.5,3.29A5.13,5.13,0,0,1,0,4.66,5.13,5.13,0,0,1-3.59,3.29,4.3,4.3,0,0,1-5.09,0,4.3,4.3,0,0,1-3.59-3.29Zm.28.77A3.68,3.68,0,0,0-4.3,0a3.62,3.62,0,0,0,1,2.57L-.5.05ZM0-3.94A4.42,4.42,0,0,0-2.75-3L.16-.36H4.28A3.62,3.62,0,0,0,2.91-2.9,4.38,4.38,0,0,0,0-3.94ZM.16.46-2.7,3.07A4.42,4.42,0,0,0,0,3.94a4.37,4.37,0,0,0,2.87-1A3.78,3.78,0,0,0,4.28.46Z"/>
<rect fill="none" x="-12" y="-12" width="24" height="24"/>
</symbol>
<symbol id="karren" viewBox="-12 -12 24 24">
<path d="M1-5.84h0a1.37,1.37,0,0,1,1.06.68A3.33,3.33,0,0,1,2.5-3.79,25.79,25.79,0,0,1,2.36,0a18.61,18.61,0,0,0-.08,3.72,2.68,2.68,0,0,0,.41,1.2,1.13,1.13,0,0,0,.79.5A.92.92,0,0,0,4,4.94a4.43,4.43,0,0,0,.47-1.22c.16-.64.36-1.86.59-3.66a26.71,26.71,0,0,1,.64-3.69,4.62,4.62,0,0,1,.57-1.29,1.34,1.34,0,0,1,1-.59h0A1.28,1.28,0,0,1,8.37-5a2.17,2.17,0,0,1,.39,1.15A19.91,19.91,0,0,1,8.54-.53a21.51,21.51,0,0,0-.2,3.64A2.64,2.64,0,0,0,9.45,5.36,1.91,1.91,0,0,0,10.88,5a3.84,3.84,0,0,0,.7-1l.42.2-.1.18-.12.21-.11.18L11.52,5a.94.94,0,0,1-.14.16c-.06.07-.13.12-.19.18a2.5,2.5,0,0,1-1.85.41H9.29l0,0A3.06,3.06,0,0,1,7.87,3.13a22.11,22.11,0,0,1,.2-3.7,18.17,18.17,0,0,0,.22-3.28A1.85,1.85,0,0,0,8-4.79a.77.77,0,0,0-.67-.3.93.93,0,0,0-.64.42,4.51,4.51,0,0,0-.51,1.15A26.26,26.26,0,0,0,5.54.1c-.24,1.83-.45,3.07-.61,3.72a5.38,5.38,0,0,1-.51,1.34,1.33,1.33,0,0,1-.89.68H3.47A1.58,1.58,0,0,1,2.3,5.16a3.29,3.29,0,0,1-.49-1.4A20.27,20.27,0,0,1,1.89,0,23.45,23.45,0,0,0,2-3.75a2.94,2.94,0,0,0-.32-1.19A.93.93,0,0,0,1-5.42,1.1,1.1,0,0,0,.19-5,3.69,3.69,0,0,0-.43-3.76,20.78,20.78,0,0,0-1.07.07c-.2,2-.37,3.32-.49,3.86A4.48,4.48,0,0,1-2,5.26,1.06,1.06,0,0,1-3,5.81h0a1.9,1.9,0,0,1-1.29-.67,2.7,2.7,0,0,1-.58-1.31,14.92,14.92,0,0,1,0-3.6q0-.12.06-.54c0-.28,0-.47,0-.57s0-.28,0-.52,0-.42,0-.55,0-.28,0-.47,0-.36,0-.51,0-.29,0-.43A3.09,3.09,0,0,0-5-4.62a1.19,1.19,0,0,0-.67-.6,1.5,1.5,0,0,0-1.2.9A7,7,0,0,0-7.41-2.1c0,.39-.1,1-.14,1.76s-.11,1.47-.18,2.08A9.61,9.61,0,0,1-8,3.32h0l0,0A2.81,2.81,0,0,1-9.2,4.62a1.82,1.82,0,0,1-1.35.15A1.94,1.94,0,0,1-11.61,4,2.39,2.39,0,0,1-12,2.56l.47,0a1.92,1.92,0,0,0,.31,1.16,1.47,1.47,0,0,0,.81.62,1.3,1.3,0,0,0,1-.11A2.32,2.32,0,0,0-8.5,3.18a7.53,7.53,0,0,0,.29-1.5Q-8.1.8-8-.36c0-.78.1-1.37.16-1.78A7.23,7.23,0,0,1-7.28-4.5,1.93,1.93,0,0,1-5.65-5.66h.05l0,0a1.59,1.59,0,0,1,1,.84,3.47,3.47,0,0,1,.34,1.41,4.91,4.91,0,0,1,0,.57v.54c0,.15,0,.37,0,.66s0,.47,0,.58,0,.33-.06.68,0,.56-.06.63a14.78,14.78,0,0,0,0,3.49,2.58,2.58,0,0,0,.5,1.13,1.57,1.57,0,0,0,1,.5A.61.61,0,0,0-2.44,5,3.89,3.89,0,0,0-2,3.85C-1.9,3.31-1.74,2-1.53,0A20.65,20.65,0,0,1-.86-3.89,3.89,3.89,0,0,1-.18-5.26,1.58,1.58,0,0,1,1-5.84Z"/>
<rect fill="none" x="-12" y="-12" width="24" height="24"/>
</symbol>
<symbol id="moonmilk" viewBox="-12 -12 24 24">
<path d="M-4.78-3.06a3.39,3.39,0,0,1,1.5.34,2.48,2.48,0,0,1,1.1,1,3.74,3.74,0,0,1,1.62-.8,3.52,3.52,0,0,1,1.71,0,2.9,2.9,0,0,1,1.39.77A2.49,2.49,0,0,1,3.25-.37,4,4,0,0,1,5-.76a3.58,3.58,0,0,1,1.6.36A2.84,2.84,0,0,1,7.88.92a2.32,2.32,0,0,1,0,1.88.34.34,0,0,1-.37.26A.36.36,0,0,1,7.25,3a.32.32,0,0,1-.12-.25.21.21,0,0,1,0-.12,2,2,0,0,0,0-1.43,2,2,0,0,0-1-.9A2.81,2.81,0,0,0,4.68,0,2.78,2.78,0,0,0,3.12.56L2.46.25A1.7,1.7,0,0,0,2.15-1.1,2.15,2.15,0,0,0,1-1.81a2.85,2.85,0,0,0-1.58.06A3,3,0,0,0-2-.83l-.71-.12A1.74,1.74,0,0,0-3.55-2a2.36,2.36,0,0,0-1.39-.27,3.08,3.08,0,0,0-1.45.53A2.33,2.33,0,0,0-7.32-.56a.35.35,0,0,1-.37.24A.39.39,0,0,1-8-.42a.33.33,0,0,1-.1-.26v-.1A3,3,0,0,1-6.89-2.35,4,4,0,0,1-5-3Z"/>
<rect fill="none" x="-12" y="-12" width="24" height="24"/>
</symbol>
<symbol id="narrow" viewBox="-12 -12 24 24">
<path d="M-1.5,5V-5h0.64V5H-1.5z"/>
<path d="M0.86,5V-5H1.5V5H0.86z"/>
<rect fill="none" x="-12" y="-12" width="24" height="24"/>
</symbol>
<symbol id="paleoflow" viewBox="-12 -12 24 24">
<path d="M.38-12V.17A1.9,1.9,0,0,0,1,0,1.57,1.57,0,0,0,1.7-.72a1.86,1.86,0,0,0,.23-1c0-.09,0-.14.08-.16a.92.92,0,0,1,.24,0,.52.52,0,0,0,.25,0h.08A2.48,2.48,0,0,1,2,0,2.5,2.5,0,0,1,.38.77V7.21H2.09L0,12-1.8,7.23c.07,0,.59,0,1.53,0V.77A3,3,0,0,1-1.35.43a2.16,2.16,0,0,1-1-1,2.38,2.38,0,0,1-.24-1.33l.67,0a2,2,0,0,0,.15,1,1.73,1.73,0,0,0,.59.67A2.14,2.14,0,0,0-.27.16V-12Z"/>
<rect fill="none" x="-12" y="-12" width="24" height="24"/>
</symbol>
<symbol id="rain" viewBox="-12 -12 24 24">
<path d="M-4.14-6.34h0.71v4.69h-0.71V-6.34z"/>
<path d="M-0.35-6.34h0.71v4.69h-0.71V-6.34z"/>
<path d="M3.43-6.34h0.71v4.69H3.43V-6.34z"/>
<path d="M-4.14,1.65h0.71v4.69h-0.71V1.65z"/>
<path d="M-0.35,1.65h0.71v4.69h-0.71V1.65z"/>
<path d="M3.43,1.65h0.71v4.69H3.43V1.65z"/>
<rect fill="none" x="-12" y="-12" width="24" height="24"/>
</symbol>
<symbol id="rats" viewBox="-12 -12 24 24">
<path d="M8.78-2.32,7-2.27c-.51-.17-.65-.56-1.46-.45l-.25.45C3.59-2.75,2.59-3.66.56-3.62l-1.35.3A4.89,4.89,0,0,0-4.24,1.57c-.68.6-2.58.86-3.39.94a6.84,6.84,0,0,0-1.62.39,4.91,4.91,0,0,0-1,.52A1.75,1.75,0,0,0-11,4.61a1.16,1.16,0,0,0,.59,1.48,1.3,1.3,0,0,1,.14.12c.16-.52-.35-.92-.2-1.42a3.35,3.35,0,0,1,.27-.45,3.18,3.18,0,0,1,1.79-1c.63-.12,1.27-.22,1.91-.3.48-.07,1,0,1.4-.12A6.94,6.94,0,0,1-4,2.82,30.64,30.64,0,0,0,.41,2.69l2.16.15c.1-.09,0,0,.1-.15a.87.87,0,0,0-.9-.55c.86-1,2.27-.37,3.1-.05.5.19,1,0,1.25.4.11-.1.1-.07.15-.25.3,0,.31.07.6.15-.06-.49-.34-.64-1-.6a.78.78,0,0,1,0-.55C6.3.56,7.29.73,8.13.43a13.78,13.78,0,0,0,2.15-.9l.6-.85v-.2A16.9,16.9,0,0,0,8.78-2.32Z"/>
<rect fill="none" x="-12" y="-12" width="24" height="24"/>
</symbol>
<symbol id="sand" viewBox="-12 -12 24 24">
<path d="M-1.58,0.83c0.23,0.2,0.35,0.44,0.36,0.73c0.01,0.29-0.08,0.54-0.28,0.75c-0.2,0.21-0.46,0.32-0.78,0.33c-0.32,0.01-0.6-0.08-0.83-0.26C-3.36,2.19-3.49,1.95-3.5,1.67C-3.51,1.38-3.41,1.12-3.2,0.9c0.21-0.22,0.48-0.34,0.8-0.35C-2.08,0.54-1.81,0.64-1.58,0.83z"/>
<path d="M0.08-2.36c0.23,0.2,0.35,0.44,0.36,0.73c0.01,0.29-0.08,0.54-0.28,0.75c-0.2,0.21-0.46,0.32-0.78,0.33c-0.32,0.01-0.59-0.07-0.83-0.26s-0.37-0.42-0.38-0.71c-0.01-0.29,0.09-0.54,0.3-0.76c0.21-0.22,0.48-0.33,0.8-0.35C-0.42-2.65-0.14-2.56,0.08-2.36z"/>
<path d="M3.12,0.55c0.23,0.2,0.35,0.43,0.38,0.71c0.02,0.28-0.07,0.53-0.28,0.75C3,2.23,2.73,2.35,2.42,2.36C2.1,2.37,1.82,2.28,1.58,2.08C1.34,1.88,1.22,1.64,1.2,1.35c-0.01-0.29,0.09-0.54,0.3-0.75C1.72,0.4,1.99,0.29,2.3,0.28S2.89,0.36,3.12,0.55z"/>
<rect fill="none" x="-12" y="-12" width="24" height="24"/>
</symbol>
<symbol  id="scallops" viewBox="-12 -12 24 24">
<path d="M.05-3.74l.21,0A2.35,2.35,0,0,1,1.74-3a2,2,0,0,1,.59,1.55v0l0,0A9.59,9.59,0,0,1-.08,3.27l-.39.47-.27-.55A14.26,14.26,0,0,1-2.33-1.89v-.05l0-.05A2,2,0,0,1-1.44-3.3,2.42,2.42,0,0,1,.05-3.74ZM-.11-3A1.44,1.44,0,0,0-1.55-1.89,13.06,13.06,0,0,0-.29,2.33,8.6,8.6,0,0,0,1.55-1.54a1.41,1.41,0,0,0-.38-1A1.62,1.62,0,0,0,.18-3Z"/>
<rect fill="none" x="-12" y="-12" width="24" height="24"/>
</symbol>
<symbol  id="sink" viewBox="-12 -12 24 24">
<path d="M.72,9.41H.9c1.94,0,3.26-.54,3.94-1.51a3.61,3.61,0,0,0,.33-.69,2,2,0,0,0,.11-.54V6.46l.69,0a2.8,2.8,0,0,1-.58,1.78C4.58,9.39,3.1,10,.93,10H-.93q-3.25,0-4.46-1.8a2.74,2.74,0,0,1-.43-.83A2.37,2.37,0,0,1-6,6.67V6.43l.68,0A2.27,2.27,0,0,0-4.84,7.9c.68,1,2,1.47,3.93,1.48l.5,0ZM-1.46-10a.68.68,0,0,0,.16.41A2.77,2.77,0,0,0-.51-9l0,0a3.63,3.63,0,0,1,1,.7,1.15,1.15,0,0,1,.34.88c0,.58-.53,1.14-1.49,1.68-.68.42-1,.79-1,1.11s.3.61.84,1h0Q.61-2.86.46-1.78a3.51,3.51,0,0,1-1.55,2,.61.61,0,0,0-.26.41,1.67,1.67,0,0,0,.1.51,5.3,5.3,0,0,1,.32,1L.56,1.9.46,8.06-3.4,2.54l1.73-.28A6.16,6.16,0,0,0-2,1.39,1.7,1.7,0,0,1-2.09.58a1.21,1.21,0,0,1,.53-.82h0v0C-.75-.86-.33-1.38-.28-1.85s-.23-.87-.91-1.27h0C-2-3.6-2.37-4.1-2.4-4.61S-2-5.74-1.09-6.29C-.34-6.72.06-7.1.09-7.44a.67.67,0,0,0-.18-.43,3.17,3.17,0,0,0-.79-.58,2.93,2.93,0,0,1-1-.67A1.16,1.16,0,0,1-2.17-10Z"/>
<rect fill="none" x="-12" y="-12" width="24" height="24"/>
</symbol>
<symbol  id="spring" viewBox="-12 -12 24 24">
<path d="M-1.34-9.86,2.52-4.34.78-4.06a8,8,0,0,0,.29.87,1.4,1.4,0,0,1,.13.79,1.3,1.3,0,0,1-.52.84l0,0v0C-.13-.95-.55-.42-.61,0S-.37.91.31,1.3l0,0c.75.46,1.14,1,1.18,1.46S1.12,3.92.21,4.46C-.54,4.9-.94,5.29-1,5.64a.74.74,0,0,0,.18.43A3.2,3.2,0,0,0,0,6.62a3,3,0,0,1,1,.7,1.14,1.14,0,0,1,.31.86A1.74,1.74,0,0,1,.71,9.26H.92c1.92,0,3.22-.52,3.9-1.51a2.05,2.05,0,0,0,.35-.67,2.59,2.59,0,0,0,.1-.55l0-.19.65,0a2.84,2.84,0,0,1-.55,1.8C4.58,9.26,3.08,9.85.92,9.86H-.92c-2.17,0-3.66-.6-4.49-1.77a3.65,3.65,0,0,1-.4-.85A2.43,2.43,0,0,1-6,6.53V6.29l.66,0a2.08,2.08,0,0,0,.47,1.41c.68,1,2,1.5,3.91,1.51H-.4c.62-.43.94-.8,1-1.1a.76.76,0,0,0-.16-.43,3.25,3.25,0,0,0-.79-.51v0a3.8,3.8,0,0,1-1-.7,1.15,1.15,0,0,1-.34-.91q.06-.84,1.5-1.68c.68-.4,1-.77,1-1.1S.49,2.21,0,1.87c0,0,0,0,0,0C-1,1.32-1.44.69-1.34,0a3.58,3.58,0,0,1,1.55-2,.54.54,0,0,0,.23-.38A1.28,1.28,0,0,0,.37-3a4.57,4.57,0,0,1-.32-1l-1.49.24Z"/>
<rect fill="none" x="-12" y="-12" width="24" height="24"/>
</symbol>
<symbol  id="stalactite" viewBox="-12 -12 24 24">
<path d="M3.57-6.69l.52.53L.39-3V6.12H-.39V-3l-3.7-3.14.52-.53L0-3.67Z"/>
<rect fill="none" x="-12" y="-12" width="24" height="24"/>
</symbol>
<symbol  id="stalagmite" viewBox="-12 -12 24 24">
<path d="M.38-6.42V2.75L4.11,5.89l-.56.53L0,3.4l-3.57,3-.53-.53,3.7-3.14V-6.42Z"/>
<rect fill="none" x="-12" y="-12" width="24" height="24"/>
</symbol>
<symbol  id="stalagnate" viewBox="-12 -12 24 24">
<path d="M3.55-8.46l.56.53L.38-4.78v9L4.11,7.36l-.56.53L0,4.86l-3.57,3-.53-.53,3.7-3.14v-9l-3.7-3.15.53-.53L0-5.43Z"/>
<rect fill="none" x="-12" y="-12" width="24" height="24"/>
</symbol>
<symbol  id="straws" viewBox="-12 -12 24 24">
<path d="M-10.89-2.76H10.89V-2H9.63V.46H8.84V-2H8.29v5.6H7.5V-2H5.56V.7H4.77V-2H2.07V2.38H1.29V-2H-.1v3H-.89V-2H-3.2V4.11H-4V-2H-6.22L-6.16.75l-.79,0L-7-2H-8.32V2.33H-9.1V-2h-1.79Z"/>
<rect fill="none" x="-12" y="-12" width="24" height="24"/>
</symbol>
<symbol  id="water" viewBox="-12 -12 24 24">
<path d="M-1.72-9.86,2.11-4.32.38-4.06a6.49,6.49,0,0,0,.29.89,1.5,1.5,0,0,1,.13.79,1.2,1.2,0,0,1-.5.82h0l0,0C-.54-.94-1-.42-1,.05s.24.89.92,1.27h0c.77.48,1.17,1,1.19,1.49S.71,3.94-.2,4.49c-.75.43-1.13.81-1.15,1.15a.51.51,0,0,0,.18.43,2.66,2.66,0,0,0,.76.58,2.93,2.93,0,0,1,1,.67,1.16,1.16,0,0,1,.29.89C.84,8.75.42,9.3-.41,9.86l-.44-.55c.66-.45,1-.83,1-1.15A.47.47,0,0,0,0,7.75a2.84,2.84,0,0,0-.78-.53h0a3.87,3.87,0,0,1-1-.69,1.24,1.24,0,0,1-.34-.91c0-.58.54-1.14,1.52-1.68.66-.42,1-.79,1-1.11s-.3-.61-.84-1h0Q-1.9,1.06-1.74,0a3.44,3.44,0,0,1,1.54-2,.67.67,0,0,0,.27-.41A1.11,1.11,0,0,0,0-3a4.33,4.33,0,0,1-.31-1l-1.5.24Z"/>
<rect fill="none" x="-12" y="-12" width="24" height="24"/>
</symbol><symbol  id="tree" viewBox="-12 -12 24 24">
<path d="M7.4-5.04A4.271,4.271,0,0,0,7.7-6.627a4.3,4.3,0,0,0-4.3-4.3A4.279,4.279,0,0,0,.636-9.914,4.293,4.293,0,0,0-3.045-12a4.3,4.3,0,0,0-4.3,4.3,4.27,4.27,0,0,0,.421,1.845,4.3,4.3,0,0,0-3.645,4.244,4.3,4.3,0,0,0,4.3,4.3A4.282,4.282,0,0,0-3.946,2L-1.175,5.23h0L-1.612,12H.982L.757,6.376,4.119,2.827v0a4.272,4.272,0,0,0,2.15.58,4.3,4.3,0,0,0,4.3-4.3A4.3,4.3,0,0,0,7.4-5.04ZM-3.346,1.538h0A4.346,4.346,0,0,0-2.7.788a4.266,4.266,0,0,0,1.765.753l-.135,2.087ZM.69,4.7.563,1.544A4.258,4.258,0,0,0,2.321.805,4.3,4.3,0,0,0,3.378,2.279Z"/>
<rect fill="none" x="-12" y="-12" width="24" height="24"/>
</symbol><g>
<desc></desc>
<g>
<line fill="none" stroke="#dddddd" stroke-width="0.1mm" x1="0.00" y1="31.00" x2="96.00" y2="31.00" />
<text x="93.20" y="30.80" font-size=".2mm" fill="#000000">0m</text>
<line fill="none" stroke="#dddddd" stroke-width="0.1mm" x1="0.00" y1="11.00" x2="96.00" y2="11.00" />
<text x="93.20" y="10.80" font-size=".2mm" fill="#000000">10m</text>
<line fill="none" stroke="#dddddd" stroke-width="0.1mm" x1="0.00" y1="51.00" x2="96.00" y2="51.00" />
<text x="93.20" y="50.80" font-size=".2mm" fill="#000000">-10m</text>
</g>
<g>
<path fill="none" stroke="#000000" stroke-width="0.06mm" d="M69.00758,32.03482 L69.08723,31.958523" /><path fill="none" stroke="#000000" stroke-width="0.06mm" d="M76.82574,29.946686 C76.7764,29.403818 76.67839,28.863188 76.67772,28.31808 C76.673454,24.826775 77.12432,28.032768 76.54786,24.349463 C76.502686,24.060833 76.32045,23.798111 76.16797,23.564173 C76.10585,23.468885 76.00811,23.346806 75.905594,23.281063 C75.62897,23.103653 75.26987,23.00989 74.969666,22.93423 C74.756165,22.880423 74.0909,22.75919 73.8607,22.966541 C73.61146,23.19104 73.49129,23.364965 73.285866,23.667788 C73.25288,23.716415 73.22571,23.770042 73.208725,23.826298 C72.86197,24.975256 73.00976,25.33902 72.69968,26.928812 C72.48079,28.050993 72.464905,27.635948 72.135345,28.359224 C72.04917,28.548357 72.036385,28.759388 72.00745,28.96077 L72.00745,28.96077" /><path fill="none" stroke="#000000" stroke-width="0.06mm" d="M71.66121,29.129936 C71.43488,29.253122 71.30142,29.28769 71.02495,29.255644 C70.45292,29.18934 69.87391,29.150032 69.314384,29.013878 C68.2866,28.763775 67.28493,28.4161 66.27551,28.09991 C66.1299,28.054298 65.85427,27.824104 65.7858,27.759218 C65.50993,27.497797 65.52113,27.500418 65.38924,27.284979 L65.38924,27.284979" /><path fill="none" stroke="#000000" stroke-width="0.06mm" d="M62.416813,26.222927 C62.517284,26.257877 62.61628,26.297413 62.71823,26.327774 C64.228195,26.777458 62.54893,26.191397 64.47102,26.999802 C64.82773,27.149824 65.193085,27.278372 65.554115,27.417656 L65.554115,27.417656" /><path fill="none" stroke="#000000" stroke-width="0.02mm" d="M55.911995,26.771557 C55.756363,26.77127 55.60068,26.766603 55.445107,26.770699 C55.289005,26.77481 55.488888,27.045387 55.492744,27.050842 C55.53228,27.106735 55.580505,27.154242 55.637627,27.19149 C55.737682,27.256739 55.940384,27.263565 56.002285,27.139025 C56.102757,26.936872 55.99081,26.811928 55.86706,26.665829 L55.86706,26.665829" /><path fill="none" stroke="#000000" stroke-width="0.02mm" d="M69.03823,31.757475 C69.08534,31.841978 69.12125,31.937008 69.1934,32.0047 C69.314705,32.118507 69.61772,32.142815 69.68596,31.960346 C69.713066,31.887852 69.69617,31.754818 69.59769,31.753586 C69.50269,31.752396 69.36306,31.88811 69.323685,31.916065 L69.323685,31.916065" /><path fill="none" stroke="#000000" stroke-width="0.02mm" d="M70.827576,31.585665 C70.793045,31.628817 70.72097,31.696863 70.69627,31.763601 C70.64253,31.908798 70.78278,32.03538 70.90828,32.073975 C70.98455,32.097427 71.06882,32.10054 71.14192,32.064247 C71.16461,32.05298 71.18765,32.041363 71.207016,32.02503 C71.26256,31.978165 71.50445,31.745268 71.40582,31.644102 C71.33392,31.570341 71.0613,31.591862 71.04721,31.591986 C70.976326,31.592611 70.90607,31.605392 70.8355,31.612097 L70.8355,31.612097" /><path fill="none" stroke="#000000" stroke-width="0.02mm" d="M65.575836,30.911648 C65.5905,30.991156 65.60095,31.071562 65.61985,31.150171 C65.6704,31.360468 66.017944,31.437302 66.09964,31.235691 C66.16616,31.071562 66.02367,30.9348 65.860855,30.946785 C65.80363,30.950998 65.770386,30.961771 65.71829,30.9866 C65.70651,30.992216 65.69501,30.99908 65.685555,31.008085 C65.614746,31.075584 65.54721,31.146439 65.47804,31.215616 L65.47804,31.215616" /><path fill="none" stroke="#000000" stroke-width="0.02mm" d="M64.77763,30.66847 C64.72745,30.720484 64.65463,30.773829 64.6251,30.84668 C64.5943,30.92266 64.61398,31.008074 64.64938,31.07867 C64.71969,31.218887 64.875946,31.31968 65.03502,31.302433 C65.17079,31.287714 65.515015,31.124544 65.34944,30.942142 C65.281624,30.867428 65.211395,30.794939 65.142365,30.721336 L65.142365,30.721336" /><path fill="none" stroke="#000000" stroke-width="0.02mm" d="M58.749214,27.89981 C58.573757,27.954134 58.39688,28.00406 58.222847,28.062778 C58.105312,28.102432 58.08073,28.225458 58.169083,28.308216 C58.20951,28.346085 58.259136,28.357763 58.311424,28.37004 C58.331963,28.374863 58.608955,28.465952 58.68456,28.434507 C58.788567,28.391247 58.877495,28.215342 58.869198,28.104786 C58.86871,28.098318 58.85429,28.013708 58.838017,28.012547 C58.778645,28.008312 58.72066,28.032545 58.66199,28.042543 L58.66199,28.042543" /><path fill="none" stroke="#248B00" stroke-width="0.06mm" d="M47.16027,27.735031 L47.175247,27.71012" /><path fill="none" stroke="#248B00" stroke-width="0.06mm" d="M47.00071,27.680443 C47.176964,27.732466 47.353226,27.784487 47.52948,27.83651 C47.689827,27.905056 47.84459,27.988514 48.01052,28.042147 C49.854984,28.63831 49.2054,28.18826 49.782486,28.602156 L49.782486,28.602156" /><path fill="none" stroke="#248B00" stroke-width="0.06mm" d="M55.703575,30.799034 C54.74007,30.054478 55.01359,30.171959 53.681118,29.649277 C53.47206,29.56727 53.256218,29.489653 53.032944,29.465584 C52.45627,29.40342 51.872818,29.435675 51.29445,29.391998 C51.188877,29.384026 51.086754,29.347406 50.987297,29.311104 C50.455116,29.11686 50.636436,29.07942 49.99566,28.7156 C48.96582,28.130878 49.736237,28.695549 49.29466,28.361364 L49.29466,28.361364" /><path fill="none" stroke="#248B00" stroke-width="0.06mm" d="M57.790337,30.751469 C57.8701,30.751762 57.95007,30.75807 58.029625,30.752352 C58.076397,30.748991 58.12217,30.736427 58.16748,30.724365 C58.540016,30.62519 58.90205,30.478542 59.28289,30.418718 C59.745823,30.345997 60.217777,30.351389 60.685837,30.328766 C60.726612,30.326794 60.767387,30.336073 60.807213,30.345041 C60.84574,30.353718 60.882877,30.367865 60.91995,30.381487 C61.17667,30.475828 61.429253,30.581701 61.688488,30.668898 C61.814415,30.711254 61.9496,30.723347 62.074116,30.7697 C62.50702,30.930853 62.389908,30.94375 62.76396,31.161821 C62.811256,31.189394 62.864185,31.206413 62.916275,31.223248 C63.057423,31.268862 63.20086,31.30708 63.34315,31.348995 L63.34315,31.348995" /><path fill="none" stroke="#248B00" stroke-width="0.06mm" d="M63.115795,31.283005 C63.15549,31.289795 63.214397,31.306114 63.25924,31.29834 C65.48407,30.912567 64.64914,30.982943 67.72824,30.77662 C67.74902,30.775229 67.72679,30.818253 67.726074,30.83907 L67.726074,30.83907" /><path fill="none" stroke="#248B00" stroke-width="0.06mm" d="M67.42029,30.809553 L67.45351,30.8593" /><path fill="none" stroke="#248B00" stroke-width="0.06mm" d="M55.57842,30.712528 C55.726982,30.710352 55.876446,30.722517 56.024097,30.705997 C56.177948,30.688784 56.325104,30.629757 56.478867,30.611784 C56.771854,30.577536 57.36112,30.698084 57.552322,30.722637 C57.84542,30.760275 57.691494,30.710566 57.83615,30.762896 L57.83615,30.762896" /><path fill="none" stroke="#248B00" stroke-width="0.02mm" d="M56.03868,32.559433 C55.912506,32.56613 55.846184,32.557674 55.732418,32.601032 C55.596138,32.652973 55.462833,32.71243 55.32895,32.770264 C55.32006,32.7741 55.311687,32.77945 55.304466,32.7859 C55.236282,32.846825 55.39014,32.92898 55.41656,32.944267 C55.487373,32.985233 55.55864,33.004665 55.64005,33.01654 C55.824997,33.043514 55.924446,32.988342 56.086758,32.89233 C56.13905,32.8614 56.210545,32.80145 56.20506,32.732258 C56.19949,32.66198 56.128242,32.59798 56.089916,32.550896 L56.089916,32.550896" /><path fill="none" stroke="#248B00" stroke-width="0.02mm" d="M56.088207,32.624332 C55.798923,32.749325 55.921497,32.684185 55.71421,32.80707 L55.71421,32.80707" /><path fill="none" stroke="#248B00" stroke-width="0.02mm" d="M55.666393,32.877094 C55.356495,32.807228 55.487827,32.825607 55.27532,32.803658 L55.27532,32.803658" /><path fill="none" stroke="#248B00" stroke-width="0.02mm" d="M56.784966,32.701187 C56.706226,32.71762 56.625977,32.72801 56.548744,32.75049 C56.492596,32.76683 56.43936,32.79221 56.38648,32.817165 C56.354446,32.83228 56.361942,32.86531 56.388893,32.88077 C56.446472,32.91379 56.586407,32.994106 56.665092,32.96827 C56.743664,32.94247 56.78844,32.86338 56.833847,32.800545 C56.851757,32.77576 56.867474,32.749172 56.88011,32.72133 C56.884315,32.71207 56.88681,32.700657 56.883564,32.691017 C56.87494,32.665398 56.760406,32.675667 56.750813,32.675568 L56.750813,32.675568" /><path fill="none" stroke="#248B00" stroke-width="0.02mm" d="M57.324615,32.78316 C57.265705,32.79061 57.206303,32.794884 57.14788,32.805515 C57.10045,32.814148 57.030766,32.840904 57.00233,32.883175 C56.96703,32.935658 57.038685,32.990665 57.082596,33.003513 C57.206615,33.039803 57.3322,32.976597 57.454838,32.96356 C57.486015,32.960243 57.51753,32.96225 57.548874,32.961494 C57.56829,32.961025 57.588493,32.965397 57.60712,32.959892 C57.638676,32.95056 57.602295,32.90941 57.599068,32.90554 C57.584305,32.887833 57.567642,32.8716 57.54979,32.85702 C57.487835,32.80642 57.356068,32.748795 57.304203,32.732708 C57.27536,32.723763 57.243805,32.73219 57.21361,32.731926 L57.21361,32.731926" /><path fill="none" stroke="#248B00" stroke-width="0.02mm" d="M58.267292,32.74388 C58.096268,32.812878 57.477684,32.9188 57.862137,33.003265 C57.980286,33.029224 58.09929,33.051704 58.218906,33.069725 C58.24093,33.073044 58.339806,33.07865 58.36099,33.046047 C58.37279,33.02788 58.35175,33.001663 58.342297,32.991806 C58.265965,32.912212 58.167862,32.88179 58.07261,32.83269 L58.07261,32.83269" /><path fill="none" stroke="#248B00" stroke-width="0.02mm" d="M59.121166,32.726803 C58.96327,32.794746 58.80341,32.8583 58.64748,32.930637 C58.6096,32.94821 58.625748,32.967068 58.653755,32.975018 C58.712753,32.991756 58.77414,32.999073 58.833263,33.01537 C58.914345,33.037716 58.992958,33.068424 59.074017,33.09085 C59.14953,33.111744 59.314423,33.073692 59.252476,32.96681 C59.24733,32.957928 59.24157,32.94905 59.23383,32.942314 C59.17826,32.89394 59.120014,32.848736 59.063103,32.80195 L59.063103,32.80195" /><path fill="none" stroke="#248B00" stroke-width="0.02mm" d="M59.804264,32.79341 C59.704506,32.81964 59.595955,32.850227 59.5174,32.922256 C59.506275,32.932453 59.488598,32.951878 59.499348,32.969967 C59.504223,32.97817 59.514202,32.98195 59.52163,32.987938 C59.661964,33.029697 59.80398,33.06616 59.94263,33.113216 C59.990196,33.12936 60.0602,33.1924 60.12433,33.17801 C60.21724,33.157158 60.294025,32.965588 60.254906,32.879333 C60.20095,32.760365 60.009186,32.69388 59.89267,32.751156 C59.84508,32.774548 59.81564,32.815617 59.77694,32.853184 L59.77694,32.853184" /><path fill="none" stroke="#248B00" stroke-width="0.02mm" d="M60.50444,32.93687 C60.458652,32.950096 60.41183,32.96016 60.367085,32.976547 C60.33335,32.988903 60.339622,33.022903 60.357258,33.044666 C60.40756,33.106716 60.5304,33.1469 60.58462,33.06574 C60.59611,33.048542 60.609306,33.015297 60.59541,32.99548 C60.566433,32.95416 60.53249,32.916557 60.501026,32.877094 L60.501026,32.877094" /><path fill="none" stroke="#248B00" stroke-width="0.02mm" d="M61.170464,32.69777 C61.0796,32.73154 60.98873,32.76531 60.89786,32.799076 C60.89075,32.80425 60.882763,32.80839 60.87653,32.814594 C60.83305,32.857864 60.871346,32.930195 60.90665,32.96483 C61.031216,33.08703 61.261566,33.031376 61.40211,33.004032 C61.433666,32.99789 61.504486,32.985718 61.513683,32.939796 C61.526936,32.873627 61.43652,32.785084 61.39807,32.745296 C61.392666,32.739697 61.38644,32.73484 61.379856,32.730686 C61.348656,32.710995 61.316544,32.692802 61.284885,32.673862 L61.284885,32.673862" /><path fill="none" stroke="#248B00" stroke-width="0.02mm" d="M61.819405,32.82586 C61.783207,32.847435 61.74523,32.86628 61.71081,32.890594 C61.68162,32.911213 61.700085,32.944286 61.722607,32.95916 C61.781334,32.997944 61.866604,33.03373 61.939102,33.016327 C61.99841,33.00209 61.960735,32.944164 61.92052,32.932297 C61.86303,32.91533 61.804157,32.903465 61.745975,32.88905 L61.745975,32.88905" /><path fill="none" stroke="#248B00" stroke-width="0.02mm" d="M62.640835,32.800243 C62.601353,32.78493 62.562767,32.767044 62.522377,32.754314 C62.438656,32.727924 62.333862,32.74164 62.29925,32.83123 C62.291218,32.852028 62.285664,32.874092 62.28903,32.89642 C62.299603,32.966587 62.40361,32.999783 62.460728,33.00609 C62.542645,33.01513 62.62523,33.01747 62.707626,33.019276 C62.71618,33.019463 62.724518,33.015697 62.732254,33.012028 C62.786366,32.98637 62.784264,32.900707 62.747894,32.861614 C62.698578,32.8086 62.597572,32.797657 62.531273,32.815147 C62.491272,32.8257 62.45289,32.841644 62.413704,32.854893 L62.413704,32.854893" /><path fill="none" stroke="#248B00" stroke-width="0.02mm" d="M63.16905,32.74296 C63.049843,32.77948 63.05006,32.769955 62.95645,32.827198 C62.84695,32.894157 62.936615,32.96575 63.022186,32.989525 C63.098022,33.010597 63.17346,33.007633 63.252304,33.002506 C63.32239,32.997948 63.411465,32.97968 63.35095,32.8945 C63.327168,32.861027 63.302437,32.82809 63.275284,32.797287 C63.256756,32.77627 63.237484,32.755173 63.214283,32.739468 C63.181618,32.717354 63.14428,32.703087 63.10928,32.684895 L63.10928,32.684895" /><path fill="none" stroke="#248B00" stroke-width="0.02mm" d="M63.770176,32.74296 C63.651443,32.774605 63.532707,32.806248 63.413975,32.83789 C63.408924,32.84507 63.396587,32.85094 63.398827,32.85943 C63.401882,32.871002 63.41504,32.877987 63.425896,32.883026 C63.46132,32.89946 63.498127,32.913525 63.536,32.923065 C63.633083,32.947517 63.713062,32.95294 63.812263,32.94285 C63.83067,32.94098 63.848892,32.927887 63.845036,32.90705 C63.84289,32.895462 63.837593,32.883766 63.829323,32.875366 C63.789375,32.834827 63.744354,32.79962 63.70187,32.76175 L63.70187,32.76175" /><path fill="none" stroke="#248B00" stroke-width="0.02mm" d="M64.42424,32.715637 C64.36972,32.72777 64.31416,32.735977 64.260666,32.75205 C64.24039,32.758144 64.12243,32.78934 64.105545,32.83937 C64.07912,32.91768 64.23804,32.985798 64.29869,32.977943 C64.448685,32.958527 64.938835,32.800396 64.59416,32.725838 C64.4961,32.704628 64.39663,32.69057 64.29787,32.67294 L64.29787,32.67294" /><path fill="none" stroke="#248B00" stroke-width="0.02mm" d="M65.21152,32.626827 C65.164505,32.634632 65.11655,32.638046 65.07047,32.65024 C65.050385,32.65556 64.806595,32.737316 64.871155,32.801632 C64.91373,32.844048 65.00992,32.86088 65.06496,32.86306 C65.180435,32.867638 65.40384,32.893154 65.5282,32.81814 C65.574,32.790516 65.511444,32.735527 65.49047,32.720562 C65.37843,32.640594 65.3121,32.635063 65.18248,32.6422 L65.18248,32.6422" /><path fill="none" stroke="#248B00" stroke-width="0.02mm" d="M66.18835,32.724174 C66.140915,32.72262 66.09296,32.7123 66.04605,32.719505 C65.92512,32.73809 65.80638,32.769527 65.688156,32.801037 C65.664536,32.807335 65.66325,32.82831 65.67394,32.84493 C65.70441,32.892315 65.78509,32.91776 65.837265,32.918983 C66.06769,32.924397 66.03424,32.887436 66.33676,32.819622 C66.367004,32.812843 66.39873,32.816956 66.429565,32.81385 C66.44214,32.812584 66.49669,32.81254 66.45639,32.780876 C66.410675,32.74496 66.36103,32.71419 66.31128,32.684097 C66.259445,32.65274 66.22908,32.648384 66.171265,32.63195 L66.171265,32.63195" /><path fill="none" stroke="#248B00" stroke-width="0.02mm" d="M67.13103,32.90179 L67.083435,32.883236" /><path fill="none" stroke="#248B00" stroke-width="0.02mm" d="M66.705795,32.859097 C66.72056,32.823307 66.73532,32.787518 66.75009,32.751728 C66.749405,32.74223 66.75328,32.731194 66.74806,32.72323 C66.73584,32.704594 66.6948,32.716373 66.68412,32.71988 C66.62955,32.737778 66.51264,32.7734 66.48721,32.834927 C66.4653,32.887943 66.56563,32.926804 66.59276,32.937565 C66.666275,32.96673 66.79378,32.985878 66.84041,32.900066 C66.85464,32.873894 66.866356,32.84451 66.85966,32.814198 C66.846695,32.755486 66.74423,32.70421 66.71262,32.68148 L66.71262,32.68148" /><path fill="none" stroke="#248B00" stroke-width="0.02mm" d="M67.349625,32.693436 C67.280365,32.71826 67.20978,32.739616 67.14188,32.76792 C67.1315,32.772243 67.05286,32.805294 67.03758,32.83776 C67.00687,32.902996 67.16585,32.94859 67.20172,32.954525 C67.21996,32.957546 67.238594,32.958225 67.25708,32.95804 C67.29664,32.957638 67.42125,32.971497 67.486755,32.941105 C67.61597,32.881153 67.60383,32.697044 67.49302,32.623943 C67.43172,32.583504 67.400665,32.590824 67.31205,32.572178 L67.31205,32.572178" /><path fill="none" stroke="#248B00" stroke-width="0.06mm" d="M67.711655,30.835297 C67.69826,30.93038 67.6764,31.02465 67.67145,31.120546 C67.65563,31.426836 67.67163,31.734484 67.649445,32.04038 C67.55116,33.395084 67.542694,32.417896 67.55284,32.98377 L67.55284,32.98377" /><path fill="none" stroke="#248B00" stroke-width="0.02mm" d="M54.783253,32.734146 C54.765106,32.730026 54.747192,32.724663 54.72881,32.72179 C54.716408,32.719852 54.68935,32.72198 54.677715,32.726517 C54.58889,32.76114 54.50096,32.798054 54.41303,32.83489 C54.344875,32.863438 54.463642,32.916367 54.487553,32.91892 C54.63099,32.934227 54.775326,32.93981 54.91889,32.953835 C54.941143,32.95601 54.962414,32.96441 54.984562,32.967464 C54.98808,32.96795 54.991768,32.966248 54.99474,32.964306 C55.01594,32.95045 54.999744,32.899975 54.995453,32.88648 C54.977165,32.828957 54.923153,32.746567 54.861214,32.725395 C54.846504,32.720367 54.822235,32.722908 54.811222,32.72281 L54.811222,32.72281" /><path fill="none" stroke="#248B00" stroke-width="0.02mm" d="M53.961544,32.731125 C53.903927,32.730705 53.893593,32.72639 53.83768,32.742874 C53.69555,32.78477 53.554077,32.828915 53.412895,32.873913 C53.394886,32.87965 53.39256,32.899258 53.401684,32.91303 C53.42474,32.947834 53.472828,32.96681 53.511833,32.973133 C53.636963,32.99343 53.80922,33.020695 53.932156,32.97803 C53.976143,32.962765 53.953766,32.914288 53.983303,32.88362 C54.01029,32.855602 54.04009,32.830395 54.06727,32.802567 C54.071133,32.79861 54.07337,32.788162 54.073376,32.782925 C54.07341,32.72911 53.96625,32.689995 53.938858,32.675938 L53.938858,32.675938" /><path fill="none" stroke="#248B00" stroke-width="0.02mm" d="M53.07557,32.709957 C53.049786,32.708054 53.024067,32.703815 52.99821,32.704247 C52.978058,32.70458 52.95754,32.706306 52.938274,32.712234 C52.822647,32.74781 52.707535,32.785465 52.594463,32.828476 C52.556995,32.842728 52.521797,32.86273 52.48761,32.88366 C52.48494,32.885296 52.48642,32.891483 52.489204,32.892918 C52.496887,32.896862 52.506195,32.896023 52.514687,32.897575 C52.60343,32.899506 52.69234,32.897602 52.78092,32.903362 C52.857323,32.908325 52.973618,32.939472 53.065258,32.927586 C53.07555,32.92625 53.085598,32.923283 53.09549,32.92015 C53.1289,32.909573 53.163788,32.90224 53.195084,32.886475 C53.24102,32.86334 53.2827,32.832542 53.32563,32.80422 C53.36827,32.77609 53.318474,32.748123 53.294254,32.736633 C53.285217,32.73235 53.27572,32.728867 53.265976,32.726616 C53.148697,32.699547 53.184776,32.70587 53.064987,32.714493 L53.064987,32.714493" /><path fill="none" stroke="#248B00" stroke-width="0.02mm" d="M52.28485,32.72961 C52.276276,32.722088 52.250835,32.68316 52.228283,32.694374 C52.206352,32.70528 52.19109,32.755127 52.187233,32.769737 C52.18309,32.785435 52.14979,32.892036 52.169834,32.931526 C52.201443,32.99379 52.319637,32.967823 52.363052,32.962452 C52.389877,32.959133 52.418507,32.941883 52.433907,32.91968 C52.468937,32.869175 52.483414,32.76912 52.424053,32.729675 C52.389645,32.70681 52.348213,32.70544 52.308037,32.70725 C52.283455,32.70835 52.257294,32.70626 52.234753,32.71613 C52.21572,32.72446 52.20465,32.744774 52.1896,32.759094 L52.1896,32.759094" /><path fill="none" stroke="#248B00" stroke-width="0.02mm" d="M52.286366,32.830914 L52.33787,32.871082" /><path fill="none" stroke="#248B00" stroke-width="0.02mm" d="M51.896294,32.717514 C51.80713,32.69553 51.771896,32.697227 51.67228,32.733696 C51.61281,32.75547 51.503662,32.803074 51.441216,32.852116 C51.429726,32.861145 51.39891,32.884132 51.39907,32.906353 C51.399284,32.93561 51.447025,32.956047 51.468796,32.95976 C51.505257,32.96598 51.54212,32.97143 51.57911,32.971733 C51.628075,32.97213 51.67729,32.96939 51.725674,32.96184 C51.802032,32.94993 51.877098,32.930763 51.952427,32.913483 C51.9987,32.902866 52.002098,32.862682 51.998398,32.82079 C51.996037,32.794044 51.992134,32.75106 51.96821,32.73137 C51.945312,32.712524 51.910164,32.714092 51.8831,32.7167 C51.815014,32.723263 51.80413,32.750713 51.750397,32.802185 L51.750397,32.802185" /><path fill="none" stroke="#248B00" stroke-width="0.02mm" d="M51.048126,32.706177 C50.99697,32.72062 50.945534,32.734093 50.89466,32.749508 C50.84133,32.765667 50.901787,32.822132 50.917473,32.83634 C50.97008,32.883984 51.090473,32.935295 51.162514,32.904144 C51.176064,32.898285 51.185852,32.89035 51.195786,32.879528 C51.23272,32.839294 51.20009,32.793888 51.17105,32.75864 C51.149033,32.73191 51.125145,32.70534 51.094986,32.687603 C51.06859,32.67208 51.04441,32.67608 51.014107,32.676693 L51.014107,32.676693" /><path fill="none" stroke="#248B00" stroke-width="0.06mm" d="M46.77967,30.489405 C46.9723,30.541742 46.94613,30.524117 47.164276,30.652765 C47.243202,30.699314 47.313698,30.75925 47.39257,30.805891 C47.459328,30.845366 47.531067,30.875711 47.60032,30.910622 L47.60032,30.910622" /><path fill="none" stroke="#248B00" stroke-width="0.02mm" d="M47.7457,30.933722 C47.71618,30.924664 47.68666,30.915607 47.657143,30.90655 C47.65113,30.908907 47.64338,30.908773 47.639114,30.91362 C47.611694,30.94477 47.655952,31.011887 47.686264,31.02701 C47.75383,31.060717 48.11901,31.126028 48.128265,30.97926 C48.1298,30.954948 48.1174,30.931324 48.103233,30.912624 C48.05533,30.849401 47.959835,30.857359 47.893887,30.883171 C47.84396,30.90271 47.798798,30.935905 47.746437,30.94743 C47.73601,30.949724 47.73689,30.928326 47.732113,30.918776 L47.732113,30.918776" /><path fill="none" stroke="#248B00" stroke-width="0.02mm" d="M48.358467,30.998943 C48.285713,30.99668 48.168594,30.99012 48.174316,31.09726 C48.1782,31.16997 48.3031,31.225962 48.355186,31.235968 C48.381134,31.240952 48.407166,31.231224 48.42555,31.212622 C48.472084,31.16553 48.47544,31.096945 48.431046,31.045761 C48.40766,31.018806 48.379044,31.017054 48.35014,30.999378 C48.32823,30.985981 48.30859,30.969194 48.287815,30.954103 L48.287815,30.954103" /><path fill="none" stroke="#248B00" stroke-width="0.02mm" d="M48.685913,31.24352 C48.621754,31.2468 48.504677,31.239292 48.46293,31.310585 C48.43092,31.365255 48.49122,31.441727 48.537224,31.465895 C48.623425,31.51118 48.72671,31.48524 48.81761,31.49114 C49.095886,31.509201 48.77575,31.506472 49.010513,31.535515 C49.016567,31.536263 49.02318,31.52916 49.023975,31.52311 C49.025436,31.511995 49.020782,31.50067 49.016445,31.490334 C49.008064,31.470377 48.99807,31.450958 48.986103,31.432922 C48.9498,31.378214 48.869488,31.30039 48.805054,31.282536 C48.756374,31.269047 48.704796,31.270113 48.654663,31.263903 L48.654663,31.263903" /><path fill="none" stroke="#248B00" stroke-width="0.02mm" d="M49.3639,31.672892 C49.340607,31.66428 49.29117,31.635826 49.25462,31.638731 C49.19305,31.643623 49.158226,31.729944 49.200516,31.77516 C49.27243,31.852053 49.443104,32.0011 49.5754,32.001057 C49.64403,32.001034 49.720795,31.950611 49.703133,31.872925 C49.69474,31.836006 49.663635,31.8039 49.63656,31.780724 C49.562996,31.717764 49.495567,31.699312 49.403297,31.66338 L49.403297,31.66338" /><path fill="none" stroke="#248B00" stroke-width="0.02mm" d="M50.074493,31.98269 C50.04512,31.972973 50.016228,31.961666 49.986374,31.953535 C49.918034,31.93492 49.82933,31.98714 49.844566,32.063217 C49.849464,32.087677 49.863373,32.10821 49.885376,32.120335 C49.945145,32.15327 50.11697,32.153996 50.131832,32.15666 C50.13417,32.157078 50.27055,32.21459 50.30471,32.191708 C50.325405,32.17785 50.333183,32.14775 50.335495,32.12493 C50.344437,32.036575 50.242233,31.978868 50.174458,31.950125 C50.16942,31.947987 50.16295,31.947388 50.158047,31.949814 C50.134857,31.961288 50.11412,31.977167 50.092155,31.990843 L50.092155,31.990843" /><path fill="none" stroke="#248B00" stroke-width="0.02mm" d="M50.660088,32.383526 C50.60125,32.31413 50.541836,32.27185 50.44774,32.2861 C50.43354,32.28825 50.415707,32.295593 50.420296,32.314194 C50.43445,32.37156 50.549812,32.437057 50.593124,32.473083 C50.707428,32.56817 50.71116,32.771267 50.88849,32.634895 C50.965363,32.575775 51.02288,32.45419 50.950222,32.368607 C50.902496,32.31239 50.815247,32.29029 50.745525,32.28174 C50.670403,32.272526 50.606476,32.309105 50.541885,32.341404 L50.541885,32.341404" /><path fill="none" stroke="#000000" stroke-width="0.02mm" d="M54.00152,25.929602 C53.98119,25.938475 53.944363,25.94478 53.93225,25.969597 C53.914898,26.005157 53.946335,26.059887 53.96752,26.085428 C54.00149,26.12638 54.06259,26.198093 54.125317,26.19537 C54.158554,26.193928 54.18771,26.174604 54.208916,26.150095 C54.25542,26.096342 54.306248,26.05687 54.28443,25.984715 C54.278378,25.9647 54.267494,25.94675 54.251064,25.933693 C54.215466,25.905403 54.15781,25.897247 54.11606,25.892838 C54.094135,25.890524 54.07197,25.891993 54.049927,25.891953 C54.0446,25.891943 54.038902,25.894695 54.033974,25.892693 C54.02331,25.88836 54.01474,25.880058 54.00512,25.873743 L54.00512,25.873743" /><path fill="none" stroke="#000000" stroke-width="0.02mm" d="M54.60783,26.000778 C54.52772,26.020317 54.446987,26.03743 54.36751,26.059391 C54.358982,26.061747 54.317276,26.074505 54.303986,26.090872 C54.255096,26.15106 54.469265,26.268763 54.48307,26.279743 C54.52737,26.314985 54.577442,26.389462 54.643997,26.401917 C54.686993,26.409966 54.713295,26.406008 54.75863,26.400402 C54.80409,26.393991 54.849773,26.38901 54.89501,26.381168 C54.89918,26.380447 54.902767,26.37756 54.906017,26.374859 C54.928032,26.356585 54.917656,26.318462 54.91144,26.297014 C54.88377,26.20151 54.78759,26.103828 54.70651,26.052212 C54.643078,26.011833 54.56971,26.000553 54.497925,25.983662 L54.497925,25.983662" /><path fill="none" stroke="#000000" stroke-width="0.02mm" d="M55.20154,26.369276 C55.164097,26.385885 55.05866,26.362392 55.016216,26.400932 C54.98926,26.425404 55.049816,26.475273 55.0588,26.481361 C55.12587,26.526814 55.196667,26.56653 55.266567,26.607496 C55.298744,26.626352 55.32673,26.58741 55.33697,26.563316 C55.378838,26.464798 55.277542,26.369179 55.18751,26.351799 C55.160725,26.346628 55.137596,26.353539 55.110546,26.357563 L55.110546,26.357563" /><path fill="none" stroke="#000000" stroke-width="0.02mm" d="M56.219578,26.980135 C56.19733,26.97933 56.175087,26.97694 56.15284,26.977722 C56.080677,26.980251 56.027206,27.037773 56.058212,27.108454 C56.06152,27.115995 56.065754,27.123178 56.07065,27.129803 C56.115967,27.191164 56.161842,27.252127 56.208748,27.312283 C56.216347,27.322027 56.231213,27.326628 56.243057,27.325394 C56.283073,27.32122 56.313717,27.279358 56.329437,27.246422 C56.337673,27.22917 56.391132,27.135809 56.38864,27.093485 C56.38185,26.978155 56.186817,26.923395 56.12408,26.89274 L56.12408,26.89274" /><path fill="none" stroke="#000000" stroke-width="0.02mm" d="M56.658325,26.964817 C56.59439,26.985111 56.515083,26.998022 56.463047,27.046412 C56.446995,27.061335 56.442974,27.08099 56.447964,27.101578 C56.482018,27.242126 56.515244,27.382883 56.550564,27.523119 C56.553516,27.534853 56.56538,27.545849 56.57631,27.550049 C56.615135,27.564972 56.662815,27.535337 56.691597,27.512897 C56.74843,27.468592 56.80363,27.422216 56.86063,27.378132 C56.88473,27.35949 56.896477,27.360065 56.91086,27.338785 C56.935017,27.303036 56.926334,27.247519 56.91446,27.209417 C56.893044,27.140696 56.87556,27.048555 56.807526,27.006128 C56.759663,26.976282 56.700546,26.976566 56.646572,26.972076 C56.61161,26.969168 56.575447,26.974255 56.54155,26.965214 C56.533867,26.963165 56.537117,26.949934 56.5349,26.942293 L56.5349,26.942293" /><path fill="none" stroke="#000000" stroke-width="0.02mm" d="M57.196175,27.3198 C57.143276,27.33296 57.090065,27.34489 57.03749,27.359282 C56.988407,27.372715 56.940536,27.39043 56.89129,27.403248 C56.86993,27.408806 56.847294,27.40846 56.826015,27.414318 C56.82194,27.41544 56.81844,27.419508 56.817375,27.4236 C56.814617,27.434193 56.826054,27.448528 56.831215,27.454845 C56.89239,27.529734 56.95102,27.60688 57.016193,27.678316 C57.05758,27.723682 57.151695,27.80435 57.2254,27.789156 C57.25954,27.782118 57.292717,27.756098 57.31059,27.726633 C57.373493,27.622929 57.41528,27.497458 57.35036,27.383068 C57.301582,27.297112 57.254177,27.283941 57.165543,27.247723 L57.165543,27.247723" /><path fill="none" stroke="#000000" stroke-width="0.02mm" d="M57.5187,27.57117 C57.48219,27.567741 57.35239,27.550285 57.34307,27.618467 C57.333576,27.68792 57.433975,27.762869 57.48617,27.782795 C57.530598,27.799755 57.577614,27.758783 57.60628,27.731808 C57.623337,27.71576 57.64835,27.687763 57.642544,27.661236 C57.64087,27.653606 57.63565,27.643902 57.630016,27.638573 C57.598286,27.608582 57.56541,27.579823 57.533115,27.55045 L57.533115,27.55045" /><path fill="none" stroke="#000000" stroke-width="0.02mm" d="M58.005196,27.498192 C57.943714,27.521282 57.88117,27.5417 57.820763,27.567461 C57.8002,27.57623 57.750053,27.59659 57.733326,27.625313 C57.70935,27.666475 57.731018,27.73405 57.76014,27.7672 C57.80592,27.819317 57.85263,27.870651 57.900593,27.920773 C57.906326,27.926767 57.913662,27.931099 57.92088,27.935188 C57.984116,27.971024 58.076134,27.939777 58.117397,27.884027 C58.13311,27.862793 58.142773,27.838385 58.149757,27.813023 C58.164997,27.757729 58.148067,27.709253 58.13412,27.653948 C58.119724,27.596869 58.05244,27.59774 58.01269,27.56768 C57.986324,27.547739 57.94345,27.495115 57.92862,27.47837 L57.92862,27.47837" /><path fill="none" stroke="#000000" stroke-width="0.02mm" d="M58.29259,27.855877 C58.26132,27.857681 58.229893,27.85769 58.19878,27.861288 C58.11516,27.870956 58.09359,27.914635 58.15743,27.974037 C58.20645,28.019646 58.291367,28.044697 58.354946,28.017138 C58.426983,27.985909 58.424488,27.8968 58.35904,27.859333 C58.317856,27.835758 58.305416,27.846268 58.24754,27.845966 L58.24754,27.845966" /><path fill="none" stroke="#000000" stroke-width="0.02mm" d="M59.06107,28.251404 C59.000572,28.249992 58.955765,28.242912 58.8984,28.260254 C58.8528,28.27404 58.808636,28.292263 58.764324,28.309752 C58.68274,28.34195 58.775616,28.399763 58.809387,28.419687 C58.843323,28.439707 58.879658,28.455656 58.912685,28.47714 C58.950344,28.504877 58.987995,28.532616 59.02565,28.560352 C59.029533,28.561676 59.033268,28.56358 59.037304,28.56432 C59.049934,28.566639 59.06331,28.562143 59.07333,28.554466 C59.123985,28.515652 59.124474,28.45777 59.106968,28.400167 C59.078556,28.3067 59.078594,28.330458 58.9908,28.262215 L58.9908,28.262215" /><path fill="none" stroke="#000000" stroke-width="0.02mm" d="M59.54216,28.329788 C59.432045,28.373405 59.32143,28.41578 59.21182,28.460644 C59.160023,28.481842 59.216805,28.582174 59.23238,28.604275 C59.260284,28.643875 59.292194,28.68064 59.318783,28.721134 C59.333576,28.743671 59.342167,28.769817 59.356186,28.792845 C59.358253,28.796242 59.362522,28.79792 59.36629,28.799175 C59.38119,28.804136 59.39784,28.794788 59.409546,28.786867 C59.449253,28.760002 59.49016,28.734688 59.52779,28.704979 C59.56047,28.679178 59.60814,28.633173 59.594963,28.584333 C59.577892,28.521065 59.53457,28.477661 59.505917,28.419378 C59.48685,28.380606 59.47362,28.33923 59.457474,28.299156 L59.457474,28.299156" /><path fill="none" stroke="#000000" stroke-width="0.02mm" d="M59.71694,28.544218 C59.787704,28.626474 59.440163,28.701628 59.53033,28.80645 C59.57168,28.854515 59.612904,28.90272 59.655914,28.949303 C59.660954,28.954762 59.671997,28.956081 59.678688,28.954376 C59.701218,28.94863 59.718952,28.91655 59.727898,28.90065 C59.73987,28.879372 59.753017,28.846563 59.754932,28.8217 C59.767014,28.665133 59.779217,28.632126 59.740364,28.509983 L59.740364,28.509983" /><path fill="none" stroke="#000000" stroke-width="0.02mm" d="M59.75208,28.49917 L59.74229,28.494785" /><path fill="none" stroke="#000000" stroke-width="0.02mm" d="M59.947575,28.857758 C59.907272,28.861006 59.86688,28.863289 59.826664,28.867504 C59.761654,28.874317 59.750713,28.938103 59.78106,28.988764 C59.795685,29.013178 59.81963,29.033613 59.84546,29.045353 C59.86371,29.053646 59.883247,29.056461 59.902958,29.052889 C59.932854,29.04747 59.986057,29.015203 59.969505,28.977581 C59.95594,28.946747 59.895584,28.920183 59.87985,28.910946 C59.871616,28.906115 59.862743,28.902473 59.85419,28.898237 C59.83757,28.887747 59.820953,28.877256 59.80433,28.866766 L59.80433,28.866766" /><path fill="none" stroke="#000000" stroke-width="0.02mm" d="M53.76908,25.673727 C53.71554,25.664452 53.667168,25.65744 53.620853,25.689396 C53.60795,25.698305 53.481224,25.760546 53.470974,25.820894 C53.468502,25.83545 53.472202,25.849829 53.478603,25.862932 C53.51725,25.94205 53.601784,25.96965 53.678608,26.00537 C53.7291,26.028845 53.809296,26.049631 53.861217,26.016544 C53.890793,25.997698 53.91127,25.956507 53.9141,25.92242 C53.916996,25.88749 53.922806,25.812088 53.90409,25.772915 C53.895126,25.754158 53.87827,25.737818 53.860188,25.727951 C53.79567,25.692749 53.761032,25.693485 53.6898,25.697153 L53.6898,25.697153" /><path fill="none" stroke="#000000" stroke-width="0.02mm" d="M53.27718,25.543987 C53.230904,25.522238 53.190144,25.509787 53.141346,25.52944 C53.12059,25.537798 53.04688,25.56416 53.0332,25.594845 C53.024498,25.614359 53.03635,25.63878 53.048374,25.653755 C53.085976,25.700592 53.131813,25.764128 53.19785,25.773401 C53.260612,25.782215 53.385616,25.79008 53.42948,25.761736 C53.44075,25.754456 53.446255,25.740664 53.447727,25.727863 C53.45601,25.655918 53.40581,25.59671 53.34611,25.562 C53.287243,25.527773 53.224476,25.50074 53.163662,25.470108 L53.163662,25.470108" /><path fill="none" stroke="#000000" stroke-width="0.02mm" d="M52.86276,25.363794 C52.802895,25.421114 52.61701,25.53406 52.599884,25.611977 C52.586243,25.674025 52.714886,25.709414 52.74958,25.71283 C52.83621,25.721361 52.923367,25.723598 53.010365,25.726582 C53.0293,25.72723 53.04925,25.715614 53.059307,25.700012 C53.06721,25.68774 53.06658,25.682379 53.070885,25.666843 C52.90711,25.364794 53.19621,25.461647 53.143368,25.364105 C53.137054,25.352459 53.121693,25.345568 53.108814,25.345997 C53.073658,25.34717 52.868904,25.328154 52.788536,25.38071 C52.767372,25.394548 52.742596,25.451555 52.74023,25.455692 L52.74023,25.455692" /><path fill="none" stroke="#000000" stroke-width="0.02mm" d="M60.328663,28.891994 C60.25959,28.897354 60.256332,28.892664 60.197384,28.912506 C60.156662,28.926214 60.11609,28.94049 60.076267,28.956635 C60.07197,28.958376 60.068752,28.962227 60.065845,28.965834 C60.058037,28.975513 60.05627,28.991978 60.062984,29.002853 C60.084717,29.038036 60.10658,29.073288 60.131626,29.106195 C60.177288,29.16619 60.253147,29.22732 60.332855,29.227268 C60.378864,29.22724 60.430695,29.20498 60.468456,29.189054 C60.49721,29.17693 60.558506,29.149406 60.578823,29.114948 C60.592262,29.092148 60.587944,29.06896 60.592262,29.043745 C60.59431,29.03179 60.597656,29.020033 60.601757,29.008617 C60.61572,28.969755 60.64019,28.939688 60.599285,28.908098 C60.52918,28.85396 60.487747,28.885633 60.404663,28.88507 C60.332382,28.88458 60.311302,28.876585 60.250286,28.86136 L60.250286,28.86136" /><path fill="none" stroke="#000000" stroke-width="0.02mm" d="M60.591736,29.24247 C60.571293,29.24004 60.52894,29.221973 60.504227,29.2378 C60.45712,29.267977 60.480247,29.396181 60.547195,29.387388 C60.60347,29.38 60.72564,29.318214 60.660748,29.244587 C60.638103,29.218891 60.596455,29.217083 60.566505,29.210938 L60.566505,29.210938" /><path fill="none" stroke="#000000" stroke-width="0.02mm" d="M60.817863,29.076693 C60.786156,29.112421 60.75523,29.138908 60.736412,29.182285 C60.724995,29.208601 60.70359,29.260805 60.707798,29.295162 C60.71478,29.35212 60.8035,29.385036 60.847866,29.350668 C60.875072,29.329592 60.88355,29.28052 60.88697,29.251635 C60.892193,29.207512 60.8941,29.163033 60.89568,29.118631 C60.895897,29.112482 60.894184,29.106346 60.892345,29.100477 C60.879185,29.058544 60.826107,29.02921 60.783825,29.029413 C60.76809,29.02949 60.75246,29.0321 60.736782,29.033445 L60.736782,29.033445" /><path fill="none" stroke="#000000" stroke-width="0.02mm" d="M46.030746,27.33245 C45.936443,27.355835 45.83812,27.380896 45.764755,27.44899 C45.751724,27.461082 45.760056,27.481445 45.772125,27.489935 C45.825325,27.527346 45.90313,27.566927 45.969124,27.53593 C46.063393,27.491653 46.159344,27.450014 46.24899,27.396988 C46.29825,27.367853 46.339783,27.327244 46.38379,27.290655 C46.389248,27.286116 46.39324,27.279964 46.396996,27.273935 C46.445766,27.195614 46.370644,27.116102 46.289387,27.119057 C46.171383,27.12335 46.028606,27.212702 45.928696,27.270199 L45.928696,27.270199" /><path fill="none" stroke="#000000" stroke-width="0.02mm" d="M46.06238,27.206924 L45.858284,27.379398" /><path fill="none" stroke="#000000" stroke-width="0.02mm" d="M46.62365,26.891577 C46.55941,26.952868 46.493507,27.012463 46.43093,27.07545 C46.375008,27.131737 46.370674,27.16864 46.450523,27.195415 C46.47822,27.204702 46.506546,27.212542 46.535343,27.21747 C46.558975,27.221518 46.64653,27.240858 46.68891,27.223808 C46.709267,27.215616 46.720802,27.207228 46.737106,27.192259 C46.809113,27.126162 46.879845,27.058691 46.95176,26.992489 C46.971355,26.974447 47.012894,26.951973 46.98722,26.920252 C46.983124,26.915184 46.978683,26.90989 46.972847,26.906986 C46.727467,26.784874 46.814106,26.78186 46.701206,26.790543 L46.701206,26.790543" /><path fill="none" stroke="#000000" stroke-width="0.02mm" d="M47.28186,26.74768 C47.17939,26.78207 47.171623,26.776554 47.08851,26.830675 C47.072212,26.84129 47.05735,26.854046 47.042862,26.867023 C46.96888,26.9333 47.148212,26.941315 47.159134,26.942892 C47.247616,26.955677 47.344833,26.973028 47.43179,26.939949 C47.484474,26.919907 47.510456,26.895184 47.55712,26.857685 C47.58986,26.831379 47.62253,26.804941 47.653812,26.776922 C47.659966,26.77141 47.662857,26.759462 47.662453,26.751673 C47.65982,26.701542 47.586075,26.655216 47.551743,26.629082 C47.523773,26.607792 47.513546,26.604149 47.49344,26.577383 C47.483463,26.564098 47.476303,26.54126 47.45913,26.532505 C47.420742,26.512943 47.359177,26.577211 47.33966,26.601004 C47.261765,26.695972 47.258705,26.658863 47.266556,26.709919 L47.266556,26.709919" /><path fill="none" stroke="#000000" stroke-width="0.02mm" d="M47.251247,26.724207 C47.27807,26.758926 47.30489,26.793644 47.33171,26.828362 C47.337727,26.837519 47.341564,26.848553 47.34975,26.855833 C47.364166,26.868654 47.38205,26.876942 47.398197,26.887495 L47.398197,26.887495" /><path fill="none" stroke="#000000" stroke-width="0.02mm" d="M48.003345,26.612968 C47.912792,26.661291 47.80301,26.644283 47.714546,26.695908 C47.70408,26.702015 47.70379,26.713818 47.70984,26.722713 C47.71407,26.72894 47.71983,26.734253 47.726173,26.738308 C47.75206,26.754868 47.778107,26.771574 47.80609,26.784275 C47.851585,26.804922 47.934547,26.853931 47.994656,26.826523 C48.023834,26.813215 48.0495,26.79185 48.067207,26.765026 C48.09861,26.717457 48.105118,26.6504 48.06158,26.608587 C48.051018,26.598442 48.037037,26.590736 48.02231,26.58918 C47.991547,26.585934 47.958374,26.61208 47.934975,26.625216 L47.934975,26.625216" /><path fill="none" stroke="#000000" stroke-width="0.02mm" d="M48.609516,26.402737 C48.59659,26.382856 48.58469,26.362268 48.570736,26.343096 C48.542534,26.304348 48.467945,26.341602 48.444977,26.35338 C48.388435,26.382368 48.3323,26.412773 48.280014,26.448877 C48.233772,26.48081 48.192314,26.519255 48.150467,26.55676 C48.138542,26.56745 48.12773,26.587967 48.131485,26.60479 C48.139084,26.638853 48.19231,26.659815 48.223366,26.655996 C48.235924,26.654453 48.50953,26.644592 48.586113,26.584835 C48.604733,26.570309 48.613907,26.542835 48.614616,26.520166 C48.617607,26.424809 48.576393,26.386707 48.522774,26.304764 L48.522774,26.304764" /><path fill="none" stroke="#000000" stroke-width="0.02mm" d="M49.010567,26.323133 C48.97943,26.337608 48.946228,26.34829 48.917156,26.366556 C48.841373,26.414171 48.76849,26.466404 48.696945,26.52018 C48.68142,26.531849 48.697598,26.544136 48.708294,26.54476 C48.79428,26.549772 48.880516,26.548674 48.96659,26.551682 C49.01648,26.553423 49.04899,26.558876 49.09664,26.538462 C49.196487,26.495687 49.243702,26.397747 49.128464,26.338825 C49.08212,26.315128 49.038055,26.328232 48.988113,26.33436 L48.988113,26.33436" /><path fill="none" stroke="#000000" stroke-width="0.02mm" d="M49.342224,26.2221 C49.312305,26.277338 49.281246,26.331974 49.252464,26.387814 C49.231842,26.427834 49.285263,26.473238 49.31273,26.489704 C49.346947,26.510216 49.429962,26.538305 49.45189,26.545748 C49.457745,26.547735 49.468033,26.5456 49.473404,26.543423 C49.48832,26.537373 49.502483,26.522266 49.510185,26.5089 C49.541878,26.45388 49.57078,26.397293 49.60197,26.341984 C49.614563,26.319649 49.63839,26.295616 49.62114,26.26849 C49.605103,26.243273 49.554573,26.226637 49.535652,26.218954 C49.52053,26.212814 49.503227,26.211905 49.489136,26.203669 C49.471863,26.19357 49.45855,26.177856 49.443253,26.164948 L49.443253,26.164948" /><path fill="none" stroke="#000000" stroke-width="0.02mm" d="M50.00758,26.087387 C49.926167,26.121574 49.843987,26.153988 49.763344,26.189949 C49.75505,26.193645 49.747612,26.19946 49.741405,26.206081 C49.722656,26.226082 49.754868,26.23217 49.76648,26.23624 C49.78839,26.24392 49.811127,26.249687 49.832016,26.259823 C49.878475,26.282372 49.92222,26.310163 49.968006,26.33405 C49.972527,26.336409 49.985573,26.33721 49.99034,26.336674 C50.0263,26.332636 50.052917,26.309464 50.079994,26.287214 C50.128815,26.247097 50.178,26.207344 50.22506,26.165165 C50.254143,26.139093 50.200123,26.109184 50.18612,26.103027 C50.13966,26.0826 50.091583,26.066067 50.04432,26.047586 L50.04432,26.047586" /><path fill="none" stroke="#000000" stroke-width="0.02mm" d="M50.684162,25.98125 C50.457886,26.044897 50.508377,26.018917 50.27907,26.139675 C50.25933,26.150072 50.241016,26.163315 50.22411,26.177872 C50.219856,26.181534 50.21456,26.188065 50.21698,26.19313 C50.21968,26.198795 50.228714,26.197594 50.234573,26.199825 C50.41034,26.182981 50.586777,26.1721 50.76187,26.149292 C50.80618,26.143522 50.847286,26.12219 50.891262,26.114285 C50.995335,26.095575 51.009815,26.11327 51.084644,26.087059 C51.112434,26.077324 51.167976,26.041729 51.161903,26.0055 C51.157635,25.980053 51.10109,25.958426 51.091892,25.950958 C51.04068,25.909359 50.993885,25.862555 50.94331,25.820183 C50.937912,25.81566 50.931015,25.813187 50.92444,25.81067 C50.882828,25.794762 50.83424,25.811485 50.797485,25.831245 C50.601128,25.936806 50.64574,25.896984 50.55558,25.999622 L50.55558,25.999622" /><path fill="none" stroke="#000000" stroke-width="0.02mm" d="M50.607628,25.953697 C50.831547,26.072063 50.7418,26.03669 50.86683,26.082285 L50.86683,26.082285" /><path fill="none" stroke="#000000" stroke-width="0.02mm" d="M51.371967,25.807758 C51.321384,25.796335 51.27123,25.782818 51.220215,25.77349 C51.17679,25.765549 51.102596,25.775427 51.096725,25.831125 C51.092735,25.868998 51.121864,25.930267 51.13462,25.95385 C51.156605,25.994488 51.202126,26.090704 51.263405,26.110777 C51.35533,26.140888 51.509468,26.054207 51.476685,25.945116 C51.454926,25.872719 51.388565,25.833868 51.33319,25.788368 L51.33319,25.788368" /><path fill="none" stroke="#000000" stroke-width="0.02mm" d="M51.87201,25.842457 C51.843647,25.839298 51.81545,25.833805 51.786926,25.832981 C51.69845,25.830421 51.556656,25.88884 51.504116,25.907051 C51.497112,25.909477 51.488316,25.914043 51.487095,25.921352 C51.486122,25.927164 51.494286,25.931356 51.49965,25.933798 C51.520187,25.94315 51.542847,25.947195 51.563557,25.956165 C51.640167,25.98935 51.68838,26.085625 51.780388,26.073257 C51.8185,26.068134 51.854393,26.055677 51.88459,26.03146 C51.94285,25.98473 52.037212,25.928392 52.053844,25.843056 C52.06397,25.791098 52.0484,25.739485 52.02986,25.6912 C52.011612,25.643675 51.980034,25.582588 51.92505,25.569023 C51.844177,25.549072 51.76542,25.59887 51.697502,25.635286 L51.697502,25.635286" /><path fill="none" stroke="#000000" stroke-width="0.02mm" d="M51.68934,25.60569 C51.673775,25.645153 51.659943,25.695274 51.630867,25.729677 C51.60135,25.764603 51.563324,25.792402 51.5373,25.830006 C51.525135,25.847584 51.525047,25.870964 51.518917,25.891443 L51.518917,25.891443" /><path fill="none" stroke="#000000" stroke-width="0.02mm" d="M51.853638,25.823067 L52.01079,25.780205" /><path fill="none" stroke="#000000" stroke-width="0.02mm" d="M52.42511,25.58528 C52.434196,25.564732 52.444984,25.544855 52.452374,25.523636 C52.454147,25.518547 52.45423,25.512465 52.45221,25.507465 C52.436214,25.467894 52.291748,25.53378 52.28631,25.536251 C52.232002,25.560947 52.178444,25.587374 52.125904,25.615637 C52.10074,25.629175 52.12688,25.662329 52.137096,25.673792 C52.173046,25.714125 52.208355,25.755077 52.245815,25.79401 C52.273792,25.823082 52.325867,25.835375 52.36396,25.823084 C52.41271,25.807354 52.451557,25.744265 52.4742,25.71129 C52.501877,25.670992 52.52582,25.628181 52.549072,25.585178 C52.568268,25.549667 52.58474,25.493464 52.529156,25.48352 C52.38226,25.457241 52.426918,25.464088 52.273056,25.466896 L52.273056,25.466896" /><path fill="none" stroke="#000000" stroke-width="0.02mm" d="M55.48827,26.526348 C55.432106,26.55669 55.37594,26.58703 55.319775,26.61737 C55.316704,26.621172 55.312725,26.624395 55.310555,26.628775 C55.292835,26.664509 55.379055,26.701824 55.400845,26.708597 C55.444633,26.720673 55.48807,26.734097 55.53221,26.744827 C55.536335,26.745829 55.540783,26.744698 55.544884,26.74361 C55.558064,26.740118 55.566845,26.729242 55.57213,26.71727 C55.58528,26.687471 55.598392,26.65763 55.610123,26.627245 C55.61165,26.623297 55.611736,26.618885 55.61175,26.61465 C55.611996,26.556107 55.492695,26.522537 55.451595,26.507565 L55.451595,26.507565" /><path fill="none" stroke="#000000" stroke-width="0.02mm" d="M61.20841,29.18238 C61.10414,29.23211 60.999004,29.280067 60.895596,29.331568 C60.8899,29.334404 60.88564,29.33974 60.88199,29.344952 C60.85301,29.386354 60.927982,29.437777 60.953842,29.452356 C61.035362,29.498318 61.119846,29.538843 61.201717,29.584167 C61.256836,29.614681 61.277073,29.644833 61.34402,29.626553 C61.37235,29.618818 61.40263,29.597342 61.41959,29.573849 C61.456005,29.52341 61.49007,29.471249 61.522583,29.418213 C61.528584,29.408426 61.531883,29.3896 61.531223,29.377325 C61.525444,29.26954 61.29093,29.256428 61.248474,29.246618 C61.202446,29.235983 61.156963,29.22308 61.11121,29.211311 L61.11121,29.211311" /><path fill="none" stroke="#000000" stroke-width="0.02mm" d="M61.90153,29.457794 C61.84618,29.458996 61.79065,29.456774 61.735477,29.461395 C61.72283,29.462454 61.654266,29.469149 61.62843,29.488998 C61.585686,29.521843 61.655827,29.589539 61.679928,29.605967 C61.73298,29.642136 61.94013,29.818836 62.076485,29.824654 C62.134056,29.82521 62.191624,29.825768 62.24919,29.826324 C62.25403,29.823315 62.260128,29.821735 62.2637,29.817299 C62.27133,29.80781 62.26907,29.790297 62.2639,29.78102 C62.24474,29.746618 62.223885,29.713078 62.20108,29.680975 C62.17799,29.648464 62.149895,29.619732 62.12644,29.587484 C62.1107,29.565845 62.10027,29.540543 62.083668,29.519558 C62.05137,29.478733 62.012093,29.442173 61.967747,29.41467 C61.952847,29.405434 61.936546,29.39864 61.920547,29.39148 C61.916134,29.389503 61.911476,29.387167 61.906643,29.387331 C61.86243,29.388838 61.81838,29.39342 61.774246,29.396461 L61.774246,29.396461" /><path fill="none" stroke="#000000" stroke-width="0.02mm" d="M62.72888,29.767923 C62.67019,29.750908 62.641747,29.73505 62.586437,29.737131 C62.515244,29.73981 62.415554,29.78223 62.366047,29.800877 C62.356533,29.80446 62.338608,29.81663 62.34762,29.83072 C62.352123,29.837765 62.359913,29.842249 62.3671,29.846518 C62.428165,29.88278 62.49321,29.9125 62.552116,29.952166 C62.620663,29.998318 62.684982,30.050594 62.748566,30.10337 C62.777622,30.12749 62.825817,30.208666 62.840843,30.227577 C62.86678,30.26021 62.89879,30.28877 62.93464,30.310104 C62.95448,30.32191 62.98095,30.336878 63.0042,30.323814 C63.04813,30.299135 63.0462,30.224407 63.030617,30.185242 C62.974087,30.043198 62.916397,29.901545 62.85418,29.761898 C62.834217,29.717089 62.78316,29.65948 62.732555,29.647833 C62.698875,29.64008 62.657173,29.662888 62.630524,29.671877 L62.630524,29.671877" /><path fill="none" stroke="#000000" stroke-width="0.02mm" d="M63.433575,30.115084 C63.35169,30.13117 63.26932,30.145006 63.18791,30.163343 C63.041145,30.1964 63.145256,30.291813 63.212456,30.35914 C63.24546,30.39221 63.307056,30.448181 63.360542,30.469414 C63.412548,30.490059 63.471775,30.497793 63.527126,30.48809 C63.577576,30.479246 63.614616,30.454493 63.626125,30.402617 C63.64055,30.337584 63.619015,30.286516 63.564304,30.248558 C63.49388,30.199697 63.407562,30.190308 63.325962,30.172943 L63.325962,30.172943" /><path fill="none" stroke="#000000" stroke-width="0.02mm" d="M64.036446,30.42637 C63.95323,30.420765 63.909397,30.410385 63.829216,30.431162 C63.75852,30.449482 63.68906,30.47259 63.62035,30.497353 C63.578503,30.512434 63.617527,30.534737 63.6332,30.542917 C63.663708,30.558834 63.69659,30.570568 63.725292,30.58954 C63.785904,30.629608 63.84313,30.674643 63.900303,30.719479 C63.92609,30.739702 63.943893,30.777176 63.980984,30.772469 C64.00999,30.76879 64.03722,30.742662 64.05526,30.723791 C64.08959,30.68789 64.13725,30.622215 64.11043,30.568905 C64.07674,30.50197 63.995846,30.465885 63.932297,30.434471 L63.932297,30.434471" /><path fill="none" stroke="#000000" stroke-width="0.02mm" d="M64.39978,30.598793 C64.21852,30.676632 64.130005,30.66477 64.19786,30.855293 C64.218445,30.913082 64.24419,30.968933 64.26953,31.024797 C64.27635,31.039831 64.29413,31.05 64.3103,31.049162 C64.322495,31.048529 64.3376,31.04219 64.34729,31.035475 C64.480194,30.943344 64.61328,30.851412 64.74429,30.756613 C64.75806,30.746662 64.76682,30.724295 64.751755,30.71166 C64.74689,30.70759 64.74049,30.70583 64.73486,30.702913 C64.608826,30.676231 64.48238,30.651379 64.35674,30.622866 C64.32345,30.61531 64.253815,30.581337 64.230835,30.571022 L64.230835,30.571022" /><path fill="none" stroke="#000000" stroke-width="0.02mm" d="M64.77932,30.766588 C65.25053,30.739164 65.06575,30.718658 65.33706,30.763115 L65.33706,30.763115" /><path fill="none" stroke="#000000" stroke-width="0.02mm" d="M66.48146,31.209797 C66.41687,31.205694 66.3524,31.198004 66.28769,31.197489 C66.252045,31.197205 66.15149,31.2023 66.11748,31.233768 C66.096954,31.252752 66.11293,31.283606 66.12673,31.300947 C66.34068,31.329361 66.228874,31.53132 66.34468,31.546732 C66.394394,31.553347 66.4568,31.498386 66.4868,31.476004 C66.54907,31.429539 66.571,31.345388 66.51767,31.28253 C66.47413,31.231205 66.40642,31.20061 66.35187,31.16698 L66.35187,31.16698" /><path fill="none" stroke="#000000" stroke-width="0.02mm" d="M66.83786,31.495625 C66.763954,31.435879 66.71655,31.423576 66.62022,31.415184 C66.55783,31.40975 66.5047,31.41599 66.46365,31.465794 C66.45732,31.47348 66.4531,31.48496 66.453094,31.494974 C66.45308,31.512415 66.464355,31.529491 66.47675,31.540787 C66.54573,31.603624 66.602715,31.678143 66.69444,31.700989 C66.80702,31.72903 66.88208,31.597166 66.888725,31.502726 C66.88986,31.486544 66.88951,31.444332 66.875854,31.43041 C66.84124,31.395103 66.799614,31.367424 66.76149,31.33593 L66.76149,31.33593" /><path fill="none" stroke="#000000" stroke-width="0.02mm" d="M67.2255,31.555798 C67.12425,31.537764 67.10464,31.527185 67.001785,31.536667 C66.96544,31.540016 66.79532,31.569073 66.78154,31.623766 C66.778496,31.635866 66.7872,31.648754 66.79632,31.655174 C66.81589,31.668951 67.00238,31.83588 67.11119,31.846077 C67.19308,31.85375 67.23984,31.76207 67.20215,31.693808 C67.18088,31.655289 67.12067,31.62631 67.09128,31.606716 L67.09128,31.606716" /><path fill="none" stroke="#000000" stroke-width="0.02mm" d="M67.433784,31.755995 C67.314255,31.799513 67.26695,31.810846 67.34862,31.928753 C67.38689,31.984003 67.44372,32.036396 67.51482,32.037815 C67.591354,32.039345 67.596375,31.915031 67.58461,31.865498 C67.579254,31.842976 67.566315,31.821547 67.54893,31.806232 C67.503845,31.766525 67.4498,31.752796 67.39329,31.727066 L67.39329,31.727066" /><path fill="none" stroke="#000000" stroke-width="0.02mm" d="M67.98459,31.808067 C67.90479,31.810337 67.886955,31.80409 67.8163,31.82758 C67.765366,31.84451 67.715256,31.863884 67.665565,31.884151 C67.60377,31.909357 67.65976,31.998327 67.69757,32.016537 C67.78291,32.057648 67.8835,32.064575 67.975044,32.04322 C68.0544,32.02471 68.06276,31.922132 68.0052,31.873589 C68.00105,31.870085 67.99626,31.867392 67.99155,31.864697 C67.96276,31.848248 67.93367,31.832344 67.90474,31.81617 L67.90474,31.81617" /><path fill="none" stroke="#000000" stroke-width="0.02mm" d="M68.49025,31.926102 C68.38582,31.90218 68.33341,31.916998 68.23828,31.967585 C68.21861,31.978045 68.190384,32.000187 68.18853,32.025352 C68.185844,32.06175 68.239975,32.10123 68.27287,32.101856 C68.37526,32.103798 68.4777,32.103085 68.58008,32.100967 C68.59563,32.100643 68.61592,32.09219 68.62924,32.084522 C68.64108,32.077705 68.65489,32.06368 68.659485,32.05052 C68.68446,31.97885 68.741165,31.892565 68.66559,31.837545 C68.65311,31.828455 68.63901,31.820557 68.623505,31.818245 C68.579025,31.811605 68.55227,31.861078 68.50962,31.877663 C68.460434,31.896795 68.34746,31.913708 68.318985,31.919159 L68.318985,31.919159" /><path fill="none" stroke="#000000" stroke-width="0.02mm" d="M70.100586,31.798859 C70.04016,31.812233 69.978775,31.821854 69.9193,31.838985 C69.85184,31.858416 69.78621,31.883778 69.72046,31.90835 C69.71276,31.911226 69.70058,31.92367 69.696014,31.93041 C69.68013,31.953865 69.68524,31.985106 69.6942,32.010036 C69.72801,32.104145 69.81962,32.192493 69.9259,32.176754 C69.98417,32.168125 70.062584,32.094006 70.08884,32.072487 C70.10097,32.062534 70.11078,32.049877 70.119865,32.03708 C70.16622,31.971771 70.14949,31.931091 70.08594,31.885044 C70.0623,31.867924 70.036285,31.854433 70.008064,31.846844 C69.96716,31.83584 69.90706,31.838274 69.871475,31.837048 L69.871475,31.837048" /><path fill="none" stroke="#000000" stroke-width="0.02mm" d="M70.59237,31.797703 C70.51869,31.78635 70.453445,31.784817 70.384384,31.812803 C70.332184,31.83554 70.28,31.858276 70.2278,31.881014 C70.22426,31.885426 70.21933,31.889023 70.21716,31.894253 C70.20865,31.914745 70.22952,31.934319 70.24167,31.946716 C70.31937,32.025978 70.39656,32.10574 70.475586,32.18368 C70.48102,32.189045 70.49748,32.194675 70.504745,32.19609 C70.56174,32.207184 70.60967,32.156895 70.619705,32.10452 C70.62756,32.06348 70.635765,32.0222 70.637695,31.980463 C70.64522,31.818108 70.65138,31.851578 70.609726,31.753729 L70.609726,31.753729" /><path fill="none" stroke="#000000" stroke-width="0.02mm" d="M71.659256,31.753729 C71.60837,31.784035 71.33286,31.925446 71.33897,31.980453 C71.34061,31.995188 71.36223,32.00362 71.37152,32.007843 C71.4606,32.04832 71.54962,32.08899 71.63963,32.127357 C71.652405,32.132805 71.66796,32.135654 71.681915,32.132893 C71.78705,32.11209 71.81079,31.81081 71.816284,31.774557 C71.82292,31.730696 71.82403,31.666115 71.76029,31.694502 C71.711464,31.716251 71.65829,31.731428 71.615555,31.76355 C71.607086,31.769918 71.62771,31.780916 71.63379,31.7896 L71.63379,31.7896" /><path fill="none" stroke="#000000" stroke-width="0.02mm" d="M72.085075,31.721327 C72.08693,31.747879 71.84009,31.777128 71.8457,31.857576 C71.846466,31.868519 71.85367,31.883467 71.86118,31.89095 C71.89653,31.926153 71.93171,31.961754 71.97023,31.993452 C71.97276,31.995539 72.0569,32.074738 72.09975,32.066708 C72.117065,32.06346 72.13176,32.047424 72.13884,32.032158 C72.18092,31.941324 72.172745,31.886763 72.1452,31.789932 C72.131836,31.742964 72.115524,31.728052 72.08623,31.684296 L72.08623,31.684296" /><path fill="none" stroke="#000000" stroke-width="0.02mm" d="M72.62198,31.855562 C72.53202,31.82311 72.47885,31.8169 72.39043,31.861471 C72.332245,31.895012 72.27407,31.928553 72.2159,31.962093 C72.21217,31.967014 72.20688,31.97107 72.20474,31.976854 C72.19661,31.998877 72.22519,32.01469 72.2388,32.02344 C72.35026,32.095036 72.45775,32.193398 72.598495,32.156044 C72.63878,32.145355 72.68251,32.11295 72.68807,32.068417 C72.697395,31.993847 72.720505,31.92585 72.66644,31.868998 C72.62073,31.82091 72.58982,31.830145 72.509735,31.805801 L72.509735,31.805801" /><path fill="none" stroke="#000000" stroke-width="0.02mm" d="M73.11839,32.16106 C73.06531,32.13858 73.01367,32.112278 72.95912,32.093616 C72.909256,32.076557 72.85741,32.065804 72.806,32.054195 C72.800415,32.052937 72.794495,32.054127 72.78888,32.05518 C72.72691,32.06678 72.72513,32.16145 72.73491,32.207203 C72.742294,32.241714 72.75708,32.27419 72.78227,32.299313 C72.81455,32.331505 72.87968,32.360344 72.90884,32.37558 C72.92328,32.38313 72.94206,32.38597 72.9574,32.3793 C72.98926,32.36543 73.00433,32.314415 73.01225,32.289703 C73.02364,32.254158 73.06508,32.142693 73.001755,32.11452 C72.99699,32.1124 72.991684,32.11106 72.986465,32.111134 C72.957115,32.111534 72.92785,32.11433 72.89854,32.11593 L72.89854,32.11593" /><path fill="none" stroke="#000000" stroke-width="0.02mm" d="M73.374115,32.311497 C73.29721,32.33495 73.219315,32.355362 73.14341,32.38186 C73.069,32.40783 73.02605,32.429146 73.052605,32.50704 C73.08391,32.598846 73.11487,32.690815 73.14923,32.781525 C73.163216,32.81844 73.188736,32.869396 73.23573,32.847076 C73.33781,32.7986 73.37177,32.655384 73.38545,32.55982 C73.392975,32.50726 73.41352,32.339195 73.36095,32.27539 C73.35837,32.272263 73.35484,32.269436 73.350876,32.26859 C73.329575,32.26404 73.30774,32.262478 73.28618,32.259422 L73.28618,32.259422" /><path fill="none" stroke="#000000" stroke-width="0.06mm" d="M73.427345,32.531364 C73.52922,33.843872 73.57892,33.396935 73.51991,33.88992 L73.51991,33.88992" /><path fill="none" stroke="#000000" stroke-width="0.02mm" d="M73.98624,33.7418 C73.93915,33.742844 73.86895,33.73724 73.820694,33.757946 C73.7569,33.785324 73.69484,33.816807 73.63386,33.849987 C73.597595,33.869713 73.52042,33.93095 73.524704,33.98162 C73.5289,34.03109 73.602615,34.066303 73.640564,34.077225 C73.708466,34.096767 73.95356,34.216705 74.06065,34.120235 C74.102585,34.082462 74.09662,34.023563 74.09235,33.972176 C74.08658,33.90303 74.056885,33.788975 73.97639,33.7698 C73.93378,33.759644 73.908646,33.78272 73.86821,33.80197 L73.86821,33.80197" /><path fill="none" stroke="#000000" stroke-width="0.02mm" d="M74.70714,33.845947 C74.578354,33.8955 74.06912,33.974762 74.276,34.034237 C74.307755,34.04337 74.34114,34.04727 74.37189,34.059372 C74.443825,34.087685 74.51431,34.119873 74.58313,34.155117 C74.637405,34.182915 74.725746,34.283722 74.78494,34.28282 C74.82083,34.282276 74.841515,34.24197 74.854095,34.215046 C74.88673,34.145233 74.89783,34.065994 74.85564,33.997772 C74.81533,33.93262 74.76007,33.922913 74.68978,33.895706 L74.68978,33.895706" /><path fill="none" stroke="#000000" stroke-width="0.02mm" d="M75.34241,33.832058 C75.29693,33.837185 75.25091,33.838802 75.20596,33.84744 C75.138626,33.86037 75.02211,33.891155 75.00758,33.97662 C75.00401,33.99763 75.01019,34.021305 75.02423,34.037567 C75.083305,34.105976 75.16815,34.231728 75.28143,34.200024 C75.32951,34.186573 75.366325,34.14341 75.39647,34.10763 C75.45413,34.039185 75.473915,33.95211 75.40564,33.881752 C75.3728,33.847923 75.34221,33.849876 75.2938,33.839 L75.2938,33.839" /><path fill="none" stroke="#000000" stroke-width="0.02mm" d="M75.5287,33.796185 C75.539734,33.949303 75.52788,33.90339 75.588646,34.07843 C75.60683,34.13081 75.63328,34.18386 75.690186,34.200016 C75.818306,34.236385 75.9589,34.027714 75.98927,33.930725 C75.99466,33.9135 75.99939,33.895725 76.00018,33.877697 C76.004974,33.76894 76.00546,33.660023 76.006,33.551163 C76.00608,33.535423 75.996025,33.51758 75.9832,33.50881 C75.95567,33.48999 75.90262,33.493095 75.874275,33.50594 C75.72903,33.57179 75.64058,33.61113 75.5244,33.709053 C75.5011,33.728687 75.48329,33.75403 75.46274,33.776512 L75.46274,33.776512" /><path fill="none" stroke="#000000" stroke-width="0.06mm" d="M76.69358,34.056873 C76.483116,31.453566 76.52544,32.872547 76.65129,29.798668 L76.65129,29.798668" /><path fill="none" stroke="#000000" stroke-width="0.02mm" d="M76.306,33.878265 C76.26918,33.854168 76.234604,33.821007 76.18969,33.812447 C76.11528,33.798264 76.014694,33.848976 76.01495,33.93318 C76.015045,33.963867 76.018585,33.99286 76.03029,34.021473 C76.073425,34.126934 76.23573,34.285088 76.36484,34.260197 C76.40184,34.253063 76.43669,34.241146 76.468666,34.22077 C76.53,34.181694 76.69977,34.058365 76.650894,33.981415 C76.58871,33.88352 76.36005,33.836323 76.25658,33.844612 C76.23105,33.846657 76.2064,33.854855 76.181305,33.859978 L76.181305,33.859978" /><path fill="none" stroke="#248B00" stroke-width="0.06mm" d="M44.678596,28.086851 C44.770264,28.14016 44.88727,28.19508 44.961052,28.278275 C45.22338,28.57408 45.465973,28.8872 45.732323,29.179388 C45.794636,29.247742 45.875946,29.296078 45.944977,29.35764 C46.15273,29.542913 46.363228,29.725458 46.562546,29.919779 C46.628483,29.984064 46.683132,30.059124 46.739326,30.13208 C46.82064,30.23765 46.934143,30.399254 47.018166,30.518744 L47.018166,30.518744" /><path fill="none" stroke="#248B00" stroke-width="0.06mm" d="M47.12783,27.622726 C46.926147,27.510193 46.752617,27.352379 46.62241,27.16178 L46.62241,27.16178" /><path fill="none" stroke="#248B00" stroke-width="0.06mm" stroke-dasharray="0.3mm,0.1mm" d="M44.75807,25.01758 C45.65703,25.671022 44.956528,25.135084 46.609695,26.909052 L46.609695,26.909052" /><path fill="none" stroke="#000000" stroke-width="0.06mm" d="M20.0,31.0 L20.0,31.0" /><path fill="none" stroke="#000000" stroke-width="0.06mm" d="M55.18545,23.70681 C55.904617,23.966602 57.864048,24.679346 58.521347,24.894426 C59.00862,25.053873 59.509296,25.17058 59.99564,25.332851 C61.055374,25.68644 61.50586,25.876741 62.40031,26.236925 L62.40031,26.236925" /><path fill="none" stroke="#000000" stroke-width="0.06mm" d="M55.176563,23.70005 C55.11115,23.665224 55.04336,23.630728 55.00495,23.564125 C54.985588,23.53054 54.966736,23.496326 54.95299,23.46008 C54.675964,22.72946 54.443027,21.981276 54.132854,21.2641 C53.979237,20.908907 53.767796,20.5811 53.565247,20.251354 C53.51621,20.171524 53.446354,20.106192 53.380608,20.039444 C53.136223,19.791328 53.23738,19.95398 53.160713,19.822832 L53.160713,19.822832" /><path fill="none" stroke="#000000" stroke-width="0.06mm" stroke-dasharray="0.3mm,0.1mm" d="M51.70274,20.24478 C51.687202,20.18985 51.666683,20.145428 51.66764,20.090145 C51.67006,19.950861 51.832413,19.781445 51.893433,19.678886 C52.009968,19.483015 51.996086,19.24604 51.94878,19.03305 C51.943336,19.00855 51.927475,18.987598 51.916824,18.964876 L51.916824,18.964876" /><path fill="none" stroke="#000000" stroke-width="0.06mm" stroke-dasharray="0.3mm,0.1mm" d="M53.179466,19.888468 C53.154892,19.828709 53.142124,19.775387 53.101734,19.727177 C53.056217,19.672848 52.996784,19.636272 52.93521,19.601301 C52.762928,19.503448 52.65651,19.476303 52.523552,19.360004 C52.403862,19.25531 52.34762,19.095753 52.28249,18.957062 L52.28249,18.957062" /><path fill="none" stroke="#000000" stroke-width="0.06mm" d="M45.143845,19.434021 C45.27905,19.485094 45.33556,19.52275 45.467957,19.529404 C45.596394,19.535858 45.76603,19.492476 45.85831,19.616583 C46.004158,19.812737 45.959892,20.044796 45.98288,20.273762 C45.987144,20.316275 46.004898,20.35633 46.015907,20.397615 L46.015907,20.397615" /><path fill="none" stroke="#000000" stroke-width="0.06mm" d="M46.022003,20.373222 C46.09845,20.98872 46.174896,21.60422 46.251343,22.219717 C46.27548,22.292072 46.29285,22.367044 46.32374,22.436785 C46.372093,22.545952 46.460037,22.737701 46.577484,22.813934 C46.987846,23.080292 48.169693,22.893047 48.36825,22.876122 C49.121365,22.811922 49.871696,22.718323 50.62401,22.645306 C50.866867,22.621735 51.285194,22.65004 51.45408,22.409264 C51.66313,22.111217 51.5271,21.436882 51.548943,21.216545 C51.587326,20.82943 51.687973,20.45104 51.757492,20.068287 L51.757492,20.068287" /></g>
<g>
<line fill="none" stroke="#111111" stroke-width="0.04mm" x1="20.00" y1="31.00" x2="27.47" y2="27.61" />
<line fill="none" stroke="#111111" stroke-width="0.04mm" x1="27.47" y1="27.61" x2="44.60" y2="24.83" />
<line fill="none" stroke="#5674b9" stroke-width="0.04mm" stroke-dasharray="0.4,0.2" x1="44.60" y1="24.83" x2="44.06" y2="24.75" />
<line fill="none" stroke="#00aeef" stroke-width="0.04mm" stroke-dasharray="0.4,0.2" x1="44.60" y1="24.83" x2="43.97" y2="24.90" />
<line fill="none" stroke="#00aeef" stroke-width="0.04mm" stroke-dasharray="0.4,0.2" x1="44.60" y1="24.83" x2="45.52" y2="20.06" />
<line fill="none" stroke="#5674b9" stroke-width="0.04mm" stroke-dasharray="0.4,0.2" x1="44.60" y1="24.83" x2="44.72" y2="28.09" />
<line fill="none" stroke="#111111" stroke-width="0.04mm" x1="44.60" y1="24.83" x2="53.49" y2="23.76" />
<line fill="none" stroke="#00aeef" stroke-width="0.04mm" stroke-dasharray="0.4,0.2" x1="53.49" y1="23.76" x2="53.36" y2="25.42" />
<line fill="none" stroke="#00aeef" stroke-width="0.04mm" stroke-dasharray="0.4,0.2" x1="53.49" y1="23.76" x2="53.31" y2="23.51" />
<line fill="none" stroke="#5674b9" stroke-width="0.04mm" stroke-dasharray="0.4,0.2" x1="53.49" y1="23.76" x2="52.35" y2="19.61" />
<line fill="none" stroke="#00aeef" stroke-width="0.04mm" stroke-dasharray="0.4,0.2" x1="53.49" y1="23.76" x2="65.77" y2="30.15" />
<line fill="none" stroke="#00aeef" stroke-width="0.04mm" stroke-dasharray="0.4,0.2" x1="53.49" y1="23.76" x2="69.06" y2="31.89" />
<line fill="none" stroke="#111111" stroke-width="0.04mm" x1="53.49" y1="23.76" x2="65.85" y2="30.14" />
<line fill="none" stroke="#5674b9" stroke-width="0.04mm" stroke-dasharray="0.4,0.2" x1="65.85" y1="30.14" x2="63.97" y2="28.51" />
<line fill="none" stroke="#5674b9" stroke-width="0.04mm" stroke-dasharray="0.4,0.2" x1="65.85" y1="30.14" x2="65.01" y2="27.05" />
<line fill="none" stroke="#5674b9" stroke-width="0.04mm" stroke-dasharray="0.4,0.2" x1="65.85" y1="30.14" x2="66.00" y2="31.31" />
<line fill="none" stroke="#111111" stroke-width="0.04mm" x1="65.85" y1="30.14" x2="76.00" y2="29.98" />
<line fill="none" stroke="#00aeef" stroke-width="0.04mm" stroke-dasharray="0.4,0.2" x1="76.00" y1="29.98" x2="73.92" y2="23.15" />
<line fill="none" stroke="#00aeef" stroke-width="0.04mm" stroke-dasharray="0.4,0.2" x1="76.00" y1="29.98" x2="71.71" y2="29.04" />
<line fill="none" stroke="#00aeef" stroke-width="0.04mm" stroke-dasharray="0.4,0.2" x1="76.00" y1="29.98" x2="76.32" y2="30.01" />
<line fill="none" stroke="#00aeef" stroke-width="0.04mm" stroke-dasharray="0.4,0.2" x1="76.00" y1="29.98" x2="76.02" y2="33.87" />
<line fill="none" stroke="#111111" stroke-width="0.04mm" x1="44.60" y1="24.83" x2="47.82" y2="30.23" />
<line fill="none" stroke="#00aeef" stroke-width="0.04mm" stroke-dasharray="0.4,0.2" x1="47.82" y1="30.23" x2="48.05" y2="28.02" />
<line fill="none" stroke="#5674b9" stroke-width="0.04mm" stroke-dasharray="0.4,0.2" x1="47.82" y1="30.23" x2="48.22" y2="29.52" />
<line fill="none" stroke="#5674b9" stroke-width="0.04mm" stroke-dasharray="0.4,0.2" x1="47.82" y1="30.23" x2="47.89" y2="30.75" />
<line fill="none" stroke="#111111" stroke-width="0.04mm" x1="47.82" y1="30.23" x2="55.92" y2="30.77" />
<line fill="none" stroke="#5674b9" stroke-width="0.04mm" stroke-dasharray="0.4,0.2" x1="55.92" y1="30.77" x2="55.52" y2="28.81" />
<line fill="none" stroke="#00aeef" stroke-width="0.04mm" stroke-dasharray="0.4,0.2" x1="55.92" y1="30.77" x2="55.17" y2="33.07" />
<line fill="none" stroke="#00aeef" stroke-width="0.04mm" stroke-dasharray="0.4,0.2" x1="55.92" y1="30.77" x2="55.08" y2="30.64" />
<line fill="none" stroke="#00aeef" stroke-width="0.04mm" stroke-dasharray="0.4,0.2" x1="55.92" y1="30.77" x2="61.60" y2="31.32" />
<line fill="none" stroke="#111111" stroke-width="0.04mm" x1="55.92" y1="30.77" x2="62.97" y2="31.34" />
<line fill="none" stroke="#00aeef" stroke-width="0.04mm" stroke-dasharray="0.4,0.2" x1="62.97" y1="31.34" x2="62.84" y2="35.14" />
<line fill="none" stroke="#5674b9" stroke-width="0.04mm" stroke-dasharray="0.4,0.2" x1="62.97" y1="31.34" x2="62.43" y2="31.27" />
<line fill="none" stroke="#5674b9" stroke-width="0.04mm" stroke-dasharray="0.4,0.2" x1="62.97" y1="31.34" x2="62.92" y2="30.18" />
<line fill="none" stroke="#5674b9" stroke-width="0.04mm" stroke-dasharray="0.4,0.2" x1="62.97" y1="31.34" x2="67.27" y2="31.07" />
</g>
<g>
<circle cx="20.00" cy="31.00" r="0.1" fill="#111111" />
<circle cx="27.47" cy="27.61" r="0.1" fill="#111111" />
<circle cx="44.60" cy="24.83" r="0.1" fill="#111111" />
<circle cx="53.49" cy="23.76" r="0.1" fill="#111111" />
<circle cx="65.85" cy="30.14" r="0.1" fill="#111111" />
<circle cx="76.00" cy="29.98" r="0.1" fill="#111111" />
<circle cx="47.82" cy="30.23" r="0.1" fill="#111111" />
<circle cx="55.92" cy="30.77" r="0.1" fill="#111111" />
<circle cx="62.97" cy="31.34" r="0.1" fill="#111111" />
</g>
<g>
<text x="20.20" y="31.00" font-size=".2mm" fill="#000000">0</text>
<text x="27.67" y="27.61" font-size=".2mm" fill="#000000">1</text>
<text x="44.80" y="24.83" font-size=".2mm" fill="#000000">2</text>
<text x="53.69" y="23.76" font-size=".2mm" fill="#000000">3</text>
<text x="66.05" y="30.14" font-size=".2mm" fill="#000000">4</text>
<text x="76.20" y="29.98" font-size=".2mm" fill="#000000">5</text>
<text x="48.02" y="30.23" font-size=".2mm" fill="#000000">2.1</text>
<text x="56.12" y="30.77" font-size=".2mm" fill="#000000">2.2</text>
<text x="63.17" y="31.34" font-size=".2mm" fill="#000000">2.3</text>
</g>
<g>
</g>
</g>
</svg>