<?xml version="1.0" encoding="utf-8"?>
<!DOCTYPE svg PUBLIC "-//W3C//DTD SVG 1.1//EN" "http://www.w3.org/Graphics/SVG/1.1/DTD/svg11.dtd">
<svg version="1.1" id="Layer_1" xmlns="http://www.w3.org/2000/svg" xmlns:xlink="http://www.w3.org/1999/xlink" x="0px" y="0px" width="58mm" height="79mm" viewBox="0 0 58 79" enable-background="new 0 0 58 79" xml:space="preserve">
<symbol id="airflow" viewBox="-12 -12 24 24">
<path d="M-4.38,10.73l4.2-3.84V3.55L-4.07,7.13l-.31-.29L-.18,3V-6.89a3.37,3.37,0,0,0-1.68.53l1.68-4.15L0-11l.21.51h0v0l1.65,4.1A3.26,3.26,0,0,0,.24-6.89v14l-.08,0L-4.07,11Z"/>
<rect fill="none" x="-12" y="-12" width="24" height="24"/>
</symbol>
<symbol id="anastomosis" viewBox="-12 -12 24 24">
<path d="M2.23-4.78l.37.24L5.22-2.78l-.47.57L2.49-3.7l-4.61,8-.24.44-.37-.34L-5.22,2.3l.55-.52,2.1,1.82L2-4.39Z"/>
<rect fill="none" x="-12" y="-12" width="24" height="24"/>
</symbol>
<symbol id="bivouac" viewBox="-12 -12 24 24">
<path d="M.25-7.66l.24.58L.54-7l3.88.48-3.31.91L6,6H8.35v.48l-16.7.07V6.05h2.64L0-7.08Zm0,1.32L-5.13,6H-4l2.07-5L.2-4l2.09,5L4.37,6H5.44Z"/>
<rect fill="none" x="-12" y="-12" width="24" height="24"/>
</symbol>
<symbol id="bones" viewBox="-12 -12 24 24">
<path d="M2.44,4.27l-.16,0H2.13a.22.22,0,0,1-.11,0l-.1-.06a.39.39,0,0,1-.09-.11l-.08-.13a1.51,1.51,0,0,1-.06-.15l-.07-.17s0-.11-.08-.19-.06-.16-.08-.21a4.75,4.75,0,0,0-.38-.71c-.18-.29-.43-.64-.74-1A11.15,11.15,0,0,0-.7.32,6.73,6.73,0,0,0-2-.64a4.12,4.12,0,0,0-1.44-.52A1.64,1.64,0,0,1-5-2.19.72.72,0,0,1-5-2.44a1,1,0,0,1,0-.29A.52.52,0,0,1-4.87-3a.54.54,0,0,1,.35-.15L-4-3.22l.46,0a.54.54,0,0,0,.27-.06A.52.52,0,0,0-3-3.56a.74.74,0,0,0,.13-.31.54.54,0,0,1,.15-.26.54.54,0,0,1,.3-.15.83.83,0,0,1,.47,0,1.11,1.11,0,0,1,.35.4A7.46,7.46,0,0,1-1-2.76q.18.42.33.72a3.22,3.22,0,0,0,.39.57L.1-1a4.77,4.77,0,0,0,.58.43c.28.18.51.33.69.43l1,.56a1.84,1.84,0,0,0,.39.23A5.29,5.29,0,0,1,3.22.9l.43.26a3.7,3.7,0,0,1,.46.3l.36.29a2.28,2.28,0,0,1,.31.32A1,1,0,0,1,5,2.4c.2.48,0,.78-.47.91h0a8.48,8.48,0,0,0-1.12.09,1,1,0,0,0-.42.44A1,1,0,0,1,2.44,4.27Z"/>
<rect fill="none" x="-12" y="-12" width="24" height="24"/>
</symbol>
<symbol id="calcite" viewBox="-12 -12 24 24">
<path d="M2.36-2.22l.05.46.34,3.91L2,2.22,1.65-1.26-2.52-.06l-.23-.7L1.89-2.08Z"/>
<rect fill="none" x="-12" y="-12" width="24" height="24"/>
</symbol>
<symbol id="cauliflower" viewBox="-12 -12 24 24">
<path d="M5.58,3.22v-3A2.12,2.12,0,0,0,6.92-.43a1.78,1.78,0,0,0,.55-1.32,1.92,1.92,0,0,0-.65-1.42,2.19,2.19,0,0,0-1.53-.59,2.21,2.21,0,0,0-1.54.59,1.78,1.78,0,0,0-.64,1.42A1.86,1.86,0,0,0,3.65-.43,2.12,2.12,0,0,0,5,.23v3H.26v-3A2.17,2.17,0,0,0,1.61-.43a1.81,1.81,0,0,0,.54-1.32,1.91,1.91,0,0,0-.64-1.42A2.21,2.21,0,0,0,0-3.76a2.21,2.21,0,0,0-1.54.59,1.82,1.82,0,0,0-.64,1.42A1.83,1.83,0,0,0-1.66-.43,2.12,2.12,0,0,0-.32.23v3H-5v-3A2.12,2.12,0,0,0-3.71-.43a1.78,1.78,0,0,0,.55-1.32,1.92,1.92,0,0,0-.65-1.42,2.19,2.19,0,0,0-1.53-.59,2.21,2.21,0,0,0-1.54.59,1.83,1.83,0,0,0-.65,1.42A1.87,1.87,0,0,0-7-.43,2.12,2.12,0,0,0-5.64.23v3H-8v.54H8V3.22Z"/>
<rect fill="none" x="-12" y="-12" width="24" height="24"/>
</symbol>
<symbol id="clay" viewBox="-12 -12 24 24">
<path d="M1.85-1.33a3,3,0,0,1,1.67.48,3.23,3.23,0,0,1,1,1l.29.51-1,.43a3.81,3.81,0,0,0-.23-.4A3.74,3.74,0,0,0,2.93,0,1.77,1.77,0,0,0,1.85-.32a2.57,2.57,0,0,0-1.1.15A.86.86,0,0,0,.51.14,2.23,2.23,0,0,1,0,.88a2.55,2.55,0,0,1-1.45.43,3.16,3.16,0,0,1-2.75-1,4.28,4.28,0,0,1-.37-.57,3.91,3.91,0,0,1-.21-.47l0-.16,1-.22a1.87,1.87,0,0,0,.45.79A2.12,2.12,0,0,0-1.51.33,1.82,1.82,0,0,0-.69.14l.21-.36A1.53,1.53,0,0,1,.17-1,3.76,3.76,0,0,1,1.85-1.33Z"/>
<rect fill="none" x="-12" y="-12" width="24" height="24"/>
</symbol>
<symbol id="crystals" viewBox="-12 -12 24 24">
<path d="M-2.94-5.38,0-.72,2.94-5.38,3.62-5,.68-.36H6.56V.36H.68L3.62,5l-.68.36L0,.72-2.94,5.38-3.62,5-.68.36H-6.56V-.36H-.68L-3.62-5Z"/>
<rect fill="none" x="-12" y="-12" width="24" height="24"/>
</symbol>
<symbol id="curtain" viewBox="-12 -12 24 24">
<path d="M3.57-6.69l.52.53L.39-3V-.33L.1-.26a3.79,3.79,0,0,0-1,.41c-.58.3-.87.65-.87,1v.07A1.61,1.61,0,0,0-.84,2.48a3.69,3.69,0,0,0,.45.24L0,2.86l.13.05L.39,3V6.12H-.39V3.51a7.65,7.65,0,0,1-.9-.46A2.19,2.19,0,0,1-2.54,1.28V1.23A2,2,0,0,1-1.31-.48,5.32,5.32,0,0,1-.39-.86V-3l-3.7-3.14.52-.53L0-3.67Z"/>
<rect fill="none" x="-12" y="-12" width="24" height="24"/>
</symbol>
<symbol id="disk" viewBox="-12 -12 24 24">
<path d="M-.09-4.19a2.43,2.43,0,0,1,1.7.64A2,2,0,0,1,2.35-2,2.09,2.09,0,0,1,1.81-.55,2.44,2.44,0,0,1,.35.23l2.18,3.6-.68.33L0,1.14-1.48,4.19l-.71-.29L-.41.25A2.53,2.53,0,0,1-1.9-.47a2,2,0,0,1-.63-1.41,2,2,0,0,1,.67-1.61,2.46,2.46,0,0,1,1.72-.7ZM1.05-3.06.56-3.49l-.69,0A1.72,1.72,0,0,0-1.29-3a1.51,1.51,0,0,0-.45,1.08,1.36,1.36,0,0,0,.51,1A1.68,1.68,0,0,0-.07-.44v0l0,0A1.7,1.7,0,0,0,1.11-.92,1.36,1.36,0,0,0,1.56-2,1.47,1.47,0,0,0,1.05-3.06Z"/>
<rect fill="none" x="-12" y="-12" width="24" height="24"/>
</symbol>
<symbol id="entrance" viewBox="-12 -12 24 24">
<path d="M4.46,9H-4.46L0-9Z"/>
<rect fill="none" x="-12" y="-12" width="24" height="24"/>
</symbol>
<symbol id="flowstone" viewBox="-12 -12 24 24">
<rect x="-6" y="-0.21" width="12" height="0.42"/>
<rect fill="none" x="-12" y="-12" width="24" height="24"/>
</symbol>
<symbol id="flutes" viewBox="-12 -12 24 24">
<path d="M-7-1H7v.72H3.87A4.7,4.7,0,0,1,2.16,1.5,4.2,4.2,0,0,1,0,2.13,3.94,3.94,0,0,1-2.19,1.5,4.18,4.18,0,0,1-3.76-.27H-7Zm4.17.72A3.15,3.15,0,0,0-1.65,1,3.21,3.21,0,0,0,0,1.41,3.49,3.49,0,0,0,1.6,1,3.68,3.68,0,0,0,3-.27Z"/>
<rect fill="none" x="-12" y="-12" width="24" height="24"/>
</symbol>
<symbol id="gradient" viewBox="-12 -12 24 24">
<path d="M2.58-3.83,0-10-2.58-3.83A4.74,4.74,0,0,1-.17-4.5V10H.25V-4.5A6.65,6.65,0,0,1,2.58-3.83Z"/>
<rect fill="none" x="-12" y="-12" width="24" height="24"/>
</symbol>
<symbol id="guano" viewBox="-12 -12 24 24">
<path d="M-3.24-3a2.15,2.15,0,0,1,1.57.55A3.93,3.93,0,0,1-.59.24a4.32,4.32,0,0,1,2.75-2.3,2.68,2.68,0,0,1,2.23.36A2.36,2.36,0,0,1,5.5.19l-.79,0a1.72,1.72,0,0,0-.79-1.37,1.94,1.94,0,0,0-1.55-.24A3.53,3.53,0,0,0,.48,0,6.63,6.63,0,0,0-.69,3l-.79-.09a10.72,10.72,0,0,0,0-3.16A3.21,3.21,0,0,0-2.22-2,1.44,1.44,0,0,0-3.37-2.3,3.45,3.45,0,0,0-5-1.54l-.5-.55a4.29,4.29,0,0,1,2-.91A.9.9,0,0,1-3.24-3Z"/>
<rect fill="none" x="-12" y="-12" width="24" height="24"/>
</symbol>
<symbol id="helictites" viewBox="-12 -12 24 24">
<path d="M-4.59-7.92h.79v7.7l3.41,0V-7.92H.39V-.17L4.2-.12h.39v8H3.8V.6L.39.55V7.92H-.39V.55L-4.2.5l-.39,0v-8.4Z"/>
<rect fill="none" x="-12" y="-12" width="24" height="24"/>
</symbol>
<symbol id="human" viewBox="-12 -12 24 24">
<path d="M-3.59-3.29A5.13,5.13,0,0,1,0-4.66,5.13,5.13,0,0,1,3.59-3.29,4.3,4.3,0,0,1,5.09,0a4.3,4.3,0,0,1-1.5,3.29A5.13,5.13,0,0,1,0,4.66,5.13,5.13,0,0,1-3.59,3.29,4.3,4.3,0,0,1-5.09,0,4.3,4.3,0,0,1-3.59-3.29Zm.28.77A3.68,3.68,0,0,0-4.3,0a3.62,3.62,0,0,0,1,2.57L-.5.05ZM0-3.94A4.42,4.42,0,0,0-2.75-3L.16-.36H4.28A3.62,3.62,0,0,0,2.91-2.9,4.38,4.38,0,0,0,0-3.94ZM.16.46-2.7,3.07A4.42,4.42,0,0,0,0,3.94a4.37,4.37,0,0,0,2.87-1A3.78,3.78,0,0,0,4.28.46Z"/>
<rect fill="none" x="-12" y="-12" width="24" height="24"/>
</symbol>
<symbol id="karren" viewBox="-12 -12 24 24">
<path d="M1-5.84h0a1.37,1.37,0,0,1,1.06.68A3.33,3.33,0,0,1,2.5-3.79,25.79,25.79,0,0,1,2.36,0a18.61,18.61,0,0,0-.08,3.72,2.68,2.68,0,0,0,.41,1.2,1.13,1.13,0,0,0,.79.5A.92.92,0,0,0,4,4.94a4.43,4.43,0,0,0,.47-1.22c.16-.64.36-1.86.59-3.66a26.71,26.71,0,0,1,.64-3.69,4.62,4.62,0,0,1,.57-1.29,1.34,1.34,0,0,1,1-.59h0A1.28,1.28,0,0,1,8.37-5a2.17,2.17,0,0,1,.39,1.15A19.91,19.91,0,0,1,8.54-.53a21.51,21.51,0,0,0-.2,3.64A2.64,2.64,0,0,0,9.45,5.36,1.91,1.91,0,0,0,10.88,5a3.84,3.84,0,0,0,.7-1l.42.2-.1.18-.12.21-.11.18L11.52,5a.94.94,0,0,1-.14.16c-.06.07-.13.12-.19.18a2.5,2.5,0,0,1-1.85.41H9.29l0,0A3.06,3.06,0,0,1,7.87,3.13a22.11,22.11,0,0,1,.2-3.7,18.17,18.17,0,0,0,.22-3.28A1.85,1.85,0,0,0,8-4.79a.77.77,0,0,0-.67-.3.93.93,0,0,0-.64.42,4.51,4.51,0,0,0-.51,1.15A26.26,26.26,0,0,0,5.54.1c-.24,1.83-.45,3.07-.61,3.72a5.38,5.38,0,0,1-.51,1.34,1.33,1.33,0,0,1-.89.68H3.47A1.58,1.58,0,0,1,2.3,5.16a3.29,3.29,0,0,1-.49-1.4A20.27,20.27,0,0,1,1.89,0,23.45,23.45,0,0,0,2-3.75a2.94,2.94,0,0,0-.32-1.19A.93.93,0,0,0,1-5.42,1.1,1.1,0,0,0,.19-5,3.69,3.69,0,0,0-.43-3.76,20.78,20.78,0,0,0-1.07.07c-.2,2-.37,3.32-.49,3.86A4.48,4.48,0,0,1-2,5.26,1.06,1.06,0,0,1-3,5.81h0a1.9,1.9,0,0,1-1.29-.67,2.7,2.7,0,0,1-.58-1.31,14.92,14.92,0,0,1,0-3.6q0-.12.06-.54c0-.28,0-.47,0-.57s0-.28,0-.52,0-.42,0-.55,0-.28,0-.47,0-.36,0-.51,0-.29,0-.43A3.09,3.09,0,0,0-5-4.62a1.19,1.19,0,0,0-.67-.6,1.5,1.5,0,0,0-1.2.9A7,7,0,0,0-7.41-2.1c0,.39-.1,1-.14,1.76s-.11,1.47-.18,2.08A9.61,9.61,0,0,1-8,3.32h0l0,0A2.81,2.81,0,0,1-9.2,4.62a1.82,1.82,0,0,1-1.35.15A1.94,1.94,0,0,1-11.61,4,2.39,2.39,0,0,1-12,2.56l.47,0a1.92,1.92,0,0,0,.31,1.16,1.47,1.47,0,0,0,.81.62,1.3,1.3,0,0,0,1-.11A2.32,2.32,0,0,0-8.5,3.18a7.53,7.53,0,0,0,.29-1.5Q-8.1.8-8-.36c0-.78.1-1.37.16-1.78A7.23,7.23,0,0,1-7.28-4.5,1.93,1.93,0,0,1-5.65-5.66h.05l0,0a1.59,1.59,0,0,1,1,.84,3.47,3.47,0,0,1,.34,1.41,4.91,4.91,0,0,1,0,.57v.54c0,.15,0,.37,0,.66s0,.47,0,.58,0,.33-.06.68,0,.56-.06.63a14.78,14.78,0,0,0,0,3.49,2.58,2.58,0,0,0,.5,1.13,1.57,1.57,0,0,0,1,.5A.61.61,0,0,0-2.44,5,3.89,3.89,0,0,0-2,3.85C-1.9,3.31-1.74,2-1.53,0A20.65,20.65,0,0,1-.86-3.89,3.89,3.89,0,0,1-.18-5.26,1.58,1.58,0,0,1,1-5.84Z"/>
<rect fill="none" x="-12" y="-12" width="24" height="24"/>
</symbol>
<symbol id="moonmilk" viewBox="-12 -12 24 24">
<path d="M-4.78-3.06a3.39,3.39,0,0,1,1.5.34,2.48,2.48,0,0,1,1.1,1,3.74,3.74,0,0,1,1.62-.8,3.52,3.52,0,0,1,1.71,0,2.9,2.9,0,0,1,1.39.77A2.49,2.49,0,0,1,3.25-.37,4,4,0,0,1,5-.76a3.58,3.58,0,0,1,1.6.36A2.84,2.84,0,0,1,7.88.92a2.32,2.32,0,0,1,0,1.88.34.34,0,0,1-.37.26A.36.36,0,0,1,7.25,3a.32.32,0,0,1-.12-.25.21.21,0,0,1,0-.12,2,2,0,0,0,0-1.43,2,2,0,0,0-1-.9A2.81,2.81,0,0,0,4.68,0,2.78,2.78,0,0,0,3.12.56L2.46.25A1.7,1.7,0,0,0,2.15-1.1,2.15,2.15,0,0,0,1-1.81a2.85,2.85,0,0,0-1.58.06A3,3,0,0,0-2-.83l-.71-.12A1.74,1.74,0,0,0-3.55-2a2.36,2.36,0,0,0-1.39-.27,3.08,3.08,0,0,0-1.45.53A2.33,2.33,0,0,0-7.32-.56a.35.35,0,0,1-.37.24A.39.39,0,0,1-8-.42a.33.33,0,0,1-.1-.26v-.1A3,3,0,0,1-6.89-2.35,4,4,0,0,1-5-3Z"/>
<rect fill="none" x="-12" y="-12" width="24" height="24"/>
</symbol>
<symbol id="narrow" viewBox="-12 -12 24 24">
<path d="M-1.5,5V-5h0.64V5H-1.5z"/>
<path d="M0.86,5V-5H1.5V5H0.86z"/>
<rect fill="none" x="-12" y="-12" width="24" height="24"/>
</symbol>
<symbol id="paleoflow" viewBox="-12 -12 24 24">
<path d="M.38-12V.17A1.9,1.9,0,0,0,1,0,1.57,1.57,0,0,0,1.7-.72a1.86,1.86,0,0,0,.23-1c0-.09,0-.14.08-.16a.92.92,0,0,1,.24,0,.52.52,0,0,0,.25,0h.08A2.48,2.48,0,0,1,2,0,2.5,2.5,0,0,1,.38.77V7.21H2.09L0,12-1.8,7.23c.07,0,.59,0,1.53,0V.77A3,3,0,0,1-1.35.43a2.16,2.16,0,0,1-1-1,2.38,2.38,0,0,1-.24-1.33l.67,0a2,2,0,0,0,.15,1,1.73,1.73,0,0,0,.59.67A2.14,2.14,0,0,0-.27.16V-12Z"/>
<rect fill="none" x="-12" y="-12" width="24" height="24"/>
</symbol>
<symbol id="rain" viewBox="-12 -12 24 24">
<path d="M-4.14-6.34h0.71v4.69h-0.71V-6.34z"/>
<path d="M-0.35-6.34h0.71v4.69h-0.71V-6.34z"/>
<path d="M3.43-6.34h0.71v4.69H3.43V-6.34z"/>
<path d="M-4.14,1.65h0.71v4.69h-0.71V1.65z"/>
<path d="M-0.35,1.65h0.71v4.69h-0.71V1.65z"/>
<path d="M3.43,1.65h0.71v4.69H3.43V1.65z"/>
<rect fill="none" x="-12" y="-12" width="24" height="24"/>
</symbol>
<symbol id="rats" viewBox="-12 -12 24 24">
<path d="M8.78-2.32,7-2.27c-.51-.17-.65-.56-1.46-.45l-.25.45C3.59-2.75,2.59-3.66.56-3.62l-1.35.3A4.89,4.89,0,0,0-4.24,1.57c-.68.6-2.58.86-3.39.94a6.84,6.84,0,0,0-1.62.39,4.91,4.91,0,0,0-1,.52A1.75,1.75,0,0,0-11,4.61a1.16,1.16,0,0,0,.59,1.48,1.3,1.3,0,0,1,.14.12c.16-.52-.35-.92-.2-1.42a3.35,3.35,0,0,1,.27-.45,3.18,3.18,0,0,1,1.79-1c.63-.12,1.27-.22,1.91-.3.48-.07,1,0,1.4-.12A6.94,6.94,0,0,1-4,2.82,30.64,30.64,0,0,0,.41,2.69l2.16.15c.1-.09,0,0,.1-.15a.87.87,0,0,0-.9-.55c.86-1,2.27-.37,3.1-.05.5.19,1,0,1.25.4.11-.1.1-.07.15-.25.3,0,.31.07.6.15-.06-.49-.34-.64-1-.6a.78.78,0,0,1,0-.55C6.3.56,7.29.73,8.13.43a13.78,13.78,0,0,0,2.15-.9l.6-.85v-.2A16.9,16.9,0,0,0,8.78-2.32Z"/>
<rect fill="none" x="-12" y="-12" width="24" height="24"/>
</symbol>
<symbol id="sand" viewBox="-12 -12 24 24">
<path d="M-1.58,0.83c0.23,0.2,0.35,0.44,0.36,0.73c0.01,0.29-0.08,0.54-0.28,0.75c-0.2,0.21-0.46,0.32-0.78,0.33c-0.32,0.01-0.6-0.08-0.83-0.26C-3.36,2.19-3.49,1.95-3.5,1.67C-3.51,1.38-3.41,1.12-3.2,0.9c0.21-0.22,0.48-0.34,0.8-0.35C-2.08,0.54-1.81,0.64-1.58,0.83z"/>
<path d="M0.08-2.36c0.23,0.2,0.35,0.44,0.36,0.73c0.01,0.29-0.08,0.54-0.28,0.75c-0.2,0.21-0.46,0.32-0.78,0.33c-0.32,0.01-0.59-0.07-0.83-0.26s-0.37-0.42-0.38-0.71c-0.01-0.29,0.09-0.54,0.3-0.76c0.21-0.22,0.48-0.33,0.8-0.35C-0.42-2.65-0.14-2.56,0.08-2.36z"/>
<path d="M3.12,0.55c0.23,0.2,0.35,0.43,0.38,0.71c0.02,0.28-0.07,0.53-0.28,0.75C3,2.23,2.73,2.35,2.42,2.36C2.1,2.37,1.82,2.28,1.58,2.08C1.34,1.88,1.22,1.64,1.2,1.35c-0.01-0.29,0.09-0.54,0.3-0.75C1.72,0.4,1.99,0.29,2.3,0.28S2.89,0.36,3.12,0.55z"/>
<rect fill="none" x="-12" y="-12" width="24" height="24"/>
</symbol>
<symbol  id="scallops" viewBox="-12 -12 24 24">
<path d="M.05-3.74l.21,0A2.35,2.35,0,0,1,1.74-3a2,2,0,0,1,.59,1.55v0l0,0A9.59,9.59,0,0,1-.08,3.27l-.39.47-.27-.55A14.26,14.26,0,0,1-2.33-1.89v-.05l0-.05A2,2,0,0,1-1.44-3.3,2.42,2.42,0,0,1,.05-3.74ZM-.11-3A1.44,1.44,0,0,0-1.55-1.89,13.06,13.06,0,0,0-.29,2.33,8.6,8.6,0,0,0,1.55-1.54a1.41,1.41,0,0,0-.38-1A1.62,1.62,0,0,0,.18-3Z"/>
<rect fill="none" x="-12" y="-12" width="24" height="24"/>
</symbol>
<symbol  id="sink" viewBox="-12 -12 24 24">
<path d="M.72,9.41H.9c1.94,0,3.26-.54,3.94-1.51a3.61,3.61,0,0,0,.33-.69,2,2,0,0,0,.11-.54V6.46l.69,0a2.8,2.8,0,0,1-.58,1.78C4.58,9.39,3.1,10,.93,10H-.93q-3.25,0-4.46-1.8a2.74,2.74,0,0,1-.43-.83A2.37,2.37,0,0,1-6,6.67V6.43l.68,0A2.27,2.27,0,0,0-4.84,7.9c.68,1,2,1.47,3.93,1.48l.5,0ZM-1.46-10a.68.68,0,0,0,.16.41A2.77,2.77,0,0,0-.51-9l0,0a3.63,3.63,0,0,1,1,.7,1.15,1.15,0,0,1,.34.88c0,.58-.53,1.14-1.49,1.68-.68.42-1,.79-1,1.11s.3.61.84,1h0Q.61-2.86.46-1.78a3.51,3.51,0,0,1-1.55,2,.61.61,0,0,0-.26.41,1.67,1.67,0,0,0,.1.51,5.3,5.3,0,0,1,.32,1L.56,1.9.46,8.06-3.4,2.54l1.73-.28A6.16,6.16,0,0,0-2,1.39,1.7,1.7,0,0,1-2.09.58a1.21,1.21,0,0,1,.53-.82h0v0C-.75-.86-.33-1.38-.28-1.85s-.23-.87-.91-1.27h0C-2-3.6-2.37-4.1-2.4-4.61S-2-5.74-1.09-6.29C-.34-6.72.06-7.1.09-7.44a.67.67,0,0,0-.18-.43,3.17,3.17,0,0,0-.79-.58,2.93,2.93,0,0,1-1-.67A1.16,1.16,0,0,1-2.17-10Z"/>
<rect fill="none" x="-12" y="-12" width="24" height="24"/>
</symbol>
<symbol  id="spring" viewBox="-12 -12 24 24">
<path d="M-1.34-9.86,2.52-4.34.78-4.06a8,8,0,0,0,.29.87,1.4,1.4,0,0,1,.13.79,1.3,1.3,0,0,1-.52.84l0,0v0C-.13-.95-.55-.42-.61,0S-.37.91.31,1.3l0,0c.75.46,1.14,1,1.18,1.46S1.12,3.92.21,4.46C-.54,4.9-.94,5.29-1,5.64a.74.74,0,0,0,.18.43A3.2,3.2,0,0,0,0,6.62a3,3,0,0,1,1,.7,1.14,1.14,0,0,1,.31.86A1.74,1.74,0,0,1,.71,9.26H.92c1.92,0,3.22-.52,3.9-1.51a2.05,2.05,0,0,0,.35-.67,2.59,2.59,0,0,0,.1-.55l0-.19.65,0a2.84,2.84,0,0,1-.55,1.8C4.58,9.26,3.08,9.85.92,9.86H-.92c-2.17,0-3.66-.6-4.49-1.77a3.65,3.65,0,0,1-.4-.85A2.43,2.43,0,0,1-6,6.53V6.29l.66,0a2.08,2.08,0,0,0,.47,1.41c.68,1,2,1.5,3.91,1.51H-.4c.62-.43.94-.8,1-1.1a.76.76,0,0,0-.16-.43,3.25,3.25,0,0,0-.79-.51v0a3.8,3.8,0,0,1-1-.7,1.15,1.15,0,0,1-.34-.91q.06-.84,1.5-1.68c.68-.4,1-.77,1-1.1S.49,2.21,0,1.87c0,0,0,0,0,0C-1,1.32-1.44.69-1.34,0a3.58,3.58,0,0,1,1.55-2,.54.54,0,0,0,.23-.38A1.28,1.28,0,0,0,.37-3a4.57,4.57,0,0,1-.32-1l-1.49.24Z"/>
<rect fill="none" x="-12" y="-12" width="24" height="24"/>
</symbol>
<symbol  id="stalactite" viewBox="-12 -12 24 24">
<path d="M3.57-6.69l.52.53L.39-3V6.12H-.39V-3l-3.7-3.14.52-.53L0-3.67Z"/>
<rect fill="none" x="-12" y="-12" width="24" height="24"/>
</symbol>
<symbol  id="stalagmite" viewBox="-12 -12 24 24">
<path d="M.38-6.42V2.75L4.11,5.89l-.56.53L0,3.4l-3.57,3-.53-.53,3.7-3.14V-6.42Z"/>
<rect fill="none" x="-12" y="-12" width="24" height="24"/>
</symbol>
<symbol  id="stalagnate" viewBox="-12 -12 24 24">
<path d="M3.55-8.46l.56.53L.38-4.78v9L4.11,7.36l-.56.53L0,4.86l-3.57,3-.53-.53,3.7-3.14v-9l-3.7-3.15.53-.53L0-5.43Z"/>
<rect fill="none" x="-12" y="-12" width="24" height="24"/>
</symbol>
<symbol  id="straws" viewBox="-12 -12 24 24">
<path d="M-10.89-2.76H10.89V-2H9.63V.46H8.84V-2H8.29v5.6H7.5V-2H5.56V.7H4.77V-2H2.07V2.38H1.29V-2H-.1v3H-.89V-2H-3.2V4.11H-4V-2H-6.22L-6.16.75l-.79,0L-7-2H-8.32V2.33H-9.1V-2h-1.79Z"/>
<rect fill="none" x="-12" y="-12" width="24" height="24"/>
</symbol>
<symbol  id="water" viewBox="-12 -12 24 24">
<path d="M-1.72-9.86,2.11-4.32.38-4.06a6.49,6.49,0,0,0,.29.89,1.5,1.5,0,0,1,.13.79,1.2,1.2,0,0,1-.5.82h0l0,0C-.54-.94-1-.42-1,.05s.24.89.92,1.27h0c.77.48,1.17,1,1.19,1.49S.71,3.94-.2,4.49c-.75.43-1.13.81-1.15,1.15a.51.51,0,0,0,.18.43,2.66,2.66,0,0,0,.76.58,2.93,2.93,0,0,1,1,.67,1.16,1.16,0,0,1,.29.89C.84,8.75.42,9.3-.41,9.86l-.44-.55c.66-.45,1-.83,1-1.15A.47.47,0,0,0,0,7.75a2.84,2.84,0,0,0-.78-.53h0a3.87,3.87,0,0,1-1-.69,1.24,1.24,0,0,1-.34-.91c0-.58.54-1.14,1.52-1.68.66-.42,1-.79,1-1.11s-.3-.61-.84-1h0Q-1.9,1.06-1.74,0a3.44,3.44,0,0,1,1.54-2,.67.67,0,0,0,.27-.41A1.11,1.11,0,0,0,0-3a4.33,4.33,0,0,1-.31-1l-1.5.24Z"/>
<rect fill="none" x="-12" y="-12" width="24" height="24"/>
</symbol><symbol  id="tree" viewBox="-12 -12 24 24">
<path d="M7.4-5.04A4.271,4.271,0,0,0,7.7-6.627a4.3,4.3,0,0,0-4.3-4.3A4.279,4.279,0,0,0,.636-9.914,4.293,4.293,0,0,0-3.045-12a4.3,4.3,0,0,0-4.3,4.3,4.27,4.27,0,0,0,.421,1.845,4.3,4.3,0,0,0-3.645,4.244,4.3,4.3,0,0,0,4.3,4.3A4.282,4.282,0,0,0-3.946,2L-1.175,5.23h0L-1.612,12H.982L.757,6.376,4.119,2.827v0a4.272,4.272,0,0,0,2.15.58,4.3,4.3,0,0,0,4.3-4.3A4.3,4.3,0,0,0,7.4-5.04ZM-3.346,1.538h0A4.346,4.346,0,0,0-2.7.788a4.266,4.266,0,0,0,1.765.753l-.135,2.087ZM.69,4.7.563,1.544A4.258,4.258,0,0,0,2.321.805,4.3,4.3,0,0,0,3.378,2.279Z"/>
<rect fill="none" x="-12" y="-12" width="24" height="24"/>
</symbol><g>
<desc></desc>
<g>
<line fill="none" stroke="#dddddd" stroke-width="0.1mm" x1="0.00" y1="44.00" x2="58.00" y2="44.00" />
<text x="55.20" y="43.80" font-size=".2mm" fill="#000000">0m</text>
<line fill="none" stroke="#dddddd" stroke-width="0.1mm" x1="0.00" y1="24.00" x2="58.00" y2="24.00" />
<text x="55.20" y="23.80" font-size=".2mm" fill="#000000">10m</text>
<line fill="none" stroke="#dddddd" stroke-width="0.1mm" x1="0.00" y1="4.00" x2="58.00" y2="4.00" />
<text x="55.20" y="3.80" font-size=".2mm" fill="#000000">20m</text>
<line fill="none" stroke="#dddddd" stroke-width="0.1mm" x1="0.00" y1="64.00" x2="58.00" y2="64.00" />
<text x="55.20" y="63.80" font-size=".2mm" fill="#000000">-10m</text>
<line fill="none" stroke="#dddddd" stroke-width="0.1mm" x1="35.00" y1="0.00" x2="35.00" y2="79.00" />
<text x="35.40" y="2.00" font-size=".2mm" fill="#000000">0m</text>
<line fill="none" stroke="#dddddd" stroke-width="0.1mm" x1="15.00" y1="0.00" x2="15.00" y2="79.00" />
<text x="15.40" y="2.00" font-size=".2mm" fill="#000000">-10m</text>
<line fill="none" stroke="#dddddd" stroke-width="0.1mm" x1="55.00" y1="0.00" x2="55.00" y2="79.00" />
<text x="55.40" y="2.00" font-size=".2mm" fill="#000000">10m</text>
</g>
<g>
<path fill="none" stroke="#000000" stroke-width="0.06mm" d="M44.58809,67.16211 C44.67236,67.204865 44.754387,67.25236 44.8409,67.290375 C45.04499,67.38005 45.32788,67.12002 45.44639,67.04692 L45.44639,67.04692" /><defs><path id="DRAW_7447"  d="M39.422047,35.44588 L39.291847,35.330185" /></defs><use xlink:href="#DRAW_7447" fill="none" stroke="#000000" stroke-width="0.04mm" /><text style="fill:#000000; font-size:0.5mm; letter-spacing:2;"><textPath xlink:href="#DRAW_7447">|</textPath></text><defs><path id="DRAW_7452"  d="M39.055218,35.954914 C38.909054,35.823112 38.761276,35.693085 38.61673,35.559513 C38.13577,35.115074 37.664043,34.660614 37.178745,34.22092 C37.072414,34.124584 36.860367,34.04321 36.712254,34.055294 C36.529297,34.070217 36.313534,34.28972 36.253643,34.449203 C35.627937,36.1155 36.056896,35.02912 35.68975,36.46505 C35.622105,36.72961 35.521458,36.98474 35.446674,37.24737 C35.410233,37.375343 35.428196,37.526703 35.49649,37.6407 C35.51825,37.67702 35.569138,37.748077 35.609367,37.774464 C35.903378,37.967327 36.034527,37.990047 36.452843,38.08335 C36.647533,38.126774 36.965153,38.109478 37.151024,38.084724 C37.255108,38.070866 37.483406,38.014294 37.582,37.9455 C38.161182,37.541374 38.195942,37.398743 38.70816,36.739452 C38.786274,36.638912 38.851917,36.529087 38.92998,36.428505 C38.96497,36.383423 39.099022,36.2786 39.119198,36.184288 C39.131863,36.125084 39.105247,36.02651 39.10353,35.983574 C39.101967,35.944374 39.107643,35.905216 39.109695,35.86604 L39.109695,35.86604" /></defs><use xlink:href="#DRAW_7452" fill="none" stroke="#000000" stroke-width="0.04mm" /><text style="fill:#000000; font-size:0.5mm; letter-spacing:2;"><textPath xlink:href="#DRAW_7452">||||||||||||||||||||||||||||||||||||||||||||||||</textPath></text><path fill="none" stroke="#000000" stroke-width="0.06mm" d="M38.986534,36.00109 C39.148705,35.937172 39.28244,35.90738 39.41303,35.801983 C39.691742,35.577038 39.84153,35.213043 39.860634,34.859684 C39.87757,34.54649 39.906883,34.226376 39.84516,33.918858 C39.694504,33.168198 39.22991,30.996105 38.626633,30.01685 C37.928707,28.883965 37.22311,28.36231 36.121784,27.537403 C35.487656,27.062431 34.588524,26.448801 33.76471,26.275396 C33.65955,26.253262 33.565945,26.357159 33.466564,26.39804 L33.466564,26.39804" /><path fill="none" stroke="#000000" stroke-width="0.06mm" d="M37.536655,29.857729 C37.475792,30.262794 37.433537,30.671097 37.354065,31.072926 C37.215965,31.771175 37.04658,32.462906 36.88434,33.155945 C36.8779,33.183456 36.83433,33.237736 36.81469,33.256798 C36.67239,33.394897 36.42577,33.389675 36.30617,33.23006 C36.096416,32.950123 35.8763,32.677437 35.680477,32.387585 C35.45683,32.05654 35.47333,31.791447 35.680336,31.460629 C35.99557,30.956848 36.72581,30.29486 37.03416,30.018652 C37.179455,29.888502 37.6281,29.530582 37.5206,29.69335 C37.487347,29.7437 36.688698,30.72213 36.27726,30.9809 C36.169502,31.048672 35.49905,31.229263 35.538864,31.573996 C35.543262,31.612068 35.54621,31.65141 35.560753,31.68687 C35.71362,32.059612 35.86567,32.433212 36.04015,32.796333 C36.117645,32.957607 36.53579,33.539017 36.802086,33.346046 C36.83485,33.3223 36.87305,33.273815 36.887344,33.236874 C37.09456,32.70132 37.060074,32.80194 37.162544,32.402508 L37.162544,32.402508" /><defs><path id="DRAW_7474"  d="M31.750204,38.047447 L31.687305,38.09684" /></defs><use xlink:href="#DRAW_7474" fill="none" stroke="#248B00" stroke-width="0.04mm" /><text style="fill:#248B00; font-size:0.5mm; letter-spacing:2;"><textPath xlink:href="#DRAW_7474">|</textPath></text><path fill="none" stroke="#248B00" stroke-width="0.06mm" d="M33.988716,36.848537 C33.76918,36.73968 33.39146,36.596157 33.18091,36.397213 C32.754425,35.994247 32.554775,35.593834 32.157593,35.100555 C31.987457,34.88926 31.787495,34.703606 31.610947,34.497635 C31.490437,34.357048 31.3969,34.19336 31.266924,34.06147 C31.129938,33.92247 30.97733,33.797493 30.814674,33.68965 C30.62865,33.566315 30.425282,33.471035 30.225697,33.371117 C30.182886,33.349686 30.136482,33.33393 30.089195,33.326458 C29.542664,33.24006 29.626596,33.266037 29.07898,33.312447 L29.07898,33.312447" /><path fill="none" stroke="#248B00" stroke-width="0.06mm" d="M29.148247,33.18635 C29.064648,33.284676 28.993832,33.39549 28.897453,33.481323 C28.050812,34.235313 27.852036,34.268425 26.76796,34.913162 C26.60691,35.00894 26.449488,35.111023 26.28535,35.201416 C25.653595,35.549316 25.856045,35.3658 25.207996,35.813965 C25.114277,35.878777 25.021109,35.94801 24.946499,36.034134 C24.815495,36.185356 24.712482,36.358727 24.595474,36.52102 L24.595474,36.52102" /><path fill="none" stroke="#248B00" stroke-width="0.06mm" d="M21.724815,41.688305 C21.823715,42.06698 21.952156,42.365105 21.942764,42.741524 C21.930426,43.23592 21.881233,43.729244 21.878622,44.22379 C21.877037,44.52395 21.943121,44.822914 21.930195,45.1228 C21.919876,45.36215 21.835155,45.593105 21.809328,45.831284 C21.772568,46.170284 21.72447,47.179424 21.740002,47.559807 C21.74541,47.692333 21.799923,47.862564 21.85759,47.98672 C21.892298,48.061455 21.935163,48.132164 21.97122,48.206253 C22.00562,48.276936 22.047916,48.345146 22.06889,48.420906 C22.203577,48.907417 22.339481,49.394604 22.437313,49.889847 C22.513275,50.274384 22.52459,50.611576 22.47512,50.987125 C22.454311,51.145096 22.417326,51.300583 22.394241,51.458237 C22.37331,51.601173 22.359058,51.74501 22.343119,51.888588 C22.338673,51.928635 22.339592,51.969284 22.333088,52.00905 C22.312206,52.13676 22.285057,52.263367 22.261044,52.390526 L22.261044,52.390526" /><path fill="none" stroke="#248B00" stroke-width="0.06mm" d="M24.058437,52.864323 C24.031404,52.772404 23.99458,52.68281 23.977339,52.588562 C23.781815,51.5198 23.601482,50.448296 23.420446,49.376984 C23.40741,49.299847 23.433792,49.214718 23.493061,49.16335 C23.577396,49.090256 23.77443,49.176636 23.82426,49.188908 C23.900776,49.20775 24.035,49.263763 24.136763,49.26871 C24.324524,49.277836 24.515663,49.029343 24.60235,48.927975 C24.695856,48.818626 24.852222,48.607006 24.87167,48.44691 C24.881355,48.367184 24.886997,48.28683 24.888039,48.20652 C24.888626,48.161007 24.885088,48.115166 24.876553,48.070454 C24.866428,48.017426 24.85376,47.964195 24.832317,47.914646 C24.544693,47.249954 24.251553,46.58759 23.949959,45.92912 C23.269047,44.442486 23.556171,44.83605 23.136108,44.282726 L23.136108,44.282726" /><defs><path id="DRAW_7515"  d="M22.27612,43.181507 C22.261604,43.475544 22.24709,43.76958 22.232576,44.063618 C22.240152,44.24034 22.262459,44.417046 22.255306,44.593784 C22.18508,46.3293 22.096249,45.41819 22.207466,46.914215 C22.217125,47.044167 22.355467,47.288685 22.38285,47.358368 C22.49096,47.63349 22.595442,47.910183 22.690865,48.18996 C22.745367,48.34976 22.730818,48.56495 22.744104,48.718327 C22.7533,48.824455 22.770784,48.929707 22.784122,49.035393 C22.796562,49.302498 22.798466,49.5703 22.821434,49.836704 C22.843512,49.969913 22.86559,50.103123 22.887665,50.236332 C22.90458,50.288162 22.933372,50.337536 22.938412,50.391827 C23.023476,51.30828 22.948193,50.669838 22.93357,51.18661 C22.929123,51.343784 22.934956,51.501076 22.935648,51.65831 L22.935648,51.65831" /></defs><use xlink:href="#DRAW_7515" fill="none" stroke="#248B00" stroke-width="0.04mm" /><text style="fill:#248B00; font-size:0.5mm; letter-spacing:2;"><textPath xlink:href="#DRAW_7515">|||||||||||||||||||||||||||||||||||</textPath></text><defs><path id="DRAW_7517"  d="M23.315056,51.566513 C23.417133,51.06353 23.300262,51.676838 23.416225,50.775185 C23.465683,50.390648 23.524078,50.662277 23.444647,50.07653 C23.361954,49.46672 23.247828,48.86158 23.147549,48.254414 C23.115337,48.05936 23.080633,47.864727 23.047174,47.669884 C22.925484,47.123367 22.77856,46.581867 22.682106,46.03034 C22.63631,45.768486 22.622108,45.501 22.62138,45.235172 C22.615322,43.030396 22.79908,43.97102 22.66578,43.30079 L22.66578,43.30079" /></defs><use xlink:href="#DRAW_7517" fill="none" stroke="#248B00" stroke-width="0.04mm" /><text style="fill:#248B00; font-size:0.5mm; letter-spacing:2;"><textPath xlink:href="#DRAW_7517">||||||||||||||||||||||||||||||||||</textPath></text><path fill="none" stroke="#248B00" stroke-width="0.06mm" d="M24.752502,59.711502 C24.95235,59.351143 24.906097,59.376 25.127724,59.130226 C25.180843,59.071316 25.250725,59.026375 25.293709,58.95971 C25.513672,58.618553 25.720146,58.268383 25.913519,57.91148 C26.02275,57.709873 26.110645,57.497265 26.200397,57.286263 C26.241638,57.18931 26.254974,57.08049 26.306156,56.988396 C26.867489,55.97839 27.144323,55.777477 27.441938,54.89476 C27.56332,54.53474 27.54658,54.240833 27.540644,53.84758 C27.537678,53.65107 27.32271,53.15371 27.311562,53.1259 C27.29496,53.084496 27.268223,53.047737 27.242699,53.01115 C27.173763,52.91234 27.10089,52.80486 26.988623,52.750416 C26.873758,52.694714 26.669273,52.68495 26.587454,52.66194 C26.485928,52.633385 26.389534,52.588825 26.292225,52.548157 C26.13087,52.480717 25.973314,52.404373 25.811646,52.337692 C25.772064,52.321365 25.6974,52.30437 25.6515,52.307888 C25.35865,52.33033 25.217037,52.445297 24.923517,52.575035 C24.737038,52.657455 24.550282,52.73945 24.361,52.815216 C24.329731,52.827736 24.237812,52.832603 24.208136,52.839375 C24.147308,52.853256 24.102459,52.877777 24.046013,52.90382 L24.046013,52.90382" /><defs><path id="DRAW_7527"  d="M24.030365,53.21376 C24.105757,53.03577 24.050251,53.15214 24.22797,52.88121 L24.22797,52.88121" /></defs><use xlink:href="#DRAW_7527" fill="none" stroke="#B137AF" stroke-width="0.04mm" /><text style="fill:#B137AF; font-size:0.5mm; letter-spacing:2;"><textPath xlink:href="#DRAW_7527">||</textPath></text><path fill="none" stroke="#B137AF" stroke-width="0.06mm" d="M24.820925,59.699528 C24.789288,59.733105 24.754086,59.76365 24.726015,59.80026 C24.55146,60.027897 24.450985,60.472816 24.386326,60.695183 C24.355675,60.800594 24.329231,60.90721 24.303413,61.01391 C24.300194,61.02722 24.299477,61.041103 24.299314,61.054802 C24.298988,61.082504 24.301071,61.110184 24.301949,61.137875 L24.301949,61.137875" /><path fill="none" stroke="#B137AF" stroke-width="0.06mm" d="M23.716652,59.911053 C23.457466,60.46422 23.75616,59.80398 23.399576,60.74147 C23.201199,61.26302 23.413086,60.523987 23.236488,61.20215 L23.236488,61.20215" /><path fill="none" stroke="#B137AF" stroke-width="0.06mm" d="M24.342949,61.12157 C24.356308,61.131824 24.432018,61.198063 24.466103,61.202774 C24.668709,61.23078 24.872513,61.24936 25.075924,61.27076 C25.120481,61.27545 25.165737,61.273735 25.209942,61.281048 C25.555046,61.33811 25.514801,61.329376 25.718033,61.38786 L25.718033,61.38786" /><path fill="none" stroke="#B137AF" stroke-width="0.06mm" d="M25.78509,61.371452 C25.878687,61.379776 25.975025,61.372456 26.065884,61.396427 C26.421774,61.490326 26.774523,61.598053 27.120457,61.723778 C28.067043,62.067787 29.449017,62.78224 30.205915,63.183468 C30.3213,63.244633 30.419737,63.33367 30.522501,63.414257 C30.695995,63.55031 30.734772,63.763317 30.764648,63.971947 C30.777428,64.06116 30.766415,64.18248 30.741978,64.27011 C30.610075,64.74311 30.042141,65.038956 29.7345,65.32854 C29.52342,65.52722 29.335985,65.74963 29.138681,65.962006 C29.094082,66.01001 29.059624,66.068184 29.008856,66.109604 C28.85534,66.23486 28.688667,66.34308 28.528574,66.45981 L28.528574,66.45981" /><path fill="none" stroke="#B137AF" stroke-width="0.06mm" d="M28.735796,66.539764 L28.749943,66.49339" /><path fill="none" stroke="#B137AF" stroke-width="0.06mm" d="M24.68459,66.70394 C24.222961,66.36509 23.49197,66.03076 23.173143,65.485825 C22.964176,65.128654 22.936127,64.930275 22.848764,64.49446 C22.743202,63.96785 22.741629,63.4652 22.779125,62.917454 C22.823135,62.274544 23.032152,62.03907 23.261963,61.399963 C23.298895,61.29725 23.311638,61.187393 23.336475,61.081104 L23.336475,61.081104" /><path fill="none" stroke="#B137AF" stroke-width="0.06mm" d="M24.140337,62.60753 C24.322552,62.741142 24.508297,62.87007 24.686981,63.00837 C24.728699,63.040657 24.848007,63.166256 24.813885,63.237686 C24.786106,63.295837 24.639988,63.23832 24.617643,63.230133 C24.584225,63.217896 24.550674,63.204185 24.52135,63.184017 C24.338745,63.058403 24.17551,62.908245 24.104597,62.69198 C24.08675,62.63755 24.100739,62.554783 24.158646,62.52748 C24.169384,62.522415 24.182064,62.52346 24.193867,62.522186 C24.241924,62.51699 24.290081,62.512775 24.338186,62.50807 L24.338186,62.50807" /><path fill="none" stroke="#B137AF" stroke-width="0.06mm" d="M24.073826,63.85428 C24.175297,63.954742 24.279354,64.052666 24.378242,64.15568 C24.441338,64.221405 24.495174,64.31937 24.444181,64.408585 C24.426458,64.4396 24.407747,64.468155 24.37722,64.487335 C24.330067,64.51695 24.272621,64.50394 24.228502,64.475105 C24.053093,64.36049 23.87793,64.24543 23.705322,64.12663 C23.69553,64.119896 23.689133,64.10911 23.682434,64.09929 C23.59053,63.964596 23.710588,63.622204 23.8876,63.613728 C23.913635,63.61248 23.938356,63.618217 23.962383,63.62787 C23.981573,63.635582 23.999802,63.645493 24.018513,63.6543 C24.118721,63.69389 24.218933,63.733482 24.319141,63.77307 L24.319141,63.77307" /><path fill="none" stroke="#B137AF" stroke-width="0.06mm" d="M26.004091,63.011986 C26.170273,63.3285 26.336452,63.64501 26.502632,63.961517 C26.504917,63.973335 26.508286,63.984997 26.509487,63.996975 C26.520302,64.10478 26.432533,64.19908 26.369,64.271736 C26.319733,64.32808 26.246593,64.40889 26.159985,64.39905 C26.140182,64.3968 26.102985,64.38508 26.087843,64.37199 C25.907253,64.2159 25.725128,64.06122 25.552588,63.89627 C25.29348,63.648567 25.42707,63.404274 25.670128,63.197323 C25.719135,63.155594 25.775784,63.12376 25.827824,63.08588 C25.881718,63.04665 25.93454,63.005966 25.9879,62.96601 L25.9879,62.96601" /><path fill="none" stroke="#B137AF" stroke-width="0.06mm" d="M25.484995,64.714806 C25.548717,64.79482 25.607355,64.879166 25.676163,64.95485 C25.715286,64.997894 25.763628,65.03154 25.807573,65.06964 C25.871,65.124626 25.883564,65.12488 25.925106,65.19058 C25.954891,65.23769 26.005123,65.39901 25.887724,65.35243 C25.632702,65.25125 25.527817,65.00263 25.302769,64.87015 C25.267406,64.849335 25.229591,64.832375 25.190807,64.81898 C25.131416,64.798454 25.067675,64.79151 25.009129,64.76869 C24.997665,64.76422 24.98977,64.75131 24.98666,64.73941 C24.978409,64.70782 25.005953,64.66954 25.022324,64.64906 C25.133667,64.50986 25.322323,64.465195 25.491705,64.508545 C25.587963,64.53319 25.675976,64.61151 25.751179,64.660904 L25.751179,64.660904" /><path fill="none" stroke="#B137AF" stroke-width="0.06mm" d="M24.526789,64.79347 C24.584965,64.920616 24.639305,65.04958 24.701317,65.1749 C24.724377,65.2215 24.758142,65.26222 24.781689,65.30857 C24.821909,65.38776 24.789125,65.5211 24.709423,65.56427 C24.621588,65.61185 24.478985,65.509796 24.426714,65.4733 C24.298302,65.38362 24.176044,65.28531 24.05456,65.18646 C23.954716,65.105225 23.935223,64.845184 24.08021,64.79293 C24.192926,64.752304 24.304882,64.7079 24.421276,64.679474 C24.499405,64.66039 24.581013,64.66056 24.660883,64.65111 L24.660883,64.65111" /><path fill="none" stroke="#B137AF" stroke-width="0.06mm" stroke-dasharray="0.3mm,0.1mm" d="M30.739494,63.383327 C30.85996,63.432243 30.986507,63.468258 31.100895,63.530064 C31.414913,63.699738 31.719452,63.88671 32.021896,64.07624 C32.09017,64.119026 32.189674,64.19978 32.239098,64.277725 C32.467052,64.637245 32.21909,65.09978 31.907711,65.3199 C31.808653,65.38993 31.665064,65.4865 31.53318,65.51655 C31.2341,65.58468 30.897774,65.49005 30.613863,65.4294 C30.46156,65.39685 30.31152,65.3545 30.160349,65.317055 L30.160349,65.317055" /><path fill="none" stroke="#B137AF" stroke-width="0.06mm" stroke-dasharray="0.3mm,0.1mm" d="M25.073847,66.82497 C25.13187,66.85156 25.192184,66.87365 25.247921,66.90476 C25.423489,67.00275 25.64985,67.32302 25.702438,67.40364 C25.942791,67.77213 26.132618,68.17174 26.368702,68.542984 C26.452345,68.67451 26.689312,69.040825 26.90063,69.14096 C27.12736,69.248405 27.339558,68.959015 27.395418,68.77651 C27.436916,68.64094 27.49738,68.50548 27.497942,68.36369 C27.50031,67.768295 27.435417,67.17454 27.404156,66.579956 L27.404156,66.579956" /><path fill="none" stroke="#B137AF" stroke-width="0.06mm" d="M28.566135,66.61894 C28.291967,66.70276 28.024889,66.81482 27.743633,66.8704 C27.30914,66.95625 27.090193,66.96622 26.723934,66.906235 C24.66687,66.56937 25.339348,66.867645 24.46465,66.436615 L24.46465,66.436615" /><path fill="none" stroke="#B137AF" stroke-width="0.06mm" d="M29.161213,64.12357 C28.108084,63.59305 28.486523,63.824856 27.983109,63.504444 L27.983109,63.504444" /><path fill="none" stroke="#248B00" stroke-width="0.06mm" d="M27.7892,37.247185 C27.745724,37.513794 27.75847,37.391037 27.758904,37.810688 C27.759064,37.96834 28.029736,37.928955 28.107773,37.898838 C28.181616,37.870342 28.21256,37.74812 28.2418,37.700687 C28.36512,37.500652 28.263754,37.686783 28.323689,37.601322 C28.371544,37.533085 28.281082,37.39269 28.259747,37.353634 C28.20084,37.2458 28.155115,37.191635 28.030748,37.220257 C27.793867,37.274773 27.82766,37.261982 27.71343,37.310703 L27.71343,37.310703" /><path fill="none" stroke="#248B00" stroke-width="0.06mm" d="M28.383108,35.953438 C28.427006,36.118053 28.469208,36.28313 28.514801,36.447285 C28.523401,36.478252 28.571629,36.479374 28.594849,36.47395 C28.7094,36.4472 28.823757,36.41955 28.937605,36.389954 C28.955978,36.385178 28.969707,36.35711 28.970898,36.340137 C28.978056,36.238155 28.980946,36.135887 28.989237,36.033993 C28.989859,36.02634 29.023424,35.9057 29.001722,35.857883 C28.994617,35.84223 28.978397,35.825256 28.96243,35.8191 C28.8866,35.789852 28.810352,35.761448 28.732815,35.737087 C28.684927,35.722042 28.635704,35.711487 28.58661,35.70103 C28.579157,35.699444 28.571316,35.70018 28.56375,35.70108 C28.508665,35.707653 28.466118,35.767303 28.43713,35.80496 C28.347889,35.920895 28.36402,35.89673 28.32071,36.00024 L28.32071,36.00024" /><path fill="none" stroke="#248B00" stroke-width="0.06mm" d="M28.91016,37.510166 C28.918522,37.585632 28.925192,37.66131 28.935244,37.73657 C28.944029,37.80234 29.0281,37.829254 29.081446,37.83901 C29.122952,37.846596 29.164516,37.854 29.2063,37.859867 C29.227198,37.8628 29.253788,37.84538 29.266365,37.830902 C29.330435,37.75716 29.393665,37.68267 29.455507,37.60705 C29.467806,37.592014 29.476673,37.561077 29.472914,37.541832 C29.450315,37.426132 29.4338,37.397038 29.37813,37.27864 C29.369804,37.260933 29.357338,37.243042 29.341074,37.23143 C29.299051,37.20143 29.216341,37.21427 29.176884,37.240437 C29.071156,37.310543 28.950855,37.365128 28.864975,37.458496 C28.836706,37.48923 28.862411,37.541973 28.861132,37.583714 L28.861132,37.583714" /><path fill="none" stroke="#248B00" stroke-width="0.06mm" d="M29.395983,35.3751 C29.41219,35.437378 29.424595,35.50078 29.444607,35.561943 C29.446243,35.56695 29.454475,35.570587 29.459143,35.568146 C29.46748,35.563778 29.47208,35.554054 29.47601,35.5455 C29.486662,35.522316 29.495064,35.498093 29.502533,35.473698 C29.510925,35.446285 29.508745,35.42075 29.524342,35.397987 C29.557981,35.348885 29.62404,35.36428 29.644451,35.41642 C29.66529,35.469666 29.684834,35.523438 29.702875,35.57769 C29.729649,35.658195 29.620832,35.764023 29.542793,35.720695 C29.477852,35.68464 29.459835,35.611664 29.442781,35.545593 L29.442781,35.545593" /><path fill="none" stroke="#248B00" stroke-width="0.06mm" d="M30.251743,35.88212 C30.313797,35.836845 30.374594,35.789795 30.437904,35.746292 C30.456877,35.733257 30.47357,35.747883 30.478424,35.76602 C30.49387,35.82373 30.535597,35.94478 30.533974,36.028126 C30.533508,36.052113 30.517439,36.080853 30.496817,36.093346 C30.427732,36.135197 30.357834,36.175743 30.287054,36.21466 C30.266376,36.22603 30.242895,36.208973 30.232113,36.19268 C30.213207,36.164112 30.199764,36.11961 30.201828,36.085403 C30.21213,35.914585 30.202957,35.889816 30.220543,35.940067 L30.220543,35.940067" /><path fill="none" stroke="#248B00" stroke-width="0.06mm" d="M30.024433,37.57814 C30.023037,37.70951 30.02164,37.84088 30.020247,37.97225 C30.021338,37.977585 30.021946,37.983036 30.02352,37.988247 C30.043339,38.05393 30.14262,38.06414 30.19803,38.049458 C30.223358,38.042747 30.244238,38.020306 30.24943,37.994583 C30.27838,37.85118 30.307451,37.707787 30.33383,37.56389 C30.33489,37.5581 30.333302,37.55201 30.331594,37.546383 C30.326708,37.53028 30.311657,37.519833 30.295277,37.517937 C30.19398,37.50622 30.092607,37.49492 29.991003,37.48624 C29.97295,37.4847 29.952354,37.494682 29.953333,37.51516 C29.954594,37.541534 29.969486,37.563576 29.968744,37.591164 C29.966827,37.662315 29.928616,37.72409 29.900747,37.78764 L29.900747,37.78764" /><path fill="none" stroke="#000000" stroke-width="0.06mm" d="M39.21501,38.278767 C39.245255,38.135246 39.294025,38.020744 39.436577,37.966015 C39.493023,37.944344 39.558464,37.95225 39.609802,37.983288 C39.790833,38.09272 39.76156,38.28503 39.690968,38.460396 C39.671,38.51 39.653065,38.56285 39.61809,38.6033 C39.01567,39.300034 38.823257,39.358803 38.44378,39.999504 C38.438267,40.00881 38.46108,40.01485 38.47185,40.015762 C38.489334,40.017235 38.506893,40.011555 38.52361,40.00624 C38.574123,39.990177 38.624157,39.97235 38.67301,39.95179 C38.77591,39.90849 38.87301,39.850983 38.978607,39.81476 C39.08963,39.776665 39.204838,39.750755 39.320312,39.729713 C39.632725,39.67279 39.908466,39.76203 40.20891,39.824265 C40.292854,39.841652 40.37774,39.854137 40.462154,39.869072 L40.462154,39.869072" /><path fill="none" stroke="#000000" stroke-width="0.06mm" d="M25.949562,41.170235 C25.952469,40.987495 25.967049,40.904293 26.124243,40.806183 C26.164062,40.78133 26.230322,40.744015 26.283566,40.747673 C26.312428,40.749653 26.341646,40.76317 26.36272,40.782867 C26.46577,40.879196 26.469872,41.015842 26.422443,41.14335 C26.389366,41.232285 26.358612,41.322945 26.312874,41.406082 C26.258503,41.5049 26.131485,41.57404 26.123585,41.686554 C26.118622,41.75723 26.238907,41.603493 26.30136,41.570034 C26.673859,41.37047 27.17574,41.317883 27.27517,41.830524 C27.307835,41.998943 27.336067,42.18033 27.280117,42.347828 C27.20982,42.55826 26.964256,42.799934 26.751093,42.862343 C26.672436,42.88537 26.591728,42.901222 26.510994,42.91533 C26.459026,42.92441 26.391293,42.919727 26.34064,42.90583 C26.083918,42.835392 26.02063,42.691525 25.876202,42.477867 L25.876202,42.477867" /><defs><path id="DRAW_7599"  d="M22.895107,51.596947 C22.908249,51.82745 22.898336,51.798416 23.03224,52.145382 C23.079775,52.268555 23.138119,52.388355 23.208344,52.500156 C23.276213,52.60821 23.415821,52.792934 23.53864,52.893143 C23.560871,52.911285 23.586426,52.924927 23.610317,52.94082 L23.610317,52.94082" /></defs><use xlink:href="#DRAW_7599" fill="none" stroke="#248B00" stroke-width="0.04mm" /><text style="fill:#248B00; font-size:0.5mm; letter-spacing:2;"><textPath xlink:href="#DRAW_7599">|||||||</textPath></text><defs><path id="DRAW_7600"  d="M23.752785,52.77328 C23.685436,52.685238 23.69436,52.68093 23.630865,52.631298 C23.603405,52.60983 23.57349,52.591454 23.547216,52.568554 C23.51828,52.543335 23.49097,52.505974 23.473759,52.47158 C23.465832,52.45574 23.459202,52.43912 23.454636,52.42201 C23.425257,52.311913 23.404274,52.19959 23.372017,52.0903 C23.339174,51.97903 23.305277,51.961857 23.29689,51.863056 C23.289368,51.774414 23.306648,51.72461 23.314089,51.631973 C23.315598,51.613197 23.313501,51.594303 23.31321,51.575466 L23.31321,51.575466" /></defs><use xlink:href="#DRAW_7600" fill="none" stroke="#248B00" stroke-width="0.04mm" /><text style="fill:#248B00; font-size:0.5mm; letter-spacing:2;"><textPath xlink:href="#DRAW_7600">||||||</textPath></text><defs><path id="DRAW_7601"  d="M24.062937,53.002262 C24.043804,52.98691 24.024673,52.97156 24.005543,52.95621 C23.99548,52.94746 23.98655,52.937206 23.975357,52.92996 C23.933144,52.90262 23.887413,52.880882 23.84574,52.852726 C23.824348,52.838272 23.807102,52.81842 23.786755,52.80253 C23.77891,52.7964 23.769545,52.79248 23.761356,52.78682 C23.74732,52.777115 23.733875,52.766582 23.72013,52.756462 L23.72013,52.756462" /></defs><use xlink:href="#DRAW_7601" fill="none" stroke="#248B00" stroke-width="0.04mm" /><text style="fill:#248B00; font-size:0.5mm; letter-spacing:2;"><textPath xlink:href="#DRAW_7601">||</textPath></text><defs><path id="DRAW_7602"  d="M23.561914,52.934093 C23.617592,52.966064 23.673267,52.998035 23.728943,53.030006 C23.747383,53.03711 23.767294,53.04119 23.78426,53.05132 C23.829386,53.07826 23.870483,53.111443 23.914204,53.140606 C23.918568,53.143517 23.923283,53.14619 23.928373,53.147453 C23.950106,53.15285 23.97231,53.156143 23.994276,53.16049 L23.994276,53.16049" /></defs><use xlink:href="#DRAW_7602" fill="none" stroke="#248B00" stroke-width="0.04mm" /><text style="fill:#248B00; font-size:0.5mm; letter-spacing:2;"><textPath xlink:href="#DRAW_7602">||</textPath></text><path fill="none" stroke="#248B00" stroke-width="0.06mm" d="M22.484234,51.63436 C22.44056,51.71181 22.39921,51.79062 22.353203,51.86671 C22.296215,51.96096 22.099197,51.9584 22.027214,51.975716 C21.93351,51.998257 21.848219,52.057297 21.796839,52.138634 C21.746738,52.21795 21.754353,52.326317 21.830053,52.385704 C21.854088,52.40456 21.87709,52.426567 21.905567,52.437626 C25.129395,53.689766 22.840906,52.66414 23.87703,53.237957 C24.30786,53.476555 24.085327,53.311943 24.320301,53.49857 L24.320301,53.49857" /><path fill="none" stroke="#248B00" stroke-width="0.06mm" d="M24.26491,53.329338 C24.299706,53.34862 24.336227,53.36507 24.369295,53.387188 C24.391842,53.402267 24.415173,53.418255 24.430897,53.44036 C24.584894,53.656837 24.749516,53.86773 24.876966,54.100826 C24.987709,54.303364 25.073456,54.520203 25.141876,54.74067 C25.194542,54.910362 25.220936,55.088093 25.238243,55.264927 C25.276388,55.654648 25.275387,55.904636 25.209896,56.264843 C25.200695,56.315434 25.184904,56.364983 25.16528,56.41251 C25.03321,56.73237 24.868938,57.039406 24.75514,57.366207 C24.7016,57.519962 24.696033,57.686417 24.66597,57.846428 C24.61868,58.09811 24.579601,58.35151 24.523083,58.60128 C24.476368,58.807735 24.229298,59.16722 24.163792,59.267826 C24.013103,59.49926 23.85075,59.722885 23.694225,59.950413 L23.694225,59.950413" /><defs><path id="DRAW_7610"  d="M32.96021,64.97885 C32.759228,64.98384 32.739403,64.99729 32.57841,64.96979 C32.565678,64.96761 32.552902,64.964066 32.54148,64.95802 C32.46743,64.918884 32.39673,64.873604 32.322613,64.83458 C32.3101,64.827995 32.296135,64.82418 32.28224,64.82153 C32.168118,64.79979 32.045937,64.81703 31.933445,64.81725 C31.891775,64.81734 31.818533,64.7789 31.797642,64.77444 C31.686623,64.75074 31.673172,64.77001 31.568714,64.764015 C31.501379,64.760155 31.470095,64.72408 31.397655,64.706215 C31.321554,64.68744 31.242504,64.68316 31.165766,64.66719 C31.00458,64.63364 31.073687,64.62242 30.911364,64.61886 C30.817009,64.61679 30.808407,64.63458 30.712242,64.64613 C30.692604,64.6485 30.672684,64.64634 30.652908,64.646095 C30.626696,64.64578 30.600172,64.640335 30.574284,64.644455 C30.420088,64.66899 30.270164,64.70142 30.128407,64.76804 C30.06012,64.80013 29.946514,64.88273 29.93316,64.9691 C29.917019,65.07351 29.93664,65.03669 29.939058,65.180214 C29.939638,65.21467 29.932468,65.24885 29.931072,65.28328 C29.93079,65.29025 29.931515,65.29749 29.934036,65.304 C29.967934,65.39152 30.003517,65.44365 30.075865,65.5047 C30.089281,65.51602 30.104296,65.525604 30.12003,65.53339 C30.217098,65.581406 30.315973,65.586136 30.425707,65.60633 C30.435528,65.60814 30.44569,65.60786 30.455437,65.61004 C30.49009,65.617805 30.530355,65.64491 30.557795,65.656975 C30.60521,65.677826 30.792166,65.64495 30.793493,65.64485 C30.827925,65.64228 30.926771,65.66349 30.939201,65.66455 C30.968023,65.66701 30.997223,65.66692 31.025976,65.66377 C31.06672,65.65639 31.107462,65.649 31.148207,65.64162 C31.190535,65.62945 31.231398,65.6098 31.275188,65.605095 C32.201782,65.505424 31.250305,65.69705 32.29883,65.4211 C32.506004,65.36657 32.396145,65.448425 32.673904,65.28659 C32.74887,65.242905 32.81354,65.183525 32.881832,65.130005 C32.926754,65.094795 32.920166,65.05583 32.90212,65.00508 C32.896877,64.99036 32.887436,64.97748 32.880096,64.96367 L32.880096,64.96367" /></defs><use xlink:href="#DRAW_7610" fill="none" stroke="#26B8EE" stroke-width="0.04mm" /><text style="fill:#26B8EE; font-size:0.5mm; letter-spacing:2;"><textPath xlink:href="#DRAW_7610">||||||||||||||||||||||||||||</textPath></text><path fill="none" stroke="#248B00" stroke-width="0.06mm" d="M21.719357,41.69068 C21.71842,41.608418 21.710707,41.525955 21.716549,41.443893 C21.721981,41.36759 21.757132,41.271732 21.775146,41.195534 C21.779037,41.17908 21.780544,41.162155 21.783245,41.145462 C21.79546,41.102417 21.807674,41.059372 21.81989,41.016327 L21.81989,41.016327" /><path fill="none" stroke="#248B00" stroke-width="0.06mm" d="M21.78556,41.138935 C21.772308,40.922657 21.768877,40.705555 21.7458,40.4901 C21.72696,40.31419 21.58203,39.866814 21.538292,39.76205 C21.372986,39.36609 21.176891,38.983616 21.005005,38.59047 C20.990618,38.55756 20.985546,38.52113 20.980228,38.48561 C20.972702,38.435303 20.971127,38.384285 20.966574,38.33362 L20.966574,38.33362" /><path fill="none" stroke="#248B00" stroke-width="0.06mm" d="M20.992773,38.372623 L20.985632,38.38016" /><path fill="none" stroke="#248B00" stroke-width="0.06mm" d="M20.969288,38.498863 C20.969807,38.434 20.962505,38.376167 20.984344,38.314888 C21.081285,38.042847 21.39033,37.852615 21.597393,37.69667 C21.683857,37.631554 21.77078,37.566235 21.864254,37.511654 C22.089355,37.38021 22.322699,37.263416 22.551922,37.139297 C23.006977,36.86088 23.460552,36.58003 23.917088,36.304047 C23.96172,36.27707 24.011776,36.259415 24.05521,36.230545 C24.195053,36.13758 24.344421,35.964333 24.439018,35.849537 C24.472488,35.80892 24.499516,35.762955 24.523129,35.71592 C24.732605,35.298683 24.883293,34.84877 25.137924,34.45745 C25.469452,33.94796 25.902245,33.51186 26.271496,33.02901 C26.314804,32.97238 26.344767,32.90631 26.373898,32.841244 C26.503971,32.55069 26.534607,32.38349 26.620655,32.053234 C26.661993,31.894573 26.686382,31.730904 26.741014,31.576315 C27.031158,30.755331 26.996449,30.881716 27.424759,30.258049 L27.424759,30.258049" /><path fill="none" stroke="#248B00" stroke-width="0.06mm" d="M27.386595,30.357868 C27.455057,30.287205 27.524878,30.214096 27.621517,30.183983 C27.788496,30.131956 28.039173,30.18372 28.1507,30.327887 C28.470562,30.74136 28.786324,31.158134 29.09326,31.581291 C29.494843,32.134933 29.876568,32.702766 30.27602,33.25795 C30.29351,33.28226 30.316694,33.3034 30.34283,33.318027 C30.39228,33.345703 30.447502,33.36149 30.49984,33.383217 L30.49984,33.383217" /><path fill="none" stroke="#248B00" stroke-width="0.06mm" d="M30.41177,33.40377 C30.528687,33.50384 30.652111,33.55449 30.793404,33.600468 L30.793404,33.600468" /><path fill="none" stroke="#248B00" stroke-width="0.06mm" d="M24.65224,36.43188 C24.725079,36.83684 24.801594,37.214195 24.972673,37.602985 C24.988743,37.639503 25.529558,38.58862 25.643398,38.788673 L25.643398,38.788673" /><defs><path id="DRAW_7642"  d="M22.656494,43.133003 C22.925182,42.450336 22.926878,42.55895 23.032043,42.040817 C23.044113,41.981346 23.043728,41.91932 23.060558,41.86102 C23.0967,41.735806 23.136112,41.610714 23.190395,41.492233 C23.265411,41.328506 23.361656,41.175365 23.447285,41.016933 L23.447285,41.016933" /></defs><use xlink:href="#DRAW_7642" fill="none" stroke="#248B00" stroke-width="0.04mm" /><text style="fill:#248B00; font-size:0.5mm; letter-spacing:2;"><textPath xlink:href="#DRAW_7642">||||||||||</textPath></text><defs><path id="DRAW_7643"  d="M22.656496,43.099724 L22.697601,42.943123" /></defs><use xlink:href="#DRAW_7643" fill="none" stroke="#248B00" stroke-width="0.04mm" /><text style="fill:#248B00; font-size:0.5mm; letter-spacing:2;"><textPath xlink:href="#DRAW_7643">|</textPath></text><defs><path id="DRAW_7645"  d="M21.84124,40.993443 C21.987885,41.391422 22.087852,41.59823 22.165554,41.982788 C22.195288,42.129955 22.207047,42.28031 22.235104,42.427807 C22.251215,42.512497 22.28645,42.593246 22.297932,42.678688 C22.335678,42.959568 22.319263,43.031837 22.29927,43.28471 L22.29927,43.28471" /></defs><use xlink:href="#DRAW_7645" fill="none" stroke="#248B00" stroke-width="0.04mm" /><text style="fill:#248B00; font-size:0.5mm; letter-spacing:2;"><textPath xlink:href="#DRAW_7645">||||||||||</textPath></text><path fill="none" stroke="#248B00" stroke-width="0.06mm" d="M25.05912,43.888725 C25.540884,43.654243 25.52568,43.671356 26.09507,43.329372 C26.166763,43.286312 26.225658,43.222797 26.300259,43.18499 C26.546501,43.060184 26.797848,42.94458 27.054573,42.84307 C27.383018,42.713207 27.556686,42.701897 27.907915,42.691574 C27.961367,42.690006 28.015472,42.69423 28.067722,42.70561 C28.302362,42.756706 28.39413,42.792667 28.59516,42.903427 C28.699455,42.96089 28.789978,43.04644 28.902405,43.08569 C30.028194,43.47873 29.844585,43.449673 30.457203,43.510647 L30.457203,43.510647" /><path fill="none" stroke="#248B00" stroke-width="0.06mm" d="M30.177546,43.431232 C30.216497,43.430035 30.25558,43.43108 30.2944,43.427647 C30.323513,43.42507 30.369368,43.402256 30.386017,43.37755 C30.516754,43.18355 30.651443,42.991768 30.770027,42.79011 C30.973862,42.443485 30.970425,41.89252 30.936298,41.530876 C30.913616,41.29051 30.835106,41.058487 30.79731,40.82003 C30.770847,40.653065 30.766739,40.488823 30.864964,40.34644 C30.88375,40.319202 30.919966,40.28303 30.949524,40.267105 C31.01336,40.232708 31.111696,40.199196 31.181694,40.19355 C31.6708,40.15412 32.160816,40.126923 32.65053,40.096 C33.15564,40.06411 32.99979,40.10481 33.595547,39.972622 C33.674023,39.955208 33.74754,39.919636 33.825413,39.899708 C33.944122,39.86933 34.051643,39.890076 34.16871,39.912865 L34.16871,39.912865" /><path fill="none" stroke="#248B00" stroke-width="0.06mm" d="M24.960722,43.719536 C24.543102,43.328747 24.646288,43.451427 24.1507,42.682415 C24.042519,42.514545 23.944633,42.338596 23.868021,42.154167 C23.75082,41.87203 23.670052,41.5761 23.571066,41.287067 L23.571066,41.287067" /><path fill="none" stroke="#248B00" stroke-width="0.06mm" d="M26.044827,38.92365 C26.18494,39.012947 26.320862,39.10919 26.465168,39.191544 C26.511955,39.218246 26.563599,39.237064 26.61599,39.249603 C27.663834,39.500385 27.504831,39.456833 28.816858,39.369118 C29.527826,39.32159 29.471504,39.298088 30.087011,39.109955 C30.157139,39.08852 30.229519,39.073936 30.298075,39.047913 C30.569347,38.944927 31.035536,38.57542 31.144266,38.507824 C31.241549,38.447342 31.349115,38.405235 31.451542,38.353943 L31.451542,38.353943" /><defs><path id="DRAW_7651"  d="M31.676441,38.203445 C31.66136,38.311317 31.637033,38.383663 31.653513,38.48347 C31.672125,38.59621 31.767895,38.76191 31.811485,38.82367 C32.119736,39.260406 32.543873,39.474598 33.050278,39.60737 C33.40333,39.699936 33.94991,39.870476 34.353455,39.798378 C34.504257,39.771435 34.587795,39.705624 34.731483,39.629215 L34.731483,39.629215" /></defs><use xlink:href="#DRAW_7651" fill="none" stroke="#248B00" stroke-width="0.04mm" /><text style="fill:#248B00; font-size:0.5mm; letter-spacing:2;"><textPath xlink:href="#DRAW_7651">||||||||||||||||</textPath></text><defs><path id="DRAW_7653"  d="M34.62865,39.519936 C34.664284,39.51394 34.700813,39.511917 34.735542,39.501945 C34.98485,39.430355 35.20497,39.216927 35.37092,39.04014 C35.451267,38.954536 35.565197,38.75103 35.609493,38.63303 C35.63972,38.55251 35.664692,38.469765 35.683376,38.38581 C35.700737,38.307796 35.743275,38.113213 35.72525,37.99943 C35.715405,37.937263 35.70027,37.875973 35.684063,37.815155 C35.679447,37.797844 35.671825,37.781296 35.662964,37.76572 C35.577766,37.61597 35.553745,37.585762 35.41705,37.455444 C35.331158,37.37356 35.21676,37.281376 35.09278,37.2616 C34.254787,37.12795 34.228374,37.1419 33.22413,37.317455 C33.033245,37.350826 32.843822,37.403458 32.666344,37.48125 C32.42939,37.58511 32.211,37.727287 31.988379,37.8591 C31.875774,37.925774 31.788748,38.03256 31.706076,38.129837 C31.689255,38.14963 31.67038,38.19353 31.67596,38.220688 C31.682148,38.250805 31.693785,38.27954 31.702698,38.308968 L31.702698,38.308968" /></defs><use xlink:href="#DRAW_7653" fill="none" stroke="#248B00" stroke-width="0.04mm" /><text style="fill:#248B00; font-size:0.5mm; letter-spacing:2;"><textPath xlink:href="#DRAW_7653">||||||||||||||||||||||||||||</textPath></text><path fill="none" stroke="#000000" stroke-width="0.06mm" d="M33.80014,26.396235 C33.72834,26.417688 33.667603,26.426582 33.607273,26.4687 C33.559906,26.501768 33.500553,26.559217 33.47049,26.608315 C33.314827,26.862545 33.139065,27.106972 33.015713,27.378355 C32.804173,27.843763 32.62482,28.324394 32.46916,28.811348 C32.330074,29.246422 32.292763,30.202482 32.296505,30.55656 C32.29992,30.879333 32.311768,31.205288 32.375645,31.521698 C32.4877,32.07676 32.73573,32.7046 33.00455,33.215202 C33.30707,33.789803 33.65912,34.33834 33.943142,34.92231 C34.204094,35.458847 34.26998,35.979225 34.293953,36.571545 C34.300205,36.726048 34.265957,36.879543 34.25,37.033344 C34.248695,37.04594 34.253197,37.076763 34.24218,37.070522 C34.225536,37.06109 34.22738,37.035194 34.221268,37.017063 C34.21212,36.98991 34.204716,36.9622 34.196438,36.934765 L34.196438,36.934765" /><path fill="none" stroke="#FA356C" stroke-width="0.06mm" d="M31.740782,44.52195 C31.682892,44.483017 31.620375,44.450207 31.567108,44.40515 C31.496805,44.345684 31.434258,44.277454 31.371775,44.20982 C31.264656,44.093864 31.140047,43.98982 31.058538,43.85463 C30.326506,42.640503 30.183739,42.334267 29.838228,41.04043 C29.782902,40.833244 29.753708,40.619392 29.730003,40.40626 C29.597275,39.21291 29.562662,38.591507 29.700546,37.345535 C29.86243,35.88269 30.078321,35.52144 30.76241,34.10128 C30.847618,33.92439 30.952,33.754066 31.080057,33.60523 C31.406498,33.2258 31.9681,32.56196 32.490982,32.218964 C32.556942,32.175697 32.629612,32.14318 32.702007,32.111847 C32.78586,32.075554 32.876507,32.04579 32.968407,32.06182 C33.01568,32.070065 33.061226,32.090656 33.109196,32.091827 C33.25947,32.09549 33.409695,32.082397 33.55989,32.07625 C33.614338,32.07402 33.66869,32.06356 33.72309,32.066704 C33.810295,32.07174 33.897324,32.08332 33.98293,32.100685 C34.04241,32.112747 34.23225,32.189377 34.285522,32.207386 C34.43875,32.259193 34.425102,32.227985 34.58612,32.34095 C34.712482,32.429604 34.82745,32.533615 34.9519,32.62493 C35.409744,32.960876 35.46926,32.941387 35.803886,33.30037 C35.849792,33.349617 35.893574,33.402897 35.92318,33.463367 C36.160576,33.948254 36.50082,34.89163 36.60108,35.320045 C36.915627,36.66413 36.942974,37.89716 36.940292,39.289394 C36.939472,39.71389 36.84385,40.501015 36.67948,40.926014 C36.56585,41.219826 36.38374,41.482754 36.25278,41.769264 C35.897568,42.546387 36.25511,42.03996 35.746773,42.823627 C35.576958,43.08542 35.371643,43.267334 35.270107,43.556206 C35.226704,43.67968 35.19917,43.808243 35.16876,43.935543 C35.042492,44.464092 35.1405,44.22427 35.03452,44.465553 L35.03452,44.465553" /><defs><path id="DRAW_7662"  d="M31.67029,44.333374 C31.633335,44.510048 31.655895,44.60638 31.720846,44.784748 C31.740307,44.83819 31.764816,44.89005 31.793762,44.939003 C31.800968,44.951195 31.921612,45.15451 31.989513,45.196785 C32.231033,45.34715 32.415813,45.46209 32.68684,45.530487 C33.160824,45.650105 33.637653,45.758675 34.115932,45.859753 C34.17048,45.87128 34.227245,45.868526 34.282993,45.86781 C34.533207,45.86459 34.76788,45.687393 34.915306,45.498154 C34.985012,45.40868 35.05635,45.210094 35.079323,45.144398 C35.114655,45.043346 35.130333,44.905556 35.09965,44.801 C35.052902,44.64168 34.946484,44.539433 34.824104,44.428207 C34.659943,44.27901 34.38805,44.201797 34.181267,44.19285 C33.490955,44.16297 32.799316,44.171364 32.108425,44.180958 C31.98522,44.182667 31.75362,44.21355 31.656893,44.328102 C31.63296,44.356445 31.616018,44.39017 31.6037,44.424957 C31.559824,44.548885 31.59213,44.61549 31.643856,44.728153 L31.643856,44.728153" /></defs><use xlink:href="#DRAW_7662" fill="none" stroke="#FA356C" stroke-width="0.04mm" /><text style="fill:#FA356C; font-size:0.5mm; letter-spacing:2;"><textPath xlink:href="#DRAW_7662">||||||||||||||||||||||||||||||||||||</textPath></text><path fill="none" stroke="#FA356C" stroke-width="0.06mm" d="M31.798937,42.967514 C31.805714,42.884308 31.803902,42.799953 31.819263,42.717896 C31.847952,42.564648 31.891094,42.41443 31.930708,42.263638 C31.964249,42.13595 32.120075,42.26786 32.157623,42.31271 C32.178493,42.33764 32.35937,42.513256 32.33522,42.617325 C32.29957,42.77097 32.26072,42.923904 32.218784,43.07595 C32.21475,43.09058 32.19543,43.103294 32.18176,43.10639 C32.083633,43.128616 31.857147,42.950153 31.79189,42.904068 L31.79189,42.904068" /><path fill="none" stroke="#FA356C" stroke-width="0.06mm" d="M33.1471,41.8713 C33.17673,41.839695 33.394005,41.523594 33.458206,41.67823 C33.465366,41.69548 33.720158,42.141785 33.693386,42.348194 C33.66434,42.572147 33.429905,42.673363 33.264885,42.79002 C33.243893,42.804863 33.214306,42.793022 33.198826,42.777008 C33.11704,42.69238 33.04735,42.27511 33.028954,42.20826 C33.01788,42.168034 32.995747,42.131607 32.982265,42.092125 C32.95261,42.00527 32.981792,41.88896 33.04353,41.822582 C33.060303,41.804546 33.080853,41.790436 33.099514,41.77437 L33.099514,41.77437" /><path fill="none" stroke="#FA356C" stroke-width="0.06mm" d="M34.56927,41.638664 C34.607758,41.555996 34.64427,41.472385 34.684727,41.390663 C34.738003,41.28304 34.87623,41.45336 34.893517,41.50192 C34.941162,41.635746 34.98097,41.772285 35.020477,41.90874 C35.034756,41.958042 35.000046,42.02121 34.96794,42.05483 C34.865673,42.161922 34.761856,42.26757 34.65616,42.371277 C34.63891,42.388203 34.607243,42.390705 34.585648,42.383385 C34.512955,42.358753 34.460285,42.25763 34.43375,42.195675 C34.334793,41.964657 34.285217,41.910652 34.418022,41.71048 C34.48551,41.60876 34.461647,41.62415 34.548126,41.619278 L34.548126,41.619278" /><path fill="none" stroke="#FA356C" stroke-width="0.06mm" d="M33.48017,43.72887 C33.514175,43.598568 33.518986,43.533215 33.580223,43.425327 C33.615875,43.362514 33.65551,43.30199 33.695786,43.24203 C33.70384,43.23004 33.72298,43.217987 33.736786,43.213993 C33.798717,43.196083 33.87198,43.26817 33.90639,43.29906 C33.969013,43.35527 34.036686,43.43128 34.01847,43.522526 C34.00928,43.56855 33.97896,43.638443 33.955467,43.670395 C33.89373,43.754364 33.78898,43.96027 33.64209,43.907986 C33.584213,43.887383 33.546925,43.85692 33.507458,43.810863 C33.37726,43.65892 33.397087,43.72658 33.377956,43.621365 L33.377956,43.621365" /><path fill="none" stroke="#FA356C" stroke-width="0.06mm" d="M34.69616,40.508965 C34.722332,40.441467 34.81969,40.24036 34.92667,40.268143 C34.98398,40.283024 35.035046,40.377563 35.051624,40.409443 C35.097237,40.49713 35.134075,40.589172 35.171516,40.68065 C35.18167,40.705463 35.185844,40.749363 35.18419,40.77605 C35.1739,40.94216 34.992455,41.011303 34.87114,41.082294 C34.85994,41.08885 34.834675,41.089264 34.82237,41.08685 C34.765026,41.075584 34.71683,40.993126 34.696777,40.952682 C34.645264,40.848778 34.53802,40.684162 34.589153,40.5494 C34.592007,40.541874 34.597862,40.53569 34.603626,40.53007 C34.639484,40.49511 34.677063,40.461952 34.713783,40.427895 L34.713783,40.427895" /><path fill="none" stroke="#FA356C" stroke-width="0.06mm" d="M34.909397,46.86771 C34.96219,46.787914 35.019314,46.71082 35.06778,46.628323 C35.20847,46.38885 35.332905,46.139965 35.476585,45.90228 C35.48115,45.894726 35.49237,45.912582 35.495445,45.920853 C35.50127,45.936497 35.502342,45.95381 35.501976,45.9705 C35.47358,47.26821 35.319904,46.833702 35.489193,47.28716 L35.489193,47.28716" /><path fill="none" stroke="#FA356C" stroke-width="0.06mm" d="M34.579845,47.64669 C35.904335,47.48893 35.40102,47.474056 36.08485,47.51627 L36.08485,47.51627" /><path fill="none" stroke="#FA356C" stroke-width="0.06mm" d="M36.90432,46.70733 C36.96772,47.288185 36.907825,47.076233 36.99948,47.36118 L36.99948,47.36118" /><path fill="none" stroke="#FA356C" stroke-width="0.06mm" d="M36.830303,46.828938 C36.899776,46.794823 36.934414,46.767628 37.004253,46.757347 C37.181477,46.731262 37.369503,46.82763 37.408363,47.010784 C37.432003,47.122192 37.350136,47.239742 37.262024,47.299767 C37.222916,47.32641 37.185802,47.339474 37.13968,47.351814 C37.131622,47.35397 37.12303,47.35441 37.11472,47.353695 C37.077343,47.35047 37.040245,47.344585 37.003006,47.34003 L37.003006,47.34003" /><path fill="none" stroke="#FA356C" stroke-width="0.06mm" d="M37.59514,46.733765 C37.564342,46.8401 37.53355,46.946438 37.502754,47.052773 C37.496227,47.09329 37.49057,47.21469 37.483177,47.17432 C37.46844,47.093826 37.476963,47.010612 37.480064,46.928833 C37.480453,46.918564 37.48521,46.907124 37.493538,46.901093 C37.51955,46.882256 37.5887,46.96957 37.65742,46.956017 C37.711155,46.94542 37.760532,46.912376 37.79803,46.873283 C37.811337,46.859417 37.821693,46.84299 37.833435,46.827778 C37.8381,46.82173 37.84159,46.814625 37.84725,46.8095 C37.881523,46.778484 37.917675,46.74961 37.952885,46.719666 L37.952885,46.719666" /><path fill="none" stroke="#FA356C" stroke-width="0.06mm" d="M38.13264,46.888855 C38.08661,46.926765 38.026493,46.96174 38.031082,47.028244 C38.04405,47.216175 38.31686,47.285595 38.411102,47.097748 C38.438972,47.042194 38.457394,46.972336 38.438576,46.91083 C38.41727,46.84121 38.348614,46.793526 38.275543,46.806187 C38.2568,46.809433 38.21517,46.817574 38.197254,46.83496 C38.13726,46.89318 38.080162,46.95431 38.021614,47.01399 L38.021614,47.01399" /><use xlink:href="#spring" width="3.6" height="3.6" x="-1.8" y="-1.8" transform="translate(25.961288 55.695583) rotate(357)"/>
<use xlink:href="#rain" width="3.6" height="3.6" x="-1.8" y="-1.8" transform="translate(27.485577 36.44918) rotate(0)"/>
<use xlink:href="#rain" width="3.6" height="3.6" x="-1.8" y="-1.8" transform="translate(28.069845 51.297947) rotate(0)"/>
<use xlink:href="#stalactite" width="3.6" height="3.6" x="-1.8" y="-1.8" transform="translate(33.02726 32.791405) rotate(0)"/>
</g>
<g>
<line fill="none" stroke="#00aeef" stroke-width="0.05mm" stroke-dasharray="0.4,0.2" opacity="0.08" x1="35.00" y1="44.00" x2="34.04" y2="43.59" />
<line fill="none" stroke="#5674b9" stroke-width="0.05mm" stroke-dasharray="0.4,0.2" opacity="0.07" x1="35.00" y1="44.00" x2="34.03" y2="43.86" />
<line fill="none" stroke="#00aeef" stroke-width="0.05mm" stroke-dasharray="0.4,0.2" opacity="0.95" x1="35.00" y1="44.00" x2="36.98" y2="39.37" />
<line fill="none" stroke="#00aeef" stroke-width="0.05mm" stroke-dasharray="0.4,0.2" opacity="0.99" x1="35.00" y1="44.00" x2="36.33" y2="34.20" />
<line fill="none" stroke="#00aeef" stroke-width="0.05mm" stroke-dasharray="0.4,0.2" opacity="0.93" x1="35.00" y1="44.00" x2="34.57" y2="32.04" />
<line fill="none" stroke="#00aeef" stroke-width="0.05mm" stroke-dasharray="0.4,0.2" opacity="0.96" x1="35.00" y1="44.00" x2="31.04" y2="33.95" />
<line fill="none" stroke="#5674b9" stroke-width="0.05mm" stroke-dasharray="0.4,0.2" opacity="1.00" x1="35.00" y1="44.00" x2="29.66" y2="38.98" />
<line fill="none" stroke="#5674b9" stroke-width="0.05mm" stroke-dasharray="0.4,0.2" opacity="0.90" x1="35.00" y1="44.00" x2="32.03" y2="41.25" />
<line fill="none" stroke="#5674b9" stroke-width="0.05mm" stroke-dasharray="0.4,0.2" opacity="0.83" x1="35.00" y1="44.00" x2="32.14" y2="44.75" />
<line fill="none" stroke="#00aeef" stroke-width="0.05mm" stroke-dasharray="0.4,0.2" opacity="0.92" x1="35.00" y1="44.00" x2="31.82" y2="45.10" />
<line fill="none" stroke="#5674b9" stroke-width="0.05mm" stroke-dasharray="0.4,0.2" opacity="0.96" x1="35.00" y1="44.00" x2="34.28" y2="45.73" />
<line fill="none" stroke="#5674b9" stroke-width="0.05mm" stroke-dasharray="0.4,0.2" opacity="0.40" x1="35.00" y1="44.00" x2="34.28" y2="43.26" />
<line fill="none" stroke="#00aeef" stroke-width="0.05mm" stroke-dasharray="0.4,0.2" opacity="0.38" x1="35.00" y1="44.00" x2="35.44" y2="37.64" />
<line fill="none" stroke="#00aeef" stroke-width="0.05mm" stroke-dasharray="0.4,0.2" opacity="0.38" x1="35.00" y1="44.00" x2="35.45" y2="37.74" />
<line fill="none" stroke="#00aeef" stroke-width="0.05mm" stroke-dasharray="0.4,0.2" opacity="0.38" x1="35.00" y1="44.00" x2="35.48" y2="37.72" />
<line fill="none" stroke="#111111" stroke-width="0.05mm" x1="35.00" y1="44.00" x2="35.40" y2="37.76" />
<line fill="none" stroke="#00aeef" stroke-width="0.05mm" stroke-dasharray="0.4,0.2" opacity="0.08" x1="35.40" y1="37.76" x2="35.43" y2="38.01" />
<line fill="none" stroke="#5674b9" stroke-width="0.05mm" stroke-dasharray="0.4,0.2" opacity="0.96" x1="35.40" y1="37.76" x2="35.65" y2="38.53" />
<line fill="none" stroke="#00aeef" stroke-width="0.05mm" stroke-dasharray="0.4,0.2" opacity="0.73" x1="35.40" y1="37.76" x2="38.69" y2="35.57" />
<line fill="none" stroke="#00aeef" stroke-width="0.05mm" stroke-dasharray="0.4,0.2" opacity="0.74" x1="35.40" y1="37.76" x2="38.48" y2="33.23" />
<line fill="none" stroke="#00aeef" stroke-width="0.05mm" stroke-dasharray="0.4,0.2" opacity="0.80" x1="35.40" y1="37.76" x2="37.55" y2="29.59" />
<line fill="none" stroke="#00aeef" stroke-width="0.05mm" stroke-dasharray="0.4,0.2" opacity="0.71" x1="35.40" y1="37.76" x2="33.46" y2="26.90" />
<line fill="none" stroke="#00aeef" stroke-width="0.05mm" stroke-dasharray="0.4,0.2" opacity="0.63" x1="35.40" y1="37.76" x2="32.26" y2="31.52" />
<line fill="none" stroke="#00aeef" stroke-width="0.05mm" stroke-dasharray="0.4,0.2" opacity="0.55" x1="35.40" y1="37.76" x2="34.00" y2="34.86" />
<line fill="none" stroke="#00aeef" stroke-width="0.05mm" stroke-dasharray="0.4,0.2" opacity="0.75" x1="35.40" y1="37.76" x2="36.15" y2="33.55" />
<line fill="none" stroke="#00aeef" stroke-width="0.05mm" stroke-dasharray="0.4,0.2" opacity="0.77" x1="35.40" y1="37.76" x2="35.89" y2="31.43" />
<line fill="none" stroke="#00aeef" stroke-width="0.05mm" stroke-dasharray="0.4,0.2" opacity="0.78" x1="35.40" y1="37.76" x2="35.06" y2="32.28" />
<line fill="none" stroke="#111111" stroke-width="0.05mm" x1="35.40" y1="37.76" x2="35.23" y2="27.23" />
<line fill="none" stroke="#00aeef" stroke-width="0.05mm" stroke-dasharray="0.4,0.2" opacity="0.23" x1="35.23" y1="27.23" x2="35.23" y2="26.98" />
<line fill="none" stroke="#00aeef" stroke-width="0.05mm" stroke-dasharray="0.4,0.2" opacity="0.23" x1="35.23" y1="27.23" x2="35.23" y2="26.98" />
<line fill="none" stroke="#00aeef" stroke-width="0.05mm" stroke-dasharray="0.4,0.2" opacity="0.14" x1="35.23" y1="27.23" x2="35.20" y2="27.57" />
<line fill="none" stroke="#5674b9" stroke-width="0.05mm" stroke-dasharray="0.4,0.2" opacity="0.78" x1="35.23" y1="27.23" x2="31.21" y2="28.17" />
<line fill="none" stroke="#5674b9" stroke-width="0.05mm" stroke-dasharray="0.4,0.2" opacity="0.79" x1="35.23" y1="27.23" x2="35.15" y2="27.69" />
<line fill="none" stroke="#5674b9" stroke-width="0.05mm" stroke-dasharray="0.4,0.2" opacity="0.80" x1="35.23" y1="27.23" x2="31.23" y2="28.33" />
<line fill="none" stroke="#5674b9" stroke-width="0.05mm" stroke-dasharray="0.4,0.2" opacity="0.74" x1="35.23" y1="27.23" x2="34.85" y2="29.51" />
<line fill="none" stroke="#00aeef" stroke-width="0.05mm" stroke-dasharray="0.4,0.2" opacity="0.90" x1="35.23" y1="27.23" x2="33.61" y2="26.47" />
<line fill="none" stroke="#111111" stroke-width="0.05mm" x1="35.23" y1="27.23" x2="30.28" y2="26.54" />
<line fill="none" stroke="#00aeef" stroke-width="0.05mm" stroke-dasharray="0.4,0.2" opacity="0.87" x1="30.28" y1="26.54" x2="33.01" y2="26.52" />
<line fill="none" stroke="#00aeef" stroke-width="0.05mm" stroke-dasharray="0.4,0.2" opacity="0.81" x1="30.28" y1="26.54" x2="30.08" y2="23.16" />
<line fill="none" stroke="#00aeef" stroke-width="0.05mm" stroke-dasharray="0.4,0.2" opacity="0.85" x1="30.28" y1="26.54" x2="28.92" y2="22.99" />
<line fill="none" stroke="#00aeef" stroke-width="0.05mm" stroke-dasharray="0.4,0.2" opacity="0.90" x1="30.28" y1="26.54" x2="24.48" y2="26.27" />
<line fill="none" stroke="#00aeef" stroke-width="0.05mm" stroke-dasharray="0.4,0.2" opacity="0.92" x1="30.28" y1="26.54" x2="25.40" y2="28.59" />
<line fill="none" stroke="#00aeef" stroke-width="0.05mm" stroke-dasharray="0.4,0.2" opacity="0.96" x1="30.28" y1="26.54" x2="28.20" y2="29.12" />
<line fill="none" stroke="#00aeef" stroke-width="0.05mm" stroke-dasharray="0.4,0.2" opacity="0.92" x1="30.28" y1="26.54" x2="33.59" y2="30.07" />
<line fill="none" stroke="#5674b9" stroke-width="0.05mm" stroke-dasharray="0.4,0.2" opacity="0.98" x1="30.28" y1="26.54" x2="34.86" y2="28.97" />
<line fill="none" stroke="#111111" stroke-width="0.05mm" x1="30.28" y1="26.54" x2="29.18" y2="22.44" />
<line fill="none" stroke="#5674b9" stroke-width="0.05mm" stroke-dasharray="0.4,0.2" opacity="0.96" x1="29.18" y1="22.44" x2="31.19" y2="29.88" />
<line fill="none" stroke="#5674b9" stroke-width="0.05mm" stroke-dasharray="0.4,0.2" opacity="0.95" x1="29.18" y1="22.44" x2="30.07" y2="32.89" />
<line fill="none" stroke="#5674b9" stroke-width="0.05mm" stroke-dasharray="0.4,0.2" opacity="0.93" x1="29.18" y1="22.44" x2="27.68" y2="32.11" />
<line fill="none" stroke="#5674b9" stroke-width="0.05mm" stroke-dasharray="0.4,0.2" opacity="0.92" x1="29.18" y1="22.44" x2="24.87" y2="33.46" />
<line fill="none" stroke="#5674b9" stroke-width="0.05mm" stroke-dasharray="0.4,0.2" opacity="0.91" x1="29.18" y1="22.44" x2="21.11" y2="29.61" />
<line fill="none" stroke="#5674b9" stroke-width="0.05mm" stroke-dasharray="0.4,0.2" opacity="0.91" x1="29.18" y1="22.44" x2="28.52" y2="22.82" />
<line fill="none" stroke="#5674b9" stroke-width="0.05mm" stroke-dasharray="0.4,0.2" opacity="0.93" x1="29.18" y1="22.44" x2="26.53" y2="21.92" />
<line fill="none" stroke="#5674b9" stroke-width="0.05mm" stroke-dasharray="0.4,0.2" opacity="0.92" x1="29.18" y1="22.44" x2="27.24" y2="19.98" />
<line fill="none" stroke="#00aeef" stroke-width="0.05mm" stroke-dasharray="0.4,0.2" opacity="0.09" x1="29.18" y1="22.44" x2="26.09" y2="22.78" />
<line fill="none" stroke="#111111" stroke-width="0.05mm" x1="29.18" y1="22.44" x2="26.44" y2="22.58" />
<line fill="none" stroke="#111111" stroke-width="0.05mm" x1="26.44" y1="22.58" x2="24.10" y2="25.96" />
<line fill="none" stroke="#5674b9" stroke-width="0.05mm" stroke-dasharray="0.4,0.2" opacity="0.99" x1="24.10" y1="25.96" x2="20.79" y2="28.23" />
<line fill="none" stroke="#5674b9" stroke-width="0.05mm" stroke-dasharray="0.4,0.2" opacity="0.98" x1="24.10" y1="25.96" x2="20.90" y2="32.11" />
<line fill="none" stroke="#5674b9" stroke-width="0.05mm" stroke-dasharray="0.4,0.2" opacity="0.95" x1="24.10" y1="25.96" x2="24.00" y2="26.70" />
<line fill="none" stroke="#5674b9" stroke-width="0.05mm" stroke-dasharray="0.4,0.2" opacity="0.96" x1="24.10" y1="25.96" x2="26.13" y2="32.77" />
<line fill="none" stroke="#5674b9" stroke-width="0.05mm" stroke-dasharray="0.4,0.2" opacity="0.92" x1="24.10" y1="25.96" x2="28.43" y2="29.32" />
<line fill="none" stroke="#5674b9" stroke-width="0.05mm" stroke-dasharray="0.4,0.2" opacity="0.98" x1="24.10" y1="25.96" x2="27.69" y2="26.42" />
<line fill="none" stroke="#5674b9" stroke-width="0.05mm" stroke-dasharray="0.4,0.2" opacity="0.99" x1="24.10" y1="25.96" x2="26.39" y2="25.05" />
<line fill="none" stroke="#00aeef" stroke-width="0.05mm" stroke-dasharray="0.4,0.2" opacity="0.19" x1="24.10" y1="25.96" x2="22.62" y2="30.55" />
<line fill="none" stroke="#00aeef" stroke-width="0.05mm" stroke-dasharray="0.4,0.2" opacity="0.19" x1="24.10" y1="25.96" x2="22.51" y2="30.85" />
<line fill="none" stroke="#00aeef" stroke-width="0.05mm" stroke-dasharray="0.4,0.2" opacity="0.19" x1="24.10" y1="25.96" x2="22.64" y2="30.57" />
<line fill="none" stroke="#00aeef" stroke-width="0.05mm" stroke-dasharray="0.4,0.2" opacity="0.19" x1="24.10" y1="25.96" x2="22.49" y2="30.80" />
<line fill="none" stroke="#00aeef" stroke-width="0.05mm" stroke-dasharray="0.4,0.2" opacity="0.19" x1="24.10" y1="25.96" x2="22.50" y2="30.81" />
<line fill="none" stroke="#00aeef" stroke-width="0.05mm" stroke-dasharray="0.4,0.2" opacity="0.19" x1="24.10" y1="25.96" x2="22.63" y2="30.67" />
<line fill="none" stroke="#00aeef" stroke-width="0.05mm" stroke-dasharray="0.4,0.2" opacity="0.19" x1="24.10" y1="25.96" x2="22.44" y2="31.10" />
<line fill="none" stroke="#00aeef" stroke-width="0.05mm" stroke-dasharray="0.4,0.2" opacity="0.19" x1="24.10" y1="25.96" x2="22.53" y2="30.79" />
<line fill="none" stroke="#00aeef" stroke-width="0.05mm" stroke-dasharray="0.4,0.2" opacity="0.19" x1="24.10" y1="25.96" x2="22.38" y2="31.18" />
<line fill="none" stroke="#111111" stroke-width="0.05mm" x1="24.10" y1="25.96" x2="22.51" y2="30.76" />
<line fill="none" stroke="#00aeef" stroke-width="0.05mm" stroke-dasharray="0.4,0.2" opacity="0.90" x1="22.51" y1="30.76" x2="23.46" y2="30.83" />
<line fill="none" stroke="#5674b9" stroke-width="0.05mm" stroke-dasharray="0.4,0.2" opacity="0.95" x1="22.51" y1="30.76" x2="24.34" y2="36.18" />
<line fill="none" stroke="#5674b9" stroke-width="0.05mm" stroke-dasharray="0.4,0.2" opacity="0.86" x1="22.51" y1="30.76" x2="23.15" y2="38.79" />
<line fill="none" stroke="#5674b9" stroke-width="0.05mm" stroke-dasharray="0.4,0.2" opacity="0.83" x1="22.51" y1="30.76" x2="21.57" y2="38.14" />
<line fill="none" stroke="#5674b9" stroke-width="0.05mm" stroke-dasharray="0.4,0.2" opacity="0.91" x1="22.51" y1="30.76" x2="20.63" y2="33.71" />
<line fill="none" stroke="#00aeef" stroke-width="0.05mm" stroke-dasharray="0.4,0.2" opacity="0.89" x1="22.51" y1="30.76" x2="20.61" y2="32.67" />
<line fill="none" stroke="#00aeef" stroke-width="0.05mm" stroke-dasharray="0.4,0.2" opacity="0.96" x1="22.51" y1="30.76" x2="21.65" y2="30.55" />
<line fill="none" stroke="#00aeef" stroke-width="0.05mm" stroke-dasharray="0.4,0.2" opacity="0.92" x1="22.51" y1="30.76" x2="22.58" y2="29.84" />
<line fill="none" stroke="#00aeef" stroke-width="0.05mm" stroke-dasharray="0.4,0.2" opacity="0.77" x1="22.51" y1="30.76" x2="23.50" y2="26.76" />
<line fill="none" stroke="#00aeef" stroke-width="0.05mm" stroke-dasharray="0.4,0.2" opacity="0.79" x1="22.51" y1="30.76" x2="24.75" y2="28.38" />
<line fill="none" stroke="#00aeef" stroke-width="0.05mm" stroke-dasharray="0.4,0.2" opacity="0.81" x1="22.51" y1="30.76" x2="23.26" y2="30.80" />
<line fill="none" stroke="#111111" stroke-width="0.05mm" x1="22.51" y1="30.76" x2="22.17" y2="33.05" />
<line fill="none" stroke="#5674b9" stroke-width="0.05mm" stroke-dasharray="0.4,0.2" opacity="0.94" x1="22.17" y1="33.05" x2="21.61" y2="31.18" />
<line fill="none" stroke="#5674b9" stroke-width="0.05mm" stroke-dasharray="0.4,0.2" opacity="0.88" x1="22.17" y1="33.05" x2="22.33" y2="27.32" />
<line fill="none" stroke="#5674b9" stroke-width="0.05mm" stroke-dasharray="0.4,0.2" opacity="0.85" x1="22.17" y1="33.05" x2="23.00" y2="27.79" />
<line fill="none" stroke="#00aeef" stroke-width="0.05mm" stroke-dasharray="0.4,0.2" opacity="0.89" x1="22.17" y1="33.05" x2="22.66" y2="32.90" />
<line fill="none" stroke="#00aeef" stroke-width="0.05mm" stroke-dasharray="0.4,0.2" opacity="0.96" x1="22.17" y1="33.05" x2="21.79" y2="33.93" />
<line fill="none" stroke="#5674b9" stroke-width="0.05mm" stroke-dasharray="0.4,0.2" opacity="0.97" x1="22.17" y1="33.05" x2="21.79" y2="38.27" />
<line fill="none" stroke="#5674b9" stroke-width="0.05mm" stroke-dasharray="0.4,0.2" opacity="0.87" x1="22.17" y1="33.05" x2="22.18" y2="42.29" />
<line fill="none" stroke="#5674b9" stroke-width="0.05mm" stroke-dasharray="0.4,0.2" opacity="0.93" x1="22.17" y1="33.05" x2="23.84" y2="42.56" />
<line fill="none" stroke="#5674b9" stroke-width="0.05mm" stroke-dasharray="0.4,0.2" opacity="0.89" x1="22.17" y1="33.05" x2="24.03" y2="38.91" />
<line fill="none" stroke="#5674b9" stroke-width="0.05mm" stroke-dasharray="0.4,0.2" opacity="0.99" x1="22.17" y1="33.05" x2="21.71" y2="37.25" />
<line fill="none" stroke="#5674b9" stroke-width="0.05mm" stroke-dasharray="0.4,0.2" opacity="0.95" x1="22.17" y1="33.05" x2="24.57" y2="38.29" />
<line fill="none" stroke="#5674b9" stroke-width="0.05mm" stroke-dasharray="0.4,0.2" opacity="0.96" x1="22.17" y1="33.05" x2="22.95" y2="34.06" />
<line fill="none" stroke="#00aeef" stroke-width="0.05mm" stroke-dasharray="0.4,0.2" opacity="0.29" x1="22.17" y1="33.05" x2="22.03" y2="31.81" />
<line fill="none" stroke="#00aeef" stroke-width="0.05mm" stroke-dasharray="0.4,0.2" opacity="0.11" x1="22.17" y1="33.05" x2="21.71" y2="34.13" />
<line fill="none" stroke="#00aeef" stroke-width="0.05mm" stroke-dasharray="0.4,0.2" opacity="0.19" x1="22.17" y1="33.05" x2="22.44" y2="35.34" />
<line fill="none" stroke="#5674b9" stroke-width="0.05mm" stroke-dasharray="0.4,0.2" opacity="0.91" x1="22.17" y1="33.05" x2="23.48" y2="42.96" />
<line fill="none" stroke="#5674b9" stroke-width="0.05mm" stroke-dasharray="0.4,0.2" opacity="0.91" x1="22.17" y1="33.05" x2="23.51" y2="42.97" />
<line fill="none" stroke="#5674b9" stroke-width="0.05mm" stroke-dasharray="0.4,0.2" opacity="0.91" x1="22.17" y1="33.05" x2="22.39" y2="34.70" />
<line fill="none" stroke="#111111" stroke-width="0.05mm" x1="22.17" y1="33.05" x2="23.49" y2="42.99" />
<line fill="none" stroke="#00aeef" stroke-width="0.05mm" stroke-dasharray="0.4,0.2" opacity="0.09" x1="23.49" y1="42.99" x2="23.46" y2="41.08" />
<line fill="none" stroke="#5674b9" stroke-width="0.05mm" stroke-dasharray="0.4,0.2" opacity="0.13" x1="23.49" y1="42.99" x2="23.96" y2="42.60" />
<line fill="none" stroke="#5674b9" stroke-width="0.05mm" stroke-dasharray="0.4,0.2" opacity="0.89" x1="23.49" y1="42.99" x2="26.01" y2="44.40" />
<line fill="none" stroke="#5674b9" stroke-width="0.05mm" stroke-dasharray="0.4,0.2" opacity="0.90" x1="23.49" y1="42.99" x2="26.66" y2="42.42" />
<line fill="none" stroke="#5674b9" stroke-width="0.05mm" stroke-dasharray="0.4,0.2" opacity="0.91" x1="23.49" y1="42.99" x2="23.74" y2="40.97" />
<line fill="none" stroke="#5674b9" stroke-width="0.05mm" stroke-dasharray="0.4,0.2" opacity="0.99" x1="23.49" y1="42.99" x2="21.41" y2="41.96" />
<line fill="none" stroke="#5674b9" stroke-width="0.05mm" stroke-dasharray="0.4,0.2" opacity="0.87" x1="23.49" y1="42.99" x2="25.06" y2="41.99" />
<line fill="none" stroke="#111111" stroke-width="0.05mm" x1="23.49" y1="42.99" x2="26.43" y2="42.64" />
<line fill="none" stroke="#00aeef" stroke-width="0.05mm" stroke-dasharray="0.4,0.2" opacity="0.20" x1="26.43" y1="42.64" x2="29.29" y2="42.29" />
<line fill="none" stroke="#00aeef" stroke-width="0.05mm" stroke-dasharray="0.4,0.2" opacity="0.27" x1="26.43" y1="42.64" x2="24.21" y2="42.84" />
<line fill="none" stroke="#5674b9" stroke-width="0.05mm" stroke-dasharray="0.4,0.2" opacity="0.09" x1="26.43" y1="42.64" x2="24.93" y2="43.47" />
<line fill="none" stroke="#00aeef" stroke-width="0.05mm" stroke-dasharray="0.4,0.2" opacity="0.94" x1="26.43" y1="42.64" x2="24.56" y2="47.24" />
<line fill="none" stroke="#5674b9" stroke-width="0.05mm" stroke-dasharray="0.4,0.2" opacity="0.97" x1="26.43" y1="42.64" x2="26.20" y2="46.38" />
<line fill="none" stroke="#00aeef" stroke-width="0.05mm" stroke-dasharray="0.4,0.2" opacity="0.85" x1="26.43" y1="42.64" x2="27.32" y2="44.26" />
<line fill="none" stroke="#00aeef" stroke-width="0.05mm" stroke-dasharray="0.4,0.2" opacity="0.36" x1="26.43" y1="42.64" x2="25.90" y2="46.22" />
<line fill="none" stroke="#00aeef" stroke-width="0.05mm" stroke-dasharray="0.4,0.2" opacity="0.36" x1="26.43" y1="42.64" x2="25.92" y2="46.20" />
<line fill="none" stroke="#00aeef" stroke-width="0.05mm" stroke-dasharray="0.4,0.2" opacity="0.36" x1="26.43" y1="42.64" x2="25.93" y2="46.16" />
<line fill="none" stroke="#00aeef" stroke-width="0.05mm" stroke-dasharray="0.4,0.2" opacity="0.36" x1="26.43" y1="42.64" x2="25.90" y2="46.22" />
<line fill="none" stroke="#111111" stroke-width="0.05mm" x1="26.43" y1="42.64" x2="25.93" y2="46.19" />
<line fill="none" stroke="#00aeef" stroke-width="0.05mm" stroke-dasharray="0.4,0.2" opacity="0.25" x1="25.93" y1="46.19" x2="24.95" y2="46.59" />
<line fill="none" stroke="#5674b9" stroke-width="0.05mm" stroke-dasharray="0.4,0.2" opacity="0.96" x1="25.93" y1="46.19" x2="24.23" y2="43.23" />
<line fill="none" stroke="#5674b9" stroke-width="0.05mm" stroke-dasharray="0.4,0.2" opacity="0.98" x1="25.93" y1="46.19" x2="24.96" y2="45.97" />
<line fill="none" stroke="#00aeef" stroke-width="0.05mm" stroke-dasharray="0.4,0.2" opacity="0.94" x1="25.93" y1="46.19" x2="24.29" y2="48.43" />
<line fill="none" stroke="#00aeef" stroke-width="0.05mm" stroke-dasharray="0.4,0.2" opacity="0.96" x1="25.93" y1="46.19" x2="23.64" y2="49.82" />
<line fill="none" stroke="#00aeef" stroke-width="0.05mm" stroke-dasharray="0.4,0.2" opacity="0.97" x1="25.93" y1="46.19" x2="24.57" y2="49.41" />
<line fill="none" stroke="#111111" stroke-width="0.05mm" x1="25.93" y1="46.19" x2="23.08" y2="51.06" />
<line fill="none" stroke="#5674b9" stroke-width="0.05mm" stroke-dasharray="0.4,0.2" opacity="0.92" x1="23.08" y1="51.06" x2="24.17" y2="50.95" />
<line fill="none" stroke="#5674b9" stroke-width="0.05mm" stroke-dasharray="0.4,0.2" opacity="0.10" x1="23.08" y1="51.06" x2="22.84" y2="50.84" />
<line fill="none" stroke="#5674b9" stroke-width="0.05mm" stroke-dasharray="0.4,0.2" opacity="0.99" x1="23.08" y1="51.06" x2="24.14" y2="50.88" />
<line fill="none" stroke="#5674b9" stroke-width="0.05mm" stroke-dasharray="0.4,0.2" opacity="0.95" x1="23.08" y1="51.06" x2="25.46" y2="51.17" />
<line fill="none" stroke="#00aeef" stroke-width="0.05mm" stroke-dasharray="0.4,0.2" opacity="0.96" x1="23.08" y1="51.06" x2="30.35" y2="53.80" />
<line fill="none" stroke="#00aeef" stroke-width="0.05mm" stroke-dasharray="0.4,0.2" opacity="0.98" x1="23.08" y1="51.06" x2="28.39" y2="56.19" />
<line fill="none" stroke="#00aeef" stroke-width="0.05mm" stroke-dasharray="0.4,0.2" opacity="0.97" x1="23.08" y1="51.06" x2="24.66" y2="56.57" />
<line fill="none" stroke="#00aeef" stroke-width="0.05mm" stroke-dasharray="0.4,0.2" opacity="0.92" x1="23.08" y1="51.06" x2="22.76" y2="55.50" />
<line fill="none" stroke="#00aeef" stroke-width="0.05mm" stroke-dasharray="0.4,0.2" opacity="0.66" x1="23.08" y1="51.06" x2="27.15" y2="56.32" />
<line fill="none" stroke="#00aeef" stroke-width="0.05mm" stroke-dasharray="0.4,0.2" opacity="0.61" x1="23.08" y1="51.06" x2="23.17" y2="51.49" />
<line fill="none" stroke="#00aeef" stroke-width="0.05mm" stroke-dasharray="0.4,0.2" opacity="0.74" x1="23.08" y1="51.06" x2="26.81" y2="59.08" />
<line fill="none" stroke="#00aeef" stroke-width="0.05mm" stroke-dasharray="0.4,0.2" opacity="0.67" x1="23.08" y1="51.06" x2="30.70" y2="55.50" />
<line fill="none" stroke="#00aeef" stroke-width="0.05mm" stroke-dasharray="0.4,0.2" opacity="0.67" x1="23.08" y1="51.06" x2="32.03" y2="54.27" />
<line fill="none" stroke="#111111" stroke-width="0.05mm" x1="23.08" y1="51.06" x2="31.60" y2="55.23" />
<line fill="none" stroke="#00aeef" stroke-width="0.05mm" stroke-dasharray="0.4,0.2" opacity="0.96" x1="31.60" y1="55.23" x2="29.76" y2="55.28" />
<line fill="none" stroke="#00aeef" stroke-width="0.05mm" stroke-dasharray="0.4,0.2" opacity="0.93" x1="31.60" y1="55.23" x2="27.64" y2="54.80" />
<line fill="none" stroke="#00aeef" stroke-width="0.05mm" stroke-dasharray="0.4,0.2" opacity="0.99" x1="31.60" y1="55.23" x2="30.11" y2="54.35" />
<line fill="none" stroke="#5674b9" stroke-width="0.05mm" stroke-dasharray="0.4,0.2" opacity="0.96" x1="31.60" y1="55.23" x2="32.83" y2="54.71" />
<line fill="none" stroke="#00aeef" stroke-width="0.05mm" stroke-dasharray="0.4,0.2" opacity="0.83" x1="31.60" y1="55.23" x2="31.31" y2="54.39" />
<line fill="none" stroke="#111111" stroke-width="0.05mm" x1="31.60" y1="55.23" x2="29.84" y2="54.69" />
<line fill="none" stroke="#00aeef" stroke-width="0.05mm" stroke-dasharray="0.4,0.2" opacity="0.16" x1="29.84" y1="54.69" x2="28.09" y2="54.21" />
</g>
<g>
<circle cx="35.00" cy="44.00" r="0.1" fill="#111111" />
<circle cx="35.40" cy="37.76" r="0.1" fill="#111111" />
<circle cx="35.23" cy="27.23" r="0.1" fill="#111111" />
<circle cx="30.28" cy="26.54" r="0.1" fill="#111111" />
<circle cx="29.18" cy="22.44" r="0.1" fill="#111111" />
<circle cx="26.44" cy="22.58" r="0.1" fill="#111111" />
<circle cx="24.10" cy="25.96" r="0.1" fill="#111111" />
<circle cx="22.51" cy="30.76" r="0.1" fill="#111111" />
<circle cx="22.17" cy="33.05" r="0.1" fill="#111111" />
<circle cx="23.49" cy="42.99" r="0.1" fill="#111111" />
<circle cx="26.43" cy="42.64" r="0.1" fill="#111111" />
<circle cx="25.93" cy="46.19" r="0.1" fill="#111111" />
<circle cx="23.08" cy="51.06" r="0.1" fill="#111111" />
<circle cx="31.60" cy="55.23" r="0.1" fill="#111111" />
<circle cx="29.84" cy="54.69" r="0.1" fill="#111111" />
</g>
<g>
<text x="35.20" y="44.00" font-size=".2mm" fill="#000000">0</text>
<text x="35.60" y="37.76" font-size=".2mm" fill="#000000">1</text>
<text x="35.43" y="27.23" font-size=".2mm" fill="#000000">2</text>
<text x="30.48" y="26.54" font-size=".2mm" fill="#000000">3</text>
<text x="29.38" y="22.44" font-size=".2mm" fill="#000000">4</text>
<text x="26.64" y="22.58" font-size=".2mm" fill="#000000">5</text>
<text x="24.30" y="25.96" font-size=".2mm" fill="#000000">6</text>
<text x="22.71" y="30.76" font-size=".2mm" fill="#000000">7</text>
<text x="22.37" y="33.05" font-size=".2mm" fill="#000000">8</text>
<text x="23.69" y="42.99" font-size=".2mm" fill="#000000">9</text>
<text x="26.63" y="42.64" font-size=".2mm" fill="#000000">10</text>
<text x="26.13" y="46.19" font-size=".2mm" fill="#000000">11</text>
<text x="23.28" y="51.06" font-size=".2mm" fill="#000000">12</text>
<text x="31.80" y="55.23" font-size=".2mm" fill="#000000">13</text>
<text x="30.04" y="54.69" font-size=".2mm" fill="#000000">14</text>
</g>
<g>
</g>
</g>
</svg>