<?xml version="1.0" encoding="utf-8"?>
<!DOCTYPE svg PUBLIC "-//W3C//DTD SVG 1.1//EN" "http://www.w3.org/Graphics/SVG/1.1/DTD/svg11.dtd">
<svg version="1.1" id="Layer_1" xmlns="http://www.w3.org/2000/svg" xmlns:xlink="http://www.w3.org/1999/xlink" x="0px" y="0px" width="130mm" height="235mm" viewBox="0 0 130 235" enable-background="new 0 0 130 235" xml:space="preserve">
<symbol id="airflow" viewBox="-12 -12 24 24">
<path d="M-4.38,10.73l4.2-3.84V3.55L-4.07,7.13l-.31-.29L-.18,3V-6.89a3.37,3.37,0,0,0-1.68.53l1.68-4.15L0-11l.21.51h0v0l1.65,4.1A3.26,3.26,0,0,0,.24-6.89v14l-.08,0L-4.07,11Z"/>
<rect fill="none" x="-12" y="-12" width="24" height="24"/>
</symbol>
<symbol id="anastomosis" viewBox="-12 -12 24 24">
<path d="M2.23-4.78l.37.24L5.22-2.78l-.47.57L2.49-3.7l-4.61,8-.24.44-.37-.34L-5.22,2.3l.55-.52,2.1,1.82L2-4.39Z"/>
<rect fill="none" x="-12" y="-12" width="24" height="24"/>
</symbol>
<symbol id="bivouac" viewBox="-12 -12 24 24">
<path d="M.25-7.66l.24.58L.54-7l3.88.48-3.31.91L6,6H8.35v.48l-16.7.07V6.05h2.64L0-7.08Zm0,1.32L-5.13,6H-4l2.07-5L.2-4l2.09,5L4.37,6H5.44Z"/>
<rect fill="none" x="-12" y="-12" width="24" height="24"/>
</symbol>
<symbol id="bones" viewBox="-12 -12 24 24">
<path d="M2.44,4.27l-.16,0H2.13a.22.22,0,0,1-.11,0l-.1-.06a.39.39,0,0,1-.09-.11l-.08-.13a1.51,1.51,0,0,1-.06-.15l-.07-.17s0-.11-.08-.19-.06-.16-.08-.21a4.75,4.75,0,0,0-.38-.71c-.18-.29-.43-.64-.74-1A11.15,11.15,0,0,0-.7.32,6.73,6.73,0,0,0-2-.64a4.12,4.12,0,0,0-1.44-.52A1.64,1.64,0,0,1-5-2.19.72.72,0,0,1-5-2.44a1,1,0,0,1,0-.29A.52.52,0,0,1-4.87-3a.54.54,0,0,1,.35-.15L-4-3.22l.46,0a.54.54,0,0,0,.27-.06A.52.52,0,0,0-3-3.56a.74.74,0,0,0,.13-.31.54.54,0,0,1,.15-.26.54.54,0,0,1,.3-.15.83.83,0,0,1,.47,0,1.11,1.11,0,0,1,.35.4A7.46,7.46,0,0,1-1-2.76q.18.42.33.72a3.22,3.22,0,0,0,.39.57L.1-1a4.77,4.77,0,0,0,.58.43c.28.18.51.33.69.43l1,.56a1.84,1.84,0,0,0,.39.23A5.29,5.29,0,0,1,3.22.9l.43.26a3.7,3.7,0,0,1,.46.3l.36.29a2.28,2.28,0,0,1,.31.32A1,1,0,0,1,5,2.4c.2.48,0,.78-.47.91h0a8.48,8.48,0,0,0-1.12.09,1,1,0,0,0-.42.44A1,1,0,0,1,2.44,4.27Z"/>
<rect fill="none" x="-12" y="-12" width="24" height="24"/>
</symbol>
<symbol id="calcite" viewBox="-12 -12 24 24">
<path d="M2.36-2.22l.05.46.34,3.91L2,2.22,1.65-1.26-2.52-.06l-.23-.7L1.89-2.08Z"/>
<rect fill="none" x="-12" y="-12" width="24" height="24"/>
</symbol>
<symbol id="cauliflower" viewBox="-12 -12 24 24">
<path d="M5.58,3.22v-3A2.12,2.12,0,0,0,6.92-.43a1.78,1.78,0,0,0,.55-1.32,1.92,1.92,0,0,0-.65-1.42,2.19,2.19,0,0,0-1.53-.59,2.21,2.21,0,0,0-1.54.59,1.78,1.78,0,0,0-.64,1.42A1.86,1.86,0,0,0,3.65-.43,2.12,2.12,0,0,0,5,.23v3H.26v-3A2.17,2.17,0,0,0,1.61-.43a1.81,1.81,0,0,0,.54-1.32,1.91,1.91,0,0,0-.64-1.42A2.21,2.21,0,0,0,0-3.76a2.21,2.21,0,0,0-1.54.59,1.82,1.82,0,0,0-.64,1.42A1.83,1.83,0,0,0-1.66-.43,2.12,2.12,0,0,0-.32.23v3H-5v-3A2.12,2.12,0,0,0-3.71-.43a1.78,1.78,0,0,0,.55-1.32,1.92,1.92,0,0,0-.65-1.42,2.19,2.19,0,0,0-1.53-.59,2.21,2.21,0,0,0-1.54.59,1.83,1.83,0,0,0-.65,1.42A1.87,1.87,0,0,0-7-.43,2.12,2.12,0,0,0-5.64.23v3H-8v.54H8V3.22Z"/>
<rect fill="none" x="-12" y="-12" width="24" height="24"/>
</symbol>
<symbol id="clay" viewBox="-12 -12 24 24">
<path d="M1.85-1.33a3,3,0,0,1,1.67.48,3.23,3.23,0,0,1,1,1l.29.51-1,.43a3.81,3.81,0,0,0-.23-.4A3.74,3.74,0,0,0,2.93,0,1.77,1.77,0,0,0,1.85-.32a2.57,2.57,0,0,0-1.1.15A.86.86,0,0,0,.51.14,2.23,2.23,0,0,1,0,.88a2.55,2.55,0,0,1-1.45.43,3.16,3.16,0,0,1-2.75-1,4.28,4.28,0,0,1-.37-.57,3.91,3.91,0,0,1-.21-.47l0-.16,1-.22a1.87,1.87,0,0,0,.45.79A2.12,2.12,0,0,0-1.51.33,1.82,1.82,0,0,0-.69.14l.21-.36A1.53,1.53,0,0,1,.17-1,3.76,3.76,0,0,1,1.85-1.33Z"/>
<rect fill="none" x="-12" y="-12" width="24" height="24"/>
</symbol>
<symbol id="crystals" viewBox="-12 -12 24 24">
<path d="M-2.94-5.38,0-.72,2.94-5.38,3.62-5,.68-.36H6.56V.36H.68L3.62,5l-.68.36L0,.72-2.94,5.38-3.62,5-.68.36H-6.56V-.36H-.68L-3.62-5Z"/>
<rect fill="none" x="-12" y="-12" width="24" height="24"/>
</symbol>
<symbol id="curtain" viewBox="-12 -12 24 24">
<path d="M3.57-6.69l.52.53L.39-3V-.33L.1-.26a3.79,3.79,0,0,0-1,.41c-.58.3-.87.65-.87,1v.07A1.61,1.61,0,0,0-.84,2.48a3.69,3.69,0,0,0,.45.24L0,2.86l.13.05L.39,3V6.12H-.39V3.51a7.65,7.65,0,0,1-.9-.46A2.19,2.19,0,0,1-2.54,1.28V1.23A2,2,0,0,1-1.31-.48,5.32,5.32,0,0,1-.39-.86V-3l-3.7-3.14.52-.53L0-3.67Z"/>
<rect fill="none" x="-12" y="-12" width="24" height="24"/>
</symbol>
<symbol id="disk" viewBox="-12 -12 24 24">
<path d="M-.09-4.19a2.43,2.43,0,0,1,1.7.64A2,2,0,0,1,2.35-2,2.09,2.09,0,0,1,1.81-.55,2.44,2.44,0,0,1,.35.23l2.18,3.6-.68.33L0,1.14-1.48,4.19l-.71-.29L-.41.25A2.53,2.53,0,0,1-1.9-.47a2,2,0,0,1-.63-1.41,2,2,0,0,1,.67-1.61,2.46,2.46,0,0,1,1.72-.7ZM1.05-3.06.56-3.49l-.69,0A1.72,1.72,0,0,0-1.29-3a1.51,1.51,0,0,0-.45,1.08,1.36,1.36,0,0,0,.51,1A1.68,1.68,0,0,0-.07-.44v0l0,0A1.7,1.7,0,0,0,1.11-.92,1.36,1.36,0,0,0,1.56-2,1.47,1.47,0,0,0,1.05-3.06Z"/>
<rect fill="none" x="-12" y="-12" width="24" height="24"/>
</symbol>
<symbol id="entrance" viewBox="-12 -12 24 24">
<path d="M4.46,9H-4.46L0-9Z"/>
<rect fill="none" x="-12" y="-12" width="24" height="24"/>
</symbol>
<symbol id="flowstone" viewBox="-12 -12 24 24">
<rect x="-6" y="-0.21" width="12" height="0.42"/>
<rect fill="none" x="-12" y="-12" width="24" height="24"/>
</symbol>
<symbol id="flutes" viewBox="-12 -12 24 24">
<path d="M-7-1H7v.72H3.87A4.7,4.7,0,0,1,2.16,1.5,4.2,4.2,0,0,1,0,2.13,3.94,3.94,0,0,1-2.19,1.5,4.18,4.18,0,0,1-3.76-.27H-7Zm4.17.72A3.15,3.15,0,0,0-1.65,1,3.21,3.21,0,0,0,0,1.41,3.49,3.49,0,0,0,1.6,1,3.68,3.68,0,0,0,3-.27Z"/>
<rect fill="none" x="-12" y="-12" width="24" height="24"/>
</symbol>
<symbol id="gradient" viewBox="-12 -12 24 24">
<path d="M2.58-3.83,0-10-2.58-3.83A4.74,4.74,0,0,1-.17-4.5V10H.25V-4.5A6.65,6.65,0,0,1,2.58-3.83Z"/>
<rect fill="none" x="-12" y="-12" width="24" height="24"/>
</symbol>
<symbol id="guano" viewBox="-12 -12 24 24">
<path d="M-3.24-3a2.15,2.15,0,0,1,1.57.55A3.93,3.93,0,0,1-.59.24a4.32,4.32,0,0,1,2.75-2.3,2.68,2.68,0,0,1,2.23.36A2.36,2.36,0,0,1,5.5.19l-.79,0a1.72,1.72,0,0,0-.79-1.37,1.94,1.94,0,0,0-1.55-.24A3.53,3.53,0,0,0,.48,0,6.63,6.63,0,0,0-.69,3l-.79-.09a10.72,10.72,0,0,0,0-3.16A3.21,3.21,0,0,0-2.22-2,1.44,1.44,0,0,0-3.37-2.3,3.45,3.45,0,0,0-5-1.54l-.5-.55a4.29,4.29,0,0,1,2-.91A.9.9,0,0,1-3.24-3Z"/>
<rect fill="none" x="-12" y="-12" width="24" height="24"/>
</symbol>
<symbol id="helictites" viewBox="-12 -12 24 24">
<path d="M-4.59-7.92h.79v7.7l3.41,0V-7.92H.39V-.17L4.2-.12h.39v8H3.8V.6L.39.55V7.92H-.39V.55L-4.2.5l-.39,0v-8.4Z"/>
<rect fill="none" x="-12" y="-12" width="24" height="24"/>
</symbol>
<symbol id="human" viewBox="-12 -12 24 24">
<path d="M-3.59-3.29A5.13,5.13,0,0,1,0-4.66,5.13,5.13,0,0,1,3.59-3.29,4.3,4.3,0,0,1,5.09,0a4.3,4.3,0,0,1-1.5,3.29A5.13,5.13,0,0,1,0,4.66,5.13,5.13,0,0,1-3.59,3.29,4.3,4.3,0,0,1-5.09,0,4.3,4.3,0,0,1-3.59-3.29Zm.28.77A3.68,3.68,0,0,0-4.3,0a3.62,3.62,0,0,0,1,2.57L-.5.05ZM0-3.94A4.42,4.42,0,0,0-2.75-3L.16-.36H4.28A3.62,3.62,0,0,0,2.91-2.9,4.38,4.38,0,0,0,0-3.94ZM.16.46-2.7,3.07A4.42,4.42,0,0,0,0,3.94a4.37,4.37,0,0,0,2.87-1A3.78,3.78,0,0,0,4.28.46Z"/>
<rect fill="none" x="-12" y="-12" width="24" height="24"/>
</symbol>
<symbol id="karren" viewBox="-12 -12 24 24">
<path d="M1-5.84h0a1.37,1.37,0,0,1,1.06.68A3.33,3.33,0,0,1,2.5-3.79,25.79,25.79,0,0,1,2.36,0a18.61,18.61,0,0,0-.08,3.72,2.68,2.68,0,0,0,.41,1.2,1.13,1.13,0,0,0,.79.5A.92.92,0,0,0,4,4.94a4.43,4.43,0,0,0,.47-1.22c.16-.64.36-1.86.59-3.66a26.71,26.71,0,0,1,.64-3.69,4.62,4.62,0,0,1,.57-1.29,1.34,1.34,0,0,1,1-.59h0A1.28,1.28,0,0,1,8.37-5a2.17,2.17,0,0,1,.39,1.15A19.91,19.91,0,0,1,8.54-.53a21.51,21.51,0,0,0-.2,3.64A2.64,2.64,0,0,0,9.45,5.36,1.91,1.91,0,0,0,10.88,5a3.84,3.84,0,0,0,.7-1l.42.2-.1.18-.12.21-.11.18L11.52,5a.94.94,0,0,1-.14.16c-.06.07-.13.12-.19.18a2.5,2.5,0,0,1-1.85.41H9.29l0,0A3.06,3.06,0,0,1,7.87,3.13a22.11,22.11,0,0,1,.2-3.7,18.17,18.17,0,0,0,.22-3.28A1.85,1.85,0,0,0,8-4.79a.77.77,0,0,0-.67-.3.93.93,0,0,0-.64.42,4.51,4.51,0,0,0-.51,1.15A26.26,26.26,0,0,0,5.54.1c-.24,1.83-.45,3.07-.61,3.72a5.38,5.38,0,0,1-.51,1.34,1.33,1.33,0,0,1-.89.68H3.47A1.58,1.58,0,0,1,2.3,5.16a3.29,3.29,0,0,1-.49-1.4A20.27,20.27,0,0,1,1.89,0,23.45,23.45,0,0,0,2-3.75a2.94,2.94,0,0,0-.32-1.19A.93.93,0,0,0,1-5.42,1.1,1.1,0,0,0,.19-5,3.69,3.69,0,0,0-.43-3.76,20.78,20.78,0,0,0-1.07.07c-.2,2-.37,3.32-.49,3.86A4.48,4.48,0,0,1-2,5.26,1.06,1.06,0,0,1-3,5.81h0a1.9,1.9,0,0,1-1.29-.67,2.7,2.7,0,0,1-.58-1.31,14.92,14.92,0,0,1,0-3.6q0-.12.06-.54c0-.28,0-.47,0-.57s0-.28,0-.52,0-.42,0-.55,0-.28,0-.47,0-.36,0-.51,0-.29,0-.43A3.09,3.09,0,0,0-5-4.62a1.19,1.19,0,0,0-.67-.6,1.5,1.5,0,0,0-1.2.9A7,7,0,0,0-7.41-2.1c0,.39-.1,1-.14,1.76s-.11,1.47-.18,2.08A9.61,9.61,0,0,1-8,3.32h0l0,0A2.81,2.81,0,0,1-9.2,4.62a1.82,1.82,0,0,1-1.35.15A1.94,1.94,0,0,1-11.61,4,2.39,2.39,0,0,1-12,2.56l.47,0a1.92,1.92,0,0,0,.31,1.16,1.47,1.47,0,0,0,.81.62,1.3,1.3,0,0,0,1-.11A2.32,2.32,0,0,0-8.5,3.18a7.53,7.53,0,0,0,.29-1.5Q-8.1.8-8-.36c0-.78.1-1.37.16-1.78A7.23,7.23,0,0,1-7.28-4.5,1.93,1.93,0,0,1-5.65-5.66h.05l0,0a1.59,1.59,0,0,1,1,.84,3.47,3.47,0,0,1,.34,1.41,4.91,4.91,0,0,1,0,.57v.54c0,.15,0,.37,0,.66s0,.47,0,.58,0,.33-.06.68,0,.56-.06.63a14.78,14.78,0,0,0,0,3.49,2.58,2.58,0,0,0,.5,1.13,1.57,1.57,0,0,0,1,.5A.61.61,0,0,0-2.44,5,3.89,3.89,0,0,0-2,3.85C-1.9,3.31-1.74,2-1.53,0A20.65,20.65,0,0,1-.86-3.89,3.89,3.89,0,0,1-.18-5.26,1.58,1.58,0,0,1,1-5.84Z"/>
<rect fill="none" x="-12" y="-12" width="24" height="24"/>
</symbol>
<symbol id="moonmilk" viewBox="-12 -12 24 24">
<path d="M-4.78-3.06a3.39,3.39,0,0,1,1.5.34,2.48,2.48,0,0,1,1.1,1,3.74,3.74,0,0,1,1.62-.8,3.52,3.52,0,0,1,1.71,0,2.9,2.9,0,0,1,1.39.77A2.49,2.49,0,0,1,3.25-.37,4,4,0,0,1,5-.76a3.58,3.58,0,0,1,1.6.36A2.84,2.84,0,0,1,7.88.92a2.32,2.32,0,0,1,0,1.88.34.34,0,0,1-.37.26A.36.36,0,0,1,7.25,3a.32.32,0,0,1-.12-.25.21.21,0,0,1,0-.12,2,2,0,0,0,0-1.43,2,2,0,0,0-1-.9A2.81,2.81,0,0,0,4.68,0,2.78,2.78,0,0,0,3.12.56L2.46.25A1.7,1.7,0,0,0,2.15-1.1,2.15,2.15,0,0,0,1-1.81a2.85,2.85,0,0,0-1.58.06A3,3,0,0,0-2-.83l-.71-.12A1.74,1.74,0,0,0-3.55-2a2.36,2.36,0,0,0-1.39-.27,3.08,3.08,0,0,0-1.45.53A2.33,2.33,0,0,0-7.32-.56a.35.35,0,0,1-.37.24A.39.39,0,0,1-8-.42a.33.33,0,0,1-.1-.26v-.1A3,3,0,0,1-6.89-2.35,4,4,0,0,1-5-3Z"/>
<rect fill="none" x="-12" y="-12" width="24" height="24"/>
</symbol>
<symbol id="narrow" viewBox="-12 -12 24 24">
<path d="M-1.5,5V-5h0.64V5H-1.5z"/>
<path d="M0.86,5V-5H1.5V5H0.86z"/>
<rect fill="none" x="-12" y="-12" width="24" height="24"/>
</symbol>
<symbol id="paleoflow" viewBox="-12 -12 24 24">
<path d="M.38-12V.17A1.9,1.9,0,0,0,1,0,1.57,1.57,0,0,0,1.7-.72a1.86,1.86,0,0,0,.23-1c0-.09,0-.14.08-.16a.92.92,0,0,1,.24,0,.52.52,0,0,0,.25,0h.08A2.48,2.48,0,0,1,2,0,2.5,2.5,0,0,1,.38.77V7.21H2.09L0,12-1.8,7.23c.07,0,.59,0,1.53,0V.77A3,3,0,0,1-1.35.43a2.16,2.16,0,0,1-1-1,2.38,2.38,0,0,1-.24-1.33l.67,0a2,2,0,0,0,.15,1,1.73,1.73,0,0,0,.59.67A2.14,2.14,0,0,0-.27.16V-12Z"/>
<rect fill="none" x="-12" y="-12" width="24" height="24"/>
</symbol>
<symbol id="rain" viewBox="-12 -12 24 24">
<path d="M-4.14-6.34h0.71v4.69h-0.71V-6.34z"/>
<path d="M-0.35-6.34h0.71v4.69h-0.71V-6.34z"/>
<path d="M3.43-6.34h0.71v4.69H3.43V-6.34z"/>
<path d="M-4.14,1.65h0.71v4.69h-0.71V1.65z"/>
<path d="M-0.35,1.65h0.71v4.69h-0.71V1.65z"/>
<path d="M3.43,1.65h0.71v4.69H3.43V1.65z"/>
<rect fill="none" x="-12" y="-12" width="24" height="24"/>
</symbol>
<symbol id="rats" viewBox="-12 -12 24 24">
<path d="M8.78-2.32,7-2.27c-.51-.17-.65-.56-1.46-.45l-.25.45C3.59-2.75,2.59-3.66.56-3.62l-1.35.3A4.89,4.89,0,0,0-4.24,1.57c-.68.6-2.58.86-3.39.94a6.84,6.84,0,0,0-1.62.39,4.91,4.91,0,0,0-1,.52A1.75,1.75,0,0,0-11,4.61a1.16,1.16,0,0,0,.59,1.48,1.3,1.3,0,0,1,.14.12c.16-.52-.35-.92-.2-1.42a3.35,3.35,0,0,1,.27-.45,3.18,3.18,0,0,1,1.79-1c.63-.12,1.27-.22,1.91-.3.48-.07,1,0,1.4-.12A6.94,6.94,0,0,1-4,2.82,30.64,30.64,0,0,0,.41,2.69l2.16.15c.1-.09,0,0,.1-.15a.87.87,0,0,0-.9-.55c.86-1,2.27-.37,3.1-.05.5.19,1,0,1.25.4.11-.1.1-.07.15-.25.3,0,.31.07.6.15-.06-.49-.34-.64-1-.6a.78.78,0,0,1,0-.55C6.3.56,7.29.73,8.13.43a13.78,13.78,0,0,0,2.15-.9l.6-.85v-.2A16.9,16.9,0,0,0,8.78-2.32Z"/>
<rect fill="none" x="-12" y="-12" width="24" height="24"/>
</symbol>
<symbol id="sand" viewBox="-12 -12 24 24">
<path d="M-1.58,0.83c0.23,0.2,0.35,0.44,0.36,0.73c0.01,0.29-0.08,0.54-0.28,0.75c-0.2,0.21-0.46,0.32-0.78,0.33c-0.32,0.01-0.6-0.08-0.83-0.26C-3.36,2.19-3.49,1.95-3.5,1.67C-3.51,1.38-3.41,1.12-3.2,0.9c0.21-0.22,0.48-0.34,0.8-0.35C-2.08,0.54-1.81,0.64-1.58,0.83z"/>
<path d="M0.08-2.36c0.23,0.2,0.35,0.44,0.36,0.73c0.01,0.29-0.08,0.54-0.28,0.75c-0.2,0.21-0.46,0.32-0.78,0.33c-0.32,0.01-0.59-0.07-0.83-0.26s-0.37-0.42-0.38-0.71c-0.01-0.29,0.09-0.54,0.3-0.76c0.21-0.22,0.48-0.33,0.8-0.35C-0.42-2.65-0.14-2.56,0.08-2.36z"/>
<path d="M3.12,0.55c0.23,0.2,0.35,0.43,0.38,0.71c0.02,0.28-0.07,0.53-0.28,0.75C3,2.23,2.73,2.35,2.42,2.36C2.1,2.37,1.82,2.28,1.58,2.08C1.34,1.88,1.22,1.64,1.2,1.35c-0.01-0.29,0.09-0.54,0.3-0.75C1.72,0.4,1.99,0.29,2.3,0.28S2.89,0.36,3.12,0.55z"/>
<rect fill="none" x="-12" y="-12" width="24" height="24"/>
</symbol>
<symbol  id="scallops" viewBox="-12 -12 24 24">
<path d="M.05-3.74l.21,0A2.35,2.35,0,0,1,1.74-3a2,2,0,0,1,.59,1.55v0l0,0A9.59,9.59,0,0,1-.08,3.27l-.39.47-.27-.55A14.26,14.26,0,0,1-2.33-1.89v-.05l0-.05A2,2,0,0,1-1.44-3.3,2.42,2.42,0,0,1,.05-3.74ZM-.11-3A1.44,1.44,0,0,0-1.55-1.89,13.06,13.06,0,0,0-.29,2.33,8.6,8.6,0,0,0,1.55-1.54a1.41,1.41,0,0,0-.38-1A1.62,1.62,0,0,0,.18-3Z"/>
<rect fill="none" x="-12" y="-12" width="24" height="24"/>
</symbol>
<symbol  id="sink" viewBox="-12 -12 24 24">
<path d="M.72,9.41H.9c1.94,0,3.26-.54,3.94-1.51a3.61,3.61,0,0,0,.33-.69,2,2,0,0,0,.11-.54V6.46l.69,0a2.8,2.8,0,0,1-.58,1.78C4.58,9.39,3.1,10,.93,10H-.93q-3.25,0-4.46-1.8a2.74,2.74,0,0,1-.43-.83A2.37,2.37,0,0,1-6,6.67V6.43l.68,0A2.27,2.27,0,0,0-4.84,7.9c.68,1,2,1.47,3.93,1.48l.5,0ZM-1.46-10a.68.68,0,0,0,.16.41A2.77,2.77,0,0,0-.51-9l0,0a3.63,3.63,0,0,1,1,.7,1.15,1.15,0,0,1,.34.88c0,.58-.53,1.14-1.49,1.68-.68.42-1,.79-1,1.11s.3.61.84,1h0Q.61-2.86.46-1.78a3.51,3.51,0,0,1-1.55,2,.61.61,0,0,0-.26.41,1.67,1.67,0,0,0,.1.51,5.3,5.3,0,0,1,.32,1L.56,1.9.46,8.06-3.4,2.54l1.73-.28A6.16,6.16,0,0,0-2,1.39,1.7,1.7,0,0,1-2.09.58a1.21,1.21,0,0,1,.53-.82h0v0C-.75-.86-.33-1.38-.28-1.85s-.23-.87-.91-1.27h0C-2-3.6-2.37-4.1-2.4-4.61S-2-5.74-1.09-6.29C-.34-6.72.06-7.1.09-7.44a.67.67,0,0,0-.18-.43,3.17,3.17,0,0,0-.79-.58,2.93,2.93,0,0,1-1-.67A1.16,1.16,0,0,1-2.17-10Z"/>
<rect fill="none" x="-12" y="-12" width="24" height="24"/>
</symbol>
<symbol  id="spring" viewBox="-12 -12 24 24">
<path d="M-1.34-9.86,2.52-4.34.78-4.06a8,8,0,0,0,.29.87,1.4,1.4,0,0,1,.13.79,1.3,1.3,0,0,1-.52.84l0,0v0C-.13-.95-.55-.42-.61,0S-.37.91.31,1.3l0,0c.75.46,1.14,1,1.18,1.46S1.12,3.92.21,4.46C-.54,4.9-.94,5.29-1,5.64a.74.74,0,0,0,.18.43A3.2,3.2,0,0,0,0,6.62a3,3,0,0,1,1,.7,1.14,1.14,0,0,1,.31.86A1.74,1.74,0,0,1,.71,9.26H.92c1.92,0,3.22-.52,3.9-1.51a2.05,2.05,0,0,0,.35-.67,2.59,2.59,0,0,0,.1-.55l0-.19.65,0a2.84,2.84,0,0,1-.55,1.8C4.58,9.26,3.08,9.85.92,9.86H-.92c-2.17,0-3.66-.6-4.49-1.77a3.65,3.65,0,0,1-.4-.85A2.43,2.43,0,0,1-6,6.53V6.29l.66,0a2.08,2.08,0,0,0,.47,1.41c.68,1,2,1.5,3.91,1.51H-.4c.62-.43.94-.8,1-1.1a.76.76,0,0,0-.16-.43,3.25,3.25,0,0,0-.79-.51v0a3.8,3.8,0,0,1-1-.7,1.15,1.15,0,0,1-.34-.91q.06-.84,1.5-1.68c.68-.4,1-.77,1-1.1S.49,2.21,0,1.87c0,0,0,0,0,0C-1,1.32-1.44.69-1.34,0a3.58,3.58,0,0,1,1.55-2,.54.54,0,0,0,.23-.38A1.28,1.28,0,0,0,.37-3a4.57,4.57,0,0,1-.32-1l-1.49.24Z"/>
<rect fill="none" x="-12" y="-12" width="24" height="24"/>
</symbol>
<symbol  id="stalactite" viewBox="-12 -12 24 24">
<path d="M3.57-6.69l.52.53L.39-3V6.12H-.39V-3l-3.7-3.14.52-.53L0-3.67Z"/>
<rect fill="none" x="-12" y="-12" width="24" height="24"/>
</symbol>
<symbol  id="stalagmite" viewBox="-12 -12 24 24">
<path d="M.38-6.42V2.75L4.11,5.89l-.56.53L0,3.4l-3.57,3-.53-.53,3.7-3.14V-6.42Z"/>
<rect fill="none" x="-12" y="-12" width="24" height="24"/>
</symbol>
<symbol  id="stalagnate" viewBox="-12 -12 24 24">
<path d="M3.55-8.46l.56.53L.38-4.78v9L4.11,7.36l-.56.53L0,4.86l-3.57,3-.53-.53,3.7-3.14v-9l-3.7-3.15.53-.53L0-5.43Z"/>
<rect fill="none" x="-12" y="-12" width="24" height="24"/>
</symbol>
<symbol  id="straws" viewBox="-12 -12 24 24">
<path d="M-10.89-2.76H10.89V-2H9.63V.46H8.84V-2H8.29v5.6H7.5V-2H5.56V.7H4.77V-2H2.07V2.38H1.29V-2H-.1v3H-.89V-2H-3.2V4.11H-4V-2H-6.22L-6.16.75l-.79,0L-7-2H-8.32V2.33H-9.1V-2h-1.79Z"/>
<rect fill="none" x="-12" y="-12" width="24" height="24"/>
</symbol>
<symbol  id="water" viewBox="-12 -12 24 24">
<path d="M-1.72-9.86,2.11-4.32.38-4.06a6.49,6.49,0,0,0,.29.89,1.5,1.5,0,0,1,.13.79,1.2,1.2,0,0,1-.5.82h0l0,0C-.54-.94-1-.42-1,.05s.24.89.92,1.27h0c.77.48,1.17,1,1.19,1.49S.71,3.94-.2,4.49c-.75.43-1.13.81-1.15,1.15a.51.51,0,0,0,.18.43,2.66,2.66,0,0,0,.76.58,2.93,2.93,0,0,1,1,.67,1.16,1.16,0,0,1,.29.89C.84,8.75.42,9.3-.41,9.86l-.44-.55c.66-.45,1-.83,1-1.15A.47.47,0,0,0,0,7.75a2.84,2.84,0,0,0-.78-.53h0a3.87,3.87,0,0,1-1-.69,1.24,1.24,0,0,1-.34-.91c0-.58.54-1.14,1.52-1.68.66-.42,1-.79,1-1.11s-.3-.61-.84-1h0Q-1.9,1.06-1.74,0a3.44,3.44,0,0,1,1.54-2,.67.67,0,0,0,.27-.41A1.11,1.11,0,0,0,0-3a4.33,4.33,0,0,1-.31-1l-1.5.24Z"/>
<rect fill="none" x="-12" y="-12" width="24" height="24"/>
</symbol><symbol  id="tree" viewBox="-12 -12 24 24">
<path d="M7.4-5.04A4.271,4.271,0,0,0,7.7-6.627a4.3,4.3,0,0,0-4.3-4.3A4.279,4.279,0,0,0,.636-9.914,4.293,4.293,0,0,0-3.045-12a4.3,4.3,0,0,0-4.3,4.3,4.27,4.27,0,0,0,.421,1.845,4.3,4.3,0,0,0-3.645,4.244,4.3,4.3,0,0,0,4.3,4.3A4.282,4.282,0,0,0-3.946,2L-1.175,5.23h0L-1.612,12H.982L.757,6.376,4.119,2.827v0a4.272,4.272,0,0,0,2.15.58,4.3,4.3,0,0,0,4.3-4.3A4.3,4.3,0,0,0,7.4-5.04ZM-3.346,1.538h0A4.346,4.346,0,0,0-2.7.788a4.266,4.266,0,0,0,1.765.753l-.135,2.087ZM.69,4.7.563,1.544A4.258,4.258,0,0,0,2.321.805,4.3,4.3,0,0,0,3.378,2.279Z"/>
<rect fill="none" x="-12" y="-12" width="24" height="24"/>
</symbol><g>
<desc></desc>
<g>
<line fill="none" stroke="#dddddd" stroke-width="0.1mm" x1="0.00" y1="140.00" x2="130.00" y2="140.00" />
<text x="127.20" y="139.80" font-size=".2mm" fill="#000000">0m</text>
<line fill="none" stroke="#dddddd" stroke-width="0.1mm" x1="0.00" y1="90.00" x2="130.00" y2="90.00" />
<text x="127.20" y="89.80" font-size=".2mm" fill="#000000">5m</text>
<line fill="none" stroke="#dddddd" stroke-width="0.1mm" x1="0.00" y1="40.00" x2="130.00" y2="40.00" />
<text x="127.20" y="39.80" font-size=".2mm" fill="#000000">10m</text>
<line fill="none" stroke="#dddddd" stroke-width="0.1mm" x1="0.00" y1="190.00" x2="130.00" y2="190.00" />
<text x="127.20" y="189.80" font-size=".2mm" fill="#000000">-5m</text>
<line fill="none" stroke="#dddddd" stroke-width="0.1mm" x1="92.00" y1="0.00" x2="92.00" y2="235.00" />
<text x="92.40" y="2.00" font-size=".2mm" fill="#000000">0m</text>
<line fill="none" stroke="#dddddd" stroke-width="0.1mm" x1="42.00" y1="0.00" x2="42.00" y2="235.00" />
<text x="42.40" y="2.00" font-size=".2mm" fill="#000000">-5m</text>
</g>
<g>
<path fill="none" stroke="#000000" stroke-width="0.06mm" d="M139.94046,255.81055 C140.3618,256.02432 140.77194,256.26178 141.2045,256.45184 C142.22495,256.90024 143.6394,255.60008 144.23193,255.23462 L144.23193,255.23462" /><defs><path id="DRAW_7447"  d="M114.11023,97.2294 L113.45924,96.65092" /></defs><use xlink:href="#DRAW_7447" fill="none" stroke="#000000" stroke-width="0.04mm" /><text style="fill:#000000; font-size:0.5mm; letter-spacing:2;"><textPath xlink:href="#DRAW_7447">||||</textPath></text><defs><path id="DRAW_7452"  d="M112.27609,99.77457 C111.54527,99.11556 110.80637,98.46542 110.08364,97.79756 C107.67885,95.57536 105.32022,93.30307 102.89372,91.1046 C102.362076,90.62292 101.301834,90.21605 100.561264,90.27647 C99.64649,90.35109 98.567665,91.448586 98.26822,92.24602 C95.13968,100.5775 97.28447,95.145615 95.448746,102.32526 C95.11053,103.648056 94.607285,104.9237 94.23337,106.236855 C94.05117,106.876724 94.140976,107.63351 94.48245,108.2035 C94.59125,108.3851 94.84569,108.74039 95.04683,108.87233 C96.516884,109.83664 97.17263,109.95024 99.26422,110.41675 C100.23767,110.63387 101.82575,110.547386 102.75513,110.42363 C103.27553,110.35433 104.41703,110.07147 104.909996,109.7275 C107.80591,107.70687 107.979706,106.99371 110.54081,103.697266 C110.93137,103.194565 111.25959,102.64544 111.6499,102.14253 C111.82485,101.91711 112.4951,101.39299 112.59598,100.92145 C112.65932,100.62542 112.526245,100.13254 112.517654,99.91786 C112.50983,99.72186 112.53821,99.526085 112.548485,99.3302 L112.548485,99.3302" /></defs><use xlink:href="#DRAW_7452" fill="none" stroke="#000000" stroke-width="0.04mm" /><text style="fill:#000000; font-size:0.5mm; letter-spacing:2;"><textPath xlink:href="#DRAW_7452">|||||||||||||||||||||||||||||||||||||||||||||||||||||||||||||||||||||||||||||||||||||||||||||||||||||||||||||||||||||||||||||||||||||||||||||||||||||||||||||||||||||||||||||||||||||||||||||||||||||||||||||||||||||||||||||||||||||||||||||</textPath></text><path fill="none" stroke="#000000" stroke-width="0.06mm" d="M111.93267,100.00545 C112.743515,99.68585 113.41219,99.53689 114.06514,99.00991 C115.4587,97.88519 116.20764,96.065216 116.30318,94.29842 C116.38785,92.73245 116.53442,91.13188 116.225815,89.594284 C115.47252,85.84099 113.14955,74.98053 110.133156,70.08425 C106.64354,64.41983 103.115555,61.811554 97.608925,57.68701 C94.43827,55.312157 89.94263,52.244003 85.82354,51.376984 C85.29775,51.26631 84.82973,51.785797 84.332825,51.990204 L84.332825,51.990204" /><path fill="none" stroke="#000000" stroke-width="0.06mm" d="M104.68327,69.28864 C104.37895,71.313965 104.16768,73.35548 103.77032,75.364624 C103.07982,78.85587 102.23291,82.31454 101.42169,85.779724 C101.389496,85.917274 101.17166,86.18868 101.07344,86.284 C100.36196,86.97448 99.12885,86.94838 98.53086,86.1503 C97.48209,84.75061 96.3815,83.38719 95.40239,81.93792 C94.28416,80.282715 94.36666,78.95724 95.40169,77.30315 C96.97785,74.78425 100.62907,71.4743 102.17079,70.09326 C102.89727,69.44251 105.14051,67.652916 104.603,68.46675 C104.43672,68.7185 100.44348,73.61066 98.3863,74.9045 C97.84752,75.24336 94.49525,76.14632 94.69432,77.86998 C94.71631,78.06034 94.731064,78.25705 94.80377,78.43435 C95.56809,80.298065 96.32835,82.16605 97.20076,83.981674 C97.58822,84.78804 99.67895,87.69508 101.01044,86.730225 C101.174255,86.6115 101.36526,86.36908 101.43672,86.18437 C102.472786,83.50661 102.30038,84.009705 102.81273,82.01254 L102.81273,82.01254" /><defs><path id="DRAW_7474"  d="M75.75102,110.23723 L75.43653,110.48421" /></defs><use xlink:href="#DRAW_7474" fill="none" stroke="#248B00" stroke-width="0.04mm" /><text style="fill:#248B00; font-size:0.5mm; letter-spacing:2;"><textPath xlink:href="#DRAW_7474">||</textPath></text><path fill="none" stroke="#248B00" stroke-width="0.06mm" d="M86.94359,104.242676 C85.8459,103.69841 83.957306,102.980774 82.90453,101.98606 C80.77213,99.971245 79.77388,97.96918 77.78796,95.50278 C76.93729,94.44629 75.93748,93.51802 75.05473,92.48818 C74.45219,91.78523 73.9845,90.9668 73.33462,90.30736 C72.64969,89.61235 71.88665,88.98747 71.07338,88.44826 C70.14325,87.83157 69.1264,87.35518 68.12848,86.85559 C67.91443,86.748436 67.6824,86.66966 67.44598,86.63229 C64.71332,86.2003 65.13298,86.33019 62.394894,86.56223 L62.394894,86.56223" /><path fill="none" stroke="#248B00" stroke-width="0.06mm" d="M62.741234,85.93176 C62.323242,86.42337 61.969162,86.97745 61.487267,87.40661 C57.254055,91.176575 56.260174,91.34213 50.8398,94.56581 C50.034554,95.044716 49.247437,95.55512 48.42675,96.00707 C45.26797,97.74658 46.280224,96.829 43.039986,99.069824 C42.57139,99.39389 42.105545,99.74005 41.732494,100.17067 C41.07747,100.92679 40.56241,101.793625 39.977367,102.6051 L39.977367,102.6051" /><path fill="none" stroke="#248B00" stroke-width="0.06mm" d="M25.624084,128.44153 C26.118576,130.33488 26.76078,131.82552 26.713814,133.70761 C26.65213,136.1796 26.406158,138.64622 26.393112,141.11894 C26.385193,142.61974 26.715607,144.11456 26.65097,145.61398 C26.599388,146.81075 26.175781,147.96552 26.046638,149.1564 C25.862846,150.85141 25.622353,155.89713 25.700005,157.79903 C25.727058,158.46167 25.999619,159.31282 26.287941,159.93361 C26.461487,160.30727 26.67582,160.66081 26.856102,161.03127 C27.028091,161.38469 27.239578,161.72574 27.344452,162.10452 C28.017883,164.5371 28.697407,166.97302 29.186562,169.44923 C29.566372,171.37192 29.622952,173.05788 29.375603,174.93562 C29.27156,175.72548 29.086632,176.50291 28.971203,177.2912 C28.86655,178.00586 28.795292,178.72505 28.715591,179.44293 C28.693363,179.64317 28.697956,179.84644 28.66544,180.04526 C28.561028,180.6838 28.425285,181.31683 28.305214,181.95264 L28.305214,181.95264" /><path fill="none" stroke="#248B00" stroke-width="0.06mm" d="M37.292187,184.32162 C37.15702,183.86201 36.9729,183.41406 36.886696,182.94281 C35.90907,177.599 35.007412,172.24149 34.102234,166.88492 C34.037052,166.49924 34.16896,166.07358 34.465305,165.81674 C34.88698,165.45128 35.872143,165.8832 36.121307,165.94455 C36.50388,166.03874 37.174995,166.31883 37.683815,166.34355 C38.622616,166.38919 39.578316,165.14673 40.01175,164.63986 C40.47928,164.09314 41.26111,163.03502 41.35835,162.23456 C41.406776,161.8359 41.434982,161.43416 41.44019,161.03261 C41.443134,160.80504 41.425438,160.57582 41.382763,160.35226 C41.332146,160.08711 41.268795,159.82098 41.16159,159.57324 C39.72347,156.24979 38.257767,152.93794 36.74979,149.6456 C33.34523,142.21243 34.780857,144.18025 32.68054,141.41364 L32.68054,141.41364" /><defs><path id="DRAW_7515"  d="M28.380596,135.90753 C28.308022,137.37772 28.23545,138.8479 28.16288,140.31808 C28.20076,141.20169 28.312294,142.08522 28.276531,142.96892 C27.9254,151.6465 27.481247,147.09096 28.037327,154.57108 C28.085629,155.22084 28.777336,156.44344 28.91425,156.79185 C29.454792,158.16745 29.977211,159.55092 30.454323,160.9498 C30.726837,161.7488 30.65409,162.82475 30.72052,163.59163 C30.766495,164.12228 30.85392,164.64853 30.920616,165.17697 C30.982807,166.5125 30.992329,167.8515 31.10717,169.18353 C31.21756,169.84956 31.327942,170.51561 31.438324,171.18166 C31.5229,171.44081 31.666859,171.68768 31.692055,171.95914 C32.117374,176.54141 31.74096,173.34918 31.66785,175.93306 C31.645615,176.71892 31.674778,177.50539 31.678238,178.29155 L31.678238,178.29155" /></defs><use xlink:href="#DRAW_7515" fill="none" stroke="#248B00" stroke-width="0.04mm" /><text style="fill:#248B00; font-size:0.5mm; letter-spacing:2;"><textPath xlink:href="#DRAW_7515">||||||||||||||||||||||||||||||||||||||||||||||||||||||||||||||||||||||||||||||||||||||||||||||||||||||||||||||||||||||||||||||||||||||||||||||||||||||||||||||||||||||||||||</textPath></text><defs><path id="DRAW_7517"  d="M33.575283,177.83255 C34.085667,175.31766 33.501316,178.38419 34.08113,173.87592 C34.32841,171.95325 34.620388,173.31139 34.223236,170.38266 C33.80977,167.3336 33.239136,164.3079 32.737747,161.27206 C32.576683,160.2968 32.403168,159.32364 32.23587,158.34941 C31.627422,155.61684 30.8928,152.90933 30.410526,150.15169 C30.181553,148.84242 30.110546,147.50499 30.106895,146.17587 C30.076607,135.15198 30.995403,139.8551 30.328896,136.50394 L30.328896,136.50394" /></defs><use xlink:href="#DRAW_7517" fill="none" stroke="#248B00" stroke-width="0.04mm" /><text style="fill:#248B00; font-size:0.5mm; letter-spacing:2;"><textPath xlink:href="#DRAW_7517">||||||||||||||||||||||||||||||||||||||||||||||||||||||||||||||||||||||||||||||||||||||||||||||||||||||||||||||||||||||||||||||||||||||||||||||||||||||||||||||||||||||||</textPath></text><path fill="none" stroke="#248B00" stroke-width="0.06mm" d="M40.76251,218.55753 C41.76175,216.7557 41.530483,216.88 42.63862,215.65112 C42.904217,215.35658 43.253624,215.13187 43.468544,214.79855 C44.568363,213.09276 45.60073,211.34192 46.567596,209.5574 C47.113758,208.54936 47.55323,207.48633 48.001987,206.4313 C48.208187,205.94653 48.274868,205.40245 48.53078,204.94199 C51.33745,199.89195 52.72162,198.88739 54.20969,194.47379 C54.8166,192.6737 54.7329,191.20416 54.703217,189.2379 C54.688385,188.25536 53.613552,185.76854 53.557808,185.6295 C53.474804,185.42249 53.341114,185.23868 53.213497,185.05576 C52.86882,184.56169 52.504448,184.02429 51.943115,183.75208 C51.36879,183.47357 50.34637,183.42477 49.93727,183.30971 C49.429638,183.16693 48.94767,182.94412 48.461124,182.74078 C47.65435,182.40358 46.86657,182.02187 46.058224,181.68845 C45.86032,181.60683 45.486996,181.52185 45.257504,181.53944 C43.793247,181.65166 43.085186,182.2265 41.617584,182.87517 C40.68519,183.28728 39.751408,183.69724 38.805004,184.07608 C38.648655,184.13867 38.18906,184.16302 38.04068,184.19687 C37.73654,184.26627 37.512295,184.38889 37.23006,184.5191 L37.23006,184.5191" /><defs><path id="DRAW_7527"  d="M37.151825,186.0688 C37.528786,185.17885 37.25126,185.76071 38.139854,184.40605 L38.139854,184.40605" /></defs><use xlink:href="#DRAW_7527" fill="none" stroke="#B137AF" stroke-width="0.04mm" /><text style="fill:#B137AF; font-size:0.5mm; letter-spacing:2;"><textPath xlink:href="#DRAW_7527">||||||||</textPath></text><path fill="none" stroke="#B137AF" stroke-width="0.06mm" d="M41.10462,218.49763 C40.946438,218.66553 40.77043,218.81824 40.630074,219.00128 C39.757305,220.13948 39.25492,222.36407 38.93163,223.47592 C38.778374,224.00298 38.646156,224.53604 38.51707,225.06955 C38.500965,225.13611 38.497383,225.20552 38.496574,225.27402 C38.494938,225.41252 38.505356,225.5509 38.509743,225.68938 L38.509743,225.68938" /><path fill="none" stroke="#B137AF" stroke-width="0.06mm" d="M35.583263,219.55527 C34.287334,222.3211 35.780807,219.01991 33.99788,223.70734 C33.005993,226.3151 34.065434,222.61993 33.18244,226.01074 L33.18244,226.01074" /><path fill="none" stroke="#B137AF" stroke-width="0.06mm" d="M38.714745,225.60785 C38.781536,225.65912 39.160088,225.99031 39.330517,226.01387 C40.343548,226.1539 41.362568,226.2468 42.37962,226.3538 C42.60241,226.37726 42.828686,226.36868 43.049706,226.40524 C44.775227,226.69055 44.574,226.64688 45.59016,226.9393 L45.59016,226.9393" /><path fill="none" stroke="#B137AF" stroke-width="0.06mm" d="M45.925446,226.85725 C46.393433,226.89888 46.875122,226.86227 47.329414,226.98213 C49.10887,227.45163 50.872612,227.99026 52.60228,228.61888 C57.33522,230.33893 64.24508,233.9112 68.02958,235.91734 C68.6065,236.22316 69.09869,236.66837 69.6125,237.07129 C70.47997,237.75156 70.67386,238.81659 70.82324,239.85973 C70.88713,240.30579 70.83207,240.91241 70.70989,241.35056 C70.05038,243.71555 67.21071,245.1948 65.67251,246.64268 C64.6171,247.63612 63.679924,248.74817 62.693405,249.81003 C62.470413,250.05005 62.29812,250.34091 62.044277,250.54803 C61.276695,251.17432 60.44334,251.71538 59.64287,252.29904 L59.64287,252.29904" /><path fill="none" stroke="#B137AF" stroke-width="0.06mm" d="M60.678978,252.6988 L60.749714,252.46696" /><path fill="none" stroke="#B137AF" stroke-width="0.06mm" d="M40.422943,253.5197 C38.114807,251.82544 34.459846,250.15381 32.865715,247.42911 C31.82088,245.64326 31.68063,244.65137 31.24382,242.47232 C30.716007,239.83926 30.708145,237.32599 30.895626,234.58727 C31.11568,231.37271 32.16076,230.19536 33.30981,226.99982 C33.494476,226.48625 33.55819,225.93695 33.682377,225.40552 L33.682377,225.40552" /><path fill="none" stroke="#B137AF" stroke-width="0.06mm" d="M37.701683,233.03764 C38.61276,233.70572 39.541485,234.35034 40.434906,235.04184 C40.643494,235.20328 41.240036,235.83128 41.069427,236.18843 C40.93053,236.47919 40.199944,236.19159 40.08822,236.15067 C39.921124,236.08948 39.75337,236.02094 39.60676,235.92009 C38.69373,235.29202 37.87755,234.54123 37.522987,233.4599 C37.433746,233.18774 37.503693,232.77391 37.793232,232.63739 C37.846924,232.61209 37.91032,232.61731 37.969337,232.61093 C38.209618,232.58496 38.450405,232.56387 38.690933,232.54034 L38.690933,232.54034" /><path fill="none" stroke="#B137AF" stroke-width="0.06mm" d="M37.369125,239.2714 C37.876484,239.77371 38.39677,240.26332 38.89121,240.77838 C39.206684,241.10703 39.47587,241.59683 39.22091,242.04294 C39.132294,242.19798 39.038734,242.34076 38.8861,242.43666 C38.650337,242.58478 38.363102,242.51968 38.14251,242.37553 C37.26547,241.80244 36.389652,241.22714 35.52661,240.63318 C35.47765,240.59949 35.445667,240.54553 35.41217,240.49644 C34.952656,239.82298 35.55294,238.11102 36.438,238.06863 C36.568176,238.06241 36.69178,238.0911 36.81192,238.13934 C36.907867,238.1779 36.999012,238.22745 37.092564,238.2715 C37.593605,238.46945 38.09466,238.6674 38.595707,238.86536 L38.595707,238.86536" /><path fill="none" stroke="#B137AF" stroke-width="0.06mm" d="M47.020454,235.05994 C47.85136,236.64249 48.682266,238.22505 49.513165,239.80759 C49.52459,239.86668 49.54143,239.92499 49.547436,239.98488 C49.60151,240.5239 49.16267,240.99539 48.845,241.35869 C48.59866,241.64041 48.23297,242.04443 47.79992,241.99524 C47.700912,241.98398 47.514927,241.92538 47.439217,241.85994 C46.536266,241.07947 45.625645,240.30609 44.76294,239.48135 C43.467396,238.24283 44.135353,237.02136 45.350636,235.98662 C45.59568,235.77798 45.87892,235.6188 46.139122,235.4294 C46.40859,235.23325 46.672703,235.02983 46.939495,234.83005 L46.939495,234.83005" /><path fill="none" stroke="#B137AF" stroke-width="0.06mm" d="M44.424973,243.57404 C44.743587,243.9741 45.036774,244.39583 45.380814,244.77426 C45.57643,244.98946 45.81814,245.1577 46.037865,245.3482 C46.355003,245.62314 46.417824,245.62439 46.62553,245.95291 C46.774452,246.18846 47.025616,246.99506 46.43862,246.76216 C45.163506,246.25624 44.63908,245.01317 43.51384,244.35074 C43.337032,244.24666 43.147957,244.16188 42.954033,244.09488 C42.657078,243.99228 42.33837,243.95755 42.045643,243.84346 C41.988323,243.82112 41.948853,243.75656 41.933304,243.69704 C41.892044,243.5391 42.029762,243.34769 42.11162,243.24533 C42.668335,242.54929 43.611618,242.32599 44.458527,242.54274 C44.93981,242.66592 45.379875,243.05756 45.75589,243.30453 L45.75589,243.30453" /><path fill="none" stroke="#B137AF" stroke-width="0.06mm" d="M39.63394,243.96738 C39.92482,244.60309 40.19652,245.24792 40.506584,245.8745 C40.621883,246.10748 40.79071,246.3111 40.908443,246.54285 C41.109543,246.93877 40.945625,247.6055 40.547115,247.82135 C40.10794,248.05923 39.394924,247.54898 39.133568,247.36647 C38.491512,246.91812 37.880226,246.42656 37.272797,245.93231 C36.773575,245.52612 36.676117,244.22592 37.401047,243.96466 C37.96463,243.76154 38.524414,243.53952 39.106377,243.39737 C39.49703,243.30197 39.905067,243.30281 40.304413,243.25552 L40.304413,243.25552" /><path fill="none" stroke="#B137AF" stroke-width="0.06mm" stroke-dasharray="0.3mm,0.1mm" d="M70.697464,236.91664 C71.299805,237.16121 71.93254,237.3413 72.50448,237.65031 C74.07456,238.49869 75.59726,239.43355 77.10948,240.3812 C77.45085,240.59512 77.94838,240.9989 78.19548,241.38861 C79.33526,243.18622 78.09544,245.49887 76.53856,246.5995 C76.04327,246.94965 75.32532,247.43253 74.6659,247.58275 C73.1705,247.9234 71.48887,247.45026 70.06931,247.14697 C69.3078,246.98425 68.5576,246.77249 67.80174,246.58527 L67.80174,246.58527" /><path fill="none" stroke="#B137AF" stroke-width="0.06mm" stroke-dasharray="0.3mm,0.1mm" d="M42.369232,254.12483 C42.659355,254.25783 42.960922,254.36826 43.23961,254.5238 C44.11744,255.01375 45.249252,256.6151 45.512196,257.01822 C46.71396,258.86066 47.663086,260.8587 48.843506,262.7149 C49.261726,263.37253 50.446556,265.20413 51.50316,265.70483 C52.636795,266.242 53.697784,264.79507 53.97709,263.88257 C54.184586,263.20468 54.486893,262.52737 54.489708,261.81845 C54.501553,258.8415 54.177086,255.87268 54.020775,252.8998 L54.020775,252.8998" /><path fill="none" stroke="#B137AF" stroke-width="0.06mm" d="M59.830673,253.0947 C58.459835,253.5138 57.124443,254.07411 55.718163,254.35199 C53.5457,254.78128 52.450966,254.83107 50.619675,254.53117 C40.334354,252.84682 43.69674,254.33823 39.323246,252.18307 L39.323246,252.18307" /><path fill="none" stroke="#B137AF" stroke-width="0.06mm" d="M62.80606,240.61786 C57.54042,237.96524 59.432617,239.12428 56.91554,237.52222 L56.91554,237.52222" /><path fill="none" stroke="#248B00" stroke-width="0.06mm" d="M55.946003,106.235916 C55.728622,107.56898 55.79235,106.955185 55.794514,109.05344 C55.795322,109.841705 57.148674,109.644775 57.538868,109.4942 C57.908077,109.351715 58.0628,108.740585 58.209003,108.50343 C58.825596,107.50326 58.318768,108.433914 58.618446,108.00661 C58.857723,107.66542 58.405407,106.96345 58.298733,106.76817 C58.004204,106.229004 57.775578,105.958176 57.15374,106.10129 C55.969337,106.37387 56.138294,106.30991 55.567154,106.55351 L55.567154,106.55351" /><path fill="none" stroke="#248B00" stroke-width="0.06mm" d="M58.915543,99.7672 C59.135033,100.59027 59.346035,101.415665 59.574,102.236435 C59.617004,102.391266 59.85814,102.396866 59.974247,102.36975 C60.547,102.236 61.118782,102.09775 61.688026,101.94977 C61.779892,101.92589 61.848534,101.78554 61.854492,101.70068 C61.89028,101.19078 61.90473,100.67943 61.946182,100.16995 C61.949295,100.131714 62.11712,99.5285 62.00861,99.28942 C61.973083,99.21115 61.89199,99.12629 61.81215,99.0955 C61.433002,98.94926 61.05176,98.807236 60.66407,98.68544 C60.424637,98.610214 60.17852,98.557434 59.933056,98.50515 C59.895786,98.497215 59.856583,98.5009 59.818745,98.50541 C59.543324,98.53827 59.33059,98.83652 59.185654,99.024796 C58.73944,99.60448 58.8201,99.48365 58.603546,100.001205 L58.603546,100.001205" /><path fill="none" stroke="#248B00" stroke-width="0.06mm" d="M61.550797,107.550835 C61.592606,107.92817 61.62596,108.30653 61.676216,108.68284 C61.720146,109.01172 62.140495,109.14626 62.40723,109.19504 C62.61476,109.23299 62.82258,109.270004 63.0315,109.29934 C63.13599,109.31401 63.268936,109.22688 63.331825,109.1545 C63.652176,108.785805 63.968323,108.413345 64.277534,108.03526 C64.339035,107.96007 64.38336,107.80538 64.36457,107.70915 C64.25157,107.13066 64.16901,106.98518 63.890648,106.3932 C63.84902,106.30466 63.78669,106.2152 63.705368,106.15715 C63.495255,106.00716 63.081707,106.07135 62.884415,106.20218 C62.35578,106.55271 61.75428,106.825645 61.324875,107.29248 C61.18353,107.44615 61.31206,107.70987 61.305656,107.918564 L61.305656,107.918564" /><path fill="none" stroke="#248B00" stroke-width="0.06mm" d="M63.97991,96.87549 C64.06095,97.18689 64.12297,97.50389 64.22303,97.80972 C64.23122,97.834755 64.27238,97.85294 64.295715,97.84073 C64.3374,97.81889 64.3604,97.77026 64.38005,97.7275 C64.433304,97.61157 64.47532,97.49047 64.512665,97.368484 C64.55463,97.23142 64.54373,97.10375 64.621704,96.98993 C64.78991,96.74442 65.12021,96.8214 65.22225,97.08211 C65.326454,97.34832 65.424164,97.61719 65.51437,97.88845 C65.64824,98.29097 65.104164,98.820114 64.71397,98.60348 C64.38926,98.4232 64.29918,98.05833 64.21391,97.72796 L64.21391,97.72796" /><path fill="none" stroke="#248B00" stroke-width="0.06mm" d="M68.25872,99.4106 C68.568985,99.18422 68.87297,98.948975 69.18952,98.73146 C69.28438,98.66629 69.36784,98.73941 69.39212,98.83011 C69.469345,99.11866 69.67798,99.72389 69.66987,100.140625 C69.66754,100.26056 69.5872,100.40426 69.484085,100.46672 C69.138664,100.67598 68.78917,100.87872 68.43527,101.0733 C68.33188,101.13014 68.21448,101.04487 68.16057,100.96341 C68.06604,100.82056 67.998825,100.59805 68.00914,100.42701 C68.060646,99.57292 68.014786,99.44908 68.10272,99.70033 L68.10272,99.70033" /><path fill="none" stroke="#248B00" stroke-width="0.06mm" d="M67.12216,107.89071 C67.11518,108.54756 67.10821,109.20441 67.10123,109.86126 C67.10669,109.88792 67.10973,109.91519 67.1176,109.94124 C67.2167,110.26964 67.713104,110.3207 67.99015,110.2473 C68.11679,110.213745 68.22119,110.101524 68.24715,109.972916 C68.39189,109.255905 68.537254,108.53893 68.66915,107.81944 C68.67445,107.79051 68.66651,107.760056 68.657974,107.73191 C68.63354,107.6514 68.55828,107.59917 68.47639,107.58969 C67.969894,107.531105 67.463036,107.474594 66.95502,107.431206 C66.86475,107.42349 66.76177,107.47342 66.76666,107.575806 C66.772964,107.70767 66.847435,107.81788 66.84372,107.955826 C66.83414,108.31158 66.64308,108.62046 66.50374,108.93819 L66.50374,108.93819" /><path fill="none" stroke="#000000" stroke-width="0.06mm" d="M113.07506,111.393845 C113.22627,110.67622 113.47012,110.10372 114.18288,109.83008 C114.4651,109.72172 114.79232,109.76126 115.04901,109.916435 C115.95416,110.46361 115.807785,111.42515 115.454834,112.30199 C115.355,112.55 115.26532,112.814255 115.09046,113.016495 C112.07836,116.50017 111.11629,116.79402 109.218895,119.99753 C109.191345,120.04405 109.30539,120.07426 109.35927,120.078804 C109.44667,120.086174 109.53447,120.05777 109.61806,120.0312 C109.87061,119.95088 110.12079,119.861755 110.36506,119.75896 C110.87954,119.542435 111.36505,119.25492 111.89303,119.073784 C112.44815,118.88333 113.024185,118.75378 113.60156,118.648575 C115.16363,118.36395 116.54233,118.81015 118.044556,119.121315 C118.46428,119.20825 118.888695,119.27068 119.31077,119.34537 L119.31077,119.34537" /><path fill="none" stroke="#000000" stroke-width="0.06mm" d="M46.747814,125.85117 C46.76235,124.937485 46.83524,124.52146 47.621216,124.03091 C47.820312,123.90665 48.15161,123.72008 48.417828,123.73836 C48.56214,123.74827 48.70823,123.81584 48.813602,123.914345 C49.328854,124.39599 49.349354,125.0792 49.11222,125.71675 C48.946827,126.16142 48.79306,126.61472 48.564365,127.0304 C48.292515,127.524506 47.65743,127.87019 47.617924,128.43275 C47.59311,128.78615 48.19453,128.01747 48.506798,127.850174 C50.36929,126.85235 52.878693,126.58942 53.375843,129.15262 C53.53917,129.99472 53.68034,130.90166 53.40058,131.73914 C53.0491,132.7913 51.821285,133.99966 50.755463,134.3117 C50.36218,134.42685 49.95864,134.5061 49.554966,134.57664 C49.29513,134.62206 48.956463,134.59863 48.703194,134.52914 C47.419586,134.17697 47.103146,133.45763 46.38101,132.38933 L46.38101,132.38933" /><defs><path id="DRAW_7599"  d="M31.47554,177.98473 C31.541248,179.13724 31.491684,178.99208 32.1612,180.7269 C32.398872,181.34277 32.69059,181.94177 33.041714,182.5008 C33.381065,183.04106 34.07911,183.96468 34.69319,184.46571 C34.80436,184.55643 34.932125,184.62463 35.051586,184.70409 L35.051586,184.70409" /></defs><use xlink:href="#DRAW_7599" fill="none" stroke="#248B00" stroke-width="0.04mm" /><text style="fill:#248B00; font-size:0.5mm; letter-spacing:2;"><textPath xlink:href="#DRAW_7599">||||||||||||||||||||||||||||||||</textPath></text><defs><path id="DRAW_7600"  d="M35.763927,183.8664 C35.427177,183.4262 35.4718,183.40466 35.154327,183.1565 C35.017025,183.04915 34.867455,182.95728 34.736084,182.84277 C34.591404,182.71667 34.454857,182.52988 34.368793,182.35791 C34.329163,182.27872 34.29601,182.19562 34.273174,182.11005 C34.12628,181.55957 34.021374,180.99794 33.860085,180.4515 C33.69587,179.89516 33.526382,179.80928 33.484455,179.31528 C33.44684,178.87207 33.53324,178.62305 33.570442,178.15987 C33.577984,178.06598 33.567505,177.97151 33.566044,177.87733 L33.566044,177.87733" /></defs><use xlink:href="#DRAW_7600" fill="none" stroke="#248B00" stroke-width="0.04mm" /><text style="fill:#248B00; font-size:0.5mm; letter-spacing:2;"><textPath xlink:href="#DRAW_7600">|||||||||||||||||||||||||||</textPath></text><defs><path id="DRAW_7601"  d="M37.314682,185.0113 C37.219025,184.93456 37.12337,184.8578 37.027714,184.78105 C36.9774,184.7373 36.93275,184.68604 36.876785,184.6498 C36.665714,184.51309 36.43707,184.40442 36.2287,184.26363 C36.12174,184.19136 36.03551,184.0921 35.933773,184.01263 C35.894547,183.982 35.847725,183.9624 35.806786,183.93408 C35.736603,183.88556 35.669373,183.83292 35.60066,183.78232 L35.60066,183.78232" /></defs><use xlink:href="#DRAW_7601" fill="none" stroke="#248B00" stroke-width="0.04mm" /><text style="fill:#248B00; font-size:0.5mm; letter-spacing:2;"><textPath xlink:href="#DRAW_7601">|||||||||</textPath></text><defs><path id="DRAW_7602"  d="M34.80957,184.67047 C35.08796,184.83032 35.366337,184.99017 35.644714,185.15002 C35.73691,185.18555 35.83647,185.20595 35.921303,185.25659 C36.146927,185.3913 36.352417,185.55722 36.571014,185.70303 C36.59284,185.71759 36.61641,185.73096 36.64187,185.73727 C36.750526,185.76425 36.86154,185.78072 36.971382,185.80244 L36.971382,185.80244" /></defs><use xlink:href="#DRAW_7602" fill="none" stroke="#248B00" stroke-width="0.04mm" /><text style="fill:#248B00; font-size:0.5mm; letter-spacing:2;"><textPath xlink:href="#DRAW_7602">||||||||||</textPath></text><path fill="none" stroke="#248B00" stroke-width="0.06mm" d="M29.421173,178.17181 C29.202793,178.55905 28.996048,178.9531 28.766018,179.33356 C28.48108,179.80481 27.495987,179.79199 27.13607,179.87857 C26.667542,179.99129 26.241096,180.2865 25.984192,180.69318 C25.733688,181.08975 25.771767,181.63159 26.150269,181.92853 C26.270432,182.0228 26.38546,182.13283 26.527832,182.18814 C42.646976,188.44882 31.204529,183.32071 36.385147,186.18979 C38.5393,187.38278 37.426636,186.55971 38.6015,187.49284 L38.6015,187.49284" /><path fill="none" stroke="#248B00" stroke-width="0.06mm" d="M38.324547,186.64668 C38.498524,186.7431 38.68114,186.82535 38.846474,186.93594 C38.95921,187.01134 39.075867,187.09128 39.154488,187.2018 C39.92447,188.28418 40.747578,189.33865 41.384834,190.50412 C41.93855,191.51682 42.367275,192.60101 42.70938,193.70334 C42.972706,194.55182 43.104683,195.44046 43.19122,196.32463 C43.381943,198.27322 43.37693,199.52318 43.049477,201.32422 C43.00348,201.57718 42.924522,201.82492 42.826397,202.06256 C42.16605,203.66183 41.34469,205.19702 40.775703,206.83104 C40.508,207.59981 40.480164,208.4321 40.329845,209.23215 C40.0934,210.49054 39.898003,211.75754 39.615417,213.0064 C39.38184,214.03867 38.14649,215.83612 37.818962,216.33914 C37.065517,217.49629 36.253746,218.61441 35.47113,219.75206 L35.47113,219.75206" /><defs><path id="DRAW_7610"  d="M81.80104,244.89426 C80.796135,244.91922 80.69701,244.98647 79.89206,244.84894 C79.828384,244.83807 79.76451,244.82031 79.707405,244.79013 C79.33714,244.59442 78.98364,244.36801 78.61307,244.17291 C78.5505,244.13997 78.480675,244.12091 78.41121,244.10768 C77.840576,243.99896 77.229675,244.08514 76.66723,244.08627 C76.45888,244.08669 76.09266,243.89449 75.988205,243.8722 C75.43311,243.7537 75.36586,243.85005 74.84357,243.82008 C74.5069,243.80077 74.35048,243.62042 73.98828,243.53107 C73.60777,243.4372 73.212524,243.4158 72.82883,243.33594 C72.0229,243.16818 72.36843,243.11209 71.556816,243.0943 C71.08505,243.08395 71.04204,243.17291 70.56121,243.23068 C70.46303,243.24248 70.36342,243.23169 70.26454,243.23048 C70.133484,243.2289 70.000854,243.20168 69.871414,243.22227 C69.10043,243.34497 68.35082,243.50713 67.64203,243.84021 C67.3006,244.00067 66.732574,244.41364 66.6658,244.84549 C66.58509,245.36754 66.6832,245.18344 66.69529,245.90106 C66.6982,246.07333 66.662346,246.24425 66.65536,246.41641 C66.653946,246.45126 66.65758,246.48747 66.67018,246.52 C66.83967,246.95758 67.01758,247.21826 67.379326,247.5235 C67.44641,247.58011 67.521484,247.62802 67.60015,247.66693 C68.08549,247.90704 68.579865,247.93068 69.12853,248.03165 C69.17764,248.04068 69.228455,248.03928 69.277176,248.0502 C69.45044,248.08902 69.65178,248.22455 69.78897,248.28488 C70.02605,248.38913 70.96083,248.22475 70.96747,248.22424 C71.13962,248.21141 71.63386,248.31744 71.696014,248.32275 C71.84012,248.33505 71.986115,248.33463 72.12988,248.31885 C72.333595,248.28192 72.537315,248.245 72.74103,248.2081 C72.95267,248.14723 73.15699,248.04903 73.375946,248.02548 C78.0089,247.52713 73.251526,248.48526 78.49415,247.10547 C79.53002,246.83284 78.98072,247.24214 80.369514,246.43294 C80.744354,246.21454 81.0677,245.91763 81.40915,245.65002 C81.633766,245.47397 81.60082,245.27917 81.51059,245.02542 C81.4844,244.95177 81.43718,244.88737 81.400475,244.81834 L81.400475,244.81834" /></defs><use xlink:href="#DRAW_7610" fill="none" stroke="#26B8EE" stroke-width="0.04mm" /><text style="fill:#26B8EE; font-size:0.5mm; letter-spacing:2;"><textPath xlink:href="#DRAW_7610">||||||||||||||||||||||||||||||||||||||||||||||||||||||||||||||||||||||||||||||||||||||||||||||||||||||||||||||||||||||||||||||||||||||||||</textPath></text><path fill="none" stroke="#248B00" stroke-width="0.06mm" d="M25.596779,128.4534 C25.592102,128.0421 25.553535,127.62977 25.582748,127.21947 C25.60991,126.83797 25.78566,126.35867 25.875732,125.97768 C25.89518,125.89541 25.902725,125.81077 25.91623,125.72731 C25.977303,125.512085 26.038376,125.29686 26.09945,125.08163 L26.09945,125.08163" /><path fill="none" stroke="#248B00" stroke-width="0.06mm" d="M25.92781,125.69468 C25.861542,124.61329 25.844383,123.52777 25.729004,122.450516 C25.634789,121.570946 24.910149,119.334076 24.691467,118.81026 C23.86493,116.830444 22.88446,114.91809 22.025032,112.95234 C21.953087,112.78781 21.927727,112.60565 21.901146,112.428055 C21.863518,112.17651 21.855629,111.92142 21.83287,111.6681 L21.83287,111.6681" /><path fill="none" stroke="#248B00" stroke-width="0.06mm" d="M21.963867,111.86312 L21.928162,111.9008" /><path fill="none" stroke="#248B00" stroke-width="0.06mm" d="M21.846443,112.49432 C21.84903,112.16999 21.81253,111.880844 21.921715,111.57443 C22.406425,110.21423 23.951645,109.26307 24.986961,108.48335 C25.419281,108.15777 25.853905,107.83118 26.321266,107.558266 C27.446777,106.90105 28.613495,106.31708 29.759605,105.69649 C32.034885,104.304405 34.302757,102.90015 36.585438,101.52024 C36.8086,101.38534 37.058884,101.29708 37.276047,101.152725 C37.97527,100.687904 38.722103,99.82166 39.19509,99.24769 C39.36244,99.04462 39.497578,98.81477 39.615643,98.5796 C40.66303,96.49341 41.41647,94.24385 42.689625,92.28725 C44.347256,89.73979 46.511223,87.559296 48.357483,85.14505 C48.57402,84.8619 48.72383,84.531555 48.869484,84.206215 C49.51985,82.75345 49.67303,81.917465 50.10327,80.266174 C50.309967,79.47287 50.43191,78.65451 50.70507,77.88158 C52.15579,73.77666 51.982246,74.40858 54.12379,71.290245 L54.12379,71.290245" /><path fill="none" stroke="#248B00" stroke-width="0.06mm" d="M53.932976,71.78934 C54.275288,71.43603 54.624386,71.07047 55.107582,70.91992 C55.942482,70.65978 57.19587,70.918594 57.7535,71.639435 C59.35281,73.7068 60.931614,75.79068 62.466297,77.90646 C64.47421,80.67467 66.38284,83.51383 68.3801,86.28975 C68.46755,86.4113 68.58347,86.517 68.71415,86.59013 C68.9614,86.728516 69.23751,86.80744 69.49919,86.91609 L69.49919,86.91609" /><path fill="none" stroke="#248B00" stroke-width="0.06mm" d="M69.05885,87.018845 C69.64343,87.51921 70.26055,87.772446 70.96701,88.002335 L70.96701,88.002335" /><path fill="none" stroke="#248B00" stroke-width="0.06mm" d="M40.2612,102.1594 C40.625397,104.18421 41.00797,106.070984 41.863365,108.01492 C41.943718,108.197525 44.64779,112.9431 45.216988,113.94336 L45.216988,113.94336" /><defs><path id="DRAW_7642"  d="M30.282475,135.66501 C31.625912,132.25168 31.634392,132.79474 32.160213,130.20409 C32.220562,129.90674 32.21864,129.5966 32.302788,129.30508 C32.483505,128.67903 32.680565,128.05357 32.95198,127.46117 C33.327053,126.64253 33.808277,125.87684 34.236423,125.08467 L34.236423,125.08467" /></defs><use xlink:href="#DRAW_7642" fill="none" stroke="#248B00" stroke-width="0.04mm" /><text style="fill:#248B00; font-size:0.5mm; letter-spacing:2;"><textPath xlink:href="#DRAW_7642">||||||||||||||||||||||||||||||||||||||||||||||</textPath></text><defs><path id="DRAW_7643"  d="M30.282478,135.49863 L30.488007,134.71562" /></defs><use xlink:href="#DRAW_7643" fill="none" stroke="#248B00" stroke-width="0.04mm" /><text style="fill:#248B00; font-size:0.5mm; letter-spacing:2;"><textPath xlink:href="#DRAW_7643">||||</textPath></text><defs><path id="DRAW_7645"  d="M26.2062,124.967224 C26.93943,126.957115 27.439262,127.991135 27.827766,129.91394 C27.97644,130.64978 28.035233,131.40157 28.175518,132.13904 C28.256073,132.56248 28.432247,132.96623 28.489658,133.39343 C28.678387,134.79784 28.596321,135.1592 28.496353,136.42354 L28.496353,136.42354" /></defs><use xlink:href="#DRAW_7645" fill="none" stroke="#248B00" stroke-width="0.04mm" /><text style="fill:#248B00; font-size:0.5mm; letter-spacing:2;"><textPath xlink:href="#DRAW_7645">||||||||||||||||||||||||||||||||||||||||||||||||</textPath></text><path fill="none" stroke="#248B00" stroke-width="0.06mm" d="M42.2956,139.44362 C44.704422,138.27121 44.628403,138.35678 47.47535,136.64687 C47.83382,136.43155 48.128296,136.11398 48.50129,135.92494 C49.732502,135.30093 50.989243,134.7229 52.27286,134.21536 C53.91509,133.56604 54.78343,133.50949 56.539574,133.45789 C56.80683,133.45003 57.077366,133.47115 57.338615,133.52805 C58.51181,133.78352 58.970657,133.96333 59.9758,134.51714 C60.497276,134.80446 60.949894,135.23221 61.512024,135.42845 C67.14097,137.39365 66.22292,137.24837 69.28601,137.55322 L69.28601,137.55322" /><path fill="none" stroke="#248B00" stroke-width="0.06mm" d="M67.887726,137.15616 C68.08249,137.15018 68.27791,137.1554 68.472,137.13823 C68.61757,137.12535 68.84683,137.01128 68.930084,136.88774 C69.58377,135.91776 70.25722,134.95885 70.85014,133.95056 C71.86931,132.21744 71.85213,129.4626 71.681496,127.65437 C71.568085,126.45254 71.17554,125.292435 70.98655,124.10014 C70.85423,123.26532 70.833694,122.44411 71.32482,121.73219 C71.418755,121.59602 71.59983,121.41515 71.74762,121.335526 C72.066795,121.16354 72.55848,120.99597 72.90848,120.96776 C75.354,120.7706 77.80408,120.634605 80.252655,120.48001 C82.7782,120.32056 81.998955,120.52404 84.97774,119.863106 C85.37012,119.77605 85.737686,119.59819 86.12706,119.49855 C86.72062,119.34666 87.25821,119.45038 87.843544,119.56433 L87.843544,119.56433" /><path fill="none" stroke="#248B00" stroke-width="0.06mm" d="M41.80361,138.59769 C39.71551,136.64374 40.231438,137.25714 37.7535,133.41208 C37.21259,132.57272 36.72317,131.69298 36.340103,130.77083 C35.754097,129.36014 35.350258,127.88049 34.85533,126.43533 L34.85533,126.43533" /><path fill="none" stroke="#248B00" stroke-width="0.06mm" d="M47.224133,114.61824 C47.9247,115.06474 48.60431,115.54596 49.32584,115.957726 C49.559776,116.09123 49.817993,116.185326 50.079945,116.24802 C55.31917,117.50192 54.524155,117.284164 61.084293,116.8456 C64.63913,116.60794 64.35752,116.49043 67.43506,115.54977 C67.7857,115.4426 68.14759,115.36969 68.49037,115.239555 C69.84673,114.72463 72.17768,112.877106 72.72133,112.53912 C73.20775,112.23672 73.74558,112.026184 74.257706,111.769714 L74.257706,111.769714" /><defs><path id="DRAW_7651"  d="M75.3822,111.01723 C75.30679,111.556595 75.185165,111.91832 75.26756,112.41736 C75.36063,112.98105 75.83948,113.80955 76.057434,114.118355 C77.59868,116.302025 79.71937,117.37299 82.25139,118.03685 C84.016655,118.49968 86.74954,119.35237 88.76728,118.99189 C89.52128,118.85718 89.93898,118.52812 90.65742,118.14607 L90.65742,118.14607" /></defs><use xlink:href="#DRAW_7651" fill="none" stroke="#248B00" stroke-width="0.04mm" /><text style="fill:#248B00; font-size:0.5mm; letter-spacing:2;"><textPath xlink:href="#DRAW_7651">||||||||||||||||||||||||||||||||||||||||||||||||||||||||||||||||||||||||||||||</textPath></text><defs><path id="DRAW_7653"  d="M90.143265,117.59968 C90.32141,117.569695 90.50407,117.559586 90.677704,117.50973 C91.924255,117.15178 93.02485,116.08463 93.8546,115.20068 C94.25635,114.77269 94.82599,113.75516 95.04747,113.16515 C95.1986,112.76254 95.32346,112.34883 95.41688,111.92906 C95.503685,111.53899 95.71636,110.56607 95.62626,109.99716 C95.57703,109.686325 95.50135,109.37987 95.4203,109.075775 C95.39724,108.98922 95.35912,108.90647 95.31483,108.82861 C94.88884,108.07985 94.76872,107.92882 94.08525,107.27722 C93.6558,106.867805 93.083786,106.406876 92.46391,106.308014 C88.27393,105.63974 88.14187,105.709496 83.12065,106.58728 C82.16623,106.75412 81.21912,107.017296 80.331726,107.40625 C79.14695,107.92555 78.05499,108.63644 76.941895,109.2955 C76.378876,109.62886 75.94374,110.16278 75.53038,110.64919 C75.44627,110.74815 75.3519,110.96765 75.3798,111.10344 C75.41074,111.25403 75.468925,111.397705 75.51349,111.544846 L75.51349,111.544846" /></defs><use xlink:href="#DRAW_7653" fill="none" stroke="#248B00" stroke-width="0.04mm" /><text style="fill:#248B00; font-size:0.5mm; letter-spacing:2;"><textPath xlink:href="#DRAW_7653">|||||||||||||||||||||||||||||||||||||||||||||||||||||||||||||||||||||||||||||||||||||||||||||||||||||||||||||||||||||||||||||||||||||||||</textPath></text><path fill="none" stroke="#000000" stroke-width="0.06mm" d="M86.000694,51.98117 C85.64171,52.08844 85.33802,52.13291 85.03636,52.343506 C84.79953,52.508842 84.50276,52.79609 84.35245,53.041573 C83.57413,54.31273 82.69531,55.53486 82.07856,56.891777 C81.02086,59.21882 80.124115,61.62197 79.34579,64.05673 C78.65038,66.2321 78.46382,71.01241 78.48253,72.78281 C78.49959,74.396675 78.55883,76.02644 78.87822,77.60849 C79.43851,80.38379 80.678635,83.523 82.02276,86.076004 C83.535355,88.949005 85.2956,91.69171 86.715706,94.61154 C88.02047,97.294235 88.34991,99.89613 88.46976,102.85773 C88.50102,103.63024 88.32979,104.39771 88.25,105.16673 C88.24347,105.229706 88.26599,105.38382 88.21091,105.35261 C88.12767,105.305435 88.136894,105.17598 88.106346,105.08531 C88.0606,104.94955 88.02358,104.81099 87.98219,104.67383 L87.98219,104.67383" /><path fill="none" stroke="#FA356C" stroke-width="0.06mm" d="M75.70391,142.60976 C75.41446,142.41508 75.10187,142.25104 74.83554,142.02576 C74.484024,141.72841 74.17129,141.38728 73.85887,141.04909 C73.32329,140.46933 72.70024,139.9491 72.292694,139.27315 C68.63253,133.20251 67.91869,131.67134 66.19114,125.20214 C65.914505,124.166214 65.76854,123.096954 65.65001,122.031296 C64.986374,116.064545 64.81331,112.957535 65.50273,106.72768 C66.31215,99.41345 67.39161,97.60719 70.81204,90.50641 C71.23809,89.62194 71.76,88.77034 72.40028,88.02614 C74.03249,86.129 76.84049,82.809784 79.4549,81.09482 C79.784706,80.87848 80.148056,80.715904 80.51004,80.559235 C80.9293,80.37778 81.38252,80.228966 81.84204,80.309105 C82.078384,80.35033 82.30613,80.45328 82.545975,80.45913 C83.29736,80.477455 84.04848,80.41198 84.79946,80.38125 C85.07169,80.37011 85.343445,80.31781 85.61545,80.33352 C86.051476,80.3587 86.48661,80.41661 86.91465,80.503426 C87.21206,80.56374 88.161255,80.946884 88.42761,81.036934 C89.193756,81.295975 89.12552,81.13993 89.930595,81.70476 C90.56241,82.14802 91.137245,82.668076 91.7595,83.124664 C94.04871,84.804375 94.34631,84.70693 96.019424,86.50184 C96.24897,86.74809 96.467865,87.01448 96.61589,87.31684 C97.80289,89.74127 99.504105,94.458145 100.0054,96.60022 C101.57814,103.32066 101.714874,109.4858 101.701454,116.446976 C101.697365,118.56946 101.219246,122.50507 100.39741,124.630066 C99.82925,126.09914 98.91869,127.413765 98.26389,128.84631 C96.48785,132.73193 98.27555,130.19978 95.73386,134.11815 C94.88479,135.4271 93.85821,136.33667 93.350525,137.78104 C93.13352,138.3984 92.99584,139.04121 92.84379,139.6777 C92.21246,142.32047 92.70249,141.12135 92.17259,142.32777 L92.17259,142.32777" /><defs><path id="DRAW_7662"  d="M75.35145,141.66687 C75.16668,142.55023 75.27947,143.03189 75.60423,143.92375 C75.70153,144.19095 75.82408,144.45024 75.96881,144.69502 C76.00484,144.75597 76.60806,145.77255 76.94757,145.98393 C78.15516,146.73573 79.07907,147.31046 80.4342,147.65244 C82.80412,148.25052 85.18826,148.79338 87.579666,149.29877 C87.852394,149.35641 88.13623,149.34264 88.41496,149.33905 C89.66604,149.32294 90.83939,148.43697 91.57653,147.49077 C91.92505,147.04341 92.28176,146.05048 92.396614,145.72198 C92.573265,145.21674 92.651665,144.52779 92.49826,144.00499 C92.26452,143.20842 91.732414,142.69716 91.120514,142.14104 C90.29972,141.39507 88.940254,141.00899 87.90634,140.96425 C84.45478,140.81487 80.99659,140.85681 77.54213,140.90479 C76.9261,140.91335 75.7681,141.06775 75.28447,141.6405 C75.1648,141.78221 75.08009,141.95085 75.01851,142.12479 C74.79912,142.74442 74.96065,143.07745 75.21928,143.64076 L75.21928,143.64076" /></defs><use xlink:href="#DRAW_7662" fill="none" stroke="#FA356C" stroke-width="0.04mm" /><text style="fill:#FA356C; font-size:0.5mm; letter-spacing:2;"><textPath xlink:href="#DRAW_7662">|||||||||||||||||||||||||||||||||||||||||||||||||||||||||||||||||||||||||||||||||||||||||||||||||||||||||||||||||||||||||||||||||||||||||||||||||||||||||||||||||||||||||||||||||||</textPath></text><path fill="none" stroke="#FA356C" stroke-width="0.06mm" d="M75.99469,134.83757 C76.028564,134.42154 76.01951,133.99976 76.09631,133.58948 C76.23976,132.82324 76.455475,132.07214 76.653534,131.31818 C76.82124,130.67975 77.60039,131.33931 77.78812,131.56355 C77.89246,131.68819 78.79685,132.56628 78.67611,133.08662 C78.49784,133.85484 78.303604,134.61952 78.09391,135.37976 C78.07374,135.45291 77.97714,135.51648 77.9088,135.53195 C77.41817,135.64308 76.285736,134.75078 75.95944,134.52034 L75.95944,134.52034" /><path fill="none" stroke="#FA356C" stroke-width="0.06mm" d="M82.73549,129.3565 C82.88365,129.19847 83.97003,127.617966 84.29103,128.39116 C84.326836,128.4774 85.60078,130.70892 85.466934,131.74098 C85.32171,132.86073 84.14953,133.3668 83.324425,133.9501 C83.21945,134.0243 83.07153,133.96512 82.99413,133.88503 C82.58519,133.4619 82.23676,131.37555 82.14476,131.0413 C82.0894,130.84016 81.97874,130.65805 81.91133,130.46062 C81.763054,130.02634 81.908966,129.44481 82.21764,129.1129 C82.301506,129.02274 82.40426,128.9522 82.497574,128.87183 L82.497574,128.87183" /><path fill="none" stroke="#FA356C" stroke-width="0.06mm" d="M89.84636,128.19331 C90.03879,127.77998 90.22137,127.36192 90.42363,126.953316 C90.69001,126.4152 91.38115,127.266815 91.46758,127.50959 C91.70582,128.17873 91.90485,128.86143 92.102394,129.5437 C92.17377,129.7902 92.00023,130.10605 91.83971,130.27414 C91.32837,130.80962 90.80929,131.33784 90.28079,131.85638 C90.19454,131.94101 90.036224,131.95352 89.92824,131.91693 C89.56477,131.79376 89.30143,131.28813 89.16875,130.97838 C88.67397,129.82327 88.426094,129.55327 89.09012,128.55241 C89.42756,128.04381 89.30823,128.12074 89.74062,128.09637 L89.74062,128.09637" /><path fill="none" stroke="#FA356C" stroke-width="0.06mm" d="M84.400856,138.64435 C84.57088,137.99284 84.59493,137.66606 84.901115,137.12663 C85.079384,136.81256 85.27756,136.50995 85.47892,136.21016 C85.51919,136.1502 85.6149,136.08994 85.68393,136.06996 C85.99359,135.98041 86.359886,136.34085 86.53197,136.4953 C86.84507,136.77635 87.18343,137.1564 87.09235,137.61264 C87.0464,137.84274 86.89479,138.19221 86.777336,138.35197 C86.46864,138.77182 85.94489,139.80135 85.21045,139.53992 C84.92106,139.4369 84.73463,139.28459 84.5373,139.0543 C83.886284,138.2946 83.98544,138.6329 83.889786,138.10683 L83.889786,138.10683" /><path fill="none" stroke="#FA356C" stroke-width="0.06mm" d="M90.48079,122.544815 C90.61165,122.20734 91.09846,121.20181 91.633354,121.340706 C91.91989,121.415115 92.175224,121.88782 92.258125,122.04721 C92.48618,122.48566 92.67038,122.94586 92.857574,123.403244 C92.908356,123.52731 92.92922,123.74681 92.92095,123.88025 C92.8695,124.710815 91.96228,125.05651 91.35569,125.41147 C91.2997,125.44424 91.17337,125.44632 91.111855,125.434235 C90.825134,125.37793 90.584145,124.96563 90.483894,124.76342 C90.226326,124.24389 89.6901,123.42081 89.94576,122.747 C89.96004,122.70937 89.98931,122.67846 90.01812,122.65036 C90.197426,122.475555 90.385315,122.30977 90.56891,122.139465 L90.56891,122.139465" /><path fill="none" stroke="#FA356C" stroke-width="0.06mm" d="M91.546974,154.33855 C91.81095,153.93958 92.09657,153.5541 92.338905,153.14162 C93.04236,151.94426 93.66451,150.69983 94.38293,149.5114 C94.405754,149.47363 94.461845,149.56293 94.477234,149.60428 C94.50635,149.68248 94.51171,149.76906 94.50988,149.8525 C94.3679,156.34105 93.59952,154.1685 94.44596,156.43579 L94.44596,156.43579" /><path fill="none" stroke="#FA356C" stroke-width="0.06mm" d="M89.89923,158.23344 C96.521675,157.44466 94.005104,157.37029 97.42425,157.58136 L97.42425,157.58136" /><path fill="none" stroke="#FA356C" stroke-width="0.06mm" d="M101.52159,153.53665 C101.8386,156.44093 101.53913,155.38116 101.997406,156.80591 L101.997406,156.80591" /><path fill="none" stroke="#FA356C" stroke-width="0.06mm" d="M101.15151,154.14468 C101.49889,153.9741 101.67207,153.83813 102.02126,153.78674 C102.90738,153.65631 103.84751,154.13815 104.041824,155.05392 C104.16002,155.61096 103.75069,156.1987 103.31011,156.49883 C103.11457,156.63203 102.929016,156.69736 102.6984,156.75906 C102.658104,156.76985 102.615166,156.77205 102.57361,156.76846 C102.38672,156.75235 102.201225,156.72293 102.01504,156.70016 L102.01504,156.70016" /><path fill="none" stroke="#FA356C" stroke-width="0.06mm" d="M104.9757,153.66882 C104.82172,154.2005 104.66774,154.73218 104.51376,155.26385 C104.48114,155.46645 104.45284,156.07346 104.41589,155.87161 C104.3422,155.46912 104.38481,155.05305 104.400314,154.64418 C104.40226,154.5928 104.426056,154.53561 104.46769,154.50546 C104.59775,154.41127 104.9435,154.84784 105.2871,154.78009 C105.555786,154.7271 105.80266,154.56187 105.99015,154.36642 C106.05667,154.29707 106.108475,154.21497 106.16718,154.13889 C106.19051,154.10866 106.207954,154.07314 106.23627,154.0475 C106.407616,153.89241 106.58838,153.74805 106.764435,153.59833 L106.764435,153.59833" /><path fill="none" stroke="#FA356C" stroke-width="0.06mm" d="M107.66321,154.44427 C107.433044,154.63383 107.13246,154.8087 107.1554,155.14122 C107.220245,156.08087 108.584305,156.42798 109.05551,155.48874 C109.194855,155.21098 109.28697,154.86166 109.19288,154.55417 C109.086365,154.20605 108.74306,153.96762 108.37772,154.03093 C108.284004,154.04718 108.07586,154.08788 107.986275,154.1748 C107.68631,154.46591 107.40081,154.77156 107.10808,155.06993 L107.10808,155.06993" /><use xlink:href="#spring" width="3.6" height="3.6" x="-1.8" y="-1.8" transform="translate(46.806446 198.47792) rotate(357)"/>
<use xlink:href="#rain" width="3.6" height="3.6" x="-1.8" y="-1.8" transform="translate(54.42788 102.245895) rotate(0)"/>
<use xlink:href="#rain" width="3.6" height="3.6" x="-1.8" y="-1.8" transform="translate(57.349228 176.48973) rotate(0)"/>
<use xlink:href="#stalactite" width="3.6" height="3.6" x="-1.8" y="-1.8" transform="translate(82.1363 83.95703) rotate(0)"/>
</g>
<g>
<line fill="none" stroke="#00aeef" stroke-width="0.05mm" stroke-dasharray="0.4,0.2" opacity="0.08" x1="92.00" y1="140.00" x2="87.22" y2="137.95" />
<line fill="none" stroke="#5674b9" stroke-width="0.05mm" stroke-dasharray="0.4,0.2" opacity="0.07" x1="92.00" y1="140.00" x2="87.17" y2="139.29" />
<line fill="none" stroke="#00aeef" stroke-width="0.05mm" stroke-dasharray="0.4,0.2" opacity="0.95" x1="92.00" y1="140.00" x2="101.88" y2="116.87" />
<line fill="none" stroke="#00aeef" stroke-width="0.05mm" stroke-dasharray="0.4,0.2" opacity="0.99" x1="92.00" y1="140.00" x2="98.64" y2="91.01" />
<line fill="none" stroke="#00aeef" stroke-width="0.05mm" stroke-dasharray="0.4,0.2" opacity="0.93" x1="92.00" y1="140.00" x2="89.87" y2="80.21" />
<line fill="none" stroke="#00aeef" stroke-width="0.05mm" stroke-dasharray="0.4,0.2" opacity="0.96" x1="92.00" y1="140.00" x2="72.19" y2="89.77" />
<line fill="none" stroke="#5674b9" stroke-width="0.05mm" stroke-dasharray="0.4,0.2" opacity="1.00" x1="92.00" y1="140.00" x2="65.32" y2="114.91" />
<line fill="none" stroke="#5674b9" stroke-width="0.05mm" stroke-dasharray="0.4,0.2" opacity="0.90" x1="92.00" y1="140.00" x2="77.15" y2="126.26" />
<line fill="none" stroke="#5674b9" stroke-width="0.05mm" stroke-dasharray="0.4,0.2" opacity="0.83" x1="92.00" y1="140.00" x2="77.68" y2="143.77" />
<line fill="none" stroke="#00aeef" stroke-width="0.05mm" stroke-dasharray="0.4,0.2" opacity="0.92" x1="92.00" y1="140.00" x2="76.10" y2="145.49" />
<line fill="none" stroke="#5674b9" stroke-width="0.05mm" stroke-dasharray="0.4,0.2" opacity="0.96" x1="92.00" y1="140.00" x2="88.41" y2="148.64" />
<line fill="none" stroke="#5674b9" stroke-width="0.05mm" stroke-dasharray="0.4,0.2" opacity="0.40" x1="92.00" y1="140.00" x2="88.39" y2="136.28" />
<line fill="none" stroke="#00aeef" stroke-width="0.05mm" stroke-dasharray="0.4,0.2" opacity="0.38" x1="92.00" y1="140.00" x2="94.18" y2="108.21" />
<line fill="none" stroke="#00aeef" stroke-width="0.05mm" stroke-dasharray="0.4,0.2" opacity="0.38" x1="92.00" y1="140.00" x2="94.27" y2="108.70" />
<line fill="none" stroke="#00aeef" stroke-width="0.05mm" stroke-dasharray="0.4,0.2" opacity="0.38" x1="92.00" y1="140.00" x2="94.41" y2="108.61" />
<line fill="none" stroke="#111111" stroke-width="0.05mm" x1="92.00" y1="140.00" x2="94.00" y2="108.78" />
<line fill="none" stroke="#00aeef" stroke-width="0.05mm" stroke-dasharray="0.4,0.2" opacity="0.08" x1="94.00" y1="108.78" x2="94.17" y2="110.06" />
<line fill="none" stroke="#5674b9" stroke-width="0.05mm" stroke-dasharray="0.4,0.2" opacity="0.96" x1="94.00" y1="108.78" x2="95.27" y2="112.64" />
<line fill="none" stroke="#00aeef" stroke-width="0.05mm" stroke-dasharray="0.4,0.2" opacity="0.73" x1="94.00" y1="108.78" x2="110.43" y2="97.85" />
<line fill="none" stroke="#00aeef" stroke-width="0.05mm" stroke-dasharray="0.4,0.2" opacity="0.74" x1="94.00" y1="108.78" x2="109.41" y2="86.17" />
<line fill="none" stroke="#00aeef" stroke-width="0.05mm" stroke-dasharray="0.4,0.2" opacity="0.80" x1="94.00" y1="108.78" x2="104.74" y2="67.95" />
<line fill="none" stroke="#00aeef" stroke-width="0.05mm" stroke-dasharray="0.4,0.2" opacity="0.71" x1="94.00" y1="108.78" x2="84.28" y2="54.51" />
<line fill="none" stroke="#00aeef" stroke-width="0.05mm" stroke-dasharray="0.4,0.2" opacity="0.63" x1="94.00" y1="108.78" x2="78.32" y2="77.58" />
<line fill="none" stroke="#00aeef" stroke-width="0.05mm" stroke-dasharray="0.4,0.2" opacity="0.55" x1="94.00" y1="108.78" x2="87.01" y2="94.32" />
<line fill="none" stroke="#00aeef" stroke-width="0.05mm" stroke-dasharray="0.4,0.2" opacity="0.75" x1="94.00" y1="108.78" x2="97.76" y2="87.74" />
<line fill="none" stroke="#00aeef" stroke-width="0.05mm" stroke-dasharray="0.4,0.2" opacity="0.77" x1="94.00" y1="108.78" x2="96.47" y2="77.17" />
<line fill="none" stroke="#00aeef" stroke-width="0.05mm" stroke-dasharray="0.4,0.2" opacity="0.78" x1="94.00" y1="108.78" x2="92.32" y2="81.39" />
<line fill="none" stroke="#111111" stroke-width="0.05mm" x1="94.00" y1="108.78" x2="93.14" y2="56.15" />
<line fill="none" stroke="#00aeef" stroke-width="0.05mm" stroke-dasharray="0.4,0.2" opacity="0.23" x1="93.14" y1="56.15" x2="93.13" y2="54.92" />
<line fill="none" stroke="#00aeef" stroke-width="0.05mm" stroke-dasharray="0.4,0.2" opacity="0.23" x1="93.14" y1="56.15" x2="93.13" y2="54.92" />
<line fill="none" stroke="#00aeef" stroke-width="0.05mm" stroke-dasharray="0.4,0.2" opacity="0.14" x1="93.14" y1="56.15" x2="93.00" y2="57.87" />
<line fill="none" stroke="#5674b9" stroke-width="0.05mm" stroke-dasharray="0.4,0.2" opacity="0.78" x1="93.14" y1="56.15" x2="73.05" y2="60.86" />
<line fill="none" stroke="#5674b9" stroke-width="0.05mm" stroke-dasharray="0.4,0.2" opacity="0.79" x1="93.14" y1="56.15" x2="92.76" y2="58.43" />
<line fill="none" stroke="#5674b9" stroke-width="0.05mm" stroke-dasharray="0.4,0.2" opacity="0.80" x1="93.14" y1="56.15" x2="73.13" y2="61.65" />
<line fill="none" stroke="#5674b9" stroke-width="0.05mm" stroke-dasharray="0.4,0.2" opacity="0.74" x1="93.14" y1="56.15" x2="91.26" y2="67.54" />
<line fill="none" stroke="#00aeef" stroke-width="0.05mm" stroke-dasharray="0.4,0.2" opacity="0.90" x1="93.14" y1="56.15" x2="85.05" y2="52.36" />
<line fill="none" stroke="#111111" stroke-width="0.05mm" x1="93.14" y1="56.15" x2="68.38" y2="52.68" />
<line fill="none" stroke="#00aeef" stroke-width="0.05mm" stroke-dasharray="0.4,0.2" opacity="0.87" x1="68.38" y1="52.68" x2="82.05" y2="52.61" />
<line fill="none" stroke="#00aeef" stroke-width="0.05mm" stroke-dasharray="0.4,0.2" opacity="0.81" x1="68.38" y1="52.68" x2="67.40" y2="35.79" />
<line fill="none" stroke="#00aeef" stroke-width="0.05mm" stroke-dasharray="0.4,0.2" opacity="0.85" x1="68.38" y1="52.68" x2="61.62" y2="34.97" />
<line fill="none" stroke="#00aeef" stroke-width="0.05mm" stroke-dasharray="0.4,0.2" opacity="0.90" x1="68.38" y1="52.68" x2="39.39" y2="51.35" />
<line fill="none" stroke="#00aeef" stroke-width="0.05mm" stroke-dasharray="0.4,0.2" opacity="0.92" x1="68.38" y1="52.68" x2="43.99" y2="62.97" />
<line fill="none" stroke="#00aeef" stroke-width="0.05mm" stroke-dasharray="0.4,0.2" opacity="0.96" x1="68.38" y1="52.68" x2="58.02" y2="65.61" />
<line fill="none" stroke="#00aeef" stroke-width="0.05mm" stroke-dasharray="0.4,0.2" opacity="0.92" x1="68.38" y1="52.68" x2="84.94" y2="70.35" />
<line fill="none" stroke="#5674b9" stroke-width="0.05mm" stroke-dasharray="0.4,0.2" opacity="0.98" x1="68.38" y1="52.68" x2="91.32" y2="64.85" />
<line fill="none" stroke="#111111" stroke-width="0.05mm" x1="68.38" y1="52.68" x2="62.90" y2="32.21" />
<line fill="none" stroke="#5674b9" stroke-width="0.05mm" stroke-dasharray="0.4,0.2" opacity="0.96" x1="62.90" y1="32.21" x2="72.96" y2="69.42" />
<line fill="none" stroke="#5674b9" stroke-width="0.05mm" stroke-dasharray="0.4,0.2" opacity="0.95" x1="62.90" y1="32.21" x2="67.33" y2="84.46" />
<line fill="none" stroke="#5674b9" stroke-width="0.05mm" stroke-dasharray="0.4,0.2" opacity="0.93" x1="62.90" y1="32.21" x2="55.39" y2="80.57" />
<line fill="none" stroke="#5674b9" stroke-width="0.05mm" stroke-dasharray="0.4,0.2" opacity="0.92" x1="62.90" y1="32.21" x2="41.34" y2="87.30" />
<line fill="none" stroke="#5674b9" stroke-width="0.05mm" stroke-dasharray="0.4,0.2" opacity="0.91" x1="62.90" y1="32.21" x2="22.57" y2="68.05" />
<line fill="none" stroke="#5674b9" stroke-width="0.05mm" stroke-dasharray="0.4,0.2" opacity="0.91" x1="62.90" y1="32.21" x2="59.62" y2="34.09" />
<line fill="none" stroke="#5674b9" stroke-width="0.05mm" stroke-dasharray="0.4,0.2" opacity="0.93" x1="62.90" y1="32.21" x2="49.65" y2="29.62" />
<line fill="none" stroke="#5674b9" stroke-width="0.05mm" stroke-dasharray="0.4,0.2" opacity="0.92" x1="62.90" y1="32.21" x2="53.18" y2="19.90" />
<line fill="none" stroke="#00aeef" stroke-width="0.05mm" stroke-dasharray="0.4,0.2" opacity="0.09" x1="62.90" y1="32.21" x2="47.47" y2="33.91" />
<line fill="none" stroke="#111111" stroke-width="0.05mm" x1="62.90" y1="32.21" x2="49.18" y2="32.90" />
<line fill="none" stroke="#111111" stroke-width="0.05mm" x1="49.18" y1="32.90" x2="37.51" y2="49.80" />
<line fill="none" stroke="#5674b9" stroke-width="0.05mm" stroke-dasharray="0.4,0.2" opacity="0.99" x1="37.51" y1="49.80" x2="20.94" y2="61.16" />
<line fill="none" stroke="#5674b9" stroke-width="0.05mm" stroke-dasharray="0.4,0.2" opacity="0.98" x1="37.51" y1="49.80" x2="21.51" y2="80.53" />
<line fill="none" stroke="#5674b9" stroke-width="0.05mm" stroke-dasharray="0.4,0.2" opacity="0.95" x1="37.51" y1="49.80" x2="37.00" y2="53.48" />
<line fill="none" stroke="#5674b9" stroke-width="0.05mm" stroke-dasharray="0.4,0.2" opacity="0.96" x1="37.51" y1="49.80" x2="47.65" y2="83.83" />
<line fill="none" stroke="#5674b9" stroke-width="0.05mm" stroke-dasharray="0.4,0.2" opacity="0.92" x1="37.51" y1="49.80" x2="59.16" y2="66.60" />
<line fill="none" stroke="#5674b9" stroke-width="0.05mm" stroke-dasharray="0.4,0.2" opacity="0.98" x1="37.51" y1="49.80" x2="55.46" y2="52.08" />
<line fill="none" stroke="#5674b9" stroke-width="0.05mm" stroke-dasharray="0.4,0.2" opacity="0.99" x1="37.51" y1="49.80" x2="48.97" y2="45.24" />
<line fill="none" stroke="#00aeef" stroke-width="0.05mm" stroke-dasharray="0.4,0.2" opacity="0.19" x1="37.51" y1="49.80" x2="30.12" y2="72.76" />
<line fill="none" stroke="#00aeef" stroke-width="0.05mm" stroke-dasharray="0.4,0.2" opacity="0.19" x1="37.51" y1="49.80" x2="29.57" y2="74.24" />
<line fill="none" stroke="#00aeef" stroke-width="0.05mm" stroke-dasharray="0.4,0.2" opacity="0.19" x1="37.51" y1="49.80" x2="30.20" y2="72.83" />
<line fill="none" stroke="#00aeef" stroke-width="0.05mm" stroke-dasharray="0.4,0.2" opacity="0.19" x1="37.51" y1="49.80" x2="29.44" y2="73.99" />
<line fill="none" stroke="#00aeef" stroke-width="0.05mm" stroke-dasharray="0.4,0.2" opacity="0.19" x1="37.51" y1="49.80" x2="29.48" y2="74.07" />
<line fill="none" stroke="#00aeef" stroke-width="0.05mm" stroke-dasharray="0.4,0.2" opacity="0.19" x1="37.51" y1="49.80" x2="30.14" y2="73.37" />
<line fill="none" stroke="#00aeef" stroke-width="0.05mm" stroke-dasharray="0.4,0.2" opacity="0.19" x1="37.51" y1="49.80" x2="29.20" y2="75.52" />
<line fill="none" stroke="#00aeef" stroke-width="0.05mm" stroke-dasharray="0.4,0.2" opacity="0.19" x1="37.51" y1="49.80" x2="29.65" y2="73.93" />
<line fill="none" stroke="#00aeef" stroke-width="0.05mm" stroke-dasharray="0.4,0.2" opacity="0.19" x1="37.51" y1="49.80" x2="28.90" y2="75.91" />
<line fill="none" stroke="#111111" stroke-width="0.05mm" x1="37.51" y1="49.80" x2="29.56" y2="73.82" />
<line fill="none" stroke="#00aeef" stroke-width="0.05mm" stroke-dasharray="0.4,0.2" opacity="0.90" x1="29.56" y1="73.82" x2="34.31" y2="74.14" />
<line fill="none" stroke="#5674b9" stroke-width="0.05mm" stroke-dasharray="0.4,0.2" opacity="0.95" x1="29.56" y1="73.82" x2="38.68" y2="100.89" />
<line fill="none" stroke="#5674b9" stroke-width="0.05mm" stroke-dasharray="0.4,0.2" opacity="0.86" x1="29.56" y1="73.82" x2="32.77" y2="113.97" />
<line fill="none" stroke="#5674b9" stroke-width="0.05mm" stroke-dasharray="0.4,0.2" opacity="0.83" x1="29.56" y1="73.82" x2="24.85" y2="110.69" />
<line fill="none" stroke="#5674b9" stroke-width="0.05mm" stroke-dasharray="0.4,0.2" opacity="0.91" x1="29.56" y1="73.82" x2="20.16" y2="88.53" />
<line fill="none" stroke="#00aeef" stroke-width="0.05mm" stroke-dasharray="0.4,0.2" opacity="0.89" x1="29.56" y1="73.82" x2="20.03" y2="83.36" />
<line fill="none" stroke="#00aeef" stroke-width="0.05mm" stroke-dasharray="0.4,0.2" opacity="0.96" x1="29.56" y1="73.82" x2="25.25" y2="72.76" />
<line fill="none" stroke="#00aeef" stroke-width="0.05mm" stroke-dasharray="0.4,0.2" opacity="0.92" x1="29.56" y1="73.82" x2="29.90" y2="69.18" />
<line fill="none" stroke="#00aeef" stroke-width="0.05mm" stroke-dasharray="0.4,0.2" opacity="0.77" x1="29.56" y1="73.82" x2="34.50" y2="53.81" />
<line fill="none" stroke="#00aeef" stroke-width="0.05mm" stroke-dasharray="0.4,0.2" opacity="0.79" x1="29.56" y1="73.82" x2="40.74" y2="61.91" />
<line fill="none" stroke="#00aeef" stroke-width="0.05mm" stroke-dasharray="0.4,0.2" opacity="0.81" x1="29.56" y1="73.82" x2="33.32" y2="74.02" />
<line fill="none" stroke="#111111" stroke-width="0.05mm" x1="29.56" y1="73.82" x2="27.85" y2="85.26" />
<line fill="none" stroke="#5674b9" stroke-width="0.05mm" stroke-dasharray="0.4,0.2" opacity="0.94" x1="27.85" y1="85.26" x2="25.03" y2="75.88" />
<line fill="none" stroke="#5674b9" stroke-width="0.05mm" stroke-dasharray="0.4,0.2" opacity="0.88" x1="27.85" y1="85.26" x2="28.65" y2="56.61" />
<line fill="none" stroke="#5674b9" stroke-width="0.05mm" stroke-dasharray="0.4,0.2" opacity="0.85" x1="27.85" y1="85.26" x2="32.02" y2="58.97" />
<line fill="none" stroke="#00aeef" stroke-width="0.05mm" stroke-dasharray="0.4,0.2" opacity="0.89" x1="27.85" y1="85.26" x2="30.30" y2="84.48" />
<line fill="none" stroke="#00aeef" stroke-width="0.05mm" stroke-dasharray="0.4,0.2" opacity="0.96" x1="27.85" y1="85.26" x2="25.93" y2="89.63" />
<line fill="none" stroke="#5674b9" stroke-width="0.05mm" stroke-dasharray="0.4,0.2" opacity="0.97" x1="27.85" y1="85.26" x2="25.97" y2="111.34" />
<line fill="none" stroke="#5674b9" stroke-width="0.05mm" stroke-dasharray="0.4,0.2" opacity="0.87" x1="27.85" y1="85.26" x2="27.89" y2="131.43" />
<line fill="none" stroke="#5674b9" stroke-width="0.05mm" stroke-dasharray="0.4,0.2" opacity="0.93" x1="27.85" y1="85.26" x2="36.22" y2="132.81" />
<line fill="none" stroke="#5674b9" stroke-width="0.05mm" stroke-dasharray="0.4,0.2" opacity="0.89" x1="27.85" y1="85.26" x2="37.16" y2="114.54" />
<line fill="none" stroke="#5674b9" stroke-width="0.05mm" stroke-dasharray="0.4,0.2" opacity="0.99" x1="27.85" y1="85.26" x2="25.56" y2="106.23" />
<line fill="none" stroke="#5674b9" stroke-width="0.05mm" stroke-dasharray="0.4,0.2" opacity="0.95" x1="27.85" y1="85.26" x2="39.85" y2="111.47" />
<line fill="none" stroke="#5674b9" stroke-width="0.05mm" stroke-dasharray="0.4,0.2" opacity="0.96" x1="27.85" y1="85.26" x2="31.77" y2="90.28" />
<line fill="none" stroke="#00aeef" stroke-width="0.05mm" stroke-dasharray="0.4,0.2" opacity="0.29" x1="27.85" y1="85.26" x2="27.13" y2="79.03" />
<line fill="none" stroke="#00aeef" stroke-width="0.05mm" stroke-dasharray="0.4,0.2" opacity="0.11" x1="27.85" y1="85.26" x2="25.56" y2="90.66" />
<line fill="none" stroke="#00aeef" stroke-width="0.05mm" stroke-dasharray="0.4,0.2" opacity="0.19" x1="27.85" y1="85.26" x2="29.20" y2="96.71" />
<line fill="none" stroke="#5674b9" stroke-width="0.05mm" stroke-dasharray="0.4,0.2" opacity="0.91" x1="27.85" y1="85.26" x2="34.41" y2="134.81" />
<line fill="none" stroke="#5674b9" stroke-width="0.05mm" stroke-dasharray="0.4,0.2" opacity="0.91" x1="27.85" y1="85.26" x2="34.57" y2="134.87" />
<line fill="none" stroke="#5674b9" stroke-width="0.05mm" stroke-dasharray="0.4,0.2" opacity="0.91" x1="27.85" y1="85.26" x2="28.97" y2="93.51" />
<line fill="none" stroke="#111111" stroke-width="0.05mm" x1="27.85" y1="85.26" x2="34.44" y2="134.95" />
<line fill="none" stroke="#00aeef" stroke-width="0.05mm" stroke-dasharray="0.4,0.2" opacity="0.09" x1="34.44" y1="134.95" x2="34.30" y2="125.41" />
<line fill="none" stroke="#5674b9" stroke-width="0.05mm" stroke-dasharray="0.4,0.2" opacity="0.13" x1="34.44" y1="134.95" x2="36.82" y2="132.98" />
<line fill="none" stroke="#5674b9" stroke-width="0.05mm" stroke-dasharray="0.4,0.2" opacity="0.89" x1="34.44" y1="134.95" x2="47.06" y2="142.02" />
<line fill="none" stroke="#5674b9" stroke-width="0.05mm" stroke-dasharray="0.4,0.2" opacity="0.90" x1="34.44" y1="134.95" x2="50.30" y2="132.12" />
<line fill="none" stroke="#5674b9" stroke-width="0.05mm" stroke-dasharray="0.4,0.2" opacity="0.91" x1="34.44" y1="134.95" x2="35.70" y2="124.87" />
<line fill="none" stroke="#5674b9" stroke-width="0.05mm" stroke-dasharray="0.4,0.2" opacity="0.99" x1="34.44" y1="134.95" x2="24.04" y2="129.80" />
<line fill="none" stroke="#5674b9" stroke-width="0.05mm" stroke-dasharray="0.4,0.2" opacity="0.87" x1="34.44" y1="134.95" x2="42.32" y2="129.95" />
<line fill="none" stroke="#111111" stroke-width="0.05mm" x1="34.44" y1="134.95" x2="49.16" y2="133.19" />
<line fill="none" stroke="#00aeef" stroke-width="0.05mm" stroke-dasharray="0.4,0.2" opacity="0.20" x1="49.16" y1="133.19" x2="63.44" y2="131.44" />
<line fill="none" stroke="#00aeef" stroke-width="0.05mm" stroke-dasharray="0.4,0.2" opacity="0.27" x1="49.16" y1="133.19" x2="38.03" y2="134.19" />
<line fill="none" stroke="#5674b9" stroke-width="0.05mm" stroke-dasharray="0.4,0.2" opacity="0.09" x1="49.16" y1="133.19" x2="41.66" y2="137.33" />
<line fill="none" stroke="#00aeef" stroke-width="0.05mm" stroke-dasharray="0.4,0.2" opacity="0.94" x1="49.16" y1="133.19" x2="39.78" y2="156.20" />
<line fill="none" stroke="#5674b9" stroke-width="0.05mm" stroke-dasharray="0.4,0.2" opacity="0.97" x1="49.16" y1="133.19" x2="47.98" y2="151.90" />
<line fill="none" stroke="#00aeef" stroke-width="0.05mm" stroke-dasharray="0.4,0.2" opacity="0.85" x1="49.16" y1="133.19" x2="53.62" y2="141.30" />
<line fill="none" stroke="#00aeef" stroke-width="0.05mm" stroke-dasharray="0.4,0.2" opacity="0.36" x1="49.16" y1="133.19" x2="46.52" y2="151.10" />
<line fill="none" stroke="#00aeef" stroke-width="0.05mm" stroke-dasharray="0.4,0.2" opacity="0.36" x1="49.16" y1="133.19" x2="46.58" y2="151.00" />
<line fill="none" stroke="#00aeef" stroke-width="0.05mm" stroke-dasharray="0.4,0.2" opacity="0.36" x1="49.16" y1="133.19" x2="46.67" y2="150.80" />
<line fill="none" stroke="#00aeef" stroke-width="0.05mm" stroke-dasharray="0.4,0.2" opacity="0.36" x1="49.16" y1="133.19" x2="46.52" y2="151.10" />
<line fill="none" stroke="#111111" stroke-width="0.05mm" x1="49.16" y1="133.19" x2="46.64" y2="150.95" />
<line fill="none" stroke="#00aeef" stroke-width="0.05mm" stroke-dasharray="0.4,0.2" opacity="0.25" x1="46.64" y1="150.95" x2="41.77" y2="152.94" />
<line fill="none" stroke="#5674b9" stroke-width="0.05mm" stroke-dasharray="0.4,0.2" opacity="0.96" x1="46.64" y1="150.95" x2="38.16" y2="136.17" />
<line fill="none" stroke="#5674b9" stroke-width="0.05mm" stroke-dasharray="0.4,0.2" opacity="0.98" x1="46.64" y1="150.95" x2="41.80" y2="149.84" />
<line fill="none" stroke="#00aeef" stroke-width="0.05mm" stroke-dasharray="0.4,0.2" opacity="0.94" x1="46.64" y1="150.95" x2="38.45" y2="162.16" />
<line fill="none" stroke="#00aeef" stroke-width="0.05mm" stroke-dasharray="0.4,0.2" opacity="0.96" x1="46.64" y1="150.95" x2="35.22" y2="169.09" />
<line fill="none" stroke="#00aeef" stroke-width="0.05mm" stroke-dasharray="0.4,0.2" opacity="0.97" x1="46.64" y1="150.95" x2="39.83" y2="167.07" />
<line fill="none" stroke="#111111" stroke-width="0.05mm" x1="46.64" y1="150.95" x2="32.38" y2="175.30" />
<line fill="none" stroke="#5674b9" stroke-width="0.05mm" stroke-dasharray="0.4,0.2" opacity="0.92" x1="32.38" y1="175.30" x2="37.84" y2="174.76" />
<line fill="none" stroke="#5674b9" stroke-width="0.05mm" stroke-dasharray="0.4,0.2" opacity="0.10" x1="32.38" y1="175.30" x2="31.18" y2="174.20" />
<line fill="none" stroke="#5674b9" stroke-width="0.05mm" stroke-dasharray="0.4,0.2" opacity="0.99" x1="32.38" y1="175.30" x2="37.69" y2="174.42" />
<line fill="none" stroke="#5674b9" stroke-width="0.05mm" stroke-dasharray="0.4,0.2" opacity="0.95" x1="32.38" y1="175.30" x2="44.30" y2="175.84" />
<line fill="none" stroke="#00aeef" stroke-width="0.05mm" stroke-dasharray="0.4,0.2" opacity="0.96" x1="32.38" y1="175.30" x2="68.75" y2="188.98" />
<line fill="none" stroke="#00aeef" stroke-width="0.05mm" stroke-dasharray="0.4,0.2" opacity="0.98" x1="32.38" y1="175.30" x2="58.96" y2="200.94" />
<line fill="none" stroke="#00aeef" stroke-width="0.05mm" stroke-dasharray="0.4,0.2" opacity="0.97" x1="32.38" y1="175.30" x2="40.30" y2="202.86" />
<line fill="none" stroke="#00aeef" stroke-width="0.05mm" stroke-dasharray="0.4,0.2" opacity="0.92" x1="32.38" y1="175.30" x2="30.79" y2="197.49" />
<line fill="none" stroke="#00aeef" stroke-width="0.05mm" stroke-dasharray="0.4,0.2" opacity="0.66" x1="32.38" y1="175.30" x2="52.74" y2="201.59" />
<line fill="none" stroke="#00aeef" stroke-width="0.05mm" stroke-dasharray="0.4,0.2" opacity="0.61" x1="32.38" y1="175.30" x2="32.84" y2="177.44" />
<line fill="none" stroke="#00aeef" stroke-width="0.05mm" stroke-dasharray="0.4,0.2" opacity="0.74" x1="32.38" y1="175.30" x2="51.03" y2="215.39" />
<line fill="none" stroke="#00aeef" stroke-width="0.05mm" stroke-dasharray="0.4,0.2" opacity="0.67" x1="32.38" y1="175.30" x2="70.49" y2="197.50" />
<line fill="none" stroke="#00aeef" stroke-width="0.05mm" stroke-dasharray="0.4,0.2" opacity="0.67" x1="32.38" y1="175.30" x2="77.16" y2="191.36" />
<line fill="none" stroke="#111111" stroke-width="0.05mm" x1="32.38" y1="175.30" x2="74.99" y2="196.13" />
<line fill="none" stroke="#00aeef" stroke-width="0.05mm" stroke-dasharray="0.4,0.2" opacity="0.96" x1="74.99" y1="196.13" x2="65.78" y2="196.39" />
<line fill="none" stroke="#00aeef" stroke-width="0.05mm" stroke-dasharray="0.4,0.2" opacity="0.93" x1="74.99" y1="196.13" x2="55.21" y2="193.99" />
<line fill="none" stroke="#00aeef" stroke-width="0.05mm" stroke-dasharray="0.4,0.2" opacity="0.99" x1="74.99" y1="196.13" x2="67.54" y2="191.76" />
<line fill="none" stroke="#5674b9" stroke-width="0.05mm" stroke-dasharray="0.4,0.2" opacity="0.96" x1="74.99" y1="196.13" x2="81.15" y2="193.54" />
<line fill="none" stroke="#00aeef" stroke-width="0.05mm" stroke-dasharray="0.4,0.2" opacity="0.83" x1="74.99" y1="196.13" x2="73.53" y2="191.96" />
<line fill="none" stroke="#111111" stroke-width="0.05mm" x1="74.99" y1="196.13" x2="66.21" y2="193.46" />
<line fill="none" stroke="#00aeef" stroke-width="0.05mm" stroke-dasharray="0.4,0.2" opacity="0.16" x1="66.21" y1="193.46" x2="57.47" y2="191.04" />
</g>
<g>
<circle cx="92.00" cy="140.00" r="0.1" fill="#111111" />
<circle cx="94.00" cy="108.78" r="0.1" fill="#111111" />
<circle cx="93.14" cy="56.15" r="0.1" fill="#111111" />
<circle cx="68.38" cy="52.68" r="0.1" fill="#111111" />
<circle cx="62.90" cy="32.21" r="0.1" fill="#111111" />
<circle cx="49.18" cy="32.90" r="0.1" fill="#111111" />
<circle cx="37.51" cy="49.80" r="0.1" fill="#111111" />
<circle cx="29.56" cy="73.82" r="0.1" fill="#111111" />
<circle cx="27.85" cy="85.26" r="0.1" fill="#111111" />
<circle cx="34.44" cy="134.95" r="0.1" fill="#111111" />
<circle cx="49.16" cy="133.19" r="0.1" fill="#111111" />
<circle cx="46.64" cy="150.95" r="0.1" fill="#111111" />
<circle cx="32.38" cy="175.30" r="0.1" fill="#111111" />
<circle cx="74.99" cy="196.13" r="0.1" fill="#111111" />
<circle cx="66.21" cy="193.46" r="0.1" fill="#111111" />
</g>
<g>
<text x="92.20" y="140.00" font-size=".2mm" fill="#000000">0</text>
<text x="94.20" y="108.78" font-size=".2mm" fill="#000000">1</text>
<text x="93.34" y="56.15" font-size=".2mm" fill="#000000">2</text>
<text x="68.58" y="52.68" font-size=".2mm" fill="#000000">3</text>
<text x="63.10" y="32.21" font-size=".2mm" fill="#000000">4</text>
<text x="49.38" y="32.90" font-size=".2mm" fill="#000000">5</text>
<text x="37.71" y="49.80" font-size=".2mm" fill="#000000">6</text>
<text x="29.76" y="73.82" font-size=".2mm" fill="#000000">7</text>
<text x="28.05" y="85.26" font-size=".2mm" fill="#000000">8</text>
<text x="34.64" y="134.95" font-size=".2mm" fill="#000000">9</text>
<text x="49.36" y="133.19" font-size=".2mm" fill="#000000">10</text>
<text x="46.84" y="150.95" font-size=".2mm" fill="#000000">11</text>
<text x="32.58" y="175.30" font-size=".2mm" fill="#000000">12</text>
<text x="75.19" y="196.13" font-size=".2mm" fill="#000000">13</text>
<text x="66.41" y="193.46" font-size=".2mm" fill="#000000">14</text>
</g>
<g>
</g>
</g>
</svg>