<?xml version="1.0" encoding="utf-8"?>
<!DOCTYPE svg PUBLIC "-//W3C//DTD SVG 1.1//EN" "http://www.w3.org/Graphics/SVG/1.1/DTD/svg11.dtd">
<svg version="1.1" id="Layer_1" xmlns="http://www.w3.org/2000/svg" xmlns:xlink="http://www.w3.org/1999/xlink" x="0px" y="0px" width="91mm" height="121mm" viewBox="0 0 91 121" enable-background="new 0 0 91 121" xml:space="preserve">
<symbol id="airflow" viewBox="-12 -12 24 24">
<path d="M-4.38,10.73l4.2-3.84V3.55L-4.07,7.13l-.31-.29L-.18,3V-6.89a3.37,3.37,0,0,0-1.68.53l1.68-4.15L0-11l.21.51h0v0l1.65,4.1A3.26,3.26,0,0,0,.24-6.89v14l-.08,0L-4.07,11Z"/>
<rect fill="none" x="-12" y="-12" width="24" height="24"/>
</symbol>
<symbol id="anastomosis" viewBox="-12 -12 24 24">
<path d="M2.23-4.78l.37.24L5.22-2.78l-.47.57L2.49-3.7l-4.61,8-.24.44-.37-.34L-5.22,2.3l.55-.52,2.1,1.82L2-4.39Z"/>
<rect fill="none" x="-12" y="-12" width="24" height="24"/>
</symbol>
<symbol id="bivouac" viewBox="-12 -12 24 24">
<path d="M.25-7.66l.24.58L.54-7l3.88.48-3.31.91L6,6H8.35v.48l-16.7.07V6.05h2.64L0-7.08Zm0,1.32L-5.13,6H-4l2.07-5L.2-4l2.09,5L4.37,6H5.44Z"/>
<rect fill="none" x="-12" y="-12" width="24" height="24"/>
</symbol>
<symbol id="bones" viewBox="-12 -12 24 24">
<path d="M2.44,4.27l-.16,0H2.13a.22.22,0,0,1-.11,0l-.1-.06a.39.39,0,0,1-.09-.11l-.08-.13a1.51,1.51,0,0,1-.06-.15l-.07-.17s0-.11-.08-.19-.06-.16-.08-.21a4.75,4.75,0,0,0-.38-.71c-.18-.29-.43-.64-.74-1A11.15,11.15,0,0,0-.7.32,6.73,6.73,0,0,0-2-.64a4.12,4.12,0,0,0-1.44-.52A1.64,1.64,0,0,1-5-2.19.72.72,0,0,1-5-2.44a1,1,0,0,1,0-.29A.52.52,0,0,1-4.87-3a.54.54,0,0,1,.35-.15L-4-3.22l.46,0a.54.54,0,0,0,.27-.06A.52.52,0,0,0-3-3.56a.74.74,0,0,0,.13-.31.54.54,0,0,1,.15-.26.54.54,0,0,1,.3-.15.83.83,0,0,1,.47,0,1.11,1.11,0,0,1,.35.4A7.46,7.46,0,0,1-1-2.76q.18.42.33.72a3.22,3.22,0,0,0,.39.57L.1-1a4.77,4.77,0,0,0,.58.43c.28.18.51.33.69.43l1,.56a1.84,1.84,0,0,0,.39.23A5.29,5.29,0,0,1,3.22.9l.43.26a3.7,3.7,0,0,1,.46.3l.36.29a2.28,2.28,0,0,1,.31.32A1,1,0,0,1,5,2.4c.2.48,0,.78-.47.91h0a8.48,8.48,0,0,0-1.12.09,1,1,0,0,0-.42.44A1,1,0,0,1,2.44,4.27Z"/>
<rect fill="none" x="-12" y="-12" width="24" height="24"/>
</symbol>
<symbol id="calcite" viewBox="-12 -12 24 24">
<path d="M2.36-2.22l.05.46.34,3.91L2,2.22,1.65-1.26-2.52-.06l-.23-.7L1.89-2.08Z"/>
<rect fill="none" x="-12" y="-12" width="24" height="24"/>
</symbol>
<symbol id="cauliflower" viewBox="-12 -12 24 24">
<path d="M5.58,3.22v-3A2.12,2.12,0,0,0,6.92-.43a1.78,1.78,0,0,0,.55-1.32,1.92,1.92,0,0,0-.65-1.42,2.19,2.19,0,0,0-1.53-.59,2.21,2.21,0,0,0-1.54.59,1.78,1.78,0,0,0-.64,1.42A1.86,1.86,0,0,0,3.65-.43,2.12,2.12,0,0,0,5,.23v3H.26v-3A2.17,2.17,0,0,0,1.61-.43a1.81,1.81,0,0,0,.54-1.32,1.91,1.91,0,0,0-.64-1.42A2.21,2.21,0,0,0,0-3.76a2.21,2.21,0,0,0-1.54.59,1.82,1.82,0,0,0-.64,1.42A1.83,1.83,0,0,0-1.66-.43,2.12,2.12,0,0,0-.32.23v3H-5v-3A2.12,2.12,0,0,0-3.71-.43a1.78,1.78,0,0,0,.55-1.32,1.92,1.92,0,0,0-.65-1.42,2.19,2.19,0,0,0-1.53-.59,2.21,2.21,0,0,0-1.54.59,1.83,1.83,0,0,0-.65,1.42A1.87,1.87,0,0,0-7-.43,2.12,2.12,0,0,0-5.64.23v3H-8v.54H8V3.22Z"/>
<rect fill="none" x="-12" y="-12" width="24" height="24"/>
</symbol>
<symbol id="clay" viewBox="-12 -12 24 24">
<path d="M1.85-1.33a3,3,0,0,1,1.67.48,3.23,3.23,0,0,1,1,1l.29.51-1,.43a3.81,3.81,0,0,0-.23-.4A3.74,3.74,0,0,0,2.93,0,1.77,1.77,0,0,0,1.85-.32a2.57,2.57,0,0,0-1.1.15A.86.86,0,0,0,.51.14,2.23,2.23,0,0,1,0,.88a2.55,2.55,0,0,1-1.45.43,3.16,3.16,0,0,1-2.75-1,4.28,4.28,0,0,1-.37-.57,3.91,3.91,0,0,1-.21-.47l0-.16,1-.22a1.87,1.87,0,0,0,.45.79A2.12,2.12,0,0,0-1.51.33,1.82,1.82,0,0,0-.69.14l.21-.36A1.53,1.53,0,0,1,.17-1,3.76,3.76,0,0,1,1.85-1.33Z"/>
<rect fill="none" x="-12" y="-12" width="24" height="24"/>
</symbol>
<symbol id="crystals" viewBox="-12 -12 24 24">
<path d="M-2.94-5.38,0-.72,2.94-5.38,3.62-5,.68-.36H6.56V.36H.68L3.62,5l-.68.36L0,.72-2.94,5.38-3.62,5-.68.36H-6.56V-.36H-.68L-3.62-5Z"/>
<rect fill="none" x="-12" y="-12" width="24" height="24"/>
</symbol>
<symbol id="curtain" viewBox="-12 -12 24 24">
<path d="M3.57-6.69l.52.53L.39-3V-.33L.1-.26a3.79,3.79,0,0,0-1,.41c-.58.3-.87.65-.87,1v.07A1.61,1.61,0,0,0-.84,2.48a3.69,3.69,0,0,0,.45.24L0,2.86l.13.05L.39,3V6.12H-.39V3.51a7.65,7.65,0,0,1-.9-.46A2.19,2.19,0,0,1-2.54,1.28V1.23A2,2,0,0,1-1.31-.48,5.32,5.32,0,0,1-.39-.86V-3l-3.7-3.14.52-.53L0-3.67Z"/>
<rect fill="none" x="-12" y="-12" width="24" height="24"/>
</symbol>
<symbol id="disk" viewBox="-12 -12 24 24">
<path d="M-.09-4.19a2.43,2.43,0,0,1,1.7.64A2,2,0,0,1,2.35-2,2.09,2.09,0,0,1,1.81-.55,2.44,2.44,0,0,1,.35.23l2.18,3.6-.68.33L0,1.14-1.48,4.19l-.71-.29L-.41.25A2.53,2.53,0,0,1-1.9-.47a2,2,0,0,1-.63-1.41,2,2,0,0,1,.67-1.61,2.46,2.46,0,0,1,1.72-.7ZM1.05-3.06.56-3.49l-.69,0A1.72,1.72,0,0,0-1.29-3a1.51,1.51,0,0,0-.45,1.08,1.36,1.36,0,0,0,.51,1A1.68,1.68,0,0,0-.07-.44v0l0,0A1.7,1.7,0,0,0,1.11-.92,1.36,1.36,0,0,0,1.56-2,1.47,1.47,0,0,0,1.05-3.06Z"/>
<rect fill="none" x="-12" y="-12" width="24" height="24"/>
</symbol>
<symbol id="entrance" viewBox="-12 -12 24 24">
<path d="M4.46,9H-4.46L0-9Z"/>
<rect fill="none" x="-12" y="-12" width="24" height="24"/>
</symbol>
<symbol id="flowstone" viewBox="-12 -12 24 24">
<rect x="-6" y="-0.21" width="12" height="0.42"/>
<rect fill="none" x="-12" y="-12" width="24" height="24"/>
</symbol>
<symbol id="flutes" viewBox="-12 -12 24 24">
<path d="M-7-1H7v.72H3.87A4.7,4.7,0,0,1,2.16,1.5,4.2,4.2,0,0,1,0,2.13,3.94,3.94,0,0,1-2.19,1.5,4.18,4.18,0,0,1-3.76-.27H-7Zm4.17.72A3.15,3.15,0,0,0-1.65,1,3.21,3.21,0,0,0,0,1.41,3.49,3.49,0,0,0,1.6,1,3.68,3.68,0,0,0,3-.27Z"/>
<rect fill="none" x="-12" y="-12" width="24" height="24"/>
</symbol>
<symbol id="gradient" viewBox="-12 -12 24 24">
<path d="M2.58-3.83,0-10-2.58-3.83A4.74,4.74,0,0,1-.17-4.5V10H.25V-4.5A6.65,6.65,0,0,1,2.58-3.83Z"/>
<rect fill="none" x="-12" y="-12" width="24" height="24"/>
</symbol>
<symbol id="guano" viewBox="-12 -12 24 24">
<path d="M-3.24-3a2.15,2.15,0,0,1,1.57.55A3.93,3.93,0,0,1-.59.24a4.32,4.32,0,0,1,2.75-2.3,2.68,2.68,0,0,1,2.23.36A2.36,2.36,0,0,1,5.5.19l-.79,0a1.72,1.72,0,0,0-.79-1.37,1.94,1.94,0,0,0-1.55-.24A3.53,3.53,0,0,0,.48,0,6.63,6.63,0,0,0-.69,3l-.79-.09a10.72,10.72,0,0,0,0-3.16A3.21,3.21,0,0,0-2.22-2,1.44,1.44,0,0,0-3.37-2.3,3.45,3.45,0,0,0-5-1.54l-.5-.55a4.29,4.29,0,0,1,2-.91A.9.9,0,0,1-3.24-3Z"/>
<rect fill="none" x="-12" y="-12" width="24" height="24"/>
</symbol>
<symbol id="helictites" viewBox="-12 -12 24 24">
<path d="M-4.59-7.92h.79v7.7l3.41,0V-7.92H.39V-.17L4.2-.12h.39v8H3.8V.6L.39.55V7.92H-.39V.55L-4.2.5l-.39,0v-8.4Z"/>
<rect fill="none" x="-12" y="-12" width="24" height="24"/>
</symbol>
<symbol id="human" viewBox="-12 -12 24 24">
<path d="M-3.59-3.29A5.13,5.13,0,0,1,0-4.66,5.13,5.13,0,0,1,3.59-3.29,4.3,4.3,0,0,1,5.09,0a4.3,4.3,0,0,1-1.5,3.29A5.13,5.13,0,0,1,0,4.66,5.13,5.13,0,0,1-3.59,3.29,4.3,4.3,0,0,1-5.09,0,4.3,4.3,0,0,1-3.59-3.29Zm.28.77A3.68,3.68,0,0,0-4.3,0a3.62,3.62,0,0,0,1,2.57L-.5.05ZM0-3.94A4.42,4.42,0,0,0-2.75-3L.16-.36H4.28A3.62,3.62,0,0,0,2.91-2.9,4.38,4.38,0,0,0,0-3.94ZM.16.46-2.7,3.07A4.42,4.42,0,0,0,0,3.94a4.37,4.37,0,0,0,2.87-1A3.78,3.78,0,0,0,4.28.46Z"/>
<rect fill="none" x="-12" y="-12" width="24" height="24"/>
</symbol>
<symbol id="karren" viewBox="-12 -12 24 24">
<path d="M1-5.84h0a1.37,1.37,0,0,1,1.06.68A3.33,3.33,0,0,1,2.5-3.79,25.79,25.79,0,0,1,2.36,0a18.61,18.61,0,0,0-.08,3.72,2.68,2.68,0,0,0,.41,1.2,1.13,1.13,0,0,0,.79.5A.92.92,0,0,0,4,4.94a4.43,4.43,0,0,0,.47-1.22c.16-.64.36-1.86.59-3.66a26.71,26.71,0,0,1,.64-3.69,4.62,4.62,0,0,1,.57-1.29,1.34,1.34,0,0,1,1-.59h0A1.28,1.28,0,0,1,8.37-5a2.17,2.17,0,0,1,.39,1.15A19.91,19.91,0,0,1,8.54-.53a21.51,21.51,0,0,0-.2,3.64A2.64,2.64,0,0,0,9.45,5.36,1.91,1.91,0,0,0,10.88,5a3.84,3.84,0,0,0,.7-1l.42.2-.1.18-.12.21-.11.18L11.52,5a.94.94,0,0,1-.14.16c-.06.07-.13.12-.19.18a2.5,2.5,0,0,1-1.85.41H9.29l0,0A3.06,3.06,0,0,1,7.87,3.13a22.11,22.11,0,0,1,.2-3.7,18.17,18.17,0,0,0,.22-3.28A1.85,1.85,0,0,0,8-4.79a.77.77,0,0,0-.67-.3.93.93,0,0,0-.64.42,4.51,4.51,0,0,0-.51,1.15A26.26,26.26,0,0,0,5.54.1c-.24,1.83-.45,3.07-.61,3.72a5.38,5.38,0,0,1-.51,1.34,1.33,1.33,0,0,1-.89.68H3.47A1.58,1.58,0,0,1,2.3,5.16a3.29,3.29,0,0,1-.49-1.4A20.27,20.27,0,0,1,1.89,0,23.45,23.45,0,0,0,2-3.75a2.94,2.94,0,0,0-.32-1.19A.93.93,0,0,0,1-5.42,1.1,1.1,0,0,0,.19-5,3.69,3.69,0,0,0-.43-3.76,20.78,20.78,0,0,0-1.07.07c-.2,2-.37,3.32-.49,3.86A4.48,4.48,0,0,1-2,5.26,1.06,1.06,0,0,1-3,5.81h0a1.9,1.9,0,0,1-1.29-.67,2.7,2.7,0,0,1-.58-1.31,14.92,14.92,0,0,1,0-3.6q0-.12.06-.54c0-.28,0-.47,0-.57s0-.28,0-.52,0-.42,0-.55,0-.28,0-.47,0-.36,0-.51,0-.29,0-.43A3.09,3.09,0,0,0-5-4.62a1.19,1.19,0,0,0-.67-.6,1.5,1.5,0,0,0-1.2.9A7,7,0,0,0-7.41-2.1c0,.39-.1,1-.14,1.76s-.11,1.47-.18,2.08A9.61,9.61,0,0,1-8,3.32h0l0,0A2.81,2.81,0,0,1-9.2,4.62a1.82,1.82,0,0,1-1.35.15A1.94,1.94,0,0,1-11.61,4,2.39,2.39,0,0,1-12,2.56l.47,0a1.92,1.92,0,0,0,.31,1.16,1.47,1.47,0,0,0,.81.62,1.3,1.3,0,0,0,1-.11A2.32,2.32,0,0,0-8.5,3.18a7.53,7.53,0,0,0,.29-1.5Q-8.1.8-8-.36c0-.78.1-1.37.16-1.78A7.23,7.23,0,0,1-7.28-4.5,1.93,1.93,0,0,1-5.65-5.66h.05l0,0a1.59,1.59,0,0,1,1,.84,3.47,3.47,0,0,1,.34,1.41,4.91,4.91,0,0,1,0,.57v.54c0,.15,0,.37,0,.66s0,.47,0,.58,0,.33-.06.68,0,.56-.06.63a14.78,14.78,0,0,0,0,3.49,2.58,2.58,0,0,0,.5,1.13,1.57,1.57,0,0,0,1,.5A.61.61,0,0,0-2.44,5,3.89,3.89,0,0,0-2,3.85C-1.9,3.31-1.74,2-1.53,0A20.65,20.65,0,0,1-.86-3.89,3.89,3.89,0,0,1-.18-5.26,1.58,1.58,0,0,1,1-5.84Z"/>
<rect fill="none" x="-12" y="-12" width="24" height="24"/>
</symbol>
<symbol id="moonmilk" viewBox="-12 -12 24 24">
<path d="M-4.78-3.06a3.39,3.39,0,0,1,1.5.34,2.48,2.48,0,0,1,1.1,1,3.74,3.74,0,0,1,1.62-.8,3.52,3.52,0,0,1,1.71,0,2.9,2.9,0,0,1,1.39.77A2.49,2.49,0,0,1,3.25-.37,4,4,0,0,1,5-.76a3.58,3.58,0,0,1,1.6.36A2.84,2.84,0,0,1,7.88.92a2.32,2.32,0,0,1,0,1.88.34.34,0,0,1-.37.26A.36.36,0,0,1,7.25,3a.32.32,0,0,1-.12-.25.21.21,0,0,1,0-.12,2,2,0,0,0,0-1.43,2,2,0,0,0-1-.9A2.81,2.81,0,0,0,4.68,0,2.78,2.78,0,0,0,3.12.56L2.46.25A1.7,1.7,0,0,0,2.15-1.1,2.15,2.15,0,0,0,1-1.81a2.85,2.85,0,0,0-1.58.06A3,3,0,0,0-2-.83l-.71-.12A1.74,1.74,0,0,0-3.55-2a2.36,2.36,0,0,0-1.39-.27,3.08,3.08,0,0,0-1.45.53A2.33,2.33,0,0,0-7.32-.56a.35.35,0,0,1-.37.24A.39.39,0,0,1-8-.42a.33.33,0,0,1-.1-.26v-.1A3,3,0,0,1-6.89-2.35,4,4,0,0,1-5-3Z"/>
<rect fill="none" x="-12" y="-12" width="24" height="24"/>
</symbol>
<symbol id="narrow" viewBox="-12 -12 24 24">
<path d="M-1.5,5V-5h0.64V5H-1.5z"/>
<path d="M0.86,5V-5H1.5V5H0.86z"/>
<rect fill="none" x="-12" y="-12" width="24" height="24"/>
</symbol>
<symbol id="paleoflow" viewBox="-12 -12 24 24">
<path d="M.38-12V.17A1.9,1.9,0,0,0,1,0,1.57,1.57,0,0,0,1.7-.72a1.86,1.86,0,0,0,.23-1c0-.09,0-.14.08-.16a.92.92,0,0,1,.24,0,.52.52,0,0,0,.25,0h.08A2.48,2.48,0,0,1,2,0,2.5,2.5,0,0,1,.38.77V7.21H2.09L0,12-1.8,7.23c.07,0,.59,0,1.53,0V.77A3,3,0,0,1-1.35.43a2.16,2.16,0,0,1-1-1,2.38,2.38,0,0,1-.24-1.33l.67,0a2,2,0,0,0,.15,1,1.73,1.73,0,0,0,.59.67A2.14,2.14,0,0,0-.27.16V-12Z"/>
<rect fill="none" x="-12" y="-12" width="24" height="24"/>
</symbol>
<symbol id="rain" viewBox="-12 -12 24 24">
<path d="M-4.14-6.34h0.71v4.69h-0.71V-6.34z"/>
<path d="M-0.35-6.34h0.71v4.69h-0.71V-6.34z"/>
<path d="M3.43-6.34h0.71v4.69H3.43V-6.34z"/>
<path d="M-4.14,1.65h0.71v4.69h-0.71V1.65z"/>
<path d="M-0.35,1.65h0.71v4.69h-0.71V1.65z"/>
<path d="M3.43,1.65h0.71v4.69H3.43V1.65z"/>
<rect fill="none" x="-12" y="-12" width="24" height="24"/>
</symbol>
<symbol id="rats" viewBox="-12 -12 24 24">
<path d="M8.78-2.32,7-2.27c-.51-.17-.65-.56-1.46-.45l-.25.45C3.59-2.75,2.59-3.66.56-3.62l-1.35.3A4.89,4.89,0,0,0-4.24,1.57c-.68.6-2.58.86-3.39.94a6.84,6.84,0,0,0-1.62.39,4.91,4.91,0,0,0-1,.52A1.75,1.75,0,0,0-11,4.61a1.16,1.16,0,0,0,.59,1.48,1.3,1.3,0,0,1,.14.12c.16-.52-.35-.92-.2-1.42a3.35,3.35,0,0,1,.27-.45,3.18,3.18,0,0,1,1.79-1c.63-.12,1.27-.22,1.91-.3.48-.07,1,0,1.4-.12A6.94,6.94,0,0,1-4,2.82,30.64,30.64,0,0,0,.41,2.69l2.16.15c.1-.09,0,0,.1-.15a.87.87,0,0,0-.9-.55c.86-1,2.27-.37,3.1-.05.5.19,1,0,1.25.4.11-.1.1-.07.15-.25.3,0,.31.07.6.15-.06-.49-.34-.64-1-.6a.78.78,0,0,1,0-.55C6.3.56,7.29.73,8.13.43a13.78,13.78,0,0,0,2.15-.9l.6-.85v-.2A16.9,16.9,0,0,0,8.78-2.32Z"/>
<rect fill="none" x="-12" y="-12" width="24" height="24"/>
</symbol>
<symbol id="sand" viewBox="-12 -12 24 24">
<path d="M-1.58,0.83c0.23,0.2,0.35,0.44,0.36,0.73c0.01,0.29-0.08,0.54-0.28,0.75c-0.2,0.21-0.46,0.32-0.78,0.33c-0.32,0.01-0.6-0.08-0.83-0.26C-3.36,2.19-3.49,1.95-3.5,1.67C-3.51,1.38-3.41,1.12-3.2,0.9c0.21-0.22,0.48-0.34,0.8-0.35C-2.08,0.54-1.81,0.64-1.58,0.83z"/>
<path d="M0.08-2.36c0.23,0.2,0.35,0.44,0.36,0.73c0.01,0.29-0.08,0.54-0.28,0.75c-0.2,0.21-0.46,0.32-0.78,0.33c-0.32,0.01-0.59-0.07-0.83-0.26s-0.37-0.42-0.38-0.71c-0.01-0.29,0.09-0.54,0.3-0.76c0.21-0.22,0.48-0.33,0.8-0.35C-0.42-2.65-0.14-2.56,0.08-2.36z"/>
<path d="M3.12,0.55c0.23,0.2,0.35,0.43,0.38,0.71c0.02,0.28-0.07,0.53-0.28,0.75C3,2.23,2.73,2.35,2.42,2.36C2.1,2.37,1.82,2.28,1.58,2.08C1.34,1.88,1.22,1.64,1.2,1.35c-0.01-0.29,0.09-0.54,0.3-0.75C1.72,0.4,1.99,0.29,2.3,0.28S2.89,0.36,3.12,0.55z"/>
<rect fill="none" x="-12" y="-12" width="24" height="24"/>
</symbol>
<symbol  id="scallops" viewBox="-12 -12 24 24">
<path d="M.05-3.74l.21,0A2.35,2.35,0,0,1,1.74-3a2,2,0,0,1,.59,1.55v0l0,0A9.59,9.59,0,0,1-.08,3.27l-.39.47-.27-.55A14.26,14.26,0,0,1-2.33-1.89v-.05l0-.05A2,2,0,0,1-1.44-3.3,2.42,2.42,0,0,1,.05-3.74ZM-.11-3A1.44,1.44,0,0,0-1.55-1.89,13.06,13.06,0,0,0-.29,2.33,8.6,8.6,0,0,0,1.55-1.54a1.41,1.41,0,0,0-.38-1A1.62,1.62,0,0,0,.18-3Z"/>
<rect fill="none" x="-12" y="-12" width="24" height="24"/>
</symbol>
<symbol  id="sink" viewBox="-12 -12 24 24">
<path d="M.72,9.41H.9c1.94,0,3.26-.54,3.94-1.51a3.61,3.61,0,0,0,.33-.69,2,2,0,0,0,.11-.54V6.46l.69,0a2.8,2.8,0,0,1-.58,1.78C4.58,9.39,3.1,10,.93,10H-.93q-3.25,0-4.46-1.8a2.74,2.74,0,0,1-.43-.83A2.37,2.37,0,0,1-6,6.67V6.43l.68,0A2.27,2.27,0,0,0-4.84,7.9c.68,1,2,1.47,3.93,1.48l.5,0ZM-1.46-10a.68.68,0,0,0,.16.41A2.77,2.77,0,0,0-.51-9l0,0a3.63,3.63,0,0,1,1,.7,1.15,1.15,0,0,1,.34.88c0,.58-.53,1.14-1.49,1.68-.68.42-1,.79-1,1.11s.3.61.84,1h0Q.61-2.86.46-1.78a3.51,3.51,0,0,1-1.55,2,.61.61,0,0,0-.26.41,1.67,1.67,0,0,0,.1.51,5.3,5.3,0,0,1,.32,1L.56,1.9.46,8.06-3.4,2.54l1.73-.28A6.16,6.16,0,0,0-2,1.39,1.7,1.7,0,0,1-2.09.58a1.21,1.21,0,0,1,.53-.82h0v0C-.75-.86-.33-1.38-.28-1.85s-.23-.87-.91-1.27h0C-2-3.6-2.37-4.1-2.4-4.61S-2-5.74-1.09-6.29C-.34-6.72.06-7.1.09-7.44a.67.67,0,0,0-.18-.43,3.17,3.17,0,0,0-.79-.58,2.93,2.93,0,0,1-1-.67A1.16,1.16,0,0,1-2.17-10Z"/>
<rect fill="none" x="-12" y="-12" width="24" height="24"/>
</symbol>
<symbol  id="spring" viewBox="-12 -12 24 24">
<path d="M-1.34-9.86,2.52-4.34.78-4.06a8,8,0,0,0,.29.87,1.4,1.4,0,0,1,.13.79,1.3,1.3,0,0,1-.52.84l0,0v0C-.13-.95-.55-.42-.61,0S-.37.91.31,1.3l0,0c.75.46,1.14,1,1.18,1.46S1.12,3.92.21,4.46C-.54,4.9-.94,5.29-1,5.64a.74.74,0,0,0,.18.43A3.2,3.2,0,0,0,0,6.62a3,3,0,0,1,1,.7,1.14,1.14,0,0,1,.31.86A1.74,1.74,0,0,1,.71,9.26H.92c1.92,0,3.22-.52,3.9-1.51a2.05,2.05,0,0,0,.35-.67,2.59,2.59,0,0,0,.1-.55l0-.19.65,0a2.84,2.84,0,0,1-.55,1.8C4.58,9.26,3.08,9.85.92,9.86H-.92c-2.17,0-3.66-.6-4.49-1.77a3.65,3.65,0,0,1-.4-.85A2.43,2.43,0,0,1-6,6.53V6.29l.66,0a2.08,2.08,0,0,0,.47,1.41c.68,1,2,1.5,3.91,1.51H-.4c.62-.43.94-.8,1-1.1a.76.76,0,0,0-.16-.43,3.25,3.25,0,0,0-.79-.51v0a3.8,3.8,0,0,1-1-.7,1.15,1.15,0,0,1-.34-.91q.06-.84,1.5-1.68c.68-.4,1-.77,1-1.1S.49,2.21,0,1.87c0,0,0,0,0,0C-1,1.32-1.44.69-1.34,0a3.58,3.58,0,0,1,1.55-2,.54.54,0,0,0,.23-.38A1.28,1.28,0,0,0,.37-3a4.57,4.57,0,0,1-.32-1l-1.49.24Z"/>
<rect fill="none" x="-12" y="-12" width="24" height="24"/>
</symbol>
<symbol  id="stalactite" viewBox="-12 -12 24 24">
<path d="M3.57-6.69l.52.53L.39-3V6.12H-.39V-3l-3.7-3.14.52-.53L0-3.67Z"/>
<rect fill="none" x="-12" y="-12" width="24" height="24"/>
</symbol>
<symbol  id="stalagmite" viewBox="-12 -12 24 24">
<path d="M.38-6.42V2.75L4.11,5.89l-.56.53L0,3.4l-3.57,3-.53-.53,3.7-3.14V-6.42Z"/>
<rect fill="none" x="-12" y="-12" width="24" height="24"/>
</symbol>
<symbol  id="stalagnate" viewBox="-12 -12 24 24">
<path d="M3.55-8.46l.56.53L.38-4.78v9L4.11,7.36l-.56.53L0,4.86l-3.57,3-.53-.53,3.7-3.14v-9l-3.7-3.15.53-.53L0-5.43Z"/>
<rect fill="none" x="-12" y="-12" width="24" height="24"/>
</symbol>
<symbol  id="straws" viewBox="-12 -12 24 24">
<path d="M-10.89-2.76H10.89V-2H9.63V.46H8.84V-2H8.29v5.6H7.5V-2H5.56V.7H4.77V-2H2.07V2.38H1.29V-2H-.1v3H-.89V-2H-3.2V4.11H-4V-2H-6.22L-6.16.75l-.79,0L-7-2H-8.32V2.33H-9.1V-2h-1.79Z"/>
<rect fill="none" x="-12" y="-12" width="24" height="24"/>
</symbol>
<symbol  id="water" viewBox="-12 -12 24 24">
<path d="M-1.72-9.86,2.11-4.32.38-4.06a6.49,6.49,0,0,0,.29.89,1.5,1.5,0,0,1,.13.79,1.2,1.2,0,0,1-.5.82h0l0,0C-.54-.94-1-.42-1,.05s.24.89.92,1.27h0c.77.48,1.17,1,1.19,1.49S.71,3.94-.2,4.49c-.75.43-1.13.81-1.15,1.15a.51.51,0,0,0,.18.43,2.66,2.66,0,0,0,.76.58,2.93,2.93,0,0,1,1,.67,1.16,1.16,0,0,1,.29.89C.84,8.75.42,9.3-.41,9.86l-.44-.55c.66-.45,1-.83,1-1.15A.47.47,0,0,0,0,7.75a2.84,2.84,0,0,0-.78-.53h0a3.87,3.87,0,0,1-1-.69,1.24,1.24,0,0,1-.34-.91c0-.58.54-1.14,1.52-1.68.66-.42,1-.79,1-1.11s-.3-.61-.84-1h0Q-1.9,1.06-1.74,0a3.44,3.44,0,0,1,1.54-2,.67.67,0,0,0,.27-.41A1.11,1.11,0,0,0,0-3a4.33,4.33,0,0,1-.31-1l-1.5.24Z"/>
<rect fill="none" x="-12" y="-12" width="24" height="24"/>
</symbol><symbol  id="tree" viewBox="-12 -12 24 24">
<path d="M7.4-5.04A4.271,4.271,0,0,0,7.7-6.627a4.3,4.3,0,0,0-4.3-4.3A4.279,4.279,0,0,0,.636-9.914,4.293,4.293,0,0,0-3.045-12a4.3,4.3,0,0,0-4.3,4.3,4.27,4.27,0,0,0,.421,1.845,4.3,4.3,0,0,0-3.645,4.244,4.3,4.3,0,0,0,4.3,4.3A4.282,4.282,0,0,0-3.946,2L-1.175,5.23h0L-1.612,12H.982L.757,6.376,4.119,2.827v0a4.272,4.272,0,0,0,2.15.58,4.3,4.3,0,0,0,4.3-4.3A4.3,4.3,0,0,0,7.4-5.04ZM-3.346,1.538h0A4.346,4.346,0,0,0-2.7.788a4.266,4.266,0,0,0,1.765.753l-.135,2.087ZM.69,4.7.563,1.544A4.258,4.258,0,0,0,2.321.805,4.3,4.3,0,0,0,3.378,2.279Z"/>
<rect fill="none" x="-12" y="-12" width="24" height="24"/>
</symbol><g>
<desc></desc>
<g>
<line fill="none" stroke="#dddddd" stroke-width="0.1mm" x1="0.00" y1="99.00" x2="91.00" y2="99.00" />
<text x="88.20" y="98.80" font-size=".2mm" fill="#000000">0m</text>
<line fill="none" stroke="#dddddd" stroke-width="0.1mm" x1="0.00" y1="79.00" x2="91.00" y2="79.00" />
<text x="88.20" y="78.80" font-size=".2mm" fill="#000000">10m</text>
<line fill="none" stroke="#dddddd" stroke-width="0.1mm" x1="0.00" y1="59.00" x2="91.00" y2="59.00" />
<text x="88.20" y="58.80" font-size=".2mm" fill="#000000">20m</text>
<line fill="none" stroke="#dddddd" stroke-width="0.1mm" x1="0.00" y1="39.00" x2="91.00" y2="39.00" />
<text x="88.20" y="38.80" font-size=".2mm" fill="#000000">30m</text>
<line fill="none" stroke="#dddddd" stroke-width="0.1mm" x1="0.00" y1="19.00" x2="91.00" y2="19.00" />
<text x="88.20" y="18.80" font-size=".2mm" fill="#000000">40m</text>
<line fill="none" stroke="#dddddd" stroke-width="0.1mm" x1="0.00" y1="119.00" x2="91.00" y2="119.00" />
<text x="88.20" y="118.80" font-size=".2mm" fill="#000000">-10m</text>
</g>
<g>
<path fill="none" stroke="#000000" stroke-width="0.06mm" d="M21.54965,94.7506 C21.789988,99.76816 21.509634,98.03368 21.84691,100.012405 L21.84691,100.012405" /><path fill="none" stroke="#000000" stroke-width="0.06mm" d="M30.544727,101.34123 C30.411926,101.34836 30.279125,101.35548 30.146324,101.3626 C29.946108,101.383316 29.74678,101.416245 29.545673,101.42474 C27.655888,101.50459 28.82296,101.32747 26.474321,101.54442 C26.288147,101.561615 26.111984,101.64458 25.925793,101.66157 C25.632559,101.68833 25.33699,101.67645 25.042542,101.67508 C25.020964,101.67498 24.98957,101.67667 24.980337,101.657166 C24.964949,101.624664 24.982113,101.58527 24.983,101.54933 L24.983,101.54933" /><path fill="none" stroke="#000000" stroke-width="0.06mm" d="M26.094751,101.692024 C26.001501,101.674934 25.90908,101.65244 25.815,101.64077 C25.73959,101.63141 25.650991,101.64585 25.57846,101.665146 C25.47091,101.69375 25.235432,101.71884 25.13581,101.83616 C25.006306,101.98868 25.024952,102.24984 25.049423,102.42517 C25.12023,102.932465 25.099018,102.84536 25.23567,103.16652 L25.23567,103.16652" /><path fill="none" stroke="#000000" stroke-width="0.06mm" d="M21.891499,99.80134 C21.999338,100.228935 22.030462,100.45463 22.307924,100.75922 C22.35431,100.810135 22.403542,100.86008 22.461103,100.8979 C22.736025,101.0786 22.987638,101.13526 23.28837,101.29191 C23.439005,101.37037 23.622736,101.51559 23.736137,101.647545 C23.933214,101.87688 24.025019,102.13425 24.075369,102.4312 C24.139154,102.8074 24.019388,102.636925 24.186344,102.91086 L24.186344,102.91086" /><path fill="none" stroke="#000000" stroke-width="0.06mm" d="M30.399069,101.28773 C30.958878,101.2607 31.519615,101.24875 32.07849,101.20665 C32.166344,101.20003 32.55158,101.19569 32.696278,101.06111 C32.89184,100.87922 32.94426,100.2649 32.95191,100.08084 C32.98481,99.28866 33.034637,98.49486 33.000336,97.70273 C32.920845,95.86726 32.29448,96.33193 32.860382,95.945656 L32.860382,95.945656" /><path fill="none" stroke="#000000" stroke-width="0.06mm" d="M21.543705,94.85763 C21.602573,94.58949 21.691612,94.32505 21.879425,94.11759 C22.272846,93.68301 22.906694,93.49253 23.446049,93.361496 C24.15003,93.19047 24.873186,93.109406 25.581606,92.9578 C26.396694,92.78337 25.693642,92.82289 26.213654,92.80939 L26.213654,92.80939" /><path fill="none" stroke="#000000" stroke-width="0.06mm" d="M26.079887,92.63102 C26.594213,92.237465 27.11828,91.85632 27.622864,91.45035 C27.717634,91.3741 27.794907,91.278114 27.875095,91.18666 C28.118662,90.90885 28.363974,90.63216 28.593828,90.342896 C28.719177,90.18516 28.819569,90.00895 28.939568,89.8471 C28.953543,89.82825 28.970808,89.802956 28.994272,89.802795 C29.052118,89.80239 29.106403,89.83129 29.16247,89.845535 L29.16247,89.845535" /><path fill="none" stroke="#000000" stroke-width="0.06mm" d="M30.067572,96.89576 C28.890451,96.99295 30.965782,96.834526 28.860117,96.91035 C28.583849,96.920296 28.310507,96.97543 28.034283,96.98654 C27.780376,96.99674 27.526155,96.9733 27.272045,96.97419 C27.245327,96.97428 27.218874,96.98154 27.193363,96.98947 C27.061447,97.03052 26.96135,97.1206 26.871323,97.22213 C26.724478,97.38773 26.579449,97.55499 26.43745,97.72478 C26.424147,97.740685 26.412777,97.78104 26.41034,97.80112 C26.404121,97.852325 26.42128,97.90294 26.447342,97.946495 C26.540728,98.102554 26.72688,98.17603 26.905605,98.17113 C27.3115,98.15998 27.715641,98.10318 28.121677,98.100075 C28.662193,98.09594 28.563213,98.22536 29.033255,98.12593 C29.275045,98.07478 29.50623,97.98051 29.74757,97.92729 C30.003502,97.87086 30.277033,97.94057 30.528366,97.95321 C30.596603,97.956635 30.698547,97.94426 30.768494,97.91801 C30.84872,97.88789 30.911592,97.83571 30.962027,97.767105 C31.143044,97.52088 30.535904,97.15339 30.45409,97.07746 C30.367899,96.997475 30.300636,96.89891 30.217113,96.81614 C30.157536,96.7571 30.028084,96.65394 29.945105,96.7392 C29.933245,96.75138 29.919765,96.7641 29.915106,96.78046 C29.883965,96.88977 29.864155,97.002 29.83868,97.11277 L29.83868,97.11277" /><path fill="none" stroke="#000000" stroke-width="0.06mm" d="M32.749943,96.28788 C32.849113,95.80018 33.02957,95.3392 33.25231,94.89662 L33.25231,94.89662" /><path fill="none" stroke="#000000" stroke-width="0.06mm" d="M50.77339,74.78525 C50.634003,74.93991 50.47477,75.078766 50.35523,75.24924 C48.852043,77.39282 48.19005,79.120895 47.20802,81.90053 C46.71453,83.29734 46.587597,84.80933 46.06299,86.194756 C45.54859,87.553215 44.759224,88.79096 44.10734,90.089066 L44.10734,90.089066" /><path fill="none" stroke="#000000" stroke-width="0.06mm" d="M44.285103,90.0852 L44.28176,90.0548" /><path fill="none" stroke="#000000" stroke-width="0.06mm" d="M44.277374,89.764435 C44.169716,89.9349 44.139065,90.021835 44.002983,90.14138 C43.902924,90.22927 43.74768,90.32403 43.609337,90.32927 C42.7149,90.36319 41.817883,90.33459 40.924927,90.39627 C40.451164,90.42899 39.988003,90.55391 39.516674,90.61198 C38.608307,90.7239 39.179836,90.563866 38.75905,90.69194 L38.75905,90.69194" /><path fill="none" stroke="#000000" stroke-width="0.06mm" d="M38.983177,90.72672 C37.96084,90.76704 36.938713,90.813225 35.91616,90.84767 C35.839195,90.850266 35.76233,90.83575 35.685352,90.83782 C35.4599,90.843895 35.3226,91.12654 35.235466,91.28923 C34.979805,91.76657 34.73496,92.24982 34.470135,92.72213 C34.31146,93.005135 34.119686,93.26897 33.965416,93.55439 C33.3599,94.67471 33.446594,94.46835 33.202076,95.19807 L33.202076,95.19807" /><path fill="none" stroke="#000000" stroke-width="0.06mm" d="M28.931942,89.88424 C29.304531,88.885315 29.677124,87.88638 30.049715,86.88745 C30.146975,86.6753 30.206171,86.44115 30.341496,86.251 C30.847795,85.53957 31.424149,84.8807 31.965475,84.19555 L31.965475,84.19555" /><path fill="none" stroke="#000000" stroke-width="0.06mm" d="M44.030052,76.19196 C43.84786,76.413765 43.641678,76.61516 43.358795,76.70199 C43.03716,76.800705 42.692783,76.82814 42.38257,76.958374 C41.49863,77.32945 40.666695,77.81571 39.788734,78.200714 C38.94487,78.57076 39.14489,78.16992 38.050137,78.42784 C37.380814,78.585526 36.743603,78.85785 36.096783,79.09126 C35.79647,79.19963 35.54558,79.47427 35.36654,79.723946 C34.55043,80.862015 33.781235,82.03379 32.946083,83.15796 C32.168976,84.203995 32.603138,83.235916 32.293945,84.01778 L32.293945,84.01778" /><path fill="none" stroke="#000000" stroke-width="0.06mm" d="M51.27962,65.664795 C51.284958,70.36614 51.345375,63.853813 50.946983,70.56123 C50.61599,76.13388 51.206306,71.68334 50.707695,75.0635 L50.707695,75.0635" /><path fill="none" stroke="#000000" stroke-width="0.06mm" d="M47.341827,66.2097 C47.2017,66.55548 47.03543,66.89178 46.921444,67.24703 C46.612373,68.21028 46.348923,69.18762 46.07395,70.16116 C45.753975,71.29406 45.497498,72.44562 45.136642,73.56617 C44.899384,74.302925 44.384098,75.52578 44.010735,76.419975 L44.010735,76.419975" /><path fill="none" stroke="#000000" stroke-width="0.06mm" d="M51.550804,65.61349 C52.13748,65.65279 52.14418,65.688385 52.813892,65.53389 C53.10251,65.4673 53.37574,65.34367 53.663605,65.2739 C54.24274,65.13353 54.05153,65.27963 54.44977,65.11491 C54.90478,64.9267 54.875725,64.85436 55.449005,64.760284 C55.646847,64.72781 55.84977,64.72962 56.050064,64.73836 C56.23314,64.74634 56.91445,64.954216 57.158443,64.702324 C57.668392,64.17586 57.98541,62.77952 58.124107,62.382683 L58.124107,62.382683" /><path fill="none" stroke="#000000" stroke-width="0.06mm" d="M47.203384,66.80378 C47.808727,65.56923 47.99868,65.10645 48.851734,63.82179 C49.0523,63.51975 49.319458,63.267445 49.54279,62.981827 C49.702774,62.777225 49.848392,62.561787 50.00119,62.351765 L50.00119,62.351765" /><path fill="none" stroke="#000000" stroke-width="0.06mm" d="M49.76107,62.332584 C49.941246,62.042957 50.189182,61.70878 50.246605,61.35808 C51.149208,55.845432 50.383644,59.623325 51.009995,54.542538 C51.04898,54.226315 51.13565,53.916233 51.235516,53.613667 C51.794994,51.918606 52.36242,50.22535 52.986885,48.55314 C53.068466,48.334686 53.5206,47.515736 53.871544,47.40772 C54.09907,47.337685 54.329735,47.276134 54.563335,47.23025 C54.77645,47.188396 55.138885,47.245235 55.32419,47.239784 C55.53799,47.23349 55.750324,47.202164 55.96339,47.183353 L55.96339,47.183353" /><path fill="none" stroke="#000000" stroke-width="0.06mm" d="M55.883133,47.067142 C56.221985,46.999176 56.560833,46.93121 56.89969,46.86325 C57.17809,46.796932 57.451893,46.706886 57.7349,46.66429 C58.762913,46.59492 58.32729,46.6577 59.048054,46.5261 L59.048054,46.5261" /><path fill="none" stroke="#000000" stroke-width="0.06mm" d="M58.031723,62.421196 C57.70521,60.15762 57.79432,60.94091 57.915394,56.293198 C57.938618,55.40167 58.110443,54.519753 58.17228,53.63007 C58.176514,53.56914 58.11966,50.439713 58.57679,49.777725 C58.599663,49.7446 58.658478,49.68487 58.69625,49.66997 C59.242657,49.462048 59.78906,49.254128 60.335464,49.04621 C60.39703,49.027637 60.460125,49.013542 60.52016,48.9905 C60.67774,48.93003 60.797756,48.79682 60.91841,48.68641 L60.91841,48.68641" /><path fill="none" stroke="#000000" stroke-width="0.02mm" d="M58.854836,48.999443 L58.863083,48.99996" /><path fill="none" stroke="#000000" stroke-width="0.02mm" d="M58.862564,49.03809 C58.727715,49.045307 58.28622,49.08335 58.241283,49.28983 C58.20424,49.460045 58.65822,49.671986 58.813053,49.666847 C58.942398,49.662556 59.06936,49.59373 59.173546,49.524963 C59.36947,49.395645 59.47801,49.238037 59.347958,49.0187 C59.28757,48.91686 59.19432,48.91992 59.09671,48.88075 C59.065968,48.86841 59.03851,48.8491 59.00941,48.833267 L59.00941,48.833267" /><path fill="none" stroke="#000000" stroke-width="0.02mm" d="M60.423775,48.497047 C60.30683,48.525314 60.18715,48.544 60.072952,48.58186 C59.98962,48.60949 59.911316,48.65104 59.833984,48.6926 C59.55177,48.84426 59.806576,49.0095 60.0014,49.045116 C60.171684,49.076252 60.3721,49.053776 60.51884,48.9558 C60.61259,48.8932 60.635345,48.734962 60.543427,48.665176 C60.460247,48.602024 60.376064,48.540203 60.29238,48.477722 L60.29238,48.477722" /><path fill="none" stroke="#000000" stroke-width="0.02mm" d="M54.22918,64.19118 C54.072216,64.28621 53.907578,64.3696 53.758293,64.47629 C53.598022,64.59082 53.44906,64.72088 53.30301,64.85307 C53.229706,64.91942 53.341385,64.98248 53.388916,64.99633 C53.50879,65.03124 53.629303,65.066895 53.752842,65.08496 C53.901573,65.106705 54.18888,65.17546 54.357433,65.067444 C54.530296,64.95666 54.67221,64.6381 54.741154,64.50873 C54.786266,64.42407 54.664307,64.28215 54.579308,64.302895 C54.483505,64.32628 54.394836,64.372696 54.3026,64.4076 L54.3026,64.4076" /><path fill="none" stroke="#000000" stroke-width="0.02mm" d="M52.25448,64.960236 C52.081238,65.10057 51.904522,65.23674 51.734745,65.381256 C51.54322,65.54428 51.879154,65.69224 52.0048,65.70105 C52.168602,65.71253 52.34076,65.63423 52.486347,65.59403 L52.486347,65.59403" /><path fill="none" stroke="#000000" stroke-width="0.02mm" d="M52.335636,64.89067 C52.229294,65.09037 52.987976,65.15901 52.84821,65.42228 C52.83803,65.44145 52.82279,65.45763 52.807964,65.47348 C52.752335,65.53298 52.694023,65.58992 52.637054,65.64813 L52.637054,65.64813" /><path fill="none" stroke="#000000" stroke-width="0.02mm" d="M56.48211,64.21051 C56.30577,64.23771 56.1279,64.25633 55.953102,64.292114 C55.874195,64.30826 55.723698,64.34087 55.684887,64.43859 C55.60394,64.642395 55.88516,64.849075 56.061832,64.86246 C56.257164,64.87724 56.584263,64.562485 56.628506,64.52864 C56.783115,64.410355 56.52549,64.1015 56.38974,64.07352 C56.302322,64.05549 56.289055,64.092766 56.211605,64.144806 L56.211605,64.144806" /><path fill="none" stroke="#000000" stroke-width="0.02mm" d="M50.221825,74.799515 C49.82745,74.946304 49.63951,74.99544 49.262028,75.24339 C49.246162,75.253815 49.283577,75.27465 49.29435,75.29028 C49.41546,75.305984 49.53567,75.33214 49.657684,75.33741 C49.782837,75.34282 49.90873,75.33643 50.033188,75.322205 C50.16419,75.30723 50.305267,75.26776 50.422222,75.20267 C50.576305,75.11691 50.6819,75.00748 50.652336,74.82431 C50.638237,74.73695 50.60334,74.659256 50.540295,74.59672 C50.440086,74.49732 50.21949,74.46744 50.154144,74.62054 C50.128044,74.68167 50.137756,74.79591 50.136806,74.84202 L50.136806,74.84202" /><path fill="none" stroke="#000000" stroke-width="0.06mm" d="M60.859867,48.842 C60.994907,48.71537 61.139782,48.598473 61.26498,48.462105 C61.461308,48.248264 61.668995,47.915947 61.640354,47.606743 C61.594196,47.10846 61.301598,46.70994 61.798126,46.52543 C62.453472,46.2819 63.185387,46.415276 63.870216,46.295227 L63.870216,46.295227" /><path fill="none" stroke="#000000" stroke-width="0.06mm" d="M52.794918,89.002914 C52.758698,89.429375 52.708794,89.85489 52.68625,90.28229 C52.678658,90.42617 52.675224,90.61 52.735443,90.75519 C52.795017,90.898834 52.94344,90.85983 53.058517,90.92044 C53.14256,90.9647 53.160446,90.98807 53.226532,91.05733 C53.25882,91.09116 53.282135,91.13539 53.32154,91.16059 C53.33622,91.169975 53.36376,91.165764 53.372913,91.15093 C53.392,91.12 53.390587,91.08009 53.39355,91.04388 C53.44783,90.379616 53.502663,89.715324 53.544586,89.05018 C53.569878,88.648895 53.182312,88.68764 52.879932,88.63191 L52.879932,88.63191" /><path fill="none" stroke="#000000" stroke-width="0.02mm" d="M64.41509,44.594803 C64.31613,44.730423 64.226746,44.873585 64.11821,45.00167 C63.559258,45.661263 63.4458,45.61096 63.178715,46.13849 C63.128,46.238663 63.204945,46.339478 63.299965,46.369698 C63.411854,46.40528 63.52205,46.455402 63.639065,46.46497 C64.05546,46.499016 64.54732,46.517723 64.981926,46.44697 C65.09514,46.42854 65.168915,46.33969 65.22477,46.248566 C65.39302,45.974052 65.57,45.76922 65.65746,45.477962 C65.68555,45.384464 65.66134,45.25215 65.59328,45.17942 C64.953674,44.4959 65.20813,44.670563 64.68946,44.386116 L64.68946,44.386116" /><path fill="none" stroke="#000000" stroke-width="0.02mm" d="M69.17601,59.933403 C68.944,60.11514 69.00256,60.027744 68.93642,60.13436 L68.93642,60.13436" /></g>
<g>
<line fill="none" stroke="#5674b9" stroke-width="0.05mm" stroke-dasharray="0.4,0.2" x1="21.00" y1="99.00" x2="29.38" y2="100.42" />
<line fill="none" stroke="#5674b9" stroke-width="0.05mm" stroke-dasharray="0.4,0.2" x1="21.00" y1="99.00" x2="25.76" y2="98.93" />
<line fill="none" stroke="#00aeef" stroke-width="0.05mm" stroke-dasharray="0.4,0.2" x1="21.00" y1="99.00" x2="23.50" y2="98.83" />
<line fill="none" stroke="#5674b9" stroke-width="0.05mm" stroke-dasharray="0.4,0.2" x1="21.00" y1="99.00" x2="22.50" y2="98.74" />
<line fill="none" stroke="#5674b9" stroke-width="0.05mm" stroke-dasharray="0.4,0.2" x1="21.00" y1="99.00" x2="19.72" y2="98.67" />
<line fill="none" stroke="#00aeef" stroke-width="0.05mm" stroke-dasharray="0.4,0.2" x1="21.00" y1="99.00" x2="22.75" y2="93.59" />
<line fill="none" stroke="#111111" stroke-width="0.05mm" x1="21.00" y1="99.00" x2="29.05" y2="100.50" />
<line fill="none" stroke="#5674b9" stroke-width="0.05mm" stroke-dasharray="0.4,0.2" x1="29.05" y1="100.50" x2="28.45" y2="100.03" />
<line fill="none" stroke="#00aeef" stroke-width="0.05mm" stroke-dasharray="0.4,0.2" opacity="0.83" x1="29.05" y1="100.50" x2="29.05" y2="97.09" />
<line fill="none" stroke="#111111" stroke-width="0.05mm" x1="29.05" y1="100.50" x2="31.36" y2="95.69" />
<line fill="none" stroke="#5674b9" stroke-width="0.05mm" stroke-dasharray="0.4,0.2" x1="31.36" y1="95.69" x2="29.83" y2="95.73" />
<line fill="none" stroke="#5674b9" stroke-width="0.05mm" stroke-dasharray="0.4,0.2" x1="31.36" y1="95.69" x2="30.63" y2="95.47" />
<line fill="none" stroke="#00aeef" stroke-width="0.05mm" stroke-dasharray="0.4,0.2" x1="31.36" y1="95.69" x2="30.27" y2="97.52" />
<line fill="none" stroke="#00aeef" stroke-width="0.05mm" stroke-dasharray="0.4,0.2" x1="31.36" y1="95.69" x2="29.49" y2="96.87" />
<line fill="none" stroke="#111111" stroke-width="0.05mm" x1="31.36" y1="95.69" x2="33.74" y2="89.01" />
<line fill="none" stroke="#00aeef" stroke-width="0.05mm" stroke-dasharray="0.4,0.2" x1="33.74" y1="89.01" x2="34.79" y2="89.41" />
<line fill="none" stroke="#5674b9" stroke-width="0.05mm" stroke-dasharray="0.4,0.2" x1="33.74" y1="89.01" x2="38.90" y2="90.01" />
<line fill="none" stroke="#00aeef" stroke-width="0.05mm" stroke-dasharray="0.4,0.2" x1="33.74" y1="89.01" x2="33.08" y2="89.34" />
<line fill="none" stroke="#00aeef" stroke-width="0.05mm" stroke-dasharray="0.4,0.2" x1="33.74" y1="89.01" x2="30.28" y2="89.50" />
<line fill="none" stroke="#00aeef" stroke-width="0.05mm" stroke-dasharray="0.4,0.2" x1="33.74" y1="89.01" x2="28.25" y2="89.55" />
<line fill="none" stroke="#111111" stroke-width="0.05mm" x1="33.74" y1="89.01" x2="40.87" y2="89.37" />
<line fill="none" stroke="#5674b9" stroke-width="0.05mm" stroke-dasharray="0.4,0.2" x1="40.87" y1="89.37" x2="42.87" y2="76.90" />
<line fill="none" stroke="#5674b9" stroke-width="0.05mm" stroke-dasharray="0.4,0.2" x1="40.87" y1="89.37" x2="41.52" y2="74.03" />
<line fill="none" stroke="#5674b9" stroke-width="0.05mm" stroke-dasharray="0.4,0.2" x1="40.87" y1="89.37" x2="41.29" y2="77.68" />
<line fill="none" stroke="#5674b9" stroke-width="0.05mm" stroke-dasharray="0.4,0.2" x1="40.87" y1="89.37" x2="41.56" y2="73.76" />
<line fill="none" stroke="#5674b9" stroke-width="0.05mm" stroke-dasharray="0.4,0.2" x1="40.87" y1="89.37" x2="41.17" y2="75.41" />
<line fill="none" stroke="#5674b9" stroke-width="0.05mm" stroke-dasharray="0.4,0.2" x1="40.87" y1="89.37" x2="41.15" y2="75.42" />
<line fill="none" stroke="#5674b9" stroke-width="0.05mm" stroke-dasharray="0.4,0.2" x1="40.87" y1="89.37" x2="41.24" y2="74.63" />
<line fill="none" stroke="#111111" stroke-width="0.05mm" x1="40.87" y1="89.37" x2="45.77" y2="75.45" />
<line fill="none" stroke="#00aeef" stroke-width="0.05mm" stroke-dasharray="0.4,0.2" x1="45.77" y1="75.45" x2="44.80" y2="75.42" />
<line fill="none" stroke="#00aeef" stroke-width="0.05mm" stroke-dasharray="0.4,0.2" x1="45.77" y1="75.45" x2="49.24" y2="75.10" />
<line fill="none" stroke="#00aeef" stroke-width="0.05mm" stroke-dasharray="0.4,0.2" x1="45.77" y1="75.45" x2="45.95" y2="75.08" />
<line fill="none" stroke="#00aeef" stroke-width="0.05mm" stroke-dasharray="0.4,0.2" x1="45.77" y1="75.45" x2="46.13" y2="66.44" />
<line fill="none" stroke="#00aeef" stroke-width="0.05mm" stroke-dasharray="0.4,0.2" x1="45.77" y1="75.45" x2="49.66" y2="66.21" />
<line fill="none" stroke="#111111" stroke-width="0.05mm" x1="45.77" y1="75.45" x2="49.57" y2="65.06" />
<line fill="none" stroke="#5674b9" stroke-width="0.05mm" stroke-dasharray="0.4,0.2" x1="49.57" y1="65.06" x2="49.49" y2="65.05" />
<line fill="none" stroke="#00aeef" stroke-width="0.05mm" stroke-dasharray="0.4,0.2" x1="49.57" y1="65.06" x2="49.76" y2="64.60" />
<line fill="none" stroke="#5674b9" stroke-width="0.05mm" stroke-dasharray="0.4,0.2" x1="49.57" y1="65.06" x2="53.78" y2="64.18" />
<line fill="none" stroke="#00aeef" stroke-width="0.05mm" stroke-dasharray="0.4,0.2" x1="49.57" y1="65.06" x2="52.49" y2="63.36" />
<line fill="none" stroke="#00aeef" stroke-width="0.05mm" stroke-dasharray="0.4,0.2" x1="49.57" y1="65.06" x2="52.51" y2="63.37" />
<line fill="none" stroke="#111111" stroke-width="0.05mm" x1="49.57" y1="65.06" x2="52.49" y2="63.34" />
<line fill="none" stroke="#5674b9" stroke-width="0.05mm" stroke-dasharray="0.4,0.2" x1="52.49" y1="63.34" x2="56.75" y2="62.45" />
<line fill="none" stroke="#5674b9" stroke-width="0.05mm" stroke-dasharray="0.4,0.2" x1="52.49" y1="63.34" x2="53.67" y2="63.08" />
<line fill="none" stroke="#5674b9" stroke-width="0.05mm" stroke-dasharray="0.4,0.2" x1="52.49" y1="63.34" x2="51.00" y2="63.31" />
<line fill="none" stroke="#00aeef" stroke-width="0.05mm" stroke-dasharray="0.4,0.2" x1="52.49" y1="63.34" x2="53.91" y2="47.54" />
<line fill="none" stroke="#111111" stroke-width="0.05mm" x1="52.49" y1="63.34" x2="53.81" y2="50.77" />
<line fill="none" stroke="#5674b9" stroke-width="0.05mm" stroke-dasharray="0.4,0.2" x1="53.81" y1="50.77" x2="55.08" y2="50.41" />
<line fill="none" stroke="#00aeef" stroke-width="0.05mm" stroke-dasharray="0.4,0.2" x1="53.81" y1="50.77" x2="55.14" y2="49.99" />
<line fill="none" stroke="#00aeef" stroke-width="0.05mm" stroke-dasharray="0.4,0.2" x1="53.81" y1="50.77" x2="54.04" y2="47.63" />
<line fill="none" stroke="#00aeef" stroke-width="0.05mm" stroke-dasharray="0.4,0.2" x1="53.81" y1="50.77" x2="59.80" y2="47.31" />
<line fill="none" stroke="#111111" stroke-width="0.05mm" x1="53.81" y1="50.77" x2="58.99" y2="47.83" />
<line fill="none" stroke="#00aeef" stroke-width="0.05mm" stroke-dasharray="0.4,0.2" x1="58.99" y1="47.83" x2="59.22" y2="47.50" />
<line fill="none" stroke="#5674b9" stroke-width="0.05mm" stroke-dasharray="0.4,0.2" x1="58.99" y1="47.83" x2="58.36" y2="47.82" />
<line fill="none" stroke="#00aeef" stroke-width="0.05mm" stroke-dasharray="0.4,0.2" x1="58.99" y1="47.83" x2="58.53" y2="46.78" />
<line fill="none" stroke="#111111" stroke-width="0.05mm" x1="58.99" y1="47.83" x2="59.88" y2="43.70" />
<line fill="none" stroke="#111111" stroke-width="0.05mm" x1="59.88" y1="43.70" x2="63.13" y2="44.83" />
<line fill="none" stroke="#5674b9" stroke-width="0.05mm" stroke-dasharray="0.4,0.2" x1="63.13" y1="44.83" x2="68.66" y2="21.67" />
<line fill="none" stroke="#111111" stroke-width="0.05mm" x1="63.13" y1="44.83" x2="71.68" y2="19.30" />
</g>
<g>
<circle cx="21.00" cy="99.00" r="0.1" fill="#111111" />
<circle cx="29.05" cy="100.50" r="0.1" fill="#111111" />
<circle cx="31.36" cy="95.69" r="0.1" fill="#111111" />
<circle cx="33.74" cy="89.01" r="0.1" fill="#111111" />
<circle cx="40.87" cy="89.37" r="0.1" fill="#111111" />
<circle cx="45.77" cy="75.45" r="0.1" fill="#111111" />
<circle cx="49.57" cy="65.06" r="0.1" fill="#111111" />
<circle cx="52.49" cy="63.34" r="0.1" fill="#111111" />
<circle cx="53.81" cy="50.77" r="0.1" fill="#111111" />
<circle cx="58.99" cy="47.83" r="0.1" fill="#111111" />
<circle cx="59.88" cy="43.70" r="0.1" fill="#111111" />
<circle cx="63.13" cy="44.83" r="0.1" fill="#111111" />
<circle cx="71.68" cy="19.30" r="0.1" fill="#111111" />
</g>
<g>
<text x="21.20" y="99.00" font-size=".2mm" fill="#000000">0</text>
<text x="29.25" y="100.50" font-size=".2mm" fill="#000000">1</text>
<text x="31.56" y="95.69" font-size=".2mm" fill="#000000">2</text>
<text x="33.94" y="89.01" font-size=".2mm" fill="#000000">3</text>
<text x="41.07" y="89.37" font-size=".2mm" fill="#000000">4</text>
<text x="45.97" y="75.45" font-size=".2mm" fill="#000000">5</text>
<text x="49.77" y="65.06" font-size=".2mm" fill="#000000">6</text>
<text x="52.69" y="63.34" font-size=".2mm" fill="#000000">7</text>
<text x="54.01" y="50.77" font-size=".2mm" fill="#000000">8</text>
<text x="59.19" y="47.83" font-size=".2mm" fill="#000000">9</text>
<text x="60.08" y="43.70" font-size=".2mm" fill="#000000">10</text>
<text x="63.33" y="44.83" font-size=".2mm" fill="#000000">11</text>
<text x="71.88" y="19.30" font-size=".2mm" fill="#000000">12</text>
</g>
<g>
</g>
</g>
</svg>