<?xml version="1.0" encoding="utf-8"?>
<!DOCTYPE svg PUBLIC "-//W3C//DTD SVG 1.1//EN" "http://www.w3.org/Graphics/SVG/1.1/DTD/svg11.dtd">
<svg version="1.1" id="Layer_1" xmlns="http://www.w3.org/2000/svg" xmlns:xlink="http://www.w3.org/1999/xlink" x="0px" y="0px" width="140mm" height="109mm" viewBox="0 0 140 109" enable-background="new 0 0 140 109" xml:space="preserve">
<symbol id="airflow" viewBox="-12 -12 24 24">
<path d="M-4.38,10.73l4.2-3.84V3.55L-4.07,7.13l-.31-.29L-.18,3V-6.89a3.37,3.37,0,0,0-1.68.53l1.68-4.15L0-11l.21.51h0v0l1.65,4.1A3.26,3.26,0,0,0,.24-6.89v14l-.08,0L-4.07,11Z"/>
<rect fill="none" x="-12" y="-12" width="24" height="24"/>
</symbol>
<symbol id="anastomosis" viewBox="-12 -12 24 24">
<path d="M2.23-4.78l.37.24L5.22-2.78l-.47.57L2.49-3.7l-4.61,8-.24.44-.37-.34L-5.22,2.3l.55-.52,2.1,1.82L2-4.39Z"/>
<rect fill="none" x="-12" y="-12" width="24" height="24"/>
</symbol>
<symbol id="bivouac" viewBox="-12 -12 24 24">
<path d="M.25-7.66l.24.58L.54-7l3.88.48-3.31.91L6,6H8.35v.48l-16.7.07V6.05h2.64L0-7.08Zm0,1.32L-5.13,6H-4l2.07-5L.2-4l2.09,5L4.37,6H5.44Z"/>
<rect fill="none" x="-12" y="-12" width="24" height="24"/>
</symbol>
<symbol id="bones" viewBox="-12 -12 24 24">
<path d="M2.44,4.27l-.16,0H2.13a.22.22,0,0,1-.11,0l-.1-.06a.39.39,0,0,1-.09-.11l-.08-.13a1.51,1.51,0,0,1-.06-.15l-.07-.17s0-.11-.08-.19-.06-.16-.08-.21a4.75,4.75,0,0,0-.38-.71c-.18-.29-.43-.64-.74-1A11.15,11.15,0,0,0-.7.32,6.73,6.73,0,0,0-2-.64a4.12,4.12,0,0,0-1.44-.52A1.64,1.64,0,0,1-5-2.19.72.72,0,0,1-5-2.44a1,1,0,0,1,0-.29A.52.52,0,0,1-4.87-3a.54.54,0,0,1,.35-.15L-4-3.22l.46,0a.54.54,0,0,0,.27-.06A.52.52,0,0,0-3-3.56a.74.74,0,0,0,.13-.31.54.54,0,0,1,.15-.26.54.54,0,0,1,.3-.15.83.83,0,0,1,.47,0,1.11,1.11,0,0,1,.35.4A7.46,7.46,0,0,1-1-2.76q.18.42.33.72a3.22,3.22,0,0,0,.39.57L.1-1a4.77,4.77,0,0,0,.58.43c.28.18.51.33.69.43l1,.56a1.84,1.84,0,0,0,.39.23A5.29,5.29,0,0,1,3.22.9l.43.26a3.7,3.7,0,0,1,.46.3l.36.29a2.28,2.28,0,0,1,.31.32A1,1,0,0,1,5,2.4c.2.48,0,.78-.47.91h0a8.48,8.48,0,0,0-1.12.09,1,1,0,0,0-.42.44A1,1,0,0,1,2.44,4.27Z"/>
<rect fill="none" x="-12" y="-12" width="24" height="24"/>
</symbol>
<symbol id="calcite" viewBox="-12 -12 24 24">
<path d="M2.36-2.22l.05.46.34,3.91L2,2.22,1.65-1.26-2.52-.06l-.23-.7L1.89-2.08Z"/>
<rect fill="none" x="-12" y="-12" width="24" height="24"/>
</symbol>
<symbol id="cauliflower" viewBox="-12 -12 24 24">
<path d="M5.58,3.22v-3A2.12,2.12,0,0,0,6.92-.43a1.78,1.78,0,0,0,.55-1.32,1.92,1.92,0,0,0-.65-1.42,2.19,2.19,0,0,0-1.53-.59,2.21,2.21,0,0,0-1.54.59,1.78,1.78,0,0,0-.64,1.42A1.86,1.86,0,0,0,3.65-.43,2.12,2.12,0,0,0,5,.23v3H.26v-3A2.17,2.17,0,0,0,1.61-.43a1.81,1.81,0,0,0,.54-1.32,1.91,1.91,0,0,0-.64-1.42A2.21,2.21,0,0,0,0-3.76a2.21,2.21,0,0,0-1.54.59,1.82,1.82,0,0,0-.64,1.42A1.83,1.83,0,0,0-1.66-.43,2.12,2.12,0,0,0-.32.23v3H-5v-3A2.12,2.12,0,0,0-3.71-.43a1.78,1.78,0,0,0,.55-1.32,1.92,1.92,0,0,0-.65-1.42,2.19,2.19,0,0,0-1.53-.59,2.21,2.21,0,0,0-1.54.59,1.83,1.83,0,0,0-.65,1.42A1.87,1.87,0,0,0-7-.43,2.12,2.12,0,0,0-5.64.23v3H-8v.54H8V3.22Z"/>
<rect fill="none" x="-12" y="-12" width="24" height="24"/>
</symbol>
<symbol id="clay" viewBox="-12 -12 24 24">
<path d="M1.85-1.33a3,3,0,0,1,1.67.48,3.23,3.23,0,0,1,1,1l.29.51-1,.43a3.81,3.81,0,0,0-.23-.4A3.74,3.74,0,0,0,2.93,0,1.77,1.77,0,0,0,1.85-.32a2.57,2.57,0,0,0-1.1.15A.86.86,0,0,0,.51.14,2.23,2.23,0,0,1,0,.88a2.55,2.55,0,0,1-1.45.43,3.16,3.16,0,0,1-2.75-1,4.28,4.28,0,0,1-.37-.57,3.91,3.91,0,0,1-.21-.47l0-.16,1-.22a1.87,1.87,0,0,0,.45.79A2.12,2.12,0,0,0-1.51.33,1.82,1.82,0,0,0-.69.14l.21-.36A1.53,1.53,0,0,1,.17-1,3.76,3.76,0,0,1,1.85-1.33Z"/>
<rect fill="none" x="-12" y="-12" width="24" height="24"/>
</symbol>
<symbol id="crystals" viewBox="-12 -12 24 24">
<path d="M-2.94-5.38,0-.72,2.94-5.38,3.62-5,.68-.36H6.56V.36H.68L3.62,5l-.68.36L0,.72-2.94,5.38-3.62,5-.68.36H-6.56V-.36H-.68L-3.62-5Z"/>
<rect fill="none" x="-12" y="-12" width="24" height="24"/>
</symbol>
<symbol id="curtain" viewBox="-12 -12 24 24">
<path d="M3.57-6.69l.52.53L.39-3V-.33L.1-.26a3.79,3.79,0,0,0-1,.41c-.58.3-.87.65-.87,1v.07A1.61,1.61,0,0,0-.84,2.48a3.69,3.69,0,0,0,.45.24L0,2.86l.13.05L.39,3V6.12H-.39V3.51a7.65,7.65,0,0,1-.9-.46A2.19,2.19,0,0,1-2.54,1.28V1.23A2,2,0,0,1-1.31-.48,5.32,5.32,0,0,1-.39-.86V-3l-3.7-3.14.52-.53L0-3.67Z"/>
<rect fill="none" x="-12" y="-12" width="24" height="24"/>
</symbol>
<symbol id="disk" viewBox="-12 -12 24 24">
<path d="M-.09-4.19a2.43,2.43,0,0,1,1.7.64A2,2,0,0,1,2.35-2,2.09,2.09,0,0,1,1.81-.55,2.44,2.44,0,0,1,.35.23l2.18,3.6-.68.33L0,1.14-1.48,4.19l-.71-.29L-.41.25A2.53,2.53,0,0,1-1.9-.47a2,2,0,0,1-.63-1.41,2,2,0,0,1,.67-1.61,2.46,2.46,0,0,1,1.72-.7ZM1.05-3.06.56-3.49l-.69,0A1.72,1.72,0,0,0-1.29-3a1.51,1.51,0,0,0-.45,1.08,1.36,1.36,0,0,0,.51,1A1.68,1.68,0,0,0-.07-.44v0l0,0A1.7,1.7,0,0,0,1.11-.92,1.36,1.36,0,0,0,1.56-2,1.47,1.47,0,0,0,1.05-3.06Z"/>
<rect fill="none" x="-12" y="-12" width="24" height="24"/>
</symbol>
<symbol id="entrance" viewBox="-12 -12 24 24">
<path d="M4.46,9H-4.46L0-9Z"/>
<rect fill="none" x="-12" y="-12" width="24" height="24"/>
</symbol>
<symbol id="flowstone" viewBox="-12 -12 24 24">
<rect x="-6" y="-0.21" width="12" height="0.42"/>
<rect fill="none" x="-12" y="-12" width="24" height="24"/>
</symbol>
<symbol id="flutes" viewBox="-12 -12 24 24">
<path d="M-7-1H7v.72H3.87A4.7,4.7,0,0,1,2.16,1.5,4.2,4.2,0,0,1,0,2.13,3.94,3.94,0,0,1-2.19,1.5,4.18,4.18,0,0,1-3.76-.27H-7Zm4.17.72A3.15,3.15,0,0,0-1.65,1,3.21,3.21,0,0,0,0,1.41,3.49,3.49,0,0,0,1.6,1,3.68,3.68,0,0,0,3-.27Z"/>
<rect fill="none" x="-12" y="-12" width="24" height="24"/>
</symbol>
<symbol id="gradient" viewBox="-12 -12 24 24">
<path d="M2.58-3.83,0-10-2.58-3.83A4.74,4.74,0,0,1-.17-4.5V10H.25V-4.5A6.65,6.65,0,0,1,2.58-3.83Z"/>
<rect fill="none" x="-12" y="-12" width="24" height="24"/>
</symbol>
<symbol id="guano" viewBox="-12 -12 24 24">
<path d="M-3.24-3a2.15,2.15,0,0,1,1.57.55A3.93,3.93,0,0,1-.59.24a4.32,4.32,0,0,1,2.75-2.3,2.68,2.68,0,0,1,2.23.36A2.36,2.36,0,0,1,5.5.19l-.79,0a1.72,1.72,0,0,0-.79-1.37,1.94,1.94,0,0,0-1.55-.24A3.53,3.53,0,0,0,.48,0,6.63,6.63,0,0,0-.69,3l-.79-.09a10.72,10.72,0,0,0,0-3.16A3.21,3.21,0,0,0-2.22-2,1.44,1.44,0,0,0-3.37-2.3,3.45,3.45,0,0,0-5-1.54l-.5-.55a4.29,4.29,0,0,1,2-.91A.9.9,0,0,1-3.24-3Z"/>
<rect fill="none" x="-12" y="-12" width="24" height="24"/>
</symbol>
<symbol id="helictites" viewBox="-12 -12 24 24">
<path d="M-4.59-7.92h.79v7.7l3.41,0V-7.92H.39V-.17L4.2-.12h.39v8H3.8V.6L.39.55V7.92H-.39V.55L-4.2.5l-.39,0v-8.4Z"/>
<rect fill="none" x="-12" y="-12" width="24" height="24"/>
</symbol>
<symbol id="human" viewBox="-12 -12 24 24">
<path d="M-3.59-3.29A5.13,5.13,0,0,1,0-4.66,5.13,5.13,0,0,1,3.59-3.29,4.3,4.3,0,0,1,5.09,0a4.3,4.3,0,0,1-1.5,3.29A5.13,5.13,0,0,1,0,4.66,5.13,5.13,0,0,1-3.59,3.29,4.3,4.3,0,0,1-5.09,0,4.3,4.3,0,0,1-3.59-3.29Zm.28.77A3.68,3.68,0,0,0-4.3,0a3.62,3.62,0,0,0,1,2.57L-.5.05ZM0-3.94A4.42,4.42,0,0,0-2.75-3L.16-.36H4.28A3.62,3.62,0,0,0,2.91-2.9,4.38,4.38,0,0,0,0-3.94ZM.16.46-2.7,3.07A4.42,4.42,0,0,0,0,3.94a4.37,4.37,0,0,0,2.87-1A3.78,3.78,0,0,0,4.28.46Z"/>
<rect fill="none" x="-12" y="-12" width="24" height="24"/>
</symbol>
<symbol id="karren" viewBox="-12 -12 24 24">
<path d="M1-5.84h0a1.37,1.37,0,0,1,1.06.68A3.33,3.33,0,0,1,2.5-3.79,25.79,25.79,0,0,1,2.36,0a18.61,18.61,0,0,0-.08,3.72,2.68,2.68,0,0,0,.41,1.2,1.13,1.13,0,0,0,.79.5A.92.92,0,0,0,4,4.94a4.43,4.43,0,0,0,.47-1.22c.16-.64.36-1.86.59-3.66a26.71,26.71,0,0,1,.64-3.69,4.62,4.62,0,0,1,.57-1.29,1.34,1.34,0,0,1,1-.59h0A1.28,1.28,0,0,1,8.37-5a2.17,2.17,0,0,1,.39,1.15A19.91,19.91,0,0,1,8.54-.53a21.51,21.51,0,0,0-.2,3.64A2.64,2.64,0,0,0,9.45,5.36,1.91,1.91,0,0,0,10.88,5a3.84,3.84,0,0,0,.7-1l.42.2-.1.18-.12.21-.11.18L11.52,5a.94.94,0,0,1-.14.16c-.06.07-.13.12-.19.18a2.5,2.5,0,0,1-1.85.41H9.29l0,0A3.06,3.06,0,0,1,7.87,3.13a22.11,22.11,0,0,1,.2-3.7,18.17,18.17,0,0,0,.22-3.28A1.85,1.85,0,0,0,8-4.79a.77.77,0,0,0-.67-.3.93.93,0,0,0-.64.42,4.51,4.51,0,0,0-.51,1.15A26.26,26.26,0,0,0,5.54.1c-.24,1.83-.45,3.07-.61,3.72a5.38,5.38,0,0,1-.51,1.34,1.33,1.33,0,0,1-.89.68H3.47A1.58,1.58,0,0,1,2.3,5.16a3.29,3.29,0,0,1-.49-1.4A20.27,20.27,0,0,1,1.89,0,23.45,23.45,0,0,0,2-3.75a2.94,2.94,0,0,0-.32-1.19A.93.93,0,0,0,1-5.42,1.1,1.1,0,0,0,.19-5,3.69,3.69,0,0,0-.43-3.76,20.78,20.78,0,0,0-1.07.07c-.2,2-.37,3.32-.49,3.86A4.48,4.48,0,0,1-2,5.26,1.06,1.06,0,0,1-3,5.81h0a1.9,1.9,0,0,1-1.29-.67,2.7,2.7,0,0,1-.58-1.31,14.92,14.92,0,0,1,0-3.6q0-.12.06-.54c0-.28,0-.47,0-.57s0-.28,0-.52,0-.42,0-.55,0-.28,0-.47,0-.36,0-.51,0-.29,0-.43A3.09,3.09,0,0,0-5-4.62a1.19,1.19,0,0,0-.67-.6,1.5,1.5,0,0,0-1.2.9A7,7,0,0,0-7.41-2.1c0,.39-.1,1-.14,1.76s-.11,1.47-.18,2.08A9.61,9.61,0,0,1-8,3.32h0l0,0A2.81,2.81,0,0,1-9.2,4.62a1.82,1.82,0,0,1-1.35.15A1.94,1.94,0,0,1-11.61,4,2.39,2.39,0,0,1-12,2.56l.47,0a1.92,1.92,0,0,0,.31,1.16,1.47,1.47,0,0,0,.81.62,1.3,1.3,0,0,0,1-.11A2.32,2.32,0,0,0-8.5,3.18a7.53,7.53,0,0,0,.29-1.5Q-8.1.8-8-.36c0-.78.1-1.37.16-1.78A7.23,7.23,0,0,1-7.28-4.5,1.93,1.93,0,0,1-5.65-5.66h.05l0,0a1.59,1.59,0,0,1,1,.84,3.47,3.47,0,0,1,.34,1.41,4.91,4.91,0,0,1,0,.57v.54c0,.15,0,.37,0,.66s0,.47,0,.58,0,.33-.06.68,0,.56-.06.63a14.78,14.78,0,0,0,0,3.49,2.58,2.58,0,0,0,.5,1.13,1.57,1.57,0,0,0,1,.5A.61.61,0,0,0-2.44,5,3.89,3.89,0,0,0-2,3.85C-1.9,3.31-1.74,2-1.53,0A20.65,20.65,0,0,1-.86-3.89,3.89,3.89,0,0,1-.18-5.26,1.58,1.58,0,0,1,1-5.84Z"/>
<rect fill="none" x="-12" y="-12" width="24" height="24"/>
</symbol>
<symbol id="moonmilk" viewBox="-12 -12 24 24">
<path d="M-4.78-3.06a3.39,3.39,0,0,1,1.5.34,2.48,2.48,0,0,1,1.1,1,3.74,3.74,0,0,1,1.62-.8,3.52,3.52,0,0,1,1.71,0,2.9,2.9,0,0,1,1.39.77A2.49,2.49,0,0,1,3.25-.37,4,4,0,0,1,5-.76a3.58,3.58,0,0,1,1.6.36A2.84,2.84,0,0,1,7.88.92a2.32,2.32,0,0,1,0,1.88.34.34,0,0,1-.37.26A.36.36,0,0,1,7.25,3a.32.32,0,0,1-.12-.25.21.21,0,0,1,0-.12,2,2,0,0,0,0-1.43,2,2,0,0,0-1-.9A2.81,2.81,0,0,0,4.68,0,2.78,2.78,0,0,0,3.12.56L2.46.25A1.7,1.7,0,0,0,2.15-1.1,2.15,2.15,0,0,0,1-1.81a2.85,2.85,0,0,0-1.58.06A3,3,0,0,0-2-.83l-.71-.12A1.74,1.74,0,0,0-3.55-2a2.36,2.36,0,0,0-1.39-.27,3.08,3.08,0,0,0-1.45.53A2.33,2.33,0,0,0-7.32-.56a.35.35,0,0,1-.37.24A.39.39,0,0,1-8-.42a.33.33,0,0,1-.1-.26v-.1A3,3,0,0,1-6.89-2.35,4,4,0,0,1-5-3Z"/>
<rect fill="none" x="-12" y="-12" width="24" height="24"/>
</symbol>
<symbol id="narrow" viewBox="-12 -12 24 24">
<path d="M-1.5,5V-5h0.64V5H-1.5z"/>
<path d="M0.86,5V-5H1.5V5H0.86z"/>
<rect fill="none" x="-12" y="-12" width="24" height="24"/>
</symbol>
<symbol id="paleoflow" viewBox="-12 -12 24 24">
<path d="M.38-12V.17A1.9,1.9,0,0,0,1,0,1.57,1.57,0,0,0,1.7-.72a1.86,1.86,0,0,0,.23-1c0-.09,0-.14.08-.16a.92.92,0,0,1,.24,0,.52.52,0,0,0,.25,0h.08A2.48,2.48,0,0,1,2,0,2.5,2.5,0,0,1,.38.77V7.21H2.09L0,12-1.8,7.23c.07,0,.59,0,1.53,0V.77A3,3,0,0,1-1.35.43a2.16,2.16,0,0,1-1-1,2.38,2.38,0,0,1-.24-1.33l.67,0a2,2,0,0,0,.15,1,1.73,1.73,0,0,0,.59.67A2.14,2.14,0,0,0-.27.16V-12Z"/>
<rect fill="none" x="-12" y="-12" width="24" height="24"/>
</symbol>
<symbol id="rain" viewBox="-12 -12 24 24">
<path d="M-4.14-6.34h0.71v4.69h-0.71V-6.34z"/>
<path d="M-0.35-6.34h0.71v4.69h-0.71V-6.34z"/>
<path d="M3.43-6.34h0.71v4.69H3.43V-6.34z"/>
<path d="M-4.14,1.65h0.71v4.69h-0.71V1.65z"/>
<path d="M-0.35,1.65h0.71v4.69h-0.71V1.65z"/>
<path d="M3.43,1.65h0.71v4.69H3.43V1.65z"/>
<rect fill="none" x="-12" y="-12" width="24" height="24"/>
</symbol>
<symbol id="rats" viewBox="-12 -12 24 24">
<path d="M8.78-2.32,7-2.27c-.51-.17-.65-.56-1.46-.45l-.25.45C3.59-2.75,2.59-3.66.56-3.62l-1.35.3A4.89,4.89,0,0,0-4.24,1.57c-.68.6-2.58.86-3.39.94a6.84,6.84,0,0,0-1.62.39,4.91,4.91,0,0,0-1,.52A1.75,1.75,0,0,0-11,4.61a1.16,1.16,0,0,0,.59,1.48,1.3,1.3,0,0,1,.14.12c.16-.52-.35-.92-.2-1.42a3.35,3.35,0,0,1,.27-.45,3.18,3.18,0,0,1,1.79-1c.63-.12,1.27-.22,1.91-.3.48-.07,1,0,1.4-.12A6.94,6.94,0,0,1-4,2.82,30.64,30.64,0,0,0,.41,2.69l2.16.15c.1-.09,0,0,.1-.15a.87.87,0,0,0-.9-.55c.86-1,2.27-.37,3.1-.05.5.19,1,0,1.25.4.11-.1.1-.07.15-.25.3,0,.31.07.6.15-.06-.49-.34-.64-1-.6a.78.78,0,0,1,0-.55C6.3.56,7.29.73,8.13.43a13.78,13.78,0,0,0,2.15-.9l.6-.85v-.2A16.9,16.9,0,0,0,8.78-2.32Z"/>
<rect fill="none" x="-12" y="-12" width="24" height="24"/>
</symbol>
<symbol id="sand" viewBox="-12 -12 24 24">
<path d="M-1.58,0.83c0.23,0.2,0.35,0.44,0.36,0.73c0.01,0.29-0.08,0.54-0.28,0.75c-0.2,0.21-0.46,0.32-0.78,0.33c-0.32,0.01-0.6-0.08-0.83-0.26C-3.36,2.19-3.49,1.95-3.5,1.67C-3.51,1.38-3.41,1.12-3.2,0.9c0.21-0.22,0.48-0.34,0.8-0.35C-2.08,0.54-1.81,0.64-1.58,0.83z"/>
<path d="M0.08-2.36c0.23,0.2,0.35,0.44,0.36,0.73c0.01,0.29-0.08,0.54-0.28,0.75c-0.2,0.21-0.46,0.32-0.78,0.33c-0.32,0.01-0.59-0.07-0.83-0.26s-0.37-0.42-0.38-0.71c-0.01-0.29,0.09-0.54,0.3-0.76c0.21-0.22,0.48-0.33,0.8-0.35C-0.42-2.65-0.14-2.56,0.08-2.36z"/>
<path d="M3.12,0.55c0.23,0.2,0.35,0.43,0.38,0.71c0.02,0.28-0.07,0.53-0.28,0.75C3,2.23,2.73,2.35,2.42,2.36C2.1,2.37,1.82,2.28,1.58,2.08C1.34,1.88,1.22,1.64,1.2,1.35c-0.01-0.29,0.09-0.54,0.3-0.75C1.72,0.4,1.99,0.29,2.3,0.28S2.89,0.36,3.12,0.55z"/>
<rect fill="none" x="-12" y="-12" width="24" height="24"/>
</symbol>
<symbol  id="scallops" viewBox="-12 -12 24 24">
<path d="M.05-3.74l.21,0A2.35,2.35,0,0,1,1.74-3a2,2,0,0,1,.59,1.55v0l0,0A9.59,9.59,0,0,1-.08,3.27l-.39.47-.27-.55A14.26,14.26,0,0,1-2.33-1.89v-.05l0-.05A2,2,0,0,1-1.44-3.3,2.42,2.42,0,0,1,.05-3.74ZM-.11-3A1.44,1.44,0,0,0-1.55-1.89,13.06,13.06,0,0,0-.29,2.33,8.6,8.6,0,0,0,1.55-1.54a1.41,1.41,0,0,0-.38-1A1.62,1.62,0,0,0,.18-3Z"/>
<rect fill="none" x="-12" y="-12" width="24" height="24"/>
</symbol>
<symbol  id="sink" viewBox="-12 -12 24 24">
<path d="M.72,9.41H.9c1.94,0,3.26-.54,3.94-1.51a3.61,3.61,0,0,0,.33-.69,2,2,0,0,0,.11-.54V6.46l.69,0a2.8,2.8,0,0,1-.58,1.78C4.58,9.39,3.1,10,.93,10H-.93q-3.25,0-4.46-1.8a2.74,2.74,0,0,1-.43-.83A2.37,2.37,0,0,1-6,6.67V6.43l.68,0A2.27,2.27,0,0,0-4.84,7.9c.68,1,2,1.47,3.93,1.48l.5,0ZM-1.46-10a.68.68,0,0,0,.16.41A2.77,2.77,0,0,0-.51-9l0,0a3.63,3.63,0,0,1,1,.7,1.15,1.15,0,0,1,.34.88c0,.58-.53,1.14-1.49,1.68-.68.42-1,.79-1,1.11s.3.61.84,1h0Q.61-2.86.46-1.78a3.51,3.51,0,0,1-1.55,2,.61.61,0,0,0-.26.41,1.67,1.67,0,0,0,.1.51,5.3,5.3,0,0,1,.32,1L.56,1.9.46,8.06-3.4,2.54l1.73-.28A6.16,6.16,0,0,0-2,1.39,1.7,1.7,0,0,1-2.09.58a1.21,1.21,0,0,1,.53-.82h0v0C-.75-.86-.33-1.38-.28-1.85s-.23-.87-.91-1.27h0C-2-3.6-2.37-4.1-2.4-4.61S-2-5.74-1.09-6.29C-.34-6.72.06-7.1.09-7.44a.67.67,0,0,0-.18-.43,3.17,3.17,0,0,0-.79-.58,2.93,2.93,0,0,1-1-.67A1.16,1.16,0,0,1-2.17-10Z"/>
<rect fill="none" x="-12" y="-12" width="24" height="24"/>
</symbol>
<symbol  id="spring" viewBox="-12 -12 24 24">
<path d="M-1.34-9.86,2.52-4.34.78-4.06a8,8,0,0,0,.29.87,1.4,1.4,0,0,1,.13.79,1.3,1.3,0,0,1-.52.84l0,0v0C-.13-.95-.55-.42-.61,0S-.37.91.31,1.3l0,0c.75.46,1.14,1,1.18,1.46S1.12,3.92.21,4.46C-.54,4.9-.94,5.29-1,5.64a.74.74,0,0,0,.18.43A3.2,3.2,0,0,0,0,6.62a3,3,0,0,1,1,.7,1.14,1.14,0,0,1,.31.86A1.74,1.74,0,0,1,.71,9.26H.92c1.92,0,3.22-.52,3.9-1.51a2.05,2.05,0,0,0,.35-.67,2.59,2.59,0,0,0,.1-.55l0-.19.65,0a2.84,2.84,0,0,1-.55,1.8C4.58,9.26,3.08,9.85.92,9.86H-.92c-2.17,0-3.66-.6-4.49-1.77a3.65,3.65,0,0,1-.4-.85A2.43,2.43,0,0,1-6,6.53V6.29l.66,0a2.08,2.08,0,0,0,.47,1.41c.68,1,2,1.5,3.91,1.51H-.4c.62-.43.94-.8,1-1.1a.76.76,0,0,0-.16-.43,3.25,3.25,0,0,0-.79-.51v0a3.8,3.8,0,0,1-1-.7,1.15,1.15,0,0,1-.34-.91q.06-.84,1.5-1.68c.68-.4,1-.77,1-1.1S.49,2.21,0,1.87c0,0,0,0,0,0C-1,1.32-1.44.69-1.34,0a3.58,3.58,0,0,1,1.55-2,.54.54,0,0,0,.23-.38A1.28,1.28,0,0,0,.37-3a4.57,4.57,0,0,1-.32-1l-1.49.24Z"/>
<rect fill="none" x="-12" y="-12" width="24" height="24"/>
</symbol>
<symbol  id="stalactite" viewBox="-12 -12 24 24">
<path d="M3.57-6.69l.52.53L.39-3V6.12H-.39V-3l-3.7-3.14.52-.53L0-3.67Z"/>
<rect fill="none" x="-12" y="-12" width="24" height="24"/>
</symbol>
<symbol  id="stalagmite" viewBox="-12 -12 24 24">
<path d="M.38-6.42V2.75L4.11,5.89l-.56.53L0,3.4l-3.57,3-.53-.53,3.7-3.14V-6.42Z"/>
<rect fill="none" x="-12" y="-12" width="24" height="24"/>
</symbol>
<symbol  id="stalagnate" viewBox="-12 -12 24 24">
<path d="M3.55-8.46l.56.53L.38-4.78v9L4.11,7.36l-.56.53L0,4.86l-3.57,3-.53-.53,3.7-3.14v-9l-3.7-3.15.53-.53L0-5.43Z"/>
<rect fill="none" x="-12" y="-12" width="24" height="24"/>
</symbol>
<symbol  id="straws" viewBox="-12 -12 24 24">
<path d="M-10.89-2.76H10.89V-2H9.63V.46H8.84V-2H8.29v5.6H7.5V-2H5.56V.7H4.77V-2H2.07V2.38H1.29V-2H-.1v3H-.89V-2H-3.2V4.11H-4V-2H-6.22L-6.16.75l-.79,0L-7-2H-8.32V2.33H-9.1V-2h-1.79Z"/>
<rect fill="none" x="-12" y="-12" width="24" height="24"/>
</symbol>
<symbol  id="water" viewBox="-12 -12 24 24">
<path d="M-1.72-9.86,2.11-4.32.38-4.06a6.49,6.49,0,0,0,.29.89,1.5,1.5,0,0,1,.13.79,1.2,1.2,0,0,1-.5.82h0l0,0C-.54-.94-1-.42-1,.05s.24.89.92,1.27h0c.77.48,1.17,1,1.19,1.49S.71,3.94-.2,4.49c-.75.43-1.13.81-1.15,1.15a.51.51,0,0,0,.18.43,2.66,2.66,0,0,0,.76.58,2.93,2.93,0,0,1,1,.67,1.16,1.16,0,0,1,.29.89C.84,8.75.42,9.3-.41,9.86l-.44-.55c.66-.45,1-.83,1-1.15A.47.47,0,0,0,0,7.75a2.84,2.84,0,0,0-.78-.53h0a3.87,3.87,0,0,1-1-.69,1.24,1.24,0,0,1-.34-.91c0-.58.54-1.14,1.52-1.68.66-.42,1-.79,1-1.11s-.3-.61-.84-1h0Q-1.9,1.06-1.74,0a3.44,3.44,0,0,1,1.54-2,.67.67,0,0,0,.27-.41A1.11,1.11,0,0,0,0-3a4.33,4.33,0,0,1-.31-1l-1.5.24Z"/>
<rect fill="none" x="-12" y="-12" width="24" height="24"/>
</symbol><symbol  id="tree" viewBox="-12 -12 24 24">
<path d="M7.4-5.04A4.271,4.271,0,0,0,7.7-6.627a4.3,4.3,0,0,0-4.3-4.3A4.279,4.279,0,0,0,.636-9.914,4.293,4.293,0,0,0-3.045-12a4.3,4.3,0,0,0-4.3,4.3,4.27,4.27,0,0,0,.421,1.845,4.3,4.3,0,0,0-3.645,4.244,4.3,4.3,0,0,0,4.3,4.3A4.282,4.282,0,0,0-3.946,2L-1.175,5.23h0L-1.612,12H.982L.757,6.376,4.119,2.827v0a4.272,4.272,0,0,0,2.15.58,4.3,4.3,0,0,0,4.3-4.3A4.3,4.3,0,0,0,7.4-5.04ZM-3.346,1.538h0A4.346,4.346,0,0,0-2.7.788a4.266,4.266,0,0,0,1.765.753l-.135,2.087ZM.69,4.7.563,1.544A4.258,4.258,0,0,0,2.321.805,4.3,4.3,0,0,0,3.378,2.279Z"/>
<rect fill="none" x="-12" y="-12" width="24" height="24"/>
</symbol><g>
<desc></desc>
<g>
<line fill="none" stroke="#dddddd" stroke-width="0.1mm" x1="0.00" y1="72.00" x2="140.00" y2="72.00" />
<text x="137.20" y="71.80" font-size=".2mm" fill="#000000">0m</text>
<line fill="none" stroke="#dddddd" stroke-width="0.1mm" x1="0.00" y1="52.00" x2="140.00" y2="52.00" />
<text x="137.20" y="51.80" font-size=".2mm" fill="#000000">10m</text>
<line fill="none" stroke="#dddddd" stroke-width="0.1mm" x1="0.00" y1="32.00" x2="140.00" y2="32.00" />
<text x="137.20" y="31.80" font-size=".2mm" fill="#000000">20m</text>
<line fill="none" stroke="#dddddd" stroke-width="0.1mm" x1="0.00" y1="12.00" x2="140.00" y2="12.00" />
<text x="137.20" y="11.80" font-size=".2mm" fill="#000000">30m</text>
<line fill="none" stroke="#dddddd" stroke-width="0.1mm" x1="0.00" y1="92.00" x2="140.00" y2="92.00" />
<text x="137.20" y="91.80" font-size=".2mm" fill="#000000">-10m</text>
</g>
<g>
<path fill="none" stroke="#000000" stroke-width="0.06mm" d="M20.985136,72.07805 C21.221008,70.465 20.86622,72.69251 22.014633,68.76453 C23.010376,65.35873 21.287622,69.69123 23.072697,65.44249 C23.192719,65.156815 23.319088,64.87396 23.562107,64.67303 C23.598087,64.64327 23.635921,64.61399 23.678852,64.59564 C25.20823,63.94205 24.114122,64.3832 25.231499,64.07872 C25.309122,64.05757 25.383026,64.02346 25.4548,63.98711 C25.705542,63.860115 25.94307,63.70712 26.198172,63.589127 C27.57956,62.950188 26.701288,63.677826 28.693861,62.313396 C29.17646,61.982933 29.537245,61.488644 30.035925,61.18299 C31.093636,60.534695 32.242836,60.04893 33.33831,59.46671 C35.624596,58.251587 32.60767,59.60492 36.908646,57.610657 C37.16884,57.49001 37.45906,57.44481 37.722454,57.331306 C38.25713,57.100906 38.23883,57.03163 38.658733,56.721817 C38.780457,56.63201 38.96466,56.631374 39.09893,56.584057 C39.260563,56.5271 39.41319,56.44616 39.57551,56.391193 C39.640663,56.369133 39.71027,56.36283 39.77848,56.353943 C39.947296,56.331944 40.116966,56.31704 40.2862,56.298588 L40.2862,56.298588" /><path fill="none" stroke="#000000" stroke-width="0.06mm" d="M22.60223,59.764835 C22.840649,59.553234 23.071474,59.332752 23.31749,59.130028 C23.5599,58.930283 23.449055,59.098747 23.669827,58.92388 C24.47361,58.28723 25.294136,57.66979 26.064695,56.993305 C26.92056,56.241936 27.709978,55.41795 28.545229,54.64373 C28.774712,54.43101 29.039627,54.25701 29.25822,54.03312 C30.710196,52.545937 30.415901,52.70264 31.618671,51.31343 C31.799028,51.105118 32.38636,50.75212 32.476208,50.677925 C35.847683,47.893745 31.495173,51.386265 34.250923,48.953896 C37.53765,46.052856 34.128952,49.12084 36.044334,47.69113 C39.511963,44.816772 35.589767,47.97546 38.37678,45.95243 C39.11313,45.41794 38.702248,45.643623 39.13761,45.214264 C39.237473,45.11578 39.352173,45.03343 39.4553,44.938362 C39.515358,44.88299 39.5578,44.80703 39.6268,44.763294 C39.908062,44.58502 40.74513,43.92894 41.329147,43.92797 C41.527733,43.927643 41.72579,43.948402 41.924107,43.958626 L41.924107,43.958626" /><path fill="none" stroke="#000000" stroke-width="0.06mm" d="M39.805332,56.362137 C40.919075,55.7769 39.806885,56.325127 40.98564,55.852463 C41.08129,55.814106 41.1649,55.749954 41.25933,55.708702 C41.508045,55.600044 42.393288,55.315678 42.473343,55.292915 C42.857998,55.183533 43.252846,55.11193 43.636612,54.999474 C44.265312,54.81524 44.885147,54.601986 45.509415,54.403244 C46.259056,54.218163 47.016,54.06047 47.758347,53.848015 C48.3583,53.676308 48.926617,53.39924 49.532974,53.251724 C50.389465,53.043343 51.270954,52.95478 52.135548,52.78308 C52.363663,52.73778 52.58175,52.650074 52.80911,52.601112 C53.205425,52.51577 53.609325,52.46814 54.005135,52.380486 C54.084953,52.36281 54.55805,52.149815 54.597248,52.135746 C55.027504,51.9813 55.558487,51.791344 56.032738,51.656242 L56.032738,51.656242" /><path fill="none" stroke="#000000" stroke-width="0.06mm" d="M41.677452,43.816208 C42.187347,43.813198 42.340504,43.824295 42.997963,43.68859 C43.278942,43.630596 43.54319,43.508636 43.820595,43.435425 C44.05461,43.373665 44.860275,43.370003 44.887726,43.367157 C46.21086,43.229866 47.52511,43.005173 48.851543,42.904648 C49.574158,42.903923 50.296772,42.9032 51.019386,42.902473 C51.174183,42.919273 51.32807,42.952927 51.483776,42.952877 C52.035088,42.952698 52.58818,42.954914 53.136925,42.90177 C53.395184,42.876762 53.638493,42.766403 53.893684,42.71949 C54.24977,42.65403 54.53744,42.681168 54.899563,42.68953 L54.899563,42.68953" /><path fill="none" stroke="#000000" stroke-width="0.02mm" d="M39.721485,56.123474 C39.21639,55.794624 39.183754,55.815693 38.985245,55.275093 C38.94471,55.16472 38.93095,55.005318 38.989773,54.897312 C39.048454,54.789566 39.180115,54.73477 39.262093,54.65562 C39.412914,54.509995 39.562996,54.246452 39.79442,54.17655 C39.873238,54.15274 39.958035,54.141716 40.04035,54.147804 C40.192055,54.159027 40.295288,54.20493 40.455605,54.180897 C40.72773,54.140106 40.736732,54.072693 40.839256,54.101105 C40.950447,54.131924 40.9152,54.301315 41.08231,54.320454 C41.187115,54.33246 41.31627,54.30281 41.40708,54.28724 C41.497677,54.27171 41.52334,54.247986 41.603477,54.2554 C41.764786,54.270325 41.852867,54.445976 41.880283,54.58728 C41.92572,54.82145 41.732918,55.029755 41.589348,55.186928 C41.550697,55.229244 41.505745,55.266144 41.471436,55.31205 C41.401417,55.40574 41.34761,55.510857 41.277363,55.604378 C41.24944,55.64155 41.21631,55.675842 41.178185,55.702454 C40.983383,55.838432 40.779774,55.961334 40.580566,56.09077 L40.580566,56.09077" /><path fill="none" stroke="#000000" stroke-width="0.02mm" d="M41.802303,55.47244 C41.78798,55.184464 41.769894,54.896652 41.75933,54.608513 C41.754276,54.470604 41.988567,54.38284 42.06163,54.3516 C42.14589,54.315575 42.236862,54.29632 42.320198,54.258198 C42.406906,54.218536 42.48391,54.159805 42.570084,54.119007 C42.709457,54.05302 42.898056,54.040703 43.043915,54.091312 C43.27352,54.17098 43.223938,54.564068 43.133102,54.72448 C42.96861,55.014954 42.833294,54.992012 42.536263,55.142868 C42.4523,55.18551 42.375923,55.241688 42.295753,55.2911 L42.295753,55.2911" /><path fill="none" stroke="#000000" stroke-width="0.02mm" d="M43.40156,54.0574 C43.328133,54.12892 43.218388,54.203003 43.21089,54.31787 C43.20481,54.411064 43.265194,54.530876 43.335556,54.588894 C43.520844,54.741676 43.717453,54.911037 43.97161,54.899113 C44.134132,54.891487 44.333755,54.754517 44.45581,54.70645 C44.63262,54.636826 44.84195,54.710953 44.969467,54.55622 C45.132786,54.358036 45.19877,54.000393 44.973278,53.81527 C44.82985,53.697517 44.599087,53.707558 44.43334,53.761166 C43.548332,54.047417 44.349304,53.865578 43.27671,54.0574 L43.27671,54.0574" /><path fill="none" stroke="#000000" stroke-width="0.02mm" d="M45.39023,54.405212 C45.302624,54.39106 45.1874,54.396988 45.118202,54.3262 C45.055695,54.26226 45.048355,54.153122 45.040535,54.07404 C45.02626,53.92968 45.034466,53.786087 45.123726,53.666954 C45.146286,53.63684 45.291832,53.391335 45.41037,53.32726 C45.49868,53.279522 45.597923,53.304916 45.693146,53.294735 C45.838715,53.279167 45.823524,53.253494 45.966396,53.22538 C46.096733,53.199738 46.09311,53.22629 46.233665,53.21914 C46.33516,53.213974 46.385086,53.12762 46.450348,53.065582 C46.551147,52.969757 46.724182,53.038857 46.81961,53.102417 C47.10872,53.294975 47.027428,53.74711 46.81816,53.96747 C46.65191,54.142532 46.339622,54.258247 46.110466,54.332424 C46.013115,54.363937 45.927,54.336422 45.830654,54.328186 C45.7306,54.319633 45.63018,54.316116 45.529938,54.310085 L45.529938,54.310085" /><path fill="none" stroke="#000000" stroke-width="0.02mm" d="M47.42943,52.844513 C47.251404,52.860073 47.112656,52.889996 46.993103,53.02491 C46.958794,53.06362 46.928814,53.10923 46.913734,53.15929 C46.8687,53.3088 46.988365,53.50778 47.034256,53.613953 C47.06138,53.676693 47.11534,53.743797 47.16593,53.79035 C47.304634,53.917976 47.484985,53.88166 47.651657,53.82614 C47.88257,53.74923 48.25172,53.685364 48.324596,53.396255 C48.342167,53.32655 48.310852,53.252678 48.25676,53.20802 C48.120564,53.09559 47.909164,52.992695 47.845184,52.80559 C47.8213,52.735744 47.82125,52.662544 47.80325,52.591263 C47.771812,52.46678 47.673016,52.302216 47.521603,52.325607 C47.285614,52.362064 47.331196,52.534866 47.283813,52.719826 C47.270782,52.77069 47.251892,52.8201 47.23061,52.868103 C47.161087,53.024914 46.999336,53.062126 46.852745,53.118004 L46.852745,53.118004" /><path fill="none" stroke="#000000" stroke-width="0.02mm" d="M48.098267,53.12395 C48.089798,52.95591 47.75126,52.855522 47.740967,52.652267 C47.7359,52.552193 47.812126,52.45917 47.873676,52.391182 C48.063618,52.181374 48.45072,52.17573 48.670258,52.128414 C48.71035,52.119774 48.791023,52.128616 48.829697,52.139565 C49.07929,52.210255 49.082733,52.380215 49.172222,52.60402 C49.187397,52.641975 49.20884,52.67739 49.222004,52.716087 C49.26036,52.82882 49.257256,52.962486 49.207466,53.07125 C49.1418,53.214706 48.97339,53.339043 48.871136,53.43609 L48.871136,53.43609" /><path fill="none" stroke="#000000" stroke-width="0.02mm" d="M49.04652,52.43427 C49.095306,52.216698 49.17109,51.95048 49.40324,51.858414 C49.484802,51.826065 49.57289,51.80967 49.65123,51.770153 C49.79492,51.69767 49.925987,51.602333 50.06649,51.523834 C50.084114,51.513985 50.104576,51.510017 50.124336,51.50584 C50.35185,51.45775 50.530178,51.641636 50.65522,51.80256 C50.69648,51.85566 50.732056,51.914192 50.747986,51.980103 C50.759182,52.02642 50.76313,52.097878 50.75228,52.14431 C50.690475,52.408794 50.653465,52.75347 50.376793,52.89059 C50.22433,52.966152 50.000717,52.96879 49.858772,52.97399 C49.793472,52.976387 49.57269,52.97575 49.4627,52.933224 C49.42112,52.917145 49.357437,52.879635 49.3282,52.845306 C49.007355,52.46855 49.09565,52.588524 48.915726,52.148884 L48.915726,52.148884" /><path fill="none" stroke="#000000" stroke-width="0.02mm" d="M51.204628,51.3938 C51.138786,51.400288 51.07242,51.402687 51.007114,51.41326 C50.85454,51.437973 50.75488,51.668983 50.704124,51.767822 C50.66841,51.837364 50.622128,51.96673 50.647224,52.050552 C50.72441,52.30835 50.808773,52.564068 50.898792,52.817665 C50.9132,52.85826 50.969048,52.91505 51.001858,52.940063 C51.283836,53.155014 51.652138,52.817574 51.871326,52.677113 C51.964912,52.61714 52.046608,52.588795 52.107697,52.492485 C52.19219,52.359283 52.196316,52.25305 52.180954,52.102146 C52.16945,51.989082 52.159378,51.875877 52.148415,51.762764 C52.13768,51.65203 52.10134,51.54919 51.984146,51.512756 C51.821526,51.462204 51.49392,51.373703 51.32369,51.354324 C51.205437,51.340866 51.085777,51.34695 50.96682,51.34326 L50.96682,51.34326" /><path fill="none" stroke="#000000" stroke-width="0.02mm" d="M52.75632,50.522774 C52.509697,50.81368 52.249226,51.127922 52.13671,51.499985 C52.086075,51.667423 52.15232,51.859314 52.266685,51.985397 C52.325714,52.050476 52.660896,52.470535 52.85676,52.493145 C53.01982,52.51197 53.240795,52.29033 53.310265,52.234077 C53.352444,52.19993 53.39241,52.161346 53.422672,52.116295 C53.620358,51.822033 53.780857,51.668797 53.52902,51.40732 C53.346203,51.2175 52.92003,50.86368 52.790855,50.675636 C52.73461,50.59376 52.744057,50.482563 52.72065,50.38603 L52.72065,50.38603" /><path fill="none" stroke="#000000" stroke-width="0.02mm" d="M52.89306,51.04004 C52.916084,50.73562 52.893143,50.728874 52.994923,50.45836 C53.089527,50.206924 53.288387,49.88691 53.604404,49.930794 C53.78126,49.955357 53.900555,50.06881 54.041225,50.17517 C54.109695,50.226948 54.174335,50.28371 54.243374,50.33473 C54.308956,50.383194 54.42286,50.419678 54.382526,50.523933 C54.376114,50.540504 54.366814,50.55598 54.35655,50.570484 C54.292603,50.660805 54.22489,50.7484 54.160095,50.83811 C53.867653,51.243015 54.183422,50.860664 53.520283,51.54838 L53.520283,51.54838" /><path fill="none" stroke="#000000" stroke-width="0.02mm" d="M54.09102,51.034092 C53.982742,51.08885 53.87151,51.1381 53.766197,51.198357 C53.55895,51.316936 53.31289,51.587723 53.387657,51.849304 C53.441845,52.03887 53.704716,52.192085 53.83285,52.27737 C53.90816,52.327496 54.063683,52.41578 54.17148,52.38617 C54.341743,52.339397 54.655663,52.039318 54.686066,52.017433 C54.828537,51.914864 54.88272,51.923164 54.973476,51.812187 C55.189007,51.548637 55.025143,51.38401 54.85144,51.121643 C54.815544,51.06742 54.734837,51.008484 54.6827,50.977486 C54.451385,50.83994 54.35207,50.948235 54.072872,50.955467 C53.967358,50.958206 53.863014,50.932575 53.758087,50.921127 L53.758087,50.921127" /><path fill="none" stroke="#000000" stroke-width="0.02mm" d="M54.878754,49.68743 C54.702896,49.77468 54.406452,49.8656 54.361023,50.098427 C54.32599,50.277954 54.40953,50.42549 54.446987,50.594658 C54.456955,50.63967 54.46008,50.68598 54.46413,50.731903 C54.46774,50.77282 54.464123,50.81433 54.469944,50.85499 C54.48198,50.93909 54.536415,51.03483 54.61196,51.07766 C54.66324,51.10673 54.72308,51.10262 54.775295,51.07821 C54.982403,50.981388 55.19071,50.886875 55.394577,50.7834 C55.41892,50.771046 55.438763,50.750973 55.458065,50.731667 C55.58301,50.60666 55.664856,50.28952 55.696552,50.185085 C55.769604,49.944374 55.71342,49.811684 55.50117,49.687534 C55.356983,49.60319 55.206123,49.56221 55.040752,49.553078 C55.028,49.55237 55.015038,49.55327 55.00255,49.555923 C54.883625,49.581234 54.76544,49.609905 54.646893,49.636894 L54.646893,49.636894" /><path fill="none" stroke="#000000" stroke-width="0.02mm" d="M55.746754,50.371162 C55.583366,50.421112 55.42406,50.470894 55.30595,50.599617 C55.11869,50.803696 54.941124,51.16156 55.133762,51.423332 C55.22048,51.54117 55.322292,51.726646 55.494114,51.737885 C55.754333,51.754898 56.025425,51.59221 56.25731,51.51957 C56.39901,51.47518 56.546402,51.451126 56.689205,51.410435 C56.79973,51.378944 57.005974,51.208733 56.90927,51.071762 C56.830532,50.960236 56.750576,50.849308 56.663742,50.743958 C56.56757,50.627274 56.40422,50.535557 56.259926,50.49996 C55.208305,50.240517 55.825645,50.465786 55.277084,50.25225 L55.277084,50.25225" /><path fill="none" stroke="#000000" stroke-width="0.06mm" d="M55.90326,51.65719 C56.01903,51.554302 56.1196,51.483196 56.26929,51.457287 C56.394417,51.435627 56.523426,51.43254 56.64559,51.39788 C56.857765,51.33768 57.055965,51.234005 57.26816,51.17389 C57.613045,51.076187 57.980038,51.05442 58.31436,50.925117 C59.779716,50.35839 61.215763,49.718224 62.655903,49.09017 C62.896904,48.985073 63.104008,48.802086 63.35583,48.72652 C64.99533,48.234543 66.65918,47.827515 68.314606,47.39212 C68.55898,47.32785 68.814995,47.307877 69.05462,47.227676 C69.57704,47.025093 70.09947,46.822502 70.6219,46.61992 C70.71511,46.583717 70.80706,46.54409 70.901535,46.511314 C71.11692,46.43658 71.33596,46.372635 71.5512,46.297478 C71.63429,46.268463 71.711914,46.224457 71.79614,46.19893 C72.69284,45.92711 71.67648,46.34626 73.03099,45.817757 C73.42969,45.662193 73.66511,45.271866 73.958435,44.991272 C74.02135,44.93109 74.0957,44.88192 74.173904,44.843666 C75.21057,44.33658 74.968445,44.4216 75.659134,44.23716 L75.659134,44.23716" /><path fill="none" stroke="#000000" stroke-width="0.06mm" d="M54.818264,42.48025 C54.91219,42.452057 55.003452,42.41263 55.10004,42.395668 C55.391247,42.34453 55.688007,42.328884 55.978977,42.276424 C56.08039,42.25814 56.638405,42.040596 56.659718,42.035873 C57.15145,41.92701 57.655422,41.87893 58.146748,41.768227 C58.38269,41.715065 58.605072,41.61312 58.837208,41.545242 C58.97567,41.50476 59.117615,41.47731 59.25782,41.443344 C59.840656,41.250175 60.423477,41.05696 61.006332,40.863846 C61.888443,40.57158 62.76632,40.266186 63.652714,39.987183 C64.01854,39.872036 64.383896,39.746037 64.76199,39.68172 C66.10348,39.453514 67.4589,39.315693 68.80415,39.110855 C68.890045,39.097775 68.97009,39.058968 69.05149,39.02856 C69.510254,38.857197 69.96204,38.66695 70.42443,38.505627 C70.84985,38.357197 71.494484,38.45416 71.848175,38.40123 C74.06239,38.069878 72.933914,38.04218 74.91406,37.65026 C76.19028,37.397667 76.1807,37.42052 77.08003,37.41762 L77.08003,37.41762" /><path fill="none" stroke="#000000" stroke-width="0.06mm" d="M76.39824,37.110733 C76.58429,37.099407 76.77141,37.0996 76.95639,37.076748 C77.17617,37.049595 77.45801,36.922688 77.62591,36.804146 C78.3683,36.280014 79.15045,35.799 79.81499,35.17911 C80.37154,34.65996 81.7632,33.027718 82.22094,32.070953 C82.36379,31.77237 82.87525,29.95288 83.43778,29.471062 C83.49628,29.420956 83.55457,29.36626 83.625595,29.336452 C84.533554,28.955338 85.45137,28.597988 86.36897,28.240707 C86.53961,28.17427 86.72488,28.14544 86.88965,28.065548 C95.98565,23.655342 86.04747,28.275448 91.70386,25.769989 C92.48207,25.425285 93.22694,25.003342 94.02174,24.698837 C94.933945,24.349354 96.61905,23.836273 97.810165,23.491005 L97.810165,23.491005" /><path fill="none" stroke="#000000" stroke-width="0.06mm" d="M43.44375,63.153183 C43.296234,62.817917 43.164978,62.440933 43.36546,62.095722 C43.610287,61.674156 44.213047,61.431576 44.629707,61.288345 C44.909462,61.192177 45.20547,61.15084 45.48886,61.065998 C45.694595,61.004402 45.889366,60.804993 46.05316,60.70618 C46.2554,60.58417 46.447853,60.556713 46.675987,60.498917 L46.675987,60.498917" /><path fill="none" stroke="#000000" stroke-width="0.06mm" d="M46.560356,60.330727 C46.815025,60.591717 47.06046,60.862045 47.324356,61.1137 C47.412376,61.197643 47.52115,61.25706 47.61406,61.335556 C47.8506,61.535397 47.82676,62.046745 47.84046,62.25769 C47.84764,62.368256 47.77545,62.472588 47.698776,62.542423 C47.68041,62.55915 47.65228,62.56796 47.641823,62.590496 C47.5835,62.71619 47.544518,62.849987 47.495865,62.979736 L47.495865,62.979736" /><path fill="none" stroke="#000000" stroke-width="0.06mm" d="M56.430492,67.557686 C56.65107,67.04346 56.630222,66.86012 56.566586,66.27556 C56.560307,66.21788 56.512936,66.12796 56.479282,66.08241 C56.255474,65.77949 55.781857,65.710365 55.43866,65.711975 C55.212822,65.71303 55.0738,65.74179 54.868515,65.809715 C54.713234,65.86109 54.697163,65.898254 54.547188,65.908516 C54.268894,65.92756 54.05594,65.83328 53.765877,65.765396 L53.765877,65.765396" /><path fill="none" stroke="#000000" stroke-width="0.06mm" d="M53.10366,66.03871 C53.152462,65.90054 53.209583,65.76503 53.250065,65.6242 C53.30852,65.42081 53.22332,65.11347 52.993744,65.06056 C52.968605,65.05477 52.942677,65.05005 52.91691,65.051285 C52.64606,65.06427 52.375687,65.08586 52.105083,65.10315 L52.105083,65.10315" /><path fill="none" stroke="#000000" stroke-width="0.06mm" d="M51.21688,65.108406 C51.251938,65.04665 51.40817,64.84925 51.414658,64.71178 C51.42718,64.44643 50.763344,64.19119 50.712334,64.16233 L50.712334,64.16233" /><path fill="none" stroke="#000000" stroke-width="0.06mm" d="M49.78208,64.572296 C49.89071,64.4378 50.023613,64.32648 50.078667,64.16155 C50.195366,63.811962 49.914566,63.495293 49.600037,63.389355 C49.550453,63.37265 49.34561,63.32446 49.28118,63.344147 C49.120384,63.393288 48.970417,63.472626 48.815037,63.536865 L48.815037,63.536865" /><path fill="none" stroke="#000000" stroke-width="0.06mm" d="M48.34203,63.510586 C48.307037,63.333744 48.30484,63.14196 48.210632,62.98318 C48.001884,62.63137 47.05969,62.35823 46.71803,62.233387 L46.71803,62.233387" /><path fill="none" stroke="#000000" stroke-width="0.06mm" d="M56.803646,67.52615 L56.8464,67.495316" /><path fill="none" stroke="#000000" stroke-width="0.06mm" d="M56.43575,67.694336 C56.72194,67.446045 56.90656,67.278946 57.23142,67.55745 C57.323597,67.63647 57.345284,67.727905 57.39711,67.83034 C57.407635,67.85114 57.422382,67.86996 57.438858,67.886444 C57.540104,67.987755 57.646065,68.08424 57.74967,68.18314 L57.74967,68.18314" /><path fill="none" stroke="#000000" stroke-width="0.06mm" d="M57.7339,68.47748 C57.847057,68.33279 57.955494,68.129486 58.15881,68.10209 C58.19448,68.09728 58.30195,68.090096 58.318325,68.142586 C58.356544,68.26509 58.34916,68.397385 58.36458,68.52478 L58.36458,68.52478" /><path fill="none" stroke="#000000" stroke-width="0.06mm" d="M57.71288,68.735016 L55.752514,69.00833" /><path fill="none" stroke="#000000" stroke-width="0.06mm" d="M53.434765,68.97679 L51.72142,68.99782" /><path fill="none" stroke="#000000" stroke-width="0.06mm" d="M48.97271,68.99256 C48.233242,68.882 47.909016,69.033875 47.19104,69.26062 L47.19104,69.26062" /><path fill="none" stroke="#000000" stroke-width="0.06mm" d="M62.437717,89.45404 C62.45165,89.21074 62.488525,88.90097 62.195976,88.82547 C62.087643,88.797516 61.977688,88.79555 61.872433,88.83762 C61.838295,88.851265 61.803688,88.86638 61.775093,88.889496 C61.54221,89.07769 61.32758,89.28825 61.08973,89.47014 C61.015842,89.52664 60.926285,89.559006 60.84367,89.601746 C60.81272,89.61775 60.780643,89.631485 60.74913,89.64635 C60.581455,89.738174 60.41378,89.83 60.246105,89.92183 L60.246105,89.92183" /><path fill="none" stroke="#000000" stroke-width="0.06mm" d="M62.442974,89.238556 C62.552105,89.08489 62.627026,88.93274 62.774998,88.82176 C63.037544,88.62484 63.47382,88.598434 63.71751,88.83926 C63.821323,88.94185 63.789886,89.04516 63.841084,89.14014 C63.896484,89.24291 63.963646,89.3389 64.02493,89.43828 L64.02493,89.43828" /><path fill="none" stroke="#000000" stroke-width="0.06mm" d="M59.79412,89.77466 C59.6742,89.717255 59.557274,89.653114 59.43435,89.60245 C59.103363,89.466034 58.36119,89.96622 58.291035,89.99155 C57.74027,90.19034 57.17331,90.34102 56.614445,90.515755 L56.614445,90.515755" /><path fill="none" stroke="#000000" stroke-width="0.06mm" d="M56.672256,90.831116 C56.678215,90.68826 56.69279,90.545525 56.69013,90.40257 C56.68342,90.04291 56.41766,89.70006 56.06489,89.62473 C56.015297,89.614136 55.829277,89.59143 55.780663,89.62754 C55.616142,89.74975 55.481594,89.90783 55.33206,90.04797 L55.33206,90.04797" /><path fill="none" stroke="#000000" stroke-width="0.06mm" d="M55.085045,89.827225 C54.977093,89.68932 54.90549,89.54915 54.763588,89.45581 C54.38129,89.20434 53.837257,89.392296 53.539677,89.686455 C53.350685,89.87327 53.248814,90.09113 53.108917,90.32128 L53.108917,90.32128" /><path fill="none" stroke="#000000" stroke-width="0.06mm" d="M52.772552,89.58545 C52.669945,89.347015 52.583675,89.07954 52.368565,88.91497 C52.04164,88.66486 51.464417,88.74954 51.130157,88.80927 C50.98417,88.83536 50.855114,88.920265 50.71759,88.97575 L50.71759,88.97575" /><path fill="none" stroke="#000000" stroke-width="0.06mm" d="M50.055374,88.45016 C50.041813,88.07924 50.177925,87.42157 49.737,87.201675 C49.601116,87.1339 49.44654,87.137054 49.3118,87.20707 C49.004753,87.36663 48.881706,87.664536 48.699413,87.95084 L48.699413,87.95084" /><path fill="none" stroke="#000000" stroke-width="0.06mm" d="M48.67839,86.68941 C48.680637,86.55566 48.70883,86.39549 48.660027,86.26022 C48.63494,86.190704 48.593178,86.13226 48.538742,86.08269 C48.261497,85.83022 47.886887,86.02591 47.701225,86.30149 C47.370575,86.79226 47.363304,86.88154 47.24885,87.43575 L47.24885,87.43575" /><path fill="none" stroke="#000000" stroke-width="0.06mm" d="M46.923,85.83794 C46.76844,85.628784 46.62149,85.413795 46.459328,85.21048 C46.324593,85.04154 46.1799,84.8806 46.03303,84.72209 C46.015717,84.703415 45.991966,84.691185 45.96865,84.68093 C45.79859,84.60612 45.580124,84.79094 45.49764,84.91896 C45.27784,85.260086 45.081406,85.61571 44.87329,85.96408 L44.87329,85.96408" /><path fill="none" stroke="#000000" stroke-width="0.06mm" d="M43.94304,84.90763 C42.754642,84.79888 43.227264,84.90695 42.502987,84.70265 L42.502987,84.70265" /><path fill="none" stroke="#000000" stroke-width="0.06mm" d="M40.626717,84.40832 C40.18766,84.61809 40.439384,84.50915 39.864643,84.718414 L39.864643,84.718414" /><path fill="none" stroke="#000000" stroke-width="0.06mm" d="M60.52738,62.163963 C59.47574,62.317352 59.672733,62.322067 57.977276,62.134663 C57.0326,62.030243 56.095016,61.86671 55.15925,61.700424 C54.975098,61.6677 54.12492,61.274124 54.116444,61.27121 C53.75874,61.148243 53.38878,61.064346 53.024944,60.960915 C52.391376,60.699577 51.77205,60.400627 51.124245,60.17691 C50.3211,59.899555 49.504753,59.65643 48.67814,59.45978 C48.34818,59.381287 48.001984,59.401497 47.66613,59.354248 C47.448856,59.323685 47.07323,59.072586 46.968502,58.998325 C46.491726,58.660255 46.303047,58.47543 46.011242,58.03277 L46.011242,58.03277" /><path fill="none" stroke="#000000" stroke-width="0.06mm" d="M59.93875,69.206955 C59.7836,69.02376 59.550396,68.76566 59.807243,68.56574 C59.871864,68.51545 59.94951,68.47557 60.033096,68.47217 C60.200436,68.46537 60.35588,68.5331 60.499405,68.61416 C60.508186,68.61912 60.71502,68.74928 60.736675,68.81155 C60.78429,68.94844 60.807377,69.092674 60.842724,69.23324 L60.842724,69.23324" /><path fill="none" stroke="#000000" stroke-width="0.06mm" d="M61.110764,69.706276 C61.069515,69.5976 61.017773,69.49235 60.987015,69.38025 C60.92846,69.16684 61.374462,69.237206 61.47069,69.28711 C61.69211,69.40194 61.76732,69.58802 61.920135,69.80089 L61.920135,69.80089" /><path fill="none" stroke="#000000" stroke-width="0.06mm" d="M61.899113,70.53672 C61.786537,70.27598 61.66387,70.00362 61.900497,69.784515 C61.938076,69.74972 61.989296,69.72194 62.042404,69.72357 C62.105305,69.72551 62.13525,69.75622 62.18262,69.7932 C62.41433,69.97408 62.069313,69.78251 62.755783,70.0374 L62.755783,70.0374" /><path fill="none" stroke="#000000" stroke-width="0.06mm" d="M62.8136,71.0045 C62.81545,70.87441 62.80812,70.743866 62.81915,70.61423 C62.828598,70.5031 62.88429,70.37418 62.939465,70.27972 C63.07717,70.04393 63.314278,70.069244 63.514553,70.21845 C63.73135,70.37996 63.81939,70.6458 63.933052,70.87836 L63.933052,70.87836" /><path fill="none" stroke="#000000" stroke-width="0.06mm" d="M64.23263,71.84546 C64.22555,71.563065 64.233986,71.30847 64.44243,71.102356 C64.49806,71.04734 64.57813,71.02007 64.65335,71.04937 C64.883095,71.13884 65.08807,71.53322 65.2312,71.74559 L65.2312,71.74559" /><path fill="none" stroke="#000000" stroke-width="0.06mm" d="M65.37311,72.055695 C65.36817,71.92612 65.354706,71.79659 65.35831,71.66698 C65.36264,71.51166 65.45026,71.15204 65.65278,71.13186 C65.70735,71.12642 65.76175,71.1505 65.805176,71.18036 C66.37819,71.574554 66.16727,71.38077 66.55563,72.00839 L66.55563,72.00839" /><path fill="none" stroke="#000000" stroke-width="0.06mm" d="M67.0339,70.89412 C66.9023,70.931656 66.770706,70.969185 66.639114,71.006714 C66.62775,71.02818 66.60321,71.0469 66.60501,71.07112 C66.609985,71.13788 66.78672,71.293335 66.79161,71.29941 C66.86113,71.385735 66.89554,71.57329 66.94368,71.61831 C67.083786,71.74933 67.23508,71.86785 67.38077,71.99262 L67.38077,71.99262" /><path fill="none" stroke="#000000" stroke-width="0.06mm" d="M66.87097,70.2529 C66.55325,70.156975 66.17355,70.00126 66.145645,69.61615 C66.13274,69.43817 66.216034,69.22251 66.23354,69.07207 C66.27095,68.75061 66.16789,68.61405 66.451805,68.423874 C66.6573,68.28623 66.86203,68.14711 67.07358,68.018974 C67.09535,68.00579 67.12265,68.00343 67.14807,68.00215 C67.19882,67.99961 67.243576,68.01676 67.2832,68.04772 C67.30606,68.06558 67.32364,68.08932 67.34386,68.11011 C67.477036,68.20767 67.61022,68.30524 67.74341,68.4028 L67.74341,68.4028" /><path fill="none" stroke="#000000" stroke-width="0.06mm" d="M66.30861,67.81938 C65.67349,67.18433 64.50552,66.33145 65.33923,65.37017 C65.48227,65.20525 65.688675,64.99731 65.92746,65.00138 C65.99911,65.00261 66.083435,65.02343 66.147644,65.05446 C66.547,65.24744 66.64382,65.52897 66.849945,65.92198 L66.849945,65.92198" /><path fill="none" stroke="#000000" stroke-width="0.06mm" d="M66.31912,67.58812 C66.58618,67.287 66.43187,67.43428 66.79214,67.157135 L66.79214,67.157135" /><path fill="none" stroke="#000000" stroke-width="0.06mm" d="M60.369713,62.142937 C60.571747,62.23943 60.691273,62.32425 60.897068,62.357174 C61.525158,62.457672 62.144054,62.229904 62.751038,62.134552 C63.004383,62.09475 63.36815,62.17098 63.600574,62.155403 C64.21972,62.113914 64.53227,62.020016 65.10507,61.88539 L65.10507,61.88539" /><path fill="none" stroke="#000000" stroke-width="0.06mm" d="M65.86714,64.59222 C65.43419,64.45386 65.165405,64.359146 65.11044,63.882843 C65.08672,63.677334 65.19584,63.21298 65.20547,63.15062 C65.23926,62.93173 65.27919,62.715496 65.48599,62.588093 C65.666306,62.477013 65.90669,62.56271 66.09313,62.59495 L66.09313,62.59495" /><path fill="none" stroke="#000000" stroke-width="0.06mm" d="M65.4572,62.23229 C64.93405,61.959328 64.93971,61.953835 65.19967,61.480686 L65.19967,61.480686" /><path fill="none" stroke="#000000" stroke-width="0.06mm" d="M60.070145,69.55385 C61.287125,70.548134 60.726017,70.17257 61.699394,70.75747 L61.699394,70.75747" /><path fill="none" stroke="#000000" stroke-width="0.06mm" d="M62.42468,71.67201 C63.277107,72.431786 62.895885,72.13786 63.533623,72.59706 L63.533623,72.59706" /><path fill="none" stroke="#000000" stroke-width="0.06mm" d="M64.88959,74.2159 C65.22523,74.655846 65.46594,74.761505 65.95123,75.0148 L65.95123,75.0148" /><path fill="none" stroke="#000000" stroke-width="0.06mm" d="M67.212585,76.065994 L68.74199,77.038345" /><path fill="none" stroke="#000000" stroke-width="0.06mm" d="M64.02766,89.153366 L66.70804,87.89192" /><path fill="none" stroke="#000000" stroke-width="0.06mm" d="M67.002365,87.15083 C67.96193,86.88745 67.39038,87.07892 68.67892,86.47282 L68.67892,86.47282" /><path fill="none" stroke="#000000" stroke-width="0.06mm" d="M70.00334,85.53725 C70.80437,85.189476 70.423004,85.39191 71.14908,84.932816 L71.14908,84.932816" /><path fill="none" stroke="#000000" stroke-width="0.06mm" d="M45.959507,57.741703 C45.40075,57.183296 44.841988,56.624886 44.28323,56.066483 C44.141655,55.90939 44.012955,55.739666 43.858505,55.595207 C43.69293,55.44034 43.503784,55.31276 43.326416,55.17153 L43.326416,55.17153" /><path fill="none" stroke="#000000" stroke-width="0.06mm" d="M42.348866,63.76504 C42.385555,63.573593 42.45121,63.35982 42.37505,63.166557 C42.300686,62.977844 42.143906,62.7982 41.930916,62.772877 C41.473793,62.718536 41.09641,62.57527 40.789,62.94329 C40.552467,63.22646 40.317966,63.96351 40.272736,64.06849 C40.240982,64.1422 40.18354,64.207825 40.172234,64.287285 C40.154785,64.40993 40.18327,64.5348 40.18879,64.658554 L40.18879,64.658554" /><path fill="none" stroke="#000000" stroke-width="0.06mm" d="M39.726288,63.74927 C39.446766,63.42642 39.17076,63.227837 38.757164,63.109875 C38.463722,63.026184 38.165077,62.961174 37.86615,62.899902 C37.612465,62.847904 37.32775,63.159424 37.30343,63.391994 C37.29177,63.503437 37.317776,63.6062 37.28155,63.716072 C37.21778,63.909504 37.02504,64.040596 36.888233,64.169754 L36.888233,64.169754" /><path fill="none" stroke="#000000" stroke-width="0.06mm" d="M75.425156,43.913918 C75.787315,43.715164 76.12453,43.469543 76.54644,43.4739 C76.79518,43.476463 77.05261,43.561604 77.25101,43.713413 C77.69617,44.05404 78.10365,44.37284 78.29965,44.903667 C78.801926,46.263985 78.520325,45.67206 78.865364,47.277023 C78.89125,47.39743 78.954636,47.50667 78.99419,47.623306 C79.13182,48.02923 79.294464,48.428284 79.39686,48.844498 C79.66274,49.92534 79.46617,51.87564 79.37451,52.615242 C79.28291,53.35447 79.04268,54.067665 78.89038,54.796814 C78.83882,55.043625 78.92026,55.31256 79.10805,55.482147 C79.51515,55.849808 80.42264,55.53611 80.82208,55.49697 C81.148315,55.465008 81.317535,55.533875 81.62984,55.59989 C81.99153,55.67635 82.35072,55.7668 82.715744,55.825333 C82.82597,55.84301 82.939224,55.83442 83.05066,55.82773 C83.38025,55.807957 83.70773,55.75354 84.03783,55.74601 C85.21336,55.719208 84.92394,55.655136 85.60817,55.91118 L85.60817,55.91118" /><path fill="none" stroke="#000000" stroke-width="0.06mm" d="M81.920784,41.522503 C82.09197,41.501785 82.26215,41.46961 82.43433,41.460346 C82.52222,41.45562 82.60988,41.473236 82.69757,41.48072 C82.71929,41.48257 82.740875,41.485798 82.76251,41.488335 C82.95584,41.494705 83.14917,41.50107 83.34249,41.50743 L83.34249,41.50743" /></g>
<g>
<line fill="none" stroke="#111111" stroke-width="0.05mm" x1="20.00" y1="72.00" x2="22.04" y2="64.68" />
<line fill="none" stroke="#5674b9" stroke-width="0.05mm" stroke-dasharray="0.4,0.2" x1="22.04" y1="64.68" x2="22.81" y2="59.01" />
<line fill="none" stroke="#5674b9" stroke-width="0.05mm" stroke-dasharray="0.4,0.2" opacity="0.09" x1="22.04" y1="64.68" x2="22.04" y2="67.91" />
<line fill="none" stroke="#5674b9" stroke-width="0.05mm" stroke-dasharray="0.4,0.2" x1="22.04" y1="64.68" x2="25.40" y2="63.66" />
<line fill="none" stroke="#111111" stroke-width="0.05mm" x1="22.04" y1="64.68" x2="37.00" y2="53.71" />
<line fill="none" stroke="#00aeef" stroke-width="0.05mm" stroke-dasharray="0.4,0.2" x1="37.00" y1="53.71" x2="39.84" y2="44.05" />
<line fill="none" stroke="#00aeef" stroke-width="0.05mm" stroke-dasharray="0.4,0.2" x1="37.00" y1="53.71" x2="36.53" y2="57.52" />
<line fill="none" stroke="#5674b9" stroke-width="0.05mm" stroke-dasharray="0.4,0.2" x1="37.00" y1="53.71" x2="22.20" y2="64.43" />
<line fill="none" stroke="#00aeef" stroke-width="0.05mm" stroke-dasharray="0.4,0.2" x1="37.00" y1="53.71" x2="24.66" y2="62.62" />
<line fill="none" stroke="#00aeef" stroke-width="0.05mm" stroke-dasharray="0.4,0.2" x1="37.00" y1="53.71" x2="25.07" y2="61.93" />
<line fill="none" stroke="#00aeef" stroke-width="0.05mm" stroke-dasharray="0.4,0.2" x1="37.00" y1="53.71" x2="25.63" y2="61.37" />
<line fill="none" stroke="#00aeef" stroke-width="0.05mm" stroke-dasharray="0.4,0.2" x1="37.00" y1="53.71" x2="28.26" y2="59.37" />
<line fill="none" stroke="#00aeef" stroke-width="0.05mm" stroke-dasharray="0.4,0.2" x1="37.00" y1="53.71" x2="30.56" y2="57.72" />
<line fill="none" stroke="#00aeef" stroke-width="0.05mm" stroke-dasharray="0.4,0.2" x1="37.00" y1="53.71" x2="32.72" y2="56.37" />
<line fill="none" stroke="#00aeef" stroke-width="0.05mm" stroke-dasharray="0.4,0.2" x1="37.00" y1="53.71" x2="34.10" y2="55.54" />
<line fill="none" stroke="#00aeef" stroke-width="0.05mm" stroke-dasharray="0.4,0.2" x1="37.00" y1="53.71" x2="35.63" y2="54.72" />
<line fill="none" stroke="#00aeef" stroke-width="0.05mm" stroke-dasharray="0.4,0.2" x1="37.00" y1="53.71" x2="40.50" y2="54.00" />
<line fill="none" stroke="#00aeef" stroke-width="0.05mm" stroke-dasharray="0.4,0.2" x1="37.00" y1="53.71" x2="42.87" y2="53.35" />
<line fill="none" stroke="#00aeef" stroke-width="0.05mm" stroke-dasharray="0.4,0.2" x1="37.00" y1="53.71" x2="44.64" y2="52.73" />
<line fill="none" stroke="#00aeef" stroke-width="0.05mm" stroke-dasharray="0.4,0.2" x1="37.00" y1="53.71" x2="46.28" y2="51.89" />
<line fill="none" stroke="#5674b9" stroke-width="0.05mm" stroke-dasharray="0.4,0.2" x1="37.00" y1="53.71" x2="38.21" y2="53.53" />
<line fill="none" stroke="#5674b9" stroke-width="0.05mm" stroke-dasharray="0.4,0.2" x1="37.00" y1="53.71" x2="42.54" y2="51.36" />
<line fill="none" stroke="#5674b9" stroke-width="0.05mm" stroke-dasharray="0.4,0.2" x1="37.00" y1="53.71" x2="44.58" y2="50.89" />
<line fill="none" stroke="#00aeef" stroke-width="0.05mm" stroke-dasharray="0.4,0.2" x1="37.00" y1="53.71" x2="46.82" y2="50.49" />
<line fill="none" stroke="#00aeef" stroke-width="0.05mm" stroke-dasharray="0.4,0.2" x1="37.00" y1="53.71" x2="54.52" y2="49.32" />
<line fill="none" stroke="#00aeef" stroke-width="0.05mm" stroke-dasharray="0.4,0.2" x1="37.00" y1="53.71" x2="36.85" y2="54.06" />
<line fill="none" stroke="#00aeef" stroke-width="0.05mm" stroke-dasharray="0.4,0.2" x1="37.00" y1="53.71" x2="27.95" y2="74.63" />
<line fill="none" stroke="#00aeef" stroke-width="0.05mm" stroke-dasharray="0.4,0.2" x1="37.00" y1="53.71" x2="37.35" y2="58.66" />
<line fill="none" stroke="#00aeef" stroke-width="0.05mm" stroke-dasharray="0.4,0.2" x1="37.00" y1="53.71" x2="37.79" y2="57.18" />
<line fill="none" stroke="#00aeef" stroke-width="0.05mm" stroke-dasharray="0.4,0.2" x1="37.00" y1="53.71" x2="38.89" y2="57.66" />
<line fill="none" stroke="#00aeef" stroke-width="0.05mm" stroke-dasharray="0.4,0.2" x1="37.00" y1="53.71" x2="39.01" y2="56.83" />
<line fill="none" stroke="#00aeef" stroke-width="0.05mm" stroke-dasharray="0.4,0.2" x1="37.00" y1="53.71" x2="39.02" y2="56.69" />
<line fill="none" stroke="#111111" stroke-width="0.05mm" x1="37.00" y1="53.71" x2="54.86" y2="49.23" />
<line fill="none" stroke="#00aeef" stroke-width="0.05mm" stroke-dasharray="0.4,0.2" x1="54.86" y1="49.23" x2="38.09" y2="54.83" />
<line fill="none" stroke="#00aeef" stroke-width="0.05mm" stroke-dasharray="0.4,0.2" x1="54.86" y1="49.23" x2="43.37" y2="52.38" />
<line fill="none" stroke="#00aeef" stroke-width="0.05mm" stroke-dasharray="0.4,0.2" x1="54.86" y1="49.23" x2="54.34" y2="49.35" />
<line fill="none" stroke="#00aeef" stroke-width="0.05mm" stroke-dasharray="0.4,0.2" x1="54.86" y1="49.23" x2="48.70" y2="49.37" />
<line fill="none" stroke="#00aeef" stroke-width="0.05mm" stroke-dasharray="0.4,0.2" x1="54.86" y1="49.23" x2="50.26" y2="48.82" />
<line fill="none" stroke="#00aeef" stroke-width="0.05mm" stroke-dasharray="0.4,0.2" x1="54.86" y1="49.23" x2="51.85" y2="48.51" />
<line fill="none" stroke="#00aeef" stroke-width="0.05mm" stroke-dasharray="0.4,0.2" x1="54.86" y1="49.23" x2="51.33" y2="48.19" />
<line fill="none" stroke="#00aeef" stroke-width="0.05mm" stroke-dasharray="0.4,0.2" x1="54.86" y1="49.23" x2="53.70" y2="47.95" />
<line fill="none" stroke="#00aeef" stroke-width="0.05mm" stroke-dasharray="0.4,0.2" x1="54.86" y1="49.23" x2="54.71" y2="48.10" />
<line fill="none" stroke="#00aeef" stroke-width="0.05mm" stroke-dasharray="0.4,0.2" x1="54.86" y1="49.23" x2="55.95" y2="47.74" />
<line fill="none" stroke="#00aeef" stroke-width="0.05mm" stroke-dasharray="0.4,0.2" x1="54.86" y1="49.23" x2="59.07" y2="46.92" />
<line fill="none" stroke="#00aeef" stroke-width="0.05mm" stroke-dasharray="0.4,0.2" x1="54.86" y1="49.23" x2="61.29" y2="45.88" />
<line fill="none" stroke="#00aeef" stroke-width="0.05mm" stroke-dasharray="0.4,0.2" x1="54.86" y1="49.23" x2="72.21" y2="40.39" />
<line fill="none" stroke="#00aeef" stroke-width="0.05mm" stroke-dasharray="0.4,0.2" x1="54.86" y1="49.23" x2="73.24" y2="39.76" />
<line fill="none" stroke="#5674b9" stroke-width="0.05mm" stroke-dasharray="0.4,0.2" x1="54.86" y1="49.23" x2="75.36" y2="40.35" />
<line fill="none" stroke="#5674b9" stroke-width="0.05mm" stroke-dasharray="0.4,0.2" x1="54.86" y1="49.23" x2="54.59" y2="51.92" />
<line fill="none" stroke="#00aeef" stroke-width="0.05mm" stroke-dasharray="0.4,0.2" x1="54.86" y1="49.23" x2="52.88" y2="43.01" />
<line fill="none" stroke="#00aeef" stroke-width="0.05mm" stroke-dasharray="0.4,0.2" x1="54.86" y1="49.23" x2="19.96" y2="62.82" />
<line fill="none" stroke="#111111" stroke-width="0.05mm" x1="54.86" y1="49.23" x2="71.83" y2="42.73" />
<line fill="none" stroke="#5674b9" stroke-width="0.05mm" stroke-dasharray="0.4,0.2" x1="71.83" y1="42.73" x2="71.38" y2="46.12" />
<line fill="none" stroke="#5674b9" stroke-width="0.05mm" stroke-dasharray="0.4,0.2" x1="71.83" y1="42.73" x2="71.22" y2="38.56" />
<line fill="none" stroke="#00aeef" stroke-width="0.05mm" stroke-dasharray="0.4,0.2" x1="71.83" y1="42.73" x2="59.14" y2="46.69" />
<line fill="none" stroke="#00aeef" stroke-width="0.05mm" stroke-dasharray="0.4,0.2" x1="71.83" y1="42.73" x2="64.06" y2="43.16" />
<line fill="none" stroke="#00aeef" stroke-width="0.05mm" stroke-dasharray="0.4,0.2" x1="71.83" y1="42.73" x2="65.40" y2="42.43" />
<line fill="none" stroke="#00aeef" stroke-width="0.05mm" stroke-dasharray="0.4,0.2" x1="71.83" y1="42.73" x2="64.40" y2="40.08" />
<line fill="none" stroke="#00aeef" stroke-width="0.05mm" stroke-dasharray="0.4,0.2" x1="71.83" y1="42.73" x2="65.48" y2="39.58" />
<line fill="none" stroke="#00aeef" stroke-width="0.05mm" stroke-dasharray="0.4,0.2" x1="71.83" y1="42.73" x2="69.57" y2="42.17" />
<line fill="none" stroke="#5674b9" stroke-width="0.05mm" stroke-dasharray="0.4,0.2" x1="71.83" y1="42.73" x2="55.58" y2="48.90" />
<line fill="none" stroke="#5674b9" stroke-width="0.05mm" stroke-dasharray="0.4,0.2" x1="71.83" y1="42.73" x2="57.35" y2="48.02" />
<line fill="none" stroke="#5674b9" stroke-width="0.05mm" stroke-dasharray="0.4,0.2" x1="71.83" y1="42.73" x2="59.30" y2="46.76" />
<line fill="none" stroke="#5674b9" stroke-width="0.05mm" stroke-dasharray="0.4,0.2" x1="71.83" y1="42.73" x2="63.56" y2="45.34" />
<line fill="none" stroke="#5674b9" stroke-width="0.05mm" stroke-dasharray="0.4,0.2" x1="71.83" y1="42.73" x2="65.63" y2="44.01" />
<line fill="none" stroke="#5674b9" stroke-width="0.05mm" stroke-dasharray="0.4,0.2" x1="71.83" y1="42.73" x2="66.11" y2="43.42" />
<line fill="none" stroke="#5674b9" stroke-width="0.05mm" stroke-dasharray="0.4,0.2" x1="71.83" y1="42.73" x2="66.87" y2="42.64" />
<line fill="none" stroke="#5674b9" stroke-width="0.05mm" stroke-dasharray="0.4,0.2" x1="71.83" y1="42.73" x2="68.40" y2="42.02" />
<line fill="none" stroke="#5674b9" stroke-width="0.05mm" stroke-dasharray="0.4,0.2" x1="71.83" y1="42.73" x2="68.62" y2="41.67" />
<line fill="none" stroke="#5674b9" stroke-width="0.05mm" stroke-dasharray="0.4,0.2" x1="71.83" y1="42.73" x2="67.82" y2="40.66" />
<line fill="none" stroke="#5674b9" stroke-width="0.05mm" stroke-dasharray="0.4,0.2" x1="71.83" y1="42.73" x2="66.75" y2="39.52" />
<line fill="none" stroke="#5674b9" stroke-width="0.05mm" stroke-dasharray="0.4,0.2" x1="71.83" y1="42.73" x2="67.94" y2="39.32" />
<line fill="none" stroke="#5674b9" stroke-width="0.05mm" stroke-dasharray="0.4,0.2" x1="71.83" y1="42.73" x2="69.01" y2="38.03" />
<line fill="none" stroke="#5674b9" stroke-width="0.05mm" stroke-dasharray="0.4,0.2" x1="71.83" y1="42.73" x2="70.08" y2="36.70" />
<line fill="none" stroke="#5674b9" stroke-width="0.05mm" stroke-dasharray="0.4,0.2" x1="71.83" y1="42.73" x2="70.98" y2="35.85" />
<line fill="none" stroke="#5674b9" stroke-width="0.05mm" stroke-dasharray="0.4,0.2" x1="71.83" y1="42.73" x2="72.12" y2="35.78" />
<line fill="none" stroke="#5674b9" stroke-width="0.05mm" stroke-dasharray="0.4,0.2" x1="71.83" y1="42.73" x2="72.05" y2="38.02" />
<line fill="none" stroke="#5674b9" stroke-width="0.05mm" stroke-dasharray="0.4,0.2" x1="71.83" y1="42.73" x2="72.91" y2="38.91" />
<line fill="none" stroke="#5674b9" stroke-width="0.05mm" stroke-dasharray="0.4,0.2" x1="71.83" y1="42.73" x2="74.32" y2="39.06" />
<line fill="none" stroke="#5674b9" stroke-width="0.05mm" stroke-dasharray="0.4,0.2" x1="71.83" y1="42.73" x2="74.78" y2="39.55" />
<line fill="none" stroke="#5674b9" stroke-width="0.05mm" stroke-dasharray="0.4,0.2" x1="71.83" y1="42.73" x2="76.34" y2="38.85" />
<line fill="none" stroke="#5674b9" stroke-width="0.05mm" stroke-dasharray="0.4,0.2" x1="71.83" y1="42.73" x2="76.68" y2="38.92" />
<line fill="none" stroke="#5674b9" stroke-width="0.05mm" stroke-dasharray="0.4,0.2" x1="71.83" y1="42.73" x2="77.08" y2="39.07" />
<line fill="none" stroke="#5674b9" stroke-width="0.05mm" stroke-dasharray="0.4,0.2" x1="71.83" y1="42.73" x2="76.79" y2="39.34" />
<line fill="none" stroke="#5674b9" stroke-width="0.05mm" stroke-dasharray="0.4,0.2" x1="71.83" y1="42.73" x2="77.80" y2="38.90" />
<line fill="none" stroke="#5674b9" stroke-width="0.05mm" stroke-dasharray="0.4,0.2" x1="71.83" y1="42.73" x2="76.28" y2="39.93" />
<line fill="none" stroke="#5674b9" stroke-width="0.05mm" stroke-dasharray="0.4,0.2" x1="71.83" y1="42.73" x2="74.21" y2="41.28" />
<line fill="none" stroke="#111111" stroke-width="0.05mm" x1="71.83" y1="42.73" x2="89.46" y2="37.86" />
<line fill="none" stroke="#00aeef" stroke-width="0.05mm" stroke-dasharray="0.4,0.2" x1="89.46" y1="37.86" x2="89.68" y2="35.66" />
<line fill="none" stroke="#5674b9" stroke-width="0.05mm" stroke-dasharray="0.4,0.2" x1="89.46" y1="37.86" x2="79.40" y2="40.84" />
<line fill="none" stroke="#5674b9" stroke-width="0.05mm" stroke-dasharray="0.4,0.2" x1="89.46" y1="37.86" x2="80.44" y2="40.53" />
<line fill="none" stroke="#5674b9" stroke-width="0.05mm" stroke-dasharray="0.4,0.2" x1="89.46" y1="37.86" x2="85.41" y2="39.24" />
<line fill="none" stroke="#00aeef" stroke-width="0.05mm" stroke-dasharray="0.4,0.2" x1="89.46" y1="37.86" x2="92.91" y2="35.92" />
<line fill="none" stroke="#00aeef" stroke-width="0.05mm" stroke-dasharray="0.4,0.2" x1="89.46" y1="37.86" x2="91.00" y2="36.91" />
<line fill="none" stroke="#00aeef" stroke-width="0.05mm" stroke-dasharray="0.4,0.2" x1="89.46" y1="37.86" x2="94.16" y2="34.60" />
<line fill="none" stroke="#00aeef" stroke-width="0.05mm" stroke-dasharray="0.4,0.2" x1="89.46" y1="37.86" x2="94.00" y2="34.81" />
<line fill="none" stroke="#00aeef" stroke-width="0.05mm" stroke-dasharray="0.4,0.2" x1="89.46" y1="37.86" x2="92.64" y2="35.99" />
<line fill="none" stroke="#00aeef" stroke-width="0.05mm" stroke-dasharray="0.4,0.2" x1="89.46" y1="37.86" x2="92.23" y2="36.38" />
<line fill="none" stroke="#00aeef" stroke-width="0.05mm" stroke-dasharray="0.4,0.2" x1="89.46" y1="37.86" x2="90.70" y2="36.86" />
<line fill="none" stroke="#00aeef" stroke-width="0.05mm" stroke-dasharray="0.4,0.2" x1="89.46" y1="37.86" x2="89.70" y2="37.35" />
<line fill="none" stroke="#00aeef" stroke-width="0.05mm" stroke-dasharray="0.4,0.2" x1="89.46" y1="37.86" x2="88.58" y2="37.29" />
<line fill="none" stroke="#00aeef" stroke-width="0.05mm" stroke-dasharray="0.4,0.2" x1="89.46" y1="37.86" x2="87.77" y2="37.59" />
<line fill="none" stroke="#00aeef" stroke-width="0.05mm" stroke-dasharray="0.4,0.2" x1="89.46" y1="37.86" x2="87.60" y2="37.37" />
<line fill="none" stroke="#00aeef" stroke-width="0.05mm" stroke-dasharray="0.4,0.2" x1="89.46" y1="37.86" x2="87.04" y2="38.14" />
<line fill="none" stroke="#00aeef" stroke-width="0.05mm" stroke-dasharray="0.4,0.2" x1="89.46" y1="37.86" x2="86.67" y2="38.30" />
<line fill="none" stroke="#00aeef" stroke-width="0.05mm" stroke-dasharray="0.4,0.2" x1="89.46" y1="37.86" x2="85.53" y2="38.74" />
<line fill="none" stroke="#00aeef" stroke-width="0.05mm" stroke-dasharray="0.4,0.2" x1="89.46" y1="37.86" x2="83.60" y2="38.54" />
<line fill="none" stroke="#00aeef" stroke-width="0.05mm" stroke-dasharray="0.4,0.2" x1="89.46" y1="37.86" x2="79.52" y2="38.76" />
<line fill="none" stroke="#00aeef" stroke-width="0.05mm" stroke-dasharray="0.4,0.2" x1="89.46" y1="37.86" x2="78.81" y2="38.75" />
<line fill="none" stroke="#00aeef" stroke-width="0.05mm" stroke-dasharray="0.4,0.2" x1="89.46" y1="37.86" x2="79.72" y2="37.79" />
<line fill="none" stroke="#00aeef" stroke-width="0.05mm" stroke-dasharray="0.4,0.2" x1="89.46" y1="37.86" x2="80.12" y2="37.24" />
<line fill="none" stroke="#00aeef" stroke-width="0.05mm" stroke-dasharray="0.4,0.2" x1="89.46" y1="37.86" x2="83.15" y2="36.83" />
<line fill="none" stroke="#00aeef" stroke-width="0.05mm" stroke-dasharray="0.4,0.2" x1="89.46" y1="37.86" x2="82.30" y2="35.53" />
<line fill="none" stroke="#00aeef" stroke-width="0.05mm" stroke-dasharray="0.4,0.2" x1="89.46" y1="37.86" x2="82.18" y2="34.45" />
<line fill="none" stroke="#00aeef" stroke-width="0.05mm" stroke-dasharray="0.4,0.2" x1="89.46" y1="37.86" x2="83.57" y2="29.72" />
<line fill="none" stroke="#00aeef" stroke-width="0.05mm" stroke-dasharray="0.4,0.2" x1="89.46" y1="37.86" x2="83.98" y2="30.04" />
<line fill="none" stroke="#00aeef" stroke-width="0.05mm" stroke-dasharray="0.4,0.2" x1="89.46" y1="37.86" x2="86.18" y2="32.24" />
<line fill="none" stroke="#5674b9" stroke-width="0.05mm" stroke-dasharray="0.4,0.2" x1="89.46" y1="37.86" x2="95.58" y2="46.34" />
<line fill="none" stroke="#111111" stroke-width="0.05mm" x1="89.46" y1="37.86" x2="101.30" y2="29.15" />
<line fill="none" stroke="#5674b9" stroke-width="0.05mm" stroke-dasharray="0.4,0.2" x1="101.30" y1="29.15" x2="100.17" y2="26.30" />
<line fill="none" stroke="#5674b9" stroke-width="0.05mm" stroke-dasharray="0.4,0.2" x1="101.30" y1="29.15" x2="101.71" y2="23.99" />
<line fill="none" stroke="#5674b9" stroke-width="0.05mm" stroke-dasharray="0.4,0.2" x1="101.30" y1="29.15" x2="99.02" y2="31.04" />
<line fill="none" stroke="#5674b9" stroke-width="0.05mm" stroke-dasharray="0.4,0.2" x1="101.30" y1="29.15" x2="99.67" y2="29.47" />
<line fill="none" stroke="#5674b9" stroke-width="0.05mm" stroke-dasharray="0.4,0.2" x1="101.30" y1="29.15" x2="98.95" y2="28.18" />
<line fill="none" stroke="#5674b9" stroke-width="0.05mm" stroke-dasharray="0.4,0.2" x1="101.30" y1="29.15" x2="100.53" y2="26.20" />
<line fill="none" stroke="#5674b9" stroke-width="0.05mm" stroke-dasharray="0.4,0.2" x1="101.30" y1="29.15" x2="103.22" y2="24.79" />
<line fill="none" stroke="#5674b9" stroke-width="0.05mm" stroke-dasharray="0.4,0.2" x1="101.30" y1="29.15" x2="104.71" y2="25.23" />
<line fill="none" stroke="#5674b9" stroke-width="0.05mm" stroke-dasharray="0.4,0.2" x1="101.30" y1="29.15" x2="106.56" y2="25.16" />
<line fill="none" stroke="#00aeef" stroke-width="0.05mm" stroke-dasharray="0.4,0.2" x1="101.30" y1="29.15" x2="103.69" y2="27.98" />
<line fill="none" stroke="#00aeef" stroke-width="0.05mm" stroke-dasharray="0.4,0.2" x1="101.30" y1="29.15" x2="100.06" y2="30.04" />
<line fill="none" stroke="#00aeef" stroke-width="0.05mm" stroke-dasharray="0.4,0.2" x1="101.30" y1="29.15" x2="98.67" y2="30.66" />
<line fill="none" stroke="#00aeef" stroke-width="0.05mm" stroke-dasharray="0.4,0.2" x1="101.30" y1="29.15" x2="95.65" y2="32.12" />
<line fill="none" stroke="#00aeef" stroke-width="0.05mm" stroke-dasharray="0.4,0.2" x1="101.30" y1="29.15" x2="93.54" y2="33.59" />
<line fill="none" stroke="#111111" stroke-width="0.05mm" x1="101.30" y1="29.15" x2="107.70" y2="24.73" />
<line fill="none" stroke="#111111" stroke-width="0.05mm" x1="101.30" y1="29.15" x2="104.38" y2="28.50" />
<line fill="none" stroke="#5674b9" stroke-width="0.05mm" stroke-dasharray="0.4,0.2" x1="104.38" y1="28.50" x2="104.92" y2="31.33" />
<line fill="none" stroke="#00aeef" stroke-width="0.05mm" stroke-dasharray="0.4,0.2" x1="104.38" y1="28.50" x2="103.48" y2="26.74" />
<line fill="none" stroke="#5674b9" stroke-width="0.05mm" stroke-dasharray="0.4,0.2" x1="104.38" y1="28.50" x2="103.68" y2="28.81" />
<line fill="none" stroke="#00aeef" stroke-width="0.05mm" stroke-dasharray="0.4,0.2" x1="104.38" y1="28.50" x2="105.19" y2="29.06" />
<line fill="none" stroke="#5674b9" stroke-width="0.05mm" stroke-dasharray="0.4,0.2" x1="104.38" y1="28.50" x2="106.55" y2="33.07" />
<line fill="none" stroke="#00aeef" stroke-width="0.05mm" stroke-dasharray="0.4,0.2" x1="104.38" y1="28.50" x2="108.88" y2="36.23" />
<line fill="none" stroke="#00aeef" stroke-width="0.05mm" stroke-dasharray="0.4,0.2" x1="104.38" y1="28.50" x2="107.02" y2="33.08" />
<line fill="none" stroke="#00aeef" stroke-width="0.05mm" stroke-dasharray="0.4,0.2" x1="104.38" y1="28.50" x2="107.70" y2="35.23" />
<line fill="none" stroke="#111111" stroke-width="0.05mm" x1="104.38" y1="28.50" x2="112.91" y2="42.14" />
<line fill="none" stroke="#00aeef" stroke-width="0.05mm" stroke-dasharray="0.4,0.2" x1="112.91" y1="42.14" x2="116.40" y2="42.84" />
<line fill="none" stroke="#111111" stroke-width="0.05mm" x1="112.91" y1="42.14" x2="116.54" y2="42.84" />
<line fill="none" stroke="#00aeef" stroke-width="0.05mm" stroke-dasharray="0.4,0.2" x1="116.54" y1="42.84" x2="120.14" y2="43.55" />
<line fill="none" stroke="#111111" stroke-width="0.05mm" x1="54.86" y1="49.23" x2="71.27" y2="39.97" />
<line fill="none" stroke="#111111" stroke-width="0.05mm" x1="71.27" y1="39.97" x2="79.22" y2="39.40" />
<line fill="none" stroke="#5674b9" stroke-width="0.05mm" stroke-dasharray="0.4,0.2" x1="79.22" y1="39.40" x2="77.79" y2="37.67" />
<line fill="none" stroke="#5674b9" stroke-width="0.05mm" stroke-dasharray="0.4,0.2" x1="79.22" y1="39.40" x2="77.49" y2="39.37" />
<line fill="none" stroke="#5674b9" stroke-width="0.05mm" stroke-dasharray="0.4,0.2" x1="79.22" y1="39.40" x2="76.57" y2="39.11" />
<line fill="none" stroke="#00aeef" stroke-width="0.05mm" stroke-dasharray="0.4,0.2" x1="79.22" y1="39.40" x2="75.77" y2="39.09" />
<line fill="none" stroke="#00aeef" stroke-width="0.05mm" stroke-dasharray="0.4,0.2" x1="79.22" y1="39.40" x2="80.54" y2="41.59" />
<line fill="none" stroke="#00aeef" stroke-width="0.05mm" stroke-dasharray="0.4,0.2" x1="79.22" y1="39.40" x2="79.33" y2="41.74" />
<line fill="none" stroke="#5674b9" stroke-width="0.05mm" stroke-dasharray="0.4,0.2" x1="79.22" y1="39.40" x2="81.72" y2="41.52" />
<line fill="none" stroke="#5674b9" stroke-width="0.05mm" stroke-dasharray="0.4,0.2" x1="79.22" y1="39.40" x2="78.37" y2="40.14" />
<line fill="none" stroke="#5674b9" stroke-width="0.05mm" stroke-dasharray="0.4,0.2" x1="79.22" y1="39.40" x2="79.75" y2="40.85" />
<line fill="none" stroke="#111111" stroke-width="0.05mm" x1="79.22" y1="39.40" x2="89.64" y2="39.17" />
<line fill="none" stroke="#5674b9" stroke-width="0.05mm" stroke-dasharray="0.4,0.2" x1="89.64" y1="39.17" x2="90.31" y2="38.80" />
<line fill="none" stroke="#00aeef" stroke-width="0.05mm" stroke-dasharray="0.4,0.2" x1="89.64" y1="39.17" x2="90.01" y2="44.03" />
<line fill="none" stroke="#5674b9" stroke-width="0.05mm" stroke-dasharray="0.4,0.2" x1="89.64" y1="39.17" x2="89.11" y2="32.74" />
<line fill="none" stroke="#5674b9" stroke-width="0.05mm" stroke-dasharray="0.4,0.2" x1="89.64" y1="39.17" x2="87.35" y2="38.22" />
<line fill="none" stroke="#5674b9" stroke-width="0.05mm" stroke-dasharray="0.4,0.2" x1="89.64" y1="39.17" x2="90.11" y2="38.79" />
<line fill="none" stroke="#00aeef" stroke-width="0.05mm" stroke-dasharray="0.4,0.2" x1="89.64" y1="39.17" x2="92.74" y2="39.47" />
<line fill="none" stroke="#00aeef" stroke-width="0.05mm" stroke-dasharray="0.4,0.2" x1="89.64" y1="39.17" x2="94.64" y2="39.72" />
<line fill="none" stroke="#00aeef" stroke-width="0.05mm" stroke-dasharray="0.4,0.2" x1="89.64" y1="39.17" x2="86.25" y2="38.81" />
<line fill="none" stroke="#00aeef" stroke-width="0.05mm" stroke-dasharray="0.4,0.2" x1="89.64" y1="39.17" x2="88.54" y2="38.97" />
<line fill="none" stroke="#00aeef" stroke-width="0.05mm" stroke-dasharray="0.4,0.2" x1="89.64" y1="39.17" x2="89.57" y2="39.15" />
<line fill="none" stroke="#00aeef" stroke-width="0.05mm" stroke-dasharray="0.4,0.2" x1="89.64" y1="39.17" x2="90.72" y2="39.00" />
<line fill="none" stroke="#00aeef" stroke-width="0.05mm" stroke-dasharray="0.4,0.2" x1="89.64" y1="39.17" x2="91.68" y2="39.19" />
<line fill="none" stroke="#00aeef" stroke-width="0.05mm" stroke-dasharray="0.4,0.2" x1="89.64" y1="39.17" x2="83.51" y2="39.79" />
<line fill="none" stroke="#00aeef" stroke-width="0.05mm" stroke-dasharray="0.4,0.2" x1="89.64" y1="39.17" x2="85.64" y2="39.52" />
<line fill="none" stroke="#00aeef" stroke-width="0.05mm" stroke-dasharray="0.4,0.2" x1="89.64" y1="39.17" x2="91.64" y2="41.48" />
<line fill="none" stroke="#00aeef" stroke-width="0.05mm" stroke-dasharray="0.4,0.2" x1="89.64" y1="39.17" x2="87.02" y2="44.67" />
<line fill="none" stroke="#00aeef" stroke-width="0.05mm" stroke-dasharray="0.4,0.2" x1="89.64" y1="39.17" x2="85.59" y2="47.49" />
<line fill="none" stroke="#111111" stroke-width="0.05mm" x1="89.64" y1="39.17" x2="94.23" y2="38.33" />
<line fill="none" stroke="#5674b9" stroke-width="0.05mm" stroke-dasharray="0.4,0.2" x1="94.23" y1="38.33" x2="94.44" y2="40.44" />
<line fill="none" stroke="#00aeef" stroke-width="0.05mm" stroke-dasharray="0.4,0.2" x1="94.23" y1="38.33" x2="94.34" y2="33.46" />
<line fill="none" stroke="#00aeef" stroke-width="0.05mm" stroke-dasharray="0.4,0.2" x1="94.23" y1="38.33" x2="96.45" y2="38.35" />
<line fill="none" stroke="#00aeef" stroke-width="0.05mm" stroke-dasharray="0.4,0.2" x1="94.23" y1="38.33" x2="95.81" y2="38.19" />
<line fill="none" stroke="#00aeef" stroke-width="0.05mm" stroke-dasharray="0.4,0.2" x1="94.23" y1="38.33" x2="95.00" y2="38.32" />
<line fill="none" stroke="#00aeef" stroke-width="0.05mm" stroke-dasharray="0.4,0.2" x1="94.23" y1="38.33" x2="94.86" y2="38.30" />
<line fill="none" stroke="#00aeef" stroke-width="0.05mm" stroke-dasharray="0.4,0.2" opacity="0.72" x1="94.23" y1="38.33" x2="94.24" y2="38.36" />
<line fill="none" stroke="#00aeef" stroke-width="0.05mm" stroke-dasharray="0.4,0.2" x1="94.23" y1="38.33" x2="93.59" y2="38.64" />
<line fill="none" stroke="#00aeef" stroke-width="0.05mm" stroke-dasharray="0.4,0.2" x1="94.23" y1="38.33" x2="92.96" y2="38.74" />
<line fill="none" stroke="#00aeef" stroke-width="0.05mm" stroke-dasharray="0.4,0.2" x1="94.23" y1="38.33" x2="96.24" y2="37.71" />
<line fill="none" stroke="#00aeef" stroke-width="0.05mm" stroke-dasharray="0.4,0.2" x1="94.23" y1="38.33" x2="94.24" y2="31.11" />
<line fill="none" stroke="#111111" stroke-width="0.05mm" x1="94.23" y1="38.33" x2="95.04" y2="31.20" />
<line fill="none" stroke="#00aeef" stroke-width="0.05mm" stroke-dasharray="0.4,0.2" x1="95.04" y1="31.20" x2="95.86" y2="24.01" />
<line fill="none" stroke="#00aeef" stroke-width="0.05mm" stroke-dasharray="0.4,0.2" x1="95.04" y1="31.20" x2="95.86" y2="24.07" />
<line fill="none" stroke="#5674b9" stroke-width="0.05mm" stroke-dasharray="0.4,0.2" x1="95.04" y1="31.20" x2="94.49" y2="26.29" />
<line fill="none" stroke="#00aeef" stroke-width="0.05mm" stroke-dasharray="0.4,0.2" x1="95.04" y1="31.20" x2="94.39" y2="31.31" />
<line fill="none" stroke="#00aeef" stroke-width="0.05mm" stroke-dasharray="0.4,0.2" x1="95.04" y1="31.20" x2="93.64" y2="31.38" />
<line fill="none" stroke="#00aeef" stroke-width="0.05mm" stroke-dasharray="0.4,0.2" x1="95.04" y1="31.20" x2="92.03" y2="30.94" />
<line fill="none" stroke="#5674b9" stroke-width="0.05mm" stroke-dasharray="0.4,0.2" x1="95.04" y1="31.20" x2="92.97" y2="31.31" />
<line fill="none" stroke="#5674b9" stroke-width="0.05mm" stroke-dasharray="0.4,0.2" x1="95.04" y1="31.20" x2="94.54" y2="31.07" />
<line fill="none" stroke="#5674b9" stroke-width="0.05mm" stroke-dasharray="0.4,0.2" x1="95.04" y1="31.20" x2="95.78" y2="31.22" />
<line fill="none" stroke="#5674b9" stroke-width="0.05mm" stroke-dasharray="0.4,0.2" x1="95.04" y1="31.20" x2="96.71" y2="31.43" />
<line fill="none" stroke="#111111" stroke-width="0.05mm" x1="95.04" y1="31.20" x2="100.76" y2="34.21" />
<line fill="none" stroke="#5674b9" stroke-width="0.05mm" stroke-dasharray="0.4,0.2" x1="100.76" y1="34.21" x2="100.19" y2="36.14" />
<line fill="none" stroke="#5674b9" stroke-width="0.05mm" stroke-dasharray="0.4,0.2" x1="100.76" y1="34.21" x2="101.03" y2="24.44" />
<line fill="none" stroke="#00aeef" stroke-width="0.05mm" stroke-dasharray="0.4,0.2" x1="100.76" y1="34.21" x2="99.18" y2="34.14" />
<line fill="none" stroke="#00aeef" stroke-width="0.05mm" stroke-dasharray="0.4,0.2" x1="100.76" y1="34.21" x2="97.43" y2="33.85" />
<line fill="none" stroke="#5674b9" stroke-width="0.05mm" stroke-dasharray="0.4,0.2" x1="100.76" y1="34.21" x2="97.42" y2="33.87" />
<line fill="none" stroke="#5674b9" stroke-width="0.05mm" stroke-dasharray="0.4,0.2" x1="100.76" y1="34.21" x2="98.34" y2="34.05" />
<line fill="none" stroke="#5674b9" stroke-width="0.05mm" stroke-dasharray="0.4,0.2" x1="100.76" y1="34.21" x2="99.16" y2="34.20" />
<line fill="none" stroke="#5674b9" stroke-width="0.05mm" stroke-dasharray="0.4,0.2" x1="100.76" y1="34.21" x2="101.28" y2="33.02" />
<line fill="none" stroke="#5674b9" stroke-width="0.05mm" stroke-dasharray="0.4,0.2" x1="100.76" y1="34.21" x2="102.88" y2="33.26" />
<line fill="none" stroke="#5674b9" stroke-width="0.05mm" stroke-dasharray="0.4,0.2" x1="100.76" y1="34.21" x2="104.05" y2="33.25" />
<line fill="none" stroke="#5674b9" stroke-width="0.05mm" stroke-dasharray="0.4,0.2" x1="100.76" y1="34.21" x2="102.16" y2="34.05" />
<line fill="none" stroke="#111111" stroke-width="0.05mm" x1="100.76" y1="34.21" x2="107.36" y2="19.65" />
<line fill="none" stroke="#111111" stroke-width="0.05mm" x1="79.22" y1="39.40" x2="80.45" y2="49.14" />
<line fill="none" stroke="#5674b9" stroke-width="0.05mm" stroke-dasharray="0.4,0.2" x1="80.45" y1="49.14" x2="79.82" y2="55.72" />
<line fill="none" stroke="#00aeef" stroke-width="0.05mm" stroke-dasharray="0.4,0.2" x1="80.45" y1="49.14" x2="79.74" y2="48.87" />
<line fill="none" stroke="#5674b9" stroke-width="0.05mm" stroke-dasharray="0.4,0.2" x1="80.45" y1="49.14" x2="78.72" y2="49.15" />
<line fill="none" stroke="#5674b9" stroke-width="0.05mm" stroke-dasharray="0.4,0.2" x1="80.45" y1="49.14" x2="80.73" y2="49.10" />
<line fill="none" stroke="#111111" stroke-width="0.05mm" x1="80.45" y1="49.14" x2="82.35" y2="55.61" />
<line fill="none" stroke="#5674b9" stroke-width="0.05mm" stroke-dasharray="0.4,0.2" opacity="0.22" x1="82.35" y1="55.61" x2="82.35" y2="64.26" />
<line fill="none" stroke="#5674b9" stroke-width="0.05mm" stroke-dasharray="0.4,0.2" x1="82.35" y1="55.61" x2="81.62" y2="55.07" />
<line fill="none" stroke="#5674b9" stroke-width="0.05mm" stroke-dasharray="0.4,0.2" x1="82.35" y1="55.61" x2="79.00" y2="54.72" />
<line fill="none" stroke="#00aeef" stroke-width="0.05mm" stroke-dasharray="0.4,0.2" x1="82.35" y1="55.61" x2="77.66" y2="55.13" />
<line fill="none" stroke="#00aeef" stroke-width="0.05mm" stroke-dasharray="0.4,0.2" x1="82.35" y1="55.61" x2="81.33" y2="55.15" />
<line fill="none" stroke="#00aeef" stroke-width="0.05mm" stroke-dasharray="0.4,0.2" x1="82.35" y1="55.61" x2="83.44" y2="55.19" />
<line fill="none" stroke="#00aeef" stroke-width="0.05mm" stroke-dasharray="0.4,0.2" x1="82.35" y1="55.61" x2="84.91" y2="55.39" />
<line fill="none" stroke="#5674b9" stroke-width="0.05mm" stroke-dasharray="0.4,0.2" x1="82.35" y1="55.61" x2="83.51" y2="55.15" />
<line fill="none" stroke="#5674b9" stroke-width="0.05mm" stroke-dasharray="0.4,0.2" x1="82.35" y1="55.61" x2="82.21" y2="54.98" />
<line fill="none" stroke="#00aeef" stroke-width="0.05mm" stroke-dasharray="0.4,0.2" x1="82.35" y1="55.61" x2="86.73" y2="53.11" />
<line fill="none" stroke="#00aeef" stroke-width="0.05mm" stroke-dasharray="0.4,0.2" x1="82.35" y1="55.61" x2="86.81" y2="53.05" />
<line fill="none" stroke="#00aeef" stroke-width="0.05mm" stroke-dasharray="0.4,0.2" x1="82.35" y1="55.61" x2="86.81" y2="53.07" />
<line fill="none" stroke="#00aeef" stroke-width="0.05mm" stroke-dasharray="0.4,0.2" x1="82.35" y1="55.61" x2="83.40" y2="55.60" />
<line fill="none" stroke="#00aeef" stroke-width="0.05mm" stroke-dasharray="0.4,0.2" x1="82.35" y1="55.61" x2="85.96" y2="55.66" />
<line fill="none" stroke="#00aeef" stroke-width="0.05mm" stroke-dasharray="0.4,0.2" x1="82.35" y1="55.61" x2="88.71" y2="56.98" />
<line fill="none" stroke="#5674b9" stroke-width="0.05mm" stroke-dasharray="0.4,0.2" x1="82.35" y1="55.61" x2="85.22" y2="55.95" />
<line fill="none" stroke="#5674b9" stroke-width="0.05mm" stroke-dasharray="0.4,0.2" x1="82.35" y1="55.61" x2="83.88" y2="55.94" />
<line fill="none" stroke="#5674b9" stroke-width="0.05mm" stroke-dasharray="0.4,0.2" x1="82.35" y1="55.61" x2="82.87" y2="55.66" />
<line fill="none" stroke="#5674b9" stroke-width="0.05mm" stroke-dasharray="0.4,0.2" x1="82.35" y1="55.61" x2="81.49" y2="55.45" />
<line fill="none" stroke="#00aeef" stroke-width="0.05mm" stroke-dasharray="0.4,0.2" x1="82.35" y1="55.61" x2="86.48" y2="53.21" />
<line fill="none" stroke="#00aeef" stroke-width="0.05mm" stroke-dasharray="0.4,0.2" x1="82.35" y1="55.61" x2="86.74" y2="53.04" />
<line fill="none" stroke="#00aeef" stroke-width="0.05mm" stroke-dasharray="0.4,0.2" x1="82.35" y1="55.61" x2="86.56" y2="53.13" />
<line fill="none" stroke="#111111" stroke-width="0.05mm" x1="82.35" y1="55.61" x2="87.10" y2="53.05" />
<line fill="none" stroke="#00aeef" stroke-width="0.05mm" stroke-dasharray="0.4,0.2" x1="87.10" y1="53.05" x2="91.86" y2="50.48" />
<line fill="none" stroke="#00aeef" stroke-width="0.05mm" stroke-dasharray="0.4,0.2" x1="87.10" y1="53.05" x2="88.62" y2="53.27" />
<line fill="none" stroke="#00aeef" stroke-width="0.05mm" stroke-dasharray="0.4,0.2" x1="87.10" y1="53.05" x2="90.87" y2="53.35" />
<line fill="none" stroke="#5674b9" stroke-width="0.05mm" stroke-dasharray="0.4,0.2" x1="87.10" y1="53.05" x2="93.67" y2="54.06" />
<line fill="none" stroke="#5674b9" stroke-width="0.05mm" stroke-dasharray="0.4,0.2" x1="87.10" y1="53.05" x2="93.53" y2="55.10" />
<line fill="none" stroke="#5674b9" stroke-width="0.05mm" stroke-dasharray="0.4,0.2" x1="87.10" y1="53.05" x2="90.21" y2="53.99" />
<line fill="none" stroke="#5674b9" stroke-width="0.05mm" stroke-dasharray="0.4,0.2" x1="87.10" y1="53.05" x2="86.53" y2="53.32" />
<line fill="none" stroke="#5674b9" stroke-width="0.05mm" stroke-dasharray="0.4,0.2" x1="87.10" y1="53.05" x2="85.84" y2="52.97" />
<line fill="none" stroke="#5674b9" stroke-width="0.05mm" stroke-dasharray="0.4,0.2" x1="87.10" y1="53.05" x2="83.10" y2="52.20" />
<line fill="none" stroke="#111111" stroke-width="0.05mm" x1="87.10" y1="53.05" x2="91.39" y2="64.02" />
<line fill="none" stroke="#111111" stroke-width="0.05mm" x1="37.00" y1="53.71" x2="45.56" y2="60.41" />
<line fill="none" stroke="#5674b9" stroke-width="0.05mm" stroke-dasharray="0.4,0.2" x1="45.56" y1="60.41" x2="45.52" y2="59.08" />
<line fill="none" stroke="#5674b9" stroke-width="0.05mm" stroke-dasharray="0.4,0.2" x1="45.56" y1="60.41" x2="39.14" y2="60.50" />
<line fill="none" stroke="#5674b9" stroke-width="0.05mm" stroke-dasharray="0.4,0.2" x1="45.56" y1="60.41" x2="39.65" y2="60.37" />
<line fill="none" stroke="#5674b9" stroke-width="0.05mm" stroke-dasharray="0.4,0.2" x1="45.56" y1="60.41" x2="40.93" y2="60.69" />
<line fill="none" stroke="#5674b9" stroke-width="0.05mm" stroke-dasharray="0.4,0.2" x1="45.56" y1="60.41" x2="42.10" y2="60.54" />
<line fill="none" stroke="#5674b9" stroke-width="0.05mm" stroke-dasharray="0.4,0.2" x1="45.56" y1="60.41" x2="42.27" y2="60.62" />
<line fill="none" stroke="#5674b9" stroke-width="0.05mm" stroke-dasharray="0.4,0.2" x1="45.56" y1="60.41" x2="46.73" y2="61.30" />
<line fill="none" stroke="#00aeef" stroke-width="0.05mm" stroke-dasharray="0.4,0.2" x1="45.56" y1="60.41" x2="47.99" y2="61.10" />
<line fill="none" stroke="#5674b9" stroke-width="0.05mm" stroke-dasharray="0.4,0.2" x1="45.56" y1="60.41" x2="49.64" y2="62.81" />
<line fill="none" stroke="#5674b9" stroke-width="0.05mm" stroke-dasharray="0.4,0.2" x1="45.56" y1="60.41" x2="52.48" y2="64.58" />
<line fill="none" stroke="#5674b9" stroke-width="0.05mm" stroke-dasharray="0.4,0.2" x1="45.56" y1="60.41" x2="55.92" y2="66.10" />
<line fill="none" stroke="#5674b9" stroke-width="0.05mm" stroke-dasharray="0.4,0.2" x1="45.56" y1="60.41" x2="52.21" y2="63.39" />
<line fill="none" stroke="#5674b9" stroke-width="0.05mm" stroke-dasharray="0.4,0.2" x1="45.56" y1="60.41" x2="54.70" y2="64.99" />
<line fill="none" stroke="#111111" stroke-width="0.05mm" x1="45.56" y1="60.41" x2="55.77" y2="65.77" />
<line fill="none" stroke="#5674b9" stroke-width="0.05mm" stroke-dasharray="0.4,0.2" x1="55.77" y1="65.77" x2="55.84" y2="66.74" />
<line fill="none" stroke="#5674b9" stroke-width="0.05mm" stroke-dasharray="0.4,0.2" x1="55.77" y1="65.77" x2="56.18" y2="53.52" />
<line fill="none" stroke="#5674b9" stroke-width="0.05mm" stroke-dasharray="0.4,0.2" x1="55.77" y1="65.77" x2="53.18" y2="64.95" />
<line fill="none" stroke="#5674b9" stroke-width="0.05mm" stroke-dasharray="0.4,0.2" x1="55.77" y1="65.77" x2="55.08" y2="65.43" />
<line fill="none" stroke="#5674b9" stroke-width="0.05mm" stroke-dasharray="0.4,0.2" x1="55.77" y1="65.77" x2="57.12" y2="66.10" />
<line fill="none" stroke="#00aeef" stroke-width="0.05mm" stroke-dasharray="0.4,0.2" x1="55.77" y1="65.77" x2="53.06" y2="64.70" />
<line fill="none" stroke="#00aeef" stroke-width="0.05mm" stroke-dasharray="0.4,0.2" x1="55.77" y1="65.77" x2="55.80" y2="65.48" />
<line fill="none" stroke="#00aeef" stroke-width="0.05mm" stroke-dasharray="0.4,0.2" x1="55.77" y1="65.77" x2="57.66" y2="65.55" />
<line fill="none" stroke="#111111" stroke-width="0.05mm" x1="55.77" y1="65.77" x2="58.84" y2="68.26" />
<line fill="none" stroke="#00aeef" stroke-width="0.05mm" stroke-dasharray="0.4,0.2" x1="58.84" y1="68.26" x2="59.45" y2="62.40" />
<line fill="none" stroke="#5674b9" stroke-width="0.05mm" stroke-dasharray="0.4,0.2" x1="58.84" y1="68.26" x2="56.90" y2="66.67" />
<line fill="none" stroke="#5674b9" stroke-width="0.05mm" stroke-dasharray="0.4,0.2" x1="58.84" y1="68.26" x2="58.99" y2="67.89" />
<line fill="none" stroke="#00aeef" stroke-width="0.05mm" stroke-dasharray="0.4,0.2" x1="58.84" y1="68.26" x2="61.07" y2="68.35" />
<line fill="none" stroke="#00aeef" stroke-width="0.05mm" stroke-dasharray="0.4,0.2" x1="58.84" y1="68.26" x2="63.10" y2="69.51" />
<line fill="none" stroke="#00aeef" stroke-width="0.05mm" stroke-dasharray="0.4,0.2" x1="58.84" y1="68.26" x2="64.68" y2="70.40" />
<line fill="none" stroke="#00aeef" stroke-width="0.05mm" stroke-dasharray="0.4,0.2" x1="58.84" y1="68.26" x2="62.13" y2="69.17" />
<line fill="none" stroke="#00aeef" stroke-width="0.05mm" stroke-dasharray="0.4,0.2" x1="58.84" y1="68.26" x2="60.46" y2="68.79" />
<line fill="none" stroke="#00aeef" stroke-width="0.05mm" stroke-dasharray="0.4,0.2" opacity="0.26" x1="58.84" y1="68.26" x2="58.83" y2="67.93" />
<line fill="none" stroke="#00aeef" stroke-width="0.05mm" stroke-dasharray="0.4,0.2" x1="58.84" y1="68.26" x2="57.00" y2="66.70" />
<line fill="none" stroke="#00aeef" stroke-width="0.05mm" stroke-dasharray="0.4,0.2" x1="58.84" y1="68.26" x2="63.06" y2="84.29" />
<line fill="none" stroke="#5674b9" stroke-width="0.05mm" stroke-dasharray="0.4,0.2" x1="58.84" y1="68.26" x2="59.15" y2="81.88" />
<line fill="none" stroke="#5674b9" stroke-width="0.05mm" stroke-dasharray="0.4,0.2" x1="58.84" y1="68.26" x2="53.73" y2="88.89" />
<line fill="none" stroke="#5674b9" stroke-width="0.05mm" stroke-dasharray="0.4,0.2" x1="58.84" y1="68.26" x2="49.66" y2="85.75" />
<line fill="none" stroke="#5674b9" stroke-width="0.05mm" stroke-dasharray="0.4,0.2" x1="58.84" y1="68.26" x2="46.54" y2="84.29" />
<line fill="none" stroke="#00aeef" stroke-width="0.05mm" stroke-dasharray="0.4,0.2" x1="58.84" y1="68.26" x2="46.62" y2="84.07" />
<line fill="none" stroke="#00aeef" stroke-width="0.05mm" stroke-dasharray="0.4,0.2" x1="58.84" y1="68.26" x2="51.70" y2="85.60" />
<line fill="none" stroke="#00aeef" stroke-width="0.05mm" stroke-dasharray="0.4,0.2" x1="58.84" y1="68.26" x2="55.16" y2="89.06" />
<line fill="none" stroke="#00aeef" stroke-width="0.05mm" stroke-dasharray="0.4,0.2" x1="58.84" y1="68.26" x2="59.80" y2="85.12" />
<line fill="none" stroke="#00aeef" stroke-width="0.05mm" stroke-dasharray="0.4,0.2" x1="58.84" y1="68.26" x2="63.34" y2="83.66" />
<line fill="none" stroke="#111111" stroke-width="0.05mm" x1="58.84" y1="68.26" x2="65.37" y2="70.61" />
<line fill="none" stroke="#111111" stroke-width="0.05mm" x1="58.84" y1="68.26" x2="61.13" y2="88.54" />
</g>
<g>
<circle cx="20.00" cy="72.00" r="0.1" fill="#111111" />
<circle cx="22.04" cy="64.68" r="0.1" fill="#111111" />
<circle cx="37.00" cy="53.71" r="0.1" fill="#111111" />
<circle cx="54.86" cy="49.23" r="0.1" fill="#111111" />
<circle cx="71.83" cy="42.73" r="0.1" fill="#111111" />
<circle cx="89.46" cy="37.86" r="0.1" fill="#111111" />
<circle cx="101.30" cy="29.15" r="0.1" fill="#111111" />
<circle cx="107.70" cy="24.73" r="0.1" fill="#111111" />
<circle cx="104.38" cy="28.50" r="0.1" fill="#111111" />
<circle cx="112.91" cy="42.14" r="0.1" fill="#111111" />
<circle cx="116.54" cy="42.84" r="0.1" fill="#111111" />
<circle cx="71.27" cy="39.97" r="0.1" fill="#111111" />
<circle cx="79.22" cy="39.40" r="0.1" fill="#111111" />
<circle cx="89.64" cy="39.17" r="0.1" fill="#111111" />
<circle cx="94.23" cy="38.33" r="0.1" fill="#111111" />
<circle cx="95.04" cy="31.20" r="0.1" fill="#111111" />
<circle cx="100.76" cy="34.21" r="0.1" fill="#111111" />
<circle cx="107.36" cy="19.65" r="0.1" fill="#111111" />
<circle cx="80.45" cy="49.14" r="0.1" fill="#111111" />
<circle cx="82.35" cy="55.61" r="0.1" fill="#111111" />
<circle cx="87.10" cy="53.05" r="0.1" fill="#111111" />
<circle cx="91.39" cy="64.02" r="0.1" fill="#111111" />
<circle cx="45.56" cy="60.41" r="0.1" fill="#111111" />
<circle cx="55.77" cy="65.77" r="0.1" fill="#111111" />
<circle cx="58.84" cy="68.26" r="0.1" fill="#111111" />
<circle cx="65.37" cy="70.61" r="0.1" fill="#111111" />
<circle cx="61.13" cy="88.54" r="0.1" fill="#111111" />
</g>
<g>
<text x="20.20" y="72.00" font-size=".2mm" fill="#000000">11</text>
<text x="22.24" y="64.68" font-size=".2mm" fill="#000000">11.1</text>
<text x="37.20" y="53.71" font-size=".2mm" fill="#000000">11.2</text>
<text x="55.06" y="49.23" font-size=".2mm" fill="#000000">11.3</text>
<text x="72.03" y="42.73" font-size=".2mm" fill="#000000">11.4</text>
<text x="89.66" y="37.86" font-size=".2mm" fill="#000000">11.5</text>
<text x="101.50" y="29.15" font-size=".2mm" fill="#000000">11.6</text>
<text x="107.90" y="24.73" font-size=".2mm" fill="#000000">11.5.2</text>
<text x="104.58" y="28.50" font-size=".2mm" fill="#000000">11.5.1.1</text>
<text x="113.11" y="42.14" font-size=".2mm" fill="#000000">11.5.1.2</text>
<text x="116.74" y="42.84" font-size=".2mm" fill="#000000">11.5.1.3</text>
<text x="71.47" y="39.97" font-size=".2mm" fill="#000000">11.3.1</text>
<text x="79.42" y="39.40" font-size=".2mm" fill="#000000">11.3.2</text>
<text x="89.84" y="39.17" font-size=".2mm" fill="#000000">11.3.3</text>
<text x="94.43" y="38.33" font-size=".2mm" fill="#000000">11.3.4</text>
<text x="95.24" y="31.20" font-size=".2mm" fill="#000000">11.3.5</text>
<text x="100.96" y="34.21" font-size=".2mm" fill="#000000">11.3.6</text>
<text x="107.56" y="19.65" font-size=".2mm" fill="#000000">11.3.7</text>
<text x="80.65" y="49.14" font-size=".2mm" fill="#000000">11.3.2.1</text>
<text x="82.55" y="55.61" font-size=".2mm" fill="#000000">11.3.2.2</text>
<text x="87.30" y="53.05" font-size=".2mm" fill="#000000">11.3.2.3</text>
<text x="91.59" y="64.02" font-size=".2mm" fill="#000000">11.3.2.4</text>
<text x="45.76" y="60.41" font-size=".2mm" fill="#000000">11.2.1</text>
<text x="55.97" y="65.77" font-size=".2mm" fill="#000000">11.2.2</text>
<text x="59.04" y="68.26" font-size=".2mm" fill="#000000">11.2.3</text>
<text x="65.57" y="70.61" font-size=".2mm" fill="#000000">11.2.4</text>
<text x="61.33" y="88.54" font-size=".2mm" fill="#000000">11.2.3.1</text>
</g>
<g>
</g>
</g>
</svg>