<?xml version="1.0" encoding="utf-8"?>
<!DOCTYPE svg PUBLIC "-//W3C//DTD SVG 1.1//EN" "http://www.w3.org/Graphics/SVG/1.1/DTD/svg11.dtd">
<svg version="1.1" id="Layer_1" xmlns="http://www.w3.org/2000/svg" xmlns:xlink="http://www.w3.org/1999/xlink" x="0px" y="0px" width="662mm" height="732mm" viewBox="0 0 662 732" enable-background="new 0 0 662 732" xml:space="preserve">
<symbol id="airflow" viewBox="-12 -12 24 24">
<path d="M-4.38,10.73l4.2-3.84V3.55L-4.07,7.13l-.31-.29L-.18,3V-6.89a3.37,3.37,0,0,0-1.68.53l1.68-4.15L0-11l.21.51h0v0l1.65,4.1A3.26,3.26,0,0,0,.24-6.89v14l-.08,0L-4.07,11Z"/>
<rect fill="none" x="-12" y="-12" width="24" height="24"/>
</symbol>
<symbol id="anastomosis" viewBox="-12 -12 24 24">
<path d="M2.23-4.78l.37.24L5.22-2.78l-.47.57L2.49-3.7l-4.61,8-.24.44-.37-.34L-5.22,2.3l.55-.52,2.1,1.82L2-4.39Z"/>
<rect fill="none" x="-12" y="-12" width="24" height="24"/>
</symbol>
<symbol id="bivouac" viewBox="-12 -12 24 24">
<path d="M.25-7.66l.24.58L.54-7l3.88.48-3.31.91L6,6H8.35v.48l-16.7.07V6.05h2.64L0-7.08Zm0,1.32L-5.13,6H-4l2.07-5L.2-4l2.09,5L4.37,6H5.44Z"/>
<rect fill="none" x="-12" y="-12" width="24" height="24"/>
</symbol>
<symbol id="bones" viewBox="-12 -12 24 24">
<path d="M2.44,4.27l-.16,0H2.13a.22.22,0,0,1-.11,0l-.1-.06a.39.39,0,0,1-.09-.11l-.08-.13a1.51,1.51,0,0,1-.06-.15l-.07-.17s0-.11-.08-.19-.06-.16-.08-.21a4.75,4.75,0,0,0-.38-.71c-.18-.29-.43-.64-.74-1A11.15,11.15,0,0,0-.7.32,6.73,6.73,0,0,0-2-.64a4.12,4.12,0,0,0-1.44-.52A1.64,1.64,0,0,1-5-2.19.72.72,0,0,1-5-2.44a1,1,0,0,1,0-.29A.52.52,0,0,1-4.87-3a.54.54,0,0,1,.35-.15L-4-3.22l.46,0a.54.54,0,0,0,.27-.06A.52.52,0,0,0-3-3.56a.74.74,0,0,0,.13-.31.54.54,0,0,1,.15-.26.54.54,0,0,1,.3-.15.83.83,0,0,1,.47,0,1.11,1.11,0,0,1,.35.4A7.46,7.46,0,0,1-1-2.76q.18.42.33.72a3.22,3.22,0,0,0,.39.57L.1-1a4.77,4.77,0,0,0,.58.43c.28.18.51.33.69.43l1,.56a1.84,1.84,0,0,0,.39.23A5.29,5.29,0,0,1,3.22.9l.43.26a3.7,3.7,0,0,1,.46.3l.36.29a2.28,2.28,0,0,1,.31.32A1,1,0,0,1,5,2.4c.2.48,0,.78-.47.91h0a8.48,8.48,0,0,0-1.12.09,1,1,0,0,0-.42.44A1,1,0,0,1,2.44,4.27Z"/>
<rect fill="none" x="-12" y="-12" width="24" height="24"/>
</symbol>
<symbol id="calcite" viewBox="-12 -12 24 24">
<path d="M2.36-2.22l.05.46.34,3.91L2,2.22,1.65-1.26-2.52-.06l-.23-.7L1.89-2.08Z"/>
<rect fill="none" x="-12" y="-12" width="24" height="24"/>
</symbol>
<symbol id="cauliflower" viewBox="-12 -12 24 24">
<path d="M5.58,3.22v-3A2.12,2.12,0,0,0,6.92-.43a1.78,1.78,0,0,0,.55-1.32,1.92,1.92,0,0,0-.65-1.42,2.19,2.19,0,0,0-1.53-.59,2.21,2.21,0,0,0-1.54.59,1.78,1.78,0,0,0-.64,1.42A1.86,1.86,0,0,0,3.65-.43,2.12,2.12,0,0,0,5,.23v3H.26v-3A2.17,2.17,0,0,0,1.61-.43a1.81,1.81,0,0,0,.54-1.32,1.91,1.91,0,0,0-.64-1.42A2.21,2.21,0,0,0,0-3.76a2.21,2.21,0,0,0-1.54.59,1.82,1.82,0,0,0-.64,1.42A1.83,1.83,0,0,0-1.66-.43,2.12,2.12,0,0,0-.32.23v3H-5v-3A2.12,2.12,0,0,0-3.71-.43a1.78,1.78,0,0,0,.55-1.32,1.92,1.92,0,0,0-.65-1.42,2.19,2.19,0,0,0-1.53-.59,2.21,2.21,0,0,0-1.54.59,1.83,1.83,0,0,0-.65,1.42A1.87,1.87,0,0,0-7-.43,2.12,2.12,0,0,0-5.64.23v3H-8v.54H8V3.22Z"/>
<rect fill="none" x="-12" y="-12" width="24" height="24"/>
</symbol>
<symbol id="clay" viewBox="-12 -12 24 24">
<path d="M1.85-1.33a3,3,0,0,1,1.67.48,3.23,3.23,0,0,1,1,1l.29.51-1,.43a3.81,3.81,0,0,0-.23-.4A3.74,3.74,0,0,0,2.93,0,1.77,1.77,0,0,0,1.85-.32a2.57,2.57,0,0,0-1.1.15A.86.86,0,0,0,.51.14,2.23,2.23,0,0,1,0,.88a2.55,2.55,0,0,1-1.45.43,3.16,3.16,0,0,1-2.75-1,4.28,4.28,0,0,1-.37-.57,3.91,3.91,0,0,1-.21-.47l0-.16,1-.22a1.87,1.87,0,0,0,.45.79A2.12,2.12,0,0,0-1.51.33,1.82,1.82,0,0,0-.69.14l.21-.36A1.53,1.53,0,0,1,.17-1,3.76,3.76,0,0,1,1.85-1.33Z"/>
<rect fill="none" x="-12" y="-12" width="24" height="24"/>
</symbol>
<symbol id="crystals" viewBox="-12 -12 24 24">
<path d="M-2.94-5.38,0-.72,2.94-5.38,3.62-5,.68-.36H6.56V.36H.68L3.62,5l-.68.36L0,.72-2.94,5.38-3.62,5-.68.36H-6.56V-.36H-.68L-3.62-5Z"/>
<rect fill="none" x="-12" y="-12" width="24" height="24"/>
</symbol>
<symbol id="curtain" viewBox="-12 -12 24 24">
<path d="M3.57-6.69l.52.53L.39-3V-.33L.1-.26a3.79,3.79,0,0,0-1,.41c-.58.3-.87.65-.87,1v.07A1.61,1.61,0,0,0-.84,2.48a3.69,3.69,0,0,0,.45.24L0,2.86l.13.05L.39,3V6.12H-.39V3.51a7.65,7.65,0,0,1-.9-.46A2.19,2.19,0,0,1-2.54,1.28V1.23A2,2,0,0,1-1.31-.48,5.32,5.32,0,0,1-.39-.86V-3l-3.7-3.14.52-.53L0-3.67Z"/>
<rect fill="none" x="-12" y="-12" width="24" height="24"/>
</symbol>
<symbol id="disk" viewBox="-12 -12 24 24">
<path d="M-.09-4.19a2.43,2.43,0,0,1,1.7.64A2,2,0,0,1,2.35-2,2.09,2.09,0,0,1,1.81-.55,2.44,2.44,0,0,1,.35.23l2.18,3.6-.68.33L0,1.14-1.48,4.19l-.71-.29L-.41.25A2.53,2.53,0,0,1-1.9-.47a2,2,0,0,1-.63-1.41,2,2,0,0,1,.67-1.61,2.46,2.46,0,0,1,1.72-.7ZM1.05-3.06.56-3.49l-.69,0A1.72,1.72,0,0,0-1.29-3a1.51,1.51,0,0,0-.45,1.08,1.36,1.36,0,0,0,.51,1A1.68,1.68,0,0,0-.07-.44v0l0,0A1.7,1.7,0,0,0,1.11-.92,1.36,1.36,0,0,0,1.56-2,1.47,1.47,0,0,0,1.05-3.06Z"/>
<rect fill="none" x="-12" y="-12" width="24" height="24"/>
</symbol>
<symbol id="entrance" viewBox="-12 -12 24 24">
<path d="M4.46,9H-4.46L0-9Z"/>
<rect fill="none" x="-12" y="-12" width="24" height="24"/>
</symbol>
<symbol id="flowstone" viewBox="-12 -12 24 24">
<rect x="-6" y="-0.21" width="12" height="0.42"/>
<rect fill="none" x="-12" y="-12" width="24" height="24"/>
</symbol>
<symbol id="flutes" viewBox="-12 -12 24 24">
<path d="M-7-1H7v.72H3.87A4.7,4.7,0,0,1,2.16,1.5,4.2,4.2,0,0,1,0,2.13,3.94,3.94,0,0,1-2.19,1.5,4.18,4.18,0,0,1-3.76-.27H-7Zm4.17.72A3.15,3.15,0,0,0-1.65,1,3.21,3.21,0,0,0,0,1.41,3.49,3.49,0,0,0,1.6,1,3.68,3.68,0,0,0,3-.27Z"/>
<rect fill="none" x="-12" y="-12" width="24" height="24"/>
</symbol>
<symbol id="gradient" viewBox="-12 -12 24 24">
<path d="M2.58-3.83,0-10-2.58-3.83A4.74,4.74,0,0,1-.17-4.5V10H.25V-4.5A6.65,6.65,0,0,1,2.58-3.83Z"/>
<rect fill="none" x="-12" y="-12" width="24" height="24"/>
</symbol>
<symbol id="guano" viewBox="-12 -12 24 24">
<path d="M-3.24-3a2.15,2.15,0,0,1,1.57.55A3.93,3.93,0,0,1-.59.24a4.32,4.32,0,0,1,2.75-2.3,2.68,2.68,0,0,1,2.23.36A2.36,2.36,0,0,1,5.5.19l-.79,0a1.72,1.72,0,0,0-.79-1.37,1.94,1.94,0,0,0-1.55-.24A3.53,3.53,0,0,0,.48,0,6.63,6.63,0,0,0-.69,3l-.79-.09a10.72,10.72,0,0,0,0-3.16A3.21,3.21,0,0,0-2.22-2,1.44,1.44,0,0,0-3.37-2.3,3.45,3.45,0,0,0-5-1.54l-.5-.55a4.29,4.29,0,0,1,2-.91A.9.9,0,0,1-3.24-3Z"/>
<rect fill="none" x="-12" y="-12" width="24" height="24"/>
</symbol>
<symbol id="helictites" viewBox="-12 -12 24 24">
<path d="M-4.59-7.92h.79v7.7l3.41,0V-7.92H.39V-.17L4.2-.12h.39v8H3.8V.6L.39.55V7.92H-.39V.55L-4.2.5l-.39,0v-8.4Z"/>
<rect fill="none" x="-12" y="-12" width="24" height="24"/>
</symbol>
<symbol id="human" viewBox="-12 -12 24 24">
<path d="M-3.59-3.29A5.13,5.13,0,0,1,0-4.66,5.13,5.13,0,0,1,3.59-3.29,4.3,4.3,0,0,1,5.09,0a4.3,4.3,0,0,1-1.5,3.29A5.13,5.13,0,0,1,0,4.66,5.13,5.13,0,0,1-3.59,3.29,4.3,4.3,0,0,1-5.09,0,4.3,4.3,0,0,1-3.59-3.29Zm.28.77A3.68,3.68,0,0,0-4.3,0a3.62,3.62,0,0,0,1,2.57L-.5.05ZM0-3.94A4.42,4.42,0,0,0-2.75-3L.16-.36H4.28A3.62,3.62,0,0,0,2.91-2.9,4.38,4.38,0,0,0,0-3.94ZM.16.46-2.7,3.07A4.42,4.42,0,0,0,0,3.94a4.37,4.37,0,0,0,2.87-1A3.78,3.78,0,0,0,4.28.46Z"/>
<rect fill="none" x="-12" y="-12" width="24" height="24"/>
</symbol>
<symbol id="karren" viewBox="-12 -12 24 24">
<path d="M1-5.84h0a1.37,1.37,0,0,1,1.06.68A3.33,3.33,0,0,1,2.5-3.79,25.79,25.79,0,0,1,2.36,0a18.61,18.61,0,0,0-.08,3.72,2.68,2.68,0,0,0,.41,1.2,1.13,1.13,0,0,0,.79.5A.92.92,0,0,0,4,4.94a4.43,4.43,0,0,0,.47-1.22c.16-.64.36-1.86.59-3.66a26.71,26.71,0,0,1,.64-3.69,4.62,4.62,0,0,1,.57-1.29,1.34,1.34,0,0,1,1-.59h0A1.28,1.28,0,0,1,8.37-5a2.17,2.17,0,0,1,.39,1.15A19.91,19.91,0,0,1,8.54-.53a21.51,21.51,0,0,0-.2,3.64A2.64,2.64,0,0,0,9.45,5.36,1.91,1.91,0,0,0,10.88,5a3.84,3.84,0,0,0,.7-1l.42.2-.1.18-.12.21-.11.18L11.52,5a.94.94,0,0,1-.14.16c-.06.07-.13.12-.19.18a2.5,2.5,0,0,1-1.85.41H9.29l0,0A3.06,3.06,0,0,1,7.87,3.13a22.11,22.11,0,0,1,.2-3.7,18.17,18.17,0,0,0,.22-3.28A1.85,1.85,0,0,0,8-4.79a.77.77,0,0,0-.67-.3.93.93,0,0,0-.64.42,4.51,4.51,0,0,0-.51,1.15A26.26,26.26,0,0,0,5.54.1c-.24,1.83-.45,3.07-.61,3.72a5.38,5.38,0,0,1-.51,1.34,1.33,1.33,0,0,1-.89.68H3.47A1.58,1.58,0,0,1,2.3,5.16a3.29,3.29,0,0,1-.49-1.4A20.27,20.27,0,0,1,1.89,0,23.45,23.45,0,0,0,2-3.75a2.94,2.94,0,0,0-.32-1.19A.93.93,0,0,0,1-5.42,1.1,1.1,0,0,0,.19-5,3.69,3.69,0,0,0-.43-3.76,20.78,20.78,0,0,0-1.07.07c-.2,2-.37,3.32-.49,3.86A4.48,4.48,0,0,1-2,5.26,1.06,1.06,0,0,1-3,5.81h0a1.9,1.9,0,0,1-1.29-.67,2.7,2.7,0,0,1-.58-1.31,14.92,14.92,0,0,1,0-3.6q0-.12.06-.54c0-.28,0-.47,0-.57s0-.28,0-.52,0-.42,0-.55,0-.28,0-.47,0-.36,0-.51,0-.29,0-.43A3.09,3.09,0,0,0-5-4.62a1.19,1.19,0,0,0-.67-.6,1.5,1.5,0,0,0-1.2.9A7,7,0,0,0-7.41-2.1c0,.39-.1,1-.14,1.76s-.11,1.47-.18,2.08A9.61,9.61,0,0,1-8,3.32h0l0,0A2.81,2.81,0,0,1-9.2,4.62a1.82,1.82,0,0,1-1.35.15A1.94,1.94,0,0,1-11.61,4,2.39,2.39,0,0,1-12,2.56l.47,0a1.92,1.92,0,0,0,.31,1.16,1.47,1.47,0,0,0,.81.62,1.3,1.3,0,0,0,1-.11A2.32,2.32,0,0,0-8.5,3.18a7.53,7.53,0,0,0,.29-1.5Q-8.1.8-8-.36c0-.78.1-1.37.16-1.78A7.23,7.23,0,0,1-7.28-4.5,1.93,1.93,0,0,1-5.65-5.66h.05l0,0a1.59,1.59,0,0,1,1,.84,3.47,3.47,0,0,1,.34,1.41,4.91,4.91,0,0,1,0,.57v.54c0,.15,0,.37,0,.66s0,.47,0,.58,0,.33-.06.68,0,.56-.06.63a14.78,14.78,0,0,0,0,3.49,2.58,2.58,0,0,0,.5,1.13,1.57,1.57,0,0,0,1,.5A.61.61,0,0,0-2.44,5,3.89,3.89,0,0,0-2,3.85C-1.9,3.31-1.74,2-1.53,0A20.65,20.65,0,0,1-.86-3.89,3.89,3.89,0,0,1-.18-5.26,1.58,1.58,0,0,1,1-5.84Z"/>
<rect fill="none" x="-12" y="-12" width="24" height="24"/>
</symbol>
<symbol id="moonmilk" viewBox="-12 -12 24 24">
<path d="M-4.78-3.06a3.39,3.39,0,0,1,1.5.34,2.48,2.48,0,0,1,1.1,1,3.74,3.74,0,0,1,1.62-.8,3.52,3.52,0,0,1,1.71,0,2.9,2.9,0,0,1,1.39.77A2.49,2.49,0,0,1,3.25-.37,4,4,0,0,1,5-.76a3.58,3.58,0,0,1,1.6.36A2.84,2.84,0,0,1,7.88.92a2.32,2.32,0,0,1,0,1.88.34.34,0,0,1-.37.26A.36.36,0,0,1,7.25,3a.32.32,0,0,1-.12-.25.21.21,0,0,1,0-.12,2,2,0,0,0,0-1.43,2,2,0,0,0-1-.9A2.81,2.81,0,0,0,4.68,0,2.78,2.78,0,0,0,3.12.56L2.46.25A1.7,1.7,0,0,0,2.15-1.1,2.15,2.15,0,0,0,1-1.81a2.85,2.85,0,0,0-1.58.06A3,3,0,0,0-2-.83l-.71-.12A1.74,1.74,0,0,0-3.55-2a2.36,2.36,0,0,0-1.39-.27,3.08,3.08,0,0,0-1.45.53A2.33,2.33,0,0,0-7.32-.56a.35.35,0,0,1-.37.24A.39.39,0,0,1-8-.42a.33.33,0,0,1-.1-.26v-.1A3,3,0,0,1-6.89-2.35,4,4,0,0,1-5-3Z"/>
<rect fill="none" x="-12" y="-12" width="24" height="24"/>
</symbol>
<symbol id="narrow" viewBox="-12 -12 24 24">
<path d="M-1.5,5V-5h0.64V5H-1.5z"/>
<path d="M0.86,5V-5H1.5V5H0.86z"/>
<rect fill="none" x="-12" y="-12" width="24" height="24"/>
</symbol>
<symbol id="paleoflow" viewBox="-12 -12 24 24">
<path d="M.38-12V.17A1.9,1.9,0,0,0,1,0,1.57,1.57,0,0,0,1.7-.72a1.86,1.86,0,0,0,.23-1c0-.09,0-.14.08-.16a.92.92,0,0,1,.24,0,.52.52,0,0,0,.25,0h.08A2.48,2.48,0,0,1,2,0,2.5,2.5,0,0,1,.38.77V7.21H2.09L0,12-1.8,7.23c.07,0,.59,0,1.53,0V.77A3,3,0,0,1-1.35.43a2.16,2.16,0,0,1-1-1,2.38,2.38,0,0,1-.24-1.33l.67,0a2,2,0,0,0,.15,1,1.73,1.73,0,0,0,.59.67A2.14,2.14,0,0,0-.27.16V-12Z"/>
<rect fill="none" x="-12" y="-12" width="24" height="24"/>
</symbol>
<symbol id="rain" viewBox="-12 -12 24 24">
<path d="M-4.14-6.34h0.71v4.69h-0.71V-6.34z"/>
<path d="M-0.35-6.34h0.71v4.69h-0.71V-6.34z"/>
<path d="M3.43-6.34h0.71v4.69H3.43V-6.34z"/>
<path d="M-4.14,1.65h0.71v4.69h-0.71V1.65z"/>
<path d="M-0.35,1.65h0.71v4.69h-0.71V1.65z"/>
<path d="M3.43,1.65h0.71v4.69H3.43V1.65z"/>
<rect fill="none" x="-12" y="-12" width="24" height="24"/>
</symbol>
<symbol id="rats" viewBox="-12 -12 24 24">
<path d="M8.78-2.32,7-2.27c-.51-.17-.65-.56-1.46-.45l-.25.45C3.59-2.75,2.59-3.66.56-3.62l-1.35.3A4.89,4.89,0,0,0-4.24,1.57c-.68.6-2.58.86-3.39.94a6.84,6.84,0,0,0-1.62.39,4.91,4.91,0,0,0-1,.52A1.75,1.75,0,0,0-11,4.61a1.16,1.16,0,0,0,.59,1.48,1.3,1.3,0,0,1,.14.12c.16-.52-.35-.92-.2-1.42a3.35,3.35,0,0,1,.27-.45,3.18,3.18,0,0,1,1.79-1c.63-.12,1.27-.22,1.91-.3.48-.07,1,0,1.4-.12A6.94,6.94,0,0,1-4,2.82,30.64,30.64,0,0,0,.41,2.69l2.16.15c.1-.09,0,0,.1-.15a.87.87,0,0,0-.9-.55c.86-1,2.27-.37,3.1-.05.5.19,1,0,1.25.4.11-.1.1-.07.15-.25.3,0,.31.07.6.15-.06-.49-.34-.64-1-.6a.78.78,0,0,1,0-.55C6.3.56,7.29.73,8.13.43a13.78,13.78,0,0,0,2.15-.9l.6-.85v-.2A16.9,16.9,0,0,0,8.78-2.32Z"/>
<rect fill="none" x="-12" y="-12" width="24" height="24"/>
</symbol>
<symbol id="sand" viewBox="-12 -12 24 24">
<path d="M-1.58,0.83c0.23,0.2,0.35,0.44,0.36,0.73c0.01,0.29-0.08,0.54-0.28,0.75c-0.2,0.21-0.46,0.32-0.78,0.33c-0.32,0.01-0.6-0.08-0.83-0.26C-3.36,2.19-3.49,1.95-3.5,1.67C-3.51,1.38-3.41,1.12-3.2,0.9c0.21-0.22,0.48-0.34,0.8-0.35C-2.08,0.54-1.81,0.64-1.58,0.83z"/>
<path d="M0.08-2.36c0.23,0.2,0.35,0.44,0.36,0.73c0.01,0.29-0.08,0.54-0.28,0.75c-0.2,0.21-0.46,0.32-0.78,0.33c-0.32,0.01-0.59-0.07-0.83-0.26s-0.37-0.42-0.38-0.71c-0.01-0.29,0.09-0.54,0.3-0.76c0.21-0.22,0.48-0.33,0.8-0.35C-0.42-2.65-0.14-2.56,0.08-2.36z"/>
<path d="M3.12,0.55c0.23,0.2,0.35,0.43,0.38,0.71c0.02,0.28-0.07,0.53-0.28,0.75C3,2.23,2.73,2.35,2.42,2.36C2.1,2.37,1.82,2.28,1.58,2.08C1.34,1.88,1.22,1.64,1.2,1.35c-0.01-0.29,0.09-0.54,0.3-0.75C1.72,0.4,1.99,0.29,2.3,0.28S2.89,0.36,3.12,0.55z"/>
<rect fill="none" x="-12" y="-12" width="24" height="24"/>
</symbol>
<symbol  id="scallops" viewBox="-12 -12 24 24">
<path d="M.05-3.74l.21,0A2.35,2.35,0,0,1,1.74-3a2,2,0,0,1,.59,1.55v0l0,0A9.59,9.59,0,0,1-.08,3.27l-.39.47-.27-.55A14.26,14.26,0,0,1-2.33-1.89v-.05l0-.05A2,2,0,0,1-1.44-3.3,2.42,2.42,0,0,1,.05-3.74ZM-.11-3A1.44,1.44,0,0,0-1.55-1.89,13.06,13.06,0,0,0-.29,2.33,8.6,8.6,0,0,0,1.55-1.54a1.41,1.41,0,0,0-.38-1A1.62,1.62,0,0,0,.18-3Z"/>
<rect fill="none" x="-12" y="-12" width="24" height="24"/>
</symbol>
<symbol  id="sink" viewBox="-12 -12 24 24">
<path d="M.72,9.41H.9c1.94,0,3.26-.54,3.94-1.51a3.61,3.61,0,0,0,.33-.69,2,2,0,0,0,.11-.54V6.46l.69,0a2.8,2.8,0,0,1-.58,1.78C4.58,9.39,3.1,10,.93,10H-.93q-3.25,0-4.46-1.8a2.74,2.74,0,0,1-.43-.83A2.37,2.37,0,0,1-6,6.67V6.43l.68,0A2.27,2.27,0,0,0-4.84,7.9c.68,1,2,1.47,3.93,1.48l.5,0ZM-1.46-10a.68.68,0,0,0,.16.41A2.77,2.77,0,0,0-.51-9l0,0a3.63,3.63,0,0,1,1,.7,1.15,1.15,0,0,1,.34.88c0,.58-.53,1.14-1.49,1.68-.68.42-1,.79-1,1.11s.3.61.84,1h0Q.61-2.86.46-1.78a3.51,3.51,0,0,1-1.55,2,.61.61,0,0,0-.26.41,1.67,1.67,0,0,0,.1.51,5.3,5.3,0,0,1,.32,1L.56,1.9.46,8.06-3.4,2.54l1.73-.28A6.16,6.16,0,0,0-2,1.39,1.7,1.7,0,0,1-2.09.58a1.21,1.21,0,0,1,.53-.82h0v0C-.75-.86-.33-1.38-.28-1.85s-.23-.87-.91-1.27h0C-2-3.6-2.37-4.1-2.4-4.61S-2-5.74-1.09-6.29C-.34-6.72.06-7.1.09-7.44a.67.67,0,0,0-.18-.43,3.17,3.17,0,0,0-.79-.58,2.93,2.93,0,0,1-1-.67A1.16,1.16,0,0,1-2.17-10Z"/>
<rect fill="none" x="-12" y="-12" width="24" height="24"/>
</symbol>
<symbol  id="spring" viewBox="-12 -12 24 24">
<path d="M-1.34-9.86,2.52-4.34.78-4.06a8,8,0,0,0,.29.87,1.4,1.4,0,0,1,.13.79,1.3,1.3,0,0,1-.52.84l0,0v0C-.13-.95-.55-.42-.61,0S-.37.91.31,1.3l0,0c.75.46,1.14,1,1.18,1.46S1.12,3.92.21,4.46C-.54,4.9-.94,5.29-1,5.64a.74.74,0,0,0,.18.43A3.2,3.2,0,0,0,0,6.62a3,3,0,0,1,1,.7,1.14,1.14,0,0,1,.31.86A1.74,1.74,0,0,1,.71,9.26H.92c1.92,0,3.22-.52,3.9-1.51a2.05,2.05,0,0,0,.35-.67,2.59,2.59,0,0,0,.1-.55l0-.19.65,0a2.84,2.84,0,0,1-.55,1.8C4.58,9.26,3.08,9.85.92,9.86H-.92c-2.17,0-3.66-.6-4.49-1.77a3.65,3.65,0,0,1-.4-.85A2.43,2.43,0,0,1-6,6.53V6.29l.66,0a2.08,2.08,0,0,0,.47,1.41c.68,1,2,1.5,3.91,1.51H-.4c.62-.43.94-.8,1-1.1a.76.76,0,0,0-.16-.43,3.25,3.25,0,0,0-.79-.51v0a3.8,3.8,0,0,1-1-.7,1.15,1.15,0,0,1-.34-.91q.06-.84,1.5-1.68c.68-.4,1-.77,1-1.1S.49,2.21,0,1.87c0,0,0,0,0,0C-1,1.32-1.44.69-1.34,0a3.58,3.58,0,0,1,1.55-2,.54.54,0,0,0,.23-.38A1.28,1.28,0,0,0,.37-3a4.57,4.57,0,0,1-.32-1l-1.49.24Z"/>
<rect fill="none" x="-12" y="-12" width="24" height="24"/>
</symbol>
<symbol  id="stalactite" viewBox="-12 -12 24 24">
<path d="M3.57-6.69l.52.53L.39-3V6.12H-.39V-3l-3.7-3.14.52-.53L0-3.67Z"/>
<rect fill="none" x="-12" y="-12" width="24" height="24"/>
</symbol>
<symbol  id="stalagmite" viewBox="-12 -12 24 24">
<path d="M.38-6.42V2.75L4.11,5.89l-.56.53L0,3.4l-3.57,3-.53-.53,3.7-3.14V-6.42Z"/>
<rect fill="none" x="-12" y="-12" width="24" height="24"/>
</symbol>
<symbol  id="stalagnate" viewBox="-12 -12 24 24">
<path d="M3.55-8.46l.56.53L.38-4.78v9L4.11,7.36l-.56.53L0,4.86l-3.57,3-.53-.53,3.7-3.14v-9l-3.7-3.15.53-.53L0-5.43Z"/>
<rect fill="none" x="-12" y="-12" width="24" height="24"/>
</symbol>
<symbol  id="straws" viewBox="-12 -12 24 24">
<path d="M-10.89-2.76H10.89V-2H9.63V.46H8.84V-2H8.29v5.6H7.5V-2H5.56V.7H4.77V-2H2.07V2.38H1.29V-2H-.1v3H-.89V-2H-3.2V4.11H-4V-2H-6.22L-6.16.75l-.79,0L-7-2H-8.32V2.33H-9.1V-2h-1.79Z"/>
<rect fill="none" x="-12" y="-12" width="24" height="24"/>
</symbol>
<symbol  id="water" viewBox="-12 -12 24 24">
<path d="M-1.72-9.86,2.11-4.32.38-4.06a6.49,6.49,0,0,0,.29.89,1.5,1.5,0,0,1,.13.79,1.2,1.2,0,0,1-.5.82h0l0,0C-.54-.94-1-.42-1,.05s.24.89.92,1.27h0c.77.48,1.17,1,1.19,1.49S.71,3.94-.2,4.49c-.75.43-1.13.81-1.15,1.15a.51.51,0,0,0,.18.43,2.66,2.66,0,0,0,.76.58,2.93,2.93,0,0,1,1,.67,1.16,1.16,0,0,1,.29.89C.84,8.75.42,9.3-.41,9.86l-.44-.55c.66-.45,1-.83,1-1.15A.47.47,0,0,0,0,7.75a2.84,2.84,0,0,0-.78-.53h0a3.87,3.87,0,0,1-1-.69,1.24,1.24,0,0,1-.34-.91c0-.58.54-1.14,1.52-1.68.66-.42,1-.79,1-1.11s-.3-.61-.84-1h0Q-1.9,1.06-1.74,0a3.44,3.44,0,0,1,1.54-2,.67.67,0,0,0,.27-.41A1.11,1.11,0,0,0,0-3a4.33,4.33,0,0,1-.31-1l-1.5.24Z"/>
<rect fill="none" x="-12" y="-12" width="24" height="24"/>
</symbol><symbol  id="tree" viewBox="-12 -12 24 24">
<path d="M7.4-5.04A4.271,4.271,0,0,0,7.7-6.627a4.3,4.3,0,0,0-4.3-4.3A4.279,4.279,0,0,0,.636-9.914,4.293,4.293,0,0,0-3.045-12a4.3,4.3,0,0,0-4.3,4.3,4.27,4.27,0,0,0,.421,1.845,4.3,4.3,0,0,0-3.645,4.244,4.3,4.3,0,0,0,4.3,4.3A4.282,4.282,0,0,0-3.946,2L-1.175,5.23h0L-1.612,12H.982L.757,6.376,4.119,2.827v0a4.272,4.272,0,0,0,2.15.58,4.3,4.3,0,0,0,4.3-4.3A4.3,4.3,0,0,0,7.4-5.04ZM-3.346,1.538h0A4.346,4.346,0,0,0-2.7.788a4.266,4.266,0,0,0,1.765.753l-.135,2.087ZM.69,4.7.563,1.544A4.258,4.258,0,0,0,2.321.805,4.3,4.3,0,0,0,3.378,2.279Z"/>
<rect fill="none" x="-12" y="-12" width="24" height="24"/>
</symbol><g>
<desc></desc>
<g>
<line fill="none" stroke="#dddddd" stroke-width="0.1mm" x1="0.00" y1="127.00" x2="662.00" y2="127.00" />
<text x="659.20" y="126.80" font-size=".2mm" fill="#000000">0m</text>
<line fill="none" stroke="#dddddd" stroke-width="0.1mm" x1="0.00" y1="77.00" x2="662.00" y2="77.00" />
<text x="659.20" y="76.80" font-size=".2mm" fill="#000000">5m</text>
<line fill="none" stroke="#dddddd" stroke-width="0.1mm" x1="0.00" y1="27.00" x2="662.00" y2="27.00" />
<text x="659.20" y="26.80" font-size=".2mm" fill="#000000">10m</text>
<line fill="none" stroke="#dddddd" stroke-width="0.1mm" x1="0.00" y1="177.00" x2="662.00" y2="177.00" />
<text x="659.20" y="176.80" font-size=".2mm" fill="#000000">-5m</text>
<line fill="none" stroke="#dddddd" stroke-width="0.1mm" x1="0.00" y1="227.00" x2="662.00" y2="227.00" />
<text x="659.20" y="226.80" font-size=".2mm" fill="#000000">-10m</text>
<line fill="none" stroke="#dddddd" stroke-width="0.1mm" x1="0.00" y1="277.00" x2="662.00" y2="277.00" />
<text x="659.20" y="276.80" font-size=".2mm" fill="#000000">-15m</text>
<line fill="none" stroke="#dddddd" stroke-width="0.1mm" x1="0.00" y1="327.00" x2="662.00" y2="327.00" />
<text x="659.20" y="326.80" font-size=".2mm" fill="#000000">-20m</text>
<line fill="none" stroke="#dddddd" stroke-width="0.1mm" x1="0.00" y1="377.00" x2="662.00" y2="377.00" />
<text x="659.20" y="376.80" font-size=".2mm" fill="#000000">-25m</text>
<line fill="none" stroke="#dddddd" stroke-width="0.1mm" x1="0.00" y1="427.00" x2="662.00" y2="427.00" />
<text x="659.20" y="426.80" font-size=".2mm" fill="#000000">-30m</text>
<line fill="none" stroke="#dddddd" stroke-width="0.1mm" x1="0.00" y1="477.00" x2="662.00" y2="477.00" />
<text x="659.20" y="476.80" font-size=".2mm" fill="#000000">-35m</text>
<line fill="none" stroke="#dddddd" stroke-width="0.1mm" x1="0.00" y1="527.00" x2="662.00" y2="527.00" />
<text x="659.20" y="526.80" font-size=".2mm" fill="#000000">-40m</text>
<line fill="none" stroke="#dddddd" stroke-width="0.1mm" x1="0.00" y1="577.00" x2="662.00" y2="577.00" />
<text x="659.20" y="576.80" font-size=".2mm" fill="#000000">-45m</text>
<line fill="none" stroke="#dddddd" stroke-width="0.1mm" x1="0.00" y1="627.00" x2="662.00" y2="627.00" />
<text x="659.20" y="626.80" font-size=".2mm" fill="#000000">-50m</text>
<line fill="none" stroke="#dddddd" stroke-width="0.1mm" x1="0.00" y1="677.00" x2="662.00" y2="677.00" />
<text x="659.20" y="676.80" font-size=".2mm" fill="#000000">-55m</text>
<line fill="none" stroke="#dddddd" stroke-width="0.1mm" x1="0.00" y1="727.00" x2="662.00" y2="727.00" />
<text x="659.20" y="726.80" font-size=".2mm" fill="#000000">-60m</text>
</g>
<g>
<path fill="none" stroke="#000000" stroke-width="0.06mm" d="M65.200554,107.39569 C64.60965,107.820465 63.99051,108.2085 63.42782,108.67002 C63.13801,108.90772 61.295227,110.011246 61.55466,111.014786 C61.65772,111.41345 61.864166,111.71458 61.99072,112.12108 C62.070534,112.37744 62.114357,112.64417 62.156273,112.909386 C62.29081,113.76068 62.242092,114.496 63.09149,114.96623 C63.271866,115.06609 63.591022,115.131874 63.787888,115.07124 C64.78505,114.764145 65.777115,114.43752 66.75311,114.06867 C67.697586,113.71175 68.989334,113.33534 69.46811,112.30314 C69.67325,111.86089 69.51181,111.39776 69.30545,110.993614 C67.6859,107.82182 68.32828,108.83553 67.11789,107.068695 L67.11789,107.068695" /><path fill="none" stroke="#000000" stroke-width="0.06mm" d="M68.70821,113.965515 L68.487274,113.93779" /><path fill="none" stroke="#000000" stroke-width="0.06mm" d="M68.27718,114.069565 L68.10084,114.086426" /><path fill="none" stroke="#000000" stroke-width="0.06mm" d="M88.95161,117.8747 C85.40709,118.062454 82.311485,117.756165 79.0538,118.85622 C77.95442,119.22745 76.90299,119.7279 75.82758,120.16374 L75.82758,120.16374" /><path fill="none" stroke="#000000" stroke-width="0.06mm" d="M71.651085,120.490746 C71.44419,120.48999 66.12457,120.12155 64.277176,120.72632 C63.717037,120.90968 63.20829,121.22328 62.67385,121.47176 L62.67385,121.47176" /><path fill="none" stroke="#000000" stroke-width="0.06mm" d="M65.46809,121.9028 C62.77684,121.55314 61.444595,122.620995 58.75275,123.15048 C47.255577,125.41201 57.437977,122.586914 48.732372,125.18771 L48.732372,125.18771" /><path fill="none" stroke="#000000" stroke-width="0.06mm" d="M48.643196,124.96475 C44.444298,125.4953 46.632877,125.367455 42.07376,125.2769 L42.07376,125.2769" /><path fill="none" stroke="#000000" stroke-width="0.06mm" d="M42.415607,124.99449 C41.257023,125.245415 40.303417,125.345184 39.285877,126.08812 C37.29236,127.54364 35.429085,129.17021 33.53357,130.75125 C33.102882,131.11049 32.772697,131.58907 32.310284,131.90642 C29.24784,134.00812 29.45669,133.18176 25.60374,134.85823 C25.352211,134.96767 22.17246,137.1286 20.594833,137.13065 C20.263083,137.13107 19.932232,137.09608 19.60093,137.0788 L19.60093,137.0788" /><path fill="none" stroke="#000000" stroke-width="0.06mm" d="M66.40446,120.44615 C67.48436,120.24218 68.58208,120.116646 69.644165,119.83423 C71.7982,119.26146 72.27334,118.70295 74.03137,118.50865 C74.85683,118.41743 75.80812,118.73056 76.557816,118.83373 C77.2895,118.93443 77.97612,118.646355 78.681274,118.48413 L78.681274,118.48413" /><path fill="none" stroke="#000000" stroke-width="0.06mm" d="M87.3018,117.96389 L87.37813,117.87671" /><path fill="none" stroke="#000000" stroke-width="0.06mm" d="M112.343704,88.06559 C111.906525,87.8892 111.48007,87.683495 111.03218,87.53642 C110.78099,87.45393 110.51903,87.38351 110.25466,87.379585 C108.456436,87.352905 106.64341,87.21451 104.85981,87.44484 C101.39389,87.89242 97.954285,88.5712 94.560814,89.406235 C92.8095,89.83719 91.13034,90.53367 89.467636,91.23241 C86.44897,92.50097 83.43831,93.80333 80.52777,95.30348 C75.23743,98.03023 66.437805,104.53354 62.420288,107.005 C61.42739,107.61579 60.295204,107.974335 59.189785,108.344406 C54.24112,110.00112 49.202957,111.385025 44.26796,113.08203 C43.38076,113.387115 42.63344,114.023285 41.750755,114.3412 C39.48733,115.156425 37.09332,115.589745 34.855263,116.47223 C33.079556,117.1724 31.579859,118.518394 29.753132,119.07197 C25.610056,120.32749 25.150291,119.44472 20.99582,120.662 L20.99582,120.662" /><path fill="none" stroke="#000000" stroke-width="0.06mm" d="M113.443565,89.135796 C114.136475,89.23969 115.12195,89.283165 115.766266,89.696754 C117.310776,90.6882 118.81926,91.7376 120.2905,92.834816 C121.18349,93.500786 122.192345,95.26004 122.68593,95.90837 C123.3654,96.80087 124.506775,97.00623 125.53863,96.75412 C126.51018,96.51674 128.3652,95.41966 128.68951,95.169716 C133.10385,91.76745 137.38731,88.19711 141.65454,84.612076 C142.9519,83.5221 143.61163,81.392975 143.93161,79.88718 C144.40749,77.64777 144.73654,75.37898 145.07072,73.114105 C145.11154,72.83758 145.08002,72.55407 145.05469,72.2757 C144.95909,71.22517 144.26367,70.758545 143.30795,70.43818 C142.94568,70.31673 142.41025,70.19954 142.005,70.2221 C141.26917,70.26307 140.49382,70.55899 139.87933,70.91679 C133.9354,74.3778 127.909775,77.71605 122.1617,81.49341 C116.235954,86.501236 118.5764,84.95828 115.65816,86.81703 L115.65816,86.81703" /><path fill="none" stroke="#000000" stroke-width="0.06mm" d="M117.17418,85.31578 C116.70036,85.59744 116.22656,85.8791 115.75275,86.16076 C115.55439,86.34589 115.224075,86.45307 115.157684,86.716156 C115.037704,87.191505 115.21388,87.69505 115.24199,88.18451 L115.24199,88.18451" /><path fill="none" stroke="#000000" stroke-width="0.06mm" d="M142.69391,71.04649 C141.50748,72.7901 140.32104,74.533714 139.1346,76.27733 C137.92142,77.72284 136.55766,79.05433 135.49506,80.61388 C135.20206,81.04392 135.26071,81.627914 135.14352,82.13492 L135.14352,82.13492" /><path fill="none" stroke="#000000" stroke-width="0.06mm" d="M134.19229,81.30254 C131.47977,84.41193 132.96213,82.961075 129.73338,85.64279 L129.73338,85.64279" /><path fill="none" stroke="#000000" stroke-width="0.06mm" d="M115.07849,88.333145 C118.310455,87.70659 120.48125,86.92739 123.45643,86.99948 C126.5119,87.07352 124.244225,87.28874 126.41895,87.01027 L126.41895,87.01027" /><path fill="none" stroke="#000000" stroke-width="0.06mm" d="M128.27682,86.60894 L131.91824,92.569336" /><path fill="none" stroke="#000000" stroke-width="0.06mm" d="M142.06967,69.63443 C145.50577,64.24242 141.9138,69.693825 154.6775,58.38894 C155.11523,58.001236 155.49385,57.54473 155.82907,57.065613 C156.31314,56.373734 156.6936,55.61487 157.12587,54.889496 L157.12587,54.889496" /><path fill="none" stroke="#000000" stroke-width="0.06mm" d="M89.25871,118.03553 C90.63239,118.44073 92.00607,118.845924 93.37975,119.25112 C93.55536,119.347916 93.75825,119.40656 93.90657,119.5415 C94.816505,120.36935 95.710236,121.21879 96.540375,122.126625 C96.83499,122.44882 97.0626,122.83058 97.26695,123.21639 C98.015564,124.62969 98.65935,126.09654 99.3953,127.51648 C104.723206,137.79607 90.34605,104.07528 106.81167,146.28233 C107.157936,147.16995 107.65046,147.99333 108.06987,148.84883 C111.81267,157.33105 115.978584,165.63892 119.298294,174.29547 C121.50403,180.0472 122.19377,188.9624 123.215294,194.9006 C124.99666,205.25577 123.00197,188.48114 124.43939,202.03111 L124.43939,202.03111" /><path fill="none" stroke="#000000" stroke-width="0.06mm" d="M220.95447,247.76863 C211.07047,247.67279 222.93181,247.95242 202.99118,245.79295 C198.61824,245.31938 194.21007,245.22975 189.83437,244.78232 C189.13481,244.7108 188.45107,244.49463 187.79588,244.23923 C186.96463,243.91516 186.16852,243.50012 185.39676,243.05246 C184.99222,242.81778 184.60585,242.53796 184.28177,242.20074 C181.90652,239.72926 180.7856,238.31456 179.53809,234.98445 C178.56973,232.39958 178.14282,229.62895 177.1275,227.06216 C175.8983,223.95462 174.32562,220.99275 172.82288,218.00786 C172.58527,217.53589 172.2638,217.10529 171.91489,216.70847 C171.4552,216.18562 170.93195,215.72076 170.40848,215.2618 C169.81561,214.742 168.78125,214.51868 168.04628,214.46106 C163.69223,214.11957 159.30199,214.15791 154.97433,213.5699 C152.71597,213.26305 150.53,212.52489 148.37332,211.78802 C147.59953,211.52365 146.92447,211.02524 146.23587,210.58429 C144.10669,209.22087 142.05756,207.73482 139.92433,206.37775 C138.01956,205.16602 136.05807,204.0458 134.12494,202.87982 L134.12494,202.87982" /><path fill="none" stroke="#000000" stroke-width="0.06mm" d="M219.83977,247.15921 C222.15988,246.72607 224.67155,246.49316 226.27266,244.57175 C228.39774,242.02158 228.04793,237.26823 228.38806,234.59131 C228.52136,233.54218 229.31229,232.21465 230.41527,231.92865 C232.21223,231.4627 234.01299,230.94485 235.85986,230.75734 C240.54182,230.28198 245.2522,230.1304 249.95456,229.94482 C256.91882,229.66998 250.37727,230.42044 254.54482,229.88742 L254.54482,229.88742" /><path fill="none" stroke="#000000" stroke-width="0.06mm" d="M191.03531,240.41104 C189.61502,241.21704 188.19475,242.02304 186.77446,242.82907 C186.69572,242.85693 186.62178,242.91173 186.53827,242.91261 C186.5112,242.9129 186.5343,242.85863 186.53232,242.83162 C186.61688,242.7452 186.70143,242.65872 186.78601,242.5723 C187.9834,241.6449 189.17082,240.70444 190.3782,239.79007 C191.27098,239.11401 192.38397,240.0191 192.90633,240.72623 C193.46973,241.48895 194.01157,242.26788 194.536,243.05789 C194.72658,243.34497 194.56339,243.67007 194.2973,243.8209 C194.20876,243.8711 194.1138,243.91095 194.01654,243.94083 C191.99045,244.56311 189.95813,245.16486 187.92892,245.77686 L187.92892,245.77686" /><path fill="none" stroke="#000000" stroke-width="0.06mm" d="M185.7441,241.83795 C187.16093,243.91791 187.41617,243.96214 189.59358,244.98909 L189.59358,244.98909" /><path fill="none" stroke="#000000" stroke-width="0.06mm" d="M212.24478,239.20706 C210.75394,240.17868 209.31703,241.2386 207.77223,242.12192 C206.95555,242.58891 206.03693,242.8502 205.18298,243.24498 C205.10683,243.28021 205.04341,243.34229 204.99094,243.40778 C204.58528,243.91417 205.83543,244.74582 206.16151,244.90225 C207.30806,245.45235 208.48299,245.94115 209.64377,246.4606 L209.64377,246.4606" /><path fill="none" stroke="#000000" stroke-width="0.06mm" d="M210.268,238.47873 C211.0434,240.38254 211.78448,242.30069 212.59416,244.19016 C212.78455,244.63443 213.06747,245.03442 213.26607,245.47507 C213.29713,245.54402 213.29172,245.62793 213.27547,245.7018 C213.2186,245.96042 212.88225,246.05481 212.6615,246.06723 C210.25916,246.20255 210.88133,246.19122 208.76682,245.95523 L208.76682,245.95523" /><path fill="none" stroke="#000000" stroke-width="0.06mm" d="M222.14352,242.87842 C221.20267,243.09988 220.2445,243.25757 219.32097,243.54279 C218.33115,243.84846 217.36066,244.22203 216.41599,244.64725 C216.35536,244.67455 216.38275,244.79483 216.42455,244.84653 C216.5072,244.94873 216.62871,245.02234 216.75325,245.06433 C216.80434,245.08154 219.96921,246.16931 220.87456,246.13545 C221.29326,246.11978 221.69081,245.94594 222.09894,245.85118 L222.09894,245.85118" /><path fill="none" stroke="#000000" stroke-width="0.06mm" d="M221.68275,241.13934 C223.07335,242.50165 224.31013,242.91342 223.30513,244.6445 C223.18694,244.8481 223.08704,245.08372 222.89441,245.21906 C222.50533,245.49236 222.03711,245.63058 221.60844,245.83633 L221.60844,245.83633" /><path fill="none" stroke="#000000" stroke-width="0.06mm" d="M200.83,242.03119 C199.29817,241.87236 199.15129,241.75247 197.53723,242.06357 C196.69666,242.22557 195.87236,242.46487 195.0492,242.6997 C194.919,242.73685 194.64249,242.87492 194.59448,243.04614 C194.47757,243.46304 195.60327,243.93924 195.6355,243.95525 C195.83594,244.05476 196.04941,244.13013 196.26642,244.18472 C197.38327,244.46571 198.51866,244.67041 199.63304,244.96106 C200.175,245.10242 200.69855,245.30675 201.23131,245.47961 L201.23131,245.47961" /><path fill="none" stroke="#000000" stroke-width="0.06mm" d="M199.58151,240.76776 C199.03635,241.201 201.64328,242.9875 201.60295,243.81139 C201.55591,244.77309 199.5131,245.24844 198.94241,245.42015 L198.94241,245.42015" /><path fill="none" stroke="#000000" stroke-width="0.06mm" d="M243.04086,227.10788 C241.43188,227.58861 239.80688,228.01875 238.21388,228.55008 C238.15146,228.57089 238.12735,228.67758 238.15344,228.73798 C238.19589,228.83624 238.2971,228.90144 238.3892,228.95593 C238.7912,229.19373 239.25946,229.36658 239.72171,229.43784 C240.50621,229.55878 241.29132,229.7135 242.08488,229.73093 C242.82564,229.74718 243.56262,229.61752 244.2993,229.53828 C244.3963,229.52783 244.49313,229.50267 244.58197,229.46231 C244.83624,229.34677 244.88417,229.11435 244.74045,228.87904 C244.23303,228.0484 243.20312,227.14597 242.25984,226.86353 C242.05899,226.80338 241.84914,226.77872 241.64375,226.7363 L241.64375,226.7363" /><path fill="none" stroke="#000000" stroke-width="0.06mm" d="M252.44916,227.91052 C251.67834,228.09314 250.89934,228.244 250.13675,228.45837 C248.62962,228.88205 249.49547,229.70206 250.44705,229.88101 C250.9367,229.9731 251.62054,229.87314 252.03667,229.80382 C252.11209,229.79126 253.14688,229.68187 252.9978,229.23537 C252.94066,229.0642 252.76825,228.91615 252.61288,228.83963 C252.01929,228.54724 251.41379,228.2797 250.81422,227.99973 L250.81422,227.99973" /><path fill="none" stroke="#000000" stroke-width="0.06mm" d="M257.11612,228.26727 C256.53113,228.19098 255.8565,227.98181 255.27742,228.2465 C255.08241,228.33565 254.91577,228.46976 254.78192,228.6375 C254.35585,229.17137 255.07123,229.57538 255.52753,229.67072 C255.82144,229.73212 256.15,229.70665 256.42807,229.59064 C257.14508,229.29153 257.55188,228.14696 257.07794,227.49786 C256.87384,227.21832 256.51547,227.02327 256.20728,226.89595 C255.5199,226.612 254.97649,226.7587 254.24757,226.87006 L254.24757,226.87006" /><path fill="none" stroke="#000000" stroke-width="0.06mm" d="M157.57047,273.917 C154.02223,274.32193 157.13263,273.8556 151.40674,275.51093 C151.0126,275.62488 150.60118,275.6671 150.19843,275.74524 L150.19843,275.74524" /><path fill="none" stroke="#000000" stroke-width="0.06mm" d="M156.94623,274.52637 C162.23924,275.298 155.19759,274.24377 162.55397,275.47784 C163.18022,275.58292 163.82507,275.5834 164.44139,275.7364 C165.02979,275.88242 165.57806,276.15848 166.14641,276.3695 L166.14641,276.3695" /><path fill="none" stroke="#000000" stroke-width="0.06mm" d="M149.90117,276.60733 C149.55794,278.71216 150.08435,280.27734 150.41747,282.3611 C150.50438,282.90485 150.49524,283.4621 150.59705,284.00323 C150.72427,284.67957 151.08691,286.25067 151.88841,286.60956 C152.39406,286.83594 153.07072,286.62933 153.5415,286.44373 C155.29008,285.7542 157.00258,284.97433 158.75859,284.304 C159.45805,284.037 160.21712,284.234 160.91307,283.96613 C161.74152,283.6472 163.12457,282.60345 163.51566,282.3448 L163.51566,282.3448" /><path fill="none" stroke="#000000" stroke-width="0.06mm" d="M167.00847,276.23572 C165.2789,279.09216 167.45337,275.36957 164.88377,280.76422 C163.7078,283.2331 164.59772,280.99573 163.99353,282.08075 C163.67258,282.65717 163.3777,283.24768 163.06978,283.83118 L163.06978,283.83118" /><path fill="none" stroke="#000000" stroke-width="0.06mm" d="M151.86308,283.0136 L151.7759,282.97104" /><path fill="none" stroke="#248B00" stroke-width="0.06mm" d="M114.82341,263.52838 L115.15039,266.12955" /><path fill="none" stroke="#248B00" stroke-width="0.06mm" d="M117.37984,274.60193 L116.98053,273.53375" /><path fill="none" stroke="#248B00" stroke-width="0.06mm" d="M117.03798,273.2642 L117.06972,273.20676" /><path fill="none" stroke="#248B00" stroke-width="0.06mm" d="M116.94882,263.82565 C117.04779,265.6533 117.14676,267.48096 117.24574,269.3086 C117.46767,271.3203 117.78485,273.32385 117.911545,275.3438 C118.503525,284.782 117.38525,283.6325 119.83257,292.37988 C120.16674,293.57428 122.43933,300.2652 124.024734,301.84814 C126.06162,303.88193 129.1553,304.6235 131.84991,305.2061 C133.84465,305.63733 134.20047,305.36948 135.65979,306.05914 C136.81854,306.6068 137.68909,307.6839 138.3736,308.72498 C139.80556,310.9029 138.66945,309.95523 139.8824,310.84 L139.8824,310.84" /><path fill="none" stroke="#248B00" stroke-width="0.06mm" d="M139.30275,309.91846 C139.28824,313.12555 139.18823,311.58377 140.25923,316.63452 C140.2938,316.79752 140.37842,316.94724 140.46185,317.09146 C141.29936,318.539 144.18243,319.9897 145.85526,320.02838 C167.69873,320.5337 159.44786,319.44977 168.25583,320.69476 L168.25583,320.69476" /><path fill="none" stroke="#248B00" stroke-width="0.06mm" d="M198.93787,306.1829 C198.32,305.9388 197.81685,305.92316 197.18533,305.96582 L197.18533,305.96582" /><path fill="none" stroke="#248B00" stroke-width="0.06mm" d="M198.6163,305.81308 C197.55545,306.1571 195.80746,305.37634 194.5941,305.93607 C194.12067,306.15442 193.70059,306.6815 193.47719,307.11456 C192.85094,308.3286 192.19037,309.53552 191.72995,310.82172 C191.39133,311.7676 191.34987,312.7963 191.0954,313.76822 C190.83981,314.74435 190.24553,315.49918 189.6134,316.27698 C188.65187,317.46002 185.19434,319.21643 185.04968,319.2964 C181.51843,321.24896 177.17146,320.0688 173.42517,319.85867 C173.10237,319.84058 168.83307,320.1654 166.84552,319.59302 L166.84552,319.59302" /><path fill="none" stroke="#248B00" stroke-width="0.06mm" d="M167.06256,319.74573 C167.4401,319.7173 167.81674,319.67163 168.19519,319.66028 C168.68597,319.64557 168.80023,319.79144 168.40625,320.08392 C168.15524,320.27026 167.90584,320.46167 167.63385,320.61578 C167.20435,320.8591 166.7492,321.05414 166.30688,321.27332 L166.30688,321.27332" /><path fill="none" stroke="#248B00" stroke-width="0.06mm" d="M198.18343,306.18445 C199.69537,306.41583 201.21448,306.6045 202.71927,306.8786 C202.97423,306.92505 203.20709,307.0537 203.45003,307.1439 C203.7594,307.2588 204.06186,307.39337 204.37622,307.49384 C206.86444,308.28918 209.33011,309.16617 211.85635,309.83096 C213.5839,310.28558 215.36032,310.52957 217.11826,310.847 C217.67288,310.9471 218.24014,310.97095 218.79242,311.08328 C219.04547,311.13477 219.29004,311.2284 219.52454,311.3365 C219.90692,311.51276 221.43893,312.16168 222.05447,312.71942 C222.83139,313.42337 223.81044,315.0965 224.11476,315.6136 C224.9753,317.07562 225.16528,318.97528 225.33173,320.56546 C225.75204,324.58112 225.99384,328.61346 226.3249,332.63748 L226.3249,332.63748" /><path fill="none" stroke="#248B00" stroke-width="0.06mm" d="M310.64514,307.6406 C309.81757,337.9403 310.32413,305.7352 312.06308,356.42816 C312.26526,362.32227 311.74353,368.2315 312.05542,374.12082 C313.70752,405.31253 313.74963,381.69153 313.72064,389.04663 L313.72064,389.04663" /><path fill="none" stroke="#248B00" stroke-width="0.06mm" d="M225.36642,330.9848 C223.91336,340.0548 222.32805,349.10458 221.00722,358.19476 C220.51996,361.54807 220.01004,364.91663 219.94373,368.3045 C219.7431,378.5583 220.81155,388.83267 220.20735,399.07062 C219.9663,403.1551 218.35077,407.0404 217.42249,411.0253 L217.42249,411.0253" /><path fill="none" stroke="#248B00" stroke-width="0.06mm" d="M259.83734,449.55618 C260.69937,449.64148 262.80557,450.03302 264.0573,449.81122 C274.41293,447.9759 268.26105,448.80194 276.16116,447.7216 C278.5605,447.3935 280.94165,446.81717 283.3627,446.764 C291.69196,446.58102 300.02475,447.13217 308.35516,447.01437 C311.60117,446.9685 314.83282,446.5664 318.06586,446.27325 C318.38068,446.24472 318.68872,446.1535 318.9875,446.05026 C319.38132,445.9142 319.75348,445.72195 320.13644,445.5578 L320.13644,445.5578" /><path fill="none" stroke="#248B00" stroke-width="0.06mm" d="M318.90918,445.44022 C319.3025,445.5937 319.70953,445.7158 320.0891,445.90063 C322.3745,447.0133 323.2107,449.8921 323.80148,452.087 C325.19705,457.27185 324.29257,456.7914 324.98032,462.19516 C325.32318,464.88907 326.03848,467.5287 326.344,470.22708 C326.7364,473.69266 325.94598,474.5511 326.94965,477.4165 C327.42053,478.76083 328.13657,480.00827 328.64774,481.33777 C329.23816,482.87338 328.8783,484.60657 329.4718,486.1425 C329.5709,486.39893 329.71555,486.6355 329.84802,486.8764 C329.87833,486.93152 329.90054,487.00626 329.95923,487.02887 C330.39584,487.19708 330.8546,487.30066 331.30234,487.43655 L331.30234,487.43655" /><path fill="none" stroke="#248B00" stroke-width="0.06mm" d="M316.22556,424.57693 C325.799,425.16248 306.76083,424.1223 326.5509,424.2137 C328.0612,424.2207 329.55005,424.57745 331.04315,424.80463 C331.19266,424.8274 331.33234,424.89645 331.46866,424.96194 C331.60706,425.02844 331.75427,425.09113 331.86368,425.19888 C333.389,426.70178 334.95184,428.17346 336.36285,429.78418 C338.8181,432.58704 341.33743,441.307 341.58176,442.11417 C345.81458,456.09714 344.86243,459.60535 350.2075,469.74207 C353.10104,475.2297 356.18665,480.61484 359.28418,485.99 C359.3687,486.13663 359.3075,485.64893 359.2782,485.48218 C359.17682,484.90552 359.02188,484.33954 358.8937,483.76825 L358.8937,483.76825" /><path fill="none" stroke="#248B00" stroke-width="0.06mm" d="M318.2079,423.97003 C316.95193,423.93243 315.54105,423.81033 314.55206,422.9242 C313.16724,421.68335 312.2764,417.9617 312.0178,416.4631 C311.48032,413.34866 310.9441,410.22043 310.7624,407.06522 C310.62076,404.60516 310.83313,402.13297 311.0514,399.67856 C311.43958,395.313 311.63068,392.26694 312.61142,388.56854 L312.61142,388.56854" /><path fill="none" stroke="#248B00" stroke-width="0.06mm" d="M218.3734,405.23392 C218.69905,407.80652 219.19882,410.36307 219.35037,412.95178 C219.50757,415.63687 219.25525,418.33136 219.29756,421.02072 C219.3039,421.42255 219.3945,421.8211 219.49608,422.20993 C219.93393,423.88605 221.01509,425.37628 222.65076,426.03973 C223.1106,426.22626 223.5736,426.47058 224.0694,426.49106 C227.33305,426.6259 230.60239,426.47745 233.8687,426.50314 C234.45795,426.50778 235.09279,427.2038 235.2725,427.70273 C236.50128,431.11407 236.00426,433.82343 236.57118,437.94843 C236.71515,438.9959 237.1273,439.98944 237.35974,441.02094 C237.79227,442.94052 238.21405,444.8635 238.56555,446.79956 C239.08322,449.65088 238.24751,448.43982 239.35684,449.73865 L239.35684,449.73865" /><path fill="none" stroke="#248B00" stroke-width="0.06mm" d="M238.69606,448.7137 C239.178,448.91174 239.6356,449.1845 240.14183,449.30774 C241.64221,449.673 243.15688,450.01373 244.69278,450.17346 C248.0311,450.5205 252.3692,450.21033 255.60294,449.72723 C267.03793,448.01904 257.1666,448.9532 261.8372,448.53836 L261.8372,448.53836" /><path fill="none" stroke="#248B00" stroke-width="0.06mm" d="M329.52902,485.09848 C329.3483,485.38354 329.15164,485.65912 328.98685,485.95367 C328.90765,486.0952 328.7902,486.48682 328.79474,486.65234 C328.82773,487.84354 328.88254,489.03458 328.96735,490.22324 C328.97992,490.3989 329.0998,490.67456 329.2034,490.82886 C329.65247,491.49774 331.19635,492.0912 331.95026,492.17453 C335.05746,492.51816 337.4703,492.07196 340.79498,491.9443 C341.9668,491.8993 343.43216,492.7385 344.28217,493.06888 L344.28217,493.06888" /><path fill="none" stroke="#248B00" stroke-width="0.06mm" d="M344.03943,494.2287 C345.1181,494.2343 345.62598,494.39838 346.24408,495.31143 C346.36218,495.4859 346.49445,495.66226 346.54663,495.8664 C347.2812,498.94708 348.01575,502.02777 348.75027,505.1085 C348.9391,506.5443 349.00864,508.00095 349.31677,509.41595 C349.6665,511.02203 350.43668,512.52435 350.7178,514.1439 C350.7861,514.5373 351.1002,518.1831 350.71823,519.5829 C350.3188,521.04663 350.15927,521.3009 349.63593,522.37463 L349.63593,522.37463" /><path fill="none" stroke="#248B00" stroke-width="0.06mm" d="M350.3102,520.59436 C350.1807,521.5648 350.12173,522.595 350.68524,523.4536 C351.22107,524.27014 352.7932,525.02637 353.33807,525.29407 C357.13547,527.15955 366.06775,526.69714 367.2398,526.69293 C373.81482,526.66925 374.5212,526.43024 378.71066,525.47644 L378.71066,525.47644" /><path fill="none" stroke="#248B00" stroke-width="0.06mm" d="M359.48032,483.57452 L359.46866,483.5089" /><path fill="none" stroke="#248B00" stroke-width="0.06mm" d="M359.54776,482.77884 L359.46866,482.96948" /><path fill="none" stroke="#248B00" stroke-width="0.06mm" d="M358.9544,483.2239 C360.03925,484.53027 361.1067,486.23642 362.60226,487.24655 C363.3749,487.7684 364.2359,488.15735 364.9815,488.71716 C366.42133,489.90344 367.86108,491.0897 369.3009,492.27594 C369.9674,492.95563 370.55832,493.7188 371.3005,494.3149 C376.8924,498.80576 373.08856,495.0822 378.28336,498.90994 C379.10828,499.51776 379.7796,500.31253 380.57227,500.9618 C383.90558,503.69202 381.91388,501.02203 386.02676,506.2783 C389.71014,510.98563 388.6359,513.167 389.60696,510.9922 L389.60696,510.9922" /><path fill="none" stroke="#248B00" stroke-width="0.06mm" d="M376.43643,526.5992 C376.05756,531.9255 375.7574,537.5751 377.32028,542.7451 C377.49805,543.3332 377.75592,543.89404 377.9738,544.4685 L377.9738,544.4685" /><path fill="none" stroke="#248B00" stroke-width="0.06mm" d="M377.19162,544.13135 C377.29355,544.46606 377.4254,544.79297 377.49738,545.1354 C377.55408,545.40515 377.57086,545.6832 377.57565,545.9589 C377.5978,547.24274 377.53784,548.5276 377.5781,549.8109 C377.62347,551.2583 378.51624,551.60986 379.82755,551.627 C383.1325,551.6703 386.43863,551.7937 389.74298,551.7137 C394.462,551.59937 399.1681,551.0122 403.8884,551.044 C406.07202,551.0587 408.21613,551.6383 410.38922,551.85266 C411.87747,551.99945 413.3745,552.036 414.86725,552.1269 C414.98016,552.1338 415.09384,552.1595 415.20615,552.1459 C415.7936,552.07446 416.3756,551.9636 416.9604,551.8725 L416.9604,551.8725" /><path fill="none" stroke="#248B00" stroke-width="0.06mm" d="M388.57336,511.17087 L388.5752,511.1592" /><path fill="none" stroke="#248B00" stroke-width="0.06mm" d="M388.60034,511.14392 C389.14545,511.31702 389.71463,511.42715 390.23557,511.66312 C394.29517,513.5021 396.883,515.57904 400.75272,518.41504 C402.04352,519.3611 403.20056,520.48254 404.50177,521.4142 C406.04764,522.5211 407.8263,523.2031 409.14548,524.5792 C409.39813,524.8427 409.60535,525.1468 409.81915,525.4427 C413.1366,530.03467 413.09064,529.5747 414.85663,532.91077 L414.85663,532.91077" /><path fill="none" stroke="#248B00" stroke-width="0.06mm" d="M416.5828,552.6682 C418.13135,552.67816 419.57428,551.4755 421.1118,552.042 C422.0083,552.3723 422.4478,553.6183 422.55048,554.4653 C422.84283,556.8774 422.78943,556.9359 422.7187,558.845 L422.7187,558.845" /><path fill="none" stroke="#248B00" stroke-width="0.06mm" d="M464.21185,606.8442 C458.24316,606.7399 452.27454,606.6356 446.30588,606.53143 C441.5347,606.64514 436.7636,606.9805 431.9923,606.87244 C430.34805,606.8352 428.74384,606.35547 427.1196,606.0969 L427.1196,606.0969" /><path fill="none" stroke="#248B00" stroke-width="0.06mm" d="M422.4286,557.3988 C424.85162,574.7942 425.5455,579.2189 427.92117,601.0033 C428.02692,601.97314 427.85645,602.95447 427.87988,603.9298 C427.8937,604.509 427.98187,605.084 428.0329,605.661 L428.0329,605.661" /><path fill="none" stroke="#248B00" stroke-width="0.06mm" d="M414.91467,532.69696 C416.02393,533.4041 417.10095,534.1647 418.24252,534.8184 C419.32867,535.4404 422.53873,536.1362 423.04498,536.20233 C427.5103,536.7854 432.0252,536.9424 436.48746,537.5489 C442.80896,538.4081 440.00525,539.17346 444.20233,538.4884 L444.20233,538.4884" /><path fill="none" stroke="#248B00" stroke-width="0.06mm" d="M444.4722,539.58856 C446.5318,538.28235 447.0319,537.6992 448.0588,535.2866 C448.38898,534.51086 448.65723,533.7026 448.8257,532.87646 C449.25946,530.7499 449.1547,529.4139 449.3312,527.3419 C449.35968,527.00757 449.6466,526.06836 449.7029,525.86755 L449.7029,525.86755" /><path fill="none" stroke="#248B00" stroke-width="0.06mm" stroke-dasharray="0.3mm,0.1mm" d="M490.53134,547.55963 C490.1096,544.6477 489.40814,541.7627 489.26617,538.82385 C487.04007,492.7466 494.12183,567.47266 487.8211,493.64838 C487.65833,491.7406 487.0465,489.8803 486.35776,488.09378 C483.92322,481.7786 484.81598,482.80307 481.7305,480.4077 L481.7305,480.4077" /><path fill="none" stroke="#248B00" stroke-width="0.06mm" stroke-dasharray="0.3mm,0.1mm" d="M450.09723,525.03723 C452.10577,513.06055 451.21332,514.5373 456.91748,501.5589 C458.11703,498.8297 461.3625,491.236 464.6367,487.65375 C466.04437,486.11365 468.36154,484.674 470.08804,483.81097 C471.92215,482.89413 473.847,482.16937 475.75232,481.4116 C476.08972,481.27737 476.4482,481.1956 476.80682,481.13867 C477.29526,481.06122 477.7921,481.05273 478.28488,481.00974 L478.28488,481.00974" /><path fill="none" stroke="#248B00" stroke-width="0.06mm" d="M491.3824,547.2067 C491.51443,548.9719 491.64655,550.7372 491.7787,552.5023 C491.88007,553.6454 492.06976,554.78394 492.08286,555.9313 C492.1197,559.15674 491.8048,562.3838 491.92825,565.6071 C491.98517,567.09186 492.28085,568.56415 492.6222,570.01025 C494.4078,577.57556 494.09482,576.54895 496.03183,581.1251 L496.03183,581.1251" /><path fill="none" stroke="#248B00" stroke-width="0.06mm" d="M496.34323,579.3607 C497.40018,579.86084 498.50397,580.2722 499.51413,580.8611 C501.11163,581.79236 502.57947,582.9315 504.1482,583.91046 C508.2406,586.46423 512.47534,588.7922 516.49554,591.4582 C521.61646,595.5834 519.3873,594.0212 522.9949,596.40295 L522.9949,596.40295" /><path fill="none" stroke="#248B00" stroke-width="0.06mm" d="M462.92493,607.32166 C465.5042,607.468 471.9809,606.0758 474.72186,608.24786 C475.89777,609.1797 476.5879,610.3873 477.0471,611.8187 C477.3976,612.9115 477.74597,614.01764 477.89575,615.1555 C478.66104,620.97034 477.80545,621.74225 478.0573,628.13306 C478.73596,645.3538 477.9259,641.27344 479.63406,649.00354 L479.63406,649.00354" /><path fill="none" stroke="#248B00" stroke-width="0.06mm" d="M478.19394,648.97894 C478.23328,653.67084 477.94003,658.3773 478.31192,663.05457 C478.51566,665.6173 479.32623,668.09607 479.9129,670.59906 C480.08887,671.3499 480.34296,673.3427 481.25577,674.12976 C482.42603,675.13873 485.52332,675.1792 486.39264,675.20166 C490.4686,675.307 499.5133,672.9347 501.2262,672.71686 C506.6706,672.0245 510.6524,672.9647 516.11115,673.31665 C517.10205,673.38055 518.0973,673.27045 519.09,673.2918 C522.0043,673.35443 521.7436,673.8771 523.6926,672.1655 L523.6926,672.1655" /><path fill="none" stroke="#248B00" stroke-width="0.06mm" d="M522.3642,595.44434 C523.0357,595.80505 525.86786,597.0253 526.9362,598.1365 C528.72327,599.99493 529.5251,602.3035 530.8977,604.54956 C531.2512,605.1282 531.76666,605.5973 532.1172,606.17773 C532.89966,607.47363 533.2506,608.84595 533.50244,610.33514 C534.0657,613.6651 532.83765,619.2717 532.71045,621.319 C532.65344,622.23596 532.8498,623.1511 532.91516,624.06757 C532.9755,624.9142 533.71326,630.5805 533.3202,633.11084 C533.2569,633.5182 533.10114,633.90564 532.99164,634.30316 L532.99164,634.30316" /><path fill="none" stroke="#248B00" stroke-width="0.06mm" d="M521.1188,512.26733 L520.27057,512.89294" /><path fill="none" stroke="#248B00" stroke-width="0.06mm" d="M522.40576,511.25024 L520.57916,513.24304" /><path fill="none" stroke="#248B00" stroke-width="0.06mm" d="M475.73087,616.7075 C477.08514,615.0021 476.27075,615.92413 478.25775,614.0227 L478.25775,614.0227" /></g>
<g>
<line fill="none" stroke="#111111" stroke-width="0.04mm" x1="20.00" y1="127.00" x2="66.43" y2="108.06" />
<line fill="none" stroke="#00aeef" stroke-width="0.04mm" stroke-dasharray="0.4,0.2" x1="66.43" y1="108.06" x2="112.86" y2="89.02" />
<line fill="none" stroke="#111111" stroke-width="0.04mm" x1="66.43" y1="108.06" x2="81.60" y2="106.19" />
<line fill="none" stroke="#00aeef" stroke-width="0.04mm" stroke-dasharray="0.4,0.2" x1="81.60" y1="106.19" x2="79.16" y2="106.82" />
<line fill="none" stroke="#00aeef" stroke-width="0.04mm" stroke-dasharray="0.4,0.2" x1="81.60" y1="106.19" x2="80.08" y2="80.24" />
<line fill="none" stroke="#00aeef" stroke-width="0.04mm" stroke-dasharray="0.4,0.2" x1="81.60" y1="106.19" x2="90.91" y2="19.79" />
<line fill="none" stroke="#00aeef" stroke-width="0.04mm" stroke-dasharray="0.4,0.2" x1="81.60" y1="106.19" x2="79.85" y2="118.83" />
<line fill="none" stroke="#111111" stroke-width="0.04mm" x1="81.60" y1="106.19" x2="98.40" y2="114.58" />
<line fill="none" stroke="#111111" stroke-width="0.04mm" x1="98.40" y1="114.58" x2="138.47" y2="197.84" />
<line fill="none" stroke="#00aeef" stroke-width="0.04mm" stroke-dasharray="0.4,0.2" x1="138.47" y1="197.84" x2="169.89" y2="205.49" />
<line fill="none" stroke="#00aeef" stroke-width="0.04mm" stroke-dasharray="0.4,0.2" x1="138.47" y1="197.84" x2="127.77" y2="123.69" />
<line fill="none" stroke="#111111" stroke-width="0.04mm" x1="138.47" y1="197.84" x2="177.54" y2="199.62" />
<line fill="none" stroke="#5674b9" stroke-width="0.04mm" stroke-dasharray="0.4,0.2" x1="177.54" y1="199.62" x2="171.69" y2="201.44" />
<line fill="none" stroke="#5674b9" stroke-width="0.04mm" stroke-dasharray="0.4,0.2" x1="177.54" y1="199.62" x2="182.13" y2="232.83" />
<line fill="none" stroke="#5674b9" stroke-width="0.04mm" stroke-dasharray="0.4,0.2" x1="177.54" y1="199.62" x2="175.50" y2="108.29" />
<line fill="none" stroke="#111111" stroke-width="0.04mm" x1="177.54" y1="199.62" x2="221.44" y2="223.11" />
<line fill="none" stroke="#00aeef" stroke-width="0.04mm" stroke-dasharray="0.4,0.2" x1="221.44" y1="223.11" x2="219.47" y2="223.45" />
<line fill="none" stroke="#5674b9" stroke-width="0.04mm" stroke-dasharray="0.4,0.2" x1="221.44" y1="223.11" x2="224.17" y2="223.26" />
<line fill="none" stroke="#00aeef" stroke-width="0.04mm" stroke-dasharray="0.4,0.2" x1="221.44" y1="223.11" x2="219.83" y2="237.30" />
<line fill="none" stroke="#111111" stroke-width="0.04mm" x1="221.44" y1="223.11" x2="252.92" y2="222.31" />
<line fill="none" stroke="#111111" stroke-width="0.04mm" x1="138.47" y1="197.84" x2="157.45" y2="274.36" />
<line fill="none" stroke="#5674b9" stroke-width="0.04mm" stroke-dasharray="0.4,0.2" x1="157.45" y1="274.36" x2="145.39" y2="317.78" />
<line fill="none" stroke="#5674b9" stroke-width="0.04mm" stroke-dasharray="0.4,0.2" x1="157.45" y1="274.36" x2="119.12" y2="281.39" />
<line fill="none" stroke="#5674b9" stroke-width="0.04mm" stroke-dasharray="0.4,0.2" x1="157.45" y1="274.36" x2="170.49" y2="272.94" />
<line fill="none" stroke="#00aeef" stroke-width="0.04mm" stroke-dasharray="0.4,0.2" x1="157.45" y1="274.36" x2="152.64" y2="268.32" />
<line fill="none" stroke="#111111" stroke-width="0.04mm" x1="157.45" y1="274.36" x2="196.35" y2="280.01" />
<line fill="none" stroke="#00aeef" stroke-width="0.04mm" stroke-dasharray="0.4,0.2" x1="196.35" y1="280.01" x2="194.91" y2="281.87" />
<line fill="none" stroke="#00aeef" stroke-width="0.04mm" stroke-dasharray="0.4,0.2" x1="196.35" y1="280.01" x2="191.83" y2="306.65" />
<line fill="none" stroke="#00aeef" stroke-width="0.04mm" stroke-dasharray="0.4,0.2" x1="196.35" y1="280.01" x2="214.90" y2="241.58" />
<line fill="none" stroke="#00aeef" stroke-width="0.04mm" stroke-dasharray="0.4,0.2" x1="196.35" y1="280.01" x2="260.41" y2="279.95" />
<line fill="none" stroke="#111111" stroke-width="0.04mm" x1="196.35" y1="280.01" x2="228.19" y2="312.21" />
<line fill="none" stroke="#00aeef" stroke-width="0.04mm" stroke-dasharray="0.4,0.2" x1="228.19" y1="312.21" x2="230.30" y2="312.96" />
<line fill="none" stroke="#00aeef" stroke-width="0.04mm" stroke-dasharray="0.4,0.2" x1="228.19" y1="312.21" x2="254.73" y2="321.86" />
<line fill="none" stroke="#5674b9" stroke-width="0.04mm" stroke-dasharray="0.4,0.2" x1="228.19" y1="312.21" x2="309.86" y2="347.60" />
<line fill="none" stroke="#5674b9" stroke-width="0.04mm" stroke-dasharray="0.4,0.2" x1="228.19" y1="312.21" x2="241.79" y2="346.11" />
<line fill="none" stroke="#111111" stroke-width="0.04mm" x1="228.19" y1="312.21" x2="246.74" y2="413.89" />
<line fill="none" stroke="#00aeef" stroke-width="0.04mm" stroke-dasharray="0.4,0.2" x1="246.74" y1="413.89" x2="222.15" y2="403.89" />
<line fill="none" stroke="#00aeef" stroke-width="0.04mm" stroke-dasharray="0.4,0.2" x1="246.74" y1="413.89" x2="236.71" y2="425.19" />
<line fill="none" stroke="#00aeef" stroke-width="0.04mm" stroke-dasharray="0.4,0.2" x1="246.74" y1="413.89" x2="213.46" y2="445.56" />
<line fill="none" stroke="#00aeef" stroke-width="0.04mm" stroke-dasharray="0.4,0.2" x1="246.74" y1="413.89" x2="234.21" y2="428.03" />
<line fill="none" stroke="#111111" stroke-width="0.04mm" x1="246.74" y1="413.89" x2="316.51" y2="430.60" />
<line fill="none" stroke="#00aeef" stroke-width="0.04mm" stroke-dasharray="0.4,0.2" x1="316.51" y1="430.60" x2="292.72" y2="438.78" />
<line fill="none" stroke="#111111" stroke-width="0.04mm" x1="316.51" y1="430.60" x2="329.63" y2="432.53" />
<line fill="none" stroke="#00aeef" stroke-width="0.04mm" stroke-dasharray="0.4,0.2" x1="329.63" y1="432.53" x2="333.46" y2="468.43" />
<line fill="none" stroke="#5674b9" stroke-width="0.04mm" stroke-dasharray="0.4,0.2" x1="329.63" y1="432.53" x2="325.00" y2="435.57" />
<line fill="none" stroke="#111111" stroke-width="0.04mm" x1="329.63" y1="432.53" x2="345.89" y2="485.47" />
<line fill="none" stroke="#5674b9" stroke-width="0.04mm" stroke-dasharray="0.4,0.2" x1="345.89" y1="485.47" x2="364.27" y2="496.86" />
<line fill="none" stroke="#111111" stroke-width="0.04mm" x1="345.89" y1="485.47" x2="381.01" y2="521.18" />
<line fill="none" stroke="#111111" stroke-width="0.04mm" x1="381.01" y1="521.18" x2="412.40" y2="544.80" />
<line fill="none" stroke="#111111" stroke-width="0.04mm" x1="412.40" y1="544.80" x2="442.69" y2="549.83" />
<line fill="none" stroke="#111111" stroke-width="0.04mm" x1="442.69" y1="549.83" x2="463.76" y2="595.34" />
<line fill="none" stroke="#111111" stroke-width="0.04mm" x1="463.76" y1="595.34" x2="491.42" y2="600.13" />
<line fill="none" stroke="#111111" stroke-width="0.04mm" x1="491.42" y1="600.13" x2="518.07" y2="668.05" />
<line fill="none" stroke="#111111" stroke-width="0.04mm" x1="518.07" y1="668.05" x2="557.88" y2="669.40" />
<line fill="none" stroke="#111111" stroke-width="0.04mm" x1="557.88" y1="669.40" x2="588.72" y2="682.05" />
<line fill="none" stroke="#5674b9" stroke-width="0.04mm" stroke-dasharray="0.4,0.2" x1="588.72" y1="682.05" x2="586.82" y2="682.12" />
<line fill="none" stroke="#5674b9" stroke-width="0.04mm" stroke-dasharray="0.4,0.2" x1="588.72" y1="682.05" x2="590.34" y2="703.08" />
<line fill="none" stroke="#5674b9" stroke-width="0.04mm" stroke-dasharray="0.4,0.2" x1="588.72" y1="682.05" x2="588.61" y2="672.04" />
<line fill="none" stroke="#111111" stroke-width="0.04mm" x1="588.72" y1="682.05" x2="596.22" y2="682.79" />
<line fill="none" stroke="#00aeef" stroke-width="0.04mm" stroke-dasharray="0.4,0.2" x1="596.22" y1="682.79" x2="599.39" y2="691.67" />
<line fill="none" stroke="#00aeef" stroke-width="0.04mm" stroke-dasharray="0.4,0.2" x1="596.22" y1="682.79" x2="599.35" y2="691.58" />
<line fill="none" stroke="#00aeef" stroke-width="0.04mm" stroke-dasharray="0.4,0.2" x1="596.22" y1="682.79" x2="599.42" y2="691.70" />
<line fill="none" stroke="#111111" stroke-width="0.04mm" x1="596.22" y1="682.79" x2="631.37" y2="701.04" />
<line fill="none" stroke="#5674b9" stroke-width="0.04mm" stroke-dasharray="0.4,0.2" x1="631.37" y1="701.04" x2="631.14" y2="690.35" />
<line fill="none" stroke="#5674b9" stroke-width="0.04mm" stroke-dasharray="0.4,0.2" x1="631.37" y1="701.04" x2="632.50" y2="711.88" />
<line fill="none" stroke="#5674b9" stroke-width="0.04mm" stroke-dasharray="0.4,0.2" x1="631.37" y1="701.04" x2="627.61" y2="701.40" />
<line fill="none" stroke="#111111" stroke-width="0.04mm" x1="631.37" y1="701.04" x2="642.79" y2="701.15" />
<line fill="none" stroke="#00aeef" stroke-width="0.04mm" stroke-dasharray="0.4,0.2" x1="642.79" y1="701.15" x2="638.94" y2="701.94" />
<line fill="none" stroke="#111111" stroke-width="0.04mm" x1="157.45" y1="274.36" x2="178.81" y2="252.82" />
<line fill="none" stroke="#111111" stroke-width="0.04mm" x1="178.81" y1="252.82" x2="201.36" y2="253.93" />
<line fill="none" stroke="#111111" stroke-width="0.04mm" x1="201.36" y1="253.93" x2="251.60" y2="279.67" />
<line fill="none" stroke="#111111" stroke-width="0.04mm" x1="201.36" y1="253.93" x2="218.83" y2="267.40" />
<line fill="none" stroke="#00aeef" stroke-width="0.04mm" stroke-dasharray="0.4,0.2" x1="218.83" y1="267.40" x2="217.11" y2="267.65" />
<line fill="none" stroke="#5674b9" stroke-width="0.04mm" stroke-dasharray="0.4,0.2" x1="218.83" y1="267.40" x2="221.42" y2="288.23" />
<line fill="none" stroke="#00aeef" stroke-width="0.04mm" stroke-dasharray="0.4,0.2" x1="218.83" y1="267.40" x2="219.10" y2="244.05" />
<line fill="none" stroke="#111111" stroke-width="0.04mm" x1="218.83" y1="267.40" x2="238.53" y2="280.73" />
<line fill="none" stroke="#111111" stroke-width="0.04mm" x1="238.53" y1="280.73" x2="251.93" y2="280.30" />
<line fill="none" stroke="#00aeef" stroke-width="0.04mm" stroke-dasharray="0.4,0.2" x1="251.93" y1="280.30" x2="251.82" y2="280.27" />
<line fill="none" stroke="#00aeef" stroke-width="0.04mm" stroke-dasharray="0.4,0.2" x1="251.93" y1="280.30" x2="286.02" y2="430.74" />
<line fill="none" stroke="#00aeef" stroke-width="0.04mm" stroke-dasharray="0.4,0.2" x1="251.93" y1="280.30" x2="267.19" y2="245.30" />
</g>
<g>
<circle cx="20.00" cy="127.00" r="0.1" fill="#111111" />
<circle cx="66.43" cy="108.06" r="0.1" fill="#111111" />
<circle cx="81.60" cy="106.19" r="0.1" fill="#111111" />
<circle cx="98.40" cy="114.58" r="0.1" fill="#111111" />
<circle cx="138.47" cy="197.84" r="0.1" fill="#111111" />
<circle cx="177.54" cy="199.62" r="0.1" fill="#111111" />
<circle cx="221.44" cy="223.11" r="0.1" fill="#111111" />
<circle cx="252.92" cy="222.31" r="0.1" fill="#111111" />
<circle cx="157.45" cy="274.36" r="0.1" fill="#111111" />
<circle cx="196.35" cy="280.01" r="0.1" fill="#111111" />
<circle cx="228.19" cy="312.21" r="0.1" fill="#111111" />
<circle cx="246.74" cy="413.89" r="0.1" fill="#111111" />
<circle cx="316.51" cy="430.60" r="0.1" fill="#111111" />
<circle cx="329.63" cy="432.53" r="0.1" fill="#111111" />
<circle cx="345.89" cy="485.47" r="0.1" fill="#111111" />
<circle cx="381.01" cy="521.18" r="0.1" fill="#111111" />
<circle cx="412.40" cy="544.80" r="0.1" fill="#111111" />
<circle cx="442.69" cy="549.83" r="0.1" fill="#111111" />
<circle cx="463.76" cy="595.34" r="0.1" fill="#111111" />
<circle cx="491.42" cy="600.13" r="0.1" fill="#111111" />
<circle cx="518.07" cy="668.05" r="0.1" fill="#111111" />
<circle cx="557.88" cy="669.40" r="0.1" fill="#111111" />
<circle cx="588.72" cy="682.05" r="0.1" fill="#111111" />
<circle cx="596.22" cy="682.79" r="0.1" fill="#111111" />
<circle cx="631.37" cy="701.04" r="0.1" fill="#111111" />
<circle cx="642.79" cy="701.15" r="0.1" fill="#111111" />
<circle cx="178.81" cy="252.82" r="0.1" fill="#111111" />
<circle cx="201.36" cy="253.93" r="0.1" fill="#111111" />
<circle cx="251.60" cy="279.67" r="0.1" fill="#111111" />
<circle cx="218.83" cy="267.40" r="0.1" fill="#111111" />
<circle cx="238.53" cy="280.73" r="0.1" fill="#111111" />
<circle cx="251.93" cy="280.30" r="0.1" fill="#111111" />
</g>
<g>
<text x="20.20" y="127.00" font-size=".2mm" fill="#000000">0</text>
<text x="66.63" y="108.06" font-size=".2mm" fill="#000000">1</text>
<text x="81.80" y="106.19" font-size=".2mm" fill="#000000">2</text>
<text x="98.60" y="114.58" font-size=".2mm" fill="#000000">3</text>
<text x="138.67" y="197.84" font-size=".2mm" fill="#000000">4</text>
<text x="177.74" y="199.62" font-size=".2mm" fill="#000000">5</text>
<text x="221.64" y="223.11" font-size=".2mm" fill="#000000">6</text>
<text x="253.12" y="222.31" font-size=".2mm" fill="#000000">7</text>
<text x="157.65" y="274.36" font-size=".2mm" fill="#000000">4.1</text>
<text x="196.55" y="280.01" font-size=".2mm" fill="#000000">4.2</text>
<text x="228.39" y="312.21" font-size=".2mm" fill="#000000">4.3</text>
<text x="246.94" y="413.89" font-size=".2mm" fill="#000000">4.4</text>
<text x="316.71" y="430.60" font-size=".2mm" fill="#000000">4.5</text>
<text x="329.83" y="432.53" font-size=".2mm" fill="#000000">4.6</text>
<text x="346.09" y="485.47" font-size=".2mm" fill="#000000">4.7</text>
<text x="381.21" y="521.18" font-size=".2mm" fill="#000000">4.8</text>
<text x="412.60" y="544.80" font-size=".2mm" fill="#000000">4.9</text>
<text x="442.89" y="549.83" font-size=".2mm" fill="#000000">4.10</text>
<text x="463.96" y="595.34" font-size=".2mm" fill="#000000">4.11</text>
<text x="491.62" y="600.13" font-size=".2mm" fill="#000000">4.12</text>
<text x="518.27" y="668.05" font-size=".2mm" fill="#000000">4.13</text>
<text x="558.08" y="669.40" font-size=".2mm" fill="#000000">4.14</text>
<text x="588.92" y="682.05" font-size=".2mm" fill="#000000">4.15</text>
<text x="596.42" y="682.79" font-size=".2mm" fill="#000000">4.16</text>
<text x="631.57" y="701.04" font-size=".2mm" fill="#000000">4.17</text>
<text x="642.99" y="701.15" font-size=".2mm" fill="#000000">4.18</text>
<text x="179.01" y="252.82" font-size=".2mm" fill="#000000">4.1.1</text>
<text x="201.56" y="253.93" font-size=".2mm" fill="#000000">4.1.2</text>
<text x="251.80" y="279.67" font-size=".2mm" fill="#000000">4.1.3</text>
<text x="219.03" y="267.40" font-size=".2mm" fill="#000000">4.1.2.1</text>
<text x="238.73" y="280.73" font-size=".2mm" fill="#000000">4.1.2.2</text>
<text x="252.13" y="280.30" font-size=".2mm" fill="#000000">4.1.2.3</text>
</g>
<g>
</g>
</g>
</svg>