<?xml version="1.0" encoding="utf-8"?>
<!DOCTYPE svg PUBLIC "-//W3C//DTD SVG 1.1//EN" "http://www.w3.org/Graphics/SVG/1.1/DTD/svg11.dtd">
<svg version="1.1" id="Layer_1" xmlns="http://www.w3.org/2000/svg" xmlns:xlink="http://www.w3.org/1999/xlink" x="0px" y="0px" width="682mm" height="187mm" viewBox="0 0 682 187" style="background-color:#ffffff;enable-background:new 0 0 682 187;" xml:space="preserve">
<symbol id="airflow" viewBox="-12 -12 24 24">
<path d="M-4.38,10.73l4.2-3.84V3.55L-4.07,7.13l-.31-.29L-.18,3V-6.89a3.37,3.37,0,0,0-1.68.53l1.68-4.15L0-11l.21.51h0v0l1.65,4.1A3.26,3.26,0,0,0,.24-6.89v14l-.08,0L-4.07,11Z"/>
<rect fill="none" x="-12" y="-12" width="24" height="24"/>
</symbol>
<symbol id="anastomosis" viewBox="-12 -12 24 24">
<path d="M2.23-4.78l.37.24L5.22-2.78l-.47.57L2.49-3.7l-4.61,8-.24.44-.37-.34L-5.22,2.3l.55-.52,2.1,1.82L2-4.39Z"/>
<rect fill="none" x="-12" y="-12" width="24" height="24"/>
</symbol>
<symbol id="bivouac" viewBox="-12 -12 24 24">
<path d="M.25-7.66l.24.58L.54-7l3.88.48-3.31.91L6,6H8.35v.48l-16.7.07V6.05h2.64L0-7.08Zm0,1.32L-5.13,6H-4l2.07-5L.2-4l2.09,5L4.37,6H5.44Z"/>
<rect fill="none" x="-12" y="-12" width="24" height="24"/>
</symbol>
<symbol id="bones" viewBox="-12 -12 24 24">
<path d="M2.44,4.27l-.16,0H2.13a.22.22,0,0,1-.11,0l-.1-.06a.39.39,0,0,1-.09-.11l-.08-.13a1.51,1.51,0,0,1-.06-.15l-.07-.17s0-.11-.08-.19-.06-.16-.08-.21a4.75,4.75,0,0,0-.38-.71c-.18-.29-.43-.64-.74-1A11.15,11.15,0,0,0-.7.32,6.73,6.73,0,0,0-2-.64a4.12,4.12,0,0,0-1.44-.52A1.64,1.64,0,0,1-5-2.19.72.72,0,0,1-5-2.44a1,1,0,0,1,0-.29A.52.52,0,0,1-4.87-3a.54.54,0,0,1,.35-.15L-4-3.22l.46,0a.54.54,0,0,0,.27-.06A.52.52,0,0,0-3-3.56a.74.74,0,0,0,.13-.31.54.54,0,0,1,.15-.26.54.54,0,0,1,.3-.15.83.83,0,0,1,.47,0,1.11,1.11,0,0,1,.35.4A7.46,7.46,0,0,1-1-2.76q.18.42.33.72a3.22,3.22,0,0,0,.39.57L.1-1a4.77,4.77,0,0,0,.58.43c.28.18.51.33.69.43l1,.56a1.84,1.84,0,0,0,.39.23A5.29,5.29,0,0,1,3.22.9l.43.26a3.7,3.7,0,0,1,.46.3l.36.29a2.28,2.28,0,0,1,.31.32A1,1,0,0,1,5,2.4c.2.48,0,.78-.47.91h0a8.48,8.48,0,0,0-1.12.09,1,1,0,0,0-.42.44A1,1,0,0,1,2.44,4.27Z"/>
<rect fill="none" x="-12" y="-12" width="24" height="24"/>
</symbol>
<symbol id="calcite" viewBox="-12 -12 24 24">
<path d="M2.36-2.22l.05.46.34,3.91L2,2.22,1.65-1.26-2.52-.06l-.23-.7L1.89-2.08Z"/>
<rect fill="none" x="-12" y="-12" width="24" height="24"/>
</symbol>
<symbol id="cauliflower" viewBox="-12 -12 24 24">
<path d="M5.58,3.22v-3A2.12,2.12,0,0,0,6.92-.43a1.78,1.78,0,0,0,.55-1.32,1.92,1.92,0,0,0-.65-1.42,2.19,2.19,0,0,0-1.53-.59,2.21,2.21,0,0,0-1.54.59,1.78,1.78,0,0,0-.64,1.42A1.86,1.86,0,0,0,3.65-.43,2.12,2.12,0,0,0,5,.23v3H.26v-3A2.17,2.17,0,0,0,1.61-.43a1.81,1.81,0,0,0,.54-1.32,1.91,1.91,0,0,0-.64-1.42A2.21,2.21,0,0,0,0-3.76a2.21,2.21,0,0,0-1.54.59,1.82,1.82,0,0,0-.64,1.42A1.83,1.83,0,0,0-1.66-.43,2.12,2.12,0,0,0-.32.23v3H-5v-3A2.12,2.12,0,0,0-3.71-.43a1.78,1.78,0,0,0,.55-1.32,1.92,1.92,0,0,0-.65-1.42,2.19,2.19,0,0,0-1.53-.59,2.21,2.21,0,0,0-1.54.59,1.83,1.83,0,0,0-.65,1.42A1.87,1.87,0,0,0-7-.43,2.12,2.12,0,0,0-5.64.23v3H-8v.54H8V3.22Z"/>
<rect fill="none" x="-12" y="-12" width="24" height="24"/>
</symbol>
<symbol id="clay" viewBox="-12 -12 24 24">
<path d="M1.85-1.33a3,3,0,0,1,1.67.48,3.23,3.23,0,0,1,1,1l.29.51-1,.43a3.81,3.81,0,0,0-.23-.4A3.74,3.74,0,0,0,2.93,0,1.77,1.77,0,0,0,1.85-.32a2.57,2.57,0,0,0-1.1.15A.86.86,0,0,0,.51.14,2.23,2.23,0,0,1,0,.88a2.55,2.55,0,0,1-1.45.43,3.16,3.16,0,0,1-2.75-1,4.28,4.28,0,0,1-.37-.57,3.91,3.91,0,0,1-.21-.47l0-.16,1-.22a1.87,1.87,0,0,0,.45.79A2.12,2.12,0,0,0-1.51.33,1.82,1.82,0,0,0-.69.14l.21-.36A1.53,1.53,0,0,1,.17-1,3.76,3.76,0,0,1,1.85-1.33Z"/>
<rect fill="none" x="-12" y="-12" width="24" height="24"/>
</symbol>
<symbol id="crystals" viewBox="-12 -12 24 24">
<path d="M-2.94-5.38,0-.72,2.94-5.38,3.62-5,.68-.36H6.56V.36H.68L3.62,5l-.68.36L0,.72-2.94,5.38-3.62,5-.68.36H-6.56V-.36H-.68L-3.62-5Z"/>
<rect fill="none" x="-12" y="-12" width="24" height="24"/>
</symbol>
<symbol id="curtain" viewBox="-12 -12 24 24">
<path d="M3.57-6.69l.52.53L.39-3V-.33L.1-.26a3.79,3.79,0,0,0-1,.41c-.58.3-.87.65-.87,1v.07A1.61,1.61,0,0,0-.84,2.48a3.69,3.69,0,0,0,.45.24L0,2.86l.13.05L.39,3V6.12H-.39V3.51a7.65,7.65,0,0,1-.9-.46A2.19,2.19,0,0,1-2.54,1.28V1.23A2,2,0,0,1-1.31-.48,5.32,5.32,0,0,1-.39-.86V-3l-3.7-3.14.52-.53L0-3.67Z"/>
<rect fill="none" x="-12" y="-12" width="24" height="24"/>
</symbol>
<symbol id="disk" viewBox="-12 -12 24 24">
<path d="M-.09-4.19a2.43,2.43,0,0,1,1.7.64A2,2,0,0,1,2.35-2,2.09,2.09,0,0,1,1.81-.55,2.44,2.44,0,0,1,.35.23l2.18,3.6-.68.33L0,1.14-1.48,4.19l-.71-.29L-.41.25A2.53,2.53,0,0,1-1.9-.47a2,2,0,0,1-.63-1.41,2,2,0,0,1,.67-1.61,2.46,2.46,0,0,1,1.72-.7ZM1.05-3.06.56-3.49l-.69,0A1.72,1.72,0,0,0-1.29-3a1.51,1.51,0,0,0-.45,1.08,1.36,1.36,0,0,0,.51,1A1.68,1.68,0,0,0-.07-.44v0l0,0A1.7,1.7,0,0,0,1.11-.92,1.36,1.36,0,0,0,1.56-2,1.47,1.47,0,0,0,1.05-3.06Z"/>
<rect fill="none" x="-12" y="-12" width="24" height="24"/>
</symbol>
<symbol id="entrance" viewBox="-12 -12 24 24">
<path d="M4.46,9H-4.46L0-9Z"/>
<rect fill="none" x="-12" y="-12" width="24" height="24"/>
</symbol>
<symbol id="flowstone" viewBox="-12 -12 24 24">
<rect x="-6" y="-0.21" width="12" height="0.42"/>
<rect fill="none" x="-12" y="-12" width="24" height="24"/>
</symbol>
<symbol id="flutes" viewBox="-12 -12 24 24">
<path d="M-7-1H7v.72H3.87A4.7,4.7,0,0,1,2.16,1.5,4.2,4.2,0,0,1,0,2.13,3.94,3.94,0,0,1-2.19,1.5,4.18,4.18,0,0,1-3.76-.27H-7Zm4.17.72A3.15,3.15,0,0,0-1.65,1,3.21,3.21,0,0,0,0,1.41,3.49,3.49,0,0,0,1.6,1,3.68,3.68,0,0,0,3-.27Z"/>
<rect fill="none" x="-12" y="-12" width="24" height="24"/>
</symbol>
<symbol id="gradient" viewBox="-12 -12 24 24">
<path d="M2.58-3.83,0-10-2.58-3.83A4.74,4.74,0,0,1-.17-4.5V10H.25V-4.5A6.65,6.65,0,0,1,2.58-3.83Z"/>
<rect fill="none" x="-12" y="-12" width="24" height="24"/>
</symbol>
<symbol id="guano" viewBox="-12 -12 24 24">
<path d="M-3.24-3a2.15,2.15,0,0,1,1.57.55A3.93,3.93,0,0,1-.59.24a4.32,4.32,0,0,1,2.75-2.3,2.68,2.68,0,0,1,2.23.36A2.36,2.36,0,0,1,5.5.19l-.79,0a1.72,1.72,0,0,0-.79-1.37,1.94,1.94,0,0,0-1.55-.24A3.53,3.53,0,0,0,.48,0,6.63,6.63,0,0,0-.69,3l-.79-.09a10.72,10.72,0,0,0,0-3.16A3.21,3.21,0,0,0-2.22-2,1.44,1.44,0,0,0-3.37-2.3,3.45,3.45,0,0,0-5-1.54l-.5-.55a4.29,4.29,0,0,1,2-.91A.9.9,0,0,1-3.24-3Z"/>
<rect fill="none" x="-12" y="-12" width="24" height="24"/>
</symbol>
<symbol id="helictites" viewBox="-12 -12 24 24">
<path d="M-4.59-7.92h.79v7.7l3.41,0V-7.92H.39V-.17L4.2-.12h.39v8H3.8V.6L.39.55V7.92H-.39V.55L-4.2.5l-.39,0v-8.4Z"/>
<rect fill="none" x="-12" y="-12" width="24" height="24"/>
</symbol>
<symbol id="human" viewBox="-12 -12 24 24">
<path d="M-3.59-3.29A5.13,5.13,0,0,1,0-4.66,5.13,5.13,0,0,1,3.59-3.29,4.3,4.3,0,0,1,5.09,0a4.3,4.3,0,0,1-1.5,3.29A5.13,5.13,0,0,1,0,4.66,5.13,5.13,0,0,1-3.59,3.29,4.3,4.3,0,0,1-5.09,0,4.3,4.3,0,0,1-3.59-3.29Zm.28.77A3.68,3.68,0,0,0-4.3,0a3.62,3.62,0,0,0,1,2.57L-.5.05ZM0-3.94A4.42,4.42,0,0,0-2.75-3L.16-.36H4.28A3.62,3.62,0,0,0,2.91-2.9,4.38,4.38,0,0,0,0-3.94ZM.16.46-2.7,3.07A4.42,4.42,0,0,0,0,3.94a4.37,4.37,0,0,0,2.87-1A3.78,3.78,0,0,0,4.28.46Z"/>
<rect fill="none" x="-12" y="-12" width="24" height="24"/>
</symbol>
<symbol id="karren" viewBox="-12 -12 24 24">
<path d="M1-5.84h0a1.37,1.37,0,0,1,1.06.68A3.33,3.33,0,0,1,2.5-3.79,25.79,25.79,0,0,1,2.36,0a18.61,18.61,0,0,0-.08,3.72,2.68,2.68,0,0,0,.41,1.2,1.13,1.13,0,0,0,.79.5A.92.92,0,0,0,4,4.94a4.43,4.43,0,0,0,.47-1.22c.16-.64.36-1.86.59-3.66a26.71,26.71,0,0,1,.64-3.69,4.62,4.62,0,0,1,.57-1.29,1.34,1.34,0,0,1,1-.59h0A1.28,1.28,0,0,1,8.37-5a2.17,2.17,0,0,1,.39,1.15A19.91,19.91,0,0,1,8.54-.53a21.51,21.51,0,0,0-.2,3.64A2.64,2.64,0,0,0,9.45,5.36,1.91,1.91,0,0,0,10.88,5a3.84,3.84,0,0,0,.7-1l.42.2-.1.18-.12.21-.11.18L11.52,5a.94.94,0,0,1-.14.16c-.06.07-.13.12-.19.18a2.5,2.5,0,0,1-1.85.41H9.29l0,0A3.06,3.06,0,0,1,7.87,3.13a22.11,22.11,0,0,1,.2-3.7,18.17,18.17,0,0,0,.22-3.28A1.85,1.85,0,0,0,8-4.79a.77.77,0,0,0-.67-.3.93.93,0,0,0-.64.42,4.51,4.51,0,0,0-.51,1.15A26.26,26.26,0,0,0,5.54.1c-.24,1.83-.45,3.07-.61,3.72a5.38,5.38,0,0,1-.51,1.34,1.33,1.33,0,0,1-.89.68H3.47A1.58,1.58,0,0,1,2.3,5.16a3.29,3.29,0,0,1-.49-1.4A20.27,20.27,0,0,1,1.89,0,23.45,23.45,0,0,0,2-3.75a2.94,2.94,0,0,0-.32-1.19A.93.93,0,0,0,1-5.42,1.1,1.1,0,0,0,.19-5,3.69,3.69,0,0,0-.43-3.76,20.78,20.78,0,0,0-1.07.07c-.2,2-.37,3.32-.49,3.86A4.48,4.48,0,0,1-2,5.26,1.06,1.06,0,0,1-3,5.81h0a1.9,1.9,0,0,1-1.29-.67,2.7,2.7,0,0,1-.58-1.31,14.92,14.92,0,0,1,0-3.6q0-.12.06-.54c0-.28,0-.47,0-.57s0-.28,0-.52,0-.42,0-.55,0-.28,0-.47,0-.36,0-.51,0-.29,0-.43A3.09,3.09,0,0,0-5-4.62a1.19,1.19,0,0,0-.67-.6,1.5,1.5,0,0,0-1.2.9A7,7,0,0,0-7.41-2.1c0,.39-.1,1-.14,1.76s-.11,1.47-.18,2.08A9.61,9.61,0,0,1-8,3.32h0l0,0A2.81,2.81,0,0,1-9.2,4.62a1.82,1.82,0,0,1-1.35.15A1.94,1.94,0,0,1-11.61,4,2.39,2.39,0,0,1-12,2.56l.47,0a1.92,1.92,0,0,0,.31,1.16,1.47,1.47,0,0,0,.81.62,1.3,1.3,0,0,0,1-.11A2.32,2.32,0,0,0-8.5,3.18a7.53,7.53,0,0,0,.29-1.5Q-8.1.8-8-.36c0-.78.1-1.37.16-1.78A7.23,7.23,0,0,1-7.28-4.5,1.93,1.93,0,0,1-5.65-5.66h.05l0,0a1.59,1.59,0,0,1,1,.84,3.47,3.47,0,0,1,.34,1.41,4.91,4.91,0,0,1,0,.57v.54c0,.15,0,.37,0,.66s0,.47,0,.58,0,.33-.06.68,0,.56-.06.63a14.78,14.78,0,0,0,0,3.49,2.58,2.58,0,0,0,.5,1.13,1.57,1.57,0,0,0,1,.5A.61.61,0,0,0-2.44,5,3.89,3.89,0,0,0-2,3.85C-1.9,3.31-1.74,2-1.53,0A20.65,20.65,0,0,1-.86-3.89,3.89,3.89,0,0,1-.18-5.26,1.58,1.58,0,0,1,1-5.84Z"/>
<rect fill="none" x="-12" y="-12" width="24" height="24"/>
</symbol>
<symbol id="moonmilk" viewBox="-12 -12 24 24">
<path d="M-4.78-3.06a3.39,3.39,0,0,1,1.5.34,2.48,2.48,0,0,1,1.1,1,3.74,3.74,0,0,1,1.62-.8,3.52,3.52,0,0,1,1.71,0,2.9,2.9,0,0,1,1.39.77A2.49,2.49,0,0,1,3.25-.37,4,4,0,0,1,5-.76a3.58,3.58,0,0,1,1.6.36A2.84,2.84,0,0,1,7.88.92a2.32,2.32,0,0,1,0,1.88.34.34,0,0,1-.37.26A.36.36,0,0,1,7.25,3a.32.32,0,0,1-.12-.25.21.21,0,0,1,0-.12,2,2,0,0,0,0-1.43,2,2,0,0,0-1-.9A2.81,2.81,0,0,0,4.68,0,2.78,2.78,0,0,0,3.12.56L2.46.25A1.7,1.7,0,0,0,2.15-1.1,2.15,2.15,0,0,0,1-1.81a2.85,2.85,0,0,0-1.58.06A3,3,0,0,0-2-.83l-.71-.12A1.74,1.74,0,0,0-3.55-2a2.36,2.36,0,0,0-1.39-.27,3.08,3.08,0,0,0-1.45.53A2.33,2.33,0,0,0-7.32-.56a.35.35,0,0,1-.37.24A.39.39,0,0,1-8-.42a.33.33,0,0,1-.1-.26v-.1A3,3,0,0,1-6.89-2.35,4,4,0,0,1-5-3Z"/>
<rect fill="none" x="-12" y="-12" width="24" height="24"/>
</symbol>
<symbol id="narrow" viewBox="-12 -12 24 24">
<path d="M-1.5,5V-5h0.64V5H-1.5z"/>
<path d="M0.86,5V-5H1.5V5H0.86z"/>
<rect fill="none" x="-12" y="-12" width="24" height="24"/>
</symbol>
<symbol id="paleoflow" viewBox="-12 -12 24 24">
<path d="M.38-12V.17A1.9,1.9,0,0,0,1,0,1.57,1.57,0,0,0,1.7-.72a1.86,1.86,0,0,0,.23-1c0-.09,0-.14.08-.16a.92.92,0,0,1,.24,0,.52.52,0,0,0,.25,0h.08A2.48,2.48,0,0,1,2,0,2.5,2.5,0,0,1,.38.77V7.21H2.09L0,12-1.8,7.23c.07,0,.59,0,1.53,0V.77A3,3,0,0,1-1.35.43a2.16,2.16,0,0,1-1-1,2.38,2.38,0,0,1-.24-1.33l.67,0a2,2,0,0,0,.15,1,1.73,1.73,0,0,0,.59.67A2.14,2.14,0,0,0-.27.16V-12Z"/>
<rect fill="none" x="-12" y="-12" width="24" height="24"/>
</symbol>
<symbol id="rain" viewBox="-12 -12 24 24">
<path d="M-4.14-6.34h0.71v4.69h-0.71V-6.34z"/>
<path d="M-0.35-6.34h0.71v4.69h-0.71V-6.34z"/>
<path d="M3.43-6.34h0.71v4.69H3.43V-6.34z"/>
<path d="M-4.14,1.65h0.71v4.69h-0.71V1.65z"/>
<path d="M-0.35,1.65h0.71v4.69h-0.71V1.65z"/>
<path d="M3.43,1.65h0.71v4.69H3.43V1.65z"/>
<rect fill="none" x="-12" y="-12" width="24" height="24"/>
</symbol>
<symbol id="rats" viewBox="-12 -12 24 24">
<path d="M8.78-2.32,7-2.27c-.51-.17-.65-.56-1.46-.45l-.25.45C3.59-2.75,2.59-3.66.56-3.62l-1.35.3A4.89,4.89,0,0,0-4.24,1.57c-.68.6-2.58.86-3.39.94a6.84,6.84,0,0,0-1.62.39,4.91,4.91,0,0,0-1,.52A1.75,1.75,0,0,0-11,4.61a1.16,1.16,0,0,0,.59,1.48,1.3,1.3,0,0,1,.14.12c.16-.52-.35-.92-.2-1.42a3.35,3.35,0,0,1,.27-.45,3.18,3.18,0,0,1,1.79-1c.63-.12,1.27-.22,1.91-.3.48-.07,1,0,1.4-.12A6.94,6.94,0,0,1-4,2.82,30.64,30.64,0,0,0,.41,2.69l2.16.15c.1-.09,0,0,.1-.15a.87.87,0,0,0-.9-.55c.86-1,2.27-.37,3.1-.05.5.19,1,0,1.25.4.11-.1.1-.07.15-.25.3,0,.31.07.6.15-.06-.49-.34-.64-1-.6a.78.78,0,0,1,0-.55C6.3.56,7.29.73,8.13.43a13.78,13.78,0,0,0,2.15-.9l.6-.85v-.2A16.9,16.9,0,0,0,8.78-2.32Z"/>
<rect fill="none" x="-12" y="-12" width="24" height="24"/>
</symbol>
<symbol id="sand" viewBox="-12 -12 24 24">
<path d="M-1.58,0.83c0.23,0.2,0.35,0.44,0.36,0.73c0.01,0.29-0.08,0.54-0.28,0.75c-0.2,0.21-0.46,0.32-0.78,0.33c-0.32,0.01-0.6-0.08-0.83-0.26C-3.36,2.19-3.49,1.95-3.5,1.67C-3.51,1.38-3.41,1.12-3.2,0.9c0.21-0.22,0.48-0.34,0.8-0.35C-2.08,0.54-1.81,0.64-1.58,0.83z"/>
<path d="M0.08-2.36c0.23,0.2,0.35,0.44,0.36,0.73c0.01,0.29-0.08,0.54-0.28,0.75c-0.2,0.21-0.46,0.32-0.78,0.33c-0.32,0.01-0.59-0.07-0.83-0.26s-0.37-0.42-0.38-0.71c-0.01-0.29,0.09-0.54,0.3-0.76c0.21-0.22,0.48-0.33,0.8-0.35C-0.42-2.65-0.14-2.56,0.08-2.36z"/>
<path d="M3.12,0.55c0.23,0.2,0.35,0.43,0.38,0.71c0.02,0.28-0.07,0.53-0.28,0.75C3,2.23,2.73,2.35,2.42,2.36C2.1,2.37,1.82,2.28,1.58,2.08C1.34,1.88,1.22,1.64,1.2,1.35c-0.01-0.29,0.09-0.54,0.3-0.75C1.72,0.4,1.99,0.29,2.3,0.28S2.89,0.36,3.12,0.55z"/>
<rect fill="none" x="-12" y="-12" width="24" height="24"/>
</symbol>
<symbol  id="scallops" viewBox="-12 -12 24 24">
<path d="M.05-3.74l.21,0A2.35,2.35,0,0,1,1.74-3a2,2,0,0,1,.59,1.55v0l0,0A9.59,9.59,0,0,1-.08,3.27l-.39.47-.27-.55A14.26,14.26,0,0,1-2.33-1.89v-.05l0-.05A2,2,0,0,1-1.44-3.3,2.42,2.42,0,0,1,.05-3.74ZM-.11-3A1.44,1.44,0,0,0-1.55-1.89,13.06,13.06,0,0,0-.29,2.33,8.6,8.6,0,0,0,1.55-1.54a1.41,1.41,0,0,0-.38-1A1.62,1.62,0,0,0,.18-3Z"/>
<rect fill="none" x="-12" y="-12" width="24" height="24"/>
</symbol>
<symbol  id="sink" viewBox="-12 -12 24 24">
<path d="M.72,9.41H.9c1.94,0,3.26-.54,3.94-1.51a3.61,3.61,0,0,0,.33-.69,2,2,0,0,0,.11-.54V6.46l.69,0a2.8,2.8,0,0,1-.58,1.78C4.58,9.39,3.1,10,.93,10H-.93q-3.25,0-4.46-1.8a2.74,2.74,0,0,1-.43-.83A2.37,2.37,0,0,1-6,6.67V6.43l.68,0A2.27,2.27,0,0,0-4.84,7.9c.68,1,2,1.47,3.93,1.48l.5,0ZM-1.46-10a.68.68,0,0,0,.16.41A2.77,2.77,0,0,0-.51-9l0,0a3.63,3.63,0,0,1,1,.7,1.15,1.15,0,0,1,.34.88c0,.58-.53,1.14-1.49,1.68-.68.42-1,.79-1,1.11s.3.61.84,1h0Q.61-2.86.46-1.78a3.51,3.51,0,0,1-1.55,2,.61.61,0,0,0-.26.41,1.67,1.67,0,0,0,.1.51,5.3,5.3,0,0,1,.32,1L.56,1.9.46,8.06-3.4,2.54l1.73-.28A6.16,6.16,0,0,0-2,1.39,1.7,1.7,0,0,1-2.09.58a1.21,1.21,0,0,1,.53-.82h0v0C-.75-.86-.33-1.38-.28-1.85s-.23-.87-.91-1.27h0C-2-3.6-2.37-4.1-2.4-4.61S-2-5.74-1.09-6.29C-.34-6.72.06-7.1.09-7.44a.67.67,0,0,0-.18-.43,3.17,3.17,0,0,0-.79-.58,2.93,2.93,0,0,1-1-.67A1.16,1.16,0,0,1-2.17-10Z"/>
<rect fill="none" x="-12" y="-12" width="24" height="24"/>
</symbol>
<symbol  id="spring" viewBox="-12 -12 24 24">
<path d="M-1.34-9.86,2.52-4.34.78-4.06a8,8,0,0,0,.29.87,1.4,1.4,0,0,1,.13.79,1.3,1.3,0,0,1-.52.84l0,0v0C-.13-.95-.55-.42-.61,0S-.37.91.31,1.3l0,0c.75.46,1.14,1,1.18,1.46S1.12,3.92.21,4.46C-.54,4.9-.94,5.29-1,5.64a.74.74,0,0,0,.18.43A3.2,3.2,0,0,0,0,6.62a3,3,0,0,1,1,.7,1.14,1.14,0,0,1,.31.86A1.74,1.74,0,0,1,.71,9.26H.92c1.92,0,3.22-.52,3.9-1.51a2.05,2.05,0,0,0,.35-.67,2.59,2.59,0,0,0,.1-.55l0-.19.65,0a2.84,2.84,0,0,1-.55,1.8C4.58,9.26,3.08,9.85.92,9.86H-.92c-2.17,0-3.66-.6-4.49-1.77a3.65,3.65,0,0,1-.4-.85A2.43,2.43,0,0,1-6,6.53V6.29l.66,0a2.08,2.08,0,0,0,.47,1.41c.68,1,2,1.5,3.91,1.51H-.4c.62-.43.94-.8,1-1.1a.76.76,0,0,0-.16-.43,3.25,3.25,0,0,0-.79-.51v0a3.8,3.8,0,0,1-1-.7,1.15,1.15,0,0,1-.34-.91q.06-.84,1.5-1.68c.68-.4,1-.77,1-1.1S.49,2.21,0,1.87c0,0,0,0,0,0C-1,1.32-1.44.69-1.34,0a3.58,3.58,0,0,1,1.55-2,.54.54,0,0,0,.23-.38A1.28,1.28,0,0,0,.37-3a4.57,4.57,0,0,1-.32-1l-1.49.24Z"/>
<rect fill="none" x="-12" y="-12" width="24" height="24"/>
</symbol>
<symbol  id="stalactite" viewBox="-12 -12 24 24">
<path d="M3.57-6.69l.52.53L.39-3V6.12H-.39V-3l-3.7-3.14.52-.53L0-3.67Z"/>
<rect fill="none" x="-12" y="-12" width="24" height="24"/>
</symbol>
<symbol  id="stalagmite" viewBox="-12 -12 24 24">
<path d="M.38-6.42V2.75L4.11,5.89l-.56.53L0,3.4l-3.57,3-.53-.53,3.7-3.14V-6.42Z"/>
<rect fill="none" x="-12" y="-12" width="24" height="24"/>
</symbol>
<symbol  id="stalagnate" viewBox="-12 -12 24 24">
<path d="M3.55-8.46l.56.53L.38-4.78v9L4.11,7.36l-.56.53L0,4.86l-3.57,3-.53-.53,3.7-3.14v-9l-3.7-3.15.53-.53L0-5.43Z"/>
<rect fill="none" x="-12" y="-12" width="24" height="24"/>
</symbol>
<symbol  id="straws" viewBox="-12 -12 24 24">
<path d="M-10.89-2.76H10.89V-2H9.63V.46H8.84V-2H8.29v5.6H7.5V-2H5.56V.7H4.77V-2H2.07V2.38H1.29V-2H-.1v3H-.89V-2H-3.2V4.11H-4V-2H-6.22L-6.16.75l-.79,0L-7-2H-8.32V2.33H-9.1V-2h-1.79Z"/>
<rect fill="none" x="-12" y="-12" width="24" height="24"/>
</symbol>
<symbol  id="water" viewBox="-12 -12 24 24">
<path d="M-1.72-9.86,2.11-4.32.38-4.06a6.49,6.49,0,0,0,.29.89,1.5,1.5,0,0,1,.13.79,1.2,1.2,0,0,1-.5.82h0l0,0C-.54-.94-1-.42-1,.05s.24.89.92,1.27h0c.77.48,1.17,1,1.19,1.49S.71,3.94-.2,4.49c-.75.43-1.13.81-1.15,1.15a.51.51,0,0,0,.18.43,2.66,2.66,0,0,0,.76.58,2.93,2.93,0,0,1,1,.67,1.16,1.16,0,0,1,.29.89C.84,8.75.42,9.3-.41,9.86l-.44-.55c.66-.45,1-.83,1-1.15A.47.47,0,0,0,0,7.75a2.84,2.84,0,0,0-.78-.53h0a3.87,3.87,0,0,1-1-.69,1.24,1.24,0,0,1-.34-.91c0-.58.54-1.14,1.52-1.68.66-.42,1-.79,1-1.11s-.3-.61-.84-1h0Q-1.9,1.06-1.74,0a3.44,3.44,0,0,1,1.54-2,.67.67,0,0,0,.27-.41A1.11,1.11,0,0,0,0-3a4.33,4.33,0,0,1-.31-1l-1.5.24Z"/>
<rect fill="none" x="-12" y="-12" width="24" height="24"/>
</symbol><symbol  id="tree" viewBox="-12 -12 24 24">
<path d="M7.4-5.04A4.271,4.271,0,0,0,7.7-6.627a4.3,4.3,0,0,0-4.3-4.3A4.279,4.279,0,0,0,.636-9.914,4.293,4.293,0,0,0-3.045-12a4.3,4.3,0,0,0-4.3,4.3,4.27,4.27,0,0,0,.421,1.845,4.3,4.3,0,0,0-3.645,4.244,4.3,4.3,0,0,0,4.3,4.3A4.282,4.282,0,0,0-3.946,2L-1.175,5.23h0L-1.612,12H.982L.757,6.376,4.119,2.827v0a4.272,4.272,0,0,0,2.15.58,4.3,4.3,0,0,0,4.3-4.3A4.3,4.3,0,0,0,7.4-5.04ZM-3.346,1.538h0A4.346,4.346,0,0,0-2.7.788a4.266,4.266,0,0,0,1.765.753l-.135,2.087ZM.69,4.7.563,1.544A4.258,4.258,0,0,0,2.321.805,4.3,4.3,0,0,0,3.378,2.279Z"/>
<rect fill="none" x="-12" y="-12" width="24" height="24"/>
</symbol><g>
<desc></desc>
<g>
<line fill="none" stroke="#dddddd" stroke-width="0.1mm" x1="0.00" y1="137.00" x2="682.00" y2="137.00" />
<text x="679.20" y="136.80" font-size=".2mm" fill="#000000">0m</text>
<line fill="none" stroke="#dddddd" stroke-width="0.1mm" x1="0.00" y1="87.00" x2="682.00" y2="87.00" />
<text x="679.20" y="86.80" font-size=".2mm" fill="#000000">5m</text>
<line fill="none" stroke="#dddddd" stroke-width="0.1mm" x1="0.00" y1="37.00" x2="682.00" y2="37.00" />
<text x="679.20" y="36.80" font-size=".2mm" fill="#000000">10m</text>
</g>
<g>
<path fill="none" stroke="#000000" stroke-width="0.06mm" d="M73.38244,152.57918 C74.30714,149.854 75.83101,148.61311 77.93913,146.75371 C78.83625,145.96245 79.854706,145.29756 80.656906,144.41022 C83.95974,140.75677 84.71669,139.74837 86.50838,135.99461 C86.819984,135.34177 86.99345,134.49745 86.884125,133.7734 C86.84823,133.53568 86.781166,133.30345 86.71739,133.07162 C86.698364,133.00246 86.697044,132.91039 86.63626,132.87228 C86.40933,132.73009 86.14348,132.66249 85.89708,132.55759 L85.89708,132.55759" /><path fill="none" stroke="#000000" stroke-width="0.06mm" d="M87.21988,134.05882 C88.667114,133.26814 90.04791,132.34135 91.561584,131.68677 C92.76973,131.1643 94.06871,130.87946 95.34214,130.54639 C98.34002,129.76228 101.36188,129.07295 104.37175,128.33624 L104.37175,128.33624" /><path fill="none" stroke="#000000" stroke-width="0.06mm" d="M87.963036,108.18087 C94.60074,107.84207 97.0076,108.33888 102.33977,106.73628 C103.045906,106.52405 103.69442,106.153496 104.37175,105.86211 L104.37175,105.86211" /><path fill="none" stroke="#000000" stroke-width="0.06mm" d="M103.72661,105.66245 C109.00448,102.15001 102.99961,105.9808 114.67491,100.328094 C117.632645,98.89609 118.12952,97.65097 120.915596,95.27928 C125.06359,91.748245 123.304504,94.04857 126.17413,90.55995 C129.27682,86.787994 124.27921,91.84697 130.7126,85.35486 C130.9444,85.12094 131.22328,84.93176 131.5141,84.77725 C132.96582,84.006 134.82773,83.30539 136.4902,83.31426 C140.06699,83.333374 137.30183,83.51555 141.43486,83.88866 C143.75769,84.09834 146.00125,83.23099 147.5405,81.46913 C147.85043,81.11438 148.17218,80.75268 148.37064,80.32547 C149.94171,76.943726 151.24713,73.44214 152.83669,70.06905 C153.07816,69.55665 153.48105,69.13495 153.84766,68.703125 C154.93524,67.42204 156.2308,67.05071 157.66312,66.15262 C160.21597,64.55194 158.28998,65.066246 160.85992,64.71256 L160.85992,64.71256" /><path fill="none" stroke="#000000" stroke-width="0.06mm" d="M161.30823,64.60167 C164.45134,65.63219 163.41776,65.428925 168.50314,65.73129 C169.0227,65.762184 169.54668,65.68414 170.05777,65.58574 C172.95671,65.02759 170.88554,65.23669 173.32013,64.536095 C174.40695,64.22334 175.53586,64.06415 176.61397,63.72252 C178.99854,62.966904 182.00421,60.93277 183.78824,59.81791 C184.60664,59.30648 185.34134,58.664505 186.17807,58.183617 C189.6819,56.16986 189.00697,56.815414 191.58197,55.510986 C193.61063,54.483322 192.55167,54.684204 193.93245,54.53885 L193.93245,54.53885" /><path fill="none" stroke="#000000" stroke-width="0.06mm" d="M194.74957,70.46083 C194.99951,70.03874 195.20558,69.58738 195.49939,69.19455 C196.26385,68.17244 198.03706,66.36351 199.14026,65.90679 C199.4482,65.77931 200.17407,65.56978 200.52165,65.61874 C203.03334,65.9725 205.53728,66.38534 208.03075,66.85048 C208.35785,66.9115 208.6738,67.03868 208.9679,67.194336 C211.24063,68.39725 211.7061,69.10437 214.2039,69.78104 C217.70221,70.72874 216.67195,69.836464 220.3889,70.20958 C223.56,70.52791 225.30566,70.887115 228.02304,72.20892 C229.72278,73.03572 229.49681,72.84132 230.09372,73.86466 L230.09372,73.86466" /><path fill="none" stroke="#000000" stroke-width="0.06mm" d="M232.4917,63.283485 C238.84964,62.171112 244.41727,64.738365 250.53944,65.97208 C275.80188,71.062836 230.06633,59.688942 273.18652,70.997826 L273.18652,70.997826" /><path fill="none" stroke="#000000" stroke-width="0.06mm" d="M231.46613,73.98545 C244.5216,77.186485 230.48111,74.08876 252.40619,76.677704 C256.38184,77.14716 260.3393,77.80449 264.2555,78.634995 C266.89743,79.19527 270.32516,80.84576 272.84772,81.82073 C273.48218,82.065956 275.00537,82.14928 275.38626,82.19031 L275.38626,82.19031" /><path fill="none" stroke="#000000" stroke-width="0.06mm" d="M240.69606,71.978836 L240.9953,72.15921" /><path fill="none" stroke="#000000" stroke-width="0.06mm" d="M248.38022,70.40328 L248.54572,70.435" /><path fill="none" stroke="#000000" stroke-width="0.06mm" d="M253.10664,69.199295 L253.19781,69.02294" /><path fill="none" stroke="#000000" stroke-width="0.06mm" d="M254.39972,67.66833 L254.69897,67.774376" /><path fill="none" stroke="#000000" stroke-width="0.06mm" d="M256.86697,74.31247 L256.86896,74.3442" /><path fill="none" stroke="#000000" stroke-width="0.06mm" d="M259.80984,72.45448 L259.73752,72.605125" /><path fill="none" stroke="#000000" stroke-width="0.06mm" d="M262.18793,70.93837 L262.05615,70.99983" /><path fill="none" stroke="#000000" stroke-width="0.06mm" d="M262.21765,73.0639 L261.8778,74.04692" /><path fill="none" stroke="#000000" stroke-width="0.06mm" d="M260.0625,76.20018 L260.0645,75.97922" /><path fill="none" stroke="#000000" stroke-width="0.06mm" d="M259.57202,71.503204 L258.92007,71.56466" /><path fill="none" stroke="#000000" stroke-width="0.06mm" d="M255.84143,69.719536 L255.35295,69.79586" /><path fill="none" stroke="#000000" stroke-width="0.06mm" d="M252.27432,71.14647 L251.50345,71.54979" /><path fill="none" stroke="#000000" stroke-width="0.06mm" d="M251.1893,71.88965 L251.23592,72.010574" /><path fill="none" stroke="#000000" stroke-width="0.06mm" d="M252.0811,67.69805 L251.57776,68.68107" /><path fill="none" stroke="#000000" stroke-width="0.06mm" d="M249.65842,74.4611 L250.00229,75.02794" /><path fill="none" stroke="#000000" stroke-width="0.06mm" d="M252.57156,72.35043 L253.13837,72.619995" /><path fill="none" stroke="#000000" stroke-width="0.06mm" d="M257.625,70.95324 L257.8499,71.014694" /><path fill="none" stroke="#000000" stroke-width="0.06mm" d="M260.25574,68.545296 L260.21313,69.45399" /><path fill="none" stroke="#000000" stroke-width="0.06mm" d="M259.1856,73.91113 L258.92007,74.388794" /><path fill="none" stroke="#000000" stroke-width="0.06mm" d="M256.64404,73.65845 L255.7691,74.091515" /><path fill="none" stroke="#000000" stroke-width="0.06mm" d="M256.55484,70.016815 L256.48254,70.07828" /><path fill="none" stroke="#000000" stroke-width="0.06mm" d="M257.84793,70.2695 C257.46353,72.01286 257.58408,70.97446 257.77362,73.40576 L257.77362,73.40576" /><path fill="none" stroke="#000000" stroke-width="0.06mm" d="M256.8224,72.2018 L256.8244,72.23353" /><path fill="none" stroke="#000000" stroke-width="0.06mm" d="M257.1642,69.362816 L257.19595,69.0378" /><path fill="none" stroke="#000000" stroke-width="0.06mm" d="M254.22136,69.8979 C253.16783,70.35248 252.64279,70.98912 251.93248,71.84506 L251.93248,71.84506" /><path fill="none" stroke="#000000" stroke-width="0.06mm" d="M250.60965,74.10438 L250.79001,74.596886" /><path fill="none" stroke="#000000" stroke-width="0.06mm" d="M253.56738,74.00032 L254.55035,74.165825" /><path fill="none" stroke="#000000" stroke-width="0.06mm" d="M258.68027,74.2976 L259.08356,74.35907" /><path fill="none" stroke="#000000" stroke-width="0.06mm" d="M262.88647,73.10849 L262.8885,72.97672" /><path fill="none" stroke="#000000" stroke-width="0.06mm" d="M262.81216,69.79385 L262.05615,70.03368" /><path fill="none" stroke="#000000" stroke-width="0.06mm" d="M272.35422,70.52219 C275.097,71.78225 274.878,71.82959 278.83783,72.48959 C279.72162,72.636894 280.63538,72.721596 281.5234,72.60263 C284.49664,72.204346 287.3973,71.35628 290.36874,70.94492 C292.5469,70.64339 294.76016,70.685776 296.9482,70.46727 C297.1858,70.44354 299.898,70.30197 300.7791,69.657005 C301.77872,68.92534 301.46017,67.28253 301.02084,66.366844 C299.9985,64.23594 298.93893,62.11129 297.66165,60.122704 C296.3268,58.044586 294.69186,56.175346 293.20697,54.201675 L293.20697,54.201675" /><path fill="none" stroke="#000000" stroke-width="0.06mm" d="M298.6765,52.953125 L298.67853,52.94026" /><path fill="none" stroke="#000000" stroke-width="0.06mm" d="M298.67654,52.923393 C299.98712,53.80638 300.52667,55.49877 301.90616,56.296227 C306.26987,58.818764 306.72476,58.359894 312.03152,61.073685 C313.3647,61.755432 314.2964,62.619003 315.38254,63.55104 L315.38254,63.55104" /><path fill="none" stroke="#000000" stroke-width="0.06mm" d="M311.247,60.336777 C311.68018,60.467316 312.10715,60.62043 312.5465,60.728394 C312.86453,60.80654 313.32098,60.77189 313.6112,60.6043 C317.19574,58.534218 320.67975,56.28398 324.34134,54.35338 C326.279,53.331726 328.39847,52.6951 330.38055,51.762535 C332.8436,50.60367 333.66724,49.66902 335.86002,49.124977 C336.06757,49.07348 336.28616,49.088318 336.4992,49.069992 L336.4992,49.069992" /><path fill="none" stroke="#000000" stroke-width="0.02mm" d="M290.54825,47.40645 C290.864,47.282425 291.4323,46.841652 291.88385,46.969162 C292.59064,47.168716 292.85086,48.472443 292.94592,49.0623 C293.02017,49.523285 292.92374,49.647995 293.08847,50.010063 C293.15308,50.152084 293.44653,50.62805 293.65225,50.605186 C294.06662,50.559113 294.46634,50.424797 294.87338,50.334618 L294.87338,50.334618" /><path fill="none" stroke="#000000" stroke-width="0.02mm" d="M294.97742,54.21409 L295.21722,54.42418" /><path fill="none" stroke="#000000" stroke-width="0.06mm" d="M275.22452,82.09865 C276.44507,81.347984 277.81226,81.67148 279.12668,81.29828 C281.40195,80.65227 283.59637,79.74394 285.8651,79.0755 C289.91083,77.88353 288.50537,78.81931 293.3788,78.101364 C295.65686,77.76576 297.88818,77.163124 300.15567,76.76247 C300.42072,76.71563 300.69855,76.71181 300.96313,76.76122 C302.2688,77.0051 303.54575,77.38751 304.8499,77.63927 C305.43665,77.75252 306.4879,77.4922 306.9331,77.392296 C308.20154,77.107635 309.4568,76.76582 310.72644,76.486824 C313.49847,75.877686 309.3529,77.01758 312.75354,76.034195 L312.75354,76.034195" /><path fill="none" stroke="#000000" stroke-width="0.06mm" d="M312.35226,75.855835 C315.39304,75.726616 316.25787,75.74664 319.48083,75.33052 C319.7613,75.29431 320.0326,75.19934 320.29675,75.09848 C322.01184,74.4436 323.74252,73.82161 325.41504,73.06464 C326.5711,72.54143 327.1559,71.78945 328.14902,71.04737 C328.73807,70.60718 330.4887,70.21161 330.71048,70.152985 C331.43036,69.96267 332.01575,70.76023 332.49838,71.099304 C333.0901,71.51504 333.8425,71.74399 334.56525,71.6134 C336.02225,71.35017 336.9645,70.36033 338.36133,69.81053 C340.19745,69.08782 342.09573,68.53114 343.9859,67.9646 C345.40503,67.539246 346.22397,67.99267 347.69302,68.07765 C350.37775,68.23296 349.99832,67.89676 352.97833,67.5081 C354.3181,67.33336 357.82477,68.51783 357.86322,68.52577 C359.36566,68.836006 360.74512,68.24783 362.20248,68.0282 C362.8587,67.929306 363.5231,67.87979 364.18652,67.863464 C364.75912,67.84937 364.97275,67.988235 365.48453,68.06574 C365.94485,68.13546 366.40796,68.18561 366.86966,68.245544 L366.86966,68.245544" /><path fill="none" stroke="#000000" stroke-width="0.06mm" d="M334.39642,49.2472 C335.24722,49.354057 336.69894,49.21205 337.50537,49.862663 C339.0402,51.100883 340.10333,52.633804 342.0536,53.198776 C342.59567,53.355812 343.4592,53.53978 344.09555,53.4989 C346.5311,53.3424 349.7142,49.32553 350.99704,48.1308 C352.39517,46.82869 356.50598,47.887405 357.96735,48.119087 L357.96735,48.119087" /><path fill="none" stroke="#000000" stroke-width="0.06mm" d="M366.8505,68.58919 C368.20074,68.02062 369.5619,67.49037 371.0537,67.720856 C371.38614,67.77221 371.52286,67.994644 371.3367,68.288826 C371.17737,68.54071 370.81332,68.6679 370.74313,68.95758 C370.7102,69.09352 371.0225,69.092804 371.1537,69.04436 C372.0833,68.70114 372.92865,68.153915 373.85727,67.80789 C374.87198,67.42979 378.2339,66.892525 378.85928,66.779526 L378.85928,66.779526" /><path fill="none" stroke="#000000" stroke-width="0.06mm" d="M401.7722,20.716011 L401.79883,20.719177" /><path fill="none" stroke="#000000" stroke-width="0.06mm" d="M353.8783,47.437546 C355.92087,47.641853 357.9724,47.770752 360.006,48.050453 C362.09283,48.337463 363.93445,50.097145 365.95905,50.182846 C373.0716,50.483925 373.28278,50.108597 380.38303,46.531586 C381.19427,46.122894 382.66248,45.130264 383.3701,44.255318 C383.64288,43.918 383.90393,43.56436 384.09753,43.17614 C385.50476,40.354652 386.7705,37.464294 388.16687,34.63742 C388.59302,33.77466 389.1185,32.964096 389.56332,32.110794 C389.9262,31.414673 390.2275,30.687607 390.58917,29.99086 C390.68652,29.803352 390.8126,29.631683 390.93832,29.461899 C391.34445,28.913422 391.76874,28.378662 392.18402,27.837036 L392.18402,27.837036" /><path fill="none" stroke="#000000" stroke-width="0.06mm" d="M378.1886,66.89816 C378.505,66.31915 378.78796,65.720566 379.1378,65.16115 C380.68533,62.68669 385.5994,63.66121 387.68726,63.478134 C391.1513,63.1744 393.03406,62.201073 396.25922,62.74939 C399.3089,63.26786 405.994,64.85447 409.11792,66.15379 C417.2055,69.51761 427.0285,78.55953 431.8894,82.80819 C437.31488,87.55026 442.05673,93.0332 447.42578,97.839035 C448.35443,98.6703 451.4197,101.49118 453.64536,100.980484 C453.76996,100.9519 453.8945,100.91181 454.00513,100.84778 C454.76923,100.40538 455.51105,99.92554 456.26398,99.46443 L456.26398,99.46443" /><path fill="none" stroke="#000000" stroke-width="0.02mm" d="M432.48016,77.76237 C432.73703,78.773285 432.88324,80.17684 434.12314,80.40529 C434.8975,80.54796 435.5721,80.43754 436.27213,80.88544 C436.42816,80.98526 436.586,81.08944 436.71127,81.22585 C437.9981,82.627075 439.26697,84.04543 440.50262,85.491974 C441.0495,86.1322 441.54413,87.86336 440.96094,88.609726 C440.76013,88.86672 440.43442,88.78692 440.20135,88.64528 C438.26675,87.46922 436.3413,86.27578 434.4606,85.01532 C434.21497,84.85071 434.02454,84.61259 433.83975,84.38174 C432.4925,82.698456 432.1355,79.471924 431.7155,77.735985 L431.7155,77.735985" /><path fill="none" stroke="#000000" stroke-width="0.06mm" d="M525.9195,115.98056 C526.79016,116.098366 527.68726,116.09064 528.5315,116.333984 C532.4815,117.47253 535.2673,119.60048 539.12054,121.30536 C540.26904,121.81353 541.5044,122.10285 542.71906,122.42188 C546.74207,123.478485 548.33795,123.31679 551.5175,124.99163 C552.8718,125.70501 554.1076,126.63132 555.4689,127.33147 C556.0509,127.63086 556.67725,127.87132 557.3231,127.97778 C560.888,128.56543 564.461,129.18822 568.06726,129.40826 C569.966,129.52411 573.3876,129.18468 575.3164,128.01523 C575.5685,127.862404 575.7845,127.656845 576.01855,127.47766 L576.01855,127.47766" /><path fill="none" stroke="#000000" stroke-width="0.06mm" d="M573.039,137.6299 C574.42957,136.73465 575.7434,135.70728 577.21063,134.94415 C579.92126,133.53432 589.19086,131.07065 590.1513,130.74474 C603.4818,126.22109 592.22473,128.51132 607.66003,126.422874 L607.66003,126.422874" /><path fill="none" stroke="#000000" stroke-width="0.06mm" d="M88.90636,107.508255 C85.632095,108.65947 90.25079,107.119385 85.80245,108.229485 C84.963104,108.43895 84.16507,108.7916 83.33178,109.02403 C82.3975,109.28464 81.6311,109.118225 81.08103,108.30144 C80.93194,108.08005 80.720215,107.6425 80.69024,107.37288 C80.1931,102.90166 79.42218,98.445694 79.29691,93.94867 C79.20973,90.818695 79.93348,87.7146 80.055504,84.58579 C80.24163,79.813484 79.01369,75.59791 80.375015,78.83589 L80.375015,78.83589" /><path fill="none" stroke="#000000" stroke-width="0.06mm" d="M33.17018,150.49449 C35.479034,156.29922 33.456593,150.9319 36.369965,160.59018 C36.447296,160.84656 36.576733,161.08592 36.71176,161.31715 C37.119778,162.01587 37.764767,162.5175 38.431854,162.96397 C41.4405,164.97755 41.97162,165.25989 45.45957,166.23972 C47.731556,166.87796 49.87009,166.01224 52.243427,166.09283 C56.99714,166.25427 61.72689,166.84848 66.47487,167.13217 C67.480194,167.19225 68.59973,167.10843 69.490234,166.57982 C70.65728,165.88704 71.309555,164.60326 71.8145,163.39926 C72.40914,161.98137 73.014984,160.5564 73.40145,159.06822 C73.84445,157.36235 74.031395,155.59949 74.29266,153.85652 C74.33227,153.59232 74.33431,153.3204 74.302795,153.05511 C74.25078,152.61723 74.12985,152.19032 74.04338,151.75792 L74.04338,151.75792" /><path fill="none" stroke="#000000" stroke-width="0.06mm" d="M33.794426,149.78104 C29.077251,147.7516 33.930984,150.0505 25.963852,146.75932 C25.183615,146.43701 24.456259,145.9992 23.702461,145.61914 L23.702461,145.61914" /><path fill="none" stroke="#000000" stroke-width="0.06mm" d="M104.46238,128.276 C104.73737,128.19797 105.02248,128.14938 105.287346,128.0419 C106.25135,127.6507 107.16788,126.915504 107.77,126.06853 C108.32951,125.28146 108.76471,124.40767 109.35607,123.64424 C110.29876,122.42725 111.233574,121.185135 112.36299,120.13913 C114.62638,118.04289 117.20921,116.313385 119.501144,114.2484 C120.616295,113.24367 121.51155,112.01766 122.564384,110.94782 C123.02463,110.48015 123.596306,110.127495 124.03592,109.64038 C125.0684,108.49632 125.991196,107.25786 126.969246,106.06694 C127.79141,105.065834 128.59903,104.05257 129.43658,103.06429 C129.6174,102.85095 129.98383,102.6454 130.27264,102.6566 C130.64694,102.67113 131.0531,103.13516 131.26419,103.29704 C131.32953,103.34715 131.40079,103.38907 131.46909,103.435074 C131.69583,103.61932 131.92258,103.80356 132.14932,103.98781 L132.14932,103.98781" /><path fill="none" stroke="#000000" stroke-width="0.06mm" d="M132.16989,103.43349 C132.52005,103.558556 132.85916,103.72043 133.22037,103.8087 C134.32994,104.07985 135.88992,103.97401 136.8774,103.742485 C141.33566,102.69722 145.72238,101.36617 150.16159,100.24273 C150.38626,100.18587 150.62408,100.205185 150.85585,100.20491 C152.13014,100.203415 153.40442,100.254776 154.67859,100.23743 C155.31992,100.22869 156.08432,99.886856 156.59384,99.620255 C157.46982,99.161934 159.2387,98.00697 159.93105,97.30855 C160.80199,96.42997 161.60426,95.480606 162.34705,94.4913 C163.38843,93.104294 163.50912,92.26996 164.54605,91.28702 C164.68802,91.15245 164.84395,91.03039 165.012,90.93025 C166.4149,90.09425 167.88548,89.37041 169.25508,88.48088 C170.16252,87.89153 170.94049,87.12057 171.82886,86.50286 C173.01384,85.678894 174.28531,84.984146 175.46983,84.159546 C176.51517,83.43186 177.51343,82.638275 178.51344,81.84951 C178.61006,81.7733 178.68335,81.67022 178.75381,81.569336 C178.82574,81.46635 178.8826,81.35333 178.93854,81.24086 C179.26564,80.583244 179.56291,79.910736 179.9027,79.25958 C179.95912,79.15144 180.02904,79.04454 180.12433,78.96843 C180.90947,78.3413 181.68204,77.68978 182.53435,77.15755 C185.08742,75.56325 187.6883,74.0434 190.3278,72.59672 C191.37645,72.02197 192.5352,71.66678 193.58777,71.09929 C194.07184,70.83831 194.48941,70.46791 194.91724,70.122375 C195.06134,70.00599 195.1824,69.862404 195.29822,69.71783 C195.33397,69.67319 195.41281,69.526375 195.36707,69.56069 C195.17284,69.70642 195.01498,69.89519 194.83896,70.06242 L194.83896,70.06242" /><path fill="none" stroke="#000000" stroke-width="0.02mm" d="M155.83347,100.10647 C156.04854,99.757286 156.29167,99.42389 156.4787,99.05892 C157.85394,96.37533 159.05826,91.14853 159.46161,89.5417 C159.98071,87.473785 160.37021,84.42378 160.13634,82.26229 C159.80255,79.17738 159.04578,76.14763 158.72137,73.06172 C158.53195,71.25966 158.65921,69.43811 158.59784,67.62716 C158.59088,67.42198 158.5107,67.13051 158.41211,66.94131 C158.20128,66.53668 158.09103,66.49883 157.72144,66.13049 L157.72144,66.13049" /><path fill="none" stroke="#000000" stroke-width="0.02mm" d="M163.33029,92.92082 C163.08333,88.18267 163.1521,91.46777 163.36671,86.026924 C163.40729,84.99781 163.37343,83.965454 163.44812,82.93826 C163.51765,81.98192 163.7747,81.04169 163.79887,80.08313 C163.89888,76.11672 163.77809,72.14759 163.82024,68.180145 C163.8281,67.440926 164.20497,66.61657 164.85368,66.22926 C165.03107,66.12335 165.21724,66.03205 165.40564,65.94724 C165.47783,65.91476 165.56078,65.84593 165.63293,65.87849 C165.82156,65.96361 165.95525,66.13814 166.1164,66.26797 L166.1164,66.26797" /><path fill="none" stroke="#000000" stroke-width="0.06mm" d="M193.84944,54.39499 C194.14633,54.307693 194.43182,54.16004 194.74014,54.133087 C197.44458,53.896606 200.16058,53.81436 202.86739,53.60646 C202.96185,53.599205 205.82776,53.52208 206.8842,53.063766 C208.15471,52.512573 209.18185,51.51239 210.46527,50.985474 L210.46527,50.985474" /><path fill="none" stroke="#000000" stroke-width="0.06mm" d="M233.57898,62.304688 C231.87196,62.582474 230.52176,62.938675 228.75241,62.608276 C225.72275,62.042534 222.73921,61.249718 219.75174,60.492126 C219.31012,60.380135 218.88475,60.20298 218.47575,60.002228 C218.07156,59.803833 217.69444,59.55281 217.32219,59.299553 C216.63742,58.83368 216.22957,57.7613 216.7992,57.060867 C216.94495,56.881622 217.18294,56.695053 217.419,56.657913 C217.92783,56.577873 218.43909,56.50804 218.95274,56.469635 C219.89392,56.399277 220.2765,56.545296 221.03903,56.31037 C221.54765,56.15368 221.88217,55.861206 222.26959,55.513153 L222.26959,55.513153" /><path fill="none" stroke="#000000" stroke-width="0.06mm" stroke-dasharray="0.3mm,0.1mm" d="M211.68417,50.40805 C216.38719,47.61766 212.32013,49.93637 224.8999,45.66957 L224.8999,45.66957" /><path fill="none" stroke="#000000" stroke-width="0.06mm" stroke-dasharray="0.3mm,0.1mm" d="M223.3327,54.679123 C229.75972,50.908043 219.72763,56.72007 227.65182,52.427902 C228.71527,51.851883 229.70694,51.149902 230.76746,50.568497 C231.45007,50.194244 231.96362,50.163254 232.71747,50.02311 L232.71747,50.02311" /><path fill="none" stroke="#000000" stroke-width="0.06mm" d="M401.2818,32.57901 C401.00592,33.504837 400.67252,34.415436 400.45413,35.356483 C400.05103,37.09346 400.48892,40.61667 400.58667,41.615562 C400.62228,41.979637 400.7167,42.342667 400.8647,42.677216 C402.44714,46.25506 402.7384,46.503853 405.5582,49.64759 C405.91788,50.04856 406.34015,50.391876 406.7693,50.717415 C407.97278,51.63035 408.96124,51.688416 410.43427,52.489265 C412.30338,53.5055 414.05685,54.724083 415.91605,55.758354 C416.9959,56.35907 418.24164,56.66851 419.24454,57.390404 C422.25882,59.560074 424.86694,62.26509 427.9112,64.39247 C429.74152,65.67152 431.87524,66.452385 433.80933,67.56845 C434.50458,67.969666 435.10654,68.51712 435.7896,68.93883 C436.06116,69.10648 436.35687,69.24115 436.66333,69.33047 C438.0776,69.74271 439.5317,70.01172 440.94107,70.44041 C441.35236,70.565506 441.72925,70.785774 442.10913,70.98692 C443.36902,71.65401 444.6493,72.28928 445.8586,73.04416 C446.85,73.66298 447.739,74.43294 448.69858,75.10008 C449.59982,75.726746 450.53488,76.30371 451.44,76.924835 C452.01398,77.31871 452.53433,77.79294 453.13507,78.144585 C454.7513,79.09071 456.19742,79.17854 458.0191,79.8726 C458.24313,79.95794 458.39056,80.175674 458.5763,80.32721 L458.5763,80.32721" /><path fill="none" stroke="#000000" stroke-width="0.02mm" d="M393.00793,29.464996 C392.8389,29.742645 390.83624,31.119553 391.0998,32.181503 C391.3745,33.28827 391.68506,34.386 392.00153,35.481552 C392.1449,35.977745 392.7798,36.07731 393.2044,35.999695 C394.49707,35.763397 396.6219,35.56024 397.09076,33.98716 C397.18616,33.667038 397.20615,33.310654 397.09494,32.990837 C397.04865,32.857697 396.99142,32.727684 396.9225,32.604736 C396.52713,31.899666 396.0343,31.245941 395.70306,30.50856 C395.43094,29.696625 395.1588,28.88469 394.88672,28.072762 C394.83005,28.03135 394.7851,27.964592 394.71683,27.948547 C394.28265,27.846558 393.6283,28.893051 393.57135,28.960823 L393.57135,28.960823" /><path fill="none" stroke="#000000" stroke-width="0.02mm" d="M391.99963,31.125793 C392.9281,31.507286 392.8286,33.241295 393.8155,33.647034 C394.51868,33.936157 395.4397,33.278458 396.05017,33.041245 C396.6008,32.827286 397.1556,32.62433 397.7083,32.415894 L397.7083,32.415894" /><path fill="none" stroke="#000000" stroke-width="0.02mm" d="M394.69824,33.172165 L392.31097,35.722687" /><path fill="none" stroke="#000000" stroke-width="0.02mm" d="M396.04758,38.703247 C396.3734,38.54593 398.0103,36.56935 399.0642,37.13794 C399.81323,37.54203 400.44476,38.513977 400.5335,39.36335 C400.62363,40.22519 400.45126,39.79071 400.56934,40.712128 C400.61295,41.052544 400.92886,41.64524 400.71808,42.012177 C400.50177,42.388702 399.6521,42.636414 399.44003,42.75551 C398.68842,43.17772 398.329,43.621925 397.43005,43.50862 C396.7104,43.417908 396.286,42.81353 395.616,42.61242 C395.06277,42.44639 394.3503,42.624146 394.0248,42.018555 C393.59082,41.211 394.02875,40.966362 394.4081,40.298996 C394.7965,39.615776 394.2744,38.60575 395.31598,38.376305 C395.7757,38.275024 396.23865,38.188934 396.7,38.09526 L396.7,38.09526" /><path fill="none" stroke="#000000" stroke-width="0.02mm" d="M395.43964,38.154587 C395.90152,38.67756 397.58777,39.54986 397.88452,40.62532 C398.16165,41.629555 397.96857,42.60823 397.8566,43.626343 L397.8566,43.626343" /><path fill="none" stroke="#000000" stroke-width="0.02mm" d="M398.36075,40.497505 C399.63464,38.463776 398.98047,39.38504 400.28833,37.709717 L400.28833,37.709717" /><path fill="none" stroke="#000000" stroke-width="0.02mm" d="M386.89883,39.17775 C387.90674,38.38302 388.58386,38.004517 389.30197,37.070717 C389.5262,36.779137 389.69165,36.445946 389.90906,36.149254 C390.26157,35.668198 391.03436,35.48947 391.57666,35.68473 C392.0475,35.854256 392.36102,36.232864 392.88043,36.29065 C393.13937,36.319458 393.90097,36.115723 393.90503,36.418556 C393.90656,36.531235 393.83472,36.63363 393.78363,36.734055 C393.50977,37.272415 393.17206,37.779152 392.93115,38.33304 C392.74054,38.771202 392.65488,39.24829 392.49426,39.69832 C392.31772,40.193054 391.70752,40.139664 391.30927,40.21839 C391.0719,40.265335 390.77032,40.389008 390.5711,40.526413 C390.1438,40.821175 389.9028,41.089554 389.5858,41.51722 C389.36465,41.815582 389.28467,42.11104 389.0047,42.32277 C388.42825,42.758774 387.56744,42.247772 387.27252,41.70173 C387.02985,41.25228 386.9507,40.989906 386.85675,40.475235 C386.79517,40.137833 386.8247,38.952065 386.8247,38.92566 L386.8247,38.92566" /><path fill="none" stroke="#000000" stroke-width="0.02mm" d="M387.55127,38.88118 C387.91388,38.90238 388.2759,38.947296 388.63913,38.94478 C390.14142,38.934326 391.23425,37.418716 392.27362,36.591362 C392.64343,36.296997 393.04984,36.05178 393.43793,35.781998 L393.43793,35.781998" /><path fill="none" stroke="#000000" stroke-width="0.02mm" d="M390.3389,38.480804 L390.35373,40.7051" /><path fill="none" stroke="#000000" stroke-width="0.02mm" d="M460.54843,95.20033 C460.47577,94.427475 460.78082,92.91168 460.18213,92.06171 C459.2211,90.697235 457.34775,90.38251 455.94855,89.68848 C454.9138,89.17522 452.81732,87.10791 452.56882,86.88577 C452.44858,86.77829 452.34543,86.65178 452.2197,86.55078 C452.0398,86.40633 451.62054,86.177284 451.4074,86.1508 C449.71954,85.94107 448.02615,85.768234 446.3295,85.64858 C445.7723,85.60928 444.9581,85.727776 444.5133,86.137024 C444.0079,86.60202 443.05573,88.17252 443.0473,88.1836 C442.5893,88.78723 442.54602,88.61209 442.12573,89.08246 C441.75018,89.50274 441.45227,90.07643 441.47913,90.653885 C441.50665,91.24573 441.88458,91.84356 442.31256,92.23002 C442.75015,92.62516 444.31076,94.47991 445.55377,94.66858 C445.6919,94.689545 445.8329,94.68294 445.97247,94.68912 C446.20984,94.69963 446.44922,94.685844 446.6845,94.71867 C447.14572,94.783035 447.6882,95.101555 448.17065,94.94328 C448.55872,94.81597 448.8889,94.52558 449.13132,94.202866 C449.29736,93.981804 449.5528,93.254364 449.9359,93.25442 C450.3844,93.25447 450.76282,93.754906 450.73325,94.17463 C450.67184,95.04633 448.67374,97.42073 450.05527,98.41622 C450.58606,98.798706 451.45724,99.45843 452.1762,99.14108 C452.432,99.02817 453.01428,98.62698 453.1354,98.56578 C453.6763,98.2925 454.18823,98.26604 454.5024,97.74068 C454.9507,96.990974 454.83603,95.98723 454.9935,95.16901 C455.071,94.76622 455.2105,94.258575 455.56815,93.993744 C456.33597,93.425125 457.7083,93.91427 458.185,94.66099 C458.79657,95.619 458.81665,97.00699 459.12723,98.048096 C459.2566,98.48164 459.89313,97.74126 459.95587,97.64192 C460.12225,97.37836 460.18793,97.066086 460.16452,96.75694 C460.12027,96.17291 460.05466,95.59069 459.99976,95.00757 L459.99976,95.00757" /><path fill="none" stroke="#000000" stroke-width="0.02mm" d="M449.91687,93.19846 C450.63174,92.71864 451.9042,92.26491 452.3553,91.33922 C453.07516,89.86194 451.90634,87.82145 451.3552,86.51076 L451.3552,86.51076" /><path fill="none" stroke="#000000" stroke-width="0.02mm" d="M442.41406,88.423645 C444.1162,89.01369 446.04404,88.103645 447.6336,89.03581 C449.04422,89.86301 450.5281,92.7611 450.96967,93.40607 L450.96967,93.40607" /><path fill="none" stroke="#000000" stroke-width="0.02mm" d="M446.86237,89.01679 L451.91864,86.46626" /><path fill="none" stroke="#000000" stroke-width="0.02mm" d="M432.28668,77.55426 C434.13525,77.41688 436.4007,77.27389 437.7588,78.78761 C438.2995,79.390366 438.4133,80.24336 438.81958,80.91963 C439.64896,82.30018 441.29266,83.93849 441.5245,85.75811 C441.6128,86.451294 441.39636,87.536865 441.33163,88.067764 L441.33163,88.067764" /><path fill="none" stroke="#000000" stroke-width="0.06mm" stroke-dasharray="0.3mm,0.1mm" d="M401.84525,30.680946 C401.81122,30.229553 401.7287,29.779228 401.7432,29.326797 C401.81384,27.125748 402.59003,25.713364 403.496,23.488266 C403.6612,23.082504 404.1025,22.505447 404.43622,22.196106 C405.40033,21.302483 406.8675,21.006912 408.0877,20.627129 L408.0877,20.627129" /><path fill="none" stroke="#000000" stroke-width="0.06mm" stroke-dasharray="0.3mm,0.1mm" d="M392.93378,25.698517 C392.39087,23.822884 391.48584,23.247696 390.01425,22.031662 C389.27625,21.421783 390.30185,22.174171 388.98956,21.264763 L388.98956,21.264763" /><path fill="none" stroke="#000000" stroke-width="0.06mm" d="M459.36313,79.79036 C461.6433,82.00668 463.3496,82.88703 466.40668,83.9823 C468.47232,84.72237 470.64087,85.17558 472.66547,86.021416 C476.31287,87.545204 480.0228,89.01083 483.39194,91.07829 C488.11865,93.978836 492.31134,97.67273 496.84866,100.861404 C498.35257,101.91829 499.96228,102.81607 501.50848,103.81001 C502.14532,104.21941 502.744,104.6889 503.39752,105.07118 C507.2339,107.31535 504.4637,105.08766 509.6041,108.51017 C518.1526,114.201836 515.30914,113.69348 522.3389,116.191956 C522.6888,116.3163 523.0663,116.3526 523.43646,116.38241 C524.9159,116.50157 526.10236,116.112305 527.6302,115.83877 L527.6302,115.83877" /><path fill="none" stroke="#000000" stroke-width="0.06mm" d="M457.25757,99.453125 C458.2212,99.067726 458.48755,98.87212 459.42938,98.7558 C459.91675,98.6956 460.2473,98.78911 460.72992,98.8904 C462.56494,99.27554 464.38684,99.72698 466.23224,100.05874 C467.00226,100.19716 467.8075,100.1111 468.5669,100.29927 C474.04523,101.656815 470.98807,101.2462 475.181,102.78038 C476.87073,103.39865 478.6198,103.84488 480.31265,104.45451 C481.51556,104.88771 482.65967,105.47389 483.86267,105.90686 C485.0167,106.32221 486.20557,106.63365 487.37692,106.99704 C489.2162,107.81355 491.01535,108.72692 492.8946,109.44656 C493.75134,109.77466 495.93356,110.05956 497.06393,110.799225 C499.5418,112.42062 501.90393,114.22152 504.44034,115.749756 C507.82965,117.791916 511.3015,119.700485 514.8253,121.50088 C520.3379,124.31744 515.58795,121.05897 518.48145,123.134445 L518.48145,123.134445" /><path fill="none" stroke="#000000" stroke-width="0.06mm" d="M517.47314,122.39302 C518.20166,122.47143 519.95483,122.478546 520.9136,122.925674 C521.3965,123.15094 521.84906,123.43654 522.3168,123.69197 C523.89624,124.53972 525.4158,125.51031 527.0553,126.235214 C528.3336,126.80043 529.7453,127.015564 531.03766,127.54789 C532.7879,128.2688 534.4837,129.11894 536.16547,129.98767 C537.72174,130.79158 537.1206,130.86617 538.4118,131.28468 C538.6965,131.37695 538.9927,131.43169 539.2877,131.48146 C541.64856,131.87964 544.024,132.19174 546.378,132.62828 C547.66754,132.86743 547.32825,133.17447 548.6692,133.6016 C549.3345,133.8135 550.03156,133.90952 550.7174,134.04013 C550.56256,136.6703 554.0366,133.58568 553.95886,134.90688 C553.9334,135.3391 553.4225,135.89734 553.0413,136.06554 C549.80493,137.49336 551.73517,136.43452 546.9558,137.50487 C545.5959,137.80943 544.2587,138.21617 542.9379,138.6607 C537.77,140.39996 543.3943,138.92493 539.49243,139.89081 L539.49243,139.89081" /><path fill="none" stroke="#000000" stroke-width="0.06mm" d="M572.7511,137.23648 C571.5771,137.65385 569.9589,138.6282 568.5466,138.34525 C567.0177,138.03896 565.52545,137.5662 563.99725,137.25665 C563.6004,137.17627 563.18726,137.13177 562.78503,137.17822 C560.3182,137.46307 554.8959,139.0368 553.36835,139.3052 C550.4516,139.81773 545.02655,139.45714 541.7787,141.47287 C541.49164,141.651 541.23315,141.87137 540.9603,142.07062 L540.9603,142.07062" /><path fill="none" stroke="#000000" stroke-width="0.06mm" d="M534.65857,138.9566 C533.86273,142.95099 534.8335,137.5818 534.2418,144.90956 C534.1986,145.44502 533.98584,145.953 533.85785,146.47472 L533.85785,146.47472" /><path fill="none" stroke="#000000" stroke-width="0.06mm" d="M535.8892,138.94177 C536.2126,142.45224 536.05316,140.11528 536.03754,145.97055 L536.03754,145.97055" /><path fill="none" stroke="#000000" stroke-width="0.06mm" d="M532.4344,142.18924 C537.0137,141.0588 535.31055,141.32132 537.4758,141.01779 L537.4758,141.01779" /><path fill="none" stroke="#000000" stroke-width="0.06mm" d="M532.8347,144.2949 L538.00964,142.87135" /><path fill="none" stroke="#000000" stroke-width="0.06mm" d="M575.979,127.63811 C580.3147,125.07037 575.6358,127.67907 583.674,124.366135 C584.806,123.89956 585.81006,123.134125 586.97266,122.75001 C591.10974,121.38317 595.36597,120.404274 599.5316,119.12698 C599.94464,119.00033 600.32117,118.77025 600.6893,118.54412 C602.1325,117.6576 604.7101,114.81923 605.1704,114.436775 C606.58246,113.26364 608.052,112.14459 609.62585,111.19958 C611.47046,110.09194 613.40826,109.131325 615.3924,108.29895 C615.7529,108.14769 619.8487,107.19404 621.4038,106.16 C622.04486,105.733765 622.2455,105.44589 622.7345,104.83322 C622.9158,104.606064 623.77356,103.29469 624.34216,102.9861 C626.74615,101.681366 629.8126,100.81876 632.2103,99.90047 C632.6451,99.73396 633.765,98.86775 633.92596,98.75192 L633.92596,98.75192" /><path fill="none" stroke="#000000" stroke-width="0.06mm" d="M607.53253,126.095924 C609.2261,124.313 610.76044,122.137764 613.25006,121.43228 C615.1367,120.89767 617.0457,120.428116 618.9758,120.08197 C622.509,119.448364 620.3445,120.47176 623.1303,119.57409 C624.8006,119.03589 625.3472,118.230736 627.06506,117.2394 C628.5297,116.39418 630.29407,116.412994 631.74744,115.568016 C633.2483,114.69544 634.657,112.29123 635.3736,111.47359 C635.7043,111.09625 636.1449,110.82509 636.47314,110.44556 C637.0652,109.760864 637.5439,108.98416 638.1258,108.29084 C638.808,107.47804 640.7812,106.44911 641.2684,106.22527 C642.8642,105.49211 644.4955,104.82044 646.1737,104.30296 C647.03424,104.03763 647.9524,104.02054 648.84326,103.88952 C650.4827,103.64841 652.1345,103.48433 653.76465,103.1866 C654.7679,103.00337 655.4266,102.45056 656.30914,102.025894 C656.8764,101.75293 657.45044,101.49416 658.02106,101.228294 L658.02106,101.228294" /><path fill="none" stroke="#000000" stroke-width="0.06mm" stroke-dasharray="0.3mm,0.1mm" d="M658.1694,100.70929 C658.7217,100.230804 659.283,99.762474 659.8264,99.27385 C660.91394,98.295876 661.94604,97.2556 663.0617,96.30986 C667.1971,92.80435 670.7686,90.49913 674.10925,86.29587 L674.10925,86.29587" /><path fill="none" stroke="#000000" stroke-width="0.06mm" stroke-dasharray="0.3mm,0.1mm" d="M634.2077,97.58045 C634.56555,97.18625 634.9953,96.84688 635.2814,96.39783 C639.79236,89.31798 635.79224,94.301605 641.0397,86.80911 C641.876,85.61508 642.9518,84.600395 643.77893,83.400085 C646.2165,79.86317 646.0169,80.15625 647.004,77.57662 L647.004,77.57662" /><path fill="none" stroke="#000000" stroke-width="0.06mm" stroke-dasharray="0.3mm,0.1mm" d="M663.5963,69.717445 C663.33875,70.88506 662.6262,72.57236 663.27026,73.818596 C663.57477,74.40765 664.2543,74.82005 664.82074,75.07211 C666.5432,75.83855 668.2812,76.57965 670.1952,76.465195 C671.5675,76.38313 672.9701,75.611664 674.17017,75.21354 C674.50726,75.10173 674.861,75.04904 675.2065,74.9668 L675.2065,74.9668" /><path fill="none" stroke="#000000" stroke-width="0.02mm" d="M659.1035,73.63222 C660.6112,74.94234 662.7637,74.71471 664.1363,76.19768 C664.3163,76.39218 664.4564,76.62017 664.6198,76.82881 C666.2415,78.89917 667.8809,80.9557 669.4916,83.03465 C669.6587,83.250275 669.64764,83.59182 669.54803,83.82927 C669.3774,84.23595 668.777,84.80953 668.6346,84.9617 C668.31995,85.29793 667.9724,85.602234 667.6561,85.93692 C667.2954,86.31862 667.2961,86.46349 666.90686,86.71338 C666.1121,87.22362 665.11566,87.312706 664.2514,87.6163 C664.06213,87.682785 663.8946,87.80147 663.72736,87.91232 C663.56714,88.018524 663.0485,88.628204 662.7189,88.33453 C662.6552,88.277855 662.6056,88.20265 662.5752,88.12303 C662.281,87.352264 662.1973,86.16656 661.3276,85.73424 C660.90894,85.52615 660.41174,85.43141 659.9463,85.49878 C658.8132,85.662796 657.69385,86.2829 656.917,85.22398 C656.8015,85.06662 656.60443,84.69873 656.5913,84.49568 C656.51373,83.29738 656.47925,82.09634 656.4581,80.89571 C656.45276,80.58941 656.69855,80.19183 656.89417,79.98538 C657.80035,79.02907 658.4339,78.66144 659.00476,77.684814 C659.2721,77.22751 659.34076,76.76791 659.33875,76.24759 C659.3373,75.89429 659.26404,75.75051 659.4224,75.37732 C659.8522,74.364784 660.3756,73.394005 660.813,72.38474 C660.8655,72.263504 660.6578,72.59866 660.5802,72.70562 C660.2758,73.138054 659.9714,73.570496 659.667,74.00293 L659.667,74.00293" /><path fill="none" stroke="#000000" stroke-width="0.02mm" d="M660.7493,85.168884 C662.02075,84.62945 663.29224,84.090004 664.5636,83.55057 C664.6134,83.50194 664.6724,83.46129 664.7129,83.404686 C664.84595,83.21846 664.8386,82.964584 664.7707,82.7563 C664.4008,81.62283 664.25476,80.88701 663.6426,79.982056 C663.1402,79.23927 662.51324,78.57767 662.07776,77.79375 C661.3713,76.52207 660.8462,75.1578 660.23047,73.83982 L660.23047,73.83982" /><path fill="none" stroke="#000000" stroke-width="0.02mm" d="M665.09393,82.989075 C666.15314,82.873474 666.21136,82.78223 667.088,82.9068 C667.4516,82.958466 667.8066,83.071 668.1727,83.0997 C668.72644,83.14313 669.28345,83.11492 669.8388,83.12253 L669.8388,83.12253" /><path fill="none" stroke="#000000" stroke-width="0.02mm" d="M641.3992,104.77234 C642.49915,103.6183 643.5652,102.43097 644.6991,101.31023 C645.4071,100.6104 646.66797,100.1016 647.6661,100.367485 C648.37036,100.55509 648.81433,100.96556 649.5122,100.44896 C650.49207,99.723694 651.0268,98.60377 651.8504,97.72389 C652.5738,96.95117 653.3549,96.23276 654.151,95.53523 C654.45355,95.27017 654.94366,95.019905 655.345,94.90042 C656.3076,94.61376 657.5814,95.17363 658.3787,95.30597 C658.7534,95.36816 659.35785,95.17963 659.6778,95.506065 C660.18964,96.02823 660.2826,98.15947 659.49384,98.71661 C658.29987,99.559944 657.0669,100.34719 655.87476,101.19313 C654.8942,101.888885 654.7487,102.241104 653.8272,102.6011 C652.22455,103.22716 651.84125,102.08069 650.2011,102.17255 C649.39996,102.21742 648.35645,102.99853 647.8495,103.2182 C647.57166,103.33856 647.27277,103.409706 646.9746,103.46193 C645.59125,103.70421 644.19434,103.863205 642.8102,104.10077 C642.583,104.13977 642.36914,104.23561 642.1453,104.29081 C642.0022,104.32611 641.85547,104.34492 641.7106,104.37197 L641.7106,104.37197" /><path fill="none" stroke="#000000" stroke-width="0.02mm" d="M649.28754,100.383064 C650.74133,99.67552 653.301,100.83151 654.92096,99.84128 C655.6101,99.41998 656.19543,98.03049 656.4682,97.62902 C656.5803,97.464035 656.7254,97.32104 656.8794,97.19424 C657.8029,96.433754 658.75757,95.71182 659.6966,94.97061 L659.6966,94.97061" /><path fill="none" stroke="#000000" stroke-width="0.02mm" d="M654.0769,100.50169 L653.2169,103.31913" /><text x="231.746" y="46.51278" font-family="sans-serif" font-size=".2mm" fill="black">?</text>
<text x="397.36728" y="20.197098" font-family="sans-serif" font-size=".2mm" fill="black">?</text>
<text x="654.3735" y="71.11134" font-family="sans-serif" font-size=".2mm" fill="black">?</text>
<text x="678.7355" y="79.13364" font-family="sans-serif" font-size=".2mm" fill="black">?</text>
</g>
<g>
<line fill="none" stroke="#00aeef" stroke-width="0.04mm" stroke-dasharray="0.4,0.2" x1="31.00" y1="137.00" x2="35.51" y2="162.19" />
<line fill="none" stroke="#00aeef" stroke-width="0.04mm" stroke-dasharray="0.4,0.2" x1="31.00" y1="137.00" x2="35.42" y2="161.90" />
<line fill="none" stroke="#00aeef" stroke-width="0.04mm" stroke-dasharray="0.4,0.2" x1="31.00" y1="137.00" x2="35.82" y2="162.38" />
<line fill="none" stroke="#111111" stroke-width="0.04mm" x1="31.00" y1="137.00" x2="72.26" y2="150.53" />
<line fill="none" stroke="#5674b9" stroke-width="0.04mm" stroke-dasharray="0.4,0.2" x1="72.26" y1="150.53" x2="67.79" y2="166.58" />
<line fill="none" stroke="#5674b9" stroke-width="0.04mm" stroke-dasharray="0.4,0.2" x1="72.26" y1="150.53" x2="43.23" y2="148.97" />
<line fill="none" stroke="#5674b9" stroke-width="0.04mm" stroke-dasharray="0.4,0.2" x1="72.26" y1="150.53" x2="19.52" y2="150.82" />
<line fill="none" stroke="#00aeef" stroke-width="0.04mm" stroke-dasharray="0.4,0.2" x1="72.26" y1="150.53" x2="32.07" y2="150.66" />
<line fill="none" stroke="#5674b9" stroke-width="0.04mm" stroke-dasharray="0.4,0.2" x1="72.26" y1="150.53" x2="78.42" y2="151.52" />
<line fill="none" stroke="#5674b9" stroke-width="0.04mm" stroke-dasharray="0.4,0.2" x1="72.26" y1="150.53" x2="60.21" y2="150.70" />
<line fill="none" stroke="#5674b9" stroke-width="0.04mm" stroke-dasharray="0.4,0.2" x1="72.26" y1="150.53" x2="80.53" y2="110.35" />
<line fill="none" stroke="#5674b9" stroke-width="0.04mm" stroke-dasharray="0.4,0.2" x1="72.26" y1="150.53" x2="80.65" y2="120.70" />
<line fill="none" stroke="#5674b9" stroke-width="0.04mm" stroke-dasharray="0.4,0.2" x1="72.26" y1="150.53" x2="77.71" y2="120.95" />
<line fill="none" stroke="#5674b9" stroke-width="0.04mm" stroke-dasharray="0.4,0.2" x1="72.26" y1="150.53" x2="85.00" y2="131.62" />
<line fill="none" stroke="#111111" stroke-width="0.04mm" x1="72.26" y1="150.53" x2="99.64" y2="115.79" />
<line fill="none" stroke="#00aeef" stroke-width="0.04mm" stroke-dasharray="0.4,0.2" x1="99.64" y1="115.79" x2="94.20" y2="113.95" />
<line fill="none" stroke="#00aeef" stroke-width="0.04mm" stroke-dasharray="0.4,0.2" x1="99.64" y1="115.79" x2="128.94" y2="102.22" />
<line fill="none" stroke="#00aeef" stroke-width="0.04mm" stroke-dasharray="0.4,0.2" x1="99.64" y1="115.79" x2="104.38" y2="127.83" />
<line fill="none" stroke="#00aeef" stroke-width="0.04mm" stroke-dasharray="0.4,0.2" x1="99.64" y1="115.79" x2="100.05" y2="107.54" />
<line fill="none" stroke="#00aeef" stroke-width="0.04mm" stroke-dasharray="0.4,0.2" x1="99.64" y1="115.79" x2="112.59" y2="101.17" />
<line fill="none" stroke="#111111" stroke-width="0.04mm" x1="99.64" y1="115.79" x2="159.42" y2="84.74" />
<line fill="none" stroke="#00aeef" stroke-width="0.04mm" stroke-dasharray="0.4,0.2" x1="159.42" y1="84.74" x2="154.49" y2="99.98" />
<line fill="none" stroke="#00aeef" stroke-width="0.04mm" stroke-dasharray="0.4,0.2" x1="159.42" y1="84.74" x2="145.15" y2="83.58" />
<line fill="none" stroke="#00aeef" stroke-width="0.04mm" stroke-dasharray="0.4,0.2" x1="159.42" y1="84.74" x2="132.64" y2="98.44" />
<line fill="none" stroke="#5674b9" stroke-width="0.04mm" stroke-dasharray="0.4,0.2" x1="159.42" y1="84.74" x2="148.73" y2="91.31" />
<line fill="none" stroke="#00aeef" stroke-width="0.04mm" stroke-dasharray="0.4,0.2" x1="159.42" y1="84.74" x2="169.93" y2="68.84" />
<line fill="none" stroke="#00aeef" stroke-width="0.04mm" stroke-dasharray="0.4,0.2" x1="159.42" y1="84.74" x2="163.87" y2="65.48" />
<line fill="none" stroke="#00aeef" stroke-width="0.04mm" stroke-dasharray="0.4,0.2" x1="159.42" y1="84.74" x2="154.34" y2="68.24" />
<line fill="none" stroke="#111111" stroke-width="0.04mm" x1="159.42" y1="84.74" x2="195.69" y2="62.27" />
<line fill="none" stroke="#111111" stroke-width="0.04mm" x1="195.69" y1="62.27" x2="228.33" y2="67.18" />
<line fill="none" stroke="#5674b9" stroke-width="0.04mm" stroke-dasharray="0.4,0.2" x1="228.33" y1="67.18" x2="213.97" y2="65.72" />
<line fill="none" stroke="#00aeef" stroke-width="0.04mm" stroke-dasharray="0.4,0.2" x1="228.33" y1="67.18" x2="229.01" y2="68.64" />
<line fill="none" stroke="#00aeef" stroke-width="0.04mm" stroke-dasharray="0.4,0.2" x1="228.33" y1="67.18" x2="232.37" y2="62.23" />
<line fill="none" stroke="#5674b9" stroke-width="0.04mm" stroke-dasharray="0.4,0.2" x1="228.33" y1="67.18" x2="230.25" y2="75.23" />
<line fill="none" stroke="#111111" stroke-width="0.04mm" x1="228.33" y1="67.18" x2="274.93" y2="75.19" />
<line fill="none" stroke="#00aeef" stroke-width="0.04mm" stroke-dasharray="0.4,0.2" x1="274.93" y1="75.19" x2="265.55" y2="75.90" />
<line fill="none" stroke="#00aeef" stroke-width="0.04mm" stroke-dasharray="0.4,0.2" x1="274.93" y1="75.19" x2="272.12" y2="81.11" />
<line fill="none" stroke="#00aeef" stroke-width="0.04mm" stroke-dasharray="0.4,0.2" x1="274.93" y1="75.19" x2="270.76" y2="71.12" />
<line fill="none" stroke="#00aeef" stroke-width="0.04mm" stroke-dasharray="0.4,0.2" x1="274.93" y1="75.19" x2="275.02" y2="80.10" />
<line fill="none" stroke="#00aeef" stroke-width="0.04mm" stroke-dasharray="0.4,0.2" x1="274.93" y1="75.19" x2="271.73" y2="80.97" />
<line fill="none" stroke="#00aeef" stroke-width="0.04mm" stroke-dasharray="0.4,0.2" x1="274.93" y1="75.19" x2="268.79" y2="81.03" />
<line fill="none" stroke="#00aeef" stroke-width="0.04mm" stroke-dasharray="0.4,0.2" x1="274.93" y1="75.19" x2="266.01" y2="77.03" />
<line fill="none" stroke="#00aeef" stroke-width="0.04mm" stroke-dasharray="0.4,0.2" x1="274.93" y1="75.19" x2="267.12" y2="74.27" />
<line fill="none" stroke="#00aeef" stroke-width="0.04mm" stroke-dasharray="0.4,0.2" x1="274.93" y1="75.19" x2="269.86" y2="72.20" />
<line fill="none" stroke="#111111" stroke-width="0.04mm" x1="274.93" y1="75.19" x2="308.36" y2="69.91" />
<line fill="none" stroke="#00aeef" stroke-width="0.04mm" stroke-dasharray="0.4,0.2" x1="308.36" y1="69.91" x2="283.14" y2="38.19" />
<line fill="none" stroke="#00aeef" stroke-width="0.04mm" stroke-dasharray="0.4,0.2" x1="308.36" y1="69.91" x2="296.77" y2="43.85" />
<line fill="none" stroke="#00aeef" stroke-width="0.04mm" stroke-dasharray="0.4,0.2" x1="308.36" y1="69.91" x2="335.71" y2="48.74" />
<line fill="none" stroke="#00aeef" stroke-width="0.04mm" stroke-dasharray="0.4,0.2" x1="308.36" y1="69.91" x2="330.45" y2="51.53" />
<line fill="none" stroke="#5674b9" stroke-width="0.04mm" stroke-dasharray="0.4,0.2" x1="308.36" y1="69.91" x2="301.00" y2="69.82" />
<line fill="none" stroke="#5674b9" stroke-width="0.04mm" stroke-dasharray="0.4,0.2" x1="308.36" y1="69.91" x2="307.30" y2="78.94" />
<line fill="none" stroke="#5674b9" stroke-width="0.04mm" stroke-dasharray="0.4,0.2" x1="308.36" y1="69.91" x2="325.67" y2="65.77" />
<line fill="none" stroke="#00aeef" stroke-width="0.04mm" stroke-dasharray="0.4,0.2" x1="308.36" y1="69.91" x2="306.73" y2="55.82" />
<line fill="none" stroke="#5674b9" stroke-width="0.04mm" stroke-dasharray="0.4,0.2" x1="308.36" y1="69.91" x2="315.93" y2="75.68" />
<line fill="none" stroke="#111111" stroke-width="0.04mm" x1="308.36" y1="69.91" x2="363.69" y2="58.23" />
<line fill="none" stroke="#00aeef" stroke-width="0.04mm" stroke-dasharray="0.4,0.2" x1="363.69" y1="58.23" x2="351.61" y2="60.89" />
<line fill="none" stroke="#5674b9" stroke-width="0.04mm" stroke-dasharray="0.4,0.2" x1="363.69" y1="58.23" x2="351.29" y2="61.83" />
<line fill="none" stroke="#5674b9" stroke-width="0.04mm" stroke-dasharray="0.4,0.2" x1="363.69" y1="58.23" x2="355.13" y2="46.41" />
<line fill="none" stroke="#5674b9" stroke-width="0.04mm" stroke-dasharray="0.4,0.2" x1="363.69" y1="58.23" x2="341.62" y2="52.75" />
<line fill="none" stroke="#5674b9" stroke-width="0.04mm" stroke-dasharray="0.4,0.2" x1="363.69" y1="58.23" x2="365.90" y2="55.69" />
<line fill="none" stroke="#00aeef" stroke-width="0.04mm" stroke-dasharray="0.4,0.2" x1="363.69" y1="58.23" x2="366.26" y2="68.33" />
<line fill="none" stroke="#00aeef" stroke-width="0.04mm" stroke-dasharray="0.4,0.2" x1="363.69" y1="58.23" x2="383.31" y2="46.34" />
<line fill="none" stroke="#00aeef" stroke-width="0.04mm" stroke-dasharray="0.4,0.2" x1="363.69" y1="58.23" x2="383.41" y2="46.15" />
<line fill="none" stroke="#00aeef" stroke-width="0.04mm" stroke-dasharray="0.4,0.2" x1="363.69" y1="58.23" x2="383.11" y2="46.35" />
<line fill="none" stroke="#111111" stroke-width="0.04mm" x1="363.69" y1="58.23" x2="387.28" y2="48.92" />
<line fill="none" stroke="#00aeef" stroke-width="0.04mm" stroke-dasharray="0.4,0.2" x1="387.28" y1="48.92" x2="400.43" y2="46.03" />
<line fill="none" stroke="#5674b9" stroke-width="0.04mm" stroke-dasharray="0.4,0.2" x1="387.28" y1="48.92" x2="374.16" y2="48.24" />
<line fill="none" stroke="#00aeef" stroke-width="0.04mm" stroke-dasharray="0.4,0.2" x1="387.28" y1="48.92" x2="379.58" y2="63.91" />
<line fill="none" stroke="#00aeef" stroke-width="0.04mm" stroke-dasharray="0.4,0.2" x1="387.28" y1="48.92" x2="392.15" y2="29.50" />
<line fill="none" stroke="#5674b9" stroke-width="0.04mm" stroke-dasharray="0.4,0.2" x1="387.28" y1="48.92" x2="399.91" y2="19.20" />
<line fill="none" stroke="#5674b9" stroke-width="0.04mm" stroke-dasharray="0.4,0.2" x1="387.28" y1="48.92" x2="388.43" y2="29.12" />
<line fill="none" stroke="#00aeef" stroke-width="0.04mm" stroke-dasharray="0.4,0.2" x1="387.28" y1="48.92" x2="384.09" y2="53.13" />
<line fill="none" stroke="#00aeef" stroke-width="0.04mm" stroke-dasharray="0.4,0.2" x1="387.28" y1="48.92" x2="394.96" y2="55.16" />
<line fill="none" stroke="#00aeef" stroke-width="0.04mm" stroke-dasharray="0.4,0.2" x1="387.28" y1="48.92" x2="377.65" y2="79.45" />
<line fill="none" stroke="#111111" stroke-width="0.04mm" x1="387.28" y1="48.92" x2="453.96" y2="79.88" />
<line fill="none" stroke="#00aeef" stroke-width="0.04mm" stroke-dasharray="0.4,0.2" x1="453.96" y1="79.88" x2="454.00" y2="97.91" />
<line fill="none" stroke="#5674b9" stroke-width="0.04mm" stroke-dasharray="0.4,0.2" x1="453.96" y1="79.88" x2="461.42" y2="88.10" />
<line fill="none" stroke="#111111" stroke-width="0.04mm" x1="453.96" y1="79.88" x2="529.04" y2="122.64" />
<line fill="none" stroke="#5674b9" stroke-width="0.04mm" stroke-dasharray="0.4,0.2" x1="529.04" y1="122.64" x2="517.31" y2="121.50" />
<line fill="none" stroke="#00aeef" stroke-width="0.04mm" stroke-dasharray="0.4,0.2" x1="529.04" y1="122.64" x2="495.58" y2="109.33" />
<line fill="none" stroke="#5674b9" stroke-width="0.04mm" stroke-dasharray="0.4,0.2" x1="529.04" y1="122.64" x2="493.51" y2="109.21" />
<line fill="none" stroke="#5674b9" stroke-width="0.04mm" stroke-dasharray="0.4,0.2" x1="529.04" y1="122.64" x2="525.82" y2="115.47" />
<line fill="none" stroke="#111111" stroke-width="0.04mm" x1="529.04" y1="122.64" x2="568.12" y2="133.26" />
<line fill="none" stroke="#00aeef" stroke-width="0.04mm" stroke-dasharray="0.4,0.2" x1="568.12" y1="133.26" x2="526.42" y2="126.48" />
<line fill="none" stroke="#00aeef" stroke-width="0.04mm" stroke-dasharray="0.4,0.2" x1="568.12" y1="133.26" x2="569.01" y2="138.41" />
<line fill="none" stroke="#00aeef" stroke-width="0.04mm" stroke-dasharray="0.4,0.2" x1="568.12" y1="133.26" x2="590.65" y2="121.23" />
<line fill="none" stroke="#5674b9" stroke-width="0.04mm" stroke-dasharray="0.4,0.2" x1="568.12" y1="133.26" x2="536.58" y2="130.18" />
<line fill="none" stroke="#00aeef" stroke-width="0.04mm" stroke-dasharray="0.4,0.2" x1="568.12" y1="133.26" x2="591.52" y2="121.87" />
<line fill="none" stroke="#00aeef" stroke-width="0.04mm" stroke-dasharray="0.4,0.2" x1="568.12" y1="133.26" x2="569.30" y2="138.42" />
<line fill="none" stroke="#00aeef" stroke-width="0.04mm" stroke-dasharray="0.4,0.2" x1="568.12" y1="133.26" x2="553.94" y2="131.46" />
<line fill="none" stroke="#00aeef" stroke-width="0.04mm" stroke-dasharray="0.4,0.2" x1="568.12" y1="133.26" x2="538.54" y2="141.01" />
<line fill="none" stroke="#5674b9" stroke-width="0.04mm" stroke-dasharray="0.4,0.2" x1="568.12" y1="133.26" x2="588.74" y2="128.21" />
<line fill="none" stroke="#5674b9" stroke-width="0.04mm" stroke-dasharray="0.4,0.2" x1="568.12" y1="133.26" x2="606.22" y2="125.23" />
<line fill="none" stroke="#111111" stroke-width="0.04mm" x1="568.12" y1="133.26" x2="600.29" y2="118.67" />
<line fill="none" stroke="#00aeef" stroke-width="0.04mm" stroke-dasharray="0.4,0.2" x1="600.29" y1="118.67" x2="598.69" y2="118.56" />
<line fill="none" stroke="#5674b9" stroke-width="0.04mm" stroke-dasharray="0.4,0.2" x1="600.29" y1="118.67" x2="599.78" y2="117.82" />
<line fill="none" stroke="#00aeef" stroke-width="0.04mm" stroke-dasharray="0.4,0.2" x1="600.29" y1="118.67" x2="601.09" y2="123.35" />
<line fill="none" stroke="#5674b9" stroke-width="0.04mm" stroke-dasharray="0.4,0.2" x1="600.29" y1="118.67" x2="620.46" y2="109.56" />
<line fill="none" stroke="#111111" stroke-width="0.04mm" x1="600.29" y1="118.67" x2="634.39" y2="99.58" />
<line fill="none" stroke="#00aeef" stroke-width="0.04mm" stroke-dasharray="0.4,0.2" x1="634.39" y1="99.58" x2="646.53" y2="80.40" />
<line fill="none" stroke="#00aeef" stroke-width="0.04mm" stroke-dasharray="0.4,0.2" x1="634.39" y1="99.58" x2="647.00" y2="78.90" />
<line fill="none" stroke="#00aeef" stroke-width="0.04mm" stroke-dasharray="0.4,0.2" x1="634.39" y1="99.58" x2="646.75" y2="79.39" />
<line fill="none" stroke="#00aeef" stroke-width="0.04mm" stroke-dasharray="0.4,0.2" x1="634.39" y1="99.58" x2="646.72" y2="79.34" />
<line fill="none" stroke="#111111" stroke-width="0.04mm" x1="634.39" y1="99.58" x2="661.57" y2="78.95" />
</g>
<g>
<circle cx="31.00" cy="137.00" r="0.1" fill="#111111" />
<circle cx="72.26" cy="150.53" r="0.1" fill="#111111" />
<circle cx="99.64" cy="115.79" r="0.1" fill="#111111" />
<circle cx="159.42" cy="84.74" r="0.1" fill="#111111" />
<circle cx="195.69" cy="62.27" r="0.1" fill="#111111" />
<circle cx="228.33" cy="67.18" r="0.1" fill="#111111" />
<circle cx="274.93" cy="75.19" r="0.1" fill="#111111" />
<circle cx="308.36" cy="69.91" r="0.1" fill="#111111" />
<circle cx="363.69" cy="58.23" r="0.1" fill="#111111" />
<circle cx="387.28" cy="48.92" r="0.1" fill="#111111" />
<circle cx="453.96" cy="79.88" r="0.1" fill="#111111" />
<circle cx="529.04" cy="122.64" r="0.1" fill="#111111" />
<circle cx="568.12" cy="133.26" r="0.1" fill="#111111" />
<circle cx="600.29" cy="118.67" r="0.1" fill="#111111" />
<circle cx="634.39" cy="99.58" r="0.1" fill="#111111" />
<circle cx="661.57" cy="78.95" r="0.1" fill="#111111" />
</g>
<g>
<text x="31.20" y="137.00" font-size=".2mm" fill="#000000">0</text>
<text x="72.46" y="150.53" font-size=".2mm" fill="#000000">1</text>
<text x="99.84" y="115.79" font-size=".2mm" fill="#000000">2</text>
<text x="159.62" y="84.74" font-size=".2mm" fill="#000000">3</text>
<text x="195.89" y="62.27" font-size=".2mm" fill="#000000">4</text>
<text x="228.53" y="67.18" font-size=".2mm" fill="#000000">5</text>
<text x="275.13" y="75.19" font-size=".2mm" fill="#000000">6</text>
<text x="308.56" y="69.91" font-size=".2mm" fill="#000000">7</text>
<text x="363.89" y="58.23" font-size=".2mm" fill="#000000">8</text>
<text x="387.48" y="48.92" font-size=".2mm" fill="#000000">9</text>
<text x="454.16" y="79.88" font-size=".2mm" fill="#000000">10</text>
<text x="529.24" y="122.64" font-size=".2mm" fill="#000000">11</text>
<text x="568.32" y="133.26" font-size=".2mm" fill="#000000">12</text>
<text x="600.49" y="118.67" font-size=".2mm" fill="#000000">13</text>
<text x="634.59" y="99.58" font-size=".2mm" fill="#000000">14</text>
<text x="661.77" y="78.95" font-size=".2mm" fill="#000000">15</text>
</g>
<g>
</g>
</g>
</svg>