<?xml version="1.0" encoding="utf-8"?>
<!DOCTYPE svg PUBLIC "-//W3C//DTD SVG 1.1//EN" "http://www.w3.org/Graphics/SVG/1.1/DTD/svg11.dtd">
<svg version="1.1" id="Layer_1" xmlns="http://www.w3.org/2000/svg" xmlns:xlink="http://www.w3.org/1999/xlink" x="0px" y="0px" width="92mm" height="79mm" viewBox="0 0 92 79" enable-background="new 0 0 92 79" xml:space="preserve">
<symbol id="airflow" viewBox="-12 -12 24 24">
<path d="M-4.38,10.73l4.2-3.84V3.55L-4.07,7.13l-.31-.29L-.18,3V-6.89a3.37,3.37,0,0,0-1.68.53l1.68-4.15L0-11l.21.51h0v0l1.65,4.1A3.26,3.26,0,0,0,.24-6.89v14l-.08,0L-4.07,11Z"/>
<rect fill="none" x="-12" y="-12" width="24" height="24"/>
</symbol>
<symbol id="anastomosis" viewBox="-12 -12 24 24">
<path d="M2.23-4.78l.37.24L5.22-2.78l-.47.57L2.49-3.7l-4.61,8-.24.44-.37-.34L-5.22,2.3l.55-.52,2.1,1.82L2-4.39Z"/>
<rect fill="none" x="-12" y="-12" width="24" height="24"/>
</symbol>
<symbol id="bivouac" viewBox="-12 -12 24 24">
<path d="M.25-7.66l.24.58L.54-7l3.88.48-3.31.91L6,6H8.35v.48l-16.7.07V6.05h2.64L0-7.08Zm0,1.32L-5.13,6H-4l2.07-5L.2-4l2.09,5L4.37,6H5.44Z"/>
<rect fill="none" x="-12" y="-12" width="24" height="24"/>
</symbol>
<symbol id="bones" viewBox="-12 -12 24 24">
<path d="M2.44,4.27l-.16,0H2.13a.22.22,0,0,1-.11,0l-.1-.06a.39.39,0,0,1-.09-.11l-.08-.13a1.51,1.51,0,0,1-.06-.15l-.07-.17s0-.11-.08-.19-.06-.16-.08-.21a4.75,4.75,0,0,0-.38-.71c-.18-.29-.43-.64-.74-1A11.15,11.15,0,0,0-.7.32,6.73,6.73,0,0,0-2-.64a4.12,4.12,0,0,0-1.44-.52A1.64,1.64,0,0,1-5-2.19.72.72,0,0,1-5-2.44a1,1,0,0,1,0-.29A.52.52,0,0,1-4.87-3a.54.54,0,0,1,.35-.15L-4-3.22l.46,0a.54.54,0,0,0,.27-.06A.52.52,0,0,0-3-3.56a.74.74,0,0,0,.13-.31.54.54,0,0,1,.15-.26.54.54,0,0,1,.3-.15.83.83,0,0,1,.47,0,1.11,1.11,0,0,1,.35.4A7.46,7.46,0,0,1-1-2.76q.18.42.33.72a3.22,3.22,0,0,0,.39.57L.1-1a4.77,4.77,0,0,0,.58.43c.28.18.51.33.69.43l1,.56a1.84,1.84,0,0,0,.39.23A5.29,5.29,0,0,1,3.22.9l.43.26a3.7,3.7,0,0,1,.46.3l.36.29a2.28,2.28,0,0,1,.31.32A1,1,0,0,1,5,2.4c.2.48,0,.78-.47.91h0a8.48,8.48,0,0,0-1.12.09,1,1,0,0,0-.42.44A1,1,0,0,1,2.44,4.27Z"/>
<rect fill="none" x="-12" y="-12" width="24" height="24"/>
</symbol>
<symbol id="calcite" viewBox="-12 -12 24 24">
<path d="M2.36-2.22l.05.46.34,3.91L2,2.22,1.65-1.26-2.52-.06l-.23-.7L1.89-2.08Z"/>
<rect fill="none" x="-12" y="-12" width="24" height="24"/>
</symbol>
<symbol id="cauliflower" viewBox="-12 -12 24 24">
<path d="M5.58,3.22v-3A2.12,2.12,0,0,0,6.92-.43a1.78,1.78,0,0,0,.55-1.32,1.92,1.92,0,0,0-.65-1.42,2.19,2.19,0,0,0-1.53-.59,2.21,2.21,0,0,0-1.54.59,1.78,1.78,0,0,0-.64,1.42A1.86,1.86,0,0,0,3.65-.43,2.12,2.12,0,0,0,5,.23v3H.26v-3A2.17,2.17,0,0,0,1.61-.43a1.81,1.81,0,0,0,.54-1.32,1.91,1.91,0,0,0-.64-1.42A2.21,2.21,0,0,0,0-3.76a2.21,2.21,0,0,0-1.54.59,1.82,1.82,0,0,0-.64,1.42A1.83,1.83,0,0,0-1.66-.43,2.12,2.12,0,0,0-.32.23v3H-5v-3A2.12,2.12,0,0,0-3.71-.43a1.78,1.78,0,0,0,.55-1.32,1.92,1.92,0,0,0-.65-1.42,2.19,2.19,0,0,0-1.53-.59,2.21,2.21,0,0,0-1.54.59,1.83,1.83,0,0,0-.65,1.42A1.87,1.87,0,0,0-7-.43,2.12,2.12,0,0,0-5.64.23v3H-8v.54H8V3.22Z"/>
<rect fill="none" x="-12" y="-12" width="24" height="24"/>
</symbol>
<symbol id="clay" viewBox="-12 -12 24 24">
<path d="M1.85-1.33a3,3,0,0,1,1.67.48,3.23,3.23,0,0,1,1,1l.29.51-1,.43a3.81,3.81,0,0,0-.23-.4A3.74,3.74,0,0,0,2.93,0,1.77,1.77,0,0,0,1.85-.32a2.57,2.57,0,0,0-1.1.15A.86.86,0,0,0,.51.14,2.23,2.23,0,0,1,0,.88a2.55,2.55,0,0,1-1.45.43,3.16,3.16,0,0,1-2.75-1,4.28,4.28,0,0,1-.37-.57,3.91,3.91,0,0,1-.21-.47l0-.16,1-.22a1.87,1.87,0,0,0,.45.79A2.12,2.12,0,0,0-1.51.33,1.82,1.82,0,0,0-.69.14l.21-.36A1.53,1.53,0,0,1,.17-1,3.76,3.76,0,0,1,1.85-1.33Z"/>
<rect fill="none" x="-12" y="-12" width="24" height="24"/>
</symbol>
<symbol id="crystals" viewBox="-12 -12 24 24">
<path d="M-2.94-5.38,0-.72,2.94-5.38,3.62-5,.68-.36H6.56V.36H.68L3.62,5l-.68.36L0,.72-2.94,5.38-3.62,5-.68.36H-6.56V-.36H-.68L-3.62-5Z"/>
<rect fill="none" x="-12" y="-12" width="24" height="24"/>
</symbol>
<symbol id="curtain" viewBox="-12 -12 24 24">
<path d="M3.57-6.69l.52.53L.39-3V-.33L.1-.26a3.79,3.79,0,0,0-1,.41c-.58.3-.87.65-.87,1v.07A1.61,1.61,0,0,0-.84,2.48a3.69,3.69,0,0,0,.45.24L0,2.86l.13.05L.39,3V6.12H-.39V3.51a7.65,7.65,0,0,1-.9-.46A2.19,2.19,0,0,1-2.54,1.28V1.23A2,2,0,0,1-1.31-.48,5.32,5.32,0,0,1-.39-.86V-3l-3.7-3.14.52-.53L0-3.67Z"/>
<rect fill="none" x="-12" y="-12" width="24" height="24"/>
</symbol>
<symbol id="disk" viewBox="-12 -12 24 24">
<path d="M-.09-4.19a2.43,2.43,0,0,1,1.7.64A2,2,0,0,1,2.35-2,2.09,2.09,0,0,1,1.81-.55,2.44,2.44,0,0,1,.35.23l2.18,3.6-.68.33L0,1.14-1.48,4.19l-.71-.29L-.41.25A2.53,2.53,0,0,1-1.9-.47a2,2,0,0,1-.63-1.41,2,2,0,0,1,.67-1.61,2.46,2.46,0,0,1,1.72-.7ZM1.05-3.06.56-3.49l-.69,0A1.72,1.72,0,0,0-1.29-3a1.51,1.51,0,0,0-.45,1.08,1.36,1.36,0,0,0,.51,1A1.68,1.68,0,0,0-.07-.44v0l0,0A1.7,1.7,0,0,0,1.11-.92,1.36,1.36,0,0,0,1.56-2,1.47,1.47,0,0,0,1.05-3.06Z"/>
<rect fill="none" x="-12" y="-12" width="24" height="24"/>
</symbol>
<symbol id="entrance" viewBox="-12 -12 24 24">
<path d="M4.46,9H-4.46L0-9Z"/>
<rect fill="none" x="-12" y="-12" width="24" height="24"/>
</symbol>
<symbol id="flowstone" viewBox="-12 -12 24 24">
<rect x="-6" y="-0.21" width="12" height="0.42"/>
<rect fill="none" x="-12" y="-12" width="24" height="24"/>
</symbol>
<symbol id="flutes" viewBox="-12 -12 24 24">
<path d="M-7-1H7v.72H3.87A4.7,4.7,0,0,1,2.16,1.5,4.2,4.2,0,0,1,0,2.13,3.94,3.94,0,0,1-2.19,1.5,4.18,4.18,0,0,1-3.76-.27H-7Zm4.17.72A3.15,3.15,0,0,0-1.65,1,3.21,3.21,0,0,0,0,1.41,3.49,3.49,0,0,0,1.6,1,3.68,3.68,0,0,0,3-.27Z"/>
<rect fill="none" x="-12" y="-12" width="24" height="24"/>
</symbol>
<symbol id="gradient" viewBox="-12 -12 24 24">
<path d="M2.58-3.83,0-10-2.58-3.83A4.74,4.74,0,0,1-.17-4.5V10H.25V-4.5A6.65,6.65,0,0,1,2.58-3.83Z"/>
<rect fill="none" x="-12" y="-12" width="24" height="24"/>
</symbol>
<symbol id="guano" viewBox="-12 -12 24 24">
<path d="M-3.24-3a2.15,2.15,0,0,1,1.57.55A3.93,3.93,0,0,1-.59.24a4.32,4.32,0,0,1,2.75-2.3,2.68,2.68,0,0,1,2.23.36A2.36,2.36,0,0,1,5.5.19l-.79,0a1.72,1.72,0,0,0-.79-1.37,1.94,1.94,0,0,0-1.55-.24A3.53,3.53,0,0,0,.48,0,6.63,6.63,0,0,0-.69,3l-.79-.09a10.72,10.72,0,0,0,0-3.16A3.21,3.21,0,0,0-2.22-2,1.44,1.44,0,0,0-3.37-2.3,3.45,3.45,0,0,0-5-1.54l-.5-.55a4.29,4.29,0,0,1,2-.91A.9.9,0,0,1-3.24-3Z"/>
<rect fill="none" x="-12" y="-12" width="24" height="24"/>
</symbol>
<symbol id="helictites" viewBox="-12 -12 24 24">
<path d="M-4.59-7.92h.79v7.7l3.41,0V-7.92H.39V-.17L4.2-.12h.39v8H3.8V.6L.39.55V7.92H-.39V.55L-4.2.5l-.39,0v-8.4Z"/>
<rect fill="none" x="-12" y="-12" width="24" height="24"/>
</symbol>
<symbol id="human" viewBox="-12 -12 24 24">
<path d="M-3.59-3.29A5.13,5.13,0,0,1,0-4.66,5.13,5.13,0,0,1,3.59-3.29,4.3,4.3,0,0,1,5.09,0a4.3,4.3,0,0,1-1.5,3.29A5.13,5.13,0,0,1,0,4.66,5.13,5.13,0,0,1-3.59,3.29,4.3,4.3,0,0,1-5.09,0,4.3,4.3,0,0,1-3.59-3.29Zm.28.77A3.68,3.68,0,0,0-4.3,0a3.62,3.62,0,0,0,1,2.57L-.5.05ZM0-3.94A4.42,4.42,0,0,0-2.75-3L.16-.36H4.28A3.62,3.62,0,0,0,2.91-2.9,4.38,4.38,0,0,0,0-3.94ZM.16.46-2.7,3.07A4.42,4.42,0,0,0,0,3.94a4.37,4.37,0,0,0,2.87-1A3.78,3.78,0,0,0,4.28.46Z"/>
<rect fill="none" x="-12" y="-12" width="24" height="24"/>
</symbol>
<symbol id="karren" viewBox="-12 -12 24 24">
<path d="M1-5.84h0a1.37,1.37,0,0,1,1.06.68A3.33,3.33,0,0,1,2.5-3.79,25.79,25.79,0,0,1,2.36,0a18.61,18.61,0,0,0-.08,3.72,2.68,2.68,0,0,0,.41,1.2,1.13,1.13,0,0,0,.79.5A.92.92,0,0,0,4,4.94a4.43,4.43,0,0,0,.47-1.22c.16-.64.36-1.86.59-3.66a26.71,26.71,0,0,1,.64-3.69,4.62,4.62,0,0,1,.57-1.29,1.34,1.34,0,0,1,1-.59h0A1.28,1.28,0,0,1,8.37-5a2.17,2.17,0,0,1,.39,1.15A19.91,19.91,0,0,1,8.54-.53a21.51,21.51,0,0,0-.2,3.64A2.64,2.64,0,0,0,9.45,5.36,1.91,1.91,0,0,0,10.88,5a3.84,3.84,0,0,0,.7-1l.42.2-.1.18-.12.21-.11.18L11.52,5a.94.94,0,0,1-.14.16c-.06.07-.13.12-.19.18a2.5,2.5,0,0,1-1.85.41H9.29l0,0A3.06,3.06,0,0,1,7.87,3.13a22.11,22.11,0,0,1,.2-3.7,18.17,18.17,0,0,0,.22-3.28A1.85,1.85,0,0,0,8-4.79a.77.77,0,0,0-.67-.3.93.93,0,0,0-.64.42,4.51,4.51,0,0,0-.51,1.15A26.26,26.26,0,0,0,5.54.1c-.24,1.83-.45,3.07-.61,3.72a5.38,5.38,0,0,1-.51,1.34,1.33,1.33,0,0,1-.89.68H3.47A1.58,1.58,0,0,1,2.3,5.16a3.29,3.29,0,0,1-.49-1.4A20.27,20.27,0,0,1,1.89,0,23.45,23.45,0,0,0,2-3.75a2.94,2.94,0,0,0-.32-1.19A.93.93,0,0,0,1-5.42,1.1,1.1,0,0,0,.19-5,3.69,3.69,0,0,0-.43-3.76,20.78,20.78,0,0,0-1.07.07c-.2,2-.37,3.32-.49,3.86A4.48,4.48,0,0,1-2,5.26,1.06,1.06,0,0,1-3,5.81h0a1.9,1.9,0,0,1-1.29-.67,2.7,2.7,0,0,1-.58-1.31,14.92,14.92,0,0,1,0-3.6q0-.12.06-.54c0-.28,0-.47,0-.57s0-.28,0-.52,0-.42,0-.55,0-.28,0-.47,0-.36,0-.51,0-.29,0-.43A3.09,3.09,0,0,0-5-4.62a1.19,1.19,0,0,0-.67-.6,1.5,1.5,0,0,0-1.2.9A7,7,0,0,0-7.41-2.1c0,.39-.1,1-.14,1.76s-.11,1.47-.18,2.08A9.61,9.61,0,0,1-8,3.32h0l0,0A2.81,2.81,0,0,1-9.2,4.62a1.82,1.82,0,0,1-1.35.15A1.94,1.94,0,0,1-11.61,4,2.39,2.39,0,0,1-12,2.56l.47,0a1.92,1.92,0,0,0,.31,1.16,1.47,1.47,0,0,0,.81.62,1.3,1.3,0,0,0,1-.11A2.32,2.32,0,0,0-8.5,3.18a7.53,7.53,0,0,0,.29-1.5Q-8.1.8-8-.36c0-.78.1-1.37.16-1.78A7.23,7.23,0,0,1-7.28-4.5,1.93,1.93,0,0,1-5.65-5.66h.05l0,0a1.59,1.59,0,0,1,1,.84,3.47,3.47,0,0,1,.34,1.41,4.91,4.91,0,0,1,0,.57v.54c0,.15,0,.37,0,.66s0,.47,0,.58,0,.33-.06.68,0,.56-.06.63a14.78,14.78,0,0,0,0,3.49,2.58,2.58,0,0,0,.5,1.13,1.57,1.57,0,0,0,1,.5A.61.61,0,0,0-2.44,5,3.89,3.89,0,0,0-2,3.85C-1.9,3.31-1.74,2-1.53,0A20.65,20.65,0,0,1-.86-3.89,3.89,3.89,0,0,1-.18-5.26,1.58,1.58,0,0,1,1-5.84Z"/>
<rect fill="none" x="-12" y="-12" width="24" height="24"/>
</symbol>
<symbol id="moonmilk" viewBox="-12 -12 24 24">
<path d="M-4.78-3.06a3.39,3.39,0,0,1,1.5.34,2.48,2.48,0,0,1,1.1,1,3.74,3.74,0,0,1,1.62-.8,3.52,3.52,0,0,1,1.71,0,2.9,2.9,0,0,1,1.39.77A2.49,2.49,0,0,1,3.25-.37,4,4,0,0,1,5-.76a3.58,3.58,0,0,1,1.6.36A2.84,2.84,0,0,1,7.88.92a2.32,2.32,0,0,1,0,1.88.34.34,0,0,1-.37.26A.36.36,0,0,1,7.25,3a.32.32,0,0,1-.12-.25.21.21,0,0,1,0-.12,2,2,0,0,0,0-1.43,2,2,0,0,0-1-.9A2.81,2.81,0,0,0,4.68,0,2.78,2.78,0,0,0,3.12.56L2.46.25A1.7,1.7,0,0,0,2.15-1.1,2.15,2.15,0,0,0,1-1.81a2.85,2.85,0,0,0-1.58.06A3,3,0,0,0-2-.83l-.71-.12A1.74,1.74,0,0,0-3.55-2a2.36,2.36,0,0,0-1.39-.27,3.08,3.08,0,0,0-1.45.53A2.33,2.33,0,0,0-7.32-.56a.35.35,0,0,1-.37.24A.39.39,0,0,1-8-.42a.33.33,0,0,1-.1-.26v-.1A3,3,0,0,1-6.89-2.35,4,4,0,0,1-5-3Z"/>
<rect fill="none" x="-12" y="-12" width="24" height="24"/>
</symbol>
<symbol id="narrow" viewBox="-12 -12 24 24">
<path d="M-1.5,5V-5h0.64V5H-1.5z"/>
<path d="M0.86,5V-5H1.5V5H0.86z"/>
<rect fill="none" x="-12" y="-12" width="24" height="24"/>
</symbol>
<symbol id="paleoflow" viewBox="-12 -12 24 24">
<path d="M.38-12V.17A1.9,1.9,0,0,0,1,0,1.57,1.57,0,0,0,1.7-.72a1.86,1.86,0,0,0,.23-1c0-.09,0-.14.08-.16a.92.92,0,0,1,.24,0,.52.52,0,0,0,.25,0h.08A2.48,2.48,0,0,1,2,0,2.5,2.5,0,0,1,.38.77V7.21H2.09L0,12-1.8,7.23c.07,0,.59,0,1.53,0V.77A3,3,0,0,1-1.35.43a2.16,2.16,0,0,1-1-1,2.38,2.38,0,0,1-.24-1.33l.67,0a2,2,0,0,0,.15,1,1.73,1.73,0,0,0,.59.67A2.14,2.14,0,0,0-.27.16V-12Z"/>
<rect fill="none" x="-12" y="-12" width="24" height="24"/>
</symbol>
<symbol id="rain" viewBox="-12 -12 24 24">
<path d="M-4.14-6.34h0.71v4.69h-0.71V-6.34z"/>
<path d="M-0.35-6.34h0.71v4.69h-0.71V-6.34z"/>
<path d="M3.43-6.34h0.71v4.69H3.43V-6.34z"/>
<path d="M-4.14,1.65h0.71v4.69h-0.71V1.65z"/>
<path d="M-0.35,1.65h0.71v4.69h-0.71V1.65z"/>
<path d="M3.43,1.65h0.71v4.69H3.43V1.65z"/>
<rect fill="none" x="-12" y="-12" width="24" height="24"/>
</symbol>
<symbol id="rats" viewBox="-12 -12 24 24">
<path d="M8.78-2.32,7-2.27c-.51-.17-.65-.56-1.46-.45l-.25.45C3.59-2.75,2.59-3.66.56-3.62l-1.35.3A4.89,4.89,0,0,0-4.24,1.57c-.68.6-2.58.86-3.39.94a6.84,6.84,0,0,0-1.62.39,4.91,4.91,0,0,0-1,.52A1.75,1.75,0,0,0-11,4.61a1.16,1.16,0,0,0,.59,1.48,1.3,1.3,0,0,1,.14.12c.16-.52-.35-.92-.2-1.42a3.35,3.35,0,0,1,.27-.45,3.18,3.18,0,0,1,1.79-1c.63-.12,1.27-.22,1.91-.3.48-.07,1,0,1.4-.12A6.94,6.94,0,0,1-4,2.82,30.64,30.64,0,0,0,.41,2.69l2.16.15c.1-.09,0,0,.1-.15a.87.87,0,0,0-.9-.55c.86-1,2.27-.37,3.1-.05.5.19,1,0,1.25.4.11-.1.1-.07.15-.25.3,0,.31.07.6.15-.06-.49-.34-.64-1-.6a.78.78,0,0,1,0-.55C6.3.56,7.29.73,8.13.43a13.78,13.78,0,0,0,2.15-.9l.6-.85v-.2A16.9,16.9,0,0,0,8.78-2.32Z"/>
<rect fill="none" x="-12" y="-12" width="24" height="24"/>
</symbol>
<symbol id="sand" viewBox="-12 -12 24 24">
<path d="M-1.58,0.83c0.23,0.2,0.35,0.44,0.36,0.73c0.01,0.29-0.08,0.54-0.28,0.75c-0.2,0.21-0.46,0.32-0.78,0.33c-0.32,0.01-0.6-0.08-0.83-0.26C-3.36,2.19-3.49,1.95-3.5,1.67C-3.51,1.38-3.41,1.12-3.2,0.9c0.21-0.22,0.48-0.34,0.8-0.35C-2.08,0.54-1.81,0.64-1.58,0.83z"/>
<path d="M0.08-2.36c0.23,0.2,0.35,0.44,0.36,0.73c0.01,0.29-0.08,0.54-0.28,0.75c-0.2,0.21-0.46,0.32-0.78,0.33c-0.32,0.01-0.59-0.07-0.83-0.26s-0.37-0.42-0.38-0.71c-0.01-0.29,0.09-0.54,0.3-0.76c0.21-0.22,0.48-0.33,0.8-0.35C-0.42-2.65-0.14-2.56,0.08-2.36z"/>
<path d="M3.12,0.55c0.23,0.2,0.35,0.43,0.38,0.71c0.02,0.28-0.07,0.53-0.28,0.75C3,2.23,2.73,2.35,2.42,2.36C2.1,2.37,1.82,2.28,1.58,2.08C1.34,1.88,1.22,1.64,1.2,1.35c-0.01-0.29,0.09-0.54,0.3-0.75C1.72,0.4,1.99,0.29,2.3,0.28S2.89,0.36,3.12,0.55z"/>
<rect fill="none" x="-12" y="-12" width="24" height="24"/>
</symbol>
<symbol  id="scallops" viewBox="-12 -12 24 24">
<path d="M.05-3.74l.21,0A2.35,2.35,0,0,1,1.74-3a2,2,0,0,1,.59,1.55v0l0,0A9.59,9.59,0,0,1-.08,3.27l-.39.47-.27-.55A14.26,14.26,0,0,1-2.33-1.89v-.05l0-.05A2,2,0,0,1-1.44-3.3,2.42,2.42,0,0,1,.05-3.74ZM-.11-3A1.44,1.44,0,0,0-1.55-1.89,13.06,13.06,0,0,0-.29,2.33,8.6,8.6,0,0,0,1.55-1.54a1.41,1.41,0,0,0-.38-1A1.62,1.62,0,0,0,.18-3Z"/>
<rect fill="none" x="-12" y="-12" width="24" height="24"/>
</symbol>
<symbol  id="sink" viewBox="-12 -12 24 24">
<path d="M.72,9.41H.9c1.94,0,3.26-.54,3.94-1.51a3.61,3.61,0,0,0,.33-.69,2,2,0,0,0,.11-.54V6.46l.69,0a2.8,2.8,0,0,1-.58,1.78C4.58,9.39,3.1,10,.93,10H-.93q-3.25,0-4.46-1.8a2.74,2.74,0,0,1-.43-.83A2.37,2.37,0,0,1-6,6.67V6.43l.68,0A2.27,2.27,0,0,0-4.84,7.9c.68,1,2,1.47,3.93,1.48l.5,0ZM-1.46-10a.68.68,0,0,0,.16.41A2.77,2.77,0,0,0-.51-9l0,0a3.63,3.63,0,0,1,1,.7,1.15,1.15,0,0,1,.34.88c0,.58-.53,1.14-1.49,1.68-.68.42-1,.79-1,1.11s.3.61.84,1h0Q.61-2.86.46-1.78a3.51,3.51,0,0,1-1.55,2,.61.61,0,0,0-.26.41,1.67,1.67,0,0,0,.1.51,5.3,5.3,0,0,1,.32,1L.56,1.9.46,8.06-3.4,2.54l1.73-.28A6.16,6.16,0,0,0-2,1.39,1.7,1.7,0,0,1-2.09.58a1.21,1.21,0,0,1,.53-.82h0v0C-.75-.86-.33-1.38-.28-1.85s-.23-.87-.91-1.27h0C-2-3.6-2.37-4.1-2.4-4.61S-2-5.74-1.09-6.29C-.34-6.72.06-7.1.09-7.44a.67.67,0,0,0-.18-.43,3.17,3.17,0,0,0-.79-.58,2.93,2.93,0,0,1-1-.67A1.16,1.16,0,0,1-2.17-10Z"/>
<rect fill="none" x="-12" y="-12" width="24" height="24"/>
</symbol>
<symbol  id="spring" viewBox="-12 -12 24 24">
<path d="M-1.34-9.86,2.52-4.34.78-4.06a8,8,0,0,0,.29.87,1.4,1.4,0,0,1,.13.79,1.3,1.3,0,0,1-.52.84l0,0v0C-.13-.95-.55-.42-.61,0S-.37.91.31,1.3l0,0c.75.46,1.14,1,1.18,1.46S1.12,3.92.21,4.46C-.54,4.9-.94,5.29-1,5.64a.74.74,0,0,0,.18.43A3.2,3.2,0,0,0,0,6.62a3,3,0,0,1,1,.7,1.14,1.14,0,0,1,.31.86A1.74,1.74,0,0,1,.71,9.26H.92c1.92,0,3.22-.52,3.9-1.51a2.05,2.05,0,0,0,.35-.67,2.59,2.59,0,0,0,.1-.55l0-.19.65,0a2.84,2.84,0,0,1-.55,1.8C4.58,9.26,3.08,9.85.92,9.86H-.92c-2.17,0-3.66-.6-4.49-1.77a3.65,3.65,0,0,1-.4-.85A2.43,2.43,0,0,1-6,6.53V6.29l.66,0a2.08,2.08,0,0,0,.47,1.41c.68,1,2,1.5,3.91,1.51H-.4c.62-.43.94-.8,1-1.1a.76.76,0,0,0-.16-.43,3.25,3.25,0,0,0-.79-.51v0a3.8,3.8,0,0,1-1-.7,1.15,1.15,0,0,1-.34-.91q.06-.84,1.5-1.68c.68-.4,1-.77,1-1.1S.49,2.21,0,1.87c0,0,0,0,0,0C-1,1.32-1.44.69-1.34,0a3.58,3.58,0,0,1,1.55-2,.54.54,0,0,0,.23-.38A1.28,1.28,0,0,0,.37-3a4.57,4.57,0,0,1-.32-1l-1.49.24Z"/>
<rect fill="none" x="-12" y="-12" width="24" height="24"/>
</symbol>
<symbol  id="stalactite" viewBox="-12 -12 24 24">
<path d="M3.57-6.69l.52.53L.39-3V6.12H-.39V-3l-3.7-3.14.52-.53L0-3.67Z"/>
<rect fill="none" x="-12" y="-12" width="24" height="24"/>
</symbol>
<symbol  id="stalagmite" viewBox="-12 -12 24 24">
<path d="M.38-6.42V2.75L4.11,5.89l-.56.53L0,3.4l-3.57,3-.53-.53,3.7-3.14V-6.42Z"/>
<rect fill="none" x="-12" y="-12" width="24" height="24"/>
</symbol>
<symbol  id="stalagnate" viewBox="-12 -12 24 24">
<path d="M3.55-8.46l.56.53L.38-4.78v9L4.11,7.36l-.56.53L0,4.86l-3.57,3-.53-.53,3.7-3.14v-9l-3.7-3.15.53-.53L0-5.43Z"/>
<rect fill="none" x="-12" y="-12" width="24" height="24"/>
</symbol>
<symbol  id="straws" viewBox="-12 -12 24 24">
<path d="M-10.89-2.76H10.89V-2H9.63V.46H8.84V-2H8.29v5.6H7.5V-2H5.56V.7H4.77V-2H2.07V2.38H1.29V-2H-.1v3H-.89V-2H-3.2V4.11H-4V-2H-6.22L-6.16.75l-.79,0L-7-2H-8.32V2.33H-9.1V-2h-1.79Z"/>
<rect fill="none" x="-12" y="-12" width="24" height="24"/>
</symbol>
<symbol  id="water" viewBox="-12 -12 24 24">
<path d="M-1.72-9.86,2.11-4.32.38-4.06a6.49,6.49,0,0,0,.29.89,1.5,1.5,0,0,1,.13.79,1.2,1.2,0,0,1-.5.82h0l0,0C-.54-.94-1-.42-1,.05s.24.89.92,1.27h0c.77.48,1.17,1,1.19,1.49S.71,3.94-.2,4.49c-.75.43-1.13.81-1.15,1.15a.51.51,0,0,0,.18.43,2.66,2.66,0,0,0,.76.58,2.93,2.93,0,0,1,1,.67,1.16,1.16,0,0,1,.29.89C.84,8.75.42,9.3-.41,9.86l-.44-.55c.66-.45,1-.83,1-1.15A.47.47,0,0,0,0,7.75a2.84,2.84,0,0,0-.78-.53h0a3.87,3.87,0,0,1-1-.69,1.24,1.24,0,0,1-.34-.91c0-.58.54-1.14,1.52-1.68.66-.42,1-.79,1-1.11s-.3-.61-.84-1h0Q-1.9,1.06-1.74,0a3.44,3.44,0,0,1,1.54-2,.67.67,0,0,0,.27-.41A1.11,1.11,0,0,0,0-3a4.33,4.33,0,0,1-.31-1l-1.5.24Z"/>
<rect fill="none" x="-12" y="-12" width="24" height="24"/>
</symbol><symbol  id="tree" viewBox="-12 -12 24 24">
<path d="M7.4-5.04A4.271,4.271,0,0,0,7.7-6.627a4.3,4.3,0,0,0-4.3-4.3A4.279,4.279,0,0,0,.636-9.914,4.293,4.293,0,0,0-3.045-12a4.3,4.3,0,0,0-4.3,4.3,4.27,4.27,0,0,0,.421,1.845,4.3,4.3,0,0,0-3.645,4.244,4.3,4.3,0,0,0,4.3,4.3A4.282,4.282,0,0,0-3.946,2L-1.175,5.23h0L-1.612,12H.982L.757,6.376,4.119,2.827v0a4.272,4.272,0,0,0,2.15.58,4.3,4.3,0,0,0,4.3-4.3A4.3,4.3,0,0,0,7.4-5.04ZM-3.346,1.538h0A4.346,4.346,0,0,0-2.7.788a4.266,4.266,0,0,0,1.765.753l-.135,2.087ZM.69,4.7.563,1.544A4.258,4.258,0,0,0,2.321.805,4.3,4.3,0,0,0,3.378,2.279Z"/>
<rect fill="none" x="-12" y="-12" width="24" height="24"/>
</symbol><g>
<desc></desc>
<g>
<line fill="none" stroke="#dddddd" stroke-width="0.1mm" x1="0.00" y1="49.00" x2="92.00" y2="49.00" />
<text x="89.20" y="48.80" font-size=".2mm" fill="#000000">0m</text>
<line fill="none" stroke="#dddddd" stroke-width="0.1mm" x1="0.00" y1="29.00" x2="92.00" y2="29.00" />
<text x="89.20" y="28.80" font-size=".2mm" fill="#000000">10m</text>
<line fill="none" stroke="#dddddd" stroke-width="0.1mm" x1="0.00" y1="9.00" x2="92.00" y2="9.00" />
<text x="89.20" y="8.80" font-size=".2mm" fill="#000000">20m</text>
<line fill="none" stroke="#dddddd" stroke-width="0.1mm" x1="0.00" y1="69.00" x2="92.00" y2="69.00" />
<text x="89.20" y="68.80" font-size=".2mm" fill="#000000">-10m</text>
<line fill="none" stroke="#dddddd" stroke-width="0.1mm" x1="20.00" y1="0.00" x2="20.00" y2="79.00" />
<text x="20.40" y="2.00" font-size=".2mm" fill="#000000">0m</text>
<line fill="none" stroke="#dddddd" stroke-width="0.1mm" x1="40.00" y1="0.00" x2="40.00" y2="79.00" />
<text x="40.40" y="2.00" font-size=".2mm" fill="#000000">10m</text>
<line fill="none" stroke="#dddddd" stroke-width="0.1mm" x1="60.00" y1="0.00" x2="60.00" y2="79.00" />
<text x="60.40" y="2.00" font-size=".2mm" fill="#000000">20m</text>
<line fill="none" stroke="#dddddd" stroke-width="0.1mm" x1="80.00" y1="0.00" x2="80.00" y2="79.00" />
<text x="80.40" y="2.00" font-size=".2mm" fill="#000000">30m</text>
</g>
<g>
<path fill="none" stroke="#000000" stroke-width="0.06mm" d="M37.178978,23.677946 C37.11314,23.780489 37.033077,23.868494 37.00908,23.989485 C37.007248,23.998724 37.015327,24.007257 37.018448,24.016146 L37.018448,24.016146" /><path fill="none" stroke="#000000" stroke-width="0.06mm" d="M37.14259,23.628712 C36.992706,23.875937 36.952717,23.96013 36.776966,24.182335 C36.718666,24.256044 36.61604,24.269451 36.54611,24.326244 C36.442432,24.410444 36.348732,24.506233 36.250046,24.596228 L36.250046,24.596228" /><path fill="none" stroke="#000000" stroke-width="0.06mm" d="M38.184963,24.217356 C38.013134,24.308893 38.103508,24.26992 37.91313,24.332945 L37.91313,24.332945" /><path fill="none" stroke="#000000" stroke-width="0.06mm" d="M38.071518,23.767847 C37.983727,23.888113 37.872063,24.034107 37.888596,24.19575 C37.940475,24.703053 38.002747,24.872414 38.15822,25.446413 C38.193108,25.575212 38.23928,25.624994 38.239777,25.753525 C38.24233,26.420704 38.173798,26.423023 38.01097,27.274605 C37.980087,27.436152 37.9777,27.680256 37.85254,27.819454 C37.736496,27.94851 37.604065,28.062035 37.486168,28.189394 C37.373577,28.311024 37.275593,28.483492 37.121674,28.569092 C36.793663,28.751505 36.450207,28.905033 36.121063,29.085394 C36.066307,29.115398 36.017616,29.156216 35.97214,29.199001 C35.70933,29.44627 35.4604,29.708038 35.19707,29.954754 C35.16646,29.983437 35.128685,30.003733 35.09183,30.023771 C34.985115,30.08179 34.853745,30.072954 34.73843,30.087948 C34.59592,30.10648 34.45508,30.138851 34.31182,30.150213 C34.106743,30.166477 33.809235,30.18057 33.62354,30.048552 C33.590008,30.024714 33.55949,29.996897 33.527466,29.97107 L33.527466,29.97107" /><path fill="none" stroke="#000000" stroke-width="0.06mm" d="M35.015038,26.92083 C34.36717,27.466808 34.641052,27.272238 34.22737,27.550142 L34.22737,27.550142" /><path fill="none" stroke="#000000" stroke-width="0.06mm" d="M34.079685,27.65717 C33.647755,27.933184 33.849342,27.835789 33.491077,27.980387 L33.491077,27.980387" /><path fill="none" stroke="#000000" stroke-width="0.06mm" d="M33.422585,28.1238 L33.39077,28.132652" /><path fill="none" stroke="#000000" stroke-width="0.06mm" d="M33.33483,28.16661 L33.332977,28.166899" /><path fill="none" stroke="#000000" stroke-width="0.06mm" d="M35.485924,26.62544 C35.503685,26.492334 35.496567,26.458107 35.54704,26.34546 C35.55384,26.33028 35.57887,26.288446 35.576023,26.304836 C35.5404,26.510128 35.088547,26.84866 35.06507,26.868946 C35.05651,26.876345 35.0644,26.846325 35.064064,26.835012 C35.093895,26.7875 35.117374,26.735346 35.153564,26.692476 C35.31302,26.503592 35.496624,26.335402 35.649685,26.141298 C35.732845,26.035841 35.803574,25.919434 35.859463,25.797314 C36.502975,24.391273 35.67943,25.836452 36.563423,24.309753 C36.580482,24.280294 36.603603,24.25409 36.62915,24.231596 C36.707855,24.162308 36.793076,24.100807 36.87504,24.035412 L36.87504,24.035412" /><path fill="none" stroke="#000000" stroke-width="0.06mm" d="M37.210793,23.660612 C37.199127,23.66117 37.175697,23.665195 37.173927,23.647324 C37.173676,23.644785 37.174644,23.63396 37.171486,23.629448 C37.167824,23.624214 37.157333,23.631842 37.156544,23.629623 C37.15564,23.627077 37.15785,23.623716 37.160202,23.622396 C37.161716,23.621548 37.16017,23.625866 37.160152,23.6276 C37.16949,23.613232 37.177887,23.598204 37.188168,23.584496 C37.193924,23.57682 37.20143,23.570631 37.20807,23.5637 L37.20807,23.5637" /><path fill="none" stroke="#000000" stroke-width="0.06mm" d="M37.319046,23.53533 C37.294594,23.548483 37.2696,23.560677 37.24569,23.57479 C37.234505,23.582664 37.223328,23.590544 37.21215,23.598421 C37.211113,23.598688 37.210106,23.599104 37.209045,23.599228 C37.200516,23.600218 37.19638,23.590315 37.186066,23.589502 C37.169144,23.588175 37.147766,23.602102 37.134083,23.609547 L37.134083,23.609547" /><path fill="none" stroke="#000000" stroke-width="0.06mm" d="M37.129543,23.6041 C37.135826,23.616793 37.141205,23.629976 37.14839,23.642178 C37.158207,23.65883 37.184383,23.689882 37.19783,23.700525 C37.223724,23.721022 37.303543,23.76565 37.328266,23.777197 C37.350758,23.787703 37.39173,23.789026 37.412544,23.79317 C37.449917,23.800611 37.463875,23.80413 37.493843,23.821972 C37.532646,23.84507 37.570362,23.869965 37.60915,23.893091 C37.615395,23.896818 37.635117,23.900064 37.638947,23.901697 C37.66385,23.912321 37.68267,23.927841 37.708138,23.932732 C37.709118,23.93292 37.710167,23.932734 37.71112,23.932447 C37.715748,23.931067 37.72026,23.929314 37.724823,23.927746 L37.724823,23.927746" /><path fill="none" stroke="#000000" stroke-width="0.06mm" d="M37.73254,23.939999 C37.739822,23.944 37.746857,23.94849 37.75439,23.952 C37.75847,23.9539 37.76288,23.95501 37.767227,23.95616 C37.789597,23.962084 37.817078,23.972155 37.842224,23.971924 C37.846638,23.971884 37.85099,23.970907 37.855377,23.970387 C37.8633,23.969446 37.871197,23.968239 37.879147,23.967548 C37.88726,23.96684 37.89545,23.967104 37.903545,23.966198 C37.909645,23.965515 37.915535,23.963419 37.92164,23.962791 C37.93318,23.961605 37.93313,23.96383 37.943596,23.963896 C37.956192,23.963974 37.96658,23.95451 37.976055,23.947718 L37.976055,23.947718" /><path fill="none" stroke="#000000" stroke-width="0.06mm" d="M37.178337,23.578907 C37.182327,23.534897 37.18754,23.490976 37.190315,23.44687 C37.191444,23.428944 37.18625,23.399635 37.192986,23.37942 C37.197563,23.365688 37.20395,23.35263 37.209427,23.339237 L37.209427,23.339237" /><path fill="none" stroke="#000000" stroke-width="0.06mm" d="M37.304066,23.725977 C37.34944,23.593264 37.326553,23.646267 37.36534,23.5637 L37.36534,23.5637" /><path fill="none" stroke="#000000" stroke-width="0.06mm" d="M37.420715,23.760021 C37.46856,23.694471 37.40532,23.784067 37.486256,23.640478 C37.492443,23.629501 37.50157,23.620464 37.509224,23.610455 L37.509224,23.610455" /><path fill="none" stroke="#000000" stroke-width="0.06mm" d="M37.546898,23.828108 C37.551636,23.825102 37.556587,23.822401 37.56112,23.81909 C37.563583,23.81729 37.566086,23.815353 37.567802,23.812828 C37.596497,23.770557 37.62407,23.727541 37.652203,23.684898 L37.652203,23.684898" /><path fill="none" stroke="#000000" stroke-width="0.06mm" d="M37.6463,23.903913 C37.6512,23.901102 37.65629,23.898596 37.661,23.895481 C37.664337,23.893274 37.669533,23.887878 37.671387,23.884295 C37.685978,23.856117 37.698524,23.826876 37.713993,23.799171 C37.71935,23.789577 37.72711,23.781544 37.733673,23.772732 L37.733673,23.772732" /><path fill="none" stroke="#000000" stroke-width="0.06mm" d="M37.7659,23.951347 C37.774887,23.930794 37.783875,23.910242 37.792862,23.889692 C37.7964,23.878 37.798256,23.865665 37.80347,23.854622 C37.81417,23.83195 37.82805,23.81092 37.84034,23.78907 L37.84034,23.78907" /><path fill="none" stroke="#000000" stroke-width="0.06mm" d="M37.90502,23.928425 L37.924084,23.850803" /><path fill="none" stroke="#000000" stroke-width="0.06mm" d="M38.120224,24.680576 C38.121246,24.594595 38.109528,24.492794 38.138447,24.406178 C38.16691,24.320932 38.225845,24.263542 38.275482,24.19203 C38.322502,24.124277 38.336643,23.992863 38.299896,23.919859 C38.283066,23.886425 38.263668,23.85435 38.245556,23.821594 L38.245556,23.821594" /><path fill="none" stroke="#000000" stroke-width="0.06mm" d="M38.215477,23.811567 L38.19732,23.795082" /><path fill="none" stroke="#000000" stroke-width="0.06mm" d="M38.08012,24.175884 C38.095543,24.035105 38.09731,24.108694 38.06842,23.955288 L38.06842,23.955288" /><path fill="none" stroke="#000000" stroke-width="0.06mm" d="M38.272293,24.418203 C38.21578,24.387503 38.159264,24.356802 38.102753,24.3261 C38.079865,24.315496 38.0542,24.30952 38.034092,24.294292 C38.017235,24.281523 38.00796,24.261032 37.994896,24.244402 L37.994896,24.244402" /><path fill="none" stroke="#000000" stroke-width="0.06mm" d="M37.998238,24.237717 L38.020187,24.216217" /><path fill="none" stroke="#000000" stroke-width="0.06mm" d="M38.060066,24.100683 C38.139496,24.700174 38.070194,24.33656 38.324837,25.144838 C38.34902,25.221584 38.42854,25.44914 38.396324,25.375406 C38.335075,25.235233 38.292404,25.087631 38.237465,24.944866 C38.196075,24.837328 38.140682,24.7349 38.10738,24.62459 C38.08133,24.538305 38.06996,24.447931 38.060387,24.35831 C38.05107,24.271107 38.048744,24.183062 38.050854,24.095388 C38.051586,24.06495 38.066727,23.975466 38.068863,24.005838 C38.075455,24.099842 38.05848,24.194458 38.0644,24.288507 C38.08151,24.560226 38.10704,25.022738 38.25757,25.284323 C38.298435,25.355337 38.337753,25.387957 38.39595,25.449316 L38.39595,25.449316" /><path fill="none" stroke="#000000" stroke-width="0.06mm" d="M46.2285,26.599354 C46.3003,26.705036 46.3659,26.815218 46.44391,26.916405 C47.460754,28.235292 45.070568,24.767508 47.496586,28.48757 C47.557526,28.58102 47.902283,28.97893 47.944885,29.177532 C47.97483,29.317112 47.959503,29.462666 47.966812,29.605232 L47.966812,29.605232" /><path fill="none" stroke="#000000" stroke-width="0.06mm" d="M47.992096,29.26703 C47.90037,29.204082 47.808643,29.141134 47.71692,29.078182 C47.55453,29.00221 47.377865,28.951296 47.229763,28.850267 C47.125694,28.779276 47.059517,28.664534 46.974392,28.571665 L46.974392,28.571665" /><path fill="none" stroke="#000000" stroke-width="0.06mm" d="M47.476925,28.25875 L46.614086,27.95848" /><path fill="none" stroke="#000000" stroke-width="0.06mm" d="M46.851128,27.313683 C46.30121,27.530766 46.533264,27.492329 46.177925,27.525454 L46.177925,27.525454" /><path fill="none" stroke="#000000" stroke-width="0.06mm" d="M46.373882,26.92807 L45.722805,27.512812" /><path fill="none" stroke="#000000" stroke-width="0.06mm" d="M46.004097,24.892542 C46.351265,25.791431 46.193665,25.474121 46.40233,25.878698 L46.40233,25.878698" /><path fill="none" stroke="#000000" stroke-width="0.06mm" d="M45.75125,24.797718 C45.861576,24.960196 46.185047,25.422615 46.26576,25.598923 C46.399582,25.891245 46.506363,26.596712 46.532825,26.820072 C46.534637,26.835398 46.497597,26.824257 46.487076,26.812967 C46.17671,26.479845 46.11696,25.866407 45.965614,25.511734 C45.458206,24.322624 45.323944,24.334097 44.442772,23.283712 L44.442772,23.283712" /><path fill="none" stroke="#000000" stroke-width="0.06mm" d="M37.08495,23.429111 C37.023636,23.386202 36.95849,23.348309 36.901012,23.30038 C36.857716,23.264275 36.816372,23.224403 36.784065,23.178204 C36.60648,22.924257 36.443142,22.660643 36.272682,22.401861 L36.272682,22.401861" /><path fill="none" stroke="#000000" stroke-width="0.06mm" d="M35.349792,20.84993 L35.347054,20.730247" /><path fill="none" stroke="#000000" stroke-width="0.06mm" d="M35.76383,21.06486 C35.783478,21.171326 35.80906,21.422554 35.879845,21.54944 C36.013565,21.78916 36.142868,22.03265 36.30044,22.25741 C36.408592,22.375664 36.516747,22.49392 36.624893,22.612173 C36.64159,22.612375 36.671783,22.629175 36.674976,22.61279 C36.682026,22.576597 36.659073,22.540462 36.645542,22.506163 C36.52645,22.204252 36.371468,22.193186 36.139347,21.905529 C36.03225,21.772808 35.940826,21.62616 35.866913,21.472467 C35.731915,21.191742 35.625214,20.898123 35.514805,20.606848 C35.499447,20.566328 35.494427,20.522308 35.4904,20.479164 C35.481728,20.386236 35.499718,20.289965 35.51098,20.198814 L35.51098,20.198814" /><path fill="none" stroke="#000000" stroke-width="0.06mm" d="M35.6216,21.166004 C35.6341,21.06661 35.633858,20.964766 35.659096,20.867823 C35.706852,20.735802 35.75461,20.603785 35.80236,20.471764 C35.81266,20.460918 35.836807,20.424694 35.83326,20.439226 C35.79462,20.597622 35.742195,20.752333 35.69579,20.908628 C35.62932,21.132496 35.590027,21.193779 35.58096,21.409462 C35.57672,21.510267 35.600105,21.647175 35.646824,21.735369 C35.653694,21.748337 35.68068,21.756208 35.689842,21.744743 C35.710327,21.71911 35.710373,21.682096 35.71532,21.64966 C35.756218,21.38158 35.625225,21.133095 35.562706,20.878754 C35.544666,20.805357 35.549885,20.697609 35.562805,20.62406 C35.600864,20.407356 35.764763,20.30097 35.92502,20.167206 L35.92502,20.167206" /><path fill="none" stroke="#000000" stroke-width="0.06mm" d="M43.73928,18.83897 L43.73971,18.839401" /><path fill="none" stroke="#000000" stroke-width="0.06mm" d="M35.853535,20.342588 C35.94966,20.26822 36.045784,20.193853 36.14191,20.119488 C36.25364,20.046051 36.37326,19.983412 36.47709,19.899181 C36.55069,19.839476 36.605995,19.760216 36.67045,19.69073 L36.67045,19.69073" /><path fill="none" stroke="#000000" stroke-width="0.06mm" d="M36.761528,19.776127 C36.866684,19.710594 36.97184,19.645065 37.076996,19.579533 C37.151546,19.518547 37.218388,19.446669 37.30065,19.396566 C37.436455,19.32944 37.57225,19.262314 37.708054,19.195187 C37.75754,19.17359 37.809536,19.157011 37.856518,19.130396 C38.00077,19.048676 38.105858,18.932283 38.227417,18.819685 L38.227417,18.819685" /><path fill="none" stroke="#000000" stroke-width="0.06mm" d="M38.477898,19.121422 C38.5981,19.162836 38.671513,19.204472 38.78913,19.208427 C38.910408,19.212505 39.02207,19.15525 39.1432,19.167942 C39.260857,19.180273 39.385025,19.25457 39.490417,19.291786 C39.53112,19.30616 39.5736,19.31486 39.61519,19.326397 C39.68582,19.352009 39.756454,19.377617 39.827084,19.403229 L39.827084,19.403229" /><path fill="none" stroke="#000000" stroke-width="0.06mm" d="M39.872623,19.744814 C40.281452,19.861435 40.534237,20.3076 40.948555,20.385286 L40.948555,20.385286" /><path fill="none" stroke="#000000" stroke-width="0.06mm" d="M40.077564,19.53417 C40.303223,19.739798 40.528885,19.945427 40.754547,20.151056 C40.84653,20.258562 40.930046,20.373936 41.030502,20.473576 C41.116913,20.55929 41.214,20.634111 41.312965,20.704966 C41.46198,20.811655 41.657516,20.870537 41.822395,20.934671 L41.822395,20.934671" /><path fill="none" stroke="#000000" stroke-width="0.06mm" d="M42.183884,21.188013 C42.32895,21.259472 42.474014,21.33093 42.61908,21.40239 C42.710724,21.442188 42.804947,21.47652 42.89402,21.521791 C43.108894,21.631004 43.318153,21.750925 43.530224,21.86549 L43.530224,21.86549" /><path fill="none" stroke="#000000" stroke-width="0.06mm" d="M41.657303,20.681328 C41.81607,20.791267 41.970078,20.90843 42.133614,21.011143 C42.186455,21.044329 42.247227,21.062782 42.304405,21.087757 C42.410408,21.134058 42.52011,21.172392 42.623154,21.224962 C42.679966,21.253948 42.733368,21.29033 42.782104,21.331476 C42.97771,21.496616 43.168846,21.667204 43.355057,21.842869 C43.382896,21.869135 43.404373,21.902065 43.42262,21.93571 C43.46015,22.004927 43.488663,22.078667 43.521683,22.150146 L43.521683,22.150146" /><path fill="none" stroke="#000000" stroke-width="0.06mm" d="M43.06911,21.782942 C43.173412,21.876022 43.27434,21.973028 43.382015,22.062183 C43.885063,22.478716 43.595856,22.148745 44.152977,22.779667 C44.57309,23.255438 44.459335,23.261738 44.856636,23.49087 L44.856636,23.49087" /><path fill="none" stroke="#000000" stroke-width="0.06mm" d="M52.98021,24.142727 C53.05302,25.066418 53.125828,25.990108 53.198635,26.9138 C53.224384,27.03667 53.23193,27.164816 53.275883,27.282408 C53.324215,27.411716 53.40705,27.525354 53.472633,27.646828 L53.472633,27.646828" /><path fill="none" stroke="#000000" stroke-width="0.06mm" d="M53.182304,27.589897 C53.317097,27.71939 53.447918,27.853148 53.586678,27.97838 C53.624348,28.012379 53.67557,27.99094 53.69841,27.95414 C53.770363,27.838205 53.762466,27.662401 53.753292,27.532312 C53.748455,27.46377 53.697964,27.286453 53.688957,27.251156 L53.688957,27.251156" /><path fill="none" stroke="#000000" stroke-width="0.06mm" d="M51.90428,21.993586 C51.850006,22.029629 51.793877,22.063026 51.741455,22.101715 C51.6298,22.184126 51.60121,22.358955 51.696598,22.461855 C51.94561,22.730484 52.30755,22.629461 52.404934,23.05699 C52.454033,23.272532 52.322006,23.233084 52.172306,23.163115 C52.13523,23.145786 52.00274,23.072872 51.984493,23.018013 C51.95572,22.931496 51.955685,22.837952 51.94128,22.747921 L51.94128,22.747921" /><path fill="none" stroke="#000000" stroke-width="0.06mm" d="M52.584564,22.301012 C52.55933,22.43621 52.538998,22.5673 52.593853,22.69827 C52.61613,22.751451 52.695538,22.957708 52.774986,23.044664 C52.87684,23.156136 53.071846,23.08131 53.128525,22.960344 C53.180965,22.848417 53.171207,22.646639 53.17238,22.568964 C53.17391,22.46748 53.168217,22.334919 53.10421,22.24607 C53.05564,22.178654 52.93967,22.114525 52.863625,22.177975 C52.7886,22.240568 52.774586,22.372482 52.853065,22.438702 C52.99348,22.557186 53.253616,22.887115 53.48774,22.721325 C53.55248,22.67548 53.602085,22.581964 53.60096,22.502098 C53.586964,21.509123 53.600334,22.136885 53.54745,21.683826 C53.546528,21.675907 53.55291,21.698807 53.55564,21.706297 C53.639812,22.029524 53.712467,22.35597 53.80816,22.675976 C53.829826,22.748444 53.870716,22.813847 53.906715,22.88037 C53.92249,22.909527 53.93384,22.946695 53.963093,22.962297 C54.016182,22.990614 54.080154,22.990171 54.138687,23.004108 L54.138687,23.004108" /><path fill="none" stroke="#000000" stroke-width="0.06mm" d="M54.30378,21.136774 C54.350624,21.453653 54.39121,21.771517 54.444305,22.087406 C54.453625,22.14285 54.47083,22.196985 54.490826,22.249533 C54.518986,22.323538 54.55588,22.39392 54.588413,22.466112 L54.588413,22.466112" /><path fill="none" stroke="#000000" stroke-width="0.06mm" d="M54.73358,21.950888 C54.688816,22.12563 54.640884,22.29959 54.59929,22.475111 C54.576653,22.570631 54.682953,22.671614 54.7751,22.663488 C54.88688,22.653635 54.884598,22.474766 54.992867,22.479551 C55.028313,22.48112 55.044353,22.501307 55.070953,22.521158 C55.144833,22.576294 55.263065,22.689335 55.367268,22.688768 C55.493553,22.68808 55.57227,22.509447 55.608578,22.423195 C55.72133,22.15535 55.752136,21.766684 55.615242,21.500706 C55.59537,21.46209 55.55917,21.415363 55.524372,21.388485 C55.425247,21.311909 55.179913,21.212862 55.07137,21.327332 C54.99884,21.403824 54.977127,21.509884 54.960873,21.61101 C54.95257,21.662636 54.939182,21.856905 54.970592,21.909832 C55.039192,22.025417 55.13897,22.119379 55.22316,22.224155 L55.22316,22.224155" /><path fill="none" stroke="#000000" stroke-width="0.06mm" d="M55.206078,21.862644 C55.251453,21.932632 55.291897,22.006071 55.342197,22.072607 C55.37294,22.11327 55.408016,22.15146 55.448166,22.18287 C55.98053,22.599346 56.19573,22.584282 56.93908,22.760883 C56.973083,22.76896 57.052147,22.768137 57.05649,22.715792 C57.0598,22.675894 57.04612,22.664057 57.01959,22.64065 C56.93665,22.567467 56.852356,22.495827 56.76874,22.423414 L56.76874,22.423414" /><path fill="none" stroke="#000000" stroke-width="0.06mm" d="M54.281006,23.937777 C54.386448,23.827425 54.47858,23.741745 54.623978,23.823727 C54.670254,23.849821 54.70979,23.881075 54.74393,23.921923 C54.789154,23.976038 54.82826,24.046959 54.822002,24.119905 C54.80837,24.278791 54.611553,24.367268 54.59526,24.526434 C54.5883,24.59443 54.642513,24.650534 54.693794,24.685873 C54.849007,24.792837 55.00872,24.78165 55.179222,24.708958 C55.256435,24.676039 55.328064,24.631308 55.40248,24.592484 L55.40248,24.592484" /><path fill="none" stroke="#000000" stroke-width="0.06mm" d="M56.171,23.698666 C56.14061,23.824808 56.106544,23.897606 56.11506,24.015991 C56.13028,24.227514 56.27812,24.464924 56.47916,24.546223 C56.540314,24.570953 56.6079,24.569344 56.671272,24.555601 C56.82537,24.522188 56.882305,24.395649 56.919758,24.252865 C56.99478,23.966852 56.941795,23.867998 56.738873,23.655731 C56.704185,23.61945 56.665363,23.587067 56.625134,23.557053 C56.59159,23.532026 56.45346,23.49183 56.419357,23.535463 C56.34309,23.633026 56.278458,23.73915 56.208008,23.840994 L56.208008,23.840994" /><path fill="none" stroke="#000000" stroke-width="0.06mm" d="M57.389256,23.109432 C57.396717,23.499214 57.3782,23.662163 57.531364,24.088264 C57.546494,24.130356 57.609306,24.132166 57.648277,24.154114 L57.648277,24.154114" /><path fill="none" stroke="#000000" stroke-width="0.06mm" d="M58.18055,23.314383 C57.93751,23.472652 57.97232,23.427036 57.793636,23.61932 C56.95658,24.520071 57.97013,23.483343 57.269577,24.126745 C57.26202,24.133684 57.290356,24.131638 57.300262,24.128994 C57.338028,24.118917 57.37278,24.099245 57.410534,24.089134 C57.476532,24.071459 57.55309,24.069216 57.62013,24.077766 C57.794147,24.099962 57.78578,24.133791 57.988323,24.200579 C58.27716,24.295824 58.436302,24.040768 58.593273,23.85238 L58.593273,23.85238" /><path fill="none" stroke="#000000" stroke-width="0.06mm" d="M58.692894,23.049654 C58.695724,23.19043 58.691666,23.331509 58.70139,23.471975 C58.705875,23.53684 58.719162,23.601091 58.73542,23.664045 C58.742832,23.692732 58.790764,23.87901 58.857906,23.893307 C58.89227,23.900625 58.923306,23.853674 58.93357,23.833607 C59.05487,23.587578 59.17617,23.341545 59.297478,23.095518 C59.308903,23.08645 59.31827,23.073896 59.33175,23.068317 C59.43347,23.026207 59.53149,23.2348 59.553883,23.29734 C59.56464,23.327375 59.57045,23.358978 59.577465,23.390099 C59.58932,23.44268 59.584663,23.479954 59.616318,23.520525 C59.685432,23.609104 59.834774,23.544146 59.90279,23.489874 C59.975388,23.43195 60.009422,23.363256 60.061493,23.282276 C60.087643,23.241604 60.089035,23.161652 60.13729,23.158598 C60.177223,23.15607 60.12694,23.238144 60.126602,23.278154 C60.125313,23.430433 60.22691,23.589344 60.392254,23.571377 C60.526344,23.556807 60.648537,23.465979 60.708534,23.34616 C60.890167,22.983438 60.912785,22.551098 60.575584,22.272186 C60.506035,22.214659 60.421402,22.149828 60.33112,22.120342 C60.269012,22.100061 60.198265,22.105623 60.136566,22.123306 C59.834614,22.20985 59.806915,22.623217 59.873886,22.874802 C59.907383,23.000652 59.990585,23.069197 60.081932,23.154976 L60.081932,23.154976" /><path fill="none" stroke="#000000" stroke-width="0.06mm" d="M60.984234,23.180595 C61.01324,23.230827 61.040108,23.28237 61.07127,23.331297 C61.184284,23.508722 61.48183,23.307537 61.57628,23.263145 L61.57628,23.263145" /><path fill="none" stroke="#000000" stroke-width="0.06mm" d="M56.620728,25.947437 C56.514523,25.948023 56.38925,25.926758 56.297077,25.996498 C56.149628,26.10806 56.109695,26.394876 56.24172,26.531677 C56.386944,26.682163 56.699814,26.673464 56.75235,26.904314 C56.80279,27.125973 56.541245,27.163439 56.398277,27.064363 C56.32338,27.01246 56.323727,26.966825 56.27347,26.86972 L56.27347,26.86972" /><path fill="none" stroke="#000000" stroke-width="0.06mm" d="M57.272552,25.338278 C57.236687,25.479643 57.13579,25.768885 57.14546,25.959791 C57.158237,26.212074 57.23606,26.477808 57.28698,26.718655 C57.288467,26.72567 57.281048,26.705595 57.278088,26.699068 C57.25073,26.594358 57.21934,26.490622 57.196007,26.384941 C57.17386,26.284616 57.20767,26.132439 57.336613,26.132576 C57.461292,26.13271 57.58599,26.135742 57.710552,26.141264 C57.827976,26.146471 57.844784,26.168371 57.941944,26.146362 C58.044315,26.123175 58.12414,26.050291 58.206165,25.990137 L58.206165,25.990137" /><path fill="none" stroke="#000000" stroke-width="0.06mm" d="M58.539192,26.50821 C58.69017,26.003603 58.98215,25.572767 59.09184,25.052366 C59.108604,24.972824 59.023273,25.2002 58.99803,25.27747 C58.980328,25.331661 58.96273,25.387987 58.963573,25.44499 C58.976494,26.31561 58.860878,26.093742 59.08,26.442738 L59.08,26.442738" /><path fill="none" stroke="#000000" stroke-width="0.06mm" d="M59.472805,25.341124 C59.46938,25.221458 59.44992,25.045528 59.613495,25.053616 C59.65138,25.055487 59.684914,25.064638 59.71797,25.083403 C59.84289,25.15431 59.917107,25.325878 59.904686,25.465689 C59.89592,25.564396 59.86126,25.66162 59.80162,25.741203 C59.78267,25.766497 59.759106,25.787987 59.73752,25.811071 C59.709095,25.841469 59.663933,25.8619 59.651585,25.901642 C59.64611,25.919273 59.684517,25.92086 59.702908,25.922464 C59.75181,25.926733 59.80114,25.915861 59.85013,25.918974 C59.888275,25.921396 59.92615,25.92898 59.96304,25.938988 C60.15757,25.991762 60.255886,26.168861 60.146088,26.352898 C60.096382,26.436214 59.99748,26.505413 59.910046,26.541521 C59.708008,26.62496 59.487923,26.687004 59.272835,26.620644 C59.15501,26.58429 58.93657,26.41353 58.903526,26.391499 L58.903526,26.391499" /><path fill="none" stroke="#000000" stroke-width="0.06mm" d="M46.285522,26.684694 C46.50939,26.728088 46.740456,26.760263 46.920185,26.911854 C47.32946,27.257051 47.087067,27.13968 47.384224,27.259697 L47.384224,27.259697" /><path fill="none" stroke="#000000" stroke-width="0.06mm" d="M47.35576,27.03482 C47.470833,27.080547 47.756622,27.230406 47.950203,27.246658 C48.208908,27.268383 48.460297,27.141401 48.693558,27.043358 L48.693558,27.043358" /><path fill="none" stroke="#000000" stroke-width="0.06mm" d="M48.477234,27.043358 C48.682236,27.012434 48.732834,27.023022 48.90381,26.943148 C49.08364,26.859138 49.24931,26.742582 49.43705,26.678165 C49.74633,26.57205 50.070454,26.51552 50.387154,26.434196 L50.387154,26.434196" /><path fill="none" stroke="#000000" stroke-width="0.06mm" d="M50.00574,26.48259 C50.15031,26.507763 50.29488,26.532938 50.439453,26.558111 C50.503082,26.568861 50.568676,26.571346 50.63034,26.590364 C50.733944,26.622314 50.834366,26.664577 50.932705,26.710228 C50.98951,26.736597 51.045605,26.766624 51.09446,26.80581 C51.98388,27.51922 51.149563,26.941101 51.952667,27.473186 L51.952667,27.473186" /><path fill="none" stroke="#000000" stroke-width="0.06mm" d="M51.72496,27.419102 C51.784416,27.457508 51.841675,27.49957 51.903343,27.53432 C51.943974,27.557215 52.039658,27.5882 52.086887,27.588598 C53.298695,27.598804 52.911396,27.65633 53.617798,27.507347 L53.617798,27.507347" /><path fill="none" stroke="#000000" stroke-width="0.06mm" d="M53.125374,27.689526 C54.33753,27.012579 53.254066,27.598627 54.001774,27.227337 C54.16542,27.146072 54.330444,27.019554 54.5251,27.053093 C54.64905,27.07445 54.74815,27.169933 54.847435,27.236923 L54.847435,27.236923" /><path fill="none" stroke="#000000" stroke-width="0.06mm" d="M54.591263,27.282467 C55.06185,27.772858 55.36893,28.376778 55.56757,29.024555 L55.56757,29.024555" /><path fill="none" stroke="#000000" stroke-width="0.06mm" d="M55.015373,28.207596 C55.265575,28.991543 55.55692,29.763533 55.765987,30.559437 C55.883656,31.007391 55.930187,31.471342 55.99322,31.930183 C56.00398,32.00849 56.0017,32.089592 55.98685,32.16723 C55.96575,32.277534 55.91986,32.38161 55.886368,32.4888 L55.886368,32.4888" /><path fill="none" stroke="#000000" stroke-width="0.06mm" d="M47.910805,29.238047 C48.10103,29.592926 48.11128,29.576214 48.24385,30.00956 C48.27455,30.109911 48.289383,30.214445 48.312145,30.316887 L48.312145,30.316887" /><path fill="none" stroke="#000000" stroke-width="0.06mm" d="M48.178364,29.32629 C48.15886,29.742008 48.13936,30.157728 48.119854,30.573446 C48.131096,30.654266 48.129955,30.737806 48.153587,30.815908 C48.20552,30.987562 48.273464,31.154287 48.345314,31.318602 C48.37871,31.39497 48.462822,31.516853 48.528152,31.580452 C48.65676,31.705647 48.839592,31.740507 49.003815,31.791397 L49.003815,31.791397" /><path fill="none" stroke="#000000" stroke-width="0.06mm" d="M48.252373,30.8008 C48.22691,30.979637 48.191444,31.08404 48.214394,31.247047 C48.252953,31.520874 48.540565,31.76776 48.725414,31.915499 C49.346584,32.411972 49.518402,32.470448 50.29492,32.738102 C50.395844,32.77289 50.50237,32.791462 50.60846,32.80327 C50.73701,32.817574 50.867004,32.81186 50.99628,32.816154 L50.99628,32.816154" /><path fill="none" stroke="#000000" stroke-width="0.06mm" d="M50.970665,32.742146 C51.399803,33.06626 51.02681,32.79811 51.576557,33.14361 C51.612446,33.166164 51.65286,33.209282 51.650017,33.2556 C51.639137,33.43315 51.640484,33.132183 51.60914,33.331924 C51.60772,33.340977 51.625946,33.324615 51.63435,33.32096 C51.678787,33.263706 51.723213,33.206455 51.76765,33.1492 L51.76765,33.1492" /><path fill="none" stroke="#000000" stroke-width="0.06mm" d="M51.685104,32.938557 C51.60997,33.135437 51.534843,33.33232 51.45971,33.5292 C51.454678,33.568314 51.418144,33.617317 51.44462,33.646545 C51.46597,33.670113 51.472984,33.589493 51.489956,33.562595 C51.5513,33.46538 51.616264,33.3705 51.679413,33.27445 L51.679413,33.27445" /><path fill="none" stroke="#000000" stroke-width="0.06mm" d="M52.886276,33.994625 C53.421955,33.198936 52.943256,33.504253 52.84156,33.741608 C52.82136,33.78876 52.83528,33.863815 52.78918,33.886307 C52.75555,33.902714 52.764225,33.81179 52.772507,33.7753 C52.801113,33.649235 52.85595,33.53059 52.897667,33.408234 L52.897667,33.408234" /><path fill="none" stroke="#000000" stroke-width="0.06mm" d="M52.974518,33.245983 C53.031635,33.192093 53.08603,33.135162 53.145874,33.08432 C53.351933,32.909245 54.087513,33.022896 54.104004,33.02269 C54.219254,33.021244 54.333305,32.995888 54.44854,32.99344 C54.635567,32.989464 55.056072,33.035637 55.31562,32.976185 C55.535217,32.925884 55.796726,32.733875 55.94766,32.56567 C56.077263,32.421234 56.154186,32.27922 56.253548,32.115906 L56.253548,32.115906" /><path fill="none" stroke="#000000" stroke-width="0.06mm" d="M51.722107,33.357 C51.703087,33.461708 51.693115,33.593273 51.580894,33.64193 C51.50084,33.67664 51.418343,33.690113 51.349895,33.74999 C51.265743,33.82361 51.186867,33.923813 51.13481,34.021797 C50.931976,34.40361 50.827732,35.0082 50.868073,35.442623 C51.03677,37.259186 50.937878,36.875374 51.17845,37.71221 L51.17845,37.71221" /><path fill="none" stroke="#000000" stroke-width="0.06mm" d="M53.102604,33.596107 C52.94566,33.82754 52.67434,33.916054 52.50351,34.13217 C52.463985,34.182175 52.426678,34.234867 52.398926,34.292244 C52.114754,34.879677 51.75673,35.433456 51.789116,36.101322 C51.814583,36.62642 51.865074,36.84994 52.017162,37.361217 C52.051567,37.47689 52.20538,37.70089 52.251534,37.774837 L52.251534,37.774837" /><path fill="none" stroke="#26B8EE" stroke-width="0.06mm" d="M44.69951,30.540337 C44.50328,30.52935 44.343704,30.501892 44.15432,30.544064 C43.637444,30.659164 42.676483,31.280975 42.551025,31.3568 C42.426666,31.431965 42.327225,31.542418 42.22049,31.641026 C42.10072,31.751682 42.064133,31.963585 42.03438,32.10252 C42.01937,32.172615 42.020546,32.271523 42.03337,32.343117 C42.060566,32.49491 42.190506,32.61448 42.30982,32.69892 C42.420486,32.777237 42.615158,32.935375 42.778088,32.978558 C42.888184,33.007736 42.99978,33.033394 43.11287,33.046886 C43.25748,33.064137 43.921825,33.02541 43.923378,33.02536 C44.140144,33.01835 44.104916,33.04534 44.31952,32.98427 C44.599346,32.904633 44.601944,32.813885 44.84601,32.632454 C44.96786,32.54187 45.107185,32.47603 45.22683,32.382545 C45.39138,32.253975 45.515953,32.10535 45.62249,31.928633 C45.674736,31.841969 45.733643,31.713211 45.748375,31.60791 C45.793983,31.281893 45.799316,31.08147 45.556362,30.843784 C45.55137,30.838902 45.328514,30.610474 45.22788,30.57798 C44.91165,30.475876 44.93188,30.491968 44.644165,30.470554 L44.644165,30.470554" /><path fill="none" stroke="#26B8EE" stroke-width="0.06mm" d="M42.56282,31.591898 L42.72163,31.827717" /><path fill="none" stroke="#26B8EE" stroke-width="0.06mm" d="M43.725006,30.978287 L43.85013,31.358486" /><path fill="none" stroke="#26B8EE" stroke-width="0.06mm" d="M43.154743,31.06732 C43.214966,31.245447 43.31791,31.37151 43.44108,31.505268 L43.44108,31.505268" /><path fill="none" stroke="#26B8EE" stroke-width="0.06mm" d="M44.58642,30.629372 L44.451668,31.115448" /><path fill="none" stroke="#26B8EE" stroke-width="0.06mm" d="M45.34436,30.586058 C45.107964,30.865294 45.253857,30.718136 44.88478,31.004757 L44.88478,31.004757" /><path fill="none" stroke="#26B8EE" stroke-width="0.06mm" d="M45.84966,31.235764 C45.4003,31.060589 45.58822,31.06981 45.305862,31.084164 L45.305862,31.084164" /><path fill="none" stroke="#26B8EE" stroke-width="0.06mm" d="M45.418953,32.08519 L44.932907,31.587084" /><path fill="none" stroke="#26B8EE" stroke-width="0.06mm" d="M45.07728,32.708427 L44.8535,32.041878" /><path fill="none" stroke="#26B8EE" stroke-width="0.06mm" d="M44.336174,32.722862 C44.271065,32.34619 44.300087,32.41577 44.15812,32.145348 L44.15812,32.145348" /><path fill="none" stroke="#26B8EE" stroke-width="0.06mm" d="M43.686504,33.01403 C43.71176,32.908188 43.73702,32.802353 43.762276,32.696518 C43.77456,32.661728 43.790283,32.627968 43.799118,32.59215 C43.821228,32.502563 43.836334,32.411392 43.85494,32.32101 L43.85494,32.32101" /><path fill="none" stroke="#26B8EE" stroke-width="0.06mm" d="M43.070526,32.94665 C43.192783,32.637695 43.353165,32.53665 43.6071,32.328228 L43.6071,32.328228" /><path fill="none" stroke="#26B8EE" stroke-width="0.06mm" d="M42.909313,32.669926 C42.94242,32.56073 42.96337,32.43727 43.05262,32.3571 C43.11905,32.297432 43.250877,32.25457 43.309555,32.226624 C43.367558,32.199005 43.424507,32.169235 43.481983,32.140537 L43.481983,32.140537" /><path fill="none" stroke="#26B8EE" stroke-width="0.06mm" d="M42.254833,32.75174 C42.294106,32.6994 42.33087,32.64509 42.37265,32.594734 C42.489456,32.453957 42.727196,32.469044 42.88044,32.453358 L42.88044,32.453358" /><path fill="none" stroke="#26B8EE" stroke-width="0.06mm" d="M42.21152,32.29454 C42.50765,32.112015 42.607937,32.133804 42.945404,32.09482 L42.945404,32.09482" /><path fill="none" stroke="#26B8EE" stroke-width="0.06mm" d="M43.78516,31.777184 C44.13794,31.785248 44.243668,31.693954 44.603256,31.536552 L44.603256,31.536552" /><path fill="none" stroke="#26B8EE" stroke-width="0.06mm" d="M44.215866,31.168386 C44.261196,31.558962 44.24518,31.586649 44.44953,32.053925 C44.459965,32.07778 44.49908,32.069958 44.523857,32.077972 L44.523857,32.077972" /><path fill="none" stroke="#26B8EE" stroke-width="0.06mm" d="M48.30877,27.157059 C48.218365,27.131361 48.15898,27.099451 48.071705,27.105965 C47.95822,27.114435 47.850494,27.193184 47.763077,27.252745 C47.60548,27.36012 47.55317,27.540653 47.5595,27.724897 C47.561554,27.784607 47.56492,27.84517 47.58016,27.902937 C47.66655,28.230404 47.724777,28.426376 47.94522,28.66324 C48.080917,28.809052 48.248203,28.854776 48.44374,28.893538 C48.662544,28.936913 49.18725,29.08533 49.45958,28.930853 C49.584084,28.860231 49.73317,28.77447 49.809937,28.64423 C49.926476,28.446522 49.928543,28.109287 49.825092,27.906862 C49.756306,27.772264 49.679054,27.641798 49.595844,27.515606 C49.56317,27.466053 49.5228,27.42122 49.47869,27.381506 C49.4065,27.316507 49.329147,27.256939 49.248466,27.202833 C49.065765,27.080307 48.840477,27.01215 48.621758,27.00163 C48.5416,26.997776 48.461197,27.001774 48.381023,26.998194 C48.33588,26.996178 48.291283,26.986208 48.246117,26.984863 C48.151814,26.982058 48.065216,27.02142 47.97912,27.053589 L47.97912,27.053589" /><path fill="none" stroke="#26B8EE" stroke-width="0.06mm" d="M48.28952,26.978994 C48.39239,27.470633 48.331306,27.269062 48.443516,27.592602 L48.443516,27.592602" /><path fill="none" stroke="#26B8EE" stroke-width="0.06mm" d="M48.871815,27.140215 C48.725388,27.307251 48.807335,27.19956 48.65285,27.48191 L48.65285,27.48191" /><path fill="none" stroke="#26B8EE" stroke-width="0.06mm" d="M49.593666,27.13781 C49.38011,27.227133 49.507088,27.18408 49.206272,27.246094 L49.206272,27.246094" /><path fill="none" stroke="#26B8EE" stroke-width="0.06mm" d="M49.733223,27.597416 C49.467125,27.582518 49.6249,27.597141 49.261612,27.537258 L49.261612,27.537258" /><path fill="none" stroke="#26B8EE" stroke-width="0.06mm" d="M49.8006,28.223057 C49.541565,28.140985 49.529663,28.089542 49.42283,27.84286 L49.42283,27.84286" /><path fill="none" stroke="#26B8EE" stroke-width="0.06mm" d="M49.588852,28.827044 C49.439972,28.641903 49.39129,28.436983 49.331394,28.213432 L49.331394,28.213432" /><path fill="none" stroke="#26B8EE" stroke-width="0.06mm" d="M49.225517,28.798166 C49.149208,28.576004 49.16133,28.376123 49.17499,28.14846 L49.17499,28.14846" /><path fill="none" stroke="#26B8EE" stroke-width="0.06mm" d="M48.429077,28.718758 L48.79241,28.215837" /><path fill="none" stroke="#26B8EE" stroke-width="0.06mm" d="M48.072964,28.533472 C48.430344,28.260544 48.27648,28.391975 48.542168,28.14846 L48.542168,28.14846" /><path fill="none" stroke="#26B8EE" stroke-width="0.06mm" d="M47.72166,27.965582 C48.017178,28.082886 48.023293,28.058931 48.335236,27.967987 L48.335236,27.967987" /><path fill="none" stroke="#26B8EE" stroke-width="0.06mm" d="M48.73707,27.890985 C48.84803,27.857111 49.02655,27.819933 49.12826,27.73943 C49.218338,27.668139 49.295765,27.58219 49.379517,27.503569 L49.379517,27.503569" /><path fill="none" stroke="#26B8EE" stroke-width="0.06mm" d="M48.960842,27.356785 C49.27709,28.06334 49.13201,27.801811 49.345825,28.167711 L49.345825,28.167711" /><path fill="none" stroke="#26B8EE" stroke-width="0.06mm" d="M48.46998,26.370193 C48.735573,26.272884 48.926598,26.238398 49.138077,26.08642 C49.237053,26.015291 49.329514,25.93551 49.425232,25.860056 L49.425232,25.860056" /><path fill="none" stroke="#26B8EE" stroke-width="0.06mm" d="M48.95363,25.696426 C49.148468,26.34816 49.028763,26.060513 49.285675,26.569918 L49.285675,26.569918" /><path fill="none" stroke="#26B8EE" stroke-width="0.06mm" d="M44.7356,33.64208 C45.422653,33.519615 45.191525,33.58136 46.1494,33.23307 C46.223534,33.206116 46.293747,33.168324 46.360924,33.126984 C46.59072,32.98556 46.63047,32.912823 46.831375,32.703613 L46.831375,32.703613" /><path fill="none" stroke="#26B8EE" stroke-width="0.06mm" d="M45.724537,32.554424 C45.78332,32.687675 45.84211,32.820927 45.900894,32.954178 C45.97236,33.10687 46.053864,33.25525 46.115288,33.41225 C46.607414,34.670166 45.88868,33.042377 46.383827,34.13778 L46.383827,34.13778" /><path fill="none" stroke="#FA356C" stroke-width="0.06mm" d="M45.749237,29.6784 C45.725647,29.942148 45.742172,29.87749 45.65445,30.181692 C45.646904,30.207863 45.634003,30.23221 45.622444,30.256874 C45.5981,30.308842 45.56664,30.357677 45.546776,30.411518 C45.48584,30.576725 45.438118,30.746534 45.38047,30.912916 C45.317932,31.093409 45.353848,30.880539 45.289402,31.185055 C45.25909,31.328283 45.24086,31.473839 45.21293,31.61755 C45.186577,31.753124 45.14832,31.886396 45.126583,32.02279 C45.103943,32.164833 45.102573,32.30973 45.07998,32.451782 C45.060448,32.574585 45.019127,32.6933 45.00039,32.816216 C44.979794,32.951324 44.999702,32.99091 45.005627,33.10997 C45.006626,33.13009 45.003914,33.15025 45.004486,33.170383 C45.004677,33.177055 45.006012,33.15712 45.00678,33.15049 L45.00678,33.15049" /><path fill="none" stroke="#FA356C" stroke-width="0.06mm" d="M45.773964,29.615135 C45.76455,29.632147 45.701607,29.726053 45.692352,29.777073 C45.682808,29.829689 45.684082,29.944761 45.683064,29.977371 C45.68299,29.979832 45.682533,29.972477 45.682274,29.970028 C45.679367,29.93627 45.678173,29.902319 45.673553,29.868752 C45.668777,29.834066 45.65908,29.800182 45.654106,29.765524 C45.651993,29.750792 45.656036,29.725687 45.6608,29.711838 C45.667885,29.691238 45.679115,29.665657 45.69339,29.648062 C45.72449,29.609724 45.771862,29.582014 45.82074,29.574617 C45.823196,29.574245 45.82563,29.575745 45.82787,29.57683 C45.849556,29.587347 45.87091,29.598532 45.892433,29.609383 L45.892433,29.609383" /><path fill="none" stroke="#FA356C" stroke-width="0.06mm" d="M45.898186,29.687027 C45.924442,29.67824 45.997505,29.645325 46.043026,29.644789 C46.192825,29.643026 46.241673,29.643826 46.387146,29.660637 C46.454735,29.668447 46.521366,29.689638 46.589394,29.688272 C46.75528,29.68494 46.920418,29.664194 47.0854,29.646606 C47.13782,29.641016 47.19229,29.611088 47.23095,29.576483 C47.241253,29.56726 47.250656,29.55687 47.258568,29.545528 C47.315575,29.463764 47.327595,29.438452 47.35077,29.33306 C47.35679,29.305712 47.355453,29.277254 47.357796,29.24935 L47.357796,29.24935" /><path fill="none" stroke="#000000" stroke-width="0.06mm" d="M46.6108,29.727251 C46.89318,29.7162 46.88323,29.73447 47.144054,29.659529 C47.204323,29.642212 47.273224,29.613136 47.324158,29.572578 C47.474606,29.452765 47.576187,29.15697 47.591854,28.972181 C47.63156,28.503767 47.64738,28.03336 47.69478,27.565659 C47.71772,27.339306 47.783806,27.28842 47.77345,27.108837 C47.760674,26.887358 47.613525,26.548548 47.49697,26.359655 C47.448803,26.281593 47.38774,26.212088 47.328262,26.142256 C47.130943,25.910599 46.90029,25.586676 46.621536,25.401588 C46.32548,25.205013 46.025467,25.014328 45.72257,24.82847 C45.637115,24.776037 45.542023,24.74038 45.457108,24.687084 C45.349976,24.619843 45.22627,24.486395 45.15695,24.38935 C45.02582,24.205755 44.87459,23.813482 44.79509,23.668922 C44.657173,23.418144 44.51599,23.167934 44.350906,22.934143 C44.221725,22.7512 44.062645,22.591276 43.915142,22.422758 C43.88929,22.39322 43.84401,22.362411 43.80806,22.347307 C43.725395,22.312574 43.65641,22.310282 43.564034,22.295872 L43.564034,22.295872" /><path fill="none" stroke="#000000" stroke-width="0.06mm" d="M43.21444,21.877144 C42.9653,22.083818 42.896667,22.224924 42.803864,22.529625 L42.803864,22.529625" /><path fill="none" stroke="#000000" stroke-width="0.06mm" d="M42.549797,22.690205 C42.45823,22.828045 42.315704,22.998266 42.261776,23.172556 C42.24214,23.236013 42.23292,23.30224 42.218494,23.367079 L42.218494,23.367079" /><path fill="none" stroke="#000000" stroke-width="0.06mm" d="M41.99492,23.985004 C42.01977,24.124193 41.953846,24.222725 41.928993,24.34743 C41.91922,24.396452 41.911964,24.445944 41.90345,24.495201 L41.90345,24.495201" /><path fill="none" stroke="#000000" stroke-width="0.06mm" d="M41.9563,24.981005 L41.832314,25.350948" /><path fill="none" stroke="#000000" stroke-width="0.06mm" d="M41.799793,25.832687 C41.624645,26.18521 41.73063,25.94668 41.543694,26.572573 L41.543694,26.572573" /><path fill="none" stroke="#000000" stroke-width="0.06mm" d="M41.450195,27.125454 C41.508194,27.145252 41.177265,27.774347 41.22321,28.00872 C41.229202,28.039286 41.239033,28.06897 41.246944,28.099094 L41.246944,28.099094" /><path fill="none" stroke="#000000" stroke-width="0.06mm" d="M45.078274,33.333176 C45.087723,33.614433 45.105568,33.89553 45.106613,34.176945 C45.106785,34.22385 45.093155,34.269936 45.081917,34.315475 C45.07532,34.34221 44.981743,34.842308 44.87581,35.024464 C44.857533,35.05589 44.837334,35.08677 44.812294,35.113125 C44.195084,35.762825 43.580513,36.41524 42.949814,37.05185 C42.890484,37.111736 42.815372,37.153816 42.744827,37.199966 C42.59482,37.298103 42.43594,37.288246 42.273407,37.222794 C42.038788,37.12831 41.877182,36.845524 41.757477,36.664963 C41.53064,36.3228 41.536438,36.251892 41.41971,35.876026 L41.41971,35.876026" /><path fill="none" stroke="#000000" stroke-width="0.06mm" d="M42.297764,37.302948 C42.338036,37.351154 42.372536,37.40904 42.4268,37.44396 C42.65705,37.59213 43.261284,37.267956 43.32666,37.240414 C43.40402,37.207825 43.58014,37.107857 43.659374,37.031357 C43.815796,36.88033 43.923813,36.592537 44.00306,36.44314 L44.00306,36.44314" /><path fill="none" stroke="#000000" stroke-width="0.06mm" d="M42.661583,37.41068 C42.404358,37.379745 42.127903,37.37663 41.908493,37.22137 C41.755295,37.11297 41.607086,36.839756 41.553425,36.665115 C41.458588,36.356476 41.378212,36.043415 41.30253,35.72953 C41.28679,35.66427 41.27668,35.59651 41.279587,35.529438 C41.31183,34.78592 41.299232,34.928944 41.460358,34.36373 L41.460358,34.36373" /><path fill="none" stroke="#000000" stroke-width="0.06mm" d="M41.539627,34.351536 C41.51944,34.2634 41.490147,34.176865 41.47906,34.087128 C41.46659,33.986168 41.464424,33.883713 41.469288,33.7821 C41.488754,33.375427 41.496315,32.966797 41.551987,32.563484 C41.591236,32.279106 41.72979,32.012203 41.753075,31.726078 C41.792095,31.246511 41.781075,30.761889 41.73757,30.28271 C41.703705,29.909678 41.60774,29.544502 41.52191,29.179901 C41.282867,28.164427 41.312675,28.782934 41.305885,28.214956 L41.305885,28.214956" /><path fill="none" stroke="#000000" stroke-width="0.06mm" d="M38.60871,25.75951 C38.693428,26.114388 38.685074,26.129826 38.852726,26.527601 C38.88115,26.595043 38.921883,26.656683 38.959717,26.719334 C39.012558,26.806837 39.118034,26.802832 39.206276,26.808361 L39.206276,26.808361" /><path fill="none" stroke="#000000" stroke-width="0.06mm" d="M38.681885,26.245317 C38.83719,26.644127 38.725258,26.392012 39.023724,26.91368 C39.0815,27.014664 39.175034,27.21465 39.294086,27.272861 C39.575428,27.410423 39.87886,27.503786 40.149567,27.661247 C41.04921,28.184538 41.091743,28.3803 41.712395,29.200792 L41.712395,29.200792" /><path fill="none" stroke="#FA356C" stroke-width="0.06mm" d="M45.175835,33.111618 C45.358025,33.22003 45.415844,33.232544 45.610794,33.221382 L45.610794,33.221382" /><path fill="none" stroke="#FA356C" stroke-width="0.06mm" d="M45.175835,32.564835 C45.38597,32.741577 45.40632,32.704124 45.70836,32.72338 L45.70836,32.72338" /><path fill="none" stroke="#FA356C" stroke-width="0.06mm" d="M45.238842,31.849339 C45.695736,32.041763 45.483818,31.976395 45.866894,32.068867 L45.866894,32.068867" /><path fill="none" stroke="#FA356C" stroke-width="0.06mm" d="M45.38925,31.363537 C45.497704,31.439445 45.61322,31.56104 45.7546,31.583872 C45.855934,31.600233 45.924263,31.58292 46.035595,31.572899 L46.035595,31.572899" /><path fill="none" stroke="#FA356C" stroke-width="0.06mm" d="M45.572178,30.865536 C45.95506,31.115265 45.777393,31.01982 46.09454,31.170433 L46.09454,31.170433" /><path fill="none" stroke="#FA356C" stroke-width="0.06mm" d="M45.86283,30.5708 C45.999336,30.706825 45.923088,30.63996 46.09454,30.767967 L46.09454,30.767967" /><path fill="none" stroke="#FA356C" stroke-width="0.06mm" d="M45.74088,29.9793 C46.18888,30.309435 45.986862,30.204992 46.314053,30.349241 L46.314053,30.349241" /><path fill="none" stroke="#FA356C" stroke-width="0.06mm" d="M48.242302,35.62555 C48.05641,35.3948 47.471092,35.081345 47.352238,34.68689 C47.28965,34.47917 47.23481,34.26881 47.19136,34.056267 C47.172943,33.966167 47.194016,33.869396 47.167152,33.781445 C47.12407,33.640396 47.04528,33.512836 46.984344,33.378532 L46.984344,33.378532" /><path fill="none" stroke="#FA356C" stroke-width="0.06mm" d="M46.68621,33.454887 L46.497643,33.349934" /><path fill="none" stroke="#FA356C" stroke-width="0.06mm" d="M45.93725,33.349445 L45.752316,33.149956" /><path fill="none" stroke="#FA356C" stroke-width="0.06mm" d="M50.434654,37.232635 L50.285587,36.75633" /><path fill="none" stroke="#FA356C" stroke-width="0.06mm" d="M46.69348,33.960285 C47.223656,34.097065 47.43853,34.795094 47.83906,35.09179 C47.893715,35.13227 47.952766,35.16645 48.009617,35.20378 L48.009617,35.20378" /><path fill="none" stroke="#FA356C" stroke-width="0.06mm" d="M46.362633,33.862114 C46.459885,33.966278 46.547134,34.08077 46.65439,34.1746 C46.910133,34.398335 47.21115,34.570396 47.449303,34.812767 C49.075253,36.46754 47.673214,35.36937 48.624058,36.08368 L48.624058,36.08368" /><path fill="none" stroke="#FA356C" stroke-width="0.06mm" d="M48.60224,35.98187 C50.09565,37.04348 49.39074,36.460487 50.613472,38.303757 C50.68023,38.404392 50.87947,38.57931 50.972744,38.6652 L50.972744,38.6652" /><path fill="none" stroke="#FA356C" stroke-width="0.06mm" d="M51.016373,38.74519 C52.050922,40.776196 51.611298,40.081017 52.716652,41.715546 C52.80685,41.84893 52.905376,41.97653 52.996616,42.109207 C53.13976,42.317356 53.21313,42.495632 53.398808,42.646633 C53.58677,42.79949 53.719448,42.839928 53.954044,42.95198 L53.954044,42.95198" /><path fill="none" stroke="#FA356C" stroke-width="0.06mm" d="M53.801346,43.235584 C55.63293,44.48872 53.639584,43.04985 55.60708,44.758663 C55.910397,45.0221 56.249542,45.24119 56.570774,45.482456 C57.419113,46.359005 58.22018,47.283913 59.11579,48.112106 C59.763004,48.7106 60.50044,49.203495 61.189396,49.753418 C61.26207,49.811424 61.33014,49.874973 61.40051,49.935753 C61.540752,50.029633 61.685883,50.116596 61.82124,50.217396 C61.928154,50.297016 62.017612,50.398777 62.126167,50.47615 C62.174038,50.51027 62.228466,50.557133 62.286705,50.549152 C62.378918,50.53652 62.451828,50.463196 62.534386,50.42022 L62.534386,50.42022" /><path fill="none" stroke="#FA356C" stroke-width="0.06mm" d="M62.261703,49.842102 C61.747967,48.688946 61.942226,48.904545 61.509518,48.3101 C61.420586,48.187927 61.31829,48.07497 61.238914,47.946384 C61.102028,47.724636 61.02774,47.462585 60.862133,47.26138 C60.127823,46.36924 59.320454,45.53983 58.549618,44.679054 L58.549618,44.679054" /><path fill="none" stroke="#FA356C" stroke-width="0.06mm" d="M57.02988,42.570206 C56.276157,41.39528 57.40144,43.13058 55.730778,40.735134 C55.685734,40.670547 55.66125,40.593826 55.626484,40.52317 L55.626484,40.52317" /><path fill="none" stroke="#FA356C" stroke-width="0.06mm" d="M56.869907,42.402954 C56.92315,42.499878 56.96283,42.6056 57.02963,42.69373 C57.31169,43.06587 57.632874,43.407307 57.913834,43.780277 C59.09838,45.352764 58.03652,44.18305 59.134975,45.326252 L59.134975,45.326252" /><path fill="none" stroke="#FA356C" stroke-width="0.06mm" d="M46.642586,30.469776 C47.263046,30.898214 47.91951,31.364246 48.289574,32.033234 L48.289574,32.033234" /><path fill="none" stroke="#FA356C" stroke-width="0.06mm" d="M55.899162,40.603157 C55.423496,40.26362 55.27264,40.003162 54.972446,39.46808 C54.934906,39.401157 54.905804,39.328674 54.887344,39.254196 C54.856922,39.131454 54.846867,39.004547 54.826622,38.879723 L54.826622,38.879723" /><path fill="none" stroke="#FA356C" stroke-width="0.06mm" d="M55.226555,39.530556 C54.90471,39.281067 54.56686,39.050957 54.261013,38.782093 C54.04047,38.588226 53.860615,38.35223 53.651566,38.146027 C53.541653,38.037613 53.412777,37.949345 53.304848,37.83896 C53.249893,37.782757 53.17357,37.726974 53.165394,37.6488 C53.160515,37.60212 53.25436,37.682735 53.291515,37.71142 C53.723164,38.044624 54.133274,38.40545 54.56948,38.73267 C54.59698,38.7533 54.547623,38.666313 54.5274,38.638508 C54.464523,38.55204 54.394714,38.470535 54.32192,38.39223 C53.548485,37.56026 52.7706,36.732414 51.98905,35.90806 C51.868385,35.78078 51.729195,35.67106 51.61547,35.537533 C51.356194,35.233112 51.12487,34.905838 50.871773,34.596256 C50.836094,34.552612 50.7949,34.512985 50.749992,34.478912 C50.657215,34.408512 50.556732,34.348892 50.460102,34.283882 L50.460102,34.283882" /><path fill="none" stroke="#FA356C" stroke-width="0.06mm" d="M52.208893,36.200027 C51.019585,34.79241 51.503036,35.24672 50.215317,34.136528 C49.670937,33.6672 49.632454,33.929207 49.76204,33.563965 L49.76204,33.563965" /><path fill="none" stroke="#FA356C" stroke-width="0.06mm" d="M49.583893,32.800415 C49.6952,33.11786 49.701004,33.208332 49.903484,33.4853 C50.13984,33.8086 50.46962,34.11298 50.783764,34.348488 C50.80733,34.366154 50.77659,34.288414 50.76194,34.26286 C50.733414,34.213104 50.7005,34.16375 50.65665,34.12678 C49.95575,33.53586 49.23079,32.97384 48.530823,32.381813 C48.4711,32.331303 48.422623,32.267532 48.380493,32.20163 C48.283554,32.04999 48.203537,31.888176 48.115055,31.731447 L48.115055,31.731447" /><path fill="none" stroke="#FA356C" stroke-width="0.06mm" d="M54.125908,45.733185 C54.385952,43.97299 54.111263,46.116676 54.21744,44.058495 C54.23366,43.744076 54.26897,43.429398 54.33223,43.12098 C54.340973,43.078358 54.372612,43.198624 54.385265,43.240253 C54.412315,43.329243 54.444363,43.418674 54.45092,43.51145 C54.472168,43.812138 54.491226,44.11503 54.468327,44.415592 C54.44693,44.69638 54.378227,44.9718 54.31868,45.247036 C54.07253,46.384712 54.081295,46.69477 53.643684,47.543983 C53.60029,47.62819 53.54494,47.707138 53.480854,47.776897 C52.897568,48.4118 53.017258,48.302254 52.524868,48.642933 L52.524868,48.642933" /><path fill="none" stroke="#FA356C" stroke-width="0.06mm" d="M54.61853,43.608612 C54.268528,43.979275 53.929623,44.36074 53.568523,44.720604 C53.524082,44.764893 53.628155,44.609783 53.664925,44.55895 C53.769547,44.4143 53.876587,44.271053 53.99211,44.13495 C54.258026,43.82165 54.530228,43.513577 54.808697,43.21138 C54.82246,43.19644 54.844707,43.19009 54.864895,43.187794 C54.992958,43.17323 55.062397,43.49359 55.064953,43.504387 C55.266357,44.35532 55.238777,44.47543 55.30359,45.359848 L55.30359,45.359848" /><path fill="none" stroke="#FA356C" stroke-width="0.06mm" d="M50.769882,48.419697 C50.119766,49.024986 49.978992,49.927216 49.706318,50.737003 C49.69767,50.762676 49.468044,51.294292 49.604244,51.3448 C49.62458,51.35234 49.64721,51.33882 49.668686,51.33583 C49.82119,51.221752 49.981895,51.11789 50.126194,50.99359 C50.56061,50.619377 50.77584,49.986202 50.98029,49.493286 C51.0527,49.31871 51.093952,49.107044 51.09514,48.916763 C51.099,48.298237 51.071205,48.93258 51.041397,48.479378 C51.034866,48.380154 51.042557,48.280502 51.043137,48.18107 L51.043137,48.18107" /><path fill="none" stroke="#FA356C" stroke-width="0.06mm" d="M51.60889,48.165672 C51.9293,47.797024 52.050568,47.748325 52.53251,47.64012 C52.754524,47.59028 53.01341,47.74374 53.077568,47.959843 C53.124336,48.11736 53.22698,48.35193 53.173428,48.539757 C53.113567,48.749706 52.92627,48.85023 52.954033,49.10409 C52.96281,49.18435 52.99728,49.256367 53.05419,49.313694 C53.254166,49.515137 53.46799,49.380554 53.562973,49.14736 C53.623978,48.997593 53.636593,48.79532 53.444866,48.75083 C53.39123,48.738388 53.333946,48.74055 53.284588,48.76694 C53.188103,48.818523 53.121,48.970848 53.075226,49.043213 L53.075226,49.043213" /><path fill="none" stroke="#FA356C" stroke-width="0.06mm" d="M50.916134,48.519768 C50.73669,48.1665 50.797073,47.749695 50.626827,47.396496 C50.34376,46.80923 49.51149,46.448643 48.91748,46.78328 C48.84945,46.82161 48.798935,46.894905 48.77484,46.96756 C48.706676,47.17311 48.81629,47.374462 49.01951,47.445816 C49.233597,47.520985 49.40638,47.39924 49.499924,47.210896 C49.547195,47.115723 49.563328,46.99796 49.51672,46.899178 C49.480423,46.822254 49.334812,46.77171 49.295853,46.74929 L49.295853,46.74929" /><path fill="none" stroke="#FA356C" stroke-width="0.06mm" d="M50.207985,49.251053 C50.214237,49.14663 50.226868,49.042397 50.226746,48.937786 C50.22645,48.686684 50.038177,48.446346 49.828453,48.327408 C49.687008,48.247192 49.54763,48.158245 49.393387,48.10676 C49.060776,47.995724 48.25252,47.71223 47.77169,47.804123 C47.527603,47.850773 47.362526,47.93135 47.143093,48.062283 C47.031845,48.12866 46.911102,48.217674 46.83062,48.32513 C46.67933,48.527122 46.631004,48.854427 46.818634,49.05099 C46.887398,49.123028 47.012188,49.187744 47.075783,49.240772 C47.264336,49.397984 47.352272,49.601208 47.180832,49.80534 C47.126503,49.870026 47.06492,49.912632 46.990723,49.954144 C46.75612,50.085396 46.505444,50.169327 46.31404,50.357998 C46.16584,50.504086 46.053936,50.737022 45.974487,50.907322 C45.83048,51.216015 45.756397,51.617096 46.05889,51.860077 C46.566505,52.267822 47.198414,51.76348 47.656166,51.526237 C47.96488,51.36624 48.285336,51.22921 48.59137,51.064137 C48.765053,50.97045 48.962666,50.70155 49.154533,50.65748 C49.29078,50.626183 49.43348,50.63846 49.572956,50.62895 L49.572956,50.62895" /><path fill="none" stroke="#FA356C" stroke-width="0.06mm" d="M51.18554,49.47044 C51.553684,49.37203 51.664936,48.94933 52.0102,48.823105 C52.462173,48.657867 53.03844,48.872234 53.28438,49.284485 C53.307472,49.323193 53.98444,50.338776 54.08369,50.806736 C54.192905,51.32167 54.280575,51.840942 54.37909,52.358032 C54.40296,52.483345 54.463017,52.66981 54.4047,52.79789 C54.348698,52.92088 54.1597,52.890945 54.061157,52.866863 C53.572773,52.7475 53.331707,52.299446 53.03594,51.941074 C52.750782,51.59556 52.285732,51.811165 52.255634,52.22161 C52.25186,52.273075 52.24523,52.326153 52.256912,52.37642 C52.32446,52.667164 52.42514,52.949554 52.492325,53.240383 C52.58773,53.65339 52.37645,54.073597 51.91636,54.058365 C51.651592,54.0496 51.39863,53.836796 51.258644,53.62698 C51.104023,53.395233 51.051376,53.100384 51.04122,52.82701 C51.03396,52.631626 51.073593,52.43316 51.04054,52.240456 C50.937893,51.836216 50.83525,51.431976 50.732605,51.027737 C50.716827,50.97041 50.69538,50.91435 50.685272,50.855755 C50.652145,50.663826 50.685547,50.547745 50.708305,50.340286 L50.708305,50.340286" /><path fill="none" stroke="#FA356C" stroke-width="0.06mm" d="M58.70809,42.678585 C58.597454,42.653862 58.488743,42.617855 58.37617,42.604416 C58.071842,42.568073 57.670372,42.5976 57.397366,42.73715 C57.24287,42.81612 57.13688,42.917774 57.00973,43.042366 C56.860077,43.189014 56.820713,43.39393 56.817875,43.59623 C56.815914,43.73602 56.825344,43.901016 56.93752,44.001564 C56.995842,44.05384 57.106464,44.11111 57.1864,44.105995 C57.398563,44.092426 57.892883,44.088837 58.184635,43.971092 C58.229862,43.952843 58.274075,43.930855 58.314213,43.903152 C58.425007,43.82669 58.53251,43.745247 58.63623,43.659435 C58.827972,43.500805 58.86912,43.186775 58.788136,42.96459 C58.745724,42.84823 58.67618,42.71296 58.55799,42.656635 C58.34961,42.55733 58.067657,42.695347 57.8767,42.757618 L57.8767,42.757618" /><path fill="none" stroke="#FA356C" stroke-width="0.06mm" d="M63.459328,39.159996 C63.15533,39.13597 62.85197,39.101463 62.547325,39.08792 C62.249424,39.074677 61.756638,39.26185 61.527706,39.469357 C61.33624,39.642902 61.131664,40.065384 61.220787,40.325516 C61.264973,40.45449 61.376892,40.563034 61.48388,40.641464 C61.552616,40.691856 61.68036,40.753117 61.762897,40.763805 C62.436306,40.851 62.86925,40.77413 63.51813,40.574005 C63.60108,40.548424 63.681053,40.512646 63.75771,40.4719 C63.98942,40.348743 64.1987,40.090904 64.35473,39.919415 C64.47162,39.79094 64.55182,39.552956 64.43261,39.40309 C64.227196,39.144867 63.705032,39.15473 63.44606,39.113445 C63.41349,39.108253 63.381367,39.098907 63.350967,39.086117 C63.20008,39.022636 63.052296,38.95201 62.90296,38.88496 L62.90296,38.88496" /><path fill="none" stroke="#FA356C" stroke-width="0.06mm" d="M64.91979,34.895332 C64.29627,34.893944 63.80455,35.103123 63.31245,35.47429 C63.212868,35.549404 63.147964,35.693977 63.117523,35.80932 C63.0277,36.14967 63.036503,36.53121 63.31994,36.784206 C63.520725,36.963425 63.790398,37.002842 64.05139,37.03145 C64.75093,37.108116 65.1909,36.886143 65.85782,36.60987 C66.040115,36.534355 66.389534,36.224022 66.3555,35.998116 C66.3305,35.832188 66.09675,35.56455 66.05086,35.503967 C66.016556,35.458683 65.91184,35.38569 65.866165,35.36708 C65.67442,35.288975 65.30679,35.110985 65.03319,35.100155 C64.7784,35.090073 64.626366,35.15714 64.366585,35.227276 L64.366585,35.227276" /><path fill="none" stroke="#FA356C" stroke-width="0.06mm" d="M70.55798,33.000828 C70.33033,33.045567 70.10268,33.09031 69.875015,33.135048 C69.66565,33.153404 69.452896,33.148304 69.24693,33.19011 C68.79967,33.28089 68.426025,33.453735 68.03285,33.6752 C67.5155,33.966606 67.65039,34.564064 67.83711,35.015034 C67.96619,35.326782 68.11133,35.632442 68.27289,35.92866 C68.33716,36.046482 68.41941,36.155453 68.51207,36.252544 C68.913025,36.67271 69.23725,36.98356 69.81698,37.02127 C70.025024,37.0348 70.29921,37.021854 70.49939,36.94563 C71.18613,36.68413 71.60794,36.424816 72.09094,35.879898 C72.27179,35.675865 72.42891,35.438477 72.386185,35.154633 C72.34177,34.85958 72.33825,34.581097 72.12073,34.368397 C71.84106,34.094933 71.46295,33.911125 71.08036,33.835995 C69.7925,33.583103 69.564735,33.4789 68.52873,33.64283 L68.52873,33.64283" /><path fill="none" stroke="#FA356C" stroke-width="0.06mm" d="M71.99423,34.37732 C72.04556,33.41754 71.99008,33.49212 72.482086,32.271034 C72.68417,31.769484 73.120804,31.28541 73.49269,30.91301 C73.589005,30.816555 73.69153,30.720758 73.81281,30.658546 C74.40622,30.354176 75.035065,30.12243 75.62825,29.817633 C75.66547,29.79851 75.548,29.78816 75.50615,29.788452 C74.80438,29.793344 74.10126,29.783049 73.40126,29.833158 C73.15178,29.851017 72.90913,29.925835 72.667816,29.991636 C72.54169,30.02603 72.22429,30.02776 72.301956,30.132915 C72.38466,30.24488 72.57219,30.05398 72.71134,30.05057 C73.363396,30.034592 74.01593,30.092813 74.66793,30.074944 C74.89905,30.06861 75.12488,30.002789 75.35477,29.97812 C75.3856,29.974812 75.41736,29.981747 75.44684,29.991365 C75.80951,30.109705 75.24762,30.965628 75.18596,31.091871 C75.03833,31.39409 75.01233,31.80019 75.05716,32.130318 L75.05716,32.130318" /><text x="55.00889" y="36.5566" font-family="sans-serif" font-size=".2mm" fill="black">zamkn ptli  pomiar </text>
<text x="77.46179" y="27.206512" font-family="sans-serif" font-size=".2mm" fill="black">5 meander </text>
</g>
<g>
<line fill="none" stroke="#5674b9" stroke-width="0.05mm" stroke-dasharray="0.4,0.2" opacity="0.61" x1="20.00" y1="49.00" x2="22.83" y2="20.67" />
<line fill="none" stroke="#111111" stroke-width="0.05mm" x1="20.00" y1="49.00" x2="22.83" y2="21.13" />
<line fill="none" stroke="#111111" stroke-width="0.05mm" x1="22.83" y1="21.13" x2="33.57" y2="30.04" />
<line fill="none" stroke="#5674b9" stroke-width="0.05mm" stroke-dasharray="0.4,0.2" opacity="1.00" x1="33.57" y1="30.04" x2="33.24" y2="28.13" />
<line fill="none" stroke="#00aeef" stroke-width="0.05mm" stroke-dasharray="0.4,0.2" opacity="0.86" x1="33.57" y1="30.04" x2="35.04" y2="26.67" />
<line fill="none" stroke="#5674b9" stroke-width="0.05mm" stroke-dasharray="0.4,0.2" opacity="0.06" x1="33.57" y1="30.04" x2="33.36" y2="29.81" />
<line fill="none" stroke="#00aeef" stroke-width="0.05mm" stroke-dasharray="0.4,0.2" opacity="0.13" x1="33.57" y1="30.04" x2="30.24" y2="30.91" />
<line fill="none" stroke="#111111" stroke-width="0.05mm" x1="33.57" y1="30.04" x2="37.71" y2="23.94" />
<line fill="none" stroke="#00aeef" stroke-width="0.05mm" stroke-dasharray="0.4,0.2" opacity="0.92" x1="37.71" y1="23.94" x2="37.02" y2="23.65" />
<line fill="none" stroke="#00aeef" stroke-width="0.05mm" stroke-dasharray="0.4,0.2" opacity="0.10" x1="37.71" y1="23.94" x2="37.32" y2="24.57" />
<line fill="none" stroke="#5674b9" stroke-width="0.05mm" stroke-dasharray="0.4,0.2" opacity="0.17" x1="37.71" y1="23.94" x2="37.20" y2="24.63" />
<line fill="none" stroke="#00aeef" stroke-width="0.05mm" stroke-dasharray="0.4,0.2" opacity="0.97" x1="37.71" y1="23.94" x2="34.48" y2="30.05" />
<line fill="none" stroke="#5674b9" stroke-width="0.05mm" stroke-dasharray="0.4,0.2" opacity="0.98" x1="37.71" y1="23.94" x2="35.86" y2="26.83" />
<line fill="none" stroke="#5674b9" stroke-width="0.05mm" stroke-dasharray="0.4,0.2" opacity="0.98" x1="37.71" y1="23.94" x2="35.88" y2="26.78" />
<line fill="none" stroke="#5674b9" stroke-width="0.05mm" stroke-dasharray="0.4,0.2" opacity="0.99" x1="37.71" y1="23.94" x2="34.87" y2="30.17" />
<line fill="none" stroke="#00aeef" stroke-width="0.05mm" stroke-dasharray="0.4,0.2" opacity="0.99" x1="37.71" y1="23.94" x2="36.10" y2="28.92" />
<line fill="none" stroke="#5674b9" stroke-width="0.05mm" stroke-dasharray="0.4,0.2" opacity="0.97" x1="37.71" y1="23.94" x2="37.35" y2="28.56" />
<line fill="none" stroke="#00aeef" stroke-width="0.05mm" stroke-dasharray="0.4,0.2" opacity="0.92" x1="37.71" y1="23.94" x2="38.08" y2="26.00" />
<line fill="none" stroke="#111111" stroke-width="0.05mm" x1="37.71" y1="23.94" x2="37.92" y2="25.44" />
<line fill="none" stroke="#00aeef" stroke-width="0.05mm" stroke-dasharray="0.4,0.2" opacity="0.99" x1="37.92" y1="25.44" x2="43.94" y2="26.46" />
<line fill="none" stroke="#00aeef" stroke-width="0.05mm" stroke-dasharray="0.4,0.2" opacity="0.98" x1="37.92" y1="25.44" x2="45.16" y2="24.46" />
<line fill="none" stroke="#00aeef" stroke-width="0.05mm" stroke-dasharray="0.4,0.2" opacity="0.99" x1="37.92" y1="25.44" x2="43.09" y2="22.23" />
<line fill="none" stroke="#00aeef" stroke-width="0.05mm" stroke-dasharray="0.4,0.2" opacity="0.96" x1="37.92" y1="25.44" x2="40.49" y2="20.34" />
<line fill="none" stroke="#00aeef" stroke-width="0.05mm" stroke-dasharray="0.4,0.2" opacity="0.93" x1="37.92" y1="25.44" x2="38.14" y2="19.19" />
<line fill="none" stroke="#00aeef" stroke-width="0.05mm" stroke-dasharray="0.4,0.2" opacity="0.89" x1="37.92" y1="25.44" x2="35.39" y2="21.10" />
<line fill="none" stroke="#111111" stroke-width="0.05mm" x1="37.92" y1="25.44" x2="46.04" y2="26.58" />
<line fill="none" stroke="#5674b9" stroke-width="0.05mm" stroke-dasharray="0.4,0.2" opacity="0.80" x1="46.04" y1="26.58" x2="53.41" y2="32.40" />
<line fill="none" stroke="#111111" stroke-width="0.05mm" x1="46.04" y1="26.58" x2="52.55" y2="33.18" />
<line fill="none" stroke="#00aeef" stroke-width="0.05mm" stroke-dasharray="0.4,0.2" opacity="0.83" x1="52.55" y1="33.18" x2="47.84" y2="29.52" />
<line fill="none" stroke="#00aeef" stroke-width="0.05mm" stroke-dasharray="0.4,0.2" opacity="0.81" x1="52.55" y1="33.18" x2="48.30" y2="30.92" />
<line fill="none" stroke="#00aeef" stroke-width="0.05mm" stroke-dasharray="0.4,0.2" opacity="0.83" x1="52.55" y1="33.18" x2="48.29" y2="31.82" />
<line fill="none" stroke="#00aeef" stroke-width="0.05mm" stroke-dasharray="0.4,0.2" opacity="0.97" x1="52.55" y1="33.18" x2="56.04" y2="32.89" />
<line fill="none" stroke="#00aeef" stroke-width="0.05mm" stroke-dasharray="0.4,0.2" opacity="0.98" x1="52.55" y1="33.18" x2="54.16" y2="27.16" />
<line fill="none" stroke="#00aeef" stroke-width="0.05mm" stroke-dasharray="0.4,0.2" opacity="0.93" x1="52.55" y1="33.18" x2="51.83" y2="27.66" />
<line fill="none" stroke="#00aeef" stroke-width="0.05mm" stroke-dasharray="0.4,0.2" opacity="0.87" x1="52.55" y1="33.18" x2="47.18" y2="27.18" />
<line fill="none" stroke="#00aeef" stroke-width="0.05mm" stroke-dasharray="0.4,0.2" opacity="0.86" x1="52.55" y1="33.18" x2="47.90" y2="29.39" />
<line fill="none" stroke="#111111" stroke-width="0.05mm" x1="52.55" y1="33.18" x2="50.85" y2="36.65" />
<line fill="none" stroke="#111111" stroke-width="0.05mm" x1="52.55" y1="33.18" x2="55.73" y2="28.66" />
<line fill="none" stroke="#5674b9" stroke-width="0.05mm" stroke-dasharray="0.4,0.2" opacity="0.30" x1="55.73" y1="28.66" x2="54.44" y2="29.01" />
<line fill="none" stroke="#111111" stroke-width="0.05mm" x1="55.73" y1="28.66" x2="43.54" y2="31.97" />
<line fill="none" stroke="#111111" stroke-width="0.05mm" x1="55.73" y1="28.66" x2="47.40" y2="27.86" />
<line fill="none" stroke="#111111" stroke-width="0.05mm" x1="46.04" y1="26.58" x2="45.70" y2="29.58" />
<line fill="none" stroke="#00aeef" stroke-width="0.05mm" stroke-dasharray="0.4,0.2" opacity="0.94" x1="45.70" y1="29.58" x2="44.97" y2="33.22" />
<line fill="none" stroke="#00aeef" stroke-width="0.05mm" stroke-dasharray="0.4,0.2" opacity="0.42" x1="45.70" y1="29.58" x2="47.26" y2="29.62" />
<line fill="none" stroke="#00aeef" stroke-width="0.05mm" stroke-dasharray="0.4,0.2" opacity="0.51" x1="45.70" y1="29.58" x2="47.60" y2="26.47" />
<line fill="none" stroke="#00aeef" stroke-width="0.05mm" stroke-dasharray="0.4,0.2" opacity="0.55" x1="45.70" y1="29.58" x2="43.00" y2="21.86" />
<line fill="none" stroke="#00aeef" stroke-width="0.05mm" stroke-dasharray="0.4,0.2" opacity="0.50" x1="45.70" y1="29.58" x2="41.90" y2="24.66" />
<line fill="none" stroke="#00aeef" stroke-width="0.05mm" stroke-dasharray="0.4,0.2" opacity="0.46" x1="45.70" y1="29.58" x2="41.18" y2="28.62" />
<line fill="none" stroke="#00aeef" stroke-width="0.05mm" stroke-dasharray="0.4,0.2" opacity="0.47" x1="45.70" y1="29.58" x2="41.67" y2="31.49" />
<line fill="none" stroke="#00aeef" stroke-width="0.05mm" stroke-dasharray="0.4,0.2" opacity="0.56" x1="45.70" y1="29.58" x2="41.32" y2="34.73" />
<line fill="none" stroke="#00aeef" stroke-width="0.05mm" stroke-dasharray="0.4,0.2" opacity="0.66" x1="45.70" y1="29.58" x2="42.07" y2="37.58" />
<line fill="none" stroke="#00aeef" stroke-width="0.05mm" stroke-dasharray="0.4,0.2" opacity="0.61" x1="45.70" y1="29.58" x2="44.70" y2="35.23" />
<line fill="none" stroke="#00aeef" stroke-width="0.05mm" stroke-dasharray="0.4,0.2" opacity="0.91" x1="45.70" y1="29.58" x2="46.52" y2="33.13" />
<line fill="none" stroke="#00aeef" stroke-width="0.05mm" stroke-dasharray="0.4,0.2" opacity="1.00" x1="45.70" y1="29.58" x2="48.91" y2="35.95" />
<line fill="none" stroke="#5674b9" stroke-width="0.05mm" stroke-dasharray="0.4,0.2" opacity="0.95" x1="45.70" y1="29.58" x2="52.96" y2="42.58" />
<line fill="none" stroke="#5674b9" stroke-width="0.05mm" stroke-dasharray="0.4,0.2" opacity="0.97" x1="45.70" y1="29.58" x2="55.67" y2="44.49" />
<line fill="none" stroke="#5674b9" stroke-width="0.05mm" stroke-dasharray="0.4,0.2" opacity="0.93" x1="45.70" y1="29.58" x2="62.09" y2="50.65" />
<line fill="none" stroke="#5674b9" stroke-width="0.05mm" stroke-dasharray="0.4,0.2" opacity="0.97" x1="45.70" y1="29.58" x2="55.83" y2="41.19" />
<line fill="none" stroke="#5674b9" stroke-width="0.05mm" stroke-dasharray="0.4,0.2" opacity="0.31" x1="45.70" y1="29.58" x2="57.81" y2="42.11" />
<line fill="none" stroke="#5674b9" stroke-width="0.05mm" stroke-dasharray="0.4,0.2" opacity="0.30" x1="45.70" y1="29.58" x2="56.06" y2="42.99" />
<line fill="none" stroke="#111111" stroke-width="0.05mm" x1="45.70" y1="29.58" x2="56.41" y2="43.19" />
<line fill="none" stroke="#5674b9" stroke-width="0.05mm" stroke-dasharray="0.4,0.2" opacity="0.40" x1="56.41" y1="43.19" x2="72.36" y2="58.39" />
<line fill="none" stroke="#5674b9" stroke-width="0.05mm" stroke-dasharray="0.4,0.2" opacity="0.30" x1="56.41" y1="43.19" x2="66.92" y2="56.46" />
<line fill="none" stroke="#5674b9" stroke-width="0.05mm" stroke-dasharray="0.4,0.2" opacity="0.30" x1="56.41" y1="43.19" x2="67.04" y2="56.49" />
<line fill="none" stroke="#5674b9" stroke-width="0.05mm" stroke-dasharray="0.4,0.2" opacity="0.30" x1="56.41" y1="43.19" x2="66.78" y2="56.49" />
<line fill="none" stroke="#5674b9" stroke-width="0.05mm" stroke-dasharray="0.4,0.2" opacity="0.30" x1="56.41" y1="43.19" x2="67.02" y2="56.64" />
<line fill="none" stroke="#5674b9" stroke-width="0.05mm" stroke-dasharray="0.4,0.2" opacity="0.35" x1="56.41" y1="43.19" x2="68.15" y2="58.94" />
<line fill="none" stroke="#111111" stroke-width="0.05mm" x1="56.41" y1="43.19" x2="61.28" y2="39.73" />
<line fill="none" stroke="#111111" stroke-width="0.05mm" x1="61.28" y1="39.73" x2="63.56" y2="35.79" />
<line fill="none" stroke="#111111" stroke-width="0.05mm" x1="63.56" y1="35.79" x2="67.76" y2="35.04" />
</g>
<g>
<circle cx="20.00" cy="49.00" r="0.1" fill="#111111" />
<circle cx="22.83" cy="21.13" r="0.1" fill="#111111" />
<circle cx="33.57" cy="30.04" r="0.1" fill="#111111" />
<circle cx="37.71" cy="23.94" r="0.1" fill="#111111" />
<circle cx="37.92" cy="25.44" r="0.1" fill="#111111" />
<circle cx="46.04" cy="26.58" r="0.1" fill="#111111" />
<circle cx="52.55" cy="33.18" r="0.1" fill="#111111" />
<circle cx="50.85" cy="36.65" r="0.1" fill="#111111" />
<circle cx="55.73" cy="28.66" r="0.1" fill="#111111" />
<circle cx="43.54" cy="31.97" r="0.1" fill="#111111" />
<circle cx="47.40" cy="27.86" r="0.1" fill="#111111" />
<circle cx="45.70" cy="29.58" r="0.1" fill="#111111" />
<circle cx="56.41" cy="43.19" r="0.1" fill="#111111" />
<circle cx="61.28" cy="39.73" r="0.1" fill="#111111" />
<circle cx="63.56" cy="35.79" r="0.1" fill="#111111" />
<circle cx="67.76" cy="35.04" r="0.1" fill="#111111" />
</g>
<g>
<text x="20.20" y="49.00" font-size=".2mm" fill="#000000">0</text>
<text x="23.03" y="21.13" font-size=".2mm" fill="#000000">1</text>
<text x="33.77" y="30.04" font-size=".2mm" fill="#000000">2</text>
<text x="37.91" y="23.94" font-size=".2mm" fill="#000000">13</text>
<text x="38.12" y="25.44" font-size=".2mm" fill="#000000">13.1</text>
<text x="46.24" y="26.58" font-size=".2mm" fill="#000000">13.2</text>
<text x="52.75" y="33.18" font-size=".2mm" fill="#000000">13.2.1</text>
<text x="51.05" y="36.65" font-size=".2mm" fill="#000000">13.2.666</text>
<text x="55.93" y="28.66" font-size=".2mm" fill="#000000">13.2.1.1</text>
<text x="43.74" y="31.97" font-size=".2mm" fill="#000000">13.2.1.2</text>
<text x="47.60" y="27.86" font-size=".2mm" fill="#000000">13.2.1.1.1</text>
<text x="45.90" y="29.58" font-size=".2mm" fill="#000000">13.3</text>
<text x="56.61" y="43.19" font-size=".2mm" fill="#000000">13.4</text>
<text x="61.48" y="39.73" font-size=".2mm" fill="#000000">13.5</text>
<text x="63.76" y="35.79" font-size=".2mm" fill="#000000">13.6</text>
<text x="67.96" y="35.04" font-size=".2mm" fill="#000000">13.7</text>
</g>
<g>
</g>
</g>
</svg>