<?xml version="1.0" encoding="utf-8"?>
<!DOCTYPE svg PUBLIC "-//W3C//DTD SVG 1.1//EN" "http://www.w3.org/Graphics/SVG/1.1/DTD/svg11.dtd">
<svg version="1.1" id="Layer_1" xmlns="http://www.w3.org/2000/svg" xmlns:xlink="http://www.w3.org/1999/xlink" x="0px" y="0px" width="546mm" height="699mm" viewBox="0 0 546 699" enable-background="new 0 0 546 699" xml:space="preserve">
<symbol id="airflow" viewBox="-12 -12 24 24">
<path d="M-4.38,10.73l4.2-3.84V3.55L-4.07,7.13l-.31-.29L-.18,3V-6.89a3.37,3.37,0,0,0-1.68.53l1.68-4.15L0-11l.21.51h0v0l1.65,4.1A3.26,3.26,0,0,0,.24-6.89v14l-.08,0L-4.07,11Z"/>
<rect fill="none" x="-12" y="-12" width="24" height="24"/>
</symbol>
<symbol id="anastomosis" viewBox="-12 -12 24 24">
<path d="M2.23-4.78l.37.24L5.22-2.78l-.47.57L2.49-3.7l-4.61,8-.24.44-.37-.34L-5.22,2.3l.55-.52,2.1,1.82L2-4.39Z"/>
<rect fill="none" x="-12" y="-12" width="24" height="24"/>
</symbol>
<symbol id="bivouac" viewBox="-12 -12 24 24">
<path d="M.25-7.66l.24.58L.54-7l3.88.48-3.31.91L6,6H8.35v.48l-16.7.07V6.05h2.64L0-7.08Zm0,1.32L-5.13,6H-4l2.07-5L.2-4l2.09,5L4.37,6H5.44Z"/>
<rect fill="none" x="-12" y="-12" width="24" height="24"/>
</symbol>
<symbol id="bones" viewBox="-12 -12 24 24">
<path d="M2.44,4.27l-.16,0H2.13a.22.22,0,0,1-.11,0l-.1-.06a.39.39,0,0,1-.09-.11l-.08-.13a1.51,1.51,0,0,1-.06-.15l-.07-.17s0-.11-.08-.19-.06-.16-.08-.21a4.75,4.75,0,0,0-.38-.71c-.18-.29-.43-.64-.74-1A11.15,11.15,0,0,0-.7.32,6.73,6.73,0,0,0-2-.64a4.12,4.12,0,0,0-1.44-.52A1.64,1.64,0,0,1-5-2.19.72.72,0,0,1-5-2.44a1,1,0,0,1,0-.29A.52.52,0,0,1-4.87-3a.54.54,0,0,1,.35-.15L-4-3.22l.46,0a.54.54,0,0,0,.27-.06A.52.52,0,0,0-3-3.56a.74.74,0,0,0,.13-.31.54.54,0,0,1,.15-.26.54.54,0,0,1,.3-.15.83.83,0,0,1,.47,0,1.11,1.11,0,0,1,.35.4A7.46,7.46,0,0,1-1-2.76q.18.42.33.72a3.22,3.22,0,0,0,.39.57L.1-1a4.77,4.77,0,0,0,.58.43c.28.18.51.33.69.43l1,.56a1.84,1.84,0,0,0,.39.23A5.29,5.29,0,0,1,3.22.9l.43.26a3.7,3.7,0,0,1,.46.3l.36.29a2.28,2.28,0,0,1,.31.32A1,1,0,0,1,5,2.4c.2.48,0,.78-.47.91h0a8.48,8.48,0,0,0-1.12.09,1,1,0,0,0-.42.44A1,1,0,0,1,2.44,4.27Z"/>
<rect fill="none" x="-12" y="-12" width="24" height="24"/>
</symbol>
<symbol id="calcite" viewBox="-12 -12 24 24">
<path d="M2.36-2.22l.05.46.34,3.91L2,2.22,1.65-1.26-2.52-.06l-.23-.7L1.89-2.08Z"/>
<rect fill="none" x="-12" y="-12" width="24" height="24"/>
</symbol>
<symbol id="cauliflower" viewBox="-12 -12 24 24">
<path d="M5.58,3.22v-3A2.12,2.12,0,0,0,6.92-.43a1.78,1.78,0,0,0,.55-1.32,1.92,1.92,0,0,0-.65-1.42,2.19,2.19,0,0,0-1.53-.59,2.21,2.21,0,0,0-1.54.59,1.78,1.78,0,0,0-.64,1.42A1.86,1.86,0,0,0,3.65-.43,2.12,2.12,0,0,0,5,.23v3H.26v-3A2.17,2.17,0,0,0,1.61-.43a1.81,1.81,0,0,0,.54-1.32,1.91,1.91,0,0,0-.64-1.42A2.21,2.21,0,0,0,0-3.76a2.21,2.21,0,0,0-1.54.59,1.82,1.82,0,0,0-.64,1.42A1.83,1.83,0,0,0-1.66-.43,2.12,2.12,0,0,0-.32.23v3H-5v-3A2.12,2.12,0,0,0-3.71-.43a1.78,1.78,0,0,0,.55-1.32,1.92,1.92,0,0,0-.65-1.42,2.19,2.19,0,0,0-1.53-.59,2.21,2.21,0,0,0-1.54.59,1.83,1.83,0,0,0-.65,1.42A1.87,1.87,0,0,0-7-.43,2.12,2.12,0,0,0-5.64.23v3H-8v.54H8V3.22Z"/>
<rect fill="none" x="-12" y="-12" width="24" height="24"/>
</symbol>
<symbol id="clay" viewBox="-12 -12 24 24">
<path d="M1.85-1.33a3,3,0,0,1,1.67.48,3.23,3.23,0,0,1,1,1l.29.51-1,.43a3.81,3.81,0,0,0-.23-.4A3.74,3.74,0,0,0,2.93,0,1.77,1.77,0,0,0,1.85-.32a2.57,2.57,0,0,0-1.1.15A.86.86,0,0,0,.51.14,2.23,2.23,0,0,1,0,.88a2.55,2.55,0,0,1-1.45.43,3.16,3.16,0,0,1-2.75-1,4.28,4.28,0,0,1-.37-.57,3.91,3.91,0,0,1-.21-.47l0-.16,1-.22a1.87,1.87,0,0,0,.45.79A2.12,2.12,0,0,0-1.51.33,1.82,1.82,0,0,0-.69.14l.21-.36A1.53,1.53,0,0,1,.17-1,3.76,3.76,0,0,1,1.85-1.33Z"/>
<rect fill="none" x="-12" y="-12" width="24" height="24"/>
</symbol>
<symbol id="crystals" viewBox="-12 -12 24 24">
<path d="M-2.94-5.38,0-.72,2.94-5.38,3.62-5,.68-.36H6.56V.36H.68L3.62,5l-.68.36L0,.72-2.94,5.38-3.62,5-.68.36H-6.56V-.36H-.68L-3.62-5Z"/>
<rect fill="none" x="-12" y="-12" width="24" height="24"/>
</symbol>
<symbol id="curtain" viewBox="-12 -12 24 24">
<path d="M3.57-6.69l.52.53L.39-3V-.33L.1-.26a3.79,3.79,0,0,0-1,.41c-.58.3-.87.65-.87,1v.07A1.61,1.61,0,0,0-.84,2.48a3.69,3.69,0,0,0,.45.24L0,2.86l.13.05L.39,3V6.12H-.39V3.51a7.65,7.65,0,0,1-.9-.46A2.19,2.19,0,0,1-2.54,1.28V1.23A2,2,0,0,1-1.31-.48,5.32,5.32,0,0,1-.39-.86V-3l-3.7-3.14.52-.53L0-3.67Z"/>
<rect fill="none" x="-12" y="-12" width="24" height="24"/>
</symbol>
<symbol id="disk" viewBox="-12 -12 24 24">
<path d="M-.09-4.19a2.43,2.43,0,0,1,1.7.64A2,2,0,0,1,2.35-2,2.09,2.09,0,0,1,1.81-.55,2.44,2.44,0,0,1,.35.23l2.18,3.6-.68.33L0,1.14-1.48,4.19l-.71-.29L-.41.25A2.53,2.53,0,0,1-1.9-.47a2,2,0,0,1-.63-1.41,2,2,0,0,1,.67-1.61,2.46,2.46,0,0,1,1.72-.7ZM1.05-3.06.56-3.49l-.69,0A1.72,1.72,0,0,0-1.29-3a1.51,1.51,0,0,0-.45,1.08,1.36,1.36,0,0,0,.51,1A1.68,1.68,0,0,0-.07-.44v0l0,0A1.7,1.7,0,0,0,1.11-.92,1.36,1.36,0,0,0,1.56-2,1.47,1.47,0,0,0,1.05-3.06Z"/>
<rect fill="none" x="-12" y="-12" width="24" height="24"/>
</symbol>
<symbol id="entrance" viewBox="-12 -12 24 24">
<path d="M4.46,9H-4.46L0-9Z"/>
<rect fill="none" x="-12" y="-12" width="24" height="24"/>
</symbol>
<symbol id="flowstone" viewBox="-12 -12 24 24">
<rect x="-6" y="-0.21" width="12" height="0.42"/>
<rect fill="none" x="-12" y="-12" width="24" height="24"/>
</symbol>
<symbol id="flutes" viewBox="-12 -12 24 24">
<path d="M-7-1H7v.72H3.87A4.7,4.7,0,0,1,2.16,1.5,4.2,4.2,0,0,1,0,2.13,3.94,3.94,0,0,1-2.19,1.5,4.18,4.18,0,0,1-3.76-.27H-7Zm4.17.72A3.15,3.15,0,0,0-1.65,1,3.21,3.21,0,0,0,0,1.41,3.49,3.49,0,0,0,1.6,1,3.68,3.68,0,0,0,3-.27Z"/>
<rect fill="none" x="-12" y="-12" width="24" height="24"/>
</symbol>
<symbol id="gradient" viewBox="-12 -12 24 24">
<path d="M2.58-3.83,0-10-2.58-3.83A4.74,4.74,0,0,1-.17-4.5V10H.25V-4.5A6.65,6.65,0,0,1,2.58-3.83Z"/>
<rect fill="none" x="-12" y="-12" width="24" height="24"/>
</symbol>
<symbol id="guano" viewBox="-12 -12 24 24">
<path d="M-3.24-3a2.15,2.15,0,0,1,1.57.55A3.93,3.93,0,0,1-.59.24a4.32,4.32,0,0,1,2.75-2.3,2.68,2.68,0,0,1,2.23.36A2.36,2.36,0,0,1,5.5.19l-.79,0a1.72,1.72,0,0,0-.79-1.37,1.94,1.94,0,0,0-1.55-.24A3.53,3.53,0,0,0,.48,0,6.63,6.63,0,0,0-.69,3l-.79-.09a10.72,10.72,0,0,0,0-3.16A3.21,3.21,0,0,0-2.22-2,1.44,1.44,0,0,0-3.37-2.3,3.45,3.45,0,0,0-5-1.54l-.5-.55a4.29,4.29,0,0,1,2-.91A.9.9,0,0,1-3.24-3Z"/>
<rect fill="none" x="-12" y="-12" width="24" height="24"/>
</symbol>
<symbol id="helictites" viewBox="-12 -12 24 24">
<path d="M-4.59-7.92h.79v7.7l3.41,0V-7.92H.39V-.17L4.2-.12h.39v8H3.8V.6L.39.55V7.92H-.39V.55L-4.2.5l-.39,0v-8.4Z"/>
<rect fill="none" x="-12" y="-12" width="24" height="24"/>
</symbol>
<symbol id="human" viewBox="-12 -12 24 24">
<path d="M-3.59-3.29A5.13,5.13,0,0,1,0-4.66,5.13,5.13,0,0,1,3.59-3.29,4.3,4.3,0,0,1,5.09,0a4.3,4.3,0,0,1-1.5,3.29A5.13,5.13,0,0,1,0,4.66,5.13,5.13,0,0,1-3.59,3.29,4.3,4.3,0,0,1-5.09,0,4.3,4.3,0,0,1-3.59-3.29Zm.28.77A3.68,3.68,0,0,0-4.3,0a3.62,3.62,0,0,0,1,2.57L-.5.05ZM0-3.94A4.42,4.42,0,0,0-2.75-3L.16-.36H4.28A3.62,3.62,0,0,0,2.91-2.9,4.38,4.38,0,0,0,0-3.94ZM.16.46-2.7,3.07A4.42,4.42,0,0,0,0,3.94a4.37,4.37,0,0,0,2.87-1A3.78,3.78,0,0,0,4.28.46Z"/>
<rect fill="none" x="-12" y="-12" width="24" height="24"/>
</symbol>
<symbol id="karren" viewBox="-12 -12 24 24">
<path d="M1-5.84h0a1.37,1.37,0,0,1,1.06.68A3.33,3.33,0,0,1,2.5-3.79,25.79,25.79,0,0,1,2.36,0a18.61,18.61,0,0,0-.08,3.72,2.68,2.68,0,0,0,.41,1.2,1.13,1.13,0,0,0,.79.5A.92.92,0,0,0,4,4.94a4.43,4.43,0,0,0,.47-1.22c.16-.64.36-1.86.59-3.66a26.71,26.71,0,0,1,.64-3.69,4.62,4.62,0,0,1,.57-1.29,1.34,1.34,0,0,1,1-.59h0A1.28,1.28,0,0,1,8.37-5a2.17,2.17,0,0,1,.39,1.15A19.91,19.91,0,0,1,8.54-.53a21.51,21.51,0,0,0-.2,3.64A2.64,2.64,0,0,0,9.45,5.36,1.91,1.91,0,0,0,10.88,5a3.84,3.84,0,0,0,.7-1l.42.2-.1.18-.12.21-.11.18L11.52,5a.94.94,0,0,1-.14.16c-.06.07-.13.12-.19.18a2.5,2.5,0,0,1-1.85.41H9.29l0,0A3.06,3.06,0,0,1,7.87,3.13a22.11,22.11,0,0,1,.2-3.7,18.17,18.17,0,0,0,.22-3.28A1.85,1.85,0,0,0,8-4.79a.77.77,0,0,0-.67-.3.93.93,0,0,0-.64.42,4.51,4.51,0,0,0-.51,1.15A26.26,26.26,0,0,0,5.54.1c-.24,1.83-.45,3.07-.61,3.72a5.38,5.38,0,0,1-.51,1.34,1.33,1.33,0,0,1-.89.68H3.47A1.58,1.58,0,0,1,2.3,5.16a3.29,3.29,0,0,1-.49-1.4A20.27,20.27,0,0,1,1.89,0,23.45,23.45,0,0,0,2-3.75a2.94,2.94,0,0,0-.32-1.19A.93.93,0,0,0,1-5.42,1.1,1.1,0,0,0,.19-5,3.69,3.69,0,0,0-.43-3.76,20.78,20.78,0,0,0-1.07.07c-.2,2-.37,3.32-.49,3.86A4.48,4.48,0,0,1-2,5.26,1.06,1.06,0,0,1-3,5.81h0a1.9,1.9,0,0,1-1.29-.67,2.7,2.7,0,0,1-.58-1.31,14.92,14.92,0,0,1,0-3.6q0-.12.06-.54c0-.28,0-.47,0-.57s0-.28,0-.52,0-.42,0-.55,0-.28,0-.47,0-.36,0-.51,0-.29,0-.43A3.09,3.09,0,0,0-5-4.62a1.19,1.19,0,0,0-.67-.6,1.5,1.5,0,0,0-1.2.9A7,7,0,0,0-7.41-2.1c0,.39-.1,1-.14,1.76s-.11,1.47-.18,2.08A9.61,9.61,0,0,1-8,3.32h0l0,0A2.81,2.81,0,0,1-9.2,4.62a1.82,1.82,0,0,1-1.35.15A1.94,1.94,0,0,1-11.61,4,2.39,2.39,0,0,1-12,2.56l.47,0a1.92,1.92,0,0,0,.31,1.16,1.47,1.47,0,0,0,.81.62,1.3,1.3,0,0,0,1-.11A2.32,2.32,0,0,0-8.5,3.18a7.53,7.53,0,0,0,.29-1.5Q-8.1.8-8-.36c0-.78.1-1.37.16-1.78A7.23,7.23,0,0,1-7.28-4.5,1.93,1.93,0,0,1-5.65-5.66h.05l0,0a1.59,1.59,0,0,1,1,.84,3.47,3.47,0,0,1,.34,1.41,4.91,4.91,0,0,1,0,.57v.54c0,.15,0,.37,0,.66s0,.47,0,.58,0,.33-.06.68,0,.56-.06.63a14.78,14.78,0,0,0,0,3.49,2.58,2.58,0,0,0,.5,1.13,1.57,1.57,0,0,0,1,.5A.61.61,0,0,0-2.44,5,3.89,3.89,0,0,0-2,3.85C-1.9,3.31-1.74,2-1.53,0A20.65,20.65,0,0,1-.86-3.89,3.89,3.89,0,0,1-.18-5.26,1.58,1.58,0,0,1,1-5.84Z"/>
<rect fill="none" x="-12" y="-12" width="24" height="24"/>
</symbol>
<symbol id="moonmilk" viewBox="-12 -12 24 24">
<path d="M-4.78-3.06a3.39,3.39,0,0,1,1.5.34,2.48,2.48,0,0,1,1.1,1,3.74,3.74,0,0,1,1.62-.8,3.52,3.52,0,0,1,1.71,0,2.9,2.9,0,0,1,1.39.77A2.49,2.49,0,0,1,3.25-.37,4,4,0,0,1,5-.76a3.58,3.58,0,0,1,1.6.36A2.84,2.84,0,0,1,7.88.92a2.32,2.32,0,0,1,0,1.88.34.34,0,0,1-.37.26A.36.36,0,0,1,7.25,3a.32.32,0,0,1-.12-.25.21.21,0,0,1,0-.12,2,2,0,0,0,0-1.43,2,2,0,0,0-1-.9A2.81,2.81,0,0,0,4.68,0,2.78,2.78,0,0,0,3.12.56L2.46.25A1.7,1.7,0,0,0,2.15-1.1,2.15,2.15,0,0,0,1-1.81a2.85,2.85,0,0,0-1.58.06A3,3,0,0,0-2-.83l-.71-.12A1.74,1.74,0,0,0-3.55-2a2.36,2.36,0,0,0-1.39-.27,3.08,3.08,0,0,0-1.45.53A2.33,2.33,0,0,0-7.32-.56a.35.35,0,0,1-.37.24A.39.39,0,0,1-8-.42a.33.33,0,0,1-.1-.26v-.1A3,3,0,0,1-6.89-2.35,4,4,0,0,1-5-3Z"/>
<rect fill="none" x="-12" y="-12" width="24" height="24"/>
</symbol>
<symbol id="narrow" viewBox="-12 -12 24 24">
<path d="M-1.5,5V-5h0.64V5H-1.5z"/>
<path d="M0.86,5V-5H1.5V5H0.86z"/>
<rect fill="none" x="-12" y="-12" width="24" height="24"/>
</symbol>
<symbol id="paleoflow" viewBox="-12 -12 24 24">
<path d="M.38-12V.17A1.9,1.9,0,0,0,1,0,1.57,1.57,0,0,0,1.7-.72a1.86,1.86,0,0,0,.23-1c0-.09,0-.14.08-.16a.92.92,0,0,1,.24,0,.52.52,0,0,0,.25,0h.08A2.48,2.48,0,0,1,2,0,2.5,2.5,0,0,1,.38.77V7.21H2.09L0,12-1.8,7.23c.07,0,.59,0,1.53,0V.77A3,3,0,0,1-1.35.43a2.16,2.16,0,0,1-1-1,2.38,2.38,0,0,1-.24-1.33l.67,0a2,2,0,0,0,.15,1,1.73,1.73,0,0,0,.59.67A2.14,2.14,0,0,0-.27.16V-12Z"/>
<rect fill="none" x="-12" y="-12" width="24" height="24"/>
</symbol>
<symbol id="rain" viewBox="-12 -12 24 24">
<path d="M-4.14-6.34h0.71v4.69h-0.71V-6.34z"/>
<path d="M-0.35-6.34h0.71v4.69h-0.71V-6.34z"/>
<path d="M3.43-6.34h0.71v4.69H3.43V-6.34z"/>
<path d="M-4.14,1.65h0.71v4.69h-0.71V1.65z"/>
<path d="M-0.35,1.65h0.71v4.69h-0.71V1.65z"/>
<path d="M3.43,1.65h0.71v4.69H3.43V1.65z"/>
<rect fill="none" x="-12" y="-12" width="24" height="24"/>
</symbol>
<symbol id="rats" viewBox="-12 -12 24 24">
<path d="M8.78-2.32,7-2.27c-.51-.17-.65-.56-1.46-.45l-.25.45C3.59-2.75,2.59-3.66.56-3.62l-1.35.3A4.89,4.89,0,0,0-4.24,1.57c-.68.6-2.58.86-3.39.94a6.84,6.84,0,0,0-1.62.39,4.91,4.91,0,0,0-1,.52A1.75,1.75,0,0,0-11,4.61a1.16,1.16,0,0,0,.59,1.48,1.3,1.3,0,0,1,.14.12c.16-.52-.35-.92-.2-1.42a3.35,3.35,0,0,1,.27-.45,3.18,3.18,0,0,1,1.79-1c.63-.12,1.27-.22,1.91-.3.48-.07,1,0,1.4-.12A6.94,6.94,0,0,1-4,2.82,30.64,30.64,0,0,0,.41,2.69l2.16.15c.1-.09,0,0,.1-.15a.87.87,0,0,0-.9-.55c.86-1,2.27-.37,3.1-.05.5.19,1,0,1.25.4.11-.1.1-.07.15-.25.3,0,.31.07.6.15-.06-.49-.34-.64-1-.6a.78.78,0,0,1,0-.55C6.3.56,7.29.73,8.13.43a13.78,13.78,0,0,0,2.15-.9l.6-.85v-.2A16.9,16.9,0,0,0,8.78-2.32Z"/>
<rect fill="none" x="-12" y="-12" width="24" height="24"/>
</symbol>
<symbol id="sand" viewBox="-12 -12 24 24">
<path d="M-1.58,0.83c0.23,0.2,0.35,0.44,0.36,0.73c0.01,0.29-0.08,0.54-0.28,0.75c-0.2,0.21-0.46,0.32-0.78,0.33c-0.32,0.01-0.6-0.08-0.83-0.26C-3.36,2.19-3.49,1.95-3.5,1.67C-3.51,1.38-3.41,1.12-3.2,0.9c0.21-0.22,0.48-0.34,0.8-0.35C-2.08,0.54-1.81,0.64-1.58,0.83z"/>
<path d="M0.08-2.36c0.23,0.2,0.35,0.44,0.36,0.73c0.01,0.29-0.08,0.54-0.28,0.75c-0.2,0.21-0.46,0.32-0.78,0.33c-0.32,0.01-0.59-0.07-0.83-0.26s-0.37-0.42-0.38-0.71c-0.01-0.29,0.09-0.54,0.3-0.76c0.21-0.22,0.48-0.33,0.8-0.35C-0.42-2.65-0.14-2.56,0.08-2.36z"/>
<path d="M3.12,0.55c0.23,0.2,0.35,0.43,0.38,0.71c0.02,0.28-0.07,0.53-0.28,0.75C3,2.23,2.73,2.35,2.42,2.36C2.1,2.37,1.82,2.28,1.58,2.08C1.34,1.88,1.22,1.64,1.2,1.35c-0.01-0.29,0.09-0.54,0.3-0.75C1.72,0.4,1.99,0.29,2.3,0.28S2.89,0.36,3.12,0.55z"/>
<rect fill="none" x="-12" y="-12" width="24" height="24"/>
</symbol>
<symbol  id="scallops" viewBox="-12 -12 24 24">
<path d="M.05-3.74l.21,0A2.35,2.35,0,0,1,1.74-3a2,2,0,0,1,.59,1.55v0l0,0A9.59,9.59,0,0,1-.08,3.27l-.39.47-.27-.55A14.26,14.26,0,0,1-2.33-1.89v-.05l0-.05A2,2,0,0,1-1.44-3.3,2.42,2.42,0,0,1,.05-3.74ZM-.11-3A1.44,1.44,0,0,0-1.55-1.89,13.06,13.06,0,0,0-.29,2.33,8.6,8.6,0,0,0,1.55-1.54a1.41,1.41,0,0,0-.38-1A1.62,1.62,0,0,0,.18-3Z"/>
<rect fill="none" x="-12" y="-12" width="24" height="24"/>
</symbol>
<symbol  id="sink" viewBox="-12 -12 24 24">
<path d="M.72,9.41H.9c1.94,0,3.26-.54,3.94-1.51a3.61,3.61,0,0,0,.33-.69,2,2,0,0,0,.11-.54V6.46l.69,0a2.8,2.8,0,0,1-.58,1.78C4.58,9.39,3.1,10,.93,10H-.93q-3.25,0-4.46-1.8a2.74,2.74,0,0,1-.43-.83A2.37,2.37,0,0,1-6,6.67V6.43l.68,0A2.27,2.27,0,0,0-4.84,7.9c.68,1,2,1.47,3.93,1.48l.5,0ZM-1.46-10a.68.68,0,0,0,.16.41A2.77,2.77,0,0,0-.51-9l0,0a3.63,3.63,0,0,1,1,.7,1.15,1.15,0,0,1,.34.88c0,.58-.53,1.14-1.49,1.68-.68.42-1,.79-1,1.11s.3.61.84,1h0Q.61-2.86.46-1.78a3.51,3.51,0,0,1-1.55,2,.61.61,0,0,0-.26.41,1.67,1.67,0,0,0,.1.51,5.3,5.3,0,0,1,.32,1L.56,1.9.46,8.06-3.4,2.54l1.73-.28A6.16,6.16,0,0,0-2,1.39,1.7,1.7,0,0,1-2.09.58a1.21,1.21,0,0,1,.53-.82h0v0C-.75-.86-.33-1.38-.28-1.85s-.23-.87-.91-1.27h0C-2-3.6-2.37-4.1-2.4-4.61S-2-5.74-1.09-6.29C-.34-6.72.06-7.1.09-7.44a.67.67,0,0,0-.18-.43,3.17,3.17,0,0,0-.79-.58,2.93,2.93,0,0,1-1-.67A1.16,1.16,0,0,1-2.17-10Z"/>
<rect fill="none" x="-12" y="-12" width="24" height="24"/>
</symbol>
<symbol  id="spring" viewBox="-12 -12 24 24">
<path d="M-1.34-9.86,2.52-4.34.78-4.06a8,8,0,0,0,.29.87,1.4,1.4,0,0,1,.13.79,1.3,1.3,0,0,1-.52.84l0,0v0C-.13-.95-.55-.42-.61,0S-.37.91.31,1.3l0,0c.75.46,1.14,1,1.18,1.46S1.12,3.92.21,4.46C-.54,4.9-.94,5.29-1,5.64a.74.74,0,0,0,.18.43A3.2,3.2,0,0,0,0,6.62a3,3,0,0,1,1,.7,1.14,1.14,0,0,1,.31.86A1.74,1.74,0,0,1,.71,9.26H.92c1.92,0,3.22-.52,3.9-1.51a2.05,2.05,0,0,0,.35-.67,2.59,2.59,0,0,0,.1-.55l0-.19.65,0a2.84,2.84,0,0,1-.55,1.8C4.58,9.26,3.08,9.85.92,9.86H-.92c-2.17,0-3.66-.6-4.49-1.77a3.65,3.65,0,0,1-.4-.85A2.43,2.43,0,0,1-6,6.53V6.29l.66,0a2.08,2.08,0,0,0,.47,1.41c.68,1,2,1.5,3.91,1.51H-.4c.62-.43.94-.8,1-1.1a.76.76,0,0,0-.16-.43,3.25,3.25,0,0,0-.79-.51v0a3.8,3.8,0,0,1-1-.7,1.15,1.15,0,0,1-.34-.91q.06-.84,1.5-1.68c.68-.4,1-.77,1-1.1S.49,2.21,0,1.87c0,0,0,0,0,0C-1,1.32-1.44.69-1.34,0a3.58,3.58,0,0,1,1.55-2,.54.54,0,0,0,.23-.38A1.28,1.28,0,0,0,.37-3a4.57,4.57,0,0,1-.32-1l-1.49.24Z"/>
<rect fill="none" x="-12" y="-12" width="24" height="24"/>
</symbol>
<symbol  id="stalactite" viewBox="-12 -12 24 24">
<path d="M3.57-6.69l.52.53L.39-3V6.12H-.39V-3l-3.7-3.14.52-.53L0-3.67Z"/>
<rect fill="none" x="-12" y="-12" width="24" height="24"/>
</symbol>
<symbol  id="stalagmite" viewBox="-12 -12 24 24">
<path d="M.38-6.42V2.75L4.11,5.89l-.56.53L0,3.4l-3.57,3-.53-.53,3.7-3.14V-6.42Z"/>
<rect fill="none" x="-12" y="-12" width="24" height="24"/>
</symbol>
<symbol  id="stalagnate" viewBox="-12 -12 24 24">
<path d="M3.55-8.46l.56.53L.38-4.78v9L4.11,7.36l-.56.53L0,4.86l-3.57,3-.53-.53,3.7-3.14v-9l-3.7-3.15.53-.53L0-5.43Z"/>
<rect fill="none" x="-12" y="-12" width="24" height="24"/>
</symbol>
<symbol  id="straws" viewBox="-12 -12 24 24">
<path d="M-10.89-2.76H10.89V-2H9.63V.46H8.84V-2H8.29v5.6H7.5V-2H5.56V.7H4.77V-2H2.07V2.38H1.29V-2H-.1v3H-.89V-2H-3.2V4.11H-4V-2H-6.22L-6.16.75l-.79,0L-7-2H-8.32V2.33H-9.1V-2h-1.79Z"/>
<rect fill="none" x="-12" y="-12" width="24" height="24"/>
</symbol>
<symbol  id="water" viewBox="-12 -12 24 24">
<path d="M-1.72-9.86,2.11-4.32.38-4.06a6.49,6.49,0,0,0,.29.89,1.5,1.5,0,0,1,.13.79,1.2,1.2,0,0,1-.5.82h0l0,0C-.54-.94-1-.42-1,.05s.24.89.92,1.27h0c.77.48,1.17,1,1.19,1.49S.71,3.94-.2,4.49c-.75.43-1.13.81-1.15,1.15a.51.51,0,0,0,.18.43,2.66,2.66,0,0,0,.76.58,2.93,2.93,0,0,1,1,.67,1.16,1.16,0,0,1,.29.89C.84,8.75.42,9.3-.41,9.86l-.44-.55c.66-.45,1-.83,1-1.15A.47.47,0,0,0,0,7.75a2.84,2.84,0,0,0-.78-.53h0a3.87,3.87,0,0,1-1-.69,1.24,1.24,0,0,1-.34-.91c0-.58.54-1.14,1.52-1.68.66-.42,1-.79,1-1.11s-.3-.61-.84-1h0Q-1.9,1.06-1.74,0a3.44,3.44,0,0,1,1.54-2,.67.67,0,0,0,.27-.41A1.11,1.11,0,0,0,0-3a4.33,4.33,0,0,1-.31-1l-1.5.24Z"/>
<rect fill="none" x="-12" y="-12" width="24" height="24"/>
</symbol><symbol  id="tree" viewBox="-12 -12 24 24">
<path d="M7.4-5.04A4.271,4.271,0,0,0,7.7-6.627a4.3,4.3,0,0,0-4.3-4.3A4.279,4.279,0,0,0,.636-9.914,4.293,4.293,0,0,0-3.045-12a4.3,4.3,0,0,0-4.3,4.3,4.27,4.27,0,0,0,.421,1.845,4.3,4.3,0,0,0-3.645,4.244,4.3,4.3,0,0,0,4.3,4.3A4.282,4.282,0,0,0-3.946,2L-1.175,5.23h0L-1.612,12H.982L.757,6.376,4.119,2.827v0a4.272,4.272,0,0,0,2.15.58,4.3,4.3,0,0,0,4.3-4.3A4.3,4.3,0,0,0,7.4-5.04ZM-3.346,1.538h0A4.346,4.346,0,0,0-2.7.788a4.266,4.266,0,0,0,1.765.753l-.135,2.087ZM.69,4.7.563,1.544A4.258,4.258,0,0,0,2.321.805,4.3,4.3,0,0,0,3.378,2.279Z"/>
<rect fill="none" x="-12" y="-12" width="24" height="24"/>
</symbol><g>
<desc></desc>
<g>
<line fill="none" stroke="#dddddd" stroke-width="0.1mm" x1="0.00" y1="20.00" x2="546.00" y2="20.00" />
<text x="543.20" y="19.80" font-size=".2mm" fill="#000000">0m</text>
<line fill="none" stroke="#dddddd" stroke-width="0.1mm" x1="0.00" y1="70.00" x2="546.00" y2="70.00" />
<text x="543.20" y="69.80" font-size=".2mm" fill="#000000">-5m</text>
<line fill="none" stroke="#dddddd" stroke-width="0.1mm" x1="0.00" y1="120.00" x2="546.00" y2="120.00" />
<text x="543.20" y="119.80" font-size=".2mm" fill="#000000">-10m</text>
<line fill="none" stroke="#dddddd" stroke-width="0.1mm" x1="0.00" y1="170.00" x2="546.00" y2="170.00" />
<text x="543.20" y="169.80" font-size=".2mm" fill="#000000">-15m</text>
<line fill="none" stroke="#dddddd" stroke-width="0.1mm" x1="0.00" y1="220.00" x2="546.00" y2="220.00" />
<text x="543.20" y="219.80" font-size=".2mm" fill="#000000">-20m</text>
<line fill="none" stroke="#dddddd" stroke-width="0.1mm" x1="0.00" y1="270.00" x2="546.00" y2="270.00" />
<text x="543.20" y="269.80" font-size=".2mm" fill="#000000">-25m</text>
<line fill="none" stroke="#dddddd" stroke-width="0.1mm" x1="0.00" y1="320.00" x2="546.00" y2="320.00" />
<text x="543.20" y="319.80" font-size=".2mm" fill="#000000">-30m</text>
<line fill="none" stroke="#dddddd" stroke-width="0.1mm" x1="0.00" y1="370.00" x2="546.00" y2="370.00" />
<text x="543.20" y="369.80" font-size=".2mm" fill="#000000">-35m</text>
<line fill="none" stroke="#dddddd" stroke-width="0.1mm" x1="0.00" y1="420.00" x2="546.00" y2="420.00" />
<text x="543.20" y="419.80" font-size=".2mm" fill="#000000">-40m</text>
<line fill="none" stroke="#dddddd" stroke-width="0.1mm" x1="0.00" y1="470.00" x2="546.00" y2="470.00" />
<text x="543.20" y="469.80" font-size=".2mm" fill="#000000">-45m</text>
<line fill="none" stroke="#dddddd" stroke-width="0.1mm" x1="0.00" y1="520.00" x2="546.00" y2="520.00" />
<text x="543.20" y="519.80" font-size=".2mm" fill="#000000">-50m</text>
<line fill="none" stroke="#dddddd" stroke-width="0.1mm" x1="0.00" y1="570.00" x2="546.00" y2="570.00" />
<text x="543.20" y="569.80" font-size=".2mm" fill="#000000">-55m</text>
<line fill="none" stroke="#dddddd" stroke-width="0.1mm" x1="0.00" y1="620.00" x2="546.00" y2="620.00" />
<text x="543.20" y="619.80" font-size=".2mm" fill="#000000">-60m</text>
<line fill="none" stroke="#dddddd" stroke-width="0.1mm" x1="0.00" y1="670.00" x2="546.00" y2="670.00" />
<text x="543.20" y="669.80" font-size=".2mm" fill="#000000">-65m</text>
</g>
<g>
<path fill="none" stroke="#000000" stroke-width="0.06mm" d="M225.66025,20.084028 C226.46152,20.505455 226.9207,20.874945 227.10193,21.743868 C227.61095,24.184532 228.2212,26.606781 228.61726,29.068302 C229.44574,34.217167 229.96445,39.41233 230.77379,44.56423 C231.03227,46.20961 231.54326,47.807777 231.81923,49.45031 C232.57028,53.920345 232.41199,56.166557 233.48495,60.60203 C233.76242,61.74898 234.24374,62.838234 234.68803,63.931427 C234.79889,64.20418 234.98526,64.439964 235.1452,64.687126 C237.51894,68.35492 235.44693,65.18894 238.91925,69.55733 C240.27704,71.26552 240.06622,71.542816 241.4674,72.67423 C242.48553,73.49636 243.04898,73.507385 244.36069,74.150986 C244.55711,74.24736 244.72202,74.397835 244.90381,74.51959 C245.52127,74.93315 245.72128,75.11765 246.44392,75.35153 C247.4138,75.665436 247.91467,75.506744 249.0423,75.66747 C249.70245,75.761566 250.34933,75.93274 251.00282,76.06538 C251.72635,76.10167 252.45615,76.07239 253.17339,76.17424 C254.4325,76.35303 255.47342,77.12515 256.7314,77.26442 C257.977,77.40232 259.13928,76.66408 260.4122,76.71117 C260.88165,76.72853 261.3222,76.85753 261.70712,77.12654 C262.2099,77.47795 262.40808,77.73522 263.0479,77.71242 C263.11884,77.70989 263.1972,77.71542 263.2582,77.67917 C263.69376,77.420364 264.10132,77.11709 264.52286,76.836044 L264.52286,76.836044" /><path fill="none" stroke="#000000" stroke-width="0.06mm" d="M213.4592,22.241564 C215.93274,44.763332 213.81738,36.971687 216.50581,46.25147 L216.50581,46.25147" /><path fill="none" stroke="#000000" stroke-width="0.06mm" d="M214.82944,2.940342 C215.24338,2.7959423 215.64989,2.6281433 216.07126,2.507145 C217.26434,2.1645508 218.26947,3.02598 218.97629,3.878933 C219.10666,4.0362654 219.50705,4.6137486 219.55824,4.8984222 C219.80302,6.259508 219.8638,7.6335897 219.4406,8.9673 C219.19334,9.746452 218.594,10.288221 218.20251,10.989681 C217.69682,11.895805 217.43498,12.775343 217.42148,13.805505 C217.41487,14.309754 217.89488,14.798054 218.41519,14.655947 C218.95758,14.507797 219.49403,14.338615 220.03348,14.17995 L220.03348,14.17995" /><path fill="none" stroke="#000000" stroke-width="0.06mm" d="M219.27548,19.82162 C219.14366,19.640663 218.33977,19.122755 218.42252,18.651438 C218.47807,18.335072 218.98679,17.96183 219.29462,18.167606 C219.75775,18.477177 219.77435,19.655483 219.64037,20.136274 C219.6097,20.246317 219.56839,20.354477 219.5133,20.454557 C219.0407,21.313354 218.21255,19.98768 219.07692,19.649448 C219.21799,19.594254 219.45392,19.5224 219.61366,19.593946 C219.89603,19.720407 219.82475,20.538626 219.59177,20.562887 C219.41013,20.581802 219.21368,20.226599 219.21283,20.110518 C219.21112,19.873814 219.30319,19.645798 219.34836,19.413439 L219.34836,19.413439" /><path fill="none" stroke="#000000" stroke-width="0.06mm" d="M263.86688,122.61084 L262.10303,124.31647" /><path fill="none" stroke="#000000" stroke-width="0.06mm" d="M262.27795,119.31621 C259.59927,119.70595 256.9206,120.09567 254.24191,120.4854 C252.50795,120.58833 250.76233,120.568985 249.03995,120.79419 C247.48308,120.99774 245.94832,121.36293 244.43138,121.76812 C243.27232,122.07773 242.18985,122.64131 241.02655,122.93468 C240.09949,123.16846 239.137,123.23098 238.18744,123.3427 C236.35855,123.55786 234.5177,123.66969 232.69263,123.915146 C230.89017,124.15755 228.8468,124.899605 226.9722,124.60802 L226.9722,124.60802" /><path fill="none" stroke="#000000" stroke-width="0.06mm" d="M217.27841,59.94018 C217.40343,61.47193 217.53333,63.003292 217.65352,64.53543 C217.87677,67.3809 218.15019,70.22315 218.3087,73.07296 C218.34715,73.76466 218.23355,74.45759 218.2439,75.15029 C218.24762,75.39835 218.35568,76.1349 218.35075,75.886856 C218.1654,66.55028 218.11662,57.20833 217.7025,47.879093 C217.30196,38.85582 216.57678,45.013657 216.98686,41.878086 L216.98686,41.878086" /><path fill="none" stroke="#000000" stroke-width="0.06mm" d="M468.27115,102.22583 C464.46344,102.3848 466.04648,103.054665 463.5086,100.24808 L463.5086,100.24808" /><path fill="none" stroke="#000000" stroke-width="0.06mm" d="M467.42355,91.5297 L467.42896,91.53514" /><path fill="none" stroke="#000000" stroke-width="0.06mm" d="M473.074,86.68618 C472.4318,87.63726 471.71332,88.541115 471.14722,89.5394 C469.5443,92.366135 468.32904,100.676765 468.2768,101.1077 C467.87085,104.45602 468.18344,107.85704 467.9282,111.220184 C467.4951,116.92577 466.7846,122.606895 466.21277,128.30023 L466.21277,128.30023" /><path fill="none" stroke="#000000" stroke-width="0.06mm" d="M452.53052,87.89704 C450.84244,89.54624 449.82712,90.16486 448.81592,91.996605 C446.04507,97.01591 446.66907,109.17062 446.30643,113.67311 C446.17,115.366684 445.7202,117.02028 445.4271,118.69388 L445.4271,118.69388" /><path fill="none" stroke="#000000" stroke-width="0.06mm" d="M479.2492,54.153736 C470.8161,61.23812 478.6929,54.953026 467.11212,62.854233 C466.2704,63.428543 465.66483,64.685394 465.48886,65.65565 C465.216,67.16023 464.30997,68.74638 464.8078,70.192184 C465.23926,71.44499 466.87454,71.85091 467.90787,72.680275 L467.90787,72.680275" /><path fill="none" stroke="#000000" stroke-width="0.06mm" d="M478.76483,61.701576 C479.2056,60.357956 479.9127,58.96582 479.8949,57.495808 C479.86923,55.374817 478.97537,53.588604 477.98853,51.643284 C474.05176,43.882965 472.90005,44.891655 465.95013,36.51522 C465.6625,36.16854 466.76578,36.8984 467.16583,37.105446 C470.46582,38.81323 473.78323,40.488625 477.0498,42.259483 C477.3322,42.4126 477.57117,42.639797 477.7967,42.868652 C478.6018,43.68577 479.23505,44.67641 479.6606,45.742947 C481.48193,50.30771 481.20306,51.2854 481.14612,56.33332 L481.14612,56.33332" /><path fill="none" stroke="#000000" stroke-width="0.06mm" d="M460.92554,83.21495 C461.78714,83.10394 462.64185,82.900375 463.51038,82.88193 C463.947,82.87266 464.09924,83.407326 464.09866,83.71079 C464.09662,84.85732 463.35052,86.6664 462.14502,87.07136 C461.3861,87.326294 459.84634,86.93297 459.98578,85.8899 C460.32608,83.34388 466.5014,80.74376 468.51273,82.41081 C468.95215,82.77502 469.2125,83.37709 469.24503,83.94035 C469.39563,86.54515 468.48422,88.52187 466.05344,89.703705 C465.34283,90.0492 464.22458,90.570404 463.2956,90.58618 C461.0733,90.623924 460.77893,87.64003 461.62494,86.13647 C461.72064,85.96642 463.28943,83.730835 463.0243,85.11201 L463.0243,85.11201" /><path fill="none" stroke="#000000" stroke-width="0.06mm" d="M442.9651,99.925186 C440.88455,123.80589 443.71143,96.45347 437.48654,132.52484 C437.29996,133.60587 437.64102,134.71341 437.71823,135.80771 L437.71823,135.80771" /><path fill="none" stroke="#000000" stroke-width="0.06mm" d="M421.85663,96.211784 C417.9488,115.13302 418.3009,123.8688 411.878,137.93355 C411.33633,139.11966 410.59283,140.20279 409.95026,141.3374 L409.95026,141.3374" /><path fill="none" stroke="#000000" stroke-width="0.06mm" d="M439.53445,64.607704 C437.88284,69.14827 433.1573,71.637726 431.40012,76.053246 C431.15555,76.66778 430.7159,77.30847 430.84283,77.95758 C431.17313,79.64697 432.08997,81.16651 432.71356,82.77097 L432.71356,82.77097" /><path fill="none" stroke="#000000" stroke-width="0.06mm" d="M445.54816,60.1678 C445.15347,57.902534 444.9847,54.979088 443.83133,52.778366 C441.949,49.186783 438.56503,46.21325 434.8263,44.69602 C433.25934,44.060135 431.7404,43.144604 430.05945,42.960007 C429.0738,42.85177 428.1695,43.560814 427.2245,43.861217 L427.2245,43.861217" /><path fill="none" stroke="#000000" stroke-width="0.06mm" d="M430.33228,48.74511 C430.98083,48.950905 436.21463,50.028732 438.26074,51.521255 C439.536,52.45151 440.41415,53.90168 440.94345,55.363632 C442.3253,59.180443 442.29565,62.234642 440.11957,65.71849 C438.6896,68.00775 437.6206,68.11117 434.85263,70.056694 L434.85263,70.056694" /><path fill="none" stroke="#000000" stroke-width="0.06mm" d="M430.89728,96.25216 C431.17218,96.29357 434.418,95.71385 434.52118,97.22482 C434.5557,97.729965 434.27002,98.380325 434.04486,98.790924 C431.58176,103.2829 424.39252,98.83551 428.6642,94.70359 C429.29126,94.09706 430.09192,93.551956 430.90045,93.21962 C431.64526,92.91348 433.16638,92.308525 434.07233,92.701515 C434.76764,93.00313 434.6975,93.91769 434.531,94.50131 C434.03705,96.23326 432.65277,98.83876 430.47104,98.77652 C428.661,98.724884 428.65485,95.86038 429.7006,94.93255 C430.75238,93.99934 432.54163,94.43583 433.72253,94.43584 L433.72253,94.43584" /><path fill="none" stroke="#000000" stroke-width="0.06mm" d="M458.42316,125.15191 L457.94427,124.30974" /><path fill="none" stroke="#000000" stroke-width="0.06mm" d="M459.59363,120.8331 L462.25742,117.92699" /><path fill="none" stroke="#000000" stroke-width="0.06mm" d="M465.16333,123.2145 C448.96823,152.914 419.62238,170.69403 399.75284,197.3446 C396.23856,202.05826 393.4416,207.2716 390.52475,212.37657 C390.40326,212.58926 388.65192,218.24084 386.8589,218.56079 C386.33264,218.6547 385.81296,218.3393 385.28998,218.22853 L385.28998,218.22853" /><path fill="none" stroke="#000000" stroke-width="0.06mm" d="M386.3394,224.52515 C395.12393,242.83496 384.51727,221.56146 393.39017,237.10233 C399.06842,247.04779 394.4141,243.64084 405.28485,256.08887 C406.29483,257.24536 408.01846,257.4881 409.38522,258.18777 L409.38522,258.18777" /><path fill="none" stroke="#000000" stroke-width="0.06mm" d="M368.54037,233.88931 C372.00647,238.64175 375.64743,243.27148 378.93866,248.14664 C380.3706,250.26767 381.34372,252.66869 382.68842,254.84605 C384.67523,258.06305 388.5962,259.5666 391.86874,261.01318 L391.86874,261.01318" /><path fill="none" stroke="#000000" stroke-width="0.06mm" d="M266.2266,75.14241 C267.81573,73.84542 270.02435,72.54906 270.85648,70.483246 C271.5915,68.6585 271.7283,66.93554 271.8155,64.93698 C271.95392,61.762486 271.93237,58.582954 272.01874,55.406612 C272.05292,54.148457 272.1411,52.892174 272.17694,51.634064 C272.4815,40.94501 273.14056,30.258419 273.0399,19.565502 C272.8496,-0.63891983 272.15125,16.598482 271.21918,8.361787 C271.07007,7.0441294 271.11966,5.711521 271.0699,4.386387 L271.0699,4.386387" /><path fill="none" stroke="#000000" stroke-width="0.06mm" d="M365.23087,-11.476202 C366.07547,-7.537966 365.52045,-4.657793 364.2087,-0.811327 C359.45056,13.141453 353.82056,26.809467 349.65045,40.949127 C320.18768,140.8491 348.3035,49.72329 337.21143,97.46268 C335.54532,104.633446 332.76062,111.52085 331.21725,118.71903 C318.6424,177.36777 332.4001,194.56963 319.46207,178.1483 L319.46207,178.1483" /><path fill="none" stroke="#000000" stroke-width="0.06mm" d="M416.40793,136.53424 C413.17322,139.5603 410.16638,142.85004 406.7038,145.61244 C403.4341,148.22095 397.2972,150.59073 393.43256,151.6176 C389.56708,152.64468 385.47284,152.77744 381.68567,154.0636 C368.07745,158.68512 362.73444,162.22704 350.8655,168.20045 C348.0411,169.62192 345.08057,170.77927 342.32996,172.33878 C339.39847,174.00082 335.34622,178.09328 331.55576,178.53815 C330.9548,178.60867 329.52817,178.68037 329.15332,178.068 C328.32312,176.71187 327.64337,175.26923 326.8884,173.86983 L326.8884,173.86983" /><path fill="none" stroke="#000000" stroke-width="0.06mm" d="M365.3923,209.26804 C366.855,215.7277 368.0899,222.24323 369.78052,228.64702 C370.24155,230.39336 372.3445,235.39395 371.8323,233.66194 C369.34598,225.25423 366.69183,216.89383 363.8518,208.59888 C361.2466,200.98975 360.9108,205.662 361.84055,200.50931 L361.84055,200.50931" /><path fill="none" stroke="#000000" stroke-width="0.06mm" d="M363.89893,206.72516 C364.12717,208.57954 364.249,210.45013 364.58362,212.28828 C365.07373,214.9802 365.937,217.59834 366.37027,220.29999 C369.17545,237.79074 366.57843,232.3613 370.55844,242.12334 L370.55844,242.12334" /><path fill="none" stroke="#000000" stroke-width="0.06mm" d="M347.23007,181.86165 C344.8905,182.2396 342.55103,182.61752 340.2115,182.99548 C339.70312,183.12753 339.21094,183.3648 338.6864,183.39163 C337.3783,183.45854 336.0679,183.31346 334.75867,183.27438 L334.75867,183.27438" /><path fill="none" stroke="#000000" stroke-width="0.06mm" d="M319.78497,183.51657 L320.15363,184.85397" /><path fill="none" stroke="#000000" stroke-width="0.06mm" d="M318.89703,189.28845 C320.70322,189.84348 322.57672,190.21417 324.31564,190.95354 C328.5449,192.75179 332.74268,194.65569 336.7618,196.88438 C337.72522,197.41864 341.00482,200.61272 343.08185,201.28812 C346.08313,202.26404 349.06494,203.37645 352.16907,203.94594 C376.65103,208.43762 357.37207,202.95653 370.51807,206.92696 L370.51807,206.92696" /><path fill="none" stroke="#000000" stroke-width="0.06mm" d="M272.13864,103.79965 C273.1682,107.602585 272.53278,105.57931 274.12558,109.84192 L274.12558,109.84192" /><path fill="none" stroke="#000000" stroke-width="0.06mm" d="M262.8122,117.141304 C267.29785,119.98841 269.65982,122.71379 270.40027,128.0463 C271.24594,134.13634 268.381,121.91348 270.52686,134.71896 C271.55988,140.88339 272.9505,146.9844 274.34445,153.07736 C274.73648,154.79097 275.69098,156.37462 275.881,158.12222 C278.08575,178.39986 274.25006,167.62297 278.09943,177.19904 L278.09943,177.19904" /><path fill="none" stroke="#000000" stroke-width="0.06mm" d="M324.24115,191.14392 C324.21024,193.72763 324.03644,193.40002 324.47308,195.4019 C324.60052,195.98625 324.89117,196.54524 324.90594,197.14316 C324.98462,200.324 324.77682,203.50568 324.75217,206.68744 C324.7506,206.88702 324.72537,207.10992 324.8274,207.28146 C325.10532,207.74873 325.51422,208.12448 325.85764,208.54599 L325.85764,208.54599" /><path fill="none" stroke="#000000" stroke-width="0.06mm" d="M278.56735,164.73969 C277.37848,173.80336 277.87885,168.24487 278.97827,185.34807 C279.07446,186.84454 279.28165,188.33192 279.45685,189.82123 C279.96826,194.16815 280.79248,198.48639 281.03802,202.85641 C281.21008,205.91888 280.81665,208.987 280.70596,212.05232 C280.9649,219.23413 281.0285,226.4256 281.4828,233.59769 C281.54932,234.64812 281.90057,235.66933 282.26437,236.65698 C284.78604,243.50294 287.67783,250.2104 290.1327,257.08063 C290.59808,258.38303 290.85278,259.76178 291.01114,261.13577 C294.7871,293.9028 285.18835,235.27138 297.47955,301.08707 C298.10626,304.44296 298.6721,307.81082 299.17444,311.18756 C299.3304,312.23608 299.23843,313.31747 299.4534,314.3555 C300.6624,320.19376 301.89438,323.9981 305.20105,329.21408 C306.70346,331.58405 308.8897,333.81586 311.17776,335.53406 C313.32602,337.1473 315.46375,338.7779 317.68088,340.2951 C318.08585,340.5722 318.5515,340.763 319.02216,340.90198 C320.5168,341.34332 322.09103,341.5082 323.55923,342.03082 C331.1759,344.742 322.81876,342.4852 328.9402,344.96002 C331.57544,346.02542 334.302,346.8495 336.9829,347.79422 L336.9829,347.79422" /><path fill="none" stroke="#000000" stroke-width="0.06mm" d="M329.3442,220.43265 C330.81247,226.15195 330.15826,222.8667 330.9607,230.354 L330.9607,230.354" /><path fill="none" stroke="#000000" stroke-width="0.06mm" d="M326.61835,210.32106 C326.843,216.62157 328.11234,217.41702 330.10187,224.06105 C330.2829,224.66562 330.29193,225.31065 330.32886,225.94067 C330.44095,227.85368 330.4754,229.77043 330.54865,231.68533 L330.54865,231.68533" /><path fill="none" stroke="#000000" stroke-width="0.06mm" d="M328.45673,220.43265 C334.28198,261.29163 330.66394,228.6975 331.82095,254.52084 C331.99008,258.29565 332.26953,262.06964 332.72784,265.82034 C332.94543,267.6013 333.47263,269.33057 333.845,271.08566 L333.845,271.08566" /><path fill="none" stroke="#000000" stroke-width="0.06mm" d="M334.00348,267.82077 C333.8692,275.04254 338.11313,281.48587 337.79095,288.71362 C337.6035,292.9199 336.883,297.08807 336.60895,301.2896 C336.54474,302.2746 336.5738,303.2803 336.77792,304.24606 C337.2007,306.24646 337.80624,308.2085 338.4794,310.13907 C338.99823,311.62704 339.92996,313.04346 341.20392,313.98486 C341.37265,314.10953 341.5523,314.227 341.74957,314.2985 C342.88525,314.71027 344.04465,315.05334 345.1922,315.4308 L345.1922,315.4308" /><path fill="none" stroke="#000000" stroke-width="0.06mm" d="M349.21753,310.48596 C351.14395,308.869 350.23663,309.70807 351.9434,307.98184 L351.9434,307.98184" /><path fill="none" stroke="#000000" stroke-width="0.06mm" d="M346.93542,313.7508 C347.81827,314.36282 348.66046,315.038 349.58392,315.58682 C351.7193,316.8559 354.7044,317.29593 357.09235,316.528 C358.97516,315.92255 360.78076,315.09918 362.62494,314.3848 L362.62494,314.3848" /><path fill="none" stroke="#000000" stroke-width="0.06mm" d="M372.93637,313.61887 C379.18057,316.2663 375.2721,315.03882 384.9963,315.9866 L384.9963,315.9866" /><path fill="none" stroke="#000000" stroke-width="0.06mm" d="M367.3134,312.435 C369.43927,313.33582 371.45657,314.55612 373.69104,315.13742 C380.9563,317.02753 388.43427,318.0118 395.71912,319.8249 C397.15674,320.18268 398.4578,320.96274 399.78024,321.63052 C403.8874,323.70456 407.9278,325.9083 412.00153,328.04715 L412.00153,328.04715" /><path fill="none" stroke="#000000" stroke-width="0.06mm" d="M415.84888,330.78485 C424.00256,338.18994 422.21494,335.98355 430.44904,347.11154 C431.04053,347.91095 431.5099,348.81537 431.82526,349.75848 C432.3606,351.8493 432.89594,353.94012 433.43134,356.03094 C433.63986,357.33594 433.66663,358.6833 434.05685,359.94586 C434.69287,362.00348 435.67975,363.9358 436.4912,365.93066 L436.4912,365.93066" /><path fill="none" stroke="#000000" stroke-width="0.06mm" d="M435.01147,373.32983 L431.23813,387.09222" /><path fill="none" stroke="#000000" stroke-width="0.06mm" d="M436.78714,361.7132 C436.38104,369.7478 436.92737,369.69696 434.7234,376.86465 C433.9875,379.2578 432.50317,381.44336 432.15338,383.9226 C430.9872,392.18875 431.85345,400.70706 430.20526,408.89075 C427.07156,424.4508 421.49554,439.42957 417.8628,454.88068 C416.48178,460.75455 417.44897,469.53577 417.77255,475.28986 L417.77255,475.28986" /><path fill="none" stroke="#000000" stroke-width="0.06mm" d="M339.4943,363.26703 C340.55334,367.61868 341.61237,371.97037 342.67145,376.322 C344.10168,380.45743 345.8441,384.4978 346.96216,388.72833 C347.91956,392.35065 348.0077,396.1597 348.87753,399.80402 C353.8115,419.45892 358.7454,439.11383 363.67935,458.76874 C364.664,461.76697 365.77844,464.7256 366.63336,467.76334 C367.57492,471.10883 368.0521,474.57758 369.06436,477.90234 C369.54898,479.49396 370.33875,480.98077 371.1069,482.45654 C374.0068,488.02765 376.89984,493.60797 380.06366,499.0335 C380.4361,499.67224 382.7881,502.4568 383.91864,502.9892 C386.2601,504.09174 388.73105,504.89517 391.13715,505.8482 L391.13715,505.8482" /><path fill="none" stroke="#000000" stroke-width="0.06mm" d="M530.67664,655.45856 C523.7306,661.0758 517.3578,662.5288 508.36533,662.0379 C503.87482,661.7927 499.43982,660.85114 494.9487,660.6182 C492.79944,660.5067 490.65228,660.87805 488.50406,661.00793 L488.50406,661.00793" /><path fill="none" stroke="#000000" stroke-width="0.06mm" d="M448.32916,608.84406 C425.18356,563.4095 435.92566,578.36487 422.2857,560.1578 L422.2857,560.1578" /><path fill="none" stroke="#000000" stroke-width="0.06mm" d="M398.38794,511.91547 C403.26837,520.22144 408.14877,528.52734 413.02917,536.8333 C414.4949,539.6061 415.775,542.4852 417.42633,545.1516 C419.88675,549.1243 422.82666,552.78345 425.34512,556.7197 C426.58188,558.6527 427.4544,560.80237 428.68097,562.7419 C430.96637,566.35583 433.87396,569.5843 435.8714,573.365 C439.14966,579.5703 441.59094,586.1829 444.45068,592.5919 C451.10315,605.1985 457.57153,617.9038 464.40802,630.4115 C465.92108,633.17975 467.9529,635.6408 469.48715,638.39734 C473.20468,645.0766 473.8942,650.5825 481.1045,653.69073 C482.236,654.1785 483.39938,654.7324 484.6295,654.8034 C487.25278,654.9549 489.87607,654.50024 492.49936,654.34875 L492.49936,654.34875" /><path fill="none" stroke="#000000" stroke-width="0.06mm" d="M469.1195,612.3217 C473.48557,610.766 478.27756,609.5033 482.75653,611.51355 C490.07697,614.79913 495.99005,632.03986 497.9744,636.2208 L497.9744,636.2208" /><path fill="none" stroke="#000000" stroke-width="0.06mm" d="M476.00024,612.2477 C477.43726,628.4751 476.35602,619.737 478.65326,633.9661 C478.98056,635.9936 479.19644,641.6681 480.76965,644.63055 C481.84598,646.6573 483.68466,648.1595 485.70697,649.18207 C490.42303,651.5669 494.4837,650.9555 499.4788,649.3952 C500.53357,649.0657 501.6731,648.7529 502.49008,648.00885 C504.38287,646.2849 505.79315,644.0964 507.4447,642.14014 L507.4447,642.14014" /><path fill="none" stroke="#000000" stroke-width="0.06mm" d="M509.66437,622.5325 C512.02405,631.71265 512.3462,635.60675 517.92096,644.19305 C518.30365,644.7825 519.322,644.30426 520.0226,644.35986 L520.0226,644.35986" /><path fill="none" stroke="#000000" stroke-width="0.06mm" d="M506.55685,617.7971 C508.6764,617.4541 510.77966,616.9886 512.9154,616.768 C514.45264,616.60925 516.9779,617.0991 518.3375,617.60876 C526.73914,620.75775 530.611,627.5031 533.5643,635.7301 C534.4929,638.31726 535.1484,641.5667 533.74603,644.12665 C530.55676,649.9484 524.33154,648.64996 518.9867,647.9115 L518.9867,647.9115" /><path fill="none" stroke="#000000" stroke-width="0.06mm" d="M422.43365,472.62616 C423.6501,473.9999 424.79114,475.4442 426.08282,476.7474 C429.86026,480.5583 437.25723,480.3986 442.18826,480.7652 L442.18826,480.7652" /><path fill="none" stroke="#000000" stroke-width="0.06mm" d="M422.50766,470.85034 C430.52576,477.10394 427.76312,475.7355 438.3178,480.11563 C440.02502,480.8241 442.69666,481.48004 444.6082,481.3424 C448.443,481.06628 452.23285,480.2882 456.07068,480.05753 C460.24237,479.80682 469.63586,482.29083 471.81766,482.6071 C476.7908,483.32782 481.79572,480.86887 486.72192,482.00928 C489.48428,482.64877 491.6584,484.69092 494.23315,485.76645 C496.36414,486.65662 498.60165,487.26636 500.7859,488.0163 L500.7859,488.0163" /><path fill="none" stroke="#000000" stroke-width="0.06mm" d="M536.0777,647.6895 C537.0128,646.3086 538.02875,644.97906 538.88306,643.5467 C541.7431,638.75146 539.29553,632.4361 536.0469,628.576 C533.64465,625.7216 530.27936,623.38934 527.62396,620.8881 C513.48016,607.56555 528.6952,620.07385 508.77652,604.77454 L508.77652,604.77454" /><path fill="none" stroke="#000000" stroke-width="0.06mm" d="M510.55212,605.88446 C507.91592,601.8041 507.1275,599.7405 503.63593,596.80994 C500.12018,593.8592 495.99075,591.6117 492.80377,588.3086 C478.94626,573.9463 465.61713,559.06934 452.6139,543.9292 C447.85223,538.3851 444.3202,531.8593 439.55948,526.3143 C433.91614,519.7412 428.99292,516.3048 422.58163,511.39755 L422.58163,511.39755" /><path fill="none" stroke="#000000" stroke-width="0.06mm" d="M449.73483,525.4559 C454.78452,522.027 456.685,520.8761 462.15308,524.0382 C465.03647,525.70557 467.78384,527.59766 470.59924,529.37744 L470.59924,529.37744" /><path fill="none" stroke="#000000" stroke-width="0.06mm" d="M450.17883,534.7788 C451.68246,533.43787 453.10217,531.9963 454.68982,530.7558 C463.9931,523.48706 480.48083,532.1692 488.27747,533.55963 C493.38745,534.47095 498.59967,534.94574 503.79013,534.91516 C505.04877,534.9078 518.11865,531.55597 523.08594,534.3001 C524.5874,535.1296 525.9761,536.14844 527.42126,537.0726 L527.42126,537.0726" /></g>
<g>
<line fill="none" stroke="#5674b9" stroke-width="0.04mm" stroke-dasharray="0.4,0.2" x1="20.00" y1="20.00" x2="161.65" y2="120.89" />
<line fill="none" stroke="#111111" stroke-width="0.04mm" x1="20.00" y1="20.00" x2="160.06" y2="120.44" />
<line fill="none" stroke="#111111" stroke-width="0.04mm" x1="160.06" y1="120.44" x2="229.86" y2="107.33" />
<line fill="none" stroke="#00aeef" stroke-width="0.04mm" stroke-dasharray="0.4,0.2" x1="229.86" y1="107.33" x2="222.47" y2="107.37" />
<line fill="none" stroke="#00aeef" stroke-width="0.04mm" stroke-dasharray="0.4,0.2" x1="229.86" y1="107.33" x2="224.77" y2="103.17" />
<line fill="none" stroke="#00aeef" stroke-width="0.04mm" stroke-dasharray="0.4,0.2" x1="229.86" y1="107.33" x2="228.30" y2="123.87" />
<line fill="none" stroke="#5674b9" stroke-width="0.04mm" stroke-dasharray="0.4,0.2" x1="229.86" y1="107.33" x2="219.81" y2="21.97" />
<line fill="none" stroke="#111111" stroke-width="0.04mm" x1="229.86" y1="107.33" x2="266.73" y2="102.43" />
<line fill="none" stroke="#00aeef" stroke-width="0.04mm" stroke-dasharray="0.4,0.2" x1="266.73" y1="102.43" x2="265.99" y2="101.96" />
<line fill="none" stroke="#5674b9" stroke-width="0.04mm" stroke-dasharray="0.4,0.2" x1="266.73" y1="102.43" x2="263.02" y2="79.45" />
<line fill="none" stroke="#00aeef" stroke-width="0.04mm" stroke-dasharray="0.4,0.2" x1="266.73" y1="102.43" x2="262.43" y2="117.77" />
<line fill="none" stroke="#5674b9" stroke-width="0.04mm" stroke-dasharray="0.4,0.2" x1="266.73" y1="102.43" x2="232.37" y2="100.89" />
<line fill="none" stroke="#5674b9" stroke-width="0.04mm" stroke-dasharray="0.4,0.2" x1="266.73" y1="102.43" x2="249.59" y2="102.86" />
<line fill="none" stroke="#5674b9" stroke-width="0.04mm" stroke-dasharray="0.4,0.2" x1="266.73" y1="102.43" x2="249.86" y2="103.08" />
<line fill="none" stroke="#5674b9" stroke-width="0.04mm" stroke-dasharray="0.4,0.2" x1="266.73" y1="102.43" x2="232.95" y2="103.03" />
<line fill="none" stroke="#5674b9" stroke-width="0.04mm" stroke-dasharray="0.4,0.2" x1="266.73" y1="102.43" x2="241.58" y2="102.04" />
<line fill="none" stroke="#5674b9" stroke-width="0.04mm" stroke-dasharray="0.4,0.2" x1="266.73" y1="102.43" x2="246.60" y2="103.55" />
<line fill="none" stroke="#5674b9" stroke-width="0.04mm" stroke-dasharray="0.4,0.2" x1="266.73" y1="102.43" x2="259.21" y2="101.18" />
<line fill="none" stroke="#111111" stroke-width="0.04mm" x1="266.73" y1="102.43" x2="274.32" y2="159.29" />
<line fill="none" stroke="#00aeef" stroke-width="0.04mm" stroke-dasharray="0.4,0.2" x1="274.32" y1="159.29" x2="283.51" y2="158.75" />
<line fill="none" stroke="#00aeef" stroke-width="0.04mm" stroke-dasharray="0.4,0.2" opacity="0.32" x1="274.32" y1="159.29" x2="274.47" y2="158.30" />
<line fill="none" stroke="#00aeef" stroke-width="0.04mm" stroke-dasharray="0.4,0.2" x1="274.32" y1="159.29" x2="261.99" y2="158.63" />
<line fill="none" stroke="#00aeef" stroke-width="0.04mm" stroke-dasharray="0.4,0.2" x1="274.32" y1="159.29" x2="250.85" y2="157.40" />
<line fill="none" stroke="#00aeef" stroke-width="0.04mm" stroke-dasharray="0.4,0.2" x1="274.32" y1="159.29" x2="243.54" y2="155.78" />
<line fill="none" stroke="#5674b9" stroke-width="0.04mm" stroke-dasharray="0.4,0.2" x1="274.32" y1="159.29" x2="251.06" y2="154.89" />
<line fill="none" stroke="#111111" stroke-width="0.04mm" x1="274.32" y1="159.29" x2="315.35" y2="185.74" />
<line fill="none" stroke="#5674b9" stroke-width="0.04mm" stroke-dasharray="0.4,0.2" x1="315.35" y1="185.74" x2="355.85" y2="200.80" />
<line fill="none" stroke="#111111" stroke-width="0.04mm" x1="315.35" y1="185.74" x2="361.69" y2="202.73" />
<line fill="none" stroke="#5674b9" stroke-width="0.04mm" stroke-dasharray="0.4,0.2" x1="361.69" y1="202.73" x2="332.15" y2="194.72" />
<line fill="none" stroke="#5674b9" stroke-width="0.04mm" stroke-dasharray="0.4,0.2" x1="361.69" y1="202.73" x2="338.74" y2="195.19" />
<line fill="none" stroke="#5674b9" stroke-width="0.04mm" stroke-dasharray="0.4,0.2" x1="361.69" y1="202.73" x2="341.93" y2="196.74" />
<line fill="none" stroke="#00aeef" stroke-width="0.04mm" stroke-dasharray="0.4,0.2" x1="361.69" y1="202.73" x2="372.92" y2="201.85" />
<line fill="none" stroke="#00aeef" stroke-width="0.04mm" stroke-dasharray="0.4,0.2" x1="361.69" y1="202.73" x2="345.94" y2="201.55" />
<line fill="none" stroke="#00aeef" stroke-width="0.04mm" stroke-dasharray="0.4,0.2" x1="361.69" y1="202.73" x2="339.53" y2="199.58" />
<line fill="none" stroke="#00aeef" stroke-width="0.04mm" stroke-dasharray="0.4,0.2" x1="361.69" y1="202.73" x2="321.47" y2="194.35" />
<line fill="none" stroke="#5674b9" stroke-width="0.04mm" stroke-dasharray="0.4,0.2" x1="361.69" y1="202.73" x2="331.88" y2="195.86" />
<line fill="none" stroke="#111111" stroke-width="0.04mm" x1="361.69" y1="202.73" x2="381.00" y2="239.81" />
<line fill="none" stroke="#111111" stroke-width="0.04mm" x1="361.69" y1="202.73" x2="389.33" y2="202.34" />
<line fill="none" stroke="#00aeef" stroke-width="0.04mm" stroke-dasharray="0.4,0.2" x1="389.33" y1="202.34" x2="384.19" y2="215.33" />
<line fill="none" stroke="#111111" stroke-width="0.04mm" x1="389.33" y1="202.34" x2="452.48" y2="105.53" />
<line fill="none" stroke="#111111" stroke-width="0.04mm" x1="389.33" y1="202.34" x2="431.18" y2="127.61" />
<line fill="none" stroke="#111111" stroke-width="0.04mm" x1="315.35" y1="185.74" x2="330.45" y2="345.18" />
<line fill="none" stroke="#5674b9" stroke-width="0.04mm" stroke-dasharray="0.4,0.2" x1="330.45" y1="345.18" x2="348.96" y2="343.40" />
<line fill="none" stroke="#00aeef" stroke-width="0.04mm" stroke-dasharray="0.4,0.2" x1="330.45" y1="345.18" x2="329.79" y2="335.27" />
<line fill="none" stroke="#00aeef" stroke-width="0.04mm" stroke-dasharray="0.4,0.2" x1="330.45" y1="345.18" x2="313.94" y2="327.77" />
<line fill="none" stroke="#5674b9" stroke-width="0.04mm" stroke-dasharray="0.4,0.2" x1="330.45" y1="345.18" x2="293.63" y2="310.57" />
<line fill="none" stroke="#5674b9" stroke-width="0.04mm" stroke-dasharray="0.4,0.2" x1="330.45" y1="345.18" x2="308.18" y2="314.49" />
<line fill="none" stroke="#5674b9" stroke-width="0.04mm" stroke-dasharray="0.4,0.2" x1="330.45" y1="345.18" x2="328.25" y2="319.16" />
<line fill="none" stroke="#5674b9" stroke-width="0.04mm" stroke-dasharray="0.4,0.2" x1="330.45" y1="345.18" x2="342.22" y2="320.43" />
<line fill="none" stroke="#5674b9" stroke-width="0.04mm" stroke-dasharray="0.4,0.2" x1="330.45" y1="345.18" x2="358.53" y2="316.80" />
<line fill="none" stroke="#5674b9" stroke-width="0.04mm" stroke-dasharray="0.4,0.2" x1="330.45" y1="345.18" x2="372.27" y2="319.25" />
<line fill="none" stroke="#5674b9" stroke-width="0.04mm" stroke-dasharray="0.4,0.2" x1="330.45" y1="345.18" x2="359.12" y2="324.84" />
<line fill="none" stroke="#00aeef" stroke-width="0.04mm" stroke-dasharray="0.4,0.2" x1="330.45" y1="345.18" x2="347.65" y2="342.65" />
<line fill="none" stroke="#00aeef" stroke-width="0.04mm" stroke-dasharray="0.4,0.2" x1="330.45" y1="345.18" x2="360.33" y2="344.94" />
<line fill="none" stroke="#00aeef" stroke-width="0.04mm" stroke-dasharray="0.4,0.2" x1="330.45" y1="345.18" x2="390.97" y2="351.14" />
<line fill="none" stroke="#00aeef" stroke-width="0.04mm" stroke-dasharray="0.4,0.2" x1="330.45" y1="345.18" x2="398.92" y2="350.09" />
<line fill="none" stroke="#00aeef" stroke-width="0.04mm" stroke-dasharray="0.4,0.2" x1="330.45" y1="345.18" x2="425.91" y2="360.24" />
<line fill="none" stroke="#00aeef" stroke-width="0.04mm" stroke-dasharray="0.4,0.2" x1="330.45" y1="345.18" x2="382.44" y2="349.31" />
<line fill="none" stroke="#00aeef" stroke-width="0.04mm" stroke-dasharray="0.4,0.2" x1="330.45" y1="345.18" x2="385.88" y2="511.95" />
<line fill="none" stroke="#00aeef" stroke-width="0.04mm" stroke-dasharray="0.4,0.2" x1="330.45" y1="345.18" x2="391.24" y2="512.60" />
<line fill="none" stroke="#111111" stroke-width="0.04mm" x1="330.45" y1="345.18" x2="417.07" y2="512.44" />
<line fill="none" stroke="#00aeef" stroke-width="0.04mm" stroke-dasharray="0.4,0.2" x1="417.07" y1="512.44" x2="526.10" y2="663.80" />
<line fill="none" stroke="#00aeef" stroke-width="0.04mm" stroke-dasharray="0.4,0.2" x1="417.07" y1="512.44" x2="501.69" y2="679.16" />
<line fill="none" stroke="#00aeef" stroke-width="0.04mm" stroke-dasharray="0.4,0.2" x1="417.07" y1="512.44" x2="502.16" y2="678.90" />
<line fill="none" stroke="#5674b9" stroke-width="0.04mm" stroke-dasharray="0.4,0.2" x1="417.07" y1="512.44" x2="501.38" y2="676.08" />
<line fill="none" stroke="#00aeef" stroke-width="0.04mm" stroke-dasharray="0.4,0.2" x1="417.07" y1="512.44" x2="502.72" y2="677.68" />
<line fill="none" stroke="#5674b9" stroke-width="0.04mm" stroke-dasharray="0.4,0.2" x1="417.07" y1="512.44" x2="515.21" y2="671.36" />
<line fill="none" stroke="#111111" stroke-width="0.04mm" x1="417.07" y1="512.44" x2="446.97" y2="520.65" />
<line fill="none" stroke="#111111" stroke-width="0.04mm" x1="446.97" y1="520.65" x2="469.72" y2="512.67" />
<line fill="none" stroke="#111111" stroke-width="0.04mm" x1="469.72" y1="512.67" x2="491.04" y2="529.06" />
</g>
<g>
<circle cx="20.00" cy="20.00" r="0.1" fill="#111111" />
<circle cx="160.06" cy="120.44" r="0.1" fill="#111111" />
<circle cx="229.86" cy="107.33" r="0.1" fill="#111111" />
<circle cx="266.73" cy="102.43" r="0.1" fill="#111111" />
<circle cx="274.32" cy="159.29" r="0.1" fill="#111111" />
<circle cx="315.35" cy="185.74" r="0.1" fill="#111111" />
<circle cx="361.69" cy="202.73" r="0.1" fill="#111111" />
<circle cx="381.00" cy="239.81" r="0.1" fill="#111111" />
<circle cx="389.33" cy="202.34" r="0.1" fill="#111111" />
<circle cx="452.48" cy="105.53" r="0.1" fill="#111111" />
<circle cx="431.18" cy="127.61" r="0.1" fill="#111111" />
<circle cx="330.45" cy="345.18" r="0.1" fill="#111111" />
<circle cx="417.07" cy="512.44" r="0.1" fill="#111111" />
<circle cx="446.97" cy="520.65" r="0.1" fill="#111111" />
<circle cx="469.72" cy="512.67" r="0.1" fill="#111111" />
<circle cx="491.04" cy="529.06" r="0.1" fill="#111111" />
</g>
<g>
<text x="20.20" y="20.00" font-size=".2mm" fill="#000000">0</text>
<text x="160.26" y="120.44" font-size=".2mm" fill="#000000">1</text>
<text x="230.06" y="107.33" font-size=".2mm" fill="#000000">2</text>
<text x="266.93" y="102.43" font-size=".2mm" fill="#000000">13</text>
<text x="274.52" y="159.29" font-size=".2mm" fill="#000000">13.1</text>
<text x="315.55" y="185.74" font-size=".2mm" fill="#000000">13.2</text>
<text x="361.89" y="202.73" font-size=".2mm" fill="#000000">13.2.1</text>
<text x="381.20" y="239.81" font-size=".2mm" fill="#000000">13.2.666</text>
<text x="389.53" y="202.34" font-size=".2mm" fill="#000000">13.2.1.1</text>
<text x="452.68" y="105.53" font-size=".2mm" fill="#000000">13.2.1.2</text>
<text x="431.38" y="127.61" font-size=".2mm" fill="#000000">13.2.1.1.1</text>
<text x="330.65" y="345.18" font-size=".2mm" fill="#000000">13.3</text>
<text x="417.27" y="512.44" font-size=".2mm" fill="#000000">13.4</text>
<text x="447.17" y="520.65" font-size=".2mm" fill="#000000">13.5</text>
<text x="469.92" y="512.67" font-size=".2mm" fill="#000000">13.6</text>
<text x="491.24" y="529.06" font-size=".2mm" fill="#000000">13.7</text>
</g>
<g>
</g>
</g>
</svg>