<?xml version="1.0" encoding="utf-8"?>
<!DOCTYPE svg PUBLIC "-//W3C//DTD SVG 1.1//EN" "http://www.w3.org/Graphics/SVG/1.1/DTD/svg11.dtd">
<svg version="1.1" id="Layer_1" xmlns="http://www.w3.org/2000/svg" xmlns:xlink="http://www.w3.org/1999/xlink" x="0px" y="0px" width="205mm" height="315mm" viewBox="0 0 205 315" style="background-color:#ffffff;enable-background:new 0 0 205 315;" xml:space="preserve">
<symbol id="airflow" viewBox="-12 -12 24 24">
<path d="M-4.38,10.73l4.2-3.84V3.55L-4.07,7.13l-.31-.29L-.18,3V-6.89a3.37,3.37,0,0,0-1.68.53l1.68-4.15L0-11l.21.51h0v0l1.65,4.1A3.26,3.26,0,0,0,.24-6.89v14l-.08,0L-4.07,11Z"/>
<rect fill="none" x="-12" y="-12" width="24" height="24"/>
</symbol>
<symbol id="anastomosis" viewBox="-12 -12 24 24">
<path d="M2.23-4.78l.37.24L5.22-2.78l-.47.57L2.49-3.7l-4.61,8-.24.44-.37-.34L-5.22,2.3l.55-.52,2.1,1.82L2-4.39Z"/>
<rect fill="none" x="-12" y="-12" width="24" height="24"/>
</symbol>
<symbol id="bivouac" viewBox="-12 -12 24 24">
<path d="M.25-7.66l.24.58L.54-7l3.88.48-3.31.91L6,6H8.35v.48l-16.7.07V6.05h2.64L0-7.08Zm0,1.32L-5.13,6H-4l2.07-5L.2-4l2.09,5L4.37,6H5.44Z"/>
<rect fill="none" x="-12" y="-12" width="24" height="24"/>
</symbol>
<symbol id="bones" viewBox="-12 -12 24 24">
<path d="M2.44,4.27l-.16,0H2.13a.22.22,0,0,1-.11,0l-.1-.06a.39.39,0,0,1-.09-.11l-.08-.13a1.51,1.51,0,0,1-.06-.15l-.07-.17s0-.11-.08-.19-.06-.16-.08-.21a4.75,4.75,0,0,0-.38-.71c-.18-.29-.43-.64-.74-1A11.15,11.15,0,0,0-.7.32,6.73,6.73,0,0,0-2-.64a4.12,4.12,0,0,0-1.44-.52A1.64,1.64,0,0,1-5-2.19.72.72,0,0,1-5-2.44a1,1,0,0,1,0-.29A.52.52,0,0,1-4.87-3a.54.54,0,0,1,.35-.15L-4-3.22l.46,0a.54.54,0,0,0,.27-.06A.52.52,0,0,0-3-3.56a.74.74,0,0,0,.13-.31.54.54,0,0,1,.15-.26.54.54,0,0,1,.3-.15.83.83,0,0,1,.47,0,1.11,1.11,0,0,1,.35.4A7.46,7.46,0,0,1-1-2.76q.18.42.33.72a3.22,3.22,0,0,0,.39.57L.1-1a4.77,4.77,0,0,0,.58.43c.28.18.51.33.69.43l1,.56a1.84,1.84,0,0,0,.39.23A5.29,5.29,0,0,1,3.22.9l.43.26a3.7,3.7,0,0,1,.46.3l.36.29a2.28,2.28,0,0,1,.31.32A1,1,0,0,1,5,2.4c.2.48,0,.78-.47.91h0a8.48,8.48,0,0,0-1.12.09,1,1,0,0,0-.42.44A1,1,0,0,1,2.44,4.27Z"/>
<rect fill="none" x="-12" y="-12" width="24" height="24"/>
</symbol>
<symbol id="calcite" viewBox="-12 -12 24 24">
<path d="M2.36-2.22l.05.46.34,3.91L2,2.22,1.65-1.26-2.52-.06l-.23-.7L1.89-2.08Z"/>
<rect fill="none" x="-12" y="-12" width="24" height="24"/>
</symbol>
<symbol id="cauliflower" viewBox="-12 -12 24 24">
<path d="M5.58,3.22v-3A2.12,2.12,0,0,0,6.92-.43a1.78,1.78,0,0,0,.55-1.32,1.92,1.92,0,0,0-.65-1.42,2.19,2.19,0,0,0-1.53-.59,2.21,2.21,0,0,0-1.54.59,1.78,1.78,0,0,0-.64,1.42A1.86,1.86,0,0,0,3.65-.43,2.12,2.12,0,0,0,5,.23v3H.26v-3A2.17,2.17,0,0,0,1.61-.43a1.81,1.81,0,0,0,.54-1.32,1.91,1.91,0,0,0-.64-1.42A2.21,2.21,0,0,0,0-3.76a2.21,2.21,0,0,0-1.54.59,1.82,1.82,0,0,0-.64,1.42A1.83,1.83,0,0,0-1.66-.43,2.12,2.12,0,0,0-.32.23v3H-5v-3A2.12,2.12,0,0,0-3.71-.43a1.78,1.78,0,0,0,.55-1.32,1.92,1.92,0,0,0-.65-1.42,2.19,2.19,0,0,0-1.53-.59,2.21,2.21,0,0,0-1.54.59,1.83,1.83,0,0,0-.65,1.42A1.87,1.87,0,0,0-7-.43,2.12,2.12,0,0,0-5.64.23v3H-8v.54H8V3.22Z"/>
<rect fill="none" x="-12" y="-12" width="24" height="24"/>
</symbol>
<symbol id="clay" viewBox="-12 -12 24 24">
<path d="M1.85-1.33a3,3,0,0,1,1.67.48,3.23,3.23,0,0,1,1,1l.29.51-1,.43a3.81,3.81,0,0,0-.23-.4A3.74,3.74,0,0,0,2.93,0,1.77,1.77,0,0,0,1.85-.32a2.57,2.57,0,0,0-1.1.15A.86.86,0,0,0,.51.14,2.23,2.23,0,0,1,0,.88a2.55,2.55,0,0,1-1.45.43,3.16,3.16,0,0,1-2.75-1,4.28,4.28,0,0,1-.37-.57,3.91,3.91,0,0,1-.21-.47l0-.16,1-.22a1.87,1.87,0,0,0,.45.79A2.12,2.12,0,0,0-1.51.33,1.82,1.82,0,0,0-.69.14l.21-.36A1.53,1.53,0,0,1,.17-1,3.76,3.76,0,0,1,1.85-1.33Z"/>
<rect fill="none" x="-12" y="-12" width="24" height="24"/>
</symbol>
<symbol id="crystals" viewBox="-12 -12 24 24">
<path d="M-2.94-5.38,0-.72,2.94-5.38,3.62-5,.68-.36H6.56V.36H.68L3.62,5l-.68.36L0,.72-2.94,5.38-3.62,5-.68.36H-6.56V-.36H-.68L-3.62-5Z"/>
<rect fill="none" x="-12" y="-12" width="24" height="24"/>
</symbol>
<symbol id="curtain" viewBox="-12 -12 24 24">
<path d="M3.57-6.69l.52.53L.39-3V-.33L.1-.26a3.79,3.79,0,0,0-1,.41c-.58.3-.87.65-.87,1v.07A1.61,1.61,0,0,0-.84,2.48a3.69,3.69,0,0,0,.45.24L0,2.86l.13.05L.39,3V6.12H-.39V3.51a7.65,7.65,0,0,1-.9-.46A2.19,2.19,0,0,1-2.54,1.28V1.23A2,2,0,0,1-1.31-.48,5.32,5.32,0,0,1-.39-.86V-3l-3.7-3.14.52-.53L0-3.67Z"/>
<rect fill="none" x="-12" y="-12" width="24" height="24"/>
</symbol>
<symbol id="disk" viewBox="-12 -12 24 24">
<path d="M-.09-4.19a2.43,2.43,0,0,1,1.7.64A2,2,0,0,1,2.35-2,2.09,2.09,0,0,1,1.81-.55,2.44,2.44,0,0,1,.35.23l2.18,3.6-.68.33L0,1.14-1.48,4.19l-.71-.29L-.41.25A2.53,2.53,0,0,1-1.9-.47a2,2,0,0,1-.63-1.41,2,2,0,0,1,.67-1.61,2.46,2.46,0,0,1,1.72-.7ZM1.05-3.06.56-3.49l-.69,0A1.72,1.72,0,0,0-1.29-3a1.51,1.51,0,0,0-.45,1.08,1.36,1.36,0,0,0,.51,1A1.68,1.68,0,0,0-.07-.44v0l0,0A1.7,1.7,0,0,0,1.11-.92,1.36,1.36,0,0,0,1.56-2,1.47,1.47,0,0,0,1.05-3.06Z"/>
<rect fill="none" x="-12" y="-12" width="24" height="24"/>
</symbol>
<symbol id="entrance" viewBox="-12 -12 24 24">
<path d="M4.46,9H-4.46L0-9Z"/>
<rect fill="none" x="-12" y="-12" width="24" height="24"/>
</symbol>
<symbol id="flowstone" viewBox="-12 -12 24 24">
<rect x="-6" y="-0.21" width="12" height="0.42"/>
<rect fill="none" x="-12" y="-12" width="24" height="24"/>
</symbol>
<symbol id="flutes" viewBox="-12 -12 24 24">
<path d="M-7-1H7v.72H3.87A4.7,4.7,0,0,1,2.16,1.5,4.2,4.2,0,0,1,0,2.13,3.94,3.94,0,0,1-2.19,1.5,4.18,4.18,0,0,1-3.76-.27H-7Zm4.17.72A3.15,3.15,0,0,0-1.65,1,3.21,3.21,0,0,0,0,1.41,3.49,3.49,0,0,0,1.6,1,3.68,3.68,0,0,0,3-.27Z"/>
<rect fill="none" x="-12" y="-12" width="24" height="24"/>
</symbol>
<symbol id="gradient" viewBox="-12 -12 24 24">
<path d="M2.58-3.83,0-10-2.58-3.83A4.74,4.74,0,0,1-.17-4.5V10H.25V-4.5A6.65,6.65,0,0,1,2.58-3.83Z"/>
<rect fill="none" x="-12" y="-12" width="24" height="24"/>
</symbol>
<symbol id="guano" viewBox="-12 -12 24 24">
<path d="M-3.24-3a2.15,2.15,0,0,1,1.57.55A3.93,3.93,0,0,1-.59.24a4.32,4.32,0,0,1,2.75-2.3,2.68,2.68,0,0,1,2.23.36A2.36,2.36,0,0,1,5.5.19l-.79,0a1.72,1.72,0,0,0-.79-1.37,1.94,1.94,0,0,0-1.55-.24A3.53,3.53,0,0,0,.48,0,6.63,6.63,0,0,0-.69,3l-.79-.09a10.72,10.72,0,0,0,0-3.16A3.21,3.21,0,0,0-2.22-2,1.44,1.44,0,0,0-3.37-2.3,3.45,3.45,0,0,0-5-1.54l-.5-.55a4.29,4.29,0,0,1,2-.91A.9.9,0,0,1-3.24-3Z"/>
<rect fill="none" x="-12" y="-12" width="24" height="24"/>
</symbol>
<symbol id="helictites" viewBox="-12 -12 24 24">
<path d="M-4.59-7.92h.79v7.7l3.41,0V-7.92H.39V-.17L4.2-.12h.39v8H3.8V.6L.39.55V7.92H-.39V.55L-4.2.5l-.39,0v-8.4Z"/>
<rect fill="none" x="-12" y="-12" width="24" height="24"/>
</symbol>
<symbol id="human" viewBox="-12 -12 24 24">
<path d="M-3.59-3.29A5.13,5.13,0,0,1,0-4.66,5.13,5.13,0,0,1,3.59-3.29,4.3,4.3,0,0,1,5.09,0a4.3,4.3,0,0,1-1.5,3.29A5.13,5.13,0,0,1,0,4.66,5.13,5.13,0,0,1-3.59,3.29,4.3,4.3,0,0,1-5.09,0,4.3,4.3,0,0,1-3.59-3.29Zm.28.77A3.68,3.68,0,0,0-4.3,0a3.62,3.62,0,0,0,1,2.57L-.5.05ZM0-3.94A4.42,4.42,0,0,0-2.75-3L.16-.36H4.28A3.62,3.62,0,0,0,2.91-2.9,4.38,4.38,0,0,0,0-3.94ZM.16.46-2.7,3.07A4.42,4.42,0,0,0,0,3.94a4.37,4.37,0,0,0,2.87-1A3.78,3.78,0,0,0,4.28.46Z"/>
<rect fill="none" x="-12" y="-12" width="24" height="24"/>
</symbol>
<symbol id="karren" viewBox="-12 -12 24 24">
<path d="M1-5.84h0a1.37,1.37,0,0,1,1.06.68A3.33,3.33,0,0,1,2.5-3.79,25.79,25.79,0,0,1,2.36,0a18.61,18.61,0,0,0-.08,3.72,2.68,2.68,0,0,0,.41,1.2,1.13,1.13,0,0,0,.79.5A.92.92,0,0,0,4,4.94a4.43,4.43,0,0,0,.47-1.22c.16-.64.36-1.86.59-3.66a26.71,26.71,0,0,1,.64-3.69,4.62,4.62,0,0,1,.57-1.29,1.34,1.34,0,0,1,1-.59h0A1.28,1.28,0,0,1,8.37-5a2.17,2.17,0,0,1,.39,1.15A19.91,19.91,0,0,1,8.54-.53a21.51,21.51,0,0,0-.2,3.64A2.64,2.64,0,0,0,9.45,5.36,1.91,1.91,0,0,0,10.88,5a3.84,3.84,0,0,0,.7-1l.42.2-.1.18-.12.21-.11.18L11.52,5a.94.94,0,0,1-.14.16c-.06.07-.13.12-.19.18a2.5,2.5,0,0,1-1.85.41H9.29l0,0A3.06,3.06,0,0,1,7.87,3.13a22.11,22.11,0,0,1,.2-3.7,18.17,18.17,0,0,0,.22-3.28A1.85,1.85,0,0,0,8-4.79a.77.77,0,0,0-.67-.3.93.93,0,0,0-.64.42,4.51,4.51,0,0,0-.51,1.15A26.26,26.26,0,0,0,5.54.1c-.24,1.83-.45,3.07-.61,3.72a5.38,5.38,0,0,1-.51,1.34,1.33,1.33,0,0,1-.89.68H3.47A1.58,1.58,0,0,1,2.3,5.16a3.29,3.29,0,0,1-.49-1.4A20.27,20.27,0,0,1,1.89,0,23.45,23.45,0,0,0,2-3.75a2.94,2.94,0,0,0-.32-1.19A.93.93,0,0,0,1-5.42,1.1,1.1,0,0,0,.19-5,3.69,3.69,0,0,0-.43-3.76,20.78,20.78,0,0,0-1.07.07c-.2,2-.37,3.32-.49,3.86A4.48,4.48,0,0,1-2,5.26,1.06,1.06,0,0,1-3,5.81h0a1.9,1.9,0,0,1-1.29-.67,2.7,2.7,0,0,1-.58-1.31,14.92,14.92,0,0,1,0-3.6q0-.12.06-.54c0-.28,0-.47,0-.57s0-.28,0-.52,0-.42,0-.55,0-.28,0-.47,0-.36,0-.51,0-.29,0-.43A3.09,3.09,0,0,0-5-4.62a1.19,1.19,0,0,0-.67-.6,1.5,1.5,0,0,0-1.2.9A7,7,0,0,0-7.41-2.1c0,.39-.1,1-.14,1.76s-.11,1.47-.18,2.08A9.61,9.61,0,0,1-8,3.32h0l0,0A2.81,2.81,0,0,1-9.2,4.62a1.82,1.82,0,0,1-1.35.15A1.94,1.94,0,0,1-11.61,4,2.39,2.39,0,0,1-12,2.56l.47,0a1.92,1.92,0,0,0,.31,1.16,1.47,1.47,0,0,0,.81.62,1.3,1.3,0,0,0,1-.11A2.32,2.32,0,0,0-8.5,3.18a7.53,7.53,0,0,0,.29-1.5Q-8.1.8-8-.36c0-.78.1-1.37.16-1.78A7.23,7.23,0,0,1-7.28-4.5,1.93,1.93,0,0,1-5.65-5.66h.05l0,0a1.59,1.59,0,0,1,1,.84,3.47,3.47,0,0,1,.34,1.41,4.91,4.91,0,0,1,0,.57v.54c0,.15,0,.37,0,.66s0,.47,0,.58,0,.33-.06.68,0,.56-.06.63a14.78,14.78,0,0,0,0,3.49,2.58,2.58,0,0,0,.5,1.13,1.57,1.57,0,0,0,1,.5A.61.61,0,0,0-2.44,5,3.89,3.89,0,0,0-2,3.85C-1.9,3.31-1.74,2-1.53,0A20.65,20.65,0,0,1-.86-3.89,3.89,3.89,0,0,1-.18-5.26,1.58,1.58,0,0,1,1-5.84Z"/>
<rect fill="none" x="-12" y="-12" width="24" height="24"/>
</symbol>
<symbol id="moonmilk" viewBox="-12 -12 24 24">
<path d="M-4.78-3.06a3.39,3.39,0,0,1,1.5.34,2.48,2.48,0,0,1,1.1,1,3.74,3.74,0,0,1,1.62-.8,3.52,3.52,0,0,1,1.71,0,2.9,2.9,0,0,1,1.39.77A2.49,2.49,0,0,1,3.25-.37,4,4,0,0,1,5-.76a3.58,3.58,0,0,1,1.6.36A2.84,2.84,0,0,1,7.88.92a2.32,2.32,0,0,1,0,1.88.34.34,0,0,1-.37.26A.36.36,0,0,1,7.25,3a.32.32,0,0,1-.12-.25.21.21,0,0,1,0-.12,2,2,0,0,0,0-1.43,2,2,0,0,0-1-.9A2.81,2.81,0,0,0,4.68,0,2.78,2.78,0,0,0,3.12.56L2.46.25A1.7,1.7,0,0,0,2.15-1.1,2.15,2.15,0,0,0,1-1.81a2.85,2.85,0,0,0-1.58.06A3,3,0,0,0-2-.83l-.71-.12A1.74,1.74,0,0,0-3.55-2a2.36,2.36,0,0,0-1.39-.27,3.08,3.08,0,0,0-1.45.53A2.33,2.33,0,0,0-7.32-.56a.35.35,0,0,1-.37.24A.39.39,0,0,1-8-.42a.33.33,0,0,1-.1-.26v-.1A3,3,0,0,1-6.89-2.35,4,4,0,0,1-5-3Z"/>
<rect fill="none" x="-12" y="-12" width="24" height="24"/>
</symbol>
<symbol id="narrow" viewBox="-12 -12 24 24">
<path d="M-1.5,5V-5h0.64V5H-1.5z"/>
<path d="M0.86,5V-5H1.5V5H0.86z"/>
<rect fill="none" x="-12" y="-12" width="24" height="24"/>
</symbol>
<symbol id="paleoflow" viewBox="-12 -12 24 24">
<path d="M.38-12V.17A1.9,1.9,0,0,0,1,0,1.57,1.57,0,0,0,1.7-.72a1.86,1.86,0,0,0,.23-1c0-.09,0-.14.08-.16a.92.92,0,0,1,.24,0,.52.52,0,0,0,.25,0h.08A2.48,2.48,0,0,1,2,0,2.5,2.5,0,0,1,.38.77V7.21H2.09L0,12-1.8,7.23c.07,0,.59,0,1.53,0V.77A3,3,0,0,1-1.35.43a2.16,2.16,0,0,1-1-1,2.38,2.38,0,0,1-.24-1.33l.67,0a2,2,0,0,0,.15,1,1.73,1.73,0,0,0,.59.67A2.14,2.14,0,0,0-.27.16V-12Z"/>
<rect fill="none" x="-12" y="-12" width="24" height="24"/>
</symbol>
<symbol id="rain" viewBox="-12 -12 24 24">
<path d="M-4.14-6.34h0.71v4.69h-0.71V-6.34z"/>
<path d="M-0.35-6.34h0.71v4.69h-0.71V-6.34z"/>
<path d="M3.43-6.34h0.71v4.69H3.43V-6.34z"/>
<path d="M-4.14,1.65h0.71v4.69h-0.71V1.65z"/>
<path d="M-0.35,1.65h0.71v4.69h-0.71V1.65z"/>
<path d="M3.43,1.65h0.71v4.69H3.43V1.65z"/>
<rect fill="none" x="-12" y="-12" width="24" height="24"/>
</symbol>
<symbol id="rats" viewBox="-12 -12 24 24">
<path d="M8.78-2.32,7-2.27c-.51-.17-.65-.56-1.46-.45l-.25.45C3.59-2.75,2.59-3.66.56-3.62l-1.35.3A4.89,4.89,0,0,0-4.24,1.57c-.68.6-2.58.86-3.39.94a6.84,6.84,0,0,0-1.62.39,4.91,4.91,0,0,0-1,.52A1.75,1.75,0,0,0-11,4.61a1.16,1.16,0,0,0,.59,1.48,1.3,1.3,0,0,1,.14.12c.16-.52-.35-.92-.2-1.42a3.35,3.35,0,0,1,.27-.45,3.18,3.18,0,0,1,1.79-1c.63-.12,1.27-.22,1.91-.3.48-.07,1,0,1.4-.12A6.94,6.94,0,0,1-4,2.82,30.64,30.64,0,0,0,.41,2.69l2.16.15c.1-.09,0,0,.1-.15a.87.87,0,0,0-.9-.55c.86-1,2.27-.37,3.1-.05.5.19,1,0,1.25.4.11-.1.1-.07.15-.25.3,0,.31.07.6.15-.06-.49-.34-.64-1-.6a.78.78,0,0,1,0-.55C6.3.56,7.29.73,8.13.43a13.78,13.78,0,0,0,2.15-.9l.6-.85v-.2A16.9,16.9,0,0,0,8.78-2.32Z"/>
<rect fill="none" x="-12" y="-12" width="24" height="24"/>
</symbol>
<symbol id="sand" viewBox="-12 -12 24 24">
<path d="M-1.58,0.83c0.23,0.2,0.35,0.44,0.36,0.73c0.01,0.29-0.08,0.54-0.28,0.75c-0.2,0.21-0.46,0.32-0.78,0.33c-0.32,0.01-0.6-0.08-0.83-0.26C-3.36,2.19-3.49,1.95-3.5,1.67C-3.51,1.38-3.41,1.12-3.2,0.9c0.21-0.22,0.48-0.34,0.8-0.35C-2.08,0.54-1.81,0.64-1.58,0.83z"/>
<path d="M0.08-2.36c0.23,0.2,0.35,0.44,0.36,0.73c0.01,0.29-0.08,0.54-0.28,0.75c-0.2,0.21-0.46,0.32-0.78,0.33c-0.32,0.01-0.59-0.07-0.83-0.26s-0.37-0.42-0.38-0.71c-0.01-0.29,0.09-0.54,0.3-0.76c0.21-0.22,0.48-0.33,0.8-0.35C-0.42-2.65-0.14-2.56,0.08-2.36z"/>
<path d="M3.12,0.55c0.23,0.2,0.35,0.43,0.38,0.71c0.02,0.28-0.07,0.53-0.28,0.75C3,2.23,2.73,2.35,2.42,2.36C2.1,2.37,1.82,2.28,1.58,2.08C1.34,1.88,1.22,1.64,1.2,1.35c-0.01-0.29,0.09-0.54,0.3-0.75C1.72,0.4,1.99,0.29,2.3,0.28S2.89,0.36,3.12,0.55z"/>
<rect fill="none" x="-12" y="-12" width="24" height="24"/>
</symbol>
<symbol  id="scallops" viewBox="-12 -12 24 24">
<path d="M.05-3.74l.21,0A2.35,2.35,0,0,1,1.74-3a2,2,0,0,1,.59,1.55v0l0,0A9.59,9.59,0,0,1-.08,3.27l-.39.47-.27-.55A14.26,14.26,0,0,1-2.33-1.89v-.05l0-.05A2,2,0,0,1-1.44-3.3,2.42,2.42,0,0,1,.05-3.74ZM-.11-3A1.44,1.44,0,0,0-1.55-1.89,13.06,13.06,0,0,0-.29,2.33,8.6,8.6,0,0,0,1.55-1.54a1.41,1.41,0,0,0-.38-1A1.62,1.62,0,0,0,.18-3Z"/>
<rect fill="none" x="-12" y="-12" width="24" height="24"/>
</symbol>
<symbol  id="sink" viewBox="-12 -12 24 24">
<path d="M.72,9.41H.9c1.94,0,3.26-.54,3.94-1.51a3.61,3.61,0,0,0,.33-.69,2,2,0,0,0,.11-.54V6.46l.69,0a2.8,2.8,0,0,1-.58,1.78C4.58,9.39,3.1,10,.93,10H-.93q-3.25,0-4.46-1.8a2.74,2.74,0,0,1-.43-.83A2.37,2.37,0,0,1-6,6.67V6.43l.68,0A2.27,2.27,0,0,0-4.84,7.9c.68,1,2,1.47,3.93,1.48l.5,0ZM-1.46-10a.68.68,0,0,0,.16.41A2.77,2.77,0,0,0-.51-9l0,0a3.63,3.63,0,0,1,1,.7,1.15,1.15,0,0,1,.34.88c0,.58-.53,1.14-1.49,1.68-.68.42-1,.79-1,1.11s.3.61.84,1h0Q.61-2.86.46-1.78a3.51,3.51,0,0,1-1.55,2,.61.61,0,0,0-.26.41,1.67,1.67,0,0,0,.1.51,5.3,5.3,0,0,1,.32,1L.56,1.9.46,8.06-3.4,2.54l1.73-.28A6.16,6.16,0,0,0-2,1.39,1.7,1.7,0,0,1-2.09.58a1.21,1.21,0,0,1,.53-.82h0v0C-.75-.86-.33-1.38-.28-1.85s-.23-.87-.91-1.27h0C-2-3.6-2.37-4.1-2.4-4.61S-2-5.74-1.09-6.29C-.34-6.72.06-7.1.09-7.44a.67.67,0,0,0-.18-.43,3.17,3.17,0,0,0-.79-.58,2.93,2.93,0,0,1-1-.67A1.16,1.16,0,0,1-2.17-10Z"/>
<rect fill="none" x="-12" y="-12" width="24" height="24"/>
</symbol>
<symbol  id="spring" viewBox="-12 -12 24 24">
<path d="M-1.34-9.86,2.52-4.34.78-4.06a8,8,0,0,0,.29.87,1.4,1.4,0,0,1,.13.79,1.3,1.3,0,0,1-.52.84l0,0v0C-.13-.95-.55-.42-.61,0S-.37.91.31,1.3l0,0c.75.46,1.14,1,1.18,1.46S1.12,3.92.21,4.46C-.54,4.9-.94,5.29-1,5.64a.74.74,0,0,0,.18.43A3.2,3.2,0,0,0,0,6.62a3,3,0,0,1,1,.7,1.14,1.14,0,0,1,.31.86A1.74,1.74,0,0,1,.71,9.26H.92c1.92,0,3.22-.52,3.9-1.51a2.05,2.05,0,0,0,.35-.67,2.59,2.59,0,0,0,.1-.55l0-.19.65,0a2.84,2.84,0,0,1-.55,1.8C4.58,9.26,3.08,9.85.92,9.86H-.92c-2.17,0-3.66-.6-4.49-1.77a3.65,3.65,0,0,1-.4-.85A2.43,2.43,0,0,1-6,6.53V6.29l.66,0a2.08,2.08,0,0,0,.47,1.41c.68,1,2,1.5,3.91,1.51H-.4c.62-.43.94-.8,1-1.1a.76.76,0,0,0-.16-.43,3.25,3.25,0,0,0-.79-.51v0a3.8,3.8,0,0,1-1-.7,1.15,1.15,0,0,1-.34-.91q.06-.84,1.5-1.68c.68-.4,1-.77,1-1.1S.49,2.21,0,1.87c0,0,0,0,0,0C-1,1.32-1.44.69-1.34,0a3.58,3.58,0,0,1,1.55-2,.54.54,0,0,0,.23-.38A1.28,1.28,0,0,0,.37-3a4.57,4.57,0,0,1-.32-1l-1.49.24Z"/>
<rect fill="none" x="-12" y="-12" width="24" height="24"/>
</symbol>
<symbol  id="stalactite" viewBox="-12 -12 24 24">
<path d="M3.57-6.69l.52.53L.39-3V6.12H-.39V-3l-3.7-3.14.52-.53L0-3.67Z"/>
<rect fill="none" x="-12" y="-12" width="24" height="24"/>
</symbol>
<symbol  id="stalagmite" viewBox="-12 -12 24 24">
<path d="M.38-6.42V2.75L4.11,5.89l-.56.53L0,3.4l-3.57,3-.53-.53,3.7-3.14V-6.42Z"/>
<rect fill="none" x="-12" y="-12" width="24" height="24"/>
</symbol>
<symbol  id="stalagnate" viewBox="-12 -12 24 24">
<path d="M3.55-8.46l.56.53L.38-4.78v9L4.11,7.36l-.56.53L0,4.86l-3.57,3-.53-.53,3.7-3.14v-9l-3.7-3.15.53-.53L0-5.43Z"/>
<rect fill="none" x="-12" y="-12" width="24" height="24"/>
</symbol>
<symbol  id="straws" viewBox="-12 -12 24 24">
<path d="M-10.89-2.76H10.89V-2H9.63V.46H8.84V-2H8.29v5.6H7.5V-2H5.56V.7H4.77V-2H2.07V2.38H1.29V-2H-.1v3H-.89V-2H-3.2V4.11H-4V-2H-6.22L-6.16.75l-.79,0L-7-2H-8.32V2.33H-9.1V-2h-1.79Z"/>
<rect fill="none" x="-12" y="-12" width="24" height="24"/>
</symbol>
<symbol  id="water" viewBox="-12 -12 24 24">
<path d="M-1.72-9.86,2.11-4.32.38-4.06a6.49,6.49,0,0,0,.29.89,1.5,1.5,0,0,1,.13.79,1.2,1.2,0,0,1-.5.82h0l0,0C-.54-.94-1-.42-1,.05s.24.89.92,1.27h0c.77.48,1.17,1,1.19,1.49S.71,3.94-.2,4.49c-.75.43-1.13.81-1.15,1.15a.51.51,0,0,0,.18.43,2.66,2.66,0,0,0,.76.58,2.93,2.93,0,0,1,1,.67,1.16,1.16,0,0,1,.29.89C.84,8.75.42,9.3-.41,9.86l-.44-.55c.66-.45,1-.83,1-1.15A.47.47,0,0,0,0,7.75a2.84,2.84,0,0,0-.78-.53h0a3.87,3.87,0,0,1-1-.69,1.24,1.24,0,0,1-.34-.91c0-.58.54-1.14,1.52-1.68.66-.42,1-.79,1-1.11s-.3-.61-.84-1h0Q-1.9,1.06-1.74,0a3.44,3.44,0,0,1,1.54-2,.67.67,0,0,0,.27-.41A1.11,1.11,0,0,0,0-3a4.33,4.33,0,0,1-.31-1l-1.5.24Z"/>
<rect fill="none" x="-12" y="-12" width="24" height="24"/>
</symbol><symbol  id="tree" viewBox="-12 -12 24 24">
<path d="M7.4-5.04A4.271,4.271,0,0,0,7.7-6.627a4.3,4.3,0,0,0-4.3-4.3A4.279,4.279,0,0,0,.636-9.914,4.293,4.293,0,0,0-3.045-12a4.3,4.3,0,0,0-4.3,4.3,4.27,4.27,0,0,0,.421,1.845,4.3,4.3,0,0,0-3.645,4.244,4.3,4.3,0,0,0,4.3,4.3A4.282,4.282,0,0,0-3.946,2L-1.175,5.23h0L-1.612,12H.982L.757,6.376,4.119,2.827v0a4.272,4.272,0,0,0,2.15.58,4.3,4.3,0,0,0,4.3-4.3A4.3,4.3,0,0,0,7.4-5.04ZM-3.346,1.538h0A4.346,4.346,0,0,0-2.7.788a4.266,4.266,0,0,0,1.765.753l-.135,2.087ZM.69,4.7.563,1.544A4.258,4.258,0,0,0,2.321.805,4.3,4.3,0,0,0,3.378,2.279Z"/>
<rect fill="none" x="-12" y="-12" width="24" height="24"/>
</symbol><g>
<desc></desc>
<g>
<line fill="none" stroke="#dddddd" stroke-width="0.1mm" x1="0.00" y1="30.00" x2="205.00" y2="30.00" />
<text x="202.20" y="29.80" font-size=".2mm" fill="#000000">0m</text>
<line fill="none" stroke="#dddddd" stroke-width="0.1mm" x1="0.00" y1="80.00" x2="205.00" y2="80.00" />
<text x="202.20" y="79.80" font-size=".2mm" fill="#000000">-5m</text>
<line fill="none" stroke="#dddddd" stroke-width="0.1mm" x1="0.00" y1="130.00" x2="205.00" y2="130.00" />
<text x="202.20" y="129.80" font-size=".2mm" fill="#000000">-10m</text>
<line fill="none" stroke="#dddddd" stroke-width="0.1mm" x1="0.00" y1="180.00" x2="205.00" y2="180.00" />
<text x="202.20" y="179.80" font-size=".2mm" fill="#000000">-15m</text>
<line fill="none" stroke="#dddddd" stroke-width="0.1mm" x1="0.00" y1="230.00" x2="205.00" y2="230.00" />
<text x="202.20" y="229.80" font-size=".2mm" fill="#000000">-20m</text>
<line fill="none" stroke="#dddddd" stroke-width="0.1mm" x1="0.00" y1="280.00" x2="205.00" y2="280.00" />
<text x="202.20" y="279.80" font-size=".2mm" fill="#000000">-25m</text>
<line fill="none" stroke="#dddddd" stroke-width="0.1mm" x1="81.00" y1="0.00" x2="81.00" y2="315.00" />
<text x="81.40" y="2.00" font-size=".2mm" fill="#000000">0m</text>
<line fill="none" stroke="#dddddd" stroke-width="0.1mm" x1="31.00" y1="0.00" x2="31.00" y2="315.00" />
<text x="31.40" y="2.00" font-size=".2mm" fill="#000000">-5m</text>
<line fill="none" stroke="#dddddd" stroke-width="0.1mm" x1="131.00" y1="0.00" x2="131.00" y2="315.00" />
<text x="131.40" y="2.00" font-size=".2mm" fill="#000000">5m</text>
<line fill="none" stroke="#dddddd" stroke-width="0.1mm" x1="181.00" y1="0.00" x2="181.00" y2="315.00" />
<text x="181.40" y="2.00" font-size=".2mm" fill="#000000">10m</text>
</g>
<g>
<path fill="none" stroke="#000000" stroke-width="0.06mm" d="M22.7,161.9 L22.201996,160.66255" /><path fill="none" stroke="#000000" stroke-width="0.06mm" d="M28.917782,19.195087 C29.031677,20.267742 29.145576,21.340397 29.259468,22.413052 C29.28384,24.16521 29.19019,25.922997 29.332588,27.66953 C29.40202,28.521124 29.65952,29.348814 29.891987,30.171 C30.132202,31.02057 30.57893,32.11893 31.267647,32.73671 C32.18263,33.557446 34.80983,34.322098 35.013504,34.394672 C35.323654,34.505184 35.65621,34.562386 35.985344,34.57127 C37.75842,34.619133 39.533966,34.4997 41.306496,34.564545 C45.200256,34.706993 49.10177,34.80415 52.97869,35.19295 C59.27976,35.824856 57.469955,36.10566 60.943184,36.678234 C69.45365,38.081215 64.079315,36.689774 76.1223,40.893692 C76.3425,40.970562 76.54506,41.0997 76.72718,41.245407 C78.26029,42.47202 80.00414,44.79178 81.012535,45.96488 L81.012535,45.96488" /><path fill="none" stroke="#000000" stroke-width="0.06mm" d="M87.71574,33.880577 C87.33048,33.562073 86.914986,33.27697 86.55998,32.925068 C84.9705,31.349483 84.17671,30.63626 83.252235,28.815039 C82.58243,27.495522 82.35378,26.330431 81.46178,25.251446 C81.269684,25.01909 81.03353,24.826992 80.81832,24.61586 C79.86542,23.680992 78.94386,22.712887 77.957436,21.813457 C77.736435,21.611948 77.480995,21.441097 77.20642,21.322523 C75.86077,20.741396 74.14115,20.090502 72.623665,19.957333 C70.607635,19.78041 68.5829,19.718407 66.5607,19.638638 C65.637955,19.60224 65.34898,19.78815 64.53217,19.530502 C64.085175,19.389505 63.655685,19.197075 63.225914,19.01003 C62.870186,18.855211 62.547676,18.620234 62.177063,18.505524 C61.433098,18.275259 60.670784,18.094921 59.900414,17.980747 C50.71615,16.619606 57.006138,17.850693 47.763355,16.791706 C46.736706,16.674078 45.71661,16.481205 44.71547,16.225166 C43.927963,16.02377 42.891617,15.296455 41.985672,15.308636 C41.63423,15.31336 36.165436,15.595152 34.88778,15.449217 C31.291866,15.038489 34.09563,14.6699915 31.355316,15.22645 L31.355316,15.22645" /><path fill="none" stroke="#000000" stroke-width="0.06mm" d="M23.165813,11.168612 C23.337128,10.739239 23.475082,10.295 23.679756,9.880493 C23.961983,9.308937 24.339828,8.707075 24.974056,8.492924 C26.331173,8.034685 27.69162,9.238775 27.855614,10.560404 C28.018425,11.872517 27.520851,13.618483 27.019459,14.79405 C26.762463,15.396606 26.392452,15.944418 26.078957,16.519604 L26.078957,16.519604" /><path fill="none" stroke="#000000" stroke-width="0.06mm" d="M26.004646,16.311512 L26.824104,16.298641" /><path fill="none" stroke="#000000" stroke-width="0.06mm" d="M26.762653,20.072056 L26.511978,20.936169" /><path fill="none" stroke="#000000" stroke-width="0.06mm" d="M37.969337,30.030832 C41.354763,23.945793 39.49502,25.404264 41.491863,23.877205 L41.491863,23.877205" /><path fill="none" stroke="#000000" stroke-width="0.06mm" d="M39.946114,30.759163 C43.00556,31.39674 45.704906,28.975523 48.651154,29.012638 C49.082058,29.018066 49.511528,29.070446 49.939247,29.123018 C50.22072,29.157614 50.492973,29.278172 50.77653,29.273874 C50.843468,29.27286 50.912296,29.171944 50.890633,29.1086 C50.841454,28.964788 50.70942,28.86273 50.59989,28.75735 C49.613354,27.808159 48.64231,26.8403 47.60477,25.947138 C46.41738,24.92498 44.921364,24.529331 43.52809,23.892063 L43.52809,23.892063" /><path fill="none" stroke="#000000" stroke-width="0.06mm" d="M60.39758,26.924286 C60.371075,30.389936 60.50242,28.604898 59.951683,32.275276 L59.951683,32.275276" /><path fill="none" stroke="#000000" stroke-width="0.06mm" d="M60.51648,32.364464 C62.04277,32.213894 63.563545,31.988989 65.095345,31.912758 C66.59616,31.83807 68.100746,31.924046 69.60338,31.912252 C69.88704,31.910027 70.169914,31.859713 70.45337,31.870707 C70.91713,31.888695 71.38157,32.07272 71.83978,31.998997 C71.96325,31.979132 71.73819,31.761044 71.64365,31.679197 C71.29218,31.374962 70.923805,31.082935 70.518524,30.85526 C69.60298,30.340933 68.69248,29.785036 67.69383,29.460302 C65.44825,28.730099 61.450302,28.410583 59.223404,28.157997 L59.223404,28.157997" /><path fill="none" stroke="#000000" stroke-width="0.06mm" d="M70.81653,38.547813 C75.45922,32.100967 73.83505,33.50915 79.38077,28.73465 C85.50427,23.462704 79.22838,29.242931 82.40965,26.285143 L82.40965,26.285143" /><path fill="none" stroke="#000000" stroke-width="0.06mm" d="M78.60473,30.99698 C79.22539,32.440792 78.80941,31.563623 79.97213,33.568428 L79.97213,33.568428" /><path fill="none" stroke="#000000" stroke-width="0.06mm" d="M77.148155,34.4454 C77.79253,35.994072 77.373985,35.14986 78.500694,36.92766 L78.500694,36.92766" /><path fill="none" stroke="#000000" stroke-width="0.06mm" d="M73.29865,36.095287 C74.1297,37.331074 74.927925,38.020027 76.07802,38.8005 L76.07802,38.8005" /><path fill="none" stroke="#000000" stroke-width="0.06mm" d="M72.00557,38.72619 C72.610115,40.347816 72.65785,40.473907 73.982346,41.386814 L73.982346,41.386814" /><path fill="none" stroke="#000000" stroke-width="0.06mm" d="M86.76451,34.68322 C87.36779,35.837273 87.92718,37.015358 88.57435,38.145386 C89.80033,40.28607 91.11263,42.376152 92.381775,44.491535 C97.02168,53.268703 101.58997,62.084114 106.3015,70.82305 C106.662224,71.49213 107.11441,72.11175 107.59186,72.70321 C108.29154,73.56998 108.80118,73.687515 109.24525,74.57701 C110.46921,77.028656 111.62796,79.512314 112.81931,81.979965 L112.81931,81.979965" /><path fill="none" stroke="#000000" stroke-width="0.06mm" d="M85.798416,57.85596 C83.44758,54.614532 82.371155,50.79465 81.08622,47.041626 C80.85342,46.361656 79.748886,43.291553 80.64331,42.66658 C80.74928,42.592533 80.90764,42.552532 81.03525,42.565086 C81.58412,42.619087 82.129875,42.701134 82.67719,42.769157 L82.67719,42.769157" /><path fill="none" stroke="#000000" stroke-width="0.06mm" d="M82.7515,43.34884 C82.71586,48.073624 82.86894,43.543663 82.20474,49.323917 C82.12554,50.013165 82.38419,50.715233 82.54343,51.360443 L82.54343,51.360443" /><path fill="none" stroke="#000000" stroke-width="0.06mm" d="M87.136086,58.926144 C88.50369,67.750854 87.575356,62.59801 92.83823,79.82562 C92.998665,80.3508 93.46644,80.974335 93.79469,81.44487 L93.79469,81.44487" /><path fill="none" stroke="#000000" stroke-width="0.06mm" d="M96.767296,83.77851 C107.65837,98.53333 94.579315,80.52744 101.45016,90.6463 C101.76177,91.10523 102.172806,91.48811 102.534134,91.90903 L102.534134,91.90903" /><path fill="none" stroke="#000000" stroke-width="0.06mm" d="M85.545746,41.609776 C85.2313,41.761646 84.90834,41.89702 84.60241,42.06539 C83.548584,42.64537 85.754196,45.072994 84.155205,45.528496 C83.2651,45.78206 82.36726,46.00769 81.47329,46.24729 L81.47329,46.24729" /><path fill="none" stroke="#000000" stroke-width="0.06mm" d="M89.42499,33.71706 L88.95136,33.332615" /><path fill="none" stroke="#000000" stroke-width="0.06mm" d="M85.36738,43.97312 C86.52196,45.644028 87.562904,47.399456 88.83112,48.985832 C89.87481,50.291348 91.10315,51.43887 92.28261,52.623154 C92.466896,52.808197 92.58124,52.603264 92.60047,52.457657 C92.62085,52.30341 92.6202,52.1433 92.588104,51.99106 C92.33002,50.76674 92.07152,49.540577 91.73169,48.33638 C91.30335,46.818504 90.73464,45.343193 90.28545,43.831356 C90.17959,43.47506 90.297966,42.843056 89.846855,42.65323 C89.72018,42.599922 89.48799,42.5757 89.3588,42.605476 C87.954636,42.929123 86.55914,43.289326 85.15931,43.63125 L85.15931,43.63125" /><path fill="none" stroke="#000000" stroke-width="0.06mm" d="M96.11333,64.11363 C96.3101,64.5695 96.45407,65.05199 96.70364,65.48123 C98.17302,68.0085 99.69155,70.507996 101.26394,72.972496 C101.297455,73.02504 101.413376,72.95529 101.43489,72.896805 C101.4911,72.74399 101.47842,72.57233 101.47095,72.40967 C101.32911,69.32118 101.172806,66.233215 100.98713,63.14704 C100.93607,62.298386 99.85242,61.882095 99.13636,62.069027 C97.42491,62.51581 96.91441,63.033997 95.578255,64.17308 L95.578255,64.17308" /><path fill="none" stroke="#000000" stroke-width="0.06mm" d="M110.61959,79.98823 C108.49065,80.59346 108.92103,80.35728 106.24866,82.145096 C104.61889,83.235405 103.029465,85.05542 102.54911,86.99921 C101.90857,89.59122 104.778275,90.90905 106.95227,90.13594 C109.4435,89.250015 110.373276,87.88146 112.26077,85.75077 C112.4888,85.49337 112.69632,85.20848 112.83539,84.89398 C113.265396,83.92148 113.60382,82.910706 113.959625,81.908676 C114.02765,81.7171 113.94971,81.49563 113.762764,81.41167 C113.46377,81.27738 113.001526,81.36352 112.71564,81.44237 C111.85847,81.678764 111.011116,81.94941 110.15885,82.20293 L110.15885,82.20293" /><path fill="none" stroke="#000000" stroke-width="0.06mm" d="M109.87645,90.57127 C109.61779,91.75869 109.89374,91.15489 108.80631,92.25089 L108.80631,92.25089" /><path fill="none" stroke="#000000" stroke-width="0.06mm" d="M108.731995,92.28062 L108.45159,92.8177" /><path fill="none" stroke="#000000" stroke-width="0.06mm" d="M108.31583,92.91976 L108.13947,93.055534" /><path fill="none" stroke="#000000" stroke-width="0.06mm" d="M107.75103,92.89003 L106.831535,92.99608" /><path fill="none" stroke="#000000" stroke-width="0.06mm" d="M104.58522,93.42513 L103.96298,93.51632" /><path fill="none" stroke="#000000" stroke-width="0.06mm" d="M113.740814,86.36481 C112.033356,87.91098 108.42604,91.192215 107.24723,92.14197 C106.812706,92.492065 106.27516,92.69022 105.78912,92.964355 L105.78912,92.964355" /><path fill="none" stroke="#000000" stroke-width="0.06mm" d="M107.2457,97.08164 L107.61927,97.55927" /><path fill="none" stroke="#000000" stroke-width="0.06mm" d="M107.92939,93.66295 C108.87787,96.46166 108.29776,95.31739 109.44542,97.200554 L109.44542,97.200554" /><path fill="none" stroke="#000000" stroke-width="0.06mm" d="M109.742676,93.46973 C111.12366,95.93701 110.224396,95.37175 111.64514,96.02631 L111.64514,96.02631" /><path fill="none" stroke="#000000" stroke-width="0.06mm" d="M110.96144,91.74552 C111.5654,93.00824 111.157364,92.24573 112.31397,93.960236 L112.31397,93.960236" /><path fill="none" stroke="#000000" stroke-width="0.06mm" d="M113.57733,90.794235 C113.783356,91.981155 113.61398,91.33383 114.171844,92.71167 L114.171844,92.71167" /><path fill="none" stroke="#000000" stroke-width="0.06mm" d="M113.57733,84.06091 C112.00483,82.427475 113.80751,83.347115 114.31807,83.80018 C114.46376,83.92947 114.61889,84.059784 114.71454,84.22947 C116.12855,86.73787 117.464066,89.2897 118.83882,91.81983 L118.83882,91.81983" /><path fill="none" stroke="#000000" stroke-width="0.06mm" d="M119.15355,101.0757 C118.98831,102.18044 119.175446,101.770515 118.81171,102.38372 L118.81171,102.38372" /><path fill="none" stroke="#000000" stroke-width="0.06mm" d="M119.40622,100.71895 C119.40828,101.28217 119.46567,101.84791 119.412415,102.4086 C118.95976,107.173836 118.21039,111.91176 117.88937,116.68766 C117.833275,117.52223 118.74327,124.7379 118.74357,124.97817 C118.74783,128.42068 118.30113,131.85112 118.228546,135.29288 C118.20975,136.18433 118.41385,137.06702 118.46985,137.95691 C118.494354,138.34622 118.46985,138.73706 118.46985,139.12714 L118.46985,139.12714" /><path fill="none" stroke="#000000" stroke-width="0.06mm" d="M120.43176,105.53484 L120.3,105.65576" /><path fill="none" stroke="#000000" stroke-width="0.06mm" d="M120.35745,94.595055 C120.277985,93.83368 120.19852,93.07231 120.11905,92.31093 C120.030426,91.75065 119.904884,91.19499 119.85317,90.63011 C119.825485,90.32776 119.872284,90.023186 119.881836,89.71971 L119.881836,89.71971" /><path fill="none" stroke="#000000" stroke-width="0.06mm" d="M120.62499,102.874214 L120.74589,102.71272" /><path fill="none" stroke="#000000" stroke-width="0.06mm" d="M119.76294,101.16488 C120.296265,97.59956 120.32937,95.36229 119.688614,92.29116 L119.688614,92.29116" /><path fill="none" stroke="#000000" stroke-width="0.06mm" d="M103.6366,97.27055 C103.45634,99.66621 102.964035,102.05871 103.09581,104.45752 C103.472015,111.30565 104.57239,118.09592 105.15605,124.92949 C105.59569,130.07678 105.76229,135.24442 106.165245,140.39473 C106.41619,143.60217 106.46606,141.4917 106.47543,141.25266 L106.47543,141.25266" /><path fill="none" stroke="#000000" stroke-width="0.06mm" d="M106.832146,137.12051 C112.35292,137.87799 112.483765,138.09839 118.8835,137.84929 C119.37941,137.82999 119.83641,137.57153 120.31287,137.43266 L120.31287,137.43266" /><path fill="none" stroke="#000000" stroke-width="0.06mm" d="M108.43734,138.01236 L108.45421,137.24142" /><path fill="none" stroke="#000000" stroke-width="0.06mm" d="M110.102,131.02635 C110.073906,137.52937 108.01275,137.82092 110.562744,137.2543 L110.562744,137.2543" /><path fill="none" stroke="#000000" stroke-width="0.06mm" d="M113.65425,132.60193 C113.70365,134.1154 113.75305,135.62886 113.802444,137.14233 C113.8445,137.31812 113.85126,137.50632 113.9286,137.66966 C114.008255,137.83789 114.151955,137.9675 114.263626,138.1164 L114.263626,138.1164" /><path fill="none" stroke="#000000" stroke-width="0.06mm" d="M115.8391,132.75055 C116.4266,134.85976 116.31739,134.03265 116.45601,135.68077 C116.48463,136.02101 116.47595,136.36575 116.535095,136.70204 C116.57945,136.9543 116.625046,137.22058 116.76459,137.43536 C116.937416,137.7014 117.217735,137.87947 117.444305,138.10153 L117.444305,138.10153" /><path fill="none" stroke="#000000" stroke-width="0.06mm" d="M107.5307,102.993126 C107.056335,103.444534 106.659164,103.710655 106.35704,104.249084 C106.14168,104.63287 106.01851,105.084145 106.06088,105.52635 C106.1231,106.175674 106.369995,106.825264 106.78031,107.334625 C107.27223,107.94528 108.23744,108.279236 108.87708,107.69677 C109.76402,106.88911 110.12427,105.4993 109.79894,104.35451 C109.71974,104.07579 109.53053,103.81081 109.23711,103.73733 C108.61284,103.58102 107.73359,104.26318 107.35235,104.46465 L107.35235,104.46465" /><path fill="none" stroke="#000000" stroke-width="0.06mm" d="M114.47171,105.5943 C114.00221,106.13493 113.565506,106.65235 113.45387,107.374306 C113.39052,107.784 113.362564,108.047226 113.467064,108.41853 C113.54023,108.678505 113.76632,108.9008 114.02098,108.98396 C115.17401,109.36048 116.18085,108.22778 115.74697,107.122055 C115.62865,106.82052 115.4276,106.57685 115.11137,106.47973 C114.56494,106.311905 113.56691,106.56871 113.178635,106.61991 L113.178635,106.61991" /><path fill="none" stroke="#000000" stroke-width="0.06mm" d="M108.54138,114.0221 C108.01985,115.10257 107.676926,116.079956 107.78654,117.28583 C107.82687,117.72953 107.91304,118.16941 108.02045,118.6018 C108.091225,118.88676 108.202835,119.16085 108.319244,119.4304 C108.41594,119.65428 108.6171,119.91039 108.79431,120.07527 C108.971405,120.24006 109.22449,120.44723 109.48662,120.45851 C110.502785,120.50229 111.24825,118.074936 111.1042,117.34021 C111.03932,117.00925 110.7614,116.85663 110.4367,116.91375 C110.36238,116.92682 110.2921,116.95985 110.22562,116.995544 C109.659775,117.29933 109.1028,117.619385 108.54138,117.93129 L108.54138,117.93129" /><path fill="none" stroke="#000000" stroke-width="0.06mm" d="M114.025826,120.0271 C113.67583,121.04193 113.36099,121.60588 113.300934,122.58515 C113.27585,122.99417 113.28854,123.6226 113.6432,123.92628 C114.19247,124.39656 115.3663,123.94536 115.792435,123.4982 C116.34825,122.91495 116.24131,122.20051 115.53699,121.81871 C115.11146,121.58805 114.83184,121.456375 114.37749,121.37735 C114.25841,121.35665 114.13649,121.344666 114.01581,121.35139 C113.40872,121.385155 112.80373,121.44955 112.19768,121.49863 L112.19768,121.49863" /><path fill="none" stroke="#000000" stroke-width="0.06mm" d="M108.140076,124.04034 C107.95102,124.61868 107.66546,125.17024 107.65958,125.785446 C107.655106,126.25281 107.8109,126.675735 108.04525,127.07509 C108.439575,127.747055 109.02517,127.92215 109.72154,127.61946 C110.096985,127.45625 110.41012,127.209595 110.6279,126.86101 C110.96919,126.31471 110.85391,124.86484 110.103775,124.71847 C109.603836,124.6209 108.83639,125.21411 108.58597,125.348366 L108.58597,125.348366" /><path fill="none" stroke="#000000" stroke-width="0.06mm" d="M112.89623,113.42754 C112.730225,114.386566 112.72794,115.294106 113.07866,116.2096 C113.17082,116.45018 113.377174,116.91803 113.612564,117.146225 C114.130615,117.64842 115.10829,117.62961 115.592354,117.0955 C115.62904,117.05502 115.99175,116.57372 115.936844,116.49932 C115.69355,116.169655 115.29698,115.987404 114.97705,115.731445 L114.97705,115.731445" /><path fill="none" stroke="#000000" stroke-width="0.06mm" d="M116.44849,89.86836 C116.03685,89.65253 115.62701,89.333084 115.13956,89.3685 C114.166245,89.4392 112.97496,90.9896 112.64131,91.762924 C111.475746,94.46448 111.27042,95.3837 111.54959,98.17334 C111.58911,98.56824 111.76082,99.08563 111.96823,99.43656 C112.400856,100.168564 113.13027,100.63432 113.87629,100.9993 C115.37492,101.73248 116.98302,101.66161 118.449425,100.87004 C118.451706,100.86881 119.95952,100.00899 120.14015,99.61474 C120.32509,99.21109 120.36429,98.7555 120.47635,98.32588 L120.47635,98.32588" /><path fill="none" stroke="#000000" stroke-width="0.06mm" d="M113.72856,98.83125 C112.43914,101.139984 112.04485,100.33629 112.56925,101.254074 L112.56925,101.254074" /><path fill="none" stroke="#000000" stroke-width="0.06mm" d="M116.71603,97.582695 C117.01518,98.180405 116.95278,100.222694 117.785126,101.00379 C118.04398,101.24671 118.33079,101.45801 118.60362,101.68511 L118.60362,101.68511" /><path fill="none" stroke="#000000" stroke-width="0.06mm" d="M116.47822,97.389465 C119.44422,97.57815 118.151054,97.69295 120.372314,97.30028 L120.372314,97.30028" /><path fill="none" stroke="#000000" stroke-width="0.06mm" d="M116.29986,92.6033 L117.6078,90.22508" /><path fill="none" stroke="#000000" stroke-width="0.06mm" d="M116.79034,95.18962 C118.330734,94.817474 118.80934,94.4751 120.00073,93.56946 L120.00073,93.56946" /><path fill="none" stroke="#000000" stroke-width="0.06mm" d="M113.11917,96.64626 C114.30563,96.24283 113.711205,96.509636 114.88787,95.813896 L114.88787,95.813896" /><path fill="none" stroke="#000000" stroke-width="0.06mm" d="M114.72438,96.94354 C113.05648,96.78415 114.05686,96.910965 111.73692,96.46791 L111.73692,96.46791" /><path fill="none" stroke="#000000" stroke-width="0.06mm" d="M115.40808,96.36385 C114.41599,95.96648 114.04233,95.94408 114.99753,95.997375 C115.59047,96.03046 116.18283,96.07324 116.77548,96.11117 L116.77548,96.11117" /><path fill="none" stroke="#000000" stroke-width="0.06mm" d="M117.32541,95.680115 C115.17081,96.18607 116.01845,95.65978 116.40541,96.186066 C116.735886,96.635544 115.63884,96.18315 116.71603,96.54222 L116.71603,96.54222" /><path fill="none" stroke="#000000" stroke-width="0.06mm" d="M142.99014,210.76761 C141.94504,207.7259 140.89993,204.68417 139.85483,201.64247 C138.75124,199.40152 137.4237,197.25754 136.54405,194.91957 C135.38437,191.83739 134.85078,188.54776 133.75894,185.4409 C132.2135,181.04332 130.15474,176.83606 128.6398,172.42787 C127.03804,167.767 125.89743,162.95927 124.41731,158.25835 C123.519,155.40523 122.35733,152.63763 121.505905,149.7702 C120.66884,146.95108 120.025734,144.07733 119.35635,141.21375 C119.313446,141.03017 119.25982,139.45331 118.887596,139.0737 C118.63612,138.81723 118.270096,138.70663 117.96134,138.5231 L117.96134,138.5231" /><path fill="none" stroke="#000000" stroke-width="0.06mm" d="M110.81823,148.7919 C109.84618,146.7663 108.77355,144.78592 107.902084,142.71503 C107.57783,141.94449 107.50608,141.08871 107.24271,140.29529 C107.18201,140.11243 106.57876,138.77411 106.611374,139.89597 C106.62685,140.42825 106.627014,140.96375 106.70238,141.4909 C106.76961,141.96118 106.92573,142.41441 107.0374,142.87617 L107.0374,142.87617" /><path fill="none" stroke="#000000" stroke-width="0.06mm" d="M114.15262,144.60625 C114.54665,145.61584 114.84334,146.6691 115.33474,147.63507 C116.26575,149.46521 117.32568,151.22878 118.40895,152.9731 C118.461716,153.05806 118.47456,152.77847 118.466995,152.67874 C118.27429,150.13843 118.055435,147.59993 117.809006,145.06424 C117.77421,144.70616 117.313225,144.76108 117.088,144.79591 C115.93284,144.97464 114.77764,145.15315 113.62245,145.33176 L113.62245,145.33176" /><path fill="none" stroke="#000000" stroke-width="0.06mm" d="M118.5473,159.03282 C119.80366,161.93414 120.98891,164.86728 122.31637,167.73676 C122.93642,169.07709 123.61795,170.3927 124.38603,171.65405 C124.50955,171.85689 124.31064,171.1851 124.27336,170.95056 C123.81639,168.07568 123.38245,165.19707 122.903305,162.3258 C122.87979,162.18492 122.71964,161.93741 122.63024,161.83218 C121.78348,160.83545 120.3176,161.20065 119.23092,161.36285 L119.23092,161.36285" /><path fill="none" stroke="#000000" stroke-width="0.06mm" d="M129.5968,176.57076 C129.4858,176.88007 129.35213,177.18213 129.26378,177.49864 C128.96294,178.57639 129.97739,180.72935 130.09561,181.23763 C130.19464,181.6633 130.21466,183.72102 130.2388,183.98126 C130.2732,184.35217 130.36887,184.71483 130.4339,185.08162 L130.4339,185.08162" /><path fill="none" stroke="#000000" stroke-width="0.06mm" d="M128.104,187.2442 L127.82686,187.53906" /><path fill="none" stroke="#000000" stroke-width="0.06mm" d="M127.88078,187.5372 C124.54779,181.5436 128.38295,188.26337 126.313614,184.98056 C126.186966,184.77965 126.10277,184.55493 125.997345,184.34213 L125.997345,184.34213" /><path fill="none" stroke="#000000" stroke-width="0.06mm" d="M126.37404,181.4401 C127.69465,184.05557 129.01527,186.67105 130.33588,189.28653 C130.49463,189.67525 130.81067,190.87251 130.81212,190.45265 C130.81897,188.47281 130.59755,186.49553 130.35237,184.53091 C130.24606,183.67906 130.08318,181.44125 128.79791,181.02594 C128.3912,180.89452 128.00578,180.98006 127.59756,181.0594 C126.71076,181.2317 126.02115,181.3658 125.18816,181.5796 L125.18816,181.5796" /><path fill="none" stroke="#000000" stroke-width="0.06mm" d="M132.02435,196.87122 C133.53546,200.09308 135.0466,203.31494 136.55771,206.53679 C136.5805,206.46135 136.63434,206.38882 136.62608,206.31044 C136.45682,204.7029 136.15468,203.10962 136.02719,201.49823 C135.97949,200.89526 136.02878,200.28566 136.10196,199.68529 C136.24358,198.52344 136.50272,197.37868 136.67055,196.22034 C136.681,196.14821 136.65833,196.07367 136.63524,196.00452 C136.49606,195.5874 135.94414,195.6001 135.60059,195.62155 C134.46248,195.69267 133.43028,196.23492 132.415,196.7038 L132.415,196.7038" /><path fill="none" stroke="#000000" stroke-width="0.06mm" d="M112.30685,153.73529 C112.6008,156.29599 112.584305,157.75992 113.56114,160.15906 C114.15056,161.29987 114.739975,162.44066 115.32938,163.58145 C115.46582,163.82765 115.62508,164.06252 115.738716,164.32004 C115.851616,164.57587 115.9263,164.84717 116.0062,165.11514 C116.364624,166.31726 116.57973,167.56822 117.05352,168.7297 C117.7475,170.43097 118.98958,171.74455 119.332214,173.55193 C119.50596,174.46837 119.57068,175.4022 119.68001,176.32852 C119.82564,177.56224 119.77844,178.83122 120.09709,180.03192 C121.0037,183.4481 122.15808,186.79623 123.341805,190.12653 C124.36264,192.99857 125.60991,195.7852 126.7072,198.6289 C126.77234,198.79773 126.810165,198.97821 126.82688,199.15839 C126.865326,199.57257 126.85703,199.98976 126.87211,200.40543 L126.87211,200.40543" /><path fill="none" stroke="#000000" stroke-width="0.06mm" d="M127.890564,203.58655 L127.08325,203.58841" /><path fill="none" stroke="#000000" stroke-width="0.06mm" d="M127.34645,201.10304 L127.59946,200.10037" /><path fill="none" stroke="#000000" stroke-width="0.06mm" d="M128.29515,200.81006 C128.37213,201.2191 128.5551,201.70901 128.47311,202.15524 C128.33742,202.89377 127.44424,203.35413 126.8734,203.66617 C125.625885,204.34816 123.6009,203.95677 122.50945,203.82462 C119.98104,203.51843 118.84204,202.58795 116.20034,201.68393 C115.67283,201.50339 115.1113,201.43983 114.55989,201.35739 C114.30544,201.3193 113.86864,201.39056 113.628265,201.46608 C112.36867,201.8618 111.13409,202.33812 109.86355,202.6972 C109.53421,202.79028 109.18534,202.84283 108.843994,202.81818 C106.032486,202.61522 103.23558,202.23975 100.42566,202.01593 C95.80693,201.64804 102.26913,202.4631 98.188034,201.91226 L98.188034,201.91226" /><path fill="none" stroke="#000000" stroke-width="0.06mm" d="M105.55437,209.96269 C106.685745,210.01468 107.82872,209.94896 108.948494,210.1187 C129.52783,213.23785 82.69726,208.50708 128.49046,212.51595 L128.49046,212.51595" /><path fill="none" stroke="#000000" stroke-width="0.06mm" d="M136.52647,214.87387 L137.56076,215.4757" /><path fill="none" stroke="#000000" stroke-width="0.06mm" d="M131.8667,212.32062 C132.55293,212.59131 133.23917,212.862 133.92538,213.13269 C134.8945,213.42456 135.89001,213.64006 136.83276,214.00839 C137.47827,214.26057 138.06357,214.64632 138.66791,214.98552 C138.95433,215.1463 139.32042,215.4851 139.40787,215.81667 C139.56805,216.42403 139.72534,217.03659 139.79514,217.66083 C140.08044,220.2127 139.96797,224.07439 141.05153,226.65636 C144.07886,233.87006 143.1457,230.22401 146.15172,235.17099 C148.3227,239.31918 147.3451,237.72964 148.85951,240.07155 L148.85951,240.07155" /><path fill="none" stroke="#000000" stroke-width="0.06mm" d="M122.56113,206.68393 C121.95156,206.81342 121.342,206.94289 120.732445,207.07236 C120.49324,207.1549 120.26286,207.26987 120.014824,207.31998 C119.40445,207.44331 118.78256,207.50055 118.166435,207.59082 L118.166435,207.59082" /><path fill="none" stroke="#000000" stroke-width="0.06mm" d="M102.3595,205.33054 L102.31952,205.33243" /><path fill="none" stroke="#000000" stroke-width="0.06mm" d="M100.8109,206.69788 L100.88253,207.34154" /><path fill="none" stroke="#000000" stroke-width="0.06mm" d="M106.22404,210.06035 L106.07245,209.96457" /><path fill="none" stroke="#000000" stroke-width="0.06mm" d="M101.31315,208.87444 C104.517914,208.28821 103.08414,208.43912 105.59622,208.28842 L105.59622,208.28842" /><path fill="none" stroke="#000000" stroke-width="0.06mm" d="M90.3334,203.51677 C90.60278,203.12173 90.85041,202.71097 91.141556,202.3317 C91.38983,202.00824 91.782524,201.69208 92.13423,201.48972 C93.27412,200.83377 94.094,200.8151 94.9474,201.85045 C95.23247,202.19629 95.44148,202.64417 95.47281,203.09547 C95.56547,204.43051 94.46301,206.15485 93.87705,207.29782 L93.87705,207.29782" /><path fill="none" stroke="#000000" stroke-width="0.06mm" d="M93.06787,212.92056 C93.63397,212.01834 93.45471,212.48517 93.65383,211.53929 L93.65383,211.53929" /><path fill="none" stroke="#000000" stroke-width="0.06mm" d="M105.777596,204.68875 C105.63516,205.53506 105.45953,206.37648 105.35028,207.22775 C105.30388,207.58928 105.76471,207.4584 105.916306,207.41609 C106.94151,207.12991 107.952484,206.78938 108.98872,206.54616 C109.536705,206.41753 111.5332,206.49574 111.74257,206.4894 C111.86791,206.4856 112.10274,206.42729 112.1328,206.25827 C112.2137,205.80336 111.504906,205.3781 111.16925,205.27063 C110.33009,205.002 108.40456,204.84422 107.525986,205.35103 C107.19126,205.54411 107.02483,205.82404 106.76814,206.12582 L106.76814,206.12582" /><path fill="none" stroke="#000000" stroke-width="0.06mm" d="M119.82665,205.48404 C119.6859,206.14825 119.5538,206.81439 119.40437,207.47668 C119.369934,207.6293 118.719185,209.7709 119.71187,206.88065 C119.78444,206.66937 119.903114,206.00801 119.86375,206.2279 C119.73616,206.9406 119.56468,207.64525 119.4471,208.35966 C119.435814,208.4282 119.45511,208.50038 119.47899,208.56564 C119.55777,208.78082 119.78227,208.86606 119.99055,208.89336 C122.49657,209.22182 125.0148,209.46204 127.51234,209.84978 C128.36064,209.98146 129.16841,210.31903 130.01683,210.4499 C130.09177,210.46146 129.98288,210.30214 129.9659,210.22826 C129.44658,209.82108 128.95157,209.38081 128.40796,209.00671 C128.11322,208.80388 127.79667,208.62427 127.45984,208.50365 C127.32271,208.45456 122.33307,206.3295 120.44255,206.5988 C120.14017,206.64186 119.84594,206.72997 119.54762,206.79553 L119.54762,206.79553" /><path fill="none" stroke="#000000" stroke-width="0.06mm" d="M144.61829,210.40916 C144.88889,210.97351 145.21408,211.51482 145.43008,212.10222 C145.89502,213.36658 146.24796,214.66937 146.65692,215.95294 C147.95715,219.2376 149.2899,222.50958 150.5576,225.80692 C154.84888,236.96877 152.38683,232.85437 155.2074,237.33691 L155.2074,237.33691" /><path fill="none" stroke="#000000" stroke-width="0.06mm" d="M146.3064,226.87277 C145.07083,225.2498 143.41388,223.76874 143.46513,221.61125 C143.48244,220.8834 143.77702,220.17441 143.50587,219.46387 C143.45876,219.3404 143.39424,219.22409 143.33083,219.10812 C142.70709,217.96765 142.04926,216.84567 141.44464,215.69496 C141.24216,215.30959 141.17265,214.75296 141.26343,214.32802 C141.41405,214.07498 141.32196,214.22072 141.54898,213.89722 L141.54898,213.89722" /><path fill="none" stroke="#000000" stroke-width="0.06mm" d="M141.8001,217.20389 C142.78351,218.81538 143.79997,220.4072 144.75034,222.0384 C145.7492,223.75288 144.88492,223.32211 146.82587,225.23166 C146.94987,225.35368 146.83769,224.88252 146.8166,224.70985 C146.5875,222.83318 146.3453,220.95789 146.07565,219.08661 C146.0392,218.83359 145.80283,218.54306 145.61105,218.39012 C144.50883,217.51117 143.62791,218.09218 142.46976,218.58514 L142.46976,218.58514" /><path fill="none" stroke="#000000" stroke-width="0.06mm" d="M119.24069,155.08865 C119.413376,155.40298 119.5675,155.72824 119.758766,156.03162 C120.08569,156.55014 120.84042,156.52856 121.31546,156.26921 C121.57617,156.12686 121.61782,156.04236 121.84561,155.81876 C122.2601,155.41187 122.676056,155.00647 123.09128,154.60034 L123.09128,154.60034" /><path fill="none" stroke="#000000" stroke-width="0.06mm" d="M115.79469,156.37225 C115.897285,156.02086 115.97276,155.66039 116.10246,155.31805 C116.1798,155.11392 116.29195,154.92319 116.41261,154.74126 C117.02569,153.81699 117.59215,153.5372 118.70422,153.58981 C118.94816,153.60138 119.19931,153.6154 119.42859,153.69946 C119.89656,153.87105 120.32643,154.13261 120.775345,154.3492 L120.775345,154.3492" /><path fill="none" stroke="#000000" stroke-width="0.06mm" d="M120.42656,177.4401 C120.65477,176.80415 120.88998,176.19484 121.44598,175.7738 C122.2432,175.17009 123.38565,174.27225 124.464714,174.8384 C125.1748,175.21095 125.37808,176.33125 125.647316,176.88432 C125.88932,177.38144 126.629555,177.18733 126.98419,176.98204 C127.196686,176.85904 127.41018,176.66455 127.55148,176.46452 C128.1237,175.65448 128.67043,174.82675 129.22989,174.00786 L129.22989,174.00786" /><path fill="none" stroke="#000000" stroke-width="0.06mm" d="M132.49452,191.75507 C132.76843,192.25156 133.39655,194.0527 134.321,194.07835 C134.94386,194.09563 135.79202,193.07372 135.93887,192.92825 C136.44258,192.42935 136.94502,191.65363 137.34961,191.0714 L137.34961,191.0714" /><path fill="none" stroke="#000000" stroke-width="0.06mm" d="M129.55078,195.03384 C129.71007,193.98795 129.82034,192.77039 130.67316,192.01575 C130.95697,191.7646 131.28595,191.53275 131.66907,191.47266 C132.37729,191.3616 133.77596,191.8717 134.09894,191.9504 L134.09894,191.9504" /><path fill="none" stroke="#000000" stroke-width="0.06mm" d="M139.45627,213.91116 C138.3196,214.69948 139.04301,214.43306 137.15428,214.1344 L137.15428,214.1344" /><path fill="none" stroke="#000000" stroke-width="0.06mm" d="M136.37302,212.9903 L136.3749,212.79686" /><path fill="none" stroke="#000000" stroke-width="0.06mm" d="M136.26138,212.40433 L136.27722,212.21088" /><path fill="none" stroke="#000000" stroke-width="0.06mm" d="M135.36852,210.28358 C135.88303,209.6857 136.419,208.97778 137.18619,208.6747 C138.15201,208.29315 139.2882,208.7605 139.95529,209.48788 C140.2817,209.84377 140.26372,210.00536 140.56451,210.42844 C140.82623,210.79654 141.2677,211.18576 141.7388,211.22891 C142.5713,211.30511 143.95702,210.03935 144.19974,209.87898 L144.19974,209.87898" /><path fill="none" stroke="#000000" stroke-width="0.06mm" d="M145.84601,231.1282 C145.84813,230.80603 145.8331,230.48332 145.85236,230.16173 C145.8944,229.46037 146.64764,228.98053 147.30197,229.03748 C147.54695,229.0588 147.81633,229.15459 148.03,229.26048 C148.72403,229.6044 149.46353,230.4585 149.90906,230.83853 C149.9766,230.89612 150.17398,230.93916 150.25717,230.94633 C150.93771,231.00516 151.74768,230.25749 152.17995,229.97015 L152.17995,229.97015" /><path fill="none" stroke="#000000" stroke-width="0.06mm" d="M108.22694,356.12555 L107.75446,355.31818" /><path fill="none" stroke="#000000" stroke-width="0.06mm" d="M107.59912,355.9581 L107.601,355.96002" /><path fill="none" stroke="#000000" stroke-width="0.06mm" d="M107.445656,357.2138 L107.44753,357.2157" /><path fill="none" stroke="#000000" stroke-width="0.06mm" d="M106.775986,357.49286 L107.59912,356.23718" /><path fill="none" stroke="#000000" stroke-width="0.06mm" d="M127.15898,253.35359 C128.53838,253.61191 129.89554,254.05875 131.29716,254.12854 C136.50595,254.38785 143.51266,253.51266 147.52652,249.75243 C147.62054,249.66437 149.63751,247.8572 150.04807,246.86972 C150.79106,245.08258 151.32788,243.66956 150.88411,241.76117 C150.72888,241.09367 150.1898,240.38739 149.8858,239.87576 L149.8858,239.87576" /><path fill="none" stroke="#000000" stroke-width="0.06mm" d="M169.96187,257.07883 L169.74054,256.46683" /><path fill="none" stroke="#000000" stroke-width="0.06mm" d="M156.44296,237.5876 C158.23459,242.50043 161.38509,246.89589 165.12616,250.51804 C167.25992,252.58398 169.73553,254.28148 171.83017,256.3871 C177.14413,261.72894 172.81392,258.43213 176.54512,263.25198 C179.04977,266.48743 183.29384,269.39917 186.32043,271.6745 C186.86662,272.08508 187.60678,272.0689 188.18774,272.38065 C189.71976,273.2027 191.16385,274.1796 192.67297,275.0429 C192.85458,275.1468 193.10002,274.98157 193.20433,274.84982 C193.34373,274.67377 193.66464,273.9484 193.66528,273.94705 L193.66528,273.94705" /><path fill="none" stroke="#000000" stroke-width="0.06mm" d="M167.57619,294.7498 C167.59616,289.33136 167.76254,292.2568 166.50076,284.70654 C166.21896,283.02032 165.6453,281.55008 166.74185,280.05856 C167.14397,279.5116 167.96106,279.05038 168.44217,278.77908 C169.6849,278.0783 171.37228,277.54 172.81161,277.56287 C175.86337,277.6114 175.51172,277.90106 178.0439,278.42374 C183.96062,279.64502 175.1215,277.25073 185.12332,280.64227 C186.12378,280.9815 187.90543,280.9533 188.79678,281.06772 C189.07816,281.10382 189.36754,281.16098 189.61623,281.2975 C191.05841,282.08893 192.43651,282.99194 193.84666,283.83914 L193.84666,283.83914" /><path fill="none" stroke="#000000" stroke-width="0.06mm" d="M198.64594,278.00714 L198.46645,277.79974" /><path fill="none" stroke="#000000" stroke-width="0.06mm" d="M158.91235,289.92233 C159.02612,288.1154 158.69992,286.77353 158.13109,285.13672 L158.13109,285.13672" /><path fill="none" stroke="#000000" stroke-width="0.06mm" d="M157.47536,295.62878 C157.94083,291.96912 159.31857,287.5632 158.16943,283.7403 C158.08856,283.47128 157.97511,283.21036 157.83612,282.9662 C157.04552,281.57733 156.26233,280.15515 155.00652,279.11548 C154.08865,278.3556 153.07361,277.72052 152.0828,277.05853 C151.90598,276.94043 151.70914,276.85187 151.50935,276.779 C151.30214,276.70343 151.08633,276.64795 150.86816,276.6155 C149.2248,276.37097 147.55157,276.3041 145.92859,275.94858 C144.33313,275.59906 142.76926,275.0953 141.24536,274.50757 C139.39693,273.79465 137.66962,272.7943 135.83182,272.0544 C134.2641,271.42325 134.08078,271.93857 132.35832,271.5512 C128.80768,270.75278 129.24298,270.15442 126.754395,270.34738 L126.754395,270.34738" /><path fill="none" stroke="#000000" stroke-width="0.06mm" d="M195.15808,284.3833 C196.97937,284.92487 197.78647,285.32544 198.08484,287.2763 C198.22148,288.16977 198.12006,289.0843 198.67279,289.8617 C199.1525,290.53635 200.0525,291.01474 200.85628,291.1486 C202.15363,291.36462 203.45242,291.57993 204.75964,291.72476 C206.02762,291.86523 205.31503,291.6649 205.9746,291.65347 C206.23828,291.64893 206.50195,291.66205 206.76566,291.66635 L206.76566,291.66635" /><path fill="none" stroke="#000000" stroke-width="0.06mm" d="M197.51588,275.76083 C198.62761,276.30927 199.35571,277.21573 200.22171,278.07092 C200.39026,278.2374 200.58649,278.37677 200.74002,278.5572 C201.15549,279.04538 201.62628,279.8023 201.82365,280.4022 C202.16977,281.45416 202.26843,283.47772 203.35594,284.34543 C204.19704,285.01654 205.43225,284.97003 206.42638,285.1395 C208.60358,285.51062 205.27046,285.11847 208.30031,285.42972 L208.30031,285.42972" /><path fill="none" stroke="#000000" stroke-width="0.06mm" d="M213.2112,285.20648 C213.78568,285.1213 214.34227,285.01984 214.8866,285.26184 C215.44337,285.50934 215.86334,285.96558 216.19217,286.4686 C216.80582,287.4074 217.16852,288.541 216.55006,289.56546 C215.83316,290.753 214.22292,291.36505 213.85165,292.58792 C213.65312,293.24182 214.00233,294.07648 214.10408,294.6242 L214.10408,294.6242" /><path fill="none" stroke="#000000" stroke-width="0.06mm" d="M213.01587,299.01917 L213.17122,299.78842" /><path fill="none" stroke="#000000" stroke-width="0.06mm" d="M154.40605,278.46756 C170.55888,277.41617 155.8915,278.19504 163.21362,278.06906 C164.18042,278.05243 165.14505,277.94495 166.11197,277.94952 C167.46773,277.95593 168.09132,278.12793 169.37592,278.3699 L169.37592,278.3699" /><path fill="none" stroke="#000000" stroke-width="0.06mm" d="M156.94522,275.78876 L156.93314,274.5489" /><path fill="none" stroke="#000000" stroke-width="0.06mm" d="M157.67068,274.70047 C158.81113,277.61285 158.21913,276.51385 159.17743,278.1327 L159.17743,278.1327" /><path fill="none" stroke="#000000" stroke-width="0.06mm" d="M161.35385,275.8864 L162.02353,278.6629" /><path fill="none" stroke="#000000" stroke-width="0.06mm" d="M164.03253,273.94705 C164.52524,276.7685 164.37932,275.47748 164.54874,277.81183 L164.54874,277.81183" /><path fill="none" stroke="#000000" stroke-width="0.06mm" d="M167.70175,275.67712 L167.84126,278.8861" /><path fill="none" stroke="#000000" stroke-width="0.06mm" d="M160.22379,277.01654 C158.96048,276.59198 159.67923,276.86447 158.08923,276.13754 L158.08923,276.13754" /><path fill="none" stroke="#000000" stroke-width="0.06mm" d="M157.04288,275.66318 L156.76572,275.59528" /><path fill="none" stroke="#000000" stroke-width="0.06mm" d="M156.17789,275.3423 L155.46825,274.99536" /><path fill="none" stroke="#000000" stroke-width="0.06mm" d="M155.98256,275.78876 L156.81964,277.7281" /><path fill="none" stroke="#000000" stroke-width="0.06mm" d="M148.37906,250.50735 C156.36946,250.91353 151.58685,251.01486 162.66528,249.15398 L162.66528,249.15398" /><path fill="none" stroke="#000000" stroke-width="0.06mm" d="M151.85295,253.53497 L152.22964,251.52585" /><path fill="none" stroke="#000000" stroke-width="0.06mm" d="M155.99652,253.66055 C156.18033,250.92683 155.94193,251.94699 156.33136,250.53525 L156.33136,250.53525" /><path fill="none" stroke="#000000" stroke-width="0.06mm" d="M158.96815,253.10245 C159.13553,249.69017 158.80293,251.11758 159.59598,248.74936 L159.59598,248.74936" /><path fill="none" stroke="#000000" stroke-width="0.06mm" d="M149.46725,255.05576 C149.61374,254.12413 149.7602,253.1925 149.90666,252.26088 C149.97116,252.05585 150.00763,251.83983 150.10013,251.64584 C150.28107,251.2664 150.51529,250.91473 150.72289,250.5492 L150.72289,250.5492" /><path fill="none" stroke="#000000" stroke-width="0.06mm" d="M162.79085,251.5398 L162.31651,248.84703" /><path fill="none" stroke="#000000" stroke-width="0.06mm" d="M156.51273,275.28644 L157.04288,277.63043" /><path fill="none" stroke="#000000" stroke-width="0.06mm" d="M173.91013,278.42572 C175.52676,264.25845 175.83913,269.30597 175.36105,263.31546 L175.36105,263.31546" /><path fill="none" stroke="#000000" stroke-width="0.06mm" d="M176.43532,269.66373 C177.13664,269.95798 177.78836,270.17136 178.54233,270.07965 C178.6041,270.07214 178.66315,270.04932 178.72214,270.02948 C178.9375,269.95712 179.15079,269.87866 179.36511,269.80322 L179.36511,269.80322" /><path fill="none" stroke="#000000" stroke-width="0.06mm" d="M175.41687,272.32858 L178.23505,271.93793" /><path fill="none" stroke="#000000" stroke-width="0.06mm" d="M173.84036,275.41202 C174.99203,275.79993 176.01305,275.73212 177.17474,275.57947 L177.17474,275.57947" /><path fill="none" stroke="#000000" stroke-width="0.06mm" d="M175.84937,277.82578 L177.7049,278.03503" /><path fill="none" stroke="#000000" stroke-width="0.06mm" d="M175.87726,269.53815 L179.83946,269.42654" /><path fill="none" stroke="#000000" stroke-width="0.06mm" d="M132.97672,258.51593 L134.3579,254.73488" /><path fill="none" stroke="#000000" stroke-width="0.06mm" d="M130.49336,271.84027 C130.98769,265.2803 130.52246,269.6596 133.50641,257.33936 C133.62202,256.86203 133.90063,256.6176 134.20444,256.2138 L134.20444,256.2138" /><path fill="none" stroke="#000000" stroke-width="0.06mm" d="M134.65088,257.95782 C135.52779,258.46558 137.31847,259.292 138.3876,259.01147 C138.6593,258.9402 138.91925,258.82996 139.18509,258.73914 L139.18509,258.73914" /><path fill="none" stroke="#000000" stroke-width="0.06mm" d="M131.46997,265.4641 C133.18066,265.37885 133.81932,265.20184 135.27283,265.46683 C135.5036,265.5089 135.72449,265.5942 135.9475,265.66705 C136.40555,265.81662 136.85956,265.97827 137.3156,266.13382 L137.3156,266.13382" /><path fill="none" stroke="#000000" stroke-width="0.06mm" d="M132.47446,269.76138 C134.84476,270.2826 133.48445,270.0385 136.57617,270.38925 L136.57617,270.38925" /><path fill="none" stroke="#000000" stroke-width="0.06mm" d="M137.53882,262.6039 C134.33946,261.92795 136.32388,262.48654 131.7769,260.3576 L131.7769,260.3576" /><path fill="none" stroke="#000000" stroke-width="0.06mm" d="M139.36646,256.6184 C135.54712,255.42386 137.24956,255.8177 134.3021,255.26505 L134.3021,255.26505" /><path fill="none" stroke="#000000" stroke-width="0.06mm" d="M150.03928,273.5564 C152.77974,260.59695 151.59605,265.22314 153.08067,259.54837 L153.08067,259.54837" /><path fill="none" stroke="#000000" stroke-width="0.06mm" d="M158.28455,259.93903 C156.86603,259.09268 157.20535,259.18213 155.46556,258.67828 C155.22836,258.60956 154.98349,258.54095 154.7366,258.5463 C154.4628,258.5522 154.20001,258.65625 153.9317,258.71124 L153.9317,258.71124" /><path fill="none" stroke="#000000" stroke-width="0.06mm" d="M157.93576,263.45496 L153.02487,262.9527" /><path fill="none" stroke="#000000" stroke-width="0.06mm" d="M157.54512,266.13382 C152.35257,266.05316 154.3111,266.43646 151.57393,265.77106 L151.57393,265.77106" /><path fill="none" stroke="#000000" stroke-width="0.06mm" d="M155.8291,269.39862 L150.24854,269.1754" /><path fill="none" stroke="#000000" stroke-width="0.06mm" d="M154.58743,271.04498 C150.08066,271.2256 151.84042,271.61664 149.18823,270.76596 L149.18823,270.76596" /><path fill="none" stroke="#000000" stroke-width="0.06mm" d="M154.47581,273.05414 C152.43008,272.7044 153.54114,272.94107 151.15538,272.2867 L151.15538,272.2867" /><path fill="none" stroke="#000000" stroke-width="0.06mm" d="M110.34755,259.71582 C110.205894,259.0602 110.029816,258.6512 110.08544,258.03723 C110.21208,256.63934 111.48337,255.25865 112.45144,254.3641 C112.88099,253.9672 113.814896,253.3648 114.396286,253.83482 C114.72652,254.10179 114.89452,254.62859 114.99019,255.00197 C115.49136,256.95816 114.512115,258.96545 113.64946,260.64722 C113.3791,261.17432 113.0387,261.6629 112.75761,262.18433 C112.64755,262.3885 112.56592,263.15958 112.76874,263.30145 C113.03306,263.48633 113.33103,263.61774 113.612175,263.7759 L113.612175,263.7759" /><path fill="none" stroke="#000000" stroke-width="0.06mm" d="M111.68688,270.65433 L111.01909,271.10266" /><path fill="none" stroke="#000000" stroke-width="0.06mm" d="M133.28365,303.1769 C149.0075,299.05722 142.13011,300.2544 153.75034,298.7401 L153.75034,298.7401" /><path fill="none" stroke="#000000" stroke-width="0.06mm" d="M153.58292,300.00977 C153.66159,299.56305 153.79178,299.22452 153.73282,298.80127 C153.62752,298.04547 152.91428,297.36868 152.45721,296.89468 C152.08054,296.50406 151.65128,296.16757 151.23816,295.8157 C151.02899,295.6375 150.32541,295.23474 150.59105,295.30505 C151.22273,295.4722 151.82674,295.7618 152.37544,296.11664 C153.5014,296.84476 154.52747,297.7171 155.58862,298.53677 C155.65707,298.58963 155.75049,298.76913 155.77972,298.84726 C156.20491,299.9832 154.54869,301.79346 153.87592,302.54907 L153.87592,302.54907" /><path fill="none" stroke="#000000" stroke-width="0.06mm" d="M102.18598,295.37766 C101.70445,295.909 101.22867,296.41095 101.5054,297.14835 C101.607956,297.42163 101.75808,297.6671 101.95538,297.88315 C102.90413,298.922 104.043236,298.85144 105.18261,298.18558 C105.46837,298.0186 105.9615,297.66302 106.17527,297.35873 C106.38847,297.05524 106.581055,296.73605 106.749054,296.40536 C106.98593,295.9391 107.159096,295.455 107.06843,294.9316 C106.80282,293.3984 105.91475,293.13596 104.53784,293.6089 C104.30029,293.69046 103.70595,293.969 103.63385,294.27423 C103.56621,294.56058 103.58939,294.86102 103.56717,295.1544 L103.56717,295.1544" /><path fill="none" stroke="#000000" stroke-width="0.06mm" d="M112.95646,292.9639 C112.17327,293.29678 111.37928,293.60532 110.60689,293.96252 C109.90924,294.2852 110.00346,294.79266 110.549385,295.19565 C110.722626,295.32352 110.90311,295.44452 111.09677,295.53867 C111.96699,295.96167 113.54347,296.30475 113.56767,297.57867 C113.58778,298.6381 112.86065,299.507 111.83754,299.75034 C111.63396,299.79877 111.37862,299.96335 111.21518,299.83267 C110.94419,299.61597 110.91579,299.20663 110.76609,298.89362 L110.76609,298.89362" /><path fill="none" stroke="#000000" stroke-width="0.06mm" d="M118.21614,298.99127 C117.65947,297.1715 117.87284,298.13586 117.61623,296.0892 L117.61623,296.0892" /><path fill="none" stroke="#000000" stroke-width="0.06mm" d="M116.01181,293.7313 C124.33516,292.1306 121.19905,292.47195 125.3453,292.08493 L125.3453,292.08493" /><path fill="none" stroke="#000000" stroke-width="0.06mm" d="M86.769684,310.64136 C87.12802,310.97955 87.47506,311.39807 87.986824,311.4936 C89.50461,311.7768 90.83813,310.1725 90.89941,308.75867 C90.92149,308.2492 90.59737,307.7319 90.411,307.3068 L90.411,307.3068" /><path fill="none" stroke="#000000" stroke-width="0.06mm" d="M90.45286,308.56247 C90.1983,308.42438 89.95212,308.26965 89.6892,308.14825 C88.98341,307.8224 88.71753,309.2998 88.639175,309.581 L88.639175,309.581" /><path fill="none" stroke="#000000" stroke-width="0.06mm" d="M89.32279,311.10178 C89.25889,312.3845 89.115974,313.6657 89.13109,314.94992 C89.13916,315.63593 89.2828,316.31415 89.39212,316.99146 C89.49213,317.611 89.768875,317.13016 89.88948,316.86935 C90.00068,316.6289 90.09765,316.38214 90.20173,316.13855 L90.20173,316.13855" /><path fill="none" stroke="#000000" stroke-width="0.06mm" d="M94.27554,308.52063 L94.41693,308.9829" /><path fill="none" stroke="#000000" stroke-width="0.06mm" d="M93.70353,316.89194 L95.93575,307.68347" /><path fill="none" stroke="#000000" stroke-width="0.06mm" d="M94.638275,313.3202 C100.17627,308.57242 98.005974,310.12183 100.776886,308.19974 L100.776886,308.19974" /><path fill="none" stroke="#000000" stroke-width="0.06mm" d="M96.17293,311.68777 C98.45944,316.4796 97.33266,314.72562 99.07482,317.2268 L99.07482,317.2268" /><path fill="none" stroke="#000000" stroke-width="0.06mm" d="M104.16708,316.6408 C104.60962,313.8621 104.307686,315.35947 105.14368,312.16214 L105.14368,312.16214" /><path fill="none" stroke="#000000" stroke-width="0.06mm" d="M105.9389,309.52518 C109.103035,309.3957 107.76836,309.59344 109.970856,309.14847 L109.970856,309.14847" /><path fill="none" stroke="#000000" stroke-width="0.06mm" d="M110.8219,309.53915 L109.42676,309.52518" /><path fill="none" stroke="#000000" stroke-width="0.06mm" d="M109.30119,309.55307 L108.89848,309.58286" /><path fill="none" stroke="#000000" stroke-width="0.06mm" d="M106.3714,309.9856 C104.73612,309.50092 105.72239,309.7471 103.3858,309.3717 L103.3858,309.3717" /><path fill="none" stroke="#000000" stroke-width="0.06mm" d="M108.88265,318.25925 L109.49651,316.86404" /><path fill="none" stroke="#000000" stroke-width="0.06mm" d="M126.05682,299.28424 L126.25402,298.5606" /><path fill="none" stroke="#000000" stroke-width="0.06mm" d="M123.8804,313.09695 C123.264824,313.9592 122.62209,314.80273 122.03367,315.68375 C121.88591,315.905 122.19566,316.12698 122.35664,316.1741 C122.65997,316.2629 122.967224,316.3471 123.280914,316.38574 C124.34691,316.5169 125.419846,316.58368 126.48931,316.68268 L126.48931,316.68268" /><path fill="none" stroke="#000000" stroke-width="0.06mm" d="M122.136475,311.29712 C124.5995,311.52533 124.36374,311.51642 126.614876,310.93433 L126.614876,310.93433" /><path fill="none" stroke="#000000" stroke-width="0.06mm" d="M130.8003,312.62256 C130.8602,312.42453 130.94722,311.89038 131.14996,311.63467 C131.35034,311.38193 131.68823,311.3187 131.99417,311.34177 C133.15063,311.4289 134.30476,311.54453 135.46005,311.6459 L135.46005,311.6459" /><path fill="none" stroke="#000000" stroke-width="0.06mm" d="M130.17249,318.52435 C130.24275,317.73926 130.31302,316.9541 130.3833,316.169 C130.37003,315.99072 130.38449,315.80814 130.34348,315.63412 C130.07907,314.51242 129.85443,314.0851 129.4191,313.0272 L129.4191,313.0272" /><path fill="none" stroke="#000000" stroke-width="0.06mm" d="M130.04692,316.40363 C134.92133,314.95486 132.76662,315.3342 136.43666,314.91074 L136.43666,314.91074" /><path fill="none" stroke="#000000" stroke-width="0.06mm" d="M130.63287,317.9523 C133.5808,317.42255 134.06708,317.07697 136.25528,317.47794 L136.25528,317.47794" /><path fill="none" stroke="#000000" stroke-width="0.06mm" d="M82.528465,325.054 C82.72522,326.1967 82.8822,327.347 83.11873,328.48212 C83.138664,328.5778 83.35163,329.63898 83.755005,329.72134 C84.17747,329.80762 84.76983,328.82632 84.86193,328.5529 C85.41909,326.89862 85.911964,325.2232 86.40837,323.5497 C86.49724,323.25012 86.42631,322.88327 86.61712,322.63577 C86.7078,322.5182 86.76988,322.89667 86.79974,323.04214 C86.87087,323.3886 86.914055,323.743 86.917046,324.09668 C86.92474,325.00626 86.82762,325.91458 86.83175,326.82416 C86.83374,327.2625 86.888535,327.7318 87.05632,328.14502 C87.266365,328.66226 88.072495,329.36075 88.6232,328.88098 C88.67815,328.83313 88.738434,328.78406 88.76851,328.71765 C89.64211,326.7896 90.44954,324.83197 91.33002,322.90707 C91.587814,322.34348 92.02863,321.93997 92.43395,321.4822 L92.43395,321.4822" /><path fill="none" stroke="#000000" stroke-width="0.06mm" d="M98.09822,323.9378 C97.684456,323.62903 97.15749,323.0978 96.57224,323.3253 C95.3343,323.80643 95.05234,325.31326 95.00364,326.47437 C94.95595,327.61136 95.204315,328.77902 96.29869,329.3306 C96.49124,329.42767 96.78082,329.52197 97.000015,329.52393 C98.50733,329.53735 98.53645,329.39386 99.96771,328.68158 L99.96771,328.68158" /><path fill="none" stroke="#000000" stroke-width="0.06mm" d="M103.03702,324.07733 C102.76229,325.18872 102.5203,326.30872 102.212845,327.41153 C102.122444,327.73578 101.9414,328.02945 101.84522,328.35202 C101.82864,328.40762 101.85358,328.47144 101.88168,328.52216 C102.136856,328.98282 103.7963,328.82828 103.93911,328.81885 C104.789276,328.76273 105.63504,328.65292 106.48302,328.56992 L106.48302,328.56992" /><path fill="none" stroke="#000000" stroke-width="0.06mm" d="M99.71658,323.11465 L99.99749,323.08862" /><path fill="none" stroke="#000000" stroke-width="0.06mm" d="M100.23279,323.11465 L104.66933,322.51468" /><path fill="none" stroke="#000000" stroke-width="0.06mm" d="M110.501015,329.42102 L110.54475,329.21362" /><path fill="none" stroke="#000000" stroke-width="0.06mm" d="M122.09462,329.81168 C121.96323,327.894 121.83183,325.9763 121.70045,324.0586 C121.626495,323.62082 121.49571,323.1889 121.47859,322.74527 C121.47635,322.68713 121.605515,322.73666 121.65085,322.7731 C122.178986,323.19763 121.70071,322.9874 122.07002,323.2154 C122.95964,323.76462 124.4823,322.49927 124.10592,321.52756 C124.00409,321.26468 123.79657,321.03815 123.57119,320.87433 C122.59502,320.16483 121.32097,321.0541 120.46231,321.4543 L120.46231,321.4543" /><path fill="none" stroke="#000000" stroke-width="0.06mm" d="M125.666176,325.27722 C125.60521,325.93307 125.453964,326.6231 125.75084,327.24374 C126.31955,328.43274 127.8826,328.83636 128.94641,328.05737 C129.40256,327.72336 129.55933,327.08008 129.63062,326.5584 C129.92233,324.4238 128.2581,324.37988 126.531166,324.48193 L126.531166,324.48193" /><path fill="none" stroke="#000000" stroke-width="0.06mm" d="M132.73953,328.56992 C133.24637,327.13812 133.75317,325.70633 134.26001,324.27454 C134.41182,324.00684 134.48569,323.67612 134.71545,323.4714 C134.79364,323.40173 134.81967,323.65817 134.83546,323.76172 C134.86542,323.95825 134.83014,324.1602 134.85059,324.3579 C134.86354,324.4833 134.93076,324.64557 135.03845,324.72464 C135.26422,324.89035 135.69449,324.71347 135.90732,324.69638 C136.71245,324.63165 137.34004,325.0253 137.49838,325.83206 C137.7389,327.05756 137.94388,328.28983 138.16663,329.51868 L138.16663,329.51868" /><path fill="none" stroke="#000000" stroke-width="0.06mm" d="M141.13828,328.79318 L141.02855,328.59973" /></g>
<g>
<line fill="none" stroke="#00aeef" stroke-width="0.05mm" stroke-dasharray="0.4,0.2" opacity="0.16" x1="81.00" y1="30.00" x2="28.58" y2="19.28" />
<line fill="none" stroke="#00aeef" stroke-width="0.05mm" stroke-dasharray="0.4,0.2" opacity="0.18" x1="81.00" y1="30.00" x2="20.65" y2="27.65" />
<line fill="none" stroke="#5674b9" stroke-width="0.05mm" stroke-dasharray="0.4,0.2" opacity="0.96" x1="81.00" y1="30.00" x2="72.99" y2="37.50" />
<line fill="none" stroke="#111111" stroke-width="0.05mm" x1="81.00" y1="30.00" x2="108.68" y2="84.73" />
<line fill="none" stroke="#00aeef" stroke-width="0.05mm" stroke-dasharray="0.4,0.2" opacity="0.15" x1="108.68" y1="84.73" x2="97.61" y2="102.31" />
<line fill="none" stroke="#00aeef" stroke-width="0.05mm" stroke-dasharray="0.4,0.2" opacity="0.83" x1="108.68" y1="84.73" x2="116.53" y2="86.17" />
<line fill="none" stroke="#00aeef" stroke-width="0.05mm" stroke-dasharray="0.4,0.2" opacity="0.89" x1="108.68" y1="84.73" x2="100.18" y2="86.59" />
<line fill="none" stroke="#111111" stroke-width="0.05mm" x1="108.68" y1="84.73" x2="114.35" y2="136.26" />
<line fill="none" stroke="#00aeef" stroke-width="0.05mm" stroke-dasharray="0.4,0.2" opacity="0.11" x1="114.35" y1="136.26" x2="109.13" y2="137.37" />
<line fill="none" stroke="#5674b9" stroke-width="0.05mm" stroke-dasharray="0.4,0.2" opacity="0.24" x1="114.35" y1="136.26" x2="111.84" y2="137.35" />
<line fill="none" stroke="#00aeef" stroke-width="0.05mm" stroke-dasharray="0.4,0.2" opacity="0.54" x1="114.35" y1="136.26" x2="118.55" y2="138.77" />
<line fill="none" stroke="#111111" stroke-width="0.05mm" x1="114.35" y1="136.26" x2="139.51" y2="209.14" />
<line fill="none" stroke="#00aeef" stroke-width="0.05mm" stroke-dasharray="0.4,0.2" opacity="0.14" x1="139.51" y1="209.14" x2="140.03" y2="211.17" />
<line fill="none" stroke="#00aeef" stroke-width="0.05mm" stroke-dasharray="0.4,0.2" opacity="0.30" x1="139.51" y1="209.14" x2="101.62" y2="207.33" />
<line fill="none" stroke="#5674b9" stroke-width="0.05mm" stroke-dasharray="0.4,0.2" opacity="0.13" x1="139.51" y1="209.14" x2="142.67" y2="210.99" />
<line fill="none" stroke="#5674b9" stroke-width="0.05mm" stroke-dasharray="0.4,0.2" opacity="0.80" x1="139.51" y1="209.14" x2="149.12" y2="240.12" />
<line fill="none" stroke="#5674b9" stroke-width="0.05mm" stroke-dasharray="0.4,0.2" opacity="0.81" x1="139.51" y1="209.14" x2="149.22" y2="239.69" />
<line fill="none" stroke="#5674b9" stroke-width="0.05mm" stroke-dasharray="0.4,0.2" opacity="0.81" x1="139.51" y1="209.14" x2="149.46" y2="240.08" />
<line fill="none" stroke="#00aeef" stroke-width="0.05mm" stroke-dasharray="0.4,0.2" opacity="0.94" x1="139.51" y1="209.14" x2="147.88" y2="205.42" />
<line fill="none" stroke="#00aeef" stroke-width="0.05mm" stroke-dasharray="0.4,0.2" opacity="0.08" x1="139.51" y1="209.14" x2="140.88" y2="207.39" />
<line fill="none" stroke="#5674b9" stroke-width="0.05mm" stroke-dasharray="0.4,0.2" opacity="0.28" x1="139.51" y1="209.14" x2="146.40" y2="203.98" />
<line fill="none" stroke="#111111" stroke-width="0.05mm" x1="139.51" y1="209.14" x2="152.30" y2="243.16" />
<line fill="none" stroke="#5674b9" stroke-width="0.05mm" stroke-dasharray="0.4,0.2" opacity="0.14" x1="152.30" y1="243.16" x2="155.88" y2="246.05" />
<line fill="none" stroke="#5674b9" stroke-width="0.05mm" stroke-dasharray="0.4,0.2" opacity="0.36" x1="152.30" y1="243.16" x2="185.77" y2="277.35" />
<line fill="none" stroke="#5674b9" stroke-width="0.05mm" stroke-dasharray="0.4,0.2" opacity="0.83" x1="152.30" y1="243.16" x2="169.11" y2="264.75" />
<line fill="none" stroke="#5674b9" stroke-width="0.05mm" stroke-dasharray="0.4,0.2" opacity="0.91" x1="152.30" y1="243.16" x2="168.86" y2="278.05" />
<line fill="none" stroke="#111111" stroke-width="0.05mm" x1="152.30" y1="243.16" x2="159.49" y2="294.85" />
</g>
<g>
<circle cx="81.00" cy="30.00" r="0.1" fill="#111111" />
<circle cx="108.68" cy="84.73" r="0.1" fill="#111111" />
<circle cx="114.35" cy="136.26" r="0.1" fill="#111111" />
<circle cx="139.51" cy="209.14" r="0.1" fill="#111111" />
<circle cx="152.30" cy="243.16" r="0.1" fill="#111111" />
<circle cx="159.49" cy="294.85" r="0.1" fill="#111111" />
</g>
<g>
<text x="81.20" y="30.00" font-size=".2mm" fill="#000000">0</text>
<text x="108.88" y="84.73" font-size=".2mm" fill="#000000">1</text>
<text x="114.55" y="136.26" font-size=".2mm" fill="#000000">2</text>
<text x="139.71" y="209.14" font-size=".2mm" fill="#000000">3</text>
<text x="152.50" y="243.16" font-size=".2mm" fill="#000000">4</text>
<text x="159.69" y="294.85" font-size=".2mm" fill="#000000">5</text>
</g>
<g>
</g>
</g>
</svg>