<?xml version="1.0" encoding="utf-8"?>
<!DOCTYPE svg PUBLIC "-//W3C//DTD SVG 1.1//EN" "http://www.w3.org/Graphics/SVG/1.1/DTD/svg11.dtd">
<svg version="1.1" id="Layer_1" xmlns="http://www.w3.org/2000/svg" xmlns:xlink="http://www.w3.org/1999/xlink" x="0px" y="0px" width="285mm" height="158mm" viewBox="0 0 285 158" style="background-color:#ffffff;enable-background:new 0 0 285 158;" xml:space="preserve">
<symbol id="entrance" viewBox="0 0 24 24">
<path d="M7.54,21h8.92L12,3l-4.46,18Z"/>
</symbol>
<symbol id="tree" viewBox="0 0 24 24">
<path d="M22.569,11.107c0,2.375-1.925,4.3-4.3,4.3-.755,0-1.497-.2-2.15-.58h0l-3.362,3.549.225,5.624h-2.594l.437-6.77h0l-2.771-3.23c-.692.449-1.498.688-2.323.689-2.375,0-4.3-1.925-4.3-4.3.003-2.12,1.55-3.921,3.645-4.244-.277-.576-.42-1.206-.421-1.845C4.655,1.925,6.58,0,8.955,0c1.508,0,2.906.792,3.681,2.086.773-.654,1.752-1.013,2.764-1.013,2.375,0,4.3,1.925,4.3,4.3.002.543-.1,1.082-.3,1.587,1.87.51,3.168,2.208,3.169,4.147ZM10.93,15.628l.135-2.087c-.638-.114-1.241-.371-1.765-.753-.186.274-.403.525-.646.75h0l2.276,2.09ZM15.378,14.279c-.453-.411-.813-.913-1.057-1.474-.523.376-1.124.629-1.758.739l.127,3.156,2.688-2.421Z"/>
</symbol>
<symbol id="vegetation" viewBox="0 0 24 24">
<path d="M11.876,18.239l-.137-12.468.785-.009.137,12.468-.785.009ZM10.188,18.017l-.776-.112.864-5.975-5.276-5.55.569-.54,5.537,5.825-.918,6.352ZM14.647,17.769l-.783-.031.28-6.978,4.41-3.057.446.644-4.087,2.834-.265,6.587Z"/>
</symbol>
<symbol id="rock_1" viewBox="0 0 24 24">
<polygon points="1.929 9.314 6.855 23 22.071 17.31 18.692 2.849 7.931 1 1.929 9.314" opacity=".5"/>
</symbol>
<symbol id="rock_2" viewBox="0 0 24 24">
<polygon points="19 6.323 6.823 7.393 5 14.833 18.033 17.677 19 6.323" opacity=".5"/>
</symbol>
<symbol id="rock_3" viewBox="0 0 24 24">
<path d="M9.897,16c1.78.022,4.556-.897,5.532-2.509,1.444-2.379-.379-6.067-2.573-5.415-4.967,1.482-6.303,7.877-2.959,7.924Z" opacity=".5"/>
</symbol>
<symbol id="rock_pebble" viewBox="0 0 24 24">
<path d="M12.072,10.113c-.742.06-1.561.609-1.866,1.238-1.041,2.141,2.138,3.095,3.36,2.218.929-.667.225-2.828-.799-3.338-.209-.104-.447-.138-.695-.118Z" opacity=".5"/>
</symbol>
<symbol id="camp" viewBox="0 0 24 24">
<path d="M12,4.92l-5.71,13.13h-2.64v.5l16.7-.07v-.48h-2.35l-4.89-11.61,3.31-.91-3.88-.48-.05-.08-.24-.58-.25.58ZM17.44,18h-1.07l-2.08-5-2.09-5-2.13,5-2.07,5h-1.13l5.38-12.34,5.19,12.34Z"/>
</symbol>
<symbol id="human" viewBox="0 0 24 24">
<path d="M6.91,12c-.008,1.264.541,2.467,1.5,3.29.974.905,2.261,1.396,3.59,1.37,1.329.026,2.616-.465,3.59-1.37.959-.823,1.508-2.026,1.5-3.29.008-1.264-.541-2.467-1.5-3.29-.974-.905-2.261-1.396-3.59-1.37-1.329-.026-2.616.465-3.59,1.37-.959.823-1.508,2.026-1.5,3.29ZM11.5,12.05l-2.8,2.52c-.659-.691-1.019-1.615-1-2.57-.002-.935.352-1.836.99-2.52l2.81,2.57ZM14.91,9.1c.789.62,1.285,1.54,1.37,2.54h-4.12l-2.91-2.64c.785-.614,1.754-.946,2.75-.94,1.064-.018,2.099.351,2.91,1.04ZM16.28,12.46c-.128.979-.634,1.869-1.41,2.48-.806.666-1.825,1.021-2.87,1-.971.015-1.92-.291-2.7-.87l2.86-2.61h4.12Z"/>
</symbol>
<symbol id="bones" viewBox="0 0 24 24">
<path d="M14.896,17.083h-.369c-.043.011-.088.011-.131,0l-.119-.071c-.043-.037-.08-.081-.107-.131l-.095-.155c-.027-.058-.051-.118-.071-.178l-.083-.202s0-.131-.095-.226-.071-.19-.095-.25c-.126-.294-.278-.576-.452-.845-.214-.345-.511-.761-.88-1.19-.377-.513-.79-.998-1.237-1.451-.468-.441-.987-.825-1.546-1.142-.527-.311-1.108-.521-1.713-.619-.814.019-1.553-.47-1.856-1.225-.017-.098-.017-.199,0-.297-.017-.114-.017-.231,0-.345.019-.12.073-.232.155-.321.113-.108.26-.171.416-.178l.619-.083h.547c.111.004.222-.02.321-.071.146-.065.261-.185.321-.333.079-.109.132-.236.155-.369.029-.118.091-.225.178-.309.097-.096.222-.158.357-.178.182-.054.377-.054.559,0,.175.123.318.286.416.476.275.423.514.869.714,1.332.143.333.274.619.393.856.13.242.285.469.464.678l.452.559c.217.188.447.359.69.511.333.214.607.393.821.511l1.19.666c.143.11.299.202.464.274.187.09.37.189.547.297l.511.309c.191.105.374.225.547.357l.428.345c.135.115.259.242.369.381.113.112.202.246.262.393.238.571,0,.928-.559,1.082h0c-.446.006-.891.042-1.332.107-.217.118-.391.301-.5.523-.15.244-.382.425-.654.511Z"/>
</symbol>
<symbol id="rats" viewBox="0 0 24 24">
<path d="M20.273,11.523c-.945.086-1.649,1.057-2.33,1.995l-.274.374c-.523.71-2.207.752-3.041.699-.139-1.002-.841-4.825-3.46-4.825-.552,0-1.082.063-1.598.158.069-.157.125-.327.125-.512,0-.254-.121-.45-.332-.538-.359-.149-.866.08-1.161.374-.322.324-.388.873-.398,1.178-3.359,1.303-5.553,4.105-5.671,4.259l-.35.457h12.582c.107.011.415.038.824.038.927,0,2.343-.143,2.937-.949l.277-.379c.606-.836,1.233-1.7,1.921-1.763.341-.031.685.131,1.066.495l.392-.411c-.501-.477-1.009-.698-1.509-.65ZM8.604,9.649c.209-.208.479-.277.523-.238,0,.266-.215.557-.336.691-.132.036-.267.066-.396.107.028-.21.086-.437.209-.56ZM2.974,14.572c1.064-1.18,4.205-4.239,8.195-4.239,2.058,0,2.722,3.211,2.882,4.239H2.974Z"/>
<path d="M6.535,12.701c-.277,0-.504.225-.504.501,0,.282.226.511.504.511s.501-.23.501-.511c0-.277-.225-.501-.501-.501Z"/>
</symbol>
<symbol id="fossil" viewBox="0 0 24 24">
<path d="M19,12.601c-.105-1.951-1.013-3.829-2.491-5.154-1.438-1.286-3.26-1.925-5.131-1.83-1.793.105-3.515.95-4.723,2.316-1.169,1.323-1.752,2.991-1.643,4.697.103,1.632.878,3.193,2.125,4.284,1.099.961,2.458,1.477,3.863,1.477.136,0,.273-.004.41-.014,1.475-.103,2.88-.812,3.856-1.946.828-.961,1.252-2.14,1.269-3.358.131-.19.501-.653.817-.756.289-.093.837.049,1.121.162.004.05.013.099.016.149l.51-.028ZM18.287,11.319l-.674-.294-.397-.346-.393-.135.169-.156.378.135.484-.361-.377-.753-.922.125.075-.397.375.032-.04-.487c.622.78,1.077,1.68,1.322,2.637ZM16.715,8.381l-.58.196-.358.306-.178-.118-.15-.356-.091-.271.354-.268-.187-.536-.094-.072c.255.173.503.357.737.567.194.174.374.36.546.552ZM14.018,7.087l.031-.548c.309.117.61.259.902.423l-.251.417-.328.329-.408-.023-.002-.32.055-.279ZM13.143,6.272l-.442.219.03.527.092.35-.222.132-.098-.099.164-.187-.324-.295-.498-.194.2-.27-.022-.33c.378.015.752.068,1.12.149ZM9.894,6.419l.597.374.319.208-.126.25-.393.373-.489-.076-.334-.229-.713-.257-.217-.032c.427-.257.883-.459,1.356-.61ZM8.086,7.331l-.013.261.315.395-.186.491-.684.172-.478-.378c.314-.355.668-.667,1.047-.941ZM6.495,8.993l.186.212.263.398.126.417.026.635-.608.228-.616.311-.324.711.709.092.172.346-.423.45-.267.589.367.957.547-.317.387.316-.076.637-.465.44c-.566-.837-.914-1.811-.977-2.818-.082-1.276.264-2.527.973-3.606ZM6.541,15.477l.623.235.919-.055.14.026-.439.165-.097.594.527.621c-.256-.159-.508-.329-.741-.533-.357-.312-.666-.67-.933-1.054ZM9.131,17.309l.272.313c-.354-.114-.699-.261-1.028-.45l.456-.458.28-.328.271-.018.017.175-.414.281.147.485ZM11.375,17.868c-.531.04-1.056-.03-1.57-.152l.332-.127.137-.594.493-.135-.128.384.222.322.414.142.163.15c-.021.002-.042.009-.063.011ZM12.556,17.394l.662-.029c-.41.199-.848.325-1.296.408l.156-.329-.335-.573.363-.315.215-.22v.1l-.171.515.406.442ZM14.879,16.099c-.303.352-.663.64-1.044.895l-.088-.359v-.445l-.278-.165.244-.261.021.349.556.317.214-.876.144-.414.378-.029.176-.554.258-.404.462-.231-.15-.885-.181-.448-.055-.859-.106-.886-.005-.089c.337.577.559,1.216.612,1.883.099,1.25-.311,2.48-1.158,3.464ZM14.13,9.343c.106.074.217.135.317.22.263.222.489.478.692.75l-.341.182-.347-.093-.239-.407.086-.471-.169-.179ZM17.194,11.834c-.259.084-.504.288-.698.489-.167-1.212-.771-2.35-1.719-3.151-.972-.82-2.184-1.214-3.407-1.1-1.158.106-2.248.688-2.991,1.595-.701.855-1.023,1.912-.911,2.976.106.997.621,1.928,1.412,2.556.738.586,1.649.843,2.546.732.844-.11,1.621-.563,2.131-1.244.466-.621.659-1.371.543-2.113-.11-.676-.512-1.31-1.075-1.695-.507-.347-1.105-.473-1.683-.349-.522.107-.995.445-1.264.902-.231.395-.287.842-.155,1.261.119.371.438.706.794.834.281.101.571.069.812-.086.209-.132.391-.497.312-.769-.056-.194-.224-.31-.448-.31l.015.511c-.024-.005-.055-.039-.058-.062.006.046-.053.17-.096.201-.112.071-.234.082-.365.036-.208-.075-.41-.288-.479-.507-.113-.357-.003-.659.108-.848.193-.331.549-.584.928-.662.443-.092.9.003,1.29.271.449.308.77.815.858,1.355.095.603-.063,1.216-.446,1.726-.428.572-1.08.952-1.787,1.044-.761.092-1.535-.127-2.165-.626-.247-.196-.45-.435-.63-.69l.448-.39-.1-.116-.368.32-.181-.688.279-.52-.209-.501-.241-.434.368-.347.378-.431.019-.021v-.407l.321-.369.605-.221.166-.39-.231-.36.331-.27.237.526.542-.277.033-.45-.153-.011-.026.364-.322.164-.178-.394c.362-.153.739-.269,1.133-.305.803-.071,1.6.103,2.312.492l-.578.05-.091.439-.047.337-.231-.1.046-.427.084-.43-.149-.03-.086.437-.06.545.521.225.072-.53.067-.323.528-.046.331.353-.076.422-.004.028.299.511.467.125.405-.217c.012.017.023.036.034.053l.02.36.106.886.055.867.186.469.127.758-.398.2-.285.448-.156.484-.375.029-.18.514-.167.686-.308-.174-.037-.622-.619.66.368.218.002.375.072.299-.426.26-.622.026-.297-.323.147-.442.004-.511-.473.483-.455.395.36.612-.168.354c-.037.005-.073.014-.11.019l-.261-.241-.409-.146-.149-.218.194-.583-.857.236-.139.603-.398.151-.336-.378-.109-.361.397-.268-.041-.412-.482.031-.318.373-.371.372-.498-.586.072-.435.863-.325-.691-.131-.906.053-.438-.165.361-.342.092-.776-.535-.437-.482.28-.281-.728.223-.499.486-.52-.257-.513-.584-.076.216-.474.559-.283.704-.265-.032-.755-.135-.455-.285-.436-.221-.252c.065-.093.133-.184.204-.275l.199-.161.497.392.834-.211.246-.645-.332-.419.015-.319c.033-.023.066-.046.099-.068l.375.055.672.241.34.234.612.103.457-.434.209-.404-.84-.537.241-.133c.328-.075.661-.13.998-.15.154-.009.308-.006.462-.003l.019.283-.288.388.65.245.202.185-.159.182.283.284.425-.251-.12-.446-.022-.41.521-.259c.146.038.291.083.434.131l.079.105-.027.506-.055.283v.479l.621.035.389-.391.201-.334.374.288.136.388-.353.266.128.382.17.404.313.208.409-.358.599-.202.04.488-.332-.028-.14.74,1.024-.138.27.54-.316.235-.387-.139-.43.395.601.197.394.344.803.354c.031.139.064.277.087.418-.309-.095-.827-.215-1.219-.087ZM9.637,9.233l.241.374-.108.255-.562.205-.403.448v.407l-.354.404-.449.423.295.529.178.426-.273.509.151.572c-.201-.37-.332-.777-.377-1.199-.099-.927.185-1.849.798-2.597.246-.301.545-.545.865-.758Z"/>
</symbol>
<symbol id="?" viewBox="0 0 24 24">
<path d="M9.6,8.179c.589-.177,1.201-.266,1.838-.266.959,0,1.693.208,2.201.623s.762.965.762,1.65c0,.661-.197,1.167-.592,1.518-.395.351-.951.526-1.669.526-.25,0-.488-.02-.714-.061v1.378h-.677v-1.898h.677c.75,0,1.288-.103,1.614-.308s.49-.59.49-1.155c0-1.015-.697-1.523-2.092-1.523-.621,0-1.233.101-1.838.302v-.786ZM10.513,15.923c-.149-.109-.224-.268-.224-.478s.073-.37.218-.483.346-.169.604-.169c.25,0,.449.056.598.169s.224.274.224.483c0,.202-.077.359-.23.472-.153.113-.351.169-.593.169-.25,0-.449-.054-.598-.163Z"/>
</symbol>
<symbol id="pit" viewBox="0 0 24 24">
<path d="M14.01,11.604v.792h-4.02v-.792h4.02Z"/>
<path d="M12,17.32c-2.934,0-5.32-2.386-5.32-5.32s2.386-5.32,5.32-5.32,5.32,2.386,5.32,5.32-2.386,5.32-5.32,5.32ZM12,7.32c-2.581,0-4.68,2.1-4.68,4.68s2.1,4.68,4.68,4.68,4.68-2.1,4.68-4.68-2.1-4.68-4.68-4.68Z"/>
</symbol>
<symbol id="chimney" viewBox="0 0 24 24">
<path d="M14.88,12.396h-2.484v2.772h-.78v-2.772h-2.496v-.792h2.496v-2.772h.78v2.772h2.484v.792Z"/>
<path d="M12,17.32c-2.934,0-5.32-2.386-5.32-5.32s2.386-5.32,5.32-5.32,5.32,2.386,5.32,5.32-2.386,5.32-5.32,5.32ZM12,7.32c-2.581,0-4.68,2.1-4.68,4.68s2.1,4.68,4.68,4.68,4.68-2.1,4.68-4.68-2.1-4.68-4.68-4.68Z"/>
</symbol>
<symbol id="narrow_horizontal" viewBox="0 0 24 24">
<path d="M17,10.5H7v.64h10v-.64Z"/>
<path d="M17,12.86H7v.64h10v-.64Z"/>
</symbol>
<symbol id="narrow_vertical" viewBox="0 0 24 24">
<path d="M10.5,7v10h.64V7h-.64Z"/>
<path d="M12.86,7v10h.64V7h-.64Z"/>
</symbol>
<symbol id="narrow" viewBox="0 0 24 24">
<path d="M17,11.14v-.64h-3.5v-3.5h-.64v3.5h-1.72v-3.5h-.64v3.5h-3.5v.64h3.5v1.72h-3.5v.64h3.5v3.5h.64v-3.5h1.72v3.5h.64v-3.5h3.5v-.64h-3.5v-1.72h3.5ZM12.86,12.86h-1.72v-1.72h1.72v1.72Z"/>
</symbol>
<symbol id="clay" viewBox="0 0 24 24">
<path d="M13.85,10.67c.592-.008,1.173.159,1.67.48.403.255.745.597,1,1l.29.51-1,.43c-.069-.138-.145-.271-.23-.4-.187-.257-.405-.489-.65-.69-.316-.221-.695-.334-1.08-.32-.373-.031-.749.02-1.1.15-.103.083-.185.19-.24.31-.118.279-.292.531-.51.74-.429.287-.934.437-1.45.43-1.025.137-2.052-.237-2.75-1-.138-.18-.262-.37-.37-.57-.08-.152-.15-.309-.21-.47v-.16l1-.22c.083.296.237.568.45.79.467.497,1.144.739,1.82.65.284.002.565-.063.82-.19l.21-.36c.122-.326.351-.602.65-.78.527-.238,1.102-.351,1.68-.33Z"/>
</symbol>
<symbol id="sand" viewBox="0 0 24 24">
<path d="M10.42,12.83c.23.2.35.44.36.73s-.08.54-.28.75c-.2.21-.46.32-.78.33s-.6-.08-.83-.26c-.25-.19-.38-.43-.39-.71-.01-.29.09-.55.3-.77s.48-.34.8-.35c.32-.01.59.09.82.28Z"/>
<path d="M12.08,9.64c.23.2.35.44.36.73s-.08.54-.28.75c-.2.21-.46.32-.78.33-.32.01-.59-.07-.83-.26s-.37-.42-.38-.71.09-.54.3-.76.48-.33.8-.35c.31-.02.59.07.81.27Z"/>
<path d="M15.12,12.55c.23.2.35.43.38.71.02.28-.07.53-.28.75-.22.22-.49.34-.8.35-.32.01-.6-.08-.84-.28-.24-.2-.36-.44-.38-.73-.01-.29.09-.54.3-.75.22-.2.49-.31.8-.32s.59.08.82.27Z"/>
</symbol>
<symbol id="floor_flowstone" viewBox="0 0 24 24">
<rect x="6" y="11.79" width="12" height=".42"/>
</symbol>
<symbol id="snow" viewBox="0 0 24 24">
<path d="M16.885,14.555l-.985-.569.596-.16c.122-.033.195-.159.162-.281s-.159-.195-.281-.162l-1.039.278-.853-.492,1.402-.376c.122-.033.195-.159.162-.281s-.159-.195-.281-.162l-1.845.494-1.463-.845,1.454-.84,2.011.684c.025.008.049.012.074.012.096,0,.185-.06.217-.156.041-.12-.023-.25-.143-.291l-1.63-.555.887-.512,1.133.385c.025.008.049.012.074.012.096,0,.185-.06.217-.156.041-.12-.023-.25-.143-.291l-.752-.256,1.027-.593c.11-.063.147-.204.084-.314-.063-.11-.204-.147-.314-.084l-.985.569.16-.596c.033-.122-.04-.248-.162-.281-.123-.033-.248.04-.281.162l-.278,1.039-.853.492.376-1.402c.033-.123-.04-.248-.162-.281-.123-.033-.248.04-.281.162l-.494,1.845-1.463.845v-1.679l1.598-1.4c.095-.084.105-.229.021-.324-.084-.095-.229-.105-.324-.021l-1.296,1.135v-1.025l.9-.788c.095-.084.105-.229.021-.324-.084-.095-.229-.105-.324-.021l-.598.523v-1.186c0-.127-.103-.23-.23-.23s-.23.103-.23.23v1.138l-.436-.436c-.09-.09-.235-.09-.325,0-.09.09-.09.235,0,.325l.761.761v.985l-1.026-1.026c-.09-.09-.235-.09-.325,0-.09.09-.09.235,0,.325l1.351,1.351v1.689l-1.454-.84-.413-2.084c-.025-.124-.145-.205-.27-.181-.124.025-.205.145-.181.27l.335,1.689-.887-.512-.233-1.174c-.025-.124-.145-.205-.27-.181-.124.025-.205.145-.181.27l.154.779-1.027-.593c-.11-.063-.25-.026-.314.084-.063.11-.026.25.084.314l.985.569-.596.16c-.123.033-.195.159-.162.281.027.103.12.17.222.17.02,0,.04-.003.06-.008l1.039-.278.853.492-1.402.376c-.123.033-.195.159-.162.281.027.103.12.17.222.17.02,0,.04-.003.06-.008l1.845-.494,1.463.845-1.454.84-2.011-.684c-.12-.041-.25.023-.291.143-.041.12.023.25.143.291l1.63.555-.887.512-1.133-.385c-.12-.041-.25.023-.291.143-.041.12.023.25.143.291l.752.256-1.027.593c-.11.063-.147.204-.084.314.043.074.12.115.199.115.039,0,.078-.01.115-.031l.985-.569-.16.596c-.033.122.04.248.162.281.02.005.04.008.06.008.101,0,.194-.068.222-.17l.278-1.039.853-.492-.376,1.402c-.033.122.04.248.162.281.02.005.04.008.06.008.101,0,.194-.068.222-.17l.494-1.845,1.463-.845v1.679l-1.598,1.4c-.095.084-.105.229-.021.324.045.052.109.078.173.078.054,0,.108-.019.151-.057l1.296-1.135v1.025l-.9.788c-.095.084-.105.229-.021.324.045.052.109.078.173.078.054,0,.108-.019.151-.057l.598-.523v1.186c0,.127.103.23.23.23s.23-.103.23-.23v-1.138l.436.436c.09.09.235.09.325,0,.09-.09.09-.235,0-.325l-.761-.761v-.985l1.026,1.026c.09.09.235.09.325,0,.09-.09.09-.235,0-.325l-1.351-1.351v-1.689l1.454.84.413,2.084c.022.109.118.185.225.185.015,0,.03-.001.045-.004.124-.025.205-.146.181-.27l-.335-1.689.887.512.233,1.174c.022.109.118.185.225.185.015,0,.03-.001.045-.004.124-.025.205-.146.181-.27l-.154-.779,1.027.593c.036.021.076.031.115.031.079,0,.157-.041.199-.115.063-.11.026-.25-.084-.314Z"/>
</symbol>
<symbol id="guano" viewBox="0 0 24 24">
<path d="M8.76,9c.576-.035,1.142.163,1.57.55.69.726,1.076,1.688,1.08,2.69.54-1.129,1.543-1.968,2.75-2.3.76-.214,1.576-.083,2.23.36.658.41,1.073,1.116,1.11,1.89h-.79c-.025-.558-.32-1.069-.79-1.37-.46-.295-1.023-.382-1.55-.24-.774.242-1.442.744-1.89,1.42-.631.889-1.032,1.919-1.17,3l-.79-.09c.156-1.048.156-2.112,0-3.16-.064-.645-.322-1.255-.74-1.75-.322-.261-.741-.37-1.15-.3-.601.105-1.163.367-1.63.76l-.5-.55c.576-.472,1.266-.785,2-.91.086-.013.174-.013.26,0Z"/>
</symbol>
<symbol id="gradient" viewBox="0 0 24 24">
<path d="M14.58,8.17l-2.58-6.17-2.58,6.17c.729-.435,1.561-.666,2.41-.67v14.5h.42V7.5c.811.079,1.601.306,2.33.67Z"/>
</symbol>
<symbol id="airflow" viewBox="0 0 24 24">
<path d="M7.62,22.73l4.2-3.84v-3.34l-3.89,3.58-.31-.29,4.2-3.84V5.11c-.597.025-1.177.208-1.68.53l1.68-4.15.18-.49.21.51h0l1.65,4.1c-.486-.307-1.045-.479-1.62-.5v14h-.08l-4.23,3.89-.31-.27Z"/>
</symbol>
<symbol id="water" viewBox="0 0 24 24">
<path d="M10.28,2.14l3.83,5.54-1.73.26c.075.303.172.601.29.89.114.247.159.52.13.79-.045.331-.226.628-.5.82h0c-.84.62-1.3,1.14-1.3,1.61s.24.89.92,1.27h0c.77.48,1.17,1,1.19,1.49s-.4,1.13-1.31,1.68c-.75.43-1.13.81-1.15,1.15-.013.164.054.324.18.43.216.238.474.434.76.58.376.152.717.38,1,.67.217.243.323.566.29.89-.04.54-.46,1.09-1.29,1.65l-.44-.55c.66-.45,1-.83,1-1.15.02-.153-.036-.306-.15-.41-.229-.219-.492-.398-.78-.53h0c-.368-.176-.705-.409-1-.69-.232-.244-.355-.573-.34-.91,0-.58.54-1.14,1.52-1.68.66-.42,1-.79,1-1.11s-.3-.61-.84-1h0c-.973-.513-1.407-1.123-1.3-1.83.241-.838.792-1.553,1.54-2,.139-.098.235-.244.27-.41.031-.199.007-.403-.07-.59-.143-.32-.247-.655-.31-1l-1.5.24.09-6.1Z"/>
</symbol>
<symbol id="spring" viewBox="0 0 24 24">
<path d="M10.66,2.14l3.86,5.52-1.74.28c.08.295.177.586.29.87.119.245.164.52.13.79-.056.338-.243.639-.52.84h0c-.81.61-1.23,1.14-1.29,1.56s.24.91.92,1.3h0c.75.46,1.14,1,1.18,1.46s-.37,1.16-1.28,1.7c-.75.44-1.15.83-1.21,1.18.012.159.075.31.18.43.243.225.52.41.82.55.378.162.718.401,1,.7.219.231.331.543.31.86-.061.421-.275.806-.6,1.08h.21c1.92,0,3.22-.52,3.9-1.51.157-.2.276-.427.35-.67.053-.179.087-.364.1-.55v-.19h.65c.027.645-.167,1.28-.55,1.8-.79,1.12-2.29,1.71-4.45,1.72h-1.84c-2.17,0-3.66-.6-4.49-1.77-.169-.265-.304-.551-.4-.85-.099-.226-.163-.465-.19-.71v-.24h.66c-.022.512.145,1.014.47,1.41.68,1,2,1.5,3.91,1.51h.56c.62-.43.94-.8,1-1.1-.008-.156-.064-.307-.16-.43-.237-.207-.503-.379-.79-.51h0c-.369-.178-.707-.414-1-.7-.242-.238-.367-.571-.34-.91.04-.56.54-1.12,1.5-1.68.68-.4,1-.77,1-1.1s-.32-.57-.81-.91h0c-1-.55-1.44-1.18-1.34-1.87.256-.833.807-1.544,1.55-2,.128-.088.211-.226.23-.38.028-.209.004-.422-.07-.62-.145-.32-.252-.655-.32-1l-1.49.24.1-6.1Z"/>
</symbol>
<symbol id="sink" viewBox="0 0 24 24">
<path d="M12.41,2.62h.5c1.93.01,3.25.48,3.93,1.48.327.419.497.939.48,1.47h.68v-.24c-.024-.241-.085-.477-.18-.7-.095-.299-.24-.58-.43-.83-.807-1.2-2.293-1.8-4.46-1.8h-1.86c-2.17,0-3.65.61-4.46,1.76-.392.509-.597,1.138-.58,1.78h.69v-.21c.012-.184.049-.366.11-.54.085-.241.196-.472.33-.69.68-.97,2-1.51,3.94-1.51h.18l1.13.03ZM14.17,22c.03-.321-.075-.64-.29-.88-.283-.29-.624-.518-1-.67-.292-.151-.558-.347-.79-.58-.11-.117-.173-.27-.18-.43.03-.34.43-.72,1.18-1.15.91-.55,1.34-1.17,1.31-1.68s-.4-1.01-1.21-1.49h0c-.68-.4-.96-.8-.91-1.27.05-.47.47-.99,1.28-1.61h0c.284-.187.476-.484.53-.82.036-.273.005-.551-.09-.81-.132-.281-.242-.572-.33-.87l1.73-.28-3.86-5.52-.1,6.16,1.49-.24c.073.343.18.678.32,1,.06.164.093.336.1.51-.026.167-.12.315-.26.41-.747.451-1.3,1.164-1.55,2-.1.72.327,1.337,1.28,1.85h0c.54.39.84.68.84,1s-.32.69-1,1.11c-.96.54-1.49,1.1-1.49,1.68-.018.328.106.649.34.88.291.288.63.525,1,.7h0c.296.148.564.348.79.59.097.115.154.259.16.41h.71Z"/>
</symbol>
<symbol id="rain" viewBox="0 0 24 24">
<path d="M7.86,5.66h.71v4.69h-.71v-4.69Z"/>
<path d="M11.65,5.66h.71v4.69h-.71v-4.69Z"/>
<path d="M15.43,5.66h.71v4.69h-.71v-4.69Z"/>
<path d="M7.86,13.65h.71v4.69h-.71v-4.69Z"/>
<path d="M11.65,13.65h.71v4.69h-.71v-4.69Z"/>
<path d="M15.43,13.65h.71v4.69h-.71v-4.69Z"/>
</symbol>
<symbol id="paleoflow" viewBox="0 0 24 24">
<path d="M11.62,24v-12.17c-.215.021-.424.079-.62.17-.306.157-.552.41-.7.72-.169.305-.249.652-.23,1,0,.09,0,.14-.08.16-.08.01-.16.01-.24,0-.082-.02-.168-.02-.25,0h-.08c-.074-.68.136-1.36.58-1.88.426-.448,1.003-.723,1.62-.77v-6.44h-1.71L12,0l1.8,4.77h-1.53v6.46c.378.044.745.159,1.08.34.436.212.788.564,1,1,.207.411.29.873.24,1.33h-.67c.036-.341-.015-.685-.15-1-.135-.271-.338-.502-.59-.67-.269-.199-.58-.333-.91-.39v12.16h-.65Z"/>
</symbol>
<symbol id="stalactite" viewBox="0 0 24 24">
<path d="M15.57,5.595l.52.53-3.7,3.16v9.12h-.78v-9.12l-3.7-3.14.52-.53,3.57,3,3.57-3.02Z"/>
</symbol>
<symbol id="stalagmite" viewBox="0 0 24 24">
<path d="M12.375,5.58v9.17l3.73,3.14-.56.53-3.55-3.02-3.57,3-.53-.53,3.7-3.14V5.58h.78Z"/>
</symbol>
<symbol id="stalagnate" viewBox="0 0 24 24">
<path d="M15.545,3.84l.56.53-3.73,3.15v9l3.73,3.14-.56.53-3.55-3.03-3.57,3-.53-.53,3.7-3.14V7.49l-3.7-3.15.53-.53,3.57,3.06,3.55-3.03Z"/>
</symbol>
<symbol id="curtain" viewBox="0 0 24 24">
<path d="M15.57,5.595l.52.53-3.7,3.16v2.67l-.29.07c-.351.088-.688.226-1,.41-.58.3-.87.65-.87,1v.07c.071.553.423,1.029.93,1.26.144.09.295.17.45.24l.39.14.13.05.26.09v3.12h-.78v-2.61c-.31-.133-.61-.287-.9-.46-.7-.328-1.175-1.001-1.25-1.77v-.05c.052-.757.529-1.42,1.23-1.71.294-.155.602-.282.92-.38v-2.14l-3.7-3.14.52-.53,3.57,3,3.57-3.02Z"/>
</symbol>
<symbol id="helictites" viewBox="0 0 24 24">
<path d="M7.41,4.08h.79v7.7h3.41v-7.7h.78v7.75l3.81.05h.39v8h-.79v-7.28l-3.41-.05v7.37h-.78v-7.37l-3.81-.05h-.39V4.08Z"/>
</symbol>
<symbol id="straws" viewBox="0 0 24 24">
<path d="M1.11,9.24h21.78v.76h-1.26v2.46h-.79v-2.46h-.55v5.6h-.79v-5.6h-1.94v2.7h-.79v-2.7h-2.7v4.38h-.78v-4.38h-1.39v3h-.79v-3h-2.31v6.11h-.8v-6.11h-2.22l.06,2.75h-.79l-.05-2.75h-1.32v4.33h-.78v-4.33h-1.79v-.76Z"/>
</symbol>
<symbol id="crystals" viewBox="0 0 24 24">
<path d="M9.06,6.62l2.94,4.66,2.94-4.66.68.38-2.94,4.64h5.88v.72h-5.88l2.94,4.64-.68.36-2.94-4.64-2.94,4.66-.68-.38,2.94-4.64h-5.88v-.72h5.88l-2.94-4.64.68-.38Z"/>
</symbol>
<symbol id="disk" viewBox="0 0 24 24">
<path d="M11.862,7.81c-.643,0-1.26.251-1.72.7-.458.406-.705.999-.67,1.61.013.535.24,1.043.63,1.41.402.4.927.654,1.49.72l-1.78,3.65.71.29,1.48-3.05,1.85,3.02.68-.33-2.18-3.6c.563-.082,1.079-.358,1.46-.78.359-.396.552-.915.54-1.45,0-.602-.273-1.171-.74-1.55-.463-.425-1.072-.654-1.7-.64h-.05ZM13.562,10c.02.409-.145.806-.45,1.08-.316.307-.739.479-1.18.48h0c-.434-.004-.85-.176-1.16-.48-.306-.244-.492-.609-.51-1-.001-.406.161-.795.45-1.08.311-.304.725-.479,1.16-.49h.69l.49.43c.31.267.495.651.51,1.06Z"/>
</symbol>
<symbol id="cauliflower" viewBox="0 0 24 24">
<path d="M17.58,15.215v-3c.511-.047.987-.278,1.34-.65.36-.344.559-.822.55-1.32-.006-.544-.242-1.06-.65-1.42-.414-.387-.963-.599-1.53-.59-.57-.009-1.122.202-1.54.59-.42.35-.656.873-.64,1.42-.003.494.192.969.54,1.32.354.377.835.612,1.35.66v3h-4.74v-3c.514-.052.993-.286,1.35-.66.353-.348.548-.825.54-1.32-.002-.543-.235-1.059-.64-1.42-.41-.381-.95-.592-1.51-.59-.57-.009-1.122.202-1.54.59-.415.354-.65.875-.64,1.42-.011.492.176.968.52,1.32.352.375.828.61,1.34.66v3h-4.68v-3c.494-.062.951-.295,1.29-.66.36-.344.559-.822.55-1.32-.006-.544-.242-1.06-.65-1.42-.414-.387-.963-.599-1.53-.59-.57-.009-1.122.202-1.54.59-.418.352-.656.873-.65,1.42-.004.493.186.967.53,1.32.357.38.841.615,1.36.66v3h-2.36v.54h16v-.55h-2.42Z"/>
</symbol>
<symbol id="moonmilk" viewBox="0 0 24 24">
<path d="M7.242,8.94c.519-.003,1.033.113,1.5.34.46.213.844.562,1.1,1,.467-.395,1.023-.67,1.62-.8.561-.141,1.149-.141,1.71,0,.526.122,1.007.389,1.39.77.378.373.626.856.71,1.38.546-.261,1.145-.394,1.75-.39.554-.005,1.102.118,1.6.36.561.286,1.012.75,1.28,1.32.265.599.265,1.281,0,1.88-.039.168-.199.28-.37.26-.091.014-.184-.007-.26-.06-.076-.061-.12-.153-.12-.25-.012-.039-.012-.081,0-.12.176-.46.176-.97,0-1.43-.219-.406-.573-.724-1-.9-.448-.228-.949-.331-1.45-.3-.565.024-1.109.219-1.56.56l-.66-.31c.093-.474-.02-.964-.31-1.35-.297-.354-.7-.603-1.15-.71-.522-.129-1.07-.109-1.58.06-.552.164-1.045.483-1.42.92l-.71-.12c-.128-.448-.431-.827-.84-1.05-.425-.23-.91-.324-1.39-.27-.52.051-1.019.233-1.45.53-.432.28-.759.695-.93,1.18-.051.157-.205.258-.37.24-.113.013-.226-.023-.31-.1-.07-.068-.107-.163-.1-.26v-.1c.214-.645.64-1.199,1.21-1.57.565-.373,1.215-.597,1.89-.65l.22-.06Z"/>
</symbol>
<symbol id="flowstone" viewBox="0 0 24 24">
<path d="M7.399,14.123l-.909-.509c.092-.164,2.29-4.027,5.474-4.027,3.168,0,5.431,3.41,5.526,3.554l-.872.57c-.021-.031-2.053-3.083-4.654-3.083-2.572,0-4.546,3.459-4.565,3.494Z"/>
</symbol>
<symbol id="wall_calcite" viewBox="0 0 24 24">
<path d="M14.36,9.78l.05.46.34,3.91-.75.07-.35-3.48-4.17,1.2-.23-.7,4.64-1.32.47-.14Z"/>
</symbol>
<symbol id="scallops" viewBox="0 0 24 24">
<path d="M10.558,8.701c-.464.296-.786.769-.89,1.31v.1c.206,1.778.746,3.501,1.59,5.08l.27.55.39-.47c1.231-1.316,2.066-2.952,2.41-4.72h0c.037-.578-.178-1.143-.59-1.55-.387-.418-.913-.681-1.48-.74h-.21c-.532-.021-1.055.134-1.49.44ZM12.178,9.001c.373.034.723.197.99.46.253.27.39.63.38,1-.277,1.425-.91,2.756-1.84,3.87-.656-1.325-1.082-2.752-1.26-4.22.156-.665.758-1.128,1.44-1.11h.29Z"/>
</symbol>
<symbol id="flutes" viewBox="0 0 24 24">
<path d="M5,11.165h3.24c.342.729.887,1.344,1.57,1.77.652.421,1.414.64,2.19.63.764-.01,1.511-.227,2.16-.63.718-.43,1.309-1.045,1.71-1.78h3.13v-.72H5v.73ZM15,11.165c-.348.538-.831.976-1.4,1.27-.493.263-1.042.403-1.6.41-.577.014-1.147-.128-1.65-.41-.506-.307-.915-.751-1.18-1.28l5.83.01Z"/>
</symbol>
<symbol id="karren" viewBox="0 0 24 24">
<path d="M14.23,7.22l.37.24,2.62,1.76-.47.57-2.26-1.49-4.61,8-.24.44-.37-.34-2.49-2.1.55-.52,2.1,1.82,4.57-7.99.23-.39Z"/>
</symbol>
<symbol id="anastomoses" viewBox="0 0 24 24">
<path d="M12.974,6.323h0c.43.04.815.287,1.03.661.238.407.384.862.428,1.332.045,1.23,0,2.461-.136,3.684-.147,1.2-.173,2.411-.078,3.616.038.415.174.815.399,1.167.174.265.454.442.768.486.224-.082.406-.25.505-.467.21-.371.364-.77.457-1.186.156-.622.35-1.808.574-3.558.123-1.209.331-2.407.622-3.587.119-.444.306-.867.554-1.254.22-.329.578-.54.972-.574h0c.417-.025.819.161,1.069.496.23.329.362.717.379,1.118.019,1.08-.053,2.159-.214,3.227-.165,1.172-.23,2.356-.194,3.538-.032.864.374,1.687,1.079,2.187.492.074.992-.052,1.39-.35.277-.286.507-.614.68-.972l.408.194-.097.175-.117.204-.107.175-.146.224c-.039.057-.085.109-.136.156-.058.068-.126.117-.185.175-.524.364-1.17.507-1.798.399h-.049c-.87-.552-1.393-1.516-1.38-2.547-.036-1.202.029-2.405.194-3.597.167-1.054.239-2.121.214-3.188-.01-.324-.107-.64-.282-.914-.154-.201-.399-.311-.651-.292-.256.04-.483.189-.622.408-.217.348-.384.724-.496,1.118-.289,1.157-.497,2.333-.622,3.519-.233,1.779-.437,2.984-.593,3.616-.106.454-.273.892-.496,1.303-.177.337-.494.579-.865.661h-.058c-.459-.039-.877-.281-1.137-.661-.26-.411-.423-.877-.476-1.361-.087-1.218-.061-2.442.078-3.655.133-1.21.169-2.429.107-3.645-.021-.403-.127-.797-.311-1.157-.135-.251-.379-.424-.661-.467-.309.016-.596.165-.787.408-.275.36-.48.769-.603,1.205-.323,1.219-.531,2.465-.622,3.723-.194,1.944-.36,3.227-.476,3.752-.074.451-.218.887-.428,1.293-.192.352-.572.561-.972.535h0c-.488-.042-.939-.277-1.254-.651-.299-.366-.494-.806-.564-1.273-.141-1.162-.141-2.337,0-3.5,0-.078.019-.253.058-.525v-2.965c.024-.417-.039-.834-.185-1.225-.132-.272-.366-.482-.651-.583-.517.062-.962.396-1.167.875-.292.686-.469,1.415-.525,2.158,0,.379-.097.972-.136,1.711s-.107,1.429-.175,2.022c-.045.518-.132,1.032-.262,1.536h0c-.243.536-.652.979-1.167,1.264-.402.216-.872.268-1.312.146-.42-.122-.784-.387-1.03-.749-.272-.414-.405-.905-.379-1.4h.457c-.023.398.083.794.301,1.128.182.288.461.502.787.603.325.096.676.058.972-.107.392-.242.701-.598.885-1.021.143-.475.238-.964.282-1.458.071-.57.139-1.231.204-1.983,0-.758.097-1.332.156-1.73.051-.79.235-1.566.544-2.294.277-.642.888-1.076,1.585-1.128h.049c.426.12.78.418.972.817.205.428.318.896.331,1.371.011.185.011.37,0,.554v1.73c0,.107,0,.321-.058.661s0,.544-.058.612c-.134,1.127-.134,2.266,0,3.393.071.4.237.777.486,1.098.253.276.599.449.972.486.194-.041.354-.176.428-.36.201-.348.345-.725.428-1.118.097-.525.253-1.798.457-3.743.096-1.278.314-2.545.651-3.781.13-.483.355-.936.661-1.332.282-.346.701-.551,1.147-.564Z"/>
</symbol>
<g>
<desc></desc>
<g>
<line fill="none" stroke="#dddddd" stroke-width="0.1mm" x1="0.00" y1="21.00" x2="285.00" y2="21.00" />
<text x="282.20" y="20.80" font-size=".2mm" fill="#000000">0m</text>
<line fill="none" stroke="#dddddd" stroke-width="0.1mm" x1="0.00" y1="1.00" x2="285.00" y2="1.00" />
<text x="282.20" y="0.80" font-size=".2mm" fill="#000000">5m</text>
<line fill="none" stroke="#dddddd" stroke-width="0.1mm" x1="0.00" y1="41.00" x2="285.00" y2="41.00" />
<text x="282.20" y="40.80" font-size=".2mm" fill="#000000">-5m</text>
<line fill="none" stroke="#dddddd" stroke-width="0.1mm" x1="0.00" y1="61.00" x2="285.00" y2="61.00" />
<text x="282.20" y="60.80" font-size=".2mm" fill="#000000">-10m</text>
<line fill="none" stroke="#dddddd" stroke-width="0.1mm" x1="0.00" y1="81.00" x2="285.00" y2="81.00" />
<text x="282.20" y="80.80" font-size=".2mm" fill="#000000">-15m</text>
<line fill="none" stroke="#dddddd" stroke-width="0.1mm" x1="0.00" y1="101.00" x2="285.00" y2="101.00" />
<text x="282.20" y="100.80" font-size=".2mm" fill="#000000">-20m</text>
<line fill="none" stroke="#dddddd" stroke-width="0.1mm" x1="0.00" y1="121.00" x2="285.00" y2="121.00" />
<text x="282.20" y="120.80" font-size=".2mm" fill="#000000">-25m</text>
<line fill="none" stroke="#dddddd" stroke-width="0.1mm" x1="0.00" y1="141.00" x2="285.00" y2="141.00" />
<text x="282.20" y="140.80" font-size=".2mm" fill="#000000">-30m</text>
</g>
<g>
<path fill="none" stroke="#000000" stroke-width="0.06mm" d="M47.233685,29.18485 L47.12252,29.212992" /><path fill="none" stroke="#000000" stroke-width="0.06mm" d="M42.38595,26.259495 C42.473797,26.311256 42.56668,26.355293 42.649498,26.41478 C42.71704,26.463297 42.783474,26.51641 42.834747,26.581882 C43.13922,26.970646 43.400303,27.392784 43.714073,27.774082 C43.843338,27.931166 43.998398,28.067024 44.159306,28.191498 C44.60961,28.539843 45.076195,28.866932 45.544785,29.190266 C45.60925,29.234747 45.681866,29.267925 45.755985,29.293232 C45.875793,29.33414 45.998375,29.370605 46.12378,29.387962 C46.912743,29.497158 47.70259,29.605352 48.49624,29.672497 C48.86846,29.703987 49.566635,29.553383 49.887558,29.50187 C50.37278,29.423985 50.85615,29.332169 51.344116,29.273918 C51.77172,29.222874 52.171745,29.399136 52.570812,29.515182 C52.808987,29.584442 53.056435,29.624817 53.287865,29.714046 C54.521366,30.189621 54.862473,30.43419 56.01546,31.175104 C56.763084,31.655529 56.247395,31.422226 57.03519,31.825188 C57.242252,31.9311 57.516514,31.909645 57.73711,31.915186 L57.73711,31.915186" /><path fill="none" stroke="#000000" stroke-width="0.06mm" d="M50.0175,21.51913 C50.205673,21.534025 52.565098,21.609182 53.551826,21.85663 C53.63292,21.876965 53.70814,21.915987 53.786243,21.945807 C53.800632,21.9513 53.940025,22.011627 53.983215,22.01102 C54.066097,22.00986 54.148422,21.997261 54.231026,21.990381 L54.231026,21.990381" /><path fill="none" stroke="#000000" stroke-width="0.06mm" d="M57.349216,32.113045 C63.438423,33.383923 59.530666,32.378426 65.09552,34.24372 C66.485794,34.70973 65.37239,34.021133 67.42995,35.105865 C67.85658,35.330784 68.23192,35.641838 68.632904,35.909824 L68.632904,35.909824" /><path fill="none" stroke="#000000" stroke-width="0.06mm" d="M54.320747,21.657701 C54.33864,21.709782 54.350964,21.77367 54.385784,21.820652 C54.444336,21.899641 54.55242,21.935022 54.64419,21.952366 C54.681156,21.95935 54.719307,21.968636 54.756527,21.963179 C55.18802,21.890831 55.61952,21.818485 56.05101,21.746138 C56.28393,21.68489 56.512802,21.605406 56.74977,21.562399 C57.44904,21.435495 58.157524,21.363497 58.856853,21.236927 C59.376644,21.14285 59.888878,21.010983 60.405483,20.900759 C60.635647,20.85165 60.871307,20.825214 61.09713,20.758938 C61.571747,20.619638 62.038006,20.452776 62.503338,20.285042 C62.588932,20.254189 62.66542,20.202232 62.747932,20.163885 C63.078426,20.01029 63.1891,20.004202 63.424625,19.814857 C63.52587,19.733465 63.597145,19.61434 63.671528,19.512611 L63.671528,19.512611" /><path fill="none" stroke="#000000" stroke-width="0.06mm" d="M68.42028,34.189808 C68.61948,34.518707 68.78302,34.87204 69.01787,35.176506 C70.75336,37.42648 71.29874,37.153324 73.98001,39.699135 C76.2864,41.888992 78.37555,44.30078 80.68859,46.48361 C82.11163,47.826546 83.70919,48.972717 85.17737,50.26615 C85.582756,50.623287 85.8966,51.07658 86.304375,51.430984 C86.74409,51.81314 87.26541,52.09295 87.71105,52.468178 C89.29471,53.801643 90.78441,55.24551 92.38871,56.554066 C93.77428,57.684204 95.27793,58.66322 96.67474,59.779423 C105.21358,66.602844 100.77037,63.68801 104.815475,66.272064 L104.815475,66.272064" /><path fill="none" stroke="#000000" stroke-width="0.06mm" d="M63.577675,19.208 C63.85502,19.371353 64.12322,19.551325 64.4097,19.698061 C64.544945,19.767334 64.686775,19.840836 64.83818,19.85364 C66.19446,19.968325 67.5677,19.887686 68.9153,20.079054 C70.59146,20.317081 72.26727,20.631212 73.88261,21.138018 C90.877335,26.47002 80.275764,24.314785 93.73604,27.315845 C94.92147,27.580147 96.13597,27.699223 97.32262,27.958021 C97.75237,28.051748 98.14239,28.296328 98.5758,28.371357 C99.375885,28.444391 100.17596,28.517427 100.97604,28.590462 C101.403435,28.622372 101.83501,28.618553 102.25822,28.686186 C103.479996,28.881437 105.23406,29.75206 106.032455,30.29705 C110.17727,33.126343 112.24842,35.07381 115.5901,38.57503 C115.80902,38.804405 115.97581,39.081535 116.12715,39.36016 C117.42953,41.757812 118.6748,44.18604 119.948616,46.59898 L119.948616,46.59898" /><path fill="none" stroke="#000000" stroke-width="0.06mm" d="M118.90069,44.43966 C119.76944,45.376564 119.687386,45.38501 120.7291,46.124664 C120.85455,46.213734 120.99139,46.290413 121.13643,46.34173 C121.73833,46.55469 122.38112,46.654617 122.96391,46.915375 C124.08607,47.417465 125.21652,47.931168 126.233284,48.62222 C127.67447,49.60174 129.01036,50.734764 130.30292,51.903435 C131.84714,53.29966 133.26102,54.833626 134.73221,56.306606 C134.92734,56.50195 135.08923,56.73171 135.30157,56.908165 C140.15974,60.94533 139.75024,60.307663 146.4145,64.65447 C149.43599,66.62527 147.73784,65.64433 150.20616,66.988754 L150.20616,66.988754" /><path fill="none" stroke="#000000" stroke-width="0.06mm" d="M105.39412,67.38937 C106.98241,68.52255 106.39109,68.2298 107.959175,68.92874 C108.249435,69.05811 108.54941,69.16523 108.83794,69.29841 C109.77745,69.73207 109.48489,69.73532 110.54306,69.960945 C110.986244,70.055435 111.94974,70.10073 112.4958,70.37538 C114.092064,71.17828 115.80648,72.337425 117.630974,72.73454 C119.346664,73.10797 121.11775,73.21111 122.81957,73.6434 C125.94228,74.4366 128.9917,75.494705 132.08221,76.40532 C132.40381,76.500084 132.74222,76.53972 133.05542,76.65938 C134.46754,77.198944 135.82352,77.88362 137.25125,78.38037 C138.46637,78.80314 139.7293,79.073456 140.97021,79.41313 C141.25763,79.49181 141.55682,79.53151 141.8361,79.63541 C144.09267,80.47481 146.36375,81.28317 148.57262,82.24109 C149.15071,82.491806 152.18222,84.81862 152.19617,84.82995 C152.75636,85.285515 153.52853,86.7291 153.69527,87.059265 C154.15971,87.97896 154.53598,88.94058 154.95634,89.88124 L154.95634,89.88124" /><path fill="none" stroke="#000000" stroke-width="0.06mm" d="M149.57146,67.815125 C150.58807,68.69792 151.6047,69.58072 152.62134,70.46352 C152.71568,70.582016 152.83134,70.68631 152.90434,70.819016 C153.8999,72.6287 153.59268,72.45755 154.43045,74.82263 C154.61813,75.35245 155.72256,76.59483 155.74251,76.62703 C156.47368,77.80728 157.0591,79.072815 157.76985,80.26548 C158.05646,80.74642 159.38586,82.0327 159.5297,82.18016 L159.5297,82.18016" /><path fill="none" stroke="#000000" stroke-width="0.06mm" d="M154.41852,89.92612 C156.59329,93.275276 154.95035,91.03726 156.76555,93.07537 C156.85062,93.17088 156.89668,93.29723 156.98341,93.391235 C157.45135,93.898415 158.2127,94.472 158.72942,94.83087 C158.93507,94.97371 159.17409,95.06328 159.38234,95.20232 C160.37097,95.86239 160.18503,95.702034 160.71367,96.28994 L160.71367,96.28994" /><path fill="none" stroke="#000000" stroke-width="0.06mm" d="M159.15508,81.33036 C159.38168,81.572395 159.54243,81.791534 159.85234,81.93658 C161.94798,82.91739 164.08562,83.80762 166.17213,84.80766 C166.60698,85.01608 166.98303,85.331894 167.4088,85.55829 C167.97186,85.85767 168.56462,86.09789 169.135,86.38308 C169.61893,86.62505 170.08018,86.91215 170.57118,87.139465 C171.52771,87.58232 172.52562,87.93356 173.47464,88.39227 C174.58244,88.927734 175.6425,89.55713 176.73682,90.11964 C177.2663,90.3918 177.81737,90.62076 178.3453,90.89592 C179.39127,91.44109 180.42268,92.013794 181.45738,92.580055 C181.83934,92.789085 182.23753,92.973335 182.59515,93.221725 C182.95226,93.46975 183.24673,93.798676 183.59213,94.06275 C184.73087,94.93338 184.90155,94.84533 185.70013,95.74091 C186.14554,96.24042 186.34738,96.90035 186.61696,97.49428 L186.61696,97.49428" /><path fill="none" stroke="#000000" stroke-width="0.06mm" d="M185.6488,96.5024 C188.65395,97.41677 191.66386,98.31552 194.66422,99.24551 C194.94064,99.33119 195.20554,99.450516 195.47768,99.54898 C196.73692,100.0046 197.99829,100.454384 199.25835,100.90775 C199.83905,101.11669 200.40492,101.372246 200.99998,101.53589 C202.15913,101.85465 203.33838,102.09588 204.5128,102.35274 C206.45323,102.77712 203.25435,101.64087 207.50755,103.05912 C209.30934,103.65994 210.55397,104.37209 212.18787,105.391754 C212.46571,105.565155 212.70248,105.79708 212.9598,105.99975 L212.9598,105.99975" /><path fill="none" stroke="#000000" stroke-width="0.06mm" d="M213.93262,105.19658 L213.9331,105.19707" /><path fill="none" stroke="#000000" stroke-width="0.06mm" d="M213.98183,105.39341 L214.03152,105.492325" /><path fill="none" stroke="#000000" stroke-width="0.06mm" d="M214.17867,105.73788 C214.8072,106.296585 215.37823,106.8992 216.15482,107.260666 C218.24823,108.235054 218.4251,107.960434 219.70038,108.848724 C222.05263,110.487175 224.82803,112.795975 227.64777,113.55349 C228.13239,113.68368 228.61058,113.8537 229.10808,113.91908 C229.39862,113.95727 233.59352,114.0459 235.37889,114.67109 C236.41895,115.03529 237.43977,115.45356 238.48346,115.80723 C238.81331,115.91901 239.16211,115.966034 239.4957,116.06613 C240.45775,116.354805 241.40007,116.70933 242.36922,116.9732 C243.01015,117.1477 243.65364,117.15676 244.29817,117.28572 C249.3279,118.292076 243.1908,117.230156 248.20818,117.855606 C249.03017,117.95807 248.8584,118.08454 249.58237,118.24019 C250.13911,118.359886 250.36177,118.311066 250.93777,118.28616 L250.93777,118.28616" /><path fill="none" stroke="#000000" stroke-width="0.06mm" d="M254.3332,120.79582 C262.1616,125.664474 258.73938,123.14425 264.7655,128.12796 L264.7655,128.12796" /><path fill="none" stroke="#000000" stroke-width="0.06mm" d="M254.3332,121.681595 C253.05756,120.34986 252.93213,120.05731 251.50667,119.098114 C250.89214,118.68459 250.24164,118.32718 249.60913,117.94171 L249.60913,117.94171" /><path fill="none" stroke="#000000" stroke-width="0.06mm" d="M265.4052,130.34238 C265.53326,130.69373 265.9502,132.2833 266.4612,132.92148 C266.7163,133.24008 267.00385,133.5313 267.27518,133.83621 L267.27518,133.83621" /><path fill="none" stroke="#000000" stroke-width="0.06mm" d="M265.60205,131.12971 C264.66254,129.80173 264.88196,130.24152 264.09955,128.27368 C263.98578,127.98751 263.9202,127.68445 263.83054,127.38983 L263.83054,127.38983" /><path fill="none" stroke="#000000" stroke-width="0.06mm" d="M169.10324,97.372345 C170.08722,97.606766 171.09157,97.76805 172.0552,98.07561 C173.44302,98.51854 173.85855,98.76656 174.81148,99.2915 L174.81148,99.2915" /><path fill="none" stroke="#000000" stroke-width="0.06mm" d="M168.4143,97.175514 C166.9014,96.876305 165.40654,96.4637 163.87555,96.277885 C158.64117,95.6426 161.2378,96.77533 159.35986,95.89608 L159.35986,95.89608" /><path fill="none" stroke="#000000" stroke-width="0.06mm" d="M222.5442,120.1069 C221.3788,120.1644 220.20692,120.144 219.04797,120.27939 C217.8818,120.41563 216.74889,120.77005 215.58438,120.92 C215.11783,120.980064 214.64091,120.95777 214.17325,120.90705 C213.41666,120.825 212.66254,120.58545 211.97577,120.26201 C211.48862,120.03257 210.98233,119.59063 210.70218,119.13065 C210.51836,118.828865 210.43974,118.47758 210.37067,118.13597 C210.311,117.8409 210.31357,117.52449 210.36447,117.22882 C210.46823,116.626205 210.73898,116.17282 211.11824,115.69167 C211.2252,115.55597 211.3496,115.4337 211.48032,115.320694 C212.0916,114.79223 212.73662,114.30333 213.34253,113.76871 C213.44562,113.67774 213.52365,113.5611 213.60236,113.448364 C213.81418,113.144936 213.94768,112.79215 213.8141,112.42911 C213.77122,112.312546 213.66571,112.11684 213.57411,112.03628 C212.59456,111.17471 211.64673,110.27119 210.60075,109.49162 C209.9095,108.976425 209.13991,108.573135 208.38034,108.16534 C207.64374,107.769875 206.79137,107.661095 206.02231,107.365036 C205.33916,107.10204 205.02376,106.89777 204.4845,106.574425 L204.4845,106.574425" /><path fill="none" stroke="#000000" stroke-width="0.06mm" d="M222.0229,119.33729 C222.14664,119.48303 222.27617,119.665535 222.47267,119.72446 C223.26627,119.96244 224.2253,119.92055 224.98154,119.92743 C225.61552,119.9332 226.24924,119.82901 226.88246,119.86115 C227.40205,119.88753 227.91687,119.98835 228.42453,120.1022 C228.94794,120.21959 229.4587,120.38871 229.96916,120.55342 C230.06017,120.58279 230.14935,120.62469 230.22504,120.68315 C230.54494,120.93029 230.86111,121.18457 231.15096,121.46638 C231.9036,122.19817 233.09087,123.777695 233.49615,124.476906 C234.1599,125.622 234.6512,126.858955 235.25542,128.03653 C235.34567,128.21246 235.50081,128.35233 235.57799,128.53436 C236.01364,129.56218 236.38042,130.61786 236.78973,131.65643 C236.85008,131.8096 236.93585,131.95273 236.9869,132.10925 C238.41655,136.49329 237.01547,132.22098 237.55827,134.20474 C237.69386,134.70021 237.885,135.18073 237.99648,135.68219 C238.10483,136.16968 238.12125,136.67386 238.21614,137.16415 C238.27422,137.46413 238.3718,137.75513 238.45465,138.04922 C238.46307,138.0791 238.49298,138.12462 238.51369,138.14761 C238.56891,138.20892 238.65363,138.24216 238.73528,138.24512 C238.95752,138.25313 239.18004,138.26572 239.40233,138.25908 C239.49185,138.25641 239.58076,138.23853 239.66777,138.21722 C239.97752,138.14136 240.28688,138.06259 240.5914,137.96786 C241.93573,137.54968 243.27391,137.11203 244.61346,136.67877 C244.68524,136.65558 244.75862,136.56464 244.77669,136.49426 C244.89159,136.04681 244.90967,135.70145 244.82646,135.19427 C244.54779,133.49548 244.12366,132.61641 243.6042,130.923 C243.34106,130.06519 243.64584,130.55945 243.19182,129.63739 C242.21951,127.66276 243.00941,129.92188 241.79245,126.64248 C241.62071,126.179695 241.48819,125.70191 241.3784,125.22065 C241.31653,124.94936 241.30708,124.234825 241.12547,123.83981 C241.01443,123.59833 240.87738,123.36914 240.77083,123.12563 C240.63057,122.805084 240.53706,122.46461 240.38573,122.14913 C239.0187,119.299545 239.7058,121.10651 239.21649,119.774994 L239.21649,119.774994" /><path fill="none" stroke="#000000" stroke-width="0.06mm" d="M263.71942,133.9278 C263.6342,133.81277 263.54144,133.70294 263.46375,133.58267 C263.4219,133.51791 263.3857,133.44827 263.36215,133.37485 C263.19424,132.8519 263.08514,132.30966 262.89014,131.7962 C262.72647,131.36523 262.526,130.94617 262.2895,130.55045 C261.91016,129.91565 261.35455,129.07121 260.7509,128.53079 C260.06982,127.92105 259.34113,127.36514 258.67078,126.74362 C258.52524,126.60866 256.4387,124.385124 256.3239,124.27014 C255.30284,123.24706 256.03903,124.2119 255.0031,122.87289 C254.85298,122.678856 254.77382,122.33554 254.71738,122.13421 C254.66692,121.95424 254.62733,121.7714 254.58232,121.590004 L254.58232,121.590004" /><path fill="none" stroke="#000000" stroke-width="0.06mm" d="M253.97997,121.501465 C253.64696,121.153305 253.26103,120.848976 252.98093,120.45699 C251.71132,118.68025 250.65916,116.75106 249.34123,115.009865 C245.33224,109.71332 244.34592,108.28392 239.73126,104.8456 C239.14748,104.41063 238.22975,104.11949 237.52457,103.92828 C236.7291,103.7126 235.9417,103.45198 235.1284,103.31829 C233.0324,102.97373 230.92027,102.73169 228.80928,102.49561 C227.95845,102.40046 227.10179,102.28615 226.24654,102.325005 C225.06656,102.37862 223.90552,102.64412 222.73125,102.77175 C222.39099,102.80874 222.14592,102.63652 221.8349,102.66256 C221.44073,102.695564 221.12329,103.05251 220.81102,103.24091 C220.69402,103.3115 220.56522,103.36047 220.44049,103.4163 C219.69768,103.74879 218.93968,104.04852 218.20847,104.40582 C218.1136,104.45219 215.53987,106.18057 214.36292,106.13771 C214.0156,106.12506 213.67145,106.06641 213.32573,106.03075 L213.32573,106.03075" /><path fill="none" stroke="#000000" stroke-width="0.06mm" d="M239.73062,120.97802 C240.25188,120.38495 240.30003,120.249695 240.96509,119.81245 C241.43105,119.50609 242.22163,119.199234 242.72495,119.11747 C244.71092,118.79484 245.48032,118.82814 247.4066,119.07916 C247.58951,119.103 247.76689,119.165054 247.93747,119.23527 C249.16423,119.74028 250.37608,120.280785 251.59538,120.803535 L251.59538,120.803535" /></g>
<g>
<line fill="none" stroke="#111111" stroke-width="0.04mm" x1="20.00" y1="21.00" x2="42.74" y2="21.06" />
<line fill="none" stroke="#111111" stroke-width="0.04mm" x1="42.74" y1="21.06" x2="51.60" y2="22.02" />
<line fill="none" stroke="#00aeef" stroke-width="0.04mm" stroke-dasharray="0.4,0.2" x1="51.60" y1="22.02" x2="50.72" y2="28.26" />
<line fill="none" stroke="#00aeef" stroke-width="0.04mm" stroke-dasharray="0.4,0.2" x1="51.60" y1="22.02" x2="47.24" y2="21.42" />
<line fill="none" stroke="#00aeef" stroke-width="0.04mm" stroke-dasharray="0.4,0.2" x1="51.60" y1="22.02" x2="54.20" y2="21.87" />
<line fill="none" stroke="#5674b9" stroke-width="0.04mm" stroke-dasharray="0.4,0.2" x1="51.60" y1="22.02" x2="48.98" y2="22.47" />
<line fill="none" stroke="#00aeef" stroke-width="0.04mm" stroke-dasharray="0.4,0.2" x1="51.60" y1="22.02" x2="46.55" y2="28.96" />
<line fill="none" stroke="#00aeef" stroke-width="0.04mm" stroke-dasharray="0.4,0.2" x1="51.60" y1="22.02" x2="57.04" y2="30.02" />
<line fill="none" stroke="#111111" stroke-width="0.04mm" x1="51.60" y1="22.02" x2="69.60" y2="30.48" />
<line fill="none" stroke="#5674b9" stroke-width="0.04mm" stroke-dasharray="0.4,0.2" x1="69.60" y1="30.48" x2="58.04" y2="29.11" />
<line fill="none" stroke="#5674b9" stroke-width="0.04mm" stroke-dasharray="0.4,0.2" x1="69.60" y1="30.48" x2="62.96" y2="19.52" />
<line fill="none" stroke="#00aeef" stroke-width="0.04mm" stroke-dasharray="0.4,0.2" x1="69.60" y1="30.48" x2="69.09" y2="36.28" />
<line fill="none" stroke="#111111" stroke-width="0.04mm" x1="69.60" y1="30.48" x2="94.39" y2="50.54" />
<line fill="none" stroke="#111111" stroke-width="0.04mm" x1="94.39" y1="50.54" x2="115.10" y2="66.71" />
<line fill="none" stroke="#5674b9" stroke-width="0.04mm" stroke-dasharray="0.4,0.2" x1="115.10" y1="66.71" x2="103.10" y2="55.99" />
<line fill="none" stroke="#5674b9" stroke-width="0.04mm" stroke-dasharray="0.4,0.2" x1="115.10" y1="66.71" x2="108.89" y2="62.39" />
<line fill="none" stroke="#5674b9" stroke-width="0.04mm" stroke-dasharray="0.4,0.2" x1="115.10" y1="66.71" x2="106.49" y2="48.99" />
<line fill="none" stroke="#5674b9" stroke-width="0.04mm" stroke-dasharray="0.4,0.2" x1="115.10" y1="66.71" x2="110.91" y2="51.10" />
<line fill="none" stroke="#5674b9" stroke-width="0.04mm" stroke-dasharray="0.4,0.2" x1="115.10" y1="66.71" x2="105.11" y2="29.81" />
<line fill="none" stroke="#5674b9" stroke-width="0.04mm" stroke-dasharray="0.4,0.2" x1="115.10" y1="66.71" x2="114.37" y2="63.52" />
<line fill="none" stroke="#5674b9" stroke-width="0.04mm" stroke-dasharray="0.4,0.2" x1="115.10" y1="66.71" x2="104.14" y2="64.88" />
<line fill="none" stroke="#5674b9" stroke-width="0.04mm" stroke-dasharray="0.4,0.2" x1="115.10" y1="66.71" x2="116.27" y2="72.98" />
<line fill="none" stroke="#5674b9" stroke-width="0.04mm" stroke-dasharray="0.4,0.2" x1="115.10" y1="66.71" x2="120.97" y2="44.94" />
<line fill="none" stroke="#111111" stroke-width="0.04mm" x1="115.10" y1="66.71" x2="146.29" y2="70.63" />
<line fill="none" stroke="#5674b9" stroke-width="0.04mm" stroke-dasharray="0.4,0.2" x1="146.29" y1="70.63" x2="146.46" y2="71.25" />
<line fill="none" stroke="#5674b9" stroke-width="0.04mm" stroke-dasharray="0.4,0.2" x1="146.29" y1="70.63" x2="150.83" y2="67.53" />
<line fill="none" stroke="#5674b9" stroke-width="0.04mm" stroke-dasharray="0.4,0.2" x1="146.29" y1="70.63" x2="141.84" y2="58.83" />
<line fill="none" stroke="#5674b9" stroke-width="0.04mm" stroke-dasharray="0.4,0.2" x1="146.29" y1="70.63" x2="145.45" y2="69.98" />
<line fill="none" stroke="#5674b9" stroke-width="0.04mm" stroke-dasharray="0.4,0.2" x1="146.29" y1="70.63" x2="141.01" y2="46.33" />
<line fill="none" stroke="#00aeef" stroke-width="0.04mm" stroke-dasharray="0.4,0.2" x1="146.29" y1="70.63" x2="160.23" y2="96.42" />
<line fill="none" stroke="#5674b9" stroke-width="0.04mm" stroke-dasharray="0.4,0.2" x1="146.29" y1="70.63" x2="157.89" y2="79.03" />
<line fill="none" stroke="#00aeef" stroke-width="0.04mm" stroke-dasharray="0.4,0.2" x1="146.29" y1="70.63" x2="152.39" y2="78.30" />
<line fill="none" stroke="#111111" stroke-width="0.04mm" x1="146.29" y1="70.63" x2="165.13" y2="88.32" />
<line fill="none" stroke="#00aeef" stroke-width="0.04mm" stroke-dasharray="0.4,0.2" x1="165.13" y1="88.32" x2="157.75" y2="88.73" />
<line fill="none" stroke="#5674b9" stroke-width="0.04mm" stroke-dasharray="0.4,0.2" x1="165.13" y1="88.32" x2="165.44" y2="95.06" />
<line fill="none" stroke="#00aeef" stroke-width="0.04mm" stroke-dasharray="0.4,0.2" x1="165.13" y1="88.32" x2="162.52" y2="84.21" />
<line fill="none" stroke="#111111" stroke-width="0.04mm" x1="165.13" y1="88.32" x2="186.89" y2="96.71" />
<line fill="none" stroke="#5674b9" stroke-width="0.04mm" stroke-dasharray="0.4,0.2" x1="186.89" y1="96.71" x2="177.88" y2="123.95" />
<line fill="none" stroke="#5674b9" stroke-width="0.04mm" stroke-dasharray="0.4,0.2" x1="186.89" y1="96.71" x2="170.10" y2="95.83" />
<line fill="none" stroke="#5674b9" stroke-width="0.04mm" stroke-dasharray="0.4,0.2" x1="186.89" y1="96.71" x2="170.40" y2="96.34" />
<line fill="none" stroke="#5674b9" stroke-width="0.04mm" stroke-dasharray="0.4,0.2" x1="186.89" y1="96.71" x2="174.31" y2="98.55" />
<line fill="none" stroke="#111111" stroke-width="0.04mm" x1="186.89" y1="96.71" x2="212.35" y2="106.19" />
<line fill="none" stroke="#00aeef" stroke-width="0.04mm" stroke-dasharray="0.4,0.2" x1="212.35" y1="106.19" x2="203.85" y2="105.59" />
<line fill="none" stroke="#00aeef" stroke-width="0.04mm" stroke-dasharray="0.4,0.2" x1="212.35" y1="106.19" x2="205.72" y2="105.65" />
<line fill="none" stroke="#00aeef" stroke-width="0.04mm" stroke-dasharray="0.4,0.2" x1="212.35" y1="106.19" x2="209.92" y2="104.39" />
<line fill="none" stroke="#00aeef" stroke-width="0.04mm" stroke-dasharray="0.4,0.2" x1="212.35" y1="106.19" x2="212.09" y2="111.90" />
<line fill="none" stroke="#00aeef" stroke-width="0.04mm" stroke-dasharray="0.4,0.2" x1="212.35" y1="106.19" x2="213.96" y2="120.20" />
<line fill="none" stroke="#00aeef" stroke-width="0.04mm" stroke-dasharray="0.4,0.2" x1="212.35" y1="106.19" x2="210.70" y2="103.68" />
<line fill="none" stroke="#5674b9" stroke-width="0.04mm" stroke-dasharray="0.4,0.2" x1="212.35" y1="106.19" x2="201.79" y2="107.32" />
<line fill="none" stroke="#00aeef" stroke-width="0.04mm" stroke-dasharray="0.4,0.2" x1="212.35" y1="106.19" x2="208.85" y2="108.27" />
<line fill="none" stroke="#5674b9" stroke-width="0.04mm" stroke-dasharray="0.4,0.2" x1="212.35" y1="106.19" x2="209.67" y2="107.83" />
<line fill="none" stroke="#5674b9" stroke-width="0.04mm" stroke-dasharray="0.4,0.2" x1="212.35" y1="106.19" x2="199.53" y2="114.05" />
<line fill="none" stroke="#5674b9" stroke-width="0.04mm" stroke-dasharray="0.4,0.2" x1="212.35" y1="106.19" x2="209.64" y2="107.85" />
<line fill="none" stroke="#111111" stroke-width="0.04mm" x1="212.35" y1="106.19" x2="227.08" y2="115.36" />
<line fill="none" stroke="#00aeef" stroke-width="0.04mm" stroke-dasharray="0.4,0.2" x1="227.08" y1="115.36" x2="229.62" y2="119.96" />
<line fill="none" stroke="#5674b9" stroke-width="0.04mm" stroke-dasharray="0.4,0.2" x1="227.08" y1="115.36" x2="227.18" y2="122.06" />
<line fill="none" stroke="#5674b9" stroke-width="0.04mm" stroke-dasharray="0.4,0.2" x1="227.08" y1="115.36" x2="226.01" y2="116.20" />
<line fill="none" stroke="#00aeef" stroke-width="0.04mm" stroke-dasharray="0.4,0.2" x1="227.08" y1="115.36" x2="227.64" y2="115.99" />
<line fill="none" stroke="#5674b9" stroke-width="0.04mm" stroke-dasharray="0.4,0.2" x1="227.08" y1="115.36" x2="214.41" y2="112.88" />
<line fill="none" stroke="#00aeef" stroke-width="0.04mm" stroke-dasharray="0.4,0.2" x1="227.08" y1="115.36" x2="214.09" y2="111.73" />
<line fill="none" stroke="#00aeef" stroke-width="0.04mm" stroke-dasharray="0.4,0.2" x1="227.08" y1="115.36" x2="221.72" y2="110.96" />
<line fill="none" stroke="#00aeef" stroke-width="0.04mm" stroke-dasharray="0.4,0.2" x1="227.08" y1="115.36" x2="210.48" y2="115.51" />
<line fill="none" stroke="#00aeef" stroke-width="0.04mm" stroke-dasharray="0.4,0.2" x1="227.08" y1="115.36" x2="217.04" y2="115.89" />
<line fill="none" stroke="#00aeef" stroke-width="0.04mm" stroke-dasharray="0.4,0.2" x1="227.08" y1="115.36" x2="217.25" y2="115.88" />
<line fill="none" stroke="#00aeef" stroke-width="0.04mm" stroke-dasharray="0.4,0.2" x1="227.08" y1="115.36" x2="221.27" y2="119.33" />
<line fill="none" stroke="#00aeef" stroke-width="0.04mm" stroke-dasharray="0.4,0.2" x1="227.08" y1="115.36" x2="210.14" y2="118.95" />
<line fill="none" stroke="#00aeef" stroke-width="0.04mm" stroke-dasharray="0.4,0.2" x1="227.08" y1="115.36" x2="213.78" y2="119.21" />
<line fill="none" stroke="#111111" stroke-width="0.04mm" x1="227.08" y1="115.36" x2="250.39" y2="117.77" />
<line fill="none" stroke="#5674b9" stroke-width="0.04mm" stroke-dasharray="0.4,0.2" x1="250.39" y1="117.77" x2="239.30" y2="117.24" />
<line fill="none" stroke="#00aeef" stroke-width="0.04mm" stroke-dasharray="0.4,0.2" x1="250.39" y1="117.77" x2="244.37" y2="117.32" />
<line fill="none" stroke="#00aeef" stroke-width="0.04mm" stroke-dasharray="0.4,0.2" x1="250.39" y1="117.77" x2="244.95" y2="117.67" />
<line fill="none" stroke="#00aeef" stroke-width="0.04mm" stroke-dasharray="0.4,0.2" x1="250.39" y1="117.77" x2="245.85" y2="118.47" />
<line fill="none" stroke="#00aeef" stroke-width="0.04mm" stroke-dasharray="0.4,0.2" x1="250.39" y1="117.77" x2="249.51" y2="118.43" />
<line fill="none" stroke="#00aeef" stroke-width="0.04mm" stroke-dasharray="0.4,0.2" x1="250.39" y1="117.77" x2="249.69" y2="120.37" />
<line fill="none" stroke="#00aeef" stroke-width="0.04mm" stroke-dasharray="0.4,0.2" x1="250.39" y1="117.77" x2="252.96" y2="118.99" />
<line fill="none" stroke="#00aeef" stroke-width="0.04mm" stroke-dasharray="0.4,0.2" x1="250.39" y1="117.77" x2="255.88" y2="121.16" />
<line fill="none" stroke="#111111" stroke-width="0.04mm" x1="250.39" y1="117.77" x2="263.90" y2="129.08" />
<line fill="none" stroke="#00aeef" stroke-width="0.04mm" stroke-dasharray="0.4,0.2" x1="263.90" y1="129.08" x2="264.22" y2="126.59" />
<line fill="none" stroke="#5674b9" stroke-width="0.04mm" stroke-dasharray="0.4,0.2" x1="263.90" y1="129.08" x2="265.14" y2="133.68" />
<line fill="none" stroke="#111111" stroke-width="0.04mm" x1="212.35" y1="106.19" x2="221.40" y2="103.70" />
<line fill="none" stroke="#00aeef" stroke-width="0.04mm" stroke-dasharray="0.4,0.2" x1="221.40" y1="103.70" x2="220.99" y2="111.31" />
<line fill="none" stroke="#00aeef" stroke-width="0.04mm" stroke-dasharray="0.4,0.2" x1="221.40" y1="103.70" x2="219.87" y2="109.62" />
<line fill="none" stroke="#5674b9" stroke-width="0.04mm" stroke-dasharray="0.4,0.2" x1="221.40" y1="103.70" x2="228.54" y2="110.20" />
<line fill="none" stroke="#5674b9" stroke-width="0.04mm" stroke-dasharray="0.4,0.2" x1="221.40" y1="103.70" x2="240.80" y2="105.13" />
<line fill="none" stroke="#00aeef" stroke-width="0.04mm" stroke-dasharray="0.4,0.2" x1="221.40" y1="103.70" x2="242.82" y2="107.39" />
<line fill="none" stroke="#00aeef" stroke-width="0.04mm" stroke-dasharray="0.4,0.2" x1="221.40" y1="103.70" x2="232.00" y2="110.65" />
<line fill="none" stroke="#111111" stroke-width="0.04mm" x1="221.40" y1="103.70" x2="232.03" y2="113.20" />
<line fill="none" stroke="#5674b9" stroke-width="0.04mm" stroke-dasharray="0.4,0.2" x1="232.03" y1="113.20" x2="229.95" y2="112.49" />
<line fill="none" stroke="#5674b9" stroke-width="0.04mm" stroke-dasharray="0.4,0.2" x1="232.03" y1="113.20" x2="226.98" y2="101.83" />
<line fill="none" stroke="#5674b9" stroke-width="0.04mm" stroke-dasharray="0.4,0.2" x1="232.03" y1="113.20" x2="238.49" y2="137.73" />
<line fill="none" stroke="#5674b9" stroke-width="0.04mm" stroke-dasharray="0.4,0.2" x1="232.03" y1="113.20" x2="233.28" y2="118.23" />
<line fill="none" stroke="#5674b9" stroke-width="0.04mm" stroke-dasharray="0.4,0.2" x1="232.03" y1="113.20" x2="229.72" y2="117.04" />
<line fill="none" stroke="#5674b9" stroke-width="0.04mm" stroke-dasharray="0.4,0.2" x1="232.03" y1="113.20" x2="237.50" y2="123.56" />
<line fill="none" stroke="#5674b9" stroke-width="0.04mm" stroke-dasharray="0.4,0.2" x1="232.03" y1="113.20" x2="234.69" y2="124.53" />
<line fill="none" stroke="#5674b9" stroke-width="0.04mm" stroke-dasharray="0.4,0.2" x1="232.03" y1="113.20" x2="241.72" y2="124.13" />
<line fill="none" stroke="#5674b9" stroke-width="0.04mm" stroke-dasharray="0.4,0.2" x1="232.03" y1="113.20" x2="233.17" y2="114.68" />
<line fill="none" stroke="#00aeef" stroke-width="0.04mm" stroke-dasharray="0.4,0.2" x1="232.03" y1="113.20" x2="237.85" y2="120.86" />
<line fill="none" stroke="#111111" stroke-width="0.04mm" x1="232.03" y1="113.20" x2="244.29" y2="136.25" />
</g>
<g>
<circle cx="20.00" cy="21.00" r="0.1" fill="#111111" />
<circle cx="42.74" cy="21.06" r="0.1" fill="#111111" />
<circle cx="51.60" cy="22.02" r="0.1" fill="#111111" />
<circle cx="69.60" cy="30.48" r="0.1" fill="#111111" />
<circle cx="94.39" cy="50.54" r="0.1" fill="#111111" />
<circle cx="115.10" cy="66.71" r="0.1" fill="#111111" />
<circle cx="146.29" cy="70.63" r="0.1" fill="#111111" />
<circle cx="165.13" cy="88.32" r="0.1" fill="#111111" />
<circle cx="186.89" cy="96.71" r="0.1" fill="#111111" />
<circle cx="212.35" cy="106.19" r="0.1" fill="#111111" />
<circle cx="227.08" cy="115.36" r="0.1" fill="#111111" />
<circle cx="250.39" cy="117.77" r="0.1" fill="#111111" />
<circle cx="263.90" cy="129.08" r="0.1" fill="#111111" />
<circle cx="221.40" cy="103.70" r="0.1" fill="#111111" />
<circle cx="232.03" cy="113.20" r="0.1" fill="#111111" />
<circle cx="244.29" cy="136.25" r="0.1" fill="#111111" />
</g>
<g>
<text x="20.20" y="21.00" font-size=".2mm" fill="#000000">0</text>
<text x="42.94" y="21.06" font-size=".2mm" fill="#000000">1</text>
<text x="51.80" y="22.02" font-size=".2mm" fill="#000000">2</text>
<text x="69.80" y="30.48" font-size=".2mm" fill="#000000">3</text>
<text x="94.59" y="50.54" font-size=".2mm" fill="#000000">4</text>
<text x="115.30" y="66.71" font-size=".2mm" fill="#000000">5</text>
<text x="146.49" y="70.63" font-size=".2mm" fill="#000000">6</text>
<text x="165.33" y="88.32" font-size=".2mm" fill="#000000">7</text>
<text x="187.09" y="96.71" font-size=".2mm" fill="#000000">8</text>
<text x="212.55" y="106.19" font-size=".2mm" fill="#000000">9</text>
<text x="227.28" y="115.36" font-size=".2mm" fill="#000000">10</text>
<text x="250.59" y="117.77" font-size=".2mm" fill="#000000">11</text>
<text x="264.10" y="129.08" font-size=".2mm" fill="#000000">12</text>
<text x="221.60" y="103.70" font-size=".2mm" fill="#000000">9.1</text>
<text x="232.23" y="113.20" font-size=".2mm" fill="#000000">9.2</text>
<text x="244.49" y="136.25" font-size=".2mm" fill="#000000">9.3</text>
</g>
<g>
</g>
</g>
</svg>