<?xml version="1.0" encoding="utf-8"?>
<!DOCTYPE svg PUBLIC "-//W3C//DTD SVG 1.1//EN" "http://www.w3.org/Graphics/SVG/1.1/DTD/svg11.dtd">
<svg version="1.1" id="Layer_1" xmlns="http://www.w3.org/2000/svg" xmlns:xlink="http://www.w3.org/1999/xlink" x="0px" y="0px" width="640mm" height="511mm" viewBox="0 0 640 511" enable-background="new 0 0 640 511" xml:space="preserve">
<symbol id="airflow" viewBox="-12 -12 24 24">
<path d="M-4.38,10.73l4.2-3.84V3.55L-4.07,7.13l-.31-.29L-.18,3V-6.89a3.37,3.37,0,0,0-1.68.53l1.68-4.15L0-11l.21.51h0v0l1.65,4.1A3.26,3.26,0,0,0,.24-6.89v14l-.08,0L-4.07,11Z"/>
<rect fill="none" x="-12" y="-12" width="24" height="24"/>
</symbol>
<symbol id="anastomosis" viewBox="-12 -12 24 24">
<path d="M2.23-4.78l.37.24L5.22-2.78l-.47.57L2.49-3.7l-4.61,8-.24.44-.37-.34L-5.22,2.3l.55-.52,2.1,1.82L2-4.39Z"/>
<rect fill="none" x="-12" y="-12" width="24" height="24"/>
</symbol>
<symbol id="bivouac" viewBox="-12 -12 24 24">
<path d="M.25-7.66l.24.58L.54-7l3.88.48-3.31.91L6,6H8.35v.48l-16.7.07V6.05h2.64L0-7.08Zm0,1.32L-5.13,6H-4l2.07-5L.2-4l2.09,5L4.37,6H5.44Z"/>
<rect fill="none" x="-12" y="-12" width="24" height="24"/>
</symbol>
<symbol id="bones" viewBox="-12 -12 24 24">
<path d="M2.44,4.27l-.16,0H2.13a.22.22,0,0,1-.11,0l-.1-.06a.39.39,0,0,1-.09-.11l-.08-.13a1.51,1.51,0,0,1-.06-.15l-.07-.17s0-.11-.08-.19-.06-.16-.08-.21a4.75,4.75,0,0,0-.38-.71c-.18-.29-.43-.64-.74-1A11.15,11.15,0,0,0-.7.32,6.73,6.73,0,0,0-2-.64a4.12,4.12,0,0,0-1.44-.52A1.64,1.64,0,0,1-5-2.19.72.72,0,0,1-5-2.44a1,1,0,0,1,0-.29A.52.52,0,0,1-4.87-3a.54.54,0,0,1,.35-.15L-4-3.22l.46,0a.54.54,0,0,0,.27-.06A.52.52,0,0,0-3-3.56a.74.74,0,0,0,.13-.31.54.54,0,0,1,.15-.26.54.54,0,0,1,.3-.15.83.83,0,0,1,.47,0,1.11,1.11,0,0,1,.35.4A7.46,7.46,0,0,1-1-2.76q.18.42.33.72a3.22,3.22,0,0,0,.39.57L.1-1a4.77,4.77,0,0,0,.58.43c.28.18.51.33.69.43l1,.56a1.84,1.84,0,0,0,.39.23A5.29,5.29,0,0,1,3.22.9l.43.26a3.7,3.7,0,0,1,.46.3l.36.29a2.28,2.28,0,0,1,.31.32A1,1,0,0,1,5,2.4c.2.48,0,.78-.47.91h0a8.48,8.48,0,0,0-1.12.09,1,1,0,0,0-.42.44A1,1,0,0,1,2.44,4.27Z"/>
<rect fill="none" x="-12" y="-12" width="24" height="24"/>
</symbol>
<symbol id="calcite" viewBox="-12 -12 24 24">
<path d="M2.36-2.22l.05.46.34,3.91L2,2.22,1.65-1.26-2.52-.06l-.23-.7L1.89-2.08Z"/>
<rect fill="none" x="-12" y="-12" width="24" height="24"/>
</symbol>
<symbol id="cauliflower" viewBox="-12 -12 24 24">
<path d="M5.58,3.22v-3A2.12,2.12,0,0,0,6.92-.43a1.78,1.78,0,0,0,.55-1.32,1.92,1.92,0,0,0-.65-1.42,2.19,2.19,0,0,0-1.53-.59,2.21,2.21,0,0,0-1.54.59,1.78,1.78,0,0,0-.64,1.42A1.86,1.86,0,0,0,3.65-.43,2.12,2.12,0,0,0,5,.23v3H.26v-3A2.17,2.17,0,0,0,1.61-.43a1.81,1.81,0,0,0,.54-1.32,1.91,1.91,0,0,0-.64-1.42A2.21,2.21,0,0,0,0-3.76a2.21,2.21,0,0,0-1.54.59,1.82,1.82,0,0,0-.64,1.42A1.83,1.83,0,0,0-1.66-.43,2.12,2.12,0,0,0-.32.23v3H-5v-3A2.12,2.12,0,0,0-3.71-.43a1.78,1.78,0,0,0,.55-1.32,1.92,1.92,0,0,0-.65-1.42,2.19,2.19,0,0,0-1.53-.59,2.21,2.21,0,0,0-1.54.59,1.83,1.83,0,0,0-.65,1.42A1.87,1.87,0,0,0-7-.43,2.12,2.12,0,0,0-5.64.23v3H-8v.54H8V3.22Z"/>
<rect fill="none" x="-12" y="-12" width="24" height="24"/>
</symbol>
<symbol id="clay" viewBox="-12 -12 24 24">
<path d="M1.85-1.33a3,3,0,0,1,1.67.48,3.23,3.23,0,0,1,1,1l.29.51-1,.43a3.81,3.81,0,0,0-.23-.4A3.74,3.74,0,0,0,2.93,0,1.77,1.77,0,0,0,1.85-.32a2.57,2.57,0,0,0-1.1.15A.86.86,0,0,0,.51.14,2.23,2.23,0,0,1,0,.88a2.55,2.55,0,0,1-1.45.43,3.16,3.16,0,0,1-2.75-1,4.28,4.28,0,0,1-.37-.57,3.91,3.91,0,0,1-.21-.47l0-.16,1-.22a1.87,1.87,0,0,0,.45.79A2.12,2.12,0,0,0-1.51.33,1.82,1.82,0,0,0-.69.14l.21-.36A1.53,1.53,0,0,1,.17-1,3.76,3.76,0,0,1,1.85-1.33Z"/>
<rect fill="none" x="-12" y="-12" width="24" height="24"/>
</symbol>
<symbol id="crystals" viewBox="-12 -12 24 24">
<path d="M-2.94-5.38,0-.72,2.94-5.38,3.62-5,.68-.36H6.56V.36H.68L3.62,5l-.68.36L0,.72-2.94,5.38-3.62,5-.68.36H-6.56V-.36H-.68L-3.62-5Z"/>
<rect fill="none" x="-12" y="-12" width="24" height="24"/>
</symbol>
<symbol id="curtain" viewBox="-12 -12 24 24">
<path d="M3.57-6.69l.52.53L.39-3V-.33L.1-.26a3.79,3.79,0,0,0-1,.41c-.58.3-.87.65-.87,1v.07A1.61,1.61,0,0,0-.84,2.48a3.69,3.69,0,0,0,.45.24L0,2.86l.13.05L.39,3V6.12H-.39V3.51a7.65,7.65,0,0,1-.9-.46A2.19,2.19,0,0,1-2.54,1.28V1.23A2,2,0,0,1-1.31-.48,5.32,5.32,0,0,1-.39-.86V-3l-3.7-3.14.52-.53L0-3.67Z"/>
<rect fill="none" x="-12" y="-12" width="24" height="24"/>
</symbol>
<symbol id="disk" viewBox="-12 -12 24 24">
<path d="M-.09-4.19a2.43,2.43,0,0,1,1.7.64A2,2,0,0,1,2.35-2,2.09,2.09,0,0,1,1.81-.55,2.44,2.44,0,0,1,.35.23l2.18,3.6-.68.33L0,1.14-1.48,4.19l-.71-.29L-.41.25A2.53,2.53,0,0,1-1.9-.47a2,2,0,0,1-.63-1.41,2,2,0,0,1,.67-1.61,2.46,2.46,0,0,1,1.72-.7ZM1.05-3.06.56-3.49l-.69,0A1.72,1.72,0,0,0-1.29-3a1.51,1.51,0,0,0-.45,1.08,1.36,1.36,0,0,0,.51,1A1.68,1.68,0,0,0-.07-.44v0l0,0A1.7,1.7,0,0,0,1.11-.92,1.36,1.36,0,0,0,1.56-2,1.47,1.47,0,0,0,1.05-3.06Z"/>
<rect fill="none" x="-12" y="-12" width="24" height="24"/>
</symbol>
<symbol id="entrance" viewBox="-12 -12 24 24">
<path d="M4.46,9H-4.46L0-9Z"/>
<rect fill="none" x="-12" y="-12" width="24" height="24"/>
</symbol>
<symbol id="flowstone" viewBox="-12 -12 24 24">
<rect x="-6" y="-0.21" width="12" height="0.42"/>
<rect fill="none" x="-12" y="-12" width="24" height="24"/>
</symbol>
<symbol id="flutes" viewBox="-12 -12 24 24">
<path d="M-7-1H7v.72H3.87A4.7,4.7,0,0,1,2.16,1.5,4.2,4.2,0,0,1,0,2.13,3.94,3.94,0,0,1-2.19,1.5,4.18,4.18,0,0,1-3.76-.27H-7Zm4.17.72A3.15,3.15,0,0,0-1.65,1,3.21,3.21,0,0,0,0,1.41,3.49,3.49,0,0,0,1.6,1,3.68,3.68,0,0,0,3-.27Z"/>
<rect fill="none" x="-12" y="-12" width="24" height="24"/>
</symbol>
<symbol id="gradient" viewBox="-12 -12 24 24">
<path d="M2.58-3.83,0-10-2.58-3.83A4.74,4.74,0,0,1-.17-4.5V10H.25V-4.5A6.65,6.65,0,0,1,2.58-3.83Z"/>
<rect fill="none" x="-12" y="-12" width="24" height="24"/>
</symbol>
<symbol id="guano" viewBox="-12 -12 24 24">
<path d="M-3.24-3a2.15,2.15,0,0,1,1.57.55A3.93,3.93,0,0,1-.59.24a4.32,4.32,0,0,1,2.75-2.3,2.68,2.68,0,0,1,2.23.36A2.36,2.36,0,0,1,5.5.19l-.79,0a1.72,1.72,0,0,0-.79-1.37,1.94,1.94,0,0,0-1.55-.24A3.53,3.53,0,0,0,.48,0,6.63,6.63,0,0,0-.69,3l-.79-.09a10.72,10.72,0,0,0,0-3.16A3.21,3.21,0,0,0-2.22-2,1.44,1.44,0,0,0-3.37-2.3,3.45,3.45,0,0,0-5-1.54l-.5-.55a4.29,4.29,0,0,1,2-.91A.9.9,0,0,1-3.24-3Z"/>
<rect fill="none" x="-12" y="-12" width="24" height="24"/>
</symbol>
<symbol id="helictites" viewBox="-12 -12 24 24">
<path d="M-4.59-7.92h.79v7.7l3.41,0V-7.92H.39V-.17L4.2-.12h.39v8H3.8V.6L.39.55V7.92H-.39V.55L-4.2.5l-.39,0v-8.4Z"/>
<rect fill="none" x="-12" y="-12" width="24" height="24"/>
</symbol>
<symbol id="human" viewBox="-12 -12 24 24">
<path d="M-3.59-3.29A5.13,5.13,0,0,1,0-4.66,5.13,5.13,0,0,1,3.59-3.29,4.3,4.3,0,0,1,5.09,0a4.3,4.3,0,0,1-1.5,3.29A5.13,5.13,0,0,1,0,4.66,5.13,5.13,0,0,1-3.59,3.29,4.3,4.3,0,0,1-5.09,0,4.3,4.3,0,0,1-3.59-3.29Zm.28.77A3.68,3.68,0,0,0-4.3,0a3.62,3.62,0,0,0,1,2.57L-.5.05ZM0-3.94A4.42,4.42,0,0,0-2.75-3L.16-.36H4.28A3.62,3.62,0,0,0,2.91-2.9,4.38,4.38,0,0,0,0-3.94ZM.16.46-2.7,3.07A4.42,4.42,0,0,0,0,3.94a4.37,4.37,0,0,0,2.87-1A3.78,3.78,0,0,0,4.28.46Z"/>
<rect fill="none" x="-12" y="-12" width="24" height="24"/>
</symbol>
<symbol id="karren" viewBox="-12 -12 24 24">
<path d="M1-5.84h0a1.37,1.37,0,0,1,1.06.68A3.33,3.33,0,0,1,2.5-3.79,25.79,25.79,0,0,1,2.36,0a18.61,18.61,0,0,0-.08,3.72,2.68,2.68,0,0,0,.41,1.2,1.13,1.13,0,0,0,.79.5A.92.92,0,0,0,4,4.94a4.43,4.43,0,0,0,.47-1.22c.16-.64.36-1.86.59-3.66a26.71,26.71,0,0,1,.64-3.69,4.62,4.62,0,0,1,.57-1.29,1.34,1.34,0,0,1,1-.59h0A1.28,1.28,0,0,1,8.37-5a2.17,2.17,0,0,1,.39,1.15A19.91,19.91,0,0,1,8.54-.53a21.51,21.51,0,0,0-.2,3.64A2.64,2.64,0,0,0,9.45,5.36,1.91,1.91,0,0,0,10.88,5a3.84,3.84,0,0,0,.7-1l.42.2-.1.18-.12.21-.11.18L11.52,5a.94.94,0,0,1-.14.16c-.06.07-.13.12-.19.18a2.5,2.5,0,0,1-1.85.41H9.29l0,0A3.06,3.06,0,0,1,7.87,3.13a22.11,22.11,0,0,1,.2-3.7,18.17,18.17,0,0,0,.22-3.28A1.85,1.85,0,0,0,8-4.79a.77.77,0,0,0-.67-.3.93.93,0,0,0-.64.42,4.51,4.51,0,0,0-.51,1.15A26.26,26.26,0,0,0,5.54.1c-.24,1.83-.45,3.07-.61,3.72a5.38,5.38,0,0,1-.51,1.34,1.33,1.33,0,0,1-.89.68H3.47A1.58,1.58,0,0,1,2.3,5.16a3.29,3.29,0,0,1-.49-1.4A20.27,20.27,0,0,1,1.89,0,23.45,23.45,0,0,0,2-3.75a2.94,2.94,0,0,0-.32-1.19A.93.93,0,0,0,1-5.42,1.1,1.1,0,0,0,.19-5,3.69,3.69,0,0,0-.43-3.76,20.78,20.78,0,0,0-1.07.07c-.2,2-.37,3.32-.49,3.86A4.48,4.48,0,0,1-2,5.26,1.06,1.06,0,0,1-3,5.81h0a1.9,1.9,0,0,1-1.29-.67,2.7,2.7,0,0,1-.58-1.31,14.92,14.92,0,0,1,0-3.6q0-.12.06-.54c0-.28,0-.47,0-.57s0-.28,0-.52,0-.42,0-.55,0-.28,0-.47,0-.36,0-.51,0-.29,0-.43A3.09,3.09,0,0,0-5-4.62a1.19,1.19,0,0,0-.67-.6,1.5,1.5,0,0,0-1.2.9A7,7,0,0,0-7.41-2.1c0,.39-.1,1-.14,1.76s-.11,1.47-.18,2.08A9.61,9.61,0,0,1-8,3.32h0l0,0A2.81,2.81,0,0,1-9.2,4.62a1.82,1.82,0,0,1-1.35.15A1.94,1.94,0,0,1-11.61,4,2.39,2.39,0,0,1-12,2.56l.47,0a1.92,1.92,0,0,0,.31,1.16,1.47,1.47,0,0,0,.81.62,1.3,1.3,0,0,0,1-.11A2.32,2.32,0,0,0-8.5,3.18a7.53,7.53,0,0,0,.29-1.5Q-8.1.8-8-.36c0-.78.1-1.37.16-1.78A7.23,7.23,0,0,1-7.28-4.5,1.93,1.93,0,0,1-5.65-5.66h.05l0,0a1.59,1.59,0,0,1,1,.84,3.47,3.47,0,0,1,.34,1.41,4.91,4.91,0,0,1,0,.57v.54c0,.15,0,.37,0,.66s0,.47,0,.58,0,.33-.06.68,0,.56-.06.63a14.78,14.78,0,0,0,0,3.49,2.58,2.58,0,0,0,.5,1.13,1.57,1.57,0,0,0,1,.5A.61.61,0,0,0-2.44,5,3.89,3.89,0,0,0-2,3.85C-1.9,3.31-1.74,2-1.53,0A20.65,20.65,0,0,1-.86-3.89,3.89,3.89,0,0,1-.18-5.26,1.58,1.58,0,0,1,1-5.84Z"/>
<rect fill="none" x="-12" y="-12" width="24" height="24"/>
</symbol>
<symbol id="moonmilk" viewBox="-12 -12 24 24">
<path d="M-4.78-3.06a3.39,3.39,0,0,1,1.5.34,2.48,2.48,0,0,1,1.1,1,3.74,3.74,0,0,1,1.62-.8,3.52,3.52,0,0,1,1.71,0,2.9,2.9,0,0,1,1.39.77A2.49,2.49,0,0,1,3.25-.37,4,4,0,0,1,5-.76a3.58,3.58,0,0,1,1.6.36A2.84,2.84,0,0,1,7.88.92a2.32,2.32,0,0,1,0,1.88.34.34,0,0,1-.37.26A.36.36,0,0,1,7.25,3a.32.32,0,0,1-.12-.25.21.21,0,0,1,0-.12,2,2,0,0,0,0-1.43,2,2,0,0,0-1-.9A2.81,2.81,0,0,0,4.68,0,2.78,2.78,0,0,0,3.12.56L2.46.25A1.7,1.7,0,0,0,2.15-1.1,2.15,2.15,0,0,0,1-1.81a2.85,2.85,0,0,0-1.58.06A3,3,0,0,0-2-.83l-.71-.12A1.74,1.74,0,0,0-3.55-2a2.36,2.36,0,0,0-1.39-.27,3.08,3.08,0,0,0-1.45.53A2.33,2.33,0,0,0-7.32-.56a.35.35,0,0,1-.37.24A.39.39,0,0,1-8-.42a.33.33,0,0,1-.1-.26v-.1A3,3,0,0,1-6.89-2.35,4,4,0,0,1-5-3Z"/>
<rect fill="none" x="-12" y="-12" width="24" height="24"/>
</symbol>
<symbol id="narrow" viewBox="-12 -12 24 24">
<path d="M-1.5,5V-5h0.64V5H-1.5z"/>
<path d="M0.86,5V-5H1.5V5H0.86z"/>
<rect fill="none" x="-12" y="-12" width="24" height="24"/>
</symbol>
<symbol id="paleoflow" viewBox="-12 -12 24 24">
<path d="M.38-12V.17A1.9,1.9,0,0,0,1,0,1.57,1.57,0,0,0,1.7-.72a1.86,1.86,0,0,0,.23-1c0-.09,0-.14.08-.16a.92.92,0,0,1,.24,0,.52.52,0,0,0,.25,0h.08A2.48,2.48,0,0,1,2,0,2.5,2.5,0,0,1,.38.77V7.21H2.09L0,12-1.8,7.23c.07,0,.59,0,1.53,0V.77A3,3,0,0,1-1.35.43a2.16,2.16,0,0,1-1-1,2.38,2.38,0,0,1-.24-1.33l.67,0a2,2,0,0,0,.15,1,1.73,1.73,0,0,0,.59.67A2.14,2.14,0,0,0-.27.16V-12Z"/>
<rect fill="none" x="-12" y="-12" width="24" height="24"/>
</symbol>
<symbol id="rain" viewBox="-12 -12 24 24">
<path d="M-4.14-6.34h0.71v4.69h-0.71V-6.34z"/>
<path d="M-0.35-6.34h0.71v4.69h-0.71V-6.34z"/>
<path d="M3.43-6.34h0.71v4.69H3.43V-6.34z"/>
<path d="M-4.14,1.65h0.71v4.69h-0.71V1.65z"/>
<path d="M-0.35,1.65h0.71v4.69h-0.71V1.65z"/>
<path d="M3.43,1.65h0.71v4.69H3.43V1.65z"/>
<rect fill="none" x="-12" y="-12" width="24" height="24"/>
</symbol>
<symbol id="rats" viewBox="-12 -12 24 24">
<path d="M8.78-2.32,7-2.27c-.51-.17-.65-.56-1.46-.45l-.25.45C3.59-2.75,2.59-3.66.56-3.62l-1.35.3A4.89,4.89,0,0,0-4.24,1.57c-.68.6-2.58.86-3.39.94a6.84,6.84,0,0,0-1.62.39,4.91,4.91,0,0,0-1,.52A1.75,1.75,0,0,0-11,4.61a1.16,1.16,0,0,0,.59,1.48,1.3,1.3,0,0,1,.14.12c.16-.52-.35-.92-.2-1.42a3.35,3.35,0,0,1,.27-.45,3.18,3.18,0,0,1,1.79-1c.63-.12,1.27-.22,1.91-.3.48-.07,1,0,1.4-.12A6.94,6.94,0,0,1-4,2.82,30.64,30.64,0,0,0,.41,2.69l2.16.15c.1-.09,0,0,.1-.15a.87.87,0,0,0-.9-.55c.86-1,2.27-.37,3.1-.05.5.19,1,0,1.25.4.11-.1.1-.07.15-.25.3,0,.31.07.6.15-.06-.49-.34-.64-1-.6a.78.78,0,0,1,0-.55C6.3.56,7.29.73,8.13.43a13.78,13.78,0,0,0,2.15-.9l.6-.85v-.2A16.9,16.9,0,0,0,8.78-2.32Z"/>
<rect fill="none" x="-12" y="-12" width="24" height="24"/>
</symbol>
<symbol id="sand" viewBox="-12 -12 24 24">
<path d="M-1.58,0.83c0.23,0.2,0.35,0.44,0.36,0.73c0.01,0.29-0.08,0.54-0.28,0.75c-0.2,0.21-0.46,0.32-0.78,0.33c-0.32,0.01-0.6-0.08-0.83-0.26C-3.36,2.19-3.49,1.95-3.5,1.67C-3.51,1.38-3.41,1.12-3.2,0.9c0.21-0.22,0.48-0.34,0.8-0.35C-2.08,0.54-1.81,0.64-1.58,0.83z"/>
<path d="M0.08-2.36c0.23,0.2,0.35,0.44,0.36,0.73c0.01,0.29-0.08,0.54-0.28,0.75c-0.2,0.21-0.46,0.32-0.78,0.33c-0.32,0.01-0.59-0.07-0.83-0.26s-0.37-0.42-0.38-0.71c-0.01-0.29,0.09-0.54,0.3-0.76c0.21-0.22,0.48-0.33,0.8-0.35C-0.42-2.65-0.14-2.56,0.08-2.36z"/>
<path d="M3.12,0.55c0.23,0.2,0.35,0.43,0.38,0.71c0.02,0.28-0.07,0.53-0.28,0.75C3,2.23,2.73,2.35,2.42,2.36C2.1,2.37,1.82,2.28,1.58,2.08C1.34,1.88,1.22,1.64,1.2,1.35c-0.01-0.29,0.09-0.54,0.3-0.75C1.72,0.4,1.99,0.29,2.3,0.28S2.89,0.36,3.12,0.55z"/>
<rect fill="none" x="-12" y="-12" width="24" height="24"/>
</symbol>
<symbol  id="scallops" viewBox="-12 -12 24 24">
<path d="M.05-3.74l.21,0A2.35,2.35,0,0,1,1.74-3a2,2,0,0,1,.59,1.55v0l0,0A9.59,9.59,0,0,1-.08,3.27l-.39.47-.27-.55A14.26,14.26,0,0,1-2.33-1.89v-.05l0-.05A2,2,0,0,1-1.44-3.3,2.42,2.42,0,0,1,.05-3.74ZM-.11-3A1.44,1.44,0,0,0-1.55-1.89,13.06,13.06,0,0,0-.29,2.33,8.6,8.6,0,0,0,1.55-1.54a1.41,1.41,0,0,0-.38-1A1.62,1.62,0,0,0,.18-3Z"/>
<rect fill="none" x="-12" y="-12" width="24" height="24"/>
</symbol>
<symbol  id="sink" viewBox="-12 -12 24 24">
<path d="M.72,9.41H.9c1.94,0,3.26-.54,3.94-1.51a3.61,3.61,0,0,0,.33-.69,2,2,0,0,0,.11-.54V6.46l.69,0a2.8,2.8,0,0,1-.58,1.78C4.58,9.39,3.1,10,.93,10H-.93q-3.25,0-4.46-1.8a2.74,2.74,0,0,1-.43-.83A2.37,2.37,0,0,1-6,6.67V6.43l.68,0A2.27,2.27,0,0,0-4.84,7.9c.68,1,2,1.47,3.93,1.48l.5,0ZM-1.46-10a.68.68,0,0,0,.16.41A2.77,2.77,0,0,0-.51-9l0,0a3.63,3.63,0,0,1,1,.7,1.15,1.15,0,0,1,.34.88c0,.58-.53,1.14-1.49,1.68-.68.42-1,.79-1,1.11s.3.61.84,1h0Q.61-2.86.46-1.78a3.51,3.51,0,0,1-1.55,2,.61.61,0,0,0-.26.41,1.67,1.67,0,0,0,.1.51,5.3,5.3,0,0,1,.32,1L.56,1.9.46,8.06-3.4,2.54l1.73-.28A6.16,6.16,0,0,0-2,1.39,1.7,1.7,0,0,1-2.09.58a1.21,1.21,0,0,1,.53-.82h0v0C-.75-.86-.33-1.38-.28-1.85s-.23-.87-.91-1.27h0C-2-3.6-2.37-4.1-2.4-4.61S-2-5.74-1.09-6.29C-.34-6.72.06-7.1.09-7.44a.67.67,0,0,0-.18-.43,3.17,3.17,0,0,0-.79-.58,2.93,2.93,0,0,1-1-.67A1.16,1.16,0,0,1-2.17-10Z"/>
<rect fill="none" x="-12" y="-12" width="24" height="24"/>
</symbol>
<symbol  id="spring" viewBox="-12 -12 24 24">
<path d="M-1.34-9.86,2.52-4.34.78-4.06a8,8,0,0,0,.29.87,1.4,1.4,0,0,1,.13.79,1.3,1.3,0,0,1-.52.84l0,0v0C-.13-.95-.55-.42-.61,0S-.37.91.31,1.3l0,0c.75.46,1.14,1,1.18,1.46S1.12,3.92.21,4.46C-.54,4.9-.94,5.29-1,5.64a.74.74,0,0,0,.18.43A3.2,3.2,0,0,0,0,6.62a3,3,0,0,1,1,.7,1.14,1.14,0,0,1,.31.86A1.74,1.74,0,0,1,.71,9.26H.92c1.92,0,3.22-.52,3.9-1.51a2.05,2.05,0,0,0,.35-.67,2.59,2.59,0,0,0,.1-.55l0-.19.65,0a2.84,2.84,0,0,1-.55,1.8C4.58,9.26,3.08,9.85.92,9.86H-.92c-2.17,0-3.66-.6-4.49-1.77a3.65,3.65,0,0,1-.4-.85A2.43,2.43,0,0,1-6,6.53V6.29l.66,0a2.08,2.08,0,0,0,.47,1.41c.68,1,2,1.5,3.91,1.51H-.4c.62-.43.94-.8,1-1.1a.76.76,0,0,0-.16-.43,3.25,3.25,0,0,0-.79-.51v0a3.8,3.8,0,0,1-1-.7,1.15,1.15,0,0,1-.34-.91q.06-.84,1.5-1.68c.68-.4,1-.77,1-1.1S.49,2.21,0,1.87c0,0,0,0,0,0C-1,1.32-1.44.69-1.34,0a3.58,3.58,0,0,1,1.55-2,.54.54,0,0,0,.23-.38A1.28,1.28,0,0,0,.37-3a4.57,4.57,0,0,1-.32-1l-1.49.24Z"/>
<rect fill="none" x="-12" y="-12" width="24" height="24"/>
</symbol>
<symbol  id="stalactite" viewBox="-12 -12 24 24">
<path d="M3.57-6.69l.52.53L.39-3V6.12H-.39V-3l-3.7-3.14.52-.53L0-3.67Z"/>
<rect fill="none" x="-12" y="-12" width="24" height="24"/>
</symbol>
<symbol  id="stalagmite" viewBox="-12 -12 24 24">
<path d="M.38-6.42V2.75L4.11,5.89l-.56.53L0,3.4l-3.57,3-.53-.53,3.7-3.14V-6.42Z"/>
<rect fill="none" x="-12" y="-12" width="24" height="24"/>
</symbol>
<symbol  id="stalagnate" viewBox="-12 -12 24 24">
<path d="M3.55-8.46l.56.53L.38-4.78v9L4.11,7.36l-.56.53L0,4.86l-3.57,3-.53-.53,3.7-3.14v-9l-3.7-3.15.53-.53L0-5.43Z"/>
<rect fill="none" x="-12" y="-12" width="24" height="24"/>
</symbol>
<symbol  id="straws" viewBox="-12 -12 24 24">
<path d="M-10.89-2.76H10.89V-2H9.63V.46H8.84V-2H8.29v5.6H7.5V-2H5.56V.7H4.77V-2H2.07V2.38H1.29V-2H-.1v3H-.89V-2H-3.2V4.11H-4V-2H-6.22L-6.16.75l-.79,0L-7-2H-8.32V2.33H-9.1V-2h-1.79Z"/>
<rect fill="none" x="-12" y="-12" width="24" height="24"/>
</symbol>
<symbol  id="water" viewBox="-12 -12 24 24">
<path d="M-1.72-9.86,2.11-4.32.38-4.06a6.49,6.49,0,0,0,.29.89,1.5,1.5,0,0,1,.13.79,1.2,1.2,0,0,1-.5.82h0l0,0C-.54-.94-1-.42-1,.05s.24.89.92,1.27h0c.77.48,1.17,1,1.19,1.49S.71,3.94-.2,4.49c-.75.43-1.13.81-1.15,1.15a.51.51,0,0,0,.18.43,2.66,2.66,0,0,0,.76.58,2.93,2.93,0,0,1,1,.67,1.16,1.16,0,0,1,.29.89C.84,8.75.42,9.3-.41,9.86l-.44-.55c.66-.45,1-.83,1-1.15A.47.47,0,0,0,0,7.75a2.84,2.84,0,0,0-.78-.53h0a3.87,3.87,0,0,1-1-.69,1.24,1.24,0,0,1-.34-.91c0-.58.54-1.14,1.52-1.68.66-.42,1-.79,1-1.11s-.3-.61-.84-1h0Q-1.9,1.06-1.74,0a3.44,3.44,0,0,1,1.54-2,.67.67,0,0,0,.27-.41A1.11,1.11,0,0,0,0-3a4.33,4.33,0,0,1-.31-1l-1.5.24Z"/>
<rect fill="none" x="-12" y="-12" width="24" height="24"/>
</symbol><symbol  id="tree" viewBox="-12 -12 24 24">
<path d="M7.4-5.04A4.271,4.271,0,0,0,7.7-6.627a4.3,4.3,0,0,0-4.3-4.3A4.279,4.279,0,0,0,.636-9.914,4.293,4.293,0,0,0-3.045-12a4.3,4.3,0,0,0-4.3,4.3,4.27,4.27,0,0,0,.421,1.845,4.3,4.3,0,0,0-3.645,4.244,4.3,4.3,0,0,0,4.3,4.3A4.282,4.282,0,0,0-3.946,2L-1.175,5.23h0L-1.612,12H.982L.757,6.376,4.119,2.827v0a4.272,4.272,0,0,0,2.15.58,4.3,4.3,0,0,0,4.3-4.3A4.3,4.3,0,0,0,7.4-5.04ZM-3.346,1.538h0A4.346,4.346,0,0,0-2.7.788a4.266,4.266,0,0,0,1.765.753l-.135,2.087ZM.69,4.7.563,1.544A4.258,4.258,0,0,0,2.321.805,4.3,4.3,0,0,0,3.378,2.279Z"/>
<rect fill="none" x="-12" y="-12" width="24" height="24"/>
</symbol><g>
<desc></desc>
<g>
<line fill="none" stroke="#dddddd" stroke-width="0.1mm" x1="0.00" y1="150.00" x2="640.00" y2="150.00" />
<text x="637.20" y="149.80" font-size=".2mm" fill="#000000">0m</text>
<line fill="none" stroke="#dddddd" stroke-width="0.1mm" x1="0.00" y1="130.00" x2="640.00" y2="130.00" />
<text x="637.20" y="129.80" font-size=".2mm" fill="#000000">1m</text>
<line fill="none" stroke="#dddddd" stroke-width="0.1mm" x1="0.00" y1="110.00" x2="640.00" y2="110.00" />
<text x="637.20" y="109.80" font-size=".2mm" fill="#000000">2m</text>
<line fill="none" stroke="#dddddd" stroke-width="0.1mm" x1="0.00" y1="90.00" x2="640.00" y2="90.00" />
<text x="637.20" y="89.80" font-size=".2mm" fill="#000000">3m</text>
<line fill="none" stroke="#dddddd" stroke-width="0.1mm" x1="0.00" y1="70.00" x2="640.00" y2="70.00" />
<text x="637.20" y="69.80" font-size=".2mm" fill="#000000">4m</text>
<line fill="none" stroke="#dddddd" stroke-width="0.1mm" x1="0.00" y1="50.00" x2="640.00" y2="50.00" />
<text x="637.20" y="49.80" font-size=".2mm" fill="#000000">5m</text>
<line fill="none" stroke="#dddddd" stroke-width="0.1mm" x1="0.00" y1="30.00" x2="640.00" y2="30.00" />
<text x="637.20" y="29.80" font-size=".2mm" fill="#000000">6m</text>
<line fill="none" stroke="#dddddd" stroke-width="0.1mm" x1="0.00" y1="10.00" x2="640.00" y2="10.00" />
<text x="637.20" y="9.80" font-size=".2mm" fill="#000000">7m</text>
<line fill="none" stroke="#dddddd" stroke-width="0.1mm" x1="0.00" y1="170.00" x2="640.00" y2="170.00" />
<text x="637.20" y="169.80" font-size=".2mm" fill="#000000">-1m</text>
<line fill="none" stroke="#dddddd" stroke-width="0.1mm" x1="0.00" y1="190.00" x2="640.00" y2="190.00" />
<text x="637.20" y="189.80" font-size=".2mm" fill="#000000">-2m</text>
<line fill="none" stroke="#dddddd" stroke-width="0.1mm" x1="0.00" y1="210.00" x2="640.00" y2="210.00" />
<text x="637.20" y="209.80" font-size=".2mm" fill="#000000">-3m</text>
<line fill="none" stroke="#dddddd" stroke-width="0.1mm" x1="0.00" y1="230.00" x2="640.00" y2="230.00" />
<text x="637.20" y="229.80" font-size=".2mm" fill="#000000">-4m</text>
<line fill="none" stroke="#dddddd" stroke-width="0.1mm" x1="0.00" y1="250.00" x2="640.00" y2="250.00" />
<text x="637.20" y="249.80" font-size=".2mm" fill="#000000">-5m</text>
<line fill="none" stroke="#dddddd" stroke-width="0.1mm" x1="0.00" y1="270.00" x2="640.00" y2="270.00" />
<text x="637.20" y="269.80" font-size=".2mm" fill="#000000">-6m</text>
<line fill="none" stroke="#dddddd" stroke-width="0.1mm" x1="0.00" y1="290.00" x2="640.00" y2="290.00" />
<text x="637.20" y="289.80" font-size=".2mm" fill="#000000">-7m</text>
<line fill="none" stroke="#dddddd" stroke-width="0.1mm" x1="0.00" y1="310.00" x2="640.00" y2="310.00" />
<text x="637.20" y="309.80" font-size=".2mm" fill="#000000">-8m</text>
<line fill="none" stroke="#dddddd" stroke-width="0.1mm" x1="0.00" y1="330.00" x2="640.00" y2="330.00" />
<text x="637.20" y="329.80" font-size=".2mm" fill="#000000">-9m</text>
<line fill="none" stroke="#dddddd" stroke-width="0.1mm" x1="0.00" y1="350.00" x2="640.00" y2="350.00" />
<text x="637.20" y="349.80" font-size=".2mm" fill="#000000">-10m</text>
<line fill="none" stroke="#dddddd" stroke-width="0.1mm" x1="0.00" y1="370.00" x2="640.00" y2="370.00" />
<text x="637.20" y="369.80" font-size=".2mm" fill="#000000">-11m</text>
<line fill="none" stroke="#dddddd" stroke-width="0.1mm" x1="0.00" y1="390.00" x2="640.00" y2="390.00" />
<text x="637.20" y="389.80" font-size=".2mm" fill="#000000">-12m</text>
<line fill="none" stroke="#dddddd" stroke-width="0.1mm" x1="0.00" y1="410.00" x2="640.00" y2="410.00" />
<text x="637.20" y="409.80" font-size=".2mm" fill="#000000">-13m</text>
<line fill="none" stroke="#dddddd" stroke-width="0.1mm" x1="0.00" y1="430.00" x2="640.00" y2="430.00" />
<text x="637.20" y="429.80" font-size=".2mm" fill="#000000">-14m</text>
<line fill="none" stroke="#dddddd" stroke-width="0.1mm" x1="0.00" y1="450.00" x2="640.00" y2="450.00" />
<text x="637.20" y="449.80" font-size=".2mm" fill="#000000">-15m</text>
<line fill="none" stroke="#dddddd" stroke-width="0.1mm" x1="0.00" y1="470.00" x2="640.00" y2="470.00" />
<text x="637.20" y="469.80" font-size=".2mm" fill="#000000">-16m</text>
<line fill="none" stroke="#dddddd" stroke-width="0.1mm" x1="0.00" y1="490.00" x2="640.00" y2="490.00" />
<text x="637.20" y="489.80" font-size=".2mm" fill="#000000">-17m</text>
<line fill="none" stroke="#dddddd" stroke-width="0.1mm" x1="0.00" y1="510.00" x2="640.00" y2="510.00" />
<text x="637.20" y="509.80" font-size=".2mm" fill="#000000">-18m</text>
</g>
<g>
<path fill="none" stroke="#000000" stroke-width="0.02mm" d="M-15.465412,234.3264 C-9.823172,236.8359 0.9557743,230.69745 7.556391,234.3193 C12.188736,236.86111 12.576311,237.42065 16.37054,240.48767 L16.37054,240.48767" /><path fill="none" stroke="#000000" stroke-width="0.02mm" d="M25.203629,241.82976 C36.527023,243.09924 41.05126,244.5675 50.41475,247.44199 L50.41475,247.44199" /><path fill="none" stroke="#000000" stroke-width="0.02mm" d="M95.0096,267.45084 L104.51744,277.33325" /><path fill="none" stroke="#000000" stroke-width="0.02mm" d="M113.28922,281.11542 L123.778496,288.6187" /><path fill="none" stroke="#000000" stroke-width="0.02mm" d="M129.78992,293.98694 L140.46324,302.34433" /><path fill="none" stroke="#000000" stroke-width="0.02mm" d="M149.6644,303.8694 C150.94804,308.71246 153.99219,311.43063 157.33203,315.09387 L157.33203,315.09387" /><path fill="none" stroke="#000000" stroke-width="0.02mm" d="M163.58878,318.14398 C163.59464,318.16437 163.6005,318.18475 163.60635,318.20508 C164.35703,322.0889 165.10771,325.9727 165.8584,329.8565 L165.8584,329.8565" /><path fill="none" stroke="#000000" stroke-width="0.02mm" d="M175.85695,336.8108 L177.57452,340.65393" /><path fill="none" stroke="#000000" stroke-width="0.02mm" d="M178.67865,370.3622 C178.67749,370.4054 178.67633,370.4486 178.67517,370.49182 C178.47052,375.09937 178.11792,379.7027 178.06119,384.31442 C177.99792,389.4562 178.75508,394.6155 178.31537,399.73886 C178.0349,403.00665 176.71732,406.1008 175.91829,409.2818 L175.91829,409.2818" /><path fill="none" stroke="#000000" stroke-width="0.02mm" d="M235.23497,432.27985 C233.7052,431.1979 232.13226,430.1746 230.64561,429.03415 C227.42418,426.56287 228.30716,422.13562 231.80925,420.5732 C232.44815,420.2882 233.21082,419.96426 233.93536,420.17834 C235.35794,420.59863 235.63367,422.93964 235.57649,424.06723 C235.39584,427.6322 235.12122,431.19513 234.70549,434.74042 C233.8866,441.72375 231.62634,448.88574 233.59148,455.94806 C234.63034,459.6815 238.64777,461.45462 242.22075,460.16138 C245.64012,458.92377 246.39052,457.85144 249.83412,455.33878 L249.83412,455.33878" /><path fill="none" stroke="#000000" stroke-width="0.02mm" d="M239.46754,488.3412 C239.53058,488.32373 239.59363,488.3063 239.65668,488.28888 C241.00494,487.8985 242.3329,487.42957 243.70148,487.11777 C246.88364,486.3927 247.82138,492.3657 243.82272,493.4654 L243.82272,493.4654" /><path fill="none" stroke="#000000" stroke-width="0.02mm" d="M244.00671,159.72028 C240.04672,161.98434 234.69164,164.98962 235.9095,170.50536 C236.33485,172.43182 237.70311,174.53717 239.39313,175.59523 C244.72002,178.93024 248.63779,182.07886 254.90263,181.20712 C262.38086,180.16655 263.8023,176.16287 266.83136,169.44562 C267.91312,167.04677 267.0787,163.72047 265.05408,162.09164 C264.60687,161.73187 264.1665,161.3323 263.63428,161.11754 C258.3637,158.99088 253.00287,157.09523 247.68716,155.08408 L247.68716,155.08408" /><path fill="none" stroke="#000000" stroke-width="0.02mm" d="M243.20929,108.60012 C240.04929,111.44009 236.73714,116.36221 232.40967,118.42836 C212.38432,127.98942 190.86137,123.04598 172.71548,111.9713 C170.7411,110.76631 168.81635,109.395065 167.25755,107.68617 C158.81293,98.42842 150.60365,88.94347 142.78108,79.15445 C139.60764,75.18325 135.95352,69.66673 134.64339,64.340836 C132.86133,57.096542 133.62022,53.969864 133.71576,45.584427 L133.71576,45.584427" /><path fill="none" stroke="#000000" stroke-width="0.02mm" d="M133.40904,21.183395 L116.54028,6.5427856" /><path fill="none" stroke="#000000" stroke-width="0.02mm" d="M110.22217,-4.437683 C98.97598,-9.67807 100.27818,-10.510986 88.139435,-21.152405 L88.139435,-21.152405" /><path fill="none" stroke="#000000" stroke-width="0.02mm" d="M58.02103,-47.444534 C51.32905,-50.316635 48.77397,-52.142715 44.752197,-58.031174 C43.069504,-60.494904 41.837975,-63.26158 40.028465,-65.63371 C37.59716,-68.82097 35.95192,-70.13385 33.423332,-72.27255 L33.423332,-72.27255" /><path fill="none" stroke="#000000" stroke-width="0.02mm" d="M75.257835,140.93147 C72.040634,139.84157 68.6916,138.69626 65.47454,140.47435 C63.340385,141.6539 61.249763,142.92569 59.268463,144.3471 C57.065674,145.92741 55.05771,148.01212 53.587524,150.29977 C50.629658,154.90228 50.92366,157.52193 56.973576,157.9945 C60.410416,158.26299 65.63301,158.43465 69.35626,157.5307 C72.860504,156.67993 73.02083,155.87123 76.44972,154.69748 C77.84569,154.21964 80.41409,154.32068 81.66478,153.48244 C84.227646,151.76472 83.41519,145.56087 81.90306,143.5176 C81.25499,142.6419 80.29052,141.82054 79.34349,141.33806 C76.12915,139.70045 75.58264,139.55852 73.2336,138.79636 L73.2336,138.79636" /><path fill="none" stroke="#000000" stroke-width="0.02mm" d="M91.32914,128.85297 C88.95083,131.51456 86.51553,133.52933 84.939354,136.64825 C83.818535,138.86612 83.491936,141.04187 85.56487,142.68735 C87.07078,143.88274 88.61434,145.03044 90.11192,146.23624 C91.299324,147.19228 92.060814,148.03877 93.62191,148.31482 C95.70306,148.6828 98.04394,147.88425 99.870544,147.02756 C104.53889,144.83809 107.32105,141.24986 102.500854,137.2988 C99.98187,135.23402 99.186966,134.9893 96.42046,133.55019 L96.42046,133.55019" /><path fill="none" stroke="#000000" stroke-width="0.02mm" d="M209.34912,246.28296 C208.27115,245.33371 207.23651,244.33286 206.1152,243.43521 C202.94092,240.89413 195.92569,242.98274 192.73062,244.21736 C187.60944,246.19623 188.1897,248.94933 192.23706,251.92609 C194.87503,253.86627 198.01968,255.87334 201.39053,256.24896 C203.92352,256.53122 206.53369,255.77283 208.76372,254.61029 C212.26273,252.78621 216.21783,248.70325 214.68143,244.35828 C214.07263,242.63655 213.25697,241.59972 211.95006,240.17487 C210.7557,238.87273 208.91544,237.21732 207.1362,236.69814 C203.60681,235.66824 196.37988,240.13887 194.38193,241.09772 L194.38193,241.09772" /><path fill="none" stroke="#000000" stroke-width="0.02mm" d="M184.99673,226.27411 C182.2651,227.3621 178.7414,227.70853 176.69432,230.12277 C175.87694,231.08676 175.761,232.41492 175.92484,233.61444 C176.62994,238.77707 183.95056,240.69598 187.84457,237.8015 C190.51236,235.8185 190.81628,230.38605 189.10301,227.76566 C188.39609,226.68445 187.25008,225.93695 186.04689,225.5181 C182.1026,224.14502 178.85751,225.57912 175.42757,227.55511 L175.42757,227.55511" /><path fill="none" stroke="#000000" stroke-width="0.02mm" d="M164.50888,220.84485 C161.03282,220.55017 158.52284,220.69406 156.95409,224.07233 C156.39067,225.28563 156.14609,226.64078 156.69058,227.90385 C157.30106,229.31998 158.91039,230.56091 160.1222,231.30164 C164.09207,233.72815 169.42577,235.36664 172.94183,231.29074 C175.60619,228.2022 177.67241,222.98251 173.26422,220.5026 C172.02647,219.80627 170.4918,219.48291 169.0766,219.58217 C165.1866,219.85501 160.0896,225.669 157.516,228.16516 L157.516,228.16516" /><path fill="none" stroke="#000000" stroke-width="0.02mm" d="M171.8698,197.05383 C169.57762,202.62054 163.46541,206.68742 161.81479,212.72623 C161.04846,215.52986 163.65404,217.35312 165.70009,218.68579 C171.69339,222.58948 179.26595,222.89294 185.31528,219.03522 C187.54187,217.6153 189.58788,215.77979 190.77951,213.3894 C191.55478,211.83421 191.71312,209.86032 191.71481,208.21037 C191.71835,204.78279 191.71664,200.60187 189.8949,197.45995 C187.90315,194.02478 183.32446,193.2667 179.7658,193.08423 C178.382,193.01329 176.09903,192.86778 174.53728,193.50185 C170.60382,195.09882 168.49893,199.7576 166.53314,203.1541 L166.53314,203.1541" /><path fill="none" stroke="#000000" stroke-width="0.02mm" d="M142.11943,199.00592 C137.21906,206.3952 146.68777,192.05367 125.86818,219.5055 C125.09491,220.52509 126.51068,220.71484 126.963104,220.72842 C131.24428,220.85703 134.56503,220.24776 138.64647,222.03091 C141.17477,223.13553 142.01172,224.21167 144.36288,224.56844 C148.13976,225.14154 153.32213,222.57867 155.78363,219.80243 C158.44615,216.79947 160.12659,211.40009 158.27791,207.587 C157.11627,205.19106 154.67654,203.50476 152.47182,202.22604 C150.00536,200.79552 146.72884,199.35468 143.77527,199.51122 C140.96019,199.66042 138.74918,201.36743 136.72144,203.15411 L136.72144,203.15411" /><path fill="none" stroke="#000000" stroke-width="0.06mm" d="M247.36075,108.484024 C256.95172,107.89728 269.76263,109.07056 278.10648,102.310745 C281.5002,99.5613 283.80084,95.51527 285.71002,91.723946 C288.20026,86.77877 291.38287,72.607605 298.8923,68.54384 C309.80005,62.64106 317.21634,68.699905 326.5144,75.526695 C329.2903,77.564804 331.71332,80.04585 334.24475,82.38065 C335.65042,83.67713 336.83026,85.21982 338.3216,86.41675 C378.48285,118.64975 331.03824,78.49597 359.07166,103.682014 C359.739,104.281555 360.53543,104.742355 361.35583,105.10528 C365.4965,106.936935 369.79617,108.396225 373.92572,110.25282 C374.61206,110.5614 375.22525,111.04201 375.7532,111.57825 C377.65872,113.51363 379.3833,115.61914 381.19836,117.639595 L381.19836,117.639595" /><path fill="none" stroke="#000000" stroke-width="0.06mm" d="M380.1627,118.26904 C381.59683,122.527794 381.5607,123.46788 383.99292,127.039474 C388.85745,134.18289 398.0789,137.9754 406.42276,134.9558 C413.08466,132.5449 412.87503,131.03384 420.17456,126.73235 C422.85437,125.153206 429.4973,123.48156 431.75473,122.5941 C433.47806,121.91661 435.58838,120.25838 436.86038,118.95408 C440.64795,115.07037 443.44287,106.08444 444.80624,103.396576 C445.84277,101.35301 448.30783,99.47542 449.8434,98.069534 L449.8434,98.069534" /><path fill="none" stroke="#000000" stroke-width="0.06mm" d="M458.01407,73.75 C463.9658,72.028625 465.8299,68.48504 470.55774,63.678833 L470.55774,63.678833" /><path fill="none" stroke="#000000" stroke-width="0.06mm" d="M477.86526,49.487694 C485.5681,46.774307 487.9686,45.00495 495.35736,44.681 L495.35736,44.681" /><path fill="none" stroke="#000000" stroke-width="0.06mm" d="M515.8991,48.114334 L524.0122,58.299942" /><path fill="none" stroke="#000000" stroke-width="0.06mm" d="M535.40515,73.864426 C535.413,73.91879 535.4209,73.973175 535.42883,74.02755 C536.55255,81.67912 537.6763,89.3307 538.8,96.982285 L538.8,96.982285" /><path fill="none" stroke="#000000" stroke-width="0.06mm" d="M546.16504,114.14903 C547.57227,121.99662 547.15625,125.23346 546.6254,132.1741 L546.6254,132.1741" /><path fill="none" stroke="#000000" stroke-width="0.06mm" d="M548.4667,139.32692 C556.85046,134.95438 566.35706,136.53497 573.7841,130.45743 L573.7841,130.45743" /><path fill="none" stroke="#000000" stroke-width="0.06mm" d="M575.05,188.13765 C573.9671,188.32018 570.20984,188.95811 571.3533,188.4941 C578.3511,185.65437 585.6963,183.7313 592.7075,180.9249 C595.32355,179.87775 597.6243,178.16089 600.17267,176.95837 C600.9917,176.57191 601.90686,176.436 602.774,176.17474 C604.47595,175.66196 606.1901,175.18796 607.8798,174.63626 C611.7371,173.37686 615.5687,172.04012 619.4132,170.74205 L619.4132,170.74205" /><path fill="none" stroke="#000000" stroke-width="0.06mm" d="M570.1591,131.02965 C577.27124,131.66103 582.9135,128.65231 589.3281,126.352585 C590.4341,125.95608 591.62756,125.82564 592.71906,125.39085 C595.3937,124.32542 597.0216,122.739914 599.33185,120.95853 L599.33185,120.95853" /><path fill="none" stroke="#000000" stroke-width="0.06mm" d="M616.19104,114.835724 C617.0619,113.29196 617.71985,111.69858 619.08704,110.55246 C621.00885,108.941444 623.6929,108.37602 626.0893,108.05301 C630.3917,107.473076 633.82007,108.78717 633.68823,113.51774 C633.5642,117.968765 630.62756,123.755226 629.74524,126.9238 C629.5631,128.27623 629.3367,129.62343 629.199,130.98111 C629.1863,131.10646 629.24475,131.23148 629.2967,131.34625 C629.8161,132.49333 632.09143,132.09183 632.84296,131.85587 C635.63245,130.98001 638.3515,129.89355 641.1058,128.91241 L641.1058,128.91241" /><path fill="none" stroke="#000000" stroke-width="0.06mm" d="M637.5383,150.42804 C638.7518,150.90239 641.2934,151.1904 642.04785,152.76607 C642.44604,153.59749 642.29315,154.5503 642.0447,155.39478 C642.0191,155.48148 641.5296,156.6324 641.39594,155.70998 C641.1141,153.76529 640.93396,151.80722 640.703,149.85585 L640.703,149.85585" /><path fill="none" stroke="#000000" stroke-width="0.06mm" d="M570.10156,187.85153 C562.0772,218.07484 569.3644,247.11334 570.69977,277.43964 C570.8503,335.6778 570.0474,308.4589 572.5758,359.1183 L572.5758,359.1183" /><path fill="none" stroke="#000000" stroke-width="0.06mm" d="M575.05,407.64288 C572.01056,425.26694 571.523,419.23056 575.5103,434.65192 L575.5103,434.65192" /><path fill="none" stroke="#000000" stroke-width="0.06mm" d="M574.53217,466.69647 C573.60803,480.7603 576.9435,438.3452 571.0222,508.06827 L571.0222,508.06827" /><path fill="none" stroke="#000000" stroke-width="0.06mm" d="M302.19623,283.75635 C300.453,285.16107 298.79684,286.33118 297.5993,288.21857 C294.69702,292.79285 292.74127,300.18256 296.93686,304.62244 C301.285,309.22375 308.95776,310.2511 314.75192,308.31952 C315.7244,307.9953 316.7344,307.6056 317.49432,306.88876 C319.4913,305.00507 319.7388,301.95862 320.14865,299.4353 L320.14865,299.4353" /><path fill="none" stroke="#000000" stroke-width="0.06mm" d="M312.6109,281.86798 C316.55185,283.60922 320.74652,286.35455 321.0445,291.13275 C321.36053,296.20068 316.45892,304.78864 314.97006,308.13312 L314.97006,308.13312" /><path fill="none" stroke="#000000" stroke-width="0.06mm" d="M349.0912,327.76038 C346.16504,330.28397 343.93326,331.37354 341.97574,334.6299 C339.38962,338.93195 331.48807,353.21606 339.71643,356.9178 C342.36755,358.11044 350.81946,358.20694 351.80692,358.356 C356.27515,359.03033 361.1098,362.12622 365.68176,359.98975 C371.61038,357.21936 373.66684,347.99725 369.69907,342.8626 C367.8809,340.5098 363.56024,338.91232 361.47797,337.8318 C357.7774,335.91156 359.43988,336.8916 352.486,335.1421 L352.486,335.1421" /><path fill="none" stroke="#000000" stroke-width="0.06mm" d="M439.31363,441.2897 C438.97916,439.713 438.2892,438.151 438.4925,436.50616 C438.83423,433.741 439.74106,431.85828 441.15414,429.19904 C444.0123,423.8203 448.79346,419.8609 454.56882,417.88794 C458.19424,416.64944 461.98596,415.59354 465.85083,415.58273 C470.49554,415.56973 473.39847,417.38818 473.0856,422.37003 C472.9207,424.99506 472.86853,427.66528 472.2116,430.21216 C470.2494,437.81924 467.41238,445.17624 465.2544,452.73013 C464.94812,453.8023 464.8802,454.93445 464.83078,456.04846 C464.48642,463.81168 471.34125,470.2643 477.37582,473.92175 C481.75626,476.5766 486.60162,478.3749 491.21457,480.60153 L491.21457,480.60153" /><path fill="none" stroke="#000000" stroke-width="0.06mm" d="M471.2482,512.5317 C470.52658,513.70667 469.1748,515.9076 469.05377,516.21643 C468.96774,516.4359 469.52515,516.22943 469.76077,516.23596 C472.81265,514.4896 475.80185,512.62897 478.91632,510.997 C480.18292,510.33328 482.2902,509.8227 483.74683,509.7598 C484.14618,509.7425 487.57156,509.38586 487.47473,511.00162 C487.3619,512.8845 483.35202,515.9869 482.7341,516.42804 C479.2948,518.88354 474.59653,521.3706 470.4608,522.50885 C470.2312,522.572 470.36044,521.97546 470.51785,521.7969 C470.94455,521.31274 471.50775,520.3794 472.08734,520.6632 C472.599,520.9138 471.6919,521.7425 471.3794,522.2188 C469.93463,524.42114 468.3473,526.31665 466.01962,527.56396 C463.05426,529.15295 462.22943,520.49866 462.21442,520.42834 L462.21442,520.42834" /></g>
<g>
<line fill="none" stroke="#111111" stroke-width="0.05mm" x1="20.00" y1="150.00" x2="83.22" y2="112.17" />
<line fill="none" stroke="#5674b9" stroke-width="0.05mm" stroke-dasharray="0.4,0.2" x1="83.22" y1="112.17" x2="84.78" y2="151.15" />
<line fill="none" stroke="#5674b9" stroke-width="0.05mm" stroke-dasharray="0.4,0.2" x1="83.22" y1="112.17" x2="77.20" y2="113.68" />
<line fill="none" stroke="#5674b9" stroke-width="0.05mm" stroke-dasharray="0.4,0.2" x1="83.22" y1="112.17" x2="148.44" y2="107.08" />
<line fill="none" stroke="#5674b9" stroke-width="0.05mm" stroke-dasharray="0.4,0.2" x1="83.22" y1="112.17" x2="90.52" y2="79.36" />
<line fill="none" stroke="#5674b9" stroke-width="0.05mm" stroke-dasharray="0.4,0.2" x1="83.22" y1="112.17" x2="73.59" y2="75.61" />
<line fill="none" stroke="#5674b9" stroke-width="0.05mm" stroke-dasharray="0.4,0.2" x1="83.22" y1="112.17" x2="183.09" y2="132.06" />
<line fill="none" stroke="#111111" stroke-width="0.05mm" x1="83.22" y1="112.17" x2="216.54" y2="209.02" />
<line fill="none" stroke="#5674b9" stroke-width="0.05mm" stroke-dasharray="0.4,0.2" x1="216.54" y1="209.02" x2="125.71" y2="219.75" />
<line fill="none" stroke="#5674b9" stroke-width="0.05mm" stroke-dasharray="0.4,0.2" x1="216.54" y1="209.02" x2="51.94" y2="228.89" />
<line fill="none" stroke="#5674b9" stroke-width="0.05mm" stroke-dasharray="0.4,0.2" x1="216.54" y1="209.02" x2="96.40" y2="222.05" />
<line fill="none" stroke="#00aeef" stroke-width="0.05mm" stroke-dasharray="0.4,0.2" x1="216.54" y1="209.02" x2="196.78" y2="139.51" />
<line fill="none" stroke="#00aeef" stroke-width="0.05mm" stroke-dasharray="0.4,0.2" x1="216.54" y1="209.02" x2="22.91" y2="19.82" />
<line fill="none" stroke="#00aeef" stroke-width="0.05mm" stroke-dasharray="0.4,0.2" x1="216.54" y1="209.02" x2="211.52" y2="207.60" />
<line fill="none" stroke="#5674b9" stroke-width="0.05mm" stroke-dasharray="0.4,0.2" x1="216.54" y1="209.02" x2="210.73" y2="238.12" />
<line fill="none" stroke="#5674b9" stroke-width="0.05mm" stroke-dasharray="0.4,0.2" x1="216.54" y1="209.02" x2="193.62" y2="245.64" />
<line fill="none" stroke="#5674b9" stroke-width="0.05mm" stroke-dasharray="0.4,0.2" x1="216.54" y1="209.02" x2="152.38" y2="276.48" />
<line fill="none" stroke="#5674b9" stroke-width="0.05mm" stroke-dasharray="0.4,0.2" x1="216.54" y1="209.02" x2="211.82" y2="283.40" />
<line fill="none" stroke="#00aeef" stroke-width="0.05mm" stroke-dasharray="0.4,0.2" x1="216.54" y1="209.02" x2="260.30" y2="207.29" />
<line fill="none" stroke="#5674b9" stroke-width="0.05mm" stroke-dasharray="0.4,0.2" x1="216.54" y1="209.02" x2="295.99" y2="478.38" />
<line fill="none" stroke="#00aeef" stroke-width="0.05mm" stroke-dasharray="0.4,0.2" x1="216.54" y1="209.02" x2="240.86" y2="120.26" />
<line fill="none" stroke="#00aeef" stroke-width="0.05mm" stroke-dasharray="0.4,0.2" x1="216.54" y1="209.02" x2="238.61" y2="182.29" />
<line fill="none" stroke="#111111" stroke-width="0.05mm" x1="216.54" y1="209.02" x2="270.74" y2="207.73" />
<line fill="none" stroke="#5674b9" stroke-width="0.05mm" stroke-dasharray="0.4,0.2" x1="270.74" y1="207.73" x2="267.33" y2="207.28" />
<line fill="none" stroke="#5674b9" stroke-width="0.05mm" stroke-dasharray="0.4,0.2" x1="270.74" y1="207.73" x2="222.14" y2="467.78" />
<line fill="none" stroke="#00aeef" stroke-width="0.05mm" stroke-dasharray="0.4,0.2" x1="270.74" y1="207.73" x2="282.26" y2="98.49" />
<line fill="none" stroke="#5674b9" stroke-width="0.05mm" stroke-dasharray="0.4,0.2" x1="270.74" y1="207.73" x2="302.72" y2="217.33" />
<line fill="none" stroke="#5674b9" stroke-width="0.05mm" stroke-dasharray="0.4,0.2" x1="270.74" y1="207.73" x2="310.48" y2="218.23" />
<line fill="none" stroke="#111111" stroke-width="0.05mm" x1="270.74" y1="207.73" x2="315.62" y2="220.53" />
<line fill="none" stroke="#00aeef" stroke-width="0.05mm" stroke-dasharray="0.4,0.2" x1="315.62" y1="220.53" x2="315.23" y2="223.21" />
<line fill="none" stroke="#00aeef" stroke-width="0.05mm" stroke-dasharray="0.4,0.2" x1="315.62" y1="220.53" x2="292.71" y2="68.18" />
<line fill="none" stroke="#00aeef" stroke-width="0.05mm" stroke-dasharray="0.4,0.2" x1="315.62" y1="220.53" x2="292.17" y2="86.14" />
<line fill="none" stroke="#5674b9" stroke-width="0.05mm" stroke-dasharray="0.4,0.2" x1="315.62" y1="220.53" x2="497.71" y2="491.45" />
<line fill="none" stroke="#00aeef" stroke-width="0.05mm" stroke-dasharray="0.4,0.2" x1="315.62" y1="220.53" x2="516.45" y2="400.86" />
<line fill="none" stroke="#00aeef" stroke-width="0.05mm" stroke-dasharray="0.4,0.2" x1="315.62" y1="220.53" x2="566.80" y2="273.31" />
<line fill="none" stroke="#00aeef" stroke-width="0.05mm" stroke-dasharray="0.4,0.2" x1="315.62" y1="220.53" x2="553.33" y2="167.28" />
<line fill="none" stroke="#00aeef" stroke-width="0.05mm" stroke-dasharray="0.4,0.2" x1="315.62" y1="220.53" x2="531.23" y2="167.78" />
<line fill="none" stroke="#00aeef" stroke-width="0.05mm" stroke-dasharray="0.4,0.2" x1="315.62" y1="220.53" x2="546.04" y2="141.61" />
<line fill="none" stroke="#00aeef" stroke-width="0.05mm" stroke-dasharray="0.4,0.2" x1="315.62" y1="220.53" x2="566.37" y2="187.98" />
<line fill="none" stroke="#00aeef" stroke-width="0.05mm" stroke-dasharray="0.4,0.2" x1="315.62" y1="220.53" x2="620.04" y2="143.16" />
<line fill="none" stroke="#00aeef" stroke-width="0.05mm" stroke-dasharray="0.4,0.2" x1="315.62" y1="220.53" x2="385.14" y2="144.87" />
<line fill="none" stroke="#00aeef" stroke-width="0.05mm" stroke-dasharray="0.4,0.2" x1="315.62" y1="220.53" x2="485.55" y2="146.62" />
<line fill="none" stroke="#00aeef" stroke-width="0.05mm" stroke-dasharray="0.4,0.2" x1="315.62" y1="220.53" x2="511.14" y2="268.10" />
</g>
<g>
<circle cx="20.00" cy="150.00" r="0.1" fill="#111111" />
<circle cx="83.22" cy="112.17" r="0.1" fill="#111111" />
<circle cx="216.54" cy="209.02" r="0.1" fill="#111111" />
<circle cx="270.74" cy="207.73" r="0.1" fill="#111111" />
<circle cx="315.62" cy="220.53" r="0.1" fill="#111111" />
</g>
<g>
<text x="20.20" y="150.00" font-size=".2mm" fill="#000000">0</text>
<text x="83.42" y="112.17" font-size=".2mm" fill="#000000">1</text>
<text x="216.74" y="209.02" font-size=".2mm" fill="#000000">2</text>
<text x="270.94" y="207.73" font-size=".2mm" fill="#000000">3</text>
<text x="315.82" y="220.53" font-size=".2mm" fill="#000000">4</text>
</g>
<g>
</g>
</g>
</svg>