<?xml version="1.0" encoding="utf-8"?>
<!DOCTYPE svg PUBLIC "-//W3C//DTD SVG 1.1//EN" "http://www.w3.org/Graphics/SVG/1.1/DTD/svg11.dtd">
<svg version="1.1" id="Layer_1" xmlns="http://www.w3.org/2000/svg" xmlns:xlink="http://www.w3.org/1999/xlink" x="0px" y="0px" width="532mm" height="672mm" viewBox="0 0 532 672" enable-background="new 0 0 532 672" xml:space="preserve">
<symbol id="airflow" viewBox="-12 -12 24 24">
<path d="M-4.38,10.73l4.2-3.84V3.55L-4.07,7.13l-.31-.29L-.18,3V-6.89a3.37,3.37,0,0,0-1.68.53l1.68-4.15L0-11l.21.51h0v0l1.65,4.1A3.26,3.26,0,0,0,.24-6.89v14l-.08,0L-4.07,11Z"/>
<rect fill="none" x="-12" y="-12" width="24" height="24"/>
</symbol>
<symbol id="anastomosis" viewBox="-12 -12 24 24">
<path d="M2.23-4.78l.37.24L5.22-2.78l-.47.57L2.49-3.7l-4.61,8-.24.44-.37-.34L-5.22,2.3l.55-.52,2.1,1.82L2-4.39Z"/>
<rect fill="none" x="-12" y="-12" width="24" height="24"/>
</symbol>
<symbol id="bivouac" viewBox="-12 -12 24 24">
<path d="M.25-7.66l.24.58L.54-7l3.88.48-3.31.91L6,6H8.35v.48l-16.7.07V6.05h2.64L0-7.08Zm0,1.32L-5.13,6H-4l2.07-5L.2-4l2.09,5L4.37,6H5.44Z"/>
<rect fill="none" x="-12" y="-12" width="24" height="24"/>
</symbol>
<symbol id="bones" viewBox="-12 -12 24 24">
<path d="M2.44,4.27l-.16,0H2.13a.22.22,0,0,1-.11,0l-.1-.06a.39.39,0,0,1-.09-.11l-.08-.13a1.51,1.51,0,0,1-.06-.15l-.07-.17s0-.11-.08-.19-.06-.16-.08-.21a4.75,4.75,0,0,0-.38-.71c-.18-.29-.43-.64-.74-1A11.15,11.15,0,0,0-.7.32,6.73,6.73,0,0,0-2-.64a4.12,4.12,0,0,0-1.44-.52A1.64,1.64,0,0,1-5-2.19.72.72,0,0,1-5-2.44a1,1,0,0,1,0-.29A.52.52,0,0,1-4.87-3a.54.54,0,0,1,.35-.15L-4-3.22l.46,0a.54.54,0,0,0,.27-.06A.52.52,0,0,0-3-3.56a.74.74,0,0,0,.13-.31.54.54,0,0,1,.15-.26.54.54,0,0,1,.3-.15.83.83,0,0,1,.47,0,1.11,1.11,0,0,1,.35.4A7.46,7.46,0,0,1-1-2.76q.18.42.33.72a3.22,3.22,0,0,0,.39.57L.1-1a4.77,4.77,0,0,0,.58.43c.28.18.51.33.69.43l1,.56a1.84,1.84,0,0,0,.39.23A5.29,5.29,0,0,1,3.22.9l.43.26a3.7,3.7,0,0,1,.46.3l.36.29a2.28,2.28,0,0,1,.31.32A1,1,0,0,1,5,2.4c.2.48,0,.78-.47.91h0a8.48,8.48,0,0,0-1.12.09,1,1,0,0,0-.42.44A1,1,0,0,1,2.44,4.27Z"/>
<rect fill="none" x="-12" y="-12" width="24" height="24"/>
</symbol>
<symbol id="calcite" viewBox="-12 -12 24 24">
<path d="M2.36-2.22l.05.46.34,3.91L2,2.22,1.65-1.26-2.52-.06l-.23-.7L1.89-2.08Z"/>
<rect fill="none" x="-12" y="-12" width="24" height="24"/>
</symbol>
<symbol id="cauliflower" viewBox="-12 -12 24 24">
<path d="M5.58,3.22v-3A2.12,2.12,0,0,0,6.92-.43a1.78,1.78,0,0,0,.55-1.32,1.92,1.92,0,0,0-.65-1.42,2.19,2.19,0,0,0-1.53-.59,2.21,2.21,0,0,0-1.54.59,1.78,1.78,0,0,0-.64,1.42A1.86,1.86,0,0,0,3.65-.43,2.12,2.12,0,0,0,5,.23v3H.26v-3A2.17,2.17,0,0,0,1.61-.43a1.81,1.81,0,0,0,.54-1.32,1.91,1.91,0,0,0-.64-1.42A2.21,2.21,0,0,0,0-3.76a2.21,2.21,0,0,0-1.54.59,1.82,1.82,0,0,0-.64,1.42A1.83,1.83,0,0,0-1.66-.43,2.12,2.12,0,0,0-.32.23v3H-5v-3A2.12,2.12,0,0,0-3.71-.43a1.78,1.78,0,0,0,.55-1.32,1.92,1.92,0,0,0-.65-1.42,2.19,2.19,0,0,0-1.53-.59,2.21,2.21,0,0,0-1.54.59,1.83,1.83,0,0,0-.65,1.42A1.87,1.87,0,0,0-7-.43,2.12,2.12,0,0,0-5.64.23v3H-8v.54H8V3.22Z"/>
<rect fill="none" x="-12" y="-12" width="24" height="24"/>
</symbol>
<symbol id="clay" viewBox="-12 -12 24 24">
<path d="M1.85-1.33a3,3,0,0,1,1.67.48,3.23,3.23,0,0,1,1,1l.29.51-1,.43a3.81,3.81,0,0,0-.23-.4A3.74,3.74,0,0,0,2.93,0,1.77,1.77,0,0,0,1.85-.32a2.57,2.57,0,0,0-1.1.15A.86.86,0,0,0,.51.14,2.23,2.23,0,0,1,0,.88a2.55,2.55,0,0,1-1.45.43,3.16,3.16,0,0,1-2.75-1,4.28,4.28,0,0,1-.37-.57,3.91,3.91,0,0,1-.21-.47l0-.16,1-.22a1.87,1.87,0,0,0,.45.79A2.12,2.12,0,0,0-1.51.33,1.82,1.82,0,0,0-.69.14l.21-.36A1.53,1.53,0,0,1,.17-1,3.76,3.76,0,0,1,1.85-1.33Z"/>
<rect fill="none" x="-12" y="-12" width="24" height="24"/>
</symbol>
<symbol id="crystals" viewBox="-12 -12 24 24">
<path d="M-2.94-5.38,0-.72,2.94-5.38,3.62-5,.68-.36H6.56V.36H.68L3.62,5l-.68.36L0,.72-2.94,5.38-3.62,5-.68.36H-6.56V-.36H-.68L-3.62-5Z"/>
<rect fill="none" x="-12" y="-12" width="24" height="24"/>
</symbol>
<symbol id="curtain" viewBox="-12 -12 24 24">
<path d="M3.57-6.69l.52.53L.39-3V-.33L.1-.26a3.79,3.79,0,0,0-1,.41c-.58.3-.87.65-.87,1v.07A1.61,1.61,0,0,0-.84,2.48a3.69,3.69,0,0,0,.45.24L0,2.86l.13.05L.39,3V6.12H-.39V3.51a7.65,7.65,0,0,1-.9-.46A2.19,2.19,0,0,1-2.54,1.28V1.23A2,2,0,0,1-1.31-.48,5.32,5.32,0,0,1-.39-.86V-3l-3.7-3.14.52-.53L0-3.67Z"/>
<rect fill="none" x="-12" y="-12" width="24" height="24"/>
</symbol>
<symbol id="disk" viewBox="-12 -12 24 24">
<path d="M-.09-4.19a2.43,2.43,0,0,1,1.7.64A2,2,0,0,1,2.35-2,2.09,2.09,0,0,1,1.81-.55,2.44,2.44,0,0,1,.35.23l2.18,3.6-.68.33L0,1.14-1.48,4.19l-.71-.29L-.41.25A2.53,2.53,0,0,1-1.9-.47a2,2,0,0,1-.63-1.41,2,2,0,0,1,.67-1.61,2.46,2.46,0,0,1,1.72-.7ZM1.05-3.06.56-3.49l-.69,0A1.72,1.72,0,0,0-1.29-3a1.51,1.51,0,0,0-.45,1.08,1.36,1.36,0,0,0,.51,1A1.68,1.68,0,0,0-.07-.44v0l0,0A1.7,1.7,0,0,0,1.11-.92,1.36,1.36,0,0,0,1.56-2,1.47,1.47,0,0,0,1.05-3.06Z"/>
<rect fill="none" x="-12" y="-12" width="24" height="24"/>
</symbol>
<symbol id="entrance" viewBox="-12 -12 24 24">
<path d="M4.46,9H-4.46L0-9Z"/>
<rect fill="none" x="-12" y="-12" width="24" height="24"/>
</symbol>
<symbol id="flowstone" viewBox="-12 -12 24 24">
<rect x="-6" y="-0.21" width="12" height="0.42"/>
<rect fill="none" x="-12" y="-12" width="24" height="24"/>
</symbol>
<symbol id="flutes" viewBox="-12 -12 24 24">
<path d="M-7-1H7v.72H3.87A4.7,4.7,0,0,1,2.16,1.5,4.2,4.2,0,0,1,0,2.13,3.94,3.94,0,0,1-2.19,1.5,4.18,4.18,0,0,1-3.76-.27H-7Zm4.17.72A3.15,3.15,0,0,0-1.65,1,3.21,3.21,0,0,0,0,1.41,3.49,3.49,0,0,0,1.6,1,3.68,3.68,0,0,0,3-.27Z"/>
<rect fill="none" x="-12" y="-12" width="24" height="24"/>
</symbol>
<symbol id="gradient" viewBox="-12 -12 24 24">
<path d="M2.58-3.83,0-10-2.58-3.83A4.74,4.74,0,0,1-.17-4.5V10H.25V-4.5A6.65,6.65,0,0,1,2.58-3.83Z"/>
<rect fill="none" x="-12" y="-12" width="24" height="24"/>
</symbol>
<symbol id="guano" viewBox="-12 -12 24 24">
<path d="M-3.24-3a2.15,2.15,0,0,1,1.57.55A3.93,3.93,0,0,1-.59.24a4.32,4.32,0,0,1,2.75-2.3,2.68,2.68,0,0,1,2.23.36A2.36,2.36,0,0,1,5.5.19l-.79,0a1.72,1.72,0,0,0-.79-1.37,1.94,1.94,0,0,0-1.55-.24A3.53,3.53,0,0,0,.48,0,6.63,6.63,0,0,0-.69,3l-.79-.09a10.72,10.72,0,0,0,0-3.16A3.21,3.21,0,0,0-2.22-2,1.44,1.44,0,0,0-3.37-2.3,3.45,3.45,0,0,0-5-1.54l-.5-.55a4.29,4.29,0,0,1,2-.91A.9.9,0,0,1-3.24-3Z"/>
<rect fill="none" x="-12" y="-12" width="24" height="24"/>
</symbol>
<symbol id="helictites" viewBox="-12 -12 24 24">
<path d="M-4.59-7.92h.79v7.7l3.41,0V-7.92H.39V-.17L4.2-.12h.39v8H3.8V.6L.39.55V7.92H-.39V.55L-4.2.5l-.39,0v-8.4Z"/>
<rect fill="none" x="-12" y="-12" width="24" height="24"/>
</symbol>
<symbol id="human" viewBox="-12 -12 24 24">
<path d="M-3.59-3.29A5.13,5.13,0,0,1,0-4.66,5.13,5.13,0,0,1,3.59-3.29,4.3,4.3,0,0,1,5.09,0a4.3,4.3,0,0,1-1.5,3.29A5.13,5.13,0,0,1,0,4.66,5.13,5.13,0,0,1-3.59,3.29,4.3,4.3,0,0,1-5.09,0,4.3,4.3,0,0,1-3.59-3.29Zm.28.77A3.68,3.68,0,0,0-4.3,0a3.62,3.62,0,0,0,1,2.57L-.5.05ZM0-3.94A4.42,4.42,0,0,0-2.75-3L.16-.36H4.28A3.62,3.62,0,0,0,2.91-2.9,4.38,4.38,0,0,0,0-3.94ZM.16.46-2.7,3.07A4.42,4.42,0,0,0,0,3.94a4.37,4.37,0,0,0,2.87-1A3.78,3.78,0,0,0,4.28.46Z"/>
<rect fill="none" x="-12" y="-12" width="24" height="24"/>
</symbol>
<symbol id="karren" viewBox="-12 -12 24 24">
<path d="M1-5.84h0a1.37,1.37,0,0,1,1.06.68A3.33,3.33,0,0,1,2.5-3.79,25.79,25.79,0,0,1,2.36,0a18.61,18.61,0,0,0-.08,3.72,2.68,2.68,0,0,0,.41,1.2,1.13,1.13,0,0,0,.79.5A.92.92,0,0,0,4,4.94a4.43,4.43,0,0,0,.47-1.22c.16-.64.36-1.86.59-3.66a26.71,26.71,0,0,1,.64-3.69,4.62,4.62,0,0,1,.57-1.29,1.34,1.34,0,0,1,1-.59h0A1.28,1.28,0,0,1,8.37-5a2.17,2.17,0,0,1,.39,1.15A19.91,19.91,0,0,1,8.54-.53a21.51,21.51,0,0,0-.2,3.64A2.64,2.64,0,0,0,9.45,5.36,1.91,1.91,0,0,0,10.88,5a3.84,3.84,0,0,0,.7-1l.42.2-.1.18-.12.21-.11.18L11.52,5a.94.94,0,0,1-.14.16c-.06.07-.13.12-.19.18a2.5,2.5,0,0,1-1.85.41H9.29l0,0A3.06,3.06,0,0,1,7.87,3.13a22.11,22.11,0,0,1,.2-3.7,18.17,18.17,0,0,0,.22-3.28A1.85,1.85,0,0,0,8-4.79a.77.77,0,0,0-.67-.3.93.93,0,0,0-.64.42,4.51,4.51,0,0,0-.51,1.15A26.26,26.26,0,0,0,5.54.1c-.24,1.83-.45,3.07-.61,3.72a5.38,5.38,0,0,1-.51,1.34,1.33,1.33,0,0,1-.89.68H3.47A1.58,1.58,0,0,1,2.3,5.16a3.29,3.29,0,0,1-.49-1.4A20.27,20.27,0,0,1,1.89,0,23.45,23.45,0,0,0,2-3.75a2.94,2.94,0,0,0-.32-1.19A.93.93,0,0,0,1-5.42,1.1,1.1,0,0,0,.19-5,3.69,3.69,0,0,0-.43-3.76,20.78,20.78,0,0,0-1.07.07c-.2,2-.37,3.32-.49,3.86A4.48,4.48,0,0,1-2,5.26,1.06,1.06,0,0,1-3,5.81h0a1.9,1.9,0,0,1-1.29-.67,2.7,2.7,0,0,1-.58-1.31,14.92,14.92,0,0,1,0-3.6q0-.12.06-.54c0-.28,0-.47,0-.57s0-.28,0-.52,0-.42,0-.55,0-.28,0-.47,0-.36,0-.51,0-.29,0-.43A3.09,3.09,0,0,0-5-4.62a1.19,1.19,0,0,0-.67-.6,1.5,1.5,0,0,0-1.2.9A7,7,0,0,0-7.41-2.1c0,.39-.1,1-.14,1.76s-.11,1.47-.18,2.08A9.61,9.61,0,0,1-8,3.32h0l0,0A2.81,2.81,0,0,1-9.2,4.62a1.82,1.82,0,0,1-1.35.15A1.94,1.94,0,0,1-11.61,4,2.39,2.39,0,0,1-12,2.56l.47,0a1.92,1.92,0,0,0,.31,1.16,1.47,1.47,0,0,0,.81.62,1.3,1.3,0,0,0,1-.11A2.32,2.32,0,0,0-8.5,3.18a7.53,7.53,0,0,0,.29-1.5Q-8.1.8-8-.36c0-.78.1-1.37.16-1.78A7.23,7.23,0,0,1-7.28-4.5,1.93,1.93,0,0,1-5.65-5.66h.05l0,0a1.59,1.59,0,0,1,1,.84,3.47,3.47,0,0,1,.34,1.41,4.91,4.91,0,0,1,0,.57v.54c0,.15,0,.37,0,.66s0,.47,0,.58,0,.33-.06.68,0,.56-.06.63a14.78,14.78,0,0,0,0,3.49,2.58,2.58,0,0,0,.5,1.13,1.57,1.57,0,0,0,1,.5A.61.61,0,0,0-2.44,5,3.89,3.89,0,0,0-2,3.85C-1.9,3.31-1.74,2-1.53,0A20.65,20.65,0,0,1-.86-3.89,3.89,3.89,0,0,1-.18-5.26,1.58,1.58,0,0,1,1-5.84Z"/>
<rect fill="none" x="-12" y="-12" width="24" height="24"/>
</symbol>
<symbol id="moonmilk" viewBox="-12 -12 24 24">
<path d="M-4.78-3.06a3.39,3.39,0,0,1,1.5.34,2.48,2.48,0,0,1,1.1,1,3.74,3.74,0,0,1,1.62-.8,3.52,3.52,0,0,1,1.71,0,2.9,2.9,0,0,1,1.39.77A2.49,2.49,0,0,1,3.25-.37,4,4,0,0,1,5-.76a3.58,3.58,0,0,1,1.6.36A2.84,2.84,0,0,1,7.88.92a2.32,2.32,0,0,1,0,1.88.34.34,0,0,1-.37.26A.36.36,0,0,1,7.25,3a.32.32,0,0,1-.12-.25.21.21,0,0,1,0-.12,2,2,0,0,0,0-1.43,2,2,0,0,0-1-.9A2.81,2.81,0,0,0,4.68,0,2.78,2.78,0,0,0,3.12.56L2.46.25A1.7,1.7,0,0,0,2.15-1.1,2.15,2.15,0,0,0,1-1.81a2.85,2.85,0,0,0-1.58.06A3,3,0,0,0-2-.83l-.71-.12A1.74,1.74,0,0,0-3.55-2a2.36,2.36,0,0,0-1.39-.27,3.08,3.08,0,0,0-1.45.53A2.33,2.33,0,0,0-7.32-.56a.35.35,0,0,1-.37.24A.39.39,0,0,1-8-.42a.33.33,0,0,1-.1-.26v-.1A3,3,0,0,1-6.89-2.35,4,4,0,0,1-5-3Z"/>
<rect fill="none" x="-12" y="-12" width="24" height="24"/>
</symbol>
<symbol id="narrow" viewBox="-12 -12 24 24">
<path d="M-1.5,5V-5h0.64V5H-1.5z"/>
<path d="M0.86,5V-5H1.5V5H0.86z"/>
<rect fill="none" x="-12" y="-12" width="24" height="24"/>
</symbol>
<symbol id="paleoflow" viewBox="-12 -12 24 24">
<path d="M.38-12V.17A1.9,1.9,0,0,0,1,0,1.57,1.57,0,0,0,1.7-.72a1.86,1.86,0,0,0,.23-1c0-.09,0-.14.08-.16a.92.92,0,0,1,.24,0,.52.52,0,0,0,.25,0h.08A2.48,2.48,0,0,1,2,0,2.5,2.5,0,0,1,.38.77V7.21H2.09L0,12-1.8,7.23c.07,0,.59,0,1.53,0V.77A3,3,0,0,1-1.35.43a2.16,2.16,0,0,1-1-1,2.38,2.38,0,0,1-.24-1.33l.67,0a2,2,0,0,0,.15,1,1.73,1.73,0,0,0,.59.67A2.14,2.14,0,0,0-.27.16V-12Z"/>
<rect fill="none" x="-12" y="-12" width="24" height="24"/>
</symbol>
<symbol id="rain" viewBox="-12 -12 24 24">
<path d="M-4.14-6.34h0.71v4.69h-0.71V-6.34z"/>
<path d="M-0.35-6.34h0.71v4.69h-0.71V-6.34z"/>
<path d="M3.43-6.34h0.71v4.69H3.43V-6.34z"/>
<path d="M-4.14,1.65h0.71v4.69h-0.71V1.65z"/>
<path d="M-0.35,1.65h0.71v4.69h-0.71V1.65z"/>
<path d="M3.43,1.65h0.71v4.69H3.43V1.65z"/>
<rect fill="none" x="-12" y="-12" width="24" height="24"/>
</symbol>
<symbol id="rats" viewBox="-12 -12 24 24">
<path d="M8.78-2.32,7-2.27c-.51-.17-.65-.56-1.46-.45l-.25.45C3.59-2.75,2.59-3.66.56-3.62l-1.35.3A4.89,4.89,0,0,0-4.24,1.57c-.68.6-2.58.86-3.39.94a6.84,6.84,0,0,0-1.62.39,4.91,4.91,0,0,0-1,.52A1.75,1.75,0,0,0-11,4.61a1.16,1.16,0,0,0,.59,1.48,1.3,1.3,0,0,1,.14.12c.16-.52-.35-.92-.2-1.42a3.35,3.35,0,0,1,.27-.45,3.18,3.18,0,0,1,1.79-1c.63-.12,1.27-.22,1.91-.3.48-.07,1,0,1.4-.12A6.94,6.94,0,0,1-4,2.82,30.64,30.64,0,0,0,.41,2.69l2.16.15c.1-.09,0,0,.1-.15a.87.87,0,0,0-.9-.55c.86-1,2.27-.37,3.1-.05.5.19,1,0,1.25.4.11-.1.1-.07.15-.25.3,0,.31.07.6.15-.06-.49-.34-.64-1-.6a.78.78,0,0,1,0-.55C6.3.56,7.29.73,8.13.43a13.78,13.78,0,0,0,2.15-.9l.6-.85v-.2A16.9,16.9,0,0,0,8.78-2.32Z"/>
<rect fill="none" x="-12" y="-12" width="24" height="24"/>
</symbol>
<symbol id="sand" viewBox="-12 -12 24 24">
<path d="M-1.58,0.83c0.23,0.2,0.35,0.44,0.36,0.73c0.01,0.29-0.08,0.54-0.28,0.75c-0.2,0.21-0.46,0.32-0.78,0.33c-0.32,0.01-0.6-0.08-0.83-0.26C-3.36,2.19-3.49,1.95-3.5,1.67C-3.51,1.38-3.41,1.12-3.2,0.9c0.21-0.22,0.48-0.34,0.8-0.35C-2.08,0.54-1.81,0.64-1.58,0.83z"/>
<path d="M0.08-2.36c0.23,0.2,0.35,0.44,0.36,0.73c0.01,0.29-0.08,0.54-0.28,0.75c-0.2,0.21-0.46,0.32-0.78,0.33c-0.32,0.01-0.59-0.07-0.83-0.26s-0.37-0.42-0.38-0.71c-0.01-0.29,0.09-0.54,0.3-0.76c0.21-0.22,0.48-0.33,0.8-0.35C-0.42-2.65-0.14-2.56,0.08-2.36z"/>
<path d="M3.12,0.55c0.23,0.2,0.35,0.43,0.38,0.71c0.02,0.28-0.07,0.53-0.28,0.75C3,2.23,2.73,2.35,2.42,2.36C2.1,2.37,1.82,2.28,1.58,2.08C1.34,1.88,1.22,1.64,1.2,1.35c-0.01-0.29,0.09-0.54,0.3-0.75C1.72,0.4,1.99,0.29,2.3,0.28S2.89,0.36,3.12,0.55z"/>
<rect fill="none" x="-12" y="-12" width="24" height="24"/>
</symbol>
<symbol  id="scallops" viewBox="-12 -12 24 24">
<path d="M.05-3.74l.21,0A2.35,2.35,0,0,1,1.74-3a2,2,0,0,1,.59,1.55v0l0,0A9.59,9.59,0,0,1-.08,3.27l-.39.47-.27-.55A14.26,14.26,0,0,1-2.33-1.89v-.05l0-.05A2,2,0,0,1-1.44-3.3,2.42,2.42,0,0,1,.05-3.74ZM-.11-3A1.44,1.44,0,0,0-1.55-1.89,13.06,13.06,0,0,0-.29,2.33,8.6,8.6,0,0,0,1.55-1.54a1.41,1.41,0,0,0-.38-1A1.62,1.62,0,0,0,.18-3Z"/>
<rect fill="none" x="-12" y="-12" width="24" height="24"/>
</symbol>
<symbol  id="sink" viewBox="-12 -12 24 24">
<path d="M.72,9.41H.9c1.94,0,3.26-.54,3.94-1.51a3.61,3.61,0,0,0,.33-.69,2,2,0,0,0,.11-.54V6.46l.69,0a2.8,2.8,0,0,1-.58,1.78C4.58,9.39,3.1,10,.93,10H-.93q-3.25,0-4.46-1.8a2.74,2.74,0,0,1-.43-.83A2.37,2.37,0,0,1-6,6.67V6.43l.68,0A2.27,2.27,0,0,0-4.84,7.9c.68,1,2,1.47,3.93,1.48l.5,0ZM-1.46-10a.68.68,0,0,0,.16.41A2.77,2.77,0,0,0-.51-9l0,0a3.63,3.63,0,0,1,1,.7,1.15,1.15,0,0,1,.34.88c0,.58-.53,1.14-1.49,1.68-.68.42-1,.79-1,1.11s.3.61.84,1h0Q.61-2.86.46-1.78a3.51,3.51,0,0,1-1.55,2,.61.61,0,0,0-.26.41,1.67,1.67,0,0,0,.1.51,5.3,5.3,0,0,1,.32,1L.56,1.9.46,8.06-3.4,2.54l1.73-.28A6.16,6.16,0,0,0-2,1.39,1.7,1.7,0,0,1-2.09.58a1.21,1.21,0,0,1,.53-.82h0v0C-.75-.86-.33-1.38-.28-1.85s-.23-.87-.91-1.27h0C-2-3.6-2.37-4.1-2.4-4.61S-2-5.74-1.09-6.29C-.34-6.72.06-7.1.09-7.44a.67.67,0,0,0-.18-.43,3.17,3.17,0,0,0-.79-.58,2.93,2.93,0,0,1-1-.67A1.16,1.16,0,0,1-2.17-10Z"/>
<rect fill="none" x="-12" y="-12" width="24" height="24"/>
</symbol>
<symbol  id="spring" viewBox="-12 -12 24 24">
<path d="M-1.34-9.86,2.52-4.34.78-4.06a8,8,0,0,0,.29.87,1.4,1.4,0,0,1,.13.79,1.3,1.3,0,0,1-.52.84l0,0v0C-.13-.95-.55-.42-.61,0S-.37.91.31,1.3l0,0c.75.46,1.14,1,1.18,1.46S1.12,3.92.21,4.46C-.54,4.9-.94,5.29-1,5.64a.74.74,0,0,0,.18.43A3.2,3.2,0,0,0,0,6.62a3,3,0,0,1,1,.7,1.14,1.14,0,0,1,.31.86A1.74,1.74,0,0,1,.71,9.26H.92c1.92,0,3.22-.52,3.9-1.51a2.05,2.05,0,0,0,.35-.67,2.59,2.59,0,0,0,.1-.55l0-.19.65,0a2.84,2.84,0,0,1-.55,1.8C4.58,9.26,3.08,9.85.92,9.86H-.92c-2.17,0-3.66-.6-4.49-1.77a3.65,3.65,0,0,1-.4-.85A2.43,2.43,0,0,1-6,6.53V6.29l.66,0a2.08,2.08,0,0,0,.47,1.41c.68,1,2,1.5,3.91,1.51H-.4c.62-.43.94-.8,1-1.1a.76.76,0,0,0-.16-.43,3.25,3.25,0,0,0-.79-.51v0a3.8,3.8,0,0,1-1-.7,1.15,1.15,0,0,1-.34-.91q.06-.84,1.5-1.68c.68-.4,1-.77,1-1.1S.49,2.21,0,1.87c0,0,0,0,0,0C-1,1.32-1.44.69-1.34,0a3.58,3.58,0,0,1,1.55-2,.54.54,0,0,0,.23-.38A1.28,1.28,0,0,0,.37-3a4.57,4.57,0,0,1-.32-1l-1.49.24Z"/>
<rect fill="none" x="-12" y="-12" width="24" height="24"/>
</symbol>
<symbol  id="stalactite" viewBox="-12 -12 24 24">
<path d="M3.57-6.69l.52.53L.39-3V6.12H-.39V-3l-3.7-3.14.52-.53L0-3.67Z"/>
<rect fill="none" x="-12" y="-12" width="24" height="24"/>
</symbol>
<symbol  id="stalagmite" viewBox="-12 -12 24 24">
<path d="M.38-6.42V2.75L4.11,5.89l-.56.53L0,3.4l-3.57,3-.53-.53,3.7-3.14V-6.42Z"/>
<rect fill="none" x="-12" y="-12" width="24" height="24"/>
</symbol>
<symbol  id="stalagnate" viewBox="-12 -12 24 24">
<path d="M3.55-8.46l.56.53L.38-4.78v9L4.11,7.36l-.56.53L0,4.86l-3.57,3-.53-.53,3.7-3.14v-9l-3.7-3.15.53-.53L0-5.43Z"/>
<rect fill="none" x="-12" y="-12" width="24" height="24"/>
</symbol>
<symbol  id="straws" viewBox="-12 -12 24 24">
<path d="M-10.89-2.76H10.89V-2H9.63V.46H8.84V-2H8.29v5.6H7.5V-2H5.56V.7H4.77V-2H2.07V2.38H1.29V-2H-.1v3H-.89V-2H-3.2V4.11H-4V-2H-6.22L-6.16.75l-.79,0L-7-2H-8.32V2.33H-9.1V-2h-1.79Z"/>
<rect fill="none" x="-12" y="-12" width="24" height="24"/>
</symbol>
<symbol  id="water" viewBox="-12 -12 24 24">
<path d="M-1.72-9.86,2.11-4.32.38-4.06a6.49,6.49,0,0,0,.29.89,1.5,1.5,0,0,1,.13.79,1.2,1.2,0,0,1-.5.82h0l0,0C-.54-.94-1-.42-1,.05s.24.89.92,1.27h0c.77.48,1.17,1,1.19,1.49S.71,3.94-.2,4.49c-.75.43-1.13.81-1.15,1.15a.51.51,0,0,0,.18.43,2.66,2.66,0,0,0,.76.58,2.93,2.93,0,0,1,1,.67,1.16,1.16,0,0,1,.29.89C.84,8.75.42,9.3-.41,9.86l-.44-.55c.66-.45,1-.83,1-1.15A.47.47,0,0,0,0,7.75a2.84,2.84,0,0,0-.78-.53h0a3.87,3.87,0,0,1-1-.69,1.24,1.24,0,0,1-.34-.91c0-.58.54-1.14,1.52-1.68.66-.42,1-.79,1-1.11s-.3-.61-.84-1h0Q-1.9,1.06-1.74,0a3.44,3.44,0,0,1,1.54-2,.67.67,0,0,0,.27-.41A1.11,1.11,0,0,0,0-3a4.33,4.33,0,0,1-.31-1l-1.5.24Z"/>
<rect fill="none" x="-12" y="-12" width="24" height="24"/>
</symbol><symbol  id="tree" viewBox="-12 -12 24 24">
<path d="M7.4-5.04A4.271,4.271,0,0,0,7.7-6.627a4.3,4.3,0,0,0-4.3-4.3A4.279,4.279,0,0,0,.636-9.914,4.293,4.293,0,0,0-3.045-12a4.3,4.3,0,0,0-4.3,4.3,4.27,4.27,0,0,0,.421,1.845,4.3,4.3,0,0,0-3.645,4.244,4.3,4.3,0,0,0,4.3,4.3A4.282,4.282,0,0,0-3.946,2L-1.175,5.23h0L-1.612,12H.982L.757,6.376,4.119,2.827v0a4.272,4.272,0,0,0,2.15.58,4.3,4.3,0,0,0,4.3-4.3A4.3,4.3,0,0,0,7.4-5.04ZM-3.346,1.538h0A4.346,4.346,0,0,0-2.7.788a4.266,4.266,0,0,0,1.765.753l-.135,2.087ZM.69,4.7.563,1.544A4.258,4.258,0,0,0,2.321.805,4.3,4.3,0,0,0,3.378,2.279Z"/>
<rect fill="none" x="-12" y="-12" width="24" height="24"/>
</symbol><g>
<desc></desc>
<g>
<line fill="none" stroke="#dddddd" stroke-width="0.1mm" x1="0.00" y1="24.00" x2="532.00" y2="24.00" />
<text x="529.20" y="23.80" font-size=".2mm" fill="#000000">0m</text>
<line fill="none" stroke="#dddddd" stroke-width="0.1mm" x1="0.00" y1="74.00" x2="532.00" y2="74.00" />
<text x="529.20" y="73.80" font-size=".2mm" fill="#000000">-5m</text>
<line fill="none" stroke="#dddddd" stroke-width="0.1mm" x1="0.00" y1="124.00" x2="532.00" y2="124.00" />
<text x="529.20" y="123.80" font-size=".2mm" fill="#000000">-10m</text>
<line fill="none" stroke="#dddddd" stroke-width="0.1mm" x1="0.00" y1="174.00" x2="532.00" y2="174.00" />
<text x="529.20" y="173.80" font-size=".2mm" fill="#000000">-15m</text>
<line fill="none" stroke="#dddddd" stroke-width="0.1mm" x1="0.00" y1="224.00" x2="532.00" y2="224.00" />
<text x="529.20" y="223.80" font-size=".2mm" fill="#000000">-20m</text>
<line fill="none" stroke="#dddddd" stroke-width="0.1mm" x1="0.00" y1="274.00" x2="532.00" y2="274.00" />
<text x="529.20" y="273.80" font-size=".2mm" fill="#000000">-25m</text>
<line fill="none" stroke="#dddddd" stroke-width="0.1mm" x1="0.00" y1="324.00" x2="532.00" y2="324.00" />
<text x="529.20" y="323.80" font-size=".2mm" fill="#000000">-30m</text>
<line fill="none" stroke="#dddddd" stroke-width="0.1mm" x1="0.00" y1="374.00" x2="532.00" y2="374.00" />
<text x="529.20" y="373.80" font-size=".2mm" fill="#000000">-35m</text>
<line fill="none" stroke="#dddddd" stroke-width="0.1mm" x1="0.00" y1="424.00" x2="532.00" y2="424.00" />
<text x="529.20" y="423.80" font-size=".2mm" fill="#000000">-40m</text>
<line fill="none" stroke="#dddddd" stroke-width="0.1mm" x1="0.00" y1="474.00" x2="532.00" y2="474.00" />
<text x="529.20" y="473.80" font-size=".2mm" fill="#000000">-45m</text>
<line fill="none" stroke="#dddddd" stroke-width="0.1mm" x1="0.00" y1="524.00" x2="532.00" y2="524.00" />
<text x="529.20" y="523.80" font-size=".2mm" fill="#000000">-50m</text>
<line fill="none" stroke="#dddddd" stroke-width="0.1mm" x1="0.00" y1="574.00" x2="532.00" y2="574.00" />
<text x="529.20" y="573.80" font-size=".2mm" fill="#000000">-55m</text>
<line fill="none" stroke="#dddddd" stroke-width="0.1mm" x1="0.00" y1="624.00" x2="532.00" y2="624.00" />
<text x="529.20" y="623.80" font-size=".2mm" fill="#000000">-60m</text>
</g>
<g>
<path fill="none" stroke="#000000" stroke-width="0.06mm" d="M29.657135,13.8829365 C28.51249,13.615557 27.367844,13.348178 26.2232,13.080797 C25.991377,13.042131 25.739445,12.862749 25.527733,12.964804 C25.217194,13.114496 25.074306,13.484201 24.847593,13.7439 L24.847593,13.7439" /><path fill="none" stroke="#000000" stroke-width="0.06mm" d="M14.561305,18.136677 C13.359964,19.276941 8.953098,21.93063 9.045803,24.538986 C9.087878,25.722822 9.918337,26.839397 10.58474,27.708593 C12.550194,30.272154 15.553026,31.702116 18.790108,31.592785 C19.955687,31.553417 21.128473,31.457987 22.26762,31.208048 C30.327461,29.439648 38.3811,27.626143 46.365265,25.542551 C47.571632,25.22773 48.729927,24.691643 49.784775,24.027018 C52.430996,22.359722 54.96054,20.505627 57.42205,18.576033 C58.45975,17.76257 59.36772,16.790947 60.257195,15.817607 C61.77853,14.152836 62.250397,12.924089 61.308636,10.854454 C60.818653,9.77765 59.94071,8.777809 58.788143,8.393307 C50.1308,5.5051727 39.66597,9.287222 31.61861,10.447774 C29.774431,10.713733 27.895481,10.697783 26.05507,10.988664 C24.109386,11.296182 21.594189,12.401612 20.00167,13.402719 C16.848995,15.38459 13.229063,17.20918 12.016827,20.936382 C11.466367,22.628853 11.685242,23.721828 11.670022,25.671152 L11.670022,25.671152" /><path fill="none" stroke="#000000" stroke-width="0.06mm" d="M62.350864,176.10997 C62.04167,175.4152 61.769337,174.70284 61.423294,174.02567 C61.096172,173.38553 60.41847,172.80698 59.775337,172.50659 C58.107193,171.72748 56.407536,170.77997 54.537613,170.5465 C53.83724,170.45903 53.127728,170.44289 52.422066,170.45724 C51.754925,170.47084 51.043533,170.76013 50.37329,170.55672 C49.01452,170.14435 48.53033,167.96408 48.31832,166.88248 C48.141315,165.97949 47.929764,165.05861 47.996017,164.14081 C48.716965,154.15411 49.860077,144.20193 50.67606,134.22255 C50.82264,132.42992 49.260895,130.12982 47.84762,129.16907 C47.476295,128.91664 47.064507,128.7296 46.673794,128.50836 C46.018726,128.13745 45.33291,127.81577 44.71029,127.392654 C42.612473,125.96705 40.702465,124.82472 39.66741,122.510704 C39.46373,122.055336 39.24712,121.58679 39.195026,121.090675 C38.437233,113.87354 38.42861,113.9018 39.13451,107.839806 C39.985584,100.53108 41.3864,96.496506 40.379856,89.99366 C39.800205,86.24878 38.6365,84.382996 37.052147,80.80332 L37.052147,80.80332" /><path fill="none" stroke="#004675" stroke-width="0.06mm" d="M30.908165,112.58145 C30.434425,115.72959 28.660934,120.30855 30.996765,123.32056 C33.4795,126.52201 35.597878,127.861435 36.10381,131.50372 C36.243378,132.50848 36.249134,133.51611 36.006966,134.50253 C35.627193,136.04941 34.498177,138.16042 35.029907,139.95285 C35.759293,142.41159 38.376717,143.81407 39.240086,146.23727 C39.599827,147.24696 39.827293,148.43567 39.772923,149.51346 C39.73189,150.32683 39.50854,151.1236 39.460186,151.93655 C39.45354,152.0483 39.531868,152.15738 39.610947,152.2366 C40.03128,152.65765 40.499817,153.02766 40.944252,153.42319 L40.944252,153.42319" /><path fill="none" stroke="#004675" stroke-width="0.06mm" d="M34.85588,155.09132 C37.190758,156.89868 39.503464,158.73508 41.86052,160.5134 C42.75994,161.192 43.7706,160.2926 44.240635,159.58646 C45.99883,156.94508 45.817936,150.65616 46.004375,149.26108 C46.151867,148.15747 46.393337,147.06845 46.587822,145.97214 L46.587822,145.97214" /><path fill="none" stroke="#000000" stroke-width="0.06mm" d="M177.1416,48.166775 C174.2909,46.657223 175.69788,47.318512 172.93286,46.1554 L172.93286,46.1554" /><path fill="none" stroke="#000000" stroke-width="0.06mm" d="M128.34467,215.54189 C133.87029,219.5613 140.03009,222.8292 144.92157,227.60013 C152.47885,234.97116 161.4448,247.83455 166.62082,257.88702 C170.31108,265.05396 175.06381,289.1145 175.126,289.32825 C176.12444,292.75922 177.58456,296.05804 179.21533,299.23752 C181.50272,303.69724 184.45197,307.79013 186.85196,312.19028 C187.35376,313.11032 187.71313,314.12366 187.89746,315.1553 C188.9219,320.88898 189.26622,326.7396 190.46976,332.43835 C191.27173,336.2357 192.84447,343.96124 196.37201,347.68854 C199.05908,350.52777 203.20723,352.39545 207.06314,352.8713 C208.97484,353.1072 210.89963,353.2212 212.81786,353.39612 L212.81786,353.39612" /><path fill="none" stroke="#000000" stroke-width="0.06mm" d="M182.52438,63.61651 C189.44771,79.30316 181.71893,61.401257 192.46039,89.1483 C193.10518,90.8139 193.775,92.484924 194.677,94.02646 C195.59421,95.593895 196.81877,96.95993 197.88968,98.42667 L197.88968,98.42667" /><path fill="none" stroke="#000000" stroke-width="0.06mm" d="M171.43552,43.028816 C180.0366,54.394302 179.6017,52.13485 184.20988,62.881985 C185.18823,65.16373 185.80548,67.59346 186.84242,69.84918 C187.91568,72.18387 189.5642,74.2381 190.5257,76.62098 C192.40475,81.27777 193.70049,86.14937 195.33551,90.89735 C196.04265,92.9509 196.89583,94.954056 197.55182,97.02451 C197.96616,98.33224 197.95047,99.78137 198.54234,101.018906 C199.36032,102.72919 200.65982,104.16418 201.71857,105.73682 L201.71857,105.73682" /><path fill="none" stroke="#000000" stroke-width="0.06mm" d="M211.20874,353.8603 C211.8235,356.48743 211.90163,358.1704 213.12366,360.3238 C213.45096,360.90057 213.86674,361.4228 214.26062,361.95636 C215.01411,362.97705 215.98372,363.85785 216.56506,364.98553 C219.37848,370.44293 222.18695,375.92764 224.413,381.6498 C226.28683,386.46655 227.21817,391.60187 228.82979,396.51254 C229.12589,397.41473 229.7307,398.18594 230.1236,399.05038 C233.02286,405.42926 236.22977,411.6844 238.70491,418.2395 C256.95276,466.5667 236.8288,422.786 256.6085,463.56195 L256.6085,463.56195" /><path fill="none" stroke="#000000" stroke-width="0.06mm" d="M339.0099,587.9229 C336.47275,587.24884 334.74985,587.11346 332.67758,585.7594 C332.00037,585.31683 331.11078,584.21063 330.1553,583.94366 C327.99872,583.3412 325.8143,582.843 323.6438,582.2928 L323.6438,582.2928" /><path fill="none" stroke="#000000" stroke-width="0.06mm" d="M329.33984,579.31213 L333.91882,583.22906" /><path fill="none" stroke="#000000" stroke-width="0.06mm" d="M345.16956,583.4851 C335.23087,577.2758 333.92038,578.3795 322.45157,581.03424 L322.45157,581.03424" /><path fill="none" stroke="#000000" stroke-width="0.06mm" d="M376.36542,302.63983 L373.32764,302.45004" /><path fill="none" stroke="#000000" stroke-width="0.06mm" d="M418.3573,552.8835 C418.85095,552.74634 427.20245,552.4328 428.03406,553.6478 C428.44183,554.24365 428.5595,554.9929 428.82214,555.66547 L428.82214,555.66547" /><path fill="none" stroke="#000000" stroke-width="0.06mm" d="M430.5442,554.0095 C429.95102,550.60406 429.04553,547.2385 428.76462,543.7932 C423.45947,478.7259 439.34167,562.1687 408.3996,432.9121 C407.0729,427.37006 404.42245,422.18234 403.2929,416.59677 C398.80002,394.37994 396.2721,371.78812 391.555,349.61786 C390.60223,345.13998 388.44482,340.97757 386.33878,336.91266 C374.55524,314.1692 379.7215,326.47226 372.4583,314.01956 C371.32,312.06796 370.40408,309.99188 369.2601,308.04358 C368.7433,307.16342 367.95398,306.4552 367.4845,305.54895 C366.40805,303.47095 365.5896,301.26913 364.64215,299.12927 L364.64215,299.12927" /><path fill="none" stroke="#000000" stroke-width="0.06mm" d="M435.31296,554.27454 C430.28775,551.5243 433.11902,553.30493 427.1001,548.5119 L427.1001,548.5119" /><path fill="none" stroke="#000000" stroke-width="0.06mm" d="M418.29102,557.1889 C417.32886,556.16644 416.29004,555.21106 415.40454,554.1215 C414.4558,552.95416 415.48355,551.367 416.33176,550.5561 C417.9743,548.98584 419.66913,547.4711 421.33783,545.92865 L421.33783,545.92865" /><path fill="none" stroke="#000000" stroke-width="0.06mm" d="M416.63525,544.6039 C408.3426,541.6728 400.0499,538.7416 391.7572,535.8104 C390.44254,535.60956 389.1422,535.2566 387.81314,535.2079 C383.10718,535.0355 377.9511,535.6533 373.7245,537.8735 C372.28088,538.63184 370.792,539.7415 369.9939,541.2135 C368.0498,544.799 369.31638,550.23035 372.4455,552.7657 C377.66922,556.99805 384.1231,556.0958 390.50574,555.9899 C394.843,555.91797 399.17722,555.4623 403.51315,555.5906 C408.2729,555.73145 411.339,556.6691 415.62167,558.2734 C417.49597,558.97546 418.9489,560.15674 420.9975,559.80194 C422.06012,559.6179 423.0053,559.0359 423.75067,558.26685 C426.64282,555.2825 424.63425,550.24274 422.762,547.33 C416.57138,537.6992 403.70618,530.4129 392.3911,529.0454 C389.89304,528.7435 387.35925,529.12885 384.84326,529.17065 L384.84326,529.17065" /><path fill="none" stroke="#000000" stroke-width="0.06mm" d="M362.12527,530.6278 C356.07922,531.4323 354.78625,531.1266 349.56436,533.3458 C342.14948,536.49695 334.77072,539.7403 327.48904,543.1881 C326.53195,543.64136 325.70093,544.3359 324.89728,545.0255 C322.4177,547.1533 320.17337,550.2599 319.90463,553.6198 C319.6524,556.7733 321.5141,559.6807 323.05994,562.23145 C325.25433,565.8525 328.66754,569.3146 333.2212,569.2531 C342.57343,569.12683 352.3245,565.8873 360.88635,563.4828 C364.827,562.3761 371.3315,558.6927 373.2198,554.7459 C377.33655,546.1412 368.09158,538.1488 363.29645,532.813 C361.07947,530.346 357.31473,528.8739 354.02707,529.5473 C347.4762,530.889 342.12552,535.4404 337.0229,539.5036 L337.0229,539.5036" /><path fill="none" stroke="#000000" stroke-width="0.06mm" d="M332.51904,545.06757 C329.5413,544.3906 326.5196,543.8843 323.58582,543.03687 C322.8708,542.8303 318.5377,541.5382 318.10184,539.73816 C317.48315,537.183 324.63028,534.166 326.33582,533.75134 C329.1867,533.0581 332.15683,532.5689 335.1048,532.8105 C336.14105,532.8954 337.15643,533.1537 338.1731,533.37134 C339.34494,533.6222 340.66318,534.8689 341.66776,534.21545 C342.40796,533.73395 340.53177,532.8561 339.87848,532.26196 C338.8767,531.3509 337.68683,530.6605 336.4116,530.21545 C336.29898,530.17615 332.43588,529.5779 333.7112,530.3629 L333.7112,530.3629" /><path fill="none" stroke="#000000" stroke-width="0.06mm" d="M341.9904,520.8248 C349.94507,514.3822 351.5838,513.4242 362.18185,511.44968 C364.23315,511.0675 366.33502,510.93335 368.42163,510.9478 C375.11212,510.9942 381.63007,513.8347 386.62665,518.1807 C388.38504,519.71014 389.4969,522.21747 388.772,524.5246 C387.5737,528.3385 381.55328,530.2025 378.78342,531.132 C373.30347,532.97095 363.62247,534.4707 358.07602,531.67114 C357.05298,531.1548 356.13922,530.44574 355.17084,529.833 L355.17084,529.833" /><path fill="none" stroke="#000000" stroke-width="0.06mm" d="M415.50928,518.97015 C410.66425,513.097 409.95117,511.2505 404.35693,507.29077 C403.3469,506.57587 400.3291,504.45032 398.34946,504.50958 C396.67892,504.55963 395.7817,505.86664 394.9411,507.1227 C391.8332,511.76636 387.8232,515.11444 390.5097,520.5222 C395.86743,531.30695 407.216,532.7345 418.29315,530.7855 C421.50244,530.2209 429.88794,527.4411 430.2623,523.122 C430.66592,518.46576 421.0661,510.36447 416.44623,508.40106 C406.59976,504.2164 398.51987,504.91458 388.35364,506.45132 L388.35364,506.45132" /><path fill="none" stroke="#000000" stroke-width="0.06mm" d="M442.66492,467.63644 C447.13272,467.00787 449.5442,466.18597 453.56152,466.6929 C458.07812,467.26288 461.9014,469.36166 460.13333,474.20795 C459.8456,474.99646 459.0114,476.33508 458.40457,476.82285 C456.12994,478.6512 453.6219,480.17444 451.3354,481.9879 C451.10318,482.17206 450.9693,482.47784 450.90875,482.76797 C450.67108,483.90646 451.92935,484.99518 452.70383,485.54327 C457.99207,489.28583 459.33026,488.3227 465.0517,486.24902 L465.0517,486.24902" /><path fill="none" stroke="#000000" stroke-width="0.06mm" d="M479.88797,463.66217 C477.8454,465.18518 475.69885,466.57794 473.76025,468.23123 C470.81723,470.74115 468.22202,474.5951 468.02545,478.56787 C467.76828,483.76566 472.6891,493.36578 479.1937,489.63443 C481.74988,488.16806 483.79776,485.70865 484.5492,482.82782 C484.81708,481.80078 484.88034,480.73047 485.08813,479.68958 C485.25723,478.84256 485.03568,477.74268 485.67932,477.16666 C486.04935,476.8355 486.37027,477.9007 486.58868,478.34668 C487.072,479.33383 487.2788,480.44135 487.76526,481.42688 C488.16037,482.22736 488.6595,482.9804 489.219,483.67596 C491.25385,486.20578 493.27936,486.88968 496.24756,488.50104 L496.24756,488.50104" /><path fill="none" stroke="#000000" stroke-width="0.06mm" d="M510.28897,442.5988 C511.05313,454.93488 511.70834,467.2782 512.5813,479.60703 C512.7363,481.79636 515.00073,481.06973 515.863,479.80444 C523.4723,468.6371 530.82477,457.29688 538.30566,446.0431 L538.30566,446.0431" /><path fill="none" stroke="#000000" stroke-width="0.06mm" d="M527.8408,473.73022 C545.9839,488.62738 537.93695,482.09058 551.9497,493.40262 L551.9497,493.40262" /><path fill="none" stroke="#000000" stroke-width="0.06mm" d="M544.92896,485.6529 C547.0449,474.2126 549.5974,462.84442 551.27686,451.33188 C551.5272,446.551 551.7776,441.77008 552.028,436.98923 C551.93274,437.17352 551.75916,437.33533 551.74207,437.54214 C551.14124,444.8212 550.3295,452.09552 550.17834,459.39777 C550.1059,462.89407 550.1635,469.90222 552.5769,473.7456 C555.06714,477.71136 560.12885,478.48108 563.97687,476.07553 C565.0449,475.4079 566.8389,472.95023 567.90204,473.2019 C569.314,473.53607 570.203,477.48895 570.4287,478.10187 L570.4287,478.10187" /><path fill="none" stroke="#000000" stroke-width="0.06mm" d="M563.3418,442.99622 L565.80145,443.07138" /><path fill="none" stroke="#000000" stroke-width="0.06mm" d="M575.85986,463.66217 C576.87146,465.0461 577.88306,466.43008 578.8946,467.81396 C579.1474,467.93002 579.37646,468.13226 579.6531,468.162 C580.71844,468.2765 581.58484,466.76373 581.8735,466.0023 C583.4898,461.73746 584.7777,457.34894 586.498,453.12494 C586.92694,452.07172 587.99365,453.26947 588.1637,453.50165 C588.5799,454.06976 588.9237,454.6986 589.17584,455.35623 C590.18713,457.9941 591.17255,460.6489 591.9453,463.36627 C592.65326,465.8551 593.05536,468.42093 593.61035,470.94827 L593.61035,470.94827" /><path fill="none" stroke="#000000" stroke-width="0.06mm" d="M600.16754,451.80576 C599.8019,453.29324 599.29114,454.7524 599.07056,456.2682 C598.49725,460.20746 599.2688,465.3525 601.63745,468.65686 C604.6309,472.83304 610.8668,471.8162 613.7383,467.91382 C615.72925,465.20804 616.1686,460.2721 616.2908,457.25342 C616.5266,451.42416 614.6061,442.33908 609.00305,439.1513 C605.64874,437.24292 602.69946,438.3843 598.9753,438.95578 L598.9753,438.95578" /><path fill="none" stroke="#000000" stroke-width="0.06mm" d="M465.18417,523.20935 C464.5013,526.12036 463.81848,529.0314 463.13556,531.9424 C462.73862,533.0755 462.2022,534.16907 461.94458,535.3418 C461.87482,535.6593 461.9234,536.08936 462.18082,536.28784 C463.24463,537.10815 465.44254,535.5189 466.532,535.30066 C467.42798,535.12115 468.3158,535.1504 469.19186,535.41626 C471.80325,536.2087 473.01913,538.8751 475.4873,539.8934 C478.73114,541.23175 483.4503,536.7815 483.96924,533.8506 C484.39163,531.46484 484.64838,529.0526 484.98795,526.6537 L484.98795,526.6537" /><path fill="none" stroke="#000000" stroke-width="0.06mm" d="M500.48648,517.18176 C497.81415,518.155 495.92645,518.4824 493.81686,520.2021 C492.21393,521.5088 490.83633,522.81537 489.87305,524.62537 C487.32938,529.4049 487.98203,535.416 491.9914,539.0987 C496.87,543.5797 503.1007,541.2267 505.32825,535.2654 C505.81488,533.963 506.09418,529.312 508.02792,529.23596 C508.90274,529.20154 509.58765,529.92426 510.18793,530.39813 C512.3464,532.10187 514.4942,533.819 516.6474,535.5294 L516.6474,535.5294" /><path fill="none" stroke="#000000" stroke-width="0.06mm" d="M522.40967,517.1155 C523.66016,521.5609 524.56335,526.11914 526.1612,530.4519 C526.4111,531.12933 526.493,529.0398 526.5415,528.31934 C526.6167,527.20276 526.43463,526.077 526.53094,524.96216 C526.7383,522.5614 527.45874,520.05444 528.9743,518.1369 C531.3518,515.1287 536.2638,512.54584 539.7424,515.26587 C543.25195,518.0101 545.6192,523.3878 547.4033,526.53467 C548.4402,528.3635 549.9664,532.03467 549.5155,534.354 C549.3257,535.3305 548.8864,536.2416 548.57184,537.18536 L548.57184,537.18536" /><path fill="none" stroke="#000000" stroke-width="0.06mm" d="M556.851,528.1771 C562.78314,525.2988 562.82544,525.7517 567.9323,521.3025 C568.79346,520.55225 569.5196,519.65344 570.21606,518.7483 C571.11566,517.5791 573.0303,514.44165 571.24243,513.1281 C569.84875,512.10425 567.17206,512.45807 565.8111,512.6193 C560.64307,513.23157 557.1633,517.2666 558.9997,522.4447 C559.6117,524.1703 560.95966,525.79297 562.80066,526.25354 C564.0477,526.56555 565.3251,526.7411 566.5873,526.9848 L566.5873,526.9848" /><path fill="none" stroke="#000000" stroke-width="0.06mm" d="M530.82135,564.2763 C527.678,570.52325 529.66815,567.7588 524.92664,572.6222 L524.92664,572.6222" /><path fill="none" stroke="#000000" stroke-width="0.06mm" d="M532.8746,573.8807 C538.13025,577.7678 534.7206,576.28876 543.86926,575.7353 L543.86926,575.7353" /><path fill="none" stroke="#000000" stroke-width="0.06mm" d="M558.1094,554.47327 C555.9946,555.57587 553.80835,556.5513 551.7649,557.7812 C547.2944,560.472 544.51544,565.8835 544.19135,570.97595 C544.0986,572.43335 544.1338,573.9966 544.6394,575.39606 C546.5566,580.7025 553.92706,580.7096 557.0269,576.5109 C559.144,573.64343 559.85315,572.5291 560.94385,569.52765 C561.30304,568.5391 561.2536,567.354 561.892,566.51825 C562.1099,566.233 562.496,566.90625 562.798,567.1002 C564.61304,570.2656 566.42804,573.431 568.2431,576.59644 L568.2431,576.59644" /><path fill="none" stroke="#000000" stroke-width="0.06mm" d="M572.01843,560.89825 C573.2572,563.5826 574.3738,566.3268 575.73474,568.95123 C575.8062,569.0892 575.9071,568.69275 575.9933,568.56354 C575.85565,567.4751 575.62616,566.3943 575.5805,565.2981 C575.496,563.2699 575.8316,560.9468 577.0026,559.22595 C578.2,557.4663 579.4416,556.4613 581.26404,555.204 C584.9337,552.6723 588.1869,556.4316 590.1693,559.1505 C590.7076,559.8888 591.99426,562.19183 592.10095,563.3042 C592.51013,567.5687 592.6215,571.8565 592.88184,576.1327 L592.88184,576.1327" /><path fill="none" stroke="#000000" stroke-width="0.06mm" d="M596.4584,520.22864 C602.0456,539.1688 600.5353,531.1155 601.1193,562.04565 C601.1712,564.79175 600.52893,567.50696 600.2337,570.2377 L600.2337,570.2377" /><path fill="none" stroke="#000000" stroke-width="0.06mm" d="M580.29755,549.7704 L598.57794,550.6977" /><path fill="none" stroke="#000000" stroke-width="0.06mm" d="M610.9635,551.4263 C611.4581,553.24023 612.104,555.0196 612.44745,556.86816 C613.37,561.8339 611.3355,566.4337 613.2877,571.464 C615.17426,576.3249 621.47424,571.5553 621.96405,567.6213 C622.26996,565.16406 622.4445,562.6891 622.53253,560.2145 C622.5593,559.4611 622.325,557.2107 622.3076,557.9643 C621.885,576.30145 623.81305,580.36365 620.71643,593.2189 C620.1713,595.48193 617.83594,597.6262 616.2182,598.96497 C610.3987,603.7812 608.01685,603.09454 601.29346,601.17035 L601.29346,601.17035" /><path fill="none" stroke="#000000" stroke-width="0.06mm" d="M401.00415,568.25055 C399.03015,567.6521 396.86005,567.5009 395.0821,566.4551 C394.54413,566.1387 396.25104,566.0174 396.8355,565.7985 C400.94662,565.3077 405.03848,564.61237 409.16895,564.326 C410.14346,564.25836 412.66022,563.96387 412.0699,564.74225 C411.3371,565.7085 409.6234,564.88403 408.46753,565.25085 C403.94833,566.68494 399.52014,568.39734 395.10513,570.12573 C394.5348,570.34906 393.84995,571.01086 393.79553,571.6838 C393.65466,573.426 396.175,574.8704 397.4837,575.3579 C404.02637,577.79474 415.53036,575.2426 422.4085,575.5357 C427.06436,575.734 431.64343,576.82947 436.28766,577.21344 C437.47818,577.3119 441.8836,577.35156 442.44125,575.3049 C443.1993,572.5223 438.0558,568.32996 436.1523,567.1785 C432.74072,565.11475 431.1046,565.44666 426.735,563.83264 C425.04178,563.20715 422.68,561.4132 421.27155,560.4345 L421.27155,560.4345" /><path fill="none" stroke="#000000" stroke-width="0.06mm" d="M316.82175,576.4639 C318.23053,577.47864 319.56607,578.6036 321.04807,579.508 C323.01028,580.70544 326.14487,581.54956 328.3062,581.6963 C328.60797,581.7168 329.04465,581.41785 329.00537,581.118 C328.89728,580.2927 326.78784,578.65454 326.37836,578.3734 C321.59717,575.0917 315.18182,575.8333 309.7426,575.1437 C306.3845,574.7179 303.4422,573.18353 301.41464,570.45123 C297.21906,564.7973 297.3208,552.767 296.89337,548.4099 C295.7948,537.21106 296.87177,531.271 294.19766,521.77136 C292.85724,517.0096 289.6991,513.4193 285.3599,511.1778 C280.18573,508.50504 278.07126,508.55365 274.25955,505.27716 C268.7069,500.50418 264.9521,491.15485 263.27094,484.98138 C257.31174,463.09827 257.74164,464.27988 257.74173,449.9511 L257.74173,449.9511" /><path fill="none" stroke="#000000" stroke-width="0.06mm" d="M77.95117,22.661318 C75.78902,17.92062 76.916824,19.919308 74.78592,16.546873 L74.78592,16.546873" /><path fill="none" stroke="#000000" stroke-width="0.06mm" d="M70.64673,10.648855 L68.42834,5.860113" /><path fill="none" stroke="#000000" stroke-width="0.06mm" d="M66.75102,-3.3115635 L67.265045,-7.667433" /><path fill="none" stroke="#000000" stroke-width="0.06mm" d="M33.85393,74.60708 L30.878057,69.953606" /><path fill="none" stroke="#000000" stroke-width="0.06mm" d="M26.414223,62.432304 C22.0067,60.11283 23.77334,61.18724 21.003523,59.402115 L21.003523,59.402115" /><path fill="none" stroke="#000000" stroke-width="0.06mm" d="M17.324238,53.774673 L9.235239,50.74449" /><path fill="none" stroke="#000000" stroke-width="0.06mm" d="M6.8545246,42.438576 C5.7232037,41.74167 3.966589,40.875893 2.9720268,39.761242 C2.489748,39.220726 2.0975075,38.606155 1.6602478,38.028618 L1.6602478,38.028618" /><path fill="none" stroke="#000000" stroke-width="0.06mm" d="M-5.021969,30.669626 L-8.160175,29.56037" /><path fill="none" stroke="#000000" stroke-width="0.06mm" d="M3.0670319,2.1806183 C2.2309322,2.4504147 1.3778667,2.6724014 0.5587349,2.9900093 C0.21516418,3.1232262 -0.101631165,3.3217087 -0.40717125,3.5276985 C-0.64430046,3.6875668 -0.8633404,3.8763924 -1.061657,4.082449 C-2.512743,5.5901737 -0.19974709,5.8425674 0.65984154,6.6798496 C1.3393135,7.341692 1.9929676,8.397703 1.4877281,9.350732 C1.4259148,9.467328 1.0732498,10.102177 0.8194313,10.142448 C-0.05539322,10.28125 -0.94662476,10.2816515 -1.8296528,10.351252 L-1.8296528,10.351252" /><path fill="none" stroke="#000000" stroke-width="0.06mm" d="M2.2554245,-7.748598 C3.0096874,0.52703094 2.3733177,-4.683075 4.852562,7.781006 L4.852562,7.781006" /><path fill="none" stroke="#000000" stroke-width="0.06mm" d="M-0.58519363,-0.38962936 L5.8264923,-0.3625641" /><path fill="none" stroke="#000000" stroke-width="0.06mm" d="M9.722195,-2.3105392 C9.113665,-1.7043114 8.467159,-1.133955 7.8966055,-0.49186134 C7.2975826,0.18227196 6.7000732,1.1848755 6.586857,2.1039162 C6.4353046,3.3341427 7.5414295,5.559391 9.045457,4.638586 C9.792788,4.1810513 10.4614,3.4675827 10.696922,2.605566 C10.828575,2.1237183 10.58311,1.0922756 10.986561,0.8544159 C11.27776,0.6827316 11.7964115,0.9867821 11.981606,1.0965939 C12.981609,1.6895447 13.9562235,2.3243065 14.943533,2.93816 L14.943533,2.93816" /><path fill="none" stroke="#000000" stroke-width="0.06mm" d="M13.509693,-4.015003 C14.332489,-2.6014462 15.155285,-1.1878891 15.978082,0.22566986 C16.08997,0.24254227 16.212875,0.32756233 16.313744,0.27628708 C16.616568,0.12236023 16.84284,-0.6133213 16.895027,-0.8267956 C17.50457,-3.3201294 17.484713,-3.5400562 17.811203,-5.854746 L17.811203,-5.854746" /><path fill="none" stroke="#000000" stroke-width="0.06mm" d="M20.273075,-3.8256226 C20.577227,-4.110525 20.84804,-4.4358387 21.185532,-4.680334 C21.294777,-4.7594795 21.027676,-4.4588127 20.975424,-4.334442 C20.928307,-4.22229 20.898312,-4.1008167 20.891047,-3.9793854 C20.87517,-3.7139626 20.963522,-3.465271 21.09948,-3.2418041 C21.580227,-2.451624 22.92906,-1.9542122 23.546553,-1.6071091 L23.546553,-1.6071091" /><path fill="none" stroke="#000000" stroke-width="0.06mm" d="M32.880013,-12.158588 C34.08825,-3.8040733 33.31103,-7.7844296 35.125446,-0.20022964 L35.125446,-0.20022964" /><path fill="none" stroke="#000000" stroke-width="0.06mm" d="M31.419125,-8.9390335 C31.825245,-9.774445 32.1821,-10.635658 32.63749,-11.445267 C33.06575,-12.206642 33.99172,-13.459518 35.003014,-13.477432 C36.070694,-13.496353 37.422165,-11.385857 36.73701,-10.571445 C36.117065,-9.8345375 35.42817,-9.158501 34.77375,-8.452026 L34.77375,-8.452026" /><path fill="none" stroke="#000000" stroke-width="0.06mm" d="M20.11075,-3.7715015 C20.914152,-4.2274227 21.749376,-4.6313343 22.520954,-5.1392536 C22.877872,-5.3742085 24.14072,-6.2479763 24.250183,-6.9582615 C24.391989,-7.8784237 22.858387,-8.2095375 22.21157,-8.076103 C20.0582,-7.6318703 18.75311,-4.102396 21.201744,-2.974823 C21.953972,-2.6284275 22.728868,-2.3335533 23.492432,-2.0129166 L23.492432,-2.0129166" /><path fill="none" stroke="#000000" stroke-width="0.06mm" d="M39.53518,-15.432259 C39.391052,-14.71487 39.197205,-14.005695 39.10279,-13.2800865 C39.00277,-12.511353 39.064213,-11.298012 39.580948,-10.6651 C40.45788,-9.590996 42.092632,-10.917496 42.284428,-12.008183 C42.56134,-13.582935 42.037693,-14.855103 41.75356,-16.541515 L41.75356,-16.541515" /><path fill="none" stroke="#000000" stroke-width="0.06mm" d="M45.270527,-16.62268 C45.34101,-15.806515 45.301247,-14.973194 45.48198,-14.174168 C45.604607,-13.631981 46.592175,-14.943344 46.699516,-15.026787 C47.626335,-15.747223 49.255203,-15.608986 49.8179,-14.490807 C50.26555,-13.601261 50.325665,-12.57386 50.518906,-11.617485 L50.518906,-11.617485" /><path fill="none" stroke="#000000" stroke-width="0.06mm" d="M52.142113,-27.336487 C51.571728,-23.414555 50.937424,-19.501392 50.430958,-15.570694 C50.297134,-14.532089 50.435062,-13.084911 50.98739,-12.155567 C51.277733,-11.667034 51.8084,-12.105312 51.989967,-12.423332 C52.710308,-13.685028 53.425945,-14.95385 54.027447,-16.27634 C54.43544,-17.173378 54.40121,-18.289978 55.01053,-19.064484 C55.373074,-19.525314 54.840286,-17.89975 54.843327,-17.313408 C54.846542,-16.69345 54.933903,-16.07542 55.029205,-15.462818 C55.178993,-14.499966 55.395008,-13.548584 55.577908,-12.591461 L55.577908,-12.591461" /><path fill="none" stroke="#000000" stroke-width="0.06mm" d="M60.8263,-29.609123 C58.85978,-18.451324 59.20879,-23.457748 59.14898,-14.647652 L59.14898,-14.647652" /><path fill="none" stroke="#000000" stroke-width="0.06mm" d="M55.659073,-19.003521 L59.257195,-19.490524" /><path fill="none" stroke="#000000" stroke-width="0.06mm" d="M62.503616,-20.464493 L62.317886,-20.46085" /><path fill="none" stroke="#000000" stroke-width="0.06mm" d="M61.935493,-19.788128 C61.94082,-19.45766 61.694492,-18.088734 62.13247,-17.5032 C62.396233,-17.150581 62.871243,-17.084625 63.277927,-17.114578 C64.9966,-17.241173 65.73654,-18.596283 66.1512,-20.13974 C66.313034,-20.742134 66.52792,-21.362663 66.46973,-21.983696 C66.43178,-22.388622 66.158844,-21.225494 66.08696,-20.825207 C65.44673,-17.26001 65.01528,-13.658478 64.335785,-10.100555 C64.26834,-9.747452 63.89019,-8.372627 63.412956,-7.8282413 C62.254406,-6.506666 61.039513,-8.923054 60.636932,-9.534241 L60.636932,-9.534241" /><path fill="none" stroke="#000000" stroke-width="0.06mm" d="M116.60323,29.980444 C125.67584,26.861904 123.53209,26.893806 133.20058,26.405394 C134.03372,26.363306 134.8745,26.48219 135.6908,26.654078 C139.50755,27.457766 143.45602,27.892242 147.08243,29.328472 C155.28581,32.57742 163.5598,35.950436 170.2374,41.730564 C171.0658,42.447617 171.77884,43.287987 172.54956,44.066696 L172.54956,44.066696" /><path fill="none" stroke="#000000" stroke-width="0.06mm" d="M116.60323,29.832186 C107.82262,33.18365 109.25986,33.11524 97.29442,34.426685 C94.871704,34.692223 92.413475,34.661983 89.982956,34.481384 C82.79408,33.947216 83.75122,34.26521 79.610466,31.908049 L79.610466,31.908049" /><path fill="none" stroke="#000000" stroke-width="0.06mm" d="M78.12779,27.608027 C78.4182,30.869205 79.436874,32.36705 81.78505,34.478172 L81.78505,34.478172" /><path fill="none" stroke="#000000" stroke-width="0.06mm" d="M63.22689,40.63163 C45.194458,36.858116 26.288544,40.50882 8.269029,43.671288 L8.269029,43.671288" /><path fill="none" stroke="#000000" stroke-width="0.06mm" d="M18.499498,40.82933 L21.613111,45.302338" /><path fill="none" stroke="#000000" stroke-width="0.06mm" d="M26.654215,40.60691 L29.248905,44.486813" /><path fill="none" stroke="#000000" stroke-width="0.06mm" d="M34.759514,39.5937 L36.81055,43.57245" /><path fill="none" stroke="#000000" stroke-width="0.06mm" d="M41.777515,38.08622 C42.058514,40.74861 41.84884,39.194305 42.518852,42.732224 L42.518852,42.732224" /><path fill="none" stroke="#000000" stroke-width="0.06mm" d="M50.67356,39.198288 C50.70144,41.344902 51.073822,42.72292 51.760864,44.58565 L51.760864,44.58565" /><path fill="none" stroke="#000000" stroke-width="0.06mm" d="M58.531754,39.420704 L58.60589,44.214977" /><path fill="none" stroke="#000000" stroke-width="0.06mm" d="M61.620667,39.12417 L62.118217,40.536102" /><path fill="none" stroke="#000000" stroke-width="0.06mm" d="M61.032295,176.10527 C60.88983,178.98538 60.301758,182.20819 61.405773,185.0254 C62.251877,187.18448 64.33843,188.6124 66.5871,189.02551 C66.634995,189.03432 71.97037,189.97435 73.66181,189.6678 C83.25342,187.92952 75.74292,188.70395 82.03687,188.16505 L82.03687,188.16505" /><path fill="none" stroke="#000000" stroke-width="0.06mm" d="M80.08469,187.89322 C83.6792,186.66557 87.55276,186.4373 91.31255,186.83449 C92.226746,186.93106 93.28919,187.29979 94.1701,187.57196 L94.1701,187.57196" /><path fill="none" stroke="#000000" stroke-width="0.06mm" d="M93.70059,186.18803 C94.595314,186.48552 95.52186,186.7005 96.384766,187.08052 C97.7156,187.66663 103.03074,191.13498 103.19869,191.23862 C106.04469,192.99489 105.25607,191.82513 109.13929,195.78131 C111.19414,197.87479 112.98176,200.2152 114.86213,202.46666 C118.317474,206.60394 122.35135,211.90976 126.21301,215.87918 C126.865845,216.55022 127.66781,217.05795 128.39522,217.64732 L128.39522,217.64732" /><path fill="none" stroke="#004675" stroke-width="0.06mm" d="M61.10643,182.62944 C62.146244,182.81946 63.186066,183.00948 64.22589,183.19951 C66.54947,183.35675 68.90052,183.28192 71.196655,183.67122 C73.54555,184.06946 75.80713,184.87717 78.09241,185.55054 C78.8844,185.7839 80.19478,187.05444 79.59598,187.95761 C79.2294,188.51053 78.246,188.92975 77.635376,189.04942 C74.999435,189.56609 72.58099,189.40857 69.84287,189.07343 C68.50139,188.90923 62.910202,188.53082 61.642975,186.22319 C61.30964,185.6162 61.307182,184.84604 61.22998,184.18631 L61.22998,184.18631" /><path fill="none" stroke="#004675" stroke-width="0.06mm" d="M64.56601,184.18631 C64.9405,184.8222 65.15399,185.47536 65.731094,185.91638 C66.361176,186.39793 69.40751,187.12302 68.846756,185.5422 C68.73349,185.2229 68.52319,184.89178 68.2855,184.64905 C67.7939,184.1471 66.97206,183.78067 66.26339,183.88542 C65.45379,184.00507 65.162506,185.04813 65.579025,185.67696 C66.3771,186.88185 69.873665,187.67567 70.58949,187.83409 C71.73979,188.08867 73.37406,188.1312 74.59729,187.97672 C75.98322,187.80167 74.75241,186.3191 74.220215,185.97034 C72.6875,184.96585 70.38605,184.1088 68.55,184.05786 C67.62419,184.03218 66.69736,184.09956 65.77364,184.1669 C65.21881,184.20734 64.26758,184.36568 64.37837,185.14429 C64.521255,186.14836 65.67903,187.36075 66.66391,187.60847 C68.92467,188.17708 72.08644,189.04056 74.3677,188.02322 C75.54431,187.49852 75.529594,186.76091 74.77561,185.7961 C74.21767,185.08215 73.41286,184.27243 72.50955,184.00406 C70.421165,183.38358 69.4548,183.28722 67.20511,183.28255 C66.72232,183.28154 66.241295,183.35637 65.76451,183.43224 C64.70169,183.60132 63.06726,185.1178 64.22461,186.12753 C65.20239,186.98059 66.60063,187.33472 67.75256,187.73682 C68.9417,188.1519 70.84915,188.39638 71.134186,186.7195 C71.31468,185.65762 70.10504,184.83246 69.400024,184.36339 C67.69896,183.23155 65.787575,182.46626 63.734203,182.34856 C63.218338,182.319 61.519875,182.1252 61.240047,183.03397 C61.08046,183.55223 61.338707,184.19748 61.545326,184.64554 C62.521072,186.76135 65.66252,187.33221 67.71017,187.60315 C67.943054,187.63397 69.75793,187.98157 70.19444,187.36261 C70.54343,186.86775 69.94625,185.97517 69.74091,185.65205 C68.642296,183.92322 66.08054,182.84119 64.06896,183.25688 C63.699196,183.3333 62.843933,183.50133 62.74804,184.03513 C62.644672,184.61057 63.391884,185.28511 63.7034,185.56723 C65.66024,187.33931 69.36333,187.63557 71.859566,187.06973 C73.57352,186.6812 71.450424,184.85252 70.7223,184.62172 C70.12021,184.43085 69.50597,184.2716 68.8836,184.16391 C68.53785,184.1041 67.55725,183.91667 67.019455,184.12366 C66.089355,184.48163 66.056435,186.03833 66.75135,186.6272 C67.93596,187.63104 70.83528,187.44229 72.17118,187.37405 C72.58889,187.35272 73.00836,187.29651 73.41179,187.18613 C73.52365,187.15552 73.66908,187.07745 73.677734,186.9618 C73.68751,186.83118 73.55553,186.72073 73.452675,186.63962 C73.2354,186.46825 72.990265,186.33015 72.7366,186.21954 C70.02953,185.03899 69.034775,185.054 65.975555,185.25105 C65.37381,185.28981 64.581,185.4493 64.4778,186.16705 C64.28612,187.5002 65.577705,188.44724 66.786575,188.48486 C69.15253,188.55849 71.749886,188.80817 74.15685,188.34608 C75.53368,188.08176 75.37968,185.81618 74.74338,184.99464 C74.33184,184.46333 73.6335,184.28047 73.01041,184.12862 C71.572655,183.77815 70.14984,183.69693 68.88863,184.57405 C68.69622,184.70787 68.58143,184.94324 68.65474,185.17607 C68.93022,186.051 71.23787,186.9315 72.04602,187.10007 C72.63565,187.22305 73.23767,187.29596 73.83949,187.32047 C74.34995,187.34125 74.8629,187.29926 75.36975,187.23535 C75.51749,187.21672 75.67908,187.17789 75.786674,187.07497 C76.02474,186.84726 75.552734,186.46391 75.48146,186.41333 C74.97832,186.0563 74.45738,185.71909 73.90686,185.44061 C73.31163,185.13953 71.83743,184.57812 71.07932,184.57417 C69.72154,184.5671 68.36806,184.72748 67.01242,184.80415 L67.01242,184.80415" /><path fill="none" stroke="#004675" stroke-width="0.06mm" d="M198.24643,98.78166 L198.24974,98.78499" /><path fill="none" stroke="#000000" stroke-width="0.06mm" d="M237.9574,158.04272 C239.38486,163.02303 240.29814,166.40663 243.74472,170.09358 C245.86707,172.36395 249.2186,173.93013 251.77402,175.23253 C252.47263,175.58858 253.20935,175.91777 253.9842,176.03792 C259.99628,176.97023 266.11856,177.19135 272.08484,178.38216 C277.4687,179.45673 280.33182,181.00162 284.43933,183.54625 L284.43933,183.54625" /><path fill="none" stroke="#000000" stroke-width="0.06mm" d="M199.65497,99.94317 C200.26227,104.89027 200.76309,109.85159 201.47682,114.784454 C201.86707,117.48179 204.72745,120.48655 206.83939,121.75028 C211.21634,124.36932 215.9602,126.33917 220.34055,128.95258 C224.90604,131.67645 226.88959,133.94846 230.0453,138.13261 C230.58577,138.84924 231.02014,139.64957 231.37596,140.47362 C234.66757,148.09682 241.41786,168.89531 242.32054,171.273 C243.73083,174.98782 246.21729,178.44832 249.42523,180.8047 C250.36176,181.49263 251.20969,181.80908 252.24054,182.26117 L252.24054,182.26117" /><path fill="none" stroke="#000000" stroke-width="0.06mm" d="M249.59503,180.03503 C251.60005,181.75003 254.10687,184.22739 257.10052,183.31981 C261.8186,181.88943 268.01636,178.39291 273.57214,179.45993 C285.87793,181.82332 293.32547,195.61813 299.3909,204.50946 C303.26404,210.18707 306.52148,216.27531 309.6463,222.39674 C319.36966,241.4446 328.09106,260.99554 337.9208,279.98868 C339.0905,282.24878 340.83002,284.1894 342.5819,286.03522 C345.47604,289.0846 348.9323,291.5671 351.81464,294.62772 C359.5404,302.83133 353.14175,300.51166 361.79413,302.10995 L361.79413,302.10995" /><path fill="none" stroke="#000000" stroke-width="0.06mm" d="M203.47626,118.50677 C204.94424,118.223145 204.20822,118.40869 205.6818,117.94168 L205.6818,117.94168" /><path fill="none" stroke="#000000" stroke-width="0.06mm" d="M207.66861,117.978134 L209.31154,118.39986" /><path fill="none" stroke="#000000" stroke-width="0.06mm" d="M211.53287,119.36351 L213.97536,120.73067" /><path fill="none" stroke="#000000" stroke-width="0.06mm" d="M215.83458,121.73324 L217.29279,122.71758" /><path fill="none" stroke="#000000" stroke-width="0.06mm" d="M219.51654,125.014404 L220.51907,126.61853" /><path fill="none" stroke="#000000" stroke-width="0.06mm" d="M221.43044,126.98309 L221.81567,127.71469" /><path fill="none" stroke="#000000" stroke-width="0.06mm" d="M222.85219,129.46219 L224.29218,132.28763" /><path fill="none" stroke="#000000" stroke-width="0.06mm" d="M200.52338,113.29337 C202.20581,112.447266 201.20532,113.00616 203.4398,111.47051 L203.4398,111.47051" /><path fill="none" stroke="#000000" stroke-width="0.06mm" d="M207.17645,112.38195 L210.93137,114.07721" /><path fill="none" stroke="#000000" stroke-width="0.06mm" d="M200.2135,108.20758 C202.73477,109.918816 201.5851,109.269966 203.58563,110.28566 L203.58563,110.28566" /><path fill="none" stroke="#000000" stroke-width="0.06mm" d="M207.54102,110.97833 C209.9247,113.204285 209.05463,112.24055 210.3116,113.71264 L210.3116,113.71264" /><path fill="none" stroke="#000000" stroke-width="0.06mm" d="M213.33739,115.00687 L215.50647,116.556305" /><path fill="none" stroke="#000000" stroke-width="0.06mm" d="M218.64163,118.79842 L220.0087,120.967636" /><path fill="none" stroke="#000000" stroke-width="0.06mm" d="M222.4694,122.24364 C223.56412,123.74445 222.94357,122.81149 224.20102,125.12378 L224.20102,125.12378" /><path fill="none" stroke="#000000" stroke-width="0.06mm" d="M225.53165,126.65498 C226.35368,128.34053 225.9292,127.372154 226.73465,129.5898 L226.73465,129.5898" /><path fill="none" stroke="#000000" stroke-width="0.06mm" d="M227.84656,132.45169 L228.55743,134.40216" /><path fill="none" stroke="#000000" stroke-width="0.06mm" d="M229.99742,137.08176 C230.31918,138.31618 230.1206,137.72772 230.58069,138.84995 L230.58069,138.84995" /><path fill="none" stroke="#000000" stroke-width="0.06mm" d="M211.66019,106.93945 C211.36075,107.20891 210.95787,107.515205 211.0251,107.97293 C211.05673,108.18824 211.1357,108.41192 211.31622,108.54749 C211.77219,108.889915 212.4811,108.56404 212.52301,107.994965 C212.56659,107.40308 212.42891,106.655334 211.81322,106.4007 C211.67209,106.34233 211.51764,106.33293 211.37805,106.399155 C210.92206,106.61552 210.86716,107.24378 210.78369,107.667564 L210.78369,107.667564" /><path fill="none" stroke="#000000" stroke-width="0.06mm" d="M213.12338,104.33101 C213.12302,105.45833 213.09497,106.58599 213.12227,107.71298 C213.12645,107.88556 213.17822,108.053925 213.21765,108.22199 C213.3426,108.75447 213.93298,108.0896 214.05984,107.90756 C214.25711,107.6245 214.43454,107.32813 214.6219,107.038414 L214.6219,107.038414" /><path fill="none" stroke="#000000" stroke-width="0.06mm" d="M214.09177,107.33533 L214.65019,108.43101" /><path fill="none" stroke="#000000" stroke-width="0.06mm" d="M215.8165,107.179794 C216.01254,107.67378 216.01495,108.13504 216.00735,108.65015 L216.00735,108.65015" /><path fill="none" stroke="#000000" stroke-width="0.06mm" d="M216.05682,105.73773 L216.04364,105.795235" /><path fill="none" stroke="#000000" stroke-width="0.06mm" d="M217.00401,107.93617 C217.16446,107.88655 217.34193,107.874664 217.48537,107.78731 C217.55551,107.74458 217.32068,107.78427 217.23901,107.79306 C217.146,107.803055 217.05792,107.87201 217.00868,107.947945 C216.9088,108.10203 216.90565,108.31741 216.91725,108.49132 C216.93832,108.80713 217.13835,109.02595 217.3221,109.26514 L217.3221,109.26514" /><path fill="none" stroke="#000000" stroke-width="0.06mm" d="M218.60152,107.33533 C218.64307,107.73089 218.68466,108.12644 218.72621,108.52201 C218.73428,108.70224 218.69118,108.89229 218.7504,109.06272 C218.76884,109.11582 218.84093,108.993576 218.87436,108.94839 C218.95853,108.83464 219.01492,108.70177 219.10078,108.58928 C219.17723,108.48912 219.26782,108.40017 219.35907,108.31328 C219.44012,108.23613 219.58849,108.11668 219.71643,108.16524 C220.07951,108.30305 220.09973,109.7286 220.11417,109.9367 L220.11417,109.9367" /><path fill="none" stroke="#000000" stroke-width="0.06mm" d="M221.05429,106.27497 C221.019,107.26348 220.96245,108.251465 220.94846,109.24051 C220.94684,109.35275 220.92621,109.946266 221.21306,109.97482 C221.55234,110.008606 222.0398,109.4546 222.24152,109.24899 C222.31325,109.175865 222.37198,109.08811 222.4546,109.02754 C222.48203,109.00744 222.52657,109.00169 222.55618,109.01837 C222.63907,109.064964 222.64687,109.24627 222.65791,109.306786 C222.83994,110.304695 222.74194,109.905266 222.91333,110.53755 L222.91333,110.53755" /><path fill="none" stroke="#000000" stroke-width="0.06mm" d="M224.20686,109.90135 C224.08043,110.312706 224.0255,110.63319 224.22745,111.01521 C224.30846,111.168434 224.4252,111.315636 224.58124,111.39803 C225.10364,111.673935 225.59264,111.15671 225.6871,110.671875 C225.8111,110.0354 225.24513,109.30471 224.58159,109.663666 C224.29314,109.8197 224.12509,110.162 223.95241,110.410324 L223.95241,110.410324" /><path fill="none" stroke="#000000" stroke-width="0.06mm" d="M277.5703,507.69177 C281.55978,509.4106 283.47818,510.5844 287.33212,511.38235 C287.99228,511.51904 288.67188,511.55933 289.34598,511.56866 C291.8667,511.60364 294.39676,511.729 296.90863,511.5153 C308.23825,510.55133 309.147,509.51288 320.8919,505.92844 L320.8919,505.92844" /><path fill="none" stroke="#000000" stroke-width="0.06mm" d="M292.46686,512.40424 C293.9629,514.7627 293.2756,513.51025 294.50372,516.1742 L294.50372,516.1742" /><path fill="none" stroke="#000000" stroke-width="0.06mm" d="M300.49277,509.3031 C301.77902,515.21826 301.05573,512.9612 302.19522,516.2046 L302.19522,516.2046" /><path fill="none" stroke="#000000" stroke-width="0.06mm" d="M306.36017,510.276 L308.09302,515.2013" /><path fill="none" stroke="#000000" stroke-width="0.06mm" d="M313.13962,507.14453 L313.38284,511.2489" /><path fill="none" stroke="#000000" stroke-width="0.06mm" d="M317.48697,505.83722 L318.58142,508.96872" /><path fill="none" stroke="#004675" stroke-width="0.06mm" d="M294.13892,501.79364 C292.5635,501.49976 291.00684,501.07648 289.41272,500.91196 C286.2694,500.5875 282.01453,500.52725 278.98627,501.78244 C278.5624,501.95813 278.06207,502.18335 277.79636,502.59436 C277.10974,503.6564 278.1236,505.236 278.89694,505.93573 C279.35672,506.3518 279.98163,506.70642 280.56735,506.88696 C287.2341,508.942 290.9091,507.81973 299.91284,507.8089 C301.01132,507.80762 302.10278,507.60345 303.20126,507.5932 C306.60687,507.56158 307.62885,508.08948 310.50195,507.34454 C312.78622,506.75226 314.57333,506.1611 314.45584,503.57333 C314.39722,502.28217 313.37878,501.18524 312.4524,500.41586 C307.2824,496.12186 298.38214,496.57166 292.40912,496.90497 C289.61148,497.06107 286.84528,497.60184 284.09094,498.11624 C281.79794,498.54453 278.78027,499.96848 278.4785,502.6264 C278.23926,504.73315 282.3628,506.99423 283.61057,507.61783 C287.04645,509.33502 291.51224,510.3648 295.35242,510.03183 C300.2182,509.60992 304.62653,507.50143 309.13315,505.7196 C309.76855,505.46835 311.6204,504.55988 311.5697,503.50867 C311.48065,501.66113 304.95938,498.34717 304.11963,497.96228 C300.13522,496.13635 295.72382,496.18622 291.41324,496.19894 C286.9657,496.2121 283.42404,496.87274 279.696,499.1166 C278.4545,499.8639 276.5521,501.38916 277.01236,503.10645 C277.6334,505.42358 282.343,507.67474 284.42117,508.27698 C288.06744,509.3336 292.27002,509.7733 295.9965,509.35294 C299.57166,508.94965 303.07077,508.0161 306.56277,507.14987 C307.50363,506.9165 308.37335,506.4545 309.25998,506.06268 C309.39526,506.00287 309.50995,505.90137 309.61758,505.79993 C310.27505,505.18054 310.13556,504.20462 309.81177,503.45288 C308.61884,500.68365 304.35434,498.01947 301.54874,497.50067 C295.47165,496.37698 289.33905,496.2401 283.30045,497.64426 C281.2891,498.11194 279.1144,499.91312 279.37726,502.18408 C279.63168,504.38245 281.52014,506.21103 283.367,507.18634 C286.9894,509.09933 291.1862,509.38727 295.2088,509.19742 C296.72955,509.1256 298.26364,508.96854 299.73264,508.56854 C302.40674,507.84048 305.002,506.83923 307.58258,505.82834 C308.15323,505.60486 308.65106,505.2245 309.15598,504.87714 C310.16153,504.1855 310.49478,503.25797 309.82687,502.15552 C308.92773,500.67133 308.19727,499.6871 306.89505,498.53772 C305.50705,497.31268 303.20093,496.1925 301.65375,495.62357 C297.3682,494.04764 292.9077,493.4086 288.37994,494.09872 C285.5392,494.53168 281.2013,495.25287 279.6693,498.24603 C278.21225,501.09283 281.61014,504.392 283.51868,505.8479 C288.2831,509.48233 294.98523,511.0916 300.91794,510.7223 C303.37692,510.56918 306.71747,509.59827 307.56943,506.9677 C308.2986,504.71625 306.6467,502.8759 305.1921,501.34653 C300.15515,496.05072 294.31946,496.84955 287.4711,497.83038 C284.6771,498.2306 282.7194,498.96738 280.30103,500.12274 C279.7533,500.38443 279.3082,500.90768 279.06445,501.45358 C277.88892,504.08652 280.98688,505.9069 282.85474,507.00323 C283.5532,507.4132 284.2814,507.80508 285.06342,508.0158 C289.8941,509.31744 295.67697,509.72015 300.55054,508.49548 C301.2895,508.3098 303.64673,507.81256 304.7547,506.95352 C305.32404,506.51218 305.5855,505.7083 305.63327,505.02005 C305.85278,501.85675 302.51788,500.7308 300.0785,499.5792 C298.03647,498.61517 295.56268,498.21506 293.35406,498.05908 C291.66135,497.93948 289.7964,498.06372 288.2704,498.89557 C287.31848,499.41446 286.17722,500.26468 285.93756,501.4002 C285.58664,503.0628 287.58905,505.07806 288.94522,505.65674 C291.5439,506.76556 294.36398,507.0506 297.1654,506.82578 C298.20303,506.74255 299.15698,506.33264 300.07477,505.8755 C302.17157,504.83112 301.8112,503.2395 300.47742,501.59436 C297.62326,498.07397 291.2459,497.58746 287.18085,498.60535 C286.05573,498.88705 284.9597,499.28644 283.88806,499.73013 C281.47528,500.72906 279.89832,502.11722 281.78754,504.54105 C282.92773,506.0038 284.7971,506.30994 286.56625,506.3776 C290.806,506.53964 292.84885,506.22986 296.98495,505.0942 C298.86447,504.57812 301.12396,503.86118 301.762,501.79962 C301.99506,501.04645 302.0414,500.2082 301.79987,499.45105 C301.39645,498.18686 300.1971,497.24005 299.03525,496.7078 C294.13864,494.46475 287.73874,494.88348 283.30222,498.0015 C282.34808,498.67206 281.2306,499.6895 281.40094,500.97556 C281.5495,502.09695 282.37964,503.1412 283.0819,503.94217 C285.1154,506.26163 287.64337,506.59253 290.67822,506.81592 C292.8949,506.9791 294.5187,506.78958 296.61176,506.23883 C298.1567,505.8323 300.28732,504.09406 299.99515,502.28107 C299.7591,500.81653 297.42688,499.50354 296.63678,499.0189 C295.37607,498.24554 294.06577,497.53882 292.69815,496.97565 C290.35452,496.01056 287.89853,495.36014 285.36288,495.2529 C283.00403,495.15314 280.28217,495.59906 278.3789,497.11316 C276.29,498.77502 277.77386,502.216 279.26993,503.72202 C280.37952,504.83896 282.11673,505.55014 283.4798,506.03076 C287.1999,507.34235 289.14136,507.49713 293.13544,507.55167 C294.35434,507.56836 298.88556,507.2346 298.8789,505.0769 C298.87592,504.10144 298.0682,503.06174 297.52994,502.4037 C295.55316,499.9871 292.78604,498.75287 289.7363,498.25043 C287.30383,497.84967 284.86063,497.819 284.26947,500.617 C283.96805,502.04382 285.26407,502.9706 286.349,503.58966 C288.5593,504.85086 290.74405,505.26144 293.27814,505.1814 C294.44498,505.1446 295.46973,505.12302 296.4833,504.638 C298.05396,503.88647 297.5364,501.31662 296.34845,500.45227 C295.68076,499.96643 294.91537,499.65204 294.12268,499.43225 C292.5117,498.98553 291.23203,499.45068 289.8334,500.30872 C289.2499,500.66663 288.83258,501.01703 288.45743,501.56546 C287.60577,502.81046 288.99625,504.36838 290.14258,504.77823 C292.07333,505.46854 294.50845,505.03238 296.4028,504.61795 C297.638,504.34772 299.10406,503.834 300.01532,502.87537 C301.1848,501.64496 300.96973,500.55118 299.61484,499.52216 C298.1494,498.40915 296.39587,497.21185 294.50153,496.98004 C293.3713,496.84177 292.5176,496.8809 291.42728,497.14124 C290.85428,497.27808 290.29602,497.52533 289.83344,497.8944 C288.86725,498.6654 287.7522,500.37946 288.6518,501.57178 C289.3741,502.5291 290.9986,502.95905 291.9528,503.24414 C293.79077,503.79337 294.9687,503.72913 296.9678,503.5248 C297.54416,503.46594 298.11334,503.32877 298.66626,503.15573 C298.7631,503.1254 298.83932,503.0263 298.87,502.92957 C298.94586,502.69025 298.70154,502.35168 298.56577,502.22333 C298.1705,501.84985 297.76035,501.48743 297.3126,501.17877 C296.7249,500.77368 296.10822,500.40732 295.46942,500.0889 C294.84958,499.7799 293.81772,499.44376 293.08444,499.42923 C292.13202,499.41034 289.54074,499.4956 288.8504,500.47644 C288.0862,501.56223 289.29648,503.32407 290.04413,504.05124 C291.94073,505.89594 296.6828,504.89136 298.76,504.48517 C300.00522,504.24167 301.99884,503.63867 299.96802,502.53702 C299.21686,502.12955 298.45355,501.73972 297.6642,501.41223 C297.2265,501.23068 296.76294,501.1124 296.29916,501.01508 C295.6606,500.88107 295.07404,500.87375 294.4392,500.99466 C293.494,501.1747 291.70956,502.2913 292.2891,503.4818 C292.5996,504.11963 293.44394,504.55768 294.01868,504.8158 C296.04495,505.72577 297.80634,506.21008 299.95584,505.49692 C300.74417,505.23538 302.1948,504.7693 302.71033,503.9037 C303.3811,502.7774 302.0895,501.2122 300.9343,501.11917 C299.73007,501.02222 297.73425,502.14307 298.2736,503.56952 C298.3717,503.82898 298.5287,504.07825 298.75522,504.246 C299.81354,505.02963 301.26004,503.7775 302.39258,503.81775 C303.53915,503.85846 304.38275,505.0402 305.08255,504.9242 C306.12808,504.75085 306.2747,502.65747 305.18793,502.27014 C303.9552,501.83084 303.89,501.93378 304.92825,502.65662 C305.22998,502.86673 305.71735,503.02173 306.0777,503.0711 C309.859,503.5893 308.8279,499.04932 306.6933,499.77722 C304.7766,500.4308 305.06567,501.97897 306.48325,503.0659 C307.02612,503.48215 309.08896,503.79156 309.2267,502.86752 C309.27762,502.52612 308.89362,502.13342 308.69775,501.9458 C307.64896,500.94086 305.85782,501.89978 304.99365,502.5999 C304.91077,502.6671 304.96075,502.88727 305.0645,502.91205 C305.4589,503.00623 305.88867,502.80475 306.2809,502.90744 C306.40082,502.93884 306.43143,503.14188 306.3965,503.26083 C306.32285,503.5117 306.16196,503.73718 305.98163,503.92648 C305.22174,504.72437 304.43616,505.50266 303.58966,506.2081 C301.94794,507.5763 299.68893,508.65408 297.55505,508.8388 C296.72174,508.9109 294.6603,508.46866 294.76328,507.26633 C294.81653,506.6447 295.63644,506.12204 296.0832,505.89774 C300.65366,503.6033 299.1006,504.62894 304.547,502.75186 C305.24347,502.51184 304.31757,502.00845 304.14417,501.96524 C302.4774,501.5496 300.8218,501.01147 299.11075,500.8597 C295.065,500.50073 290.9878,500.67636 286.93314,500.43826 C286.29883,500.40103 285.65344,500.287 285.07007,500.03528 C284.95642,499.98627 285.19647,499.82245 285.25964,499.7161 C286.06122,499.8643 286.871,499.97385 287.66446,500.16077 C289.19864,500.52222 290.68884,501.07123 292.23828,501.36023 C293.5403,501.60303 294.86926,501.6917 296.19238,501.75128 C296.36227,501.75894 296.54306,501.67786 296.66522,501.55948 C297.41104,500.83673 295.61914,499.62473 295.17337,499.4361 C293.15356,498.58133 290.72177,498.6202 288.5983,498.92407 C287.391,499.09686 285.1222,499.53165 284.10605,500.48557 C282.97827,501.54428 284.09406,503.37943 285.0487,504.12134 C285.47662,504.45386 286.03036,504.71277 286.55774,504.83203 C289.15866,505.42017 291.94247,504.7051 294.4055,503.94293 C294.78925,503.82422 296.6473,503.32767 296.83316,502.43695 C296.94812,501.88593 296.50296,501.30695 296.16013,500.94678 C294.90192,499.625 293.44363,499.3433 291.63434,498.9228 C291.12964,498.80548 290.61108,498.71613 290.09302,498.7218 C289.2791,498.73068 288.47333,498.88477 287.66348,498.9662 L287.66348,498.9662" /><path fill="none" stroke="#004675" stroke-width="0.06mm" d="M198.6957,343.9045 C198.56876,343.86237 196.82777,342.95853 196.05035,343.2257 C194.81079,343.65173 195.54688,345.94717 196.3728,346.4557 C200.39075,348.92957 202.534,350.2109 207.09982,350.6623 C207.51341,350.7032 208.20976,350.7244 208.61824,350.44238 C209.78577,349.63632 208.16745,347.41382 207.48987,346.89417 C205.43912,345.32153 200.74811,341.97418 197.79655,342.72723 C196.55394,343.0443 196.08595,343.7493 194.9359,344.65033 L194.9359,344.65033" /><path fill="none" stroke="#004675" stroke-width="0.06mm" d="M200.90182,345.76898 C201.65033,347.2761 201.87656,348.2011 202.89946,349.28528 C204.11447,350.57303 206.10773,351.03815 207.8136,350.8064 C208.22662,350.75034 208.8035,350.61078 208.96857,350.15628 C209.16563,349.61365 208.73865,348.82895 208.4532,348.44647 C206.89337,346.3567 205.3193,344.6325 202.94298,343.50885 C202.45619,343.27866 201.32819,342.86508 200.64111,342.84616 C199.89087,342.8255 199.54846,343.5373 199.62227,344.2042 C200.00815,347.69052 202.06018,351.2174 205.48334,352.47583 C208.03236,353.41296 207.6268,351.85992 206.34467,350.39587 C204.26247,348.01828 201.17812,345.37555 197.97983,344.70786 C197.88733,344.68854 196.36438,344.36697 196.35544,344.939 C196.35002,345.28665 197.0122,345.8907 197.14633,345.99542 C199.63208,347.93646 203.3277,350.79547 206.8084,350.12585 C207.16469,350.05737 208.13744,349.85727 208.39444,349.40604 C208.71838,348.83734 207.93771,347.96564 207.58325,347.68454 C205.94589,346.386 204.27142,345.133 202.56631,343.92474 C200.98029,342.8008 199.94785,342.91275 200.56342,345.0117 C201.23743,347.3099 202.96436,348.6444 204.95201,349.86703 C204.99596,349.8941 206.78773,350.93835 207.38849,350.7879 C208.41092,350.53186 206.02754,348.06265 205.91809,347.98038 C204.9251,347.2338 203.88777,346.542 202.81241,345.9199 C202.15213,345.53796 201.43835,345.2533 200.72717,344.9775 C199.5501,344.52118 198.31602,344.58966 198.09036,346.04327 C197.9513,346.939 197.99644,347.83 198.34755,348.67432 C198.83704,349.8513 199.80287,350.78217 200.98654,351.2469 C201.6832,351.52045 202.84686,351.8607 203.60246,351.5498 C204.21576,351.29755 203.9588,350.56293 203.74895,350.1418 C203.28519,349.21118 202.37581,347.9542 201.18376,347.96527 C200.71631,347.9696 200.25008,348.0134 199.7832,348.03745 L199.7832,348.03745" /><path fill="none" stroke="#004675" stroke-width="0.06mm" d="M217.46352,360.5293 C218.5503,362.17703 219.78217,363.73773 220.72388,365.47244 C221.53625,366.96893 222.11905,368.58224 222.70334,370.18164 C223.88246,373.40933 223.07112,372.7665 224.49222,375.1256 C226.10518,377.80313 229.65163,378.54724 231.10938,381.36356 C233.17924,385.36243 232.49283,390.198 234.1907,394.30673 C234.81032,395.8061 236.13457,396.15485 237.39313,396.9692 C238.42227,397.63522 239.243,398.68066 239.6826,399.82047 C240.44595,401.79965 240.10983,404.24673 240.31607,406.25897 C240.62036,409.2279 242.07272,410.47128 243.96843,412.70328 L243.96843,412.70328" /><path fill="none" stroke="#004675" stroke-width="0.06mm" d="M239.09004,415.28247 C241.1635,414.85693 243.55775,418.2541 246.0162,417.75018 C247.40776,417.46497 248.48251,415.7558 248.56747,414.4165 C248.87589,409.55435 248.69804,409.555 248.22539,404.99677 L248.22539,404.99677" /><path fill="none" stroke="#004675" stroke-width="0.06mm" d="M298.5008,521.4325 C299.0298,522.0497 299.6044,522.63043 300.08768,523.28406 C302.5552,526.6208 301.44528,535.4387 301.53723,538.32983 C301.60886,540.5812 303.3622,544.1157 303.8699,545.7092 C304.04364,546.2547 304.0764,546.83624 304.13965,547.4052 C304.29614,548.813 304.39914,550.22626 304.52887,551.6368 L304.52887,551.6368" /><path fill="none" stroke="#004675" stroke-width="0.06mm" d="M299.7437,555.17926 C300.713,556.8043 302.3786,559.5683 304.79547,558.67786 C305.1729,558.5388 305.5906,558.24304 305.79135,557.8849 C309.7618,550.8015 308.72058,553.32825 310.40158,548.5604 L310.40158,548.5604" /><path fill="none" stroke="#004675" stroke-width="0.06mm" d="M133.50818,210.90645 C142.28027,213.03336 143.41743,213.90411 148.96661,221.78075 C150.25648,223.6116 151.36858,225.57332 152.34071,227.59094 C154.02242,231.08122 153.82185,233.10806 155.90482,235.51965 C156.60109,236.3258 157.28395,236.65613 158.22466,237.18724 C162.46455,239.58102 164.65984,240.17632 167.68854,243.30148 C172.87625,248.6544 174.04109,256.5676 176.548,263.21896 C177.0049,264.4312 177.66974,265.55453 178.23058,266.7223 L178.23058,266.7223" /><path fill="none" stroke="#004675" stroke-width="0.06mm" d="M173.89096,271.54437 L173.89906,271.5525" /><path fill="none" stroke="#004675" stroke-width="0.06mm" d="M173.89095,271.54437 C175.22403,272.73883 176.48607,274.0177 177.89017,275.1278 C178.52673,275.6311 179.2491,276.0271 179.98723,276.3642 C185.37157,278.82324 186.1318,274.69232 187.00229,269.90814 C187.58646,266.69757 187.90504,263.44434 188.3564,260.21246 L188.3564,260.21246" /><path fill="none" stroke="#000000" stroke-width="0.06mm" d="M372.7911,578.2903 C400.50888,583.3145 400.80075,585.4044 423.7236,584.3774 C427.88147,584.1911 432.7984,583.38586 436.7296,581.6242 C441.6243,579.4309 441.67352,579.0672 445.2992,576.12036 L445.2992,576.12036" /><path fill="none" stroke="#000000" stroke-width="0.06mm" d="M378.03482,581.18353 C380.09625,586.5148 379.04065,583.408 380.92792,590.5867 L380.92792,590.5867" /><path fill="none" stroke="#000000" stroke-width="0.06mm" d="M394.4893,580.82196 L395.27283,588.41675" /><path fill="none" stroke="#000000" stroke-width="0.06mm" d="M403.34937,582.0877 L404.37405,594.14294" /><path fill="none" stroke="#000000" stroke-width="0.06mm" d="M414.86148,584.8605 L416.91074,593.2389" /><path fill="none" stroke="#000000" stroke-width="0.06mm" d="M426.91605,582.6905 L428.78452,588.7181" /><path fill="none" stroke="#000000" stroke-width="0.06mm" d="M436.98157,580.5205 L438.5487,587.0907" /><path fill="none" stroke="#000000" stroke-width="0.06mm" d="M428.00092,542.3054 C433.42657,547.26385 431.60843,563.5547 439.85904,568.67554 C442.1832,570.11804 445.15753,570.3124 446.80804,572.8065 C460.76248,593.8941 451.09656,581.02185 458.31815,590.4661 L458.31815,590.4661" /></g>
<g>
<line fill="none" stroke="#111111" stroke-width="0.04mm" x1="20.00" y1="24.00" x2="45.75" y2="19.90" />
<line fill="none" stroke="#5674b9" stroke-width="0.04mm" stroke-dasharray="0.4,0.2" x1="45.75" y1="19.90" x2="30.29" y2="39.34" />
<line fill="none" stroke="#5674b9" stroke-width="0.04mm" stroke-dasharray="0.4,0.2" x1="45.75" y1="19.90" x2="46.99" y2="30.24" />
<line fill="none" stroke="#111111" stroke-width="0.04mm" x1="45.75" y1="19.90" x2="82.05" y2="43.88" />
<line fill="none" stroke="#5674b9" stroke-width="0.04mm" stroke-dasharray="0.4,0.2" x1="82.05" y1="43.88" x2="82.76" y2="89.19" />
<line fill="none" stroke="#5674b9" stroke-width="0.04mm" stroke-dasharray="0.4,0.2" x1="82.05" y1="43.88" x2="92.34" y2="167.19" />
<line fill="none" stroke="#5674b9" stroke-width="0.04mm" stroke-dasharray="0.4,0.2" x1="82.05" y1="43.88" x2="106.12" y2="70.27" />
<line fill="none" stroke="#5674b9" stroke-width="0.04mm" stroke-dasharray="0.4,0.2" x1="82.05" y1="43.88" x2="106.18" y2="70.17" />
<line fill="none" stroke="#111111" stroke-width="0.04mm" x1="82.05" y1="43.88" x2="112.66" y2="70.30" />
<line fill="none" stroke="#00aeef" stroke-width="0.04mm" stroke-dasharray="0.4,0.2" x1="112.66" y1="70.30" x2="110.83" y2="168.34" />
<line fill="none" stroke="#00aeef" stroke-width="0.04mm" stroke-dasharray="0.4,0.2" x1="112.66" y1="70.30" x2="114.24" y2="55.91" />
<line fill="none" stroke="#111111" stroke-width="0.04mm" x1="112.66" y1="70.30" x2="138.42" y2="141.22" />
<line fill="none" stroke="#00aeef" stroke-width="0.04mm" stroke-dasharray="0.4,0.2" x1="138.42" y1="141.22" x2="134.52" y2="141.06" />
<line fill="none" stroke="#00aeef" stroke-width="0.04mm" stroke-dasharray="0.4,0.2" x1="138.42" y1="141.22" x2="63.42" y2="184.89" />
<line fill="none" stroke="#00aeef" stroke-width="0.04mm" stroke-dasharray="0.4,0.2" x1="138.42" y1="141.22" x2="105.75" y2="152.24" />
<line fill="none" stroke="#00aeef" stroke-width="0.04mm" stroke-dasharray="0.4,0.2" x1="138.42" y1="141.22" x2="145.80" y2="212.07" />
<line fill="none" stroke="#00aeef" stroke-width="0.04mm" stroke-dasharray="0.4,0.2" x1="138.42" y1="141.22" x2="121.79" y2="27.80" />
<line fill="none" stroke="#111111" stroke-width="0.04mm" x1="138.42" y1="141.22" x2="156.49" y2="146.89" />
<line fill="none" stroke="#111111" stroke-width="0.04mm" x1="156.49" y1="146.89" x2="166.76" y2="145.08" />
<line fill="none" stroke="#111111" stroke-width="0.04mm" x1="166.76" y1="145.08" x2="199.89" y2="133.76" />
<line fill="none" stroke="#00aeef" stroke-width="0.04mm" stroke-dasharray="0.4,0.2" x1="199.89" y1="133.76" x2="200.09" y2="116.82" />
<line fill="none" stroke="#5674b9" stroke-width="0.04mm" stroke-dasharray="0.4,0.2" x1="199.89" y1="133.76" x2="198.66" y2="184.78" />
<line fill="none" stroke="#5674b9" stroke-width="0.04mm" stroke-dasharray="0.4,0.2" x1="199.89" y1="133.76" x2="194.59" y2="341.76" />
<line fill="none" stroke="#00aeef" stroke-width="0.04mm" stroke-dasharray="0.4,0.2" x1="199.89" y1="133.76" x2="197.13" y2="133.71" />
<line fill="none" stroke="#111111" stroke-width="0.04mm" x1="199.89" y1="133.76" x2="218.04" y2="140.04" />
<line fill="none" stroke="#00aeef" stroke-width="0.04mm" stroke-dasharray="0.4,0.2" x1="218.04" y1="140.04" x2="218.65" y2="133.65" />
<line fill="none" stroke="#00aeef" stroke-width="0.04mm" stroke-dasharray="0.4,0.2" x1="218.04" y1="140.04" x2="231.34" y2="143.25" />
<line fill="none" stroke="#00aeef" stroke-width="0.04mm" stroke-dasharray="0.4,0.2" x1="218.04" y1="140.04" x2="216.41" y2="140.39" />
<line fill="none" stroke="#111111" stroke-width="0.04mm" x1="218.04" y1="140.04" x2="227.19" y2="184.42" />
<line fill="none" stroke="#5674b9" stroke-width="0.04mm" stroke-dasharray="0.4,0.2" x1="227.19" y1="184.42" x2="200.66" y2="186.60" />
<line fill="none" stroke="#00aeef" stroke-width="0.04mm" stroke-dasharray="0.4,0.2" x1="227.19" y1="184.42" x2="234.07" y2="184.78" />
<line fill="none" stroke="#00aeef" stroke-width="0.04mm" stroke-dasharray="0.4,0.2" x1="227.19" y1="184.42" x2="224.23" y2="182.50" />
<line fill="none" stroke="#5674b9" stroke-width="0.04mm" stroke-dasharray="0.4,0.2" x1="227.19" y1="184.42" x2="230.98" y2="184.33" />
<line fill="none" stroke="#111111" stroke-width="0.04mm" x1="227.19" y1="184.42" x2="279.07" y2="310.74" />
<line fill="none" stroke="#5674b9" stroke-width="0.04mm" stroke-dasharray="0.4,0.2" x1="279.07" y1="310.74" x2="280.81" y2="161.04" />
<line fill="none" stroke="#5674b9" stroke-width="0.04mm" stroke-dasharray="0.4,0.2" x1="279.07" y1="310.74" x2="276.79" y2="311.14" />
<line fill="none" stroke="#5674b9" stroke-width="0.04mm" stroke-dasharray="0.4,0.2" x1="279.07" y1="310.74" x2="331.95" y2="304.52" />
<line fill="none" stroke="#111111" stroke-width="0.04mm" x1="279.07" y1="310.74" x2="301.20" y2="317.08" />
<line fill="none" stroke="#5674b9" stroke-width="0.04mm" stroke-dasharray="0.4,0.2" x1="301.20" y1="317.08" x2="314.35" y2="573.73" />
<line fill="none" stroke="#00aeef" stroke-width="0.04mm" stroke-dasharray="0.4,0.2" x1="301.20" y1="317.08" x2="338.82" y2="462.01" />
<line fill="none" stroke="#00aeef" stroke-width="0.04mm" stroke-dasharray="0.4,0.2" x1="301.20" y1="317.08" x2="338.73" y2="461.61" />
<line fill="none" stroke="#111111" stroke-width="0.04mm" x1="301.20" y1="317.08" x2="337.74" y2="454.06" />
<line fill="none" stroke="#00aeef" stroke-width="0.04mm" stroke-dasharray="0.4,0.2" x1="337.74" y1="454.06" x2="329.60" y2="454.83" />
<line fill="none" stroke="#00aeef" stroke-width="0.04mm" stroke-dasharray="0.4,0.2" x1="337.74" y1="454.06" x2="338.69" y2="285.15" />
<line fill="none" stroke="#00aeef" stroke-width="0.04mm" stroke-dasharray="0.4,0.2" x1="337.74" y1="454.06" x2="347.57" y2="630.95" />
<line fill="none" stroke="#111111" stroke-width="0.04mm" x1="337.74" y1="454.06" x2="425.16" y2="553.94" />
<line fill="none" stroke="#00aeef" stroke-width="0.04mm" stroke-dasharray="0.4,0.2" x1="425.16" y1="553.94" x2="512.36" y2="652.69" />
<line fill="none" stroke="#00aeef" stroke-width="0.04mm" stroke-dasharray="0.4,0.2" x1="425.16" y1="553.94" x2="353.44" y2="299.77" />
<line fill="none" stroke="#00aeef" stroke-width="0.04mm" stroke-dasharray="0.4,0.2" x1="425.16" y1="553.94" x2="415.19" y2="504.54" />
<line fill="none" stroke="#00aeef" stroke-width="0.04mm" stroke-dasharray="0.4,0.2" x1="425.16" y1="553.94" x2="398.36" y2="531.29" />
<line fill="none" stroke="#00aeef" stroke-width="0.04mm" stroke-dasharray="0.4,0.2" x1="425.16" y1="553.94" x2="325.21" y2="502.58" />
<line fill="none" stroke="#00aeef" stroke-width="0.04mm" stroke-dasharray="0.4,0.2" x1="425.16" y1="553.94" x2="371.23" y2="530.07" />
<line fill="none" stroke="#5674b9" stroke-width="0.04mm" stroke-dasharray="0.4,0.2" x1="425.16" y1="553.94" x2="399.39" y2="526.28" />
<line fill="none" stroke="#00aeef" stroke-width="0.04mm" stroke-dasharray="0.4,0.2" x1="425.16" y1="553.94" x2="429.85" y2="583.40" />
</g>
<g>
<circle cx="20.00" cy="24.00" r="0.1" fill="#111111" />
<circle cx="45.75" cy="19.90" r="0.1" fill="#111111" />
<circle cx="82.05" cy="43.88" r="0.1" fill="#111111" />
<circle cx="112.66" cy="70.30" r="0.1" fill="#111111" />
<circle cx="138.42" cy="141.22" r="0.1" fill="#111111" />
<circle cx="156.49" cy="146.89" r="0.1" fill="#111111" />
<circle cx="166.76" cy="145.08" r="0.1" fill="#111111" />
<circle cx="199.89" cy="133.76" r="0.1" fill="#111111" />
<circle cx="218.04" cy="140.04" r="0.1" fill="#111111" />
<circle cx="227.19" cy="184.42" r="0.1" fill="#111111" />
<circle cx="279.07" cy="310.74" r="0.1" fill="#111111" />
<circle cx="301.20" cy="317.08" r="0.1" fill="#111111" />
<circle cx="337.74" cy="454.06" r="0.1" fill="#111111" />
<circle cx="425.16" cy="553.94" r="0.1" fill="#111111" />
</g>
<g>
<text x="20.20" y="24.00" font-size=".2mm" fill="#000000">0</text>
<text x="45.95" y="19.90" font-size=".2mm" fill="#000000">1</text>
<text x="82.25" y="43.88" font-size=".2mm" fill="#000000">2</text>
<text x="112.86" y="70.30" font-size=".2mm" fill="#000000">3</text>
<text x="138.62" y="141.22" font-size=".2mm" fill="#000000">4</text>
<text x="156.69" y="146.89" font-size=".2mm" fill="#000000">5</text>
<text x="166.96" y="145.08" font-size=".2mm" fill="#000000">6</text>
<text x="200.09" y="133.76" font-size=".2mm" fill="#000000">7</text>
<text x="218.24" y="140.04" font-size=".2mm" fill="#000000">8</text>
<text x="227.39" y="184.42" font-size=".2mm" fill="#000000">9</text>
<text x="279.27" y="310.74" font-size=".2mm" fill="#000000">10</text>
<text x="301.40" y="317.08" font-size=".2mm" fill="#000000">11</text>
<text x="337.94" y="454.06" font-size=".2mm" fill="#000000">12</text>
<text x="425.36" y="553.94" font-size=".2mm" fill="#000000">13</text>
</g>
<g>
</g>
</g>
</svg>