<?xml version="1.0" encoding="utf-8"?>
<!DOCTYPE svg PUBLIC "-//W3C//DTD SVG 1.1//EN" "http://www.w3.org/Graphics/SVG/1.1/DTD/svg11.dtd">
<svg version="1.1" id="Layer_1" xmlns="http://www.w3.org/2000/svg" xmlns:xlink="http://www.w3.org/1999/xlink" x="0px" y="0px" width="101mm" height="93mm" viewBox="0 0 101 93" style="background-color:#ffffff;enable-background:new 0 0 101 93;" xml:space="preserve">
<symbol id="airflow" viewBox="-12 -12 24 24">
<path d="M-4.38,10.73l4.2-3.84V3.55L-4.07,7.13l-.31-.29L-.18,3V-6.89a3.37,3.37,0,0,0-1.68.53l1.68-4.15L0-11l.21.51h0v0l1.65,4.1A3.26,3.26,0,0,0,.24-6.89v14l-.08,0L-4.07,11Z"/>
<rect fill="none" x="-12" y="-12" width="24" height="24"/>
</symbol>
<symbol id="anastomosis" viewBox="-12 -12 24 24">
<path d="M2.23-4.78l.37.24L5.22-2.78l-.47.57L2.49-3.7l-4.61,8-.24.44-.37-.34L-5.22,2.3l.55-.52,2.1,1.82L2-4.39Z"/>
<rect fill="none" x="-12" y="-12" width="24" height="24"/>
</symbol>
<symbol id="bivouac" viewBox="-12 -12 24 24">
<path d="M.25-7.66l.24.58L.54-7l3.88.48-3.31.91L6,6H8.35v.48l-16.7.07V6.05h2.64L0-7.08Zm0,1.32L-5.13,6H-4l2.07-5L.2-4l2.09,5L4.37,6H5.44Z"/>
<rect fill="none" x="-12" y="-12" width="24" height="24"/>
</symbol>
<symbol id="bones" viewBox="-12 -12 24 24">
<path d="M2.44,4.27l-.16,0H2.13a.22.22,0,0,1-.11,0l-.1-.06a.39.39,0,0,1-.09-.11l-.08-.13a1.51,1.51,0,0,1-.06-.15l-.07-.17s0-.11-.08-.19-.06-.16-.08-.21a4.75,4.75,0,0,0-.38-.71c-.18-.29-.43-.64-.74-1A11.15,11.15,0,0,0-.7.32,6.73,6.73,0,0,0-2-.64a4.12,4.12,0,0,0-1.44-.52A1.64,1.64,0,0,1-5-2.19.72.72,0,0,1-5-2.44a1,1,0,0,1,0-.29A.52.52,0,0,1-4.87-3a.54.54,0,0,1,.35-.15L-4-3.22l.46,0a.54.54,0,0,0,.27-.06A.52.52,0,0,0-3-3.56a.74.74,0,0,0,.13-.31.54.54,0,0,1,.15-.26.54.54,0,0,1,.3-.15.83.83,0,0,1,.47,0,1.11,1.11,0,0,1,.35.4A7.46,7.46,0,0,1-1-2.76q.18.42.33.72a3.22,3.22,0,0,0,.39.57L.1-1a4.77,4.77,0,0,0,.58.43c.28.18.51.33.69.43l1,.56a1.84,1.84,0,0,0,.39.23A5.29,5.29,0,0,1,3.22.9l.43.26a3.7,3.7,0,0,1,.46.3l.36.29a2.28,2.28,0,0,1,.31.32A1,1,0,0,1,5,2.4c.2.48,0,.78-.47.91h0a8.48,8.48,0,0,0-1.12.09,1,1,0,0,0-.42.44A1,1,0,0,1,2.44,4.27Z"/>
<rect fill="none" x="-12" y="-12" width="24" height="24"/>
</symbol>
<symbol id="calcite" viewBox="-12 -12 24 24">
<path d="M2.36-2.22l.05.46.34,3.91L2,2.22,1.65-1.26-2.52-.06l-.23-.7L1.89-2.08Z"/>
<rect fill="none" x="-12" y="-12" width="24" height="24"/>
</symbol>
<symbol id="cauliflower" viewBox="-12 -12 24 24">
<path d="M5.58,3.22v-3A2.12,2.12,0,0,0,6.92-.43a1.78,1.78,0,0,0,.55-1.32,1.92,1.92,0,0,0-.65-1.42,2.19,2.19,0,0,0-1.53-.59,2.21,2.21,0,0,0-1.54.59,1.78,1.78,0,0,0-.64,1.42A1.86,1.86,0,0,0,3.65-.43,2.12,2.12,0,0,0,5,.23v3H.26v-3A2.17,2.17,0,0,0,1.61-.43a1.81,1.81,0,0,0,.54-1.32,1.91,1.91,0,0,0-.64-1.42A2.21,2.21,0,0,0,0-3.76a2.21,2.21,0,0,0-1.54.59,1.82,1.82,0,0,0-.64,1.42A1.83,1.83,0,0,0-1.66-.43,2.12,2.12,0,0,0-.32.23v3H-5v-3A2.12,2.12,0,0,0-3.71-.43a1.78,1.78,0,0,0,.55-1.32,1.92,1.92,0,0,0-.65-1.42,2.19,2.19,0,0,0-1.53-.59,2.21,2.21,0,0,0-1.54.59,1.83,1.83,0,0,0-.65,1.42A1.87,1.87,0,0,0-7-.43,2.12,2.12,0,0,0-5.64.23v3H-8v.54H8V3.22Z"/>
<rect fill="none" x="-12" y="-12" width="24" height="24"/>
</symbol>
<symbol id="clay" viewBox="-12 -12 24 24">
<path d="M1.85-1.33a3,3,0,0,1,1.67.48,3.23,3.23,0,0,1,1,1l.29.51-1,.43a3.81,3.81,0,0,0-.23-.4A3.74,3.74,0,0,0,2.93,0,1.77,1.77,0,0,0,1.85-.32a2.57,2.57,0,0,0-1.1.15A.86.86,0,0,0,.51.14,2.23,2.23,0,0,1,0,.88a2.55,2.55,0,0,1-1.45.43,3.16,3.16,0,0,1-2.75-1,4.28,4.28,0,0,1-.37-.57,3.91,3.91,0,0,1-.21-.47l0-.16,1-.22a1.87,1.87,0,0,0,.45.79A2.12,2.12,0,0,0-1.51.33,1.82,1.82,0,0,0-.69.14l.21-.36A1.53,1.53,0,0,1,.17-1,3.76,3.76,0,0,1,1.85-1.33Z"/>
<rect fill="none" x="-12" y="-12" width="24" height="24"/>
</symbol>
<symbol id="crystals" viewBox="-12 -12 24 24">
<path d="M-2.94-5.38,0-.72,2.94-5.38,3.62-5,.68-.36H6.56V.36H.68L3.62,5l-.68.36L0,.72-2.94,5.38-3.62,5-.68.36H-6.56V-.36H-.68L-3.62-5Z"/>
<rect fill="none" x="-12" y="-12" width="24" height="24"/>
</symbol>
<symbol id="curtain" viewBox="-12 -12 24 24">
<path d="M3.57-6.69l.52.53L.39-3V-.33L.1-.26a3.79,3.79,0,0,0-1,.41c-.58.3-.87.65-.87,1v.07A1.61,1.61,0,0,0-.84,2.48a3.69,3.69,0,0,0,.45.24L0,2.86l.13.05L.39,3V6.12H-.39V3.51a7.65,7.65,0,0,1-.9-.46A2.19,2.19,0,0,1-2.54,1.28V1.23A2,2,0,0,1-1.31-.48,5.32,5.32,0,0,1-.39-.86V-3l-3.7-3.14.52-.53L0-3.67Z"/>
<rect fill="none" x="-12" y="-12" width="24" height="24"/>
</symbol>
<symbol id="disk" viewBox="-12 -12 24 24">
<path d="M-.09-4.19a2.43,2.43,0,0,1,1.7.64A2,2,0,0,1,2.35-2,2.09,2.09,0,0,1,1.81-.55,2.44,2.44,0,0,1,.35.23l2.18,3.6-.68.33L0,1.14-1.48,4.19l-.71-.29L-.41.25A2.53,2.53,0,0,1-1.9-.47a2,2,0,0,1-.63-1.41,2,2,0,0,1,.67-1.61,2.46,2.46,0,0,1,1.72-.7ZM1.05-3.06.56-3.49l-.69,0A1.72,1.72,0,0,0-1.29-3a1.51,1.51,0,0,0-.45,1.08,1.36,1.36,0,0,0,.51,1A1.68,1.68,0,0,0-.07-.44v0l0,0A1.7,1.7,0,0,0,1.11-.92,1.36,1.36,0,0,0,1.56-2,1.47,1.47,0,0,0,1.05-3.06Z"/>
<rect fill="none" x="-12" y="-12" width="24" height="24"/>
</symbol>
<symbol id="entrance" viewBox="-12 -12 24 24">
<path d="M4.46,9H-4.46L0-9Z"/>
<rect fill="none" x="-12" y="-12" width="24" height="24"/>
</symbol>
<symbol id="flowstone" viewBox="-12 -12 24 24">
<rect x="-6" y="-0.21" width="12" height="0.42"/>
<rect fill="none" x="-12" y="-12" width="24" height="24"/>
</symbol>
<symbol id="flutes" viewBox="-12 -12 24 24">
<path d="M-7-1H7v.72H3.87A4.7,4.7,0,0,1,2.16,1.5,4.2,4.2,0,0,1,0,2.13,3.94,3.94,0,0,1-2.19,1.5,4.18,4.18,0,0,1-3.76-.27H-7Zm4.17.72A3.15,3.15,0,0,0-1.65,1,3.21,3.21,0,0,0,0,1.41,3.49,3.49,0,0,0,1.6,1,3.68,3.68,0,0,0,3-.27Z"/>
<rect fill="none" x="-12" y="-12" width="24" height="24"/>
</symbol>
<symbol id="gradient" viewBox="-12 -12 24 24">
<path d="M2.58-3.83,0-10-2.58-3.83A4.74,4.74,0,0,1-.17-4.5V10H.25V-4.5A6.65,6.65,0,0,1,2.58-3.83Z"/>
<rect fill="none" x="-12" y="-12" width="24" height="24"/>
</symbol>
<symbol id="guano" viewBox="-12 -12 24 24">
<path d="M-3.24-3a2.15,2.15,0,0,1,1.57.55A3.93,3.93,0,0,1-.59.24a4.32,4.32,0,0,1,2.75-2.3,2.68,2.68,0,0,1,2.23.36A2.36,2.36,0,0,1,5.5.19l-.79,0a1.72,1.72,0,0,0-.79-1.37,1.94,1.94,0,0,0-1.55-.24A3.53,3.53,0,0,0,.48,0,6.63,6.63,0,0,0-.69,3l-.79-.09a10.72,10.72,0,0,0,0-3.16A3.21,3.21,0,0,0-2.22-2,1.44,1.44,0,0,0-3.37-2.3,3.45,3.45,0,0,0-5-1.54l-.5-.55a4.29,4.29,0,0,1,2-.91A.9.9,0,0,1-3.24-3Z"/>
<rect fill="none" x="-12" y="-12" width="24" height="24"/>
</symbol>
<symbol id="helictites" viewBox="-12 -12 24 24">
<path d="M-4.59-7.92h.79v7.7l3.41,0V-7.92H.39V-.17L4.2-.12h.39v8H3.8V.6L.39.55V7.92H-.39V.55L-4.2.5l-.39,0v-8.4Z"/>
<rect fill="none" x="-12" y="-12" width="24" height="24"/>
</symbol>
<symbol id="human" viewBox="-12 -12 24 24">
<path d="M-3.59-3.29A5.13,5.13,0,0,1,0-4.66,5.13,5.13,0,0,1,3.59-3.29,4.3,4.3,0,0,1,5.09,0a4.3,4.3,0,0,1-1.5,3.29A5.13,5.13,0,0,1,0,4.66,5.13,5.13,0,0,1-3.59,3.29,4.3,4.3,0,0,1-5.09,0,4.3,4.3,0,0,1-3.59-3.29Zm.28.77A3.68,3.68,0,0,0-4.3,0a3.62,3.62,0,0,0,1,2.57L-.5.05ZM0-3.94A4.42,4.42,0,0,0-2.75-3L.16-.36H4.28A3.62,3.62,0,0,0,2.91-2.9,4.38,4.38,0,0,0,0-3.94ZM.16.46-2.7,3.07A4.42,4.42,0,0,0,0,3.94a4.37,4.37,0,0,0,2.87-1A3.78,3.78,0,0,0,4.28.46Z"/>
<rect fill="none" x="-12" y="-12" width="24" height="24"/>
</symbol>
<symbol id="karren" viewBox="-12 -12 24 24">
<path d="M1-5.84h0a1.37,1.37,0,0,1,1.06.68A3.33,3.33,0,0,1,2.5-3.79,25.79,25.79,0,0,1,2.36,0a18.61,18.61,0,0,0-.08,3.72,2.68,2.68,0,0,0,.41,1.2,1.13,1.13,0,0,0,.79.5A.92.92,0,0,0,4,4.94a4.43,4.43,0,0,0,.47-1.22c.16-.64.36-1.86.59-3.66a26.71,26.71,0,0,1,.64-3.69,4.62,4.62,0,0,1,.57-1.29,1.34,1.34,0,0,1,1-.59h0A1.28,1.28,0,0,1,8.37-5a2.17,2.17,0,0,1,.39,1.15A19.91,19.91,0,0,1,8.54-.53a21.51,21.51,0,0,0-.2,3.64A2.64,2.64,0,0,0,9.45,5.36,1.91,1.91,0,0,0,10.88,5a3.84,3.84,0,0,0,.7-1l.42.2-.1.18-.12.21-.11.18L11.52,5a.94.94,0,0,1-.14.16c-.06.07-.13.12-.19.18a2.5,2.5,0,0,1-1.85.41H9.29l0,0A3.06,3.06,0,0,1,7.87,3.13a22.11,22.11,0,0,1,.2-3.7,18.17,18.17,0,0,0,.22-3.28A1.85,1.85,0,0,0,8-4.79a.77.77,0,0,0-.67-.3.93.93,0,0,0-.64.42,4.51,4.51,0,0,0-.51,1.15A26.26,26.26,0,0,0,5.54.1c-.24,1.83-.45,3.07-.61,3.72a5.38,5.38,0,0,1-.51,1.34,1.33,1.33,0,0,1-.89.68H3.47A1.58,1.58,0,0,1,2.3,5.16a3.29,3.29,0,0,1-.49-1.4A20.27,20.27,0,0,1,1.89,0,23.45,23.45,0,0,0,2-3.75a2.94,2.94,0,0,0-.32-1.19A.93.93,0,0,0,1-5.42,1.1,1.1,0,0,0,.19-5,3.69,3.69,0,0,0-.43-3.76,20.78,20.78,0,0,0-1.07.07c-.2,2-.37,3.32-.49,3.86A4.48,4.48,0,0,1-2,5.26,1.06,1.06,0,0,1-3,5.81h0a1.9,1.9,0,0,1-1.29-.67,2.7,2.7,0,0,1-.58-1.31,14.92,14.92,0,0,1,0-3.6q0-.12.06-.54c0-.28,0-.47,0-.57s0-.28,0-.52,0-.42,0-.55,0-.28,0-.47,0-.36,0-.51,0-.29,0-.43A3.09,3.09,0,0,0-5-4.62a1.19,1.19,0,0,0-.67-.6,1.5,1.5,0,0,0-1.2.9A7,7,0,0,0-7.41-2.1c0,.39-.1,1-.14,1.76s-.11,1.47-.18,2.08A9.61,9.61,0,0,1-8,3.32h0l0,0A2.81,2.81,0,0,1-9.2,4.62a1.82,1.82,0,0,1-1.35.15A1.94,1.94,0,0,1-11.61,4,2.39,2.39,0,0,1-12,2.56l.47,0a1.92,1.92,0,0,0,.31,1.16,1.47,1.47,0,0,0,.81.62,1.3,1.3,0,0,0,1-.11A2.32,2.32,0,0,0-8.5,3.18a7.53,7.53,0,0,0,.29-1.5Q-8.1.8-8-.36c0-.78.1-1.37.16-1.78A7.23,7.23,0,0,1-7.28-4.5,1.93,1.93,0,0,1-5.65-5.66h.05l0,0a1.59,1.59,0,0,1,1,.84,3.47,3.47,0,0,1,.34,1.41,4.91,4.91,0,0,1,0,.57v.54c0,.15,0,.37,0,.66s0,.47,0,.58,0,.33-.06.68,0,.56-.06.63a14.78,14.78,0,0,0,0,3.49,2.58,2.58,0,0,0,.5,1.13,1.57,1.57,0,0,0,1,.5A.61.61,0,0,0-2.44,5,3.89,3.89,0,0,0-2,3.85C-1.9,3.31-1.74,2-1.53,0A20.65,20.65,0,0,1-.86-3.89,3.89,3.89,0,0,1-.18-5.26,1.58,1.58,0,0,1,1-5.84Z"/>
<rect fill="none" x="-12" y="-12" width="24" height="24"/>
</symbol>
<symbol id="moonmilk" viewBox="-12 -12 24 24">
<path d="M-4.78-3.06a3.39,3.39,0,0,1,1.5.34,2.48,2.48,0,0,1,1.1,1,3.74,3.74,0,0,1,1.62-.8,3.52,3.52,0,0,1,1.71,0,2.9,2.9,0,0,1,1.39.77A2.49,2.49,0,0,1,3.25-.37,4,4,0,0,1,5-.76a3.58,3.58,0,0,1,1.6.36A2.84,2.84,0,0,1,7.88.92a2.32,2.32,0,0,1,0,1.88.34.34,0,0,1-.37.26A.36.36,0,0,1,7.25,3a.32.32,0,0,1-.12-.25.21.21,0,0,1,0-.12,2,2,0,0,0,0-1.43,2,2,0,0,0-1-.9A2.81,2.81,0,0,0,4.68,0,2.78,2.78,0,0,0,3.12.56L2.46.25A1.7,1.7,0,0,0,2.15-1.1,2.15,2.15,0,0,0,1-1.81a2.85,2.85,0,0,0-1.58.06A3,3,0,0,0-2-.83l-.71-.12A1.74,1.74,0,0,0-3.55-2a2.36,2.36,0,0,0-1.39-.27,3.08,3.08,0,0,0-1.45.53A2.33,2.33,0,0,0-7.32-.56a.35.35,0,0,1-.37.24A.39.39,0,0,1-8-.42a.33.33,0,0,1-.1-.26v-.1A3,3,0,0,1-6.89-2.35,4,4,0,0,1-5-3Z"/>
<rect fill="none" x="-12" y="-12" width="24" height="24"/>
</symbol>
<symbol id="narrow" viewBox="-12 -12 24 24">
<path d="M-1.5,5V-5h0.64V5H-1.5z"/>
<path d="M0.86,5V-5H1.5V5H0.86z"/>
<rect fill="none" x="-12" y="-12" width="24" height="24"/>
</symbol>
<symbol id="paleoflow" viewBox="-12 -12 24 24">
<path d="M.38-12V.17A1.9,1.9,0,0,0,1,0,1.57,1.57,0,0,0,1.7-.72a1.86,1.86,0,0,0,.23-1c0-.09,0-.14.08-.16a.92.92,0,0,1,.24,0,.52.52,0,0,0,.25,0h.08A2.48,2.48,0,0,1,2,0,2.5,2.5,0,0,1,.38.77V7.21H2.09L0,12-1.8,7.23c.07,0,.59,0,1.53,0V.77A3,3,0,0,1-1.35.43a2.16,2.16,0,0,1-1-1,2.38,2.38,0,0,1-.24-1.33l.67,0a2,2,0,0,0,.15,1,1.73,1.73,0,0,0,.59.67A2.14,2.14,0,0,0-.27.16V-12Z"/>
<rect fill="none" x="-12" y="-12" width="24" height="24"/>
</symbol>
<symbol id="rain" viewBox="-12 -12 24 24">
<path d="M-4.14-6.34h0.71v4.69h-0.71V-6.34z"/>
<path d="M-0.35-6.34h0.71v4.69h-0.71V-6.34z"/>
<path d="M3.43-6.34h0.71v4.69H3.43V-6.34z"/>
<path d="M-4.14,1.65h0.71v4.69h-0.71V1.65z"/>
<path d="M-0.35,1.65h0.71v4.69h-0.71V1.65z"/>
<path d="M3.43,1.65h0.71v4.69H3.43V1.65z"/>
<rect fill="none" x="-12" y="-12" width="24" height="24"/>
</symbol>
<symbol id="rats" viewBox="-12 -12 24 24">
<path d="M8.78-2.32,7-2.27c-.51-.17-.65-.56-1.46-.45l-.25.45C3.59-2.75,2.59-3.66.56-3.62l-1.35.3A4.89,4.89,0,0,0-4.24,1.57c-.68.6-2.58.86-3.39.94a6.84,6.84,0,0,0-1.62.39,4.91,4.91,0,0,0-1,.52A1.75,1.75,0,0,0-11,4.61a1.16,1.16,0,0,0,.59,1.48,1.3,1.3,0,0,1,.14.12c.16-.52-.35-.92-.2-1.42a3.35,3.35,0,0,1,.27-.45,3.18,3.18,0,0,1,1.79-1c.63-.12,1.27-.22,1.91-.3.48-.07,1,0,1.4-.12A6.94,6.94,0,0,1-4,2.82,30.64,30.64,0,0,0,.41,2.69l2.16.15c.1-.09,0,0,.1-.15a.87.87,0,0,0-.9-.55c.86-1,2.27-.37,3.1-.05.5.19,1,0,1.25.4.11-.1.1-.07.15-.25.3,0,.31.07.6.15-.06-.49-.34-.64-1-.6a.78.78,0,0,1,0-.55C6.3.56,7.29.73,8.13.43a13.78,13.78,0,0,0,2.15-.9l.6-.85v-.2A16.9,16.9,0,0,0,8.78-2.32Z"/>
<rect fill="none" x="-12" y="-12" width="24" height="24"/>
</symbol>
<symbol id="sand" viewBox="-12 -12 24 24">
<path d="M-1.58,0.83c0.23,0.2,0.35,0.44,0.36,0.73c0.01,0.29-0.08,0.54-0.28,0.75c-0.2,0.21-0.46,0.32-0.78,0.33c-0.32,0.01-0.6-0.08-0.83-0.26C-3.36,2.19-3.49,1.95-3.5,1.67C-3.51,1.38-3.41,1.12-3.2,0.9c0.21-0.22,0.48-0.34,0.8-0.35C-2.08,0.54-1.81,0.64-1.58,0.83z"/>
<path d="M0.08-2.36c0.23,0.2,0.35,0.44,0.36,0.73c0.01,0.29-0.08,0.54-0.28,0.75c-0.2,0.21-0.46,0.32-0.78,0.33c-0.32,0.01-0.59-0.07-0.83-0.26s-0.37-0.42-0.38-0.71c-0.01-0.29,0.09-0.54,0.3-0.76c0.21-0.22,0.48-0.33,0.8-0.35C-0.42-2.65-0.14-2.56,0.08-2.36z"/>
<path d="M3.12,0.55c0.23,0.2,0.35,0.43,0.38,0.71c0.02,0.28-0.07,0.53-0.28,0.75C3,2.23,2.73,2.35,2.42,2.36C2.1,2.37,1.82,2.28,1.58,2.08C1.34,1.88,1.22,1.64,1.2,1.35c-0.01-0.29,0.09-0.54,0.3-0.75C1.72,0.4,1.99,0.29,2.3,0.28S2.89,0.36,3.12,0.55z"/>
<rect fill="none" x="-12" y="-12" width="24" height="24"/>
</symbol>
<symbol  id="scallops" viewBox="-12 -12 24 24">
<path d="M.05-3.74l.21,0A2.35,2.35,0,0,1,1.74-3a2,2,0,0,1,.59,1.55v0l0,0A9.59,9.59,0,0,1-.08,3.27l-.39.47-.27-.55A14.26,14.26,0,0,1-2.33-1.89v-.05l0-.05A2,2,0,0,1-1.44-3.3,2.42,2.42,0,0,1,.05-3.74ZM-.11-3A1.44,1.44,0,0,0-1.55-1.89,13.06,13.06,0,0,0-.29,2.33,8.6,8.6,0,0,0,1.55-1.54a1.41,1.41,0,0,0-.38-1A1.62,1.62,0,0,0,.18-3Z"/>
<rect fill="none" x="-12" y="-12" width="24" height="24"/>
</symbol>
<symbol  id="sink" viewBox="-12 -12 24 24">
<path d="M.72,9.41H.9c1.94,0,3.26-.54,3.94-1.51a3.61,3.61,0,0,0,.33-.69,2,2,0,0,0,.11-.54V6.46l.69,0a2.8,2.8,0,0,1-.58,1.78C4.58,9.39,3.1,10,.93,10H-.93q-3.25,0-4.46-1.8a2.74,2.74,0,0,1-.43-.83A2.37,2.37,0,0,1-6,6.67V6.43l.68,0A2.27,2.27,0,0,0-4.84,7.9c.68,1,2,1.47,3.93,1.48l.5,0ZM-1.46-10a.68.68,0,0,0,.16.41A2.77,2.77,0,0,0-.51-9l0,0a3.63,3.63,0,0,1,1,.7,1.15,1.15,0,0,1,.34.88c0,.58-.53,1.14-1.49,1.68-.68.42-1,.79-1,1.11s.3.61.84,1h0Q.61-2.86.46-1.78a3.51,3.51,0,0,1-1.55,2,.61.61,0,0,0-.26.41,1.67,1.67,0,0,0,.1.51,5.3,5.3,0,0,1,.32,1L.56,1.9.46,8.06-3.4,2.54l1.73-.28A6.16,6.16,0,0,0-2,1.39,1.7,1.7,0,0,1-2.09.58a1.21,1.21,0,0,1,.53-.82h0v0C-.75-.86-.33-1.38-.28-1.85s-.23-.87-.91-1.27h0C-2-3.6-2.37-4.1-2.4-4.61S-2-5.74-1.09-6.29C-.34-6.72.06-7.1.09-7.44a.67.67,0,0,0-.18-.43,3.17,3.17,0,0,0-.79-.58,2.93,2.93,0,0,1-1-.67A1.16,1.16,0,0,1-2.17-10Z"/>
<rect fill="none" x="-12" y="-12" width="24" height="24"/>
</symbol>
<symbol  id="spring" viewBox="-12 -12 24 24">
<path d="M-1.34-9.86,2.52-4.34.78-4.06a8,8,0,0,0,.29.87,1.4,1.4,0,0,1,.13.79,1.3,1.3,0,0,1-.52.84l0,0v0C-.13-.95-.55-.42-.61,0S-.37.91.31,1.3l0,0c.75.46,1.14,1,1.18,1.46S1.12,3.92.21,4.46C-.54,4.9-.94,5.29-1,5.64a.74.74,0,0,0,.18.43A3.2,3.2,0,0,0,0,6.62a3,3,0,0,1,1,.7,1.14,1.14,0,0,1,.31.86A1.74,1.74,0,0,1,.71,9.26H.92c1.92,0,3.22-.52,3.9-1.51a2.05,2.05,0,0,0,.35-.67,2.59,2.59,0,0,0,.1-.55l0-.19.65,0a2.84,2.84,0,0,1-.55,1.8C4.58,9.26,3.08,9.85.92,9.86H-.92c-2.17,0-3.66-.6-4.49-1.77a3.65,3.65,0,0,1-.4-.85A2.43,2.43,0,0,1-6,6.53V6.29l.66,0a2.08,2.08,0,0,0,.47,1.41c.68,1,2,1.5,3.91,1.51H-.4c.62-.43.94-.8,1-1.1a.76.76,0,0,0-.16-.43,3.25,3.25,0,0,0-.79-.51v0a3.8,3.8,0,0,1-1-.7,1.15,1.15,0,0,1-.34-.91q.06-.84,1.5-1.68c.68-.4,1-.77,1-1.1S.49,2.21,0,1.87c0,0,0,0,0,0C-1,1.32-1.44.69-1.34,0a3.58,3.58,0,0,1,1.55-2,.54.54,0,0,0,.23-.38A1.28,1.28,0,0,0,.37-3a4.57,4.57,0,0,1-.32-1l-1.49.24Z"/>
<rect fill="none" x="-12" y="-12" width="24" height="24"/>
</symbol>
<symbol  id="stalactite" viewBox="-12 -12 24 24">
<path d="M3.57-6.69l.52.53L.39-3V6.12H-.39V-3l-3.7-3.14.52-.53L0-3.67Z"/>
<rect fill="none" x="-12" y="-12" width="24" height="24"/>
</symbol>
<symbol  id="stalagmite" viewBox="-12 -12 24 24">
<path d="M.38-6.42V2.75L4.11,5.89l-.56.53L0,3.4l-3.57,3-.53-.53,3.7-3.14V-6.42Z"/>
<rect fill="none" x="-12" y="-12" width="24" height="24"/>
</symbol>
<symbol  id="stalagnate" viewBox="-12 -12 24 24">
<path d="M3.55-8.46l.56.53L.38-4.78v9L4.11,7.36l-.56.53L0,4.86l-3.57,3-.53-.53,3.7-3.14v-9l-3.7-3.15.53-.53L0-5.43Z"/>
<rect fill="none" x="-12" y="-12" width="24" height="24"/>
</symbol>
<symbol  id="straws" viewBox="-12 -12 24 24">
<path d="M-10.89-2.76H10.89V-2H9.63V.46H8.84V-2H8.29v5.6H7.5V-2H5.56V.7H4.77V-2H2.07V2.38H1.29V-2H-.1v3H-.89V-2H-3.2V4.11H-4V-2H-6.22L-6.16.75l-.79,0L-7-2H-8.32V2.33H-9.1V-2h-1.79Z"/>
<rect fill="none" x="-12" y="-12" width="24" height="24"/>
</symbol>
<symbol  id="water" viewBox="-12 -12 24 24">
<path d="M-1.72-9.86,2.11-4.32.38-4.06a6.49,6.49,0,0,0,.29.89,1.5,1.5,0,0,1,.13.79,1.2,1.2,0,0,1-.5.82h0l0,0C-.54-.94-1-.42-1,.05s.24.89.92,1.27h0c.77.48,1.17,1,1.19,1.49S.71,3.94-.2,4.49c-.75.43-1.13.81-1.15,1.15a.51.51,0,0,0,.18.43,2.66,2.66,0,0,0,.76.58,2.93,2.93,0,0,1,1,.67,1.16,1.16,0,0,1,.29.89C.84,8.75.42,9.3-.41,9.86l-.44-.55c.66-.45,1-.83,1-1.15A.47.47,0,0,0,0,7.75a2.84,2.84,0,0,0-.78-.53h0a3.87,3.87,0,0,1-1-.69,1.24,1.24,0,0,1-.34-.91c0-.58.54-1.14,1.52-1.68.66-.42,1-.79,1-1.11s-.3-.61-.84-1h0Q-1.9,1.06-1.74,0a3.44,3.44,0,0,1,1.54-2,.67.67,0,0,0,.27-.41A1.11,1.11,0,0,0,0-3a4.33,4.33,0,0,1-.31-1l-1.5.24Z"/>
<rect fill="none" x="-12" y="-12" width="24" height="24"/>
</symbol><symbol  id="tree" viewBox="-12 -12 24 24">
<path d="M7.4-5.04A4.271,4.271,0,0,0,7.7-6.627a4.3,4.3,0,0,0-4.3-4.3A4.279,4.279,0,0,0,.636-9.914,4.293,4.293,0,0,0-3.045-12a4.3,4.3,0,0,0-4.3,4.3,4.27,4.27,0,0,0,.421,1.845,4.3,4.3,0,0,0-3.645,4.244,4.3,4.3,0,0,0,4.3,4.3A4.282,4.282,0,0,0-3.946,2L-1.175,5.23h0L-1.612,12H.982L.757,6.376,4.119,2.827v0a4.272,4.272,0,0,0,2.15.58,4.3,4.3,0,0,0,4.3-4.3A4.3,4.3,0,0,0,7.4-5.04ZM-3.346,1.538h0A4.346,4.346,0,0,0-2.7.788a4.266,4.266,0,0,0,1.765.753l-.135,2.087ZM.69,4.7.563,1.544A4.258,4.258,0,0,0,2.321.805,4.3,4.3,0,0,0,3.378,2.279Z"/>
<rect fill="none" x="-12" y="-12" width="24" height="24"/>
</symbol><g>
<desc></desc>
<g>
<line fill="none" stroke="#dddddd" stroke-width="0.1mm" x1="0.00" y1="58.00" x2="101.00" y2="58.00" />
<text x="98.20" y="57.80" font-size=".2mm" fill="#000000">0m</text>
<line fill="none" stroke="#dddddd" stroke-width="0.1mm" x1="0.00" y1="8.00" x2="101.00" y2="8.00" />
<text x="98.20" y="7.80" font-size=".2mm" fill="#000000">5m</text>
<line fill="none" stroke="#dddddd" stroke-width="0.1mm" x1="41.00" y1="0.00" x2="41.00" y2="93.00" />
<text x="41.40" y="2.00" font-size=".2mm" fill="#000000">0m</text>
<line fill="none" stroke="#dddddd" stroke-width="0.1mm" x1="91.00" y1="0.00" x2="91.00" y2="93.00" />
<text x="91.40" y="2.00" font-size=".2mm" fill="#000000">5m</text>
</g>
<g>
<path fill="none" stroke="#000000" stroke-width="0.06mm" d="M-5.7504883,49.252632 C-6.4074707,49.215286 -7.063385,49.141014 -7.7214203,49.140594 C-9.045883,49.139763 -10.761169,49.917442 -11.690884,50.87301 C-12.604298,51.811832 -13.19072,52.975693 -13.251961,54.296036 C-13.288139,55.07605 -13.155735,56.011784 -12.625946,56.63142 C-11.94846,57.423794 -10.328949,57.67619 -9.427956,57.155987 C-7.505989,56.046303 -7.803215,53.890045 -8.64357,52.119904 C-8.951435,51.471413 -9.569,50.718132 -10.329273,50.601845 C-11.375225,50.441856 -11.795979,51.36594 -12.156437,52.136208 L-12.156437,52.136208" /><path fill="none" stroke="#000000" stroke-width="0.06mm" d="M-2.6738586,55.777855 C-3.4763527,54.9906 -3.8825455,54.806736 -4.994915,55.10064 C-5.484127,55.229897 -6.258568,55.594433 -6.384609,56.159126 C-6.5494385,56.897583 -5.293968,57.64009 -4.6555214,57.561237 C-4.328987,57.52091 -3.8854408,57.27041 -3.667015,57.13647 C-2.7952385,56.6019 -2.295227,55.841396 -2.0086174,54.86729 C-1.8912354,54.468338 -1.847908,53.98497 -2.0048752,53.58717 C-2.0259857,53.53368 -2.0609703,53.47954 -2.110962,53.451134 C-2.436943,53.265923 -2.7834854,53.11953 -3.119751,52.953728 L-3.119751,52.953728" /><path fill="none" stroke="#000000" stroke-width="0.06mm" d="M-0.26605225,48.286484 C-0.84747696,50.98608 -1.8425636,53.57884 -2.3320084,56.29809 L-2.3320084,56.29809" /><path fill="none" stroke="#000000" stroke-width="0.06mm" d="M-5.839672,65.91499 C-5.87236,65.36903 -5.9899178,64.79636 -5.687866,64.30843 C-4.918354,63.065414 -2.5235825,62.13245 -1.276329,63.197304 C-1.0087433,63.425762 -0.77427673,63.723396 -0.67742157,64.06709 C-0.43631744,64.92264 -1.1379128,66.042465 -1.5420456,66.66057 C-2.0466995,67.432396 -2.9185638,68.47873 -3.708191,69.008575 C-4.4808655,69.527054 -5.303829,69.97046 -6.1377335,70.383316 C-6.597843,70.611115 -7.092392,70.762985 -7.579502,70.925224 C-7.624302,70.94015 -8.102226,71.110016 -8.214737,70.92651 C-8.314972,70.76303 -8.104256,70.39421 -8.057598,70.30872 C-7.6449356,69.55264 -6.85664,69.47841 -6.0900955,69.69836 C-5.180706,69.95929 -4.2325096,70.605354 -3.4764557,71.02815 L-3.4764557,71.02815" /><path fill="none" stroke="#000000" stroke-width="0.06mm" d="M-1.871254,72.856415 C6.8002357,61.501915 -2.6047287,74.252754 2.5570755,66.285484 C2.7668495,65.96169 2.2263641,66.989944 2.1450691,67.367096 C1.8007278,68.9646 1.8010559,69.614975 1.7255859,71.02815 L1.7255859,71.02815" /><path fill="none" stroke="#000000" stroke-width="0.06mm" d="M5.82777,71.71189 L6.0973053,72.29359" /><path fill="none" stroke="#000000" stroke-width="0.06mm" d="M11.014946,66.25687 C10.758057,67.03042 10.501169,67.80396 10.244278,68.577515 C10.093212,68.91188 9.8526745,69.2189 9.791082,69.580605 C9.771091,69.698006 10.006338,69.47599 10.103106,69.40657 C10.627365,69.03044 11.115475,68.604034 11.651947,68.245544 C12.062677,67.97107 12.645599,67.75714 13.152058,67.763916 C13.635328,67.770386 14.019056,68.08105 14.227892,68.50509 C15.428307,70.94251 13.521954,72.40109 11.199474,72.585655 C10.778206,72.61913 10.338417,72.69699 9.93169,72.58227 C9.470928,72.4523 9.098204,72.11102 8.681461,71.8754 L8.681461,71.8754" /><path fill="none" stroke="#000000" stroke-width="0.06mm" d="M9.053034,66.346054 C12.79921,65.73386 13.815289,65.550316 16.648018,65.8704 L16.648018,65.8704" /><path fill="none" stroke="#000000" stroke-width="0.06mm" d="M17.034454,66.68791 C17.787857,66.63769 18.539759,66.55333 19.294662,66.53723 C20.563507,66.51018 20.776497,66.92733 19.747026,67.68117 C19.49659,67.86455 19.216225,68.003105 18.951454,68.16511 C18.831558,68.238464 18.696827,68.29246 18.593039,68.387245 C18.469666,68.49991 18.493008,68.64776 18.585052,68.76666 C18.650023,68.850586 18.734558,68.919815 18.823673,68.97746 C19.591574,69.47419 21.025356,70.08358 21.629307,71.00265 C21.914877,71.43722 22.093351,72.24022 21.37458,72.34678 C20.649725,72.45423 19.907215,72.26656 19.23347,72.0126 C19.111517,71.96663 18.995184,71.9052 18.884205,71.83687 C18.469748,71.58168 18.067205,71.30764 17.658705,71.04302 L17.658705,71.04302" /><path fill="none" stroke="#6A5C57" stroke-width="0.06mm" d="M36.831947,53.057762 C39.554096,53.141914 40.791656,53.33183 42.930794,54.993103 C43.281548,55.265503 43.66555,55.649647 43.89442,56.052917 C44.397293,56.939 44.408478,57.980343 45.018032,58.83148 C45.55128,59.57607 46.182312,60.24609 46.73722,60.97468 C46.77751,61.02758 46.784855,61.099808 46.79561,61.16543 C46.92263,61.940323 45.926533,62.66803 45.33128,62.924587 C44.838936,63.13679 42.36477,64.33989 41.11602,64.464615 C40.654488,64.510704 40.18731,64.521095 39.72472,64.4872 C36.978523,64.28598 34.239,64.00222 31.49614,63.759735 L31.49614,63.759735" /><path fill="none" stroke="#000000" stroke-width="0.06mm" d="M45.99666,69.024635 C46.293083,68.75963 46.57391,68.47607 46.885933,68.229614 C47.63766,67.63585 49.020096,67.61298 49.81857,67.63706 C50.14735,67.64698 54.7893,67.74364 56.22371,68.39223 C60.648182,70.3928 60.75762,71.08136 64.63916,72.37396 C65.11403,72.5321 65.61575,72.61087 66.11444,72.65346 C67.797424,72.79718 69.65883,73.138504 71.26404,72.39665 C73.75113,71.24723 76.385124,67.929794 77.6318,66.66323 C77.98619,66.303185 78.30402,65.89587 78.53674,65.44746 C80.010185,62.608368 81.448296,59.747246 82.73981,56.820915 C83.02919,56.16524 83.18075,55.447594 83.26427,54.735786 C83.78282,50.316383 83.72159,50.30258 83.6,47.249115 L83.6,47.249115" /><path fill="none" stroke="#000000" stroke-width="0.06mm" d="M44.7333,51.217754 C44.624493,50.18181 44.470894,49.14959 44.406876,48.109917 C44.315655,46.62854 44.86003,44.78621 46.087944,43.850647 C47.539913,42.744377 48.096497,42.77506 50.020008,41.794426 C51.153507,41.216553 51.651493,39.564716 51.702,38.41468 C51.788227,36.45127 51.25756,34.98021 50.538963,33.000328 C50.21698,32.113197 49.78788,31.262486 49.300705,30.454195 C48.834373,29.680489 48.281494,28.957516 47.69048,28.274298 C45.318127,25.531845 42.780056,22.935364 40.417156,20.184765 C39.88103,19.560677 38.707005,17.974564 38.760063,16.898216 C38.78099,16.473656 38.970848,16.1017 39.228897,15.770668 C40.204582,14.519028 42.161507,14.472252 43.570263,14.603275 C45.274208,14.761749 46.96992,15.025314 48.647797,15.361889 C49.165977,15.465836 49.654495,15.693039 50.132015,15.919521 C52.171432,16.886787 53.80024,18.559078 55.351013,20.143501 C57.234016,22.067368 59.00701,24.097721 60.75705,26.143282 C62.11185,27.72686 63.16205,29.578981 64.66157,31.026276 C65.98335,32.302025 67.587906,33.255684 69.1416,34.23583 C73.54885,37.01613 76.05466,37.56598 81.56477,39.186462 C82.00127,39.314835 82.46807,39.33569 82.92287,39.322807 C85.37045,39.25348 87.81337,39.06774 90.25862,38.940212 L90.25862,38.940212" /><path fill="none" stroke="#000000" stroke-width="0.06mm" d="M84.38775,48.39362 C84.38646,47.593834 84.38518,46.794052 84.383896,45.99427 C84.408615,45.899147 84.42406,45.80111 84.458084,45.7089 C84.73906,44.947495 85.74838,44.33377 86.28743,43.983498 C87.73282,43.044308 89.59789,42.520798 91.311905,42.458923 C91.67905,42.445667 92.036545,42.580517 92.39887,42.64131 L92.39887,42.64131" /><defs><path id="DRAW_12562"  d="M94.137856,37.617336 C93.54341,37.46437 93.157,37.28566 92.58031,37.323544 C92.03827,37.359154 91.5844,37.57175 91.097046,37.82659 C89.93466,38.43441 89.269455,39.43284 89.641594,40.773697 C89.778755,41.26789 90.04828,41.709915 90.447105,42.036034 C91.54355,42.932587 93.081314,42.870625 94.382904,43.1229 C95.04077,43.250404 95.68602,43.43604 96.337585,43.59261 L96.337585,43.59261" /></defs><use xlink:href="#DRAW_12562" fill="none" stroke="#000000" stroke-width="0.04mm" /><text style="fill:#000000; font-size:0.5mm; letter-spacing:2;"><textPath xlink:href="#DRAW_12562">|||||||||||||||||||||||||||||||||||||||||||||||||||||||||</textPath></text><path fill="none" stroke="#000000" stroke-width="0.06mm" d="M99.38449,18.294338 C99.13079,18.158882 98.59044,17.77417 98.176834,17.721828 C96.838974,17.552532 94.92707,19.032566 94.112976,19.916435 C93.285904,20.8144 92.73342,21.761196 92.26393,22.89397 C92.03778,23.439606 91.66516,24.333366 91.81314,25.026985 C92.049255,26.133686 93.12437,26.507948 94.1227,26.188103 C94.58803,26.03902 95.081665,25.93303 95.494705,25.671974 C96.71415,24.901237 97.81997,23.963905 98.985886,23.114372 C99.08679,23.040844 99.17969,22.950672 99.295044,22.902885 C99.69739,22.736198 99.59485,23.237492 99.71894,23.407185 C100.08949,23.913933 100.526474,24.368591 100.93024,24.849297 L100.93024,24.849297" /><path fill="none" stroke="#000000" stroke-width="0.06mm" d="M102.89215,16.912006 L102.81984,16.735634" /><path fill="none" stroke="#000000" stroke-width="0.06mm" d="M108.792755,21.81707 C108.51834,21.4805 108.22425,20.862968 107.72565,20.708553 C107.301445,20.577187 106.86497,20.812492 106.51573,21.0237 C105.68562,21.525723 104.93581,22.538227 105.04222,23.562057 C105.142006,24.52208 106.51767,24.385712 107.13831,24.131649 C107.55961,23.95919 107.8851,23.7583 108.221085,23.452961 C108.344475,23.340828 108.45718,23.215519 108.55477,23.08033 C108.65713,22.908684 108.75948,22.73703 108.86183,22.565384 C108.87815,22.520954 108.92617,22.38733 108.910805,22.432098 C108.70555,23.030159 108.46657,23.617516 108.29215,24.225288 C107.7073,26.263304 107.20148,28.323257 106.633965,30.366169 C106.59919,30.491343 106.48724,30.657993 106.38705,30.74364 C106.148994,30.947104 105.79822,30.922222 105.52379,30.815819 C104.787,30.530146 104.27374,29.896078 104.411514,29.071095 C104.53378,28.338964 105.16584,27.790995 105.597206,27.257236 L105.597206,27.257236" /><path fill="none" stroke="#000000" stroke-width="0.06mm" d="M116.1648,21.504929 C115.81701,21.351372 115.47603,21.18134 115.121414,21.044258 C114.440796,20.781147 112.99273,21.373974 114.241936,21.973999 C114.74948,22.217789 115.20538,22.325558 115.74652,22.177025 C115.79843,22.162777 116.03022,22.041103 116.101616,22.16344 C116.176,22.290882 116.02289,22.624336 115.99534,22.68547 C115.67731,23.391266 115.28894,24.066647 115.013504,24.790127 C114.532326,26.053988 114.18604,27.36571 113.72895,28.638477 C113.652824,28.850441 113.53909,29.04864 113.41631,29.23745 C112.965225,29.93116 112.061104,30.689953 111.173195,30.393644 C110.87372,30.293703 110.60456,30.10644 110.47336,29.81171 C110.213776,29.228554 110.56287,28.601795 110.73981,28.059883 L110.73981,28.059883" /><path fill="none" stroke="#000000" stroke-width="0.06mm" d="M109.22378,34.4662 C108.34484,37.535587 107.722115,40.690216 106.58697,43.674355 C106.304756,44.416256 106.52928,42.081154 106.62676,41.293396 C106.74706,40.32122 106.9549,39.356747 107.237305,38.418747 C107.92851,36.12287 109.165565,34.0205 110.8264,32.298973 C112.33797,30.732183 114.11517,32.075428 115.0208,33.564354 C115.32864,34.07048 115.57419,34.836792 115.25364,35.397224 C114.935326,35.95376 114.11314,36.159943 113.56228,36.25119 C112.99372,36.345375 112.416084,36.38877 111.83992,36.40178 C111.733925,36.404175 110.46089,36.39885 110.15895,36.13419 C110.06511,36.05193 110.09039,35.89421 110.05611,35.774223 L110.05611,35.774223" /><path fill="none" stroke="#000000" stroke-width="0.06mm" d="M119.86568,30.854288 C118.706154,31.317678 118.02341,31.439949 117.1449,32.10156 C116.5739,32.53158 115.87836,33.45144 115.76814,34.186234 C115.73763,34.38962 115.75192,34.589317 115.80541,34.787598 C116.08502,35.82408 117.23447,35.566547 118.00004,35.20496 C118.78647,34.833523 119.51167,33.879253 119.39671,32.971863 C119.29863,32.197628 118.68602,32.14623 118.170135,32.64791 C117.87051,32.939297 117.59621,33.255642 117.30924,33.559505 L117.30924,33.559505" /><path fill="none" stroke="#000000" stroke-width="0.06mm" d="M119.55355,34.585114 C119.75608,34.927483 119.93439,35.28539 120.161125,35.61223 C120.467255,36.053505 121.24453,36.949425 121.86822,36.47831 C122.118,36.289627 122.25746,35.944717 122.61481,35.93335 C122.88725,35.924683 123.05722,36.1259 123.26569,36.26057 C123.59004,36.4701 124.07184,36.40314 124.41087,36.287987 C124.794106,36.157818 125.54209,35.69473 126.07455,35.81658 C126.53872,35.922813 126.63762,36.711975 127.00661,37.086525 C127.285446,37.36956 127.596664,37.618763 127.89169,37.884884 L127.89169,37.884884" /><path fill="none" stroke="#000000" stroke-width="0.06mm" d="M131.6966,35.135075 C131.03342,36.95893 131.37354,35.871483 130.80484,38.43484 L130.80484,38.43484" /><path fill="none" stroke="#000000" stroke-width="0.06mm" d="M132.58838,30.85429 L132.69441,31.01979" /><path fill="none" stroke="#000000" stroke-width="0.06mm" d="M133.49504,35.22426 C133.92316,34.954548 134.33557,34.658134 134.77939,34.41512 C135.24146,34.1621 137.18718,33.54529 136.26378,34.823906 C136.0185,35.163536 135.76892,35.502678 135.48238,35.808304 C135.15344,36.15914 134.76312,36.4477 134.42278,36.7875 C134.18993,37.01999 134.17908,37.59535 134.58064,37.681625 C135.11055,37.795467 135.65036,37.856766 136.18524,37.944336 L136.18524,37.944336" /><path fill="none" stroke="#000000" stroke-width="0.06mm" d="M135.78392,28.981445 L136.08319,28.998306" /><path fill="none" stroke="#000000" stroke-width="0.06mm" d="M136.61626,35.298573 C137.42119,35.747894 138.32228,36.267815 139.28546,36.03378 C140.38861,35.765736 141.36899,34.979877 142.03578,34.08316 C142.36238,33.64396 142.48062,33.130928 141.71136,33.32692 C141.25955,33.44204 140.80667,33.561123 140.37146,33.72839 C139.01752,34.24875 138.09436,35.303047 137.4328,36.56801 C137.14508,37.11814 137.36966,37.49703 138.01826,37.357513 C138.57181,37.23844 139.11487,37.0749 139.66316,36.933594 L139.66316,36.933594" /><path fill="none" stroke="#000000" stroke-width="0.06mm" d="M144.25583,32.741997 L140.30228,41.883255" /><path fill="none" stroke="#000000" stroke-width="0.06mm" d="M144.13692,30.244873 L144.09433,30.232014" /><path fill="none" stroke="#000000" stroke-width="0.06mm" d="M103.813644,29.263863 C101.59073,31.434761 99.15199,33.573227 97.4523,36.20527 L97.4523,36.20527" /><path fill="none" stroke="#000000" stroke-width="0.06mm" d="M99.68175,32.504173 C97.92253,34.149387 97.48009,34.464653 95.748245,36.75888 C95.6927,36.832462 95.94015,36.83205 96.0229,36.791428 C97.077286,36.273888 98.08561,35.667374 99.11696,35.105347 L99.11696,35.105347" /><path fill="none" stroke="#000000" stroke-width="0.06mm" d="M99.14668,31.671799 C97.60433,33.95694 96.97336,34.66527 95.86827,37.261368 C95.814865,37.386826 95.92352,37.52841 95.95114,37.661934 L95.95114,37.661934" /><path fill="none" stroke="#000000" stroke-width="0.06mm" d="M98.78998,31.582613 C97.93842,33.261765 97.08689,34.940918 96.235344,36.620064 C96.04643,36.95043 95.73895,37.23716 95.668594,37.611168 C95.635086,37.78926 95.969635,37.408203 96.10888,37.29222 C96.9819,36.565094 97.863434,35.84685 98.704285,35.08275 C98.95036,34.859135 99.219894,34.374783 99.33504,34.067284 C99.4042,33.882576 99.45503,33.690033 99.48677,33.49537 C99.53627,33.191696 99.57738,31.395502 99.03113,32.69951 C98.93202,32.936108 98.8551,33.18251 98.79419,33.431694 C98.75574,33.58895 98.774414,33.75682 98.7343,33.913662 C98.71144,34.00305 98.66076,34.23558 98.60793,34.15993 C98.3205,33.74832 98.1744,33.254276 97.95764,32.80145 L97.95764,32.80145" /><path fill="none" stroke="#000000" stroke-width="0.06mm" d="M104.61626,49.03277 C103.40766,51.48494 103.44602,55.187572 100.99047,56.389294 C98.97013,57.378025 102.18321,52.05102 102.842896,49.900627 C102.88157,49.77456 102.952545,49.543762 103.07849,49.58282 C103.22169,49.627224 103.199425,49.863983 103.20747,50.013687 C103.24781,50.764156 103.050156,52.89885 103.41969,54.126366 C103.65738,54.915894 104.46052,55.85313 105.34718,55.897583 C106.101456,55.9354 107.06815,55.077206 107.34582,54.44875 C108.27738,52.34028 111.28357,44.793922 109.788574,48.542263 L109.788574,48.542263" /><path fill="none" stroke="#000000" stroke-width="0.06mm" d="M111.43837,55.067482 C111.58845,54.211082 111.749954,53.388165 110.904884,52.933533 C110.20398,52.556458 109.58566,53.23317 109.156044,53.696335 C108.90378,53.968292 108.503365,54.39913 108.43202,54.828217 C108.32049,55.49901 108.9702,56.167877 109.58595,56.30824 C110.28786,56.468243 110.87203,56.098717 111.09768,55.434204 C111.16284,55.242306 111.169685,54.667377 111.260635,54.84848 C111.37732,55.080807 111.19693,55.36559 111.19378,55.62555 C111.18031,56.737072 111.600395,56.716717 112.56794,57.460564 L112.56794,57.460564" /><path fill="none" stroke="#000000" stroke-width="0.06mm" d="M122.63019,53.774338 C122.365524,53.270092 122.24099,52.842133 121.84113,52.47775 C119.94667,50.751354 120.60307,54.86015 120.59585,55.227226 C120.592606,55.391933 120.49185,55.66926 120.414276,55.812885 C119.98078,56.615395 118.48677,57.21836 117.73766,56.4935 C117.3395,56.10822 117.321434,55.364708 117.23493,54.889122 L117.23493,54.889122" /><path fill="none" stroke="#000000" stroke-width="0.06mm" d="M122.88286,48.185528 L122.75108,48.217266" /><path fill="none" stroke="#000000" stroke-width="0.06mm" d="M123.77464,58.382137 C124.15492,57.15903 124.67778,55.878178 125.72424,55.053337 C125.79237,54.99963 125.750595,55.228172 125.73445,55.31341 C125.662964,55.690674 125.537476,55.748665 125.56414,56.072086 C125.58149,56.282497 125.698494,56.452038 125.89107,56.540157 C127.047,57.069115 126.89379,56.836685 128.00388,57.69534 C128.17743,57.829582 128.7535,58.50889 129.1931,58.704346 C129.91232,59.02413 130.74352,58.414 131.1081,57.82243 C131.52386,57.147804 132.35889,55.134464 133.49869,54.959686 C134.79262,54.76127 134.85114,56.26427 134.24762,57.024082 C133.66588,57.756447 133.04239,58.454636 132.43977,59.16991 L132.43977,59.16991" /><path fill="none" stroke="#000000" stroke-width="0.06mm" d="M136.06631,53.89324 L136.06833,53.137184" /><path fill="none" stroke="#000000" stroke-width="0.06mm" d="M140.25768,56.301193 C140.0515,56.057224 139.85986,55.80019 139.63913,55.569294 C139.0984,55.003628 137.66605,55.30945 137.06873,55.47393 C136.76706,55.557 136.42825,55.714638 136.17827,55.913372 C135.64932,56.333878 135.09167,57.513 135.77087,58.045933 C136.12256,58.321877 136.67308,58.354416 137.08395,58.36446 C137.84589,58.383083 138.60115,58.122097 139.04129,57.469696 C139.22235,57.20133 139.52869,56.596394 139.47104,56.286446 C139.4476,56.160408 139.28157,56.461605 139.2061,56.56523 C139.13434,56.663742 139.07845,56.774235 139.0333,56.887436 C138.93857,57.124947 138.75122,57.802174 138.82358,58.02423 C139.02994,58.657677 139.4031,59.224026 139.69287,59.82392 L139.69287,59.82392" /><path fill="none" stroke="#000000" stroke-width="0.06mm" d="M144.53822,51.17316 C144.1572,51.560448 143.73434,51.91064 143.39511,52.335022 C142.1307,53.91675 141.05402,56.88505 140.53659,58.350132 C139.56107,61.11225 139.7067,60.652225 140.16852,62.871017 L140.16852,62.871017" /><path fill="none" stroke="#000000" stroke-width="0.06mm" d="M141.95207,53.358143 L142.07298,53.89524" /><path fill="none" stroke="#000000" stroke-width="0.06mm" d="M139.1727,53.9527 C139.69675,54.011112 140.22633,54.032005 140.74483,54.12793 C141.94397,54.349777 144.86748,56.07114 144.93953,56.107967 L144.93953,56.107967" /><path fill="none" stroke="#6A5C57" stroke-width="0.06mm" d="M56.980396,60.581978 C56.194458,60.32132 55.304977,60.000343 54.47793,60.326466 C53.66498,60.647026 53.163795,61.607483 52.84207,62.351425 C52.30292,63.598125 53.018314,64.77018 54.317623,65.07111 C55.062374,65.24361 55.787525,65.27833 56.549225,65.188065 C57.877945,65.03061 59.359123,64.48401 59.7772,63.053875 C60.023582,62.211063 59.61631,61.36701 59.221336,60.645084 C58.3513,59.054848 56.129932,57.654156 54.316795,58.53256 C53.09545,59.12426 52.863094,60.107216 52.506645,61.31031 L52.506645,61.31031" /><path fill="none" stroke="#6A5C57" stroke-width="0.06mm" d="M68.85593,58.96182 C68.29988,59.02643 67.73657,59.045204 67.18778,59.15565 C65.219345,59.55181 62.558044,61.057713 61.31066,62.68913 C60.768223,63.398567 60.234085,64.44739 60.51239,65.371704 C61.06766,67.21589 63.66015,68.250084 65.3742,68.46624 C67.16174,68.69165 69.16104,68.3867 70.50036,67.0874 C73.03114,64.632225 69.89957,60.181442 66.96742,59.9605 C66.147964,59.89875 65.12388,60.09518 64.483,60.649136 C64.06602,61.009556 63.682533,61.407005 63.2823,61.785942 L63.2823,61.785942" /><path fill="none" stroke="#6A5C57" stroke-width="0.06mm" d="M53.78486,51.90149 C53.261295,51.154053 52.7892,50.58606 51.831146,50.701298 C51.289692,50.766426 50.74716,50.903408 50.31111,51.24494 C49.92946,51.54387 49.679905,52.10401 49.554256,52.550697 C49.36254,53.232246 49.25589,54.026405 49.426506,54.726643 C49.66749,55.715664 51.15173,56.546246 52.07271,56.689877 C53.065147,56.84465 54.120922,56.31699 54.913498,55.78379 C55.787197,55.196022 56.46809,54.344406 56.908745,53.3932 C57.799347,51.470722 57.251064,49.645218 55.639908,48.340836 C55.044113,47.858482 54.392773,47.5899 53.6229,47.68794 C52.68087,47.807907 52.57853,48.085148 51.61486,48.705765 L51.61486,48.705765" /><path fill="none" stroke="#6A5C57" stroke-width="0.06mm" d="M62.331078,49.686783 C61.935753,49.920723 61.52262,50.126896 61.145107,50.388607 C60.927586,50.539402 60.728416,50.719696 60.553978,50.918755 C60.316307,51.189964 60.09503,51.479324 59.915302,51.791958 C59.731262,52.112083 59.999077,52.11698 60.21284,52.06368 C60.493378,51.99372 60.918037,51.82589 61.071487,51.53438 C61.10101,51.478306 61.18918,50.9529 61.00406,50.983208 C60.585114,51.051796 60.19436,51.23867 59.789505,51.366398 L59.789505,51.366398" /><path fill="none" stroke="#6A5C57" stroke-width="0.06mm" d="M69.1086,47.397743 C67.87153,46.927345 66.45404,46.7343 65.410576,47.72974 C64.565895,48.535545 64.30243,49.712105 65.333725,50.45683 C65.79205,50.7878 66.30287,51.016144 66.8698,51.06462 C67.7557,51.140366 68.65253,50.829037 69.3633,50.313446 C70.195946,49.70944 70.30528,48.4894 69.44931,47.85237 C68.89703,47.441353 68.22356,47.28698 67.54695,47.223335 C65.98303,47.076225 65.12041,47.64038 63.75792,48.33417 L63.75792,48.33417" /><path fill="none" stroke="#6A5C57" stroke-width="0.06mm" d="M54.825264,38.984806 C54.60262,39.646343 54.01769,40.791534 54.516075,41.52413 C54.898685,42.086533 55.869465,42.17096 56.420246,42.236706 C57.838608,42.406017 59.282814,41.895954 60.391205,41.002472 C60.692684,40.759445 61.441032,40.21557 61.38817,39.658768 C61.286728,38.59027 59.087288,38.575726 58.450825,38.649956 C57.09015,38.808647 56.926422,39.159527 55.672455,39.99555 L55.672455,39.99555" /><path fill="none" stroke="#6A5C57" stroke-width="0.06mm" d="M73.76071,44.335796 C73.26372,43.425797 72.78223,42.11106 71.707985,41.65536 C71.31937,41.4905 70.88251,41.507126 70.50649,41.701717 C68.981804,42.490753 69.33467,44.416256 70.94937,44.828403 C71.351906,44.931152 71.77485,44.892654 72.16113,44.745228 C73.974365,44.05322 73.48233,41.513863 72.00464,40.778084 C71.15573,40.355392 70.29152,40.702805 69.36126,40.813065 L69.36126,40.813065" /><path fill="none" stroke="#6A5C57" stroke-width="0.06mm" d="M68.20196,57.04438 C67.30431,56.81785 66.13315,56.1821 65.091484,56.36267 C63.389603,56.657684 64.17134,59.698906 66.02849,58.730957 C67.061714,58.192436 68.57191,56.92284 67.96633,55.577637 C67.83653,55.2893 67.615524,55.001266 67.335434,54.845158 C66.39119,54.318848 65.06768,54.735264 64.12949,54.874256 L64.12949,54.874256" /><path fill="none" stroke="#6A5C57" stroke-width="0.06mm" d="M72.15551,53.759476 C71.479095,54.580696 70.956245,55.01974 70.56691,55.905174 C70.24103,56.646297 70.26776,57.508278 70.36588,58.29019 C70.43722,58.858646 70.62616,59.95843 71.43002,59.965645 C71.74075,59.968433 72.04133,59.88697 72.29459,59.703053 C72.63779,59.453823 72.88428,59.020123 73.057144,58.668755 C73.57632,57.613464 74.20183,56.233364 73.83495,55.014126 C73.6929,54.54203 73.518715,54.102398 73.12048,53.80213 C72.704605,53.48856 72.023094,53.613953 71.57584,53.625694 L71.57584,53.625694" /><defs><path id="DRAW_12660"  d="M50.029255,65.78212 L50.031258,65.78411" /></defs><use xlink:href="#DRAW_12660" fill="none" stroke="#000000" stroke-width="0mm" /><text style="fill:#000000; font-size:0.6mm; letter-spacing:2;"><textPath xlink:href="#DRAW_12660">⊥</textPath></text><defs><path id="DRAW_12661"  d="M50.029255,65.78212 C50.868355,64.54977 51.04471,63.761578 51.069492,62.195892 C51.077667,61.679127 51.044094,60.73685 50.80634,60.13453 C50.516937,59.40138 49.917313,58.867035 49.37412,58.31015 C46.066643,54.919315 47.445953,55.47548 45.525776,54.797733 L45.525776,54.797733" /></defs><use xlink:href="#DRAW_12661" fill="none" stroke="#000000" stroke-width="0mm" /><text style="fill:#000000; font-size:0.6mm; letter-spacing:2;"><textPath xlink:href="#DRAW_12661">⊥⊥⊥⊥⊥⊥⊥⊥⊥⊥⊥⊥⊥⊥⊥⊥⊥⊥⊥⊥⊥⊥⊥⊥⊥⊥⊥⊥⊥⊥⊥⊥⊥⊥⊥⊥⊥⊥⊥⊥⊥</textPath></text><path fill="none" stroke="#000000" stroke-width="0.06mm" d="M47.101246,72.14384 C41.89106,83.31093 43.57356,78.97061 41.378998,84.88214 L41.378998,84.88214" /><path fill="none" stroke="#000000" stroke-width="0.06mm" d="M47.264744,69.88454 C46.276466,70.97411 45.515804,72.32533 44.29991,73.153275 C43.524506,73.681274 45.344814,71.59483 45.882236,70.82593 C46.488926,69.957924 47.247314,71.22596 47.453617,71.728905 C47.858776,72.71662 47.93056,73.939316 47.98086,74.938034 C48.0026,75.3697 47.919617,75.80028 47.888992,76.23139 L47.888992,76.23139" /><path fill="none" stroke="#000000" stroke-width="0.06mm" d="M34.185318,87.200905 C34.077374,89.60429 33.984745,92.0084 33.861477,94.41104 C33.857468,94.48923 33.828777,94.25694 33.827324,94.178665 C33.795425,92.459656 33.685028,90.738785 33.761456,89.02118 C33.80206,88.10874 34.021397,87.21283 34.17734,86.312904 C34.199806,86.18326 34.30141,86.008575 34.403267,85.9213 C34.579132,85.77063 34.828976,85.76584 35.04224,85.81946 C35.730846,85.99259 36.433884,86.58302 36.34018,87.36579 C36.272747,87.9291 35.761276,88.33857 35.33963,88.64157 C34.589767,89.180435 33.988136,89.228836 33.011143,89.53454 L33.011143,89.53454" /><path fill="none" stroke="#000000" stroke-width="0.06mm" d="M39.684624,85.11998 C38.958107,86.35693 38.211933,87.58255 37.505074,88.83084 C37.2023,89.365524 37.071156,90.05704 37.845943,90.17297 C38.18726,90.22405 38.478584,90.23235 38.81668,90.145615 C39.68331,89.9233 40.269207,89.41201 41.066883,88.92511 L41.066883,88.92511" /><path fill="none" stroke="#000000" stroke-width="0.06mm" d="M40.695305,87.6171 C39.39963,93.36128 39.77324,90.62358 39.417088,95.807076 L39.417088,95.807076" /></g>
<g>
<line fill="none" stroke="#111111" stroke-width="0.05mm" x1="41.00" y1="58.00" x2="78.01" y2="58.15" />
<line fill="none" stroke="#5674b9" stroke-width="0.05mm" stroke-dasharray="0.4,0.2" opacity="1.00" x1="78.01" y1="58.15" x2="68.56" y2="73.19" />
<line fill="none" stroke="#5674b9" stroke-width="0.05mm" stroke-dasharray="0.4,0.2" opacity="0.96" x1="78.01" y1="58.15" x2="48.22" y2="68.01" />
<line fill="none" stroke="#5674b9" stroke-width="0.05mm" stroke-dasharray="0.4,0.2" opacity="0.97" x1="78.01" y1="58.15" x2="45.85" y2="45.85" />
<line fill="none" stroke="#00aeef" stroke-width="0.05mm" stroke-dasharray="0.4,0.2" opacity="0.97" x1="78.01" y1="58.15" x2="42.96" y2="19.45" />
<line fill="none" stroke="#00aeef" stroke-width="0.05mm" stroke-dasharray="0.4,0.2" opacity="0.95" x1="78.01" y1="58.15" x2="71.78" y2="37.93" />
<line fill="none" stroke="#00aeef" stroke-width="0.05mm" stroke-dasharray="0.4,0.2" opacity="0.96" x1="78.01" y1="58.15" x2="82.15" y2="41.13" />
<line fill="none" stroke="#5674b9" stroke-width="0.05mm" stroke-dasharray="0.4,0.2" opacity="0.08" x1="78.01" y1="58.15" x2="80.34" y2="60.12" />
<line fill="none" stroke="#00aeef" stroke-width="0.05mm" stroke-dasharray="0.4,0.2" opacity="0.25" x1="78.01" y1="58.15" x2="58.56" y2="52.90" />
<line fill="none" stroke="#00aeef" stroke-width="0.05mm" stroke-dasharray="0.4,0.2" opacity="0.46" x1="78.01" y1="58.15" x2="50.09" y2="41.63" />
<line fill="none" stroke="#00aeef" stroke-width="0.05mm" stroke-dasharray="0.4,0.2" opacity="0.24" x1="78.01" y1="58.15" x2="20.61" y2="55.10" />
</g>
<g>
<circle cx="41.00" cy="58.00" r="0.1" fill="#111111" />
<circle cx="78.01" cy="58.15" r="0.1" fill="#111111" />
</g>
<g>
<text x="41.20" y="58.00" font-size=".2mm" fill="#000000">0</text>
<text x="78.21" y="58.15" font-size=".2mm" fill="#000000">1</text>
</g>
<g>
</g>
</g>
</svg>