<?xml version="1.0" encoding="utf-8"?>
<!DOCTYPE svg PUBLIC "-//W3C//DTD SVG 1.1//EN" "http://www.w3.org/Graphics/SVG/1.1/DTD/svg11.dtd">
<svg version="1.1" id="Layer_1" xmlns="http://www.w3.org/2000/svg" xmlns:xlink="http://www.w3.org/1999/xlink" x="0px" y="0px" width="115mm" height="79mm" viewBox="0 0 115 79" enable-background="new 0 0 115 79" xml:space="preserve">
<symbol id="airflow" viewBox="-12 -12 24 24">
<path d="M-4.38,10.73l4.2-3.84V3.55L-4.07,7.13l-.31-.29L-.18,3V-6.89a3.37,3.37,0,0,0-1.68.53l1.68-4.15L0-11l.21.51h0v0l1.65,4.1A3.26,3.26,0,0,0,.24-6.89v14l-.08,0L-4.07,11Z"/>
<rect fill="none" x="-12" y="-12" width="24" height="24"/>
</symbol>
<symbol id="anastomosis" viewBox="-12 -12 24 24">
<path d="M2.23-4.78l.37.24L5.22-2.78l-.47.57L2.49-3.7l-4.61,8-.24.44-.37-.34L-5.22,2.3l.55-.52,2.1,1.82L2-4.39Z"/>
<rect fill="none" x="-12" y="-12" width="24" height="24"/>
</symbol>
<symbol id="bivouac" viewBox="-12 -12 24 24">
<path d="M.25-7.66l.24.58L.54-7l3.88.48-3.31.91L6,6H8.35v.48l-16.7.07V6.05h2.64L0-7.08Zm0,1.32L-5.13,6H-4l2.07-5L.2-4l2.09,5L4.37,6H5.44Z"/>
<rect fill="none" x="-12" y="-12" width="24" height="24"/>
</symbol>
<symbol id="bones" viewBox="-12 -12 24 24">
<path d="M2.44,4.27l-.16,0H2.13a.22.22,0,0,1-.11,0l-.1-.06a.39.39,0,0,1-.09-.11l-.08-.13a1.51,1.51,0,0,1-.06-.15l-.07-.17s0-.11-.08-.19-.06-.16-.08-.21a4.75,4.75,0,0,0-.38-.71c-.18-.29-.43-.64-.74-1A11.15,11.15,0,0,0-.7.32,6.73,6.73,0,0,0-2-.64a4.12,4.12,0,0,0-1.44-.52A1.64,1.64,0,0,1-5-2.19.72.72,0,0,1-5-2.44a1,1,0,0,1,0-.29A.52.52,0,0,1-4.87-3a.54.54,0,0,1,.35-.15L-4-3.22l.46,0a.54.54,0,0,0,.27-.06A.52.52,0,0,0-3-3.56a.74.74,0,0,0,.13-.31.54.54,0,0,1,.15-.26.54.54,0,0,1,.3-.15.83.83,0,0,1,.47,0,1.11,1.11,0,0,1,.35.4A7.46,7.46,0,0,1-1-2.76q.18.42.33.72a3.22,3.22,0,0,0,.39.57L.1-1a4.77,4.77,0,0,0,.58.43c.28.18.51.33.69.43l1,.56a1.84,1.84,0,0,0,.39.23A5.29,5.29,0,0,1,3.22.9l.43.26a3.7,3.7,0,0,1,.46.3l.36.29a2.28,2.28,0,0,1,.31.32A1,1,0,0,1,5,2.4c.2.48,0,.78-.47.91h0a8.48,8.48,0,0,0-1.12.09,1,1,0,0,0-.42.44A1,1,0,0,1,2.44,4.27Z"/>
<rect fill="none" x="-12" y="-12" width="24" height="24"/>
</symbol>
<symbol id="calcite" viewBox="-12 -12 24 24">
<path d="M2.36-2.22l.05.46.34,3.91L2,2.22,1.65-1.26-2.52-.06l-.23-.7L1.89-2.08Z"/>
<rect fill="none" x="-12" y="-12" width="24" height="24"/>
</symbol>
<symbol id="cauliflower" viewBox="-12 -12 24 24">
<path d="M5.58,3.22v-3A2.12,2.12,0,0,0,6.92-.43a1.78,1.78,0,0,0,.55-1.32,1.92,1.92,0,0,0-.65-1.42,2.19,2.19,0,0,0-1.53-.59,2.21,2.21,0,0,0-1.54.59,1.78,1.78,0,0,0-.64,1.42A1.86,1.86,0,0,0,3.65-.43,2.12,2.12,0,0,0,5,.23v3H.26v-3A2.17,2.17,0,0,0,1.61-.43a1.81,1.81,0,0,0,.54-1.32,1.91,1.91,0,0,0-.64-1.42A2.21,2.21,0,0,0,0-3.76a2.21,2.21,0,0,0-1.54.59,1.82,1.82,0,0,0-.64,1.42A1.83,1.83,0,0,0-1.66-.43,2.12,2.12,0,0,0-.32.23v3H-5v-3A2.12,2.12,0,0,0-3.71-.43a1.78,1.78,0,0,0,.55-1.32,1.92,1.92,0,0,0-.65-1.42,2.19,2.19,0,0,0-1.53-.59,2.21,2.21,0,0,0-1.54.59,1.83,1.83,0,0,0-.65,1.42A1.87,1.87,0,0,0-7-.43,2.12,2.12,0,0,0-5.64.23v3H-8v.54H8V3.22Z"/>
<rect fill="none" x="-12" y="-12" width="24" height="24"/>
</symbol>
<symbol id="clay" viewBox="-12 -12 24 24">
<path d="M1.85-1.33a3,3,0,0,1,1.67.48,3.23,3.23,0,0,1,1,1l.29.51-1,.43a3.81,3.81,0,0,0-.23-.4A3.74,3.74,0,0,0,2.93,0,1.77,1.77,0,0,0,1.85-.32a2.57,2.57,0,0,0-1.1.15A.86.86,0,0,0,.51.14,2.23,2.23,0,0,1,0,.88a2.55,2.55,0,0,1-1.45.43,3.16,3.16,0,0,1-2.75-1,4.28,4.28,0,0,1-.37-.57,3.91,3.91,0,0,1-.21-.47l0-.16,1-.22a1.87,1.87,0,0,0,.45.79A2.12,2.12,0,0,0-1.51.33,1.82,1.82,0,0,0-.69.14l.21-.36A1.53,1.53,0,0,1,.17-1,3.76,3.76,0,0,1,1.85-1.33Z"/>
<rect fill="none" x="-12" y="-12" width="24" height="24"/>
</symbol>
<symbol id="crystals" viewBox="-12 -12 24 24">
<path d="M-2.94-5.38,0-.72,2.94-5.38,3.62-5,.68-.36H6.56V.36H.68L3.62,5l-.68.36L0,.72-2.94,5.38-3.62,5-.68.36H-6.56V-.36H-.68L-3.62-5Z"/>
<rect fill="none" x="-12" y="-12" width="24" height="24"/>
</symbol>
<symbol id="curtain" viewBox="-12 -12 24 24">
<path d="M3.57-6.69l.52.53L.39-3V-.33L.1-.26a3.79,3.79,0,0,0-1,.41c-.58.3-.87.65-.87,1v.07A1.61,1.61,0,0,0-.84,2.48a3.69,3.69,0,0,0,.45.24L0,2.86l.13.05L.39,3V6.12H-.39V3.51a7.65,7.65,0,0,1-.9-.46A2.19,2.19,0,0,1-2.54,1.28V1.23A2,2,0,0,1-1.31-.48,5.32,5.32,0,0,1-.39-.86V-3l-3.7-3.14.52-.53L0-3.67Z"/>
<rect fill="none" x="-12" y="-12" width="24" height="24"/>
</symbol>
<symbol id="disk" viewBox="-12 -12 24 24">
<path d="M-.09-4.19a2.43,2.43,0,0,1,1.7.64A2,2,0,0,1,2.35-2,2.09,2.09,0,0,1,1.81-.55,2.44,2.44,0,0,1,.35.23l2.18,3.6-.68.33L0,1.14-1.48,4.19l-.71-.29L-.41.25A2.53,2.53,0,0,1-1.9-.47a2,2,0,0,1-.63-1.41,2,2,0,0,1,.67-1.61,2.46,2.46,0,0,1,1.72-.7ZM1.05-3.06.56-3.49l-.69,0A1.72,1.72,0,0,0-1.29-3a1.51,1.51,0,0,0-.45,1.08,1.36,1.36,0,0,0,.51,1A1.68,1.68,0,0,0-.07-.44v0l0,0A1.7,1.7,0,0,0,1.11-.92,1.36,1.36,0,0,0,1.56-2,1.47,1.47,0,0,0,1.05-3.06Z"/>
<rect fill="none" x="-12" y="-12" width="24" height="24"/>
</symbol>
<symbol id="entrance" viewBox="-12 -12 24 24">
<path d="M4.46,9H-4.46L0-9Z"/>
<rect fill="none" x="-12" y="-12" width="24" height="24"/>
</symbol>
<symbol id="flowstone" viewBox="-12 -12 24 24">
<rect x="-6" y="-0.21" width="12" height="0.42"/>
<rect fill="none" x="-12" y="-12" width="24" height="24"/>
</symbol>
<symbol id="flutes" viewBox="-12 -12 24 24">
<path d="M-7-1H7v.72H3.87A4.7,4.7,0,0,1,2.16,1.5,4.2,4.2,0,0,1,0,2.13,3.94,3.94,0,0,1-2.19,1.5,4.18,4.18,0,0,1-3.76-.27H-7Zm4.17.72A3.15,3.15,0,0,0-1.65,1,3.21,3.21,0,0,0,0,1.41,3.49,3.49,0,0,0,1.6,1,3.68,3.68,0,0,0,3-.27Z"/>
<rect fill="none" x="-12" y="-12" width="24" height="24"/>
</symbol>
<symbol id="gradient" viewBox="-12 -12 24 24">
<path d="M2.58-3.83,0-10-2.58-3.83A4.74,4.74,0,0,1-.17-4.5V10H.25V-4.5A6.65,6.65,0,0,1,2.58-3.83Z"/>
<rect fill="none" x="-12" y="-12" width="24" height="24"/>
</symbol>
<symbol id="guano" viewBox="-12 -12 24 24">
<path d="M-3.24-3a2.15,2.15,0,0,1,1.57.55A3.93,3.93,0,0,1-.59.24a4.32,4.32,0,0,1,2.75-2.3,2.68,2.68,0,0,1,2.23.36A2.36,2.36,0,0,1,5.5.19l-.79,0a1.72,1.72,0,0,0-.79-1.37,1.94,1.94,0,0,0-1.55-.24A3.53,3.53,0,0,0,.48,0,6.63,6.63,0,0,0-.69,3l-.79-.09a10.72,10.72,0,0,0,0-3.16A3.21,3.21,0,0,0-2.22-2,1.44,1.44,0,0,0-3.37-2.3,3.45,3.45,0,0,0-5-1.54l-.5-.55a4.29,4.29,0,0,1,2-.91A.9.9,0,0,1-3.24-3Z"/>
<rect fill="none" x="-12" y="-12" width="24" height="24"/>
</symbol>
<symbol id="helictites" viewBox="-12 -12 24 24">
<path d="M-4.59-7.92h.79v7.7l3.41,0V-7.92H.39V-.17L4.2-.12h.39v8H3.8V.6L.39.55V7.92H-.39V.55L-4.2.5l-.39,0v-8.4Z"/>
<rect fill="none" x="-12" y="-12" width="24" height="24"/>
</symbol>
<symbol id="human" viewBox="-12 -12 24 24">
<path d="M-3.59-3.29A5.13,5.13,0,0,1,0-4.66,5.13,5.13,0,0,1,3.59-3.29,4.3,4.3,0,0,1,5.09,0a4.3,4.3,0,0,1-1.5,3.29A5.13,5.13,0,0,1,0,4.66,5.13,5.13,0,0,1-3.59,3.29,4.3,4.3,0,0,1-5.09,0,4.3,4.3,0,0,1-3.59-3.29Zm.28.77A3.68,3.68,0,0,0-4.3,0a3.62,3.62,0,0,0,1,2.57L-.5.05ZM0-3.94A4.42,4.42,0,0,0-2.75-3L.16-.36H4.28A3.62,3.62,0,0,0,2.91-2.9,4.38,4.38,0,0,0,0-3.94ZM.16.46-2.7,3.07A4.42,4.42,0,0,0,0,3.94a4.37,4.37,0,0,0,2.87-1A3.78,3.78,0,0,0,4.28.46Z"/>
<rect fill="none" x="-12" y="-12" width="24" height="24"/>
</symbol>
<symbol id="karren" viewBox="-12 -12 24 24">
<path d="M1-5.84h0a1.37,1.37,0,0,1,1.06.68A3.33,3.33,0,0,1,2.5-3.79,25.79,25.79,0,0,1,2.36,0a18.61,18.61,0,0,0-.08,3.72,2.68,2.68,0,0,0,.41,1.2,1.13,1.13,0,0,0,.79.5A.92.92,0,0,0,4,4.94a4.43,4.43,0,0,0,.47-1.22c.16-.64.36-1.86.59-3.66a26.71,26.71,0,0,1,.64-3.69,4.62,4.62,0,0,1,.57-1.29,1.34,1.34,0,0,1,1-.59h0A1.28,1.28,0,0,1,8.37-5a2.17,2.17,0,0,1,.39,1.15A19.91,19.91,0,0,1,8.54-.53a21.51,21.51,0,0,0-.2,3.64A2.64,2.64,0,0,0,9.45,5.36,1.91,1.91,0,0,0,10.88,5a3.84,3.84,0,0,0,.7-1l.42.2-.1.18-.12.21-.11.18L11.52,5a.94.94,0,0,1-.14.16c-.06.07-.13.12-.19.18a2.5,2.5,0,0,1-1.85.41H9.29l0,0A3.06,3.06,0,0,1,7.87,3.13a22.11,22.11,0,0,1,.2-3.7,18.17,18.17,0,0,0,.22-3.28A1.85,1.85,0,0,0,8-4.79a.77.77,0,0,0-.67-.3.93.93,0,0,0-.64.42,4.51,4.51,0,0,0-.51,1.15A26.26,26.26,0,0,0,5.54.1c-.24,1.83-.45,3.07-.61,3.72a5.38,5.38,0,0,1-.51,1.34,1.33,1.33,0,0,1-.89.68H3.47A1.58,1.58,0,0,1,2.3,5.16a3.29,3.29,0,0,1-.49-1.4A20.27,20.27,0,0,1,1.89,0,23.45,23.45,0,0,0,2-3.75a2.94,2.94,0,0,0-.32-1.19A.93.93,0,0,0,1-5.42,1.1,1.1,0,0,0,.19-5,3.69,3.69,0,0,0-.43-3.76,20.78,20.78,0,0,0-1.07.07c-.2,2-.37,3.32-.49,3.86A4.48,4.48,0,0,1-2,5.26,1.06,1.06,0,0,1-3,5.81h0a1.9,1.9,0,0,1-1.29-.67,2.7,2.7,0,0,1-.58-1.31,14.92,14.92,0,0,1,0-3.6q0-.12.06-.54c0-.28,0-.47,0-.57s0-.28,0-.52,0-.42,0-.55,0-.28,0-.47,0-.36,0-.51,0-.29,0-.43A3.09,3.09,0,0,0-5-4.62a1.19,1.19,0,0,0-.67-.6,1.5,1.5,0,0,0-1.2.9A7,7,0,0,0-7.41-2.1c0,.39-.1,1-.14,1.76s-.11,1.47-.18,2.08A9.61,9.61,0,0,1-8,3.32h0l0,0A2.81,2.81,0,0,1-9.2,4.62a1.82,1.82,0,0,1-1.35.15A1.94,1.94,0,0,1-11.61,4,2.39,2.39,0,0,1-12,2.56l.47,0a1.92,1.92,0,0,0,.31,1.16,1.47,1.47,0,0,0,.81.62,1.3,1.3,0,0,0,1-.11A2.32,2.32,0,0,0-8.5,3.18a7.53,7.53,0,0,0,.29-1.5Q-8.1.8-8-.36c0-.78.1-1.37.16-1.78A7.23,7.23,0,0,1-7.28-4.5,1.93,1.93,0,0,1-5.65-5.66h.05l0,0a1.59,1.59,0,0,1,1,.84,3.47,3.47,0,0,1,.34,1.41,4.91,4.91,0,0,1,0,.57v.54c0,.15,0,.37,0,.66s0,.47,0,.58,0,.33-.06.68,0,.56-.06.63a14.78,14.78,0,0,0,0,3.49,2.58,2.58,0,0,0,.5,1.13,1.57,1.57,0,0,0,1,.5A.61.61,0,0,0-2.44,5,3.89,3.89,0,0,0-2,3.85C-1.9,3.31-1.74,2-1.53,0A20.65,20.65,0,0,1-.86-3.89,3.89,3.89,0,0,1-.18-5.26,1.58,1.58,0,0,1,1-5.84Z"/>
<rect fill="none" x="-12" y="-12" width="24" height="24"/>
</symbol>
<symbol id="moonmilk" viewBox="-12 -12 24 24">
<path d="M-4.78-3.06a3.39,3.39,0,0,1,1.5.34,2.48,2.48,0,0,1,1.1,1,3.74,3.74,0,0,1,1.62-.8,3.52,3.52,0,0,1,1.71,0,2.9,2.9,0,0,1,1.39.77A2.49,2.49,0,0,1,3.25-.37,4,4,0,0,1,5-.76a3.58,3.58,0,0,1,1.6.36A2.84,2.84,0,0,1,7.88.92a2.32,2.32,0,0,1,0,1.88.34.34,0,0,1-.37.26A.36.36,0,0,1,7.25,3a.32.32,0,0,1-.12-.25.21.21,0,0,1,0-.12,2,2,0,0,0,0-1.43,2,2,0,0,0-1-.9A2.81,2.81,0,0,0,4.68,0,2.78,2.78,0,0,0,3.12.56L2.46.25A1.7,1.7,0,0,0,2.15-1.1,2.15,2.15,0,0,0,1-1.81a2.85,2.85,0,0,0-1.58.06A3,3,0,0,0-2-.83l-.71-.12A1.74,1.74,0,0,0-3.55-2a2.36,2.36,0,0,0-1.39-.27,3.08,3.08,0,0,0-1.45.53A2.33,2.33,0,0,0-7.32-.56a.35.35,0,0,1-.37.24A.39.39,0,0,1-8-.42a.33.33,0,0,1-.1-.26v-.1A3,3,0,0,1-6.89-2.35,4,4,0,0,1-5-3Z"/>
<rect fill="none" x="-12" y="-12" width="24" height="24"/>
</symbol>
<symbol id="narrow" viewBox="-12 -12 24 24">
<path d="M-1.5,5V-5h0.64V5H-1.5z"/>
<path d="M0.86,5V-5H1.5V5H0.86z"/>
<rect fill="none" x="-12" y="-12" width="24" height="24"/>
</symbol>
<symbol id="paleoflow" viewBox="-12 -12 24 24">
<path d="M.38-12V.17A1.9,1.9,0,0,0,1,0,1.57,1.57,0,0,0,1.7-.72a1.86,1.86,0,0,0,.23-1c0-.09,0-.14.08-.16a.92.92,0,0,1,.24,0,.52.52,0,0,0,.25,0h.08A2.48,2.48,0,0,1,2,0,2.5,2.5,0,0,1,.38.77V7.21H2.09L0,12-1.8,7.23c.07,0,.59,0,1.53,0V.77A3,3,0,0,1-1.35.43a2.16,2.16,0,0,1-1-1,2.38,2.38,0,0,1-.24-1.33l.67,0a2,2,0,0,0,.15,1,1.73,1.73,0,0,0,.59.67A2.14,2.14,0,0,0-.27.16V-12Z"/>
<rect fill="none" x="-12" y="-12" width="24" height="24"/>
</symbol>
<symbol id="rain" viewBox="-12 -12 24 24">
<path d="M-4.14-6.34h0.71v4.69h-0.71V-6.34z"/>
<path d="M-0.35-6.34h0.71v4.69h-0.71V-6.34z"/>
<path d="M3.43-6.34h0.71v4.69H3.43V-6.34z"/>
<path d="M-4.14,1.65h0.71v4.69h-0.71V1.65z"/>
<path d="M-0.35,1.65h0.71v4.69h-0.71V1.65z"/>
<path d="M3.43,1.65h0.71v4.69H3.43V1.65z"/>
<rect fill="none" x="-12" y="-12" width="24" height="24"/>
</symbol>
<symbol id="rats" viewBox="-12 -12 24 24">
<path d="M8.78-2.32,7-2.27c-.51-.17-.65-.56-1.46-.45l-.25.45C3.59-2.75,2.59-3.66.56-3.62l-1.35.3A4.89,4.89,0,0,0-4.24,1.57c-.68.6-2.58.86-3.39.94a6.84,6.84,0,0,0-1.62.39,4.91,4.91,0,0,0-1,.52A1.75,1.75,0,0,0-11,4.61a1.16,1.16,0,0,0,.59,1.48,1.3,1.3,0,0,1,.14.12c.16-.52-.35-.92-.2-1.42a3.35,3.35,0,0,1,.27-.45,3.18,3.18,0,0,1,1.79-1c.63-.12,1.27-.22,1.91-.3.48-.07,1,0,1.4-.12A6.94,6.94,0,0,1-4,2.82,30.64,30.64,0,0,0,.41,2.69l2.16.15c.1-.09,0,0,.1-.15a.87.87,0,0,0-.9-.55c.86-1,2.27-.37,3.1-.05.5.19,1,0,1.25.4.11-.1.1-.07.15-.25.3,0,.31.07.6.15-.06-.49-.34-.64-1-.6a.78.78,0,0,1,0-.55C6.3.56,7.29.73,8.13.43a13.78,13.78,0,0,0,2.15-.9l.6-.85v-.2A16.9,16.9,0,0,0,8.78-2.32Z"/>
<rect fill="none" x="-12" y="-12" width="24" height="24"/>
</symbol>
<symbol id="sand" viewBox="-12 -12 24 24">
<path d="M-1.58,0.83c0.23,0.2,0.35,0.44,0.36,0.73c0.01,0.29-0.08,0.54-0.28,0.75c-0.2,0.21-0.46,0.32-0.78,0.33c-0.32,0.01-0.6-0.08-0.83-0.26C-3.36,2.19-3.49,1.95-3.5,1.67C-3.51,1.38-3.41,1.12-3.2,0.9c0.21-0.22,0.48-0.34,0.8-0.35C-2.08,0.54-1.81,0.64-1.58,0.83z"/>
<path d="M0.08-2.36c0.23,0.2,0.35,0.44,0.36,0.73c0.01,0.29-0.08,0.54-0.28,0.75c-0.2,0.21-0.46,0.32-0.78,0.33c-0.32,0.01-0.59-0.07-0.83-0.26s-0.37-0.42-0.38-0.71c-0.01-0.29,0.09-0.54,0.3-0.76c0.21-0.22,0.48-0.33,0.8-0.35C-0.42-2.65-0.14-2.56,0.08-2.36z"/>
<path d="M3.12,0.55c0.23,0.2,0.35,0.43,0.38,0.71c0.02,0.28-0.07,0.53-0.28,0.75C3,2.23,2.73,2.35,2.42,2.36C2.1,2.37,1.82,2.28,1.58,2.08C1.34,1.88,1.22,1.64,1.2,1.35c-0.01-0.29,0.09-0.54,0.3-0.75C1.72,0.4,1.99,0.29,2.3,0.28S2.89,0.36,3.12,0.55z"/>
<rect fill="none" x="-12" y="-12" width="24" height="24"/>
</symbol>
<symbol  id="scallops" viewBox="-12 -12 24 24">
<path d="M.05-3.74l.21,0A2.35,2.35,0,0,1,1.74-3a2,2,0,0,1,.59,1.55v0l0,0A9.59,9.59,0,0,1-.08,3.27l-.39.47-.27-.55A14.26,14.26,0,0,1-2.33-1.89v-.05l0-.05A2,2,0,0,1-1.44-3.3,2.42,2.42,0,0,1,.05-3.74ZM-.11-3A1.44,1.44,0,0,0-1.55-1.89,13.06,13.06,0,0,0-.29,2.33,8.6,8.6,0,0,0,1.55-1.54a1.41,1.41,0,0,0-.38-1A1.62,1.62,0,0,0,.18-3Z"/>
<rect fill="none" x="-12" y="-12" width="24" height="24"/>
</symbol>
<symbol  id="sink" viewBox="-12 -12 24 24">
<path d="M.72,9.41H.9c1.94,0,3.26-.54,3.94-1.51a3.61,3.61,0,0,0,.33-.69,2,2,0,0,0,.11-.54V6.46l.69,0a2.8,2.8,0,0,1-.58,1.78C4.58,9.39,3.1,10,.93,10H-.93q-3.25,0-4.46-1.8a2.74,2.74,0,0,1-.43-.83A2.37,2.37,0,0,1-6,6.67V6.43l.68,0A2.27,2.27,0,0,0-4.84,7.9c.68,1,2,1.47,3.93,1.48l.5,0ZM-1.46-10a.68.68,0,0,0,.16.41A2.77,2.77,0,0,0-.51-9l0,0a3.63,3.63,0,0,1,1,.7,1.15,1.15,0,0,1,.34.88c0,.58-.53,1.14-1.49,1.68-.68.42-1,.79-1,1.11s.3.61.84,1h0Q.61-2.86.46-1.78a3.51,3.51,0,0,1-1.55,2,.61.61,0,0,0-.26.41,1.67,1.67,0,0,0,.1.51,5.3,5.3,0,0,1,.32,1L.56,1.9.46,8.06-3.4,2.54l1.73-.28A6.16,6.16,0,0,0-2,1.39,1.7,1.7,0,0,1-2.09.58a1.21,1.21,0,0,1,.53-.82h0v0C-.75-.86-.33-1.38-.28-1.85s-.23-.87-.91-1.27h0C-2-3.6-2.37-4.1-2.4-4.61S-2-5.74-1.09-6.29C-.34-6.72.06-7.1.09-7.44a.67.67,0,0,0-.18-.43,3.17,3.17,0,0,0-.79-.58,2.93,2.93,0,0,1-1-.67A1.16,1.16,0,0,1-2.17-10Z"/>
<rect fill="none" x="-12" y="-12" width="24" height="24"/>
</symbol>
<symbol  id="spring" viewBox="-12 -12 24 24">
<path d="M-1.34-9.86,2.52-4.34.78-4.06a8,8,0,0,0,.29.87,1.4,1.4,0,0,1,.13.79,1.3,1.3,0,0,1-.52.84l0,0v0C-.13-.95-.55-.42-.61,0S-.37.91.31,1.3l0,0c.75.46,1.14,1,1.18,1.46S1.12,3.92.21,4.46C-.54,4.9-.94,5.29-1,5.64a.74.74,0,0,0,.18.43A3.2,3.2,0,0,0,0,6.62a3,3,0,0,1,1,.7,1.14,1.14,0,0,1,.31.86A1.74,1.74,0,0,1,.71,9.26H.92c1.92,0,3.22-.52,3.9-1.51a2.05,2.05,0,0,0,.35-.67,2.59,2.59,0,0,0,.1-.55l0-.19.65,0a2.84,2.84,0,0,1-.55,1.8C4.58,9.26,3.08,9.85.92,9.86H-.92c-2.17,0-3.66-.6-4.49-1.77a3.65,3.65,0,0,1-.4-.85A2.43,2.43,0,0,1-6,6.53V6.29l.66,0a2.08,2.08,0,0,0,.47,1.41c.68,1,2,1.5,3.91,1.51H-.4c.62-.43.94-.8,1-1.1a.76.76,0,0,0-.16-.43,3.25,3.25,0,0,0-.79-.51v0a3.8,3.8,0,0,1-1-.7,1.15,1.15,0,0,1-.34-.91q.06-.84,1.5-1.68c.68-.4,1-.77,1-1.1S.49,2.21,0,1.87c0,0,0,0,0,0C-1,1.32-1.44.69-1.34,0a3.58,3.58,0,0,1,1.55-2,.54.54,0,0,0,.23-.38A1.28,1.28,0,0,0,.37-3a4.57,4.57,0,0,1-.32-1l-1.49.24Z"/>
<rect fill="none" x="-12" y="-12" width="24" height="24"/>
</symbol>
<symbol  id="stalactite" viewBox="-12 -12 24 24">
<path d="M3.57-6.69l.52.53L.39-3V6.12H-.39V-3l-3.7-3.14.52-.53L0-3.67Z"/>
<rect fill="none" x="-12" y="-12" width="24" height="24"/>
</symbol>
<symbol  id="stalagmite" viewBox="-12 -12 24 24">
<path d="M.38-6.42V2.75L4.11,5.89l-.56.53L0,3.4l-3.57,3-.53-.53,3.7-3.14V-6.42Z"/>
<rect fill="none" x="-12" y="-12" width="24" height="24"/>
</symbol>
<symbol  id="stalagnate" viewBox="-12 -12 24 24">
<path d="M3.55-8.46l.56.53L.38-4.78v9L4.11,7.36l-.56.53L0,4.86l-3.57,3-.53-.53,3.7-3.14v-9l-3.7-3.15.53-.53L0-5.43Z"/>
<rect fill="none" x="-12" y="-12" width="24" height="24"/>
</symbol>
<symbol  id="straws" viewBox="-12 -12 24 24">
<path d="M-10.89-2.76H10.89V-2H9.63V.46H8.84V-2H8.29v5.6H7.5V-2H5.56V.7H4.77V-2H2.07V2.38H1.29V-2H-.1v3H-.89V-2H-3.2V4.11H-4V-2H-6.22L-6.16.75l-.79,0L-7-2H-8.32V2.33H-9.1V-2h-1.79Z"/>
<rect fill="none" x="-12" y="-12" width="24" height="24"/>
</symbol>
<symbol  id="water" viewBox="-12 -12 24 24">
<path d="M-1.72-9.86,2.11-4.32.38-4.06a6.49,6.49,0,0,0,.29.89,1.5,1.5,0,0,1,.13.79,1.2,1.2,0,0,1-.5.82h0l0,0C-.54-.94-1-.42-1,.05s.24.89.92,1.27h0c.77.48,1.17,1,1.19,1.49S.71,3.94-.2,4.49c-.75.43-1.13.81-1.15,1.15a.51.51,0,0,0,.18.43,2.66,2.66,0,0,0,.76.58,2.93,2.93,0,0,1,1,.67,1.16,1.16,0,0,1,.29.89C.84,8.75.42,9.3-.41,9.86l-.44-.55c.66-.45,1-.83,1-1.15A.47.47,0,0,0,0,7.75a2.84,2.84,0,0,0-.78-.53h0a3.87,3.87,0,0,1-1-.69,1.24,1.24,0,0,1-.34-.91c0-.58.54-1.14,1.52-1.68.66-.42,1-.79,1-1.11s-.3-.61-.84-1h0Q-1.9,1.06-1.74,0a3.44,3.44,0,0,1,1.54-2,.67.67,0,0,0,.27-.41A1.11,1.11,0,0,0,0-3a4.33,4.33,0,0,1-.31-1l-1.5.24Z"/>
<rect fill="none" x="-12" y="-12" width="24" height="24"/>
</symbol><symbol  id="tree" viewBox="-12 -12 24 24">
<path d="M7.4-5.04A4.271,4.271,0,0,0,7.7-6.627a4.3,4.3,0,0,0-4.3-4.3A4.279,4.279,0,0,0,.636-9.914,4.293,4.293,0,0,0-3.045-12a4.3,4.3,0,0,0-4.3,4.3,4.27,4.27,0,0,0,.421,1.845,4.3,4.3,0,0,0-3.645,4.244,4.3,4.3,0,0,0,4.3,4.3A4.282,4.282,0,0,0-3.946,2L-1.175,5.23h0L-1.612,12H.982L.757,6.376,4.119,2.827v0a4.272,4.272,0,0,0,2.15.58,4.3,4.3,0,0,0,4.3-4.3A4.3,4.3,0,0,0,7.4-5.04ZM-3.346,1.538h0A4.346,4.346,0,0,0-2.7.788a4.266,4.266,0,0,0,1.765.753l-.135,2.087ZM.69,4.7.563,1.544A4.258,4.258,0,0,0,2.321.805,4.3,4.3,0,0,0,3.378,2.279Z"/>
<rect fill="none" x="-12" y="-12" width="24" height="24"/>
</symbol><g>
<desc></desc>
<g>
<line fill="none" stroke="#dddddd" stroke-width="0.1mm" x1="0.00" y1="58.00" x2="115.00" y2="58.00" />
<text x="112.20" y="57.80" font-size=".2mm" fill="#000000">0m</text>
<line fill="none" stroke="#dddddd" stroke-width="0.1mm" x1="0.00" y1="38.00" x2="115.00" y2="38.00" />
<text x="112.20" y="37.80" font-size=".2mm" fill="#000000">10m</text>
<line fill="none" stroke="#dddddd" stroke-width="0.1mm" x1="0.00" y1="18.00" x2="115.00" y2="18.00" />
<text x="112.20" y="17.80" font-size=".2mm" fill="#000000">20m</text>
<line fill="none" stroke="#dddddd" stroke-width="0.1mm" x1="0.00" y1="78.00" x2="115.00" y2="78.00" />
<text x="112.20" y="77.80" font-size=".2mm" fill="#000000">-10m</text>
</g>
<g>
<path fill="none" stroke="#000000" stroke-width="0.06mm" d="M22.648762,58.80593 C22.901066,58.797935 22.651197,58.80608 23.384554,58.760788 C23.767878,58.80146 24.14905,58.883373 24.534525,58.882805 C27.844967,58.877922 24.050907,58.52693 27.467445,58.936733 L27.467445,58.936733" /><path fill="none" stroke="#000000" stroke-width="0.06mm" d="M22.883493,56.855145 C23.186707,56.938538 23.308163,56.996773 23.627426,56.985836 C23.834284,56.97875 24.03917,56.94309 24.245079,56.922077 C25.001638,56.84488 25.768229,56.83587 26.51483,56.691208 C31.833237,55.66072 28.380527,56.29396 29.884897,55.769608 C29.959604,55.74357 30.038921,55.731617 30.112782,55.703266 C31.730764,55.082253 31.25701,55.342216 32.018665,54.893116 L32.018665,54.893116" /><path fill="none" stroke="#000000" stroke-width="0.06mm" d="M27.457058,58.87068 C27.981096,58.875683 28.545479,58.727486 29.025312,58.58999 C29.33285,58.50186 29.659748,58.302692 29.953747,58.167896 C30.481773,57.925793 31.025297,57.716507 31.543243,57.45353 C31.774355,57.33619 31.9777,57.170727 32.195248,57.02982 C32.259895,56.987946 32.327934,56.951035 32.389828,56.905186 C32.461647,56.851986 32.527004,56.79057 32.595592,56.73326 L32.595592,56.73326" /><path fill="none" stroke="#000000" stroke-width="0.06mm" d="M31.971497,54.876198 C32.224743,54.733414 32.47026,54.57597 32.73123,54.44785 C34.039127,53.80575 36.14182,52.99843 37.287846,52.56626 C38.064564,52.273357 38.015247,52.34616 38.48469,52.18504 C39.808826,51.729355 41.132957,51.273666 42.457092,50.817978 C42.52147,50.80111 42.58698,50.788082 42.65023,50.76738 C42.85253,50.701168 43.04844,50.615196 43.2533,50.55739 C43.529427,50.479473 43.811935,50.4263 44.091255,50.360756 L44.091255,50.360756" /><path fill="none" stroke="#000000" stroke-width="0.06mm" d="M32.491035,56.784542 C32.74577,56.643536 33.003403,56.507652 33.255234,56.361523 C33.583633,56.170963 33.581192,56.100327 33.950886,56.012066 C34.27948,55.933617 34.614372,55.884415 34.946117,55.82059 L34.946117,55.82059" /><path fill="none" stroke="#000000" stroke-width="0.06mm" d="M34.523376,55.09939 C34.641373,55.14603 34.777977,55.220352 34.913467,55.229023 C35.122055,55.242367 35.187996,55.209538 35.35294,55.27177 L35.35294,55.27177" /><path fill="none" stroke="#000000" stroke-width="0.06mm" d="M34.63127,55.011433 C34.616745,55.015034 34.500484,55.105175 34.452663,55.060783 C34.439056,55.04815 34.43289,55.027298 34.43014,55.009933 C34.41623,54.921993 34.47429,54.852745 34.536293,54.797894 C34.55383,54.782383 34.57204,54.766712 34.59325,54.7568 C34.760506,54.678658 34.924965,54.59171 35.10043,54.53432 C35.424988,54.42817 35.838715,54.45465 36.15905,54.40619 C36.79457,54.310047 37.303642,54.028587 37.945053,53.872875 C38.1607,53.820522 38.38796,53.841698 38.60831,53.815426 C39.508804,53.708065 40.41182,53.616146 41.307167,53.47204 C41.83838,53.356205 42.36959,53.240376 42.9008,53.124542 C42.94997,53.10958 42.998,53.09018 43.04831,53.07966 C44.298447,52.818295 43.762924,52.999596 44.33486,52.793293 L44.33486,52.793293" /><path fill="none" stroke="#000000" stroke-width="0.06mm" d="M35.317566,55.175026 C35.721466,55.2829 35.4268,55.215996 36.21965,55.264732 L36.21965,55.264732" /><path fill="none" stroke="#000000" stroke-width="0.06mm" d="M34.92843,55.869843 L35.780987,56.00001" /><path fill="none" stroke="#000000" stroke-width="0.06mm" d="M36.884712,55.1117 C36.922737,55.11799 36.996235,55.117832 37.040474,55.144314 C37.119858,55.19183 37.114586,55.331448 37.071697,55.4006 C37.051403,55.433323 36.803757,55.72417 36.795975,55.875565 C36.789425,56.0029 36.96559,56.05816 37.06398,56.02505 C37.295536,55.947132 37.29219,55.944077 37.45603,55.861046 L37.45603,55.861046" /><path fill="none" stroke="#000000" stroke-width="0.06mm" d="M36.801582,56.290253 C36.757137,56.31853 36.711407,56.34487 36.668255,56.375084 C36.5554,56.454098 36.527702,56.67278 36.612377,56.778973 C36.647224,56.82267 36.702843,56.84276 36.75696,56.847992 C36.805832,56.85272 36.852173,56.84184 36.893944,56.816196 C37.046444,56.72256 37.08474,56.44516 37.06512,56.285416 C37.06082,56.25041 37.04831,56.146336 37.005676,56.117027 C36.925327,56.061794 36.79299,56.089455 36.707832,56.095 L36.707832,56.095" /><path fill="none" stroke="#000000" stroke-width="0.06mm" d="M44.2024,52.741974 C44.270164,52.7187 44.339928,52.70058 44.4057,52.672153 C44.563705,52.603867 45.08306,52.34092 45.235584,52.27863 C45.75145,52.06796 46.27297,51.871376 46.792458,51.669804 C47.431824,51.42171 48.086433,51.21039 48.712143,50.929634 C49.15963,50.728848 49.57351,50.460274 50.00554,50.228096 C50.167915,50.14083 50.32283,50.036312 50.49534,49.97133 C52.266777,49.304054 50.876022,49.976612 51.882492,49.46841 L51.882492,49.46841" /><path fill="none" stroke="#000000" stroke-width="0.06mm" d="M44.034363,50.168507 C44.075146,50.18225 44.115005,50.19911 44.1567,50.209747 C44.264603,50.237274 44.441998,50.190628 44.52474,50.15277 C44.984745,49.9423 45.430958,49.702805 45.8876,49.485123 C46.8509,49.025917 47.857857,48.651558 48.78444,48.12216 C49.69526,47.601776 50.015163,46.89096 50.676014,46.122562 C50.770954,46.01217 50.89781,45.93387 51.008713,45.83952 L51.008713,45.83952" /><path fill="none" stroke="#000000" stroke-width="0.06mm" d="M50.88703,45.93792 C50.919193,45.83951 50.95652,45.763145 51.050728,45.714806 C51.08225,45.69863 51.113953,45.680595 51.148666,45.673504 C51.420868,45.62499 51.693073,45.57647 51.96528,45.527954 C52.0683,45.51819 52.172276,45.515728 52.27434,45.498657 C52.359077,45.48448 52.44025,45.45378 52.52397,45.434498 C53.21482,45.27536 53.906624,45.12044 54.597954,44.963413 L54.597954,44.963413" /><path fill="none" stroke="#000000" stroke-width="0.06mm" d="M51.592777,49.521072 C51.84507,49.49439 51.87963,49.431942 52.13933,49.29754 C52.41629,49.154205 52.154488,49.3246 52.455948,49.10946 L52.455948,49.10946" /><path fill="none" stroke="#000000" stroke-width="0.06mm" d="M52.472122,48.98177 C52.687378,48.905483 52.898056,48.81478 53.11788,48.752907 C53.524635,48.63842 54.099064,48.573803 54.507843,48.378563 C56.207615,47.566727 54.64759,48.187862 55.58873,47.824326 L55.58873,47.824326" /><path fill="none" stroke="#000000" stroke-width="0.06mm" d="M55.810722,47.923893 C55.76316,47.900208 55.711887,47.882843 55.668045,47.85283 C55.633526,47.8292 55.694603,47.793793 55.698524,47.790337 C55.836937,47.72751 55.96491,47.63265 56.113758,47.601856 C57.641846,47.28575 59.17256,46.972836 60.71731,46.75213 C68.53683,45.634903 61.946785,46.820724 63.5552,46.52898 L63.5552,46.52898" /><path fill="none" stroke="#000000" stroke-width="0.06mm" d="M57.360535,44.278824 C57.39113,44.43833 57.416386,44.598957 57.452324,44.757347 C57.515087,45.033978 57.820156,45.05651 58.0497,44.996506 C58.19036,44.95974 58.34736,44.86047 58.456856,44.788322 C58.561275,44.71953 58.631023,44.61114 58.742767,44.553623 C58.85756,44.494537 59.028034,44.471897 59.152298,44.49702 C59.331757,44.533306 59.507202,44.587646 59.68246,44.64062 C59.815865,44.680943 59.94,44.75575 60.077774,44.776756 C61.010387,44.91897 61.25439,44.892643 62.08586,44.887096 L62.08586,44.887096" /><path fill="none" stroke="#000000" stroke-width="0.06mm" d="M62.053154,44.80857 C62.334873,44.477825 62.227745,44.578903 62.642143,44.237934 C62.72702,44.1681 62.82031,44.108772 62.903885,44.03739 C63.073612,43.892426 63.24662,43.75004 63.401527,43.589333 C63.542347,43.443237 63.644974,43.262825 63.788635,43.11952 C63.95135,42.957207 64.167435,42.850983 64.31682,42.676327 C64.80261,42.108345 65.2126,41.499374 65.632,40.888115 L65.632,40.888115" /><path fill="none" stroke="#000000" stroke-width="0.06mm" d="M64.607704,45.094727 C65.51785,44.75163 63.765015,45.42854 65.48413,44.646557 C66.87791,44.012558 67.36265,44.069656 68.67809,42.995533 C70.31871,41.65589 71.80051,40.13156 73.40896,38.753464 C74.36876,37.93112 75.400795,37.19673 76.37955,36.397034 C76.51941,36.282745 76.631775,36.138317 76.76236,36.01352 C77.77391,35.046753 78.78777,34.082367 79.80584,33.122456 C79.866554,33.065205 79.94145,33.023453 79.99834,32.962387 C80.02666,32.931976 80.36121,32.577946 80.449066,32.39406 C80.521576,32.242287 80.50679,32.08958 80.34944,32.00748 C80.2843,31.973488 80.22001,31.935514 80.149635,31.91436 C79.982635,31.864159 79.81415,31.80952 79.64043,31.79435 C78.726166,31.714497 77.96159,31.790785 77.16217,32.27123 C76.1958,32.852005 74.7837,34.316826 74.34255,34.75624 C73.83826,35.258568 73.4426,35.867126 72.912094,36.3417 C72.19516,36.983047 71.3825,37.508583 70.61604,38.089844 C70.02736,38.536293 69.28877,39.136944 68.6068,39.462463 C67.87288,39.812767 67.35689,39.871162 66.61896,40.132202 C66.45205,40.191242 66.19931,40.3767 66.08249,40.486626 C65.262085,41.258583 65.47812,40.99901 65.02835,41.850792 L65.02835,41.850792" /><path fill="none" stroke="#000000" stroke-width="0.06mm" d="M64.83991,45.100117 C64.62124,45.18374 63.942413,45.187393 63.880184,45.26954 C63.827324,45.33932 63.95082,45.452793 64.01625,45.46343 C64.54489,45.54936 65.30341,45.267162 65.89339,45.24263 C68.429184,45.13718 67.20102,45.333733 68.434326,45.110138 L68.434326,45.110138" /><path fill="none" stroke="#000000" stroke-width="0.06mm" d="M64.46712,46.267433 C64.678795,46.228348 64.89235,46.19835 65.10214,46.15018 C65.19179,46.1296 65.27284,46.0774 65.36345,46.06163 C66.2796,45.90217 67.336426,45.859936 68.23282,45.79399 L68.23282,45.79399" /><path fill="none" stroke="#000000" stroke-width="0.06mm" d="M54.723686,44.8994 C54.746494,44.822884 54.7639,44.74455 54.792107,44.669853 C54.807755,44.62841 54.829384,44.58899 54.85463,44.55259 C54.974037,44.380444 55.09668,44.210373 55.225452,44.045113 C55.260067,44.000687 55.34037,43.93788 55.393982,43.9117 C55.464027,43.8775 55.70302,43.74863 55.833202,43.744118 C56.186337,43.731884 56.53982,43.730385 56.893166,43.73189 C56.934414,43.732067 57.021,43.762054 57.05522,43.782516 C57.13895,43.832584 57.225613,43.879906 57.299812,43.943245 C57.399513,44.028347 57.498463,44.192978 57.57,44.300713 L57.57,44.300713" /></g>
<g>
<line fill="none" stroke="#5674b9" stroke-width="0.05mm" stroke-dasharray="0.4,0.2" x1="22.00" y1="58.00" x2="19.32" y2="57.78" />
<line fill="none" stroke="#111111" stroke-width="0.05mm" x1="22.00" y1="58.00" x2="24.71" y2="57.81" />
<line fill="none" stroke="#5674b9" stroke-width="0.05mm" stroke-dasharray="0.4,0.2" x1="24.71" y1="57.81" x2="24.00" y2="57.93" />
<line fill="none" stroke="#00aeef" stroke-width="0.05mm" stroke-dasharray="0.4,0.2" x1="24.71" y1="57.81" x2="24.74" y2="58.77" />
<line fill="none" stroke="#5674b9" stroke-width="0.05mm" stroke-dasharray="0.4,0.2" x1="24.71" y1="57.81" x2="24.43" y2="57.00" />
<line fill="none" stroke="#111111" stroke-width="0.05mm" x1="24.71" y1="57.81" x2="30.05" y2="55.90" />
<line fill="none" stroke="#00aeef" stroke-width="0.05mm" stroke-dasharray="0.4,0.2" x1="30.05" y1="55.90" x2="29.11" y2="55.83" />
<line fill="none" stroke="#5674b9" stroke-width="0.05mm" stroke-dasharray="0.4,0.2" x1="30.05" y1="55.90" x2="29.83" y2="57.80" />
<line fill="none" stroke="#5674b9" stroke-width="0.05mm" stroke-dasharray="0.4,0.2" x1="30.05" y1="55.90" x2="30.07" y2="55.22" />
<line fill="none" stroke="#00aeef" stroke-width="0.05mm" stroke-dasharray="0.4,0.2" x1="30.05" y1="55.90" x2="33.46" y2="55.24" />
<line fill="none" stroke="#00aeef" stroke-width="0.05mm" stroke-dasharray="0.4,0.2" x1="30.05" y1="55.90" x2="33.37" y2="55.80" />
<line fill="none" stroke="#111111" stroke-width="0.05mm" x1="30.05" y1="55.90" x2="42.22" y2="52.04" />
<line fill="none" stroke="#00aeef" stroke-width="0.05mm" stroke-dasharray="0.4,0.2" x1="42.22" y1="52.04" x2="40.65" y2="52.49" />
<line fill="none" stroke="#00aeef" stroke-width="0.05mm" stroke-dasharray="0.4,0.2" x1="42.22" y1="52.04" x2="42.22" y2="53.04" />
<line fill="none" stroke="#5674b9" stroke-width="0.05mm" stroke-dasharray="0.4,0.2" x1="42.22" y1="52.04" x2="42.24" y2="50.58" />
<line fill="none" stroke="#111111" stroke-width="0.05mm" x1="42.22" y1="52.04" x2="49.52" y2="48.05" />
<line fill="none" stroke="#5674b9" stroke-width="0.05mm" stroke-dasharray="0.4,0.2" x1="49.52" y1="48.05" x2="48.26" y2="47.87" />
<line fill="none" stroke="#00aeef" stroke-width="0.05mm" stroke-dasharray="0.4,0.2" x1="49.52" y1="48.05" x2="49.42" y2="46.35" />
<line fill="none" stroke="#5674b9" stroke-width="0.05mm" stroke-dasharray="0.4,0.2" x1="49.52" y1="48.05" x2="49.68" y2="49.96" />
<line fill="none" stroke="#111111" stroke-width="0.05mm" x1="49.52" y1="48.05" x2="54.08" y2="46.67" />
<line fill="none" stroke="#00aeef" stroke-width="0.05mm" stroke-dasharray="0.4,0.2" x1="54.08" y1="46.67" x2="51.96" y2="46.67" />
<line fill="none" stroke="#00aeef" stroke-width="0.05mm" stroke-dasharray="0.4,0.2" x1="54.08" y1="46.67" x2="56.45" y2="43.79" />
<line fill="none" stroke="#00aeef" stroke-width="0.05mm" stroke-dasharray="0.4,0.2" x1="54.08" y1="46.67" x2="53.75" y2="43.89" />
<line fill="none" stroke="#00aeef" stroke-width="0.05mm" stroke-dasharray="0.4,0.2" x1="54.08" y1="46.67" x2="53.75" y2="43.89" />
<line fill="none" stroke="#00aeef" stroke-width="0.05mm" stroke-dasharray="0.4,0.2" x1="54.08" y1="46.67" x2="49.03" y2="46.26" />
<line fill="none" stroke="#5674b9" stroke-width="0.05mm" stroke-dasharray="0.4,0.2" x1="54.08" y1="46.67" x2="57.18" y2="45.55" />
<line fill="none" stroke="#5674b9" stroke-width="0.05mm" stroke-dasharray="0.4,0.2" x1="54.08" y1="46.67" x2="57.18" y2="45.55" />
<line fill="none" stroke="#5674b9" stroke-width="0.05mm" stroke-dasharray="0.4,0.2" x1="54.08" y1="46.67" x2="58.20" y2="44.40" />
<line fill="none" stroke="#00aeef" stroke-width="0.05mm" stroke-dasharray="0.4,0.2" x1="54.08" y1="46.67" x2="60.06" y2="45.47" />
<line fill="none" stroke="#00aeef" stroke-width="0.05mm" stroke-dasharray="0.4,0.2" x1="54.08" y1="46.67" x2="60.06" y2="45.47" />
<line fill="none" stroke="#00aeef" stroke-width="0.05mm" stroke-dasharray="0.4,0.2" x1="54.08" y1="46.67" x2="60.01" y2="45.28" />
<line fill="none" stroke="#00aeef" stroke-width="0.05mm" stroke-dasharray="0.4,0.2" x1="54.08" y1="46.67" x2="60.01" y2="45.28" />
<line fill="none" stroke="#00aeef" stroke-width="0.05mm" stroke-dasharray="0.4,0.2" x1="54.08" y1="46.67" x2="59.51" y2="45.30" />
<line fill="none" stroke="#00aeef" stroke-width="0.05mm" stroke-dasharray="0.4,0.2" x1="54.08" y1="46.67" x2="59.51" y2="45.30" />
<line fill="none" stroke="#00aeef" stroke-width="0.05mm" stroke-dasharray="0.4,0.2" x1="54.08" y1="46.67" x2="58.01" y2="45.08" />
<line fill="none" stroke="#00aeef" stroke-width="0.05mm" stroke-dasharray="0.4,0.2" x1="54.08" y1="46.67" x2="58.01" y2="45.08" />
<line fill="none" stroke="#00aeef" stroke-width="0.05mm" stroke-dasharray="0.4,0.2" x1="54.08" y1="46.67" x2="50.99" y2="45.50" />
<line fill="none" stroke="#00aeef" stroke-width="0.05mm" stroke-dasharray="0.4,0.2" x1="54.08" y1="46.67" x2="54.07" y2="48.06" />
<line fill="none" stroke="#00aeef" stroke-width="0.05mm" stroke-dasharray="0.4,0.2" x1="54.08" y1="46.67" x2="54.20" y2="43.89" />
<line fill="none" stroke="#00aeef" stroke-width="0.05mm" stroke-dasharray="0.4,0.2" x1="54.08" y1="46.67" x2="58.02" y2="45.49" />
<line fill="none" stroke="#111111" stroke-width="0.05mm" x1="54.08" y1="46.67" x2="63.89" y2="45.47" />
<line fill="none" stroke="#00aeef" stroke-width="0.05mm" stroke-dasharray="0.4,0.2" x1="63.89" y1="45.47" x2="64.06" y2="45.34" />
<line fill="none" stroke="#111111" stroke-width="0.05mm" x1="54.08" y1="46.67" x2="63.58" y2="45.23" />
<line fill="none" stroke="#5674b9" stroke-width="0.05mm" stroke-dasharray="0.4,0.2" x1="63.58" y1="45.23" x2="61.23" y2="44.60" />
<line fill="none" stroke="#5674b9" stroke-width="0.05mm" stroke-dasharray="0.4,0.2" x1="63.58" y1="45.23" x2="63.49" y2="46.32" />
<line fill="none" stroke="#5674b9" stroke-width="0.05mm" stroke-dasharray="0.4,0.2" x1="63.58" y1="45.23" x2="63.09" y2="43.05" />
<line fill="none" stroke="#5674b9" stroke-width="0.05mm" stroke-dasharray="0.4,0.2" x1="63.58" y1="45.23" x2="72.25" y2="27.43" />
<line fill="none" stroke="#5674b9" stroke-width="0.05mm" stroke-dasharray="0.4,0.2" x1="63.58" y1="45.23" x2="72.25" y2="27.41" />
<line fill="none" stroke="#5674b9" stroke-width="0.05mm" stroke-dasharray="0.4,0.2" x1="63.58" y1="45.23" x2="72.00" y2="27.92" />
<line fill="none" stroke="#5674b9" stroke-width="0.05mm" stroke-dasharray="0.4,0.2" x1="63.58" y1="45.23" x2="69.21" y2="33.67" />
<line fill="none" stroke="#5674b9" stroke-width="0.05mm" stroke-dasharray="0.4,0.2" x1="63.58" y1="45.23" x2="69.21" y2="33.67" />
<line fill="none" stroke="#5674b9" stroke-width="0.05mm" stroke-dasharray="0.4,0.2" x1="63.58" y1="45.23" x2="69.17" y2="33.16" />
<line fill="none" stroke="#5674b9" stroke-width="0.05mm" stroke-dasharray="0.4,0.2" x1="63.58" y1="45.23" x2="69.17" y2="33.16" />
<line fill="none" stroke="#5674b9" stroke-width="0.05mm" stroke-dasharray="0.4,0.2" x1="63.58" y1="45.23" x2="68.56" y2="34.22" />
<line fill="none" stroke="#111111" stroke-width="0.05mm" x1="63.58" y1="45.23" x2="79.39" y2="32.34" />
<line fill="none" stroke="#5674b9" stroke-width="0.05mm" stroke-dasharray="0.4,0.2" x1="79.39" y1="32.34" x2="95.18" y2="19.47" />
</g>
<g>
<circle cx="22.00" cy="58.00" r="0.1" fill="#111111" />
<circle cx="24.71" cy="57.81" r="0.1" fill="#111111" />
<circle cx="30.05" cy="55.90" r="0.1" fill="#111111" />
<circle cx="42.22" cy="52.04" r="0.1" fill="#111111" />
<circle cx="49.52" cy="48.05" r="0.1" fill="#111111" />
<circle cx="54.08" cy="46.67" r="0.1" fill="#111111" />
<circle cx="63.89" cy="45.47" r="0.1" fill="#111111" />
<circle cx="63.58" cy="45.23" r="0.1" fill="#111111" />
<circle cx="79.39" cy="32.34" r="0.1" fill="#111111" />
</g>
<g>
<text x="22.20" y="58.00" font-size=".2mm" fill="#000000">0</text>
<text x="24.91" y="57.81" font-size=".2mm" fill="#000000">1</text>
<text x="30.25" y="55.90" font-size=".2mm" fill="#000000">2</text>
<text x="42.42" y="52.04" font-size=".2mm" fill="#000000">3</text>
<text x="49.72" y="48.05" font-size=".2mm" fill="#000000">4</text>
<text x="54.28" y="46.67" font-size=".2mm" fill="#000000">5</text>
<text x="64.09" y="45.47" font-size=".2mm" fill="#000000">6</text>
<text x="63.78" y="45.23" font-size=".2mm" fill="#000000">5.1</text>
<text x="79.59" y="32.34" font-size=".2mm" fill="#000000">5.2</text>
</g>
<g>
</g>
</g>
</svg>