  999
DXF created by TopoDroid v. 3.1.4
  0
SECTION
  2
HEADER
  9
$ACADVER
  1
AC1009
  9
$INSBASE
  10
0.00
  20
0.00
  30
0.00
  9
$EXTMIN
  10
-95.37
  20
-784.32
  30
0.00
  9
$EXTMAX
  10
2014.26
  20
-51.88
  30
0.00
  0
ENDSEC
  0
SECTION
  2
TABLES
  0
TABLE
  2
LTYPE
  70
1
  0
LTYPE
  2
CONTINUOUS
  70
64
  3
Solid line
  72
65
  73
0
  40
0.0
  0
ENDTAB
  0
TABLE
  2
LAYER
  70
36
  0
LAYER
  2
LEG
  70
0
  62
1
  6
CONTINUOUS
  0
LAYER
  2
SPLAY
  70
0
  62
2
  6
CONTINUOUS
  0
LAYER
  2
STATION
  70
0
  62
3
  6
CONTINUOUS
  0
LAYER
  2
LINE
  70
0
  62
4
  6
CONTINUOUS
  0
LAYER
  2
POINT
  70
0
  62
5
  6
CONTINUOUS
  0
LAYER
  2
REF
  70
0
  62
6
  6
CONTINUOUS
  0
LAYER
  2
L_u-user
  70
0
  62
7
  6
CONTINUOUS
  0
LAYER
  2
L_wall
  70
0
  62
8
  6
CONTINUOUS
  0
LAYER
  2
L_arrow
  70
0
  62
9
  6
CONTINUOUS
  0
LAYER
  2
L_border
  70
0
  62
10
  6
CONTINUOUS
  0
LAYER
  2
L_ceiling-meander
  70
0
  62
11
  6
CONTINUOUS
  0
LAYER
  2
L_chimney
  70
0
  62
12
  6
CONTINUOUS
  0
LAYER
  2
L_contour
  70
0
  62
13
  6
CONTINUOUS
  0
LAYER
  2
L_fault
  70
0
  62
14
  6
CONTINUOUS
  0
LAYER
  2
L_floor-meander
  70
0
  62
15
  6
CONTINUOUS
  0
LAYER
  2
L_overhang
  70
0
  62
16
  6
CONTINUOUS
  0
LAYER
  2
L_pit
  70
0
  62
17
  6
CONTINUOUS
  0
LAYER
  2
L_wall-presumed
  70
0
  62
18
  6
CONTINUOUS
  0
LAYER
  2
L_rock-border
  70
0
  62
19
  6
CONTINUOUS
  0
LAYER
  2
L_section
  70
0
  62
20
  6
CONTINUOUS
  0
LAYER
  2
L_slope
  70
0
  62
21
  6
CONTINUOUS
  0
LAYER
  2
L_wall-blocks
  70
0
  62
22
  6
CONTINUOUS
  0
LAYER
  2
L_wall-clay
  70
0
  62
23
  6
CONTINUOUS
  0
LAYER
  2
L_wall-debris
  70
0
  62
24
  6
CONTINUOUS
  0
LAYER
  2
L_wall-ice
  70
0
  62
25
  6
CONTINUOUS
  0
LAYER
  2
L_wall-sand
  70
0
  62
26
  6
CONTINUOUS
  0
LAYER
  2
L_water-flow
  70
0
  62
27
  6
CONTINUOUS
  0
LAYER
  2
A_u-user
  70
0
  62
28
  6
CONTINUOUS
  0
LAYER
  2
A_water
  70
0
  62
29
  6
CONTINUOUS
  0
LAYER
  2
A_blocks
  70
0
  62
30
  6
CONTINUOUS
  0
LAYER
  2
A_clay
  70
0
  62
31
  6
CONTINUOUS
  0
LAYER
  2
A_debris
  70
0
  62
32
  6
CONTINUOUS
  0
LAYER
  2
A_ice
  70
0
  62
33
  6
CONTINUOUS
  0
LAYER
  2
A_pebbles
  70
0
  62
34
  6
CONTINUOUS
  0
LAYER
  2
A_sand
  70
0
  62
35
  6
CONTINUOUS
  0
LAYER
  2
A_snow
  70
0
  62
36
  6
CONTINUOUS
  0
ENDTAB
  0
TABLE
  2
VIEW
  70
0
  0
ENDTAB
  0
TABLE
  2
UCS
  70
0
  0
ENDTAB
  0
TABLE
  2
APPID
  70
1
  0
APPID
  2
ACAD
  70
0
  0
ENDTAB
  0
ENDSEC
  0
SECTION
  2
BLOCKS
  0
BLOCK
  8
POINT
  2
P_u-user
  70
64
  10
0.0
  20
0.0
  30
0.0
  0
CIRCLE
  8
POINT
  10
0.00
  20
-0.00
  30
0.00
  40
0.30
  0
ENDBLK
  0
BLOCK
  8
POINT
  2
P_label
  70
64
  10
0.0
  20
0.0
  30
0.0
  0
LINE
  8
POINT
  10
0.00
  20
-0.15
  30
0.00
  11
0.00
  21
0.30
  31
0.00
  0
LINE
  8
POINT
  10
0.00
  20
0.30
  30
0.00
  11
-0.15
  21
0.30
  31
0.00
  0
LINE
  8
POINT
  10
-0.15
  20
0.30
  30
0.00
  11
0.15
  21
0.30
  31
0.00
  0
ENDBLK
  0
BLOCK
  8
POINT
  2
P_air-draught
  70
64
  10
0.0
  20
0.0
  30
0.0
  0
LINE
  8
POINT
  10
-0.20
  20
-0.35
  30
0.00
  11
0.00
  21
-0.15
  31
0.00
  0
LINE
  8
POINT
  10
0.00
  20
-0.15
  30
0.00
  11
0.00
  21
0.50
  31
0.00
  0
LINE
  8
POINT
  10
0.00
  20
0.50
  30
0.00
  11
0.20
  21
0.30
  31
0.00
  0
LINE
  8
POINT
  10
0.00
  20
0.50
  30
0.00
  11
-0.20
  21
0.30
  31
0.00
  0
LINE
  8
POINT
  10
-0.20
  20
-0.20
  30
0.00
  11
0.00
  21
-0.00
  31
0.00
  0
ENDBLK
  0
BLOCK
  8
POINT
  2
P_anchor
  70
64
  10
0.0
  20
0.0
  30
0.0
  0
LINE
  8
POINT
  10
0.25
  20
-0.00
  30
0.00
  11
-0.25
  21
-0.00
  31
0.00
  0
CIRCLE
  8
POINT
  10
0.00
  20
-0.00
  30
0.00
  40
0.25
  0
ENDBLK
  0
BLOCK
  8
POINT
  2
P_aragonite
  70
64
  10
0.0
  20
0.0
  30
0.0
  0
LINE
  8
POINT
  10
0.00
  20
0.25
  30
0.00
  11
0.00
  21
-0.35
  31
0.00
  0
LINE
  8
POINT
  10
-0.10
  20
0.35
  30
0.00
  11
0.00
  21
0.25
  31
0.00
  0
LINE
  8
POINT
  10
0.00
  20
0.25
  30
0.00
  11
0.10
  21
0.35
  31
0.00
  0
LINE
  8
POINT
  10
-0.15
  20
0.20
  30
0.00
  11
0.00
  21
0.05
  31
0.00
  0
LINE
  8
POINT
  10
0.00
  20
0.05
  30
0.00
  11
0.15
  21
0.20
  31
0.00
  0
ENDBLK
  0
BLOCK
  8
POINT
  2
P_archeo-material
  70
64
  10
0.0
  20
0.0
  30
0.0
  0
LINE
  8
POINT
  10
-0.17
  20
-0.17
  30
0.00
  11
0.00
  21
-0.00
  31
0.00
  0
LINE
  8
POINT
  10
-0.17
  20
0.17
  30
0.00
  11
0.00
  21
-0.00
  31
0.00
  0
LINE
  8
POINT
  10
0.00
  20
-0.00
  30
0.00
  11
0.25
  21
-0.00
  31
0.00
  0
CIRCLE
  8
POINT
  10
0.00
  20
-0.00
  30
0.00
  40
0.25
  0
ENDBLK
  0
BLOCK
  8
POINT
  2
P_blocks
  70
64
  10
0.0
  20
0.0
  30
0.0
  0
LINE
  8
POINT
  10
-0.35
  20
-0.20
  30
0.00
  11
0.40
  21
-0.25
  31
0.00
  0
LINE
  8
POINT
  10
0.40
  20
-0.25
  30
0.00
  11
0.35
  21
0.25
  31
0.00
  0
LINE
  8
POINT
  10
0.35
  20
0.25
  30
0.00
  11
-0.25
  21
0.30
  31
0.00
  0
LINE
  8
POINT
  10
-0.25
  20
0.30
  30
0.00
  11
-0.35
  21
0.20
  31
0.00
  0
LINE
  8
POINT
  10
-0.35
  20
0.20
  30
0.00
  11
-0.35
  21
-0.20
  31
0.00
  0
LINE
  8
POINT
  10
-0.35
  20
-0.20
  30
0.00
  11
-0.30
  21
-0.10
  31
0.00
  0
LINE
  8
POINT
  10
-0.30
  20
-0.10
  30
0.00
  11
-0.25
  21
0.10
  31
0.00
  0
LINE
  8
POINT
  10
-0.25
  20
0.10
  30
0.00
  11
-0.20
  21
0.20
  31
0.00
  0
LINE
  8
POINT
  10
-0.20
  20
0.20
  30
0.00
  11
0.25
  21
0.15
  31
0.00
  0
LINE
  8
POINT
  10
0.25
  20
0.15
  30
0.00
  11
0.35
  21
0.25
  31
0.00
  0
LINE
  8
POINT
  10
-0.20
  20
0.20
  30
0.00
  11
-0.25
  21
0.30
  31
0.00
  0
ENDBLK
  0
BLOCK
  8
POINT
  2
P_breakdown-choke
  70
64
  10
0.0
  20
0.0
  30
0.0
  0
LINE
  8
POINT
  10
-0.20
  20
-0.20
  30
0.00
  11
0.20
  21
0.20
  31
0.00
  0
LINE
  8
POINT
  10
-0.20
  20
0.20
  30
0.00
  11
0.20
  21
-0.20
  31
0.00
  0
ENDBLK
  0
BLOCK
  8
POINT
  2
P_clay
  70
64
  10
0.0
  20
0.0
  30
0.0
  0
ARC
  8
POINT
  10
-0.15
  20
-0.00
  30
0.00
  40
0.15
  50
90.00
  51
180.00
  0
ARC
  8
POINT
  10
-0.15
  20
-0.00
  30
0.00
  40
0.15
  50
0.00
  51
90.00
  0
ARC
  8
POINT
  10
0.15
  20
-0.00
  30
0.00
  40
0.15
  50
180.00
  51
270.00
  0
ARC
  8
POINT
  10
0.15
  20
-0.00
  30
0.00
  40
0.15
  50
270.00
  51
360.00
  0
ENDBLK
  0
BLOCK
  8
POINT
  2
P_continuation
  70
64
  10
0.0
  20
0.0
  30
0.0
  0
LINE
  8
POINT
  10
0.00
  20
-0.15
  30
0.00
  11
0.00
  21
-0.00
  31
0.00
  0
ARC
  8
POINT
  10
0.10
  20
-0.00
  30
0.00
  40
0.10
  50
90.00
  51
180.00
  0
ARC
  8
POINT
  10
0.00
  20
0.15
  30
0.00
  40
0.10
  50
0.00
  51
90.00
  0
ARC
  8
POINT
  10
-0.15
  20
0.30
  30
0.00
  40
0.15
  50
270.00
  51
360.00
  0
LINE
  8
POINT
  10
0.00
  20
-0.35
  30
0.00
  11
0.00
  21
-0.25
  31
0.00
  0
ENDBLK
  0
BLOCK
  8
POINT
  2
P_crystal
  70
64
  10
0.0
  20
0.0
  30
0.0
  0
LINE
  8
POINT
  10
-0.25
  20
-0.00
  30
0.00
  11
0.25
  21
-0.00
  31
0.00
  0
LINE
  8
POINT
  10
0.00
  20
0.25
  30
0.00
  11
0.00
  21
-0.25
  31
0.00
  0
LINE
  8
POINT
  10
0.00
  20
-0.25
  30
0.00
  11
0.25
  21
-0.00
  31
0.00
  0
LINE
  8
POINT
  10
0.25
  20
-0.00
  30
0.00
  11
0.00
  21
0.25
  31
0.00
  0
LINE
  8
POINT
  10
0.00
  20
0.25
  30
0.00
  11
-0.25
  21
-0.00
  31
0.00
  0
LINE
  8
POINT
  10
-0.25
  20
-0.00
  30
0.00
  11
0.00
  21
-0.25
  31
0.00
  0
ENDBLK
  0
BLOCK
  8
POINT
  2
P_curtain
  70
64
  10
0.0
  20
0.0
  30
0.0
  0
LINE
  8
POINT
  10
-0.20
  20
0.20
  30
0.00
  11
0.00
  21
-0.00
  31
0.00
  0
LINE
  8
POINT
  10
0.00
  20
-0.00
  30
0.00
  11
0.20
  21
0.20
  31
0.00
  0
LINE
  8
POINT
  10
0.00
  20
-0.00
  30
0.00
  11
0.00
  21
-0.10
  31
0.00
  0
ARC
  8
POINT
  10
0.00
  20
-0.20
  30
0.00
  40
0.10
  50
90.00
  51
180.00
  0
ARC
  8
POINT
  10
0.00
  20
-0.20
  30
0.00
  40
0.10
  50
180.00
  51
270.00
  0
LINE
  8
POINT
  10
0.00
  20
-0.30
  30
0.00
  11
0.00
  21
-0.40
  31
0.00
  0
ENDBLK
  0
BLOCK
  8
POINT
  2
P_u-danger
  70
64
  10
0.0
  20
0.0
  30
0.0
  0
LINE
  8
POINT
  10
0.00
  20
-0.00
  30
0.00
  11
0.10
  21
0.40
  31
0.00
  0
LINE
  8
POINT
  10
0.10
  20
0.40
  30
0.00
  11
-0.10
  21
0.40
  31
0.00
  0
LINE
  8
POINT
  10
-0.10
  20
0.40
  30
0.00
  11
0.00
  21
-0.00
  31
0.00
  0
CIRCLE
  8
POINT
  10
0.00
  20
-0.20
  30
0.00
  40
0.10
  0
ENDBLK
  0
BLOCK
  8
POINT
  2
P_debris
  70
64
  10
0.0
  20
0.0
  30
0.0
  0
LINE
  8
POINT
  10
0.00
  20
-0.00
  30
0.00
  11
0.20
  21
-0.05
  31
0.00
  0
LINE
  8
POINT
  10
0.20
  20
-0.05
  30
0.00
  11
0.10
  21
0.15
  31
0.00
  0
LINE
  8
POINT
  10
0.10
  20
0.15
  30
0.00
  11
0.00
  21
-0.00
  31
0.00
  0
LINE
  8
POINT
  10
0.00
  20
-0.00
  30
0.00
  11
-0.20
  21
-0.00
  31
0.00
  0
LINE
  8
POINT
  10
-0.20
  20
-0.00
  30
0.00
  11
-0.10
  21
0.20
  31
0.00
  0
LINE
  8
POINT
  10
-0.10
  20
0.20
  30
0.00
  11
0.00
  21
-0.00
  31
0.00
  0
ENDBLK
  0
BLOCK
  8
POINT
  2
P_dig
  70
64
  10
0.0
  20
0.0
  30
0.0
  0
LINE
  8
POINT
  10
-0.25
  20
0.10
  30
0.00
  11
-0.05
  21
0.30
  31
0.00
  0
LINE
  8
POINT
  10
-0.15
  20
0.20
  30
0.00
  11
0.20
  21
-0.15
  31
0.00
  0
LINE
  8
POINT
  10
0.25
  20
0.10
  30
0.00
  11
0.05
  21
0.30
  31
0.00
  0
LINE
  8
POINT
  10
0.15
  20
0.20
  30
0.00
  11
-0.20
  21
-0.15
  31
0.00
  0
ENDBLK
  0
BLOCK
  8
POINT
  2
P_disc
  70
64
  10
0.0
  20
0.0
  30
0.0
  0
CIRCLE
  8
POINT
  10
0.00
  20
0.15
  30
0.00
  40
0.15
  0
LINE
  8
POINT
  10
-0.10
  20
-0.15
  30
0.00
  11
0.00
  21
-0.00
  31
0.00
  0
LINE
  8
POINT
  10
0.00
  20
-0.00
  30
0.00
  11
0.10
  21
-0.15
  31
0.00
  0
ENDBLK
  0
BLOCK
  8
POINT
  2
P_entrance
  70
64
  10
0.0
  20
0.0
  30
0.0
  0
LINE
  8
POINT
  10
0.00
  20
0.30
  30
0.00
  11
-0.15
  21
-0.15
  31
0.00
  0
LINE
  8
POINT
  10
-0.15
  20
-0.15
  30
0.00
  11
0.15
  21
-0.15
  31
0.00
  0
LINE
  8
POINT
  10
0.15
  20
-0.15
  30
0.00
  11
0.00
  21
0.30
  31
0.00
  0
ENDBLK
  0
BLOCK
  8
POINT
  2
P_flowstone
  70
64
  10
0.0
  20
0.0
  30
0.0
  0
LINE
  8
POINT
  10
-0.30
  20
0.10
  30
0.00
  11
-0.05
  21
0.10
  31
0.00
  0
LINE
  8
POINT
  10
0.10
  20
0.10
  30
0.00
  11
0.35
  21
0.10
  31
0.00
  0
LINE
  8
POINT
  10
-0.15
  20
-0.10
  30
0.00
  11
0.15
  21
-0.10
  31
0.00
  0
ENDBLK
  0
BLOCK
  8
POINT
  2
P_flute
  70
64
  10
0.0
  20
0.0
  30
0.0
  0
LINE
  8
POINT
  10
-0.30
  20
-0.00
  30
0.00
  11
0.30
  21
-0.00
  31
0.00
  0
ARC
  8
POINT
  10
0.00
  20
-0.00
  30
0.00
  40
0.15
  50
90.00
  51
180.00
  0
ARC
  8
POINT
  10
0.00
  20
-0.00
  30
0.00
  40
0.15
  50
0.00
  51
90.00
  0
ENDBLK
  0
BLOCK
  8
POINT
  2
P_gradient
  70
64
  10
0.0
  20
0.0
  30
0.0
  0
LINE
  8
POINT
  10
0.00
  20
-0.40
  30
0.00
  11
0.00
  21
0.20
  31
0.00
  0
LINE
  8
POINT
  10
0.00
  20
0.20
  30
0.00
  11
-0.10
  21
0.10
  31
0.00
  0
LINE
  8
POINT
  10
-0.10
  20
0.10
  30
0.00
  11
0.10
  21
0.10
  31
0.00
  0
LINE
  8
POINT
  10
0.10
  20
0.10
  30
0.00
  11
0.00
  21
0.20
  31
0.00
  0
ENDBLK
  0
BLOCK
  8
POINT
  2
P_guano
  70
64
  10
0.0
  20
0.0
  30
0.0
  0
ARC
  8
POINT
  10
-0.12
  20
-0.00
  30
0.00
  40
0.12
  50
0.00
  51
180.00
  0
LINE
  8
POINT
  10
0.00
  20
-0.00
  30
0.00
  11
0.00
  21
-0.30
  31
0.00
  0
ARC
  8
POINT
  10
0.12
  20
-0.00
  30
0.00
  40
0.12
  50
0.00
  51
180.00
  0
ENDBLK
  0
BLOCK
  8
POINT
  2
P_gypsum
  70
64
  10
0.0
  20
0.0
  30
0.0
  0
LINE
  8
POINT
  10
-0.25
  20
-0.00
  30
0.00
  11
0.00
  21
0.25
  31
0.00
  0
LINE
  8
POINT
  10
0.00
  20
0.25
  30
0.00
  11
0.00
  21
-0.25
  31
0.00
  0
LINE
  8
POINT
  10
0.00
  20
-0.25
  30
0.00
  11
0.25
  21
-0.00
  31
0.00
  0
LINE
  8
POINT
  10
0.25
  20
-0.00
  30
0.00
  11
-0.25
  21
-0.00
  31
0.00
  0
ENDBLK
  0
BLOCK
  8
POINT
  2
P_helictite
  70
64
  10
0.0
  20
0.0
  30
0.0
  0
LINE
  8
POINT
  10
0.00
  20
0.35
  30
0.00
  11
0.00
  21
-0.35
  31
0.00
  0
LINE
  8
POINT
  10
-0.15
  20
0.25
  30
0.00
  11
-0.15
  21
-0.00
  31
0.00
  0
LINE
  8
POINT
  10
-0.15
  20
-0.00
  30
0.00
  11
0.15
  21
-0.00
  31
0.00
  0
LINE
  8
POINT
  10
0.15
  20
-0.00
  30
0.00
  11
0.15
  21
-0.25
  31
0.00
  0
ENDBLK
  0
BLOCK
  8
POINT
  2
P_ice
  70
64
  10
0.0
  20
0.0
  30
0.0
  0
LINE
  8
POINT
  10
-0.25
  20
-0.00
  30
0.00
  11
0.25
  21
-0.00
  31
0.00
  0
LINE
  8
POINT
  10
0.00
  20
0.25
  30
0.00
  11
0.00
  21
-0.25
  31
0.00
  0
ENDBLK
  0
BLOCK
  8
POINT
  2
P_low-end
  70
64
  10
0.0
  20
0.0
  30
0.0
  0
LINE
  8
POINT
  10
-0.30
  20
0.10
  30
0.00
  11
0.30
  21
0.10
  31
0.00
  0
LINE
  8
POINT
  10
-0.30
  20
-0.10
  30
0.00
  11
0.30
  21
-0.10
  31
0.00
  0
ENDBLK
  0
BLOCK
  8
POINT
  2
P_moonmilk
  70
64
  10
0.0
  20
0.0
  30
0.0
  0
ARC
  8
POINT
  10
-0.28
  20
-0.05
  30
0.00
  40
0.12
  50
0.00
  51
180.00
  0
ARC
  8
POINT
  10
-0.03
  20
-0.05
  30
0.00
  40
0.12
  50
0.00
  51
180.00
  0
ARC
  8
POINT
  10
0.23
  20
-0.05
  30
0.00
  40
0.12
  50
0.00
  51
180.00
  0
ENDBLK
  0
BLOCK
  8
POINT
  2
P_narrow-end
  70
64
  10
0.0
  20
0.0
  30
0.0
  0
LINE
  8
POINT
  10
-0.10
  20
0.30
  30
0.00
  11
-0.10
  21
-0.30
  31
0.00
  0
LINE
  8
POINT
  10
0.10
  20
0.30
  30
0.00
  11
0.10
  21
-0.30
  31
0.00
  0
ENDBLK
  0
BLOCK
  8
POINT
  2
P_paleo-material
  70
64
  10
0.0
  20
0.0
  30
0.0
  0
CIRCLE
  8
POINT
  10
-0.25
  20
-0.10
  30
0.00
  40
0.05
  0
CIRCLE
  8
POINT
  10
-0.20
  20
-0.20
  30
0.00
  40
0.05
  0
CIRCLE
  8
POINT
  10
0.20
  20
0.20
  30
0.00
  40
0.05
  0
CIRCLE
  8
POINT
  10
0.25
  20
0.10
  30
0.00
  40
0.05
  0
LINE
  8
POINT
  10
-0.21
  20
-0.09
  30
0.00
  11
0.17
  21
0.17
  31
0.00
  0
LINE
  8
POINT
  10
0.21
  20
0.09
  30
0.00
  11
-0.17
  21
-0.17
  31
0.00
  0
ENDBLK
  0
BLOCK
  8
POINT
  2
P_paleoflow
  70
64
  10
0.0
  20
0.0
  30
0.0
  0
LINE
  8
POINT
  10
0.00
  20
-0.25
  30
0.00
  11
0.00
  21
0.35
  31
0.00
  0
LINE
  8
POINT
  10
0.00
  20
0.35
  30
0.00
  11
0.10
  21
0.25
  31
0.00
  0
LINE
  8
POINT
  10
0.00
  20
0.35
  30
0.00
  11
-0.10
  21
0.25
  31
0.00
  0
ARC
  8
POINT
  10
0.00
  20
-0.00
  30
0.00
  40
0.15
  50
90.00
  51
180.00
  0
ARC
  8
POINT
  10
0.00
  20
-0.00
  30
0.00
  40
0.15
  50
0.00
  51
90.00
  0
ENDBLK
  0
BLOCK
  8
POINT
  2
P_pebbles
  70
64
  10
0.0
  20
0.0
  30
0.0
  0
CIRCLE
  8
POINT
  10
-0.15
  20
-0.05
  30
0.00
  40
0.10
  0
CIRCLE
  8
POINT
  10
0.20
  20
-0.15
  30
0.00
  40
0.10
  0
CIRCLE
  8
POINT
  10
0.15
  20
0.15
  30
0.00
  40
0.10
  0
ENDBLK
  0
BLOCK
  8
POINT
  2
P_pendant
  70
64
  10
0.0
  20
0.0
  30
0.0
  0
ARC
  8
POINT
  10
-0.20
  20
0.20
  30
0.00
  40
0.10
  50
90.00
  51
270.00
  0
ARC
  8
POINT
  10
0.00
  20
0.10
  30
0.00
  40
0.20
  50
180.00
  51
270.00
  0
ARC
  8
POINT
  10
0.20
  20
-0.30
  30
0.00
  40
0.20
  50
90.00
  51
180.00
  0
ARC
  8
POINT
  10
0.20
  20
0.20
  30
0.00
  40
0.10
  50
90.00
  51
270.00
  0
ENDBLK
  0
BLOCK
  8
POINT
  2
P_pillar
  70
64
  10
0.0
  20
0.0
  30
0.0
  0
LINE
  8
POINT
  10
-0.15
  20
0.35
  30
0.00
  11
0.00
  21
0.20
  31
0.00
  0
LINE
  8
POINT
  10
0.00
  20
0.20
  30
0.00
  11
0.00
  21
-0.20
  31
0.00
  0
LINE
  8
POINT
  10
0.00
  20
-0.20
  30
0.00
  11
-0.15
  21
-0.35
  31
0.00
  0
LINE
  8
POINT
  10
0.00
  20
-0.20
  30
0.00
  11
0.15
  21
-0.35
  31
0.00
  0
LINE
  8
POINT
  10
0.00
  20
0.20
  30
0.00
  11
0.15
  21
0.35
  31
0.00
  0
ENDBLK
  0
BLOCK
  8
POINT
  2
P_popcorn
  70
64
  10
0.0
  20
0.0
  30
0.0
  0
LINE
  8
POINT
  10
-0.35
  20
-0.20
  30
0.00
  11
0.35
  21
-0.20
  31
0.00
  0
LINE
  8
POINT
  10
-0.30
  20
-0.20
  30
0.00
  11
-0.30
  21
0.05
  31
0.00
  0
CIRCLE
  8
POINT
  10
-0.30
  20
0.10
  30
0.00
  40
0.05
  0
LINE
  8
POINT
  10
0.00
  20
-0.20
  30
0.00
  11
0.00
  21
0.05
  31
0.00
  0
CIRCLE
  8
POINT
  10
0.00
  20
0.10
  30
0.00
  40
0.05
  0
LINE
  8
POINT
  10
0.30
  20
-0.20
  30
0.00
  11
0.30
  21
0.05
  31
0.00
  0
CIRCLE
  8
POINT
  10
0.30
  20
0.10
  30
0.00
  40
0.05
  0
ENDBLK
  0
BLOCK
  8
POINT
  2
P_root
  70
64
  10
0.0
  20
0.0
  30
0.0
  0
LINE
  8
POINT
  10
0.00
  20
0.40
  30
0.00
  11
0.00
  21
-0.20
  31
0.00
  0
LINE
  8
POINT
  10
0.00
  20
-0.20
  30
0.00
  11
0.15
  21
-0.35
  31
0.00
  0
LINE
  8
POINT
  10
0.00
  20
-0.05
  30
0.00
  11
0.15
  21
-0.20
  31
0.00
  0
LINE
  8
POINT
  10
0.00
  20
0.10
  30
0.00
  11
0.15
  21
-0.05
  31
0.00
  0
ENDBLK
  0
BLOCK
  8
POINT
  2
P_sand
  70
64
  10
0.0
  20
0.0
  30
0.0
  0
LINE
  8
POINT
  10
-0.35
  20
-0.15
  30
0.00
  11
-0.25
  21
-0.15
  31
0.00
  0
LINE
  8
POINT
  10
-0.25
  20
-0.15
  30
0.00
  11
-0.30
  21
-0.05
  31
0.00
  0
LINE
  8
POINT
  10
-0.30
  20
-0.05
  30
0.00
  11
-0.35
  21
-0.15
  31
0.00
  0
LINE
  8
POINT
  10
0.35
  20
-0.15
  30
0.00
  11
0.25
  21
-0.15
  31
0.00
  0
LINE
  8
POINT
  10
0.25
  20
-0.15
  30
0.00
  11
0.30
  21
-0.05
  31
0.00
  0
LINE
  8
POINT
  10
0.30
  20
-0.05
  30
0.00
  11
0.35
  21
-0.15
  31
0.00
  0
LINE
  8
POINT
  10
-0.05
  20
0.15
  30
0.00
  11
0.05
  21
0.15
  31
0.00
  0
LINE
  8
POINT
  10
0.05
  20
0.15
  30
0.00
  11
0.00
  21
0.25
  31
0.00
  0
LINE
  8
POINT
  10
0.00
  20
0.25
  30
0.00
  11
-0.05
  21
0.15
  31
0.00
  0
ENDBLK
  0
BLOCK
  8
POINT
  2
P_scallop
  70
64
  10
0.0
  20
0.0
  30
0.0
  0
LINE
  8
POINT
  10
0.00
  20
-0.30
  30
0.00
  11
-0.15
  21
-0.00
  31
0.00
  0
ARC
  8
POINT
  10
0.00
  20
-0.00
  30
0.00
  40
0.15
  50
90.00
  51
180.00
  0
ARC
  8
POINT
  10
0.00
  20
-0.00
  30
0.00
  40
0.15
  50
0.00
  51
90.00
  0
LINE
  8
POINT
  10
0.15
  20
-0.00
  30
0.00
  11
0.00
  21
-0.30
  31
0.00
  0
ENDBLK
  0
BLOCK
  8
POINT
  2
P_section
  70
64
  10
0.0
  20
0.0
  30
0.0
  0
LINE
  8
POINT
  10
-0.25
  20
0.25
  30
0.00
  11
-0.25
  21
-0.25
  31
0.00
  0
LINE
  8
POINT
  10
-0.25
  20
-0.25
  30
0.00
  11
0.25
  21
-0.25
  31
0.00
  0
LINE
  8
POINT
  10
0.25
  20
-0.25
  30
0.00
  11
0.25
  21
0.25
  31
0.00
  0
LINE
  8
POINT
  10
0.25
  20
0.25
  30
0.00
  11
-0.25
  21
0.25
  31
0.00
  0
ENDBLK
  0
BLOCK
  8
POINT
  2
P_sink
  70
64
  10
0.0
  20
0.0
  30
0.0
  0
ARC
  8
POINT
  10
0.00
  20
0.15
  30
0.00
  40
0.25
  50
180.00
  51
360.00
  0
ENDBLK
  0
BLOCK
  8
POINT
  2
P_snow
  70
64
  10
0.0
  20
0.0
  30
0.0
  0
LINE
  8
POINT
  10
0.00
  20
0.25
  30
0.00
  11
0.00
  21
-0.25
  31
0.00
  0
LINE
  8
POINT
  10
-0.20
  20
0.15
  30
0.00
  11
0.20
  21
-0.15
  31
0.00
  0
LINE
  8
POINT
  10
-0.20
  20
-0.15
  30
0.00
  11
0.20
  21
0.15
  31
0.00
  0
ENDBLK
  0
BLOCK
  8
POINT
  2
P_soda-straw
  70
64
  10
0.0
  20
0.0
  30
0.0
  0
LINE
  8
POINT
  10
-0.30
  20
0.10
  30
0.00
  11
0.30
  21
0.10
  31
0.00
  0
LINE
  8
POINT
  10
-0.20
  20
0.10
  30
0.00
  11
-0.20
  21
-0.10
  31
0.00
  0
LINE
  8
POINT
  10
0.00
  20
0.10
  30
0.00
  11
0.00
  21
-0.30
  31
0.00
  0
LINE
  8
POINT
  10
0.20
  20
0.10
  30
0.00
  11
0.20
  21
-0.20
  31
0.00
  0
ENDBLK
  0
BLOCK
  8
POINT
  2
P_spring
  70
64
  10
0.0
  20
0.0
  30
0.0
  0
ARC
  8
POINT
  10
0.00
  20
-0.15
  30
0.00
  40
0.25
  50
0.00
  51
180.00
  0
ENDBLK
  0
BLOCK
  8
POINT
  2
P_stalactite
  70
64
  10
0.0
  20
0.0
  30
0.0
  0
LINE
  8
POINT
  10
-0.20
  20
0.20
  30
0.00
  11
0.00
  21
-0.00
  31
0.00
  0
LINE
  8
POINT
  10
0.00
  20
-0.00
  30
0.00
  11
0.20
  21
0.20
  31
0.00
  0
LINE
  8
POINT
  10
0.00
  20
-0.00
  30
0.00
  11
0.00
  21
-0.30
  31
0.00
  0
ENDBLK
  0
BLOCK
  8
POINT
  2
P_stalagmite
  70
64
  10
0.0
  20
0.0
  30
0.0
  0
LINE
  8
POINT
  10
-0.20
  20
-0.20
  30
0.00
  11
0.00
  21
-0.00
  31
0.00
  0
LINE
  8
POINT
  10
0.00
  20
-0.00
  30
0.00
  11
0.20
  21
-0.20
  31
0.00
  0
LINE
  8
POINT
  10
0.00
  20
-0.00
  30
0.00
  11
0.00
  21
0.30
  31
0.00
  0
ENDBLK
  0
BLOCK
  8
POINT
  2
P_wall-calcite
  70
64
  10
0.0
  20
0.0
  30
0.0
  0
LINE
  8
POINT
  10
-0.30
  20
-0.10
  30
0.00
  11
-0.15
  21
0.10
  31
0.00
  0
LINE
  8
POINT
  10
-0.15
  20
0.10
  30
0.00
  11
0.00
  21
-0.10
  31
0.00
  0
LINE
  8
POINT
  10
0.00
  20
-0.10
  30
0.00
  11
0.15
  21
0.10
  31
0.00
  0
LINE
  8
POINT
  10
0.15
  20
0.10
  30
0.00
  11
0.30
  21
-0.10
  31
0.00
  0
ENDBLK
  0
BLOCK
  8
POINT
  2
P_water
  70
64
  10
0.0
  20
0.0
  30
0.0
  0
LINE
  8
POINT
  10
-0.30
  20
0.15
  30
0.00
  11
-0.05
  21
0.15
  31
0.00
  0
LINE
  8
POINT
  10
0.10
  20
0.15
  30
0.00
  11
0.30
  21
0.15
  31
0.00
  0
LINE
  8
POINT
  10
-0.20
  20
-0.00
  30
0.00
  11
0.05
  21
-0.00
  31
0.00
  0
LINE
  8
POINT
  10
0.15
  20
-0.00
  30
0.00
  11
0.35
  21
-0.00
  31
0.00
  0
LINE
  8
POINT
  10
-0.15
  20
-0.15
  30
0.00
  11
0.25
  21
-0.15
  31
0.00
  0
ENDBLK
  0
BLOCK
  8
POINT
  2
P_water-flow
  70
64
  10
0.0
  20
0.0
  30
0.0
  0
ARC
  8
POINT
  10
0.00
  20
-0.08
  30
0.00
  40
0.08
  50
90.00
  51
270.00
  0
ARC
  8
POINT
  10
0.00
  20
0.08
  30
0.00
  40
0.08
  50
270.00
  51
450.00
  0
ARC
  8
POINT
  10
0.00
  20
0.23
  30
0.00
  40
0.08
  50
90.00
  51
270.00
  0
ARC
  8
POINT
  10
0.00
  20
0.38
  30
0.00
  40
0.08
  50
270.00
  51
360.00
  0
ARC
  8
POINT
  10
0.00
  20
0.38
  30
0.00
  40
0.08
  50
0.00
  51
90.00
  0
LINE
  8
POINT
  10
0.00
  20
0.50
  30
0.00
  11
0.20
  21
0.30
  31
0.00
  0
LINE
  8
POINT
  10
0.00
  20
0.50
  30
0.00
  11
-0.20
  21
0.30
  31
0.00
  0
ENDBLK
  0
ENDSEC
  0
SECTION
  2
ENTITIES
  0
LINE
  8
REF
  10
-95.37
  20
-784.32
  30
0.00
  11
104.63
  21
-784.32
  31
0.00
  0
LINE
  8
REF
  10
-95.37
  20
-784.32
  30
0.00
  11
-95.37
  21
-584.32
  31
0.00
  0
TEXT
  8
REF
  10
105.63
  20
-784.32
  30
0.00
  40
0.30
  1
"10"
  0
TEXT
  8
REF
  10
-95.37
  20
-583.32
  30
0.00
  40
0.30
  1
"10"
  0
LINE
  8
LEG
  10
100.00
  20
-120.00
  30
0.00
  11
12.02
  21
-228.80
  31
0.00
  0
LINE
  8
LEG
  10
12.02
  20
-228.80
  30
0.00
  11
84.13
  21
-331.19
  31
0.00
  0
LINE
  8
LEG
  10
84.13
  20
-331.19
  30
0.00
  11
169.41
  21
-371.27
  31
0.00
  0
LINE
  8
LEG
  10
169.41
  20
-371.27
  30
0.00
  11
240.14
  21
-415.79
  31
0.00
  0
LINE
  8
LEG
  10
240.14
  20
-415.79
  30
0.00
  11
422.94
  21
-440.95
  31
0.00
  0
LINE
  8
LEG
  10
422.94
  20
-440.95
  30
0.00
  11
485.37
  21
-463.14
  31
0.00
  0
LINE
  8
LEG
  10
485.37
  20
-463.14
  30
0.00
  11
526.79
  21
-502.79
  31
0.00
  0
LINE
  8
LEG
  10
526.79
  20
-502.79
  30
0.00
  11
619.19
  21
-495.09
  31
0.00
  0
LINE
  8
LEG
  10
619.19
  20
-495.09
  30
0.00
  11
727.49
  21
-519.95
  31
0.00
  0
LINE
  8
LEG
  10
727.49
  20
-519.95
  30
0.00
  11
794.61
  21
-503.47
  31
0.00
  0
LINE
  8
LEG
  10
794.61
  20
-503.47
  30
0.00
  11
874.17
  21
-499.85
  31
0.00
  0
LINE
  8
LEG
  10
874.17
  20
-499.85
  30
0.00
  11
974.80
  21
-509.89
  31
0.00
  0
LINE
  8
LEG
  10
974.80
  20
-509.89
  30
0.00
  11
925.30
  21
-508.13
  31
0.00
  0
LINE
  8
LEG
  10
925.30
  20
-508.13
  30
0.00
  11
794.51
  21
-612.30
  31
0.00
  0
LINE
  8
LEG
  10
794.51
  20
-612.30
  30
0.00
  11
700.45
  21
-595.79
  31
0.00
  0
LINE
  8
LEG
  10
700.45
  20
-595.79
  30
0.00
  11
587.10
  21
-518.46
  31
0.00
  0
LINE
  8
LEG
  10
587.10
  20
-518.46
  30
0.00
  11
488.88
  21
-605.91
  31
0.00
  0
LINE
  8
LEG
  10
488.88
  20
-605.91
  30
0.00
  11
419.32
  21
-633.25
  31
0.00
  0
LINE
  8
LEG
  10
925.30
  20
-508.13
  30
0.00
  11
1079.53
  21
-376.48
  31
0.00
  0
LINE
  8
LEG
  10
794.61
  20
-503.47
  30
0.00
  11
992.82
  21
-447.08
  31
0.00
  0
LINE
  8
LEG
  10
992.82
  20
-447.08
  30
0.00
  11
1069.74
  21
-319.18
  31
0.00
  0
LINE
  8
LEG
  10
794.61
  20
-503.47
  30
0.00
  11
939.20
  21
-523.05
  31
0.00
  0
LINE
  8
LEG
  10
939.20
  20
-523.05
  30
0.00
  11
1042.63
  21
-551.49
  31
0.00
  0
LINE
  8
LEG
  10
1042.63
  20
-551.49
  30
0.00
  11
1195.32
  21
-601.49
  31
0.00
  0
LINE
  8
LEG
  10
1195.32
  20
-601.49
  30
0.00
  11
1258.58
  21
-622.63
  31
0.00
  0
LINE
  8
LEG
  10
1258.58
  20
-622.63
  30
0.00
  11
1152.65
  21
-774.08
  31
0.00
  0
LINE
  8
LEG
  10
1195.32
  20
-601.49
  30
0.00
  11
1347.70
  21
-519.64
  31
0.00
  0
LINE
  8
LEG
  10
1347.70
  20
-519.64
  30
0.00
  11
1370.08
  21
-515.26
  31
0.00
  0
LINE
  8
LEG
  10
1370.08
  20
-515.26
  30
0.00
  11
1419.96
  21
-511.09
  31
0.00
  0
LINE
  8
LEG
  10
1419.96
  20
-511.09
  30
0.00
  11
1490.98
  21
-518.43
  31
0.00
  0
LINE
  8
LEG
  10
1490.98
  20
-518.43
  30
0.00
  11
1527.91
  21
-488.60
  31
0.00
  0
LINE
  8
LEG
  10
1527.91
  20
-488.60
  30
0.00
  11
1586.21
  21
-473.22
  31
0.00
  0
LINE
  8
LEG
  10
1586.21
  20
-473.22
  30
0.00
  11
1672.79
  21
-446.35
  31
0.00
  0
LINE
  8
LEG
  10
1672.79
  20
-446.35
  30
0.00
  11
1783.73
  21
-432.58
  31
0.00
  0
LINE
  8
LEG
  10
1783.73
  20
-432.58
  30
0.00
  11
1872.92
  21
-395.77
  31
0.00
  0
LINE
  8
LEG
  10
1872.92
  20
-395.77
  30
0.00
  11
1925.40
  21
-371.24
  31
0.00
  0
LINE
  8
LEG
  10
1925.40
  20
-371.24
  30
0.00
  11
1961.26
  21
-384.44
  31
0.00
  0
LINE
  8
LEG
  10
1961.26
  20
-384.44
  30
0.00
  11
1991.96
  21
-368.97
  31
0.00
  0
LINE
  8
LEG
  10
422.94
  20
-440.95
  30
0.00
  11
483.48
  21
-495.45
  31
0.00
  0
LINE
  8
LEG
  10
483.48
  20
-495.45
  30
0.00
  11
538.26
  21
-553.51
  31
0.00
  0
LINE
  8
LEG
  10
169.41
  20
-371.27
  30
0.00
  11
64.75
  21
-392.60
  31
0.00
  0
LINE
  8
LEG
  10
64.75
  20
-392.60
  30
0.00
  11
42.75
  21
-206.67
  31
0.00
  0
LINE
  8
SPLAY
  10
100.00
  20
-120.00
  30
0.00
  11
104.80
  21
-119.93
  31
0.00
  0
LINE
  8
SPLAY
  10
100.00
  20
-120.00
  30
0.00
  11
173.72
  21
-121.77
  31
0.00
  0
LINE
  8
SPLAY
  10
100.00
  20
-120.00
  30
0.00
  11
172.57
  21
-123.57
  31
0.00
  0
LINE
  8
SPLAY
  10
100.00
  20
-120.00
  30
0.00
  11
34.45
  21
-124.41
  31
0.00
  0
LINE
  8
SPLAY
  10
100.00
  20
-120.00
  30
0.00
  11
26.54
  21
-126.23
  31
0.00
  0
LINE
  8
SPLAY
  10
100.00
  20
-120.00
  30
0.00
  11
62.93
  21
-124.84
  31
0.00
  0
LINE
  8
SPLAY
  10
100.00
  20
-120.00
  30
0.00
  11
64.55
  21
-129.63
  31
0.00
  0
LINE
  8
SPLAY
  10
100.00
  20
-120.00
  30
0.00
  11
82.03
  21
-125.86
  31
0.00
  0
LINE
  8
SPLAY
  10
100.00
  20
-120.00
  30
0.00
  11
87.61
  21
-139.30
  31
0.00
  0
LINE
  8
SPLAY
  10
12.02
  20
-228.80
  30
0.00
  11
29.25
  21
-238.63
  31
0.00
  0
LINE
  8
SPLAY
  10
12.02
  20
-228.80
  30
0.00
  11
50.39
  21
-242.79
  31
0.00
  0
LINE
  8
SPLAY
  10
12.02
  20
-228.80
  30
0.00
  11
112.33
  21
-202.28
  31
0.00
  0
LINE
  8
SPLAY
  10
12.02
  20
-228.80
  30
0.00
  11
-58.53
  21
-212.00
  31
0.00
  0
LINE
  8
SPLAY
  10
12.02
  20
-228.80
  30
0.00
  11
-57.09
  21
-226.50
  31
0.00
  0
LINE
  8
SPLAY
  10
12.02
  20
-228.80
  30
0.00
  11
-72.64
  21
-222.92
  31
0.00
  0
LINE
  8
SPLAY
  10
12.02
  20
-228.80
  30
0.00
  11
-81.66
  21
-207.54
  31
0.00
  0
LINE
  8
SPLAY
  10
12.02
  20
-228.80
  30
0.00
  11
-57.35
  21
-215.01
  31
0.00
  0
LINE
  8
SPLAY
  10
12.02
  20
-228.80
  30
0.00
  11
-54.11
  21
-220.39
  31
0.00
  0
LINE
  8
SPLAY
  10
12.02
  20
-228.80
  30
0.00
  11
-51.16
  21
-232.84
  31
0.00
  0
LINE
  8
SPLAY
  10
12.02
  20
-228.80
  30
0.00
  11
-31.56
  21
-233.43
  31
0.00
  0
LINE
  8
SPLAY
  10
12.02
  20
-228.80
  30
0.00
  11
28.16
  21
-230.70
  31
0.00
  0
LINE
  8
SPLAY
  10
12.02
  20
-228.80
  30
0.00
  11
28.88
  21
-230.40
  31
0.00
  0
LINE
  8
SPLAY
  10
12.02
  20
-228.80
  30
0.00
  11
-31.62
  21
-230.15
  31
0.00
  0
LINE
  8
SPLAY
  10
12.02
  20
-228.80
  30
0.00
  11
84.35
  21
-305.41
  31
0.00
  0
LINE
  8
SPLAY
  10
12.02
  20
-228.80
  30
0.00
  11
62.89
  21
-283.67
  31
0.00
  0
LINE
  8
SPLAY
  10
12.02
  20
-228.80
  30
0.00
  11
68.86
  21
-294.96
  31
0.00
  0
LINE
  8
SPLAY
  10
12.02
  20
-228.80
  30
0.00
  11
71.80
  21
-306.25
  31
0.00
  0
LINE
  8
SPLAY
  10
12.02
  20
-228.80
  30
0.00
  11
62.42
  21
-305.29
  31
0.00
  0
LINE
  8
SPLAY
  10
12.02
  20
-228.80
  30
0.00
  11
53.37
  21
-300.88
  31
0.00
  0
LINE
  8
SPLAY
  10
12.02
  20
-228.80
  30
0.00
  11
37.65
  21
-279.82
  31
0.00
  0
LINE
  8
SPLAY
  10
12.02
  20
-228.80
  30
0.00
  11
49.31
  21
-277.33
  31
0.00
  0
LINE
  8
SPLAY
  10
12.02
  20
-228.80
  30
0.00
  11
38.44
  21
-282.47
  31
0.00
  0
LINE
  8
SPLAY
  10
12.02
  20
-228.80
  30
0.00
  11
87.97
  21
-334.33
  31
0.00
  0
LINE
  8
SPLAY
  10
169.41
  20
-371.27
  30
0.00
  11
197.27
  21
-375.86
  31
0.00
  0
LINE
  8
SPLAY
  10
169.41
  20
-371.27
  30
0.00
  11
118.45
  21
-371.53
  31
0.00
  0
LINE
  8
SPLAY
  10
169.41
  20
-371.27
  30
0.00
  11
94.09
  21
-366.08
  31
0.00
  0
LINE
  8
SPLAY
  10
169.41
  20
-371.27
  30
0.00
  11
124.11
  21
-358.24
  31
0.00
  0
LINE
  8
SPLAY
  10
169.41
  20
-371.27
  30
0.00
  11
119.34
  21
-348.22
  31
0.00
  0
LINE
  8
SPLAY
  10
169.41
  20
-371.27
  30
0.00
  11
95.34
  21
-350.16
  31
0.00
  0
LINE
  8
SPLAY
  10
169.41
  20
-371.27
  30
0.00
  11
89.73
  21
-357.15
  31
0.00
  0
LINE
  8
SPLAY
  10
169.41
  20
-371.27
  30
0.00
  11
64.87
  21
-373.43
  31
0.00
  0
LINE
  8
SPLAY
  10
169.41
  20
-371.27
  30
0.00
  11
63.22
  21
-385.33
  31
0.00
  0
LINE
  8
SPLAY
  10
169.41
  20
-371.27
  30
0.00
  11
62.08
  21
-385.58
  31
0.00
  0
LINE
  8
SPLAY
  10
169.41
  20
-371.27
  30
0.00
  11
120.03
  21
-381.04
  31
0.00
  0
LINE
  8
SPLAY
  10
169.41
  20
-371.27
  30
0.00
  11
118.77
  21
-390.43
  31
0.00
  0
LINE
  8
SPLAY
  10
169.41
  20
-371.27
  30
0.00
  11
198.38
  21
-384.58
  31
0.00
  0
LINE
  8
SPLAY
  10
169.41
  20
-371.27
  30
0.00
  11
198.71
  21
-386.54
  31
0.00
  0
LINE
  8
SPLAY
  10
169.41
  20
-371.27
  30
0.00
  11
200.52
  21
-385.03
  31
0.00
  0
LINE
  8
SPLAY
  10
240.14
  20
-415.79
  30
0.00
  11
181.67
  21
-396.40
  31
0.00
  0
LINE
  8
SPLAY
  10
240.14
  20
-415.79
  30
0.00
  11
177.04
  21
-391.83
  31
0.00
  0
LINE
  8
SPLAY
  10
240.14
  20
-415.79
  30
0.00
  11
287.52
  21
-398.26
  31
0.00
  0
LINE
  8
SPLAY
  10
240.14
  20
-415.79
  30
0.00
  11
318.33
  21
-409.29
  31
0.00
  0
LINE
  8
SPLAY
  10
240.14
  20
-415.79
  30
0.00
  11
358.16
  21
-409.95
  31
0.00
  0
LINE
  8
SPLAY
  10
240.14
  20
-415.79
  30
0.00
  11
373.90
  21
-414.77
  31
0.00
  0
LINE
  8
SPLAY
  10
240.14
  20
-415.79
  30
0.00
  11
345.21
  21
-417.08
  31
0.00
  0
LINE
  8
SPLAY
  10
240.14
  20
-415.79
  30
0.00
  11
322.60
  21
-411.39
  31
0.00
  0
LINE
  8
SPLAY
  10
240.14
  20
-415.79
  30
0.00
  11
156.10
  21
-403.21
  31
0.00
  0
LINE
  8
SPLAY
  10
240.14
  20
-415.79
  30
0.00
  11
201.57
  21
-396.21
  31
0.00
  0
LINE
  8
SPLAY
  10
240.14
  20
-415.79
  30
0.00
  11
213.05
  21
-391.66
  31
0.00
  0
LINE
  8
SPLAY
  10
240.14
  20
-415.79
  30
0.00
  11
213.21
  21
-392.45
  31
0.00
  0
LINE
  8
SPLAY
  10
422.94
  20
-440.95
  30
0.00
  11
358.55
  21
-430.97
  31
0.00
  0
LINE
  8
SPLAY
  10
422.94
  20
-440.95
  30
0.00
  11
471.79
  21
-437.74
  31
0.00
  0
LINE
  8
SPLAY
  10
422.94
  20
-440.95
  30
0.00
  11
470.96
  21
-439.66
  31
0.00
  0
LINE
  8
SPLAY
  10
422.94
  20
-440.95
  30
0.00
  11
478.41
  21
-443.71
  31
0.00
  0
LINE
  8
SPLAY
  10
422.94
  20
-440.95
  30
0.00
  11
481.20
  21
-456.97
  31
0.00
  0
LINE
  8
SPLAY
  10
422.94
  20
-440.95
  30
0.00
  11
493.01
  21
-450.36
  31
0.00
  0
LINE
  8
SPLAY
  10
422.94
  20
-440.95
  30
0.00
  11
481.68
  21
-433.75
  31
0.00
  0
LINE
  8
SPLAY
  10
422.94
  20
-440.95
  30
0.00
  11
467.54
  21
-424.79
  31
0.00
  0
LINE
  8
SPLAY
  10
422.94
  20
-440.95
  30
0.00
  11
394.81
  21
-429.81
  31
0.00
  0
LINE
  8
SPLAY
  10
422.94
  20
-440.95
  30
0.00
  11
379.81
  21
-427.02
  31
0.00
  0
LINE
  8
SPLAY
  10
422.94
  20
-440.95
  30
0.00
  11
369.51
  21
-423.99
  31
0.00
  0
LINE
  8
SPLAY
  10
485.37
  20
-463.14
  30
0.00
  11
509.62
  21
-477.60
  31
0.00
  0
LINE
  8
SPLAY
  10
485.37
  20
-463.14
  30
0.00
  11
501.77
  21
-466.36
  31
0.00
  0
LINE
  8
SPLAY
  10
485.37
  20
-463.14
  30
0.00
  11
470.46
  21
-460.85
  31
0.00
  0
LINE
  8
SPLAY
  10
485.37
  20
-463.14
  30
0.00
  11
466.26
  21
-465.39
  31
0.00
  0
LINE
  8
SPLAY
  10
485.37
  20
-463.14
  30
0.00
  11
499.68
  21
-472.56
  31
0.00
  0
LINE
  8
SPLAY
  10
485.37
  20
-463.14
  30
0.00
  11
509.53
  21
-481.45
  31
0.00
  0
LINE
  8
SPLAY
  10
485.37
  20
-463.14
  30
0.00
  11
515.30
  21
-485.66
  31
0.00
  0
LINE
  8
SPLAY
  10
526.79
  20
-502.79
  30
0.00
  11
506.87
  21
-501.16
  31
0.00
  0
LINE
  8
SPLAY
  10
526.79
  20
-502.79
  30
0.00
  11
510.63
  21
-500.66
  31
0.00
  0
LINE
  8
SPLAY
  10
526.79
  20
-502.79
  30
0.00
  11
510.82
  21
-497.75
  31
0.00
  0
LINE
  8
SPLAY
  10
526.79
  20
-502.79
  30
0.00
  11
517.07
  21
-502.12
  31
0.00
  0
LINE
  8
SPLAY
  10
526.79
  20
-502.79
  30
0.00
  11
533.45
  21
-500.28
  31
0.00
  0
LINE
  8
SPLAY
  10
619.19
  20
-495.09
  30
0.00
  11
531.08
  21
-504.60
  31
0.00
  0
LINE
  8
SPLAY
  10
619.19
  20
-495.09
  30
0.00
  11
553.80
  21
-505.02
  31
0.00
  0
LINE
  8
SPLAY
  10
619.19
  20
-495.09
  30
0.00
  11
652.68
  21
-505.74
  31
0.00
  0
LINE
  8
SPLAY
  10
619.19
  20
-495.09
  30
0.00
  11
661.56
  21
-503.10
  31
0.00
  0
LINE
  8
SPLAY
  10
619.19
  20
-495.09
  30
0.00
  11
681.70
  21
-506.94
  31
0.00
  0
LINE
  8
SPLAY
  10
619.19
  20
-495.09
  30
0.00
  11
702.36
  21
-508.08
  31
0.00
  0
LINE
  8
SPLAY
  10
619.19
  20
-495.09
  30
0.00
  11
567.45
  21
-498.65
  31
0.00
  0
LINE
  8
SPLAY
  10
619.19
  20
-495.09
  30
0.00
  11
573.29
  21
-490.00
  31
0.00
  0
LINE
  8
SPLAY
  10
619.19
  20
-495.09
  30
0.00
  11
569.80
  21
-489.23
  31
0.00
  0
LINE
  8
SPLAY
  10
619.19
  20
-495.09
  30
0.00
  11
603.47
  21
-494.38
  31
0.00
  0
LINE
  8
SPLAY
  10
619.19
  20
-495.09
  30
0.00
  11
648.20
  21
-497.11
  31
0.00
  0
LINE
  8
SPLAY
  10
619.19
  20
-495.09
  30
0.00
  11
683.24
  21
-502.36
  31
0.00
  0
LINE
  8
SPLAY
  10
619.19
  20
-495.09
  30
0.00
  11
690.46
  21
-509.01
  31
0.00
  0
LINE
  8
SPLAY
  10
727.49
  20
-519.95
  30
0.00
  11
735.18
  21
-519.19
  31
0.00
  0
LINE
  8
SPLAY
  10
727.49
  20
-519.95
  30
0.00
  11
709.53
  21
-517.59
  31
0.00
  0
LINE
  8
SPLAY
  10
727.49
  20
-519.95
  30
0.00
  11
704.83
  21
-515.71
  31
0.00
  0
LINE
  8
SPLAY
  10
727.49
  20
-519.95
  30
0.00
  11
764.01
  21
-524.68
  31
0.00
  0
LINE
  8
SPLAY
  10
727.49
  20
-519.95
  30
0.00
  11
759.44
  21
-524.12
  31
0.00
  0
LINE
  8
SPLAY
  10
727.49
  20
-519.95
  30
0.00
  11
684.44
  21
-521.34
  31
0.00
  0
LINE
  8
SPLAY
  10
727.49
  20
-519.95
  30
0.00
  11
684.02
  21
-519.02
  31
0.00
  0
LINE
  8
SPLAY
  10
794.61
  20
-503.47
  30
0.00
  11
753.95
  21
-509.33
  31
0.00
  0
LINE
  8
SPLAY
  10
794.61
  20
-503.47
  30
0.00
  11
826.84
  21
-505.40
  31
0.00
  0
LINE
  8
SPLAY
  10
794.61
  20
-503.47
  30
0.00
  11
859.23
  21
-497.80
  31
0.00
  0
LINE
  8
SPLAY
  10
794.61
  20
-503.47
  30
0.00
  11
973.53
  21
-487.61
  31
0.00
  0
LINE
  8
SPLAY
  10
794.61
  20
-503.47
  30
0.00
  11
938.62
  21
-475.90
  31
0.00
  0
LINE
  8
SPLAY
  10
794.61
  20
-503.47
  30
0.00
  11
936.04
  21
-464.34
  31
0.00
  0
LINE
  8
SPLAY
  10
794.61
  20
-503.47
  30
0.00
  11
943.22
  21
-473.82
  31
0.00
  0
LINE
  8
SPLAY
  10
794.61
  20
-503.47
  30
0.00
  11
972.57
  21
-479.80
  31
0.00
  0
LINE
  8
SPLAY
  10
794.61
  20
-503.47
  30
0.00
  11
951.41
  21
-485.32
  31
0.00
  0
LINE
  8
SPLAY
  10
794.61
  20
-503.47
  30
0.00
  11
931.89
  21
-502.66
  31
0.00
  0
LINE
  8
SPLAY
  10
794.61
  20
-503.47
  30
0.00
  11
922.82
  21
-497.96
  31
0.00
  0
LINE
  8
SPLAY
  10
794.61
  20
-503.47
  30
0.00
  11
896.08
  21
-513.10
  31
0.00
  0
LINE
  8
SPLAY
  10
794.61
  20
-503.47
  30
0.00
  11
855.80
  21
-504.80
  31
0.00
  0
LINE
  8
SPLAY
  10
794.61
  20
-503.47
  30
0.00
  11
762.73
  21
-498.96
  31
0.00
  0
LINE
  8
SPLAY
  10
794.61
  20
-503.47
  30
0.00
  11
759.87
  21
-492.76
  31
0.00
  0
LINE
  8
SPLAY
  10
794.61
  20
-503.47
  30
0.00
  11
741.69
  21
-492.25
  31
0.00
  0
LINE
  8
SPLAY
  10
794.61
  20
-503.47
  30
0.00
  11
733.90
  21
-507.36
  31
0.00
  0
LINE
  8
SPLAY
  10
794.61
  20
-503.47
  30
0.00
  11
846.97
  21
-407.29
  31
0.00
  0
LINE
  8
SPLAY
  10
794.61
  20
-503.47
  30
0.00
  11
848.64
  21
-430.21
  31
0.00
  0
LINE
  8
SPLAY
  10
794.61
  20
-503.47
  30
0.00
  11
836.64
  21
-391.75
  31
0.00
  0
LINE
  8
SPLAY
  10
794.61
  20
-503.47
  30
0.00
  11
844.38
  21
-447.63
  31
0.00
  0
LINE
  8
SPLAY
  10
794.61
  20
-503.47
  30
0.00
  11
792.74
  21
-465.05
  31
0.00
  0
LINE
  8
SPLAY
  10
794.61
  20
-503.47
  30
0.00
  11
1022.61
  21
-429.55
  31
0.00
  0
LINE
  8
SPLAY
  10
794.61
  20
-503.47
  30
0.00
  11
1030.39
  21
-428.52
  31
0.00
  0
LINE
  8
SPLAY
  10
794.61
  20
-503.47
  30
0.00
  11
1017.44
  21
-433.41
  31
0.00
  0
LINE
  8
SPLAY
  10
794.61
  20
-503.47
  30
0.00
  11
983.45
  21
-443.86
  31
0.00
  0
LINE
  8
SPLAY
  10
874.17
  20
-499.85
  30
0.00
  11
944.26
  21
-482.18
  31
0.00
  0
LINE
  8
SPLAY
  10
874.17
  20
-499.85
  30
0.00
  11
967.14
  21
-486.25
  31
0.00
  0
LINE
  8
SPLAY
  10
874.17
  20
-499.85
  30
0.00
  11
963.15
  21
-496.10
  31
0.00
  0
LINE
  8
SPLAY
  10
874.17
  20
-499.85
  30
0.00
  11
966.26
  21
-501.07
  31
0.00
  0
LINE
  8
SPLAY
  10
874.17
  20
-499.85
  30
0.00
  11
824.91
  21
-502.89
  31
0.00
  0
LINE
  8
SPLAY
  10
874.17
  20
-499.85
  30
0.00
  11
854.32
  21
-498.19
  31
0.00
  0
LINE
  8
SPLAY
  10
874.17
  20
-499.85
  30
0.00
  11
827.98
  21
-499.25
  31
0.00
  0
LINE
  8
SPLAY
  10
974.80
  20
-509.89
  30
0.00
  11
1011.59
  21
-464.23
  31
0.00
  0
LINE
  8
SPLAY
  10
974.80
  20
-509.89
  30
0.00
  11
982.30
  21
-461.67
  31
0.00
  0
LINE
  8
SPLAY
  10
974.80
  20
-509.89
  30
0.00
  11
953.91
  21
-459.36
  31
0.00
  0
LINE
  8
SPLAY
  10
974.80
  20
-509.89
  30
0.00
  11
918.56
  21
-479.27
  31
0.00
  0
LINE
  8
SPLAY
  10
974.80
  20
-509.89
  30
0.00
  11
906.08
  21
-508.02
  31
0.00
  0
LINE
  8
SPLAY
  10
925.30
  20
-508.13
  30
0.00
  11
874.67
  21
-551.97
  31
0.00
  0
LINE
  8
SPLAY
  10
925.30
  20
-508.13
  30
0.00
  11
878.04
  21
-534.78
  31
0.00
  0
LINE
  8
SPLAY
  10
925.30
  20
-508.13
  30
0.00
  11
862.16
  21
-521.98
  31
0.00
  0
LINE
  8
SPLAY
  10
925.30
  20
-508.13
  30
0.00
  11
865.84
  21
-521.19
  31
0.00
  0
LINE
  8
SPLAY
  10
925.30
  20
-508.13
  30
0.00
  11
848.56
  21
-511.11
  31
0.00
  0
LINE
  8
SPLAY
  10
925.30
  20
-508.13
  30
0.00
  11
834.36
  21
-502.44
  31
0.00
  0
LINE
  8
SPLAY
  10
925.30
  20
-508.13
  30
0.00
  11
890.51
  21
-536.23
  31
0.00
  0
LINE
  8
SPLAY
  10
925.30
  20
-508.13
  30
0.00
  11
913.42
  21
-521.67
  31
0.00
  0
LINE
  8
SPLAY
  10
925.30
  20
-508.13
  30
0.00
  11
935.56
  21
-511.18
  31
0.00
  0
LINE
  8
SPLAY
  10
925.30
  20
-508.13
  30
0.00
  11
952.21
  21
-505.49
  31
0.00
  0
LINE
  8
SPLAY
  10
925.30
  20
-508.13
  30
0.00
  11
968.06
  21
-515.78
  31
0.00
  0
LINE
  8
SPLAY
  10
925.30
  20
-508.13
  30
0.00
  11
971.74
  21
-511.98
  31
0.00
  0
LINE
  8
SPLAY
  10
925.30
  20
-508.13
  30
0.00
  11
977.28
  21
-508.63
  31
0.00
  0
LINE
  8
SPLAY
  10
700.45
  20
-595.79
  30
0.00
  11
683.22
  21
-591.74
  31
0.00
  0
LINE
  8
SPLAY
  10
700.45
  20
-595.79
  30
0.00
  11
664.13
  21
-591.41
  31
0.00
  0
LINE
  8
SPLAY
  10
700.45
  20
-595.79
  30
0.00
  11
758.28
  21
-595.32
  31
0.00
  0
LINE
  8
SPLAY
  10
700.45
  20
-595.79
  30
0.00
  11
798.40
  21
-606.52
  31
0.00
  0
LINE
  8
SPLAY
  10
700.45
  20
-595.79
  30
0.00
  11
797.79
  21
-577.42
  31
0.00
  0
LINE
  8
SPLAY
  10
700.45
  20
-595.79
  30
0.00
  11
743.29
  21
-584.31
  31
0.00
  0
LINE
  8
SPLAY
  10
700.45
  20
-595.79
  30
0.00
  11
729.44
  21
-585.22
  31
0.00
  0
LINE
  8
SPLAY
  10
700.45
  20
-595.79
  30
0.00
  11
720.74
  21
-579.70
  31
0.00
  0
LINE
  8
SPLAY
  10
587.10
  20
-518.46
  30
0.00
  11
533.39
  21
-565.65
  31
0.00
  0
LINE
  8
SPLAY
  10
587.10
  20
-518.46
  30
0.00
  11
558.66
  21
-539.40
  31
0.00
  0
LINE
  8
SPLAY
  10
587.10
  20
-518.46
  30
0.00
  11
551.28
  21
-542.35
  31
0.00
  0
LINE
  8
SPLAY
  10
587.10
  20
-518.46
  30
0.00
  11
556.52
  21
-523.78
  31
0.00
  0
LINE
  8
SPLAY
  10
587.10
  20
-518.46
  30
0.00
  11
653.40
  21
-516.79
  31
0.00
  0
LINE
  8
SPLAY
  10
587.10
  20
-518.46
  30
0.00
  11
646.62
  21
-517.63
  31
0.00
  0
LINE
  8
SPLAY
  10
587.10
  20
-518.46
  30
0.00
  11
686.16
  21
-538.39
  31
0.00
  0
LINE
  8
SPLAY
  10
587.10
  20
-518.46
  30
0.00
  11
685.22
  21
-558.68
  31
0.00
  0
LINE
  8
SPLAY
  10
587.10
  20
-518.46
  30
0.00
  11
635.25
  21
-563.11
  31
0.00
  0
LINE
  8
SPLAY
  10
587.10
  20
-518.46
  30
0.00
  11
632.76
  21
-550.90
  31
0.00
  0
LINE
  8
SPLAY
  10
587.10
  20
-518.46
  30
0.00
  11
646.93
  21
-543.41
  31
0.00
  0
LINE
  8
SPLAY
  10
587.10
  20
-518.46
  30
0.00
  11
697.52
  21
-567.61
  31
0.00
  0
LINE
  8
SPLAY
  10
587.10
  20
-518.46
  30
0.00
  11
704.67
  21
-576.35
  31
0.00
  0
LINE
  8
SPLAY
  10
488.88
  20
-605.91
  30
0.00
  11
460.77
  21
-609.82
  31
0.00
  0
LINE
  8
SPLAY
  10
488.88
  20
-605.91
  30
0.00
  11
433.88
  21
-627.25
  31
0.00
  0
LINE
  8
SPLAY
  10
992.82
  20
-447.08
  30
0.00
  11
1029.24
  21
-432.10
  31
0.00
  0
LINE
  8
SPLAY
  10
992.82
  20
-447.08
  30
0.00
  11
1014.10
  21
-423.72
  31
0.00
  0
LINE
  8
SPLAY
  10
992.82
  20
-447.08
  30
0.00
  11
1036.96
  21
-428.47
  31
0.00
  0
LINE
  8
SPLAY
  10
992.82
  20
-447.08
  30
0.00
  11
945.74
  21
-435.26
  31
0.00
  0
LINE
  8
SPLAY
  10
992.82
  20
-447.08
  30
0.00
  11
944.10
  21
-430.51
  31
0.00
  0
LINE
  8
SPLAY
  10
1042.63
  20
-551.49
  30
0.00
  11
943.12
  21
-538.11
  31
0.00
  0
LINE
  8
SPLAY
  10
1042.63
  20
-551.49
  30
0.00
  11
999.41
  21
-550.86
  31
0.00
  0
LINE
  8
SPLAY
  10
1042.63
  20
-551.49
  30
0.00
  11
1010.30
  21
-554.19
  31
0.00
  0
LINE
  8
SPLAY
  10
1042.63
  20
-551.49
  30
0.00
  11
1003.04
  21
-555.97
  31
0.00
  0
LINE
  8
SPLAY
  10
1042.63
  20
-551.49
  30
0.00
  11
1141.38
  21
-573.59
  31
0.00
  0
LINE
  8
SPLAY
  10
1042.63
  20
-551.49
  30
0.00
  11
1213.15
  21
-589.20
  31
0.00
  0
LINE
  8
SPLAY
  10
1042.63
  20
-551.49
  30
0.00
  11
963.85
  21
-524.54
  31
0.00
  0
LINE
  8
SPLAY
  10
1042.63
  20
-551.49
  30
0.00
  11
1108.15
  21
-527.53
  31
0.00
  0
LINE
  8
SPLAY
  10
1042.63
  20
-551.49
  30
0.00
  11
1108.11
  21
-528.20
  31
0.00
  0
LINE
  8
SPLAY
  10
1042.63
  20
-551.49
  30
0.00
  11
1070.80
  21
-538.94
  31
0.00
  0
LINE
  8
SPLAY
  10
1042.63
  20
-551.49
  30
0.00
  11
1069.51
  21
-543.57
  31
0.00
  0
LINE
  8
SPLAY
  10
1042.63
  20
-551.49
  30
0.00
  11
1104.11
  21
-540.06
  31
0.00
  0
LINE
  8
SPLAY
  10
1042.63
  20
-551.49
  30
0.00
  11
1199.89
  21
-551.83
  31
0.00
  0
LINE
  8
SPLAY
  10
1195.32
  20
-601.49
  30
0.00
  11
1107.68
  21
-584.13
  31
0.00
  0
LINE
  8
SPLAY
  10
1195.32
  20
-601.49
  30
0.00
  11
1168.72
  21
-597.09
  31
0.00
  0
LINE
  8
SPLAY
  10
1195.32
  20
-601.49
  30
0.00
  11
1063.16
  21
-564.21
  31
0.00
  0
LINE
  8
SPLAY
  10
1195.32
  20
-601.49
  30
0.00
  11
1044.90
  21
-563.02
  31
0.00
  0
LINE
  8
SPLAY
  10
1195.32
  20
-601.49
  30
0.00
  11
1122.86
  21
-587.19
  31
0.00
  0
LINE
  8
SPLAY
  10
1195.32
  20
-601.49
  30
0.00
  11
1121.44
  21
-596.65
  31
0.00
  0
LINE
  8
SPLAY
  10
1195.32
  20
-601.49
  30
0.00
  11
1241.85
  21
-586.91
  31
0.00
  0
LINE
  8
SPLAY
  10
1195.32
  20
-601.49
  30
0.00
  11
1293.71
  21
-554.68
  31
0.00
  0
LINE
  8
SPLAY
  10
1195.32
  20
-601.49
  30
0.00
  11
1423.45
  21
-482.49
  31
0.00
  0
LINE
  8
SPLAY
  10
1195.32
  20
-601.49
  30
0.00
  11
1319.73
  21
-544.07
  31
0.00
  0
LINE
  8
SPLAY
  10
1195.32
  20
-601.49
  30
0.00
  11
1320.44
  21
-581.02
  31
0.00
  0
LINE
  8
SPLAY
  10
1195.32
  20
-601.49
  30
0.00
  11
1047.21
  21
-521.48
  31
0.00
  0
LINE
  8
SPLAY
  10
1195.32
  20
-601.49
  30
0.00
  11
1096.11
  21
-504.45
  31
0.00
  0
LINE
  8
SPLAY
  10
1195.32
  20
-601.49
  30
0.00
  11
1141.64
  21
-383.81
  31
0.00
  0
LINE
  8
SPLAY
  10
1195.32
  20
-601.49
  30
0.00
  11
1059.26
  21
-294.07
  31
0.00
  0
LINE
  8
SPLAY
  10
1195.32
  20
-601.49
  30
0.00
  11
1160.22
  21
-308.08
  31
0.00
  0
LINE
  8
SPLAY
  10
1258.58
  20
-622.63
  30
0.00
  11
1305.93
  21
-767.97
  31
0.00
  0
LINE
  8
SPLAY
  10
1258.58
  20
-622.63
  30
0.00
  11
1157.39
  21
-770.24
  31
0.00
  0
LINE
  8
SPLAY
  10
1258.58
  20
-622.63
  30
0.00
  11
1137.12
  21
-778.82
  31
0.00
  0
LINE
  8
SPLAY
  10
1258.58
  20
-622.63
  30
0.00
  11
1182.20
  21
-734.50
  31
0.00
  0
LINE
  8
SPLAY
  10
1347.70
  20
-519.64
  30
0.00
  11
1371.08
  21
-519.30
  31
0.00
  0
LINE
  8
SPLAY
  10
1347.70
  20
-519.64
  30
0.00
  11
1399.06
  21
-516.72
  31
0.00
  0
LINE
  8
SPLAY
  10
1347.70
  20
-519.64
  30
0.00
  11
1320.59
  21
-490.01
  31
0.00
  0
LINE
  8
SPLAY
  10
1347.70
  20
-519.64
  30
0.00
  11
1405.02
  21
-486.71
  31
0.00
  0
LINE
  8
SPLAY
  10
1419.96
  20
-511.09
  30
0.00
  11
1390.05
  21
-518.22
  31
0.00
  0
LINE
  8
SPLAY
  10
1419.96
  20
-511.09
  30
0.00
  11
1396.16
  21
-511.11
  31
0.00
  0
LINE
  8
SPLAY
  10
1419.96
  20
-511.09
  30
0.00
  11
1448.72
  21
-506.07
  31
0.00
  0
LINE
  8
SPLAY
  10
1419.96
  20
-511.09
  30
0.00
  11
1482.97
  21
-494.26
  31
0.00
  0
LINE
  8
SPLAY
  10
1419.96
  20
-511.09
  30
0.00
  11
1486.79
  21
-498.14
  31
0.00
  0
LINE
  8
SPLAY
  10
1419.96
  20
-511.09
  30
0.00
  11
1349.41
  21
-498.05
  31
0.00
  0
LINE
  8
SPLAY
  10
1419.96
  20
-511.09
  30
0.00
  11
1348.80
  21
-494.79
  31
0.00
  0
LINE
  8
SPLAY
  10
1419.96
  20
-511.09
  30
0.00
  11
1378.88
  21
-502.25
  31
0.00
  0
LINE
  8
SPLAY
  10
1419.96
  20
-511.09
  30
0.00
  11
1379.98
  21
-513.00
  31
0.00
  0
LINE
  8
SPLAY
  10
1419.96
  20
-511.09
  30
0.00
  11
1469.30
  21
-521.47
  31
0.00
  0
LINE
  8
SPLAY
  10
1419.96
  20
-511.09
  30
0.00
  11
1490.24
  21
-521.26
  31
0.00
  0
LINE
  8
SPLAY
  10
1490.98
  20
-518.43
  30
0.00
  11
1467.81
  21
-508.97
  31
0.00
  0
LINE
  8
SPLAY
  10
1490.98
  20
-518.43
  30
0.00
  11
1518.98
  21
-494.89
  31
0.00
  0
LINE
  8
SPLAY
  10
1490.98
  20
-518.43
  30
0.00
  11
1539.21
  21
-495.79
  31
0.00
  0
LINE
  8
SPLAY
  10
1490.98
  20
-518.43
  30
0.00
  11
1537.72
  21
-490.59
  31
0.00
  0
LINE
  8
SPLAY
  10
1586.21
  20
-473.22
  30
0.00
  11
1529.30
  21
-459.75
  31
0.00
  0
LINE
  8
SPLAY
  10
1586.21
  20
-473.22
  30
0.00
  11
1537.53
  21
-449.57
  31
0.00
  0
LINE
  8
SPLAY
  10
1586.21
  20
-473.22
  30
0.00
  11
1518.74
  21
-431.89
  31
0.00
  0
LINE
  8
SPLAY
  10
1586.21
  20
-473.22
  30
0.00
  11
1648.81
  21
-431.78
  31
0.00
  0
LINE
  8
SPLAY
  10
1586.21
  20
-473.22
  30
0.00
  11
1670.18
  21
-429.13
  31
0.00
  0
LINE
  8
SPLAY
  10
1586.21
  20
-473.22
  30
0.00
  11
1671.29
  21
-435.61
  31
0.00
  0
LINE
  8
SPLAY
  10
1586.21
  20
-473.22
  30
0.00
  11
1534.12
  21
-480.69
  31
0.00
  0
LINE
  8
SPLAY
  10
1586.21
  20
-473.22
  30
0.00
  11
1652.66
  21
-447.20
  31
0.00
  0
LINE
  8
SPLAY
  10
1586.21
  20
-473.22
  30
0.00
  11
1663.56
  21
-431.76
  31
0.00
  0
LINE
  8
SPLAY
  10
1586.21
  20
-473.22
  30
0.00
  11
1635.87
  21
-456.14
  31
0.00
  0
LINE
  8
SPLAY
  10
1672.79
  20
-446.35
  30
0.00
  11
1727.17
  21
-438.36
  31
0.00
  0
LINE
  8
SPLAY
  10
1672.79
  20
-446.35
  30
0.00
  11
1716.43
  21
-433.54
  31
0.00
  0
LINE
  8
SPLAY
  10
1672.79
  20
-446.35
  30
0.00
  11
1729.68
  21
-435.81
  31
0.00
  0
LINE
  8
SPLAY
  10
1672.79
  20
-446.35
  30
0.00
  11
1704.89
  21
-427.79
  31
0.00
  0
LINE
  8
SPLAY
  10
1783.73
  20
-432.58
  30
0.00
  11
1807.38
  21
-435.38
  31
0.00
  0
LINE
  8
SPLAY
  10
1783.73
  20
-432.58
  30
0.00
  11
1809.73
  21
-435.03
  31
0.00
  0
LINE
  8
SPLAY
  10
1783.73
  20
-432.58
  30
0.00
  11
1854.59
  21
-427.09
  31
0.00
  0
LINE
  8
SPLAY
  10
1783.73
  20
-432.58
  30
0.00
  11
1856.52
  21
-411.29
  31
0.00
  0
LINE
  8
SPLAY
  10
1783.73
  20
-432.58
  30
0.00
  11
1859.98
  21
-404.11
  31
0.00
  0
LINE
  8
SPLAY
  10
1783.73
  20
-432.58
  30
0.00
  11
1866.12
  21
-404.77
  31
0.00
  0
LINE
  8
SPLAY
  10
1783.73
  20
-432.58
  30
0.00
  11
1850.34
  21
-417.68
  31
0.00
  0
LINE
  8
SPLAY
  10
1783.73
  20
-432.58
  30
0.00
  11
1823.57
  21
-432.69
  31
0.00
  0
LINE
  8
SPLAY
  10
1872.92
  20
-395.77
  30
0.00
  11
1854.01
  21
-398.86
  31
0.00
  0
LINE
  8
SPLAY
  10
1872.92
  20
-395.77
  30
0.00
  11
1865.44
  21
-395.93
  31
0.00
  0
LINE
  8
SPLAY
  10
1872.92
  20
-395.77
  30
0.00
  11
1909.37
  21
-382.75
  31
0.00
  0
LINE
  8
SPLAY
  10
1872.92
  20
-395.77
  30
0.00
  11
1936.81
  21
-363.10
  31
0.00
  0
LINE
  8
SPLAY
  10
1872.92
  20
-395.77
  30
0.00
  11
1890.10
  21
-381.43
  31
0.00
  0
LINE
  8
SPLAY
  10
1872.92
  20
-395.77
  30
0.00
  11
1921.94
  21
-359.52
  31
0.00
  0
LINE
  8
SPLAY
  10
1872.92
  20
-395.77
  30
0.00
  11
1921.05
  21
-359.11
  31
0.00
  0
LINE
  8
SPLAY
  10
1925.40
  20
-371.24
  30
0.00
  11
1938.24
  21
-373.41
  31
0.00
  0
LINE
  8
SPLAY
  10
1925.40
  20
-371.24
  30
0.00
  11
1944.35
  21
-366.41
  31
0.00
  0
LINE
  8
SPLAY
  10
1925.40
  20
-371.24
  30
0.00
  11
1882.24
  21
-357.28
  31
0.00
  0
LINE
  8
SPLAY
  10
1925.40
  20
-371.24
  30
0.00
  11
1867.52
  21
-348.84
  31
0.00
  0
LINE
  8
SPLAY
  10
1925.40
  20
-371.24
  30
0.00
  11
1894.60
  21
-363.98
  31
0.00
  0
LINE
  8
SPLAY
  10
1925.40
  20
-371.24
  30
0.00
  11
1877.51
  21
-381.52
  31
0.00
  0
LINE
  8
SPLAY
  10
1925.40
  20
-371.24
  30
0.00
  11
1960.15
  21
-372.58
  31
0.00
  0
LINE
  8
SPLAY
  10
1925.40
  20
-371.24
  30
0.00
  11
1872.46
  21
-356.86
  31
0.00
  0
LINE
  8
SPLAY
  10
1925.40
  20
-371.24
  30
0.00
  11
1867.36
  21
-354.66
  31
0.00
  0
LINE
  8
SPLAY
  10
1925.40
  20
-371.24
  30
0.00
  11
1882.16
  21
-373.81
  31
0.00
  0
LINE
  8
SPLAY
  10
64.75
  20
-392.60
  30
0.00
  11
35.10
  21
-369.70
  31
0.00
  0
LINE
  8
SPLAY
  10
64.75
  20
-392.60
  30
0.00
  11
25.72
  21
-355.46
  31
0.00
  0
LINE
  8
SPLAY
  10
64.75
  20
-392.60
  30
0.00
  11
129.51
  21
-349.51
  31
0.00
  0
LINE
  8
SPLAY
  10
64.75
  20
-392.60
  30
0.00
  11
111.61
  21
-367.48
  31
0.00
  0
LINE
  8
SPLAY
  10
64.75
  20
-392.60
  30
0.00
  11
92.37
  21
-384.63
  31
0.00
  0
POLYLINE
  8
L_wall
  66
1
  70
0
  0
VERTEX
  8
L_wall
  10
116.20
  20
-119.40
  30
0.00
  0
VERTEX
  8
L_wall
  10
125.30
  20
-117.88
  30
0.00
  0
VERTEX
  8
L_wall
  10
133.04
  20
-117.88
  30
0.00
  0
VERTEX
  8
L_wall
  10
140.08
  20
-120.92
  30
0.00
  0
VERTEX
  8
L_wall
  10
147.66
  20
-122.43
  30
0.00
  0
VERTEX
  8
L_wall
  10
151.45
  20
-129.26
  30
0.00
  0
VERTEX
  8
L_wall
  10
154.41
  20
-136.39
  30
0.00
  0
VERTEX
  8
L_wall
  10
159.25
  20
-142.75
  30
0.00
  0
VERTEX
  8
L_wall
  10
165.95
  20
-147.93
  30
0.00
  0
VERTEX
  8
L_wall
  10
171.92
  20
-153.15
  30
0.00
  0
SEQEND
  0
POLYLINE
  8
L_wall
  66
1
  70
0
  0
VERTEX
  8
L_wall
  10
34.30
  20
-51.88
  30
0.00
  0
VERTEX
  8
L_wall
  10
34.30
  20
-61.13
  30
0.00
  0
VERTEX
  8
L_wall
  10
33.54
  20
-68.95
  30
0.00
  0
VERTEX
  8
L_wall
  10
35.17
  20
-77.13
  30
0.00
  0
VERTEX
  8
L_wall
  10
35.06
  20
-85.96
  30
0.00
  0
VERTEX
  8
L_wall
  10
34.30
  20
-94.23
  30
0.00
  0
VERTEX
  8
L_wall
  10
35.44
  20
-102.33
  30
0.00
  0
VERTEX
  8
L_wall
  10
32.79
  20
-110.19
  30
0.00
  0
VERTEX
  8
L_wall
  10
29.75
  20
-117.19
  30
0.00
  0
VERTEX
  8
L_wall
  10
26.72
  20
-124.96
  30
0.00
  0
VERTEX
  8
L_wall
  10
25.20
  20
-132.48
  30
0.00
  0
SEQEND
  0
POLYLINE
  8
L_wall
  66
1
  70
0
  0
VERTEX
  8
L_wall
  10
29.00
  20
-133.05
  30
0.00
  0
VERTEX
  8
L_wall
  10
27.35
  20
-140.90
  30
0.00
  0
VERTEX
  8
L_wall
  10
23.64
  20
-149.09
  30
0.00
  0
VERTEX
  8
L_wall
  10
19.72
  20
-156.17
  30
0.00
  0
VERTEX
  8
L_wall
  10
12.47
  20
-160.36
  30
0.00
  0
VERTEX
  8
L_wall
  10
6.20
  20
-164.96
  30
0.00
  0
VERTEX
  8
L_wall
  10
1.34
  20
-172.47
  30
0.00
  0
VERTEX
  8
L_wall
  10
-2.92
  20
-179.40
  30
0.00
  0
VERTEX
  8
L_wall
  10
-9.43
  20
-183.38
  30
0.00
  0
VERTEX
  8
L_wall
  10
-16.50
  20
-186.41
  30
0.00
  0
VERTEX
  8
L_wall
  10
-23.62
  20
-189.19
  30
0.00
  0
VERTEX
  8
L_wall
  10
-31.29
  20
-189.19
  30
0.00
  0
VERTEX
  8
L_wall
  10
-38.96
  20
-187.67
  30
0.00
  0
VERTEX
  8
L_wall
  10
-45.63
  20
-183.57
  30
0.00
  0
VERTEX
  8
L_wall
  10
-55.14
  20
-180.48
  30
0.00
  0
VERTEX
  8
L_wall
  10
-62.11
  20
-177.05
  30
0.00
  0
SEQEND
  0
POLYLINE
  8
L_wall
  66
1
  70
0
  0
VERTEX
  8
L_wall
  10
-77.16
  20
-163.40
  30
0.00
  0
VERTEX
  8
L_wall
  10
-71.35
  20
-170.22
  30
0.00
  0
VERTEX
  8
L_wall
  10
-64.63
  20
-176.69
  30
0.00
  0
VERTEX
  8
L_wall
  10
-54.79
  20
-179.71
  30
0.00
  0
VERTEX
  8
L_wall
  10
-47.35
  20
-182.60
  30
0.00
  0
SEQEND
  0
POLYLINE
  8
L_wall
  66
1
  70
0
  0
VERTEX
  8
L_wall
  10
-90.34
  20
-207.80
  30
0.00
  0
VERTEX
  8
L_wall
  10
-82.01
  20
-212.91
  30
0.00
  0
VERTEX
  8
L_wall
  10
-76.70
  20
-221.44
  30
0.00
  0
VERTEX
  8
L_wall
  10
-70.37
  20
-227.65
  30
0.00
  0
VERTEX
  8
L_wall
  10
-62.71
  20
-228.28
  30
0.00
  0
VERTEX
  8
L_wall
  10
-54.60
  20
-227.52
  30
0.00
  0
VERTEX
  8
L_wall
  10
-46.74
  20
-229.80
  30
0.00
  0
VERTEX
  8
L_wall
  10
-38.55
  20
-232.89
  30
0.00
  0
SEQEND
  0
INSERT
  8
POINT
  2
P_blocks
  41
10.00
  42
10.00
  50
360.00
  10
100.03
  20
-86.37
  30
0.00
  0
INSERT
  8
POINT
  2
P_blocks
  41
10.00
  42
10.00
  50
360.00
  10
-89.11
  20
-200.97
  30
0.00
  0
INSERT
  8
POINT
  2
P_blocks
  41
10.00
  42
10.00
  50
360.00
  10
-93.37
  20
-199.83
  30
0.00
  0
INSERT
  8
POINT
  2
P_blocks
  41
10.00
  42
10.00
  50
360.00
  10
-91.86
  20
-180.56
  30
0.00
  0
INSERT
  8
POINT
  2
P_blocks
  41
10.00
  42
10.00
  50
360.00
  10
-80.48
  20
-166.07
  30
0.00
  0
INSERT
  8
POINT
  2
P_blocks
  41
10.00
  42
10.00
  50
360.00
  10
-87.37
  20
-193.73
  30
0.00
  0
POLYLINE
  8
L_wall
  66
1
  70
0
  0
VERTEX
  8
L_wall
  10
110.13
  20
-122.43
  30
0.00
  0
VERTEX
  8
L_wall
  10
109.37
  20
-130.07
  30
0.00
  0
VERTEX
  8
L_wall
  10
107.85
  20
-138.23
  30
0.00
  0
VERTEX
  8
L_wall
  10
104.82
  20
-145.36
  30
0.00
  0
VERTEX
  8
L_wall
  10
101.03
  20
-152.14
  30
0.00
  0
VERTEX
  8
L_wall
  10
93.91
  20
-156.86
  30
0.00
  0
VERTEX
  8
L_wall
  10
86.78
  20
-161.43
  30
0.00
  0
VERTEX
  8
L_wall
  10
81.12
  20
-168.14
  30
0.00
  0
VERTEX
  8
L_wall
  10
77.52
  20
-175.04
  30
0.00
  0
VERTEX
  8
L_wall
  10
72.73
  20
-181.09
  30
0.00
  0
VERTEX
  8
L_wall
  10
69.74
  20
-188.64
  30
0.00
  0
VERTEX
  8
L_wall
  10
65.96
  20
-196.21
  30
0.00
  0
VERTEX
  8
L_wall
  10
61.78
  20
-202.85
  30
0.00
  0
VERTEX
  8
L_wall
  10
55.35
  20
-208.34
  30
0.00
  0
VERTEX
  8
L_wall
  10
50.79
  20
-215.18
  30
0.00
  0
VERTEX
  8
L_wall
  10
47.57
  20
-222.95
  30
0.00
  0
SEQEND
  0
POLYLINE
  8
L_wall
  66
1
  70
0
  0
VERTEX
  8
L_wall
  10
47.57
  20
-222.95
  30
0.00
  0
VERTEX
  8
L_wall
  10
46.68
  20
-240.87
  30
0.00
  0
VERTEX
  8
L_wall
  10
46.15
  20
-255.97
  30
0.00
  0
VERTEX
  8
L_wall
  10
52.59
  20
-261.66
  30
0.00
  0
SEQEND
  0
POLYLINE
  8
L_wall
  66
1
  70
0
  0
VERTEX
  8
L_wall
  10
52.59
  20
-261.66
  30
0.00
  0
VERTEX
  8
L_wall
  10
66.44
  20
-271.71
  30
0.00
  0
VERTEX
  8
L_wall
  10
78.87
  20
-281.50
  30
0.00
  0
VERTEX
  8
L_wall
  10
88.87
  20
-294.05
  30
0.00
  0
VERTEX
  8
L_wall
  10
97.31
  20
-308.29
  30
0.00
  0
VERTEX
  8
L_wall
  10
103.77
  20
-322.73
  30
0.00
  0
SEQEND
  0
POLYLINE
  8
L_wall
  66
1
  70
0
  0
VERTEX
  8
L_wall
  10
103.77
  20
-322.73
  30
0.00
  0
VERTEX
  8
L_wall
  10
120.08
  20
-330.31
  30
0.00
  0
VERTEX
  8
L_wall
  10
132.76
  20
-339.11
  30
0.00
  0
VERTEX
  8
L_wall
  10
147.61
  20
-345.41
  30
0.00
  0
SEQEND
  0
POLYLINE
  8
L_wall
  66
1
  70
0
  0
VERTEX
  8
L_wall
  10
147.61
  20
-345.41
  30
0.00
  0
VERTEX
  8
L_wall
  10
163.21
  20
-357.92
  30
0.00
  0
VERTEX
  8
L_wall
  10
176.56
  20
-367.85
  30
0.00
  0
VERTEX
  8
L_wall
  10
190.69
  20
-374.23
  30
0.00
  0
VERTEX
  8
L_wall
  10
205.41
  20
-378.78
  30
0.00
  0
SEQEND
  0
POLYLINE
  8
L_wall
  66
1
  70
0
  0
VERTEX
  8
L_wall
  10
245.10
  20
-384.09
  30
0.00
  0
VERTEX
  8
L_wall
  10
259.06
  20
-375.13
  30
0.00
  0
VERTEX
  8
L_wall
  10
264.82
  20
-359.59
  30
0.00
  0
VERTEX
  8
L_wall
  10
270.88
  20
-345.60
  30
0.00
  0
VERTEX
  8
L_wall
  10
282.26
  20
-339.78
  30
0.00
  0
SEQEND
  0
POLYLINE
  8
L_wall
  66
1
  70
0
  0
VERTEX
  8
L_wall
  10
282.26
  20
-339.78
  30
0.00
  0
VERTEX
  8
L_wall
  10
304.22
  20
-345.88
  30
0.00
  0
VERTEX
  8
L_wall
  10
325.10
  20
-346.92
  30
0.00
  0
VERTEX
  8
L_wall
  10
342.54
  20
-345.40
  30
0.00
  0
VERTEX
  8
L_wall
  10
356.82
  20
-350.96
  30
0.00
  0
VERTEX
  8
L_wall
  10
372.11
  20
-356.78
  30
0.00
  0
SEQEND
  0
POLYLINE
  8
L_wall
  66
1
  70
0
  0
VERTEX
  8
L_wall
  10
205.41
  20
-378.78
  30
0.00
  0
VERTEX
  8
L_wall
  10
227.80
  20
-381.81
  30
0.00
  0
VERTEX
  8
L_wall
  10
243.21
  20
-379.91
  30
0.00
  0
SEQEND
  0
POLYLINE
  8
L_wall
  66
1
  70
0
  0
VERTEX
  8
L_wall
  10
-38.55
  20
-232.89
  30
0.00
  0
VERTEX
  8
L_wall
  10
-22.00
  20
-243.67
  30
0.00
  0
VERTEX
  8
L_wall
  10
-11.17
  20
-251.99
  30
0.00
  0
SEQEND
  0
POLYLINE
  8
L_wall
  66
1
  70
0
  0
VERTEX
  8
L_wall
  10
-11.17
  20
-251.99
  30
0.00
  0
VERTEX
  8
L_wall
  10
4.54
  20
-260.49
  30
0.00
  0
VERTEX
  8
L_wall
  10
17.78
  20
-274.88
  30
0.00
  0
VERTEX
  8
L_wall
  10
29.65
  20
-288.32
  30
0.00
  0
VERTEX
  8
L_wall
  10
39.30
  20
-300.64
  30
0.00
  0
VERTEX
  8
L_wall
  10
53.66
  20
-308.50
  30
0.00
  0
VERTEX
  8
L_wall
  10
60.00
  20
-321.02
  30
0.00
  0
SEQEND
  0
POLYLINE
  8
L_wall
  66
1
  70
0
  0
VERTEX
  8
L_wall
  10
60.00
  20
-321.02
  30
0.00
  0
VERTEX
  8
L_wall
  10
70.33
  20
-331.34
  30
0.00
  0
VERTEX
  8
L_wall
  10
84.42
  20
-337.49
  30
0.00
  0
VERTEX
  8
L_wall
  10
97.91
  20
-347.46
  30
0.00
  0
SEQEND
  0
POLYLINE
  8
L_wall
  66
1
  70
0
  0
VERTEX
  8
L_wall
  10
97.91
  20
-347.46
  30
0.00
  0
VERTEX
  8
L_wall
  10
104.97
  20
-362.50
  30
0.00
  0
VERTEX
  8
L_wall
  10
119.42
  20
-375.42
  30
0.00
  0
VERTEX
  8
L_wall
  10
136.85
  20
-379.60
  30
0.00
  0
VERTEX
  8
L_wall
  10
153.16
  20
-385.29
  30
0.00
  0
VERTEX
  8
L_wall
  10
163.02
  20
-389.46
  30
0.00
  0
SEQEND
  0
POLYLINE
  8
L_wall
  66
1
  70
0
  0
VERTEX
  8
L_wall
  10
163.02
  20
-389.46
  30
0.00
  0
VERTEX
  8
L_wall
  10
183.44
  20
-395.15
  30
0.00
  0
VERTEX
  8
L_wall
  10
194.80
  20
-406.12
  30
0.00
  0
VERTEX
  8
L_wall
  10
210.79
  20
-412.98
  30
0.00
  0
VERTEX
  8
L_wall
  10
227.78
  20
-417.68
  30
0.00
  0
VERTEX
  8
L_wall
  10
240.69
  20
-421.50
  30
0.00
  0
SEQEND
  0
INSERT
  8
POINT
  2
P_debris
  41
10.00
  42
10.00
  50
360.00
  10
-78.11
  20
-225.46
  30
0.00
  0
INSERT
  8
POINT
  2
P_debris
  41
10.00
  42
10.00
  50
360.00
  10
-59.53
  20
-235.84
  30
0.00
  0
INSERT
  8
POINT
  2
P_debris
  41
10.00
  42
10.00
  50
360.00
  10
-32.62
  20
-238.87
  30
0.00
  0
INSERT
  8
POINT
  2
P_debris
  41
10.00
  42
10.00
  50
360.00
  10
-18.21
  20
-244.18
  30
0.00
  0
INSERT
  8
POINT
  2
P_debris
  41
10.00
  42
10.00
  50
360.00
  10
84.76
  20
-353.11
  30
0.00
  0
INSERT
  8
POINT
  2
P_debris
  41
10.00
  42
10.00
  50
360.00
  10
75.94
  20
-342.93
  30
0.00
  0
INSERT
  8
POINT
  2
P_debris
  41
10.00
  42
10.00
  50
360.00
  10
91.41
  20
-365.67
  30
0.00
  0
INSERT
  8
POINT
  2
P_debris
  41
10.00
  42
10.00
  50
360.00
  10
107.67
  20
-379.22
  30
0.00
  0
INSERT
  8
POINT
  2
P_debris
  41
10.00
  42
10.00
  50
360.00
  10
161.50
  20
-405.77
  30
0.00
  0
INSERT
  8
POINT
  2
P_debris
  41
10.00
  42
10.00
  50
360.00
  10
175.32
  20
-407.29
  30
0.00
  0
INSERT
  8
POINT
  2
P_debris
  41
10.00
  42
10.00
  50
360.00
  10
136.48
  20
-389.84
  30
0.00
  0
INSERT
  8
POINT
  2
P_debris
  41
10.00
  42
10.00
  50
360.00
  10
202.13
  20
-425.07
  30
0.00
  0
INSERT
  8
POINT
  2
P_debris
  41
10.00
  42
10.00
  50
360.00
  10
226.99
  20
-430.19
  30
0.00
  0
INSERT
  8
POINT
  2
P_debris
  41
10.00
  42
10.00
  50
360.00
  10
238.30
  20
-433.94
  30
0.00
  0
POLYLINE
  8
L_wall
  66
1
  70
0
  0
VERTEX
  8
L_wall
  10
372.43
  20
-362.58
  30
0.00
  0
VERTEX
  8
L_wall
  10
375.84
  20
-369.96
  30
0.00
  0
VERTEX
  8
L_wall
  10
380.18
  20
-376.38
  30
0.00
  0
VERTEX
  8
L_wall
  10
381.51
  20
-384.39
  30
0.00
  0
VERTEX
  8
L_wall
  10
381.51
  20
-392.18
  30
0.00
  0
VERTEX
  8
L_wall
  10
380.76
  20
-399.77
  30
0.00
  0
VERTEX
  8
L_wall
  10
388.41
  20
-401.94
  30
0.00
  0
VERTEX
  8
L_wall
  10
396.13
  20
-402.70
  30
0.00
  0
VERTEX
  8
L_wall
  10
404.26
  20
-402.70
  30
0.00
  0
VERTEX
  8
L_wall
  10
410.40
  20
-407.24
  30
0.00
  0
VERTEX
  8
L_wall
  10
416.98
  20
-411.02
  30
0.00
  0
VERTEX
  8
L_wall
  10
423.95
  20
-414.87
  30
0.00
  0
VERTEX
  8
L_wall
  10
431.63
  20
-417.92
  30
0.00
  0
VERTEX
  8
L_wall
  10
439.35
  20
-419.35
  30
0.00
  0
VERTEX
  8
L_wall
  10
446.71
  20
-422.38
  30
0.00
  0
VERTEX
  8
L_wall
  10
453.63
  20
-426.40
  30
0.00
  0
VERTEX
  8
L_wall
  10
462.07
  20
-428.99
  30
0.00
  0
VERTEX
  8
L_wall
  10
468.76
  20
-433.96
  30
0.00
  0
SEQEND
  0
POLYLINE
  8
L_wall
  66
1
  70
0
  0
VERTEX
  8
L_wall
  10
249.10
  20
-425.41
  30
0.00
  0
VERTEX
  8
L_wall
  10
253.87
  20
-431.92
  30
0.00
  0
VERTEX
  8
L_wall
  10
260.13
  20
-438.11
  30
0.00
  0
VERTEX
  8
L_wall
  10
267.84
  20
-440.88
  30
0.00
  0
VERTEX
  8
L_wall
  10
275.94
  20
-442.06
  30
0.00
  0
VERTEX
  8
L_wall
  10
285.42
  20
-444.33
  30
0.00
  0
VERTEX
  8
L_wall
  10
293.37
  20
-442.82
  30
0.00
  0
VERTEX
  8
L_wall
  10
301.31
  20
-442.06
  30
0.00
  0
VERTEX
  8
L_wall
  10
310.74
  20
-442.61
  30
0.00
  0
VERTEX
  8
L_wall
  10
318.50
  20
-442.82
  30
0.00
  0
VERTEX
  8
L_wall
  10
326.42
  20
-441.30
  30
0.00
  0
VERTEX
  8
L_wall
  10
334.81
  20
-439.79
  30
0.00
  0
VERTEX
  8
L_wall
  10
342.64
  20
-440.55
  30
0.00
  0
VERTEX
  8
L_wall
  10
350.80
  20
-441.30
  30
0.00
  0
VERTEX
  8
L_wall
  10
358.20
  20
-439.65
  30
0.00
  0
VERTEX
  8
L_wall
  10
365.99
  20
-439.03
  30
0.00
  0
VERTEX
  8
L_wall
  10
373.57
  20
-438.27
  30
0.00
  0
VERTEX
  8
L_wall
  10
382.93
  20
-439.36
  30
0.00
  0
VERTEX
  8
L_wall
  10
390.33
  20
-442.82
  30
0.00
  0
VERTEX
  8
L_wall
  10
398.39
  20
-444.33
  30
0.00
  0
VERTEX
  8
L_wall
  10
405.89
  20
-445.84
  30
0.00
  0
VERTEX
  8
L_wall
  10
414.29
  20
-446.60
  30
0.00
  0
VERTEX
  8
L_wall
  10
422.15
  20
-446.60
  30
0.00
  0
SEQEND
  0
POLYLINE
  8
L_wall
  66
1
  70
0
  0
VERTEX
  8
L_wall
  10
472.31
  20
-433.73
  30
0.00
  0
VERTEX
  8
L_wall
  10
477.61
  20
-440.92
  30
0.00
  0
VERTEX
  8
L_wall
  10
485.76
  20
-443.97
  30
0.00
  0
VERTEX
  8
L_wall
  10
491.50
  20
-449.15
  30
0.00
  0
VERTEX
  8
L_wall
  10
498.59
  20
-455.21
  30
0.00
  0
VERTEX
  8
L_wall
  10
504.09
  20
-460.61
  30
0.00
  0
VERTEX
  8
L_wall
  10
511.05
  20
-465.68
  30
0.00
  0
VERTEX
  8
L_wall
  10
513.92
  20
-473.85
  30
0.00
  0
VERTEX
  8
L_wall
  10
517.71
  20
-480.71
  30
0.00
  0
VERTEX
  8
L_wall
  10
524.52
  20
-484.83
  30
0.00
  0
VERTEX
  8
L_wall
  10
532.38
  20
-485.21
  30
0.00
  0
SEQEND
  0
POLYLINE
  8
L_wall
  66
1
  70
0
  0
VERTEX
  8
L_wall
  10
532.08
  20
-488.24
  30
0.00
  0
VERTEX
  8
L_wall
  10
538.14
  20
-482.94
  30
0.00
  0
VERTEX
  8
L_wall
  10
545.32
  20
-479.53
  30
0.00
  0
VERTEX
  8
L_wall
  10
552.14
  20
-475.11
  30
0.00
  0
VERTEX
  8
L_wall
  10
555.07
  20
-467.42
  30
0.00
  0
VERTEX
  8
L_wall
  10
561.59
  20
-459.47
  30
0.00
  0
VERTEX
  8
L_wall
  10
569.10
  20
-454.69
  30
0.00
  0
VERTEX
  8
L_wall
  10
576.86
  20
-451.01
  30
0.00
  0
VERTEX
  8
L_wall
  10
584.67
  20
-448.87
  30
0.00
  0
VERTEX
  8
L_wall
  10
594.50
  20
-448.87
  30
0.00
  0
VERTEX
  8
L_wall
  10
603.77
  20
-450.39
  30
0.00
  0
VERTEX
  8
L_wall
  10
611.91
  20
-451.14
  30
0.00
  0
VERTEX
  8
L_wall
  10
621.06
  20
-450.39
  30
0.00
  0
VERTEX
  8
L_wall
  10
632.64
  20
-451.23
  30
0.00
  0
VERTEX
  8
L_wall
  10
641.14
  20
-451.90
  30
0.00
  0
VERTEX
  8
L_wall
  10
648.87
  20
-453.55
  30
0.00
  0
SEQEND
  0
POLYLINE
  8
L_wall
  66
1
  70
0
  0
VERTEX
  8
L_wall
  10
492.74
  20
-489.25
  30
0.00
  0
VERTEX
  8
L_wall
  10
493.90
  20
-500.75
  30
0.00
  0
VERTEX
  8
L_wall
  10
500.28
  20
-505.38
  30
0.00
  0
VERTEX
  8
L_wall
  10
508.09
  20
-507.27
  30
0.00
  0
VERTEX
  8
L_wall
  10
515.98
  20
-509.43
  30
0.00
  0
VERTEX
  8
L_wall
  10
523.78
  20
-511.52
  30
0.00
  0
VERTEX
  8
L_wall
  10
532.36
  20
-513.22
  30
0.00
  0
VERTEX
  8
L_wall
  10
540.26
  20
-512.46
  30
0.00
  0
VERTEX
  8
L_wall
  10
548.11
  20
-509.43
  30
0.00
  0
VERTEX
  8
L_wall
  10
555.78
  20
-507.92
  30
0.00
  0
VERTEX
  8
L_wall
  10
564.52
  20
-508.67
  30
0.00
  0
VERTEX
  8
L_wall
  10
572.94
  20
-509.43
  30
0.00
  0
VERTEX
  8
L_wall
  10
580.07
  20
-512.03
  30
0.00
  0
VERTEX
  8
L_wall
  10
588.63
  20
-511.70
  30
0.00
  0
VERTEX
  8
L_wall
  10
597.36
  20
-511.70
  30
0.00
  0
VERTEX
  8
L_wall
  10
605.48
  20
-511.70
  30
0.00
  0
VERTEX
  8
L_wall
  10
613.41
  20
-511.70
  30
0.00
  0
VERTEX
  8
L_wall
  10
621.22
  20
-511.70
  30
0.00
  0
VERTEX
  8
L_wall
  10
632.82
  20
-511.72
  30
0.00
  0
VERTEX
  8
L_wall
  10
640.96
  20
-511.22
  30
0.00
  0
SEQEND
  0
INSERT
  8
POINT
  2
P_debris
  41
10.00
  42
10.00
  50
360.00
  10
256.79
  20
-454.80
  30
0.00
  0
INSERT
  8
POINT
  2
P_debris
  41
10.00
  42
10.00
  50
360.00
  10
304.74
  20
-457.02
  30
0.00
  0
INSERT
  8
POINT
  2
P_debris
  41
10.00
  42
10.00
  50
360.00
  10
347.12
  20
-454.75
  30
0.00
  0
INSERT
  8
POINT
  2
P_debris
  41
10.00
  42
10.00
  50
360.00
  10
381.29
  20
-458.53
  30
0.00
  0
INSERT
  8
POINT
  2
P_debris
  41
10.00
  42
10.00
  50
360.00
  10
422.96
  20
-462.89
  30
0.00
  0
INSERT
  8
POINT
  2
P_debris
  41
10.00
  42
10.00
  50
360.00
  10
502.03
  20
-518.34
  30
0.00
  0
INSERT
  8
POINT
  2
P_debris
  41
10.00
  42
10.00
  50
360.00
  10
541.26
  20
-528.93
  30
0.00
  0
INSERT
  8
POINT
  2
P_debris
  41
10.00
  42
10.00
  50
360.00
  10
587.89
  20
-528.41
  30
0.00
  0
INSERT
  8
POINT
  2
P_debris
  41
10.00
  42
10.00
  50
360.00
  10
628.87
  20
-530.45
  30
0.00
  0
INSERT
  8
POINT
  2
P_debris
  41
10.00
  42
10.00
  50
360.00
  10
657.33
  20
-534.99
  30
0.00
  0
POLYLINE
  8
L_wall
  66
1
  70
0
  0
VERTEX
  8
L_wall
  10
640.96
  20
-511.22
  30
0.00
  0
VERTEX
  8
L_wall
  10
653.63
  20
-513.76
  30
0.00
  0
VERTEX
  8
L_wall
  10
668.54
  20
-516.82
  30
0.00
  0
VERTEX
  8
L_wall
  10
688.97
  20
-522.12
  30
0.00
  0
VERTEX
  8
L_wall
  10
703.08
  20
-528.90
  30
0.00
  0
VERTEX
  8
L_wall
  10
711.05
  20
-531.00
  30
0.00
  0
SEQEND
  0
POLYLINE
  8
L_wall
  66
1
  70
0
  0
VERTEX
  8
L_wall
  10
711.05
  20
-531.00
  30
0.00
  0
VERTEX
  8
L_wall
  10
715.04
  20
-529.46
  30
0.00
  0
VERTEX
  8
L_wall
  10
731.88
  20
-525.45
  30
0.00
  0
VERTEX
  8
L_wall
  10
749.12
  20
-527.80
  30
0.00
  0
VERTEX
  8
L_wall
  10
765.86
  20
-530.07
  30
0.00
  0
VERTEX
  8
L_wall
  10
782.04
  20
-522.12
  30
0.00
  0
VERTEX
  8
L_wall
  10
796.41
  20
-515.31
  30
0.00
  0
VERTEX
  8
L_wall
  10
813.93
  20
-514.18
  30
0.00
  0
VERTEX
  8
L_wall
  10
831.31
  20
-516.68
  30
0.00
  0
VERTEX
  8
L_wall
  10
847.50
  20
-520.24
  30
0.00
  0
VERTEX
  8
L_wall
  10
860.33
  20
-520.23
  30
0.00
  0
SEQEND
  0
POLYLINE
  8
L_wall
  66
1
  70
0
  0
VERTEX
  8
L_wall
  10
648.87
  20
-453.55
  30
0.00
  0
VERTEX
  8
L_wall
  10
667.50
  20
-467.33
  30
0.00
  0
VERTEX
  8
L_wall
  10
683.30
  20
-472.92
  30
0.00
  0
VERTEX
  8
L_wall
  10
699.45
  20
-474.81
  30
0.00
  0
VERTEX
  8
L_wall
  10
714.42
  20
-480.21
  30
0.00
  0
SEQEND
  0
POLYLINE
  8
L_wall
  66
1
  70
0
  0
VERTEX
  8
L_wall
  10
714.42
  20
-480.21
  30
0.00
  0
VERTEX
  8
L_wall
  10
734.45
  20
-480.87
  30
0.00
  0
VERTEX
  8
L_wall
  10
752.33
  20
-479.35
  30
0.00
  0
VERTEX
  8
L_wall
  10
769.17
  20
-477.46
  30
0.00
  0
VERTEX
  8
L_wall
  10
783.28
  20
-476.22
  30
0.00
  0
SEQEND
  0
POLYLINE
  8
L_wall
  66
1
  70
0
  0
VERTEX
  8
L_wall
  10
484.79
  20
-485.84
  30
0.00
  0
VERTEX
  8
L_wall
  10
492.74
  20
-489.25
  30
0.00
  0
SEQEND
  0
INSERT
  8
POINT
  2
P_debris
  41
10.00
  42
10.00
  50
360.00
  10
466.90
  20
-486.54
  30
0.00
  0
POLYLINE
  8
L_wall
  66
1
  70
0
  0
VERTEX
  8
L_wall
  10
422.15
  20
-446.60
  30
0.00
  0
VERTEX
  8
L_wall
  10
434.65
  20
-452.72
  30
0.00
  0
VERTEX
  8
L_wall
  10
441.98
  20
-455.27
  30
0.00
  0
VERTEX
  8
L_wall
  10
448.60
  20
-459.97
  30
0.00
  0
VERTEX
  8
L_wall
  10
456.74
  20
-466.14
  30
0.00
  0
VERTEX
  8
L_wall
  10
464.03
  20
-470.11
  30
0.00
  0
VERTEX
  8
L_wall
  10
469.21
  20
-476.05
  30
0.00
  0
VERTEX
  8
L_wall
  10
475.20
  20
-481.42
  30
0.00
  0
VERTEX
  8
L_wall
  10
484.79
  20
-485.84
  30
0.00
  0
VERTEX
  8
L_wall
  10
492.74
  20
-489.25
  30
0.00
  0
SEQEND
  0
POLYLINE
  8
L_wall
  66
1
  70
0
  0
VERTEX
  8
L_wall
  10
783.28
  20
-476.22
  30
0.00
  0
VERTEX
  8
L_wall
  10
793.71
  20
-465.14
  30
0.00
  0
VERTEX
  8
L_wall
  10
804.30
  20
-452.21
  30
0.00
  0
VERTEX
  8
L_wall
  10
814.51
  20
-439.34
  30
0.00
  0
VERTEX
  8
L_wall
  10
822.02
  20
-425.83
  30
0.00
  0
VERTEX
  8
L_wall
  10
824.94
  20
-409.39
  30
0.00
  0
VERTEX
  8
L_wall
  10
827.75
  20
-393.92
  30
0.00
  0
VERTEX
  8
L_wall
  10
828.51
  20
-378.40
  30
0.00
  0
SEQEND
  0
POLYLINE
  8
L_wall
  66
1
  70
0
  0
VERTEX
  8
L_wall
  10
842.89
  20
-392.41
  30
0.00
  0
VERTEX
  8
L_wall
  10
838.05
  20
-383.17
  30
0.00
  0
VERTEX
  8
L_wall
  10
837.59
  20
-373.29
  30
0.00
  0
SEQEND
  0
INSERT
  8
POINT
  2
P_continuation
  41
10.00
  42
10.00
  50
360.00
  10
831.73
  20
-350.02
  30
0.00
  0
INSERT
  8
POINT
  2
P_blocks
  41
10.00
  42
10.00
  50
360.00
  10
799.06
  20
-509.04
  30
0.00
  0
INSERT
  8
POINT
  2
P_blocks
  41
10.00
  42
10.00
  50
360.00
  10
829.27
  20
-510.50
  30
0.00
  0
INSERT
  8
POINT
  2
P_blocks
  41
10.00
  42
10.00
  50
360.00
  10
855.86
  20
-512.01
  30
0.00
  0
INSERT
  8
POINT
  2
P_blocks
  41
10.00
  42
10.00
  50
360.00
  10
884.61
  20
-512.01
  30
0.00
  0
POLYLINE
  8
L_wall
  66
1
  70
0
  0
VERTEX
  8
L_wall
  10
874.22
  20
-441.61
  30
0.00
  0
VERTEX
  8
L_wall
  10
890.68
  20
-441.61
  30
0.00
  0
SEQEND
  0
POLYLINE
  8
L_wall
  66
1
  70
0
  0
VERTEX
  8
L_wall
  10
842.89
  20
-392.41
  30
0.00
  0
VERTEX
  8
L_wall
  10
842.89
  20
-408.88
  30
0.00
  0
VERTEX
  8
L_wall
  10
848.18
  20
-424.87
  30
0.00
  0
VERTEX
  8
L_wall
  10
859.34
  20
-436.11
  30
0.00
  0
VERTEX
  8
L_wall
  10
874.22
  20
-441.61
  30
0.00
  0
VERTEX
  8
L_wall
  10
890.68
  20
-441.61
  30
0.00
  0
SEQEND
  0
POLYLINE
  8
L_wall
  66
1
  70
0
  0
VERTEX
  8
L_wall
  10
892.07
  20
-443.88
  30
0.00
  0
VERTEX
  8
L_wall
  10
907.96
  20
-446.91
  30
0.00
  0
VERTEX
  8
L_wall
  10
925.13
  20
-452.21
  30
0.00
  0
VERTEX
  8
L_wall
  10
939.27
  20
-459.32
  30
0.00
  0
VERTEX
  8
L_wall
  10
956.57
  20
-460.54
  30
0.00
  0
VERTEX
  8
L_wall
  10
973.58
  20
-462.71
  30
0.00
  0
VERTEX
  8
L_wall
  10
990.34
  20
-474.07
  30
0.00
  0
VERTEX
  8
L_wall
  10
1000.64
  20
-476.43
  30
0.00
  0
SEQEND
  0
POLYLINE
  8
L_wall
  66
1
  70
0
  0
VERTEX
  8
L_wall
  10
860.33
  20
-520.23
  30
0.00
  0
VERTEX
  8
L_wall
  10
878.42
  20
-517.16
  30
0.00
  0
VERTEX
  8
L_wall
  10
898.23
  20
-515.79
  30
0.00
  0
VERTEX
  8
L_wall
  10
915.83
  20
-515.04
  30
0.00
  0
VERTEX
  8
L_wall
  10
929.14
  20
-515.79
  30
0.00
  0
SEQEND
  0
POLYLINE
  8
L_wall
  66
1
  70
0
  0
VERTEX
  8
L_wall
  10
929.14
  20
-515.79
  30
0.00
  0
VERTEX
  8
L_wall
  10
949.48
  20
-517.03
  30
0.00
  0
VERTEX
  8
L_wall
  10
968.82
  20
-520.34
  30
0.00
  0
VERTEX
  8
L_wall
  10
985.29
  20
-520.34
  30
0.00
  0
VERTEX
  8
L_wall
  10
1002.19
  20
-515.79
  30
0.00
  0
VERTEX
  8
L_wall
  10
1010.34
  20
-516.55
  30
0.00
  0
SEQEND
  0
INSERT
  8
POINT
  2
P_blocks
  41
10.00
  42
10.00
  50
360.00
  10
927.10
  20
-514.17
  30
0.00
  0
INSERT
  8
POINT
  2
P_blocks
  41
10.00
  42
10.00
  50
360.00
  10
954.11
  20
-512.01
  30
0.00
  0
POLYLINE
  8
L_wall
  66
1
  70
0
  0
VERTEX
  8
L_wall
  10
871.12
  20
-518.53
  30
0.00
  0
VERTEX
  8
L_wall
  10
864.90
  20
-524.34
  30
0.00
  0
VERTEX
  8
L_wall
  10
858.48
  20
-528.37
  30
0.00
  0
VERTEX
  8
L_wall
  10
852.34
  20
-533.53
  30
0.00
  0
VERTEX
  8
L_wall
  10
847.89
  20
-540.04
  30
0.00
  0
VERTEX
  8
L_wall
  10
842.54
  20
-547.12
  30
0.00
  0
VERTEX
  8
L_wall
  10
835.81
  20
-553.10
  30
0.00
  0
VERTEX
  8
L_wall
  10
830.44
  20
-559.99
  30
0.00
  0
VERTEX
  8
L_wall
  10
825.93
  20
-566.56
  30
0.00
  0
VERTEX
  8
L_wall
  10
821.41
  20
-572.81
  30
0.00
  0
VERTEX
  8
L_wall
  10
814.06
  20
-575.62
  30
0.00
  0
VERTEX
  8
L_wall
  10
805.91
  20
-575.30
  30
0.00
  0
VERTEX
  8
L_wall
  10
797.60
  20
-573.79
  30
0.00
  0
VERTEX
  8
L_wall
  10
789.98
  20
-573.03
  30
0.00
  0
VERTEX
  8
L_wall
  10
782.27
  20
-570.76
  30
0.00
  0
VERTEX
  8
L_wall
  10
773.86
  20
-570.00
  30
0.00
  0
VERTEX
  8
L_wall
  10
766.09
  20
-567.87
  30
0.00
  0
VERTEX
  8
L_wall
  10
758.94
  20
-564.98
  30
0.00
  0
VERTEX
  8
L_wall
  10
749.74
  20
-564.70
  30
0.00
  0
VERTEX
  8
L_wall
  10
741.49
  20
-563.95
  30
0.00
  0
VERTEX
  8
L_wall
  10
731.15
  20
-563.19
  30
0.00
  0
VERTEX
  8
L_wall
  10
721.56
  20
-563.31
  30
0.00
  0
VERTEX
  8
L_wall
  10
713.51
  20
-560.67
  30
0.00
  0
VERTEX
  8
L_wall
  10
705.66
  20
-559.40
  30
0.00
  0
VERTEX
  8
L_wall
  10
698.09
  20
-559.40
  30
0.00
  0
SEQEND
  0
POLYLINE
  8
L_wall
  66
1
  70
0
  0
VERTEX
  8
L_wall
  10
930.90
  20
-531.40
  30
0.00
  0
VERTEX
  8
L_wall
  10
923.10
  20
-532.91
  30
0.00
  0
VERTEX
  8
L_wall
  10
915.86
  20
-537.79
  30
0.00
  0
VERTEX
  8
L_wall
  10
912.27
  20
-545.20
  30
0.00
  0
VERTEX
  8
L_wall
  10
906.54
  20
-551.93
  30
0.00
  0
VERTEX
  8
L_wall
  10
901.27
  20
-558.12
  30
0.00
  0
VERTEX
  8
L_wall
  10
896.09
  20
-564.70
  30
0.00
  0
VERTEX
  8
L_wall
  10
891.72
  20
-571.93
  30
0.00
  0
VERTEX
  8
L_wall
  10
886.15
  20
-578.38
  30
0.00
  0
VERTEX
  8
L_wall
  10
880.36
  20
-583.63
  30
0.00
  0
VERTEX
  8
L_wall
  10
874.73
  20
-589.86
  30
0.00
  0
VERTEX
  8
L_wall
  10
870.24
  20
-596.62
  30
0.00
  0
VERTEX
  8
L_wall
  10
864.92
  20
-602.71
  30
0.00
  0
VERTEX
  8
L_wall
  10
857.93
  20
-606.34
  30
0.00
  0
VERTEX
  8
L_wall
  10
851.83
  20
-612.01
  30
0.00
  0
VERTEX
  8
L_wall
  10
843.55
  20
-613.01
  30
0.00
  0
VERTEX
  8
L_wall
  10
834.27
  20
-614.66
  30
0.00
  0
VERTEX
  8
L_wall
  10
826.23
  20
-615.42
  30
0.00
  0
VERTEX
  8
L_wall
  10
818.05
  20
-616.18
  30
0.00
  0
VERTEX
  8
L_wall
  10
810.33
  20
-617.95
  30
0.00
  0
VERTEX
  8
L_wall
  10
801.51
  20
-619.21
  30
0.00
  0
VERTEX
  8
L_wall
  10
792.99
  20
-619.96
  30
0.00
  0
VERTEX
  8
L_wall
  10
785.04
  20
-619.21
  30
0.00
  0
VERTEX
  8
L_wall
  10
773.79
  20
-619.96
  30
0.00
  0
VERTEX
  8
L_wall
  10
765.81
  20
-619.96
  30
0.00
  0
VERTEX
  8
L_wall
  10
756.40
  20
-619.96
  30
0.00
  0
VERTEX
  8
L_wall
  10
748.01
  20
-619.96
  30
0.00
  0
VERTEX
  8
L_wall
  10
740.22
  20
-616.93
  30
0.00
  0
VERTEX
  8
L_wall
  10
732.59
  20
-615.42
  30
0.00
  0
VERTEX
  8
L_wall
  10
724.85
  20
-614.66
  30
0.00
  0
VERTEX
  8
L_wall
  10
717.27
  20
-613.91
  30
0.00
  0
VERTEX
  8
L_wall
  10
709.47
  20
-615.42
  30
0.00
  0
VERTEX
  8
L_wall
  10
700.57
  20
-615.42
  30
0.00
  0
VERTEX
  8
L_wall
  10
692.16
  20
-613.24
  30
0.00
  0
VERTEX
  8
L_wall
  10
683.74
  20
-610.25
  30
0.00
  0
VERTEX
  8
L_wall
  10
675.58
  20
-606.55
  30
0.00
  0
VERTEX
  8
L_wall
  10
664.81
  20
-606.34
  30
0.00
  0
SEQEND
  0
POLYLINE
  8
L_wall
  66
1
  70
0
  0
VERTEX
  8
L_wall
  10
664.81
  20
-606.34
  30
0.00
  0
VERTEX
  8
L_wall
  10
656.09
  20
-597.08
  30
0.00
  0
VERTEX
  8
L_wall
  10
639.40
  20
-591.36
  30
0.00
  0
VERTEX
  8
L_wall
  10
626.39
  20
-582.64
  30
0.00
  0
VERTEX
  8
L_wall
  10
619.47
  20
-567.28
  30
0.00
  0
VERTEX
  8
L_wall
  10
609.11
  20
-554.32
  30
0.00
  0
VERTEX
  8
L_wall
  10
597.65
  20
-543.45
  30
0.00
  0
VERTEX
  8
L_wall
  10
586.41
  20
-541.24
  30
0.00
  0
SEQEND
  0
POLYLINE
  8
L_wall
  66
1
  70
0
  0
VERTEX
  8
L_wall
  10
586.41
  20
-541.24
  30
0.00
  0
VERTEX
  8
L_wall
  10
572.44
  20
-555.04
  30
0.00
  0
VERTEX
  8
L_wall
  10
563.33
  20
-568.49
  30
0.00
  0
VERTEX
  8
L_wall
  10
550.28
  20
-577.86
  30
0.00
  0
VERTEX
  8
L_wall
  10
536.09
  20
-586.85
  30
0.00
  0
VERTEX
  8
L_wall
  10
522.40
  20
-598.46
  30
0.00
  0
VERTEX
  8
L_wall
  10
508.88
  20
-609.36
  30
0.00
  0
VERTEX
  8
L_wall
  10
499.30
  20
-616.93
  30
0.00
  0
SEQEND
  0
POLYLINE
  8
L_wall
  66
1
  70
0
  0
VERTEX
  8
L_wall
  10
499.30
  20
-616.93
  30
0.00
  0
VERTEX
  8
L_wall
  10
486.51
  20
-619.97
  30
0.00
  0
VERTEX
  8
L_wall
  10
469.69
  20
-625.50
  30
0.00
  0
VERTEX
  8
L_wall
  10
453.99
  20
-631.32
  30
0.00
  0
VERTEX
  8
L_wall
  10
437.26
  20
-635.90
  30
0.00
  0
VERTEX
  8
L_wall
  10
420.98
  20
-641.40
  30
0.00
  0
SEQEND
  0
POLYLINE
  8
L_wall
  66
1
  70
0
  0
VERTEX
  8
L_wall
  10
420.98
  20
-641.40
  30
0.00
  0
VERTEX
  8
L_wall
  10
429.52
  20
-617.96
  30
0.00
  0
VERTEX
  8
L_wall
  10
442.69
  20
-609.36
  30
0.00
  0
VERTEX
  8
L_wall
  10
459.79
  20
-607.72
  30
0.00
  0
VERTEX
  8
L_wall
  10
475.46
  20
-603.79
  30
0.00
  0
VERTEX
  8
L_wall
  10
487.83
  20
-593.96
  30
0.00
  0
VERTEX
  8
L_wall
  10
499.88
  20
-581.91
  30
0.00
  0
VERTEX
  8
L_wall
  10
513.72
  20
-571.05
  30
0.00
  0
VERTEX
  8
L_wall
  10
524.74
  20
-558.27
  30
0.00
  0
VERTEX
  8
L_wall
  10
537.78
  20
-549.01
  30
0.00
  0
VERTEX
  8
L_wall
  10
548.19
  20
-537.08
  30
0.00
  0
VERTEX
  8
L_wall
  10
561.44
  20
-526.10
  30
0.00
  0
VERTEX
  8
L_wall
  10
575.03
  20
-515.89
  30
0.00
  0
SEQEND
  0
POLYLINE
  8
L_wall
  66
1
  70
0
  0
VERTEX
  8
L_wall
  10
575.03
  20
-515.89
  30
0.00
  0
VERTEX
  8
L_wall
  10
582.48
  20
-507.63
  30
0.00
  0
VERTEX
  8
L_wall
  10
600.74
  20
-503.39
  30
0.00
  0
VERTEX
  8
L_wall
  10
618.34
  20
-507.17
  30
0.00
  0
VERTEX
  8
L_wall
  10
634.94
  20
-509.48
  30
0.00
  0
VERTEX
  8
L_wall
  10
651.76
  20
-511.05
  30
0.00
  0
VERTEX
  8
L_wall
  10
668.88
  20
-519.28
  30
0.00
  0
VERTEX
  8
L_wall
  10
680.80
  20
-529.69
  30
0.00
  0
VERTEX
  8
L_wall
  10
692.44
  20
-539.82
  30
0.00
  0
VERTEX
  8
L_wall
  10
700.89
  20
-554.43
  30
0.00
  0
VERTEX
  8
L_wall
  10
710.82
  20
-560.49
  30
0.00
  0
SEQEND
  0
INSERT
  8
POINT
  2
P_debris
  41
10.00
  42
10.00
  50
360.00
  10
456.00
  20
-642.67
  30
0.00
  0
INSERT
  8
POINT
  2
P_debris
  41
10.00
  42
10.00
  50
360.00
  10
500.27
  20
-622.35
  30
0.00
  0
INSERT
  8
POINT
  2
P_debris
  41
10.00
  42
10.00
  50
360.00
  10
563.83
  20
-575.07
  30
0.00
  0
INSERT
  8
POINT
  2
P_debris
  41
10.00
  42
10.00
  50
360.00
  10
599.27
  20
-550.65
  30
0.00
  0
INSERT
  8
POINT
  2
P_debris
  41
10.00
  42
10.00
  50
360.00
  10
663.00
  20
-624.50
  30
0.00
  0
INSERT
  8
POINT
  2
P_debris
  41
10.00
  42
10.00
  50
360.00
  10
718.73
  20
-626.38
  30
0.00
  0
INSERT
  8
POINT
  2
P_debris
  41
10.00
  42
10.00
  50
360.00
  10
771.99
  20
-635.10
  30
0.00
  0
INSERT
  8
POINT
  2
P_debris
  41
10.00
  42
10.00
  50
360.00
  10
825.75
  20
-632.83
  30
0.00
  0
INSERT
  8
POINT
  2
P_debris
  41
10.00
  42
10.00
  50
360.00
  10
886.52
  20
-615.42
  30
0.00
  0
INSERT
  8
POINT
  2
P_debris
  41
10.00
  42
10.00
  50
360.00
  10
923.22
  20
-558.34
  30
0.00
  0
INSERT
  8
POINT
  2
P_debris
  41
10.00
  42
10.00
  50
360.00
  10
941.71
  20
-539.72
  30
0.00
  0
INSERT
  8
POINT
  2
P_clay
  41
10.00
  42
10.00
  50
360.00
  10
508.07
  20
-622.90
  30
0.00
  0
INSERT
  8
POINT
  2
P_blocks
  41
10.00
  42
10.00
  50
360.00
  10
611.73
  20
-571.75
  30
0.00
  0
INSERT
  8
POINT
  2
P_blocks
  41
10.00
  42
10.00
  50
360.00
  10
643.65
  20
-608.75
  30
0.00
  0
INSERT
  8
POINT
  2
P_blocks
  41
10.00
  42
10.00
  50
360.00
  10
746.52
  20
-629.80
  30
0.00
  0
POLYLINE
  8
L_wall
  66
1
  70
0
  0
VERTEX
  8
L_wall
  10
1038.90
  20
-512.81
  30
0.00
  0
VERTEX
  8
L_wall
  10
1054.03
  20
-519.24
  30
0.00
  0
VERTEX
  8
L_wall
  10
1069.86
  20
-525.15
  30
0.00
  0
VERTEX
  8
L_wall
  10
1087.04
  20
-530.97
  30
0.00
  0
VERTEX
  8
L_wall
  10
1102.46
  20
-534.76
  30
0.00
  0
VERTEX
  8
L_wall
  10
1120.73
  20
-535.51
  30
0.00
  0
VERTEX
  8
L_wall
  10
1136.83
  20
-534.76
  30
0.00
  0
VERTEX
  8
L_wall
  10
1152.71
  20
-534.76
  30
0.00
  0
VERTEX
  8
L_wall
  10
1155.66
  20
-542.09
  30
0.00
  0
VERTEX
  8
L_wall
  10
1168.52
  20
-530.74
  30
0.00
  0
VERTEX
  8
L_wall
  10
1177.11
  20
-515.29
  30
0.00
  0
VERTEX
  8
L_wall
  10
1180.63
  20
-497.49
  30
0.00
  0
VERTEX
  8
L_wall
  10
1181.38
  20
-480.50
  30
0.00
  0
VERTEX
  8
L_wall
  10
1178.36
  20
-460.86
  30
0.00
  0
VERTEX
  8
L_wall
  10
1168.52
  20
-444.06
  30
0.00
  0
VERTEX
  8
L_wall
  10
1164.36
  20
-426.27
  30
0.00
  0
VERTEX
  8
L_wall
  10
1163.23
  20
-408.57
  30
0.00
  0
VERTEX
  8
L_wall
  10
1163.98
  20
-389.58
  30
0.00
  0
VERTEX
  8
L_wall
  10
1166.04
  20
-371.85
  30
0.00
  0
VERTEX
  8
L_wall
  10
1167.77
  20
-355.55
  30
0.00
  0
VERTEX
  8
L_wall
  10
1172.78
  20
-338.55
  30
0.00
  0
VERTEX
  8
L_wall
  10
1179.11
  20
-322.53
  30
0.00
  0
VERTEX
  8
L_wall
  10
1189.71
  20
-310.83
  30
0.00
  0
VERTEX
  8
L_wall
  10
1202.76
  20
-296.45
  30
0.00
  0
VERTEX
  8
L_wall
  10
1211.24
  20
-280.03
  30
0.00
  0
VERTEX
  8
L_wall
  10
1217.95
  20
-265.30
  30
0.00
  0
SEQEND
  0
POLYLINE
  8
L_wall
  66
1
  70
0
  0
VERTEX
  8
L_wall
  10
960.97
  20
-548.38
  30
0.00
  0
VERTEX
  8
L_wall
  10
976.86
  20
-544.98
  30
0.00
  0
VERTEX
  8
L_wall
  10
999.04
  20
-543.08
  30
0.00
  0
VERTEX
  8
L_wall
  10
1017.32
  20
-550.04
  30
0.00
  0
VERTEX
  8
L_wall
  10
1032.50
  20
-554.58
  30
0.00
  0
VERTEX
  8
L_wall
  10
1050.04
  20
-561.43
  30
0.00
  0
VERTEX
  8
L_wall
  10
1067.54
  20
-566.90
  30
0.00
  0
VERTEX
  8
L_wall
  10
1087.07
  20
-573.28
  30
0.00
  0
VERTEX
  8
L_wall
  10
1102.53
  20
-577.68
  30
0.00
  0
VERTEX
  8
L_wall
  10
1117.59
  20
-582.45
  30
0.00
  0
SEQEND
  0
POLYLINE
  8
L_wall
  66
1
  70
0
  0
VERTEX
  8
L_wall
  10
1117.59
  20
-582.45
  30
0.00
  0
VERTEX
  8
L_wall
  10
1135.43
  20
-586.07
  30
0.00
  0
VERTEX
  8
L_wall
  10
1152.29
  20
-589.44
  30
0.00
  0
VERTEX
  8
L_wall
  10
1160.21
  20
-592.54
  30
0.00
  0
SEQEND
  0
POLYLINE
  8
L_wall
  66
1
  70
0
  0
VERTEX
  8
L_wall
  10
1267.64
  20
-270.33
  30
0.00
  0
VERTEX
  8
L_wall
  10
1267.26
  20
-287.36
  30
0.00
  0
VERTEX
  8
L_wall
  10
1268.69
  20
-306.34
  30
0.00
  0
VERTEX
  8
L_wall
  10
1268.40
  20
-325.36
  30
0.00
  0
VERTEX
  8
L_wall
  10
1269.91
  20
-342.18
  30
0.00
  0
VERTEX
  8
L_wall
  10
1272.18
  20
-360.42
  30
0.00
  0
VERTEX
  8
L_wall
  10
1275.58
  20
-376.69
  30
0.00
  0
VERTEX
  8
L_wall
  10
1283.91
  20
-391.45
  30
0.00
  0
VERTEX
  8
L_wall
  10
1288.96
  20
-402.93
  30
0.00
  0
SEQEND
  0
INSERT
  8
POINT
  2
P_continuation
  41
10.00
  42
10.00
  50
360.00
  10
1250.31
  20
-235.51
  30
0.00
  0
POLYLINE
  8
L_wall
  66
1
  70
0
  0
VERTEX
  8
L_wall
  10
1288.96
  20
-402.93
  30
0.00
  0
VERTEX
  8
L_wall
  10
1310.55
  20
-414.38
  30
0.00
  0
VERTEX
  8
L_wall
  10
1331.78
  20
-430.36
  30
0.00
  0
VERTEX
  8
L_wall
  10
1344.70
  20
-452.38
  30
0.00
  0
VERTEX
  8
L_wall
  10
1362.08
  20
-469.39
  30
0.00
  0
VERTEX
  8
L_wall
  10
1380.87
  20
-482.36
  30
0.00
  0
VERTEX
  8
L_wall
  10
1406.29
  20
-484.48
  30
0.00
  0
VERTEX
  8
L_wall
  10
1430.49
  20
-487.66
  30
0.00
  0
VERTEX
  8
L_wall
  10
1451.84
  20
-492.43
  30
0.00
  0
SEQEND
  0
POLYLINE
  8
L_wall
  66
1
  70
0
  0
VERTEX
  8
L_wall
  10
1451.84
  20
-492.43
  30
0.00
  0
VERTEX
  8
L_wall
  10
1485.67
  20
-487.96
  30
0.00
  0
VERTEX
  8
L_wall
  10
1510.41
  20
-477.06
  30
0.00
  0
VERTEX
  8
L_wall
  10
1530.23
  20
-468.05
  30
0.00
  0
VERTEX
  8
L_wall
  10
1539.23
  20
-448.13
  30
0.00
  0
VERTEX
  8
L_wall
  10
1555.78
  20
-433.81
  30
0.00
  0
VERTEX
  8
L_wall
  10
1579.08
  20
-430.43
  30
0.00
  0
VERTEX
  8
L_wall
  10
1601.08
  20
-425.83
  30
0.00
  0
VERTEX
  8
L_wall
  10
1623.98
  20
-425.66
  30
0.00
  0
VERTEX
  8
L_wall
  10
1641.56
  20
-424.07
  30
0.00
  0
SEQEND
  0
POLYLINE
  8
L_wall
  66
1
  70
0
  0
VERTEX
  8
L_wall
  10
1641.56
  20
-424.07
  30
0.00
  0
VERTEX
  8
L_wall
  10
1664.35
  20
-425.13
  30
0.00
  0
VERTEX
  8
L_wall
  10
1687.96
  20
-429.06
  30
0.00
  0
VERTEX
  8
L_wall
  10
1710.42
  20
-433.61
  30
0.00
  0
VERTEX
  8
L_wall
  10
1735.02
  20
-429.37
  30
0.00
  0
VERTEX
  8
L_wall
  10
1764.24
  20
-425.13
  30
0.00
  0
VERTEX
  8
L_wall
  10
1775.45
  20
-425.13
  30
0.00
  0
SEQEND
  0
POLYLINE
  8
L_wall
  66
1
  70
0
  0
VERTEX
  8
L_wall
  10
1775.45
  20
-425.13
  30
0.00
  0
VERTEX
  8
L_wall
  10
1792.06
  20
-410.47
  30
0.00
  0
VERTEX
  8
L_wall
  10
1812.53
  20
-402.12
  30
0.00
  0
VERTEX
  8
L_wall
  10
1833.57
  20
-394.80
  30
0.00
  0
VERTEX
  8
L_wall
  10
1856.10
  20
-388.04
  30
0.00
  0
VERTEX
  8
L_wall
  10
1874.73
  20
-375.62
  30
0.00
  0
VERTEX
  8
L_wall
  10
1886.08
  20
-358.37
  30
0.00
  0
VERTEX
  8
L_wall
  10
1908.84
  20
-353.07
  30
0.00
  0
VERTEX
  8
L_wall
  10
1930.45
  20
-352.01
  30
0.00
  0
VERTEX
  8
L_wall
  10
1952.35
  20
-360.49
  30
0.00
  0
SEQEND
  0
POLYLINE
  8
L_wall
  66
1
  70
0
  0
VERTEX
  8
L_wall
  10
1952.35
  20
-360.49
  30
0.00
  0
VERTEX
  8
L_wall
  10
1964.54
  20
-366.32
  30
0.00
  0
VERTEX
  8
L_wall
  10
1992.49
  20
-362.61
  30
0.00
  0
VERTEX
  8
L_wall
  10
2009.73
  20
-352.01
  30
0.00
  0
SEQEND
  0
POLYLINE
  8
L_wall
  66
1
  70
0
  0
VERTEX
  8
L_wall
  10
1160.21
  20
-592.54
  30
0.00
  0
VERTEX
  8
L_wall
  10
1179.90
  20
-602.50
  30
0.00
  0
VERTEX
  8
L_wall
  10
1192.30
  20
-618.52
  30
0.00
  0
VERTEX
  8
L_wall
  10
1186.66
  20
-638.36
  30
0.00
  0
VERTEX
  8
L_wall
  10
1175.74
  20
-658.33
  30
0.00
  0
VERTEX
  8
L_wall
  10
1170.05
  20
-680.58
  30
0.00
  0
VERTEX
  8
L_wall
  10
1170.05
  20
-703.11
  30
0.00
  0
VERTEX
  8
L_wall
  10
1166.88
  20
-726.31
  30
0.00
  0
VERTEX
  8
L_wall
  10
1164.76
  20
-752.16
  30
0.00
  0
VERTEX
  8
L_wall
  10
1164.44
  20
-776.92
  30
0.00
  0
SEQEND
  0
POLYLINE
  8
L_wall
  66
1
  70
0
  0
VERTEX
  8
L_wall
  10
1164.44
  20
-776.92
  30
0.00
  0
VERTEX
  8
L_wall
  10
1181.10
  20
-782.32
  30
0.00
  0
VERTEX
  8
L_wall
  10
1207.09
  20
-782.32
  30
0.00
  0
VERTEX
  8
L_wall
  10
1232.14
  20
-778.80
  30
0.00
  0
VERTEX
  8
L_wall
  10
1258.37
  20
-779.14
  30
0.00
  0
VERTEX
  8
L_wall
  10
1273.40
  20
-768.67
  30
0.00
  0
VERTEX
  8
L_wall
  10
1276.08
  20
-740.74
  30
0.00
  0
VERTEX
  8
L_wall
  10
1278.10
  20
-712.15
  30
0.00
  0
VERTEX
  8
L_wall
  10
1281.28
  20
-689.06
  30
0.00
  0
VERTEX
  8
L_wall
  10
1275.83
  20
-665.59
  30
0.00
  0
VERTEX
  8
L_wall
  10
1267.51
  20
-644.75
  30
0.00
  0
VERTEX
  8
L_wall
  10
1272.53
  20
-622.56
  30
0.00
  0
VERTEX
  8
L_wall
  10
1284.05
  20
-602.97
  30
0.00
  0
VERTEX
  8
L_wall
  10
1292.52
  20
-582.43
  30
0.00
  0
VERTEX
  8
L_wall
  10
1304.77
  20
-564.88
  30
0.00
  0
VERTEX
  8
L_wall
  10
1319.48
  20
-548.04
  30
0.00
  0
VERTEX
  8
L_wall
  10
1339.52
  20
-535.04
  30
0.00
  0
VERTEX
  8
L_wall
  10
1366.19
  20
-523.21
  30
0.00
  0
SEQEND
  0
POLYLINE
  8
L_wall
  66
1
  70
0
  0
VERTEX
  8
L_wall
  10
1366.19
  20
-523.21
  30
0.00
  0
VERTEX
  8
L_wall
  10
1391.77
  20
-534.33
  30
0.00
  0
VERTEX
  8
L_wall
  10
1417.81
  20
-535.39
  30
0.00
  0
VERTEX
  8
L_wall
  10
1441.71
  20
-535.39
  30
0.00
  0
VERTEX
  8
L_wall
  10
1464.71
  20
-534.33
  30
0.00
  0
VERTEX
  8
L_wall
  10
1487.49
  20
-532.21
  30
0.00
  0
VERTEX
  8
L_wall
  10
1512.45
  20
-526.91
  30
0.00
  0
VERTEX
  8
L_wall
  10
1532.67
  20
-519.15
  30
0.00
  0
VERTEX
  8
L_wall
  10
1550.66
  20
-503.27
  30
0.00
  0
VERTEX
  8
L_wall
  10
1568.50
  20
-490.88
  30
0.00
  0
VERTEX
  8
L_wall
  10
1587.75
  20
-479.94
  30
0.00
  0
VERTEX
  8
L_wall
  10
1611.23
  20
-474.73
  30
0.00
  0
VERTEX
  8
L_wall
  10
1625.54
  20
-474.98
  30
0.00
  0
SEQEND
  0
POLYLINE
  8
L_wall
  66
1
  70
0
  0
VERTEX
  8
L_wall
  10
1625.54
  20
-474.98
  30
0.00
  0
VERTEX
  8
L_wall
  10
1650.40
  20
-480.81
  30
0.00
  0
VERTEX
  8
L_wall
  10
1677.41
  20
-468.10
  30
0.00
  0
VERTEX
  8
L_wall
  10
1697.60
  20
-457.65
  30
0.00
  0
VERTEX
  8
L_wall
  10
1719.67
  20
-455.91
  30
0.00
  0
VERTEX
  8
L_wall
  10
1741.50
  20
-454.85
  30
0.00
  0
VERTEX
  8
L_wall
  10
1764.79
  20
-458.03
  30
0.00
  0
VERTEX
  8
L_wall
  10
1788.11
  20
-458.03
  30
0.00
  0
VERTEX
  8
L_wall
  10
1809.89
  20
-454.78
  30
0.00
  0
VERTEX
  8
L_wall
  10
1831.54
  20
-446.37
  30
0.00
  0
VERTEX
  8
L_wall
  10
1849.57
  20
-430.29
  30
0.00
  0
VERTEX
  8
L_wall
  10
1873.77
  20
-413.32
  30
0.00
  0
VERTEX
  8
L_wall
  10
1886.42
  20
-409.33
  30
0.00
  0
SEQEND
  0
POLYLINE
  8
L_wall
  66
1
  70
0
  0
VERTEX
  8
L_wall
  10
1886.42
  20
-409.33
  30
0.00
  0
VERTEX
  8
L_wall
  10
1894.04
  20
-398.15
  30
0.00
  0
VERTEX
  8
L_wall
  10
1915.53
  20
-387.66
  30
0.00
  0
VERTEX
  8
L_wall
  10
1939.43
  20
-387.02
  30
0.00
  0
VERTEX
  8
L_wall
  10
1962.72
  20
-387.02
  30
0.00
  0
VERTEX
  8
L_wall
  10
1983.72
  20
-381.72
  30
0.00
  0
VERTEX
  8
L_wall
  10
2002.86
  20
-371.13
  30
0.00
  0
VERTEX
  8
L_wall
  10
2014.26
  20
-354.70
  30
0.00
  0
SEQEND
  0
POLYLINE
  8
L_wall
  66
1
  70
0
  0
VERTEX
  8
L_wall
  10
155.76
  20
-382.90
  30
0.00
  0
VERTEX
  8
L_wall
  10
141.80
  20
-382.37
  30
0.00
  0
VERTEX
  8
L_wall
  10
130.69
  20
-384.23
  30
0.00
  0
VERTEX
  8
L_wall
  10
120.62
  20
-389.76
  30
0.00
  0
VERTEX
  8
L_wall
  10
109.68
  20
-392.40
  30
0.00
  0
VERTEX
  8
L_wall
  10
99.06
  20
-391.34
  30
0.00
  0
VERTEX
  8
L_wall
  10
86.97
  20
-391.87
  30
0.00
  0
VERTEX
  8
L_wall
  10
75.95
  20
-396.09
  30
0.00
  0
VERTEX
  8
L_wall
  10
64.80
  20
-395.56
  30
0.00
  0
VERTEX
  8
L_wall
  10
56.70
  20
-389.23
  30
0.00
  0
VERTEX
  8
L_wall
  10
51.09
  20
-380.33
  30
0.00
  0
VERTEX
  8
L_wall
  10
50.26
  20
-368.52
  30
0.00
  0
VERTEX
  8
L_wall
  10
51.32
  20
-357.22
  30
0.00
  0
VERTEX
  8
L_wall
  10
51.05
  20
-344.11
  30
0.00
  0
VERTEX
  8
L_wall
  10
51.32
  20
-331.44
  30
0.00
  0
VERTEX
  8
L_wall
  10
47.89
  20
-317.46
  30
0.00
  0
VERTEX
  8
L_wall
  10
47.62
  20
-305.67
  30
0.00
  0
VERTEX
  8
L_wall
  10
47.06
  20
-291.40
  30
0.00
  0
VERTEX
  8
L_wall
  10
41.96
  20
-280.66
  30
0.00
  0
VERTEX
  8
L_wall
  10
40.24
  20
-268.39
  30
0.00
  0
VERTEX
  8
L_wall
  10
38.49
  20
-256.28
  30
0.00
  0
VERTEX
  8
L_wall
  10
38.13
  20
-243.77
  30
0.00
  0
VERTEX
  8
L_wall
  10
38.13
  20
-232.49
  30
0.00
  0
VERTEX
  8
L_wall
  10
37.07
  20
-218.97
  30
0.00
  0
VERTEX
  8
L_wall
  10
31.69
  20
-207.46
  30
0.00
  0
VERTEX
  8
L_wall
  10
37.87
  20
-198.45
  30
0.00
  0
VERTEX
  8
L_wall
  10
45.74
  20
-196.94
  30
0.00
  0
SEQEND
  0
POLYLINE
  8
L_wall
  66
1
  70
0
  0
VERTEX
  8
L_wall
  10
45.74
  20
-196.94
  30
0.00
  0
VERTEX
  8
L_wall
  10
62.66
  20
-206.36
  30
0.00
  0
VERTEX
  8
L_wall
  10
68.71
  20
-217.69
  30
0.00
  0
VERTEX
  8
L_wall
  10
69.46
  20
-228.88
  30
0.00
  0
VERTEX
  8
L_wall
  10
68.20
  20
-240.52
  30
0.00
  0
VERTEX
  8
L_wall
  10
68.99
  20
-252.01
  30
0.00
  0
VERTEX
  8
L_wall
  10
69.78
  20
-266.50
  30
0.00
  0
VERTEX
  8
L_wall
  10
70.31
  20
-280.67
  30
0.00
  0
VERTEX
  8
L_wall
  10
71.42
  20
-291.24
  30
0.00
  0
VERTEX
  8
L_wall
  10
74.53
  20
-304.79
  30
0.00
  0
VERTEX
  8
L_wall
  10
77.16
  20
-319.33
  30
0.00
  0
VERTEX
  8
L_wall
  10
79.27
  20
-331.51
  30
0.00
  0
VERTEX
  8
L_wall
  10
81.91
  20
-342.48
  30
0.00
  0
VERTEX
  8
L_wall
  10
82.48
  20
-353.43
  30
0.00
  0
VERTEX
  8
L_wall
  10
91.62
  20
-359.52
  30
0.00
  0
VERTEX
  8
L_wall
  10
101.93
  20
-362.48
  30
0.00
  0
VERTEX
  8
L_wall
  10
113.23
  20
-360.47
  30
0.00
  0
SEQEND
  0
ENDSEC
  0
EOF
