<?xml version="1.0" encoding="utf-8"?>
<!DOCTYPE svg PUBLIC "-//W3C//DTD SVG 1.1//EN" "http://www.w3.org/Graphics/SVG/1.1/DTD/svg11.dtd">
<svg version="1.1" id="Layer_1" xmlns="http://www.w3.org/2000/svg" xmlns:xlink="http://www.w3.org/1999/xlink" x="0px" y="0px" width="131mm" height="87mm" viewBox="0 0 131 87" enable-background="new 0 0 131 87" xml:space="preserve">
<symbol id="airflow" viewBox="-12 -12 24 24">
<path d="M-4.38,10.73l4.2-3.84V3.55L-4.07,7.13l-.31-.29L-.18,3V-6.89a3.37,3.37,0,0,0-1.68.53l1.68-4.15L0-11l.21.51h0v0l1.65,4.1A3.26,3.26,0,0,0,.24-6.89v14l-.08,0L-4.07,11Z"/>
<rect fill="none" x="-12" y="-12" width="24" height="24"/>
</symbol>
<symbol id="anastomosis" viewBox="-12 -12 24 24">
<path d="M2.23-4.78l.37.24L5.22-2.78l-.47.57L2.49-3.7l-4.61,8-.24.44-.37-.34L-5.22,2.3l.55-.52,2.1,1.82L2-4.39Z"/>
<rect fill="none" x="-12" y="-12" width="24" height="24"/>
</symbol>
<symbol id="bivouac" viewBox="-12 -12 24 24">
<path d="M.25-7.66l.24.58L.54-7l3.88.48-3.31.91L6,6H8.35v.48l-16.7.07V6.05h2.64L0-7.08Zm0,1.32L-5.13,6H-4l2.07-5L.2-4l2.09,5L4.37,6H5.44Z"/>
<rect fill="none" x="-12" y="-12" width="24" height="24"/>
</symbol>
<symbol id="bones" viewBox="-12 -12 24 24">
<path d="M2.44,4.27l-.16,0H2.13a.22.22,0,0,1-.11,0l-.1-.06a.39.39,0,0,1-.09-.11l-.08-.13a1.51,1.51,0,0,1-.06-.15l-.07-.17s0-.11-.08-.19-.06-.16-.08-.21a4.75,4.75,0,0,0-.38-.71c-.18-.29-.43-.64-.74-1A11.15,11.15,0,0,0-.7.32,6.73,6.73,0,0,0-2-.64a4.12,4.12,0,0,0-1.44-.52A1.64,1.64,0,0,1-5-2.19.72.72,0,0,1-5-2.44a1,1,0,0,1,0-.29A.52.52,0,0,1-4.87-3a.54.54,0,0,1,.35-.15L-4-3.22l.46,0a.54.54,0,0,0,.27-.06A.52.52,0,0,0-3-3.56a.74.74,0,0,0,.13-.31.54.54,0,0,1,.15-.26.54.54,0,0,1,.3-.15.83.83,0,0,1,.47,0,1.11,1.11,0,0,1,.35.4A7.46,7.46,0,0,1-1-2.76q.18.42.33.72a3.22,3.22,0,0,0,.39.57L.1-1a4.77,4.77,0,0,0,.58.43c.28.18.51.33.69.43l1,.56a1.84,1.84,0,0,0,.39.23A5.29,5.29,0,0,1,3.22.9l.43.26a3.7,3.7,0,0,1,.46.3l.36.29a2.28,2.28,0,0,1,.31.32A1,1,0,0,1,5,2.4c.2.48,0,.78-.47.91h0a8.48,8.48,0,0,0-1.12.09,1,1,0,0,0-.42.44A1,1,0,0,1,2.44,4.27Z"/>
<rect fill="none" x="-12" y="-12" width="24" height="24"/>
</symbol>
<symbol id="calcite" viewBox="-12 -12 24 24">
<path d="M2.36-2.22l.05.46.34,3.91L2,2.22,1.65-1.26-2.52-.06l-.23-.7L1.89-2.08Z"/>
<rect fill="none" x="-12" y="-12" width="24" height="24"/>
</symbol>
<symbol id="cauliflower" viewBox="-12 -12 24 24">
<path d="M5.58,3.22v-3A2.12,2.12,0,0,0,6.92-.43a1.78,1.78,0,0,0,.55-1.32,1.92,1.92,0,0,0-.65-1.42,2.19,2.19,0,0,0-1.53-.59,2.21,2.21,0,0,0-1.54.59,1.78,1.78,0,0,0-.64,1.42A1.86,1.86,0,0,0,3.65-.43,2.12,2.12,0,0,0,5,.23v3H.26v-3A2.17,2.17,0,0,0,1.61-.43a1.81,1.81,0,0,0,.54-1.32,1.91,1.91,0,0,0-.64-1.42A2.21,2.21,0,0,0,0-3.76a2.21,2.21,0,0,0-1.54.59,1.82,1.82,0,0,0-.64,1.42A1.83,1.83,0,0,0-1.66-.43,2.12,2.12,0,0,0-.32.23v3H-5v-3A2.12,2.12,0,0,0-3.71-.43a1.78,1.78,0,0,0,.55-1.32,1.92,1.92,0,0,0-.65-1.42,2.19,2.19,0,0,0-1.53-.59,2.21,2.21,0,0,0-1.54.59,1.83,1.83,0,0,0-.65,1.42A1.87,1.87,0,0,0-7-.43,2.12,2.12,0,0,0-5.64.23v3H-8v.54H8V3.22Z"/>
<rect fill="none" x="-12" y="-12" width="24" height="24"/>
</symbol>
<symbol id="clay" viewBox="-12 -12 24 24">
<path d="M1.85-1.33a3,3,0,0,1,1.67.48,3.23,3.23,0,0,1,1,1l.29.51-1,.43a3.81,3.81,0,0,0-.23-.4A3.74,3.74,0,0,0,2.93,0,1.77,1.77,0,0,0,1.85-.32a2.57,2.57,0,0,0-1.1.15A.86.86,0,0,0,.51.14,2.23,2.23,0,0,1,0,.88a2.55,2.55,0,0,1-1.45.43,3.16,3.16,0,0,1-2.75-1,4.28,4.28,0,0,1-.37-.57,3.91,3.91,0,0,1-.21-.47l0-.16,1-.22a1.87,1.87,0,0,0,.45.79A2.12,2.12,0,0,0-1.51.33,1.82,1.82,0,0,0-.69.14l.21-.36A1.53,1.53,0,0,1,.17-1,3.76,3.76,0,0,1,1.85-1.33Z"/>
<rect fill="none" x="-12" y="-12" width="24" height="24"/>
</symbol>
<symbol id="crystals" viewBox="-12 -12 24 24">
<path d="M-2.94-5.38,0-.72,2.94-5.38,3.62-5,.68-.36H6.56V.36H.68L3.62,5l-.68.36L0,.72-2.94,5.38-3.62,5-.68.36H-6.56V-.36H-.68L-3.62-5Z"/>
<rect fill="none" x="-12" y="-12" width="24" height="24"/>
</symbol>
<symbol id="curtain" viewBox="-12 -12 24 24">
<path d="M3.57-6.69l.52.53L.39-3V-.33L.1-.26a3.79,3.79,0,0,0-1,.41c-.58.3-.87.65-.87,1v.07A1.61,1.61,0,0,0-.84,2.48a3.69,3.69,0,0,0,.45.24L0,2.86l.13.05L.39,3V6.12H-.39V3.51a7.65,7.65,0,0,1-.9-.46A2.19,2.19,0,0,1-2.54,1.28V1.23A2,2,0,0,1-1.31-.48,5.32,5.32,0,0,1-.39-.86V-3l-3.7-3.14.52-.53L0-3.67Z"/>
<rect fill="none" x="-12" y="-12" width="24" height="24"/>
</symbol>
<symbol id="disk" viewBox="-12 -12 24 24">
<path d="M-.09-4.19a2.43,2.43,0,0,1,1.7.64A2,2,0,0,1,2.35-2,2.09,2.09,0,0,1,1.81-.55,2.44,2.44,0,0,1,.35.23l2.18,3.6-.68.33L0,1.14-1.48,4.19l-.71-.29L-.41.25A2.53,2.53,0,0,1-1.9-.47a2,2,0,0,1-.63-1.41,2,2,0,0,1,.67-1.61,2.46,2.46,0,0,1,1.72-.7ZM1.05-3.06.56-3.49l-.69,0A1.72,1.72,0,0,0-1.29-3a1.51,1.51,0,0,0-.45,1.08,1.36,1.36,0,0,0,.51,1A1.68,1.68,0,0,0-.07-.44v0l0,0A1.7,1.7,0,0,0,1.11-.92,1.36,1.36,0,0,0,1.56-2,1.47,1.47,0,0,0,1.05-3.06Z"/>
<rect fill="none" x="-12" y="-12" width="24" height="24"/>
</symbol>
<symbol id="entrance" viewBox="-12 -12 24 24">
<path d="M4.46,9H-4.46L0-9Z"/>
<rect fill="none" x="-12" y="-12" width="24" height="24"/>
</symbol>
<symbol id="flowstone" viewBox="-12 -12 24 24">
<rect x="-6" y="-0.21" width="12" height="0.42"/>
<rect fill="none" x="-12" y="-12" width="24" height="24"/>
</symbol>
<symbol id="flutes" viewBox="-12 -12 24 24">
<path d="M-7-1H7v.72H3.87A4.7,4.7,0,0,1,2.16,1.5,4.2,4.2,0,0,1,0,2.13,3.94,3.94,0,0,1-2.19,1.5,4.18,4.18,0,0,1-3.76-.27H-7Zm4.17.72A3.15,3.15,0,0,0-1.65,1,3.21,3.21,0,0,0,0,1.41,3.49,3.49,0,0,0,1.6,1,3.68,3.68,0,0,0,3-.27Z"/>
<rect fill="none" x="-12" y="-12" width="24" height="24"/>
</symbol>
<symbol id="gradient" viewBox="-12 -12 24 24">
<path d="M2.58-3.83,0-10-2.58-3.83A4.74,4.74,0,0,1-.17-4.5V10H.25V-4.5A6.65,6.65,0,0,1,2.58-3.83Z"/>
<rect fill="none" x="-12" y="-12" width="24" height="24"/>
</symbol>
<symbol id="guano" viewBox="-12 -12 24 24">
<path d="M-3.24-3a2.15,2.15,0,0,1,1.57.55A3.93,3.93,0,0,1-.59.24a4.32,4.32,0,0,1,2.75-2.3,2.68,2.68,0,0,1,2.23.36A2.36,2.36,0,0,1,5.5.19l-.79,0a1.72,1.72,0,0,0-.79-1.37,1.94,1.94,0,0,0-1.55-.24A3.53,3.53,0,0,0,.48,0,6.63,6.63,0,0,0-.69,3l-.79-.09a10.72,10.72,0,0,0,0-3.16A3.21,3.21,0,0,0-2.22-2,1.44,1.44,0,0,0-3.37-2.3,3.45,3.45,0,0,0-5-1.54l-.5-.55a4.29,4.29,0,0,1,2-.91A.9.9,0,0,1-3.24-3Z"/>
<rect fill="none" x="-12" y="-12" width="24" height="24"/>
</symbol>
<symbol id="helictites" viewBox="-12 -12 24 24">
<path d="M-4.59-7.92h.79v7.7l3.41,0V-7.92H.39V-.17L4.2-.12h.39v8H3.8V.6L.39.55V7.92H-.39V.55L-4.2.5l-.39,0v-8.4Z"/>
<rect fill="none" x="-12" y="-12" width="24" height="24"/>
</symbol>
<symbol id="human" viewBox="-12 -12 24 24">
<path d="M-3.59-3.29A5.13,5.13,0,0,1,0-4.66,5.13,5.13,0,0,1,3.59-3.29,4.3,4.3,0,0,1,5.09,0a4.3,4.3,0,0,1-1.5,3.29A5.13,5.13,0,0,1,0,4.66,5.13,5.13,0,0,1-3.59,3.29,4.3,4.3,0,0,1-5.09,0,4.3,4.3,0,0,1-3.59-3.29Zm.28.77A3.68,3.68,0,0,0-4.3,0a3.62,3.62,0,0,0,1,2.57L-.5.05ZM0-3.94A4.42,4.42,0,0,0-2.75-3L.16-.36H4.28A3.62,3.62,0,0,0,2.91-2.9,4.38,4.38,0,0,0,0-3.94ZM.16.46-2.7,3.07A4.42,4.42,0,0,0,0,3.94a4.37,4.37,0,0,0,2.87-1A3.78,3.78,0,0,0,4.28.46Z"/>
<rect fill="none" x="-12" y="-12" width="24" height="24"/>
</symbol>
<symbol id="karren" viewBox="-12 -12 24 24">
<path d="M1-5.84h0a1.37,1.37,0,0,1,1.06.68A3.33,3.33,0,0,1,2.5-3.79,25.79,25.79,0,0,1,2.36,0a18.61,18.61,0,0,0-.08,3.72,2.68,2.68,0,0,0,.41,1.2,1.13,1.13,0,0,0,.79.5A.92.92,0,0,0,4,4.94a4.43,4.43,0,0,0,.47-1.22c.16-.64.36-1.86.59-3.66a26.71,26.71,0,0,1,.64-3.69,4.62,4.62,0,0,1,.57-1.29,1.34,1.34,0,0,1,1-.59h0A1.28,1.28,0,0,1,8.37-5a2.17,2.17,0,0,1,.39,1.15A19.91,19.91,0,0,1,8.54-.53a21.51,21.51,0,0,0-.2,3.64A2.64,2.64,0,0,0,9.45,5.36,1.91,1.91,0,0,0,10.88,5a3.84,3.84,0,0,0,.7-1l.42.2-.1.18-.12.21-.11.18L11.52,5a.94.94,0,0,1-.14.16c-.06.07-.13.12-.19.18a2.5,2.5,0,0,1-1.85.41H9.29l0,0A3.06,3.06,0,0,1,7.87,3.13a22.11,22.11,0,0,1,.2-3.7,18.17,18.17,0,0,0,.22-3.28A1.85,1.85,0,0,0,8-4.79a.77.77,0,0,0-.67-.3.93.93,0,0,0-.64.42,4.51,4.51,0,0,0-.51,1.15A26.26,26.26,0,0,0,5.54.1c-.24,1.83-.45,3.07-.61,3.72a5.38,5.38,0,0,1-.51,1.34,1.33,1.33,0,0,1-.89.68H3.47A1.58,1.58,0,0,1,2.3,5.16a3.29,3.29,0,0,1-.49-1.4A20.27,20.27,0,0,1,1.89,0,23.45,23.45,0,0,0,2-3.75a2.94,2.94,0,0,0-.32-1.19A.93.93,0,0,0,1-5.42,1.1,1.1,0,0,0,.19-5,3.69,3.69,0,0,0-.43-3.76,20.78,20.78,0,0,0-1.07.07c-.2,2-.37,3.32-.49,3.86A4.48,4.48,0,0,1-2,5.26,1.06,1.06,0,0,1-3,5.81h0a1.9,1.9,0,0,1-1.29-.67,2.7,2.7,0,0,1-.58-1.31,14.92,14.92,0,0,1,0-3.6q0-.12.06-.54c0-.28,0-.47,0-.57s0-.28,0-.52,0-.42,0-.55,0-.28,0-.47,0-.36,0-.51,0-.29,0-.43A3.09,3.09,0,0,0-5-4.62a1.19,1.19,0,0,0-.67-.6,1.5,1.5,0,0,0-1.2.9A7,7,0,0,0-7.41-2.1c0,.39-.1,1-.14,1.76s-.11,1.47-.18,2.08A9.61,9.61,0,0,1-8,3.32h0l0,0A2.81,2.81,0,0,1-9.2,4.62a1.82,1.82,0,0,1-1.35.15A1.94,1.94,0,0,1-11.61,4,2.39,2.39,0,0,1-12,2.56l.47,0a1.92,1.92,0,0,0,.31,1.16,1.47,1.47,0,0,0,.81.62,1.3,1.3,0,0,0,1-.11A2.32,2.32,0,0,0-8.5,3.18a7.53,7.53,0,0,0,.29-1.5Q-8.1.8-8-.36c0-.78.1-1.37.16-1.78A7.23,7.23,0,0,1-7.28-4.5,1.93,1.93,0,0,1-5.65-5.66h.05l0,0a1.59,1.59,0,0,1,1,.84,3.47,3.47,0,0,1,.34,1.41,4.91,4.91,0,0,1,0,.57v.54c0,.15,0,.37,0,.66s0,.47,0,.58,0,.33-.06.68,0,.56-.06.63a14.78,14.78,0,0,0,0,3.49,2.58,2.58,0,0,0,.5,1.13,1.57,1.57,0,0,0,1,.5A.61.61,0,0,0-2.44,5,3.89,3.89,0,0,0-2,3.85C-1.9,3.31-1.74,2-1.53,0A20.65,20.65,0,0,1-.86-3.89,3.89,3.89,0,0,1-.18-5.26,1.58,1.58,0,0,1,1-5.84Z"/>
<rect fill="none" x="-12" y="-12" width="24" height="24"/>
</symbol>
<symbol id="moonmilk" viewBox="-12 -12 24 24">
<path d="M-4.78-3.06a3.39,3.39,0,0,1,1.5.34,2.48,2.48,0,0,1,1.1,1,3.74,3.74,0,0,1,1.62-.8,3.52,3.52,0,0,1,1.71,0,2.9,2.9,0,0,1,1.39.77A2.49,2.49,0,0,1,3.25-.37,4,4,0,0,1,5-.76a3.58,3.58,0,0,1,1.6.36A2.84,2.84,0,0,1,7.88.92a2.32,2.32,0,0,1,0,1.88.34.34,0,0,1-.37.26A.36.36,0,0,1,7.25,3a.32.32,0,0,1-.12-.25.21.21,0,0,1,0-.12,2,2,0,0,0,0-1.43,2,2,0,0,0-1-.9A2.81,2.81,0,0,0,4.68,0,2.78,2.78,0,0,0,3.12.56L2.46.25A1.7,1.7,0,0,0,2.15-1.1,2.15,2.15,0,0,0,1-1.81a2.85,2.85,0,0,0-1.58.06A3,3,0,0,0-2-.83l-.71-.12A1.74,1.74,0,0,0-3.55-2a2.36,2.36,0,0,0-1.39-.27,3.08,3.08,0,0,0-1.45.53A2.33,2.33,0,0,0-7.32-.56a.35.35,0,0,1-.37.24A.39.39,0,0,1-8-.42a.33.33,0,0,1-.1-.26v-.1A3,3,0,0,1-6.89-2.35,4,4,0,0,1-5-3Z"/>
<rect fill="none" x="-12" y="-12" width="24" height="24"/>
</symbol>
<symbol id="narrow" viewBox="-12 -12 24 24">
<path d="M-1.5,5V-5h0.64V5H-1.5z"/>
<path d="M0.86,5V-5H1.5V5H0.86z"/>
<rect fill="none" x="-12" y="-12" width="24" height="24"/>
</symbol>
<symbol id="paleoflow" viewBox="-12 -12 24 24">
<path d="M.38-12V.17A1.9,1.9,0,0,0,1,0,1.57,1.57,0,0,0,1.7-.72a1.86,1.86,0,0,0,.23-1c0-.09,0-.14.08-.16a.92.92,0,0,1,.24,0,.52.52,0,0,0,.25,0h.08A2.48,2.48,0,0,1,2,0,2.5,2.5,0,0,1,.38.77V7.21H2.09L0,12-1.8,7.23c.07,0,.59,0,1.53,0V.77A3,3,0,0,1-1.35.43a2.16,2.16,0,0,1-1-1,2.38,2.38,0,0,1-.24-1.33l.67,0a2,2,0,0,0,.15,1,1.73,1.73,0,0,0,.59.67A2.14,2.14,0,0,0-.27.16V-12Z"/>
<rect fill="none" x="-12" y="-12" width="24" height="24"/>
</symbol>
<symbol id="rain" viewBox="-12 -12 24 24">
<path d="M-4.14-6.34h0.71v4.69h-0.71V-6.34z"/>
<path d="M-0.35-6.34h0.71v4.69h-0.71V-6.34z"/>
<path d="M3.43-6.34h0.71v4.69H3.43V-6.34z"/>
<path d="M-4.14,1.65h0.71v4.69h-0.71V1.65z"/>
<path d="M-0.35,1.65h0.71v4.69h-0.71V1.65z"/>
<path d="M3.43,1.65h0.71v4.69H3.43V1.65z"/>
<rect fill="none" x="-12" y="-12" width="24" height="24"/>
</symbol>
<symbol id="rats" viewBox="-12 -12 24 24">
<path d="M8.78-2.32,7-2.27c-.51-.17-.65-.56-1.46-.45l-.25.45C3.59-2.75,2.59-3.66.56-3.62l-1.35.3A4.89,4.89,0,0,0-4.24,1.57c-.68.6-2.58.86-3.39.94a6.84,6.84,0,0,0-1.62.39,4.91,4.91,0,0,0-1,.52A1.75,1.75,0,0,0-11,4.61a1.16,1.16,0,0,0,.59,1.48,1.3,1.3,0,0,1,.14.12c.16-.52-.35-.92-.2-1.42a3.35,3.35,0,0,1,.27-.45,3.18,3.18,0,0,1,1.79-1c.63-.12,1.27-.22,1.91-.3.48-.07,1,0,1.4-.12A6.94,6.94,0,0,1-4,2.82,30.64,30.64,0,0,0,.41,2.69l2.16.15c.1-.09,0,0,.1-.15a.87.87,0,0,0-.9-.55c.86-1,2.27-.37,3.1-.05.5.19,1,0,1.25.4.11-.1.1-.07.15-.25.3,0,.31.07.6.15-.06-.49-.34-.64-1-.6a.78.78,0,0,1,0-.55C6.3.56,7.29.73,8.13.43a13.78,13.78,0,0,0,2.15-.9l.6-.85v-.2A16.9,16.9,0,0,0,8.78-2.32Z"/>
<rect fill="none" x="-12" y="-12" width="24" height="24"/>
</symbol>
<symbol id="sand" viewBox="-12 -12 24 24">
<path d="M-1.58,0.83c0.23,0.2,0.35,0.44,0.36,0.73c0.01,0.29-0.08,0.54-0.28,0.75c-0.2,0.21-0.46,0.32-0.78,0.33c-0.32,0.01-0.6-0.08-0.83-0.26C-3.36,2.19-3.49,1.95-3.5,1.67C-3.51,1.38-3.41,1.12-3.2,0.9c0.21-0.22,0.48-0.34,0.8-0.35C-2.08,0.54-1.81,0.64-1.58,0.83z"/>
<path d="M0.08-2.36c0.23,0.2,0.35,0.44,0.36,0.73c0.01,0.29-0.08,0.54-0.28,0.75c-0.2,0.21-0.46,0.32-0.78,0.33c-0.32,0.01-0.59-0.07-0.83-0.26s-0.37-0.42-0.38-0.71c-0.01-0.29,0.09-0.54,0.3-0.76c0.21-0.22,0.48-0.33,0.8-0.35C-0.42-2.65-0.14-2.56,0.08-2.36z"/>
<path d="M3.12,0.55c0.23,0.2,0.35,0.43,0.38,0.71c0.02,0.28-0.07,0.53-0.28,0.75C3,2.23,2.73,2.35,2.42,2.36C2.1,2.37,1.82,2.28,1.58,2.08C1.34,1.88,1.22,1.64,1.2,1.35c-0.01-0.29,0.09-0.54,0.3-0.75C1.72,0.4,1.99,0.29,2.3,0.28S2.89,0.36,3.12,0.55z"/>
<rect fill="none" x="-12" y="-12" width="24" height="24"/>
</symbol>
<symbol  id="scallops" viewBox="-12 -12 24 24">
<path d="M.05-3.74l.21,0A2.35,2.35,0,0,1,1.74-3a2,2,0,0,1,.59,1.55v0l0,0A9.59,9.59,0,0,1-.08,3.27l-.39.47-.27-.55A14.26,14.26,0,0,1-2.33-1.89v-.05l0-.05A2,2,0,0,1-1.44-3.3,2.42,2.42,0,0,1,.05-3.74ZM-.11-3A1.44,1.44,0,0,0-1.55-1.89,13.06,13.06,0,0,0-.29,2.33,8.6,8.6,0,0,0,1.55-1.54a1.41,1.41,0,0,0-.38-1A1.62,1.62,0,0,0,.18-3Z"/>
<rect fill="none" x="-12" y="-12" width="24" height="24"/>
</symbol>
<symbol  id="sink" viewBox="-12 -12 24 24">
<path d="M.72,9.41H.9c1.94,0,3.26-.54,3.94-1.51a3.61,3.61,0,0,0,.33-.69,2,2,0,0,0,.11-.54V6.46l.69,0a2.8,2.8,0,0,1-.58,1.78C4.58,9.39,3.1,10,.93,10H-.93q-3.25,0-4.46-1.8a2.74,2.74,0,0,1-.43-.83A2.37,2.37,0,0,1-6,6.67V6.43l.68,0A2.27,2.27,0,0,0-4.84,7.9c.68,1,2,1.47,3.93,1.48l.5,0ZM-1.46-10a.68.68,0,0,0,.16.41A2.77,2.77,0,0,0-.51-9l0,0a3.63,3.63,0,0,1,1,.7,1.15,1.15,0,0,1,.34.88c0,.58-.53,1.14-1.49,1.68-.68.42-1,.79-1,1.11s.3.61.84,1h0Q.61-2.86.46-1.78a3.51,3.51,0,0,1-1.55,2,.61.61,0,0,0-.26.41,1.67,1.67,0,0,0,.1.51,5.3,5.3,0,0,1,.32,1L.56,1.9.46,8.06-3.4,2.54l1.73-.28A6.16,6.16,0,0,0-2,1.39,1.7,1.7,0,0,1-2.09.58a1.21,1.21,0,0,1,.53-.82h0v0C-.75-.86-.33-1.38-.28-1.85s-.23-.87-.91-1.27h0C-2-3.6-2.37-4.1-2.4-4.61S-2-5.74-1.09-6.29C-.34-6.72.06-7.1.09-7.44a.67.67,0,0,0-.18-.43,3.17,3.17,0,0,0-.79-.58,2.93,2.93,0,0,1-1-.67A1.16,1.16,0,0,1-2.17-10Z"/>
<rect fill="none" x="-12" y="-12" width="24" height="24"/>
</symbol>
<symbol  id="spring" viewBox="-12 -12 24 24">
<path d="M-1.34-9.86,2.52-4.34.78-4.06a8,8,0,0,0,.29.87,1.4,1.4,0,0,1,.13.79,1.3,1.3,0,0,1-.52.84l0,0v0C-.13-.95-.55-.42-.61,0S-.37.91.31,1.3l0,0c.75.46,1.14,1,1.18,1.46S1.12,3.92.21,4.46C-.54,4.9-.94,5.29-1,5.64a.74.74,0,0,0,.18.43A3.2,3.2,0,0,0,0,6.62a3,3,0,0,1,1,.7,1.14,1.14,0,0,1,.31.86A1.74,1.74,0,0,1,.71,9.26H.92c1.92,0,3.22-.52,3.9-1.51a2.05,2.05,0,0,0,.35-.67,2.59,2.59,0,0,0,.1-.55l0-.19.65,0a2.84,2.84,0,0,1-.55,1.8C4.58,9.26,3.08,9.85.92,9.86H-.92c-2.17,0-3.66-.6-4.49-1.77a3.65,3.65,0,0,1-.4-.85A2.43,2.43,0,0,1-6,6.53V6.29l.66,0a2.08,2.08,0,0,0,.47,1.41c.68,1,2,1.5,3.91,1.51H-.4c.62-.43.94-.8,1-1.1a.76.76,0,0,0-.16-.43,3.25,3.25,0,0,0-.79-.51v0a3.8,3.8,0,0,1-1-.7,1.15,1.15,0,0,1-.34-.91q.06-.84,1.5-1.68c.68-.4,1-.77,1-1.1S.49,2.21,0,1.87c0,0,0,0,0,0C-1,1.32-1.44.69-1.34,0a3.58,3.58,0,0,1,1.55-2,.54.54,0,0,0,.23-.38A1.28,1.28,0,0,0,.37-3a4.57,4.57,0,0,1-.32-1l-1.49.24Z"/>
<rect fill="none" x="-12" y="-12" width="24" height="24"/>
</symbol>
<symbol  id="stalactite" viewBox="-12 -12 24 24">
<path d="M3.57-6.69l.52.53L.39-3V6.12H-.39V-3l-3.7-3.14.52-.53L0-3.67Z"/>
<rect fill="none" x="-12" y="-12" width="24" height="24"/>
</symbol>
<symbol  id="stalagmite" viewBox="-12 -12 24 24">
<path d="M.38-6.42V2.75L4.11,5.89l-.56.53L0,3.4l-3.57,3-.53-.53,3.7-3.14V-6.42Z"/>
<rect fill="none" x="-12" y="-12" width="24" height="24"/>
</symbol>
<symbol  id="stalagnate" viewBox="-12 -12 24 24">
<path d="M3.55-8.46l.56.53L.38-4.78v9L4.11,7.36l-.56.53L0,4.86l-3.57,3-.53-.53,3.7-3.14v-9l-3.7-3.15.53-.53L0-5.43Z"/>
<rect fill="none" x="-12" y="-12" width="24" height="24"/>
</symbol>
<symbol  id="straws" viewBox="-12 -12 24 24">
<path d="M-10.89-2.76H10.89V-2H9.63V.46H8.84V-2H8.29v5.6H7.5V-2H5.56V.7H4.77V-2H2.07V2.38H1.29V-2H-.1v3H-.89V-2H-3.2V4.11H-4V-2H-6.22L-6.16.75l-.79,0L-7-2H-8.32V2.33H-9.1V-2h-1.79Z"/>
<rect fill="none" x="-12" y="-12" width="24" height="24"/>
</symbol>
<symbol  id="water" viewBox="-12 -12 24 24">
<path d="M-1.72-9.86,2.11-4.32.38-4.06a6.49,6.49,0,0,0,.29.89,1.5,1.5,0,0,1,.13.79,1.2,1.2,0,0,1-.5.82h0l0,0C-.54-.94-1-.42-1,.05s.24.89.92,1.27h0c.77.48,1.17,1,1.19,1.49S.71,3.94-.2,4.49c-.75.43-1.13.81-1.15,1.15a.51.51,0,0,0,.18.43,2.66,2.66,0,0,0,.76.58,2.93,2.93,0,0,1,1,.67,1.16,1.16,0,0,1,.29.89C.84,8.75.42,9.3-.41,9.86l-.44-.55c.66-.45,1-.83,1-1.15A.47.47,0,0,0,0,7.75a2.84,2.84,0,0,0-.78-.53h0a3.87,3.87,0,0,1-1-.69,1.24,1.24,0,0,1-.34-.91c0-.58.54-1.14,1.52-1.68.66-.42,1-.79,1-1.11s-.3-.61-.84-1h0Q-1.9,1.06-1.74,0a3.44,3.44,0,0,1,1.54-2,.67.67,0,0,0,.27-.41A1.11,1.11,0,0,0,0-3a4.33,4.33,0,0,1-.31-1l-1.5.24Z"/>
<rect fill="none" x="-12" y="-12" width="24" height="24"/>
</symbol><symbol  id="tree" viewBox="-12 -12 24 24">
<path d="M7.4-5.04A4.271,4.271,0,0,0,7.7-6.627a4.3,4.3,0,0,0-4.3-4.3A4.279,4.279,0,0,0,.636-9.914,4.293,4.293,0,0,0-3.045-12a4.3,4.3,0,0,0-4.3,4.3,4.27,4.27,0,0,0,.421,1.845,4.3,4.3,0,0,0-3.645,4.244,4.3,4.3,0,0,0,4.3,4.3A4.282,4.282,0,0,0-3.946,2L-1.175,5.23h0L-1.612,12H.982L.757,6.376,4.119,2.827v0a4.272,4.272,0,0,0,2.15.58,4.3,4.3,0,0,0,4.3-4.3A4.3,4.3,0,0,0,7.4-5.04ZM-3.346,1.538h0A4.346,4.346,0,0,0-2.7.788a4.266,4.266,0,0,0,1.765.753l-.135,2.087ZM.69,4.7.563,1.544A4.258,4.258,0,0,0,2.321.805,4.3,4.3,0,0,0,3.378,2.279Z"/>
<rect fill="none" x="-12" y="-12" width="24" height="24"/>
</symbol><g>
<desc></desc>
<g>
<line fill="none" stroke="#dddddd" stroke-width="0.1mm" x1="0.00" y1="29.00" x2="131.00" y2="29.00" />
<text x="128.20" y="28.80" font-size=".2mm" fill="#000000">0m</text>
<line fill="none" stroke="#dddddd" stroke-width="0.1mm" x1="0.00" y1="9.00" x2="131.00" y2="9.00" />
<text x="128.20" y="8.80" font-size=".2mm" fill="#000000">10m</text>
<line fill="none" stroke="#dddddd" stroke-width="0.1mm" x1="0.00" y1="49.00" x2="131.00" y2="49.00" />
<text x="128.20" y="48.80" font-size=".2mm" fill="#000000">-10m</text>
<line fill="none" stroke="#dddddd" stroke-width="0.1mm" x1="0.00" y1="69.00" x2="131.00" y2="69.00" />
<text x="128.20" y="68.80" font-size=".2mm" fill="#000000">-20m</text>
</g>
<g>
<path fill="none" stroke="#000000" stroke-width="0.06mm" d="M19.512577,29.593685 C19.571476,29.633703 19.627865,29.677694 19.689276,29.71374 C19.972801,29.88015 20.710314,29.799425 20.878971,29.78524 C21.280582,29.751463 21.676075,29.657402 22.078299,29.631918 C22.663303,29.594852 23.250433,29.609207 23.836498,29.59785 C25.014284,29.541231 26.193583,29.51026 27.369856,29.427994 C27.588194,29.412724 27.80413,29.364384 28.014965,29.305616 C31.861471,28.23343 30.235603,28.78609 33.39644,27.256643 C33.664543,27.126913 34.22249,27.186247 34.46708,27.237854 C34.61385,27.268822 35.058815,27.392618 35.26682,27.525768 C35.576748,27.724169 35.76113,28.088934 35.864227,28.42952 C35.936905,28.669624 35.964706,28.922684 36.04791,29.159348 C36.175674,29.522764 36.353333,29.905104 36.671654,30.142355 C40.958797,33.337654 39.326813,32.392113 42.072754,33.84503 L42.072754,33.84503" /><path fill="none" stroke="#000000" stroke-width="0.06mm" d="M19.624687,29.044662 C20.201447,29.08285 20.777231,29.141066 21.354969,29.159227 C21.505295,29.163954 21.655117,29.135777 21.803806,29.113167 C22.414362,29.02032 23.01957,28.892155 23.632046,28.812962 C24.387917,28.715227 25.145727,28.621414 25.9069,28.582634 C26.639633,28.545303 27.876665,28.7675 28.682085,28.416943 C29.407091,28.101387 29.93199,27.331688 30.521841,26.921198 C31.16701,26.47221 31.861057,26.091028 32.573013,25.757938 C32.98651,25.564486 33.447693,25.495533 33.88036,25.349915 C34.17356,25.251232 34.4604,24.943535 34.643436,24.763298 C34.854008,24.555948 35.065212,24.253672 35.086266,23.944727 C35.11954,23.456392 35.11457,22.966108 35.117004,22.476646 C35.119743,21.925617 35.04574,21.645435 35.141975,21.18065 C35.19617,20.918919 35.42336,20.68343 35.684563,20.627941 C35.766464,20.610544 35.857506,20.624947 35.93371,20.657183 C36.08249,20.720125 36.230614,20.784899 36.375854,20.855625 C36.41018,20.872341 36.444706,20.891554 36.471287,20.91896 C36.541157,20.990997 36.598885,21.07389 36.66268,21.151356 L36.66268,21.151356" /><path fill="none" stroke="#000000" stroke-width="0.06mm" d="M36.487534,21.05871 C37.067192,21.966026 37.607582,23.10688 38.46501,23.855354 C39.306602,24.589998 40.358444,25.249617 41.32872,25.76268 C42.23793,26.243452 43.591324,26.151539 44.456047,26.25226 C44.944073,26.309103 45.317093,26.63925 45.627724,26.992914 C45.857376,27.254377 46.042404,27.492851 46.175568,27.805136 C46.242424,27.961927 46.293274,28.388689 46.316963,28.466366 C46.870697,30.281841 46.45084,28.281677 46.824745,30.397875 L46.824745,30.397875" /><path fill="none" stroke="#000000" stroke-width="0.06mm" d="M46.91673,37.71341 L46.78488,37.647682" /><path fill="none" stroke="#000000" stroke-width="0.06mm" d="M46.488407,30.860664 C46.490364,31.867125 46.499763,31.350641 46.456787,32.410004 L46.456787,32.410004" /><path fill="none" stroke="#000000" stroke-width="0.06mm" d="M46.491283,29.877594 C46.63813,30.159943 46.79595,30.312996 47.06893,30.487007 C47.13044,30.526217 47.332497,30.632696 47.43906,30.642666 C47.82773,30.679033 48.217697,30.699848 48.607018,30.72844 L48.607018,30.72844" /><path fill="none" stroke="#000000" stroke-width="0.06mm" d="M46.3418,31.09637 C46.633545,31.046198 46.930073,31.01856 47.217033,30.945852 C47.363815,30.908663 47.494537,30.824444 47.6353,30.768639 C47.680412,30.750753 47.755257,30.77439 47.784588,30.811954 C47.876038,30.929068 47.97222,31.043465 48.050156,31.169971 C48.16157,31.350819 48.250835,31.54441 48.351173,31.73163 L48.351173,31.73163" /><path fill="none" stroke="#000000" stroke-width="0.06mm" d="M46.28718,32.1628 C46.398453,32.57261 46.439644,32.744938 46.646515,33.04814 L46.646515,33.04814" /><path fill="none" stroke="#000000" stroke-width="0.06mm" d="M46.456787,32.910164 C48.07499,32.002556 47.520187,32.416298 48.24194,31.849483 L48.24194,31.849483" /><path fill="none" stroke="#000000" stroke-width="0.06mm" d="M47.540527,31.2171 C47.589523,29.527985 47.516598,30.477167 47.83949,28.377121 L47.83949,28.377121" /><path fill="none" stroke="#000000" stroke-width="0.06mm" d="M45.588646,25.054228 C45.704716,25.019089 45.908195,24.941599 45.967453,25.108786 C45.999233,25.198444 46.016014,25.263258 46.01808,25.357328 C46.02043,25.464352 45.97204,25.565155 46.067,25.647606 C46.10271,25.67861 46.13939,25.701662 46.186996,25.70583 C46.332603,25.718575 46.42633,25.571877 46.568924,25.56438 C46.648346,25.560207 46.70186,25.601406 46.774845,25.62608 C46.872097,25.658958 46.983246,25.646559 47.072033,25.595402 C47.17199,25.537807 47.265213,25.442078 47.295166,25.327991 C47.300484,25.307735 47.293198,25.178438 47.264084,25.18081 C47.176193,25.187977 47.091923,25.219067 47.005844,25.238194 L47.005844,25.238194" /><path fill="none" stroke="#000000" stroke-width="0.06mm" d="M47.008717,25.379044 L47.67851,25.436533" /><path fill="none" stroke="#000000" stroke-width="0.06mm" d="M47.899857,24.114275 C48.61785,24.361637 47.649452,24.877905 47.896416,25.016157 C47.922405,25.030706 47.962048,25.028708 47.98855,25.020363 C48.227707,24.945051 48.29408,24.82426 48.431664,24.620182 L48.431664,24.620182" /><path fill="none" stroke="#000000" stroke-width="0.06mm" d="M48.221817,25.241068 C48.36284,25.31002 48.49719,25.384525 48.623013,25.256002 C48.733356,25.143291 48.79872,25.02104 48.874912,24.876448 C48.942154,24.748833 48.983574,24.505947 48.998726,24.39737 C49.000366,24.385593 48.990486,24.36279 48.979492,24.367325 C48.90792,24.396862 48.809593,24.61648 48.789753,24.68686 C48.74194,24.856459 48.76018,25.04282 48.914497,25.15091 C48.99067,25.204262 49.08677,25.261503 49.179886,25.28286 C49.26568,25.30254 49.353737,25.310572 49.440662,25.324429 L49.440662,25.324429" /><path fill="none" stroke="#000000" stroke-width="0.06mm" d="M49.837364,24.703543 L49.874737,25.255442" /><path fill="none" stroke="#000000" stroke-width="0.06mm" d="M49.843117,24.499454 C49.931755,24.23634 49.956192,24.218956 50.190945,24.105652 L50.190945,24.105652" /><path fill="none" stroke="#000000" stroke-width="0.06mm" d="M50.406548,24.677671 C50.421215,24.75047 50.435886,24.823269 50.450558,24.896069 C50.460682,24.906586 50.46717,24.922737 50.480934,24.92762 C50.528572,24.944525 50.569183,24.877625 50.60807,24.862032 C50.718067,24.817926 50.81579,24.990559 50.86361,25.04848 L50.86361,25.04848" /><path fill="none" stroke="#000000" stroke-width="0.06mm" d="M51.19994,24.505203 C51.221436,24.567505 51.23964,24.631039 51.26442,24.692108 C51.277924,24.725384 51.309837,24.762243 51.33838,24.783537 C51.371582,24.808304 51.410713,24.823547 51.451138,24.83139 C51.678303,24.875462 51.574524,24.471506 51.403538,24.469147 C51.390686,24.468967 51.378166,24.47382 51.366016,24.478003 C51.29586,24.502151 51.226555,24.528713 51.156822,24.55407 L51.156822,24.55407" /><path fill="none" stroke="#000000" stroke-width="0.06mm" d="M52.119827,24.502329 C52.13688,24.621347 52.125175,24.786545 52.207382,24.894632 C52.336792,25.064787 52.618073,25.022278 52.779606,24.932583 C52.942726,24.842007 53.056248,24.626196 53.151825,24.49658 L53.151825,24.49658" /><path fill="none" stroke="#000000" stroke-width="0.06mm" d="M53.284058,24.539696 C53.262188,24.609497 53.24032,24.679296 53.21845,24.749096 C53.22323,24.761948 53.223103,24.77794 53.232788,24.787647 C53.265495,24.820436 53.449867,24.811779 53.375484,24.724188 C53.3254,24.66521 53.248653,24.644382 53.37681,24.668894 C53.465614,24.68588 53.55239,24.713745 53.64197,24.72603 C53.81269,24.749445 54.024815,24.709646 54.18382,24.692043 L54.18382,24.692043" /><path fill="none" stroke="#000000" stroke-width="0.06mm" d="M54.255684,24.275246 C54.269814,24.357426 54.280254,24.440327 54.298073,24.521786 C54.326622,24.652288 54.455246,24.59868 54.539032,24.586231 C54.57682,24.580616 54.61822,24.589535 54.65192,24.606724 C54.779396,24.671736 54.88521,24.906137 54.93123,24.976616 L54.93123,24.976616" /><path fill="none" stroke="#000000" stroke-width="0.06mm" d="M55.54352,24.217756 C55.509285,24.32825 55.464203,24.412973 55.46743,24.52372 C55.4777,24.876171 55.776367,24.679663 55.902916,24.509073 C55.97202,24.415918 56.04608,24.208935 55.908134,24.136742 C55.849907,24.106268 55.68988,24.080784 55.68405,24.183502 C55.67823,24.286127 55.76658,24.397516 55.840397,24.457413 C56.073532,24.646572 56.62999,24.70808 56.877357,24.758158 L56.877357,24.758158" /><path fill="none" stroke="#000000" stroke-width="0.06mm" d="M47.08058,26.330494 C47.122723,26.527449 47.164864,26.724403 47.20701,26.921358 C47.217247,26.930017 47.225044,26.942963 47.237724,26.947338 C47.288776,26.964962 47.391003,26.879883 47.453377,26.867819 C47.54963,26.8492 47.619194,26.931541 47.710716,26.937746 C47.936935,26.95308 48.44401,26.520645 48.448914,26.517334 L48.448914,26.517334" /><path fill="none" stroke="#000000" stroke-width="0.06mm" d="M48.90598,26.689804 C48.906254,26.848646 48.89269,26.992424 49.08839,26.983397 C49.138073,26.981106 49.18947,26.968792 49.23388,26.946026 C49.31874,26.90252 49.383133,26.83092 49.47473,26.800312 C49.649128,26.742035 49.84677,26.838415 49.996178,26.698345 C50.088837,26.611477 50.172386,26.515059 50.266907,26.430222 C50.307785,26.393528 50.35849,26.452627 50.370705,26.48403 C50.423416,26.619549 50.463097,26.759945 50.517063,26.894968 C50.524967,26.914745 50.55983,26.919798 50.57601,26.917923 C50.60276,26.914824 50.647,26.89387 50.665775,26.877735 C50.72767,26.824558 51.20014,26.195436 51.459858,26.452633 C51.49055,26.483027 51.52575,26.5365 51.539185,26.574715 C51.610756,26.778269 51.673317,26.984879 51.74038,27.18996 L51.74038,27.18996" /><path fill="none" stroke="#000000" stroke-width="0.06mm" d="M52.024963,25.692362 C52.042747,27.049118 51.94076,26.541906 52.11408,27.241701 L52.11408,27.241701" /><path fill="none" stroke="#000000" stroke-width="0.06mm" d="M51.659885,26.206892 C51.84575,26.121496 52.05844,26.009201 52.27398,26.036108 C52.428078,26.055346 52.57941,26.092474 52.73213,26.120657 L52.73213,26.120657" /><path fill="none" stroke="#000000" stroke-width="0.06mm" d="M52.677505,26.793283 C52.62618,26.863749 52.57141,26.931833 52.523518,27.004677 C52.46052,27.100494 52.429695,27.286316 52.557976,27.343657 C52.746307,27.427843 53.00006,27.314064 53.076584,27.127773 C53.125526,27.008627 53.067886,26.83825 52.917343,26.850788 C52.79181,26.861244 52.920868,26.93505 52.959114,26.956985 C53.044903,27.00619 53.170326,27.070347 53.273438,27.08297 C53.598217,27.122725 53.68228,27.099867 54.00847,27.074982 L54.00847,27.074982" /><path fill="none" stroke="#000000" stroke-width="0.06mm" d="M41.876656,33.702316 C41.838432,33.7704 41.804897,33.84134 41.76198,33.906567 C41.740692,33.938915 41.718117,33.973488 41.685013,33.993572 C39.375294,35.39472 39.989956,35.096127 38.958897,35.58797 L38.958897,35.58797" /><path fill="none" stroke="#000000" stroke-width="0.06mm" d="M39.89028,36.614155 C40.54009,36.077614 39.785725,36.715343 40.66895,35.893394 C40.737476,35.829624 41.04699,35.694393 41.048885,35.693207 C41.456932,35.438034 41.4328,35.35069 41.825127,35.22905 C42.847137,34.912178 42.279984,35.176384 42.782166,34.92684 L42.782166,34.92684" /><path fill="none" stroke="#000000" stroke-width="0.06mm" d="M42.546448,35.07919 C42.638252,35.05217 42.72716,35.011898 42.821865,34.998135 C43.201897,34.942894 43.6006,34.918777 43.932228,35.138268 C44.26511,35.358593 44.32753,35.657738 44.364082,36.043156 C44.389294,36.309006 44.331604,36.787903 44.597446,36.995426 C44.71561,37.08767 44.885212,37.100113 45.028297,37.08479 C45.136917,37.07316 45.246586,37.039017 45.342594,36.98707 C46.065636,36.59584 46.275536,35.673386 46.558395,34.97927 C46.640762,34.777145 46.986885,34.54397 47.09708,34.460426 C47.15645,34.41542 47.299644,34.341133 47.381836,34.327168 C49.24034,34.011322 48.391655,34.2287 49.12075,34.035755 L49.12075,34.035755" /><path fill="none" stroke="#000000" stroke-width="0.06mm" d="M37.162247,36.303715 C37.205986,36.29047 37.363796,36.130714 37.46661,36.16145 C37.61154,36.20478 37.562866,36.542507 37.564613,36.646393 C37.568626,36.885468 37.805176,37.060127 38.03251,37.03707 C38.110016,37.02921 38.18775,37.01913 38.26326,36.999954 C38.47412,36.946404 38.68856,36.82129 38.875534,36.729134 L38.875534,36.729134" /><path fill="none" stroke="#000000" stroke-width="0.06mm" d="M38.05626,37.591476 C38.011223,37.617443 37.918667,37.652466 37.876663,37.70708 C37.85281,37.738094 37.840466,37.779896 37.842186,37.818905 C37.849625,37.987396 37.9612,38.098904 38.128826,38.11508 C38.3585,38.137245 38.63092,37.991676 38.739456,37.787613 C38.867764,37.546375 38.71713,37.442738 38.485718,37.41181 C38.41638,37.402546 38.327446,37.413315 38.26642,37.45012 C37.99584,37.61329 37.844242,37.828934 37.67106,38.08301 L37.67106,38.08301" /><path fill="none" stroke="#000000" stroke-width="0.06mm" d="M48.33411,30.872917 C48.95201,30.756268 49.569916,30.639618 50.18782,30.522968 C50.29283,30.483027 50.403328,30.455267 50.502857,30.403141 C51.40645,29.929914 51.858524,29.572971 52.69258,28.815857 C53.212635,28.343779 53.70247,27.838594 54.182125,27.32552 C54.33016,27.167173 54.44678,26.982006 54.57224,26.805237 C55.04153,26.144007 55.52713,25.49342 55.96621,24.811752 C56.214184,24.426777 56.395004,24.00198 56.63076,23.609402 C56.77494,23.369308 56.990353,23.214186 57.20424,23.04502 L57.20424,23.04502" /><path fill="none" stroke="#000000" stroke-width="0.06mm" d="M48.873062,34.0944 C49.45755,34.168144 50.046455,34.21274 50.62652,34.315636 C51.004303,34.38265 51.56864,34.597427 51.9006,34.813385 C52.475887,35.187634 52.99019,35.900444 53.178627,36.54447 C53.307167,36.983784 53.247696,37.644512 53.244675,37.99865 C53.24359,38.125603 53.211075,38.25256 53.223335,38.378925 C53.26439,38.802128 53.356453,39.21911 53.404076,39.64162 C53.445595,40.009995 53.45194,40.38168 53.490616,40.750362 C53.496284,40.804382 53.517963,40.855682 53.53679,40.90663 C53.637733,41.17981 53.94931,41.27441 54.217457,41.24628 C54.30939,41.236637 54.46884,41.200832 54.535362,41.12377 C54.776817,40.84404 55.00387,40.55219 55.238117,40.266396 L55.238117,40.266396" /><path fill="none" stroke="#000000" stroke-width="0.06mm" d="M55.05542,40.44675 C55.267677,40.033905 55.41886,40.038834 55.800964,39.693096 C56.19271,39.33863 56.58553,38.98388 56.949825,38.601257 C57.161938,38.37848 57.717445,37.40567 58.295197,37.308372 C58.357018,37.297962 58.42039,37.30153 58.482986,37.298103 L58.482986,37.298103" /><path fill="none" stroke="#000000" stroke-width="0.06mm" d="M59.45092,39.959755 C59.517784,40.567905 59.47326,40.262558 59.585693,40.875557 L59.585693,40.875557" /><path fill="none" stroke="#000000" stroke-width="0.06mm" d="M58.11542,37.34711 C58.209778,37.403446 58.309906,37.451073 58.398487,37.516113 C58.736713,37.764465 58.974915,38.16028 59.11915,38.54802 C59.247177,38.89221 59.25942,39.200813 59.342255,39.567955 C59.95121,42.26688 58.996666,37.466194 59.817696,41.960335 C59.84811,42.12681 59.915413,42.286625 59.931595,42.45508 C59.983025,42.9904 59.97947,43.529755 60.019997,44.06601 C60.041904,44.355827 60.347763,44.806225 60.665955,44.83403 C60.9068,44.85508 61.009743,44.426685 60.990807,44.26245 C60.833546,42.89846 60.635273,41.539406 60.478218,40.175392 C60.446938,39.903748 60.454735,39.628662 60.42595,39.356743 C60.39723,39.085495 60.29448,38.94765 60.2114,38.676758 C60.17917,38.57167 60.16387,38.46212 60.140106,38.3548 L60.140106,38.3548" /><path fill="none" stroke="#000000" stroke-width="0.06mm" d="M56.67038,23.57201 C56.720383,23.485258 56.753353,23.38895 56.831406,23.32459 C56.95085,23.226103 57.13125,23.238758 57.235497,23.352861 C57.44746,23.584864 57.471336,23.910484 57.43731,24.209433 C57.38423,24.675747 57.320023,25.140804 57.27191,25.607656 C57.258705,25.735771 57.272503,25.866219 57.25343,25.993591 C57.159683,26.619606 56.795326,28.220852 56.720093,28.657822 C56.51606,29.842884 56.605923,30.15518 56.483574,31.474503 C56.46593,31.66473 56.39073,31.84684 56.3748,32.03722 C56.346046,32.380894 56.37342,32.727596 56.46093,33.06056 C56.557236,33.427 56.61759,33.58058 56.814888,33.890087 C56.87885,33.990425 57.034138,34.228523 57.167805,34.319782 C57.32946,34.430145 57.49276,34.525276 57.682747,34.57365 C58.014034,34.65801 57.83988,34.58001 58.167946,34.624325 C58.25824,34.63652 58.500793,34.719658 58.58004,34.731518 C58.976223,34.790813 59.414635,34.671837 59.777893,34.579967 C60.474342,34.403835 61.232395,33.867554 61.78264,33.553955 L61.78264,33.553955" /><path fill="none" stroke="#000000" stroke-width="0.06mm" d="M59.80227,38.74675 C60.49243,37.702393 60.37751,37.807922 61.74354,36.504646 C62.0186,36.242226 62.73177,35.636604 63.255253,35.616035 C63.812416,35.594143 64.113144,36.300926 64.2097,36.735306 C64.439896,37.770832 64.225464,38.51938 64.225784,39.731773 C64.22606,40.769207 64.27475,41.80606 64.299225,42.843204 C64.0383,47.199425 63.66848,51.550488 63.516453,55.911865 C63.27822,62.746338 62.671944,61.091667 63.78523,63.814247 L63.78523,63.814247" /><path fill="none" stroke="#000000" stroke-width="0.06mm" d="M67.79097,63.463367 C67.70349,63.247177 67.591675,63.039307 67.52853,62.8148 C67.447525,62.526814 67.38986,62.230896 67.36057,61.933174 C67.163925,59.933952 66.977745,57.933006 66.85115,55.928127 C66.74225,54.203453 66.779816,52.471085 66.65429,50.747543 C66.60491,50.06962 66.396736,49.410934 66.32724,48.73478 C66.25572,48.03878 66.28081,47.335907 66.23193,46.637947 C65.964096,42.812473 65.91763,44.7755 66.009125,42.697582 L66.009125,42.697582" /><path fill="none" stroke="#000000" stroke-width="0.06mm" d="M69.8417,35.89413 L69.99725,35.87196" /><path fill="none" stroke="#000000" stroke-width="0.06mm" d="M61.306934,33.63653 C61.601814,33.434383 61.882717,33.210148 62.191578,33.030087 C63.734566,32.130543 66.136505,31.821117 67.53348,31.517614 C68.649414,31.27517 69.793564,31.171434 70.9046,30.907461 C71.55496,30.752943 72.157104,30.432215 72.80439,30.265293 C73.30879,30.135218 73.83017,30.07912 74.347664,30.019566 C77.0371,29.710052 79.740524,29.520046 82.42343,29.15829 C83.499054,29.01326 84.53537,28.63496 85.61238,28.50067 C92.63867,27.62458 86.12843,28.852907 89.17819,28.25456 L89.17819,28.25456" /><path fill="none" stroke="#000000" stroke-width="0.06mm" d="M66.10126,43.43209 C66.042854,43.280987 65.97258,43.133957 65.92606,42.978786 C65.70584,42.244152 66.01299,41.316597 66.2697,40.64745 C66.337036,40.47192 66.41042,40.293327 66.52597,40.145023 C68.21966,37.97124 68.346085,37.861595 70.44217,36.194412 C70.56887,36.093643 70.71575,36.018826 70.86389,35.95355 C71.45597,35.692665 71.83473,35.677765 72.51901,35.56106 C76.22499,34.929016 71.79257,35.635265 76.611435,35.172844 C78.66084,34.97618 80.70964,34.759502 82.74693,34.462524 C85.435844,34.07056 85.898285,33.85867 88.172226,33.16867 L88.172226,33.16867" /><path fill="none" stroke="#000000" stroke-width="0.06mm" d="M88.86563,27.95605 C89.404945,28.11525 89.75714,28.108654 90.32593,27.960606 C91.49187,27.657125 92.63733,27.2774 93.80581,26.983824 C94.916016,26.704887 95.4417,26.780794 96.299034,26.400043 C96.47105,26.323652 96.712494,26.13628 96.82364,26.001522 C97.60045,25.059635 97.9749,24.54116 98.4026,23.347511 C98.56489,22.89459 98.61572,22.409138 98.729256,21.941605 C98.76383,21.799183 98.824356,21.662767 98.84686,21.517946 C98.992256,20.582212 98.833275,20.747177 99.09372,20.08281 C99.13313,19.982264 99.19528,19.793533 99.32013,19.733347 C99.383446,19.702824 99.454315,19.706627 99.521065,19.722694 C99.82042,19.794765 99.97517,20.231392 99.9725,20.499985 C99.9703,20.722939 99.84484,20.9771 99.77692,21.167114 L99.77692,21.167114" /><path fill="none" stroke="#000000" stroke-width="0.06mm" d="M99.62941,20.913094 C99.691154,23.989513 99.60888,23.522217 99.84071,25.894117 C99.94467,26.957798 99.88948,25.976511 99.92442,26.714622 L99.92442,26.714622" /><path fill="none" stroke="#000000" stroke-width="0.06mm" d="M87.55448,33.438004 C88.01284,33.166122 88.46423,32.88215 88.92955,32.62236 C89.001816,32.582016 89.08331,32.55948 89.16365,32.539604 C89.88137,32.36206 90.60623,32.213837 91.322464,32.030415 C93.68213,31.426125 91.28984,31.735563 95.33212,31.421072 C95.901024,31.376812 96.77366,31.801277 97.12074,31.901207 C97.229,31.932375 97.34356,31.961767 97.45541,31.948265 C98.30831,31.845295 99.15331,31.684973 100.00227,31.553328 L100.00227,31.553328" /><path fill="none" stroke="#000000" stroke-width="0.06mm" d="M99.72867,26.681574 C100.21326,26.782595 100.171295,26.784166 100.69646,26.611364 C100.82803,26.56807 100.97978,26.473663 101.080986,26.382833 C101.2496,26.231497 101.33563,26.098782 101.48662,25.935757 C101.622734,25.788788 101.75451,25.636982 101.90226,25.501719 C102.12297,25.299667 102.336876,25.186565 102.58968,25.033455 L102.58968,25.033455" /><path fill="none" stroke="#000000" stroke-width="0.06mm" d="M29.0,29.0 L29.0,29.0" /><path fill="none" stroke="#000000" stroke-width="0.06mm" d="M99.790085,31.616302 C100.2537,31.406034 100.67891,31.395681 101.18604,31.344051 C101.416824,31.320555 101.64686,31.286924 101.87851,31.274923 C102.188,31.258892 102.50756,31.40518 102.75479,31.570797 C102.94965,31.701332 103.127335,31.85615 103.30633,32.00771 C103.35885,32.05218 103.41205,32.09918 103.44807,32.15782 C103.64821,32.483723 103.83842,32.81622 104.0121,33.156956 C104.670364,34.448364 104.1195,33.71496 104.89667,34.68646 C104.92843,34.72616 104.98498,34.77202 105.03151,34.794933 C105.268135,34.91145 105.698105,34.847713 105.924866,34.724136 C106.01552,34.67473 106.09771,34.611168 106.18413,34.554688 L106.18413,34.554688" /><path fill="none" stroke="#000000" stroke-width="0.06mm" d="M102.35286,25.100502 C102.45001,25.08638 102.54715,25.072256 102.644295,25.058132 C102.7536,25.032759 102.860855,24.99582 102.972206,24.98201 C103.073,24.96951 103.17599,24.96811 103.27689,24.979685 C103.51845,25.007397 103.942764,25.128786 104.14301,25.27851 C104.373024,25.450481 104.7341,25.849094 104.85032,26.023296 C105.00234,26.251167 105.20958,26.902205 105.54229,27.141823 C105.585686,27.173079 105.633064,27.198544 105.68011,27.223984 C106.05618,27.427338 106.26893,27.588 106.68764,27.579624 C106.85206,27.576334 107.01461,27.542162 107.17883,27.533577 C107.24234,27.530258 107.35809,27.555477 107.42276,27.56771 L107.42276,27.56771" /><path fill="none" stroke="#000000" stroke-width="0.06mm" d="M105.534195,34.883877 C105.65718,34.869057 105.772316,34.83768 105.87113,34.760567 C106.12028,34.566135 106.1773,34.036472 106.204765,33.808624 C106.29794,33.035774 106.23141,32.234783 106.477554,31.48973 C106.508804,31.39515 106.61951,31.259903 106.678,31.204803 C106.97527,30.924826 107.285995,30.65949 107.58999,30.386835 L107.58999,30.386835" /><path fill="none" stroke="#000000" stroke-width="0.06mm" d="M29.0,29.0 L29.0,29.0" /><path fill="none" stroke="#000000" stroke-width="0.06mm" d="M107.52052,30.4038 C107.97566,30.17133 107.951126,30.15147 108.45156,30.026289 C108.5276,30.007267 108.606415,29.99859 108.68476,29.996075 C109.02481,29.985151 109.36556,29.969612 109.7054,29.986013 C109.78395,29.989803 110.08771,30.040781 110.21925,30.109602 C110.264656,30.133352 110.310265,30.15867 110.34855,30.192722 C110.6524,30.462982 110.939766,30.751415 111.24408,31.021149 C111.342354,31.108253 111.52297,31.188036 111.63196,31.243153 L111.63196,31.243153" /><path fill="none" stroke="#000000" stroke-width="0.06mm" d="M107.304054,27.536446 C108.8221,27.581173 110.2046,27.036634 111.65948,26.771744 L111.65948,26.771744" /></g>
<g>
<line fill="none" stroke="#00aeef" stroke-width="0.05mm" stroke-dasharray="0.4,0.2" x1="28.00" y1="29.00" x2="24.64" y2="29.16" />
<line fill="none" stroke="#00aeef" stroke-width="0.05mm" stroke-dasharray="0.4,0.2" x1="28.00" y1="29.00" x2="29.99" y2="28.01" />
<line fill="none" stroke="#5674b9" stroke-width="0.05mm" stroke-dasharray="0.4,0.2" x1="28.00" y1="29.00" x2="19.83" y2="29.37" />
<line fill="none" stroke="#5674b9" stroke-width="0.05mm" stroke-dasharray="0.4,0.2" x1="28.00" y1="29.00" x2="19.22" y2="29.57" />
<line fill="none" stroke="#00aeef" stroke-width="0.05mm" stroke-dasharray="0.4,0.2" x1="28.00" y1="29.00" x2="25.23" y2="29.17" />
<line fill="none" stroke="#111111" stroke-width="0.05mm" x1="28.00" y1="29.00" x2="34.41" y2="25.17" />
<line fill="none" stroke="#5674b9" stroke-width="0.05mm" stroke-dasharray="0.4,0.2" x1="34.41" y1="25.17" x2="33.68" y2="25.28" />
<line fill="none" stroke="#5674b9" stroke-width="0.05mm" stroke-dasharray="0.4,0.2" x1="34.41" y1="25.17" x2="34.88" y2="20.95" />
<line fill="none" stroke="#5674b9" stroke-width="0.05mm" stroke-dasharray="0.4,0.2" x1="34.41" y1="25.17" x2="35.32" y2="29.68" />
<line fill="none" stroke="#111111" stroke-width="0.05mm" x1="34.41" y1="25.17" x2="43.65" y2="34.04" />
<line fill="none" stroke="#00aeef" stroke-width="0.05mm" stroke-dasharray="0.4,0.2" x1="43.65" y1="34.04" x2="42.20" y2="33.96" />
<line fill="none" stroke="#00aeef" stroke-width="0.05mm" stroke-dasharray="0.4,0.2" x1="43.65" y1="34.04" x2="43.79" y2="36.96" />
<line fill="none" stroke="#00aeef" stroke-width="0.05mm" stroke-dasharray="0.4,0.2" x1="43.65" y1="34.04" x2="45.59" y2="29.91" />
<line fill="none" stroke="#00aeef" stroke-width="0.05mm" stroke-dasharray="0.4,0.2" x1="43.65" y1="34.04" x2="44.45" y2="26.60" />
<line fill="none" stroke="#00aeef" stroke-width="0.05mm" stroke-dasharray="0.4,0.2" x1="43.65" y1="34.04" x2="45.98" y2="34.40" />
<line fill="none" stroke="#00aeef" stroke-width="0.05mm" stroke-dasharray="0.4,0.2" x1="43.65" y1="34.04" x2="46.49" y2="34.29" />
<line fill="none" stroke="#00aeef" stroke-width="0.05mm" stroke-dasharray="0.4,0.2" x1="43.65" y1="34.04" x2="45.47" y2="34.29" />
<line fill="none" stroke="#00aeef" stroke-width="0.05mm" stroke-dasharray="0.4,0.2" x1="43.65" y1="34.04" x2="46.68" y2="32.11" />
<line fill="none" stroke="#5674b9" stroke-width="0.05mm" stroke-dasharray="0.4,0.2" x1="43.65" y1="34.04" x2="40.01" y2="35.57" />
<line fill="none" stroke="#5674b9" stroke-width="0.05mm" stroke-dasharray="0.4,0.2" x1="43.65" y1="34.04" x2="38.77" y2="35.43" />
<line fill="none" stroke="#111111" stroke-width="0.05mm" x1="43.65" y1="34.04" x2="53.71" y2="34.70" />
<line fill="none" stroke="#5674b9" stroke-width="0.05mm" stroke-dasharray="0.4,0.2" x1="53.71" y1="34.70" x2="53.38" y2="34.68" />
<line fill="none" stroke="#5674b9" stroke-width="0.05mm" stroke-dasharray="0.4,0.2" x1="53.71" y1="34.70" x2="52.84" y2="40.98" />
<line fill="none" stroke="#00aeef" stroke-width="0.05mm" stroke-dasharray="0.4,0.2" x1="53.71" y1="34.70" x2="55.75" y2="23.43" />
<line fill="none" stroke="#5674b9" stroke-width="0.05mm" stroke-dasharray="0.4,0.2" x1="53.71" y1="34.70" x2="53.37" y2="34.53" />
<line fill="none" stroke="#00aeef" stroke-width="0.05mm" stroke-dasharray="0.4,0.2" x1="53.71" y1="34.70" x2="54.46" y2="33.68" />
<line fill="none" stroke="#5674b9" stroke-width="0.05mm" stroke-dasharray="0.4,0.2" x1="53.71" y1="34.70" x2="85.56" y2="33.23" />
<line fill="none" stroke="#5674b9" stroke-width="0.05mm" stroke-dasharray="0.4,0.2" x1="53.71" y1="34.70" x2="56.89" y2="35.98" />
<line fill="none" stroke="#5674b9" stroke-width="0.05mm" stroke-dasharray="0.4,0.2" x1="53.71" y1="34.70" x2="60.60" y2="37.50" />
<line fill="none" stroke="#5674b9" stroke-width="0.05mm" stroke-dasharray="0.4,0.2" x1="53.71" y1="34.70" x2="59.33" y2="36.98" />
<line fill="none" stroke="#111111" stroke-width="0.05mm" x1="53.71" y1="34.70" x2="58.20" y2="35.92" />
<line fill="none" stroke="#00aeef" stroke-width="0.05mm" stroke-dasharray="0.4,0.2" x1="58.20" y1="35.92" x2="58.02" y2="35.91" />
<line fill="none" stroke="#5674b9" stroke-width="0.05mm" stroke-dasharray="0.4,0.2" x1="58.20" y1="35.92" x2="59.45" y2="44.54" />
<line fill="none" stroke="#00aeef" stroke-width="0.05mm" stroke-dasharray="0.4,0.2" x1="58.20" y1="35.92" x2="59.15" y2="25.87" />
<line fill="none" stroke="#111111" stroke-width="0.05mm" x1="58.20" y1="35.92" x2="63.23" y2="33.08" />
<line fill="none" stroke="#5674b9" stroke-width="0.05mm" stroke-dasharray="0.4,0.2" x1="63.23" y1="33.08" x2="61.34" y2="32.74" />
<line fill="none" stroke="#5674b9" stroke-width="0.05mm" stroke-dasharray="0.4,0.2" x1="63.23" y1="33.08" x2="62.41" y2="32.92" />
<line fill="none" stroke="#5674b9" stroke-width="0.05mm" stroke-dasharray="0.4,0.2" x1="63.23" y1="33.08" x2="64.16" y2="33.12" />
<line fill="none" stroke="#5674b9" stroke-width="0.05mm" stroke-dasharray="0.4,0.2" x1="63.23" y1="33.08" x2="67.17" y2="33.64" />
<line fill="none" stroke="#5674b9" stroke-width="0.05mm" stroke-dasharray="0.4,0.2" x1="63.23" y1="33.08" x2="74.16" y2="33.44" />
<line fill="none" stroke="#5674b9" stroke-width="0.05mm" stroke-dasharray="0.4,0.2" x1="63.23" y1="33.08" x2="80.24" y2="34.30" />
<line fill="none" stroke="#5674b9" stroke-width="0.05mm" stroke-dasharray="0.4,0.2" x1="63.23" y1="33.08" x2="79.77" y2="34.28" />
<line fill="none" stroke="#5674b9" stroke-width="0.05mm" stroke-dasharray="0.4,0.2" x1="63.23" y1="33.08" x2="74.86" y2="33.85" />
<line fill="none" stroke="#00aeef" stroke-width="0.05mm" stroke-dasharray="0.4,0.2" x1="63.23" y1="33.08" x2="67.68" y2="33.21" />
<line fill="none" stroke="#5674b9" stroke-width="0.05mm" stroke-dasharray="0.4,0.2" x1="63.23" y1="33.08" x2="81.95" y2="31.06" />
<line fill="none" stroke="#5674b9" stroke-width="0.05mm" stroke-dasharray="0.4,0.2" x1="63.23" y1="33.08" x2="81.83" y2="30.41" />
<line fill="none" stroke="#5674b9" stroke-width="0.05mm" stroke-dasharray="0.4,0.2" x1="63.23" y1="33.08" x2="64.74" y2="66.71" />
<line fill="none" stroke="#5674b9" stroke-width="0.05mm" stroke-dasharray="0.4,0.2" x1="63.23" y1="33.08" x2="63.54" y2="66.02" />
<line fill="none" stroke="#5674b9" stroke-width="0.05mm" stroke-dasharray="0.4,0.2" x1="63.23" y1="33.08" x2="66.09" y2="64.55" />
<line fill="none" stroke="#111111" stroke-width="0.05mm" x1="63.23" y1="33.08" x2="86.06" y2="29.93" />
<line fill="none" stroke="#5674b9" stroke-width="0.05mm" stroke-dasharray="0.4,0.2" x1="86.06" y1="29.93" x2="86.14" y2="29.99" />
<line fill="none" stroke="#5674b9" stroke-width="0.05mm" stroke-dasharray="0.4,0.2" opacity="0.38" x1="86.06" y1="29.93" x2="86.04" y2="35.96" />
<line fill="none" stroke="#5674b9" stroke-width="0.05mm" stroke-dasharray="0.4,0.2" x1="86.06" y1="29.93" x2="85.45" y2="28.29" />
<line fill="none" stroke="#111111" stroke-width="0.05mm" x1="86.06" y1="29.93" x2="97.59" y2="27.38" />
<line fill="none" stroke="#00aeef" stroke-width="0.05mm" stroke-dasharray="0.4,0.2" x1="97.59" y1="27.38" x2="97.44" y2="27.27" />
<line fill="none" stroke="#00aeef" stroke-width="0.05mm" stroke-dasharray="0.4,0.2" x1="97.59" y1="27.38" x2="98.60" y2="19.66" />
<line fill="none" stroke="#5674b9" stroke-width="0.05mm" stroke-dasharray="0.4,0.2" x1="97.59" y1="27.38" x2="97.14" y2="31.54" />
<line fill="none" stroke="#00aeef" stroke-width="0.05mm" stroke-dasharray="0.4,0.2" x1="97.59" y1="27.38" x2="97.05" y2="27.08" />
<line fill="none" stroke="#00aeef" stroke-width="0.05mm" stroke-dasharray="0.4,0.2" x1="97.59" y1="27.38" x2="97.06" y2="27.08" />
<line fill="none" stroke="#00aeef" stroke-width="0.05mm" stroke-dasharray="0.4,0.2" x1="97.59" y1="27.38" x2="97.06" y2="27.07" />
<line fill="none" stroke="#111111" stroke-width="0.05mm" x1="97.59" y1="27.38" x2="98.33" y2="27.12" />
<line fill="none" stroke="#5674b9" stroke-width="0.05mm" stroke-dasharray="0.4,0.2" x1="98.33" y1="27.12" x2="95.94" y2="27.57" />
<line fill="none" stroke="#5674b9" stroke-width="0.05mm" stroke-dasharray="0.4,0.2" x1="98.33" y1="27.12" x2="96.39" y2="27.56" />
<line fill="none" stroke="#5674b9" stroke-width="0.05mm" stroke-dasharray="0.4,0.2" x1="98.33" y1="27.12" x2="96.37" y2="27.53" />
<line fill="none" stroke="#111111" stroke-width="0.05mm" x1="98.33" y1="27.12" x2="101.59" y2="27.58" />
<line fill="none" stroke="#00aeef" stroke-width="0.05mm" stroke-dasharray="0.4,0.2" x1="101.59" y1="27.58" x2="101.22" y2="25.63" />
<line fill="none" stroke="#00aeef" stroke-width="0.05mm" stroke-dasharray="0.4,0.2" x1="101.59" y1="27.58" x2="100.36" y2="26.87" />
<line fill="none" stroke="#5674b9" stroke-width="0.05mm" stroke-dasharray="0.4,0.2" x1="101.59" y1="27.58" x2="104.11" y2="26.06" />
<line fill="none" stroke="#111111" stroke-width="0.05mm" x1="101.59" y1="27.58" x2="103.59" y2="27.81" />
<line fill="none" stroke="#5674b9" stroke-width="0.05mm" stroke-dasharray="0.4,0.2" x1="103.59" y1="27.81" x2="102.66" y2="27.86" />
<line fill="none" stroke="#00aeef" stroke-width="0.05mm" stroke-dasharray="0.4,0.2" x1="103.59" y1="27.81" x2="103.51" y2="31.57" />
<line fill="none" stroke="#5674b9" stroke-width="0.05mm" stroke-dasharray="0.4,0.2" x1="103.59" y1="27.81" x2="103.48" y2="27.20" />
<line fill="none" stroke="#5674b9" stroke-width="0.05mm" stroke-dasharray="0.4,0.2" x1="103.59" y1="27.81" x2="102.73" y2="27.77" />
<line fill="none" stroke="#00aeef" stroke-width="0.05mm" stroke-dasharray="0.4,0.2" x1="103.59" y1="27.81" x2="104.48" y2="34.89" />
<line fill="none" stroke="#111111" stroke-width="0.05mm" x1="103.59" y1="27.81" x2="104.85" y2="28.52" />
<line fill="none" stroke="#00aeef" stroke-width="0.05mm" stroke-dasharray="0.4,0.2" x1="104.85" y1="28.52" x2="103.84" y2="28.69" />
<line fill="none" stroke="#5674b9" stroke-width="0.05mm" stroke-dasharray="0.4,0.2" x1="104.85" y1="28.52" x2="105.12" y2="28.72" />
<line fill="none" stroke="#00aeef" stroke-width="0.05mm" stroke-dasharray="0.4,0.2" x1="104.85" y1="28.52" x2="103.86" y2="34.67" />
<line fill="none" stroke="#5674b9" stroke-width="0.05mm" stroke-dasharray="0.4,0.2" x1="104.85" y1="28.52" x2="104.41" y2="22.21" />
<line fill="none" stroke="#5674b9" stroke-width="0.05mm" stroke-dasharray="0.4,0.2" x1="104.85" y1="28.52" x2="104.65" y2="27.43" />
<line fill="none" stroke="#5674b9" stroke-width="0.05mm" stroke-dasharray="0.4,0.2" x1="104.85" y1="28.52" x2="104.78" y2="25.45" />
<line fill="none" stroke="#00aeef" stroke-width="0.05mm" stroke-dasharray="0.4,0.2" x1="104.85" y1="28.52" x2="104.72" y2="27.68" />
<line fill="none" stroke="#111111" stroke-width="0.05mm" x1="104.85" y1="28.52" x2="107.07" y2="28.25" />
<line fill="none" stroke="#00aeef" stroke-width="0.05mm" stroke-dasharray="0.4,0.2" x1="107.07" y1="28.25" x2="106.00" y2="28.21" />
<line fill="none" stroke="#00aeef" stroke-width="0.05mm" stroke-dasharray="0.4,0.2" x1="107.07" y1="28.25" x2="105.50" y2="31.34" />
<line fill="none" stroke="#5674b9" stroke-width="0.05mm" stroke-dasharray="0.4,0.2" x1="107.07" y1="28.25" x2="107.00" y2="26.49" />
<line fill="none" stroke="#111111" stroke-width="0.05mm" x1="107.07" y1="28.25" x2="109.81" y2="28.05" />
<line fill="none" stroke="#00aeef" stroke-width="0.05mm" stroke-dasharray="0.4,0.2" x1="109.81" y1="28.05" x2="109.15" y2="27.99" />
<line fill="none" stroke="#00aeef" stroke-width="0.05mm" stroke-dasharray="0.4,0.2" x1="109.81" y1="28.05" x2="110.24" y2="30.88" />
<line fill="none" stroke="#5674b9" stroke-width="0.05mm" stroke-dasharray="0.4,0.2" x1="109.81" y1="28.05" x2="109.76" y2="27.14" />
</g>
<g>
<circle cx="28.00" cy="29.00" r="0.1" fill="#111111" />
<circle cx="34.41" cy="25.17" r="0.1" fill="#111111" />
<circle cx="43.65" cy="34.04" r="0.1" fill="#111111" />
<circle cx="53.71" cy="34.70" r="0.1" fill="#111111" />
<circle cx="58.20" cy="35.92" r="0.1" fill="#111111" />
<circle cx="63.23" cy="33.08" r="0.1" fill="#111111" />
<circle cx="86.06" cy="29.93" r="0.1" fill="#111111" />
<circle cx="97.59" cy="27.38" r="0.1" fill="#111111" />
<circle cx="98.33" cy="27.12" r="0.1" fill="#111111" />
<circle cx="101.59" cy="27.58" r="0.1" fill="#111111" />
<circle cx="103.59" cy="27.81" r="0.1" fill="#111111" />
<circle cx="104.85" cy="28.52" r="0.1" fill="#111111" />
<circle cx="107.07" cy="28.25" r="0.1" fill="#111111" />
<circle cx="109.81" cy="28.05" r="0.1" fill="#111111" />
</g>
<g>
<text x="28.20" y="29.00" font-size=".2mm" fill="#000000">0</text>
<text x="34.61" y="25.17" font-size=".2mm" fill="#000000">1</text>
<text x="43.85" y="34.04" font-size=".2mm" fill="#000000">2</text>
<text x="53.91" y="34.70" font-size=".2mm" fill="#000000">3</text>
<text x="58.40" y="35.92" font-size=".2mm" fill="#000000">4</text>
<text x="63.43" y="33.08" font-size=".2mm" fill="#000000">5</text>
<text x="86.26" y="29.93" font-size=".2mm" fill="#000000">6</text>
<text x="97.79" y="27.38" font-size=".2mm" fill="#000000">7</text>
<text x="98.53" y="27.12" font-size=".2mm" fill="#000000">8</text>
<text x="101.79" y="27.58" font-size=".2mm" fill="#000000">9</text>
<text x="103.79" y="27.81" font-size=".2mm" fill="#000000">10</text>
<text x="105.05" y="28.52" font-size=".2mm" fill="#000000">11</text>
<text x="107.27" y="28.25" font-size=".2mm" fill="#000000">12</text>
<text x="110.01" y="28.05" font-size=".2mm" fill="#000000">13</text>
</g>
<g>
</g>
</g>
</svg>