<?xml version="1.0" encoding="utf-8"?>
<!DOCTYPE svg PUBLIC "-//W3C//DTD SVG 1.1//EN" "http://www.w3.org/Graphics/SVG/1.1/DTD/svg11.dtd">
<svg version="1.1" id="Layer_1" xmlns="http://www.w3.org/2000/svg" xmlns:xlink="http://www.w3.org/1999/xlink" x="0px" y="0px" width="457mm" height="326mm" viewBox="0 0 457 326" enable-background="new 0 0 457 326" xml:space="preserve">
<symbol id="airflow" viewBox="-12 -12 24 24">
<path d="M-4.38,10.73l4.2-3.84V3.55L-4.07,7.13l-.31-.29L-.18,3V-6.89a3.37,3.37,0,0,0-1.68.53l1.68-4.15L0-11l.21.51h0v0l1.65,4.1A3.26,3.26,0,0,0,.24-6.89v14l-.08,0L-4.07,11Z"/>
<rect fill="none" x="-12" y="-12" width="24" height="24"/>
</symbol>
<symbol id="anastomosis" viewBox="-12 -12 24 24">
<path d="M2.23-4.78l.37.24L5.22-2.78l-.47.57L2.49-3.7l-4.61,8-.24.44-.37-.34L-5.22,2.3l.55-.52,2.1,1.82L2-4.39Z"/>
<rect fill="none" x="-12" y="-12" width="24" height="24"/>
</symbol>
<symbol id="bivouac" viewBox="-12 -12 24 24">
<path d="M.25-7.66l.24.58L.54-7l3.88.48-3.31.91L6,6H8.35v.48l-16.7.07V6.05h2.64L0-7.08Zm0,1.32L-5.13,6H-4l2.07-5L.2-4l2.09,5L4.37,6H5.44Z"/>
<rect fill="none" x="-12" y="-12" width="24" height="24"/>
</symbol>
<symbol id="bones" viewBox="-12 -12 24 24">
<path d="M2.44,4.27l-.16,0H2.13a.22.22,0,0,1-.11,0l-.1-.06a.39.39,0,0,1-.09-.11l-.08-.13a1.51,1.51,0,0,1-.06-.15l-.07-.17s0-.11-.08-.19-.06-.16-.08-.21a4.75,4.75,0,0,0-.38-.71c-.18-.29-.43-.64-.74-1A11.15,11.15,0,0,0-.7.32,6.73,6.73,0,0,0-2-.64a4.12,4.12,0,0,0-1.44-.52A1.64,1.64,0,0,1-5-2.19.72.72,0,0,1-5-2.44a1,1,0,0,1,0-.29A.52.52,0,0,1-4.87-3a.54.54,0,0,1,.35-.15L-4-3.22l.46,0a.54.54,0,0,0,.27-.06A.52.52,0,0,0-3-3.56a.74.74,0,0,0,.13-.31.54.54,0,0,1,.15-.26.54.54,0,0,1,.3-.15.83.83,0,0,1,.47,0,1.11,1.11,0,0,1,.35.4A7.46,7.46,0,0,1-1-2.76q.18.42.33.72a3.22,3.22,0,0,0,.39.57L.1-1a4.77,4.77,0,0,0,.58.43c.28.18.51.33.69.43l1,.56a1.84,1.84,0,0,0,.39.23A5.29,5.29,0,0,1,3.22.9l.43.26a3.7,3.7,0,0,1,.46.3l.36.29a2.28,2.28,0,0,1,.31.32A1,1,0,0,1,5,2.4c.2.48,0,.78-.47.91h0a8.48,8.48,0,0,0-1.12.09,1,1,0,0,0-.42.44A1,1,0,0,1,2.44,4.27Z"/>
<rect fill="none" x="-12" y="-12" width="24" height="24"/>
</symbol>
<symbol id="calcite" viewBox="-12 -12 24 24">
<path d="M2.36-2.22l.05.46.34,3.91L2,2.22,1.65-1.26-2.52-.06l-.23-.7L1.89-2.08Z"/>
<rect fill="none" x="-12" y="-12" width="24" height="24"/>
</symbol>
<symbol id="cauliflower" viewBox="-12 -12 24 24">
<path d="M5.58,3.22v-3A2.12,2.12,0,0,0,6.92-.43a1.78,1.78,0,0,0,.55-1.32,1.92,1.92,0,0,0-.65-1.42,2.19,2.19,0,0,0-1.53-.59,2.21,2.21,0,0,0-1.54.59,1.78,1.78,0,0,0-.64,1.42A1.86,1.86,0,0,0,3.65-.43,2.12,2.12,0,0,0,5,.23v3H.26v-3A2.17,2.17,0,0,0,1.61-.43a1.81,1.81,0,0,0,.54-1.32,1.91,1.91,0,0,0-.64-1.42A2.21,2.21,0,0,0,0-3.76a2.21,2.21,0,0,0-1.54.59,1.82,1.82,0,0,0-.64,1.42A1.83,1.83,0,0,0-1.66-.43,2.12,2.12,0,0,0-.32.23v3H-5v-3A2.12,2.12,0,0,0-3.71-.43a1.78,1.78,0,0,0,.55-1.32,1.92,1.92,0,0,0-.65-1.42,2.19,2.19,0,0,0-1.53-.59,2.21,2.21,0,0,0-1.54.59,1.83,1.83,0,0,0-.65,1.42A1.87,1.87,0,0,0-7-.43,2.12,2.12,0,0,0-5.64.23v3H-8v.54H8V3.22Z"/>
<rect fill="none" x="-12" y="-12" width="24" height="24"/>
</symbol>
<symbol id="clay" viewBox="-12 -12 24 24">
<path d="M1.85-1.33a3,3,0,0,1,1.67.48,3.23,3.23,0,0,1,1,1l.29.51-1,.43a3.81,3.81,0,0,0-.23-.4A3.74,3.74,0,0,0,2.93,0,1.77,1.77,0,0,0,1.85-.32a2.57,2.57,0,0,0-1.1.15A.86.86,0,0,0,.51.14,2.23,2.23,0,0,1,0,.88a2.55,2.55,0,0,1-1.45.43,3.16,3.16,0,0,1-2.75-1,4.28,4.28,0,0,1-.37-.57,3.91,3.91,0,0,1-.21-.47l0-.16,1-.22a1.87,1.87,0,0,0,.45.79A2.12,2.12,0,0,0-1.51.33,1.82,1.82,0,0,0-.69.14l.21-.36A1.53,1.53,0,0,1,.17-1,3.76,3.76,0,0,1,1.85-1.33Z"/>
<rect fill="none" x="-12" y="-12" width="24" height="24"/>
</symbol>
<symbol id="crystals" viewBox="-12 -12 24 24">
<path d="M-2.94-5.38,0-.72,2.94-5.38,3.62-5,.68-.36H6.56V.36H.68L3.62,5l-.68.36L0,.72-2.94,5.38-3.62,5-.68.36H-6.56V-.36H-.68L-3.62-5Z"/>
<rect fill="none" x="-12" y="-12" width="24" height="24"/>
</symbol>
<symbol id="curtain" viewBox="-12 -12 24 24">
<path d="M3.57-6.69l.52.53L.39-3V-.33L.1-.26a3.79,3.79,0,0,0-1,.41c-.58.3-.87.65-.87,1v.07A1.61,1.61,0,0,0-.84,2.48a3.69,3.69,0,0,0,.45.24L0,2.86l.13.05L.39,3V6.12H-.39V3.51a7.65,7.65,0,0,1-.9-.46A2.19,2.19,0,0,1-2.54,1.28V1.23A2,2,0,0,1-1.31-.48,5.32,5.32,0,0,1-.39-.86V-3l-3.7-3.14.52-.53L0-3.67Z"/>
<rect fill="none" x="-12" y="-12" width="24" height="24"/>
</symbol>
<symbol id="disk" viewBox="-12 -12 24 24">
<path d="M-.09-4.19a2.43,2.43,0,0,1,1.7.64A2,2,0,0,1,2.35-2,2.09,2.09,0,0,1,1.81-.55,2.44,2.44,0,0,1,.35.23l2.18,3.6-.68.33L0,1.14-1.48,4.19l-.71-.29L-.41.25A2.53,2.53,0,0,1-1.9-.47a2,2,0,0,1-.63-1.41,2,2,0,0,1,.67-1.61,2.46,2.46,0,0,1,1.72-.7ZM1.05-3.06.56-3.49l-.69,0A1.72,1.72,0,0,0-1.29-3a1.51,1.51,0,0,0-.45,1.08,1.36,1.36,0,0,0,.51,1A1.68,1.68,0,0,0-.07-.44v0l0,0A1.7,1.7,0,0,0,1.11-.92,1.36,1.36,0,0,0,1.56-2,1.47,1.47,0,0,0,1.05-3.06Z"/>
<rect fill="none" x="-12" y="-12" width="24" height="24"/>
</symbol>
<symbol id="entrance" viewBox="-12 -12 24 24">
<path d="M4.46,9H-4.46L0-9Z"/>
<rect fill="none" x="-12" y="-12" width="24" height="24"/>
</symbol>
<symbol id="flowstone" viewBox="-12 -12 24 24">
<rect x="-6" y="-0.21" width="12" height="0.42"/>
<rect fill="none" x="-12" y="-12" width="24" height="24"/>
</symbol>
<symbol id="flutes" viewBox="-12 -12 24 24">
<path d="M-7-1H7v.72H3.87A4.7,4.7,0,0,1,2.16,1.5,4.2,4.2,0,0,1,0,2.13,3.94,3.94,0,0,1-2.19,1.5,4.18,4.18,0,0,1-3.76-.27H-7Zm4.17.72A3.15,3.15,0,0,0-1.65,1,3.21,3.21,0,0,0,0,1.41,3.49,3.49,0,0,0,1.6,1,3.68,3.68,0,0,0,3-.27Z"/>
<rect fill="none" x="-12" y="-12" width="24" height="24"/>
</symbol>
<symbol id="gradient" viewBox="-12 -12 24 24">
<path d="M2.58-3.83,0-10-2.58-3.83A4.74,4.74,0,0,1-.17-4.5V10H.25V-4.5A6.65,6.65,0,0,1,2.58-3.83Z"/>
<rect fill="none" x="-12" y="-12" width="24" height="24"/>
</symbol>
<symbol id="guano" viewBox="-12 -12 24 24">
<path d="M-3.24-3a2.15,2.15,0,0,1,1.57.55A3.93,3.93,0,0,1-.59.24a4.32,4.32,0,0,1,2.75-2.3,2.68,2.68,0,0,1,2.23.36A2.36,2.36,0,0,1,5.5.19l-.79,0a1.72,1.72,0,0,0-.79-1.37,1.94,1.94,0,0,0-1.55-.24A3.53,3.53,0,0,0,.48,0,6.63,6.63,0,0,0-.69,3l-.79-.09a10.72,10.72,0,0,0,0-3.16A3.21,3.21,0,0,0-2.22-2,1.44,1.44,0,0,0-3.37-2.3,3.45,3.45,0,0,0-5-1.54l-.5-.55a4.29,4.29,0,0,1,2-.91A.9.9,0,0,1-3.24-3Z"/>
<rect fill="none" x="-12" y="-12" width="24" height="24"/>
</symbol>
<symbol id="helictites" viewBox="-12 -12 24 24">
<path d="M-4.59-7.92h.79v7.7l3.41,0V-7.92H.39V-.17L4.2-.12h.39v8H3.8V.6L.39.55V7.92H-.39V.55L-4.2.5l-.39,0v-8.4Z"/>
<rect fill="none" x="-12" y="-12" width="24" height="24"/>
</symbol>
<symbol id="human" viewBox="-12 -12 24 24">
<path d="M-3.59-3.29A5.13,5.13,0,0,1,0-4.66,5.13,5.13,0,0,1,3.59-3.29,4.3,4.3,0,0,1,5.09,0a4.3,4.3,0,0,1-1.5,3.29A5.13,5.13,0,0,1,0,4.66,5.13,5.13,0,0,1-3.59,3.29,4.3,4.3,0,0,1-5.09,0,4.3,4.3,0,0,1-3.59-3.29Zm.28.77A3.68,3.68,0,0,0-4.3,0a3.62,3.62,0,0,0,1,2.57L-.5.05ZM0-3.94A4.42,4.42,0,0,0-2.75-3L.16-.36H4.28A3.62,3.62,0,0,0,2.91-2.9,4.38,4.38,0,0,0,0-3.94ZM.16.46-2.7,3.07A4.42,4.42,0,0,0,0,3.94a4.37,4.37,0,0,0,2.87-1A3.78,3.78,0,0,0,4.28.46Z"/>
<rect fill="none" x="-12" y="-12" width="24" height="24"/>
</symbol>
<symbol id="karren" viewBox="-12 -12 24 24">
<path d="M1-5.84h0a1.37,1.37,0,0,1,1.06.68A3.33,3.33,0,0,1,2.5-3.79,25.79,25.79,0,0,1,2.36,0a18.61,18.61,0,0,0-.08,3.72,2.68,2.68,0,0,0,.41,1.2,1.13,1.13,0,0,0,.79.5A.92.92,0,0,0,4,4.94a4.43,4.43,0,0,0,.47-1.22c.16-.64.36-1.86.59-3.66a26.71,26.71,0,0,1,.64-3.69,4.62,4.62,0,0,1,.57-1.29,1.34,1.34,0,0,1,1-.59h0A1.28,1.28,0,0,1,8.37-5a2.17,2.17,0,0,1,.39,1.15A19.91,19.91,0,0,1,8.54-.53a21.51,21.51,0,0,0-.2,3.64A2.64,2.64,0,0,0,9.45,5.36,1.91,1.91,0,0,0,10.88,5a3.84,3.84,0,0,0,.7-1l.42.2-.1.18-.12.21-.11.18L11.52,5a.94.94,0,0,1-.14.16c-.06.07-.13.12-.19.18a2.5,2.5,0,0,1-1.85.41H9.29l0,0A3.06,3.06,0,0,1,7.87,3.13a22.11,22.11,0,0,1,.2-3.7,18.17,18.17,0,0,0,.22-3.28A1.85,1.85,0,0,0,8-4.79a.77.77,0,0,0-.67-.3.93.93,0,0,0-.64.42,4.51,4.51,0,0,0-.51,1.15A26.26,26.26,0,0,0,5.54.1c-.24,1.83-.45,3.07-.61,3.72a5.38,5.38,0,0,1-.51,1.34,1.33,1.33,0,0,1-.89.68H3.47A1.58,1.58,0,0,1,2.3,5.16a3.29,3.29,0,0,1-.49-1.4A20.27,20.27,0,0,1,1.89,0,23.45,23.45,0,0,0,2-3.75a2.94,2.94,0,0,0-.32-1.19A.93.93,0,0,0,1-5.42,1.1,1.1,0,0,0,.19-5,3.69,3.69,0,0,0-.43-3.76,20.78,20.78,0,0,0-1.07.07c-.2,2-.37,3.32-.49,3.86A4.48,4.48,0,0,1-2,5.26,1.06,1.06,0,0,1-3,5.81h0a1.9,1.9,0,0,1-1.29-.67,2.7,2.7,0,0,1-.58-1.31,14.92,14.92,0,0,1,0-3.6q0-.12.06-.54c0-.28,0-.47,0-.57s0-.28,0-.52,0-.42,0-.55,0-.28,0-.47,0-.36,0-.51,0-.29,0-.43A3.09,3.09,0,0,0-5-4.62a1.19,1.19,0,0,0-.67-.6,1.5,1.5,0,0,0-1.2.9A7,7,0,0,0-7.41-2.1c0,.39-.1,1-.14,1.76s-.11,1.47-.18,2.08A9.61,9.61,0,0,1-8,3.32h0l0,0A2.81,2.81,0,0,1-9.2,4.62a1.82,1.82,0,0,1-1.35.15A1.94,1.94,0,0,1-11.61,4,2.39,2.39,0,0,1-12,2.56l.47,0a1.92,1.92,0,0,0,.31,1.16,1.47,1.47,0,0,0,.81.62,1.3,1.3,0,0,0,1-.11A2.32,2.32,0,0,0-8.5,3.18a7.53,7.53,0,0,0,.29-1.5Q-8.1.8-8-.36c0-.78.1-1.37.16-1.78A7.23,7.23,0,0,1-7.28-4.5,1.93,1.93,0,0,1-5.65-5.66h.05l0,0a1.59,1.59,0,0,1,1,.84,3.47,3.47,0,0,1,.34,1.41,4.91,4.91,0,0,1,0,.57v.54c0,.15,0,.37,0,.66s0,.47,0,.58,0,.33-.06.68,0,.56-.06.63a14.78,14.78,0,0,0,0,3.49,2.58,2.58,0,0,0,.5,1.13,1.57,1.57,0,0,0,1,.5A.61.61,0,0,0-2.44,5,3.89,3.89,0,0,0-2,3.85C-1.9,3.31-1.74,2-1.53,0A20.65,20.65,0,0,1-.86-3.89,3.89,3.89,0,0,1-.18-5.26,1.58,1.58,0,0,1,1-5.84Z"/>
<rect fill="none" x="-12" y="-12" width="24" height="24"/>
</symbol>
<symbol id="moonmilk" viewBox="-12 -12 24 24">
<path d="M-4.78-3.06a3.39,3.39,0,0,1,1.5.34,2.48,2.48,0,0,1,1.1,1,3.74,3.74,0,0,1,1.62-.8,3.52,3.52,0,0,1,1.71,0,2.9,2.9,0,0,1,1.39.77A2.49,2.49,0,0,1,3.25-.37,4,4,0,0,1,5-.76a3.58,3.58,0,0,1,1.6.36A2.84,2.84,0,0,1,7.88.92a2.32,2.32,0,0,1,0,1.88.34.34,0,0,1-.37.26A.36.36,0,0,1,7.25,3a.32.32,0,0,1-.12-.25.21.21,0,0,1,0-.12,2,2,0,0,0,0-1.43,2,2,0,0,0-1-.9A2.81,2.81,0,0,0,4.68,0,2.78,2.78,0,0,0,3.12.56L2.46.25A1.7,1.7,0,0,0,2.15-1.1,2.15,2.15,0,0,0,1-1.81a2.85,2.85,0,0,0-1.58.06A3,3,0,0,0-2-.83l-.71-.12A1.74,1.74,0,0,0-3.55-2a2.36,2.36,0,0,0-1.39-.27,3.08,3.08,0,0,0-1.45.53A2.33,2.33,0,0,0-7.32-.56a.35.35,0,0,1-.37.24A.39.39,0,0,1-8-.42a.33.33,0,0,1-.1-.26v-.1A3,3,0,0,1-6.89-2.35,4,4,0,0,1-5-3Z"/>
<rect fill="none" x="-12" y="-12" width="24" height="24"/>
</symbol>
<symbol id="narrow" viewBox="-12 -12 24 24">
<path d="M-1.5,5V-5h0.64V5H-1.5z"/>
<path d="M0.86,5V-5H1.5V5H0.86z"/>
<rect fill="none" x="-12" y="-12" width="24" height="24"/>
</symbol>
<symbol id="paleoflow" viewBox="-12 -12 24 24">
<path d="M.38-12V.17A1.9,1.9,0,0,0,1,0,1.57,1.57,0,0,0,1.7-.72a1.86,1.86,0,0,0,.23-1c0-.09,0-.14.08-.16a.92.92,0,0,1,.24,0,.52.52,0,0,0,.25,0h.08A2.48,2.48,0,0,1,2,0,2.5,2.5,0,0,1,.38.77V7.21H2.09L0,12-1.8,7.23c.07,0,.59,0,1.53,0V.77A3,3,0,0,1-1.35.43a2.16,2.16,0,0,1-1-1,2.38,2.38,0,0,1-.24-1.33l.67,0a2,2,0,0,0,.15,1,1.73,1.73,0,0,0,.59.67A2.14,2.14,0,0,0-.27.16V-12Z"/>
<rect fill="none" x="-12" y="-12" width="24" height="24"/>
</symbol>
<symbol id="rain" viewBox="-12 -12 24 24">
<path d="M-4.14-6.34h0.71v4.69h-0.71V-6.34z"/>
<path d="M-0.35-6.34h0.71v4.69h-0.71V-6.34z"/>
<path d="M3.43-6.34h0.71v4.69H3.43V-6.34z"/>
<path d="M-4.14,1.65h0.71v4.69h-0.71V1.65z"/>
<path d="M-0.35,1.65h0.71v4.69h-0.71V1.65z"/>
<path d="M3.43,1.65h0.71v4.69H3.43V1.65z"/>
<rect fill="none" x="-12" y="-12" width="24" height="24"/>
</symbol>
<symbol id="rats" viewBox="-12 -12 24 24">
<path d="M8.78-2.32,7-2.27c-.51-.17-.65-.56-1.46-.45l-.25.45C3.59-2.75,2.59-3.66.56-3.62l-1.35.3A4.89,4.89,0,0,0-4.24,1.57c-.68.6-2.58.86-3.39.94a6.84,6.84,0,0,0-1.62.39,4.91,4.91,0,0,0-1,.52A1.75,1.75,0,0,0-11,4.61a1.16,1.16,0,0,0,.59,1.48,1.3,1.3,0,0,1,.14.12c.16-.52-.35-.92-.2-1.42a3.35,3.35,0,0,1,.27-.45,3.18,3.18,0,0,1,1.79-1c.63-.12,1.27-.22,1.91-.3.48-.07,1,0,1.4-.12A6.94,6.94,0,0,1-4,2.82,30.64,30.64,0,0,0,.41,2.69l2.16.15c.1-.09,0,0,.1-.15a.87.87,0,0,0-.9-.55c.86-1,2.27-.37,3.1-.05.5.19,1,0,1.25.4.11-.1.1-.07.15-.25.3,0,.31.07.6.15-.06-.49-.34-.64-1-.6a.78.78,0,0,1,0-.55C6.3.56,7.29.73,8.13.43a13.78,13.78,0,0,0,2.15-.9l.6-.85v-.2A16.9,16.9,0,0,0,8.78-2.32Z"/>
<rect fill="none" x="-12" y="-12" width="24" height="24"/>
</symbol>
<symbol id="sand" viewBox="-12 -12 24 24">
<path d="M-1.58,0.83c0.23,0.2,0.35,0.44,0.36,0.73c0.01,0.29-0.08,0.54-0.28,0.75c-0.2,0.21-0.46,0.32-0.78,0.33c-0.32,0.01-0.6-0.08-0.83-0.26C-3.36,2.19-3.49,1.95-3.5,1.67C-3.51,1.38-3.41,1.12-3.2,0.9c0.21-0.22,0.48-0.34,0.8-0.35C-2.08,0.54-1.81,0.64-1.58,0.83z"/>
<path d="M0.08-2.36c0.23,0.2,0.35,0.44,0.36,0.73c0.01,0.29-0.08,0.54-0.28,0.75c-0.2,0.21-0.46,0.32-0.78,0.33c-0.32,0.01-0.59-0.07-0.83-0.26s-0.37-0.42-0.38-0.71c-0.01-0.29,0.09-0.54,0.3-0.76c0.21-0.22,0.48-0.33,0.8-0.35C-0.42-2.65-0.14-2.56,0.08-2.36z"/>
<path d="M3.12,0.55c0.23,0.2,0.35,0.43,0.38,0.71c0.02,0.28-0.07,0.53-0.28,0.75C3,2.23,2.73,2.35,2.42,2.36C2.1,2.37,1.82,2.28,1.58,2.08C1.34,1.88,1.22,1.64,1.2,1.35c-0.01-0.29,0.09-0.54,0.3-0.75C1.72,0.4,1.99,0.29,2.3,0.28S2.89,0.36,3.12,0.55z"/>
<rect fill="none" x="-12" y="-12" width="24" height="24"/>
</symbol>
<symbol  id="scallops" viewBox="-12 -12 24 24">
<path d="M.05-3.74l.21,0A2.35,2.35,0,0,1,1.74-3a2,2,0,0,1,.59,1.55v0l0,0A9.59,9.59,0,0,1-.08,3.27l-.39.47-.27-.55A14.26,14.26,0,0,1-2.33-1.89v-.05l0-.05A2,2,0,0,1-1.44-3.3,2.42,2.42,0,0,1,.05-3.74ZM-.11-3A1.44,1.44,0,0,0-1.55-1.89,13.06,13.06,0,0,0-.29,2.33,8.6,8.6,0,0,0,1.55-1.54a1.41,1.41,0,0,0-.38-1A1.62,1.62,0,0,0,.18-3Z"/>
<rect fill="none" x="-12" y="-12" width="24" height="24"/>
</symbol>
<symbol  id="sink" viewBox="-12 -12 24 24">
<path d="M.72,9.41H.9c1.94,0,3.26-.54,3.94-1.51a3.61,3.61,0,0,0,.33-.69,2,2,0,0,0,.11-.54V6.46l.69,0a2.8,2.8,0,0,1-.58,1.78C4.58,9.39,3.1,10,.93,10H-.93q-3.25,0-4.46-1.8a2.74,2.74,0,0,1-.43-.83A2.37,2.37,0,0,1-6,6.67V6.43l.68,0A2.27,2.27,0,0,0-4.84,7.9c.68,1,2,1.47,3.93,1.48l.5,0ZM-1.46-10a.68.68,0,0,0,.16.41A2.77,2.77,0,0,0-.51-9l0,0a3.63,3.63,0,0,1,1,.7,1.15,1.15,0,0,1,.34.88c0,.58-.53,1.14-1.49,1.68-.68.42-1,.79-1,1.11s.3.61.84,1h0Q.61-2.86.46-1.78a3.51,3.51,0,0,1-1.55,2,.61.61,0,0,0-.26.41,1.67,1.67,0,0,0,.1.51,5.3,5.3,0,0,1,.32,1L.56,1.9.46,8.06-3.4,2.54l1.73-.28A6.16,6.16,0,0,0-2,1.39,1.7,1.7,0,0,1-2.09.58a1.21,1.21,0,0,1,.53-.82h0v0C-.75-.86-.33-1.38-.28-1.85s-.23-.87-.91-1.27h0C-2-3.6-2.37-4.1-2.4-4.61S-2-5.74-1.09-6.29C-.34-6.72.06-7.1.09-7.44a.67.67,0,0,0-.18-.43,3.17,3.17,0,0,0-.79-.58,2.93,2.93,0,0,1-1-.67A1.16,1.16,0,0,1-2.17-10Z"/>
<rect fill="none" x="-12" y="-12" width="24" height="24"/>
</symbol>
<symbol  id="spring" viewBox="-12 -12 24 24">
<path d="M-1.34-9.86,2.52-4.34.78-4.06a8,8,0,0,0,.29.87,1.4,1.4,0,0,1,.13.79,1.3,1.3,0,0,1-.52.84l0,0v0C-.13-.95-.55-.42-.61,0S-.37.91.31,1.3l0,0c.75.46,1.14,1,1.18,1.46S1.12,3.92.21,4.46C-.54,4.9-.94,5.29-1,5.64a.74.74,0,0,0,.18.43A3.2,3.2,0,0,0,0,6.62a3,3,0,0,1,1,.7,1.14,1.14,0,0,1,.31.86A1.74,1.74,0,0,1,.71,9.26H.92c1.92,0,3.22-.52,3.9-1.51a2.05,2.05,0,0,0,.35-.67,2.59,2.59,0,0,0,.1-.55l0-.19.65,0a2.84,2.84,0,0,1-.55,1.8C4.58,9.26,3.08,9.85.92,9.86H-.92c-2.17,0-3.66-.6-4.49-1.77a3.65,3.65,0,0,1-.4-.85A2.43,2.43,0,0,1-6,6.53V6.29l.66,0a2.08,2.08,0,0,0,.47,1.41c.68,1,2,1.5,3.91,1.51H-.4c.62-.43.94-.8,1-1.1a.76.76,0,0,0-.16-.43,3.25,3.25,0,0,0-.79-.51v0a3.8,3.8,0,0,1-1-.7,1.15,1.15,0,0,1-.34-.91q.06-.84,1.5-1.68c.68-.4,1-.77,1-1.1S.49,2.21,0,1.87c0,0,0,0,0,0C-1,1.32-1.44.69-1.34,0a3.58,3.58,0,0,1,1.55-2,.54.54,0,0,0,.23-.38A1.28,1.28,0,0,0,.37-3a4.57,4.57,0,0,1-.32-1l-1.49.24Z"/>
<rect fill="none" x="-12" y="-12" width="24" height="24"/>
</symbol>
<symbol  id="stalactite" viewBox="-12 -12 24 24">
<path d="M3.57-6.69l.52.53L.39-3V6.12H-.39V-3l-3.7-3.14.52-.53L0-3.67Z"/>
<rect fill="none" x="-12" y="-12" width="24" height="24"/>
</symbol>
<symbol  id="stalagmite" viewBox="-12 -12 24 24">
<path d="M.38-6.42V2.75L4.11,5.89l-.56.53L0,3.4l-3.57,3-.53-.53,3.7-3.14V-6.42Z"/>
<rect fill="none" x="-12" y="-12" width="24" height="24"/>
</symbol>
<symbol  id="stalagnate" viewBox="-12 -12 24 24">
<path d="M3.55-8.46l.56.53L.38-4.78v9L4.11,7.36l-.56.53L0,4.86l-3.57,3-.53-.53,3.7-3.14v-9l-3.7-3.15.53-.53L0-5.43Z"/>
<rect fill="none" x="-12" y="-12" width="24" height="24"/>
</symbol>
<symbol  id="straws" viewBox="-12 -12 24 24">
<path d="M-10.89-2.76H10.89V-2H9.63V.46H8.84V-2H8.29v5.6H7.5V-2H5.56V.7H4.77V-2H2.07V2.38H1.29V-2H-.1v3H-.89V-2H-3.2V4.11H-4V-2H-6.22L-6.16.75l-.79,0L-7-2H-8.32V2.33H-9.1V-2h-1.79Z"/>
<rect fill="none" x="-12" y="-12" width="24" height="24"/>
</symbol>
<symbol  id="water" viewBox="-12 -12 24 24">
<path d="M-1.72-9.86,2.11-4.32.38-4.06a6.49,6.49,0,0,0,.29.89,1.5,1.5,0,0,1,.13.79,1.2,1.2,0,0,1-.5.82h0l0,0C-.54-.94-1-.42-1,.05s.24.89.92,1.27h0c.77.48,1.17,1,1.19,1.49S.71,3.94-.2,4.49c-.75.43-1.13.81-1.15,1.15a.51.51,0,0,0,.18.43,2.66,2.66,0,0,0,.76.58,2.93,2.93,0,0,1,1,.67,1.16,1.16,0,0,1,.29.89C.84,8.75.42,9.3-.41,9.86l-.44-.55c.66-.45,1-.83,1-1.15A.47.47,0,0,0,0,7.75a2.84,2.84,0,0,0-.78-.53h0a3.87,3.87,0,0,1-1-.69,1.24,1.24,0,0,1-.34-.91c0-.58.54-1.14,1.52-1.68.66-.42,1-.79,1-1.11s-.3-.61-.84-1h0Q-1.9,1.06-1.74,0a3.44,3.44,0,0,1,1.54-2,.67.67,0,0,0,.27-.41A1.11,1.11,0,0,0,0-3a4.33,4.33,0,0,1-.31-1l-1.5.24Z"/>
<rect fill="none" x="-12" y="-12" width="24" height="24"/>
</symbol><g>
<desc></desc>
<g>
<line fill="none" stroke="#dddddd" stroke-width="0.1mm" x1="0.00" y1="300.00" x2="457.00" y2="300.00" />
<text x="454.20" y="299.80" font-size=".2mm" fill="#000000">0m</text>
<line fill="none" stroke="#dddddd" stroke-width="0.1mm" x1="0.00" y1="280.00" x2="457.00" y2="280.00" />
<text x="454.20" y="279.80" font-size=".2mm" fill="#000000">5m</text>
<line fill="none" stroke="#dddddd" stroke-width="0.1mm" x1="0.00" y1="260.00" x2="457.00" y2="260.00" />
<text x="454.20" y="259.80" font-size=".2mm" fill="#000000">10m</text>
<line fill="none" stroke="#dddddd" stroke-width="0.1mm" x1="0.00" y1="240.00" x2="457.00" y2="240.00" />
<text x="454.20" y="239.80" font-size=".2mm" fill="#000000">15m</text>
<line fill="none" stroke="#dddddd" stroke-width="0.1mm" x1="0.00" y1="220.00" x2="457.00" y2="220.00" />
<text x="454.20" y="219.80" font-size=".2mm" fill="#000000">20m</text>
<line fill="none" stroke="#dddddd" stroke-width="0.1mm" x1="0.00" y1="200.00" x2="457.00" y2="200.00" />
<text x="454.20" y="199.80" font-size=".2mm" fill="#000000">25m</text>
<line fill="none" stroke="#dddddd" stroke-width="0.1mm" x1="0.00" y1="180.00" x2="457.00" y2="180.00" />
<text x="454.20" y="179.80" font-size=".2mm" fill="#000000">30m</text>
<line fill="none" stroke="#dddddd" stroke-width="0.1mm" x1="0.00" y1="160.00" x2="457.00" y2="160.00" />
<text x="454.20" y="159.80" font-size=".2mm" fill="#000000">35m</text>
<line fill="none" stroke="#dddddd" stroke-width="0.1mm" x1="0.00" y1="140.00" x2="457.00" y2="140.00" />
<text x="454.20" y="139.80" font-size=".2mm" fill="#000000">40m</text>
<line fill="none" stroke="#dddddd" stroke-width="0.1mm" x1="0.00" y1="120.00" x2="457.00" y2="120.00" />
<text x="454.20" y="119.80" font-size=".2mm" fill="#000000">45m</text>
<line fill="none" stroke="#dddddd" stroke-width="0.1mm" x1="0.00" y1="100.00" x2="457.00" y2="100.00" />
<text x="454.20" y="99.80" font-size=".2mm" fill="#000000">50m</text>
<line fill="none" stroke="#dddddd" stroke-width="0.1mm" x1="0.00" y1="80.00" x2="457.00" y2="80.00" />
<text x="454.20" y="79.80" font-size=".2mm" fill="#000000">55m</text>
<line fill="none" stroke="#dddddd" stroke-width="0.1mm" x1="0.00" y1="60.00" x2="457.00" y2="60.00" />
<text x="454.20" y="59.80" font-size=".2mm" fill="#000000">60m</text>
<line fill="none" stroke="#dddddd" stroke-width="0.1mm" x1="0.00" y1="40.00" x2="457.00" y2="40.00" />
<text x="454.20" y="39.80" font-size=".2mm" fill="#000000">65m</text>
<line fill="none" stroke="#dddddd" stroke-width="0.1mm" x1="0.00" y1="20.00" x2="457.00" y2="20.00" />
<text x="454.20" y="19.80" font-size=".2mm" fill="#000000">70m</text>
<line fill="none" stroke="#dddddd" stroke-width="0.1mm" x1="0.00" y1="320.00" x2="457.00" y2="320.00" />
<text x="454.20" y="319.80" font-size=".2mm" fill="#000000">-5m</text>
</g>
<g>
</g>
<g>
<line fill="none" stroke="#5674b9" stroke-width="0.05mm" stroke-dasharray="0.4,0.2" x1="23.00" y1="300.00" x2="19.42" y2="300.14" />
<line fill="none" stroke="#5674b9" stroke-width="0.05mm" stroke-dasharray="0.4,0.2" x1="23.00" y1="300.00" x2="19.69" y2="299.24" />
<line fill="none" stroke="#5674b9" stroke-width="0.05mm" stroke-dasharray="0.4,0.2" x1="23.00" y1="300.00" x2="30.46" y2="299.73" />
<line fill="none" stroke="#5674b9" stroke-width="0.05mm" stroke-dasharray="0.4,0.2" x1="23.00" y1="300.00" x2="23.71" y2="305.63" />
<line fill="none" stroke="#5674b9" stroke-width="0.05mm" stroke-dasharray="0.4,0.2" x1="23.00" y1="300.00" x2="25.14" y2="231.94" />
<line fill="none" stroke="#111111" stroke-width="0.05mm" x1="23.00" y1="300.00" x2="44.37" y2="237.49" />
<line fill="none" stroke="#111111" stroke-width="0.05mm" x1="44.37" y1="237.49" x2="61.11" y2="227.92" />
<line fill="none" stroke="#00aeef" stroke-width="0.05mm" stroke-dasharray="0.4,0.2" x1="61.11" y1="227.92" x2="41.76" y2="229.23" />
<line fill="none" stroke="#5674b9" stroke-width="0.05mm" stroke-dasharray="0.4,0.2" x1="61.11" y1="227.92" x2="67.74" y2="207.07" />
<line fill="none" stroke="#00aeef" stroke-width="0.05mm" stroke-dasharray="0.4,0.2" x1="61.11" y1="227.92" x2="57.51" y2="270.14" />
<line fill="none" stroke="#5674b9" stroke-width="0.05mm" stroke-dasharray="0.4,0.2" x1="61.11" y1="227.92" x2="57.48" y2="227.93" />
<line fill="none" stroke="#5674b9" stroke-width="0.05mm" stroke-dasharray="0.4,0.2" x1="61.11" y1="227.92" x2="57.48" y2="227.96" />
<line fill="none" stroke="#5674b9" stroke-width="0.05mm" stroke-dasharray="0.4,0.2" x1="61.11" y1="227.92" x2="57.43" y2="227.98" />
<line fill="none" stroke="#111111" stroke-width="0.05mm" x1="61.11" y1="227.92" x2="65.63" y2="228.02" />
<line fill="none" stroke="#00aeef" stroke-width="0.05mm" stroke-dasharray="0.4,0.2" x1="65.63" y1="228.02" x2="64.72" y2="228.02" />
<line fill="none" stroke="#00aeef" stroke-width="0.05mm" stroke-dasharray="0.4,0.2" x1="65.63" y1="228.02" x2="65.31" y2="224.90" />
<line fill="none" stroke="#00aeef" stroke-width="0.05mm" stroke-dasharray="0.4,0.2" x1="65.63" y1="228.02" x2="61.05" y2="284.80" />
<line fill="none" stroke="#00aeef" stroke-width="0.05mm" stroke-dasharray="0.4,0.2" x1="65.63" y1="228.02" x2="66.77" y2="226.96" />
<line fill="none" stroke="#111111" stroke-width="0.05mm" x1="65.63" y1="228.02" x2="69.75" y2="226.93" />
<line fill="none" stroke="#5674b9" stroke-width="0.05mm" stroke-dasharray="0.4,0.2" x1="69.75" y1="226.93" x2="68.11" y2="226.91" />
<line fill="none" stroke="#00aeef" stroke-width="0.05mm" stroke-dasharray="0.4,0.2" x1="69.75" y1="226.93" x2="67.22" y2="227.00" />
<line fill="none" stroke="#5674b9" stroke-width="0.05mm" stroke-dasharray="0.4,0.2" x1="69.75" y1="226.93" x2="68.84" y2="219.48" />
<line fill="none" stroke="#5674b9" stroke-width="0.05mm" stroke-dasharray="0.4,0.2" x1="69.75" y1="226.93" x2="66.11" y2="280.70" />
<line fill="none" stroke="#111111" stroke-width="0.05mm" x1="69.75" y1="226.93" x2="82.02" y2="227.88" />
<line fill="none" stroke="#5674b9" stroke-width="0.05mm" stroke-dasharray="0.4,0.2" x1="82.02" y1="227.88" x2="94.27" y2="228.83" />
<line fill="none" stroke="#5674b9" stroke-width="0.05mm" stroke-dasharray="0.4,0.2" x1="82.02" y1="227.88" x2="88.23" y2="228.17" />
<line fill="none" stroke="#00aeef" stroke-width="0.05mm" stroke-dasharray="0.4,0.2" x1="82.02" y1="227.88" x2="92.80" y2="228.61" />
<line fill="none" stroke="#5674b9" stroke-width="0.05mm" stroke-dasharray="0.4,0.2" x1="82.02" y1="227.88" x2="77.66" y2="226.93" />
<line fill="none" stroke="#00aeef" stroke-width="0.05mm" stroke-dasharray="0.4,0.2" x1="82.02" y1="227.88" x2="75.53" y2="227.89" />
<line fill="none" stroke="#00aeef" stroke-width="0.05mm" stroke-dasharray="0.4,0.2" x1="82.02" y1="227.88" x2="83.84" y2="225.59" />
<line fill="none" stroke="#5674b9" stroke-width="0.05mm" stroke-dasharray="0.4,0.2" x1="82.02" y1="227.88" x2="86.97" y2="233.53" />
<line fill="none" stroke="#5674b9" stroke-width="0.05mm" stroke-dasharray="0.4,0.2" x1="82.02" y1="227.88" x2="82.22" y2="204.78" />
<line fill="none" stroke="#111111" stroke-width="0.05mm" x1="82.02" y1="227.88" x2="89.95" y2="211.01" />
<line fill="none" stroke="#5674b9" stroke-width="0.05mm" stroke-dasharray="0.4,0.2" x1="89.95" y1="211.01" x2="90.04" y2="211.21" />
<line fill="none" stroke="#5674b9" stroke-width="0.05mm" stroke-dasharray="0.4,0.2" x1="89.95" y1="211.01" x2="105.77" y2="211.09" />
<line fill="none" stroke="#00aeef" stroke-width="0.05mm" stroke-dasharray="0.4,0.2" x1="89.95" y1="211.01" x2="102.59" y2="212.07" />
<line fill="none" stroke="#5674b9" stroke-width="0.05mm" stroke-dasharray="0.4,0.2" x1="89.95" y1="211.01" x2="86.80" y2="229.99" />
<line fill="none" stroke="#5674b9" stroke-width="0.05mm" stroke-dasharray="0.4,0.2" x1="89.95" y1="211.01" x2="101.33" y2="135.55" />
<line fill="none" stroke="#111111" stroke-width="0.05mm" x1="89.95" y1="211.01" x2="107.39" y2="176.90" />
<line fill="none" stroke="#5674b9" stroke-width="0.05mm" stroke-dasharray="0.4,0.2" opacity="0.68" x1="107.39" y1="176.90" x2="107.47" y2="177.42" />
<line fill="none" stroke="#5674b9" stroke-width="0.05mm" stroke-dasharray="0.4,0.2" x1="107.39" y1="176.90" x2="105.42" y2="180.52" />
<line fill="none" stroke="#5674b9" stroke-width="0.05mm" stroke-dasharray="0.4,0.2" x1="107.39" y1="176.90" x2="105.42" y2="178.44" />
<line fill="none" stroke="#00aeef" stroke-width="0.05mm" stroke-dasharray="0.4,0.2" x1="107.39" y1="176.90" x2="91.42" y2="176.70" />
<line fill="none" stroke="#00aeef" stroke-width="0.05mm" stroke-dasharray="0.4,0.2" x1="107.39" y1="176.90" x2="106.15" y2="176.26" />
<line fill="none" stroke="#111111" stroke-width="0.05mm" x1="107.39" y1="176.90" x2="109.17" y2="141.33" />
<line fill="none" stroke="#00aeef" stroke-width="0.05mm" stroke-dasharray="0.4,0.2" x1="109.17" y1="141.33" x2="111.01" y2="105.54" />
<line fill="none" stroke="#00aeef" stroke-width="0.05mm" stroke-dasharray="0.4,0.2" x1="109.17" y1="141.33" x2="128.05" y2="141.10" />
<line fill="none" stroke="#5674b9" stroke-width="0.05mm" stroke-dasharray="0.4,0.2" x1="109.17" y1="141.33" x2="116.24" y2="142.04" />
<line fill="none" stroke="#00aeef" stroke-width="0.05mm" stroke-dasharray="0.4,0.2" x1="109.17" y1="141.33" x2="112.34" y2="141.01" />
<line fill="none" stroke="#00aeef" stroke-width="0.05mm" stroke-dasharray="0.4,0.2" x1="109.17" y1="141.33" x2="129.95" y2="122.21" />
<line fill="none" stroke="#111111" stroke-width="0.05mm" x1="109.17" y1="141.33" x2="126.50" y2="122.48" />
<line fill="none" stroke="#5674b9" stroke-width="0.05mm" stroke-dasharray="0.4,0.2" x1="126.50" y1="122.48" x2="114.12" y2="124.56" />
<line fill="none" stroke="#5674b9" stroke-width="0.05mm" stroke-dasharray="0.4,0.2" x1="126.50" y1="122.48" x2="125.47" y2="122.38" />
<line fill="none" stroke="#00aeef" stroke-width="0.05mm" stroke-dasharray="0.4,0.2" x1="126.50" y1="122.48" x2="131.84" y2="108.43" />
<line fill="none" stroke="#5674b9" stroke-width="0.05mm" stroke-dasharray="0.4,0.2" x1="126.50" y1="122.48" x2="111.17" y2="156.07" />
<line fill="none" stroke="#111111" stroke-width="0.05mm" x1="126.50" y1="122.48" x2="139.81" y2="107.91" />
<line fill="none" stroke="#00aeef" stroke-width="0.05mm" stroke-dasharray="0.4,0.2" x1="139.81" y1="107.91" x2="130.40" y2="107.44" />
<line fill="none" stroke="#5674b9" stroke-width="0.05mm" stroke-dasharray="0.4,0.2" x1="139.81" y1="107.91" x2="138.72" y2="107.82" />
<line fill="none" stroke="#00aeef" stroke-width="0.05mm" stroke-dasharray="0.4,0.2" x1="139.81" y1="107.91" x2="138.59" y2="106.85" />
<line fill="none" stroke="#00aeef" stroke-width="0.05mm" stroke-dasharray="0.4,0.2" x1="139.81" y1="107.91" x2="139.47" y2="65.68" />
<line fill="none" stroke="#00aeef" stroke-width="0.05mm" stroke-dasharray="0.4,0.2" x1="139.81" y1="107.91" x2="140.27" y2="115.97" />
<line fill="none" stroke="#111111" stroke-width="0.05mm" x1="139.81" y1="107.91" x2="174.56" y2="108.54" />
<line fill="none" stroke="#5674b9" stroke-width="0.05mm" stroke-dasharray="0.4,0.2" x1="174.56" y1="108.54" x2="203.87" y2="108.23" />
<line fill="none" stroke="#00aeef" stroke-width="0.05mm" stroke-dasharray="0.4,0.2" x1="174.56" y1="108.54" x2="175.60" y2="107.16" />
<line fill="none" stroke="#00aeef" stroke-width="0.05mm" stroke-dasharray="0.4,0.2" x1="174.56" y1="108.54" x2="148.29" y2="110.12" />
<line fill="none" stroke="#00aeef" stroke-width="0.05mm" stroke-dasharray="0.4,0.2" x1="174.56" y1="108.54" x2="174.26" y2="107.58" />
<line fill="none" stroke="#00aeef" stroke-width="0.05mm" stroke-dasharray="0.4,0.2" x1="174.56" y1="108.54" x2="175.44" y2="114.60" />
<line fill="none" stroke="#111111" stroke-width="0.05mm" x1="174.56" y1="108.54" x2="187.60" y2="96.85" />
<line fill="none" stroke="#5674b9" stroke-width="0.05mm" stroke-dasharray="0.4,0.2" x1="187.60" y1="96.85" x2="193.69" y2="98.18" />
<line fill="none" stroke="#5674b9" stroke-width="0.05mm" stroke-dasharray="0.4,0.2" x1="187.60" y1="96.85" x2="182.17" y2="96.66" />
<line fill="none" stroke="#00aeef" stroke-width="0.05mm" stroke-dasharray="0.4,0.2" x1="187.60" y1="96.85" x2="185.96" y2="86.34" />
<line fill="none" stroke="#111111" stroke-width="0.05mm" x1="187.60" y1="96.85" x2="207.29" y2="60.06" />
<line fill="none" stroke="#00aeef" stroke-width="0.05mm" stroke-dasharray="0.4,0.2" x1="207.29" y1="60.06" x2="187.62" y2="96.98" />
<line fill="none" stroke="#00aeef" stroke-width="0.05mm" stroke-dasharray="0.4,0.2" x1="207.29" y1="60.06" x2="190.90" y2="30.83" />
<line fill="none" stroke="#00aeef" stroke-width="0.05mm" stroke-dasharray="0.4,0.2" x1="207.29" y1="60.06" x2="186.50" y2="59.69" />
<line fill="none" stroke="#00aeef" stroke-width="0.05mm" stroke-dasharray="0.4,0.2" x1="207.29" y1="60.06" x2="202.83" y2="48.85" />
<line fill="none" stroke="#00aeef" stroke-width="0.05mm" stroke-dasharray="0.4,0.2" x1="207.29" y1="60.06" x2="203.22" y2="49.57" />
<line fill="none" stroke="#00aeef" stroke-width="0.05mm" stroke-dasharray="0.4,0.2" x1="207.29" y1="60.06" x2="210.20" y2="64.24" />
<line fill="none" stroke="#00aeef" stroke-width="0.05mm" stroke-dasharray="0.4,0.2" x1="207.29" y1="60.06" x2="209.99" y2="62.35" />
<line fill="none" stroke="#111111" stroke-width="0.05mm" x1="207.29" y1="60.06" x2="221.41" y2="55.75" />
<line fill="none" stroke="#00aeef" stroke-width="0.05mm" stroke-dasharray="0.4,0.2" x1="221.41" y1="55.75" x2="219.18" y2="54.50" />
<line fill="none" stroke="#00aeef" stroke-width="0.05mm" stroke-dasharray="0.4,0.2" x1="221.41" y1="55.75" x2="224.23" y2="55.03" />
<line fill="none" stroke="#00aeef" stroke-width="0.05mm" stroke-dasharray="0.4,0.2" x1="221.41" y1="55.75" x2="225.36" y2="55.56" />
<line fill="none" stroke="#00aeef" stroke-width="0.05mm" stroke-dasharray="0.4,0.2" x1="221.41" y1="55.75" x2="221.35" y2="51.72" />
<line fill="none" stroke="#111111" stroke-width="0.05mm" x1="221.41" y1="55.75" x2="233.24" y2="54.56" />
<line fill="none" stroke="#5674b9" stroke-width="0.05mm" stroke-dasharray="0.4,0.2" x1="233.24" y1="54.56" x2="232.07" y2="54.70" />
<line fill="none" stroke="#5674b9" stroke-width="0.05mm" stroke-dasharray="0.4,0.2" x1="233.24" y1="54.56" x2="231.18" y2="52.44" />
<line fill="none" stroke="#00aeef" stroke-width="0.05mm" stroke-dasharray="0.4,0.2" x1="233.24" y1="54.56" x2="233.09" y2="58.04" />
<line fill="none" stroke="#111111" stroke-width="0.05mm" x1="233.24" y1="54.56" x2="243.19" y2="54.16" />
<line fill="none" stroke="#5674b9" stroke-width="0.05mm" stroke-dasharray="0.4,0.2" x1="243.19" y1="54.16" x2="240.82" y2="46.12" />
<line fill="none" stroke="#5674b9" stroke-width="0.05mm" stroke-dasharray="0.4,0.2" x1="243.19" y1="54.16" x2="247.17" y2="45.10" />
<line fill="none" stroke="#5674b9" stroke-width="0.05mm" stroke-dasharray="0.4,0.2" x1="243.19" y1="54.16" x2="253.38" y2="48.05" />
<line fill="none" stroke="#5674b9" stroke-width="0.05mm" stroke-dasharray="0.4,0.2" x1="243.19" y1="54.16" x2="244.38" y2="43.26" />
<line fill="none" stroke="#00aeef" stroke-width="0.05mm" stroke-dasharray="0.4,0.2" x1="243.19" y1="54.16" x2="241.58" y2="53.87" />
<line fill="none" stroke="#00aeef" stroke-width="0.05mm" stroke-dasharray="0.4,0.2" x1="243.19" y1="54.16" x2="235.98" y2="54.55" />
<line fill="none" stroke="#00aeef" stroke-width="0.05mm" stroke-dasharray="0.4,0.2" x1="243.19" y1="54.16" x2="241.98" y2="61.57" />
<line fill="none" stroke="#111111" stroke-width="0.05mm" x1="243.19" y1="54.16" x2="254.95" y2="52.38" />
<line fill="none" stroke="#00aeef" stroke-width="0.05mm" stroke-dasharray="0.4,0.2" x1="254.95" y1="52.38" x2="258.80" y2="52.33" />
<line fill="none" stroke="#00aeef" stroke-width="0.05mm" stroke-dasharray="0.4,0.2" x1="254.95" y1="52.38" x2="266.55" y2="51.17" />
<line fill="none" stroke="#00aeef" stroke-width="0.05mm" stroke-dasharray="0.4,0.2" x1="254.95" y1="52.38" x2="275.44" y2="49.40" />
<line fill="none" stroke="#00aeef" stroke-width="0.05mm" stroke-dasharray="0.4,0.2" x1="254.95" y1="52.38" x2="255.74" y2="48.75" />
<line fill="none" stroke="#00aeef" stroke-width="0.05mm" stroke-dasharray="0.4,0.2" x1="254.95" y1="52.38" x2="256.03" y2="55.60" />
<line fill="none" stroke="#111111" stroke-width="0.05mm" x1="254.95" y1="52.38" x2="282.90" y2="49.25" />
<line fill="none" stroke="#00aeef" stroke-width="0.05mm" stroke-dasharray="0.4,0.2" x1="282.90" y1="49.25" x2="279.02" y2="49.34" />
<line fill="none" stroke="#00aeef" stroke-width="0.05mm" stroke-dasharray="0.4,0.2" x1="282.90" y1="49.25" x2="281.04" y2="44.89" />
<line fill="none" stroke="#00aeef" stroke-width="0.05mm" stroke-dasharray="0.4,0.2" x1="282.90" y1="49.25" x2="282.88" y2="50.53" />
<line fill="none" stroke="#111111" stroke-width="0.05mm" x1="282.90" y1="49.25" x2="322.90" y2="38.74" />
<line fill="none" stroke="#5674b9" stroke-width="0.05mm" stroke-dasharray="0.4,0.2" x1="322.90" y1="38.74" x2="319.98" y2="38.52" />
<line fill="none" stroke="#5674b9" stroke-width="0.05mm" stroke-dasharray="0.4,0.2" x1="322.90" y1="38.74" x2="331.95" y2="35.23" />
<line fill="none" stroke="#00aeef" stroke-width="0.05mm" stroke-dasharray="0.4,0.2" x1="322.90" y1="38.74" x2="305.11" y2="41.24" />
<line fill="none" stroke="#5674b9" stroke-width="0.05mm" stroke-dasharray="0.4,0.2" x1="322.90" y1="38.74" x2="320.25" y2="28.03" />
<line fill="none" stroke="#5674b9" stroke-width="0.05mm" stroke-dasharray="0.4,0.2" x1="322.90" y1="38.74" x2="322.34" y2="40.59" />
<line fill="none" stroke="#111111" stroke-width="0.05mm" x1="322.90" y1="38.74" x2="355.71" y2="36.56" />
<line fill="none" stroke="#5674b9" stroke-width="0.05mm" stroke-dasharray="0.4,0.2" x1="355.71" y1="36.56" x2="349.91" y2="38.19" />
<line fill="none" stroke="#5674b9" stroke-width="0.05mm" stroke-dasharray="0.4,0.2" x1="355.71" y1="36.56" x2="353.89" y2="35.08" />
<line fill="none" stroke="#5674b9" stroke-width="0.05mm" stroke-dasharray="0.4,0.2" x1="355.71" y1="36.56" x2="353.94" y2="38.72" />
<line fill="none" stroke="#111111" stroke-width="0.05mm" x1="355.71" y1="36.56" x2="384.64" y2="40.19" />
<line fill="none" stroke="#00aeef" stroke-width="0.05mm" stroke-dasharray="0.4,0.2" x1="384.64" y1="40.19" x2="385.68" y2="37.14" />
<line fill="none" stroke="#00aeef" stroke-width="0.05mm" stroke-dasharray="0.4,0.2" x1="384.64" y1="40.19" x2="385.57" y2="33.91" />
<line fill="none" stroke="#00aeef" stroke-width="0.05mm" stroke-dasharray="0.4,0.2" x1="384.64" y1="40.19" x2="385.29" y2="42.50" />
<line fill="none" stroke="#111111" stroke-width="0.05mm" x1="384.64" y1="40.19" x2="406.25" y2="24.47" />
<line fill="none" stroke="#5674b9" stroke-width="0.05mm" stroke-dasharray="0.4,0.2" x1="406.25" y1="24.47" x2="407.01" y2="24.87" />
<line fill="none" stroke="#5674b9" stroke-width="0.05mm" stroke-dasharray="0.4,0.2" x1="406.25" y1="24.47" x2="406.57" y2="23.72" />
<line fill="none" stroke="#5674b9" stroke-width="0.05mm" stroke-dasharray="0.4,0.2" x1="406.25" y1="24.47" x2="406.14" y2="25.21" />
<line fill="none" stroke="#00aeef" stroke-width="0.05mm" stroke-dasharray="0.4,0.2" x1="406.25" y1="24.47" x2="434.80" y2="32.05" />
<line fill="none" stroke="#5674b9" stroke-width="0.05mm" stroke-dasharray="0.4,0.2" x1="406.25" y1="24.47" x2="406.99" y2="24.06" />
<line fill="none" stroke="#00aeef" stroke-width="0.05mm" stroke-dasharray="0.4,0.2" x1="406.25" y1="24.47" x2="404.12" y2="23.97" />
<line fill="none" stroke="#5674b9" stroke-width="0.05mm" stroke-dasharray="0.4,0.2" x1="406.25" y1="24.47" x2="405.93" y2="19.25" />
<line fill="none" stroke="#00aeef" stroke-width="0.05mm" stroke-dasharray="0.4,0.2" x1="406.25" y1="24.47" x2="408.94" y2="24.47" />
<line fill="none" stroke="#111111" stroke-width="0.05mm" x1="406.25" y1="24.47" x2="437.25" y2="32.10" />
<line fill="none" stroke="#111111" stroke-width="0.05mm" x1="207.29" y1="60.06" x2="221.08" y2="57.23" />
<line fill="none" stroke="#5674b9" stroke-width="0.05mm" stroke-dasharray="0.4,0.2" x1="221.08" y1="57.23" x2="222.74" y2="60.14" />
<line fill="none" stroke="#5674b9" stroke-width="0.05mm" stroke-dasharray="0.4,0.2" x1="221.08" y1="57.23" x2="222.74" y2="60.14" />
<line fill="none" stroke="#5674b9" stroke-width="0.05mm" stroke-dasharray="0.4,0.2" x1="221.08" y1="57.23" x2="222.80" y2="60.20" />
<line fill="none" stroke="#111111" stroke-width="0.05mm" x1="221.08" y1="57.23" x2="244.11" y2="47.59" />
<line fill="none" stroke="#5674b9" stroke-width="0.05mm" stroke-dasharray="0.4,0.2" x1="244.11" y1="47.59" x2="221.04" y2="57.34" />
<line fill="none" stroke="#5674b9" stroke-width="0.05mm" stroke-dasharray="0.4,0.2" x1="244.11" y1="47.59" x2="221.11" y2="57.29" />
<line fill="none" stroke="#00aeef" stroke-width="0.05mm" stroke-dasharray="0.4,0.2" x1="244.11" y1="47.59" x2="246.11" y2="48.39" />
<line fill="none" stroke="#00aeef" stroke-width="0.05mm" stroke-dasharray="0.4,0.2" x1="244.11" y1="47.59" x2="244.46" y2="43.13" />
<line fill="none" stroke="#00aeef" stroke-width="0.05mm" stroke-dasharray="0.4,0.2" x1="244.11" y1="47.59" x2="244.10" y2="57.38" />
<line fill="none" stroke="#5674b9" stroke-width="0.05mm" stroke-dasharray="0.4,0.2" x1="244.11" y1="47.59" x2="223.98" y2="51.86" />
<line fill="none" stroke="#5674b9" stroke-width="0.05mm" stroke-dasharray="0.4,0.2" x1="244.11" y1="47.59" x2="242.84" y2="46.95" />
<line fill="none" stroke="#111111" stroke-width="0.05mm" x1="244.11" y1="47.59" x2="267.37" y2="40.68" />
<line fill="none" stroke="#5674b9" stroke-width="0.05mm" stroke-dasharray="0.4,0.2" x1="267.37" y1="40.68" x2="266.73" y2="40.84" />
<line fill="none" stroke="#5674b9" stroke-width="0.05mm" stroke-dasharray="0.4,0.2" x1="267.37" y1="40.68" x2="260.89" y2="21.59" />
<line fill="none" stroke="#5674b9" stroke-width="0.05mm" stroke-dasharray="0.4,0.2" opacity="0.61" x1="267.37" y1="40.68" x2="267.36" y2="47.30" />
<line fill="none" stroke="#111111" stroke-width="0.05mm" x1="267.37" y1="40.68" x2="278.37" y2="40.61" />
<line fill="none" stroke="#00aeef" stroke-width="0.05mm" stroke-dasharray="0.4,0.2" x1="278.37" y1="40.61" x2="267.33" y2="40.69" />
<line fill="none" stroke="#5674b9" stroke-width="0.05mm" stroke-dasharray="0.4,0.2" x1="278.37" y1="40.61" x2="278.30" y2="38.79" />
<line fill="none" stroke="#5674b9" stroke-width="0.05mm" stroke-dasharray="0.4,0.2" x1="278.37" y1="40.61" x2="278.79" y2="43.10" />
</g>
<g>
<circle cx="23.00" cy="300.00" r="0.1" fill="#111111" />
<circle cx="44.37" cy="237.49" r="0.1" fill="#111111" />
<circle cx="61.11" cy="227.92" r="0.1" fill="#111111" />
<circle cx="65.63" cy="228.02" r="0.1" fill="#111111" />
<circle cx="69.75" cy="226.93" r="0.1" fill="#111111" />
<circle cx="82.02" cy="227.88" r="0.1" fill="#111111" />
<circle cx="89.95" cy="211.01" r="0.1" fill="#111111" />
<circle cx="107.39" cy="176.90" r="0.1" fill="#111111" />
<circle cx="109.17" cy="141.33" r="0.1" fill="#111111" />
<circle cx="126.50" cy="122.48" r="0.1" fill="#111111" />
<circle cx="139.81" cy="107.91" r="0.1" fill="#111111" />
<circle cx="174.56" cy="108.54" r="0.1" fill="#111111" />
<circle cx="187.60" cy="96.85" r="0.1" fill="#111111" />
<circle cx="207.29" cy="60.06" r="0.1" fill="#111111" />
<circle cx="221.41" cy="55.75" r="0.1" fill="#111111" />
<circle cx="233.24" cy="54.56" r="0.1" fill="#111111" />
<circle cx="243.19" cy="54.16" r="0.1" fill="#111111" />
<circle cx="254.95" cy="52.38" r="0.1" fill="#111111" />
<circle cx="282.90" cy="49.25" r="0.1" fill="#111111" />
<circle cx="322.90" cy="38.74" r="0.1" fill="#111111" />
<circle cx="355.71" cy="36.56" r="0.1" fill="#111111" />
<circle cx="384.64" cy="40.19" r="0.1" fill="#111111" />
<circle cx="406.25" cy="24.47" r="0.1" fill="#111111" />
<circle cx="437.25" cy="32.10" r="0.1" fill="#111111" />
<circle cx="221.08" cy="57.23" r="0.1" fill="#111111" />
<circle cx="244.11" cy="47.59" r="0.1" fill="#111111" />
<circle cx="267.37" cy="40.68" r="0.1" fill="#111111" />
<circle cx="278.37" cy="40.61" r="0.1" fill="#111111" />
</g>
<g>
<text x="23.20" y="300.00" font-size=".2mm" fill="#000000">0</text>
<text x="44.57" y="237.49" font-size=".2mm" fill="#000000">1</text>
<text x="61.31" y="227.92" font-size=".2mm" fill="#000000">2</text>
<text x="65.83" y="228.02" font-size=".2mm" fill="#000000">3</text>
<text x="69.95" y="226.93" font-size=".2mm" fill="#000000">4</text>
<text x="82.22" y="227.88" font-size=".2mm" fill="#000000">5</text>
<text x="90.15" y="211.01" font-size=".2mm" fill="#000000">6</text>
<text x="107.59" y="176.90" font-size=".2mm" fill="#000000">7</text>
<text x="109.37" y="141.33" font-size=".2mm" fill="#000000">8</text>
<text x="126.70" y="122.48" font-size=".2mm" fill="#000000">9</text>
<text x="140.01" y="107.91" font-size=".2mm" fill="#000000">10</text>
<text x="174.76" y="108.54" font-size=".2mm" fill="#000000">11</text>
<text x="187.80" y="96.85" font-size=".2mm" fill="#000000">12</text>
<text x="207.49" y="60.06" font-size=".2mm" fill="#000000">13</text>
<text x="221.61" y="55.75" font-size=".2mm" fill="#000000">14</text>
<text x="233.44" y="54.56" font-size=".2mm" fill="#000000">15</text>
<text x="243.39" y="54.16" font-size=".2mm" fill="#000000">16</text>
<text x="255.15" y="52.38" font-size=".2mm" fill="#000000">17</text>
<text x="283.10" y="49.25" font-size=".2mm" fill="#000000">18</text>
<text x="323.10" y="38.74" font-size=".2mm" fill="#000000">19</text>
<text x="355.91" y="36.56" font-size=".2mm" fill="#000000">20</text>
<text x="384.84" y="40.19" font-size=".2mm" fill="#000000">21</text>
<text x="406.45" y="24.47" font-size=".2mm" fill="#000000">22</text>
<text x="437.45" y="32.10" font-size=".2mm" fill="#000000">23</text>
<text x="221.28" y="57.23" font-size=".2mm" fill="#000000">13.1</text>
<text x="244.31" y="47.59" font-size=".2mm" fill="#000000">13.2</text>
<text x="267.57" y="40.68" font-size=".2mm" fill="#000000">13.3</text>
<text x="278.57" y="40.61" font-size=".2mm" fill="#000000">13.4</text>
</g>
<g>
</g>
</g>
</svg>