<?xml version="1.0" encoding="utf-8"?>
<!DOCTYPE svg PUBLIC "-//W3C//DTD SVG 1.1//EN" "http://www.w3.org/Graphics/SVG/1.1/DTD/svg11.dtd">
<svg version="1.1" id="Layer_1" xmlns="http://www.w3.org/2000/svg" xmlns:xlink="http://www.w3.org/1999/xlink" x="0px" y="0px" width="126mm" height="221mm" viewBox="0 0 126 221" enable-background="new 0 0 126 221" xml:space="preserve">
<symbol id="airflow" viewBox="-12 -12 24 24">
<path d="M-4.38,10.73l4.2-3.84V3.55L-4.07,7.13l-.31-.29L-.18,3V-6.89a3.37,3.37,0,0,0-1.68.53l1.68-4.15L0-11l.21.51h0v0l1.65,4.1A3.26,3.26,0,0,0,.24-6.89v14l-.08,0L-4.07,11Z"/>
<rect fill="none" x="-12" y="-12" width="24" height="24"/>
</symbol>
<symbol id="anastomosis" viewBox="-12 -12 24 24">
<path d="M2.23-4.78l.37.24L5.22-2.78l-.47.57L2.49-3.7l-4.61,8-.24.44-.37-.34L-5.22,2.3l.55-.52,2.1,1.82L2-4.39Z"/>
<rect fill="none" x="-12" y="-12" width="24" height="24"/>
</symbol>
<symbol id="bivouac" viewBox="-12 -12 24 24">
<path d="M.25-7.66l.24.58L.54-7l3.88.48-3.31.91L6,6H8.35v.48l-16.7.07V6.05h2.64L0-7.08Zm0,1.32L-5.13,6H-4l2.07-5L.2-4l2.09,5L4.37,6H5.44Z"/>
<rect fill="none" x="-12" y="-12" width="24" height="24"/>
</symbol>
<symbol id="bones" viewBox="-12 -12 24 24">
<path d="M2.44,4.27l-.16,0H2.13a.22.22,0,0,1-.11,0l-.1-.06a.39.39,0,0,1-.09-.11l-.08-.13a1.51,1.51,0,0,1-.06-.15l-.07-.17s0-.11-.08-.19-.06-.16-.08-.21a4.75,4.75,0,0,0-.38-.71c-.18-.29-.43-.64-.74-1A11.15,11.15,0,0,0-.7.32,6.73,6.73,0,0,0-2-.64a4.12,4.12,0,0,0-1.44-.52A1.64,1.64,0,0,1-5-2.19.72.72,0,0,1-5-2.44a1,1,0,0,1,0-.29A.52.52,0,0,1-4.87-3a.54.54,0,0,1,.35-.15L-4-3.22l.46,0a.54.54,0,0,0,.27-.06A.52.52,0,0,0-3-3.56a.74.74,0,0,0,.13-.31.54.54,0,0,1,.15-.26.54.54,0,0,1,.3-.15.83.83,0,0,1,.47,0,1.11,1.11,0,0,1,.35.4A7.46,7.46,0,0,1-1-2.76q.18.42.33.72a3.22,3.22,0,0,0,.39.57L.1-1a4.77,4.77,0,0,0,.58.43c.28.18.51.33.69.43l1,.56a1.84,1.84,0,0,0,.39.23A5.29,5.29,0,0,1,3.22.9l.43.26a3.7,3.7,0,0,1,.46.3l.36.29a2.28,2.28,0,0,1,.31.32A1,1,0,0,1,5,2.4c.2.48,0,.78-.47.91h0a8.48,8.48,0,0,0-1.12.09,1,1,0,0,0-.42.44A1,1,0,0,1,2.44,4.27Z"/>
<rect fill="none" x="-12" y="-12" width="24" height="24"/>
</symbol>
<symbol id="calcite" viewBox="-12 -12 24 24">
<path d="M2.36-2.22l.05.46.34,3.91L2,2.22,1.65-1.26-2.52-.06l-.23-.7L1.89-2.08Z"/>
<rect fill="none" x="-12" y="-12" width="24" height="24"/>
</symbol>
<symbol id="cauliflower" viewBox="-12 -12 24 24">
<path d="M5.58,3.22v-3A2.12,2.12,0,0,0,6.92-.43a1.78,1.78,0,0,0,.55-1.32,1.92,1.92,0,0,0-.65-1.42,2.19,2.19,0,0,0-1.53-.59,2.21,2.21,0,0,0-1.54.59,1.78,1.78,0,0,0-.64,1.42A1.86,1.86,0,0,0,3.65-.43,2.12,2.12,0,0,0,5,.23v3H.26v-3A2.17,2.17,0,0,0,1.61-.43a1.81,1.81,0,0,0,.54-1.32,1.91,1.91,0,0,0-.64-1.42A2.21,2.21,0,0,0,0-3.76a2.21,2.21,0,0,0-1.54.59,1.82,1.82,0,0,0-.64,1.42A1.83,1.83,0,0,0-1.66-.43,2.12,2.12,0,0,0-.32.23v3H-5v-3A2.12,2.12,0,0,0-3.71-.43a1.78,1.78,0,0,0,.55-1.32,1.92,1.92,0,0,0-.65-1.42,2.19,2.19,0,0,0-1.53-.59,2.21,2.21,0,0,0-1.54.59,1.83,1.83,0,0,0-.65,1.42A1.87,1.87,0,0,0-7-.43,2.12,2.12,0,0,0-5.64.23v3H-8v.54H8V3.22Z"/>
<rect fill="none" x="-12" y="-12" width="24" height="24"/>
</symbol>
<symbol id="clay" viewBox="-12 -12 24 24">
<path d="M1.85-1.33a3,3,0,0,1,1.67.48,3.23,3.23,0,0,1,1,1l.29.51-1,.43a3.81,3.81,0,0,0-.23-.4A3.74,3.74,0,0,0,2.93,0,1.77,1.77,0,0,0,1.85-.32a2.57,2.57,0,0,0-1.1.15A.86.86,0,0,0,.51.14,2.23,2.23,0,0,1,0,.88a2.55,2.55,0,0,1-1.45.43,3.16,3.16,0,0,1-2.75-1,4.28,4.28,0,0,1-.37-.57,3.91,3.91,0,0,1-.21-.47l0-.16,1-.22a1.87,1.87,0,0,0,.45.79A2.12,2.12,0,0,0-1.51.33,1.82,1.82,0,0,0-.69.14l.21-.36A1.53,1.53,0,0,1,.17-1,3.76,3.76,0,0,1,1.85-1.33Z"/>
<rect fill="none" x="-12" y="-12" width="24" height="24"/>
</symbol>
<symbol id="crystals" viewBox="-12 -12 24 24">
<path d="M-2.94-5.38,0-.72,2.94-5.38,3.62-5,.68-.36H6.56V.36H.68L3.62,5l-.68.36L0,.72-2.94,5.38-3.62,5-.68.36H-6.56V-.36H-.68L-3.62-5Z"/>
<rect fill="none" x="-12" y="-12" width="24" height="24"/>
</symbol>
<symbol id="curtain" viewBox="-12 -12 24 24">
<path d="M3.57-6.69l.52.53L.39-3V-.33L.1-.26a3.79,3.79,0,0,0-1,.41c-.58.3-.87.65-.87,1v.07A1.61,1.61,0,0,0-.84,2.48a3.69,3.69,0,0,0,.45.24L0,2.86l.13.05L.39,3V6.12H-.39V3.51a7.65,7.65,0,0,1-.9-.46A2.19,2.19,0,0,1-2.54,1.28V1.23A2,2,0,0,1-1.31-.48,5.32,5.32,0,0,1-.39-.86V-3l-3.7-3.14.52-.53L0-3.67Z"/>
<rect fill="none" x="-12" y="-12" width="24" height="24"/>
</symbol>
<symbol id="disk" viewBox="-12 -12 24 24">
<path d="M-.09-4.19a2.43,2.43,0,0,1,1.7.64A2,2,0,0,1,2.35-2,2.09,2.09,0,0,1,1.81-.55,2.44,2.44,0,0,1,.35.23l2.18,3.6-.68.33L0,1.14-1.48,4.19l-.71-.29L-.41.25A2.53,2.53,0,0,1-1.9-.47a2,2,0,0,1-.63-1.41,2,2,0,0,1,.67-1.61,2.46,2.46,0,0,1,1.72-.7ZM1.05-3.06.56-3.49l-.69,0A1.72,1.72,0,0,0-1.29-3a1.51,1.51,0,0,0-.45,1.08,1.36,1.36,0,0,0,.51,1A1.68,1.68,0,0,0-.07-.44v0l0,0A1.7,1.7,0,0,0,1.11-.92,1.36,1.36,0,0,0,1.56-2,1.47,1.47,0,0,0,1.05-3.06Z"/>
<rect fill="none" x="-12" y="-12" width="24" height="24"/>
</symbol>
<symbol id="entrance" viewBox="-12 -12 24 24">
<path d="M4.46,9H-4.46L0-9Z"/>
<rect fill="none" x="-12" y="-12" width="24" height="24"/>
</symbol>
<symbol id="flowstone" viewBox="-12 -12 24 24">
<rect x="-6" y="-0.21" width="12" height="0.42"/>
<rect fill="none" x="-12" y="-12" width="24" height="24"/>
</symbol>
<symbol id="flutes" viewBox="-12 -12 24 24">
<path d="M-7-1H7v.72H3.87A4.7,4.7,0,0,1,2.16,1.5,4.2,4.2,0,0,1,0,2.13,3.94,3.94,0,0,1-2.19,1.5,4.18,4.18,0,0,1-3.76-.27H-7Zm4.17.72A3.15,3.15,0,0,0-1.65,1,3.21,3.21,0,0,0,0,1.41,3.49,3.49,0,0,0,1.6,1,3.68,3.68,0,0,0,3-.27Z"/>
<rect fill="none" x="-12" y="-12" width="24" height="24"/>
</symbol>
<symbol id="gradient" viewBox="-12 -12 24 24">
<path d="M2.58-3.83,0-10-2.58-3.83A4.74,4.74,0,0,1-.17-4.5V10H.25V-4.5A6.65,6.65,0,0,1,2.58-3.83Z"/>
<rect fill="none" x="-12" y="-12" width="24" height="24"/>
</symbol>
<symbol id="guano" viewBox="-12 -12 24 24">
<path d="M-3.24-3a2.15,2.15,0,0,1,1.57.55A3.93,3.93,0,0,1-.59.24a4.32,4.32,0,0,1,2.75-2.3,2.68,2.68,0,0,1,2.23.36A2.36,2.36,0,0,1,5.5.19l-.79,0a1.72,1.72,0,0,0-.79-1.37,1.94,1.94,0,0,0-1.55-.24A3.53,3.53,0,0,0,.48,0,6.63,6.63,0,0,0-.69,3l-.79-.09a10.72,10.72,0,0,0,0-3.16A3.21,3.21,0,0,0-2.22-2,1.44,1.44,0,0,0-3.37-2.3,3.45,3.45,0,0,0-5-1.54l-.5-.55a4.29,4.29,0,0,1,2-.91A.9.9,0,0,1-3.24-3Z"/>
<rect fill="none" x="-12" y="-12" width="24" height="24"/>
</symbol>
<symbol id="helictites" viewBox="-12 -12 24 24">
<path d="M-4.59-7.92h.79v7.7l3.41,0V-7.92H.39V-.17L4.2-.12h.39v8H3.8V.6L.39.55V7.92H-.39V.55L-4.2.5l-.39,0v-8.4Z"/>
<rect fill="none" x="-12" y="-12" width="24" height="24"/>
</symbol>
<symbol id="human" viewBox="-12 -12 24 24">
<path d="M-3.59-3.29A5.13,5.13,0,0,1,0-4.66,5.13,5.13,0,0,1,3.59-3.29,4.3,4.3,0,0,1,5.09,0a4.3,4.3,0,0,1-1.5,3.29A5.13,5.13,0,0,1,0,4.66,5.13,5.13,0,0,1-3.59,3.29,4.3,4.3,0,0,1-5.09,0,4.3,4.3,0,0,1-3.59-3.29Zm.28.77A3.68,3.68,0,0,0-4.3,0a3.62,3.62,0,0,0,1,2.57L-.5.05ZM0-3.94A4.42,4.42,0,0,0-2.75-3L.16-.36H4.28A3.62,3.62,0,0,0,2.91-2.9,4.38,4.38,0,0,0,0-3.94ZM.16.46-2.7,3.07A4.42,4.42,0,0,0,0,3.94a4.37,4.37,0,0,0,2.87-1A3.78,3.78,0,0,0,4.28.46Z"/>
<rect fill="none" x="-12" y="-12" width="24" height="24"/>
</symbol>
<symbol id="karren" viewBox="-12 -12 24 24">
<path d="M1-5.84h0a1.37,1.37,0,0,1,1.06.68A3.33,3.33,0,0,1,2.5-3.79,25.79,25.79,0,0,1,2.36,0a18.61,18.61,0,0,0-.08,3.72,2.68,2.68,0,0,0,.41,1.2,1.13,1.13,0,0,0,.79.5A.92.92,0,0,0,4,4.94a4.43,4.43,0,0,0,.47-1.22c.16-.64.36-1.86.59-3.66a26.71,26.71,0,0,1,.64-3.69,4.62,4.62,0,0,1,.57-1.29,1.34,1.34,0,0,1,1-.59h0A1.28,1.28,0,0,1,8.37-5a2.17,2.17,0,0,1,.39,1.15A19.91,19.91,0,0,1,8.54-.53a21.51,21.51,0,0,0-.2,3.64A2.64,2.64,0,0,0,9.45,5.36,1.91,1.91,0,0,0,10.88,5a3.84,3.84,0,0,0,.7-1l.42.2-.1.18-.12.21-.11.18L11.52,5a.94.94,0,0,1-.14.16c-.06.07-.13.12-.19.18a2.5,2.5,0,0,1-1.85.41H9.29l0,0A3.06,3.06,0,0,1,7.87,3.13a22.11,22.11,0,0,1,.2-3.7,18.17,18.17,0,0,0,.22-3.28A1.85,1.85,0,0,0,8-4.79a.77.77,0,0,0-.67-.3.93.93,0,0,0-.64.42,4.51,4.51,0,0,0-.51,1.15A26.26,26.26,0,0,0,5.54.1c-.24,1.83-.45,3.07-.61,3.72a5.38,5.38,0,0,1-.51,1.34,1.33,1.33,0,0,1-.89.68H3.47A1.58,1.58,0,0,1,2.3,5.16a3.29,3.29,0,0,1-.49-1.4A20.27,20.27,0,0,1,1.89,0,23.45,23.45,0,0,0,2-3.75a2.94,2.94,0,0,0-.32-1.19A.93.93,0,0,0,1-5.42,1.1,1.1,0,0,0,.19-5,3.69,3.69,0,0,0-.43-3.76,20.78,20.78,0,0,0-1.07.07c-.2,2-.37,3.32-.49,3.86A4.48,4.48,0,0,1-2,5.26,1.06,1.06,0,0,1-3,5.81h0a1.9,1.9,0,0,1-1.29-.67,2.7,2.7,0,0,1-.58-1.31,14.92,14.92,0,0,1,0-3.6q0-.12.06-.54c0-.28,0-.47,0-.57s0-.28,0-.52,0-.42,0-.55,0-.28,0-.47,0-.36,0-.51,0-.29,0-.43A3.09,3.09,0,0,0-5-4.62a1.19,1.19,0,0,0-.67-.6,1.5,1.5,0,0,0-1.2.9A7,7,0,0,0-7.41-2.1c0,.39-.1,1-.14,1.76s-.11,1.47-.18,2.08A9.61,9.61,0,0,1-8,3.32h0l0,0A2.81,2.81,0,0,1-9.2,4.62a1.82,1.82,0,0,1-1.35.15A1.94,1.94,0,0,1-11.61,4,2.39,2.39,0,0,1-12,2.56l.47,0a1.92,1.92,0,0,0,.31,1.16,1.47,1.47,0,0,0,.81.62,1.3,1.3,0,0,0,1-.11A2.32,2.32,0,0,0-8.5,3.18a7.53,7.53,0,0,0,.29-1.5Q-8.1.8-8-.36c0-.78.1-1.37.16-1.78A7.23,7.23,0,0,1-7.28-4.5,1.93,1.93,0,0,1-5.65-5.66h.05l0,0a1.59,1.59,0,0,1,1,.84,3.47,3.47,0,0,1,.34,1.41,4.91,4.91,0,0,1,0,.57v.54c0,.15,0,.37,0,.66s0,.47,0,.58,0,.33-.06.68,0,.56-.06.63a14.78,14.78,0,0,0,0,3.49,2.58,2.58,0,0,0,.5,1.13,1.57,1.57,0,0,0,1,.5A.61.61,0,0,0-2.44,5,3.89,3.89,0,0,0-2,3.85C-1.9,3.31-1.74,2-1.53,0A20.65,20.65,0,0,1-.86-3.89,3.89,3.89,0,0,1-.18-5.26,1.58,1.58,0,0,1,1-5.84Z"/>
<rect fill="none" x="-12" y="-12" width="24" height="24"/>
</symbol>
<symbol id="moonmilk" viewBox="-12 -12 24 24">
<path d="M-4.78-3.06a3.39,3.39,0,0,1,1.5.34,2.48,2.48,0,0,1,1.1,1,3.74,3.74,0,0,1,1.62-.8,3.52,3.52,0,0,1,1.71,0,2.9,2.9,0,0,1,1.39.77A2.49,2.49,0,0,1,3.25-.37,4,4,0,0,1,5-.76a3.58,3.58,0,0,1,1.6.36A2.84,2.84,0,0,1,7.88.92a2.32,2.32,0,0,1,0,1.88.34.34,0,0,1-.37.26A.36.36,0,0,1,7.25,3a.32.32,0,0,1-.12-.25.21.21,0,0,1,0-.12,2,2,0,0,0,0-1.43,2,2,0,0,0-1-.9A2.81,2.81,0,0,0,4.68,0,2.78,2.78,0,0,0,3.12.56L2.46.25A1.7,1.7,0,0,0,2.15-1.1,2.15,2.15,0,0,0,1-1.81a2.85,2.85,0,0,0-1.58.06A3,3,0,0,0-2-.83l-.71-.12A1.74,1.74,0,0,0-3.55-2a2.36,2.36,0,0,0-1.39-.27,3.08,3.08,0,0,0-1.45.53A2.33,2.33,0,0,0-7.32-.56a.35.35,0,0,1-.37.24A.39.39,0,0,1-8-.42a.33.33,0,0,1-.1-.26v-.1A3,3,0,0,1-6.89-2.35,4,4,0,0,1-5-3Z"/>
<rect fill="none" x="-12" y="-12" width="24" height="24"/>
</symbol>
<symbol id="narrow" viewBox="-12 -12 24 24">
<path d="M-1.5,5V-5h0.64V5H-1.5z"/>
<path d="M0.86,5V-5H1.5V5H0.86z"/>
<rect fill="none" x="-12" y="-12" width="24" height="24"/>
</symbol>
<symbol id="paleoflow" viewBox="-12 -12 24 24">
<path d="M.38-12V.17A1.9,1.9,0,0,0,1,0,1.57,1.57,0,0,0,1.7-.72a1.86,1.86,0,0,0,.23-1c0-.09,0-.14.08-.16a.92.92,0,0,1,.24,0,.52.52,0,0,0,.25,0h.08A2.48,2.48,0,0,1,2,0,2.5,2.5,0,0,1,.38.77V7.21H2.09L0,12-1.8,7.23c.07,0,.59,0,1.53,0V.77A3,3,0,0,1-1.35.43a2.16,2.16,0,0,1-1-1,2.38,2.38,0,0,1-.24-1.33l.67,0a2,2,0,0,0,.15,1,1.73,1.73,0,0,0,.59.67A2.14,2.14,0,0,0-.27.16V-12Z"/>
<rect fill="none" x="-12" y="-12" width="24" height="24"/>
</symbol>
<symbol id="rain" viewBox="-12 -12 24 24">
<path d="M-4.14-6.34h0.71v4.69h-0.71V-6.34z"/>
<path d="M-0.35-6.34h0.71v4.69h-0.71V-6.34z"/>
<path d="M3.43-6.34h0.71v4.69H3.43V-6.34z"/>
<path d="M-4.14,1.65h0.71v4.69h-0.71V1.65z"/>
<path d="M-0.35,1.65h0.71v4.69h-0.71V1.65z"/>
<path d="M3.43,1.65h0.71v4.69H3.43V1.65z"/>
<rect fill="none" x="-12" y="-12" width="24" height="24"/>
</symbol>
<symbol id="rats" viewBox="-12 -12 24 24">
<path d="M8.78-2.32,7-2.27c-.51-.17-.65-.56-1.46-.45l-.25.45C3.59-2.75,2.59-3.66.56-3.62l-1.35.3A4.89,4.89,0,0,0-4.24,1.57c-.68.6-2.58.86-3.39.94a6.84,6.84,0,0,0-1.62.39,4.91,4.91,0,0,0-1,.52A1.75,1.75,0,0,0-11,4.61a1.16,1.16,0,0,0,.59,1.48,1.3,1.3,0,0,1,.14.12c.16-.52-.35-.92-.2-1.42a3.35,3.35,0,0,1,.27-.45,3.18,3.18,0,0,1,1.79-1c.63-.12,1.27-.22,1.91-.3.48-.07,1,0,1.4-.12A6.94,6.94,0,0,1-4,2.82,30.64,30.64,0,0,0,.41,2.69l2.16.15c.1-.09,0,0,.1-.15a.87.87,0,0,0-.9-.55c.86-1,2.27-.37,3.1-.05.5.19,1,0,1.25.4.11-.1.1-.07.15-.25.3,0,.31.07.6.15-.06-.49-.34-.64-1-.6a.78.78,0,0,1,0-.55C6.3.56,7.29.73,8.13.43a13.78,13.78,0,0,0,2.15-.9l.6-.85v-.2A16.9,16.9,0,0,0,8.78-2.32Z"/>
<rect fill="none" x="-12" y="-12" width="24" height="24"/>
</symbol>
<symbol id="sand" viewBox="-12 -12 24 24">
<path d="M-1.58,0.83c0.23,0.2,0.35,0.44,0.36,0.73c0.01,0.29-0.08,0.54-0.28,0.75c-0.2,0.21-0.46,0.32-0.78,0.33c-0.32,0.01-0.6-0.08-0.83-0.26C-3.36,2.19-3.49,1.95-3.5,1.67C-3.51,1.38-3.41,1.12-3.2,0.9c0.21-0.22,0.48-0.34,0.8-0.35C-2.08,0.54-1.81,0.64-1.58,0.83z"/>
<path d="M0.08-2.36c0.23,0.2,0.35,0.44,0.36,0.73c0.01,0.29-0.08,0.54-0.28,0.75c-0.2,0.21-0.46,0.32-0.78,0.33c-0.32,0.01-0.59-0.07-0.83-0.26s-0.37-0.42-0.38-0.71c-0.01-0.29,0.09-0.54,0.3-0.76c0.21-0.22,0.48-0.33,0.8-0.35C-0.42-2.65-0.14-2.56,0.08-2.36z"/>
<path d="M3.12,0.55c0.23,0.2,0.35,0.43,0.38,0.71c0.02,0.28-0.07,0.53-0.28,0.75C3,2.23,2.73,2.35,2.42,2.36C2.1,2.37,1.82,2.28,1.58,2.08C1.34,1.88,1.22,1.64,1.2,1.35c-0.01-0.29,0.09-0.54,0.3-0.75C1.72,0.4,1.99,0.29,2.3,0.28S2.89,0.36,3.12,0.55z"/>
<rect fill="none" x="-12" y="-12" width="24" height="24"/>
</symbol>
<symbol  id="scallops" viewBox="-12 -12 24 24">
<path d="M.05-3.74l.21,0A2.35,2.35,0,0,1,1.74-3a2,2,0,0,1,.59,1.55v0l0,0A9.59,9.59,0,0,1-.08,3.27l-.39.47-.27-.55A14.26,14.26,0,0,1-2.33-1.89v-.05l0-.05A2,2,0,0,1-1.44-3.3,2.42,2.42,0,0,1,.05-3.74ZM-.11-3A1.44,1.44,0,0,0-1.55-1.89,13.06,13.06,0,0,0-.29,2.33,8.6,8.6,0,0,0,1.55-1.54a1.41,1.41,0,0,0-.38-1A1.62,1.62,0,0,0,.18-3Z"/>
<rect fill="none" x="-12" y="-12" width="24" height="24"/>
</symbol>
<symbol  id="sink" viewBox="-12 -12 24 24">
<path d="M.72,9.41H.9c1.94,0,3.26-.54,3.94-1.51a3.61,3.61,0,0,0,.33-.69,2,2,0,0,0,.11-.54V6.46l.69,0a2.8,2.8,0,0,1-.58,1.78C4.58,9.39,3.1,10,.93,10H-.93q-3.25,0-4.46-1.8a2.74,2.74,0,0,1-.43-.83A2.37,2.37,0,0,1-6,6.67V6.43l.68,0A2.27,2.27,0,0,0-4.84,7.9c.68,1,2,1.47,3.93,1.48l.5,0ZM-1.46-10a.68.68,0,0,0,.16.41A2.77,2.77,0,0,0-.51-9l0,0a3.63,3.63,0,0,1,1,.7,1.15,1.15,0,0,1,.34.88c0,.58-.53,1.14-1.49,1.68-.68.42-1,.79-1,1.11s.3.61.84,1h0Q.61-2.86.46-1.78a3.51,3.51,0,0,1-1.55,2,.61.61,0,0,0-.26.41,1.67,1.67,0,0,0,.1.51,5.3,5.3,0,0,1,.32,1L.56,1.9.46,8.06-3.4,2.54l1.73-.28A6.16,6.16,0,0,0-2,1.39,1.7,1.7,0,0,1-2.09.58a1.21,1.21,0,0,1,.53-.82h0v0C-.75-.86-.33-1.38-.28-1.85s-.23-.87-.91-1.27h0C-2-3.6-2.37-4.1-2.4-4.61S-2-5.74-1.09-6.29C-.34-6.72.06-7.1.09-7.44a.67.67,0,0,0-.18-.43,3.17,3.17,0,0,0-.79-.58,2.93,2.93,0,0,1-1-.67A1.16,1.16,0,0,1-2.17-10Z"/>
<rect fill="none" x="-12" y="-12" width="24" height="24"/>
</symbol>
<symbol  id="spring" viewBox="-12 -12 24 24">
<path d="M-1.34-9.86,2.52-4.34.78-4.06a8,8,0,0,0,.29.87,1.4,1.4,0,0,1,.13.79,1.3,1.3,0,0,1-.52.84l0,0v0C-.13-.95-.55-.42-.61,0S-.37.91.31,1.3l0,0c.75.46,1.14,1,1.18,1.46S1.12,3.92.21,4.46C-.54,4.9-.94,5.29-1,5.64a.74.74,0,0,0,.18.43A3.2,3.2,0,0,0,0,6.62a3,3,0,0,1,1,.7,1.14,1.14,0,0,1,.31.86A1.74,1.74,0,0,1,.71,9.26H.92c1.92,0,3.22-.52,3.9-1.51a2.05,2.05,0,0,0,.35-.67,2.59,2.59,0,0,0,.1-.55l0-.19.65,0a2.84,2.84,0,0,1-.55,1.8C4.58,9.26,3.08,9.85.92,9.86H-.92c-2.17,0-3.66-.6-4.49-1.77a3.65,3.65,0,0,1-.4-.85A2.43,2.43,0,0,1-6,6.53V6.29l.66,0a2.08,2.08,0,0,0,.47,1.41c.68,1,2,1.5,3.91,1.51H-.4c.62-.43.94-.8,1-1.1a.76.76,0,0,0-.16-.43,3.25,3.25,0,0,0-.79-.51v0a3.8,3.8,0,0,1-1-.7,1.15,1.15,0,0,1-.34-.91q.06-.84,1.5-1.68c.68-.4,1-.77,1-1.1S.49,2.21,0,1.87c0,0,0,0,0,0C-1,1.32-1.44.69-1.34,0a3.58,3.58,0,0,1,1.55-2,.54.54,0,0,0,.23-.38A1.28,1.28,0,0,0,.37-3a4.57,4.57,0,0,1-.32-1l-1.49.24Z"/>
<rect fill="none" x="-12" y="-12" width="24" height="24"/>
</symbol>
<symbol  id="stalactite" viewBox="-12 -12 24 24">
<path d="M3.57-6.69l.52.53L.39-3V6.12H-.39V-3l-3.7-3.14.52-.53L0-3.67Z"/>
<rect fill="none" x="-12" y="-12" width="24" height="24"/>
</symbol>
<symbol  id="stalagmite" viewBox="-12 -12 24 24">
<path d="M.38-6.42V2.75L4.11,5.89l-.56.53L0,3.4l-3.57,3-.53-.53,3.7-3.14V-6.42Z"/>
<rect fill="none" x="-12" y="-12" width="24" height="24"/>
</symbol>
<symbol  id="stalagnate" viewBox="-12 -12 24 24">
<path d="M3.55-8.46l.56.53L.38-4.78v9L4.11,7.36l-.56.53L0,4.86l-3.57,3-.53-.53,3.7-3.14v-9l-3.7-3.15.53-.53L0-5.43Z"/>
<rect fill="none" x="-12" y="-12" width="24" height="24"/>
</symbol>
<symbol  id="straws" viewBox="-12 -12 24 24">
<path d="M-10.89-2.76H10.89V-2H9.63V.46H8.84V-2H8.29v5.6H7.5V-2H5.56V.7H4.77V-2H2.07V2.38H1.29V-2H-.1v3H-.89V-2H-3.2V4.11H-4V-2H-6.22L-6.16.75l-.79,0L-7-2H-8.32V2.33H-9.1V-2h-1.79Z"/>
<rect fill="none" x="-12" y="-12" width="24" height="24"/>
</symbol>
<symbol  id="water" viewBox="-12 -12 24 24">
<path d="M-1.72-9.86,2.11-4.32.38-4.06a6.49,6.49,0,0,0,.29.89,1.5,1.5,0,0,1,.13.79,1.2,1.2,0,0,1-.5.82h0l0,0C-.54-.94-1-.42-1,.05s.24.89.92,1.27h0c.77.48,1.17,1,1.19,1.49S.71,3.94-.2,4.49c-.75.43-1.13.81-1.15,1.15a.51.51,0,0,0,.18.43,2.66,2.66,0,0,0,.76.58,2.93,2.93,0,0,1,1,.67,1.16,1.16,0,0,1,.29.89C.84,8.75.42,9.3-.41,9.86l-.44-.55c.66-.45,1-.83,1-1.15A.47.47,0,0,0,0,7.75a2.84,2.84,0,0,0-.78-.53h0a3.87,3.87,0,0,1-1-.69,1.24,1.24,0,0,1-.34-.91c0-.58.54-1.14,1.52-1.68.66-.42,1-.79,1-1.11s-.3-.61-.84-1h0Q-1.9,1.06-1.74,0a3.44,3.44,0,0,1,1.54-2,.67.67,0,0,0,.27-.41A1.11,1.11,0,0,0,0-3a4.33,4.33,0,0,1-.31-1l-1.5.24Z"/>
<rect fill="none" x="-12" y="-12" width="24" height="24"/>
</symbol><symbol  id="tree" viewBox="-12 -12 24 24">
<path d="M7.4-5.04A4.271,4.271,0,0,0,7.7-6.627a4.3,4.3,0,0,0-4.3-4.3A4.279,4.279,0,0,0,.636-9.914,4.293,4.293,0,0,0-3.045-12a4.3,4.3,0,0,0-4.3,4.3,4.27,4.27,0,0,0,.421,1.845,4.3,4.3,0,0,0-3.645,4.244,4.3,4.3,0,0,0,4.3,4.3A4.282,4.282,0,0,0-3.946,2L-1.175,5.23h0L-1.612,12H.982L.757,6.376,4.119,2.827v0a4.272,4.272,0,0,0,2.15.58,4.3,4.3,0,0,0,4.3-4.3A4.3,4.3,0,0,0,7.4-5.04ZM-3.346,1.538h0A4.346,4.346,0,0,0-2.7.788a4.266,4.266,0,0,0,1.765.753l-.135,2.087ZM.69,4.7.563,1.544A4.258,4.258,0,0,0,2.321.805,4.3,4.3,0,0,0,3.378,2.279Z"/>
<rect fill="none" x="-12" y="-12" width="24" height="24"/>
</symbol><g>
<desc></desc>
<g>
<line fill="none" stroke="#dddddd" stroke-width="0.1mm" x1="0.00" y1="150.00" x2="126.00" y2="150.00" />
<text x="123.20" y="149.80" font-size=".2mm" fill="#000000">0m</text>
<line fill="none" stroke="#dddddd" stroke-width="0.1mm" x1="0.00" y1="100.00" x2="126.00" y2="100.00" />
<text x="123.20" y="99.80" font-size=".2mm" fill="#000000">5m</text>
<line fill="none" stroke="#dddddd" stroke-width="0.1mm" x1="0.00" y1="50.00" x2="126.00" y2="50.00" />
<text x="123.20" y="49.80" font-size=".2mm" fill="#000000">10m</text>
<line fill="none" stroke="#dddddd" stroke-width="0.1mm" x1="0.00" y1="200.00" x2="126.00" y2="200.00" />
<text x="123.20" y="199.80" font-size=".2mm" fill="#000000">-5m</text>
<line fill="none" stroke="#dddddd" stroke-width="0.1mm" x1="47.00" y1="0.00" x2="47.00" y2="221.00" />
<text x="47.40" y="2.00" font-size=".2mm" fill="#000000">0m</text>
<line fill="none" stroke="#dddddd" stroke-width="0.1mm" x1="97.00" y1="0.00" x2="97.00" y2="221.00" />
<text x="97.40" y="2.00" font-size=".2mm" fill="#000000">5m</text>
</g>
<g>
<defs><path id="DRAW_7254"  d="M73.06847,79.567024 L71.74766,79.85144" /></defs><use xlink:href="#DRAW_7254" fill="none" stroke="#000000" stroke-width="0.04mm" /><text style="fill:#000000; font-size:0.5mm; letter-spacing:2;"><textPath xlink:href="#DRAW_7254">||||||</textPath></text><defs><path id="DRAW_7255"  d="M70.46744,81.20205 L70.46944,81.204056" /></defs><use xlink:href="#DRAW_7255" fill="none" stroke="#000000" stroke-width="0.04mm" /><text style="fill:#000000; font-size:0.5mm; letter-spacing:2;"><textPath xlink:href="#DRAW_7255">|</textPath></text><defs><path id="DRAW_7257"  d="M81.5255,87.86105 L81.57209,88.69543" /></defs><use xlink:href="#DRAW_7257" fill="none" stroke="#000000" stroke-width="0.04mm" /><text style="fill:#000000; font-size:0.5mm; letter-spacing:2;"><textPath xlink:href="#DRAW_7257">||||</textPath></text><defs><path id="DRAW_7258"  d="M81.57008,89.154205 L81.542366,89.156204" /></defs><use xlink:href="#DRAW_7258" fill="none" stroke="#000000" stroke-width="0.04mm" /><text style="fill:#000000; font-size:0.5mm; letter-spacing:2;"><textPath xlink:href="#DRAW_7258">|</textPath></text><defs><path id="DRAW_7259"  d="M81.43632,89.451485 L81.334274,89.40889" /></defs><use xlink:href="#DRAW_7259" fill="none" stroke="#000000" stroke-width="0.04mm" /><text style="fill:#000000; font-size:0.5mm; letter-spacing:2;"><textPath xlink:href="#DRAW_7259">|</textPath></text><defs><path id="DRAW_7260"  d="M81.10933,89.61499 L81.11133,89.58726" /></defs><use xlink:href="#DRAW_7260" fill="none" stroke="#000000" stroke-width="0.04mm" /><text style="fill:#000000; font-size:0.5mm; letter-spacing:2;"><textPath xlink:href="#DRAW_7260">|</textPath></text><defs><path id="DRAW_7262"  d="M82.13489,86.285484 L81.584946,88.24751" /></defs><use xlink:href="#DRAW_7262" fill="none" stroke="#000000" stroke-width="0.04mm" /><text style="fill:#000000; font-size:0.5mm; letter-spacing:2;"><textPath xlink:href="#DRAW_7262">|||||||||</textPath></text><defs><path id="DRAW_7263"  d="M80.990425,89.27312 L80.10066,88.36842" /></defs><use xlink:href="#DRAW_7263" fill="none" stroke="#000000" stroke-width="0.04mm" /><text style="fill:#000000; font-size:0.5mm; letter-spacing:2;"><textPath xlink:href="#DRAW_7263">||||||</textPath></text><defs><path id="DRAW_7264"  d="M83.933304,90.31358 C83.395905,89.79891 82.64276,89.29098 82.40459,88.52223 C82.36889,88.40699 82.355484,88.28587 82.33735,88.166595 C82.292175,87.86957 82.300964,87.561424 82.21469,87.27363 C81.83731,86.014595 81.32345,83.79271 80.40094,82.41292 C79.75038,81.4399 78.34967,80.85237 77.402695,80.43458 C74.669174,79.228546 72.96823,79.86062 70.25935,80.652084 L70.25935,80.652084" /></defs><use xlink:href="#DRAW_7264" fill="none" stroke="#000000" stroke-width="0.04mm" /><text style="fill:#000000; font-size:0.5mm; letter-spacing:2;"><textPath xlink:href="#DRAW_7264">|||||||||||||||||||||||||||||||||||||||||||||||||||||||||||||||||||||||||||||||</textPath></text><path fill="none" stroke="#000000" stroke-width="0.06mm" d="M55.396378,109.57713 C55.356937,106.69035 55.256416,107.97086 55.55987,105.72739 L55.55987,105.72739" /><path fill="none" stroke="#000000" stroke-width="0.06mm" d="M55.857132,101.46147 C55.78306,100.36006 55.70898,99.25865 55.634907,98.15724 C55.662178,97.89726 55.6426,97.62796 55.71672,97.37727 C55.901714,96.75159 56.176945,96.156204 56.40706,95.54566 L56.40706,95.54566" /><path fill="none" stroke="#000000" stroke-width="0.06mm" d="M56.184113,105.20717 C56.128567,101.48982 55.904537,102.11603 56.787712,98.47418 C56.899426,98.01352 57.108646,97.58212 57.26911,97.13609 L57.26911,97.13609" /><path fill="none" stroke="#000000" stroke-width="0.06mm" d="M57.417744,97.2104 C57.294495,95.97302 57.487198,95.19424 58.057777,94.079285 C58.27658,93.65173 58.54615,93.23929 58.923683,92.936066 C59.056114,92.8297 59.193268,92.72275 59.349575,92.656265 C60.76009,92.05626 62.202538,91.53358 63.61582,90.94014 C66.25563,89.83168 64.044556,90.56871 66.11259,89.927124 L66.11259,89.927124" /><path fill="none" stroke="#000000" stroke-width="0.06mm" d="M68.02991,85.86929 C68.34046,85.25328 68.70131,84.66015 68.96158,84.02126 C69.48653,82.73267 70.87477,78.054115 72.2892,76.05644 C72.99579,75.05851 73.903076,74.21152 74.59407,73.20273 C74.74432,72.98338 77.51996,67.19544 79.72148,65.8392 C80.06086,65.63013 80.48172,65.52898 80.87839,65.54298 C82.00156,65.58264 82.20162,66.97902 82.297424,67.861855 C82.522095,69.93213 82.55568,72.01871 82.684814,74.09713 L82.684814,74.09713" /><path fill="none" stroke="#000000" stroke-width="0.06mm" d="M82.87802,74.67682 C82.738686,76.76748 82.37575,78.8634 82.81686,80.94556 C83.422775,83.80567 84.039536,84.258415 84.07404,86.59152 C84.08423,87.27985 84.07847,88.254166 83.47125,88.76216 C82.89586,89.24352 78.43307,91.95778 77.35103,94.21191 C76.857056,95.24094 77.8337,96.88489 78.86872,97.17439 C79.32231,97.30127 79.83929,97.19447 80.29187,97.150955 L80.29187,97.150955" /><path fill="none" stroke="#000000" stroke-width="0.06mm" d="M84.06706,97.641464 C84.59639,97.45445 85.1257,97.26744 85.65502,97.08043 C85.80766,97.002045 85.978905,96.95239 86.112946,96.84526 C86.42444,96.596306 86.69113,96.295944 86.98022,96.02129 L86.98022,96.02129" /><path fill="none" stroke="#000000" stroke-width="0.06mm" d="M67.28676,89.88253 C68.47396,88.16574 69.46576,86.574554 69.41217,84.45723 L69.41217,84.45723" /><path fill="none" stroke="#000000" stroke-width="0.06mm" d="M69.9621,85.304474 C69.87721,85.69943 69.81825,86.100876 69.707436,86.48937 C69.57378,86.95793 69.21002,87.48277 68.88945,87.81059 C67.04178,89.7 67.39789,89.41616 66.08286,90.28386 L66.08286,90.28386" /><path fill="none" stroke="#000000" stroke-width="0.06mm" d="M64.10609,114.1552 C64.501785,113.98791 64.885185,113.78787 65.29318,113.65333 C65.58234,113.557976 65.88569,113.50706 66.18774,113.46874 C67.70853,113.27584 69.234146,113.12289 70.75845,112.96009 C71.1534,112.91791 71.555176,112.92862 71.94526,112.85385 C72.86495,112.67757 73.871574,112.3078 74.660095,111.80162 C75.52728,111.24495 76.41369,110.69472 77.16373,109.98807 C78.257645,108.95744 79.20014,107.77535 80.16063,106.61936 C85.77606,99.860916 79.660416,106.83461 82.46187,103.661316 L82.46187,103.661316" /><path fill="none" stroke="#000000" stroke-width="0.06mm" d="M81.763306,105.44498 C83.08464,105.149994 84.1997,102.23071 85.650734,101.43417 C87.489044,100.42503 89.40085,99.55447 91.24549,98.55693 C91.92247,98.19084 92.52882,97.70172 93.211136,97.34569 C93.624985,97.12975 94.08904,97.02712 94.5202,96.848236 C103.18083,93.25516 100.414856,94.559074 105.454895,92.06752 L105.454895,92.06752" /><path fill="none" stroke="#000000" stroke-width="0.06mm" d="M80.99043,97.55228 C83.865005,97.77556 82.530266,97.87926 85.00344,97.38878 L85.00344,97.38878" /><path fill="none" stroke="#000000" stroke-width="0.06mm" d="M86.60864,96.1848 C87.057526,96.065956 87.52251,95.996475 87.95532,95.82827 C99.066345,91.509995 76.10526,99.26599 100.228714,91.926575 C107.11807,89.83052 99.03662,91.69342 104.75634,90.46222 L104.75634,90.46222" /><path fill="none" stroke="#000000" stroke-width="0.06mm" stroke-dasharray="0.3mm,0.1mm" d="M105.885925,90.00145 C108.84151,90.328606 111.49764,88.64061 114.12868,87.55295 C114.43787,87.42512 114.76696,87.352066 115.086105,87.25163 L115.086105,87.25163" /><path fill="none" stroke="#000000" stroke-width="0.06mm" stroke-dasharray="0.3mm,0.1mm" d="M106.94121,92.72153 C107.53296,92.61726 108.12471,92.512985 108.71646,92.40873 C109.07807,92.37508 109.45531,92.41815 109.8013,92.30777 C111.62276,91.72664 113.393875,90.99814 115.190155,90.34332 L115.190155,90.34332" /><defs><path id="DRAW_7285"  d="M79.77167,67.30437 C79.2762,67.80731 78.791336,68.32092 78.285255,68.81319 C78.03137,69.060165 77.73622,69.26378 77.49281,69.52109 C76.85353,70.19685 76.40407,71.010925 76.194916,71.918045 C75.98737,72.81825 76.09031,73.721016 76.90184,74.25722 C77.189964,74.447586 77.67272,74.70227 78.02705,74.75133 C79.94103,75.01636 82.14533,75.64029 83.36511,73.732895 C84.458435,72.02325 83.79785,69.82948 82.86771,68.21062 C82.3439,67.298965 81.39837,66.39026 80.24926,66.81942 C79.21046,67.20738 78.45979,68.29258 77.99766,69.24637 C77.86998,69.50988 77.819275,69.808334 77.676544,70.063995 C77.36831,70.61609 76.99248,71.12764 76.65044,71.65946 L76.65044,71.65946" /></defs><use xlink:href="#DRAW_7285" fill="none" stroke="#000000" stroke-width="0.04mm" /><text style="fill:#000000; font-size:0.5mm; letter-spacing:2;"><textPath xlink:href="#DRAW_7285">|||||||||||||||||||||||||||||||||||||||||||||||||||||||||||||||||||||||||||||||||||||||||||||||||||||||||||||||||||||||</textPath></text><path fill="none" stroke="#000000" stroke-width="0.06mm" d="M18.17947,114.288956 L18.41928,114.127464" /><path fill="none" stroke="#000000" stroke-width="0.06mm" d="M17.793036,115.79022 L18.76113,116.80297" /><path fill="none" stroke="#000000" stroke-width="0.06mm" d="M86.48973,67.52731 C87.68531,67.87428 88.78479,68.03626 89.99673,67.74697 C90.66927,67.58643 91.31798,67.32782 91.99722,67.198555 C92.56645,67.09021 93.15108,67.09072 93.72801,67.036804 L93.72801,67.036804" /><path fill="none" stroke="#000000" stroke-width="0.06mm" d="M90.205475,65.40178 C91.32428,71.75081 90.681076,69.31755 91.69177,72.80397 L91.69177,72.80397" /><path fill="none" stroke="#000000" stroke-width="0.06mm" d="M95.30348,56.46862 C96.75722,55.76561 97.04204,55.5157 98.426926,55.16033 C98.684784,55.094154 99.06359,55.07763 99.33731,55.1215 C100.36057,55.285492 100.55244,56.18811 100.39546,57.092194 C100.36698,57.25621 100.31867,57.417267 100.25833,57.572433 C100.19986,57.722763 100.11908,57.863655 100.0406,58.004593 C99.74892,58.528374 98.06842,60.73819 98.83296,61.64824 C99.0095,61.858376 99.03645,61.914993 99.27699,61.953293 C99.858635,62.045906 100.442825,62.121803 101.025734,62.206047 L101.025734,62.206047" /><path fill="none" stroke="#000000" stroke-width="0.06mm" d="M100.72848,65.20855 C100.8103,65.763794 100.85475,66.75828 101.66925,66.60135 C101.730446,66.58957 102.26531,66.47601 102.28555,66.302765 C102.314,66.059326 101.500824,65.8029 101.2215,66.204056 C101.17266,66.274185 101.135506,66.35296 101.1074,66.43367 C101.00061,66.74035 100.91424,67.053764 100.81765,67.363815 L100.81765,67.363815" /><path fill="none" stroke="#000000" stroke-width="0.06mm" d="M50.218174,146.0585 L50.26235,146.28896" /><path fill="none" stroke="#000000" stroke-width="0.06mm" d="M50.71486,146.45174 C50.894447,145.50279 50.891186,144.86844 51.3486,144.0792 C51.839966,143.23137 52.55304,142.59073 52.92022,141.66452 C53.31754,140.66228 53.43707,138.37682 53.488068,137.96605 L53.488068,137.96605" /><path fill="none" stroke="#000000" stroke-width="0.06mm" d="M25.17649,146.38965 C26.081125,150.19115 27.470043,152.27939 30.643652,154.65675 C31.28196,155.13492 32.246616,155.615 33.077366,155.64227 C34.24762,155.68071 35.414455,155.16 36.462654,154.78195 C37.557377,154.3871 38.987534,152.69629 39.697323,152.12785 C40.024097,151.86615 40.397396,151.66496 40.77149,151.477 C43.17747,150.26819 45.594975,149.08134 48.033485,147.93956 C48.284733,147.82191 48.560696,147.76352 48.831455,147.70306 C50.43693,147.34457 52.64394,149.48024 52.169983,151.09433 C51.811016,152.3168 50.219887,152.97383 49.069466,152.4751 C48.629856,152.28453 48.274918,151.90941 48.03133,151.50499 C47.502514,150.62704 47.438183,148.88129 47.320778,148.12819 L47.320778,148.12819" /><path fill="none" stroke="#000000" stroke-width="0.06mm" d="M44.816612,149.16302 C44.48691,150.16982 44.27322,150.94829 44.7514,151.8966 C45.14017,152.66762 45.530285,153.43903 45.963512,154.18597 C46.048798,154.33301 46.29286,154.43976 46.452274,154.45534 C46.890003,154.49811 47.341713,154.17445 47.652348,153.92537 C48.575504,153.18512 48.98524,151.8511 48.60322,150.7235 C48.55947,150.59436 48.501343,150.46712 48.41959,150.35799 C47.955082,149.73798 47.452503,149.1474 46.968956,148.54211 L46.968956,148.54211" /><path fill="none" stroke="#000000" stroke-width="0.06mm" d="M45.271923,154.6063 C44.558926,154.88664 43.673527,155.3798 42.846874,155.14796 C42.14957,154.9524 40.60256,154.70926 39.795486,154.03656 C39.532543,153.8174 39.390144,153.47958 39.30124,153.16026 C39.04029,152.22298 39.768604,151.55252 40.597645,151.27463 C41.37139,151.01527 41.92992,151.27417 42.717617,151.36705 C43.54364,151.46445 44.48441,150.96054 45.189137,150.6946 L45.189137,150.6946" /><path fill="none" stroke="#000000" stroke-width="0.06mm" d="M42.16758,158.18683 C40.907692,158.32108 39.649796,158.47552 38.387917,158.58954 C37.501457,158.66962 37.058113,157.76521 36.844654,157.07294 C36.644615,156.4242 36.572315,155.68764 36.75006,155.02429 C37.027615,153.98846 38.00453,153.03157 38.607933,152.26755 L38.607933,152.26755" /><path fill="none" stroke="#000000" stroke-width="0.06mm" d="M36.82811,155.93088 C36.866253,155.33057 36.904396,154.73026 36.94254,154.12996 C37.014313,154.04738 37.050667,153.86035 37.15786,153.88225 C37.32939,153.91728 37.439796,154.10187 37.532413,154.25044 C38.38758,155.62222 39.13259,157.06084 39.992653,158.42955 C40.3897,159.06143 40.932682,159.59734 41.30032,160.24675 C42.13834,161.72711 42.343025,162.6264 42.809143,164.1475 L42.809143,164.1475" /><path fill="none" stroke="#000000" stroke-width="0.06mm" d="M43.4921,163.60939 C43.81255,164.90764 44.04033,166.23233 44.453445,167.50412 C45.110985,169.52835 46.455505,171.53192 48.05945,172.92932 C49.149616,173.8791 48.956524,173.22899 50.432163,174.36642 C51.960396,175.5444 53.340504,176.90518 54.852974,178.10333 C55.18304,178.36479 55.552498,178.58759 55.946907,178.73508 C59.459602,180.04861 63.363396,180.21811 67.0585,180.07187 C69.87349,179.96046 73.26155,178.12547 74.84808,175.79361 C75.239204,175.21873 75.68862,174.33717 75.82525,173.6336 C76.00431,172.71149 76.33415,170.87979 76.12745,169.74638 C75.75622,167.71083 74.62528,165.01025 73.87012,163.34177 C73.33743,162.16484 72.734474,161.01802 72.07761,159.90561 C70.58622,157.37991 67.63275,156.35397 65.170456,155.11102 C64.4657,154.75525 63.710716,154.5065 63.001724,154.15926 C62.211376,153.77217 61.47424,153.28024 60.675976,152.90977 C59.635582,152.42693 58.45508,152.62251 57.428223,152.12842 C57.169167,152.00375 56.921658,151.8539 56.68569,151.68967 C55.579887,150.92007 54.498756,150.11562 53.40529,149.3286 L53.40529,149.3286" /><defs><path id="DRAW_7348"  d="M50.71486,137.77977 C49.730206,141.70139 49.843903,139.81908 50.156082,143.4093 L50.156082,143.4093" /></defs><use xlink:href="#DRAW_7348" fill="none" stroke="#000000" stroke-width="0.04mm" /><text style="fill:#000000; font-size:0.5mm; letter-spacing:2;"><textPath xlink:href="#DRAW_7348">|||||||||||||||||||||||</textPath></text><defs><path id="DRAW_7350"  d="M59.696754,157.97986 L59.738144,152.06056" /></defs><use xlink:href="#DRAW_7350" fill="none" stroke="#000000" stroke-width="0.04mm" /><text style="fill:#000000; font-size:0.5mm; letter-spacing:2;"><textPath xlink:href="#DRAW_7350">||||||||||||||||||||||||</textPath></text><defs><path id="DRAW_7351"  d="M58.827538,151.37758 C58.180244,151.09456 57.550137,150.76843 56.885666,150.5285 C54.794212,149.77333 52.552002,150.44371 50.48877,150.91806 C50.12643,151.00136 49.776436,151.1521 49.457775,151.34363 C46.81481,152.9322 46.16335,153.83199 43.78837,156.40938 C43.088062,157.16937 42.552933,158.24854 42.404095,159.27469 C41.97783,162.21353 43.74971,164.99503 45.45472,167.18582 C47.152626,169.3675 48.98039,171.46027 50.969337,173.38033 C52.590755,174.94559 56.138123,177.47867 58.456364,178.55759 C60.200558,179.36934 62.86963,179.79263 64.65137,179.99855 C66.544975,180.2174 68.29474,179.2817 70.09768,178.90703 C71.24157,178.66933 71.55118,178.86496 72.41224,178.42378 C72.62721,178.31363 72.84394,178.19482 73.02066,178.03014 C74.36133,176.78079 75.76335,175.58243 76.95514,174.19034 C79.09041,171.6962 80.8118,167.67598 78.528984,164.7279 C78.06242,164.12538 77.60872,163.49098 77.0105,163.01892 C74.01678,160.65659 70.96585,158.35689 67.78649,156.25104 C65.37257,154.65216 60.54576,151.60709 57.03055,151.46791 C54.867493,151.38228 52.902893,152.1881 51.08738,153.26099 L51.08738,153.26099" /></defs><use xlink:href="#DRAW_7351" fill="none" stroke="#000000" stroke-width="0.04mm" /><text style="fill:#000000; font-size:0.5mm; letter-spacing:2;"><textPath xlink:href="#DRAW_7351">|||||||||||||||||||||||||||||||||||||||||||||||||||||||||||||||||||||||||||||||||||||||||||||||||||||||||||||||||||||||||||||||||||||||||||||||||||||||||||||||||||||||||||||||||||||||||||||||||||||||||||||||||||||||||||||||||||||||||||||||||||||||||||||||||||||||||||||||||||||||||||||||||||||||||||||||||||||||||||||||||||||||||||||||||||||||||||||||||||||||||||||||||||||||||||||||||||||||||||||||||||||||||||||||||||||||||||||||||</textPath></text><path fill="none" stroke="#000000" stroke-width="0.06mm" d="M56.90284,162.80222 C55.8657,164.32735 56.28438,163.41959 55.868065,165.61697 L55.868065,165.61697" /><path fill="none" stroke="#000000" stroke-width="0.06mm" d="M69.630646,166.50694 C62.595192,166.09317 69.25097,166.6976 61.815636,165.33069 C61.038586,165.18784 58.883423,165.41153 58.30889,165.1194 C58.02523,164.97517 58.254543,164.48528 58.22737,164.16821 L58.22737,164.16821" /><path fill="none" stroke="#000000" stroke-width="0.06mm" d="M65.077614,168.99057 C60.700394,164.90219 61.93847,165.56131 58.206673,163.40242 L58.206673,163.40242" /><defs><path id="DRAW_7357"  d="M53.73642,139.76666 C53.98276,138.52498 53.576157,136.45642 54.305683,135.10983 C54.3955,134.94405 54.48644,134.77296 54.61898,134.63884 C55.70427,133.5407 56.9402,132.5885 57.950947,131.42137 C58.74411,130.50551 59.39343,129.46841 60.003296,128.42151 C60.46582,127.62755 60.80562,126.767 61.15696,125.91796 C62.09978,123.6396 63.028584,121.35441 63.884674,119.04207 C63.99745,118.73744 64.026726,118.4064 64.05765,118.08304 C64.20098,116.58435 63.50973,115.22046 62.315216,114.31218 C60.359303,112.824936 58.006504,110.5341 55.24678,110.72481 C52.641953,110.904816 49.547832,113.41259 47.901154,114.486664 C46.495674,115.40341 45.207287,116.493546 43.79004,117.39199 C39.678986,119.99812 39.072716,119.49406 35.772026,122.84579 C33.401424,125.253044 31.314081,127.925934 28.989672,130.37782 C28.211422,131.19876 27.257471,131.83943 26.4732,132.65462 C25.70895,133.44899 25.035173,134.56139 24.604061,135.5827 C24.362158,136.15578 24.13099,137.34196 24.21943,137.9004 C24.695896,140.90897 25.360909,143.8848 25.970963,146.86914 C26.010387,147.06201 26.069174,147.25533 26.1667,147.42632 C26.64098,148.25786 27.176006,149.05325 27.680658,149.86671 L27.680658,149.86671" /></defs><use xlink:href="#DRAW_7357" fill="none" stroke="#000000" stroke-width="0.04mm" /><text style="fill:#000000; font-size:0.5mm; letter-spacing:2;"><textPath xlink:href="#DRAW_7357">|||||||||||||||||||||||||||||||||||||||||||||||||||||||||||||||||||||||||||||||||||||||||||||||||||||||||||||||||||||||||||||||||||||||||||||||||||||||||||||||||||||||||||||||||||||||||||||||||||||||||||||||||||||||||||||||||||||||||||||||||||||||||||||||||||||||||||||||||||||||||||||||||||||||||||||||||||||||||||||||||||||||||||||||||||||||||||||||||||||||||||||||</textPath></text><path fill="none" stroke="#000000" stroke-width="0.06mm" stroke-dasharray="0.3mm,0.1mm" d="M-33.350677,152.5366 L-30.267029,153.01263" /><path fill="none" stroke="#000000" stroke-width="0.06mm" stroke-dasharray="0.3mm,0.1mm" d="M33.930733,320.44977 C31.537506,320.49847 29.621431,320.35516 27.304663,321.12137 C26.582417,321.36023 25.982452,321.87405 25.321352,322.25037 L25.321352,322.25037" /><defs><path id="DRAW_7364"  d="M29.232828,147.85913 C29.5223,149.70805 30.220274,151.40866 31.919865,152.3656 C32.98545,152.96556 34.48495,152.96104 35.616806,152.90163 C36.660385,152.84686 38.279503,152.56596 39.254597,152.05031 C41.62902,150.79463 43.85483,149.2649 46.256847,148.06285 C51.692772,145.34253 47.45473,147.95042 49.860065,146.86957 C51.410973,146.17264 52.33602,144.7136 53.28112,143.38863 L53.28112,143.38863" /></defs><use xlink:href="#DRAW_7364" fill="none" stroke="#000000" stroke-width="0.04mm" /><text style="fill:#000000; font-size:0.5mm; letter-spacing:2;"><textPath xlink:href="#DRAW_7364">||||||||||||||||||||||||||||||||||||||||||||||||||||||||||||||||||||||||||||||||||||||||||||||||||||||||||||||||||||||</textPath></text><defs><path id="DRAW_7365"  d="M70.66543,89.94947 C70.14932,90.599655 69.66654,91.27773 69.11712,91.90002 C67.69498,93.51073 65.80057,93.87514 63.885666,94.81483 C62.850777,95.32268 61.918736,96.299835 61.368233,97.302536 C61.164627,97.673386 60.956146,98.05267 60.85569,98.463646 C59.95181,102.161575 59.29349,105.917435 58.36039,109.60809 C58.160152,110.400085 57.761215,111.12808 57.461624,111.88808 L57.461624,111.88808" /></defs><use xlink:href="#DRAW_7365" fill="none" stroke="#000000" stroke-width="0.04mm" /><text style="fill:#000000; font-size:0.5mm; letter-spacing:2;"><textPath xlink:href="#DRAW_7365">|||||||||||||||||||||||||||||||||||||||||||||||||||||||||||||||||||||||||||||||||||||||||||||||||||||||||||||</textPath></text><defs><path id="DRAW_7366"  d="M69.672035,89.61832 C70.6837,87.819595 69.9326,88.76973 72.362465,87.176094 L72.362465,87.176094" /></defs><use xlink:href="#DRAW_7366" fill="none" stroke="#000000" stroke-width="0.04mm" /><text style="fill:#000000; font-size:0.5mm; letter-spacing:2;"><textPath xlink:href="#DRAW_7366">|||||||||||||||</textPath></text><defs><path id="DRAW_7367"  d="M72.46594,87.27958 L72.675674,88.27581" /></defs><use xlink:href="#DRAW_7367" fill="none" stroke="#000000" stroke-width="0.04mm" /><text style="fill:#000000; font-size:0.5mm; letter-spacing:2;"><textPath xlink:href="#DRAW_7367">|||||</textPath></text><defs><path id="DRAW_7368"  d="M72.25898,89.45274 L71.24768,90.78012" /></defs><use xlink:href="#DRAW_7368" fill="none" stroke="#000000" stroke-width="0.04mm" /><text style="fill:#000000; font-size:0.5mm; letter-spacing:2;"><textPath xlink:href="#DRAW_7368">|||||||</textPath></text><defs><path id="DRAW_7369"  d="M71.224205,90.88082 L71.22699,90.883606" /></defs><use xlink:href="#DRAW_7369" fill="none" stroke="#000000" stroke-width="0.04mm" /><text style="fill:#000000; font-size:0.5mm; letter-spacing:2;"><textPath xlink:href="#DRAW_7369">|</textPath></text><defs><path id="DRAW_7370"  d="M70.10664,86.88634 L69.98526,86.53728" /></defs><use xlink:href="#DRAW_7370" fill="none" stroke="#000000" stroke-width="0.04mm" /><text style="fill:#000000; font-size:0.5mm; letter-spacing:2;"><textPath xlink:href="#DRAW_7370">||</textPath></text><path fill="none" stroke="#000000" stroke-width="0.06mm" d="M39.04254,133.30927 C44.025528,131.68533 40.893707,132.91916 48.024437,128.69388 L48.024437,128.69388" /></g>
<g>
<line fill="none" stroke="#5674b9" stroke-width="0.05mm" stroke-dasharray="0.4,0.2" opacity="0.78" x1="47.00" y1="150.00" x2="68.53" y2="174.78" />
<line fill="none" stroke="#111111" stroke-width="0.05mm" x1="47.00" y1="150.00" x2="64.66" y2="148.98" />
<line fill="none" stroke="#111111" stroke-width="0.05mm" x1="47.00" y1="150.00" x2="57.49" y2="111.70" />
<line fill="none" stroke="#5674b9" stroke-width="0.05mm" stroke-dasharray="0.4,0.2" opacity="0.97" x1="57.49" y1="111.70" x2="72.33" y2="112.90" />
<line fill="none" stroke="#5674b9" stroke-width="0.05mm" stroke-dasharray="0.4,0.2" opacity="0.96" x1="57.49" y1="111.70" x2="78.17" y2="108.84" />
<line fill="none" stroke="#5674b9" stroke-width="0.05mm" stroke-dasharray="0.4,0.2" opacity="0.95" x1="57.49" y1="111.70" x2="81.84" y2="102.62" />
<line fill="none" stroke="#5674b9" stroke-width="0.05mm" stroke-dasharray="0.4,0.2" opacity="0.99" x1="57.49" y1="111.70" x2="78.15" y2="96.78" />
<line fill="none" stroke="#5674b9" stroke-width="0.05mm" stroke-dasharray="0.4,0.2" opacity="0.98" x1="57.49" y1="111.70" x2="67.07" y2="89.79" />
<line fill="none" stroke="#00aeef" stroke-width="0.05mm" stroke-dasharray="0.4,0.2" opacity="0.98" x1="57.49" y1="111.70" x2="61.14" y2="92.77" />
<line fill="none" stroke="#5674b9" stroke-width="0.05mm" stroke-dasharray="0.4,0.2" opacity="0.97" x1="57.49" y1="111.70" x2="57.11" y2="95.00" />
<line fill="none" stroke="#5674b9" stroke-width="0.05mm" stroke-dasharray="0.4,0.2" opacity="0.98" x1="57.49" y1="111.70" x2="79.89" y2="65.89" />
<line fill="none" stroke="#5674b9" stroke-width="0.05mm" stroke-dasharray="0.4,0.2" opacity="0.95" x1="57.49" y1="111.70" x2="82.03" y2="79.67" />
<line fill="none" stroke="#5674b9" stroke-width="0.05mm" stroke-dasharray="0.4,0.2" opacity="0.94" x1="57.49" y1="111.70" x2="83.26" y2="86.27" />
<line fill="none" stroke="#5674b9" stroke-width="0.05mm" stroke-dasharray="0.4,0.2" opacity="0.63" x1="57.49" y1="111.70" x2="62.04" y2="113.41" />
<line fill="none" stroke="#00aeef" stroke-width="0.05mm" stroke-dasharray="0.4,0.2" opacity="0.95" x1="57.49" y1="111.70" x2="54.76" y2="110.52" />
<line fill="none" stroke="#5674b9" stroke-width="0.05mm" stroke-dasharray="0.4,0.2" opacity="0.30" x1="57.49" y1="111.70" x2="59.51" y2="108.20" />
<line fill="none" stroke="#5674b9" stroke-width="0.05mm" stroke-dasharray="0.4,0.2" opacity="0.41" x1="57.49" y1="111.70" x2="75.92" y2="94.56" />
<line fill="none" stroke="#5674b9" stroke-width="0.05mm" stroke-dasharray="0.4,0.2" opacity="0.81" x1="57.49" y1="111.70" x2="76.43" y2="80.06" />
<line fill="none" stroke="#5674b9" stroke-width="0.05mm" stroke-dasharray="0.4,0.2" opacity="0.83" x1="57.49" y1="111.70" x2="79.86" y2="86.24" />
<line fill="none" stroke="#5674b9" stroke-width="0.05mm" stroke-dasharray="0.4,0.2" opacity="0.84" x1="57.49" y1="111.70" x2="80.00" y2="85.29" />
<line fill="none" stroke="#5674b9" stroke-width="0.05mm" stroke-dasharray="0.4,0.2" opacity="0.81" x1="57.49" y1="111.70" x2="72.11" y2="81.84" />
<line fill="none" stroke="#5674b9" stroke-width="0.05mm" stroke-dasharray="0.4,0.2" opacity="0.48" x1="57.49" y1="111.70" x2="93.51" y2="96.12" />
<line fill="none" stroke="#5674b9" stroke-width="0.05mm" stroke-dasharray="0.4,0.2" opacity="0.49" x1="57.49" y1="111.70" x2="92.35" y2="94.13" />
<line fill="none" stroke="#5674b9" stroke-width="0.05mm" stroke-dasharray="0.4,0.2" opacity="0.49" x1="57.49" y1="111.70" x2="106.29" y2="90.48" />
<line fill="none" stroke="#00aeef" stroke-width="0.05mm" stroke-dasharray="0.4,0.2" opacity="0.73" x1="57.49" y1="111.70" x2="56.88" y2="115.31" />
<line fill="none" stroke="#111111" stroke-width="0.05mm" x1="57.49" y1="111.70" x2="49.74" y2="149.18" />
<line fill="none" stroke="#111111" stroke-width="0.05mm" x1="49.74" y1="149.18" x2="36.44" y2="158.04" />
<line fill="none" stroke="#5674b9" stroke-width="0.05mm" stroke-dasharray="0.4,0.2" opacity="0.97" x1="36.44" y1="158.04" x2="22.81" y2="141.10" />
<line fill="none" stroke="#5674b9" stroke-width="0.05mm" stroke-dasharray="0.4,0.2" opacity="0.98" x1="36.44" y1="158.04" x2="26.58" y2="131.07" />
<line fill="none" stroke="#00aeef" stroke-width="0.05mm" stroke-dasharray="0.4,0.2" opacity="1.00" x1="36.44" y1="158.04" x2="39.33" y2="128.60" />
<line fill="none" stroke="#5674b9" stroke-width="0.05mm" stroke-dasharray="0.4,0.2" opacity="0.97" x1="36.44" y1="158.04" x2="47.84" y2="131.25" />
<line fill="none" stroke="#5674b9" stroke-width="0.05mm" stroke-dasharray="0.4,0.2" opacity="0.94" x1="36.44" y1="158.04" x2="54.75" y2="140.10" />
<line fill="none" stroke="#00aeef" stroke-width="0.05mm" stroke-dasharray="0.4,0.2" opacity="0.97" x1="36.44" y1="158.04" x2="49.44" y2="152.29" />
<line fill="none" stroke="#00aeef" stroke-width="0.05mm" stroke-dasharray="0.4,0.2" opacity="0.97" x1="36.44" y1="158.04" x2="62.29" y2="155.40" />
<line fill="none" stroke="#00aeef" stroke-width="0.05mm" stroke-dasharray="0.4,0.2" opacity="0.93" x1="36.44" y1="158.04" x2="72.47" y2="167.86" />
<line fill="none" stroke="#00aeef" stroke-width="0.05mm" stroke-dasharray="0.4,0.2" opacity="0.94" x1="36.44" y1="158.04" x2="70.73" y2="173.07" />
<line fill="none" stroke="#00aeef" stroke-width="0.05mm" stroke-dasharray="0.4,0.2" opacity="0.93" x1="36.44" y1="158.04" x2="73.19" y2="178.81" />
<line fill="none" stroke="#00aeef" stroke-width="0.05mm" stroke-dasharray="0.4,0.2" opacity="0.91" x1="36.44" y1="158.04" x2="62.65" y2="176.69" />
<line fill="none" stroke="#00aeef" stroke-width="0.05mm" stroke-dasharray="0.4,0.2" opacity="0.91" x1="36.44" y1="158.04" x2="54.96" y2="176.79" />
<line fill="none" stroke="#00aeef" stroke-width="0.05mm" stroke-dasharray="0.4,0.2" opacity="0.85" x1="36.44" y1="158.04" x2="45.12" y2="168.46" />
<line fill="none" stroke="#00aeef" stroke-width="0.05mm" stroke-dasharray="0.4,0.2" opacity="0.05" x1="36.44" y1="158.04" x2="20.82" y2="155.86" />
<line fill="none" stroke="#111111" stroke-width="0.05mm" x1="36.44" y1="158.04" x2="53.42" y2="170.75" />
<line fill="none" stroke="#111111" stroke-width="0.05mm" x1="53.42" y1="170.75" x2="53.70" y2="201.67" />
<line fill="none" stroke="#111111" stroke-width="0.05mm" x1="53.70" y1="201.67" x2="107.45" y2="165.21" />
<line fill="none" stroke="#111111" stroke-width="0.05mm" x1="107.45" y1="165.21" x2="104.65" y2="126.66" />
<line fill="none" stroke="#111111" stroke-width="0.05mm" x1="104.65" y1="126.66" x2="91.38" y2="63.17" />
<line fill="none" stroke="#111111" stroke-width="0.05mm" x1="91.38" y1="63.17" x2="96.44" y2="19.93" />
</g>
<g>
<circle cx="47.00" cy="150.00" r="0.1" fill="#111111" />
<circle cx="64.66" cy="148.98" r="0.1" fill="#111111" />
<circle cx="57.49" cy="111.70" r="0.1" fill="#111111" />
<circle cx="49.74" cy="149.18" r="0.1" fill="#111111" />
<circle cx="36.44" cy="158.04" r="0.1" fill="#111111" />
<circle cx="53.42" cy="170.75" r="0.1" fill="#111111" />
<circle cx="53.70" cy="201.67" r="0.1" fill="#111111" />
<circle cx="107.45" cy="165.21" r="0.1" fill="#111111" />
<circle cx="104.65" cy="126.66" r="0.1" fill="#111111" />
<circle cx="91.38" cy="63.17" r="0.1" fill="#111111" />
<circle cx="96.44" cy="19.93" r="0.1" fill="#111111" />
</g>
<g>
<text x="47.20" y="150.00" font-size=".2mm" fill="#000000">101</text>
<text x="64.86" y="148.98" font-size=".2mm" fill="#000000">100</text>
<text x="57.69" y="111.70" font-size=".2mm" fill="#000000">102</text>
<text x="49.94" y="149.18" font-size=".2mm" fill="#000000">103</text>
<text x="36.64" y="158.04" font-size=".2mm" fill="#000000">104</text>
<text x="53.62" y="170.75" font-size=".2mm" fill="#000000">105</text>
<text x="53.90" y="201.67" font-size=".2mm" fill="#000000">106.666</text>
<text x="107.65" y="165.21" font-size=".2mm" fill="#000000">107.666</text>
<text x="104.85" y="126.66" font-size=".2mm" fill="#000000">108.666</text>
<text x="91.58" y="63.17" font-size=".2mm" fill="#000000">109.666</text>
<text x="96.64" y="19.93" font-size=".2mm" fill="#000000">110.666</text>
</g>
<g>
</g>
</g>
</svg>