<?xml version="1.0" encoding="utf-8"?>
<!DOCTYPE svg PUBLIC "-//W3C//DTD SVG 1.1//EN" "http://www.w3.org/Graphics/SVG/1.1/DTD/svg11.dtd">
<svg version="1.1" id="Layer_1" xmlns="http://www.w3.org/2000/svg" xmlns:xlink="http://www.w3.org/1999/xlink" x="0px" y="0px" width="124mm" height="100mm" viewBox="0 0 124 100" enable-background="new 0 0 124 100" xml:space="preserve">
<symbol id="airflow" viewBox="-12 -12 24 24">
<path d="M-4.38,10.73l4.2-3.84V3.55L-4.07,7.13l-.31-.29L-.18,3V-6.89a3.37,3.37,0,0,0-1.68.53l1.68-4.15L0-11l.21.51h0v0l1.65,4.1A3.26,3.26,0,0,0,.24-6.89v14l-.08,0L-4.07,11Z"/>
<rect fill="none" x="-12" y="-12" width="24" height="24"/>
</symbol>
<symbol id="anastomosis" viewBox="-12 -12 24 24">
<path d="M2.23-4.78l.37.24L5.22-2.78l-.47.57L2.49-3.7l-4.61,8-.24.44-.37-.34L-5.22,2.3l.55-.52,2.1,1.82L2-4.39Z"/>
<rect fill="none" x="-12" y="-12" width="24" height="24"/>
</symbol>
<symbol id="bivouac" viewBox="-12 -12 24 24">
<path d="M.25-7.66l.24.58L.54-7l3.88.48-3.31.91L6,6H8.35v.48l-16.7.07V6.05h2.64L0-7.08Zm0,1.32L-5.13,6H-4l2.07-5L.2-4l2.09,5L4.37,6H5.44Z"/>
<rect fill="none" x="-12" y="-12" width="24" height="24"/>
</symbol>
<symbol id="bones" viewBox="-12 -12 24 24">
<path d="M2.44,4.27l-.16,0H2.13a.22.22,0,0,1-.11,0l-.1-.06a.39.39,0,0,1-.09-.11l-.08-.13a1.51,1.51,0,0,1-.06-.15l-.07-.17s0-.11-.08-.19-.06-.16-.08-.21a4.75,4.75,0,0,0-.38-.71c-.18-.29-.43-.64-.74-1A11.15,11.15,0,0,0-.7.32,6.73,6.73,0,0,0-2-.64a4.12,4.12,0,0,0-1.44-.52A1.64,1.64,0,0,1-5-2.19.72.72,0,0,1-5-2.44a1,1,0,0,1,0-.29A.52.52,0,0,1-4.87-3a.54.54,0,0,1,.35-.15L-4-3.22l.46,0a.54.54,0,0,0,.27-.06A.52.52,0,0,0-3-3.56a.74.74,0,0,0,.13-.31.54.54,0,0,1,.15-.26.54.54,0,0,1,.3-.15.83.83,0,0,1,.47,0,1.11,1.11,0,0,1,.35.4A7.46,7.46,0,0,1-1-2.76q.18.42.33.72a3.22,3.22,0,0,0,.39.57L.1-1a4.77,4.77,0,0,0,.58.43c.28.18.51.33.69.43l1,.56a1.84,1.84,0,0,0,.39.23A5.29,5.29,0,0,1,3.22.9l.43.26a3.7,3.7,0,0,1,.46.3l.36.29a2.28,2.28,0,0,1,.31.32A1,1,0,0,1,5,2.4c.2.48,0,.78-.47.91h0a8.48,8.48,0,0,0-1.12.09,1,1,0,0,0-.42.44A1,1,0,0,1,2.44,4.27Z"/>
<rect fill="none" x="-12" y="-12" width="24" height="24"/>
</symbol>
<symbol id="calcite" viewBox="-12 -12 24 24">
<path d="M2.36-2.22l.05.46.34,3.91L2,2.22,1.65-1.26-2.52-.06l-.23-.7L1.89-2.08Z"/>
<rect fill="none" x="-12" y="-12" width="24" height="24"/>
</symbol>
<symbol id="cauliflower" viewBox="-12 -12 24 24">
<path d="M5.58,3.22v-3A2.12,2.12,0,0,0,6.92-.43a1.78,1.78,0,0,0,.55-1.32,1.92,1.92,0,0,0-.65-1.42,2.19,2.19,0,0,0-1.53-.59,2.21,2.21,0,0,0-1.54.59,1.78,1.78,0,0,0-.64,1.42A1.86,1.86,0,0,0,3.65-.43,2.12,2.12,0,0,0,5,.23v3H.26v-3A2.17,2.17,0,0,0,1.61-.43a1.81,1.81,0,0,0,.54-1.32,1.91,1.91,0,0,0-.64-1.42A2.21,2.21,0,0,0,0-3.76a2.21,2.21,0,0,0-1.54.59,1.82,1.82,0,0,0-.64,1.42A1.83,1.83,0,0,0-1.66-.43,2.12,2.12,0,0,0-.32.23v3H-5v-3A2.12,2.12,0,0,0-3.71-.43a1.78,1.78,0,0,0,.55-1.32,1.92,1.92,0,0,0-.65-1.42,2.19,2.19,0,0,0-1.53-.59,2.21,2.21,0,0,0-1.54.59,1.83,1.83,0,0,0-.65,1.42A1.87,1.87,0,0,0-7-.43,2.12,2.12,0,0,0-5.64.23v3H-8v.54H8V3.22Z"/>
<rect fill="none" x="-12" y="-12" width="24" height="24"/>
</symbol>
<symbol id="clay" viewBox="-12 -12 24 24">
<path d="M1.85-1.33a3,3,0,0,1,1.67.48,3.23,3.23,0,0,1,1,1l.29.51-1,.43a3.81,3.81,0,0,0-.23-.4A3.74,3.74,0,0,0,2.93,0,1.77,1.77,0,0,0,1.85-.32a2.57,2.57,0,0,0-1.1.15A.86.86,0,0,0,.51.14,2.23,2.23,0,0,1,0,.88a2.55,2.55,0,0,1-1.45.43,3.16,3.16,0,0,1-2.75-1,4.28,4.28,0,0,1-.37-.57,3.91,3.91,0,0,1-.21-.47l0-.16,1-.22a1.87,1.87,0,0,0,.45.79A2.12,2.12,0,0,0-1.51.33,1.82,1.82,0,0,0-.69.14l.21-.36A1.53,1.53,0,0,1,.17-1,3.76,3.76,0,0,1,1.85-1.33Z"/>
<rect fill="none" x="-12" y="-12" width="24" height="24"/>
</symbol>
<symbol id="crystals" viewBox="-12 -12 24 24">
<path d="M-2.94-5.38,0-.72,2.94-5.38,3.62-5,.68-.36H6.56V.36H.68L3.62,5l-.68.36L0,.72-2.94,5.38-3.62,5-.68.36H-6.56V-.36H-.68L-3.62-5Z"/>
<rect fill="none" x="-12" y="-12" width="24" height="24"/>
</symbol>
<symbol id="curtain" viewBox="-12 -12 24 24">
<path d="M3.57-6.69l.52.53L.39-3V-.33L.1-.26a3.79,3.79,0,0,0-1,.41c-.58.3-.87.65-.87,1v.07A1.61,1.61,0,0,0-.84,2.48a3.69,3.69,0,0,0,.45.24L0,2.86l.13.05L.39,3V6.12H-.39V3.51a7.65,7.65,0,0,1-.9-.46A2.19,2.19,0,0,1-2.54,1.28V1.23A2,2,0,0,1-1.31-.48,5.32,5.32,0,0,1-.39-.86V-3l-3.7-3.14.52-.53L0-3.67Z"/>
<rect fill="none" x="-12" y="-12" width="24" height="24"/>
</symbol>
<symbol id="disk" viewBox="-12 -12 24 24">
<path d="M-.09-4.19a2.43,2.43,0,0,1,1.7.64A2,2,0,0,1,2.35-2,2.09,2.09,0,0,1,1.81-.55,2.44,2.44,0,0,1,.35.23l2.18,3.6-.68.33L0,1.14-1.48,4.19l-.71-.29L-.41.25A2.53,2.53,0,0,1-1.9-.47a2,2,0,0,1-.63-1.41,2,2,0,0,1,.67-1.61,2.46,2.46,0,0,1,1.72-.7ZM1.05-3.06.56-3.49l-.69,0A1.72,1.72,0,0,0-1.29-3a1.51,1.51,0,0,0-.45,1.08,1.36,1.36,0,0,0,.51,1A1.68,1.68,0,0,0-.07-.44v0l0,0A1.7,1.7,0,0,0,1.11-.92,1.36,1.36,0,0,0,1.56-2,1.47,1.47,0,0,0,1.05-3.06Z"/>
<rect fill="none" x="-12" y="-12" width="24" height="24"/>
</symbol>
<symbol id="entrance" viewBox="-12 -12 24 24">
<path d="M4.46,9H-4.46L0-9Z"/>
<rect fill="none" x="-12" y="-12" width="24" height="24"/>
</symbol>
<symbol id="flowstone" viewBox="-12 -12 24 24">
<rect x="-6" y="-0.21" width="12" height="0.42"/>
<rect fill="none" x="-12" y="-12" width="24" height="24"/>
</symbol>
<symbol id="flutes" viewBox="-12 -12 24 24">
<path d="M-7-1H7v.72H3.87A4.7,4.7,0,0,1,2.16,1.5,4.2,4.2,0,0,1,0,2.13,3.94,3.94,0,0,1-2.19,1.5,4.18,4.18,0,0,1-3.76-.27H-7Zm4.17.72A3.15,3.15,0,0,0-1.65,1,3.21,3.21,0,0,0,0,1.41,3.49,3.49,0,0,0,1.6,1,3.68,3.68,0,0,0,3-.27Z"/>
<rect fill="none" x="-12" y="-12" width="24" height="24"/>
</symbol>
<symbol id="gradient" viewBox="-12 -12 24 24">
<path d="M2.58-3.83,0-10-2.58-3.83A4.74,4.74,0,0,1-.17-4.5V10H.25V-4.5A6.65,6.65,0,0,1,2.58-3.83Z"/>
<rect fill="none" x="-12" y="-12" width="24" height="24"/>
</symbol>
<symbol id="guano" viewBox="-12 -12 24 24">
<path d="M-3.24-3a2.15,2.15,0,0,1,1.57.55A3.93,3.93,0,0,1-.59.24a4.32,4.32,0,0,1,2.75-2.3,2.68,2.68,0,0,1,2.23.36A2.36,2.36,0,0,1,5.5.19l-.79,0a1.72,1.72,0,0,0-.79-1.37,1.94,1.94,0,0,0-1.55-.24A3.53,3.53,0,0,0,.48,0,6.63,6.63,0,0,0-.69,3l-.79-.09a10.72,10.72,0,0,0,0-3.16A3.21,3.21,0,0,0-2.22-2,1.44,1.44,0,0,0-3.37-2.3,3.45,3.45,0,0,0-5-1.54l-.5-.55a4.29,4.29,0,0,1,2-.91A.9.9,0,0,1-3.24-3Z"/>
<rect fill="none" x="-12" y="-12" width="24" height="24"/>
</symbol>
<symbol id="helictites" viewBox="-12 -12 24 24">
<path d="M-4.59-7.92h.79v7.7l3.41,0V-7.92H.39V-.17L4.2-.12h.39v8H3.8V.6L.39.55V7.92H-.39V.55L-4.2.5l-.39,0v-8.4Z"/>
<rect fill="none" x="-12" y="-12" width="24" height="24"/>
</symbol>
<symbol id="human" viewBox="-12 -12 24 24">
<path d="M-3.59-3.29A5.13,5.13,0,0,1,0-4.66,5.13,5.13,0,0,1,3.59-3.29,4.3,4.3,0,0,1,5.09,0a4.3,4.3,0,0,1-1.5,3.29A5.13,5.13,0,0,1,0,4.66,5.13,5.13,0,0,1-3.59,3.29,4.3,4.3,0,0,1-5.09,0,4.3,4.3,0,0,1-3.59-3.29Zm.28.77A3.68,3.68,0,0,0-4.3,0a3.62,3.62,0,0,0,1,2.57L-.5.05ZM0-3.94A4.42,4.42,0,0,0-2.75-3L.16-.36H4.28A3.62,3.62,0,0,0,2.91-2.9,4.38,4.38,0,0,0,0-3.94ZM.16.46-2.7,3.07A4.42,4.42,0,0,0,0,3.94a4.37,4.37,0,0,0,2.87-1A3.78,3.78,0,0,0,4.28.46Z"/>
<rect fill="none" x="-12" y="-12" width="24" height="24"/>
</symbol>
<symbol id="karren" viewBox="-12 -12 24 24">
<path d="M1-5.84h0a1.37,1.37,0,0,1,1.06.68A3.33,3.33,0,0,1,2.5-3.79,25.79,25.79,0,0,1,2.36,0a18.61,18.61,0,0,0-.08,3.72,2.68,2.68,0,0,0,.41,1.2,1.13,1.13,0,0,0,.79.5A.92.92,0,0,0,4,4.94a4.43,4.43,0,0,0,.47-1.22c.16-.64.36-1.86.59-3.66a26.71,26.71,0,0,1,.64-3.69,4.62,4.62,0,0,1,.57-1.29,1.34,1.34,0,0,1,1-.59h0A1.28,1.28,0,0,1,8.37-5a2.17,2.17,0,0,1,.39,1.15A19.91,19.91,0,0,1,8.54-.53a21.51,21.51,0,0,0-.2,3.64A2.64,2.64,0,0,0,9.45,5.36,1.91,1.91,0,0,0,10.88,5a3.84,3.84,0,0,0,.7-1l.42.2-.1.18-.12.21-.11.18L11.52,5a.94.94,0,0,1-.14.16c-.06.07-.13.12-.19.18a2.5,2.5,0,0,1-1.85.41H9.29l0,0A3.06,3.06,0,0,1,7.87,3.13a22.11,22.11,0,0,1,.2-3.7,18.17,18.17,0,0,0,.22-3.28A1.85,1.85,0,0,0,8-4.79a.77.77,0,0,0-.67-.3.93.93,0,0,0-.64.42,4.51,4.51,0,0,0-.51,1.15A26.26,26.26,0,0,0,5.54.1c-.24,1.83-.45,3.07-.61,3.72a5.38,5.38,0,0,1-.51,1.34,1.33,1.33,0,0,1-.89.68H3.47A1.58,1.58,0,0,1,2.3,5.16a3.29,3.29,0,0,1-.49-1.4A20.27,20.27,0,0,1,1.89,0,23.45,23.45,0,0,0,2-3.75a2.94,2.94,0,0,0-.32-1.19A.93.93,0,0,0,1-5.42,1.1,1.1,0,0,0,.19-5,3.69,3.69,0,0,0-.43-3.76,20.78,20.78,0,0,0-1.07.07c-.2,2-.37,3.32-.49,3.86A4.48,4.48,0,0,1-2,5.26,1.06,1.06,0,0,1-3,5.81h0a1.9,1.9,0,0,1-1.29-.67,2.7,2.7,0,0,1-.58-1.31,14.92,14.92,0,0,1,0-3.6q0-.12.06-.54c0-.28,0-.47,0-.57s0-.28,0-.52,0-.42,0-.55,0-.28,0-.47,0-.36,0-.51,0-.29,0-.43A3.09,3.09,0,0,0-5-4.62a1.19,1.19,0,0,0-.67-.6,1.5,1.5,0,0,0-1.2.9A7,7,0,0,0-7.41-2.1c0,.39-.1,1-.14,1.76s-.11,1.47-.18,2.08A9.61,9.61,0,0,1-8,3.32h0l0,0A2.81,2.81,0,0,1-9.2,4.62a1.82,1.82,0,0,1-1.35.15A1.94,1.94,0,0,1-11.61,4,2.39,2.39,0,0,1-12,2.56l.47,0a1.92,1.92,0,0,0,.31,1.16,1.47,1.47,0,0,0,.81.62,1.3,1.3,0,0,0,1-.11A2.32,2.32,0,0,0-8.5,3.18a7.53,7.53,0,0,0,.29-1.5Q-8.1.8-8-.36c0-.78.1-1.37.16-1.78A7.23,7.23,0,0,1-7.28-4.5,1.93,1.93,0,0,1-5.65-5.66h.05l0,0a1.59,1.59,0,0,1,1,.84,3.47,3.47,0,0,1,.34,1.41,4.91,4.91,0,0,1,0,.57v.54c0,.15,0,.37,0,.66s0,.47,0,.58,0,.33-.06.68,0,.56-.06.63a14.78,14.78,0,0,0,0,3.49,2.58,2.58,0,0,0,.5,1.13,1.57,1.57,0,0,0,1,.5A.61.61,0,0,0-2.44,5,3.89,3.89,0,0,0-2,3.85C-1.9,3.31-1.74,2-1.53,0A20.65,20.65,0,0,1-.86-3.89,3.89,3.89,0,0,1-.18-5.26,1.58,1.58,0,0,1,1-5.84Z"/>
<rect fill="none" x="-12" y="-12" width="24" height="24"/>
</symbol>
<symbol id="moonmilk" viewBox="-12 -12 24 24">
<path d="M-4.78-3.06a3.39,3.39,0,0,1,1.5.34,2.48,2.48,0,0,1,1.1,1,3.74,3.74,0,0,1,1.62-.8,3.52,3.52,0,0,1,1.71,0,2.9,2.9,0,0,1,1.39.77A2.49,2.49,0,0,1,3.25-.37,4,4,0,0,1,5-.76a3.58,3.58,0,0,1,1.6.36A2.84,2.84,0,0,1,7.88.92a2.32,2.32,0,0,1,0,1.88.34.34,0,0,1-.37.26A.36.36,0,0,1,7.25,3a.32.32,0,0,1-.12-.25.21.21,0,0,1,0-.12,2,2,0,0,0,0-1.43,2,2,0,0,0-1-.9A2.81,2.81,0,0,0,4.68,0,2.78,2.78,0,0,0,3.12.56L2.46.25A1.7,1.7,0,0,0,2.15-1.1,2.15,2.15,0,0,0,1-1.81a2.85,2.85,0,0,0-1.58.06A3,3,0,0,0-2-.83l-.71-.12A1.74,1.74,0,0,0-3.55-2a2.36,2.36,0,0,0-1.39-.27,3.08,3.08,0,0,0-1.45.53A2.33,2.33,0,0,0-7.32-.56a.35.35,0,0,1-.37.24A.39.39,0,0,1-8-.42a.33.33,0,0,1-.1-.26v-.1A3,3,0,0,1-6.89-2.35,4,4,0,0,1-5-3Z"/>
<rect fill="none" x="-12" y="-12" width="24" height="24"/>
</symbol>
<symbol id="narrow" viewBox="-12 -12 24 24">
<path d="M-1.5,5V-5h0.64V5H-1.5z"/>
<path d="M0.86,5V-5H1.5V5H0.86z"/>
<rect fill="none" x="-12" y="-12" width="24" height="24"/>
</symbol>
<symbol id="paleoflow" viewBox="-12 -12 24 24">
<path d="M.38-12V.17A1.9,1.9,0,0,0,1,0,1.57,1.57,0,0,0,1.7-.72a1.86,1.86,0,0,0,.23-1c0-.09,0-.14.08-.16a.92.92,0,0,1,.24,0,.52.52,0,0,0,.25,0h.08A2.48,2.48,0,0,1,2,0,2.5,2.5,0,0,1,.38.77V7.21H2.09L0,12-1.8,7.23c.07,0,.59,0,1.53,0V.77A3,3,0,0,1-1.35.43a2.16,2.16,0,0,1-1-1,2.38,2.38,0,0,1-.24-1.33l.67,0a2,2,0,0,0,.15,1,1.73,1.73,0,0,0,.59.67A2.14,2.14,0,0,0-.27.16V-12Z"/>
<rect fill="none" x="-12" y="-12" width="24" height="24"/>
</symbol>
<symbol id="rain" viewBox="-12 -12 24 24">
<path d="M-4.14-6.34h0.71v4.69h-0.71V-6.34z"/>
<path d="M-0.35-6.34h0.71v4.69h-0.71V-6.34z"/>
<path d="M3.43-6.34h0.71v4.69H3.43V-6.34z"/>
<path d="M-4.14,1.65h0.71v4.69h-0.71V1.65z"/>
<path d="M-0.35,1.65h0.71v4.69h-0.71V1.65z"/>
<path d="M3.43,1.65h0.71v4.69H3.43V1.65z"/>
<rect fill="none" x="-12" y="-12" width="24" height="24"/>
</symbol>
<symbol id="rats" viewBox="-12 -12 24 24">
<path d="M8.78-2.32,7-2.27c-.51-.17-.65-.56-1.46-.45l-.25.45C3.59-2.75,2.59-3.66.56-3.62l-1.35.3A4.89,4.89,0,0,0-4.24,1.57c-.68.6-2.58.86-3.39.94a6.84,6.84,0,0,0-1.62.39,4.91,4.91,0,0,0-1,.52A1.75,1.75,0,0,0-11,4.61a1.16,1.16,0,0,0,.59,1.48,1.3,1.3,0,0,1,.14.12c.16-.52-.35-.92-.2-1.42a3.35,3.35,0,0,1,.27-.45,3.18,3.18,0,0,1,1.79-1c.63-.12,1.27-.22,1.91-.3.48-.07,1,0,1.4-.12A6.94,6.94,0,0,1-4,2.82,30.64,30.64,0,0,0,.41,2.69l2.16.15c.1-.09,0,0,.1-.15a.87.87,0,0,0-.9-.55c.86-1,2.27-.37,3.1-.05.5.19,1,0,1.25.4.11-.1.1-.07.15-.25.3,0,.31.07.6.15-.06-.49-.34-.64-1-.6a.78.78,0,0,1,0-.55C6.3.56,7.29.73,8.13.43a13.78,13.78,0,0,0,2.15-.9l.6-.85v-.2A16.9,16.9,0,0,0,8.78-2.32Z"/>
<rect fill="none" x="-12" y="-12" width="24" height="24"/>
</symbol>
<symbol id="sand" viewBox="-12 -12 24 24">
<path d="M-1.58,0.83c0.23,0.2,0.35,0.44,0.36,0.73c0.01,0.29-0.08,0.54-0.28,0.75c-0.2,0.21-0.46,0.32-0.78,0.33c-0.32,0.01-0.6-0.08-0.83-0.26C-3.36,2.19-3.49,1.95-3.5,1.67C-3.51,1.38-3.41,1.12-3.2,0.9c0.21-0.22,0.48-0.34,0.8-0.35C-2.08,0.54-1.81,0.64-1.58,0.83z"/>
<path d="M0.08-2.36c0.23,0.2,0.35,0.44,0.36,0.73c0.01,0.29-0.08,0.54-0.28,0.75c-0.2,0.21-0.46,0.32-0.78,0.33c-0.32,0.01-0.59-0.07-0.83-0.26s-0.37-0.42-0.38-0.71c-0.01-0.29,0.09-0.54,0.3-0.76c0.21-0.22,0.48-0.33,0.8-0.35C-0.42-2.65-0.14-2.56,0.08-2.36z"/>
<path d="M3.12,0.55c0.23,0.2,0.35,0.43,0.38,0.71c0.02,0.28-0.07,0.53-0.28,0.75C3,2.23,2.73,2.35,2.42,2.36C2.1,2.37,1.82,2.28,1.58,2.08C1.34,1.88,1.22,1.64,1.2,1.35c-0.01-0.29,0.09-0.54,0.3-0.75C1.72,0.4,1.99,0.29,2.3,0.28S2.89,0.36,3.12,0.55z"/>
<rect fill="none" x="-12" y="-12" width="24" height="24"/>
</symbol>
<symbol  id="scallops" viewBox="-12 -12 24 24">
<path d="M.05-3.74l.21,0A2.35,2.35,0,0,1,1.74-3a2,2,0,0,1,.59,1.55v0l0,0A9.59,9.59,0,0,1-.08,3.27l-.39.47-.27-.55A14.26,14.26,0,0,1-2.33-1.89v-.05l0-.05A2,2,0,0,1-1.44-3.3,2.42,2.42,0,0,1,.05-3.74ZM-.11-3A1.44,1.44,0,0,0-1.55-1.89,13.06,13.06,0,0,0-.29,2.33,8.6,8.6,0,0,0,1.55-1.54a1.41,1.41,0,0,0-.38-1A1.62,1.62,0,0,0,.18-3Z"/>
<rect fill="none" x="-12" y="-12" width="24" height="24"/>
</symbol>
<symbol  id="sink" viewBox="-12 -12 24 24">
<path d="M.72,9.41H.9c1.94,0,3.26-.54,3.94-1.51a3.61,3.61,0,0,0,.33-.69,2,2,0,0,0,.11-.54V6.46l.69,0a2.8,2.8,0,0,1-.58,1.78C4.58,9.39,3.1,10,.93,10H-.93q-3.25,0-4.46-1.8a2.74,2.74,0,0,1-.43-.83A2.37,2.37,0,0,1-6,6.67V6.43l.68,0A2.27,2.27,0,0,0-4.84,7.9c.68,1,2,1.47,3.93,1.48l.5,0ZM-1.46-10a.68.68,0,0,0,.16.41A2.77,2.77,0,0,0-.51-9l0,0a3.63,3.63,0,0,1,1,.7,1.15,1.15,0,0,1,.34.88c0,.58-.53,1.14-1.49,1.68-.68.42-1,.79-1,1.11s.3.61.84,1h0Q.61-2.86.46-1.78a3.51,3.51,0,0,1-1.55,2,.61.61,0,0,0-.26.41,1.67,1.67,0,0,0,.1.51,5.3,5.3,0,0,1,.32,1L.56,1.9.46,8.06-3.4,2.54l1.73-.28A6.16,6.16,0,0,0-2,1.39,1.7,1.7,0,0,1-2.09.58a1.21,1.21,0,0,1,.53-.82h0v0C-.75-.86-.33-1.38-.28-1.85s-.23-.87-.91-1.27h0C-2-3.6-2.37-4.1-2.4-4.61S-2-5.74-1.09-6.29C-.34-6.72.06-7.1.09-7.44a.67.67,0,0,0-.18-.43,3.17,3.17,0,0,0-.79-.58,2.93,2.93,0,0,1-1-.67A1.16,1.16,0,0,1-2.17-10Z"/>
<rect fill="none" x="-12" y="-12" width="24" height="24"/>
</symbol>
<symbol  id="spring" viewBox="-12 -12 24 24">
<path d="M-1.34-9.86,2.52-4.34.78-4.06a8,8,0,0,0,.29.87,1.4,1.4,0,0,1,.13.79,1.3,1.3,0,0,1-.52.84l0,0v0C-.13-.95-.55-.42-.61,0S-.37.91.31,1.3l0,0c.75.46,1.14,1,1.18,1.46S1.12,3.92.21,4.46C-.54,4.9-.94,5.29-1,5.64a.74.74,0,0,0,.18.43A3.2,3.2,0,0,0,0,6.62a3,3,0,0,1,1,.7,1.14,1.14,0,0,1,.31.86A1.74,1.74,0,0,1,.71,9.26H.92c1.92,0,3.22-.52,3.9-1.51a2.05,2.05,0,0,0,.35-.67,2.59,2.59,0,0,0,.1-.55l0-.19.65,0a2.84,2.84,0,0,1-.55,1.8C4.58,9.26,3.08,9.85.92,9.86H-.92c-2.17,0-3.66-.6-4.49-1.77a3.65,3.65,0,0,1-.4-.85A2.43,2.43,0,0,1-6,6.53V6.29l.66,0a2.08,2.08,0,0,0,.47,1.41c.68,1,2,1.5,3.91,1.51H-.4c.62-.43.94-.8,1-1.1a.76.76,0,0,0-.16-.43,3.25,3.25,0,0,0-.79-.51v0a3.8,3.8,0,0,1-1-.7,1.15,1.15,0,0,1-.34-.91q.06-.84,1.5-1.68c.68-.4,1-.77,1-1.1S.49,2.21,0,1.87c0,0,0,0,0,0C-1,1.32-1.44.69-1.34,0a3.58,3.58,0,0,1,1.55-2,.54.54,0,0,0,.23-.38A1.28,1.28,0,0,0,.37-3a4.57,4.57,0,0,1-.32-1l-1.49.24Z"/>
<rect fill="none" x="-12" y="-12" width="24" height="24"/>
</symbol>
<symbol  id="stalactite" viewBox="-12 -12 24 24">
<path d="M3.57-6.69l.52.53L.39-3V6.12H-.39V-3l-3.7-3.14.52-.53L0-3.67Z"/>
<rect fill="none" x="-12" y="-12" width="24" height="24"/>
</symbol>
<symbol  id="stalagmite" viewBox="-12 -12 24 24">
<path d="M.38-6.42V2.75L4.11,5.89l-.56.53L0,3.4l-3.57,3-.53-.53,3.7-3.14V-6.42Z"/>
<rect fill="none" x="-12" y="-12" width="24" height="24"/>
</symbol>
<symbol  id="stalagnate" viewBox="-12 -12 24 24">
<path d="M3.55-8.46l.56.53L.38-4.78v9L4.11,7.36l-.56.53L0,4.86l-3.57,3-.53-.53,3.7-3.14v-9l-3.7-3.15.53-.53L0-5.43Z"/>
<rect fill="none" x="-12" y="-12" width="24" height="24"/>
</symbol>
<symbol  id="straws" viewBox="-12 -12 24 24">
<path d="M-10.89-2.76H10.89V-2H9.63V.46H8.84V-2H8.29v5.6H7.5V-2H5.56V.7H4.77V-2H2.07V2.38H1.29V-2H-.1v3H-.89V-2H-3.2V4.11H-4V-2H-6.22L-6.16.75l-.79,0L-7-2H-8.32V2.33H-9.1V-2h-1.79Z"/>
<rect fill="none" x="-12" y="-12" width="24" height="24"/>
</symbol>
<symbol  id="water" viewBox="-12 -12 24 24">
<path d="M-1.72-9.86,2.11-4.32.38-4.06a6.49,6.49,0,0,0,.29.89,1.5,1.5,0,0,1,.13.79,1.2,1.2,0,0,1-.5.82h0l0,0C-.54-.94-1-.42-1,.05s.24.89.92,1.27h0c.77.48,1.17,1,1.19,1.49S.71,3.94-.2,4.49c-.75.43-1.13.81-1.15,1.15a.51.51,0,0,0,.18.43,2.66,2.66,0,0,0,.76.58,2.93,2.93,0,0,1,1,.67,1.16,1.16,0,0,1,.29.89C.84,8.75.42,9.3-.41,9.86l-.44-.55c.66-.45,1-.83,1-1.15A.47.47,0,0,0,0,7.75a2.84,2.84,0,0,0-.78-.53h0a3.87,3.87,0,0,1-1-.69,1.24,1.24,0,0,1-.34-.91c0-.58.54-1.14,1.52-1.68.66-.42,1-.79,1-1.11s-.3-.61-.84-1h0Q-1.9,1.06-1.74,0a3.44,3.44,0,0,1,1.54-2,.67.67,0,0,0,.27-.41A1.11,1.11,0,0,0,0-3a4.33,4.33,0,0,1-.31-1l-1.5.24Z"/>
<rect fill="none" x="-12" y="-12" width="24" height="24"/>
</symbol><symbol  id="tree" viewBox="-12 -12 24 24">
<path d="M7.4-5.04A4.271,4.271,0,0,0,7.7-6.627a4.3,4.3,0,0,0-4.3-4.3A4.279,4.279,0,0,0,.636-9.914,4.293,4.293,0,0,0-3.045-12a4.3,4.3,0,0,0-4.3,4.3,4.27,4.27,0,0,0,.421,1.845,4.3,4.3,0,0,0-3.645,4.244,4.3,4.3,0,0,0,4.3,4.3A4.282,4.282,0,0,0-3.946,2L-1.175,5.23h0L-1.612,12H.982L.757,6.376,4.119,2.827v0a4.272,4.272,0,0,0,2.15.58,4.3,4.3,0,0,0,4.3-4.3A4.3,4.3,0,0,0,7.4-5.04ZM-3.346,1.538h0A4.346,4.346,0,0,0-2.7.788a4.266,4.266,0,0,0,1.765.753l-.135,2.087ZM.69,4.7.563,1.544A4.258,4.258,0,0,0,2.321.805,4.3,4.3,0,0,0,3.378,2.279Z"/>
<rect fill="none" x="-12" y="-12" width="24" height="24"/>
</symbol><g>
<desc></desc>
<g>
<line fill="none" stroke="#dddddd" stroke-width="0.1mm" x1="0.00" y1="51.00" x2="124.00" y2="51.00" />
<text x="121.20" y="50.80" font-size=".2mm" fill="#000000">0m</text>
<line fill="none" stroke="#dddddd" stroke-width="0.1mm" x1="0.00" y1="31.00" x2="124.00" y2="31.00" />
<text x="121.20" y="30.80" font-size=".2mm" fill="#000000">10m</text>
<line fill="none" stroke="#dddddd" stroke-width="0.1mm" x1="0.00" y1="11.00" x2="124.00" y2="11.00" />
<text x="121.20" y="10.80" font-size=".2mm" fill="#000000">20m</text>
<line fill="none" stroke="#dddddd" stroke-width="0.1mm" x1="0.00" y1="71.00" x2="124.00" y2="71.00" />
<text x="121.20" y="70.80" font-size=".2mm" fill="#000000">-10m</text>
<line fill="none" stroke="#dddddd" stroke-width="0.1mm" x1="0.00" y1="91.00" x2="124.00" y2="91.00" />
<text x="121.20" y="90.80" font-size=".2mm" fill="#000000">-20m</text>
</g>
<g>
<path fill="none" stroke="#924216" stroke-width="0.02mm" d="M33.738094,50.97235 L33.200054,51.566902" /><path fill="none" stroke="#924216" stroke-width="0.02mm" d="M32.284496,52.687634 C32.83394,52.429836 32.450203,52.93872 32.23942,53.020046 C32.187054,53.04025 32.14727,53.01828 32.140438,52.962215 C32.118572,52.78275 32.220818,52.625866 32.324825,52.490776 C32.39982,52.39337 32.529015,52.246292 32.675354,52.2919 C32.68777,52.295773 32.698044,52.305183 32.70726,52.31436 C32.78887,52.395622 32.867344,52.479973 32.947388,52.56278 L32.947388,52.56278" /><path fill="none" stroke="#924216" stroke-width="0.02mm" d="M33.15844,52.651962 C33.361237,52.43726 33.443634,52.394615 33.731976,52.36495 C33.803535,52.357586 33.857445,52.37491 33.91699,52.343678 C34.023075,52.288036 34.06948,52.081406 33.909084,52.0725 C33.849575,52.06919 33.790176,52.07892 33.73402,52.098797 C33.70079,52.110558 33.67061,52.12966 33.638195,52.14351 C33.625584,52.148895 33.61272,52.154575 33.59913,52.156418 C33.495148,52.1705 33.39055,52.179592 33.286263,52.19118 L33.286263,52.19118" /><path fill="none" stroke="#924216" stroke-width="0.02mm" d="M33.94618,52.26253 C34.114662,52.321426 34.29402,52.353798 34.438248,52.21912 C34.481064,52.179142 34.437653,52.1139 34.385086,52.116825 C34.258785,52.12385 34.134094,52.14856 34.008602,52.16443 L34.008602,52.16443" /><path fill="none" stroke="#924216" stroke-width="0.02mm" d="M32.156673,52.40522 C32.017933,52.421 31.769676,52.66593 31.562046,52.640163 C31.495327,52.63188 31.44744,52.591824 31.386265,52.569347 C31.245407,52.517597 30.862434,52.617905 30.84548,52.724293 C30.839535,52.761597 30.889027,52.80101 30.908773,52.81691 C30.963371,52.86087 31.33146,53.226707 31.547426,53.26194 C31.619423,53.27369 31.658455,53.218952 31.718739,53.21827 C31.8084,53.21725 31.897738,53.22917 31.987236,53.234627 L31.987236,53.234627" /><path fill="none" stroke="#924216" stroke-width="0.02mm" d="M32.82551,52.848164 L32.42421,53.074097" /><path fill="none" stroke="#924216" stroke-width="0.02mm" d="M33.65189,52.081192 C33.753845,52.094147 33.85522,52.113 33.957752,52.120052 C34.004078,52.123238 34.050777,52.117897 34.09681,52.111794 C34.190197,52.09941 34.269108,52.05462 34.350166,52.118618 C34.433334,52.18428 34.492214,52.34272 34.465313,52.44685 C34.400887,52.6962 34.34568,53.05207 34.04132,53.119846 C33.908142,53.1495 33.695488,53.001793 33.62811,52.97005 L33.62811,52.97005" /><path fill="none" stroke="#924216" stroke-width="0.02mm" d="M33.521095,52.78574 C33.905617,52.7267 33.90122,52.6804 34.14237,52.378468 L34.14237,52.378468" /><path fill="none" stroke="#924216" stroke-width="0.02mm" d="M33.794575,52.01579 C32.721874,52.20822 33.793346,52.032406 33.17362,52.10397 C33.080227,52.114758 33.00182,52.186817 32.95125,52.260273 C32.78173,52.506485 32.86211,52.67189 33.161556,52.657032 C33.185295,52.655857 33.336784,52.627533 33.34152,52.597416 C33.356575,52.50162 33.354225,52.403885 33.360577,52.30712 L33.360577,52.30712" /><path fill="none" stroke="#000000" stroke-width="0.06mm" d="M31.79699,50.464005 C31.961334,50.387493 32.132683,50.324512 32.29002,50.23447 C32.426872,50.15615 32.553856,50.060715 32.675972,49.960968 C33.199387,49.533436 33.692894,49.06943 34.225563,48.653484 C34.44439,48.48261 34.69951,48.363426 34.92652,48.203587 C36.181686,47.31983 34.373646,48.42432 36.337334,47.128155 C36.5338,46.998474 36.759243,46.918003 36.960552,46.79598 C37.141876,46.686066 37.555107,46.44902 37.748405,46.218285 C37.790382,46.168175 37.827854,46.113934 37.859955,46.056984 C38.011124,45.788757 38.11004,45.4877 38.29772,45.24362 C38.680008,44.746483 39.15734,44.329254 39.55892,43.847565 C41.186886,41.89485 38.897163,44.265575 40.923393,42.359177 C40.97831,42.307507 41.02048,42.242767 41.05793,42.17732 C41.186684,41.95232 41.295197,41.716232 41.421013,41.489574 C41.48186,41.37995 41.55871,41.31512 41.665726,41.25685 C41.71218,41.23156 41.766273,41.217705 41.806145,41.182953 C42.01803,40.99829 42.22991,40.81152 42.41718,40.601936 C42.647404,40.344276 42.837852,40.053566 43.05525,39.784996 C43.09487,39.736046 43.19644,39.645813 43.26024,39.62056 C43.42967,39.553497 43.604446,39.50084 43.776554,39.44098 L43.776554,39.44098" /><path fill="none" stroke="#000000" stroke-width="0.06mm" d="M32.01399,52.38441 C32.280094,52.366512 32.54706,52.3586 32.8123,52.33071 C32.87879,52.323723 32.94392,52.303925 33.00638,52.280067 C33.242813,52.18975 33.48757,52.113903 33.70755,51.988743 C34.079826,51.77693 34.615623,51.43136 34.937214,51.06566 C35.04674,50.94111 35.13891,50.802296 35.24119,50.671726 C35.602127,50.21098 35.94406,49.73448 36.32685,49.291725 C36.619728,48.95297 36.93389,48.631584 37.265354,48.330482 C37.517,48.10189 37.79447,47.902718 38.072033,47.70641 C38.11679,47.67475 38.49005,47.50321 38.57669,47.386715 C39.124046,46.650734 39.524178,45.91851 40.176613,45.26616 C40.915775,44.527084 41.759426,43.89537 42.478878,43.137093 C42.74533,42.85626 42.90719,42.492077 43.117203,42.16687 C43.297943,41.887 43.274513,41.85736 43.471657,41.65931 C43.64649,41.483673 44.112442,41.439117 44.24414,41.400368 C44.380684,41.36019 44.51306,41.306995 44.647522,41.26031 L44.647522,41.26031" /><path fill="none" stroke="#000000" stroke-width="0.06mm" d="M45.28277,40.989002 C44.722885,41.136147 44.969925,41.02735 44.5307,41.289253 L44.5307,41.289253" /><path fill="none" stroke="#000000" stroke-width="0.06mm" d="M50.25592,37.6595 C49.49875,38.171368 50.37856,37.55815 49.688885,38.095028 C49.644768,38.12937 49.60045,38.173122 49.545174,38.181503 C49.52091,38.18518 49.56955,38.137253 49.571655,38.1128 C49.57378,38.088165 49.562126,38.064278 49.557365,38.040016 L49.557365,38.040016" /><path fill="none" stroke="#000000" stroke-width="0.06mm" d="M49.575195,38.025154 L49.90515,38.016235" /><path fill="none" stroke="#000000" stroke-width="0.06mm" d="M50.01514,38.031097 L50.02743,38.04339" /><path fill="none" stroke="#000000" stroke-width="0.06mm" d="M50.235115,38.420532 C50.12713,38.420105 50.01892,38.41232 49.911156,38.41925 C49.761482,38.428875 49.453697,38.538315 49.37072,38.59326 C48.16342,39.39279 46.9946,40.249077 45.796436,41.06224 C45.737434,41.10228 45.668537,41.125862 45.601845,41.151104 C45.398026,41.228264 45.398285,41.146812 45.128197,41.036568 L45.128197,41.036568" /><path fill="none" stroke="#000000" stroke-width="0.06mm" d="M44.11454,39.327225 C45.584633,38.495384 47.026417,37.55196 48.219692,36.351482 L48.219692,36.351482" /><path fill="none" stroke="#000000" stroke-width="0.06mm" d="M48.463448,35.932323 C48.597977,35.690243 48.72853,35.577324 49.006744,35.538376 C49.055275,35.531586 49.10726,35.537273 49.150223,35.562004 C49.24459,35.61633 49.283615,35.75793 49.316772,35.840256 C49.341682,35.902096 49.3652,35.970627 49.356777,36.03878 C49.343292,36.14789 49.246574,36.237053 49.16928,36.300514 C49.09208,36.363907 49.00798,36.41873 48.92311,36.471428 C48.807156,36.54342 48.710316,36.57576 48.57909,36.543213 C48.565216,36.539772 48.55168,36.53431 48.539402,36.526997 C48.44758,36.47229 48.35797,36.41395 48.267258,36.35743 L48.267258,36.35743" /><path fill="none" stroke="#000000" stroke-width="0.06mm" d="M48.392105,36.31284 L48.371696,36.37864" /><path fill="none" stroke="#000000" stroke-width="0.06mm" d="M48.546677,35.890705 C48.406677,36.380413 48.28945,36.254665 48.44264,36.396076 L48.44264,36.396076" /><path fill="none" stroke="#000000" stroke-width="0.06mm" d="M49.53358,35.86692 C49.595573,35.917767 49.65419,35.973026 49.71955,36.01946 C49.963722,36.192924 50.32647,36.175682 50.59665,36.178455 C50.66911,36.1792 50.74363,36.17526 50.812523,36.152786 C50.88532,36.129036 50.9468,36.07914 51.013935,36.042316 L51.013935,36.042316" /><path fill="none" stroke="#924216" stroke-width="0.02mm" d="M50.324295,37.894352 C49.511055,38.04639 49.618095,37.96637 49.064857,38.20619 C49.018436,38.22631 48.96839,38.258564 48.9327,38.296227 C48.868298,38.364185 48.85913,38.444584 48.81762,38.527298 C48.799545,38.56331 48.77491,38.59568 48.751675,38.6286 C48.720215,38.67318 48.670677,38.70784 48.653625,38.759666 C48.64818,38.776226 48.684975,38.78293 48.70205,38.779423 C48.76196,38.76712 49.29821,38.67848 49.51196,38.5549 C49.5464,38.53499 49.578247,38.51073 49.60943,38.48603 C49.72097,38.397675 49.825584,38.300533 49.93995,38.21587 C49.977215,38.188286 50.021034,38.17079 50.06271,38.150475 C50.085133,38.139545 50.113197,38.138622 50.13201,38.122246 C50.212532,38.052166 50.281998,37.970318 50.356987,37.894352 L50.356987,37.894352" /><path fill="none" stroke="#924216" stroke-width="0.02mm" d="M48.071064,39.05373 C47.84478,39.21879 47.613514,39.37722 47.392212,39.548904 C47.320686,39.6044 47.25709,39.669632 47.19377,39.734337 C47.18258,39.74578 47.175354,39.760967 47.16996,39.776035 C47.121033,39.912704 47.342934,39.97909 47.438538,39.96303 C47.504745,39.951912 47.56849,39.92852 47.626736,39.89511 C47.821594,39.78334 47.881714,39.539726 48.064552,39.41433 C48.098244,39.391224 48.13473,39.372368 48.171165,39.353893 C48.324383,39.2762 48.48473,39.212044 48.63336,39.125904 C48.733746,39.067722 48.82605,38.995983 48.91573,38.922367 C48.94972,38.894466 48.989864,38.86508 49.002434,38.82294 C49.00766,38.805435 48.968266,38.81 48.95118,38.80353 C48.847443,38.811657 48.743874,38.822403 48.63997,38.827908 C48.500847,38.835274 48.39272,38.816334 48.262943,38.859695 C48.145435,38.898956 48.031975,38.949417 47.91649,38.994278 L47.91649,38.994278" /><path fill="none" stroke="#000000" stroke-width="0.06mm" d="M51.998436,37.688026 C51.68481,37.581913 51.37754,37.541523 51.068203,37.678402 C50.975166,37.71957 50.784527,37.820892 50.711143,37.912613 C50.056847,38.730408 50.521355,38.39114 49.884018,38.77011 L49.884018,38.77011" /><path fill="none" stroke="#000000" stroke-width="0.06mm" d="M54.33455,38.836296 L54.331688,38.80365" /><path fill="none" stroke="#000000" stroke-width="0.06mm" d="M51.813133,37.764137 C51.965378,37.82292 52.11762,37.88171 52.269863,37.9405 C52.36702,37.9775 52.468113,38.005486 52.561337,38.051506 C52.926807,38.231945 53.144592,38.388466 53.424812,38.708797 C54.262672,39.666595 53.661015,39.244194 54.212116,39.597397 L54.212116,39.597397" /><path fill="none" stroke="#000000" stroke-width="0.06mm" d="M54.793148,33.906155 C55.44939,33.92528 56.062576,34.057304 56.585995,34.470154 C56.760735,34.607986 56.891308,34.816917 57.02007,34.988243 L57.02007,34.988243" /><path fill="none" stroke="#000000" stroke-width="0.06mm" d="M51.56031,35.732796 L51.401924,35.94172" /><path fill="none" stroke="#000000" stroke-width="0.06mm" d="M51.424644,35.659996 C51.676582,35.283817 51.51705,35.487625 51.93422,35.07428 L51.93422,35.07428" /><path fill="none" stroke="#000000" stroke-width="0.06mm" d="M54.551598,33.753933 C54.336876,33.669952 54.117924,33.596054 53.907425,33.501984 C53.8399,33.471806 53.782143,33.423317 53.720474,33.382492 C53.48548,33.22692 53.241016,33.084427 53.017467,32.91282 C52.902275,32.824394 52.811497,32.70805 52.70851,32.605663 L52.70851,32.605663" /><path fill="none" stroke="#000000" stroke-width="0.06mm" d="M51.768772,35.037876 C51.69941,34.570732 51.445694,34.156555 51.148647,33.798428 C51.076912,33.711945 50.992928,33.6364 50.915066,33.55538 L50.915066,33.55538" /><path fill="none" stroke="#000000" stroke-width="0.06mm" d="M67.64282,28.625685 L67.576035,28.314003" /><path fill="none" stroke="#000000" stroke-width="0.06mm" d="M48.42985,17.449657 L48.274456,17.272" /><path fill="none" stroke="#000000" stroke-width="0.06mm" d="M46.64881,17.227028 L44.244408,17.38287" /><path fill="none" stroke="#000000" stroke-width="0.06mm" d="M47.650646,16.781769 L47.67291,17.182503" /><path fill="none" stroke="#000000" stroke-width="0.06mm" d="M47.22765,17.204765 L47.228096,17.205212" /><path fill="none" stroke="#000000" stroke-width="0.06mm" d="M47.739697,17.360607 L47.873722,17.427841" /><path fill="none" stroke="#000000" stroke-width="0.06mm" d="M49.275845,17.38287 L49.27629,17.383316" /><path fill="none" stroke="#000000" stroke-width="0.06mm" d="M49.498474,17.427395 L49.49892,17.427841" /><path fill="none" stroke="#000000" stroke-width="0.06mm" d="M50.856518,16.670452 L50.856964,16.670898" /><path fill="none" stroke="#000000" stroke-width="0.06mm" d="M54.819332,14.154736 L54.81978,14.155182" /><path fill="none" stroke="#000000" stroke-width="0.06mm" d="M56.912056,12.306908 C57.011745,12.097527 57.29445,11.722023 57.088547,11.466778 C56.953003,11.298752 56.726494,11.21122 56.555847,11.104702 L56.555847,11.104702" /><path fill="none" stroke="#000000" stroke-width="0.06mm" d="M56.806984,34.869835 C56.78476,35.198658 56.80667,35.244377 56.709595,35.529125 C56.647446,35.711433 56.56472,35.886406 56.505093,36.069553 C56.444435,36.25585 56.44095,36.43304 56.581696,36.578026 C56.61004,36.607224 56.637234,36.64038 56.673893,36.658035 C56.998825,36.814503 57.330544,36.95662 57.662178,37.098324 C58.098083,37.284588 58.549908,37.434772 58.976315,37.641857 C59.481773,37.88733 60.172085,38.313038 60.547966,38.76248 C60.828857,39.098343 61.064064,39.47175 61.284763,39.84989 C61.36505,39.987465 61.518673,40.392704 61.540707,40.615795 C61.546688,40.67634 61.53518,40.737347 61.532417,40.79812 L61.532417,40.79812" /><path fill="none" stroke="#000000" stroke-width="0.06mm" d="M54.861214,40.69539 C54.93907,40.916843 54.88363,40.819336 55.021347,40.9915 L55.021347,40.9915" /><path fill="none" stroke="#000000" stroke-width="0.06mm" d="M61.18194,40.28748 L61.067535,40.420834" /><path fill="none" stroke="#000000" stroke-width="0.06mm" d="M61.103386,40.43553 L61.149113,40.43594" /><path fill="none" stroke="#000000" stroke-width="0.06mm" d="M61.41459,41.91912 C61.253216,42.43527 61.215546,42.612926 60.901897,43.181377 C60.77826,43.405457 60.621574,43.61017 60.4665,43.81376 C60.409077,43.889153 60.34395,43.961258 60.266384,44.015713 C60.18524,44.072678 60.08717,44.100555 59.99756,44.142982 L59.99756,44.142982" /><path fill="none" stroke="#000000" stroke-width="0.06mm" d="M54.154213,39.95511 C54.858646,40.792583 55.136227,41.05667 55.355137,42.15923 C55.44296,42.601543 55.45094,43.056156 55.511948,43.502956 C55.519203,43.55611 55.536278,43.60837 55.559612,43.656677 C55.616833,43.77513 55.688217,43.886204 55.75252,44.00097 L55.75252,44.00097" /><path fill="none" stroke="#000000" stroke-width="0.06mm" d="M62.364853,41.872746 C62.705513,42.27571 63.00907,42.713226 63.386826,43.081646 C63.70417,43.391144 64.10988,43.598026 64.43869,43.89532 C65.310524,44.683594 64.673615,44.25399 65.2395,44.932484 C65.48004,45.220886 65.76944,45.466423 66.00687,45.757393 C66.095924,45.866528 66.1501,46.00022 66.21345,46.126038 C66.28673,46.27161 66.324356,46.47032 66.47368,46.570263 C67.32039,47.13698 66.02397,46.22318 67.13238,46.90428 C67.71376,47.26153 67.96951,47.532753 68.40888,48.102535 C69.34508,49.316624 68.489655,48.389256 69.30609,49.80711 C69.801994,50.6683 70.3393,51.018955 71.00143,51.798553 C71.211395,52.04578 71.37751,52.327164 71.569565,52.588547 C71.62636,52.66584 71.69192,52.73648 71.74785,52.8144 C71.78328,52.863754 71.80459,52.92281 71.84318,52.969734 C71.9146,53.056583 71.998505,53.132355 72.07617,53.21367 L72.07617,53.21367" /><path fill="none" stroke="#000000" stroke-width="0.06mm" d="M56.57781,44.78397 C56.955845,44.945538 57.338684,45.0963 57.711906,45.268677 C57.76727,45.294247 57.814648,45.33533 57.85995,45.37615 C58.279774,45.754406 58.46768,45.910583 58.74542,46.403545 C59.266533,47.328495 59.04649,47.234734 59.561115,47.83931 C59.618553,47.906788 59.68055,47.97371 59.756115,48.01999 C60.253464,48.3246 60.78553,48.571404 61.274773,48.88887 C62.022385,49.374004 62.701366,49.962315 63.46288,50.42533 C65.153786,51.453445 64.66953,50.718002 65.849266,51.81896 C66.973434,52.86806 66.5555,52.868122 67.576416,54.532887 C68.04377,55.294975 68.740845,55.53781 69.46912,55.988663 C69.60339,56.071793 69.723694,56.175613 69.85099,56.26909 L69.85099,56.26909" /><path fill="none" stroke="#000000" stroke-width="0.06mm" d="M55.89194,44.37866 C55.821407,45.027206 56.13248,45.598915 56.10614,46.241653 C56.099583,46.401566 56.079514,46.561707 56.043873,46.717735 C55.73041,48.089878 55.796146,47.857075 55.435993,48.77083 L55.435993,48.77083" /><path fill="none" stroke="#000000" stroke-width="0.06mm" d="M58.03919,45.680332 C57.473846,46.39942 57.077816,46.78224 56.757202,47.64936 C56.6241,48.00934 56.552853,48.391243 56.4968,48.770927 C56.480522,48.881176 56.527424,48.991707 56.54274,49.102097 L56.54274,49.102097" /><path fill="none" stroke="#000000" stroke-width="0.06mm" stroke-dasharray="0.3mm,0.1mm" d="M55.338566,49.768524 C55.376057,50.46989 55.183212,50.324295 55.443787,50.48561 L55.443787,50.48561" /><path fill="none" stroke="#000000" stroke-width="0.06mm" stroke-dasharray="0.3mm,0.1mm" d="M56.733696,50.107582 C56.754803,50.16952 56.852417,50.559593 56.970467,50.64764 C57.000916,50.670353 57.046436,50.648743 57.084423,50.649292 L57.084423,50.649292" /><path fill="none" stroke="#000000" stroke-width="0.06mm" stroke-dasharray="0.3mm,0.1mm" d="M55.537315,51.10137 C55.582855,51.783287 55.37123,51.695652 55.704884,51.767796 L55.704884,51.767796" /><path fill="none" stroke="#000000" stroke-width="0.06mm" stroke-dasharray="0.3mm,0.1mm" d="M57.02597,51.28844 C57.028965,51.49899 57.031967,51.709534 57.034966,51.920082 C57.043655,51.93868 57.043156,51.96579 57.06104,51.975872 C57.08141,51.987362 57.107803,51.974857 57.131187,51.974346 L57.131187,51.974346" /><path fill="none" stroke="#000000" stroke-width="0.06mm" d="M72.03798,52.671425 C72.054184,52.76421 72.063866,52.85837 72.086586,52.94978 C72.099335,53.001095 72.11468,53.053627 72.14392,53.09768 C72.41858,53.51137 72.704285,53.917778 72.99602,54.319607 C73.59802,55.14882 73.5473,55.181152 74.10988,55.614468 L74.10988,55.614468" /><path fill="none" stroke="#000000" stroke-width="0.06mm" d="M69.79664,56.194157 C70.26726,56.400913 70.97502,56.628 71.44905,56.982758 C71.64177,57.126995 71.820435,57.28926 72.0113,57.43596 C72.13317,57.529633 72.26946,57.604313 72.38683,57.703564 C72.89858,58.136314 72.57155,58.032787 72.92381,58.114563 L72.92381,58.114563" /><path fill="none" stroke="#000000" stroke-width="0.06mm" d="M74.76201,55.00089 C74.70181,54.985035 74.642525,54.965256 74.581436,54.953323 C74.319695,54.9022 73.968,55.101162 73.96385,55.38903 C73.96277,55.464054 73.970474,55.5557 74.0325,55.608177 C74.079834,55.648216 74.17709,55.663864 74.22325,55.67737 L74.22325,55.67737" /><path fill="none" stroke="#000000" stroke-width="0.06mm" d="M74.35294,55.751198 C74.42294,55.76858 74.49434,55.781082 74.56295,55.80334 C74.76211,55.867958 75.17813,56.23127 75.27081,56.298454 C75.492516,56.459167 75.72307,56.60743 75.94462,56.768356 C76.23517,56.979412 76.51167,57.20979 76.806915,57.414246 C77.20929,57.692894 77.13925,57.542133 77.600746,57.800163 C77.768196,57.893787 77.92903,58.001022 78.07771,58.122272 C78.261566,58.272217 78.42352,58.447193 78.59507,58.61108 C78.74745,58.756653 78.88477,58.91916 79.04946,59.05064 C80.79129,60.44126 80.09848,59.657402 80.64841,60.296967 L80.64841,60.296967" /><path fill="none" stroke="#000000" stroke-width="0.06mm" d="M73.88602,58.227623 C74.078156,58.327637 74.272934,58.42273 74.46243,58.527664 C75.16066,58.914314 75.6503,59.266212 76.40167,59.518517 C76.656265,59.604004 76.93477,59.60288 77.189026,59.68934 C78.14078,60.012985 77.90492,59.978592 78.39579,60.241627 C78.527084,60.31198 78.51707,60.282574 78.63541,60.390774 C78.73491,60.48175 78.81192,60.601368 78.89047,60.708042 L78.89047,60.708042" /><path fill="none" stroke="#26B8EE" stroke-width="0.06mm" d="M30.697702,65.56975 C30.607212,65.4798 30.514572,65.385254 30.379452,65.38005 C30.36861,65.37963 30.357616,65.382576 30.347603,65.38675 C30.27351,65.417595 30.201017,65.45215 30.127726,65.48485 L30.127726,65.48485" /><path fill="none" stroke="#000000" stroke-width="0.06mm" d="M30.838379,65.69588 C30.43074,65.62863 30.522045,65.60687 30.13169,65.33331 C30.056107,65.28034 30.024643,65.43117 30.024292,65.47255 C30.022993,65.62552 30.146915,65.755264 30.26818,65.83025 C30.713013,66.10534 31.96902,66.016785 32.09065,66.02118 C32.254375,66.02709 32.340935,65.97179 32.34597,65.80762 C32.346806,65.78039 32.346676,65.75253 32.340057,65.726105 C32.322628,65.656525 32.296173,65.58952 32.274235,65.52123 L32.274235,65.52123" /><path fill="none" stroke="#000000" stroke-width="0.06mm" stroke-dasharray="0.3mm,0.1mm" d="M30.185936,51.537807 C30.02774,51.580685 29.869741,51.62431 29.711344,51.666443 C29.64952,51.68289 29.586191,51.69396 29.525291,51.713547 C29.489433,51.72508 29.44353,51.728554 29.42205,51.759495 C29.409729,51.777252 29.464401,51.77069 29.486008,51.770145 C29.611855,51.766968 29.787369,51.78107 29.904936,51.700672 C29.934353,51.680553 29.959572,51.654648 29.989338,51.63505 C30.020023,51.61485 30.098087,51.586037 30.130138,51.584915 C30.421848,51.57471 30.713867,51.577766 31.005733,51.57419 L31.005733,51.57419" /><path fill="none" stroke="#000000" stroke-width="0.06mm" stroke-dasharray="0.3mm,0.1mm" d="M36.32713,65.03369 L36.327457,65.21109" /><path fill="none" stroke="#000000" stroke-width="0.06mm" stroke-dasharray="0.3mm,0.1mm" d="M32.972755,51.64453 C32.961514,51.643837 32.814533,51.613335 32.75677,51.64251 C32.660202,51.691288 32.727623,51.91771 32.730484,51.974785 C32.73219,52.008797 32.681713,51.923553 32.686337,51.883892 C32.690655,51.84687 32.71806,51.801003 32.7473,51.77976 C32.950867,51.631855 33.15653,51.486675 33.3662,51.347565 C33.392525,51.330097 33.42334,51.3199 33.453686,51.311096 C33.491478,51.30013 33.53029,51.29093 33.569565,51.288555 C34.00945,51.26193 34.450535,51.256073 34.890064,51.22415 C34.960693,51.219025 35.031837,51.20451 35.09734,51.177605 C35.16106,51.151432 35.213825,51.10403 35.272068,51.067245 L35.272068,51.067245" /><path fill="none" stroke="#000000" stroke-width="0.06mm" stroke-dasharray="0.3mm,0.1mm" d="M32.52163,64.832375 C32.293995,64.88352 32.135674,64.95689 31.97174,65.120605 C31.924229,65.16805 31.877249,65.217415 31.84137,65.27418 C31.774239,65.38037 31.677586,65.48198 31.664326,65.60691 C31.657206,65.673996 31.74754,65.71312 31.789146,65.76622 L31.789146,65.76622" /><path fill="none" stroke="#000000" stroke-width="0.06mm" d="M35.48308,50.657326 C35.262012,50.77947 35.386234,50.690655 35.150795,50.97265 L35.150795,50.97265" /><path fill="none" stroke="#000000" stroke-width="0.06mm" d="M35.194454,51.091503 C36.935806,50.74066 36.522633,51.038483 37.73912,50.01541 C38.249428,49.586235 38.42336,49.2772 39.052326,49.07358 C39.56114,48.90886 39.66141,48.864063 40.122692,48.86344 C40.1716,48.863377 40.22222,48.866547 40.268005,48.883743 C40.64964,49.02708 41.026596,49.182888 41.401222,49.343647 C41.631916,49.442642 41.82009,49.607185 42.087166,49.560005 C42.228073,49.535114 42.41004,49.441135 42.50997,49.37744 C42.687115,49.264534 42.96679,49.055664 43.09129,48.85964 C43.49426,48.225163 43.997696,47.459923 44.16209,46.69114 C44.303036,46.03202 44.281517,45.342094 44.451782,44.689934 C44.649773,43.931595 45.002586,43.22222 45.260956,42.482273 C45.509064,41.77174 45.480583,41.907024 45.52922,41.447422 L45.52922,41.447422" /><path fill="none" stroke="#000000" stroke-width="0.06mm" d="M40.09868,47.035942 C39.987827,46.997715 39.929737,46.995197 39.850777,46.933 C39.799583,46.89267 39.787884,46.827328 39.74133,46.785168 C39.674477,46.724625 39.53073,46.742237 39.50467,46.837418 C39.501324,46.849648 39.4994,46.86242 39.499466,46.8751 C39.499947,46.96833 39.514587,47.061844 39.506317,47.154705 C39.50075,47.217197 39.474346,47.276043 39.458363,47.33671 L39.458363,47.33671" /><path fill="none" stroke="#000000" stroke-width="0.06mm" d="M39.431683,47.46042 C39.860504,46.780537 40.227276,46.381035 40.4379,45.67885 C40.48487,45.522263 40.509216,45.359673 40.53838,45.198814 C40.60242,44.845596 40.52659,45.06572 40.608017,44.855354 L40.608017,44.855354" /><path fill="none" stroke="#000000" stroke-width="0.06mm" d="M40.726864,47.370674 C40.76545,47.06128 40.750458,46.983585 40.84607,46.73123 C40.93272,46.502533 41.04925,46.28467 41.119682,46.050472 C41.21086,45.747284 41.215874,45.419662 41.329388,45.12411 C41.502396,44.673664 41.738075,44.248924 41.973408,43.827675 C42.0478,43.694515 42.163673,43.589153 42.25511,43.46707 C42.28264,43.43032 42.305088,43.390022 42.330074,43.351498 L42.330074,43.351498" /><path fill="none" stroke="#000000" stroke-width="0.06mm" d="M39.492317,47.32216 C39.35605,47.390312 39.226845,47.474964 39.083504,47.526615 C38.802254,47.627953 38.50435,47.678326 38.223045,47.779503 C37.753765,47.948288 37.665985,48.03399 37.2876,48.285114 L37.2876,48.285114" /><path fill="none" stroke="#000000" stroke-width="0.06mm" stroke-dasharray="0.3mm,0.1mm" d="M37.43313,48.00132 C37.192635,48.179806 37.225075,48.175877 36.911682,48.304893 C36.857582,48.327164 36.800945,48.345676 36.74291,48.353043 C36.425407,48.39335 36.10196,48.388397 35.787437,48.447613 C35.50757,48.500305 35.23501,48.58992 34.967396,48.687317 C34.64677,48.80401 34.18502,49.092155 33.783363,49.137955 C33.71717,49.145504 33.65043,49.12889 33.583965,49.12436 L33.583965,49.12436" /><path fill="none" stroke="#000000" stroke-width="0.06mm" d="M40.88694,47.45314 C41.317444,47.155533 41.452995,47.082863 41.896397,46.551067 C42.268276,46.10505 42.572166,45.606277 42.92376,45.144096 C43.140224,44.85954 43.277374,44.843136 43.434696,44.489403 C44.932117,41.122425 44.062935,43.11599 44.49408,41.772705 C44.632126,41.34262 44.512848,41.832397 44.624535,41.316444 L44.624535,41.316444" /><use xlink:href="#water" width="3.6" height="3.6" x="-1.8" y="-1.8" transform="translate(56.449215 49.468433) rotate(232)"/>
</g>
<g>
<line fill="none" stroke="#111111" stroke-width="0.04mm" x1="20.00" y1="51.00" x2="28.13" y2="51.39" />
<line fill="none" stroke="#00aeef" stroke-width="0.04mm" stroke-dasharray="0.4,0.2" x1="28.13" y1="51.39" x2="22.85" y2="49.60" />
<line fill="none" stroke="#00aeef" stroke-width="0.04mm" stroke-dasharray="0.4,0.2" x1="28.13" y1="51.39" x2="24.60" y2="49.54" />
<line fill="none" stroke="#00aeef" stroke-width="0.04mm" stroke-dasharray="0.4,0.2" x1="28.13" y1="51.39" x2="26.10" y2="50.11" />
<line fill="none" stroke="#111111" stroke-width="0.04mm" x1="28.13" y1="51.39" x2="34.60" y2="50.41" />
<line fill="none" stroke="#00aeef" stroke-width="0.04mm" stroke-dasharray="0.4,0.2" x1="34.60" y1="50.41" x2="31.25" y2="50.55" />
<line fill="none" stroke="#5674b9" stroke-width="0.04mm" stroke-dasharray="0.4,0.2" x1="34.60" y1="50.41" x2="32.37" y2="50.69" />
<line fill="none" stroke="#00aeef" stroke-width="0.04mm" stroke-dasharray="0.4,0.2" x1="34.60" y1="50.41" x2="32.92" y2="50.01" />
<line fill="none" stroke="#00aeef" stroke-width="0.04mm" stroke-dasharray="0.4,0.2" x1="34.60" y1="50.41" x2="32.02" y2="52.36" />
<line fill="none" stroke="#00aeef" stroke-width="0.04mm" stroke-dasharray="0.4,0.2" x1="34.60" y1="50.41" x2="33.95" y2="51.80" />
<line fill="none" stroke="#00aeef" stroke-width="0.04mm" stroke-dasharray="0.4,0.2" x1="34.60" y1="50.41" x2="34.79" y2="49.10" />
<line fill="none" stroke="#111111" stroke-width="0.04mm" x1="34.60" y1="50.41" x2="43.41" y2="41.50" />
<line fill="none" stroke="#00aeef" stroke-width="0.04mm" stroke-dasharray="0.4,0.2" x1="43.41" y1="41.50" x2="42.28" y2="41.21" />
<line fill="none" stroke="#5674b9" stroke-width="0.04mm" stroke-dasharray="0.4,0.2" x1="43.41" y1="41.50" x2="41.58" y2="41.17" />
<line fill="none" stroke="#00aeef" stroke-width="0.04mm" stroke-dasharray="0.4,0.2" x1="43.41" y1="41.50" x2="44.45" y2="41.08" />
<line fill="none" stroke="#5674b9" stroke-width="0.04mm" stroke-dasharray="0.4,0.2" x1="43.41" y1="41.50" x2="43.62" y2="39.61" />
<line fill="none" stroke="#00aeef" stroke-width="0.04mm" stroke-dasharray="0.4,0.2" x1="43.41" y1="41.50" x2="46.68" y2="40.14" />
<line fill="none" stroke="#111111" stroke-width="0.04mm" x1="43.41" y1="41.50" x2="50.37" y2="36.49" />
<line fill="none" stroke="#5674b9" stroke-width="0.04mm" stroke-dasharray="0.4,0.2" x1="50.37" y1="36.49" x2="49.41" y2="36.43" />
<line fill="none" stroke="#5674b9" stroke-width="0.04mm" stroke-dasharray="0.4,0.2" x1="50.37" y1="36.49" x2="50.01" y2="36.11" />
<line fill="none" stroke="#5674b9" stroke-width="0.04mm" stroke-dasharray="0.4,0.2" x1="50.37" y1="36.49" x2="49.98" y2="38.01" />
<line fill="none" stroke="#00aeef" stroke-width="0.04mm" stroke-dasharray="0.4,0.2" x1="50.37" y1="36.49" x2="48.39" y2="36.41" />
<line fill="none" stroke="#5674b9" stroke-width="0.04mm" stroke-dasharray="0.4,0.2" x1="50.37" y1="36.49" x2="51.29" y2="36.09" />
<line fill="none" stroke="#00aeef" stroke-width="0.04mm" stroke-dasharray="0.4,0.2" x1="50.37" y1="36.49" x2="50.77" y2="36.27" />
<line fill="none" stroke="#00aeef" stroke-width="0.04mm" stroke-dasharray="0.4,0.2" x1="50.37" y1="36.49" x2="46.34" y2="20.02" />
<line fill="none" stroke="#00aeef" stroke-width="0.04mm" stroke-dasharray="0.4,0.2" x1="50.37" y1="36.49" x2="50.34" y2="34.93" />
<line fill="none" stroke="#00aeef" stroke-width="0.04mm" stroke-dasharray="0.4,0.2" x1="50.37" y1="36.49" x2="47.79" y2="30.27" />
<line fill="none" stroke="#00aeef" stroke-width="0.04mm" stroke-dasharray="0.4,0.2" x1="50.37" y1="36.49" x2="48.57" y2="35.76" />
<line fill="none" stroke="#111111" stroke-width="0.04mm" x1="50.37" y1="36.49" x2="54.37" y2="35.98" />
<line fill="none" stroke="#00aeef" stroke-width="0.04mm" stroke-dasharray="0.4,0.2" x1="54.37" y1="35.98" x2="54.18" y2="36.09" />
<line fill="none" stroke="#00aeef" stroke-width="0.04mm" stroke-dasharray="0.4,0.2" x1="54.37" y1="35.98" x2="54.51" y2="33.75" />
<line fill="none" stroke="#00aeef" stroke-width="0.04mm" stroke-dasharray="0.4,0.2" x1="54.37" y1="35.98" x2="54.32" y2="39.39" />
<line fill="none" stroke="#00aeef" stroke-width="0.04mm" stroke-dasharray="0.4,0.2" x1="54.37" y1="35.98" x2="56.18" y2="36.29" />
<line fill="none" stroke="#00aeef" stroke-width="0.04mm" stroke-dasharray="0.4,0.2" x1="54.37" y1="35.98" x2="56.24" y2="35.93" />
<line fill="none" stroke="#00aeef" stroke-width="0.04mm" stroke-dasharray="0.4,0.2" x1="54.37" y1="35.98" x2="51.88" y2="35.71" />
<line fill="none" stroke="#00aeef" stroke-width="0.04mm" stroke-dasharray="0.4,0.2" x1="54.37" y1="35.98" x2="39.95" y2="19.82" />
<line fill="none" stroke="#111111" stroke-width="0.04mm" x1="54.37" y1="35.98" x2="59.37" y2="40.77" />
<line fill="none" stroke="#5674b9" stroke-width="0.04mm" stroke-dasharray="0.4,0.2" x1="59.37" y1="40.77" x2="57.90" y2="40.66" />
<line fill="none" stroke="#5674b9" stroke-width="0.04mm" stroke-dasharray="0.4,0.2" x1="59.37" y1="40.77" x2="54.98" y2="40.91" />
<line fill="none" stroke="#00aeef" stroke-width="0.04mm" stroke-dasharray="0.4,0.2" x1="59.37" y1="40.77" x2="57.53" y2="40.90" />
<line fill="none" stroke="#5674b9" stroke-width="0.04mm" stroke-dasharray="0.4,0.2" x1="59.37" y1="40.77" x2="61.59" y2="40.60" />
<line fill="none" stroke="#5674b9" stroke-width="0.04mm" stroke-dasharray="0.4,0.2" x1="59.37" y1="40.77" x2="60.30" y2="40.82" />
<line fill="none" stroke="#00aeef" stroke-width="0.04mm" stroke-dasharray="0.4,0.2" x1="59.37" y1="40.77" x2="59.05" y2="36.30" />
<line fill="none" stroke="#5674b9" stroke-width="0.04mm" stroke-dasharray="0.4,0.2" x1="59.37" y1="40.77" x2="55.34" y2="48.87" />
<line fill="none" stroke="#5674b9" stroke-width="0.04mm" stroke-dasharray="0.4,0.2" x1="59.37" y1="40.77" x2="58.04" y2="44.03" />
<line fill="none" stroke="#5674b9" stroke-width="0.04mm" stroke-dasharray="0.4,0.2" x1="59.37" y1="40.77" x2="57.13" y2="43.69" />
<line fill="none" stroke="#111111" stroke-width="0.04mm" x1="59.37" y1="40.77" x2="72.45" y2="55.98" />
<line fill="none" stroke="#5674b9" stroke-width="0.04mm" stroke-dasharray="0.4,0.2" x1="72.45" y1="55.98" x2="71.23" y2="55.92" />
<line fill="none" stroke="#00aeef" stroke-width="0.04mm" stroke-dasharray="0.4,0.2" x1="72.45" y1="55.98" x2="69.44" y2="56.03" />
<line fill="none" stroke="#00aeef" stroke-width="0.04mm" stroke-dasharray="0.4,0.2" x1="72.45" y1="55.98" x2="71.80" y2="56.22" />
<line fill="none" stroke="#00aeef" stroke-width="0.04mm" stroke-dasharray="0.4,0.2" x1="72.45" y1="55.98" x2="73.79" y2="55.96" />
<line fill="none" stroke="#5674b9" stroke-width="0.04mm" stroke-dasharray="0.4,0.2" x1="72.45" y1="55.98" x2="71.69" y2="52.94" />
<line fill="none" stroke="#00aeef" stroke-width="0.04mm" stroke-dasharray="0.4,0.2" x1="72.45" y1="55.98" x2="72.67" y2="58.18" />
<line fill="none" stroke="#111111" stroke-width="0.04mm" x1="72.45" y1="55.98" x2="79.93" y2="60.48" />
<line fill="none" stroke="#5674b9" stroke-width="0.04mm" stroke-dasharray="0.4,0.2" x1="79.93" y1="60.48" x2="79.87" y2="60.20" />
<line fill="none" stroke="#5674b9" stroke-width="0.04mm" stroke-dasharray="0.4,0.2" x1="79.93" y1="60.48" x2="80.49" y2="60.30" />
<line fill="none" stroke="#5674b9" stroke-width="0.04mm" stroke-dasharray="0.4,0.2" x1="79.93" y1="60.48" x2="77.65" y2="60.06" />
<line fill="none" stroke="#111111" stroke-width="0.04mm" x1="79.93" y1="60.48" x2="85.90" y2="69.57" />
<line fill="none" stroke="#5674b9" stroke-width="0.04mm" stroke-dasharray="0.4,0.2" x1="85.90" y1="69.57" x2="87.79" y2="69.24" />
<line fill="none" stroke="#00aeef" stroke-width="0.04mm" stroke-dasharray="0.4,0.2" x1="85.90" y1="69.57" x2="86.72" y2="69.46" />
<line fill="none" stroke="#00aeef" stroke-width="0.04mm" stroke-dasharray="0.4,0.2" x1="85.90" y1="69.57" x2="84.98" y2="69.60" />
<line fill="none" stroke="#00aeef" stroke-width="0.04mm" stroke-dasharray="0.4,0.2" x1="85.90" y1="69.57" x2="86.52" y2="68.09" />
<line fill="none" stroke="#00aeef" stroke-width="0.04mm" stroke-dasharray="0.4,0.2" x1="85.90" y1="69.57" x2="85.96" y2="71.43" />
<line fill="none" stroke="#111111" stroke-width="0.04mm" x1="85.90" y1="69.57" x2="90.55" y2="74.61" />
<line fill="none" stroke="#5674b9" stroke-width="0.04mm" stroke-dasharray="0.4,0.2" x1="90.55" y1="74.61" x2="92.03" y2="74.86" />
<line fill="none" stroke="#5674b9" stroke-width="0.04mm" stroke-dasharray="0.4,0.2" x1="90.55" y1="74.61" x2="91.12" y2="74.91" />
<line fill="none" stroke="#5674b9" stroke-width="0.04mm" stroke-dasharray="0.4,0.2" x1="90.55" y1="74.61" x2="89.32" y2="74.30" />
<line fill="none" stroke="#5674b9" stroke-width="0.04mm" stroke-dasharray="0.4,0.2" x1="90.55" y1="74.61" x2="90.85" y2="73.52" />
<line fill="none" stroke="#5674b9" stroke-width="0.04mm" stroke-dasharray="0.4,0.2" x1="90.55" y1="74.61" x2="90.91" y2="75.46" />
<line fill="none" stroke="#00aeef" stroke-width="0.04mm" stroke-dasharray="0.4,0.2" x1="90.55" y1="74.61" x2="91.69" y2="74.05" />
<line fill="none" stroke="#111111" stroke-width="0.04mm" x1="90.55" y1="74.61" x2="94.28" y2="76.64" />
<line fill="none" stroke="#00aeef" stroke-width="0.04mm" stroke-dasharray="0.4,0.2" x1="94.28" y1="76.64" x2="94.15" y2="76.40" />
<line fill="none" stroke="#5674b9" stroke-width="0.04mm" stroke-dasharray="0.4,0.2" x1="94.28" y1="76.64" x2="94.99" y2="76.34" />
<line fill="none" stroke="#00aeef" stroke-width="0.04mm" stroke-dasharray="0.4,0.2" x1="94.28" y1="76.64" x2="94.31" y2="77.36" />
<line fill="none" stroke="#5674b9" stroke-width="0.04mm" stroke-dasharray="0.4,0.2" x1="94.28" y1="76.64" x2="93.46" y2="75.95" />
<line fill="none" stroke="#111111" stroke-width="0.04mm" x1="94.28" y1="76.64" x2="98.24" y2="77.44" />
<line fill="none" stroke="#5674b9" stroke-width="0.04mm" stroke-dasharray="0.4,0.2" x1="98.24" y1="77.44" x2="97.85" y2="76.66" />
<line fill="none" stroke="#5674b9" stroke-width="0.04mm" stroke-dasharray="0.4,0.2" x1="98.24" y1="77.44" x2="98.05" y2="77.75" />
<line fill="none" stroke="#5674b9" stroke-width="0.04mm" stroke-dasharray="0.4,0.2" x1="98.24" y1="77.44" x2="100.87" y2="77.87" />
<line fill="none" stroke="#5674b9" stroke-width="0.04mm" stroke-dasharray="0.4,0.2" x1="98.24" y1="77.44" x2="100.47" y2="77.55" />
<line fill="none" stroke="#5674b9" stroke-width="0.04mm" stroke-dasharray="0.4,0.2" x1="98.24" y1="77.44" x2="100.46" y2="79.94" />
<line fill="none" stroke="#5674b9" stroke-width="0.04mm" stroke-dasharray="0.4,0.2" x1="98.24" y1="77.44" x2="100.34" y2="79.88" />
<line fill="none" stroke="#5674b9" stroke-width="0.04mm" stroke-dasharray="0.4,0.2" x1="98.24" y1="77.44" x2="100.29" y2="79.88" />
<line fill="none" stroke="#5674b9" stroke-width="0.04mm" stroke-dasharray="0.4,0.2" x1="98.24" y1="77.44" x2="100.25" y2="79.84" />
<line fill="none" stroke="#111111" stroke-width="0.04mm" x1="98.24" y1="77.44" x2="103.28" y2="77.41" />
<line fill="none" stroke="#00aeef" stroke-width="0.04mm" stroke-dasharray="0.4,0.2" x1="103.28" y1="77.41" x2="103.71" y2="80.10" />
<line fill="none" stroke="#00aeef" stroke-width="0.04mm" stroke-dasharray="0.4,0.2" x1="103.28" y1="77.41" x2="103.74" y2="80.11" />
<line fill="none" stroke="#111111" stroke-width="0.04mm" x1="103.28" y1="77.41" x2="104.88" y2="80.09" />
<line fill="none" stroke="#111111" stroke-width="0.04mm" x1="28.13" y1="51.39" x2="39.83" y2="48.00" />
<line fill="none" stroke="#5674b9" stroke-width="0.04mm" stroke-dasharray="0.4,0.2" x1="39.83" y1="48.00" x2="42.21" y2="40.38" />
<line fill="none" stroke="#5674b9" stroke-width="0.04mm" stroke-dasharray="0.4,0.2" x1="39.83" y1="48.00" x2="40.91" y2="44.41" />
<line fill="none" stroke="#5674b9" stroke-width="0.04mm" stroke-dasharray="0.4,0.2" x1="39.83" y1="48.00" x2="40.11" y2="44.60" />
<line fill="none" stroke="#00aeef" stroke-width="0.04mm" stroke-dasharray="0.4,0.2" x1="39.83" y1="48.00" x2="41.15" y2="47.68" />
<line fill="none" stroke="#111111" stroke-width="0.04mm" x1="39.83" y1="48.00" x2="41.89" y2="48.90" />
<line fill="none" stroke="#5674b9" stroke-width="0.04mm" stroke-dasharray="0.4,0.2" x1="41.89" y1="48.90" x2="45.49" y2="40.75" />
<line fill="none" stroke="#5674b9" stroke-width="0.04mm" stroke-dasharray="0.4,0.2" x1="41.89" y1="48.90" x2="45.44" y2="40.95" />
<line fill="none" stroke="#5674b9" stroke-width="0.04mm" stroke-dasharray="0.4,0.2" x1="41.89" y1="48.90" x2="45.43" y2="40.82" />
<line fill="none" stroke="#5674b9" stroke-width="0.04mm" stroke-dasharray="0.4,0.2" x1="41.89" y1="48.90" x2="45.49" y2="40.76" />
<line fill="none" stroke="#5674b9" stroke-width="0.04mm" stroke-dasharray="0.4,0.2" x1="41.89" y1="48.90" x2="44.86" y2="45.02" />
<line fill="none" stroke="#5674b9" stroke-width="0.04mm" stroke-dasharray="0.4,0.2" x1="41.89" y1="48.90" x2="43.08" y2="44.87" />
</g>
<g>
<circle cx="20.00" cy="51.00" r="0.1" fill="#111111" />
<circle cx="28.13" cy="51.39" r="0.1" fill="#111111" />
<circle cx="34.60" cy="50.41" r="0.1" fill="#111111" />
<circle cx="43.41" cy="41.50" r="0.1" fill="#111111" />
<circle cx="50.37" cy="36.49" r="0.1" fill="#111111" />
<circle cx="54.37" cy="35.98" r="0.1" fill="#111111" />
<circle cx="59.37" cy="40.77" r="0.1" fill="#111111" />
<circle cx="72.45" cy="55.98" r="0.1" fill="#111111" />
<circle cx="79.93" cy="60.48" r="0.1" fill="#111111" />
<circle cx="85.90" cy="69.57" r="0.1" fill="#111111" />
<circle cx="90.55" cy="74.61" r="0.1" fill="#111111" />
<circle cx="94.28" cy="76.64" r="0.1" fill="#111111" />
<circle cx="98.24" cy="77.44" r="0.1" fill="#111111" />
<circle cx="103.28" cy="77.41" r="0.1" fill="#111111" />
<circle cx="104.88" cy="80.09" r="0.1" fill="#111111" />
<circle cx="39.83" cy="48.00" r="0.1" fill="#111111" />
<circle cx="41.89" cy="48.90" r="0.1" fill="#111111" />
</g>
<g>
<text x="20.20" y="51.00" font-size=".2mm" fill="#000000">0</text>
<text x="28.33" y="51.39" font-size=".2mm" fill="#000000">1</text>
<text x="34.80" y="50.41" font-size=".2mm" fill="#000000">2</text>
<text x="43.61" y="41.50" font-size=".2mm" fill="#000000">3</text>
<text x="50.57" y="36.49" font-size=".2mm" fill="#000000">4</text>
<text x="54.57" y="35.98" font-size=".2mm" fill="#000000">5</text>
<text x="59.57" y="40.77" font-size=".2mm" fill="#000000">6</text>
<text x="72.65" y="55.98" font-size=".2mm" fill="#000000">7</text>
<text x="80.13" y="60.48" font-size=".2mm" fill="#000000">8</text>
<text x="86.10" y="69.57" font-size=".2mm" fill="#000000">9</text>
<text x="90.75" y="74.61" font-size=".2mm" fill="#000000">10</text>
<text x="94.48" y="76.64" font-size=".2mm" fill="#000000">11</text>
<text x="98.44" y="77.44" font-size=".2mm" fill="#000000">12</text>
<text x="103.48" y="77.41" font-size=".2mm" fill="#000000">13</text>
<text x="105.08" y="80.09" font-size=".2mm" fill="#000000">14</text>
<text x="40.03" y="48.00" font-size=".2mm" fill="#000000">1.1</text>
<text x="42.09" y="48.90" font-size=".2mm" fill="#000000">1.2</text>
</g>
<g>
</g>
</g>
</svg>