<?xml version="1.0" encoding="utf-8"?>
<!DOCTYPE svg PUBLIC "-//W3C//DTD SVG 1.1//EN" "http://www.w3.org/Graphics/SVG/1.1/DTD/svg11.dtd">
<svg version="1.1" id="Layer_1" xmlns="http://www.w3.org/2000/svg" xmlns:xlink="http://www.w3.org/1999/xlink" x="0px" y="0px" width="464mm" height="341mm" viewBox="0 0 464 341" enable-background="new 0 0 464 341" xml:space="preserve">
<symbol id="airflow" viewBox="-12 -12 24 24">
<path d="M-4.38,10.73l4.2-3.84V3.55L-4.07,7.13l-.31-.29L-.18,3V-6.89a3.37,3.37,0,0,0-1.68.53l1.68-4.15L0-11l.21.51h0v0l1.65,4.1A3.26,3.26,0,0,0,.24-6.89v14l-.08,0L-4.07,11Z"/>
<rect fill="none" x="-12" y="-12" width="24" height="24"/>
</symbol>
<symbol id="anastomosis" viewBox="-12 -12 24 24">
<path d="M2.23-4.78l.37.24L5.22-2.78l-.47.57L2.49-3.7l-4.61,8-.24.44-.37-.34L-5.22,2.3l.55-.52,2.1,1.82L2-4.39Z"/>
<rect fill="none" x="-12" y="-12" width="24" height="24"/>
</symbol>
<symbol id="bivouac" viewBox="-12 -12 24 24">
<path d="M.25-7.66l.24.58L.54-7l3.88.48-3.31.91L6,6H8.35v.48l-16.7.07V6.05h2.64L0-7.08Zm0,1.32L-5.13,6H-4l2.07-5L.2-4l2.09,5L4.37,6H5.44Z"/>
<rect fill="none" x="-12" y="-12" width="24" height="24"/>
</symbol>
<symbol id="bones" viewBox="-12 -12 24 24">
<path d="M2.44,4.27l-.16,0H2.13a.22.22,0,0,1-.11,0l-.1-.06a.39.39,0,0,1-.09-.11l-.08-.13a1.51,1.51,0,0,1-.06-.15l-.07-.17s0-.11-.08-.19-.06-.16-.08-.21a4.75,4.75,0,0,0-.38-.71c-.18-.29-.43-.64-.74-1A11.15,11.15,0,0,0-.7.32,6.73,6.73,0,0,0-2-.64a4.12,4.12,0,0,0-1.44-.52A1.64,1.64,0,0,1-5-2.19.72.72,0,0,1-5-2.44a1,1,0,0,1,0-.29A.52.52,0,0,1-4.87-3a.54.54,0,0,1,.35-.15L-4-3.22l.46,0a.54.54,0,0,0,.27-.06A.52.52,0,0,0-3-3.56a.74.74,0,0,0,.13-.31.54.54,0,0,1,.15-.26.54.54,0,0,1,.3-.15.83.83,0,0,1,.47,0,1.11,1.11,0,0,1,.35.4A7.46,7.46,0,0,1-1-2.76q.18.42.33.72a3.22,3.22,0,0,0,.39.57L.1-1a4.77,4.77,0,0,0,.58.43c.28.18.51.33.69.43l1,.56a1.84,1.84,0,0,0,.39.23A5.29,5.29,0,0,1,3.22.9l.43.26a3.7,3.7,0,0,1,.46.3l.36.29a2.28,2.28,0,0,1,.31.32A1,1,0,0,1,5,2.4c.2.48,0,.78-.47.91h0a8.48,8.48,0,0,0-1.12.09,1,1,0,0,0-.42.44A1,1,0,0,1,2.44,4.27Z"/>
<rect fill="none" x="-12" y="-12" width="24" height="24"/>
</symbol>
<symbol id="calcite" viewBox="-12 -12 24 24">
<path d="M2.36-2.22l.05.46.34,3.91L2,2.22,1.65-1.26-2.52-.06l-.23-.7L1.89-2.08Z"/>
<rect fill="none" x="-12" y="-12" width="24" height="24"/>
</symbol>
<symbol id="cauliflower" viewBox="-12 -12 24 24">
<path d="M5.58,3.22v-3A2.12,2.12,0,0,0,6.92-.43a1.78,1.78,0,0,0,.55-1.32,1.92,1.92,0,0,0-.65-1.42,2.19,2.19,0,0,0-1.53-.59,2.21,2.21,0,0,0-1.54.59,1.78,1.78,0,0,0-.64,1.42A1.86,1.86,0,0,0,3.65-.43,2.12,2.12,0,0,0,5,.23v3H.26v-3A2.17,2.17,0,0,0,1.61-.43a1.81,1.81,0,0,0,.54-1.32,1.91,1.91,0,0,0-.64-1.42A2.21,2.21,0,0,0,0-3.76a2.21,2.21,0,0,0-1.54.59,1.82,1.82,0,0,0-.64,1.42A1.83,1.83,0,0,0-1.66-.43,2.12,2.12,0,0,0-.32.23v3H-5v-3A2.12,2.12,0,0,0-3.71-.43a1.78,1.78,0,0,0,.55-1.32,1.92,1.92,0,0,0-.65-1.42,2.19,2.19,0,0,0-1.53-.59,2.21,2.21,0,0,0-1.54.59,1.83,1.83,0,0,0-.65,1.42A1.87,1.87,0,0,0-7-.43,2.12,2.12,0,0,0-5.64.23v3H-8v.54H8V3.22Z"/>
<rect fill="none" x="-12" y="-12" width="24" height="24"/>
</symbol>
<symbol id="clay" viewBox="-12 -12 24 24">
<path d="M1.85-1.33a3,3,0,0,1,1.67.48,3.23,3.23,0,0,1,1,1l.29.51-1,.43a3.81,3.81,0,0,0-.23-.4A3.74,3.74,0,0,0,2.93,0,1.77,1.77,0,0,0,1.85-.32a2.57,2.57,0,0,0-1.1.15A.86.86,0,0,0,.51.14,2.23,2.23,0,0,1,0,.88a2.55,2.55,0,0,1-1.45.43,3.16,3.16,0,0,1-2.75-1,4.28,4.28,0,0,1-.37-.57,3.91,3.91,0,0,1-.21-.47l0-.16,1-.22a1.87,1.87,0,0,0,.45.79A2.12,2.12,0,0,0-1.51.33,1.82,1.82,0,0,0-.69.14l.21-.36A1.53,1.53,0,0,1,.17-1,3.76,3.76,0,0,1,1.85-1.33Z"/>
<rect fill="none" x="-12" y="-12" width="24" height="24"/>
</symbol>
<symbol id="crystals" viewBox="-12 -12 24 24">
<path d="M-2.94-5.38,0-.72,2.94-5.38,3.62-5,.68-.36H6.56V.36H.68L3.62,5l-.68.36L0,.72-2.94,5.38-3.62,5-.68.36H-6.56V-.36H-.68L-3.62-5Z"/>
<rect fill="none" x="-12" y="-12" width="24" height="24"/>
</symbol>
<symbol id="curtain" viewBox="-12 -12 24 24">
<path d="M3.57-6.69l.52.53L.39-3V-.33L.1-.26a3.79,3.79,0,0,0-1,.41c-.58.3-.87.65-.87,1v.07A1.61,1.61,0,0,0-.84,2.48a3.69,3.69,0,0,0,.45.24L0,2.86l.13.05L.39,3V6.12H-.39V3.51a7.65,7.65,0,0,1-.9-.46A2.19,2.19,0,0,1-2.54,1.28V1.23A2,2,0,0,1-1.31-.48,5.32,5.32,0,0,1-.39-.86V-3l-3.7-3.14.52-.53L0-3.67Z"/>
<rect fill="none" x="-12" y="-12" width="24" height="24"/>
</symbol>
<symbol id="disk" viewBox="-12 -12 24 24">
<path d="M-.09-4.19a2.43,2.43,0,0,1,1.7.64A2,2,0,0,1,2.35-2,2.09,2.09,0,0,1,1.81-.55,2.44,2.44,0,0,1,.35.23l2.18,3.6-.68.33L0,1.14-1.48,4.19l-.71-.29L-.41.25A2.53,2.53,0,0,1-1.9-.47a2,2,0,0,1-.63-1.41,2,2,0,0,1,.67-1.61,2.46,2.46,0,0,1,1.72-.7ZM1.05-3.06.56-3.49l-.69,0A1.72,1.72,0,0,0-1.29-3a1.51,1.51,0,0,0-.45,1.08,1.36,1.36,0,0,0,.51,1A1.68,1.68,0,0,0-.07-.44v0l0,0A1.7,1.7,0,0,0,1.11-.92,1.36,1.36,0,0,0,1.56-2,1.47,1.47,0,0,0,1.05-3.06Z"/>
<rect fill="none" x="-12" y="-12" width="24" height="24"/>
</symbol>
<symbol id="entrance" viewBox="-12 -12 24 24">
<path d="M4.46,9H-4.46L0-9Z"/>
<rect fill="none" x="-12" y="-12" width="24" height="24"/>
</symbol>
<symbol id="flowstone" viewBox="-12 -12 24 24">
<rect x="-6" y="-0.21" width="12" height="0.42"/>
<rect fill="none" x="-12" y="-12" width="24" height="24"/>
</symbol>
<symbol id="flutes" viewBox="-12 -12 24 24">
<path d="M-7-1H7v.72H3.87A4.7,4.7,0,0,1,2.16,1.5,4.2,4.2,0,0,1,0,2.13,3.94,3.94,0,0,1-2.19,1.5,4.18,4.18,0,0,1-3.76-.27H-7Zm4.17.72A3.15,3.15,0,0,0-1.65,1,3.21,3.21,0,0,0,0,1.41,3.49,3.49,0,0,0,1.6,1,3.68,3.68,0,0,0,3-.27Z"/>
<rect fill="none" x="-12" y="-12" width="24" height="24"/>
</symbol>
<symbol id="gradient" viewBox="-12 -12 24 24">
<path d="M2.58-3.83,0-10-2.58-3.83A4.74,4.74,0,0,1-.17-4.5V10H.25V-4.5A6.65,6.65,0,0,1,2.58-3.83Z"/>
<rect fill="none" x="-12" y="-12" width="24" height="24"/>
</symbol>
<symbol id="guano" viewBox="-12 -12 24 24">
<path d="M-3.24-3a2.15,2.15,0,0,1,1.57.55A3.93,3.93,0,0,1-.59.24a4.32,4.32,0,0,1,2.75-2.3,2.68,2.68,0,0,1,2.23.36A2.36,2.36,0,0,1,5.5.19l-.79,0a1.72,1.72,0,0,0-.79-1.37,1.94,1.94,0,0,0-1.55-.24A3.53,3.53,0,0,0,.48,0,6.63,6.63,0,0,0-.69,3l-.79-.09a10.72,10.72,0,0,0,0-3.16A3.21,3.21,0,0,0-2.22-2,1.44,1.44,0,0,0-3.37-2.3,3.45,3.45,0,0,0-5-1.54l-.5-.55a4.29,4.29,0,0,1,2-.91A.9.9,0,0,1-3.24-3Z"/>
<rect fill="none" x="-12" y="-12" width="24" height="24"/>
</symbol>
<symbol id="helictites" viewBox="-12 -12 24 24">
<path d="M-4.59-7.92h.79v7.7l3.41,0V-7.92H.39V-.17L4.2-.12h.39v8H3.8V.6L.39.55V7.92H-.39V.55L-4.2.5l-.39,0v-8.4Z"/>
<rect fill="none" x="-12" y="-12" width="24" height="24"/>
</symbol>
<symbol id="human" viewBox="-12 -12 24 24">
<path d="M-3.59-3.29A5.13,5.13,0,0,1,0-4.66,5.13,5.13,0,0,1,3.59-3.29,4.3,4.3,0,0,1,5.09,0a4.3,4.3,0,0,1-1.5,3.29A5.13,5.13,0,0,1,0,4.66,5.13,5.13,0,0,1-3.59,3.29,4.3,4.3,0,0,1-5.09,0,4.3,4.3,0,0,1-3.59-3.29Zm.28.77A3.68,3.68,0,0,0-4.3,0a3.62,3.62,0,0,0,1,2.57L-.5.05ZM0-3.94A4.42,4.42,0,0,0-2.75-3L.16-.36H4.28A3.62,3.62,0,0,0,2.91-2.9,4.38,4.38,0,0,0,0-3.94ZM.16.46-2.7,3.07A4.42,4.42,0,0,0,0,3.94a4.37,4.37,0,0,0,2.87-1A3.78,3.78,0,0,0,4.28.46Z"/>
<rect fill="none" x="-12" y="-12" width="24" height="24"/>
</symbol>
<symbol id="karren" viewBox="-12 -12 24 24">
<path d="M1-5.84h0a1.37,1.37,0,0,1,1.06.68A3.33,3.33,0,0,1,2.5-3.79,25.79,25.79,0,0,1,2.36,0a18.61,18.61,0,0,0-.08,3.72,2.68,2.68,0,0,0,.41,1.2,1.13,1.13,0,0,0,.79.5A.92.92,0,0,0,4,4.94a4.43,4.43,0,0,0,.47-1.22c.16-.64.36-1.86.59-3.66a26.71,26.71,0,0,1,.64-3.69,4.62,4.62,0,0,1,.57-1.29,1.34,1.34,0,0,1,1-.59h0A1.28,1.28,0,0,1,8.37-5a2.17,2.17,0,0,1,.39,1.15A19.91,19.91,0,0,1,8.54-.53a21.51,21.51,0,0,0-.2,3.64A2.64,2.64,0,0,0,9.45,5.36,1.91,1.91,0,0,0,10.88,5a3.84,3.84,0,0,0,.7-1l.42.2-.1.18-.12.21-.11.18L11.52,5a.94.94,0,0,1-.14.16c-.06.07-.13.12-.19.18a2.5,2.5,0,0,1-1.85.41H9.29l0,0A3.06,3.06,0,0,1,7.87,3.13a22.11,22.11,0,0,1,.2-3.7,18.17,18.17,0,0,0,.22-3.28A1.85,1.85,0,0,0,8-4.79a.77.77,0,0,0-.67-.3.93.93,0,0,0-.64.42,4.51,4.51,0,0,0-.51,1.15A26.26,26.26,0,0,0,5.54.1c-.24,1.83-.45,3.07-.61,3.72a5.38,5.38,0,0,1-.51,1.34,1.33,1.33,0,0,1-.89.68H3.47A1.58,1.58,0,0,1,2.3,5.16a3.29,3.29,0,0,1-.49-1.4A20.27,20.27,0,0,1,1.89,0,23.45,23.45,0,0,0,2-3.75a2.94,2.94,0,0,0-.32-1.19A.93.93,0,0,0,1-5.42,1.1,1.1,0,0,0,.19-5,3.69,3.69,0,0,0-.43-3.76,20.78,20.78,0,0,0-1.07.07c-.2,2-.37,3.32-.49,3.86A4.48,4.48,0,0,1-2,5.26,1.06,1.06,0,0,1-3,5.81h0a1.9,1.9,0,0,1-1.29-.67,2.7,2.7,0,0,1-.58-1.31,14.92,14.92,0,0,1,0-3.6q0-.12.06-.54c0-.28,0-.47,0-.57s0-.28,0-.52,0-.42,0-.55,0-.28,0-.47,0-.36,0-.51,0-.29,0-.43A3.09,3.09,0,0,0-5-4.62a1.19,1.19,0,0,0-.67-.6,1.5,1.5,0,0,0-1.2.9A7,7,0,0,0-7.41-2.1c0,.39-.1,1-.14,1.76s-.11,1.47-.18,2.08A9.61,9.61,0,0,1-8,3.32h0l0,0A2.81,2.81,0,0,1-9.2,4.62a1.82,1.82,0,0,1-1.35.15A1.94,1.94,0,0,1-11.61,4,2.39,2.39,0,0,1-12,2.56l.47,0a1.92,1.92,0,0,0,.31,1.16,1.47,1.47,0,0,0,.81.62,1.3,1.3,0,0,0,1-.11A2.32,2.32,0,0,0-8.5,3.18a7.53,7.53,0,0,0,.29-1.5Q-8.1.8-8-.36c0-.78.1-1.37.16-1.78A7.23,7.23,0,0,1-7.28-4.5,1.93,1.93,0,0,1-5.65-5.66h.05l0,0a1.59,1.59,0,0,1,1,.84,3.47,3.47,0,0,1,.34,1.41,4.91,4.91,0,0,1,0,.57v.54c0,.15,0,.37,0,.66s0,.47,0,.58,0,.33-.06.68,0,.56-.06.63a14.78,14.78,0,0,0,0,3.49,2.58,2.58,0,0,0,.5,1.13,1.57,1.57,0,0,0,1,.5A.61.61,0,0,0-2.44,5,3.89,3.89,0,0,0-2,3.85C-1.9,3.31-1.74,2-1.53,0A20.65,20.65,0,0,1-.86-3.89,3.89,3.89,0,0,1-.18-5.26,1.58,1.58,0,0,1,1-5.84Z"/>
<rect fill="none" x="-12" y="-12" width="24" height="24"/>
</symbol>
<symbol id="moonmilk" viewBox="-12 -12 24 24">
<path d="M-4.78-3.06a3.39,3.39,0,0,1,1.5.34,2.48,2.48,0,0,1,1.1,1,3.74,3.74,0,0,1,1.62-.8,3.52,3.52,0,0,1,1.71,0,2.9,2.9,0,0,1,1.39.77A2.49,2.49,0,0,1,3.25-.37,4,4,0,0,1,5-.76a3.58,3.58,0,0,1,1.6.36A2.84,2.84,0,0,1,7.88.92a2.32,2.32,0,0,1,0,1.88.34.34,0,0,1-.37.26A.36.36,0,0,1,7.25,3a.32.32,0,0,1-.12-.25.21.21,0,0,1,0-.12,2,2,0,0,0,0-1.43,2,2,0,0,0-1-.9A2.81,2.81,0,0,0,4.68,0,2.78,2.78,0,0,0,3.12.56L2.46.25A1.7,1.7,0,0,0,2.15-1.1,2.15,2.15,0,0,0,1-1.81a2.85,2.85,0,0,0-1.58.06A3,3,0,0,0-2-.83l-.71-.12A1.74,1.74,0,0,0-3.55-2a2.36,2.36,0,0,0-1.39-.27,3.08,3.08,0,0,0-1.45.53A2.33,2.33,0,0,0-7.32-.56a.35.35,0,0,1-.37.24A.39.39,0,0,1-8-.42a.33.33,0,0,1-.1-.26v-.1A3,3,0,0,1-6.89-2.35,4,4,0,0,1-5-3Z"/>
<rect fill="none" x="-12" y="-12" width="24" height="24"/>
</symbol>
<symbol id="narrow" viewBox="-12 -12 24 24">
<path d="M-1.5,5V-5h0.64V5H-1.5z"/>
<path d="M0.86,5V-5H1.5V5H0.86z"/>
<rect fill="none" x="-12" y="-12" width="24" height="24"/>
</symbol>
<symbol id="paleoflow" viewBox="-12 -12 24 24">
<path d="M.38-12V.17A1.9,1.9,0,0,0,1,0,1.57,1.57,0,0,0,1.7-.72a1.86,1.86,0,0,0,.23-1c0-.09,0-.14.08-.16a.92.92,0,0,1,.24,0,.52.52,0,0,0,.25,0h.08A2.48,2.48,0,0,1,2,0,2.5,2.5,0,0,1,.38.77V7.21H2.09L0,12-1.8,7.23c.07,0,.59,0,1.53,0V.77A3,3,0,0,1-1.35.43a2.16,2.16,0,0,1-1-1,2.38,2.38,0,0,1-.24-1.33l.67,0a2,2,0,0,0,.15,1,1.73,1.73,0,0,0,.59.67A2.14,2.14,0,0,0-.27.16V-12Z"/>
<rect fill="none" x="-12" y="-12" width="24" height="24"/>
</symbol>
<symbol id="rain" viewBox="-12 -12 24 24">
<path d="M-4.14-6.34h0.71v4.69h-0.71V-6.34z"/>
<path d="M-0.35-6.34h0.71v4.69h-0.71V-6.34z"/>
<path d="M3.43-6.34h0.71v4.69H3.43V-6.34z"/>
<path d="M-4.14,1.65h0.71v4.69h-0.71V1.65z"/>
<path d="M-0.35,1.65h0.71v4.69h-0.71V1.65z"/>
<path d="M3.43,1.65h0.71v4.69H3.43V1.65z"/>
<rect fill="none" x="-12" y="-12" width="24" height="24"/>
</symbol>
<symbol id="rats" viewBox="-12 -12 24 24">
<path d="M8.78-2.32,7-2.27c-.51-.17-.65-.56-1.46-.45l-.25.45C3.59-2.75,2.59-3.66.56-3.62l-1.35.3A4.89,4.89,0,0,0-4.24,1.57c-.68.6-2.58.86-3.39.94a6.84,6.84,0,0,0-1.62.39,4.91,4.91,0,0,0-1,.52A1.75,1.75,0,0,0-11,4.61a1.16,1.16,0,0,0,.59,1.48,1.3,1.3,0,0,1,.14.12c.16-.52-.35-.92-.2-1.42a3.35,3.35,0,0,1,.27-.45,3.18,3.18,0,0,1,1.79-1c.63-.12,1.27-.22,1.91-.3.48-.07,1,0,1.4-.12A6.94,6.94,0,0,1-4,2.82,30.64,30.64,0,0,0,.41,2.69l2.16.15c.1-.09,0,0,.1-.15a.87.87,0,0,0-.9-.55c.86-1,2.27-.37,3.1-.05.5.19,1,0,1.25.4.11-.1.1-.07.15-.25.3,0,.31.07.6.15-.06-.49-.34-.64-1-.6a.78.78,0,0,1,0-.55C6.3.56,7.29.73,8.13.43a13.78,13.78,0,0,0,2.15-.9l.6-.85v-.2A16.9,16.9,0,0,0,8.78-2.32Z"/>
<rect fill="none" x="-12" y="-12" width="24" height="24"/>
</symbol>
<symbol id="sand" viewBox="-12 -12 24 24">
<path d="M-1.58,0.83c0.23,0.2,0.35,0.44,0.36,0.73c0.01,0.29-0.08,0.54-0.28,0.75c-0.2,0.21-0.46,0.32-0.78,0.33c-0.32,0.01-0.6-0.08-0.83-0.26C-3.36,2.19-3.49,1.95-3.5,1.67C-3.51,1.38-3.41,1.12-3.2,0.9c0.21-0.22,0.48-0.34,0.8-0.35C-2.08,0.54-1.81,0.64-1.58,0.83z"/>
<path d="M0.08-2.36c0.23,0.2,0.35,0.44,0.36,0.73c0.01,0.29-0.08,0.54-0.28,0.75c-0.2,0.21-0.46,0.32-0.78,0.33c-0.32,0.01-0.59-0.07-0.83-0.26s-0.37-0.42-0.38-0.71c-0.01-0.29,0.09-0.54,0.3-0.76c0.21-0.22,0.48-0.33,0.8-0.35C-0.42-2.65-0.14-2.56,0.08-2.36z"/>
<path d="M3.12,0.55c0.23,0.2,0.35,0.43,0.38,0.71c0.02,0.28-0.07,0.53-0.28,0.75C3,2.23,2.73,2.35,2.42,2.36C2.1,2.37,1.82,2.28,1.58,2.08C1.34,1.88,1.22,1.64,1.2,1.35c-0.01-0.29,0.09-0.54,0.3-0.75C1.72,0.4,1.99,0.29,2.3,0.28S2.89,0.36,3.12,0.55z"/>
<rect fill="none" x="-12" y="-12" width="24" height="24"/>
</symbol>
<symbol  id="scallops" viewBox="-12 -12 24 24">
<path d="M.05-3.74l.21,0A2.35,2.35,0,0,1,1.74-3a2,2,0,0,1,.59,1.55v0l0,0A9.59,9.59,0,0,1-.08,3.27l-.39.47-.27-.55A14.26,14.26,0,0,1-2.33-1.89v-.05l0-.05A2,2,0,0,1-1.44-3.3,2.42,2.42,0,0,1,.05-3.74ZM-.11-3A1.44,1.44,0,0,0-1.55-1.89,13.06,13.06,0,0,0-.29,2.33,8.6,8.6,0,0,0,1.55-1.54a1.41,1.41,0,0,0-.38-1A1.62,1.62,0,0,0,.18-3Z"/>
<rect fill="none" x="-12" y="-12" width="24" height="24"/>
</symbol>
<symbol  id="sink" viewBox="-12 -12 24 24">
<path d="M.72,9.41H.9c1.94,0,3.26-.54,3.94-1.51a3.61,3.61,0,0,0,.33-.69,2,2,0,0,0,.11-.54V6.46l.69,0a2.8,2.8,0,0,1-.58,1.78C4.58,9.39,3.1,10,.93,10H-.93q-3.25,0-4.46-1.8a2.74,2.74,0,0,1-.43-.83A2.37,2.37,0,0,1-6,6.67V6.43l.68,0A2.27,2.27,0,0,0-4.84,7.9c.68,1,2,1.47,3.93,1.48l.5,0ZM-1.46-10a.68.68,0,0,0,.16.41A2.77,2.77,0,0,0-.51-9l0,0a3.63,3.63,0,0,1,1,.7,1.15,1.15,0,0,1,.34.88c0,.58-.53,1.14-1.49,1.68-.68.42-1,.79-1,1.11s.3.61.84,1h0Q.61-2.86.46-1.78a3.51,3.51,0,0,1-1.55,2,.61.61,0,0,0-.26.41,1.67,1.67,0,0,0,.1.51,5.3,5.3,0,0,1,.32,1L.56,1.9.46,8.06-3.4,2.54l1.73-.28A6.16,6.16,0,0,0-2,1.39,1.7,1.7,0,0,1-2.09.58a1.21,1.21,0,0,1,.53-.82h0v0C-.75-.86-.33-1.38-.28-1.85s-.23-.87-.91-1.27h0C-2-3.6-2.37-4.1-2.4-4.61S-2-5.74-1.09-6.29C-.34-6.72.06-7.1.09-7.44a.67.67,0,0,0-.18-.43,3.17,3.17,0,0,0-.79-.58,2.93,2.93,0,0,1-1-.67A1.16,1.16,0,0,1-2.17-10Z"/>
<rect fill="none" x="-12" y="-12" width="24" height="24"/>
</symbol>
<symbol  id="spring" viewBox="-12 -12 24 24">
<path d="M-1.34-9.86,2.52-4.34.78-4.06a8,8,0,0,0,.29.87,1.4,1.4,0,0,1,.13.79,1.3,1.3,0,0,1-.52.84l0,0v0C-.13-.95-.55-.42-.61,0S-.37.91.31,1.3l0,0c.75.46,1.14,1,1.18,1.46S1.12,3.92.21,4.46C-.54,4.9-.94,5.29-1,5.64a.74.74,0,0,0,.18.43A3.2,3.2,0,0,0,0,6.62a3,3,0,0,1,1,.7,1.14,1.14,0,0,1,.31.86A1.74,1.74,0,0,1,.71,9.26H.92c1.92,0,3.22-.52,3.9-1.51a2.05,2.05,0,0,0,.35-.67,2.59,2.59,0,0,0,.1-.55l0-.19.65,0a2.84,2.84,0,0,1-.55,1.8C4.58,9.26,3.08,9.85.92,9.86H-.92c-2.17,0-3.66-.6-4.49-1.77a3.65,3.65,0,0,1-.4-.85A2.43,2.43,0,0,1-6,6.53V6.29l.66,0a2.08,2.08,0,0,0,.47,1.41c.68,1,2,1.5,3.91,1.51H-.4c.62-.43.94-.8,1-1.1a.76.76,0,0,0-.16-.43,3.25,3.25,0,0,0-.79-.51v0a3.8,3.8,0,0,1-1-.7,1.15,1.15,0,0,1-.34-.91q.06-.84,1.5-1.68c.68-.4,1-.77,1-1.1S.49,2.21,0,1.87c0,0,0,0,0,0C-1,1.32-1.44.69-1.34,0a3.58,3.58,0,0,1,1.55-2,.54.54,0,0,0,.23-.38A1.28,1.28,0,0,0,.37-3a4.57,4.57,0,0,1-.32-1l-1.49.24Z"/>
<rect fill="none" x="-12" y="-12" width="24" height="24"/>
</symbol>
<symbol  id="stalactite" viewBox="-12 -12 24 24">
<path d="M3.57-6.69l.52.53L.39-3V6.12H-.39V-3l-3.7-3.14.52-.53L0-3.67Z"/>
<rect fill="none" x="-12" y="-12" width="24" height="24"/>
</symbol>
<symbol  id="stalagmite" viewBox="-12 -12 24 24">
<path d="M.38-6.42V2.75L4.11,5.89l-.56.53L0,3.4l-3.57,3-.53-.53,3.7-3.14V-6.42Z"/>
<rect fill="none" x="-12" y="-12" width="24" height="24"/>
</symbol>
<symbol  id="stalagnate" viewBox="-12 -12 24 24">
<path d="M3.55-8.46l.56.53L.38-4.78v9L4.11,7.36l-.56.53L0,4.86l-3.57,3-.53-.53,3.7-3.14v-9l-3.7-3.15.53-.53L0-5.43Z"/>
<rect fill="none" x="-12" y="-12" width="24" height="24"/>
</symbol>
<symbol  id="straws" viewBox="-12 -12 24 24">
<path d="M-10.89-2.76H10.89V-2H9.63V.46H8.84V-2H8.29v5.6H7.5V-2H5.56V.7H4.77V-2H2.07V2.38H1.29V-2H-.1v3H-.89V-2H-3.2V4.11H-4V-2H-6.22L-6.16.75l-.79,0L-7-2H-8.32V2.33H-9.1V-2h-1.79Z"/>
<rect fill="none" x="-12" y="-12" width="24" height="24"/>
</symbol>
<symbol  id="water" viewBox="-12 -12 24 24">
<path d="M-1.72-9.86,2.11-4.32.38-4.06a6.49,6.49,0,0,0,.29.89,1.5,1.5,0,0,1,.13.79,1.2,1.2,0,0,1-.5.82h0l0,0C-.54-.94-1-.42-1,.05s.24.89.92,1.27h0c.77.48,1.17,1,1.19,1.49S.71,3.94-.2,4.49c-.75.43-1.13.81-1.15,1.15a.51.51,0,0,0,.18.43,2.66,2.66,0,0,0,.76.58,2.93,2.93,0,0,1,1,.67,1.16,1.16,0,0,1,.29.89C.84,8.75.42,9.3-.41,9.86l-.44-.55c.66-.45,1-.83,1-1.15A.47.47,0,0,0,0,7.75a2.84,2.84,0,0,0-.78-.53h0a3.87,3.87,0,0,1-1-.69,1.24,1.24,0,0,1-.34-.91c0-.58.54-1.14,1.52-1.68.66-.42,1-.79,1-1.11s-.3-.61-.84-1h0Q-1.9,1.06-1.74,0a3.44,3.44,0,0,1,1.54-2,.67.67,0,0,0,.27-.41A1.11,1.11,0,0,0,0-3a4.33,4.33,0,0,1-.31-1l-1.5.24Z"/>
<rect fill="none" x="-12" y="-12" width="24" height="24"/>
</symbol><symbol  id="tree" viewBox="-12 -12 24 24">
<path d="M7.4-5.04A4.271,4.271,0,0,0,7.7-6.627a4.3,4.3,0,0,0-4.3-4.3A4.279,4.279,0,0,0,.636-9.914,4.293,4.293,0,0,0-3.045-12a4.3,4.3,0,0,0-4.3,4.3,4.27,4.27,0,0,0,.421,1.845,4.3,4.3,0,0,0-3.645,4.244,4.3,4.3,0,0,0,4.3,4.3A4.282,4.282,0,0,0-3.946,2L-1.175,5.23h0L-1.612,12H.982L.757,6.376,4.119,2.827v0a4.272,4.272,0,0,0,2.15.58,4.3,4.3,0,0,0,4.3-4.3A4.3,4.3,0,0,0,7.4-5.04ZM-3.346,1.538h0A4.346,4.346,0,0,0-2.7.788a4.266,4.266,0,0,0,1.765.753l-.135,2.087ZM.69,4.7.563,1.544A4.258,4.258,0,0,0,2.321.805,4.3,4.3,0,0,0,3.378,2.279Z"/>
<rect fill="none" x="-12" y="-12" width="24" height="24"/>
</symbol><g>
<desc></desc>
<g>
<line fill="none" stroke="#dddddd" stroke-width="0.1mm" x1="0.00" y1="175.00" x2="464.00" y2="175.00" />
<text x="461.20" y="174.80" font-size=".2mm" fill="#000000">0m</text>
<line fill="none" stroke="#dddddd" stroke-width="0.1mm" x1="0.00" y1="125.00" x2="464.00" y2="125.00" />
<text x="461.20" y="124.80" font-size=".2mm" fill="#000000">5m</text>
<line fill="none" stroke="#dddddd" stroke-width="0.1mm" x1="0.00" y1="75.00" x2="464.00" y2="75.00" />
<text x="461.20" y="74.80" font-size=".2mm" fill="#000000">10m</text>
<line fill="none" stroke="#dddddd" stroke-width="0.1mm" x1="0.00" y1="25.00" x2="464.00" y2="25.00" />
<text x="461.20" y="24.80" font-size=".2mm" fill="#000000">15m</text>
<line fill="none" stroke="#dddddd" stroke-width="0.1mm" x1="0.00" y1="225.00" x2="464.00" y2="225.00" />
<text x="461.20" y="224.80" font-size=".2mm" fill="#000000">-5m</text>
<line fill="none" stroke="#dddddd" stroke-width="0.1mm" x1="0.00" y1="275.00" x2="464.00" y2="275.00" />
<text x="461.20" y="274.80" font-size=".2mm" fill="#000000">-10m</text>
<line fill="none" stroke="#dddddd" stroke-width="0.1mm" x1="0.00" y1="325.00" x2="464.00" y2="325.00" />
<text x="461.20" y="324.80" font-size=".2mm" fill="#000000">-15m</text>
</g>
<g>
<path fill="none" stroke="#924216" stroke-width="0.02mm" d="M88.690475,174.86174 L86.000275,177.8345" /><path fill="none" stroke="#924216" stroke-width="0.02mm" d="M81.42248,183.43817 C84.169685,182.14917 82.25101,184.6936 81.197105,185.10022 C80.935265,185.20125 80.73634,185.0914 80.702194,184.81108 C80.592865,183.91376 81.10408,183.12933 81.62412,182.45387 C81.99909,181.96686 82.64507,181.23146 83.37677,181.4595 C83.43886,181.47885 83.49023,181.52591 83.5363,181.5718 C83.94435,181.9781 84.336716,182.39986 84.73693,182.81389 L84.73693,182.81389" /><path fill="none" stroke="#924216" stroke-width="0.02mm" d="M85.79219,183.25981 C86.806175,182.1863 87.21818,181.97308 88.65988,181.82474 C89.01767,181.78792 89.287224,181.87454 89.584946,181.7184 C90.11537,181.44019 90.34741,180.40701 89.545425,180.36249 C89.24788,180.34596 88.95089,180.39459 88.6701,180.49399 C88.50396,180.5528 88.35305,180.6483 88.19098,180.71753 C88.127914,180.74448 88.0636,180.77287 87.99565,180.78209 C87.47574,180.85251 86.95275,180.89796 86.431305,180.9559 L86.431305,180.9559" /><path fill="none" stroke="#924216" stroke-width="0.02mm" d="M89.73089,181.31265 C90.57332,181.60712 91.47011,181.76898 92.191246,181.0956 C92.40533,180.8957 92.18827,180.5695 91.92542,180.58412 C91.29393,180.61925 90.67048,180.7428 90.043015,180.82214 L90.043015,180.82214" /><path fill="none" stroke="#924216" stroke-width="0.02mm" d="M80.78337,182.02611 C80.08966,182.10501 78.84838,183.32967 77.810234,183.20082 C77.47664,183.15941 77.2372,182.9591 76.93132,182.84674 C76.227036,182.58798 74.31218,183.08951 74.2274,183.62146 C74.19768,183.80798 74.44513,184.00505 74.54387,184.08455 C74.81686,184.30435 76.6573,186.13353 77.73713,186.30971 C78.09711,186.36844 78.29227,186.09476 78.5937,186.09134 C79.04199,186.08626 79.488686,186.14586 79.93619,186.17313 L79.93619,186.17313" /><path fill="none" stroke="#924216" stroke-width="0.02mm" d="M84.12754,184.24081 L82.12104,185.37047" /><path fill="none" stroke="#924216" stroke-width="0.02mm" d="M88.25945,180.40596 C88.76922,180.47073 89.27611,180.565 89.78876,180.60027 C90.020386,180.6162 90.25389,180.5895 90.48404,180.55898 C90.95099,180.49706 91.34554,180.2731 91.75084,180.5931 C92.16668,180.92142 92.461075,181.7136 92.32656,182.23424 C92.00443,183.48102 91.72839,185.26035 90.2066,185.59923 C89.54071,185.74751 88.47743,185.00897 88.14055,184.85025 L88.14055,184.85025" /><path fill="none" stroke="#924216" stroke-width="0.02mm" d="M87.605484,183.9287 C89.52809,183.6335 89.50609,183.40201 90.711845,181.89233 L90.711845,181.89233" /><path fill="none" stroke="#924216" stroke-width="0.02mm" d="M88.97288,180.07895 C83.609375,181.0411 88.966736,180.16202 85.86809,180.51985 C85.40114,180.57378 85.009094,180.9341 84.75623,181.30136 C83.90866,182.53242 84.310555,183.35945 85.807785,183.28517 C85.92647,183.27928 86.683914,183.13766 86.70759,182.98709 C86.78288,182.5081 86.77112,182.01944 86.80288,181.53561 L86.80288,181.53561" /><path fill="none" stroke="#000000" stroke-width="0.06mm" d="M78.98495,172.32002 C79.80667,171.93747 80.663414,171.62256 81.4501,171.17235 C82.13436,170.78075 82.76927,170.30359 83.37987,169.80484 C85.99694,167.66718 88.46446,165.34715 91.127815,163.26743 C92.221954,162.41306 93.49755,161.81714 94.632614,161.01794 C100.90844,156.59915 91.868225,162.12161 101.686676,155.64078 C102.669,154.99237 103.79622,154.59003 104.802765,153.97989 C105.70938,153.43033 107.775536,152.24509 108.74202,151.09143 C108.95192,150.84087 109.13927,150.56967 109.29977,150.28491 C110.055626,148.94377 110.550186,147.4385 111.48862,146.21811 C113.40004,143.73242 115.78671,141.64627 117.79462,139.23782 C125.93443,129.47426 114.48582,141.32788 124.61697,131.79588 C124.891556,131.53754 125.1024,131.21384 125.28966,130.8866 C125.93342,129.7616 126.47599,128.58115 127.10506,127.44787 C127.4093,126.899765 127.79353,126.5756 128.32864,126.28426 C128.56091,126.15781 128.83136,126.088524 129.03073,125.914764 C130.09013,124.991455 131.14957,124.057594 132.08589,123.00969 C133.23701,121.72139 134.18927,120.26784 135.27625,118.92499 C135.47437,118.68024 135.98221,118.22906 136.3012,118.1028 C137.14835,117.76749 138.02225,117.504196 138.88277,117.204895 L138.88277,117.204895" /><path fill="none" stroke="#000000" stroke-width="0.06mm" d="M80.06995,181.92206 C81.40047,181.83257 82.73529,181.79301 84.0615,181.65356 C84.39397,181.6186 84.719604,181.51962 85.0319,181.40033 C86.21406,180.94876 87.43785,180.56952 88.53776,179.94371 C90.39914,178.88466 93.078125,177.1568 94.686066,175.3283 C95.2337,174.70554 95.69455,174.01147 96.20596,173.35863 C98.01063,171.05489 99.7203,168.6724 101.634254,166.45862 C103.09864,164.76485 104.66945,163.15791 106.32677,161.6524 C107.584984,160.50946 108.97235,159.51358 110.36017,158.53204 C110.583954,158.37376 112.45026,157.51604 112.88345,156.93356 C115.62023,153.25366 117.620895,149.59256 120.88306,146.3308 C124.57887,142.63542 128.79713,139.47685 132.3944,135.68547 C133.72665,134.2813 134.53593,132.46039 135.58603,130.83435 C136.48972,129.435 136.37256,129.2868 137.35828,128.29654 C138.23244,127.418365 140.56221,127.19559 141.2207,127.00183 C141.90343,126.80095 142.5653,126.53498 143.23761,126.30156 L143.23761,126.30156" /><path fill="none" stroke="#000000" stroke-width="0.06mm" d="M146.41385,124.945015 C143.61443,125.680725 144.84962,125.136765 142.6535,126.44626 L142.6535,126.44626" /><path fill="none" stroke="#000000" stroke-width="0.06mm" d="M171.2796,108.29751 C167.49374,110.85684 171.89279,107.79076 168.44443,110.47514 C168.22385,110.64685 168.00224,110.865616 167.72586,110.90751 C167.60454,110.9259 167.84775,110.68626 167.85829,110.563995 C167.8689,110.44083 167.81064,110.32138 167.78682,110.20008 L167.78682,110.20008" /><path fill="none" stroke="#000000" stroke-width="0.06mm" d="M167.87599,110.12577 L169.52577,110.08118" /><path fill="none" stroke="#000000" stroke-width="0.06mm" d="M170.0757,110.15549 L170.13716,110.21695" /><path fill="none" stroke="#000000" stroke-width="0.06mm" d="M171.17557,112.10266 C170.63564,112.100525 170.0946,112.06159 169.55579,112.09625 C168.8074,112.14438 167.2685,112.691574 166.8536,112.96632 C160.81711,116.96395 154.97298,121.24539 148.98218,125.311195 C148.68716,125.511406 148.34268,125.6293 148.00923,125.75552 C146.99011,126.14132 146.99142,125.73406 145.64098,125.18283 L145.64098,125.18283" /><path fill="none" stroke="#000000" stroke-width="0.06mm" d="M140.5727,116.63612 C147.92316,112.47693 155.13208,107.759796 161.09846,101.757416 L161.09846,101.757416" /><path fill="none" stroke="#000000" stroke-width="0.06mm" d="M162.31723,99.66162 C162.9899,98.45121 163.64264,97.88662 165.03374,97.69189 C165.27637,97.65792 165.53632,97.68637 165.75111,97.81003 C166.22296,98.08165 166.41806,98.78966 166.58388,99.20127 C166.70842,99.51048 166.826,99.85313 166.78389,100.19391 C166.71645,100.73943 166.23286,101.18527 165.84642,101.50257 C165.46039,101.81953 165.03989,102.093666 164.61555,102.35713 C164.03578,102.717094 163.55157,102.87881 162.89545,102.71606 C162.8261,102.69886 162.75839,102.671555 162.697,102.63498 C162.2379,102.36145 161.78984,102.06976 161.33627,101.78714 L161.33627,101.78714" /><path fill="none" stroke="#000000" stroke-width="0.06mm" d="M161.96053,101.56419 L161.85849,101.8932" /><path fill="none" stroke="#000000" stroke-width="0.06mm" d="M162.73338,99.45352 C162.0334,101.90207 161.44727,101.27333 162.2132,101.98038 L162.2132,101.98038" /><path fill="none" stroke="#000000" stroke-width="0.06mm" d="M167.66791,99.33461 C167.97786,99.58884 168.27094,99.86513 168.59775,100.0973 C169.81862,100.964615 171.63234,100.8784 172.98323,100.89227 C173.34555,100.89599 173.71814,100.8763 174.0626,100.76392 C174.42659,100.64517 174.734,100.39569 175.06967,100.21158 L175.06967,100.21158" /><path fill="none" stroke="#924216" stroke-width="0.02mm" d="M171.62146,109.471756 C167.55527,110.23195 168.09047,109.83184 165.32428,111.03094 C165.09218,111.131546 164.84196,111.292816 164.66351,111.481125 C164.34149,111.82092 164.29564,112.222916 164.0881,112.63648 C163.99774,112.81654 163.87454,112.97841 163.75838,113.143005 C163.60107,113.36589 163.3534,113.5392 163.26813,113.79834 C163.24088,113.881134 163.42487,113.91464 163.51024,113.89711 C163.8098,113.835594 166.49106,113.39239 167.5598,112.7745 C167.732,112.674934 167.89122,112.55366 168.04715,112.430145 C168.60486,111.98837 169.12791,111.50267 169.69975,111.079346 C169.88608,110.94142 170.10516,110.85396 170.31355,110.75238 C170.42566,110.69773 170.56598,110.693115 170.66006,110.61124 C171.06265,110.26083 171.40997,109.851585 171.78494,109.471756 L171.78494,109.471756" /><path fill="none" stroke="#924216" stroke-width="0.02mm" d="M160.35532,115.268654 C159.2239,116.09395 158.06757,116.88611 156.96107,117.74453 C156.60342,118.022 156.28546,118.34816 155.96887,118.67169 C155.91289,118.7289 155.87675,118.80483 155.8498,118.88018 C155.60518,119.56353 156.71468,119.89546 157.19269,119.815155 C157.52374,119.75955 157.84244,119.64259 158.13368,119.475555 C159.10799,118.9167 159.40857,117.69864 160.32277,117.07165 C160.49121,116.95612 160.67366,116.86184 160.85583,116.76947 C161.62192,116.381 162.42365,116.06023 163.1668,115.62952 C163.66873,115.33861 164.13023,114.97992 164.57864,114.61183 C164.7486,114.472336 164.94933,114.3254 165.01218,114.1147 C165.03828,114.027176 164.84132,114.05001 164.75589,114.01766 C164.2372,114.05829 163.71938,114.112015 163.19984,114.139534 C162.50423,114.17637 161.9636,114.081665 161.31471,114.29847 C160.72717,114.494774 160.15987,114.747086 159.58243,114.97139 L159.58243,114.97139" /><path fill="none" stroke="#000000" stroke-width="0.06mm" d="M179.99217,108.440125 C178.42406,107.90956 176.8877,107.70761 175.34102,108.392006 C174.87582,108.59785 173.92264,109.104454 173.55571,109.56307 C170.28424,113.65205 172.60677,111.955696 169.42009,113.850555 L169.42009,113.850555" /><path fill="none" stroke="#000000" stroke-width="0.06mm" d="M191.67274,114.18147 L191.65845,114.01825" /><path fill="none" stroke="#000000" stroke-width="0.06mm" d="M179.06567,108.82068 C179.8269,109.11462 180.58809,109.40855 181.34932,109.702484 C181.8351,109.887505 182.34056,110.02742 182.80669,110.25754 C184.63403,111.15973 185.72296,111.94232 187.12405,113.54399 C191.31335,118.33298 188.30507,116.22097 191.06058,117.986984 L191.06058,117.986984" /><path fill="none" stroke="#000000" stroke-width="0.06mm" d="M193.96574,89.53078 C197.24695,89.6264 200.31288,90.286514 202.92998,92.35077 C203.80368,93.039925 204.45654,94.08459 205.10034,94.94121 L205.10034,94.94121" /><path fill="none" stroke="#000000" stroke-width="0.06mm" d="M177.80154,98.66399 L177.00963,99.708595" /><path fill="none" stroke="#000000" stroke-width="0.06mm" d="M177.12321,98.29998 C178.38292,96.41909 177.58527,97.43812 179.6711,95.3714 L179.6711,95.3714" /><path fill="none" stroke="#000000" stroke-width="0.06mm" d="M192.758,88.76967 C191.68439,88.349754 190.58961,87.98028 189.53712,87.50991 C189.19951,87.359024 188.9107,87.11658 188.60237,86.91245 C187.4274,86.134605 186.20508,85.42213 185.08734,84.564095 C184.51138,84.12196 184.05748,83.54025 183.54256,83.02832 L183.54256,83.02832" /><path fill="none" stroke="#000000" stroke-width="0.06mm" d="M178.84386,95.18938 C178.49706,92.85366 177.22849,90.78277 175.74324,88.99214 C175.38455,88.559715 174.96463,88.18199 174.57533,87.77692 L174.57533,87.77692" /><path fill="none" stroke="#000000" stroke-width="0.06mm" d="M258.2141,63.128426 L257.88016,61.570015" /><path fill="none" stroke="#000000" stroke-width="0.06mm" d="M162.14926,7.248291 L161.37228,6.3600006" /><path fill="none" stroke="#000000" stroke-width="0.06mm" d="M153.24405,6.135132 L141.22205,6.9143524" /><path fill="none" stroke="#000000" stroke-width="0.06mm" d="M158.25323,3.908844 L158.36455,5.912506" /><path fill="none" stroke="#000000" stroke-width="0.06mm" d="M156.13824,6.023834 L156.14047,6.026062" /><path fill="none" stroke="#000000" stroke-width="0.06mm" d="M158.69849,6.8030396 L159.3686,7.139206" /><path fill="none" stroke="#000000" stroke-width="0.06mm" d="M166.37923,6.9143524 L166.38145,6.91658" /><path fill="none" stroke="#000000" stroke-width="0.06mm" d="M167.49237,7.136978 L167.4946,7.139206" /><path fill="none" stroke="#000000" stroke-width="0.06mm" d="M174.2826,3.3522644 L174.2848,3.3544922" /><path fill="none" stroke="#000000" stroke-width="0.06mm" d="M194.09666,-9.226318 L194.09889,-9.224091" /><path fill="none" stroke="#000000" stroke-width="0.06mm" d="M204.56027,-18.465454 C205.05873,-19.51236 206.47224,-21.389893 205.44273,-22.666107 C204.76501,-23.50624 203.63248,-23.943909 202.77924,-24.476486 L202.77924,-24.476486" /><path fill="none" stroke="#000000" stroke-width="0.06mm" d="M204.03491,94.34917 C203.9238,95.99329 204.03336,96.22188 203.54797,97.64563 C203.23723,98.55716 202.82361,99.43204 202.52547,100.34777 C202.22217,101.27927 202.20474,102.1652 202.90848,102.89013 C203.0502,103.03612 203.18617,103.2019 203.36946,103.29017 C204.99413,104.07251 206.65271,104.78309 208.31088,105.49162 C210.49042,106.42294 212.74954,107.17386 214.88158,108.20928 C217.40887,109.436646 220.86043,111.56519 222.73984,113.81241 C224.14429,115.491714 225.32031,117.358734 226.42381,119.249466 C226.82526,119.93732 227.59337,121.96352 227.70354,123.07897 C227.73344,123.38169 227.6759,123.68673 227.66208,123.9906 L227.66208,123.9906" /><path fill="none" stroke="#000000" stroke-width="0.06mm" d="M194.30606,123.476944 C194.69536,124.58421 194.41815,124.09668 195.10674,124.957504 L195.10674,124.957504" /><path fill="none" stroke="#000000" stroke-width="0.06mm" d="M225.9097,121.43739 L225.33768,122.10417" /><path fill="none" stroke="#000000" stroke-width="0.06mm" d="M225.51694,122.177666 L225.74556,122.1797" /><path fill="none" stroke="#000000" stroke-width="0.06mm" d="M227.07294,129.5956 C226.26608,132.17635 226.07773,133.06464 224.50949,135.90689 C223.8913,137.02728 223.10788,138.05084 222.33249,139.0688 C222.04538,139.44576 221.71974,139.80629 221.33192,140.07855 C220.92621,140.36339 220.43585,140.50278 219.9878,140.7149 L219.9878,140.7149" /><path fill="none" stroke="#000000" stroke-width="0.06mm" d="M190.77106,119.77554 C194.29323,123.96291 195.68114,125.28335 196.77568,130.79614 C197.2148,133.00772 197.2547,135.28078 197.55974,137.51479 C197.59601,137.78055 197.6814,138.04185 197.79807,138.28339 C198.08417,138.87566 198.44109,139.43103 198.7626,140.00485 L198.7626,140.00485" /><path fill="none" stroke="#000000" stroke-width="0.06mm" d="M231.82426,129.36372 C233.52756,131.37856 235.04535,133.56613 236.93413,135.40823 C238.52084,136.95572 240.5494,137.99014 242.19345,139.4766 C246.55261,143.41798 243.36806,141.26994 246.1975,144.66241 C247.40019,146.10445 248.84718,147.33212 250.03435,148.78696 C250.47961,149.33264 250.75052,150.00111 251.06723,150.63019 C251.43365,151.35805 251.62178,152.35161 252.36838,152.8513 C256.60193,155.68488 250.11984,151.1159 255.6619,154.52141 C258.5688,156.30766 259.84756,157.66376 262.0444,160.51268 C266.7254,166.58311 262.44824,161.94627 266.53046,169.03554 C269.00998,173.3415 271.6965,175.09477 275.00714,178.99278 C276.057,180.2289 276.88754,181.63582 277.84784,182.94273 C278.13177,183.3292 278.4596,183.68242 278.73926,184.072 C278.91638,184.31877 279.02295,184.61404 279.21588,184.84866 C279.57297,185.28291 279.99252,185.66177 280.3809,186.06833 L280.3809,186.06833" /><path fill="none" stroke="#000000" stroke-width="0.06mm" d="M202.88904,143.91985 C204.77922,144.72769 206.69342,145.48148 208.55954,146.34338 C208.83635,146.47124 209.07324,146.67665 209.29976,146.88075 C211.39886,148.77203 212.33841,149.5529 213.7271,152.01772 C216.33267,156.64247 215.23245,156.17366 217.80557,159.19656 C218.09277,159.53394 218.40274,159.86855 218.78058,160.09996 C221.26732,161.623 223.92764,162.85701 226.37387,164.44435 C230.11192,166.87001 233.50684,169.81158 237.31439,172.12666 C245.76892,177.26721 243.34766,173.59 249.24634,179.09479 C254.86719,184.3403 252.77748,184.3406 257.88208,192.66443 C260.21884,196.47487 263.70422,197.68906 267.34558,199.94331 C268.01697,200.35895 268.61847,200.87807 269.25494,201.34546 L269.25494,201.34546" /><path fill="none" stroke="#000000" stroke-width="0.06mm" d="M199.4597,141.8933 C199.10704,145.13602 200.6624,147.99458 200.5307,151.20828 C200.49791,152.00783 200.39757,152.80855 200.21936,153.58867 C198.65205,160.44939 198.98073,159.28537 197.17996,163.85416 L197.17996,163.85416" /><path fill="none" stroke="#000000" stroke-width="0.06mm" d="M210.19594,148.40166 C207.36923,151.99712 205.38908,153.9112 203.78601,158.2468 C203.1205,160.0467 202.76427,161.9562 202.484,163.85463 C202.40262,164.40588 202.63712,164.95853 202.7137,165.51047 L202.7137,165.51047" /><path fill="none" stroke="#000000" stroke-width="0.06mm" stroke-dasharray="0.3mm,0.1mm" d="M196.69283,168.8426 C196.88028,172.34946 195.91606,171.62148 197.21893,172.42804 L197.21893,172.42804" /><path fill="none" stroke="#000000" stroke-width="0.06mm" stroke-dasharray="0.3mm,0.1mm" d="M203.66849,170.5379 C203.77402,170.8476 204.26208,172.79797 204.85233,173.2382 C205.00458,173.35176 205.23218,173.24371 205.42212,173.24648 L205.42212,173.24648" /><path fill="none" stroke="#000000" stroke-width="0.06mm" stroke-dasharray="0.3mm,0.1mm" d="M197.68658,175.50687 C197.91428,178.91643 196.85616,178.47826 198.52441,178.83899 L198.52441,178.83899" /><path fill="none" stroke="#000000" stroke-width="0.06mm" stroke-dasharray="0.3mm,0.1mm" d="M205.12985,176.4422 C205.14482,177.49493 205.15984,178.54768 205.17484,179.60042 C205.21828,179.6934 205.21577,179.82895 205.30519,179.87936 C205.40704,179.93681 205.53902,179.87428 205.65594,179.87173 L205.65594,179.87173" /><path fill="none" stroke="#000000" stroke-width="0.06mm" d="M280.18988,183.35712 C280.2709,183.82104 280.31934,184.29187 280.43292,184.7489 C280.4967,185.00548 280.5734,185.26814 280.71964,185.4884 C282.09286,187.55685 283.52145,189.58888 284.9801,191.59804 C287.99014,195.7441 287.7365,195.90576 290.54938,198.07233 L290.54938,198.07233" /><path fill="none" stroke="#000000" stroke-width="0.06mm" d="M268.9832,200.97078 C271.3363,202.00456 274.87512,203.13998 277.24524,204.91379 C278.20886,205.63498 279.1022,206.44632 280.0565,207.17981 C280.66586,207.64816 281.34732,208.02158 281.93417,208.51782 C284.49292,210.68158 282.85776,210.16394 284.61908,210.57281 L284.61908,210.57281" /><path fill="none" stroke="#000000" stroke-width="0.06mm" d="M293.81003,195.00444 C293.5091,194.92517 293.21262,194.8263 292.9072,194.76663 C291.59848,194.51099 289.84003,195.50581 289.81927,196.94516 C289.81387,197.32028 289.85236,197.7785 290.16254,198.04088 C290.3992,198.24109 290.88544,198.31932 291.11624,198.38683 L291.11624,198.38683" /><path fill="none" stroke="#000000" stroke-width="0.06mm" d="M291.7647,198.756 C292.11472,198.8429 292.4717,198.90541 292.81476,199.01671 C293.81055,199.3398 295.8907,201.15636 296.3541,201.49228 C297.4626,202.29584 298.61536,203.03716 299.72308,203.84178 C301.17587,204.89706 302.55835,206.04893 304.03455,207.07123 C306.04645,208.46448 305.69623,207.71066 308.00372,209.00082 C308.84097,209.46893 309.64517,210.00511 310.38855,210.61136 C311.30786,211.36108 312.11758,212.23596 312.97534,213.0554 C313.73724,213.78326 314.42386,214.5958 315.2473,215.2532 C323.95645,222.2063 320.49237,218.287 323.24207,221.48483 L323.24207,221.48483" /><path fill="none" stroke="#000000" stroke-width="0.06mm" d="M289.4301,211.13812 C290.3908,211.63818 291.3647,212.11365 292.31216,212.63832 C295.80328,214.57158 298.25153,216.33105 302.00836,217.59259 C303.2813,218.02002 304.67383,218.0144 305.9451,218.4467 C310.7039,220.06493 309.5246,219.89297 311.97894,221.20813 C312.63544,221.5599 312.58533,221.41287 313.17706,221.95387 C313.67456,222.40875 314.05963,223.00684 314.45233,223.54022 L314.45233,223.54022" /><path fill="none" stroke="#26B8EE" stroke-width="0.06mm" d="M73.48851,247.84875 C73.03606,247.39899 72.57286,246.92627 71.89726,246.90024 C71.843056,246.89816 71.788086,246.9129 71.73801,246.93375 C71.36755,247.08798 71.00509,247.26076 70.638626,247.42426 L70.638626,247.42426" /><path fill="none" stroke="#000000" stroke-width="0.06mm" d="M74.191895,248.47939 C72.1537,248.14316 72.61023,248.03435 70.65845,246.66655 C70.28053,246.4017 70.123215,247.15584 70.12146,247.36273 C70.11497,248.1276 70.73457,248.77634 71.3409,249.15128 C73.56506,250.5267 79.8451,250.08391 80.45324,250.10588 C81.27188,250.13544 81.70467,249.85892 81.72985,249.0381 C81.734024,248.90195 81.73338,248.76266 81.70029,248.63052 C81.613144,248.28262 81.48087,247.94763 81.37117,247.60617 L81.37117,247.60617" /><path fill="none" stroke="#000000" stroke-width="0.06mm" stroke-dasharray="0.3mm,0.1mm" d="M70.92969,177.68904 C70.1387,177.90343 69.34871,178.12155 68.55672,178.33223 C68.247604,178.41446 67.930954,178.46979 67.62645,178.56773 C67.44716,178.6254 67.21764,178.64276 67.11026,178.79749 C67.048645,178.88626 67.32201,178.85345 67.43004,178.85074 C68.059265,178.83484 68.936844,178.90536 69.52468,178.50336 C69.67176,178.40277 69.79787,178.27324 69.946686,178.17526 C70.10012,178.07425 70.49043,177.93019 70.650696,177.92459 C72.10924,177.87355 73.569336,177.88882 75.02866,177.87096 L75.02866,177.87096" /><path fill="none" stroke="#000000" stroke-width="0.06mm" stroke-dasharray="0.3mm,0.1mm" d="M101.63565,245.16847 L101.63728,246.05545" /><path fill="none" stroke="#000000" stroke-width="0.06mm" stroke-dasharray="0.3mm,0.1mm" d="M84.863785,178.22267 C84.80757,178.21918 84.07267,178.06668 83.78386,178.21255 C83.30101,178.45644 83.63812,179.58855 83.65242,179.87393 C83.66095,180.04399 83.40856,179.61778 83.43169,179.41946 C83.45328,179.23436 83.5903,179.005 83.7365,178.89879 C84.75434,178.15927 85.78264,177.43338 86.831,176.73782 C86.96263,176.6505 87.11671,176.59949 87.268425,176.55547 C87.45738,176.50064 87.651436,176.45467 87.84783,176.44278 C90.04725,176.30965 92.25267,176.28036 94.450325,176.12076 C94.80346,176.09512 95.159195,176.02255 95.4867,175.88802 C95.805305,175.75716 96.06912,175.52016 96.36034,175.33623 L96.36034,175.33623" /><path fill="none" stroke="#000000" stroke-width="0.06mm" stroke-dasharray="0.3mm,0.1mm" d="M82.60814,244.16188 C81.46997,244.4176 80.67836,244.78445 79.8587,245.60303 C79.62114,245.84027 79.386246,246.08707 79.20685,246.37088 C78.871185,246.90186 78.387924,247.40988 78.321625,248.03458 C78.286026,248.37 78.7377,248.56558 78.94574,248.83112 L78.94574,248.83112" /><path fill="none" stroke="#000000" stroke-width="0.06mm" d="M97.415405,173.28662 C96.31007,173.89734 96.93117,173.45328 95.75398,174.86324 L95.75398,174.86324" /><path fill="none" stroke="#000000" stroke-width="0.06mm" d="M95.972275,175.4575 C104.67902,173.70331 102.61316,175.19241 108.695595,170.07706 C111.24714,167.93118 112.11679,166.386 115.26163,165.3679 C117.805695,164.5443 118.30705,164.32031 120.613464,164.3172 C120.85801,164.31688 121.11111,164.33273 121.340034,164.41872 C123.2482,165.1354 125.13298,165.91444 127.00611,166.71825 C128.15958,167.21323 129.10046,168.03592 130.43582,167.80003 C131.14035,167.67557 132.0502,167.20567 132.54985,166.8872 C133.43558,166.32268 134.83395,165.27832 135.45645,164.29819 C137.4713,161.12581 139.98848,157.29962 140.81046,153.4557 C141.51518,150.1601 141.40758,146.71048 142.25891,143.44968 C143.24887,139.65796 145.01292,136.11111 146.30478,132.41136 C147.54532,128.8587 147.40292,129.53513 147.6461,127.23711 L147.6461,127.23711" /><path fill="none" stroke="#000000" stroke-width="0.06mm" d="M120.493385,155.17972 C119.93913,154.98857 119.64868,154.97598 119.25388,154.665 C118.99791,154.46335 118.93942,154.13664 118.70665,153.92584 C118.372375,153.62311 117.65366,153.71118 117.52335,154.18709 C117.50662,154.24823 117.49701,154.3121 117.49733,154.3755 C117.49974,154.84164 117.57293,155.30922 117.53158,155.77353 C117.50375,156.08598 117.371735,156.38022 117.29181,156.68356 L117.29181,156.68356" /><path fill="none" stroke="#000000" stroke-width="0.06mm" d="M117.15842,157.3021 C119.30251,153.90268 121.13638,151.90518 122.1895,148.39424 C122.42435,147.61131 122.54608,146.79836 122.691895,145.99406 C123.0121,144.22797 122.63295,145.3286 123.04009,144.27676 L123.04009,144.27676" /><path fill="none" stroke="#000000" stroke-width="0.06mm" d="M123.63432,156.85336 C123.827255,155.30641 123.75228,154.91792 124.23035,153.65616 C124.663605,152.51266 125.24626,151.42337 125.59842,150.25237 C126.05431,148.73643 126.07938,147.09831 126.64694,145.62056 C127.51197,143.36832 128.69037,141.24463 129.86703,139.13837 C130.239,138.47256 130.81836,137.94577 131.27557,137.33536 C131.41321,137.1516 131.52544,136.9501 131.65038,136.75748 L131.65038,136.75748" /><path fill="none" stroke="#000000" stroke-width="0.06mm" d="M117.461586,156.61081 C116.780235,156.95155 116.134224,157.37482 115.41751,157.63307 C114.01126,158.13977 112.52175,158.39163 111.11522,158.89752 C108.76883,159.74144 108.329926,160.16994 106.438,161.42557 L106.438,161.42557" /><path fill="none" stroke="#000000" stroke-width="0.06mm" stroke-dasharray="0.3mm,0.1mm" d="M107.16564,160.0066 C105.963165,160.89903 106.12537,160.87938 104.5584,161.52446 C104.28792,161.63582 104.00473,161.72838 103.71454,161.76521 C102.127045,161.96674 100.50979,161.94199 98.93719,162.23807 C97.53784,162.50153 96.17504,162.9496 94.836975,163.43658 C93.23385,164.02005 90.92511,165.46078 88.91681,165.68979 C88.58586,165.72752 88.25215,165.64447 87.91983,165.62181 L87.91983,165.62181" /><path fill="none" stroke="#000000" stroke-width="0.06mm" d="M124.43471,157.26572 C126.58721,155.77768 127.264984,155.41432 129.48198,152.75534 C131.34138,150.52525 132.86084,148.03139 134.61879,145.72049 C135.70113,144.2977 136.38687,144.21568 137.17348,142.447 C144.66058,125.61213 140.31467,135.57994 142.4704,128.86353 C143.16061,126.71311 142.56424,129.16199 143.12267,126.582214 L143.12267,126.582214" /><use xlink:href="#water" width="3.6" height="3.6" x="-1.8" y="-1.8" transform="translate(202.24608 167.34218) rotate(232)"/>
</g>
<g>
<line fill="none" stroke="#111111" stroke-width="0.04mm" x1="20.00" y1="175.00" x2="60.64" y2="176.97" />
<line fill="none" stroke="#00aeef" stroke-width="0.04mm" stroke-dasharray="0.4,0.2" x1="60.64" y1="176.97" x2="34.25" y2="168.02" />
<line fill="none" stroke="#00aeef" stroke-width="0.04mm" stroke-dasharray="0.4,0.2" x1="60.64" y1="176.97" x2="43.00" y2="167.72" />
<line fill="none" stroke="#00aeef" stroke-width="0.04mm" stroke-dasharray="0.4,0.2" x1="60.64" y1="176.97" x2="50.48" y2="170.53" />
<line fill="none" stroke="#111111" stroke-width="0.04mm" x1="60.64" y1="176.97" x2="92.99" y2="172.04" />
<line fill="none" stroke="#00aeef" stroke-width="0.04mm" stroke-dasharray="0.4,0.2" x1="92.99" y1="172.04" x2="76.23" y2="172.75" />
<line fill="none" stroke="#5674b9" stroke-width="0.04mm" stroke-dasharray="0.4,0.2" x1="92.99" y1="172.04" x2="81.84" y2="173.43" />
<line fill="none" stroke="#00aeef" stroke-width="0.04mm" stroke-dasharray="0.4,0.2" x1="92.99" y1="172.04" x2="84.59" y2="170.07" />
<line fill="none" stroke="#00aeef" stroke-width="0.04mm" stroke-dasharray="0.4,0.2" x1="92.99" y1="172.04" x2="80.11" y2="181.80" />
<line fill="none" stroke="#00aeef" stroke-width="0.04mm" stroke-dasharray="0.4,0.2" x1="92.99" y1="172.04" x2="89.77" y2="179.02" />
<line fill="none" stroke="#00aeef" stroke-width="0.04mm" stroke-dasharray="0.4,0.2" x1="92.99" y1="172.04" x2="93.94" y2="165.52" />
<line fill="none" stroke="#111111" stroke-width="0.04mm" x1="92.99" y1="172.04" x2="137.04" y2="127.52" />
<line fill="none" stroke="#00aeef" stroke-width="0.04mm" stroke-dasharray="0.4,0.2" x1="137.04" y1="127.52" x2="131.42" y2="126.06" />
<line fill="none" stroke="#5674b9" stroke-width="0.04mm" stroke-dasharray="0.4,0.2" x1="137.04" y1="127.52" x2="127.91" y2="125.83" />
<line fill="none" stroke="#00aeef" stroke-width="0.04mm" stroke-dasharray="0.4,0.2" x1="137.04" y1="127.52" x2="142.26" y2="125.38" />
<line fill="none" stroke="#5674b9" stroke-width="0.04mm" stroke-dasharray="0.4,0.2" x1="137.04" y1="127.52" x2="138.11" y2="118.07" />
<line fill="none" stroke="#00aeef" stroke-width="0.04mm" stroke-dasharray="0.4,0.2" x1="137.04" y1="127.52" x2="153.38" y2="120.71" />
<line fill="none" stroke="#111111" stroke-width="0.04mm" x1="137.04" y1="127.52" x2="171.84" y2="102.43" />
<line fill="none" stroke="#5674b9" stroke-width="0.04mm" stroke-dasharray="0.4,0.2" x1="171.84" y1="102.43" x2="167.05" y2="102.14" />
<line fill="none" stroke="#5674b9" stroke-width="0.04mm" stroke-dasharray="0.4,0.2" x1="171.84" y1="102.43" x2="170.03" y2="100.54" />
<line fill="none" stroke="#5674b9" stroke-width="0.04mm" stroke-dasharray="0.4,0.2" x1="171.84" y1="102.43" x2="169.89" y2="110.04" />
<line fill="none" stroke="#00aeef" stroke-width="0.04mm" stroke-dasharray="0.4,0.2" x1="171.84" y1="102.43" x2="161.94" y2="102.05" />
<line fill="none" stroke="#5674b9" stroke-width="0.04mm" stroke-dasharray="0.4,0.2" x1="171.84" y1="102.43" x2="176.47" y2="100.43" />
<line fill="none" stroke="#00aeef" stroke-width="0.04mm" stroke-dasharray="0.4,0.2" x1="171.84" y1="102.43" x2="173.84" y2="101.35" />
<line fill="none" stroke="#00aeef" stroke-width="0.04mm" stroke-dasharray="0.4,0.2" x1="171.84" y1="102.43" x2="151.71" y2="20.09" />
<line fill="none" stroke="#00aeef" stroke-width="0.04mm" stroke-dasharray="0.4,0.2" x1="171.84" y1="102.43" x2="171.70" y2="94.63" />
<line fill="none" stroke="#00aeef" stroke-width="0.04mm" stroke-dasharray="0.4,0.2" x1="171.84" y1="102.43" x2="158.93" y2="71.33" />
<line fill="none" stroke="#00aeef" stroke-width="0.04mm" stroke-dasharray="0.4,0.2" x1="171.84" y1="102.43" x2="162.85" y2="98.80" />
<line fill="none" stroke="#111111" stroke-width="0.04mm" x1="171.84" y1="102.43" x2="191.85" y2="99.90" />
<line fill="none" stroke="#00aeef" stroke-width="0.04mm" stroke-dasharray="0.4,0.2" x1="191.85" y1="99.90" x2="190.88" y2="100.45" />
<line fill="none" stroke="#00aeef" stroke-width="0.04mm" stroke-dasharray="0.4,0.2" x1="191.85" y1="99.90" x2="192.55" y2="88.74" />
<line fill="none" stroke="#00aeef" stroke-width="0.04mm" stroke-dasharray="0.4,0.2" x1="191.85" y1="99.90" x2="191.61" y2="116.95" />
<line fill="none" stroke="#00aeef" stroke-width="0.04mm" stroke-dasharray="0.4,0.2" x1="191.85" y1="99.90" x2="200.88" y2="101.47" />
<line fill="none" stroke="#00aeef" stroke-width="0.04mm" stroke-dasharray="0.4,0.2" x1="191.85" y1="99.90" x2="201.20" y2="99.63" />
<line fill="none" stroke="#00aeef" stroke-width="0.04mm" stroke-dasharray="0.4,0.2" x1="191.85" y1="99.90" x2="179.41" y2="98.56" />
<line fill="none" stroke="#00aeef" stroke-width="0.04mm" stroke-dasharray="0.4,0.2" x1="191.85" y1="99.90" x2="119.77" y2="19.11" />
<line fill="none" stroke="#111111" stroke-width="0.04mm" x1="191.85" y1="99.90" x2="216.83" y2="123.86" />
<line fill="none" stroke="#5674b9" stroke-width="0.04mm" stroke-dasharray="0.4,0.2" x1="216.83" y1="123.86" x2="209.51" y2="123.28" />
<line fill="none" stroke="#5674b9" stroke-width="0.04mm" stroke-dasharray="0.4,0.2" x1="216.83" y1="123.86" x2="194.88" y2="124.53" />
<line fill="none" stroke="#00aeef" stroke-width="0.04mm" stroke-dasharray="0.4,0.2" x1="216.83" y1="123.86" x2="207.66" y2="124.49" />
<line fill="none" stroke="#5674b9" stroke-width="0.04mm" stroke-dasharray="0.4,0.2" x1="216.83" y1="123.86" x2="227.95" y2="122.98" />
<line fill="none" stroke="#5674b9" stroke-width="0.04mm" stroke-dasharray="0.4,0.2" x1="216.83" y1="123.86" x2="221.50" y2="124.08" />
<line fill="none" stroke="#00aeef" stroke-width="0.04mm" stroke-dasharray="0.4,0.2" x1="216.83" y1="123.86" x2="215.27" y2="101.48" />
<line fill="none" stroke="#5674b9" stroke-width="0.04mm" stroke-dasharray="0.4,0.2" x1="216.83" y1="123.86" x2="196.69" y2="164.33" />
<line fill="none" stroke="#5674b9" stroke-width="0.04mm" stroke-dasharray="0.4,0.2" x1="216.83" y1="123.86" x2="210.22" y2="140.14" />
<line fill="none" stroke="#5674b9" stroke-width="0.04mm" stroke-dasharray="0.4,0.2" x1="216.83" y1="123.86" x2="205.64" y2="138.44" />
<line fill="none" stroke="#111111" stroke-width="0.04mm" x1="216.83" y1="123.86" x2="282.27" y2="199.91" />
<line fill="none" stroke="#5674b9" stroke-width="0.04mm" stroke-dasharray="0.4,0.2" x1="282.27" y1="199.91" x2="276.16" y2="199.60" />
<line fill="none" stroke="#00aeef" stroke-width="0.04mm" stroke-dasharray="0.4,0.2" x1="282.27" y1="199.91" x2="267.21" y2="200.17" />
<line fill="none" stroke="#00aeef" stroke-width="0.04mm" stroke-dasharray="0.4,0.2" x1="282.27" y1="199.91" x2="279.00" y2="201.09" />
<line fill="none" stroke="#00aeef" stroke-width="0.04mm" stroke-dasharray="0.4,0.2" x1="282.27" y1="199.91" x2="288.95" y2="199.78" />
<line fill="none" stroke="#5674b9" stroke-width="0.04mm" stroke-dasharray="0.4,0.2" x1="282.27" y1="199.91" x2="278.45" y2="184.69" />
<line fill="none" stroke="#00aeef" stroke-width="0.04mm" stroke-dasharray="0.4,0.2" x1="282.27" y1="199.91" x2="283.37" y2="210.90" />
<line fill="none" stroke="#111111" stroke-width="0.04mm" x1="282.27" y1="199.91" x2="319.65" y2="222.39" />
<line fill="none" stroke="#5674b9" stroke-width="0.04mm" stroke-dasharray="0.4,0.2" x1="319.65" y1="222.39" x2="319.36" y2="220.99" />
<line fill="none" stroke="#5674b9" stroke-width="0.04mm" stroke-dasharray="0.4,0.2" x1="319.65" y1="222.39" x2="322.44" y2="221.50" />
<line fill="none" stroke="#5674b9" stroke-width="0.04mm" stroke-dasharray="0.4,0.2" x1="319.65" y1="222.39" x2="308.26" y2="220.31" />
<line fill="none" stroke="#111111" stroke-width="0.04mm" x1="319.65" y1="222.39" x2="349.50" y2="267.85" />
<line fill="none" stroke="#5674b9" stroke-width="0.04mm" stroke-dasharray="0.4,0.2" x1="349.50" y1="267.85" x2="358.95" y2="266.18" />
<line fill="none" stroke="#00aeef" stroke-width="0.04mm" stroke-dasharray="0.4,0.2" x1="349.50" y1="267.85" x2="353.58" y2="267.31" />
<line fill="none" stroke="#00aeef" stroke-width="0.04mm" stroke-dasharray="0.4,0.2" x1="349.50" y1="267.85" x2="344.91" y2="267.99" />
<line fill="none" stroke="#00aeef" stroke-width="0.04mm" stroke-dasharray="0.4,0.2" x1="349.50" y1="267.85" x2="352.60" y2="260.45" />
<line fill="none" stroke="#00aeef" stroke-width="0.04mm" stroke-dasharray="0.4,0.2" x1="349.50" y1="267.85" x2="349.80" y2="277.15" />
<line fill="none" stroke="#111111" stroke-width="0.04mm" x1="349.50" y1="267.85" x2="372.76" y2="293.06" />
<line fill="none" stroke="#5674b9" stroke-width="0.04mm" stroke-dasharray="0.4,0.2" x1="372.76" y1="293.06" x2="380.16" y2="294.31" />
<line fill="none" stroke="#5674b9" stroke-width="0.04mm" stroke-dasharray="0.4,0.2" x1="372.76" y1="293.06" x2="375.61" y2="294.57" />
<line fill="none" stroke="#5674b9" stroke-width="0.04mm" stroke-dasharray="0.4,0.2" x1="372.76" y1="293.06" x2="366.61" y2="291.49" />
<line fill="none" stroke="#5674b9" stroke-width="0.04mm" stroke-dasharray="0.4,0.2" x1="372.76" y1="293.06" x2="374.26" y2="287.61" />
<line fill="none" stroke="#5674b9" stroke-width="0.04mm" stroke-dasharray="0.4,0.2" x1="372.76" y1="293.06" x2="374.56" y2="297.30" />
<line fill="none" stroke="#00aeef" stroke-width="0.04mm" stroke-dasharray="0.4,0.2" x1="372.76" y1="293.06" x2="378.43" y2="290.23" />
<line fill="none" stroke="#111111" stroke-width="0.04mm" x1="372.76" y1="293.06" x2="391.42" y2="303.20" />
<line fill="none" stroke="#00aeef" stroke-width="0.04mm" stroke-dasharray="0.4,0.2" x1="391.42" y1="303.20" x2="390.75" y2="302.02" />
<line fill="none" stroke="#5674b9" stroke-width="0.04mm" stroke-dasharray="0.4,0.2" x1="391.42" y1="303.20" x2="394.94" y2="301.72" />
<line fill="none" stroke="#00aeef" stroke-width="0.04mm" stroke-dasharray="0.4,0.2" x1="391.42" y1="303.20" x2="391.55" y2="306.82" />
<line fill="none" stroke="#5674b9" stroke-width="0.04mm" stroke-dasharray="0.4,0.2" x1="391.42" y1="303.20" x2="387.31" y2="299.74" />
<line fill="none" stroke="#111111" stroke-width="0.04mm" x1="391.42" y1="303.20" x2="411.22" y2="307.19" />
<line fill="none" stroke="#5674b9" stroke-width="0.04mm" stroke-dasharray="0.4,0.2" x1="411.22" y1="307.19" x2="409.23" y2="303.28" />
<line fill="none" stroke="#5674b9" stroke-width="0.04mm" stroke-dasharray="0.4,0.2" x1="411.22" y1="307.19" x2="410.24" y2="308.76" />
<line fill="none" stroke="#5674b9" stroke-width="0.04mm" stroke-dasharray="0.4,0.2" x1="411.22" y1="307.19" x2="424.34" y2="309.37" />
<line fill="none" stroke="#5674b9" stroke-width="0.04mm" stroke-dasharray="0.4,0.2" x1="411.22" y1="307.19" x2="422.36" y2="307.74" />
<line fill="none" stroke="#5674b9" stroke-width="0.04mm" stroke-dasharray="0.4,0.2" x1="411.22" y1="307.19" x2="422.28" y2="319.72" />
<line fill="none" stroke="#5674b9" stroke-width="0.04mm" stroke-dasharray="0.4,0.2" x1="411.22" y1="307.19" x2="421.72" y2="319.38" />
<line fill="none" stroke="#5674b9" stroke-width="0.04mm" stroke-dasharray="0.4,0.2" x1="411.22" y1="307.19" x2="421.45" y2="319.39" />
<line fill="none" stroke="#5674b9" stroke-width="0.04mm" stroke-dasharray="0.4,0.2" x1="411.22" y1="307.19" x2="421.26" y2="319.21" />
<line fill="none" stroke="#111111" stroke-width="0.04mm" x1="411.22" y1="307.19" x2="436.38" y2="307.07" />
<line fill="none" stroke="#00aeef" stroke-width="0.04mm" stroke-dasharray="0.4,0.2" x1="436.38" y1="307.07" x2="438.56" y2="320.48" />
<line fill="none" stroke="#00aeef" stroke-width="0.04mm" stroke-dasharray="0.4,0.2" x1="436.38" y1="307.07" x2="438.68" y2="320.57" />
<line fill="none" stroke="#111111" stroke-width="0.04mm" x1="436.38" y1="307.07" x2="444.39" y2="320.47" />
<line fill="none" stroke="#111111" stroke-width="0.04mm" x1="60.64" y1="176.97" x2="119.14" y2="160.00" />
<line fill="none" stroke="#5674b9" stroke-width="0.04mm" stroke-dasharray="0.4,0.2" x1="119.14" y1="160.00" x2="131.07" y2="121.90" />
<line fill="none" stroke="#5674b9" stroke-width="0.04mm" stroke-dasharray="0.4,0.2" x1="119.14" y1="160.00" x2="124.55" y2="142.07" />
<line fill="none" stroke="#5674b9" stroke-width="0.04mm" stroke-dasharray="0.4,0.2" x1="119.14" y1="160.00" x2="120.54" y2="142.99" />
<line fill="none" stroke="#00aeef" stroke-width="0.04mm" stroke-dasharray="0.4,0.2" x1="119.14" y1="160.00" x2="125.76" y2="158.38" />
<line fill="none" stroke="#111111" stroke-width="0.04mm" x1="119.14" y1="160.00" x2="129.45" y2="164.52" />
<line fill="none" stroke="#5674b9" stroke-width="0.04mm" stroke-dasharray="0.4,0.2" x1="129.45" y1="164.52" x2="147.45" y2="123.75" />
<line fill="none" stroke="#5674b9" stroke-width="0.04mm" stroke-dasharray="0.4,0.2" x1="129.45" y1="164.52" x2="147.20" y2="124.75" />
<line fill="none" stroke="#5674b9" stroke-width="0.04mm" stroke-dasharray="0.4,0.2" x1="129.45" y1="164.52" x2="147.16" y2="124.09" />
<line fill="none" stroke="#5674b9" stroke-width="0.04mm" stroke-dasharray="0.4,0.2" x1="129.45" y1="164.52" x2="147.43" y2="123.79" />
<line fill="none" stroke="#5674b9" stroke-width="0.04mm" stroke-dasharray="0.4,0.2" x1="129.45" y1="164.52" x2="144.31" y2="145.12" />
<line fill="none" stroke="#5674b9" stroke-width="0.04mm" stroke-dasharray="0.4,0.2" x1="129.45" y1="164.52" x2="135.42" y2="144.35" />
</g>
<g>
<circle cx="20.00" cy="175.00" r="0.1" fill="#111111" />
<circle cx="60.64" cy="176.97" r="0.1" fill="#111111" />
<circle cx="92.99" cy="172.04" r="0.1" fill="#111111" />
<circle cx="137.04" cy="127.52" r="0.1" fill="#111111" />
<circle cx="171.84" cy="102.43" r="0.1" fill="#111111" />
<circle cx="191.85" cy="99.90" r="0.1" fill="#111111" />
<circle cx="216.83" cy="123.86" r="0.1" fill="#111111" />
<circle cx="282.27" cy="199.91" r="0.1" fill="#111111" />
<circle cx="319.65" cy="222.39" r="0.1" fill="#111111" />
<circle cx="349.50" cy="267.85" r="0.1" fill="#111111" />
<circle cx="372.76" cy="293.06" r="0.1" fill="#111111" />
<circle cx="391.42" cy="303.20" r="0.1" fill="#111111" />
<circle cx="411.22" cy="307.19" r="0.1" fill="#111111" />
<circle cx="436.38" cy="307.07" r="0.1" fill="#111111" />
<circle cx="444.39" cy="320.47" r="0.1" fill="#111111" />
<circle cx="119.14" cy="160.00" r="0.1" fill="#111111" />
<circle cx="129.45" cy="164.52" r="0.1" fill="#111111" />
</g>
<g>
<text x="20.20" y="175.00" font-size=".2mm" fill="#000000">0</text>
<text x="60.84" y="176.97" font-size=".2mm" fill="#000000">1</text>
<text x="93.19" y="172.04" font-size=".2mm" fill="#000000">2</text>
<text x="137.24" y="127.52" font-size=".2mm" fill="#000000">3</text>
<text x="172.04" y="102.43" font-size=".2mm" fill="#000000">4</text>
<text x="192.05" y="99.90" font-size=".2mm" fill="#000000">5</text>
<text x="217.03" y="123.86" font-size=".2mm" fill="#000000">6</text>
<text x="282.47" y="199.91" font-size=".2mm" fill="#000000">7</text>
<text x="319.85" y="222.39" font-size=".2mm" fill="#000000">8</text>
<text x="349.70" y="267.85" font-size=".2mm" fill="#000000">9</text>
<text x="372.96" y="293.06" font-size=".2mm" fill="#000000">10</text>
<text x="391.62" y="303.20" font-size=".2mm" fill="#000000">11</text>
<text x="411.42" y="307.19" font-size=".2mm" fill="#000000">12</text>
<text x="436.58" y="307.07" font-size=".2mm" fill="#000000">13</text>
<text x="444.59" y="320.47" font-size=".2mm" fill="#000000">14</text>
<text x="119.34" y="160.00" font-size=".2mm" fill="#000000">1.1</text>
<text x="129.65" y="164.52" font-size=".2mm" fill="#000000">1.2</text>
</g>
<g>
</g>
</g>
</svg>