<?xml version="1.0" encoding="utf-8"?>
<!DOCTYPE svg PUBLIC "-//W3C//DTD SVG 1.1//EN" "http://www.w3.org/Graphics/SVG/1.1/DTD/svg11.dtd">
<svg version="1.1" id="Layer_1" xmlns="http://www.w3.org/2000/svg" xmlns:xlink="http://www.w3.org/1999/xlink" x="0px" y="0px" width="165mm" height="334mm" viewBox="0 0 165 334" enable-background="new 0 0 165 334" xml:space="preserve">
<symbol id="airflow" viewBox="-12 -12 24 24">
<path d="M-4.38,10.73l4.2-3.84V3.55L-4.07,7.13l-.31-.29L-.18,3V-6.89a3.37,3.37,0,0,0-1.68.53l1.68-4.15L0-11l.21.51h0v0l1.65,4.1A3.26,3.26,0,0,0,.24-6.89v14l-.08,0L-4.07,11Z"/>
<rect fill="none" x="-12" y="-12" width="24" height="24"/>
</symbol>
<symbol id="anastomosis" viewBox="-12 -12 24 24">
<path d="M2.23-4.78l.37.24L5.22-2.78l-.47.57L2.49-3.7l-4.61,8-.24.44-.37-.34L-5.22,2.3l.55-.52,2.1,1.82L2-4.39Z"/>
<rect fill="none" x="-12" y="-12" width="24" height="24"/>
</symbol>
<symbol id="bivouac" viewBox="-12 -12 24 24">
<path d="M.25-7.66l.24.58L.54-7l3.88.48-3.31.91L6,6H8.35v.48l-16.7.07V6.05h2.64L0-7.08Zm0,1.32L-5.13,6H-4l2.07-5L.2-4l2.09,5L4.37,6H5.44Z"/>
<rect fill="none" x="-12" y="-12" width="24" height="24"/>
</symbol>
<symbol id="bones" viewBox="-12 -12 24 24">
<path d="M2.44,4.27l-.16,0H2.13a.22.22,0,0,1-.11,0l-.1-.06a.39.39,0,0,1-.09-.11l-.08-.13a1.51,1.51,0,0,1-.06-.15l-.07-.17s0-.11-.08-.19-.06-.16-.08-.21a4.75,4.75,0,0,0-.38-.71c-.18-.29-.43-.64-.74-1A11.15,11.15,0,0,0-.7.32,6.73,6.73,0,0,0-2-.64a4.12,4.12,0,0,0-1.44-.52A1.64,1.64,0,0,1-5-2.19.72.72,0,0,1-5-2.44a1,1,0,0,1,0-.29A.52.52,0,0,1-4.87-3a.54.54,0,0,1,.35-.15L-4-3.22l.46,0a.54.54,0,0,0,.27-.06A.52.52,0,0,0-3-3.56a.74.74,0,0,0,.13-.31.54.54,0,0,1,.15-.26.54.54,0,0,1,.3-.15.83.83,0,0,1,.47,0,1.11,1.11,0,0,1,.35.4A7.46,7.46,0,0,1-1-2.76q.18.42.33.72a3.22,3.22,0,0,0,.39.57L.1-1a4.77,4.77,0,0,0,.58.43c.28.18.51.33.69.43l1,.56a1.84,1.84,0,0,0,.39.23A5.29,5.29,0,0,1,3.22.9l.43.26a3.7,3.7,0,0,1,.46.3l.36.29a2.28,2.28,0,0,1,.31.32A1,1,0,0,1,5,2.4c.2.48,0,.78-.47.91h0a8.48,8.48,0,0,0-1.12.09,1,1,0,0,0-.42.44A1,1,0,0,1,2.44,4.27Z"/>
<rect fill="none" x="-12" y="-12" width="24" height="24"/>
</symbol>
<symbol id="calcite" viewBox="-12 -12 24 24">
<path d="M2.36-2.22l.05.46.34,3.91L2,2.22,1.65-1.26-2.52-.06l-.23-.7L1.89-2.08Z"/>
<rect fill="none" x="-12" y="-12" width="24" height="24"/>
</symbol>
<symbol id="cauliflower" viewBox="-12 -12 24 24">
<path d="M5.58,3.22v-3A2.12,2.12,0,0,0,6.92-.43a1.78,1.78,0,0,0,.55-1.32,1.92,1.92,0,0,0-.65-1.42,2.19,2.19,0,0,0-1.53-.59,2.21,2.21,0,0,0-1.54.59,1.78,1.78,0,0,0-.64,1.42A1.86,1.86,0,0,0,3.65-.43,2.12,2.12,0,0,0,5,.23v3H.26v-3A2.17,2.17,0,0,0,1.61-.43a1.81,1.81,0,0,0,.54-1.32,1.91,1.91,0,0,0-.64-1.42A2.21,2.21,0,0,0,0-3.76a2.21,2.21,0,0,0-1.54.59,1.82,1.82,0,0,0-.64,1.42A1.83,1.83,0,0,0-1.66-.43,2.12,2.12,0,0,0-.32.23v3H-5v-3A2.12,2.12,0,0,0-3.71-.43a1.78,1.78,0,0,0,.55-1.32,1.92,1.92,0,0,0-.65-1.42,2.19,2.19,0,0,0-1.53-.59,2.21,2.21,0,0,0-1.54.59,1.83,1.83,0,0,0-.65,1.42A1.87,1.87,0,0,0-7-.43,2.12,2.12,0,0,0-5.64.23v3H-8v.54H8V3.22Z"/>
<rect fill="none" x="-12" y="-12" width="24" height="24"/>
</symbol>
<symbol id="clay" viewBox="-12 -12 24 24">
<path d="M1.85-1.33a3,3,0,0,1,1.67.48,3.23,3.23,0,0,1,1,1l.29.51-1,.43a3.81,3.81,0,0,0-.23-.4A3.74,3.74,0,0,0,2.93,0,1.77,1.77,0,0,0,1.85-.32a2.57,2.57,0,0,0-1.1.15A.86.86,0,0,0,.51.14,2.23,2.23,0,0,1,0,.88a2.55,2.55,0,0,1-1.45.43,3.16,3.16,0,0,1-2.75-1,4.28,4.28,0,0,1-.37-.57,3.91,3.91,0,0,1-.21-.47l0-.16,1-.22a1.87,1.87,0,0,0,.45.79A2.12,2.12,0,0,0-1.51.33,1.82,1.82,0,0,0-.69.14l.21-.36A1.53,1.53,0,0,1,.17-1,3.76,3.76,0,0,1,1.85-1.33Z"/>
<rect fill="none" x="-12" y="-12" width="24" height="24"/>
</symbol>
<symbol id="crystals" viewBox="-12 -12 24 24">
<path d="M-2.94-5.38,0-.72,2.94-5.38,3.62-5,.68-.36H6.56V.36H.68L3.62,5l-.68.36L0,.72-2.94,5.38-3.62,5-.68.36H-6.56V-.36H-.68L-3.62-5Z"/>
<rect fill="none" x="-12" y="-12" width="24" height="24"/>
</symbol>
<symbol id="curtain" viewBox="-12 -12 24 24">
<path d="M3.57-6.69l.52.53L.39-3V-.33L.1-.26a3.79,3.79,0,0,0-1,.41c-.58.3-.87.65-.87,1v.07A1.61,1.61,0,0,0-.84,2.48a3.69,3.69,0,0,0,.45.24L0,2.86l.13.05L.39,3V6.12H-.39V3.51a7.65,7.65,0,0,1-.9-.46A2.19,2.19,0,0,1-2.54,1.28V1.23A2,2,0,0,1-1.31-.48,5.32,5.32,0,0,1-.39-.86V-3l-3.7-3.14.52-.53L0-3.67Z"/>
<rect fill="none" x="-12" y="-12" width="24" height="24"/>
</symbol>
<symbol id="disk" viewBox="-12 -12 24 24">
<path d="M-.09-4.19a2.43,2.43,0,0,1,1.7.64A2,2,0,0,1,2.35-2,2.09,2.09,0,0,1,1.81-.55,2.44,2.44,0,0,1,.35.23l2.18,3.6-.68.33L0,1.14-1.48,4.19l-.71-.29L-.41.25A2.53,2.53,0,0,1-1.9-.47a2,2,0,0,1-.63-1.41,2,2,0,0,1,.67-1.61,2.46,2.46,0,0,1,1.72-.7ZM1.05-3.06.56-3.49l-.69,0A1.72,1.72,0,0,0-1.29-3a1.51,1.51,0,0,0-.45,1.08,1.36,1.36,0,0,0,.51,1A1.68,1.68,0,0,0-.07-.44v0l0,0A1.7,1.7,0,0,0,1.11-.92,1.36,1.36,0,0,0,1.56-2,1.47,1.47,0,0,0,1.05-3.06Z"/>
<rect fill="none" x="-12" y="-12" width="24" height="24"/>
</symbol>
<symbol id="entrance" viewBox="-12 -12 24 24">
<path d="M4.46,9H-4.46L0-9Z"/>
<rect fill="none" x="-12" y="-12" width="24" height="24"/>
</symbol>
<symbol id="flowstone" viewBox="-12 -12 24 24">
<rect x="-6" y="-0.21" width="12" height="0.42"/>
<rect fill="none" x="-12" y="-12" width="24" height="24"/>
</symbol>
<symbol id="flutes" viewBox="-12 -12 24 24">
<path d="M-7-1H7v.72H3.87A4.7,4.7,0,0,1,2.16,1.5,4.2,4.2,0,0,1,0,2.13,3.94,3.94,0,0,1-2.19,1.5,4.18,4.18,0,0,1-3.76-.27H-7Zm4.17.72A3.15,3.15,0,0,0-1.65,1,3.21,3.21,0,0,0,0,1.41,3.49,3.49,0,0,0,1.6,1,3.68,3.68,0,0,0,3-.27Z"/>
<rect fill="none" x="-12" y="-12" width="24" height="24"/>
</symbol>
<symbol id="gradient" viewBox="-12 -12 24 24">
<path d="M2.58-3.83,0-10-2.58-3.83A4.74,4.74,0,0,1-.17-4.5V10H.25V-4.5A6.65,6.65,0,0,1,2.58-3.83Z"/>
<rect fill="none" x="-12" y="-12" width="24" height="24"/>
</symbol>
<symbol id="guano" viewBox="-12 -12 24 24">
<path d="M-3.24-3a2.15,2.15,0,0,1,1.57.55A3.93,3.93,0,0,1-.59.24a4.32,4.32,0,0,1,2.75-2.3,2.68,2.68,0,0,1,2.23.36A2.36,2.36,0,0,1,5.5.19l-.79,0a1.72,1.72,0,0,0-.79-1.37,1.94,1.94,0,0,0-1.55-.24A3.53,3.53,0,0,0,.48,0,6.63,6.63,0,0,0-.69,3l-.79-.09a10.72,10.72,0,0,0,0-3.16A3.21,3.21,0,0,0-2.22-2,1.44,1.44,0,0,0-3.37-2.3,3.45,3.45,0,0,0-5-1.54l-.5-.55a4.29,4.29,0,0,1,2-.91A.9.9,0,0,1-3.24-3Z"/>
<rect fill="none" x="-12" y="-12" width="24" height="24"/>
</symbol>
<symbol id="helictites" viewBox="-12 -12 24 24">
<path d="M-4.59-7.92h.79v7.7l3.41,0V-7.92H.39V-.17L4.2-.12h.39v8H3.8V.6L.39.55V7.92H-.39V.55L-4.2.5l-.39,0v-8.4Z"/>
<rect fill="none" x="-12" y="-12" width="24" height="24"/>
</symbol>
<symbol id="human" viewBox="-12 -12 24 24">
<path d="M-3.59-3.29A5.13,5.13,0,0,1,0-4.66,5.13,5.13,0,0,1,3.59-3.29,4.3,4.3,0,0,1,5.09,0a4.3,4.3,0,0,1-1.5,3.29A5.13,5.13,0,0,1,0,4.66,5.13,5.13,0,0,1-3.59,3.29,4.3,4.3,0,0,1-5.09,0,4.3,4.3,0,0,1-3.59-3.29Zm.28.77A3.68,3.68,0,0,0-4.3,0a3.62,3.62,0,0,0,1,2.57L-.5.05ZM0-3.94A4.42,4.42,0,0,0-2.75-3L.16-.36H4.28A3.62,3.62,0,0,0,2.91-2.9,4.38,4.38,0,0,0,0-3.94ZM.16.46-2.7,3.07A4.42,4.42,0,0,0,0,3.94a4.37,4.37,0,0,0,2.87-1A3.78,3.78,0,0,0,4.28.46Z"/>
<rect fill="none" x="-12" y="-12" width="24" height="24"/>
</symbol>
<symbol id="karren" viewBox="-12 -12 24 24">
<path d="M1-5.84h0a1.37,1.37,0,0,1,1.06.68A3.33,3.33,0,0,1,2.5-3.79,25.79,25.79,0,0,1,2.36,0a18.61,18.61,0,0,0-.08,3.72,2.68,2.68,0,0,0,.41,1.2,1.13,1.13,0,0,0,.79.5A.92.92,0,0,0,4,4.94a4.43,4.43,0,0,0,.47-1.22c.16-.64.36-1.86.59-3.66a26.71,26.71,0,0,1,.64-3.69,4.62,4.62,0,0,1,.57-1.29,1.34,1.34,0,0,1,1-.59h0A1.28,1.28,0,0,1,8.37-5a2.17,2.17,0,0,1,.39,1.15A19.91,19.91,0,0,1,8.54-.53a21.51,21.51,0,0,0-.2,3.64A2.64,2.64,0,0,0,9.45,5.36,1.91,1.91,0,0,0,10.88,5a3.84,3.84,0,0,0,.7-1l.42.2-.1.18-.12.21-.11.18L11.52,5a.94.94,0,0,1-.14.16c-.06.07-.13.12-.19.18a2.5,2.5,0,0,1-1.85.41H9.29l0,0A3.06,3.06,0,0,1,7.87,3.13a22.11,22.11,0,0,1,.2-3.7,18.17,18.17,0,0,0,.22-3.28A1.85,1.85,0,0,0,8-4.79a.77.77,0,0,0-.67-.3.93.93,0,0,0-.64.42,4.51,4.51,0,0,0-.51,1.15A26.26,26.26,0,0,0,5.54.1c-.24,1.83-.45,3.07-.61,3.72a5.38,5.38,0,0,1-.51,1.34,1.33,1.33,0,0,1-.89.68H3.47A1.58,1.58,0,0,1,2.3,5.16a3.29,3.29,0,0,1-.49-1.4A20.27,20.27,0,0,1,1.89,0,23.45,23.45,0,0,0,2-3.75a2.94,2.94,0,0,0-.32-1.19A.93.93,0,0,0,1-5.42,1.1,1.1,0,0,0,.19-5,3.69,3.69,0,0,0-.43-3.76,20.78,20.78,0,0,0-1.07.07c-.2,2-.37,3.32-.49,3.86A4.48,4.48,0,0,1-2,5.26,1.06,1.06,0,0,1-3,5.81h0a1.9,1.9,0,0,1-1.29-.67,2.7,2.7,0,0,1-.58-1.31,14.92,14.92,0,0,1,0-3.6q0-.12.06-.54c0-.28,0-.47,0-.57s0-.28,0-.52,0-.42,0-.55,0-.28,0-.47,0-.36,0-.51,0-.29,0-.43A3.09,3.09,0,0,0-5-4.62a1.19,1.19,0,0,0-.67-.6,1.5,1.5,0,0,0-1.2.9A7,7,0,0,0-7.41-2.1c0,.39-.1,1-.14,1.76s-.11,1.47-.18,2.08A9.61,9.61,0,0,1-8,3.32h0l0,0A2.81,2.81,0,0,1-9.2,4.62a1.82,1.82,0,0,1-1.35.15A1.94,1.94,0,0,1-11.61,4,2.39,2.39,0,0,1-12,2.56l.47,0a1.92,1.92,0,0,0,.31,1.16,1.47,1.47,0,0,0,.81.62,1.3,1.3,0,0,0,1-.11A2.32,2.32,0,0,0-8.5,3.18a7.53,7.53,0,0,0,.29-1.5Q-8.1.8-8-.36c0-.78.1-1.37.16-1.78A7.23,7.23,0,0,1-7.28-4.5,1.93,1.93,0,0,1-5.65-5.66h.05l0,0a1.59,1.59,0,0,1,1,.84,3.47,3.47,0,0,1,.34,1.41,4.91,4.91,0,0,1,0,.57v.54c0,.15,0,.37,0,.66s0,.47,0,.58,0,.33-.06.68,0,.56-.06.63a14.78,14.78,0,0,0,0,3.49,2.58,2.58,0,0,0,.5,1.13,1.57,1.57,0,0,0,1,.5A.61.61,0,0,0-2.44,5,3.89,3.89,0,0,0-2,3.85C-1.9,3.31-1.74,2-1.53,0A20.65,20.65,0,0,1-.86-3.89,3.89,3.89,0,0,1-.18-5.26,1.58,1.58,0,0,1,1-5.84Z"/>
<rect fill="none" x="-12" y="-12" width="24" height="24"/>
</symbol>
<symbol id="moonmilk" viewBox="-12 -12 24 24">
<path d="M-4.78-3.06a3.39,3.39,0,0,1,1.5.34,2.48,2.48,0,0,1,1.1,1,3.74,3.74,0,0,1,1.62-.8,3.52,3.52,0,0,1,1.71,0,2.9,2.9,0,0,1,1.39.77A2.49,2.49,0,0,1,3.25-.37,4,4,0,0,1,5-.76a3.58,3.58,0,0,1,1.6.36A2.84,2.84,0,0,1,7.88.92a2.32,2.32,0,0,1,0,1.88.34.34,0,0,1-.37.26A.36.36,0,0,1,7.25,3a.32.32,0,0,1-.12-.25.21.21,0,0,1,0-.12,2,2,0,0,0,0-1.43,2,2,0,0,0-1-.9A2.81,2.81,0,0,0,4.68,0,2.78,2.78,0,0,0,3.12.56L2.46.25A1.7,1.7,0,0,0,2.15-1.1,2.15,2.15,0,0,0,1-1.81a2.85,2.85,0,0,0-1.58.06A3,3,0,0,0-2-.83l-.71-.12A1.74,1.74,0,0,0-3.55-2a2.36,2.36,0,0,0-1.39-.27,3.08,3.08,0,0,0-1.45.53A2.33,2.33,0,0,0-7.32-.56a.35.35,0,0,1-.37.24A.39.39,0,0,1-8-.42a.33.33,0,0,1-.1-.26v-.1A3,3,0,0,1-6.89-2.35,4,4,0,0,1-5-3Z"/>
<rect fill="none" x="-12" y="-12" width="24" height="24"/>
</symbol>
<symbol id="narrow" viewBox="-12 -12 24 24">
<path d="M-1.5,5V-5h0.64V5H-1.5z"/>
<path d="M0.86,5V-5H1.5V5H0.86z"/>
<rect fill="none" x="-12" y="-12" width="24" height="24"/>
</symbol>
<symbol id="paleoflow" viewBox="-12 -12 24 24">
<path d="M.38-12V.17A1.9,1.9,0,0,0,1,0,1.57,1.57,0,0,0,1.7-.72a1.86,1.86,0,0,0,.23-1c0-.09,0-.14.08-.16a.92.92,0,0,1,.24,0,.52.52,0,0,0,.25,0h.08A2.48,2.48,0,0,1,2,0,2.5,2.5,0,0,1,.38.77V7.21H2.09L0,12-1.8,7.23c.07,0,.59,0,1.53,0V.77A3,3,0,0,1-1.35.43a2.16,2.16,0,0,1-1-1,2.38,2.38,0,0,1-.24-1.33l.67,0a2,2,0,0,0,.15,1,1.73,1.73,0,0,0,.59.67A2.14,2.14,0,0,0-.27.16V-12Z"/>
<rect fill="none" x="-12" y="-12" width="24" height="24"/>
</symbol>
<symbol id="rain" viewBox="-12 -12 24 24">
<path d="M-4.14-6.34h0.71v4.69h-0.71V-6.34z"/>
<path d="M-0.35-6.34h0.71v4.69h-0.71V-6.34z"/>
<path d="M3.43-6.34h0.71v4.69H3.43V-6.34z"/>
<path d="M-4.14,1.65h0.71v4.69h-0.71V1.65z"/>
<path d="M-0.35,1.65h0.71v4.69h-0.71V1.65z"/>
<path d="M3.43,1.65h0.71v4.69H3.43V1.65z"/>
<rect fill="none" x="-12" y="-12" width="24" height="24"/>
</symbol>
<symbol id="rats" viewBox="-12 -12 24 24">
<path d="M8.78-2.32,7-2.27c-.51-.17-.65-.56-1.46-.45l-.25.45C3.59-2.75,2.59-3.66.56-3.62l-1.35.3A4.89,4.89,0,0,0-4.24,1.57c-.68.6-2.58.86-3.39.94a6.84,6.84,0,0,0-1.62.39,4.91,4.91,0,0,0-1,.52A1.75,1.75,0,0,0-11,4.61a1.16,1.16,0,0,0,.59,1.48,1.3,1.3,0,0,1,.14.12c.16-.52-.35-.92-.2-1.42a3.35,3.35,0,0,1,.27-.45,3.18,3.18,0,0,1,1.79-1c.63-.12,1.27-.22,1.91-.3.48-.07,1,0,1.4-.12A6.94,6.94,0,0,1-4,2.82,30.64,30.64,0,0,0,.41,2.69l2.16.15c.1-.09,0,0,.1-.15a.87.87,0,0,0-.9-.55c.86-1,2.27-.37,3.1-.05.5.19,1,0,1.25.4.11-.1.1-.07.15-.25.3,0,.31.07.6.15-.06-.49-.34-.64-1-.6a.78.78,0,0,1,0-.55C6.3.56,7.29.73,8.13.43a13.78,13.78,0,0,0,2.15-.9l.6-.85v-.2A16.9,16.9,0,0,0,8.78-2.32Z"/>
<rect fill="none" x="-12" y="-12" width="24" height="24"/>
</symbol>
<symbol id="sand" viewBox="-12 -12 24 24">
<path d="M-1.58,0.83c0.23,0.2,0.35,0.44,0.36,0.73c0.01,0.29-0.08,0.54-0.28,0.75c-0.2,0.21-0.46,0.32-0.78,0.33c-0.32,0.01-0.6-0.08-0.83-0.26C-3.36,2.19-3.49,1.95-3.5,1.67C-3.51,1.38-3.41,1.12-3.2,0.9c0.21-0.22,0.48-0.34,0.8-0.35C-2.08,0.54-1.81,0.64-1.58,0.83z"/>
<path d="M0.08-2.36c0.23,0.2,0.35,0.44,0.36,0.73c0.01,0.29-0.08,0.54-0.28,0.75c-0.2,0.21-0.46,0.32-0.78,0.33c-0.32,0.01-0.59-0.07-0.83-0.26s-0.37-0.42-0.38-0.71c-0.01-0.29,0.09-0.54,0.3-0.76c0.21-0.22,0.48-0.33,0.8-0.35C-0.42-2.65-0.14-2.56,0.08-2.36z"/>
<path d="M3.12,0.55c0.23,0.2,0.35,0.43,0.38,0.71c0.02,0.28-0.07,0.53-0.28,0.75C3,2.23,2.73,2.35,2.42,2.36C2.1,2.37,1.82,2.28,1.58,2.08C1.34,1.88,1.22,1.64,1.2,1.35c-0.01-0.29,0.09-0.54,0.3-0.75C1.72,0.4,1.99,0.29,2.3,0.28S2.89,0.36,3.12,0.55z"/>
<rect fill="none" x="-12" y="-12" width="24" height="24"/>
</symbol>
<symbol  id="scallops" viewBox="-12 -12 24 24">
<path d="M.05-3.74l.21,0A2.35,2.35,0,0,1,1.74-3a2,2,0,0,1,.59,1.55v0l0,0A9.59,9.59,0,0,1-.08,3.27l-.39.47-.27-.55A14.26,14.26,0,0,1-2.33-1.89v-.05l0-.05A2,2,0,0,1-1.44-3.3,2.42,2.42,0,0,1,.05-3.74ZM-.11-3A1.44,1.44,0,0,0-1.55-1.89,13.06,13.06,0,0,0-.29,2.33,8.6,8.6,0,0,0,1.55-1.54a1.41,1.41,0,0,0-.38-1A1.62,1.62,0,0,0,.18-3Z"/>
<rect fill="none" x="-12" y="-12" width="24" height="24"/>
</symbol>
<symbol  id="sink" viewBox="-12 -12 24 24">
<path d="M.72,9.41H.9c1.94,0,3.26-.54,3.94-1.51a3.61,3.61,0,0,0,.33-.69,2,2,0,0,0,.11-.54V6.46l.69,0a2.8,2.8,0,0,1-.58,1.78C4.58,9.39,3.1,10,.93,10H-.93q-3.25,0-4.46-1.8a2.74,2.74,0,0,1-.43-.83A2.37,2.37,0,0,1-6,6.67V6.43l.68,0A2.27,2.27,0,0,0-4.84,7.9c.68,1,2,1.47,3.93,1.48l.5,0ZM-1.46-10a.68.68,0,0,0,.16.41A2.77,2.77,0,0,0-.51-9l0,0a3.63,3.63,0,0,1,1,.7,1.15,1.15,0,0,1,.34.88c0,.58-.53,1.14-1.49,1.68-.68.42-1,.79-1,1.11s.3.61.84,1h0Q.61-2.86.46-1.78a3.51,3.51,0,0,1-1.55,2,.61.61,0,0,0-.26.41,1.67,1.67,0,0,0,.1.51,5.3,5.3,0,0,1,.32,1L.56,1.9.46,8.06-3.4,2.54l1.73-.28A6.16,6.16,0,0,0-2,1.39,1.7,1.7,0,0,1-2.09.58a1.21,1.21,0,0,1,.53-.82h0v0C-.75-.86-.33-1.38-.28-1.85s-.23-.87-.91-1.27h0C-2-3.6-2.37-4.1-2.4-4.61S-2-5.74-1.09-6.29C-.34-6.72.06-7.1.09-7.44a.67.67,0,0,0-.18-.43,3.17,3.17,0,0,0-.79-.58,2.93,2.93,0,0,1-1-.67A1.16,1.16,0,0,1-2.17-10Z"/>
<rect fill="none" x="-12" y="-12" width="24" height="24"/>
</symbol>
<symbol  id="spring" viewBox="-12 -12 24 24">
<path d="M-1.34-9.86,2.52-4.34.78-4.06a8,8,0,0,0,.29.87,1.4,1.4,0,0,1,.13.79,1.3,1.3,0,0,1-.52.84l0,0v0C-.13-.95-.55-.42-.61,0S-.37.91.31,1.3l0,0c.75.46,1.14,1,1.18,1.46S1.12,3.92.21,4.46C-.54,4.9-.94,5.29-1,5.64a.74.74,0,0,0,.18.43A3.2,3.2,0,0,0,0,6.62a3,3,0,0,1,1,.7,1.14,1.14,0,0,1,.31.86A1.74,1.74,0,0,1,.71,9.26H.92c1.92,0,3.22-.52,3.9-1.51a2.05,2.05,0,0,0,.35-.67,2.59,2.59,0,0,0,.1-.55l0-.19.65,0a2.84,2.84,0,0,1-.55,1.8C4.58,9.26,3.08,9.85.92,9.86H-.92c-2.17,0-3.66-.6-4.49-1.77a3.65,3.65,0,0,1-.4-.85A2.43,2.43,0,0,1-6,6.53V6.29l.66,0a2.08,2.08,0,0,0,.47,1.41c.68,1,2,1.5,3.91,1.51H-.4c.62-.43.94-.8,1-1.1a.76.76,0,0,0-.16-.43,3.25,3.25,0,0,0-.79-.51v0a3.8,3.8,0,0,1-1-.7,1.15,1.15,0,0,1-.34-.91q.06-.84,1.5-1.68c.68-.4,1-.77,1-1.1S.49,2.21,0,1.87c0,0,0,0,0,0C-1,1.32-1.44.69-1.34,0a3.58,3.58,0,0,1,1.55-2,.54.54,0,0,0,.23-.38A1.28,1.28,0,0,0,.37-3a4.57,4.57,0,0,1-.32-1l-1.49.24Z"/>
<rect fill="none" x="-12" y="-12" width="24" height="24"/>
</symbol>
<symbol  id="stalactite" viewBox="-12 -12 24 24">
<path d="M3.57-6.69l.52.53L.39-3V6.12H-.39V-3l-3.7-3.14.52-.53L0-3.67Z"/>
<rect fill="none" x="-12" y="-12" width="24" height="24"/>
</symbol>
<symbol  id="stalagmite" viewBox="-12 -12 24 24">
<path d="M.38-6.42V2.75L4.11,5.89l-.56.53L0,3.4l-3.57,3-.53-.53,3.7-3.14V-6.42Z"/>
<rect fill="none" x="-12" y="-12" width="24" height="24"/>
</symbol>
<symbol  id="stalagnate" viewBox="-12 -12 24 24">
<path d="M3.55-8.46l.56.53L.38-4.78v9L4.11,7.36l-.56.53L0,4.86l-3.57,3-.53-.53,3.7-3.14v-9l-3.7-3.15.53-.53L0-5.43Z"/>
<rect fill="none" x="-12" y="-12" width="24" height="24"/>
</symbol>
<symbol  id="straws" viewBox="-12 -12 24 24">
<path d="M-10.89-2.76H10.89V-2H9.63V.46H8.84V-2H8.29v5.6H7.5V-2H5.56V.7H4.77V-2H2.07V2.38H1.29V-2H-.1v3H-.89V-2H-3.2V4.11H-4V-2H-6.22L-6.16.75l-.79,0L-7-2H-8.32V2.33H-9.1V-2h-1.79Z"/>
<rect fill="none" x="-12" y="-12" width="24" height="24"/>
</symbol>
<symbol  id="water" viewBox="-12 -12 24 24">
<path d="M-1.72-9.86,2.11-4.32.38-4.06a6.49,6.49,0,0,0,.29.89,1.5,1.5,0,0,1,.13.79,1.2,1.2,0,0,1-.5.82h0l0,0C-.54-.94-1-.42-1,.05s.24.89.92,1.27h0c.77.48,1.17,1,1.19,1.49S.71,3.94-.2,4.49c-.75.43-1.13.81-1.15,1.15a.51.51,0,0,0,.18.43,2.66,2.66,0,0,0,.76.58,2.93,2.93,0,0,1,1,.67,1.16,1.16,0,0,1,.29.89C.84,8.75.42,9.3-.41,9.86l-.44-.55c.66-.45,1-.83,1-1.15A.47.47,0,0,0,0,7.75a2.84,2.84,0,0,0-.78-.53h0a3.87,3.87,0,0,1-1-.69,1.24,1.24,0,0,1-.34-.91c0-.58.54-1.14,1.52-1.68.66-.42,1-.79,1-1.11s-.3-.61-.84-1h0Q-1.9,1.06-1.74,0a3.44,3.44,0,0,1,1.54-2,.67.67,0,0,0,.27-.41A1.11,1.11,0,0,0,0-3a4.33,4.33,0,0,1-.31-1l-1.5.24Z"/>
<rect fill="none" x="-12" y="-12" width="24" height="24"/>
</symbol><symbol  id="tree" viewBox="-12 -12 24 24">
<path d="M7.4-5.04A4.271,4.271,0,0,0,7.7-6.627a4.3,4.3,0,0,0-4.3-4.3A4.279,4.279,0,0,0,.636-9.914,4.293,4.293,0,0,0-3.045-12a4.3,4.3,0,0,0-4.3,4.3,4.27,4.27,0,0,0,.421,1.845,4.3,4.3,0,0,0-3.645,4.244,4.3,4.3,0,0,0,4.3,4.3A4.282,4.282,0,0,0-3.946,2L-1.175,5.23h0L-1.612,12H.982L.757,6.376,4.119,2.827v0a4.272,4.272,0,0,0,2.15.58,4.3,4.3,0,0,0,4.3-4.3A4.3,4.3,0,0,0,7.4-5.04ZM-3.346,1.538h0A4.346,4.346,0,0,0-2.7.788a4.266,4.266,0,0,0,1.765.753l-.135,2.087ZM.69,4.7.563,1.544A4.258,4.258,0,0,0,2.321.805,4.3,4.3,0,0,0,3.378,2.279Z"/>
<rect fill="none" x="-12" y="-12" width="24" height="24"/>
</symbol><g>
<desc></desc>
<g>
<line fill="none" stroke="#dddddd" stroke-width="0.1mm" x1="0.00" y1="70.00" x2="165.00" y2="70.00" />
<text x="162.20" y="69.80" font-size=".2mm" fill="#000000">0m</text>
<line fill="none" stroke="#dddddd" stroke-width="0.1mm" x1="0.00" y1="20.00" x2="165.00" y2="20.00" />
<text x="162.20" y="19.80" font-size=".2mm" fill="#000000">5m</text>
<line fill="none" stroke="#dddddd" stroke-width="0.1mm" x1="0.00" y1="120.00" x2="165.00" y2="120.00" />
<text x="162.20" y="119.80" font-size=".2mm" fill="#000000">-5m</text>
<line fill="none" stroke="#dddddd" stroke-width="0.1mm" x1="0.00" y1="170.00" x2="165.00" y2="170.00" />
<text x="162.20" y="169.80" font-size=".2mm" fill="#000000">-10m</text>
<line fill="none" stroke="#dddddd" stroke-width="0.1mm" x1="0.00" y1="220.00" x2="165.00" y2="220.00" />
<text x="162.20" y="219.80" font-size=".2mm" fill="#000000">-15m</text>
<line fill="none" stroke="#dddddd" stroke-width="0.1mm" x1="0.00" y1="270.00" x2="165.00" y2="270.00" />
<text x="162.20" y="269.80" font-size=".2mm" fill="#000000">-20m</text>
<line fill="none" stroke="#dddddd" stroke-width="0.1mm" x1="0.00" y1="320.00" x2="165.00" y2="320.00" />
<text x="162.20" y="319.80" font-size=".2mm" fill="#000000">-25m</text>
<line fill="none" stroke="#dddddd" stroke-width="0.1mm" x1="22.00" y1="0.00" x2="22.00" y2="334.00" />
<text x="22.40" y="2.00" font-size=".2mm" fill="#000000">0m</text>
<line fill="none" stroke="#dddddd" stroke-width="0.1mm" x1="72.00" y1="0.00" x2="72.00" y2="334.00" />
<text x="72.40" y="2.00" font-size=".2mm" fill="#000000">5m</text>
<line fill="none" stroke="#dddddd" stroke-width="0.1mm" x1="122.00" y1="0.00" x2="122.00" y2="334.00" />
<text x="122.40" y="2.00" font-size=".2mm" fill="#000000">10m</text>
</g>
<g>
<path fill="none" stroke="#000000" stroke-width="0.06mm" d="M82.75401,92.57679 L81.995995,90.2729" /><path fill="none" stroke="#000000" stroke-width="0.06mm" d="M86.23196,83.8963 C86.13486,85.287994 85.84442,86.41535 85.071594,87.5682 C84.98052,87.704056 83.0117,90.090515 82.65765,91.2444 C80.995186,96.66269 81.3407,97.85759 79.10505,101.50131 C78.659485,102.22751 77.771095,103.004814 77.10435,103.43735 C67.7691,109.493355 76.54878,103.74237 65.95195,108.73504 C64.58266,109.38017 57.291042,114.039825 53.350452,115.003654 C52.140503,115.2996 49.705933,115.38178 48.57695,115.236115 C48.241806,115.19287 45.462555,114.31085 44.160797,114.43057 C42.65668,114.56889 42.546787,115.11337 41.178936,115.77025 C40.560028,116.06747 39.89303,116.25189 39.250072,116.49271 L39.250072,116.49271" /><path fill="none" stroke="#000000" stroke-width="0.06mm" d="M38.388016,123.28549 C41.73324,125.64629 46.172066,129.90868 50.845634,128.25156 C51.570595,127.9945 52.004913,127.52084 52.626747,127.03119 L52.626747,127.03119" /><path fill="none" stroke="#000000" stroke-width="0.06mm" d="M53.622574,127.44738 C55.98133,125.70192 58.86266,123.349304 61.638016,122.38521 C64.780846,121.29347 68.07782,120.701836 71.33015,120.00063 C71.91885,119.87371 72.53631,119.83598 73.134384,119.906586 C83.93717,121.18178 71.9591,120.16833 81.76224,121.929436 C84.02172,122.33535 84.788666,122.27169 86.454895,122.18558 L86.454895,122.18558" /><defs><path id="DRAW_6612"  d="M85.34018,122.31935 C84.81557,116.13031 85.3557,124.306274 85.685745,113.652725 C85.74031,111.89162 85.45737,110.133026 85.473145,108.37114 C85.47913,107.7025 85.66648,107.047775 85.750824,106.38445 C86.00749,104.36581 86.41403,102.358665 86.49616,100.325424 C86.63203,96.961716 86.24211,93.58908 86.40345,90.22649 C86.465744,88.92836 86.935036,87.68181 87.1642,86.40254 C87.29794,85.655975 86.43303,85.17695 85.865845,85.00065 C85.38866,84.85232 84.89116,84.7797 84.40382,84.66923 L84.40382,84.66923" /></defs><use xlink:href="#DRAW_6612" fill="none" stroke="#000000" stroke-width="0.04mm" /><text style="fill:#000000; font-size:0.5mm; letter-spacing:2;"><textPath xlink:href="#DRAW_6612">||||||||||||||||||||||||||||||||||||||||||||||||||||||||||||||||||||||||||||||||||||||||||||||||||||||||||||||||||||||||||||||||||||||||||||||||||||||||||||||</textPath></text><path fill="none" stroke="#924216" stroke-width="0.02mm" d="M41.494385,117.399414 C41.15587,117.5406 40.806114,117.65741 40.478836,117.82299 C39.856155,118.138016 40.751396,118.97893 41.225555,118.9975 C41.33586,119.001816 41.45038,119.01276 41.55636,118.98188 C42.67143,118.657 43.781647,118.31334 44.879047,117.93302 C45.019035,117.88451 45.148006,117.72125 45.105442,117.56378 C44.974808,117.080414 43.726612,116.51851 43.3398,116.4003 C42.943398,116.27917 42.52568,116.24391 42.118618,116.16571 L42.118618,116.16571" /><path fill="none" stroke="#924216" stroke-width="0.02mm" d="M40.558006,119.747894 C40.32759,119.98361 40.097168,120.219315 39.86675,120.455025 C39.85276,120.52481 39.810417,120.59466 39.824776,120.66437 C39.860363,120.83708 40.10084,120.94893 40.23211,120.989174 C41.195713,121.284645 42.159836,121.313576 43.087814,120.890076 C43.216923,120.831154 43.74266,120.59102 43.849304,120.346664 C44.04988,119.887085 42.881493,119.70763 42.65593,119.689026 C42.34285,119.66321 42.026962,119.68959 41.71382,119.66449 C41.542503,119.650764 41.294342,119.54823 41.1489,119.46177 C41.060246,119.40907 40.98881,119.32991 40.898697,119.279755 C40.87036,119.263985 40.81024,119.23731 40.802044,119.26869 C40.76793,119.39929 40.797897,119.53862 40.795826,119.673584 L40.795826,119.673584" /><path fill="none" stroke="#924216" stroke-width="0.02mm" d="M40.855267,122.304474 C40.698837,122.60369 40.526527,122.89513 40.385983,123.20213 C40.24866,123.502075 40.27418,123.89656 40.345627,124.20517 C40.544415,125.06379 41.633507,125.55141 42.423897,125.18767 C42.853516,124.98996 43.207817,124.655365 43.46853,124.264435 C43.548485,124.144554 43.9683,123.55987 43.62237,123.406815 C43.530914,123.36634 43.424217,123.36614 43.324368,123.37192 C42.90802,123.396034 42.496086,123.478485 42.07942,123.49617 C41.643818,123.514656 41.0968,123.39943 40.67691,123.33009 L40.67691,123.33009" /><path fill="none" stroke="#924216" stroke-width="0.02mm" d="M45.09122,121.174835 C44.840385,121.38178 43.89923,121.88783 44.33534,122.39657 C44.72453,122.85058 45.52167,123.12514 46.07779,123.24284 C46.20849,123.2705 46.41333,123.349594 46.478455,123.23295 C46.540928,123.121056 46.37543,122.97211 46.259895,122.91667 C45.6918,122.644035 45.074524,122.48872 44.481834,122.27475 L44.481834,122.27475" /><path fill="none" stroke="#924216" stroke-width="0.02mm" d="M46.205944,118.73715 C46.07326,119.0179 45.921833,119.29053 45.807903,119.57939 C45.732273,119.77113 45.839844,120.01124 45.96782,120.149216 C46.200058,120.39959 46.57957,120.5819 46.92634,120.560844 C47.34725,120.535286 48.08263,119.973625 47.753883,119.502106 C47.502518,119.14159 46.68548,118.93493 46.414024,118.82635 L46.414024,118.82635" /><path fill="none" stroke="#924216" stroke-width="0.02mm" d="M48.019234,116.53731 C47.632355,117.12793 47.055202,118.114365 47.81072,118.72386 C48.388428,119.18991 50.503998,117.859436 50.203575,117.55171 C50.11547,117.46146 49.974617,117.443375 49.85357,117.40796 C49.27542,117.238785 48.69012,117.09508 48.1084,116.93864 L48.1084,116.93864" /><path fill="none" stroke="#924216" stroke-width="0.02mm" d="M45.507378,115.85358 C45.259758,115.92424 44.26625,115.83575 43.99032,116.270294 C43.85884,116.477356 43.906406,116.76602 43.9893,116.979004 C44.20844,117.54205 44.579742,117.97661 45.216133,118.01602 C45.46602,118.031494 45.7169,117.99513 45.933884,117.8656 C46.490044,117.533585 46.61944,116.660736 46.800465,116.16571 L46.800465,116.16571" /><path fill="none" stroke="#924216" stroke-width="0.02mm" d="M48.89614,121.561295 C48.399372,122.00363 48.059097,122.20703 47.74629,122.7496 C47.387558,123.37183 47.333824,123.78028 46.89627,124.22592 C46.80837,124.315445 46.709328,124.39397 46.607925,124.46785 C46.17942,124.78005 45.719574,125.05006 45.307434,125.38357 C45.072987,125.57328 44.872726,125.80295 44.675777,126.03135 C44.569283,126.154854 44.36225,126.27704 44.40026,126.43562 C44.507053,126.881165 44.84108,127.23894 45.061493,127.64061 L45.061493,127.64061" /><path fill="none" stroke="#924216" stroke-width="0.02mm" d="M51.794426,117.19132 C51.53551,118.052124 51.242363,118.90335 51.01768,119.77371 C50.830425,120.499115 51.195324,121.05394 50.42092,121.43337 C50.283943,121.50049 49.971867,121.49055 50.011528,121.63783 C50.071632,121.86103 51.162506,121.68416 51.308613,121.63765 C52.218845,121.34793 53.09665,120.283035 52.713623,119.29402 C52.606407,119.01718 52.452194,118.679886 52.172874,118.52696 C51.888878,118.37149 51.64913,118.54578 51.359703,118.55413 C50.9647,118.56552 50.569473,118.567154 50.174355,118.57366 L50.174355,118.57366" /><path fill="none" stroke="#924216" stroke-width="0.02mm" d="M50.709423,124.28137 C50.349045,124.350006 49.982975,124.39355 49.628296,124.487274 C49.272808,124.58122 48.291954,125.061104 48.43399,125.58857 C48.522,125.91539 49.060043,126.13499 49.298996,126.22795 C50.03362,126.51375 50.857105,126.54738 51.353226,125.84804 C51.593746,125.50899 51.738968,125.129814 51.745083,124.71103 C51.752197,124.2236 51.541626,123.945244 51.063442,123.88229 C50.939438,123.865974 50.803986,123.89549 50.690224,123.843506 C50.391888,123.7072 50.82121,123.42195 50.833458,123.359985 C50.866543,123.19264 50.780495,123.02296 50.754017,122.85445 L50.754017,122.85445" /><path fill="none" stroke="#000000" stroke-width="0.06mm" d="M91.22833,87.60168 C91.63428,89.35401 92.00277,91.11544 92.44617,92.85867 C92.5033,93.08333 92.600296,93.30081 92.72724,93.49477 C95.2668,97.375046 97.92812,101.175224 100.44035,105.07325 C101.939186,107.398865 103.21294,109.867004 104.75813,112.16209 C104.873505,112.333466 107.26142,115.71762 108.567116,115.698235 C108.98841,115.691986 109.40365,115.59655 109.82192,115.545715 L109.82192,115.545715" /><path fill="none" stroke="#000000" stroke-width="0.06mm" d="M108.172134,130.24605 C109.90684,131.00653 111.8669,131.6176 113.15681,133.10039 C115.15063,135.39233 113.448524,133.74078 115.08342,135.25516 L115.08342,135.25516" /><path fill="none" stroke="#924216" stroke-width="0.02mm" d="M95.090294,117.45508 C95.04179,117.84262 94.962425,118.22753 94.94477,118.6177 C94.88399,119.96132 95.93005,122.65847 96.08247,123.0952 C96.34136,123.83703 96.722946,124.84967 97.65037,124.747284 C98.08965,124.69879 98.53525,124.616066 98.95581,124.82534 C99.62007,125.15587 101.416855,126.6304 102.37047,125.64259 C102.71962,125.280914 102.8846,124.451775 103.01393,124.13514 C103.20151,123.67588 103.473305,123.38193 103.38182,122.87811 C103.138916,121.540344 100.968185,120.791245 100.20184,119.744064 C99.53295,118.83005 98.93307,117.86719 98.2757,116.94484 C98.006516,116.56714 97.301956,116.4099 96.91365,116.69168 C96.33069,117.11473 95.77734,117.57717 95.2092,118.01991 L95.2092,118.01991" /><path fill="none" stroke="#924216" stroke-width="0.02mm" d="M97.91426,117.66317 C97.99715,118.82033 97.560616,121.02873 98.184,122.06838 C98.28829,122.24231 98.47211,122.39266 98.66637,122.45439 C99.4614,122.70701 100.2466,123.00179 101.06173,123.1791 C103.122856,123.62745 102.92398,123.54787 104.52829,123.29658 L104.52829,123.29658" /><path fill="none" stroke="#924216" stroke-width="0.02mm" d="M99.23706,122.79121 C97.265396,124.98871 98.08046,123.91199 96.710365,125.95721 L96.710365,125.95721" /><path fill="none" stroke="#924216" stroke-width="0.02mm" d="M97.88454,107.86791 C100.39117,110.327225 96.36983,112.59067 97.893814,114.089676 C104.21778,120.30999 97.75868,113.66579 101.43546,117.74868 C101.685425,118.026245 102.04828,117.758255 102.230194,117.566246 C103.8222,115.88597 103.97815,116.0117 103.44298,113.78369 C103.18466,112.7083 102.959366,111.624794 102.680664,110.5545 C102.61125,110.28788 102.307076,109.99998 102.070755,109.8811 C98.777405,108.22443 100.085144,108.49562 97.72104,108.2841 L97.72104,108.2841" /><path fill="none" stroke="#924216" stroke-width="0.02mm" d="M97.73591,113.14457 C98.70566,113.19351 99.89788,113.33923 100.75064,112.71836 C101.62682,112.08043 102.971565,110.07176 103.1163,109.889404 L103.1163,109.889404" /><path fill="none" stroke="#924216" stroke-width="0.02mm" d="M100.63419,116.62271 C99.993515,115.70077 100.35475,116.165596 99.534325,115.24037 L99.534325,115.24037" /><path fill="none" stroke="#924216" stroke-width="0.02mm" d="M99.48973,115.24037 L99.3431,115.21265" /><path fill="none" stroke="#924216" stroke-width="0.02mm" d="M99.430275,114.91336 L99.462006,114.43972" /><path fill="none" stroke="#924216" stroke-width="0.02mm" d="M99.266785,114.095856 L99.40256,113.96408" /><path fill="none" stroke="#924216" stroke-width="0.02mm" d="M100.82741,113.3378 C100.91408,116.16147 100.76615,114.5066 101.52597,118.2726 L101.52597,118.2726" /><path fill="none" stroke="#924216" stroke-width="0.02mm" d="M93.172966,99.484695 C92.15819,99.86246 92.692024,99.75186 91.56777,99.796844 L91.56777,99.796844" /><path fill="none" stroke="#924216" stroke-width="0.02mm" d="M91.62722,99.46983 L91.62921,99.30832" /><path fill="none" stroke="#924216" stroke-width="0.02mm" d="M91.28536,98.3699 L91.28737,98.20841" /><path fill="none" stroke="#924216" stroke-width="0.02mm" d="M90.52736,107.9125 C90.676384,107.06887 90.74373,106.20666 90.97443,105.381615 C91.43456,103.73605 92.07938,102.1475 92.594894,100.51845 C92.769424,99.96694 92.87645,99.39585 93.04385,98.84214 C93.16266,98.4492 93.64728,98.36472 93.98608,98.47606 C95.641525,99.02008 96.50084,100.3338 97.801704,101.56504 C98.07164,101.82054 98.33275,101.96419 98.3158,102.37602 C98.29096,102.97964 97.689384,103.7867 97.35034,104.195076 C97.32141,104.229935 96.38637,105.65986 95.711426,105.67896 C95.17077,105.69427 94.84446,104.93802 94.272484,105.26149 C94.2041,105.30016 94.143005,105.351425 94.085495,105.40495 C93.858055,105.61666 93.66739,105.87009 93.418625,106.056274 C92.486275,106.75409 91.50482,107.38379 90.55026,108.05091 C90.495384,108.089264 90.453156,108.14909 90.390465,108.17259 C90.14988,108.26276 89.89712,108.316284 89.650444,108.38814 L89.650444,108.38814" /><path fill="none" stroke="#924216" stroke-width="0.02mm" d="M94.16879,98.875275 L94.14107,98.63945" /><path fill="none" stroke="#924216" stroke-width="0.02mm" d="M94.19851,98.592865 C94.141884,100.19043 94.024445,101.78701 94.02864,103.38558 C94.03145,104.45727 94.39778,105.29128 94.041534,106.28674 C93.81903,106.90848 93.10731,106.92163 92.596504,107.1509 C92.42136,107.24988 92.24621,107.34886 92.07106,107.44784 C91.985916,107.50325 91.906906,107.56949 91.81562,107.614075 C91.406364,107.813965 90.9865,107.99139 90.57194,108.18004 L90.57194,108.18004" /><path fill="none" stroke="#000000" stroke-width="0.06mm" d="M108.54129,130.71364 C107.01621,130.06024 105.49114,129.40683 103.966064,128.75342 C102.56472,128.04466 101.23135,127.18137 99.76202,126.62714 C96.44837,125.37721 93.050385,124.35793 89.65388,123.35479 C88.66652,123.06317 87.14936,122.91562 86.109795,123.28862 C85.67929,123.443085 85.26973,123.650665 84.84969,123.83168 L84.84969,123.83168" /><path fill="none" stroke="#000000" stroke-width="0.06mm" d="M115.58383,134.72835 C115.63136,135.3953 115.67807,135.98499 116.06705,136.53683 C121.36003,144.04614 118.943214,141.88614 122.53971,144.80603 L122.53971,144.80603" /><path fill="none" stroke="#000000" stroke-width="0.06mm" d="M114.471924,123.68222 C114.42092,123.88156 114.29081,124.23418 114.32692,124.47956 C114.524536,125.8227 115.43138,126.79616 116.45021,127.65518 C118.9788,129.7872 118.72431,129.615 120.369736,130.48776 L120.369736,130.48776" /><path fill="none" stroke="#000000" stroke-width="0.06mm" d="M128.2757,140.05557 C129.89453,144.05457 128.29044,140.34117 132.56235,147.66505 C132.91678,148.2727 132.86531,148.53491 132.85919,149.19635 L132.85919,149.19635" /><path fill="none" stroke="#000000" stroke-width="0.06mm" d="M132.39262,153.90092 L132.13014,153.90315" /><defs><path id="DRAW_6691"  d="M131.36687,152.95782 C129.93082,150.27487 130.32544,150.75636 127.85107,147.79741 C127.31231,147.15315 126.577065,146.64088 125.83807,146.25784 C125.24956,145.95282 124.81712,146.01271 124.239044,145.81267 C123.8554,145.67992 123.47601,145.53519 123.0945,145.39644 L123.0945,145.39644" /></defs><use xlink:href="#DRAW_6691" fill="none" stroke="#000000" stroke-width="0.04mm" /><text style="fill:#000000; font-size:0.5mm; letter-spacing:2;"><textPath xlink:href="#DRAW_6691">|||||||||||||||||||||||||||||||||||||||||||||||</textPath></text><path fill="none" stroke="#000000" stroke-width="0.06mm" d="M133.16638,155.2757 C132.96371,155.10474 132.80206,154.86731 132.55836,154.76282 C132.48242,154.73026 132.5355,154.92879 132.54788,155.0105 C132.57706,155.20319 132.72833,155.39024 132.68204,155.57954 C132.65517,155.68939 132.534,155.40735 132.47432,155.3113 C131.72441,154.1042 132.22159,154.40128 131.61505,154.09799 L131.61505,154.09799" /><path fill="none" stroke="#000000" stroke-width="0.06mm" d="M152.81178,159.82358 L152.8895,159.8251" /><path fill="none" stroke="#000000" stroke-width="0.06mm" d="M22.0,70.0 L22.0,70.0" /><path fill="none" stroke="#000000" stroke-width="0.06mm" d="M133.34756,149.93068 C133.31743,151.6105 133.29639,152.33809 132.59161,153.69847 C132.49272,153.88937 132.09218,154.34265 132.0227,154.42639 L132.0227,154.42639" /><path fill="none" stroke="#000000" stroke-width="0.06mm" d="M22.0,70.0 L22.0,70.0" /><path fill="none" stroke="#000000" stroke-width="0.06mm" d="M200.04726,72.89508 L199.66785,72.82041" /><path fill="none" stroke="#000000" stroke-width="0.06mm" d="M22.0,70.0 L22.0,70.0" /><path fill="none" stroke="#000000" stroke-width="0.06mm" d="M22.0,70.0 L22.0,70.0" /><path fill="none" stroke="#000000" stroke-width="0.06mm" d="M22.0,70.0 L22.0,70.0" /><path fill="none" stroke="#000000" stroke-width="0.06mm" d="M162.29074,107.084595 C162.37607,106.938126 161.79889,106.684326 161.93713,106.44696 C162.06627,106.225235 162.94444,106.28342 163.13744,106.28247 L163.13744,106.28247" /><path fill="none" stroke="#000000" stroke-width="0.06mm" d="M256.4496,42.155617 L256.45355,42.159607" /><path fill="none" stroke="#000000" stroke-width="0.06mm" d="M259.43536,43.548996 L259.43936,43.55298" /><path fill="none" stroke="#000000" stroke-width="0.06mm" d="M267.7956,57.2837 C265.4691,57.226143 266.59637,57.149506 264.41174,57.48275 L264.41174,57.48275" /><path fill="none" stroke="#000000" stroke-width="0.06mm" d="M262.6202,69.425964 C263.17496,69.16133 263.7453,68.92704 264.28452,68.63206 C265.58313,67.92167 264.38837,65.305824 264.3004,64.68191 C262.9215,54.90119 265.3863,67.90089 263.16534,57.153824 C263.12915,56.978786 263.16504,56.78173 263.0802,56.624416 C262.646,55.819332 262.11005,55.073395 261.62497,54.297886 L261.62497,54.297886" /><path fill="none" stroke="#000000" stroke-width="0.06mm" d="M261.42593,53.700733 L261.4299,53.704712" /><path fill="none" stroke="#000000" stroke-width="0.06mm" d="M262.02307,53.10357 L262.02707,53.10756" /><path fill="none" stroke="#000000" stroke-width="0.06mm" d="M263.81458,50.913982 L263.81854,50.91796" /><path fill="none" stroke="#000000" stroke-width="0.06mm" d="M122.014885,145.9029 L122.16094,146.39801" /><defs><path id="DRAW_6733"  d="M135.85626,160.6358 C135.2252,160.91843 134.71571,161.18982 134.49374,161.85994 C134.29343,162.46474 134.59293,163.12347 135.1719,163.38824 C135.4638,163.52173 135.84344,163.54672 136.1384,163.56346 C136.73196,163.59717 137.23996,163.48068 137.62164,163.00476 C138.20714,162.27473 137.50378,161.01733 136.6892,160.80783 C136.67038,160.803 136.33112,160.74069 136.2728,160.77887 C136.14764,160.8608 136.0593,160.98843 135.95256,161.0932 L135.95256,161.0932" /></defs><use xlink:href="#DRAW_6733" fill="none" stroke="#000000" stroke-width="0.04mm" /><text style="fill:#000000; font-size:0.5mm; letter-spacing:2;"><textPath xlink:href="#DRAW_6733">||||||||||||||||||||||||||||||||||||||</textPath></text><path fill="none" stroke="#000000" stroke-width="0.06mm" d="M132.16122,154.3045 C132.32483,155.07516 132.45982,156.43678 132.9372,157.2818 C133.5254,158.32301 134.83057,159.43063 135.88062,159.99673 C136.2906,160.21776 136.739,160.35858 137.16818,160.5395 L137.16818,160.5395" /><path fill="none" stroke="#000000" stroke-width="0.06mm" d="M139.03377,162.77832 C138.02972,165.31787 138.05353,164.80554 137.69849,167.5912 C137.64545,168.00748 137.77328,168.69774 137.83017,169.0976 L137.83017,169.0976" /><defs><path id="DRAW_6737"  d="M136.75897,176.13904 C136.89978,175.71364 137.04047,175.46599 137.04758,175.0562 C137.08902,172.66592 133.095,170.4467 131.8461,169.7039 C130.10138,168.66623 125.22402,166.76447 123.62223,166.14777 C123.02246,165.91687 122.1767,166.23718 121.62678,166.29953 C121.448364,166.31975 121.26703,166.30406 121.08825,166.28737 C116.287384,165.83908 119.023384,165.87753 114.92569,165.99213 L114.92569,165.99213" /></defs><use xlink:href="#DRAW_6737" fill="none" stroke="#000000" stroke-width="0.04mm" /><text style="fill:#000000; font-size:0.5mm; letter-spacing:2;"><textPath xlink:href="#DRAW_6737">||||||||||||||||||||||||||||||||||||||||||||||||||||||||||||||||||||||||||||||||||||||||||||||||||||||||||</textPath></text><path fill="none" stroke="#000000" stroke-width="0.06mm" d="M122.219505,144.79552 C122.275955,146.81277 122.023186,148.42474 121.188995,150.24707 C120.85161,150.98415 120.15708,151.74344 119.359985,151.98965 C117.110565,152.68452 114.832886,153.28592 112.585335,153.98679 C112.0387,154.15726 111.45388,154.69615 111.40077,155.29785 C111.20506,157.51517 111.93953,159.7545 112.705376,161.79681 C113.06449,162.75449 113.47724,163.6932 113.93208,164.60928 C114.027016,164.80049 114.13197,165.08327 114.34488,165.09889 C114.537674,165.11305 114.6037,164.8117 114.73312,164.6681 L114.73312,164.6681" /><path fill="none" stroke="#000000" stroke-width="0.06mm" d="M112.59378,171.25764 C111.78706,171.85495 111.074936,172.60773 110.173645,173.04958 C88.05637,183.89233 109.52427,172.50195 87.67763,182.03334 C84.99305,183.20459 82.48644,184.7526 79.96199,186.23782 C78.28471,187.22464 76.508896,189.9378 75.486885,190.97443 C75.23111,191.23387 74.842354,191.3143 74.520096,191.48424 L74.520096,191.48424" /><path fill="none" stroke="#000000" stroke-width="0.06mm" d="M114.97095,164.78825 C114.642715,169.32433 115.17852,168.52423 111.79489,170.84845 L111.79489,170.84845" /><path fill="none" stroke="#000000" stroke-width="0.06mm" d="M133.50116,181.37094 C133.03848,181.7 132.5986,182.06372 132.1131,182.35811 C131.8511,182.517 131.57089,182.66708 131.26982,182.724 C129.41833,183.07396 127.55266,183.35413 125.68123,183.57385 C123.522415,183.8273 121.3324,183.80493 119.18518,184.14279 C117.15224,184.46269 115.12131,184.88245 113.17199,185.54224 C106.87709,187.67294 100.67984,190.08542 94.48903,192.50192 C93.68181,192.81702 92.88006,193.1956 92.19745,193.72939 C86.336464,198.31248 86.03057,198.2792 83.05453,202.49388 L83.05453,202.49388" /><defs><path id="DRAW_6750"  d="M85.21736,202.0652 C83.68873,200.14792 82.24492,197.97574 79.7047,197.46158 C79.405136,197.40097 79.09744,197.35144 78.792366,197.37003 C77.96793,197.42023 77.09154,197.3416 76.33234,197.6669 C75.81792,197.88733 75.57882,198.49458 75.202065,198.90843 L75.202065,198.90843" /></defs><use xlink:href="#DRAW_6750" fill="none" stroke="#000000" stroke-width="0.04mm" /><text style="fill:#000000; font-size:0.5mm; letter-spacing:2;"><textPath xlink:href="#DRAW_6750">||||||||||||||||||||||||||||||||||||||||||||||||||</textPath></text><path fill="none" stroke="#000000" stroke-width="0.06mm" d="M76.897255,189.32127 C76.20804,190.61176 74.29484,193.63261 73.87001,195.62935 C71.25709,207.91042 73.90604,197.09737 72.9418,200.99347 L72.9418,200.99347" /><path fill="none" stroke="#000000" stroke-width="0.06mm" d="M73.00136,202.1594 L74.57771,201.94986" /><path fill="none" stroke="#000000" stroke-width="0.06mm" d="M77.01209,196.47218 C76.87436,196.79623 76.18318,199.01294 75.45319,199.88799 C74.88078,200.57413 74.22686,201.19507 73.70673,201.92165 C73.58791,202.08763 73.6156,202.31961 73.57004,202.51859 L73.57004,202.51859" /><path fill="none" stroke="#000000" stroke-width="0.06mm" d="M76.523224,217.884 C76.46724,217.2956 76.49527,216.69301 76.355286,216.11876 C76.09657,215.05746 75.68864,214.03807 75.33386,213.00491 C74.37161,210.20274 73.34239,207.42358 72.40437,204.61322 C72.338455,204.41573 72.16814,203.52805 72.22526,203.205 C72.277145,202.9116 72.39679,202.6343 72.48256,202.34895 L72.48256,202.34895" /><path fill="none" stroke="#000000" stroke-width="0.06mm" d="M79.70587,231.86255 C79.56772,231.11708 79.51259,231.49222 80.00518,230.76501 L80.00518,230.76501" /><path fill="none" stroke="#000000" stroke-width="0.06mm" d="M80.51401,231.03441 C79.247635,231.07492 79.03133,230.92749 77.70296,230.2749 C77.411674,230.1318 77.05168,229.89511 76.831894,229.62445 C76.66166,229.41483 76.4819,229.04279 76.45633,228.79573 C75.96855,224.08403 75.53259,223.02962 76.003525,219.55807 C76.29175,217.43333 76.08472,220.35869 76.213936,217.99376 L76.213936,217.99376" /><defs><path id="DRAW_6778"  d="M86.172005,218.95857 C85.633194,218.54724 85.12775,218.08806 84.55556,217.72458 C83.24225,216.89024 80.87024,215.9877 79.28836,216.66502 C78.96133,216.80505 77.607056,217.42633 77.35912,217.90182 C77.11639,218.36734 77.097145,218.91862 76.966156,219.42705 L76.966156,219.42705" /></defs><use xlink:href="#DRAW_6778" fill="none" stroke="#000000" stroke-width="0.04mm" /><text style="fill:#000000; font-size:0.5mm; letter-spacing:2;"><textPath xlink:href="#DRAW_6778">||||||||||||||||||||||||||||||||||||||||||||||</textPath></text><defs><path id="DRAW_6780"  d="M88.79934,237.96202 C88.96637,238.72353 89.07999,239.6269 89.71159,240.18506 C89.88893,240.34178 90.06506,240.59497 90.30127,240.58044 C90.91932,240.54247 91.48604,240.21986 92.078415,240.03958 L92.078415,240.03958" /></defs><use xlink:href="#DRAW_6780" fill="none" stroke="#000000" stroke-width="0.04mm" /><text style="fill:#000000; font-size:0.5mm; letter-spacing:2;"><textPath xlink:href="#DRAW_6780">||||||||||||||||||||</textPath></text><defs><path id="DRAW_6781"  d="M96.37585,241.62827 C94.94267,240.12727 93.72537,239.50232 91.7138,238.88632 C90.51105,238.518 89.255775,238.19644 88.09982,238.82857 C87.99138,238.88786 86.723404,239.58463 86.59564,239.97481 C86.43992,240.45038 86.47615,240.96848 86.41641,241.46532 L86.41641,241.46532" /></defs><use xlink:href="#DRAW_6781" fill="none" stroke="#000000" stroke-width="0.04mm" /><text style="fill:#000000; font-size:0.5mm; letter-spacing:2;"><textPath xlink:href="#DRAW_6781">||||||||||||||||||||||||||||||||||||||||||||||||||</textPath></text><path fill="none" stroke="#000000" stroke-width="0.06mm" d="M84.97036,203.15291 C83.73283,203.73026 82.34894,204.35281 81.77971,205.70085 C81.00883,207.52643 82.67609,211.04773 82.94794,211.76772 C83.75714,213.91084 85.069984,215.84076 85.87703,217.98471 C86.63437,219.99661 87.04233,222.1232 87.624985,224.19244 C89.60757,228.45432 91.734665,232.6519 93.572716,236.97806 C94.69377,240.91537 94.066734,239.50842 94.97052,241.38385 L94.97052,241.38385" /><path fill="none" stroke="#000000" stroke-width="0.06mm" d="M82.302284,231.7294 C83.98925,232.86125 84.381256,232.9442 85.625336,234.3466 C86.126945,234.91203 86.6688,235.7103 86.91012,236.45003 C88.662544,241.82167 90.3285,247.22115 92.03769,252.60669 L92.03769,252.60669" /><path fill="none" stroke="#000000" stroke-width="0.06mm" d="M99.30867,238.736 C97.4474,238.32658 98.60054,238.40799 95.86667,239.16373 L95.86667,239.16373" /><path fill="none" stroke="#000000" stroke-width="0.06mm" d="M95.307205,240.81058 C95.286446,240.98352 95.25141,241.15532 95.2449,241.32936 C95.24133,241.4248 95.240234,241.52602 95.27714,241.6141 C95.55508,242.27751 95.854774,242.93265 96.18443,243.57191 C96.296265,243.78877 96.43878,243.99103 96.598145,244.1758 C97.31741,245.0098 98.05942,245.82446 98.81674,246.62408 C98.91885,246.73189 99.04274,246.81963 99.17176,246.89314 C99.58592,247.12906 100.01857,247.331 100.44197,247.5499 L100.44197,247.5499" /><path fill="none" stroke="#000000" stroke-width="0.06mm" d="M93.50529,252.74355 C92.94932,252.54774 93.2619,252.64076 92.56037,252.48718 L92.56037,252.48718" /><path fill="none" stroke="#000000" stroke-width="0.06mm" d="M92.5384,252.48718 L92.29034,252.5541" /><path fill="none" stroke="#000000" stroke-width="0.06mm" d="M92.25272,252.53113 L92.11453,252.54677" /><path fill="none" stroke="#000000" stroke-width="0.06mm" d="M92.091576,252.61902 L92.20976,252.56874" /><path fill="none" stroke="#000000" stroke-width="0.06mm" d="M92.35527,252.54578 C92.63977,252.7405 92.92426,252.93521 93.20877,253.12994 C93.38053,253.25789 93.54006,253.40417 93.72408,253.51376 C94.23107,253.81567 94.78647,254.03532 95.27783,254.36205 C95.9891,254.83504 96.614426,255.42891 97.32254,255.90662 C97.87887,256.28192 98.70816,256.52524 99.343124,256.6591 C100.627075,256.92975 102.05025,256.42017 103.247406,256.17914 L103.247406,256.17914" /><path fill="none" stroke="#000000" stroke-width="0.06mm" d="M105.06728,246.38205 C104.358505,246.73639 103.640045,247.072 102.94092,247.44505 C102.56393,247.64621 102.33208,248.27065 101.81971,248.1378 C101.566895,248.07227 101.32129,247.98149 101.07209,247.90335 L101.07209,247.90335" /><path fill="none" stroke="#000000" stroke-width="0.06mm" d="M101.40035,247.87132 C101.54965,248.09715 101.68334,248.3341 101.84826,248.5488 C101.93575,248.6627 102.03533,248.7715 102.154,248.85242 C102.80835,249.29869 103.47198,249.73366 104.16026,250.12558 C104.36325,250.24117 104.585365,250.3421 104.81739,250.36897 C108.201324,250.76099 111.609215,250.93773 114.98697,251.37982 C117.51675,251.7109 120.02368,252.20238 122.52858,252.68709 C122.907135,252.76033 123.638756,253.05414 124.00519,253.31378 C124.64686,253.76846 125.172516,254.4469 125.45064,255.18263 C126.63052,258.3036 126.03822,259.35214 126.20211,263.24747 C126.23361,263.99606 126.656906,265.26953 126.996346,265.86807 C133.17197,267.13928 127.64935,268.15738 128.77715,268.39026 C129.25427,268.48883 129.57147,267.80966 129.96506,267.724 C130.06433,267.7024 129.90056,267.91797 129.85092,268.0066 C129.68732,268.2987 129.48792,268.56995 129.3269,268.86346 C129.2378,269.02594 129.1518,269.26047 129.16971,269.45743 C129.19012,269.68176 129.23083,269.9045 129.23917,270.12964 C129.2549,270.5548 129.19855,270.98282 129.24182,271.40613 C129.37292,272.68884 129.99568,273.93515 130.77037,274.94318 C131.66837,276.1117 132.53174,277.3214 133.58305,278.35413 C135.2855,280.02646 137.59903,281.01727 138.70862,283.20496 C138.84525,283.4744 139.10638,284.09763 139.04878,284.4419 C139.03099,284.54822 138.97458,284.6543 138.89395,284.72656 C138.8461,284.76947 138.77357,284.78824 138.74045,284.84332 C138.62923,285.02826 138.56015,285.23547 138.47002,285.43155 L138.47002,285.43155" /><path fill="none" stroke="#000000" stroke-width="0.06mm" d="M104.75504,254.54904 C104.73179,254.57535 104.56717,255.74155 104.774315,255.81656 C104.95241,255.88104 105.1511,255.77757 105.33951,255.75807 L105.33951,255.75807" /><path fill="none" stroke="#000000" stroke-width="0.06mm" d="M104.090515,257.07922 C104.44004,256.93594 104.77877,256.76273 105.13912,256.64935 C106.25057,256.2996 107.35249,256.41815 108.40511,256.88745 C108.645515,256.99463 108.88095,257.11996 109.09137,257.2781 C110.14694,258.07147 110.89395,259.01306 111.598015,260.1658 C112.629715,261.85492 112.664894,263.0173 114.09256,264.20404 C119.34926,268.57355 116.84364,265.5261 120.52164,269.94507 C120.69247,270.1503 120.83247,270.3817 120.953926,270.6195 C121.52531,271.7385 121.439384,273.07092 121.64476,274.27438 C121.958466,276.11264 121.63731,275.69214 122.22502,276.34378 L122.22502,276.34378" /><path fill="none" stroke="#000000" stroke-width="0.06mm" d="M123.62614,275.62317 C123.12904,275.82272 123.02677,275.91064 122.55162,275.96878 C122.51644,275.97308 122.48134,275.95856 122.447014,275.94974 C122.31364,275.9154 122.18159,275.87613 122.048874,275.8393 L122.048874,275.8393" /><path fill="none" stroke="#000000" stroke-width="0.06mm" d="M122.64935,276.2797 C126.19824,279.98676 123.88331,277.68427 133.8813,283.86203 C134.50555,284.24774 135.23169,284.43933 135.88663,284.77032 C136.04608,284.85092 136.86922,285.39624 136.90942,285.68646 C136.9177,285.74606 136.85562,285.7941 136.8287,285.84793 L136.8287,285.84793" /><path fill="none" stroke="#000000" stroke-width="0.06mm" d="M131.4484,309.88455 L131.54555,309.93365" /><path fill="none" stroke="#000000" stroke-width="0.06mm" d="M137.05084,287.50348 C134.23853,300.7722 138.23949,282.75476 134.9892,294.88214 C134.66505,296.0916 134.57986,297.3542 134.30379,298.5755 C134.03033,299.78528 133.6231,300.9619 133.34186,302.16995 C133.20337,302.7648 133.19356,303.3855 133.04599,303.97815 C132.6527,305.55762 132.13268,307.1032 131.72125,308.67804 C131.67754,308.84534 131.65001,309.36694 131.74753,309.5774 C131.94356,310.00043 132.30423,310.4713 132.56847,310.8037 C132.61087,310.85706 133.33267,311.85086 133.75815,312.13522 C134.26697,312.47528 134.31897,312.43286 135.00151,312.7035 C136.61276,313.3423 130.20322,311.1134 137.85202,313.48724 C140.10526,314.18655 137.85693,313.70782 139.26402,314.03964 C139.51239,314.0982 139.86374,313.90393 139.99399,313.6963 C140.06247,313.5872 140.06564,313.4821 140.09705,313.34842 L140.09705,313.34842" /><path fill="none" stroke="#000000" stroke-width="0.06mm" d="M138.94815,285.45178 C138.6752,286.8472 138.76826,286.832 138.29636,287.94354 C137.98486,288.67725 137.77133,288.87073 137.63623,289.62448 C135.88779,299.37833 137.83942,289.93997 136.52354,295.35333 C136.32181,296.1832 136.22247,297.03857 135.97574,297.85617 C135.6037,299.089 135.05574,300.26343 134.67096,301.49228 C134.55865,301.85092 134.54102,302.23276 134.4888,302.60495 C134.3848,303.34595 134.34439,304.09677 134.20233,304.83148 C134.0166,305.79205 133.71352,306.7267 133.5069,307.68304 C133.48718,307.77432 133.43536,308.29575 133.48718,308.48697 C133.56653,308.7798 133.69406,309.1155 133.86497,309.37482 C134.47473,310.3 134.4631,310.25427 135.3538,311.03198 C135.40695,311.07837 135.4699,311.1131 135.53314,311.14432 C135.60457,311.1796 135.6789,311.21063 135.75601,311.23062 C136.30516,311.37314 136.87015,311.45752 137.41017,311.63147 C137.82434,311.7649 138.2138,311.96603 138.60837,312.14948 C139.35138,312.49493 139.73544,312.66052 140.32901,313.08838 C140.42767,313.1595 140.51576,313.24423 140.60913,313.32217 L140.60913,313.32217" /><path fill="none" stroke="#000000" stroke-width="0.02mm" d="M140.99648,313.68 C141.07037,314.65277 141.13403,314.28854 141.01616,314.78955 L141.01616,314.78955" /><path fill="none" stroke="#000000" stroke-width="0.02mm" d="M141.33784,314.10675 C141.41777,314.43546 141.40045,314.63623 141.3674,314.95697 L141.3674,314.95697" /><path fill="none" stroke="#000000" stroke-width="0.02mm" d="M140.75029,314.23148 C141.88376,314.19003 141.40706,314.14294 142.18802,314.27087 L142.18802,314.27087" /><path fill="none" stroke="#000000" stroke-width="0.02mm" d="M140.92426,314.70746 C141.37007,314.63922 141.4078,314.60538 141.86775,314.6517 C141.91791,314.65674 141.9631,314.6845 142.01077,314.70093 L142.01077,314.70093" /><path fill="none" stroke="#000000" stroke-width="0.06mm" d="M110.08608,116.25914 C110.766716,115.2849 111.17409,114.87663 111.54135,113.7967 C111.68578,113.371994 111.779755,112.930435 111.85814,112.48874 C112.22601,110.41583 112.557175,108.33647 112.879555,106.25601 C112.93689,105.88607 112.90557,105.50212 112.99701,105.1391 C113.289055,103.97966 113.73625,102.86293 114.026405,101.70302 C115.39072,96.2491 115.50971,92.48947 117.992294,87.93038 C119.162636,85.78115 120.69542,83.83935 121.82331,81.66754 C122.90809,79.578766 126.19383,72.74424 126.979095,69.195335 C127.69841,65.94448 128.23264,62.654484 128.76505,59.367844 C128.82411,59.00322 128.8435,58.617302 128.75055,58.25981 C128.65475,57.891327 128.39331,57.587334 128.2147,57.251095 L128.2147,57.251095" /><path fill="none" stroke="#000000" stroke-width="0.06mm" d="M115.64509,123.550606 C116.09387,121.60742 116.434326,119.635994 116.99147,117.721054 C117.26117,116.79407 117.75719,115.94829 118.11754,115.052635 C118.3246,114.537994 118.44756,113.98856 118.69327,113.49122 C118.99119,112.8882 119.35001,112.31407 119.740875,111.76672 C119.954636,111.467384 120.09128,111.84789 120.15866,111.94702 C120.390305,112.753815 120.78163,113.531105 120.85357,114.3674 C121.11992,117.46403 121.02223,120.58165 121.16841,123.68628 C121.22073,124.797356 121.33685,125.90474 121.44891,127.01139 C121.541336,127.92427 122.14911,130.18709 120.975235,130.91771 C120.53331,131.19278 119.88986,131.13086 119.42257,131.1555 L119.42257,131.1555" /><path fill="none" stroke="#000000" stroke-width="0.06mm" d="M129.66632,140.36055 C129.46017,139.68306 129.2878,138.99435 129.04788,138.32808 C128.77805,137.57864 128.3816,136.87677 128.13873,136.11813 C127.75387,134.91606 127.72067,133.12117 127.87538,131.9712 C128.2539,129.15762 129.11708,126.40977 129.32288,123.57829 C135.88504,33.2904 125.91504,138.72346 133.04544,81.99517 C133.40456,79.13821 133.18904,76.23639 133.38115,73.36336 C133.44029,72.47883 133.71878,71.6197 133.79825,70.73676 C133.84149,70.256454 133.7703,69.77262 133.74774,69.2909 C133.66125,67.44416 133.40057,65.59892 133.47113,63.751507 C133.5527,61.6163 133.95877,59.505886 134.20259,57.383076 L134.20259,57.383076" /><path fill="none" stroke="#000000" stroke-width="0.06mm" d="M128.09924,55.419983 C128.17853,54.79013 128.2578,54.160282 128.3371,53.530434 C128.39172,53.284744 128.50517,53.04502 128.50096,52.793373 C128.4917,52.2406 128.3651,51.696045 128.29718,51.147385 L128.29718,51.147385" /><path fill="none" stroke="#000000" stroke-width="0.06mm" d="M130.0292,48.540936 C130.75601,46.331646 131.31564,46.024605 133.01491,44.18586 L133.01491,44.18586" /><path fill="none" stroke="#000000" stroke-width="0.06mm" d="M136.413,54.21574 C136.59973,51.422356 136.31471,52.058643 137.74913,50.091614 L137.74913,50.091614" /><path fill="none" stroke="#000000" stroke-width="0.06mm" d="M42.62238,116.59161 C41.949562,116.78746 41.243496,116.969025 41.18381,116.10284 C41.15615,115.70143 41.239883,115.303024 41.448498,114.95592 C41.544144,114.796776 41.66211,114.652084 41.773453,114.5035 C42.09503,114.07438 42.44213,113.66394 42.747177,113.22291 C43.040573,112.79871 43.36714,111.959305 43.543884,111.552765 L43.543884,111.552765" /><path fill="none" stroke="#000000" stroke-width="0.06mm" d="M41.7306,114.332306 C41.857986,114.75211 41.90101,115.21307 42.189404,115.55906 C43.21377,116.78801 45.59285,115.52005 46.532127,115.30109 C46.951935,115.20322 47.385666,115.162704 47.81657,115.15086 C47.934563,115.14762 48.244446,115.179985 48.15456,115.2565 C47.97713,115.40755 47.70912,115.39853 47.47945,115.43784 C46.39752,115.62303 45.344307,115.19272 44.254227,115.32261 C43.821323,115.37419 43.363785,115.52666 43.02416,115.80984 C42.648422,116.12312 42.62523,116.28284 42.24708,116.44361 C41.90817,116.5877 41.21389,116.61896 40.898277,116.66593 L40.898277,116.66593" /><path fill="none" stroke="#000000" stroke-width="0.06mm" d="M41.00231,116.33893 C40.57216,116.30333 40.1381,116.30003 39.711845,116.232124 C38.81778,116.089676 37.050423,115.16234 36.672184,114.9317 C35.930717,114.47955 33.59735,113.02956 32.916283,111.82435 C32.105095,110.388885 31.903519,106.68094 31.857506,105.94202 C31.784824,104.77484 32.05648,103.31142 32.61661,102.25268 C32.751564,101.9976 33.02675,101.659836 33.260456,101.48787 C34.90767,100.27577 36.64601,99.18544 38.243332,97.90832 C39.944283,96.54834 40.870533,95.24371 41.953545,93.47834 L41.953545,93.47834" /><path fill="none" stroke="#000000" stroke-width="0.06mm" d="M58.139328,184.31128 C53.124535,186.57547 55.824078,185.16605 48.99341,189.83086 C48.753403,189.99477 48.704636,190.32616 48.806362,190.57764 C49.267227,191.71693 51.558983,192.67973 52.34277,193.11069 L52.34277,193.11069" /><path fill="none" stroke="#000000" stroke-width="0.06mm" d="M37.49465,85.9275 C35.53842,83.751976 33.788006,81.667496 31.521336,79.77473 C28.164803,76.97187 27.437218,77.36153 25.324018,74.5898 C24.140667,73.03768 23.540379,71.24351 23.003246,69.39891 L23.003246,69.39891" /><path fill="none" stroke="#000000" stroke-width="0.06mm" d="M42.37575,93.86344 C49.87796,82.457 42.0131,93.94794 49.984177,83.60989 C50.65268,82.74289 51.115532,81.73021 51.778217,80.85875 C52.148582,80.371704 52.597984,79.94423 53.068813,79.55346 C54.756638,78.15264 56.47772,76.78974 58.245457,75.49122 C59.24029,74.76045 60.290535,74.106064 61.34908,73.47108 C61.5768,73.33447 61.83216,73.238 62.09211,73.18374 C64.08867,72.767006 65.0995,73.00913 67.3878,73.13438 C68.03308,73.16969 68.67749,73.21957 69.322334,73.26216 L69.322334,73.26216" /><path fill="none" stroke="#000000" stroke-width="0.06mm" d="M69.7831,73.82697 C71.92506,73.89571 71.83991,73.72065 73.35228,74.14045 C73.80458,74.26601 74.23868,74.45921 74.698425,74.55397 C75.15465,74.648 75.62291,74.67435 76.08777,74.70426 C77.748344,74.8111 79.414474,74.82947 81.07303,74.9641 C82.53352,75.082664 83.634125,76.146255 84.48973,77.227196 C84.87041,77.70814 85.413574,78.45121 85.62003,79.128586 C85.6996,79.389656 85.71152,79.653305 85.69603,79.92349 C85.58241,81.90507 85.45186,83.88563 85.32977,85.8667 L85.32977,85.8667" /><path fill="none" stroke="#000000" stroke-width="0.06mm" d="M90.75477,87.01121 C90.905304,84.786316 91.25033,82.566086 91.20637,80.33654 C91.16772,78.37636 90.897865,76.41786 90.508,74.49645 C90.28212,73.383255 89.784035,72.34216 89.36965,71.28456 C88.73791,69.67218 87.30283,68.41008 85.78174,67.649826 C83.25295,66.38593 78.753174,66.58113 76.40001,66.5596 C75.40063,66.55046 74.40102,66.775215 73.4048,66.695175 C71.34701,66.52983 69.33269,65.96273 67.27278,65.82625 C67.24325,65.824295 59.95359,66.95806 58.492382,64.73022 C58.269585,64.390526 58.122326,64.006905 57.937298,63.64525 L57.937298,63.64525" /><path fill="none" stroke="#000000" stroke-width="0.06mm" d="M36.71296,85.18295 C37.454338,84.80266 38.220474,84.46719 38.937088,84.042076 C39.28125,83.83791 39.596207,83.58189 39.882732,83.30254 C41.48197,81.74339 43.12007,80.2155 44.58837,78.53246 C45.485027,77.50468 46.281578,76.38071 46.955788,75.19505 C47.896187,73.54128 48.569626,71.749016 49.414883,70.04466 C50.126198,68.61038 50.730335,68.174446 50.47605,66.600586 C50.136345,64.49802 49.024086,63.505188 47.71157,61.608894 L47.71157,61.608894" /><path fill="none" stroke="#000000" stroke-width="0.06mm" d="M59.40873,64.43303 C52.667652,57.677692 54.95365,60.479855 51.91779,56.58492 L51.91779,56.58492" /><path fill="none" stroke="#000000" stroke-width="0.06mm" d="M51.306828,59.761242 L51.36827,60.17943" /><path fill="none" stroke="#000000" stroke-width="0.06mm" d="M51.856754,60.41526 L51.90334,60.476707" /><path fill="none" stroke="#000000" stroke-width="0.06mm" d="M53.14983,58.482956 L53.09238,58.544407" /><path fill="none" stroke="#000000" stroke-width="0.06mm" d="M48.319355,61.69354 C47.16703,56.572742 46.972,57.3196 47.38318,51.627075 C47.594673,48.699005 48.18804,45.804398 48.349148,42.873123 C48.48258,40.445496 48.242676,38.01091 48.265182,35.57972 C48.268635,35.20663 48.305084,34.8248 48.426918,34.472145 C54.217487,17.710896 48.841656,35.366062 52.570374,21.187637 C52.74463,20.525032 53.050797,19.903812 53.26063,19.251595 C53.30873,19.102093 53.400852,18.93343 53.342518,18.787613 C53.183704,18.390621 52.877174,18.07016 52.644497,17.71143 L52.644497,17.71143" /><path fill="none" stroke="#000000" stroke-width="0.06mm" d="M52.24319,51.31858 C50.754013,52.876766 50.4395,53.802807 50.54882,55.911514 L50.54882,55.911514" /><path fill="none" stroke="#000000" stroke-width="0.06mm" d="M50.548817,55.911514 L50.77375,55.943237" /><path fill="none" stroke="#000000" stroke-width="0.06mm" d="M50.920387,55.85205 L50.981834,55.854053" /><path fill="none" stroke="#000000" stroke-width="0.06mm" d="M51.187912,55.465588 L52.510727,48.568768" /><path fill="none" stroke="#000000" stroke-width="0.06mm" d="M53.00121,45.37304 L53.729492,41.686813" /><path fill="none" stroke="#000000" stroke-width="0.06mm" d="M54.561813,34.195435 L54.563816,33.4691" /><path fill="none" stroke="#000000" stroke-width="0.06mm" d="M58.530235,20.059914 C53.680595,36.591564 56.887638,23.581833 54.44919,39.645195 C54.224125,41.127827 53.628174,42.544174 53.463352,44.034706 C53.24299,46.027485 53.45605,48.048473 53.298927,50.04723 C53.21812,51.075157 52.93389,52.076855 52.751373,53.091667 C52.69593,54.30907 52.640488,55.526478 52.58505,56.743885 L52.58505,56.743885" /><path fill="none" stroke="#000000" stroke-width="0.06mm" d="M73.73506,4.2447815 C75.38949,6.011982 75.0099,5.914749 76.7374,6.6081314 L76.7374,6.6081314" /><path fill="none" stroke="#000000" stroke-width="0.06mm" d="M58.72345,8.67421 C59.16866,7.7502213 59.61459,6.9363785 60.46833,6.3578186 C61.01692,5.9860535 62.302906,5.638977 62.480278,6.6041336 C62.673786,7.6571045 62.206764,8.701805 61.99499,9.702763 C61.91861,10.0637665 61.910465,10.437347 61.828926,10.797218 C61.676662,11.46925 61.619534,11.289879 61.439686,11.813683 C61.381447,11.983303 61.3446,12.229111 61.35709,12.408745 C61.38328,12.785538 61.498135,13.150452 61.737476,13.447105 C62.427483,14.30233 63.99653,14.566811 64.88813,13.884335 C65.82324,13.16856 66.50369,12.261765 67.29939,11.379433 L67.29939,11.379433" /><path fill="none" stroke="#000000" stroke-width="0.06mm" d="M66.83864,17.681702 C67.20411,17.628677 67.574974,17.604618 67.93506,17.522636 C68.00647,17.506374 68.067024,17.449955 68.11163,17.391869 C68.43129,16.975716 67.634964,16.330143 67.47775,16.150726 L67.47775,16.150726" /><path fill="none" stroke="#000000" stroke-width="0.06mm" d="M68.10199,15.43726 C67.785904,16.140915 67.469826,16.844574 67.15374,17.548237 C67.12267,17.760578 66.93703,18.360767 67.060524,18.185265 C67.3403,17.787647 67.47896,17.305943 67.645615,16.849216 C67.747086,16.57114 67.82988,16.282253 67.86229,15.988022 C67.86997,15.918282 67.83057,15.810707 67.76077,15.80365 C67.634895,15.79092 67.18677,16.093803 67.20246,16.238674 C67.21368,16.342281 67.401764,16.30294 67.4942,16.351074 C67.97604,16.602028 67.90292,17.058788 68.11685,17.637104 L68.11685,17.637104" /><path fill="none" stroke="#26B8EE" stroke-width="0.06mm" d="M71.29755,15.377804 C71.38034,17.004097 71.463135,18.63039 71.54593,20.256683 C71.581985,20.32766 71.59544,20.415806 71.65412,20.46962 C71.91455,20.708447 72.63707,20.10035 72.980316,20.031517 C73.432465,19.940853 73.74274,20.113419 74.187515,20.208801 C74.94946,20.372196 75.745705,19.747204 76.07924,19.113106 C76.56312,18.1932 76.35951,16.11422 76.33609,15.110249 L76.33609,15.110249" /><path fill="none" stroke="#26B8EE" stroke-width="0.06mm" d="M79.18979,17.443878 C78.61107,17.975159 78.03276,18.557304 78.37368,19.383472 C78.55492,19.822655 79.16234,19.738926 79.51155,19.633556 C80.38309,19.370583 81.03,18.892166 81.349396,18.018524 C81.67253,17.13467 81.51161,15.123104 80.10838,15.671295 C79.36575,15.961414 78.99596,16.133926 78.40659,16.587036 C77.90985,16.96894 77.90977,18.099785 77.83725,18.39516 L77.83725,18.39516" /><path fill="none" stroke="#26B8EE" stroke-width="0.06mm" d="M83.73786,16.002087 C83.77565,18.804703 83.552734,19.510136 83.88648,18.2168 L83.88648,18.2168" /><path fill="none" stroke="#26B8EE" stroke-width="0.06mm" d="M83.559494,15.734539 C84.04763,15.6276245 84.63927,15.396252 85.183975,15.450371 C86.11942,15.54332 86.979744,16.59016 86.83537,17.534767 C86.74661,18.115517 86.40296,18.587448 86.00813,19.008236 C85.92203,19.100002 84.85269,20.053158 84.64321,19.836521 C84.441635,19.628067 84.37653,19.321526 84.243195,19.06403 L84.243195,19.06403" /><path fill="none" stroke="#26B8EE" stroke-width="0.06mm" d="M88.25621,20.22342 C88.44418,19.264381 88.59844,18.298115 88.82014,17.346313 C88.893745,17.030289 89.25729,17.109604 89.42329,17.266064 C90.08942,17.893944 90.460075,18.521194 90.84236,19.331585 L90.84236,19.331585" /><path fill="none" stroke="#26B8EE" stroke-width="0.06mm" d="M88.0927,18.737038 C88.94034,18.761524 90.18734,18.922161 91.08048,18.616291 C91.70122,18.40371 92.27922,18.082413 92.87859,17.815472 L92.87859,17.815472" /><use xlink:href="#entrance" width="3.6" height="3.6" x="-1.8" y="-1.8" transform="translate(78.072174 108.19869) rotate(238)"/>
<use xlink:href="#entrance" width="3.6" height="3.6" x="-1.8" y="-1.8" transform="translate(78.42888 116.44812) rotate(277)"/>
<use xlink:href="#entrance" width="3.6" height="3.6" x="-1.8" y="-1.8" transform="translate(69.86781 115.11038) rotate(258)"/>
<use xlink:href="#entrance" width="3.6" height="3.6" x="-1.8" y="-1.8" transform="translate(62.421463 116.121124) rotate(256)"/>
<text x="88.25332" y="74.398315" font-family="sans-serif" font-size=".2mm" fill="black">okienko</text>
<use xlink:href="#clay" width="3.6" height="3.6" x="-1.8" y="-1.8" transform="translate(63.045704 107.27335) rotate(0)"/>
<use xlink:href="#clay" width="3.6" height="3.6" x="-1.8" y="-1.8" transform="translate(114.129776 130.00017) rotate(0)"/>
<use xlink:href="#clay" width="3.6" height="3.6" x="-1.8" y="-1.8" transform="translate(112.866425 121.82504) rotate(0)"/>
<use xlink:href="#clay" width="3.6" height="3.6" x="-1.8" y="-1.8" transform="translate(119.40613 129.8664) rotate(0)"/>
<use xlink:href="#water" width="3.6" height="3.6" x="-1.8" y="-1.8" transform="translate(141.99663 170.88742) rotate(267)"/>
<use xlink:href="#water" width="3.6" height="3.6" x="-1.8" y="-1.8" transform="translate(116.80252 178.37009) rotate(249)"/>
<use xlink:href="#water" width="3.6" height="3.6" x="-1.8" y="-1.8" transform="translate(93.576416 188.30801) rotate(249)"/>
<use xlink:href="#water" width="3.6" height="3.6" x="-1.8" y="-1.8" transform="translate(82.09862 217.02359) rotate(159)"/>
<use xlink:href="#water" width="3.6" height="3.6" x="-1.8" y="-1.8" transform="translate(87.78099 236.4344) rotate(212)"/>
<use xlink:href="#clay" width="3.6" height="3.6" x="-1.8" y="-1.8" transform="translate(138.23254 312.99716) rotate(0)"/>
<use xlink:href="#clay" width="3.6" height="3.6" x="-1.8" y="-1.8" transform="translate(137.29375 312.38004) rotate(0)"/>
<use xlink:href="#clay" width="3.6" height="3.6" x="-1.8" y="-1.8" transform="translate(138.59035 312.46863) rotate(0)"/>
<use xlink:href="#clay" width="3.6" height="3.6" x="-1.8" y="-1.8" transform="translate(135.92165 312.35703) rotate(0)"/>
<use xlink:href="#clay" width="3.6" height="3.6" x="-1.8" y="-1.8" transform="translate(135.47522 311.43787) rotate(0)"/>
<use xlink:href="#clay" width="3.6" height="3.6" x="-1.8" y="-1.8" transform="translate(133.84381 311.51007) rotate(0)"/>
<use xlink:href="#clay" width="3.6" height="3.6" x="-1.8" y="-1.8" transform="translate(133.8077 310.0099) rotate(0)"/>
<use xlink:href="#clay" width="3.6" height="3.6" x="-1.8" y="-1.8" transform="translate(132.7934 307.55112) rotate(0)"/>
<use xlink:href="#clay" width="3.6" height="3.6" x="-1.8" y="-1.8" transform="translate(132.44543 308.8675) rotate(0)"/>
<use xlink:href="#clay" width="3.6" height="3.6" x="-1.8" y="-1.8" transform="translate(151.20952 36.663445) rotate(0)"/>
<text x="143.25867" y="39.764793" font-family="sans-serif" font-size=".2mm" fill="black">?</text>
<use xlink:href="#clay" width="3.6" height="3.6" x="-1.8" y="-1.8" transform="translate(106.99603 325.13416) rotate(0)"/>
<use xlink:href="#clay" width="3.6" height="3.6" x="-1.8" y="-1.8" transform="translate(106.99603 324.9151) rotate(0)"/>
<use xlink:href="#clay" width="3.6" height="3.6" x="-1.8" y="-1.8" transform="translate(107.21509 324.9151) rotate(0)"/>
<use xlink:href="#clay" width="3.6" height="3.6" x="-1.8" y="-1.8" transform="translate(101.08136 308.70453) rotate(0)"/>
<use xlink:href="#clay" width="3.6" height="3.6" x="-1.8" y="-1.8" transform="translate(101.519485 306.29483) rotate(0)"/>
<use xlink:href="#water" width="3.6" height="3.6" x="-1.8" y="-1.8" transform="translate(51.841896 33.437378) rotate(193)"/>
</g>
<g>
<line fill="none" stroke="#111111" stroke-width="0.05mm" x1="22.00" y1="70.00" x2="20.70" y2="110.62" />
<line fill="none" stroke="#00aeef" stroke-width="0.05mm" stroke-dasharray="0.4,0.2" opacity="0.82" x1="20.70" y1="110.62" x2="36.94" y2="84.73" />
<line fill="none" stroke="#00aeef" stroke-width="0.05mm" stroke-dasharray="0.4,0.2" opacity="0.79" x1="20.70" y1="110.62" x2="41.69" y2="93.65" />
<line fill="none" stroke="#00aeef" stroke-width="0.05mm" stroke-dasharray="0.4,0.2" opacity="0.76" x1="20.70" y1="110.62" x2="33.98" y2="100.87" />
<line fill="none" stroke="#111111" stroke-width="0.05mm" x1="20.70" y1="110.62" x2="48.01" y2="127.96" />
<line fill="none" stroke="#5674b9" stroke-width="0.05mm" stroke-dasharray="0.4,0.2" opacity="0.98" x1="48.01" y1="127.96" x2="38.25" y2="112.08" />
<line fill="none" stroke="#5674b9" stroke-width="0.05mm" stroke-dasharray="0.4,0.2" opacity="0.92" x1="48.01" y1="127.96" x2="38.12" y2="122.73" />
<line fill="none" stroke="#00aeef" stroke-width="0.05mm" stroke-dasharray="0.4,0.2" opacity="0.87" x1="48.01" y1="127.96" x2="43.17" y2="119.92" />
<line fill="none" stroke="#5674b9" stroke-width="0.05mm" stroke-dasharray="0.4,0.2" opacity="0.61" x1="48.01" y1="127.96" x2="39.79" y2="116.87" />
<line fill="none" stroke="#5674b9" stroke-width="0.05mm" stroke-dasharray="0.4,0.2" opacity="0.28" x1="48.01" y1="127.96" x2="45.46" y2="125.97" />
<line fill="none" stroke="#00aeef" stroke-width="0.05mm" stroke-dasharray="0.4,0.2" opacity="0.80" x1="48.01" y1="127.96" x2="59.31" y2="111.93" />
<line fill="none" stroke="#111111" stroke-width="0.05mm" x1="48.01" y1="127.96" x2="85.50" y2="104.82" />
<line fill="none" stroke="#00aeef" stroke-width="0.05mm" stroke-dasharray="0.4,0.2" opacity="0.88" x1="85.50" y1="104.82" x2="77.97" y2="103.32" />
<line fill="none" stroke="#00aeef" stroke-width="0.05mm" stroke-dasharray="0.4,0.2" opacity="0.94" x1="85.50" y1="104.82" x2="85.91" y2="122.88" />
<line fill="none" stroke="#00aeef" stroke-width="0.05mm" stroke-dasharray="0.4,0.2" opacity="0.91" x1="85.50" y1="104.82" x2="82.94" y2="90.74" />
<line fill="none" stroke="#00aeef" stroke-width="0.05mm" stroke-dasharray="0.4,0.2" opacity="0.07" x1="85.50" y1="104.82" x2="86.42" y2="104.28" />
<line fill="none" stroke="#00aeef" stroke-width="0.05mm" stroke-dasharray="0.4,0.2" opacity="0.84" x1="85.50" y1="104.82" x2="88.29" y2="78.23" />
<line fill="none" stroke="#111111" stroke-width="0.05mm" x1="85.50" y1="104.82" x2="113.55" y2="125.42" />
<line fill="none" stroke="#00aeef" stroke-width="0.05mm" stroke-dasharray="0.4,0.2" opacity="0.97" x1="113.55" y1="125.42" x2="107.28" y2="125.86" />
<line fill="none" stroke="#00aeef" stroke-width="0.05mm" stroke-dasharray="0.4,0.2" opacity="0.61" x1="113.55" y1="125.42" x2="110.91" y2="125.95" />
<line fill="none" stroke="#5674b9" stroke-width="0.05mm" stroke-dasharray="0.4,0.2" opacity="0.48" x1="113.55" y1="125.42" x2="107.93" y2="129.77" />
<line fill="none" stroke="#00aeef" stroke-width="0.05mm" stroke-dasharray="0.4,0.2" opacity="0.98" x1="113.55" y1="125.42" x2="107.66" y2="116.71" />
<line fill="none" stroke="#00aeef" stroke-width="0.05mm" stroke-dasharray="0.4,0.2" opacity="0.86" x1="113.55" y1="125.42" x2="112.79" y2="134.28" />
<line fill="none" stroke="#00aeef" stroke-width="0.05mm" stroke-dasharray="0.4,0.2" opacity="0.69" x1="113.55" y1="125.42" x2="115.45" y2="126.21" />
<line fill="none" stroke="#00aeef" stroke-width="0.05mm" stroke-dasharray="0.4,0.2" opacity="0.36" x1="113.55" y1="125.42" x2="126.31" y2="74.04" />
<line fill="none" stroke="#00aeef" stroke-width="0.05mm" stroke-dasharray="0.4,0.2" opacity="0.26" x1="113.55" y1="125.42" x2="115.48" y2="122.56" />
<line fill="none" stroke="#00aeef" stroke-width="0.05mm" stroke-dasharray="0.4,0.2" opacity="0.38" x1="113.55" y1="125.42" x2="112.97" y2="104.39" />
<line fill="none" stroke="#00aeef" stroke-width="0.05mm" stroke-dasharray="0.4,0.2" opacity="0.78" x1="113.55" y1="125.42" x2="109.00" y2="116.41" />
<line fill="none" stroke="#111111" stroke-width="0.05mm" x1="113.55" y1="125.42" x2="122.58" y2="143.28" />
<line fill="none" stroke="#5674b9" stroke-width="0.05mm" stroke-dasharray="0.4,0.2" opacity="0.95" x1="122.58" y1="143.28" x2="128.36" y2="139.27" />
<line fill="none" stroke="#00aeef" stroke-width="0.05mm" stroke-dasharray="0.4,0.2" opacity="0.30" x1="122.58" y1="143.28" x2="127.89" y2="141.38" />
<line fill="none" stroke="#5674b9" stroke-width="0.05mm" stroke-dasharray="0.4,0.2" opacity="0.01" x1="122.58" y1="143.28" x2="122.59" y2="143.00" />
<line fill="none" stroke="#5674b9" stroke-width="0.05mm" stroke-dasharray="0.4,0.2" opacity="0.91" x1="122.58" y1="143.28" x2="132.33" y2="148.47" />
<line fill="none" stroke="#00aeef" stroke-width="0.05mm" stroke-dasharray="0.4,0.2" opacity="0.98" x1="122.58" y1="143.28" x2="129.04" y2="150.49" />
<line fill="none" stroke="#00aeef" stroke-width="0.05mm" stroke-dasharray="0.4,0.2" opacity="0.93" x1="122.58" y1="143.28" x2="119.53" y2="130.88" />
<line fill="none" stroke="#00aeef" stroke-width="0.05mm" stroke-dasharray="0.4,0.2" opacity="0.52" x1="122.58" y1="143.28" x2="133.18" y2="57.15" />
<line fill="none" stroke="#111111" stroke-width="0.05mm" x1="122.58" y1="143.28" x2="136.22" y2="164.20" />
<line fill="none" stroke="#00aeef" stroke-width="0.05mm" stroke-dasharray="0.4,0.2" opacity="0.98" x1="136.22" y1="164.20" x2="118.09" y2="167.28" />
<line fill="none" stroke="#5674b9" stroke-width="0.05mm" stroke-dasharray="0.4,0.2" opacity="0.98" x1="136.22" y1="164.20" x2="111.77" y2="153.94" />
<line fill="none" stroke="#5674b9" stroke-width="0.05mm" stroke-dasharray="0.4,0.2" opacity="0.96" x1="136.22" y1="164.20" x2="132.19" y2="155.89" />
<line fill="none" stroke="#00aeef" stroke-width="0.05mm" stroke-dasharray="0.4,0.2" opacity="0.96" x1="136.22" y1="164.20" x2="134.45" y2="178.63" />
<line fill="none" stroke="#5674b9" stroke-width="0.05mm" stroke-dasharray="0.4,0.2" opacity="0.97" x1="136.22" y1="164.20" x2="137.14" y2="169.18" />
<line fill="none" stroke="#00aeef" stroke-width="0.05mm" stroke-dasharray="0.4,0.2" opacity="0.06" x1="136.22" y1="164.20" x2="136.46" y2="162.18" />
<line fill="none" stroke="#5674b9" stroke-width="0.05mm" stroke-dasharray="0.4,0.2" opacity="0.30" x1="136.22" y1="164.20" x2="120.44" y2="150.45" />
<line fill="none" stroke="#5674b9" stroke-width="0.05mm" stroke-dasharray="0.4,0.2" opacity="0.43" x1="136.22" y1="164.20" x2="123.02" y2="164.92" />
<line fill="none" stroke="#5674b9" stroke-width="0.05mm" stroke-dasharray="0.4,0.2" opacity="0.57" x1="136.22" y1="164.20" x2="117.96" y2="162.75" />
<line fill="none" stroke="#111111" stroke-width="0.05mm" x1="136.22" y1="164.20" x2="75.83" y2="189.41" />
<line fill="none" stroke="#00aeef" stroke-width="0.05mm" stroke-dasharray="0.4,0.2" opacity="0.97" x1="75.83" y1="189.41" x2="80.72" y2="185.28" />
<line fill="none" stroke="#5674b9" stroke-width="0.05mm" stroke-dasharray="0.4,0.2" opacity="0.99" x1="75.83" y1="189.41" x2="93.27" y2="192.10" />
<line fill="none" stroke="#5674b9" stroke-width="0.05mm" stroke-dasharray="0.4,0.2" opacity="0.95" x1="75.83" y1="189.41" x2="84.06" y2="200.63" />
<line fill="none" stroke="#00aeef" stroke-width="0.05mm" stroke-dasharray="0.4,0.2" opacity="0.99" x1="75.83" y1="189.41" x2="72.96" y2="199.88" />
<line fill="none" stroke="#00aeef" stroke-width="0.05mm" stroke-dasharray="0.4,0.2" opacity="0.20" x1="75.83" y1="189.41" x2="78.22" y2="185.22" />
<line fill="none" stroke="#5674b9" stroke-width="0.05mm" stroke-dasharray="0.4,0.2" opacity="0.23" x1="75.83" y1="189.41" x2="76.37" y2="193.59" />
<line fill="none" stroke="#111111" stroke-width="0.05mm" x1="75.83" y1="189.41" x2="86.15" y2="225.33" />
<line fill="none" stroke="#00aeef" stroke-width="0.05mm" stroke-dasharray="0.4,0.2" opacity="0.91" x1="86.15" y1="225.33" x2="76.88" y2="227.70" />
<line fill="none" stroke="#00aeef" stroke-width="0.05mm" stroke-dasharray="0.4,0.2" opacity="0.92" x1="86.15" y1="225.33" x2="80.51" y2="229.86" />
<line fill="none" stroke="#00aeef" stroke-width="0.05mm" stroke-dasharray="0.4,0.2" opacity="0.90" x1="86.15" y1="225.33" x2="76.76" y2="216.18" />
<line fill="none" stroke="#111111" stroke-width="0.05mm" x1="86.15" y1="225.33" x2="95.61" y2="253.65" />
<line fill="none" stroke="#00aeef" stroke-width="0.05mm" stroke-dasharray="0.4,0.2" opacity="0.89" x1="95.61" y1="253.65" x2="96.96" y2="263.16" />
<line fill="none" stroke="#00aeef" stroke-width="0.05mm" stroke-dasharray="0.4,0.2" opacity="0.94" x1="95.61" y1="253.65" x2="101.31" y2="256.05" />
<line fill="none" stroke="#5674b9" stroke-width="0.05mm" stroke-dasharray="0.4,0.2" opacity="0.99" x1="95.61" y1="253.65" x2="100.02" y2="247.33" />
<line fill="none" stroke="#00aeef" stroke-width="0.05mm" stroke-dasharray="0.4,0.2" opacity="0.26" x1="95.61" y1="253.65" x2="97.20" y2="256.39" />
<line fill="none" stroke="#5674b9" stroke-width="0.05mm" stroke-dasharray="0.4,0.2" opacity="0.17" x1="95.61" y1="253.65" x2="98.17" y2="253.11" />
<line fill="none" stroke="#111111" stroke-width="0.05mm" x1="95.61" y1="253.65" x2="118.87" y2="254.12" />
<line fill="none" stroke="#5674b9" stroke-width="0.05mm" stroke-dasharray="0.4,0.2" opacity="0.93" x1="118.87" y1="254.12" x2="126.10" y2="262.45" />
<line fill="none" stroke="#5674b9" stroke-width="0.05mm" stroke-dasharray="0.4,0.2" opacity="0.94" x1="118.87" y1="254.12" x2="121.38" y2="271.03" />
<line fill="none" stroke="#00aeef" stroke-width="0.05mm" stroke-dasharray="0.4,0.2" opacity="0.92" x1="118.87" y1="254.12" x2="112.51" y2="264.44" />
<line fill="none" stroke="#00aeef" stroke-width="0.05mm" stroke-dasharray="0.4,0.2" opacity="0.45" x1="118.87" y1="254.12" x2="120.28" y2="258.52" />
<line fill="none" stroke="#5674b9" stroke-width="0.05mm" stroke-dasharray="0.4,0.2" opacity="0.44" x1="118.87" y1="254.12" x2="120.61" y2="257.14" />
<line fill="none" stroke="#00aeef" stroke-width="0.05mm" stroke-dasharray="0.4,0.2" opacity="0.71" x1="118.87" y1="254.12" x2="124.54" y2="254.01" />
<line fill="none" stroke="#111111" stroke-width="0.05mm" x1="118.87" y1="254.12" x2="123.27" y2="272.25" />
<line fill="none" stroke="#00aeef" stroke-width="0.05mm" stroke-dasharray="0.4,0.2" opacity="0.90" x1="123.27" y1="272.25" x2="130.01" y2="269.93" />
<line fill="none" stroke="#00aeef" stroke-width="0.05mm" stroke-dasharray="0.4,0.2" opacity="0.81" x1="123.27" y1="272.25" x2="120.88" y2="276.46" />
<line fill="none" stroke="#5674b9" stroke-width="0.05mm" stroke-dasharray="0.4,0.2" opacity="0.52" x1="123.27" y1="272.25" x2="127.03" y2="271.48" />
<line fill="none" stroke="#00aeef" stroke-width="0.05mm" stroke-dasharray="0.4,0.2" opacity="0.77" x1="123.27" y1="272.25" x2="114.47" y2="270.17" />
<line fill="none" stroke="#111111" stroke-width="0.05mm" x1="123.27" y1="272.25" x2="138.37" y2="285.06" />
<line fill="none" stroke="#00aeef" stroke-width="0.05mm" stroke-dasharray="0.4,0.2" opacity="0.31" x1="138.37" y1="285.06" x2="136.47" y2="284.22" />
<line fill="none" stroke="#5674b9" stroke-width="0.05mm" stroke-dasharray="0.4,0.2" opacity="0.44" x1="138.37" y1="285.06" x2="137.09" y2="285.07" />
<line fill="none" stroke="#5674b9" stroke-width="0.05mm" stroke-dasharray="0.4,0.2" opacity="0.95" x1="138.37" y1="285.06" x2="132.70" y2="312.04" />
<line fill="none" stroke="#5674b9" stroke-width="0.05mm" stroke-dasharray="0.4,0.2" opacity="0.99" x1="138.37" y1="285.06" x2="132.27" y2="309.47" />
<line fill="none" stroke="#5674b9" stroke-width="0.05mm" stroke-dasharray="0.4,0.2" opacity="0.46" x1="138.37" y1="285.06" x2="146.45" y2="292.65" />
<line fill="none" stroke="#5674b9" stroke-width="0.05mm" stroke-dasharray="0.4,0.2" opacity="0.45" x1="138.37" y1="285.06" x2="146.17" y2="292.10" />
<line fill="none" stroke="#5674b9" stroke-width="0.05mm" stroke-dasharray="0.4,0.2" opacity="0.44" x1="138.37" y1="285.06" x2="145.90" y2="292.00" />
<line fill="none" stroke="#5674b9" stroke-width="0.05mm" stroke-dasharray="0.4,0.2" opacity="0.44" x1="138.37" y1="285.06" x2="145.70" y2="291.95" />
<line fill="none" stroke="#111111" stroke-width="0.05mm" x1="138.37" y1="285.06" x2="132.34" y2="309.49" />
<line fill="none" stroke="#5674b9" stroke-width="0.05mm" stroke-dasharray="0.4,0.2" opacity="0.36" x1="132.34" y1="309.49" x2="139.73" y2="313.55" />
<line fill="none" stroke="#5674b9" stroke-width="0.05mm" stroke-dasharray="0.4,0.2" opacity="0.35" x1="132.34" y1="309.49" x2="139.48" y2="313.62" />
<line fill="none" stroke="#111111" stroke-width="0.05mm" x1="132.34" y1="309.49" x2="139.31" y2="313.45" />
<line fill="none" stroke="#111111" stroke-width="0.05mm" x1="20.70" y1="110.62" x2="57.98" y2="65.53" />
<line fill="none" stroke="#00aeef" stroke-width="0.05mm" stroke-dasharray="0.4,0.2" opacity="0.40" x1="57.98" y1="65.53" x2="85.22" y2="72.57" />
<line fill="none" stroke="#00aeef" stroke-width="0.05mm" stroke-dasharray="0.4,0.2" opacity="0.24" x1="57.98" y1="65.53" x2="65.06" y2="64.37" />
<line fill="none" stroke="#00aeef" stroke-width="0.05mm" stroke-dasharray="0.4,0.2" opacity="0.42" x1="57.98" y1="65.53" x2="69.13" y2="72.94" />
<line fill="none" stroke="#00aeef" stroke-width="0.05mm" stroke-dasharray="0.4,0.2" opacity="0.94" x1="57.98" y1="65.53" x2="49.11" y2="49.61" />
<line fill="none" stroke="#111111" stroke-width="0.05mm" x1="57.98" y1="65.53" x2="49.47" y2="59.71" />
<line fill="none" stroke="#00aeef" stroke-width="0.05mm" stroke-dasharray="0.4,0.2" opacity="0.50" x1="49.47" y1="59.71" x2="55.24" y2="19.36" />
<line fill="none" stroke="#00aeef" stroke-width="0.05mm" stroke-dasharray="0.4,0.2" opacity="0.50" x1="49.47" y1="59.71" x2="55.12" y2="19.99" />
<line fill="none" stroke="#00aeef" stroke-width="0.05mm" stroke-dasharray="0.4,0.2" opacity="0.50" x1="49.47" y1="59.71" x2="55.24" y2="19.86" />
<line fill="none" stroke="#00aeef" stroke-width="0.05mm" stroke-dasharray="0.4,0.2" opacity="0.50" x1="49.47" y1="59.71" x2="55.00" y2="19.75" />
<line fill="none" stroke="#00aeef" stroke-width="0.05mm" stroke-dasharray="0.4,0.2" opacity="0.58" x1="49.47" y1="59.71" x2="48.63" y2="34.60" />
<line fill="none" stroke="#00aeef" stroke-width="0.05mm" stroke-dasharray="0.4,0.2" opacity="0.45" x1="49.47" y1="59.71" x2="53.54" y2="43.17" />
</g>
<g>
<circle cx="22.00" cy="70.00" r="0.1" fill="#111111" />
<circle cx="20.70" cy="110.62" r="0.1" fill="#111111" />
<circle cx="48.01" cy="127.96" r="0.1" fill="#111111" />
<circle cx="85.50" cy="104.82" r="0.1" fill="#111111" />
<circle cx="113.55" cy="125.42" r="0.1" fill="#111111" />
<circle cx="122.58" cy="143.28" r="0.1" fill="#111111" />
<circle cx="136.22" cy="164.20" r="0.1" fill="#111111" />
<circle cx="75.83" cy="189.41" r="0.1" fill="#111111" />
<circle cx="86.15" cy="225.33" r="0.1" fill="#111111" />
<circle cx="95.61" cy="253.65" r="0.1" fill="#111111" />
<circle cx="118.87" cy="254.12" r="0.1" fill="#111111" />
<circle cx="123.27" cy="272.25" r="0.1" fill="#111111" />
<circle cx="138.37" cy="285.06" r="0.1" fill="#111111" />
<circle cx="132.34" cy="309.49" r="0.1" fill="#111111" />
<circle cx="139.31" cy="313.45" r="0.1" fill="#111111" />
<circle cx="57.98" cy="65.53" r="0.1" fill="#111111" />
<circle cx="49.47" cy="59.71" r="0.1" fill="#111111" />
</g>
<g>
<text x="22.20" y="70.00" font-size=".2mm" fill="#000000">0</text>
<text x="20.90" y="110.62" font-size=".2mm" fill="#000000">1</text>
<text x="48.21" y="127.96" font-size=".2mm" fill="#000000">2</text>
<text x="85.70" y="104.82" font-size=".2mm" fill="#000000">3</text>
<text x="113.75" y="125.42" font-size=".2mm" fill="#000000">4</text>
<text x="122.78" y="143.28" font-size=".2mm" fill="#000000">5</text>
<text x="136.42" y="164.20" font-size=".2mm" fill="#000000">6</text>
<text x="76.03" y="189.41" font-size=".2mm" fill="#000000">7</text>
<text x="86.35" y="225.33" font-size=".2mm" fill="#000000">8</text>
<text x="95.81" y="253.65" font-size=".2mm" fill="#000000">9</text>
<text x="119.07" y="254.12" font-size=".2mm" fill="#000000">10</text>
<text x="123.47" y="272.25" font-size=".2mm" fill="#000000">11</text>
<text x="138.57" y="285.06" font-size=".2mm" fill="#000000">12</text>
<text x="132.54" y="309.49" font-size=".2mm" fill="#000000">13</text>
<text x="139.51" y="313.45" font-size=".2mm" fill="#000000">14</text>
<text x="58.18" y="65.53" font-size=".2mm" fill="#000000">1.1</text>
<text x="49.67" y="59.71" font-size=".2mm" fill="#000000">1.2</text>
</g>
<g>
</g>
</g>
</svg>