<?xml version="1.0" encoding="utf-8"?>
<!DOCTYPE svg PUBLIC "-//W3C//DTD SVG 1.1//EN" "http://www.w3.org/Graphics/SVG/1.1/DTD/svg11.dtd">
<svg version="1.1" id="Layer_1" xmlns="http://www.w3.org/2000/svg" xmlns:xlink="http://www.w3.org/1999/xlink" x="0px" y="0px" width="64mm" height="83mm" viewBox="0 0 64 83" style="background-color:#ffffff;enable-background:new 0 0 64 83;" xml:space="preserve">
<symbol id="airflow" viewBox="-12 -12 24 24">
<path d="M-4.38,10.73l4.2-3.84V3.55L-4.07,7.13l-.31-.29L-.18,3V-6.89a3.37,3.37,0,0,0-1.68.53l1.68-4.15L0-11l.21.51h0v0l1.65,4.1A3.26,3.26,0,0,0,.24-6.89v14l-.08,0L-4.07,11Z"/>
<rect fill="none" x="-12" y="-12" width="24" height="24"/>
</symbol>
<symbol id="anastomosis" viewBox="-12 -12 24 24">
<path d="M2.23-4.78l.37.24L5.22-2.78l-.47.57L2.49-3.7l-4.61,8-.24.44-.37-.34L-5.22,2.3l.55-.52,2.1,1.82L2-4.39Z"/>
<rect fill="none" x="-12" y="-12" width="24" height="24"/>
</symbol>
<symbol id="bivouac" viewBox="-12 -12 24 24">
<path d="M.25-7.66l.24.58L.54-7l3.88.48-3.31.91L6,6H8.35v.48l-16.7.07V6.05h2.64L0-7.08Zm0,1.32L-5.13,6H-4l2.07-5L.2-4l2.09,5L4.37,6H5.44Z"/>
<rect fill="none" x="-12" y="-12" width="24" height="24"/>
</symbol>
<symbol id="bones" viewBox="-12 -12 24 24">
<path d="M2.44,4.27l-.16,0H2.13a.22.22,0,0,1-.11,0l-.1-.06a.39.39,0,0,1-.09-.11l-.08-.13a1.51,1.51,0,0,1-.06-.15l-.07-.17s0-.11-.08-.19-.06-.16-.08-.21a4.75,4.75,0,0,0-.38-.71c-.18-.29-.43-.64-.74-1A11.15,11.15,0,0,0-.7.32,6.73,6.73,0,0,0-2-.64a4.12,4.12,0,0,0-1.44-.52A1.64,1.64,0,0,1-5-2.19.72.72,0,0,1-5-2.44a1,1,0,0,1,0-.29A.52.52,0,0,1-4.87-3a.54.54,0,0,1,.35-.15L-4-3.22l.46,0a.54.54,0,0,0,.27-.06A.52.52,0,0,0-3-3.56a.74.74,0,0,0,.13-.31.54.54,0,0,1,.15-.26.54.54,0,0,1,.3-.15.83.83,0,0,1,.47,0,1.11,1.11,0,0,1,.35.4A7.46,7.46,0,0,1-1-2.76q.18.42.33.72a3.22,3.22,0,0,0,.39.57L.1-1a4.77,4.77,0,0,0,.58.43c.28.18.51.33.69.43l1,.56a1.84,1.84,0,0,0,.39.23A5.29,5.29,0,0,1,3.22.9l.43.26a3.7,3.7,0,0,1,.46.3l.36.29a2.28,2.28,0,0,1,.31.32A1,1,0,0,1,5,2.4c.2.48,0,.78-.47.91h0a8.48,8.48,0,0,0-1.12.09,1,1,0,0,0-.42.44A1,1,0,0,1,2.44,4.27Z"/>
<rect fill="none" x="-12" y="-12" width="24" height="24"/>
</symbol>
<symbol id="calcite" viewBox="-12 -12 24 24">
<path d="M2.36-2.22l.05.46.34,3.91L2,2.22,1.65-1.26-2.52-.06l-.23-.7L1.89-2.08Z"/>
<rect fill="none" x="-12" y="-12" width="24" height="24"/>
</symbol>
<symbol id="cauliflower" viewBox="-12 -12 24 24">
<path d="M5.58,3.22v-3A2.12,2.12,0,0,0,6.92-.43a1.78,1.78,0,0,0,.55-1.32,1.92,1.92,0,0,0-.65-1.42,2.19,2.19,0,0,0-1.53-.59,2.21,2.21,0,0,0-1.54.59,1.78,1.78,0,0,0-.64,1.42A1.86,1.86,0,0,0,3.65-.43,2.12,2.12,0,0,0,5,.23v3H.26v-3A2.17,2.17,0,0,0,1.61-.43a1.81,1.81,0,0,0,.54-1.32,1.91,1.91,0,0,0-.64-1.42A2.21,2.21,0,0,0,0-3.76a2.21,2.21,0,0,0-1.54.59,1.82,1.82,0,0,0-.64,1.42A1.83,1.83,0,0,0-1.66-.43,2.12,2.12,0,0,0-.32.23v3H-5v-3A2.12,2.12,0,0,0-3.71-.43a1.78,1.78,0,0,0,.55-1.32,1.92,1.92,0,0,0-.65-1.42,2.19,2.19,0,0,0-1.53-.59,2.21,2.21,0,0,0-1.54.59,1.83,1.83,0,0,0-.65,1.42A1.87,1.87,0,0,0-7-.43,2.12,2.12,0,0,0-5.64.23v3H-8v.54H8V3.22Z"/>
<rect fill="none" x="-12" y="-12" width="24" height="24"/>
</symbol>
<symbol id="clay" viewBox="-12 -12 24 24">
<path d="M1.85-1.33a3,3,0,0,1,1.67.48,3.23,3.23,0,0,1,1,1l.29.51-1,.43a3.81,3.81,0,0,0-.23-.4A3.74,3.74,0,0,0,2.93,0,1.77,1.77,0,0,0,1.85-.32a2.57,2.57,0,0,0-1.1.15A.86.86,0,0,0,.51.14,2.23,2.23,0,0,1,0,.88a2.55,2.55,0,0,1-1.45.43,3.16,3.16,0,0,1-2.75-1,4.28,4.28,0,0,1-.37-.57,3.91,3.91,0,0,1-.21-.47l0-.16,1-.22a1.87,1.87,0,0,0,.45.79A2.12,2.12,0,0,0-1.51.33,1.82,1.82,0,0,0-.69.14l.21-.36A1.53,1.53,0,0,1,.17-1,3.76,3.76,0,0,1,1.85-1.33Z"/>
<rect fill="none" x="-12" y="-12" width="24" height="24"/>
</symbol>
<symbol id="crystals" viewBox="-12 -12 24 24">
<path d="M-2.94-5.38,0-.72,2.94-5.38,3.62-5,.68-.36H6.56V.36H.68L3.62,5l-.68.36L0,.72-2.94,5.38-3.62,5-.68.36H-6.56V-.36H-.68L-3.62-5Z"/>
<rect fill="none" x="-12" y="-12" width="24" height="24"/>
</symbol>
<symbol id="curtain" viewBox="-12 -12 24 24">
<path d="M3.57-6.69l.52.53L.39-3V-.33L.1-.26a3.79,3.79,0,0,0-1,.41c-.58.3-.87.65-.87,1v.07A1.61,1.61,0,0,0-.84,2.48a3.69,3.69,0,0,0,.45.24L0,2.86l.13.05L.39,3V6.12H-.39V3.51a7.65,7.65,0,0,1-.9-.46A2.19,2.19,0,0,1-2.54,1.28V1.23A2,2,0,0,1-1.31-.48,5.32,5.32,0,0,1-.39-.86V-3l-3.7-3.14.52-.53L0-3.67Z"/>
<rect fill="none" x="-12" y="-12" width="24" height="24"/>
</symbol>
<symbol id="disk" viewBox="-12 -12 24 24">
<path d="M-.09-4.19a2.43,2.43,0,0,1,1.7.64A2,2,0,0,1,2.35-2,2.09,2.09,0,0,1,1.81-.55,2.44,2.44,0,0,1,.35.23l2.18,3.6-.68.33L0,1.14-1.48,4.19l-.71-.29L-.41.25A2.53,2.53,0,0,1-1.9-.47a2,2,0,0,1-.63-1.41,2,2,0,0,1,.67-1.61,2.46,2.46,0,0,1,1.72-.7ZM1.05-3.06.56-3.49l-.69,0A1.72,1.72,0,0,0-1.29-3a1.51,1.51,0,0,0-.45,1.08,1.36,1.36,0,0,0,.51,1A1.68,1.68,0,0,0-.07-.44v0l0,0A1.7,1.7,0,0,0,1.11-.92,1.36,1.36,0,0,0,1.56-2,1.47,1.47,0,0,0,1.05-3.06Z"/>
<rect fill="none" x="-12" y="-12" width="24" height="24"/>
</symbol>
<symbol id="entrance" viewBox="-12 -12 24 24">
<path d="M4.46,9H-4.46L0-9Z"/>
<rect fill="none" x="-12" y="-12" width="24" height="24"/>
</symbol>
<symbol id="flowstone" viewBox="-12 -12 24 24">
<rect x="-6" y="-0.21" width="12" height="0.42"/>
<rect fill="none" x="-12" y="-12" width="24" height="24"/>
</symbol>
<symbol id="flutes" viewBox="-12 -12 24 24">
<path d="M-7-1H7v.72H3.87A4.7,4.7,0,0,1,2.16,1.5,4.2,4.2,0,0,1,0,2.13,3.94,3.94,0,0,1-2.19,1.5,4.18,4.18,0,0,1-3.76-.27H-7Zm4.17.72A3.15,3.15,0,0,0-1.65,1,3.21,3.21,0,0,0,0,1.41,3.49,3.49,0,0,0,1.6,1,3.68,3.68,0,0,0,3-.27Z"/>
<rect fill="none" x="-12" y="-12" width="24" height="24"/>
</symbol>
<symbol id="gradient" viewBox="-12 -12 24 24">
<path d="M2.58-3.83,0-10-2.58-3.83A4.74,4.74,0,0,1-.17-4.5V10H.25V-4.5A6.65,6.65,0,0,1,2.58-3.83Z"/>
<rect fill="none" x="-12" y="-12" width="24" height="24"/>
</symbol>
<symbol id="guano" viewBox="-12 -12 24 24">
<path d="M-3.24-3a2.15,2.15,0,0,1,1.57.55A3.93,3.93,0,0,1-.59.24a4.32,4.32,0,0,1,2.75-2.3,2.68,2.68,0,0,1,2.23.36A2.36,2.36,0,0,1,5.5.19l-.79,0a1.72,1.72,0,0,0-.79-1.37,1.94,1.94,0,0,0-1.55-.24A3.53,3.53,0,0,0,.48,0,6.63,6.63,0,0,0-.69,3l-.79-.09a10.72,10.72,0,0,0,0-3.16A3.21,3.21,0,0,0-2.22-2,1.44,1.44,0,0,0-3.37-2.3,3.45,3.45,0,0,0-5-1.54l-.5-.55a4.29,4.29,0,0,1,2-.91A.9.9,0,0,1-3.24-3Z"/>
<rect fill="none" x="-12" y="-12" width="24" height="24"/>
</symbol>
<symbol id="helictites" viewBox="-12 -12 24 24">
<path d="M-4.59-7.92h.79v7.7l3.41,0V-7.92H.39V-.17L4.2-.12h.39v8H3.8V.6L.39.55V7.92H-.39V.55L-4.2.5l-.39,0v-8.4Z"/>
<rect fill="none" x="-12" y="-12" width="24" height="24"/>
</symbol>
<symbol id="human" viewBox="-12 -12 24 24">
<path d="M-3.59-3.29A5.13,5.13,0,0,1,0-4.66,5.13,5.13,0,0,1,3.59-3.29,4.3,4.3,0,0,1,5.09,0a4.3,4.3,0,0,1-1.5,3.29A5.13,5.13,0,0,1,0,4.66,5.13,5.13,0,0,1-3.59,3.29,4.3,4.3,0,0,1-5.09,0,4.3,4.3,0,0,1-3.59-3.29Zm.28.77A3.68,3.68,0,0,0-4.3,0a3.62,3.62,0,0,0,1,2.57L-.5.05ZM0-3.94A4.42,4.42,0,0,0-2.75-3L.16-.36H4.28A3.62,3.62,0,0,0,2.91-2.9,4.38,4.38,0,0,0,0-3.94ZM.16.46-2.7,3.07A4.42,4.42,0,0,0,0,3.94a4.37,4.37,0,0,0,2.87-1A3.78,3.78,0,0,0,4.28.46Z"/>
<rect fill="none" x="-12" y="-12" width="24" height="24"/>
</symbol>
<symbol id="karren" viewBox="-12 -12 24 24">
<path d="M1-5.84h0a1.37,1.37,0,0,1,1.06.68A3.33,3.33,0,0,1,2.5-3.79,25.79,25.79,0,0,1,2.36,0a18.61,18.61,0,0,0-.08,3.72,2.68,2.68,0,0,0,.41,1.2,1.13,1.13,0,0,0,.79.5A.92.92,0,0,0,4,4.94a4.43,4.43,0,0,0,.47-1.22c.16-.64.36-1.86.59-3.66a26.71,26.71,0,0,1,.64-3.69,4.62,4.62,0,0,1,.57-1.29,1.34,1.34,0,0,1,1-.59h0A1.28,1.28,0,0,1,8.37-5a2.17,2.17,0,0,1,.39,1.15A19.91,19.91,0,0,1,8.54-.53a21.51,21.51,0,0,0-.2,3.64A2.64,2.64,0,0,0,9.45,5.36,1.91,1.91,0,0,0,10.88,5a3.84,3.84,0,0,0,.7-1l.42.2-.1.18-.12.21-.11.18L11.52,5a.94.94,0,0,1-.14.16c-.06.07-.13.12-.19.18a2.5,2.5,0,0,1-1.85.41H9.29l0,0A3.06,3.06,0,0,1,7.87,3.13a22.11,22.11,0,0,1,.2-3.7,18.17,18.17,0,0,0,.22-3.28A1.85,1.85,0,0,0,8-4.79a.77.77,0,0,0-.67-.3.93.93,0,0,0-.64.42,4.51,4.51,0,0,0-.51,1.15A26.26,26.26,0,0,0,5.54.1c-.24,1.83-.45,3.07-.61,3.72a5.38,5.38,0,0,1-.51,1.34,1.33,1.33,0,0,1-.89.68H3.47A1.58,1.58,0,0,1,2.3,5.16a3.29,3.29,0,0,1-.49-1.4A20.27,20.27,0,0,1,1.89,0,23.45,23.45,0,0,0,2-3.75a2.94,2.94,0,0,0-.32-1.19A.93.93,0,0,0,1-5.42,1.1,1.1,0,0,0,.19-5,3.69,3.69,0,0,0-.43-3.76,20.78,20.78,0,0,0-1.07.07c-.2,2-.37,3.32-.49,3.86A4.48,4.48,0,0,1-2,5.26,1.06,1.06,0,0,1-3,5.81h0a1.9,1.9,0,0,1-1.29-.67,2.7,2.7,0,0,1-.58-1.31,14.92,14.92,0,0,1,0-3.6q0-.12.06-.54c0-.28,0-.47,0-.57s0-.28,0-.52,0-.42,0-.55,0-.28,0-.47,0-.36,0-.51,0-.29,0-.43A3.09,3.09,0,0,0-5-4.62a1.19,1.19,0,0,0-.67-.6,1.5,1.5,0,0,0-1.2.9A7,7,0,0,0-7.41-2.1c0,.39-.1,1-.14,1.76s-.11,1.47-.18,2.08A9.61,9.61,0,0,1-8,3.32h0l0,0A2.81,2.81,0,0,1-9.2,4.62a1.82,1.82,0,0,1-1.35.15A1.94,1.94,0,0,1-11.61,4,2.39,2.39,0,0,1-12,2.56l.47,0a1.92,1.92,0,0,0,.31,1.16,1.47,1.47,0,0,0,.81.62,1.3,1.3,0,0,0,1-.11A2.32,2.32,0,0,0-8.5,3.18a7.53,7.53,0,0,0,.29-1.5Q-8.1.8-8-.36c0-.78.1-1.37.16-1.78A7.23,7.23,0,0,1-7.28-4.5,1.93,1.93,0,0,1-5.65-5.66h.05l0,0a1.59,1.59,0,0,1,1,.84,3.47,3.47,0,0,1,.34,1.41,4.91,4.91,0,0,1,0,.57v.54c0,.15,0,.37,0,.66s0,.47,0,.58,0,.33-.06.68,0,.56-.06.63a14.78,14.78,0,0,0,0,3.49,2.58,2.58,0,0,0,.5,1.13,1.57,1.57,0,0,0,1,.5A.61.61,0,0,0-2.44,5,3.89,3.89,0,0,0-2,3.85C-1.9,3.31-1.74,2-1.53,0A20.65,20.65,0,0,1-.86-3.89,3.89,3.89,0,0,1-.18-5.26,1.58,1.58,0,0,1,1-5.84Z"/>
<rect fill="none" x="-12" y="-12" width="24" height="24"/>
</symbol>
<symbol id="moonmilk" viewBox="-12 -12 24 24">
<path d="M-4.78-3.06a3.39,3.39,0,0,1,1.5.34,2.48,2.48,0,0,1,1.1,1,3.74,3.74,0,0,1,1.62-.8,3.52,3.52,0,0,1,1.71,0,2.9,2.9,0,0,1,1.39.77A2.49,2.49,0,0,1,3.25-.37,4,4,0,0,1,5-.76a3.58,3.58,0,0,1,1.6.36A2.84,2.84,0,0,1,7.88.92a2.32,2.32,0,0,1,0,1.88.34.34,0,0,1-.37.26A.36.36,0,0,1,7.25,3a.32.32,0,0,1-.12-.25.21.21,0,0,1,0-.12,2,2,0,0,0,0-1.43,2,2,0,0,0-1-.9A2.81,2.81,0,0,0,4.68,0,2.78,2.78,0,0,0,3.12.56L2.46.25A1.7,1.7,0,0,0,2.15-1.1,2.15,2.15,0,0,0,1-1.81a2.85,2.85,0,0,0-1.58.06A3,3,0,0,0-2-.83l-.71-.12A1.74,1.74,0,0,0-3.55-2a2.36,2.36,0,0,0-1.39-.27,3.08,3.08,0,0,0-1.45.53A2.33,2.33,0,0,0-7.32-.56a.35.35,0,0,1-.37.24A.39.39,0,0,1-8-.42a.33.33,0,0,1-.1-.26v-.1A3,3,0,0,1-6.89-2.35,4,4,0,0,1-5-3Z"/>
<rect fill="none" x="-12" y="-12" width="24" height="24"/>
</symbol>
<symbol id="narrow" viewBox="-12 -12 24 24">
<path d="M-1.5,5V-5h0.64V5H-1.5z"/>
<path d="M0.86,5V-5H1.5V5H0.86z"/>
<rect fill="none" x="-12" y="-12" width="24" height="24"/>
</symbol>
<symbol id="paleoflow" viewBox="-12 -12 24 24">
<path d="M.38-12V.17A1.9,1.9,0,0,0,1,0,1.57,1.57,0,0,0,1.7-.72a1.86,1.86,0,0,0,.23-1c0-.09,0-.14.08-.16a.92.92,0,0,1,.24,0,.52.52,0,0,0,.25,0h.08A2.48,2.48,0,0,1,2,0,2.5,2.5,0,0,1,.38.77V7.21H2.09L0,12-1.8,7.23c.07,0,.59,0,1.53,0V.77A3,3,0,0,1-1.35.43a2.16,2.16,0,0,1-1-1,2.38,2.38,0,0,1-.24-1.33l.67,0a2,2,0,0,0,.15,1,1.73,1.73,0,0,0,.59.67A2.14,2.14,0,0,0-.27.16V-12Z"/>
<rect fill="none" x="-12" y="-12" width="24" height="24"/>
</symbol>
<symbol id="rain" viewBox="-12 -12 24 24">
<path d="M-4.14-6.34h0.71v4.69h-0.71V-6.34z"/>
<path d="M-0.35-6.34h0.71v4.69h-0.71V-6.34z"/>
<path d="M3.43-6.34h0.71v4.69H3.43V-6.34z"/>
<path d="M-4.14,1.65h0.71v4.69h-0.71V1.65z"/>
<path d="M-0.35,1.65h0.71v4.69h-0.71V1.65z"/>
<path d="M3.43,1.65h0.71v4.69H3.43V1.65z"/>
<rect fill="none" x="-12" y="-12" width="24" height="24"/>
</symbol>
<symbol id="rats" viewBox="-12 -12 24 24">
<path d="M8.78-2.32,7-2.27c-.51-.17-.65-.56-1.46-.45l-.25.45C3.59-2.75,2.59-3.66.56-3.62l-1.35.3A4.89,4.89,0,0,0-4.24,1.57c-.68.6-2.58.86-3.39.94a6.84,6.84,0,0,0-1.62.39,4.91,4.91,0,0,0-1,.52A1.75,1.75,0,0,0-11,4.61a1.16,1.16,0,0,0,.59,1.48,1.3,1.3,0,0,1,.14.12c.16-.52-.35-.92-.2-1.42a3.35,3.35,0,0,1,.27-.45,3.18,3.18,0,0,1,1.79-1c.63-.12,1.27-.22,1.91-.3.48-.07,1,0,1.4-.12A6.94,6.94,0,0,1-4,2.82,30.64,30.64,0,0,0,.41,2.69l2.16.15c.1-.09,0,0,.1-.15a.87.87,0,0,0-.9-.55c.86-1,2.27-.37,3.1-.05.5.19,1,0,1.25.4.11-.1.1-.07.15-.25.3,0,.31.07.6.15-.06-.49-.34-.64-1-.6a.78.78,0,0,1,0-.55C6.3.56,7.29.73,8.13.43a13.78,13.78,0,0,0,2.15-.9l.6-.85v-.2A16.9,16.9,0,0,0,8.78-2.32Z"/>
<rect fill="none" x="-12" y="-12" width="24" height="24"/>
</symbol>
<symbol id="sand" viewBox="-12 -12 24 24">
<path d="M-1.58,0.83c0.23,0.2,0.35,0.44,0.36,0.73c0.01,0.29-0.08,0.54-0.28,0.75c-0.2,0.21-0.46,0.32-0.78,0.33c-0.32,0.01-0.6-0.08-0.83-0.26C-3.36,2.19-3.49,1.95-3.5,1.67C-3.51,1.38-3.41,1.12-3.2,0.9c0.21-0.22,0.48-0.34,0.8-0.35C-2.08,0.54-1.81,0.64-1.58,0.83z"/>
<path d="M0.08-2.36c0.23,0.2,0.35,0.44,0.36,0.73c0.01,0.29-0.08,0.54-0.28,0.75c-0.2,0.21-0.46,0.32-0.78,0.33c-0.32,0.01-0.59-0.07-0.83-0.26s-0.37-0.42-0.38-0.71c-0.01-0.29,0.09-0.54,0.3-0.76c0.21-0.22,0.48-0.33,0.8-0.35C-0.42-2.65-0.14-2.56,0.08-2.36z"/>
<path d="M3.12,0.55c0.23,0.2,0.35,0.43,0.38,0.71c0.02,0.28-0.07,0.53-0.28,0.75C3,2.23,2.73,2.35,2.42,2.36C2.1,2.37,1.82,2.28,1.58,2.08C1.34,1.88,1.22,1.64,1.2,1.35c-0.01-0.29,0.09-0.54,0.3-0.75C1.72,0.4,1.99,0.29,2.3,0.28S2.89,0.36,3.12,0.55z"/>
<rect fill="none" x="-12" y="-12" width="24" height="24"/>
</symbol>
<symbol  id="scallops" viewBox="-12 -12 24 24">
<path d="M.05-3.74l.21,0A2.35,2.35,0,0,1,1.74-3a2,2,0,0,1,.59,1.55v0l0,0A9.59,9.59,0,0,1-.08,3.27l-.39.47-.27-.55A14.26,14.26,0,0,1-2.33-1.89v-.05l0-.05A2,2,0,0,1-1.44-3.3,2.42,2.42,0,0,1,.05-3.74ZM-.11-3A1.44,1.44,0,0,0-1.55-1.89,13.06,13.06,0,0,0-.29,2.33,8.6,8.6,0,0,0,1.55-1.54a1.41,1.41,0,0,0-.38-1A1.62,1.62,0,0,0,.18-3Z"/>
<rect fill="none" x="-12" y="-12" width="24" height="24"/>
</symbol>
<symbol  id="sink" viewBox="-12 -12 24 24">
<path d="M.72,9.41H.9c1.94,0,3.26-.54,3.94-1.51a3.61,3.61,0,0,0,.33-.69,2,2,0,0,0,.11-.54V6.46l.69,0a2.8,2.8,0,0,1-.58,1.78C4.58,9.39,3.1,10,.93,10H-.93q-3.25,0-4.46-1.8a2.74,2.74,0,0,1-.43-.83A2.37,2.37,0,0,1-6,6.67V6.43l.68,0A2.27,2.27,0,0,0-4.84,7.9c.68,1,2,1.47,3.93,1.48l.5,0ZM-1.46-10a.68.68,0,0,0,.16.41A2.77,2.77,0,0,0-.51-9l0,0a3.63,3.63,0,0,1,1,.7,1.15,1.15,0,0,1,.34.88c0,.58-.53,1.14-1.49,1.68-.68.42-1,.79-1,1.11s.3.61.84,1h0Q.61-2.86.46-1.78a3.51,3.51,0,0,1-1.55,2,.61.61,0,0,0-.26.41,1.67,1.67,0,0,0,.1.51,5.3,5.3,0,0,1,.32,1L.56,1.9.46,8.06-3.4,2.54l1.73-.28A6.16,6.16,0,0,0-2,1.39,1.7,1.7,0,0,1-2.09.58a1.21,1.21,0,0,1,.53-.82h0v0C-.75-.86-.33-1.38-.28-1.85s-.23-.87-.91-1.27h0C-2-3.6-2.37-4.1-2.4-4.61S-2-5.74-1.09-6.29C-.34-6.72.06-7.1.09-7.44a.67.67,0,0,0-.18-.43,3.17,3.17,0,0,0-.79-.58,2.93,2.93,0,0,1-1-.67A1.16,1.16,0,0,1-2.17-10Z"/>
<rect fill="none" x="-12" y="-12" width="24" height="24"/>
</symbol>
<symbol  id="spring" viewBox="-12 -12 24 24">
<path d="M-1.34-9.86,2.52-4.34.78-4.06a8,8,0,0,0,.29.87,1.4,1.4,0,0,1,.13.79,1.3,1.3,0,0,1-.52.84l0,0v0C-.13-.95-.55-.42-.61,0S-.37.91.31,1.3l0,0c.75.46,1.14,1,1.18,1.46S1.12,3.92.21,4.46C-.54,4.9-.94,5.29-1,5.64a.74.74,0,0,0,.18.43A3.2,3.2,0,0,0,0,6.62a3,3,0,0,1,1,.7,1.14,1.14,0,0,1,.31.86A1.74,1.74,0,0,1,.71,9.26H.92c1.92,0,3.22-.52,3.9-1.51a2.05,2.05,0,0,0,.35-.67,2.59,2.59,0,0,0,.1-.55l0-.19.65,0a2.84,2.84,0,0,1-.55,1.8C4.58,9.26,3.08,9.85.92,9.86H-.92c-2.17,0-3.66-.6-4.49-1.77a3.65,3.65,0,0,1-.4-.85A2.43,2.43,0,0,1-6,6.53V6.29l.66,0a2.08,2.08,0,0,0,.47,1.41c.68,1,2,1.5,3.91,1.51H-.4c.62-.43.94-.8,1-1.1a.76.76,0,0,0-.16-.43,3.25,3.25,0,0,0-.79-.51v0a3.8,3.8,0,0,1-1-.7,1.15,1.15,0,0,1-.34-.91q.06-.84,1.5-1.68c.68-.4,1-.77,1-1.1S.49,2.21,0,1.87c0,0,0,0,0,0C-1,1.32-1.44.69-1.34,0a3.58,3.58,0,0,1,1.55-2,.54.54,0,0,0,.23-.38A1.28,1.28,0,0,0,.37-3a4.57,4.57,0,0,1-.32-1l-1.49.24Z"/>
<rect fill="none" x="-12" y="-12" width="24" height="24"/>
</symbol>
<symbol  id="stalactite" viewBox="-12 -12 24 24">
<path d="M3.57-6.69l.52.53L.39-3V6.12H-.39V-3l-3.7-3.14.52-.53L0-3.67Z"/>
<rect fill="none" x="-12" y="-12" width="24" height="24"/>
</symbol>
<symbol  id="stalagmite" viewBox="-12 -12 24 24">
<path d="M.38-6.42V2.75L4.11,5.89l-.56.53L0,3.4l-3.57,3-.53-.53,3.7-3.14V-6.42Z"/>
<rect fill="none" x="-12" y="-12" width="24" height="24"/>
</symbol>
<symbol  id="stalagnate" viewBox="-12 -12 24 24">
<path d="M3.55-8.46l.56.53L.38-4.78v9L4.11,7.36l-.56.53L0,4.86l-3.57,3-.53-.53,3.7-3.14v-9l-3.7-3.15.53-.53L0-5.43Z"/>
<rect fill="none" x="-12" y="-12" width="24" height="24"/>
</symbol>
<symbol  id="straws" viewBox="-12 -12 24 24">
<path d="M-10.89-2.76H10.89V-2H9.63V.46H8.84V-2H8.29v5.6H7.5V-2H5.56V.7H4.77V-2H2.07V2.38H1.29V-2H-.1v3H-.89V-2H-3.2V4.11H-4V-2H-6.22L-6.16.75l-.79,0L-7-2H-8.32V2.33H-9.1V-2h-1.79Z"/>
<rect fill="none" x="-12" y="-12" width="24" height="24"/>
</symbol>
<symbol  id="water" viewBox="-12 -12 24 24">
<path d="M-1.72-9.86,2.11-4.32.38-4.06a6.49,6.49,0,0,0,.29.89,1.5,1.5,0,0,1,.13.79,1.2,1.2,0,0,1-.5.82h0l0,0C-.54-.94-1-.42-1,.05s.24.89.92,1.27h0c.77.48,1.17,1,1.19,1.49S.71,3.94-.2,4.49c-.75.43-1.13.81-1.15,1.15a.51.51,0,0,0,.18.43,2.66,2.66,0,0,0,.76.58,2.93,2.93,0,0,1,1,.67,1.16,1.16,0,0,1,.29.89C.84,8.75.42,9.3-.41,9.86l-.44-.55c.66-.45,1-.83,1-1.15A.47.47,0,0,0,0,7.75a2.84,2.84,0,0,0-.78-.53h0a3.87,3.87,0,0,1-1-.69,1.24,1.24,0,0,1-.34-.91c0-.58.54-1.14,1.52-1.68.66-.42,1-.79,1-1.11s-.3-.61-.84-1h0Q-1.9,1.06-1.74,0a3.44,3.44,0,0,1,1.54-2,.67.67,0,0,0,.27-.41A1.11,1.11,0,0,0,0-3a4.33,4.33,0,0,1-.31-1l-1.5.24Z"/>
<rect fill="none" x="-12" y="-12" width="24" height="24"/>
</symbol><symbol  id="tree" viewBox="-12 -12 24 24">
<path d="M7.4-5.04A4.271,4.271,0,0,0,7.7-6.627a4.3,4.3,0,0,0-4.3-4.3A4.279,4.279,0,0,0,.636-9.914,4.293,4.293,0,0,0-3.045-12a4.3,4.3,0,0,0-4.3,4.3,4.27,4.27,0,0,0,.421,1.845,4.3,4.3,0,0,0-3.645,4.244,4.3,4.3,0,0,0,4.3,4.3A4.282,4.282,0,0,0-3.946,2L-1.175,5.23h0L-1.612,12H.982L.757,6.376,4.119,2.827v0a4.272,4.272,0,0,0,2.15.58,4.3,4.3,0,0,0,4.3-4.3A4.3,4.3,0,0,0,7.4-5.04ZM-3.346,1.538h0A4.346,4.346,0,0,0-2.7.788a4.266,4.266,0,0,0,1.765.753l-.135,2.087ZM.69,4.7.563,1.544A4.258,4.258,0,0,0,2.321.805,4.3,4.3,0,0,0,3.378,2.279Z"/>
<rect fill="none" x="-12" y="-12" width="24" height="24"/>
</symbol><g>
<desc></desc>
<g>
<line fill="none" stroke="#dddddd" stroke-width="0.1mm" x1="0.00" y1="57.00" x2="64.00" y2="57.00" />
<text x="61.20" y="56.80" font-size=".2mm" fill="#000000">0m</text>
<line fill="none" stroke="#dddddd" stroke-width="0.1mm" x1="0.00" y1="37.00" x2="64.00" y2="37.00" />
<text x="61.20" y="36.80" font-size=".2mm" fill="#000000">10m</text>
<line fill="none" stroke="#dddddd" stroke-width="0.1mm" x1="0.00" y1="17.00" x2="64.00" y2="17.00" />
<text x="61.20" y="16.80" font-size=".2mm" fill="#000000">20m</text>
<line fill="none" stroke="#dddddd" stroke-width="0.1mm" x1="0.00" y1="77.00" x2="64.00" y2="77.00" />
<text x="61.20" y="76.80" font-size=".2mm" fill="#000000">-10m</text>
<line fill="none" stroke="#dddddd" stroke-width="0.1mm" x1="20.00" y1="0.00" x2="20.00" y2="83.00" />
<text x="20.40" y="2.00" font-size=".2mm" fill="#000000">0m</text>
<line fill="none" stroke="#dddddd" stroke-width="0.1mm" x1="40.00" y1="0.00" x2="40.00" y2="83.00" />
<text x="40.40" y="2.00" font-size=".2mm" fill="#000000">10m</text>
<line fill="none" stroke="#dddddd" stroke-width="0.1mm" x1="60.00" y1="0.00" x2="60.00" y2="83.00" />
<text x="60.40" y="2.00" font-size=".2mm" fill="#000000">20m</text>
</g>
<g>
<path fill="none" stroke="#000000" stroke-width="0.06mm" d="M24.264189,52.459274 C24.413979,52.99465 24.469372,53.092007 24.438713,53.801712 C24.425686,54.10326 24.35282,54.39957 24.29269,54.69535 C24.25336,54.88881 24.150564,55.074806 24.00542,55.20842 C23.716427,55.474457 23.487343,55.5111 23.075779,55.58241 C22.922361,55.608994 22.711258,55.63126 22.558142,55.55588 C22.274815,55.416397 21.872293,54.819336 21.78993,54.726437 C21.720058,54.64763 21.638042,54.580486 21.562098,54.50751 L21.562098,54.50751" /><path fill="none" stroke="#000000" stroke-width="0.06mm" d="M20.173897,60.687897 C20.474894,60.62583 20.79147,60.61567 21.076889,60.501705 C22.077702,60.102097 22.64659,59.676258 23.520853,59.162075 C24.542196,58.561386 23.37371,59.389828 25.12001,58.089508 C25.157156,58.061848 25.190506,58.027596 25.215582,57.988663 C25.555487,57.4609 25.785439,57.10291 25.926151,56.47706 C26.006475,56.119793 26.055029,55.125904 26.051733,54.74086 C26.046574,54.137856 25.964457,54.197704 26.04845,53.729244 C26.064777,53.638176 26.069334,53.538708 26.11939,53.460896 C26.157984,53.400906 26.238092,53.381756 26.297443,53.342186 L26.297443,53.342186" /><path fill="none" stroke="#000000" stroke-width="0.06mm" d="M21.50562,58.526695 L21.544662,58.518177" /><defs><path id="DRAW_4004"  d="M4.3999996,43.713333 L4.4004,43.713734" /></defs><use xlink:href="#DRAW_4004" fill="none" stroke="#000000" stroke-width="0.04mm" /><text style="fill:#000000; font-size:0.5mm; letter-spacing:2;"><textPath xlink:href="#DRAW_4004">|</textPath></text><path fill="none" stroke="#000000" stroke-width="0.06mm" d="M28.764702,46.035122 C28.361933,46.034634 28.193836,45.994705 27.847668,46.094456 C27.41114,46.22024 27.043728,46.52939 26.727093,46.84238 C26.330774,47.23414 25.92459,47.617474 25.555737,48.035194 C25.086514,48.56658 24.69115,49.64561 24.478493,50.153324 C24.447588,50.227104 24.432219,50.307495 24.424234,50.38709 C24.357737,51.05012 24.311592,51.715034 24.25527,52.37901 L24.25527,52.37901" /><defs><path id="DRAW_4012"  d="M26.310785,49.715374 C26.290188,49.768307 26.190239,49.977726 26.195414,50.07711 C26.217846,50.507824 26.256432,50.717613 26.420553,51.129345 C26.583248,51.537502 26.768196,51.936485 26.949509,52.336716 C27.129644,52.734352 27.01296,52.353027 27.119331,52.768406 L27.119331,52.768406" /></defs><use xlink:href="#DRAW_4012" fill="none" stroke="#000000" stroke-width="0.04mm" /><text style="fill:#000000; font-size:0.5mm; letter-spacing:2;"><textPath xlink:href="#DRAW_4012">|||||||||||||</textPath></text><path fill="none" stroke="#000000" stroke-width="0.06mm" d="M25.897594,53.85347 C26.736666,52.915276 26.374565,53.257774 26.92314,52.765434 L26.92314,52.765434" /><path fill="none" stroke="#000000" stroke-width="0.06mm" d="M26.608044,53.205406 L26.685732,53.149323" /><path fill="none" stroke="#000000" stroke-width="0.06mm" d="M27.211481,52.786243 C27.657562,52.572227 28.946754,52.099686 29.597876,51.5729 C29.770664,51.433105 29.807161,51.257137 30.017515,51.118137 C30.341892,50.903786 30.813576,50.681114 31.18529,50.61757 C32.07992,50.46463 33.413597,50.612995 34.230408,50.597458 C34.420963,50.593834 34.607826,50.541874 34.793983,50.500988 C35.181904,50.415787 35.40718,50.17783 35.623566,49.854874 C35.994106,49.30185 36.237732,48.97445 36.446045,48.39511 C36.481766,48.29577 36.513245,48.19226 36.518616,48.08683 C36.607445,46.343212 36.614883,46.574905 36.557327,45.66349 L36.557327,45.66349" /><path fill="none" stroke="#000000" stroke-width="0.06mm" d="M36.376,45.770508 C36.409218,45.652245 36.374016,45.320663 36.50469,45.170956 C36.66362,44.988876 36.934948,44.990322 37.151386,45.010303 C37.31637,45.025536 37.4794,45.06302 37.644985,45.068733 C37.857655,45.076073 38.152344,45.061165 38.34967,44.942398 C38.648396,44.762604 38.90145,44.452698 39.142586,44.235493 C39.32773,44.06872 39.450127,44.038445 39.55866,43.810825 C39.631824,43.65738 39.669403,43.44245 39.677986,43.287865 C39.6997,42.89651 39.743286,42.171654 39.641327,41.70587 C39.61731,41.596172 39.57685,41.48967 39.52752,41.388786 C39.33304,40.99106 39.221046,40.846245 38.91751,40.53106 C38.543503,40.1427 38.187084,39.734184 37.77732,39.38376 C37.52384,39.166985 37.22473,39.00945 36.93834,38.8385 C36.863228,38.793663 36.77903,38.76521 36.695824,38.738205 C36.630875,38.72432 36.565926,38.710434 36.500977,38.696552 C36.495518,38.69211 36.48107,38.68931 36.484604,38.68322 C36.504135,38.649536 36.535065,38.6239 36.560295,38.594246 L36.560295,38.594246" /><path fill="none" stroke="#000000" stroke-width="0.06mm" d="M28.760204,46.156967 C28.873024,46.232563 28.917833,46.282547 29.035282,46.31411 C29.124342,46.338047 29.316727,46.35098 29.398111,46.303062 C31.228073,45.22563 33.045296,44.12671 34.86889,43.038536 L34.86889,43.038536" /><path fill="none" stroke="#000000" stroke-width="0.06mm" d="M33.58473,38.74288 C34.10892,41.179943 33.739994,39.684624 34.62408,42.600227 C34.63378,42.632217 34.638077,42.665604 34.645073,42.69829 C34.679054,42.798824 34.71303,42.899357 34.747013,42.99989 L34.747013,42.99989" /><path fill="none" stroke="#000000" stroke-width="0.06mm" d="M35.278366,37.50421 C36.526756,38.46878 36.006123,38.161713 36.746826,38.568466 L36.746826,38.568466" /><path fill="none" stroke="#000000" stroke-width="0.02mm" d="M35.841057,42.528534 C37.2796,42.68146 35.974792,42.574333 37.158844,42.598415 C37.205193,42.599358 37.251595,42.608826 37.295723,42.623035 C37.626957,42.7297 37.79537,42.73969 37.775597,43.08815 C37.771797,43.15505 37.764496,43.22229 37.748272,43.287308 C37.702393,43.471153 37.627914,43.80447 37.435493,43.92536 C37.18576,44.082253 36.631954,43.71079 36.502426,43.667896 C36.330585,43.61099 36.147198,43.59764 35.970913,43.5565 C35.957146,43.553288 35.94546,43.54382 35.934196,43.53528 C35.802944,43.435795 35.870888,43.079384 35.875267,43.028816 C35.898033,42.76593 35.978664,42.619545 36.08184,42.379898 L36.08184,42.379898" /><path fill="none" stroke="#000000" stroke-width="0.02mm" d="M36.064003,42.519615 C36.288395,42.83459 36.512783,43.149567 36.737175,43.464546 C36.753304,43.501118 36.774345,43.535896 36.78556,43.57426 C36.820587,43.694023 36.845535,43.816505 36.875526,43.937626 L36.875526,43.937626" /><path fill="none" stroke="#000000" stroke-width="0.06mm" d="M33.572968,38.934456 C33.29299,38.385334 33.29244,38.403465 33.201393,37.90588 L33.201393,37.90588" /><path fill="none" stroke="#000000" stroke-width="0.06mm" d="M33.445145,38.68177 C33.12066,37.633015 33.367905,38.52806 33.147404,37.414696 C33.040413,36.874462 33.0091,37.32965 33.02739,36.450665 C33.034065,36.129635 33.051907,35.41687 33.213196,35.02326 C33.379868,34.616505 33.454193,34.26362 33.748352,33.99669 L33.748352,33.99669" /><path fill="none" stroke="#000000" stroke-width="0.06mm" d="M33.69754,34.16801 C33.710545,34.09536 33.71942,34.02185 33.736553,33.95006 C33.774292,33.791885 34.15024,33.373436 34.18207,33.332664 L34.18207,33.332664" /><path fill="none" stroke="#000000" stroke-width="0.06mm" d="M35.674316,37.545074 L35.543922,37.49494" /><path fill="none" stroke="#000000" stroke-width="0.06mm" d="M35.534603,37.553993 C35.510834,37.539085 35.061314,37.2926 35.17855,37.18173 C35.211964,37.150124 35.282776,37.1342 35.32071,37.127457 C35.596764,37.078377 35.881886,37.252296 36.10048,37.39364 C36.36905,37.567303 36.62433,37.761086 36.89409,37.9329 C37.084938,38.05446 37.295673,38.144035 37.48145,38.273216 C37.706764,38.42989 38.13503,38.870605 38.489567,38.9915 C38.804718,39.09897 39.069347,39.16165 39.39174,39.154068 C39.717445,39.1464 40.360382,38.981155 40.54528,38.93344 C40.649857,38.906456 40.81183,38.831055 40.90567,38.7611 C41.02246,38.674034 40.985672,38.67845 41.074856,38.5888 C41.129887,38.53348 41.18826,38.48159 41.24496,38.42799 L41.24496,38.42799" /><path fill="none" stroke="#000000" stroke-width="0.06mm" d="M34.06614,33.406982 L34.048706,33.43711" /><path fill="none" stroke="#000000" stroke-width="0.06mm" d="M34.027496,33.516975 C35.178944,33.19954 33.419525,33.696495 34.66917,33.300003 C34.81527,33.253647 34.975204,33.236183 35.128014,33.244507 C35.409897,33.25986 35.997757,33.49852 36.078278,33.536224 C36.845997,33.895714 37.606716,34.27321 38.342476,34.69426 C39.798042,35.527237 38.991108,35.288555 39.78244,35.60683 L39.78244,35.60683" /><path fill="none" stroke="#000000" stroke-width="0.06mm" d="M40.9804,38.704456 C41.22641,38.462063 41.662373,38.07583 41.86081,37.750763 C42.11921,37.32746 42.340042,36.88234 42.579655,36.448124 L42.579655,36.448124" /><path fill="none" stroke="#000000" stroke-width="0.06mm" d="M42.404274,36.34705 C43.047874,35.86599 43.92885,35.898018 44.580986,35.452854 C44.725777,35.354015 44.846737,35.23223 44.953186,35.093952 C45.047424,34.971535 45.086662,34.780724 45.083725,34.633415 C45.07615,34.25341 45.01191,33.80202 44.749756,33.502502 C44.645653,33.383568 44.315304,33.117996 44.256203,33.068085 L44.256203,33.068085" /><path fill="none" stroke="#000000" stroke-width="0.06mm" d="M39.69624,35.61872 C39.360992,34.176765 39.65374,35.555687 39.42691,34.104836 C39.410744,34.001442 39.378563,33.9012 39.35439,33.799385 L39.35439,33.799385" /><defs><path id="DRAW_4056"  d="M39.59517,31.575756 C40.484406,31.684322 40.395813,31.693092 41.561157,31.69139 C41.69387,31.691196 41.922935,31.633942 42.047318,31.576042 C42.110916,31.546434 42.17093,31.508347 42.226166,31.465096 C42.59386,31.177197 42.61788,31.061604 42.772873,30.633389 L42.772873,30.633389" /></defs><use xlink:href="#DRAW_4056" fill="none" stroke="#000000" stroke-width="0.04mm" /><text style="fill:#000000; font-size:0.5mm; letter-spacing:2;"><textPath xlink:href="#DRAW_4056">|||||||||||||||</textPath></text><path fill="none" stroke="#000000" stroke-width="0.06mm" d="M44.70804,33.28807 C44.62445,33.246197 44.53713,33.211067 44.457275,33.162445 C44.248344,33.03524 44.02433,32.730724 43.930588,32.566837 C43.52408,31.85611 43.168686,31.117342 42.78774,30.392597 L42.78774,30.392597" /><path fill="none" stroke="#000000" stroke-width="0.06mm" d="M39.27413,34.0164 C39.34395,33.916115 39.426575,33.823627 39.48359,33.71555 C39.680714,33.341866 39.743095,33.020058 39.718548,32.601196 C39.699883,32.282707 39.610992,32.22956 39.56103,31.885628 C39.542473,31.757868 39.55406,31.62752 39.55058,31.498466 L39.55058,31.498466" /><defs><path id="DRAW_4071"  d="M42.946213,30.7415 C42.600048,27.782467 42.87214,29.011402 40.700096,24.391197 C40.049725,23.007778 38.79673,20.061287 37.183212,18.913094 C36.408638,18.3619 35.408127,18.65216 35.206875,19.6198 C35.087154,20.195435 35.15503,21.156986 35.35952,21.677212 C36.269783,23.992989 37.329338,26.247974 38.24997,28.55965 C40.334583,33.794052 38.18941,29.06364 39.3956,31.676966 L39.3956,31.676966" /></defs><use xlink:href="#DRAW_4071" fill="none" stroke="#000000" stroke-width="0.04mm" /><text style="fill:#000000; font-size:0.5mm; letter-spacing:2;"><textPath xlink:href="#DRAW_4071">||||||||||||||||||||||||||||||||||||||||||||||||||||||||||||||||||||||||||||||||||||||||||||||||||||||||||||||||||||</textPath></text><defs><path id="DRAW_4072"  d="M68.447105,80.66278 L68.315025,80.66368" /></defs><use xlink:href="#DRAW_4072" fill="none" stroke="#000000" stroke-width="0.04mm" /><text style="fill:#000000; font-size:0.5mm; letter-spacing:2;"><textPath xlink:href="#DRAW_4072">|</textPath></text><defs><path id="DRAW_4073"  d="M68.447105,80.396866 C68.06773,80.238144 68.136856,80.379166 68.136856,80.0423 L68.136856,80.0423" /></defs><use xlink:href="#DRAW_4073" fill="none" stroke="#000000" stroke-width="0.04mm" /><text style="fill:#000000; font-size:0.5mm; letter-spacing:2;"><textPath xlink:href="#DRAW_4073">||</textPath></text><use xlink:href="#clay" width="3.6" height="3.6" x="-1.8" y="-1.8" transform="translate(21.431305 58.565342) rotate(0)"/>
<use xlink:href="#clay" width="3.6" height="3.6" x="-1.8" y="-1.8" transform="translate(24.079887 56.338737) rotate(0)"/>
<use xlink:href="#clay" width="3.6" height="3.6" x="-1.8" y="-1.8" transform="translate(35.165405 39.5911) rotate(0)"/>
<use xlink:href="#clay" width="3.6" height="3.6" x="-1.8" y="-1.8" transform="translate(35.953144 40.875336) rotate(0)"/>
<use xlink:href="#clay" width="3.6" height="3.6" x="-1.8" y="-1.8" transform="translate(38.21826 41.85635) rotate(0)"/>
<use xlink:href="#clay" width="3.6" height="3.6" x="-1.8" y="-1.8" transform="translate(33.78105 45.418064) rotate(0)"/>
<use xlink:href="#clay" width="3.6" height="3.6" x="-1.8" y="-1.8" transform="translate(32.79712 49.229156) rotate(0)"/>
<use xlink:href="#clay" width="3.6" height="3.6" x="-1.8" y="-1.8" transform="translate(28.201487 48.09653) rotate(0)"/>
<use xlink:href="#clay" width="3.6" height="3.6" x="-1.8" y="-1.8" transform="translate(28.43335 50.2726) rotate(0)"/>
<use xlink:href="#entrance" width="3.6" height="3.6" x="-1.8" y="-1.8" transform="translate(29.524292 48.732704) rotate(58)"/>
<use xlink:href="#entrance" width="3.6" height="3.6" x="-1.8" y="-1.8" transform="translate(33.124107 47.28199) rotate(58)"/>
<use xlink:href="#clay" width="3.6" height="3.6" x="-1.8" y="-1.8" transform="translate(34.018578 37.14673) rotate(0)"/>
<use xlink:href="#clay" width="3.6" height="3.6" x="-1.8" y="-1.8" transform="translate(34.56851 34.393944) rotate(0)"/>
<use xlink:href="#clay" width="3.6" height="3.6" x="-1.8" y="-1.8" transform="translate(35.72485 35.993294) rotate(0)"/>
<use xlink:href="#clay" width="3.6" height="3.6" x="-1.8" y="-1.8" transform="translate(36.74742 34.61393) rotate(0)"/>
<use xlink:href="#clay" width="3.6" height="3.6" x="-1.8" y="-1.8" transform="translate(38.334785 38.16936) rotate(0)"/>
<use xlink:href="#clay" width="3.6" height="3.6" x="-1.8" y="-1.8" transform="translate(38.59935 36.201385) rotate(0)"/>
<use xlink:href="#clay" width="3.6" height="3.6" x="-1.8" y="-1.8" transform="translate(40.540455 37.004036) rotate(0)"/>
<use xlink:href="#entrance" width="3.6" height="3.6" x="-1.8" y="-1.8" transform="translate(41.675987 34.703114) rotate(203)"/>
</g>
<g>
<line fill="none" stroke="#111111" stroke-width="0.05mm" x1="20.00" y1="57.00" x2="25.61" y2="57.20" />
<line fill="none" stroke="#111111" stroke-width="0.05mm" x1="25.61" y1="57.20" x2="24.57" y2="52.63" />
<line fill="none" stroke="#111111" stroke-width="0.05mm" x1="24.57" y1="52.63" x2="26.39" y2="49.55" />
<line fill="none" stroke="#5674b9" stroke-width="0.05mm" stroke-dasharray="0.4,0.2" opacity="0.88" x1="26.39" y1="49.55" x2="28.96" y2="46.32" />
<line fill="none" stroke="#00aeef" stroke-width="0.05mm" stroke-dasharray="0.4,0.2" opacity="0.98" x1="26.39" y1="49.55" x2="28.52" y2="51.98" />
<line fill="none" stroke="#00aeef" stroke-width="0.05mm" stroke-dasharray="0.4,0.2" opacity="0.96" x1="26.39" y1="49.55" x2="30.15" y2="62.82" />
<line fill="none" stroke="#00aeef" stroke-width="0.05mm" stroke-dasharray="0.4,0.2" opacity="0.90" x1="26.39" y1="49.55" x2="26.09" y2="53.28" />
<line fill="none" stroke="#00aeef" stroke-width="0.05mm" stroke-dasharray="0.4,0.2" opacity="0.82" x1="26.39" y1="49.55" x2="24.84" y2="51.06" />
<line fill="none" stroke="#00aeef" stroke-width="0.05mm" stroke-dasharray="0.4,0.2" opacity="0.24" x1="26.39" y1="49.55" x2="24.27" y2="51.77" />
<line fill="none" stroke="#5674b9" stroke-width="0.05mm" stroke-dasharray="0.4,0.2" opacity="0.20" x1="26.39" y1="49.55" x2="27.16" y2="49.21" />
<line fill="none" stroke="#111111" stroke-width="0.05mm" x1="26.39" y1="49.55" x2="36.60" y2="45.00" />
<line fill="none" stroke="#5674b9" stroke-width="0.05mm" stroke-dasharray="0.4,0.2" opacity="0.92" x1="36.60" y1="45.00" x2="34.70" y2="42.82" />
<line fill="none" stroke="#5674b9" stroke-width="0.05mm" stroke-dasharray="0.4,0.2" opacity="0.80" x1="36.60" y1="45.00" x2="36.38" y2="38.69" />
<line fill="none" stroke="#5674b9" stroke-width="0.05mm" stroke-dasharray="0.4,0.2" opacity="0.95" x1="36.60" y1="45.00" x2="39.24" y2="43.97" />
<line fill="none" stroke="#5674b9" stroke-width="0.05mm" stroke-dasharray="0.4,0.2" opacity="0.82" x1="36.60" y1="45.00" x2="35.28" y2="37.65" />
<line fill="none" stroke="#5674b9" stroke-width="0.05mm" stroke-dasharray="0.4,0.2" opacity="0.81" x1="36.60" y1="45.00" x2="33.80" y2="38.69" />
<line fill="none" stroke="#111111" stroke-width="0.05mm" x1="36.60" y1="45.00" x2="33.28" y2="35.59" />
<line fill="none" stroke="#00aeef" stroke-width="0.05mm" stroke-dasharray="0.4,0.2" opacity="1.00" x1="33.28" y1="35.59" x2="35.01" y2="37.06" />
<line fill="none" stroke="#00aeef" stroke-width="0.05mm" stroke-dasharray="0.4,0.2" opacity="0.20" x1="33.28" y1="35.59" x2="33.71" y2="35.42" />
<line fill="none" stroke="#00aeef" stroke-width="0.05mm" stroke-dasharray="0.4,0.2" opacity="0.88" x1="33.28" y1="35.59" x2="34.25" y2="33.32" />
<line fill="none" stroke="#5674b9" stroke-width="0.05mm" stroke-dasharray="0.4,0.2" opacity="0.60" x1="33.28" y1="35.59" x2="33.91" y2="35.57" />
<line fill="none" stroke="#111111" stroke-width="0.05mm" x1="33.28" y1="35.59" x2="40.56" y2="38.56" />
<line fill="none" stroke="#00aeef" stroke-width="0.05mm" stroke-dasharray="0.4,0.2" opacity="0.80" x1="40.56" y1="38.56" x2="39.63" y2="35.81" />
<line fill="none" stroke="#00aeef" stroke-width="0.05mm" stroke-dasharray="0.4,0.2" opacity="0.20" x1="40.56" y1="38.56" x2="40.64" y2="37.74" />
<line fill="none" stroke="#5674b9" stroke-width="0.05mm" stroke-dasharray="0.4,0.2" opacity="0.93" x1="40.56" y1="38.56" x2="38.65" y2="39.12" />
<line fill="none" stroke="#00aeef" stroke-width="0.05mm" stroke-dasharray="0.4,0.2" opacity="0.68" x1="40.56" y1="38.56" x2="42.24" y2="36.57" />
<line fill="none" stroke="#111111" stroke-width="0.05mm" x1="40.56" y1="38.56" x2="41.42" y2="33.20" />
<line fill="none" stroke="#5674b9" stroke-width="0.05mm" stroke-dasharray="0.4,0.2" opacity="0.93" x1="41.42" y1="33.20" x2="44.86" y2="35.07" />
<line fill="none" stroke="#5674b9" stroke-width="0.05mm" stroke-dasharray="0.4,0.2" opacity="0.35" x1="41.42" y1="33.20" x2="44.20" y2="33.66" />
<line fill="none" stroke="#5674b9" stroke-width="0.05mm" stroke-dasharray="0.4,0.2" opacity="0.11" x1="41.42" y1="33.20" x2="41.82" y2="33.25" />
<line fill="none" stroke="#5674b9" stroke-width="0.05mm" stroke-dasharray="0.4,0.2" opacity="0.95" x1="41.42" y1="33.20" x2="42.24" y2="38.04" />
<line fill="none" stroke="#00aeef" stroke-width="0.05mm" stroke-dasharray="0.4,0.2" opacity="0.69" x1="41.42" y1="33.20" x2="40.43" y2="38.85" />
<line fill="none" stroke="#5674b9" stroke-width="0.05mm" stroke-dasharray="0.4,0.2" opacity="0.96" x1="41.42" y1="33.20" x2="39.64" y2="34.22" />
<line fill="none" stroke="#5674b9" stroke-width="0.05mm" stroke-dasharray="0.4,0.2" opacity="0.98" x1="41.42" y1="33.20" x2="39.96" y2="32.41" />
<line fill="none" stroke="#5674b9" stroke-width="0.05mm" stroke-dasharray="0.4,0.2" opacity="0.97" x1="41.42" y1="33.20" x2="41.84" y2="31.34" />
<line fill="none" stroke="#5674b9" stroke-width="0.05mm" stroke-dasharray="0.4,0.2" opacity="0.92" x1="41.42" y1="33.20" x2="36.12" y2="19.52" />
</g>
<g>
<circle cx="20.00" cy="57.00" r="0.1" fill="#111111" />
<circle cx="25.61" cy="57.20" r="0.1" fill="#111111" />
<circle cx="24.57" cy="52.63" r="0.1" fill="#111111" />
<circle cx="26.39" cy="49.55" r="0.1" fill="#111111" />
<circle cx="36.60" cy="45.00" r="0.1" fill="#111111" />
<circle cx="33.28" cy="35.59" r="0.1" fill="#111111" />
<circle cx="40.56" cy="38.56" r="0.1" fill="#111111" />
<circle cx="41.42" cy="33.20" r="0.1" fill="#111111" />
</g>
<g>
<text x="20.20" y="57.00" font-size=".2mm" fill="#000000">0</text>
<text x="25.81" y="57.20" font-size=".2mm" fill="#000000">1</text>
<text x="24.77" y="52.63" font-size=".2mm" fill="#000000">2</text>
<text x="26.59" y="49.55" font-size=".2mm" fill="#000000">3</text>
<text x="36.80" y="45.00" font-size=".2mm" fill="#000000">4</text>
<text x="33.48" y="35.59" font-size=".2mm" fill="#000000">5</text>
<text x="40.76" y="38.56" font-size=".2mm" fill="#000000">6</text>
<text x="41.62" y="33.20" font-size=".2mm" fill="#000000">7</text>
</g>
<g>
</g>
</g>
</svg>