<?xml version="1.0" encoding="utf-8"?>
<!DOCTYPE svg PUBLIC "-//W3C//DTD SVG 1.1//EN" "http://www.w3.org/Graphics/SVG/1.1/DTD/svg11.dtd">
<svg version="1.1" id="Layer_1" xmlns="http://www.w3.org/2000/svg" xmlns:xlink="http://www.w3.org/1999/xlink" x="0px" y="0px" width="70mm" height="76mm" viewBox="0 0 70 76" enable-background="new 0 0 70 76" xml:space="preserve">
<symbol id="airflow" viewBox="-12 -12 24 24">
<path d="M-4.38,10.73l4.2-3.84V3.55L-4.07,7.13l-.31-.29L-.18,3V-6.89a3.37,3.37,0,0,0-1.68.53l1.68-4.15L0-11l.21.51h0v0l1.65,4.1A3.26,3.26,0,0,0,.24-6.89v14l-.08,0L-4.07,11Z"/>
<rect fill="none" x="-12" y="-12" width="24" height="24"/>
</symbol>
<symbol id="anastomosis" viewBox="-12 -12 24 24">
<path d="M2.23-4.78l.37.24L5.22-2.78l-.47.57L2.49-3.7l-4.61,8-.24.44-.37-.34L-5.22,2.3l.55-.52,2.1,1.82L2-4.39Z"/>
<rect fill="none" x="-12" y="-12" width="24" height="24"/>
</symbol>
<symbol id="bivouac" viewBox="-12 -12 24 24">
<path d="M.25-7.66l.24.58L.54-7l3.88.48-3.31.91L6,6H8.35v.48l-16.7.07V6.05h2.64L0-7.08Zm0,1.32L-5.13,6H-4l2.07-5L.2-4l2.09,5L4.37,6H5.44Z"/>
<rect fill="none" x="-12" y="-12" width="24" height="24"/>
</symbol>
<symbol id="bones" viewBox="-12 -12 24 24">
<path d="M2.44,4.27l-.16,0H2.13a.22.22,0,0,1-.11,0l-.1-.06a.39.39,0,0,1-.09-.11l-.08-.13a1.51,1.51,0,0,1-.06-.15l-.07-.17s0-.11-.08-.19-.06-.16-.08-.21a4.75,4.75,0,0,0-.38-.71c-.18-.29-.43-.64-.74-1A11.15,11.15,0,0,0-.7.32,6.73,6.73,0,0,0-2-.64a4.12,4.12,0,0,0-1.44-.52A1.64,1.64,0,0,1-5-2.19.72.72,0,0,1-5-2.44a1,1,0,0,1,0-.29A.52.52,0,0,1-4.87-3a.54.54,0,0,1,.35-.15L-4-3.22l.46,0a.54.54,0,0,0,.27-.06A.52.52,0,0,0-3-3.56a.74.74,0,0,0,.13-.31.54.54,0,0,1,.15-.26.54.54,0,0,1,.3-.15.83.83,0,0,1,.47,0,1.11,1.11,0,0,1,.35.4A7.46,7.46,0,0,1-1-2.76q.18.42.33.72a3.22,3.22,0,0,0,.39.57L.1-1a4.77,4.77,0,0,0,.58.43c.28.18.51.33.69.43l1,.56a1.84,1.84,0,0,0,.39.23A5.29,5.29,0,0,1,3.22.9l.43.26a3.7,3.7,0,0,1,.46.3l.36.29a2.28,2.28,0,0,1,.31.32A1,1,0,0,1,5,2.4c.2.48,0,.78-.47.91h0a8.48,8.48,0,0,0-1.12.09,1,1,0,0,0-.42.44A1,1,0,0,1,2.44,4.27Z"/>
<rect fill="none" x="-12" y="-12" width="24" height="24"/>
</symbol>
<symbol id="calcite" viewBox="-12 -12 24 24">
<path d="M2.36-2.22l.05.46.34,3.91L2,2.22,1.65-1.26-2.52-.06l-.23-.7L1.89-2.08Z"/>
<rect fill="none" x="-12" y="-12" width="24" height="24"/>
</symbol>
<symbol id="cauliflower" viewBox="-12 -12 24 24">
<path d="M5.58,3.22v-3A2.12,2.12,0,0,0,6.92-.43a1.78,1.78,0,0,0,.55-1.32,1.92,1.92,0,0,0-.65-1.42,2.19,2.19,0,0,0-1.53-.59,2.21,2.21,0,0,0-1.54.59,1.78,1.78,0,0,0-.64,1.42A1.86,1.86,0,0,0,3.65-.43,2.12,2.12,0,0,0,5,.23v3H.26v-3A2.17,2.17,0,0,0,1.61-.43a1.81,1.81,0,0,0,.54-1.32,1.91,1.91,0,0,0-.64-1.42A2.21,2.21,0,0,0,0-3.76a2.21,2.21,0,0,0-1.54.59,1.82,1.82,0,0,0-.64,1.42A1.83,1.83,0,0,0-1.66-.43,2.12,2.12,0,0,0-.32.23v3H-5v-3A2.12,2.12,0,0,0-3.71-.43a1.78,1.78,0,0,0,.55-1.32,1.92,1.92,0,0,0-.65-1.42,2.19,2.19,0,0,0-1.53-.59,2.21,2.21,0,0,0-1.54.59,1.83,1.83,0,0,0-.65,1.42A1.87,1.87,0,0,0-7-.43,2.12,2.12,0,0,0-5.64.23v3H-8v.54H8V3.22Z"/>
<rect fill="none" x="-12" y="-12" width="24" height="24"/>
</symbol>
<symbol id="clay" viewBox="-12 -12 24 24">
<path d="M1.85-1.33a3,3,0,0,1,1.67.48,3.23,3.23,0,0,1,1,1l.29.51-1,.43a3.81,3.81,0,0,0-.23-.4A3.74,3.74,0,0,0,2.93,0,1.77,1.77,0,0,0,1.85-.32a2.57,2.57,0,0,0-1.1.15A.86.86,0,0,0,.51.14,2.23,2.23,0,0,1,0,.88a2.55,2.55,0,0,1-1.45.43,3.16,3.16,0,0,1-2.75-1,4.28,4.28,0,0,1-.37-.57,3.91,3.91,0,0,1-.21-.47l0-.16,1-.22a1.87,1.87,0,0,0,.45.79A2.12,2.12,0,0,0-1.51.33,1.82,1.82,0,0,0-.69.14l.21-.36A1.53,1.53,0,0,1,.17-1,3.76,3.76,0,0,1,1.85-1.33Z"/>
<rect fill="none" x="-12" y="-12" width="24" height="24"/>
</symbol>
<symbol id="crystals" viewBox="-12 -12 24 24">
<path d="M-2.94-5.38,0-.72,2.94-5.38,3.62-5,.68-.36H6.56V.36H.68L3.62,5l-.68.36L0,.72-2.94,5.38-3.62,5-.68.36H-6.56V-.36H-.68L-3.62-5Z"/>
<rect fill="none" x="-12" y="-12" width="24" height="24"/>
</symbol>
<symbol id="curtain" viewBox="-12 -12 24 24">
<path d="M3.57-6.69l.52.53L.39-3V-.33L.1-.26a3.79,3.79,0,0,0-1,.41c-.58.3-.87.65-.87,1v.07A1.61,1.61,0,0,0-.84,2.48a3.69,3.69,0,0,0,.45.24L0,2.86l.13.05L.39,3V6.12H-.39V3.51a7.65,7.65,0,0,1-.9-.46A2.19,2.19,0,0,1-2.54,1.28V1.23A2,2,0,0,1-1.31-.48,5.32,5.32,0,0,1-.39-.86V-3l-3.7-3.14.52-.53L0-3.67Z"/>
<rect fill="none" x="-12" y="-12" width="24" height="24"/>
</symbol>
<symbol id="disk" viewBox="-12 -12 24 24">
<path d="M-.09-4.19a2.43,2.43,0,0,1,1.7.64A2,2,0,0,1,2.35-2,2.09,2.09,0,0,1,1.81-.55,2.44,2.44,0,0,1,.35.23l2.18,3.6-.68.33L0,1.14-1.48,4.19l-.71-.29L-.41.25A2.53,2.53,0,0,1-1.9-.47a2,2,0,0,1-.63-1.41,2,2,0,0,1,.67-1.61,2.46,2.46,0,0,1,1.72-.7ZM1.05-3.06.56-3.49l-.69,0A1.72,1.72,0,0,0-1.29-3a1.51,1.51,0,0,0-.45,1.08,1.36,1.36,0,0,0,.51,1A1.68,1.68,0,0,0-.07-.44v0l0,0A1.7,1.7,0,0,0,1.11-.92,1.36,1.36,0,0,0,1.56-2,1.47,1.47,0,0,0,1.05-3.06Z"/>
<rect fill="none" x="-12" y="-12" width="24" height="24"/>
</symbol>
<symbol id="entrance" viewBox="-12 -12 24 24">
<path d="M4.46,9H-4.46L0-9Z"/>
<rect fill="none" x="-12" y="-12" width="24" height="24"/>
</symbol>
<symbol id="flowstone" viewBox="-12 -12 24 24">
<rect x="-6" y="-0.21" width="12" height="0.42"/>
<rect fill="none" x="-12" y="-12" width="24" height="24"/>
</symbol>
<symbol id="flutes" viewBox="-12 -12 24 24">
<path d="M-7-1H7v.72H3.87A4.7,4.7,0,0,1,2.16,1.5,4.2,4.2,0,0,1,0,2.13,3.94,3.94,0,0,1-2.19,1.5,4.18,4.18,0,0,1-3.76-.27H-7Zm4.17.72A3.15,3.15,0,0,0-1.65,1,3.21,3.21,0,0,0,0,1.41,3.49,3.49,0,0,0,1.6,1,3.68,3.68,0,0,0,3-.27Z"/>
<rect fill="none" x="-12" y="-12" width="24" height="24"/>
</symbol>
<symbol id="gradient" viewBox="-12 -12 24 24">
<path d="M2.58-3.83,0-10-2.58-3.83A4.74,4.74,0,0,1-.17-4.5V10H.25V-4.5A6.65,6.65,0,0,1,2.58-3.83Z"/>
<rect fill="none" x="-12" y="-12" width="24" height="24"/>
</symbol>
<symbol id="guano" viewBox="-12 -12 24 24">
<path d="M-3.24-3a2.15,2.15,0,0,1,1.57.55A3.93,3.93,0,0,1-.59.24a4.32,4.32,0,0,1,2.75-2.3,2.68,2.68,0,0,1,2.23.36A2.36,2.36,0,0,1,5.5.19l-.79,0a1.72,1.72,0,0,0-.79-1.37,1.94,1.94,0,0,0-1.55-.24A3.53,3.53,0,0,0,.48,0,6.63,6.63,0,0,0-.69,3l-.79-.09a10.72,10.72,0,0,0,0-3.16A3.21,3.21,0,0,0-2.22-2,1.44,1.44,0,0,0-3.37-2.3,3.45,3.45,0,0,0-5-1.54l-.5-.55a4.29,4.29,0,0,1,2-.91A.9.9,0,0,1-3.24-3Z"/>
<rect fill="none" x="-12" y="-12" width="24" height="24"/>
</symbol>
<symbol id="helictites" viewBox="-12 -12 24 24">
<path d="M-4.59-7.92h.79v7.7l3.41,0V-7.92H.39V-.17L4.2-.12h.39v8H3.8V.6L.39.55V7.92H-.39V.55L-4.2.5l-.39,0v-8.4Z"/>
<rect fill="none" x="-12" y="-12" width="24" height="24"/>
</symbol>
<symbol id="human" viewBox="-12 -12 24 24">
<path d="M-3.59-3.29A5.13,5.13,0,0,1,0-4.66,5.13,5.13,0,0,1,3.59-3.29,4.3,4.3,0,0,1,5.09,0a4.3,4.3,0,0,1-1.5,3.29A5.13,5.13,0,0,1,0,4.66,5.13,5.13,0,0,1-3.59,3.29,4.3,4.3,0,0,1-5.09,0,4.3,4.3,0,0,1-3.59-3.29Zm.28.77A3.68,3.68,0,0,0-4.3,0a3.62,3.62,0,0,0,1,2.57L-.5.05ZM0-3.94A4.42,4.42,0,0,0-2.75-3L.16-.36H4.28A3.62,3.62,0,0,0,2.91-2.9,4.38,4.38,0,0,0,0-3.94ZM.16.46-2.7,3.07A4.42,4.42,0,0,0,0,3.94a4.37,4.37,0,0,0,2.87-1A3.78,3.78,0,0,0,4.28.46Z"/>
<rect fill="none" x="-12" y="-12" width="24" height="24"/>
</symbol>
<symbol id="karren" viewBox="-12 -12 24 24">
<path d="M1-5.84h0a1.37,1.37,0,0,1,1.06.68A3.33,3.33,0,0,1,2.5-3.79,25.79,25.79,0,0,1,2.36,0a18.61,18.61,0,0,0-.08,3.72,2.68,2.68,0,0,0,.41,1.2,1.13,1.13,0,0,0,.79.5A.92.92,0,0,0,4,4.94a4.43,4.43,0,0,0,.47-1.22c.16-.64.36-1.86.59-3.66a26.71,26.71,0,0,1,.64-3.69,4.62,4.62,0,0,1,.57-1.29,1.34,1.34,0,0,1,1-.59h0A1.28,1.28,0,0,1,8.37-5a2.17,2.17,0,0,1,.39,1.15A19.91,19.91,0,0,1,8.54-.53a21.51,21.51,0,0,0-.2,3.64A2.64,2.64,0,0,0,9.45,5.36,1.91,1.91,0,0,0,10.88,5a3.84,3.84,0,0,0,.7-1l.42.2-.1.18-.12.21-.11.18L11.52,5a.94.94,0,0,1-.14.16c-.06.07-.13.12-.19.18a2.5,2.5,0,0,1-1.85.41H9.29l0,0A3.06,3.06,0,0,1,7.87,3.13a22.11,22.11,0,0,1,.2-3.7,18.17,18.17,0,0,0,.22-3.28A1.85,1.85,0,0,0,8-4.79a.77.77,0,0,0-.67-.3.93.93,0,0,0-.64.42,4.51,4.51,0,0,0-.51,1.15A26.26,26.26,0,0,0,5.54.1c-.24,1.83-.45,3.07-.61,3.72a5.38,5.38,0,0,1-.51,1.34,1.33,1.33,0,0,1-.89.68H3.47A1.58,1.58,0,0,1,2.3,5.16a3.29,3.29,0,0,1-.49-1.4A20.27,20.27,0,0,1,1.89,0,23.45,23.45,0,0,0,2-3.75a2.94,2.94,0,0,0-.32-1.19A.93.93,0,0,0,1-5.42,1.1,1.1,0,0,0,.19-5,3.69,3.69,0,0,0-.43-3.76,20.78,20.78,0,0,0-1.07.07c-.2,2-.37,3.32-.49,3.86A4.48,4.48,0,0,1-2,5.26,1.06,1.06,0,0,1-3,5.81h0a1.9,1.9,0,0,1-1.29-.67,2.7,2.7,0,0,1-.58-1.31,14.92,14.92,0,0,1,0-3.6q0-.12.06-.54c0-.28,0-.47,0-.57s0-.28,0-.52,0-.42,0-.55,0-.28,0-.47,0-.36,0-.51,0-.29,0-.43A3.09,3.09,0,0,0-5-4.62a1.19,1.19,0,0,0-.67-.6,1.5,1.5,0,0,0-1.2.9A7,7,0,0,0-7.41-2.1c0,.39-.1,1-.14,1.76s-.11,1.47-.18,2.08A9.61,9.61,0,0,1-8,3.32h0l0,0A2.81,2.81,0,0,1-9.2,4.62a1.82,1.82,0,0,1-1.35.15A1.94,1.94,0,0,1-11.61,4,2.39,2.39,0,0,1-12,2.56l.47,0a1.92,1.92,0,0,0,.31,1.16,1.47,1.47,0,0,0,.81.62,1.3,1.3,0,0,0,1-.11A2.32,2.32,0,0,0-8.5,3.18a7.53,7.53,0,0,0,.29-1.5Q-8.1.8-8-.36c0-.78.1-1.37.16-1.78A7.23,7.23,0,0,1-7.28-4.5,1.93,1.93,0,0,1-5.65-5.66h.05l0,0a1.59,1.59,0,0,1,1,.84,3.47,3.47,0,0,1,.34,1.41,4.91,4.91,0,0,1,0,.57v.54c0,.15,0,.37,0,.66s0,.47,0,.58,0,.33-.06.68,0,.56-.06.63a14.78,14.78,0,0,0,0,3.49,2.58,2.58,0,0,0,.5,1.13,1.57,1.57,0,0,0,1,.5A.61.61,0,0,0-2.44,5,3.89,3.89,0,0,0-2,3.85C-1.9,3.31-1.74,2-1.53,0A20.65,20.65,0,0,1-.86-3.89,3.89,3.89,0,0,1-.18-5.26,1.58,1.58,0,0,1,1-5.84Z"/>
<rect fill="none" x="-12" y="-12" width="24" height="24"/>
</symbol>
<symbol id="moonmilk" viewBox="-12 -12 24 24">
<path d="M-4.78-3.06a3.39,3.39,0,0,1,1.5.34,2.48,2.48,0,0,1,1.1,1,3.74,3.74,0,0,1,1.62-.8,3.52,3.52,0,0,1,1.71,0,2.9,2.9,0,0,1,1.39.77A2.49,2.49,0,0,1,3.25-.37,4,4,0,0,1,5-.76a3.58,3.58,0,0,1,1.6.36A2.84,2.84,0,0,1,7.88.92a2.32,2.32,0,0,1,0,1.88.34.34,0,0,1-.37.26A.36.36,0,0,1,7.25,3a.32.32,0,0,1-.12-.25.21.21,0,0,1,0-.12,2,2,0,0,0,0-1.43,2,2,0,0,0-1-.9A2.81,2.81,0,0,0,4.68,0,2.78,2.78,0,0,0,3.12.56L2.46.25A1.7,1.7,0,0,0,2.15-1.1,2.15,2.15,0,0,0,1-1.81a2.85,2.85,0,0,0-1.58.06A3,3,0,0,0-2-.83l-.71-.12A1.74,1.74,0,0,0-3.55-2a2.36,2.36,0,0,0-1.39-.27,3.08,3.08,0,0,0-1.45.53A2.33,2.33,0,0,0-7.32-.56a.35.35,0,0,1-.37.24A.39.39,0,0,1-8-.42a.33.33,0,0,1-.1-.26v-.1A3,3,0,0,1-6.89-2.35,4,4,0,0,1-5-3Z"/>
<rect fill="none" x="-12" y="-12" width="24" height="24"/>
</symbol>
<symbol id="narrow" viewBox="-12 -12 24 24">
<path d="M-1.5,5V-5h0.64V5H-1.5z"/>
<path d="M0.86,5V-5H1.5V5H0.86z"/>
<rect fill="none" x="-12" y="-12" width="24" height="24"/>
</symbol>
<symbol id="paleoflow" viewBox="-12 -12 24 24">
<path d="M.38-12V.17A1.9,1.9,0,0,0,1,0,1.57,1.57,0,0,0,1.7-.72a1.86,1.86,0,0,0,.23-1c0-.09,0-.14.08-.16a.92.92,0,0,1,.24,0,.52.52,0,0,0,.25,0h.08A2.48,2.48,0,0,1,2,0,2.5,2.5,0,0,1,.38.77V7.21H2.09L0,12-1.8,7.23c.07,0,.59,0,1.53,0V.77A3,3,0,0,1-1.35.43a2.16,2.16,0,0,1-1-1,2.38,2.38,0,0,1-.24-1.33l.67,0a2,2,0,0,0,.15,1,1.73,1.73,0,0,0,.59.67A2.14,2.14,0,0,0-.27.16V-12Z"/>
<rect fill="none" x="-12" y="-12" width="24" height="24"/>
</symbol>
<symbol id="rain" viewBox="-12 -12 24 24">
<path d="M-4.14-6.34h0.71v4.69h-0.71V-6.34z"/>
<path d="M-0.35-6.34h0.71v4.69h-0.71V-6.34z"/>
<path d="M3.43-6.34h0.71v4.69H3.43V-6.34z"/>
<path d="M-4.14,1.65h0.71v4.69h-0.71V1.65z"/>
<path d="M-0.35,1.65h0.71v4.69h-0.71V1.65z"/>
<path d="M3.43,1.65h0.71v4.69H3.43V1.65z"/>
<rect fill="none" x="-12" y="-12" width="24" height="24"/>
</symbol>
<symbol id="rats" viewBox="-12 -12 24 24">
<path d="M8.78-2.32,7-2.27c-.51-.17-.65-.56-1.46-.45l-.25.45C3.59-2.75,2.59-3.66.56-3.62l-1.35.3A4.89,4.89,0,0,0-4.24,1.57c-.68.6-2.58.86-3.39.94a6.84,6.84,0,0,0-1.62.39,4.91,4.91,0,0,0-1,.52A1.75,1.75,0,0,0-11,4.61a1.16,1.16,0,0,0,.59,1.48,1.3,1.3,0,0,1,.14.12c.16-.52-.35-.92-.2-1.42a3.35,3.35,0,0,1,.27-.45,3.18,3.18,0,0,1,1.79-1c.63-.12,1.27-.22,1.91-.3.48-.07,1,0,1.4-.12A6.94,6.94,0,0,1-4,2.82,30.64,30.64,0,0,0,.41,2.69l2.16.15c.1-.09,0,0,.1-.15a.87.87,0,0,0-.9-.55c.86-1,2.27-.37,3.1-.05.5.19,1,0,1.25.4.11-.1.1-.07.15-.25.3,0,.31.07.6.15-.06-.49-.34-.64-1-.6a.78.78,0,0,1,0-.55C6.3.56,7.29.73,8.13.43a13.78,13.78,0,0,0,2.15-.9l.6-.85v-.2A16.9,16.9,0,0,0,8.78-2.32Z"/>
<rect fill="none" x="-12" y="-12" width="24" height="24"/>
</symbol>
<symbol id="sand" viewBox="-12 -12 24 24">
<path d="M-1.58,0.83c0.23,0.2,0.35,0.44,0.36,0.73c0.01,0.29-0.08,0.54-0.28,0.75c-0.2,0.21-0.46,0.32-0.78,0.33c-0.32,0.01-0.6-0.08-0.83-0.26C-3.36,2.19-3.49,1.95-3.5,1.67C-3.51,1.38-3.41,1.12-3.2,0.9c0.21-0.22,0.48-0.34,0.8-0.35C-2.08,0.54-1.81,0.64-1.58,0.83z"/>
<path d="M0.08-2.36c0.23,0.2,0.35,0.44,0.36,0.73c0.01,0.29-0.08,0.54-0.28,0.75c-0.2,0.21-0.46,0.32-0.78,0.33c-0.32,0.01-0.59-0.07-0.83-0.26s-0.37-0.42-0.38-0.71c-0.01-0.29,0.09-0.54,0.3-0.76c0.21-0.22,0.48-0.33,0.8-0.35C-0.42-2.65-0.14-2.56,0.08-2.36z"/>
<path d="M3.12,0.55c0.23,0.2,0.35,0.43,0.38,0.71c0.02,0.28-0.07,0.53-0.28,0.75C3,2.23,2.73,2.35,2.42,2.36C2.1,2.37,1.82,2.28,1.58,2.08C1.34,1.88,1.22,1.64,1.2,1.35c-0.01-0.29,0.09-0.54,0.3-0.75C1.72,0.4,1.99,0.29,2.3,0.28S2.89,0.36,3.12,0.55z"/>
<rect fill="none" x="-12" y="-12" width="24" height="24"/>
</symbol>
<symbol  id="scallops" viewBox="-12 -12 24 24">
<path d="M.05-3.74l.21,0A2.35,2.35,0,0,1,1.74-3a2,2,0,0,1,.59,1.55v0l0,0A9.59,9.59,0,0,1-.08,3.27l-.39.47-.27-.55A14.26,14.26,0,0,1-2.33-1.89v-.05l0-.05A2,2,0,0,1-1.44-3.3,2.42,2.42,0,0,1,.05-3.74ZM-.11-3A1.44,1.44,0,0,0-1.55-1.89,13.06,13.06,0,0,0-.29,2.33,8.6,8.6,0,0,0,1.55-1.54a1.41,1.41,0,0,0-.38-1A1.62,1.62,0,0,0,.18-3Z"/>
<rect fill="none" x="-12" y="-12" width="24" height="24"/>
</symbol>
<symbol  id="sink" viewBox="-12 -12 24 24">
<path d="M.72,9.41H.9c1.94,0,3.26-.54,3.94-1.51a3.61,3.61,0,0,0,.33-.69,2,2,0,0,0,.11-.54V6.46l.69,0a2.8,2.8,0,0,1-.58,1.78C4.58,9.39,3.1,10,.93,10H-.93q-3.25,0-4.46-1.8a2.74,2.74,0,0,1-.43-.83A2.37,2.37,0,0,1-6,6.67V6.43l.68,0A2.27,2.27,0,0,0-4.84,7.9c.68,1,2,1.47,3.93,1.48l.5,0ZM-1.46-10a.68.68,0,0,0,.16.41A2.77,2.77,0,0,0-.51-9l0,0a3.63,3.63,0,0,1,1,.7,1.15,1.15,0,0,1,.34.88c0,.58-.53,1.14-1.49,1.68-.68.42-1,.79-1,1.11s.3.61.84,1h0Q.61-2.86.46-1.78a3.51,3.51,0,0,1-1.55,2,.61.61,0,0,0-.26.41,1.67,1.67,0,0,0,.1.51,5.3,5.3,0,0,1,.32,1L.56,1.9.46,8.06-3.4,2.54l1.73-.28A6.16,6.16,0,0,0-2,1.39,1.7,1.7,0,0,1-2.09.58a1.21,1.21,0,0,1,.53-.82h0v0C-.75-.86-.33-1.38-.28-1.85s-.23-.87-.91-1.27h0C-2-3.6-2.37-4.1-2.4-4.61S-2-5.74-1.09-6.29C-.34-6.72.06-7.1.09-7.44a.67.67,0,0,0-.18-.43,3.17,3.17,0,0,0-.79-.58,2.93,2.93,0,0,1-1-.67A1.16,1.16,0,0,1-2.17-10Z"/>
<rect fill="none" x="-12" y="-12" width="24" height="24"/>
</symbol>
<symbol  id="spring" viewBox="-12 -12 24 24">
<path d="M-1.34-9.86,2.52-4.34.78-4.06a8,8,0,0,0,.29.87,1.4,1.4,0,0,1,.13.79,1.3,1.3,0,0,1-.52.84l0,0v0C-.13-.95-.55-.42-.61,0S-.37.91.31,1.3l0,0c.75.46,1.14,1,1.18,1.46S1.12,3.92.21,4.46C-.54,4.9-.94,5.29-1,5.64a.74.74,0,0,0,.18.43A3.2,3.2,0,0,0,0,6.62a3,3,0,0,1,1,.7,1.14,1.14,0,0,1,.31.86A1.74,1.74,0,0,1,.71,9.26H.92c1.92,0,3.22-.52,3.9-1.51a2.05,2.05,0,0,0,.35-.67,2.59,2.59,0,0,0,.1-.55l0-.19.65,0a2.84,2.84,0,0,1-.55,1.8C4.58,9.26,3.08,9.85.92,9.86H-.92c-2.17,0-3.66-.6-4.49-1.77a3.65,3.65,0,0,1-.4-.85A2.43,2.43,0,0,1-6,6.53V6.29l.66,0a2.08,2.08,0,0,0,.47,1.41c.68,1,2,1.5,3.91,1.51H-.4c.62-.43.94-.8,1-1.1a.76.76,0,0,0-.16-.43,3.25,3.25,0,0,0-.79-.51v0a3.8,3.8,0,0,1-1-.7,1.15,1.15,0,0,1-.34-.91q.06-.84,1.5-1.68c.68-.4,1-.77,1-1.1S.49,2.21,0,1.87c0,0,0,0,0,0C-1,1.32-1.44.69-1.34,0a3.58,3.58,0,0,1,1.55-2,.54.54,0,0,0,.23-.38A1.28,1.28,0,0,0,.37-3a4.57,4.57,0,0,1-.32-1l-1.49.24Z"/>
<rect fill="none" x="-12" y="-12" width="24" height="24"/>
</symbol>
<symbol  id="stalactite" viewBox="-12 -12 24 24">
<path d="M3.57-6.69l.52.53L.39-3V6.12H-.39V-3l-3.7-3.14.52-.53L0-3.67Z"/>
<rect fill="none" x="-12" y="-12" width="24" height="24"/>
</symbol>
<symbol  id="stalagmite" viewBox="-12 -12 24 24">
<path d="M.38-6.42V2.75L4.11,5.89l-.56.53L0,3.4l-3.57,3-.53-.53,3.7-3.14V-6.42Z"/>
<rect fill="none" x="-12" y="-12" width="24" height="24"/>
</symbol>
<symbol  id="stalagnate" viewBox="-12 -12 24 24">
<path d="M3.55-8.46l.56.53L.38-4.78v9L4.11,7.36l-.56.53L0,4.86l-3.57,3-.53-.53,3.7-3.14v-9l-3.7-3.15.53-.53L0-5.43Z"/>
<rect fill="none" x="-12" y="-12" width="24" height="24"/>
</symbol>
<symbol  id="straws" viewBox="-12 -12 24 24">
<path d="M-10.89-2.76H10.89V-2H9.63V.46H8.84V-2H8.29v5.6H7.5V-2H5.56V.7H4.77V-2H2.07V2.38H1.29V-2H-.1v3H-.89V-2H-3.2V4.11H-4V-2H-6.22L-6.16.75l-.79,0L-7-2H-8.32V2.33H-9.1V-2h-1.79Z"/>
<rect fill="none" x="-12" y="-12" width="24" height="24"/>
</symbol>
<symbol  id="water" viewBox="-12 -12 24 24">
<path d="M-1.72-9.86,2.11-4.32.38-4.06a6.49,6.49,0,0,0,.29.89,1.5,1.5,0,0,1,.13.79,1.2,1.2,0,0,1-.5.82h0l0,0C-.54-.94-1-.42-1,.05s.24.89.92,1.27h0c.77.48,1.17,1,1.19,1.49S.71,3.94-.2,4.49c-.75.43-1.13.81-1.15,1.15a.51.51,0,0,0,.18.43,2.66,2.66,0,0,0,.76.58,2.93,2.93,0,0,1,1,.67,1.16,1.16,0,0,1,.29.89C.84,8.75.42,9.3-.41,9.86l-.44-.55c.66-.45,1-.83,1-1.15A.47.47,0,0,0,0,7.75a2.84,2.84,0,0,0-.78-.53h0a3.87,3.87,0,0,1-1-.69,1.24,1.24,0,0,1-.34-.91c0-.58.54-1.14,1.52-1.68.66-.42,1-.79,1-1.11s-.3-.61-.84-1h0Q-1.9,1.06-1.74,0a3.44,3.44,0,0,1,1.54-2,.67.67,0,0,0,.27-.41A1.11,1.11,0,0,0,0-3a4.33,4.33,0,0,1-.31-1l-1.5.24Z"/>
<rect fill="none" x="-12" y="-12" width="24" height="24"/>
</symbol><symbol  id="tree" viewBox="-12 -12 24 24">
<path d="M7.4-5.04A4.271,4.271,0,0,0,7.7-6.627a4.3,4.3,0,0,0-4.3-4.3A4.279,4.279,0,0,0,.636-9.914,4.293,4.293,0,0,0-3.045-12a4.3,4.3,0,0,0-4.3,4.3,4.27,4.27,0,0,0,.421,1.845,4.3,4.3,0,0,0-3.645,4.244,4.3,4.3,0,0,0,4.3,4.3A4.282,4.282,0,0,0-3.946,2L-1.175,5.23h0L-1.612,12H.982L.757,6.376,4.119,2.827v0a4.272,4.272,0,0,0,2.15.58,4.3,4.3,0,0,0,4.3-4.3A4.3,4.3,0,0,0,7.4-5.04ZM-3.346,1.538h0A4.346,4.346,0,0,0-2.7.788a4.266,4.266,0,0,0,1.765.753l-.135,2.087ZM.69,4.7.563,1.544A4.258,4.258,0,0,0,2.321.805,4.3,4.3,0,0,0,3.378,2.279Z"/>
<rect fill="none" x="-12" y="-12" width="24" height="24"/>
</symbol><g>
<desc></desc>
<g>
<line fill="none" stroke="#dddddd" stroke-width="0.1mm" x1="0.00" y1="37.00" x2="70.00" y2="37.00" />
<text x="67.20" y="36.80" font-size=".2mm" fill="#000000">0m</text>
<line fill="none" stroke="#dddddd" stroke-width="0.1mm" x1="0.00" y1="17.00" x2="70.00" y2="17.00" />
<text x="67.20" y="16.80" font-size=".2mm" fill="#000000">10m</text>
<line fill="none" stroke="#dddddd" stroke-width="0.1mm" x1="0.00" y1="57.00" x2="70.00" y2="57.00" />
<text x="67.20" y="56.80" font-size=".2mm" fill="#000000">-10m</text>
</g>
<g>
<path fill="none" stroke="#000000" stroke-width="0.06mm" d="M25.101809,33.90261 C25.01033,33.945877 24.913921,33.979977 24.827372,34.032417 C24.707481,34.105057 24.341095,34.45389 24.297714,34.49193 C24.22983,34.55145 24.19363,34.556656 24.156569,34.634666 C24.130226,34.69011 24.116459,34.816315 24.11191,34.840736 L24.11191,34.840736" /><path fill="none" stroke="#000000" stroke-width="0.06mm" d="M24.384867,34.64205 C24.460558,34.470657 24.585104,34.380745 24.725199,34.25851 L24.725199,34.25851" /><path fill="none" stroke="#000000" stroke-width="0.06mm" d="M24.878952,34.1082 C24.90582,34.08206 25.322023,33.67715 25.322258,33.676895 C26.16584,32.758976 27.026665,31.85601 27.838997,30.910322 C28.166534,30.529015 28.439034,30.103685 28.738432,29.69991 C28.775429,29.650015 28.80645,29.595324 28.84818,29.549314 C29.661373,28.652744 29.182877,29.17494 29.919308,28.521612 C30.104351,28.357449 30.203823,28.194302 30.436302,28.11903 C30.647663,28.050598 30.985134,28.063744 31.14658,28.054443 L31.14658,28.054443" /><path fill="none" stroke="#000000" stroke-width="0.06mm" d="M23.033907,33.379124 C22.89793,33.33998 23.144606,32.92401 22.958635,32.846367 C22.89722,32.82073 22.797607,32.8367 22.743675,32.838364 L22.743675,32.838364" /><path fill="none" stroke="#000000" stroke-width="0.06mm" d="M22.73158,32.85564 L22.736996,32.850693" /><path fill="none" stroke="#000000" stroke-width="0.06mm" d="M23.745667,32.22159 C23.603424,32.29916 23.695862,32.26619 23.453705,32.259594 L23.453705,32.259594" /><path fill="none" stroke="#000000" stroke-width="0.06mm" d="M22.90261,32.746796 C22.953194,32.70022 23.012281,32.661438 23.054361,32.607056 C24.291103,31.008604 23.459145,31.976849 24.47005,30.730888 C24.487072,30.709911 24.510994,30.695606 24.53225,30.678932 C25.260914,30.107336 26.005608,29.555712 26.719776,28.966106 C27.933067,27.96443 26.375076,28.713667 28.742867,27.488174 C29.097301,27.30473 29.495789,27.223015 29.86924,27.082272 C29.912586,27.065935 29.953701,27.043255 29.992113,27.017368 C30.03725,26.98695 30.076488,26.948574 30.118675,26.914179 L30.118675,26.914179" /><path fill="none" stroke="#000000" stroke-width="0.06mm" d="M22.743103,42.637306 C22.876057,42.498962 22.803038,42.56547 22.963945,42.439713 L22.963945,42.439713" /><path fill="none" stroke="#000000" stroke-width="0.06mm" d="M30.513393,26.714634 C30.506172,26.751965 30.498957,26.789295 30.491737,26.826626 C30.495213,26.83339 30.49575,26.842834 30.502167,26.846916 C30.534374,26.867403 30.71814,26.775719 30.597343,26.768951 C30.53594,26.76551 30.47292,26.753216 30.41286,26.766453 C30.360884,26.777905 30.318642,26.815987 30.271532,26.840755 L30.271532,26.840755" /><path fill="none" stroke="#000000" stroke-width="0.06mm" d="M30.314722,26.832115 L30.311499,26.832348" /><path fill="none" stroke="#000000" stroke-width="0.06mm" d="M30.290535,26.87358 L30.290768,26.880722" /><path fill="none" stroke="#000000" stroke-width="0.06mm" d="M20.0,37.0 L20.0,37.0" /><path fill="none" stroke="#000000" stroke-width="0.06mm" d="M31.52575,25.13727 L31.422094,24.850477" /><path fill="none" stroke="#000000" stroke-width="0.06mm" d="M29.989937,26.997972 C30.379463,26.645496 29.960316,27.002504 30.576595,26.585783 C30.626682,26.551912 30.747765,26.435661 30.780373,26.372185 C31.124752,25.701773 31.456238,25.024815 31.792225,24.350157 C32.78492,22.356838 32.648487,22.439764 33.781868,20.744635 C33.94081,20.506905 34.35717,19.900452 34.6924,19.734467 C34.822483,19.670057 34.88768,19.671103 35.041355,19.641548 L35.041355,19.641548" /><path fill="none" stroke="#000000" stroke-width="0.06mm" d="M35.891407,19.728035 C35.56948,19.672506 35.476357,19.655815 35.17388,19.749352 C35.168022,19.751163 35.180374,19.759766 35.18362,19.76497 C35.31148,19.771849 35.439213,19.789274 35.567207,19.785608 C35.679184,19.7824 35.7901,19.76198 35.90074,19.744425 C36.166134,19.702314 36.265606,19.645386 36.51745,19.674606 C36.84559,19.712677 37.17135,19.769037 37.49814,19.817352 C37.663124,19.841743 37.654663,19.828135 37.77273,19.698664 L37.77273,19.698664" /><path fill="none" stroke="#000000" stroke-width="0.06mm" d="M37.75891,19.831696 C37.858746,19.864798 37.99841,19.87462 38.08715,19.948954 C38.218365,20.058865 38.232437,20.29282 38.24961,20.43603 C38.2698,20.604385 38.26845,20.77519 38.29464,20.942717 C38.31922,21.09999 38.394226,21.24913 38.40156,21.408146 C38.69197,27.702751 38.497627,24.196054 38.52528,27.458122 C38.5261,27.554817 38.585365,27.663002 38.659775,27.72238 C38.689808,27.746344 38.721462,27.76851 38.754772,27.787659 C38.94338,27.896069 39.137314,27.99509 39.325146,28.104836 C39.393272,28.14464 39.446205,28.241455 39.47151,28.31038 C39.54127,28.500355 39.57446,28.669147 39.35961,28.760357 C39.198833,28.82861 39.011887,28.76282 38.85503,28.835714 C38.672356,28.920609 38.490387,29.007217 38.31128,29.0994 C38.254967,29.12838 38.224297,29.189117 38.166996,29.217617 C38.149246,29.226448 38.130646,29.233692 38.111687,29.239498 C37.91465,29.299835 37.711914,29.342976 37.519215,29.415985 C37.375435,29.470463 37.189735,29.59238 37.06958,29.70039 C37.03523,29.731274 37.00379,29.765877 36.97699,29.8035 C36.82859,30.01178 36.67425,30.216833 36.54457,30.437256 C36.43088,30.630495 36.346107,30.839355 36.24874,31.041311 C36.22672,31.08699 36.213257,31.137062 36.18643,31.1801 C36.13645,31.2603 35.992073,31.52094 35.85829,31.629427 C35.83061,31.651878 35.79863,31.669172 35.76422,31.678596 C35.65865,31.707504 35.464,31.671747 35.404243,31.564636 C35.308388,31.392822 35.340958,31.423489 35.27555,31.203342 C35.23922,31.08108 35.204617,30.958134 35.161533,30.838085 C35.140766,30.780218 35.10703,30.727718 35.084354,30.670572 C35.056107,30.599367 35.076675,30.507793 35.084633,30.43614 L35.084633,30.43614" /><path fill="none" stroke="#000000" stroke-width="0.06mm" d="M35.14164,30.565716 C35.06133,30.609615 34.998455,30.632967 34.936993,30.697737 C34.902626,30.733953 34.873043,30.774446 34.84218,30.81369 C34.79683,30.87135 34.772137,30.920624 34.68938,30.887676 C34.657356,30.874928 34.633667,30.862703 34.6077,30.83983 C34.56893,30.805676 34.51005,30.715427 34.490944,30.694036 C34.436287,30.63284 34.369083,30.585512 34.2966,30.5478 C34.13367,30.463034 33.884552,30.465313 33.739162,30.439692 C33.65907,30.425577 33.59589,30.34571 33.531994,30.307617 C33.426777,30.244892 33.288452,30.155785 33.155373,30.13013 C33.04856,30.109539 32.95217,30.111643 32.84326,30.130016 C32.687416,30.156307 32.47583,30.280602 32.350525,30.11235 C32.078213,29.746714 31.910933,28.791561 31.892944,28.737457 C31.875881,28.686138 31.776165,28.419321 31.698532,28.332092 C31.519258,28.130653 31.299389,27.970398 31.06112,27.846363 L31.06112,27.846363" /><path fill="none" stroke="#000000" stroke-width="0.06mm" d="M30.580854,28.140066 C30.562181,28.296627 30.555164,28.204197 30.667233,28.4044 L30.667233,28.4044" /><path fill="none" stroke="#000000" stroke-width="0.06mm" d="M31.767694,38.74106 C31.698126,38.933563 31.63892,39.087345 31.780552,39.25646 C31.79562,39.27445 31.84449,39.319675 31.868458,39.326984 C31.94349,39.34986 32.02126,39.362526 32.097664,39.380295 L32.097664,39.380295" /><path fill="none" stroke="#000000" stroke-width="0.06mm" d="M29.752926,28.362099 C29.662283,28.382547 29.591888,28.406944 29.525787,28.471386 C29.493198,28.503159 29.462353,28.54459 29.443203,28.586103 C29.421352,28.633467 29.408663,28.67713 29.40466,28.728653 C29.40142,28.77031 29.41055,28.81317 29.4315,28.84932 C29.543402,29.042381 29.963486,28.693016 29.767593,28.522635 C29.621853,28.395874 29.461548,28.423828 29.291462,28.487812 C29.24781,28.504234 29.20109,28.534887 29.176037,28.575672 C29.151459,28.61569 29.156437,28.662134 29.153458,28.707634 L29.153458,28.707634" /><path fill="none" stroke="#000000" stroke-width="0.06mm" d="M28.77512,28.655804 C28.46901,28.97327 28.433327,28.964186 28.240746,29.298866 C28.18204,29.40089 28.131105,29.547655 28.155884,29.668144 C28.189823,29.83318 28.419975,29.840218 28.542053,29.788395 C28.88403,29.643232 28.929611,29.365425 29.02864,29.023733 C29.084854,28.829777 28.852133,28.602184 28.65982,28.665413 C28.57219,28.694225 28.48738,28.805319 28.462608,28.89033 C28.450874,28.9306 28.445213,28.972397 28.436516,29.013432 L28.436516,29.013432" /><path fill="none" stroke="#000000" stroke-width="0.06mm" d="M27.669476,29.637121 C27.496943,29.80325 27.407745,29.856476 27.302015,30.054653 C27.260366,30.132719 27.226612,30.215124 27.197786,30.298779 C27.121119,30.521269 27.074463,30.721626 27.259432,30.895935 C27.325289,30.957994 27.407856,31.00184 27.500065,30.998478 C27.564968,30.99611 27.62672,30.973236 27.68618,30.948967 C27.754711,30.92099 27.800419,30.877068 27.852371,30.822622 C28.047264,30.618382 28.073242,30.305847 28.089497,30.041145 C28.0942,29.96452 28.042404,29.819317 28.022675,29.768114 C27.95069,29.581299 27.78436,29.487265 27.590303,29.56429 C27.529936,29.588251 27.45035,29.629227 27.399788,29.674774 C27.333658,29.734346 27.2859,29.807343 27.245094,29.886192 C27.141872,30.085644 27.18328,30.167534 27.228945,30.390385 L27.228945,30.390385" /><path fill="none" stroke="#000000" stroke-width="0.06mm" d="M26.707218,30.504412 C26.6195,30.579145 26.524834,30.64642 26.444063,30.728615 C26.333443,30.841188 26.216154,31.0315 26.160986,31.177317 C26.125906,31.270039 25.975346,31.67749 26.038303,31.842571 C26.08398,31.962343 26.152506,32.08718 26.251871,32.170666 C26.28917,32.202003 26.342821,32.22232 26.387348,32.23592 C26.532864,32.28037 26.627554,32.25366 26.746986,32.160297 C26.780626,32.134003 26.847822,32.071903 26.870995,32.02781 C26.913864,31.946228 26.95684,31.864145 26.989006,31.77778 C27.013414,31.712248 27.030813,31.643595 27.039917,31.57426 C27.075104,31.306255 27.090672,31.168331 26.9983,30.937593 C26.913218,30.725061 26.638432,30.735764 26.526695,30.919476 C26.474485,31.005322 26.486616,31.077557 26.477451,31.185114 L26.477451,31.185114" /><path fill="none" stroke="#000000" stroke-width="0.06mm" d="M31.281567,28.044754 C31.440983,28.526333 31.556149,29.024889 31.759811,29.489489 C31.985203,30.003653 32.35408,30.448654 32.56365,30.969467 C32.845474,31.66987 32.998158,32.41562 33.22676,33.135155 C33.386448,33.637775 33.56543,34.13409 33.72843,34.635647 C33.779938,34.79413 33.79764,34.96503 33.870197,35.115047 C34.418404,36.2485 34.98371,37.374435 35.587456,38.479305 C35.667625,38.62602 35.806324,38.7321 35.915756,38.858498 L35.915756,38.858498" /><path fill="none" stroke="#000000" stroke-width="0.06mm" d="M34.866688,35.557102 L34.722973,35.28825" /><path fill="none" stroke="#000000" stroke-width="0.06mm" d="M35.6174,37.371426 C35.54274,37.20616 35.47749,37.036312 35.39342,36.87563 C35.179764,36.467274 35.01306,36.31863 34.90696,35.922646 C34.88965,35.81779 34.87234,35.712936 34.85503,35.60808 C34.850304,35.50803 34.863625,35.405464 34.840843,35.307926 C34.793167,35.103756 34.7105,34.909378 34.645325,34.710102 L34.645325,34.710102" /><path fill="none" stroke="#000000" stroke-width="0.06mm" d="M33.81762,34.609035 C33.936626,34.73981 34.07688,34.85402 34.174633,35.001358 C35.203186,36.55169 34.814682,36.212696 35.745934,37.891506 C35.913044,38.192764 36.108494,38.478043 36.309273,38.757988 C37.064896,39.81157 37.819633,40.86656 38.61435,41.890972 C38.9856,42.369522 38.919617,42.324768 39.274708,42.381264 L39.274708,42.381264" /><path fill="none" stroke="#000000" stroke-width="0.06mm" d="M31.28638,33.242283 C31.488102,35.05217 31.288986,34.384663 31.608799,35.306854 L31.608799,35.306854" /><path fill="none" stroke="#000000" stroke-width="0.06mm" d="M30.482733,29.03132 C30.494232,29.31126 30.5256,29.548338 30.66817,29.783957 C30.717672,29.865763 30.784355,29.938364 30.821114,30.02663 C30.96643,30.375574 31.099895,30.730097 31.21246,31.090939 C31.794292,32.956078 30.925024,30.60147 31.522177,32.169086 L31.522177,32.169086" /><path fill="none" stroke="#000000" stroke-width="0.06mm" d="M31.170883,31.273958 C31.27015,32.30351 31.369413,33.33306 31.468678,34.36261 C31.588448,34.879013 31.76594,35.385353 31.827991,35.911816 C31.902794,36.54647 31.838352,37.19046 31.877163,37.828327 C31.887825,38.003544 31.920807,38.74384 32.170025,38.969074 C32.313705,39.09893 32.476006,39.206566 32.628994,39.32531 L32.628994,39.32531" /><path fill="none" stroke="#000000" stroke-width="0.06mm" d="M34.014923,38.17993 L33.543324,38.141426" /><path fill="none" stroke="#000000" stroke-width="0.06mm" d="M32.965855,38.34356 L33.697315,37.04899" /><path fill="none" stroke="#000000" stroke-width="0.06mm" d="M34.948498,38.54568 C34.624172,38.346756 34.508915,39.339825 34.211975,39.180626 C34.122177,39.132484 33.990158,38.90654 33.976425,38.887375 L33.976425,38.887375" /><path fill="none" stroke="#000000" stroke-width="0.06mm" d="M34.2026,39.32531 C33.58871,39.15694 33.622257,39.13057 32.816246,39.15345 C32.75655,39.155144 32.925808,39.201298 32.982143,39.221127 C33.10529,39.26447 33.23388,39.292664 33.354393,39.342857 C33.473354,39.392403 33.579403,39.469753 33.698315,39.51941 C33.85422,39.58451 34.06968,39.604027 34.231617,39.6025 C34.497215,39.6 34.50543,39.550217 34.777756,39.512585 C35.03734,39.476715 35.87474,39.706722 35.891697,39.71031 L35.891697,39.71031" /><path fill="none" stroke="#000000" stroke-width="0.06mm" d="M35.646275,39.6285 C35.727383,39.78055 35.819965,39.927006 35.8896,40.084637 C36.154114,40.68342 36.11358,41.809135 36.18557,42.361786 C36.21199,42.56463 36.27701,42.760822 36.335037,42.956978 C36.52133,43.586754 36.585625,43.846992 37.119297,44.209415 C37.240707,44.291866 37.38674,44.30951 37.528908,44.316017 C38.033745,44.339127 38.53878,44.357647 39.04372,44.378464 L39.04372,44.378464" /><path fill="none" stroke="#000000" stroke-width="0.06mm" d="M39.21215,44.364025 C39.334534,44.510315 39.472305,44.644997 39.579292,44.80289 C40.157085,45.655598 40.22003,46.415047 40.61524,47.48415 C40.733696,47.804596 41.009266,48.197605 41.189983,48.478733 L41.189983,48.478733" /><path fill="none" stroke="#000000" stroke-width="0.06mm" d="M39.4287,44.320713 C39.482716,44.491436 39.536728,44.66216 39.590744,44.832882 C39.6532,44.977337 39.72596,45.11776 39.77809,45.26625 C39.809807,45.35658 39.82199,45.45265 39.841263,45.54642 C39.91964,45.92775 40.023773,46.30507 40.071033,46.691486 C40.129814,47.172104 40.09598,47.66131 40.158646,48.14143 C40.234123,48.71973 40.38861,49.28516 40.484634,49.860405 C40.529114,50.126854 40.537148,50.39846 40.579933,50.665184 C40.60721,50.83523 40.673256,50.998077 40.694534,51.16898 C40.77193,51.790684 40.793076,52.418705 40.875557,53.039757 C41.015892,54.09645 41.039734,54.242233 41.483746,55.105667 C41.563248,55.26026 41.72856,55.460014 41.869186,55.569702 C42.47998,56.046112 43.24524,56.129364 43.988647,56.287605 C44.149925,56.32193 44.32978,56.260445 44.485214,56.254593 C44.57361,56.251266 44.661858,56.264698 44.75002,56.27191 C45.426613,56.327286 46.10109,56.41606 46.779434,56.442352 C47.34028,56.46409 47.90178,56.411263 48.463028,56.41581 C48.60762,56.416985 48.75007,56.455677 48.894615,56.459503 C49.21199,56.467896 49.702705,56.31224 49.933098,56.23649 C50.100143,56.18156 50.327538,56.097656 50.42696,55.92805 C50.687553,55.48349 50.225765,54.68524 50.03489,54.311512 L50.03489,54.311512" /><path fill="none" stroke="#000000" stroke-width="0.06mm" d="M40.280468,41.442825 C40.175636,41.4831 40.07081,41.523384 39.96598,41.56366 C39.950443,41.54866 39.92365,41.53983 39.919373,41.51866 C39.911674,41.480606 39.942745,41.440758 39.93351,41.403046 C39.90512,41.28714 39.85041,41.17931 39.808865,41.067444 L39.808865,41.067444" /><path fill="none" stroke="#000000" stroke-width="0.06mm" d="M50.46318,54.066074 C50.02214,53.33763 49.567993,52.616966 49.140076,51.88074 C49.059048,51.74134 48.98659,51.23056 48.972054,51.178223 C48.828842,50.662476 48.629242,49.85261 48.2528,49.39395 C47.91696,48.984764 47.544403,48.603424 47.1446,48.25647 C44.205364,45.70575 47.23592,48.51172 45.5875,47.206055 C45.124783,46.83955 44.672028,46.459007 44.24285,46.05374 C40.222935,41.922844 45.108482,46.76696 41.568863,43.711315 C41.200993,43.39374 40.91305,42.99345 40.56879,42.650425 C40.37319,42.45553 39.983772,42.319107 39.779568,42.21022 C39.646072,42.139034 39.51999,42.05475 39.3902,41.977013 L39.3902,41.977013" /><path fill="none" stroke="#000000" stroke-width="0.06mm" d="M50.684544,54.359642 C50.663933,54.29945 50.585426,54.12751 50.622707,54.17906 C51.238007,55.029854 50.25731,53.849144 50.844917,54.748947 C50.860245,54.772423 50.90034,54.72387 50.91218,54.698456 C50.955833,54.604782 50.986904,54.50454 51.00612,54.403 C51.034767,54.251633 51.05043,54.097427 51.05507,53.943443 C51.05598,53.913094 51.048145,53.87467 51.02253,53.85836 C50.92681,53.79741 50.740257,54.171074 50.721645,54.227768 C50.6403,54.475517 50.745403,54.43022 50.95884,54.7302 L50.95884,54.7302" /><path fill="none" stroke="#000000" stroke-width="0.06mm" d="M49.601788,55.890022 L49.52544,55.823296" /><path fill="none" stroke="#000000" stroke-width="0.06mm" d="M49.698032,56.70334 C49.81654,56.446198 50.100388,56.058014 49.938446,55.741074 C49.916965,55.699028 49.885643,55.659714 49.840076,55.641903 C49.767784,55.61365 49.67514,55.64897 49.616623,55.691196 C49.505375,55.771477 49.3964,55.855164 49.291733,55.94385 C49.25426,55.9756 49.210697,56.006527 49.19127,56.051636 C49.140854,56.16867 49.121674,56.29681 49.086876,56.4194 L49.086876,56.4194" /><path fill="none" stroke="#000000" stroke-width="0.06mm" d="M47.57583,56.385715 C47.576138,56.21465 47.553265,55.92089 47.80133,55.91948 C47.905884,55.918884 48.020252,55.933426 48.117363,55.97513 C48.179688,56.001884 48.251457,56.02234 48.295013,56.074333 C48.41965,56.223125 48.50531,56.400627 48.610466,56.563778 L48.610466,56.563778" /><path fill="none" stroke="#000000" stroke-width="0.06mm" d="M46.339085,56.1114 C46.511528,55.957504 46.754093,55.68261 47.02787,55.792236 C47.047768,55.800205 47.065765,55.814358 47.079006,55.831215 C47.18634,55.967873 47.285103,56.111046 47.388153,56.250965 L47.388153,56.250965" /><path fill="none" stroke="#000000" stroke-width="0.06mm" d="M45.79049,55.947773 C45.691345,55.83688 45.609615,55.701675 45.47515,55.62989 C45.171265,55.46766 44.645264,55.644024 44.39316,55.833817 C44.32444,55.88556 44.16071,56.024452 44.171116,56.133404 C44.180855,56.235405 44.214462,56.333694 44.236134,56.433838 L44.236134,56.433838" /><path fill="none" stroke="#000000" stroke-width="0.06mm" d="M43.46136,55.70715 C43.304153,55.759384 42.585464,56.179855 42.93799,56.451202 C43.026367,56.519222 43.17345,56.528248 43.26406,56.54934 L43.26406,56.54934" /><path fill="none" stroke="#000000" stroke-width="0.06mm" d="M42.744335,55.480957 C43.02131,55.403706 43.310356,55.353382 43.57718,55.49542 C43.72963,55.57657 43.735344,55.65689 43.847862,55.775192 C43.978073,55.912094 44.119545,56.03783 44.255383,56.16915 L44.255383,56.16915" /><path fill="none" stroke="#000000" stroke-width="0.06mm" d="M39.69818,43.921272 C39.423813,43.855007 39.080338,43.730274 38.797905,43.858753 C38.501175,43.99374 38.31727,44.286396 38.119766,44.527653 L38.119766,44.527653" /><path fill="none" stroke="#000000" stroke-width="0.06mm" d="M37.874344,43.959774 C37.481903,44.086845 37.69587,43.985264 37.268,44.330338 L37.268,44.330338" /><path fill="none" stroke="#000000" stroke-width="0.06mm" d="M35.785828,40.037567 C35.731133,39.933712 35.68358,39.82577 35.62174,39.726006 C35.560776,39.62766 35.44702,39.541206 35.355503,39.478657 C35.129482,39.324177 34.857426,39.04207 34.54422,39.10753 C34.413643,39.134815 34.29004,39.212284 34.22954,39.334908 C34.206615,39.381386 34.15673,39.431107 34.173794,39.48004 C34.1856,39.51391 34.23837,39.441776 34.25589,39.41048 C34.335003,39.269173 34.395008,39.11792 34.459656,38.96944 C34.498596,38.88 34.48718,38.78009 34.40143,38.723846 C34.28807,38.649498 34.04113,38.633633 33.967247,38.62759 C33.588375,38.596603 33.17946,38.679146 32.871902,38.90846 C32.69596,39.03964 32.623524,39.25408 32.816353,39.41582 C32.895977,39.482605 32.967247,39.406906 33.007294,39.339756 C33.052216,39.264435 33.077656,39.186836 33.085365,39.099392 C33.096554,38.97245 33.079742,38.67182 32.889603,38.678604 C32.787643,38.68224 32.570923,38.813244 32.547188,38.824806 L32.547188,38.824806" /></g>
<g>
<line fill="none" stroke="#111111" stroke-width="0.04mm" x1="20.00" y1="37.00" x2="24.50" y2="32.74" />
<line fill="none" stroke="#5674b9" stroke-width="0.04mm" stroke-dasharray="0.4,0.2" x1="24.50" y1="32.74" x2="23.97" y2="34.82" />
<line fill="none" stroke="#5674b9" stroke-width="0.04mm" stroke-dasharray="0.4,0.2" x1="24.50" y1="32.74" x2="24.72" y2="30.48" />
<line fill="none" stroke="#5674b9" stroke-width="0.04mm" stroke-dasharray="0.4,0.2" x1="24.50" y1="32.74" x2="24.25" y2="32.68" />
<line fill="none" stroke="#5674b9" stroke-width="0.04mm" stroke-dasharray="0.4,0.2" x1="24.50" y1="32.74" x2="25.01" y2="31.85" />
<line fill="none" stroke="#5674b9" stroke-width="0.04mm" stroke-dasharray="0.4,0.2" x1="24.50" y1="32.74" x2="25.71" y2="31.37" />
<line fill="none" stroke="#5674b9" stroke-width="0.04mm" stroke-dasharray="0.4,0.2" x1="24.50" y1="32.74" x2="26.05" y2="31.65" />
<line fill="none" stroke="#5674b9" stroke-width="0.04mm" stroke-dasharray="0.4,0.2" x1="24.50" y1="32.74" x2="25.33" y2="32.11" />
<line fill="none" stroke="#00aeef" stroke-width="0.04mm" stroke-dasharray="0.4,0.2" x1="24.50" y1="32.74" x2="24.86" y2="32.45" />
<line fill="none" stroke="#00aeef" stroke-width="0.04mm" stroke-dasharray="0.4,0.2" x1="24.50" y1="32.74" x2="22.83" y2="32.91" />
<line fill="none" stroke="#00aeef" stroke-width="0.04mm" stroke-dasharray="0.4,0.2" x1="24.50" y1="32.74" x2="23.57" y2="32.77" />
<line fill="none" stroke="#00aeef" stroke-width="0.04mm" stroke-dasharray="0.4,0.2" x1="24.50" y1="32.74" x2="22.80" y2="32.77" />
<line fill="none" stroke="#111111" stroke-width="0.04mm" x1="24.50" y1="32.74" x2="29.86" y2="27.17" />
<line fill="none" stroke="#00aeef" stroke-width="0.04mm" stroke-dasharray="0.4,0.2" x1="29.86" y1="27.17" x2="27.45" y2="29.49" />
<line fill="none" stroke="#5674b9" stroke-width="0.04mm" stroke-dasharray="0.4,0.2" x1="29.86" y1="27.17" x2="26.99" y2="30.06" />
<line fill="none" stroke="#00aeef" stroke-width="0.04mm" stroke-dasharray="0.4,0.2" x1="29.86" y1="27.17" x2="28.16" y2="29.51" />
<line fill="none" stroke="#00aeef" stroke-width="0.04mm" stroke-dasharray="0.4,0.2" x1="29.86" y1="27.17" x2="29.16" y2="28.92" />
<line fill="none" stroke="#00aeef" stroke-width="0.04mm" stroke-dasharray="0.4,0.2" x1="29.86" y1="27.17" x2="31.02" y2="27.96" />
<line fill="none" stroke="#5674b9" stroke-width="0.04mm" stroke-dasharray="0.4,0.2" x1="29.86" y1="27.17" x2="31.07" y2="27.28" />
<line fill="none" stroke="#5674b9" stroke-width="0.04mm" stroke-dasharray="0.4,0.2" x1="29.86" y1="27.17" x2="30.47" y2="28.00" />
<line fill="none" stroke="#5674b9" stroke-width="0.04mm" stroke-dasharray="0.4,0.2" opacity="0.53" x1="29.86" y1="27.17" x2="29.89" y2="28.52" />
<line fill="none" stroke="#5674b9" stroke-width="0.04mm" stroke-dasharray="0.4,0.2" x1="29.86" y1="27.17" x2="29.94" y2="28.55" />
<line fill="none" stroke="#5674b9" stroke-width="0.04mm" stroke-dasharray="0.4,0.2" x1="29.86" y1="27.17" x2="28.29" y2="28.97" />
<line fill="none" stroke="#00aeef" stroke-width="0.04mm" stroke-dasharray="0.4,0.2" x1="29.86" y1="27.17" x2="29.54" y2="27.89" />
<line fill="none" stroke="#00aeef" stroke-width="0.04mm" stroke-dasharray="0.4,0.2" x1="29.86" y1="27.17" x2="29.52" y2="27.89" />
<line fill="none" stroke="#00aeef" stroke-width="0.04mm" stroke-dasharray="0.4,0.2" x1="29.86" y1="27.17" x2="29.51" y2="27.91" />
<line fill="none" stroke="#00aeef" stroke-width="0.04mm" stroke-dasharray="0.4,0.2" x1="29.86" y1="27.17" x2="29.53" y2="27.89" />
<line fill="none" stroke="#00aeef" stroke-width="0.04mm" stroke-dasharray="0.4,0.2" x1="29.86" y1="27.17" x2="29.52" y2="27.91" />
<line fill="none" stroke="#111111" stroke-width="0.04mm" x1="29.86" y1="27.17" x2="33.44" y2="26.41" />
<line fill="none" stroke="#5674b9" stroke-width="0.04mm" stroke-dasharray="0.4,0.2" x1="33.44" y1="26.41" x2="38.34" y2="27.68" />
<line fill="none" stroke="#5674b9" stroke-width="0.04mm" stroke-dasharray="0.4,0.2" x1="33.44" y1="26.41" x2="39.54" y2="28.65" />
<line fill="none" stroke="#5674b9" stroke-width="0.04mm" stroke-dasharray="0.4,0.2" x1="33.44" y1="26.41" x2="38.07" y2="29.25" />
<line fill="none" stroke="#5674b9" stroke-width="0.04mm" stroke-dasharray="0.4,0.2" x1="33.44" y1="26.41" x2="36.76" y2="29.91" />
<line fill="none" stroke="#5674b9" stroke-width="0.04mm" stroke-dasharray="0.4,0.2" x1="33.44" y1="26.41" x2="34.88" y2="30.80" />
<line fill="none" stroke="#5674b9" stroke-width="0.04mm" stroke-dasharray="0.4,0.2" x1="33.44" y1="26.41" x2="32.19" y2="30.30" />
<line fill="none" stroke="#5674b9" stroke-width="0.04mm" stroke-dasharray="0.4,0.2" x1="33.44" y1="26.41" x2="33.24" y2="30.10" />
<line fill="none" stroke="#5674b9" stroke-width="0.04mm" stroke-dasharray="0.4,0.2" x1="33.44" y1="26.41" x2="34.55" y2="30.63" />
<line fill="none" stroke="#5674b9" stroke-width="0.04mm" stroke-dasharray="0.4,0.2" x1="33.44" y1="26.41" x2="35.52" y2="31.80" />
<line fill="none" stroke="#5674b9" stroke-width="0.04mm" stroke-dasharray="0.4,0.2" x1="33.44" y1="26.41" x2="34.73" y2="31.00" />
<line fill="none" stroke="#5674b9" stroke-width="0.04mm" stroke-dasharray="0.4,0.2" x1="33.44" y1="26.41" x2="33.71" y2="30.58" />
<line fill="none" stroke="#5674b9" stroke-width="0.04mm" stroke-dasharray="0.4,0.2" x1="33.44" y1="26.41" x2="33.22" y2="30.49" />
<line fill="none" stroke="#5674b9" stroke-width="0.04mm" stroke-dasharray="0.4,0.2" x1="33.44" y1="26.41" x2="32.60" y2="30.20" />
<line fill="none" stroke="#5674b9" stroke-width="0.04mm" stroke-dasharray="0.4,0.2" x1="33.44" y1="26.41" x2="35.04" y2="19.77" />
<line fill="none" stroke="#5674b9" stroke-width="0.04mm" stroke-dasharray="0.4,0.2" x1="33.44" y1="26.41" x2="34.10" y2="30.50" />
<line fill="none" stroke="#5674b9" stroke-width="0.04mm" stroke-dasharray="0.4,0.2" x1="33.44" y1="26.41" x2="27.50" y2="38.50" />
<line fill="none" stroke="#111111" stroke-width="0.04mm" x1="33.44" y1="26.41" x2="42.63" y2="35.22" />
<line fill="none" stroke="#111111" stroke-width="0.04mm" x1="29.86" y1="27.17" x2="35.97" y2="39.37" />
<line fill="none" stroke="#00aeef" stroke-width="0.04mm" stroke-dasharray="0.4,0.2" x1="35.97" y1="39.37" x2="45.39" y2="54.06" />
<line fill="none" stroke="#00aeef" stroke-width="0.04mm" stroke-dasharray="0.4,0.2" x1="35.97" y1="39.37" x2="46.80" y2="56.31" />
<line fill="none" stroke="#00aeef" stroke-width="0.04mm" stroke-dasharray="0.4,0.2" x1="35.97" y1="39.37" x2="46.77" y2="56.34" />
<line fill="none" stroke="#00aeef" stroke-width="0.04mm" stroke-dasharray="0.4,0.2" x1="35.97" y1="39.37" x2="38.95" y2="44.05" />
<line fill="none" stroke="#00aeef" stroke-width="0.04mm" stroke-dasharray="0.4,0.2" x1="35.97" y1="39.37" x2="46.78" y2="56.29" />
<line fill="none" stroke="#00aeef" stroke-width="0.04mm" stroke-dasharray="0.4,0.2" x1="35.97" y1="39.37" x2="46.68" y2="56.18" />
<line fill="none" stroke="#00aeef" stroke-width="0.04mm" stroke-dasharray="0.4,0.2" x1="35.97" y1="39.37" x2="35.26" y2="39.38" />
<line fill="none" stroke="#5674b9" stroke-width="0.04mm" stroke-dasharray="0.4,0.2" x1="35.97" y1="39.37" x2="31.74" y2="39.00" />
<line fill="none" stroke="#5674b9" stroke-width="0.04mm" stroke-dasharray="0.4,0.2" x1="35.97" y1="39.37" x2="34.96" y2="38.52" />
<line fill="none" stroke="#5674b9" stroke-width="0.04mm" stroke-dasharray="0.4,0.2" x1="35.97" y1="39.37" x2="36.18" y2="38.97" />
<line fill="none" stroke="#111111" stroke-width="0.04mm" x1="35.97" y1="39.37" x2="50.13" y2="56.21" />
</g>
<g>
<circle cx="20.00" cy="37.00" r="0.1" fill="#111111" />
<circle cx="24.50" cy="32.74" r="0.1" fill="#111111" />
<circle cx="29.86" cy="27.17" r="0.1" fill="#111111" />
<circle cx="33.44" cy="26.41" r="0.1" fill="#111111" />
<circle cx="42.63" cy="35.22" r="0.1" fill="#111111" />
<circle cx="35.97" cy="39.37" r="0.1" fill="#111111" />
<circle cx="50.13" cy="56.21" r="0.1" fill="#111111" />
</g>
<g>
<text x="20.20" y="37.00" font-size=".2mm" fill="#000000">13</text>
<text x="24.70" y="32.74" font-size=".2mm" fill="#000000">13.101</text>
<text x="30.06" y="27.17" font-size=".2mm" fill="#000000">13.102</text>
<text x="33.64" y="26.41" font-size=".2mm" fill="#000000">13.102.1</text>
<text x="42.83" y="35.22" font-size=".2mm" fill="#000000">13.666</text>
<text x="36.17" y="39.37" font-size=".2mm" fill="#000000">13.103</text>
<text x="50.33" y="56.21" font-size=".2mm" fill="#000000">13.104</text>
</g>
<g>
</g>
</g>
</svg>