<?xml version="1.0" encoding="utf-8"?>
<!DOCTYPE svg PUBLIC "-//W3C//DTD SVG 1.1//EN" "http://www.w3.org/Graphics/SVG/1.1/DTD/svg11.dtd">
<svg version="1.1" id="Layer_1" xmlns="http://www.w3.org/2000/svg" xmlns:xlink="http://www.w3.org/1999/xlink" x="0px" y="0px" width="66mm" height="53mm" viewBox="0 0 66 53" enable-background="new 0 0 66 53" xml:space="preserve">
<symbol id="airflow" viewBox="-12 -12 24 24">
<path d="M-4.38,10.73l4.2-3.84V3.55L-4.07,7.13l-.31-.29L-.18,3V-6.89a3.37,3.37,0,0,0-1.68.53l1.68-4.15L0-11l.21.51h0v0l1.65,4.1A3.26,3.26,0,0,0,.24-6.89v14l-.08,0L-4.07,11Z"/>
<rect fill="none" x="-12" y="-12" width="24" height="24"/>
</symbol>
<symbol id="anastomosis" viewBox="-12 -12 24 24">
<path d="M2.23-4.78l.37.24L5.22-2.78l-.47.57L2.49-3.7l-4.61,8-.24.44-.37-.34L-5.22,2.3l.55-.52,2.1,1.82L2-4.39Z"/>
<rect fill="none" x="-12" y="-12" width="24" height="24"/>
</symbol>
<symbol id="bivouac" viewBox="-12 -12 24 24">
<path d="M.25-7.66l.24.58L.54-7l3.88.48-3.31.91L6,6H8.35v.48l-16.7.07V6.05h2.64L0-7.08Zm0,1.32L-5.13,6H-4l2.07-5L.2-4l2.09,5L4.37,6H5.44Z"/>
<rect fill="none" x="-12" y="-12" width="24" height="24"/>
</symbol>
<symbol id="bones" viewBox="-12 -12 24 24">
<path d="M2.44,4.27l-.16,0H2.13a.22.22,0,0,1-.11,0l-.1-.06a.39.39,0,0,1-.09-.11l-.08-.13a1.51,1.51,0,0,1-.06-.15l-.07-.17s0-.11-.08-.19-.06-.16-.08-.21a4.75,4.75,0,0,0-.38-.71c-.18-.29-.43-.64-.74-1A11.15,11.15,0,0,0-.7.32,6.73,6.73,0,0,0-2-.64a4.12,4.12,0,0,0-1.44-.52A1.64,1.64,0,0,1-5-2.19.72.72,0,0,1-5-2.44a1,1,0,0,1,0-.29A.52.52,0,0,1-4.87-3a.54.54,0,0,1,.35-.15L-4-3.22l.46,0a.54.54,0,0,0,.27-.06A.52.52,0,0,0-3-3.56a.74.74,0,0,0,.13-.31.54.54,0,0,1,.15-.26.54.54,0,0,1,.3-.15.83.83,0,0,1,.47,0,1.11,1.11,0,0,1,.35.4A7.46,7.46,0,0,1-1-2.76q.18.42.33.72a3.22,3.22,0,0,0,.39.57L.1-1a4.77,4.77,0,0,0,.58.43c.28.18.51.33.69.43l1,.56a1.84,1.84,0,0,0,.39.23A5.29,5.29,0,0,1,3.22.9l.43.26a3.7,3.7,0,0,1,.46.3l.36.29a2.28,2.28,0,0,1,.31.32A1,1,0,0,1,5,2.4c.2.48,0,.78-.47.91h0a8.48,8.48,0,0,0-1.12.09,1,1,0,0,0-.42.44A1,1,0,0,1,2.44,4.27Z"/>
<rect fill="none" x="-12" y="-12" width="24" height="24"/>
</symbol>
<symbol id="calcite" viewBox="-12 -12 24 24">
<path d="M2.36-2.22l.05.46.34,3.91L2,2.22,1.65-1.26-2.52-.06l-.23-.7L1.89-2.08Z"/>
<rect fill="none" x="-12" y="-12" width="24" height="24"/>
</symbol>
<symbol id="cauliflower" viewBox="-12 -12 24 24">
<path d="M5.58,3.22v-3A2.12,2.12,0,0,0,6.92-.43a1.78,1.78,0,0,0,.55-1.32,1.92,1.92,0,0,0-.65-1.42,2.19,2.19,0,0,0-1.53-.59,2.21,2.21,0,0,0-1.54.59,1.78,1.78,0,0,0-.64,1.42A1.86,1.86,0,0,0,3.65-.43,2.12,2.12,0,0,0,5,.23v3H.26v-3A2.17,2.17,0,0,0,1.61-.43a1.81,1.81,0,0,0,.54-1.32,1.91,1.91,0,0,0-.64-1.42A2.21,2.21,0,0,0,0-3.76a2.21,2.21,0,0,0-1.54.59,1.82,1.82,0,0,0-.64,1.42A1.83,1.83,0,0,0-1.66-.43,2.12,2.12,0,0,0-.32.23v3H-5v-3A2.12,2.12,0,0,0-3.71-.43a1.78,1.78,0,0,0,.55-1.32,1.92,1.92,0,0,0-.65-1.42,2.19,2.19,0,0,0-1.53-.59,2.21,2.21,0,0,0-1.54.59,1.83,1.83,0,0,0-.65,1.42A1.87,1.87,0,0,0-7-.43,2.12,2.12,0,0,0-5.64.23v3H-8v.54H8V3.22Z"/>
<rect fill="none" x="-12" y="-12" width="24" height="24"/>
</symbol>
<symbol id="clay" viewBox="-12 -12 24 24">
<path d="M1.85-1.33a3,3,0,0,1,1.67.48,3.23,3.23,0,0,1,1,1l.29.51-1,.43a3.81,3.81,0,0,0-.23-.4A3.74,3.74,0,0,0,2.93,0,1.77,1.77,0,0,0,1.85-.32a2.57,2.57,0,0,0-1.1.15A.86.86,0,0,0,.51.14,2.23,2.23,0,0,1,0,.88a2.55,2.55,0,0,1-1.45.43,3.16,3.16,0,0,1-2.75-1,4.28,4.28,0,0,1-.37-.57,3.91,3.91,0,0,1-.21-.47l0-.16,1-.22a1.87,1.87,0,0,0,.45.79A2.12,2.12,0,0,0-1.51.33,1.82,1.82,0,0,0-.69.14l.21-.36A1.53,1.53,0,0,1,.17-1,3.76,3.76,0,0,1,1.85-1.33Z"/>
<rect fill="none" x="-12" y="-12" width="24" height="24"/>
</symbol>
<symbol id="crystals" viewBox="-12 -12 24 24">
<path d="M-2.94-5.38,0-.72,2.94-5.38,3.62-5,.68-.36H6.56V.36H.68L3.62,5l-.68.36L0,.72-2.94,5.38-3.62,5-.68.36H-6.56V-.36H-.68L-3.62-5Z"/>
<rect fill="none" x="-12" y="-12" width="24" height="24"/>
</symbol>
<symbol id="curtain" viewBox="-12 -12 24 24">
<path d="M3.57-6.69l.52.53L.39-3V-.33L.1-.26a3.79,3.79,0,0,0-1,.41c-.58.3-.87.65-.87,1v.07A1.61,1.61,0,0,0-.84,2.48a3.69,3.69,0,0,0,.45.24L0,2.86l.13.05L.39,3V6.12H-.39V3.51a7.65,7.65,0,0,1-.9-.46A2.19,2.19,0,0,1-2.54,1.28V1.23A2,2,0,0,1-1.31-.48,5.32,5.32,0,0,1-.39-.86V-3l-3.7-3.14.52-.53L0-3.67Z"/>
<rect fill="none" x="-12" y="-12" width="24" height="24"/>
</symbol>
<symbol id="disk" viewBox="-12 -12 24 24">
<path d="M-.09-4.19a2.43,2.43,0,0,1,1.7.64A2,2,0,0,1,2.35-2,2.09,2.09,0,0,1,1.81-.55,2.44,2.44,0,0,1,.35.23l2.18,3.6-.68.33L0,1.14-1.48,4.19l-.71-.29L-.41.25A2.53,2.53,0,0,1-1.9-.47a2,2,0,0,1-.63-1.41,2,2,0,0,1,.67-1.61,2.46,2.46,0,0,1,1.72-.7ZM1.05-3.06.56-3.49l-.69,0A1.72,1.72,0,0,0-1.29-3a1.51,1.51,0,0,0-.45,1.08,1.36,1.36,0,0,0,.51,1A1.68,1.68,0,0,0-.07-.44v0l0,0A1.7,1.7,0,0,0,1.11-.92,1.36,1.36,0,0,0,1.56-2,1.47,1.47,0,0,0,1.05-3.06Z"/>
<rect fill="none" x="-12" y="-12" width="24" height="24"/>
</symbol>
<symbol id="entrance" viewBox="-12 -12 24 24">
<path d="M4.46,9H-4.46L0-9Z"/>
<rect fill="none" x="-12" y="-12" width="24" height="24"/>
</symbol>
<symbol id="flowstone" viewBox="-12 -12 24 24">
<rect x="-6" y="-0.21" width="12" height="0.42"/>
<rect fill="none" x="-12" y="-12" width="24" height="24"/>
</symbol>
<symbol id="flutes" viewBox="-12 -12 24 24">
<path d="M-7-1H7v.72H3.87A4.7,4.7,0,0,1,2.16,1.5,4.2,4.2,0,0,1,0,2.13,3.94,3.94,0,0,1-2.19,1.5,4.18,4.18,0,0,1-3.76-.27H-7Zm4.17.72A3.15,3.15,0,0,0-1.65,1,3.21,3.21,0,0,0,0,1.41,3.49,3.49,0,0,0,1.6,1,3.68,3.68,0,0,0,3-.27Z"/>
<rect fill="none" x="-12" y="-12" width="24" height="24"/>
</symbol>
<symbol id="gradient" viewBox="-12 -12 24 24">
<path d="M2.58-3.83,0-10-2.58-3.83A4.74,4.74,0,0,1-.17-4.5V10H.25V-4.5A6.65,6.65,0,0,1,2.58-3.83Z"/>
<rect fill="none" x="-12" y="-12" width="24" height="24"/>
</symbol>
<symbol id="guano" viewBox="-12 -12 24 24">
<path d="M-3.24-3a2.15,2.15,0,0,1,1.57.55A3.93,3.93,0,0,1-.59.24a4.32,4.32,0,0,1,2.75-2.3,2.68,2.68,0,0,1,2.23.36A2.36,2.36,0,0,1,5.5.19l-.79,0a1.72,1.72,0,0,0-.79-1.37,1.94,1.94,0,0,0-1.55-.24A3.53,3.53,0,0,0,.48,0,6.63,6.63,0,0,0-.69,3l-.79-.09a10.72,10.72,0,0,0,0-3.16A3.21,3.21,0,0,0-2.22-2,1.44,1.44,0,0,0-3.37-2.3,3.45,3.45,0,0,0-5-1.54l-.5-.55a4.29,4.29,0,0,1,2-.91A.9.9,0,0,1-3.24-3Z"/>
<rect fill="none" x="-12" y="-12" width="24" height="24"/>
</symbol>
<symbol id="helictites" viewBox="-12 -12 24 24">
<path d="M-4.59-7.92h.79v7.7l3.41,0V-7.92H.39V-.17L4.2-.12h.39v8H3.8V.6L.39.55V7.92H-.39V.55L-4.2.5l-.39,0v-8.4Z"/>
<rect fill="none" x="-12" y="-12" width="24" height="24"/>
</symbol>
<symbol id="human" viewBox="-12 -12 24 24">
<path d="M-3.59-3.29A5.13,5.13,0,0,1,0-4.66,5.13,5.13,0,0,1,3.59-3.29,4.3,4.3,0,0,1,5.09,0a4.3,4.3,0,0,1-1.5,3.29A5.13,5.13,0,0,1,0,4.66,5.13,5.13,0,0,1-3.59,3.29,4.3,4.3,0,0,1-5.09,0,4.3,4.3,0,0,1-3.59-3.29Zm.28.77A3.68,3.68,0,0,0-4.3,0a3.62,3.62,0,0,0,1,2.57L-.5.05ZM0-3.94A4.42,4.42,0,0,0-2.75-3L.16-.36H4.28A3.62,3.62,0,0,0,2.91-2.9,4.38,4.38,0,0,0,0-3.94ZM.16.46-2.7,3.07A4.42,4.42,0,0,0,0,3.94a4.37,4.37,0,0,0,2.87-1A3.78,3.78,0,0,0,4.28.46Z"/>
<rect fill="none" x="-12" y="-12" width="24" height="24"/>
</symbol>
<symbol id="karren" viewBox="-12 -12 24 24">
<path d="M1-5.84h0a1.37,1.37,0,0,1,1.06.68A3.33,3.33,0,0,1,2.5-3.79,25.79,25.79,0,0,1,2.36,0a18.61,18.61,0,0,0-.08,3.72,2.68,2.68,0,0,0,.41,1.2,1.13,1.13,0,0,0,.79.5A.92.92,0,0,0,4,4.94a4.43,4.43,0,0,0,.47-1.22c.16-.64.36-1.86.59-3.66a26.71,26.71,0,0,1,.64-3.69,4.62,4.62,0,0,1,.57-1.29,1.34,1.34,0,0,1,1-.59h0A1.28,1.28,0,0,1,8.37-5a2.17,2.17,0,0,1,.39,1.15A19.91,19.91,0,0,1,8.54-.53a21.51,21.51,0,0,0-.2,3.64A2.64,2.64,0,0,0,9.45,5.36,1.91,1.91,0,0,0,10.88,5a3.84,3.84,0,0,0,.7-1l.42.2-.1.18-.12.21-.11.18L11.52,5a.94.94,0,0,1-.14.16c-.06.07-.13.12-.19.18a2.5,2.5,0,0,1-1.85.41H9.29l0,0A3.06,3.06,0,0,1,7.87,3.13a22.11,22.11,0,0,1,.2-3.7,18.17,18.17,0,0,0,.22-3.28A1.85,1.85,0,0,0,8-4.79a.77.77,0,0,0-.67-.3.93.93,0,0,0-.64.42,4.51,4.51,0,0,0-.51,1.15A26.26,26.26,0,0,0,5.54.1c-.24,1.83-.45,3.07-.61,3.72a5.38,5.38,0,0,1-.51,1.34,1.33,1.33,0,0,1-.89.68H3.47A1.58,1.58,0,0,1,2.3,5.16a3.29,3.29,0,0,1-.49-1.4A20.27,20.27,0,0,1,1.89,0,23.45,23.45,0,0,0,2-3.75a2.94,2.94,0,0,0-.32-1.19A.93.93,0,0,0,1-5.42,1.1,1.1,0,0,0,.19-5,3.69,3.69,0,0,0-.43-3.76,20.78,20.78,0,0,0-1.07.07c-.2,2-.37,3.32-.49,3.86A4.48,4.48,0,0,1-2,5.26,1.06,1.06,0,0,1-3,5.81h0a1.9,1.9,0,0,1-1.29-.67,2.7,2.7,0,0,1-.58-1.31,14.92,14.92,0,0,1,0-3.6q0-.12.06-.54c0-.28,0-.47,0-.57s0-.28,0-.52,0-.42,0-.55,0-.28,0-.47,0-.36,0-.51,0-.29,0-.43A3.09,3.09,0,0,0-5-4.62a1.19,1.19,0,0,0-.67-.6,1.5,1.5,0,0,0-1.2.9A7,7,0,0,0-7.41-2.1c0,.39-.1,1-.14,1.76s-.11,1.47-.18,2.08A9.61,9.61,0,0,1-8,3.32h0l0,0A2.81,2.81,0,0,1-9.2,4.62a1.82,1.82,0,0,1-1.35.15A1.94,1.94,0,0,1-11.61,4,2.39,2.39,0,0,1-12,2.56l.47,0a1.92,1.92,0,0,0,.31,1.16,1.47,1.47,0,0,0,.81.62,1.3,1.3,0,0,0,1-.11A2.32,2.32,0,0,0-8.5,3.18a7.53,7.53,0,0,0,.29-1.5Q-8.1.8-8-.36c0-.78.1-1.37.16-1.78A7.23,7.23,0,0,1-7.28-4.5,1.93,1.93,0,0,1-5.65-5.66h.05l0,0a1.59,1.59,0,0,1,1,.84,3.47,3.47,0,0,1,.34,1.41,4.91,4.91,0,0,1,0,.57v.54c0,.15,0,.37,0,.66s0,.47,0,.58,0,.33-.06.68,0,.56-.06.63a14.78,14.78,0,0,0,0,3.49,2.58,2.58,0,0,0,.5,1.13,1.57,1.57,0,0,0,1,.5A.61.61,0,0,0-2.44,5,3.89,3.89,0,0,0-2,3.85C-1.9,3.31-1.74,2-1.53,0A20.65,20.65,0,0,1-.86-3.89,3.89,3.89,0,0,1-.18-5.26,1.58,1.58,0,0,1,1-5.84Z"/>
<rect fill="none" x="-12" y="-12" width="24" height="24"/>
</symbol>
<symbol id="moonmilk" viewBox="-12 -12 24 24">
<path d="M-4.78-3.06a3.39,3.39,0,0,1,1.5.34,2.48,2.48,0,0,1,1.1,1,3.74,3.74,0,0,1,1.62-.8,3.52,3.52,0,0,1,1.71,0,2.9,2.9,0,0,1,1.39.77A2.49,2.49,0,0,1,3.25-.37,4,4,0,0,1,5-.76a3.58,3.58,0,0,1,1.6.36A2.84,2.84,0,0,1,7.88.92a2.32,2.32,0,0,1,0,1.88.34.34,0,0,1-.37.26A.36.36,0,0,1,7.25,3a.32.32,0,0,1-.12-.25.21.21,0,0,1,0-.12,2,2,0,0,0,0-1.43,2,2,0,0,0-1-.9A2.81,2.81,0,0,0,4.68,0,2.78,2.78,0,0,0,3.12.56L2.46.25A1.7,1.7,0,0,0,2.15-1.1,2.15,2.15,0,0,0,1-1.81a2.85,2.85,0,0,0-1.58.06A3,3,0,0,0-2-.83l-.71-.12A1.74,1.74,0,0,0-3.55-2a2.36,2.36,0,0,0-1.39-.27,3.08,3.08,0,0,0-1.45.53A2.33,2.33,0,0,0-7.32-.56a.35.35,0,0,1-.37.24A.39.39,0,0,1-8-.42a.33.33,0,0,1-.1-.26v-.1A3,3,0,0,1-6.89-2.35,4,4,0,0,1-5-3Z"/>
<rect fill="none" x="-12" y="-12" width="24" height="24"/>
</symbol>
<symbol id="narrow" viewBox="-12 -12 24 24">
<path d="M-1.5,5V-5h0.64V5H-1.5z"/>
<path d="M0.86,5V-5H1.5V5H0.86z"/>
<rect fill="none" x="-12" y="-12" width="24" height="24"/>
</symbol>
<symbol id="paleoflow" viewBox="-12 -12 24 24">
<path d="M.38-12V.17A1.9,1.9,0,0,0,1,0,1.57,1.57,0,0,0,1.7-.72a1.86,1.86,0,0,0,.23-1c0-.09,0-.14.08-.16a.92.92,0,0,1,.24,0,.52.52,0,0,0,.25,0h.08A2.48,2.48,0,0,1,2,0,2.5,2.5,0,0,1,.38.77V7.21H2.09L0,12-1.8,7.23c.07,0,.59,0,1.53,0V.77A3,3,0,0,1-1.35.43a2.16,2.16,0,0,1-1-1,2.38,2.38,0,0,1-.24-1.33l.67,0a2,2,0,0,0,.15,1,1.73,1.73,0,0,0,.59.67A2.14,2.14,0,0,0-.27.16V-12Z"/>
<rect fill="none" x="-12" y="-12" width="24" height="24"/>
</symbol>
<symbol id="rain" viewBox="-12 -12 24 24">
<path d="M-4.14-6.34h0.71v4.69h-0.71V-6.34z"/>
<path d="M-0.35-6.34h0.71v4.69h-0.71V-6.34z"/>
<path d="M3.43-6.34h0.71v4.69H3.43V-6.34z"/>
<path d="M-4.14,1.65h0.71v4.69h-0.71V1.65z"/>
<path d="M-0.35,1.65h0.71v4.69h-0.71V1.65z"/>
<path d="M3.43,1.65h0.71v4.69H3.43V1.65z"/>
<rect fill="none" x="-12" y="-12" width="24" height="24"/>
</symbol>
<symbol id="rats" viewBox="-12 -12 24 24">
<path d="M8.78-2.32,7-2.27c-.51-.17-.65-.56-1.46-.45l-.25.45C3.59-2.75,2.59-3.66.56-3.62l-1.35.3A4.89,4.89,0,0,0-4.24,1.57c-.68.6-2.58.86-3.39.94a6.84,6.84,0,0,0-1.62.39,4.91,4.91,0,0,0-1,.52A1.75,1.75,0,0,0-11,4.61a1.16,1.16,0,0,0,.59,1.48,1.3,1.3,0,0,1,.14.12c.16-.52-.35-.92-.2-1.42a3.35,3.35,0,0,1,.27-.45,3.18,3.18,0,0,1,1.79-1c.63-.12,1.27-.22,1.91-.3.48-.07,1,0,1.4-.12A6.94,6.94,0,0,1-4,2.82,30.64,30.64,0,0,0,.41,2.69l2.16.15c.1-.09,0,0,.1-.15a.87.87,0,0,0-.9-.55c.86-1,2.27-.37,3.1-.05.5.19,1,0,1.25.4.11-.1.1-.07.15-.25.3,0,.31.07.6.15-.06-.49-.34-.64-1-.6a.78.78,0,0,1,0-.55C6.3.56,7.29.73,8.13.43a13.78,13.78,0,0,0,2.15-.9l.6-.85v-.2A16.9,16.9,0,0,0,8.78-2.32Z"/>
<rect fill="none" x="-12" y="-12" width="24" height="24"/>
</symbol>
<symbol id="sand" viewBox="-12 -12 24 24">
<path d="M-1.58,0.83c0.23,0.2,0.35,0.44,0.36,0.73c0.01,0.29-0.08,0.54-0.28,0.75c-0.2,0.21-0.46,0.32-0.78,0.33c-0.32,0.01-0.6-0.08-0.83-0.26C-3.36,2.19-3.49,1.95-3.5,1.67C-3.51,1.38-3.41,1.12-3.2,0.9c0.21-0.22,0.48-0.34,0.8-0.35C-2.08,0.54-1.81,0.64-1.58,0.83z"/>
<path d="M0.08-2.36c0.23,0.2,0.35,0.44,0.36,0.73c0.01,0.29-0.08,0.54-0.28,0.75c-0.2,0.21-0.46,0.32-0.78,0.33c-0.32,0.01-0.59-0.07-0.83-0.26s-0.37-0.42-0.38-0.71c-0.01-0.29,0.09-0.54,0.3-0.76c0.21-0.22,0.48-0.33,0.8-0.35C-0.42-2.65-0.14-2.56,0.08-2.36z"/>
<path d="M3.12,0.55c0.23,0.2,0.35,0.43,0.38,0.71c0.02,0.28-0.07,0.53-0.28,0.75C3,2.23,2.73,2.35,2.42,2.36C2.1,2.37,1.82,2.28,1.58,2.08C1.34,1.88,1.22,1.64,1.2,1.35c-0.01-0.29,0.09-0.54,0.3-0.75C1.72,0.4,1.99,0.29,2.3,0.28S2.89,0.36,3.12,0.55z"/>
<rect fill="none" x="-12" y="-12" width="24" height="24"/>
</symbol>
<symbol  id="scallops" viewBox="-12 -12 24 24">
<path d="M.05-3.74l.21,0A2.35,2.35,0,0,1,1.74-3a2,2,0,0,1,.59,1.55v0l0,0A9.59,9.59,0,0,1-.08,3.27l-.39.47-.27-.55A14.26,14.26,0,0,1-2.33-1.89v-.05l0-.05A2,2,0,0,1-1.44-3.3,2.42,2.42,0,0,1,.05-3.74ZM-.11-3A1.44,1.44,0,0,0-1.55-1.89,13.06,13.06,0,0,0-.29,2.33,8.6,8.6,0,0,0,1.55-1.54a1.41,1.41,0,0,0-.38-1A1.62,1.62,0,0,0,.18-3Z"/>
<rect fill="none" x="-12" y="-12" width="24" height="24"/>
</symbol>
<symbol  id="sink" viewBox="-12 -12 24 24">
<path d="M.72,9.41H.9c1.94,0,3.26-.54,3.94-1.51a3.61,3.61,0,0,0,.33-.69,2,2,0,0,0,.11-.54V6.46l.69,0a2.8,2.8,0,0,1-.58,1.78C4.58,9.39,3.1,10,.93,10H-.93q-3.25,0-4.46-1.8a2.74,2.74,0,0,1-.43-.83A2.37,2.37,0,0,1-6,6.67V6.43l.68,0A2.27,2.27,0,0,0-4.84,7.9c.68,1,2,1.47,3.93,1.48l.5,0ZM-1.46-10a.68.68,0,0,0,.16.41A2.77,2.77,0,0,0-.51-9l0,0a3.63,3.63,0,0,1,1,.7,1.15,1.15,0,0,1,.34.88c0,.58-.53,1.14-1.49,1.68-.68.42-1,.79-1,1.11s.3.61.84,1h0Q.61-2.86.46-1.78a3.51,3.51,0,0,1-1.55,2,.61.61,0,0,0-.26.41,1.67,1.67,0,0,0,.1.51,5.3,5.3,0,0,1,.32,1L.56,1.9.46,8.06-3.4,2.54l1.73-.28A6.16,6.16,0,0,0-2,1.39,1.7,1.7,0,0,1-2.09.58a1.21,1.21,0,0,1,.53-.82h0v0C-.75-.86-.33-1.38-.28-1.85s-.23-.87-.91-1.27h0C-2-3.6-2.37-4.1-2.4-4.61S-2-5.74-1.09-6.29C-.34-6.72.06-7.1.09-7.44a.67.67,0,0,0-.18-.43,3.17,3.17,0,0,0-.79-.58,2.93,2.93,0,0,1-1-.67A1.16,1.16,0,0,1-2.17-10Z"/>
<rect fill="none" x="-12" y="-12" width="24" height="24"/>
</symbol>
<symbol  id="spring" viewBox="-12 -12 24 24">
<path d="M-1.34-9.86,2.52-4.34.78-4.06a8,8,0,0,0,.29.87,1.4,1.4,0,0,1,.13.79,1.3,1.3,0,0,1-.52.84l0,0v0C-.13-.95-.55-.42-.61,0S-.37.91.31,1.3l0,0c.75.46,1.14,1,1.18,1.46S1.12,3.92.21,4.46C-.54,4.9-.94,5.29-1,5.64a.74.74,0,0,0,.18.43A3.2,3.2,0,0,0,0,6.62a3,3,0,0,1,1,.7,1.14,1.14,0,0,1,.31.86A1.74,1.74,0,0,1,.71,9.26H.92c1.92,0,3.22-.52,3.9-1.51a2.05,2.05,0,0,0,.35-.67,2.59,2.59,0,0,0,.1-.55l0-.19.65,0a2.84,2.84,0,0,1-.55,1.8C4.58,9.26,3.08,9.85.92,9.86H-.92c-2.17,0-3.66-.6-4.49-1.77a3.65,3.65,0,0,1-.4-.85A2.43,2.43,0,0,1-6,6.53V6.29l.66,0a2.08,2.08,0,0,0,.47,1.41c.68,1,2,1.5,3.91,1.51H-.4c.62-.43.94-.8,1-1.1a.76.76,0,0,0-.16-.43,3.25,3.25,0,0,0-.79-.51v0a3.8,3.8,0,0,1-1-.7,1.15,1.15,0,0,1-.34-.91q.06-.84,1.5-1.68c.68-.4,1-.77,1-1.1S.49,2.21,0,1.87c0,0,0,0,0,0C-1,1.32-1.44.69-1.34,0a3.58,3.58,0,0,1,1.55-2,.54.54,0,0,0,.23-.38A1.28,1.28,0,0,0,.37-3a4.57,4.57,0,0,1-.32-1l-1.49.24Z"/>
<rect fill="none" x="-12" y="-12" width="24" height="24"/>
</symbol>
<symbol  id="stalactite" viewBox="-12 -12 24 24">
<path d="M3.57-6.69l.52.53L.39-3V6.12H-.39V-3l-3.7-3.14.52-.53L0-3.67Z"/>
<rect fill="none" x="-12" y="-12" width="24" height="24"/>
</symbol>
<symbol  id="stalagmite" viewBox="-12 -12 24 24">
<path d="M.38-6.42V2.75L4.11,5.89l-.56.53L0,3.4l-3.57,3-.53-.53,3.7-3.14V-6.42Z"/>
<rect fill="none" x="-12" y="-12" width="24" height="24"/>
</symbol>
<symbol  id="stalagnate" viewBox="-12 -12 24 24">
<path d="M3.55-8.46l.56.53L.38-4.78v9L4.11,7.36l-.56.53L0,4.86l-3.57,3-.53-.53,3.7-3.14v-9l-3.7-3.15.53-.53L0-5.43Z"/>
<rect fill="none" x="-12" y="-12" width="24" height="24"/>
</symbol>
<symbol  id="straws" viewBox="-12 -12 24 24">
<path d="M-10.89-2.76H10.89V-2H9.63V.46H8.84V-2H8.29v5.6H7.5V-2H5.56V.7H4.77V-2H2.07V2.38H1.29V-2H-.1v3H-.89V-2H-3.2V4.11H-4V-2H-6.22L-6.16.75l-.79,0L-7-2H-8.32V2.33H-9.1V-2h-1.79Z"/>
<rect fill="none" x="-12" y="-12" width="24" height="24"/>
</symbol>
<symbol  id="water" viewBox="-12 -12 24 24">
<path d="M-1.72-9.86,2.11-4.32.38-4.06a6.49,6.49,0,0,0,.29.89,1.5,1.5,0,0,1,.13.79,1.2,1.2,0,0,1-.5.82h0l0,0C-.54-.94-1-.42-1,.05s.24.89.92,1.27h0c.77.48,1.17,1,1.19,1.49S.71,3.94-.2,4.49c-.75.43-1.13.81-1.15,1.15a.51.51,0,0,0,.18.43,2.66,2.66,0,0,0,.76.58,2.93,2.93,0,0,1,1,.67,1.16,1.16,0,0,1,.29.89C.84,8.75.42,9.3-.41,9.86l-.44-.55c.66-.45,1-.83,1-1.15A.47.47,0,0,0,0,7.75a2.84,2.84,0,0,0-.78-.53h0a3.87,3.87,0,0,1-1-.69,1.24,1.24,0,0,1-.34-.91c0-.58.54-1.14,1.52-1.68.66-.42,1-.79,1-1.11s-.3-.61-.84-1h0Q-1.9,1.06-1.74,0a3.44,3.44,0,0,1,1.54-2,.67.67,0,0,0,.27-.41A1.11,1.11,0,0,0,0-3a4.33,4.33,0,0,1-.31-1l-1.5.24Z"/>
<rect fill="none" x="-12" y="-12" width="24" height="24"/>
</symbol><symbol  id="tree" viewBox="-12 -12 24 24">
<path d="M7.4-5.04A4.271,4.271,0,0,0,7.7-6.627a4.3,4.3,0,0,0-4.3-4.3A4.279,4.279,0,0,0,.636-9.914,4.293,4.293,0,0,0-3.045-12a4.3,4.3,0,0,0-4.3,4.3,4.27,4.27,0,0,0,.421,1.845,4.3,4.3,0,0,0-3.645,4.244,4.3,4.3,0,0,0,4.3,4.3A4.282,4.282,0,0,0-3.946,2L-1.175,5.23h0L-1.612,12H.982L.757,6.376,4.119,2.827v0a4.272,4.272,0,0,0,2.15.58,4.3,4.3,0,0,0,4.3-4.3A4.3,4.3,0,0,0,7.4-5.04ZM-3.346,1.538h0A4.346,4.346,0,0,0-2.7.788a4.266,4.266,0,0,0,1.765.753l-.135,2.087ZM.69,4.7.563,1.544A4.258,4.258,0,0,0,2.321.805,4.3,4.3,0,0,0,3.378,2.279Z"/>
<rect fill="none" x="-12" y="-12" width="24" height="24"/>
</symbol><g>
<desc></desc>
<g>
<line fill="none" stroke="#dddddd" stroke-width="0.1mm" x1="0.00" y1="20.00" x2="66.00" y2="20.00" />
<text x="63.20" y="19.80" font-size=".2mm" fill="#000000">0m</text>
<line fill="none" stroke="#dddddd" stroke-width="0.1mm" x1="0.00" y1="40.00" x2="66.00" y2="40.00" />
<text x="63.20" y="39.80" font-size=".2mm" fill="#000000">-10m</text>
<line fill="none" stroke="#dddddd" stroke-width="0.1mm" x1="31.00" y1="0.00" x2="31.00" y2="53.00" />
<text x="31.40" y="2.00" font-size=".2mm" fill="#000000">0m</text>
<line fill="none" stroke="#dddddd" stroke-width="0.1mm" x1="11.00" y1="0.00" x2="11.00" y2="53.00" />
<text x="11.40" y="2.00" font-size=".2mm" fill="#000000">-10m</text>
<line fill="none" stroke="#dddddd" stroke-width="0.1mm" x1="51.00" y1="0.00" x2="51.00" y2="53.00" />
<text x="51.40" y="2.00" font-size=".2mm" fill="#000000">10m</text>
</g>
<g>
<path fill="none" stroke="#000000" stroke-width="0.06mm" d="M31.072214,20.05333 C31.067957,20.103672 31.057392,20.158909 31.091969,20.201168 C31.118246,20.233286 31.141539,20.253798 31.150665,20.296234 C31.449457,21.7655 31.109356,20.133593 31.301628,20.97783 C31.37668,21.307375 31.30361,21.153612 31.420116,21.35469 L31.420116,21.35469" /><path fill="none" stroke="#000000" stroke-width="0.06mm" d="M31.465834,21.376993 C31.50226,21.746847 31.465637,21.49188 31.565735,21.917511 C31.570028,21.935764 31.571342,21.954594 31.574148,21.973135 C31.586363,22.018635 31.598577,22.064137 31.610794,22.109636 L31.610794,22.109636" /><path fill="none" stroke="#000000" stroke-width="0.06mm" d="M31.631979,22.168737 C31.634884,22.250345 31.637787,22.331953 31.640692,22.41356 C31.643381,22.429117 31.643261,22.445433 31.64876,22.460232 C31.662788,22.49799 31.682175,22.533535 31.698883,22.570187 L31.698883,22.570187" /><path fill="none" stroke="#000000" stroke-width="0.06mm" d="M31.698883,22.554573 C31.69427,22.653465 31.676987,22.731958 31.699942,22.823303 C31.703514,22.83752 31.704165,22.856031 31.716417,22.86408 C31.733837,22.875526 31.757507,22.871105 31.778053,22.874619 L31.778053,22.874619" /><path fill="none" stroke="#000000" stroke-width="0.06mm" d="M31.852764,22.730766 C31.806921,23.068487 31.808352,22.991707 31.840187,23.524887 C31.844936,23.60443 31.877363,23.68093 31.880228,23.760563 C31.884275,23.873083 31.87175,23.985725 31.860792,24.097784 C31.80926,24.624735 31.801151,24.357174 31.809275,24.55624 L31.809275,24.55624" /><path fill="none" stroke="#000000" stroke-width="0.06mm" d="M32.01891,24.993374 C31.998695,24.96767 31.976673,24.943295 31.958273,24.916267 C31.948418,24.901793 31.93866,24.886429 31.934513,24.869417 C31.895935,24.711199 31.851263,24.553583 31.83046,24.392063 C31.789452,24.073666 31.78025,24.123365 31.877295,23.954067 L31.877295,23.954067" /><path fill="none" stroke="#000000" stroke-width="0.06mm" d="M31.769133,24.527246 C31.778044,24.556383 31.863758,24.674503 31.852392,24.732876 C31.833405,24.830395 31.810694,24.927206 31.786007,25.023441 C31.726635,25.254879 31.788643,24.915318 31.74237,25.197443 L31.74237,25.197443" /><path fill="none" stroke="#000000" stroke-width="0.06mm" d="M31.778053,24.790419 C31.4913,25.722477 31.773573,24.859367 31.53573,25.483395 C31.519629,25.525639 31.509947,25.570057 31.497055,25.613388 L31.497055,25.613388" /><path fill="none" stroke="#000000" stroke-width="0.06mm" d="M31.594067,25.426044 C31.47278,25.595535 31.424461,25.628935 31.364084,25.79312 C31.332937,25.877821 31.311756,25.966026 31.279425,26.050282 C31.178885,26.312279 31.195786,26.151806 31.189297,26.325958 L31.189297,26.325958" /><path fill="none" stroke="#000000" stroke-width="0.06mm" d="M30.86481,24.461454 C31.020277,23.898277 30.930925,24.115746 31.081135,23.790144 L31.081135,23.790144" /><path fill="none" stroke="#000000" stroke-width="0.06mm" d="M31.172571,23.119947 C31.17135,23.16867 31.170128,23.217392 31.168907,23.266115 C31.173735,23.311487 31.183664,23.356606 31.183386,23.402233 C31.182894,23.482576 31.176432,23.56294 31.166601,23.642681 C31.158108,23.711582 31.123283,23.79461 31.10009,23.858166 L31.10009,23.858166" /><path fill="none" stroke="#000000" stroke-width="0.06mm" d="M30.676365,24.84506 C30.662428,24.908175 30.64425,24.9705 30.634556,25.034405 C30.614555,25.166245 30.607525,25.299843 30.587374,25.43166 C30.58586,25.441565 30.577179,25.413004 30.578201,25.403036 C30.59202,25.268433 30.603603,25.13301 30.631624,25.000633 C30.70078,24.673923 30.778738,24.626274 30.938816,24.304363 C30.978298,24.224966 30.980833,24.138302 30.993044,24.0522 L30.993044,24.0522" /><path fill="none" stroke="#000000" stroke-width="0.06mm" d="M30.700897,25.00564 C30.610027,25.162203 30.573248,25.35351 30.58469,25.533775 C30.590563,25.626307 30.608534,25.717705 30.617401,25.809996 C30.61955,25.83236 30.610998,25.871456 30.60313,25.890924 C30.59702,25.906042 30.577011,25.949972 30.579773,25.933903 C30.585312,25.901684 30.604118,25.872969 30.611683,25.841166 C30.625963,25.78114 30.63399,25.719793 30.645142,25.659107 L30.645142,25.659107" /><path fill="none" stroke="#000000" stroke-width="0.06mm" d="M30.990814,23.194662 L30.98762,23.18143" /><path fill="none" stroke="#000000" stroke-width="0.06mm" d="M31.074444,23.148941 L31.124773,23.09668" /><path fill="none" stroke="#000000" stroke-width="0.06mm" d="M31.17926,23.031853 L31.17941,23.028658" /><path fill="none" stroke="#000000" stroke-width="0.06mm" d="M31.141348,23.123293 L31.135923,23.158012" /><path fill="none" stroke="#000000" stroke-width="0.06mm" d="M31.16811,23.221424 L31.172722,23.221575" /><path fill="none" stroke="#000000" stroke-width="0.06mm" d="M31.287422,23.051924 C31.19205,22.957304 31.192017,22.907772 31.147299,22.76625 C31.142365,22.75063 31.143953,22.731544 31.13323,22.719158 C31.128548,22.713749 31.12309,22.730745 31.122753,22.737892 C31.117496,22.849096 31.12181,22.960615 31.116566,23.07182 C31.11484,23.108389 31.09347,23.16691 31.075045,23.196245 C30.67238,23.837353 31.242088,22.810596 30.676823,23.98465 C30.590683,24.16356 30.508778,24.194565 30.379833,24.33538 C30.33414,24.38528 30.294785,24.440632 30.252262,24.493258 C30.108171,24.646582 29.96408,24.799904 29.819992,24.953228 L29.819992,24.953228" /><path fill="none" stroke="#000000" stroke-width="0.06mm" d="M29.387344,24.64322 C29.332115,24.574589 29.314707,24.520794 29.305119,24.432991 C29.301699,24.401676 29.303106,24.36749 29.310463,24.336496 C29.31792,24.305073 29.33979,24.278946 29.357237,24.252924 L29.357237,24.252924" /><path fill="none" stroke="#000000" stroke-width="0.06mm" d="M29.554605,24.440266 C29.531565,24.45353 29.50743,24.46505 29.485483,24.480053 C29.471355,24.48971 29.456772,24.499933 29.446886,24.5139 C29.34638,24.6559 29.256062,24.80494 29.155203,24.946688 C29.12975,24.982462 29.097357,25.012753 29.068436,25.045784 L29.068436,25.045784" /><path fill="none" stroke="#000000" stroke-width="0.06mm" d="M29.07178,24.445843 C28.961487,24.76365 28.990112,24.64799 28.915731,25.07328 C28.912134,25.093842 28.943485,25.099932 28.956013,25.097443 C28.986559,25.09137 29.017586,25.085701 29.046469,25.07405 C29.088488,25.0571 29.13038,25.038155 29.167477,25.01214 C29.269396,24.94067 29.363861,24.859123 29.462053,24.782612 L29.462053,24.782612" /><path fill="none" stroke="#000000" stroke-width="0.06mm" d="M29.028292,24.829449 C28.952837,24.87453 28.905226,24.892353 28.849936,24.947319 C28.803654,24.993328 28.762932,25.045053 28.71389,25.088108 C28.664555,25.13142 28.612057,25.171726 28.555794,25.205551 C28.479254,25.251568 28.396517,25.286383 28.316877,25.326797 L28.316877,25.326797" /><path fill="none" stroke="#000000" stroke-width="0.06mm" d="M28.18307,25.213055 C28.246668,25.24664 28.291964,25.272137 28.300083,25.343496 C28.30988,25.429596 28.293766,25.52265 28.328907,25.60186 C28.339909,25.62666 28.382587,25.593933 28.409428,25.58997 L28.409428,25.58997" /><path fill="none" stroke="#000000" stroke-width="0.06mm" d="M28.087173,24.532822 L28.178759,24.546354" /><path fill="none" stroke="#000000" stroke-width="0.06mm" d="M28.606796,25.336834 C28.608341,25.303453 28.604534,25.269386 28.61143,25.236689 C28.613718,25.225836 28.618862,25.257656 28.621208,25.268497 C28.633654,25.325993 28.641624,25.384459 28.655777,25.441559 C28.6713,25.504202 28.716028,25.54307 28.760675,25.58551 L28.760675,25.58551" /><path fill="none" stroke="#000000" stroke-width="0.06mm" d="M29.013796,25.380325 C28.98174,25.34483 28.950684,25.308407 28.917631,25.273836 C28.865742,25.219563 28.842327,25.261946 28.82554,25.320204 C28.813143,25.363235 28.80093,25.40655 28.793943,25.450783 C28.785149,25.506483 28.78709,25.615166 28.809578,25.66496 C28.840767,25.734026 28.965706,25.695148 28.96973,25.625195 C28.977722,25.486273 28.989433,25.347258 28.987516,25.208118 C28.986118,25.10664 28.9728,25.00557 28.95981,24.904915 C28.956547,24.879627 28.95372,24.852083 28.938898,24.831337 C28.933485,24.82376 28.926271,24.846031 28.924232,24.855118 C28.917732,24.884092 28.912785,24.9139 28.913713,24.94358 C28.916155,25.021605 28.919182,25.100275 28.934296,25.176859 C28.959003,25.30204 28.993649,25.425312 29.032763,25.546764 C29.056437,25.620281 29.10289,25.735468 29.17029,25.792831 C29.1711,25.793522 29.206594,25.822655 29.221172,25.8245 C29.247814,25.82787 29.274714,25.828726 29.301483,25.83084 L29.301483,25.83084" /><path fill="none" stroke="#000000" stroke-width="0.06mm" d="M29.194437,25.71821 L29.177862,25.717245" /><path fill="none" stroke="#000000" stroke-width="0.06mm" d="M30.691975,19.7344 C30.649063,19.797222 30.60734,19.860874 30.563236,19.922865 C30.559313,19.928381 30.541855,19.950478 30.528599,19.944857 C30.516378,19.939674 30.511753,19.91332 30.51047,19.904737 C30.499104,19.828754 30.489489,19.752522 30.478996,19.676413 L30.478996,19.676413" /><path fill="none" stroke="#000000" stroke-width="0.06mm" d="M30.4645,19.602814 L30.406517,19.423277" /><path fill="none" stroke="#000000" stroke-width="0.06mm" d="M30.102104,18.93931 C30.021019,18.965384 29.972992,18.971233 29.908945,19.0132 C29.797344,19.086329 29.733404,19.259258 29.684532,19.359583 C29.661655,19.406544 29.65541,19.471663 29.678652,19.51992 C29.717653,19.600903 29.785278,19.690872 29.864079,19.736828 C29.949543,19.786673 30.184212,19.942587 30.345716,19.978174 C30.47038,20.005644 30.595549,20.031069 30.721342,20.052776 C30.742666,20.056456 30.764675,20.055948 30.786242,20.054195 C30.808237,20.052408 30.830408,20.049164 30.851353,20.042212 C31.016575,19.987368 31.055054,19.9783 31.178728,19.88871 C31.303122,19.7986 31.372585,19.553448 31.407,19.462414 C31.474873,19.282877 31.474804,19.161003 31.440706,18.976404 C31.429386,18.915127 31.408386,18.859207 31.377079,18.805984 C31.320906,18.710497 31.126772,18.62887 31.068243,18.599754 C30.994663,18.563152 30.904324,18.538643 30.822088,18.532764 C30.63989,18.519743 30.550177,18.526743 30.388914,18.601719 C30.36663,18.61208 30.345757,18.625544 30.326023,18.64019 C30.248379,18.697823 30.176022,18.762495 30.097078,18.818338 C30.06578,18.840477 30.029808,18.855124 29.996172,18.873516 L29.996172,18.873516" /><path fill="none" stroke="#000000" stroke-width="0.06mm" d="M29.86348,19.306189 L29.821257,19.22605" /><path fill="none" stroke="#000000" stroke-width="0.06mm" d="M29.832256,19.169027 C29.98562,19.406353 29.838442,19.161709 29.992144,19.49367 C30.00182,19.514568 30.017408,19.532213 30.031136,19.550705 C30.036228,19.557566 30.040321,19.567059 30.048489,19.56957 C30.092049,19.582973 30.137756,19.588017 30.182388,19.597239 L30.182388,19.597239" /><path fill="none" stroke="#000000" stroke-width="0.06mm" d="M30.3608,18.841177 C30.314188,19.042772 30.30201,19.079916 30.325117,19.250431 L30.325117,19.250431" /><path fill="none" stroke="#000000" stroke-width="0.06mm" d="M30.59831,18.667217 C30.493458,19.110535 30.63596,18.53673 30.481388,19.052938 C30.473455,19.079428 30.471102,19.107407 30.46917,19.13499 C30.468483,19.144793 30.46751,19.156418 30.473597,19.164131 C30.490438,19.185472 30.514366,19.200106 30.53475,19.218094 L30.53475,19.218094" /><path fill="none" stroke="#000000" stroke-width="0.06mm" d="M31.071098,18.890244 C30.963873,18.917997 31.02373,18.909645 30.890457,18.905855 L30.890457,18.905855" /><path fill="none" stroke="#000000" stroke-width="0.06mm" d="M31.40116,19.199135 C31.302193,19.206932 31.193916,19.208307 31.10968,19.145983 C31.098484,19.1377 31.067286,19.109756 31.073236,19.090696 C31.084795,19.053669 31.10229,19.018764 31.116817,18.9828 L31.116817,18.9828" /><path fill="none" stroke="#000000" stroke-width="0.06mm" d="M31.22498,19.640728 C31.209736,19.50535 31.185678,19.390072 31.112461,19.278208 C31.10981,19.274157 31.106052,19.270943 31.102655,19.267492 C31.086315,19.250902 31.069723,19.23456 31.053257,19.218094 L31.053257,19.218094" /><path fill="none" stroke="#000000" stroke-width="0.06mm" d="M31.01646,19.874907 C30.961628,19.77397 30.90997,19.681644 30.907995,19.566319 C30.907478,19.536072 30.911171,19.5059 30.91276,19.475689 L30.91276,19.475689" /><path fill="none" stroke="#000000" stroke-width="0.06mm" d="M30.647373,20.056673 C30.661001,19.985662 30.659235,19.958576 30.68705,19.901932 C30.698147,19.879333 30.714832,19.859482 30.723858,19.835978 C30.744112,19.783222 30.757612,19.728115 30.77449,19.674183 L30.77449,19.674183" /><path fill="none" stroke="#000000" stroke-width="0.06mm" d="M30.524715,19.877136 L30.67525,19.674183" /><path fill="none" stroke="#000000" stroke-width="0.06mm" d="M30.136671,19.78235 C30.311209,19.608398 30.215982,19.692066 30.424358,19.533676 L30.424358,19.533676" /><path fill="none" stroke="#000000" stroke-width="0.06mm" d="M30.568203,20.083437 C30.563046,20.123236 30.547283,20.19468 30.5573,20.241585 C30.565052,20.277872 30.576487,20.313334 30.588507,20.348438 C30.618237,20.435276 30.638723,20.447662 30.643827,20.532337 C30.65643,20.741413 30.596352,20.77507 30.546066,21.000166 C30.130074,22.8623 30.535963,21.438442 30.095875,22.727465 C30.033573,22.909945 29.996986,23.155348 29.876316,23.32817 C29.730423,23.537117 29.569036,23.725683 29.382061,23.899351 C29.317661,23.959166 29.242329,24.00607 29.174429,24.061878 C29.149963,24.081985 29.122093,24.108284 29.12603,24.142923 C29.131392,24.190073 29.191513,24.246788 29.214813,24.26809 C29.253525,24.303482 29.2971,24.333202 29.33952,24.364056 C29.381937,24.394905 29.498428,24.459661 29.540554,24.520271 C29.617208,24.630558 29.688465,24.744526 29.759977,24.858213 C29.778688,24.887959 29.781544,24.91386 29.7892,24.948029 C29.7919,24.960083 29.79009,24.974007 29.796978,24.984259 C29.800228,24.989098 29.808603,24.985132 29.814415,24.985569 L29.814415,24.985569" /><path fill="none" stroke="#000000" stroke-width="0.06mm" d="M29.26357,24.043278 C29.234652,24.052961 29.20627,24.064432 29.176811,24.072327 C29.16228,24.076221 29.147137,24.079128 29.132105,24.078516 C28.881794,24.06829 28.945318,24.085997 28.830925,24.048855 L28.830925,24.048855" /><path fill="none" stroke="#000000" stroke-width="0.06mm" d="M29.447557,24.312027 C29.364202,24.298672 29.28122,24.282728 29.19749,24.271965 C29.003166,24.24698 29.271406,24.294575 29.099026,24.276623 C29.091728,24.275862 29.086065,24.269745 29.079586,24.266306 L29.079586,24.266306" /><path fill="none" stroke="#000000" stroke-width="0.06mm" d="M29.514462,24.423538 C29.449627,24.474442 29.384792,24.525341 29.319958,24.576244 C29.299362,24.593102 29.27784,24.608887 29.258173,24.62682 C29.24829,24.635834 29.236391,24.644379 29.23156,24.65685 C29.225388,24.672789 29.228369,24.690884 29.226774,24.7079 L29.226774,24.7079" /><path fill="none" stroke="#000000" stroke-width="0.06mm" d="M29.699564,24.588581 C29.518316,24.79257 29.567448,24.692497 29.506657,24.861788 L29.506657,24.861788" /><path fill="none" stroke="#000000" stroke-width="0.06mm" d="M29.830027,24.819412 C29.775757,24.936737 29.721485,25.054062 29.667213,25.171385 C29.658403,25.205997 29.641096,25.239506 29.640781,25.275219 C29.64034,25.325403 29.656925,25.374283 29.664997,25.423815 L29.664997,25.423815" /><path fill="none" stroke="#000000" stroke-width="0.06mm" d="M31.386663,22.740803 C31.3291,22.8456 31.356174,22.787136 31.309723,22.918108 L31.309723,22.918108" /><path fill="none" stroke="#000000" stroke-width="0.06mm" d="M31.0,20.0 L31.0,20.0" /><path fill="none" stroke="#000000" stroke-width="0.06mm" d="M31.419,23.045233 C31.443516,22.995554 31.46803,22.945875 31.492546,22.896196 C31.540844,22.823069 31.59774,22.754944 31.637442,22.676815 C31.685928,22.581398 31.720781,22.47947 31.755714,22.378302 C31.78377,22.297049 31.786482,22.185677 31.782251,22.104301 C31.782019,22.099834 31.773844,22.097046 31.769878,22.099113 C31.762783,22.10281 31.759129,22.111183 31.755432,22.118279 C31.744696,22.138884 31.734365,22.159859 31.726784,22.181822 C31.65823,22.38045 31.598532,22.58212 31.527132,22.779743 C31.47288,22.92991 31.348085,23.028494 31.23634,23.138905 C31.21496,23.160028 31.193722,23.19112 31.163689,23.192307 C31.142597,23.193142 31.136902,23.15968 31.123508,23.143364 L31.123508,23.143364" /><path fill="none" stroke="#000000" stroke-width="0.06mm" d="M31.146923,23.192432 C31.494644,22.778835 31.218296,23.136549 31.518024,22.65671 C31.82682,22.162354 31.544188,22.663109 31.7223,22.341585 L31.7223,22.341585" /><path fill="none" stroke="#000000" stroke-width="0.06mm" d="M31.24951,23.036312 C30.871267,22.639648 31.422699,23.209137 30.921741,22.728712 C30.904951,22.71261 30.89494,22.69068 30.881538,22.671663 L30.881538,22.671663" /><path fill="none" stroke="#000000" stroke-width="0.06mm" d="M31.309723,22.915878 C31.239874,22.747366 31.196684,22.652134 31.140142,22.467018 C31.12576,22.41993 31.119389,22.370758 31.109013,22.322626 L31.109013,22.322626" /><path fill="none" stroke="#000000" stroke-width="0.06mm" d="M31.472525,22.604755 C31.362206,22.493574 31.368801,22.453096 31.3153,22.284712 L31.3153,22.284712" /><path fill="none" stroke="#000000" stroke-width="0.06mm" d="M31.604103,22.354965 C31.53337,22.23822 31.500431,22.105453 31.434612,21.98697 L31.434612,21.98697" /><path fill="none" stroke="#000000" stroke-width="0.06mm" d="M31.053976,25.661816 C30.928692,25.710861 30.809624,25.785389 30.721495,25.888313 C30.709097,25.90279 30.700226,25.92027 30.686644,25.933641 C30.682747,25.937477 30.676043,25.93993 30.670872,25.938152 C30.658747,25.933989 30.654022,25.913456 30.652279,25.90386 C30.647226,25.876076 30.64354,25.848063 30.63917,25.820164 L30.63917,25.820164" /><path fill="none" stroke="#000000" stroke-width="0.06mm" d="M30.63917,25.817934 L30.594717,25.828121" /><path fill="none" stroke="#000000" stroke-width="0.06mm" d="M30.593452,25.833546 L30.600292,25.86938" /><path fill="none" stroke="#000000" stroke-width="0.06mm" d="M30.617985,25.883728 L30.625938,25.905064" /><path fill="none" stroke="#000000" stroke-width="0.06mm" d="M30.669277,25.914951 L30.689499,25.905064" /><path fill="none" stroke="#000000" stroke-width="0.06mm" d="M30.684889,25.877035 C30.683947,25.748503 30.680475,25.811445 30.690989,25.844677 C30.699385,25.871212 30.71071,25.89673 30.72057,25.922756 L30.72057,25.922756" /><path fill="none" stroke="#000000" stroke-width="0.06mm" d="M30.732836,25.929447 L30.744137,25.899488" /><path fill="none" stroke="#000000" stroke-width="0.06mm" d="M31.0,20.0 L31.0,20.0" /><path fill="none" stroke="#000000" stroke-width="0.06mm" d="M30.46522,25.824625 C30.563725,25.850622 30.507982,25.840229 30.633595,25.849157 L30.633595,25.849157" /><path fill="none" stroke="#000000" stroke-width="0.06mm" d="M30.642515,25.841352 L30.715145,25.83035" /><path fill="none" stroke="#000000" stroke-width="0.06mm" d="M30.741756,25.853619 L30.741907,25.899488" /><path fill="none" stroke="#000000" stroke-width="0.06mm" d="M30.732836,26.011967 C30.664335,26.0368 30.590433,26.054586 30.531876,26.10117 C30.419344,26.190691 30.314705,26.289894 30.201542,26.378616 C30.126568,26.4374 30.015844,26.469017 29.932112,26.50018 C29.90654,26.509695 29.98378,26.48228 30.00843,26.470581 C30.026115,26.462189 30.042547,26.451263 30.058645,26.440125 C30.238794,26.315466 30.419485,26.191532 30.597075,26.063253 C30.611599,26.052763 30.622948,26.038326 30.634201,26.024384 C30.642872,26.01364 30.650366,26.00186 30.656576,25.989529 C30.682516,25.938028 30.70791,25.886185 30.730524,25.833141 C30.735441,25.821604 30.737154,25.80888 30.738886,25.79646 C30.739244,25.793886 30.742807,25.701138 30.719019,25.743883 C30.650446,25.867107 30.638641,25.947784 30.515398,26.024235 L30.515398,26.024235" /><path fill="none" stroke="#000000" stroke-width="0.06mm" d="M31.266954,26.441294 C31.246063,26.491127 31.22966,26.543093 31.204279,26.590797 C31.116556,26.755686 31.005058,26.885473 30.86487,27.013393 C30.731276,27.1353 30.581633,27.238508 30.444548,27.356476 C30.440834,27.359673 30.446035,27.368176 30.450638,27.36986 C30.459452,27.373085 30.469498,27.370388 30.47878,27.369005 C30.501326,27.36565 30.536858,27.354446 30.55486,27.341602 C30.591808,27.315239 30.626492,27.285744 30.660536,27.25572 C30.711628,27.210663 30.760048,27.16266 30.81013,27.11648 C30.87272,27.058762 30.915237,27.031868 30.957314,26.95938 C30.965603,26.9451 31.155254,26.64962 31.178288,26.516115 C31.219807,26.275465 31.210052,26.190327 31.21566,25.928333 L31.21566,25.928333" /><path fill="none" stroke="#000000" stroke-width="0.06mm" d="M31.222351,29.427622 C31.19067,29.416765 31.155699,29.398336 31.120096,29.397888 C31.096525,29.39759 31.06512,29.405586 31.0474,29.421799 C30.962658,29.499313 30.874895,29.574274 30.798439,29.659971 C30.748861,29.715538 30.708971,29.779419 30.67112,29.843552 C30.585825,29.98806 30.572283,30.11684 30.548609,30.290668 C30.54116,30.345356 30.540337,30.400995 30.542667,30.456139 C30.544458,30.498493 30.55316,30.540325 30.560923,30.582 C30.576511,30.665695 30.59366,30.749125 30.612696,30.832104 C30.630621,30.902111 30.648546,30.972118 30.666471,31.042126 C30.66963,31.051746 30.673615,31.061136 30.67595,31.07099 C30.68571,31.112175 30.693802,31.153738 30.702728,31.19511 L30.702728,31.19511" /><path fill="none" stroke="#000000" stroke-width="0.06mm" d="M31.099693,29.494532 C31.138351,29.62094 31.196579,29.739094 31.269184,29.849144 L31.269184,29.849144" /><path fill="none" stroke="#000000" stroke-width="0.06mm" d="M30.836538,29.834648 C30.99138,29.816101 31.019135,29.859837 31.139835,29.961773 L31.139835,29.961773" /><path fill="none" stroke="#000000" stroke-width="0.06mm" d="M30.64586,30.199297 C30.749435,30.104868 30.773767,30.107683 30.923471,30.075191 C30.930035,30.073767 30.93694,30.073395 30.943596,30.074272 C30.985764,30.079838 31.02759,30.08774 31.069588,30.094475 L31.069588,30.094475" /><path fill="none" stroke="#000000" stroke-width="0.06mm" d="M30.661472,30.563946 C30.886683,30.499876 30.794987,30.491177 30.934664,30.522686 L30.934664,30.522686" /><path fill="none" stroke="#000000" stroke-width="0.06mm" d="M30.653666,31.073563 C30.782429,30.947945 30.816341,30.957584 31.016064,30.877296 L31.016064,30.877296" /><path fill="none" stroke="#000000" stroke-width="0.06mm" d="M30.749561,31.289898 C30.821331,31.186914 30.85612,31.20044 30.964233,31.145527 C30.99538,31.12971 31.024061,31.109446 31.053976,31.091404 L31.053976,31.091404" /><path fill="none" stroke="#000000" stroke-width="0.06mm" d="M30.56892,27.254227 C30.570805,27.348936 30.513683,27.483711 30.544773,27.58894 C30.548368,27.601109 30.552372,27.613401 30.55888,27.624294 C30.601187,27.695105 30.643581,27.766033 30.690933,27.833572 C30.711632,27.863094 30.734268,27.892242 30.762476,27.914698 C31.46001,28.469944 31.225664,28.352638 31.629353,28.533285 L31.629353,28.533285" /><path fill="none" stroke="#000000" stroke-width="0.06mm" d="M31.44202,28.813185 C31.424343,28.707924 31.433683,28.68229 31.508682,28.602995 C31.515442,28.595848 31.522715,28.587751 31.532211,28.585182 C31.55462,28.57912 31.578386,28.580322 31.601475,28.577892 L31.601475,28.577892" /><path fill="none" stroke="#000000" stroke-width="0.06mm" d="M31.505579,28.551128 L31.282566,28.318066" /><path fill="none" stroke="#000000" stroke-width="0.06mm" d="M31.428638,28.837719 C31.436586,28.861502 31.44844,28.933819 31.452478,28.90907 C31.46938,28.805477 31.461386,28.699314 31.46831,28.594582 C31.469746,28.57287 31.49118,28.527035 31.516825,28.524364 C31.54489,28.521442 31.57326,28.524364 31.601475,28.524364 L31.601475,28.524364" /><path fill="none" stroke="#000000" stroke-width="0.06mm" d="M31.439789,29.343988 C31.394115,29.305447 31.34791,29.263512 31.378386,29.199844 C31.457611,29.034334 31.71883,28.550566 31.620293,28.70536 C31.492502,28.906113 31.479519,29.194206 31.290194,29.33839 C31.12743,29.462343 31.452143,28.96261 31.530603,28.773664 C31.594912,28.618801 31.536087,28.67287 31.673954,28.576775 L31.673954,28.576775" /><path fill="none" stroke="#000000" stroke-width="0.06mm" d="M29.65345,26.385538 C29.691153,26.376175 29.729462,26.368984 29.766558,26.357445 C29.824837,26.339314 29.859459,26.270924 29.92605,26.282099 C29.931158,26.282955 29.936249,26.28468 29.940655,26.287401 C29.974092,26.308071 30.006393,26.330523 30.039263,26.352083 L30.039263,26.352083" /><path fill="none" stroke="#000000" stroke-width="0.06mm" d="M29.98574,26.354313 C29.936308,26.371609 29.886877,26.3889 29.837446,26.406197 C29.77088,26.42905 29.701485,26.444916 29.637743,26.474758 C29.405758,26.583368 29.181255,26.707321 28.951662,26.8209 C28.835451,26.878387 28.713552,26.92464 28.600395,26.987925 C28.52961,27.037315 28.458826,27.086706 28.38804,27.136097 C28.390364,27.14053 28.390005,27.149342 28.39501,27.149399 C28.423027,27.149723 28.450447,27.141224 28.478165,27.137136 L28.478165,27.137136" /><path fill="none" stroke="#000000" stroke-width="0.06mm" d="M30.72949,31.249752 C30.32375,31.221848 30.457203,31.222366 30.054081,31.069878 C29.673197,30.9258 30.08867,31.108438 29.776106,30.966507 L29.776106,30.966507" /><path fill="none" stroke="#000000" stroke-width="0.06mm" d="M29.650105,30.896255 C29.600042,30.895355 29.549751,30.898432 29.49992,30.893557 C29.463203,30.889965 29.425165,30.88622 29.391577,30.870968 C29.139048,30.756283 28.891762,30.630306 28.644331,30.505005 C28.628101,30.496784 28.588097,30.459642 28.577381,30.441277 C28.55745,30.407106 28.541716,30.370655 28.523884,30.335342 L28.523884,30.335342" /><path fill="none" stroke="#000000" stroke-width="0.06mm" d="M28.37558,30.346495 C28.274168,30.346256 28.187592,30.32461 28.110455,30.257126 C28.069035,30.22089 28.032824,30.178595 27.989063,30.145222 C27.90879,30.084007 27.734465,30.006918 27.673813,29.895428 C27.65609,29.862848 27.64835,29.825148 27.638517,29.790043 L27.638517,29.790043" /><path fill="none" stroke="#000000" stroke-width="0.06mm" d="M27.689812,29.868103 C27.654848,29.855827 27.61878,29.846333 27.58492,29.83128 C27.561758,29.82098 27.540707,29.806385 27.519558,29.792408 C27.394196,29.70956 27.265965,29.63065 27.145473,29.540865 C26.956768,29.400253 26.773718,29.252073 26.592667,29.101734 C26.56405,29.07797 26.539898,29.04897 26.51741,29.019337 C26.492117,28.986008 26.472372,28.94881 26.449854,28.913548 L26.449854,28.913548" /><path fill="none" stroke="#000000" stroke-width="0.06mm" d="M26.322735,28.94477 C26.272808,28.911934 26.222881,28.879093 26.172953,28.846256 C26.141771,28.82358 26.111422,28.799713 26.079407,28.778229 C26.052696,28.760302 26.021507,28.74887 25.996922,28.728123 C25.838793,28.594679 25.508038,28.298868 25.363316,28.123487 C25.171368,27.890877 25.151718,27.84434 25.041521,27.64564 L25.041521,27.64564" /><path fill="none" stroke="#000000" stroke-width="0.06mm" d="M25.072186,27.694191 L25.091421,27.58558" /><path fill="none" stroke="#000000" stroke-width="0.06mm" d="M25.607733,24.09718 C25.609558,24.147335 25.598152,24.457169 25.640877,24.592894 C25.65506,24.637943 25.711739,24.620129 25.723503,24.584347 C25.73336,24.55437 25.73961,24.523327 25.747665,24.492817 L25.747665,24.492817" /><path fill="none" stroke="#000000" stroke-width="0.06mm" d="M25.29677,23.857033 C25.397121,24.009823 25.448225,24.052105 25.590458,24.1421 L25.590458,24.1421" /><path fill="none" stroke="#000000" stroke-width="0.06mm" d="M25.597366,24.1421 L25.601055,24.145786" /><path fill="none" stroke="#000000" stroke-width="0.06mm" d="M24.445078,22.90163 C24.35701,22.893211 24.0254,22.836933 23.861563,22.867483 C23.789392,22.880941 23.716143,22.89463 23.64843,22.922998 C23.334852,23.054373 23.184904,23.194542 22.886503,23.382792 C22.726164,23.483944 22.5593,23.574478 22.398733,23.675268 C22.20213,23.798681 22.020428,23.946873 21.815174,24.05529 C21.549923,24.195396 21.148397,24.260824 20.919508,24.50484 C20.717106,24.720617 20.745232,25.041628 20.763126,25.315218 C20.78651,25.67271 20.833261,25.929989 20.963198,26.24601 C21.005428,26.348722 21.044731,26.455206 21.109852,26.545166 C21.281704,26.782566 21.47261,27.006245 21.670206,27.222689 C21.729279,27.287395 21.803585,27.337059 21.876766,27.385235 C21.983397,27.455431 22.12109,27.534704 22.253513,27.560766 C22.592377,27.627457 22.93164,27.692959 23.272898,27.746067 C23.331226,27.755144 23.390963,27.747646 23.44999,27.74697 C23.584972,27.745422 23.719902,27.740093 23.85489,27.739391 C24.506184,27.736004 24.595066,27.682396 25.101727,27.819672 C25.197445,27.845606 25.311375,27.913763 25.389336,27.972336 C25.655998,28.172682 25.381643,27.980923 25.505793,28.083155 C25.52328,28.097553 25.542656,28.109488 25.561089,28.122654 L25.561089,28.122654" /><path fill="none" stroke="#000000" stroke-width="0.06mm" d="M24.431257,22.972466 C24.46296,22.950134 24.49335,22.925816 24.526361,22.905472 C24.607395,22.855534 24.71468,22.930632 24.780226,22.965555 L24.780226,22.965555" /><path fill="none" stroke="#000000" stroke-width="0.06mm" d="M25.362417,23.81557 C25.204945,23.724133 25.058994,23.608913 24.954824,23.457691 C24.912983,23.396954 24.87528,23.333466 24.835508,23.271353 L24.835508,23.271353" /><path fill="none" stroke="#000000" stroke-width="0.06mm" d="M24.737038,22.917181 L24.70963,22.910503" /><path fill="none" stroke="#000000" stroke-width="0.06mm" d="M26.067266,24.218117 C26.051811,24.265158 26.031708,24.310919 26.020899,24.35924 C26.015162,24.38489 26.044128,24.388203 26.058846,24.387032 C26.115574,24.382519 26.173569,24.338226 26.205309,24.293495 C26.238533,24.246677 26.262445,24.188345 26.278885,24.134663 C26.286463,24.109915 26.286875,24.083439 26.293257,24.058355 C26.296549,24.045412 26.295616,24.026503 26.307795,24.02102 C26.319916,24.015564 26.356153,24.062023 26.359875,24.065207 C26.405346,24.10408 26.452732,24.140656 26.499159,24.178381 L26.499159,24.178381" /><path fill="none" stroke="#000000" stroke-width="0.06mm" d="M25.828861,24.686314 C25.60184,24.78774 25.494125,24.950876 25.360691,25.151058 L25.360691,25.151058" /><path fill="none" stroke="#000000" stroke-width="0.06mm" d="M25.248398,25.228804 C25.119154,25.278975 24.98916,25.33186 24.895151,25.438053 C24.84564,25.49398 24.801258,25.554249 24.754313,25.612347 L24.754313,25.612347" /><path fill="none" stroke="#000000" stroke-width="0.06mm" d="M24.838963,26.280956 C24.849455,26.595345 24.715834,27.033588 24.835152,27.367527 C24.885332,27.507969 24.99269,27.654657 25.140862,27.70186 C25.190235,27.71759 25.260117,27.726326 25.310915,27.720272 C25.498777,27.697884 25.644388,27.676622 25.795675,27.56679 C26.037584,27.391165 26.308783,26.88048 26.382599,26.790531 C26.498064,26.64983 26.634241,26.526594 26.772713,26.408463 C27.020403,26.197157 27.282936,26.00389 27.539557,25.803524 C27.59362,25.761312 27.649616,25.736645 27.68891,25.677765 C27.8067,25.501255 27.924166,25.324043 28.028019,25.13899 C28.07024,25.063755 28.166769,24.827837 28.143755,24.715708 C28.10425,24.523233 28.070889,24.230103 27.92681,24.055017 C27.698483,23.777557 27.15179,23.910147 26.907495,23.94196 C26.90678,23.942053 26.510002,24.017582 26.39459,24.096567 C26.314821,24.15116 26.237041,24.209194 26.164618,24.273212 C26.123482,24.309574 26.089941,24.35382 26.05534,24.396446 C25.9164,24.56762 25.793547,24.752361 25.64412,24.914457 C25.402802,25.176235 25.133938,25.411318 24.885075,25.665936 C24.863014,25.688503 24.848005,25.717196 24.8326,25.744738 C24.813663,25.778591 24.79129,25.838732 24.789835,25.878357 C24.782787,26.070389 24.842438,26.270916 24.862568,26.454628 C24.880512,26.6184 24.86174,26.645882 24.82687,26.797531 L24.82687,26.797531" /><path fill="none" stroke="#000000" stroke-width="0.06mm" d="M27.043344,24.770971 L27.02607,24.58784" /><path fill="none" stroke="#000000" stroke-width="0.06mm" d="M26.901684,24.643124 C26.813507,24.374628 26.811861,24.381807 26.81876,24.133461 L26.81876,24.133461" /><path fill="none" stroke="#000000" stroke-width="0.06mm" d="M26.447332,24.92128 C26.294716,24.774889 26.209766,24.725431 26.037899,24.648308 L26.037899,24.648308" /><path fill="none" stroke="#000000" stroke-width="0.06mm" d="M25.863413,25.449947 C25.744322,25.373293 25.625233,25.296638 25.506142,25.219986 C25.486197,25.213402 25.463001,25.187487 25.446304,25.200233 C25.429123,25.213352 25.446815,25.243467 25.44707,25.265085 L25.44707,25.265085" /><path fill="none" stroke="#000000" stroke-width="0.06mm" d="M25.162018,26.037355 C24.941105,25.940712 25.061903,25.985943 24.797503,25.90778 L24.797503,25.90778" /><path fill="none" stroke="#000000" stroke-width="0.06mm" d="M25.225939,26.562567 C25.039135,26.569168 24.880892,26.643612 24.730127,26.749155 L24.730127,26.749155" /><path fill="none" stroke="#000000" stroke-width="0.06mm" d="M25.227667,26.95302 C25.110294,27.082767 24.992924,27.212513 24.875551,27.34226 C24.869474,27.351212 24.860264,27.358704 24.857323,27.369116 C24.845003,27.412746 24.839325,27.457985 24.830326,27.50242 L24.830326,27.50242" /><path fill="none" stroke="#000000" stroke-width="0.06mm" d="M25.637102,26.989302 C25.571924,27.258976 25.549618,27.385115 25.569727,27.61472 L25.569727,27.61472" /><path fill="none" stroke="#000000" stroke-width="0.06mm" d="M25.97916,26.742245 C26.026192,26.911995 26.07322,27.081745 26.12025,27.251495 C26.127905,27.253517 26.136675,27.262026 26.143215,27.257563 C26.155603,27.249107 26.160557,27.232937 26.167168,27.219475 C26.179638,27.194082 26.189249,27.167383 26.20029,27.141338 L26.20029,27.141338" /><path fill="none" stroke="#000000" stroke-width="0.06mm" d="M26.523346,26.2775 C26.53408,26.328726 26.558214,26.502752 26.603237,26.56801 C26.620064,26.5924 26.647871,26.606997 26.670189,26.626492 L26.670189,26.626492" /><path fill="none" stroke="#000000" stroke-width="0.06mm" d="M27.022614,25.665905 C27.037046,25.726913 27.05148,25.787922 27.065914,25.84893 C27.078278,25.876427 27.080063,25.911865 27.103008,25.931423 C27.137781,25.961061 27.186466,25.968643 27.228195,25.987251 L27.228195,25.987251" /><path fill="none" stroke="#000000" stroke-width="0.06mm" d="M27.411316,25.405027 C27.477621,25.61879 27.521927,25.634846 27.691183,25.812757 L27.691183,25.812757" /><path fill="none" stroke="#000000" stroke-width="0.06mm" d="M27.418228,25.078497 C27.504343,25.094011 27.590458,25.109528 27.676575,25.125042 C27.70534,25.125725 27.735018,25.13431 27.762869,25.127087 C27.834074,25.108622 27.900505,25.075113 27.969322,25.049128 L27.969322,25.049128" /><path fill="none" stroke="#000000" stroke-width="0.06mm" d="M28.076431,24.11964 C27.873133,24.272793 27.669834,24.425947 27.466534,24.579102 C27.448753,24.59584 27.432278,24.614086 27.413195,24.629322 C27.392445,24.64589 27.36933,24.659256 27.347397,24.674221 L27.347397,24.674221" /><path fill="none" stroke="#000000" stroke-width="0.06mm" d="M27.419954,23.931324 C27.383152,23.949516 27.34484,23.96493 27.309544,23.9859 C27.24305,24.02541 27.160875,24.128605 27.137756,24.200356 C27.017942,24.572203 27.036516,24.524597 27.01743,24.840078 L27.01743,24.840078" /><path fill="none" stroke="#000000" stroke-width="0.06mm" d="M26.545803,24.23021 C26.482174,24.393572 26.439499,24.568413 26.456575,24.74487 C26.459843,24.778635 26.46769,24.811798 26.473246,24.84526 L26.473246,24.84526" /><path fill="none" stroke="#000000" stroke-width="0.06mm" d="M32.3566,29.106026 L32.51789,29.898281" /><path fill="none" stroke="#000000" stroke-width="0.06mm" d="M33.656395,28.94947 C33.758545,29.72163 33.740547,29.327969 33.703835,30.130737 L33.703835,30.130737" /><path fill="none" stroke="#000000" stroke-width="0.06mm" d="M35.20761,33.25707 L34.94196,32.806385" /><path fill="none" stroke="#000000" stroke-width="0.06mm" d="M31.393616,31.122246 L31.773117,30.818626" /><path fill="none" stroke="#000000" stroke-width="0.06mm" d="M32.1289,29.68954 C32.151043,29.86579 32.139336,30.031912 32.223335,30.186726 C32.362743,30.443659 32.728046,30.638313 32.96681,30.396992 C33.05468,30.308182 33.116756,30.212463 33.13409,30.088144 C33.146313,30.000496 33.1137,29.904282 33.06878,29.830643 C32.888397,29.53494 32.494236,29.673355 32.319393,29.909945 C32.21772,30.047525 32.189857,30.238956 32.147873,30.396404 L32.147873,30.396404" /><path fill="none" stroke="#000000" stroke-width="0.06mm" d="M33.81294,30.021626 C33.910652,30.35875 33.90214,30.44163 34.0501,30.69107 C34.206833,30.955307 34.50161,30.929703 34.661766,30.674686 C34.772984,30.497593 34.785088,30.254227 34.699368,30.065151 C34.647453,29.950642 34.547802,29.860237 34.41586,29.864115 C34.380352,29.865158 34.344772,29.869122 34.31001,29.876415 C34.133186,29.913498 33.948067,29.92688 33.781616,29.997131 C33.662422,30.04744 33.5748,30.152622 33.47139,30.230366 L33.47139,30.230366" /><path fill="none" stroke="#000000" stroke-width="0.06mm" d="M33.319588,30.851833 C33.306313,31.019785 33.27626,31.097233 33.312977,31.236761 C33.399555,31.565777 33.880043,31.639004 34.130836,31.466051 C34.539467,31.18425 34.24247,30.641357 33.848064,30.540783 C33.67134,30.495718 33.3493,30.645672 33.286385,30.662075 L33.286385,30.662075" /><path fill="none" stroke="#000000" stroke-width="0.06mm" d="M30.824362,31.50177 L31.469515,30.93723" /><path fill="none" stroke="#000000" stroke-width="0.06mm" d="M32.285446,30.51501 C32.242645,30.707037 32.187874,30.896782 32.157047,31.091091 C32.13499,31.230125 32.11186,31.470516 32.20609,31.60764 C32.25672,31.681322 32.34217,31.736324 32.42713,31.761257 C32.730457,31.85028 33.035255,31.809128 33.149933,31.477083 C33.178146,31.395403 33.18945,31.297228 33.182266,31.21145 C33.17651,31.142662 33.166492,31.073923 33.150017,31.006887 C33.123093,30.897337 32.991005,30.554543 32.81722,30.674633 C32.792423,30.691769 32.76924,30.713036 32.753384,30.738663 C32.67055,30.872528 32.59955,31.013363 32.522633,31.150711 L32.522633,31.150711" /><path fill="none" stroke="#000000" stroke-width="0.06mm" d="M32.157364,28.40865 L32.172234,28.40929" /><path fill="none" stroke="#000000" stroke-width="0.06mm" d="M36.0188,30.998898 L35.967255,30.790802" /><path fill="none" stroke="#000000" stroke-width="0.06mm" d="M35.985588,30.533985 L35.98623,30.534622" /><path fill="none" stroke="#000000" stroke-width="0.06mm" d="M31.030182,31.314085 L31.596992,31.9239" /><path fill="none" stroke="#000000" stroke-width="0.06mm" d="M36.01688,30.974388 C35.837654,31.266636 35.84466,31.224964 35.71745,31.666626 C35.673294,31.819916 35.66222,31.981476 35.618004,32.13475 C35.57899,32.26998 35.518326,32.398 35.468487,32.529625 L35.468487,32.529625" /><path fill="none" stroke="#000000" stroke-width="0.06mm" d="M35.54829,32.49688 C35.46484,32.69103 35.38749,32.887913 35.297943,33.079323 C35.280266,33.11711 35.25629,33.152603 35.227432,33.182728 C35.158836,33.254333 34.92587,33.534996 34.74324,33.62713 C34.637928,33.68026 34.53588,33.660442 34.42023,33.66469 C34.328857,33.668045 34.272053,33.753433 34.21823,33.812695 L34.21823,33.812695" /><path fill="none" stroke="#000000" stroke-width="0.06mm" d="M34.238693,33.687866 C33.989937,33.579098 33.12684,33.542847 32.789433,33.302402 C32.747814,33.272743 32.639313,33.156776 32.6283,33.145576 L32.6283,33.145576" /><path fill="none" stroke="#000000" stroke-width="0.06mm" d="M32.80837,33.11284 C32.750694,33.050446 32.703964,32.97576 32.63534,32.92566 C31.717247,32.255394 31.990381,32.57725 31.388748,32.036266 C31.314346,31.969366 31.261824,31.837086 31.214731,31.764053 C31.185213,31.718277 31.119524,31.661144 31.081337,31.625132 L31.081337,31.625132" /><path fill="none" stroke="#000000" stroke-width="0.06mm" d="M31.040413,31.477795 C30.972717,31.305672 30.845304,31.179401 30.733477,31.037823 L30.733477,31.037823" /><path fill="none" stroke="#000000" stroke-width="0.06mm" d="M31.84254,28.692692 C31.937826,28.684336 32.033978,28.68293 32.128395,28.667625 C32.47095,28.612099 32.226326,28.627518 32.463566,28.573662 C32.60804,28.540865 33.004524,28.584116 33.01131,28.585201 C33.059593,28.592924 33.09701,28.632305 33.139862,28.655859 L33.139862,28.655859" /><path fill="none" stroke="#000000" stroke-width="0.06mm" d="M36.95406,29.781357 C36.781025,29.898602 36.70954,30.037605 36.585735,30.215187 L36.585735,30.215187" /><path fill="none" stroke="#000000" stroke-width="0.06mm" d="M35.822487,30.047384 C35.82827,30.21761 35.940277,30.329918 35.996582,30.479233 C36.03391,30.57821 36.06801,30.67906 36.08988,30.782558 C36.12063,30.92805 36.132614,31.076881 36.153976,31.224045 L36.153976,31.224045" /><path fill="none" stroke="#000000" stroke-width="0.06mm" d="M35.51964,28.017393 C35.335976,28.232998 35.336395,28.309296 35.257725,28.594467 L35.257725,28.594467" /><path fill="none" stroke="#000000" stroke-width="0.06mm" d="M35.29865,28.698832 C35.33916,28.780905 35.38031,28.856144 35.370293,28.948502 C35.361084,29.033379 35.327515,29.108475 35.338963,29.196438 C35.382576,29.531628 35.444046,29.699203 35.69199,29.93195 C35.75864,29.994514 35.86489,30.072956 35.962234,30.079098 C35.971252,30.079668 35.985325,30.071182 35.983532,30.062325 C35.979168,30.040775 35.962173,30.023483 35.94763,30.00699 C35.86567,29.914001 35.769676,29.833122 35.694576,29.734505 C35.627098,29.6459 35.57473,29.54649 35.522163,29.4483 C35.45479,29.322445 35.421513,29.090614 35.40552,28.98162 C35.39611,28.917461 35.44808,28.768133 35.347713,28.739185 C35.11085,28.670864 34.87437,28.600626 34.63488,28.54218 C34.59007,28.531242 34.54293,28.528397 34.49691,28.531542 C34.218025,28.550598 33.940987,28.593529 33.66186,28.608664 C33.59296,28.6124 33.524673,28.593468 33.455883,28.587994 C33.376965,28.581715 33.062656,28.54048 32.90956,28.567179 C32.78193,28.589437 32.69654,28.656967 32.58942,28.72748 L32.58942,28.72748" /><path fill="none" stroke="#000000" stroke-width="0.06mm" d="M36.465008,28.369368 L36.17035,28.565817" /><path fill="none" stroke="#000000" stroke-width="0.06mm" d="M36.145794,28.588327 L35.978,28.698832" /><path fill="none" stroke="#000000" stroke-width="0.06mm" d="M35.480762,28.752037 L35.476948,28.74822" /><path fill="none" stroke="#000000" stroke-width="0.06mm" d="M35.484856,28.715202 C35.515816,28.744473 35.54559,28.77505 35.577732,28.803017 C35.689976,28.90068 35.85148,28.707531 35.910477,28.65995 L35.910477,28.65995" /><path fill="none" stroke="#000000" stroke-width="0.06mm" d="M35.61991,29.355715 C35.666595,29.264984 35.713024,29.150108 35.78622,29.07123 C35.82454,29.029936 35.869057,28.99486 35.910477,28.956673 L35.910477,28.956673" /><path fill="none" stroke="#000000" stroke-width="0.06mm" d="M35.757008,29.507147 L36.04962,29.187914" /><path fill="none" stroke="#000000" stroke-width="0.06mm" d="M35.832718,29.920511 L36.203087,29.505098" /><path fill="none" stroke="#000000" stroke-width="0.06mm" d="M31.895742,28.895283 C31.907377,29.11463 31.88804,28.989212 31.983732,29.265675 L31.983732,29.265675" /><path fill="none" stroke="#000000" stroke-width="0.06mm" d="M33.11735,28.786825 C33.127625,28.990856 33.19155,29.052273 33.31993,29.206331 L33.31993,29.206331" /><path fill="none" stroke="#000000" stroke-width="0.06mm" d="M33.663696,28.889143 L33.67393,29.153126" /><path fill="none" stroke="#000000" stroke-width="0.06mm" d="M34.02793,28.741806 C34.05003,28.837326 34.072132,28.932846 34.09423,29.028366 C34.098434,29.05373 34.098206,29.080238 34.106834,29.104454 C34.132896,29.177586 34.167458,29.247406 34.19777,29.31888 L34.19777,29.31888" /><path fill="none" stroke="#000000" stroke-width="0.06mm" d="M34.73184,28.719296 C34.593452,29.095642 34.65399,28.894464 34.557907,29.32502 L34.557907,29.32502" /><path fill="none" stroke="#000000" stroke-width="0.06mm" d="M35.349804,28.811382 C35.191177,28.966381 35.11097,29.04731 35.00194,29.198145 L35.00194,29.198145" /><path fill="none" stroke="#000000" stroke-width="0.06mm" d="M35.536015,29.222702 L35.49536,29.169771" /><path fill="none" stroke="#000000" stroke-width="0.06mm" d="M35.832718,29.985994 C35.823063,30.042522 35.808422,30.09842 35.803753,30.155575 C35.78893,30.336987 35.891685,30.772175 35.900246,30.82091 L35.900246,30.82091" /><path fill="none" stroke="#000000" stroke-width="0.06mm" d="M36.336094,31.078753 C35.95298,31.12637 36.020535,31.112926 35.76724,30.810678 L35.76724,30.810678" /><path fill="none" stroke="#000000" stroke-width="0.06mm" d="M35.773376,31.440958 C35.42428,31.304924 35.46836,31.402878 35.388683,31.172884 L35.388683,31.172884" /><path fill="none" stroke="#000000" stroke-width="0.06mm" d="M35.52783,31.948456 C35.352974,31.887657 35.443356,31.944412 35.312973,31.711079 L35.312973,31.711079" /><path fill="none" stroke="#000000" stroke-width="0.06mm" d="M35.34162,32.58283 C35.155743,32.45357 35.250687,32.54556 35.1063,32.263596 L35.1063,32.263596" /><path fill="none" stroke="#000000" stroke-width="0.06mm" d="M35.11858,33.149673 C35.019173,33.11254 34.881004,33.077923 34.832176,32.966545 C34.828583,32.958347 34.82995,32.94869 34.830433,32.93975 C34.8347,32.86096 34.841095,32.782295 34.846428,32.703564 L34.846428,32.703564" /><path fill="none" stroke="#000000" stroke-width="0.06mm" d="M34.586555,33.636703 C34.43836,33.38682 34.473362,33.30638 34.51494,33.02689 L34.51494,33.02689" /><path fill="none" stroke="#000000" stroke-width="0.06mm" d="M34.050438,33.43616 C34.084488,33.036953 34.11666,33.02638 34.291897,32.646267 L34.291897,32.646267" /><path fill="none" stroke="#000000" stroke-width="0.06mm" d="M33.645283,33.282684 L33.862183,32.767002" /><path fill="none" stroke="#000000" stroke-width="0.06mm" d="M33.0089,33.20697 C33.2118,32.985527 33.271275,32.861282 33.399734,32.60534 L33.399734,32.60534" /><path fill="none" stroke="#000000" stroke-width="0.06mm" d="M32.873848,32.70561 C32.961475,32.531452 33.053776,32.36316 33.141907,32.189926 L33.141907,32.189926" /><path fill="none" stroke="#000000" stroke-width="0.06mm" d="M32.358196,32.609432 C32.651306,32.245895 32.548763,32.39674 32.691734,32.175602 L32.691734,32.175602" /><path fill="none" stroke="#000000" stroke-width="0.06mm" d="M32.063538,32.2902 C32.367832,31.904387 32.217636,32.08438 32.51166,31.747913 L32.51166,31.747913" /><path fill="none" stroke="#000000" stroke-width="0.06mm" d="M31.807755,31.99757 L32.14948,31.520767" /><path fill="none" stroke="#000000" stroke-width="0.06mm" d="M31.48854,31.774513 C31.775887,31.45458 31.637074,31.58792 31.893698,31.363197 L31.893698,31.363197" /><path fill="none" stroke="#000000" stroke-width="0.06mm" d="M35.908722,30.151684 C35.961273,30.16937 36.01268,30.190899 36.066372,30.204746 C36.17943,30.233908 36.311363,30.190136 36.41305,30.151262 C36.63141,30.067787 36.755535,29.916855 36.882736,29.72604 L36.882736,29.72604" /><path fill="none" stroke="#000000" stroke-width="0.06mm" d="M39.09882,27.084183 L39.11342,26.998512" /><path fill="none" stroke="#000000" stroke-width="0.06mm" d="M39.113144,26.97982 L39.19936,26.810246" /><path fill="none" stroke="#000000" stroke-width="0.06mm" d="M39.2175,26.69128 C39.15393,26.951073 39.168755,27.211435 39.23687,27.468044 C39.289993,27.668182 39.467537,27.780424 39.649178,27.848728 C39.701763,27.868504 39.76354,27.86768 39.809937,27.89936 C39.829643,27.912817 39.763,27.909067 39.739162,27.910175 C39.70166,27.91192 39.663902,27.911713 39.62655,27.90789 C39.573982,27.902512 39.513966,27.886751 39.467556,27.859623 C39.37268,27.804165 39.287468,27.727306 39.234753,27.629753 C39.160606,27.492535 39.080746,27.224625 39.089127,27.065338 C39.098606,26.885214 39.078957,26.584265 39.20463,26.400408 C39.26985,26.304996 39.427094,26.253012 39.49988,26.210386 L39.49988,26.210386" /><path fill="none" stroke="#000000" stroke-width="0.06mm" d="M39.178623,27.26017 C39.54443,26.989853 39.535904,26.99087 39.74543,26.652401 L39.74543,26.652401" /><path fill="none" stroke="#000000" stroke-width="0.06mm" d="M39.268658,26.85499 C39.528625,26.771524 39.698128,26.609451 39.902992,26.435486 L39.902992,26.435486" /><path fill="none" stroke="#000000" stroke-width="0.06mm" d="M39.40371,27.833153 C39.493053,27.643404 39.49336,27.60482 39.611954,27.461678 C39.61769,27.454754 39.62776,27.45301 39.636116,27.449684 C39.702297,27.423344 39.769016,27.398376 39.83547,27.372723 L39.83547,27.372723" /><path fill="none" stroke="#000000" stroke-width="0.06mm" d="M39.630844,27.792225 L40.027813,27.376814" /><path fill="none" stroke="#000000" stroke-width="0.06mm" d="M43.745842,25.142185 L44.298325,24.798397" /><path fill="none" stroke="#000000" stroke-width="0.06mm" d="M36.942078,29.717854 C37.196106,29.456562 37.45674,29.192886 37.748356,28.972574 C37.942474,28.82592 38.142452,28.686811 38.34664,28.554543 C38.408215,28.514656 38.481026,28.49477 38.544014,28.457165 C38.60836,28.418749 38.662674,28.364853 38.727463,28.32719 C38.80237,28.28365 38.889736,28.262745 38.96164,28.214405 C39.479725,27.866112 39.97567,27.485538 40.49491,27.138975 C40.96946,26.822245 41.467045,26.541012 41.942146,26.22511 C42.80839,25.64913 41.85513,26.185154 42.46413,25.857586 C42.589474,25.790165 42.71556,25.724058 42.83946,25.654015 C42.888996,25.626009 42.933956,25.5902 42.984238,25.563555 C43.019585,25.544823 43.140316,25.508533 43.17536,25.48729 C43.317772,25.400963 43.44986,25.298004 43.5942,25.214945 C43.759346,25.119911 43.937057,25.048 44.102623,24.953701 C44.838795,24.534412 44.1599,24.891754 44.81884,24.42096 C44.983463,24.30334 45.16735,24.214832 45.33475,24.101202 C45.641552,23.892942 45.93907,23.671328 46.24077,23.455746 C46.707848,23.121986 45.93815,23.659674 46.603577,23.221434 C46.651543,23.189846 46.691544,23.146868 46.740532,23.116894 C46.81161,23.073404 46.893158,23.048094 46.962475,23.001844 C47.091446,22.915794 47.188683,22.806488 47.279583,22.683168 C47.41779,22.495667 47.466248,22.185055 47.26824,22.021816 C47.22669,21.987558 47.170006,21.961147 47.115555,21.95826 C47.03691,21.95409 46.97686,21.96512 46.90011,21.989315 C46.34104,22.165537 46.663113,22.063633 46.27176,22.226927 C45.919792,22.373783 45.56118,22.505035 45.213448,22.661648 C45.020416,22.748589 44.83941,22.860111 44.651093,22.956854 C44.286766,23.144018 43.911716,23.31108 43.555553,23.513351 C43.436123,23.581177 43.33553,23.677927 43.228928,23.764526 C43.132553,23.842813 43.048508,23.950043 42.927666,23.996906 C42.504677,24.160936 42.39065,24.111692 42.008526,24.402414 C41.79965,24.56133 41.641792,24.781158 41.431282,24.937908 C39.545826,26.341846 41.06452,25.134243 39.991333,25.812813 C39.51793,26.11214 39.054527,26.427092 38.591312,26.741955 C38.38304,26.883526 38.186115,27.041386 37.977146,27.18193 C37.534344,27.479748 37.612377,27.331505 37.134975,27.756273 C36.963497,27.908844 36.820347,28.090645 36.658012,28.252907 C36.63686,28.274048 36.611607,28.291191 36.5854,28.3056 C36.426872,28.392746 36.207645,28.414944 36.05302,28.462715 C35.955837,28.49274 35.687252,28.674303 35.658985,28.689445 C35.571617,28.736248 35.433903,28.765 35.341915,28.788807 L35.341915,28.788807" /><path fill="none" stroke="#000000" stroke-width="0.06mm" d="M39.056423,26.663734 C39.003414,26.640974 38.94961,26.62619 38.897522,26.658663 C38.853428,26.686148 38.80252,26.775322 38.85806,26.817049 C38.886635,26.838516 38.952908,26.843292 38.97577,26.849392 C39.010906,26.85877 39.033073,26.875542 39.068344,26.867847 C39.09386,26.862284 39.119232,26.846167 39.13238,26.823189 C39.15432,26.78486 39.144127,26.730282 39.09883,26.716818 C39.042526,26.700083 38.987305,26.737165 38.938686,26.75793 L38.938686,26.75793" /><path fill="none" stroke="#000000" stroke-width="0.06mm" d="M38.888763,26.936901 C38.874294,26.958607 38.858585,26.97953 38.84536,27.002014 C38.817436,27.049479 38.836864,27.11819 38.886272,27.14241 C38.913242,27.15563 38.972527,27.16371 38.98711,27.166061 C39.004086,27.168797 39.0224,27.16839 39.03696,27.158253 C39.05149,27.148134 39.05716,27.132982 39.0633,27.117039 C39.093697,27.038067 39.13877,26.98744 39.044746,26.959675 C38.99647,26.945421 38.95501,26.9706 38.910427,26.987766 L38.910427,26.987766" /><path fill="none" stroke="#000000" stroke-width="0.06mm" d="M38.640102,26.844591 C38.657337,26.816404 38.67243,26.782833 38.70392,26.767565 C38.759743,26.740494 38.858845,26.749594 38.899025,26.801298 C38.918888,26.82686 38.923088,26.864166 38.925583,26.894394 C38.92837,26.928238 38.925762,26.961273 38.907516,26.99042 C38.868603,27.052597 38.789837,27.069904 38.72239,27.048069 C38.699436,27.040636 38.678314,27.029764 38.66806,27.007027 C38.650528,26.96814 38.671947,26.91761 38.678722,26.882267 L38.678722,26.882267" /><path fill="none" stroke="#000000" stroke-width="0.06mm" d="M39.04512,27.227022 C38.99561,27.26258 38.944603,27.296137 38.89659,27.333696 C38.88236,27.344831 38.83001,27.395002 38.85173,27.420275 C38.858738,27.428432 38.871445,27.431742 38.881176,27.43379 C38.95373,27.449072 39.00022,27.464443 39.069084,27.443901 C39.097965,27.435284 39.124306,27.418104 39.143333,27.394737 C39.179462,27.35036 39.153492,27.31969 39.109318,27.296728 C39.06826,27.275383 39.029655,27.286552 38.98578,27.29296 L38.98578,27.29296" /><path fill="none" stroke="#000000" stroke-width="0.06mm" d="M38.751247,27.183693 C38.700516,27.207384 38.66441,27.232983 38.633842,27.27845 C38.58046,27.357847 38.74582,27.414242 38.806767,27.37001 C38.848125,27.339994 38.916832,27.229755 38.84962,27.190252 C38.83182,27.17979 38.812084,27.17298 38.791176,27.174488 C38.753838,27.177185 38.726257,27.205572 38.69756,27.226082 L38.69756,27.226082" /><path fill="none" stroke="#000000" stroke-width="0.06mm" d="M38.829426,27.535984 C38.82075,27.588917 38.810642,27.641632 38.803402,27.69478 C38.800743,27.714285 38.82335,27.728333 38.83909,27.731659 C38.91063,27.746777 38.966568,27.711727 39.00933,27.655209 C39.02366,27.63627 39.035934,27.613346 39.03131,27.588888 C39.02533,27.557247 38.99103,27.523527 38.95827,27.52067 C38.928696,27.518091 38.89894,27.518406 38.869278,27.517155 C38.860886,27.5168 38.851715,27.519436 38.844116,27.515858 C38.811676,27.50058 38.782204,27.479666 38.751247,27.461569 L38.751247,27.461569" /><path fill="none" stroke="#000000" stroke-width="0.06mm" d="M39.1638,27.689522 C39.122814,27.73312 39.080833,27.775803 39.040844,27.820316 C39.03646,27.825193 39.03347,27.838692 39.033195,27.84496 C39.031628,27.880604 39.0641,27.911537 39.097214,27.918062 C39.139687,27.92643 39.188152,27.919718 39.224304,27.894882 C39.286766,27.851978 39.348793,27.780144 39.264565,27.72579 C39.25619,27.720387 39.226215,27.706125 39.215626,27.707962 C39.189945,27.712414 39.166004,27.723927 39.14119,27.731909 L39.14119,27.731909" /></g>
<g>
<line fill="none" stroke="#111111" stroke-width="0.05mm" x1="31.00" y1="20.00" x2="31.55" y2="24.46" />
<line fill="none" stroke="#5674b9" stroke-width="0.05mm" stroke-dasharray="0.4,0.2" opacity="0.16" x1="31.55" y1="24.46" x2="31.40" y2="23.95" />
<line fill="none" stroke="#00aeef" stroke-width="0.05mm" stroke-dasharray="0.4,0.2" opacity="0.16" x1="31.55" y1="24.46" x2="31.03" y2="24.76" />
<line fill="none" stroke="#00aeef" stroke-width="0.05mm" stroke-dasharray="0.4,0.2" opacity="0.95" x1="31.55" y1="24.46" x2="30.86" y2="24.29" />
<line fill="none" stroke="#00aeef" stroke-width="0.05mm" stroke-dasharray="0.4,0.2" opacity="0.58" x1="31.55" y1="24.46" x2="30.57" y2="25.10" />
<line fill="none" stroke="#00aeef" stroke-width="0.05mm" stroke-dasharray="0.4,0.2" opacity="0.56" x1="31.55" y1="24.46" x2="30.60" y2="25.80" />
<line fill="none" stroke="#00aeef" stroke-width="0.05mm" stroke-dasharray="0.4,0.2" opacity="0.63" x1="31.55" y1="24.46" x2="31.13" y2="26.08" />
<line fill="none" stroke="#00aeef" stroke-width="0.05mm" stroke-dasharray="0.4,0.2" opacity="0.59" x1="31.55" y1="24.46" x2="31.49" y2="25.31" />
<line fill="none" stroke="#00aeef" stroke-width="0.05mm" stroke-dasharray="0.4,0.2" opacity="0.58" x1="31.55" y1="24.46" x2="31.65" y2="24.81" />
<line fill="none" stroke="#5674b9" stroke-width="0.05mm" stroke-dasharray="0.4,0.2" opacity="0.94" x1="31.55" y1="24.46" x2="32.15" y2="22.72" />
<line fill="none" stroke="#5674b9" stroke-width="0.05mm" stroke-dasharray="0.4,0.2" opacity="0.98" x1="31.55" y1="24.46" x2="31.76" y2="23.50" />
<line fill="none" stroke="#5674b9" stroke-width="0.05mm" stroke-dasharray="0.4,0.2" opacity="0.99" x1="31.55" y1="24.46" x2="31.93" y2="22.71" />
<line fill="none" stroke="#111111" stroke-width="0.05mm" x1="31.55" y1="24.46" x2="29.56" y2="29.44" />
<line fill="none" stroke="#5674b9" stroke-width="0.05mm" stroke-dasharray="0.4,0.2" opacity="0.51" x1="29.56" y1="29.44" x2="30.52" y2="27.23" />
<line fill="none" stroke="#5674b9" stroke-width="0.05mm" stroke-dasharray="0.4,0.2" opacity="0.51" x1="29.56" y1="29.44" x2="29.87" y2="26.48" />
<line fill="none" stroke="#5674b9" stroke-width="0.05mm" stroke-dasharray="0.4,0.2" opacity="0.50" x1="29.56" y1="29.44" x2="31.74" y2="28.48" />
<line fill="none" stroke="#5674b9" stroke-width="0.05mm" stroke-dasharray="0.4,0.2" opacity="0.47" x1="29.56" y1="29.44" x2="31.16" y2="29.34" />
<line fill="none" stroke="#5674b9" stroke-width="0.05mm" stroke-dasharray="0.4,0.2" opacity="0.76" x1="29.56" y1="29.44" x2="30.61" y2="31.11" />
<line fill="none" stroke="#5674b9" stroke-width="0.05mm" stroke-dasharray="0.4,0.2" opacity="0.96" x1="29.56" y1="29.44" x2="28.22" y2="30.21" />
<line fill="none" stroke="#5674b9" stroke-width="0.05mm" stroke-dasharray="0.4,0.2" opacity="0.82" x1="29.56" y1="29.44" x2="26.78" y2="29.00" />
<line fill="none" stroke="#5674b9" stroke-width="0.05mm" stroke-dasharray="0.4,0.2" opacity="0.83" x1="29.56" y1="29.44" x2="24.84" y2="27.60" />
<line fill="none" stroke="#5674b9" stroke-width="0.05mm" stroke-dasharray="0.4,0.2" opacity="0.82" x1="29.56" y1="29.44" x2="24.99" y2="27.71" />
<line fill="none" stroke="#5674b9" stroke-width="0.05mm" stroke-dasharray="0.4,0.2" opacity="0.61" x1="29.56" y1="29.44" x2="28.25" y2="27.23" />
<line fill="none" stroke="#5674b9" stroke-width="0.05mm" stroke-dasharray="0.4,0.2" opacity="0.87" x1="29.56" y1="29.44" x2="32.99" y2="30.46" />
<line fill="none" stroke="#5674b9" stroke-width="0.05mm" stroke-dasharray="0.4,0.2" opacity="0.88" x1="29.56" y1="29.44" x2="33.05" y2="30.47" />
<line fill="none" stroke="#5674b9" stroke-width="0.05mm" stroke-dasharray="0.4,0.2" opacity="0.87" x1="29.56" y1="29.44" x2="33.07" y2="30.47" />
<line fill="none" stroke="#5674b9" stroke-width="0.05mm" stroke-dasharray="0.4,0.2" opacity="0.87" x1="29.56" y1="29.44" x2="32.97" y2="30.45" />
<line fill="none" stroke="#5674b9" stroke-width="0.05mm" stroke-dasharray="0.4,0.2" opacity="0.87" x1="29.56" y1="29.44" x2="33.04" y2="30.46" />
<line fill="none" stroke="#111111" stroke-width="0.05mm" x1="29.56" y1="29.44" x2="26.13" y2="28.43" />
<line fill="none" stroke="#5674b9" stroke-width="0.05mm" stroke-dasharray="0.4,0.2" opacity="0.84" x1="26.13" y1="28.43" x2="21.52" y2="26.76" />
<line fill="none" stroke="#5674b9" stroke-width="0.05mm" stroke-dasharray="0.4,0.2" opacity="0.79" x1="26.13" y1="28.43" x2="20.92" y2="24.51" />
<line fill="none" stroke="#5674b9" stroke-width="0.05mm" stroke-dasharray="0.4,0.2" opacity="0.72" x1="26.13" y1="28.43" x2="22.79" y2="23.39" />
<line fill="none" stroke="#5674b9" stroke-width="0.05mm" stroke-dasharray="0.4,0.2" opacity="0.66" x1="26.13" y1="28.43" x2="24.36" y2="22.69" />
<line fill="none" stroke="#5674b9" stroke-width="0.05mm" stroke-dasharray="0.4,0.2" opacity="0.46" x1="26.13" y1="28.43" x2="25.75" y2="24.62" />
<line fill="none" stroke="#5674b9" stroke-width="0.05mm" stroke-dasharray="0.4,0.2" opacity="0.60" x1="26.13" y1="28.43" x2="28.79" y2="23.82" />
<line fill="none" stroke="#5674b9" stroke-width="0.05mm" stroke-dasharray="0.4,0.2" opacity="0.58" x1="26.13" y1="28.43" x2="27.65" y2="23.98" />
<line fill="none" stroke="#5674b9" stroke-width="0.05mm" stroke-dasharray="0.4,0.2" opacity="0.49" x1="26.13" y1="28.43" x2="26.16" y2="24.39" />
<line fill="none" stroke="#5674b9" stroke-width="0.05mm" stroke-dasharray="0.4,0.2" opacity="0.35" x1="26.13" y1="28.43" x2="24.84" y2="25.41" />
<line fill="none" stroke="#5674b9" stroke-width="0.05mm" stroke-dasharray="0.4,0.2" opacity="0.26" x1="26.13" y1="28.43" x2="25.34" y2="26.57" />
<line fill="none" stroke="#5674b9" stroke-width="0.05mm" stroke-dasharray="0.4,0.2" opacity="0.24" x1="26.13" y1="28.43" x2="26.34" y2="26.77" />
<line fill="none" stroke="#5674b9" stroke-width="0.05mm" stroke-dasharray="0.4,0.2" opacity="0.33" x1="26.13" y1="28.43" x2="26.99" y2="26.28" />
<line fill="none" stroke="#5674b9" stroke-width="0.05mm" stroke-dasharray="0.4,0.2" opacity="0.45" x1="26.13" y1="28.43" x2="27.80" y2="25.72" />
<line fill="none" stroke="#00aeef" stroke-width="0.05mm" stroke-dasharray="0.4,0.2" opacity="0.20" x1="26.13" y1="28.43" x2="25.00" y2="26.60" />
<line fill="none" stroke="#5674b9" stroke-width="0.05mm" stroke-dasharray="0.4,0.2" opacity="0.11" x1="26.13" y1="28.43" x2="25.58" y2="27.96" />
<line fill="none" stroke="#5674b9" stroke-width="0.05mm" stroke-dasharray="0.4,0.2" opacity="0.29" x1="26.13" y1="28.43" x2="32.14" y2="29.00" />
<line fill="none" stroke="#111111" stroke-width="0.05mm" x1="26.13" y1="28.43" x2="31.26" y2="20.81" />
<line fill="none" stroke="#111111" stroke-width="0.05mm" x1="29.56" y1="29.44" x2="35.64" y2="30.06" />
<line fill="none" stroke="#5674b9" stroke-width="0.05mm" stroke-dasharray="0.4,0.2" opacity="0.45" x1="35.64" y1="30.06" x2="45.84" y2="22.89" />
<line fill="none" stroke="#5674b9" stroke-width="0.05mm" stroke-dasharray="0.4,0.2" opacity="0.45" x1="35.64" y1="30.06" x2="47.35" y2="21.92" />
<line fill="none" stroke="#5674b9" stroke-width="0.05mm" stroke-dasharray="0.4,0.2" opacity="0.44" x1="35.64" y1="30.06" x2="47.32" y2="21.95" />
<line fill="none" stroke="#5674b9" stroke-width="0.05mm" stroke-dasharray="0.4,0.2" opacity="0.45" x1="35.64" y1="30.06" x2="38.86" y2="27.81" />
<line fill="none" stroke="#5674b9" stroke-width="0.05mm" stroke-dasharray="0.4,0.2" opacity="0.45" x1="35.64" y1="30.06" x2="47.33" y2="21.91" />
<line fill="none" stroke="#5674b9" stroke-width="0.05mm" stroke-dasharray="0.4,0.2" opacity="0.45" x1="35.64" y1="30.06" x2="47.23" y2="21.98" />
<line fill="none" stroke="#5674b9" stroke-width="0.05mm" stroke-dasharray="0.4,0.2" opacity="1.00" x1="35.64" y1="30.06" x2="35.03" y2="28.95" />
<line fill="none" stroke="#00aeef" stroke-width="0.05mm" stroke-dasharray="0.4,0.2" opacity="0.95" x1="35.64" y1="30.06" x2="31.25" y2="31.38" />
<line fill="none" stroke="#00aeef" stroke-width="0.05mm" stroke-dasharray="0.4,0.2" opacity="0.86" x1="35.64" y1="30.06" x2="34.25" y2="33.67" />
<line fill="none" stroke="#00aeef" stroke-width="0.05mm" stroke-dasharray="0.4,0.2" opacity="0.71" x1="35.64" y1="30.06" x2="35.76" y2="30.88" />
<line fill="none" stroke="#111111" stroke-width="0.05mm" x1="35.64" y1="30.06" x2="47.23" y2="21.94" />
</g>
<g>
<circle cx="31.00" cy="20.00" r="0.1" fill="#111111" />
<circle cx="31.55" cy="24.46" r="0.1" fill="#111111" />
<circle cx="29.56" cy="29.44" r="0.1" fill="#111111" />
<circle cx="26.13" cy="28.43" r="0.1" fill="#111111" />
<circle cx="31.26" cy="20.81" r="0.1" fill="#111111" />
<circle cx="35.64" cy="30.06" r="0.1" fill="#111111" />
<circle cx="47.23" cy="21.94" r="0.1" fill="#111111" />
</g>
<g>
<text x="31.20" y="20.00" font-size=".2mm" fill="#000000">13</text>
<text x="31.75" y="24.46" font-size=".2mm" fill="#000000">13.101</text>
<text x="29.76" y="29.44" font-size=".2mm" fill="#000000">13.102</text>
<text x="26.33" y="28.43" font-size=".2mm" fill="#000000">13.102.1</text>
<text x="31.46" y="20.81" font-size=".2mm" fill="#000000">13.666</text>
<text x="35.84" y="30.06" font-size=".2mm" fill="#000000">13.103</text>
<text x="47.43" y="21.94" font-size=".2mm" fill="#000000">13.104</text>
</g>
<g>
</g>
</g>
</svg>