<?xml version="1.0" encoding="utf-8"?>
<!DOCTYPE svg PUBLIC "-//W3C//DTD SVG 1.1//EN" "http://www.w3.org/Graphics/SVG/1.1/DTD/svg11.dtd">
<svg version="1.1" id="Layer_1" xmlns="http://www.w3.org/2000/svg" xmlns:xlink="http://www.w3.org/1999/xlink" x="0px" y="0px" width="190mm" height="222mm" viewBox="0 0 190 222" enable-background="new 0 0 190 222" xml:space="preserve">
<symbol id="airflow" viewBox="-12 -12 24 24">
<path d="M-4.38,10.73l4.2-3.84V3.55L-4.07,7.13l-.31-.29L-.18,3V-6.89a3.37,3.37,0,0,0-1.68.53l1.68-4.15L0-11l.21.51h0v0l1.65,4.1A3.26,3.26,0,0,0,.24-6.89v14l-.08,0L-4.07,11Z"/>
<rect fill="none" x="-12" y="-12" width="24" height="24"/>
</symbol>
<symbol id="anastomosis" viewBox="-12 -12 24 24">
<path d="M2.23-4.78l.37.24L5.22-2.78l-.47.57L2.49-3.7l-4.61,8-.24.44-.37-.34L-5.22,2.3l.55-.52,2.1,1.82L2-4.39Z"/>
<rect fill="none" x="-12" y="-12" width="24" height="24"/>
</symbol>
<symbol id="bivouac" viewBox="-12 -12 24 24">
<path d="M.25-7.66l.24.58L.54-7l3.88.48-3.31.91L6,6H8.35v.48l-16.7.07V6.05h2.64L0-7.08Zm0,1.32L-5.13,6H-4l2.07-5L.2-4l2.09,5L4.37,6H5.44Z"/>
<rect fill="none" x="-12" y="-12" width="24" height="24"/>
</symbol>
<symbol id="bones" viewBox="-12 -12 24 24">
<path d="M2.44,4.27l-.16,0H2.13a.22.22,0,0,1-.11,0l-.1-.06a.39.39,0,0,1-.09-.11l-.08-.13a1.51,1.51,0,0,1-.06-.15l-.07-.17s0-.11-.08-.19-.06-.16-.08-.21a4.75,4.75,0,0,0-.38-.71c-.18-.29-.43-.64-.74-1A11.15,11.15,0,0,0-.7.32,6.73,6.73,0,0,0-2-.64a4.12,4.12,0,0,0-1.44-.52A1.64,1.64,0,0,1-5-2.19.72.72,0,0,1-5-2.44a1,1,0,0,1,0-.29A.52.52,0,0,1-4.87-3a.54.54,0,0,1,.35-.15L-4-3.22l.46,0a.54.54,0,0,0,.27-.06A.52.52,0,0,0-3-3.56a.74.74,0,0,0,.13-.31.54.54,0,0,1,.15-.26.54.54,0,0,1,.3-.15.83.83,0,0,1,.47,0,1.11,1.11,0,0,1,.35.4A7.46,7.46,0,0,1-1-2.76q.18.42.33.72a3.22,3.22,0,0,0,.39.57L.1-1a4.77,4.77,0,0,0,.58.43c.28.18.51.33.69.43l1,.56a1.84,1.84,0,0,0,.39.23A5.29,5.29,0,0,1,3.22.9l.43.26a3.7,3.7,0,0,1,.46.3l.36.29a2.28,2.28,0,0,1,.31.32A1,1,0,0,1,5,2.4c.2.48,0,.78-.47.91h0a8.48,8.48,0,0,0-1.12.09,1,1,0,0,0-.42.44A1,1,0,0,1,2.44,4.27Z"/>
<rect fill="none" x="-12" y="-12" width="24" height="24"/>
</symbol>
<symbol id="calcite" viewBox="-12 -12 24 24">
<path d="M2.36-2.22l.05.46.34,3.91L2,2.22,1.65-1.26-2.52-.06l-.23-.7L1.89-2.08Z"/>
<rect fill="none" x="-12" y="-12" width="24" height="24"/>
</symbol>
<symbol id="cauliflower" viewBox="-12 -12 24 24">
<path d="M5.58,3.22v-3A2.12,2.12,0,0,0,6.92-.43a1.78,1.78,0,0,0,.55-1.32,1.92,1.92,0,0,0-.65-1.42,2.19,2.19,0,0,0-1.53-.59,2.21,2.21,0,0,0-1.54.59,1.78,1.78,0,0,0-.64,1.42A1.86,1.86,0,0,0,3.65-.43,2.12,2.12,0,0,0,5,.23v3H.26v-3A2.17,2.17,0,0,0,1.61-.43a1.81,1.81,0,0,0,.54-1.32,1.91,1.91,0,0,0-.64-1.42A2.21,2.21,0,0,0,0-3.76a2.21,2.21,0,0,0-1.54.59,1.82,1.82,0,0,0-.64,1.42A1.83,1.83,0,0,0-1.66-.43,2.12,2.12,0,0,0-.32.23v3H-5v-3A2.12,2.12,0,0,0-3.71-.43a1.78,1.78,0,0,0,.55-1.32,1.92,1.92,0,0,0-.65-1.42,2.19,2.19,0,0,0-1.53-.59,2.21,2.21,0,0,0-1.54.59,1.83,1.83,0,0,0-.65,1.42A1.87,1.87,0,0,0-7-.43,2.12,2.12,0,0,0-5.64.23v3H-8v.54H8V3.22Z"/>
<rect fill="none" x="-12" y="-12" width="24" height="24"/>
</symbol>
<symbol id="clay" viewBox="-12 -12 24 24">
<path d="M1.85-1.33a3,3,0,0,1,1.67.48,3.23,3.23,0,0,1,1,1l.29.51-1,.43a3.81,3.81,0,0,0-.23-.4A3.74,3.74,0,0,0,2.93,0,1.77,1.77,0,0,0,1.85-.32a2.57,2.57,0,0,0-1.1.15A.86.86,0,0,0,.51.14,2.23,2.23,0,0,1,0,.88a2.55,2.55,0,0,1-1.45.43,3.16,3.16,0,0,1-2.75-1,4.28,4.28,0,0,1-.37-.57,3.91,3.91,0,0,1-.21-.47l0-.16,1-.22a1.87,1.87,0,0,0,.45.79A2.12,2.12,0,0,0-1.51.33,1.82,1.82,0,0,0-.69.14l.21-.36A1.53,1.53,0,0,1,.17-1,3.76,3.76,0,0,1,1.85-1.33Z"/>
<rect fill="none" x="-12" y="-12" width="24" height="24"/>
</symbol>
<symbol id="crystals" viewBox="-12 -12 24 24">
<path d="M-2.94-5.38,0-.72,2.94-5.38,3.62-5,.68-.36H6.56V.36H.68L3.62,5l-.68.36L0,.72-2.94,5.38-3.62,5-.68.36H-6.56V-.36H-.68L-3.62-5Z"/>
<rect fill="none" x="-12" y="-12" width="24" height="24"/>
</symbol>
<symbol id="curtain" viewBox="-12 -12 24 24">
<path d="M3.57-6.69l.52.53L.39-3V-.33L.1-.26a3.79,3.79,0,0,0-1,.41c-.58.3-.87.65-.87,1v.07A1.61,1.61,0,0,0-.84,2.48a3.69,3.69,0,0,0,.45.24L0,2.86l.13.05L.39,3V6.12H-.39V3.51a7.65,7.65,0,0,1-.9-.46A2.19,2.19,0,0,1-2.54,1.28V1.23A2,2,0,0,1-1.31-.48,5.32,5.32,0,0,1-.39-.86V-3l-3.7-3.14.52-.53L0-3.67Z"/>
<rect fill="none" x="-12" y="-12" width="24" height="24"/>
</symbol>
<symbol id="disk" viewBox="-12 -12 24 24">
<path d="M-.09-4.19a2.43,2.43,0,0,1,1.7.64A2,2,0,0,1,2.35-2,2.09,2.09,0,0,1,1.81-.55,2.44,2.44,0,0,1,.35.23l2.18,3.6-.68.33L0,1.14-1.48,4.19l-.71-.29L-.41.25A2.53,2.53,0,0,1-1.9-.47a2,2,0,0,1-.63-1.41,2,2,0,0,1,.67-1.61,2.46,2.46,0,0,1,1.72-.7ZM1.05-3.06.56-3.49l-.69,0A1.72,1.72,0,0,0-1.29-3a1.51,1.51,0,0,0-.45,1.08,1.36,1.36,0,0,0,.51,1A1.68,1.68,0,0,0-.07-.44v0l0,0A1.7,1.7,0,0,0,1.11-.92,1.36,1.36,0,0,0,1.56-2,1.47,1.47,0,0,0,1.05-3.06Z"/>
<rect fill="none" x="-12" y="-12" width="24" height="24"/>
</symbol>
<symbol id="entrance" viewBox="-12 -12 24 24">
<path d="M4.46,9H-4.46L0-9Z"/>
<rect fill="none" x="-12" y="-12" width="24" height="24"/>
</symbol>
<symbol id="flowstone" viewBox="-12 -12 24 24">
<rect x="-6" y="-0.21" width="12" height="0.42"/>
<rect fill="none" x="-12" y="-12" width="24" height="24"/>
</symbol>
<symbol id="flutes" viewBox="-12 -12 24 24">
<path d="M-7-1H7v.72H3.87A4.7,4.7,0,0,1,2.16,1.5,4.2,4.2,0,0,1,0,2.13,3.94,3.94,0,0,1-2.19,1.5,4.18,4.18,0,0,1-3.76-.27H-7Zm4.17.72A3.15,3.15,0,0,0-1.65,1,3.21,3.21,0,0,0,0,1.41,3.49,3.49,0,0,0,1.6,1,3.68,3.68,0,0,0,3-.27Z"/>
<rect fill="none" x="-12" y="-12" width="24" height="24"/>
</symbol>
<symbol id="gradient" viewBox="-12 -12 24 24">
<path d="M2.58-3.83,0-10-2.58-3.83A4.74,4.74,0,0,1-.17-4.5V10H.25V-4.5A6.65,6.65,0,0,1,2.58-3.83Z"/>
<rect fill="none" x="-12" y="-12" width="24" height="24"/>
</symbol>
<symbol id="guano" viewBox="-12 -12 24 24">
<path d="M-3.24-3a2.15,2.15,0,0,1,1.57.55A3.93,3.93,0,0,1-.59.24a4.32,4.32,0,0,1,2.75-2.3,2.68,2.68,0,0,1,2.23.36A2.36,2.36,0,0,1,5.5.19l-.79,0a1.72,1.72,0,0,0-.79-1.37,1.94,1.94,0,0,0-1.55-.24A3.53,3.53,0,0,0,.48,0,6.63,6.63,0,0,0-.69,3l-.79-.09a10.72,10.72,0,0,0,0-3.16A3.21,3.21,0,0,0-2.22-2,1.44,1.44,0,0,0-3.37-2.3,3.45,3.45,0,0,0-5-1.54l-.5-.55a4.29,4.29,0,0,1,2-.91A.9.9,0,0,1-3.24-3Z"/>
<rect fill="none" x="-12" y="-12" width="24" height="24"/>
</symbol>
<symbol id="helictites" viewBox="-12 -12 24 24">
<path d="M-4.59-7.92h.79v7.7l3.41,0V-7.92H.39V-.17L4.2-.12h.39v8H3.8V.6L.39.55V7.92H-.39V.55L-4.2.5l-.39,0v-8.4Z"/>
<rect fill="none" x="-12" y="-12" width="24" height="24"/>
</symbol>
<symbol id="human" viewBox="-12 -12 24 24">
<path d="M-3.59-3.29A5.13,5.13,0,0,1,0-4.66,5.13,5.13,0,0,1,3.59-3.29,4.3,4.3,0,0,1,5.09,0a4.3,4.3,0,0,1-1.5,3.29A5.13,5.13,0,0,1,0,4.66,5.13,5.13,0,0,1-3.59,3.29,4.3,4.3,0,0,1-5.09,0,4.3,4.3,0,0,1-3.59-3.29Zm.28.77A3.68,3.68,0,0,0-4.3,0a3.62,3.62,0,0,0,1,2.57L-.5.05ZM0-3.94A4.42,4.42,0,0,0-2.75-3L.16-.36H4.28A3.62,3.62,0,0,0,2.91-2.9,4.38,4.38,0,0,0,0-3.94ZM.16.46-2.7,3.07A4.42,4.42,0,0,0,0,3.94a4.37,4.37,0,0,0,2.87-1A3.78,3.78,0,0,0,4.28.46Z"/>
<rect fill="none" x="-12" y="-12" width="24" height="24"/>
</symbol>
<symbol id="karren" viewBox="-12 -12 24 24">
<path d="M1-5.84h0a1.37,1.37,0,0,1,1.06.68A3.33,3.33,0,0,1,2.5-3.79,25.79,25.79,0,0,1,2.36,0a18.61,18.61,0,0,0-.08,3.72,2.68,2.68,0,0,0,.41,1.2,1.13,1.13,0,0,0,.79.5A.92.92,0,0,0,4,4.94a4.43,4.43,0,0,0,.47-1.22c.16-.64.36-1.86.59-3.66a26.71,26.71,0,0,1,.64-3.69,4.62,4.62,0,0,1,.57-1.29,1.34,1.34,0,0,1,1-.59h0A1.28,1.28,0,0,1,8.37-5a2.17,2.17,0,0,1,.39,1.15A19.91,19.91,0,0,1,8.54-.53a21.51,21.51,0,0,0-.2,3.64A2.64,2.64,0,0,0,9.45,5.36,1.91,1.91,0,0,0,10.88,5a3.84,3.84,0,0,0,.7-1l.42.2-.1.18-.12.21-.11.18L11.52,5a.94.94,0,0,1-.14.16c-.06.07-.13.12-.19.18a2.5,2.5,0,0,1-1.85.41H9.29l0,0A3.06,3.06,0,0,1,7.87,3.13a22.11,22.11,0,0,1,.2-3.7,18.17,18.17,0,0,0,.22-3.28A1.85,1.85,0,0,0,8-4.79a.77.77,0,0,0-.67-.3.93.93,0,0,0-.64.42,4.51,4.51,0,0,0-.51,1.15A26.26,26.26,0,0,0,5.54.1c-.24,1.83-.45,3.07-.61,3.72a5.38,5.38,0,0,1-.51,1.34,1.33,1.33,0,0,1-.89.68H3.47A1.58,1.58,0,0,1,2.3,5.16a3.29,3.29,0,0,1-.49-1.4A20.27,20.27,0,0,1,1.89,0,23.45,23.45,0,0,0,2-3.75a2.94,2.94,0,0,0-.32-1.19A.93.93,0,0,0,1-5.42,1.1,1.1,0,0,0,.19-5,3.69,3.69,0,0,0-.43-3.76,20.78,20.78,0,0,0-1.07.07c-.2,2-.37,3.32-.49,3.86A4.48,4.48,0,0,1-2,5.26,1.06,1.06,0,0,1-3,5.81h0a1.9,1.9,0,0,1-1.29-.67,2.7,2.7,0,0,1-.58-1.31,14.92,14.92,0,0,1,0-3.6q0-.12.06-.54c0-.28,0-.47,0-.57s0-.28,0-.52,0-.42,0-.55,0-.28,0-.47,0-.36,0-.51,0-.29,0-.43A3.09,3.09,0,0,0-5-4.62a1.19,1.19,0,0,0-.67-.6,1.5,1.5,0,0,0-1.2.9A7,7,0,0,0-7.41-2.1c0,.39-.1,1-.14,1.76s-.11,1.47-.18,2.08A9.61,9.61,0,0,1-8,3.32h0l0,0A2.81,2.81,0,0,1-9.2,4.62a1.82,1.82,0,0,1-1.35.15A1.94,1.94,0,0,1-11.61,4,2.39,2.39,0,0,1-12,2.56l.47,0a1.92,1.92,0,0,0,.31,1.16,1.47,1.47,0,0,0,.81.62,1.3,1.3,0,0,0,1-.11A2.32,2.32,0,0,0-8.5,3.18a7.53,7.53,0,0,0,.29-1.5Q-8.1.8-8-.36c0-.78.1-1.37.16-1.78A7.23,7.23,0,0,1-7.28-4.5,1.93,1.93,0,0,1-5.65-5.66h.05l0,0a1.59,1.59,0,0,1,1,.84,3.47,3.47,0,0,1,.34,1.41,4.91,4.91,0,0,1,0,.57v.54c0,.15,0,.37,0,.66s0,.47,0,.58,0,.33-.06.68,0,.56-.06.63a14.78,14.78,0,0,0,0,3.49,2.58,2.58,0,0,0,.5,1.13,1.57,1.57,0,0,0,1,.5A.61.61,0,0,0-2.44,5,3.89,3.89,0,0,0-2,3.85C-1.9,3.31-1.74,2-1.53,0A20.65,20.65,0,0,1-.86-3.89,3.89,3.89,0,0,1-.18-5.26,1.58,1.58,0,0,1,1-5.84Z"/>
<rect fill="none" x="-12" y="-12" width="24" height="24"/>
</symbol>
<symbol id="moonmilk" viewBox="-12 -12 24 24">
<path d="M-4.78-3.06a3.39,3.39,0,0,1,1.5.34,2.48,2.48,0,0,1,1.1,1,3.74,3.74,0,0,1,1.62-.8,3.52,3.52,0,0,1,1.71,0,2.9,2.9,0,0,1,1.39.77A2.49,2.49,0,0,1,3.25-.37,4,4,0,0,1,5-.76a3.58,3.58,0,0,1,1.6.36A2.84,2.84,0,0,1,7.88.92a2.32,2.32,0,0,1,0,1.88.34.34,0,0,1-.37.26A.36.36,0,0,1,7.25,3a.32.32,0,0,1-.12-.25.21.21,0,0,1,0-.12,2,2,0,0,0,0-1.43,2,2,0,0,0-1-.9A2.81,2.81,0,0,0,4.68,0,2.78,2.78,0,0,0,3.12.56L2.46.25A1.7,1.7,0,0,0,2.15-1.1,2.15,2.15,0,0,0,1-1.81a2.85,2.85,0,0,0-1.58.06A3,3,0,0,0-2-.83l-.71-.12A1.74,1.74,0,0,0-3.55-2a2.36,2.36,0,0,0-1.39-.27,3.08,3.08,0,0,0-1.45.53A2.33,2.33,0,0,0-7.32-.56a.35.35,0,0,1-.37.24A.39.39,0,0,1-8-.42a.33.33,0,0,1-.1-.26v-.1A3,3,0,0,1-6.89-2.35,4,4,0,0,1-5-3Z"/>
<rect fill="none" x="-12" y="-12" width="24" height="24"/>
</symbol>
<symbol id="narrow" viewBox="-12 -12 24 24">
<path d="M-1.5,5V-5h0.64V5H-1.5z"/>
<path d="M0.86,5V-5H1.5V5H0.86z"/>
<rect fill="none" x="-12" y="-12" width="24" height="24"/>
</symbol>
<symbol id="paleoflow" viewBox="-12 -12 24 24">
<path d="M.38-12V.17A1.9,1.9,0,0,0,1,0,1.57,1.57,0,0,0,1.7-.72a1.86,1.86,0,0,0,.23-1c0-.09,0-.14.08-.16a.92.92,0,0,1,.24,0,.52.52,0,0,0,.25,0h.08A2.48,2.48,0,0,1,2,0,2.5,2.5,0,0,1,.38.77V7.21H2.09L0,12-1.8,7.23c.07,0,.59,0,1.53,0V.77A3,3,0,0,1-1.35.43a2.16,2.16,0,0,1-1-1,2.38,2.38,0,0,1-.24-1.33l.67,0a2,2,0,0,0,.15,1,1.73,1.73,0,0,0,.59.67A2.14,2.14,0,0,0-.27.16V-12Z"/>
<rect fill="none" x="-12" y="-12" width="24" height="24"/>
</symbol>
<symbol id="rain" viewBox="-12 -12 24 24">
<path d="M-4.14-6.34h0.71v4.69h-0.71V-6.34z"/>
<path d="M-0.35-6.34h0.71v4.69h-0.71V-6.34z"/>
<path d="M3.43-6.34h0.71v4.69H3.43V-6.34z"/>
<path d="M-4.14,1.65h0.71v4.69h-0.71V1.65z"/>
<path d="M-0.35,1.65h0.71v4.69h-0.71V1.65z"/>
<path d="M3.43,1.65h0.71v4.69H3.43V1.65z"/>
<rect fill="none" x="-12" y="-12" width="24" height="24"/>
</symbol>
<symbol id="rats" viewBox="-12 -12 24 24">
<path d="M8.78-2.32,7-2.27c-.51-.17-.65-.56-1.46-.45l-.25.45C3.59-2.75,2.59-3.66.56-3.62l-1.35.3A4.89,4.89,0,0,0-4.24,1.57c-.68.6-2.58.86-3.39.94a6.84,6.84,0,0,0-1.62.39,4.91,4.91,0,0,0-1,.52A1.75,1.75,0,0,0-11,4.61a1.16,1.16,0,0,0,.59,1.48,1.3,1.3,0,0,1,.14.12c.16-.52-.35-.92-.2-1.42a3.35,3.35,0,0,1,.27-.45,3.18,3.18,0,0,1,1.79-1c.63-.12,1.27-.22,1.91-.3.48-.07,1,0,1.4-.12A6.94,6.94,0,0,1-4,2.82,30.64,30.64,0,0,0,.41,2.69l2.16.15c.1-.09,0,0,.1-.15a.87.87,0,0,0-.9-.55c.86-1,2.27-.37,3.1-.05.5.19,1,0,1.25.4.11-.1.1-.07.15-.25.3,0,.31.07.6.15-.06-.49-.34-.64-1-.6a.78.78,0,0,1,0-.55C6.3.56,7.29.73,8.13.43a13.78,13.78,0,0,0,2.15-.9l.6-.85v-.2A16.9,16.9,0,0,0,8.78-2.32Z"/>
<rect fill="none" x="-12" y="-12" width="24" height="24"/>
</symbol>
<symbol id="sand" viewBox="-12 -12 24 24">
<path d="M-1.58,0.83c0.23,0.2,0.35,0.44,0.36,0.73c0.01,0.29-0.08,0.54-0.28,0.75c-0.2,0.21-0.46,0.32-0.78,0.33c-0.32,0.01-0.6-0.08-0.83-0.26C-3.36,2.19-3.49,1.95-3.5,1.67C-3.51,1.38-3.41,1.12-3.2,0.9c0.21-0.22,0.48-0.34,0.8-0.35C-2.08,0.54-1.81,0.64-1.58,0.83z"/>
<path d="M0.08-2.36c0.23,0.2,0.35,0.44,0.36,0.73c0.01,0.29-0.08,0.54-0.28,0.75c-0.2,0.21-0.46,0.32-0.78,0.33c-0.32,0.01-0.59-0.07-0.83-0.26s-0.37-0.42-0.38-0.71c-0.01-0.29,0.09-0.54,0.3-0.76c0.21-0.22,0.48-0.33,0.8-0.35C-0.42-2.65-0.14-2.56,0.08-2.36z"/>
<path d="M3.12,0.55c0.23,0.2,0.35,0.43,0.38,0.71c0.02,0.28-0.07,0.53-0.28,0.75C3,2.23,2.73,2.35,2.42,2.36C2.1,2.37,1.82,2.28,1.58,2.08C1.34,1.88,1.22,1.64,1.2,1.35c-0.01-0.29,0.09-0.54,0.3-0.75C1.72,0.4,1.99,0.29,2.3,0.28S2.89,0.36,3.12,0.55z"/>
<rect fill="none" x="-12" y="-12" width="24" height="24"/>
</symbol>
<symbol  id="scallops" viewBox="-12 -12 24 24">
<path d="M.05-3.74l.21,0A2.35,2.35,0,0,1,1.74-3a2,2,0,0,1,.59,1.55v0l0,0A9.59,9.59,0,0,1-.08,3.27l-.39.47-.27-.55A14.26,14.26,0,0,1-2.33-1.89v-.05l0-.05A2,2,0,0,1-1.44-3.3,2.42,2.42,0,0,1,.05-3.74ZM-.11-3A1.44,1.44,0,0,0-1.55-1.89,13.06,13.06,0,0,0-.29,2.33,8.6,8.6,0,0,0,1.55-1.54a1.41,1.41,0,0,0-.38-1A1.62,1.62,0,0,0,.18-3Z"/>
<rect fill="none" x="-12" y="-12" width="24" height="24"/>
</symbol>
<symbol  id="sink" viewBox="-12 -12 24 24">
<path d="M.72,9.41H.9c1.94,0,3.26-.54,3.94-1.51a3.61,3.61,0,0,0,.33-.69,2,2,0,0,0,.11-.54V6.46l.69,0a2.8,2.8,0,0,1-.58,1.78C4.58,9.39,3.1,10,.93,10H-.93q-3.25,0-4.46-1.8a2.74,2.74,0,0,1-.43-.83A2.37,2.37,0,0,1-6,6.67V6.43l.68,0A2.27,2.27,0,0,0-4.84,7.9c.68,1,2,1.47,3.93,1.48l.5,0ZM-1.46-10a.68.68,0,0,0,.16.41A2.77,2.77,0,0,0-.51-9l0,0a3.63,3.63,0,0,1,1,.7,1.15,1.15,0,0,1,.34.88c0,.58-.53,1.14-1.49,1.68-.68.42-1,.79-1,1.11s.3.61.84,1h0Q.61-2.86.46-1.78a3.51,3.51,0,0,1-1.55,2,.61.61,0,0,0-.26.41,1.67,1.67,0,0,0,.1.51,5.3,5.3,0,0,1,.32,1L.56,1.9.46,8.06-3.4,2.54l1.73-.28A6.16,6.16,0,0,0-2,1.39,1.7,1.7,0,0,1-2.09.58a1.21,1.21,0,0,1,.53-.82h0v0C-.75-.86-.33-1.38-.28-1.85s-.23-.87-.91-1.27h0C-2-3.6-2.37-4.1-2.4-4.61S-2-5.74-1.09-6.29C-.34-6.72.06-7.1.09-7.44a.67.67,0,0,0-.18-.43,3.17,3.17,0,0,0-.79-.58,2.93,2.93,0,0,1-1-.67A1.16,1.16,0,0,1-2.17-10Z"/>
<rect fill="none" x="-12" y="-12" width="24" height="24"/>
</symbol>
<symbol  id="spring" viewBox="-12 -12 24 24">
<path d="M-1.34-9.86,2.52-4.34.78-4.06a8,8,0,0,0,.29.87,1.4,1.4,0,0,1,.13.79,1.3,1.3,0,0,1-.52.84l0,0v0C-.13-.95-.55-.42-.61,0S-.37.91.31,1.3l0,0c.75.46,1.14,1,1.18,1.46S1.12,3.92.21,4.46C-.54,4.9-.94,5.29-1,5.64a.74.74,0,0,0,.18.43A3.2,3.2,0,0,0,0,6.62a3,3,0,0,1,1,.7,1.14,1.14,0,0,1,.31.86A1.74,1.74,0,0,1,.71,9.26H.92c1.92,0,3.22-.52,3.9-1.51a2.05,2.05,0,0,0,.35-.67,2.59,2.59,0,0,0,.1-.55l0-.19.65,0a2.84,2.84,0,0,1-.55,1.8C4.58,9.26,3.08,9.85.92,9.86H-.92c-2.17,0-3.66-.6-4.49-1.77a3.65,3.65,0,0,1-.4-.85A2.43,2.43,0,0,1-6,6.53V6.29l.66,0a2.08,2.08,0,0,0,.47,1.41c.68,1,2,1.5,3.91,1.51H-.4c.62-.43.94-.8,1-1.1a.76.76,0,0,0-.16-.43,3.25,3.25,0,0,0-.79-.51v0a3.8,3.8,0,0,1-1-.7,1.15,1.15,0,0,1-.34-.91q.06-.84,1.5-1.68c.68-.4,1-.77,1-1.1S.49,2.21,0,1.87c0,0,0,0,0,0C-1,1.32-1.44.69-1.34,0a3.58,3.58,0,0,1,1.55-2,.54.54,0,0,0,.23-.38A1.28,1.28,0,0,0,.37-3a4.57,4.57,0,0,1-.32-1l-1.49.24Z"/>
<rect fill="none" x="-12" y="-12" width="24" height="24"/>
</symbol>
<symbol  id="stalactite" viewBox="-12 -12 24 24">
<path d="M3.57-6.69l.52.53L.39-3V6.12H-.39V-3l-3.7-3.14.52-.53L0-3.67Z"/>
<rect fill="none" x="-12" y="-12" width="24" height="24"/>
</symbol>
<symbol  id="stalagmite" viewBox="-12 -12 24 24">
<path d="M.38-6.42V2.75L4.11,5.89l-.56.53L0,3.4l-3.57,3-.53-.53,3.7-3.14V-6.42Z"/>
<rect fill="none" x="-12" y="-12" width="24" height="24"/>
</symbol>
<symbol  id="stalagnate" viewBox="-12 -12 24 24">
<path d="M3.55-8.46l.56.53L.38-4.78v9L4.11,7.36l-.56.53L0,4.86l-3.57,3-.53-.53,3.7-3.14v-9l-3.7-3.15.53-.53L0-5.43Z"/>
<rect fill="none" x="-12" y="-12" width="24" height="24"/>
</symbol>
<symbol  id="straws" viewBox="-12 -12 24 24">
<path d="M-10.89-2.76H10.89V-2H9.63V.46H8.84V-2H8.29v5.6H7.5V-2H5.56V.7H4.77V-2H2.07V2.38H1.29V-2H-.1v3H-.89V-2H-3.2V4.11H-4V-2H-6.22L-6.16.75l-.79,0L-7-2H-8.32V2.33H-9.1V-2h-1.79Z"/>
<rect fill="none" x="-12" y="-12" width="24" height="24"/>
</symbol>
<symbol  id="water" viewBox="-12 -12 24 24">
<path d="M-1.72-9.86,2.11-4.32.38-4.06a6.49,6.49,0,0,0,.29.89,1.5,1.5,0,0,1,.13.79,1.2,1.2,0,0,1-.5.82h0l0,0C-.54-.94-1-.42-1,.05s.24.89.92,1.27h0c.77.48,1.17,1,1.19,1.49S.71,3.94-.2,4.49c-.75.43-1.13.81-1.15,1.15a.51.51,0,0,0,.18.43,2.66,2.66,0,0,0,.76.58,2.93,2.93,0,0,1,1,.67,1.16,1.16,0,0,1,.29.89C.84,8.75.42,9.3-.41,9.86l-.44-.55c.66-.45,1-.83,1-1.15A.47.47,0,0,0,0,7.75a2.84,2.84,0,0,0-.78-.53h0a3.87,3.87,0,0,1-1-.69,1.24,1.24,0,0,1-.34-.91c0-.58.54-1.14,1.52-1.68.66-.42,1-.79,1-1.11s-.3-.61-.84-1h0Q-1.9,1.06-1.74,0a3.44,3.44,0,0,1,1.54-2,.67.67,0,0,0,.27-.41A1.11,1.11,0,0,0,0-3a4.33,4.33,0,0,1-.31-1l-1.5.24Z"/>
<rect fill="none" x="-12" y="-12" width="24" height="24"/>
</symbol><symbol  id="tree" viewBox="-12 -12 24 24">
<path d="M7.4-5.04A4.271,4.271,0,0,0,7.7-6.627a4.3,4.3,0,0,0-4.3-4.3A4.279,4.279,0,0,0,.636-9.914,4.293,4.293,0,0,0-3.045-12a4.3,4.3,0,0,0-4.3,4.3,4.27,4.27,0,0,0,.421,1.845,4.3,4.3,0,0,0-3.645,4.244,4.3,4.3,0,0,0,4.3,4.3A4.282,4.282,0,0,0-3.946,2L-1.175,5.23h0L-1.612,12H.982L.757,6.376,4.119,2.827v0a4.272,4.272,0,0,0,2.15.58,4.3,4.3,0,0,0,4.3-4.3A4.3,4.3,0,0,0,7.4-5.04ZM-3.346,1.538h0A4.346,4.346,0,0,0-2.7.788a4.266,4.266,0,0,0,1.765.753l-.135,2.087ZM.69,4.7.563,1.544A4.258,4.258,0,0,0,2.321.805,4.3,4.3,0,0,0,3.378,2.279Z"/>
<rect fill="none" x="-12" y="-12" width="24" height="24"/>
</symbol><g>
<desc></desc>
<g>
<line fill="none" stroke="#dddddd" stroke-width="0.1mm" x1="0.00" y1="106.00" x2="190.00" y2="106.00" />
<text x="187.20" y="105.80" font-size=".2mm" fill="#000000">0m</text>
<line fill="none" stroke="#dddddd" stroke-width="0.1mm" x1="0.00" y1="56.00" x2="190.00" y2="56.00" />
<text x="187.20" y="55.80" font-size=".2mm" fill="#000000">5m</text>
<line fill="none" stroke="#dddddd" stroke-width="0.1mm" x1="0.00" y1="6.00" x2="190.00" y2="6.00" />
<text x="187.20" y="5.80" font-size=".2mm" fill="#000000">10m</text>
<line fill="none" stroke="#dddddd" stroke-width="0.1mm" x1="0.00" y1="156.00" x2="190.00" y2="156.00" />
<text x="187.20" y="155.80" font-size=".2mm" fill="#000000">-5m</text>
<line fill="none" stroke="#dddddd" stroke-width="0.1mm" x1="0.00" y1="206.00" x2="190.00" y2="206.00" />
<text x="187.20" y="205.80" font-size=".2mm" fill="#000000">-10m</text>
</g>
<g>
<path fill="none" stroke="#000000" stroke-width="0.06mm" d="M45.50904,90.51305 C45.05165,90.72939 44.569603,90.89989 44.13686,91.16208 C43.537407,91.52529 41.70548,93.269455 41.48857,93.45964 C41.149147,93.75725 40.968155,93.78328 40.78284,94.173325 C40.65113,94.45054 40.5823,95.081566 40.55955,95.203674 L40.55955,95.203674" /><path fill="none" stroke="#000000" stroke-width="0.06mm" d="M41.92433,94.210266 C42.302788,93.35329 42.92552,92.90372 43.62599,92.29255 L43.62599,92.29255" /><path fill="none" stroke="#000000" stroke-width="0.06mm" d="M44.39476,91.54101 C44.529106,91.41031 46.610115,89.38576 46.61129,89.38448 C50.8292,84.794876 55.13332,80.28006 59.194984,75.55161 C60.832672,73.64508 62.195164,71.51843 63.69216,69.49954 C63.877144,69.25008 64.03226,68.976616 64.240906,68.746574 C68.30687,64.263725 65.91438,66.874695 69.596535,63.608063 C70.52176,62.787243 71.01912,61.97151 72.18152,61.595154 C73.23831,61.252987 74.925674,61.318718 75.732895,61.272213 L75.732895,61.272213" /><path fill="none" stroke="#000000" stroke-width="0.06mm" d="M35.169533,87.89562 C34.489655,87.699905 35.72303,85.62005 34.793175,85.231834 C34.486103,85.10364 33.988037,85.1835 33.718372,85.19182 L33.718372,85.19182" /><path fill="none" stroke="#000000" stroke-width="0.06mm" d="M33.657906,85.278206 L33.684982,85.253456" /><path fill="none" stroke="#000000" stroke-width="0.06mm" d="M38.72833,82.10793 C38.01712,82.49579 38.479305,82.33095 37.268528,82.29797 L37.268528,82.29797" /><path fill="none" stroke="#000000" stroke-width="0.06mm" d="M34.513054,84.733986 C34.76597,84.50108 35.06141,84.3072 35.271805,84.03527 C41.45552,76.043015 37.295723,80.88424 42.35025,74.65445 C42.435356,74.54955 42.55497,74.47803 42.661247,74.39465 C46.304565,71.53668 50.028038,68.778564 53.59888,65.830536 C59.66534,60.82215 51.87538,64.56834 63.714333,58.440872 C65.4865,57.52365 67.47894,57.11507 69.34621,56.411354 C69.56293,56.329674 69.7685,56.21627 69.96056,56.08684 C70.18626,55.934746 70.38244,55.742874 70.593376,55.570892 L70.593376,55.570892" /><path fill="none" stroke="#000000" stroke-width="0.06mm" d="M33.71551,134.18654 C34.380287,133.49481 34.015186,133.82736 34.819725,133.19856 L34.819725,133.19856" /><path fill="none" stroke="#000000" stroke-width="0.06mm" d="M72.56696,54.573166 C72.53087,54.759823 72.49478,54.946476 72.45869,55.133125 C72.47606,55.166943 72.478745,55.214176 72.51083,55.234585 C72.67187,55.337013 73.5907,54.878597 72.98672,54.84476 C72.6797,54.827557 72.36459,54.766075 72.0643,54.83226 C71.80442,54.889526 71.59321,55.079933 71.35766,55.203773 L71.35766,55.203773" /><path fill="none" stroke="#000000" stroke-width="0.06mm" d="M71.57361,55.16058 L71.557495,55.161743" /><path fill="none" stroke="#000000" stroke-width="0.06mm" d="M71.452675,55.367905 L71.45384,55.403614" /><path fill="none" stroke="#000000" stroke-width="0.06mm" d="M20.0,106.0 L20.0,106.0" /><path fill="none" stroke="#000000" stroke-width="0.06mm" d="M77.62874,46.686348 L77.11047,45.252388" /><path fill="none" stroke="#000000" stroke-width="0.06mm" d="M69.94969,55.98986 C71.897316,54.22748 69.801575,56.01252 72.88297,53.928917 C73.133415,53.75956 73.73883,53.17831 73.901855,52.860928 C75.62376,49.508865 77.28119,46.12407 78.96112,42.750786 C83.92459,32.784195 83.24244,33.198822 88.90933,24.723175 C89.70406,23.534523 91.78585,20.502258 93.46201,19.672333 C94.11242,19.350288 94.43841,19.355515 95.20677,19.20774 L95.20677,19.20774" /><path fill="none" stroke="#000000" stroke-width="0.06mm" d="M99.45703,19.640175 C97.8474,19.362534 97.38179,19.279076 95.869415,19.746758 C95.8401,19.755814 95.90187,19.798828 95.918106,19.824852 C96.55741,19.859245 97.19606,19.946373 97.83603,19.92804 C98.39591,19.912003 98.95051,19.809898 99.5037,19.722122 C100.83067,19.511574 101.32803,19.226929 102.58725,19.373032 C104.22794,19.563385 105.85674,19.845184 107.490685,20.086761 C108.31561,20.208717 108.273315,20.14067 108.86366,19.493317 L108.86366,19.493317" /><path fill="none" stroke="#000000" stroke-width="0.06mm" d="M108.794556,20.158478 C109.29373,20.32399 109.99205,20.3731 110.435745,20.744766 C111.09183,21.294327 111.162186,22.464096 111.248055,23.180145 C111.349,24.021927 111.342255,24.875954 111.47319,25.713585 C111.59611,26.499954 111.97113,27.245651 112.00781,28.040726 C113.45985,59.51376 112.48814,41.98027 112.6264,58.29061 C112.6305,58.77409 112.92683,59.315014 113.29888,59.6119 C113.449036,59.73172 113.607315,59.842552 113.773865,59.93829 C114.71689,60.480347 115.68657,60.975456 116.62573,61.52418 C116.966354,61.723198 117.23102,62.207275 117.35756,62.551903 C117.70636,63.50177 117.8723,64.34573 116.79805,64.80178 C115.99417,65.14305 115.059425,64.814095 114.27515,65.17857 C113.36177,65.60304 112.451935,66.03609 111.5564,66.496994 C111.27484,66.64191 111.12148,66.94559 110.83498,67.08809 C110.74622,67.13224 110.65322,67.16846 110.558426,67.19749 C109.57325,67.499176 108.55957,67.714874 107.59607,68.079926 C106.877174,68.35231 105.94867,68.96191 105.34791,69.50195 C105.17615,69.656364 105.01897,69.82939 104.88494,70.017494 C104.142944,71.0589 103.37126,72.08417 102.722855,73.18628 C102.1544,74.15247 101.73054,75.19678 101.243706,76.20656 C101.13359,76.43495 101.066284,76.68531 100.93217,76.9005 C100.68225,77.3015 99.96036,78.604706 99.291466,79.14713 C99.153046,79.25939 98.99316,79.34586 98.8211,79.39298 C98.29325,79.53752 97.32,79.358734 97.02122,78.82318 C96.54194,77.96411 96.704796,78.11744 96.37775,77.016716 C96.196106,76.405396 96.02308,75.79067 95.80766,75.19042 C95.703835,74.90109 95.53514,74.63859 95.421776,74.35286 C95.280525,73.99684 95.38338,73.53897 95.42316,73.180695 L95.42316,73.180695" /><path fill="none" stroke="#000000" stroke-width="0.06mm" d="M95.708206,73.82858 C95.30664,74.04808 94.99227,74.16483 94.68497,74.48868 C94.51314,74.66977 94.36522,74.87223 94.210884,75.06845 C93.98414,75.35675 93.86068,75.60312 93.44691,75.438385 C93.28679,75.37463 93.16833,75.313515 93.038506,75.19915 C92.84465,75.02837 92.550255,74.57714 92.45473,74.470184 C92.18144,74.1642 91.84541,73.92757 91.482994,73.739 C90.66836,73.31517 89.42277,73.32656 88.695816,73.198456 C88.29535,73.127884 87.97945,72.72856 87.659966,72.538086 C87.13389,72.224464 86.44225,71.778915 85.77687,71.65065 C85.24281,71.5477 84.760864,71.55821 84.21632,71.65008 C83.43709,71.78154 82.37915,72.403 81.752625,71.56175 C80.39107,69.73357 79.554665,64.9578 79.46472,64.68729 C79.37941,64.43069 78.88082,63.096603 78.49266,62.66046 C77.59629,61.653267 76.49695,60.85199 75.305595,60.23181 L75.305595,60.23181" /><path fill="none" stroke="#000000" stroke-width="0.06mm" d="M72.904274,61.700333 C72.810905,62.48314 72.77582,62.02099 73.33617,63.022 L73.33617,63.022" /><path fill="none" stroke="#000000" stroke-width="0.06mm" d="M78.83847,114.705284 C78.49063,115.66781 78.1946,116.436714 78.90276,117.28228 C78.9781,117.372246 79.22246,117.59838 79.342285,117.63492 C79.71744,117.74931 80.1063,117.81262 80.48831,117.901474 L80.48831,117.901474" /><path fill="none" stroke="#000000" stroke-width="0.06mm" d="M68.76463,62.810497 C68.31142,62.912735 67.95944,63.03472 67.62894,63.35693 C67.465996,63.51579 67.31177,63.72295 67.21602,63.93052 C67.106766,64.167336 67.04331,64.38565 67.02329,64.643265 C67.0071,64.85155 67.05275,65.06585 67.1575,65.2466 C67.71701,66.211914 69.81743,64.46507 68.83797,63.613174 C68.10927,62.979374 67.30774,63.119137 66.457306,63.439064 C66.23906,63.52117 66.00545,63.67444 65.88019,63.878365 C65.75729,64.07845 65.78218,64.31067 65.76729,64.53816 L65.76729,64.53816" /><path fill="none" stroke="#000000" stroke-width="0.06mm" d="M63.875603,64.27902 C62.345043,65.86635 62.166637,65.82093 61.203728,67.49434 C60.910194,68.004456 60.655525,68.73827 60.77942,69.34071 C60.94912,70.1659 62.099876,70.20108 62.71027,69.94198 C64.42015,69.21616 64.648056,67.82712 65.1432,66.11867 C65.42427,65.14888 64.260666,64.010925 63.2991,64.32707 C62.86095,64.47112 62.436897,65.026596 62.31304,65.451645 C62.25437,65.653 62.22607,65.861984 62.182583,66.067154 L62.182583,66.067154" /><path fill="none" stroke="#000000" stroke-width="0.06mm" d="M58.347378,69.18561 C57.48471,70.01625 57.038727,70.28238 56.51008,71.27327 C56.301834,71.6636 56.13306,72.07562 55.98893,72.49389 C55.60559,73.60634 55.37232,74.60813 56.29716,75.479675 C56.626442,75.78997 57.039276,76.0092 57.500328,75.99239 C57.824837,75.98055 58.133606,75.86618 58.430897,75.74483 C58.773552,75.60495 59.00209,75.38533 59.261852,75.11311 C60.236317,74.0919 60.36621,72.529236 60.44748,71.20572 C60.471,70.8226 60.21202,70.09659 60.11337,69.84057 C59.753445,68.906494 58.921803,68.436325 57.95152,68.82145 C57.649677,68.94125 57.251747,69.14613 56.998943,69.37387 C56.668293,69.67173 56.4295,70.03671 56.225468,70.43096 C55.70936,71.42822 55.9164,71.83767 56.144722,72.95193 L56.144722,72.95193" /><path fill="none" stroke="#000000" stroke-width="0.06mm" d="M53.536095,73.52206 C53.0975,73.89573 52.624165,74.2321 52.220314,74.643074 C51.667217,75.20594 51.080772,76.1575 50.80493,76.88658 C50.62953,77.35019 49.876728,79.38745 50.19152,80.21286 C50.419907,80.811714 50.762527,81.43591 51.259354,81.85333 C51.445847,82.01002 51.714104,82.1116 51.936737,82.179596 C52.66432,82.40184 53.13777,82.268295 53.734932,81.8015 C53.903133,81.67001 54.239113,81.35952 54.35497,81.13905 C54.569324,80.73114 54.784203,80.320724 54.945034,79.8889 C55.06707,79.56124 55.154068,79.21797 55.19958,78.8713 C55.375515,77.53127 55.453358,76.84166 54.9915,75.687965 C54.566086,74.625305 53.192154,74.67882 52.63348,75.59738 C52.372425,76.0266 52.43308,76.38779 52.38726,76.92557 L52.38726,76.92557" /><path fill="none" stroke="#000000" stroke-width="0.06mm" d="M76.40784,61.22377 C77.20491,63.63166 77.78075,66.12445 78.79906,68.44744 C79.92601,71.018265 81.77041,73.24327 82.81824,75.847336 C84.22738,79.34935 84.99078,83.078094 86.1338,86.675766 C86.93224,89.18887 87.827156,91.67045 88.64216,94.17823 C88.89968,94.97064 88.988205,95.82515 89.35099,96.575226 C92.09202,102.2425 94.91856,107.87217 97.93727,113.39653 C98.33812,114.1301 99.03162,114.6605 99.57879,115.29249 L99.57879,115.29249" /><path fill="none" stroke="#000000" stroke-width="0.06mm" d="M94.33344,98.78551 L93.61486,97.44125" /><path fill="none" stroke="#000000" stroke-width="0.06mm" d="M98.087,107.85713 C97.7137,107.03081 97.38745,106.181564 96.9671,105.37816 C95.89883,103.33637 95.065315,102.593155 94.53479,100.61322 C94.44824,100.08895 94.3617,99.564674 94.27515,99.0404 C94.25151,98.540146 94.318115,98.02732 94.20422,97.53963 C93.96583,96.51879 93.55249,95.54688 93.22663,94.55051 L93.22663,94.55051" /><path fill="none" stroke="#000000" stroke-width="0.06mm" d="M89.0881,94.04518 C89.68313,94.69904 90.384415,95.27009 90.87317,96.00678 C96.01592,103.75845 94.07341,102.063484 98.72967,110.457535 C99.565216,111.96383 100.542465,113.39021 101.54636,114.78995 C105.324486,120.05784 109.09817,125.33281 113.071754,130.45486 C114.92799,132.84761 114.59808,132.62384 116.373535,132.90633 L116.373535,132.90633" /><path fill="none" stroke="#000000" stroke-width="0.06mm" d="M76.4319,87.21141 C77.44051,96.26085 76.44493,92.92331 78.044,97.53427 L78.044,97.53427" /><path fill="none" stroke="#000000" stroke-width="0.06mm" d="M72.413666,66.1566 C72.47116,67.556305 72.628,68.741684 73.34086,69.919785 C73.58836,70.32881 73.921776,70.69182 74.105576,71.133156 C74.83215,72.87787 75.49947,74.65048 76.0623,76.45469 C78.971466,85.78039 74.62512,74.007355 77.610886,81.84543 L77.610886,81.84543" /><path fill="none" stroke="#000000" stroke-width="0.06mm" d="M75.854416,77.36979 C76.350746,82.51755 76.84707,87.665306 77.34338,92.81306 C77.94224,95.395065 78.8297,97.92676 79.13995,100.55908 C79.51397,103.73235 79.19176,106.95229 79.38582,110.14163 C79.43912,111.01772 79.604034,114.71919 80.85013,115.845375 C81.56853,116.494644 82.38002,117.03282 83.14497,117.62655 L83.14497,117.62655" /><path fill="none" stroke="#000000" stroke-width="0.06mm" d="M90.07462,111.89966 L87.71661,111.70714" /><path fill="none" stroke="#000000" stroke-width="0.06mm" d="M84.82927,112.7178 L88.48657,106.24494" /><path fill="none" stroke="#000000" stroke-width="0.06mm" d="M94.74249,113.72842 C93.12086,112.73379 92.54457,117.699135 91.05988,116.90314 C90.61089,116.66242 89.9508,115.5327 89.88212,115.43687 L89.88212,115.43687" /><path fill="none" stroke="#000000" stroke-width="0.06mm" d="M91.013,117.62655 C87.94356,116.7847 88.11128,116.652855 84.08124,116.76726 C83.782745,116.77573 84.62904,117.00649 84.91072,117.10563 C85.52644,117.322334 86.1694,117.46331 86.77197,117.71428 C87.36677,117.962006 87.89701,118.34877 88.49158,118.597046 C89.2711,118.92256 90.3484,119.02014 91.15808,119.012505 C92.486084,118.999985 92.527145,118.75109 93.88879,118.56293 C95.1867,118.383575 99.37371,119.53361 99.45849,119.55157 L99.45849,119.55157" /><path fill="none" stroke="#000000" stroke-width="0.06mm" d="M98.23137,119.1425 C98.63691,119.90273 99.09982,120.63503 99.448,121.42319 C100.77057,124.4171 100.56789,130.04567 100.92784,132.80893 C101.05995,133.82315 101.385056,134.80411 101.67518,135.78488 C102.60666,138.93378 102.928116,140.23497 105.59648,142.04709 C106.20354,142.45934 106.93371,142.54755 107.64454,142.58008 C110.168724,142.69563 112.69391,142.78824 115.2186,142.89232 L115.2186,142.89232" /><path fill="none" stroke="#000000" stroke-width="0.06mm" d="M116.06075,142.82013 C116.67266,143.55157 117.36152,144.22498 117.89647,145.01447 C120.78543,149.27798 121.10015,153.07524 123.07619,158.42075 C123.66847,160.02298 125.046326,161.98802 125.94992,163.39366 L125.94992,163.39366" /><path fill="none" stroke="#000000" stroke-width="0.06mm" d="M117.14349,142.60356 C117.413574,143.45718 117.68364,144.31079 117.95373,145.16441 C118.26598,145.88669 118.6298,146.58879 118.890465,147.33124 C119.04904,147.7829 119.10995,148.26324 119.20632,148.73212 C119.5982,150.63873 120.118866,152.52534 120.35516,154.45743 C120.64908,156.8605 120.479904,159.30653 120.79323,161.70715 C121.17062,164.59865 121.943054,167.42581 122.42317,170.30203 C122.64557,171.63426 122.685745,172.99231 122.89966,174.32593 C123.03604,175.17616 123.36628,175.99039 123.472664,176.8449 C123.85965,179.95343 123.96537,183.09352 124.37778,186.19879 C125.07946,191.48224 125.19867,192.21117 127.41873,196.52832 C127.81623,197.30132 128.64279,198.30006 129.34595,198.84851 C132.3999,201.23056 136.2262,201.64682 139.94324,202.43802 C140.74963,202.60965 141.6489,202.30223 142.42606,202.27298 C142.86804,202.25633 143.30928,202.32349 143.75009,202.35956 C147.13306,202.63643 150.50545,203.08032 153.89716,203.21176 C156.70139,203.32043 159.50888,203.0563 162.31514,203.07906 C163.0381,203.08492 163.75034,203.27838 164.47308,203.29752 C166.05997,203.33948 168.51352,202.56122 169.6655,202.18243 C170.5007,201.9078 171.6377,201.48828 172.1348,200.64026 C173.43777,198.41745 171.12883,194.42621 170.17444,192.55756 L170.17444,192.55756" /><path fill="none" stroke="#000000" stroke-width="0.06mm" d="M121.40234,128.21411 C120.87819,128.41551 120.35404,128.61691 119.829895,128.81831 C119.75221,128.74332 119.61824,128.69914 119.596855,128.5933 C119.55838,128.40303 119.71373,128.2038 119.66755,128.01524 C119.52561,127.43569 119.25206,126.89656 119.04433,126.33722 L119.04433,126.33722" /><path fill="none" stroke="#000000" stroke-width="0.06mm" d="M172.3159,191.33037 C170.11072,187.68816 167.83998,184.08482 165.70036,180.4037 C165.29524,179.70671 164.93295,177.1528 164.86028,176.89111 C164.14421,174.31238 163.14622,170.26306 161.264,167.96976 C159.58482,165.92383 157.72202,164.01712 155.723,162.28235 C141.02682,149.52875 156.1796,163.5586 147.93752,157.03027 C145.62392,155.19775 143.36014,153.29504 141.21426,151.2687 C121.11467,130.61421 145.5424,154.83481 127.844315,139.55658 C126.00496,137.9687 124.56526,135.96725 122.84395,134.25212 C121.86596,133.27765 119.91885,132.59555 118.89784,132.05109 C118.23037,131.69518 117.599945,131.27373 116.951004,130.88506 L116.951004,130.88506" /><path fill="none" stroke="#000000" stroke-width="0.06mm" d="M173.42271,192.79822 C173.31967,192.49725 172.92712,191.63754 173.11354,191.89532 C176.19005,196.14926 171.28656,190.24571 174.22458,194.74474 C174.30122,194.8621 174.50171,194.61935 174.56091,194.49228 C174.77916,194.02393 174.93452,193.5227 175.03061,193.01498 C175.17383,192.25818 175.25214,191.48712 175.27533,190.71722 C175.2799,190.56546 175.24072,190.37334 175.11266,190.29181 C174.63405,189.98705 173.7013,191.85538 173.60823,192.13882 C173.2015,193.3776 173.72702,193.1511 174.79419,194.65102 L174.79419,194.65102" /><path fill="none" stroke="#000000" stroke-width="0.06mm" d="M168.00894,200.4501 L167.6272,200.11649" /><path fill="none" stroke="#000000" stroke-width="0.06mm" d="M168.49016,204.5167 C169.0827,203.23099 170.50195,201.29007 169.69225,199.70535 C169.58482,199.49515 169.42822,199.29855 169.20038,199.20952 C168.83893,199.06825 168.37572,199.24486 168.08313,199.45598 C167.52687,199.85738 166.982,200.27582 166.45865,200.71925 C166.2713,200.87802 166.05348,201.03264 165.95633,201.25818 C165.70425,201.84335 165.60838,202.48405 165.43439,203.097 L165.43439,203.097" /><path fill="none" stroke="#000000" stroke-width="0.06mm" d="M157.87915,202.92857 C157.88069,202.07324 157.76633,200.60446 159.00664,200.59741 C159.52942,200.59442 160.10126,200.66714 160.58682,200.87564 C160.89842,201.00943 161.2573,201.1117 161.47505,201.37167 C162.09825,202.11563 162.52657,203.00314 163.05234,203.8189 L163.05234,203.8189" /><path fill="none" stroke="#000000" stroke-width="0.06mm" d="M151.69542,201.557 C152.55763,200.78754 153.77046,199.41306 155.13936,199.96118 C155.23883,200.00102 155.32884,200.0718 155.39503,200.15607 C155.93169,200.83936 156.4255,201.55524 156.94077,202.25482 L156.94077,202.25482" /><path fill="none" stroke="#000000" stroke-width="0.06mm" d="M148.95245,200.73886 C148.45674,200.1844 148.04808,199.50836 147.37575,199.14944 C145.85632,198.3383 143.22632,199.22012 141.9658,200.1691 C141.6222,200.4278 140.80354,201.12225 140.85558,201.66702 C140.90428,202.17702 141.07231,202.66846 141.18066,203.16919 L141.18066,203.16919" /><path fill="none" stroke="#000000" stroke-width="0.06mm" d="M137.30681,199.53575 C136.52077,199.79692 132.92732,201.89928 134.68994,203.25601 C135.13184,203.59612 135.86725,203.64124 136.32031,203.7467 L136.32031,203.7467" /><path fill="none" stroke="#000000" stroke-width="0.06mm" d="M133.72168,198.40479 C135.10654,198.01852 136.55177,197.7669 137.8859,198.4771 C138.64816,198.88284 138.67673,199.28445 139.2393,199.87595 C139.89037,200.56046 140.59772,201.18915 141.27692,201.84576 L141.27692,201.84576" /><path fill="none" stroke="#000000" stroke-width="0.06mm" d="M118.49091,140.60635 C117.11907,140.27504 115.40168,139.65137 113.98953,140.29376 C112.50587,140.96869 111.58634,142.43198 110.59883,143.63826 L110.59883,143.63826" /><path fill="none" stroke="#000000" stroke-width="0.06mm" d="M109.37172,140.79887 C107.40951,141.43423 108.47935,140.92632 106.34001,142.65169 L106.34001,142.65169" /><path fill="none" stroke="#000000" stroke-width="0.06mm" d="M98.929146,121.18783 C98.655655,120.66856 98.41789,120.128845 98.10869,119.63003 C97.80388,119.1383 97.2351,118.70603 96.77751,118.39329 C95.64741,117.62089 94.287125,116.21035 92.7211,116.537636 C92.06822,116.67408 91.450195,117.06142 91.14771,117.674545 C91.03307,117.90693 90.78366,118.15553 90.868965,118.4002 C90.92801,118.56955 91.19185,118.20888 91.27946,118.0524 C91.67501,117.34586 91.97504,116.58961 92.29827,115.8472 C92.49297,115.40001 92.4359,114.900444 92.00713,114.61923 C91.440346,114.24748 90.20566,114.16817 89.83624,114.137955 C87.94187,113.983025 85.897285,114.39573 84.359505,115.54228 C83.4798,116.19818 83.11762,117.2704 84.08177,118.0791 C84.47989,118.413025 84.83623,118.03453 85.036476,117.69878 C85.261086,117.32217 85.388275,116.93418 85.42682,116.496956 C85.482765,115.86225 85.398705,114.359116 84.44802,114.39302 C83.93822,114.4112 82.854614,115.06623 82.73595,115.12404 L82.73595,115.12404" /></g>
<g>
<line fill="none" stroke="#111111" stroke-width="0.04mm" x1="20.00" y1="106.00" x2="42.49" y2="84.71" />
<line fill="none" stroke="#5674b9" stroke-width="0.04mm" stroke-dasharray="0.4,0.2" x1="42.49" y1="84.71" x2="39.85" y2="95.08" />
<line fill="none" stroke="#5674b9" stroke-width="0.04mm" stroke-dasharray="0.4,0.2" x1="42.49" y1="84.71" x2="43.62" y2="73.41" />
<line fill="none" stroke="#5674b9" stroke-width="0.04mm" stroke-dasharray="0.4,0.2" x1="42.49" y1="84.71" x2="41.23" y2="84.42" />
<line fill="none" stroke="#5674b9" stroke-width="0.04mm" stroke-dasharray="0.4,0.2" x1="42.49" y1="84.71" x2="45.06" y2="80.24" />
<line fill="none" stroke="#5674b9" stroke-width="0.04mm" stroke-dasharray="0.4,0.2" x1="42.49" y1="84.71" x2="48.55" y2="77.86" />
<line fill="none" stroke="#5674b9" stroke-width="0.04mm" stroke-dasharray="0.4,0.2" x1="42.49" y1="84.71" x2="50.24" y2="79.27" />
<line fill="none" stroke="#5674b9" stroke-width="0.04mm" stroke-dasharray="0.4,0.2" x1="42.49" y1="84.71" x2="46.67" y2="81.57" />
<line fill="none" stroke="#00aeef" stroke-width="0.04mm" stroke-dasharray="0.4,0.2" x1="42.49" y1="84.71" x2="44.29" y2="83.27" />
<line fill="none" stroke="#00aeef" stroke-width="0.04mm" stroke-dasharray="0.4,0.2" x1="42.49" y1="84.71" x2="34.17" y2="85.54" />
<line fill="none" stroke="#00aeef" stroke-width="0.04mm" stroke-dasharray="0.4,0.2" x1="42.49" y1="84.71" x2="37.83" y2="84.84" />
<line fill="none" stroke="#00aeef" stroke-width="0.04mm" stroke-dasharray="0.4,0.2" x1="42.49" y1="84.71" x2="34.01" y2="84.87" />
<line fill="none" stroke="#111111" stroke-width="0.04mm" x1="42.49" y1="84.71" x2="69.30" y2="56.84" />
<line fill="none" stroke="#00aeef" stroke-width="0.04mm" stroke-dasharray="0.4,0.2" x1="69.30" y1="56.84" x2="57.26" y2="68.43" />
<line fill="none" stroke="#5674b9" stroke-width="0.04mm" stroke-dasharray="0.4,0.2" x1="69.30" y1="56.84" x2="54.96" y2="71.32" />
<line fill="none" stroke="#00aeef" stroke-width="0.04mm" stroke-dasharray="0.4,0.2" x1="69.30" y1="56.84" x2="60.78" y2="68.57" />
<line fill="none" stroke="#00aeef" stroke-width="0.04mm" stroke-dasharray="0.4,0.2" x1="69.30" y1="56.84" x2="65.82" y2="65.59" />
<line fill="none" stroke="#00aeef" stroke-width="0.04mm" stroke-dasharray="0.4,0.2" x1="69.30" y1="56.84" x2="75.09" y2="60.78" />
<line fill="none" stroke="#5674b9" stroke-width="0.04mm" stroke-dasharray="0.4,0.2" x1="69.30" y1="56.84" x2="75.34" y2="57.38" />
<line fill="none" stroke="#5674b9" stroke-width="0.04mm" stroke-dasharray="0.4,0.2" x1="69.30" y1="56.84" x2="72.36" y2="60.99" />
<line fill="none" stroke="#5674b9" stroke-width="0.04mm" stroke-dasharray="0.4,0.2" opacity="0.53" x1="69.30" y1="56.84" x2="69.47" y2="63.61" />
<line fill="none" stroke="#5674b9" stroke-width="0.04mm" stroke-dasharray="0.4,0.2" x1="69.30" y1="56.84" x2="69.69" y2="63.73" />
<line fill="none" stroke="#5674b9" stroke-width="0.04mm" stroke-dasharray="0.4,0.2" x1="69.30" y1="56.84" x2="61.45" y2="65.84" />
<line fill="none" stroke="#00aeef" stroke-width="0.04mm" stroke-dasharray="0.4,0.2" x1="69.30" y1="56.84" x2="67.68" y2="60.44" />
<line fill="none" stroke="#00aeef" stroke-width="0.04mm" stroke-dasharray="0.4,0.2" x1="69.30" y1="56.84" x2="67.61" y2="60.45" />
<line fill="none" stroke="#00aeef" stroke-width="0.04mm" stroke-dasharray="0.4,0.2" x1="69.30" y1="56.84" x2="67.56" y2="60.54" />
<line fill="none" stroke="#00aeef" stroke-width="0.04mm" stroke-dasharray="0.4,0.2" x1="69.30" y1="56.84" x2="67.66" y2="60.46" />
<line fill="none" stroke="#00aeef" stroke-width="0.04mm" stroke-dasharray="0.4,0.2" x1="69.30" y1="56.84" x2="67.58" y2="60.57" />
<line fill="none" stroke="#111111" stroke-width="0.04mm" x1="69.30" y1="56.84" x2="87.18" y2="53.05" />
<line fill="none" stroke="#5674b9" stroke-width="0.04mm" stroke-dasharray="0.4,0.2" x1="87.18" y1="53.05" x2="111.68" y2="59.39" />
<line fill="none" stroke="#5674b9" stroke-width="0.04mm" stroke-dasharray="0.4,0.2" x1="87.18" y1="53.05" x2="117.70" y2="64.26" />
<line fill="none" stroke="#5674b9" stroke-width="0.04mm" stroke-dasharray="0.4,0.2" x1="87.18" y1="53.05" x2="110.34" y2="67.23" />
<line fill="none" stroke="#5674b9" stroke-width="0.04mm" stroke-dasharray="0.4,0.2" x1="87.18" y1="53.05" x2="103.78" y2="70.57" />
<line fill="none" stroke="#5674b9" stroke-width="0.04mm" stroke-dasharray="0.4,0.2" x1="87.18" y1="53.05" x2="94.40" y2="75.01" />
<line fill="none" stroke="#5674b9" stroke-width="0.04mm" stroke-dasharray="0.4,0.2" x1="87.18" y1="53.05" x2="80.94" y2="72.50" />
<line fill="none" stroke="#5674b9" stroke-width="0.04mm" stroke-dasharray="0.4,0.2" x1="87.18" y1="53.05" x2="86.21" y2="71.48" />
<line fill="none" stroke="#5674b9" stroke-width="0.04mm" stroke-dasharray="0.4,0.2" x1="87.18" y1="53.05" x2="92.74" y2="74.14" />
<line fill="none" stroke="#5674b9" stroke-width="0.04mm" stroke-dasharray="0.4,0.2" x1="87.18" y1="53.05" x2="97.62" y2="80.00" />
<line fill="none" stroke="#5674b9" stroke-width="0.04mm" stroke-dasharray="0.4,0.2" x1="87.18" y1="53.05" x2="93.63" y2="76.02" />
<line fill="none" stroke="#5674b9" stroke-width="0.04mm" stroke-dasharray="0.4,0.2" x1="87.18" y1="53.05" x2="88.53" y2="73.90" />
<line fill="none" stroke="#5674b9" stroke-width="0.04mm" stroke-dasharray="0.4,0.2" x1="87.18" y1="53.05" x2="86.09" y2="73.45" />
<line fill="none" stroke="#5674b9" stroke-width="0.04mm" stroke-dasharray="0.4,0.2" x1="87.18" y1="53.05" x2="83.01" y2="71.99" />
<line fill="none" stroke="#5674b9" stroke-width="0.04mm" stroke-dasharray="0.4,0.2" x1="87.18" y1="53.05" x2="95.19" y2="19.85" />
<line fill="none" stroke="#5674b9" stroke-width="0.04mm" stroke-dasharray="0.4,0.2" x1="87.18" y1="53.05" x2="90.48" y2="73.50" />
<line fill="none" stroke="#5674b9" stroke-width="0.04mm" stroke-dasharray="0.4,0.2" x1="87.18" y1="53.05" x2="57.52" y2="113.52" />
<line fill="none" stroke="#111111" stroke-width="0.04mm" x1="87.18" y1="53.05" x2="133.13" y2="97.08" />
<line fill="none" stroke="#111111" stroke-width="0.04mm" x1="69.30" y1="56.84" x2="99.85" y2="117.87" />
<line fill="none" stroke="#00aeef" stroke-width="0.04mm" stroke-dasharray="0.4,0.2" x1="99.85" y1="117.87" x2="146.95" y2="191.30" />
<line fill="none" stroke="#00aeef" stroke-width="0.04mm" stroke-dasharray="0.4,0.2" x1="99.85" y1="117.87" x2="153.98" y2="202.55" />
<line fill="none" stroke="#00aeef" stroke-width="0.04mm" stroke-dasharray="0.4,0.2" x1="99.85" y1="117.87" x2="153.87" y2="202.70" />
<line fill="none" stroke="#00aeef" stroke-width="0.04mm" stroke-dasharray="0.4,0.2" x1="99.85" y1="117.87" x2="114.76" y2="141.26" />
<line fill="none" stroke="#00aeef" stroke-width="0.04mm" stroke-dasharray="0.4,0.2" x1="99.85" y1="117.87" x2="153.90" y2="202.47" />
<line fill="none" stroke="#00aeef" stroke-width="0.04mm" stroke-dasharray="0.4,0.2" x1="99.85" y1="117.87" x2="153.41" y2="201.90" />
<line fill="none" stroke="#00aeef" stroke-width="0.04mm" stroke-dasharray="0.4,0.2" x1="99.85" y1="117.87" x2="96.28" y2="117.90" />
<line fill="none" stroke="#5674b9" stroke-width="0.04mm" stroke-dasharray="0.4,0.2" x1="99.85" y1="117.87" x2="78.71" y2="116.00" />
<line fill="none" stroke="#5674b9" stroke-width="0.04mm" stroke-dasharray="0.4,0.2" x1="99.85" y1="117.87" x2="94.78" y2="113.62" />
<line fill="none" stroke="#5674b9" stroke-width="0.04mm" stroke-dasharray="0.4,0.2" x1="99.85" y1="117.87" x2="100.88" y2="115.84" />
<line fill="none" stroke="#111111" stroke-width="0.04mm" x1="99.85" y1="117.87" x2="170.63" y2="202.07" />
</g>
<g>
<circle cx="20.00" cy="106.00" r="0.1" fill="#111111" />
<circle cx="42.49" cy="84.71" r="0.1" fill="#111111" />
<circle cx="69.30" cy="56.84" r="0.1" fill="#111111" />
<circle cx="87.18" cy="53.05" r="0.1" fill="#111111" />
<circle cx="133.13" cy="97.08" r="0.1" fill="#111111" />
<circle cx="99.85" cy="117.87" r="0.1" fill="#111111" />
<circle cx="170.63" cy="202.07" r="0.1" fill="#111111" />
</g>
<g>
<text x="20.20" y="106.00" font-size=".2mm" fill="#000000">13</text>
<text x="42.69" y="84.71" font-size=".2mm" fill="#000000">13.101</text>
<text x="69.50" y="56.84" font-size=".2mm" fill="#000000">13.102</text>
<text x="87.38" y="53.05" font-size=".2mm" fill="#000000">13.102.1</text>
<text x="133.33" y="97.08" font-size=".2mm" fill="#000000">13.666</text>
<text x="100.05" y="117.87" font-size=".2mm" fill="#000000">13.103</text>
<text x="170.83" y="202.07" font-size=".2mm" fill="#000000">13.104</text>
</g>
<g>
</g>
</g>
</svg>