<?xml version="1.0" encoding="utf-8"?>
<!DOCTYPE svg PUBLIC "-//W3C//DTD SVG 1.1//EN" "http://www.w3.org/Graphics/SVG/1.1/DTD/svg11.dtd">
<svg version="1.1" id="Layer_1" xmlns="http://www.w3.org/2000/svg" xmlns:xlink="http://www.w3.org/1999/xlink" x="0px" y="0px" width="137mm" height="139mm" viewBox="0 0 137 139" enable-background="new 0 0 137 139" xml:space="preserve">
<symbol id="airflow" viewBox="-12 -12 24 24">
<path d="M-4.38,10.73l4.2-3.84V3.55L-4.07,7.13l-.31-.29L-.18,3V-6.89a3.37,3.37,0,0,0-1.68.53l1.68-4.15L0-11l.21.51h0v0l1.65,4.1A3.26,3.26,0,0,0,.24-6.89v14l-.08,0L-4.07,11Z"/>
<rect fill="none" x="-12" y="-12" width="24" height="24"/>
</symbol>
<symbol id="anastomosis" viewBox="-12 -12 24 24">
<path d="M2.23-4.78l.37.24L5.22-2.78l-.47.57L2.49-3.7l-4.61,8-.24.44-.37-.34L-5.22,2.3l.55-.52,2.1,1.82L2-4.39Z"/>
<rect fill="none" x="-12" y="-12" width="24" height="24"/>
</symbol>
<symbol id="bivouac" viewBox="-12 -12 24 24">
<path d="M.25-7.66l.24.58L.54-7l3.88.48-3.31.91L6,6H8.35v.48l-16.7.07V6.05h2.64L0-7.08Zm0,1.32L-5.13,6H-4l2.07-5L.2-4l2.09,5L4.37,6H5.44Z"/>
<rect fill="none" x="-12" y="-12" width="24" height="24"/>
</symbol>
<symbol id="bones" viewBox="-12 -12 24 24">
<path d="M2.44,4.27l-.16,0H2.13a.22.22,0,0,1-.11,0l-.1-.06a.39.39,0,0,1-.09-.11l-.08-.13a1.51,1.51,0,0,1-.06-.15l-.07-.17s0-.11-.08-.19-.06-.16-.08-.21a4.75,4.75,0,0,0-.38-.71c-.18-.29-.43-.64-.74-1A11.15,11.15,0,0,0-.7.32,6.73,6.73,0,0,0-2-.64a4.12,4.12,0,0,0-1.44-.52A1.64,1.64,0,0,1-5-2.19.72.72,0,0,1-5-2.44a1,1,0,0,1,0-.29A.52.52,0,0,1-4.87-3a.54.54,0,0,1,.35-.15L-4-3.22l.46,0a.54.54,0,0,0,.27-.06A.52.52,0,0,0-3-3.56a.74.74,0,0,0,.13-.31.54.54,0,0,1,.15-.26.54.54,0,0,1,.3-.15.83.83,0,0,1,.47,0,1.11,1.11,0,0,1,.35.4A7.46,7.46,0,0,1-1-2.76q.18.42.33.72a3.22,3.22,0,0,0,.39.57L.1-1a4.77,4.77,0,0,0,.58.43c.28.18.51.33.69.43l1,.56a1.84,1.84,0,0,0,.39.23A5.29,5.29,0,0,1,3.22.9l.43.26a3.7,3.7,0,0,1,.46.3l.36.29a2.28,2.28,0,0,1,.31.32A1,1,0,0,1,5,2.4c.2.48,0,.78-.47.91h0a8.48,8.48,0,0,0-1.12.09,1,1,0,0,0-.42.44A1,1,0,0,1,2.44,4.27Z"/>
<rect fill="none" x="-12" y="-12" width="24" height="24"/>
</symbol>
<symbol id="calcite" viewBox="-12 -12 24 24">
<path d="M2.36-2.22l.05.46.34,3.91L2,2.22,1.65-1.26-2.52-.06l-.23-.7L1.89-2.08Z"/>
<rect fill="none" x="-12" y="-12" width="24" height="24"/>
</symbol>
<symbol id="cauliflower" viewBox="-12 -12 24 24">
<path d="M5.58,3.22v-3A2.12,2.12,0,0,0,6.92-.43a1.78,1.78,0,0,0,.55-1.32,1.92,1.92,0,0,0-.65-1.42,2.19,2.19,0,0,0-1.53-.59,2.21,2.21,0,0,0-1.54.59,1.78,1.78,0,0,0-.64,1.42A1.86,1.86,0,0,0,3.65-.43,2.12,2.12,0,0,0,5,.23v3H.26v-3A2.17,2.17,0,0,0,1.61-.43a1.81,1.81,0,0,0,.54-1.32,1.91,1.91,0,0,0-.64-1.42A2.21,2.21,0,0,0,0-3.76a2.21,2.21,0,0,0-1.54.59,1.82,1.82,0,0,0-.64,1.42A1.83,1.83,0,0,0-1.66-.43,2.12,2.12,0,0,0-.32.23v3H-5v-3A2.12,2.12,0,0,0-3.71-.43a1.78,1.78,0,0,0,.55-1.32,1.92,1.92,0,0,0-.65-1.42,2.19,2.19,0,0,0-1.53-.59,2.21,2.21,0,0,0-1.54.59,1.83,1.83,0,0,0-.65,1.42A1.87,1.87,0,0,0-7-.43,2.12,2.12,0,0,0-5.64.23v3H-8v.54H8V3.22Z"/>
<rect fill="none" x="-12" y="-12" width="24" height="24"/>
</symbol>
<symbol id="clay" viewBox="-12 -12 24 24">
<path d="M1.85-1.33a3,3,0,0,1,1.67.48,3.23,3.23,0,0,1,1,1l.29.51-1,.43a3.81,3.81,0,0,0-.23-.4A3.74,3.74,0,0,0,2.93,0,1.77,1.77,0,0,0,1.85-.32a2.57,2.57,0,0,0-1.1.15A.86.86,0,0,0,.51.14,2.23,2.23,0,0,1,0,.88a2.55,2.55,0,0,1-1.45.43,3.16,3.16,0,0,1-2.75-1,4.28,4.28,0,0,1-.37-.57,3.91,3.91,0,0,1-.21-.47l0-.16,1-.22a1.87,1.87,0,0,0,.45.79A2.12,2.12,0,0,0-1.51.33,1.82,1.82,0,0,0-.69.14l.21-.36A1.53,1.53,0,0,1,.17-1,3.76,3.76,0,0,1,1.85-1.33Z"/>
<rect fill="none" x="-12" y="-12" width="24" height="24"/>
</symbol>
<symbol id="crystals" viewBox="-12 -12 24 24">
<path d="M-2.94-5.38,0-.72,2.94-5.38,3.62-5,.68-.36H6.56V.36H.68L3.62,5l-.68.36L0,.72-2.94,5.38-3.62,5-.68.36H-6.56V-.36H-.68L-3.62-5Z"/>
<rect fill="none" x="-12" y="-12" width="24" height="24"/>
</symbol>
<symbol id="curtain" viewBox="-12 -12 24 24">
<path d="M3.57-6.69l.52.53L.39-3V-.33L.1-.26a3.79,3.79,0,0,0-1,.41c-.58.3-.87.65-.87,1v.07A1.61,1.61,0,0,0-.84,2.48a3.69,3.69,0,0,0,.45.24L0,2.86l.13.05L.39,3V6.12H-.39V3.51a7.65,7.65,0,0,1-.9-.46A2.19,2.19,0,0,1-2.54,1.28V1.23A2,2,0,0,1-1.31-.48,5.32,5.32,0,0,1-.39-.86V-3l-3.7-3.14.52-.53L0-3.67Z"/>
<rect fill="none" x="-12" y="-12" width="24" height="24"/>
</symbol>
<symbol id="disk" viewBox="-12 -12 24 24">
<path d="M-.09-4.19a2.43,2.43,0,0,1,1.7.64A2,2,0,0,1,2.35-2,2.09,2.09,0,0,1,1.81-.55,2.44,2.44,0,0,1,.35.23l2.18,3.6-.68.33L0,1.14-1.48,4.19l-.71-.29L-.41.25A2.53,2.53,0,0,1-1.9-.47a2,2,0,0,1-.63-1.41,2,2,0,0,1,.67-1.61,2.46,2.46,0,0,1,1.72-.7ZM1.05-3.06.56-3.49l-.69,0A1.72,1.72,0,0,0-1.29-3a1.51,1.51,0,0,0-.45,1.08,1.36,1.36,0,0,0,.51,1A1.68,1.68,0,0,0-.07-.44v0l0,0A1.7,1.7,0,0,0,1.11-.92,1.36,1.36,0,0,0,1.56-2,1.47,1.47,0,0,0,1.05-3.06Z"/>
<rect fill="none" x="-12" y="-12" width="24" height="24"/>
</symbol>
<symbol id="entrance" viewBox="-12 -12 24 24">
<path d="M4.46,9H-4.46L0-9Z"/>
<rect fill="none" x="-12" y="-12" width="24" height="24"/>
</symbol>
<symbol id="flowstone" viewBox="-12 -12 24 24">
<rect x="-6" y="-0.21" width="12" height="0.42"/>
<rect fill="none" x="-12" y="-12" width="24" height="24"/>
</symbol>
<symbol id="flutes" viewBox="-12 -12 24 24">
<path d="M-7-1H7v.72H3.87A4.7,4.7,0,0,1,2.16,1.5,4.2,4.2,0,0,1,0,2.13,3.94,3.94,0,0,1-2.19,1.5,4.18,4.18,0,0,1-3.76-.27H-7Zm4.17.72A3.15,3.15,0,0,0-1.65,1,3.21,3.21,0,0,0,0,1.41,3.49,3.49,0,0,0,1.6,1,3.68,3.68,0,0,0,3-.27Z"/>
<rect fill="none" x="-12" y="-12" width="24" height="24"/>
</symbol>
<symbol id="gradient" viewBox="-12 -12 24 24">
<path d="M2.58-3.83,0-10-2.58-3.83A4.74,4.74,0,0,1-.17-4.5V10H.25V-4.5A6.65,6.65,0,0,1,2.58-3.83Z"/>
<rect fill="none" x="-12" y="-12" width="24" height="24"/>
</symbol>
<symbol id="guano" viewBox="-12 -12 24 24">
<path d="M-3.24-3a2.15,2.15,0,0,1,1.57.55A3.93,3.93,0,0,1-.59.24a4.32,4.32,0,0,1,2.75-2.3,2.68,2.68,0,0,1,2.23.36A2.36,2.36,0,0,1,5.5.19l-.79,0a1.72,1.72,0,0,0-.79-1.37,1.94,1.94,0,0,0-1.55-.24A3.53,3.53,0,0,0,.48,0,6.63,6.63,0,0,0-.69,3l-.79-.09a10.72,10.72,0,0,0,0-3.16A3.21,3.21,0,0,0-2.22-2,1.44,1.44,0,0,0-3.37-2.3,3.45,3.45,0,0,0-5-1.54l-.5-.55a4.29,4.29,0,0,1,2-.91A.9.9,0,0,1-3.24-3Z"/>
<rect fill="none" x="-12" y="-12" width="24" height="24"/>
</symbol>
<symbol id="helictites" viewBox="-12 -12 24 24">
<path d="M-4.59-7.92h.79v7.7l3.41,0V-7.92H.39V-.17L4.2-.12h.39v8H3.8V.6L.39.55V7.92H-.39V.55L-4.2.5l-.39,0v-8.4Z"/>
<rect fill="none" x="-12" y="-12" width="24" height="24"/>
</symbol>
<symbol id="human" viewBox="-12 -12 24 24">
<path d="M-3.59-3.29A5.13,5.13,0,0,1,0-4.66,5.13,5.13,0,0,1,3.59-3.29,4.3,4.3,0,0,1,5.09,0a4.3,4.3,0,0,1-1.5,3.29A5.13,5.13,0,0,1,0,4.66,5.13,5.13,0,0,1-3.59,3.29,4.3,4.3,0,0,1-5.09,0,4.3,4.3,0,0,1-3.59-3.29Zm.28.77A3.68,3.68,0,0,0-4.3,0a3.62,3.62,0,0,0,1,2.57L-.5.05ZM0-3.94A4.42,4.42,0,0,0-2.75-3L.16-.36H4.28A3.62,3.62,0,0,0,2.91-2.9,4.38,4.38,0,0,0,0-3.94ZM.16.46-2.7,3.07A4.42,4.42,0,0,0,0,3.94a4.37,4.37,0,0,0,2.87-1A3.78,3.78,0,0,0,4.28.46Z"/>
<rect fill="none" x="-12" y="-12" width="24" height="24"/>
</symbol>
<symbol id="karren" viewBox="-12 -12 24 24">
<path d="M1-5.84h0a1.37,1.37,0,0,1,1.06.68A3.33,3.33,0,0,1,2.5-3.79,25.79,25.79,0,0,1,2.36,0a18.61,18.61,0,0,0-.08,3.72,2.68,2.68,0,0,0,.41,1.2,1.13,1.13,0,0,0,.79.5A.92.92,0,0,0,4,4.94a4.43,4.43,0,0,0,.47-1.22c.16-.64.36-1.86.59-3.66a26.71,26.71,0,0,1,.64-3.69,4.62,4.62,0,0,1,.57-1.29,1.34,1.34,0,0,1,1-.59h0A1.28,1.28,0,0,1,8.37-5a2.17,2.17,0,0,1,.39,1.15A19.91,19.91,0,0,1,8.54-.53a21.51,21.51,0,0,0-.2,3.64A2.64,2.64,0,0,0,9.45,5.36,1.91,1.91,0,0,0,10.88,5a3.84,3.84,0,0,0,.7-1l.42.2-.1.18-.12.21-.11.18L11.52,5a.94.94,0,0,1-.14.16c-.06.07-.13.12-.19.18a2.5,2.5,0,0,1-1.85.41H9.29l0,0A3.06,3.06,0,0,1,7.87,3.13a22.11,22.11,0,0,1,.2-3.7,18.17,18.17,0,0,0,.22-3.28A1.85,1.85,0,0,0,8-4.79a.77.77,0,0,0-.67-.3.93.93,0,0,0-.64.42,4.51,4.51,0,0,0-.51,1.15A26.26,26.26,0,0,0,5.54.1c-.24,1.83-.45,3.07-.61,3.72a5.38,5.38,0,0,1-.51,1.34,1.33,1.33,0,0,1-.89.68H3.47A1.58,1.58,0,0,1,2.3,5.16a3.29,3.29,0,0,1-.49-1.4A20.27,20.27,0,0,1,1.89,0,23.45,23.45,0,0,0,2-3.75a2.94,2.94,0,0,0-.32-1.19A.93.93,0,0,0,1-5.42,1.1,1.1,0,0,0,.19-5,3.69,3.69,0,0,0-.43-3.76,20.78,20.78,0,0,0-1.07.07c-.2,2-.37,3.32-.49,3.86A4.48,4.48,0,0,1-2,5.26,1.06,1.06,0,0,1-3,5.81h0a1.9,1.9,0,0,1-1.29-.67,2.7,2.7,0,0,1-.58-1.31,14.92,14.92,0,0,1,0-3.6q0-.12.06-.54c0-.28,0-.47,0-.57s0-.28,0-.52,0-.42,0-.55,0-.28,0-.47,0-.36,0-.51,0-.29,0-.43A3.09,3.09,0,0,0-5-4.62a1.19,1.19,0,0,0-.67-.6,1.5,1.5,0,0,0-1.2.9A7,7,0,0,0-7.41-2.1c0,.39-.1,1-.14,1.76s-.11,1.47-.18,2.08A9.61,9.61,0,0,1-8,3.32h0l0,0A2.81,2.81,0,0,1-9.2,4.62a1.82,1.82,0,0,1-1.35.15A1.94,1.94,0,0,1-11.61,4,2.39,2.39,0,0,1-12,2.56l.47,0a1.92,1.92,0,0,0,.31,1.16,1.47,1.47,0,0,0,.81.62,1.3,1.3,0,0,0,1-.11A2.32,2.32,0,0,0-8.5,3.18a7.53,7.53,0,0,0,.29-1.5Q-8.1.8-8-.36c0-.78.1-1.37.16-1.78A7.23,7.23,0,0,1-7.28-4.5,1.93,1.93,0,0,1-5.65-5.66h.05l0,0a1.59,1.59,0,0,1,1,.84,3.47,3.47,0,0,1,.34,1.41,4.91,4.91,0,0,1,0,.57v.54c0,.15,0,.37,0,.66s0,.47,0,.58,0,.33-.06.68,0,.56-.06.63a14.78,14.78,0,0,0,0,3.49,2.58,2.58,0,0,0,.5,1.13,1.57,1.57,0,0,0,1,.5A.61.61,0,0,0-2.44,5,3.89,3.89,0,0,0-2,3.85C-1.9,3.31-1.74,2-1.53,0A20.65,20.65,0,0,1-.86-3.89,3.89,3.89,0,0,1-.18-5.26,1.58,1.58,0,0,1,1-5.84Z"/>
<rect fill="none" x="-12" y="-12" width="24" height="24"/>
</symbol>
<symbol id="moonmilk" viewBox="-12 -12 24 24">
<path d="M-4.78-3.06a3.39,3.39,0,0,1,1.5.34,2.48,2.48,0,0,1,1.1,1,3.74,3.74,0,0,1,1.62-.8,3.52,3.52,0,0,1,1.71,0,2.9,2.9,0,0,1,1.39.77A2.49,2.49,0,0,1,3.25-.37,4,4,0,0,1,5-.76a3.58,3.58,0,0,1,1.6.36A2.84,2.84,0,0,1,7.88.92a2.32,2.32,0,0,1,0,1.88.34.34,0,0,1-.37.26A.36.36,0,0,1,7.25,3a.32.32,0,0,1-.12-.25.21.21,0,0,1,0-.12,2,2,0,0,0,0-1.43,2,2,0,0,0-1-.9A2.81,2.81,0,0,0,4.68,0,2.78,2.78,0,0,0,3.12.56L2.46.25A1.7,1.7,0,0,0,2.15-1.1,2.15,2.15,0,0,0,1-1.81a2.85,2.85,0,0,0-1.58.06A3,3,0,0,0-2-.83l-.71-.12A1.74,1.74,0,0,0-3.55-2a2.36,2.36,0,0,0-1.39-.27,3.08,3.08,0,0,0-1.45.53A2.33,2.33,0,0,0-7.32-.56a.35.35,0,0,1-.37.24A.39.39,0,0,1-8-.42a.33.33,0,0,1-.1-.26v-.1A3,3,0,0,1-6.89-2.35,4,4,0,0,1-5-3Z"/>
<rect fill="none" x="-12" y="-12" width="24" height="24"/>
</symbol>
<symbol id="narrow" viewBox="-12 -12 24 24">
<path d="M-1.5,5V-5h0.64V5H-1.5z"/>
<path d="M0.86,5V-5H1.5V5H0.86z"/>
<rect fill="none" x="-12" y="-12" width="24" height="24"/>
</symbol>
<symbol id="paleoflow" viewBox="-12 -12 24 24">
<path d="M.38-12V.17A1.9,1.9,0,0,0,1,0,1.57,1.57,0,0,0,1.7-.72a1.86,1.86,0,0,0,.23-1c0-.09,0-.14.08-.16a.92.92,0,0,1,.24,0,.52.52,0,0,0,.25,0h.08A2.48,2.48,0,0,1,2,0,2.5,2.5,0,0,1,.38.77V7.21H2.09L0,12-1.8,7.23c.07,0,.59,0,1.53,0V.77A3,3,0,0,1-1.35.43a2.16,2.16,0,0,1-1-1,2.38,2.38,0,0,1-.24-1.33l.67,0a2,2,0,0,0,.15,1,1.73,1.73,0,0,0,.59.67A2.14,2.14,0,0,0-.27.16V-12Z"/>
<rect fill="none" x="-12" y="-12" width="24" height="24"/>
</symbol>
<symbol id="rain" viewBox="-12 -12 24 24">
<path d="M-4.14-6.34h0.71v4.69h-0.71V-6.34z"/>
<path d="M-0.35-6.34h0.71v4.69h-0.71V-6.34z"/>
<path d="M3.43-6.34h0.71v4.69H3.43V-6.34z"/>
<path d="M-4.14,1.65h0.71v4.69h-0.71V1.65z"/>
<path d="M-0.35,1.65h0.71v4.69h-0.71V1.65z"/>
<path d="M3.43,1.65h0.71v4.69H3.43V1.65z"/>
<rect fill="none" x="-12" y="-12" width="24" height="24"/>
</symbol>
<symbol id="rats" viewBox="-12 -12 24 24">
<path d="M8.78-2.32,7-2.27c-.51-.17-.65-.56-1.46-.45l-.25.45C3.59-2.75,2.59-3.66.56-3.62l-1.35.3A4.89,4.89,0,0,0-4.24,1.57c-.68.6-2.58.86-3.39.94a6.84,6.84,0,0,0-1.62.39,4.91,4.91,0,0,0-1,.52A1.75,1.75,0,0,0-11,4.61a1.16,1.16,0,0,0,.59,1.48,1.3,1.3,0,0,1,.14.12c.16-.52-.35-.92-.2-1.42a3.35,3.35,0,0,1,.27-.45,3.18,3.18,0,0,1,1.79-1c.63-.12,1.27-.22,1.91-.3.48-.07,1,0,1.4-.12A6.94,6.94,0,0,1-4,2.82,30.64,30.64,0,0,0,.41,2.69l2.16.15c.1-.09,0,0,.1-.15a.87.87,0,0,0-.9-.55c.86-1,2.27-.37,3.1-.05.5.19,1,0,1.25.4.11-.1.1-.07.15-.25.3,0,.31.07.6.15-.06-.49-.34-.64-1-.6a.78.78,0,0,1,0-.55C6.3.56,7.29.73,8.13.43a13.78,13.78,0,0,0,2.15-.9l.6-.85v-.2A16.9,16.9,0,0,0,8.78-2.32Z"/>
<rect fill="none" x="-12" y="-12" width="24" height="24"/>
</symbol>
<symbol id="sand" viewBox="-12 -12 24 24">
<path d="M-1.58,0.83c0.23,0.2,0.35,0.44,0.36,0.73c0.01,0.29-0.08,0.54-0.28,0.75c-0.2,0.21-0.46,0.32-0.78,0.33c-0.32,0.01-0.6-0.08-0.83-0.26C-3.36,2.19-3.49,1.95-3.5,1.67C-3.51,1.38-3.41,1.12-3.2,0.9c0.21-0.22,0.48-0.34,0.8-0.35C-2.08,0.54-1.81,0.64-1.58,0.83z"/>
<path d="M0.08-2.36c0.23,0.2,0.35,0.44,0.36,0.73c0.01,0.29-0.08,0.54-0.28,0.75c-0.2,0.21-0.46,0.32-0.78,0.33c-0.32,0.01-0.59-0.07-0.83-0.26s-0.37-0.42-0.38-0.71c-0.01-0.29,0.09-0.54,0.3-0.76c0.21-0.22,0.48-0.33,0.8-0.35C-0.42-2.65-0.14-2.56,0.08-2.36z"/>
<path d="M3.12,0.55c0.23,0.2,0.35,0.43,0.38,0.71c0.02,0.28-0.07,0.53-0.28,0.75C3,2.23,2.73,2.35,2.42,2.36C2.1,2.37,1.82,2.28,1.58,2.08C1.34,1.88,1.22,1.64,1.2,1.35c-0.01-0.29,0.09-0.54,0.3-0.75C1.72,0.4,1.99,0.29,2.3,0.28S2.89,0.36,3.12,0.55z"/>
<rect fill="none" x="-12" y="-12" width="24" height="24"/>
</symbol>
<symbol  id="scallops" viewBox="-12 -12 24 24">
<path d="M.05-3.74l.21,0A2.35,2.35,0,0,1,1.74-3a2,2,0,0,1,.59,1.55v0l0,0A9.59,9.59,0,0,1-.08,3.27l-.39.47-.27-.55A14.26,14.26,0,0,1-2.33-1.89v-.05l0-.05A2,2,0,0,1-1.44-3.3,2.42,2.42,0,0,1,.05-3.74ZM-.11-3A1.44,1.44,0,0,0-1.55-1.89,13.06,13.06,0,0,0-.29,2.33,8.6,8.6,0,0,0,1.55-1.54a1.41,1.41,0,0,0-.38-1A1.62,1.62,0,0,0,.18-3Z"/>
<rect fill="none" x="-12" y="-12" width="24" height="24"/>
</symbol>
<symbol  id="sink" viewBox="-12 -12 24 24">
<path d="M.72,9.41H.9c1.94,0,3.26-.54,3.94-1.51a3.61,3.61,0,0,0,.33-.69,2,2,0,0,0,.11-.54V6.46l.69,0a2.8,2.8,0,0,1-.58,1.78C4.58,9.39,3.1,10,.93,10H-.93q-3.25,0-4.46-1.8a2.74,2.74,0,0,1-.43-.83A2.37,2.37,0,0,1-6,6.67V6.43l.68,0A2.27,2.27,0,0,0-4.84,7.9c.68,1,2,1.47,3.93,1.48l.5,0ZM-1.46-10a.68.68,0,0,0,.16.41A2.77,2.77,0,0,0-.51-9l0,0a3.63,3.63,0,0,1,1,.7,1.15,1.15,0,0,1,.34.88c0,.58-.53,1.14-1.49,1.68-.68.42-1,.79-1,1.11s.3.61.84,1h0Q.61-2.86.46-1.78a3.51,3.51,0,0,1-1.55,2,.61.61,0,0,0-.26.41,1.67,1.67,0,0,0,.1.51,5.3,5.3,0,0,1,.32,1L.56,1.9.46,8.06-3.4,2.54l1.73-.28A6.16,6.16,0,0,0-2,1.39,1.7,1.7,0,0,1-2.09.58a1.21,1.21,0,0,1,.53-.82h0v0C-.75-.86-.33-1.38-.28-1.85s-.23-.87-.91-1.27h0C-2-3.6-2.37-4.1-2.4-4.61S-2-5.74-1.09-6.29C-.34-6.72.06-7.1.09-7.44a.67.67,0,0,0-.18-.43,3.17,3.17,0,0,0-.79-.58,2.93,2.93,0,0,1-1-.67A1.16,1.16,0,0,1-2.17-10Z"/>
<rect fill="none" x="-12" y="-12" width="24" height="24"/>
</symbol>
<symbol  id="spring" viewBox="-12 -12 24 24">
<path d="M-1.34-9.86,2.52-4.34.78-4.06a8,8,0,0,0,.29.87,1.4,1.4,0,0,1,.13.79,1.3,1.3,0,0,1-.52.84l0,0v0C-.13-.95-.55-.42-.61,0S-.37.91.31,1.3l0,0c.75.46,1.14,1,1.18,1.46S1.12,3.92.21,4.46C-.54,4.9-.94,5.29-1,5.64a.74.74,0,0,0,.18.43A3.2,3.2,0,0,0,0,6.62a3,3,0,0,1,1,.7,1.14,1.14,0,0,1,.31.86A1.74,1.74,0,0,1,.71,9.26H.92c1.92,0,3.22-.52,3.9-1.51a2.05,2.05,0,0,0,.35-.67,2.59,2.59,0,0,0,.1-.55l0-.19.65,0a2.84,2.84,0,0,1-.55,1.8C4.58,9.26,3.08,9.85.92,9.86H-.92c-2.17,0-3.66-.6-4.49-1.77a3.65,3.65,0,0,1-.4-.85A2.43,2.43,0,0,1-6,6.53V6.29l.66,0a2.08,2.08,0,0,0,.47,1.41c.68,1,2,1.5,3.91,1.51H-.4c.62-.43.94-.8,1-1.1a.76.76,0,0,0-.16-.43,3.25,3.25,0,0,0-.79-.51v0a3.8,3.8,0,0,1-1-.7,1.15,1.15,0,0,1-.34-.91q.06-.84,1.5-1.68c.68-.4,1-.77,1-1.1S.49,2.21,0,1.87c0,0,0,0,0,0C-1,1.32-1.44.69-1.34,0a3.58,3.58,0,0,1,1.55-2,.54.54,0,0,0,.23-.38A1.28,1.28,0,0,0,.37-3a4.57,4.57,0,0,1-.32-1l-1.49.24Z"/>
<rect fill="none" x="-12" y="-12" width="24" height="24"/>
</symbol>
<symbol  id="stalactite" viewBox="-12 -12 24 24">
<path d="M3.57-6.69l.52.53L.39-3V6.12H-.39V-3l-3.7-3.14.52-.53L0-3.67Z"/>
<rect fill="none" x="-12" y="-12" width="24" height="24"/>
</symbol>
<symbol  id="stalagmite" viewBox="-12 -12 24 24">
<path d="M.38-6.42V2.75L4.11,5.89l-.56.53L0,3.4l-3.57,3-.53-.53,3.7-3.14V-6.42Z"/>
<rect fill="none" x="-12" y="-12" width="24" height="24"/>
</symbol>
<symbol  id="stalagnate" viewBox="-12 -12 24 24">
<path d="M3.55-8.46l.56.53L.38-4.78v9L4.11,7.36l-.56.53L0,4.86l-3.57,3-.53-.53,3.7-3.14v-9l-3.7-3.15.53-.53L0-5.43Z"/>
<rect fill="none" x="-12" y="-12" width="24" height="24"/>
</symbol>
<symbol  id="straws" viewBox="-12 -12 24 24">
<path d="M-10.89-2.76H10.89V-2H9.63V.46H8.84V-2H8.29v5.6H7.5V-2H5.56V.7H4.77V-2H2.07V2.38H1.29V-2H-.1v3H-.89V-2H-3.2V4.11H-4V-2H-6.22L-6.16.75l-.79,0L-7-2H-8.32V2.33H-9.1V-2h-1.79Z"/>
<rect fill="none" x="-12" y="-12" width="24" height="24"/>
</symbol>
<symbol  id="water" viewBox="-12 -12 24 24">
<path d="M-1.72-9.86,2.11-4.32.38-4.06a6.49,6.49,0,0,0,.29.89,1.5,1.5,0,0,1,.13.79,1.2,1.2,0,0,1-.5.82h0l0,0C-.54-.94-1-.42-1,.05s.24.89.92,1.27h0c.77.48,1.17,1,1.19,1.49S.71,3.94-.2,4.49c-.75.43-1.13.81-1.15,1.15a.51.51,0,0,0,.18.43,2.66,2.66,0,0,0,.76.58,2.93,2.93,0,0,1,1,.67,1.16,1.16,0,0,1,.29.89C.84,8.75.42,9.3-.41,9.86l-.44-.55c.66-.45,1-.83,1-1.15A.47.47,0,0,0,0,7.75a2.84,2.84,0,0,0-.78-.53h0a3.87,3.87,0,0,1-1-.69,1.24,1.24,0,0,1-.34-.91c0-.58.54-1.14,1.52-1.68.66-.42,1-.79,1-1.11s-.3-.61-.84-1h0Q-1.9,1.06-1.74,0a3.44,3.44,0,0,1,1.54-2,.67.67,0,0,0,.27-.41A1.11,1.11,0,0,0,0-3a4.33,4.33,0,0,1-.31-1l-1.5.24Z"/>
<rect fill="none" x="-12" y="-12" width="24" height="24"/>
</symbol><symbol  id="tree" viewBox="-12 -12 24 24">
<path d="M7.4-5.04A4.271,4.271,0,0,0,7.7-6.627a4.3,4.3,0,0,0-4.3-4.3A4.279,4.279,0,0,0,.636-9.914,4.293,4.293,0,0,0-3.045-12a4.3,4.3,0,0,0-4.3,4.3,4.27,4.27,0,0,0,.421,1.845,4.3,4.3,0,0,0-3.645,4.244,4.3,4.3,0,0,0,4.3,4.3A4.282,4.282,0,0,0-3.946,2L-1.175,5.23h0L-1.612,12H.982L.757,6.376,4.119,2.827v0a4.272,4.272,0,0,0,2.15.58,4.3,4.3,0,0,0,4.3-4.3A4.3,4.3,0,0,0,7.4-5.04ZM-3.346,1.538h0A4.346,4.346,0,0,0-2.7.788a4.266,4.266,0,0,0,1.765.753l-.135,2.087ZM.69,4.7.563,1.544A4.258,4.258,0,0,0,2.321.805,4.3,4.3,0,0,0,3.378,2.279Z"/>
<rect fill="none" x="-12" y="-12" width="24" height="24"/>
</symbol><g>
<desc></desc>
<g>
<line fill="none" stroke="#dddddd" stroke-width="0.1mm" x1="0.00" y1="52.00" x2="137.00" y2="52.00" />
<text x="134.20" y="51.80" font-size=".2mm" fill="#000000">0m</text>
<line fill="none" stroke="#dddddd" stroke-width="0.1mm" x1="0.00" y1="32.00" x2="137.00" y2="32.00" />
<text x="134.20" y="31.80" font-size=".2mm" fill="#000000">10m</text>
<line fill="none" stroke="#dddddd" stroke-width="0.1mm" x1="0.00" y1="12.00" x2="137.00" y2="12.00" />
<text x="134.20" y="11.80" font-size=".2mm" fill="#000000">20m</text>
<line fill="none" stroke="#dddddd" stroke-width="0.1mm" x1="0.00" y1="72.00" x2="137.00" y2="72.00" />
<text x="134.20" y="71.80" font-size=".2mm" fill="#000000">-10m</text>
<line fill="none" stroke="#dddddd" stroke-width="0.1mm" x1="0.00" y1="92.00" x2="137.00" y2="92.00" />
<text x="134.20" y="91.80" font-size=".2mm" fill="#000000">-20m</text>
<line fill="none" stroke="#dddddd" stroke-width="0.1mm" x1="0.00" y1="112.00" x2="137.00" y2="112.00" />
<text x="134.20" y="111.80" font-size=".2mm" fill="#000000">-30m</text>
<line fill="none" stroke="#dddddd" stroke-width="0.1mm" x1="0.00" y1="132.00" x2="137.00" y2="132.00" />
<text x="134.20" y="131.80" font-size=".2mm" fill="#000000">-40m</text>
</g>
<g>
<path fill="none" stroke="#000000" stroke-width="0.06mm" stroke-dasharray="0.3mm,0.1mm" d="M41.69323,56.44749 C41.257744,56.280712 40.822044,56.114475 40.386765,55.94715 C40.30639,55.916256 40.274094,55.892548 40.181656,55.88937 C38.802414,55.841995 38.916496,55.97549 36.887398,56.675396 C35.296448,57.22417 33.76867,57.958527 32.152534,58.427967 C30.673615,58.85755 29.13807,59.06057 27.628386,59.36488 C27.025167,59.486473 27.314342,59.334003 26.99374,59.536198 L26.99374,59.536198" /><path fill="none" stroke="#000000" stroke-width="0.06mm" stroke-dasharray="0.3mm,0.1mm" d="M24.013823,56.891544 C23.942095,57.18331 23.853807,57.471504 23.798637,57.76685 C23.774258,57.897366 23.765347,58.03219 23.776035,58.16453 C23.85391,59.128742 23.927397,60.0946 24.063988,61.05226 C24.311031,62.784325 24.579893,63.119755 24.983202,64.84056 C25.09396,65.31313 25.155403,65.79592 25.241505,66.273605 L25.241505,66.273605" /><path fill="none" stroke="#000000" stroke-width="0.06mm" stroke-dasharray="0.3mm,0.1mm" d="M27.120186,59.86431 C27.006927,59.939564 26.884344,60.00238 26.78041,60.09006 C26.589132,60.251434 26.401432,60.419563 26.23769,60.608818 C25.80913,61.10415 25.314217,61.91869 25.02705,62.466988 C24.852703,62.799873 24.675545,63.346676 24.647173,63.72326 C24.63681,63.8608 24.6847,63.99656 24.703465,64.13321 L24.703465,64.13321" /><path fill="none" stroke="#000000" stroke-width="0.06mm" stroke-dasharray="0.3mm,0.1mm" d="M18.71963,55.958096 C18.84351,56.24628 18.997921,56.53557 19.033112,56.854713 C19.261053,58.92193 19.27,59.741695 19.16045,61.950256 C18.923378,66.72964 18.921124,66.08475 18.909874,64.95964 L18.909874,64.95964" /><path fill="none" stroke="#000000" stroke-width="0.06mm" stroke-dasharray="0.3mm,0.1mm" d="M18.942574,55.681625 C18.96569,55.503597 18.983757,55.324837 19.011929,55.147537 C19.041212,54.963245 19.101162,54.783375 19.114866,54.59728 C19.129519,54.398327 19.05505,53.336586 19.051851,53.217476 C19.04668,53.02495 19.159588,52.783478 19.201649,52.626186 C19.210894,52.591614 19.221731,52.553867 19.212273,52.519356 C19.180143,52.402096 19.123632,52.292923 19.079311,52.179707 L19.079311,52.179707" /><path fill="none" stroke="#000000" stroke-width="0.06mm" stroke-dasharray="0.3mm,0.1mm" d="M45.50313,53.374603 C45.553997,53.55361 47.476284,52.599163 48.163933,52.816704 C48.56517,52.943638 48.957092,53.09838 49.352097,53.243553 C49.84402,53.424347 49.727646,53.44918 50.453045,53.545353 C50.85531,53.598686 51.26293,53.598545 51.66715,53.63411 C51.756226,53.64195 51.855183,53.718086 51.897533,53.79409 C51.904026,53.805744 51.902138,53.8204 51.903442,53.833675 C51.9149,53.95012 51.925034,54.06669 51.93583,54.183197 L51.93583,54.183197" /><path fill="none" stroke="#000000" stroke-width="0.06mm" stroke-dasharray="0.3mm,0.1mm" d="M41.5,56.68 C41.68197,56.489944 41.849277,56.284676 42.045906,56.10983 C42.29711,55.886444 42.585453,55.70775 42.84012,55.488316 C43.163864,55.20935 43.445126,54.881916 43.77963,54.615936 C43.86915,54.544754 44.806824,53.861908 45.228813,53.658546 C45.29647,53.62594 45.369602,53.606182 45.44,53.58 L45.44,53.58" /><path fill="none" stroke="#000000" stroke-width="0.06mm" stroke-dasharray="0.3mm,0.1mm" d="M52.049576,53.925465 C52.217583,53.927685 52.544914,53.902554 52.72831,53.986324 C53.255657,54.22721 53.744396,54.554348 54.28778,54.75647 C55.614094,55.249813 55.519066,55.023552 56.497868,55.288364 C57.25493,55.493187 58.00574,55.72043 58.759678,55.936462 L58.759678,55.936462" /><path fill="none" stroke="#000000" stroke-width="0.06mm" d="M77.449036,91.94083 C76.963234,91.990036 77.25545,91.99643 76.58338,91.801025 L76.58338,91.801025" /><path fill="none" stroke="#000000" stroke-width="0.06mm" stroke-dasharray="0.3mm,0.1mm" d="M59.025433,56.26931 C59.478745,56.275135 59.732174,56.295025 60.209324,56.21095 C60.340946,56.18776 60.465763,56.134205 60.589764,56.084343 C61.27881,55.807266 61.95155,55.489307 62.647648,55.23046 C62.90845,55.13348 63.177265,55.033447 63.45513,55.018852 C64.40573,54.96892 65.359634,55.000595 66.31081,55.038048 C69.60521,55.16777 68.37373,55.61168 69.469864,55.196274 L69.469864,55.196274" /><path fill="none" stroke="#000000" stroke-width="0.06mm" d="M73.99054,38.93395 L73.839005,38.959175" /><path fill="none" stroke="#000000" stroke-width="0.06mm" d="M74.39021,38.783348 C74.448326,38.672813 74.50223,38.55995 74.56456,38.451744 C74.6846,38.243366 74.74928,38.22353 74.8032,37.98736 C74.98649,37.184444 74.911285,36.97552 75.24243,36.34547 C75.436195,35.9768 75.67373,35.632385 75.8699,35.26499 C76.078384,34.87456 76.04759,34.624 76.1933,34.165512 C76.26077,33.95319 76.36801,33.755455 76.446075,33.54679 C76.482666,33.448997 76.49974,33.344585 76.53691,33.24701 C76.55926,33.188354 76.58952,33.132523 76.623886,33.08 C76.66578,33.015984 76.71763,32.959053 76.76477,32.8988 C76.77309,32.888184 76.78943,32.88085 76.79025,32.867393 C76.79507,32.7885 76.78418,32.70943 76.78114,32.630447 L76.78114,32.630447" /><path fill="none" stroke="#000000" stroke-width="0.06mm" d="M74.52666,42.939034 L74.52708,42.954956" /><path fill="none" stroke="#000000" stroke-width="0.06mm" stroke-dasharray="0.3mm,0.1mm" d="M84.885605,47.48909 C85.92975,47.417618 86.973785,47.344494 88.018036,47.274673 C88.1824,47.263683 88.363785,47.261257 88.49112,47.134445 C89.25969,46.36904 89.001465,46.442055 90.073944,46.092667 C90.15785,46.065334 90.24724,46.047108 90.33539,46.05107 C91.15616,46.087975 91.83174,46.477062 92.29255,45.715652 C92.90997,44.69543 92.44546,45.26515 92.88524,44.756798 L92.88524,44.756798" /><path fill="none" stroke="#000000" stroke-width="0.06mm" d="M111.124306,33.040993 C110.158264,32.96071 109.0723,32.95927 108.209305,32.424202 C107.89847,32.23148 107.408554,31.543331 107.3295,31.471428 C103.16321,27.68215 106.45203,30.69833 104.22545,29.037676 C103.82366,28.738007 103.61396,28.249573 103.11718,28.081839 C102.563385,27.894854 101.957146,27.88499 101.3834,27.87908 C101.05852,27.875732 100.73472,27.954971 100.41038,27.93603 C100.02593,27.913578 99.28386,27.764877 98.93534,27.491035 C98.8899,27.455336 98.84695,27.415737 98.809875,27.37141 C98.61793,27.14189 98.45244,26.890009 98.249115,26.670498 C97.754105,26.136068 97.02804,25.70491 96.479805,25.282265 C96.43063,25.24435 96.02019,24.787333 95.8452,24.899233 C95.69104,24.997808 95.55643,25.124031 95.41203,25.236431 L95.41203,25.236431" /><path fill="none" stroke="#000000" stroke-width="0.06mm" d="M95.22107,19.545437 C95.68136,19.84288 95.86727,19.769932 96.45632,19.892254 C96.606995,19.923542 96.7921,20.017109 96.91829,20.10472 C96.97369,20.143175 97.02806,20.185045 97.07215,20.236065 C97.71551,20.98056 97.06705,20.306076 97.71681,21.288273 C97.82433,21.450804 97.96999,21.584745 98.10268,21.727474 C98.57642,22.237093 99.06541,22.73249 99.53592,23.245102 C99.70839,23.433006 99.65931,23.463806 99.82634,23.582674 C100.12612,23.796007 100.33475,23.722563 100.6756,23.79212 C100.82027,23.821642 100.96401,23.860895 101.10057,23.917042 C101.44444,24.058428 101.901955,24.350792 102.19519,24.551882 C102.28245,24.61172 102.354965,24.691435 102.442635,24.750673 C102.50049,24.789766 102.5646,24.819576 102.629486,24.845362 C103.16895,25.059736 103.72042,25.244074 104.254814,25.470795 C104.70728,25.66276 104.89995,26.191242 105.33656,26.40412 C105.65704,26.560375 105.98452,26.701838 106.30851,26.850697 C106.67744,27.057093 107.03858,27.278078 107.4153,27.46988 C107.63318,27.580809 107.87063,27.649637 108.08995,27.757683 C108.253845,27.838423 108.37429,27.97089 108.53021,28.0624 C108.719246,28.173342 108.86044,28.199066 109.08294,28.249395 C109.4776,28.338669 109.55321,28.300793 109.948685,28.52518 C110.88923,29.05882 110.62281,29.01974 111.47692,29.707846 C111.571465,29.784012 111.6799,29.841995 111.78796,29.89734 C111.99349,30.002617 111.8699,29.611877 111.86299,29.575808 L111.86299,29.575808" /><path fill="none" stroke="#000000" stroke-width="0.06mm" d="M76.75873,32.626057 C77.00661,32.276302 77.24278,31.74499 77.66942,31.532686 C78.434364,31.15203 78.01903,31.462149 78.9496,31.061121 C79.23651,30.937479 79.50013,30.765087 79.78204,30.630451 C79.97527,30.538168 80.18416,30.479967 80.37398,30.380869 C80.84757,30.133627 81.105225,29.861979 81.48135,29.454844 C81.760475,29.15271 81.88484,28.683788 81.936485,28.293312 C82.24812,25.93717 82.0401,25.066544 82.76171,23.290253 C82.94833,22.830872 83.22629,22.297682 83.6322,21.97763 C84.572815,21.235958 87.47999,20.928295 87.87616,20.841185 C87.94351,20.826374 88.00444,20.789438 88.06449,20.755526 C88.30409,20.620213 88.52212,20.444168 88.77427,20.333986 C89.10499,20.189476 89.45061,20.074411 89.80289,19.995914 C90.061844,19.938213 90.33073,19.936123 90.59592,19.92807 C91.39193,19.903904 92.189865,19.945843 92.984886,19.899303 C93.57162,19.86496 94.14997,19.740948 94.73511,19.685772 C94.97618,19.663044 95.36948,19.746868 95.58428,19.781754 L95.58428,19.781754" /><path fill="none" stroke="#000000" stroke-width="0.06mm" d="M95.20795,25.32209 C94.99113,26.356518 94.83746,26.836054 94.79809,27.845915 C94.789314,28.071007 94.841774,28.295254 94.838524,28.520494 C94.83183,28.984913 94.55798,29.733467 94.53526,30.080406 C94.433395,31.635866 94.42496,33.196266 94.40247,34.754894 C94.39824,35.04859 94.43758,35.3413 94.45514,35.634502 C94.41437,35.98609 94.346115,36.335575 94.33281,36.689274 C94.32336,36.94085 94.43812,37.505405 94.34938,37.862633 C94.33261,37.930145 94.31408,37.99887 94.27969,38.05934 C94.031555,38.495667 93.78879,38.936718 93.50364,39.349808 C93.211136,39.773556 92.530785,40.415886 92.28056,41.037254 C92.01294,41.701813 92.29006,42.81202 92.334564,43.402103 C92.36369,43.788403 92.2679,44.249054 91.95324,44.504993 C91.441925,44.920895 90.08984,44.761524 89.73266,44.790222 C89.04927,44.845127 88.81197,44.98007 88.2501,45.286556 L88.2501,45.286556" /><path fill="none" stroke="#924216" stroke-width="0.02mm" d="M88.223854,30.481693 C88.62685,30.476086 89.031425,30.501064 89.43283,30.46487 C89.93992,30.41915 90.54953,30.135183 91.08438,30.316555 C91.179474,30.348803 91.287186,30.420914 91.35821,30.487862 C91.77376,30.879572 92.17775,31.283377 92.59124,31.677263 C92.64241,31.726013 92.701256,31.766325 92.75196,31.815565 C92.79912,31.861362 92.83925,31.977852 92.817505,32.04248 C92.51315,32.947056 92.20264,33.84958 91.88597,34.749916 C91.869965,34.795425 91.81335,34.858784 91.77697,34.888535 C91.65181,34.9909 91.478,34.99369 91.34538,35.08327 C90.86213,35.40972 90.40522,35.77366 89.929344,36.11077 C89.88995,36.138668 89.80633,36.157166 89.75957,36.16017 C89.34126,36.187057 88.27207,35.497513 88.15931,35.426193 C86.42084,34.32673 87.54198,34.854332 86.81479,34.53118 C86.69459,34.477768 86.58878,34.41741 86.511246,34.305 C86.24761,33.92276 86.32235,33.868843 86.063515,33.335842 C85.98021,33.164295 85.8626,33.011368 85.77212,32.8435 C85.72296,32.752304 85.83195,32.668526 85.889046,32.624 C86.655716,32.0262 87.42853,31.436188 88.18869,30.83012 C88.26091,30.77254 88.32594,30.629665 88.31477,30.536179 C88.30272,30.43532 88.2775,30.336475 88.25886,30.236622 L88.25886,30.236622" /><path fill="none" stroke="#924216" stroke-width="0.02mm" d="M88.32888,30.547338 C88.8105,32.794876 88.471695,31.029272 88.845345,33.68152 C88.86356,33.81082 88.91679,34.035904 89.1027,34.00537 C89.26331,33.97899 89.429955,33.96849 89.58132,33.908646 C90.109764,33.69972 90.63033,33.467674 91.132996,33.20266 C92.34333,32.564545 92.152626,32.700775 92.770515,32.022133 L92.770515,32.022133" /><path fill="none" stroke="#924216" stroke-width="0.02mm" d="M88.80586,33.965195 C88.18255,34.094776 87.55924,34.22436 86.935936,34.353943 C86.90636,34.358963 86.87716,34.37043 86.84719,34.368988 C86.72942,34.36334 86.61261,34.344864 86.49532,34.332794 L86.49532,34.332794" /><path fill="none" stroke="#924216" stroke-width="0.02mm" d="M85.69014,32.75297 C85.67962,32.884914 85.63962,33.097885 85.68901,33.242256 C85.92281,33.925602 86.182884,34.59971 86.421585,35.281357 C86.45082,35.364838 86.38817,35.476067 86.34342,35.538437 C86.23982,35.682854 86.1224,35.81766 86.02724,35.967773 C85.97469,36.050648 85.92375,36.138573 85.90227,36.23432 C85.70196,37.12685 85.5094,38.022087 85.36352,38.92511 C85.32177,39.183533 85.33663,39.448357 85.34077,39.7101 C85.343,39.851585 85.37332,39.99135 85.3826,40.13255 C85.395485,40.32869 85.13301,40.453648 84.988625,40.499405 C84.40758,40.683533 84.541565,40.52583 83.86716,41.01138 C83.43735,41.320835 83.042534,41.67627 82.634674,42.014137 C82.50928,42.11801 82.38927,42.2847 82.19774,42.229443 C81.79599,42.11355 81.50404,42.00167 81.133354,41.79566 C80.99638,41.719532 80.87831,41.61261 80.74258,41.53431 C80.577286,41.438957 80.41267,41.429768 80.31278,41.26695 C80.29683,41.240936 80.28477,41.212624 80.27348,41.18427 C80.13832,40.84458 80.02046,40.49779 79.87354,40.163025 C79.819084,40.038944 79.74576,39.92355 79.67067,39.81075 C79.50897,39.56783 78.931366,39.17511 78.873085,39.121338 C78.67239,38.93619 78.39705,38.678467 78.26485,38.401703 C78.19797,38.261696 78.159134,38.092785 78.1906,37.937714 C78.22063,37.78976 78.285194,37.648537 78.30052,37.49835 C78.35614,36.953323 78.38595,36.405567 78.40285,35.85797 C78.40781,35.697342 78.37372,35.53779 78.366,35.377266 C78.362625,35.307228 78.41678,35.20466 78.47859,35.17031 C79.01246,34.873688 79.540955,34.56626 80.08762,34.293938 C80.376854,34.149857 80.72681,34.141815 80.99872,33.959778 C81.120895,33.877975 81.239105,33.7892 81.34814,33.690556 C81.76638,33.31218 82.00026,32.85501 82.565414,32.808964 C82.634254,32.803352 82.705055,32.797043 82.77261,32.81141 C83.1166,32.88456 83.446075,33.029392 83.795334,33.070503 C84.4482,33.147354 85.10819,33.142834 85.76523,33.163685 C85.94257,33.16931 85.41177,33.132027 85.23504,33.116196 L85.23504,33.116196" /><path fill="none" stroke="#924216" stroke-width="0.02mm" d="M78.570404,35.387474 C79.57794,35.76583 79.19334,35.6509 80.72067,35.97748 C81.01969,36.04142 81.3833,35.88042 81.61551,35.7078 C81.700775,35.644417 81.78307,35.575405 81.85387,35.49617 C81.95807,35.37954 82.15737,35.03945 82.35574,34.918755 C83.33751,34.32141 81.83434,35.353477 83.5862,34.406105 C84.110794,34.122414 84.5932,33.766838 85.09432,33.443485 C85.23452,33.353024 85.35279,33.220486 85.51005,33.164715 C85.68608,33.10228 85.881004,33.1207 86.06648,33.098694 L86.06648,33.098694" /><path fill="none" stroke="#924216" stroke-width="0.02mm" d="M81.196,35.851357 C81.05403,36.126762 80.81497,36.471836 80.76178,36.812653 C80.71594,37.10635 80.71222,37.40637 80.65413,37.69789 C80.61168,37.91095 80.52107,38.11159 80.461334,38.320465 C80.4557,38.34017 80.45735,38.361435 80.45853,38.3819 C80.471664,38.60949 80.82362,38.7973 80.95766,38.86995 C84.476425,40.77722 83.29339,39.738495 84.46487,40.80527 L84.46487,40.80527" /><path fill="none" stroke="#924216" stroke-width="0.02mm" d="M80.25954,38.481483 C79.615944,39.58128 79.829926,39.141148 79.54187,39.763725 L79.54187,39.763725" /><path fill="none" stroke="#924216" stroke-width="0.02mm" d="M76.98349,39.298603 C76.64756,39.502346 76.30255,39.691845 75.97569,39.909836 C75.933395,39.93804 75.58353,40.172844 75.478836,40.33659 C75.3248,40.577515 75.44633,40.861786 75.70236,40.95826 C75.91443,41.038162 76.08726,40.909393 76.28791,40.98356 C76.45329,41.044685 76.563995,41.15461 76.711,41.26417 C76.74644,41.29059 76.82249,41.385124 76.89349,41.362335 C76.94119,41.347023 76.96683,41.28019 76.97699,41.240738 C77.050964,40.953606 77.11937,40.665047 77.18632,40.376198 C77.22435,40.21211 77.19719,40.2126 77.2702,40.068043 C77.32547,39.958633 77.42226,39.873146 77.41653,39.742016 C77.41093,39.613987 77.32068,39.46694 77.19949,39.417294 C77.19304,39.414646 77.033264,39.366314 77.02702,39.362442 C76.910805,39.290314 76.802536,39.2061 76.69029,39.127934 L76.69029,39.127934" /><path fill="none" stroke="#924216" stroke-width="0.02mm" d="M76.87846,39.416763 C76.6395,39.727165 76.40054,40.037567 76.161575,40.34797 C76.14591,40.383175 76.12605,40.416794 76.11459,40.453583 C76.10671,40.4789 76.06033,40.642803 76.0895,40.69241 C76.12291,40.749207 76.17788,40.790165 76.22206,40.839043 L76.22206,40.839043" /><path fill="none" stroke="#000000" stroke-width="0.06mm" d="M87.83597,45.368465 C87.74323,45.402973 87.65259,45.443733 87.55776,45.47199 C87.48918,45.492424 87.391045,45.48853 87.3221,45.475082 C86.5701,45.328407 86.44263,45.376717 85.97514,45.154667 C85.76132,45.05311 85.55901,44.924873 85.336494,44.84414 C84.81194,44.653828 84.27522,44.498215 83.73912,44.343414 C83.59249,44.301075 83.31006,44.31383 83.17938,44.345245 C82.568436,44.492115 81.962166,44.658607 81.35869,44.833664 C80.90623,44.964916 80.29857,45.349453 79.81206,45.042522 C79.60878,44.914284 79.39699,44.616814 79.29183,44.476288 C79.07327,44.184216 78.913925,43.881134 78.878456,43.515236 C78.85051,43.226944 78.877304,42.74479 78.77731,42.405334 C78.69002,42.108932 78.39746,41.812637 78.18504,41.63383 C78.02737,41.501106 77.59316,41.106163 77.26189,41.078392 C76.72716,41.033566 76.04852,41.721195 75.781235,41.890465 C75.51671,42.057995 75.22583,42.182274 74.96554,42.356308 C74.338196,42.77574 74.70234,42.6527 74.16661,43.089153 C74.089966,43.151596 73.993645,43.184956 73.907166,43.232857 L73.907166,43.232857" /><path fill="none" stroke="#000000" stroke-width="0.06mm" d="M74.379776,42.81711 C73.56486,43.18056 72.77826,43.615692 71.93503,43.907467 C71.5246,44.04948 71.07424,44.026722 70.64769,44.10846 C70.28347,44.178253 69.64962,44.60312 69.481926,44.710705 C69.11537,44.94587 68.97644,45.185127 68.77748,45.560467 C68.73964,45.63186 68.71247,45.708862 68.67118,45.778316 C68.63653,45.836605 68.5983,45.893967 68.55057,45.94215 C68.272766,46.222656 68.007645,46.519737 67.69638,46.762585 C67.02617,47.28546 67.00343,47.054035 66.5865,47.506107 C66.33272,47.78128 66.19918,48.03816 66.063324,48.398457 C65.924255,48.767254 65.879486,49.37514 65.534096,49.692383 C65.137924,50.05627 63.900852,50.364216 63.743168,50.4271 C63.63339,50.47088 63.531612,50.53544 63.43791,50.607464 C63.04825,50.906956 62.706,51.269226 62.295647,51.539673 C61.264584,52.2192 61.318546,51.906475 60.22169,52.361027 C59.90134,52.493782 59.610203,52.688248 59.30446,52.85186 L59.30446,52.85186" /><path fill="none" stroke="#000000" stroke-width="0.06mm" d="M74.497925,38.550262 C73.988464,38.78112 73.66193,39.269737 73.1372,39.471695 C72.05774,39.88716 70.95901,40.25192 69.88332,40.677063 C69.41234,40.863213 68.476074,41.92142 68.428894,41.956825 C67.48722,42.663345 66.46002,43.24872 65.4961,43.92457 C65.23746,44.105923 64.75128,44.873528 64.67566,44.958294 C64.210785,45.47938 63.716236,45.973904 63.213696,46.458763 C63.115143,46.553852 62.991283,46.618744 62.876793,46.693882 C62.443043,46.97855 62.011463,47.266895 61.56915,47.53807 C61.430775,47.622902 61.109978,47.675457 60.98925,47.68062 C59.227257,47.755917 59.993874,47.502678 59.190678,47.810417 L59.190678,47.810417" /><path fill="none" stroke="#000000" stroke-width="0.06mm" d="M45.51358,45.8379 C45.712906,45.9045 45.906155,45.993248 46.111557,46.0377 C46.192326,46.05518 47.721786,46.22656 48.229874,46.479683 C48.74711,46.737373 49.236412,47.048954 49.754787,47.30435 C50.081223,47.46518 50.430676,47.575104 50.76139,47.72694 C51.04573,47.857487 51.318253,48.012413 51.598778,48.15096 C51.739662,48.220535 51.88814,48.274933 52.025482,48.351257 C52.257774,48.48035 52.466217,48.652092 52.706154,48.766365 C52.897938,48.857704 54.376087,49.39477 54.586475,49.436142 C55.13618,49.544235 55.700893,49.554817 56.255417,49.63459 C56.683655,49.696198 57.328083,49.719357 57.725605,50.025932 C58.20566,50.39616 58.462894,51.041225 58.666927,51.59954 C58.76379,51.8646 58.734535,51.935753 58.886642,52.14685 C59.37419,52.823483 58.867374,52.01518 59.513466,52.80841 C59.61194,52.929306 59.676125,53.074474 59.757458,53.207508 L59.757458,53.207508" /><path fill="none" stroke="#000000" stroke-width="0.06mm" d="M59.06605,47.66717 C58.963856,47.631607 58.85918,47.602505 58.75947,47.560474 C58.49944,47.450867 58.266617,47.074017 58.162884,46.88199 C57.95287,46.493233 57.796173,46.07783 57.60201,45.680923 C57.585087,45.646336 57.55727,45.61793 57.530823,45.589947 C57.23384,45.27573 56.538918,45.167583 56.186752,44.98879 C55.574684,44.678036 54.974384,44.34203 54.39388,43.975685 C54.093643,43.786213 53.830475,43.54354 53.550568,43.325153 C53.33952,43.16049 53.184975,43.026722 52.913284,42.96727 C52.69383,42.91925 52.62218,42.941166 52.388153,42.95322 C50.645576,43.042976 48.903755,43.148983 47.1604,43.222134 C46.713585,43.240883 46.47975,42.907967 46.148666,42.662888 C45.918564,42.49256 45.3989,42.306328 45.11229,42.455566 C42.785004,43.667366 43.442978,43.167084 42.450382,43.97361 L42.450382,43.97361" /><path fill="none" stroke="#000000" stroke-width="0.06mm" d="M21.013346,49.242977 C21.251732,49.243477 22.608133,49.139526 23.246195,49.306618 C23.331648,49.329 23.41251,49.366543 23.493637,49.401493 C23.584423,49.440605 23.665354,49.50589 23.761553,49.528645 C24.152348,49.621075 24.555252,49.655403 24.946669,49.745167 C25.147465,49.791218 25.333067,49.89318 25.534727,49.935295 C26.086817,50.050594 26.62151,49.99578 27.180462,49.941242 C27.68626,49.89189 28.017885,49.563564 28.347479,49.209267 C28.504028,49.04098 28.705175,48.70876 28.978373,48.64332 C29.409172,48.540127 30.68282,48.453915 30.732693,48.447277 C30.87865,48.427853 31.02145,48.386147 31.160967,48.339073 C31.894688,48.091515 32.626236,47.836845 33.350895,47.563904 C33.484165,47.513706 33.738678,47.367973 33.852024,47.249886 C34.089783,47.002174 34.410194,46.489605 34.80561,46.34797 C34.943108,46.298717 35.08442,46.259304 35.22724,46.228775 C36.101704,46.04186 36.98792,45.908752 37.85642,45.695854 C38.094845,45.63741 38.317757,45.52537 38.538113,45.41718 C40.817787,44.297886 37.05938,45.615917 42.339497,44.054485 C42.39701,44.03748 42.51561,44.05304 42.569805,44.068993 C42.71069,44.110466 42.871864,44.204594 42.99399,44.267178 L42.99399,44.267178" /><path fill="none" stroke="#000000" stroke-width="0.06mm" d="M45.339523,45.80324 C45.155663,45.876698 44.97673,45.963966 44.78794,46.023613 C44.338657,46.165565 44.05683,46.148067 43.69941,46.364998 C43.31739,46.596855 43.28328,46.76786 42.843132,47.087715 C42.606506,47.259666 42.354897,47.414658 42.088696,47.53588 C41.418106,47.841248 40.75486,48.1885 40.039337,48.36448 C39.459633,48.507057 38.84657,48.424934 38.252083,48.47948 C38.16399,48.487564 38.07788,48.516598 37.996765,48.551895 C37.415028,48.805008 36.106945,49.678818 35.92325,49.771603 C35.57038,49.949837 35.183853,50.053326 34.805824,50.169003 C34.197823,50.35506 34.044758,50.282692 33.59852,50.528656 C33.118404,50.79329 32.802296,51.311333 32.394222,51.650574 C32.199017,51.812855 31.973545,51.93621 31.750809,52.057983 C31.068474,52.431026 30.731018,52.286938 29.820198,52.57543 C29.26843,52.7502 28.764227,53.05675 28.212074,53.2303 C26.812927,53.670067 27.670347,53.183254 26.346432,53.394234 C25.869915,53.47017 25.418056,53.662537 24.944307,53.754173 C24.617336,53.817417 24.278181,53.79773 23.950584,53.85765 C23.417208,53.95521 22.934265,54.239513 22.464811,54.486477 C22.350283,54.546726 22.277496,54.644836 22.258854,54.771446 C22.233452,54.943954 22.41425,55.19443 22.448673,55.273457 L22.448673,55.273457" /><use xlink:href="#water" width="3.6" height="3.6" x="-1.8" y="-1.8" transform="translate(87.33104 44.10465) rotate(202)"/>
</g>
<g>
<line fill="none" stroke="#5674b9" stroke-width="0.04mm" stroke-dasharray="0.4,0.2" x1="20.00" y1="52.00" x2="23.31" y2="51.80" />
<line fill="none" stroke="#5674b9" stroke-width="0.04mm" stroke-dasharray="0.4,0.2" x1="20.00" y1="52.00" x2="19.29" y2="51.73" />
<line fill="none" stroke="#00aeef" stroke-width="0.04mm" stroke-dasharray="0.4,0.2" x1="20.00" y1="52.00" x2="22.53" y2="56.30" />
<line fill="none" stroke="#00aeef" stroke-width="0.04mm" stroke-dasharray="0.4,0.2" x1="20.00" y1="52.00" x2="20.94" y2="55.41" />
<line fill="none" stroke="#00aeef" stroke-width="0.04mm" stroke-dasharray="0.4,0.2" x1="20.00" y1="52.00" x2="20.96" y2="54.95" />
<line fill="none" stroke="#5674b9" stroke-width="0.04mm" stroke-dasharray="0.4,0.2" x1="20.00" y1="52.00" x2="19.99" y2="49.37" />
<line fill="none" stroke="#5674b9" stroke-width="0.04mm" stroke-dasharray="0.4,0.2" x1="20.00" y1="52.00" x2="27.43" y2="118.86" />
<line fill="none" stroke="#5674b9" stroke-width="0.04mm" stroke-dasharray="0.4,0.2" x1="20.00" y1="52.00" x2="29.84" y2="114.74" />
<line fill="none" stroke="#5674b9" stroke-width="0.04mm" stroke-dasharray="0.4,0.2" x1="20.00" y1="52.00" x2="30.98" y2="109.74" />
<line fill="none" stroke="#111111" stroke-width="0.04mm" x1="20.00" y1="52.00" x2="26.46" y2="50.56" />
<line fill="none" stroke="#00aeef" stroke-width="0.04mm" stroke-dasharray="0.4,0.2" x1="26.46" y1="50.56" x2="26.44" y2="53.27" />
<line fill="none" stroke="#00aeef" stroke-width="0.04mm" stroke-dasharray="0.4,0.2" x1="26.46" y1="50.56" x2="25.89" y2="59.27" />
<line fill="none" stroke="#00aeef" stroke-width="0.04mm" stroke-dasharray="0.4,0.2" x1="26.46" y1="50.56" x2="26.51" y2="53.27" />
<line fill="none" stroke="#00aeef" stroke-width="0.04mm" stroke-dasharray="0.4,0.2" x1="26.46" y1="50.56" x2="26.15" y2="50.60" />
<line fill="none" stroke="#5674b9" stroke-width="0.04mm" stroke-dasharray="0.4,0.2" x1="26.46" y1="50.56" x2="26.68" y2="50.48" />
<line fill="none" stroke="#111111" stroke-width="0.04mm" x1="26.46" y1="50.56" x2="42.40" y2="45.26" />
<line fill="none" stroke="#5674b9" stroke-width="0.04mm" stroke-dasharray="0.4,0.2" x1="42.40" y1="45.26" x2="58.27" y2="40.04" />
<line fill="none" stroke="#00aeef" stroke-width="0.04mm" stroke-dasharray="0.4,0.2" x1="42.40" y1="45.26" x2="41.98" y2="45.00" />
<line fill="none" stroke="#00aeef" stroke-width="0.04mm" stroke-dasharray="0.4,0.2" x1="42.40" y1="45.26" x2="42.22" y2="43.59" />
<line fill="none" stroke="#00aeef" stroke-width="0.04mm" stroke-dasharray="0.4,0.2" x1="42.40" y1="45.26" x2="42.20" y2="47.03" />
<line fill="none" stroke="#00aeef" stroke-width="0.04mm" stroke-dasharray="0.4,0.2" x1="42.40" y1="45.26" x2="40.64" y2="56.37" />
<line fill="none" stroke="#5674b9" stroke-width="0.04mm" stroke-dasharray="0.4,0.2" x1="42.40" y1="45.26" x2="42.92" y2="45.19" />
<line fill="none" stroke="#111111" stroke-width="0.04mm" x1="42.40" y1="45.26" x2="44.91" y2="43.45" />
<line fill="none" stroke="#5674b9" stroke-width="0.04mm" stroke-dasharray="0.4,0.2" x1="44.91" y1="43.45" x2="44.88" y2="42.24" />
<line fill="none" stroke="#5674b9" stroke-width="0.04mm" stroke-dasharray="0.4,0.2" x1="44.91" y1="43.45" x2="44.58" y2="45.88" />
<line fill="none" stroke="#00aeef" stroke-width="0.04mm" stroke-dasharray="0.4,0.2" x1="44.91" y1="43.45" x2="44.35" y2="53.47" />
<line fill="none" stroke="#5674b9" stroke-width="0.04mm" stroke-dasharray="0.4,0.2" x1="44.91" y1="43.45" x2="46.70" y2="43.29" />
<line fill="none" stroke="#5674b9" stroke-width="0.04mm" stroke-dasharray="0.4,0.2" x1="44.91" y1="43.45" x2="44.00" y2="43.38" />
<line fill="none" stroke="#111111" stroke-width="0.04mm" x1="44.91" y1="43.45" x2="53.30" y2="45.72" />
<line fill="none" stroke="#00aeef" stroke-width="0.04mm" stroke-dasharray="0.4,0.2" x1="53.30" y1="45.72" x2="51.84" y2="45.66" />
<line fill="none" stroke="#00aeef" stroke-width="0.04mm" stroke-dasharray="0.4,0.2" x1="53.30" y1="45.72" x2="52.99" y2="43.16" />
<line fill="none" stroke="#00aeef" stroke-width="0.04mm" stroke-dasharray="0.4,0.2" x1="53.30" y1="45.72" x2="51.59" y2="48.87" />
<line fill="none" stroke="#111111" stroke-width="0.04mm" x1="53.30" y1="45.72" x2="59.22" y2="50.20" />
<line fill="none" stroke="#5674b9" stroke-width="0.04mm" stroke-dasharray="0.4,0.2" x1="59.22" y1="50.20" x2="58.33" y2="47.48" />
<line fill="none" stroke="#5674b9" stroke-width="0.04mm" stroke-dasharray="0.4,0.2" x1="59.22" y1="50.20" x2="57.47" y2="50.11" />
<line fill="none" stroke="#00aeef" stroke-width="0.04mm" stroke-dasharray="0.4,0.2" x1="59.22" y1="50.20" x2="57.92" y2="56.06" />
<line fill="none" stroke="#5674b9" stroke-width="0.04mm" stroke-dasharray="0.4,0.2" x1="59.22" y1="50.20" x2="61.02" y2="47.28" />
<line fill="none" stroke="#111111" stroke-width="0.04mm" x1="59.22" y1="50.20" x2="68.01" y2="43.27" />
<line fill="none" stroke="#00aeef" stroke-width="0.04mm" stroke-dasharray="0.4,0.2" x1="68.01" y1="43.27" x2="67.80" y2="41.62" />
<line fill="none" stroke="#00aeef" stroke-width="0.04mm" stroke-dasharray="0.4,0.2" x1="68.01" y1="43.27" x2="67.49" y2="43.00" />
<line fill="none" stroke="#00aeef" stroke-width="0.04mm" stroke-dasharray="0.4,0.2" x1="68.01" y1="43.27" x2="68.60" y2="55.25" />
<line fill="none" stroke="#111111" stroke-width="0.04mm" x1="68.01" y1="43.27" x2="73.50" y2="38.95" />
<line fill="none" stroke="#00aeef" stroke-width="0.04mm" stroke-dasharray="0.4,0.2" x1="73.50" y1="38.95" x2="72.92" y2="38.90" />
<line fill="none" stroke="#00aeef" stroke-width="0.04mm" stroke-dasharray="0.4,0.2" x1="73.50" y1="38.95" x2="73.54" y2="43.00" />
<line fill="none" stroke="#111111" stroke-width="0.04mm" x1="73.50" y1="38.95" x2="76.17" y2="33.73" />
<line fill="none" stroke="#5674b9" stroke-width="0.04mm" stroke-dasharray="0.4,0.2" x1="76.17" y1="33.73" x2="75.36" y2="33.67" />
<line fill="none" stroke="#5674b9" stroke-width="0.04mm" stroke-dasharray="0.4,0.2" x1="76.17" y1="33.73" x2="75.76" y2="32.91" />
<line fill="none" stroke="#00aeef" stroke-width="0.04mm" stroke-dasharray="0.4,0.2" x1="76.17" y1="33.73" x2="76.55" y2="39.24" />
<line fill="none" stroke="#111111" stroke-width="0.04mm" x1="76.17" y1="33.73" x2="88.48" y2="27.34" />
<line fill="none" stroke="#00aeef" stroke-width="0.04mm" stroke-dasharray="0.4,0.2" x1="88.48" y1="27.34" x2="86.87" y2="27.78" />
<line fill="none" stroke="#00aeef" stroke-width="0.04mm" stroke-dasharray="0.4,0.2" x1="88.48" y1="27.34" x2="84.82" y2="29.48" />
<line fill="none" stroke="#00aeef" stroke-width="0.04mm" stroke-dasharray="0.4,0.2" x1="88.48" y1="27.34" x2="79.13" y2="32.69" />
<line fill="none" stroke="#00aeef" stroke-width="0.04mm" stroke-dasharray="0.4,0.2" x1="88.48" y1="27.34" x2="87.33" y2="44.42" />
<line fill="none" stroke="#00aeef" stroke-width="0.04mm" stroke-dasharray="0.4,0.2" x1="88.48" y1="27.34" x2="88.42" y2="20.64" />
<line fill="none" stroke="#111111" stroke-width="0.04mm" x1="88.48" y1="27.34" x2="94.83" y2="21.80" />
<line fill="none" stroke="#5674b9" stroke-width="0.04mm" stroke-dasharray="0.4,0.2" x1="94.83" y1="21.80" x2="94.33" y2="21.88" />
<line fill="none" stroke="#5674b9" stroke-width="0.04mm" stroke-dasharray="0.4,0.2" x1="94.83" y1="21.80" x2="94.33" y2="19.85" />
<line fill="none" stroke="#5674b9" stroke-width="0.04mm" stroke-dasharray="0.4,0.2" x1="94.83" y1="21.80" x2="95.18" y2="24.76" />
<line fill="none" stroke="#111111" stroke-width="0.04mm" x1="94.83" y1="21.80" x2="98.54" y2="25.38" />
<line fill="none" stroke="#5674b9" stroke-width="0.04mm" stroke-dasharray="0.4,0.2" x1="98.54" y1="25.38" x2="98.77" y2="24.71" />
<line fill="none" stroke="#00aeef" stroke-width="0.04mm" stroke-dasharray="0.4,0.2" x1="98.54" y1="25.38" x2="99.17" y2="24.17" />
<line fill="none" stroke="#00aeef" stroke-width="0.04mm" stroke-dasharray="0.4,0.2" x1="98.54" y1="25.38" x2="99.10" y2="25.18" />
<line fill="none" stroke="#00aeef" stroke-width="0.04mm" stroke-dasharray="0.4,0.2" x1="98.54" y1="25.38" x2="99.40" y2="27.63" />
<line fill="none" stroke="#00aeef" stroke-width="0.04mm" stroke-dasharray="0.4,0.2" x1="98.54" y1="25.38" x2="97.72" y2="24.45" />
<line fill="none" stroke="#111111" stroke-width="0.04mm" x1="98.54" y1="25.38" x2="101.56" y2="25.54" />
<line fill="none" stroke="#00aeef" stroke-width="0.04mm" stroke-dasharray="0.4,0.2" x1="101.56" y1="25.54" x2="110.37" y2="32.75" />
<line fill="none" stroke="#111111" stroke-width="0.04mm" x1="101.56" y1="25.54" x2="116.69" y2="34.36" />
</g>
<g>
<circle cx="20.00" cy="52.00" r="0.1" fill="#111111" />
<circle cx="26.46" cy="50.56" r="0.1" fill="#111111" />
<circle cx="42.40" cy="45.26" r="0.1" fill="#111111" />
<circle cx="44.91" cy="43.45" r="0.1" fill="#111111" />
<circle cx="53.30" cy="45.72" r="0.1" fill="#111111" />
<circle cx="59.22" cy="50.20" r="0.1" fill="#111111" />
<circle cx="68.01" cy="43.27" r="0.1" fill="#111111" />
<circle cx="73.50" cy="38.95" r="0.1" fill="#111111" />
<circle cx="76.17" cy="33.73" r="0.1" fill="#111111" />
<circle cx="88.48" cy="27.34" r="0.1" fill="#111111" />
<circle cx="94.83" cy="21.80" r="0.1" fill="#111111" />
<circle cx="98.54" cy="25.38" r="0.1" fill="#111111" />
<circle cx="101.56" cy="25.54" r="0.1" fill="#111111" />
<circle cx="116.69" cy="34.36" r="0.1" fill="#111111" />
</g>
<g>
<text x="20.20" y="52.00" font-size=".2mm" fill="#000000">0</text>
<text x="26.66" y="50.56" font-size=".2mm" fill="#000000">1</text>
<text x="42.60" y="45.26" font-size=".2mm" fill="#000000">2</text>
<text x="45.11" y="43.45" font-size=".2mm" fill="#000000">3</text>
<text x="53.50" y="45.72" font-size=".2mm" fill="#000000">4</text>
<text x="59.42" y="50.20" font-size=".2mm" fill="#000000">5</text>
<text x="68.21" y="43.27" font-size=".2mm" fill="#000000">6</text>
<text x="73.70" y="38.95" font-size=".2mm" fill="#000000">7</text>
<text x="76.37" y="33.73" font-size=".2mm" fill="#000000">8</text>
<text x="88.68" y="27.34" font-size=".2mm" fill="#000000">9</text>
<text x="95.03" y="21.80" font-size=".2mm" fill="#000000">10</text>
<text x="98.74" y="25.38" font-size=".2mm" fill="#000000">11</text>
<text x="101.76" y="25.54" font-size=".2mm" fill="#000000">12</text>
<text x="116.89" y="34.36" font-size=".2mm" fill="#000000">13</text>
</g>
<g>
</g>
</g>
</svg>