<?xml version="1.0" encoding="utf-8"?>
<!DOCTYPE svg PUBLIC "-//W3C//DTD SVG 1.1//EN" "http://www.w3.org/Graphics/SVG/1.1/DTD/svg11.dtd">
<svg version="1.1" id="Layer_1" xmlns="http://www.w3.org/2000/svg" xmlns:xlink="http://www.w3.org/1999/xlink" x="0px" y="0px" width="209mm" height="432mm" viewBox="0 0 209 432" enable-background="new 0 0 209 432" xml:space="preserve">
<symbol id="airflow" viewBox="-12 -12 24 24">
<path d="M-4.38,10.73l4.2-3.84V3.55L-4.07,7.13l-.31-.29L-.18,3V-6.89a3.37,3.37,0,0,0-1.68.53l1.68-4.15L0-11l.21.51h0v0l1.65,4.1A3.26,3.26,0,0,0,.24-6.89v14l-.08,0L-4.07,11Z"/>
<rect fill="none" x="-12" y="-12" width="24" height="24"/>
</symbol>
<symbol id="anastomosis" viewBox="-12 -12 24 24">
<path d="M2.23-4.78l.37.24L5.22-2.78l-.47.57L2.49-3.7l-4.61,8-.24.44-.37-.34L-5.22,2.3l.55-.52,2.1,1.82L2-4.39Z"/>
<rect fill="none" x="-12" y="-12" width="24" height="24"/>
</symbol>
<symbol id="bivouac" viewBox="-12 -12 24 24">
<path d="M.25-7.66l.24.58L.54-7l3.88.48-3.31.91L6,6H8.35v.48l-16.7.07V6.05h2.64L0-7.08Zm0,1.32L-5.13,6H-4l2.07-5L.2-4l2.09,5L4.37,6H5.44Z"/>
<rect fill="none" x="-12" y="-12" width="24" height="24"/>
</symbol>
<symbol id="bones" viewBox="-12 -12 24 24">
<path d="M2.44,4.27l-.16,0H2.13a.22.22,0,0,1-.11,0l-.1-.06a.39.39,0,0,1-.09-.11l-.08-.13a1.51,1.51,0,0,1-.06-.15l-.07-.17s0-.11-.08-.19-.06-.16-.08-.21a4.75,4.75,0,0,0-.38-.71c-.18-.29-.43-.64-.74-1A11.15,11.15,0,0,0-.7.32,6.73,6.73,0,0,0-2-.64a4.12,4.12,0,0,0-1.44-.52A1.64,1.64,0,0,1-5-2.19.72.72,0,0,1-5-2.44a1,1,0,0,1,0-.29A.52.52,0,0,1-4.87-3a.54.54,0,0,1,.35-.15L-4-3.22l.46,0a.54.54,0,0,0,.27-.06A.52.52,0,0,0-3-3.56a.74.74,0,0,0,.13-.31.54.54,0,0,1,.15-.26.54.54,0,0,1,.3-.15.83.83,0,0,1,.47,0,1.11,1.11,0,0,1,.35.4A7.46,7.46,0,0,1-1-2.76q.18.42.33.72a3.22,3.22,0,0,0,.39.57L.1-1a4.77,4.77,0,0,0,.58.43c.28.18.51.33.69.43l1,.56a1.84,1.84,0,0,0,.39.23A5.29,5.29,0,0,1,3.22.9l.43.26a3.7,3.7,0,0,1,.46.3l.36.29a2.28,2.28,0,0,1,.31.32A1,1,0,0,1,5,2.4c.2.48,0,.78-.47.91h0a8.48,8.48,0,0,0-1.12.09,1,1,0,0,0-.42.44A1,1,0,0,1,2.44,4.27Z"/>
<rect fill="none" x="-12" y="-12" width="24" height="24"/>
</symbol>
<symbol id="calcite" viewBox="-12 -12 24 24">
<path d="M2.36-2.22l.05.46.34,3.91L2,2.22,1.65-1.26-2.52-.06l-.23-.7L1.89-2.08Z"/>
<rect fill="none" x="-12" y="-12" width="24" height="24"/>
</symbol>
<symbol id="cauliflower" viewBox="-12 -12 24 24">
<path d="M5.58,3.22v-3A2.12,2.12,0,0,0,6.92-.43a1.78,1.78,0,0,0,.55-1.32,1.92,1.92,0,0,0-.65-1.42,2.19,2.19,0,0,0-1.53-.59,2.21,2.21,0,0,0-1.54.59,1.78,1.78,0,0,0-.64,1.42A1.86,1.86,0,0,0,3.65-.43,2.12,2.12,0,0,0,5,.23v3H.26v-3A2.17,2.17,0,0,0,1.61-.43a1.81,1.81,0,0,0,.54-1.32,1.91,1.91,0,0,0-.64-1.42A2.21,2.21,0,0,0,0-3.76a2.21,2.21,0,0,0-1.54.59,1.82,1.82,0,0,0-.64,1.42A1.83,1.83,0,0,0-1.66-.43,2.12,2.12,0,0,0-.32.23v3H-5v-3A2.12,2.12,0,0,0-3.71-.43a1.78,1.78,0,0,0,.55-1.32,1.92,1.92,0,0,0-.65-1.42,2.19,2.19,0,0,0-1.53-.59,2.21,2.21,0,0,0-1.54.59,1.83,1.83,0,0,0-.65,1.42A1.87,1.87,0,0,0-7-.43,2.12,2.12,0,0,0-5.64.23v3H-8v.54H8V3.22Z"/>
<rect fill="none" x="-12" y="-12" width="24" height="24"/>
</symbol>
<symbol id="clay" viewBox="-12 -12 24 24">
<path d="M1.85-1.33a3,3,0,0,1,1.67.48,3.23,3.23,0,0,1,1,1l.29.51-1,.43a3.81,3.81,0,0,0-.23-.4A3.74,3.74,0,0,0,2.93,0,1.77,1.77,0,0,0,1.85-.32a2.57,2.57,0,0,0-1.1.15A.86.86,0,0,0,.51.14,2.23,2.23,0,0,1,0,.88a2.55,2.55,0,0,1-1.45.43,3.16,3.16,0,0,1-2.75-1,4.28,4.28,0,0,1-.37-.57,3.91,3.91,0,0,1-.21-.47l0-.16,1-.22a1.87,1.87,0,0,0,.45.79A2.12,2.12,0,0,0-1.51.33,1.82,1.82,0,0,0-.69.14l.21-.36A1.53,1.53,0,0,1,.17-1,3.76,3.76,0,0,1,1.85-1.33Z"/>
<rect fill="none" x="-12" y="-12" width="24" height="24"/>
</symbol>
<symbol id="crystals" viewBox="-12 -12 24 24">
<path d="M-2.94-5.38,0-.72,2.94-5.38,3.62-5,.68-.36H6.56V.36H.68L3.62,5l-.68.36L0,.72-2.94,5.38-3.62,5-.68.36H-6.56V-.36H-.68L-3.62-5Z"/>
<rect fill="none" x="-12" y="-12" width="24" height="24"/>
</symbol>
<symbol id="curtain" viewBox="-12 -12 24 24">
<path d="M3.57-6.69l.52.53L.39-3V-.33L.1-.26a3.79,3.79,0,0,0-1,.41c-.58.3-.87.65-.87,1v.07A1.61,1.61,0,0,0-.84,2.48a3.69,3.69,0,0,0,.45.24L0,2.86l.13.05L.39,3V6.12H-.39V3.51a7.65,7.65,0,0,1-.9-.46A2.19,2.19,0,0,1-2.54,1.28V1.23A2,2,0,0,1-1.31-.48,5.32,5.32,0,0,1-.39-.86V-3l-3.7-3.14.52-.53L0-3.67Z"/>
<rect fill="none" x="-12" y="-12" width="24" height="24"/>
</symbol>
<symbol id="disk" viewBox="-12 -12 24 24">
<path d="M-.09-4.19a2.43,2.43,0,0,1,1.7.64A2,2,0,0,1,2.35-2,2.09,2.09,0,0,1,1.81-.55,2.44,2.44,0,0,1,.35.23l2.18,3.6-.68.33L0,1.14-1.48,4.19l-.71-.29L-.41.25A2.53,2.53,0,0,1-1.9-.47a2,2,0,0,1-.63-1.41,2,2,0,0,1,.67-1.61,2.46,2.46,0,0,1,1.72-.7ZM1.05-3.06.56-3.49l-.69,0A1.72,1.72,0,0,0-1.29-3a1.51,1.51,0,0,0-.45,1.08,1.36,1.36,0,0,0,.51,1A1.68,1.68,0,0,0-.07-.44v0l0,0A1.7,1.7,0,0,0,1.11-.92,1.36,1.36,0,0,0,1.56-2,1.47,1.47,0,0,0,1.05-3.06Z"/>
<rect fill="none" x="-12" y="-12" width="24" height="24"/>
</symbol>
<symbol id="entrance" viewBox="-12 -12 24 24">
<path d="M4.46,9H-4.46L0-9Z"/>
<rect fill="none" x="-12" y="-12" width="24" height="24"/>
</symbol>
<symbol id="flowstone" viewBox="-12 -12 24 24">
<rect x="-6" y="-0.21" width="12" height="0.42"/>
<rect fill="none" x="-12" y="-12" width="24" height="24"/>
</symbol>
<symbol id="flutes" viewBox="-12 -12 24 24">
<path d="M-7-1H7v.72H3.87A4.7,4.7,0,0,1,2.16,1.5,4.2,4.2,0,0,1,0,2.13,3.94,3.94,0,0,1-2.19,1.5,4.18,4.18,0,0,1-3.76-.27H-7Zm4.17.72A3.15,3.15,0,0,0-1.65,1,3.21,3.21,0,0,0,0,1.41,3.49,3.49,0,0,0,1.6,1,3.68,3.68,0,0,0,3-.27Z"/>
<rect fill="none" x="-12" y="-12" width="24" height="24"/>
</symbol>
<symbol id="gradient" viewBox="-12 -12 24 24">
<path d="M2.58-3.83,0-10-2.58-3.83A4.74,4.74,0,0,1-.17-4.5V10H.25V-4.5A6.65,6.65,0,0,1,2.58-3.83Z"/>
<rect fill="none" x="-12" y="-12" width="24" height="24"/>
</symbol>
<symbol id="guano" viewBox="-12 -12 24 24">
<path d="M-3.24-3a2.15,2.15,0,0,1,1.57.55A3.93,3.93,0,0,1-.59.24a4.32,4.32,0,0,1,2.75-2.3,2.68,2.68,0,0,1,2.23.36A2.36,2.36,0,0,1,5.5.19l-.79,0a1.72,1.72,0,0,0-.79-1.37,1.94,1.94,0,0,0-1.55-.24A3.53,3.53,0,0,0,.48,0,6.63,6.63,0,0,0-.69,3l-.79-.09a10.72,10.72,0,0,0,0-3.16A3.21,3.21,0,0,0-2.22-2,1.44,1.44,0,0,0-3.37-2.3,3.45,3.45,0,0,0-5-1.54l-.5-.55a4.29,4.29,0,0,1,2-.91A.9.9,0,0,1-3.24-3Z"/>
<rect fill="none" x="-12" y="-12" width="24" height="24"/>
</symbol>
<symbol id="helictites" viewBox="-12 -12 24 24">
<path d="M-4.59-7.92h.79v7.7l3.41,0V-7.92H.39V-.17L4.2-.12h.39v8H3.8V.6L.39.55V7.92H-.39V.55L-4.2.5l-.39,0v-8.4Z"/>
<rect fill="none" x="-12" y="-12" width="24" height="24"/>
</symbol>
<symbol id="human" viewBox="-12 -12 24 24">
<path d="M-3.59-3.29A5.13,5.13,0,0,1,0-4.66,5.13,5.13,0,0,1,3.59-3.29,4.3,4.3,0,0,1,5.09,0a4.3,4.3,0,0,1-1.5,3.29A5.13,5.13,0,0,1,0,4.66,5.13,5.13,0,0,1-3.59,3.29,4.3,4.3,0,0,1-5.09,0,4.3,4.3,0,0,1-3.59-3.29Zm.28.77A3.68,3.68,0,0,0-4.3,0a3.62,3.62,0,0,0,1,2.57L-.5.05ZM0-3.94A4.42,4.42,0,0,0-2.75-3L.16-.36H4.28A3.62,3.62,0,0,0,2.91-2.9,4.38,4.38,0,0,0,0-3.94ZM.16.46-2.7,3.07A4.42,4.42,0,0,0,0,3.94a4.37,4.37,0,0,0,2.87-1A3.78,3.78,0,0,0,4.28.46Z"/>
<rect fill="none" x="-12" y="-12" width="24" height="24"/>
</symbol>
<symbol id="karren" viewBox="-12 -12 24 24">
<path d="M1-5.84h0a1.37,1.37,0,0,1,1.06.68A3.33,3.33,0,0,1,2.5-3.79,25.79,25.79,0,0,1,2.36,0a18.61,18.61,0,0,0-.08,3.72,2.68,2.68,0,0,0,.41,1.2,1.13,1.13,0,0,0,.79.5A.92.92,0,0,0,4,4.94a4.43,4.43,0,0,0,.47-1.22c.16-.64.36-1.86.59-3.66a26.71,26.71,0,0,1,.64-3.69,4.62,4.62,0,0,1,.57-1.29,1.34,1.34,0,0,1,1-.59h0A1.28,1.28,0,0,1,8.37-5a2.17,2.17,0,0,1,.39,1.15A19.91,19.91,0,0,1,8.54-.53a21.51,21.51,0,0,0-.2,3.64A2.64,2.64,0,0,0,9.45,5.36,1.91,1.91,0,0,0,10.88,5a3.84,3.84,0,0,0,.7-1l.42.2-.1.18-.12.21-.11.18L11.52,5a.94.94,0,0,1-.14.16c-.06.07-.13.12-.19.18a2.5,2.5,0,0,1-1.85.41H9.29l0,0A3.06,3.06,0,0,1,7.87,3.13a22.11,22.11,0,0,1,.2-3.7,18.17,18.17,0,0,0,.22-3.28A1.85,1.85,0,0,0,8-4.79a.77.77,0,0,0-.67-.3.93.93,0,0,0-.64.42,4.51,4.51,0,0,0-.51,1.15A26.26,26.26,0,0,0,5.54.1c-.24,1.83-.45,3.07-.61,3.72a5.38,5.38,0,0,1-.51,1.34,1.33,1.33,0,0,1-.89.68H3.47A1.58,1.58,0,0,1,2.3,5.16a3.29,3.29,0,0,1-.49-1.4A20.27,20.27,0,0,1,1.89,0,23.45,23.45,0,0,0,2-3.75a2.94,2.94,0,0,0-.32-1.19A.93.93,0,0,0,1-5.42,1.1,1.1,0,0,0,.19-5,3.69,3.69,0,0,0-.43-3.76,20.78,20.78,0,0,0-1.07.07c-.2,2-.37,3.32-.49,3.86A4.48,4.48,0,0,1-2,5.26,1.06,1.06,0,0,1-3,5.81h0a1.9,1.9,0,0,1-1.29-.67,2.7,2.7,0,0,1-.58-1.31,14.92,14.92,0,0,1,0-3.6q0-.12.06-.54c0-.28,0-.47,0-.57s0-.28,0-.52,0-.42,0-.55,0-.28,0-.47,0-.36,0-.51,0-.29,0-.43A3.09,3.09,0,0,0-5-4.62a1.19,1.19,0,0,0-.67-.6,1.5,1.5,0,0,0-1.2.9A7,7,0,0,0-7.41-2.1c0,.39-.1,1-.14,1.76s-.11,1.47-.18,2.08A9.61,9.61,0,0,1-8,3.32h0l0,0A2.81,2.81,0,0,1-9.2,4.62a1.82,1.82,0,0,1-1.35.15A1.94,1.94,0,0,1-11.61,4,2.39,2.39,0,0,1-12,2.56l.47,0a1.92,1.92,0,0,0,.31,1.16,1.47,1.47,0,0,0,.81.62,1.3,1.3,0,0,0,1-.11A2.32,2.32,0,0,0-8.5,3.18a7.53,7.53,0,0,0,.29-1.5Q-8.1.8-8-.36c0-.78.1-1.37.16-1.78A7.23,7.23,0,0,1-7.28-4.5,1.93,1.93,0,0,1-5.65-5.66h.05l0,0a1.59,1.59,0,0,1,1,.84,3.47,3.47,0,0,1,.34,1.41,4.91,4.91,0,0,1,0,.57v.54c0,.15,0,.37,0,.66s0,.47,0,.58,0,.33-.06.68,0,.56-.06.63a14.78,14.78,0,0,0,0,3.49,2.58,2.58,0,0,0,.5,1.13,1.57,1.57,0,0,0,1,.5A.61.61,0,0,0-2.44,5,3.89,3.89,0,0,0-2,3.85C-1.9,3.31-1.74,2-1.53,0A20.65,20.65,0,0,1-.86-3.89,3.89,3.89,0,0,1-.18-5.26,1.58,1.58,0,0,1,1-5.84Z"/>
<rect fill="none" x="-12" y="-12" width="24" height="24"/>
</symbol>
<symbol id="moonmilk" viewBox="-12 -12 24 24">
<path d="M-4.78-3.06a3.39,3.39,0,0,1,1.5.34,2.48,2.48,0,0,1,1.1,1,3.74,3.74,0,0,1,1.62-.8,3.52,3.52,0,0,1,1.71,0,2.9,2.9,0,0,1,1.39.77A2.49,2.49,0,0,1,3.25-.37,4,4,0,0,1,5-.76a3.58,3.58,0,0,1,1.6.36A2.84,2.84,0,0,1,7.88.92a2.32,2.32,0,0,1,0,1.88.34.34,0,0,1-.37.26A.36.36,0,0,1,7.25,3a.32.32,0,0,1-.12-.25.21.21,0,0,1,0-.12,2,2,0,0,0,0-1.43,2,2,0,0,0-1-.9A2.81,2.81,0,0,0,4.68,0,2.78,2.78,0,0,0,3.12.56L2.46.25A1.7,1.7,0,0,0,2.15-1.1,2.15,2.15,0,0,0,1-1.81a2.85,2.85,0,0,0-1.58.06A3,3,0,0,0-2-.83l-.71-.12A1.74,1.74,0,0,0-3.55-2a2.36,2.36,0,0,0-1.39-.27,3.08,3.08,0,0,0-1.45.53A2.33,2.33,0,0,0-7.32-.56a.35.35,0,0,1-.37.24A.39.39,0,0,1-8-.42a.33.33,0,0,1-.1-.26v-.1A3,3,0,0,1-6.89-2.35,4,4,0,0,1-5-3Z"/>
<rect fill="none" x="-12" y="-12" width="24" height="24"/>
</symbol>
<symbol id="narrow" viewBox="-12 -12 24 24">
<path d="M-1.5,5V-5h0.64V5H-1.5z"/>
<path d="M0.86,5V-5H1.5V5H0.86z"/>
<rect fill="none" x="-12" y="-12" width="24" height="24"/>
</symbol>
<symbol id="paleoflow" viewBox="-12 -12 24 24">
<path d="M.38-12V.17A1.9,1.9,0,0,0,1,0,1.57,1.57,0,0,0,1.7-.72a1.86,1.86,0,0,0,.23-1c0-.09,0-.14.08-.16a.92.92,0,0,1,.24,0,.52.52,0,0,0,.25,0h.08A2.48,2.48,0,0,1,2,0,2.5,2.5,0,0,1,.38.77V7.21H2.09L0,12-1.8,7.23c.07,0,.59,0,1.53,0V.77A3,3,0,0,1-1.35.43a2.16,2.16,0,0,1-1-1,2.38,2.38,0,0,1-.24-1.33l.67,0a2,2,0,0,0,.15,1,1.73,1.73,0,0,0,.59.67A2.14,2.14,0,0,0-.27.16V-12Z"/>
<rect fill="none" x="-12" y="-12" width="24" height="24"/>
</symbol>
<symbol id="rain" viewBox="-12 -12 24 24">
<path d="M-4.14-6.34h0.71v4.69h-0.71V-6.34z"/>
<path d="M-0.35-6.34h0.71v4.69h-0.71V-6.34z"/>
<path d="M3.43-6.34h0.71v4.69H3.43V-6.34z"/>
<path d="M-4.14,1.65h0.71v4.69h-0.71V1.65z"/>
<path d="M-0.35,1.65h0.71v4.69h-0.71V1.65z"/>
<path d="M3.43,1.65h0.71v4.69H3.43V1.65z"/>
<rect fill="none" x="-12" y="-12" width="24" height="24"/>
</symbol>
<symbol id="rats" viewBox="-12 -12 24 24">
<path d="M8.78-2.32,7-2.27c-.51-.17-.65-.56-1.46-.45l-.25.45C3.59-2.75,2.59-3.66.56-3.62l-1.35.3A4.89,4.89,0,0,0-4.24,1.57c-.68.6-2.58.86-3.39.94a6.84,6.84,0,0,0-1.62.39,4.91,4.91,0,0,0-1,.52A1.75,1.75,0,0,0-11,4.61a1.16,1.16,0,0,0,.59,1.48,1.3,1.3,0,0,1,.14.12c.16-.52-.35-.92-.2-1.42a3.35,3.35,0,0,1,.27-.45,3.18,3.18,0,0,1,1.79-1c.63-.12,1.27-.22,1.91-.3.48-.07,1,0,1.4-.12A6.94,6.94,0,0,1-4,2.82,30.64,30.64,0,0,0,.41,2.69l2.16.15c.1-.09,0,0,.1-.15a.87.87,0,0,0-.9-.55c.86-1,2.27-.37,3.1-.05.5.19,1,0,1.25.4.11-.1.1-.07.15-.25.3,0,.31.07.6.15-.06-.49-.34-.64-1-.6a.78.78,0,0,1,0-.55C6.3.56,7.29.73,8.13.43a13.78,13.78,0,0,0,2.15-.9l.6-.85v-.2A16.9,16.9,0,0,0,8.78-2.32Z"/>
<rect fill="none" x="-12" y="-12" width="24" height="24"/>
</symbol>
<symbol id="sand" viewBox="-12 -12 24 24">
<path d="M-1.58,0.83c0.23,0.2,0.35,0.44,0.36,0.73c0.01,0.29-0.08,0.54-0.28,0.75c-0.2,0.21-0.46,0.32-0.78,0.33c-0.32,0.01-0.6-0.08-0.83-0.26C-3.36,2.19-3.49,1.95-3.5,1.67C-3.51,1.38-3.41,1.12-3.2,0.9c0.21-0.22,0.48-0.34,0.8-0.35C-2.08,0.54-1.81,0.64-1.58,0.83z"/>
<path d="M0.08-2.36c0.23,0.2,0.35,0.44,0.36,0.73c0.01,0.29-0.08,0.54-0.28,0.75c-0.2,0.21-0.46,0.32-0.78,0.33c-0.32,0.01-0.59-0.07-0.83-0.26s-0.37-0.42-0.38-0.71c-0.01-0.29,0.09-0.54,0.3-0.76c0.21-0.22,0.48-0.33,0.8-0.35C-0.42-2.65-0.14-2.56,0.08-2.36z"/>
<path d="M3.12,0.55c0.23,0.2,0.35,0.43,0.38,0.71c0.02,0.28-0.07,0.53-0.28,0.75C3,2.23,2.73,2.35,2.42,2.36C2.1,2.37,1.82,2.28,1.58,2.08C1.34,1.88,1.22,1.64,1.2,1.35c-0.01-0.29,0.09-0.54,0.3-0.75C1.72,0.4,1.99,0.29,2.3,0.28S2.89,0.36,3.12,0.55z"/>
<rect fill="none" x="-12" y="-12" width="24" height="24"/>
</symbol>
<symbol  id="scallops" viewBox="-12 -12 24 24">
<path d="M.05-3.74l.21,0A2.35,2.35,0,0,1,1.74-3a2,2,0,0,1,.59,1.55v0l0,0A9.59,9.59,0,0,1-.08,3.27l-.39.47-.27-.55A14.26,14.26,0,0,1-2.33-1.89v-.05l0-.05A2,2,0,0,1-1.44-3.3,2.42,2.42,0,0,1,.05-3.74ZM-.11-3A1.44,1.44,0,0,0-1.55-1.89,13.06,13.06,0,0,0-.29,2.33,8.6,8.6,0,0,0,1.55-1.54a1.41,1.41,0,0,0-.38-1A1.62,1.62,0,0,0,.18-3Z"/>
<rect fill="none" x="-12" y="-12" width="24" height="24"/>
</symbol>
<symbol  id="sink" viewBox="-12 -12 24 24">
<path d="M.72,9.41H.9c1.94,0,3.26-.54,3.94-1.51a3.61,3.61,0,0,0,.33-.69,2,2,0,0,0,.11-.54V6.46l.69,0a2.8,2.8,0,0,1-.58,1.78C4.58,9.39,3.1,10,.93,10H-.93q-3.25,0-4.46-1.8a2.74,2.74,0,0,1-.43-.83A2.37,2.37,0,0,1-6,6.67V6.43l.68,0A2.27,2.27,0,0,0-4.84,7.9c.68,1,2,1.47,3.93,1.48l.5,0ZM-1.46-10a.68.68,0,0,0,.16.41A2.77,2.77,0,0,0-.51-9l0,0a3.63,3.63,0,0,1,1,.7,1.15,1.15,0,0,1,.34.88c0,.58-.53,1.14-1.49,1.68-.68.42-1,.79-1,1.11s.3.61.84,1h0Q.61-2.86.46-1.78a3.51,3.51,0,0,1-1.55,2,.61.61,0,0,0-.26.41,1.67,1.67,0,0,0,.1.51,5.3,5.3,0,0,1,.32,1L.56,1.9.46,8.06-3.4,2.54l1.73-.28A6.16,6.16,0,0,0-2,1.39,1.7,1.7,0,0,1-2.09.58a1.21,1.21,0,0,1,.53-.82h0v0C-.75-.86-.33-1.38-.28-1.85s-.23-.87-.91-1.27h0C-2-3.6-2.37-4.1-2.4-4.61S-2-5.74-1.09-6.29C-.34-6.72.06-7.1.09-7.44a.67.67,0,0,0-.18-.43,3.17,3.17,0,0,0-.79-.58,2.93,2.93,0,0,1-1-.67A1.16,1.16,0,0,1-2.17-10Z"/>
<rect fill="none" x="-12" y="-12" width="24" height="24"/>
</symbol>
<symbol  id="spring" viewBox="-12 -12 24 24">
<path d="M-1.34-9.86,2.52-4.34.78-4.06a8,8,0,0,0,.29.87,1.4,1.4,0,0,1,.13.79,1.3,1.3,0,0,1-.52.84l0,0v0C-.13-.95-.55-.42-.61,0S-.37.91.31,1.3l0,0c.75.46,1.14,1,1.18,1.46S1.12,3.92.21,4.46C-.54,4.9-.94,5.29-1,5.64a.74.74,0,0,0,.18.43A3.2,3.2,0,0,0,0,6.62a3,3,0,0,1,1,.7,1.14,1.14,0,0,1,.31.86A1.74,1.74,0,0,1,.71,9.26H.92c1.92,0,3.22-.52,3.9-1.51a2.05,2.05,0,0,0,.35-.67,2.59,2.59,0,0,0,.1-.55l0-.19.65,0a2.84,2.84,0,0,1-.55,1.8C4.58,9.26,3.08,9.85.92,9.86H-.92c-2.17,0-3.66-.6-4.49-1.77a3.65,3.65,0,0,1-.4-.85A2.43,2.43,0,0,1-6,6.53V6.29l.66,0a2.08,2.08,0,0,0,.47,1.41c.68,1,2,1.5,3.91,1.51H-.4c.62-.43.94-.8,1-1.1a.76.76,0,0,0-.16-.43,3.25,3.25,0,0,0-.79-.51v0a3.8,3.8,0,0,1-1-.7,1.15,1.15,0,0,1-.34-.91q.06-.84,1.5-1.68c.68-.4,1-.77,1-1.1S.49,2.21,0,1.87c0,0,0,0,0,0C-1,1.32-1.44.69-1.34,0a3.58,3.58,0,0,1,1.55-2,.54.54,0,0,0,.23-.38A1.28,1.28,0,0,0,.37-3a4.57,4.57,0,0,1-.32-1l-1.49.24Z"/>
<rect fill="none" x="-12" y="-12" width="24" height="24"/>
</symbol>
<symbol  id="stalactite" viewBox="-12 -12 24 24">
<path d="M3.57-6.69l.52.53L.39-3V6.12H-.39V-3l-3.7-3.14.52-.53L0-3.67Z"/>
<rect fill="none" x="-12" y="-12" width="24" height="24"/>
</symbol>
<symbol  id="stalagmite" viewBox="-12 -12 24 24">
<path d="M.38-6.42V2.75L4.11,5.89l-.56.53L0,3.4l-3.57,3-.53-.53,3.7-3.14V-6.42Z"/>
<rect fill="none" x="-12" y="-12" width="24" height="24"/>
</symbol>
<symbol  id="stalagnate" viewBox="-12 -12 24 24">
<path d="M3.55-8.46l.56.53L.38-4.78v9L4.11,7.36l-.56.53L0,4.86l-3.57,3-.53-.53,3.7-3.14v-9l-3.7-3.15.53-.53L0-5.43Z"/>
<rect fill="none" x="-12" y="-12" width="24" height="24"/>
</symbol>
<symbol  id="straws" viewBox="-12 -12 24 24">
<path d="M-10.89-2.76H10.89V-2H9.63V.46H8.84V-2H8.29v5.6H7.5V-2H5.56V.7H4.77V-2H2.07V2.38H1.29V-2H-.1v3H-.89V-2H-3.2V4.11H-4V-2H-6.22L-6.16.75l-.79,0L-7-2H-8.32V2.33H-9.1V-2h-1.79Z"/>
<rect fill="none" x="-12" y="-12" width="24" height="24"/>
</symbol>
<symbol  id="water" viewBox="-12 -12 24 24">
<path d="M-1.72-9.86,2.11-4.32.38-4.06a6.49,6.49,0,0,0,.29.89,1.5,1.5,0,0,1,.13.79,1.2,1.2,0,0,1-.5.82h0l0,0C-.54-.94-1-.42-1,.05s.24.89.92,1.27h0c.77.48,1.17,1,1.19,1.49S.71,3.94-.2,4.49c-.75.43-1.13.81-1.15,1.15a.51.51,0,0,0,.18.43,2.66,2.66,0,0,0,.76.58,2.93,2.93,0,0,1,1,.67,1.16,1.16,0,0,1,.29.89C.84,8.75.42,9.3-.41,9.86l-.44-.55c.66-.45,1-.83,1-1.15A.47.47,0,0,0,0,7.75a2.84,2.84,0,0,0-.78-.53h0a3.87,3.87,0,0,1-1-.69,1.24,1.24,0,0,1-.34-.91c0-.58.54-1.14,1.52-1.68.66-.42,1-.79,1-1.11s-.3-.61-.84-1h0Q-1.9,1.06-1.74,0a3.44,3.44,0,0,1,1.54-2,.67.67,0,0,0,.27-.41A1.11,1.11,0,0,0,0-3a4.33,4.33,0,0,1-.31-1l-1.5.24Z"/>
<rect fill="none" x="-12" y="-12" width="24" height="24"/>
</symbol><symbol  id="tree" viewBox="-12 -12 24 24">
<path d="M7.4-5.04A4.271,4.271,0,0,0,7.7-6.627a4.3,4.3,0,0,0-4.3-4.3A4.279,4.279,0,0,0,.636-9.914,4.293,4.293,0,0,0-3.045-12a4.3,4.3,0,0,0-4.3,4.3,4.27,4.27,0,0,0,.421,1.845,4.3,4.3,0,0,0-3.645,4.244,4.3,4.3,0,0,0,4.3,4.3A4.282,4.282,0,0,0-3.946,2L-1.175,5.23h0L-1.612,12H.982L.757,6.376,4.119,2.827v0a4.272,4.272,0,0,0,2.15.58,4.3,4.3,0,0,0,4.3-4.3A4.3,4.3,0,0,0,7.4-5.04ZM-3.346,1.538h0A4.346,4.346,0,0,0-2.7.788a4.266,4.266,0,0,0,1.765.753l-.135,2.087ZM.69,4.7.563,1.544A4.258,4.258,0,0,0,2.321.805,4.3,4.3,0,0,0,3.378,2.279Z"/>
<rect fill="none" x="-12" y="-12" width="24" height="24"/>
</symbol><g>
<desc></desc>
<g>
<line fill="none" stroke="#dddddd" stroke-width="0.1mm" x1="0.00" y1="74.00" x2="209.00" y2="74.00" />
<text x="206.20" y="73.80" font-size=".2mm" fill="#000000">0m</text>
<line fill="none" stroke="#dddddd" stroke-width="0.1mm" x1="0.00" y1="24.00" x2="209.00" y2="24.00" />
<text x="206.20" y="23.80" font-size=".2mm" fill="#000000">5m</text>
<line fill="none" stroke="#dddddd" stroke-width="0.1mm" x1="0.00" y1="124.00" x2="209.00" y2="124.00" />
<text x="206.20" y="123.80" font-size=".2mm" fill="#000000">-5m</text>
<line fill="none" stroke="#dddddd" stroke-width="0.1mm" x1="0.00" y1="174.00" x2="209.00" y2="174.00" />
<text x="206.20" y="173.80" font-size=".2mm" fill="#000000">-10m</text>
<line fill="none" stroke="#dddddd" stroke-width="0.1mm" x1="0.00" y1="224.00" x2="209.00" y2="224.00" />
<text x="206.20" y="223.80" font-size=".2mm" fill="#000000">-15m</text>
<line fill="none" stroke="#dddddd" stroke-width="0.1mm" x1="0.00" y1="274.00" x2="209.00" y2="274.00" />
<text x="206.20" y="273.80" font-size=".2mm" fill="#000000">-20m</text>
<line fill="none" stroke="#dddddd" stroke-width="0.1mm" x1="0.00" y1="324.00" x2="209.00" y2="324.00" />
<text x="206.20" y="323.80" font-size=".2mm" fill="#000000">-25m</text>
<line fill="none" stroke="#dddddd" stroke-width="0.1mm" x1="0.00" y1="374.00" x2="209.00" y2="374.00" />
<text x="206.20" y="373.80" font-size=".2mm" fill="#000000">-30m</text>
<line fill="none" stroke="#dddddd" stroke-width="0.1mm" x1="0.00" y1="424.00" x2="209.00" y2="424.00" />
<text x="206.20" y="423.80" font-size=".2mm" fill="#000000">-35m</text>
<line fill="none" stroke="#dddddd" stroke-width="0.1mm" x1="90.00" y1="0.00" x2="90.00" y2="432.00" />
<text x="90.40" y="2.00" font-size=".2mm" fill="#000000">0m</text>
<line fill="none" stroke="#dddddd" stroke-width="0.1mm" x1="40.00" y1="0.00" x2="40.00" y2="432.00" />
<text x="40.40" y="2.00" font-size=".2mm" fill="#000000">-5m</text>
<line fill="none" stroke="#dddddd" stroke-width="0.1mm" x1="140.00" y1="0.00" x2="140.00" y2="432.00" />
<text x="140.40" y="2.00" font-size=".2mm" fill="#000000">5m</text>
<line fill="none" stroke="#dddddd" stroke-width="0.1mm" x1="190.00" y1="0.00" x2="190.00" y2="432.00" />
<text x="190.40" y="2.00" font-size=".2mm" fill="#000000">10m</text>
</g>
<g>
<path fill="none" stroke="#000000" stroke-width="0.06mm" stroke-dasharray="0.3mm,0.1mm" d="M26.557358,58.460735 L26.44046,58.462738" /><defs><path id="DRAW_6382"  d="M96.94844,104.56839 L96.95045,104.57039" /></defs><use xlink:href="#DRAW_6382" fill="none" stroke="#000000" stroke-width="0.04mm" /><text style="fill:#000000; font-size:0.5mm; letter-spacing:2;"><textPath xlink:href="#DRAW_6382">|</textPath></text><path fill="none" stroke="#000000" stroke-width="0.06mm" stroke-dasharray="0.3mm,0.1mm" d="M94.644684,76.16358 C94.78503,76.74717 94.92538,77.330765 95.06573,77.91435 C95.20894,78.90585 95.282394,79.90996 95.49536,80.88885 C95.79119,82.24866 96.28186,83.5606 96.589355,84.91782 C96.81972,85.93456 96.90423,86.97962 97.106995,88.00222 C97.5139,90.05426 98.179985,92.06134 98.41798,94.13975 C98.857124,97.97482 98.89486,101.84528 99.1333,105.698044 L99.1333,105.698044" /><path fill="none" stroke="#000000" stroke-width="0.06mm" stroke-dasharray="0.3mm,0.1mm" d="M74.56641,222.10141 C74.33643,222.27055 74.09427,222.42427 73.876495,222.60887 C72.90094,223.43573 72.621056,225.00995 72.29876,226.07921 C72.222,226.33388 72.15696,226.59984 72.16418,226.86572 C72.199684,228.1742 72.37575,229.47583 72.42643,230.78378 C72.43695,231.05515 72.407265,231.32974 72.34743,231.59462 C71.81166,233.96642 71.125725,236.30417 70.64116,238.68697 C70.47486,239.50473 70.58678,240.36572 70.39842,241.17868 C70.16228,242.19786 69.66316,243.14005 69.376305,244.14612 C68.14662,248.45898 69.2408,246.15689 67.70902,249.97008 C67.58753,250.2725 67.414825,250.55275 67.24238,250.82932 C66.70245,251.69525 66.08936,252.51535 65.57314,253.39561 C64.64481,254.97864 63.84031,256.63214 62.911304,258.21478 C62.36532,259.1449 61.6653,259.9816 61.150745,260.9295 C60.506744,262.11584 59.99526,265.26404 59.77056,266.0313 C59.534843,266.8362 58.75318,268.40768 58.198307,269.0697 C50.785137,277.91406 61.611458,264.23364 51.735912,275.08734 C50.690525,276.2363 49.985348,277.65387 49.11006,278.93713 L49.11006,278.93713" /><path fill="none" stroke="#000000" stroke-width="0.06mm" stroke-dasharray="0.3mm,0.1mm" d="M75.43651,223.50706 C75.4903,224.10602 75.61337,224.7999 75.470764,225.40875 C74.980606,227.50146 74.429886,229.5797 73.87962,231.65741 C73.666214,232.46318 73.33414,233.23904 73.18003,234.05823 C72.76088,236.28625 72.55975,238.55096 72.16286,240.78307 C71.868225,242.44008 71.39449,244.06213 71.10637,245.72029 C71.04558,246.07008 70.87831,249.2427 70.3897,250.35852 C69.86884,251.548 68.32892,254.32426 67.6467,255.3476 C66.88808,256.48553 65.895615,257.4683 65.229095,258.66248 C62.62146,263.33456 63.547783,263.04907 61.728245,267.57974 C61.400475,268.3959 60.60491,269.219 60.01429,269.83517 C59.77799,270.0817 59.49527,270.284 59.2779,270.54736 C52.104366,279.23883 62.468605,267.30563 54.54333,275.86673 C51.648045,279.5416 54.70967,275.89148 51.835056,278.7273 C51.537365,279.02094 51.32302,279.3895 51.043747,279.70074 C50.776653,279.9984 50.08864,280.30972 49.853745,280.43948 L49.853745,280.43948" /><path fill="none" stroke="#000000" stroke-width="0.06mm" d="M90.0,74.0 L90.0,74.0" /><path fill="none" stroke="#000000" stroke-width="0.06mm" d="M90.0,74.0 L90.0,74.0" /><path fill="none" stroke="#000000" stroke-width="0.06mm" d="M67.635735,314.57568 L67.60729,314.57703" /><path fill="none" stroke="#000000" stroke-width="0.06mm" d="M90.0,74.0 L90.0,74.0" /><path fill="none" stroke="#000000" stroke-width="0.06mm" d="M90.0,74.0 L90.0,74.0" /><defs><path id="DRAW_6590"  d="M66.21243,328.4551 L66.12442,328.46637" /></defs><use xlink:href="#DRAW_6590" fill="none" stroke="#000000" stroke-width="0.04mm" /><text style="fill:#000000; font-size:0.5mm; letter-spacing:2;"><textPath xlink:href="#DRAW_6590">|</textPath></text><path fill="none" stroke="#000000" stroke-width="0.06mm" d="M97.16305,57.207985 C98.26393,58.429035 98.68867,58.693466 99.3563,60.01828 C99.4863,60.276253 99.605576,60.548687 99.6476,60.83449 C99.96831,63.01555 100.35634,65.19731 100.44174,67.40016 C100.50774,69.10234 100.27763,70.80493 100.09983,72.499084 C100.00208,73.43047 99.66794,74.97737 99.233986,75.914566 C98.91785,76.59732 98.523094,77.24084 98.16765,77.90397 L98.16765,77.90397" /><defs><path id="DRAW_6913"  d="M24.386742,58.00402 C24.280617,57.997993 24.174644,57.98407 24.068367,57.98594 C23.925156,57.98846 23.763412,58.04467 23.638367,58.10318 C23.157288,58.328297 22.875992,58.812473 22.552666,59.20586 L22.552666,59.20586" /></defs><use xlink:href="#DRAW_6913" fill="none" stroke="#000000" stroke-width="0.04mm" /><text style="fill:#000000; font-size:0.5mm; letter-spacing:2;"><textPath xlink:href="#DRAW_6913">||||||||||</textPath></text><path fill="none" stroke="#000000" stroke-width="0.06mm" stroke-dasharray="0.3mm,0.1mm" d="M21.892868,59.77143 C21.422668,59.86755 20.970856,59.919853 20.509308,59.76705 C20.37526,59.722675 20.25016,59.654797 20.119576,59.601067 C20.021423,59.560677 19.921959,59.523506 19.82315,59.48472 L19.82315,59.48472" /><path fill="none" stroke="#000000" stroke-width="0.06mm" stroke-dasharray="0.3mm,0.1mm" d="M21.778976,62.650345 C21.546768,62.507072 21.327667,62.33998 21.082352,62.220524 C20.833214,62.099197 20.356796,62.01085 20.080421,61.991158 C19.955658,61.982265 19.83036,61.99858 19.705338,62.002296 L19.705338,62.002296" /><defs><path id="DRAW_6916"  d="M89.9463,62.421837 C89.205765,63.12744 88.53633,63.64228 87.65719,62.765118 C86.70929,61.819363 87.07936,59.97492 87.61008,58.948605 C88.37379,57.47174 89.18323,56.013256 90.10467,54.629303 C91.16355,53.03892 93.45081,50.77988 94.21095,48.625893 C96.346954,42.573166 96.02229,42.037193 96.38686,34.600697 C96.47882,32.725082 95.07778,29.888275 94.57994,28.73669 C94.31557,28.125134 93.95579,27.554619 93.566765,27.013733 C91.72678,24.455528 89.99873,22.280457 86.86393,21.489315 C86.207146,21.323563 84.96178,21.132957 84.20948,21.241547 C81.69709,21.604176 79.374504,22.972668 77.20063,24.115692 C76.22977,24.626175 75.433174,25.44925 74.4275,25.887177 C64.57234,30.178665 54.556736,34.092625 44.659416,38.285957 C44.265972,38.452652 43.382507,39.12481 43.104042,39.505035 C41.690704,41.434837 40.392036,43.446594 38.990356,45.38488 C38.499496,46.063652 37.902534,46.662903 37.428406,47.353462 C32.79226,54.10594 39.072987,46.517586 30.658485,56.581825 C29.45993,58.015366 27.058212,58.552082 25.347954,58.428215 C24.917236,58.39702 24.65361,57.914566 24.306442,57.657738 L24.306442,57.657738" /></defs><use xlink:href="#DRAW_6916" fill="none" stroke="#000000" stroke-width="0.04mm" /><text style="fill:#000000; font-size:0.5mm; letter-spacing:2;"><textPath xlink:href="#DRAW_6916">|||||||||||||||||||||||||||||||||||||||||||||||||||||||||||||||||||||||||||||||||||||||||||||||||||||||||||||||||||||||||||||||||||||||||||||||||||||||||||||||||||||||||||||||||||||||||||||||||||||||||||||||||||||||||||||||||||||||||||||||||||||||||||||||||||||||||||||||||||||||||||||||||||||||||||||||||||||||||||||||||||||||||||||||||||||||||||||||||||||||||||||||||||||||||||||||||||||||||||||||||||||||||||||||||||||||||||||||||||||||||||||||||||||||||||||||||||||||||||||||||||||||||||||||||||||</textPath></text><path fill="none" stroke="#000000" stroke-width="0.06mm" d="M97.08237,57.34657 C96.822754,57.47419 96.795555,57.514767 96.54809,57.5613 C96.40671,57.587887 96.25966,57.5866 96.12146,57.62657 C95.99735,57.66247 94.75504,57.990303 94.35929,58.288807 C94.01829,58.546013 93.693794,58.82504 93.37578,59.11017 C93.28573,59.190903 93.2009,59.280853 93.137764,59.384003 C92.61335,60.2408 92.31413,61.058563 91.96994,62.028454 C91.90392,62.21448 91.81554,62.569637 91.83877,62.806183 C91.910805,63.539825 92.01752,63.164696 91.80347,63.649902 L91.80347,63.649902" /><defs><path id="DRAW_6923"  d="M21.882378,59.694595 C21.626526,60.10438 21.415619,60.3412 21.303452,60.786804 C20.957,62.162968 21.576927,63.46624 22.824005,64.101685 C24.205261,64.805504 24.891693,64.72287 26.666115,65.25855 C27.883816,65.62616 32.50129,67.59761 35.129436,67.67685 C37.294144,67.74213 39.465187,67.58604 41.626316,67.726585 C46.136337,68.0199 48.29367,69.57936 53.188385,70.61278 C55.858097,71.17644 58.63142,71.13746 61.301914,71.697426 C66.011734,72.68502 70.60219,74.1835 75.29515,75.2483 C78.50467,75.97652 83.14403,75.67719 86.04588,75.50447 C86.200325,75.49528 87.84211,75.2772 88.394745,74.93451 C89.17245,74.452255 90.2044,73.54138 90.29642,72.544426 C90.357666,71.88079 90.179054,70.47925 90.7938,69.842834 C91.26075,69.35942 92.49678,69.41722 92.83541,69.28745 C94.7912,68.53796 96.82758,67.712845 96.101776,65.36706 C95.6832,64.01421 93.098434,64.60168 92.38373,64.624725 C91.55301,64.65152 91.14344,64.10462 90.71675,63.469093 C90.60865,63.308075 90.531265,63.12733 90.418625,62.96945 C90.21529,62.684452 90.1331,62.70475 89.87989,62.47136 C89.54556,62.1632 89.22336,61.842148 88.895096,61.527542 L88.895096,61.527542" /></defs><use xlink:href="#DRAW_6923" fill="none" stroke="#000000" stroke-width="0.04mm" /><text style="fill:#000000; font-size:0.5mm; letter-spacing:2;"><textPath xlink:href="#DRAW_6923">||||||||||||||||||||||||||||||||||||||||||||||||||||||||||||||||||||||||||||||||||||||||||||||||||||||||||||||||||||||||||||||||||||||||||||||||||||||||||||||||||||||||||||||||||||||||||||||||||||||||||||||||||||||||||||||||||||||||||||||||||||||||||||||||||||||||||||||||||||||||||||||||||||||||||||||||||||||||||||||||||||||||||||||||||||||||||||||||||||||||||||||||||||||</textPath></text><path fill="none" stroke="#000000" stroke-width="0.06mm" d="M91.134766,64.06959 C91.22663,64.04126 91.320206,64.01799 91.410355,63.984608 C91.64735,63.89684 91.71853,63.48639 91.779175,63.315628 L91.779175,63.315628" /><path fill="none" stroke="#000000" stroke-width="0.06mm" stroke-dasharray="0.3mm,0.1mm" d="M96.04091,66.77803 C96.33591,66.8295 96.51645,66.827255 96.762825,66.94961 C96.99125,67.06305 97.20086,67.27109 97.36646,67.44518 C97.930305,68.03795 97.95512,68.9073 97.94632,69.676796 C97.94357,69.91688 97.91309,70.15833 97.85485,70.39126 C97.82516,70.51 97.544235,71.58519 97.279205,71.90093 C96.27872,73.09284 94.72717,74.26496 94.51433,75.95668 C94.47151,76.29697 94.52339,76.48376 94.5727,76.82279 L94.5727,76.82279" /><path fill="none" stroke="#000000" stroke-width="0.06mm" d="M89.461426,74.112625 C89.75696,75.28494 89.02442,76.390656 89.24077,77.54806 C89.42522,78.53481 89.72135,79.5004 89.86939,80.49327 C89.97139,81.17732 89.90114,81.87863 89.988785,82.564674 C90.18088,84.06833 90.466125,83.94595 90.35883,85.15779 C90.32625,85.52578 90.2742,85.894424 90.179085,86.251396 C89.92465,87.20629 89.468094,87.77134 89.66131,88.746 C90.97057,95.35051 89.678314,88.95721 91.47616,94.77242 C91.581894,95.11443 91.55924,95.4842 91.57447,95.84186 C91.72737,99.433754 91.56157,96.49848 91.43678,100.17287 C91.42331,100.569824 91.56127,101.00152 91.55853,101.40338 C91.550255,102.618744 90.76414,103.577866 90.267265,104.63749 C89.92429,105.36891 90.13042,106.20924 90.161575,106.9657 C90.171936,107.217285 90.078186,107.48085 90.15369,107.72107 C90.179184,107.80219 90.2822,107.60968 90.346466,107.553986 L90.346466,107.553986" /><path fill="none" stroke="#000000" stroke-width="0.06mm" stroke-dasharray="0.3mm,0.1mm" d="M94.99807,68.60997 C95.46189,69.30963 95.86121,69.893524 95.7624,70.73147 C95.74766,70.856476 95.67674,71.148994 95.59641,71.252365 C94.07326,73.21236 94.74318,72.26009 92.827446,74.02414 C92.34101,74.47206 91.96887,75.49768 92.144684,76.15237 C92.849525,78.77697 93.74779,81.35207 94.3344,84.005615 C94.55432,85.000465 94.37002,86.05228 94.55472,87.05427 C99.77457,115.37282 95.89443,90.490036 97.227165,100.767525 C97.27673,101.14978 97.40842,101.52155 97.426575,101.906586 C97.4563,102.537125 97.41878,103.1701 97.370094,103.79945 C97.3523,104.02948 97.28213,104.25258 97.22776,104.4768 C97.016884,105.34642 96.99816,104.95907 97.03573,105.37214 L97.03573,105.37214" /><path fill="none" stroke="#000000" stroke-width="0.06mm" d="M98.172386,77.65069 C98.09774,77.80364 98.01361,77.952324 97.94846,78.10956 C97.9073,78.20889 97.85724,78.45731 97.87372,78.56563 C98.13765,80.300705 98.49992,82.02125 98.715706,83.76297 C98.86632,84.97863 98.96657,86.203964 98.97182,87.42892 C98.97633,88.484314 98.61279,89.3046 98.789345,90.28644 C98.827644,90.49943 98.89667,90.70591 98.960785,90.91259 C99.12476,91.441185 99.352844,91.951645 99.47348,92.49178 C99.64353,93.25312 99.76599,94.02728 99.83012,94.80475 C99.89502,95.59172 99.81038,96.3854 99.8596,97.173515 C99.898796,97.80112 100.04562,98.41837 100.094955,99.04526 C100.13856,99.59944 100.08698,100.158844 100.13806,100.71239 C100.25177,101.944664 100.534386,102.83243 101.44497,103.65453 L101.44497,103.65453" /><path fill="none" stroke="#000000" stroke-width="0.06mm" stroke-dasharray="0.3mm,0.1mm" d="M98.46485,105.98303 C98.53474,107.00951 98.65723,108.033745 98.6745,109.062454 C98.70182,110.689095 98.459854,109.82679 98.36472,111.22686 C98.33959,111.59666 98.347534,111.971146 98.398384,112.33829 C99.075455,117.22671 99.25768,115.17999 98.99466,119.665405 C98.975876,119.9857 98.906296,120.30238 98.826385,120.61312 C98.77435,120.815475 98.698715,121.01338 98.600586,121.197845 C98.15867,122.028595 97.62739,122.81108 97.208855,123.653854 C96.946785,124.181564 96.74411,124.7386 96.56365,125.299484 C96.46272,125.61319 96.37588,125.93904 96.36761,126.26847 C96.339226,127.399765 96.3224,128.53836 96.4542,129.66232 C96.68936,131.66776 97.19483,133.63387 97.46593,135.63477 C97.53323,136.1315 97.54617,136.64359 97.467155,137.13858 C97.25257,138.48277 96.95793,139.8164 96.5892,141.12671 C96.23612,142.38147 95.40554,143.51329 95.42564,144.87831 C95.4731,148.10222 95.6422,151.32524 95.8908,154.5399 C95.93092,155.05876 96.14366,155.5498 96.28956,156.04935 C96.694725,157.43661 97.205795,158.7945 97.543785,160.19965 C97.924576,161.78275 98.23772,163.38567 98.44276,165.00095 C98.60453,166.27542 98.558174,167.56793 98.64179,168.8499 C99.106575,175.97522 98.65344,157.45837 98.54364,178.92638 C98.54164,179.31801 98.65037,179.70506 98.758446,180.08151 C99.77386,183.61821 99.552475,183.0271 100.4315,185.02814 L100.4315,185.02814" /><path fill="none" stroke="#000000" stroke-width="0.06mm" d="M100.74757,103.47775 C101.046295,107.2154 101.34503,110.95305 101.64375,114.6907 C101.65727,115.327515 101.633965,115.96617 101.6843,116.601135 C101.76749,117.65041 101.98694,117.69057 101.88553,118.539536 C101.743256,119.73059 101.2034,120.17821 100.76639,121.56699 C100.46599,122.52161 100.4006,123.5412 100.08542,124.491035 C99.812706,125.31288 99.346146,126.05775 99.01126,126.85628 C98.95086,127.000305 98.91672,127.15646 98.902374,127.31198 C98.72376,129.24786 99.31909,128.28601 99.42953,131.50774 C99.50598,133.73805 99.37187,135.97272 99.22463,138.1995 C98.98735,141.7879 98.49681,142.52225 98.60223,145.55322 C98.6232,146.15619 99.23709,149.15485 99.2403,149.20578 C99.50453,153.39273 98.9671,157.04337 100.051506,160.97212 C100.581024,162.89053 101.466156,164.70747 101.89472,166.65092 C102.70081,170.30643 102.400764,176.82622 102.347755,180.01332 C102.33336,180.87886 102.03511,182.71222 102.45105,183.67459 C102.58144,183.97629 102.92305,184.13208 103.15905,184.36084 L103.15905,184.36084" /><path fill="none" stroke="#000000" stroke-width="0.06mm" d="M89.88418,108.09028 C89.75377,108.431595 89.59776,108.76419 89.49295,109.11421 C89.432396,109.31641 89.394264,109.52803 89.390434,109.73906 C89.36273,111.26374 89.2473,112.796425 89.39849,114.31384 C89.72919,117.632935 90.467125,120.90167 90.832954,124.21707 C91.00301,125.75826 90.914505,127.3176 91.004166,128.86554 C91.04507,129.57176 91.27177,130.27048 91.22444,130.97632 C91.10005,132.83147 90.77946,134.66902 90.49188,136.50597 C90.2508,138.0459 89.78478,138.82657 89.96081,140.3352 C90.33735,143.56241 90.957115,146.75845 91.32088,149.98709 C91.385284,150.55873 91.2731,151.13663 91.2425,151.71106 C91.118126,154.04565 90.84317,156.37625 90.85595,158.7141 C90.86124,159.68243 91.152855,160.62793 91.296455,161.58559 C91.83337,165.16623 92.48389,168.732 92.89748,172.32898 C93.32289,176.0288 92.81618,182.40381 92.3796,185.4464 C91.8017,189.47386 90.456276,187.57541 92.038124,189.30116 L92.038124,189.30116" /><path fill="none" stroke="#000000" stroke-width="0.06mm" stroke-dasharray="0.3mm,0.1mm" d="M96.61096,104.79912 C96.5775,105.15069 96.56793,105.505356 96.510574,105.85382 C96.37896,106.65338 95.873604,107.3591 95.83713,108.178024 C95.80148,108.97839 96.31341,110.309616 96.35531,110.73729 C96.504364,112.25882 96.56595,113.79289 96.51632,115.32089 C96.47305,116.65303 95.62562,117.870415 95.34893,119.11774 C94.91917,121.055145 94.73918,123.04056 94.36167,124.98883 C94.114006,126.26695 93.10791,127.22328 93.18835,128.5312 C93.36496,131.4028 93.45915,127.20245 93.86439,131.75813 C93.993546,133.21014 93.850555,134.67537 93.93205,136.13083 C93.96945,136.79869 94.17607,137.44928 94.22042,138.11673 C94.318504,139.59262 93.58973,140.8974 93.24968,142.28546 C93.16578,142.62793 93.1225,142.98117 93.10526,143.33336 C93.03274,144.81555 92.95795,146.29971 92.98064,147.78351 C92.99509,148.72855 93.517715,149.80417 93.68739,150.67953 C94.632195,155.55377 93.8641,152.41217 94.05521,157.5121 C94.24033,162.45227 94.479126,157.1124 95.22467,162.62836 C96.034294,168.61838 95.28338,169.88538 95.31064,176.19724 C95.3182,177.94766 97.26306,183.56435 97.27332,183.60114 C97.99057,186.17293 97.14996,184.29053 98.06588,186.12247 L98.06588,186.12247" /><path fill="none" stroke="#000000" stroke-width="0.06mm" d="M91.30788,188.40407 C91.06279,188.65091 90.88512,188.90399 90.80322,189.24231 C90.74046,189.50157 90.76779,189.80829 90.86642,190.05472 C91.21363,190.87973 91.560844,191.70473 91.90806,192.52972 C92.02584,192.72104 92.16548,192.9005 92.261406,193.10364 C92.35928,193.31094 92.416985,193.53506 92.48598,193.7537 C92.64379,194.25372 92.97835,194.92131 92.85639,195.50818 C92.73786,196.07855 92.134995,196.82286 91.75257,197.16045 C90.24509,198.49118 88.63743,199.70514 87.12303,201.02802 C86.42507,201.6377 85.47531,203.9309 85.386536,204.07448 C84.95666,204.76974 84.42113,205.39427 83.91584,206.03683 C83.84577,206.12593 83.75558,206.19855 83.66385,206.26514 C82.91301,206.8102 82.14009,207.3244 81.38994,207.87039 C81.1917,208.01468 81.02169,208.19598 80.81981,208.33511 C80.186195,208.77179 79.47964,209.10634 78.88603,209.59602 C78.19309,210.16763 77.68253,210.94107 76.98086,211.50194 C71.313934,215.54842 74.11929,213.36812 71.1369,215.8447 C70.32287,216.52066 69.523506,217.2151 68.68859,217.8651 C67.733505,218.60866 67.14065,218.72485 66.52395,219.75569 C66.26642,220.18616 66.2657,220.34097 66.14838,220.86182 C66.13182,220.93526 66.1291,221.01175 66.10821,221.08408 C66.06636,221.22897 66.009834,221.36922 65.96065,221.51176 L65.96065,221.51176" /><path fill="none" stroke="#000000" stroke-width="0.06mm" d="M101.79484,183.94629 L101.8405,183.84038" /><path fill="none" stroke="#000000" stroke-width="0.06mm" d="M90.0,74.0 L90.0,74.0" /><path fill="none" stroke="#000000" stroke-width="0.06mm" d="M102.04747,183.50275 C102.13856,183.6546 102.24016,183.80063 102.32074,183.95831 C102.3665,184.04785 102.3978,184.14458 102.42496,184.2414 C102.59491,184.84698 102.83024,185.44081 102.911804,186.06451 C102.99036,186.66515 102.93613,187.27701 102.90104,187.88174 C102.87567,188.31897 102.77656,188.74898 102.730774,189.18452 C102.53377,191.0588 103.08448,188.89635 102.06078,192.5495 C101.83298,193.36249 101.7251,193.05144 101.64985,193.72179 C101.610374,194.07346 101.61959,194.42941 101.58078,194.78116 C101.568405,194.89328 101.52957,195.00104 101.49678,195.10895 C101.41634,195.37369 101.30492,195.62944 101.241234,195.89868 C101.1867,196.1293 101.14992,196.36597 101.143486,196.60284 C100.981155,202.584 101.59104,196.36496 100.185555,203.78728 C100.12041,204.13132 100.18983,204.48949 100.147064,204.83702 C100.02565,205.82382 99.41523,206.80212 98.96094,207.60352 C98.79161,207.9022 98.049965,209.11794 97.5612,209.41643 C95.89338,210.43495 94.20491,211.42506 92.46418,212.31328 C91.68114,212.71283 90.83714,212.98189 90.00694,213.27097 C88.0169,213.96393 87.2809,213.93964 85.72353,214.8274 C84.43755,215.56047 83.76841,216.52309 82.71467,217.70638 C82.11267,218.38237 81.52666,219.07321 80.96352,219.78192 C80.50368,220.36061 79.70827,221.747 78.88065,222.36954 C77.92746,223.08652 78.10104,222.52853 78.03076,223.38135 L78.03076,223.38135" /><path fill="none" stroke="#000000" stroke-width="0.06mm" stroke-dasharray="0.3mm,0.1mm" d="M97.584335,185.30495 C97.5303,186.12726 98.249985,186.63345 98.4624,187.3682 C98.621994,187.92021 98.43666,188.46252 98.27011,188.99368 C98.232445,189.11382 98.17516,189.22845 98.107124,189.33438 C97.991264,189.51474 97.862045,189.68726 97.720924,189.84862 C97.300934,190.32889 96.55687,190.8957 96.47797,191.61086 C96.36542,192.63089 97.19689,193.66763 97.50464,194.58249 C98.6775,198.0692 94.75826,200.49892 92.89324,202.58069 C92.586426,202.92316 92.15459,203.6811 91.98538,204.18857 C91.82177,204.67924 91.714645,205.18782 91.54537,205.67657 C91.38905,206.12793 90.683586,206.99028 90.504364,207.14969 C86.55744,210.66043 89.6218,207.36261 84.20116,210.71034 C82.35853,211.84833 80.71478,213.28094 78.99318,214.59483 C78.86206,214.6949 78.74451,214.81549 78.64744,214.94885 C78.463776,215.20119 78.29922,215.46849 78.1556,215.74557 C77.75841,216.51192 77.76302,216.9248 77.165955,217.56268 C76.21086,218.58307 75.13183,219.4835 74.18776,220.5141 C73.664474,221.08533 73.20095,222.3605 72.93324,222.97711 L72.93324,222.97711" /><path fill="none" stroke="#000000" stroke-width="0.06mm" stroke-dasharray="0.3mm,0.1mm" d="M100.04888,184.79405 C99.68662,184.84259 100.85044,188.0391 100.44052,189.25204 C100.41633,189.32364 100.38602,189.39423 100.34472,189.4575 C100.0763,189.8689 99.76917,190.25487 99.512825,190.67389 C99.12154,191.31345 98.717094,193.39032 98.70999,193.43298 C98.61691,193.99236 98.657074,195.0599 98.78641,195.68173 C98.84793,195.97758 98.97365,196.25732 99.03925,196.55228 C99.15745,197.08372 99.10693,197.93562 98.92167,198.44798 C98.20358,200.43393 96.11529,202.39938 95.02355,203.62282 C94.52233,204.18451 93.870415,204.59232 93.324394,205.11057 C92.89774,205.51552 92.26611,206.80408 92.10846,207.0216 C91.80527,207.43997 91.43385,207.80511 91.07504,208.17691 C90.9871,208.26804 90.8775,208.33597 90.772156,208.40623 C90.435745,208.63065 90.08866,208.8387 89.75051,209.06047 C87.90119,210.27338 91.39806,208.12332 87.34536,210.3116 C86.89108,210.55688 86.48447,210.88239 86.04116,211.14697 C84.282974,212.19641 84.324715,211.86092 82.0959,213.51546 C80.0596,215.02708 80.1259,215.48505 78.56198,217.50931 C78.447205,217.65788 78.294785,217.77318 78.15826,217.90204 C77.75531,218.2824 77.31991,218.63017 76.94362,219.03691 C76.671616,219.33093 76.44161,219.66263 76.22052,219.99661 C76.02527,220.29156 75.83491,220.59395 75.69722,220.91977 C74.93845,222.71526 75.42704,222.12486 74.86446,223.06694 L74.86446,223.06694" /><path fill="none" stroke="#000000" stroke-width="0.06mm" d="M78.066696,223.12717 C77.853325,223.23343 77.70044,223.27641 77.54192,223.43323 C77.30682,223.66582 77.087814,224.22998 77.025276,224.39374 C76.59874,225.5106 76.7296,225.88258 76.55089,227.25397 C76.5168,227.51556 76.43191,227.76894 76.3994,228.03072 C76.339096,228.51627 76.40041,229.02074 76.272804,229.49307 C75.859024,231.0247 75.24789,232.49661 74.78308,234.01352 C74.557976,234.74817 74.42248,235.50804 74.20401,236.2447 C73.990265,236.96541 73.832825,236.9591 73.786026,237.53427 C73.77684,237.64719 73.766556,237.76358 73.79152,237.87407 C74.409355,240.60834 75.114204,243.32272 75.71278,246.06125 C75.79586,246.44131 75.82151,246.83316 75.83476,247.22197 C75.85977,247.9554 75.64396,248.46016 75.55405,249.21269 C75.45437,250.04698 75.49124,250.89856 75.33224,251.7236 C75.174835,252.54034 74.89072,253.32913 74.60983,254.11203 C74.11142,255.5013 73.47658,256.61853 72.52636,257.77808 C71.06819,259.55756 71.49692,258.61383 69.88137,259.88696 C68.81481,260.72748 67.7546,261.58325 66.78248,262.5314 C66.11484,263.1826 65.55002,263.93298 64.977905,264.66953 C64.78264,264.9209 64.33,265.64832 64.218124,266.06174 C64.15577,266.29218 63.815014,268.24234 63.434353,268.9276 C62.13581,271.2652 57.280678,275.32358 57.167236,275.45038 C55.588753,277.21436 54.951275,278.9478 54.29998,281.17358 C53.960976,282.33215 53.725582,283.51874 53.464012,284.69714 C53.44269,284.7932 53.393127,284.9136 53.452408,284.99216 C53.491978,285.04462 53.532722,284.88748 53.5641,284.82977 C53.623642,284.7202 53.67095,284.60443 53.724377,284.49176 L53.724377,284.49176" /><path fill="none" stroke="#000000" stroke-width="0.06mm" d="M66.10326,220.81966 C66.0141,221.12137 65.890656,221.41496 65.8358,221.72473 C65.695045,222.51947 65.72238,223.41896 65.862366,224.20636 C65.945984,224.67667 66.09029,225.13461 66.22943,225.59158 C66.453674,226.32805 66.78343,227.03403 66.95206,227.78519 C67.25685,229.14288 67.44316,232.1222 67.37158,233.38089 C67.33307,234.05815 67.16615,234.72533 66.98306,235.37848 C66.548416,236.92908 66.05614,238.46417 65.520935,239.983 C65.41608,240.28061 64.04704,243.04807 64.01902,243.1134 C63.563156,244.17624 63.601948,246.802 63.532307,247.14873 C63.227764,248.66504 62.650642,250.11401 62.252556,251.60847 C60.847843,256.8819 63.17047,250.10155 59.91815,258.20883 C59.654682,258.8656 59.498005,259.5649 59.198532,260.20605 C58.886314,260.87454 58.499672,261.50818 58.090385,262.122 C57.844486,262.49084 57.548073,262.82568 57.239628,263.14404 C55.66631,264.76785 53.939217,266.24548 52.44824,267.94525 C51.664646,268.83856 51.163773,269.94794 50.442802,270.89252 C49.091713,272.66263 47.542038,274.27853 46.236984,276.08282 C45.719456,276.79834 45.352703,277.61554 44.99582,278.42325 C44.800087,278.86627 44.687378,279.3437 44.586884,279.81744 C44.533382,280.06964 44.540676,280.33148 44.536358,280.58926 C44.530163,280.95886 44.502884,280.93182 44.674603,280.82 L44.674603,280.82" /><path fill="none" stroke="#000000" stroke-width="0.06mm" d="M53.319084,284.78806 C52.97448,287.4265 53.497604,283.90347 52.71043,287.3132 C52.622658,287.69342 52.59025,288.08585 52.572468,288.47565 C52.531807,289.3671 52.718925,290.08444 52.869915,290.98007 C52.959473,291.5113 52.932518,291.5528 53.166702,292.06885 C53.224236,292.19565 53.28801,292.32297 53.378193,292.42902 C54.65783,293.93402 55.939705,295.43814 57.27182,296.89688 C57.73708,297.40637 58.272675,297.84692 58.766155,298.32913 C59.29784,298.84866 59.841515,299.3571 60.347183,299.90198 C60.840103,300.4331 60.923798,300.41345 60.673428,300.43518 L60.673428,300.43518" /><path fill="none" stroke="#000000" stroke-width="0.06mm" stroke-dasharray="0.3mm,0.1mm" d="M49.17595,278.97162 C48.438995,279.7136 48.700043,279.40213 47.818226,280.7773 C47.770287,280.85208 47.742466,280.93884 47.718422,281.02435 C47.572617,281.54266 47.645718,281.7523 47.525238,282.37952 C47.441513,282.8155 47.199432,283.20462 47.308937,283.66165 C47.554607,284.687 47.8779,285.19537 48.445602,286.2466 C48.791306,286.88675 49.153458,287.51846 49.53614,288.1372 C49.858467,288.6584 50.5089,289.37793 50.6721,290.04977 C50.978157,291.30972 51.258205,292.5791 51.441227,293.86273 C51.67859,295.5274 51.41537,297.44177 52.14722,299.05267 C52.730278,300.33606 53.22461,300.8899 54.24439,301.9675 C56.660133,304.52026 56.06473,303.14124 56.60889,304.5561 L56.60889,304.5561" /><path fill="none" stroke="#000000" stroke-width="0.06mm" stroke-dasharray="0.3mm,0.1mm" d="M49.973137,280.6503 C49.42176,280.86163 49.282738,280.96118 49.027687,281.56287 C48.67046,282.40564 48.391567,283.26364 48.72432,284.1543 C49.26715,285.60724 49.31794,284.9637 50.35491,286.8158 C50.86407,287.72516 51.294014,288.67813 51.70584,289.63553 C51.83661,289.93954 51.913372,290.26572 51.978466,290.59018 C52.059906,290.99615 52.115055,291.40817 52.144306,291.8212 C52.23251,293.06653 52.085426,293.95218 52.422356,295.08777 C52.490265,295.31665 53.46993,298.71033 54.099728,299.5365 C54.67759,300.2946 55.43595,300.899 56.048325,301.62946 C58.29454,304.3089 55.309395,301.36365 57.821518,303.7252 L57.821518,303.7252" /><defs><path id="DRAW_6954"  d="M90.140656,108.0829 C90.33073,108.287735 90.508,108.50523 90.71087,108.6974 C91.238396,109.19713 92.48068,109.03052 92.9711,108.997284 C93.30825,108.974434 93.7904,108.903946 94.12106,108.714264 C94.47981,108.50847 94.66615,108.145355 94.960434,107.86742 C95.10805,107.728 95.268105,107.599846 95.440186,107.492065 C95.92255,107.18996 96.74859,106.92953 97.09146,106.356636 C97.56939,105.55808 97.38496,104.60414 97.818954,103.784744 C98.21263,103.04148 98.86304,102.03476 99.51109,101.427734 C99.74826,101.20557 100.03833,101.04768 100.301956,100.85766 L100.301956,100.85766" /></defs><use xlink:href="#DRAW_6954" fill="none" stroke="#000000" stroke-width="0.04mm" /><text style="fill:#000000; font-size:0.5mm; letter-spacing:2;"><textPath xlink:href="#DRAW_6954">|||||||||||||||||||||||||||||||||||||||||||||||||||||||||||</textPath></text><defs><path id="DRAW_6960"  d="M45.68241,277.02036 C45.906685,278.25574 46.166492,278.54224 47.270058,279.22418 C47.942905,279.63995 48.689823,280.13184 49.51601,280.1712 C50.066658,280.19742 50.529884,279.91602 51.05727,279.81403 C51.820732,279.66638 52.67784,279.6788 53.415104,279.9461 C54.774548,280.43903 54.70108,280.03406 54.53614,280.88785 L54.53614,280.88785" /></defs><use xlink:href="#DRAW_6960" fill="none" stroke="#000000" stroke-width="0.04mm" /><text style="fill:#000000; font-size:0.5mm; letter-spacing:2;"><textPath xlink:href="#DRAW_6960">|||||||||||||||||||||||||||||||||||||||||||</textPath></text><path fill="none" stroke="#000000" stroke-width="0.06mm" d="M44.306877,280.40976 C44.279175,280.62292 44.206497,280.83505 44.22377,281.04935 C44.274864,281.6831 44.383335,282.31207 44.510483,282.935 C44.758827,284.15167 44.922707,285.1731 45.54443,286.20636 C45.921993,286.83386 47.20838,288.432 47.4915,289.5138 C48.03165,291.5777 48.519592,293.6555 48.973846,295.73996 C49.191433,296.7384 49.11457,297.66028 49.582714,298.56543 C50.072544,299.51257 50.70735,300.38208 51.169373,301.34308 C51.35753,301.7344 52.29641,304.66043 53.125774,305.70502 C53.734936,306.47223 54.92906,307.388 55.62444,307.87735 C56.277374,308.33685 57.12405,308.48862 57.69429,309.05093 C58.397,309.7439 59.375866,311.03058 59.818676,311.82965 C60.132874,312.3966 60.233574,313.07123 60.580276,313.6189 C61.221886,314.63248 62.089645,315.48737 62.76269,316.48032 C63.483345,317.54352 63.943436,318.6671 64.28142,319.8854 L64.28142,319.8854" /><path fill="none" stroke="#000000" stroke-width="0.06mm" d="M60.31179,300.43008 C60.48642,300.60834 60.682854,300.76758 60.835693,300.96484 C61.240875,301.4878 61.61918,302.30914 61.957962,302.84564 C62.138824,303.13205 62.352684,303.39624 62.55005,303.67157 C62.960354,304.33948 63.36541,305.01062 63.780964,305.6753 C63.9119,305.88474 64.070435,306.0771 64.18935,306.29358 C64.60698,307.0539 64.93222,307.86554 65.38909,308.60297 C65.65865,309.03802 66.74011,310.1786 67.0078,310.88226 C67.2982,311.64563 67.44119,312.46014 67.73682,313.2215 C67.97196,313.82715 68.324135,314.38086 68.59544,314.97116 C68.6584,315.10815 68.685745,315.25897 68.738205,315.4003 C68.7668,315.47736 68.80495,315.55048 68.838326,315.6256 L68.838326,315.6256" /><defs><path id="DRAW_6974"  d="M60.422558,312.51733 C61.108406,312.84305 61.77626,313.2097 62.48011,313.49442 C63.11913,313.75293 63.90416,313.92438 64.602325,313.80554 C65.43339,313.66406 65.942795,312.72504 66.8387,312.82477 C67.87284,312.93994 67.60712,312.7152 67.987915,313.26166 L67.987915,313.26166" /></defs><use xlink:href="#DRAW_6974" fill="none" stroke="#000000" stroke-width="0.04mm" /><text style="fill:#000000; font-size:0.5mm; letter-spacing:2;"><textPath xlink:href="#DRAW_6974">|||||||||||||||||||||||||||||||||</textPath></text><path fill="none" stroke="#924216" stroke-width="0.02mm" d="M63.38123,308.24042 C63.438942,308.6344 63.488342,308.67505 63.85211,308.88455 C64.17617,309.07117 64.494446,309.2707 64.834435,309.42645 C65.074615,309.53647 65.33691,309.59 65.585754,309.6787 C65.62973,309.69437 65.66677,309.75104 65.6823,309.79193 C65.697914,309.8331 65.70682,309.89838 65.70071,309.93845 C65.627396,310.41882 65.54914,310.8985 65.46268,311.3767 C65.439316,311.5059 65.30288,311.62878 65.20861,311.69742 C65.065674,311.8015 64.58742,312.0677 64.49099,312.14078 C64.10243,312.4352 63.739025,312.76154 63.356823,313.06418 C63.30002,313.10916 63.200333,313.1184 63.132225,313.10455 C62.695312,313.01578 62.309708,312.31094 62.131355,312.1234 C61.79435,311.76898 61.437668,311.73196 61.63867,311.22858 C61.6539,311.19043 61.66996,311.1515 61.695267,311.11917 C61.899445,310.85828 62.16278,310.63934 62.325638,310.35083 C65.12139,305.39862 62.576553,309.43384 63.369854,308.1836 L63.369854,308.1836" /><path fill="none" stroke="#924216" stroke-width="0.02mm" d="M65.686,309.9312 C65.54207,310.02155 65.38409,310.0926 65.25421,310.20218 C64.77985,310.60242 64.34047,311.04242 63.878128,311.45645 C63.850903,311.4808 63.774704,311.51093 63.73997,311.51837 C63.705315,311.5258 63.66985,311.53412 63.63447,311.5318 C63.274273,311.50824 62.91636,311.4423 62.55539,311.44083 C61.944153,311.43835 61.943813,311.4743 61.512394,311.65988 L61.512394,311.65988" /><path fill="none" stroke="#924216" stroke-width="0.02mm" d="M63.934673,311.5537 L63.438087,308.502" /><path fill="none" stroke="#000000" stroke-width="0.06mm" d="M69.31851,316.01776 C69.49749,316.46274 69.51526,316.43585 69.56851,317.02734 C70.283005,324.96344 69.60582,316.23615 69.33782,325.3735 C69.29373,326.8767 69.559586,328.37457 69.58599,329.8782 C69.59494,330.38806 69.45202,330.8915 69.443665,331.40137 C69.43586,331.87738 69.52739,332.3505 69.53766,332.82645 C69.58152,334.8581 69.125244,332.45 69.693405,336.07544 C69.77902,336.6217 69.96101,337.14874 70.1158,337.67957 C70.14624,337.78397 70.19115,337.88513 70.24812,337.97772 C70.992256,339.18726 71.723526,340.40582 72.517494,341.58322 C72.84591,342.07022 73.23537,342.51352 73.611206,342.96494 C74.2102,343.6844 73.460724,342.64407 74.20108,343.43448 C76.97044,346.391 75.346344,345.1214 78.09157,347.22034 C78.15753,347.27078 78.235374,347.30438 78.311874,347.33667 C78.67192,347.4888 79.06773,347.56763 79.40016,347.7732 C80.19504,348.26477 80.92841,348.8501 81.67284,349.4151 C81.84799,349.54807 82.006065,349.7035 82.15562,349.8647 C82.80883,350.56885 83.461754,351.27423 84.079666,352.00955 C84.38636,352.3745 84.656906,352.76886 84.92651,353.16202 C85.152466,353.49152 85.342636,353.8445 85.56541,354.17615 C85.57288,354.18732 85.73184,354.36365 85.78872,354.3854 C85.859344,354.4124 85.93566,354.42117 86.00913,354.43912 L86.00913,354.43912" /><path fill="none" stroke="#000000" stroke-width="0.06mm" d="M95.43618,362.08176 C94.82024,361.64188 94.460594,361.2751 93.81343,361.0341 C93.53448,360.93024 93.24544,360.8555 92.964066,360.75836 C92.797165,360.7007 92.640205,360.6132 92.46902,360.56995 C92.130264,360.48438 91.78092,360.4473 91.43947,360.3733 C91.172905,360.31552 90.910545,360.23978 90.64567,360.1747 C89.79989,359.96698 90.000725,360.06082 89.01113,359.61633 C88.925514,359.57788 88.84609,359.52448 88.77426,359.46408 C88.62941,359.34225 88.48976,359.213 88.363716,359.07184 C87.94041,358.59763 87.39231,357.41547 87.25713,357.13235 C86.9283,356.44373 86.66314,355.72598 86.33747,355.03583 C86.131195,354.5987 86.180466,354.84927 86.0014,354.58353 C85.9094,354.44702 85.82931,354.3028 85.74326,354.1624 L85.74326,354.1624" /><path fill="none" stroke="#000000" stroke-width="0.06mm" d="M65.66573,325.1291 L65.099754,324.40387" /><path fill="none" stroke="#000000" stroke-width="0.06mm" d="M95.052536,366.5808 C94.70468,366.7264 94.36111,366.88272 94.00898,367.0176 C92.62156,367.54926 91.21139,368.0219 89.8345,368.58026 C89.56234,368.69064 89.31537,368.8571 89.07103,369.02002 C88.052826,369.69904 87.21804,370.54657 85.99785,370.83414 C82.778915,371.59286 79.503914,372.1041 76.29341,372.8977 C75.244644,373.15695 73.36642,374.27316 72.41431,374.69617 C71.08531,375.28662 69.322014,375.01 68.04724,374.97968 C67.783485,374.97342 67.331314,374.83603 67.07887,374.7067 C66.52737,374.4241 66.046555,373.84418 65.67305,373.43497 C65.51047,373.25684 65.361145,373.06384 65.24048,372.85504 C65.01804,372.4701 64.68965,371.6054 64.66005,371.179 C64.59108,370.1855 64.595856,369.18665 64.63233,368.1914 C64.6665,367.25903 64.72609,366.32425 64.87174,365.40265 C65.02226,364.45035 65.57789,363.2323 65.499146,362.15833 C65.267044,358.99268 63.394905,351.90903 63.21805,350.99042 C63.093475,350.34335 63.031105,349.67316 63.09581,349.01736 C63.2709,347.24283 63.562706,345.47806 63.934036,343.734 C65.432625,336.69537 64.13733,347.07202 65.39223,337.72507 C65.62235,336.01105 64.73272,332.49097 64.66315,331.65826 C64.54144,330.20154 64.56465,328.7327 64.64148,327.27295 C64.79654,324.32657 65.026596,326.79056 65.36859,324.33374 C65.50827,323.3302 65.52581,322.31326 65.58009,321.3015 C65.58714,321.1701 65.51866,320.95386 65.46156,320.83817 C65.27251,320.4552 64.96728,320.3238 64.604515,320.01727 L64.604515,320.01727" /><defs><path id="DRAW_6992"  d="M62.773922,316.9042 C63.24738,317.15753 63.732628,317.38995 64.1943,317.66415 C64.330185,317.74487 64.46242,317.84143 64.5605,317.9654 C65.386986,319.0097 66.18544,320.07663 66.96057,321.1596 C67.49196,321.90204 67.62643,322.90314 67.45636,323.78387 C67.35716,324.2976 67.13228,325.0313 66.84876,325.51263 C66.67776,325.80298 66.43718,326.04956 66.27565,326.34528 C65.90361,327.02625 65.871124,327.63483 65.72511,328.40793 C65.69599,328.56213 65.68224,328.72003 65.638214,328.8707 C65.545425,329.1881 65.39856,329.46313 65.20455,329.7293 C64.987175,330.02756 64.86432,330.05655 64.75604,330.35074 C64.56855,330.8601 64.83069,331.34024 64.95826,331.85052 L64.95826,331.85052" /></defs><use xlink:href="#DRAW_6992" fill="none" stroke="#000000" stroke-width="0.04mm" /><text style="fill:#000000; font-size:0.5mm; letter-spacing:2;"><textPath xlink:href="#DRAW_6992">||||||||||||||||||||||||||||||||||||||||||||||||||||||||||||||||||||||</textPath></text><defs><path id="DRAW_6993"  d="M71.94458,359.85056 C69.324844,356.7162 70.89143,358.80554 67.65025,351.8111 C67.51856,351.5269 67.421555,351.0293 67.43228,350.71198 C67.52818,347.876 67.79296,345.04428 67.78899,342.20673 C67.6611,338.6271 67.53322,335.0475 67.405334,331.4679 C67.44223,331.4535 67.48091,331.40628 67.51602,331.42465 C67.58918,331.4629 67.634735,331.5414 67.67912,331.61102 C68.10794,332.28357 68.01227,332.33673 68.30153,333.28143 C68.579254,334.18854 68.83881,335.1018 69.1497,335.9981 C71.441696,342.60602 71.22372,342.22266 73.69835,347.5439 C73.755936,347.66776 73.97573,347.8694 74.07518,347.92947 C75.71837,348.92236 77.39075,349.86652 79.03062,350.8649 C79.17674,350.95386 79.303925,351.0718 79.42877,351.18878 C79.987274,351.71207 80.2184,352.99606 80.43782,353.46414 C81.39517,355.50644 82.3957,357.5293 83.4465,359.52515 C83.68992,359.98746 84.036255,360.38806 84.315704,360.82956 C84.34762,360.87994 84.362816,360.93964 84.37831,360.99725 C84.48844,361.40668 84.32602,361.8297 83.98694,362.07602 C83.539894,362.40076 83.110756,362.75586 82.62972,363.0277 C82.006165,363.38013 81.337456,363.64612 80.68521,363.9421 C80.03632,364.23657 79.38623,364.5291 78.7267,364.79886 C78.65443,364.82843 78.57366,364.83353 78.49569,364.8377 C78.1524,364.85596 77.742516,364.71085 77.466805,364.5171 C76.07154,363.53662 74.67762,362.55264 73.323654,361.5159 C71.84529,360.38385 72.92072,360.78864 71.971115,360.4873 L71.971115,360.4873" /></defs><use xlink:href="#DRAW_6993" fill="none" stroke="#924216" stroke-width="0.04mm" /><text style="fill:#924216; font-size:0.5mm; letter-spacing:2;"><textPath xlink:href="#DRAW_6993">||||||||||||||||||||||||||||||||||||||||||||||||||||||||||||||||||||||||||||||||||||||||||||||||||||||||||||||||||||||||||||||||||||||||||||||||||||||||||||||||||||||||||||||||||||||||||||||||||||||||||||||||||||||||||||||||||||||||||||||||||||||||||||||||||||||||||||||||||||||||||||||||||||||||||||||||||||||||||||||||</textPath></text><path fill="none" stroke="#924216" stroke-width="0.02mm" d="M72.961586,359.85938 C73.533325,358.81625 74.110855,357.77625 74.676796,356.72995 C74.795334,356.51083 74.83865,356.3255 75.059906,356.1902 C75.307045,356.039 75.74105,355.99347 76.00508,356.1149 C77.502594,356.8036 78.98721,357.52032 80.465675,358.249 C81.651215,358.83328 82.88615,359.37448 83.91662,360.22235 C84.05244,360.3341 84.14789,360.48743 84.26352,360.61993 L84.26352,360.61993" /><path fill="none" stroke="#924216" stroke-width="0.02mm" d="M75.57925,355.89725 C73.76948,353.8637 75.73274,355.98853 71.29736,352.22745 C70.97133,351.951 70.55403,351.36554 70.49602,350.91592 C69.98604,346.96332 69.57019,342.99884 69.05145,339.04736 C68.73236,336.61673 68.33897,334.1964 67.98272,331.77094 L67.98272,331.77094" /><path fill="none" stroke="#924216" stroke-width="0.02mm" d="M66.373215,365.81134 C67.618935,363.78226 67.023834,364.69833 69.41112,361.45145 C69.45025,361.3982 69.5652,361.35785 69.62642,361.3505 C69.71737,361.33954 69.80896,361.36047 69.89296,361.39346 C70.47571,361.62238 71.027756,361.9447 71.635895,362.09354 C72.903465,362.40375 74.20874,362.53232 75.49298,362.76398 C75.55472,362.7751 75.61426,362.79736 75.67214,362.8216 C76.13762,363.01617 75.90639,363.60004 76.1318,363.95062 C76.98384,365.2758 77.9001,366.55865 78.76669,367.8744 C78.98708,368.209 78.807755,368.7883 78.616455,369.08014 C78.13432,369.81567 77.5966,370.51422 77.12589,371.2571 C76.90501,371.60568 76.74592,371.99 76.544464,372.35016 C76.51392,372.40472 76.47281,372.4531 76.43092,372.49957 C76.26749,372.68097 76.01361,372.70633 75.78699,372.6629 C74.87256,372.48764 73.95045,372.3449 73.04735,372.1184 C72.44832,371.96814 71.86815,371.74902 71.288956,371.53467 C70.602325,371.28055 70.5654,371.12405 69.970146,371.03503 C69.65969,370.98865 69.50554,371.04492 69.18912,371.0956 C68.539566,371.19962 67.892044,371.31747 67.24019,371.40588 C66.996376,371.43893 66.74715,371.26108 66.607796,371.08112 C66.42984,370.85132 66.37872,370.55338 66.408066,370.26935 C66.59209,368.48773 66.791626,366.70776 66.98341,364.92694 L66.98341,364.92694" /><path fill="none" stroke="#924216" stroke-width="0.02mm" d="M69.78679,362.0969 C69.96565,363.15164 70.16098,364.2037 70.32337,365.26108 C70.47766,366.2657 70.58548,367.27704 70.736725,368.2821 C70.75962,368.43423 70.97267,368.56668 71.11341,368.5723 C72.1775,368.61462 73.24314,368.7214 74.30675,368.66843 C77.80027,368.4944 79.7572,367.664 78.14385,368.32306 L78.14385,368.32306" /><path fill="none" stroke="#924216" stroke-width="0.02mm" d="M70.30855,371.88715 L71.24596,368.79175" /><defs><path id="DRAW_7010"  d="M58.95267,261.07974 C59.696236,261.67105 59.854282,261.92102 60.200996,262.844 C60.439037,263.47772 60.627415,264.12927 60.86232,264.76416 C60.88291,264.8198 60.92553,264.8653 60.965195,264.90942 C61.16509,265.13177 61.465702,265.1797 61.719707,265.3144 C61.999702,265.46286 62.2509,265.68735 62.454033,265.92667 C62.802017,266.33664 62.934673,266.82724 63.17931,267.29117 C63.35842,267.63086 63.803173,267.94043 64.05534,268.16376 L64.05534,268.16376" /></defs><use xlink:href="#DRAW_7010" fill="none" stroke="#000000" stroke-width="0.04mm" /><text style="fill:#000000; font-size:0.5mm; letter-spacing:2;"><textPath xlink:href="#DRAW_7010">||||||||||||||||||||||||||||||||||||</textPath></text><defs><path id="DRAW_7011"  d="M66.16009,238.86371 C66.50677,238.01364 66.92799,237.33115 67.89282,237.13098 C68.96911,236.9077 69.475624,237.00493 70.324036,236.59123 C71.42172,236.05598 72.055176,235.0426 72.95502,234.19304 C73.05647,234.09726 73.190254,234.0429 73.30755,233.96733 C73.557304,233.8064 73.82807,233.67393 74.05616,233.48355 C74.0739,233.46875 75.12228,232.52599 75.3283,232.1536 C75.492294,231.85718 75.61292,231.53877 75.75523,231.23135 L75.75523,231.23135" /></defs><use xlink:href="#DRAW_7011" fill="none" stroke="#000000" stroke-width="0.04mm" /><text style="fill:#000000; font-size:0.5mm; letter-spacing:2;"><textPath xlink:href="#DRAW_7011">|||||||||||||||||||||||||||||||||||||||||||||||||||</textPath></text><path fill="none" stroke="#000000" stroke-width="0.06mm" stroke-dasharray="0.3mm,0.1mm" d="M57.434692,303.6533 C61.293526,306.1391 58.525154,304.6169 63.01091,306.38538 C63.31349,306.5047 64.35112,307.29544 64.38913,307.3258 C64.803894,307.65723 64.46956,307.4967 64.8168,307.81378 C64.88254,307.87378 64.965645,307.91144 65.04006,307.96027 L65.04006,307.96027" /><path fill="none" stroke="#000000" stroke-width="0.06mm" stroke-dasharray="0.3mm,0.1mm" d="M56.851025,304.5554 C57.014996,304.74854 57.161987,304.95752 57.342945,305.13486 C58.423645,306.19397 60.682198,306.56964 61.794666,306.91907 C62.000496,306.98373 62.218395,307.0145 62.415344,307.10254 C63.87802,307.75653 64.29105,308.0609 65.535835,309.25323 C65.76323,309.471 65.91869,309.75323 66.11012,310.00323 L66.11012,310.00323" /><path fill="none" stroke="#000000" stroke-width="0.06mm" stroke-dasharray="0.3mm,0.1mm" d="M75.701515,345.73337 C75.87842,346.06613 76.03139,346.41278 76.23224,346.73166 C76.52132,347.1906 77.086426,348.11847 77.629295,348.57858 C77.75058,348.6814 77.88743,348.76474 78.02273,348.84827 C78.394806,349.07788 78.80174,349.2543 79.15077,349.5177 C79.5943,349.8524 79.994064,350.24283 80.3889,350.63376 C80.51549,350.7591 80.628075,350.90283 80.70967,351.0612 C81.163055,351.94116 81.61528,352.8245 81.98978,353.7408 C82.7148,355.5148 82.271355,355.38452 83.12058,356.60028 C83.58653,357.2673 84.15717,357.86066 84.5885,358.5506 C85.197784,359.52518 85.63458,361.09802 85.598305,362.2588 C85.56189,363.42377 84.99535,365.03723 85.98613,366.03082 C86.08813,366.13312 86.337456,366.3197 86.48354,366.35483 C87.2786,366.5459 87.91958,366.62527 88.73153,366.5992 C89.49586,366.5747 91.2453,365.80325 91.38955,365.74405 C91.59069,365.6615 91.7742,365.5382 91.94962,365.40976 C92.494934,365.01047 92.873375,364.3989 93.46643,364.0691 C93.50441,364.04794 93.84974,363.88068 93.96796,363.88834 C94.26566,363.90768 94.56028,363.96027 94.85644,363.9962 L94.85644,363.9962" /><path fill="none" stroke="#000000" stroke-width="0.06mm" stroke-dasharray="0.3mm,0.1mm" d="M79.9729,348.27158 C80.190315,348.85846 80.234375,349.1266 80.60095,349.6118 C80.76882,349.83398 80.969505,350.02936 81.15714,350.23514 C81.450806,350.55722 81.78088,350.8484 82.0448,351.19525 C82.43132,351.70325 83.76473,354.086 83.878334,354.3232 C84.178474,354.94992 84.313995,355.65033 84.642044,356.2629 C84.89949,356.74362 86.65195,358.78452 86.62186,360.00824 C86.59068,361.27606 86.44547,362.53885 86.39328,363.80597 C86.38759,363.94412 86.417015,364.08243 86.44849,364.21704 C86.57109,364.74158 86.8332,365.10327 87.38193,365.19357 C88.302284,365.345 89.43302,364.62906 90.23414,364.39902 C91.23258,364.11234 91.683235,364.23557 92.4262,363.8348 C92.86519,363.59802 93.097534,363.0701 93.408516,362.7249 C93.59459,362.5184 93.80817,362.3376 94.02241,362.16043 C94.06587,362.1245 94.119896,362.09094 94.176285,362.09015 C94.42142,362.0866 94.66509,362.12854 94.9095,362.14777 L94.9095,362.14777" /><path fill="none" stroke="#000000" stroke-width="0.06mm" d="M94.977036,366.6436 C95.05866,366.5441 95.1342,366.4393 95.22192,366.34515 C95.6385,365.89795 96.592384,365.7796 97.001656,365.66977 C97.26678,365.59863 97.645744,365.66687 97.84758,365.86423 C98.18655,366.19568 98.46868,366.6751 98.690704,367.05057 C98.82671,367.28058 98.91975,367.5338 99.04932,367.76752 C99.086426,367.83447 99.13787,367.89285 99.18915,367.94965 C99.513664,368.30914 99.87895,368.63348 100.17615,369.0159 C100.69145,369.67896 101.13713,370.39334 101.62145,371.07935 C102.261116,371.9854 102.85067,372.92975 103.548065,373.79218 C104.09648,374.47034 104.7254,375.08054 105.3496,375.68967 C105.5574,375.89246 105.81424,376.03833 106.038605,376.22263 C106.07803,376.25504 106.111885,376.29495 106.139015,376.33817 C106.3552,376.68246 106.48051,377.09613 106.48803,377.50348 C106.51265,378.83688 106.1499,378.4201 106.74768,378.90634 L106.74768,378.90634" /><path fill="none" stroke="#000000" stroke-width="0.06mm" d="M116.47454,372.66666 C116.372795,372.66153 116.270355,372.66428 116.16931,372.65134 C115.979034,372.62695 115.79264,372.57587 115.60196,372.55496 C115.32126,372.52423 114.9686,372.56564 114.684525,372.45334 C114.13873,372.23755 113.61885,371.9531 113.05927,371.77612 C111.22325,371.19547 109.11363,370.88907 107.352936,369.9834 C106.45736,369.52274 105.64416,368.9161 104.77016,368.4157 C104.562515,368.2968 104.33248,368.2222 104.112495,368.12814 C103.77114,367.98215 103.41197,367.87347 103.086174,367.69543 C102.25621,367.2419 101.983055,366.7212 101.20914,366.08887 C100.93646,365.8661 100.609085,365.71912 100.323135,365.51367 C100.13555,365.3789 99.759094,365.0402 99.629684,364.82053 C99.38534,364.40573 99.01756,363.35532 98.47649,362.95685 C98.24522,362.7865 97.85142,362.61163 97.62023,362.51718 C97.52114,362.47668 97.41872,362.44003 97.31283,362.42438 C96.69009,362.3324 96.06249,362.2767 95.438324,362.19495 C95.403145,362.19034 95.32841,362.15173 95.30208,362.1301 C95.24411,362.08246 95.19122,362.02896 95.135796,361.9784 L95.135796,361.9784" /><path fill="none" stroke="#924216" stroke-width="0.02mm" d="M105.01448,371.87167 C105.021126,372.12344 105.018974,372.37558 105.034424,372.62695 C105.03771,372.68045 105.03552,372.95782 105.12927,373.05188 C105.2103,373.13318 105.34663,373.15814 105.44984,373.17706 C105.57919,373.2007 105.71002,373.2164 105.84093,373.229 C106.0045,373.24475 106.19771,372.96335 106.23417,372.834 C106.27866,372.67618 106.14781,372.53217 106.0301,372.4489 C105.98584,372.4176 105.932686,372.3972 105.89523,372.35803 C105.72668,372.18164 105.57294,371.99167 105.41523,371.80554 C105.36906,371.75104 105.34399,371.67664 105.26816,371.6598 C105.21702,371.64844 105.17491,371.6731 105.12614,371.68286 C105.021866,371.70367 104.91688,371.72073 104.81224,371.73965 L104.81224,371.73965" /><path fill="none" stroke="#924216" stroke-width="0.02mm" d="M101.63889,367.87418 C101.629196,368.02725 101.60834,368.18005 101.609795,368.33347 C101.611984,368.56375 101.67153,368.82205 101.84352,368.98755 C102.0365,369.17322 102.5377,369.4486 102.751976,369.1422 C102.79836,369.07587 102.83627,368.98444 102.82501,368.90173 C102.80495,368.7543 102.631905,368.73615 102.52709,368.68134 C102.43897,368.63528 102.371895,368.57764 102.3103,368.49994 C102.26811,368.4467 102.053314,368.10022 101.91902,368.04987 C101.73963,367.98254 101.54632,367.96082 101.35997,367.91626 L101.35997,367.91626" /><path fill="none" stroke="#924216" stroke-width="0.02mm" d="M105.057724,372.9194 C105.060135,372.7833 105.07108,372.6698 105.22197,372.65146 C105.28282,372.64404 105.332115,372.6446 105.39147,372.66086 C105.445625,372.67572 105.49663,372.70135 105.55136,372.7139 C105.62294,372.7303 105.69745,372.73135 105.76911,372.7474 C105.87616,372.7714 106.07657,372.9092 106.11831,372.945 C106.13712,372.96115 106.13017,372.99316 106.1361,373.0172 L106.1361,373.0172" /><path fill="none" stroke="#924216" stroke-width="0.02mm" d="M105.2734,372.52313 L105.26086,371.73312" /><path fill="none" stroke="#924216" stroke-width="0.02mm" d="M101.67212,368.03378 C101.6679,368.09525 101.65951,368.1566 101.659454,368.21817 C101.6593,368.40125 101.803276,368.5791 101.92338,368.69943 C101.98052,368.75668 102.04364,368.80933 102.125595,368.8201 C102.14279,368.82236 102.16031,368.8228 102.17761,368.8217 C102.25122,368.81674 102.32428,368.80353 102.398026,368.80182 C102.48902,368.7997 102.6142,368.81525 102.69294,368.8699 C102.71852,368.88766 102.73967,368.91107 102.76303,368.93167 L102.76303,368.93167" /><path fill="none" stroke="#924216" stroke-width="0.02mm" d="M102.06585,369.01697 C102.11333,369.17023 102.0759,369.11096 102.15864,369.20505 L102.15864,369.20505" /><path fill="none" stroke="#924216" stroke-width="0.02mm" d="M102.07588,369.2126 C102.00808,369.0151 102.03122,369.1306 102.03826,368.86145 L102.03826,368.86145" /><path fill="none" stroke="#924216" stroke-width="0.02mm" d="M102.86586,370.0653 C102.91777,370.31763 103.09397,371.22748 103.11426,371.32608 C103.12347,371.37085 103.178085,371.4229 103.21987,371.43564 C103.398636,371.49005 103.58181,371.52954 103.75975,371.58655 C103.85384,371.6167 103.9418,371.6637 104.03488,371.69684 C104.04613,371.70084 104.058876,371.69904 104.07068,371.69727 C104.10669,371.69186 104.13941,371.66428 104.155426,371.6322 C104.21466,371.51346 104.35483,371.316 104.25776,371.16803 C104.16203,371.02216 104.061646,370.87933 103.96362,370.73495 C103.92981,370.68515 103.92386,370.6684 103.87711,370.6297 C103.761185,370.53372 103.443275,370.44086 103.41298,370.4265 C103.33104,370.3878 103.25973,370.32922 103.17893,370.28818 C103.144424,370.27063 103.10707,370.24615 103.06874,370.25156 C102.98118,370.2638 102.90172,370.3096 102.81821,370.33865 L102.81821,370.33865" /><path fill="none" stroke="#924216" stroke-width="0.02mm" d="M103.11664,371.31177 C103.16986,371.17197 103.22639,370.90872 103.42153,370.89548 C103.567276,370.88556 103.80715,370.98608 103.933,371.02127 C103.97629,371.0334 104.070816,371.0303 104.099724,371.03088 L104.099724,371.03088" /><path fill="none" stroke="#924216" stroke-width="0.02mm" d="M103.34988,370.81018 C103.08011,370.67383 103.04614,370.59662 102.85081,370.3487 L102.85081,370.3487" /><defs><path id="DRAW_7032"  d="M94.875824,366.50143 C94.84336,366.4431 94.80607,366.38727 94.77844,366.32654 C94.661415,366.06924 94.73099,365.72488 94.76365,365.473 C94.78188,365.33237 94.843025,365.18146 94.93525,365.07263 C95.08445,364.89648 95.42154,364.67148 95.66465,364.63693 C95.815216,364.6155 95.968796,364.617 96.11847,364.59003 C96.21233,364.57312 96.3031,364.54056 96.39196,364.50592 C96.53202,364.4513 96.72409,364.37714 96.81679,364.23932 C96.92404,364.07993 97.08665,363.87888 97.149734,363.67264 C97.220184,363.44235 97.038864,363.1879 96.802956,363.15744 C96.78021,363.15454 96.75708,363.15335 96.73419,363.1549 C96.61136,363.16324 96.48922,363.19278 96.36624,363.18704 C96.21394,363.17993 96.063545,363.14777 95.91432,363.11652 C95.83877,363.10068 95.71882,363.04736 95.65093,363.00037 C95.57497,362.9478 95.5009,362.8677 95.45524,362.78928 C95.40761,362.70746 95.37125,362.61948 95.3329,362.5329 C95.31308,362.48816 95.30528,362.43802 95.280876,362.3956 C95.27503,362.38544 95.25725,362.37796 95.24751,362.3845 C95.22928,362.39673 95.22275,362.42102 95.2134,362.4409 C95.19574,362.47845 95.18229,362.51785 95.16673,362.55634 L95.16673,362.55634" /></defs><use xlink:href="#DRAW_7032" fill="none" stroke="#000000" stroke-width="0.04mm" /><text style="fill:#000000; font-size:0.5mm; letter-spacing:2;"><textPath xlink:href="#DRAW_7032">||||||||||||||||||||||||||||</textPath></text><path fill="none" stroke="#000000" stroke-width="0.06mm" stroke-dasharray="0.3mm,0.1mm" d="M94.22378,363.93826 C94.30702,363.92886 94.39228,363.9306 94.47351,363.91013 C94.84336,363.81696 95.21559,363.6317 95.49419,363.36856 C95.61145,363.25778 95.67046,363.15756 95.75859,363.02783 L95.75859,363.02783" /><use xlink:href="#stalactite" width="3.6" height="3.6" x="-1.8" y="-1.8" transform="translate(90.74222 183.72098) rotate(0)"/>
<use xlink:href="#stalactite" width="3.6" height="3.6" x="-1.8" y="-1.8" transform="translate(96.12262 149.66791) rotate(0)"/>
<text x="123.108635" y="388.25534" font-family="sans-serif" font-size=".2mm" fill="black">ostatni FF+H</text>
<text x="17.34893" y="58.94664" font-family="sans-serif" font-size=".2mm" fill="black">okno?</text>
<use xlink:href="#water" width="3.6" height="3.6" x="-1.8" y="-1.8" transform="translate(95.546936 68.37669) rotate(314)"/>
<use xlink:href="#stalactite" width="3.6" height="3.6" x="-1.8" y="-1.8" transform="translate(91.21217 179.28038) rotate(0)"/>
<use xlink:href="#stalactite" width="3.6" height="3.6" x="-1.8" y="-1.8" transform="translate(91.21217 174.00153) rotate(0)"/>
<use xlink:href="#stalactite" width="3.6" height="3.6" x="-1.8" y="-1.8" transform="translate(62.852745 243.43979) rotate(0)"/>
<use xlink:href="#stalactite" width="3.6" height="3.6" x="-1.8" y="-1.8" transform="translate(62.375557 246.19643) rotate(0)"/>
<use xlink:href="#stalactite" width="3.6" height="3.6" x="-1.8" y="-1.8" transform="translate(61.511 249.318) rotate(0)"/>
<use xlink:href="#water" width="3.6" height="3.6" x="-1.8" y="-1.8" transform="translate(93.28835 363.39905) rotate(231)"/>
</g>
<g>
<line fill="none" stroke="#00aeef" stroke-width="0.05mm" stroke-dasharray="0.4,0.2" opacity="0.96" x1="90.00" y1="74.00" x2="97.11" y2="57.45" />
<line fill="none" stroke="#00aeef" stroke-width="0.05mm" stroke-dasharray="0.4,0.2" opacity="0.91" x1="90.00" y1="74.00" x2="98.43" y2="77.57" />
<line fill="none" stroke="#5674b9" stroke-width="0.05mm" stroke-dasharray="0.4,0.2" opacity="0.81" x1="90.00" y1="74.00" x2="20.74" y2="61.37" />
<line fill="none" stroke="#5674b9" stroke-width="0.05mm" stroke-dasharray="0.4,0.2" opacity="0.76" x1="90.00" y1="74.00" x2="47.26" y2="69.28" />
<line fill="none" stroke="#5674b9" stroke-width="0.05mm" stroke-dasharray="0.4,0.2" opacity="0.79" x1="90.00" y1="74.00" x2="47.50" y2="69.20" />
<line fill="none" stroke="#00aeef" stroke-width="0.05mm" stroke-dasharray="0.4,0.2" opacity="0.03" x1="90.00" y1="74.00" x2="90.53" y2="74.03" />
<line fill="none" stroke="#5674b9" stroke-width="0.05mm" stroke-dasharray="0.4,0.2" opacity="0.09" x1="90.00" y1="74.00" x2="120.24" y2="36.87" />
<line fill="none" stroke="#5674b9" stroke-width="0.05mm" stroke-dasharray="0.4,0.2" opacity="0.10" x1="90.00" y1="74.00" x2="99.42" y2="24.78" />
<line fill="none" stroke="#5674b9" stroke-width="0.05mm" stroke-dasharray="0.4,0.2" opacity="0.12" x1="90.00" y1="74.00" x2="92.13" y2="19.09" />
<line fill="none" stroke="#111111" stroke-width="0.05mm" x1="90.00" y1="74.00" x2="94.86" y2="105.93" />
<line fill="none" stroke="#5674b9" stroke-width="0.05mm" stroke-dasharray="0.4,0.2" opacity="0.03" x1="94.86" y1="105.93" x2="95.45" y2="105.75" />
<line fill="none" stroke="#5674b9" stroke-width="0.05mm" stroke-dasharray="0.4,0.2" opacity="0.10" x1="94.86" y1="105.93" x2="100.51" y2="102.19" />
<line fill="none" stroke="#5674b9" stroke-width="0.05mm" stroke-dasharray="0.4,0.2" opacity="0.02" x1="94.86" y1="105.93" x2="95.16" y2="106.12" />
<line fill="none" stroke="#5674b9" stroke-width="0.05mm" stroke-dasharray="0.4,0.2" opacity="0.98" x1="94.86" y1="105.93" x2="101.42" y2="103.38" />
<line fill="none" stroke="#00aeef" stroke-width="0.05mm" stroke-dasharray="0.4,0.2" opacity="0.95" x1="94.86" y1="105.93" x2="90.01" y2="107.80" />
<line fill="none" stroke="#111111" stroke-width="0.05mm" x1="94.86" y1="105.93" x2="95.84" y2="185.60" />
<line fill="none" stroke="#00aeef" stroke-width="0.05mm" stroke-dasharray="0.4,0.2" opacity="0.80" x1="95.84" y1="185.60" x2="96.53" y2="264.97" />
<line fill="none" stroke="#00aeef" stroke-width="0.05mm" stroke-dasharray="0.4,0.2" opacity="0.88" x1="95.84" y1="185.60" x2="102.45" y2="183.44" />
<line fill="none" stroke="#00aeef" stroke-width="0.05mm" stroke-dasharray="0.4,0.2" opacity="0.15" x1="95.84" y1="185.60" x2="97.70" y2="184.71" />
<line fill="none" stroke="#5674b9" stroke-width="0.05mm" stroke-dasharray="0.4,0.2" opacity="0.28" x1="95.84" y1="185.60" x2="99.89" y2="184.56" />
<line fill="none" stroke="#5674b9" stroke-width="0.05mm" stroke-dasharray="0.4,0.2" opacity="0.31" x1="95.84" y1="185.60" x2="123.80" y2="176.48" />
<line fill="none" stroke="#00aeef" stroke-width="0.05mm" stroke-dasharray="0.4,0.2" opacity="0.96" x1="95.84" y1="185.60" x2="91.08" y2="188.29" />
<line fill="none" stroke="#111111" stroke-width="0.05mm" x1="95.84" y1="185.60" x2="101.17" y2="196.98" />
<line fill="none" stroke="#00aeef" stroke-width="0.05mm" stroke-dasharray="0.4,0.2" opacity="0.38" x1="101.17" y1="196.98" x2="97.34" y2="198.60" />
<line fill="none" stroke="#5674b9" stroke-width="0.05mm" stroke-dasharray="0.4,0.2" opacity="0.09" x1="101.17" y1="196.98" x2="100.09" y2="195.66" />
<line fill="none" stroke="#5674b9" stroke-width="0.05mm" stroke-dasharray="0.4,0.2" opacity="0.12" x1="101.17" y1="196.98" x2="107.93" y2="190.72" />
<line fill="none" stroke="#00aeef" stroke-width="0.05mm" stroke-dasharray="0.4,0.2" opacity="0.95" x1="101.17" y1="196.98" x2="99.01" y2="207.89" />
<line fill="none" stroke="#00aeef" stroke-width="0.05mm" stroke-dasharray="0.4,0.2" opacity="0.97" x1="101.17" y1="196.98" x2="92.91" y2="195.82" />
<line fill="none" stroke="#111111" stroke-width="0.05mm" x1="101.17" y1="196.98" x2="66.50" y2="220.67" />
<line fill="none" stroke="#00aeef" stroke-width="0.05mm" stroke-dasharray="0.4,0.2" opacity="0.98" x1="66.50" y1="220.67" x2="77.11" y2="223.25" />
<line fill="none" stroke="#00aeef" stroke-width="0.05mm" stroke-dasharray="0.4,0.2" opacity="0.13" x1="66.50" y1="220.67" x2="68.99" y2="221.55" />
<line fill="none" stroke="#5674b9" stroke-width="0.05mm" stroke-dasharray="0.4,0.2" opacity="0.42" x1="66.50" y1="220.67" x2="78.34" y2="222.81" />
<line fill="none" stroke="#111111" stroke-width="0.05mm" x1="66.50" y1="220.67" x2="75.73" y2="248.77" />
<line fill="none" stroke="#00aeef" stroke-width="0.05mm" stroke-dasharray="0.4,0.2" opacity="0.24" x1="75.73" y1="248.77" x2="71.28" y2="245.55" />
<line fill="none" stroke="#00aeef" stroke-width="0.05mm" stroke-dasharray="0.4,0.2" opacity="0.98" x1="75.73" y1="248.77" x2="63.99" y2="243.41" />
<line fill="none" stroke="#5674b9" stroke-width="0.05mm" stroke-dasharray="0.4,0.2" opacity="0.14" x1="75.73" y1="248.77" x2="75.07" y2="242.13" />
<line fill="none" stroke="#00aeef" stroke-width="0.05mm" stroke-dasharray="0.4,0.2" opacity="0.59" x1="75.73" y1="248.77" x2="62.45" y2="262.60" />
<line fill="none" stroke="#111111" stroke-width="0.05mm" x1="75.73" y1="248.77" x2="44.97" y2="280.13" />
<line fill="none" stroke="#00aeef" stroke-width="0.05mm" stroke-dasharray="0.4,0.2" opacity="0.26" x1="44.97" y1="280.13" x2="48.12" y2="281.75" />
<line fill="none" stroke="#00aeef" stroke-width="0.05mm" stroke-dasharray="0.4,0.2" opacity="0.92" x1="44.97" y1="280.13" x2="53.62" y2="285.00" />
<line fill="none" stroke="#5674b9" stroke-width="0.05mm" stroke-dasharray="0.4,0.2" opacity="0.04" x1="44.97" y1="280.13" x2="44.41" y2="283.73" />
<line fill="none" stroke="#111111" stroke-width="0.05mm" x1="44.97" y1="280.13" x2="54.39" y2="305.94" />
<line fill="none" stroke="#00aeef" stroke-width="0.05mm" stroke-dasharray="0.4,0.2" opacity="0.98" x1="54.39" y1="305.94" x2="60.87" y2="300.50" />
<line fill="none" stroke="#5674b9" stroke-width="0.05mm" stroke-dasharray="0.4,0.2" opacity="0.19" x1="54.39" y1="305.94" x2="60.17" y2="304.04" />
<line fill="none" stroke="#111111" stroke-width="0.05mm" x1="54.39" y1="305.94" x2="66.79" y2="310.86" />
<line fill="none" stroke="#00aeef" stroke-width="0.05mm" stroke-dasharray="0.4,0.2" opacity="0.97" x1="66.79" y1="310.86" x2="61.12" y2="314.11" />
<line fill="none" stroke="#00aeef" stroke-width="0.05mm" stroke-dasharray="0.4,0.2" opacity="0.40" x1="66.79" y1="310.86" x2="64.05" y2="312.14" />
<line fill="none" stroke="#5674b9" stroke-width="0.05mm" stroke-dasharray="0.4,0.2" opacity="0.05" x1="66.79" y1="310.86" x2="69.03" y2="310.31" />
<line fill="none" stroke="#111111" stroke-width="0.05mm" x1="66.79" y1="310.86" x2="65.38" y2="372.37" />
<line fill="none" stroke="#5674b9" stroke-width="0.05mm" stroke-dasharray="0.4,0.2" opacity="0.96" x1="65.38" y1="372.37" x2="98.29" y2="365.07" />
<line fill="none" stroke="#5674b9" stroke-width="0.05mm" stroke-dasharray="0.4,0.2" opacity="0.76" x1="65.38" y1="372.37" x2="85.49" y2="354.54" />
<line fill="none" stroke="#5674b9" stroke-width="0.05mm" stroke-dasharray="0.4,0.2" opacity="0.67" x1="65.38" y1="372.37" x2="69.07" y2="325.72" />
<line fill="none" stroke="#5674b9" stroke-width="0.05mm" stroke-dasharray="0.4,0.2" opacity="0.07" x1="65.38" y1="372.37" x2="73.82" y2="366.83" />
<line fill="none" stroke="#00aeef" stroke-width="0.05mm" stroke-dasharray="0.4,0.2" opacity="0.04" x1="65.38" y1="372.37" x2="67.67" y2="372.15" />
<line fill="none" stroke="#111111" stroke-width="0.05mm" x1="65.38" y1="372.37" x2="95.53" y2="362.35" />
<line fill="none" stroke="#5674b9" stroke-width="0.05mm" stroke-dasharray="0.4,0.2" opacity="0.94" x1="95.53" y1="362.35" x2="94.21" y2="366.34" />
<line fill="none" stroke="#00aeef" stroke-width="0.05mm" stroke-dasharray="0.4,0.2" opacity="0.19" x1="95.53" y1="362.35" x2="93.65" y2="364.62" />
<line fill="none" stroke="#5674b9" stroke-width="0.05mm" stroke-dasharray="0.4,0.2" opacity="0.18" x1="95.53" y1="362.35" x2="98.39" y2="365.39" />
<line fill="none" stroke="#111111" stroke-width="0.05mm" x1="95.53" y1="362.35" x2="107.21" y2="376.77" />
<line fill="none" stroke="#00aeef" stroke-width="0.05mm" stroke-dasharray="0.4,0.2" opacity="0.35" x1="107.21" y1="376.77" x2="106.62" y2="378.75" />
<line fill="none" stroke="#00aeef" stroke-width="0.05mm" stroke-dasharray="0.4,0.2" opacity="0.43" x1="107.21" y1="376.77" x2="112.12" y2="376.85" />
<line fill="none" stroke="#00aeef" stroke-width="0.05mm" stroke-dasharray="0.4,0.2" opacity="0.94" x1="107.21" y1="376.77" x2="116.67" y2="372.73" />
<line fill="none" stroke="#5674b9" stroke-width="0.05mm" stroke-dasharray="0.4,0.2" opacity="0.37" x1="107.21" y1="376.77" x2="114.64" y2="376.28" />
<line fill="none" stroke="#00aeef" stroke-width="0.05mm" stroke-dasharray="0.4,0.2" opacity="0.60" x1="107.21" y1="376.77" x2="108.49" y2="370.42" />
<line fill="none" stroke="#111111" stroke-width="0.05mm" x1="107.21" y1="376.77" x2="119.94" y2="384.84" />
<line fill="none" stroke="#5674b9" stroke-width="0.05mm" stroke-dasharray="0.4,0.2" opacity="0.58" x1="119.94" y1="384.84" x2="164.95" y2="396.16" />
<line fill="none" stroke="#111111" stroke-width="0.05mm" x1="119.94" y1="384.84" x2="190.69" y2="411.76" />
</g>
<g>
<circle cx="90.00" cy="74.00" r="0.1" fill="#111111" />
<circle cx="94.86" cy="105.93" r="0.1" fill="#111111" />
<circle cx="95.84" cy="185.60" r="0.1" fill="#111111" />
<circle cx="101.17" cy="196.98" r="0.1" fill="#111111" />
<circle cx="66.50" cy="220.67" r="0.1" fill="#111111" />
<circle cx="75.73" cy="248.77" r="0.1" fill="#111111" />
<circle cx="44.97" cy="280.13" r="0.1" fill="#111111" />
<circle cx="54.39" cy="305.94" r="0.1" fill="#111111" />
<circle cx="66.79" cy="310.86" r="0.1" fill="#111111" />
<circle cx="65.38" cy="372.37" r="0.1" fill="#111111" />
<circle cx="95.53" cy="362.35" r="0.1" fill="#111111" />
<circle cx="107.21" cy="376.77" r="0.1" fill="#111111" />
<circle cx="119.94" cy="384.84" r="0.1" fill="#111111" />
<circle cx="190.69" cy="411.76" r="0.1" fill="#111111" />
</g>
<g>
<text x="90.20" y="74.00" font-size=".2mm" fill="#000000">0</text>
<text x="95.06" y="105.93" font-size=".2mm" fill="#000000">1</text>
<text x="96.04" y="185.60" font-size=".2mm" fill="#000000">2</text>
<text x="101.37" y="196.98" font-size=".2mm" fill="#000000">3</text>
<text x="66.70" y="220.67" font-size=".2mm" fill="#000000">4</text>
<text x="75.93" y="248.77" font-size=".2mm" fill="#000000">5</text>
<text x="45.17" y="280.13" font-size=".2mm" fill="#000000">6</text>
<text x="54.59" y="305.94" font-size=".2mm" fill="#000000">7</text>
<text x="66.99" y="310.86" font-size=".2mm" fill="#000000">8</text>
<text x="65.58" y="372.37" font-size=".2mm" fill="#000000">9</text>
<text x="95.73" y="362.35" font-size=".2mm" fill="#000000">10</text>
<text x="107.41" y="376.77" font-size=".2mm" fill="#000000">11</text>
<text x="120.14" y="384.84" font-size=".2mm" fill="#000000">12</text>
<text x="190.89" y="411.76" font-size=".2mm" fill="#000000">13</text>
</g>
<g>
</g>
</g>
</svg>