<?xml version="1.0" encoding="utf-8"?>
<!DOCTYPE svg PUBLIC "-//W3C//DTD SVG 1.1//EN" "http://www.w3.org/Graphics/SVG/1.1/DTD/svg11.dtd">
<svg version="1.1" id="Layer_1" xmlns="http://www.w3.org/2000/svg" xmlns:xlink="http://www.w3.org/1999/xlink" x="0px" y="0px" width="73mm" height="118mm" viewBox="0 0 73 118" enable-background="new 0 0 73 118" xml:space="preserve">
<symbol id="airflow" viewBox="-12 -12 24 24">
<path d="M-4.38,10.73l4.2-3.84V3.55L-4.07,7.13l-.31-.29L-.18,3V-6.89a3.37,3.37,0,0,0-1.68.53l1.68-4.15L0-11l.21.51h0v0l1.65,4.1A3.26,3.26,0,0,0,.24-6.89v14l-.08,0L-4.07,11Z"/>
<rect fill="none" x="-12" y="-12" width="24" height="24"/>
</symbol>
<symbol id="anastomosis" viewBox="-12 -12 24 24">
<path d="M2.23-4.78l.37.24L5.22-2.78l-.47.57L2.49-3.7l-4.61,8-.24.44-.37-.34L-5.22,2.3l.55-.52,2.1,1.82L2-4.39Z"/>
<rect fill="none" x="-12" y="-12" width="24" height="24"/>
</symbol>
<symbol id="bivouac" viewBox="-12 -12 24 24">
<path d="M.25-7.66l.24.58L.54-7l3.88.48-3.31.91L6,6H8.35v.48l-16.7.07V6.05h2.64L0-7.08Zm0,1.32L-5.13,6H-4l2.07-5L.2-4l2.09,5L4.37,6H5.44Z"/>
<rect fill="none" x="-12" y="-12" width="24" height="24"/>
</symbol>
<symbol id="bones" viewBox="-12 -12 24 24">
<path d="M2.44,4.27l-.16,0H2.13a.22.22,0,0,1-.11,0l-.1-.06a.39.39,0,0,1-.09-.11l-.08-.13a1.51,1.51,0,0,1-.06-.15l-.07-.17s0-.11-.08-.19-.06-.16-.08-.21a4.75,4.75,0,0,0-.38-.71c-.18-.29-.43-.64-.74-1A11.15,11.15,0,0,0-.7.32,6.73,6.73,0,0,0-2-.64a4.12,4.12,0,0,0-1.44-.52A1.64,1.64,0,0,1-5-2.19.72.72,0,0,1-5-2.44a1,1,0,0,1,0-.29A.52.52,0,0,1-4.87-3a.54.54,0,0,1,.35-.15L-4-3.22l.46,0a.54.54,0,0,0,.27-.06A.52.52,0,0,0-3-3.56a.74.74,0,0,0,.13-.31.54.54,0,0,1,.15-.26.54.54,0,0,1,.3-.15.83.83,0,0,1,.47,0,1.11,1.11,0,0,1,.35.4A7.46,7.46,0,0,1-1-2.76q.18.42.33.72a3.22,3.22,0,0,0,.39.57L.1-1a4.77,4.77,0,0,0,.58.43c.28.18.51.33.69.43l1,.56a1.84,1.84,0,0,0,.39.23A5.29,5.29,0,0,1,3.22.9l.43.26a3.7,3.7,0,0,1,.46.3l.36.29a2.28,2.28,0,0,1,.31.32A1,1,0,0,1,5,2.4c.2.48,0,.78-.47.91h0a8.48,8.48,0,0,0-1.12.09,1,1,0,0,0-.42.44A1,1,0,0,1,2.44,4.27Z"/>
<rect fill="none" x="-12" y="-12" width="24" height="24"/>
</symbol>
<symbol id="calcite" viewBox="-12 -12 24 24">
<path d="M2.36-2.22l.05.46.34,3.91L2,2.22,1.65-1.26-2.52-.06l-.23-.7L1.89-2.08Z"/>
<rect fill="none" x="-12" y="-12" width="24" height="24"/>
</symbol>
<symbol id="cauliflower" viewBox="-12 -12 24 24">
<path d="M5.58,3.22v-3A2.12,2.12,0,0,0,6.92-.43a1.78,1.78,0,0,0,.55-1.32,1.92,1.92,0,0,0-.65-1.42,2.19,2.19,0,0,0-1.53-.59,2.21,2.21,0,0,0-1.54.59,1.78,1.78,0,0,0-.64,1.42A1.86,1.86,0,0,0,3.65-.43,2.12,2.12,0,0,0,5,.23v3H.26v-3A2.17,2.17,0,0,0,1.61-.43a1.81,1.81,0,0,0,.54-1.32,1.91,1.91,0,0,0-.64-1.42A2.21,2.21,0,0,0,0-3.76a2.21,2.21,0,0,0-1.54.59,1.82,1.82,0,0,0-.64,1.42A1.83,1.83,0,0,0-1.66-.43,2.12,2.12,0,0,0-.32.23v3H-5v-3A2.12,2.12,0,0,0-3.71-.43a1.78,1.78,0,0,0,.55-1.32,1.92,1.92,0,0,0-.65-1.42,2.19,2.19,0,0,0-1.53-.59,2.21,2.21,0,0,0-1.54.59,1.83,1.83,0,0,0-.65,1.42A1.87,1.87,0,0,0-7-.43,2.12,2.12,0,0,0-5.64.23v3H-8v.54H8V3.22Z"/>
<rect fill="none" x="-12" y="-12" width="24" height="24"/>
</symbol>
<symbol id="clay" viewBox="-12 -12 24 24">
<path d="M1.85-1.33a3,3,0,0,1,1.67.48,3.23,3.23,0,0,1,1,1l.29.51-1,.43a3.81,3.81,0,0,0-.23-.4A3.74,3.74,0,0,0,2.93,0,1.77,1.77,0,0,0,1.85-.32a2.57,2.57,0,0,0-1.1.15A.86.86,0,0,0,.51.14,2.23,2.23,0,0,1,0,.88a2.55,2.55,0,0,1-1.45.43,3.16,3.16,0,0,1-2.75-1,4.28,4.28,0,0,1-.37-.57,3.91,3.91,0,0,1-.21-.47l0-.16,1-.22a1.87,1.87,0,0,0,.45.79A2.12,2.12,0,0,0-1.51.33,1.82,1.82,0,0,0-.69.14l.21-.36A1.53,1.53,0,0,1,.17-1,3.76,3.76,0,0,1,1.85-1.33Z"/>
<rect fill="none" x="-12" y="-12" width="24" height="24"/>
</symbol>
<symbol id="crystals" viewBox="-12 -12 24 24">
<path d="M-2.94-5.38,0-.72,2.94-5.38,3.62-5,.68-.36H6.56V.36H.68L3.62,5l-.68.36L0,.72-2.94,5.38-3.62,5-.68.36H-6.56V-.36H-.68L-3.62-5Z"/>
<rect fill="none" x="-12" y="-12" width="24" height="24"/>
</symbol>
<symbol id="curtain" viewBox="-12 -12 24 24">
<path d="M3.57-6.69l.52.53L.39-3V-.33L.1-.26a3.79,3.79,0,0,0-1,.41c-.58.3-.87.65-.87,1v.07A1.61,1.61,0,0,0-.84,2.48a3.69,3.69,0,0,0,.45.24L0,2.86l.13.05L.39,3V6.12H-.39V3.51a7.65,7.65,0,0,1-.9-.46A2.19,2.19,0,0,1-2.54,1.28V1.23A2,2,0,0,1-1.31-.48,5.32,5.32,0,0,1-.39-.86V-3l-3.7-3.14.52-.53L0-3.67Z"/>
<rect fill="none" x="-12" y="-12" width="24" height="24"/>
</symbol>
<symbol id="disk" viewBox="-12 -12 24 24">
<path d="M-.09-4.19a2.43,2.43,0,0,1,1.7.64A2,2,0,0,1,2.35-2,2.09,2.09,0,0,1,1.81-.55,2.44,2.44,0,0,1,.35.23l2.18,3.6-.68.33L0,1.14-1.48,4.19l-.71-.29L-.41.25A2.53,2.53,0,0,1-1.9-.47a2,2,0,0,1-.63-1.41,2,2,0,0,1,.67-1.61,2.46,2.46,0,0,1,1.72-.7ZM1.05-3.06.56-3.49l-.69,0A1.72,1.72,0,0,0-1.29-3a1.51,1.51,0,0,0-.45,1.08,1.36,1.36,0,0,0,.51,1A1.68,1.68,0,0,0-.07-.44v0l0,0A1.7,1.7,0,0,0,1.11-.92,1.36,1.36,0,0,0,1.56-2,1.47,1.47,0,0,0,1.05-3.06Z"/>
<rect fill="none" x="-12" y="-12" width="24" height="24"/>
</symbol>
<symbol id="entrance" viewBox="-12 -12 24 24">
<path d="M4.46,9H-4.46L0-9Z"/>
<rect fill="none" x="-12" y="-12" width="24" height="24"/>
</symbol>
<symbol id="flowstone" viewBox="-12 -12 24 24">
<rect x="-6" y="-0.21" width="12" height="0.42"/>
<rect fill="none" x="-12" y="-12" width="24" height="24"/>
</symbol>
<symbol id="flutes" viewBox="-12 -12 24 24">
<path d="M-7-1H7v.72H3.87A4.7,4.7,0,0,1,2.16,1.5,4.2,4.2,0,0,1,0,2.13,3.94,3.94,0,0,1-2.19,1.5,4.18,4.18,0,0,1-3.76-.27H-7Zm4.17.72A3.15,3.15,0,0,0-1.65,1,3.21,3.21,0,0,0,0,1.41,3.49,3.49,0,0,0,1.6,1,3.68,3.68,0,0,0,3-.27Z"/>
<rect fill="none" x="-12" y="-12" width="24" height="24"/>
</symbol>
<symbol id="gradient" viewBox="-12 -12 24 24">
<path d="M2.58-3.83,0-10-2.58-3.83A4.74,4.74,0,0,1-.17-4.5V10H.25V-4.5A6.65,6.65,0,0,1,2.58-3.83Z"/>
<rect fill="none" x="-12" y="-12" width="24" height="24"/>
</symbol>
<symbol id="guano" viewBox="-12 -12 24 24">
<path d="M-3.24-3a2.15,2.15,0,0,1,1.57.55A3.93,3.93,0,0,1-.59.24a4.32,4.32,0,0,1,2.75-2.3,2.68,2.68,0,0,1,2.23.36A2.36,2.36,0,0,1,5.5.19l-.79,0a1.72,1.72,0,0,0-.79-1.37,1.94,1.94,0,0,0-1.55-.24A3.53,3.53,0,0,0,.48,0,6.63,6.63,0,0,0-.69,3l-.79-.09a10.72,10.72,0,0,0,0-3.16A3.21,3.21,0,0,0-2.22-2,1.44,1.44,0,0,0-3.37-2.3,3.45,3.45,0,0,0-5-1.54l-.5-.55a4.29,4.29,0,0,1,2-.91A.9.9,0,0,1-3.24-3Z"/>
<rect fill="none" x="-12" y="-12" width="24" height="24"/>
</symbol>
<symbol id="helictites" viewBox="-12 -12 24 24">
<path d="M-4.59-7.92h.79v7.7l3.41,0V-7.92H.39V-.17L4.2-.12h.39v8H3.8V.6L.39.55V7.92H-.39V.55L-4.2.5l-.39,0v-8.4Z"/>
<rect fill="none" x="-12" y="-12" width="24" height="24"/>
</symbol>
<symbol id="human" viewBox="-12 -12 24 24">
<path d="M-3.59-3.29A5.13,5.13,0,0,1,0-4.66,5.13,5.13,0,0,1,3.59-3.29,4.3,4.3,0,0,1,5.09,0a4.3,4.3,0,0,1-1.5,3.29A5.13,5.13,0,0,1,0,4.66,5.13,5.13,0,0,1-3.59,3.29,4.3,4.3,0,0,1-5.09,0,4.3,4.3,0,0,1-3.59-3.29Zm.28.77A3.68,3.68,0,0,0-4.3,0a3.62,3.62,0,0,0,1,2.57L-.5.05ZM0-3.94A4.42,4.42,0,0,0-2.75-3L.16-.36H4.28A3.62,3.62,0,0,0,2.91-2.9,4.38,4.38,0,0,0,0-3.94ZM.16.46-2.7,3.07A4.42,4.42,0,0,0,0,3.94a4.37,4.37,0,0,0,2.87-1A3.78,3.78,0,0,0,4.28.46Z"/>
<rect fill="none" x="-12" y="-12" width="24" height="24"/>
</symbol>
<symbol id="karren" viewBox="-12 -12 24 24">
<path d="M1-5.84h0a1.37,1.37,0,0,1,1.06.68A3.33,3.33,0,0,1,2.5-3.79,25.79,25.79,0,0,1,2.36,0a18.61,18.61,0,0,0-.08,3.72,2.68,2.68,0,0,0,.41,1.2,1.13,1.13,0,0,0,.79.5A.92.92,0,0,0,4,4.94a4.43,4.43,0,0,0,.47-1.22c.16-.64.36-1.86.59-3.66a26.71,26.71,0,0,1,.64-3.69,4.62,4.62,0,0,1,.57-1.29,1.34,1.34,0,0,1,1-.59h0A1.28,1.28,0,0,1,8.37-5a2.17,2.17,0,0,1,.39,1.15A19.91,19.91,0,0,1,8.54-.53a21.51,21.51,0,0,0-.2,3.64A2.64,2.64,0,0,0,9.45,5.36,1.91,1.91,0,0,0,10.88,5a3.84,3.84,0,0,0,.7-1l.42.2-.1.18-.12.21-.11.18L11.52,5a.94.94,0,0,1-.14.16c-.06.07-.13.12-.19.18a2.5,2.5,0,0,1-1.85.41H9.29l0,0A3.06,3.06,0,0,1,7.87,3.13a22.11,22.11,0,0,1,.2-3.7,18.17,18.17,0,0,0,.22-3.28A1.85,1.85,0,0,0,8-4.79a.77.77,0,0,0-.67-.3.93.93,0,0,0-.64.42,4.51,4.51,0,0,0-.51,1.15A26.26,26.26,0,0,0,5.54.1c-.24,1.83-.45,3.07-.61,3.72a5.38,5.38,0,0,1-.51,1.34,1.33,1.33,0,0,1-.89.68H3.47A1.58,1.58,0,0,1,2.3,5.16a3.29,3.29,0,0,1-.49-1.4A20.27,20.27,0,0,1,1.89,0,23.45,23.45,0,0,0,2-3.75a2.94,2.94,0,0,0-.32-1.19A.93.93,0,0,0,1-5.42,1.1,1.1,0,0,0,.19-5,3.69,3.69,0,0,0-.43-3.76,20.78,20.78,0,0,0-1.07.07c-.2,2-.37,3.32-.49,3.86A4.48,4.48,0,0,1-2,5.26,1.06,1.06,0,0,1-3,5.81h0a1.9,1.9,0,0,1-1.29-.67,2.7,2.7,0,0,1-.58-1.31,14.92,14.92,0,0,1,0-3.6q0-.12.06-.54c0-.28,0-.47,0-.57s0-.28,0-.52,0-.42,0-.55,0-.28,0-.47,0-.36,0-.51,0-.29,0-.43A3.09,3.09,0,0,0-5-4.62a1.19,1.19,0,0,0-.67-.6,1.5,1.5,0,0,0-1.2.9A7,7,0,0,0-7.41-2.1c0,.39-.1,1-.14,1.76s-.11,1.47-.18,2.08A9.61,9.61,0,0,1-8,3.32h0l0,0A2.81,2.81,0,0,1-9.2,4.62a1.82,1.82,0,0,1-1.35.15A1.94,1.94,0,0,1-11.61,4,2.39,2.39,0,0,1-12,2.56l.47,0a1.92,1.92,0,0,0,.31,1.16,1.47,1.47,0,0,0,.81.62,1.3,1.3,0,0,0,1-.11A2.32,2.32,0,0,0-8.5,3.18a7.53,7.53,0,0,0,.29-1.5Q-8.1.8-8-.36c0-.78.1-1.37.16-1.78A7.23,7.23,0,0,1-7.28-4.5,1.93,1.93,0,0,1-5.65-5.66h.05l0,0a1.59,1.59,0,0,1,1,.84,3.47,3.47,0,0,1,.34,1.41,4.91,4.91,0,0,1,0,.57v.54c0,.15,0,.37,0,.66s0,.47,0,.58,0,.33-.06.68,0,.56-.06.63a14.78,14.78,0,0,0,0,3.49,2.58,2.58,0,0,0,.5,1.13,1.57,1.57,0,0,0,1,.5A.61.61,0,0,0-2.44,5,3.89,3.89,0,0,0-2,3.85C-1.9,3.31-1.74,2-1.53,0A20.65,20.65,0,0,1-.86-3.89,3.89,3.89,0,0,1-.18-5.26,1.58,1.58,0,0,1,1-5.84Z"/>
<rect fill="none" x="-12" y="-12" width="24" height="24"/>
</symbol>
<symbol id="moonmilk" viewBox="-12 -12 24 24">
<path d="M-4.78-3.06a3.39,3.39,0,0,1,1.5.34,2.48,2.48,0,0,1,1.1,1,3.74,3.74,0,0,1,1.62-.8,3.52,3.52,0,0,1,1.71,0,2.9,2.9,0,0,1,1.39.77A2.49,2.49,0,0,1,3.25-.37,4,4,0,0,1,5-.76a3.58,3.58,0,0,1,1.6.36A2.84,2.84,0,0,1,7.88.92a2.32,2.32,0,0,1,0,1.88.34.34,0,0,1-.37.26A.36.36,0,0,1,7.25,3a.32.32,0,0,1-.12-.25.21.21,0,0,1,0-.12,2,2,0,0,0,0-1.43,2,2,0,0,0-1-.9A2.81,2.81,0,0,0,4.68,0,2.78,2.78,0,0,0,3.12.56L2.46.25A1.7,1.7,0,0,0,2.15-1.1,2.15,2.15,0,0,0,1-1.81a2.85,2.85,0,0,0-1.58.06A3,3,0,0,0-2-.83l-.71-.12A1.74,1.74,0,0,0-3.55-2a2.36,2.36,0,0,0-1.39-.27,3.08,3.08,0,0,0-1.45.53A2.33,2.33,0,0,0-7.32-.56a.35.35,0,0,1-.37.24A.39.39,0,0,1-8-.42a.33.33,0,0,1-.1-.26v-.1A3,3,0,0,1-6.89-2.35,4,4,0,0,1-5-3Z"/>
<rect fill="none" x="-12" y="-12" width="24" height="24"/>
</symbol>
<symbol id="narrow" viewBox="-12 -12 24 24">
<path d="M-1.5,5V-5h0.64V5H-1.5z"/>
<path d="M0.86,5V-5H1.5V5H0.86z"/>
<rect fill="none" x="-12" y="-12" width="24" height="24"/>
</symbol>
<symbol id="paleoflow" viewBox="-12 -12 24 24">
<path d="M.38-12V.17A1.9,1.9,0,0,0,1,0,1.57,1.57,0,0,0,1.7-.72a1.86,1.86,0,0,0,.23-1c0-.09,0-.14.08-.16a.92.92,0,0,1,.24,0,.52.52,0,0,0,.25,0h.08A2.48,2.48,0,0,1,2,0,2.5,2.5,0,0,1,.38.77V7.21H2.09L0,12-1.8,7.23c.07,0,.59,0,1.53,0V.77A3,3,0,0,1-1.35.43a2.16,2.16,0,0,1-1-1,2.38,2.38,0,0,1-.24-1.33l.67,0a2,2,0,0,0,.15,1,1.73,1.73,0,0,0,.59.67A2.14,2.14,0,0,0-.27.16V-12Z"/>
<rect fill="none" x="-12" y="-12" width="24" height="24"/>
</symbol>
<symbol id="rain" viewBox="-12 -12 24 24">
<path d="M-4.14-6.34h0.71v4.69h-0.71V-6.34z"/>
<path d="M-0.35-6.34h0.71v4.69h-0.71V-6.34z"/>
<path d="M3.43-6.34h0.71v4.69H3.43V-6.34z"/>
<path d="M-4.14,1.65h0.71v4.69h-0.71V1.65z"/>
<path d="M-0.35,1.65h0.71v4.69h-0.71V1.65z"/>
<path d="M3.43,1.65h0.71v4.69H3.43V1.65z"/>
<rect fill="none" x="-12" y="-12" width="24" height="24"/>
</symbol>
<symbol id="rats" viewBox="-12 -12 24 24">
<path d="M8.78-2.32,7-2.27c-.51-.17-.65-.56-1.46-.45l-.25.45C3.59-2.75,2.59-3.66.56-3.62l-1.35.3A4.89,4.89,0,0,0-4.24,1.57c-.68.6-2.58.86-3.39.94a6.84,6.84,0,0,0-1.62.39,4.91,4.91,0,0,0-1,.52A1.75,1.75,0,0,0-11,4.61a1.16,1.16,0,0,0,.59,1.48,1.3,1.3,0,0,1,.14.12c.16-.52-.35-.92-.2-1.42a3.35,3.35,0,0,1,.27-.45,3.18,3.18,0,0,1,1.79-1c.63-.12,1.27-.22,1.91-.3.48-.07,1,0,1.4-.12A6.94,6.94,0,0,1-4,2.82,30.64,30.64,0,0,0,.41,2.69l2.16.15c.1-.09,0,0,.1-.15a.87.87,0,0,0-.9-.55c.86-1,2.27-.37,3.1-.05.5.19,1,0,1.25.4.11-.1.1-.07.15-.25.3,0,.31.07.6.15-.06-.49-.34-.64-1-.6a.78.78,0,0,1,0-.55C6.3.56,7.29.73,8.13.43a13.78,13.78,0,0,0,2.15-.9l.6-.85v-.2A16.9,16.9,0,0,0,8.78-2.32Z"/>
<rect fill="none" x="-12" y="-12" width="24" height="24"/>
</symbol>
<symbol id="sand" viewBox="-12 -12 24 24">
<path d="M-1.58,0.83c0.23,0.2,0.35,0.44,0.36,0.73c0.01,0.29-0.08,0.54-0.28,0.75c-0.2,0.21-0.46,0.32-0.78,0.33c-0.32,0.01-0.6-0.08-0.83-0.26C-3.36,2.19-3.49,1.95-3.5,1.67C-3.51,1.38-3.41,1.12-3.2,0.9c0.21-0.22,0.48-0.34,0.8-0.35C-2.08,0.54-1.81,0.64-1.58,0.83z"/>
<path d="M0.08-2.36c0.23,0.2,0.35,0.44,0.36,0.73c0.01,0.29-0.08,0.54-0.28,0.75c-0.2,0.21-0.46,0.32-0.78,0.33c-0.32,0.01-0.59-0.07-0.83-0.26s-0.37-0.42-0.38-0.71c-0.01-0.29,0.09-0.54,0.3-0.76c0.21-0.22,0.48-0.33,0.8-0.35C-0.42-2.65-0.14-2.56,0.08-2.36z"/>
<path d="M3.12,0.55c0.23,0.2,0.35,0.43,0.38,0.71c0.02,0.28-0.07,0.53-0.28,0.75C3,2.23,2.73,2.35,2.42,2.36C2.1,2.37,1.82,2.28,1.58,2.08C1.34,1.88,1.22,1.64,1.2,1.35c-0.01-0.29,0.09-0.54,0.3-0.75C1.72,0.4,1.99,0.29,2.3,0.28S2.89,0.36,3.12,0.55z"/>
<rect fill="none" x="-12" y="-12" width="24" height="24"/>
</symbol>
<symbol  id="scallops" viewBox="-12 -12 24 24">
<path d="M.05-3.74l.21,0A2.35,2.35,0,0,1,1.74-3a2,2,0,0,1,.59,1.55v0l0,0A9.59,9.59,0,0,1-.08,3.27l-.39.47-.27-.55A14.26,14.26,0,0,1-2.33-1.89v-.05l0-.05A2,2,0,0,1-1.44-3.3,2.42,2.42,0,0,1,.05-3.74ZM-.11-3A1.44,1.44,0,0,0-1.55-1.89,13.06,13.06,0,0,0-.29,2.33,8.6,8.6,0,0,0,1.55-1.54a1.41,1.41,0,0,0-.38-1A1.62,1.62,0,0,0,.18-3Z"/>
<rect fill="none" x="-12" y="-12" width="24" height="24"/>
</symbol>
<symbol  id="sink" viewBox="-12 -12 24 24">
<path d="M.72,9.41H.9c1.94,0,3.26-.54,3.94-1.51a3.61,3.61,0,0,0,.33-.69,2,2,0,0,0,.11-.54V6.46l.69,0a2.8,2.8,0,0,1-.58,1.78C4.58,9.39,3.1,10,.93,10H-.93q-3.25,0-4.46-1.8a2.74,2.74,0,0,1-.43-.83A2.37,2.37,0,0,1-6,6.67V6.43l.68,0A2.27,2.27,0,0,0-4.84,7.9c.68,1,2,1.47,3.93,1.48l.5,0ZM-1.46-10a.68.68,0,0,0,.16.41A2.77,2.77,0,0,0-.51-9l0,0a3.63,3.63,0,0,1,1,.7,1.15,1.15,0,0,1,.34.88c0,.58-.53,1.14-1.49,1.68-.68.42-1,.79-1,1.11s.3.61.84,1h0Q.61-2.86.46-1.78a3.51,3.51,0,0,1-1.55,2,.61.61,0,0,0-.26.41,1.67,1.67,0,0,0,.1.51,5.3,5.3,0,0,1,.32,1L.56,1.9.46,8.06-3.4,2.54l1.73-.28A6.16,6.16,0,0,0-2,1.39,1.7,1.7,0,0,1-2.09.58a1.21,1.21,0,0,1,.53-.82h0v0C-.75-.86-.33-1.38-.28-1.85s-.23-.87-.91-1.27h0C-2-3.6-2.37-4.1-2.4-4.61S-2-5.74-1.09-6.29C-.34-6.72.06-7.1.09-7.44a.67.67,0,0,0-.18-.43,3.17,3.17,0,0,0-.79-.58,2.93,2.93,0,0,1-1-.67A1.16,1.16,0,0,1-2.17-10Z"/>
<rect fill="none" x="-12" y="-12" width="24" height="24"/>
</symbol>
<symbol  id="spring" viewBox="-12 -12 24 24">
<path d="M-1.34-9.86,2.52-4.34.78-4.06a8,8,0,0,0,.29.87,1.4,1.4,0,0,1,.13.79,1.3,1.3,0,0,1-.52.84l0,0v0C-.13-.95-.55-.42-.61,0S-.37.91.31,1.3l0,0c.75.46,1.14,1,1.18,1.46S1.12,3.92.21,4.46C-.54,4.9-.94,5.29-1,5.64a.74.74,0,0,0,.18.43A3.2,3.2,0,0,0,0,6.62a3,3,0,0,1,1,.7,1.14,1.14,0,0,1,.31.86A1.74,1.74,0,0,1,.71,9.26H.92c1.92,0,3.22-.52,3.9-1.51a2.05,2.05,0,0,0,.35-.67,2.59,2.59,0,0,0,.1-.55l0-.19.65,0a2.84,2.84,0,0,1-.55,1.8C4.58,9.26,3.08,9.85.92,9.86H-.92c-2.17,0-3.66-.6-4.49-1.77a3.65,3.65,0,0,1-.4-.85A2.43,2.43,0,0,1-6,6.53V6.29l.66,0a2.08,2.08,0,0,0,.47,1.41c.68,1,2,1.5,3.91,1.51H-.4c.62-.43.94-.8,1-1.1a.76.76,0,0,0-.16-.43,3.25,3.25,0,0,0-.79-.51v0a3.8,3.8,0,0,1-1-.7,1.15,1.15,0,0,1-.34-.91q.06-.84,1.5-1.68c.68-.4,1-.77,1-1.1S.49,2.21,0,1.87c0,0,0,0,0,0C-1,1.32-1.44.69-1.34,0a3.58,3.58,0,0,1,1.55-2,.54.54,0,0,0,.23-.38A1.28,1.28,0,0,0,.37-3a4.57,4.57,0,0,1-.32-1l-1.49.24Z"/>
<rect fill="none" x="-12" y="-12" width="24" height="24"/>
</symbol>
<symbol  id="stalactite" viewBox="-12 -12 24 24">
<path d="M3.57-6.69l.52.53L.39-3V6.12H-.39V-3l-3.7-3.14.52-.53L0-3.67Z"/>
<rect fill="none" x="-12" y="-12" width="24" height="24"/>
</symbol>
<symbol  id="stalagmite" viewBox="-12 -12 24 24">
<path d="M.38-6.42V2.75L4.11,5.89l-.56.53L0,3.4l-3.57,3-.53-.53,3.7-3.14V-6.42Z"/>
<rect fill="none" x="-12" y="-12" width="24" height="24"/>
</symbol>
<symbol  id="stalagnate" viewBox="-12 -12 24 24">
<path d="M3.55-8.46l.56.53L.38-4.78v9L4.11,7.36l-.56.53L0,4.86l-3.57,3-.53-.53,3.7-3.14v-9l-3.7-3.15.53-.53L0-5.43Z"/>
<rect fill="none" x="-12" y="-12" width="24" height="24"/>
</symbol>
<symbol  id="straws" viewBox="-12 -12 24 24">
<path d="M-10.89-2.76H10.89V-2H9.63V.46H8.84V-2H8.29v5.6H7.5V-2H5.56V.7H4.77V-2H2.07V2.38H1.29V-2H-.1v3H-.89V-2H-3.2V4.11H-4V-2H-6.22L-6.16.75l-.79,0L-7-2H-8.32V2.33H-9.1V-2h-1.79Z"/>
<rect fill="none" x="-12" y="-12" width="24" height="24"/>
</symbol>
<symbol  id="water" viewBox="-12 -12 24 24">
<path d="M-1.72-9.86,2.11-4.32.38-4.06a6.49,6.49,0,0,0,.29.89,1.5,1.5,0,0,1,.13.79,1.2,1.2,0,0,1-.5.82h0l0,0C-.54-.94-1-.42-1,.05s.24.89.92,1.27h0c.77.48,1.17,1,1.19,1.49S.71,3.94-.2,4.49c-.75.43-1.13.81-1.15,1.15a.51.51,0,0,0,.18.43,2.66,2.66,0,0,0,.76.58,2.93,2.93,0,0,1,1,.67,1.16,1.16,0,0,1,.29.89C.84,8.75.42,9.3-.41,9.86l-.44-.55c.66-.45,1-.83,1-1.15A.47.47,0,0,0,0,7.75a2.84,2.84,0,0,0-.78-.53h0a3.87,3.87,0,0,1-1-.69,1.24,1.24,0,0,1-.34-.91c0-.58.54-1.14,1.52-1.68.66-.42,1-.79,1-1.11s-.3-.61-.84-1h0Q-1.9,1.06-1.74,0a3.44,3.44,0,0,1,1.54-2,.67.67,0,0,0,.27-.41A1.11,1.11,0,0,0,0-3a4.33,4.33,0,0,1-.31-1l-1.5.24Z"/>
<rect fill="none" x="-12" y="-12" width="24" height="24"/>
</symbol><symbol  id="tree" viewBox="-12 -12 24 24">
<path d="M7.4-5.04A4.271,4.271,0,0,0,7.7-6.627a4.3,4.3,0,0,0-4.3-4.3A4.279,4.279,0,0,0,.636-9.914,4.293,4.293,0,0,0-3.045-12a4.3,4.3,0,0,0-4.3,4.3,4.27,4.27,0,0,0,.421,1.845,4.3,4.3,0,0,0-3.645,4.244,4.3,4.3,0,0,0,4.3,4.3A4.282,4.282,0,0,0-3.946,2L-1.175,5.23h0L-1.612,12H.982L.757,6.376,4.119,2.827v0a4.272,4.272,0,0,0,2.15.58,4.3,4.3,0,0,0,4.3-4.3A4.3,4.3,0,0,0,7.4-5.04ZM-3.346,1.538h0A4.346,4.346,0,0,0-2.7.788a4.266,4.266,0,0,0,1.765.753l-.135,2.087ZM.69,4.7.563,1.544A4.258,4.258,0,0,0,2.321.805,4.3,4.3,0,0,0,3.378,2.279Z"/>
<rect fill="none" x="-12" y="-12" width="24" height="24"/>
</symbol><g>
<desc></desc>
<g>
<line fill="none" stroke="#dddddd" stroke-width="0.1mm" x1="0.00" y1="30.00" x2="73.00" y2="30.00" />
<text x="70.20" y="29.80" font-size=".2mm" fill="#000000">0m</text>
<line fill="none" stroke="#dddddd" stroke-width="0.1mm" x1="0.00" y1="10.00" x2="73.00" y2="10.00" />
<text x="70.20" y="9.80" font-size=".2mm" fill="#000000">10m</text>
<line fill="none" stroke="#dddddd" stroke-width="0.1mm" x1="0.00" y1="50.00" x2="73.00" y2="50.00" />
<text x="70.20" y="49.80" font-size=".2mm" fill="#000000">-10m</text>
<line fill="none" stroke="#dddddd" stroke-width="0.1mm" x1="0.00" y1="70.00" x2="73.00" y2="70.00" />
<text x="70.20" y="69.80" font-size=".2mm" fill="#000000">-20m</text>
<line fill="none" stroke="#dddddd" stroke-width="0.1mm" x1="0.00" y1="90.00" x2="73.00" y2="90.00" />
<text x="70.20" y="89.80" font-size=".2mm" fill="#000000">-30m</text>
<line fill="none" stroke="#dddddd" stroke-width="0.1mm" x1="0.00" y1="110.00" x2="73.00" y2="110.00" />
<text x="70.20" y="109.80" font-size=".2mm" fill="#000000">-40m</text>
<line fill="none" stroke="#dddddd" stroke-width="0.1mm" x1="34.00" y1="0.00" x2="34.00" y2="118.00" />
<text x="34.40" y="2.00" font-size=".2mm" fill="#000000">0m</text>
<line fill="none" stroke="#dddddd" stroke-width="0.1mm" x1="14.00" y1="0.00" x2="14.00" y2="118.00" />
<text x="14.40" y="2.00" font-size=".2mm" fill="#000000">-10m</text>
<line fill="none" stroke="#dddddd" stroke-width="0.1mm" x1="54.00" y1="0.00" x2="54.00" y2="118.00" />
<text x="54.40" y="2.00" font-size=".2mm" fill="#000000">10m</text>
</g>
<g>
<path fill="none" stroke="#000000" stroke-width="0.06mm" stroke-dasharray="0.3mm,0.1mm" d="M21.311472,26.892147 L21.288092,26.892548" /><defs><path id="DRAW_6382"  d="M35.389687,36.113678 L35.39009,36.11408" /></defs><use xlink:href="#DRAW_6382" fill="none" stroke="#000000" stroke-width="0.04mm" /><text style="fill:#000000; font-size:0.5mm; letter-spacing:2;"><textPath xlink:href="#DRAW_6382">|</textPath></text><path fill="none" stroke="#000000" stroke-width="0.06mm" stroke-dasharray="0.3mm,0.1mm" d="M34.928936,30.432716 C34.957005,30.549435 34.985077,30.666153 35.013145,30.782871 C35.041786,30.98117 35.05648,31.181992 35.09907,31.37777 C35.158237,31.649733 35.25637,31.91212 35.31787,32.183563 C35.363945,32.386913 35.380844,32.595924 35.4214,32.800446 C35.50278,33.210854 35.635998,33.612267 35.683594,34.02795 C35.771423,34.794964 35.778973,35.569057 35.82666,36.33961 L35.82666,36.33961" /><path fill="none" stroke="#000000" stroke-width="0.06mm" stroke-dasharray="0.3mm,0.1mm" d="M30.91328,59.620285 C30.867287,59.654114 30.818853,59.684853 30.7753,59.72177 C30.580187,59.887146 30.524212,60.20199 30.459751,60.41584 C30.444399,60.466774 30.431393,60.519966 30.432835,60.573143 C30.439938,60.83484 30.47515,61.095165 30.485287,61.35676 C30.487389,61.411026 30.481453,61.46595 30.469486,61.51892 C30.362331,61.993286 30.225145,62.460835 30.128231,62.937393 C30.094973,63.100945 30.117355,63.273144 30.079683,63.435738 C30.032455,63.639572 29.932632,63.82801 29.875261,64.02922 C29.629324,64.8918 29.84816,64.43138 29.541805,65.194016 C29.517506,65.2545 29.482965,65.31055 29.448475,65.36586 C29.340492,65.53905 29.217873,65.70307 29.114628,65.87912 C28.928963,66.195724 28.768063,66.52643 28.58226,66.84296 C28.473064,67.02898 28.33306,67.19632 28.230148,67.385895 C28.101349,67.62317 27.999052,68.25281 27.954113,68.406265 C27.90697,68.567245 27.750637,68.88154 27.639662,69.01394 C26.157028,70.78281 28.322292,68.04673 26.347183,70.21747 C26.138105,70.44726 25.99707,70.730774 25.822012,70.98743 L25.822012,70.98743" /><path fill="none" stroke="#000000" stroke-width="0.06mm" stroke-dasharray="0.3mm,0.1mm" d="M31.087303,59.901413 C31.09806,60.021202 31.122675,60.15998 31.094152,60.281754 C30.99612,60.700294 30.885977,61.115936 30.775925,61.53148 C30.733242,61.692635 30.666828,61.84781 30.636005,62.011646 C30.552176,62.457253 30.511951,62.910194 30.432571,63.356613 C30.373646,63.688015 30.278898,64.01243 30.221273,64.344055 C30.209116,64.41402 30.175663,65.04854 30.07794,65.271706 C29.973768,65.5096 29.665783,66.06485 29.529339,66.269516 C29.377615,66.4971 29.179123,66.69366 29.045818,66.932495 C28.524292,67.86691 28.709557,67.809814 28.34565,68.71595 C28.280094,68.87918 28.120983,69.0438 28.002857,69.16704 C27.955597,69.21634 27.899054,69.2568 27.85558,69.30947 C26.420874,71.04776 28.493721,68.661125 26.908667,70.373344 C26.329609,71.10832 26.941935,70.378296 26.367012,70.94546 C26.307472,71.00419 26.264605,71.077896 26.20875,71.14015 C26.15533,71.199684 26.017727,71.26195 25.970749,71.287895 L25.970749,71.287895" /><path fill="none" stroke="#000000" stroke-width="0.06mm" d="M34.0,30.0 L34.0,30.0" /><path fill="none" stroke="#000000" stroke-width="0.06mm" d="M34.0,30.0 L34.0,30.0" /><path fill="none" stroke="#000000" stroke-width="0.06mm" d="M29.527147,78.11514 L29.521458,78.1154" /><path fill="none" stroke="#000000" stroke-width="0.06mm" d="M34.0,30.0 L34.0,30.0" /><path fill="none" stroke="#000000" stroke-width="0.06mm" d="M34.0,30.0 L34.0,30.0" /><defs><path id="DRAW_6590"  d="M29.242485,80.89102 L29.224884,80.89328" /></defs><use xlink:href="#DRAW_6590" fill="none" stroke="#000000" stroke-width="0.04mm" /><text style="fill:#000000; font-size:0.5mm; letter-spacing:2;"><textPath xlink:href="#DRAW_6590">|</textPath></text><path fill="none" stroke="#000000" stroke-width="0.06mm" d="M35.43261,26.641598 C35.652786,26.885807 35.737736,26.938694 35.871258,27.203655 C35.89726,27.25525 35.921116,27.309738 35.92952,27.366898 C35.99366,27.80311 36.071266,28.239462 36.08835,28.680033 C36.101547,29.020468 36.055527,29.360985 36.019966,29.699816 C36.000416,29.886093 35.933586,30.195475 35.846798,30.382914 C35.78357,30.519463 35.70462,30.648167 35.63353,30.780794 L35.63353,30.780794" /><defs><path id="DRAW_6913"  d="M20.877348,26.800804 C20.856123,26.799599 20.83493,26.796814 20.813675,26.797188 C20.78503,26.797691 20.752682,26.808933 20.727673,26.820637 C20.631458,26.86566 20.5752,26.962494 20.510532,27.041172 L20.510532,27.041172" /></defs><use xlink:href="#DRAW_6913" fill="none" stroke="#000000" stroke-width="0.04mm" /><text style="fill:#000000; font-size:0.5mm; letter-spacing:2;"><textPath xlink:href="#DRAW_6913">||</textPath></text><path fill="none" stroke="#000000" stroke-width="0.06mm" stroke-dasharray="0.3mm,0.1mm" d="M20.378574,27.154287 C20.284534,27.17351 20.194172,27.183971 20.101862,27.15341 C20.075052,27.144535 20.050032,27.130959 20.023914,27.120213 C20.004284,27.112135 19.98439,27.1047 19.96463,27.096943 L19.96463,27.096943" /><path fill="none" stroke="#000000" stroke-width="0.06mm" stroke-dasharray="0.3mm,0.1mm" d="M20.355795,27.730068 C20.309353,27.701414 20.265533,27.667995 20.21647,27.644104 C20.166641,27.619839 20.07136,27.60217 20.016083,27.598232 C19.99113,27.596453 19.966072,27.599716 19.941067,27.60046 L19.941067,27.60046" /><defs><path id="DRAW_6916"  d="M33.989258,27.684366 C33.841152,27.825489 33.707268,27.928455 33.531437,27.753023 C33.341858,27.563873 33.41587,27.194984 33.522015,26.989721 C33.674755,26.69435 33.836647,26.40265 34.02093,26.12586 C34.232708,25.807785 34.690163,25.355976 34.84219,24.925179 C35.26939,23.714634 35.20446,23.607439 35.277374,22.12014 C35.295765,21.745016 35.015556,21.177654 34.91599,20.947338 C34.863113,20.825027 34.791157,20.710924 34.713352,20.602747 C34.345356,20.091106 33.99975,19.656092 33.372787,19.497864 C33.24143,19.464712 32.992355,19.426592 32.841896,19.448309 C32.339417,19.520836 31.8749,19.794533 31.440126,20.023138 C31.245955,20.125235 31.086636,20.28985 30.8855,20.377436 C28.914469,21.235733 26.911346,22.018524 24.931883,22.857191 C24.853195,22.89053 24.676502,23.024961 24.620808,23.101007 C24.33814,23.486967 24.078407,23.889318 23.79807,24.276976 C23.6999,24.412731 23.580507,24.532581 23.485682,24.670692 C22.558453,26.021189 23.814598,24.503517 22.131697,26.516365 C21.891987,26.803074 21.411642,26.910416 21.069592,26.885643 C20.983448,26.879404 20.930721,26.782913 20.861288,26.731548 L20.861288,26.731548" /></defs><use xlink:href="#DRAW_6916" fill="none" stroke="#000000" stroke-width="0.04mm" /><text style="fill:#000000; font-size:0.5mm; letter-spacing:2;"><textPath xlink:href="#DRAW_6916">|||||||||||||||||||||||||||||||||||||||||||||||||||||||||||||||||||||||||||||||||||||||||||||||||||||</textPath></text><path fill="none" stroke="#000000" stroke-width="0.06mm" d="M35.416473,26.669313 C35.36455,26.694838 35.35911,26.702953 35.30962,26.71226 C35.28134,26.717577 35.251934,26.71732 35.224293,26.725315 C35.19947,26.732494 34.951008,26.798061 34.871857,26.857761 C34.803658,26.909203 34.738758,26.965008 34.675156,27.022034 C34.657146,27.038181 34.64018,27.056171 34.627552,27.076801 C34.52267,27.24816 34.462826,27.411713 34.39399,27.60569 C34.380783,27.642897 34.363106,27.713928 34.367752,27.761236 C34.38216,27.907965 34.403503,27.83294 34.360695,27.929981 L34.360695,27.929981" /><defs><path id="DRAW_6923"  d="M20.376476,27.13892 C20.325306,27.220877 20.283123,27.26824 20.260689,27.35736 C20.1914,27.632593 20.315386,27.893248 20.5648,28.020338 C20.841053,28.1611 20.97834,28.144575 21.333223,28.25171 C21.576763,28.325233 22.500257,28.719522 23.025887,28.73537 C23.458828,28.748425 23.893038,28.717207 24.325264,28.745317 C25.227268,28.80398 25.658733,29.115871 26.637676,29.322556 C27.17162,29.435287 27.726284,29.427492 28.260384,29.539486 C29.202347,29.737003 30.120438,30.0367 31.059029,30.24966 C31.700935,30.395304 32.628803,30.33544 33.209175,30.300894 C33.240067,30.299055 33.56842,30.25544 33.678947,30.186901 C33.834488,30.09045 34.04088,29.908276 34.059284,29.708885 C34.071533,29.576159 34.035812,29.29585 34.15876,29.168566 C34.25215,29.071884 34.499355,29.083445 34.56708,29.05749 C34.95824,28.907593 35.365517,28.742569 35.220356,28.27341 C35.13664,28.002842 34.619686,28.120335 34.476746,28.124947 C34.310604,28.130304 34.228687,28.020924 34.143353,27.893818 C34.12173,27.861616 34.106255,27.825466 34.083725,27.79389 C34.043056,27.73689 34.02662,27.74095 33.97598,27.694271 C33.90911,27.63264 33.844673,27.56843 33.77902,27.505508 L33.77902,27.505508" /></defs><use xlink:href="#DRAW_6923" fill="none" stroke="#000000" stroke-width="0.04mm" /><text style="fill:#000000; font-size:0.5mm; letter-spacing:2;"><textPath xlink:href="#DRAW_6923">|||||||||||||||||||||||||||||||||||||||||||||||||||||||||||||||||||||||||||</textPath></text><path fill="none" stroke="#000000" stroke-width="0.06mm" d="M34.22695,28.013918 C34.245327,28.008251 34.26404,28.0036 34.28207,27.996922 C34.32947,27.979368 34.343708,27.897278 34.355835,27.863127 L34.355835,27.863127" /><path fill="none" stroke="#000000" stroke-width="0.06mm" stroke-dasharray="0.3mm,0.1mm" d="M35.208183,28.555607 C35.26718,28.565899 35.30329,28.56545 35.352566,28.589922 C35.39825,28.61261 35.44017,28.654219 35.473293,28.689037 C35.58606,28.80759 35.591022,28.98146 35.589264,29.135359 C35.588715,29.183376 35.58262,29.231667 35.57097,29.278252 C35.565033,29.302 35.508846,29.517038 35.45584,29.580185 C35.255745,29.81857 34.945435,30.052992 34.902866,30.391335 C34.894302,30.459394 34.90468,30.496752 34.91454,30.564558 L34.91454,30.564558" /><path fill="none" stroke="#000000" stroke-width="0.06mm" d="M33.892284,30.022526 C33.951393,30.256989 33.804886,30.478132 33.848152,30.70961 C33.885044,30.906963 33.94427,31.100079 33.97388,31.298655 C33.994278,31.435465 33.98023,31.575727 33.997757,31.712934 C34.036175,32.013664 34.093224,31.989191 34.071766,32.23156 C34.06525,32.305157 34.05484,32.378883 34.035816,32.45028 C33.984932,32.64126 33.89362,32.75427 33.932262,32.9492 C34.194115,34.270103 33.93566,32.99144 34.29523,34.154484 C34.31638,34.222885 34.311848,34.29684 34.314896,34.36837 C34.345474,35.08675 34.312313,34.499695 34.287357,35.234573 C34.28466,35.313965 34.312256,35.400303 34.311707,35.480675 C34.31005,35.723747 34.15283,35.915573 34.05345,36.1275 C33.98486,36.27378 34.026085,36.44185 34.032314,36.59314 C34.034386,36.64346 34.015636,36.69617 34.03074,36.744213 C34.035835,36.760437 34.056442,36.721935 34.069294,36.710796 L34.069294,36.710796" /><path fill="none" stroke="#000000" stroke-width="0.06mm" stroke-dasharray="0.3mm,0.1mm" d="M34.999615,28.921993 C35.092377,29.061926 35.17224,29.178705 35.15248,29.346292 C35.149532,29.371296 35.13535,29.4298 35.11928,29.450474 C34.81465,29.842472 34.948635,29.65202 34.56549,30.004827 C34.4682,30.094412 34.393772,30.299536 34.428936,30.430473 C34.569904,30.955395 34.749557,31.470415 34.86688,32.00112 C34.910866,32.200092 34.874004,32.410458 34.910942,32.610855 C35.954914,38.274563 35.178886,33.298008 35.44543,35.353504 C35.455345,35.42996 35.481686,35.50431 35.485313,35.581318 C35.49126,35.707424 35.483753,35.83402 35.47402,35.959892 C35.47046,36.005898 35.456425,36.050518 35.445553,36.09536 C35.403378,36.269283 35.39963,36.191814 35.407146,36.27443 L35.407146,36.27443" /><path fill="none" stroke="#000000" stroke-width="0.06mm" d="M35.634476,30.730137 C35.61955,30.760729 35.602722,30.790464 35.58969,30.82191 C35.581463,30.841778 35.57145,30.891462 35.574745,30.913126 C35.62753,31.26014 35.699986,31.60425 35.74314,31.952593 C35.773262,32.19573 35.793312,32.440792 35.79436,32.685783 C35.795265,32.896862 35.722557,33.06092 35.75787,33.25729 C35.76553,33.299885 35.779335,33.341183 35.792156,33.38252 C35.824955,33.488235 35.870567,33.59033 35.894695,33.698357 C35.928707,33.850624 35.953197,34.00546 35.966022,34.16095 C35.979004,34.318344 35.962074,34.47708 35.97192,34.634705 C35.97976,34.760223 36.009125,34.883675 36.01899,35.009052 C36.027714,35.11989 36.017395,35.23177 36.02761,35.342476 C36.050354,35.588932 36.106876,35.766487 36.288994,35.93091 L36.288994,35.93091" /><path fill="none" stroke="#000000" stroke-width="0.06mm" stroke-dasharray="0.3mm,0.1mm" d="M35.69297,36.396606 C35.706947,36.601902 35.731445,36.806747 35.7349,37.01249 C35.740364,37.33782 35.69197,37.16536 35.672943,37.445374 C35.66792,37.519333 35.669506,37.59423 35.679676,37.667656 C35.81509,38.64534 35.851536,38.236 35.79893,39.13308 C35.795174,39.19714 35.781258,39.260475 35.765278,39.322624 C35.75487,39.363094 35.739742,39.402676 35.720116,39.439568 C35.631733,39.60572 35.52548,39.762215 35.441772,39.93077 C35.38936,40.036312 35.348824,40.14772 35.31273,40.259895 C35.292545,40.32264 35.275173,40.38781 35.27352,40.453693 C35.267845,40.679955 35.26448,40.907673 35.29084,41.13246 C35.33787,41.53355 35.438965,41.926773 35.493187,42.32695 C35.506645,42.4263 35.509235,42.528717 35.49343,42.627716 C35.450516,42.896553 35.391586,43.16328 35.31784,43.425343 C35.247223,43.676292 35.08111,43.902657 35.08513,44.175663 C35.09462,44.820442 35.128437,45.46505 35.17816,46.10798 C35.186184,46.211754 35.228733,46.30996 35.25791,46.409866 C35.338943,46.687325 35.44116,46.9589 35.50876,47.23993 C35.584915,47.55655 35.647545,47.877132 35.68855,48.200188 C35.720905,48.455086 35.711636,48.713585 35.72836,48.96998 C35.821316,50.395042 35.73069,46.691673 35.70873,50.985275 C35.70833,51.063602 35.730072,51.141014 35.75169,51.2163 C35.954773,51.92364 35.910496,51.80542 36.0863,52.205627 L36.0863,52.205627" /><path fill="none" stroke="#000000" stroke-width="0.06mm" d="M36.149513,35.89555 C36.20926,36.64308 36.269005,37.39061 36.32875,38.138138 C36.331455,38.265503 36.326794,38.393234 36.33686,38.520226 C36.353497,38.730083 36.39739,38.738113 36.377106,38.907906 C36.34865,39.14612 36.24068,39.23564 36.15328,39.513397 C36.093197,39.704323 36.08012,39.90824 36.017082,40.098206 C35.96254,40.262577 35.86923,40.41155 35.802254,40.571255 C35.790173,40.60006 35.783344,40.631294 35.780476,40.662395 C35.74475,41.049572 35.86382,40.857204 35.885906,41.50155 C35.901196,41.94761 35.874374,42.394547 35.844925,42.839897 C35.79747,43.557583 35.69936,43.704453 35.720444,44.310646 C35.72464,44.431236 35.84742,45.030968 35.84806,45.041153 C35.900906,45.878548 35.793423,46.608673 36.010303,47.394424 C36.116203,47.778107 36.293232,48.141495 36.378944,48.530186 C36.54016,49.261284 36.480152,50.565243 36.46955,51.202663 C36.46667,51.37577 36.407024,51.742443 36.49021,51.93492 C36.51629,51.99526 36.58461,52.026417 36.63181,52.072166 L36.63181,52.072166" /><path fill="none" stroke="#000000" stroke-width="0.06mm" d="M33.976837,36.818054 C33.950752,36.88632 33.91955,36.95284 33.89859,37.022842 C33.88648,37.063282 33.878853,37.105606 33.878086,37.14781 C33.872547,37.452747 33.84946,37.759285 33.879696,38.062767 C33.94584,38.726585 34.093426,39.380333 34.16659,40.043415 C34.200603,40.351654 34.1829,40.66352 34.200832,40.973106 C34.209015,41.114353 34.254353,41.254097 34.24489,41.395264 C34.220013,41.766293 34.15589,42.133804 34.098377,42.501194 C34.05016,42.80918 33.95696,42.965313 33.99216,43.267044 C34.06747,43.91248 34.19142,44.55169 34.264175,45.19742 C34.277058,45.311745 34.25462,45.427326 34.2485,45.542213 C34.223625,46.009132 34.168636,46.47525 34.17119,46.942818 C34.17225,47.13649 34.23057,47.325584 34.25929,47.517117 C34.366673,48.233246 34.496777,48.946396 34.579494,49.665794 C34.664577,50.405758 34.563236,51.680763 34.475918,52.28928 C34.36034,53.094772 34.091255,52.71508 34.407623,53.060234 L34.407623,53.060234" /><path fill="none" stroke="#000000" stroke-width="0.06mm" stroke-dasharray="0.3mm,0.1mm" d="M35.322193,36.159824 C35.3155,36.230137 35.313587,36.30107 35.302116,36.370766 C35.27579,36.530678 35.17472,36.67182 35.167427,36.835606 C35.160297,36.995678 35.262684,37.26192 35.27106,37.347458 C35.300873,37.651764 35.31319,37.95858 35.303265,38.26418 C35.29461,38.530605 35.125122,38.774082 35.069786,39.02355 C34.983833,39.41103 34.947838,39.808113 34.872334,40.197765 C34.8228,40.453392 34.621582,40.644657 34.63767,40.906242 C34.672993,41.48056 34.69183,40.64049 34.772877,41.55163 C34.79871,41.842026 34.77011,42.135075 34.78641,42.426167 C34.793888,42.55974 34.835213,42.689857 34.844086,42.823345 C34.8637,43.118526 34.717945,43.37948 34.649937,43.65709 C34.633156,43.725586 34.6245,43.796234 34.62105,43.866673 C34.60655,44.16311 34.59159,44.45994 34.596127,44.7567 C34.59902,44.94571 34.703545,45.160835 34.73748,45.335907 C34.926437,46.310753 34.77282,45.682434 34.811043,46.70242 C34.84807,47.690453 34.895824,46.622482 35.044933,47.72567 C35.20686,48.923676 35.056675,49.17708 35.062126,50.439445 C35.06364,50.78953 35.452614,51.91287 35.454666,51.920227 C35.598114,52.434586 35.429993,52.058105 35.613174,52.42449 L35.613174,52.42449" /><path fill="none" stroke="#000000" stroke-width="0.06mm" d="M34.261574,52.880814 C34.21256,52.930183 34.177025,52.980797 34.160645,53.048462 C34.148094,53.100315 34.153557,53.16166 34.173283,53.210945 C34.242725,53.375946 34.31217,53.540947 34.38161,53.705948 C34.405167,53.74421 34.433098,53.780098 34.452282,53.82073 C34.47186,53.86219 34.483395,53.907013 34.497196,53.950737 C34.52876,54.050743 34.59567,54.18426 34.571278,54.301636 C34.547573,54.41571 34.427,54.56457 34.350513,54.632088 C34.049015,54.89824 33.727486,55.14103 33.424606,55.4056 C33.285015,55.52754 33.095062,55.98618 33.07731,56.014893 C32.99133,56.153946 32.884224,56.278854 32.78317,56.407364 C32.769154,56.425186 32.751114,56.439713 32.73277,56.453026 C32.582603,56.56204 32.42802,56.66488 32.27799,56.77408 C32.238342,56.802937 32.204338,56.839195 32.163963,56.867023 C32.03724,56.95436 31.895927,57.02127 31.777206,57.1192 C31.638618,57.23353 31.536507,57.388214 31.396172,57.50039 C30.262787,58.309685 30.823858,57.873627 30.22738,58.368942 C30.064573,58.504135 29.904701,58.64302 29.737719,58.773018 C29.546701,58.92173 29.42813,58.94497 29.30479,59.15114 C29.253284,59.237232 29.253141,59.268196 29.229675,59.372364 C29.226364,59.387054 29.225819,59.40235 29.221642,59.416817 C29.213272,59.445793 29.201967,59.473843 29.192131,59.502354 L29.192131,59.502354" /><path fill="none" stroke="#000000" stroke-width="0.06mm" d="M36.358967,51.989258 L36.3681,51.968075" /><path fill="none" stroke="#000000" stroke-width="0.06mm" d="M34.0,30.0 L34.0,30.0" /><path fill="none" stroke="#000000" stroke-width="0.06mm" d="M36.409492,51.90055 C36.42771,51.930923 36.448032,51.96013 36.46415,51.99166 C36.4733,52.009567 36.47956,52.028915 36.484993,52.04828 C36.518982,52.169395 36.566048,52.288162 36.58236,52.412903 C36.598072,52.533028 36.587227,52.655403 36.580208,52.77635 C36.575134,52.863792 36.555313,52.949795 36.546154,53.036903 C36.506752,53.411762 36.616894,52.97927 36.412155,53.7099 C36.366596,53.872498 36.34502,53.810287 36.32997,53.94436 C36.322075,54.01469 36.323917,54.085884 36.316154,54.156235 C36.313683,54.178658 36.305916,54.200207 36.299355,54.22179 C36.283268,54.27474 36.260983,54.32589 36.24825,54.379738 C36.23734,54.42586 36.229984,54.473194 36.2287,54.52057 C36.19623,55.7168 36.31821,54.472992 36.03711,55.95746 C36.024082,56.026264 36.037964,56.097897 36.029415,56.167404 C36.00513,56.36476 35.883045,56.560425 35.792187,56.720703 C35.758324,56.78044 35.609993,57.02359 35.51224,57.083282 C35.178677,57.286987 34.84098,57.485016 34.492836,57.66266 C34.336227,57.74257 34.167427,57.79638 34.00139,57.854195 C33.60338,57.992783 33.45618,57.987926 33.144707,58.16548 C32.887512,58.312096 32.75368,58.504616 32.542934,58.741272 C32.422535,58.876472 32.305332,59.01464 32.192703,59.156384 C32.100735,59.272125 31.941654,59.5494 31.77613,59.673904 C31.585491,59.817307 31.620209,59.705708 31.606152,59.876266 L31.606152,59.876266" /><path fill="none" stroke="#000000" stroke-width="0.06mm" stroke-dasharray="0.3mm,0.1mm" d="M35.51687,52.26099 C35.506058,52.425453 35.649998,52.52669 35.692482,52.673637 C35.7244,52.784042 35.687332,52.8925 35.654022,52.998737 C35.64649,53.022762 35.635033,53.045692 35.621426,53.06688 C35.59825,53.10295 35.572407,53.13745 35.544186,53.169724 C35.460186,53.265778 35.311375,53.379143 35.295593,53.52217 C35.273083,53.726177 35.439377,53.933525 35.500927,54.1165 C35.7355,54.81384 34.951653,55.29978 34.578648,55.716137 C34.517284,55.78463 34.43092,55.93622 34.397076,56.037712 C34.364353,56.13585 34.34293,56.237564 34.309074,56.335316 C34.27781,56.425583 34.13672,56.598053 34.100872,56.629936 C33.31149,57.332085 33.924362,56.672523 32.84023,57.342068 C32.471706,57.569664 32.142956,57.856186 31.798635,58.118965 C31.772411,58.13898 31.748901,58.1631 31.729488,58.18977 C31.692755,58.24024 31.659843,58.293697 31.63112,58.349113 C31.551682,58.50238 31.552605,58.58496 31.433191,58.71254 C31.242172,58.916615 31.026365,59.096703 30.837551,59.30282 C30.732895,59.41707 30.64019,59.672104 30.586649,59.79542 L30.586649,59.79542" /><path fill="none" stroke="#000000" stroke-width="0.06mm" stroke-dasharray="0.3mm,0.1mm" d="M36.009777,52.15881 C35.937325,52.168518 36.17009,52.807816 36.088104,53.050407 C36.083267,53.064728 36.0772,53.078842 36.068943,53.0915 C36.01526,53.173782 35.953835,53.250973 35.902565,53.334778 C35.824306,53.462692 35.74342,53.878063 35.742,53.886597 C35.72338,53.99847 35.731415,54.211983 35.757282,54.33635 C35.76959,54.395515 35.794727,54.45146 35.80785,54.510456 C35.83149,54.616745 35.821384,54.787125 35.784332,54.889595 C35.640717,55.286785 35.223057,55.67988 35.00471,55.924564 C34.904465,56.036903 34.774082,56.11846 34.66488,56.222115 C34.579548,56.303104 34.453224,56.560814 34.42169,56.604324 C34.361053,56.687996 34.28677,56.761024 34.215008,56.83538 C34.19742,56.853607 34.1755,56.867195 34.15443,56.88125 C34.08715,56.926132 34.01773,56.96774 33.950104,57.012093 C33.58024,57.254677 34.279613,56.82466 33.46907,57.26232 C33.378216,57.31138 33.296894,57.376476 33.208233,57.429398 C32.856594,57.639282 32.864944,57.57218 32.41918,57.90309 C32.01192,58.205418 32.02518,58.29701 31.712397,58.701862 C31.68944,58.731575 31.658958,58.75464 31.63165,58.78041 C31.551064,58.856476 31.463982,58.926033 31.388725,59.00738 C31.334324,59.066185 31.288322,59.132523 31.244102,59.199326 C31.205053,59.258316 31.16698,59.318787 31.139442,59.383957 C30.98769,59.74305 31.085407,59.624973 30.972893,59.813385 L30.972893,59.813385" /><path fill="none" stroke="#000000" stroke-width="0.06mm" d="M31.613338,59.82543 C31.570665,59.846687 31.540089,59.855286 31.508385,59.886646 C31.461365,59.933167 31.417562,60.045998 31.405054,60.078747 C31.319748,60.302124 31.34592,60.37652 31.310179,60.650795 C31.30336,60.70311 31.28638,60.753788 31.279879,60.806145 C31.267818,60.90325 31.280083,61.004147 31.25456,61.098614 C31.171804,61.404938 31.049578,61.69932 30.956615,62.002705 C30.911594,62.149635 30.884495,62.30161 30.840801,62.44894 C30.798054,62.593082 30.766565,62.59182 30.757206,62.706856 C30.75537,62.72944 30.753311,62.752716 30.758305,62.774815 C30.88187,63.321667 31.02284,63.864544 31.142557,64.41225 C31.159172,64.488266 31.164303,64.566635 31.166954,64.644394 C31.171955,64.79108 31.128792,64.89203 31.11081,65.04254 C31.090874,65.2094 31.098248,65.379715 31.066448,65.54472 C31.034966,65.70807 30.978142,65.86583 30.921967,66.02241 C30.822283,66.30026 30.695316,66.523705 30.505272,66.755615 C30.213638,67.11151 30.299383,66.92276 29.976274,67.1774 C29.762962,67.3455 29.55092,67.51665 29.356495,67.70628 C29.222967,67.83652 29.110003,67.9866 28.99558,68.1339 C28.956528,68.18417 28.866001,68.329666 28.843624,68.412346 C28.831154,68.458435 28.763002,68.848465 28.68687,68.98552 C28.427162,69.45304 27.456135,70.26472 27.433447,70.29007 C27.11775,70.64287 26.990255,70.98956 26.859997,71.43472 C26.792194,71.66643 26.745117,71.90375 26.692802,72.13943 C26.688538,72.158646 26.678625,72.182724 26.690481,72.19843 C26.698395,72.20892 26.706545,72.1775 26.71282,72.165955 C26.724728,72.14404 26.73419,72.12089 26.744875,72.09836 L26.744875,72.09836" /><path fill="none" stroke="#000000" stroke-width="0.06mm" d="M29.220652,59.36393 C29.20282,59.42427 29.178131,59.482994 29.16716,59.544945 C29.13901,59.703896 29.144476,59.883793 29.172474,60.04127 C29.189198,60.13533 29.218058,60.22692 29.245886,60.318314 C29.290733,60.46561 29.356686,60.606804 29.390411,60.757034 C29.45137,61.028576 29.488632,61.62444 29.474318,61.87618 C29.466614,62.01163 29.433231,62.145065 29.396614,62.275696 C29.309683,62.585815 29.211227,62.892834 29.104187,63.1966 C29.083214,63.256123 28.809408,63.809612 28.803804,63.82268 C28.712631,64.03525 28.72039,64.5604 28.70646,64.629745 C28.645554,64.93301 28.530128,65.2228 28.450512,65.5217 C28.169569,66.576385 28.634094,65.22031 27.983631,66.84177 C27.930937,66.973114 27.899601,67.11298 27.839706,67.24121 C27.777264,67.37491 27.699934,67.50163 27.618076,67.624405 C27.568897,67.698166 27.509615,67.76514 27.447926,67.82881 C27.133263,68.15357 26.787844,68.4491 26.489647,68.78905 C26.33293,68.96771 26.232754,69.18959 26.08856,69.3785 C25.818342,69.73253 25.508408,70.05571 25.247396,70.416565 C25.14389,70.55967 25.070541,70.72311 24.999165,70.88465 C24.960018,70.97325 24.937475,71.06874 24.917377,71.16349 C24.906677,71.21393 24.908134,71.2663 24.907272,71.317856 C24.906033,71.39177 24.900578,71.38637 24.934921,71.364 L24.934921,71.364" /><path fill="none" stroke="#000000" stroke-width="0.06mm" d="M26.663816,72.15761 C26.594896,72.6853 26.69952,71.9807 26.542086,72.66264 C26.524532,72.73868 26.51805,72.81717 26.514494,72.89513 C26.506361,73.07342 26.543785,73.21689 26.573982,73.39601 C26.591894,73.50226 26.586504,73.51056 26.63334,73.61377 C26.644848,73.63913 26.657602,73.6646 26.675638,73.68581 C26.931566,73.9868 27.18794,74.28763 27.454365,74.57938 C27.547417,74.681274 27.654535,74.76939 27.753231,74.86583 C27.859568,74.969734 27.968304,75.07142 28.069437,75.18039 C28.16802,75.28662 28.18476,75.282684 28.134686,75.28703 L28.134686,75.28703" /><path fill="none" stroke="#000000" stroke-width="0.06mm" stroke-dasharray="0.3mm,0.1mm" d="M25.83519,70.99432 C25.6878,71.142715 25.74001,71.08043 25.563644,71.35546 C25.554058,71.370415 25.548492,71.38777 25.543684,71.40488 C25.514523,71.50853 25.529144,71.55046 25.505047,71.6759 C25.488302,71.76309 25.439886,71.84093 25.461788,71.93233 C25.510921,72.137405 25.57558,72.239075 25.689121,72.449326 C25.75826,72.57735 25.830692,72.70369 25.907228,72.82744 C25.971693,72.93167 26.10178,73.075584 26.13442,73.20995 C26.195631,73.461945 26.25164,73.71582 26.288246,73.97255 C26.335718,74.30548 26.283073,74.688354 26.429443,75.01054 C26.546055,75.26721 26.644922,75.377975 26.848877,75.5935 C27.332027,76.10405 27.212946,75.82825 27.321777,76.11122 L27.321777,76.11122" /><path fill="none" stroke="#000000" stroke-width="0.06mm" stroke-dasharray="0.3mm,0.1mm" d="M25.994627,71.33006 C25.884352,71.37233 25.856548,71.392235 25.805538,71.51257 C25.734093,71.68113 25.678314,71.85273 25.744864,72.03085 C25.85343,72.32144 25.863588,72.19274 26.070982,72.563156 C26.172813,72.74503 26.258802,72.93562 26.341167,73.127106 C26.367321,73.18791 26.382675,73.25314 26.395693,73.31804 C26.411982,73.39923 26.423012,73.481636 26.428862,73.56424 C26.446503,73.81331 26.417086,73.99043 26.48447,74.21755 C26.498053,74.26333 26.693985,74.94206 26.819946,75.1073 C26.935518,75.25892 27.08719,75.37979 27.209665,75.525894 C27.658909,76.06178 27.061878,75.47273 27.564304,75.94504 L27.564304,75.94504" /><defs><path id="DRAW_6954"  d="M34.02813,36.81658 C34.066147,36.857548 34.1016,36.901047 34.142174,36.93948 C34.24768,37.039425 34.496136,37.006104 34.59422,36.999454 C34.66165,36.99489 34.75808,36.98079 34.82421,36.942852 C34.89596,36.90169 34.93323,36.82907 34.99209,36.773483 C35.02161,36.745598 35.05362,36.71997 35.088036,36.698414 C35.18451,36.63799 35.349716,36.585907 35.418293,36.47133 C35.513878,36.311615 35.47699,36.120827 35.563793,35.956947 C35.642525,35.808296 35.772606,35.606953 35.902218,35.485546 C35.949654,35.441113 36.007668,35.409534 36.06039,35.371532 L36.06039,35.371532" /></defs><use xlink:href="#DRAW_6954" fill="none" stroke="#000000" stroke-width="0.04mm" /><text style="fill:#000000; font-size:0.5mm; letter-spacing:2;"><textPath xlink:href="#DRAW_6954">||||||||||||</textPath></text><defs><path id="DRAW_6960"  d="M25.136482,70.60407 C25.181337,70.85115 25.2333,70.90845 25.454012,71.04483 C25.588581,71.12799 25.737965,71.226364 25.903202,71.23424 C26.013332,71.23949 26.105976,71.1832 26.211454,71.1628 C26.364147,71.13327 26.535568,71.13576 26.683022,71.189224 C26.95491,71.2878 26.940216,71.20682 26.907228,71.37757 L26.907228,71.37757" /></defs><use xlink:href="#DRAW_6960" fill="none" stroke="#000000" stroke-width="0.04mm" /><text style="fill:#000000; font-size:0.5mm; letter-spacing:2;"><textPath xlink:href="#DRAW_6960">|||||||||</textPath></text><path fill="none" stroke="#000000" stroke-width="0.06mm" d="M24.861376,71.28195 C24.855835,71.324585 24.8413,71.36701 24.844753,71.40987 C24.854973,71.53662 24.876667,71.662415 24.902096,71.787 C24.951765,72.030334 24.98454,72.23462 25.108887,72.44127 C25.184399,72.56677 25.441677,72.8864 25.4983,73.10276 C25.60633,73.51553 25.703918,73.9311 25.79477,74.34799 C25.838287,74.54768 25.822914,74.732056 25.916542,74.913086 C26.01451,75.10251 26.14147,75.27641 26.233875,75.46861 C26.271505,75.54688 26.459282,76.13209 26.625154,76.341 C26.746986,76.494446 26.985813,76.6776 27.124887,76.77547 C27.255474,76.86737 27.42481,76.89772 27.538858,77.010185 C27.6794,77.14877 27.875174,77.40611 27.963736,77.56593 C28.026575,77.67932 28.046715,77.81425 28.116055,77.92378 C28.244377,78.126495 28.417929,78.29747 28.552538,78.49606 C28.696669,78.70871 28.788687,78.933426 28.856285,79.17708 L28.856285,79.17708" /><path fill="none" stroke="#000000" stroke-width="0.06mm" d="M28.062359,75.28602 C28.097284,75.32167 28.13657,75.353516 28.16714,75.39297 C28.248175,75.49756 28.323835,75.66183 28.391592,75.76913 C28.427765,75.82641 28.470537,75.87925 28.51001,75.93431 C28.592072,76.067894 28.673082,76.202126 28.756193,76.33506 C28.78238,76.376945 28.814087,76.41542 28.83787,76.45872 C28.921396,76.61078 28.986444,76.7731 29.077818,76.92059 C29.131731,77.00761 29.348022,77.23572 29.40156,77.37645 C29.45964,77.52913 29.48824,77.69203 29.547363,77.8443 C29.594393,77.96542 29.664827,78.07617 29.71909,78.19423 C29.73168,78.221634 29.73715,78.25179 29.74764,78.28006 C29.753359,78.29547 29.76099,78.3101 29.767666,78.32512 L29.767666,78.32512" /><defs><path id="DRAW_6974"  d="M28.08451,77.70346 C28.221682,77.76861 28.355251,77.841934 28.496021,77.89888 C28.623825,77.950584 28.780832,77.98488 28.920465,77.961105 C29.086678,77.932816 29.188559,77.74501 29.367739,77.76495 C29.574568,77.78799 29.521423,77.74304 29.597584,77.85233 L29.597584,77.85233" /></defs><use xlink:href="#DRAW_6974" fill="none" stroke="#000000" stroke-width="0.04mm" /><text style="fill:#000000; font-size:0.5mm; letter-spacing:2;"><textPath xlink:href="#DRAW_6974">|||||||</textPath></text><path fill="none" stroke="#924216" stroke-width="0.02mm" d="M28.676247,76.84808 C28.687788,76.92688 28.697668,76.93501 28.770422,76.97691 C28.835234,77.01424 28.89889,77.05414 28.966887,77.08529 C29.014923,77.10729 29.06738,77.118 29.117151,77.13574 C29.125946,77.13887 29.133354,77.15021 29.13646,77.15839 C29.139584,77.16662 29.141365,77.17967 29.14014,77.18769 C29.12548,77.28377 29.109829,77.3797 29.092535,77.47534 C29.087864,77.501175 29.060575,77.52576 29.041721,77.53948 C29.013134,77.5603 28.917484,77.61354 28.898197,77.62816 C28.820486,77.68704 28.747805,77.752304 28.671364,77.812836 C28.660004,77.82183 28.640066,77.823685 28.626446,77.82091 C28.539062,77.803154 28.46194,77.662186 28.426271,77.62468 C28.35887,77.5538 28.287533,77.546394 28.327734,77.44572 C28.33078,77.43809 28.333992,77.4303 28.339054,77.423836 C28.379889,77.37166 28.432556,77.327866 28.465128,77.27017 C29.024279,76.279724 28.51531,77.08676 28.673971,76.836716 L28.673971,76.836716" /><path fill="none" stroke="#924216" stroke-width="0.02mm" d="M29.1372,77.18624 C29.108414,77.20431 29.076817,77.21852 29.050842,77.24043 C28.955969,77.32048 28.868095,77.40848 28.775625,77.49129 C28.77018,77.49616 28.75494,77.50218 28.747993,77.50368 C28.741062,77.50516 28.73397,77.50682 28.726894,77.50636 C28.654854,77.50165 28.583271,77.48846 28.511078,77.48817 C28.38883,77.48767 28.388763,77.49486 28.302479,77.531975 L28.302479,77.531975" /><path fill="none" stroke="#924216" stroke-width="0.02mm" d="M28.786934,77.51074 L28.687618,76.900406" /><path fill="none" stroke="#000000" stroke-width="0.06mm" d="M29.863703,78.40355 C29.899498,78.492546 29.903051,78.48717 29.913702,78.60547 C30.056602,80.19269 29.921164,78.44723 29.867565,80.274704 C29.858747,80.57534 29.911919,80.874916 29.917198,81.175644 C29.918987,81.27761 29.890404,81.378296 29.888733,81.48027 C29.887173,81.57547 29.905478,81.670105 29.907532,81.76529 C29.916304,82.171616 29.825048,81.69 29.938683,82.415085 C29.955803,82.52434 29.992203,82.629745 30.023159,82.735916 C30.029247,82.75679 30.038229,82.77702 30.049625,82.79555 C30.198452,83.037445 30.344706,83.281166 30.503498,83.51665 C30.569181,83.614044 30.647072,83.7027 30.722242,83.792984 C30.84204,83.936874 30.692144,83.72881 30.840216,83.886894 C31.394089,84.478195 31.069267,84.22427 31.618313,84.64407 C31.631508,84.65416 31.647076,84.66087 31.662374,84.667336 C31.734383,84.697754 31.813547,84.713524 31.880033,84.75464 C32.03901,84.85295 32.185684,84.97002 32.334568,85.08302 C32.3696,85.10961 32.401215,85.1407 32.43112,85.17294 C32.561768,85.31377 32.692352,85.45485 32.815933,85.60191 C32.877274,85.6749 32.93138,85.75377 32.985302,85.832405 C33.030495,85.8983 33.068527,85.9689 33.113083,86.03523 C33.11458,86.03746 33.14637,86.07272 33.157745,86.07708 C33.17187,86.08249 33.187134,86.084236 33.201828,86.08782 L33.201828,86.08782" /><path fill="none" stroke="#000000" stroke-width="0.06mm" d="M35.087234,87.61635 C34.964046,87.52837 34.892117,87.45502 34.762688,87.406815 C34.706894,87.38605 34.649086,87.37109 34.59281,87.35167 C34.559433,87.34015 34.52804,87.32263 34.4938,87.31399 C34.426052,87.296875 34.356186,87.28946 34.287895,87.27466 C34.23458,87.26311 34.18211,87.247955 34.129135,87.23494 C33.959976,87.19339 34.000145,87.212166 33.802227,87.12326 C33.785103,87.11557 33.76922,87.1049 33.754852,87.09282 C33.725883,87.06845 33.697952,87.0426 33.672745,87.014366 C33.58808,86.919525 33.478462,86.68309 33.451427,86.62647 C33.38566,86.48874 33.332626,86.3452 33.267494,86.20717 C33.22624,86.119736 33.23609,86.16985 33.200283,86.11671 C33.18188,86.0894 33.165863,86.06056 33.14865,86.032486 L33.14865,86.032486" /><path fill="none" stroke="#000000" stroke-width="0.06mm" d="M29.133146,80.225815 L29.01995,80.08078" /><path fill="none" stroke="#000000" stroke-width="0.06mm" d="M35.010506,88.51616 C34.940937,88.54528 34.872223,88.57654 34.801796,88.60352 C34.52431,88.709854 34.24228,88.80438 33.9669,88.91605 C33.912468,88.938126 33.863075,88.97142 33.814205,89.004005 C33.610565,89.1398 33.443607,89.30931 33.19957,89.36683 C32.555782,89.51857 31.900784,89.62082 31.258682,89.77954 C31.04893,89.83139 30.673283,90.05463 30.48286,90.13924 C30.217064,90.257324 29.864403,90.201996 29.60945,90.19594 C29.556698,90.19469 29.466263,90.167206 29.415775,90.14134 C29.305473,90.08482 29.20931,89.968834 29.13461,89.88699 C29.102093,89.851364 29.072227,89.81277 29.048096,89.77101 C29.003609,89.694016 28.937931,89.52109 28.93201,89.4358 C28.918217,89.23709 28.91917,89.03733 28.926466,88.83829 C28.9333,88.65181 28.945217,88.46484 28.974348,88.28053 C29.004452,88.09007 29.115578,87.84646 29.09983,87.63167 C29.05341,86.998535 28.678982,85.5818 28.64361,85.39809 C28.618694,85.26868 28.60622,85.13463 28.619162,85.00348 C28.65418,84.64857 28.712542,84.29561 28.786808,83.9468 C29.086525,82.53908 28.827465,84.6144 29.078445,82.74501 C29.12447,82.40221 28.946545,81.6982 28.932629,81.531654 C28.908287,81.24031 28.912931,80.94654 28.928295,80.65459 C28.959309,80.065315 29.00532,80.55811 29.073717,80.06675 C29.101654,79.86604 29.105162,79.66265 29.116018,79.460304 C29.117428,79.43402 29.103733,79.39077 29.092312,79.36763 C29.0545,79.29104 28.993456,79.264755 28.920902,79.20346 L28.920902,79.20346" /><defs><path id="DRAW_6992"  d="M28.554785,78.58084 C28.649475,78.6315 28.746525,78.67799 28.83886,78.732834 C28.866037,78.74898 28.892483,78.76828 28.9121,78.793076 C29.077396,79.00194 29.237087,79.215324 29.392115,79.43192 C29.498392,79.58041 29.525286,79.780624 29.491272,79.95677 C29.471432,80.059525 29.426456,80.20627 29.369753,80.30253 C29.335552,80.360596 29.287436,80.40991 29.255129,80.469055 C29.180721,80.605255 29.174225,80.72696 29.145023,80.881584 C29.139198,80.91243 29.136448,80.94401 29.127642,80.97414 C29.109085,81.03763 29.079712,81.09263 29.04091,81.14586 C28.997435,81.205505 28.972864,81.21131 28.951208,81.27014 C28.91371,81.372025 28.966139,81.46805 28.991652,81.57011 L28.991652,81.57011" /></defs><use xlink:href="#DRAW_6992" fill="none" stroke="#000000" stroke-width="0.04mm" /><text style="fill:#000000; font-size:0.5mm; letter-spacing:2;"><textPath xlink:href="#DRAW_6992">||||||||||||||</textPath></text><defs><path id="DRAW_6993"  d="M30.388916,87.170105 C29.86497,86.543236 30.178286,86.961105 29.530052,85.56222 C29.503712,85.50538 29.48431,85.40585 29.486456,85.34239 C29.505636,84.7752 29.558592,84.208855 29.557796,83.64134 C29.53222,82.925415 29.506643,82.2095 29.481066,81.493576 C29.488445,81.49069 29.496181,81.481255 29.503204,81.484924 C29.517836,81.492584 29.526947,81.508286 29.535824,81.5222 C29.62159,81.65671 29.602453,81.66734 29.660305,81.85629 C29.71585,82.037704 29.767763,82.22037 29.829939,82.39962 C30.28834,83.72121 30.244743,83.64453 30.73967,84.708786 C30.751186,84.73355 30.795147,84.77388 30.815037,84.7859 C31.143673,84.984474 31.47815,85.17331 31.806122,85.37298 C31.83535,85.39078 31.860785,85.41436 31.885754,85.43776 C31.997454,85.54242 32.04368,85.79921 32.087563,85.89282 C32.279034,86.301285 32.47914,86.70586 32.6893,87.10503 C32.737984,87.197495 32.80725,87.27761 32.86314,87.365906 C32.869522,87.37599 32.872562,87.387924 32.875664,87.399445 C32.89769,87.48134 32.865204,87.56594 32.797386,87.615204 C32.70798,87.68015 32.62215,87.751175 32.525944,87.80554 C32.401234,87.87602 32.26749,87.92923 32.137043,87.98842 C32.007267,88.04732 31.877245,88.10582 31.74534,88.159775 C31.730885,88.16568 31.714733,88.1667 31.699137,88.16754 C31.63048,88.17119 31.548504,88.142166 31.49336,88.103424 C31.214308,87.907326 30.935524,87.710526 30.664732,87.503174 C30.369059,87.27677 30.584145,87.35773 30.394222,87.29746 L30.394222,87.29746" /></defs><use xlink:href="#DRAW_6993" fill="none" stroke="#924216" stroke-width="0.04mm" /><text style="fill:#924216; font-size:0.5mm; letter-spacing:2;"><textPath xlink:href="#DRAW_6993">||||||||||||||||||||||||||||||||||||||||||||||||||||||||||||||||</textPath></text><path fill="none" stroke="#924216" stroke-width="0.02mm" d="M30.592318,87.171875 C30.706665,86.96325 30.82217,86.75525 30.93536,86.54599 C30.959066,86.50217 30.967731,86.4651 31.011982,86.438034 C31.061409,86.40781 31.14821,86.3987 31.201015,86.42298 C31.500519,86.560715 31.797441,86.70407 32.093136,86.8498 C32.330242,86.96666 32.57723,87.07489 32.783325,87.24447 C32.810486,87.266815 32.82958,87.297485 32.852703,87.32399 L32.852703,87.32399" /><path fill="none" stroke="#924216" stroke-width="0.02mm" d="M31.115849,86.379456 C30.753897,85.97275 31.14655,86.397705 30.259474,85.64549 C30.194265,85.590195 30.110806,85.473114 30.099203,85.38318 C29.997208,84.59267 29.914038,83.79977 29.81029,83.009476 C29.746471,82.523346 29.667793,82.039276 29.596544,81.554184 L29.596544,81.554184" /><path fill="none" stroke="#924216" stroke-width="0.02mm" d="M29.274643,88.362274 C29.523787,87.95645 29.404766,88.13966 29.882223,87.49029 C29.890049,87.479645 29.91304,87.47157 29.925283,87.4701 C29.943474,87.46791 29.961792,87.47209 29.978592,87.4787 C30.09514,87.524475 30.205551,87.58894 30.327179,87.61871 C30.580692,87.680756 30.841747,87.70647 31.098597,87.75279 C31.110945,87.75502 31.122852,87.759476 31.134428,87.76431 C31.227524,87.80324 31.181276,87.920006 31.226358,87.99013 C31.396769,88.25516 31.58002,88.511734 31.753338,88.77487 C31.797417,88.8418 31.76155,88.95766 31.723291,89.01602 C31.626865,89.16313 31.519321,89.30284 31.425179,89.451416 C31.381002,89.52113 31.349184,89.59799 31.308891,89.67003 C31.302784,89.68095 31.294561,89.69062 31.286184,89.69992 C31.253498,89.73619 31.202723,89.74127 31.157398,89.73258 C30.97451,89.697525 30.790089,89.66898 30.60947,89.62368 C30.489664,89.59363 30.373629,89.549805 30.257792,89.50693 C30.120466,89.456116 30.113081,89.424805 29.99403,89.40701 C29.931938,89.39773 29.901108,89.40898 29.837824,89.41912 C29.707914,89.439926 29.57841,89.4635 29.448038,89.48117 C29.399275,89.48779 29.349428,89.45221 29.32156,89.41623 C29.285969,89.37027 29.275745,89.31068 29.281612,89.253876 C29.318417,88.89755 29.358326,88.54155 29.396683,88.185394 L29.396683,88.185394" /><path fill="none" stroke="#924216" stroke-width="0.02mm" d="M29.957357,87.61938 C29.99313,87.83032 30.032196,88.04074 30.064674,88.25221 C30.095533,88.45314 30.117096,88.65541 30.147345,88.856415 C30.151924,88.88685 30.194534,88.91334 30.222681,88.91446 C30.4355,88.92293 30.648628,88.944275 30.861351,88.933685 C31.560055,88.89888 31.951439,88.7328 31.628769,88.86461 L31.628769,88.86461" /><path fill="none" stroke="#924216" stroke-width="0.02mm" d="M30.06171,89.57743 L30.249191,88.95835" /><defs><path id="DRAW_7010"  d="M27.790535,67.41595 C27.939247,67.53421 27.970856,67.5842 28.0402,67.7688 C28.087807,67.895546 28.125483,68.025856 28.172464,68.15283 C28.176582,68.163956 28.185106,68.17306 28.193039,68.181885 C28.233017,68.22636 28.29314,68.23593 28.34394,68.26288 C28.39994,68.29257 28.45018,68.33747 28.490807,68.38533 C28.560404,68.46733 28.586935,68.565445 28.635862,68.65823 C28.671684,68.726166 28.760635,68.788086 28.81107,68.83275 L28.81107,68.83275" /></defs><use xlink:href="#DRAW_7010" fill="none" stroke="#000000" stroke-width="0.04mm" /><text style="fill:#000000; font-size:0.5mm; letter-spacing:2;"><textPath xlink:href="#DRAW_7010">||||||||</textPath></text><defs><path id="DRAW_7011"  d="M29.232018,62.97274 C29.301353,62.802727 29.3856,62.66623 29.578564,62.626198 C29.793821,62.58154 29.895124,62.600986 30.064806,62.518246 C30.284344,62.411198 30.411036,62.20852 30.591003,62.03861 C30.611294,62.01945 30.63805,62.00858 30.66151,61.993465 C30.71146,61.96128 30.765614,61.934788 30.811232,61.89671 C30.81478,61.89375 31.024454,61.705196 31.065659,61.630722 C31.09846,61.571434 31.122585,61.50775 31.151047,61.44627 L31.151047,61.44627" /></defs><use xlink:href="#DRAW_7011" fill="none" stroke="#000000" stroke-width="0.04mm" /><text style="fill:#000000; font-size:0.5mm; letter-spacing:2;"><textPath xlink:href="#DRAW_7011">|||||||||||</textPath></text><path fill="none" stroke="#000000" stroke-width="0.06mm" stroke-dasharray="0.3mm,0.1mm" d="M27.486938,75.93066 C28.258705,76.42782 27.70503,76.12338 28.602182,76.47708 C28.662699,76.50094 28.870224,76.65909 28.877827,76.66516 C28.96078,76.731445 28.893911,76.69934 28.96336,76.76276 C28.976507,76.77475 28.99313,76.78229 29.008013,76.79205 L29.008013,76.79205" /><path fill="none" stroke="#000000" stroke-width="0.06mm" stroke-dasharray="0.3mm,0.1mm" d="M27.370205,76.11108 C27.403,76.149704 27.432398,76.1915 27.46859,76.226974 C27.684729,76.4388 28.13644,76.51393 28.358932,76.58382 C28.400099,76.59675 28.44368,76.6029 28.483068,76.620514 C28.775604,76.75131 28.858212,76.81218 29.107166,77.050644 C29.152645,77.09421 29.183739,77.15065 29.222023,77.20065 L29.222023,77.20065" /><path fill="none" stroke="#000000" stroke-width="0.06mm" stroke-dasharray="0.3mm,0.1mm" d="M31.140303,84.34668 C31.175684,84.41322 31.206278,84.48256 31.246447,84.546326 C31.304264,84.63812 31.417286,84.8237 31.525858,84.91572 C31.550116,84.93628 31.577486,84.95294 31.604546,84.96965 C31.67896,85.01558 31.76035,85.05086 31.830154,85.10354 C31.91886,85.17047 31.998814,85.248566 32.07778,85.32675 C32.103096,85.35182 32.125614,85.38057 32.141933,85.41224 C32.232613,85.58823 32.323055,85.76489 32.397957,85.948166 C32.54296,86.30296 32.45427,86.2769 32.624115,86.52005 C32.717304,86.65346 32.831436,86.772125 32.9177,86.91012 C33.03956,87.105034 33.12692,87.4196 33.11966,87.65176 C33.112377,87.88475 32.999073,88.20744 33.197224,88.406166 C33.217625,88.42662 33.26749,88.46394 33.296707,88.47096 C33.45572,88.509186 33.583916,88.525055 33.746307,88.519844 C33.89917,88.51494 34.24906,88.36065 34.27791,88.34881 C34.31814,88.332306 34.35484,88.30764 34.389923,88.28195 C34.498985,88.202095 34.574677,88.07977 34.693287,88.01382 C34.700882,88.00959 34.769947,87.976135 34.79359,87.97767 C34.853134,87.98154 34.912056,87.99205 34.971287,87.99924 L34.971287,87.99924" /><path fill="none" stroke="#000000" stroke-width="0.06mm" stroke-dasharray="0.3mm,0.1mm" d="M31.99458,84.85432 C32.038063,84.971695 32.046875,85.025314 32.12019,85.12236 C32.153763,85.166794 32.1939,85.20587 32.23143,85.247025 C32.29016,85.31145 32.356174,85.369675 32.40896,85.43905 C32.486263,85.54065 32.752945,86.0172 32.77567,86.064644 C32.835697,86.18999 32.862797,86.33006 32.92841,86.452576 C32.979897,86.54872 33.33039,86.9569 33.32437,87.201645 C33.31814,87.455215 33.289093,87.70776 33.278656,87.9612 C33.27752,87.98882 33.283405,88.01648 33.289696,88.04341 C33.31422,88.148315 33.36664,88.22066 33.476383,88.23871 C33.660458,88.269 33.886604,88.12581 34.04683,88.0798 C34.246517,88.02247 34.336647,88.04711 34.48524,87.966965 C34.573036,87.9196 34.619507,87.81402 34.681705,87.74498 C34.718918,87.703674 34.761635,87.66751 34.80448,87.63209 C34.813175,87.6249 34.82398,87.61819 34.83526,87.61803 C34.884285,87.617325 34.933018,87.62571 34.9819,87.629555 L34.9819,87.629555" /><path fill="none" stroke="#000000" stroke-width="0.06mm" d="M34.995407,88.52872 C35.011734,88.50882 35.02684,88.48786 35.044384,88.46903 C35.1277,88.37959 35.318478,88.35592 35.40033,88.333954 C35.453354,88.319725 35.52915,88.333374 35.569515,88.37285 C35.63731,88.43913 35.693737,88.53502 35.73814,88.610115 C35.765343,88.65611 35.78395,88.706764 35.809864,88.75351 C35.817284,88.76689 35.82757,88.778564 35.83783,88.78993 C35.902733,88.86183 35.975792,88.9267 36.03523,89.00318 C36.13829,89.13579 36.22743,89.27867 36.32429,89.41587 C36.452225,89.597084 36.570133,89.78595 36.709614,89.958435 C36.819294,90.09407 36.94508,90.21611 37.06992,90.33794 C37.11148,90.378494 37.16285,90.40767 37.20772,90.44453 C37.215607,90.451004 37.222378,90.45899 37.227802,90.467636 C37.27104,90.5365 37.2961,90.61923 37.297607,90.7007 C37.302532,90.96738 37.22998,90.88402 37.349537,90.98127 L37.349537,90.98127" /><path fill="none" stroke="#000000" stroke-width="0.06mm" d="M39.294907,89.73333 C39.27456,89.73231 39.25407,89.73285 39.23386,89.73027 C39.19581,89.72539 39.158527,89.71517 39.12039,89.711 C39.06425,89.70485 38.99372,89.713135 38.936905,89.69067 C38.827747,89.64751 38.72377,89.59062 38.611855,89.55522 C38.24465,89.43909 37.822727,89.377815 37.470585,89.19668 C37.291473,89.104546 37.12883,88.983215 36.954033,88.88314 C36.912502,88.85936 36.866497,88.84444 36.8225,88.82562 C36.754227,88.79643 36.682396,88.77469 36.617233,88.73909 C36.45124,88.648384 36.39661,88.544235 36.24183,88.41777 C36.187294,88.373215 36.12182,88.34383 36.06463,88.302734 C36.02711,88.27578 35.951817,88.20804 35.925938,88.16411 C35.877068,88.08115 35.803513,87.87106 35.695297,87.79137 C35.649044,87.7573 35.570282,87.72232 35.524048,87.70344 C35.50423,87.69534 35.48374,87.688 35.462566,87.684875 C35.338017,87.66648 35.212498,87.65534 35.087666,87.63899 C35.08063,87.63806 35.06568,87.63035 35.060413,87.62602 C35.048824,87.61649 35.038242,87.60579 35.02716,87.59568 L35.02716,87.59568" /><path fill="none" stroke="#924216" stroke-width="0.02mm" d="M37.002895,89.57434 C37.004227,89.62469 37.003796,89.67512 37.006886,89.72539 C37.00754,89.736084 37.007103,89.791565 37.025852,89.81038 C37.042057,89.82663 37.069324,89.831635 37.089966,89.83541 C37.115837,89.84015 37.142006,89.84328 37.168186,89.8458 C37.2009,89.84895 37.239544,89.79267 37.246834,89.7668 C37.255733,89.73524 37.22956,89.706436 37.20602,89.68978 C37.19717,89.68352 37.18654,89.67944 37.179047,89.6716 C37.145336,89.63633 37.114586,89.59833 37.083046,89.56111 C37.07381,89.5502 37.068798,89.535324 37.05363,89.53196 C37.043404,89.52969 37.03498,89.53462 37.025227,89.536575 C37.00437,89.54073 36.983376,89.54414 36.96245,89.54793 L36.96245,89.54793" /><path fill="none" stroke="#924216" stroke-width="0.02mm" d="M36.327778,88.77483 C36.32584,88.80545 36.321667,88.83601 36.32196,88.86669 C36.322395,88.91275 36.334305,88.96442 36.368706,88.99751 C36.4073,89.03464 36.507538,89.08972 36.550396,89.02844 C36.559673,89.015175 36.567253,88.99689 36.565002,88.98035 C36.56099,88.95087 36.526382,88.94723 36.505417,88.936264 C36.487793,88.927055 36.474377,88.91553 36.46206,88.89999 C36.453625,88.88934 36.410664,88.820045 36.383804,88.80997 C36.347927,88.79651 36.309265,88.79216 36.271996,88.78325 L36.271996,88.78325" /><path fill="none" stroke="#924216" stroke-width="0.02mm" d="M37.011543,89.78388 C37.012028,89.75666 37.014217,89.73396 37.044395,89.73029 C37.056564,89.728806 37.066425,89.72891 37.078293,89.73218 C37.089123,89.735146 37.099327,89.740265 37.11027,89.74278 C37.124588,89.74606 37.13949,89.74627 37.153824,89.74948 C37.175232,89.75428 37.215313,89.781845 37.223663,89.789 C37.227425,89.79223 37.226036,89.79863 37.22722,89.803444 L37.22722,89.803444" /><path fill="none" stroke="#924216" stroke-width="0.02mm" d="M37.05468,89.70463 L37.05217,89.54663" /><path fill="none" stroke="#924216" stroke-width="0.02mm" d="M36.334423,88.80676 C36.33358,88.819046 36.3319,88.831314 36.33189,88.84363 C36.33186,88.88025 36.360657,88.91582 36.384674,88.93988 C36.396103,88.95134 36.40873,88.96187 36.425117,88.96402 C36.42856,88.96448 36.43206,88.96457 36.435524,88.96434 C36.450245,88.96335 36.464855,88.96071 36.479607,88.960365 C36.497803,88.959946 36.52284,88.96304 36.53859,88.97398 C36.543705,88.97753 36.547935,88.982216 36.552605,88.98633 L36.552605,88.98633" /><path fill="none" stroke="#924216" stroke-width="0.02mm" d="M36.41317,89.00339 C36.422665,89.03404 36.41518,89.02219 36.43173,89.04101 L36.43173,89.04101" /><path fill="none" stroke="#924216" stroke-width="0.02mm" d="M36.415176,89.04251 C36.401615,89.00302 36.406242,89.02612 36.407654,88.97229 L36.407654,88.97229" /><path fill="none" stroke="#924216" stroke-width="0.02mm" d="M36.57317,89.21306 C36.583553,89.26352 36.618793,89.445496 36.622852,89.46521 C36.624695,89.47417 36.635616,89.48458 36.643974,89.48712 C36.679726,89.49801 36.716362,89.505905 36.75195,89.51731 C36.770767,89.523346 36.78836,89.53274 36.806976,89.53937 C36.809227,89.54017 36.811775,89.53981 36.814137,89.53945 C36.82134,89.538376 36.82788,89.53285 36.831085,89.52644 C36.842934,89.502686 36.870964,89.463196 36.85155,89.43361 C36.832405,89.404434 36.81233,89.37587 36.792725,89.34699 C36.78596,89.337036 36.78477,89.33368 36.775425,89.32594 C36.752235,89.30675 36.688656,89.28817 36.6826,89.28531 C36.666206,89.27756 36.651943,89.26585 36.635788,89.25763 C36.628883,89.25413 36.621414,89.24924 36.613747,89.250305 C36.596237,89.25276 36.580345,89.26192 36.56364,89.26773 L36.56364,89.26773" /><path fill="none" stroke="#924216" stroke-width="0.02mm" d="M36.62333,89.46236 C36.633972,89.434395 36.64528,89.381744 36.684307,89.37909 C36.713455,89.377106 36.76143,89.39722 36.7866,89.40425 C36.795258,89.40668 36.814163,89.40607 36.819942,89.40617 L36.819942,89.40617" /><path fill="none" stroke="#924216" stroke-width="0.02mm" d="M36.669975,89.36203 C36.616024,89.33476 36.60923,89.31932 36.57016,89.269745 L36.57016,89.269745" /><defs><path id="DRAW_7032"  d="M34.975166,88.50029 C34.968674,88.48862 34.961212,88.477455 34.95569,88.4653 C34.93228,88.41385 34.946198,88.34497 34.952732,88.2946 C34.95638,88.26648 34.968605,88.2363 34.98705,88.21452 C35.01689,88.1793 35.08431,88.13429 35.13293,88.12738 C35.163044,88.1231 35.19376,88.1234 35.223694,88.118004 C35.242466,88.114624 35.26062,88.10811 35.278393,88.10118 C35.306404,88.090256 35.34482,88.075424 35.363358,88.04787 C35.384808,88.01598 35.41733,87.97577 35.429947,87.934525 C35.44404,87.88847 35.407772,87.837585 35.36059,87.83149 C35.35604,87.8309 35.351418,87.83067 35.34684,87.83098 C35.322273,87.83264 35.297844,87.83856 35.273247,87.8374 C35.24279,87.83598 35.212708,87.82956 35.182865,87.8233 C35.16775,87.82013 35.143764,87.80947 35.130184,87.80008 C35.114994,87.789566 35.100178,87.773544 35.09105,87.75786 C35.08152,87.741486 35.07425,87.72389 35.066578,87.70658 C35.062614,87.69763 35.061058,87.68761 35.056175,87.67912 C35.055004,87.67709 35.05145,87.6756 35.049503,87.676895 C35.045856,87.67935 35.044548,87.684204 35.04268,87.68818 C35.03915,87.695694 35.036457,87.70357 35.033348,87.71127 L35.033348,87.71127" /></defs><use xlink:href="#DRAW_7032" fill="none" stroke="#000000" stroke-width="0.04mm" /><text style="fill:#000000; font-size:0.5mm; letter-spacing:2;"><textPath xlink:href="#DRAW_7032">||||||</textPath></text><path fill="none" stroke="#000000" stroke-width="0.06mm" stroke-dasharray="0.3mm,0.1mm" d="M34.844757,87.987656 C34.861404,87.98578 34.878456,87.986115 34.894703,87.982025 C34.968674,87.963394 35.043118,87.926346 35.098835,87.87371 C35.12229,87.851555 35.134094,87.83151 35.15172,87.80557 L35.15172,87.80557" /><use xlink:href="#stalactite" width="3.6" height="3.6" x="-1.8" y="-1.8" transform="translate(34.148445 51.944195) rotate(0)"/>
<use xlink:href="#stalactite" width="3.6" height="3.6" x="-1.8" y="-1.8" transform="translate(35.224525 45.133583) rotate(0)"/>
<text x="40.621727" y="92.85107" font-family="sans-serif" font-size=".2mm" fill="black">ostatni FF+H</text>
<text x="19.469786" y="26.989328" font-family="sans-serif" font-size=".2mm" fill="black">okno?</text>
<use xlink:href="#water" width="3.6" height="3.6" x="-1.8" y="-1.8" transform="translate(35.109386 28.875338) rotate(314)"/>
<use xlink:href="#stalactite" width="3.6" height="3.6" x="-1.8" y="-1.8" transform="translate(34.242435 51.056076) rotate(0)"/>
<use xlink:href="#stalactite" width="3.6" height="3.6" x="-1.8" y="-1.8" transform="translate(34.242435 50.000305) rotate(0)"/>
<use xlink:href="#stalactite" width="3.6" height="3.6" x="-1.8" y="-1.8" transform="translate(28.570549 63.88796) rotate(0)"/>
<use xlink:href="#stalactite" width="3.6" height="3.6" x="-1.8" y="-1.8" transform="translate(28.475111 64.439285) rotate(0)"/>
<use xlink:href="#stalactite" width="3.6" height="3.6" x="-1.8" y="-1.8" transform="translate(28.3022 65.0636) rotate(0)"/>
<use xlink:href="#water" width="3.6" height="3.6" x="-1.8" y="-1.8" transform="translate(34.65767 87.87981) rotate(231)"/>
</g>
<g>
<line fill="none" stroke="#00aeef" stroke-width="0.05mm" stroke-dasharray="0.4,0.2" opacity="0.96" x1="34.00" y1="30.00" x2="35.42" y2="26.69" />
<line fill="none" stroke="#00aeef" stroke-width="0.05mm" stroke-dasharray="0.4,0.2" opacity="0.91" x1="34.00" y1="30.00" x2="35.69" y2="30.71" />
<line fill="none" stroke="#5674b9" stroke-width="0.05mm" stroke-dasharray="0.4,0.2" opacity="0.81" x1="34.00" y1="30.00" x2="20.15" y2="27.47" />
<line fill="none" stroke="#5674b9" stroke-width="0.05mm" stroke-dasharray="0.4,0.2" opacity="0.76" x1="34.00" y1="30.00" x2="25.45" y2="29.06" />
<line fill="none" stroke="#5674b9" stroke-width="0.05mm" stroke-dasharray="0.4,0.2" opacity="0.79" x1="34.00" y1="30.00" x2="25.50" y2="29.04" />
<line fill="none" stroke="#00aeef" stroke-width="0.05mm" stroke-dasharray="0.4,0.2" opacity="0.03" x1="34.00" y1="30.00" x2="34.11" y2="30.01" />
<line fill="none" stroke="#5674b9" stroke-width="0.05mm" stroke-dasharray="0.4,0.2" opacity="0.09" x1="34.00" y1="30.00" x2="40.05" y2="22.57" />
<line fill="none" stroke="#5674b9" stroke-width="0.05mm" stroke-dasharray="0.4,0.2" opacity="0.10" x1="34.00" y1="30.00" x2="35.88" y2="20.16" />
<line fill="none" stroke="#5674b9" stroke-width="0.05mm" stroke-dasharray="0.4,0.2" opacity="0.12" x1="34.00" y1="30.00" x2="34.43" y2="19.02" />
<line fill="none" stroke="#111111" stroke-width="0.05mm" x1="34.00" y1="30.00" x2="34.97" y2="36.39" />
<line fill="none" stroke="#5674b9" stroke-width="0.05mm" stroke-dasharray="0.4,0.2" opacity="0.03" x1="34.97" y1="36.39" x2="35.09" y2="36.35" />
<line fill="none" stroke="#5674b9" stroke-width="0.05mm" stroke-dasharray="0.4,0.2" opacity="0.10" x1="34.97" y1="36.39" x2="36.10" y2="35.64" />
<line fill="none" stroke="#5674b9" stroke-width="0.05mm" stroke-dasharray="0.4,0.2" opacity="0.02" x1="34.97" y1="36.39" x2="35.03" y2="36.42" />
<line fill="none" stroke="#5674b9" stroke-width="0.05mm" stroke-dasharray="0.4,0.2" opacity="0.98" x1="34.97" y1="36.39" x2="36.28" y2="35.88" />
<line fill="none" stroke="#00aeef" stroke-width="0.05mm" stroke-dasharray="0.4,0.2" opacity="0.95" x1="34.97" y1="36.39" x2="34.00" y2="36.76" />
<line fill="none" stroke="#111111" stroke-width="0.05mm" x1="34.97" y1="36.39" x2="35.17" y2="52.32" />
<line fill="none" stroke="#00aeef" stroke-width="0.05mm" stroke-dasharray="0.4,0.2" opacity="0.80" x1="35.17" y1="52.32" x2="35.31" y2="68.19" />
<line fill="none" stroke="#00aeef" stroke-width="0.05mm" stroke-dasharray="0.4,0.2" opacity="0.88" x1="35.17" y1="52.32" x2="36.49" y2="51.89" />
<line fill="none" stroke="#00aeef" stroke-width="0.05mm" stroke-dasharray="0.4,0.2" opacity="0.15" x1="35.17" y1="52.32" x2="35.54" y2="52.14" />
<line fill="none" stroke="#5674b9" stroke-width="0.05mm" stroke-dasharray="0.4,0.2" opacity="0.28" x1="35.17" y1="52.32" x2="35.98" y2="52.11" />
<line fill="none" stroke="#5674b9" stroke-width="0.05mm" stroke-dasharray="0.4,0.2" opacity="0.31" x1="35.17" y1="52.32" x2="40.76" y2="50.50" />
<line fill="none" stroke="#00aeef" stroke-width="0.05mm" stroke-dasharray="0.4,0.2" opacity="0.96" x1="35.17" y1="52.32" x2="34.22" y2="52.86" />
<line fill="none" stroke="#111111" stroke-width="0.05mm" x1="35.17" y1="52.32" x2="36.23" y2="54.60" />
<line fill="none" stroke="#00aeef" stroke-width="0.05mm" stroke-dasharray="0.4,0.2" opacity="0.38" x1="36.23" y1="54.60" x2="35.47" y2="54.92" />
<line fill="none" stroke="#5674b9" stroke-width="0.05mm" stroke-dasharray="0.4,0.2" opacity="0.09" x1="36.23" y1="54.60" x2="36.02" y2="54.33" />
<line fill="none" stroke="#5674b9" stroke-width="0.05mm" stroke-dasharray="0.4,0.2" opacity="0.12" x1="36.23" y1="54.60" x2="37.59" y2="53.34" />
<line fill="none" stroke="#00aeef" stroke-width="0.05mm" stroke-dasharray="0.4,0.2" opacity="0.95" x1="36.23" y1="54.60" x2="35.80" y2="56.78" />
<line fill="none" stroke="#00aeef" stroke-width="0.05mm" stroke-dasharray="0.4,0.2" opacity="0.97" x1="36.23" y1="54.60" x2="34.58" y2="54.36" />
<line fill="none" stroke="#111111" stroke-width="0.05mm" x1="36.23" y1="54.60" x2="29.30" y2="59.33" />
<line fill="none" stroke="#00aeef" stroke-width="0.05mm" stroke-dasharray="0.4,0.2" opacity="0.98" x1="29.30" y1="59.33" x2="31.42" y2="59.85" />
<line fill="none" stroke="#00aeef" stroke-width="0.05mm" stroke-dasharray="0.4,0.2" opacity="0.13" x1="29.30" y1="59.33" x2="29.80" y2="59.51" />
<line fill="none" stroke="#5674b9" stroke-width="0.05mm" stroke-dasharray="0.4,0.2" opacity="0.42" x1="29.30" y1="59.33" x2="31.67" y2="59.76" />
<line fill="none" stroke="#111111" stroke-width="0.05mm" x1="29.30" y1="59.33" x2="31.15" y2="64.95" />
<line fill="none" stroke="#00aeef" stroke-width="0.05mm" stroke-dasharray="0.4,0.2" opacity="0.24" x1="31.15" y1="64.95" x2="30.26" y2="64.31" />
<line fill="none" stroke="#00aeef" stroke-width="0.05mm" stroke-dasharray="0.4,0.2" opacity="0.98" x1="31.15" y1="64.95" x2="28.80" y2="63.88" />
<line fill="none" stroke="#5674b9" stroke-width="0.05mm" stroke-dasharray="0.4,0.2" opacity="0.14" x1="31.15" y1="64.95" x2="31.01" y2="63.63" />
<line fill="none" stroke="#00aeef" stroke-width="0.05mm" stroke-dasharray="0.4,0.2" opacity="0.59" x1="31.15" y1="64.95" x2="28.49" y2="67.72" />
<line fill="none" stroke="#111111" stroke-width="0.05mm" x1="31.15" y1="64.95" x2="24.99" y2="71.23" />
<line fill="none" stroke="#00aeef" stroke-width="0.05mm" stroke-dasharray="0.4,0.2" opacity="0.26" x1="24.99" y1="71.23" x2="25.62" y2="71.55" />
<line fill="none" stroke="#00aeef" stroke-width="0.05mm" stroke-dasharray="0.4,0.2" opacity="0.92" x1="24.99" y1="71.23" x2="26.72" y2="72.20" />
<line fill="none" stroke="#5674b9" stroke-width="0.05mm" stroke-dasharray="0.4,0.2" opacity="0.04" x1="24.99" y1="71.23" x2="24.88" y2="71.95" />
<line fill="none" stroke="#111111" stroke-width="0.05mm" x1="24.99" y1="71.23" x2="26.88" y2="76.39" />
<line fill="none" stroke="#00aeef" stroke-width="0.05mm" stroke-dasharray="0.4,0.2" opacity="0.98" x1="26.88" y1="76.39" x2="28.17" y2="75.30" />
<line fill="none" stroke="#5674b9" stroke-width="0.05mm" stroke-dasharray="0.4,0.2" opacity="0.19" x1="26.88" y1="76.39" x2="28.03" y2="76.01" />
<line fill="none" stroke="#111111" stroke-width="0.05mm" x1="26.88" y1="76.39" x2="29.36" y2="77.37" />
<line fill="none" stroke="#00aeef" stroke-width="0.05mm" stroke-dasharray="0.4,0.2" opacity="0.97" x1="29.36" y1="77.37" x2="28.22" y2="78.02" />
<line fill="none" stroke="#00aeef" stroke-width="0.05mm" stroke-dasharray="0.4,0.2" opacity="0.40" x1="29.36" y1="77.37" x2="28.81" y2="77.63" />
<line fill="none" stroke="#5674b9" stroke-width="0.05mm" stroke-dasharray="0.4,0.2" opacity="0.05" x1="29.36" y1="77.37" x2="29.81" y2="77.26" />
<line fill="none" stroke="#111111" stroke-width="0.05mm" x1="29.36" y1="77.37" x2="29.08" y2="89.67" />
<line fill="none" stroke="#5674b9" stroke-width="0.05mm" stroke-dasharray="0.4,0.2" opacity="0.96" x1="29.08" y1="89.67" x2="35.66" y2="88.21" />
<line fill="none" stroke="#5674b9" stroke-width="0.05mm" stroke-dasharray="0.4,0.2" opacity="0.76" x1="29.08" y1="89.67" x2="33.10" y2="86.11" />
<line fill="none" stroke="#5674b9" stroke-width="0.05mm" stroke-dasharray="0.4,0.2" opacity="0.67" x1="29.08" y1="89.67" x2="29.81" y2="80.34" />
<line fill="none" stroke="#5674b9" stroke-width="0.05mm" stroke-dasharray="0.4,0.2" opacity="0.07" x1="29.08" y1="89.67" x2="30.76" y2="88.57" />
<line fill="none" stroke="#00aeef" stroke-width="0.05mm" stroke-dasharray="0.4,0.2" opacity="0.04" x1="29.08" y1="89.67" x2="29.53" y2="89.63" />
<line fill="none" stroke="#111111" stroke-width="0.05mm" x1="29.08" y1="89.67" x2="35.11" y2="87.67" />
<line fill="none" stroke="#5674b9" stroke-width="0.05mm" stroke-dasharray="0.4,0.2" opacity="0.94" x1="35.11" y1="87.67" x2="34.84" y2="88.47" />
<line fill="none" stroke="#00aeef" stroke-width="0.05mm" stroke-dasharray="0.4,0.2" opacity="0.19" x1="35.11" y1="87.67" x2="34.73" y2="88.12" />
<line fill="none" stroke="#5674b9" stroke-width="0.05mm" stroke-dasharray="0.4,0.2" opacity="0.18" x1="35.11" y1="87.67" x2="35.68" y2="88.28" />
<line fill="none" stroke="#111111" stroke-width="0.05mm" x1="35.11" y1="87.67" x2="37.44" y2="90.55" />
<line fill="none" stroke="#00aeef" stroke-width="0.05mm" stroke-dasharray="0.4,0.2" opacity="0.35" x1="37.44" y1="90.55" x2="37.32" y2="90.95" />
<line fill="none" stroke="#00aeef" stroke-width="0.05mm" stroke-dasharray="0.4,0.2" opacity="0.43" x1="37.44" y1="90.55" x2="38.42" y2="90.57" />
<line fill="none" stroke="#00aeef" stroke-width="0.05mm" stroke-dasharray="0.4,0.2" opacity="0.94" x1="37.44" y1="90.55" x2="39.33" y2="89.75" />
<line fill="none" stroke="#5674b9" stroke-width="0.05mm" stroke-dasharray="0.4,0.2" opacity="0.37" x1="37.44" y1="90.55" x2="38.93" y2="90.46" />
<line fill="none" stroke="#00aeef" stroke-width="0.05mm" stroke-dasharray="0.4,0.2" opacity="0.60" x1="37.44" y1="90.55" x2="37.70" y2="89.28" />
<line fill="none" stroke="#111111" stroke-width="0.05mm" x1="37.44" y1="90.55" x2="39.99" y2="92.17" />
<line fill="none" stroke="#5674b9" stroke-width="0.05mm" stroke-dasharray="0.4,0.2" opacity="0.58" x1="39.99" y1="92.17" x2="48.99" y2="94.43" />
<line fill="none" stroke="#111111" stroke-width="0.05mm" x1="39.99" y1="92.17" x2="54.14" y2="97.55" />
</g>
<g>
<circle cx="34.00" cy="30.00" r="0.1" fill="#111111" />
<circle cx="34.97" cy="36.39" r="0.1" fill="#111111" />
<circle cx="35.17" cy="52.32" r="0.1" fill="#111111" />
<circle cx="36.23" cy="54.60" r="0.1" fill="#111111" />
<circle cx="29.30" cy="59.33" r="0.1" fill="#111111" />
<circle cx="31.15" cy="64.95" r="0.1" fill="#111111" />
<circle cx="24.99" cy="71.23" r="0.1" fill="#111111" />
<circle cx="26.88" cy="76.39" r="0.1" fill="#111111" />
<circle cx="29.36" cy="77.37" r="0.1" fill="#111111" />
<circle cx="29.08" cy="89.67" r="0.1" fill="#111111" />
<circle cx="35.11" cy="87.67" r="0.1" fill="#111111" />
<circle cx="37.44" cy="90.55" r="0.1" fill="#111111" />
<circle cx="39.99" cy="92.17" r="0.1" fill="#111111" />
<circle cx="54.14" cy="97.55" r="0.1" fill="#111111" />
</g>
<g>
<text x="34.20" y="30.00" font-size=".2mm" fill="#000000">0</text>
<text x="35.17" y="36.39" font-size=".2mm" fill="#000000">1</text>
<text x="35.37" y="52.32" font-size=".2mm" fill="#000000">2</text>
<text x="36.43" y="54.60" font-size=".2mm" fill="#000000">3</text>
<text x="29.50" y="59.33" font-size=".2mm" fill="#000000">4</text>
<text x="31.35" y="64.95" font-size=".2mm" fill="#000000">5</text>
<text x="25.19" y="71.23" font-size=".2mm" fill="#000000">6</text>
<text x="27.08" y="76.39" font-size=".2mm" fill="#000000">7</text>
<text x="29.56" y="77.37" font-size=".2mm" fill="#000000">8</text>
<text x="29.28" y="89.67" font-size=".2mm" fill="#000000">9</text>
<text x="35.31" y="87.67" font-size=".2mm" fill="#000000">10</text>
<text x="37.64" y="90.55" font-size=".2mm" fill="#000000">11</text>
<text x="40.19" y="92.17" font-size=".2mm" fill="#000000">12</text>
<text x="54.34" y="97.55" font-size=".2mm" fill="#000000">13</text>
</g>
<g>
</g>
</g>
</svg>