<?xml version="1.0" encoding="utf-8"?>
<!DOCTYPE svg PUBLIC "-//W3C//DTD SVG 1.1//EN" "http://www.w3.org/Graphics/SVG/1.1/DTD/svg11.dtd">
<svg version="1.1" id="Layer_1" xmlns="http://www.w3.org/2000/svg" xmlns:xlink="http://www.w3.org/1999/xlink" x="0px" y="0px" width="527mm" height="535mm" viewBox="0 0 527 535" enable-background="new 0 0 527 535" xml:space="preserve">
<symbol id="airflow" viewBox="-12 -12 24 24">
<path d="M-4.38,10.73l4.2-3.84V3.55L-4.07,7.13l-.31-.29L-.18,3V-6.89a3.37,3.37,0,0,0-1.68.53l1.68-4.15L0-11l.21.51h0v0l1.65,4.1A3.26,3.26,0,0,0,.24-6.89v14l-.08,0L-4.07,11Z"/>
<rect fill="none" x="-12" y="-12" width="24" height="24"/>
</symbol>
<symbol id="anastomosis" viewBox="-12 -12 24 24">
<path d="M2.23-4.78l.37.24L5.22-2.78l-.47.57L2.49-3.7l-4.61,8-.24.44-.37-.34L-5.22,2.3l.55-.52,2.1,1.82L2-4.39Z"/>
<rect fill="none" x="-12" y="-12" width="24" height="24"/>
</symbol>
<symbol id="bivouac" viewBox="-12 -12 24 24">
<path d="M.25-7.66l.24.58L.54-7l3.88.48-3.31.91L6,6H8.35v.48l-16.7.07V6.05h2.64L0-7.08Zm0,1.32L-5.13,6H-4l2.07-5L.2-4l2.09,5L4.37,6H5.44Z"/>
<rect fill="none" x="-12" y="-12" width="24" height="24"/>
</symbol>
<symbol id="bones" viewBox="-12 -12 24 24">
<path d="M2.44,4.27l-.16,0H2.13a.22.22,0,0,1-.11,0l-.1-.06a.39.39,0,0,1-.09-.11l-.08-.13a1.51,1.51,0,0,1-.06-.15l-.07-.17s0-.11-.08-.19-.06-.16-.08-.21a4.75,4.75,0,0,0-.38-.71c-.18-.29-.43-.64-.74-1A11.15,11.15,0,0,0-.7.32,6.73,6.73,0,0,0-2-.64a4.12,4.12,0,0,0-1.44-.52A1.64,1.64,0,0,1-5-2.19.72.72,0,0,1-5-2.44a1,1,0,0,1,0-.29A.52.52,0,0,1-4.87-3a.54.54,0,0,1,.35-.15L-4-3.22l.46,0a.54.54,0,0,0,.27-.06A.52.52,0,0,0-3-3.56a.74.74,0,0,0,.13-.31.54.54,0,0,1,.15-.26.54.54,0,0,1,.3-.15.83.83,0,0,1,.47,0,1.11,1.11,0,0,1,.35.4A7.46,7.46,0,0,1-1-2.76q.18.42.33.72a3.22,3.22,0,0,0,.39.57L.1-1a4.77,4.77,0,0,0,.58.43c.28.18.51.33.69.43l1,.56a1.84,1.84,0,0,0,.39.23A5.29,5.29,0,0,1,3.22.9l.43.26a3.7,3.7,0,0,1,.46.3l.36.29a2.28,2.28,0,0,1,.31.32A1,1,0,0,1,5,2.4c.2.48,0,.78-.47.91h0a8.48,8.48,0,0,0-1.12.09,1,1,0,0,0-.42.44A1,1,0,0,1,2.44,4.27Z"/>
<rect fill="none" x="-12" y="-12" width="24" height="24"/>
</symbol>
<symbol id="calcite" viewBox="-12 -12 24 24">
<path d="M2.36-2.22l.05.46.34,3.91L2,2.22,1.65-1.26-2.52-.06l-.23-.7L1.89-2.08Z"/>
<rect fill="none" x="-12" y="-12" width="24" height="24"/>
</symbol>
<symbol id="cauliflower" viewBox="-12 -12 24 24">
<path d="M5.58,3.22v-3A2.12,2.12,0,0,0,6.92-.43a1.78,1.78,0,0,0,.55-1.32,1.92,1.92,0,0,0-.65-1.42,2.19,2.19,0,0,0-1.53-.59,2.21,2.21,0,0,0-1.54.59,1.78,1.78,0,0,0-.64,1.42A1.86,1.86,0,0,0,3.65-.43,2.12,2.12,0,0,0,5,.23v3H.26v-3A2.17,2.17,0,0,0,1.61-.43a1.81,1.81,0,0,0,.54-1.32,1.91,1.91,0,0,0-.64-1.42A2.21,2.21,0,0,0,0-3.76a2.21,2.21,0,0,0-1.54.59,1.82,1.82,0,0,0-.64,1.42A1.83,1.83,0,0,0-1.66-.43,2.12,2.12,0,0,0-.32.23v3H-5v-3A2.12,2.12,0,0,0-3.71-.43a1.78,1.78,0,0,0,.55-1.32,1.92,1.92,0,0,0-.65-1.42,2.19,2.19,0,0,0-1.53-.59,2.21,2.21,0,0,0-1.54.59,1.83,1.83,0,0,0-.65,1.42A1.87,1.87,0,0,0-7-.43,2.12,2.12,0,0,0-5.64.23v3H-8v.54H8V3.22Z"/>
<rect fill="none" x="-12" y="-12" width="24" height="24"/>
</symbol>
<symbol id="clay" viewBox="-12 -12 24 24">
<path d="M1.85-1.33a3,3,0,0,1,1.67.48,3.23,3.23,0,0,1,1,1l.29.51-1,.43a3.81,3.81,0,0,0-.23-.4A3.74,3.74,0,0,0,2.93,0,1.77,1.77,0,0,0,1.85-.32a2.57,2.57,0,0,0-1.1.15A.86.86,0,0,0,.51.14,2.23,2.23,0,0,1,0,.88a2.55,2.55,0,0,1-1.45.43,3.16,3.16,0,0,1-2.75-1,4.28,4.28,0,0,1-.37-.57,3.91,3.91,0,0,1-.21-.47l0-.16,1-.22a1.87,1.87,0,0,0,.45.79A2.12,2.12,0,0,0-1.51.33,1.82,1.82,0,0,0-.69.14l.21-.36A1.53,1.53,0,0,1,.17-1,3.76,3.76,0,0,1,1.85-1.33Z"/>
<rect fill="none" x="-12" y="-12" width="24" height="24"/>
</symbol>
<symbol id="crystals" viewBox="-12 -12 24 24">
<path d="M-2.94-5.38,0-.72,2.94-5.38,3.62-5,.68-.36H6.56V.36H.68L3.62,5l-.68.36L0,.72-2.94,5.38-3.62,5-.68.36H-6.56V-.36H-.68L-3.62-5Z"/>
<rect fill="none" x="-12" y="-12" width="24" height="24"/>
</symbol>
<symbol id="curtain" viewBox="-12 -12 24 24">
<path d="M3.57-6.69l.52.53L.39-3V-.33L.1-.26a3.79,3.79,0,0,0-1,.41c-.58.3-.87.65-.87,1v.07A1.61,1.61,0,0,0-.84,2.48a3.69,3.69,0,0,0,.45.24L0,2.86l.13.05L.39,3V6.12H-.39V3.51a7.65,7.65,0,0,1-.9-.46A2.19,2.19,0,0,1-2.54,1.28V1.23A2,2,0,0,1-1.31-.48,5.32,5.32,0,0,1-.39-.86V-3l-3.7-3.14.52-.53L0-3.67Z"/>
<rect fill="none" x="-12" y="-12" width="24" height="24"/>
</symbol>
<symbol id="disk" viewBox="-12 -12 24 24">
<path d="M-.09-4.19a2.43,2.43,0,0,1,1.7.64A2,2,0,0,1,2.35-2,2.09,2.09,0,0,1,1.81-.55,2.44,2.44,0,0,1,.35.23l2.18,3.6-.68.33L0,1.14-1.48,4.19l-.71-.29L-.41.25A2.53,2.53,0,0,1-1.9-.47a2,2,0,0,1-.63-1.41,2,2,0,0,1,.67-1.61,2.46,2.46,0,0,1,1.72-.7ZM1.05-3.06.56-3.49l-.69,0A1.72,1.72,0,0,0-1.29-3a1.51,1.51,0,0,0-.45,1.08,1.36,1.36,0,0,0,.51,1A1.68,1.68,0,0,0-.07-.44v0l0,0A1.7,1.7,0,0,0,1.11-.92,1.36,1.36,0,0,0,1.56-2,1.47,1.47,0,0,0,1.05-3.06Z"/>
<rect fill="none" x="-12" y="-12" width="24" height="24"/>
</symbol>
<symbol id="entrance" viewBox="-12 -12 24 24">
<path d="M4.46,9H-4.46L0-9Z"/>
<rect fill="none" x="-12" y="-12" width="24" height="24"/>
</symbol>
<symbol id="flowstone" viewBox="-12 -12 24 24">
<rect x="-6" y="-0.21" width="12" height="0.42"/>
<rect fill="none" x="-12" y="-12" width="24" height="24"/>
</symbol>
<symbol id="flutes" viewBox="-12 -12 24 24">
<path d="M-7-1H7v.72H3.87A4.7,4.7,0,0,1,2.16,1.5,4.2,4.2,0,0,1,0,2.13,3.94,3.94,0,0,1-2.19,1.5,4.18,4.18,0,0,1-3.76-.27H-7Zm4.17.72A3.15,3.15,0,0,0-1.65,1,3.21,3.21,0,0,0,0,1.41,3.49,3.49,0,0,0,1.6,1,3.68,3.68,0,0,0,3-.27Z"/>
<rect fill="none" x="-12" y="-12" width="24" height="24"/>
</symbol>
<symbol id="gradient" viewBox="-12 -12 24 24">
<path d="M2.58-3.83,0-10-2.58-3.83A4.74,4.74,0,0,1-.17-4.5V10H.25V-4.5A6.65,6.65,0,0,1,2.58-3.83Z"/>
<rect fill="none" x="-12" y="-12" width="24" height="24"/>
</symbol>
<symbol id="guano" viewBox="-12 -12 24 24">
<path d="M-3.24-3a2.15,2.15,0,0,1,1.57.55A3.93,3.93,0,0,1-.59.24a4.32,4.32,0,0,1,2.75-2.3,2.68,2.68,0,0,1,2.23.36A2.36,2.36,0,0,1,5.5.19l-.79,0a1.72,1.72,0,0,0-.79-1.37,1.94,1.94,0,0,0-1.55-.24A3.53,3.53,0,0,0,.48,0,6.63,6.63,0,0,0-.69,3l-.79-.09a10.72,10.72,0,0,0,0-3.16A3.21,3.21,0,0,0-2.22-2,1.44,1.44,0,0,0-3.37-2.3,3.45,3.45,0,0,0-5-1.54l-.5-.55a4.29,4.29,0,0,1,2-.91A.9.9,0,0,1-3.24-3Z"/>
<rect fill="none" x="-12" y="-12" width="24" height="24"/>
</symbol>
<symbol id="helictites" viewBox="-12 -12 24 24">
<path d="M-4.59-7.92h.79v7.7l3.41,0V-7.92H.39V-.17L4.2-.12h.39v8H3.8V.6L.39.55V7.92H-.39V.55L-4.2.5l-.39,0v-8.4Z"/>
<rect fill="none" x="-12" y="-12" width="24" height="24"/>
</symbol>
<symbol id="human" viewBox="-12 -12 24 24">
<path d="M-3.59-3.29A5.13,5.13,0,0,1,0-4.66,5.13,5.13,0,0,1,3.59-3.29,4.3,4.3,0,0,1,5.09,0a4.3,4.3,0,0,1-1.5,3.29A5.13,5.13,0,0,1,0,4.66,5.13,5.13,0,0,1-3.59,3.29,4.3,4.3,0,0,1-5.09,0,4.3,4.3,0,0,1-3.59-3.29Zm.28.77A3.68,3.68,0,0,0-4.3,0a3.62,3.62,0,0,0,1,2.57L-.5.05ZM0-3.94A4.42,4.42,0,0,0-2.75-3L.16-.36H4.28A3.62,3.62,0,0,0,2.91-2.9,4.38,4.38,0,0,0,0-3.94ZM.16.46-2.7,3.07A4.42,4.42,0,0,0,0,3.94a4.37,4.37,0,0,0,2.87-1A3.78,3.78,0,0,0,4.28.46Z"/>
<rect fill="none" x="-12" y="-12" width="24" height="24"/>
</symbol>
<symbol id="karren" viewBox="-12 -12 24 24">
<path d="M1-5.84h0a1.37,1.37,0,0,1,1.06.68A3.33,3.33,0,0,1,2.5-3.79,25.79,25.79,0,0,1,2.36,0a18.61,18.61,0,0,0-.08,3.72,2.68,2.68,0,0,0,.41,1.2,1.13,1.13,0,0,0,.79.5A.92.92,0,0,0,4,4.94a4.43,4.43,0,0,0,.47-1.22c.16-.64.36-1.86.59-3.66a26.71,26.71,0,0,1,.64-3.69,4.62,4.62,0,0,1,.57-1.29,1.34,1.34,0,0,1,1-.59h0A1.28,1.28,0,0,1,8.37-5a2.17,2.17,0,0,1,.39,1.15A19.91,19.91,0,0,1,8.54-.53a21.51,21.51,0,0,0-.2,3.64A2.64,2.64,0,0,0,9.45,5.36,1.91,1.91,0,0,0,10.88,5a3.84,3.84,0,0,0,.7-1l.42.2-.1.18-.12.21-.11.18L11.52,5a.94.94,0,0,1-.14.16c-.06.07-.13.12-.19.18a2.5,2.5,0,0,1-1.85.41H9.29l0,0A3.06,3.06,0,0,1,7.87,3.13a22.11,22.11,0,0,1,.2-3.7,18.17,18.17,0,0,0,.22-3.28A1.85,1.85,0,0,0,8-4.79a.77.77,0,0,0-.67-.3.93.93,0,0,0-.64.42,4.51,4.51,0,0,0-.51,1.15A26.26,26.26,0,0,0,5.54.1c-.24,1.83-.45,3.07-.61,3.72a5.38,5.38,0,0,1-.51,1.34,1.33,1.33,0,0,1-.89.68H3.47A1.58,1.58,0,0,1,2.3,5.16a3.29,3.29,0,0,1-.49-1.4A20.27,20.27,0,0,1,1.89,0,23.45,23.45,0,0,0,2-3.75a2.94,2.94,0,0,0-.32-1.19A.93.93,0,0,0,1-5.42,1.1,1.1,0,0,0,.19-5,3.69,3.69,0,0,0-.43-3.76,20.78,20.78,0,0,0-1.07.07c-.2,2-.37,3.32-.49,3.86A4.48,4.48,0,0,1-2,5.26,1.06,1.06,0,0,1-3,5.81h0a1.9,1.9,0,0,1-1.29-.67,2.7,2.7,0,0,1-.58-1.31,14.92,14.92,0,0,1,0-3.6q0-.12.06-.54c0-.28,0-.47,0-.57s0-.28,0-.52,0-.42,0-.55,0-.28,0-.47,0-.36,0-.51,0-.29,0-.43A3.09,3.09,0,0,0-5-4.62a1.19,1.19,0,0,0-.67-.6,1.5,1.5,0,0,0-1.2.9A7,7,0,0,0-7.41-2.1c0,.39-.1,1-.14,1.76s-.11,1.47-.18,2.08A9.61,9.61,0,0,1-8,3.32h0l0,0A2.81,2.81,0,0,1-9.2,4.62a1.82,1.82,0,0,1-1.35.15A1.94,1.94,0,0,1-11.61,4,2.39,2.39,0,0,1-12,2.56l.47,0a1.92,1.92,0,0,0,.31,1.16,1.47,1.47,0,0,0,.81.62,1.3,1.3,0,0,0,1-.11A2.32,2.32,0,0,0-8.5,3.18a7.53,7.53,0,0,0,.29-1.5Q-8.1.8-8-.36c0-.78.1-1.37.16-1.78A7.23,7.23,0,0,1-7.28-4.5,1.93,1.93,0,0,1-5.65-5.66h.05l0,0a1.59,1.59,0,0,1,1,.84,3.47,3.47,0,0,1,.34,1.41,4.91,4.91,0,0,1,0,.57v.54c0,.15,0,.37,0,.66s0,.47,0,.58,0,.33-.06.68,0,.56-.06.63a14.78,14.78,0,0,0,0,3.49,2.58,2.58,0,0,0,.5,1.13,1.57,1.57,0,0,0,1,.5A.61.61,0,0,0-2.44,5,3.89,3.89,0,0,0-2,3.85C-1.9,3.31-1.74,2-1.53,0A20.65,20.65,0,0,1-.86-3.89,3.89,3.89,0,0,1-.18-5.26,1.58,1.58,0,0,1,1-5.84Z"/>
<rect fill="none" x="-12" y="-12" width="24" height="24"/>
</symbol>
<symbol id="moonmilk" viewBox="-12 -12 24 24">
<path d="M-4.78-3.06a3.39,3.39,0,0,1,1.5.34,2.48,2.48,0,0,1,1.1,1,3.74,3.74,0,0,1,1.62-.8,3.52,3.52,0,0,1,1.71,0,2.9,2.9,0,0,1,1.39.77A2.49,2.49,0,0,1,3.25-.37,4,4,0,0,1,5-.76a3.58,3.58,0,0,1,1.6.36A2.84,2.84,0,0,1,7.88.92a2.32,2.32,0,0,1,0,1.88.34.34,0,0,1-.37.26A.36.36,0,0,1,7.25,3a.32.32,0,0,1-.12-.25.21.21,0,0,1,0-.12,2,2,0,0,0,0-1.43,2,2,0,0,0-1-.9A2.81,2.81,0,0,0,4.68,0,2.78,2.78,0,0,0,3.12.56L2.46.25A1.7,1.7,0,0,0,2.15-1.1,2.15,2.15,0,0,0,1-1.81a2.85,2.85,0,0,0-1.58.06A3,3,0,0,0-2-.83l-.71-.12A1.74,1.74,0,0,0-3.55-2a2.36,2.36,0,0,0-1.39-.27,3.08,3.08,0,0,0-1.45.53A2.33,2.33,0,0,0-7.32-.56a.35.35,0,0,1-.37.24A.39.39,0,0,1-8-.42a.33.33,0,0,1-.1-.26v-.1A3,3,0,0,1-6.89-2.35,4,4,0,0,1-5-3Z"/>
<rect fill="none" x="-12" y="-12" width="24" height="24"/>
</symbol>
<symbol id="narrow" viewBox="-12 -12 24 24">
<path d="M-1.5,5V-5h0.64V5H-1.5z"/>
<path d="M0.86,5V-5H1.5V5H0.86z"/>
<rect fill="none" x="-12" y="-12" width="24" height="24"/>
</symbol>
<symbol id="paleoflow" viewBox="-12 -12 24 24">
<path d="M.38-12V.17A1.9,1.9,0,0,0,1,0,1.57,1.57,0,0,0,1.7-.72a1.86,1.86,0,0,0,.23-1c0-.09,0-.14.08-.16a.92.92,0,0,1,.24,0,.52.52,0,0,0,.25,0h.08A2.48,2.48,0,0,1,2,0,2.5,2.5,0,0,1,.38.77V7.21H2.09L0,12-1.8,7.23c.07,0,.59,0,1.53,0V.77A3,3,0,0,1-1.35.43a2.16,2.16,0,0,1-1-1,2.38,2.38,0,0,1-.24-1.33l.67,0a2,2,0,0,0,.15,1,1.73,1.73,0,0,0,.59.67A2.14,2.14,0,0,0-.27.16V-12Z"/>
<rect fill="none" x="-12" y="-12" width="24" height="24"/>
</symbol>
<symbol id="rain" viewBox="-12 -12 24 24">
<path d="M-4.14-6.34h0.71v4.69h-0.71V-6.34z"/>
<path d="M-0.35-6.34h0.71v4.69h-0.71V-6.34z"/>
<path d="M3.43-6.34h0.71v4.69H3.43V-6.34z"/>
<path d="M-4.14,1.65h0.71v4.69h-0.71V1.65z"/>
<path d="M-0.35,1.65h0.71v4.69h-0.71V1.65z"/>
<path d="M3.43,1.65h0.71v4.69H3.43V1.65z"/>
<rect fill="none" x="-12" y="-12" width="24" height="24"/>
</symbol>
<symbol id="rats" viewBox="-12 -12 24 24">
<path d="M8.78-2.32,7-2.27c-.51-.17-.65-.56-1.46-.45l-.25.45C3.59-2.75,2.59-3.66.56-3.62l-1.35.3A4.89,4.89,0,0,0-4.24,1.57c-.68.6-2.58.86-3.39.94a6.84,6.84,0,0,0-1.62.39,4.91,4.91,0,0,0-1,.52A1.75,1.75,0,0,0-11,4.61a1.16,1.16,0,0,0,.59,1.48,1.3,1.3,0,0,1,.14.12c.16-.52-.35-.92-.2-1.42a3.35,3.35,0,0,1,.27-.45,3.18,3.18,0,0,1,1.79-1c.63-.12,1.27-.22,1.91-.3.48-.07,1,0,1.4-.12A6.94,6.94,0,0,1-4,2.82,30.64,30.64,0,0,0,.41,2.69l2.16.15c.1-.09,0,0,.1-.15a.87.87,0,0,0-.9-.55c.86-1,2.27-.37,3.1-.05.5.19,1,0,1.25.4.11-.1.1-.07.15-.25.3,0,.31.07.6.15-.06-.49-.34-.64-1-.6a.78.78,0,0,1,0-.55C6.3.56,7.29.73,8.13.43a13.78,13.78,0,0,0,2.15-.9l.6-.85v-.2A16.9,16.9,0,0,0,8.78-2.32Z"/>
<rect fill="none" x="-12" y="-12" width="24" height="24"/>
</symbol>
<symbol id="sand" viewBox="-12 -12 24 24">
<path d="M-1.58,0.83c0.23,0.2,0.35,0.44,0.36,0.73c0.01,0.29-0.08,0.54-0.28,0.75c-0.2,0.21-0.46,0.32-0.78,0.33c-0.32,0.01-0.6-0.08-0.83-0.26C-3.36,2.19-3.49,1.95-3.5,1.67C-3.51,1.38-3.41,1.12-3.2,0.9c0.21-0.22,0.48-0.34,0.8-0.35C-2.08,0.54-1.81,0.64-1.58,0.83z"/>
<path d="M0.08-2.36c0.23,0.2,0.35,0.44,0.36,0.73c0.01,0.29-0.08,0.54-0.28,0.75c-0.2,0.21-0.46,0.32-0.78,0.33c-0.32,0.01-0.59-0.07-0.83-0.26s-0.37-0.42-0.38-0.71c-0.01-0.29,0.09-0.54,0.3-0.76c0.21-0.22,0.48-0.33,0.8-0.35C-0.42-2.65-0.14-2.56,0.08-2.36z"/>
<path d="M3.12,0.55c0.23,0.2,0.35,0.43,0.38,0.71c0.02,0.28-0.07,0.53-0.28,0.75C3,2.23,2.73,2.35,2.42,2.36C2.1,2.37,1.82,2.28,1.58,2.08C1.34,1.88,1.22,1.64,1.2,1.35c-0.01-0.29,0.09-0.54,0.3-0.75C1.72,0.4,1.99,0.29,2.3,0.28S2.89,0.36,3.12,0.55z"/>
<rect fill="none" x="-12" y="-12" width="24" height="24"/>
</symbol>
<symbol  id="scallops" viewBox="-12 -12 24 24">
<path d="M.05-3.74l.21,0A2.35,2.35,0,0,1,1.74-3a2,2,0,0,1,.59,1.55v0l0,0A9.59,9.59,0,0,1-.08,3.27l-.39.47-.27-.55A14.26,14.26,0,0,1-2.33-1.89v-.05l0-.05A2,2,0,0,1-1.44-3.3,2.42,2.42,0,0,1,.05-3.74ZM-.11-3A1.44,1.44,0,0,0-1.55-1.89,13.06,13.06,0,0,0-.29,2.33,8.6,8.6,0,0,0,1.55-1.54a1.41,1.41,0,0,0-.38-1A1.62,1.62,0,0,0,.18-3Z"/>
<rect fill="none" x="-12" y="-12" width="24" height="24"/>
</symbol>
<symbol  id="sink" viewBox="-12 -12 24 24">
<path d="M.72,9.41H.9c1.94,0,3.26-.54,3.94-1.51a3.61,3.61,0,0,0,.33-.69,2,2,0,0,0,.11-.54V6.46l.69,0a2.8,2.8,0,0,1-.58,1.78C4.58,9.39,3.1,10,.93,10H-.93q-3.25,0-4.46-1.8a2.74,2.74,0,0,1-.43-.83A2.37,2.37,0,0,1-6,6.67V6.43l.68,0A2.27,2.27,0,0,0-4.84,7.9c.68,1,2,1.47,3.93,1.48l.5,0ZM-1.46-10a.68.68,0,0,0,.16.41A2.77,2.77,0,0,0-.51-9l0,0a3.63,3.63,0,0,1,1,.7,1.15,1.15,0,0,1,.34.88c0,.58-.53,1.14-1.49,1.68-.68.42-1,.79-1,1.11s.3.61.84,1h0Q.61-2.86.46-1.78a3.51,3.51,0,0,1-1.55,2,.61.61,0,0,0-.26.41,1.67,1.67,0,0,0,.1.51,5.3,5.3,0,0,1,.32,1L.56,1.9.46,8.06-3.4,2.54l1.73-.28A6.16,6.16,0,0,0-2,1.39,1.7,1.7,0,0,1-2.09.58a1.21,1.21,0,0,1,.53-.82h0v0C-.75-.86-.33-1.38-.28-1.85s-.23-.87-.91-1.27h0C-2-3.6-2.37-4.1-2.4-4.61S-2-5.74-1.09-6.29C-.34-6.72.06-7.1.09-7.44a.67.67,0,0,0-.18-.43,3.17,3.17,0,0,0-.79-.58,2.93,2.93,0,0,1-1-.67A1.16,1.16,0,0,1-2.17-10Z"/>
<rect fill="none" x="-12" y="-12" width="24" height="24"/>
</symbol>
<symbol  id="spring" viewBox="-12 -12 24 24">
<path d="M-1.34-9.86,2.52-4.34.78-4.06a8,8,0,0,0,.29.87,1.4,1.4,0,0,1,.13.79,1.3,1.3,0,0,1-.52.84l0,0v0C-.13-.95-.55-.42-.61,0S-.37.91.31,1.3l0,0c.75.46,1.14,1,1.18,1.46S1.12,3.92.21,4.46C-.54,4.9-.94,5.29-1,5.64a.74.74,0,0,0,.18.43A3.2,3.2,0,0,0,0,6.62a3,3,0,0,1,1,.7,1.14,1.14,0,0,1,.31.86A1.74,1.74,0,0,1,.71,9.26H.92c1.92,0,3.22-.52,3.9-1.51a2.05,2.05,0,0,0,.35-.67,2.59,2.59,0,0,0,.1-.55l0-.19.65,0a2.84,2.84,0,0,1-.55,1.8C4.58,9.26,3.08,9.85.92,9.86H-.92c-2.17,0-3.66-.6-4.49-1.77a3.65,3.65,0,0,1-.4-.85A2.43,2.43,0,0,1-6,6.53V6.29l.66,0a2.08,2.08,0,0,0,.47,1.41c.68,1,2,1.5,3.91,1.51H-.4c.62-.43.94-.8,1-1.1a.76.76,0,0,0-.16-.43,3.25,3.25,0,0,0-.79-.51v0a3.8,3.8,0,0,1-1-.7,1.15,1.15,0,0,1-.34-.91q.06-.84,1.5-1.68c.68-.4,1-.77,1-1.1S.49,2.21,0,1.87c0,0,0,0,0,0C-1,1.32-1.44.69-1.34,0a3.58,3.58,0,0,1,1.55-2,.54.54,0,0,0,.23-.38A1.28,1.28,0,0,0,.37-3a4.57,4.57,0,0,1-.32-1l-1.49.24Z"/>
<rect fill="none" x="-12" y="-12" width="24" height="24"/>
</symbol>
<symbol  id="stalactite" viewBox="-12 -12 24 24">
<path d="M3.57-6.69l.52.53L.39-3V6.12H-.39V-3l-3.7-3.14.52-.53L0-3.67Z"/>
<rect fill="none" x="-12" y="-12" width="24" height="24"/>
</symbol>
<symbol  id="stalagmite" viewBox="-12 -12 24 24">
<path d="M.38-6.42V2.75L4.11,5.89l-.56.53L0,3.4l-3.57,3-.53-.53,3.7-3.14V-6.42Z"/>
<rect fill="none" x="-12" y="-12" width="24" height="24"/>
</symbol>
<symbol  id="stalagnate" viewBox="-12 -12 24 24">
<path d="M3.55-8.46l.56.53L.38-4.78v9L4.11,7.36l-.56.53L0,4.86l-3.57,3-.53-.53,3.7-3.14v-9l-3.7-3.15.53-.53L0-5.43Z"/>
<rect fill="none" x="-12" y="-12" width="24" height="24"/>
</symbol>
<symbol  id="straws" viewBox="-12 -12 24 24">
<path d="M-10.89-2.76H10.89V-2H9.63V.46H8.84V-2H8.29v5.6H7.5V-2H5.56V.7H4.77V-2H2.07V2.38H1.29V-2H-.1v3H-.89V-2H-3.2V4.11H-4V-2H-6.22L-6.16.75l-.79,0L-7-2H-8.32V2.33H-9.1V-2h-1.79Z"/>
<rect fill="none" x="-12" y="-12" width="24" height="24"/>
</symbol>
<symbol  id="water" viewBox="-12 -12 24 24">
<path d="M-1.72-9.86,2.11-4.32.38-4.06a6.49,6.49,0,0,0,.29.89,1.5,1.5,0,0,1,.13.79,1.2,1.2,0,0,1-.5.82h0l0,0C-.54-.94-1-.42-1,.05s.24.89.92,1.27h0c.77.48,1.17,1,1.19,1.49S.71,3.94-.2,4.49c-.75.43-1.13.81-1.15,1.15a.51.51,0,0,0,.18.43,2.66,2.66,0,0,0,.76.58,2.93,2.93,0,0,1,1,.67,1.16,1.16,0,0,1,.29.89C.84,8.75.42,9.3-.41,9.86l-.44-.55c.66-.45,1-.83,1-1.15A.47.47,0,0,0,0,7.75a2.84,2.84,0,0,0-.78-.53h0a3.87,3.87,0,0,1-1-.69,1.24,1.24,0,0,1-.34-.91c0-.58.54-1.14,1.52-1.68.66-.42,1-.79,1-1.11s-.3-.61-.84-1h0Q-1.9,1.06-1.74,0a3.44,3.44,0,0,1,1.54-2,.67.67,0,0,0,.27-.41A1.11,1.11,0,0,0,0-3a4.33,4.33,0,0,1-.31-1l-1.5.24Z"/>
<rect fill="none" x="-12" y="-12" width="24" height="24"/>
</symbol><symbol  id="tree" viewBox="-12 -12 24 24">
<path d="M7.4-5.04A4.271,4.271,0,0,0,7.7-6.627a4.3,4.3,0,0,0-4.3-4.3A4.279,4.279,0,0,0,.636-9.914,4.293,4.293,0,0,0-3.045-12a4.3,4.3,0,0,0-4.3,4.3,4.27,4.27,0,0,0,.421,1.845,4.3,4.3,0,0,0-3.645,4.244,4.3,4.3,0,0,0,4.3,4.3A4.282,4.282,0,0,0-3.946,2L-1.175,5.23h0L-1.612,12H.982L.757,6.376,4.119,2.827v0a4.272,4.272,0,0,0,2.15.58,4.3,4.3,0,0,0,4.3-4.3A4.3,4.3,0,0,0,7.4-5.04ZM-3.346,1.538h0A4.346,4.346,0,0,0-2.7.788a4.266,4.266,0,0,0,1.765.753l-.135,2.087ZM.69,4.7.563,1.544A4.258,4.258,0,0,0,2.321.805,4.3,4.3,0,0,0,3.378,2.279Z"/>
<rect fill="none" x="-12" y="-12" width="24" height="24"/>
</symbol><g>
<desc></desc>
<g>
<line fill="none" stroke="#dddddd" stroke-width="0.1mm" x1="0.00" y1="180.00" x2="527.00" y2="180.00" />
<text x="524.20" y="179.80" font-size=".2mm" fill="#000000">0m</text>
<line fill="none" stroke="#dddddd" stroke-width="0.1mm" x1="0.00" y1="130.00" x2="527.00" y2="130.00" />
<text x="524.20" y="129.80" font-size=".2mm" fill="#000000">5m</text>
<line fill="none" stroke="#dddddd" stroke-width="0.1mm" x1="0.00" y1="80.00" x2="527.00" y2="80.00" />
<text x="524.20" y="79.80" font-size=".2mm" fill="#000000">10m</text>
<line fill="none" stroke="#dddddd" stroke-width="0.1mm" x1="0.00" y1="30.00" x2="527.00" y2="30.00" />
<text x="524.20" y="29.80" font-size=".2mm" fill="#000000">15m</text>
<line fill="none" stroke="#dddddd" stroke-width="0.1mm" x1="0.00" y1="230.00" x2="527.00" y2="230.00" />
<text x="524.20" y="229.80" font-size=".2mm" fill="#000000">-5m</text>
<line fill="none" stroke="#dddddd" stroke-width="0.1mm" x1="0.00" y1="280.00" x2="527.00" y2="280.00" />
<text x="524.20" y="279.80" font-size=".2mm" fill="#000000">-10m</text>
<line fill="none" stroke="#dddddd" stroke-width="0.1mm" x1="0.00" y1="330.00" x2="527.00" y2="330.00" />
<text x="524.20" y="329.80" font-size=".2mm" fill="#000000">-15m</text>
<line fill="none" stroke="#dddddd" stroke-width="0.1mm" x1="0.00" y1="380.00" x2="527.00" y2="380.00" />
<text x="524.20" y="379.80" font-size=".2mm" fill="#000000">-20m</text>
<line fill="none" stroke="#dddddd" stroke-width="0.1mm" x1="0.00" y1="430.00" x2="527.00" y2="430.00" />
<text x="524.20" y="429.80" font-size=".2mm" fill="#000000">-25m</text>
<line fill="none" stroke="#dddddd" stroke-width="0.1mm" x1="0.00" y1="480.00" x2="527.00" y2="480.00" />
<text x="524.20" y="479.80" font-size=".2mm" fill="#000000">-30m</text>
<line fill="none" stroke="#dddddd" stroke-width="0.1mm" x1="0.00" y1="530.00" x2="527.00" y2="530.00" />
<text x="524.20" y="529.80" font-size=".2mm" fill="#000000">-35m</text>
</g>
<g>
<path fill="none" stroke="#000000" stroke-width="0.06mm" stroke-dasharray="0.3mm,0.1mm" d="M127.46615,202.23746 C125.28871,201.40355 123.11022,200.57237 120.933815,199.73576 C120.53194,199.58128 120.37047,199.46274 119.90827,199.44685 C113.01206,199.20998 113.58247,199.87746 103.437,203.37698 C95.48225,206.12085 87.84335,209.79263 79.76267,212.13983 C72.36807,214.28775 64.690346,215.30286 57.14193,216.8244 C54.12584,217.43236 55.571716,216.67001 53.968697,217.681 L53.968697,217.681" /><path fill="none" stroke="#000000" stroke-width="0.06mm" stroke-dasharray="0.3mm,0.1mm" d="M39.069115,204.45772 C38.710472,205.91656 38.269035,207.35751 37.99319,208.83426 C37.871292,209.48683 37.826733,210.16095 37.880177,210.82266 C38.269554,215.6437 38.636986,220.473 39.31994,225.26129 C40.555153,233.92162 41.899467,235.59879 43.91601,244.20279 C44.469803,246.56567 44.777016,248.97961 45.20752,251.36801 L45.20752,251.36801" /><path fill="none" stroke="#000000" stroke-width="0.06mm" stroke-dasharray="0.3mm,0.1mm" d="M54.60093,219.32156 C54.034637,219.69781 53.421722,220.0119 52.902058,220.4503 C51.945663,221.25717 51.007156,222.09781 50.188446,223.04408 C48.045647,225.52075 45.571087,229.59344 44.135254,232.33495 C43.26352,233.99937 42.377728,236.73337 42.235863,238.6163 C42.184048,239.30402 42.423504,239.98279 42.517326,240.66605 L42.517326,240.66605" /><path fill="none" stroke="#000000" stroke-width="0.06mm" stroke-dasharray="0.3mm,0.1mm" d="M12.598145,199.79047 C13.217545,201.2314 13.989606,202.67784 14.165559,204.27356 C15.3052635,214.60965 15.3499975,218.70848 14.802246,229.75128 C13.616895,253.6482 13.605621,250.42372 13.549372,244.79819 L13.549372,244.79819" /><path fill="none" stroke="#000000" stroke-width="0.06mm" stroke-dasharray="0.3mm,0.1mm" d="M13.712864,198.40814 C13.828458,197.51797 13.918787,196.62418 14.059647,195.73767 C14.206057,194.81624 14.505811,193.91689 14.574334,192.9864 C14.6475935,191.99162 14.275245,186.68292 14.259254,186.08739 C14.233405,185.12474 14.797936,183.91739 15.00824,183.13094 C15.054464,182.95808 15.108652,182.76935 15.061367,182.59677 C14.900721,182.01047 14.618163,181.46461 14.396562,180.89853 L14.396562,180.89853" /><path fill="none" stroke="#000000" stroke-width="0.06mm" stroke-dasharray="0.3mm,0.1mm" d="M146.51566,186.873 C146.76999,187.76807 156.38142,182.9958 159.81967,184.08351 C161.82584,184.71819 163.78545,185.4919 165.76047,186.21776 C168.22011,187.12173 167.63821,187.2459 171.26523,187.72676 C173.27654,187.99342 175.31465,187.99272 177.33574,188.17055 C177.78114,188.20975 178.27591,188.59042 178.48767,188.97046 C178.52013,189.02873 178.51068,189.10199 178.51721,189.16838 C178.57452,189.7506 178.62518,190.33345 178.67915,190.91597 L178.67915,190.91597" /><path fill="none" stroke="#000000" stroke-width="0.06mm" stroke-dasharray="0.3mm,0.1mm" d="M126.50001,203.40001 C127.40985,202.44972 128.24638,201.42339 129.22952,200.54915 C130.48557,199.43222 131.92726,198.53874 133.20059,197.44157 C134.81934,196.04674 136.22563,194.40958 137.89815,193.07968 C138.34575,192.72377 143.03412,189.30954 145.14406,188.29272 C145.48236,188.1297 145.848,188.03091 146.2,187.9 L146.2,187.9" /><path fill="none" stroke="#000000" stroke-width="0.06mm" stroke-dasharray="0.3mm,0.1mm" d="M179.24788,189.62732 C180.0879,189.63843 181.72458,189.51276 182.64154,189.93163 C185.27829,191.13606 187.72198,192.77174 190.4389,193.78235 C197.07047,196.24907 196.59534,195.11775 201.48933,196.44182 C205.27464,197.46593 209.0287,198.60214 212.79839,199.68231 L212.79839,199.68231" /><path fill="none" stroke="#000000" stroke-width="0.06mm" d="M306.24515,379.70413 C303.81616,379.9502 305.27722,379.98218 301.9169,379.00513 L301.9169,379.00513" /><path fill="none" stroke="#000000" stroke-width="0.06mm" stroke-dasharray="0.3mm,0.1mm" d="M214.12717,201.34654 C216.39372,201.37567 217.66087,201.47513 220.04662,201.05475 C220.70473,200.9388 221.32881,200.67102 221.94882,200.4217 C225.39404,199.03633 228.75775,197.44653 232.23824,196.15231 C233.54225,195.6674 234.88632,195.16724 236.27567,195.09427 C241.02867,194.8446 245.79817,195.00298 250.55403,195.19025 C267.02606,195.83884 260.86865,198.0584 266.3493,195.98135 L266.3493,195.98135" /><path fill="none" stroke="#000000" stroke-width="0.06mm" d="M288.9527,114.66974 L288.195,114.795876" /><path fill="none" stroke="#000000" stroke-width="0.06mm" d="M290.95105,113.91673 C291.24164,113.36406 291.5111,112.79976 291.8228,112.25871 C292.42297,111.21683 292.74643,111.117645 293.016,109.93678 C293.93243,105.92222 293.5564,104.87761 295.21213,101.72735 C296.18097,99.884 297.36865,98.16193 298.34955,96.32497 C299.39194,94.3728 299.23798,93.12 299.9665,90.82757 C300.30386,89.765945 300.84006,88.77728 301.23038,87.733955 C301.4133,87.24499 301.49872,86.72293 301.68457,86.235054 C301.7963,85.94178 301.9476,85.66262 302.11945,85.40002 C302.3289,85.07991 302.58813,84.79527 302.82388,84.494 C302.86542,84.44092 302.94717,84.40425 302.95126,84.336975 C302.97534,83.942505 302.92087,83.54715 302.9057,83.15224 L302.9057,83.15224" /><path fill="none" stroke="#000000" stroke-width="0.06mm" d="M291.6333,134.69516 L291.63538,134.77478" /><path fill="none" stroke="#000000" stroke-width="0.06mm" stroke-dasharray="0.3mm,0.1mm" d="M343.42804,157.44545 C348.64874,157.08809 353.86893,156.72247 359.09018,156.37335 C359.91202,156.31842 360.8189,156.30627 361.4556,155.67223 C365.29846,151.84521 364.00732,152.21027 369.36972,150.46335 C369.78925,150.32668 370.2362,150.23553 370.67694,150.25536 C374.7808,150.43988 378.1587,152.38531 380.46274,148.57828 C383.54987,143.47716 381.2273,146.32574 383.4262,143.784 L383.4262,143.784" /><path fill="none" stroke="#000000" stroke-width="0.06mm" d="M474.62152,85.20496 C469.79132,84.803535 464.3615,84.79636 460.0465,82.12101 C458.49234,81.157394 456.0428,77.71666 455.6475,77.35714 C434.81604,58.41075 451.26013,73.49165 440.12726,65.18838 C438.11832,63.690033 437.0698,61.247864 434.5859,60.409195 C431.81693,59.474266 428.78574,59.424957 425.917,59.3954 C424.2926,59.378662 422.67358,59.774857 421.05188,59.680145 C419.12967,59.567886 415.4193,58.824387 413.6767,57.455177 C413.4495,57.27668 413.23474,57.07869 413.04938,56.857056 C412.08963,55.70945 411.2622,54.450043 410.24557,53.352493 C407.7705,50.680344 404.1402,48.52455 401.39902,46.411316 C401.15317,46.221756 399.10095,43.93666 398.226,44.49617 C397.4552,44.989044 396.78214,45.620148 396.06018,46.18216 L396.06018,46.18216" /><path fill="none" stroke="#000000" stroke-width="0.06mm" d="M395.10535,17.727188 C397.4068,19.214401 398.33636,18.849655 401.28162,19.461273 C402.03497,19.617706 402.9605,20.08554 403.59143,20.52359 C403.86844,20.715881 404.14032,20.925232 404.36075,21.180328 C407.57755,24.902802 404.33524,21.53038 407.58405,26.44136 C408.12167,27.254013 408.84998,27.923721 409.51337,28.637375 C411.8821,31.18547 414.32703,33.662445 416.6796,36.22551 C417.54193,37.16504 417.29654,37.31903 418.1317,37.913376 C419.6306,38.98004 420.67374,38.61281 422.378,38.9606 C423.10132,39.108215 423.82007,39.304474 424.50287,39.585205 C426.22223,40.292145 428.50977,41.753967 429.97595,42.759415 C430.41223,43.058594 430.77484,43.45717 431.21317,43.753372 C431.50244,43.948837 431.823,44.097885 432.14743,44.226807 C434.84476,45.298676 437.6021,46.220367 440.27408,47.353973 C442.5364,48.313797 443.49976,50.956207 445.6828,52.0206 C447.28522,52.80188 448.9226,53.509186 450.54254,54.25348 C452.38718,55.28546 454.1929,56.39039 456.07648,57.349396 C457.1659,57.904045 458.35315,58.248184 459.44977,58.788414 C460.26923,59.192116 460.87146,59.854446 461.65106,60.312004 C462.59622,60.866707 463.30222,60.99533 464.4147,61.24698 C466.388,61.693344 466.76605,61.503967 468.7434,62.6259 C473.44614,65.294106 472.11404,65.098694 476.3846,68.53923 C476.85733,68.92006 477.3995,69.20998 477.9398,69.4867 C478.96747,70.013084 478.34952,68.05939 478.31494,67.879036 L478.31494,67.879036" /><path fill="none" stroke="#000000" stroke-width="0.06mm" d="M302.79367,83.13028 C304.03305,81.381516 305.21393,78.724945 307.3471,77.66343 C311.1718,75.760155 309.09515,77.310745 313.74802,75.3056 C315.18256,74.68739 316.50064,73.82544 317.91025,73.15225 C318.87637,72.69084 319.92078,72.39983 320.86987,71.90434 C323.23785,70.66814 324.52615,69.30989 326.40677,67.274216 C327.80237,65.76355 328.4242,63.418945 328.68243,61.46656 C330.2406,49.685852 329.20047,45.332718 332.80856,36.451263 C333.7417,34.154358 335.13147,31.488403 337.16098,29.888153 C341.8641,26.179794 356.39993,24.64148 358.3808,24.205917 C358.71756,24.131866 359.02222,23.94719 359.32245,23.777634 C360.52045,23.101059 361.6106,22.22084 362.87134,21.669937 C364.52493,20.947388 366.25305,20.372055 368.01443,19.979568 C369.3092,19.69107 370.65363,19.680618 371.97958,19.64035 C375.95966,19.519516 379.94934,19.729218 383.92444,19.496521 C386.8581,19.324799 389.74985,18.704742 392.67554,18.428864 C393.88092,18.315216 395.84738,18.734344 396.92142,18.908768 L396.92142,18.908768" /><path fill="none" stroke="#000000" stroke-width="0.06mm" d="M395.03973,46.610443 C393.95563,51.782593 393.18732,54.180267 392.99045,59.229576 C392.94656,60.355034 393.20886,61.476273 393.19263,62.60247 C393.15918,64.92456 391.78992,68.667336 391.67633,70.40203 C391.167,78.17933 391.1248,85.98133 391.01236,93.774475 C390.9912,95.24296 391.18787,96.7065 391.2757,98.172516 C391.07184,99.93046 390.7306,101.67788 390.66406,103.446365 C390.6168,104.704254 391.19058,107.52702 390.7469,109.31317 C390.66306,109.65072 390.5704,109.99436 390.39847,110.2967 C389.15778,112.478325 387.94394,114.683586 386.5182,116.74904 C385.05566,118.867775 381.65393,122.07944 380.40283,125.186264 C379.0647,128.50906 380.45032,134.06009 380.67282,137.01051 C380.81848,138.94202 380.33948,141.24527 378.7662,142.52496 C376.20963,144.60446 369.44922,143.80762 367.6633,143.95111 C364.24634,144.22563 363.05988,144.90033 360.2505,146.43279 L360.2505,146.43279" /><path fill="none" stroke="#924216" stroke-width="0.02mm" d="M360.11926,72.40846 C362.13422,72.38043 364.15714,72.505325 366.16415,72.324356 C368.6996,72.09575 371.74765,70.67592 374.4219,71.58278 C374.89737,71.74401 375.4359,72.10457 375.79105,72.43931 C377.86877,74.39786 379.88873,76.416885 381.9562,78.386314 C382.21204,78.630066 382.5063,78.83163 382.7598,79.07783 C382.9956,79.30681 383.19623,79.88926 383.08752,80.2124 C381.56577,84.735275 380.01318,89.24789 378.42987,93.74957 C378.34982,93.97713 378.06674,94.293915 377.88486,94.44267 C377.25903,94.95449 376.38998,94.968445 375.72693,95.41635 C373.31064,97.0486 371.0261,98.86829 368.64673,100.55385 C368.44977,100.693344 368.03165,100.785835 367.79785,100.800865 C365.7063,100.93528 360.36035,97.48756 359.79654,97.13097 C351.1042,91.63365 356.7099,94.27165 353.07394,92.65591 C352.47293,92.38883 351.9439,92.08706 351.5562,91.52501 C350.23807,89.61379 350.61176,89.344215 349.31757,86.679214 C348.90106,85.82147 348.31302,85.05684 347.8606,84.21748 C347.6148,83.76153 348.15973,83.34263 348.44522,83.12001 C352.27856,80.13099 356.14264,77.18094 359.94345,74.150604 C360.30457,73.86269 360.6297,73.14833 360.57385,72.68089 C360.5136,72.1766 360.38748,71.68237 360.29428,71.183105 L360.29428,71.183105" /><path fill="none" stroke="#924216" stroke-width="0.02mm" d="M360.6444,72.736694 C363.0525,83.97438 361.35846,75.14636 363.2267,88.407585 C363.3178,89.05411 363.58392,90.17952 364.5135,90.02685 C365.31656,89.89495 366.14978,89.84245 366.90662,89.54323 C369.54883,88.4986 372.15167,87.33836 374.66498,86.01329 C380.71664,82.82273 379.76312,83.503876 382.85257,80.11067 L382.85257,80.11067" /><path fill="none" stroke="#924216" stroke-width="0.02mm" d="M363.0293,89.825966 C359.91275,90.47388 356.7962,91.12181 353.6797,91.76972 C353.5318,91.79481 353.3858,91.85215 353.23596,91.84495 C352.64713,91.816696 352.06305,91.72431 351.47662,91.66398 L351.47662,91.66398" /><path fill="none" stroke="#924216" stroke-width="0.02mm" d="M347.45068,83.76486 C347.3981,84.424576 347.1981,85.489426 347.44507,86.21129 C348.61407,89.628006 349.91443,92.99855 351.1079,96.406784 C351.2541,96.82418 350.94086,97.38033 350.7171,97.69219 C350.1991,98.41427 349.612,99.0883 349.13617,99.83886 C348.87347,100.25324 348.61877,100.692856 348.51135,101.1716 C347.5098,105.63425 346.547,110.11043 345.8176,114.62555 C345.60886,115.91766 345.68317,117.24179 345.70383,118.55049 C345.71503,119.257935 345.8666,119.95674 345.913,120.66275 C345.97742,121.64345 344.66504,122.268234 343.9431,122.497025 C341.0379,123.41766 341.7078,122.62914 338.33582,125.0569 C336.1867,126.60418 334.21268,128.38135 332.17337,130.0707 C331.54642,130.59006 330.94635,131.4235 329.9887,131.14722 C327.97998,130.56773 326.5202,130.00836 324.66678,128.97829 C323.9819,128.59766 323.39157,128.06305 322.7129,127.671555 C321.8864,127.19479 321.06332,127.14884 320.5639,126.33474 C320.48413,126.20469 320.42383,126.06311 320.36743,125.92134 C319.69162,124.222916 319.10233,122.48896 318.3677,120.815125 C318.09543,120.19472 317.72876,119.61775 317.35333,119.05374 C316.54483,117.83914 313.65686,115.87556 313.36542,115.6067 C312.36197,114.68096 310.98526,113.39234 310.32422,112.00851 C309.9898,111.30847 309.79565,110.46393 309.953,109.688576 C310.10312,108.9488 310.42596,108.242676 310.5026,107.49174 C310.78073,104.766624 310.92975,102.02783 311.01422,99.28986 C311.03903,98.48672 310.86856,97.688934 310.82996,96.88632 C310.8131,96.53613 311.08386,96.0233 311.39294,95.85156 C314.0623,94.36844 316.7048,92.8313 319.4381,91.469696 C320.88428,90.74929 322.63406,90.70908 323.9936,89.79888 C324.6045,89.38988 325.19553,88.946 325.7407,88.452774 C327.8319,86.560905 329.00128,84.27506 331.82706,84.044815 C332.17126,84.01677 332.52527,83.985214 332.8631,84.057045 C334.583,84.42279 336.23035,85.14696 337.97668,85.35252 C341.24097,85.73678 344.54095,85.71417 347.82614,85.81842 C348.71286,85.846565 346.05887,85.66013 345.1752,85.58098 L345.1752,85.58098" /><path fill="none" stroke="#924216" stroke-width="0.02mm" d="M311.852,96.93737 C316.88968,98.82916 314.96667,98.2545 322.60336,99.887405 C324.09845,100.20709 325.91647,99.4021 327.0775,98.53902 C327.5039,98.222084 327.91537,97.87703 328.26935,97.48086 C328.79037,96.8977 329.78687,95.197266 330.77875,94.593765 C335.68756,91.607056 328.17172,96.76739 336.931,92.03052 C339.55396,90.61207 341.96603,88.83419 344.47162,87.21742 C345.1726,86.76512 345.76395,86.10243 346.55023,85.82358 C347.43042,85.5114 348.40503,85.6035 349.3324,85.49347 L349.3324,85.49347" /><path fill="none" stroke="#924216" stroke-width="0.02mm" d="M324.97998,99.256775 C324.27014,100.633804 323.07483,102.359184 322.80887,104.063255 C322.5797,105.53175 322.56107,107.031845 322.27063,108.48946 C322.05838,109.554756 321.60535,110.55795 321.3067,111.60232 C321.2785,111.70087 321.28674,111.807175 321.29263,111.9095 C321.35834,113.04744 323.1181,113.986496 323.78827,114.34975 C341.3821,123.8861 335.46695,118.69247 341.32434,124.02636 L341.32434,124.02636" /><path fill="none" stroke="#924216" stroke-width="0.02mm" d="M320.29767,112.40741 C317.0797,117.906395 318.14963,115.705734 316.70932,118.818634 L316.70932,118.818634" /><path fill="none" stroke="#924216" stroke-width="0.02mm" d="M303.91748,116.49301 C302.2378,117.511734 300.5128,118.45922 298.87845,119.54918 C298.667,119.6902 296.91763,120.86423 296.39417,121.68295 C295.62402,122.887566 296.23163,124.30893 297.51184,124.7913 C298.57214,125.19082 299.43628,124.54697 300.43954,124.917786 C301.26648,125.223434 301.82,125.77304 302.555,126.320854 C302.73218,126.452934 303.11243,126.92563 303.46744,126.811676 C303.70593,126.73512 303.83417,126.40094 303.88495,126.20368 C304.2548,124.76802 304.59683,123.32523 304.93158,121.881 C305.12177,121.06055 304.98596,121.063 305.35104,120.34021 C305.62732,119.79316 306.1113,119.36573 306.08264,118.71008 C306.05463,118.06993 305.6034,117.33471 304.9975,117.08647 C304.9652,117.073235 304.1663,116.831566 304.1351,116.81221 C303.55402,116.45157 303.0127,116.03051 302.45148,115.63966 L302.45148,115.63966" /><path fill="none" stroke="#924216" stroke-width="0.02mm" d="M303.39233,117.08381 C302.1975,118.63582 301.0027,120.187836 299.80786,121.73985 C299.72955,121.91588 299.63025,122.08398 299.573,122.267914 C299.53357,122.3945 299.30164,123.21402 299.4475,123.46205 C299.61453,123.74603 299.8894,123.95083 300.11032,124.19522 L300.11032,124.19522" /><path fill="none" stroke="#000000" stroke-width="0.06mm" d="M358.17984,146.84233 C357.71616,147.01486 357.26294,147.21866 356.78882,147.35994 C356.44592,147.46211 355.95523,147.44266 355.61047,147.37541 C351.8505,146.64203 351.21313,146.88358 348.87573,145.77333 C347.8066,145.26553 346.79507,144.62436 345.68246,144.2207 C343.05972,143.26913 340.3761,142.49107 337.69562,141.71707 C336.96246,141.50537 335.5503,141.56915 334.89694,141.72623 C331.84216,142.46057 328.81082,143.29303 325.79343,144.16832 C323.53113,144.82457 320.49286,146.74727 318.0603,145.21262 C317.0439,144.57143 315.98495,143.08408 315.45917,142.38144 C314.3664,140.92108 313.56964,139.40567 313.39227,137.57619 C313.25256,136.13472 313.3865,133.72395 312.8866,132.02667 C312.45007,130.54466 310.98734,129.06319 309.92523,128.16916 C309.13684,127.50553 306.96582,125.53081 305.30945,125.39195 C302.6358,125.16783 299.24258,128.60597 297.9062,129.45233 C296.58353,130.28998 295.12915,130.91138 293.8277,131.78152 C290.691,133.87871 292.5117,133.26349 289.83307,135.44577 C289.4498,135.758 288.96823,135.92477 288.5358,136.16429 L288.5358,136.16429" /><path fill="none" stroke="#000000" stroke-width="0.06mm" d="M290.89886,134.08554 C286.82428,135.9028 282.89133,138.07846 278.6751,139.53732 C276.623,140.2474 274.37122,140.1336 272.23846,140.5423 C270.41736,140.89127 267.2481,143.0156 266.40964,143.55353 C264.57687,144.72934 263.8822,145.92563 262.8874,147.80234 C262.6982,148.15929 262.56235,148.54431 262.3559,148.89157 C262.18265,149.18303 261.99146,149.46983 261.75287,149.71074 C260.36383,151.11328 259.03824,152.5987 257.4819,153.81291 C254.13086,156.4273 254.01717,155.27017 251.9325,157.53053 C250.66357,158.9064 249.99591,160.1908 249.3166,161.99228 C248.62126,163.83626 248.39742,166.8757 246.67047,168.46191 C244.6896,170.28136 238.50426,171.82109 237.71584,172.1355 C237.16695,172.3544 236.65807,172.6772 236.18954,173.03731 C234.24124,174.53477 232.53,176.34613 230.47824,177.69836 C225.32292,181.09601 225.59273,179.53236 220.10846,181.80513 C218.5067,182.46892 217.05101,183.44124 215.5223,184.2593 L215.5223,184.2593" /><path fill="none" stroke="#000000" stroke-width="0.06mm" d="M291.48965,112.75132 C288.94235,113.9056 287.30966,116.348694 284.686,117.35848 C279.2887,119.43581 273.79504,121.25959 268.41663,123.385315 C266.06168,124.31607 261.38037,129.60712 261.14447,129.78412 C256.4361,133.31674 251.30011,136.24359 246.4805,139.62285 C245.18727,140.5296 242.7564,144.36763 242.37828,144.79147 C240.05391,147.3969 237.58118,149.8695 235.06848,152.29382 C234.57571,152.76926 233.95642,153.09372 233.38397,153.4694 C231.21521,154.89276 229.05731,156.33447 226.84575,157.69035 C226.15387,158.11452 224.5499,158.37729 223.94626,158.40308 C215.13629,158.77957 218.96936,157.5134 214.95338,159.0521 L214.95338,159.0521" /><path fill="none" stroke="#000000" stroke-width="0.06mm" d="M146.5679,149.1895 C147.56454,149.52249 148.53078,149.96625 149.55779,150.18849 C149.96162,150.2759 157.60895,151.1328 160.14935,152.39842 C162.73553,153.68686 165.18207,155.24477 167.77394,156.52176 C169.4061,157.32591 171.15338,157.87553 172.80695,158.6347 C174.22864,159.28743 175.59126,160.06206 176.9939,160.75479 C177.6983,161.10269 178.4407,161.37466 179.12741,161.75629 C180.28888,162.40175 181.3311,163.26047 182.53076,163.83182 C183.48969,164.28851 190.88043,166.97385 191.93237,167.18071 C194.68091,167.72118 197.50447,167.77408 200.27708,168.17294 C202.41827,168.48099 205.64041,168.59679 207.62802,170.12965 C210.0283,171.9808 211.31447,175.20613 212.33464,177.9977 C212.81895,179.323 212.67267,179.67876 213.43321,180.73425 C215.87096,184.1174 213.33687,180.0759 216.56732,184.04205 C217.0597,184.64653 217.38062,185.37238 217.7873,186.03754 L217.7873,186.03754" /><path fill="none" stroke="#000000" stroke-width="0.06mm" d="M214.33026,158.33586 C213.81927,158.15804 213.2959,158.01253 212.79736,157.80237 C211.4972,157.25432 210.33308,155.37009 209.81442,154.40994 C208.76434,152.46616 207.98087,150.38916 207.01004,148.40462 C206.92543,148.23167 206.78635,148.08966 206.65411,147.94974 C205.1692,146.37865 201.69458,145.83792 199.93376,144.94394 C196.87341,143.39018 193.87192,141.71014 190.96939,139.87842 C189.46822,138.93106 188.15237,137.71771 186.75284,136.62576 C185.6976,135.80244 184.92487,135.1336 183.56642,134.83635 C182.46915,134.59625 182.1109,134.70583 180.94078,134.7661 C172.22787,135.21487 163.51877,135.7449 154.80199,136.11066 C152.56792,136.2044 151.39876,134.53983 149.74332,133.31444 C148.59282,132.46281 145.99449,131.53165 144.56143,132.27783 C132.92502,138.33684 136.21487,135.83542 131.2519,139.86806 L131.2519,139.86806" /><path fill="none" stroke="#000000" stroke-width="0.06mm" d="M24.066732,166.21487 C25.25866,166.21738 32.040665,165.69763 35.230972,166.5331 C35.65824,166.64499 36.062546,166.83272 36.468185,167.00748 C36.92211,167.20303 37.32677,167.52945 37.807762,167.64322 C39.761738,168.10538 41.77626,168.27701 43.73334,168.72583 C44.737328,168.95609 45.665337,169.4659 46.673634,169.67647 C49.434082,170.25298 52.107544,169.9789 54.902306,169.7062 C57.431305,169.45946 59.089428,167.81783 60.737396,166.04633 C61.52014,165.20491 62.52588,163.5438 63.89186,163.2166 C66.04586,162.70064 72.41409,162.26958 72.66346,162.23639 C73.39325,162.13927 74.107254,161.93073 74.80483,161.69536 C78.47344,160.45758 82.13118,159.18423 85.75448,157.81952 C86.42082,157.56854 87.6934,156.83987 88.26012,156.24942 C89.44892,155.01086 91.05098,152.44803 93.02806,151.73984 C93.715546,151.49359 94.42209,151.29652 95.136215,151.14389 C99.508514,150.20929 103.93959,149.54376 108.28209,148.47928 C109.47423,148.18704 110.588776,147.62686 111.69057,147.08589 C123.088936,141.48944 104.296906,148.07959 130.69748,140.27243 C130.98505,140.1874 131.57805,140.2652 131.84903,140.34496 C132.55345,140.55232 133.35933,141.02296 133.96996,141.33589 L133.96996,141.33589" /><path fill="none" stroke="#000000" stroke-width="0.06mm" d="M145.69762,149.0162 C144.7783,149.38348 143.88367,149.81982 142.9397,150.11807 C140.69328,150.82782 139.28416,150.74033 137.49704,151.82498 C135.58694,152.98428 135.41641,153.8393 133.21567,155.43857 C132.03253,156.29834 130.77449,157.07329 129.44348,157.6794 C126.09053,159.20622 122.7743,160.9425 119.19669,161.8224 C116.29816,162.53528 113.23285,162.12468 110.260414,162.3974 C109.81995,162.43782 109.389404,162.583 108.98382,162.75946 C106.075134,164.02502 99.53472,168.39409 98.61625,168.85802 C96.8519,169.74919 94.91926,170.26663 93.02913,170.84502 C89.98911,171.7753 89.22379,171.41345 86.992584,172.64328 C84.592026,173.96645 83.011475,176.55666 80.971115,178.25287 C79.99508,179.06427 78.86772,179.68106 77.75404,180.28992 C74.34238,182.15514 72.65509,181.43468 68.10099,182.87715 C65.342155,183.75099 62.821133,185.28377 60.060375,186.1515 C53.064636,188.35034 57.351738,185.91626 50.73216,186.97116 C48.34958,187.35085 46.09028,188.31268 43.72154,188.77086 C42.086678,189.08708 40.390907,188.98865 38.752922,189.28825 C36.08604,189.77606 33.67132,191.19757 31.32406,192.43239 C30.75141,192.73364 30.387484,193.22418 30.294266,193.85724 C30.167255,194.71977 31.071247,195.97215 31.24337,196.36728 L31.24337,196.36728" /><use xlink:href="#water" width="3.6" height="3.6" x="-1.8" y="-1.8" transform="translate(355.6552 140.52325) rotate(202)"/>
</g>
<g>
<line fill="none" stroke="#5674b9" stroke-width="0.04mm" stroke-dasharray="0.4,0.2" x1="23.00" y1="180.00" x2="39.55" y2="179.01" />
<line fill="none" stroke="#5674b9" stroke-width="0.04mm" stroke-dasharray="0.4,0.2" x1="23.00" y1="180.00" x2="19.43" y2="178.67" />
<line fill="none" stroke="#00aeef" stroke-width="0.04mm" stroke-dasharray="0.4,0.2" x1="23.00" y1="180.00" x2="35.63" y2="201.50" />
<line fill="none" stroke="#00aeef" stroke-width="0.04mm" stroke-dasharray="0.4,0.2" x1="23.00" y1="180.00" x2="27.72" y2="197.07" />
<line fill="none" stroke="#00aeef" stroke-width="0.04mm" stroke-dasharray="0.4,0.2" x1="23.00" y1="180.00" x2="27.80" y2="194.76" />
<line fill="none" stroke="#5674b9" stroke-width="0.04mm" stroke-dasharray="0.4,0.2" x1="23.00" y1="180.00" x2="22.97" y2="166.86" />
<line fill="none" stroke="#5674b9" stroke-width="0.04mm" stroke-dasharray="0.4,0.2" x1="23.00" y1="180.00" x2="60.13" y2="514.30" />
<line fill="none" stroke="#5674b9" stroke-width="0.04mm" stroke-dasharray="0.4,0.2" x1="23.00" y1="180.00" x2="72.22" y2="493.72" />
<line fill="none" stroke="#5674b9" stroke-width="0.04mm" stroke-dasharray="0.4,0.2" x1="23.00" y1="180.00" x2="77.91" y2="468.69" />
<line fill="none" stroke="#111111" stroke-width="0.04mm" x1="23.00" y1="180.00" x2="55.30" y2="172.82" />
<line fill="none" stroke="#00aeef" stroke-width="0.04mm" stroke-dasharray="0.4,0.2" x1="55.30" y1="172.82" x2="55.21" y2="186.35" />
<line fill="none" stroke="#00aeef" stroke-width="0.04mm" stroke-dasharray="0.4,0.2" x1="55.30" y1="172.82" x2="52.45" y2="216.35" />
<line fill="none" stroke="#00aeef" stroke-width="0.04mm" stroke-dasharray="0.4,0.2" x1="55.30" y1="172.82" x2="55.53" y2="186.33" />
<line fill="none" stroke="#00aeef" stroke-width="0.04mm" stroke-dasharray="0.4,0.2" x1="55.30" y1="172.82" x2="53.76" y2="173.02" />
<line fill="none" stroke="#5674b9" stroke-width="0.04mm" stroke-dasharray="0.4,0.2" x1="55.30" y1="172.82" x2="56.42" y2="172.42" />
<line fill="none" stroke="#111111" stroke-width="0.04mm" x1="55.30" y1="172.82" x2="134.98" y2="146.31" />
<line fill="none" stroke="#5674b9" stroke-width="0.04mm" stroke-dasharray="0.4,0.2" x1="134.98" y1="146.31" x2="214.34" y2="120.21" />
<line fill="none" stroke="#00aeef" stroke-width="0.04mm" stroke-dasharray="0.4,0.2" x1="134.98" y1="146.31" x2="132.90" y2="144.98" />
<line fill="none" stroke="#00aeef" stroke-width="0.04mm" stroke-dasharray="0.4,0.2" x1="134.98" y1="146.31" x2="134.10" y2="137.95" />
<line fill="none" stroke="#00aeef" stroke-width="0.04mm" stroke-dasharray="0.4,0.2" x1="134.98" y1="146.31" x2="133.99" y2="155.13" />
<line fill="none" stroke="#00aeef" stroke-width="0.04mm" stroke-dasharray="0.4,0.2" x1="134.98" y1="146.31" x2="126.20" y2="201.85" />
<line fill="none" stroke="#5674b9" stroke-width="0.04mm" stroke-dasharray="0.4,0.2" x1="134.98" y1="146.31" x2="137.60" y2="145.96" />
<line fill="none" stroke="#111111" stroke-width="0.04mm" x1="134.98" y1="146.31" x2="147.54" y2="137.27" />
<line fill="none" stroke="#5674b9" stroke-width="0.04mm" stroke-dasharray="0.4,0.2" x1="147.54" y1="137.27" x2="147.39" y2="131.19" />
<line fill="none" stroke="#5674b9" stroke-width="0.04mm" stroke-dasharray="0.4,0.2" x1="147.54" y1="137.27" x2="145.88" y2="149.40" />
<line fill="none" stroke="#00aeef" stroke-width="0.04mm" stroke-dasharray="0.4,0.2" x1="147.54" y1="137.27" x2="144.74" y2="187.36" />
<line fill="none" stroke="#5674b9" stroke-width="0.04mm" stroke-dasharray="0.4,0.2" x1="147.54" y1="137.27" x2="156.50" y2="136.45" />
<line fill="none" stroke="#5674b9" stroke-width="0.04mm" stroke-dasharray="0.4,0.2" x1="147.54" y1="137.27" x2="142.99" y2="136.88" />
<line fill="none" stroke="#111111" stroke-width="0.04mm" x1="147.54" y1="137.27" x2="189.52" y2="148.62" />
<line fill="none" stroke="#00aeef" stroke-width="0.04mm" stroke-dasharray="0.4,0.2" x1="189.52" y1="148.62" x2="182.22" y2="148.31" />
<line fill="none" stroke="#00aeef" stroke-width="0.04mm" stroke-dasharray="0.4,0.2" x1="189.52" y1="148.62" x2="187.97" y2="135.80" />
<line fill="none" stroke="#00aeef" stroke-width="0.04mm" stroke-dasharray="0.4,0.2" x1="189.52" y1="148.62" x2="180.96" y2="164.33" />
<line fill="none" stroke="#111111" stroke-width="0.04mm" x1="189.52" y1="148.62" x2="219.10" y2="171.00" />
<line fill="none" stroke="#5674b9" stroke-width="0.04mm" stroke-dasharray="0.4,0.2" x1="219.10" y1="171.00" x2="214.65" y2="157.40" />
<line fill="none" stroke="#5674b9" stroke-width="0.04mm" stroke-dasharray="0.4,0.2" x1="219.10" y1="171.00" x2="210.34" y2="170.56" />
<line fill="none" stroke="#00aeef" stroke-width="0.04mm" stroke-dasharray="0.4,0.2" x1="219.10" y1="171.00" x2="212.59" y2="200.29" />
<line fill="none" stroke="#5674b9" stroke-width="0.04mm" stroke-dasharray="0.4,0.2" x1="219.10" y1="171.00" x2="228.10" y2="156.41" />
<line fill="none" stroke="#111111" stroke-width="0.04mm" x1="219.10" y1="171.00" x2="263.03" y2="136.34" />
<line fill="none" stroke="#00aeef" stroke-width="0.04mm" stroke-dasharray="0.4,0.2" x1="263.03" y1="136.34" x2="261.98" y2="128.08" />
<line fill="none" stroke="#00aeef" stroke-width="0.04mm" stroke-dasharray="0.4,0.2" x1="263.03" y1="136.34" x2="260.45" y2="135.02" />
<line fill="none" stroke="#00aeef" stroke-width="0.04mm" stroke-dasharray="0.4,0.2" x1="263.03" y1="136.34" x2="265.99" y2="196.24" />
<line fill="none" stroke="#111111" stroke-width="0.04mm" x1="263.03" y1="136.34" x2="290.51" y2="114.77" />
<line fill="none" stroke="#00aeef" stroke-width="0.04mm" stroke-dasharray="0.4,0.2" x1="290.51" y1="114.77" x2="287.62" y2="114.52" />
<line fill="none" stroke="#00aeef" stroke-width="0.04mm" stroke-dasharray="0.4,0.2" x1="290.51" y1="114.77" x2="290.70" y2="135.02" />
<line fill="none" stroke="#111111" stroke-width="0.04mm" x1="290.51" y1="114.77" x2="303.85" y2="88.65" />
<line fill="none" stroke="#5674b9" stroke-width="0.04mm" stroke-dasharray="0.4,0.2" x1="303.85" y1="88.65" x2="299.78" y2="88.35" />
<line fill="none" stroke="#5674b9" stroke-width="0.04mm" stroke-dasharray="0.4,0.2" x1="303.85" y1="88.65" x2="301.78" y2="84.53" />
<line fill="none" stroke="#00aeef" stroke-width="0.04mm" stroke-dasharray="0.4,0.2" x1="303.85" y1="88.65" x2="305.73" y2="116.21" />
<line fill="none" stroke="#111111" stroke-width="0.04mm" x1="303.85" y1="88.65" x2="365.38" y2="56.71" />
<line fill="none" stroke="#00aeef" stroke-width="0.04mm" stroke-dasharray="0.4,0.2" x1="365.38" y1="56.71" x2="357.33" y2="58.89" />
<line fill="none" stroke="#00aeef" stroke-width="0.04mm" stroke-dasharray="0.4,0.2" x1="365.38" y1="56.71" x2="347.09" y2="67.40" />
<line fill="none" stroke="#00aeef" stroke-width="0.04mm" stroke-dasharray="0.4,0.2" x1="365.38" y1="56.71" x2="318.65" y2="83.45" />
<line fill="none" stroke="#00aeef" stroke-width="0.04mm" stroke-dasharray="0.4,0.2" x1="365.38" y1="56.71" x2="359.65" y2="142.12" />
<line fill="none" stroke="#00aeef" stroke-width="0.04mm" stroke-dasharray="0.4,0.2" x1="365.38" y1="56.71" x2="365.10" y2="23.20" />
<line fill="none" stroke="#111111" stroke-width="0.04mm" x1="365.38" y1="56.71" x2="397.14" y2="29.02" />
<line fill="none" stroke="#5674b9" stroke-width="0.04mm" stroke-dasharray="0.4,0.2" x1="397.14" y1="29.02" x2="394.63" y2="29.39" />
<line fill="none" stroke="#5674b9" stroke-width="0.04mm" stroke-dasharray="0.4,0.2" x1="397.14" y1="29.02" x2="394.64" y2="19.23" />
<line fill="none" stroke="#5674b9" stroke-width="0.04mm" stroke-dasharray="0.4,0.2" x1="397.14" y1="29.02" x2="398.89" y2="43.81" />
<line fill="none" stroke="#111111" stroke-width="0.04mm" x1="397.14" y1="29.02" x2="415.71" y2="46.88" />
<line fill="none" stroke="#5674b9" stroke-width="0.04mm" stroke-dasharray="0.4,0.2" x1="415.71" y1="46.88" x2="416.87" y2="43.54" />
<line fill="none" stroke="#00aeef" stroke-width="0.04mm" stroke-dasharray="0.4,0.2" x1="415.71" y1="46.88" x2="418.85" y2="40.83" />
<line fill="none" stroke="#00aeef" stroke-width="0.04mm" stroke-dasharray="0.4,0.2" x1="415.71" y1="46.88" x2="418.52" y2="45.90" />
<line fill="none" stroke="#00aeef" stroke-width="0.04mm" stroke-dasharray="0.4,0.2" x1="415.71" y1="46.88" x2="419.99" y2="58.17" />
<line fill="none" stroke="#00aeef" stroke-width="0.04mm" stroke-dasharray="0.4,0.2" x1="415.71" y1="46.88" x2="411.58" y2="42.23" />
<line fill="none" stroke="#111111" stroke-width="0.04mm" x1="415.71" y1="46.88" x2="430.78" y2="47.68" />
<line fill="none" stroke="#00aeef" stroke-width="0.04mm" stroke-dasharray="0.4,0.2" x1="430.78" y1="47.68" x2="474.85" y2="83.74" />
<line fill="none" stroke="#111111" stroke-width="0.04mm" x1="430.78" y1="47.68" x2="506.47" y2="91.78" />
</g>
<g>
<circle cx="23.00" cy="180.00" r="0.1" fill="#111111" />
<circle cx="55.30" cy="172.82" r="0.1" fill="#111111" />
<circle cx="134.98" cy="146.31" r="0.1" fill="#111111" />
<circle cx="147.54" cy="137.27" r="0.1" fill="#111111" />
<circle cx="189.52" cy="148.62" r="0.1" fill="#111111" />
<circle cx="219.10" cy="171.00" r="0.1" fill="#111111" />
<circle cx="263.03" cy="136.34" r="0.1" fill="#111111" />
<circle cx="290.51" cy="114.77" r="0.1" fill="#111111" />
<circle cx="303.85" cy="88.65" r="0.1" fill="#111111" />
<circle cx="365.38" cy="56.71" r="0.1" fill="#111111" />
<circle cx="397.14" cy="29.02" r="0.1" fill="#111111" />
<circle cx="415.71" cy="46.88" r="0.1" fill="#111111" />
<circle cx="430.78" cy="47.68" r="0.1" fill="#111111" />
<circle cx="506.47" cy="91.78" r="0.1" fill="#111111" />
</g>
<g>
<text x="23.20" y="180.00" font-size=".2mm" fill="#000000">0</text>
<text x="55.50" y="172.82" font-size=".2mm" fill="#000000">1</text>
<text x="135.18" y="146.31" font-size=".2mm" fill="#000000">2</text>
<text x="147.74" y="137.27" font-size=".2mm" fill="#000000">3</text>
<text x="189.72" y="148.62" font-size=".2mm" fill="#000000">4</text>
<text x="219.30" y="171.00" font-size=".2mm" fill="#000000">5</text>
<text x="263.23" y="136.34" font-size=".2mm" fill="#000000">6</text>
<text x="290.71" y="114.77" font-size=".2mm" fill="#000000">7</text>
<text x="304.05" y="88.65" font-size=".2mm" fill="#000000">8</text>
<text x="365.58" y="56.71" font-size=".2mm" fill="#000000">9</text>
<text x="397.34" y="29.02" font-size=".2mm" fill="#000000">10</text>
<text x="415.91" y="46.88" font-size=".2mm" fill="#000000">11</text>
<text x="430.98" y="47.68" font-size=".2mm" fill="#000000">12</text>
<text x="506.67" y="91.78" font-size=".2mm" fill="#000000">13</text>
</g>
<g>
</g>
</g>
</svg>