0
SECTION
2
HEADER
9
$ACADVER
1
AC1002
9
$INSUNITS
70
4
0
ENDSEC
0
SECTION
2
TABLES
0
TABLE
2
LTYPE
70
1
0
LTYPE
2
DASH
70
0
3
---
72
65
73
2
40
0,6
49
0,3
49
-0,3
0
ENDTAB
0
ENDSEC
0
SECTION
2
ENTITIES
0
POLYLINE
66
1
8
Sketch
62
0
0
VERTEX
8
Sketch
10
30.28
20
-11.44
0
VERTEX
8
Sketch
10
30.28
20
-11.2
0
VERTEX
8
Sketch
10
30.52
20
-11.32
0
VERTEX
8
Sketch
10
30.76
20
-11.08
0
VERTEX
8
Sketch
10
31.24
20
-10.96
0
VERTEX
8
Sketch
10
31.72
20
-11.08
0
VERTEX
8
Sketch
10
31.96
20
-10.96
0
VERTEX
8
Sketch
10
32.68
20
-11.2
0
VERTEX
8
Sketch
10
32.92
20
-11.44
0
VERTEX
8
Sketch
10
33.4
20
-11.44
0
VERTEX
8
Sketch
10
33.88
20
-11.8
0
VERTEX
8
Sketch
10
34.12
20
-11.68
0
VERTEX
8
Sketch
10
35.2
20
-12.04
0
VERTEX
8
Sketch
10
35.44
20
-12.04
0
VERTEX
8
Sketch
10
36.16
20
-12.52
0
VERTEX
8
Sketch
10
36.88
20
-12.52
0
VERTEX
8
Sketch
10
37.6
20
-12.88
0
VERTEX
8
Sketch
10
37.84
20
-12.76
0
VERTEX
8
Sketch
10
39.04
20
-13.24
0
VERTEX
8
Sketch
10
39.28
20
-13.12
0
VERTEX
8
Sketch
10
39.4
20
-13.36
0
VERTEX
8
Sketch
10
39.88
20
-13.36
0
VERTEX
8
Sketch
10
40.36
20
-13.6
0
VERTEX
8
Sketch
10
40.6
20
-13.48
0
VERTEX
8
Sketch
10
41.32
20
-13.72
0
VERTEX
8
Sketch
10
41.8
20
-14.08
0
VERTEX
8
Sketch
10
42.28
20
-13.96
0
VERTEX
8
Sketch
10
42.52
20
-14.08
0
VERTEX
8
Sketch
10
42.76
20
-13.96
0
VERTEX
8
Sketch
10
43.24
20
-14.08
0
VERTEX
8
Sketch
10
44.2
20
-13.84
0
VERTEX
8
Sketch
10
44.68
20
-13.96
0
VERTEX
8
Sketch
10
45.16
20
-13.84
0
VERTEX
8
Sketch
10
46.72
20
-13.84
0
VERTEX
8
Sketch
10
46.96
20
-13.72
0
VERTEX
8
Sketch
10
46.96
20
-13.96
0
SEQEND
0
POLYLINE
66
1
8
Sketch
62
0
0
VERTEX
8
Sketch
10
35.8
20
2.24
0
VERTEX
8
Sketch
10
34.84
20
1.88
0
VERTEX
8
Sketch
10
34.36
20
1.88
0
VERTEX
8
Sketch
10
33.88
20
1.76
0
VERTEX
8
Sketch
10
33.64
20
1.52
0
VERTEX
8
Sketch
10
31.36
20
1.04
0
VERTEX
8
Sketch
10
30.88
20
1.04
0
VERTEX
8
Sketch
10
30.4
20
0.92
0
VERTEX
8
Sketch
10
30.16
20
0.92
0
VERTEX
8
Sketch
10
30.04
20
0.68
0
VERTEX
8
Sketch
10
29.56
20
0.8
0
SEQEND
0
POLYLINE
66
1
8
Sketch
62
0
0
VERTEX
8
Sketch
10
54.52
20
6.8
0
VERTEX
8
Sketch
10
54.04
20
6.68
0
VERTEX
8
Sketch
10
53.68
20
6.32
0
VERTEX
8
Sketch
10
53.2
20
6.2
0
VERTEX
8
Sketch
10
52.48
20
5.84
0
VERTEX
8
Sketch
10
52.24
20
5.84
0
VERTEX
8
Sketch
10
52
20
5.6
0
VERTEX
8
Sketch
10
51.52
20
5.48
0
VERTEX
8
Sketch
10
51.04
20
5.36
0
VERTEX
8
Sketch
10
50.8
20
5.12
0
VERTEX
8
Sketch
10
50.56
20
5.24
0
VERTEX
8
Sketch
10
50.32
20
5
0
VERTEX
8
Sketch
10
50.08
20
5
0
VERTEX
8
Sketch
10
49.84
20
4.76
0
VERTEX
8
Sketch
10
49.36
20
4.64
0
VERTEX
8
Sketch
10
47.44
20
3.8
0
VERTEX
8
Sketch
10
46.96
20
3.44
0
VERTEX
8
Sketch
10
46.48
20
3.32
0
VERTEX
8
Sketch
10
46
20
2.96
0
VERTEX
8
Sketch
10
45.52
20
2.84
0
VERTEX
8
Sketch
10
45.04
20
2.72
0
VERTEX
8
Sketch
10
44.8
20
2.48
0
VERTEX
8
Sketch
10
43.72
20
2.24
0
VERTEX
8
Sketch
10
43
20
2.48
0
VERTEX
8
Sketch
10
42.76
20
2.72
0
VERTEX
8
Sketch
10
42.52
20
2.72
0
VERTEX
8
Sketch
10
42.28
20
2.96
0
VERTEX
8
Sketch
10
41.8
20
3.08
0
VERTEX
8
Sketch
10
41.2
20
3.68
0
VERTEX
8
Sketch
10
40.24
20
4.04
0
VERTEX
8
Sketch
10
39.04
20
3.8
0
VERTEX
8
Sketch
10
38.56
20
3.44
0
VERTEX
8
Sketch
10
38.32
20
3.44
0
VERTEX
8
Sketch
10
37.6
20
2.84
0
VERTEX
8
Sketch
10
37.12
20
2.72
0
VERTEX
8
Sketch
10
36.88
20
2.72
0
VERTEX
8
Sketch
10
36.64
20
2.48
0
VERTEX
8
Sketch
10
36.4
20
2.48
0
VERTEX
8
Sketch
10
35.68
20
2
0
VERTEX
8
Sketch
10
35.68
20
1.76
0
SEQEND
0
POLYLINE
66
1
8
Sketch
62
0
0
VERTEX
8
Sketch
10
71.32
20
4.16
0
VERTEX
8
Sketch
10
70.36
20
4.4
0
VERTEX
8
Sketch
10
69.88
20
4.52
0
VERTEX
8
Sketch
10
69.64
20
4.4
0
VERTEX
8
Sketch
10
68.92
20
4.64
0
VERTEX
8
Sketch
10
68.68
20
4.52
0
VERTEX
8
Sketch
10
68.2
20
4.88
0
VERTEX
8
Sketch
10
67
20
5.12
0
VERTEX
8
Sketch
10
66.28
20
5.48
0
VERTEX
8
Sketch
10
66.04
20
5.48
0
VERTEX
8
Sketch
10
65.8
20
5.72
0
VERTEX
8
Sketch
10
64.48
20
5.72
0
VERTEX
8
Sketch
10
63.52
20
5.96
0
VERTEX
8
Sketch
10
62.08
20
5.96
0
VERTEX
8
Sketch
10
61.84
20
6.08
0
VERTEX
8
Sketch
10
61.6
20
5.96
0
VERTEX
8
Sketch
10
61.12
20
6.08
0
VERTEX
8
Sketch
10
60.64
20
6.08
0
VERTEX
8
Sketch
10
59.56
20
6.44
0
VERTEX
8
Sketch
10
59.32
20
6.32
0
VERTEX
8
Sketch
10
58.6
20
6.56
0
VERTEX
8
Sketch
10
58.12
20
6.68
0
VERTEX
8
Sketch
10
57.52
20
6.8
0
VERTEX
8
Sketch
10
57.04
20
6.92
0
VERTEX
8
Sketch
10
56.56
20
6.8
0
VERTEX
8
Sketch
10
56.08
20
6.68
0
VERTEX
8
Sketch
10
55.6
20
6.8
0
VERTEX
8
Sketch
10
55.12
20
6.68
0
VERTEX
8
Sketch
10
54.76
20
6.68
0
SEQEND
0
POLYLINE
66
1
8
Sketch
62
0
0
VERTEX
8
Sketch
10
75.04
20
-6.4
0
VERTEX
8
Sketch
10
76
20
-6.04
0
VERTEX
8
Sketch
10
76.24
20
-6.16
0
VERTEX
8
Sketch
10
76.48
20
-5.92
0
VERTEX
8
Sketch
10
76.96
20
-5.92
0
VERTEX
8
Sketch
10
77.92
20
-5.56
0
VERTEX
8
Sketch
10
78.16
20
-5.68
0
VERTEX
8
Sketch
10
79.36
20
-4.84
0
VERTEX
8
Sketch
10
79.72
20
-4.12
0
VERTEX
8
Sketch
10
79.6
20
-3.64
0
VERTEX
8
Sketch
10
79.12
20
-2.92
0
VERTEX
8
Sketch
10
76.72
20
-1.36
0
VERTEX
8
Sketch
10
75.4
20
-0.04
0
VERTEX
8
Sketch
10
75.28
20
0.2
0
VERTEX
8
Sketch
10
75.04
20
0.2
0
VERTEX
8
Sketch
10
73.96
20
1.4
0
VERTEX
8
Sketch
10
73.72
20
2
0
VERTEX
8
Sketch
10
73.12
20
2.72
0
VERTEX
8
Sketch
10
72.64
20
3.56
0
VERTEX
8
Sketch
10
71.68
20
4.16
0
VERTEX
8
Sketch
10
71.32
20
4.28
0
SEQEND
0
POLYLINE
66
1
8
Sketch
62
0
0
VERTEX
8
Sketch
10
73.6
20
-5.68
0
VERTEX
8
Sketch
10
74.08
20
-5.68
0
VERTEX
8
Sketch
10
74.8
20
-6.16
0
VERTEX
8
Sketch
10
75.28
20
-6.16
0
VERTEX
8
Sketch
10
75.52
20
-6.28
0
SEQEND
0
POLYLINE
66
1
8
Sketch
62
0
0
VERTEX
8
Sketch
10
70.12
20
-4.48
0
VERTEX
8
Sketch
10
70.6
20
-4.84
0
VERTEX
8
Sketch
10
71.08
20
-4.96
0
VERTEX
8
Sketch
10
71.32
20
-4.84
0
VERTEX
8
Sketch
10
71.56
20
-5.08
0
VERTEX
8
Sketch
10
71.8
20
-4.96
0
SEQEND
0
POLYLINE
66
1
8
Sketch
62
0
0
VERTEX
8
Sketch
10
66.52
20
-3.04
0
VERTEX
8
Sketch
10
67
20
-3.28
0
VERTEX
8
Sketch
10
67.24
20
-3.16
0
VERTEX
8
Sketch
10
67.72
20
-3.52
0
VERTEX
8
Sketch
10
68.2
20
-3.52
0
SEQEND
0
POLYLINE
66
1
8
Sketch
62
0
0
VERTEX
8
Sketch
10
63.28
20
-1.84
0
VERTEX
8
Sketch
10
63.76
20
-1.96
0
VERTEX
8
Sketch
10
64.6
20
-2.2
0
SEQEND
0
POLYLINE
66
1
8
Sketch
62
0
0
VERTEX
8
Sketch
10
52
20
-1.72
0
VERTEX
8
Sketch
10
52.36
20
-1.36
0
VERTEX
8
Sketch
10
52.6
20
-1.24
0
VERTEX
8
Sketch
10
53.32
20
-1.96
0
VERTEX
8
Sketch
10
53.32
20
-2.68
0
VERTEX
8
Sketch
10
53.44
20
-3.16
0
VERTEX
8
Sketch
10
53.68
20
-4.6
0
VERTEX
8
Sketch
10
54.4
20
-5.56
0
VERTEX
8
Sketch
10
55.36
20
-5.32
0
VERTEX
8
Sketch
10
55.84
20
-5.44
0
VERTEX
8
Sketch
10
56.08
20
-5.32
0
VERTEX
8
Sketch
10
56.32
20
-5.44
0
VERTEX
8
Sketch
10
56.56
20
-5.32
0
VERTEX
8
Sketch
10
57.04
20
-5.44
0
VERTEX
8
Sketch
10
57.52
20
-5.44
0
VERTEX
8
Sketch
10
57.76
20
-5.56
0
VERTEX
8
Sketch
10
58.48
20
-5.32
0
VERTEX
8
Sketch
10
58.96
20
-4.24
0
VERTEX
8
Sketch
10
59.08
20
-3.76
0
VERTEX
8
Sketch
10
59.44
20
-3.04
0
VERTEX
8
Sketch
10
59.44
20
-2.56
0
VERTEX
8
Sketch
10
59.8
20
-1.84
0
VERTEX
8
Sketch
10
61
20
-1.36
0
VERTEX
8
Sketch
10
61.24
20
-1.48
0
VERTEX
8
Sketch
10
61.48
20
-1.24
0
VERTEX
8
Sketch
10
61.72
20
-1.36
0
VERTEX
8
Sketch
10
61.96
20
-1.24
0
SEQEND
0
POLYLINE
66
1
8
Sketch
62
0
0
VERTEX
8
Sketch
10
51.76
20
-1.84
0
VERTEX
8
Sketch
10
51.52
20
-1.72
0
VERTEX
8
Sketch
10
52.12
20
-1.72
0
VERTEX
8
Sketch
10
52.84
20
-1.48
0
SEQEND
0
POLYLINE
66
1
8
Sketch
62
0
0
VERTEX
8
Sketch
10
48.28
20
-3.04
0
VERTEX
8
Sketch
10
48.52
20
-3.28
0
VERTEX
8
Sketch
10
49.48
20
-2.8
0
VERTEX
8
Sketch
10
49.96
20
-2.68
0
SEQEND
0
POLYLINE
66
1
8
Sketch
62
0
0
VERTEX
8
Sketch
10
47.44
20
-13.24
0
VERTEX
8
Sketch
10
47.32
20
-12.64
0
VERTEX
8
Sketch
10
46.96
20
-11.68
0
VERTEX
8
Sketch
10
46.84
20
-11.2
0
VERTEX
8
Sketch
10
46.48
20
-10.72
0
VERTEX
8
Sketch
10
46.48
20
-10.36
0
VERTEX
8
Sketch
10
46.36
20
-9.88
0
VERTEX
8
Sketch
10
46.36
20
-9.52
0
VERTEX
8
Sketch
10
46.12
20
-8.8
0
VERTEX
8
Sketch
10
46.12
20
-8.44
0
VERTEX
8
Sketch
10
46
20
-7.96
0
VERTEX
8
Sketch
10
46
20
-7.48
0
VERTEX
8
Sketch
10
45.88
20
-7.24
0
VERTEX
8
Sketch
10
46
20
-6.64
0
VERTEX
8
Sketch
10
46
20
-6.16
0
VERTEX
8
Sketch
10
46.6
20
-5.08
0
VERTEX
8
Sketch
10
47.08
20
-4.6
0
VERTEX
8
Sketch
10
47.44
20
-4.24
0
SEQEND
0
POLYLINE
66
1
8
Sketch
62
0
0
VERTEX
8
Sketch
10
42.16
20
-14.68
0
VERTEX
8
Sketch
10
42.04
20
-14.44
0
VERTEX
8
Sketch
10
42.04
20
-15.64
0
SEQEND
0
POLYLINE
66
1
8
Sketch
62
0
0
VERTEX
8
Sketch
10
47.44
20
-14.68
0
VERTEX
8
Sketch
10
47.44
20
-15.28
0
VERTEX
8
Sketch
10
47.56
20
-16.12
0
SEQEND
0
POLYLINE
66
1
8
Sketch
62
0
0
VERTEX
8
Sketch
10
48.28
20
-13.72
0
VERTEX
8
Sketch
10
47.8
20
-13.6
0
VERTEX
8
Sketch
10
47.56
20
-13.72
0
VERTEX
8
Sketch
10
47.08
20
-13.6
0
VERTEX
8
Sketch
10
46.36
20
-13.6
0
SEQEND
0
POLYLINE
66
1
8
Sketch
62
0
0
VERTEX
8
Sketch
10
57.64
20
-16.84
0
VERTEX
8
Sketch
10
57.4
20
-16.96
0
VERTEX
8
Sketch
10
57.16
20
-16.84
0
VERTEX
8
Sketch
10
56.68
20
-16.96
0
VERTEX
8
Sketch
10
56.2
20
-17.08
0
VERTEX
8
Sketch
10
54.04
20
-16.36
0
VERTEX
8
Sketch
10
53.8
20
-16.12
0
VERTEX
8
Sketch
10
53.56
20
-16.12
0
VERTEX
8
Sketch
10
53.32
20
-15.88
0
VERTEX
8
Sketch
10
53.08
20
-15.88
0
VERTEX
8
Sketch
10
52.6
20
-15.52
0
VERTEX
8
Sketch
10
51.88
20
-15.4
0
VERTEX
8
Sketch
10
51.52
20
-15.04
0
VERTEX
8
Sketch
10
50.8
20
-14.68
0
VERTEX
8
Sketch
10
50.56
20
-14.8
0
VERTEX
8
Sketch
10
50.08
20
-14.68
0
VERTEX
8
Sketch
10
49.6
20
-14.32
0
VERTEX
8
Sketch
10
48.88
20
-14.2
0
VERTEX
8
Sketch
10
48.76
20
-13.96
0
VERTEX
8
Sketch
10
48.28
20
-13.84
0
SEQEND
0
POLYLINE
66
1
8
Sketch
62
0
0
VERTEX
8
Sketch
10
69.64
20
-18.88
0
VERTEX
8
Sketch
10
69.88
20
-17.32
0
VERTEX
8
Sketch
10
69.76
20
-16.84
0
VERTEX
8
Sketch
10
69.76
20
-16.36
0
VERTEX
8
Sketch
10
69.64
20
-15.88
0
VERTEX
8
Sketch
10
69.64
20
-15.28
0
VERTEX
8
Sketch
10
69.52
20
-14.8
0
VERTEX
8
Sketch
10
69.52
20
-14.2
0
VERTEX
8
Sketch
10
68.92
20
-13.24
0
VERTEX
8
Sketch
10
68.68
20
-13
0
VERTEX
8
Sketch
10
68.44
20
-13
0
VERTEX
8
Sketch
10
67.48
20
-12.16
0
VERTEX
8
Sketch
10
67.24
20
-12.16
0
VERTEX
8
Sketch
10
67.12
20
-11.92
0
VERTEX
8
Sketch
10
66.64
20
-11.8
0
VERTEX
8
Sketch
10
66.16
20
-11.68
0
VERTEX
8
Sketch
10
65.2
20
-11.56
0
VERTEX
8
Sketch
10
64.24
20
-11.8
0
VERTEX
8
Sketch
10
63.52
20
-12.16
0
VERTEX
8
Sketch
10
62.56
20
-12.4
0
VERTEX
8
Sketch
10
61.12
20
-13
0
VERTEX
8
Sketch
10
59.92
20
-13.84
0
VERTEX
8
Sketch
10
59.44
20
-14.56
0
VERTEX
8
Sketch
10
59.44
20
-14.8
0
VERTEX
8
Sketch
10
58
20
-16.72
0
VERTEX
8
Sketch
10
57.76
20
-16.72
0
VERTEX
8
Sketch
10
57.52
20
-16.96
0
SEQEND
0
POLYLINE
66
1
8
Sketch
62
0
0
VERTEX
8
Sketch
10
70.96
20
-21.52
0
VERTEX
8
Sketch
10
70.96
20
-21.28
0
VERTEX
8
Sketch
10
70.72
20
-21.52
0
VERTEX
8
Sketch
10
70.84
20
-22
0
VERTEX
8
Sketch
10
70.96
20
-22.72
0
VERTEX
8
Sketch
10
70.96
20
-22.72
0
VERTEX
8
Sketch
10
70.72
20
-22.72
0
VERTEX
8
Sketch
10
70.48
20
-22.48
0
VERTEX
8
Sketch
10
70
20
-22.36
0
VERTEX
8
Sketch
10
69.52
20
-22
0
SEQEND
0
POLYLINE
66
1
8
Sketch
62
0
0
VERTEX
8
Sketch
10
69.76
20
-21.16
0
VERTEX
8
Sketch
10
70
20
-21.16
0
VERTEX
8
Sketch
10
70.72
20
-22.12
0
SEQEND
0
POLYLINE
66
1
8
Sketch
62
0
0
VERTEX
8
Sketch
10
58.48
20
-19.84
0
VERTEX
8
Sketch
10
58.72
20
-19.6
0
VERTEX
8
Sketch
10
59.2
20
-19.48
0
VERTEX
8
Sketch
10
60.64
20
-19
0
VERTEX
8
Sketch
10
60.88
20
-19
0
VERTEX
8
Sketch
10
61.36
20
-18.52
0
VERTEX
8
Sketch
10
61.84
20
-18.4
0
VERTEX
8
Sketch
10
63.04
20
-17.8
0
VERTEX
8
Sketch
10
63.28
20
-17.8
0
VERTEX
8
Sketch
10
63.52
20
-17.56
0
VERTEX
8
Sketch
10
64.24
20
-17.56
0
VERTEX
8
Sketch
10
64.72
20
-17.44
0
VERTEX
8
Sketch
10
65.68
20
-17.8
0
VERTEX
8
Sketch
10
66.76
20
-18.88
0
VERTEX
8
Sketch
10
67.12
20
-19.48
0
VERTEX
8
Sketch
10
68.08
20
-20.56
0
VERTEX
8
Sketch
10
68.2
20
-21.04
0
SEQEND
0
POLYLINE
66
1
8
Sketch
62
0
0
VERTEX
8
Sketch
10
51.4
20
-18.52
0
VERTEX
8
Sketch
10
51.88
20
-18.52
0
VERTEX
8
Sketch
10
53.32
20
-19
0
VERTEX
8
Sketch
10
53.56
20
-19.12
0
VERTEX
8
Sketch
10
53.8
20
-19
0
VERTEX
8
Sketch
10
54.04
20
-19.24
0
VERTEX
8
Sketch
10
55
20
-19.48
0
VERTEX
8
Sketch
10
55.36
20
-19.36
0
VERTEX
8
Sketch
10
55.84
20
-19.48
0
VERTEX
8
Sketch
10
57.04
20
-19.72
0
VERTEX
8
Sketch
10
58.24
20
-19.72
0
VERTEX
8
Sketch
10
58.48
20
-19.84
0
SEQEND
0
POLYLINE
66
1
8
Sketch
62
0
0
VERTEX
8
Sketch
10
43.84
20
-16.12
0
VERTEX
8
Sketch
10
43.84
20
-15.88
0
VERTEX
8
Sketch
10
44.32
20
-15.88
0
VERTEX
8
Sketch
10
44.56
20
-16.12
0
VERTEX
8
Sketch
10
45.52
20
-16.12
0
VERTEX
8
Sketch
10
46.24
20
-16.36
0
VERTEX
8
Sketch
10
47.08
20
-16.36
0
VERTEX
8
Sketch
10
47.56
20
-16.72
0
VERTEX
8
Sketch
10
47.8
20
-16.72
0
VERTEX
8
Sketch
10
48.04
20
-16.96
0
VERTEX
8
Sketch
10
48.28
20
-16.84
0
VERTEX
8
Sketch
10
48.52
20
-17.08
0
VERTEX
8
Sketch
10
49
20
-17.08
0
VERTEX
8
Sketch
10
49.24
20
-17.32
0
VERTEX
8
Sketch
10
49.72
20
-17.44
0
VERTEX
8
Sketch
10
49.96
20
-17.32
0
VERTEX
8
Sketch
10
49.96
20
-17.56
0
VERTEX
8
Sketch
10
50.56
20
-18.16
0
VERTEX
8
Sketch
10
50.8
20
-18.16
0
VERTEX
8
Sketch
10
51.04
20
-18.52
0
VERTEX
8
Sketch
10
51.52
20
-18.52
0
VERTEX
8
Sketch
10
51.76
20
-18.64
0
SEQEND
0
POLYLINE
66
1
8
Sketch
62
0
0
VERTEX
8
Sketch
10
42.16
20
-23.8
0
VERTEX
8
Sketch
10
42.16
20
-24.4
0
VERTEX
8
Sketch
10
42.04
20
-24.88
0
VERTEX
8
Sketch
10
42.04
20
-26.56
0
VERTEX
8
Sketch
10
42.16
20
-27.04
0
VERTEX
8
Sketch
10
42.28
20
-27.64
0
VERTEX
8
Sketch
10
42.4
20
-28.12
0
VERTEX
8
Sketch
10
43.24
20
-28.96
0
VERTEX
8
Sketch
10
43.48
20
-28.84
0
VERTEX
8
Sketch
10
44.2
20
-29.32
0
VERTEX
8
Sketch
10
44.92
20
-29.32
0
VERTEX
8
Sketch
10
45.16
20
-29.44
0
VERTEX
8
Sketch
10
45.4
20
-29.32
0
VERTEX
8
Sketch
10
45.88
20
-29.44
0
VERTEX
8
Sketch
10
46.36
20
-29.44
0
VERTEX
8
Sketch
10
46.6
20
-29.32
0
VERTEX
8
Sketch
10
47.08
20
-29.44
0
VERTEX
8
Sketch
10
47.56
20
-29.32
0
VERTEX
8
Sketch
10
48.16
20
-28.6
0
VERTEX
8
Sketch
10
48.64
20
-27.76
0
VERTEX
8
Sketch
10
48.76
20
-27.28
0
VERTEX
8
Sketch
10
48.88
20
-26.8
0
VERTEX
8
Sketch
10
48.88
20
-25
0
VERTEX
8
Sketch
10
49
20
-24.52
0
VERTEX
8
Sketch
10
49
20
-23.68
0
VERTEX
8
Sketch
10
48.76
20
-22.72
0
VERTEX
8
Sketch
10
48.52
20
-21.04
0
VERTEX
8
Sketch
10
48.52
20
-19.36
0
VERTEX
8
Sketch
10
48.28
20
-18.4
0
VERTEX
8
Sketch
10
48.4
20
-17.92
0
VERTEX
8
Sketch
10
48.16
20
-16.84
0
SEQEND
0
POLYLINE
66
1
8
Sketch
62
0
0
VERTEX
8
Sketch
10
42.28
20
-16.6
0
VERTEX
8
Sketch
10
42.52
20
-17.08
0
VERTEX
8
Sketch
10
42.4
20
-17.68
0
VERTEX
8
Sketch
10
42.28
20
-18.64
0
VERTEX
8
Sketch
10
42.16
20
-19.12
0
VERTEX
8
Sketch
10
42.28
20
-19.72
0
VERTEX
8
Sketch
10
42.16
20
-19.96
0
VERTEX
8
Sketch
10
42.28
20
-20.2
0
VERTEX
8
Sketch
10
42.16
20
-20.68
0
VERTEX
8
Sketch
10
42.16
20
-24.04
0
SEQEND
0
POLYLINE
66
1
8
Sketch
62
0
0
VERTEX
8
Sketch
10
39.4
20
-7
0
VERTEX
8
Sketch
10
39.64
20
-7.48
0
VERTEX
8
Sketch
10
40.84
20
-8.44
0
VERTEX
8
Sketch
10
41.2
20
-8.92
0
VERTEX
8
Sketch
10
41.68
20
-10.24
0
VERTEX
8
Sketch
10
41.68
20
-10.6
0
VERTEX
8
Sketch
10
41.8
20
-11.08
0
VERTEX
8
Sketch
10
41.92
20
-12.04
0
VERTEX
8
Sketch
10
41.92
20
-12.4
0
VERTEX
8
Sketch
10
42.04
20
-12.88
0
VERTEX
8
Sketch
10
42.16
20
-13.6
0
SEQEND
0
POLYLINE
66
1
8
Sketch
62
0
0
VERTEX
8
Sketch
10
36.28
20
-16.48
0
VERTEX
8
Sketch
10
36.4
20
-16.84
0
VERTEX
8
Sketch
10
36.88
20
-16.72
0
VERTEX
8
Sketch
10
38.56
20
-16.72
0
VERTEX
8
Sketch
10
38.8
20
-16.84
0
VERTEX
8
Sketch
10
39.28
20
-16.72
0
VERTEX
8
Sketch
10
39.64
20
-16.72
0
VERTEX
8
Sketch
10
39.88
20
-16.6
0
VERTEX
8
Sketch
10
40.12
20
-16.72
0
VERTEX
8
Sketch
10
40.84
20
-16.48
0
VERTEX
8
Sketch
10
41.32
20
-16.6
0
VERTEX
8
Sketch
10
41.8
20
-16.6
0
VERTEX
8
Sketch
10
42.04
20
-16.48
0
VERTEX
8
Sketch
10
42.28
20
-16.6
0
VERTEX
8
Sketch
10
42.76
20
-16.48
0
VERTEX
8
Sketch
10
43.24
20
-16.48
0
VERTEX
8
Sketch
10
43.72
20
-16.24
0
VERTEX
8
Sketch
10
43.96
20
-16.36
0
SEQEND
0
POLYLINE
66
1
8
Sketch
62
0
0
VERTEX
8
Sketch
10
30.52
20
-15.04
0
VERTEX
8
Sketch
10
30.76
20
-14.8
0
VERTEX
8
Sketch
10
31.24
20
-14.8
0
VERTEX
8
Sketch
10
31.96
20
-15.16
0
VERTEX
8
Sketch
10
32.68
20
-15.16
0
VERTEX
8
Sketch
10
32.92
20
-15.4
0
VERTEX
8
Sketch
10
33.4
20
-15.52
0
VERTEX
8
Sketch
10
34.12
20
-15.76
0
VERTEX
8
Sketch
10
34.6
20
-15.88
0
VERTEX
8
Sketch
10
36.28
20
-16.6
0
VERTEX
8
Sketch
10
36.76
20
-16.6
0
SEQEND
0
POLYLINE
66
1
8
Sketch
62
0
0
VERTEX
8
Sketch
10
37
20
-6.16
0
VERTEX
8
Sketch
10
37.24
20
-6.04
0
VERTEX
8
Sketch
10
37.96
20
-6.28
0
VERTEX
8
Sketch
10
38.44
20
-6.28
0
VERTEX
8
Sketch
10
39.16
20
-6.52
0
VERTEX
8
Sketch
10
39.76
20
-7.24
0
SEQEND
0
POLYLINE
66
1
8
Sketch
62
0
0
VERTEX
8
Sketch
10
34
20
-6.4
0
VERTEX
8
Sketch
10
34.24
20
-6.16
0
VERTEX
8
Sketch
10
35.2
20
-6.16
0
SEQEND
0
POLYLINE
66
1
8
Sketch
62
0
0
VERTEX
8
Sketch
10
31
20
-6.16
0
VERTEX
8
Sketch
10
31.48
20
-6.04
0
VERTEX
8
Sketch
10
31.96
20
-6.28
0
SEQEND
0
POLYLINE
66
1
8
Sketch
62
0
0
VERTEX
8
Sketch
10
23.68
20
-1.72
0
VERTEX
8
Sketch
10
23.92
20
-1.84
0
VERTEX
8
Sketch
10
24.88
20
-1.6
0
VERTEX
8
Sketch
10
25.12
20
-1.24
0
VERTEX
8
Sketch
10
25.6
20
-1.12
0
VERTEX
8
Sketch
10
27.04
20
-0.16
0
VERTEX
8
Sketch
10
27.28
20
-0.16
0
VERTEX
8
Sketch
10
27.76
20
0.2
0
VERTEX
8
Sketch
10
28
20
0.2
0
VERTEX
8
Sketch
10
28.24
20
0.44
0
VERTEX
8
Sketch
10
28.72
20
0.56
0
VERTEX
8
Sketch
10
29.2
20
0.8
0
VERTEX
8
Sketch
10
29.44
20
0.68
0
VERTEX
8
Sketch
10
29.68
20
0.8
0
SEQEND
0
POLYLINE
66
1
8
Sketch
62
0
0
VERTEX
8
Sketch
10
28.72
20
-6.76
0
VERTEX
8
Sketch
10
29.2
20
-6.64
0
VERTEX
8
Sketch
10
29.44
20
-6.4
0
VERTEX
8
Sketch
10
29.68
20
-6.4
0
SEQEND
0
POLYLINE
66
1
8
Sketch
62
0
0
VERTEX
8
Sketch
10
26.68
20
-8.2
0
VERTEX
8
Sketch
10
26.8
20
-8.44
0
VERTEX
8
Sketch
10
26.56
20
-8.32
0
VERTEX
8
Sketch
10
27.04
20
-8.2
0
VERTEX
8
Sketch
10
27.28
20
-7.96
0
VERTEX
8
Sketch
10
27.52
20
-7.96
0
SEQEND
0
POLYLINE
66
1
8
Sketch
62
0
0
VERTEX
8
Sketch
10
24.28
20
-9.04
0
VERTEX
8
Sketch
10
25.24
20
-8.8
0
SEQEND
0
POLYLINE
66
1
8
Sketch
62
0
0
VERTEX
8
Sketch
10
21.52
20
-10.12
0
VERTEX
8
Sketch
10
22
20
-9.88
0
VERTEX
8
Sketch
10
22.12
20
-9.64
0
VERTEX
8
Sketch
10
22.6
20
-9.76
0
SEQEND
0
POLYLINE
66
1
8
Sketch
62
0
0
VERTEX
8
Sketch
10
21.4
20
-10.12
0
VERTEX
8
Sketch
10
21.88
20
-9.76
0
VERTEX
8
Sketch
10
22.12
20
-9.88
0
VERTEX
8
Sketch
10
22.36
20
-9.76
0
SEQEND
0
POLYLINE
66
1
8
Sketch
62
0
0
VERTEX
8
Sketch
10
16.36
20
-12.4
0
VERTEX
8
Sketch
10
16.72
20
-11.92
0
VERTEX
8
Sketch
10
16.96
20
-11.92
0
VERTEX
8
Sketch
10
17.32
20
-11.56
0
VERTEX
8
Sketch
10
17.8
20
-11.56
0
VERTEX
8
Sketch
10
18.52
20
-11.2
0
VERTEX
8
Sketch
10
19
20
-11.08
0
VERTEX
8
Sketch
10
19.96
20
-10.72
0
VERTEX
8
Sketch
10
20.2
20
-10.48
0
SEQEND
0
POLYLINE
66
1
8
Sketch
62
0
0
VERTEX
8
Sketch
10
16.36
20
-12.4
0
VERTEX
8
Sketch
10
17.08
20
-12.16
0
VERTEX
8
Sketch
10
17.8
20
-12.4
0
VERTEX
8
Sketch
10
18.52
20
-12.88
0
VERTEX
8
Sketch
10
19
20
-13
0
VERTEX
8
Sketch
10
19.72
20
-13.24
0
VERTEX
8
Sketch
10
19.96
20
-13.12
0
VERTEX
8
Sketch
10
20.2
20
-13.36
0
VERTEX
8
Sketch
10
20.44
20
-13.24
0
VERTEX
8
Sketch
10
20.92
20
-13.36
0
VERTEX
8
Sketch
10
21.04
20
-13.72
0
VERTEX
8
Sketch
10
21.76
20
-13.72
0
VERTEX
8
Sketch
10
22.48
20
-13.96
0
VERTEX
8
Sketch
10
22.96
20
-14.08
0
VERTEX
8
Sketch
10
23.2
20
-14.32
0
VERTEX
8
Sketch
10
23.68
20
-14.44
0
VERTEX
8
Sketch
10
24.4
20
-14.92
0
VERTEX
8
Sketch
10
24.64
20
-14.92
0
VERTEX
8
Sketch
10
24.88
20
-15.16
0
VERTEX
8
Sketch
10
25.84
20
-15.16
0
VERTEX
8
Sketch
10
26.32
20
-14.8
0
VERTEX
8
Sketch
10
26.56
20
-14.8
0
VERTEX
8
Sketch
10
27.16
20
-14.2
0
VERTEX
8
Sketch
10
28.72
20
-13
0
VERTEX
8
Sketch
10
29.68
20
-12.04
0
VERTEX
8
Sketch
10
30.52
20
-11.32
0
SEQEND
0
POLYLINE
66
1
8
Sketch
62
0
0
VERTEX
8
Sketch
10
12.64
20
-16.6
0
VERTEX
8
Sketch
10
13.84
20
-16.84
0
VERTEX
8
Sketch
10
14.32
20
-16.72
0
VERTEX
8
Sketch
10
15.28
20
-16.84
0
VERTEX
8
Sketch
10
15.76
20
-16.84
0
VERTEX
8
Sketch
10
16.72
20
-16.48
0
VERTEX
8
Sketch
10
16.96
20
-16.6
0
VERTEX
8
Sketch
10
17.44
20
-16.48
0
VERTEX
8
Sketch
10
17.68
20
-16.24
0
VERTEX
8
Sketch
10
18.88
20
-16
0
VERTEX
8
Sketch
10
19.36
20
-16.24
0
VERTEX
8
Sketch
10
19.84
20
-16.12
0
VERTEX
8
Sketch
10
20.56
20
-16.48
0
VERTEX
8
Sketch
10
21.04
20
-16.48
0
VERTEX
8
Sketch
10
21.76
20
-16.72
0
VERTEX
8
Sketch
10
22.48
20
-16.84
0
VERTEX
8
Sketch
10
22.72
20
-17.08
0
VERTEX
8
Sketch
10
23.68
20
-17.32
0
VERTEX
8
Sketch
10
24.16
20
-17.68
0
VERTEX
8
Sketch
10
25.12
20
-17.92
0
VERTEX
8
Sketch
10
25.36
20
-17.8
0
VERTEX
8
Sketch
10
25.6
20
-17.92
0
VERTEX
8
Sketch
10
25.84
20
-17.8
0
VERTEX
8
Sketch
10
26.08
20
-17.92
0
VERTEX
8
Sketch
10
26.32
20
-17.8
0
VERTEX
8
Sketch
10
26.56
20
-17.92
0
VERTEX
8
Sketch
10
26.8
20
-17.68
0
VERTEX
8
Sketch
10
27.04
20
-17.68
0
VERTEX
8
Sketch
10
27.64
20
-17.08
0
VERTEX
8
Sketch
10
28.84
20
-16.24
0
VERTEX
8
Sketch
10
29.2
20
-15.76
0
VERTEX
8
Sketch
10
29.44
20
-15.76
0
VERTEX
8
Sketch
10
30.52
20
-14.8
0
VERTEX
8
Sketch
10
30.76
20
-14.68
0
SEQEND
0
POLYLINE
66
1
8
Sketch
62
0
0
VERTEX
8
Sketch
10
12.4
20
-0.28
0
VERTEX
8
Sketch
10
12.88
20
-0.64
0
VERTEX
8
Sketch
10
13.36
20
-0.76
0
VERTEX
8
Sketch
10
14.56
20
-1.48
0
VERTEX
8
Sketch
10
15.04
20
-1.84
0
VERTEX
8
Sketch
10
15.52
20
-1.96
0
VERTEX
8
Sketch
10
16.24
20
-2.32
0
VERTEX
8
Sketch
10
17.92
20
-2.68
0
VERTEX
8
Sketch
10
18.4
20
-2.56
0
VERTEX
8
Sketch
10
19.36
20
-2.56
0
VERTEX
8
Sketch
10
20.32
20
-2.32
0
VERTEX
8
Sketch
10
21.76
20
-1.96
0
VERTEX
8
Sketch
10
22
20
-2.08
0
VERTEX
8
Sketch
10
22.24
20
-1.96
0
VERTEX
8
Sketch
10
22.48
20
-2.08
0
VERTEX
8
Sketch
10
22.96
20
-1.96
0
VERTEX
8
Sketch
10
23.68
20
-1.96
0
VERTEX
8
Sketch
10
24.16
20
-1.84
0
VERTEX
8
Sketch
10
24.64
20
-1.84
0
SEQEND
0
POLYLINE
66
1
8
Sketch
62
0
0
VERTEX
8
Sketch
10
10.72
20
0.2
0
VERTEX
8
Sketch
10
11.2
20
0.2
0
VERTEX
8
Sketch
10
12.16
20
-0.04
0
VERTEX
8
Sketch
10
12.4
20
-0.28
0
VERTEX
8
Sketch
10
12.64
20
-0.28
0
VERTEX
8
Sketch
10
12.76
20
-0.64
0
SEQEND
0
POLYLINE
66
1
8
Sketch
62
0
0
VERTEX
8
Sketch
10
0.52
20
1.4
0
VERTEX
8
Sketch
10
0.88
20
1.04
0
VERTEX
8
Sketch
10
1.6
20
0.56
0
VERTEX
8
Sketch
10
1.96
20
0.2
0
VERTEX
8
Sketch
10
2.92
20
-0.28
0
VERTEX
8
Sketch
10
3.16
20
-0.28
0
VERTEX
8
Sketch
10
3.64
20
-0.64
0
VERTEX
8
Sketch
10
4.12
20
-0.64
0
VERTEX
8
Sketch
10
4.6
20
-0.52
0
VERTEX
8
Sketch
10
4.84
20
-0.64
0
VERTEX
8
Sketch
10
5.08
20
-0.52
0
VERTEX
8
Sketch
10
5.56
20
-0.64
0
VERTEX
8
Sketch
10
6.52
20
-0.28
0
VERTEX
8
Sketch
10
8.2
20
-0.04
0
VERTEX
8
Sketch
10
8.68
20
-0.04
0
VERTEX
8
Sketch
10
9.64
20
0.2
0
VERTEX
8
Sketch
10
10.12
20
0.2
0
VERTEX
8
Sketch
10
10.36
20
0.32
0
VERTEX
8
Sketch
10
10.84
20
-0.04
0
VERTEX
8
Sketch
10
11.08
20
0.08
0
SEQEND
0
POLYLINE
66
1
8
Sketch
62
0
0
VERTEX
8
Sketch
10
9.88
20
-15.64
0
VERTEX
8
Sketch
10
10.24
20
-16.12
0
VERTEX
8
Sketch
10
10.72
20
-16
0
VERTEX
8
Sketch
10
11.2
20
-15.76
0
VERTEX
8
Sketch
10
12.04
20
-14.44
0
VERTEX
8
Sketch
10
12.16
20
-15.04
0
VERTEX
8
Sketch
10
12.28
20
-15.52
0
VERTEX
8
Sketch
10
12.64
20
-16.72
0
SEQEND
0
POLYLINE
66
1
8
Sketch
62
0
0
VERTEX
8
Sketch
10
8.56
20
-3.52
0
VERTEX
8
Sketch
10
8.44
20
-4
0
VERTEX
8
Sketch
10
8.44
20
-4.72
0
VERTEX
8
Sketch
10
8.56
20
-5.2
0
VERTEX
8
Sketch
10
8.8
20
-6.4
0
VERTEX
8
Sketch
10
8.8
20
-6.76
0
VERTEX
8
Sketch
10
8.92
20
-7.24
0
VERTEX
8
Sketch
10
8.92
20
-8.2
0
VERTEX
8
Sketch
10
8.8
20
-8.68
0
VERTEX
8
Sketch
10
8.8
20
-10
0
VERTEX
8
Sketch
10
8.92
20
-10.6
0
VERTEX
8
Sketch
10
8.92
20
-11.08
0
VERTEX
8
Sketch
10
9.16
20
-12.04
0
VERTEX
8
Sketch
10
9.16
20
-13.36
0
VERTEX
8
Sketch
10
9.52
20
-14.32
0
VERTEX
8
Sketch
10
9.88
20
-14.8
0
VERTEX
8
Sketch
10
9.88
20
-15.16
0
VERTEX
8
Sketch
10
10
20
-15.4
0
VERTEX
8
Sketch
10
9.88
20
-15.64
0
VERTEX
8
Sketch
10
10
20
-15.88
0
SEQEND
0
POINT
8
Sketch
62
0
10
8.32
20
-3.64
0
POLYLINE
66
1
8
Sketch
62
0
0
VERTEX
8
Sketch
10
-0.68
20
-2.08
0
VERTEX
8
Sketch
10
0.04
20
-2.8
0
VERTEX
8
Sketch
10
0.64
20
-3.4
0
VERTEX
8
Sketch
10
0.88
20
-3.4
0
VERTEX
8
Sketch
10
1.6
20
-4.48
0
VERTEX
8
Sketch
10
2.2
20
-5.08
0
VERTEX
8
Sketch
10
2.44
20
-5.08
0
VERTEX
8
Sketch
10
3.16
20
-5.56
0
VERTEX
8
Sketch
10
3.4
20
-5.56
0
VERTEX
8
Sketch
10
3.64
20
-5.8
0
VERTEX
8
Sketch
10
4.6
20
-5.68
0
VERTEX
8
Sketch
10
5.08
20
-5.68
0
VERTEX
8
Sketch
10
5.8
20
-5.44
0
VERTEX
8
Sketch
10
6.04
20
-5.2
0
VERTEX
8
Sketch
10
6.28
20
-5.2
0
VERTEX
8
Sketch
10
7
20
-4.6
0
VERTEX
8
Sketch
10
7.72
20
-4.12
0
VERTEX
8
Sketch
10
8.08
20
-3.76
0
VERTEX
8
Sketch
10
8.56
20
-3.64
0
VERTEX
8
Sketch
10
8.68
20
-3.88
0
SEQEND
0
POLYLINE
66
1
8
Sketch
62
0
0
VERTEX
8
Sketch
10
-0.92
20
-1.6
0
VERTEX
8
Sketch
10
-0.8
20
-2.08
0
SEQEND
0
LINE
8
Shots
62
1
10
45.88
20
-15.336
11
46.618
21
-28.956
0
CIRCLE
8
Shots
62
1
10
46.618
20
-28.956
40
0.1
0
LINE
8
Shots
62
1
10
43.28
20
-9.884
11
45.88
21
-15.336
0
CIRCLE
8
Shots
62
1
10
45.88
20
-15.336
40
0.1
0
LINE
8
Shots
62
1
10
40.834
20
-2.266
11
43.28
21
-9.884
0
CIRCLE
8
Shots
62
1
10
43.28
20
-9.884
40
0.1
0
LINE
8
Shots
62
1
10
40.834
20
-2.266
11
40.834
21
-2.266
0
CIRCLE
8
Shots
62
1
10
40.834
20
-2.266
40
0.1
0
LINE
8
Shots
62
1
10
76.126
20
-2.442
11
78.976
21
-3.242
0
CIRCLE
8
Shots
62
1
10
78.976
20
-3.242
40
0.1
0
LINE
8
Shots
62
1
10
69.35
20
0.82
11
76.126
21
-2.442
0
CIRCLE
8
Shots
62
1
10
76.126
20
-2.442
40
0.1
0
LINE
8
Shots
62
1
10
59.336
20
2.532
11
69.35
21
0.82
0
CIRCLE
8
Shots
62
1
10
69.35
20
0.82
40
0.1
0
LINE
8
Shots
62
1
10
52.66
20
2.788
11
59.336
21
2.532
0
CIRCLE
8
Shots
62
1
10
59.336
20
2.532
40
0.1
0
LINE
8
Shots
62
1
10
48.606
20
0.532
11
52.66
21
2.788
0
CIRCLE
8
Shots
62
1
10
52.66
20
2.788
40
0.1
0
LINE
8
Shots
62
1
10
40.834
20
-2.266
11
48.606
21
0.532
0
CIRCLE
8
Shots
62
1
10
48.606
20
0.532
40
0.1
0
LINE
8
Shots
62
1
10
35.796
20
-2.16
11
40.834
21
-2.266
0
CIRCLE
8
Shots
62
1
10
40.834
20
-2.266
40
0.1
0
LINE
8
Shots
62
1
10
28.224
20
-3.022
11
35.796
21
-2.16
0
CIRCLE
8
Shots
62
1
10
35.796
20
-2.16
40
0.1
0
LINE
8
Shots
62
1
10
25.31
20
-5.702
11
28.224
21
-3.022
0
CIRCLE
8
Shots
62
1
10
28.224
20
-3.022
40
0.1
0
LINE
8
Shots
62
1
10
20.642
20
-6.524
11
25.31
21
-5.702
0
CIRCLE
8
Shots
62
1
10
25.31
20
-5.702
40
0.1
0
LINE
8
Shots
62
1
10
12.25
20
-14
11
20.642
21
-6.524
0
CIRCLE
8
Shots
62
1
10
20.642
20
-6.524
40
0.1
0
LINE
8
Shots
62
1
10
12.25
20
-14
11
12.25
21
-14
0
CIRCLE
8
Shots
62
1
10
12.25
20
-14
40
0.1
0
LINE
8
Shots
62
1
10
66.554
20
-14.762
11
68.996
21
-19.262
0
CIRCLE
8
Shots
62
1
10
68.996
20
-19.262
40
0.1
0
LINE
8
Shots
62
1
10
61.728
20
-15.902
11
66.554
21
-14.762
0
CIRCLE
8
Shots
62
1
10
66.554
20
-14.762
40
0.1
0
LINE
8
Shots
62
1
10
58.692
20
-18.918
11
61.728
21
-15.902
0
CIRCLE
8
Shots
62
1
10
61.728
20
-15.902
40
0.1
0
LINE
8
Shots
62
1
10
54.062
20
-17.582
11
58.692
21
-18.918
0
CIRCLE
8
Shots
62
1
10
58.692
20
-18.918
40
0.1
0
LINE
8
Shots
62
1
10
50.198
20
-15.838
11
54.062
21
-17.582
0
CIRCLE
8
Shots
62
1
10
54.062
20
-17.582
40
0.1
0
LINE
8
Shots
62
1
10
42.424
20
-14.552
11
50.198
21
-15.838
0
CIRCLE
8
Shots
62
1
10
50.198
20
-15.838
40
0.1
0
LINE
8
Shots
62
1
10
37.788
20
-15.196
11
42.424
21
-14.552
0
CIRCLE
8
Shots
62
1
10
42.424
20
-14.552
40
0.1
0
LINE
8
Shots
62
1
10
30.818
20
-12.266
11
37.788
21
-15.196
0
CIRCLE
8
Shots
62
1
10
37.788
20
-15.196
40
0.1
0
LINE
8
Shots
62
1
10
26.152
20
-16.618
11
30.818
21
-12.266
0
CIRCLE
8
Shots
62
1
10
30.818
20
-12.266
40
0.1
0
LINE
8
Shots
62
1
10
20.812
20
-14.568
11
26.152
21
-16.618
0
CIRCLE
8
Shots
62
1
10
26.152
20
-16.618
40
0.1
0
LINE
8
Shots
62
1
10
12.25
20
-14
11
20.812
21
-14.568
0
CIRCLE
8
Shots
62
1
10
20.812
20
-14.568
40
0.1
0
LINE
8
Shots
62
1
10
10.586
20
-1.188
11
12.25
21
-14
0
CIRCLE
8
Shots
62
1
10
12.25
20
-14
40
0.1
0
LINE
8
Shots
62
1
10
4.294
20
-4.162
11
10.586
21
-1.188
0
CIRCLE
8
Shots
62
1
10
10.586
20
-1.188
40
0.1
0
LINE
8
Shots
62
1
10
0
20
0
11
4.294
21
-4.162
0
CIRCLE
8
Shots
62
1
10
4.294
20
-4.162
40
0.1
0
ENDSEC
0
EOF
