0
SECTION
2
HEADER
9
$ACADVER
1
AC1002
9
$INSUNITS
70
4
0
ENDSEC
0
SECTION
2
TABLES
0
TABLE
2
LTYPE
70
1
0
LTYPE
2
DASH
70
0
3
---
72
65
73
2
40
0,6
49
0,3
49
-0,3
0
ENDTAB
0
ENDSEC
0
SECTION
2
ENTITIES
0
POLYLINE
66
1
8
Sketch
62
0
0
VERTEX
8
Sketch
10
3.39
20
-0.94
0
VERTEX
8
Sketch
10
3.39
20
-1.1
0
VERTEX
8
Sketch
10
3.71
20
-1.34
0
VERTEX
8
Sketch
10
4.03
20
-1.34
0
VERTEX
8
Sketch
10
4.43
20
-1.74
0
SEQEND
0
POLYLINE
66
1
8
Sketch
62
0
0
VERTEX
8
Sketch
10
3.79
20
-1.18
0
VERTEX
8
Sketch
10
4.11
20
-1.34
0
VERTEX
8
Sketch
10
4.43
20
-1.82
0
SEQEND
0
POLYLINE
66
1
8
Sketch
62
0
0
VERTEX
8
Sketch
10
4.03
20
0.34
0
VERTEX
8
Sketch
10
4.19
20
0.18
0
VERTEX
8
Sketch
10
4.35
20
0.18
0
VERTEX
8
Sketch
10
4.83
20
-0.14
0
SEQEND
0
POLYLINE
66
1
8
Sketch
62
0
0
VERTEX
8
Sketch
10
2.43
20
-0.94
0
VERTEX
8
Sketch
10
3.23
20
-0.94
0
VERTEX
8
Sketch
10
3.71
20
-1.1
0
VERTEX
8
Sketch
10
3.87
20
-1.26
0
VERTEX
8
Sketch
10
4.03
20
-1.26
0
VERTEX
8
Sketch
10
4.27
20
-1.5
0
SEQEND
0
POLYLINE
66
1
8
Sketch
62
0
0
VERTEX
8
Sketch
10
1.95
20
0.66
0
VERTEX
8
Sketch
10
2.11
20
0.58
0
VERTEX
8
Sketch
10
2.27
20
0.66
0
VERTEX
8
Sketch
10
2.43
20
0.58
0
VERTEX
8
Sketch
10
2.59
20
0.66
0
VERTEX
8
Sketch
10
3.23
20
0.5
0
VERTEX
8
Sketch
10
3.87
20
0.42
0
VERTEX
8
Sketch
10
4.03
20
0.26
0
VERTEX
8
Sketch
10
4.35
20
0.18
0
VERTEX
8
Sketch
10
4.51
20
0.1
0
SEQEND
0
POLYLINE
66
1
8
Sketch
62
0
0
VERTEX
8
Sketch
10
-0.45
20
1.14
0
VERTEX
8
Sketch
10
-0.61
20
1.14
0
VERTEX
8
Sketch
10
-0.69
20
1.46
0
VERTEX
8
Sketch
10
-0.69
20
1.7
0
VERTEX
8
Sketch
10
-0.85
20
2.42
0
SEQEND
0
POLYLINE
66
1
8
Sketch
62
0
0
VERTEX
8
Sketch
10
-2.69
20
-1.18
0
VERTEX
8
Sketch
10
-2.53
20
-1.26
0
VERTEX
8
Sketch
10
-2.13
20
-0.7
0
VERTEX
8
Sketch
10
-2.05
20
0.02
0
VERTEX
8
Sketch
10
-1.73
20
0.98
0
VERTEX
8
Sketch
10
-1.73
20
2.26
0
VERTEX
8
Sketch
10
-1.81
20
2.42
0
SEQEND
0
POLYLINE
66
1
8
Sketch
62
0
0
VERTEX
8
Sketch
10
-0.37
20
-0.86
0
VERTEX
8
Sketch
10
-0.85
20
-0.78
0
VERTEX
8
Sketch
10
-1.09
20
-1.02
0
VERTEX
8
Sketch
10
-1.65
20
-2.22
0
SEQEND
0
POLYLINE
66
1
8
Sketch
62
0
0
VERTEX
8
Sketch
10
-0.53
20
-0.86
0
VERTEX
8
Sketch
10
-0.37
20
-1.02
0
VERTEX
8
Sketch
10
-0.05
20
-0.94
0
VERTEX
8
Sketch
10
0.27
20
-1.02
0
VERTEX
8
Sketch
10
0.59
20
-1.02
0
VERTEX
8
Sketch
10
0.75
20
-1.1
0
VERTEX
8
Sketch
10
0.91
20
-1.02
0
VERTEX
8
Sketch
10
1.23
20
-1.1
0
VERTEX
8
Sketch
10
1.55
20
-1.02
0
VERTEX
8
Sketch
10
2.35
20
-1.02
0
VERTEX
8
Sketch
10
2.51
20
-0.94
0
VERTEX
8
Sketch
10
2.75
20
-1.02
0
VERTEX
8
Sketch
10
2.91
20
-0.94
0
VERTEX
8
Sketch
10
3.07
20
-1.02
0
SEQEND
0
POLYLINE
66
1
8
Sketch
62
0
0
VERTEX
8
Sketch
10
-0.61
20
1.22
0
VERTEX
8
Sketch
10
-0.45
20
1.06
0
VERTEX
8
Sketch
10
-0.13
20
1.06
0
VERTEX
8
Sketch
10
0.19
20
0.98
0
VERTEX
8
Sketch
10
0.35
20
0.82
0
VERTEX
8
Sketch
10
0.67
20
0.74
0
VERTEX
8
Sketch
10
0.99
20
0.66
0
VERTEX
8
Sketch
10
1.31
20
0.58
0
VERTEX
8
Sketch
10
1.63
20
0.66
0
VERTEX
8
Sketch
10
2.27
20
0.58
0
VERTEX
8
Sketch
10
2.43
20
0.58
0
SEQEND
0
POLYLINE
66
1
8
Sketch
62
0
0
VERTEX
8
Sketch
10
22.07
20
-12.74
0
VERTEX
8
Sketch
10
21.95
20
-13.34
0
VERTEX
8
Sketch
10
22.19
20
-12.68
0
VERTEX
8
Sketch
10
22.43
20
-12.62
0
VERTEX
8
Sketch
10
22.49
20
-12.74
0
VERTEX
8
Sketch
10
22.25
20
-13.1
0
VERTEX
8
Sketch
10
22.01
20
-13.22
0
VERTEX
8
Sketch
10
22.13
20
-13.22
0
VERTEX
8
Sketch
10
22.37
20
-13.64
0
VERTEX
8
Sketch
10
22.49
20
-13.7
0
SEQEND
0
POLYLINE
66
1
8
Sketch
62
0
0
VERTEX
8
Sketch
10
21.11
20
-13.4
0
VERTEX
8
Sketch
10
21.23
20
-13.46
0
VERTEX
8
Sketch
10
21.35
20
-13.4
0
VERTEX
8
Sketch
10
21.53
20
-13.46
0
VERTEX
8
Sketch
10
21.65
20
-13.34
0
VERTEX
8
Sketch
10
21.77
20
-13.4
0
SEQEND
0
POLYLINE
66
1
8
Sketch
62
0
0
VERTEX
8
Sketch
10
21.29
20
-12.92
0
VERTEX
8
Sketch
10
21.23
20
-12.8
0
VERTEX
8
Sketch
10
21.41
20
-12.8
0
VERTEX
8
Sketch
10
21.59
20
-12.98
0
SEQEND
0
POLYLINE
66
1
8
Sketch
62
0
0
VERTEX
8
Sketch
10
21.41
20
-12.68
0
VERTEX
8
Sketch
10
21.23
20
-12.86
0
VERTEX
8
Sketch
10
21.23
20
-13.04
0
VERTEX
8
Sketch
10
21.17
20
-13.28
0
VERTEX
8
Sketch
10
21.41
20
-12.62
0
VERTEX
8
Sketch
10
21.53
20
-12.5
0
VERTEX
8
Sketch
10
21.89
20
-12.56
0
SEQEND
0
POLYLINE
66
1
8
Sketch
62
0
0
VERTEX
8
Sketch
10
20.57
20
-12.5
0
VERTEX
8
Sketch
10
20.69
20
-12.44
0
VERTEX
8
Sketch
10
20.93
20
-12.5
0
VERTEX
8
Sketch
10
21.05
20
-12.68
0
VERTEX
8
Sketch
10
21.05
20
-12.98
0
VERTEX
8
Sketch
10
20.81
20
-13.16
0
VERTEX
8
Sketch
10
20.51
20
-13.28
0
SEQEND
0
POLYLINE
66
1
8
Sketch
62
0
0
VERTEX
8
Sketch
10
20.45
20
-12.44
0
VERTEX
8
Sketch
10
20.51
20
-12.62
0
VERTEX
8
Sketch
10
20.51
20
-12.5
0
VERTEX
8
Sketch
10
20.45
20
-12.74
0
VERTEX
8
Sketch
10
20.33
20
-13.28
0
SEQEND
0
POINT
8
Sketch
62
0
10
20.57
20
-12.44
0
POLYLINE
66
1
8
Sketch
62
0
0
VERTEX
8
Sketch
10
19.61
20
-12.62
0
VERTEX
8
Sketch
10
19.61
20
-12.44
0
VERTEX
8
Sketch
10
19.49
20
-12.98
0
VERTEX
8
Sketch
10
19.49
20
-13.1
0
VERTEX
8
Sketch
10
19.61
20
-12.86
0
VERTEX
8
Sketch
10
19.61
20
-12.5
0
VERTEX
8
Sketch
10
19.67
20
-12.38
0
VERTEX
8
Sketch
10
19.73
20
-12.68
0
VERTEX
8
Sketch
10
19.85
20
-13.04
0
VERTEX
8
Sketch
10
20.09
20
-13.22
0
VERTEX
8
Sketch
10
20.15
20
-12.98
0
VERTEX
8
Sketch
10
20.21
20
-12.56
0
VERTEX
8
Sketch
10
20.21
20
-12.38
0
SEQEND
0
POLYLINE
66
1
8
Sketch
62
0
0
VERTEX
8
Sketch
10
18.77
20
-12.92
0
VERTEX
8
Sketch
10
18.77
20
-12.8
0
VERTEX
8
Sketch
10
19.37
20
-12.8
0
SEQEND
0
POLYLINE
66
1
8
Sketch
62
0
0
VERTEX
8
Sketch
10
19.01
20
-12.5
0
VERTEX
8
Sketch
10
18.83
20
-12.8
0
VERTEX
8
Sketch
10
18.77
20
-13.04
0
VERTEX
8
Sketch
10
18.65
20
-13.16
0
VERTEX
8
Sketch
10
18.89
20
-12.74
0
VERTEX
8
Sketch
10
18.89
20
-12.32
0
VERTEX
8
Sketch
10
19.13
20
-12.26
0
VERTEX
8
Sketch
10
19.31
20
-12.56
0
VERTEX
8
Sketch
10
19.31
20
-13.1
0
VERTEX
8
Sketch
10
19.25
20
-13.22
0
SEQEND
0
POLYLINE
66
1
8
Sketch
62
0
0
VERTEX
8
Sketch
10
17.99
20
-13.28
0
VERTEX
8
Sketch
10
18.11
20
-13.22
0
VERTEX
8
Sketch
10
18.29
20
-13.34
0
VERTEX
8
Sketch
10
18.41
20
-13.22
0
SEQEND
0
POLYLINE
66
1
8
Sketch
62
0
0
VERTEX
8
Sketch
10
18.17
20
-12.8
0
VERTEX
8
Sketch
10
18.41
20
-12.92
0
SEQEND
0
POLYLINE
66
1
8
Sketch
62
0
0
VERTEX
8
Sketch
10
17.93
20
-12.8
0
VERTEX
8
Sketch
10
17.93
20
-12.68
0
VERTEX
8
Sketch
10
17.99
20
-12.8
0
VERTEX
8
Sketch
10
17.93
20
-13.22
0
VERTEX
8
Sketch
10
18.11
20
-12.44
0
VERTEX
8
Sketch
10
18.35
20
-12.26
0
VERTEX
8
Sketch
10
18.65
20
-12.38
0
SEQEND
0
POLYLINE
66
1
8
Sketch
62
0
0
VERTEX
8
Sketch
10
17.09
20
-12.5
0
VERTEX
8
Sketch
10
17.09
20
-12.44
0
VERTEX
8
Sketch
10
17.15
20
-12.74
0
VERTEX
8
Sketch
10
17.27
20
-12.86
0
VERTEX
8
Sketch
10
17.51
20
-12.68
0
VERTEX
8
Sketch
10
17.63
20
-12.38
0
VERTEX
8
Sketch
10
17.63
20
-12.56
0
VERTEX
8
Sketch
10
17.51
20
-12.86
0
VERTEX
8
Sketch
10
17.45
20
-13.34
0
VERTEX
8
Sketch
10
17.57
20
-13.34
0
SEQEND
0
POLYLINE
66
1
8
Sketch
62
0
0
VERTEX
8
Sketch
10
17.15
20
-12.44
0
VERTEX
8
Sketch
10
17.09
20
-12.26
0
VERTEX
8
Sketch
10
17.09
20
-12.68
0
VERTEX
8
Sketch
10
16.91
20
-13.4
0
SEQEND
0
POLYLINE
66
1
8
Sketch
62
0
0
VERTEX
8
Sketch
10
21.17
20
-11.12
0
VERTEX
8
Sketch
10
21.59
20
-10.46
0
VERTEX
8
Sketch
10
21.53
20
-10.7
0
VERTEX
8
Sketch
10
21.35
20
-11.06
0
SEQEND
0
POLYLINE
66
1
8
Sketch
62
0
0
VERTEX
8
Sketch
10
21.17
20
-11.12
0
VERTEX
8
Sketch
10
21.35
20
-10.82
0
VERTEX
8
Sketch
10
21.47
20
-10.76
0
SEQEND
0
POLYLINE
66
1
8
Sketch
62
0
0
VERTEX
8
Sketch
10
21.23
20
-11.12
0
VERTEX
8
Sketch
10
21.23
20
-11.3
0
VERTEX
8
Sketch
10
20.99
20
-12.02
0
SEQEND
0
POLYLINE
66
1
8
Sketch
62
0
0
VERTEX
8
Sketch
10
21.11
20
-10.58
0
VERTEX
8
Sketch
10
20.99
20
-10.64
0
VERTEX
8
Sketch
10
20.93
20
-10.82
0
VERTEX
8
Sketch
10
20.99
20
-11.06
0
VERTEX
8
Sketch
10
21.23
20
-11.18
0
VERTEX
8
Sketch
10
21.59
20
-10.88
0
SEQEND
0
POLYLINE
66
1
8
Sketch
62
0
0
VERTEX
8
Sketch
10
20.75
20
-10.7
0
VERTEX
8
Sketch
10
20.57
20
-10.94
0
VERTEX
8
Sketch
10
20.45
20
-11.6
0
VERTEX
8
Sketch
10
20.45
20
-11.72
0
VERTEX
8
Sketch
10
20.57
20
-11.66
0
SEQEND
0
POLYLINE
66
1
8
Sketch
62
0
0
VERTEX
8
Sketch
10
20.03
20
-11.24
0
VERTEX
8
Sketch
10
20.33
20
-11.18
0
VERTEX
8
Sketch
10
20.45
20
-11.24
0
VERTEX
8
Sketch
10
20.57
20
-11.18
0
SEQEND
0
POLYLINE
66
1
8
Sketch
62
0
0
VERTEX
8
Sketch
10
20.15
20
-10.52
0
VERTEX
8
Sketch
10
19.91
20
-11.42
0
VERTEX
8
Sketch
10
19.91
20
-11.54
0
SEQEND
0
POLYLINE
66
1
8
Sketch
62
0
0
VERTEX
8
Sketch
10
19.49
20
-10.7
0
VERTEX
8
Sketch
10
19.43
20
-10.58
0
VERTEX
8
Sketch
10
19.19
20
-10.64
0
VERTEX
8
Sketch
10
19.07
20
-10.76
0
VERTEX
8
Sketch
10
19.01
20
-11.06
0
VERTEX
8
Sketch
10
18.95
20
-11.36
0
VERTEX
8
Sketch
10
19.01
20
-11.6
0
VERTEX
8
Sketch
10
19.25
20
-11.6
0
VERTEX
8
Sketch
10
19.37
20
-11.66
0
VERTEX
8
Sketch
10
19.61
20
-11.54
0
VERTEX
8
Sketch
10
19.73
20
-11.36
0
SEQEND
0
POLYLINE
66
1
8
Sketch
62
0
0
VERTEX
8
Sketch
10
18.53
20
-10.7
0
VERTEX
8
Sketch
10
18.53
20
-10.7
0
VERTEX
8
Sketch
10
18.47
20
-11.24
0
VERTEX
8
Sketch
10
18.41
20
-11.48
0
VERTEX
8
Sketch
10
18.41
20
-11.6
0
SEQEND
0
POLYLINE
66
1
8
Sketch
62
0
0
VERTEX
8
Sketch
10
17.51
20
-10.7
0
VERTEX
8
Sketch
10
17.63
20
-10.7
0
VERTEX
8
Sketch
10
17.69
20
-10.58
0
VERTEX
8
Sketch
10
17.57
20
-10.58
0
VERTEX
8
Sketch
10
17.39
20
-10.82
0
VERTEX
8
Sketch
10
17.33
20
-11.24
0
VERTEX
8
Sketch
10
17.39
20
-11.48
0
VERTEX
8
Sketch
10
17.57
20
-11.66
0
VERTEX
8
Sketch
10
17.81
20
-11.6
0
VERTEX
8
Sketch
10
17.93
20
-11.66
0
VERTEX
8
Sketch
10
18.23
20
-11.3
0
SEQEND
0
POINT
8
Sketch
62
0
10
17.51
20
-10.7
0
POLYLINE
66
1
8
Sketch
62
0
0
VERTEX
8
Sketch
10
12.49
20
-10.58
0
VERTEX
8
Sketch
10
12.41
20
-11.3
0
VERTEX
8
Sketch
10
12.57
20
-11.94
0
VERTEX
8
Sketch
10
13.21
20
-13.86
0
VERTEX
8
Sketch
10
13.37
20
-14.58
0
VERTEX
8
Sketch
10
13.69
20
-15.7
0
VERTEX
8
Sketch
10
13.69
20
-15.94
0
VERTEX
8
Sketch
10
13.85
20
-16.42
0
VERTEX
8
Sketch
10
13.85
20
-17.14
0
VERTEX
8
Sketch
10
13.77
20
-17.46
0
VERTEX
8
Sketch
10
13.69
20
-17.78
0
VERTEX
8
Sketch
10
13.45
20
-18.34
0
VERTEX
8
Sketch
10
13.29
20
-18.34
0
VERTEX
8
Sketch
10
13.13
20
-18.5
0
VERTEX
8
Sketch
10
12.65
20
-18.34
0
VERTEX
8
Sketch
10
12.41
20
-18.1
0
VERTEX
8
Sketch
10
11.85
20
-17.78
0
VERTEX
8
Sketch
10
11.61
20
-17.54
0
VERTEX
8
Sketch
10
11.45
20
-17.54
0
VERTEX
8
Sketch
10
11.21
20
-17.22
0
VERTEX
8
Sketch
10
10.89
20
-17.14
0
VERTEX
8
Sketch
10
9.93
20
-16.58
0
VERTEX
8
Sketch
10
9.69
20
-16.34
0
VERTEX
8
Sketch
10
9.53
20
-16.34
0
VERTEX
8
Sketch
10
9.13
20
-15.86
0
VERTEX
8
Sketch
10
8.97
20
-15.94
0
VERTEX
8
Sketch
10
8.65
20
-15.7
0
VERTEX
8
Sketch
10
8.49
20
-15.7
0
VERTEX
8
Sketch
10
8.09
20
-15.3
0
VERTEX
8
Sketch
10
7.93
20
-15.3
0
VERTEX
8
Sketch
10
7.77
20
-15.14
0
VERTEX
8
Sketch
10
7.29
20
-15.14
0
VERTEX
8
Sketch
10
7.13
20
-15.06
0
VERTEX
8
Sketch
10
6.97
20
-15.14
0
VERTEX
8
Sketch
10
6.81
20
-15.06
0
VERTEX
8
Sketch
10
6.65
20
-15.22
0
SEQEND
0
POLYLINE
66
1
8
Sketch
62
0
0
VERTEX
8
Sketch
10
12.09
20
-10.82
0
VERTEX
8
Sketch
10
11.93
20
-10.98
0
VERTEX
8
Sketch
10
11.93
20
-11.54
0
VERTEX
8
Sketch
10
12.17
20
-12.02
0
VERTEX
8
Sketch
10
12.33
20
-12.02
0
VERTEX
8
Sketch
10
12.33
20
-12.18
0
VERTEX
8
Sketch
10
12.49
20
-12.34
0
VERTEX
8
Sketch
10
12.65
20
-13.22
0
VERTEX
8
Sketch
10
12.73
20
-13.94
0
VERTEX
8
Sketch
10
12.81
20
-14.26
0
VERTEX
8
Sketch
10
12.81
20
-14.58
0
VERTEX
8
Sketch
10
13.05
20
-15.78
0
VERTEX
8
Sketch
10
13.05
20
-16.1
0
VERTEX
8
Sketch
10
13.13
20
-16.42
0
VERTEX
8
Sketch
10
13.05
20
-17.14
0
VERTEX
8
Sketch
10
12.97
20
-17.3
0
VERTEX
8
Sketch
10
12.33
20
-17.14
0
VERTEX
8
Sketch
10
11.69
20
-16.58
0
VERTEX
8
Sketch
10
11.69
20
-16.42
0
VERTEX
8
Sketch
10
11.37
20
-16.18
0
VERTEX
8
Sketch
10
11.21
20
-16.18
0
VERTEX
8
Sketch
10
11.21
20
-16.02
0
VERTEX
8
Sketch
10
11.05
20
-15.86
0
VERTEX
8
Sketch
10
10.73
20
-15.78
0
VERTEX
8
Sketch
10
10.41
20
-15.54
0
VERTEX
8
Sketch
10
10.25
20
-15.62
0
VERTEX
8
Sketch
10
9.77
20
-15.3
0
VERTEX
8
Sketch
10
9.45
20
-15.22
0
VERTEX
8
Sketch
10
9.05
20
-14.82
0
VERTEX
8
Sketch
10
8.73
20
-14.74
0
VERTEX
8
Sketch
10
8.09
20
-14.5
0
VERTEX
8
Sketch
10
7.93
20
-14.58
0
VERTEX
8
Sketch
10
7.61
20
-14.5
0
VERTEX
8
Sketch
10
7.45
20
-14.58
0
VERTEX
8
Sketch
10
7.13
20
-14.42
0
VERTEX
8
Sketch
10
6.65
20
-14.58
0
SEQEND
0
POLYLINE
66
1
8
Sketch
62
0
0
VERTEX
8
Sketch
10
3.53
20
-16.58
0
VERTEX
8
Sketch
10
1.93
20
-17.62
0
VERTEX
8
Sketch
10
1.61
20
-17.62
0
VERTEX
8
Sketch
10
1.45
20
-17.78
0
VERTEX
8
Sketch
10
1.29
20
-17.78
0
VERTEX
8
Sketch
10
1.13
20
-17.94
0
VERTEX
8
Sketch
10
0.97
20
-17.86
0
VERTEX
8
Sketch
10
0.01
20
-18.58
0
VERTEX
8
Sketch
10
-0.23
20
-18.66
0
VERTEX
8
Sketch
10
-0.39
20
-18.98
0
VERTEX
8
Sketch
10
-1.19
20
-19.54
0
VERTEX
8
Sketch
10
-1.99
20
-20.1
0
VERTEX
8
Sketch
10
-2.47
20
-20.5
0
VERTEX
8
Sketch
10
-3.35
20
-21.3
0
VERTEX
8
Sketch
10
-3.83
20
-21.7
0
VERTEX
8
Sketch
10
-4.07
20
-21.7
0
VERTEX
8
Sketch
10
-4.79
20
-22.42
0
VERTEX
8
Sketch
10
-5.75
20
-23.3
0
VERTEX
8
Sketch
10
-5.91
20
-23.3
0
VERTEX
8
Sketch
10
-6.71
20
-23.94
0
VERTEX
8
Sketch
10
-7.03
20
-24.02
0
VERTEX
8
Sketch
10
-7.83
20
-24.66
0
SEQEND
0
POLYLINE
66
1
8
Sketch
62
0
0
VERTEX
8
Sketch
10
-8.15
20
-23.86
0
VERTEX
8
Sketch
10
-8.31
20
-23.86
0
VERTEX
8
Sketch
10
-7.51
20
-23.14
0
VERTEX
8
Sketch
10
-7.03
20
-22.82
0
VERTEX
8
Sketch
10
-6.63
20
-22.5
0
VERTEX
8
Sketch
10
-6.31
20
-22.42
0
VERTEX
8
Sketch
10
-6.07
20
-22.18
0
VERTEX
8
Sketch
10
-5.59
20
-21.7
0
VERTEX
8
Sketch
10
-5.43
20
-21.7
0
VERTEX
8
Sketch
10
-4.87
20
-21.14
0
VERTEX
8
Sketch
10
-4.07
20
-20.5
0
VERTEX
8
Sketch
10
-3.91
20
-20.5
0
VERTEX
8
Sketch
10
-3.67
20
-20.26
0
VERTEX
8
Sketch
10
-2.87
20
-19.78
0
VERTEX
8
Sketch
10
-2.31
20
-19.22
0
VERTEX
8
Sketch
10
-2.15
20
-19.22
0
VERTEX
8
Sketch
10
-1.43
20
-18.66
0
VERTEX
8
Sketch
10
-1.27
20
-18.66
0
VERTEX
8
Sketch
10
-0.87
20
-18.18
0
VERTEX
8
Sketch
10
-0.71
20
-18.18
0
VERTEX
8
Sketch
10
0.09
20
-17.62
0
VERTEX
8
Sketch
10
0.89
20
-17.14
0
VERTEX
8
Sketch
10
1.21
20
-17.06
0
VERTEX
8
Sketch
10
1.45
20
-16.82
0
VERTEX
8
Sketch
10
1.77
20
-16.74
0
VERTEX
8
Sketch
10
2.57
20
-16.34
0
VERTEX
8
Sketch
10
3.21
20
-15.94
0
SEQEND
0
POLYLINE
66
1
8
Sketch
62
0
0
VERTEX
8
Sketch
10
-8.23
20
-26.34
0
VERTEX
8
Sketch
10
-8.39
20
-26.34
0
VERTEX
8
Sketch
10
-9.03
20
-26.66
0
SEQEND
0
POLYLINE
66
1
8
Sketch
62
0
0
VERTEX
8
Sketch
10
-8.15
20
-25.54
0
VERTEX
8
Sketch
10
-8.87
20
-25.7
0
SEQEND
0
POLYLINE
66
1
8
Sketch
62
0
0
VERTEX
8
Sketch
10
-8.31
20
-24.82
0
VERTEX
8
Sketch
10
-9.03
20
-25.06
0
SEQEND
0
POLYLINE
66
1
8
Sketch
62
0
0
VERTEX
8
Sketch
10
-8.55
20
-24.18
0
VERTEX
8
Sketch
10
-8.95
20
-24.26
0
VERTEX
8
Sketch
10
-9.11
20
-24.5
0
SEQEND
0
POLYLINE
66
1
8
Sketch
62
0
0
VERTEX
8
Sketch
10
-9.11
20
-23.62
0
VERTEX
8
Sketch
10
-9.27
20
-23.62
0
VERTEX
8
Sketch
10
-9.75
20
-23.86
0
SEQEND
0
POLYLINE
66
1
8
Sketch
62
0
0
VERTEX
8
Sketch
10
-8.07
20
-26.58
0
VERTEX
8
Sketch
10
-7.99
20
-26.74
0
VERTEX
8
Sketch
10
-7.99
20
-26.34
0
VERTEX
8
Sketch
10
-7.91
20
-25.94
0
VERTEX
8
Sketch
10
-7.91
20
-24.98
0
VERTEX
8
Sketch
10
-8.31
20
-23.94
0
VERTEX
8
Sketch
10
-8.87
20
-23.38
0
VERTEX
8
Sketch
10
-9.27
20
-23.06
0
VERTEX
8
Sketch
10
-9.43
20
-23.06
0
SEQEND
0
POLYLINE
66
1
8
Sketch
62
0
0
VERTEX
8
Sketch
10
-9.11
20
-26.98
0
VERTEX
8
Sketch
10
-9.03
20
-27.3
0
VERTEX
8
Sketch
10
-8.95
20
-27.62
0
VERTEX
8
Sketch
10
-9.03
20
-27.86
0
SEQEND
0
POLYLINE
66
1
8
Sketch
62
0
0
VERTEX
8
Sketch
10
-9.67
20
-26.9
0
VERTEX
8
Sketch
10
-9.59
20
-27.78
0
SEQEND
0
POLYLINE
66
1
8
Sketch
62
0
0
VERTEX
8
Sketch
10
-10.47
20
-27.06
0
VERTEX
8
Sketch
10
-10.55
20
-27.7
0
VERTEX
8
Sketch
10
-10.55
20
-27.86
0
SEQEND
0
POLYLINE
66
1
8
Sketch
62
0
0
VERTEX
8
Sketch
10
-11.35
20
-26.74
0
VERTEX
8
Sketch
10
-11.19
20
-26.9
0
VERTEX
8
Sketch
10
-11.19
20
-27.54
0
VERTEX
8
Sketch
10
-11.27
20
-27.94
0
SEQEND
0
POLYLINE
66
1
8
Sketch
62
0
0
VERTEX
8
Sketch
10
-11.67
20
-27.46
0
VERTEX
8
Sketch
10
-11.59
20
-27.3
0
VERTEX
8
Sketch
10
-11.35
20
-27.54
0
VERTEX
8
Sketch
10
-11.03
20
-27.62
0
VERTEX
8
Sketch
10
-10.39
20
-27.54
0
VERTEX
8
Sketch
10
-10.07
20
-27.7
0
VERTEX
8
Sketch
10
-9.59
20
-27.54
0
VERTEX
8
Sketch
10
-9.27
20
-27.62
0
VERTEX
8
Sketch
10
-8.95
20
-27.54
0
VERTEX
8
Sketch
10
-8.63
20
-27.54
0
VERTEX
8
Sketch
10
-8.47
20
-27.38
0
VERTEX
8
Sketch
10
-8.31
20
-27.46
0
VERTEX
8
Sketch
10
-8.15
20
-27.3
0
VERTEX
8
Sketch
10
-8.15
20
-27.46
0
SEQEND
0
POLYLINE
66
1
8
Sketch
62
0
0
VERTEX
8
Sketch
10
-9.51
20
-27.22
0
VERTEX
8
Sketch
10
-9.59
20
-27.62
0
VERTEX
8
Sketch
10
-9.59
20
-27.94
0
VERTEX
8
Sketch
10
-9.19
20
-28.42
0
VERTEX
8
Sketch
10
-8.95
20
-29.38
0
VERTEX
8
Sketch
10
-8.55
20
-30.34
0
VERTEX
8
Sketch
10
-8.07
20
-31.14
0
VERTEX
8
Sketch
10
-7.27
20
-32.66
0
VERTEX
8
Sketch
10
-6.79
20
-33.3
0
VERTEX
8
Sketch
10
-6.71
20
-33.62
0
VERTEX
8
Sketch
10
-6.31
20
-34.5
0
VERTEX
8
Sketch
10
-6.23
20
-34.82
0
VERTEX
8
Sketch
10
-6.07
20
-35.14
0
SEQEND
0
POLYLINE
66
1
8
Sketch
62
0
0
VERTEX
8
Sketch
10
-6.87
20
-35.06
0
VERTEX
8
Sketch
10
-7.35
20
-34.42
0
VERTEX
8
Sketch
10
-7.43
20
-34.1
0
VERTEX
8
Sketch
10
-7.75
20
-33.3
0
VERTEX
8
Sketch
10
-7.91
20
-33.14
0
VERTEX
8
Sketch
10
-7.91
20
-32.9
0
VERTEX
8
Sketch
10
-8.71
20
-31.46
0
VERTEX
8
Sketch
10
-8.79
20
-31.14
0
VERTEX
8
Sketch
10
-9.11
20
-30.66
0
VERTEX
8
Sketch
10
-9.19
20
-30.26
0
VERTEX
8
Sketch
10
-9.35
20
-29.78
0
VERTEX
8
Sketch
10
-9.51
20
-29.06
0
VERTEX
8
Sketch
10
-9.91
20
-27.94
0
VERTEX
8
Sketch
10
-9.91
20
-27.78
0
VERTEX
8
Sketch
10
-10.07
20
-27.62
0
VERTEX
8
Sketch
10
-10.07
20
-27.46
0
VERTEX
8
Sketch
10
-10.23
20
-27.38
0
SEQEND
0
POLYLINE
66
1
8
Sketch
62
0
0
VERTEX
8
Sketch
10
-6.63
20
-36.18
0
VERTEX
8
Sketch
10
-7.43
20
-36.02
0
VERTEX
8
Sketch
10
-7.75
20
-35.94
0
VERTEX
8
Sketch
10
-7.91
20
-35.78
0
VERTEX
8
Sketch
10
-8.55
20
-35.62
0
VERTEX
8
Sketch
10
-8.87
20
-35.38
0
VERTEX
8
Sketch
10
-9.19
20
-35.38
0
VERTEX
8
Sketch
10
-10.31
20
-34.9
0
VERTEX
8
Sketch
10
-10.63
20
-34.9
0
SEQEND
0
POLYLINE
66
1
8
Sketch
62
0
0
VERTEX
8
Sketch
10
-6.47
20
-35.3
0
VERTEX
8
Sketch
10
-6.47
20
-35.14
0
VERTEX
8
Sketch
10
-6.79
20
-35.06
0
VERTEX
8
Sketch
10
-7.59
20
-34.66
0
VERTEX
8
Sketch
10
-7.75
20
-34.66
0
VERTEX
8
Sketch
10
-7.91
20
-34.42
0
VERTEX
8
Sketch
10
-8.23
20
-34.34
0
VERTEX
8
Sketch
10
-9.19
20
-34.02
0
VERTEX
8
Sketch
10
-9.51
20
-33.94
0
VERTEX
8
Sketch
10
-9.99
20
-33.78
0
VERTEX
8
Sketch
10
-10.15
20
-33.78
0
SEQEND
0
POLYLINE
66
1
8
Sketch
62
0
0
VERTEX
8
Sketch
10
-11.27
20
-27.86
0
VERTEX
8
Sketch
10
-11.19
20
-28.18
0
VERTEX
8
Sketch
10
-10.79
20
-29.06
0
VERTEX
8
Sketch
10
-10.47
20
-29.54
0
VERTEX
8
Sketch
10
-9.75
20
-30.9
0
VERTEX
8
Sketch
10
-9.27
20
-31.7
0
VERTEX
8
Sketch
10
-8.95
20
-32.34
0
VERTEX
8
Sketch
10
-9.11
20
-32.5
0
VERTEX
8
Sketch
10
-9.43
20
-32.58
0
VERTEX
8
Sketch
10
-9.75
20
-32.66
0
VERTEX
8
Sketch
10
-10.07
20
-32.74
0
VERTEX
8
Sketch
10
-10.39
20
-32.82
0
VERTEX
8
Sketch
10
-10.55
20
-32.74
0
VERTEX
8
Sketch
10
-11.03
20
-32.9
0
VERTEX
8
Sketch
10
-11.67
20
-32.98
0
VERTEX
8
Sketch
10
-11.99
20
-32.82
0
VERTEX
8
Sketch
10
-12.15
20
-32.9
0
VERTEX
8
Sketch
10
-12.31
20
-32.82
0
VERTEX
8
Sketch
10
-12.47
20
-32.98
0
VERTEX
8
Sketch
10
-12.79
20
-32.9
0
VERTEX
8
Sketch
10
-12.95
20
-33.06
0
VERTEX
8
Sketch
10
-13.11
20
-32.98
0
VERTEX
8
Sketch
10
-13.27
20
-33.06
0
VERTEX
8
Sketch
10
-13.43
20
-32.98
0
VERTEX
8
Sketch
10
-14.23
20
-33.22
0
VERTEX
8
Sketch
10
-14.47
20
-33.46
0
VERTEX
8
Sketch
10
-14.95
20
-33.78
0
VERTEX
8
Sketch
10
-14.87
20
-34.1
0
VERTEX
8
Sketch
10
-14.55
20
-34.42
0
VERTEX
8
Sketch
10
-13.43
20
-34.58
0
VERTEX
8
Sketch
10
-12.79
20
-34.9
0
VERTEX
8
Sketch
10
-12.31
20
-34.9
0
VERTEX
8
Sketch
10
-12.15
20
-35.06
0
VERTEX
8
Sketch
10
-11.99
20
-34.98
0
VERTEX
8
Sketch
10
-11.51
20
-35.14
0
VERTEX
8
Sketch
10
-10.47
20
-36.1
0
VERTEX
8
Sketch
10
-9.83
20
-36.5
0
VERTEX
8
Sketch
10
-9.67
20
-36.42
0
VERTEX
8
Sketch
10
-9.43
20
-36.66
0
VERTEX
8
Sketch
10
-9.11
20
-36.74
0
VERTEX
8
Sketch
10
-8.47
20
-36.82
0
VERTEX
8
Sketch
10
-8.15
20
-36.9
0
VERTEX
8
Sketch
10
-7.83
20
-36.74
0
VERTEX
8
Sketch
10
-7.67
20
-36.82
0
VERTEX
8
Sketch
10
-7.35
20
-36.74
0
VERTEX
8
Sketch
10
-7.19
20
-36.82
0
VERTEX
8
Sketch
10
-6.87
20
-36.74
0
VERTEX
8
Sketch
10
-6.55
20
-36.74
0
VERTEX
8
Sketch
10
-5.75
20
-36.5
0
VERTEX
8
Sketch
10
-5.59
20
-36.5
0
SEQEND
0
POLYLINE
66
1
8
Sketch
62
0
0
VERTEX
8
Sketch
10
-7.99
20
-28.98
0
VERTEX
8
Sketch
10
-7.75
20
-29.54
0
VERTEX
8
Sketch
10
-6.87
20
-31.22
0
VERTEX
8
Sketch
10
-6.39
20
-31.94
0
VERTEX
8
Sketch
10
-5.99
20
-32.34
0
VERTEX
8
Sketch
10
-5.99
20
-32.5
0
VERTEX
8
Sketch
10
-5.51
20
-33.3
0
VERTEX
8
Sketch
10
-5.27
20
-33.78
0
VERTEX
8
Sketch
10
-5.19
20
-34.1
0
VERTEX
8
Sketch
10
-5.11
20
-34.42
0
VERTEX
8
Sketch
10
-5.11
20
-35.46
0
VERTEX
8
Sketch
10
-5.35
20
-36.02
0
VERTEX
8
Sketch
10
-5.83
20
-36.42
0
VERTEX
8
Sketch
10
-5.83
20
-36.58
0
SEQEND
0
POLYLINE
66
1
8
Sketch
62
0
0
VERTEX
8
Sketch
10
0.17
20
-19.54
0
VERTEX
8
Sketch
10
-0.15
20
-19.86
0
VERTEX
8
Sketch
10
-1.27
20
-20.58
0
VERTEX
8
Sketch
10
-1.43
20
-20.74
0
VERTEX
8
Sketch
10
-1.59
20
-20.74
0
VERTEX
8
Sketch
10
-2.15
20
-21.3
0
VERTEX
8
Sketch
10
-2.79
20
-21.86
0
VERTEX
8
Sketch
10
-2.95
20
-21.86
0
VERTEX
8
Sketch
10
-3.75
20
-22.58
0
VERTEX
8
Sketch
10
-4.63
20
-23.3
0
VERTEX
8
Sketch
10
-5.67
20
-24.26
0
VERTEX
8
Sketch
10
-5.83
20
-24.26
0
VERTEX
8
Sketch
10
-7.03
20
-25.86
0
VERTEX
8
Sketch
10
-7.35
20
-26.02
0
VERTEX
8
Sketch
10
-8.07
20
-26.9
0
VERTEX
8
Sketch
10
-8.15
20
-27.3
0
VERTEX
8
Sketch
10
-8.23
20
-27.62
0
VERTEX
8
Sketch
10
-8.23
20
-27.94
0
VERTEX
8
Sketch
10
-8.15
20
-28.26
0
VERTEX
8
Sketch
10
-8.07
20
-28.98
0
VERTEX
8
Sketch
10
-7.91
20
-29.14
0
VERTEX
8
Sketch
10
-7.83
20
-29.46
0
SEQEND
0
POLYLINE
66
1
8
Sketch
62
0
0
VERTEX
8
Sketch
10
-3.27
20
-18.58
0
VERTEX
8
Sketch
10
-3.27
20
-18.74
0
VERTEX
8
Sketch
10
-3.75
20
-18.9
0
VERTEX
8
Sketch
10
-3.91
20
-18.9
0
VERTEX
8
Sketch
10
-5.67
20
-20.34
0
VERTEX
8
Sketch
10
-6.15
20
-20.82
0
VERTEX
8
Sketch
10
-6.71
20
-21.3
0
VERTEX
8
Sketch
10
-6.79
20
-21.54
0
VERTEX
8
Sketch
10
-7.75
20
-22.02
0
VERTEX
8
Sketch
10
-7.91
20
-22.02
0
VERTEX
8
Sketch
10
-8.55
20
-22.58
0
VERTEX
8
Sketch
10
-9.19
20
-22.98
0
VERTEX
8
Sketch
10
-9.43
20
-23.22
0
VERTEX
8
Sketch
10
-10.71
20
-23.7
0
VERTEX
8
Sketch
10
-10.87
20
-23.62
0
VERTEX
8
Sketch
10
-11.03
20
-23.7
0
VERTEX
8
Sketch
10
-11.19
20
-23.62
0
VERTEX
8
Sketch
10
-11.35
20
-23.7
0
VERTEX
8
Sketch
10
-11.51
20
-23.62
0
VERTEX
8
Sketch
10
-11.67
20
-23.7
0
VERTEX
8
Sketch
10
-11.83
20
-23.62
0
VERTEX
8
Sketch
10
-11.99
20
-23.78
0
VERTEX
8
Sketch
10
-12.15
20
-23.78
0
VERTEX
8
Sketch
10
-12.71
20
-24.34
0
VERTEX
8
Sketch
10
-13.03
20
-24.9
0
VERTEX
8
Sketch
10
-13.11
20
-25.54
0
VERTEX
8
Sketch
10
-12.95
20
-26.1
0
VERTEX
8
Sketch
10
-12.71
20
-26.34
0
VERTEX
8
Sketch
10
-12.31
20
-26.9
0
VERTEX
8
Sketch
10
-11.91
20
-27.3
0
VERTEX
8
Sketch
10
-11.75
20
-27.3
0
VERTEX
8
Sketch
10
-11.11
20
-28.1
0
SEQEND
0
POLYLINE
66
1
8
Sketch
62
0
0
VERTEX
8
Sketch
10
5.29
20
-14.82
0
VERTEX
8
Sketch
10
5.29
20
-14.66
0
VERTEX
8
Sketch
10
5.61
20
-14.42
0
VERTEX
8
Sketch
10
5.77
20
-14.42
0
VERTEX
8
Sketch
10
5.93
20
-14.18
0
SEQEND
0
POLYLINE
66
1
8
Sketch
62
0
0
VERTEX
8
Sketch
10
5.77
20
-15.3
0
VERTEX
8
Sketch
10
5.93
20
-15.38
0
VERTEX
8
Sketch
10
6.25
20
-15.3
0
VERTEX
8
Sketch
10
6.41
20
-15.3
0
SEQEND
0
POLYLINE
66
1
8
Sketch
62
0
0
VERTEX
8
Sketch
10
5.77
20
-15.3
0
VERTEX
8
Sketch
10
5.77
20
-15.3
0
VERTEX
8
Sketch
10
5.93
20
-15.38
0
VERTEX
8
Sketch
10
6.25
20
-15.3
0
SEQEND
0
POLYLINE
66
1
8
Sketch
62
0
0
VERTEX
8
Sketch
10
5.45
20
-15.94
0
VERTEX
8
Sketch
10
6.09
20
-16.34
0
SEQEND
0
POLYLINE
66
1
8
Sketch
62
0
0
VERTEX
8
Sketch
10
5.53
20
-15.86
0
VERTEX
8
Sketch
10
5.53
20
-16.02
0
VERTEX
8
Sketch
10
5.85
20
-16.1
0
SEQEND
0
POLYLINE
66
1
8
Sketch
62
0
0
VERTEX
8
Sketch
10
5.05
20
-16.26
0
VERTEX
8
Sketch
10
4.89
20
-16.26
0
VERTEX
8
Sketch
10
4.89
20
-17.14
0
VERTEX
8
Sketch
10
5.05
20
-16.98
0
SEQEND
0
POLYLINE
66
1
8
Sketch
62
0
0
VERTEX
8
Sketch
10
4.09
20
-16.66
0
VERTEX
8
Sketch
10
4.33
20
-16.1
0
SEQEND
0
POLYLINE
66
1
8
Sketch
62
0
0
VERTEX
8
Sketch
10
3.61
20
-15.38
0
VERTEX
8
Sketch
10
4.09
20
-15.54
0
SEQEND
0
POLYLINE
66
1
8
Sketch
62
0
0
VERTEX
8
Sketch
10
4.01
20
-14.26
0
VERTEX
8
Sketch
10
4.49
20
-14.66
0
VERTEX
8
Sketch
10
4.65
20
-14.74
0
SEQEND
0
POLYLINE
66
1
8
Sketch
62
0
0
VERTEX
8
Sketch
10
4.81
20
-13.86
0
VERTEX
8
Sketch
10
4.49
20
-14.1
0
VERTEX
8
Sketch
10
4.17
20
-14.18
0
VERTEX
8
Sketch
10
3.77
20
-14.58
0
VERTEX
8
Sketch
10
3.69
20
-14.9
0
VERTEX
8
Sketch
10
3.69
20
-15.78
0
VERTEX
8
Sketch
10
3.77
20
-16.1
0
VERTEX
8
Sketch
10
3.85
20
-16.42
0
VERTEX
8
Sketch
10
4.01
20
-16.82
0
VERTEX
8
Sketch
10
4.49
20
-16.98
0
VERTEX
8
Sketch
10
5.13
20
-17.06
0
VERTEX
8
Sketch
10
5.45
20
-16.98
0
VERTEX
8
Sketch
10
5.61
20
-16.98
0
VERTEX
8
Sketch
10
6.01
20
-16.58
0
VERTEX
8
Sketch
10
6.25
20
-16.34
0
VERTEX
8
Sketch
10
6.65
20
-15.22
0
VERTEX
8
Sketch
10
6.65
20
-14.9
0
VERTEX
8
Sketch
10
6.57
20
-14.58
0
VERTEX
8
Sketch
10
6.33
20
-14.18
0
VERTEX
8
Sketch
10
5.45
20
-13.94
0
VERTEX
8
Sketch
10
4.97
20
-13.94
0
VERTEX
8
Sketch
10
4.65
20
-14.02
0
VERTEX
8
Sketch
10
4.49
20
-14.18
0
SEQEND
0
POLYLINE
66
1
8
Sketch
62
0
0
VERTEX
8
Sketch
10
4.97
20
-13.78
0
VERTEX
8
Sketch
10
4.89
20
-13.94
0
SEQEND
0
POLYLINE
66
1
8
Sketch
62
0
0
VERTEX
8
Sketch
10
5.37
20
-17.94
0
VERTEX
8
Sketch
10
5.37
20
-18.1
0
VERTEX
8
Sketch
10
5.05
20
-18.1
0
VERTEX
8
Sketch
10
4.89
20
-18.02
0
VERTEX
8
Sketch
10
4.73
20
-18.1
0
VERTEX
8
Sketch
10
4.41
20
-18.02
0
VERTEX
8
Sketch
10
3.77
20
-18.02
0
VERTEX
8
Sketch
10
2.97
20
-18.34
0
VERTEX
8
Sketch
10
2.81
20
-18.26
0
VERTEX
8
Sketch
10
2.65
20
-18.42
0
VERTEX
8
Sketch
10
2.33
20
-18.5
0
VERTEX
8
Sketch
10
1.37
20
-19.14
0
VERTEX
8
Sketch
10
1.13
20
-19.38
0
VERTEX
8
Sketch
10
0.41
20
-19.62
0
VERTEX
8
Sketch
10
0.17
20
-19.94
0
SEQEND
0
POLYLINE
66
1
8
Sketch
62
0
0
VERTEX
8
Sketch
10
7.45
20
-12.26
0
VERTEX
8
Sketch
10
7.53
20
-12.42
0
VERTEX
8
Sketch
10
7.21
20
-12.58
0
VERTEX
8
Sketch
10
6.57
20
-12.42
0
VERTEX
8
Sketch
10
5.93
20
-12.42
0
VERTEX
8
Sketch
10
5.45
20
-12.58
0
VERTEX
8
Sketch
10
5.13
20
-12.58
0
VERTEX
8
Sketch
10
4.65
20
-12.82
0
VERTEX
8
Sketch
10
4.49
20
-12.82
0
VERTEX
8
Sketch
10
4.33
20
-12.98
0
VERTEX
8
Sketch
10
4.01
20
-13.06
0
VERTEX
8
Sketch
10
3.85
20
-13.22
0
VERTEX
8
Sketch
10
3.69
20
-13.22
0
VERTEX
8
Sketch
10
3.13
20
-13.78
0
VERTEX
8
Sketch
10
2.81
20
-13.94
0
VERTEX
8
Sketch
10
2.65
20
-14.18
0
VERTEX
8
Sketch
10
2.33
20
-14.26
0
VERTEX
8
Sketch
10
1.85
20
-14.42
0
VERTEX
8
Sketch
10
1.05
20
-15.06
0
VERTEX
8
Sketch
10
0.89
20
-15.06
0
VERTEX
8
Sketch
10
-0.23
20
-16.18
0
VERTEX
8
Sketch
10
-0.79
20
-16.74
0
VERTEX
8
Sketch
10
-2.15
20
-18.1
0
VERTEX
8
Sketch
10
-2.95
20
-18.74
0
VERTEX
8
Sketch
10
-3.43
20
-18.98
0
VERTEX
8
Sketch
10
-3.51
20
-19.22
0
SEQEND
0
POLYLINE
66
1
8
Sketch
62
0
0
VERTEX
8
Sketch
10
8.89
20
-16.42
0
VERTEX
8
Sketch
10
8.73
20
-16.58
0
VERTEX
8
Sketch
10
8.49
20
-16.34
0
VERTEX
8
Sketch
10
8.33
20
-16.26
0
VERTEX
8
Sketch
10
8.17
20
-16.34
0
VERTEX
8
Sketch
10
8.01
20
-16.26
0
VERTEX
8
Sketch
10
7.53
20
-16.58
0
VERTEX
8
Sketch
10
7.37
20
-16.58
0
VERTEX
8
Sketch
10
6.89
20
-16.9
0
VERTEX
8
Sketch
10
6.81
20
-17.14
0
VERTEX
8
Sketch
10
6.65
20
-17.14
0
VERTEX
8
Sketch
10
6.49
20
-17.38
0
VERTEX
8
Sketch
10
6.33
20
-17.38
0
VERTEX
8
Sketch
10
5.61
20
-18.1
0
VERTEX
8
Sketch
10
5.13
20
-18.1
0
SEQEND
0
POLYLINE
66
1
8
Sketch
62
0
0
VERTEX
8
Sketch
10
11.93
20
-19.14
0
VERTEX
8
Sketch
10
11.77
20
-19.14
0
VERTEX
8
Sketch
10
11.21
20
-18.58
0
VERTEX
8
Sketch
10
10.17
20
-17.7
0
VERTEX
8
Sketch
10
9.93
20
-17.46
0
VERTEX
8
Sketch
10
9.21
20
-16.74
0
VERTEX
8
Sketch
10
8.81
20
-16.34
0
SEQEND
0
POLYLINE
66
1
8
Sketch
62
0
0
VERTEX
8
Sketch
10
13.53
20
-9.7
0
VERTEX
8
Sketch
10
13.77
20
-10.02
0
VERTEX
8
Sketch
10
13.77
20
-10.66
0
VERTEX
8
Sketch
10
14.01
20
-11.54
0
VERTEX
8
Sketch
10
14.01
20
-11.78
0
VERTEX
8
Sketch
10
14.25
20
-12.42
0
VERTEX
8
Sketch
10
14.49
20
-13.46
0
VERTEX
8
Sketch
10
14.57
20
-13.78
0
VERTEX
8
Sketch
10
14.57
20
-14.98
0
VERTEX
8
Sketch
10
15.13
20
-15.54
0
VERTEX
8
Sketch
10
15.61
20
-16.02
0
VERTEX
8
Sketch
10
16.09
20
-17.06
0
VERTEX
8
Sketch
10
16.17
20
-17.78
0
VERTEX
8
Sketch
10
16.25
20
-18.1
0
VERTEX
8
Sketch
10
16.01
20
-18.82
0
VERTEX
8
Sketch
10
15.29
20
-19.54
0
VERTEX
8
Sketch
10
14.49
20
-19.78
0
VERTEX
8
Sketch
10
13.85
20
-19.78
0
VERTEX
8
Sketch
10
13.69
20
-19.7
0
VERTEX
8
Sketch
10
13.53
20
-19.78
0
VERTEX
8
Sketch
10
12.57
20
-19.3
0
VERTEX
8
Sketch
10
12.25
20
-19.22
0
VERTEX
8
Sketch
10
11.93
20
-18.98
0
SEQEND
0
POLYLINE
66
1
8
Sketch
62
0
0
VERTEX
8
Sketch
10
10.89
20
-10.02
0
VERTEX
8
Sketch
10
11.13
20
-9.3
0
SEQEND
0
POLYLINE
66
1
8
Sketch
62
0
0
VERTEX
8
Sketch
10
11.45
20
-10.34
0
VERTEX
8
Sketch
10
11.61
20
-10.18
0
VERTEX
8
Sketch
10
11.61
20
-9.94
0
VERTEX
8
Sketch
10
11.69
20
-9.62
0
SEQEND
0
POLYLINE
66
1
8
Sketch
62
0
0
VERTEX
8
Sketch
10
12.33
20
-10.5
0
VERTEX
8
Sketch
10
12.33
20
-10.26
0
VERTEX
8
Sketch
10
12.41
20
-9.94
0
VERTEX
8
Sketch
10
12.41
20
-9.7
0
VERTEX
8
Sketch
10
12.33
20
-9.54
0
SEQEND
0
POLYLINE
66
1
8
Sketch
62
0
0
VERTEX
8
Sketch
10
12.89
20
-10.26
0
VERTEX
8
Sketch
10
12.73
20
-9.46
0
VERTEX
8
Sketch
10
12.65
20
-9.22
0
SEQEND
0
POLYLINE
66
1
8
Sketch
62
0
0
VERTEX
8
Sketch
10
12.65
20
-10.26
0
VERTEX
8
Sketch
10
12.97
20
-10.18
0
VERTEX
8
Sketch
10
13.61
20
-9.7
0
SEQEND
0
POLYLINE
66
1
8
Sketch
62
0
0
VERTEX
8
Sketch
10
12.97
20
-10.1
0
VERTEX
8
Sketch
10
13.13
20
-10.26
0
VERTEX
8
Sketch
10
13.13
20
-10.42
0
VERTEX
8
Sketch
10
12.65
20
-10.74
0
VERTEX
8
Sketch
10
12.33
20
-10.74
0
VERTEX
8
Sketch
10
12.17
20
-10.9
0
VERTEX
8
Sketch
10
11.21
20
-10.42
0
VERTEX
8
Sketch
10
10.89
20
-10.18
0
VERTEX
8
Sketch
10
10.73
20
-10.18
0
SEQEND
0
POLYLINE
66
1
8
Sketch
62
0
0
VERTEX
8
Sketch
10
12.97
20
-10.42
0
VERTEX
8
Sketch
10
12.97
20
-10.58
0
VERTEX
8
Sketch
10
13.13
20
-10.5
0
SEQEND
0
POLYLINE
66
1
8
Sketch
62
0
0
VERTEX
8
Sketch
10
13.85
20
-10.18
0
VERTEX
8
Sketch
10
14.01
20
-9.86
0
VERTEX
8
Sketch
10
14.33
20
-9.78
0
VERTEX
8
Sketch
10
14.65
20
-9.54
0
VERTEX
8
Sketch
10
15.13
20
-9.54
0
VERTEX
8
Sketch
10
15.45
20
-9.38
0
VERTEX
8
Sketch
10
15.61
20
-9.46
0
VERTEX
8
Sketch
10
15.77
20
-9.3
0
VERTEX
8
Sketch
10
16.41
20
-9.3
0
VERTEX
8
Sketch
10
16.57
20
-9.22
0
SEQEND
0
POLYLINE
66
1
8
Sketch
62
0
0
VERTEX
8
Sketch
10
11.05
20
-11.7
0
VERTEX
8
Sketch
10
11.05
20
-11.06
0
VERTEX
8
Sketch
10
10.97
20
-10.58
0
VERTEX
8
Sketch
10
10.97
20
-10.98
0
VERTEX
8
Sketch
10
11.13
20
-11.7
0
VERTEX
8
Sketch
10
11.05
20
-11.38
0
VERTEX
8
Sketch
10
11.05
20
-10.5
0
SEQEND
0
POLYLINE
66
1
8
Sketch
62
0
0
VERTEX
8
Sketch
10
10.89
20
-10.9
0
VERTEX
8
Sketch
10
11.05
20
-11.38
0
VERTEX
8
Sketch
10
11.05
20
-11.62
0
VERTEX
8
Sketch
10
11.61
20
-12.9
0
VERTEX
8
Sketch
10
11.77
20
-13.54
0
VERTEX
8
Sketch
10
11.85
20
-13.86
0
VERTEX
8
Sketch
10
12.09
20
-14.82
0
VERTEX
8
Sketch
10
12.25
20
-15.3
0
VERTEX
8
Sketch
10
12.25
20
-15.46
0
VERTEX
8
Sketch
10
12.09
20
-15.46
0
VERTEX
8
Sketch
10
11.85
20
-15.06
0
VERTEX
8
Sketch
10
11.37
20
-14.42
0
VERTEX
8
Sketch
10
10.25
20
-13.62
0
VERTEX
8
Sketch
10
9.77
20
-13.3
0
VERTEX
8
Sketch
10
9.13
20
-13.14
0
VERTEX
8
Sketch
10
8.97
20
-13.22
0
VERTEX
8
Sketch
10
8.65
20
-13.14
0
VERTEX
8
Sketch
10
8.49
20
-12.98
0
VERTEX
8
Sketch
10
8.17
20
-12.98
0
VERTEX
8
Sketch
10
7.37
20
-12.58
0
SEQEND
0
POLYLINE
66
1
8
Sketch
62
0
0
VERTEX
8
Sketch
10
20.25
20
-9.14
0
VERTEX
8
Sketch
10
20.73
20
-10.18
0
VERTEX
8
Sketch
10
20.73
20
-10.34
0
VERTEX
8
Sketch
10
21.13
20
-9.54
0
VERTEX
8
Sketch
10
21.37
20
-9.22
0
SEQEND
0
POLYLINE
66
1
8
Sketch
62
0
0
VERTEX
8
Sketch
10
17.21
20
-4.98
0
VERTEX
8
Sketch
10
17.69
20
-5.06
0
VERTEX
8
Sketch
10
18.01
20
-4.9
0
VERTEX
8
Sketch
10
18.33
20
-4.98
0
VERTEX
8
Sketch
10
18.49
20
-4.9
0
VERTEX
8
Sketch
10
19.21
20
-5.22
0
VERTEX
8
Sketch
10
19.37
20
-5.22
0
VERTEX
8
Sketch
10
19.69
20
-5.54
0
VERTEX
8
Sketch
10
19.85
20
-5.54
0
VERTEX
8
Sketch
10
20.33
20
-6.02
0
VERTEX
8
Sketch
10
20.65
20
-7.06
0
VERTEX
8
Sketch
10
20.73
20
-7.7
0
VERTEX
8
Sketch
10
20.73
20
-8.18
0
VERTEX
8
Sketch
10
20.81
20
-8.5
0
VERTEX
8
Sketch
10
20.81
20
-9.46
0
VERTEX
8
Sketch
10
20.89
20
-9.78
0
VERTEX
8
Sketch
10
20.89
20
-9.78
0
SEQEND
0
POLYLINE
66
1
8
Sketch
62
0
0
VERTEX
8
Sketch
10
13.69
20
-2.5
0
VERTEX
8
Sketch
10
14.17
20
-2.74
0
VERTEX
8
Sketch
10
14.49
20
-2.74
0
VERTEX
8
Sketch
10
14.57
20
-2.58
0
SEQEND
0
POLYLINE
66
1
8
Sketch
62
0
0
VERTEX
8
Sketch
10
13.45
20
-3.86
0
VERTEX
8
Sketch
10
13.77
20
-3.86
0
VERTEX
8
Sketch
10
14.25
20
-4.02
0
VERTEX
8
Sketch
10
14.33
20
-3.78
0
SEQEND
0
POLYLINE
66
1
8
Sketch
62
0
0
VERTEX
8
Sketch
10
13.21
20
-5.22
0
VERTEX
8
Sketch
10
13.37
20
-5.14
0
VERTEX
8
Sketch
10
14.25
20
-5.3
0
SEQEND
0
POLYLINE
66
1
8
Sketch
62
0
0
VERTEX
8
Sketch
10
13.29
20
-6.42
0
VERTEX
8
Sketch
10
13.29
20
-6.42
0
VERTEX
8
Sketch
10
14.33
20
-6.34
0
VERTEX
8
Sketch
10
14.41
20
-6.1
0
SEQEND
0
POLYLINE
66
1
8
Sketch
62
0
0
VERTEX
8
Sketch
10
13.53
20
-7.62
0
VERTEX
8
Sketch
10
13.61
20
-7.46
0
VERTEX
8
Sketch
10
14.01
20
-7.38
0
VERTEX
8
Sketch
10
14.65
20
-7.14
0
SEQEND
0
POLYLINE
66
1
8
Sketch
62
0
0
VERTEX
8
Sketch
10
14.33
20
-8.66
0
VERTEX
8
Sketch
10
14.17
20
-8.5
0
VERTEX
8
Sketch
10
14.33
20
-8.42
0
VERTEX
8
Sketch
10
14.49
20
-8.5
0
VERTEX
8
Sketch
10
15.21
20
-8.26
0
SEQEND
0
POLYLINE
66
1
8
Sketch
62
0
0
VERTEX
8
Sketch
10
13.77
20
-1.86
0
VERTEX
8
Sketch
10
13.53
20
-2.5
0
VERTEX
8
Sketch
10
13.53
20
-2.82
0
VERTEX
8
Sketch
10
13.13
20
-4.5
0
VERTEX
8
Sketch
10
13.13
20
-5.54
0
VERTEX
8
Sketch
10
13.21
20
-5.86
0
VERTEX
8
Sketch
10
13.21
20
-6.26
0
VERTEX
8
Sketch
10
13.29
20
-6.58
0
VERTEX
8
Sketch
10
13.37
20
-6.98
0
VERTEX
8
Sketch
10
13.77
20
-8.02
0
VERTEX
8
Sketch
10
13.93
20
-8.18
0
VERTEX
8
Sketch
10
13.93
20
-8.34
0
VERTEX
8
Sketch
10
14.25
20
-8.66
0
VERTEX
8
Sketch
10
14.41
20
-9.06
0
VERTEX
8
Sketch
10
14.81
20
-9.54
0
VERTEX
8
Sketch
10
14.81
20
-9.54
0
VERTEX
8
Sketch
10
14.81
20
-9.38
0
SEQEND
0
POLYLINE
66
1
8
Sketch
62
0
0
VERTEX
8
Sketch
10
8.97
20
-2.98
0
VERTEX
8
Sketch
10
9.05
20
-3.38
0
VERTEX
8
Sketch
10
9.21
20
-3.54
0
VERTEX
8
Sketch
10
9.21
20
-3.7
0
VERTEX
8
Sketch
10
9.37
20
-3.94
0
SEQEND
0
POLYLINE
66
1
8
Sketch
62
0
0
VERTEX
8
Sketch
10
10.33
20
-2.1
0
VERTEX
8
Sketch
10
10.65
20
-2.66
0
VERTEX
8
Sketch
10
10.65
20
-2.9
0
VERTEX
8
Sketch
10
10.73
20
-3.06
0
SEQEND
0
POLYLINE
66
1
8
Sketch
62
0
0
VERTEX
8
Sketch
10
9.93
20
-2.34
0
VERTEX
8
Sketch
10
10.25
20
-3.22
0
VERTEX
8
Sketch
10
10.33
20
-3.06
0
SEQEND
0
POLYLINE
66
1
8
Sketch
62
0
0
VERTEX
8
Sketch
10
9.53
20
-2.58
0
VERTEX
8
Sketch
10
9.53
20
-2.82
0
VERTEX
8
Sketch
10
9.93
20
-3.46
0
SEQEND
0
POLYLINE
66
1
8
Sketch
62
0
0
VERTEX
8
Sketch
10
8.89
20
-2.98
0
VERTEX
8
Sketch
10
8.97
20
-3.38
0
VERTEX
8
Sketch
10
9.05
20
-3.7
0
VERTEX
8
Sketch
10
9.21
20
-3.62
0
SEQEND
0
POLYLINE
66
1
8
Sketch
62
0
0
VERTEX
8
Sketch
10
8.49
20
-3.62
0
VERTEX
8
Sketch
10
8.49
20
-3.46
0
VERTEX
8
Sketch
10
8.81
20
-4.18
0
VERTEX
8
Sketch
10
8.81
20
-4.34
0
VERTEX
8
Sketch
10
8.97
20
-4.02
0
SEQEND
0
POLYLINE
66
1
8
Sketch
62
0
0
VERTEX
8
Sketch
10
8.17
20
-4.18
0
VERTEX
8
Sketch
10
8.25
20
-3.78
0
VERTEX
8
Sketch
10
9.05
20
-2.9
0
VERTEX
8
Sketch
10
9.21
20
-2.9
0
VERTEX
8
Sketch
10
9.29
20
-2.74
0
VERTEX
8
Sketch
10
9.45
20
-2.74
0
VERTEX
8
Sketch
10
9.69
20
-2.5
0
VERTEX
8
Sketch
10
10.17
20
-2.26
0
VERTEX
8
Sketch
10
10.33
20
-2.26
0
VERTEX
8
Sketch
10
10.41
20
-2.1
0
VERTEX
8
Sketch
10
10.57
20
-2.18
0
SEQEND
0
POLYLINE
66
1
8
Sketch
62
0
0
VERTEX
8
Sketch
10
-6.07
20
28.22
0
VERTEX
8
Sketch
10
-6.47
20
27.58
0
VERTEX
8
Sketch
10
-6.47
20
26.54
0
VERTEX
8
Sketch
10
-6.07
20
25.58
0
VERTEX
8
Sketch
10
-5.99
20
25.1
0
SEQEND
0
POINT
8
Sketch
62
0
10
-6.23
20
27.82
0
POLYLINE
66
1
8
Sketch
62
0
0
VERTEX
8
Sketch
10
-6.63
20
24.22
0
VERTEX
8
Sketch
10
-6.39
20
23.9
0
SEQEND
0
POLYLINE
66
1
8
Sketch
62
0
0
VERTEX
8
Sketch
10
-6.39
20
24.78
0
VERTEX
8
Sketch
10
-6.07
20
24.62
0
SEQEND
0
POLYLINE
66
1
8
Sketch
62
0
0
VERTEX
8
Sketch
10
-6.23
20
25.42
0
VERTEX
8
Sketch
10
-6.55
20
25.1
0
SEQEND
0
POLYLINE
66
1
8
Sketch
62
0
0
VERTEX
8
Sketch
10
-7.35
20
24.06
0
VERTEX
8
Sketch
10
-7.11
20
24.38
0
SEQEND
0
POLYLINE
66
1
8
Sketch
62
0
0
VERTEX
8
Sketch
10
-7.83
20
24.86
0
VERTEX
8
Sketch
10
-7.67
20
24.78
0
VERTEX
8
Sketch
10
-7.35
20
24.86
0
SEQEND
0
POLYLINE
66
1
8
Sketch
62
0
0
VERTEX
8
Sketch
10
-7.11
20
25.74
0
VERTEX
8
Sketch
10
-7.19
20
25.18
0
SEQEND
0
POLYLINE
66
1
8
Sketch
62
0
0
VERTEX
8
Sketch
10
-7.03
20
25.9
0
VERTEX
8
Sketch
10
-7.35
20
25.82
0
VERTEX
8
Sketch
10
-7.51
20
25.82
0
VERTEX
8
Sketch
10
-7.83
20
25.5
0
VERTEX
8
Sketch
10
-7.83
20
24.62
0
VERTEX
8
Sketch
10
-7.51
20
24.14
0
VERTEX
8
Sketch
10
-7.35
20
24.14
0
VERTEX
8
Sketch
10
-7.03
20
23.9
0
VERTEX
8
Sketch
10
-6.71
20
23.9
0
VERTEX
8
Sketch
10
-6.23
20
24.06
0
VERTEX
8
Sketch
10
-5.91
20
24.54
0
VERTEX
8
Sketch
10
-5.91
20
25.1
0
VERTEX
8
Sketch
10
-6.15
20
25.58
0
VERTEX
8
Sketch
10
-6.63
20
25.82
0
VERTEX
8
Sketch
10
-6.95
20
25.74
0
SEQEND
0
POLYLINE
66
1
8
Sketch
62
0
0
VERTEX
8
Sketch
10
-5.35
20
30.06
0
VERTEX
8
Sketch
10
-5.75
20
29.26
0
VERTEX
8
Sketch
10
-5.83
20
28.94
0
VERTEX
8
Sketch
10
-6.47
20
27.1
0
SEQEND
0
POLYLINE
66
1
8
Sketch
62
0
0
VERTEX
8
Sketch
10
-5.51
20
30.7
0
VERTEX
8
Sketch
10
-5.43
20
30.86
0
VERTEX
8
Sketch
10
-5.75
20
30.54
0
VERTEX
8
Sketch
10
-5.67
20
30.7
0
SEQEND
0
POLYLINE
66
1
8
Sketch
62
0
0
VERTEX
8
Sketch
10
-5.75
20
31.02
0
VERTEX
8
Sketch
10
-5.35
20
30.54
0
VERTEX
8
Sketch
10
-5.35
20
30.78
0
VERTEX
8
Sketch
10
-5.51
20
30.86
0
VERTEX
8
Sketch
10
-5.59
20
30.7
0
SEQEND
0
POLYLINE
66
1
8
Sketch
62
0
0
VERTEX
8
Sketch
10
-6.07
20
31.34
0
VERTEX
8
Sketch
10
-5.51
20
30.86
0
VERTEX
8
Sketch
10
-5.75
20
30.54
0
SEQEND
0
POLYLINE
66
1
8
Sketch
62
0
0
VERTEX
8
Sketch
10
-5.91
20
31.26
0
VERTEX
8
Sketch
10
-5.67
20
30.94
0
VERTEX
8
Sketch
10
-5.67
20
30.78
0
VERTEX
8
Sketch
10
-5.91
20
30.38
0
VERTEX
8
Sketch
10
-6.15
20
30.06
0
VERTEX
8
Sketch
10
-5.91
20
30.46
0
VERTEX
8
Sketch
10
-5.51
20
30.94
0
VERTEX
8
Sketch
10
-5.51
20
30.78
0
VERTEX
8
Sketch
10
-5.51
20
30.78
0
VERTEX
8
Sketch
10
-5.75
20
30.46
0
VERTEX
8
Sketch
10
-5.59
20
30.54
0
VERTEX
8
Sketch
10
-5.59
20
30.7
0
VERTEX
8
Sketch
10
-6.07
20
30.14
0
SEQEND
0
POLYLINE
66
1
8
Sketch
62
0
0
VERTEX
8
Sketch
10
-5.59
20
30.86
0
VERTEX
8
Sketch
10
-5.59
20
31.02
0
SEQEND
0
POLYLINE
66
1
8
Sketch
62
0
0
VERTEX
8
Sketch
10
-5.99
20
31.34
0
VERTEX
8
Sketch
10
-5.67
20
31.18
0
VERTEX
8
Sketch
10
-5.75
20
30.86
0
VERTEX
8
Sketch
10
-6.15
20
30.14
0
VERTEX
8
Sketch
10
-6.63
20
29.34
0
VERTEX
8
Sketch
10
-6.55
20
29.66
0
VERTEX
8
Sketch
10
-6.15
20
30.62
0
VERTEX
8
Sketch
10
-6.15
20
30.94
0
VERTEX
8
Sketch
10
-5.99
20
31.42
0
VERTEX
8
Sketch
10
-5.51
20
30.94
0
VERTEX
8
Sketch
10
-5.75
20
30.7
0
VERTEX
8
Sketch
10
-6.39
20
29.66
0
VERTEX
8
Sketch
10
-6.39
20
29.9
0
VERTEX
8
Sketch
10
-5.91
20
30.38
0
VERTEX
8
Sketch
10
-5.75
20
30.78
0
VERTEX
8
Sketch
10
-5.59
20
30.94
0
VERTEX
8
Sketch
10
-6.23
20
30.14
0
VERTEX
8
Sketch
10
-6.23
20
30.14
0
VERTEX
8
Sketch
10
-5.91
20
30.62
0
VERTEX
8
Sketch
10
-5.75
20
31.26
0
VERTEX
8
Sketch
10
-6.23
20
30.06
0
VERTEX
8
Sketch
10
-6.31
20
29.74
0
VERTEX
8
Sketch
10
-5.91
20
30.62
0
VERTEX
8
Sketch
10
-5.83
20
31.26
0
VERTEX
8
Sketch
10
-6.31
20
30.06
0
VERTEX
8
Sketch
10
-6.31
20
30.3
0
VERTEX
8
Sketch
10
-6.07
20
30.94
0
VERTEX
8
Sketch
10
-6.07
20
31.26
0
VERTEX
8
Sketch
10
-6.31
20
30.38
0
VERTEX
8
Sketch
10
-6.47
20
29.9
0
VERTEX
8
Sketch
10
-6.15
20
30.62
0
VERTEX
8
Sketch
10
-6.07
20
30.94
0
VERTEX
8
Sketch
10
-6.23
20
30.78
0
VERTEX
8
Sketch
10
-6.31
20
30.46
0
VERTEX
8
Sketch
10
-6.47
20
29.9
0
VERTEX
8
Sketch
10
-6.23
20
30.62
0
VERTEX
8
Sketch
10
-6.07
20
30.78
0
VERTEX
8
Sketch
10
-6.07
20
30.94
0
VERTEX
8
Sketch
10
-5.91
20
31.18
0
VERTEX
8
Sketch
10
-5.99
20
31.5
0
VERTEX
8
Sketch
10
-6.15
20
31.26
0
VERTEX
8
Sketch
10
-6.23
20
30.94
0
VERTEX
8
Sketch
10
-6.31
20
30.78
0
VERTEX
8
Sketch
10
-6.15
20
30.94
0
VERTEX
8
Sketch
10
-6.07
20
31.26
0
VERTEX
8
Sketch
10
-6.15
20
30.54
0
VERTEX
8
Sketch
10
-6.39
20
30.06
0
VERTEX
8
Sketch
10
-6.47
20
29.66
0
VERTEX
8
Sketch
10
-6.55
20
29.5
0
SEQEND
0
POLYLINE
66
1
8
Sketch
62
0
0
VERTEX
8
Sketch
10
-6.47
20
31.58
0
VERTEX
8
Sketch
10
-5.67
20
31.98
0
VERTEX
8
Sketch
10
-5.35
20
31.98
0
VERTEX
8
Sketch
10
-4.95
20
31.5
0
VERTEX
8
Sketch
10
-4.95
20
30.78
0
VERTEX
8
Sketch
10
-5.19
20
30.3
0
VERTEX
8
Sketch
10
-5.27
20
29.98
0
VERTEX
8
Sketch
10
-5.59
20
29.5
0
SEQEND
0
POLYLINE
66
1
8
Sketch
62
0
0
VERTEX
8
Sketch
10
-11.03
20
29.5
0
VERTEX
8
Sketch
10
-10.31
20
30.22
0
VERTEX
8
Sketch
10
-9.67
20
30.62
0
VERTEX
8
Sketch
10
-9.51
20
30.54
0
VERTEX
8
Sketch
10
-9.35
20
30.62
0
VERTEX
8
Sketch
10
-8.55
20
30.14
0
VERTEX
8
Sketch
10
-8.23
20
30.06
0
VERTEX
8
Sketch
10
-7.43
20
30.38
0
VERTEX
8
Sketch
10
-7.35
20
30.54
0
VERTEX
8
Sketch
10
-7.19
20
30.54
0
VERTEX
8
Sketch
10
-7.03
20
30.78
0
VERTEX
8
Sketch
10
-6.87
20
30.78
0
VERTEX
8
Sketch
10
-6.31
20
31.58
0
SEQEND
0
POLYLINE
66
1
8
Sketch
62
0
0
VERTEX
8
Sketch
10
-7.11
20
27.1
0
VERTEX
8
Sketch
10
-7.75
20
26.54
0
SEQEND
0
POLYLINE
66
1
8
Sketch
62
0
0
VERTEX
8
Sketch
10
-7.75
20
27.74
0
VERTEX
8
Sketch
10
-8.15
20
27.18
0
SEQEND
0
POLYLINE
66
1
8
Sketch
62
0
0
VERTEX
8
Sketch
10
-8.31
20
28.14
0
VERTEX
8
Sketch
10
-8.79
20
27.5
0
SEQEND
0
POLYLINE
66
1
8
Sketch
62
0
0
VERTEX
8
Sketch
10
-8.87
20
28.62
0
VERTEX
8
Sketch
10
-9.11
20
28.22
0
SEQEND
0
POLYLINE
66
1
8
Sketch
62
0
0
VERTEX
8
Sketch
10
-9.75
20
28.78
0
VERTEX
8
Sketch
10
-9.83
20
28.46
0
VERTEX
8
Sketch
10
-9.99
20
28.3
0
VERTEX
8
Sketch
10
-9.91
20
28.14
0
SEQEND
0
POLYLINE
66
1
8
Sketch
62
0
0
VERTEX
8
Sketch
10
-10.63
20
28.94
0
VERTEX
8
Sketch
10
-10.71
20
28.46
0
SEQEND
0
POLYLINE
66
1
8
Sketch
62
0
0
VERTEX
8
Sketch
10
-11.67
20
28.7
0
VERTEX
8
Sketch
10
-11.59
20
28.86
0
VERTEX
8
Sketch
10
-10.71
20
29.02
0
VERTEX
8
Sketch
10
-10.55
20
28.94
0
VERTEX
8
Sketch
10
-10.39
20
29.02
0
VERTEX
8
Sketch
10
-10.07
20
28.94
0
VERTEX
8
Sketch
10
-9.91
20
29.02
0
VERTEX
8
Sketch
10
-9.59
20
28.94
0
VERTEX
8
Sketch
10
-9.27
20
28.86
0
VERTEX
8
Sketch
10
-8.95
20
28.78
0
VERTEX
8
Sketch
10
-8.31
20
28.3
0
VERTEX
8
Sketch
10
-8.15
20
28.3
0
VERTEX
8
Sketch
10
-7.83
20
27.98
0
VERTEX
8
Sketch
10
-7.67
20
27.98
0
VERTEX
8
Sketch
10
-7.11
20
27.34
0
VERTEX
8
Sketch
10
-6.87
20
26.94
0
VERTEX
8
Sketch
10
-6.87
20
26.78
0
SEQEND
0
POLYLINE
66
1
8
Sketch
62
0
0
VERTEX
8
Sketch
10
-7.67
20
22.14
0
VERTEX
8
Sketch
10
-7.67
20
22.54
0
VERTEX
8
Sketch
10
-7.27
20
23.58
0
VERTEX
8
Sketch
10
-7.03
20
23.9
0
SEQEND
0
POLYLINE
66
1
8
Sketch
62
0
0
VERTEX
8
Sketch
10
-13.35
20
28.62
0
VERTEX
8
Sketch
10
-13.03
20
28.62
0
VERTEX
8
Sketch
10
-12.87
20
28.7
0
VERTEX
8
Sketch
10
-12.55
20
28.54
0
VERTEX
8
Sketch
10
-12.23
20
28.62
0
VERTEX
8
Sketch
10
-11.75
20
28.62
0
VERTEX
8
Sketch
10
-11.11
20
29.02
0
VERTEX
8
Sketch
10
-10.87
20
29.42
0
VERTEX
8
Sketch
10
-10.63
20
29.9
0
SEQEND
0
POLYLINE
66
1
8
Sketch
62
0
0
VERTEX
8
Sketch
10
-15.19
20
26.86
0
VERTEX
8
Sketch
10
-15.27
20
27.18
0
VERTEX
8
Sketch
10
-14.79
20
28.38
0
VERTEX
8
Sketch
10
-14.39
20
28.78
0
VERTEX
8
Sketch
10
-14.23
20
28.7
0
VERTEX
8
Sketch
10
-14.07
20
28.78
0
VERTEX
8
Sketch
10
-13.91
20
28.62
0
VERTEX
8
Sketch
10
-13.59
20
28.54
0
VERTEX
8
Sketch
10
-13.11
20
28.38
0
SEQEND
0
POLYLINE
66
1
8
Sketch
62
0
0
VERTEX
8
Sketch
10
-14.31
20
25.58
0
VERTEX
8
Sketch
10
-13.99
20
25.58
0
VERTEX
8
Sketch
10
-13.83
20
25.5
0
SEQEND
0
POLYLINE
66
1
8
Sketch
62
0
0
VERTEX
8
Sketch
10
-14.31
20
25.82
0
VERTEX
8
Sketch
10
-13.99
20
25.9
0
SEQEND
0
POLYLINE
66
1
8
Sketch
62
0
0
VERTEX
8
Sketch
10
-14.31
20
26.14
0
VERTEX
8
Sketch
10
-14.07
20
26.38
0
SEQEND
0
POLYLINE
66
1
8
Sketch
62
0
0
VERTEX
8
Sketch
10
-14.63
20
26.22
0
VERTEX
8
Sketch
10
-14.47
20
26.54
0
VERTEX
8
Sketch
10
-14.31
20
26.62
0
SEQEND
0
POLYLINE
66
1
8
Sketch
62
0
0
VERTEX
8
Sketch
10
-14.95
20
26.38
0
VERTEX
8
Sketch
10
-14.63
20
26.86
0
SEQEND
0
POLYLINE
66
1
8
Sketch
62
0
0
VERTEX
8
Sketch
10
-15.03
20
26.78
0
VERTEX
8
Sketch
10
-15.03
20
26.94
0
VERTEX
8
Sketch
10
-14.71
20
26.86
0
VERTEX
8
Sketch
10
-14.23
20
26.62
0
VERTEX
8
Sketch
10
-13.83
20
25.98
0
VERTEX
8
Sketch
10
-13.83
20
25.34
0
VERTEX
8
Sketch
10
-13.99
20
24.86
0
SEQEND
0
POLYLINE
66
1
8
Sketch
62
0
0
VERTEX
8
Sketch
10
-22.23
20
16.3
0
VERTEX
8
Sketch
10
-21.91
20
16.38
0
VERTEX
8
Sketch
10
-21.59
20
16.38
0
VERTEX
8
Sketch
10
-21.27
20
16.46
0
SEQEND
0
POLYLINE
66
1
8
Sketch
62
0
0
VERTEX
8
Sketch
10
-18.07
20
16.3
0
VERTEX
8
Sketch
10
-17.99
20
15.98
0
VERTEX
8
Sketch
10
-18.07
20
15.26
0
SEQEND
0
POLYLINE
66
1
8
Sketch
62
0
0
VERTEX
8
Sketch
10
-19.43
20
16.22
0
VERTEX
8
Sketch
10
-19.27
20
15.58
0
VERTEX
8
Sketch
10
-19.27
20
15.42
0
VERTEX
8
Sketch
10
-19.19
20
15.82
0
VERTEX
8
Sketch
10
-19.27
20
16.22
0
VERTEX
8
Sketch
10
-19.03
20
15.9
0
VERTEX
8
Sketch
10
-18.87
20
15.5
0
VERTEX
8
Sketch
10
-18.71
20
15.34
0
VERTEX
8
Sketch
10
-18.55
20
15.5
0
VERTEX
8
Sketch
10
-18.55
20
16.46
0
SEQEND
0
POLYLINE
66
1
8
Sketch
62
0
0
VERTEX
8
Sketch
10
-20.31
20
16.22
0
VERTEX
8
Sketch
10
-20.15
20
15.74
0
VERTEX
8
Sketch
10
-20.23
20
15.5
0
VERTEX
8
Sketch
10
-20.23
20
16.06
0
VERTEX
8
Sketch
10
-20.15
20
16.38
0
VERTEX
8
Sketch
10
-19.83
20
16.3
0
VERTEX
8
Sketch
10
-19.75
20
15.98
0
VERTEX
8
Sketch
10
-19.83
20
15.66
0
VERTEX
8
Sketch
10
-20.31
20
15.34
0
SEQEND
0
POLYLINE
66
1
8
Sketch
62
0
0
VERTEX
8
Sketch
10
-21.27
20
16.14
0
VERTEX
8
Sketch
10
-21.35
20
15.82
0
VERTEX
8
Sketch
10
-21.27
20
15.5
0
VERTEX
8
Sketch
10
-21.11
20
15.34
0
VERTEX
8
Sketch
10
-20.87
20
15.58
0
VERTEX
8
Sketch
10
-20.71
20
16.38
0
SEQEND
0
POLYLINE
66
1
8
Sketch
62
0
0
VERTEX
8
Sketch
10
-21.91
20
16.38
0
VERTEX
8
Sketch
10
-21.91
20
15.66
0
VERTEX
8
Sketch
10
-21.99
20
15.34
0
VERTEX
8
Sketch
10
-21.99
20
15.18
0
SEQEND
0
POLYLINE
66
1
8
Sketch
62
0
0
VERTEX
8
Sketch
10
-22.39
20
16.3
0
VERTEX
8
Sketch
10
-21.91
20
16.46
0
VERTEX
8
Sketch
10
-21.75
20
16.46
0
SEQEND
0
POLYLINE
66
1
8
Sketch
62
0
0
VERTEX
8
Sketch
10
-22.79
20
16.38
0
VERTEX
8
Sketch
10
-23.11
20
16.54
0
VERTEX
8
Sketch
10
-23.43
20
16.38
0
VERTEX
8
Sketch
10
-23.51
20
16.06
0
VERTEX
8
Sketch
10
-23.03
20
15.9
0
VERTEX
8
Sketch
10
-22.87
20
15.9
0
VERTEX
8
Sketch
10
-22.71
20
15.74
0
VERTEX
8
Sketch
10
-22.71
20
15.34
0
VERTEX
8
Sketch
10
-23.03
20
15.42
0
VERTEX
8
Sketch
10
-23.51
20
15.26
0
SEQEND
0
POLYLINE
66
1
8
Sketch
62
0
0
VERTEX
8
Sketch
10
-22.95
20
17.5
0
VERTEX
8
Sketch
10
-23.11
20
17.58
0
VERTEX
8
Sketch
10
-23.27
20
17.5
0
SEQEND
0
POLYLINE
66
1
8
Sketch
62
0
0
VERTEX
8
Sketch
10
-21.99
20
18.06
0
VERTEX
8
Sketch
10
-22.15
20
18.06
0
VERTEX
8
Sketch
10
-22.23
20
17.58
0
VERTEX
8
Sketch
10
-22.07
20
17.42
0
VERTEX
8
Sketch
10
-21.75
20
17.5
0
VERTEX
8
Sketch
10
-21.43
20
17.98
0
VERTEX
8
Sketch
10
-21.67
20
18.22
0
VERTEX
8
Sketch
10
-21.99
20
18.06
0
SEQEND
0
POLYLINE
66
1
8
Sketch
62
0
0
VERTEX
8
Sketch
10
-23.35
20
17.9
0
VERTEX
8
Sketch
10
-23.43
20
17.42
0
VERTEX
8
Sketch
10
-23.35
20
17.98
0
VERTEX
8
Sketch
10
-23.03
20
18.22
0
VERTEX
8
Sketch
10
-22.71
20
18.14
0
VERTEX
8
Sketch
10
-22.63
20
17.82
0
VERTEX
8
Sketch
10
-22.87
20
17.5
0
VERTEX
8
Sketch
10
-23.19
20
17.5
0
SEQEND
0
POLYLINE
66
1
8
Sketch
62
0
0
VERTEX
8
Sketch
10
-17.35
20
19.74
0
VERTEX
8
Sketch
10
-17.43
20
19.42
0
VERTEX
8
Sketch
10
-17.43
20
18.54
0
VERTEX
8
Sketch
10
-17.03
20
18.94
0
VERTEX
8
Sketch
10
-16.71
20
19.02
0
VERTEX
8
Sketch
10
-16.47
20
19.18
0
SEQEND
0
POLYLINE
66
1
8
Sketch
62
0
0
VERTEX
8
Sketch
10
-17.19
20
18.86
0
VERTEX
8
Sketch
10
-17.19
20
19.1
0
VERTEX
8
Sketch
10
-16.87
20
19.58
0
VERTEX
8
Sketch
10
-16.15
20
20.54
0
VERTEX
8
Sketch
10
-15.99
20
20.62
0
SEQEND
0
POLYLINE
66
1
8
Sketch
62
0
0
VERTEX
8
Sketch
10
-14.15
20
18.3
0
VERTEX
8
Sketch
10
-14.79
20
17.26
0
VERTEX
8
Sketch
10
-15.27
20
16.7
0
VERTEX
8
Sketch
10
-16.07
20
15.5
0
VERTEX
8
Sketch
10
-16.23
20
15.34
0
SEQEND
0
POLYLINE
66
1
8
Sketch
62
0
0
VERTEX
8
Sketch
10
-14.95
20
26.78
0
VERTEX
8
Sketch
10
-15.11
20
26.46
0
VERTEX
8
Sketch
10
-15.11
20
26.22
0
VERTEX
8
Sketch
10
-15.51
20
25.26
0
VERTEX
8
Sketch
10
-15.59
20
24.86
0
VERTEX
8
Sketch
10
-16.07
20
24.22
0
VERTEX
8
Sketch
10
-16.39
20
23.66
0
VERTEX
8
Sketch
10
-16.79
20
23.26
0
VERTEX
8
Sketch
10
-17.19
20
22.54
0
VERTEX
8
Sketch
10
-18.39
20
20.7
0
VERTEX
8
Sketch
10
-18.55
20
20.54
0
SEQEND
0
POLYLINE
66
1
8
Sketch
62
0
0
VERTEX
8
Sketch
10
-12.95
20
19.5
0
VERTEX
8
Sketch
10
-13.27
20
19.42
0
VERTEX
8
Sketch
10
-13.83
20
18.78
0
VERTEX
8
Sketch
10
-14.23
20
17.9
0
VERTEX
8
Sketch
10
-14.23
20
17.66
0
VERTEX
8
Sketch
10
-14.39
20
17.34
0
SEQEND
0
POLYLINE
66
1
8
Sketch
62
0
0
VERTEX
8
Sketch
10
-7.99
20
15.58
0
VERTEX
8
Sketch
10
-8.07
20
15.9
0
VERTEX
8
Sketch
10
-8.31
20
16.3
0
VERTEX
8
Sketch
10
-8.47
20
16.62
0
VERTEX
8
Sketch
10
-8.63
20
16.7
0
VERTEX
8
Sketch
10
-8.71
20
17.02
0
VERTEX
8
Sketch
10
-9.51
20
17.98
0
VERTEX
8
Sketch
10
-10.07
20
18.38
0
VERTEX
8
Sketch
10
-10.23
20
18.38
0
VERTEX
8
Sketch
10
-10.39
20
18.54
0
VERTEX
8
Sketch
10
-10.55
20
18.54
0
VERTEX
8
Sketch
10
-11.35
20
19.1
0
VERTEX
8
Sketch
10
-11.67
20
19.34
0
VERTEX
8
Sketch
10
-11.83
20
19.26
0
VERTEX
8
Sketch
10
-11.91
20
19.5
0
VERTEX
8
Sketch
10
-12.07
20
19.42
0
VERTEX
8
Sketch
10
-12.39
20
19.5
0
VERTEX
8
Sketch
10
-12.71
20
19.42
0
VERTEX
8
Sketch
10
-13.19
20
19.42
0
VERTEX
8
Sketch
10
-13.35
20
19.34
0
SEQEND
0
POLYLINE
66
1
8
Sketch
62
0
0
VERTEX
8
Sketch
10
-7.75
20
15.26
0
VERTEX
8
Sketch
10
-7.99
20
15.82
0
SEQEND
0
POLYLINE
66
1
8
Sketch
62
0
0
VERTEX
8
Sketch
10
-8.23
20
22.54
0
VERTEX
8
Sketch
10
-8.15
20
22.22
0
VERTEX
8
Sketch
10
-7.83
20
21.9
0
SEQEND
0
POLYLINE
66
1
8
Sketch
62
0
0
VERTEX
8
Sketch
10
-8.63
20
22.22
0
VERTEX
8
Sketch
10
-8.55
20
21.9
0
VERTEX
8
Sketch
10
-8.23
20
21.58
0
SEQEND
0
POLYLINE
66
1
8
Sketch
62
0
0
VERTEX
8
Sketch
10
-9.11
20
21.9
0
VERTEX
8
Sketch
10
-8.79
20
21.42
0
VERTEX
8
Sketch
10
-8.63
20
21.26
0
SEQEND
0
POLYLINE
66
1
8
Sketch
62
0
0
VERTEX
8
Sketch
10
-9.11
20
21.74
0
VERTEX
8
Sketch
10
-9.11
20
21.74
0
VERTEX
8
Sketch
10
-8.87
20
21.5
0
VERTEX
8
Sketch
10
-8.79
20
21.34
0
SEQEND
0
POLYLINE
66
1
8
Sketch
62
0
0
VERTEX
8
Sketch
10
-9.83
20
21.66
0
VERTEX
8
Sketch
10
-9.27
20
21.02
0
VERTEX
8
Sketch
10
-9.19
20
20.78
0
VERTEX
8
Sketch
10
-9.19
20
20.94
0
SEQEND
0
POLYLINE
66
1
8
Sketch
62
0
0
VERTEX
8
Sketch
10
-9.99
20
21.02
0
VERTEX
8
Sketch
10
-9.67
20
20.54
0
VERTEX
8
Sketch
10
-9.59
20
20.7
0
SEQEND
0
POLYLINE
66
1
8
Sketch
62
0
0
VERTEX
8
Sketch
10
-10.07
20
21.1
0
VERTEX
8
Sketch
10
-9.83
20
20.86
0
VERTEX
8
Sketch
10
-9.75
20
20.7
0
SEQEND
0
POLYLINE
66
1
8
Sketch
62
0
0
VERTEX
8
Sketch
10
-7.59
20
20.38
0
VERTEX
8
Sketch
10
-7.83
20
19.82
0
VERTEX
8
Sketch
10
-8.07
20
19.5
0
VERTEX
8
Sketch
10
-7.83
20
19.82
0
VERTEX
8
Sketch
10
-7.51
20
19.9
0
VERTEX
8
Sketch
10
-7.35
20
20.06
0
VERTEX
8
Sketch
10
-7.99
20
19.66
0
VERTEX
8
Sketch
10
-8.07
20
19.58
0
VERTEX
8
Sketch
10
-7.59
20
19.98
0
VERTEX
8
Sketch
10
-7.59
20
19.98
0
VERTEX
8
Sketch
10
-8.23
20
19.42
0
SEQEND
0
POLYLINE
66
1
8
Sketch
62
0
0
VERTEX
8
Sketch
10
-5.19
20
22.14
0
VERTEX
8
Sketch
10
-5.11
20
21.98
0
VERTEX
8
Sketch
10
-5.51
20
21.58
0
VERTEX
8
Sketch
10
-5.03
20
22.22
0
VERTEX
8
Sketch
10
-5.27
20
21.74
0
VERTEX
8
Sketch
10
-5.43
20
21.66
0
VERTEX
8
Sketch
10
-5.51
20
21.42
0
VERTEX
8
Sketch
10
-5.99
20
21.02
0
VERTEX
8
Sketch
10
-5.91
20
21.26
0
VERTEX
8
Sketch
10
-5.11
20
21.82
0
SEQEND
0
POLYLINE
66
1
8
Sketch
62
0
0
VERTEX
8
Sketch
10
-4.63
20
21.66
0
VERTEX
8
Sketch
10
-5.43
20
21.34
0
VERTEX
8
Sketch
10
-5.59
20
21.42
0
VERTEX
8
Sketch
10
-5.75
20
21.26
0
VERTEX
8
Sketch
10
-5.43
20
21.42
0
VERTEX
8
Sketch
10
-5.27
20
21.34
0
VERTEX
8
Sketch
10
-4.79
20
21.5
0
VERTEX
8
Sketch
10
-5.75
20
21.18
0
VERTEX
8
Sketch
10
-5.35
20
21.66
0
SEQEND
0
POLYLINE
66
1
8
Sketch
62
0
0
VERTEX
8
Sketch
10
-7.91
20
19.98
0
VERTEX
8
Sketch
10
-7.91
20
20.14
0
VERTEX
8
Sketch
10
-7.59
20
20.46
0
VERTEX
8
Sketch
10
-7.67
20
20.3
0
VERTEX
8
Sketch
10
-7.59
20
20.14
0
VERTEX
8
Sketch
10
-7.51
20
20.46
0
VERTEX
8
Sketch
10
-7.59
20
19.98
0
VERTEX
8
Sketch
10
-7.67
20
20.3
0
VERTEX
8
Sketch
10
-7.75
20
19.98
0
VERTEX
8
Sketch
10
-7.35
20
20.38
0
VERTEX
8
Sketch
10
-7.43
20
20.22
0
VERTEX
8
Sketch
10
-7.43
20
20.7
0
VERTEX
8
Sketch
10
-7.51
20
20.54
0
VERTEX
8
Sketch
10
-7.35
20
20.38
0
VERTEX
8
Sketch
10
-7.43
20
20.54
0
VERTEX
8
Sketch
10
-7.19
20
20.22
0
VERTEX
8
Sketch
10
-7.19
20
20.38
0
VERTEX
8
Sketch
10
-7.27
20
20.22
0
VERTEX
8
Sketch
10
-7.43
20
20.22
0
VERTEX
8
Sketch
10
-8.07
20
19.58
0
VERTEX
8
Sketch
10
-8.07
20
19.82
0
VERTEX
8
Sketch
10
-7.43
20
20.22
0
VERTEX
8
Sketch
10
-7.27
20
20.22
0
VERTEX
8
Sketch
10
-7.91
20
19.74
0
VERTEX
8
Sketch
10
-7.43
20
20.22
0
VERTEX
8
Sketch
10
-7.11
20
20.22
0
VERTEX
8
Sketch
10
-7.27
20
20.14
0
VERTEX
8
Sketch
10
-7.11
20
20.14
0
VERTEX
8
Sketch
10
-7.75
20
19.74
0
VERTEX
8
Sketch
10
-7.91
20
19.74
0
VERTEX
8
Sketch
10
-7.27
20
20.06
0
VERTEX
8
Sketch
10
-7.59
20
19.98
0
VERTEX
8
Sketch
10
-7.91
20
19.82
0
VERTEX
8
Sketch
10
-7.51
20
20.46
0
VERTEX
8
Sketch
10
-7.51
20
20.46
0
VERTEX
8
Sketch
10
-7.83
20
19.9
0
VERTEX
8
Sketch
10
-7.59
20
20.78
0
VERTEX
8
Sketch
10
-7.43
20
20.3
0
VERTEX
8
Sketch
10
-7.43
20
20.3
0
VERTEX
8
Sketch
10
-7.35
20
20.14
0
VERTEX
8
Sketch
10
-7.43
20
19.98
0
VERTEX
8
Sketch
10
-7.59
20
19.98
0
VERTEX
8
Sketch
10
-7.43
20
19.9
0
VERTEX
8
Sketch
10
-7.35
20
20.06
0
SEQEND
0
POLYLINE
66
1
8
Sketch
62
0
0
VERTEX
8
Sketch
10
-7.51
20
20.86
0
VERTEX
8
Sketch
10
-7.51
20
20.7
0
VERTEX
8
Sketch
10
-7.67
20
20.62
0
VERTEX
8
Sketch
10
-7.75
20
20.22
0
VERTEX
8
Sketch
10
-7.99
20
19.9
0
VERTEX
8
Sketch
10
-7.99
20
19.74
0
VERTEX
8
Sketch
10
-8.47
20
19.1
0
VERTEX
8
Sketch
10
-8.23
20
19.34
0
VERTEX
8
Sketch
10
-7.59
20
19.82
0
VERTEX
8
Sketch
10
-7.43
20
19.82
0
VERTEX
8
Sketch
10
-6.95
20
20.22
0
SEQEND
0
POLYLINE
66
1
8
Sketch
62
0
0
VERTEX
8
Sketch
10
-7.43
20
20.62
0
VERTEX
8
Sketch
10
-6.87
20
20.06
0
VERTEX
8
Sketch
10
-6.79
20
19.9
0
SEQEND
0
POLYLINE
66
1
8
Sketch
62
0
0
VERTEX
8
Sketch
10
-5.67
20
21.66
0
VERTEX
8
Sketch
10
-5.67
20
21.66
0
VERTEX
8
Sketch
10
-5.59
20
21.82
0
VERTEX
8
Sketch
10
-5.67
20
21.5
0
VERTEX
8
Sketch
10
-5.51
20
21.82
0
VERTEX
8
Sketch
10
-5.51
20
21.66
0
VERTEX
8
Sketch
10
-5.43
20
21.82
0
VERTEX
8
Sketch
10
-5.35
20
21.66
0
VERTEX
8
Sketch
10
-5.35
20
21.66
0
VERTEX
8
Sketch
10
-5.19
20
22.06
0
VERTEX
8
Sketch
10
-5.19
20
21.66
0
VERTEX
8
Sketch
10
-5.27
20
21.5
0
VERTEX
8
Sketch
10
-5.11
20
22.06
0
VERTEX
8
Sketch
10
-5.11
20
21.74
0
VERTEX
8
Sketch
10
-4.87
20
22.22
0
VERTEX
8
Sketch
10
-4.87
20
21.9
0
VERTEX
8
Sketch
10
-4.95
20
21.74
0
VERTEX
8
Sketch
10
-4.79
20
22.3
0
VERTEX
8
Sketch
10
-4.79
20
21.9
0
VERTEX
8
Sketch
10
-4.95
20
21.98
0
VERTEX
8
Sketch
10
-5.67
20
21.34
0
VERTEX
8
Sketch
10
-5.83
20
21.26
0
VERTEX
8
Sketch
10
-5.43
20
21.66
0
VERTEX
8
Sketch
10
-5.03
20
22.06
0
VERTEX
8
Sketch
10
-5.11
20
22.38
0
VERTEX
8
Sketch
10
-4.95
20
21.66
0
VERTEX
8
Sketch
10
-4.95
20
21.98
0
VERTEX
8
Sketch
10
-5.11
20
22.38
0
VERTEX
8
Sketch
10
-4.71
20
21.82
0
VERTEX
8
Sketch
10
-5.19
20
21.66
0
VERTEX
8
Sketch
10
-5.51
20
21.34
0
VERTEX
8
Sketch
10
-5.83
20
21.26
0
VERTEX
8
Sketch
10
-5.35
20
21.58
0
VERTEX
8
Sketch
10
-5.03
20
21.58
0
VERTEX
8
Sketch
10
-4.87
20
21.66
0
VERTEX
8
Sketch
10
-4.87
20
21.66
0
VERTEX
8
Sketch
10
-5.75
20
21.26
0
VERTEX
8
Sketch
10
-5.91
20
21.34
0
VERTEX
8
Sketch
10
-5.99
20
21.18
0
VERTEX
8
Sketch
10
-5.67
20
21.26
0
VERTEX
8
Sketch
10
-5.03
20
21.66
0
VERTEX
8
Sketch
10
-4.71
20
21.66
0
VERTEX
8
Sketch
10
-4.63
20
21.82
0
VERTEX
8
Sketch
10
-4.95
20
22.3
0
VERTEX
8
Sketch
10
-4.95
20
21.98
0
VERTEX
8
Sketch
10
-4.79
20
21.66
0
SEQEND
0
POLYLINE
66
1
8
Sketch
62
0
0
VERTEX
8
Sketch
10
-5.11
20
22.46
0
VERTEX
8
Sketch
10
-5.27
20
22.06
0
VERTEX
8
Sketch
10
-5.75
20
21.42
0
VERTEX
8
Sketch
10
-5.99
20
21.02
0
VERTEX
8
Sketch
10
-6.15
20
20.86
0
VERTEX
8
Sketch
10
-6.07
20
21.02
0
VERTEX
8
Sketch
10
-5.91
20
21.02
0
VERTEX
8
Sketch
10
-5.43
20
21.34
0
VERTEX
8
Sketch
10
-5.27
20
21.34
0
VERTEX
8
Sketch
10
-5.11
20
21.5
0
VERTEX
8
Sketch
10
-4.79
20
21.58
0
VERTEX
8
Sketch
10
-4.63
20
21.5
0
SEQEND
0
POLYLINE
66
1
8
Sketch
62
0
0
VERTEX
8
Sketch
10
-4.95
20
22.38
0
VERTEX
8
Sketch
10
-4.47
20
21.5
0
VERTEX
8
Sketch
10
-4.47
20
21.34
0
VERTEX
8
Sketch
10
-4.31
20
21.18
0
SEQEND
0
POLYLINE
66
1
8
Sketch
62
0
0
VERTEX
8
Sketch
10
-4.63
20
15.74
0
VERTEX
8
Sketch
10
-4.79
20
15.74
0
VERTEX
8
Sketch
10
-5.59
20
17.5
0
VERTEX
8
Sketch
10
-5.59
20
18.14
0
VERTEX
8
Sketch
10
-5.11
20
18.78
0
VERTEX
8
Sketch
10
-4.55
20
19.26
0
VERTEX
8
Sketch
10
-3.43
20
20.14
0
VERTEX
8
Sketch
10
-2.63
20
21.1
0
VERTEX
8
Sketch
10
-2.47
20
21.58
0
VERTEX
8
Sketch
10
-2.39
20
22.3
0
VERTEX
8
Sketch
10
-2.79
20
22.7
0
VERTEX
8
Sketch
10
-3.43
20
22.78
0
VERTEX
8
Sketch
10
-4.23
20
22.94
0
VERTEX
8
Sketch
10
-4.87
20
22.94
0
VERTEX
8
Sketch
10
-5.19
20
23.02
0
VERTEX
8
Sketch
10
-5.51
20
22.86
0
VERTEX
8
Sketch
10
-5.83
20
22.94
0
VERTEX
8
Sketch
10
-6.63
20
22.62
0
VERTEX
8
Sketch
10
-6.95
20
22.38
0
VERTEX
8
Sketch
10
-7.11
20
22.38
0
VERTEX
8
Sketch
10
-8.23
20
21.58
0
VERTEX
8
Sketch
10
-8.71
20
21.1
0
VERTEX
8
Sketch
10
-9.51
20
20.46
0
VERTEX
8
Sketch
10
-9.51
20
20.3
0
VERTEX
8
Sketch
10
-9.67
20
20.3
0
VERTEX
8
Sketch
10
-9.83
20
20.14
0
SEQEND
0
POLYLINE
66
1
8
Sketch
62
0
0
VERTEX
8
Sketch
10
-3.35
20
7.42
0
VERTEX
8
Sketch
10
-3.51
20
7.34
0
VERTEX
8
Sketch
10
-4.47
20
7.66
0
VERTEX
8
Sketch
10
-4.63
20
7.66
0
VERTEX
8
Sketch
10
-4.79
20
7.82
0
VERTEX
8
Sketch
10
-5.19
20
7.9
0
VERTEX
8
Sketch
10
-5.27
20
8.06
0
VERTEX
8
Sketch
10
-5.43
20
8.06
0
VERTEX
8
Sketch
10
-5.91
20
8.38
0
VERTEX
8
Sketch
10
-7.19
20
9.42
0
VERTEX
8
Sketch
10
-7.27
20
9.58
0
VERTEX
8
Sketch
10
-7.51
20
9.66
0
VERTEX
8
Sketch
10
-7.75
20
10.22
0
VERTEX
8
Sketch
10
-8.07
20
10.7
0
VERTEX
8
Sketch
10
-8.15
20
11.02
0
VERTEX
8
Sketch
10
-8.31
20
11.5
0
VERTEX
8
Sketch
10
-8.31
20
12.7
0
VERTEX
8
Sketch
10
-7.91
20
13.34
0
VERTEX
8
Sketch
10
-7.51
20
13.98
0
VERTEX
8
Sketch
10
-7.51
20
14.78
0
VERTEX
8
Sketch
10
-7.67
20
15.42
0
SEQEND
0
POINT
8
Sketch
62
0
10
-3.27
20
7.42
0
POLYLINE
66
1
8
Sketch
62
0
0
VERTEX
8
Sketch
10
1.77
20
5.02
0
VERTEX
8
Sketch
10
1.21
20
5.58
0
VERTEX
8
Sketch
10
0.57
20
5.98
0
VERTEX
8
Sketch
10
0.25
20
6.06
0
VERTEX
8
Sketch
10
-0.47
20
6.46
0
VERTEX
8
Sketch
10
-0.63
20
6.46
0
VERTEX
8
Sketch
10
-1.11
20
6.78
0
VERTEX
8
Sketch
10
-1.59
20
6.86
0
VERTEX
8
Sketch
10
-1.91
20
7.1
0
VERTEX
8
Sketch
10
-2.07
20
7.1
0
VERTEX
8
Sketch
10
-2.23
20
7.26
0
VERTEX
8
Sketch
10
-2.87
20
7.34
0
VERTEX
8
Sketch
10
-3.03
20
7.26
0
VERTEX
8
Sketch
10
-3.35
20
7.34
0
SEQEND
0
POLYLINE
66
1
8
Sketch
62
0
0
VERTEX
8
Sketch
10
3.05
20
-0.34
0
VERTEX
8
Sketch
10
2.65
20
0.3
0
VERTEX
8
Sketch
10
2.41
20
0.54
0
VERTEX
8
Sketch
10
2.25
20
0.54
0
VERTEX
8
Sketch
10
1.93
20
0.78
0
VERTEX
8
Sketch
10
1.77
20
0.78
0
VERTEX
8
Sketch
10
1.53
20
1.02
0
VERTEX
8
Sketch
10
1.29
20
1.02
0
VERTEX
8
Sketch
10
1.05
20
1.34
0
VERTEX
8
Sketch
10
0.73
20
1.34
0
VERTEX
8
Sketch
10
0.33
20
1.82
0
VERTEX
8
Sketch
10
0.09
20
2.54
0
VERTEX
8
Sketch
10
0.33
20
3.18
0
VERTEX
8
Sketch
10
1.45
20
4.3
0
VERTEX
8
Sketch
10
1.93
20
4.86
0
VERTEX
8
Sketch
10
1.93
20
5.02
0
VERTEX
8
Sketch
10
1.77
20
5.18
0
SEQEND
0
POLYLINE
66
1
8
Sketch
62
0
0
VERTEX
8
Sketch
10
2.97
20
-0.02
0
VERTEX
8
Sketch
10
3.29
20
-0.5
0
VERTEX
8
Sketch
10
3.53
20
-0.9
0
VERTEX
8
Sketch
10
4.25
20
-1.86
0
VERTEX
8
Sketch
10
4.89
20
-2.34
0
VERTEX
8
Sketch
10
5.93
20
-3.62
0
VERTEX
8
Sketch
10
6.49
20
-4.18
0
VERTEX
8
Sketch
10
6.81
20
-4.5
0
VERTEX
8
Sketch
10
7.13
20
-5.06
0
VERTEX
8
Sketch
10
7.53
20
-5.46
0
VERTEX
8
Sketch
10
7.93
20
-5.94
0
VERTEX
8
Sketch
10
8.09
20
-6.34
0
VERTEX
8
Sketch
10
8.57
20
-6.82
0
VERTEX
8
Sketch
10
9.29
20
-7.86
0
VERTEX
8
Sketch
10
10.09
20
-8.98
0
VERTEX
8
Sketch
10
10.57
20
-9.78
0
VERTEX
8
Sketch
10
10.57
20
-9.94
0
VERTEX
8
Sketch
10
10.97
20
-10.42
0
VERTEX
8
Sketch
10
11.05
20
-10.66
0
VERTEX
8
Sketch
10
11.21
20
-10.74
0
VERTEX
8
Sketch
10
11.37
20
-11.54
0
SEQEND
0
POLYLINE
66
1
8
Sketch
62
0
0
VERTEX
8
Sketch
10
0.73
20
10.62
0
VERTEX
8
Sketch
10
0.73
20
10.46
0
VERTEX
8
Sketch
10
-0.07
20
11.02
0
VERTEX
8
Sketch
10
-0.23
20
11.02
0
VERTEX
8
Sketch
10
-0.47
20
11.26
0
VERTEX
8
Sketch
10
-0.63
20
11.26
0
VERTEX
8
Sketch
10
-0.79
20
11.5
0
VERTEX
8
Sketch
10
-0.95
20
11.42
0
VERTEX
8
Sketch
10
-1.27
20
11.74
0
VERTEX
8
Sketch
10
-1.75
20
11.98
0
VERTEX
8
Sketch
10
-2.15
20
12.38
0
VERTEX
8
Sketch
10
-3.11
20
13.34
0
VERTEX
8
Sketch
10
-3.11
20
13.5
0
VERTEX
8
Sketch
10
-3.35
20
13.74
0
VERTEX
8
Sketch
10
-4.23
20
14.94
0
VERTEX
8
Sketch
10
-4.47
20
15.34
0
VERTEX
8
Sketch
10
-4.55
20
15.66
0
VERTEX
8
Sketch
10
-4.71
20
15.82
0
SEQEND
0
POLYLINE
66
1
8
Sketch
62
0
0
VERTEX
8
Sketch
10
4.17
20
6.62
0
VERTEX
8
Sketch
10
3.93
20
7.02
0
VERTEX
8
Sketch
10
3.85
20
7.58
0
VERTEX
8
Sketch
10
3.69
20
7.74
0
VERTEX
8
Sketch
10
3.61
20
8.06
0
VERTEX
8
Sketch
10
3.13
20
8.78
0
VERTEX
8
Sketch
10
3.13
20
8.94
0
VERTEX
8
Sketch
10
2.33
20
9.58
0
VERTEX
8
Sketch
10
2.17
20
9.58
0
VERTEX
8
Sketch
10
1.53
20
10.06
0
VERTEX
8
Sketch
10
1.21
20
10.14
0
VERTEX
8
Sketch
10
0.73
20
10.38
0
SEQEND
0
POLYLINE
66
1
8
Sketch
62
0
0
VERTEX
8
Sketch
10
4.09
20
6.7
0
VERTEX
8
Sketch
10
4.17
20
6.46
0
VERTEX
8
Sketch
10
4.01
20
6.78
0
SEQEND
0
POLYLINE
66
1
8
Sketch
62
0
0
VERTEX
8
Sketch
10
4.25
20
6.62
0
VERTEX
8
Sketch
10
4.25
20
5.74
0
VERTEX
8
Sketch
10
4.33
20
5.42
0
VERTEX
8
Sketch
10
4.33
20
5.02
0
VERTEX
8
Sketch
10
4.41
20
4.7
0
VERTEX
8
Sketch
10
4.57
20
3.98
0
VERTEX
8
Sketch
10
5.05
20
3.18
0
VERTEX
8
Sketch
10
5.93
20
2.06
0
VERTEX
8
Sketch
10
6.09
20
2.06
0
VERTEX
8
Sketch
10
6.25
20
1.82
0
VERTEX
8
Sketch
10
6.41
20
1.82
0
VERTEX
8
Sketch
10
6.73
20
1.26
0
VERTEX
8
Sketch
10
7.29
20
0.78
0
VERTEX
8
Sketch
10
8.17
20
-0.1
0
VERTEX
8
Sketch
10
8.81
20
-0.98
0
VERTEX
8
Sketch
10
9.13
20
-1.06
0
VERTEX
8
Sketch
10
9.13
20
-1.22
0
VERTEX
8
Sketch
10
10.01
20
-1.94
0
VERTEX
8
Sketch
10
10.17
20
-1.94
0
VERTEX
8
Sketch
10
10.33
20
-2.26
0
VERTEX
8
Sketch
10
10.97
20
-2.58
0
VERTEX
8
Sketch
10
11.29
20
-2.5
0
VERTEX
8
Sketch
10
11.45
20
-2.34
0
VERTEX
8
Sketch
10
11.61
20
-2.42
0
VERTEX
8
Sketch
10
12.17
20
-1.86
0
VERTEX
8
Sketch
10
12.33
20
-1.86
0
VERTEX
8
Sketch
10
13.05
20
-1.14
0
VERTEX
8
Sketch
10
13.53
20
-0.98
0
VERTEX
8
Sketch
10
14.01
20
-0.66
0
VERTEX
8
Sketch
10
14.65
20
0.06
0
VERTEX
8
Sketch
10
14.81
20
0.06
0
SEQEND
0
LINE
8
Shots
62
1
10
4.994
20
-14.462
11
4.482
21
-14.992
0
CIRCLE
8
Shots
62
1
10
4.482
20
-14.992
40
0.1
0
LINE
8
Shots
62
1
10
5.49
20
-17.014
11
4.994
21
-14.462
0
CIRCLE
8
Shots
62
1
10
4.994
20
-14.462
40
0.1
0
LINE
8
Shots
62
1
10
3.284
20
-15.958
11
5.49
21
-17.014
0
CIRCLE
8
Shots
62
1
10
5.49
20
-17.014
40
0.1
0
LINE
8
Shots
62
1
10
3.284
20
-15.958
11
3.284
21
-15.958
0
CIRCLE
8
Shots
62
1
10
3.284
20
-15.958
40
0.1
0
LINE
8
Shots
62
1
10
-11.806
20
-33.346
11
-14.578
21
-34.006
0
CIRCLE
8
Shots
62
1
10
-14.578
20
-34.006
40
0.1
0
LINE
8
Shots
62
1
10
-5.51
20
-35.852
11
-11.806
21
-33.346
0
CIRCLE
8
Shots
62
1
10
-11.806
20
-33.346
40
0.1
0
LINE
8
Shots
62
1
10
-11.08
20
-27.53
11
-5.51
21
-35.852
0
CIRCLE
8
Shots
62
1
10
-5.51
20
-35.852
40
0.1
0
LINE
8
Shots
62
1
10
-6.222
20
-22.952
11
-11.08
21
-27.53
0
CIRCLE
8
Shots
62
1
10
-11.08
20
-27.53
40
0.1
0
LINE
8
Shots
62
1
10
-3.182
20
-20.27
11
-6.222
21
-22.952
0
CIRCLE
8
Shots
62
1
10
-6.222
20
-22.952
40
0.1
0
LINE
8
Shots
62
1
10
3.284
20
-15.958
11
-3.182
21
-20.27
0
CIRCLE
8
Shots
62
1
10
-3.182
20
-20.27
40
0.1
0
LINE
8
Shots
62
1
10
7.566
20
-13.304
11
3.284
21
-15.958
0
CIRCLE
8
Shots
62
1
10
3.284
20
-15.958
40
0.1
0
LINE
8
Shots
62
1
10
13.238
20
-18.322
11
7.566
21
-13.304
0
CIRCLE
8
Shots
62
1
10
7.566
20
-13.304
40
0.1
0
LINE
8
Shots
62
1
10
14.026
20
-15.516
11
13.238
21
-18.322
0
CIRCLE
8
Shots
62
1
10
13.238
20
-18.322
40
0.1
0
LINE
8
Shots
62
1
10
12.232
20
-11.206
11
14.026
21
-15.516
0
CIRCLE
8
Shots
62
1
10
14.026
20
-15.516
40
0.1
0
LINE
8
Shots
62
1
10
11.136
20
-2.886
11
12.232
21
-11.206
0
CIRCLE
8
Shots
62
1
10
12.232
20
-11.206
40
0.1
0
LINE
8
Shots
62
1
10
11.136
20
-2.886
11
11.136
21
-2.886
0
CIRCLE
8
Shots
62
1
10
11.136
20
-2.886
40
0.1
0
LINE
8
Shots
62
1
10
-8.192
20
26.436
11
-6.692
21
24.508
0
CIRCLE
8
Shots
62
1
10
-6.692
20
24.508
40
0.1
0
LINE
8
Shots
62
1
10
-12.254
20
23.828
11
-8.192
21
26.436
0
CIRCLE
8
Shots
62
1
10
-8.192
20
26.436
40
0.1
0
LINE
8
Shots
62
1
10
-14.464
20
25.91
11
-12.254
21
23.828
0
CIRCLE
8
Shots
62
1
10
-12.254
20
23.828
40
0.1
0
LINE
8
Shots
62
1
10
-13.462
20
21.39
11
-14.464
21
25.91
0
CIRCLE
8
Shots
62
1
10
-14.464
20
25.91
40
0.1
0
LINE
8
Shots
62
1
10
-10.116
20
19.458
11
-13.462
21
21.39
0
CIRCLE
8
Shots
62
1
10
-13.462
20
21.39
40
0.1
0
LINE
8
Shots
62
1
10
-4.32
20
14.276
11
-10.116
21
19.458
0
CIRCLE
8
Shots
62
1
10
-10.116
20
19.458
40
0.1
0
LINE
8
Shots
62
1
10
-7.564
20
10.964
11
-4.32
21
14.276
0
CIRCLE
8
Shots
62
1
10
-4.32
20
14.276
40
0.1
0
LINE
8
Shots
62
1
10
-1.212
20
8.096
11
-7.564
21
10.964
0
CIRCLE
8
Shots
62
1
10
-7.564
20
10.964
40
0.1
0
LINE
8
Shots
62
1
10
2.454
20
5.21
11
-1.212
21
8.096
0
CIRCLE
8
Shots
62
1
10
-1.212
20
8.096
40
0.1
0
LINE
8
Shots
62
1
10
3.04
20
-0.098
11
2.454
21
5.21
0
CIRCLE
8
Shots
62
1
10
2.454
20
5.21
40
0.1
0
LINE
8
Shots
62
1
10
11.136
20
-2.886
11
3.04
21
-0.098
0
CIRCLE
8
Shots
62
1
10
3.04
20
-0.098
40
0.1
0
LINE
8
Shots
62
1
10
9.654
20
-3.642
11
11.136
21
-2.886
0
CIRCLE
8
Shots
62
1
10
11.136
20
-2.886
40
0.1
0
LINE
8
Shots
62
1
10
4.278
20
-0.374
11
9.654
21
-3.642
0
CIRCLE
8
Shots
62
1
10
9.654
20
-3.642
40
0.1
0
LINE
8
Shots
62
1
10
0
20
0
11
4.278
21
-0.374
0
CIRCLE
8
Shots
62
1
10
4.278
20
-0.374
40
0.1
0
ENDSEC
0
EOF
