<?xml version="1.0" encoding="utf-8"?>
<!DOCTYPE svg PUBLIC "-//W3C//DTD SVG 1.1//EN" "http://www.w3.org/Graphics/SVG/1.1/DTD/svg11.dtd">
<svg version="1.1" id="Layer_1" xmlns="http://www.w3.org/2000/svg" xmlns:xlink="http://www.w3.org/1999/xlink" x="0px" y="0px" width="57mm" height="75mm" viewBox="0 0 57 75" enable-background="new 0 0 57 75" xml:space="preserve">
<symbol id="airflow" viewBox="-12 -12 24 24">
<path d="M-4.38,10.73l4.2-3.84V3.55L-4.07,7.13l-.31-.29L-.18,3V-6.89a3.37,3.37,0,0,0-1.68.53l1.68-4.15L0-11l.21.51h0v0l1.65,4.1A3.26,3.26,0,0,0,.24-6.89v14l-.08,0L-4.07,11Z"/>
<rect fill="none" x="-12" y="-12" width="24" height="24"/>
</symbol>
<symbol id="anastomosis" viewBox="-12 -12 24 24">
<path d="M2.23-4.78l.37.24L5.22-2.78l-.47.57L2.49-3.7l-4.61,8-.24.44-.37-.34L-5.22,2.3l.55-.52,2.1,1.82L2-4.39Z"/>
<rect fill="none" x="-12" y="-12" width="24" height="24"/>
</symbol>
<symbol id="bivouac" viewBox="-12 -12 24 24">
<path d="M.25-7.66l.24.58L.54-7l3.88.48-3.31.91L6,6H8.35v.48l-16.7.07V6.05h2.64L0-7.08Zm0,1.32L-5.13,6H-4l2.07-5L.2-4l2.09,5L4.37,6H5.44Z"/>
<rect fill="none" x="-12" y="-12" width="24" height="24"/>
</symbol>
<symbol id="bones" viewBox="-12 -12 24 24">
<path d="M2.44,4.27l-.16,0H2.13a.22.22,0,0,1-.11,0l-.1-.06a.39.39,0,0,1-.09-.11l-.08-.13a1.51,1.51,0,0,1-.06-.15l-.07-.17s0-.11-.08-.19-.06-.16-.08-.21a4.75,4.75,0,0,0-.38-.71c-.18-.29-.43-.64-.74-1A11.15,11.15,0,0,0-.7.32,6.73,6.73,0,0,0-2-.64a4.12,4.12,0,0,0-1.44-.52A1.64,1.64,0,0,1-5-2.19.72.72,0,0,1-5-2.44a1,1,0,0,1,0-.29A.52.52,0,0,1-4.87-3a.54.54,0,0,1,.35-.15L-4-3.22l.46,0a.54.54,0,0,0,.27-.06A.52.52,0,0,0-3-3.56a.74.74,0,0,0,.13-.31.54.54,0,0,1,.15-.26.54.54,0,0,1,.3-.15.83.83,0,0,1,.47,0,1.11,1.11,0,0,1,.35.4A7.46,7.46,0,0,1-1-2.76q.18.42.33.72a3.22,3.22,0,0,0,.39.57L.1-1a4.77,4.77,0,0,0,.58.43c.28.18.51.33.69.43l1,.56a1.84,1.84,0,0,0,.39.23A5.29,5.29,0,0,1,3.22.9l.43.26a3.7,3.7,0,0,1,.46.3l.36.29a2.28,2.28,0,0,1,.31.32A1,1,0,0,1,5,2.4c.2.48,0,.78-.47.91h0a8.48,8.48,0,0,0-1.12.09,1,1,0,0,0-.42.44A1,1,0,0,1,2.44,4.27Z"/>
<rect fill="none" x="-12" y="-12" width="24" height="24"/>
</symbol>
<symbol id="calcite" viewBox="-12 -12 24 24">
<path d="M2.36-2.22l.05.46.34,3.91L2,2.22,1.65-1.26-2.52-.06l-.23-.7L1.89-2.08Z"/>
<rect fill="none" x="-12" y="-12" width="24" height="24"/>
</symbol>
<symbol id="cauliflower" viewBox="-12 -12 24 24">
<path d="M5.58,3.22v-3A2.12,2.12,0,0,0,6.92-.43a1.78,1.78,0,0,0,.55-1.32,1.92,1.92,0,0,0-.65-1.42,2.19,2.19,0,0,0-1.53-.59,2.21,2.21,0,0,0-1.54.59,1.78,1.78,0,0,0-.64,1.42A1.86,1.86,0,0,0,3.65-.43,2.12,2.12,0,0,0,5,.23v3H.26v-3A2.17,2.17,0,0,0,1.61-.43a1.81,1.81,0,0,0,.54-1.32,1.91,1.91,0,0,0-.64-1.42A2.21,2.21,0,0,0,0-3.76a2.21,2.21,0,0,0-1.54.59,1.82,1.82,0,0,0-.64,1.42A1.83,1.83,0,0,0-1.66-.43,2.12,2.12,0,0,0-.32.23v3H-5v-3A2.12,2.12,0,0,0-3.71-.43a1.78,1.78,0,0,0,.55-1.32,1.92,1.92,0,0,0-.65-1.42,2.19,2.19,0,0,0-1.53-.59,2.21,2.21,0,0,0-1.54.59,1.83,1.83,0,0,0-.65,1.42A1.87,1.87,0,0,0-7-.43,2.12,2.12,0,0,0-5.64.23v3H-8v.54H8V3.22Z"/>
<rect fill="none" x="-12" y="-12" width="24" height="24"/>
</symbol>
<symbol id="clay" viewBox="-12 -12 24 24">
<path d="M1.85-1.33a3,3,0,0,1,1.67.48,3.23,3.23,0,0,1,1,1l.29.51-1,.43a3.81,3.81,0,0,0-.23-.4A3.74,3.74,0,0,0,2.93,0,1.77,1.77,0,0,0,1.85-.32a2.57,2.57,0,0,0-1.1.15A.86.86,0,0,0,.51.14,2.23,2.23,0,0,1,0,.88a2.55,2.55,0,0,1-1.45.43,3.16,3.16,0,0,1-2.75-1,4.28,4.28,0,0,1-.37-.57,3.91,3.91,0,0,1-.21-.47l0-.16,1-.22a1.87,1.87,0,0,0,.45.79A2.12,2.12,0,0,0-1.51.33,1.82,1.82,0,0,0-.69.14l.21-.36A1.53,1.53,0,0,1,.17-1,3.76,3.76,0,0,1,1.85-1.33Z"/>
<rect fill="none" x="-12" y="-12" width="24" height="24"/>
</symbol>
<symbol id="crystals" viewBox="-12 -12 24 24">
<path d="M-2.94-5.38,0-.72,2.94-5.38,3.62-5,.68-.36H6.56V.36H.68L3.62,5l-.68.36L0,.72-2.94,5.38-3.62,5-.68.36H-6.56V-.36H-.68L-3.62-5Z"/>
<rect fill="none" x="-12" y="-12" width="24" height="24"/>
</symbol>
<symbol id="curtain" viewBox="-12 -12 24 24">
<path d="M3.57-6.69l.52.53L.39-3V-.33L.1-.26a3.79,3.79,0,0,0-1,.41c-.58.3-.87.65-.87,1v.07A1.61,1.61,0,0,0-.84,2.48a3.69,3.69,0,0,0,.45.24L0,2.86l.13.05L.39,3V6.12H-.39V3.51a7.65,7.65,0,0,1-.9-.46A2.19,2.19,0,0,1-2.54,1.28V1.23A2,2,0,0,1-1.31-.48,5.32,5.32,0,0,1-.39-.86V-3l-3.7-3.14.52-.53L0-3.67Z"/>
<rect fill="none" x="-12" y="-12" width="24" height="24"/>
</symbol>
<symbol id="disk" viewBox="-12 -12 24 24">
<path d="M-.09-4.19a2.43,2.43,0,0,1,1.7.64A2,2,0,0,1,2.35-2,2.09,2.09,0,0,1,1.81-.55,2.44,2.44,0,0,1,.35.23l2.18,3.6-.68.33L0,1.14-1.48,4.19l-.71-.29L-.41.25A2.53,2.53,0,0,1-1.9-.47a2,2,0,0,1-.63-1.41,2,2,0,0,1,.67-1.61,2.46,2.46,0,0,1,1.72-.7ZM1.05-3.06.56-3.49l-.69,0A1.72,1.72,0,0,0-1.29-3a1.51,1.51,0,0,0-.45,1.08,1.36,1.36,0,0,0,.51,1A1.68,1.68,0,0,0-.07-.44v0l0,0A1.7,1.7,0,0,0,1.11-.92,1.36,1.36,0,0,0,1.56-2,1.47,1.47,0,0,0,1.05-3.06Z"/>
<rect fill="none" x="-12" y="-12" width="24" height="24"/>
</symbol>
<symbol id="entrance" viewBox="-12 -12 24 24">
<path d="M4.46,9H-4.46L0-9Z"/>
<rect fill="none" x="-12" y="-12" width="24" height="24"/>
</symbol>
<symbol id="flowstone" viewBox="-12 -12 24 24">
<rect x="-6" y="-0.21" width="12" height="0.42"/>
<rect fill="none" x="-12" y="-12" width="24" height="24"/>
</symbol>
<symbol id="flutes" viewBox="-12 -12 24 24">
<path d="M-7-1H7v.72H3.87A4.7,4.7,0,0,1,2.16,1.5,4.2,4.2,0,0,1,0,2.13,3.94,3.94,0,0,1-2.19,1.5,4.18,4.18,0,0,1-3.76-.27H-7Zm4.17.72A3.15,3.15,0,0,0-1.65,1,3.21,3.21,0,0,0,0,1.41,3.49,3.49,0,0,0,1.6,1,3.68,3.68,0,0,0,3-.27Z"/>
<rect fill="none" x="-12" y="-12" width="24" height="24"/>
</symbol>
<symbol id="gradient" viewBox="-12 -12 24 24">
<path d="M2.58-3.83,0-10-2.58-3.83A4.74,4.74,0,0,1-.17-4.5V10H.25V-4.5A6.65,6.65,0,0,1,2.58-3.83Z"/>
<rect fill="none" x="-12" y="-12" width="24" height="24"/>
</symbol>
<symbol id="guano" viewBox="-12 -12 24 24">
<path d="M-3.24-3a2.15,2.15,0,0,1,1.57.55A3.93,3.93,0,0,1-.59.24a4.32,4.32,0,0,1,2.75-2.3,2.68,2.68,0,0,1,2.23.36A2.36,2.36,0,0,1,5.5.19l-.79,0a1.72,1.72,0,0,0-.79-1.37,1.94,1.94,0,0,0-1.55-.24A3.53,3.53,0,0,0,.48,0,6.63,6.63,0,0,0-.69,3l-.79-.09a10.72,10.72,0,0,0,0-3.16A3.21,3.21,0,0,0-2.22-2,1.44,1.44,0,0,0-3.37-2.3,3.45,3.45,0,0,0-5-1.54l-.5-.55a4.29,4.29,0,0,1,2-.91A.9.9,0,0,1-3.24-3Z"/>
<rect fill="none" x="-12" y="-12" width="24" height="24"/>
</symbol>
<symbol id="helictites" viewBox="-12 -12 24 24">
<path d="M-4.59-7.92h.79v7.7l3.41,0V-7.92H.39V-.17L4.2-.12h.39v8H3.8V.6L.39.55V7.92H-.39V.55L-4.2.5l-.39,0v-8.4Z"/>
<rect fill="none" x="-12" y="-12" width="24" height="24"/>
</symbol>
<symbol id="human" viewBox="-12 -12 24 24">
<path d="M-3.59-3.29A5.13,5.13,0,0,1,0-4.66,5.13,5.13,0,0,1,3.59-3.29,4.3,4.3,0,0,1,5.09,0a4.3,4.3,0,0,1-1.5,3.29A5.13,5.13,0,0,1,0,4.66,5.13,5.13,0,0,1-3.59,3.29,4.3,4.3,0,0,1-5.09,0,4.3,4.3,0,0,1-3.59-3.29Zm.28.77A3.68,3.68,0,0,0-4.3,0a3.62,3.62,0,0,0,1,2.57L-.5.05ZM0-3.94A4.42,4.42,0,0,0-2.75-3L.16-.36H4.28A3.62,3.62,0,0,0,2.91-2.9,4.38,4.38,0,0,0,0-3.94ZM.16.46-2.7,3.07A4.42,4.42,0,0,0,0,3.94a4.37,4.37,0,0,0,2.87-1A3.78,3.78,0,0,0,4.28.46Z"/>
<rect fill="none" x="-12" y="-12" width="24" height="24"/>
</symbol>
<symbol id="karren" viewBox="-12 -12 24 24">
<path d="M1-5.84h0a1.37,1.37,0,0,1,1.06.68A3.33,3.33,0,0,1,2.5-3.79,25.79,25.79,0,0,1,2.36,0a18.61,18.61,0,0,0-.08,3.72,2.68,2.68,0,0,0,.41,1.2,1.13,1.13,0,0,0,.79.5A.92.92,0,0,0,4,4.94a4.43,4.43,0,0,0,.47-1.22c.16-.64.36-1.86.59-3.66a26.71,26.71,0,0,1,.64-3.69,4.62,4.62,0,0,1,.57-1.29,1.34,1.34,0,0,1,1-.59h0A1.28,1.28,0,0,1,8.37-5a2.17,2.17,0,0,1,.39,1.15A19.91,19.91,0,0,1,8.54-.53a21.51,21.51,0,0,0-.2,3.64A2.64,2.64,0,0,0,9.45,5.36,1.91,1.91,0,0,0,10.88,5a3.84,3.84,0,0,0,.7-1l.42.2-.1.18-.12.21-.11.18L11.52,5a.94.94,0,0,1-.14.16c-.06.07-.13.12-.19.18a2.5,2.5,0,0,1-1.85.41H9.29l0,0A3.06,3.06,0,0,1,7.87,3.13a22.11,22.11,0,0,1,.2-3.7,18.17,18.17,0,0,0,.22-3.28A1.85,1.85,0,0,0,8-4.79a.77.77,0,0,0-.67-.3.93.93,0,0,0-.64.42,4.51,4.51,0,0,0-.51,1.15A26.26,26.26,0,0,0,5.54.1c-.24,1.83-.45,3.07-.61,3.72a5.38,5.38,0,0,1-.51,1.34,1.33,1.33,0,0,1-.89.68H3.47A1.58,1.58,0,0,1,2.3,5.16a3.29,3.29,0,0,1-.49-1.4A20.27,20.27,0,0,1,1.89,0,23.45,23.45,0,0,0,2-3.75a2.94,2.94,0,0,0-.32-1.19A.93.93,0,0,0,1-5.42,1.1,1.1,0,0,0,.19-5,3.69,3.69,0,0,0-.43-3.76,20.78,20.78,0,0,0-1.07.07c-.2,2-.37,3.32-.49,3.86A4.48,4.48,0,0,1-2,5.26,1.06,1.06,0,0,1-3,5.81h0a1.9,1.9,0,0,1-1.29-.67,2.7,2.7,0,0,1-.58-1.31,14.92,14.92,0,0,1,0-3.6q0-.12.06-.54c0-.28,0-.47,0-.57s0-.28,0-.52,0-.42,0-.55,0-.28,0-.47,0-.36,0-.51,0-.29,0-.43A3.09,3.09,0,0,0-5-4.62a1.19,1.19,0,0,0-.67-.6,1.5,1.5,0,0,0-1.2.9A7,7,0,0,0-7.41-2.1c0,.39-.1,1-.14,1.76s-.11,1.47-.18,2.08A9.61,9.61,0,0,1-8,3.32h0l0,0A2.81,2.81,0,0,1-9.2,4.62a1.82,1.82,0,0,1-1.35.15A1.94,1.94,0,0,1-11.61,4,2.39,2.39,0,0,1-12,2.56l.47,0a1.92,1.92,0,0,0,.31,1.16,1.47,1.47,0,0,0,.81.62,1.3,1.3,0,0,0,1-.11A2.32,2.32,0,0,0-8.5,3.18a7.53,7.53,0,0,0,.29-1.5Q-8.1.8-8-.36c0-.78.1-1.37.16-1.78A7.23,7.23,0,0,1-7.28-4.5,1.93,1.93,0,0,1-5.65-5.66h.05l0,0a1.59,1.59,0,0,1,1,.84,3.47,3.47,0,0,1,.34,1.41,4.91,4.91,0,0,1,0,.57v.54c0,.15,0,.37,0,.66s0,.47,0,.58,0,.33-.06.68,0,.56-.06.63a14.78,14.78,0,0,0,0,3.49,2.58,2.58,0,0,0,.5,1.13,1.57,1.57,0,0,0,1,.5A.61.61,0,0,0-2.44,5,3.89,3.89,0,0,0-2,3.85C-1.9,3.31-1.74,2-1.53,0A20.65,20.65,0,0,1-.86-3.89,3.89,3.89,0,0,1-.18-5.26,1.58,1.58,0,0,1,1-5.84Z"/>
<rect fill="none" x="-12" y="-12" width="24" height="24"/>
</symbol>
<symbol id="moonmilk" viewBox="-12 -12 24 24">
<path d="M-4.78-3.06a3.39,3.39,0,0,1,1.5.34,2.48,2.48,0,0,1,1.1,1,3.74,3.74,0,0,1,1.62-.8,3.52,3.52,0,0,1,1.71,0,2.9,2.9,0,0,1,1.39.77A2.49,2.49,0,0,1,3.25-.37,4,4,0,0,1,5-.76a3.58,3.58,0,0,1,1.6.36A2.84,2.84,0,0,1,7.88.92a2.32,2.32,0,0,1,0,1.88.34.34,0,0,1-.37.26A.36.36,0,0,1,7.25,3a.32.32,0,0,1-.12-.25.21.21,0,0,1,0-.12,2,2,0,0,0,0-1.43,2,2,0,0,0-1-.9A2.81,2.81,0,0,0,4.68,0,2.78,2.78,0,0,0,3.12.56L2.46.25A1.7,1.7,0,0,0,2.15-1.1,2.15,2.15,0,0,0,1-1.81a2.85,2.85,0,0,0-1.58.06A3,3,0,0,0-2-.83l-.71-.12A1.74,1.74,0,0,0-3.55-2a2.36,2.36,0,0,0-1.39-.27,3.08,3.08,0,0,0-1.45.53A2.33,2.33,0,0,0-7.32-.56a.35.35,0,0,1-.37.24A.39.39,0,0,1-8-.42a.33.33,0,0,1-.1-.26v-.1A3,3,0,0,1-6.89-2.35,4,4,0,0,1-5-3Z"/>
<rect fill="none" x="-12" y="-12" width="24" height="24"/>
</symbol>
<symbol id="narrow" viewBox="-12 -12 24 24">
<path d="M-1.5,5V-5h0.64V5H-1.5z"/>
<path d="M0.86,5V-5H1.5V5H0.86z"/>
<rect fill="none" x="-12" y="-12" width="24" height="24"/>
</symbol>
<symbol id="paleoflow" viewBox="-12 -12 24 24">
<path d="M.38-12V.17A1.9,1.9,0,0,0,1,0,1.57,1.57,0,0,0,1.7-.72a1.86,1.86,0,0,0,.23-1c0-.09,0-.14.08-.16a.92.92,0,0,1,.24,0,.52.52,0,0,0,.25,0h.08A2.48,2.48,0,0,1,2,0,2.5,2.5,0,0,1,.38.77V7.21H2.09L0,12-1.8,7.23c.07,0,.59,0,1.53,0V.77A3,3,0,0,1-1.35.43a2.16,2.16,0,0,1-1-1,2.38,2.38,0,0,1-.24-1.33l.67,0a2,2,0,0,0,.15,1,1.73,1.73,0,0,0,.59.67A2.14,2.14,0,0,0-.27.16V-12Z"/>
<rect fill="none" x="-12" y="-12" width="24" height="24"/>
</symbol>
<symbol id="rain" viewBox="-12 -12 24 24">
<path d="M-4.14-6.34h0.71v4.69h-0.71V-6.34z"/>
<path d="M-0.35-6.34h0.71v4.69h-0.71V-6.34z"/>
<path d="M3.43-6.34h0.71v4.69H3.43V-6.34z"/>
<path d="M-4.14,1.65h0.71v4.69h-0.71V1.65z"/>
<path d="M-0.35,1.65h0.71v4.69h-0.71V1.65z"/>
<path d="M3.43,1.65h0.71v4.69H3.43V1.65z"/>
<rect fill="none" x="-12" y="-12" width="24" height="24"/>
</symbol>
<symbol id="rats" viewBox="-12 -12 24 24">
<path d="M8.78-2.32,7-2.27c-.51-.17-.65-.56-1.46-.45l-.25.45C3.59-2.75,2.59-3.66.56-3.62l-1.35.3A4.89,4.89,0,0,0-4.24,1.57c-.68.6-2.58.86-3.39.94a6.84,6.84,0,0,0-1.62.39,4.91,4.91,0,0,0-1,.52A1.75,1.75,0,0,0-11,4.61a1.16,1.16,0,0,0,.59,1.48,1.3,1.3,0,0,1,.14.12c.16-.52-.35-.92-.2-1.42a3.35,3.35,0,0,1,.27-.45,3.18,3.18,0,0,1,1.79-1c.63-.12,1.27-.22,1.91-.3.48-.07,1,0,1.4-.12A6.94,6.94,0,0,1-4,2.82,30.64,30.64,0,0,0,.41,2.69l2.16.15c.1-.09,0,0,.1-.15a.87.87,0,0,0-.9-.55c.86-1,2.27-.37,3.1-.05.5.19,1,0,1.25.4.11-.1.1-.07.15-.25.3,0,.31.07.6.15-.06-.49-.34-.64-1-.6a.78.78,0,0,1,0-.55C6.3.56,7.29.73,8.13.43a13.78,13.78,0,0,0,2.15-.9l.6-.85v-.2A16.9,16.9,0,0,0,8.78-2.32Z"/>
<rect fill="none" x="-12" y="-12" width="24" height="24"/>
</symbol>
<symbol id="sand" viewBox="-12 -12 24 24">
<path d="M-1.58,0.83c0.23,0.2,0.35,0.44,0.36,0.73c0.01,0.29-0.08,0.54-0.28,0.75c-0.2,0.21-0.46,0.32-0.78,0.33c-0.32,0.01-0.6-0.08-0.83-0.26C-3.36,2.19-3.49,1.95-3.5,1.67C-3.51,1.38-3.41,1.12-3.2,0.9c0.21-0.22,0.48-0.34,0.8-0.35C-2.08,0.54-1.81,0.64-1.58,0.83z"/>
<path d="M0.08-2.36c0.23,0.2,0.35,0.44,0.36,0.73c0.01,0.29-0.08,0.54-0.28,0.75c-0.2,0.21-0.46,0.32-0.78,0.33c-0.32,0.01-0.59-0.07-0.83-0.26s-0.37-0.42-0.38-0.71c-0.01-0.29,0.09-0.54,0.3-0.76c0.21-0.22,0.48-0.33,0.8-0.35C-0.42-2.65-0.14-2.56,0.08-2.36z"/>
<path d="M3.12,0.55c0.23,0.2,0.35,0.43,0.38,0.71c0.02,0.28-0.07,0.53-0.28,0.75C3,2.23,2.73,2.35,2.42,2.36C2.1,2.37,1.82,2.28,1.58,2.08C1.34,1.88,1.22,1.64,1.2,1.35c-0.01-0.29,0.09-0.54,0.3-0.75C1.72,0.4,1.99,0.29,2.3,0.28S2.89,0.36,3.12,0.55z"/>
<rect fill="none" x="-12" y="-12" width="24" height="24"/>
</symbol>
<symbol  id="scallops" viewBox="-12 -12 24 24">
<path d="M.05-3.74l.21,0A2.35,2.35,0,0,1,1.74-3a2,2,0,0,1,.59,1.55v0l0,0A9.59,9.59,0,0,1-.08,3.27l-.39.47-.27-.55A14.26,14.26,0,0,1-2.33-1.89v-.05l0-.05A2,2,0,0,1-1.44-3.3,2.42,2.42,0,0,1,.05-3.74ZM-.11-3A1.44,1.44,0,0,0-1.55-1.89,13.06,13.06,0,0,0-.29,2.33,8.6,8.6,0,0,0,1.55-1.54a1.41,1.41,0,0,0-.38-1A1.62,1.62,0,0,0,.18-3Z"/>
<rect fill="none" x="-12" y="-12" width="24" height="24"/>
</symbol>
<symbol  id="sink" viewBox="-12 -12 24 24">
<path d="M.72,9.41H.9c1.94,0,3.26-.54,3.94-1.51a3.61,3.61,0,0,0,.33-.69,2,2,0,0,0,.11-.54V6.46l.69,0a2.8,2.8,0,0,1-.58,1.78C4.58,9.39,3.1,10,.93,10H-.93q-3.25,0-4.46-1.8a2.74,2.74,0,0,1-.43-.83A2.37,2.37,0,0,1-6,6.67V6.43l.68,0A2.27,2.27,0,0,0-4.84,7.9c.68,1,2,1.47,3.93,1.48l.5,0ZM-1.46-10a.68.68,0,0,0,.16.41A2.77,2.77,0,0,0-.51-9l0,0a3.63,3.63,0,0,1,1,.7,1.15,1.15,0,0,1,.34.88c0,.58-.53,1.14-1.49,1.68-.68.42-1,.79-1,1.11s.3.61.84,1h0Q.61-2.86.46-1.78a3.51,3.51,0,0,1-1.55,2,.61.61,0,0,0-.26.41,1.67,1.67,0,0,0,.1.51,5.3,5.3,0,0,1,.32,1L.56,1.9.46,8.06-3.4,2.54l1.73-.28A6.16,6.16,0,0,0-2,1.39,1.7,1.7,0,0,1-2.09.58a1.21,1.21,0,0,1,.53-.82h0v0C-.75-.86-.33-1.38-.28-1.85s-.23-.87-.91-1.27h0C-2-3.6-2.37-4.1-2.4-4.61S-2-5.74-1.09-6.29C-.34-6.72.06-7.1.09-7.44a.67.67,0,0,0-.18-.43,3.17,3.17,0,0,0-.79-.58,2.93,2.93,0,0,1-1-.67A1.16,1.16,0,0,1-2.17-10Z"/>
<rect fill="none" x="-12" y="-12" width="24" height="24"/>
</symbol>
<symbol  id="spring" viewBox="-12 -12 24 24">
<path d="M-1.34-9.86,2.52-4.34.78-4.06a8,8,0,0,0,.29.87,1.4,1.4,0,0,1,.13.79,1.3,1.3,0,0,1-.52.84l0,0v0C-.13-.95-.55-.42-.61,0S-.37.91.31,1.3l0,0c.75.46,1.14,1,1.18,1.46S1.12,3.92.21,4.46C-.54,4.9-.94,5.29-1,5.64a.74.74,0,0,0,.18.43A3.2,3.2,0,0,0,0,6.62a3,3,0,0,1,1,.7,1.14,1.14,0,0,1,.31.86A1.74,1.74,0,0,1,.71,9.26H.92c1.92,0,3.22-.52,3.9-1.51a2.05,2.05,0,0,0,.35-.67,2.59,2.59,0,0,0,.1-.55l0-.19.65,0a2.84,2.84,0,0,1-.55,1.8C4.58,9.26,3.08,9.85.92,9.86H-.92c-2.17,0-3.66-.6-4.49-1.77a3.65,3.65,0,0,1-.4-.85A2.43,2.43,0,0,1-6,6.53V6.29l.66,0a2.08,2.08,0,0,0,.47,1.41c.68,1,2,1.5,3.91,1.51H-.4c.62-.43.94-.8,1-1.1a.76.76,0,0,0-.16-.43,3.25,3.25,0,0,0-.79-.51v0a3.8,3.8,0,0,1-1-.7,1.15,1.15,0,0,1-.34-.91q.06-.84,1.5-1.68c.68-.4,1-.77,1-1.1S.49,2.21,0,1.87c0,0,0,0,0,0C-1,1.32-1.44.69-1.34,0a3.58,3.58,0,0,1,1.55-2,.54.54,0,0,0,.23-.38A1.28,1.28,0,0,0,.37-3a4.57,4.57,0,0,1-.32-1l-1.49.24Z"/>
<rect fill="none" x="-12" y="-12" width="24" height="24"/>
</symbol>
<symbol  id="stalactite" viewBox="-12 -12 24 24">
<path d="M3.57-6.69l.52.53L.39-3V6.12H-.39V-3l-3.7-3.14.52-.53L0-3.67Z"/>
<rect fill="none" x="-12" y="-12" width="24" height="24"/>
</symbol>
<symbol  id="stalagmite" viewBox="-12 -12 24 24">
<path d="M.38-6.42V2.75L4.11,5.89l-.56.53L0,3.4l-3.57,3-.53-.53,3.7-3.14V-6.42Z"/>
<rect fill="none" x="-12" y="-12" width="24" height="24"/>
</symbol>
<symbol  id="stalagnate" viewBox="-12 -12 24 24">
<path d="M3.55-8.46l.56.53L.38-4.78v9L4.11,7.36l-.56.53L0,4.86l-3.57,3-.53-.53,3.7-3.14v-9l-3.7-3.15.53-.53L0-5.43Z"/>
<rect fill="none" x="-12" y="-12" width="24" height="24"/>
</symbol>
<symbol  id="straws" viewBox="-12 -12 24 24">
<path d="M-10.89-2.76H10.89V-2H9.63V.46H8.84V-2H8.29v5.6H7.5V-2H5.56V.7H4.77V-2H2.07V2.38H1.29V-2H-.1v3H-.89V-2H-3.2V4.11H-4V-2H-6.22L-6.16.75l-.79,0L-7-2H-8.32V2.33H-9.1V-2h-1.79Z"/>
<rect fill="none" x="-12" y="-12" width="24" height="24"/>
</symbol>
<symbol  id="water" viewBox="-12 -12 24 24">
<path d="M-1.72-9.86,2.11-4.32.38-4.06a6.49,6.49,0,0,0,.29.89,1.5,1.5,0,0,1,.13.79,1.2,1.2,0,0,1-.5.82h0l0,0C-.54-.94-1-.42-1,.05s.24.89.92,1.27h0c.77.48,1.17,1,1.19,1.49S.71,3.94-.2,4.49c-.75.43-1.13.81-1.15,1.15a.51.51,0,0,0,.18.43,2.66,2.66,0,0,0,.76.58,2.93,2.93,0,0,1,1,.67,1.16,1.16,0,0,1,.29.89C.84,8.75.42,9.3-.41,9.86l-.44-.55c.66-.45,1-.83,1-1.15A.47.47,0,0,0,0,7.75a2.84,2.84,0,0,0-.78-.53h0a3.87,3.87,0,0,1-1-.69,1.24,1.24,0,0,1-.34-.91c0-.58.54-1.14,1.52-1.68.66-.42,1-.79,1-1.11s-.3-.61-.84-1h0Q-1.9,1.06-1.74,0a3.44,3.44,0,0,1,1.54-2,.67.67,0,0,0,.27-.41A1.11,1.11,0,0,0,0-3a4.33,4.33,0,0,1-.31-1l-1.5.24Z"/>
<rect fill="none" x="-12" y="-12" width="24" height="24"/>
</symbol><g>
<desc></desc>
<g>
<line fill="none" stroke="#dddddd" stroke-width="0.1mm" x1="0.00" y1="23.00" x2="57.00" y2="23.00" />
<text x="54.20" y="22.80" font-size=".2mm" fill="#000000">0m</text>
<line fill="none" stroke="#dddddd" stroke-width="0.1mm" x1="0.00" y1="3.00" x2="57.00" y2="3.00" />
<text x="54.20" y="2.80" font-size=".2mm" fill="#000000">10m</text>
<line fill="none" stroke="#dddddd" stroke-width="0.1mm" x1="0.00" y1="43.00" x2="57.00" y2="43.00" />
<text x="54.20" y="42.80" font-size=".2mm" fill="#000000">-10m</text>
<line fill="none" stroke="#dddddd" stroke-width="0.1mm" x1="0.00" y1="63.00" x2="57.00" y2="63.00" />
<text x="54.20" y="62.80" font-size=".2mm" fill="#000000">-20m</text>
<line fill="none" stroke="#dddddd" stroke-width="0.1mm" x1="23.00" y1="0.00" x2="23.00" y2="75.00" />
<text x="23.40" y="2.00" font-size=".2mm" fill="#000000">0m</text>
<line fill="none" stroke="#dddddd" stroke-width="0.1mm" x1="3.00" y1="0.00" x2="3.00" y2="75.00" />
<text x="3.40" y="2.00" font-size=".2mm" fill="#000000">-10m</text>
<line fill="none" stroke="#dddddd" stroke-width="0.1mm" x1="43.00" y1="0.00" x2="43.00" y2="75.00" />
<text x="43.40" y="2.00" font-size=".2mm" fill="#000000">10m</text>
</g>
<g>
<path fill="none" stroke="#000000" stroke-width="0.06mm" d="M25.905783,30.665699 C25.840252,30.376534 25.829165,30.328495 25.665442,29.817894 C25.614883,29.660215 25.478497,29.533438 25.384624,29.408834 C24.855524,28.706524 24.275433,28.039112 23.80427,27.29669 C23.20032,26.34503 22.74906,25.303322 22.16671,24.338295 C21.953672,23.985264 21.656988,23.689371 21.422678,23.350086 C21.249104,23.09875 21.107502,22.82672 20.944443,22.568438 C20.57492,21.983131 20.830593,22.44827 20.602839,22.017916 L20.602839,22.017916" /><path fill="none" stroke="#000000" stroke-width="0.06mm" d="M25.508211,29.55983 C25.812233,29.837618 25.89679,29.864447 26.337303,29.975414 C26.40181,29.991665 26.469185,29.997107 26.535706,29.99693 C26.746515,29.99636 27.196892,29.918047 27.348743,29.898994 C27.48989,29.881287 27.47306,29.913881 27.613993,29.846138 C27.751001,29.780281 27.88213,29.702831 28.016197,29.631178 L28.016197,29.631178" /><path fill="none" stroke="#000000" stroke-width="0.06mm" d="M20.892218,22.38377 C20.879723,22.06369 20.65226,21.772003 20.703814,21.44696 C20.728111,21.293766 20.818571,21.177774 20.925098,21.069803 L20.925098,21.069803" /><path fill="none" stroke="#000000" stroke-width="0.06mm" d="M21.04467,21.298708 C21.088575,21.22583 21.11687,21.131447 21.196743,21.088379 C21.30749,21.028664 21.500187,21.080359 21.581112,21.171144 C22.273882,21.948341 22.97666,22.717434 23.640135,23.519785 C24.385616,24.421305 24.122347,24.279934 24.681969,25.172516 C24.89522,25.51265 25.14211,25.830654 25.361856,26.166628 C25.649822,26.606905 26.638355,28.246641 27.15301,28.865562 C27.428137,29.196428 27.742031,29.493034 28.036543,29.806772 L28.036543,29.806772" /><path fill="none" stroke="#000000" stroke-width="0.06mm" d="M21.944437,23.78989 C22.091492,23.767647 22.208054,23.739752 22.349234,23.764565 C22.808945,23.845356 23.082024,24.581718 23.233648,24.826523 C24.016693,26.090778 24.811169,27.348175 25.573349,28.625118 C25.681221,28.805843 25.728317,29.019402 25.84201,29.196522 C26.156128,29.685879 26.515867,30.144402 26.852797,30.61834 L26.852797,30.61834" /><path fill="none" stroke="#000000" stroke-width="0.06mm" d="M23.642336,23.44505 C23.779839,24.794935 23.908855,24.70098 24.972002,26.88157 C25.739952,28.45669 26.368298,29.340271 27.262325,30.68374 L27.262325,30.68374" /><path fill="none" stroke="#000000" stroke-width="0.06mm" d="M22.988363,24.299717 C23.091162,24.284891 23.091185,24.277557 23.12233,24.177937 L23.12233,24.177937" /><path fill="none" stroke="#000000" stroke-width="0.06mm" d="M23.262577,24.68171 C23.369362,24.632753 23.374977,24.606745 23.44783,24.505806 L23.44783,24.505806" /><path fill="none" stroke="#000000" stroke-width="0.06mm" d="M23.58703,25.315586 L23.739838,25.247929" /><path fill="none" stroke="#000000" stroke-width="0.06mm" d="M23.84136,25.77356 L23.979513,25.70174" /><path fill="none" stroke="#000000" stroke-width="0.06mm" d="M24.161625,26.253391 L24.2935,26.164917" /><path fill="none" stroke="#000000" stroke-width="0.06mm" d="M24.444214,26.771732 L24.634699,26.701996" /><path fill="none" stroke="#000000" stroke-width="0.06mm" d="M24.748781,27.291117 L24.89112,27.201603" /><path fill="none" stroke="#000000" stroke-width="0.06mm" d="M25.177896,27.978077 L25.267906,27.89481" /><path fill="none" stroke="#000000" stroke-width="0.06mm" d="M25.571426,28.614037 L25.70644,28.525562" /><path fill="none" stroke="#000000" stroke-width="0.06mm" d="M25.823662,29.11156 L25.95763,29.00956" /><path fill="none" stroke="#000000" stroke-width="0.06mm" d="M26.454775,29.35408 L26.180561,29.492512" /><path fill="none" stroke="#000000" stroke-width="0.06mm" d="M26.051826,28.844063 L25.913671,28.810757" /><path fill="none" stroke="#000000" stroke-width="0.06mm" d="M25.631084,28.101938 L25.514908,28.173756" /><path fill="none" stroke="#000000" stroke-width="0.06mm" d="M25.252207,27.529472 L25.103586,27.537798" /><path fill="none" stroke="#000000" stroke-width="0.06mm" d="M24.974852,26.920574 L24.802158,26.911207" /><path fill="none" stroke="#000000" stroke-width="0.06mm" d="M24.706917,26.428253 L24.498638,26.388699" /><path fill="none" stroke="#000000" stroke-width="0.06mm" d="M24.469334,25.877644 C24.37179,25.870588 24.3166,25.835167 24.243263,25.772518 L24.243263,25.772518" /><path fill="none" stroke="#000000" stroke-width="0.06mm" d="M24.137554,25.29685 C24.041252,25.307465 23.980354,25.274767 23.891598,25.237522 L23.891598,25.237522" /><path fill="none" stroke="#000000" stroke-width="0.06mm" d="M23.914623,24.86906 C23.84038,24.865314 23.782188,24.828531 23.720999,24.790997 L23.720999,24.790997" /><path fill="none" stroke="#000000" stroke-width="0.06mm" d="M23.720999,24.398598 C23.628979,24.377193 23.562416,24.31959 23.492834,24.260164 L23.492834,24.260164" /><path fill="none" stroke="#000000" stroke-width="0.06mm" d="M23.66448,23.92293 C23.530863,23.845417 23.61442,23.902548 23.440504,23.717882 L23.440504,23.717882" /><path fill="none" stroke="#000000" stroke-width="0.06mm" d="M22.191708,21.864788 C22.128933,21.838345 22.065763,21.801485 21.995378,21.810644 C21.931114,21.819008 21.870768,21.865284 21.82492,21.906948 C21.645573,22.06994 21.635006,22.336637 21.75402,22.537891 C21.786549,22.592897 21.831017,22.650217 21.890373,22.679127 C22.114521,22.788303 22.445498,22.66905 22.528318,22.42902 C22.540712,22.393099 22.554327,22.327559 22.548548,22.288967 C22.501728,21.97629 22.465252,21.994745 22.225315,21.748693 L22.225315,21.748693" /><path fill="none" stroke="#000000" stroke-width="0.06mm" d="M21.91047,22.228909 C22.14718,22.1941 22.00844,22.205454 22.327904,22.216595 L22.327904,22.216595" /><path fill="none" stroke="#000000" stroke-width="0.06mm" d="M23.057486,22.249077 C23.067015,22.184763 23.070742,22.119318 23.086073,22.056135 C23.191473,21.62175 23.572212,21.313477 23.901217,21.044607 C24.364838,20.665728 25.140556,20.374756 25.665083,20.200195 C26.266197,20.000145 26.8647,19.773846 27.48888,19.665422 C28.272528,19.529299 29.075323,19.546621 29.867035,19.470297 C29.943,19.462973 30.013855,19.427193 30.089153,19.414743 C31.122288,19.243952 30.568295,19.403408 31.193924,19.200668 L31.193924,19.200668" /><path fill="none" stroke="#000000" stroke-width="0.06mm" d="M22.984966,21.777655 L22.673658,22.407389" /><path fill="none" stroke="#000000" stroke-width="0.06mm" d="M22.97612,21.805798 C22.676092,21.771542 22.81578,22.123169 22.897919,21.99668 C22.902205,21.99008 22.885262,22.009054 22.87742,22.008385 C22.872318,22.00795 22.87094,21.999508 22.87108,21.994389 C22.871868,21.965757 22.895243,21.906244 22.90183,21.886715 L22.90183,21.886715" /><path fill="none" stroke="#000000" stroke-width="0.06mm" d="M23.080643,22.358952 L23.082735,22.35791" /><path fill="none" stroke="#000000" stroke-width="0.06mm" d="M23.082735,22.35791 C22.892181,22.720798 22.940536,22.597006 22.874458,23.00636 L22.874458,23.00636" /><path fill="none" stroke="#000000" stroke-width="0.06mm" d="M22.874458,23.083382 C22.866362,23.35396 22.819418,23.62617 22.85017,23.895115 C22.888731,24.23235 22.976175,24.564035 23.08069,24.886978 C23.288298,25.528463 23.65692,26.498129 24.113335,27.062403 C24.526968,27.573784 25.012571,28.022537 25.45694,28.50745 C25.856531,28.943499 26.233671,29.400349 26.64514,29.825209 C26.909992,30.098682 27.19393,30.3537 27.483902,30.600378 C27.562561,30.667292 27.65614,30.715034 27.747576,30.763039 C27.808342,30.79494 27.8746,30.81512 27.938858,30.839228 C27.985231,30.856623 28.052952,30.798773 28.083496,30.775257 L28.083496,30.775257" /><path fill="none" stroke="#000000" stroke-width="0.06mm" d="M29.683376,22.337029 C29.609118,22.34545 29.533026,22.343864 29.4606,22.362295 C28.41758,22.627728 29.342085,22.417475 28.886724,22.556108 C28.255913,22.748158 29.4219,22.23607 27.784153,22.996145 C27.602024,23.080671 27.465162,23.197737 27.38748,23.381605 C27.280903,23.633863 27.319574,24.106955 27.378445,24.365696 C27.444632,24.656595 27.540047,24.940063 27.62133,25.227112 C27.646698,25.316696 27.667606,25.407722 27.698402,25.495588 C27.724224,25.569263 27.76324,25.637753 27.790852,25.710777 C27.818256,25.783258 27.825094,25.864246 27.863283,25.931671 C28.00105,26.174915 28.163918,26.403069 28.315853,26.637722 C28.342148,26.678333 28.360554,26.685793 28.372398,26.7333 C28.40407,26.86033 28.401638,26.87346 28.409847,26.98264 L28.409847,26.98264" /><path fill="none" stroke="#000000" stroke-width="0.06mm" d="M29.598621,22.151876 C29.678253,22.016562 29.70029,22.008196 29.863258,21.927952 C29.915064,21.902443 29.986832,21.879519 30.047276,21.886276 C30.0618,21.887901 30.076187,21.891142 30.090149,21.895464 C30.731913,22.094084 29.935843,21.847778 30.495522,22.046774 C30.60849,22.08694 30.699911,22.069954 30.825031,22.06971 L30.825031,22.06971" /><path fill="none" stroke="#000000" stroke-width="0.06mm" d="M30.805481,22.093554 C31.09496,22.280312 31.364773,22.508837 31.564528,22.791624 C31.719542,23.011076 31.8258,23.425493 31.919304,23.604696 C32.112206,23.97439 32.30993,24.344992 32.556767,24.681076 C32.918266,25.173277 33.329273,25.627766 33.738255,26.081284 C34.135166,26.52142 34.21311,26.585718 34.10904,26.357174 L34.10904,26.357174" /><path fill="none" stroke="#000000" stroke-width="0.06mm" d="M31.241823,19.176678 C31.300701,19.226156 31.368025,19.267048 31.418453,19.325115 C31.562263,19.490713 31.692516,19.667788 31.822035,19.844788 C31.849464,19.882273 31.868221,19.92548 31.888382,19.967323 C32.15351,20.51759 32.43194,21.06184 32.677826,21.620966 C32.80834,21.917732 32.8813,22.238031 33.016556,22.532667 C33.395973,23.359203 33.83207,24.158716 34.220306,24.981146 C34.306976,25.164743 34.381844,25.519985 34.351093,25.716116 C34.33959,25.789501 34.25948,25.904716 34.243298,25.934792 L34.243298,25.934792" /><path fill="none" stroke="#000000" stroke-width="0.06mm" d="M34.396923,26.631914 C34.463493,24.882833 34.407413,26.982113 34.38377,25.658241 C34.378853,25.382896 34.433697,25.329601 34.376266,25.113136 L34.376266,25.113136" /><path fill="none" stroke="#000000" stroke-width="0.06mm" d="M33.646877,25.039959 C33.590622,24.902046 33.546535,24.758518 33.47811,24.62622 C33.35737,24.392763 33.215687,24.170717 33.080673,23.945211 C32.903084,23.654316 32.7255,23.36342 32.54791,23.072525 C32.52038,23.020071 32.495373,22.96621 32.465313,22.915161 C32.343277,22.707895 32.209167,22.507727 32.09175,22.297808 C31.829706,21.829334 31.589928,21.348621 31.327225,20.880518 C31.28684,20.80856 31.166576,20.65339 31.073338,20.616735 C30.77711,20.500278 30.534113,20.511244 30.210842,20.540361 C30.06894,20.553143 29.833889,20.608135 29.710896,20.68605 C29.358719,20.909143 29.018225,21.150496 28.680672,21.39515 C28.622482,21.437325 28.416449,21.627094 28.32353,21.708658 C27.762705,22.200954 27.653008,22.237736 27.287964,22.676727 C27.26981,22.698559 27.257126,22.724474 27.243523,22.749397 C27.17184,22.880747 27.113478,23.019821 27.03217,23.145441 C26.91683,23.323631 26.780758,23.487513 26.655054,23.65855 L26.655054,23.65855" /><path fill="none" stroke="#000000" stroke-width="0.06mm" d="M33.541016,24.742107 L33.484215,24.930832" /><path fill="none" stroke="#000000" stroke-width="0.06mm" d="M33.40934,24.297901 C33.292503,24.358946 33.220367,24.466572 33.147278,24.571358 L33.147278,24.571358" /><path fill="none" stroke="#000000" stroke-width="0.06mm" d="M33.080147,23.837004 L32.899414,23.985928" /><path fill="none" stroke="#000000" stroke-width="0.06mm" d="M32.743206,23.210491 C32.60303,23.274319 32.57395,23.315664 32.522453,23.459555 L32.522453,23.459555" /><path fill="none" stroke="#000000" stroke-width="0.06mm" d="M32.375282,22.454311 L32.19455,22.667429" /><path fill="none" stroke="#000000" stroke-width="0.06mm" d="M32.08611,22.19241 L31.94152,22.329779" /><path fill="none" stroke="#000000" stroke-width="0.06mm" d="M31.81759,21.698132 C31.708084,21.772635 31.66425,21.81865 31.642021,21.947197 L31.642021,21.947197" /><path fill="none" stroke="#000000" stroke-width="0.06mm" d="M31.38641,21.06777 C31.299114,21.288502 31.338821,21.159815 31.287006,21.45934 L31.287006,21.45934" /><path fill="none" stroke="#000000" stroke-width="0.06mm" d="M30.713821,20.45538 L30.702204,20.771202" /><path fill="none" stroke="#000000" stroke-width="0.06mm" d="M29.944412,20.671064 L30.056725,20.970198" /><path fill="none" stroke="#000000" stroke-width="0.06mm" d="M29.327335,21.040808 L29.464176,21.297577" /><path fill="none" stroke="#000000" stroke-width="0.06mm" d="M28.493376,21.500422 L28.614727,21.809826" /><path fill="none" stroke="#000000" stroke-width="0.06mm" d="M27.902119,22.073013 C27.946543,22.258947 27.918272,22.16734 27.98732,22.347754 L27.98732,22.347754" /><path fill="none" stroke="#000000" stroke-width="0.06mm" d="M26.882263,23.450567 C26.724861,24.180344 26.7689,23.849463 26.73958,24.861782 C26.738842,24.887268 26.743631,24.913143 26.75183,24.937286 C26.779106,25.017616 26.855257,25.180815 26.890345,25.266104 C26.903818,25.298853 26.912271,25.33372 26.928028,25.365433 C26.985142,25.480394 27.060907,25.58639 27.108667,25.705542 C27.689972,27.155813 26.893496,25.457254 27.54567,26.783943 C27.56477,26.8228 27.58052,26.863262 27.60012,26.901869 C27.605728,26.912916 27.612219,26.92392 27.621117,26.932543 C27.6994,27.008417 27.70493,27.010891 27.765276,27.054296 L27.765276,27.054296" /><path fill="none" stroke="#000000" stroke-width="0.06mm" d="M26.83837,23.916601 L27.074615,23.98978" /><path fill="none" stroke="#000000" stroke-width="0.06mm" d="M26.908081,24.676632 L27.016521,24.665077" /><path fill="none" stroke="#000000" stroke-width="0.06mm" d="M27.103016,25.303143 L27.199837,25.310846" /><path fill="none" stroke="#000000" stroke-width="0.06mm" d="M27.479975,26.283995 L27.615526,26.271156" /><path fill="none" stroke="#000000" stroke-width="0.06mm" d="M28.355324,26.817501 C28.443045,27.174435 28.765099,28.187197 28.816427,28.827282 C28.8343,29.050158 28.787855,29.171362 28.894943,29.336388 L28.894943,29.336388" /><path fill="none" stroke="#000000" stroke-width="0.06mm" d="M28.097134,29.605995 C28.126734,29.70007 28.145657,29.798199 28.185936,29.888222 C28.297482,30.137524 28.466457,30.387869 28.732416,30.49073 C28.851799,30.5369 28.974182,30.577106 29.099318,30.60403 C29.531668,30.659523 29.366095,30.622353 29.602388,30.681847 L29.602388,30.681847" /><path fill="none" stroke="#000000" stroke-width="0.06mm" d="M29.54946,30.612522 C29.876379,30.389727 30.126575,30.22036 30.4893,29.955017 C30.620165,29.859285 30.72869,29.731155 30.87107,29.653578 C34.51658,27.66729 32.797398,28.826197 33.947746,28.042282 L33.947746,28.042282" /><path fill="none" stroke="#000000" stroke-width="0.06mm" d="M28.880745,28.869072 C30.553684,28.054237 30.132515,28.234821 32.755413,27.209671 C33.022392,27.105324 33.307697,27.052174 33.573837,26.945702 C34.002148,26.77435 34.007313,26.746237 34.27178,26.519653 L34.27178,26.519653" /><path fill="none" stroke="#000000" stroke-width="0.06mm" d="M34.471878,26.576141 C34.43526,26.77932 34.388832,26.980972 34.36203,27.185677 C34.342613,27.333965 34.34825,27.484608 34.333447,27.633429 C34.324768,27.7207 34.269707,27.828125 34.20613,27.8877 C34.107185,27.980412 34.001114,28.065228 33.897476,28.152662 C33.846123,28.195984 33.72854,28.189087 33.66374,28.18864 L33.66374,28.18864" /><path fill="none" stroke="#000000" stroke-width="0.06mm" d="M34.031258,28.045776 C34.016335,28.10434 34.00554,28.164112 33.986492,28.221468 C33.973824,28.259626 33.955162,28.29563 33.936474,28.331228 C33.84277,28.509726 33.745125,28.686127 33.649414,28.863558 C33.63615,28.88815 33.62481,28.913887 33.60955,28.937292 C33.580254,28.982231 33.544872,29.023033 33.51598,29.068232 C33.35194,29.324852 33.524044,29.180279 33.177048,29.587383 C33.076897,29.704885 32.952152,29.798975 32.839706,29.90477 L32.839706,29.90477" /><path fill="none" stroke="#000000" stroke-width="0.06mm" d="M32.917164,29.915041 C32.88941,29.947435 32.858974,29.977715 32.8339,30.012226 C32.75675,30.118412 32.699768,30.367971 32.685646,30.432503 C32.658073,30.558506 32.638287,30.75206 32.659943,30.891554 C32.669422,30.952625 32.735268,31.149977 32.720654,31.256456 C32.70614,31.362206 32.68661,31.467308 32.664055,31.57164 C32.646893,31.651 32.591682,31.711714 32.525864,31.75423 C32.324505,31.884302 32.13152,32.02887 31.920002,32.141674 C31.696144,32.261063 31.45902,32.35421 31.223589,32.44875 C31.176811,32.46753 31.12613,32.47839 31.075775,32.48067 C30.799492,32.49317 30.522707,32.48888 30.246174,32.492985 L30.246174,32.492985" /><path fill="none" stroke="#000000" stroke-width="0.06mm" d="M32.234245,29.285961 L32.17228,29.32576" /><path fill="none" stroke="#000000" stroke-width="0.06mm" d="M32.515675,28.812227 C32.41066,29.070442 32.48566,28.912762 32.294533,29.221043 C32.235657,29.316008 32.18201,29.414318 32.119377,29.506847 C32.10132,29.533524 32.075245,29.553783 32.053318,29.577383 C32.02588,29.606918 31.995228,29.633818 31.971275,29.666245 C31.937172,29.71241 31.906488,29.761318 31.879883,29.812174 C31.511047,30.517208 31.714378,30.283037 31.302677,30.756115 C31.291367,30.769112 31.276709,30.778982 31.262146,30.788189 C31.22743,30.810139 31.19084,30.828972 31.155186,30.849365 C30.936722,31.003792 30.722736,31.164764 30.499788,31.312649 C30.452211,31.344206 30.395607,31.359604 30.34529,31.386578 C30.296572,31.412693 30.250433,31.443356 30.203005,31.471745 C30.113646,31.511086 30.022226,31.546047 29.934927,31.589767 C29.853096,31.630753 29.754232,31.748972 29.710041,31.80399 C29.540272,32.015358 29.496773,32.296505 29.431633,32.550766 C29.41836,32.602573 29.410587,32.677944 29.43309,32.732002 C29.474379,32.831196 29.59484,32.876766 29.695627,32.86345 C29.735825,32.858135 29.765644,32.839073 29.797781,32.81578 C30.19908,32.524918 30.043207,32.619514 30.21648,32.51609 L30.21648,32.51609" /><path fill="none" stroke="#000000" stroke-width="0.06mm" d="M30.513973,32.275276 C30.479862,32.25295 30.44702,32.22855 30.41164,32.20829 C30.273266,32.12906 30.099192,32.176144 29.97709,32.263256 C29.924858,32.30052 29.882051,32.35824 29.848495,32.410156 C29.778337,32.518703 29.743578,32.648567 29.800077,32.770973 C29.811497,32.795715 29.902784,33.060253 30.007227,33.127003 C30.112333,33.194176 30.294865,33.20931 30.41764,33.184307 C30.454464,33.17681 30.51093,33.154465 30.540922,33.131657 C30.635487,33.059753 30.716747,33.001972 30.78112,32.907047 C30.8794,32.762123 30.906712,32.52561 30.778261,32.388496 C30.717283,32.323402 30.626245,32.27395 30.539677,32.25345 C30.4863,32.24081 30.431314,32.236336 30.377132,32.227776 L30.377132,32.227776" /><path fill="none" stroke="#000000" stroke-width="0.06mm" d="M30.075048,32.790096 C30.503693,32.760727 30.29964,32.790836 30.688253,32.706646 L30.688253,32.706646" /><path fill="none" stroke="#000000" stroke-width="0.06mm" d="M30.946798,32.574875 C30.809954,32.65946 30.592886,32.736885 30.502127,32.894962 C30.424994,33.029305 30.362766,33.171776 30.28725,33.307037 C30.237726,33.395744 30.125002,33.530846 30.093588,33.65293 C30.047615,33.83159 30.085009,33.813847 30.069378,34.04841 C29.909218,36.45191 30.036327,34.560745 29.970558,35.17418 C29.958286,35.28863 29.95113,35.40366 29.935966,35.51776 C29.926826,35.586544 29.906744,35.65358 29.897709,35.722374 C29.886368,35.8087 29.923433,35.86459 29.915346,35.957832 C29.906765,36.056755 29.878325,36.15294 29.859814,36.250496 L29.859814,36.250496" /><path fill="none" stroke="#000000" stroke-width="0.06mm" d="M26.667479,36.95144 C26.65297,37.067596 26.63846,37.18376 26.623951,37.29992 C26.580381,37.556904 26.521515,37.81176 26.493242,38.07087 C26.457626,38.397285 26.57392,38.92646 26.63739,39.1857 C26.70022,39.442337 26.770725,39.698433 26.868372,39.94394 C26.980295,40.22535 27.21831,40.815865 27.489939,41.11753 C27.72915,41.383198 28.005955,41.741386 28.367298,41.88034 C28.452528,41.913116 28.595037,41.91335 28.669575,41.912827 C28.701216,41.912605 28.733229,41.908844 28.763649,41.90013 C28.883873,41.865696 29.014902,41.82408 29.12059,41.75151 C29.337008,41.602913 29.390707,41.51255 29.597952,41.292084 L29.597952,41.292084" /><path fill="none" stroke="#000000" stroke-width="0.06mm" d="M29.68338,41.028427 C29.709242,40.872192 29.733627,40.715702 29.760963,40.559715 C29.767216,40.52404 29.780825,40.48962 29.784122,40.453552 C29.798632,40.294937 29.80041,40.13535 29.814293,39.97668 C29.816282,39.953934 29.82252,39.931343 29.831646,39.910416 C29.865496,39.83279 29.89801,39.753838 29.942804,39.68197 C30.040531,39.525177 30.17966,39.389046 30.30358,39.254486 C30.331936,39.223694 30.358072,39.19077 30.388145,39.16165 C30.874168,38.691124 31.133846,38.41419 31.745653,38.063324 C32.236057,37.782078 32.75119,37.546066 33.260483,37.300667 C33.407745,37.22971 33.645554,37.23087 33.784584,37.20856 C33.844357,37.198967 33.9274,37.142296 33.97194,37.11658 L33.97194,37.11658" /><path fill="none" stroke="#000000" stroke-width="0.06mm" d="M29.96481,37.017723 L30.188145,36.807175" /><path fill="none" stroke="#000000" stroke-width="0.06mm" d="M29.936409,36.09336 C29.814812,36.344 29.54908,36.68855 29.658295,37.004723 C29.684492,37.080563 29.765055,37.06988 29.827778,37.052925 C29.849218,37.047127 29.87204,37.042503 29.89028,37.02983 C29.966633,36.976776 30.036358,36.914772 30.109396,36.857246 L30.109396,36.857246" /><path fill="none" stroke="#000000" stroke-width="0.06mm" d="M30.02161,36.85596 C30.335287,36.822514 30.292562,36.840866 30.70601,36.675106 C31.338497,36.421528 31.030155,36.461605 31.454472,36.376503 C31.473093,36.372765 31.505547,36.378258 31.523361,36.382824 C31.701645,36.428543 31.87397,36.509903 32.057602,36.522335 C33.57345,36.624966 33.446175,36.625156 34.329533,36.502907 L34.329533,36.502907" /><path fill="none" stroke="#000000" stroke-width="0.06mm" d="M28.092922,38.616104 C28.07904,38.674324 28.07142,38.734406 28.051281,38.79077 C27.918135,39.1634 27.771801,39.53118 27.633476,39.901913 C27.367855,40.613815 27.51967,40.332947 27.291237,40.716457 L27.291237,40.716457" /><path fill="none" stroke="#000000" stroke-width="0.06mm" d="M28.171669,38.67002 C27.947958,39.417202 27.909748,39.431023 27.816813,40.239395 C27.800133,40.384483 27.8592,40.812614 27.716478,41.002457 C27.689966,41.03772 27.632214,41.037834 27.594395,41.02929 C27.515526,41.011475 27.417198,40.998676 27.341894,40.954803 C27.251463,40.902122 27.167126,40.735283 27.137613,40.694633 L27.137613,40.694633" /><path fill="none" stroke="#000000" stroke-width="0.06mm" d="M27.607521,40.571384 C27.664684,40.377388 27.721848,40.183395 27.779009,39.989403 C27.781458,39.984634 27.781006,39.974854 27.786356,39.975105 C27.791237,39.97534 27.785263,39.984818 27.784718,39.98967 C27.729982,40.17279 27.467075,40.65297 27.620512,40.53902 C27.781754,40.419273 27.88448,39.780354 27.813555,39.968254 C27.720182,40.21563 27.51433,40.979073 27.553135,40.717525 C27.600273,40.39982 27.745892,40.104744 27.838915,39.797325 C27.840326,39.79266 27.83196,39.804153 27.828484,39.80757 C27.78308,39.96319 27.729511,40.116653 27.692268,40.274426 C27.678162,40.37091 27.664055,40.467392 27.649946,40.563873 C27.649958,40.56952 27.64904,40.58638 27.64998,40.58081 C27.71952,40.169018 27.705688,40.07187 27.822224,39.74726 C27.827944,39.731327 27.821838,39.781506 27.817291,39.797813 C27.756365,40.016346 27.693476,40.23438 27.626022,40.45099 C27.616995,40.479977 27.60086,40.46118 27.59478,40.448627 C27.581324,40.42085 27.572662,40.35565 27.561562,40.436203 C27.554024,40.490906 27.55277,40.5466 27.54132,40.60062 C27.514933,40.725143 27.443283,40.865116 27.384518,40.970116 C27.38214,40.974365 27.371815,40.97255 27.370052,40.968006 C27.364357,40.95334 27.364922,40.936756 27.365461,40.921036 C27.3665,40.890697 27.365986,40.859505 27.374763,40.830452 C27.421614,40.695297 27.468464,40.560143 27.515316,40.424988 C27.516968,40.414978 27.526844,40.387238 27.520275,40.394966 C27.493856,40.42605 27.47876,40.52398 27.480146,40.56331 C27.481405,40.599026 27.487976,40.63485 27.503181,40.667374 C27.520773,40.705 27.571396,40.77765 27.622517,40.74727 C27.652275,40.729584 27.671808,40.68762 27.683739,40.65924 C27.711899,40.592255 27.709026,40.511734 27.667667,40.450558 C27.653397,40.42945 27.63142,40.40451 27.604994,40.39891 C27.5453,40.38627 27.51001,40.479427 27.503109,40.52127 C27.498177,40.551178 27.496223,40.58156 27.495113,40.611847 C27.492191,40.6916 27.552889,40.673004 27.59896,40.643665 C27.612875,40.634804 27.64011,40.61074 27.647999,40.595566 C27.668928,40.55531 27.688753,40.514244 27.70409,40.471542 C27.719147,40.42961 27.732185,40.38654 27.738886,40.34249 C27.752487,40.253067 27.74647,40.160946 27.764807,40.07237 C27.769499,40.049706 27.76556,40.122528 27.780819,40.13993 C27.788956,40.149208 27.792843,40.1175 27.793581,40.10518 C27.822899,39.61555 27.767935,39.877304 27.843767,39.57898 L27.843767,39.57898" /><path fill="none" stroke="#000000" stroke-width="0.06mm" d="M28.923008,38.975574 C28.695192,39.802883 28.457493,40.627533 28.239565,41.457497 C28.226677,41.506584 28.229988,41.571136 28.232346,41.626698 L28.232346,41.626698" /><path fill="none" stroke="#000000" stroke-width="0.06mm" d="M28.833931,40.5303 C28.699093,41.343178 28.734383,40.976257 28.69967,41.62798 L28.69967,41.62798" /><path fill="none" stroke="#000000" stroke-width="0.06mm" d="M28.156178,41.572777 C28.291058,41.317207 28.55883,41.725533 28.647533,41.557816 C28.672026,41.511505 28.678547,41.393753 28.67943,41.385826 C28.756748,40.692314 28.837626,39.999138 28.904652,39.304554 C28.90844,39.265305 28.899544,39.2256 28.89162,39.186966 C28.889729,39.177742 28.88824,39.205498 28.886223,39.21469 C28.750954,39.83058 28.612595,40.445793 28.47976,41.06221 C28.475529,41.081833 28.47521,41.10218 28.47515,41.122253 C28.475142,41.12477 28.478111,41.118187 28.479591,41.11615 C28.617651,40.728546 28.757996,40.34175 28.893768,39.95334 C28.898872,39.938736 28.900787,39.92309 28.902023,39.907673 C28.902147,39.90611 28.89892,39.90815 28.89737,39.908386 C28.790524,40.242462 28.674139,40.57364 28.576832,40.910614 C28.5505,41.001804 28.543524,41.097496 28.527008,41.190964 C28.526972,41.191174 28.52726,41.190617 28.527386,41.190445 C28.561245,41.005035 28.593021,40.81924 28.628965,40.634228 C28.631773,40.619778 28.637878,40.606125 28.643545,40.592545 C28.645575,40.587677 28.648392,40.583046 28.651941,40.579147 C28.652811,40.578194 28.655071,40.578033 28.65581,40.57909 C28.657433,40.581413 28.657066,40.584618 28.657692,40.58738 C28.626299,40.835236 28.612787,41.08602 28.563513,41.330948 C28.54007,41.447468 28.484997,40.903023 28.579758,40.97476 C28.68393,41.05362 28.597546,41.23548 28.609297,41.36561 C28.610395,41.377773 28.618708,41.378628 28.624958,41.37081 C28.629791,41.36477 28.63374,41.35785 28.636234,41.350525 C28.65094,41.307335 28.669987,41.264854 28.676422,41.21969 C28.70555,41.015247 28.70279,40.978386 28.69967,40.835854 L28.69967,40.835854" /><path fill="none" stroke="#000000" stroke-width="0.06mm" d="M29.186361,39.138622 C29.24551,39.801727 29.291304,40.466156 29.363806,41.127934 C29.388744,41.35556 29.519293,41.865585 29.434227,41.558655 L29.434227,41.558655" /><path fill="none" stroke="#000000" stroke-width="0.06mm" d="M29.152798,39.123215 C29.517996,39.90656 29.155075,39.095673 29.739584,40.949783 C29.758307,41.00917 29.793343,41.062126 29.82022,41.118298 L29.82022,41.118298" /><path fill="none" stroke="#000000" stroke-width="0.06mm" d="M29.613668,41.214584 C29.589035,41.22819 29.564402,41.2418 29.539768,41.25541 C29.534687,41.254555 29.52784,41.25679 29.524525,41.252846 C29.514744,41.24122 29.528225,41.201767 29.530022,41.197136 C29.565506,41.105736 29.607405,41.01686 29.641106,40.92479 C29.661007,40.870422 29.658453,40.807472 29.652397,40.75112 L29.652397,40.75112" /><path fill="none" stroke="#000000" stroke-width="0.06mm" d="M29.478119,40.991196 C29.409977,40.58082 29.45055,40.73338 29.322748,40.334503 C29.312143,40.301407 29.314558,40.334362 29.314476,40.33856 C29.363914,40.51758 29.406181,40.69873 29.462791,40.87561 C29.495325,40.952713 29.527233,41.030083 29.560394,41.10692 C29.562145,41.110977 29.57473,41.125107 29.570267,41.107613 C29.460806,40.678707 29.352316,40.24954 29.23935,39.82154 C29.23855,39.81852 29.234787,39.825813 29.232506,39.82795 C29.23451,39.861694 29.229582,39.896584 29.238522,39.929184 C29.311401,40.1949 29.396801,40.457027 29.477314,40.720535 C29.48067,40.73152 29.493492,40.76353 29.490097,40.752552 C28.722383,38.269634 29.401505,40.525234 29.415567,40.43427 C29.448868,40.218872 29.27878,40.019154 29.23724,39.805195 C29.158066,39.397392 29.34547,40.251873 29.414034,40.321472 C29.419962,40.32749 29.419056,40.305344 29.421566,40.29728 C29.369833,40.117275 29.220345,39.938812 29.266367,39.75726 C29.304577,39.60652 29.3886,40.043243 29.449717,40.186234 L29.449717,40.186234" /><path fill="none" stroke="#000000" stroke-width="0.06mm" d="M29.77762,33.148243 C29.694675,33.287098 29.607372,33.423435 29.52879,33.564804 C29.421247,33.758278 29.303398,33.947594 29.219444,34.152405 C28.982801,34.729702 28.783602,35.321648 28.568558,35.90733 C28.508497,36.070904 28.440369,36.232124 28.394144,36.400135 C28.280197,36.814285 28.27843,37.138325 28.26371,37.57847 C28.260948,37.660988 28.294123,37.75486 28.32332,37.827778 C28.385399,37.982815 28.50835,38.080772 28.651249,38.15979 C28.673923,38.17233 28.69814,38.18296 28.723408,38.1887 C29.380398,38.338017 30.052002,37.92725 30.630672,37.74025 C30.840902,37.672314 31.06036,37.63661 31.272667,37.57547 C31.42835,37.530632 31.580227,37.473495 31.734005,37.42251 C31.901413,37.381145 32.069626,37.34292 32.23623,37.29842 C32.46954,37.2361 32.699776,37.162468 32.933594,37.102093 C32.99097,37.08728 33.05123,37.086334 33.10898,37.07306 C33.172558,37.058445 33.257717,36.990105 33.29935,36.96252 L33.29935,36.96252" /><path fill="none" stroke="#000000" stroke-width="0.06mm" d="M30.066795,33.107162 C29.4545,34.18934 29.840908,33.46522 28.956757,35.9347 C28.910112,36.06498 28.862244,36.19688 28.842796,36.333885 C28.809834,36.56609 28.834606,36.909996 28.890146,37.143917 C28.91445,37.246277 28.984655,37.47491 29.08144,37.57021 C29.179794,37.667057 29.339012,37.712547 29.47418,37.713047 C29.670883,37.713776 30.055588,37.58219 30.138363,37.557205 C30.296467,37.50948 30.445463,37.429787 30.60751,37.397907 C31.409653,37.240097 32.216644,37.10603 33.02577,36.98916 C33.414814,36.932964 33.334965,37.002346 33.635452,37.02577 C33.704376,37.031143 33.773712,37.024685 33.842842,37.024143 L33.842842,37.024143" /><path fill="none" stroke="#000000" stroke-width="0.06mm" d="M29.407116,33.810703 L29.505228,34.01098" /><path fill="none" stroke="#000000" stroke-width="0.06mm" d="M29.161835,34.351196 L29.320621,34.51553" /><path fill="none" stroke="#000000" stroke-width="0.06mm" d="M28.990137,35.0419 C29.034054,35.12256 29.094107,35.157207 29.169579,35.20623 L29.169579,35.20623" /><path fill="none" stroke="#000000" stroke-width="0.06mm" d="M28.592522,36.26925 C28.711658,36.289204 28.804497,36.24113 28.907516,36.18323 L28.907516,36.18323" /><path fill="none" stroke="#000000" stroke-width="0.06mm" d="M28.57703,37.954926 L28.768093,37.807285" /><path fill="none" stroke="#000000" stroke-width="0.06mm" d="M29.10245,38.237366 C29.180023,38.0553 29.135025,38.14203 29.23671,37.97675 L29.23671,37.97675" /><path fill="none" stroke="#000000" stroke-width="0.06mm" d="M29.631742,38.017834 L29.707909,37.73667" /><path fill="none" stroke="#000000" stroke-width="0.06mm" d="M30.73551,37.72255 L30.769075,37.48761" /><path fill="none" stroke="#000000" stroke-width="0.06mm" d="M32.007103,37.09989 L31.906408,37.34125" /><path fill="none" stroke="#000000" stroke-width="0.06mm" d="M30.319822,37.386185 C30.222248,37.559525 30.287437,37.462654 30.104233,37.66221 L30.104233,37.66221" /><path fill="none" stroke="#000000" stroke-width="0.06mm" d="M29.111486,37.338684 C28.993734,37.31809 28.878769,37.34527 28.76551,37.3772 L28.76551,37.3772" /><path fill="none" stroke="#000000" stroke-width="0.06mm" d="M28.84426,36.915016 L28.64545,36.81873" /><path fill="none" stroke="#000000" stroke-width="0.06mm" d="M29.134724,35.52334 L28.957863,35.475838" /><path fill="none" stroke="#000000" stroke-width="0.06mm" d="M26.528282,37.78289 C26.532684,37.710155 26.530508,37.63672 26.541487,37.564682 C27.83257,29.092499 26.374575,39.667835 27.08149,32.323402 C27.127121,31.849293 27.26349,31.388319 27.361105,30.922129 C27.464767,30.427053 27.409508,30.810246 27.440989,30.578005 L27.440989,30.578005" /><path fill="none" stroke="#000000" stroke-width="0.06mm" d="M26.692234,38.03709 C26.6855,38.08524 26.672897,38.132927 26.672033,38.18154 C26.669096,38.34668 26.75101,38.746822 26.764526,38.82665 L26.764526,38.82665" /><path fill="none" stroke="#000000" stroke-width="0.06mm" d="M26.48697,38.171894 C27.15493,37.89409 26.847713,37.99247 27.398388,37.847084 L27.398388,37.847084" /><path fill="none" stroke="#000000" stroke-width="0.06mm" d="M27.86184,37.540245 C27.659065,37.79871 27.46978,38.06835 27.253515,38.31564 C27.102566,38.488243 26.940262,38.656055 26.71418,38.7034 L26.71418,38.7034" /><path fill="none" stroke="#000000" stroke-width="0.06mm" d="M27.354494,31.804068 C27.151146,32.28904 27.246635,32.026257 27.289906,33.197556 C27.327583,34.21748 27.402206,35.23577 27.472832,36.253944 C27.482311,36.39059 27.513083,36.52495 27.530142,36.66086 C27.531042,36.66803 27.531761,36.677193 27.526594,36.682243 C27.514757,36.69382 27.476494,36.60314 27.475845,36.60176 L27.475845,36.60176" /><path fill="none" stroke="#000000" stroke-width="0.06mm" d="M27.182796,31.942722 C27.297834,32.01424 27.559664,31.819641 27.714512,31.812464 C27.753422,31.810661 27.793121,31.817717 27.807238,31.858488 C27.809504,31.86503 27.81288,31.871851 27.811966,31.878716 C27.721275,32.56121 27.584068,33.23865 27.532604,33.925217 C27.462465,34.86097 27.480955,35.801277 27.44765,36.739063 C27.445293,36.80544 27.407282,36.87155 27.37386,36.92657 L27.37386,36.92657" /><path fill="none" stroke="#000000" stroke-width="0.06mm" d="M27.584286,31.985088 C27.539589,32.504227 27.522413,33.02647 27.450195,33.542496 C27.388365,33.784527 27.326534,34.026554 27.264706,34.26858 C27.263462,34.27005 27.256306,34.281883 27.257061,34.2676 C27.283127,33.774765 27.314983,33.28223 27.338667,32.789276 C27.339792,32.765854 27.345577,32.73801 27.331444,32.7193 C27.322453,32.7074 27.319921,32.747196 27.318058,32.761993 C27.310835,32.819363 27.297844,32.877453 27.304295,32.934914 C27.332203,33.183548 27.380806,33.429424 27.420704,33.67642 C27.42461,33.70059 27.427296,33.68058 27.428345,33.676422 C27.40102,33.2528 27.376133,32.829006 27.34637,32.405544 C27.345678,32.39571 27.340153,32.38683 27.337046,32.377472 C27.349054,32.513542 27.360147,32.921665 27.373074,32.785683 C27.394646,32.558723 27.367264,32.329758 27.363247,32.10181 C27.363184,32.09828 27.361887,32.10874 27.361208,32.112206 C27.371815,32.305702 27.366936,32.500675 27.393028,32.6927 C27.41666,32.866608 27.462292,33.037155 27.509853,33.206097 C27.54047,33.28203 27.571085,33.357956 27.6017,33.433887 C27.60568,33.438923 27.607466,33.447247 27.613642,33.44899 C27.617268,33.450016 27.616076,33.44186 27.617292,33.438293 C27.583334,33.28607 27.555151,33.13244 27.515415,32.98162 C27.50076,32.925983 27.469133,32.837593 27.42943,32.78181 C27.36599,32.69268 27.312632,32.746128 27.319853,32.840366 C27.324997,32.9075 27.331059,32.97483 27.34395,33.040916 C27.353556,33.090145 27.369892,33.13796 27.387102,33.185074 C27.4238,33.285553 27.466057,33.383907 27.505535,33.483326 L27.505535,33.483326" /><path fill="none" stroke="#000000" stroke-width="0.06mm" d="M26.665123,38.215546 C26.785728,38.245766 26.86636,38.2368 26.987612,38.199493 C27.020931,38.18924 27.05412,38.176838 27.083965,38.15882 C27.454973,37.934853 27.316704,37.965137 27.118982,38.16117 C27.0472,38.232338 26.985167,38.312786 26.921288,38.39113 C26.898523,38.41905 26.855724,38.479794 26.895546,38.513863 C26.906387,38.523136 26.921942,38.52973 26.936398,38.529827 C26.976158,38.530094 27.015282,38.50838 27.04602,38.485603 C27.110107,38.438114 27.31036,38.31478 27.233845,38.33733 C27.127514,38.368664 27.04576,38.454704 26.951715,38.513393 L26.951715,38.513393" /><path fill="none" stroke="#000000" stroke-width="0.06mm" d="M29.590431,32.7862 C29.45821,33.138786 29.34368,33.498524 29.193768,33.84396 C29.113588,34.02871 29.003094,34.198853 28.90182,34.372932 C28.879805,34.410774 28.849977,34.45497 28.810635,34.480186 C28.753622,34.516724 28.6948,34.456764 28.683342,34.402752 C28.661676,34.30062 28.63283,34.19852 28.629711,34.094162 C28.60488,33.262882 28.535372,32.5335 28.700172,31.747757 C28.745094,31.533583 28.79484,31.195522 28.926352,30.965025 C28.941328,30.938774 28.960268,30.914993 28.977226,30.889977 L28.977226,30.889977" /><path fill="none" stroke="#000000" stroke-width="0.06mm" d="M34.17208,36.474606 C34.560547,36.650993 34.036674,36.42186 34.520287,36.598743 C34.660385,36.649986 34.62838,36.668816 34.73735,36.686104 C34.870193,36.707184 34.990246,36.699474 35.10086,36.779305 C35.290405,36.916103 35.43977,37.10353 35.562958,37.301273 C35.867294,37.789787 36.149284,38.292248 36.42163,38.79929 C36.576145,39.086964 36.737686,39.37462 36.842686,39.683823 C37.035538,40.251747 37.158886,40.840965 37.311874,41.4209 C37.32169,41.458103 37.288864,41.57263 37.28727,41.578163 C37.276123,41.616898 37.25992,41.65399 37.246243,41.691902 L37.246243,41.691902" /><path fill="none" stroke="#000000" stroke-width="0.06mm" d="M33.938606,37.12017 C34.025246,37.11541 34.11177,37.10453 34.198532,37.105892 C34.35353,37.108322 34.51764,37.16626 34.64637,37.25078 C34.817696,37.363266 35.005524,37.640118 35.07132,37.760002 C35.292587,38.163166 35.914253,39.569668 36.089546,40.02983 C36.28904,40.553497 36.466377,41.08539 36.64656,41.616013 C36.652752,41.652306 36.658943,41.6886 36.66514,41.72489 C36.66458,41.725826 36.664177,41.728508 36.663464,41.727688 C36.661045,41.724895 36.660374,41.72097 36.65883,41.717613 C36.64238,41.65979 36.625927,41.601967 36.609478,41.544144 L36.609478,41.544144" /><path fill="none" stroke="#000000" stroke-width="0.06mm" d="M36.723534,41.61551 C36.718422,41.647152 36.672623,41.84694 36.690247,41.92269 C36.720432,42.052437 36.75946,42.18002 36.79847,42.30739 C36.830826,42.413033 36.881958,42.513294 36.904278,42.6215 C36.95065,42.84633 36.98378,43.074265 37.003807,43.302944 C37.046555,43.791058 37.051155,44.281975 37.092445,44.77021 C37.11641,45.053524 37.16669,45.33401 37.19948,45.61644 C37.206425,45.67626 37.20306,45.737095 37.211617,45.796715 C37.415977,47.220566 37.41234,46.566254 37.38506,47.404488 L37.38506,47.404488" /><path fill="none" stroke="#000000" stroke-width="0.06mm" d="M37.330227,41.580326 C37.36078,41.626427 37.394684,41.670467 37.421875,41.71862 C37.439365,41.749588 37.452824,41.782906 37.463745,41.816753 C37.714146,42.592644 37.531708,42.326607 37.663567,43.72843 C37.6949,44.06156 37.77054,44.389473 37.80332,44.722466 C37.937332,46.083656 37.744194,45.685555 38.060745,46.57874 C38.074825,46.618465 38.098713,46.654087 38.12047,46.690186 C38.302456,46.992115 38.493744,47.288452 38.671883,47.592667 C38.737156,47.70414 38.753967,47.977325 38.768253,48.085236 L38.768253,48.085236" /><path fill="none" stroke="#000000" stroke-width="0.06mm" d="M37.406284,47.228584 C37.646503,47.641087 37.327755,47.112457 37.909687,47.89514 C38.55223,48.759354 37.73599,47.750263 38.212852,48.3315 L38.212852,48.3315" /><path fill="none" stroke="#000000" stroke-width="0.06mm" d="M38.824856,48.17495 L38.757645,48.44408" /></g>
<g>
<line fill="none" stroke="#5674b9" stroke-width="0.05mm" stroke-dasharray="0.4,0.2" opacity="0.97" x1="23.00" y1="23.00" x2="21.57" y2="23.15" />
<line fill="none" stroke="#00aeef" stroke-width="0.05mm" stroke-dasharray="0.4,0.2" opacity="0.99" x1="23.00" y1="23.00" x2="20.79" y2="21.01" />
<line fill="none" stroke="#5674b9" stroke-width="0.05mm" stroke-dasharray="0.4,0.2" opacity="0.91" x1="23.00" y1="23.00" x2="27.47" y2="29.62" />
<line fill="none" stroke="#111111" stroke-width="0.05mm" x1="23.00" y1="23.00" x2="23.07" y2="22.36" />
<line fill="none" stroke="#5674b9" stroke-width="0.05mm" stroke-dasharray="0.4,0.2" opacity="0.99" x1="23.07" y1="22.36" x2="28.02" y2="30.63" />
<line fill="none" stroke="#00aeef" stroke-width="0.05mm" stroke-dasharray="0.4,0.2" opacity="0.99" x1="23.07" y1="22.36" x2="27.39" y2="23.48" />
<line fill="none" stroke="#00aeef" stroke-width="0.05mm" stroke-dasharray="0.4,0.2" opacity="0.90" x1="23.07" y1="22.36" x2="31.15" y2="19.19" />
<line fill="none" stroke="#00aeef" stroke-width="0.05mm" stroke-dasharray="0.4,0.2" opacity="0.98" x1="23.07" y1="22.36" x2="28.05" y2="26.51" />
<line fill="none" stroke="#00aeef" stroke-width="0.05mm" stroke-dasharray="0.4,0.2" opacity="0.96" x1="23.07" y1="22.36" x2="29.67" y2="22.24" />
<line fill="none" stroke="#5674b9" stroke-width="0.05mm" stroke-dasharray="0.4,0.2" opacity="0.45" x1="23.07" y1="22.36" x2="27.29" y2="23.46" />
<line fill="none" stroke="#111111" stroke-width="0.05mm" x1="23.07" y1="22.36" x2="30.94" y2="20.91" />
<line fill="none" stroke="#00aeef" stroke-width="0.05mm" stroke-dasharray="0.4,0.2" opacity="0.76" x1="30.94" y1="20.91" x2="30.14" y2="21.88" />
<line fill="none" stroke="#00aeef" stroke-width="0.05mm" stroke-dasharray="0.4,0.2" opacity="0.55" x1="30.94" y1="20.91" x2="31.28" y2="19.30" />
<line fill="none" stroke="#00aeef" stroke-width="0.05mm" stroke-dasharray="0.4,0.2" opacity="0.07" x1="30.94" y1="20.91" x2="30.35" y2="21.26" />
<line fill="none" stroke="#5674b9" stroke-width="0.05mm" stroke-dasharray="0.4,0.2" opacity="0.12" x1="30.94" y1="20.91" x2="30.45" y2="22.04" />
<line fill="none" stroke="#5674b9" stroke-width="0.05mm" stroke-dasharray="0.4,0.2" opacity="1.00" x1="30.94" y1="20.91" x2="34.21" y2="25.67" />
<line fill="none" stroke="#00aeef" stroke-width="0.05mm" stroke-dasharray="0.4,0.2" opacity="0.83" x1="30.94" y1="20.91" x2="29.52" y2="19.91" />
<line fill="none" stroke="#111111" stroke-width="0.05mm" x1="30.94" y1="20.91" x2="34.37" y2="26.60" />
<line fill="none" stroke="#111111" stroke-width="0.05mm" x1="23.07" y1="22.36" x2="28.40" y2="29.62" />
<line fill="none" stroke="#5674b9" stroke-width="0.05mm" stroke-dasharray="0.4,0.2" opacity="0.80" x1="28.40" y1="29.62" x2="29.53" y2="30.76" />
<line fill="none" stroke="#00aeef" stroke-width="0.05mm" stroke-dasharray="0.4,0.2" opacity="0.89" x1="28.40" y1="29.62" x2="28.32" y2="28.67" />
<line fill="none" stroke="#00aeef" stroke-width="0.05mm" stroke-dasharray="0.4,0.2" opacity="0.52" x1="28.40" y1="29.62" x2="29.93" y2="29.30" />
<line fill="none" stroke="#5674b9" stroke-width="0.05mm" stroke-dasharray="0.4,0.2" opacity="0.14" x1="28.40" y1="29.62" x2="28.65" y2="29.38" />
<line fill="none" stroke="#111111" stroke-width="0.05mm" x1="28.40" y1="29.62" x2="33.79" y2="27.51" />
<line fill="none" stroke="#5674b9" stroke-width="0.05mm" stroke-dasharray="0.4,0.2" opacity="0.89" x1="33.79" y1="27.51" x2="29.45" y2="22.80" />
<line fill="none" stroke="#5674b9" stroke-width="0.05mm" stroke-dasharray="0.4,0.2" opacity="0.96" x1="33.79" y1="27.51" x2="32.24" y2="26.69" />
<line fill="none" stroke="#00aeef" stroke-width="0.05mm" stroke-dasharray="0.4,0.2" opacity="0.24" x1="33.79" y1="27.51" x2="32.26" y2="26.16" />
<line fill="none" stroke="#5674b9" stroke-width="0.05mm" stroke-dasharray="0.4,0.2" opacity="0.17" x1="33.79" y1="27.51" x2="33.04" y2="27.35" />
<line fill="none" stroke="#5674b9" stroke-width="0.05mm" stroke-dasharray="0.4,0.2" opacity="0.99" x1="33.79" y1="27.51" x2="31.84" y2="27.16" />
<line fill="none" stroke="#111111" stroke-width="0.05mm" x1="33.79" y1="27.51" x2="30.21" y2="32.46" />
<line fill="none" stroke="#5674b9" stroke-width="0.05mm" stroke-dasharray="0.4,0.2" opacity="0.53" x1="30.21" y1="32.46" x2="26.68" y2="37.41" />
<line fill="none" stroke="#5674b9" stroke-width="0.05mm" stroke-dasharray="0.4,0.2" opacity="0.93" x1="30.21" y1="32.46" x2="29.49" y2="32.70" />
<line fill="none" stroke="#5674b9" stroke-width="0.05mm" stroke-dasharray="0.4,0.2" opacity="0.99" x1="30.21" y1="32.46" x2="29.82" y2="31.68" />
<line fill="none" stroke="#00aeef" stroke-width="0.05mm" stroke-dasharray="0.4,0.2" opacity="0.98" x1="30.21" y1="32.46" x2="33.60" y2="28.86" />
<line fill="none" stroke="#00aeef" stroke-width="0.05mm" stroke-dasharray="0.4,0.2" opacity="0.91" x1="30.21" y1="32.46" x2="32.65" y2="31.30" />
<line fill="none" stroke="#00aeef" stroke-width="0.05mm" stroke-dasharray="0.4,0.2" opacity="0.16" x1="30.21" y1="32.46" x2="29.35" y2="32.47" />
<line fill="none" stroke="#111111" stroke-width="0.05mm" x1="30.21" y1="32.46" x2="28.26" y2="38.05" />
<line fill="none" stroke="#00aeef" stroke-width="0.05mm" stroke-dasharray="0.4,0.2" opacity="0.88" x1="28.26" y1="38.05" x2="31.58" y2="36.51" />
<line fill="none" stroke="#00aeef" stroke-width="0.05mm" stroke-dasharray="0.4,0.2" opacity="0.89" x1="28.26" y1="38.05" x2="29.98" y2="33.89" />
<line fill="none" stroke="#00aeef" stroke-width="0.05mm" stroke-dasharray="0.4,0.2" opacity="0.91" x1="28.26" y1="38.05" x2="30.33" y2="31.06" />
<line fill="none" stroke="#00aeef" stroke-width="0.05mm" stroke-dasharray="0.4,0.2" opacity="0.90" x1="28.26" y1="38.05" x2="27.89" y2="35.58" />
<line fill="none" stroke="#00aeef" stroke-width="0.05mm" stroke-dasharray="0.4,0.2" opacity="0.26" x1="28.26" y1="38.05" x2="28.86" y2="35.28" />
<line fill="none" stroke="#5674b9" stroke-width="0.05mm" stroke-dasharray="0.4,0.2" opacity="0.85" x1="28.26" y1="38.05" x2="29.85" y2="37.13" />
<line fill="none" stroke="#00aeef" stroke-width="0.05mm" stroke-dasharray="0.4,0.2" opacity="0.90" x1="28.26" y1="38.05" x2="28.85" y2="41.83" />
<line fill="none" stroke="#111111" stroke-width="0.05mm" x1="28.26" y1="38.05" x2="34.97" y2="36.75" />
<line fill="none" stroke="#00aeef" stroke-width="0.05mm" stroke-dasharray="0.4,0.2" opacity="0.89" x1="34.97" y1="36.75" x2="33.71" y2="35.51" />
<line fill="none" stroke="#00aeef" stroke-width="0.05mm" stroke-dasharray="0.4,0.2" opacity="0.92" x1="34.97" y1="36.75" x2="32.17" y2="36.19" />
<line fill="none" stroke="#00aeef" stroke-width="0.05mm" stroke-dasharray="0.4,0.2" opacity="0.94" x1="34.97" y1="36.75" x2="32.09" y2="36.67" />
<line fill="none" stroke="#00aeef" stroke-width="0.05mm" stroke-dasharray="0.4,0.2" opacity="0.88" x1="34.97" y1="36.75" x2="33.83" y2="34.68" />
<line fill="none" stroke="#00aeef" stroke-width="0.05mm" stroke-dasharray="0.4,0.2" opacity="0.83" x1="34.97" y1="36.75" x2="33.23" y2="37.28" />
<line fill="none" stroke="#00aeef" stroke-width="0.05mm" stroke-dasharray="0.4,0.2" opacity="0.83" x1="34.97" y1="36.75" x2="33.23" y2="37.28" />
<line fill="none" stroke="#111111" stroke-width="0.05mm" x1="34.97" y1="36.75" x2="37.24" y2="41.77" />
<line fill="none" stroke="#5674b9" stroke-width="0.05mm" stroke-dasharray="0.4,0.2" opacity="0.77" x1="37.24" y1="41.77" x2="38.03" y2="48.20" />
<line fill="none" stroke="#5674b9" stroke-width="0.05mm" stroke-dasharray="0.4,0.2" opacity="0.04" x1="37.24" y1="41.77" x2="37.33" y2="41.86" />
<line fill="none" stroke="#5674b9" stroke-width="0.05mm" stroke-dasharray="0.4,0.2" opacity="0.03" x1="37.24" y1="41.77" x2="37.44" y2="41.97" />
<line fill="none" stroke="#5674b9" stroke-width="0.05mm" stroke-dasharray="0.4,0.2" opacity="0.96" x1="37.24" y1="41.77" x2="36.65" y2="41.90" />
<line fill="none" stroke="#00aeef" stroke-width="0.05mm" stroke-dasharray="0.4,0.2" opacity="0.39" x1="37.24" y1="41.77" x2="35.93" y2="42.44" />
<line fill="none" stroke="#111111" stroke-width="0.05mm" x1="37.24" y1="41.77" x2="38.08" y2="48.19" />
<line fill="none" stroke="#00aeef" stroke-width="0.05mm" stroke-dasharray="0.4,0.2" opacity="0.99" x1="38.08" y1="48.19" x2="38.78" y2="48.15" />
<line fill="none" stroke="#00aeef" stroke-width="0.05mm" stroke-dasharray="0.4,0.2" opacity="0.02" x1="38.08" y1="48.19" x2="38.14" y2="48.25" />
<line fill="none" stroke="#00aeef" stroke-width="0.05mm" stroke-dasharray="0.4,0.2" opacity="0.91" x1="38.08" y1="48.19" x2="38.57" y2="46.39" />
<line fill="none" stroke="#5674b9" stroke-width="0.05mm" stroke-dasharray="0.4,0.2" opacity="0.10" x1="38.08" y1="48.19" x2="38.09" y2="48.23" />
<line fill="none" stroke="#5674b9" stroke-width="0.05mm" stroke-dasharray="0.4,0.2" opacity="0.10" x1="38.08" y1="48.19" x2="38.09" y2="48.23" />
<line fill="none" stroke="#111111" stroke-width="0.05mm" x1="38.08" y1="48.19" x2="38.33" y2="49.01" />
<line fill="none" stroke="#111111" stroke-width="0.05mm" x1="38.33" y1="49.01" x2="38.61" y2="49.82" />
<line fill="none" stroke="#00aeef" stroke-width="0.05mm" stroke-dasharray="0.4,0.2" opacity="0.99" x1="38.61" y1="49.82" x2="38.31" y2="52.75" />
<line fill="none" stroke="#5674b9" stroke-width="0.05mm" stroke-dasharray="0.4,0.2" opacity="0.21" x1="38.61" y1="49.82" x2="38.35" y2="50.20" />
<line fill="none" stroke="#00aeef" stroke-width="0.05mm" stroke-dasharray="0.4,0.2" opacity="0.03" x1="38.61" y1="49.82" x2="38.44" y2="50.09" />
<line fill="none" stroke="#00aeef" stroke-width="0.05mm" stroke-dasharray="0.4,0.2" opacity="0.99" x1="38.61" y1="49.82" x2="37.12" y2="46.50" />
<line fill="none" stroke="#111111" stroke-width="0.05mm" x1="38.61" y1="49.82" x2="38.37" y2="52.68" />
<line fill="none" stroke="#00aeef" stroke-width="0.05mm" stroke-dasharray="0.4,0.2" opacity="0.93" x1="38.37" y1="52.68" x2="36.63" y2="52.74" />
<line fill="none" stroke="#00aeef" stroke-width="0.05mm" stroke-dasharray="0.4,0.2" opacity="0.85" x1="38.37" y1="52.68" x2="37.51" y2="54.20" />
<line fill="none" stroke="#5674b9" stroke-width="0.05mm" stroke-dasharray="0.4,0.2" opacity="0.20" x1="38.37" y1="52.68" x2="37.42" y2="53.14" />
<line fill="none" stroke="#5674b9" stroke-width="0.05mm" stroke-dasharray="0.4,0.2" opacity="0.85" x1="38.37" y1="52.68" x2="37.44" y2="52.08" />
<line fill="none" stroke="#00aeef" stroke-width="0.05mm" stroke-dasharray="0.4,0.2" opacity="0.07" x1="38.37" y1="52.68" x2="37.66" y2="52.19" />
</g>
<g>
<circle cx="23.00" cy="23.00" r="0.1" fill="#111111" />
<circle cx="23.07" cy="22.36" r="0.1" fill="#111111" />
<circle cx="30.94" cy="20.91" r="0.1" fill="#111111" />
<circle cx="34.37" cy="26.60" r="0.1" fill="#111111" />
<circle cx="28.40" cy="29.62" r="0.1" fill="#111111" />
<circle cx="33.79" cy="27.51" r="0.1" fill="#111111" />
<circle cx="30.21" cy="32.46" r="0.1" fill="#111111" />
<circle cx="28.26" cy="38.05" r="0.1" fill="#111111" />
<circle cx="34.97" cy="36.75" r="0.1" fill="#111111" />
<circle cx="37.24" cy="41.77" r="0.1" fill="#111111" />
<circle cx="38.08" cy="48.19" r="0.1" fill="#111111" />
<circle cx="38.33" cy="49.01" r="0.1" fill="#111111" />
<circle cx="38.61" cy="49.82" r="0.1" fill="#111111" />
<circle cx="38.37" cy="52.68" r="0.1" fill="#111111" />
</g>
<g>
<text x="23.20" y="23.00" font-size=".2mm" fill="#000000">0</text>
<text x="23.27" y="22.36" font-size=".2mm" fill="#000000">1</text>
<text x="31.14" y="20.91" font-size=".2mm" fill="#000000">2</text>
<text x="34.57" y="26.60" font-size=".2mm" fill="#000000">3</text>
<text x="28.60" y="29.62" font-size=".2mm" fill="#000000">1.1</text>
<text x="33.99" y="27.51" font-size=".2mm" fill="#000000">1.2</text>
<text x="30.41" y="32.46" font-size=".2mm" fill="#000000">1.3</text>
<text x="28.46" y="38.05" font-size=".2mm" fill="#000000">1.4</text>
<text x="35.17" y="36.75" font-size=".2mm" fill="#000000">1.5</text>
<text x="37.44" y="41.77" font-size=".2mm" fill="#000000">1.6</text>
<text x="38.28" y="48.19" font-size=".2mm" fill="#000000">1.7</text>
<text x="38.53" y="49.01" font-size=".2mm" fill="#000000">1.8</text>
<text x="38.81" y="49.82" font-size=".2mm" fill="#000000">1.9</text>
<text x="38.57" y="52.68" font-size=".2mm" fill="#000000">1.10</text>
</g>
<g>
</g>
</g>
</svg>