<svg width="723" height="643"
   xmlns:svg="http://www.w3.org/2000/svg"
   xmlns="http://www.w3.org/2000/svg" >
<!-- SVG created by TopoDroid v. 3.1.4 -->
  <defs>
    <marker id="Triangle" viewBox="0 0 10 10" refX="0" refY="5" 
      markerUnits="strokeWidth" markerWidth="4" markerHeight="3" orient="auto" >
      <path d="M 0 0 L 10 5 L 0 10 z" />
    </marker>
  </defs>
<g>
<g style="fill:none;stroke-opacity:0.6;stroke:red" >
  <path stroke-width="1" stroke="black" d="M 100.00 120.00 L 220.52 156.24" />
  <path stroke-width="1" stroke="black" d="M 220.52 156.24 L 250.44 207.42" />
  <path stroke-width="1" stroke="black" d="M 250.44 207.42 L 314.69 221.22" />
  <path stroke-width="1" stroke="black" d="M 314.69 221.22 L 463.95 150.74" />
  <path stroke-width="1" stroke="black" d="M 463.95 150.74 L 541.54 64.30" />
  <path stroke-width="1" stroke="black" d="M 541.54 64.30 L 586.52 19.86" />
  <path stroke-width="1" stroke="black" d="M 586.52 19.86 L 604.46 19.97" />
  <path stroke-width="1" stroke="black" d="M 604.46 19.97 L 583.58 1.09" />
  <path stroke-width="1" stroke="black" d="M 583.58 1.09 L 556.83 -43.53" />
  <path stroke-width="1" stroke="black" d="M 556.83 -43.53 L 506.57 -94.12" />
  <path stroke-width="1" stroke="black" d="M 506.57 -94.12 L 479.36 -152.15" />
  <path stroke-width="1" stroke="black" d="M 479.36 -152.15 L 439.91 -135.32" />
  <path stroke-width="1" stroke="black" d="M 439.91 -135.32 L 397.10 -125.00" />
  <path stroke-width="1" stroke="black" d="M 397.10 -125.00 L 325.80 -138.09" />
  <path stroke-width="1" stroke="black" d="M 325.80 -138.09 L 299.54 -141.05" />
  <path stroke-width="1" stroke="black" d="M 299.54 -141.05 L 319.95 -129.45" />
  <path stroke-width="1" stroke="black" d="M 319.95 -129.45 L 476.97 -175.66" />
  <path stroke-width="1" stroke="black" d="M 476.97 -175.66 L 527.94 -266.53" />
  <path stroke-width="1" stroke="black" d="M 319.95 -129.45 L 371.86 -82.90" />
  <path stroke-width="1" stroke="grey" d="M 220.52 156.24 L 179.74 171.67" />
  <path stroke-width="1" stroke="grey" d="M 220.52 156.24 L 260.22 164.37" />
  <path stroke-width="1" stroke="grey" d="M 250.44 207.42 L 242.42 210.77" />
  <path stroke-width="1" stroke="grey" d="M 250.44 207.42 L 268.41 202.08" />
  <path stroke-width="1" stroke="grey" d="M 250.44 207.42 L 227.52 208.45" />
  <path stroke-width="1" stroke="grey" d="M 314.69 221.22 L 296.33 247.48" />
  <path stroke-width="1" stroke="grey" d="M 314.69 221.22 L 263.50 81.65" />
  <path stroke-width="1" stroke="grey" d="M 314.69 221.22 L 337.78 161.43" />
  <path stroke-width="1" stroke="grey" d="M 314.69 221.22 L 366.31 133.34" />
  <path stroke-width="1" stroke="grey" d="M 314.69 221.22 L 347.32 252.86" />
  <path stroke-width="1" stroke="grey" d="M 314.69 221.22 L 421.22 188.29" />
  <path stroke-width="1" stroke="grey" d="M 314.69 221.22 L 392.71 200.30" />
  <path stroke-width="1" stroke="grey" d="M 314.69 221.22 L 396.14 184.64" />
  <path stroke-width="1" stroke="grey" d="M 314.69 221.22 L 394.78 173.44" />
  <path stroke-width="1" stroke="grey" d="M 463.95 150.74 L 453.78 137.52" />
  <path stroke-width="1" stroke="grey" d="M 463.95 150.74 L 461.70 82.57" />
  <path stroke-width="1" stroke="grey" d="M 463.95 150.74 L 465.01 159.37" />
  <path stroke-width="1" stroke="grey" d="M 463.95 150.74 L 479.30 75.64" />
  <path stroke-width="1" stroke="grey" d="M 541.54 64.30 L 549.32 74.09" />
  <path stroke-width="1" stroke="grey" d="M 541.54 64.30 L 546.27 73.44" />
  <path stroke-width="1" stroke="grey" d="M 541.54 64.30 L 545.19 68.17" />
  <path stroke-width="1" stroke="grey" d="M 541.54 64.30 L 604.47 88.21" />
  <path stroke-width="1" stroke="grey" d="M 586.52 19.86 L 605.17 45.41" />
  <path stroke-width="1" stroke="grey" d="M 586.52 19.86 L 587.17 14.21" />
  <path stroke-width="1" stroke="grey" d="M 586.52 19.86 L 522.00 29.83" />
  <path stroke-width="1" stroke="grey" d="M 586.52 19.86 L 639.38 -9.96" />
  <path stroke-width="1" stroke="grey" d="M 586.52 19.86 L 606.81 8.41" />
  <path stroke-width="1" stroke="grey" d="M 586.52 19.86 L 570.84 35.84" />
  <path stroke-width="1" stroke="grey" d="M 586.52 19.86 L 588.59 54.52" />
  <path stroke-width="1" stroke="grey" d="M 586.52 19.86 L 546.52 143.54" />
  <path stroke-width="1" stroke="grey" d="M 586.52 19.86 L 590.91 27.45" />
  <path stroke-width="1" stroke="grey" d="M 586.52 19.86 L 579.03 41.98" />
  <path stroke-width="1" stroke="grey" d="M 586.52 19.86 L 592.82 25.60" />
  <path stroke-width="1" stroke="grey" d="M 586.52 19.86 L 590.51 22.97" />
  <path stroke-width="1" stroke="grey" d="M 586.52 19.86 L 604.79 19.35" />
  <path stroke-width="1" stroke="grey" d="M 604.46 19.97 L 592.98 23.46" />
  <path stroke-width="1" stroke="grey" d="M 604.46 19.97 L 594.94 4.86" />
  <path stroke-width="1" stroke="grey" d="M 604.46 19.97 L 599.84 19.93" />
  <path stroke-width="1" stroke="grey" d="M 604.46 19.97 L 588.73 16.62" />
  <path stroke-width="1" stroke="grey" d="M 604.46 19.97 L 585.07 -8.63" />
  <path stroke-width="1" stroke="grey" d="M 583.58 1.09 L 581.24 13.50" />
  <path stroke-width="1" stroke="grey" d="M 583.58 1.09 L 585.93 -8.16" />
  <path stroke-width="1" stroke="grey" d="M 583.58 1.09 L 575.81 -49.18" />
  <path stroke-width="1" stroke="grey" d="M 583.58 1.09 L 591.83 4.57" />
  <path stroke-width="1" stroke="grey" d="M 556.83 -43.53 L 541.93 -32.34" />
  <path stroke-width="1" stroke="grey" d="M 556.83 -43.53 L 550.57 -39.83" />
  <path stroke-width="1" stroke="grey" d="M 556.83 -43.53 L 565.48 -12.82" />
  <path stroke-width="1" stroke="grey" d="M 556.83 -43.53 L 541.73 -53.64" />
  <path stroke-width="1" stroke="grey" d="M 556.83 -43.53 L 586.67 -12.60" />
  <path stroke-width="1" stroke="grey" d="M 506.57 -94.12 L 480.81 -93.75" />
  <path stroke-width="1" stroke="grey" d="M 506.57 -94.12 L 524.29 -91.36" />
  <path stroke-width="1" stroke="grey" d="M 506.57 -94.12 L 540.49 -83.58" />
  <path stroke-width="1" stroke="grey" d="M 506.57 -94.12 L 475.65 -160.99" />
  <path stroke-width="1" stroke="grey" d="M 479.36 -152.15 L 478.05 -133.78" />
  <path stroke-width="1" stroke="grey" d="M 479.36 -152.15 L 466.89 -155.00" />
  <path stroke-width="1" stroke="grey" d="M 479.36 -152.15 L 468.60 -140.56" />
  <path stroke-width="1" stroke="grey" d="M 479.36 -152.15 L 477.57 -101.09" />
  <path stroke-width="1" stroke="grey" d="M 479.36 -152.15 L 498.15 -138.50" />
  <path stroke-width="1" stroke="grey" d="M 479.36 -152.15 L 441.25 -135.65" />
  <path stroke-width="1" stroke="grey" d="M 439.91 -135.32 L 445.73 -125.28" />
  <path stroke-width="1" stroke="grey" d="M 439.91 -135.32 L 354.47 -194.36" />
  <path stroke-width="1" stroke="grey" d="M 439.91 -135.32 L 437.21 -164.56" />
  <path stroke-width="1" stroke="grey" d="M 439.91 -135.32 L 392.81 -118.78" />
  <path stroke-width="1" stroke="grey" d="M 439.91 -135.32 L 436.37 -147.92" />
  <path stroke-width="1" stroke="grey" d="M 397.10 -125.00 L 388.21 -130.51" />
  <path stroke-width="1" stroke="grey" d="M 397.10 -125.00 L 346.16 -138.08" />
  <path stroke-width="1" stroke="grey" d="M 397.10 -125.00 L 423.86 -150.72" />
  <path stroke-width="1" stroke="grey" d="M 397.10 -125.00 L 405.99 -154.30" />
  <path stroke-width="1" stroke="grey" d="M 325.80 -138.09 L 282.45 -216.33" />
  <path stroke-width="1" stroke="grey" d="M 325.80 -138.09 L 288.93 -152.88" />
  <path stroke-width="1" stroke="grey" d="M 325.80 -138.09 L 328.43 -146.23" />
  <path stroke-width="1" stroke="grey" d="M 325.80 -138.09 L 340.56 -162.44" />
  <path stroke-width="1" stroke="grey" d="M 325.80 -138.09 L 353.94 -133.42" />
  <path stroke-width="1" stroke="grey" d="M 299.54 -141.05 L 302.15 -126.25" />
  <path stroke-width="1" stroke="grey" d="M 299.54 -141.05 L 252.90 -138.94" />
  <path stroke-width="1" stroke="grey" d="M 299.54 -141.05 L 285.85 -140.21" />
  <path stroke-width="1" stroke="grey" d="M 299.54 -141.05 L 295.39 -191.16" />
  <path stroke-width="1" stroke="grey" d="M 299.54 -141.05 L 326.74 -148.23" />
  <path stroke-width="1" stroke="grey" d="M 319.95 -129.45 L 417.42 -93.25" />
  <path stroke-width="1" stroke="grey" d="M 319.95 -129.45 L 365.20 -136.74" />
  <path stroke-width="1" stroke="grey" d="M 319.95 -129.45 L 370.28 -186.07" />
  <path stroke-width="1" stroke="grey" d="M 319.95 -129.45 L 315.77 -251.56" />
  <path stroke-width="1" stroke="grey" d="M 319.95 -129.45 L 347.38 -142.04" />
  <path stroke-width="1" stroke="grey" d="M 319.95 -129.45 L 472.47 -172.68" />
  <path stroke-width="1" stroke="grey" d="M 319.95 -129.45 L 525.98 -265.32" />
  <path stroke-width="1" stroke="grey" d="M 319.95 -129.45 L 419.65 -201.93" />
  <path stroke-width="1" stroke="grey" d="M 319.95 -129.45 L 502.26 -154.97" />
  <path stroke-width="1" stroke="grey" d="M 319.95 -129.45 L 458.74 -128.90" />
  <path stroke-width="1" stroke="grey" d="M 319.95 -129.45 L 369.54 -75.35" />
  <path stroke-width="1" stroke="grey" d="M 476.97 -175.66 L 479.96 -171.97" />
  <path stroke-width="1" stroke="grey" d="M 476.97 -175.66 L 474.63 -242.18" />
  <path stroke-width="1" stroke="grey" d="M 476.97 -175.66 L 430.00 -181.13" />
  <path stroke-width="1" stroke="grey" d="M 476.97 -175.66 L 460.59 -188.64" />
  <path stroke-width="1" stroke="grey" d="M 527.94 -266.53 L 482.50 -446.95" />
  <path stroke-width="1" stroke="grey" d="M 527.94 -266.53 L 526.06 -317.39" />
  <path stroke-width="1" stroke="grey" d="M 527.94 -266.53 L 455.45 -317.14" />
  <path stroke-width="1" stroke="grey" d="M 527.94 -266.53 L 449.81 -296.36" />
  <path stroke-width="1" stroke="grey" d="M 527.94 -266.53 L 408.56 -281.75" />
  <path stroke-width="1" stroke="grey" d="M 371.86 -82.90 L 292.48 16.62" />
  <path stroke-width="1" stroke="grey" d="M 371.86 -82.90 L 349.98 -23.63" />
  <path stroke-width="1" stroke="grey" d="M 371.86 -82.90 L 337.88 -15.05" />
  <path stroke-width="1" stroke="grey" d="M 371.86 -82.90 L 305.57 -20.04" />
</g>
  <path stroke="#ff0000" stroke-width="2" fill="none" d="M 278.04 188.38 L 275.15 182.96 L 272.77 176.21 L 268.04 169.69" />
  <path stroke="#ff0000" stroke-width="2" fill="none" d="M 272.07 171.55 L 268.63 165.33 L 263.30 161.14 L 258.89 155.42 L 256.64 149.14 L 250.82 145.63 L 246.56 141.95 L 241.91 136.88 L 234.82 132.30 L 229.61 128.52 L 221.16 122.39 L 215.55 117.91 L 209.82 114.61 L 201.79 111.14 L 192.90 106.47 L 186.85 104.48 L 179.55 99.44 L 172.82 96.82 L 167.18 94.39 L 161.80 92.01 L 155.31 90.15 L 150.17 87.61 L 137.86 83.89 L 132.30 82.15 L 126.33 80.31" />
  <path stroke="#ff0000" stroke-width="2" fill="none" d="M 221.05 219.88 L 215.89 217.16 L 211.14 211.50 L 205.49 206.38 L 199.88 200.06 L 195.30 196.45 L 189.34 191.03 L 183.86 185.93 L 179.13 181.74 L 173.89 178.91 L 168.01 176.82 L 163.75 173.22 L 156.20 168.85 L 151.21 165.30 L 145.21 163.03 L 138.33 159.71 L 132.72 156.42 L 126.87 155.26 L 120.71 153.50 L 115.10 150.30 L 110.04 147.83 L 105.05 144.68 L 99.38 141.62 L 92.13 139.51" />
  <path stroke="#ff0000" stroke-width="2" fill="none" d="M 233.53 155.80 L 229.65 148.78 L 224.39 147.34 L 217.13 150.97 L 210.19 156.89 L 210.73 162.81 L 211.51 169.30 L 217.15 173.29 L 221.58 176.84 L 224.47 169.79 L 228.36 164.52 L 232.29 158.67" />
  <path stroke="#ff0000" stroke-width="2" fill="none" d="M 256.33 198.70 L 251.24 195.88 L 244.66 193.54 L 241.41 199.49 L 241.13 205.83 L 241.94 212.55 L 248.30 210.75 L 253.34 208.20 L 253.07 201.14" />
  <path stroke="#ff0000" stroke-width="2" fill="none" d="M 200.42 161.23 L 199.81 155.54 L 194.18 148.47 L 185.02 143.82 L 176.87 145.03 L 171.40 149.61 L 167.08 155.14 L 171.36 162.30 L 180.57 165.86 L 188.93 167.91 L 186.30 161.62 L 181.15 156.34 L 175.61 152.10" />
  <path stroke="#ff0000" stroke-width="2" fill="none" d="M 160.25 151.45 L 155.54 146.80 L 150.72 143.40 L 142.49 138.77 L 136.02 138.42 L 131.56 145.25 L 133.59 154.99 L 139.95 157.35 L 145.25 153.43 L 148.85 148.74" />
  <path stroke="#ff0000" stroke-width="2" fill="none" d="M 124.97 131.36 L 121.99 125.66 L 115.79 126.06 L 112.28 131.44 L 113.62 138.06 L 115.47 145.20 L 121.20 143.84 L 126.98 140.95 L 127.69 133.81 L 116.29 128.65" />
  <path stroke="#ff0000" stroke-width="2" fill="none" d="M 121.71 93.35 L 116.53 86.88 L 113.03 82.05 L 108.57 74.28 L 105.66 67.74" />
  <path stroke="#ff0000" stroke-width="2" fill="none" d="M 126.06 79.77 L 122.85 71.01 L 119.31 65.26 L 114.54 59.16 L 110.53 54.29" />
  <path stroke="#ff0000" stroke-width="2" fill="none" d="M 90.77 26.55 L 89.69 19.78 L 89.15 13.25 L 94.40 11.35 L 98.53 15.62 L 98.94 21.18" />
  <path stroke="#ff0000" stroke-width="2" fill="none" d="M 99.46 48.27 L 97.29 53.37 L 100.55 48.61 L 94.89 48.43 L 97.17 54.25" />
  <path stroke="#ff0000" stroke-width="2" fill="none" d="M 99.46 36.87 L 100.00 31.36 L 102.17 26.24 L 102.17 19.60 L 101.63 13.94" />
  <path stroke="#ff0000" stroke-width="2" fill="none" d="M 212.90 221.51 L 217.80 225.32 L 220.50 230.20 L 221.59 235.72 L 222.13 244.04 L 223.46 250.42" />
  <path stroke="#ff0000" stroke-width="2" fill="none" d="M 274.24 230.20 L 276.96 235.07 L 276.41 241.12 L 275.87 247.36 L 274.89 255.72 L 276.20 263.78 L 277.53 269.36 L 278.58 275.21" />
  <path stroke="#ff0066" stroke-width="2" fill="none" d="M 272.07 236.71 L 268.70 225.68 L 267.18 213.57 L 269.08 198.16 L 272.61 187.29" />
<!-- point blocks -->
<g transform="translate(219.96,166.74),scale(10),rotate(0.00)" 
 style="fill:none;stroke:#ffcc66;stroke-width:0.1" >
<path d="M -1.75 1.00 L 2.00 1.25 L 1.75 -1.25 L -1.25 -1.50 L -1.75 -1.00 L -1.75 1.00 L -1.50 0.50 L -1.25 -0.50 L -1.00 -1.00 L 1.25 -0.75 L 1.75 -1.25 M -1.00 -1.00 L -1.25 -1.50 "/> 
</g>
<!-- point blocks -->
<g transform="translate(105.02,125.25),scale(10),rotate(0.00)" 
 style="fill:none;stroke:#ffcc66;stroke-width:0.1" >
<path d="M -1.75 1.00 L 2.00 1.25 L 1.75 -1.25 L -1.25 -1.50 L -1.75 -1.00 L -1.75 1.00 L -1.50 0.50 L -1.25 -0.50 L -1.00 -1.00 L 1.25 -0.75 L 1.75 -1.25 M -1.00 -1.00 L -1.25 -1.50 "/> 
</g>
<!-- point blocks -->
<g transform="translate(246.83,214.72),scale(10),rotate(0.00)" 
 style="fill:none;stroke:#ffcc66;stroke-width:0.1" >
<path d="M -1.75 1.00 L 2.00 1.25 L 1.75 -1.25 L -1.25 -1.50 L -1.75 -1.00 L -1.75 1.00 L -1.50 0.50 L -1.25 -0.50 L -1.00 -1.00 L 1.25 -0.75 L 1.75 -1.25 M -1.00 -1.00 L -1.25 -1.50 "/> 
</g>
<!-- point blocks -->
<g transform="translate(304.34,219.28),scale(10),rotate(0.00)" 
 style="fill:none;stroke:#ffcc66;stroke-width:0.1" >
<path d="M -1.75 1.00 L 2.00 1.25 L 1.75 -1.25 L -1.25 -1.50 L -1.75 -1.00 L -1.75 1.00 L -1.50 0.50 L -1.25 -0.50 L -1.00 -1.00 L 1.25 -0.75 L 1.75 -1.25 M -1.00 -1.00 L -1.25 -1.50 "/> 
</g>
<!-- point label -->
<text x="98.29" y=".2f"  style="fill:black;stroke:black;stroke-width:0.3">0,1,2 powtórzone</text>
  <path stroke="#ff0000" stroke-width="2" fill="none" d="M 275.28 185.46 L 276.91 170.52 L 275.28 158.39 L 271.08 148.13 L 265.43 136.96 L 260.96 125.08 L 258.73 112.96 L 254.93 99.93 L 255.74 87.46 L 262.86 78.47 L 273.99 81.90 L 279.62 92.32 L 286.68 104.27 L 290.00 115.59 L 293.19 126.82 L 302.37 138.40 L 309.18 150.64 L 320.93 157.81 L 333.34 159.56 L 339.25 149.15 L 347.75 140.93 L 353.44 130.91 L 364.70 126.81 L 371.39 135.63 L 372.99 147.76 L 369.73 159.39 L 368.10 166.51" />
  <path stroke="#ff0000" stroke-width="2" fill="none" d="M 287.77 245.19 L 298.47 249.67 L 308.38 254.69 L 319.93 257.21 L 330.92 258.77 L 343.16 258.23" />
  <path stroke="#ffcc00" stroke-width="2" fill="none" d="M 295.37 138.75 L 293.74 143.64 L 282.88 147.17 L 275.28 155.05 L 268.27 156.43" />
  <path stroke="#ffcc00" stroke-width="2" fill="none" d="M 357.79 175.68 L 349.49 163.11 L 338.58 155.70 L 326.76 153.51" />
<!-- point blocks -->
<g transform="translate(336.62,224.56),scale(10),rotate(0.00)" 
 style="fill:none;stroke:#ffcc66;stroke-width:0.1" >
<path d="M -1.75 1.00 L 2.00 1.25 L 1.75 -1.25 L -1.25 -1.50 L -1.75 -1.00 L -1.75 1.00 L -1.50 0.50 L -1.25 -0.50 L -1.00 -1.00 L 1.25 -0.75 L 1.75 -1.25 M -1.00 -1.00 L -1.25 -1.50 "/> 
</g>
<!-- point blocks -->
<g transform="translate(333.90,213.15),scale(10),rotate(0.00)" 
 style="fill:none;stroke:#ffcc66;stroke-width:0.1" >
<path d="M -1.75 1.00 L 2.00 1.25 L 1.75 -1.25 L -1.25 -1.50 L -1.75 -1.00 L -1.75 1.00 L -1.50 0.50 L -1.25 -0.50 L -1.00 -1.00 L 1.25 -0.75 L 1.75 -1.25 M -1.00 -1.00 L -1.25 -1.50 "/> 
</g>
  <path stroke="#ff0000" stroke-width="2" fill="none" d="M 343.16 258.23 L 354.60 252.15 L 363.06 243.49 L 368.63 233.90 L 375.91 223.13 L 382.73 212.41 L 390.49 205.01" />
  <path stroke="#ff0000" stroke-width="2" fill="none" d="M 368.10 166.51 L 391.12 174.91 L 397.73 172.25" />
  <path stroke="#ffcc00" stroke-width="2" fill="none" d="M 395.01 201.75 L 389.11 187.83 L 386.87 176.54" />
  <path stroke="#ffcc00" stroke-width="2" fill="none" d="M 417.27 193.06 L 413.88 181.80 L 407.06 172.09 L 400.89 165.36" />
  <path stroke="#ffcc00" stroke-width="2" fill="none" d="M 442.78 179.48 L 432.74 164.01 L 423.24 152.60" />
  <path stroke="#ff0000" stroke-width="2" fill="none" d="M 392.30 206.64 L 402.59 195.43 L 411.64 187.41 L 422.62 180.77 L 435.50 174.60 L 446.98 168.62 L 457.70 165.36" />
  <path stroke="#ff0000" stroke-width="2" fill="none" d="M 391.21 171.88 L 402.84 165.73 L 413.17 160.23 L 424.89 151.75 L 435.69 144.93 L 449.29 139.03" />
  <path stroke="#ff0000" stroke-width="2" fill="none" d="M 447.12 138.76 L 450.99 133.23 L 452.82 126.00 L 453.68 118.99 L 456.08 113.23 L 457.52 107.46 L 458.52 101.05 L 458.52 93.96 L 457.98 87.89" />
  <path stroke="#ff0000" stroke-width="2" fill="none" d="M 483.49 130.61 L 483.49 123.46 L 481.30 116.98 L 479.15 108.08 L 479.15 100.74 L 478.06 93.16 L 477.52 85.20 L 476.26 78.49" />
  <path stroke="#ff0000" stroke-width="2" fill="none" d="M 477.52 80.11 L 475.08 73.74 L 468.31 71.42 L 462.35 73.85 L 459.61 80.92 L 459.61 86.70" />
  <path stroke="#ff0000" stroke-width="2" fill="none" d="M 459.61 167.00 L 466.31 163.92 L 472.64 159.67 L 479.33 156.62 L 484.62 154.61 L 489.72 150.99 L 493.81 145.82" />
  <path stroke="#ff0000" stroke-width="2" fill="none" d="M 495.43 149.62 L 493.51 144.24 L 493.26 138.56 L 496.90 133.49 L 499.87 128.88 L 504.12 124.97 L 506.29 119.64 L 510.15 114.26 L 515.51 111.43 L 519.21 106.28 L 522.30 101.56 L 525.97 97.35 L 530.59 93.81 L 535.50 90.63 L 538.04 85.81 L 541.81 81.74 L 547.19 79.56" />
  <path stroke="#ff0000" stroke-width="2" fill="none" d="M 484.58 125.72 L 486.54 120.50 L 488.08 114.92 L 489.19 108.62 L 491.25 103.52 L 494.69 98.77 L 500.32 95.58 L 504.93 91.78 L 509.70 88.33 L 515.46 83.59 L 519.02 78.53 L 524.20 75.76 L 528.61 72.44 L 532.62 67.89" />
  <path stroke="#ffcc00" stroke-width="2" fill="none" d="M 481.32 150.16 L 479.24 136.56 L 474.26 127.90" />
  <path stroke="#ffcc00" stroke-width="2" fill="none" d="M 478.61 125.18 L 466.56 119.95 L 451.27 123.47" />
<!-- point label -->
<text x="322.59" y=".2f"  style="fill:black;stroke:black;stroke-width:0.3">meander w górę. słychacć wode.</text>
  <path stroke="#ff0000" stroke-width="2" fill="none" d="M 547.19 79.56 L 562.46 92.59 L 571.97 100.47" />
<!-- point continuation -->
<g transform="translate(591.85,118.12),scale(10),rotate(0.00)" 
 style="fill:none;stroke:#ff3333;stroke-width:0.1" >
<path d="M 0.00 0.75 L 0.00 0.00 C 0.00 -0.25 0.25 -0.50 0.50 -0.75 C 0.75 -1.00 0.25 -1.50 0.00 -1.50 C -0.25 -1.50 -0.75 -0.75 -0.75 -1.00 M 0.00 1.75 L 0.00 1.25 "/> 
</g>
  <path stroke="#ff0000" stroke-width="2" fill="none" d="M 533.34 66.84 L 535.17 63.17 L 536.18 58.84 L 538.37 55.35 L 541.82 52.72 L 545.28 49.86 L 548.08 47.06 L 551.79 43.74 L 555.26 40.65 L 557.34 37.23 L 561.18 33.95 L 565.32 32.64" />
  <path stroke="#ff0000" stroke-width="2" fill="none" d="M 565.32 32.64 L 568.77 29.17 L 571.56 25.51 L 574.84 22.92 L 578.37 21.14 L 581.89 18.27 L 585.91 17.27" />
  <path stroke="#ff00ff" stroke-width="2" fill="none" d="M 598.57 79.02 L 587.52 77.64 L 580.11 87.43 L 581.98 98.51 L 589.88 106.72 L 600.97 105.39 L 607.25 95.86 L 601.13 82.53 L 596.26 72.96" />
  <path stroke="#ff00ff" stroke-width="2" fill="none" d="M 565.86 74.45 L 557.21 90.20" />
  <path stroke="#ff0000" stroke-width="2" fill="none" d="M 595.31 78.48 L 582.64 72.97 L 572.16 69.25" />
  <path stroke="#ff0000" stroke-width="2" fill="none" d="M 595.31 78.48 L 582.90 60.86 L 581.73 53.53" />
  <path stroke="#ff0000" stroke-width="2" fill="none" d="M 604.96 38.18 L 603.70 49.02 L 601.09 58.76 L 600.31 67.34 L 597.35 71.35" />
  <path stroke="#ff0000" stroke-width="2" fill="none" d="M 604.96 38.18 L 608.10 23.17 L 612.89 19.40" />
<!-- point water-flow -->
<g transform="translate(598.38,89.93),scale(10),rotate(0.00)" 
 style="fill:none;stroke:#6666ff;stroke-width:0.1" >
<path d="M 0.00 0.75 C -0.25 0.75 -0.25 0.00 0.00 0.00 C 0.25 0.00 0.25 -0.75 0.00 -0.75 C -0.25 -0.75 -0.25 -1.50 0.00 -1.50 C 0.25 -1.50 0.38 -1.62 0.38 -1.88 C 0.38 -2.12 0.00 -2.25 0.00 -2.50 L 1.00 -1.50 M 0.00 -2.50 L -1.00 -1.50 "/> 
</g>
  <path stroke="#ff0000" stroke-width="2" fill="none" d="M 613.10 20.64 L 611.85 18.56 L 610.04 16.19 L 608.11 15.28 L 606.68 13.82 L 605.34 12.23 L 604.11 10.21 L 602.43 7.89 L 601.18 5.60 L 599.78 3.67 L 598.05 2.03 L 596.68 0.26 L 595.32 -1.69 L 593.65 -3.37 L 592.09 -4.73 L 590.75 -6.27 L 589.20 -8.02 L 587.30 -9.06" />
  <path stroke="#ff0000" stroke-width="2" fill="none" d="M 589.00 19.45 L 587.76 16.62 L 585.93 14.65 L 584.76 12.55 L 583.29 10.77 L 581.35 8.44 L 580.06 6.70 L 578.83 5.12 L 577.31 3.64" />
  <path stroke="#ff00ff" stroke-width="2" fill="none" d="M 576.95 3.05 L 580.75 -0.55 L 583.89 -4.43 L 587.89 -8.88 L 589.59 -12.47" />
  <path stroke="#ff0000" stroke-width="2" fill="none" d="M 587.30 -9.06 L 589.79 -18.38 L 589.53 -24.71 L 589.14 -30.16 L 586.89 -34.71 L 583.57 -39.93 L 579.48 -43.51 L 575.10 -46.39 L 571.07 -49.59 L 566.76 -52.12 L 562.54 -53.17 L 557.77 -53.46" />
  <path stroke="#ff0000" stroke-width="2" fill="none" d="M 574.98 0.88 L 573.89 0.58 L 568.56 -2.98 L 563.69 -8.12 L 559.38 -11.77 L 553.12 -16.32 L 548.40 -21.17 L 545.88 -25.33 L 543.97 -29.97 L 541.76 -33.75 L 540.36 -38.88" />
  <path stroke="#ff0000" stroke-width="2" fill="none" d="M 543.08 -35.66 L 540.33 -38.42 L 537.64 -42.02 L 534.37 -44.64 L 532.01 -48.20 L 529.68 -52.79 L 527.14 -56.25 L 524.22 -59.17 L 520.51 -62.11 L 516.89 -65.18 L 513.59 -68.63 L 510.64 -71.21 L 507.43 -73.65 L 504.44 -77.20 L 501.18 -79.90 L 497.67 -82.41 L 494.23 -85.30 L 490.56 -87.77 L 486.65 -90.96" />
  <path stroke="#ff0000" stroke-width="2" fill="none" d="M 565.13 -49.21 L 563.49 -53.26 L 559.60 -58.55 L 555.00 -64.07 L 552.56 -67.20 L 549.54 -69.83 L 546.65 -72.72 L 542.45 -76.93 L 539.26 -80.12 L 535.16 -84.22 L 532.32 -87.17 L 529.35 -90.99 L 526.66 -93.89" />
  <path stroke="#ff0000" stroke-width="2" fill="none" d="M 487.38 -84.38 L 485.49 -89.52 L 482.51 -95.48 L 479.26 -100.21" />
  <path stroke="#ff0000" stroke-width="2" fill="none" d="M 531.80 -90.34 L 526.38 -97.38 L 521.78 -104.42 L 519.61 -110.66 L 518.74 -116.05 L 516.90 -121.49 L 513.09 -126.84 L 509.05 -132.06 L 504.32 -138.26 L 499.62 -142.32 L 495.24 -145.88 L 491.01 -149.73 L 487.66 -154.00" />
  <path stroke="#ff0000" stroke-width="2" fill="none" d="M 485.22 -151.57 L 489.56 -148.32 L 488.21 -154.12 L 484.99 -160.06 L 479.53 -164.30 L 473.67 -165.35 L 468.16 -167.28 L 462.32 -168.37 L 456.12 -168.37 L 451.65 -165.12 L 445.37 -165.01 L 439.96 -165.66 L 433.49 -163.76 L 428.79 -160.68" />
  <path stroke="#ff0000" stroke-width="2" fill="none" d="M 482.51 -90.88 L 475.58 -95.00 L 472.57 -100.92 L 469.96 -106.93 L 465.62 -112.11 L 461.58 -116.69 L 457.72 -120.62 L 453.26 -124.74 L 447.46 -125.36 L 441.16 -126.29" />
  <path stroke="#ff00ff" stroke-width="2" fill="none" d="M 437.56 -125.56 L 435.66 -136.93 L 431.99 -150.70 L 426.16 -161.94 L 422.12 -167.28" />
  <path stroke="#ff0000" stroke-width="2" fill="none" d="M 432.02 -163.75 L 423.43 -160.77 L 413.27 -158.75 L 404.82 -155.50 L 397.13 -152.04 L 391.66 -151.11" />
  <path stroke="#ff0000" stroke-width="2" fill="none" d="M 443.96 -120.20 L 436.89 -123.71 L 427.84 -122.52 L 418.18 -120.03 L 411.16 -116.53 L 403.62 -113.62 L 395.24 -113.52 L 386.81 -114.03 L 379.31 -117.06" />
<!-- point clay -->
<g transform="translate(420.74,-131.69),scale(10),rotate(0.00)" 
 style="fill:none;stroke:#ffcc66;stroke-width:0.1" >
<path d="M -1.50 0.00 C -1.50 -0.25 -1.00 -0.75 -0.75 -0.75 C -0.50 -0.75 0.00 -0.25 0.00 0.00 C 0.00 0.25 0.50 0.75 0.75 0.75 C 1.00 0.75 1.50 0.25 1.50 0.00 "/> 
</g>
<!-- point clay -->
<g transform="translate(406.96,-140.15),scale(10),rotate(0.00)" 
 style="fill:none;stroke:#ffcc66;stroke-width:0.1" >
<path d="M -1.50 0.00 C -1.50 -0.25 -1.00 -0.75 -0.75 -0.75 C -0.50 -0.75 0.00 -0.25 0.00 0.00 C 0.00 0.25 0.50 0.75 0.75 0.75 C 1.00 0.75 1.50 0.25 1.50 0.00 "/> 
</g>
  <path stroke="#ff0000" stroke-width="2" fill="none" d="M 351.77 -123.30 L 348.50 -123.55 L 345.86 -123.80 L 342.48 -124.15 L 339.73 -124.65 L 336.96 -124.94 L 333.56 -126.44" />
  <path stroke="#ff0000" stroke-width="2" fill="none" d="M 381.16 -115.51 L 376.74 -116.97 L 374.11 -118.03 L 369.02 -119.00 L 366.49 -119.90 L 363.36 -120.35 L 360.76 -121.19 L 357.58 -122.35 L 354.30 -122.55 L 351.35 -123.10 L 348.64 -123.45 L 345.91 -123.80 L 342.78 -123.80 L 339.92 -124.05 L 336.82 -124.30 L 333.29 -125.27" />
  <path stroke="#ff0000" stroke-width="2" fill="none" d="M 393.46 -152.20 L 390.95 -151.95 L 387.50 -151.99 L 383.59 -152.64 L 379.78 -153.56 L 376.10 -153.75 L 370.80 -154.19 L 367.79 -154.87 L 364.04 -155.33 L 361.21 -155.52 L 356.19 -155.91 L 353.45 -156.58 L 349.71 -158.42 L 346.54 -160.44 L 343.67 -161.00 L 340.71 -161.50" />
  <path stroke="#ff0000" stroke-width="2" fill="none" d="M 342.26 -161.43 L 340.28 -160.62 L 338.40 -161.43 L 335.95 -162.15 L 334.16 -162.32 L 332.32 -162.15 L 330.27 -162.63 L 328.18 -163.51 L 325.85 -164.14 L 323.96 -164.30 L 321.95 -164.48 L 319.38 -164.66 L 317.50 -164.44 L 315.65 -164.12 L 313.27 -164.30 L 316.42 -167.35 L 313.10 -163.04 L 308.01 -156.60 L 304.22 -149.76 L 300.37 -143.80 L 298.57 -141.68" />
  <path stroke="#ff0000" stroke-width="2" fill="none" d="M 334.90 -124.27 L 333.38 -125.26 L 331.70 -126.21 L 329.99 -127.39 L 328.38 -128.27 L 327.45 -129.92 L 325.84 -130.82 L 323.63 -131.62 L 321.98 -132.53 L 319.96 -133.89 L 317.96 -134.54 L 316.13 -134.68 L 314.18 -134.86" />
  <path stroke="#ff00ff" stroke-width="2" fill="none" d="M 320.37 -130.37 L 317.41 -135.22 L 313.15 -139.21 L 307.19 -141.32 L 303.11 -141.14 L 299.10 -139.08 L 296.79 -135.77 L 296.50 -130.68 L 297.64 -125.92 L 300.63 -123.19 L 305.58 -121.20 L 311.54 -119.54 L 318.03 -120.93 L 321.33 -124.46 L 322.64 -128.17" />
</g>
</svg>
