<?xml version="1.0" encoding="utf-8"?>
<!DOCTYPE svg PUBLIC "-//W3C//DTD SVG 1.1//EN" "http://www.w3.org/Graphics/SVG/1.1/DTD/svg11.dtd">
<svg version="1.1" id="Layer_1" xmlns="http://www.w3.org/2000/svg" xmlns:xlink="http://www.w3.org/1999/xlink" x="0px" y="0px" width="83mm" height="95mm" viewBox="0 0 83 95" style="background-color:#ffffff;enable-background:new 0 0 83 95;" xml:space="preserve">
<symbol id="entrance" viewBox="0 0 24 24">
<path d="M7.54,21h8.92L12,3l-4.46,18Z"/>
</symbol>
<symbol id="tree" viewBox="0 0 24 24">
<path d="M22.569,11.107c0,2.375-1.925,4.3-4.3,4.3-.755,0-1.497-.2-2.15-.58h0l-3.362,3.549.225,5.624h-2.594l.437-6.77h0l-2.771-3.23c-.692.449-1.498.688-2.323.689-2.375,0-4.3-1.925-4.3-4.3.003-2.12,1.55-3.921,3.645-4.244-.277-.576-.42-1.206-.421-1.845C4.655,1.925,6.58,0,8.955,0c1.508,0,2.906.792,3.681,2.086.773-.654,1.752-1.013,2.764-1.013,2.375,0,4.3,1.925,4.3,4.3.002.543-.1,1.082-.3,1.587,1.87.51,3.168,2.208,3.169,4.147ZM10.93,15.628l.135-2.087c-.638-.114-1.241-.371-1.765-.753-.186.274-.403.525-.646.75h0l2.276,2.09ZM15.378,14.279c-.453-.411-.813-.913-1.057-1.474-.523.376-1.124.629-1.758.739l.127,3.156,2.688-2.421Z"/>
</symbol>
<symbol id="vegetation" viewBox="0 0 24 24">
<path d="M11.876,18.239l-.137-12.468.785-.009.137,12.468-.785.009ZM10.188,18.017l-.776-.112.864-5.975-5.276-5.55.569-.54,5.537,5.825-.918,6.352ZM14.647,17.769l-.783-.031.28-6.978,4.41-3.057.446.644-4.087,2.834-.265,6.587Z"/>
</symbol>
<symbol id="rock_1" viewBox="0 0 24 24">
<polygon points="1.929 9.314 6.855 23 22.071 17.31 18.692 2.849 7.931 1 1.929 9.314" opacity=".5"/>
</symbol>
<symbol id="rock_2" viewBox="0 0 24 24">
<polygon points="19 6.323 6.823 7.393 5 14.833 18.033 17.677 19 6.323" opacity=".5"/>
</symbol>
<symbol id="rock_3" viewBox="0 0 24 24">
<path d="M9.897,16c1.78.022,4.556-.897,5.532-2.509,1.444-2.379-.379-6.067-2.573-5.415-4.967,1.482-6.303,7.877-2.959,7.924Z" opacity=".5"/>
</symbol>
<symbol id="rock_pebble" viewBox="0 0 24 24">
<path d="M12.072,10.113c-.742.06-1.561.609-1.866,1.238-1.041,2.141,2.138,3.095,3.36,2.218.929-.667.225-2.828-.799-3.338-.209-.104-.447-.138-.695-.118Z" opacity=".5"/>
</symbol>
<symbol id="camp" viewBox="0 0 24 24">
<path d="M12,4.92l-5.71,13.13h-2.64v.5l16.7-.07v-.48h-2.35l-4.89-11.61,3.31-.91-3.88-.48-.05-.08-.24-.58-.25.58ZM17.44,18h-1.07l-2.08-5-2.09-5-2.13,5-2.07,5h-1.13l5.38-12.34,5.19,12.34Z"/>
</symbol>
<symbol id="human" viewBox="0 0 24 24">
<path d="M6.91,12c-.008,1.264.541,2.467,1.5,3.29.974.905,2.261,1.396,3.59,1.37,1.329.026,2.616-.465,3.59-1.37.959-.823,1.508-2.026,1.5-3.29.008-1.264-.541-2.467-1.5-3.29-.974-.905-2.261-1.396-3.59-1.37-1.329-.026-2.616.465-3.59,1.37-.959.823-1.508,2.026-1.5,3.29ZM11.5,12.05l-2.8,2.52c-.659-.691-1.019-1.615-1-2.57-.002-.935.352-1.836.99-2.52l2.81,2.57ZM14.91,9.1c.789.62,1.285,1.54,1.37,2.54h-4.12l-2.91-2.64c.785-.614,1.754-.946,2.75-.94,1.064-.018,2.099.351,2.91,1.04ZM16.28,12.46c-.128.979-.634,1.869-1.41,2.48-.806.666-1.825,1.021-2.87,1-.971.015-1.92-.291-2.7-.87l2.86-2.61h4.12Z"/>
</symbol>
<symbol id="bones" viewBox="0 0 24 24">
<path d="M14.896,17.083h-.369c-.043.011-.088.011-.131,0l-.119-.071c-.043-.037-.08-.081-.107-.131l-.095-.155c-.027-.058-.051-.118-.071-.178l-.083-.202s0-.131-.095-.226-.071-.19-.095-.25c-.126-.294-.278-.576-.452-.845-.214-.345-.511-.761-.88-1.19-.377-.513-.79-.998-1.237-1.451-.468-.441-.987-.825-1.546-1.142-.527-.311-1.108-.521-1.713-.619-.814.019-1.553-.47-1.856-1.225-.017-.098-.017-.199,0-.297-.017-.114-.017-.231,0-.345.019-.12.073-.232.155-.321.113-.108.26-.171.416-.178l.619-.083h.547c.111.004.222-.02.321-.071.146-.065.261-.185.321-.333.079-.109.132-.236.155-.369.029-.118.091-.225.178-.309.097-.096.222-.158.357-.178.182-.054.377-.054.559,0,.175.123.318.286.416.476.275.423.514.869.714,1.332.143.333.274.619.393.856.13.242.285.469.464.678l.452.559c.217.188.447.359.69.511.333.214.607.393.821.511l1.19.666c.143.11.299.202.464.274.187.09.37.189.547.297l.511.309c.191.105.374.225.547.357l.428.345c.135.115.259.242.369.381.113.112.202.246.262.393.238.571,0,.928-.559,1.082h0c-.446.006-.891.042-1.332.107-.217.118-.391.301-.5.523-.15.244-.382.425-.654.511Z"/>
</symbol>
<symbol id="rats" viewBox="0 0 24 24">
<path d="M20.273,11.523c-.945.086-1.649,1.057-2.33,1.995l-.274.374c-.523.71-2.207.752-3.041.699-.139-1.002-.841-4.825-3.46-4.825-.552,0-1.082.063-1.598.158.069-.157.125-.327.125-.512,0-.254-.121-.45-.332-.538-.359-.149-.866.08-1.161.374-.322.324-.388.873-.398,1.178-3.359,1.303-5.553,4.105-5.671,4.259l-.35.457h12.582c.107.011.415.038.824.038.927,0,2.343-.143,2.937-.949l.277-.379c.606-.836,1.233-1.7,1.921-1.763.341-.031.685.131,1.066.495l.392-.411c-.501-.477-1.009-.698-1.509-.65ZM8.604,9.649c.209-.208.479-.277.523-.238,0,.266-.215.557-.336.691-.132.036-.267.066-.396.107.028-.21.086-.437.209-.56ZM2.974,14.572c1.064-1.18,4.205-4.239,8.195-4.239,2.058,0,2.722,3.211,2.882,4.239H2.974Z"/>
<path d="M6.535,12.701c-.277,0-.504.225-.504.501,0,.282.226.511.504.511s.501-.23.501-.511c0-.277-.225-.501-.501-.501Z"/>
</symbol>
<symbol id="fossil" viewBox="0 0 24 24">
<path d="M19,12.601c-.105-1.951-1.013-3.829-2.491-5.154-1.438-1.286-3.26-1.925-5.131-1.83-1.793.105-3.515.95-4.723,2.316-1.169,1.323-1.752,2.991-1.643,4.697.103,1.632.878,3.193,2.125,4.284,1.099.961,2.458,1.477,3.863,1.477.136,0,.273-.004.41-.014,1.475-.103,2.88-.812,3.856-1.946.828-.961,1.252-2.14,1.269-3.358.131-.19.501-.653.817-.756.289-.093.837.049,1.121.162.004.05.013.099.016.149l.51-.028ZM18.287,11.319l-.674-.294-.397-.346-.393-.135.169-.156.378.135.484-.361-.377-.753-.922.125.075-.397.375.032-.04-.487c.622.78,1.077,1.68,1.322,2.637ZM16.715,8.381l-.58.196-.358.306-.178-.118-.15-.356-.091-.271.354-.268-.187-.536-.094-.072c.255.173.503.357.737.567.194.174.374.36.546.552ZM14.018,7.087l.031-.548c.309.117.61.259.902.423l-.251.417-.328.329-.408-.023-.002-.32.055-.279ZM13.143,6.272l-.442.219.03.527.092.35-.222.132-.098-.099.164-.187-.324-.295-.498-.194.2-.27-.022-.33c.378.015.752.068,1.12.149ZM9.894,6.419l.597.374.319.208-.126.25-.393.373-.489-.076-.334-.229-.713-.257-.217-.032c.427-.257.883-.459,1.356-.61ZM8.086,7.331l-.013.261.315.395-.186.491-.684.172-.478-.378c.314-.355.668-.667,1.047-.941ZM6.495,8.993l.186.212.263.398.126.417.026.635-.608.228-.616.311-.324.711.709.092.172.346-.423.45-.267.589.367.957.547-.317.387.316-.076.637-.465.44c-.566-.837-.914-1.811-.977-2.818-.082-1.276.264-2.527.973-3.606ZM6.541,15.477l.623.235.919-.055.14.026-.439.165-.097.594.527.621c-.256-.159-.508-.329-.741-.533-.357-.312-.666-.67-.933-1.054ZM9.131,17.309l.272.313c-.354-.114-.699-.261-1.028-.45l.456-.458.28-.328.271-.018.017.175-.414.281.147.485ZM11.375,17.868c-.531.04-1.056-.03-1.57-.152l.332-.127.137-.594.493-.135-.128.384.222.322.414.142.163.15c-.021.002-.042.009-.063.011ZM12.556,17.394l.662-.029c-.41.199-.848.325-1.296.408l.156-.329-.335-.573.363-.315.215-.22v.1l-.171.515.406.442ZM14.879,16.099c-.303.352-.663.64-1.044.895l-.088-.359v-.445l-.278-.165.244-.261.021.349.556.317.214-.876.144-.414.378-.029.176-.554.258-.404.462-.231-.15-.885-.181-.448-.055-.859-.106-.886-.005-.089c.337.577.559,1.216.612,1.883.099,1.25-.311,2.48-1.158,3.464ZM14.13,9.343c.106.074.217.135.317.22.263.222.489.478.692.75l-.341.182-.347-.093-.239-.407.086-.471-.169-.179ZM17.194,11.834c-.259.084-.504.288-.698.489-.167-1.212-.771-2.35-1.719-3.151-.972-.82-2.184-1.214-3.407-1.1-1.158.106-2.248.688-2.991,1.595-.701.855-1.023,1.912-.911,2.976.106.997.621,1.928,1.412,2.556.738.586,1.649.843,2.546.732.844-.11,1.621-.563,2.131-1.244.466-.621.659-1.371.543-2.113-.11-.676-.512-1.31-1.075-1.695-.507-.347-1.105-.473-1.683-.349-.522.107-.995.445-1.264.902-.231.395-.287.842-.155,1.261.119.371.438.706.794.834.281.101.571.069.812-.086.209-.132.391-.497.312-.769-.056-.194-.224-.31-.448-.31l.015.511c-.024-.005-.055-.039-.058-.062.006.046-.053.17-.096.201-.112.071-.234.082-.365.036-.208-.075-.41-.288-.479-.507-.113-.357-.003-.659.108-.848.193-.331.549-.584.928-.662.443-.092.9.003,1.29.271.449.308.77.815.858,1.355.095.603-.063,1.216-.446,1.726-.428.572-1.08.952-1.787,1.044-.761.092-1.535-.127-2.165-.626-.247-.196-.45-.435-.63-.69l.448-.39-.1-.116-.368.32-.181-.688.279-.52-.209-.501-.241-.434.368-.347.378-.431.019-.021v-.407l.321-.369.605-.221.166-.39-.231-.36.331-.27.237.526.542-.277.033-.45-.153-.011-.026.364-.322.164-.178-.394c.362-.153.739-.269,1.133-.305.803-.071,1.6.103,2.312.492l-.578.05-.091.439-.047.337-.231-.1.046-.427.084-.43-.149-.03-.086.437-.06.545.521.225.072-.53.067-.323.528-.046.331.353-.076.422-.004.028.299.511.467.125.405-.217c.012.017.023.036.034.053l.02.36.106.886.055.867.186.469.127.758-.398.2-.285.448-.156.484-.375.029-.18.514-.167.686-.308-.174-.037-.622-.619.66.368.218.002.375.072.299-.426.26-.622.026-.297-.323.147-.442.004-.511-.473.483-.455.395.36.612-.168.354c-.037.005-.073.014-.11.019l-.261-.241-.409-.146-.149-.218.194-.583-.857.236-.139.603-.398.151-.336-.378-.109-.361.397-.268-.041-.412-.482.031-.318.373-.371.372-.498-.586.072-.435.863-.325-.691-.131-.906.053-.438-.165.361-.342.092-.776-.535-.437-.482.28-.281-.728.223-.499.486-.52-.257-.513-.584-.076.216-.474.559-.283.704-.265-.032-.755-.135-.455-.285-.436-.221-.252c.065-.093.133-.184.204-.275l.199-.161.497.392.834-.211.246-.645-.332-.419.015-.319c.033-.023.066-.046.099-.068l.375.055.672.241.34.234.612.103.457-.434.209-.404-.84-.537.241-.133c.328-.075.661-.13.998-.15.154-.009.308-.006.462-.003l.019.283-.288.388.65.245.202.185-.159.182.283.284.425-.251-.12-.446-.022-.41.521-.259c.146.038.291.083.434.131l.079.105-.027.506-.055.283v.479l.621.035.389-.391.201-.334.374.288.136.388-.353.266.128.382.17.404.313.208.409-.358.599-.202.04.488-.332-.028-.14.74,1.024-.138.27.54-.316.235-.387-.139-.43.395.601.197.394.344.803.354c.031.139.064.277.087.418-.309-.095-.827-.215-1.219-.087ZM9.637,9.233l.241.374-.108.255-.562.205-.403.448v.407l-.354.404-.449.423.295.529.178.426-.273.509.151.572c-.201-.37-.332-.777-.377-1.199-.099-.927.185-1.849.798-2.597.246-.301.545-.545.865-.758Z"/>
</symbol>
<symbol id="?" viewBox="0 0 24 24">
<path d="M9.6,8.179c.589-.177,1.201-.266,1.838-.266.959,0,1.693.208,2.201.623s.762.965.762,1.65c0,.661-.197,1.167-.592,1.518-.395.351-.951.526-1.669.526-.25,0-.488-.02-.714-.061v1.378h-.677v-1.898h.677c.75,0,1.288-.103,1.614-.308s.49-.59.49-1.155c0-1.015-.697-1.523-2.092-1.523-.621,0-1.233.101-1.838.302v-.786ZM10.513,15.923c-.149-.109-.224-.268-.224-.478s.073-.37.218-.483.346-.169.604-.169c.25,0,.449.056.598.169s.224.274.224.483c0,.202-.077.359-.23.472-.153.113-.351.169-.593.169-.25,0-.449-.054-.598-.163Z"/>
</symbol>
<symbol id="pit" viewBox="0 0 24 24">
<path d="M14.01,11.604v.792h-4.02v-.792h4.02Z"/>
<path d="M12,17.32c-2.934,0-5.32-2.386-5.32-5.32s2.386-5.32,5.32-5.32,5.32,2.386,5.32,5.32-2.386,5.32-5.32,5.32ZM12,7.32c-2.581,0-4.68,2.1-4.68,4.68s2.1,4.68,4.68,4.68,4.68-2.1,4.68-4.68-2.1-4.68-4.68-4.68Z"/>
</symbol>
<symbol id="chimney" viewBox="0 0 24 24">
<path d="M14.88,12.396h-2.484v2.772h-.78v-2.772h-2.496v-.792h2.496v-2.772h.78v2.772h2.484v.792Z"/>
<path d="M12,17.32c-2.934,0-5.32-2.386-5.32-5.32s2.386-5.32,5.32-5.32,5.32,2.386,5.32,5.32-2.386,5.32-5.32,5.32ZM12,7.32c-2.581,0-4.68,2.1-4.68,4.68s2.1,4.68,4.68,4.68,4.68-2.1,4.68-4.68-2.1-4.68-4.68-4.68Z"/>
</symbol>
<symbol id="narrow_horizontal" viewBox="0 0 24 24">
<path d="M17,10.5H7v.64h10v-.64Z"/>
<path d="M17,12.86H7v.64h10v-.64Z"/>
</symbol>
<symbol id="narrow_vertical" viewBox="0 0 24 24">
<path d="M10.5,7v10h.64V7h-.64Z"/>
<path d="M12.86,7v10h.64V7h-.64Z"/>
</symbol>
<symbol id="narrow" viewBox="0 0 24 24">
<path d="M17,11.14v-.64h-3.5v-3.5h-.64v3.5h-1.72v-3.5h-.64v3.5h-3.5v.64h3.5v1.72h-3.5v.64h3.5v3.5h.64v-3.5h1.72v3.5h.64v-3.5h3.5v-.64h-3.5v-1.72h3.5ZM12.86,12.86h-1.72v-1.72h1.72v1.72Z"/>
</symbol>
<symbol id="clay" viewBox="0 0 24 24">
<path d="M13.85,10.67c.592-.008,1.173.159,1.67.48.403.255.745.597,1,1l.29.51-1,.43c-.069-.138-.145-.271-.23-.4-.187-.257-.405-.489-.65-.69-.316-.221-.695-.334-1.08-.32-.373-.031-.749.02-1.1.15-.103.083-.185.19-.24.31-.118.279-.292.531-.51.74-.429.287-.934.437-1.45.43-1.025.137-2.052-.237-2.75-1-.138-.18-.262-.37-.37-.57-.08-.152-.15-.309-.21-.47v-.16l1-.22c.083.296.237.568.45.79.467.497,1.144.739,1.82.65.284.002.565-.063.82-.19l.21-.36c.122-.326.351-.602.65-.78.527-.238,1.102-.351,1.68-.33Z"/>
</symbol>
<symbol id="sand" viewBox="0 0 24 24">
<path d="M10.42,12.83c.23.2.35.44.36.73s-.08.54-.28.75c-.2.21-.46.32-.78.33s-.6-.08-.83-.26c-.25-.19-.38-.43-.39-.71-.01-.29.09-.55.3-.77s.48-.34.8-.35c.32-.01.59.09.82.28Z"/>
<path d="M12.08,9.64c.23.2.35.44.36.73s-.08.54-.28.75c-.2.21-.46.32-.78.33-.32.01-.59-.07-.83-.26s-.37-.42-.38-.71.09-.54.3-.76.48-.33.8-.35c.31-.02.59.07.81.27Z"/>
<path d="M15.12,12.55c.23.2.35.43.38.71.02.28-.07.53-.28.75-.22.22-.49.34-.8.35-.32.01-.6-.08-.84-.28-.24-.2-.36-.44-.38-.73-.01-.29.09-.54.3-.75.22-.2.49-.31.8-.32s.59.08.82.27Z"/>
</symbol>
<symbol id="floor_flowstone" viewBox="0 0 24 24">
<rect x="6" y="11.79" width="12" height=".42"/>
</symbol>
<symbol id="snow" viewBox="0 0 24 24">
<path d="M16.885,14.555l-.985-.569.596-.16c.122-.033.195-.159.162-.281s-.159-.195-.281-.162l-1.039.278-.853-.492,1.402-.376c.122-.033.195-.159.162-.281s-.159-.195-.281-.162l-1.845.494-1.463-.845,1.454-.84,2.011.684c.025.008.049.012.074.012.096,0,.185-.06.217-.156.041-.12-.023-.25-.143-.291l-1.63-.555.887-.512,1.133.385c.025.008.049.012.074.012.096,0,.185-.06.217-.156.041-.12-.023-.25-.143-.291l-.752-.256,1.027-.593c.11-.063.147-.204.084-.314-.063-.11-.204-.147-.314-.084l-.985.569.16-.596c.033-.122-.04-.248-.162-.281-.123-.033-.248.04-.281.162l-.278,1.039-.853.492.376-1.402c.033-.123-.04-.248-.162-.281-.123-.033-.248.04-.281.162l-.494,1.845-1.463.845v-1.679l1.598-1.4c.095-.084.105-.229.021-.324-.084-.095-.229-.105-.324-.021l-1.296,1.135v-1.025l.9-.788c.095-.084.105-.229.021-.324-.084-.095-.229-.105-.324-.021l-.598.523v-1.186c0-.127-.103-.23-.23-.23s-.23.103-.23.23v1.138l-.436-.436c-.09-.09-.235-.09-.325,0-.09.09-.09.235,0,.325l.761.761v.985l-1.026-1.026c-.09-.09-.235-.09-.325,0-.09.09-.09.235,0,.325l1.351,1.351v1.689l-1.454-.84-.413-2.084c-.025-.124-.145-.205-.27-.181-.124.025-.205.145-.181.27l.335,1.689-.887-.512-.233-1.174c-.025-.124-.145-.205-.27-.181-.124.025-.205.145-.181.27l.154.779-1.027-.593c-.11-.063-.25-.026-.314.084-.063.11-.026.25.084.314l.985.569-.596.16c-.123.033-.195.159-.162.281.027.103.12.17.222.17.02,0,.04-.003.06-.008l1.039-.278.853.492-1.402.376c-.123.033-.195.159-.162.281.027.103.12.17.222.17.02,0,.04-.003.06-.008l1.845-.494,1.463.845-1.454.84-2.011-.684c-.12-.041-.25.023-.291.143-.041.12.023.25.143.291l1.63.555-.887.512-1.133-.385c-.12-.041-.25.023-.291.143-.041.12.023.25.143.291l.752.256-1.027.593c-.11.063-.147.204-.084.314.043.074.12.115.199.115.039,0,.078-.01.115-.031l.985-.569-.16.596c-.033.122.04.248.162.281.02.005.04.008.06.008.101,0,.194-.068.222-.17l.278-1.039.853-.492-.376,1.402c-.033.122.04.248.162.281.02.005.04.008.06.008.101,0,.194-.068.222-.17l.494-1.845,1.463-.845v1.679l-1.598,1.4c-.095.084-.105.229-.021.324.045.052.109.078.173.078.054,0,.108-.019.151-.057l1.296-1.135v1.025l-.9.788c-.095.084-.105.229-.021.324.045.052.109.078.173.078.054,0,.108-.019.151-.057l.598-.523v1.186c0,.127.103.23.23.23s.23-.103.23-.23v-1.138l.436.436c.09.09.235.09.325,0,.09-.09.09-.235,0-.325l-.761-.761v-.985l1.026,1.026c.09.09.235.09.325,0,.09-.09.09-.235,0-.325l-1.351-1.351v-1.689l1.454.84.413,2.084c.022.109.118.185.225.185.015,0,.03-.001.045-.004.124-.025.205-.146.181-.27l-.335-1.689.887.512.233,1.174c.022.109.118.185.225.185.015,0,.03-.001.045-.004.124-.025.205-.146.181-.27l-.154-.779,1.027.593c.036.021.076.031.115.031.079,0,.157-.041.199-.115.063-.11.026-.25-.084-.314Z"/>
</symbol>
<symbol id="guano" viewBox="0 0 24 24">
<path d="M8.76,9c.576-.035,1.142.163,1.57.55.69.726,1.076,1.688,1.08,2.69.54-1.129,1.543-1.968,2.75-2.3.76-.214,1.576-.083,2.23.36.658.41,1.073,1.116,1.11,1.89h-.79c-.025-.558-.32-1.069-.79-1.37-.46-.295-1.023-.382-1.55-.24-.774.242-1.442.744-1.89,1.42-.631.889-1.032,1.919-1.17,3l-.79-.09c.156-1.048.156-2.112,0-3.16-.064-.645-.322-1.255-.74-1.75-.322-.261-.741-.37-1.15-.3-.601.105-1.163.367-1.63.76l-.5-.55c.576-.472,1.266-.785,2-.91.086-.013.174-.013.26,0Z"/>
</symbol>
<symbol id="gradient" viewBox="0 0 24 24">
<path d="M14.58,8.17l-2.58-6.17-2.58,6.17c.729-.435,1.561-.666,2.41-.67v14.5h.42V7.5c.811.079,1.601.306,2.33.67Z"/>
</symbol>
<symbol id="airflow" viewBox="0 0 24 24">
<path d="M7.62,22.73l4.2-3.84v-3.34l-3.89,3.58-.31-.29,4.2-3.84V5.11c-.597.025-1.177.208-1.68.53l1.68-4.15.18-.49.21.51h0l1.65,4.1c-.486-.307-1.045-.479-1.62-.5v14h-.08l-4.23,3.89-.31-.27Z"/>
</symbol>
<symbol id="water" viewBox="0 0 24 24">
<path d="M10.28,2.14l3.83,5.54-1.73.26c.075.303.172.601.29.89.114.247.159.52.13.79-.045.331-.226.628-.5.82h0c-.84.62-1.3,1.14-1.3,1.61s.24.89.92,1.27h0c.77.48,1.17,1,1.19,1.49s-.4,1.13-1.31,1.68c-.75.43-1.13.81-1.15,1.15-.013.164.054.324.18.43.216.238.474.434.76.58.376.152.717.38,1,.67.217.243.323.566.29.89-.04.54-.46,1.09-1.29,1.65l-.44-.55c.66-.45,1-.83,1-1.15.02-.153-.036-.306-.15-.41-.229-.219-.492-.398-.78-.53h0c-.368-.176-.705-.409-1-.69-.232-.244-.355-.573-.34-.91,0-.58.54-1.14,1.52-1.68.66-.42,1-.79,1-1.11s-.3-.61-.84-1h0c-.973-.513-1.407-1.123-1.3-1.83.241-.838.792-1.553,1.54-2,.139-.098.235-.244.27-.41.031-.199.007-.403-.07-.59-.143-.32-.247-.655-.31-1l-1.5.24.09-6.1Z"/>
</symbol>
<symbol id="spring" viewBox="0 0 24 24">
<path d="M10.66,2.14l3.86,5.52-1.74.28c.08.295.177.586.29.87.119.245.164.52.13.79-.056.338-.243.639-.52.84h0c-.81.61-1.23,1.14-1.29,1.56s.24.91.92,1.3h0c.75.46,1.14,1,1.18,1.46s-.37,1.16-1.28,1.7c-.75.44-1.15.83-1.21,1.18.012.159.075.31.18.43.243.225.52.41.82.55.378.162.718.401,1,.7.219.231.331.543.31.86-.061.421-.275.806-.6,1.08h.21c1.92,0,3.22-.52,3.9-1.51.157-.2.276-.427.35-.67.053-.179.087-.364.1-.55v-.19h.65c.027.645-.167,1.28-.55,1.8-.79,1.12-2.29,1.71-4.45,1.72h-1.84c-2.17,0-3.66-.6-4.49-1.77-.169-.265-.304-.551-.4-.85-.099-.226-.163-.465-.19-.71v-.24h.66c-.022.512.145,1.014.47,1.41.68,1,2,1.5,3.91,1.51h.56c.62-.43.94-.8,1-1.1-.008-.156-.064-.307-.16-.43-.237-.207-.503-.379-.79-.51h0c-.369-.178-.707-.414-1-.7-.242-.238-.367-.571-.34-.91.04-.56.54-1.12,1.5-1.68.68-.4,1-.77,1-1.1s-.32-.57-.81-.91h0c-1-.55-1.44-1.18-1.34-1.87.256-.833.807-1.544,1.55-2,.128-.088.211-.226.23-.38.028-.209.004-.422-.07-.62-.145-.32-.252-.655-.32-1l-1.49.24.1-6.1Z"/>
</symbol>
<symbol id="sink" viewBox="0 0 24 24">
<path d="M12.41,2.62h.5c1.93.01,3.25.48,3.93,1.48.327.419.497.939.48,1.47h.68v-.24c-.024-.241-.085-.477-.18-.7-.095-.299-.24-.58-.43-.83-.807-1.2-2.293-1.8-4.46-1.8h-1.86c-2.17,0-3.65.61-4.46,1.76-.392.509-.597,1.138-.58,1.78h.69v-.21c.012-.184.049-.366.11-.54.085-.241.196-.472.33-.69.68-.97,2-1.51,3.94-1.51h.18l1.13.03ZM14.17,22c.03-.321-.075-.64-.29-.88-.283-.29-.624-.518-1-.67-.292-.151-.558-.347-.79-.58-.11-.117-.173-.27-.18-.43.03-.34.43-.72,1.18-1.15.91-.55,1.34-1.17,1.31-1.68s-.4-1.01-1.21-1.49h0c-.68-.4-.96-.8-.91-1.27.05-.47.47-.99,1.28-1.61h0c.284-.187.476-.484.53-.82.036-.273.005-.551-.09-.81-.132-.281-.242-.572-.33-.87l1.73-.28-3.86-5.52-.1,6.16,1.49-.24c.073.343.18.678.32,1,.06.164.093.336.1.51-.026.167-.12.315-.26.41-.747.451-1.3,1.164-1.55,2-.1.72.327,1.337,1.28,1.85h0c.54.39.84.68.84,1s-.32.69-1,1.11c-.96.54-1.49,1.1-1.49,1.68-.018.328.106.649.34.88.291.288.63.525,1,.7h0c.296.148.564.348.79.59.097.115.154.259.16.41h.71Z"/>
</symbol>
<symbol id="rain" viewBox="0 0 24 24">
<path d="M7.86,5.66h.71v4.69h-.71v-4.69Z"/>
<path d="M11.65,5.66h.71v4.69h-.71v-4.69Z"/>
<path d="M15.43,5.66h.71v4.69h-.71v-4.69Z"/>
<path d="M7.86,13.65h.71v4.69h-.71v-4.69Z"/>
<path d="M11.65,13.65h.71v4.69h-.71v-4.69Z"/>
<path d="M15.43,13.65h.71v4.69h-.71v-4.69Z"/>
</symbol>
<symbol id="paleoflow" viewBox="0 0 24 24">
<path d="M11.62,24v-12.17c-.215.021-.424.079-.62.17-.306.157-.552.41-.7.72-.169.305-.249.652-.23,1,0,.09,0,.14-.08.16-.08.01-.16.01-.24,0-.082-.02-.168-.02-.25,0h-.08c-.074-.68.136-1.36.58-1.88.426-.448,1.003-.723,1.62-.77v-6.44h-1.71L12,0l1.8,4.77h-1.53v6.46c.378.044.745.159,1.08.34.436.212.788.564,1,1,.207.411.29.873.24,1.33h-.67c.036-.341-.015-.685-.15-1-.135-.271-.338-.502-.59-.67-.269-.199-.58-.333-.91-.39v12.16h-.65Z"/>
</symbol>
<symbol id="stalactite" viewBox="0 0 24 24">
<path d="M15.57,5.595l.52.53-3.7,3.16v9.12h-.78v-9.12l-3.7-3.14.52-.53,3.57,3,3.57-3.02Z"/>
</symbol>
<symbol id="stalagmite" viewBox="0 0 24 24">
<path d="M12.375,5.58v9.17l3.73,3.14-.56.53-3.55-3.02-3.57,3-.53-.53,3.7-3.14V5.58h.78Z"/>
</symbol>
<symbol id="stalagnate" viewBox="0 0 24 24">
<path d="M15.545,3.84l.56.53-3.73,3.15v9l3.73,3.14-.56.53-3.55-3.03-3.57,3-.53-.53,3.7-3.14V7.49l-3.7-3.15.53-.53,3.57,3.06,3.55-3.03Z"/>
</symbol>
<symbol id="curtain" viewBox="0 0 24 24">
<path d="M15.57,5.595l.52.53-3.7,3.16v2.67l-.29.07c-.351.088-.688.226-1,.41-.58.3-.87.65-.87,1v.07c.071.553.423,1.029.93,1.26.144.09.295.17.45.24l.39.14.13.05.26.09v3.12h-.78v-2.61c-.31-.133-.61-.287-.9-.46-.7-.328-1.175-1.001-1.25-1.77v-.05c.052-.757.529-1.42,1.23-1.71.294-.155.602-.282.92-.38v-2.14l-3.7-3.14.52-.53,3.57,3,3.57-3.02Z"/>
</symbol>
<symbol id="helictites" viewBox="0 0 24 24">
<path d="M7.41,4.08h.79v7.7h3.41v-7.7h.78v7.75l3.81.05h.39v8h-.79v-7.28l-3.41-.05v7.37h-.78v-7.37l-3.81-.05h-.39V4.08Z"/>
</symbol>
<symbol id="straws" viewBox="0 0 24 24">
<path d="M1.11,9.24h21.78v.76h-1.26v2.46h-.79v-2.46h-.55v5.6h-.79v-5.6h-1.94v2.7h-.79v-2.7h-2.7v4.38h-.78v-4.38h-1.39v3h-.79v-3h-2.31v6.11h-.8v-6.11h-2.22l.06,2.75h-.79l-.05-2.75h-1.32v4.33h-.78v-4.33h-1.79v-.76Z"/>
</symbol>
<symbol id="crystals" viewBox="0 0 24 24">
<path d="M9.06,6.62l2.94,4.66,2.94-4.66.68.38-2.94,4.64h5.88v.72h-5.88l2.94,4.64-.68.36-2.94-4.64-2.94,4.66-.68-.38,2.94-4.64h-5.88v-.72h5.88l-2.94-4.64.68-.38Z"/>
</symbol>
<symbol id="disk" viewBox="0 0 24 24">
<path d="M11.862,7.81c-.643,0-1.26.251-1.72.7-.458.406-.705.999-.67,1.61.013.535.24,1.043.63,1.41.402.4.927.654,1.49.72l-1.78,3.65.71.29,1.48-3.05,1.85,3.02.68-.33-2.18-3.6c.563-.082,1.079-.358,1.46-.78.359-.396.552-.915.54-1.45,0-.602-.273-1.171-.74-1.55-.463-.425-1.072-.654-1.7-.64h-.05ZM13.562,10c.02.409-.145.806-.45,1.08-.316.307-.739.479-1.18.48h0c-.434-.004-.85-.176-1.16-.48-.306-.244-.492-.609-.51-1-.001-.406.161-.795.45-1.08.311-.304.725-.479,1.16-.49h.69l.49.43c.31.267.495.651.51,1.06Z"/>
</symbol>
<symbol id="cauliflower" viewBox="0 0 24 24">
<path d="M17.58,15.215v-3c.511-.047.987-.278,1.34-.65.36-.344.559-.822.55-1.32-.006-.544-.242-1.06-.65-1.42-.414-.387-.963-.599-1.53-.59-.57-.009-1.122.202-1.54.59-.42.35-.656.873-.64,1.42-.003.494.192.969.54,1.32.354.377.835.612,1.35.66v3h-4.74v-3c.514-.052.993-.286,1.35-.66.353-.348.548-.825.54-1.32-.002-.543-.235-1.059-.64-1.42-.41-.381-.95-.592-1.51-.59-.57-.009-1.122.202-1.54.59-.415.354-.65.875-.64,1.42-.011.492.176.968.52,1.32.352.375.828.61,1.34.66v3h-4.68v-3c.494-.062.951-.295,1.29-.66.36-.344.559-.822.55-1.32-.006-.544-.242-1.06-.65-1.42-.414-.387-.963-.599-1.53-.59-.57-.009-1.122.202-1.54.59-.418.352-.656.873-.65,1.42-.004.493.186.967.53,1.32.357.38.841.615,1.36.66v3h-2.36v.54h16v-.55h-2.42Z"/>
</symbol>
<symbol id="moonmilk" viewBox="0 0 24 24">
<path d="M7.242,8.94c.519-.003,1.033.113,1.5.34.46.213.844.562,1.1,1,.467-.395,1.023-.67,1.62-.8.561-.141,1.149-.141,1.71,0,.526.122,1.007.389,1.39.77.378.373.626.856.71,1.38.546-.261,1.145-.394,1.75-.39.554-.005,1.102.118,1.6.36.561.286,1.012.75,1.28,1.32.265.599.265,1.281,0,1.88-.039.168-.199.28-.37.26-.091.014-.184-.007-.26-.06-.076-.061-.12-.153-.12-.25-.012-.039-.012-.081,0-.12.176-.46.176-.97,0-1.43-.219-.406-.573-.724-1-.9-.448-.228-.949-.331-1.45-.3-.565.024-1.109.219-1.56.56l-.66-.31c.093-.474-.02-.964-.31-1.35-.297-.354-.7-.603-1.15-.71-.522-.129-1.07-.109-1.58.06-.552.164-1.045.483-1.42.92l-.71-.12c-.128-.448-.431-.827-.84-1.05-.425-.23-.91-.324-1.39-.27-.52.051-1.019.233-1.45.53-.432.28-.759.695-.93,1.18-.051.157-.205.258-.37.24-.113.013-.226-.023-.31-.1-.07-.068-.107-.163-.1-.26v-.1c.214-.645.64-1.199,1.21-1.57.565-.373,1.215-.597,1.89-.65l.22-.06Z"/>
</symbol>
<symbol id="flowstone" viewBox="0 0 24 24">
<path d="M7.399,14.123l-.909-.509c.092-.164,2.29-4.027,5.474-4.027,3.168,0,5.431,3.41,5.526,3.554l-.872.57c-.021-.031-2.053-3.083-4.654-3.083-2.572,0-4.546,3.459-4.565,3.494Z"/>
</symbol>
<symbol id="wall_calcite" viewBox="0 0 24 24">
<path d="M14.36,9.78l.05.46.34,3.91-.75.07-.35-3.48-4.17,1.2-.23-.7,4.64-1.32.47-.14Z"/>
</symbol>
<symbol id="scallops" viewBox="0 0 24 24">
<path d="M10.558,8.701c-.464.296-.786.769-.89,1.31v.1c.206,1.778.746,3.501,1.59,5.08l.27.55.39-.47c1.231-1.316,2.066-2.952,2.41-4.72h0c.037-.578-.178-1.143-.59-1.55-.387-.418-.913-.681-1.48-.74h-.21c-.532-.021-1.055.134-1.49.44ZM12.178,9.001c.373.034.723.197.99.46.253.27.39.63.38,1-.277,1.425-.91,2.756-1.84,3.87-.656-1.325-1.082-2.752-1.26-4.22.156-.665.758-1.128,1.44-1.11h.29Z"/>
</symbol>
<symbol id="flutes" viewBox="0 0 24 24">
<path d="M5,11.165h3.24c.342.729.887,1.344,1.57,1.77.652.421,1.414.64,2.19.63.764-.01,1.511-.227,2.16-.63.718-.43,1.309-1.045,1.71-1.78h3.13v-.72H5v.73ZM15,11.165c-.348.538-.831.976-1.4,1.27-.493.263-1.042.403-1.6.41-.577.014-1.147-.128-1.65-.41-.506-.307-.915-.751-1.18-1.28l5.83.01Z"/>
</symbol>
<symbol id="karren" viewBox="0 0 24 24">
<path d="M14.23,7.22l.37.24,2.62,1.76-.47.57-2.26-1.49-4.61,8-.24.44-.37-.34-2.49-2.1.55-.52,2.1,1.82,4.57-7.99.23-.39Z"/>
</symbol>
<symbol id="anastomoses" viewBox="0 0 24 24">
<path d="M12.974,6.323h0c.43.04.815.287,1.03.661.238.407.384.862.428,1.332.045,1.23,0,2.461-.136,3.684-.147,1.2-.173,2.411-.078,3.616.038.415.174.815.399,1.167.174.265.454.442.768.486.224-.082.406-.25.505-.467.21-.371.364-.77.457-1.186.156-.622.35-1.808.574-3.558.123-1.209.331-2.407.622-3.587.119-.444.306-.867.554-1.254.22-.329.578-.54.972-.574h0c.417-.025.819.161,1.069.496.23.329.362.717.379,1.118.019,1.08-.053,2.159-.214,3.227-.165,1.172-.23,2.356-.194,3.538-.032.864.374,1.687,1.079,2.187.492.074.992-.052,1.39-.35.277-.286.507-.614.68-.972l.408.194-.097.175-.117.204-.107.175-.146.224c-.039.057-.085.109-.136.156-.058.068-.126.117-.185.175-.524.364-1.17.507-1.798.399h-.049c-.87-.552-1.393-1.516-1.38-2.547-.036-1.202.029-2.405.194-3.597.167-1.054.239-2.121.214-3.188-.01-.324-.107-.64-.282-.914-.154-.201-.399-.311-.651-.292-.256.04-.483.189-.622.408-.217.348-.384.724-.496,1.118-.289,1.157-.497,2.333-.622,3.519-.233,1.779-.437,2.984-.593,3.616-.106.454-.273.892-.496,1.303-.177.337-.494.579-.865.661h-.058c-.459-.039-.877-.281-1.137-.661-.26-.411-.423-.877-.476-1.361-.087-1.218-.061-2.442.078-3.655.133-1.21.169-2.429.107-3.645-.021-.403-.127-.797-.311-1.157-.135-.251-.379-.424-.661-.467-.309.016-.596.165-.787.408-.275.36-.48.769-.603,1.205-.323,1.219-.531,2.465-.622,3.723-.194,1.944-.36,3.227-.476,3.752-.074.451-.218.887-.428,1.293-.192.352-.572.561-.972.535h0c-.488-.042-.939-.277-1.254-.651-.299-.366-.494-.806-.564-1.273-.141-1.162-.141-2.337,0-3.5,0-.078.019-.253.058-.525v-2.965c.024-.417-.039-.834-.185-1.225-.132-.272-.366-.482-.651-.583-.517.062-.962.396-1.167.875-.292.686-.469,1.415-.525,2.158,0,.379-.097.972-.136,1.711s-.107,1.429-.175,2.022c-.045.518-.132,1.032-.262,1.536h0c-.243.536-.652.979-1.167,1.264-.402.216-.872.268-1.312.146-.42-.122-.784-.387-1.03-.749-.272-.414-.405-.905-.379-1.4h.457c-.023.398.083.794.301,1.128.182.288.461.502.787.603.325.096.676.058.972-.107.392-.242.701-.598.885-1.021.143-.475.238-.964.282-1.458.071-.57.139-1.231.204-1.983,0-.758.097-1.332.156-1.73.051-.79.235-1.566.544-2.294.277-.642.888-1.076,1.585-1.128h.049c.426.12.78.418.972.817.205.428.318.896.331,1.371.011.185.011.37,0,.554v1.73c0,.107,0,.321-.058.661s0,.544-.058.612c-.134,1.127-.134,2.266,0,3.393.071.4.237.777.486,1.098.253.276.599.449.972.486.194-.041.354-.176.428-.36.201-.348.345-.725.428-1.118.097-.525.253-1.798.457-3.743.096-1.278.314-2.545.651-3.781.13-.483.355-.936.661-1.332.282-.346.701-.551,1.147-.564Z"/>
</symbol>
<g>
<desc></desc>
<g>
<line fill="none" stroke="#dddddd" stroke-width="0.1mm" x1="0.00" y1="23.00" x2="83.00" y2="23.00" />
<text x="80.20" y="22.80" font-size=".2mm" fill="#000000">0m</text>
<line fill="none" stroke="#dddddd" stroke-width="0.1mm" x1="0.00" y1="3.00" x2="83.00" y2="3.00" />
<text x="80.20" y="2.80" font-size=".2mm" fill="#000000">5m</text>
<line fill="none" stroke="#dddddd" stroke-width="0.1mm" x1="0.00" y1="43.00" x2="83.00" y2="43.00" />
<text x="80.20" y="42.80" font-size=".2mm" fill="#000000">-5m</text>
<line fill="none" stroke="#dddddd" stroke-width="0.1mm" x1="0.00" y1="63.00" x2="83.00" y2="63.00" />
<text x="80.20" y="62.80" font-size=".2mm" fill="#000000">-10m</text>
<line fill="none" stroke="#dddddd" stroke-width="0.1mm" x1="0.00" y1="83.00" x2="83.00" y2="83.00" />
<text x="80.20" y="82.80" font-size=".2mm" fill="#000000">-15m</text>
<line fill="none" stroke="#dddddd" stroke-width="0.1mm" x1="21.00" y1="0.00" x2="21.00" y2="95.00" />
<text x="21.40" y="2.00" font-size=".2mm" fill="#000000">0m</text>
<line fill="none" stroke="#dddddd" stroke-width="0.1mm" x1="1.00" y1="0.00" x2="1.00" y2="95.00" />
<text x="1.40" y="2.00" font-size=".2mm" fill="#000000">-5m</text>
<line fill="none" stroke="#dddddd" stroke-width="0.1mm" x1="41.00" y1="0.00" x2="41.00" y2="95.00" />
<text x="41.40" y="2.00" font-size=".2mm" fill="#000000">5m</text>
<line fill="none" stroke="#dddddd" stroke-width="0.1mm" x1="61.00" y1="0.00" x2="61.00" y2="95.00" />
<text x="61.40" y="2.00" font-size=".2mm" fill="#000000">10m</text>
<line fill="none" stroke="#dddddd" stroke-width="0.1mm" x1="81.00" y1="0.00" x2="81.00" y2="95.00" />
<text x="81.40" y="2.00" font-size=".2mm" fill="#000000">15m</text>
</g>
<g>
<path fill="none" stroke="#000000" stroke-width="0.06mm" d="M37.07725,38.990955 L37.564754,40.18601" /><path fill="none" stroke="#000000" stroke-width="0.06mm" d="M33.474464,40.144394 L34.56243,41.523758" /><path fill="none" stroke="#000000" stroke-width="0.06mm" d="M33.765778,40.370323 C35.6183,42.91413 34.973583,41.868187 35.870377,43.396606 L35.870377,43.396606" /><path fill="none" stroke="#000000" stroke-width="0.06mm" d="M35.662296,43.3312 C36.47635,44.6035 36.179855,44.018547 36.63136,45.043514 L36.63136,45.043514" /><path fill="none" stroke="#000000" stroke-width="0.06mm" d="M35.537445,42.40964 C37.86326,47.923733 37.256935,45.858017 37.96308,48.396797 L37.96308,48.396797" /><path fill="none" stroke="#000000" stroke-width="0.06mm" d="M37.647987,40.435722 C39.304176,43.506233 38.448742,42.02571 40.20442,44.882988 L40.20442,44.882988" /><path fill="none" stroke="#000000" stroke-width="0.06mm" d="M38.2544,41.113514 C38.35283,42.395775 39.07553,43.4633 39.668724,44.561462 C40.08094,45.324585 40.48562,46.09176 40.894066,46.856903 L40.894066,46.856903" /><path fill="none" stroke="#000000" stroke-width="0.06mm" d="M39.883377,44.882988 L40.81083,46.726105" /><defs><path id="DRAW_976"  d="M40.133076,45.227825 L37.499355,46.17911" /></defs><use xlink:href="#DRAW_976" fill="none" stroke="#000000" stroke-width="0.04mm" /><text style="fill:#000000; font-size:0.5mm; letter-spacing:2;"><textPath xlink:href="#DRAW_976">||||||||||||</textPath></text><defs><path id="DRAW_977"  d="M37.154537,39.145542 L37.15534,39.146343" /></defs><use xlink:href="#DRAW_977" fill="none" stroke="#000000" stroke-width="0.04mm" /><text style="fill:#000000; font-size:0.5mm; letter-spacing:2;"><textPath xlink:href="#DRAW_977">|</textPath></text><defs><path id="DRAW_978"  d="M37.1367,39.157433 C36.28475,39.81353 36.09963,39.670734 34.88803,40.04256 C34.647736,40.116306 34.41452,40.32002 34.223557,40.45951 L34.223557,40.45951" /></defs><use xlink:href="#DRAW_978" fill="none" stroke="#000000" stroke-width="0.04mm" /><text style="fill:#000000; font-size:0.5mm; letter-spacing:2;"><textPath xlink:href="#DRAW_978">|||||||||||||</textPath></text><path fill="none" stroke="#000000" stroke-width="0.06mm" d="M34.03331,40.37627 L32.32704,38.88394" /><path fill="none" stroke="#000000" stroke-width="0.06mm" d="M38.129547,48.432472 C38.335915,48.657692 38.56737,48.862267 38.74865,49.10813 C39.59381,50.254425 41.328426,53.000633 42.032585,54.03616 C42.81919,55.192924 42.1406,53.900764 42.754906,55.18066 L42.754906,55.18066" /><path fill="none" stroke="#000000" stroke-width="0.06mm" d="M41.060528,46.963924 C42.78849,49.132896 43.635834,50.043865 45.033417,52.312393 C45.379063,52.87343 45.62651,53.490242 45.958206,54.05964 C47.00598,55.858288 45.993576,53.712273 46.779808,55.477932 L46.779808,55.477932" /><defs><path id="DRAW_984"  d="M43.93061,50.6914 C42.78647,51.528862 43.629673,50.957855 41.219604,52.10049 L41.219604,52.10049" /></defs><use xlink:href="#DRAW_984" fill="none" stroke="#000000" stroke-width="0.04mm" /><text style="fill:#000000; font-size:0.5mm; letter-spacing:2;"><textPath xlink:href="#DRAW_984">|||||||||||||</textPath></text><path fill="none" stroke="#000000" stroke-width="0.06mm" d="M47.124146,55.247566 L47.124943,55.248367" /><path fill="none" stroke="#248B00" stroke-width="0.06mm" d="M47.255646,55.210735 C49.54731,56.69159 48.64657,56.289574 51.331486,57.10653 C51.449055,57.142303 51.5735,57.15103 51.692047,57.183422 C51.80301,57.213745 51.861523,57.261013 51.955322,57.321392 L51.955322,57.321392" /><path fill="none" stroke="#248B00" stroke-width="0.06mm" d="M54.012356,56.548473 C54.071262,56.697582 54.120358,56.850956 54.189075,56.995808 C54.228893,57.07973 54.28765,57.15328 54.33671,57.232155 C54.364506,57.276836 54.39775,57.31863 54.41964,57.36648 C54.466076,57.468014 54.53707,57.669895 54.540882,57.791126 C54.54332,57.868755 54.525425,57.94569 54.517696,58.022972 L54.517696,58.022972" /><path fill="none" stroke="#248B00" stroke-width="0.06mm" d="M54.544453,57.930813 C54.563892,58.01041 54.595757,58.087975 54.60277,58.169617 C54.642,58.626 54.645027,59.084976 54.68289,59.54147 C54.69712,59.71299 54.739853,59.88112 54.75892,60.052166 C54.7724,60.1731 54.773262,60.29511 54.780434,60.416576 C54.83641,60.804794 54.896606,61.19243 54.948364,61.58123 C55.051987,62.35959 55.13056,63.14135 55.24656,63.91796 C55.29545,64.24526 55.466087,64.522026 55.57594,64.82764 L55.57594,64.82764" /><path fill="none" stroke="#248B00" stroke-width="0.06mm" d="M55.51054,64.670074 C55.557972,64.73067 55.6108,64.787384 55.652824,64.85183 C55.682217,64.8969 55.70893,64.94513 55.723637,64.99689 C55.959366,65.826385 56.200146,66.65497 56.4034,67.49301 C56.434944,67.62307 56.431404,67.76012 56.426247,67.89385 C56.3891,68.85723 56.24884,68.35809 56.436928,69.585686 C57.042156,73.53589 56.765976,70.63598 56.931442,72.539 L56.931442,72.539" /><path fill="none" stroke="#248B00" stroke-width="0.06mm" d="M56.42313,72.72034 C56.37675,72.58028 56.340958,72.43625 56.28399,72.300156 C55.76876,71.06928 55.66293,71.15283 55.46105,70.16006 C55.443985,70.07614 55.448143,69.98928 55.442062,69.90386 C55.428917,69.71904 55.419464,69.533936 55.40337,69.34936 C55.39342,69.23523 55.363544,69.1225 55.363956,69.00794 C55.365627,68.54141 55.455894,68.30785 55.382927,67.92796 C55.331543,67.66046 55.26809,67.39536 55.217403,67.12772 C55.20473,67.06081 55.204926,66.99191 55.192966,66.92486 C55.1705,66.79892 55.030266,66.72968 54.939808,66.66778 L54.939808,66.66778" /><path fill="none" stroke="#248B00" stroke-width="0.06mm" d="M51.776962,57.288692 C52.00672,57.4362 52.23648,57.583706 52.46624,57.731213 C52.499207,57.763924 52.53694,57.79244 52.56514,57.82934 C52.776146,58.105488 52.88134,58.455555 52.920036,58.79703 C52.97254,59.260338 53.027786,59.724697 53.038143,60.190853 C53.04332,60.423706 52.99994,60.655403 52.966454,60.885895 C52.934807,61.103695 52.884106,61.318287 52.842934,61.534485 C52.80638,61.751484 52.76384,61.967552 52.733276,62.18547 C52.72159,62.268864 52.721962,62.35351 52.7163,62.437534 L52.7163,62.437534" /><path fill="none" stroke="#248B00" stroke-width="0.06mm" d="M52.65091,62.431583 C52.65915,62.612034 52.68234,62.815086 52.591805,62.982563 C52.466385,63.214573 52.08919,63.355175 51.845856,63.35929 C51.479767,63.365482 51.113415,63.316563 50.74772,63.334526 C50.347088,63.354202 49.66165,63.574776 49.299805,63.637188 C49.180878,63.657703 49.058334,63.655018 48.937897,63.64733 C48.38611,63.612118 47.836716,63.54472 47.28499,63.508617 C47.2318,63.50514 47.17839,63.51722 47.126358,63.52879 C46.989742,63.559174 46.857044,63.606056 46.719967,63.634285 C46.600574,63.658867 46.46273,63.62476 46.349,63.608807 L46.349,63.608807" /><path fill="none" stroke="#248B00" stroke-width="0.06mm" d="M53.993572,64.91043 C53.849068,64.89042 53.70366,64.8761 53.560055,64.85039 C52.87402,64.727585 53.062428,64.67659 52.193947,64.694565 C51.395485,64.71109 51.11477,64.85821 50.289757,64.94548 C49.853325,64.99165 49.333412,64.89831 48.91132,64.886734 C48.731445,64.88179 48.551537,64.9229 48.37202,64.910515 C47.932465,64.88019 46.97193,64.68735 46.34214,64.7428 C46.223278,64.753265 46.106293,64.779236 45.988373,64.79747 L45.988373,64.79747" /><path fill="none" stroke="#000000" stroke-width="0.06mm" d="M35.631554,36.563972 C35.62409,36.438927 35.591904,36.22706 35.634193,36.08779 C35.884567,35.263256 35.66304,36.200825 35.97248,35.25784 C36.025127,35.097397 36.063377,34.931656 36.087894,34.764587 C36.168163,34.217567 36.25306,33.66975 36.2865,33.117886 C36.318974,32.581936 36.26725,32.191463 36.213745,31.70153 L36.213745,31.70153" /><path fill="none" stroke="#000000" stroke-width="0.06mm" d="M31.884375,39.143394 C29.965519,39.152153 29.293425,39.262436 27.591072,38.974297 C27.024487,38.8784 26.465635,38.74018 25.907537,38.60328 C25.819464,38.581673 25.73399,38.5459 25.656006,38.499615 C25.326204,38.303875 25.193811,38.148422 24.912222,37.883675 L24.912222,37.883675" /><path fill="none" stroke="#000000" stroke-width="0.06mm" d="M32.85469,38.935207 C32.912155,38.815838 32.958412,38.69039 33.02709,38.577095 C33.232914,38.237537 33.580086,37.859825 33.931137,37.672447 C34.326393,37.461483 34.775497,37.382523 35.215202,37.329685 L35.215202,37.329685" /><path fill="none" stroke="#000000" stroke-width="0.06mm" d="M33.034637,38.472958 C33.316494,38.647316 33.139114,38.545086 33.57802,38.758774 L33.57802,38.758774" /><path fill="none" stroke="#000000" stroke-width="0.06mm" d="M33.58507,37.883675 L33.888515,38.321228" /><path fill="none" stroke="#000000" stroke-width="0.06mm" d="M34.07905,37.583744 L34.160202,38.060104" /><path fill="none" stroke="#000000" stroke-width="0.06mm" d="M34.548332,37.569633 L34.678883,37.911903" /><path fill="none" stroke="#000000" stroke-width="0.06mm" d="M35.10582,37.354385 L35.208145,37.767235" /><path fill="none" stroke="#000000" stroke-width="0.06mm" d="M35.606857,37.07915 L35.656254,37.43907" /><path fill="none" stroke="#000000" stroke-width="0.06mm" d="M31.707954,37.933075 C32.67337,37.611145 32.79652,37.616333 33.865692,36.921417 C34.338303,36.614243 34.75399,36.277313 35.088177,35.840607 L35.088177,35.840607" /><path fill="none" stroke="#000000" stroke-width="0.06mm" d="M31.725597,37.24147 L32.02904,37.728416" /><path fill="none" stroke="#000000" stroke-width="0.06mm" d="M32.491264,37.00505 C32.67346,37.28414 32.56329,37.128357 32.83352,37.463768 L32.83352,37.463768" /><path fill="none" stroke="#000000" stroke-width="0.06mm" d="M32.9923,36.87802 C33.196396,37.068027 33.09005,36.98278 33.309853,37.13561 L33.309853,37.13561" /><path fill="none" stroke="#000000" stroke-width="0.06mm" d="M33.65917,36.359314 C33.841633,36.616478 33.733406,36.481853 33.99437,36.75452 L33.99437,36.75452" /><path fill="none" stroke="#000000" stroke-width="0.06mm" d="M34.181374,36.098194 C34.40965,36.304726 34.293873,36.21006 34.52716,36.38401 L34.52716,36.38401" /><path fill="none" stroke="#000000" stroke-width="0.06mm" d="M34.48835,35.766502 L34.8553,35.999393" /><path fill="none" stroke="#000000" stroke-width="0.06mm" d="M31.213976,37.89073 C29.927595,37.762875 30.081509,37.819927 28.558716,37.412376 C28.38845,37.366806 28.22522,37.295124 28.067924,37.2156 C27.515507,36.936306 27.273499,36.693268 27.08459,36.10129 C26.957718,35.703716 26.814907,35.290733 26.891756,34.869835 C26.92252,34.701344 27.009928,34.537754 27.10295,34.398743 C27.359219,34.01578 27.685959,33.78907 28.125607,33.619884 C28.681557,33.40595 29.57462,33.08027 30.253868,33.067245 C30.409206,33.064266 30.939093,33.105175 31.171122,33.2081 C31.97232,33.563496 32.63551,34.311775 33.29037,34.788765 C33.836025,35.18621 33.966835,35.210354 34.474236,35.399525 L34.474236,35.399525" /><path fill="none" stroke="#000000" stroke-width="0.06mm" d="M30.204847,37.488472 L30.451838,36.987408" /><path fill="none" stroke="#000000" stroke-width="0.06mm" d="M29.093395,37.428486 L29.255703,36.90978" /><path fill="none" stroke="#000000" stroke-width="0.06mm" d="M27.837278,36.82156 C28.06821,36.632828 27.955046,36.739464 28.17248,36.49693 L28.17248,36.49693" /><path fill="none" stroke="#000000" stroke-width="0.06mm" d="M26.916363,35.94999 C27.528492,35.826736 27.292591,35.891037 27.632631,35.791203 L27.632631,35.791203" /><path fill="none" stroke="#000000" stroke-width="0.06mm" d="M27.018686,34.792603 C27.286472,34.95407 27.121264,34.869778 27.530306,35.011375 L27.530306,35.011375" /><path fill="none" stroke="#000000" stroke-width="0.06mm" d="M27.502079,34.23508 C27.701496,34.4852 27.592514,34.366043 27.830223,34.591473 L27.830223,34.591473" /><path fill="none" stroke="#000000" stroke-width="0.06mm" d="M28.433582,33.688145 C28.555305,33.951332 28.485344,33.821632 28.645287,34.076294 L28.645287,34.076294" /><path fill="none" stroke="#000000" stroke-width="0.06mm" d="M29.425068,33.194138 L29.555618,33.80812" /><path fill="none" stroke="#000000" stroke-width="0.06mm" d="M30.271887,33.16238 L30.39891,33.62463" /><path fill="none" stroke="#000000" stroke-width="0.06mm" d="M31.11165,33.127094 L31.221033,34.044537" /><path fill="none" stroke="#000000" stroke-width="0.06mm" d="M31.700897,33.741074 L31.782051,34.347996" /><path fill="none" stroke="#000000" stroke-width="0.06mm" d="M32.639458,34.076294 L32.653572,34.64793" /><path fill="none" stroke="#000000" stroke-width="0.06mm" d="M41.7957,30.519442 C40.10771,31.301922 38.377148,31.99844 36.73173,32.866882 C34.772484,33.90096 33.938705,34.52363 32.487732,35.565372 L32.487732,35.565372" /><path fill="none" stroke="#000000" stroke-width="0.06mm" d="M32.47009,35.018436 C32.369465,35.148003 32.2723,35.24227 32.21403,35.39065 C32.15197,35.54868 32.108173,35.75869 32.344383,35.771126 C32.55202,35.782063 32.57293,35.78162 32.75984,35.74265 C32.774162,35.739662 32.787777,35.73382 32.80127,35.728165 C32.91469,35.6806 33.027416,35.631397 33.14049,35.583015 L33.14049,35.583015" /><path fill="none" stroke="#000000" stroke-width="0.06mm" d="M42.26851,29.203266 C42.27292,29.30082 42.277332,29.398373 42.281746,29.495926 C42.297184,29.49918 42.31483,29.514282 42.328064,29.505688 C42.357098,29.486828 42.36937,29.450012 42.39232,29.424095 C42.563152,29.231188 42.61664,29.621729 42.75271,29.506208 C42.863712,29.41197 42.94403,29.082912 43.090828,29.043312 C43.153877,29.026304 43.202255,29.102173 43.22206,29.147753 C43.348763,29.439388 43.336403,29.49947 43.26705,29.792545 L43.26705,29.792545" /><path fill="none" stroke="#000000" stroke-width="0.06mm" d="M43.76808,29.354996 C43.92778,29.298363 44.09085,29.250484 44.24716,29.185095 C44.278755,29.171879 44.518734,29.075106 44.52569,28.970762 C44.528305,28.93146 44.497887,28.89822 44.470036,28.87672 C44.377,28.804893 44.262436,28.778748 44.152878,28.82617 C44.015007,28.88585 43.8029,29.067331 43.779533,29.229176 C43.747284,29.452583 43.934753,29.736526 44.130074,29.834835 C44.15038,29.845055 44.17268,29.852108 44.195232,29.854942 C44.332336,29.872171 44.47031,29.881565 44.60785,29.894876 L44.60785,29.894876" /><path fill="none" stroke="#000000" stroke-width="0.06mm" d="M45.67343,29.051535 C45.565536,29.068226 45.455666,29.075108 45.349754,29.101606 C45.265953,29.122574 45.088753,29.165619 45.021088,29.261768 C44.893364,29.443253 45.09085,29.779387 45.294273,29.818224 C45.491627,29.855904 45.328743,29.42944 45.57508,29.54805 C45.707336,29.611727 45.835888,29.682817 45.966293,29.750202 L45.966293,29.750202" /><path fill="none" stroke="#000000" stroke-width="0.06mm" d="M46.209747,29.026834 C46.332794,28.983917 46.128925,29.449024 46.300278,29.38966 C46.381065,29.361675 46.431442,29.277678 46.512474,29.244114 C46.66981,29.178942 46.883415,29.341827 46.87046,29.510164 C46.86518,29.578743 46.853397,29.646666 46.844864,29.714916 L46.844864,29.714916" /><path fill="none" stroke="#000000" stroke-width="0.06mm" d="M47.54702,29.122108 C47.507797,29.21777 47.46235,29.311111 47.42935,29.409096 C47.384182,29.543211 47.38107,29.723005 47.44912,29.850828 C47.554386,30.048553 47.860626,29.963531 47.93525,29.785553 C47.986217,29.663992 47.98161,29.5277 47.958084,29.400352 C47.927845,29.236647 47.761955,28.948658 47.553864,29.032364 C47.41088,29.089876 47.32715,29.285404 47.25769,29.390282 L47.25769,29.390282" /><path fill="none" stroke="#000000" stroke-width="0.06mm" d="M48.287987,27.26958 C47.927296,29.759357 47.99695,28.786844 47.92456,30.173637 L47.92456,30.173637" /><path fill="none" stroke="#000000" stroke-width="0.06mm" d="M48.422066,29.57377 C48.53072,29.54831 48.64144,29.530458 48.74802,29.497385 C48.835426,29.470263 48.987877,29.405386 49.04241,29.315907 C49.100502,29.220592 49.03877,29.036636 48.906654,29.065575 C48.599617,29.132828 48.493538,29.611433 48.62274,29.85653 C48.62944,29.869232 48.63893,29.880873 48.650307,29.889637 C48.727608,29.949179 48.808647,30.003693 48.887817,30.06072 L48.887817,30.06072" /><path fill="none" stroke="#000000" stroke-width="0.06mm" d="M49.55822,28.95979 C49.570446,29.249313 49.574448,29.5393 49.594894,29.82836 C49.60185,29.926693 49.69949,29.885738 49.740562,29.8474 C49.956345,29.64599 50.164726,29.436796 50.37681,29.231495 L50.37681,29.231495" /><path fill="none" stroke="#000000" stroke-width="0.06mm" d="M36.548943,37.18148 L37.47339,37.54846" /><path fill="none" stroke="#000000" stroke-width="0.06mm" d="M38.33432,37.57316 L38.934155,37.756645" /><path fill="none" stroke="#000000" stroke-width="0.06mm" d="M40.691307,38.13421 L41.541653,38.338867" /><path fill="none" stroke="#000000" stroke-width="0.06mm" d="M42.459045,38.712906 L43.097687,38.839935" /><path fill="none" stroke="#000000" stroke-width="0.06mm" d="M43.612835,38.910507 L44.554924,39.27748" /><path fill="none" stroke="#000000" stroke-width="0.06mm" d="M45.281776,39.6374 L46.283848,40.12788" /><path fill="none" stroke="#000000" stroke-width="0.06mm" d="M46.566124,40.10318 C47.051094,40.132236 46.79326,40.08483 47.331787,40.28314 L47.331787,40.28314" /><path fill="none" stroke="#000000" stroke-width="0.06mm" d="M48.150383,40.41723 L48.7855,40.688934" /><path fill="none" stroke="#000000" stroke-width="0.06mm" d="M36.693607,39.390396 L36.7082,39.359116" /><path fill="none" stroke="#000000" stroke-width="0.06mm" d="M36.640682,39.235138 L37.402817,39.034008" /><path fill="none" stroke="#000000" stroke-width="0.06mm" d="M37.741547,39.263367 L38.54603,39.4151" /><path fill="none" stroke="#000000" stroke-width="0.06mm" d="M39.315224,39.647987 L39.756275,39.707973" /><path fill="none" stroke="#000000" stroke-width="0.06mm" d="M41.03709,40.067894 C41.79277,40.25354 41.473488,40.15287 42.003876,40.3396 L42.003876,40.3396" /><path fill="none" stroke="#000000" stroke-width="0.06mm" d="M42.64605,40.61483 L43.35879,40.893593" /><path fill="none" stroke="#000000" stroke-width="0.06mm" d="M43.955093,41.33114 C44.27733,41.54817 44.092648,41.411118 44.49141,41.76516 L44.49141,41.76516" /><path fill="none" stroke="#000000" stroke-width="0.06mm" d="M44.823082,42.075684 C45.326683,42.575554 45.13453,42.35121 45.42997,42.721416 L45.42997,42.721416" /><path fill="none" stroke="#000000" stroke-width="0.06mm" d="M45.87808,43.035465 C46.14437,43.576103 46.0204,43.3359 46.245033,43.758835 L46.245033,43.758835" /><path fill="none" stroke="#000000" stroke-width="0.06mm" d="M38.35902,37.735477 C38.328896,37.659035 38.29544,37.58382 38.268646,37.506145 C38.20701,37.327465 38.454403,37.17565 38.557316,37.10434 C38.6323,37.052376 38.68471,37.023277 38.768147,37.009277 C38.967903,36.975754 39.119072,37.18724 39.13173,37.36302 C39.14077,37.488564 39.110435,37.62413 39.04454,37.73196 C38.981842,37.834576 38.91018,37.931503 38.83938,38.028706 C38.80669,38.073586 38.76596,38.112328 38.73428,38.15792 C38.657936,38.267796 38.571877,38.470684 38.67106,38.593754 C38.684906,38.61093 38.73074,38.652855 38.752823,38.657524 C38.76821,38.66078 38.783882,38.652214 38.799038,38.64803 C38.883175,38.62479 38.966743,38.599533 39.05059,38.575287 L39.05059,38.575287" /><path fill="none" stroke="#000000" stroke-width="0.06mm" d="M38.637764,39.115166 L38.64177,39.253258" /><path fill="none" stroke="#000000" stroke-width="0.06mm" d="M38.29551,37.6649 C38.31862,37.571384 38.3357,37.47617 38.364826,37.384346 C38.400307,37.272476 38.505745,37.130936 38.624466,37.098206 C38.800793,37.049603 38.95091,37.29231 38.942642,37.443584 C38.9284,37.7042 38.799706,37.863155 38.686813,38.10434 C38.659206,38.163322 38.6398,38.233437 38.64025,38.299793 C38.64051,38.338287 38.65085,38.404015 38.67035,38.438248 C38.68785,38.468983 38.729866,38.557602 38.734756,38.52257 C38.743164,38.462364 38.696915,38.40687 38.68299,38.347694 C38.677444,38.32413 38.676582,38.29956 38.67658,38.275352 C38.676544,38.05832 38.937225,37.733837 39.002483,37.610477 C39.130024,37.36939 39.000835,37.046673 38.72136,37.00331 C38.71054,37.001633 38.704086,37.025833 38.71086,37.03443 C38.89029,37.26225 38.749123,36.988598 38.888474,37.216667 C38.9607,37.334892 39.009117,37.475193 38.96481,37.613026 C38.885246,37.86052 38.664486,38.197296 38.832676,38.466946 C38.84119,38.480595 38.851,38.493626 38.862446,38.504932 C38.953148,38.594532 39.046684,38.681217 39.1388,38.76936 L39.1388,38.76936" /><path fill="none" stroke="#000000" stroke-width="0.06mm" d="M38.464874,39.496254 L38.46888,39.214443" /><path fill="none" stroke="#000000" stroke-width="0.06mm" d="M35.591278,37.592793 C35.645805,38.030693 35.61306,37.967133 35.833855,38.473236 C35.89291,38.6086 35.999878,38.77648 36.11529,38.88089 C36.296574,39.04489 36.396854,39.085426 36.615562,39.211662 L36.615562,39.211662" /><path fill="none" stroke="#000000" stroke-width="0.06mm" d="M36.3196,38.99547 L36.62843,38.722656" /><path fill="none" stroke="#000000" stroke-width="0.06mm" d="M35.992756,38.537346 C36.223003,38.467747 36.095978,38.517174 36.365925,38.370056 L36.365925,38.370056" /><path fill="none" stroke="#000000" stroke-width="0.06mm" d="M35.740547,37.95826 C35.95725,37.87927 35.841557,37.930603 36.082832,37.79354 L36.082832,37.79354" /><path fill="none" stroke="#000000" stroke-width="0.06mm" d="M35.53466,37.34314 L35.98246,37.415207" /><path fill="none" stroke="#000000" stroke-width="0.06mm" d="M46.510513,55.03265 C47.234352,55.448727 47.061905,55.406002 47.727634,55.62348 C47.76939,55.637123 47.812748,55.649326 47.856667,55.650257 C47.969864,55.65264 48.082836,55.638992 48.195923,55.633366 L48.195923,55.633366" /><path fill="none" stroke="#000000" stroke-width="0.06mm" d="M48.382538,55.487556 C48.631897,55.481937 48.852608,55.50945 49.085278,55.43433 C49.165237,55.408516 49.24079,55.37067 49.31855,55.33884 L49.31855,55.33884" /><path fill="none" stroke="#000000" stroke-width="0.06mm" d="M50.382866,55.21928 C51.165756,55.16498 51.94703,55.076874 52.73153,55.056385 C53.056908,55.047886 53.381554,55.096287 53.705025,55.13251 C54.39612,55.20991 55.084618,55.308945 55.774414,55.397163 L55.774414,55.397163" /><path fill="none" stroke="#000000" stroke-width="0.06mm" d="M49.000717,55.391327 C50.36927,55.198383 52.290184,54.917694 53.565536,54.79712 C53.91851,54.763752 54.568398,54.786575 54.93252,54.920395 C55.41956,55.099384 56.089348,55.428753 56.498196,55.79492 C57.619614,56.799274 57.76393,57.100838 58.713673,58.31617 L58.713673,58.31617" /><path fill="none" stroke="#000000" stroke-width="0.06mm" d="M58.483307,58.021645 C60.561302,60.393375 60.500034,60.084564 62.178566,63.233364 C62.538857,63.909237 63.14455,65.166565 63.28287,66.11713 C63.321396,66.38188 63.373398,66.65242 63.33922,66.91776 C63.16343,68.282425 62.996853,68.508514 62.524788,69.63646 L62.524788,69.63646" /><path fill="none" stroke="#000000" stroke-width="0.06mm" d="M62.37607,69.519806 L62.347305,69.561035" /><path fill="none" stroke="#000000" stroke-width="0.06mm" d="M62.40815,69.45566 C62.027184,70.194214 62.00775,70.31641 61.452034,71.00281 C61.373787,71.09946 61.26521,71.16697 61.171795,71.249054 L61.171795,71.249054" /><path fill="none" stroke="#000000" stroke-width="0.06mm" d="M48.513756,69.54607 C48.16631,69.21866 47.770523,69.007126 47.466293,68.62189 C46.82865,67.81445 46.571884,67.35289 46.23857,66.39211 C46.11155,66.025986 45.719498,64.18466 45.204308,63.343918 C45.12323,63.21161 45.02732,63.08898 44.938828,62.961514 L44.938828,62.961514" /><path fill="none" stroke="#000000" stroke-width="0.06mm" d="M44.970905,63.072323 C44.399445,60.95874 43.846672,58.840015 43.25653,56.73157 C42.95643,55.659397 43.002518,55.79112 42.6819,55.155125 L42.6819,55.155125" /><path fill="none" stroke="#000000" stroke-width="0.06mm" d="M63.25377,66.69704 C62.924393,67.775375 62.72026,69.060905 62.09058,70.06886 C62.016098,70.18808 61.923424,70.29591 61.826008,70.39726 C61.36215,70.87984 61.101593,71.14311 60.523254,71.45116 C59.915215,71.77501 58.150013,72.037964 58.009624,72.059135 C56.980392,72.214355 56.11872,72.26819 55.11222,72.19501 C55.008,72.18742 54.904053,72.16412 54.805946,72.12814 C54.076664,71.86068 53.3647,71.54704 52.633156,71.28582 C52.42861,71.21278 52.211517,71.18132 52.001316,71.12666 C50.160244,70.64788 52.41996,71.2207 50.45868,70.72707 L50.45868,70.72707" /><path fill="none" stroke="#000000" stroke-width="0.06mm" d="M50.43827,70.77957 C50.220226,70.76434 49.996834,70.784256 49.784145,70.733894 C48.617157,70.45754 48.440063,70.1589 47.51792,69.30098 C47.470726,69.257065 47.43032,69.20499 47.398163,69.14912 C47.32245,69.01756 47.263226,68.87718 47.195755,68.74121 L47.195755,68.74121" /><defs><path id="DRAW_1112"  d="M43.195107,56.143677 C43.5407,57.49253 43.844154,58.852886 44.231884,60.190235 C44.803825,62.162975 45.425026,64.1216 46.07316,66.07063 C46.206207,66.470726 46.351967,66.87366 46.573654,67.2323 C47.07125,68.03732 47.64689,68.79233 48.22068,69.544945 C48.34604,69.70937 48.92556,70.22482 49.11918,70.34302 C49.849182,70.788635 50.985794,70.933365 51.678024,71.14238 C52.238235,71.31154 52.77018,71.572014 53.33774,71.714554 C54.021217,71.886215 55.094013,71.76033 55.736305,71.78938 C56.596485,71.82829 57.452553,71.933 58.3119,71.98726 C58.37725,71.99138 58.443367,71.97974 58.507004,71.96431 C58.925167,71.862885 59.347767,71.77394 59.755703,71.637054 C59.994026,71.55708 60.217583,71.43673 60.438232,71.31627 C60.966915,71.027664 61.439575,70.75291 61.86833,70.33566 C62.008923,70.19884 62.141895,70.05128 62.249596,69.88731 C62.609604,69.33922 62.920643,68.55998 63.063602,67.94696 C63.275955,67.03637 63.347523,66.527115 63.266354,65.7014 C63.257957,65.616 63.23901,65.53084 63.209053,65.45043 C63.079456,65.102554 62.96896,64.74363 62.788666,64.41911 C62.280563,63.504543 61.679733,62.644363 61.14913,61.74266 C60.868053,61.265 60.637413,60.758728 60.354343,60.28224 C60.26481,60.131527 60.14587,60.000107 60.03382,59.86528 C58.916264,58.520573 57.80251,57.17253 56.6658,55.84398 C56.324886,55.44553 55.426033,55.18616 55.04533,55.08221 C54.48208,54.928406 53.97548,54.944733 53.39526,54.992073 C52.782013,55.042114 52.172783,55.13437 51.559883,55.18853 C51.059227,55.232777 50.554893,55.232296 50.0553,55.28723 C49.281128,55.37236 48.51358,55.5102 47.74096,55.608456 C47.69555,55.614227 47.648674,55.60874 47.60395,55.59898 C47.516766,55.57995 47.432907,55.548027 47.347385,55.52255 L47.347385,55.52255" /></defs><use xlink:href="#DRAW_1112" fill="none" stroke="#000000" stroke-width="0.04mm" /><text style="fill:#000000; font-size:0.5mm; letter-spacing:2;"><textPath xlink:href="#DRAW_1112">||||||||||||||||||||||||||||||||||||||||||||||||||||||||||||||||||||||||||||||||||||||||||||||||||||||||||||||||||||||||||||||||||||||||||||||||||||||||||||||||||||||||||||||||||||||||||||||||||||||||||||||||||||||||||||||</textPath></text><path fill="none" stroke="#000000" stroke-width="0.06mm" d="M46.344307,54.563156 C46.478287,54.85798 46.61227,55.152805 46.746254,55.447628 C46.837204,55.590637 46.960068,55.717793 47.01911,55.87666 C47.584167,57.39702 47.258682,57.55968 48.0822,58.383244 L48.0822,58.383244" /><path fill="none" stroke="#000000" stroke-width="0.06mm" d="M43.142616,55.977463 C43.294655,56.395782 43.464622,56.808018 43.598724,57.232426 C43.80349,57.880455 43.729492,58.237213 43.837364,58.971672 C43.885117,59.2968 44.00732,59.616776 44.167725,59.90211 C44.326042,60.183735 44.459946,60.28177 44.70204,60.514587 C45.20684,61.00005 44.980606,60.745724 45.277077,61.09813 L45.277077,61.09813" /><path fill="none" stroke="#000000" stroke-width="0.06mm" d="M52.896393,71.26947 L52.920113,71.281525" /><defs><path id="DRAW_1119"  d="M52.71269,71.2753 L52.73058,71.304855" /></defs><use xlink:href="#DRAW_1119" fill="none" stroke="#000000" stroke-width="0.04mm" /><text style="fill:#000000; font-size:0.5mm; letter-spacing:2;"><textPath xlink:href="#DRAW_1119">|</textPath></text><defs><path id="DRAW_1120"  d="M53.774086,71.56108 L53.821136,71.51773" /></defs><use xlink:href="#DRAW_1120" fill="none" stroke="#000000" stroke-width="0.04mm" /><text style="fill:#000000; font-size:0.5mm; letter-spacing:2;"><textPath xlink:href="#DRAW_1120">|</textPath></text><defs><path id="DRAW_1121"  d="M53.27838,71.453186 L53.284603,71.482735" /></defs><use xlink:href="#DRAW_1121" fill="none" stroke="#000000" stroke-width="0.04mm" /><text style="fill:#000000; font-size:0.5mm; letter-spacing:2;"><textPath xlink:href="#DRAW_1121">|</textPath></text><defs><path id="DRAW_1123"  d="M52.896393,71.348206 C54.53353,71.34029 52.047447,71.38995 54.541782,71.13524 C56.5648,70.928665 54.622864,71.67749 57.630108,70.47287 C58.451912,70.14368 59.173645,69.33868 59.806877,68.81554 C60.433205,68.298096 61.101273,67.831314 61.713146,67.29686 C61.91371,67.12167 62.075592,66.90545 62.23656,66.693306 C62.57342,66.24935 62.719498,65.57352 62.823578,65.06405 C62.841675,64.975464 62.822666,64.883224 62.82221,64.792816 L62.82221,64.792816" /></defs><use xlink:href="#DRAW_1123" fill="none" stroke="#000000" stroke-width="0.04mm" /><text style="fill:#000000; font-size:0.5mm; letter-spacing:2;"><textPath xlink:href="#DRAW_1123">||||||||||||||||||||||||||||||||||||||||||||||||||||</textPath></text><path fill="none" stroke="#248B00" stroke-width="0.06mm" d="M54.520565,57.80585 L54.485966,57.75084" /><path fill="none" stroke="#248B00" stroke-width="0.06mm" d="M46.396793,54.83727 L46.397186,54.84349" /><path fill="none" stroke="#248B00" stroke-width="0.06mm" d="M55.240803,54.60981 C54.99476,55.417995 54.721085,56.21828 54.502678,57.034367 C54.43972,57.2696 54.33069,57.991337 54.39841,57.757427 C54.69709,56.725822 54.930843,55.676514 55.19706,54.636055 L55.19706,54.636055" /><path fill="none" stroke="#248B00" stroke-width="0.06mm" d="M46.5076,54.64189 C46.512886,54.50681 46.52575,54.37181 46.52346,54.23665 C46.522385,54.173088 46.516922,54.10825 46.497543,54.047707 C46.21524,53.165604 45.87245,52.302544 45.619347,51.411625 C45.37805,50.562263 45.172318,49.70137 45.015915,48.832367 C44.955338,48.495758 44.942406,48.148167 44.970665,47.807323 C45.013546,47.290123 45.093903,46.77314 45.228203,46.271843 C45.425217,45.53646 45.84935,44.696903 46.27456,44.059044 C46.510788,43.70468 46.83902,43.538128 47.13855,43.236923 C47.879433,42.491894 47.96381,42.20912 48.666145,41.71902 C48.87126,41.57589 49.286797,41.252274 49.615677,41.226273 C50.011353,41.194984 50.491207,41.476475 50.776917,41.624863 C50.984444,41.732643 51.18518,41.85664 51.3689,42.001312 C51.86158,42.389267 52.31923,43.013596 52.651276,43.503273 C53.030807,44.062973 53.39323,44.63492 53.731945,45.22022 C54.06664,45.79857 54.386425,47.407196 54.42597,47.64454 C54.498585,48.080368 54.445824,48.52919 54.495575,48.968216 C54.55495,49.492226 54.773487,50.008675 54.98473,50.48178 C55.226387,51.022995 55.25666,50.853127 55.382347,51.43177 C55.51154,52.026543 55.446163,52.810814 55.41238,53.350655 C55.38615,53.769825 55.331417,54.18676 55.284054,54.60407 C55.27791,54.65821 55.23206,54.720615 55.191853,54.754486 C55.1817,54.76304 55.16964,54.769485 55.157192,54.774086 C55.044846,54.815613 54.93106,54.85315 54.81799,54.892677 L54.81799,54.892677" /><path fill="none" stroke="#248B00" stroke-width="0.06mm" d="M53.940464,64.90709 C54.077984,65.2828 53.937195,64.92977 54.36142,65.63077 C54.465687,65.803055 54.556633,65.98321 54.661484,66.15514 C54.97897,66.67576 54.690617,66.12346 55.04941,66.72441 C55.0884,66.78972 55.117874,66.86039 55.147358,66.9305 C55.258564,67.19493 55.24297,67.1646 55.300552,67.40008 L55.300552,67.40008" /><defs><path id="DRAW_1133"  d="M55.024437,66.6694 C55.132,66.7124 55.18608,66.74697 55.292145,66.75693 C55.602734,66.7861 55.881916,66.568756 56.10125,66.3788 L56.10125,66.3788" /></defs><use xlink:href="#DRAW_1133" fill="none" stroke="#248B00" stroke-width="0.04mm" /><text style="fill:#248B00; font-size:0.5mm; letter-spacing:2;"><textPath xlink:href="#DRAW_1133">|||||</textPath></text><path fill="none" stroke="#FA356C" stroke-width="0.06mm" d="M53.75261,71.87053 C54.20839,72.0143 54.66417,72.158066 55.11995,72.301834 C55.136223,72.305504 55.185104,72.31628 55.168777,72.31284 C55.087227,72.295685 55.00268,72.28891 54.924282,72.260666 C54.638813,72.15783 53.787884,72.00299 54.07991,71.92061 C54.473557,71.80954 55.598038,72.420784 55.283516,72.15931 C54.87284,72.07187 54.462162,71.98442 54.051487,71.89697 C54.045975,71.897 54.040318,71.895805 54.034946,71.89705 C54.033394,71.897415 54.0318,71.900085 54.03279,71.90134 C54.03586,71.90523 54.04093,71.90698 54.045006,71.90981 C54.44158,72.06413 54.838158,72.21846 55.234734,72.37277 L55.234734,72.37277" /><path fill="none" stroke="#FA356C" stroke-width="0.06mm" d="M53.482616,72.20662 C51.112335,73.40326 53.05959,72.49725 48.56622,73.93463 C48.444984,73.97342 48.33454,74.040146 48.2187,74.0929 L48.2187,74.0929" /><path fill="none" stroke="#FA356C" stroke-width="0.06mm" d="M52.723618,72.15941 C52.406666,72.72693 53.688763,72.06374 53.4607,72.472145 C53.417923,72.54875 53.37231,72.62383 53.32437,72.69733 C53.312057,72.7162 53.30051,72.73859 53.280346,72.74864 C53.26722,72.755196 53.2936,72.722466 53.300224,72.70937 C53.37261,72.588684 53.447998,72.46976 53.51738,72.34732 C53.527557,72.32935 53.556496,72.27576 53.54914,72.24301 C53.54179,72.21029 53.50525,72.200455 53.477436,72.195076 C53.284847,72.15781 53.0188,72.24159 52.899117,72.08617 C52.788574,71.94261 53.259544,72.123795 53.439404,72.14568 C53.562172,72.160614 53.5697,72.36226 53.52163,72.44086 C53.486,72.4991 53.445274,72.55408 53.407097,72.61069 L53.407097,72.61069" /><path fill="none" stroke="#FA356C" stroke-width="0.06mm" d="M41.778,73.18744 C41.726303,73.249985 41.669662,73.30877 41.62291,73.37509 C41.45124,73.61862 41.487373,73.86068 41.694847,74.05757 C41.76634,74.12543 41.862694,74.17409 41.963135,74.16992 C42.221275,74.15921 42.29064,73.84357 42.139877,73.66502 C42.08406,73.59892 42.02452,73.55564 41.946564,73.51445 C41.824165,73.449776 41.50393,73.35149 41.428505,73.54126 C41.389412,73.6396 41.46137,73.799866 41.479534,73.8716 L41.479534,73.8716" /><path fill="none" stroke="#FA356C" stroke-width="0.06mm" d="M42.36151,72.39931 C42.36272,72.50952 42.302616,73.50592 42.40338,73.97606 C42.46163,74.24785 42.684128,74.0034 42.75056,73.88331 C42.801487,73.791245 42.824303,73.67334 42.851128,73.57647 L42.851128,73.57647" /><path fill="none" stroke="#FA356C" stroke-width="0.06mm" d="M42.7304,73.750854 L42.89808,74.20026" /><path fill="none" stroke="#FA356C" stroke-width="0.06mm" d="M43.03222,73.55634 L43.085876,74.17343" /><path fill="none" stroke="#FA356C" stroke-width="0.06mm" d="M43.19654,72.99627 L43.170166,73.0705" /><path fill="none" stroke="#FA356C" stroke-width="0.06mm" d="M43.44806,73.82464 C43.486343,73.7973 43.52066,73.76332 43.56291,73.74263 C43.58864,73.73003 43.518665,73.77922 43.498753,73.79981 C43.48713,73.81183 43.477425,73.825714 43.46875,73.84001 C43.437164,73.892075 43.42794,73.95987 43.450928,74.01737 C43.45685,74.032196 43.464554,74.04677 43.475254,74.05862 C43.5421,74.13261 43.61362,74.20224 43.682804,74.27404 L43.682804,74.27404" /><path fill="none" stroke="#FA356C" stroke-width="0.06mm" d="M44.044983,73.55969 C44.05642,73.76845 44.04472,73.979774 44.079292,74.18596 C44.08043,74.19274 44.148872,73.97801 44.15827,73.95668 C44.23832,73.775024 44.515938,73.87938 44.552475,74.04057 C44.574974,74.13982 44.526497,74.36735 44.52454,74.38471 L44.52454,74.38471" /><path fill="none" stroke="#FA356C" stroke-width="0.06mm" d="M44.779408,72.73468 C44.792862,73.17004 44.796013,73.60583 44.819775,74.04074 C44.82434,74.124306 44.865303,74.34483 44.98639,74.21971 C45.177166,74.02259 45.260574,73.76755 45.329388,73.51274 L45.329388,73.51274" /><path fill="none" stroke="#FA356C" stroke-width="0.06mm" d="M45.051044,73.827995 L45.366276,74.44173" /><path fill="none" stroke="#FA356C" stroke-width="0.06mm" d="M45.627853,73.620056 C45.59613,73.73239 45.558113,73.84314 45.532677,73.95706 C45.50728,74.07082 45.5138,74.23979 45.590637,74.33588 C45.693977,74.46512 45.919456,74.40665 46.002037,74.283646 C46.109062,74.12425 46.200294,73.74518 45.90448,73.72584 C45.88879,73.72481 45.87245,73.732124 45.86013,73.74188 C45.769463,73.8137 45.685158,73.89319 45.59767,73.96885 L45.59767,73.96885" /><path fill="none" stroke="#FA356C" stroke-width="0.06mm" d="M43.464825,73.767624 C43.553486,73.95793 43.57618,73.881645 43.42123,74.00239 L43.42123,74.00239" /><use xlink:href="#?" width="3.6" height="3.6" x="-1.8" y="-1.8" transform="translate(56.708496 73.08598) rotate(0)"/>
<use xlink:href="#water" width="3.6" height="3.6" x="-1.8" y="-1.8" transform="translate(52.540916 63.36206) rotate(-107)"/>
<use xlink:href="#water" width="3.6" height="3.6" x="-1.8" y="-1.8" transform="translate(50.668182 64.05174) rotate(-82)"/>
<use xlink:href="#?" width="3.6" height="3.6" x="-1.8" y="-1.8" transform="translate(45.929863 64.34604) rotate(0)"/>
<text x="39.931168" y="64.21227" font-family="sans-serif" font-size=".2mm" fill="black">waski meander </text>
<text x="56.13776" y="74.2959" font-family="sans-serif" font-size=".2mm" fill="black">szczelina nie do przejscia, okieno</text>
<text x="40.47515" y="64.48874" font-family="sans-serif" font-size=".2mm" fill="black">zaciski </text>
<text x="52.272438" y="75.87103" font-family="sans-serif" font-size=".2mm" fill="black">mozliwosc salki lub studzienki </text>
<use xlink:href="#water" width="3.6" height="3.6" x="-1.8" y="-1.8" transform="translate(49.608994 41.431503) rotate(176)"/>
<use xlink:href="#water" width="3.6" height="3.6" x="-1.8" y="-1.8" transform="translate(48.957993 42.879242) rotate(179)"/>
<use xlink:href="#water" width="3.6" height="3.6" x="-1.8" y="-1.8" transform="translate(50.349167 44.22888) rotate(170)"/>
<text x="37.15976" y="66.94678" font-family="sans-serif" font-size=".2mm" fill="black">wieje, mozliwosc studni-slychac echo</text>
<use xlink:href="#water" width="3.6" height="3.6" x="-1.8" y="-1.8" transform="translate(26.418856 34.390343) rotate(100)"/>
<use xlink:href="#water" width="3.6" height="3.6" x="-1.8" y="-1.8" transform="translate(30.264832 35.657116) rotate(-104)"/>
<use xlink:href="#rock_2" width="3.6" height="3.6" x="-1.8" y="-1.8" transform="translate(58.769066 70.980774) rotate(-161)"/>
<use xlink:href="#rock_2" width="3.6" height="3.6" x="-1.8" y="-1.8" transform="translate(60.0929 69.91057) rotate(121)"/>
<use xlink:href="#rock_2" width="3.6" height="3.6" x="-1.8" y="-1.8" transform="translate(60.8802 70.46462) rotate(-44)"/>
<use xlink:href="#rock_2" width="3.6" height="3.6" x="-1.8" y="-1.8" transform="translate(61.827877 68.48459) rotate(-126)"/>
<use xlink:href="#rock_2" width="3.6" height="3.6" x="-1.8" y="-1.8" transform="translate(62.472298 67.178185) rotate(-97)"/>
<use xlink:href="#rock_2" width="3.6" height="3.6" x="-1.8" y="-1.8" transform="translate(56.590874 71.36569) rotate(-135)"/>
<use xlink:href="#rock_1" width="3.6" height="3.6" x="-1.8" y="-1.8" transform="translate(61.81621 65.96217) rotate(-90)"/>
<use xlink:href="#rock_1" width="3.6" height="3.6" x="-1.8" y="-1.8" transform="translate(60.956013 68.983246) rotate(-123)"/>
<use xlink:href="#rock_1" width="3.6" height="3.6" x="-1.8" y="-1.8" transform="translate(50.09127 52.05531) rotate(105)"/>
<use xlink:href="#rock_1" width="3.6" height="3.6" x="-1.8" y="-1.8" transform="translate(51.692116 49.05173) rotate(-150)"/>
<use xlink:href="#rock_1" width="3.6" height="3.6" x="-1.8" y="-1.8" transform="translate(49.706367 46.345596) rotate(26)"/>
<use xlink:href="#water" width="3.6" height="3.6" x="-1.8" y="-1.8" transform="translate(50.549072 49.821583) rotate(162)"/>
<use xlink:href="#water" width="3.6" height="3.6" x="-1.8" y="-1.8" transform="translate(51.514244 51.883263) rotate(169)"/>
<use xlink:href="#water" width="3.6" height="3.6" x="-1.8" y="-1.8" transform="translate(52.721436 56.51694) rotate(156)"/>
<use xlink:href="#water" width="3.6" height="3.6" x="-1.8" y="-1.8" transform="translate(53.84407 61.200188) rotate(-175)"/>
</g>
<g>
<line fill="none" stroke="#111111" stroke-width="0.05mm" x1="21.00" y1="23.00" x2="20.00" y2="19.18" />
<line fill="none" stroke="#111111" stroke-width="0.05mm" x1="20.00" y1="19.18" x2="33.42" y2="37.83" />
<line fill="none" stroke="#5674b9" stroke-width="0.05mm" stroke-dasharray="0.4,0.2" opacity="0.87" x1="33.42" y1="37.83" x2="36.56" y2="38.72" />
<line fill="none" stroke="#00aeef" stroke-width="0.05mm" stroke-dasharray="0.4,0.2" opacity="0.98" x1="33.42" y1="37.83" x2="38.15" y2="47.60" />
<line fill="none" stroke="#00aeef" stroke-width="0.05mm" stroke-dasharray="0.4,0.2" opacity="1.00" x1="33.42" y1="37.83" x2="37.27" y2="42.63" />
<line fill="none" stroke="#5674b9" stroke-width="0.05mm" stroke-dasharray="0.4,0.2" opacity="0.98" x1="33.42" y1="37.83" x2="34.32" y2="40.38" />
<line fill="none" stroke="#5674b9" stroke-width="0.05mm" stroke-dasharray="0.4,0.2" opacity="0.98" x1="33.42" y1="37.83" x2="35.67" y2="36.84" />
<line fill="none" stroke="#5674b9" stroke-width="0.05mm" stroke-dasharray="0.4,0.2" opacity="0.94" x1="33.42" y1="37.83" x2="34.37" y2="40.37" />
<line fill="none" stroke="#5674b9" stroke-width="0.05mm" stroke-dasharray="0.4,0.2" opacity="0.07" x1="33.42" y1="37.83" x2="34.06" y2="37.75" />
<line fill="none" stroke="#111111" stroke-width="0.05mm" x1="33.42" y1="37.83" x2="39.15" y2="48.15" />
<line fill="none" stroke="#5674b9" stroke-width="0.05mm" stroke-dasharray="0.4,0.2" opacity="0.56" x1="39.15" y1="48.15" x2="37.76" y2="44.32" />
<line fill="none" stroke="#00aeef" stroke-width="0.05mm" stroke-dasharray="0.4,0.2" opacity="1.00" x1="39.15" y1="48.15" x2="36.00" y2="39.27" />
<line fill="none" stroke="#5674b9" stroke-width="0.05mm" stroke-dasharray="0.4,0.2" opacity="0.05" x1="39.15" y1="48.15" x2="38.38" y2="47.52" />
<line fill="none" stroke="#5674b9" stroke-width="0.05mm" stroke-dasharray="0.4,0.2" opacity="0.73" x1="39.15" y1="48.15" x2="36.58" y2="40.77" />
<line fill="none" stroke="#00aeef" stroke-width="0.05mm" stroke-dasharray="0.4,0.2" opacity="0.12" x1="39.15" y1="48.15" x2="42.14" y2="51.05" />
<line fill="none" stroke="#00aeef" stroke-width="0.05mm" stroke-dasharray="0.4,0.2" opacity="0.43" x1="39.15" y1="48.15" x2="45.61" y2="56.83" />
<line fill="none" stroke="#00aeef" stroke-width="0.05mm" stroke-dasharray="0.4,0.2" opacity="0.02" x1="39.15" y1="48.15" x2="39.54" y2="47.92" />
<line fill="none" stroke="#5674b9" stroke-width="0.05mm" stroke-dasharray="0.4,0.2" opacity="0.94" x1="39.15" y1="48.15" x2="54.71" y2="68.85" />
<line fill="none" stroke="#5674b9" stroke-width="0.05mm" stroke-dasharray="0.4,0.2" opacity="0.36" x1="39.15" y1="48.15" x2="42.42" y2="54.99" />
<line fill="none" stroke="#5674b9" stroke-width="0.05mm" stroke-dasharray="0.4,0.2" opacity="0.38" x1="39.15" y1="48.15" x2="46.29" y2="55.16" />
<line fill="none" stroke="#5674b9" stroke-width="0.05mm" stroke-dasharray="0.4,0.2" opacity="0.11" x1="39.15" y1="48.15" x2="43.05" y2="53.46" />
<line fill="none" stroke="#5674b9" stroke-width="0.05mm" stroke-dasharray="0.4,0.2" opacity="0.12" x1="39.15" y1="48.15" x2="40.87" y2="50.24" />
<line fill="none" stroke="#5674b9" stroke-width="0.05mm" stroke-dasharray="0.4,0.2" opacity="0.17" x1="39.15" y1="48.15" x2="59.78" y2="74.80" />
<line fill="none" stroke="#5674b9" stroke-width="0.05mm" stroke-dasharray="0.4,0.2" opacity="0.09" x1="39.15" y1="48.15" x2="39.31" y2="50.03" />
<line fill="none" stroke="#5674b9" stroke-width="0.05mm" stroke-dasharray="0.4,0.2" opacity="0.81" x1="39.15" y1="48.15" x2="56.99" y2="69.92" />
<line fill="none" stroke="#111111" stroke-width="0.05mm" x1="39.15" y1="48.15" x2="44.31" y2="51.91" />
<line fill="none" stroke="#5674b9" stroke-width="0.05mm" stroke-dasharray="0.4,0.2" opacity="1.00" x1="44.31" y1="51.91" x2="41.35" y2="53.65" />
<line fill="none" stroke="#111111" stroke-width="0.05mm" x1="44.31" y1="51.91" x2="47.92" y2="55.83" />
<line fill="none" stroke="#5674b9" stroke-width="0.05mm" stroke-dasharray="0.4,0.2" opacity="0.07" x1="47.92" y1="55.83" x2="51.56" y2="59.72" />
<line fill="none" stroke="#5674b9" stroke-width="0.05mm" stroke-dasharray="0.4,0.2" opacity="0.07" x1="47.92" y1="55.83" x2="51.57" y2="59.78" />
<line fill="none" stroke="#5674b9" stroke-width="0.05mm" stroke-dasharray="0.4,0.2" opacity="0.97" x1="47.92" y1="55.83" x2="57.32" y2="57.16" />
<line fill="none" stroke="#00aeef" stroke-width="0.05mm" stroke-dasharray="0.4,0.2" opacity="1.00" x1="47.92" y1="55.83" x2="63.47" y2="66.72" />
<line fill="none" stroke="#00aeef" stroke-width="0.05mm" stroke-dasharray="0.4,0.2" opacity="0.98" x1="47.92" y1="55.83" x2="61.48" y2="71.38" />
<line fill="none" stroke="#00aeef" stroke-width="0.05mm" stroke-dasharray="0.4,0.2" opacity="0.99" x1="47.92" y1="55.83" x2="45.53" y2="62.49" />
<line fill="none" stroke="#5674b9" stroke-width="0.05mm" stroke-dasharray="0.4,0.2" opacity="0.93" x1="47.92" y1="55.83" x2="48.96" y2="69.72" />
<line fill="none" stroke="#5674b9" stroke-width="0.05mm" stroke-dasharray="0.4,0.2" opacity="0.03" x1="47.92" y1="55.83" x2="45.33" y2="51.30" />
<line fill="none" stroke="#5674b9" stroke-width="0.05mm" stroke-dasharray="0.4,0.2" opacity="0.03" x1="47.92" y1="55.83" x2="45.21" y2="51.21" />
<line fill="none" stroke="#5674b9" stroke-width="0.05mm" stroke-dasharray="0.4,0.2" opacity="0.03" x1="47.92" y1="55.83" x2="45.37" y2="51.34" />
<line fill="none" stroke="#5674b9" stroke-width="0.05mm" stroke-dasharray="0.4,0.2" opacity="0.03" x1="47.92" y1="55.83" x2="45.39" y2="51.40" />
<line fill="none" stroke="#5674b9" stroke-width="0.05mm" stroke-dasharray="0.4,0.2" opacity="0.03" x1="47.92" y1="55.83" x2="45.38" y2="51.46" />
<line fill="none" stroke="#5674b9" stroke-width="0.05mm" stroke-dasharray="0.4,0.2" opacity="0.03" x1="47.92" y1="55.83" x2="45.66" y2="51.27" />
<line fill="none" stroke="#111111" stroke-width="0.05mm" x1="47.92" y1="55.83" x2="45.65" y2="51.43" />
<line fill="none" stroke="#00aeef" stroke-width="0.05mm" stroke-dasharray="0.4,0.2" opacity="0.93" x1="45.65" y1="51.43" x2="54.30" y2="48.88" />
<line fill="none" stroke="#00aeef" stroke-width="0.05mm" stroke-dasharray="0.4,0.2" opacity="0.84" x1="45.65" y1="51.43" x2="49.48" y2="41.38" />
<line fill="none" stroke="#00aeef" stroke-width="0.05mm" stroke-dasharray="0.4,0.2" opacity="0.92" x1="45.65" y1="51.43" x2="54.02" y2="57.65" />
<line fill="none" stroke="#00aeef" stroke-width="0.05mm" stroke-dasharray="0.4,0.2" opacity="0.89" x1="45.65" y1="51.43" x2="45.19" y2="46.61" />
<line fill="none" stroke="#00aeef" stroke-width="0.05mm" stroke-dasharray="0.4,0.2" opacity="0.08" x1="45.65" y1="51.43" x2="44.70" y2="47.52" />
<line fill="none" stroke="#5674b9" stroke-width="0.05mm" stroke-dasharray="0.4,0.2" opacity="0.15" x1="45.65" y1="51.43" x2="45.40" y2="49.97" />
<line fill="none" stroke="#5674b9" stroke-width="0.05mm" stroke-dasharray="0.4,0.2" opacity="0.43" x1="45.65" y1="51.43" x2="51.74" y2="53.16" />
<line fill="none" stroke="#111111" stroke-width="0.05mm" x1="45.65" y1="51.43" x2="54.34" y2="57.96" />
<line fill="none" stroke="#5674b9" stroke-width="0.05mm" stroke-dasharray="0.4,0.2" opacity="0.77" x1="54.34" y1="57.96" x2="53.93" y2="64.45" />
<line fill="none" stroke="#5674b9" stroke-width="0.05mm" stroke-dasharray="0.4,0.2" opacity="0.98" x1="54.34" y1="57.96" x2="51.90" y2="57.21" />
<line fill="none" stroke="#5674b9" stroke-width="0.05mm" stroke-dasharray="0.4,0.2" opacity="0.08" x1="54.34" y1="57.96" x2="53.78" y2="58.51" />
<line fill="none" stroke="#00aeef" stroke-width="0.05mm" stroke-dasharray="0.4,0.2" opacity="0.33" x1="54.34" y1="57.96" x2="53.26" y2="59.04" />
<line fill="none" stroke="#111111" stroke-width="0.05mm" x1="54.34" y1="57.96" x2="53.94" y2="64.89" />
<line fill="none" stroke="#00aeef" stroke-width="0.05mm" stroke-dasharray="0.4,0.2" opacity="0.99" x1="53.94" y1="64.89" x2="55.41" y2="64.70" />
<line fill="none" stroke="#00aeef" stroke-width="0.05mm" stroke-dasharray="0.4,0.2" opacity="0.71" x1="53.94" y1="64.89" x2="56.40" y2="72.74" />
<line fill="none" stroke="#5674b9" stroke-width="0.05mm" stroke-dasharray="0.4,0.2" opacity="0.76" x1="53.94" y1="64.89" x2="55.09" y2="66.67" />
<line fill="none" stroke="#5674b9" stroke-width="0.05mm" stroke-dasharray="0.4,0.2" opacity="0.91" x1="53.94" y1="64.89" x2="52.65" y2="62.13" />
<line fill="none" stroke="#111111" stroke-width="0.05mm" x1="53.94" y1="64.89" x2="47.02" y2="63.63" />
<line fill="none" stroke="#5674b9" stroke-width="0.05mm" stroke-dasharray="0.4,0.2" opacity="0.81" x1="47.02" y1="63.63" x2="46.09" y2="65.11" />
</g>
<g>
<circle cx="21.00" cy="23.00" r="0.1" fill="#111111" />
<circle cx="20.00" cy="19.18" r="0.1" fill="#111111" />
<circle cx="33.42" cy="37.83" r="0.1" fill="#111111" />
<circle cx="39.15" cy="48.15" r="0.1" fill="#111111" />
<circle cx="44.31" cy="51.91" r="0.1" fill="#111111" />
<circle cx="47.92" cy="55.83" r="0.1" fill="#111111" />
<circle cx="45.65" cy="51.43" r="0.1" fill="#111111" />
<circle cx="54.34" cy="57.96" r="0.1" fill="#111111" />
<circle cx="53.94" cy="64.89" r="0.1" fill="#111111" />
<circle cx="47.02" cy="63.63" r="0.1" fill="#111111" />
</g>
<g>
<text x="21.20" y="23.00" font-size=".2mm" fill="#000000">0</text>
<text x="20.20" y="19.18" font-size=".2mm" fill="#000000">1</text>
<text x="33.62" y="37.83" font-size=".2mm" fill="#000000">2</text>
<text x="39.35" y="48.15" font-size=".2mm" fill="#000000">3</text>
<text x="44.51" y="51.91" font-size=".2mm" fill="#000000">4</text>
<text x="48.12" y="55.83" font-size=".2mm" fill="#000000">5</text>
<text x="45.85" y="51.43" font-size=".2mm" fill="#000000">6</text>
<text x="54.54" y="57.96" font-size=".2mm" fill="#000000">7</text>
<text x="54.14" y="64.89" font-size=".2mm" fill="#000000">8</text>
<text x="47.22" y="63.63" font-size=".2mm" fill="#000000">9</text>
</g>
<g>
</g>
</g>
</svg>