<?xml version="1.0" encoding="utf-8"?>
<!DOCTYPE svg PUBLIC "-//W3C//DTD SVG 1.1//EN" "http://www.w3.org/Graphics/SVG/1.1/DTD/svg11.dtd">
<svg version="1.1" id="Layer_1" xmlns="http://www.w3.org/2000/svg" xmlns:xlink="http://www.w3.org/1999/xlink" x="0px" y="0px" width="132mm" height="234mm" viewBox="0 0 132 234" style="background-color:#ffffff;enable-background:new 0 0 132 234;" xml:space="preserve">
<symbol id="airflow" viewBox="-12 -12 24 24">
<path d="M-4.38,10.73l4.2-3.84V3.55L-4.07,7.13l-.31-.29L-.18,3V-6.89a3.37,3.37,0,0,0-1.68.53l1.68-4.15L0-11l.21.51h0v0l1.65,4.1A3.26,3.26,0,0,0,.24-6.89v14l-.08,0L-4.07,11Z"/>
<rect fill="none" x="-12" y="-12" width="24" height="24"/>
</symbol>
<symbol id="anastomosis" viewBox="-12 -12 24 24">
<path d="M2.23-4.78l.37.24L5.22-2.78l-.47.57L2.49-3.7l-4.61,8-.24.44-.37-.34L-5.22,2.3l.55-.52,2.1,1.82L2-4.39Z"/>
<rect fill="none" x="-12" y="-12" width="24" height="24"/>
</symbol>
<symbol id="bivouac" viewBox="-12 -12 24 24">
<path d="M.25-7.66l.24.58L.54-7l3.88.48-3.31.91L6,6H8.35v.48l-16.7.07V6.05h2.64L0-7.08Zm0,1.32L-5.13,6H-4l2.07-5L.2-4l2.09,5L4.37,6H5.44Z"/>
<rect fill="none" x="-12" y="-12" width="24" height="24"/>
</symbol>
<symbol id="bones" viewBox="-12 -12 24 24">
<path d="M2.44,4.27l-.16,0H2.13a.22.22,0,0,1-.11,0l-.1-.06a.39.39,0,0,1-.09-.11l-.08-.13a1.51,1.51,0,0,1-.06-.15l-.07-.17s0-.11-.08-.19-.06-.16-.08-.21a4.75,4.75,0,0,0-.38-.71c-.18-.29-.43-.64-.74-1A11.15,11.15,0,0,0-.7.32,6.73,6.73,0,0,0-2-.64a4.12,4.12,0,0,0-1.44-.52A1.64,1.64,0,0,1-5-2.19.72.72,0,0,1-5-2.44a1,1,0,0,1,0-.29A.52.52,0,0,1-4.87-3a.54.54,0,0,1,.35-.15L-4-3.22l.46,0a.54.54,0,0,0,.27-.06A.52.52,0,0,0-3-3.56a.74.74,0,0,0,.13-.31.54.54,0,0,1,.15-.26.54.54,0,0,1,.3-.15.83.83,0,0,1,.47,0,1.11,1.11,0,0,1,.35.4A7.46,7.46,0,0,1-1-2.76q.18.42.33.72a3.22,3.22,0,0,0,.39.57L.1-1a4.77,4.77,0,0,0,.58.43c.28.18.51.33.69.43l1,.56a1.84,1.84,0,0,0,.39.23A5.29,5.29,0,0,1,3.22.9l.43.26a3.7,3.7,0,0,1,.46.3l.36.29a2.28,2.28,0,0,1,.31.32A1,1,0,0,1,5,2.4c.2.48,0,.78-.47.91h0a8.48,8.48,0,0,0-1.12.09,1,1,0,0,0-.42.44A1,1,0,0,1,2.44,4.27Z"/>
<rect fill="none" x="-12" y="-12" width="24" height="24"/>
</symbol>
<symbol id="calcite" viewBox="-12 -12 24 24">
<path d="M2.36-2.22l.05.46.34,3.91L2,2.22,1.65-1.26-2.52-.06l-.23-.7L1.89-2.08Z"/>
<rect fill="none" x="-12" y="-12" width="24" height="24"/>
</symbol>
<symbol id="cauliflower" viewBox="-12 -12 24 24">
<path d="M5.58,3.22v-3A2.12,2.12,0,0,0,6.92-.43a1.78,1.78,0,0,0,.55-1.32,1.92,1.92,0,0,0-.65-1.42,2.19,2.19,0,0,0-1.53-.59,2.21,2.21,0,0,0-1.54.59,1.78,1.78,0,0,0-.64,1.42A1.86,1.86,0,0,0,3.65-.43,2.12,2.12,0,0,0,5,.23v3H.26v-3A2.17,2.17,0,0,0,1.61-.43a1.81,1.81,0,0,0,.54-1.32,1.91,1.91,0,0,0-.64-1.42A2.21,2.21,0,0,0,0-3.76a2.21,2.21,0,0,0-1.54.59,1.82,1.82,0,0,0-.64,1.42A1.83,1.83,0,0,0-1.66-.43,2.12,2.12,0,0,0-.32.23v3H-5v-3A2.12,2.12,0,0,0-3.71-.43a1.78,1.78,0,0,0,.55-1.32,1.92,1.92,0,0,0-.65-1.42,2.19,2.19,0,0,0-1.53-.59,2.21,2.21,0,0,0-1.54.59,1.83,1.83,0,0,0-.65,1.42A1.87,1.87,0,0,0-7-.43,2.12,2.12,0,0,0-5.64.23v3H-8v.54H8V3.22Z"/>
<rect fill="none" x="-12" y="-12" width="24" height="24"/>
</symbol>
<symbol id="clay" viewBox="-12 -12 24 24">
<path d="M1.85-1.33a3,3,0,0,1,1.67.48,3.23,3.23,0,0,1,1,1l.29.51-1,.43a3.81,3.81,0,0,0-.23-.4A3.74,3.74,0,0,0,2.93,0,1.77,1.77,0,0,0,1.85-.32a2.57,2.57,0,0,0-1.1.15A.86.86,0,0,0,.51.14,2.23,2.23,0,0,1,0,.88a2.55,2.55,0,0,1-1.45.43,3.16,3.16,0,0,1-2.75-1,4.28,4.28,0,0,1-.37-.57,3.91,3.91,0,0,1-.21-.47l0-.16,1-.22a1.87,1.87,0,0,0,.45.79A2.12,2.12,0,0,0-1.51.33,1.82,1.82,0,0,0-.69.14l.21-.36A1.53,1.53,0,0,1,.17-1,3.76,3.76,0,0,1,1.85-1.33Z"/>
<rect fill="none" x="-12" y="-12" width="24" height="24"/>
</symbol>
<symbol id="crystals" viewBox="-12 -12 24 24">
<path d="M-2.94-5.38,0-.72,2.94-5.38,3.62-5,.68-.36H6.56V.36H.68L3.62,5l-.68.36L0,.72-2.94,5.38-3.62,5-.68.36H-6.56V-.36H-.68L-3.62-5Z"/>
<rect fill="none" x="-12" y="-12" width="24" height="24"/>
</symbol>
<symbol id="curtain" viewBox="-12 -12 24 24">
<path d="M3.57-6.69l.52.53L.39-3V-.33L.1-.26a3.79,3.79,0,0,0-1,.41c-.58.3-.87.65-.87,1v.07A1.61,1.61,0,0,0-.84,2.48a3.69,3.69,0,0,0,.45.24L0,2.86l.13.05L.39,3V6.12H-.39V3.51a7.65,7.65,0,0,1-.9-.46A2.19,2.19,0,0,1-2.54,1.28V1.23A2,2,0,0,1-1.31-.48,5.32,5.32,0,0,1-.39-.86V-3l-3.7-3.14.52-.53L0-3.67Z"/>
<rect fill="none" x="-12" y="-12" width="24" height="24"/>
</symbol>
<symbol id="disk" viewBox="-12 -12 24 24">
<path d="M-.09-4.19a2.43,2.43,0,0,1,1.7.64A2,2,0,0,1,2.35-2,2.09,2.09,0,0,1,1.81-.55,2.44,2.44,0,0,1,.35.23l2.18,3.6-.68.33L0,1.14-1.48,4.19l-.71-.29L-.41.25A2.53,2.53,0,0,1-1.9-.47a2,2,0,0,1-.63-1.41,2,2,0,0,1,.67-1.61,2.46,2.46,0,0,1,1.72-.7ZM1.05-3.06.56-3.49l-.69,0A1.72,1.72,0,0,0-1.29-3a1.51,1.51,0,0,0-.45,1.08,1.36,1.36,0,0,0,.51,1A1.68,1.68,0,0,0-.07-.44v0l0,0A1.7,1.7,0,0,0,1.11-.92,1.36,1.36,0,0,0,1.56-2,1.47,1.47,0,0,0,1.05-3.06Z"/>
<rect fill="none" x="-12" y="-12" width="24" height="24"/>
</symbol>
<symbol id="entrance" viewBox="-12 -12 24 24">
<path d="M4.46,9H-4.46L0-9Z"/>
<rect fill="none" x="-12" y="-12" width="24" height="24"/>
</symbol>
<symbol id="flowstone" viewBox="-12 -12 24 24">
<rect x="-6" y="-0.21" width="12" height="0.42"/>
<rect fill="none" x="-12" y="-12" width="24" height="24"/>
</symbol>
<symbol id="flutes" viewBox="-12 -12 24 24">
<path d="M-7-1H7v.72H3.87A4.7,4.7,0,0,1,2.16,1.5,4.2,4.2,0,0,1,0,2.13,3.94,3.94,0,0,1-2.19,1.5,4.18,4.18,0,0,1-3.76-.27H-7Zm4.17.72A3.15,3.15,0,0,0-1.65,1,3.21,3.21,0,0,0,0,1.41,3.49,3.49,0,0,0,1.6,1,3.68,3.68,0,0,0,3-.27Z"/>
<rect fill="none" x="-12" y="-12" width="24" height="24"/>
</symbol>
<symbol id="gradient" viewBox="-12 -12 24 24">
<path d="M2.58-3.83,0-10-2.58-3.83A4.74,4.74,0,0,1-.17-4.5V10H.25V-4.5A6.65,6.65,0,0,1,2.58-3.83Z"/>
<rect fill="none" x="-12" y="-12" width="24" height="24"/>
</symbol>
<symbol id="guano" viewBox="-12 -12 24 24">
<path d="M-3.24-3a2.15,2.15,0,0,1,1.57.55A3.93,3.93,0,0,1-.59.24a4.32,4.32,0,0,1,2.75-2.3,2.68,2.68,0,0,1,2.23.36A2.36,2.36,0,0,1,5.5.19l-.79,0a1.72,1.72,0,0,0-.79-1.37,1.94,1.94,0,0,0-1.55-.24A3.53,3.53,0,0,0,.48,0,6.63,6.63,0,0,0-.69,3l-.79-.09a10.72,10.72,0,0,0,0-3.16A3.21,3.21,0,0,0-2.22-2,1.44,1.44,0,0,0-3.37-2.3,3.45,3.45,0,0,0-5-1.54l-.5-.55a4.29,4.29,0,0,1,2-.91A.9.9,0,0,1-3.24-3Z"/>
<rect fill="none" x="-12" y="-12" width="24" height="24"/>
</symbol>
<symbol id="helictites" viewBox="-12 -12 24 24">
<path d="M-4.59-7.92h.79v7.7l3.41,0V-7.92H.39V-.17L4.2-.12h.39v8H3.8V.6L.39.55V7.92H-.39V.55L-4.2.5l-.39,0v-8.4Z"/>
<rect fill="none" x="-12" y="-12" width="24" height="24"/>
</symbol>
<symbol id="human" viewBox="-12 -12 24 24">
<path d="M-3.59-3.29A5.13,5.13,0,0,1,0-4.66,5.13,5.13,0,0,1,3.59-3.29,4.3,4.3,0,0,1,5.09,0a4.3,4.3,0,0,1-1.5,3.29A5.13,5.13,0,0,1,0,4.66,5.13,5.13,0,0,1-3.59,3.29,4.3,4.3,0,0,1-5.09,0,4.3,4.3,0,0,1-3.59-3.29Zm.28.77A3.68,3.68,0,0,0-4.3,0a3.62,3.62,0,0,0,1,2.57L-.5.05ZM0-3.94A4.42,4.42,0,0,0-2.75-3L.16-.36H4.28A3.62,3.62,0,0,0,2.91-2.9,4.38,4.38,0,0,0,0-3.94ZM.16.46-2.7,3.07A4.42,4.42,0,0,0,0,3.94a4.37,4.37,0,0,0,2.87-1A3.78,3.78,0,0,0,4.28.46Z"/>
<rect fill="none" x="-12" y="-12" width="24" height="24"/>
</symbol>
<symbol id="karren" viewBox="-12 -12 24 24">
<path d="M1-5.84h0a1.37,1.37,0,0,1,1.06.68A3.33,3.33,0,0,1,2.5-3.79,25.79,25.79,0,0,1,2.36,0a18.61,18.61,0,0,0-.08,3.72,2.68,2.68,0,0,0,.41,1.2,1.13,1.13,0,0,0,.79.5A.92.92,0,0,0,4,4.94a4.43,4.43,0,0,0,.47-1.22c.16-.64.36-1.86.59-3.66a26.71,26.71,0,0,1,.64-3.69,4.62,4.62,0,0,1,.57-1.29,1.34,1.34,0,0,1,1-.59h0A1.28,1.28,0,0,1,8.37-5a2.17,2.17,0,0,1,.39,1.15A19.91,19.91,0,0,1,8.54-.53a21.51,21.51,0,0,0-.2,3.64A2.64,2.64,0,0,0,9.45,5.36,1.91,1.91,0,0,0,10.88,5a3.84,3.84,0,0,0,.7-1l.42.2-.1.18-.12.21-.11.18L11.52,5a.94.94,0,0,1-.14.16c-.06.07-.13.12-.19.18a2.5,2.5,0,0,1-1.85.41H9.29l0,0A3.06,3.06,0,0,1,7.87,3.13a22.11,22.11,0,0,1,.2-3.7,18.17,18.17,0,0,0,.22-3.28A1.85,1.85,0,0,0,8-4.79a.77.77,0,0,0-.67-.3.93.93,0,0,0-.64.42,4.51,4.51,0,0,0-.51,1.15A26.26,26.26,0,0,0,5.54.1c-.24,1.83-.45,3.07-.61,3.72a5.38,5.38,0,0,1-.51,1.34,1.33,1.33,0,0,1-.89.68H3.47A1.58,1.58,0,0,1,2.3,5.16a3.29,3.29,0,0,1-.49-1.4A20.27,20.27,0,0,1,1.89,0,23.45,23.45,0,0,0,2-3.75a2.94,2.94,0,0,0-.32-1.19A.93.93,0,0,0,1-5.42,1.1,1.1,0,0,0,.19-5,3.69,3.69,0,0,0-.43-3.76,20.78,20.78,0,0,0-1.07.07c-.2,2-.37,3.32-.49,3.86A4.48,4.48,0,0,1-2,5.26,1.06,1.06,0,0,1-3,5.81h0a1.9,1.9,0,0,1-1.29-.67,2.7,2.7,0,0,1-.58-1.31,14.92,14.92,0,0,1,0-3.6q0-.12.06-.54c0-.28,0-.47,0-.57s0-.28,0-.52,0-.42,0-.55,0-.28,0-.47,0-.36,0-.51,0-.29,0-.43A3.09,3.09,0,0,0-5-4.62a1.19,1.19,0,0,0-.67-.6,1.5,1.5,0,0,0-1.2.9A7,7,0,0,0-7.41-2.1c0,.39-.1,1-.14,1.76s-.11,1.47-.18,2.08A9.61,9.61,0,0,1-8,3.32h0l0,0A2.81,2.81,0,0,1-9.2,4.62a1.82,1.82,0,0,1-1.35.15A1.94,1.94,0,0,1-11.61,4,2.39,2.39,0,0,1-12,2.56l.47,0a1.92,1.92,0,0,0,.31,1.16,1.47,1.47,0,0,0,.81.62,1.3,1.3,0,0,0,1-.11A2.32,2.32,0,0,0-8.5,3.18a7.53,7.53,0,0,0,.29-1.5Q-8.1.8-8-.36c0-.78.1-1.37.16-1.78A7.23,7.23,0,0,1-7.28-4.5,1.93,1.93,0,0,1-5.65-5.66h.05l0,0a1.59,1.59,0,0,1,1,.84,3.47,3.47,0,0,1,.34,1.41,4.91,4.91,0,0,1,0,.57v.54c0,.15,0,.37,0,.66s0,.47,0,.58,0,.33-.06.68,0,.56-.06.63a14.78,14.78,0,0,0,0,3.49,2.58,2.58,0,0,0,.5,1.13,1.57,1.57,0,0,0,1,.5A.61.61,0,0,0-2.44,5,3.89,3.89,0,0,0-2,3.85C-1.9,3.31-1.74,2-1.53,0A20.65,20.65,0,0,1-.86-3.89,3.89,3.89,0,0,1-.18-5.26,1.58,1.58,0,0,1,1-5.84Z"/>
<rect fill="none" x="-12" y="-12" width="24" height="24"/>
</symbol>
<symbol id="moonmilk" viewBox="-12 -12 24 24">
<path d="M-4.78-3.06a3.39,3.39,0,0,1,1.5.34,2.48,2.48,0,0,1,1.1,1,3.74,3.74,0,0,1,1.62-.8,3.52,3.52,0,0,1,1.71,0,2.9,2.9,0,0,1,1.39.77A2.49,2.49,0,0,1,3.25-.37,4,4,0,0,1,5-.76a3.58,3.58,0,0,1,1.6.36A2.84,2.84,0,0,1,7.88.92a2.32,2.32,0,0,1,0,1.88.34.34,0,0,1-.37.26A.36.36,0,0,1,7.25,3a.32.32,0,0,1-.12-.25.21.21,0,0,1,0-.12,2,2,0,0,0,0-1.43,2,2,0,0,0-1-.9A2.81,2.81,0,0,0,4.68,0,2.78,2.78,0,0,0,3.12.56L2.46.25A1.7,1.7,0,0,0,2.15-1.1,2.15,2.15,0,0,0,1-1.81a2.85,2.85,0,0,0-1.58.06A3,3,0,0,0-2-.83l-.71-.12A1.74,1.74,0,0,0-3.55-2a2.36,2.36,0,0,0-1.39-.27,3.08,3.08,0,0,0-1.45.53A2.33,2.33,0,0,0-7.32-.56a.35.35,0,0,1-.37.24A.39.39,0,0,1-8-.42a.33.33,0,0,1-.1-.26v-.1A3,3,0,0,1-6.89-2.35,4,4,0,0,1-5-3Z"/>
<rect fill="none" x="-12" y="-12" width="24" height="24"/>
</symbol>
<symbol id="narrow" viewBox="-12 -12 24 24">
<path d="M-1.5,5V-5h0.64V5H-1.5z"/>
<path d="M0.86,5V-5H1.5V5H0.86z"/>
<rect fill="none" x="-12" y="-12" width="24" height="24"/>
</symbol>
<symbol id="paleoflow" viewBox="-12 -12 24 24">
<path d="M.38-12V.17A1.9,1.9,0,0,0,1,0,1.57,1.57,0,0,0,1.7-.72a1.86,1.86,0,0,0,.23-1c0-.09,0-.14.08-.16a.92.92,0,0,1,.24,0,.52.52,0,0,0,.25,0h.08A2.48,2.48,0,0,1,2,0,2.5,2.5,0,0,1,.38.77V7.21H2.09L0,12-1.8,7.23c.07,0,.59,0,1.53,0V.77A3,3,0,0,1-1.35.43a2.16,2.16,0,0,1-1-1,2.38,2.38,0,0,1-.24-1.33l.67,0a2,2,0,0,0,.15,1,1.73,1.73,0,0,0,.59.67A2.14,2.14,0,0,0-.27.16V-12Z"/>
<rect fill="none" x="-12" y="-12" width="24" height="24"/>
</symbol>
<symbol id="rain" viewBox="-12 -12 24 24">
<path d="M-4.14-6.34h0.71v4.69h-0.71V-6.34z"/>
<path d="M-0.35-6.34h0.71v4.69h-0.71V-6.34z"/>
<path d="M3.43-6.34h0.71v4.69H3.43V-6.34z"/>
<path d="M-4.14,1.65h0.71v4.69h-0.71V1.65z"/>
<path d="M-0.35,1.65h0.71v4.69h-0.71V1.65z"/>
<path d="M3.43,1.65h0.71v4.69H3.43V1.65z"/>
<rect fill="none" x="-12" y="-12" width="24" height="24"/>
</symbol>
<symbol id="rats" viewBox="-12 -12 24 24">
<path d="M8.78-2.32,7-2.27c-.51-.17-.65-.56-1.46-.45l-.25.45C3.59-2.75,2.59-3.66.56-3.62l-1.35.3A4.89,4.89,0,0,0-4.24,1.57c-.68.6-2.58.86-3.39.94a6.84,6.84,0,0,0-1.62.39,4.91,4.91,0,0,0-1,.52A1.75,1.75,0,0,0-11,4.61a1.16,1.16,0,0,0,.59,1.48,1.3,1.3,0,0,1,.14.12c.16-.52-.35-.92-.2-1.42a3.35,3.35,0,0,1,.27-.45,3.18,3.18,0,0,1,1.79-1c.63-.12,1.27-.22,1.91-.3.48-.07,1,0,1.4-.12A6.94,6.94,0,0,1-4,2.82,30.64,30.64,0,0,0,.41,2.69l2.16.15c.1-.09,0,0,.1-.15a.87.87,0,0,0-.9-.55c.86-1,2.27-.37,3.1-.05.5.19,1,0,1.25.4.11-.1.1-.07.15-.25.3,0,.31.07.6.15-.06-.49-.34-.64-1-.6a.78.78,0,0,1,0-.55C6.3.56,7.29.73,8.13.43a13.78,13.78,0,0,0,2.15-.9l.6-.85v-.2A16.9,16.9,0,0,0,8.78-2.32Z"/>
<rect fill="none" x="-12" y="-12" width="24" height="24"/>
</symbol>
<symbol id="sand" viewBox="-12 -12 24 24">
<path d="M-1.58,0.83c0.23,0.2,0.35,0.44,0.36,0.73c0.01,0.29-0.08,0.54-0.28,0.75c-0.2,0.21-0.46,0.32-0.78,0.33c-0.32,0.01-0.6-0.08-0.83-0.26C-3.36,2.19-3.49,1.95-3.5,1.67C-3.51,1.38-3.41,1.12-3.2,0.9c0.21-0.22,0.48-0.34,0.8-0.35C-2.08,0.54-1.81,0.64-1.58,0.83z"/>
<path d="M0.08-2.36c0.23,0.2,0.35,0.44,0.36,0.73c0.01,0.29-0.08,0.54-0.28,0.75c-0.2,0.21-0.46,0.32-0.78,0.33c-0.32,0.01-0.59-0.07-0.83-0.26s-0.37-0.42-0.38-0.71c-0.01-0.29,0.09-0.54,0.3-0.76c0.21-0.22,0.48-0.33,0.8-0.35C-0.42-2.65-0.14-2.56,0.08-2.36z"/>
<path d="M3.12,0.55c0.23,0.2,0.35,0.43,0.38,0.71c0.02,0.28-0.07,0.53-0.28,0.75C3,2.23,2.73,2.35,2.42,2.36C2.1,2.37,1.82,2.28,1.58,2.08C1.34,1.88,1.22,1.64,1.2,1.35c-0.01-0.29,0.09-0.54,0.3-0.75C1.72,0.4,1.99,0.29,2.3,0.28S2.89,0.36,3.12,0.55z"/>
<rect fill="none" x="-12" y="-12" width="24" height="24"/>
</symbol>
<symbol  id="scallops" viewBox="-12 -12 24 24">
<path d="M.05-3.74l.21,0A2.35,2.35,0,0,1,1.74-3a2,2,0,0,1,.59,1.55v0l0,0A9.59,9.59,0,0,1-.08,3.27l-.39.47-.27-.55A14.26,14.26,0,0,1-2.33-1.89v-.05l0-.05A2,2,0,0,1-1.44-3.3,2.42,2.42,0,0,1,.05-3.74ZM-.11-3A1.44,1.44,0,0,0-1.55-1.89,13.06,13.06,0,0,0-.29,2.33,8.6,8.6,0,0,0,1.55-1.54a1.41,1.41,0,0,0-.38-1A1.62,1.62,0,0,0,.18-3Z"/>
<rect fill="none" x="-12" y="-12" width="24" height="24"/>
</symbol>
<symbol  id="sink" viewBox="-12 -12 24 24">
<path d="M.72,9.41H.9c1.94,0,3.26-.54,3.94-1.51a3.61,3.61,0,0,0,.33-.69,2,2,0,0,0,.11-.54V6.46l.69,0a2.8,2.8,0,0,1-.58,1.78C4.58,9.39,3.1,10,.93,10H-.93q-3.25,0-4.46-1.8a2.74,2.74,0,0,1-.43-.83A2.37,2.37,0,0,1-6,6.67V6.43l.68,0A2.27,2.27,0,0,0-4.84,7.9c.68,1,2,1.47,3.93,1.48l.5,0ZM-1.46-10a.68.68,0,0,0,.16.41A2.77,2.77,0,0,0-.51-9l0,0a3.63,3.63,0,0,1,1,.7,1.15,1.15,0,0,1,.34.88c0,.58-.53,1.14-1.49,1.68-.68.42-1,.79-1,1.11s.3.61.84,1h0Q.61-2.86.46-1.78a3.51,3.51,0,0,1-1.55,2,.61.61,0,0,0-.26.41,1.67,1.67,0,0,0,.1.51,5.3,5.3,0,0,1,.32,1L.56,1.9.46,8.06-3.4,2.54l1.73-.28A6.16,6.16,0,0,0-2,1.39,1.7,1.7,0,0,1-2.09.58a1.21,1.21,0,0,1,.53-.82h0v0C-.75-.86-.33-1.38-.28-1.85s-.23-.87-.91-1.27h0C-2-3.6-2.37-4.1-2.4-4.61S-2-5.74-1.09-6.29C-.34-6.72.06-7.1.09-7.44a.67.67,0,0,0-.18-.43,3.17,3.17,0,0,0-.79-.58,2.93,2.93,0,0,1-1-.67A1.16,1.16,0,0,1-2.17-10Z"/>
<rect fill="none" x="-12" y="-12" width="24" height="24"/>
</symbol>
<symbol  id="spring" viewBox="-12 -12 24 24">
<path d="M-1.34-9.86,2.52-4.34.78-4.06a8,8,0,0,0,.29.87,1.4,1.4,0,0,1,.13.79,1.3,1.3,0,0,1-.52.84l0,0v0C-.13-.95-.55-.42-.61,0S-.37.91.31,1.3l0,0c.75.46,1.14,1,1.18,1.46S1.12,3.92.21,4.46C-.54,4.9-.94,5.29-1,5.64a.74.74,0,0,0,.18.43A3.2,3.2,0,0,0,0,6.62a3,3,0,0,1,1,.7,1.14,1.14,0,0,1,.31.86A1.74,1.74,0,0,1,.71,9.26H.92c1.92,0,3.22-.52,3.9-1.51a2.05,2.05,0,0,0,.35-.67,2.59,2.59,0,0,0,.1-.55l0-.19.65,0a2.84,2.84,0,0,1-.55,1.8C4.58,9.26,3.08,9.85.92,9.86H-.92c-2.17,0-3.66-.6-4.49-1.77a3.65,3.65,0,0,1-.4-.85A2.43,2.43,0,0,1-6,6.53V6.29l.66,0a2.08,2.08,0,0,0,.47,1.41c.68,1,2,1.5,3.91,1.51H-.4c.62-.43.94-.8,1-1.1a.76.76,0,0,0-.16-.43,3.25,3.25,0,0,0-.79-.51v0a3.8,3.8,0,0,1-1-.7,1.15,1.15,0,0,1-.34-.91q.06-.84,1.5-1.68c.68-.4,1-.77,1-1.1S.49,2.21,0,1.87c0,0,0,0,0,0C-1,1.32-1.44.69-1.34,0a3.58,3.58,0,0,1,1.55-2,.54.54,0,0,0,.23-.38A1.28,1.28,0,0,0,.37-3a4.57,4.57,0,0,1-.32-1l-1.49.24Z"/>
<rect fill="none" x="-12" y="-12" width="24" height="24"/>
</symbol>
<symbol  id="stalactite" viewBox="-12 -12 24 24">
<path d="M3.57-6.69l.52.53L.39-3V6.12H-.39V-3l-3.7-3.14.52-.53L0-3.67Z"/>
<rect fill="none" x="-12" y="-12" width="24" height="24"/>
</symbol>
<symbol  id="stalagmite" viewBox="-12 -12 24 24">
<path d="M.38-6.42V2.75L4.11,5.89l-.56.53L0,3.4l-3.57,3-.53-.53,3.7-3.14V-6.42Z"/>
<rect fill="none" x="-12" y="-12" width="24" height="24"/>
</symbol>
<symbol  id="stalagnate" viewBox="-12 -12 24 24">
<path d="M3.55-8.46l.56.53L.38-4.78v9L4.11,7.36l-.56.53L0,4.86l-3.57,3-.53-.53,3.7-3.14v-9l-3.7-3.15.53-.53L0-5.43Z"/>
<rect fill="none" x="-12" y="-12" width="24" height="24"/>
</symbol>
<symbol  id="straws" viewBox="-12 -12 24 24">
<path d="M-10.89-2.76H10.89V-2H9.63V.46H8.84V-2H8.29v5.6H7.5V-2H5.56V.7H4.77V-2H2.07V2.38H1.29V-2H-.1v3H-.89V-2H-3.2V4.11H-4V-2H-6.22L-6.16.75l-.79,0L-7-2H-8.32V2.33H-9.1V-2h-1.79Z"/>
<rect fill="none" x="-12" y="-12" width="24" height="24"/>
</symbol>
<symbol  id="water" viewBox="-12 -12 24 24">
<path d="M-1.72-9.86,2.11-4.32.38-4.06a6.49,6.49,0,0,0,.29.89,1.5,1.5,0,0,1,.13.79,1.2,1.2,0,0,1-.5.82h0l0,0C-.54-.94-1-.42-1,.05s.24.89.92,1.27h0c.77.48,1.17,1,1.19,1.49S.71,3.94-.2,4.49c-.75.43-1.13.81-1.15,1.15a.51.51,0,0,0,.18.43,2.66,2.66,0,0,0,.76.58,2.93,2.93,0,0,1,1,.67,1.16,1.16,0,0,1,.29.89C.84,8.75.42,9.3-.41,9.86l-.44-.55c.66-.45,1-.83,1-1.15A.47.47,0,0,0,0,7.75a2.84,2.84,0,0,0-.78-.53h0a3.87,3.87,0,0,1-1-.69,1.24,1.24,0,0,1-.34-.91c0-.58.54-1.14,1.52-1.68.66-.42,1-.79,1-1.11s-.3-.61-.84-1h0Q-1.9,1.06-1.74,0a3.44,3.44,0,0,1,1.54-2,.67.67,0,0,0,.27-.41A1.11,1.11,0,0,0,0-3a4.33,4.33,0,0,1-.31-1l-1.5.24Z"/>
<rect fill="none" x="-12" y="-12" width="24" height="24"/>
</symbol><symbol  id="tree" viewBox="-12 -12 24 24">
<path d="M7.4-5.04A4.271,4.271,0,0,0,7.7-6.627a4.3,4.3,0,0,0-4.3-4.3A4.279,4.279,0,0,0,.636-9.914,4.293,4.293,0,0,0-3.045-12a4.3,4.3,0,0,0-4.3,4.3,4.27,4.27,0,0,0,.421,1.845,4.3,4.3,0,0,0-3.645,4.244,4.3,4.3,0,0,0,4.3,4.3A4.282,4.282,0,0,0-3.946,2L-1.175,5.23h0L-1.612,12H.982L.757,6.376,4.119,2.827v0a4.272,4.272,0,0,0,2.15.58,4.3,4.3,0,0,0,4.3-4.3A4.3,4.3,0,0,0,7.4-5.04ZM-3.346,1.538h0A4.346,4.346,0,0,0-2.7.788a4.266,4.266,0,0,0,1.765.753l-.135,2.087ZM.69,4.7.563,1.544A4.258,4.258,0,0,0,2.321.805,4.3,4.3,0,0,0,3.378,2.279Z"/>
<rect fill="none" x="-12" y="-12" width="24" height="24"/>
</symbol><g>
<desc></desc>
<g>
<line fill="none" stroke="#dddddd" stroke-width="0.1mm" x1="0.00" y1="192.00" x2="132.00" y2="192.00" />
<text x="129.20" y="191.80" font-size=".2mm" fill="#000000">0m</text>
<line fill="none" stroke="#dddddd" stroke-width="0.1mm" x1="0.00" y1="142.00" x2="132.00" y2="142.00" />
<text x="129.20" y="141.80" font-size=".2mm" fill="#000000">5m</text>
<line fill="none" stroke="#dddddd" stroke-width="0.1mm" x1="0.00" y1="92.00" x2="132.00" y2="92.00" />
<text x="129.20" y="91.80" font-size=".2mm" fill="#000000">10m</text>
<line fill="none" stroke="#dddddd" stroke-width="0.1mm" x1="0.00" y1="42.00" x2="132.00" y2="42.00" />
<text x="129.20" y="41.80" font-size=".2mm" fill="#000000">15m</text>
<line fill="none" stroke="#dddddd" stroke-width="0.1mm" x1="28.00" y1="0.00" x2="28.00" y2="234.00" />
<text x="28.40" y="2.00" font-size=".2mm" fill="#000000">0m</text>
<line fill="none" stroke="#dddddd" stroke-width="0.1mm" x1="78.00" y1="0.00" x2="78.00" y2="234.00" />
<text x="78.40" y="2.00" font-size=".2mm" fill="#000000">5m</text>
<line fill="none" stroke="#dddddd" stroke-width="0.1mm" x1="128.00" y1="0.00" x2="128.00" y2="234.00" />
<text x="128.40" y="2.00" font-size=".2mm" fill="#000000">10m</text>
</g>
<g>
<path fill="none" stroke="#000000" stroke-width="0.06mm" d="M31.325777,197.43008 C32.05301,197.37134 33.19898,197.14137 33.80076,197.79745 C34.383247,198.4325 33.781406,200.33511 33.396397,200.86235 C32.617657,201.92877 31.775757,202.94978 30.902496,203.94029 C30.56939,204.31813 30.169025,204.6315 29.785522,204.95805 C29.550976,205.15778 29.247253,205.28104 29.050056,205.51772 C29.004133,205.57283 29.1754,205.60568 29.247131,205.60425 C30.20107,205.5851 31.151619,205.46552 32.10571,205.45639 C32.67414,205.45094 33.2405,205.52586 33.807896,205.56061 L33.807896,205.56061" /><path fill="none" stroke="#000000" stroke-width="0.06mm" d="M35.011795,203.82153 C35.641296,202.59506 36.34201,201.40259 36.9003,200.14209 C37.3541,199.11751 37.54805,197.98601 38.041935,196.98013 C38.37194,196.30803 37.519573,198.39311 37.396416,199.13167 C36.675537,203.45474 36.382576,202.33282 37.508774,204.66878 L37.508774,204.66878" /><path fill="none" stroke="#000000" stroke-width="0.06mm" d="M41.670406,204.62419 L41.34542,205.22073" /><path fill="none" stroke="#000000" stroke-width="0.06mm" d="M46.6941,197.31117 C46.698727,197.36856 46.077515,198.5145 46.58853,198.73335 C47.399704,199.08075 48.700134,198.24117 49.488567,198.94312 C49.90704,199.31569 50.079685,199.9917 50.121063,200.52443 C50.230865,201.93799 49.600315,203.42162 48.348488,204.1509 C47.957195,204.37885 47.502594,204.54362 47.043488,204.51913 C46.852253,204.50894 46.23928,204.39616 46.128017,204.26538 C45.743668,203.81357 45.50463,203.25603 45.19294,202.75134 L45.19294,202.75134" /><path fill="none" stroke="#000000" stroke-width="0.06mm" d="M46.44142,196.12206 C47.931,195.27698 48.268517,195.48569 50.008545,195.79506 L50.008545,195.79506" /><path fill="none" stroke="#000000" stroke-width="0.06mm" d="M54.125584,195.83966 C53.416412,196.12509 52.625015,196.40866 52.286316,197.15944 C51.93167,197.94557 51.25916,199.3967 51.562355,200.3425 C51.65936,200.6451 51.902176,200.87437 52.185303,201.00833 C53.630608,201.6922 54.72734,199.99092 55.41536,198.9984 C55.877228,198.33212 56.047195,197.65204 56.221745,196.85202 C56.341484,196.30322 56.53412,195.35011 55.996613,194.90558 C55.48983,194.48643 54.579037,194.58664 54.06547,194.93294 C53.72875,195.15999 53.42186,195.4284 53.10005,195.67615 L53.10005,195.67615" /><path fill="none" stroke="#000000" stroke-width="0.06mm" d="M28.026197,170.6157 C28.96555,172.61375 28.521938,177.53777 30.51931,180.01212 C31.195837,180.85019 32.05781,182.23181 33.211628,182.7157 C33.772625,182.95097 33.98295,182.7544 34.513916,182.69261 C35.07931,182.62683 35.648438,182.59846 36.215694,182.55139 L36.215694,182.55139" /><path fill="none" stroke="#000000" stroke-width="0.06mm" d="M20.163677,168.49017 C9.987843,165.27567 13.771078,166.7962 8.570549,164.59586 L8.570549,164.59586" /><path fill="none" stroke="#000000" stroke-width="0.06mm" d="M19.762375,167.59836 C19.63243,167.15584 19.465054,166.72264 19.372538,166.27081 C19.304749,165.93976 19.276487,165.59875 19.28376,165.2609 C19.325407,163.32664 19.518345,161.39627 19.519146,159.46158 C19.520748,155.5994 18.96962,157.7383 19.55544,154.7919 C19.78244,153.65019 20.4486,152.97055 21.264174,152.14252 C21.918781,151.4779 22.619274,150.8599 23.283463,150.20486 C23.402975,150.08699 23.467695,149.9072 23.614046,149.82498 C24.182343,149.50577 24.801645,149.28735 25.395443,149.01854 L25.395443,149.01854" /><defs><path id="DRAW_12078"  d="M118.54607,169.7366 C118.42683,171.27698 118.5432,170.48822 118.17293,172.09976 L118.17293,172.09976" /></defs><use xlink:href="#DRAW_12078" fill="none" stroke="#000000" stroke-width="0.04mm" /><text style="fill:#000000; font-size:0.5mm; letter-spacing:2;"><textPath xlink:href="#DRAW_12078">||||||||||</textPath></text><path fill="none" stroke="#000000" stroke-width="0.06mm" d="M28.0,192.0 L28.0,192.0" /><path fill="none" stroke="#000000" stroke-width="0.06mm" d="M27.436836,148.79184 C28.051872,148.75095 28.66897,148.60431 29.281944,148.66916 C32.095375,148.96678 34.87206,149.55658 37.683125,149.8758 C43.38066,150.5228 42.922348,149.62506 47.892822,151.59032 C49.30488,152.14862 50.615406,152.93604 51.9645,153.63284 C52.26947,153.79036 52.5294,154.03943 52.853477,154.15251 C54.748642,154.81378 57.92206,155.32004 59.67547,155.65747 L59.67547,155.65747" /><path fill="none" stroke="#000000" stroke-width="0.06mm" d="M27.94546,170.11263 C28.61108,168.28 28.70325,166.83574 28.319763,164.92337 C28.200602,164.32913 27.955399,163.76443 27.841867,163.16908 C27.750828,162.69168 27.77742,161.5788 27.881966,161.10585 C27.94319,160.82887 28.088528,160.57747 28.191807,160.31328 L28.191807,160.31328" /><path fill="none" stroke="#000000" stroke-width="0.06mm" d="M26.421196,148.38933 C26.745407,148.43362 27.263424,148.44241 27.46542,148.78943 C27.534445,148.90802 27.575027,149.04102 27.629831,149.16681 L27.629831,149.16681" /><defs><path id="DRAW_12096"  d="M27.18333,149.31308 C26.478228,149.7511 25.916988,150.25386 25.516603,150.98067 C25.131466,151.67981 25.039125,153.37956 25.02406,153.62857 C24.970345,154.51631 25.020943,155.56755 25.295712,156.4523 C25.421646,156.85782 25.57041,157.25677 25.738289,157.64679 C26.092108,158.46877 25.848717,157.72586 26.051977,158.1397 C26.178349,158.39699 26.292995,158.65988 26.413506,158.91998 L26.413506,158.91998" /></defs><use xlink:href="#DRAW_12096" fill="none" stroke="#000000" stroke-width="0mm" /><text style="fill:#000000; font-size:0.6mm; letter-spacing:2;"><textPath xlink:href="#DRAW_12096">⊥⊥⊥⊥⊥⊥⊥⊥⊥⊥⊥⊥⊥⊥⊥⊥⊥⊥⊥⊥⊥⊥⊥⊥⊥⊥⊥⊥⊥⊥⊥⊥</textPath></text><path fill="none" stroke="#000000" stroke-width="0.06mm" d="M28.69369,159.99792 C28.897148,159.96396 29.098751,159.9159 29.304066,159.89601 C29.419012,159.88487 29.537048,159.88313 29.650396,159.90524 C31.094007,160.18677 32.50467,160.67809 33.96991,160.80594 C35.47228,160.93701 36.987373,160.77426 38.492287,160.6767 C40.900963,160.52051 42.11933,159.9749 44.49463,160.43407 C46.70192,160.86076 48.872684,161.46884 51.02803,162.10812 C51.653183,162.29355 52.608505,162.7518 53.191586,163.23483 C53.770477,163.7144 54.30994,164.53183 54.538246,165.2503 C55.007275,166.72632 55.73793,168.3825 55.802315,170.0217 C55.809765,170.21132 55.79643,170.40294 55.762173,170.58958 C55.37451,172.70174 55.447037,171.85544 54.657215,174.12665 C54.583214,174.33943 54.551453,174.56464 54.498573,174.78363 L54.498573,174.78363" /><path fill="none" stroke="#000000" stroke-width="0.06mm" d="M60.589615,155.44196 C61.652946,156.56708 62.71627,157.6922 63.779602,158.81732 C63.921734,158.99814 64.053154,159.18793 64.20599,159.35979 C64.46695,159.65321 64.74843,159.92772 65.01964,160.21169 L65.01964,160.21169" /><defs><path id="DRAW_12120"  d="M72.43737,171.06976 C70.877716,171.54156 69.585236,172.63197 68.593346,173.90034 C67.54627,175.2393 66.273926,179.3122 66.162186,179.63101 C66.01306,180.0565 65.828156,180.93002 65.89372,181.47049 C65.98782,182.24625 66.1787,182.81325 66.38986,183.55554 L66.38986,183.55554" /></defs><use xlink:href="#DRAW_12120" fill="none" stroke="#000000" stroke-width="0mm" /><text style="fill:#000000; font-size:0.6mm; letter-spacing:2;"><textPath xlink:href="#DRAW_12120">⊥⊥⊥⊥⊥⊥⊥⊥⊥⊥⊥⊥⊥⊥⊥⊥⊥⊥⊥⊥⊥⊥⊥⊥⊥⊥⊥⊥⊥⊥⊥⊥⊥⊥⊥⊥⊥⊥⊥⊥⊥⊥⊥⊥⊥⊥</textPath></text><path fill="none" stroke="#000000" stroke-width="0.06mm" d="M54.57316,173.33351 C55.099037,175.36865 55.535744,176.81645 56.86928,178.40479 C57.234287,178.83954 57.565357,179.05629 58.050552,179.34499 C59.577946,180.25381 61.077015,181.21481 62.649986,182.04227 C64.06433,182.78627 65.36535,183.05266 66.773186,182.18068 L66.773186,182.18068" /><path fill="none" stroke="#000000" stroke-width="0.06mm" d="M64.366844,158.88397 C65.37497,159.90219 66.51967,160.8013 67.391235,161.9386 C68.31682,163.14642 68.96529,164.54372 69.71769,165.86636 C70.69525,167.58482 70.530426,167.38455 71.14522,168.80214 C72.27217,171.40068 71.83342,170.10013 72.439545,172.1926 L72.439545,172.1926" /><path fill="none" stroke="#000000" stroke-width="0.06mm" d="M67.25709,181.61214 C67.47145,181.57701 67.68402,181.5284 67.90016,181.50677 C68.06116,181.49066 68.45136,181.57802 68.55046,181.63449 C69.907776,182.40793 71.2674,183.18227 72.568695,184.04666 C73.01169,184.34091 73.38994,184.72493 73.76723,185.09975 C74.321945,185.65083 74.46394,186.09488 74.95959,186.72226 C75.14459,186.95645 75.36978,187.15585 75.574875,187.37265 L75.574875,187.37265" /><path fill="none" stroke="#000000" stroke-width="0.06mm" d="M74.17424,174.34537 C77.63774,176.61917 76.74723,176.38583 78.83115,177.21495 C79.60127,177.52136 80.39346,177.7758 81.14514,178.12505 C81.438126,178.26117 81.68204,178.48453 81.950485,178.66426 L81.950485,178.66426" /><path fill="none" stroke="#000000" stroke-width="0.06mm" d="M73.25983,172.42328 L73.26836,172.44542" /><path fill="none" stroke="#000000" stroke-width="0.06mm" d="M73.43608,172.95181 C75.8636,175.83241 74.25431,174.01384 78.47563,178.21208 L78.47563,178.21208" /><path fill="none" stroke="#000000" stroke-width="0.06mm" d="M80.633896,177.94066 C81.83423,177.78511 82.40715,177.91371 83.558525,178.37144 C83.74046,178.44379 83.92102,178.53171 84.0725,178.65576 C84.70579,179.17441 85.27934,179.76257 85.90364,180.292 C86.35125,180.6716 86.86469,180.97371 87.28673,181.38156 C88.93298,182.97246 89.55342,183.48822 90.15724,185.40727 C90.35339,186.0307 90.31409,186.80156 90.1225,187.42046 C89.8752,188.21933 89.44881,188.66003 88.91551,189.31587 L88.91551,189.31587" /><path fill="none" stroke="#000000" stroke-width="0.06mm" d="M82.2729,199.14366 C83.06694,198.01198 83.854,196.6111 83.32861,195.1826 C82.87854,193.95886 80.76047,193.03128 79.63894,193.85289 C78.89148,194.40047 78.46175,195.47334 78.397064,196.3703 C78.19661,199.15038 78.470955,200.12816 79.20773,203.10997 C79.34243,203.65512 79.94236,205.39209 80.77063,205.46817 C81.090416,205.49754 81.427315,205.20447 81.579834,204.95488 C83.266594,202.19472 83.03471,201.2074 82.980965,197.99313 L82.980965,197.99313" /><path fill="none" stroke="#000000" stroke-width="0.06mm" d="M75.944595,187.59409 C73.609726,199.41191 78.16637,177.00572 73.14902,197.64708 C72.68645,199.55011 72.96275,201.63437 73.09025,203.54665 L73.09025,203.54665" /><path fill="none" stroke="#000000" stroke-width="0.06mm" d="M76.94413,151.4985 L76.9973,151.49869" /><path fill="none" stroke="#000000" stroke-width="0.06mm" d="M90.27131,189.08865 C90.15834,193.19656 90.3336,194.6358 89.652695,198.24512 C89.474976,199.1872 89.29056,200.13655 88.96077,201.03674 C87.79738,204.21237 86.54973,207.35983 85.180595,210.45235 C85.04914,210.74927 84.13978,212.8681 83.20064,213.39682 C82.473076,213.80643 81.75169,213.68285 81.00644,213.363 C80.84947,213.29565 80.69592,213.21523 80.55936,213.11264 C79.06911,211.993 77.89319,211.15099 76.76547,209.68765 C75.56912,208.13527 74.827255,206.5833 74.16571,204.7292 C73.859,203.86958 73.733635,201.64606 73.6598,201.00879 C73.647,200.89835 73.62291,200.78793 73.58276,200.68425 C73.38704,200.17886 73.163284,199.68478 72.953545,199.18504 L72.953545,199.18504" /><path fill="none" stroke="#000000" stroke-width="0.06mm" stroke-dasharray="0.3mm,0.1mm" d="M73.82449,193.20012 L73.90415,193.19136" /><path fill="none" stroke="#000000" stroke-width="0.06mm" stroke-dasharray="0.3mm,0.1mm" d="M74.02705,193.09885 C74.6429,192.19632 75.30475,191.3235 75.8746,190.39124 C76.42094,189.49748 77.063385,187.7235 77.24764,186.79683 C78.03005,182.86198 77.26438,178.66093 75.961365,174.92133 L75.961365,174.92133" /><path fill="none" stroke="#000000" stroke-width="0.06mm" d="M76.406975,175.88336 C75.950615,172.82755 75.92778,171.77174 74.35762,169.53929 C74.21689,169.3392 74.049805,169.15506 73.86278,168.99739 C73.6999,168.86008 73.49968,168.77446 73.31813,168.66298 L73.31813,168.66298" /><path fill="none" stroke="#000000" stroke-width="0.06mm" d="M74.10446,169.36055 C73.88385,165.55998 74.0737,167.95787 73.31749,162.18715 L73.31749,162.18715" /><path fill="none" stroke="#000000" stroke-width="0.06mm" d="M89.38383,183.25839 C88.84248,182.35994 88.33754,181.4385 87.759796,180.563 C86.98022,179.38168 86.02246,178.3173 85.31439,177.09178 C83.72383,174.33888 82.589005,172.00386 81.69383,169.10202 C81.354065,168.0006 80.98938,166.9011 80.773254,165.76889 C80.40424,163.83575 80.17137,161.87822 79.94177,159.92361 C79.90184,159.58356 79.9209,159.23613 79.96606,158.89674 C80.12637,157.69199 80.49333,156.79681 81.1028,155.70322 C82.60417,153.00923 84.17265,150.35272 85.76011,147.70854 C86.84755,145.89722 88.146355,144.20999 89.126465,142.33842 C96.451454,128.35085 90.51132,138.25842 92.27156,135.33386 L92.27156,135.33386" /><path fill="none" stroke="#000000" stroke-width="0.06mm" d="M72.04408,160.38039 C76.985825,153.9245 75.29422,156.34758 81.26079,140.34404 C81.397156,139.97829 83.50958,132.63101 83.44843,129.63947 C83.43291,128.88011 83.294846,128.12823 83.21805,127.37263 L83.21805,127.37263" /><path fill="none" stroke="#000000" stroke-width="0.06mm" d="M92.64667,135.71942 C93.27048,133.23126 92.736626,131.51776 92.24827,128.98508 L92.24827,128.98508" /><path fill="none" stroke="#000000" stroke-width="0.06mm" d="M92.15273,98.99339 C91.80921,100.91945 91.69862,102.901955 91.12218,104.77157 C90.21908,107.70068 88.67174,110.402016 87.73534,113.320656 C86.78911,116.26992 86.324745,119.354675 85.48672,122.336494 C85.24208,123.20692 84.82373,124.01887 84.49223,124.86006 C83.960266,127.177704 83.4283,129.49536 82.89633,131.81302 L82.89633,131.81302" /><path fill="none" stroke="#000000" stroke-width="0.06mm" d="M93.68471,130.90479 C94.14952,126.12915 94.61432,121.35352 95.07913,116.57788 C95.29356,115.09419 95.55481,113.616516 95.722404,112.126816 C95.85437,110.95392 95.72177,109.74741 95.97724,108.595085 C96.65958,105.517395 97.66926,102.52153 98.52462,99.48737 C98.738785,98.727715 98.91327,99.000336 98.17922,98.707016 L98.17922,98.707016" /><path fill="none" stroke="#000000" stroke-width="0.06mm" d="M92.98814,99.27812 C93.49562,97.8466 94.19026,96.46822 94.510605,94.98358 C97.911934,79.21979 96.35674,77.20173 102.412605,64.0376 C108.32675,51.18152 106.52056,59.218567 109.30733,50.852875 C110.04913,48.626022 109.48777,45.093155 109.30326,42.84247 L109.30326,42.84247" /><path fill="none" stroke="#000000" stroke-width="0.06mm" d="M99.68492,99.96104 C111.4871,70.05495 96.12783,110.31336 110.45724,65.70461 C111.47253,62.543945 113.330574,59.71045 114.5099,56.607254 C117.049385,49.925095 116.58489,47.436356 116.75928,39.52008 C116.77834,38.65445 116.60126,37.24991 116.04895,36.48015 C115.155945,35.23552 113.372635,34.746246 111.95921,34.381866 L111.95921,34.381866" /><path fill="none" stroke="#000000" stroke-width="0.06mm" d="M110.09965,33.432312 C95.57074,33.316498 94.77337,33.535736 76.23364,31.627151 C74.46332,31.4449 72.770035,30.807129 71.03822,30.397125 L71.03822,30.397125" /><defs><path id="DRAW_12186"  d="M114.975235,50.865723 C115.3416,49.755173 116.04513,48.25934 116.09444,46.931458 C116.13302,45.892456 115.76127,44.282944 115.0078,43.53134 C114.204384,42.72992 112.9186,43.157547 112.19829,43.84929 C109.85971,46.095078 109.5279,49.22238 109.15693,52.325363 C109.01984,53.47209 108.95486,56.072906 109.600845,57.22986 C109.86962,57.711243 110.405716,57.8696 110.92449,57.87079 C113.05847,57.875732 114.835976,54.894836 115.15928,53.135834 C115.6233,50.61122 115.45799,50.886032 115.14596,48.32373 L115.14596,48.32373" /></defs><use xlink:href="#DRAW_12186" fill="none" stroke="#000000" stroke-width="0.04mm" /><text style="fill:#000000; font-size:0.5mm; letter-spacing:2;"><textPath xlink:href="#DRAW_12186">|||||||||||||||||||||||||||||||||||||||||||||||||||||||||||||||||||||||||||||||||||||||||||||||||||||||||||||||||||||||||||||||||||||||||||||||||||||</textPath></text><path fill="none" stroke="#000000" stroke-width="0.06mm" d="M133.5479,54.488983 C126.25522,53.944366 129.1988,53.778778 124.70738,54.24237 L124.70738,54.24237" /><path fill="none" stroke="#000000" stroke-width="0.06mm" d="M127.91348,49.594727 C127.82127,54.57901 127.85664,59.180206 129.1466,63.879105 L129.1466,63.879105" /><path fill="none" stroke="#000000" stroke-width="0.06mm" d="M134.81897,65.37773 C132.18399,66.75628 129.33057,61.334732 126.549255,62.787445 C126.23104,62.953644 126.024284,63.246567 125.99083,63.60553 C125.924965,64.312225 126.42244,65.074295 126.68036,65.64331 L126.68036,65.64331" /><path fill="none" stroke="#000000" stroke-width="0.06mm" d="M130.03825,67.274734 C127.197235,66.11125 124.13206,65.65349 121.102875,66.136536 L121.102875,66.136536" /><path fill="none" stroke="#000000" stroke-width="0.06mm" d="M125.238556,69.152756 C125.672264,69.4079 126.105965,69.66303 126.53967,69.91816 C126.52497,69.99936 126.564445,70.11631 126.495575,70.16177 C126.33031,70.270874 126.117035,70.27949 125.92418,70.32445 C125.85037,70.34167 123.58991,70.56774 123.09693,71.16297 C122.59553,71.76838 123.58669,72.69846 123.987175,73.026985 C124.12399,73.11653 124.260796,73.20607 124.3976,73.295616 C124.536514,73.37272 124.689606,73.42851 124.81433,73.52692 C125.37288,73.96759 124.441315,74.519485 124.30082,74.9137 C124.141495,75.36074 124.374275,75.67652 124.50993,76.085915 C124.6912,76.632904 124.21606,77.053246 123.83162,77.34245 C123.07241,77.91361 122.303345,78.471565 121.53921,79.03612 L121.53921,79.03612" /><path fill="none" stroke="#000000" stroke-width="0.06mm" d="M125.712845,88.80565 C125.947914,88.22695 126.54251,87.376625 126.166794,86.68657 C125.99401,86.36923 125.681816,86.16515 125.36839,86.00664 C124.60587,85.62097 123.90399,86.166985 123.594215,86.8664 C123.36225,87.39013 123.40199,87.99333 123.61479,88.51733 C124.17714,89.90204 125.33374,90.80034 126.852875,90.335655 C127.21714,90.22424 127.55551,89.97771 127.79377,89.683624 C128.11122,89.291794 128.52988,88.298256 128.63438,88.084785 L128.63438,88.084785" /><path fill="none" stroke="#000000" stroke-width="0.06mm" d="M134.11703,91.84084 C131.50922,90.93793 129.8511,90.10119 127.23013,89.89658 C126.00709,89.80112 124.77681,89.86487 123.55014,89.849 L123.55014,89.849" /><path fill="none" stroke="#000000" stroke-width="0.06mm" d="M126.14918,93.35843 C125.80503,94.91531 125.8221,95.3437 127.32509,94.55138 C127.50552,94.45625 128.04008,94.148895 127.87105,93.833176 C127.82575,93.74858 127.74387,93.68524 127.66183,93.6355 C127.37623,93.46233 127.070755,93.324326 126.77522,93.16874 L126.77522,93.16874" /><path fill="none" stroke="#000000" stroke-width="0.06mm" d="M126.81316,107.47209 C127.908615,106.77207 128.3634,106.45182 127.96726,105.12171 C127.82295,104.637146 127.57055,104.09785 127.098694,103.850365 C126.61583,103.59713 125.932144,103.66869 125.96983,104.34462 C126.002945,104.93847 126.28209,105.557846 126.630066,106.03346 C126.7933,106.25655 127.006195,106.47162 127.24519,106.61712 C127.35706,106.68522 127.4786,106.73614 127.59755,106.79092 C127.666504,106.82268 127.8796,106.9034 127.80858,106.87659 C126.24252,106.28551 125.50206,105.82394 124.02687,105.6568 C123.91165,105.64374 120.47124,105.89273 119.93831,104.736786 C119.731384,104.28798 119.8512,103.39014 119.91458,103.06439 C120.12258,101.99521 120.39435,100.93859 120.68443,99.8887 C120.76585,99.59403 121.112076,99.61115 121.31699,99.718575 C121.42895,99.77725 121.54676,99.83924 121.62706,99.93687 C122.49626,100.99369 123.39577,102.032715 124.156006,103.17043 C124.96416,104.37987 125.59862,105.69674 126.31992,106.9599 L126.31992,106.9599" /><path fill="none" stroke="#000000" stroke-width="0.06mm" d="M129.79163,113.10617 C129.81625,112.17665 129.70686,110.76008 128.82782,112.10649 C128.71875,112.273575 128.63712,112.49264 128.82098,112.65174 C128.9132,112.73153 129.03506,112.77696 129.15433,112.8024 C129.5708,112.89125 129.99655,112.92903 130.41766,112.99235 L130.41766,112.99235" /><path fill="none" stroke="#000000" stroke-width="0.06mm" d="M135.02763,113.92188 L132.5614,113.29587" /><path fill="none" stroke="#000000" stroke-width="0.06mm" d="M126.87008,114.20642 C125.85332,114.65466 124.996124,115.00821 126.20505,115.80587 C126.645164,116.09627 127.00036,116.28665 127.50623,116.41108 C128.1965,116.58086 129.2377,116.26461 129.72833,116.92081 C130.23303,117.59584 130.03717,119.23929 130.01927,120.12506 L130.01927,120.12506" /><path fill="none" stroke="#000000" stroke-width="0.06mm" d="M130.94885,122.97054 C130.42586,122.43328 130.1834,122.00199 129.57701,121.71622 C128.84186,121.36975 128.13135,122.10791 127.23508,121.962685 C126.31685,121.8139 125.95549,121.44534 124.933105,121.118805 C124.525604,120.988655 124.10036,120.90924 123.67464,120.86737 C122.51909,120.75372 121.355446,120.743866 120.197876,120.6531 C120.10889,120.64612 120.02385,120.60992 119.94184,120.574684 C119.021576,120.17941 119.1658,118.78229 119.240616,118.03221 C119.243965,117.99867 119.36562,117.002884 119.58894,116.768906 C119.96242,116.3776 120.383224,116.034386 120.780365,115.66712 L120.780365,115.66712" /><path fill="none" stroke="#000000" stroke-width="0.06mm" d="M133.85144,121.33915 C132.02866,121.89839 130.4436,118.480934 128.44041,119.093994 C127.75913,119.3025 127.11519,119.9386 126.62344,120.295784 L126.62344,120.295784" /><path fill="none" stroke="#000000" stroke-width="0.06mm" d="M136.09003,136.66687 C136.30414,135.85956 136.56058,135.28174 136.51859,134.4789 C136.4407,132.99036 135.78555,131.46715 134.19597,131.16467 C133.9267,131.11343 133.44211,131.0859 133.17303,131.15952 C132.41049,131.3681 131.02151,132.142 129.92412,132.034 C128.74545,131.91798 128.20155,130.42853 128.5591,129.4289 C128.80716,128.73537 129.12784,128.07 129.4122,127.39055 L129.4122,127.39055" /><path fill="none" stroke="#000000" stroke-width="0.06mm" d="M144.70288,134.29562 C138.31096,134.72447 142.38516,134.74036 132.5614,132.89185 L132.5614,132.89185" /><path fill="none" stroke="#000000" stroke-width="0.06mm" d="M134.55336,135.98395 C132.64249,135.95068 131.0846,136.0458 130.62776,138.15247 C130.32455,139.55067 131.27206,140.70221 132.20671,141.62187 C132.43774,141.8492 133.09647,142.3869 133.50476,142.5259 C133.89604,142.65909 134.29669,142.77013 134.70361,142.84265 C135.0447,142.90341 135.88766,143.08571 136.2399,142.71147 C136.69688,142.22594 136.32117,141.25447 136.02293,140.80464 C134.6527,138.73773 131.55559,136.71404 129.30661,136.0479 C128.4972,135.80815 126.757256,135.71962 126.3745,136.74011 C125.91561,137.9636 126.42915,139.69354 126.919106,140.84346 C127.14865,141.38219 127.4429,141.89099 127.7048,142.41476 L127.7048,142.41476" /><path fill="none" stroke="#000000" stroke-width="0.06mm" d="M134.76205,145.03261 C130.33376,143.64368 125.90939,142.24208 121.47714,140.86581 C121.42909,140.85089 121.56198,140.91992 121.604416,140.94699 C122.760864,141.42235 123.86631,142.04845 125.07378,142.37305 C128.00488,143.16103 131.0281,143.5622 133.97873,144.2736 C134.46721,144.39139 138.03302,145.64557 136.98279,146.68546 C136.70811,146.95741 136.21527,147.17871 135.89929,147.30206 C132.9479,148.45432 131.40936,144.75671 129.9797,142.97311 C129.56981,142.4617 129.15732,143.21942 129.06729,143.53607 C128.81195,144.43425 128.51324,145.32642 128.36922,146.24901 C127.979095,148.74785 128.2172,151.34775 129.09007,153.71844 C129.36996,154.47864 129.93097,155.53357 130.70818,155.91891 C131.172,156.14888 131.76132,156.05176 132.21602,155.85234 C133.88165,155.12186 134.71991,154.12804 133.77626,152.36125 C132.8764,150.67645 131.5373,149.5733 129.9136,148.58078 C128.45425,147.68872 126.20168,146.4719 124.78833,148.08371 C124.40771,148.51778 124.11825,148.9531 123.90576,149.48933 C122.97391,151.84111 124.43773,154.55652 125.181656,156.66122 L125.181656,156.66122" /><path fill="none" stroke="#000000" stroke-width="0.06mm" d="M117.42249,53.50255 C112.072815,51.493134 115.08431,52.34659 108.2974,51.28305 L108.2974,51.28305" /><path fill="none" stroke="#000000" stroke-width="0.06mm" d="M112.945305,48.039185 C112.849014,56.075638 112.407616,53.266052 112.98326,56.57567 L112.98326,56.57567" /><path fill="none" stroke="#000000" stroke-width="0.06mm" d="M155.57452,-9.426849 C156.24632,-9.428497 157.36372,-9.631531 157.71582,-8.817032 C157.77621,-8.677322 157.89992,-8.103485 157.95547,-8.0546875 C158.22157,-7.820984 158.32817,-8.53595 158.31065,-8.501373 C157.96135,-7.8116913 157.53946,-7.1439667 157.32898,-6.400055 C157.2822,-6.2347107 157.6326,-6.5611267 157.78442,-6.6416473 C159.38974,-8.217957 160.93837,-9.854172 162.60039,-11.370575 C163.23566,-11.95018 164.83444,-12.6263275 165.51376,-12.9496155 L165.51376,-12.9496155" /><path fill="none" stroke="#000000" stroke-width="0.06mm" d="M173.18837,-9.8042755 L173.18585,-10.0533905" /><path fill="none" stroke="#000000" stroke-width="0.06mm" d="M106.24863,42.169342 C91.82703,40.290268 105.612564,41.823853 90.21727,40.945053 C86.44204,40.729538 81.81918,39.26967 78.2676,41.56285 C75.41165,43.40689 72.908714,47.114777 71.20156,49.365677 C69.30615,51.864777 69.353294,51.255615 69.74492,52.958984 L69.74492,52.958984" /><path fill="none" stroke="#000000" stroke-width="0.06mm" d="M71.184875,50.079254 C70.41513,50.571533 70.0281,50.93422 69.215935,51.16658 C67.7128,51.59659 65.98109,51.22769 64.789246,50.208145 C63.921787,49.466095 62.63896,48.387238 62.594467,47.07106 C62.541786,45.512634 62.805172,43.929916 62.53936,42.393433 C61.969532,39.09964 61.055305,35.86992 60.102383,32.66591 C58.5878,27.57344 58.436802,30.549316 58.01095,25.96045 C57.77623,23.431183 58.109623,20.790009 60.42476,19.33899 C62.158886,18.252075 66.85766,18.434464 67.41008,18.424744 C68.490265,18.405777 69.574776,18.52092 70.638664,18.708801 C71.72921,18.901337 72.772446,19.304398 73.84953,19.561798 C74.38874,19.690659 75.91528,19.550201 76.08445,19.542847 L76.08445,19.542847" /><defs><path id="DRAW_12221"  d="M73.50376,37.943237 C73.66552,37.253586 73.884476,36.574875 73.98904,35.874252 C74.43616,32.878265 72.67842,28.259369 71.69088,25.768188 C71.256294,24.67189 69.67823,21.697495 68.169174,21.407822 C67.22764,21.227112 66.16896,21.745972 65.420525,22.257843 C62.519974,24.2415 62.47301,28.20346 62.368484,31.32254 C62.331993,32.41147 62.39843,33.51712 62.637917,34.580017 C63.256447,37.325134 64.10681,40.01393 64.93292,42.703873 C64.96506,42.808533 65.40901,44.788498 66.150734,45.16635 C67.03674,45.617706 68.338234,44.74524 68.745476,43.986435 C70.3949,40.913147 72.04596,37.838898 73.57963,34.706238 C74.17746,33.485107 74.537895,32.127853 74.06761,30.821426 C73.9906,30.607483 73.922966,30.376007 73.7703,30.20752 C73.13521,29.5065 72.40823,28.894608 71.727196,28.23816 L71.727196,28.23816" /></defs><use xlink:href="#DRAW_12221" fill="none" stroke="#000000" stroke-width="0.04mm" /><text style="fill:#000000; font-size:0.5mm; letter-spacing:2;"><textPath xlink:href="#DRAW_12221">|||||||||||||||||||||||||||||||||||||||||||||||||||||||||||||||||||||||||||||||||||||||||||||||||||||||||||||||||||||||||||||||||||||||||||||||||||||||||||||||||||||||||||||||||||||||||||||||||||||||||||||||||||||||||||||||||||||||||||||||||||||||||||||||||||||||</textPath></text><path fill="none" stroke="#000000" stroke-width="0.06mm" stroke-dasharray="0.3mm,0.1mm" d="M68.90339,44.618988 C69.1904,44.22563 69.44297,43.804657 69.76442,43.43889 C71.00041,42.03247 74.38896,40.47667 75.15323,40.11676 C78.85878,38.371735 82.6381,36.78517 86.425545,35.225845 C86.8144,35.06575 87.24118,35.00087 87.66037,34.967438 C89.250626,34.84059 90.85491,34.915787 92.441154,34.746002 C93.89076,34.590836 95.83507,34.16275 97.06273,33.208817 C97.74496,32.678726 98.00724,32.22464 98.56266,31.510574 L98.56266,31.510574" /><path fill="none" stroke="#000000" stroke-width="0.06mm" d="M78.36592,20.982712 C83.51611,19.875214 84.032745,19.238861 88.813095,20.772812 C91.499504,21.634842 94.102234,22.738647 96.74938,23.7146 C96.866234,23.75766 97.00537,23.754776 97.1048,23.829773 C97.622505,24.220322 98.08917,24.674332 98.58135,25.096619 L98.58135,25.096619" /><path fill="none" stroke="#000000" stroke-width="0.06mm" d="M82.592285,20.683533 C80.554855,20.029724 78.418625,19.676971 76.29274,20.092407 C75.81442,20.185867 75.35599,20.361832 74.8876,20.496521 L74.8876,20.496521" /><path fill="none" stroke="#000000" stroke-width="0.06mm" d="M114.533035,13.259781 C115.042755,13.187195 115.54907,13.084412 116.06218,13.042023 C117.381226,12.93306 118.48204,14.317215 119.07247,15.288605 C119.75892,16.417953 120.09834,17.739319 120.139984,19.053009 C120.191696,20.683609 118.89173,22.216309 117.19339,21.946594 C116.89709,21.899536 116.48972,21.758163 116.24558,21.579712 C114.81495,20.533936 113.511475,19.305939 112.00292,18.376114 C110.997635,17.756454 109.83732,17.433578 108.75452,16.96231 L108.75452,16.96231" /><path fill="none" stroke="#000000" stroke-width="0.06mm" d="M105.070496,17.336304 C104.04743,16.02658 104.70795,16.63269 102.95731,15.672028 L102.95731,15.672028" /><path fill="none" stroke="#000000" stroke-width="0.06mm" d="M72.045105,5.53685 C58.70811,-0.7479248 70.75224,4.525055 37.31169,-1.5431824 C36.480545,-1.6940155 35.695152,-2.0341187 34.886883,-2.2795715 L34.886883,-2.2795715" /><path fill="none" stroke="#000000" stroke-width="0.06mm" d="M76.12184,4.2652893 C73.496635,2.856903 70.87143,1.4485321 68.246216,0.040145874 C68.19987,0.023895264 68.155914,-0.0026397705 68.10716,-0.008575439 C68.09218,-0.010375977 68.12611,0.014923096 68.135574,0.026672363 C72.5446,2.686615 76.98343,5.29776 81.36267,8.006454 C81.63602,8.175522 82.89111,8.941818 81.99727,9.263321 C81.79135,9.337402 81.58269,9.43013 81.36394,9.436188 C76.906105,9.559448 72.446014,9.579254 67.98705,9.650772 L67.98705,9.650772" /><path fill="none" stroke="#000000" stroke-width="0.06mm" d="M30.492218,-3.5698395 L13.923424,-4.542221" /><path fill="none" stroke="#000000" stroke-width="0.06mm" d="M20.655659,0.9180603 C12.601145,-6.333008 15.343109,-3.2961426 11.716734,-7.49675 L11.716734,-7.49675" /><path fill="none" stroke="#000000" stroke-width="0.06mm" d="M22.114304,0.637558 C20.796999,1.3108826 18.100422,2.4211578 16.645987,3.6795502 C15.669171,4.524704 14.818956,5.584137 14.920235,6.933853 C14.957688,7.433014 15.097798,7.9080353 15.419182,8.298294 C16.628239,9.766434 19.96943,10.742462 21.711325,10.876556 C26.259615,11.226654 27.939463,11.222168 31.933125,10.357178 C32.04792,10.332306 34.92655,9.778137 34.55068,8.765686 C34.373913,8.289551 33.173264,7.460388 33.110302,7.4067993 L33.110302,7.4067993" /><path fill="none" stroke="#000000" stroke-width="0.06mm" d="M21.759003,18.60785 C21.9367,18.312256 22.942274,17.641266 23.029713,16.985825 C23.121836,16.295258 22.687572,15.540222 22.247047,15.056198 C21.053291,13.744537 20.374044,13.016556 19.0291,12.155334 C17.628237,11.258301 14.770025,11.922546 14.951624,13.957718 C15.166928,16.370636 16.396318,17.6091 18.633589,18.468811 C20.206675,19.073288 21.481956,19.211273 23.216114,19.224655 C23.961578,19.230408 24.705133,19.130157 25.44452,19.034988 C25.579062,19.01767 25.729147,18.98555 25.824354,18.888916 C25.870094,18.842499 25.825756,18.740417 25.774796,18.699799 C25.636063,18.589203 25.464512,18.52266 25.295847,18.467606 C24.466988,18.197067 23.820818,18.024658 22.96082,18.032394 C21.740505,18.043365 20.729343,18.474152 19.601227,19.03238 C19.02141,19.319275 16.570591,20.693161 15.918115,21.57373 C15.42399,22.24057 15.111939,23.02475 14.70885,23.75026 L14.70885,23.75026" /><path fill="none" stroke="#000000" stroke-width="0.06mm" d="M21.665504,23.937256 C21.11232,24.03894 20.548206,24.092957 20.00595,24.24231 C18.726734,24.594727 17.525616,25.411316 16.615582,26.361145 C15.887451,27.121124 15.560129,29.209839 16.822865,29.620071 C18.11166,30.038757 20.1836,28.799225 21.049774,28.31131 C21.745955,27.919128 22.361511,27.397491 23.037737,26.971848 C23.26537,26.828568 23.596375,26.834717 23.811325,26.995453 C24.117718,27.22461 24.299318,27.726044 24.337793,28.079834 C24.458437,29.189163 24.513601,30.304672 24.601505,31.417084 L24.601505,31.417084" /><path fill="none" stroke="#000000" stroke-width="0.06mm" d="M40.216568,36.428574 C35.35337,36.60875 30.490177,36.78891 25.62698,36.9691 C24.71778,37.107132 23.782658,37.127197 22.899378,37.38315 C22.022995,37.6371 21.22903,38.118042 20.393856,38.48552 L20.393856,38.48552" /><path fill="none" stroke="#000000" stroke-width="0.06mm" d="M28.266838,28.593445 C28.19972,36.956802 28.579414,32.540848 26.845596,41.81404 L26.845596,41.81404" /><path fill="none" stroke="#000000" stroke-width="0.06mm" d="M27.948921,43.964508 C25.585768,42.42015 24.445759,41.723907 21.679296,42.007156 C21.099823,42.066483 20.31693,42.24173 19.841238,42.633255 C18.4783,43.75502 18.446823,46.37793 19.479977,47.722443 C20.322945,48.819458 21.945757,49.21176 23.259176,49.184418 C25.036352,49.14743 27.329226,47.4946 28.316622,46.124786 C29.24291,44.83972 28.967112,42.7594 27.3047,42.259262 C25.569899,41.737335 23.407906,42.289627 21.740292,42.505936 L21.740292,42.505936" /><path fill="none" stroke="#000000" stroke-width="0.06mm" d="M-0.3264923,14.213455 C1.0286865,15.056732 2.4266224,15.834915 3.7390423,16.743317 C4.3723755,17.276367 5.0057087,17.809464 5.639042,18.342545 C5.655323,18.41037 5.7393417,18.498932 5.6878853,18.546036 C5.6111774,18.616241 5.4787884,18.606903 5.377941,18.581543 C2.9507122,17.970795 -1.4177322,16.306046 -4.7112045,16.185608 C-5.2814407,16.164734 -4.937752,17.05011 -4.8283386,17.244598 C-4.597988,17.654114 -4.3572083,18.059235 -4.085148,18.442291 C-3.1648655,19.738037 -2.3252296,19.419449 -3.0501938,21.067963 C-3.2131882,21.438599 -3.429802,21.789886 -3.5399055,22.17952 C-3.9789104,23.733017 -4.519764,26.12436 -4.060238,27.78386 C-3.801777,28.71724 -2.8372688,31.936234 -1.7618465,32.592896 C-0.30513382,33.48236 1.0196285,31.240936 1.5441227,30.37349 C2.1505585,29.292358 2.7569942,28.211243 3.36343,27.130127 C3.4267235,27.148193 3.5069733,27.137573 3.5533123,27.184326 C3.64353,27.275345 3.7209167,27.391098 3.746601,27.516663 C4.243023,29.94336 4.659134,32.385834 5.115402,34.820404 L5.115402,34.820404" /><path fill="none" stroke="#000000" stroke-width="0.06mm" d="M5.2089005,38.953003 C1.7569904,38.552612 -0.3255005,37.629807 -3.2677155,39.015045 C-4.322403,39.511612 -4.7151566,40.32953 -4.8412857,41.462814 C-4.947792,42.4198 -4.5414658,43.181747 -3.6317024,43.518982 C-1.0109177,44.490417 5.0392323,40.103287 5.048107,40.91873 C5.049343,41.032333 4.9760246,41.13855 4.90765,41.229294 C4.407669,41.89276 3.8244972,42.49283 3.348711,43.17386 C2.748232,44.033386 2.3752327,45.143295 1.9923859,46.096252 L1.9923859,46.096252" /><path fill="none" stroke="#000000" stroke-width="0.06mm" d="M6.0691338,54.97856 C6.0617924,54.47412 6.088745,53.968018 6.0471134,53.46527 C5.9453373,52.236176 5.074053,50.940536 4.144066,50.176636 C3.356659,49.529846 1.6069126,48.57773 0.5279083,48.884583 C-0.3331089,49.129425 -0.91762733,50.29831 -1.2383423,50.974625 C-2.3674145,53.355606 -2.627306,54.765854 -0.9639778,56.891083 C-0.7909012,57.112244 -0.5867424,57.319183 -0.32725143,57.436127 C0.93416214,58.00464 3.1470528,56.90416 3.8826542,55.858658 C4.21809,55.381912 4.5261383,54.50363 4.634062,54.044495 C4.892664,52.944336 5.0610847,51.527695 4.7259445,50.41017 C4.592161,49.964096 4.424568,49.528854 4.27388,49.08818 L4.27388,49.08818" /><path fill="none" stroke="#000000" stroke-width="0.06mm" d="M17.15863,54.43628 C15.441002,53.577118 16.35395,53.977432 14.409644,53.25821 L14.409644,53.25821" /><path fill="none" stroke="#000000" stroke-width="0.06mm" d="M8.331915,67.43247 C9.09671,66.64115 10.202185,65.58435 9.639875,64.34981 C9.260363,63.516586 8.638691,62.880203 7.956852,62.251266 C7.203684,61.55652 6.3931656,60.924423 5.5705166,60.313553 C4.099291,59.22107 2.7220383,59.156586 1.3862591,60.450455 C-0.35630035,62.13832 0.8375797,65.55411 2.5642738,66.805756 C2.767685,66.9532 2.9897785,67.0742 3.2132034,67.189095 C3.564413,67.36969 4.3976936,67.31234 4.2862988,67.69123 C4.172407,68.078606 3.4787655,67.638565 3.0754452,67.65765 C1.1030731,67.751 0.44093132,69.24548 -0.5695858,70.7423 L-0.5695858,70.7423" /><path fill="none" stroke="#000000" stroke-width="0.06mm" d="M6.817177,71.565094 L5.751236,69.938225" /><path fill="none" stroke="#000000" stroke-width="0.06mm" d="M7.696102,79.587204 C7.818823,78.78966 8.145105,77.87586 7.36903,77.35369 C6.917179,77.049675 6.378248,76.87378 5.8468704,76.77986 C5.100998,76.648026 3.3234978,76.24429 2.4328194,76.76558 C1.493185,77.315506 1.2995586,78.66019 1.0199623,79.549805 L1.0199623,79.549805" /><path fill="none" stroke="#000000" stroke-width="0.06mm" d="M18.654697,78.87662 C18.42005,78.50249 18.206684,78.11411 17.950752,77.754196 C17.595348,77.25438 16.719336,76.80259 16.168081,76.687775 C14.179441,76.273544 12.165755,75.99032 10.164591,75.64159 L10.164591,75.64159" /><path fill="none" stroke="#000000" stroke-width="0.06mm" d="M15.86829,93.275314 L14.425819,93.57701" /><path fill="none" stroke="#000000" stroke-width="0.06mm" d="M6.3122444,88.319916 L5.5617027,89.18262" /><path fill="none" stroke="#000000" stroke-width="0.06mm" d="M28.566044,90.45166 C25.257114,93.44087 22.046936,96.54316 18.639254,99.41928 C17.612608,100.28578 16.481289,101.040924 15.28814,101.658356 C14.098387,102.27403 12.822233,102.72438 11.53507,103.09557 C11.067553,103.230385 6.008936,104.704765 4.6631737,104.08556 C2.284315,102.99102 1.9341202,98.99317 1.5473709,97.06725 C-0.39139938,87.41268 2.1996021,89.96958 -0.86880875,87.25404 L-0.86880875,87.25404" /><path fill="none" stroke="#000000" stroke-width="0.06mm" d="M33.846348,137.80205 L33.519367,144.41646" /><path fill="none" stroke="#000000" stroke-width="0.06mm" d="M33.23697,138.84253 C33.283543,138.46036 33.226345,137.91011 33.548687,137.59883 C33.74412,137.4101 34.033592,137.33347 34.295486,137.31122 C35.194252,137.2349 36.239937,137.64645 36.631416,138.51166 C37.11859,139.58835 36.44841,140.31165 35.52471,140.78728 C34.407787,141.3624 33.77044,141.38608 32.41951,141.69638 L32.41951,141.69638" /><path fill="none" stroke="#000000" stroke-width="0.06mm" d="M66.55978,188.90395 C65.49182,191.31989 64.93248,193.90901 64.7019,196.54398 L64.7019,196.54398" /><path fill="none" stroke="#000000" stroke-width="0.06mm" d="M65.965256,188.69585 C66.36903,188.69357 66.9996,188.53499 67.40455,188.80998 C67.58115,188.9299 67.70489,189.12843 67.758705,189.33284 C67.95439,190.0761 67.5012,190.58472 66.84563,190.89366 C66.14032,191.22604 65.5831,191.06902 64.8208,190.95517 L64.8208,190.95517" /><path fill="none" stroke="#000000" stroke-width="0.06mm" d="M70.899765,190.53896 C70.50362,190.56458 70.10535,190.56754 69.71131,190.61581 C68.79703,190.72783 68.144844,191.80325 67.761986,192.4688 C67.27968,193.30722 66.147095,195.52048 67.55844,196.17914 C67.80533,196.29436 68.11367,196.38089 68.38997,196.3348 C68.78493,196.2689 69.28828,195.59224 69.05373,195.20938 C68.98365,195.09499 68.67464,195.03654 68.586914,195.1385 C68.269226,195.50775 68.0579,195.95657 67.793396,196.3656 L67.793396,196.3656" /><path fill="none" stroke="#000000" stroke-width="0.06mm" d="M42.18365,137.83545 C40.861496,137.83913 39.322224,138.06723 38.489574,139.23814 C37.927803,140.02814 37.737007,140.69397 37.438026,141.68929 C37.15202,142.64142 37.242916,143.76668 37.718,144.64491 C38.328846,145.77412 39.72008,147.10928 41.079056,146.30945 C41.48526,146.07037 42.540474,145.5245 42.88858,144.95952 C43.57167,143.85081 41.818203,142.50017 40.769855,142.7168 C38.859795,143.11148 39.42298,142.7744 38.423313,144.03368 L38.423313,144.03368" /></g>
<g>
<line fill="none" stroke="#5674b9" stroke-width="0.05mm" stroke-dasharray="0.4,0.2" opacity="0.77" x1="28.00" y1="192.00" x2="20.38" y2="168.41" />
<line fill="none" stroke="#5674b9" stroke-width="0.05mm" stroke-dasharray="0.4,0.2" opacity="0.78" x1="28.00" y1="192.00" x2="27.56" y2="170.86" />
<line fill="none" stroke="#5674b9" stroke-width="0.05mm" stroke-dasharray="0.4,0.2" opacity="0.79" x1="28.00" y1="192.00" x2="20.16" y2="151.62" />
<line fill="none" stroke="#5674b9" stroke-width="0.05mm" stroke-dasharray="0.4,0.2" opacity="0.77" x1="28.00" y1="192.00" x2="25.87" y2="148.39" />
<line fill="none" stroke="#111111" stroke-width="0.05mm" x1="28.00" y1="192.00" x2="24.30" y2="149.98" />
<line fill="none" stroke="#5674b9" stroke-width="0.05mm" stroke-dasharray="0.4,0.2" opacity="0.47" x1="24.30" y1="149.98" x2="45.86" y2="158.27" />
<line fill="none" stroke="#5674b9" stroke-width="0.05mm" stroke-dasharray="0.4,0.2" opacity="0.29" x1="24.30" y1="149.98" x2="57.79" y2="159.78" />
<line fill="none" stroke="#5674b9" stroke-width="0.05mm" stroke-dasharray="0.4,0.2" opacity="0.29" x1="24.30" y1="149.98" x2="36.10" y2="154.27" />
<line fill="none" stroke="#5674b9" stroke-width="0.05mm" stroke-dasharray="0.4,0.2" opacity="0.46" x1="24.30" y1="149.98" x2="44.07" y2="160.05" />
<line fill="none" stroke="#111111" stroke-width="0.05mm" x1="24.30" y1="149.98" x2="63.23" y2="160.56" />
<line fill="none" stroke="#5674b9" stroke-width="0.05mm" stroke-dasharray="0.4,0.2" opacity="0.90" x1="63.23" y1="160.56" x2="55.52" y2="173.63" />
<line fill="none" stroke="#00aeef" stroke-width="0.05mm" stroke-dasharray="0.4,0.2" opacity="0.66" x1="63.23" y1="160.56" x2="53.86" y2="163.78" />
<line fill="none" stroke="#00aeef" stroke-width="0.05mm" stroke-dasharray="0.4,0.2" opacity="0.69" x1="63.23" y1="160.56" x2="65.32" y2="161.38" />
<line fill="none" stroke="#00aeef" stroke-width="0.05mm" stroke-dasharray="0.4,0.2" opacity="0.05" x1="63.23" y1="160.56" x2="61.62" y2="161.23" />
<line fill="none" stroke="#111111" stroke-width="0.05mm" x1="63.23" y1="160.56" x2="66.66" y2="179.15" />
<line fill="none" stroke="#5674b9" stroke-width="0.05mm" stroke-dasharray="0.4,0.2" opacity="0.24" x1="66.66" y1="179.15" x2="68.81" y2="177.12" />
<line fill="none" stroke="#5674b9" stroke-width="0.05mm" stroke-dasharray="0.4,0.2" opacity="0.21" x1="66.66" y1="179.15" x2="65.81" y2="181.69" />
<line fill="none" stroke="#5674b9" stroke-width="0.05mm" stroke-dasharray="0.4,0.2" opacity="0.54" x1="66.66" y1="179.15" x2="72.44" y2="172.81" />
<line fill="none" stroke="#5674b9" stroke-width="0.05mm" stroke-dasharray="0.4,0.2" opacity="0.38" x1="66.66" y1="179.15" x2="72.48" y2="179.35" />
<line fill="none" stroke="#111111" stroke-width="0.05mm" x1="66.66" y1="179.15" x2="87.40" y2="184.47" />
<line fill="none" stroke="#00aeef" stroke-width="0.05mm" stroke-dasharray="0.4,0.2" opacity="0.99" x1="87.40" y1="184.47" x2="80.63" y2="184.48" />
<line fill="none" stroke="#5674b9" stroke-width="0.05mm" stroke-dasharray="0.4,0.2" opacity="0.10" x1="87.40" y1="184.47" x2="86.68" y2="183.73" />
<line fill="none" stroke="#00aeef" stroke-width="0.05mm" stroke-dasharray="0.4,0.2" opacity="0.21" x1="87.40" y1="184.47" x2="73.22" y2="186.12" />
<line fill="none" stroke="#111111" stroke-width="0.05mm" x1="87.40" y1="184.47" x2="81.08" y2="214.03" />
<line fill="none" stroke="#5674b9" stroke-width="0.05mm" stroke-dasharray="0.4,0.2" opacity="0.85" x1="81.08" y1="214.03" x2="75.17" y2="192.88" />
<line fill="none" stroke="#5674b9" stroke-width="0.05mm" stroke-dasharray="0.4,0.2" opacity="0.80" x1="81.08" y1="214.03" x2="73.56" y2="203.77" />
<line fill="none" stroke="#00aeef" stroke-width="0.05mm" stroke-dasharray="0.4,0.2" opacity="0.99" x1="81.08" y1="214.03" x2="83.98" y2="202.55" />
<line fill="none" stroke="#111111" stroke-width="0.05mm" x1="81.08" y1="214.03" x2="73.36" y2="161.95" />
<line fill="none" stroke="#00aeef" stroke-width="0.05mm" stroke-dasharray="0.4,0.2" opacity="0.91" x1="73.36" y1="161.95" x2="80.03" y2="162.56" />
<line fill="none" stroke="#00aeef" stroke-width="0.05mm" stroke-dasharray="0.4,0.2" opacity="0.22" x1="73.36" y1="161.95" x2="75.34" y2="161.15" />
<line fill="none" stroke="#111111" stroke-width="0.05mm" x1="73.36" y1="161.95" x2="92.00" y2="130.68" />
<line fill="none" stroke="#00aeef" stroke-width="0.05mm" stroke-dasharray="0.4,0.2" opacity="0.86" x1="92.00" y1="130.68" x2="83.46" y2="128.04" />
<line fill="none" stroke="#111111" stroke-width="0.05mm" x1="92.00" y1="130.68" x2="92.54" y2="99.26" />
<line fill="none" stroke="#00aeef" stroke-width="0.05mm" stroke-dasharray="0.4,0.2" opacity="0.90" x1="92.54" y1="99.26" x2="97.94" y2="99.99" />
<line fill="none" stroke="#111111" stroke-width="0.05mm" x1="92.54" y1="99.26" x2="112.91" y2="37.29" />
<line fill="none" stroke="#5674b9" stroke-width="0.05mm" stroke-dasharray="0.4,0.2" opacity="0.76" x1="112.91" y1="37.29" x2="108.62" y2="41.98" />
<line fill="none" stroke="#00aeef" stroke-width="0.05mm" stroke-dasharray="0.4,0.2" opacity="0.75" x1="112.91" y1="37.29" x2="112.57" y2="44.61" />
<line fill="none" stroke="#00aeef" stroke-width="0.05mm" stroke-dasharray="0.4,0.2" opacity="0.81" x1="112.91" y1="37.29" x2="110.46" y2="56.74" />
<line fill="none" stroke="#5674b9" stroke-width="0.05mm" stroke-dasharray="0.4,0.2" opacity="0.72" x1="112.91" y1="37.29" x2="74.56" y2="36.34" />
<line fill="none" stroke="#5674b9" stroke-width="0.05mm" stroke-dasharray="0.4,0.2" opacity="0.72" x1="112.91" y1="37.29" x2="99.10" y2="36.93" />
<line fill="none" stroke="#5674b9" stroke-width="0.05mm" stroke-dasharray="0.4,0.2" opacity="0.72" x1="112.91" y1="37.29" x2="65.87" y2="36.19" />
<line fill="none" stroke="#5674b9" stroke-width="0.05mm" stroke-dasharray="0.4,0.2" opacity="0.72" x1="112.91" y1="37.29" x2="61.69" y2="36.14" />
<line fill="none" stroke="#5674b9" stroke-width="0.05mm" stroke-dasharray="0.4,0.2" opacity="0.72" x1="112.91" y1="37.29" x2="74.33" y2="36.35" />
<line fill="none" stroke="#5674b9" stroke-width="0.05mm" stroke-dasharray="0.4,0.2" opacity="0.72" x1="112.91" y1="37.29" x2="74.13" y2="36.37" />
<line fill="none" stroke="#111111" stroke-width="0.05mm" x1="112.91" y1="37.29" x2="61.73" y2="35.88" />
<line fill="none" stroke="#00aeef" stroke-width="0.05mm" stroke-dasharray="0.4,0.2" opacity="0.99" x1="61.73" y1="35.88" x2="57.22" y2="21.05" />
<line fill="none" stroke="#00aeef" stroke-width="0.05mm" stroke-dasharray="0.4,0.2" opacity="0.78" x1="61.73" y1="35.88" x2="70.16" y2="51.51" />
<line fill="none" stroke="#5674b9" stroke-width="0.05mm" stroke-dasharray="0.4,0.2" opacity="0.22" x1="61.73" y1="35.88" x2="80.50" y2="19.20" />
<line fill="none" stroke="#5674b9" stroke-width="0.05mm" stroke-dasharray="0.4,0.2" opacity="0.25" x1="61.73" y1="35.88" x2="85.02" y2="36.23" />
<line fill="none" stroke="#111111" stroke-width="0.05mm" x1="61.73" y1="35.88" x2="96.20" y2="27.30" />
</g>
<g>
<circle cx="28.00" cy="192.00" r="0.1" fill="#111111" />
<circle cx="24.30" cy="149.98" r="0.1" fill="#111111" />
<circle cx="63.23" cy="160.56" r="0.1" fill="#111111" />
<circle cx="66.66" cy="179.15" r="0.1" fill="#111111" />
<circle cx="87.40" cy="184.47" r="0.1" fill="#111111" />
<circle cx="81.08" cy="214.03" r="0.1" fill="#111111" />
<circle cx="73.36" cy="161.95" r="0.1" fill="#111111" />
<circle cx="92.00" cy="130.68" r="0.1" fill="#111111" />
<circle cx="92.54" cy="99.26" r="0.1" fill="#111111" />
<circle cx="112.91" cy="37.29" r="0.1" fill="#111111" />
<circle cx="61.73" cy="35.88" r="0.1" fill="#111111" />
<circle cx="96.20" cy="27.30" r="0.1" fill="#111111" />
</g>
<g>
<text x="28.20" y="192.00" font-size=".2mm" fill="#000000">0</text>
<text x="24.50" y="149.98" font-size=".2mm" fill="#000000">1</text>
<text x="63.43" y="160.56" font-size=".2mm" fill="#000000">2</text>
<text x="66.86" y="179.15" font-size=".2mm" fill="#000000">3</text>
<text x="87.60" y="184.47" font-size=".2mm" fill="#000000">4</text>
<text x="81.28" y="214.03" font-size=".2mm" fill="#000000">5</text>
<text x="73.56" y="161.95" font-size=".2mm" fill="#000000">6</text>
<text x="92.20" y="130.68" font-size=".2mm" fill="#000000">7</text>
<text x="92.74" y="99.26" font-size=".2mm" fill="#000000">8</text>
<text x="113.11" y="37.29" font-size=".2mm" fill="#000000">9</text>
<text x="61.93" y="35.88" font-size=".2mm" fill="#000000">10</text>
<text x="96.40" y="27.30" font-size=".2mm" fill="#000000">11</text>
</g>
<g>
</g>
</g>
</svg>