<?xml version="1.0" encoding="utf-8"?>
<!DOCTYPE svg PUBLIC "-//W3C//DTD SVG 1.1//EN" "http://www.w3.org/Graphics/SVG/1.1/DTD/svg11.dtd">
<svg version="1.1" id="Layer_1" xmlns="http://www.w3.org/2000/svg" xmlns:xlink="http://www.w3.org/1999/xlink" x="0px" y="0px" width="58mm" height="78mm" viewBox="0 0 58 78" style="background-color:#ffffff;enable-background:new 0 0 58 78;" xml:space="preserve">
<symbol id="airflow" viewBox="-12 -12 24 24">
<path d="M-4.38,10.73l4.2-3.84V3.55L-4.07,7.13l-.31-.29L-.18,3V-6.89a3.37,3.37,0,0,0-1.68.53l1.68-4.15L0-11l.21.51h0v0l1.65,4.1A3.26,3.26,0,0,0,.24-6.89v14l-.08,0L-4.07,11Z"/>
<rect fill="none" x="-12" y="-12" width="24" height="24"/>
</symbol>
<symbol id="anastomosis" viewBox="-12 -12 24 24">
<path d="M2.23-4.78l.37.24L5.22-2.78l-.47.57L2.49-3.7l-4.61,8-.24.44-.37-.34L-5.22,2.3l.55-.52,2.1,1.82L2-4.39Z"/>
<rect fill="none" x="-12" y="-12" width="24" height="24"/>
</symbol>
<symbol id="bivouac" viewBox="-12 -12 24 24">
<path d="M.25-7.66l.24.58L.54-7l3.88.48-3.31.91L6,6H8.35v.48l-16.7.07V6.05h2.64L0-7.08Zm0,1.32L-5.13,6H-4l2.07-5L.2-4l2.09,5L4.37,6H5.44Z"/>
<rect fill="none" x="-12" y="-12" width="24" height="24"/>
</symbol>
<symbol id="bones" viewBox="-12 -12 24 24">
<path d="M2.44,4.27l-.16,0H2.13a.22.22,0,0,1-.11,0l-.1-.06a.39.39,0,0,1-.09-.11l-.08-.13a1.51,1.51,0,0,1-.06-.15l-.07-.17s0-.11-.08-.19-.06-.16-.08-.21a4.75,4.75,0,0,0-.38-.71c-.18-.29-.43-.64-.74-1A11.15,11.15,0,0,0-.7.32,6.73,6.73,0,0,0-2-.64a4.12,4.12,0,0,0-1.44-.52A1.64,1.64,0,0,1-5-2.19.72.72,0,0,1-5-2.44a1,1,0,0,1,0-.29A.52.52,0,0,1-4.87-3a.54.54,0,0,1,.35-.15L-4-3.22l.46,0a.54.54,0,0,0,.27-.06A.52.52,0,0,0-3-3.56a.74.74,0,0,0,.13-.31.54.54,0,0,1,.15-.26.54.54,0,0,1,.3-.15.83.83,0,0,1,.47,0,1.11,1.11,0,0,1,.35.4A7.46,7.46,0,0,1-1-2.76q.18.42.33.72a3.22,3.22,0,0,0,.39.57L.1-1a4.77,4.77,0,0,0,.58.43c.28.18.51.33.69.43l1,.56a1.84,1.84,0,0,0,.39.23A5.29,5.29,0,0,1,3.22.9l.43.26a3.7,3.7,0,0,1,.46.3l.36.29a2.28,2.28,0,0,1,.31.32A1,1,0,0,1,5,2.4c.2.48,0,.78-.47.91h0a8.48,8.48,0,0,0-1.12.09,1,1,0,0,0-.42.44A1,1,0,0,1,2.44,4.27Z"/>
<rect fill="none" x="-12" y="-12" width="24" height="24"/>
</symbol>
<symbol id="calcite" viewBox="-12 -12 24 24">
<path d="M2.36-2.22l.05.46.34,3.91L2,2.22,1.65-1.26-2.52-.06l-.23-.7L1.89-2.08Z"/>
<rect fill="none" x="-12" y="-12" width="24" height="24"/>
</symbol>
<symbol id="cauliflower" viewBox="-12 -12 24 24">
<path d="M5.58,3.22v-3A2.12,2.12,0,0,0,6.92-.43a1.78,1.78,0,0,0,.55-1.32,1.92,1.92,0,0,0-.65-1.42,2.19,2.19,0,0,0-1.53-.59,2.21,2.21,0,0,0-1.54.59,1.78,1.78,0,0,0-.64,1.42A1.86,1.86,0,0,0,3.65-.43,2.12,2.12,0,0,0,5,.23v3H.26v-3A2.17,2.17,0,0,0,1.61-.43a1.81,1.81,0,0,0,.54-1.32,1.91,1.91,0,0,0-.64-1.42A2.21,2.21,0,0,0,0-3.76a2.21,2.21,0,0,0-1.54.59,1.82,1.82,0,0,0-.64,1.42A1.83,1.83,0,0,0-1.66-.43,2.12,2.12,0,0,0-.32.23v3H-5v-3A2.12,2.12,0,0,0-3.71-.43a1.78,1.78,0,0,0,.55-1.32,1.92,1.92,0,0,0-.65-1.42,2.19,2.19,0,0,0-1.53-.59,2.21,2.21,0,0,0-1.54.59,1.83,1.83,0,0,0-.65,1.42A1.87,1.87,0,0,0-7-.43,2.12,2.12,0,0,0-5.64.23v3H-8v.54H8V3.22Z"/>
<rect fill="none" x="-12" y="-12" width="24" height="24"/>
</symbol>
<symbol id="clay" viewBox="-12 -12 24 24">
<path d="M1.85-1.33a3,3,0,0,1,1.67.48,3.23,3.23,0,0,1,1,1l.29.51-1,.43a3.81,3.81,0,0,0-.23-.4A3.74,3.74,0,0,0,2.93,0,1.77,1.77,0,0,0,1.85-.32a2.57,2.57,0,0,0-1.1.15A.86.86,0,0,0,.51.14,2.23,2.23,0,0,1,0,.88a2.55,2.55,0,0,1-1.45.43,3.16,3.16,0,0,1-2.75-1,4.28,4.28,0,0,1-.37-.57,3.91,3.91,0,0,1-.21-.47l0-.16,1-.22a1.87,1.87,0,0,0,.45.79A2.12,2.12,0,0,0-1.51.33,1.82,1.82,0,0,0-.69.14l.21-.36A1.53,1.53,0,0,1,.17-1,3.76,3.76,0,0,1,1.85-1.33Z"/>
<rect fill="none" x="-12" y="-12" width="24" height="24"/>
</symbol>
<symbol id="crystals" viewBox="-12 -12 24 24">
<path d="M-2.94-5.38,0-.72,2.94-5.38,3.62-5,.68-.36H6.56V.36H.68L3.62,5l-.68.36L0,.72-2.94,5.38-3.62,5-.68.36H-6.56V-.36H-.68L-3.62-5Z"/>
<rect fill="none" x="-12" y="-12" width="24" height="24"/>
</symbol>
<symbol id="curtain" viewBox="-12 -12 24 24">
<path d="M3.57-6.69l.52.53L.39-3V-.33L.1-.26a3.79,3.79,0,0,0-1,.41c-.58.3-.87.65-.87,1v.07A1.61,1.61,0,0,0-.84,2.48a3.69,3.69,0,0,0,.45.24L0,2.86l.13.05L.39,3V6.12H-.39V3.51a7.65,7.65,0,0,1-.9-.46A2.19,2.19,0,0,1-2.54,1.28V1.23A2,2,0,0,1-1.31-.48,5.32,5.32,0,0,1-.39-.86V-3l-3.7-3.14.52-.53L0-3.67Z"/>
<rect fill="none" x="-12" y="-12" width="24" height="24"/>
</symbol>
<symbol id="disk" viewBox="-12 -12 24 24">
<path d="M-.09-4.19a2.43,2.43,0,0,1,1.7.64A2,2,0,0,1,2.35-2,2.09,2.09,0,0,1,1.81-.55,2.44,2.44,0,0,1,.35.23l2.18,3.6-.68.33L0,1.14-1.48,4.19l-.71-.29L-.41.25A2.53,2.53,0,0,1-1.9-.47a2,2,0,0,1-.63-1.41,2,2,0,0,1,.67-1.61,2.46,2.46,0,0,1,1.72-.7ZM1.05-3.06.56-3.49l-.69,0A1.72,1.72,0,0,0-1.29-3a1.51,1.51,0,0,0-.45,1.08,1.36,1.36,0,0,0,.51,1A1.68,1.68,0,0,0-.07-.44v0l0,0A1.7,1.7,0,0,0,1.11-.92,1.36,1.36,0,0,0,1.56-2,1.47,1.47,0,0,0,1.05-3.06Z"/>
<rect fill="none" x="-12" y="-12" width="24" height="24"/>
</symbol>
<symbol id="entrance" viewBox="-12 -12 24 24">
<path d="M4.46,9H-4.46L0-9Z"/>
<rect fill="none" x="-12" y="-12" width="24" height="24"/>
</symbol>
<symbol id="flowstone" viewBox="-12 -12 24 24">
<rect x="-6" y="-0.21" width="12" height="0.42"/>
<rect fill="none" x="-12" y="-12" width="24" height="24"/>
</symbol>
<symbol id="flutes" viewBox="-12 -12 24 24">
<path d="M-7-1H7v.72H3.87A4.7,4.7,0,0,1,2.16,1.5,4.2,4.2,0,0,1,0,2.13,3.94,3.94,0,0,1-2.19,1.5,4.18,4.18,0,0,1-3.76-.27H-7Zm4.17.72A3.15,3.15,0,0,0-1.65,1,3.21,3.21,0,0,0,0,1.41,3.49,3.49,0,0,0,1.6,1,3.68,3.68,0,0,0,3-.27Z"/>
<rect fill="none" x="-12" y="-12" width="24" height="24"/>
</symbol>
<symbol id="gradient" viewBox="-12 -12 24 24">
<path d="M2.58-3.83,0-10-2.58-3.83A4.74,4.74,0,0,1-.17-4.5V10H.25V-4.5A6.65,6.65,0,0,1,2.58-3.83Z"/>
<rect fill="none" x="-12" y="-12" width="24" height="24"/>
</symbol>
<symbol id="guano" viewBox="-12 -12 24 24">
<path d="M-3.24-3a2.15,2.15,0,0,1,1.57.55A3.93,3.93,0,0,1-.59.24a4.32,4.32,0,0,1,2.75-2.3,2.68,2.68,0,0,1,2.23.36A2.36,2.36,0,0,1,5.5.19l-.79,0a1.72,1.72,0,0,0-.79-1.37,1.94,1.94,0,0,0-1.55-.24A3.53,3.53,0,0,0,.48,0,6.63,6.63,0,0,0-.69,3l-.79-.09a10.72,10.72,0,0,0,0-3.16A3.21,3.21,0,0,0-2.22-2,1.44,1.44,0,0,0-3.37-2.3,3.45,3.45,0,0,0-5-1.54l-.5-.55a4.29,4.29,0,0,1,2-.91A.9.9,0,0,1-3.24-3Z"/>
<rect fill="none" x="-12" y="-12" width="24" height="24"/>
</symbol>
<symbol id="helictites" viewBox="-12 -12 24 24">
<path d="M-4.59-7.92h.79v7.7l3.41,0V-7.92H.39V-.17L4.2-.12h.39v8H3.8V.6L.39.55V7.92H-.39V.55L-4.2.5l-.39,0v-8.4Z"/>
<rect fill="none" x="-12" y="-12" width="24" height="24"/>
</symbol>
<symbol id="human" viewBox="-12 -12 24 24">
<path d="M-3.59-3.29A5.13,5.13,0,0,1,0-4.66,5.13,5.13,0,0,1,3.59-3.29,4.3,4.3,0,0,1,5.09,0a4.3,4.3,0,0,1-1.5,3.29A5.13,5.13,0,0,1,0,4.66,5.13,5.13,0,0,1-3.59,3.29,4.3,4.3,0,0,1-5.09,0,4.3,4.3,0,0,1-3.59-3.29Zm.28.77A3.68,3.68,0,0,0-4.3,0a3.62,3.62,0,0,0,1,2.57L-.5.05ZM0-3.94A4.42,4.42,0,0,0-2.75-3L.16-.36H4.28A3.62,3.62,0,0,0,2.91-2.9,4.38,4.38,0,0,0,0-3.94ZM.16.46-2.7,3.07A4.42,4.42,0,0,0,0,3.94a4.37,4.37,0,0,0,2.87-1A3.78,3.78,0,0,0,4.28.46Z"/>
<rect fill="none" x="-12" y="-12" width="24" height="24"/>
</symbol>
<symbol id="karren" viewBox="-12 -12 24 24">
<path d="M1-5.84h0a1.37,1.37,0,0,1,1.06.68A3.33,3.33,0,0,1,2.5-3.79,25.79,25.79,0,0,1,2.36,0a18.61,18.61,0,0,0-.08,3.72,2.68,2.68,0,0,0,.41,1.2,1.13,1.13,0,0,0,.79.5A.92.92,0,0,0,4,4.94a4.43,4.43,0,0,0,.47-1.22c.16-.64.36-1.86.59-3.66a26.71,26.71,0,0,1,.64-3.69,4.62,4.62,0,0,1,.57-1.29,1.34,1.34,0,0,1,1-.59h0A1.28,1.28,0,0,1,8.37-5a2.17,2.17,0,0,1,.39,1.15A19.91,19.91,0,0,1,8.54-.53a21.51,21.51,0,0,0-.2,3.64A2.64,2.64,0,0,0,9.45,5.36,1.91,1.91,0,0,0,10.88,5a3.84,3.84,0,0,0,.7-1l.42.2-.1.18-.12.21-.11.18L11.52,5a.94.94,0,0,1-.14.16c-.06.07-.13.12-.19.18a2.5,2.5,0,0,1-1.85.41H9.29l0,0A3.06,3.06,0,0,1,7.87,3.13a22.11,22.11,0,0,1,.2-3.7,18.17,18.17,0,0,0,.22-3.28A1.85,1.85,0,0,0,8-4.79a.77.77,0,0,0-.67-.3.93.93,0,0,0-.64.42,4.51,4.51,0,0,0-.51,1.15A26.26,26.26,0,0,0,5.54.1c-.24,1.83-.45,3.07-.61,3.72a5.38,5.38,0,0,1-.51,1.34,1.33,1.33,0,0,1-.89.68H3.47A1.58,1.58,0,0,1,2.3,5.16a3.29,3.29,0,0,1-.49-1.4A20.27,20.27,0,0,1,1.89,0,23.45,23.45,0,0,0,2-3.75a2.94,2.94,0,0,0-.32-1.19A.93.93,0,0,0,1-5.42,1.1,1.1,0,0,0,.19-5,3.69,3.69,0,0,0-.43-3.76,20.78,20.78,0,0,0-1.07.07c-.2,2-.37,3.32-.49,3.86A4.48,4.48,0,0,1-2,5.26,1.06,1.06,0,0,1-3,5.81h0a1.9,1.9,0,0,1-1.29-.67,2.7,2.7,0,0,1-.58-1.31,14.92,14.92,0,0,1,0-3.6q0-.12.06-.54c0-.28,0-.47,0-.57s0-.28,0-.52,0-.42,0-.55,0-.28,0-.47,0-.36,0-.51,0-.29,0-.43A3.09,3.09,0,0,0-5-4.62a1.19,1.19,0,0,0-.67-.6,1.5,1.5,0,0,0-1.2.9A7,7,0,0,0-7.41-2.1c0,.39-.1,1-.14,1.76s-.11,1.47-.18,2.08A9.61,9.61,0,0,1-8,3.32h0l0,0A2.81,2.81,0,0,1-9.2,4.62a1.82,1.82,0,0,1-1.35.15A1.94,1.94,0,0,1-11.61,4,2.39,2.39,0,0,1-12,2.56l.47,0a1.92,1.92,0,0,0,.31,1.16,1.47,1.47,0,0,0,.81.62,1.3,1.3,0,0,0,1-.11A2.32,2.32,0,0,0-8.5,3.18a7.53,7.53,0,0,0,.29-1.5Q-8.1.8-8-.36c0-.78.1-1.37.16-1.78A7.23,7.23,0,0,1-7.28-4.5,1.93,1.93,0,0,1-5.65-5.66h.05l0,0a1.59,1.59,0,0,1,1,.84,3.47,3.47,0,0,1,.34,1.41,4.91,4.91,0,0,1,0,.57v.54c0,.15,0,.37,0,.66s0,.47,0,.58,0,.33-.06.68,0,.56-.06.63a14.78,14.78,0,0,0,0,3.49,2.58,2.58,0,0,0,.5,1.13,1.57,1.57,0,0,0,1,.5A.61.61,0,0,0-2.44,5,3.89,3.89,0,0,0-2,3.85C-1.9,3.31-1.74,2-1.53,0A20.65,20.65,0,0,1-.86-3.89,3.89,3.89,0,0,1-.18-5.26,1.58,1.58,0,0,1,1-5.84Z"/>
<rect fill="none" x="-12" y="-12" width="24" height="24"/>
</symbol>
<symbol id="moonmilk" viewBox="-12 -12 24 24">
<path d="M-4.78-3.06a3.39,3.39,0,0,1,1.5.34,2.48,2.48,0,0,1,1.1,1,3.74,3.74,0,0,1,1.62-.8,3.52,3.52,0,0,1,1.71,0,2.9,2.9,0,0,1,1.39.77A2.49,2.49,0,0,1,3.25-.37,4,4,0,0,1,5-.76a3.58,3.58,0,0,1,1.6.36A2.84,2.84,0,0,1,7.88.92a2.32,2.32,0,0,1,0,1.88.34.34,0,0,1-.37.26A.36.36,0,0,1,7.25,3a.32.32,0,0,1-.12-.25.21.21,0,0,1,0-.12,2,2,0,0,0,0-1.43,2,2,0,0,0-1-.9A2.81,2.81,0,0,0,4.68,0,2.78,2.78,0,0,0,3.12.56L2.46.25A1.7,1.7,0,0,0,2.15-1.1,2.15,2.15,0,0,0,1-1.81a2.85,2.85,0,0,0-1.58.06A3,3,0,0,0-2-.83l-.71-.12A1.74,1.74,0,0,0-3.55-2a2.36,2.36,0,0,0-1.39-.27,3.08,3.08,0,0,0-1.45.53A2.33,2.33,0,0,0-7.32-.56a.35.35,0,0,1-.37.24A.39.39,0,0,1-8-.42a.33.33,0,0,1-.1-.26v-.1A3,3,0,0,1-6.89-2.35,4,4,0,0,1-5-3Z"/>
<rect fill="none" x="-12" y="-12" width="24" height="24"/>
</symbol>
<symbol id="narrow" viewBox="-12 -12 24 24">
<path d="M-1.5,5V-5h0.64V5H-1.5z"/>
<path d="M0.86,5V-5H1.5V5H0.86z"/>
<rect fill="none" x="-12" y="-12" width="24" height="24"/>
</symbol>
<symbol id="paleoflow" viewBox="-12 -12 24 24">
<path d="M.38-12V.17A1.9,1.9,0,0,0,1,0,1.57,1.57,0,0,0,1.7-.72a1.86,1.86,0,0,0,.23-1c0-.09,0-.14.08-.16a.92.92,0,0,1,.24,0,.52.52,0,0,0,.25,0h.08A2.48,2.48,0,0,1,2,0,2.5,2.5,0,0,1,.38.77V7.21H2.09L0,12-1.8,7.23c.07,0,.59,0,1.53,0V.77A3,3,0,0,1-1.35.43a2.16,2.16,0,0,1-1-1,2.38,2.38,0,0,1-.24-1.33l.67,0a2,2,0,0,0,.15,1,1.73,1.73,0,0,0,.59.67A2.14,2.14,0,0,0-.27.16V-12Z"/>
<rect fill="none" x="-12" y="-12" width="24" height="24"/>
</symbol>
<symbol id="rain" viewBox="-12 -12 24 24">
<path d="M-4.14-6.34h0.71v4.69h-0.71V-6.34z"/>
<path d="M-0.35-6.34h0.71v4.69h-0.71V-6.34z"/>
<path d="M3.43-6.34h0.71v4.69H3.43V-6.34z"/>
<path d="M-4.14,1.65h0.71v4.69h-0.71V1.65z"/>
<path d="M-0.35,1.65h0.71v4.69h-0.71V1.65z"/>
<path d="M3.43,1.65h0.71v4.69H3.43V1.65z"/>
<rect fill="none" x="-12" y="-12" width="24" height="24"/>
</symbol>
<symbol id="rats" viewBox="-12 -12 24 24">
<path d="M8.78-2.32,7-2.27c-.51-.17-.65-.56-1.46-.45l-.25.45C3.59-2.75,2.59-3.66.56-3.62l-1.35.3A4.89,4.89,0,0,0-4.24,1.57c-.68.6-2.58.86-3.39.94a6.84,6.84,0,0,0-1.62.39,4.91,4.91,0,0,0-1,.52A1.75,1.75,0,0,0-11,4.61a1.16,1.16,0,0,0,.59,1.48,1.3,1.3,0,0,1,.14.12c.16-.52-.35-.92-.2-1.42a3.35,3.35,0,0,1,.27-.45,3.18,3.18,0,0,1,1.79-1c.63-.12,1.27-.22,1.91-.3.48-.07,1,0,1.4-.12A6.94,6.94,0,0,1-4,2.82,30.64,30.64,0,0,0,.41,2.69l2.16.15c.1-.09,0,0,.1-.15a.87.87,0,0,0-.9-.55c.86-1,2.27-.37,3.1-.05.5.19,1,0,1.25.4.11-.1.1-.07.15-.25.3,0,.31.07.6.15-.06-.49-.34-.64-1-.6a.78.78,0,0,1,0-.55C6.3.56,7.29.73,8.13.43a13.78,13.78,0,0,0,2.15-.9l.6-.85v-.2A16.9,16.9,0,0,0,8.78-2.32Z"/>
<rect fill="none" x="-12" y="-12" width="24" height="24"/>
</symbol>
<symbol id="sand" viewBox="-12 -12 24 24">
<path d="M-1.58,0.83c0.23,0.2,0.35,0.44,0.36,0.73c0.01,0.29-0.08,0.54-0.28,0.75c-0.2,0.21-0.46,0.32-0.78,0.33c-0.32,0.01-0.6-0.08-0.83-0.26C-3.36,2.19-3.49,1.95-3.5,1.67C-3.51,1.38-3.41,1.12-3.2,0.9c0.21-0.22,0.48-0.34,0.8-0.35C-2.08,0.54-1.81,0.64-1.58,0.83z"/>
<path d="M0.08-2.36c0.23,0.2,0.35,0.44,0.36,0.73c0.01,0.29-0.08,0.54-0.28,0.75c-0.2,0.21-0.46,0.32-0.78,0.33c-0.32,0.01-0.59-0.07-0.83-0.26s-0.37-0.42-0.38-0.71c-0.01-0.29,0.09-0.54,0.3-0.76c0.21-0.22,0.48-0.33,0.8-0.35C-0.42-2.65-0.14-2.56,0.08-2.36z"/>
<path d="M3.12,0.55c0.23,0.2,0.35,0.43,0.38,0.71c0.02,0.28-0.07,0.53-0.28,0.75C3,2.23,2.73,2.35,2.42,2.36C2.1,2.37,1.82,2.28,1.58,2.08C1.34,1.88,1.22,1.64,1.2,1.35c-0.01-0.29,0.09-0.54,0.3-0.75C1.72,0.4,1.99,0.29,2.3,0.28S2.89,0.36,3.12,0.55z"/>
<rect fill="none" x="-12" y="-12" width="24" height="24"/>
</symbol>
<symbol  id="scallops" viewBox="-12 -12 24 24">
<path d="M.05-3.74l.21,0A2.35,2.35,0,0,1,1.74-3a2,2,0,0,1,.59,1.55v0l0,0A9.59,9.59,0,0,1-.08,3.27l-.39.47-.27-.55A14.26,14.26,0,0,1-2.33-1.89v-.05l0-.05A2,2,0,0,1-1.44-3.3,2.42,2.42,0,0,1,.05-3.74ZM-.11-3A1.44,1.44,0,0,0-1.55-1.89,13.06,13.06,0,0,0-.29,2.33,8.6,8.6,0,0,0,1.55-1.54a1.41,1.41,0,0,0-.38-1A1.62,1.62,0,0,0,.18-3Z"/>
<rect fill="none" x="-12" y="-12" width="24" height="24"/>
</symbol>
<symbol  id="sink" viewBox="-12 -12 24 24">
<path d="M.72,9.41H.9c1.94,0,3.26-.54,3.94-1.51a3.61,3.61,0,0,0,.33-.69,2,2,0,0,0,.11-.54V6.46l.69,0a2.8,2.8,0,0,1-.58,1.78C4.58,9.39,3.1,10,.93,10H-.93q-3.25,0-4.46-1.8a2.74,2.74,0,0,1-.43-.83A2.37,2.37,0,0,1-6,6.67V6.43l.68,0A2.27,2.27,0,0,0-4.84,7.9c.68,1,2,1.47,3.93,1.48l.5,0ZM-1.46-10a.68.68,0,0,0,.16.41A2.77,2.77,0,0,0-.51-9l0,0a3.63,3.63,0,0,1,1,.7,1.15,1.15,0,0,1,.34.88c0,.58-.53,1.14-1.49,1.68-.68.42-1,.79-1,1.11s.3.61.84,1h0Q.61-2.86.46-1.78a3.51,3.51,0,0,1-1.55,2,.61.61,0,0,0-.26.41,1.67,1.67,0,0,0,.1.51,5.3,5.3,0,0,1,.32,1L.56,1.9.46,8.06-3.4,2.54l1.73-.28A6.16,6.16,0,0,0-2,1.39,1.7,1.7,0,0,1-2.09.58a1.21,1.21,0,0,1,.53-.82h0v0C-.75-.86-.33-1.38-.28-1.85s-.23-.87-.91-1.27h0C-2-3.6-2.37-4.1-2.4-4.61S-2-5.74-1.09-6.29C-.34-6.72.06-7.1.09-7.44a.67.67,0,0,0-.18-.43,3.17,3.17,0,0,0-.79-.58,2.93,2.93,0,0,1-1-.67A1.16,1.16,0,0,1-2.17-10Z"/>
<rect fill="none" x="-12" y="-12" width="24" height="24"/>
</symbol>
<symbol  id="spring" viewBox="-12 -12 24 24">
<path d="M-1.34-9.86,2.52-4.34.78-4.06a8,8,0,0,0,.29.87,1.4,1.4,0,0,1,.13.79,1.3,1.3,0,0,1-.52.84l0,0v0C-.13-.95-.55-.42-.61,0S-.37.91.31,1.3l0,0c.75.46,1.14,1,1.18,1.46S1.12,3.92.21,4.46C-.54,4.9-.94,5.29-1,5.64a.74.74,0,0,0,.18.43A3.2,3.2,0,0,0,0,6.62a3,3,0,0,1,1,.7,1.14,1.14,0,0,1,.31.86A1.74,1.74,0,0,1,.71,9.26H.92c1.92,0,3.22-.52,3.9-1.51a2.05,2.05,0,0,0,.35-.67,2.59,2.59,0,0,0,.1-.55l0-.19.65,0a2.84,2.84,0,0,1-.55,1.8C4.58,9.26,3.08,9.85.92,9.86H-.92c-2.17,0-3.66-.6-4.49-1.77a3.65,3.65,0,0,1-.4-.85A2.43,2.43,0,0,1-6,6.53V6.29l.66,0a2.08,2.08,0,0,0,.47,1.41c.68,1,2,1.5,3.91,1.51H-.4c.62-.43.94-.8,1-1.1a.76.76,0,0,0-.16-.43,3.25,3.25,0,0,0-.79-.51v0a3.8,3.8,0,0,1-1-.7,1.15,1.15,0,0,1-.34-.91q.06-.84,1.5-1.68c.68-.4,1-.77,1-1.1S.49,2.21,0,1.87c0,0,0,0,0,0C-1,1.32-1.44.69-1.34,0a3.58,3.58,0,0,1,1.55-2,.54.54,0,0,0,.23-.38A1.28,1.28,0,0,0,.37-3a4.57,4.57,0,0,1-.32-1l-1.49.24Z"/>
<rect fill="none" x="-12" y="-12" width="24" height="24"/>
</symbol>
<symbol  id="stalactite" viewBox="-12 -12 24 24">
<path d="M3.57-6.69l.52.53L.39-3V6.12H-.39V-3l-3.7-3.14.52-.53L0-3.67Z"/>
<rect fill="none" x="-12" y="-12" width="24" height="24"/>
</symbol>
<symbol  id="stalagmite" viewBox="-12 -12 24 24">
<path d="M.38-6.42V2.75L4.11,5.89l-.56.53L0,3.4l-3.57,3-.53-.53,3.7-3.14V-6.42Z"/>
<rect fill="none" x="-12" y="-12" width="24" height="24"/>
</symbol>
<symbol  id="stalagnate" viewBox="-12 -12 24 24">
<path d="M3.55-8.46l.56.53L.38-4.78v9L4.11,7.36l-.56.53L0,4.86l-3.57,3-.53-.53,3.7-3.14v-9l-3.7-3.15.53-.53L0-5.43Z"/>
<rect fill="none" x="-12" y="-12" width="24" height="24"/>
</symbol>
<symbol  id="straws" viewBox="-12 -12 24 24">
<path d="M-10.89-2.76H10.89V-2H9.63V.46H8.84V-2H8.29v5.6H7.5V-2H5.56V.7H4.77V-2H2.07V2.38H1.29V-2H-.1v3H-.89V-2H-3.2V4.11H-4V-2H-6.22L-6.16.75l-.79,0L-7-2H-8.32V2.33H-9.1V-2h-1.79Z"/>
<rect fill="none" x="-12" y="-12" width="24" height="24"/>
</symbol>
<symbol  id="water" viewBox="-12 -12 24 24">
<path d="M-1.72-9.86,2.11-4.32.38-4.06a6.49,6.49,0,0,0,.29.89,1.5,1.5,0,0,1,.13.79,1.2,1.2,0,0,1-.5.82h0l0,0C-.54-.94-1-.42-1,.05s.24.89.92,1.27h0c.77.48,1.17,1,1.19,1.49S.71,3.94-.2,4.49c-.75.43-1.13.81-1.15,1.15a.51.51,0,0,0,.18.43,2.66,2.66,0,0,0,.76.58,2.93,2.93,0,0,1,1,.67,1.16,1.16,0,0,1,.29.89C.84,8.75.42,9.3-.41,9.86l-.44-.55c.66-.45,1-.83,1-1.15A.47.47,0,0,0,0,7.75a2.84,2.84,0,0,0-.78-.53h0a3.87,3.87,0,0,1-1-.69,1.24,1.24,0,0,1-.34-.91c0-.58.54-1.14,1.52-1.68.66-.42,1-.79,1-1.11s-.3-.61-.84-1h0Q-1.9,1.06-1.74,0a3.44,3.44,0,0,1,1.54-2,.67.67,0,0,0,.27-.41A1.11,1.11,0,0,0,0-3a4.33,4.33,0,0,1-.31-1l-1.5.24Z"/>
<rect fill="none" x="-12" y="-12" width="24" height="24"/>
</symbol><symbol  id="tree" viewBox="-12 -12 24 24">
<path d="M7.4-5.04A4.271,4.271,0,0,0,7.7-6.627a4.3,4.3,0,0,0-4.3-4.3A4.279,4.279,0,0,0,.636-9.914,4.293,4.293,0,0,0-3.045-12a4.3,4.3,0,0,0-4.3,4.3,4.27,4.27,0,0,0,.421,1.845,4.3,4.3,0,0,0-3.645,4.244,4.3,4.3,0,0,0,4.3,4.3A4.282,4.282,0,0,0-3.946,2L-1.175,5.23h0L-1.612,12H.982L.757,6.376,4.119,2.827v0a4.272,4.272,0,0,0,2.15.58,4.3,4.3,0,0,0,4.3-4.3A4.3,4.3,0,0,0,7.4-5.04ZM-3.346,1.538h0A4.346,4.346,0,0,0-2.7.788a4.266,4.266,0,0,0,1.765.753l-.135,2.087ZM.69,4.7.563,1.544A4.258,4.258,0,0,0,2.321.805,4.3,4.3,0,0,0,3.378,2.279Z"/>
<rect fill="none" x="-12" y="-12" width="24" height="24"/>
</symbol><g>
<desc></desc>
<g>
<line fill="none" stroke="#dddddd" stroke-width="0.1mm" x1="0.00" y1="54.00" x2="58.00" y2="54.00" />
<text x="55.20" y="53.80" font-size=".2mm" fill="#000000">0m</text>
<line fill="none" stroke="#dddddd" stroke-width="0.1mm" x1="0.00" y1="34.00" x2="58.00" y2="34.00" />
<text x="55.20" y="33.80" font-size=".2mm" fill="#000000">10m</text>
<line fill="none" stroke="#dddddd" stroke-width="0.1mm" x1="0.00" y1="14.00" x2="58.00" y2="14.00" />
<text x="55.20" y="13.80" font-size=".2mm" fill="#000000">20m</text>
<line fill="none" stroke="#dddddd" stroke-width="0.1mm" x1="0.00" y1="74.00" x2="58.00" y2="74.00" />
<text x="55.20" y="73.80" font-size=".2mm" fill="#000000">-10m</text>
<line fill="none" stroke="#dddddd" stroke-width="0.1mm" x1="22.00" y1="0.00" x2="22.00" y2="78.00" />
<text x="22.40" y="2.00" font-size=".2mm" fill="#000000">0m</text>
<line fill="none" stroke="#dddddd" stroke-width="0.1mm" x1="2.00" y1="0.00" x2="2.00" y2="78.00" />
<text x="2.40" y="2.00" font-size=".2mm" fill="#000000">-10m</text>
<line fill="none" stroke="#dddddd" stroke-width="0.1mm" x1="42.00" y1="0.00" x2="42.00" y2="78.00" />
<text x="42.40" y="2.00" font-size=".2mm" fill="#000000">10m</text>
</g>
<g>
<path fill="none" stroke="#000000" stroke-width="0.06mm" d="M22.665155,55.086018 C22.810602,55.07427 23.039795,55.028275 23.160152,55.15949 C23.27665,55.2865 23.15628,55.667023 23.079279,55.772472 C22.92353,55.985756 22.755152,56.189957 22.5805,56.388058 C22.513878,56.463627 22.433805,56.5263 22.357105,56.591614 C22.310196,56.631557 22.24945,56.656208 22.21001,56.703545 C22.200827,56.714565 22.23508,56.721138 22.249426,56.720848 C22.440214,56.71702 22.630323,56.693104 22.821142,56.691277 C22.934828,56.69019 23.0481,56.705173 23.16158,56.712124 L23.16158,56.712124" /><path fill="none" stroke="#000000" stroke-width="0.06mm" d="M23.402359,56.364307 C23.52826,56.11901 23.668402,55.880516 23.78006,55.628418 C23.87082,55.423504 23.90961,55.1972 24.008387,54.99603 C24.074389,54.861607 23.903915,55.27862 23.879284,55.426334 C23.735107,56.29095 23.676516,56.066566 23.901754,56.533756 L23.901754,56.533756" /><path fill="none" stroke="#000000" stroke-width="0.06mm" d="M24.734081,56.524837 L24.669085,56.64415" /><path fill="none" stroke="#000000" stroke-width="0.06mm" d="M25.73882,55.062233 C25.739746,55.073715 25.615503,55.3029 25.717707,55.34667 C25.87994,55.41615 26.140026,55.24823 26.297714,55.388622 C26.381409,55.46314 26.415937,55.59834 26.424213,55.704887 C26.446173,55.9876 26.320063,56.284325 26.069698,56.430176 C25.99144,56.47577 25.900518,56.508724 25.808697,56.50383 C25.77045,56.50179 25.647856,56.479233 25.625603,56.453075 C25.548733,56.362713 25.500927,56.251205 25.438587,56.15027 L25.438587,56.15027" /><path fill="none" stroke="#000000" stroke-width="0.06mm" d="M25.688284,54.82441 C25.9862,54.655396 26.053703,54.697136 26.401709,54.75901 L26.401709,54.75901" /><path fill="none" stroke="#000000" stroke-width="0.06mm" d="M27.225117,54.76793 C27.083282,54.82502 26.925003,54.881733 26.857264,55.03189 C26.786335,55.189114 26.651833,55.47934 26.712471,55.6685 C26.731873,55.72902 26.780436,55.77487 26.83706,55.801666 C27.126122,55.938442 27.345469,55.598183 27.483072,55.39968 C27.575445,55.266426 27.60944,55.13041 27.644348,54.970406 C27.668297,54.860645 27.706823,54.670025 27.599323,54.581116 C27.497967,54.497288 27.315807,54.51733 27.213095,54.58659 C27.14575,54.632 27.084372,54.685684 27.02001,54.73523 L27.02001,54.73523" /><path fill="none" stroke="#000000" stroke-width="0.06mm" d="M22.00524,49.72314 C22.19311,50.122753 22.104387,51.10755 22.503862,51.602425 C22.639168,51.77004 22.811562,52.04636 23.042326,52.14314 C23.154526,52.190193 23.196589,52.15088 23.302784,52.138523 C23.415863,52.125366 23.529688,52.119694 23.643139,52.110275 L23.643139,52.110275" /><path fill="none" stroke="#000000" stroke-width="0.06mm" d="M20.432735,49.298035 C18.397568,48.655132 19.154215,48.959244 18.114109,48.519173 L18.114109,48.519173" /><path fill="none" stroke="#000000" stroke-width="0.06mm" d="M20.352474,49.11967 C20.326487,49.031166 20.29301,48.944527 20.274508,48.854164 C20.26095,48.78795 20.255297,48.719753 20.256752,48.65218 C20.265081,48.265327 20.303669,47.879253 20.30383,47.492313 C20.30415,46.71988 20.193924,47.14766 20.311089,46.55838 C20.356487,46.33004 20.48972,46.19411 20.652834,46.028503 C20.783756,45.89558 20.923855,45.77198 21.056692,45.640972 C21.080595,45.617397 21.093538,45.58144 21.122808,45.565 C21.23647,45.501156 21.360329,45.45747 21.479088,45.40371 L21.479088,45.40371" /><defs><path id="DRAW_12078"  d="M40.109215,49.54732 C40.085365,49.855392 40.10864,49.697643 40.034584,50.01995 L40.034584,50.01995" /></defs><use xlink:href="#DRAW_12078" fill="none" stroke="#000000" stroke-width="0.04mm" /><text style="fill:#000000; font-size:0.5mm; letter-spacing:2;"><textPath xlink:href="#DRAW_12078">||</textPath></text><path fill="none" stroke="#000000" stroke-width="0.06mm" d="M22.0,54.0 L22.0,54.0" /><path fill="none" stroke="#000000" stroke-width="0.06mm" d="M21.887367,45.358368 C22.010374,45.35019 22.133795,45.32086 22.25639,45.33383 C22.819075,45.393356 23.374413,45.51132 23.936625,45.575157 C25.076132,45.70456 24.984468,45.52501 25.978563,45.918064 C26.260975,46.029724 26.52308,46.187206 26.7929,46.32657 C26.853893,46.35807 26.90588,46.407887 26.970695,46.4305 C27.349728,46.562756 27.984411,46.664005 28.335094,46.73149 L28.335094,46.73149" /><path fill="none" stroke="#000000" stroke-width="0.06mm" d="M21.989092,49.622528 C22.122215,49.256 22.14065,48.967148 22.063953,48.584675 C22.040121,48.465828 21.99108,48.352886 21.968374,48.233818 C21.950165,48.138336 21.955484,47.91576 21.976393,47.82117 C21.988638,47.765774 22.017706,47.715492 22.03836,47.662655 L22.03836,47.662655" /><path fill="none" stroke="#000000" stroke-width="0.06mm" d="M21.684238,45.277866 C21.74908,45.286724 21.852684,45.288483 21.893084,45.357887 C21.906889,45.381603 21.915005,45.408203 21.925966,45.433365 L21.925966,45.433365" /><defs><path id="DRAW_12096"  d="M21.836666,45.462616 C21.695646,45.55022 21.583397,45.650772 21.50332,45.796135 C21.426292,45.93596 21.407825,46.275913 21.404812,46.325714 C21.39407,46.50326 21.404188,46.71351 21.459143,46.89046 C21.48433,46.97156 21.514082,47.051353 21.547657,47.129356 C21.618422,47.29375 21.569744,47.145172 21.610395,47.22794 C21.63567,47.2794 21.6586,47.331978 21.682701,47.383995 L21.682701,47.383995" /></defs><use xlink:href="#DRAW_12096" fill="none" stroke="#000000" stroke-width="0mm" /><text style="fill:#000000; font-size:0.6mm; letter-spacing:2;"><textPath xlink:href="#DRAW_12096">⊥⊥⊥⊥⊥⊥⊥</textPath></text><path fill="none" stroke="#000000" stroke-width="0.06mm" d="M22.138739,47.599586 C22.17943,47.592793 22.21975,47.58318 22.260813,47.5792 C22.283802,47.576973 22.30741,47.576626 22.33008,47.581047 C22.618801,47.637356 22.900934,47.73562 23.193983,47.761185 C23.494455,47.787403 23.797474,47.754852 24.098457,47.735336 C24.580193,47.7041 24.823866,47.59498 25.298925,47.686813 C25.740385,47.772152 26.174538,47.89377 26.605606,48.021626 C26.730637,48.058712 26.921701,48.15036 27.038317,48.246967 C27.154095,48.34288 27.261988,48.506367 27.30765,48.650063 C27.401455,48.945263 27.547586,49.2765 27.560463,49.60434 C27.561953,49.642265 27.559286,49.680588 27.552435,49.71792 C27.474903,50.140347 27.489407,49.97109 27.331444,50.425327 C27.316643,50.467888 27.310291,50.512928 27.299715,50.55673 L27.299715,50.55673" /><path fill="none" stroke="#000000" stroke-width="0.06mm" d="M28.517923,46.68839 C28.730589,46.913414 28.943254,47.13844 29.15592,47.363464 C29.184347,47.399628 29.21063,47.437584 29.2412,47.47196 C29.293388,47.530643 29.349686,47.585545 29.403929,47.642334 L29.403929,47.642334" /><defs><path id="DRAW_12120"  d="M30.887474,49.813953 C30.575542,49.908314 30.317047,50.126396 30.11867,50.38007 C29.909254,50.647858 29.654785,51.46244 29.632439,51.5262 C29.602612,51.6113 29.56563,51.786007 29.578743,51.8941 C29.597565,52.049248 29.63574,52.16265 29.67797,52.31111 L29.67797,52.31111" /></defs><use xlink:href="#DRAW_12120" fill="none" stroke="#000000" stroke-width="0mm" /><text style="fill:#000000; font-size:0.6mm; letter-spacing:2;"><textPath xlink:href="#DRAW_12120">⊥⊥⊥⊥⊥⊥⊥⊥⊥⊥</textPath></text><path fill="none" stroke="#000000" stroke-width="0.06mm" d="M27.314632,50.2667 C27.419807,50.67373 27.507149,50.96329 27.773857,51.280956 C27.846857,51.367905 27.91307,51.41126 28.01011,51.468998 C28.31559,51.650764 28.615402,51.842964 28.929996,52.008453 C29.212866,52.157253 29.47307,52.21053 29.754637,52.036133 L29.754637,52.036133" /><path fill="none" stroke="#000000" stroke-width="0.06mm" d="M29.273369,47.376793 C29.474995,47.580437 29.703934,47.76026 29.878246,47.98772 C30.063362,48.229282 30.193058,48.508743 30.343538,48.773273 C30.539051,49.116966 30.506084,49.076912 30.629044,49.360428 C30.854435,49.88014 30.766685,49.620026 30.887909,50.038517 L30.887909,50.038517" /><path fill="none" stroke="#000000" stroke-width="0.06mm" d="M29.851418,51.922424 C29.894289,51.9154 29.936806,51.90568 29.980032,51.901356 C30.012232,51.898132 30.090273,51.915604 30.110092,51.9269 C30.381556,52.081585 30.65348,52.236454 30.913738,52.409332 C31.002338,52.46818 31.077988,52.544987 31.153446,52.61995 C31.264389,52.730167 31.29279,52.818974 31.391918,52.944454 C31.428917,52.99129 31.473957,53.031174 31.514977,53.07453 L31.514977,53.07453" /><path fill="none" stroke="#000000" stroke-width="0.06mm" d="M31.234848,50.46907 C31.927547,50.923836 31.749447,50.877167 32.16623,51.042988 C32.320255,51.10427 32.47869,51.15516 32.62903,51.22501 C32.687626,51.252235 32.73641,51.296906 32.790096,51.33285 L32.790096,51.33285" /><path fill="none" stroke="#000000" stroke-width="0.06mm" d="M31.051966,50.084656 L31.053673,50.089085" /><path fill="none" stroke="#000000" stroke-width="0.06mm" d="M31.087215,50.190365 C31.57272,50.766483 31.250862,50.402767 32.095127,51.242416 L32.095127,51.242416" /><path fill="none" stroke="#000000" stroke-width="0.06mm" d="M32.52678,51.18813 C32.766846,51.15702 32.88143,51.182743 33.111706,51.27429 C33.148094,51.288757 33.184204,51.306343 33.2145,51.331154 C33.341156,51.43488 33.455868,51.552517 33.580727,51.6584 C33.67025,51.73432 33.772938,51.794743 33.857346,51.876312 C34.186596,52.194492 34.310684,52.29764 34.43145,52.681454 C34.47068,52.80614 34.46282,52.96031 34.4245,53.08409 C34.37504,53.243866 34.28976,53.33201 34.1831,53.463173 L34.1831,53.463173" /><path fill="none" stroke="#000000" stroke-width="0.06mm" d="M32.85458,55.428734 C33.01339,55.202396 33.1708,54.922222 33.065723,54.63652 C32.975708,54.391773 32.552094,54.206257 32.32779,54.37058 C32.178295,54.480095 32.09235,54.694668 32.079414,54.87406 C32.03932,55.430077 32.094193,55.625633 32.241547,56.221992 C32.268486,56.331024 32.388474,56.678417 32.554127,56.693634 C32.618084,56.69951 32.685463,56.640892 32.715965,56.590977 C33.053318,56.038944 33.006943,55.84148 32.996193,55.198627 L32.996193,55.198627" /><path fill="none" stroke="#000000" stroke-width="0.06mm" d="M31.58892,53.118816 C31.121944,55.48238 32.03327,51.001144 31.029804,55.129414 C30.93729,55.51002 30.99255,55.926872 31.01805,56.30933 L31.01805,56.30933" /><path fill="none" stroke="#000000" stroke-width="0.06mm" d="M31.788826,45.899704 L31.79946,45.89974" /><path fill="none" stroke="#000000" stroke-width="0.06mm" d="M34.45426,53.417732 C34.431667,54.23931 34.46672,54.52716 34.33054,55.249023 C34.294994,55.43744 34.25811,55.627308 34.192154,55.807346 C33.959476,56.442474 33.709946,57.071968 33.43612,57.690468 C33.40983,57.74985 33.227955,58.173622 33.040127,58.279366 C32.894615,58.361286 32.75034,58.33657 32.601288,58.272602 C32.569893,58.259132 32.539185,58.243046 32.51187,58.222527 C32.21382,57.9986 31.978638,57.830196 31.753094,57.53753 C31.513824,57.227055 31.365452,56.91666 31.233143,56.54584 C31.1718,56.373917 31.146727,55.92921 31.13196,55.801758 C31.1294,55.77967 31.124582,55.757587 31.116552,55.73685 C31.077408,55.635773 31.032658,55.536957 30.99071,55.437008 L30.99071,55.437008" /><path fill="none" stroke="#000000" stroke-width="0.06mm" stroke-dasharray="0.3mm,0.1mm" d="M31.164898,54.240025 L31.18083,54.238274" /><path fill="none" stroke="#000000" stroke-width="0.06mm" stroke-dasharray="0.3mm,0.1mm" d="M31.20541,54.219772 C31.328579,54.03926 31.460949,53.8647 31.57492,53.678246 C31.684187,53.499496 31.812675,53.1447 31.84953,52.959366 C32.006012,52.172398 31.852877,51.332188 31.592274,50.584263 L31.592274,50.584263" /><path fill="none" stroke="#000000" stroke-width="0.06mm" d="M31.681395,50.776672 C31.590122,50.16551 31.585556,49.95435 31.271523,49.50786 C31.243378,49.467842 31.20996,49.43101 31.172556,49.39948 C31.13998,49.372017 31.099936,49.35489 31.063625,49.332596 L31.063625,49.332596" /><path fill="none" stroke="#000000" stroke-width="0.06mm" d="M31.220892,49.47211 C31.17677,48.711998 31.21474,49.191574 31.063498,48.03743 L31.063498,48.03743" /><path fill="none" stroke="#000000" stroke-width="0.06mm" d="M34.276764,52.25168 C34.168495,52.071987 34.06751,51.887703 33.951958,51.7126 C33.796043,51.476337 33.604492,51.26346 33.46288,51.018356 C33.144768,50.467773 32.9178,50.00077 32.738766,49.420403 C32.670815,49.20012 32.597878,48.980217 32.55465,48.75378 C32.48085,48.36715 32.434273,47.975643 32.388355,47.58472 C32.380367,47.516712 32.38418,47.447227 32.39321,47.37935 C32.425274,47.138397 32.498665,46.959362 32.62056,46.740646 C32.920834,46.201847 33.23453,45.670544 33.55202,45.14171 C33.76951,44.77944 34.02927,44.441998 34.225292,44.067684 C35.690292,41.27017 34.502266,43.251686 34.854313,42.66677 L34.854313,42.66677" /><path fill="none" stroke="#000000" stroke-width="0.06mm" d="M30.808817,47.67608 C31.797165,46.3849 31.458843,46.869514 32.652157,43.668808 C32.679432,43.595657 33.101917,42.1262 33.089687,41.527893 C33.086582,41.376022 33.058968,41.225647 33.04361,41.074524 L33.04361,41.074524" /><path fill="none" stroke="#000000" stroke-width="0.06mm" d="M34.929333,42.743885 C35.054096,42.246254 34.947327,41.903553 34.849655,41.397015 L34.849655,41.397015" /><path fill="none" stroke="#000000" stroke-width="0.06mm" d="M34.830547,35.398678 C34.76184,35.78389 34.739723,36.18039 34.624435,36.554314 C34.443817,37.140137 34.134346,37.680405 33.947067,38.26413 C33.75782,38.853985 33.664948,39.470936 33.497345,40.0673 C33.448418,40.241383 33.364746,40.403774 33.298447,40.572014 C33.192055,41.03554 33.08566,41.499073 32.979267,41.9626 L32.979267,41.9626" /><path fill="none" stroke="#000000" stroke-width="0.06mm" d="M35.13694,41.78096 C35.229904,40.82583 35.322865,39.870705 35.415825,38.915577 C35.45871,38.61884 35.510963,38.323303 35.54448,38.025364 C35.570873,37.790783 35.544353,37.549484 35.595448,37.319016 C35.731915,36.70348 35.933853,36.104305 36.104923,35.497475 C36.14776,35.345543 36.182655,35.400066 36.035843,35.341404 L36.035843,35.341404" /><path fill="none" stroke="#000000" stroke-width="0.06mm" d="M34.997627,35.455624 C35.099125,35.16932 35.238052,34.893646 35.30212,34.596718 C35.982388,31.443958 35.67135,31.040346 36.882523,28.40752 C38.06535,25.836304 37.704113,27.443714 38.261467,25.770576 C38.40983,25.325205 38.297554,24.618631 38.26065,24.168493 L38.26065,24.168493" /><path fill="none" stroke="#000000" stroke-width="0.06mm" d="M36.336983,35.59221 C38.69742,29.610989 35.625565,37.662674 38.491447,28.740923 C38.694504,28.10879 39.066116,27.542091 39.30198,26.921452 C39.809875,25.58502 39.71698,25.08727 39.751854,23.504017 C39.75567,23.330889 39.720253,23.049982 39.60979,22.89603 C39.43119,22.647104 39.074528,22.549248 38.791843,22.476372 L38.791843,22.476372" /><path fill="none" stroke="#000000" stroke-width="0.06mm" d="M38.41993,22.286463 C35.51415,22.2633 35.354675,22.307148 31.646729,21.92543 C31.292664,21.88898 30.954006,21.761425 30.607645,21.679424 L30.607645,21.679424" /><defs><path id="DRAW_12186"  d="M39.395046,25.773146 C39.46832,25.551035 39.609024,25.25187 39.61889,24.98629 C39.626602,24.778492 39.552254,24.456589 39.401558,24.306269 C39.240875,24.145985 38.98372,24.231508 38.839657,24.369858 C38.37194,24.819016 38.30558,25.444475 38.231384,26.065073 C38.203968,26.294418 38.19097,26.814583 38.320168,27.045973 C38.373924,27.142248 38.481144,27.17392 38.5849,27.174158 C39.011696,27.175148 39.367195,26.578968 39.431854,26.227165 C39.52466,25.722244 39.4916,25.777206 39.42919,25.264748 L39.42919,25.264748" /></defs><use xlink:href="#DRAW_12186" fill="none" stroke="#000000" stroke-width="0.04mm" /><text style="fill:#000000; font-size:0.5mm; letter-spacing:2;"><textPath xlink:href="#DRAW_12186">||||||||||||||||||||||||||||||</textPath></text><path fill="none" stroke="#000000" stroke-width="0.06mm" d="M43.10958,26.497795 C41.651043,26.388874 42.23976,26.355755 41.341476,26.448475 L41.341476,26.448475" /><path fill="none" stroke="#000000" stroke-width="0.06mm" d="M41.982697,25.518944 C41.964256,26.515802 41.97133,27.43604 42.22932,28.375822 L42.22932,28.375822" /><path fill="none" stroke="#000000" stroke-width="0.06mm" d="M43.363792,28.675547 C42.8368,28.951256 42.266113,27.866947 41.70985,28.157488 C41.64621,28.19073 41.60486,28.249313 41.598167,28.321106 C41.58499,28.462444 41.684486,28.614859 41.736073,28.728662 L41.736073,28.728662" /><path fill="none" stroke="#000000" stroke-width="0.06mm" d="M42.40765,29.054947 C41.839447,28.82225 41.22641,28.730698 40.620575,28.827307 L40.620575,28.827307" /><path fill="none" stroke="#000000" stroke-width="0.06mm" d="M41.447712,29.430552 C41.534454,29.481579 41.621193,29.532606 41.707935,29.583632 C41.704994,29.599873 41.71289,29.623262 41.699116,29.632355 C41.66606,29.654175 41.623405,29.655897 41.584835,29.66489 C41.570076,29.668333 41.11798,29.713549 41.019386,29.832594 C40.919106,29.953676 41.11734,30.139692 41.197433,30.205397 C41.2248,30.223307 41.25216,30.241215 41.27952,30.259123 C41.307304,30.274544 41.33792,30.285702 41.362865,30.305384 C41.474575,30.393518 41.28826,30.503897 41.260162,30.582739 C41.2283,30.672148 41.274857,30.735304 41.301987,30.817183 C41.33824,30.92658 41.24321,31.010649 41.166325,31.068491 C41.01448,31.182722 40.86067,31.294313 40.70784,31.407223 L40.70784,31.407223" /><path fill="none" stroke="#000000" stroke-width="0.06mm" d="M41.54257,33.36113 C41.589584,33.24539 41.708504,33.075325 41.633358,32.937313 C41.5988,32.873848 41.53636,32.83303 41.47368,32.801327 C41.321175,32.724194 41.180798,32.833397 41.118843,32.97328 C41.07245,33.078026 41.0804,33.198666 41.12296,33.303467 C41.235428,33.580406 41.466747,33.760067 41.770576,33.66713 C41.84343,33.644848 41.911102,33.595543 41.958755,33.536724 C42.022243,33.45836 42.105976,33.25965 42.126877,33.216957 L42.126877,33.216957" /><path fill="none" stroke="#000000" stroke-width="0.06mm" d="M43.223404,33.96817 C42.701843,33.787586 42.370224,33.62024 41.846027,33.579315 C41.601418,33.560223 41.355362,33.572975 41.110027,33.5698 L41.110027,33.5698" /><path fill="none" stroke="#000000" stroke-width="0.06mm" d="M41.629837,34.271687 C41.561005,34.58306 41.56442,34.66874 41.865017,34.510277 C41.901104,34.49125 42.00802,34.42978 41.97421,34.366634 C41.96515,34.349716 41.948776,34.337048 41.932365,34.3271 C41.875244,34.292465 41.81415,34.264866 41.755043,34.23375 L41.755043,34.23375" /><path fill="none" stroke="#000000" stroke-width="0.06mm" d="M41.762634,37.094418 C41.981724,36.954414 42.072678,36.890366 41.993454,36.624344 C41.964592,36.527428 41.91411,36.41957 41.81974,36.37007 C41.723167,36.319427 41.58643,36.33374 41.593967,36.468925 C41.60059,36.587692 41.656418,36.71157 41.726013,36.806694 C41.75866,36.85131 41.80124,36.894325 41.849037,36.923424 C41.871414,36.937042 41.89572,36.947227 41.91951,36.958183 C41.9333,36.964535 41.97592,36.98068 41.961716,36.97532 C41.648506,36.8571 41.500412,36.764786 41.205376,36.73136 C41.18233,36.72875 40.494247,36.778545 40.38766,36.547356 C40.346275,36.457596 40.37024,36.278027 40.382915,36.21288 C40.424515,35.999043 40.47887,35.78772 40.53689,35.57774 C40.55317,35.518806 40.622414,35.522232 40.6634,35.543716 C40.68579,35.55545 40.70935,35.56785 40.72541,35.58737 C40.899254,35.798737 41.079155,36.006542 41.2312,36.234085 C41.39283,36.475975 41.519722,36.73935 41.663986,36.99198 L41.663986,36.99198" /><path fill="none" stroke="#000000" stroke-width="0.06mm" d="M42.358322,38.221233 C42.36325,38.03533 42.341373,37.752014 42.165565,38.021297 C42.14375,38.054714 42.127422,38.098526 42.164196,38.13035 C42.18264,38.146305 42.207016,38.15539 42.230865,38.16048 C42.314163,38.17825 42.39931,38.185806 42.483536,38.19847 L42.483536,38.19847" /><path fill="none" stroke="#000000" stroke-width="0.06mm" d="M43.405525,38.384377 L42.91228,38.259174" /><path fill="none" stroke="#000000" stroke-width="0.06mm" d="M41.774017,38.441284 C41.570663,38.530933 41.399223,38.601643 41.64101,38.761173 C41.729034,38.819252 41.80007,38.85733 41.901245,38.882217 C42.0393,38.916172 42.24754,38.85292 42.345665,38.98416 C42.44661,39.119167 42.407433,39.447857 42.403854,39.62501 L42.403854,39.62501" /><path fill="none" stroke="#000000" stroke-width="0.06mm" d="M42.58977,40.194107 C42.485172,40.086655 42.43668,40.000397 42.315403,39.943245 C42.168373,39.87395 42.026268,40.021584 41.847015,39.99254 C41.66337,39.96278 41.5911,39.88907 41.38662,39.82376 C41.305122,39.79773 41.22007,39.78185 41.134926,39.773476 C40.903816,39.750744 40.67109,39.74877 40.439575,39.73062 C40.421776,39.729225 40.40477,39.721985 40.388367,39.714935 C40.204315,39.635883 40.233162,39.356457 40.248123,39.206444 C40.248795,39.199734 40.273125,39.000576 40.317787,38.95378 C40.392483,38.87552 40.476646,38.806877 40.556072,38.733425 L40.556072,38.733425" /><path fill="none" stroke="#000000" stroke-width="0.06mm" d="M43.170288,39.86783 C42.805733,39.97968 42.488724,39.29619 42.08808,39.4188 C41.951828,39.4605 41.823036,39.58772 41.72469,39.659157 L41.72469,39.659157" /><path fill="none" stroke="#000000" stroke-width="0.06mm" d="M43.618004,42.933372 C43.660828,42.77191 43.712116,42.65635 43.703716,42.49578 C43.68814,42.19807 43.55711,41.89343 43.239193,41.832935 C43.18534,41.82269 43.088425,41.817184 43.034607,41.8319 C42.8821,41.87362 42.6043,42.0284 42.384823,42.006798 C42.14909,41.983597 42.04031,41.685707 42.11182,41.48578 C42.16143,41.347073 42.225567,41.214 42.28244,41.07811 L42.28244,41.07811" /><path fill="none" stroke="#000000" stroke-width="0.06mm" d="M45.340576,42.459126 C44.06219,42.544895 44.877033,42.54807 42.91228,42.178368 L42.91228,42.178368" /><path fill="none" stroke="#000000" stroke-width="0.06mm" d="M43.310673,42.79679 C42.928497,42.79014 42.61692,42.809162 42.52555,43.23049 C42.464912,43.510136 42.65441,43.74044 42.841343,43.924374 C42.88755,43.96984 43.019295,44.077377 43.100952,44.10518 C43.179207,44.13182 43.25934,44.154026 43.34072,44.16853 C43.40894,44.180683 43.57753,44.21714 43.64798,44.142296 C43.739376,44.04519 43.66423,43.850895 43.604588,43.76093 C43.33054,43.347546 42.711117,42.942806 42.261322,42.809578 C42.09944,42.76163 41.75145,42.743923 41.6749,42.94802 C41.583122,43.19272 41.68583,43.538708 41.78382,43.768692 C41.82973,43.87644 41.88858,43.9782 41.94096,44.082954 L41.94096,44.082954" /><path fill="none" stroke="#000000" stroke-width="0.06mm" d="M43.35241,44.60652 C42.46675,44.328735 41.58188,44.048416 40.695427,43.773163 C40.685818,43.770176 40.712395,43.783985 40.720882,43.7894 C40.95217,43.884468 41.173264,44.00969 41.414757,44.07461 C42.000977,44.232204 42.60562,44.31244 43.195747,44.45472 C43.29344,44.478275 44.006603,44.729115 43.79656,44.937088 C43.741623,44.99148 43.643055,45.03574 43.579857,45.060413 C42.989582,45.290863 42.681873,44.551346 42.395943,44.194622 C42.31396,44.092342 42.23146,44.243885 42.213455,44.307213 C42.16239,44.48685 42.10265,44.665283 42.073845,44.8498 C41.99582,45.34957 42.043438,45.86955 42.218014,46.34369 C42.273994,46.495728 42.386192,46.706715 42.541634,46.783783 C42.6344,46.829777 42.752266,46.810352 42.843204,46.77047 C43.17633,46.62437 43.343983,46.425606 43.15525,46.07225 C42.97528,45.73529 42.70746,45.51466 42.38272,45.31616 C42.09085,45.137745 41.640335,44.89438 41.357666,45.216743 C41.28154,45.303555 41.223648,45.390617 41.181152,45.497868 C40.99478,45.968224 41.287544,46.511307 41.436333,46.932243 L41.436333,46.932243" /><path fill="none" stroke="#000000" stroke-width="0.06mm" d="M39.8845,26.300508 C38.814564,25.898628 39.416862,26.069319 38.05948,25.85661 L38.05948,25.85661" /><path fill="none" stroke="#000000" stroke-width="0.06mm" d="M38.98906,25.207836 C38.969803,26.815126 38.881523,26.253212 38.99665,26.915134 L38.99665,26.915134" /><path fill="none" stroke="#000000" stroke-width="0.06mm" d="M47.514908,13.71463 C47.649265,13.714302 47.872746,13.673695 47.943165,13.836594 C47.955246,13.864536 47.97998,13.979301 47.991096,13.989063 C48.04431,14.035805 48.065636,13.892811 48.06213,13.899727 C47.99227,14.0376625 47.90789,14.171207 47.865795,14.319988 C47.856438,14.353058 47.92652,14.287773 47.956886,14.271671 C48.277946,13.956409 48.587677,13.629166 48.92008,13.325886 C49.04713,13.209965 49.36689,13.074734 49.502754,13.010078 L49.502754,13.010078" /><path fill="none" stroke="#000000" stroke-width="0.06mm" d="M51.037674,13.639145 L51.03717,13.589321" /><path fill="none" stroke="#000000" stroke-width="0.06mm" d="M37.649727,24.033867 C34.765404,23.658052 37.522514,23.964771 34.443455,23.789011 C33.688408,23.745909 32.763836,23.453934 32.05352,23.91257 C31.48233,24.281378 30.981743,25.022957 30.640312,25.473135 C30.26123,25.972954 30.270658,25.851122 30.348984,26.191797 L30.348984,26.191797" /><path fill="none" stroke="#000000" stroke-width="0.06mm" d="M30.636974,25.615852 C30.483027,25.714306 30.40562,25.786844 30.243187,25.833315 C29.942558,25.919317 29.596218,25.84554 29.35785,25.64163 C29.184357,25.493217 28.927792,25.277447 28.918894,25.014212 C28.908358,24.702526 28.961035,24.385984 28.907871,24.078686 C28.793907,23.419928 28.611061,22.773983 28.420477,22.133183 C28.11756,21.114689 28.08736,21.709862 28.00219,20.792091 C27.955246,20.286236 28.021925,19.758003 28.484951,19.467796 C28.831778,19.250416 29.771532,19.286892 29.882017,19.28495 C30.098053,19.281155 30.314955,19.304184 30.527733,19.341759 C30.745842,19.380268 30.95449,19.46088 31.169907,19.51236 C31.277748,19.538132 31.583057,19.51004 31.61689,19.508568 L31.61689,19.508568" /><defs><path id="DRAW_12221"  d="M31.100752,23.188648 C31.133104,23.050716 31.176895,22.914976 31.197807,22.77485 C31.287231,22.175652 30.935684,21.251873 30.738176,20.75364 C30.651258,20.534378 30.335646,19.939499 30.033836,19.881565 C29.845528,19.84542 29.633793,19.949196 29.484104,20.051567 C28.903996,20.4483 28.894602,21.240692 28.873697,21.86451 C28.866398,22.082294 28.879686,22.303425 28.927584,22.516003 C29.051289,23.065027 29.221363,23.602787 29.386583,24.140776 C29.393011,24.161705 29.481802,24.5577 29.630146,24.63327 C29.807348,24.723541 30.067646,24.549047 30.149096,24.397287 C30.478981,23.782629 30.809193,23.167778 31.115925,22.541246 C31.235493,22.297022 31.307579,22.02557 31.213524,21.764286 C31.19812,21.721497 31.184593,21.675201 31.15406,21.641502 C31.027042,21.5013 30.881647,21.378922 30.74544,21.247631 L30.74544,21.247631" /></defs><use xlink:href="#DRAW_12221" fill="none" stroke="#000000" stroke-width="0.04mm" /><text style="fill:#000000; font-size:0.5mm; letter-spacing:2;"><textPath xlink:href="#DRAW_12221">|||||||||||||||||||||||||||||||||||||||||||||||||||||</textPath></text><path fill="none" stroke="#000000" stroke-width="0.06mm" stroke-dasharray="0.3mm,0.1mm" d="M30.180677,24.523798 C30.23808,24.445126 30.288593,24.360931 30.352882,24.287779 C30.600082,24.006493 31.277792,23.695333 31.430645,23.623352 C32.171757,23.274345 32.92762,22.957035 33.68511,22.645168 C33.76288,22.61315 33.848236,22.600174 33.932076,22.593489 C34.250126,22.56812 34.570984,22.583158 34.88823,22.5492 C35.178154,22.518167 35.567013,22.432549 35.812546,22.241764 C35.94899,22.135744 36.00145,22.044928 36.112534,21.902115 L36.112534,21.902115" /><path fill="none" stroke="#000000" stroke-width="0.06mm" d="M32.073185,19.796543 C33.10322,19.575043 33.20655,19.447773 34.16262,19.754562 C34.6999,19.926968 35.220448,20.147728 35.749878,20.342918 C35.773247,20.351532 35.801075,20.350956 35.82096,20.365955 C35.9245,20.444065 36.017834,20.534866 36.116272,20.619324 L36.116272,20.619324" /><path fill="none" stroke="#000000" stroke-width="0.06mm" d="M32.918457,19.736706 C32.51097,19.605946 32.083725,19.535393 31.658548,19.61848 C31.562885,19.637173 31.471197,19.672367 31.377522,19.699303 L31.377522,19.699303" /><path fill="none" stroke="#000000" stroke-width="0.06mm" d="M39.306606,18.251957 C39.40855,18.237438 39.509815,18.21688 39.612434,18.208405 C39.876244,18.186611 40.09641,18.463444 40.214493,18.657722 C40.351784,18.88359 40.41967,19.147865 40.427998,19.410603 C40.43834,19.736721 40.178345,20.043262 39.838676,19.989319 C39.77942,19.979908 39.697945,19.951633 39.649117,19.915943 C39.36299,19.706787 39.102295,19.46119 38.800583,19.275223 C38.599525,19.15129 38.367462,19.086716 38.1509,18.992462 L38.1509,18.992462" /><path fill="none" stroke="#000000" stroke-width="0.06mm" d="M37.4141,19.06726 C37.209488,18.805317 37.34159,18.926537 36.991463,18.734406 L36.991463,18.734406" /><path fill="none" stroke="#000000" stroke-width="0.06mm" d="M30.809021,16.70737 C28.141623,15.450417 30.55045,16.505013 23.862339,15.291363 C23.69611,15.261196 23.53903,15.193176 23.377377,15.144085 L23.377377,15.144085" /><path fill="none" stroke="#000000" stroke-width="0.06mm" d="M31.624369,16.453056 C31.099327,16.17138 30.574286,15.889706 30.049244,15.608028 C30.039974,15.604778 30.031183,15.599472 30.021431,15.598286 C30.018436,15.597923 30.02522,15.602985 30.027115,15.605335 C30.90892,16.137321 31.796684,16.659554 32.672535,17.20129 C32.727203,17.235104 32.97822,17.388363 32.799454,17.452663 C32.75827,17.46748 32.716537,17.486027 32.672787,17.487236 C31.781221,17.51189 30.889202,17.51585 29.99741,17.530155 L29.99741,17.530155" /><path fill="none" stroke="#000000" stroke-width="0.06mm" d="M22.498444,14.886032 L19.184685,14.691555" /><path fill="none" stroke="#000000" stroke-width="0.06mm" d="M20.531132,15.783611 C18.920229,14.333397 19.468622,14.940773 18.743347,14.100651 L18.743347,14.100651" /><path fill="none" stroke="#000000" stroke-width="0.06mm" d="M20.82286,15.727512 C20.5594,15.862175 20.020084,16.084232 19.729197,16.33591 C19.533834,16.50494 19.36379,16.716827 19.384047,16.98677 C19.391537,17.086601 19.41956,17.181606 19.483837,17.259659 C19.725647,17.553288 20.393887,17.748493 20.742266,17.77531 C21.651922,17.84533 21.987892,17.844433 22.786625,17.671436 C22.809584,17.666462 23.385311,17.555626 23.310135,17.353138 C23.274782,17.257912 23.034653,17.09208 23.02206,17.08136 L23.02206,17.08136" /><path fill="none" stroke="#000000" stroke-width="0.06mm" d="M20.7518,19.321571 C20.78734,19.262451 20.988455,19.128254 21.005943,18.997166 C21.024366,18.85905 20.937515,18.708046 20.84941,18.61124 C20.610659,18.348907 20.47481,18.203312 20.20582,18.031067 C19.925648,17.851662 19.354006,17.984509 19.390326,18.391544 C19.433386,18.874126 19.679264,19.121819 20.126719,19.293762 C20.441336,19.414658 20.696392,19.442253 21.043222,19.444931 C21.192316,19.446083 21.341026,19.426033 21.488905,19.406998 C21.515812,19.403534 21.54583,19.39711 21.56487,19.377785 C21.574018,19.3685 21.565151,19.348083 21.554958,19.339958 C21.527212,19.31784 21.492903,19.304531 21.45917,19.293522 C21.293398,19.239414 21.164164,19.204933 20.992165,19.206478 C20.7481,19.208672 20.545868,19.29483 20.320246,19.406475 C20.204283,19.463856 19.714119,19.738632 19.583622,19.914745 C19.484798,20.048115 19.422388,20.204948 19.34177,20.350052 L19.34177,20.350052" /><path fill="none" stroke="#000000" stroke-width="0.06mm" d="M20.7331,20.387451 C20.622463,20.407787 20.509642,20.41859 20.40119,20.448463 C20.145348,20.518944 19.905123,20.682262 19.723116,20.87223 C19.57749,21.024223 19.512026,21.441967 19.764572,21.524014 C20.022331,21.60775 20.43672,21.359844 20.609955,21.26226 C20.749191,21.183826 20.872303,21.079498 21.007547,20.99437 C21.053074,20.965714 21.119274,20.966942 21.162266,20.999092 C21.223543,21.044922 21.259863,21.14521 21.26756,21.215965 C21.291687,21.437832 21.302721,21.660934 21.320301,21.883415 L21.320301,21.883415" /><path fill="none" stroke="#000000" stroke-width="0.06mm" d="M24.443314,22.885714 C23.470675,22.92175 22.498035,22.957783 21.525396,22.99382 C21.343555,23.021425 21.156532,23.02544 20.979876,23.07663 C20.8046,23.12742 20.645805,23.22361 20.478771,23.297104 L20.478771,23.297104" /><path fill="none" stroke="#000000" stroke-width="0.06mm" d="M22.053368,21.318687 C22.039944,22.991362 22.115883,22.10817 21.76912,23.962809 L21.76912,23.962809" /><path fill="none" stroke="#000000" stroke-width="0.06mm" d="M21.989784,24.3929 C21.517153,24.08403 21.289152,23.944782 20.735859,24.00143 C20.619965,24.013296 20.463387,24.048346 20.368248,24.12665 C20.09566,24.351004 20.089365,24.875586 20.295996,25.14449 C20.464588,25.363892 20.789152,25.442352 21.051836,25.436884 C21.40727,25.429485 21.865845,25.098919 22.063324,24.824957 C22.248583,24.567945 22.193422,24.15188 21.86094,24.051851 C21.513979,23.947468 21.081581,24.057924 20.748058,24.101187 L20.748058,24.101187" /><path fill="none" stroke="#000000" stroke-width="0.06mm" d="M16.334702,18.442692 C16.605738,18.611347 16.885324,18.766983 17.147808,18.948662 C17.274475,19.055275 17.401142,19.161892 17.52781,19.268509 C17.531065,19.282074 17.547869,19.299786 17.537577,19.309208 C17.522236,19.32325 17.495758,19.32138 17.475588,19.316307 C16.990143,19.19416 16.116453,18.86121 15.45776,18.83712 C15.343712,18.832947 15.41245,19.010021 15.434332,19.04892 C15.480402,19.130821 15.528559,19.211845 15.582971,19.28846 C15.767027,19.547607 15.934954,19.48389 15.789961,19.813591 C15.757362,19.887718 15.71404,19.957977 15.6920185,20.035904 C15.604218,20.346603 15.496047,20.824871 15.587953,21.156773 C15.639645,21.343449 15.832546,21.987247 16.04763,22.118578 C16.338974,22.296473 16.603926,21.848186 16.708824,21.674698 C16.830112,21.458473 16.951399,21.242249 17.072685,21.026024 C17.085344,21.02964 17.101395,21.027515 17.110662,21.036865 C17.128706,21.055069 17.144184,21.07822 17.14932,21.103333 C17.248604,21.588673 17.331827,22.077166 17.42308,22.56408 L17.42308,22.56408" /><path fill="none" stroke="#000000" stroke-width="0.06mm" d="M17.44178,23.3906 C16.751398,23.310522 16.3349,23.125961 15.746457,23.40301 C15.53552,23.502323 15.456968,23.665905 15.431743,23.892563 C15.410441,24.08396 15.491707,24.23635 15.673659,24.303795 C16.197817,24.498083 17.407846,23.620657 17.409622,23.783747 C17.409868,23.806467 17.395205,23.827711 17.38153,23.845858 C17.281534,23.978554 17.1649,24.098564 17.069742,24.234772 C16.949646,24.406677 16.875046,24.628658 16.798477,24.81925 L16.798477,24.81925" /><path fill="none" stroke="#000000" stroke-width="0.06mm" d="M17.613827,26.595713 C17.612358,26.494823 17.617748,26.393604 17.609423,26.293053 C17.589067,26.047234 17.41481,25.788107 17.228813,25.635326 C17.071331,25.505968 16.721382,25.315546 16.50558,25.376915 C16.333378,25.425884 16.216475,25.65966 16.152332,25.794926 C15.9265175,26.271122 15.874538,26.553171 16.207205,26.978218 C16.24182,27.022448 16.282652,27.063835 16.334549,27.087227 C16.586832,27.200928 17.029411,26.980833 17.17653,26.771732 C17.243618,26.676382 17.305227,26.500727 17.326813,26.4089 C17.378532,26.188866 17.412216,25.905539 17.345188,25.682035 C17.318432,25.59282 17.284914,25.50577 17.254776,25.417637 L17.254776,25.417637" /><path fill="none" stroke="#000000" stroke-width="0.06mm" d="M19.831726,26.487255 C19.488201,26.315422 19.67079,26.395487 19.281929,26.25164 L19.281929,26.25164" /><path fill="none" stroke="#000000" stroke-width="0.06mm" d="M18.066383,29.086494 C18.219341,28.92823 18.440437,28.71687 18.327974,28.469961 C18.252073,28.303318 18.127739,28.17604 17.991371,28.050253 C17.840736,27.911304 17.678633,27.784885 17.514103,27.66271 C17.219858,27.444214 16.944408,27.431318 16.677252,27.69009 C16.32874,28.027664 16.567516,28.710821 16.912855,28.961151 C16.953537,28.99064 16.997955,29.014841 17.04264,29.037819 C17.112883,29.073938 17.27954,29.062468 17.25726,29.138247 C17.234482,29.215721 17.095753,29.127712 17.015089,29.13153 C16.620615,29.1502 16.488186,29.449097 16.286083,29.74846 L16.286083,29.74846" /><path fill="none" stroke="#000000" stroke-width="0.06mm" d="M17.763435,29.91302 L17.550247,29.587645" /><path fill="none" stroke="#000000" stroke-width="0.06mm" d="M17.93922,31.51744 C17.963764,31.357931 18.02902,31.175173 17.873806,31.070738 C17.783436,31.009935 17.67565,30.974756 17.569374,30.955973 C17.4202,30.929605 17.0647,30.848858 16.886564,30.953115 C16.698637,31.0631 16.659912,31.332037 16.603992,31.50996 L16.603992,31.50996" /><path fill="none" stroke="#000000" stroke-width="0.06mm" d="M20.13094,31.375324 C20.08401,31.300497 20.041336,31.222822 19.99015,31.150839 C19.91907,31.050877 19.743868,30.960518 19.633615,30.937555 C19.235888,30.85471 18.83315,30.798063 18.432919,30.728317 L18.432919,30.728317" /><path fill="none" stroke="#000000" stroke-width="0.06mm" d="M19.573658,34.255062 L19.285164,34.315403" /><path fill="none" stroke="#000000" stroke-width="0.06mm" d="M17.662449,33.263985 L17.51234,33.436523" /><path fill="none" stroke="#000000" stroke-width="0.06mm" d="M22.113209,33.69033 C21.451424,34.288174 20.809387,34.90863 20.127851,35.483856 C19.922522,35.657158 19.696259,35.808186 19.457628,35.93167 C19.219677,36.054806 18.964447,36.144875 18.707014,36.219116 C18.61351,36.24608 17.601788,36.540955 17.332634,36.417114 C16.856863,36.198204 16.786823,35.398636 16.709475,35.01345 C16.32172,33.082535 16.83992,33.593918 16.226238,33.050808 L16.226238,33.050808" /><path fill="none" stroke="#000000" stroke-width="0.06mm" d="M23.16927,43.160408 L23.103874,44.48329" /><path fill="none" stroke="#000000" stroke-width="0.06mm" d="M23.047394,43.368504 C23.05671,43.292072 23.045269,43.182022 23.109737,43.119766 C23.148825,43.08202 23.206718,43.066692 23.259098,43.062244 C23.43885,43.04698 23.647987,43.12929 23.726284,43.30233 C23.823719,43.51767 23.689682,43.66233 23.504942,43.757454 C23.281557,43.872482 23.154089,43.877213 22.883902,43.939274 L22.883902,43.939274" /><path fill="none" stroke="#000000" stroke-width="0.06mm" d="M29.711956,53.38079 C29.498363,53.863976 29.386497,54.3818 29.34038,54.908794 L29.34038,54.908794" /><path fill="none" stroke="#000000" stroke-width="0.06mm" d="M29.593052,53.339172 C29.673805,53.338715 29.79992,53.307 29.880909,53.361996 C29.91623,53.38598 29.940977,53.425686 29.95174,53.466568 C29.99088,53.61522 29.90024,53.71694 29.769125,53.778732 C29.628063,53.845207 29.51662,53.813805 29.36416,53.79103 L29.36416,53.79103" /><path fill="none" stroke="#000000" stroke-width="0.06mm" d="M30.579952,53.707794 C30.500723,53.712917 30.42107,53.71351 30.342262,53.723164 C30.159405,53.745567 30.028969,53.96065 29.952396,54.09376 C29.855936,54.261444 29.62942,54.704094 29.911688,54.835827 C29.961065,54.85887 30.022734,54.87618 30.077995,54.86696 C30.156986,54.853783 30.257656,54.71845 30.210747,54.641876 C30.19673,54.619 30.134926,54.60731 30.117382,54.6277 C30.053844,54.70155 30.01158,54.791313 29.95868,54.87312 L29.95868,54.87312" /><path fill="none" stroke="#000000" stroke-width="0.06mm" d="M24.836731,43.16709 C24.5723,43.167824 24.264444,43.213448 24.097916,43.447628 C23.985561,43.60563 23.947401,43.738796 23.887606,43.93786 C23.830404,44.12828 23.848583,44.353336 23.9436,44.528984 C24.06577,44.754826 24.344017,45.02186 24.61581,44.86189 C24.697052,44.814075 24.908094,44.704903 24.977716,44.591904 C25.114334,44.370163 24.763641,44.100033 24.55397,44.14336 C24.171959,44.222298 24.284595,44.15488 24.084663,44.406734 L24.084663,44.406734" /></g>
<g>
<line fill="none" stroke="#5674b9" stroke-width="0.05mm" stroke-dasharray="0.4,0.2" opacity="0.77" x1="22.00" y1="54.00" x2="20.48" y2="49.28" />
<line fill="none" stroke="#5674b9" stroke-width="0.05mm" stroke-dasharray="0.4,0.2" opacity="0.78" x1="22.00" y1="54.00" x2="21.91" y2="49.77" />
<line fill="none" stroke="#5674b9" stroke-width="0.05mm" stroke-dasharray="0.4,0.2" opacity="0.79" x1="22.00" y1="54.00" x2="20.43" y2="45.92" />
<line fill="none" stroke="#5674b9" stroke-width="0.05mm" stroke-dasharray="0.4,0.2" opacity="0.77" x1="22.00" y1="54.00" x2="21.57" y2="45.28" />
<line fill="none" stroke="#111111" stroke-width="0.05mm" x1="22.00" y1="54.00" x2="21.26" y2="45.60" />
<line fill="none" stroke="#5674b9" stroke-width="0.05mm" stroke-dasharray="0.4,0.2" opacity="0.47" x1="21.26" y1="45.60" x2="25.57" y2="47.25" />
<line fill="none" stroke="#5674b9" stroke-width="0.05mm" stroke-dasharray="0.4,0.2" opacity="0.29" x1="21.26" y1="45.60" x2="27.96" y2="47.56" />
<line fill="none" stroke="#5674b9" stroke-width="0.05mm" stroke-dasharray="0.4,0.2" opacity="0.29" x1="21.26" y1="45.60" x2="23.62" y2="46.45" />
<line fill="none" stroke="#5674b9" stroke-width="0.05mm" stroke-dasharray="0.4,0.2" opacity="0.46" x1="21.26" y1="45.60" x2="25.21" y2="47.61" />
<line fill="none" stroke="#111111" stroke-width="0.05mm" x1="21.26" y1="45.60" x2="29.05" y2="47.71" />
<line fill="none" stroke="#5674b9" stroke-width="0.05mm" stroke-dasharray="0.4,0.2" opacity="0.90" x1="29.05" y1="47.71" x2="27.50" y2="50.33" />
<line fill="none" stroke="#00aeef" stroke-width="0.05mm" stroke-dasharray="0.4,0.2" opacity="0.66" x1="29.05" y1="47.71" x2="27.17" y2="48.36" />
<line fill="none" stroke="#00aeef" stroke-width="0.05mm" stroke-dasharray="0.4,0.2" opacity="0.69" x1="29.05" y1="47.71" x2="29.46" y2="47.88" />
<line fill="none" stroke="#00aeef" stroke-width="0.05mm" stroke-dasharray="0.4,0.2" opacity="0.05" x1="29.05" y1="47.71" x2="28.72" y2="47.85" />
<line fill="none" stroke="#111111" stroke-width="0.05mm" x1="29.05" y1="47.71" x2="29.73" y2="51.43" />
<line fill="none" stroke="#5674b9" stroke-width="0.05mm" stroke-dasharray="0.4,0.2" opacity="0.24" x1="29.73" y1="51.43" x2="30.16" y2="51.02" />
<line fill="none" stroke="#5674b9" stroke-width="0.05mm" stroke-dasharray="0.4,0.2" opacity="0.21" x1="29.73" y1="51.43" x2="29.56" y2="51.94" />
<line fill="none" stroke="#5674b9" stroke-width="0.05mm" stroke-dasharray="0.4,0.2" opacity="0.54" x1="29.73" y1="51.43" x2="30.89" y2="50.16" />
<line fill="none" stroke="#5674b9" stroke-width="0.05mm" stroke-dasharray="0.4,0.2" opacity="0.38" x1="29.73" y1="51.43" x2="30.90" y2="51.47" />
<line fill="none" stroke="#111111" stroke-width="0.05mm" x1="29.73" y1="51.43" x2="33.88" y2="52.49" />
<line fill="none" stroke="#00aeef" stroke-width="0.05mm" stroke-dasharray="0.4,0.2" opacity="0.99" x1="33.88" y1="52.49" x2="32.53" y2="52.50" />
<line fill="none" stroke="#5674b9" stroke-width="0.05mm" stroke-dasharray="0.4,0.2" opacity="0.10" x1="33.88" y1="52.49" x2="33.74" y2="52.35" />
<line fill="none" stroke="#00aeef" stroke-width="0.05mm" stroke-dasharray="0.4,0.2" opacity="0.21" x1="33.88" y1="52.49" x2="31.04" y2="52.82" />
<line fill="none" stroke="#111111" stroke-width="0.05mm" x1="33.88" y1="52.49" x2="32.62" y2="58.41" />
<line fill="none" stroke="#5674b9" stroke-width="0.05mm" stroke-dasharray="0.4,0.2" opacity="0.85" x1="32.62" y1="58.41" x2="31.43" y2="54.18" />
<line fill="none" stroke="#5674b9" stroke-width="0.05mm" stroke-dasharray="0.4,0.2" opacity="0.80" x1="32.62" y1="58.41" x2="31.11" y2="56.35" />
<line fill="none" stroke="#00aeef" stroke-width="0.05mm" stroke-dasharray="0.4,0.2" opacity="0.99" x1="32.62" y1="58.41" x2="33.20" y2="56.11" />
<line fill="none" stroke="#111111" stroke-width="0.05mm" x1="32.62" y1="58.41" x2="31.07" y2="47.99" />
<line fill="none" stroke="#00aeef" stroke-width="0.05mm" stroke-dasharray="0.4,0.2" opacity="0.91" x1="31.07" y1="47.99" x2="32.41" y2="48.11" />
<line fill="none" stroke="#00aeef" stroke-width="0.05mm" stroke-dasharray="0.4,0.2" opacity="0.22" x1="31.07" y1="47.99" x2="31.47" y2="47.83" />
<line fill="none" stroke="#111111" stroke-width="0.05mm" x1="31.07" y1="47.99" x2="34.80" y2="41.74" />
<line fill="none" stroke="#00aeef" stroke-width="0.05mm" stroke-dasharray="0.4,0.2" opacity="0.86" x1="34.80" y1="41.74" x2="33.09" y2="41.21" />
<line fill="none" stroke="#111111" stroke-width="0.05mm" x1="34.80" y1="41.74" x2="34.91" y2="35.45" />
<line fill="none" stroke="#00aeef" stroke-width="0.05mm" stroke-dasharray="0.4,0.2" opacity="0.90" x1="34.91" y1="35.45" x2="35.99" y2="35.60" />
<line fill="none" stroke="#111111" stroke-width="0.05mm" x1="34.91" y1="35.45" x2="38.98" y2="23.06" />
<line fill="none" stroke="#5674b9" stroke-width="0.05mm" stroke-dasharray="0.4,0.2" opacity="0.76" x1="38.98" y1="23.06" x2="38.12" y2="24.00" />
<line fill="none" stroke="#00aeef" stroke-width="0.05mm" stroke-dasharray="0.4,0.2" opacity="0.75" x1="38.98" y1="23.06" x2="38.91" y2="24.52" />
<line fill="none" stroke="#00aeef" stroke-width="0.05mm" stroke-dasharray="0.4,0.2" opacity="0.81" x1="38.98" y1="23.06" x2="38.49" y2="26.95" />
<line fill="none" stroke="#5674b9" stroke-width="0.05mm" stroke-dasharray="0.4,0.2" opacity="0.72" x1="38.98" y1="23.06" x2="31.31" y2="22.87" />
<line fill="none" stroke="#5674b9" stroke-width="0.05mm" stroke-dasharray="0.4,0.2" opacity="0.72" x1="38.98" y1="23.06" x2="36.22" y2="22.99" />
<line fill="none" stroke="#5674b9" stroke-width="0.05mm" stroke-dasharray="0.4,0.2" opacity="0.72" x1="38.98" y1="23.06" x2="29.57" y2="22.84" />
<line fill="none" stroke="#5674b9" stroke-width="0.05mm" stroke-dasharray="0.4,0.2" opacity="0.72" x1="38.98" y1="23.06" x2="28.74" y2="22.83" />
<line fill="none" stroke="#5674b9" stroke-width="0.05mm" stroke-dasharray="0.4,0.2" opacity="0.72" x1="38.98" y1="23.06" x2="31.27" y2="22.87" />
<line fill="none" stroke="#5674b9" stroke-width="0.05mm" stroke-dasharray="0.4,0.2" opacity="0.72" x1="38.98" y1="23.06" x2="31.23" y2="22.87" />
<line fill="none" stroke="#111111" stroke-width="0.05mm" x1="38.98" y1="23.06" x2="28.75" y2="22.78" />
<line fill="none" stroke="#00aeef" stroke-width="0.05mm" stroke-dasharray="0.4,0.2" opacity="0.99" x1="28.75" y1="22.78" x2="27.84" y2="19.81" />
<line fill="none" stroke="#00aeef" stroke-width="0.05mm" stroke-dasharray="0.4,0.2" opacity="0.78" x1="28.75" y1="22.78" x2="30.43" y2="25.90" />
<line fill="none" stroke="#5674b9" stroke-width="0.05mm" stroke-dasharray="0.4,0.2" opacity="0.22" x1="28.75" y1="22.78" x2="32.50" y2="19.44" />
<line fill="none" stroke="#5674b9" stroke-width="0.05mm" stroke-dasharray="0.4,0.2" opacity="0.25" x1="28.75" y1="22.78" x2="33.40" y2="22.85" />
<line fill="none" stroke="#111111" stroke-width="0.05mm" x1="28.75" y1="22.78" x2="35.64" y2="21.06" />
</g>
<g>
<circle cx="22.00" cy="54.00" r="0.1" fill="#111111" />
<circle cx="21.26" cy="45.60" r="0.1" fill="#111111" />
<circle cx="29.05" cy="47.71" r="0.1" fill="#111111" />
<circle cx="29.73" cy="51.43" r="0.1" fill="#111111" />
<circle cx="33.88" cy="52.49" r="0.1" fill="#111111" />
<circle cx="32.62" cy="58.41" r="0.1" fill="#111111" />
<circle cx="31.07" cy="47.99" r="0.1" fill="#111111" />
<circle cx="34.80" cy="41.74" r="0.1" fill="#111111" />
<circle cx="34.91" cy="35.45" r="0.1" fill="#111111" />
<circle cx="38.98" cy="23.06" r="0.1" fill="#111111" />
<circle cx="28.75" cy="22.78" r="0.1" fill="#111111" />
<circle cx="35.64" cy="21.06" r="0.1" fill="#111111" />
</g>
<g>
<text x="22.20" y="54.00" font-size=".2mm" fill="#000000">0</text>
<text x="21.46" y="45.60" font-size=".2mm" fill="#000000">1</text>
<text x="29.25" y="47.71" font-size=".2mm" fill="#000000">2</text>
<text x="29.93" y="51.43" font-size=".2mm" fill="#000000">3</text>
<text x="34.08" y="52.49" font-size=".2mm" fill="#000000">4</text>
<text x="32.82" y="58.41" font-size=".2mm" fill="#000000">5</text>
<text x="31.27" y="47.99" font-size=".2mm" fill="#000000">6</text>
<text x="35.00" y="41.74" font-size=".2mm" fill="#000000">7</text>
<text x="35.11" y="35.45" font-size=".2mm" fill="#000000">8</text>
<text x="39.18" y="23.06" font-size=".2mm" fill="#000000">9</text>
<text x="28.95" y="22.78" font-size=".2mm" fill="#000000">10</text>
<text x="35.84" y="21.06" font-size=".2mm" fill="#000000">11</text>
</g>
<g>
</g>
</g>
</svg>