<?xml version="1.0" encoding="utf-8"?>
<!DOCTYPE svg PUBLIC "-//W3C//DTD SVG 1.1//EN" "http://www.w3.org/Graphics/SVG/1.1/DTD/svg11.dtd">
<svg version="1.1" id="Layer_1" xmlns="http://www.w3.org/2000/svg" xmlns:xlink="http://www.w3.org/1999/xlink" x="0px" y="0px" width="161mm" height="119mm" viewBox="0 0 161 119" style="background-color:#ffffff;enable-background:new 0 0 161 119;" xml:space="preserve">
<symbol id="airflow" viewBox="-12 -12 24 24">
<path d="M-4.38,10.73l4.2-3.84V3.55L-4.07,7.13l-.31-.29L-.18,3V-6.89a3.37,3.37,0,0,0-1.68.53l1.68-4.15L0-11l.21.51h0v0l1.65,4.1A3.26,3.26,0,0,0,.24-6.89v14l-.08,0L-4.07,11Z"/>
<rect fill="none" x="-12" y="-12" width="24" height="24"/>
</symbol>
<symbol id="anastomosis" viewBox="-12 -12 24 24">
<path d="M2.23-4.78l.37.24L5.22-2.78l-.47.57L2.49-3.7l-4.61,8-.24.44-.37-.34L-5.22,2.3l.55-.52,2.1,1.82L2-4.39Z"/>
<rect fill="none" x="-12" y="-12" width="24" height="24"/>
</symbol>
<symbol id="bivouac" viewBox="-12 -12 24 24">
<path d="M.25-7.66l.24.58L.54-7l3.88.48-3.31.91L6,6H8.35v.48l-16.7.07V6.05h2.64L0-7.08Zm0,1.32L-5.13,6H-4l2.07-5L.2-4l2.09,5L4.37,6H5.44Z"/>
<rect fill="none" x="-12" y="-12" width="24" height="24"/>
</symbol>
<symbol id="bones" viewBox="-12 -12 24 24">
<path d="M2.44,4.27l-.16,0H2.13a.22.22,0,0,1-.11,0l-.1-.06a.39.39,0,0,1-.09-.11l-.08-.13a1.51,1.51,0,0,1-.06-.15l-.07-.17s0-.11-.08-.19-.06-.16-.08-.21a4.75,4.75,0,0,0-.38-.71c-.18-.29-.43-.64-.74-1A11.15,11.15,0,0,0-.7.32,6.73,6.73,0,0,0-2-.64a4.12,4.12,0,0,0-1.44-.52A1.64,1.64,0,0,1-5-2.19.72.72,0,0,1-5-2.44a1,1,0,0,1,0-.29A.52.52,0,0,1-4.87-3a.54.54,0,0,1,.35-.15L-4-3.22l.46,0a.54.54,0,0,0,.27-.06A.52.52,0,0,0-3-3.56a.74.74,0,0,0,.13-.31.54.54,0,0,1,.15-.26.54.54,0,0,1,.3-.15.83.83,0,0,1,.47,0,1.11,1.11,0,0,1,.35.4A7.46,7.46,0,0,1-1-2.76q.18.42.33.72a3.22,3.22,0,0,0,.39.57L.1-1a4.77,4.77,0,0,0,.58.43c.28.18.51.33.69.43l1,.56a1.84,1.84,0,0,0,.39.23A5.29,5.29,0,0,1,3.22.9l.43.26a3.7,3.7,0,0,1,.46.3l.36.29a2.28,2.28,0,0,1,.31.32A1,1,0,0,1,5,2.4c.2.48,0,.78-.47.91h0a8.48,8.48,0,0,0-1.12.09,1,1,0,0,0-.42.44A1,1,0,0,1,2.44,4.27Z"/>
<rect fill="none" x="-12" y="-12" width="24" height="24"/>
</symbol>
<symbol id="calcite" viewBox="-12 -12 24 24">
<path d="M2.36-2.22l.05.46.34,3.91L2,2.22,1.65-1.26-2.52-.06l-.23-.7L1.89-2.08Z"/>
<rect fill="none" x="-12" y="-12" width="24" height="24"/>
</symbol>
<symbol id="cauliflower" viewBox="-12 -12 24 24">
<path d="M5.58,3.22v-3A2.12,2.12,0,0,0,6.92-.43a1.78,1.78,0,0,0,.55-1.32,1.92,1.92,0,0,0-.65-1.42,2.19,2.19,0,0,0-1.53-.59,2.21,2.21,0,0,0-1.54.59,1.78,1.78,0,0,0-.64,1.42A1.86,1.86,0,0,0,3.65-.43,2.12,2.12,0,0,0,5,.23v3H.26v-3A2.17,2.17,0,0,0,1.61-.43a1.81,1.81,0,0,0,.54-1.32,1.91,1.91,0,0,0-.64-1.42A2.21,2.21,0,0,0,0-3.76a2.21,2.21,0,0,0-1.54.59,1.82,1.82,0,0,0-.64,1.42A1.83,1.83,0,0,0-1.66-.43,2.12,2.12,0,0,0-.32.23v3H-5v-3A2.12,2.12,0,0,0-3.71-.43a1.78,1.78,0,0,0,.55-1.32,1.92,1.92,0,0,0-.65-1.42,2.19,2.19,0,0,0-1.53-.59,2.21,2.21,0,0,0-1.54.59,1.83,1.83,0,0,0-.65,1.42A1.87,1.87,0,0,0-7-.43,2.12,2.12,0,0,0-5.64.23v3H-8v.54H8V3.22Z"/>
<rect fill="none" x="-12" y="-12" width="24" height="24"/>
</symbol>
<symbol id="clay" viewBox="-12 -12 24 24">
<path d="M1.85-1.33a3,3,0,0,1,1.67.48,3.23,3.23,0,0,1,1,1l.29.51-1,.43a3.81,3.81,0,0,0-.23-.4A3.74,3.74,0,0,0,2.93,0,1.77,1.77,0,0,0,1.85-.32a2.57,2.57,0,0,0-1.1.15A.86.86,0,0,0,.51.14,2.23,2.23,0,0,1,0,.88a2.55,2.55,0,0,1-1.45.43,3.16,3.16,0,0,1-2.75-1,4.28,4.28,0,0,1-.37-.57,3.91,3.91,0,0,1-.21-.47l0-.16,1-.22a1.87,1.87,0,0,0,.45.79A2.12,2.12,0,0,0-1.51.33,1.82,1.82,0,0,0-.69.14l.21-.36A1.53,1.53,0,0,1,.17-1,3.76,3.76,0,0,1,1.85-1.33Z"/>
<rect fill="none" x="-12" y="-12" width="24" height="24"/>
</symbol>
<symbol id="crystals" viewBox="-12 -12 24 24">
<path d="M-2.94-5.38,0-.72,2.94-5.38,3.62-5,.68-.36H6.56V.36H.68L3.62,5l-.68.36L0,.72-2.94,5.38-3.62,5-.68.36H-6.56V-.36H-.68L-3.62-5Z"/>
<rect fill="none" x="-12" y="-12" width="24" height="24"/>
</symbol>
<symbol id="curtain" viewBox="-12 -12 24 24">
<path d="M3.57-6.69l.52.53L.39-3V-.33L.1-.26a3.79,3.79,0,0,0-1,.41c-.58.3-.87.65-.87,1v.07A1.61,1.61,0,0,0-.84,2.48a3.69,3.69,0,0,0,.45.24L0,2.86l.13.05L.39,3V6.12H-.39V3.51a7.65,7.65,0,0,1-.9-.46A2.19,2.19,0,0,1-2.54,1.28V1.23A2,2,0,0,1-1.31-.48,5.32,5.32,0,0,1-.39-.86V-3l-3.7-3.14.52-.53L0-3.67Z"/>
<rect fill="none" x="-12" y="-12" width="24" height="24"/>
</symbol>
<symbol id="disk" viewBox="-12 -12 24 24">
<path d="M-.09-4.19a2.43,2.43,0,0,1,1.7.64A2,2,0,0,1,2.35-2,2.09,2.09,0,0,1,1.81-.55,2.44,2.44,0,0,1,.35.23l2.18,3.6-.68.33L0,1.14-1.48,4.19l-.71-.29L-.41.25A2.53,2.53,0,0,1-1.9-.47a2,2,0,0,1-.63-1.41,2,2,0,0,1,.67-1.61,2.46,2.46,0,0,1,1.72-.7ZM1.05-3.06.56-3.49l-.69,0A1.72,1.72,0,0,0-1.29-3a1.51,1.51,0,0,0-.45,1.08,1.36,1.36,0,0,0,.51,1A1.68,1.68,0,0,0-.07-.44v0l0,0A1.7,1.7,0,0,0,1.11-.92,1.36,1.36,0,0,0,1.56-2,1.47,1.47,0,0,0,1.05-3.06Z"/>
<rect fill="none" x="-12" y="-12" width="24" height="24"/>
</symbol>
<symbol id="entrance" viewBox="-12 -12 24 24">
<path d="M4.46,9H-4.46L0-9Z"/>
<rect fill="none" x="-12" y="-12" width="24" height="24"/>
</symbol>
<symbol id="flowstone" viewBox="-12 -12 24 24">
<rect x="-6" y="-0.21" width="12" height="0.42"/>
<rect fill="none" x="-12" y="-12" width="24" height="24"/>
</symbol>
<symbol id="flutes" viewBox="-12 -12 24 24">
<path d="M-7-1H7v.72H3.87A4.7,4.7,0,0,1,2.16,1.5,4.2,4.2,0,0,1,0,2.13,3.94,3.94,0,0,1-2.19,1.5,4.18,4.18,0,0,1-3.76-.27H-7Zm4.17.72A3.15,3.15,0,0,0-1.65,1,3.21,3.21,0,0,0,0,1.41,3.49,3.49,0,0,0,1.6,1,3.68,3.68,0,0,0,3-.27Z"/>
<rect fill="none" x="-12" y="-12" width="24" height="24"/>
</symbol>
<symbol id="gradient" viewBox="-12 -12 24 24">
<path d="M2.58-3.83,0-10-2.58-3.83A4.74,4.74,0,0,1-.17-4.5V10H.25V-4.5A6.65,6.65,0,0,1,2.58-3.83Z"/>
<rect fill="none" x="-12" y="-12" width="24" height="24"/>
</symbol>
<symbol id="guano" viewBox="-12 -12 24 24">
<path d="M-3.24-3a2.15,2.15,0,0,1,1.57.55A3.93,3.93,0,0,1-.59.24a4.32,4.32,0,0,1,2.75-2.3,2.68,2.68,0,0,1,2.23.36A2.36,2.36,0,0,1,5.5.19l-.79,0a1.72,1.72,0,0,0-.79-1.37,1.94,1.94,0,0,0-1.55-.24A3.53,3.53,0,0,0,.48,0,6.63,6.63,0,0,0-.69,3l-.79-.09a10.72,10.72,0,0,0,0-3.16A3.21,3.21,0,0,0-2.22-2,1.44,1.44,0,0,0-3.37-2.3,3.45,3.45,0,0,0-5-1.54l-.5-.55a4.29,4.29,0,0,1,2-.91A.9.9,0,0,1-3.24-3Z"/>
<rect fill="none" x="-12" y="-12" width="24" height="24"/>
</symbol>
<symbol id="helictites" viewBox="-12 -12 24 24">
<path d="M-4.59-7.92h.79v7.7l3.41,0V-7.92H.39V-.17L4.2-.12h.39v8H3.8V.6L.39.55V7.92H-.39V.55L-4.2.5l-.39,0v-8.4Z"/>
<rect fill="none" x="-12" y="-12" width="24" height="24"/>
</symbol>
<symbol id="human" viewBox="-12 -12 24 24">
<path d="M-3.59-3.29A5.13,5.13,0,0,1,0-4.66,5.13,5.13,0,0,1,3.59-3.29,4.3,4.3,0,0,1,5.09,0a4.3,4.3,0,0,1-1.5,3.29A5.13,5.13,0,0,1,0,4.66,5.13,5.13,0,0,1-3.59,3.29,4.3,4.3,0,0,1-5.09,0,4.3,4.3,0,0,1-3.59-3.29Zm.28.77A3.68,3.68,0,0,0-4.3,0a3.62,3.62,0,0,0,1,2.57L-.5.05ZM0-3.94A4.42,4.42,0,0,0-2.75-3L.16-.36H4.28A3.62,3.62,0,0,0,2.91-2.9,4.38,4.38,0,0,0,0-3.94ZM.16.46-2.7,3.07A4.42,4.42,0,0,0,0,3.94a4.37,4.37,0,0,0,2.87-1A3.78,3.78,0,0,0,4.28.46Z"/>
<rect fill="none" x="-12" y="-12" width="24" height="24"/>
</symbol>
<symbol id="karren" viewBox="-12 -12 24 24">
<path d="M1-5.84h0a1.37,1.37,0,0,1,1.06.68A3.33,3.33,0,0,1,2.5-3.79,25.79,25.79,0,0,1,2.36,0a18.61,18.61,0,0,0-.08,3.72,2.68,2.68,0,0,0,.41,1.2,1.13,1.13,0,0,0,.79.5A.92.92,0,0,0,4,4.94a4.43,4.43,0,0,0,.47-1.22c.16-.64.36-1.86.59-3.66a26.71,26.71,0,0,1,.64-3.69,4.62,4.62,0,0,1,.57-1.29,1.34,1.34,0,0,1,1-.59h0A1.28,1.28,0,0,1,8.37-5a2.17,2.17,0,0,1,.39,1.15A19.91,19.91,0,0,1,8.54-.53a21.51,21.51,0,0,0-.2,3.64A2.64,2.64,0,0,0,9.45,5.36,1.91,1.91,0,0,0,10.88,5a3.84,3.84,0,0,0,.7-1l.42.2-.1.18-.12.21-.11.18L11.52,5a.94.94,0,0,1-.14.16c-.06.07-.13.12-.19.18a2.5,2.5,0,0,1-1.85.41H9.29l0,0A3.06,3.06,0,0,1,7.87,3.13a22.11,22.11,0,0,1,.2-3.7,18.17,18.17,0,0,0,.22-3.28A1.85,1.85,0,0,0,8-4.79a.77.77,0,0,0-.67-.3.93.93,0,0,0-.64.42,4.51,4.51,0,0,0-.51,1.15A26.26,26.26,0,0,0,5.54.1c-.24,1.83-.45,3.07-.61,3.72a5.38,5.38,0,0,1-.51,1.34,1.33,1.33,0,0,1-.89.68H3.47A1.58,1.58,0,0,1,2.3,5.16a3.29,3.29,0,0,1-.49-1.4A20.27,20.27,0,0,1,1.89,0,23.45,23.45,0,0,0,2-3.75a2.94,2.94,0,0,0-.32-1.19A.93.93,0,0,0,1-5.42,1.1,1.1,0,0,0,.19-5,3.69,3.69,0,0,0-.43-3.76,20.78,20.78,0,0,0-1.07.07c-.2,2-.37,3.32-.49,3.86A4.48,4.48,0,0,1-2,5.26,1.06,1.06,0,0,1-3,5.81h0a1.9,1.9,0,0,1-1.29-.67,2.7,2.7,0,0,1-.58-1.31,14.92,14.92,0,0,1,0-3.6q0-.12.06-.54c0-.28,0-.47,0-.57s0-.28,0-.52,0-.42,0-.55,0-.28,0-.47,0-.36,0-.51,0-.29,0-.43A3.09,3.09,0,0,0-5-4.62a1.19,1.19,0,0,0-.67-.6,1.5,1.5,0,0,0-1.2.9A7,7,0,0,0-7.41-2.1c0,.39-.1,1-.14,1.76s-.11,1.47-.18,2.08A9.61,9.61,0,0,1-8,3.32h0l0,0A2.81,2.81,0,0,1-9.2,4.62a1.82,1.82,0,0,1-1.35.15A1.94,1.94,0,0,1-11.61,4,2.39,2.39,0,0,1-12,2.56l.47,0a1.92,1.92,0,0,0,.31,1.16,1.47,1.47,0,0,0,.81.62,1.3,1.3,0,0,0,1-.11A2.32,2.32,0,0,0-8.5,3.18a7.53,7.53,0,0,0,.29-1.5Q-8.1.8-8-.36c0-.78.1-1.37.16-1.78A7.23,7.23,0,0,1-7.28-4.5,1.93,1.93,0,0,1-5.65-5.66h.05l0,0a1.59,1.59,0,0,1,1,.84,3.47,3.47,0,0,1,.34,1.41,4.91,4.91,0,0,1,0,.57v.54c0,.15,0,.37,0,.66s0,.47,0,.58,0,.33-.06.68,0,.56-.06.63a14.78,14.78,0,0,0,0,3.49,2.58,2.58,0,0,0,.5,1.13,1.57,1.57,0,0,0,1,.5A.61.61,0,0,0-2.44,5,3.89,3.89,0,0,0-2,3.85C-1.9,3.31-1.74,2-1.53,0A20.65,20.65,0,0,1-.86-3.89,3.89,3.89,0,0,1-.18-5.26,1.58,1.58,0,0,1,1-5.84Z"/>
<rect fill="none" x="-12" y="-12" width="24" height="24"/>
</symbol>
<symbol id="moonmilk" viewBox="-12 -12 24 24">
<path d="M-4.78-3.06a3.39,3.39,0,0,1,1.5.34,2.48,2.48,0,0,1,1.1,1,3.74,3.74,0,0,1,1.62-.8,3.52,3.52,0,0,1,1.71,0,2.9,2.9,0,0,1,1.39.77A2.49,2.49,0,0,1,3.25-.37,4,4,0,0,1,5-.76a3.58,3.58,0,0,1,1.6.36A2.84,2.84,0,0,1,7.88.92a2.32,2.32,0,0,1,0,1.88.34.34,0,0,1-.37.26A.36.36,0,0,1,7.25,3a.32.32,0,0,1-.12-.25.21.21,0,0,1,0-.12,2,2,0,0,0,0-1.43,2,2,0,0,0-1-.9A2.81,2.81,0,0,0,4.68,0,2.78,2.78,0,0,0,3.12.56L2.46.25A1.7,1.7,0,0,0,2.15-1.1,2.15,2.15,0,0,0,1-1.81a2.85,2.85,0,0,0-1.58.06A3,3,0,0,0-2-.83l-.71-.12A1.74,1.74,0,0,0-3.55-2a2.36,2.36,0,0,0-1.39-.27,3.08,3.08,0,0,0-1.45.53A2.33,2.33,0,0,0-7.32-.56a.35.35,0,0,1-.37.24A.39.39,0,0,1-8-.42a.33.33,0,0,1-.1-.26v-.1A3,3,0,0,1-6.89-2.35,4,4,0,0,1-5-3Z"/>
<rect fill="none" x="-12" y="-12" width="24" height="24"/>
</symbol>
<symbol id="narrow" viewBox="-12 -12 24 24">
<path d="M-1.5,5V-5h0.64V5H-1.5z"/>
<path d="M0.86,5V-5H1.5V5H0.86z"/>
<rect fill="none" x="-12" y="-12" width="24" height="24"/>
</symbol>
<symbol id="paleoflow" viewBox="-12 -12 24 24">
<path d="M.38-12V.17A1.9,1.9,0,0,0,1,0,1.57,1.57,0,0,0,1.7-.72a1.86,1.86,0,0,0,.23-1c0-.09,0-.14.08-.16a.92.92,0,0,1,.24,0,.52.52,0,0,0,.25,0h.08A2.48,2.48,0,0,1,2,0,2.5,2.5,0,0,1,.38.77V7.21H2.09L0,12-1.8,7.23c.07,0,.59,0,1.53,0V.77A3,3,0,0,1-1.35.43a2.16,2.16,0,0,1-1-1,2.38,2.38,0,0,1-.24-1.33l.67,0a2,2,0,0,0,.15,1,1.73,1.73,0,0,0,.59.67A2.14,2.14,0,0,0-.27.16V-12Z"/>
<rect fill="none" x="-12" y="-12" width="24" height="24"/>
</symbol>
<symbol id="rain" viewBox="-12 -12 24 24">
<path d="M-4.14-6.34h0.71v4.69h-0.71V-6.34z"/>
<path d="M-0.35-6.34h0.71v4.69h-0.71V-6.34z"/>
<path d="M3.43-6.34h0.71v4.69H3.43V-6.34z"/>
<path d="M-4.14,1.65h0.71v4.69h-0.71V1.65z"/>
<path d="M-0.35,1.65h0.71v4.69h-0.71V1.65z"/>
<path d="M3.43,1.65h0.71v4.69H3.43V1.65z"/>
<rect fill="none" x="-12" y="-12" width="24" height="24"/>
</symbol>
<symbol id="rats" viewBox="-12 -12 24 24">
<path d="M8.78-2.32,7-2.27c-.51-.17-.65-.56-1.46-.45l-.25.45C3.59-2.75,2.59-3.66.56-3.62l-1.35.3A4.89,4.89,0,0,0-4.24,1.57c-.68.6-2.58.86-3.39.94a6.84,6.84,0,0,0-1.62.39,4.91,4.91,0,0,0-1,.52A1.75,1.75,0,0,0-11,4.61a1.16,1.16,0,0,0,.59,1.48,1.3,1.3,0,0,1,.14.12c.16-.52-.35-.92-.2-1.42a3.35,3.35,0,0,1,.27-.45,3.18,3.18,0,0,1,1.79-1c.63-.12,1.27-.22,1.91-.3.48-.07,1,0,1.4-.12A6.94,6.94,0,0,1-4,2.82,30.64,30.64,0,0,0,.41,2.69l2.16.15c.1-.09,0,0,.1-.15a.87.87,0,0,0-.9-.55c.86-1,2.27-.37,3.1-.05.5.19,1,0,1.25.4.11-.1.1-.07.15-.25.3,0,.31.07.6.15-.06-.49-.34-.64-1-.6a.78.78,0,0,1,0-.55C6.3.56,7.29.73,8.13.43a13.78,13.78,0,0,0,2.15-.9l.6-.85v-.2A16.9,16.9,0,0,0,8.78-2.32Z"/>
<rect fill="none" x="-12" y="-12" width="24" height="24"/>
</symbol>
<symbol id="sand" viewBox="-12 -12 24 24">
<path d="M-1.58,0.83c0.23,0.2,0.35,0.44,0.36,0.73c0.01,0.29-0.08,0.54-0.28,0.75c-0.2,0.21-0.46,0.32-0.78,0.33c-0.32,0.01-0.6-0.08-0.83-0.26C-3.36,2.19-3.49,1.95-3.5,1.67C-3.51,1.38-3.41,1.12-3.2,0.9c0.21-0.22,0.48-0.34,0.8-0.35C-2.08,0.54-1.81,0.64-1.58,0.83z"/>
<path d="M0.08-2.36c0.23,0.2,0.35,0.44,0.36,0.73c0.01,0.29-0.08,0.54-0.28,0.75c-0.2,0.21-0.46,0.32-0.78,0.33c-0.32,0.01-0.59-0.07-0.83-0.26s-0.37-0.42-0.38-0.71c-0.01-0.29,0.09-0.54,0.3-0.76c0.21-0.22,0.48-0.33,0.8-0.35C-0.42-2.65-0.14-2.56,0.08-2.36z"/>
<path d="M3.12,0.55c0.23,0.2,0.35,0.43,0.38,0.71c0.02,0.28-0.07,0.53-0.28,0.75C3,2.23,2.73,2.35,2.42,2.36C2.1,2.37,1.82,2.28,1.58,2.08C1.34,1.88,1.22,1.64,1.2,1.35c-0.01-0.29,0.09-0.54,0.3-0.75C1.72,0.4,1.99,0.29,2.3,0.28S2.89,0.36,3.12,0.55z"/>
<rect fill="none" x="-12" y="-12" width="24" height="24"/>
</symbol>
<symbol  id="scallops" viewBox="-12 -12 24 24">
<path d="M.05-3.74l.21,0A2.35,2.35,0,0,1,1.74-3a2,2,0,0,1,.59,1.55v0l0,0A9.59,9.59,0,0,1-.08,3.27l-.39.47-.27-.55A14.26,14.26,0,0,1-2.33-1.89v-.05l0-.05A2,2,0,0,1-1.44-3.3,2.42,2.42,0,0,1,.05-3.74ZM-.11-3A1.44,1.44,0,0,0-1.55-1.89,13.06,13.06,0,0,0-.29,2.33,8.6,8.6,0,0,0,1.55-1.54a1.41,1.41,0,0,0-.38-1A1.62,1.62,0,0,0,.18-3Z"/>
<rect fill="none" x="-12" y="-12" width="24" height="24"/>
</symbol>
<symbol  id="sink" viewBox="-12 -12 24 24">
<path d="M.72,9.41H.9c1.94,0,3.26-.54,3.94-1.51a3.61,3.61,0,0,0,.33-.69,2,2,0,0,0,.11-.54V6.46l.69,0a2.8,2.8,0,0,1-.58,1.78C4.58,9.39,3.1,10,.93,10H-.93q-3.25,0-4.46-1.8a2.74,2.74,0,0,1-.43-.83A2.37,2.37,0,0,1-6,6.67V6.43l.68,0A2.27,2.27,0,0,0-4.84,7.9c.68,1,2,1.47,3.93,1.48l.5,0ZM-1.46-10a.68.68,0,0,0,.16.41A2.77,2.77,0,0,0-.51-9l0,0a3.63,3.63,0,0,1,1,.7,1.15,1.15,0,0,1,.34.88c0,.58-.53,1.14-1.49,1.68-.68.42-1,.79-1,1.11s.3.61.84,1h0Q.61-2.86.46-1.78a3.51,3.51,0,0,1-1.55,2,.61.61,0,0,0-.26.41,1.67,1.67,0,0,0,.1.51,5.3,5.3,0,0,1,.32,1L.56,1.9.46,8.06-3.4,2.54l1.73-.28A6.16,6.16,0,0,0-2,1.39,1.7,1.7,0,0,1-2.09.58a1.21,1.21,0,0,1,.53-.82h0v0C-.75-.86-.33-1.38-.28-1.85s-.23-.87-.91-1.27h0C-2-3.6-2.37-4.1-2.4-4.61S-2-5.74-1.09-6.29C-.34-6.72.06-7.1.09-7.44a.67.67,0,0,0-.18-.43,3.17,3.17,0,0,0-.79-.58,2.93,2.93,0,0,1-1-.67A1.16,1.16,0,0,1-2.17-10Z"/>
<rect fill="none" x="-12" y="-12" width="24" height="24"/>
</symbol>
<symbol  id="spring" viewBox="-12 -12 24 24">
<path d="M-1.34-9.86,2.52-4.34.78-4.06a8,8,0,0,0,.29.87,1.4,1.4,0,0,1,.13.79,1.3,1.3,0,0,1-.52.84l0,0v0C-.13-.95-.55-.42-.61,0S-.37.91.31,1.3l0,0c.75.46,1.14,1,1.18,1.46S1.12,3.92.21,4.46C-.54,4.9-.94,5.29-1,5.64a.74.74,0,0,0,.18.43A3.2,3.2,0,0,0,0,6.62a3,3,0,0,1,1,.7,1.14,1.14,0,0,1,.31.86A1.74,1.74,0,0,1,.71,9.26H.92c1.92,0,3.22-.52,3.9-1.51a2.05,2.05,0,0,0,.35-.67,2.59,2.59,0,0,0,.1-.55l0-.19.65,0a2.84,2.84,0,0,1-.55,1.8C4.58,9.26,3.08,9.85.92,9.86H-.92c-2.17,0-3.66-.6-4.49-1.77a3.65,3.65,0,0,1-.4-.85A2.43,2.43,0,0,1-6,6.53V6.29l.66,0a2.08,2.08,0,0,0,.47,1.41c.68,1,2,1.5,3.91,1.51H-.4c.62-.43.94-.8,1-1.1a.76.76,0,0,0-.16-.43,3.25,3.25,0,0,0-.79-.51v0a3.8,3.8,0,0,1-1-.7,1.15,1.15,0,0,1-.34-.91q.06-.84,1.5-1.68c.68-.4,1-.77,1-1.1S.49,2.21,0,1.87c0,0,0,0,0,0C-1,1.32-1.44.69-1.34,0a3.58,3.58,0,0,1,1.55-2,.54.54,0,0,0,.23-.38A1.28,1.28,0,0,0,.37-3a4.57,4.57,0,0,1-.32-1l-1.49.24Z"/>
<rect fill="none" x="-12" y="-12" width="24" height="24"/>
</symbol>
<symbol  id="stalactite" viewBox="-12 -12 24 24">
<path d="M3.57-6.69l.52.53L.39-3V6.12H-.39V-3l-3.7-3.14.52-.53L0-3.67Z"/>
<rect fill="none" x="-12" y="-12" width="24" height="24"/>
</symbol>
<symbol  id="stalagmite" viewBox="-12 -12 24 24">
<path d="M.38-6.42V2.75L4.11,5.89l-.56.53L0,3.4l-3.57,3-.53-.53,3.7-3.14V-6.42Z"/>
<rect fill="none" x="-12" y="-12" width="24" height="24"/>
</symbol>
<symbol  id="stalagnate" viewBox="-12 -12 24 24">
<path d="M3.55-8.46l.56.53L.38-4.78v9L4.11,7.36l-.56.53L0,4.86l-3.57,3-.53-.53,3.7-3.14v-9l-3.7-3.15.53-.53L0-5.43Z"/>
<rect fill="none" x="-12" y="-12" width="24" height="24"/>
</symbol>
<symbol  id="straws" viewBox="-12 -12 24 24">
<path d="M-10.89-2.76H10.89V-2H9.63V.46H8.84V-2H8.29v5.6H7.5V-2H5.56V.7H4.77V-2H2.07V2.38H1.29V-2H-.1v3H-.89V-2H-3.2V4.11H-4V-2H-6.22L-6.16.75l-.79,0L-7-2H-8.32V2.33H-9.1V-2h-1.79Z"/>
<rect fill="none" x="-12" y="-12" width="24" height="24"/>
</symbol>
<symbol  id="water" viewBox="-12 -12 24 24">
<path d="M-1.72-9.86,2.11-4.32.38-4.06a6.49,6.49,0,0,0,.29.89,1.5,1.5,0,0,1,.13.79,1.2,1.2,0,0,1-.5.82h0l0,0C-.54-.94-1-.42-1,.05s.24.89.92,1.27h0c.77.48,1.17,1,1.19,1.49S.71,3.94-.2,4.49c-.75.43-1.13.81-1.15,1.15a.51.51,0,0,0,.18.43,2.66,2.66,0,0,0,.76.58,2.93,2.93,0,0,1,1,.67,1.16,1.16,0,0,1,.29.89C.84,8.75.42,9.3-.41,9.86l-.44-.55c.66-.45,1-.83,1-1.15A.47.47,0,0,0,0,7.75a2.84,2.84,0,0,0-.78-.53h0a3.87,3.87,0,0,1-1-.69,1.24,1.24,0,0,1-.34-.91c0-.58.54-1.14,1.52-1.68.66-.42,1-.79,1-1.11s-.3-.61-.84-1h0Q-1.9,1.06-1.74,0a3.44,3.44,0,0,1,1.54-2,.67.67,0,0,0,.27-.41A1.11,1.11,0,0,0,0-3a4.33,4.33,0,0,1-.31-1l-1.5.24Z"/>
<rect fill="none" x="-12" y="-12" width="24" height="24"/>
</symbol><symbol  id="tree" viewBox="-12 -12 24 24">
<path d="M7.4-5.04A4.271,4.271,0,0,0,7.7-6.627a4.3,4.3,0,0,0-4.3-4.3A4.279,4.279,0,0,0,.636-9.914,4.293,4.293,0,0,0-3.045-12a4.3,4.3,0,0,0-4.3,4.3,4.27,4.27,0,0,0,.421,1.845,4.3,4.3,0,0,0-3.645,4.244,4.3,4.3,0,0,0,4.3,4.3A4.282,4.282,0,0,0-3.946,2L-1.175,5.23h0L-1.612,12H.982L.757,6.376,4.119,2.827v0a4.272,4.272,0,0,0,2.15.58,4.3,4.3,0,0,0,4.3-4.3A4.3,4.3,0,0,0,7.4-5.04ZM-3.346,1.538h0A4.346,4.346,0,0,0-2.7.788a4.266,4.266,0,0,0,1.765.753l-.135,2.087ZM.69,4.7.563,1.544A4.258,4.258,0,0,0,2.321.805,4.3,4.3,0,0,0,3.378,2.279Z"/>
<rect fill="none" x="-12" y="-12" width="24" height="24"/>
</symbol><g>
<desc></desc>
<g>
<line fill="none" stroke="#dddddd" stroke-width="0.1mm" x1="0.00" y1="21.00" x2="161.00" y2="21.00" />
<text x="158.20" y="20.80" font-size=".2mm" fill="#000000">0m</text>
<line fill="none" stroke="#dddddd" stroke-width="0.1mm" x1="0.00" y1="1.00" x2="161.00" y2="1.00" />
<text x="158.20" y="0.80" font-size=".2mm" fill="#000000">10m</text>
<line fill="none" stroke="#dddddd" stroke-width="0.1mm" x1="0.00" y1="41.00" x2="161.00" y2="41.00" />
<text x="158.20" y="40.80" font-size=".2mm" fill="#000000">-10m</text>
<line fill="none" stroke="#dddddd" stroke-width="0.1mm" x1="0.00" y1="61.00" x2="161.00" y2="61.00" />
<text x="158.20" y="60.80" font-size=".2mm" fill="#000000">-20m</text>
<line fill="none" stroke="#dddddd" stroke-width="0.1mm" x1="0.00" y1="81.00" x2="161.00" y2="81.00" />
<text x="158.20" y="80.80" font-size=".2mm" fill="#000000">-30m</text>
<line fill="none" stroke="#dddddd" stroke-width="0.1mm" x1="0.00" y1="101.00" x2="161.00" y2="101.00" />
<text x="158.20" y="100.80" font-size=".2mm" fill="#000000">-40m</text>
</g>
<g>
<path fill="none" stroke="#000000" stroke-width="0.06mm" d="M20.810741,19.879768 C21.312614,19.616043 20.848574,19.877502 21.568733,19.363804 C21.59884,19.342329 21.633438,19.327019 21.668512,19.3153 C21.729221,19.295017 21.79176,19.279982 21.854687,19.268272 C21.914907,19.257067 21.982105,19.251278 22.043285,19.265053 C22.14118,19.287092 22.210526,19.351965 22.297138,19.406261 L22.297138,19.406261" /><path fill="none" stroke="#000000" stroke-width="0.06mm" d="M20.516287,25.83513 C21.231812,25.818413 20.675383,25.859253 21.62239,25.663647 C21.693233,25.649014 21.765991,25.646048 21.837791,25.637249 L21.837791,25.637249" /><path fill="none" stroke="#000000" stroke-width="0.06mm" d="M21.839998,25.60019 C22.097958,25.791088 21.998543,25.736908 22.437937,25.89789 C22.477901,25.912533 22.520973,25.917147 22.563135,25.922977 C22.677889,25.93885 22.794409,25.942123 22.908365,25.96296 C23.003017,25.980263 23.093445,26.01609 23.187344,26.037106 C23.260796,26.053543 23.336386,26.059103 23.409914,26.0752 C23.435774,26.080858 23.460094,26.092178 23.484608,26.102173 C24.12476,26.363228 23.535105,26.111092 23.999964,26.351862 C24.02934,26.367077 24.062038,26.374775 24.093195,26.3859 C24.177914,26.416153 24.263102,26.445095 24.347588,26.475994 C24.371105,26.484596 24.393175,26.497126 24.417143,26.504381 C24.510746,26.53272 24.495504,26.509474 24.60162,26.539652 C24.677195,26.561144 24.752012,26.585752 24.825132,26.61451 C24.956776,26.666285 24.988636,26.759815 25.08214,26.85793 C25.149252,26.92835 25.214048,27.002668 25.29243,27.060282 C25.878532,27.491083 25.57864,27.252228 25.989109,27.457832 C26.032598,27.479618 26.140303,27.566658 26.177406,27.589987 C26.414856,27.739277 26.548283,27.837223 26.805506,27.912361 C26.935802,27.950422 27.070538,27.971249 27.202545,28.002869 C27.305874,28.02762 27.408485,28.055265 27.511457,28.081465 L27.511457,28.081465" /><path fill="none" stroke="#000000" stroke-width="0.06mm" d="M22.099897,19.355963 L22.134762,19.324535" /><path fill="none" stroke="#000000" stroke-width="0.06mm" d="M22.296661,19.22548 C22.307829,19.268982 22.312618,19.330107 22.348217,19.365377 C22.394793,19.411522 22.450441,19.449112 22.491127,19.500526 C22.588032,19.622982 22.661724,19.762726 22.759203,19.884727 C22.83097,19.974548 23.131815,20.21717 23.19282,20.257895 C23.306665,20.33389 23.436348,20.38414 23.550278,20.460009 C24.014362,20.769054 24.47828,21.079218 24.925732,21.411886 C25.028051,21.487959 25.098888,21.599836 25.195421,21.68313 C25.291447,21.765987 25.404448,21.827482 25.501717,21.908878 C25.57732,21.972147 25.63625,22.053907 25.712769,22.116064 C26.622177,22.854773 25.793379,22.16461 26.19665,22.445131 C26.265406,22.492958 26.331207,22.545012 26.395948,22.598146 C26.448639,22.641392 26.630241,22.823881 26.739285,22.868643 C26.902725,22.935732 27.069006,22.996164 27.237,23.050867 C27.776794,23.226635 27.26202,23.025892 27.511457,23.125227 L27.511457,23.125227" /><path fill="none" stroke="#000000" stroke-width="0.06mm" d="M27.444136,23.0328 C27.596697,23.087532 27.745098,23.155653 27.901817,23.196993 C28.064394,23.239876 28.23404,23.249926 28.398571,23.284557 C29.390873,23.493425 30.382965,23.70364 31.37201,23.927425 C34.65277,24.76714 31.353243,23.973713 32.70497,24.220387 C32.91375,24.258488 33.119812,24.31026 33.32657,24.358135 C33.364414,24.3669 33.39489,24.38559 33.420815,24.413832 C33.436226,24.430622 33.444202,24.450588 33.4646,24.460367 C33.506298,24.480358 33.559868,24.427147 33.585934,24.409184 L33.585934,24.409184" /><path fill="none" stroke="#000000" stroke-width="0.06mm" d="M33.52916,24.411377 C33.63903,24.486639 33.62817,24.488813 33.752357,24.536106 C33.822166,24.562689 33.895805,24.579237 33.964058,24.60959 C34.05132,24.6484 34.134247,24.696405 34.217606,24.743013 C34.230644,24.750305 34.241478,24.761036 34.25265,24.77095 C34.3249,24.835047 34.39836,24.897896 34.467827,24.965 C34.524307,25.019562 34.575684,25.079174 34.63021,25.135681 C34.646614,25.15268 34.665806,25.167093 34.68061,25.185497 C34.712082,25.224623 34.735466,25.27004 34.768623,25.307745 C34.815224,25.36073 34.86715,25.408878 34.919075,25.456654 C34.932297,25.468817 34.9489,25.476702 34.96356,25.48709 C35.03558,25.538122 35.112885,25.582552 35.179115,25.64091 C35.28014,25.729927 35.366463,25.834442 35.463596,25.927694 C35.53283,25.994164 35.610558,26.051586 35.677998,26.119873 C35.719658,26.162052 35.7513,26.213112 35.78991,26.2581 C35.797066,26.26644 35.806168,26.272942 35.81498,26.279503 C35.85634,26.310287 35.890926,26.355434 35.94036,26.370089 C35.964157,26.377144 35.984615,26.347593 36.006744,26.336346 L36.006744,26.336346" /><path fill="none" stroke="#000000" stroke-width="0.06mm" d="M35.946194,26.318613 C36.15952,26.405293 36.252396,26.382519 36.48695,26.363522 L36.48695,26.363522" /><path fill="none" stroke="#000000" stroke-width="0.06mm" d="M27.23337,27.913456 C27.526016,27.93951 27.820042,27.953098 28.111311,27.99162 C28.260921,28.011406 28.403488,28.07312 28.553661,28.088072 C28.936436,28.126184 29.96976,28.162968 30.40442,28.130316 C30.778421,28.102219 30.9924,27.995672 31.353382,27.912054 C31.489544,27.880514 31.805561,27.912195 31.882978,27.912224 C31.98896,27.912266 32.094864,27.891827 32.200634,27.898563 C32.41734,27.912361 32.633972,27.986858 32.84008,28.045692 L32.84008,28.045692" /><path fill="none" stroke="#000000" stroke-width="0.06mm" d="M32.70999,28.00111 C33.177517,28.370321 32.77254,28.034111 33.280205,28.515806 C33.32113,28.554638 33.382122,28.565731 33.407967,28.62116 C33.51461,28.849865 33.59775,29.09018 33.720383,29.310722 C33.965073,29.708199 34.209766,30.105675 34.454456,30.50315 C34.550766,30.627579 34.665283,30.739843 34.74339,30.876434 C34.945858,31.230501 35.12466,31.59815 35.293053,31.969639 C35.55351,32.544228 35.767685,33.13909 36.02925,33.713177 C36.112038,33.894875 36.270954,34.16727 36.437862,34.320187 C36.586502,34.456367 36.65365,34.49172 36.82422,34.5668 C36.85559,34.58061 36.904617,34.603863 36.940163,34.582893 C36.977226,34.56103 36.996506,34.498165 37.01095,34.47004 L37.01095,34.47004" /><path fill="none" stroke="#000000" stroke-width="0.06mm" d="M36.540718,26.449638 C37.09126,26.505203 37.66957,26.628523 38.10489,26.99799 C40.956078,29.417862 35.540855,24.916582 40.512527,29.299278 C41.486595,30.157953 42.13959,30.269077 43.379715,30.896397 C43.914276,31.166805 45.124035,32.20887 45.25476,32.31254 C45.38816,32.418327 45.513275,32.53584 45.656254,32.628273 C46.59989,33.238323 46.348663,33.035187 47.2017,33.444725 C47.300255,33.49204 47.389168,33.55856 47.489464,33.60206 C47.804184,33.73854 48.13326,33.841007 48.44509,33.98395 C49.065228,34.268223 49.087154,34.318943 49.567516,34.68212 L49.567516,34.68212" /><path fill="none" stroke="#000000" stroke-width="0.06mm" d="M36.823547,34.635536 C37.390965,35.037197 37.943512,35.46074 38.525795,35.840527 C39.025925,36.166725 39.798447,36.357265 40.21263,36.759884 C40.43907,36.980003 40.612103,37.38331 40.61634,37.707596 C40.624413,38.324768 40.266495,39.529358 40.218353,39.77611 C40.179073,39.977455 40.162674,40.242123 40.32995,40.39693 C40.410168,40.471176 40.506668,40.483475 40.611782,40.48169 C41.02236,40.474712 41.433174,40.439827 41.84345,40.457077 C42.256397,40.47444 42.669987,40.511963 43.076736,40.585335 C43.41307,40.646 43.737892,40.7593 44.065147,40.85782 C44.40207,40.95925 44.346603,41.145607 44.325012,41.462387 C44.287537,42.012283 44.065216,43.076355 44.623417,43.49936 C44.67309,43.537003 44.756477,43.58078 44.81803,43.594982 C45.986145,43.86451 45.472565,43.67611 47.40307,43.720566 C47.509193,43.723007 47.759933,43.75734 47.842766,43.871696 C47.92092,43.9796 47.930992,44.14615 47.93579,44.26654 C47.969376,45.108917 47.788857,46.119064 48.38614,46.837532 C49.1335,47.73653 50.407875,47.38826 51.397102,47.35578 C52.28856,47.326515 51.99058,47.617607 52.31263,47.143982 L52.31263,47.143982" /><path fill="none" stroke="#000000" stroke-width="0.06mm" d="M49.54658,34.644302 C49.624763,34.67157 49.69342,34.68571 49.75846,34.73654 C49.80532,34.773167 49.847187,34.815765 49.891483,34.855453 C49.912247,34.87406 49.93142,34.894577 49.953636,34.911423 C49.971817,34.92521 49.99228,34.935726 50.01214,34.946953 C50.07305,34.98139 50.138794,35.00799 50.195915,35.048405 C50.40222,35.194355 50.555893,35.358337 50.70915,35.562485 C50.794685,35.67643 50.863888,35.801773 50.94126,35.921413 C51.05748,36.085186 51.16661,36.254227 51.289917,36.41273 C51.324677,36.457413 51.367058,36.496964 51.413815,36.52887 C51.626972,36.6638 51.840134,36.79872 52.05329,36.93365 C52.218777,37.02031 52.39331,37.09153 52.549744,37.193634 C52.790977,37.35108 53.867275,38.186348 54.054417,38.342903 C54.199173,38.463997 54.326153,38.605034 54.467274,38.730343 C54.48947,38.750053 54.517166,38.762627 54.54319,38.776917 C54.696335,38.861023 54.852932,38.938858 55.00467,39.025475 C55.119926,39.091263 55.420555,39.307144 55.605793,39.354656 C55.63787,39.362885 55.671898,39.350525 55.704952,39.348457 L55.704952,39.348457" /><path fill="none" stroke="#000000" stroke-width="0.06mm" d="M51.991417,47.400322 C52.12989,47.418053 52.257355,47.435974 52.369766,47.520607 C52.441326,47.574486 52.624527,47.78705 52.629562,47.79239 C52.646454,47.810303 52.669434,47.822807 52.683094,47.843292 C52.779366,47.98766 52.85798,48.143574 52.95821,48.285217 C53.11069,48.5007 53.264534,48.716557 53.44037,48.913445 C53.680492,49.182312 54.036583,49.402695 54.387638,49.48918 C54.515446,49.520668 54.644653,49.54634 54.773945,49.57103 C54.84307,49.58423 54.919586,49.519226 54.96926,49.486794 L54.96926,49.486794" /><path fill="none" stroke="#000000" stroke-width="0.06mm" d="M37.31929,31.805592 C37.378822,32.007492 37.45916,32.20439 37.497894,32.411293 C37.582325,32.86228 37.53583,33.31165 37.709335,33.730507 C37.90142,34.19421 38.490562,34.06824 38.873554,34.10627 C39.032555,34.122055 39.223457,34.20073 39.361794,34.273827 C39.589508,34.394142 39.653282,34.58172 39.817253,34.776615 C39.939392,34.92179 40.079407,35.04338 40.245438,35.13376 C40.355453,35.19365 40.501984,35.235817 40.62496,35.24735 C40.785244,35.26238 40.964176,35.211716 41.107346,35.304966 C41.39959,35.495316 41.417393,36.009315 41.67402,36.28573 C41.707954,36.322277 41.746433,36.35466 41.786354,36.384552 C41.94557,36.503754 42.118332,36.60515 42.270977,36.732655 C42.5379,36.955612 42.529007,37.05298 42.77784,37.290825 C42.957382,37.462437 43.15268,37.616776 43.340103,37.779747 L43.340103,37.779747" /><path fill="none" stroke="#000000" stroke-width="0.06mm" d="M43.655006,37.25331 C43.767277,37.707363 43.889763,38.15901 43.99182,38.61547 C43.998486,38.64528 44.005577,38.758316 43.93062,38.747253 C43.897877,38.742416 43.87052,38.718925 43.843002,38.70054 C43.78159,38.65951 43.723938,38.613117 43.66441,38.56941 L43.66441,38.56941" /><path fill="none" stroke="#000000" stroke-width="0.06mm" d="M46.771164,41.469532 C47.06265,41.6619 47.308502,41.779945 47.532898,42.024075 C47.840458,42.35868 47.802467,43.117424 48.25563,43.285126 C48.644516,43.429047 49.044815,42.957275 49.3173,43.192627 C49.663933,43.492012 49.709904,43.99674 50.012886,44.3329 C50.358833,44.716743 51.407413,45.17404 51.743855,45.34733 L51.743855,45.34733" /><path fill="none" stroke="#000000" stroke-width="0.06mm" d="M51.98356,43.453083 C52.198795,43.87874 52.092598,43.727783 52.366165,44.065086 C52.443535,44.160473 52.537636,44.243748 52.601208,44.34883 C52.78073,44.645607 52.934486,44.95732 53.09263,45.266014 C53.169888,45.416817 53.009045,45.576576 52.892868,45.63819 C52.80391,45.685375 52.58635,45.79547 52.462486,45.799515 C49.946487,45.88173 51.943775,45.718437 50.070625,45.89727 L50.070625,45.89727" /><path fill="none" stroke="#248B00" stroke-width="0.06mm" d="M55.726124,39.232887 C55.91039,39.400063 55.814144,39.338326 56.00613,39.43077 L56.00613,39.43077" /><path fill="none" stroke="#248B00" stroke-width="0.06mm" d="M55.50585,39.12088 C55.623005,39.2136 55.747604,39.340042 55.89711,39.392113 C56.03906,39.44155 56.1889,39.46724 56.329105,39.521423 C56.765797,39.690193 57.18002,39.918243 57.626106,40.060326 C62.144882,41.49959 57.5731,39.73066 60.47813,41.016785 C60.58243,41.06296 60.695225,41.088326 60.806774,41.112137 C61.052002,41.16449 61.152714,41.129257 61.35002,41.22804 C61.639065,41.372746 61.794025,41.429623 61.993576,41.619236 C62.109066,41.728977 62.209293,41.855328 62.332954,41.95577 C62.840508,42.36801 63.345444,42.786045 63.88497,43.155468 C64.5051,43.58008 65.01836,43.830933 65.72162,44.007256 C66.32912,44.15957 66.25613,44.059753 66.841225,44.129715 C66.974625,44.145668 67.10457,44.183113 67.23624,44.209816 L67.23624,44.209816" /><path fill="none" stroke="#248B00" stroke-width="0.06mm" d="M54.882374,49.32489 C55.4009,49.66669 55.731705,49.61089 56.374622,49.738346 C57.702587,50.00161 56.98317,49.8617 58.153793,50.322186 C58.223915,50.34977 58.29971,50.362022 58.374535,50.370895 C58.88113,50.430977 59.387398,50.50126 59.896793,50.5289 C60.365158,50.554314 60.835075,50.542686 61.303955,50.529858 C62.275127,50.50329 62.103733,50.368584 63.211132,50.518505 C63.69129,50.58351 64.157845,50.72664 64.634796,50.81202 C64.89827,50.859184 65.16954,50.85875 65.431015,50.915897 C65.929504,51.02484 66.41216,51.199013 66.91035,51.309334 C66.93355,51.31447 67.35095,51.353535 67.46117,51.304344 C67.55908,51.260643 67.64224,51.189423 67.73277,51.131966 L67.73277,51.131966" /><path fill="none" stroke="#248B00" stroke-width="0.06mm" d="M67.38721,51.405594 C67.5987,51.454918 67.70131,51.459465 67.8849,51.57095 C68.05798,51.676052 68.210236,51.814835 68.388985,51.90998 C69.01961,52.24568 68.873215,51.971626 69.43973,52.472923 C70.055374,53.017696 71.14955,54.98986 71.204445,55.06827 C71.515656,55.512756 72.29016,55.96534 72.67366,56.190952 C73.050064,56.412388 73.402985,56.57809 73.82026,56.675213 C74.07396,56.734264 74.32779,56.802803 74.5874,56.82409 C74.93074,56.85224 75.27711,56.845367 75.62085,56.82286 C75.737,56.815254 75.84604,56.76382 75.958626,56.7343 L75.958626,56.7343" /><path fill="none" stroke="#248B00" stroke-width="0.06mm" d="M67.12988,44.08385 C67.18388,44.195488 67.20134,44.26639 67.278564,44.348145 C67.35208,44.425957 67.46669,44.485348 67.557495,44.52397 C68.538124,44.941063 67.77557,44.593666 68.89497,44.898407 C69.08899,44.951225 69.36107,45.12665 69.51311,45.2452 C69.9625,45.5956 69.70139,45.434853 70.08266,45.806297 C70.32982,46.0471 70.56762,46.30037 70.84073,46.511288 C71.3542,46.907837 71.75067,47.087887 72.34523,47.28891 C72.4808,47.33475 72.62758,47.34285 72.762024,47.39189 C72.98445,47.473022 73.18674,47.605476 73.412094,47.678066 C73.86341,47.82344 74.32277,47.94593 74.78665,48.044044 C74.878204,48.063408 75.35367,48.17537 75.53908,48.03265 C75.598175,47.987167 75.65252,47.935833 75.70924,47.88742 L75.70924,47.88742" /><path fill="none" stroke="#248B00" stroke-width="0.06mm" d="M75.57104,56.68408 C75.65529,56.72822 75.734055,56.784985 75.82381,56.81651 C75.95978,56.864273 76.10151,56.89573 76.243515,56.920296 C76.76561,57.01062 77.29031,57.085316 77.81474,57.160942 C77.8797,57.17031 77.95871,57.145363 78.012985,57.110943 C78.108444,57.050392 78.17035,56.92077 78.22631,56.837147 L78.22631,56.837147" /><path fill="none" stroke="#248B00" stroke-width="0.06mm" d="M74.86895,47.992382 C75.062645,48.04688 75.259186,48.092094 75.45001,48.155872 C75.506516,48.174755 75.55892,48.20565 75.60802,48.239388 C75.87984,48.426163 76.000854,48.583553 76.28113,48.68296 C76.62779,48.805916 77.01285,48.72783 77.3474,48.890965 C79.3344,49.859856 77.66887,49.17623 79.11203,49.665047 C79.24961,49.711647 79.50588,50.022453 79.54819,50.030895 C79.615326,50.044292 79.62966,49.92085 79.670395,49.86582 L79.670395,49.86582" /><path fill="none" stroke="#248B00" stroke-width="0.06mm" d="M79.454155,49.76364 C80.05792,50.281673 80.85013,50.49052 81.52154,50.89752 C82.333046,51.389442 81.77577,51.23037 82.30072,51.34957 L82.30072,51.34957" /><path fill="none" stroke="#248B00" stroke-width="0.06mm" d="M77.54587,56.89501 C77.75806,57.034275 77.79761,57.081264 78.061165,57.154285 C78.35564,57.23587 78.6584,57.285236 78.95296,57.366516 C79.06257,57.396763 79.31319,57.549393 79.39851,57.587524 C79.6955,57.720238 79.9984,57.839363 80.29721,57.967926 C80.93146,58.2408 79.9438,57.925045 81.60063,58.3829 C81.62921,58.390797 81.659836,58.391464 81.68938,58.38896 C81.76329,58.382694 81.83617,58.36746 81.909546,58.356705 L81.909546,58.356705" /><path fill="none" stroke="#248B00" stroke-width="0.06mm" d="M82.38467,51.154915 C82.41569,51.2386 82.431015,51.326984 82.48952,51.395416 C82.51135,51.420956 82.55411,51.456654 82.58622,51.468185 C82.85246,51.559536 83.11871,51.650887 83.384964,51.74224 C83.47424,51.76366 83.565834,51.77709 83.65282,51.806503 C84.03203,51.93475 84.82163,52.258522 85.31023,52.370667 C85.43722,52.39981 85.57277,52.386547 85.697365,52.424675 C86.20273,52.579338 86.43413,52.762726 86.885025,52.82848 C87.084625,52.85759 87.61238,52.79496 87.67722,52.800755 C88.14724,52.84276 89.837326,53.220783 90.136505,53.312424 C90.5872,53.450474 91.0019,53.69305 91.454414,53.824955 C93.908875,54.540417 91.95623,53.85796 93.38702,54.1597 C94.006355,54.290314 93.641785,54.347466 94.3591,54.55367 C94.46566,54.584305 94.58084,54.555622 94.69172,54.556602 L94.69172,54.556602" /><path fill="none" stroke="#248B00" stroke-width="0.06mm" d="M94.427956,54.626854 C94.45719,54.62634 94.48646,54.623825 94.51566,54.625317 C94.672775,54.633343 94.892075,54.961044 94.92252,54.99272 C94.98846,55.06131 95.11034,55.122765 95.18851,55.155266 C95.25991,55.184956 95.33478,55.2056 95.40882,55.227917 C95.41841,55.230804 95.42872,55.2309 95.43873,55.23069 C95.500275,55.22939 95.53073,55.20744 95.59794,55.182953 L95.59794,55.182953" /><path fill="none" stroke="#248B00" stroke-width="0.06mm" d="M81.89816,58.44969 C81.99399,58.5867 82.084564,58.727543 82.18564,58.860718 C82.21785,58.90316 82.254654,58.943077 82.297104,58.97528 C82.61522,59.216682 82.815125,59.3902 83.168625,59.509834 C83.35684,59.573532 83.823654,59.75779 84.12772,59.75918 C85.66876,59.76622 83.010056,59.559914 86.65813,59.871475 C86.756256,59.879856 86.85549,59.90075 86.945175,59.941433 C87.33872,60.119953 87.71293,60.338593 88.10209,60.526485 C88.68425,60.80756 88.42407,60.66527 88.81302,60.81551 C89.16874,60.95291 89.51469,61.11733 89.87773,61.23402 C90.65351,61.48338 91.6167,61.46249 92.37382,61.52961 C92.41985,61.53369 92.465195,61.54654 92.5084,61.562965 C92.95712,61.733585 93.392,61.94199 93.848564,62.09036 C94.25202,62.221474 95.347115,62.126297 95.53315,62.12108 L95.53315,62.12108" /><path fill="none" stroke="#248B00" stroke-width="0.06mm" d="M95.45894,62.130375 C95.558655,62.152576 95.65605,62.192146 95.758095,62.19698 C96.60236,62.23699 98.00772,62.0822 98.68565,62.0612 C98.84348,62.05631 99.47518,62.14006 99.70921,62.104286 C100.015434,62.057472 100.311554,61.95596 100.61764,61.908237 C100.9391,61.85812 101.26406,61.83048 101.58884,61.811234 C101.68313,61.80565 101.77708,61.82734 101.87131,61.833958 C101.91728,61.83719 101.93793,61.774326 101.95221,61.744926 L101.95221,61.744926" /><path fill="none" stroke="#248B00" stroke-width="0.06mm" d="M95.508644,55.264412 C95.5405,55.268288 95.572655,55.270206 95.60421,55.276035 C95.620605,55.279064 95.63731,55.28296 95.65197,55.290882 C95.80154,55.371716 95.95504,55.44678 96.09601,55.541824 C96.28489,55.66917 96.45526,55.82215 96.63922,55.9565 C96.7101,56.008263 96.78123,56.06129 96.86007,56.099834 C97.48679,56.406204 98.13081,56.67675 98.753975,56.990295 C98.88731,57.057377 99.00776,57.148434 99.12577,57.239815 C99.483315,57.516693 99.86514,57.769207 100.17956,58.09423 C100.60373,58.53271 100.94189,59.046955 101.32958,59.517982 C101.37737,59.576046 101.43767,59.623 101.48558,59.68096 C101.5311,59.73602 101.56236,59.80205 101.60907,59.856094 C101.67606,59.9336 101.81138,60.092556 101.92995,60.166275 C101.96858,60.190296 102.05988,60.23588 102.092316,60.1765 C102.11245,60.13963 102.104965,60.10912 102.10882,60.06149 L102.10882,60.06149" /><path fill="none" stroke="#248B00" stroke-width="0.06mm" d="M102.02373,60.203648 C102.21268,60.20718 102.17978,60.21672 102.439476,60.128197 C102.53261,60.09645 102.61769,60.044075 102.71022,60.010624 C102.97368,59.91537 103.42186,59.82523 103.65331,59.799606 C104.057335,59.75488 104.46575,59.759342 104.86991,59.7159 C105.1078,59.690334 105.33961,59.62219 105.57706,59.592834 C105.76985,59.569 105.860855,59.582058 106.0234,59.597797 L106.0234,59.597797" /><path fill="none" stroke="#248B00" stroke-width="0.06mm" d="M101.85476,61.82483 C101.93858,61.81983 101.94737,61.82582 102.01701,61.803177 C102.13033,61.766335 102.24164,61.723293 102.35575,61.688976 C102.367004,61.685593 102.503,61.674953 102.50372,61.67485 C102.632324,61.656002 102.76051,61.634373 102.888756,61.613224 C103.03506,61.589092 103.18038,61.558662 103.327354,61.538998 C103.41169,61.52771 103.49778,61.532974 103.58194,61.520466 C103.85304,61.48016 104.21004,61.375877 104.51087,61.390488 C104.90639,61.409702 105.30205,61.432346 105.69596,61.47274 C106.55552,61.560883 106.027275,61.543232 106.599,61.64221 C106.73555,61.665844 106.87515,61.670242 107.011154,61.696873 C107.479164,61.78851 107.93954,61.919106 108.410065,61.99681 C108.62163,62.031754 108.83822,62.021584 109.0523,62.033966 L109.0523,62.033966" /><path fill="none" stroke="#248B00" stroke-width="0.06mm" d="M105.8685,59.545864 C105.97276,59.601147 106.03608,59.642555 106.164505,59.66217 C106.46896,59.697983 106.77341,59.733795 107.077866,59.769608 C107.15347,59.791138 107.22719,59.820915 107.304665,59.83419 C107.423225,59.854504 107.54546,59.848125 107.66375,59.869987 C107.880775,59.910103 108.08981,59.991554 108.308716,60.019775 C108.93352,60.04015 108.8388,60.012115 109.28274,60.082348 C109.39306,60.0998 109.50275,60.12106 109.612946,60.13922 C109.63124,60.142235 109.65003,60.142067 109.66818,60.145866 C109.70115,60.152763 109.73218,60.169662 109.762215,60.183598 L109.762215,60.183598" /><path fill="none" stroke="#248B00" stroke-width="0.06mm" d="M109.747574,60.09567 C109.83491,60.1044 109.88915,60.12066 109.968956,60.102997 C109.99818,60.09653 110.02705,60.087875 110.054756,60.076572 C110.189384,60.021656 110.32265,59.9634 110.455574,59.90449 C110.50924,59.88071 110.561485,59.853855 110.61444,59.82854 C110.67042,59.810375 110.727905,59.796307 110.78238,59.774033 C110.86213,59.74143 110.921036,59.687485 110.99706,59.647793 C111.025566,59.632915 111.05596,59.62153 111.08679,59.612423 C111.27135,59.557903 112.01324,59.2646 112.44574,59.257015 C112.51007,59.255886 112.574265,59.263233 112.63852,59.26634 L112.63852,59.26634" /><path fill="none" stroke="#248B00" stroke-width="0.06mm" d="M109.02746,62.002083 C109.28944,62.030396 109.54989,62.087852 109.813385,62.087017 C111.35043,62.08215 110.275955,61.91887 111.45498,62.01722 C111.56639,62.026516 111.673744,62.065742 111.78494,62.077244 C112.33607,62.13427 112.88881,62.174347 113.440765,62.222683 C113.66928,62.2427 113.56475,62.239784 113.78062,62.233032 L113.78062,62.233032" /><path fill="none" stroke="#248B00" stroke-width="0.06mm" d="M112.36953,59.174286 C112.69838,59.263367 112.70245,59.18819 113.11781,59.15307 C113.27416,59.139847 113.43206,59.152416 113.58828,59.13775 C113.65907,59.131104 113.72704,59.106586 113.796036,59.089397 C113.865845,59.072002 113.93292,59.039604 114.00465,59.034004 C114.46362,58.99816 114.925385,59.004974 115.38405,58.96538 C115.647484,58.94264 115.904144,58.855015 116.16845,58.84721 C116.55585,58.83577 116.94233,58.891853 117.32957,58.907925 C117.415924,58.91151 117.50253,58.9021 117.58888,58.906155 C117.73096,58.91283 117.872086,58.93501 118.01423,58.940086 C118.3662,58.952667 118.71909,58.93793 119.07065,58.959114 C119.91124,59.00977 120.74812,59.116673 121.58935,59.155525 C122.05352,59.176964 122.5189,59.122646 122.983246,59.13982 C123.233826,59.14909 123.479225,59.219265 123.72949,59.234684 C124.06751,59.25551 124.40688,59.237682 124.74538,59.248375 C124.83956,59.251354 124.93273,59.269382 125.02676,59.27568 C125.594925,59.31374 126.16474,59.334785 126.733986,59.34645 L126.733986,59.34645" /><path fill="none" stroke="#248B00" stroke-width="0.06mm" d="M113.76566,62.11159 C114.13662,62.083794 114.50797,62.06102 114.87852,62.02819 C122.641365,61.3404 114.94849,61.88736 122.48031,61.62613 C122.95188,61.60977 123.25681,61.43159 123.71636,61.34559 C123.922585,61.306995 124.13416,61.30643 124.342606,61.282547 C125.11992,61.19348 123.68996,61.231365 125.73423,61.144215 C126.25871,61.186546 126.02429,61.19173 126.43796,61.156284 L126.43796,61.156284" /><path fill="none" stroke="#248B00" stroke-width="0.06mm" d="M126.74249,61.484917 C126.82536,61.747314 126.79615,61.715195 126.924576,61.926342 C127.21422,62.40257 127.52731,62.86488 127.80062,63.350666 C127.97374,63.65837 127.96724,63.82252 128.09332,64.11905 C128.35406,64.73233 128.3086,64.629135 128.59003,65.0764 L128.59003,65.0764" /><path fill="none" stroke="#248B00" stroke-width="0.06mm" d="M126.875946,61.200203 C127.00631,61.41105 126.932274,61.306683 127.101326,61.511604 L127.101326,61.511604" /><path fill="none" stroke="#248B00" stroke-width="0.06mm" d="M126.167175,61.200203 C126.495544,61.35802 126.49403,61.484203 126.77288,61.754074 C126.86993,61.847992 126.98393,61.922615 127.08946,62.00688 L127.08946,62.00688" /><path fill="none" stroke="#248B00" stroke-width="0.06mm" d="M126.52007,59.355522 C126.91363,59.37693 127.00192,59.42005 127.41843,59.648727 C127.84404,59.882404 128.2602,60.133263 128.67288,60.38905 C129.13263,60.673985 129.61664,60.927963 130.03519,61.27055 C130.5633,61.702816 131.13147,62.439465 131.5103,63.03335 C131.59964,63.173405 131.65723,63.33161 131.7402,63.47553 C131.80927,63.595303 131.91064,63.696785 131.96588,63.823524 C132.5917,65.2595 132.04883,64.88191 132.63208,65.23656 L132.63208,65.23656" /><path fill="none" stroke="#248B00" stroke-width="0.06mm" d="M128.60545,64.637405 C128.68481,64.93932 128.76418,65.24124 128.84354,65.54316 C128.91528,65.74898 129.00748,65.94878 129.05878,66.160614 C129.11444,66.39049 129.1253,66.62898 129.16302,66.86247 C129.8386,71.04476 128.1982,58.451336 129.78828,75.11771 C129.88861,76.16925 130.89786,78.9046 131.06837,79.528366 C131.91574,82.62831 131.25812,80.928665 131.81715,84.04184 C131.93327,84.688515 132.16203,85.31052 132.29865,85.95318 C132.36606,86.27036 132.5707,87.26735 132.52997,87.80136 C132.46504,88.65244 132.3114,88.81743 132.43842,89.741264 C132.4939,90.144806 132.6391,90.53084 132.73944,90.92561 L132.73944,90.92561" /><path fill="none" stroke="#248B00" stroke-width="0.06mm" d="M132.50516,64.7679 C132.4542,65.263626 132.57413,65.15282 132.76822,65.82733 C132.83463,66.05816 132.86299,66.29835 132.91739,66.5323 C132.95036,66.67404 133.00002,66.81169 133.03024,66.95405 C133.10333,67.29828 133.13885,67.65059 133.2272,67.99123 C133.39386,68.633865 134.08257,70.28847 134.22299,70.65683 C135.528,74.08021 134.24847,70.70046 135.13397,73.34096 C135.21918,73.59502 135.36075,73.82991 135.42694,74.08957 C135.59833,74.761856 135.68744,75.45285 135.8446,76.1286 C136.00754,76.74789 136.17047,77.36717 136.3334,77.986465 C136.41281,78.209625 136.51624,78.42563 136.57162,78.65593 C136.74258,79.366974 136.86664,80.088486 137.0112,80.805374 C137.53262,83.39139 137.38116,83.18144 138.1542,85.42737 C138.2636,85.74517 138.4145,86.04723 138.53522,86.36091 C138.62317,86.589485 138.6814,86.82949 138.78,87.05368 C139.82788,89.43607 138.87158,87.00893 139.42307,88.43743 C139.79079,89.38991 139.26976,87.9988 140.01927,90.420456 C140.05658,90.541016 140.17368,90.89867 140.29898,91.06101 C140.35077,91.128136 140.43036,91.0444 140.45297,90.998276 C140.49814,90.906136 140.5379,90.811424 140.58035,90.71801 L140.58035,90.71801" /><path fill="none" stroke="#248B00" stroke-width="0.06mm" d="M140.30061,90.48595 C140.24176,91.59977 140.1237,92.06019 140.33345,93.06427 C140.3888,93.32923 140.45956,93.595314 140.57855,93.83845 C141.216,95.141075 141.66318,96.04159 142.77371,96.87676 C142.9165,96.98416 143.0728,97.07635 143.23767,97.14521 C144.1305,97.51811 145.04779,97.830315 145.94196,98.200035 C146.1941,98.3043 146.43005,98.4441 146.6741,98.56613 L146.6741,98.56613" /><path fill="none" stroke="#248B00" stroke-width="0.06mm" d="M133.13046,90.6984 C133.14984,91.96237 133.06192,92.484344 133.499,93.72863 C133.72195,94.36339 134.03755,94.963036 134.3512,95.558235 C134.52505,95.888176 134.85384,96.325584 135.1517,96.59668 C135.2283,96.66641 135.31052,96.733246 135.40363,96.77871 C136.05641,97.0975 136.73792,97.35635 137.3847,97.68717 C137.92432,97.96318 138.84604,98.99071 139.082,99.20315 C139.17064,99.28294 139.27298,99.35194 139.38446,99.39435 C139.69614,99.51292 140.9888,99.72542 141.45477,100.22621 C141.927,100.73371 141.90083,101.80787 142.02441,102.3115 C142.09715,102.60793 142.22958,102.88644 142.33217,103.17391 L142.33217,103.17391" /><path fill="none" stroke="#248B00" stroke-width="0.06mm" d="M146.74051,98.200966 C147.05437,98.57384 147.34726,98.81009 147.83429,98.86556 C148.17935,98.90486 148.00673,98.8474 148.31436,98.842354 C148.55984,98.83833 148.80537,98.84854 149.05089,98.85164 L149.05089,98.85164" /><path fill="none" stroke="#248B00" stroke-width="0.06mm" d="M142.43839,103.837845 L142.56543,104.16408" /><path fill="none" stroke="#248B00" stroke-width="0.06mm" d="M142.66412,105.26532 L142.78452,105.68451" /><path fill="none" stroke="#248B00" stroke-width="0.06mm" d="M142.69067,107.22395 L142.82434,107.5369" /><path fill="none" stroke="#248B00" stroke-width="0.06mm" d="M142.31888,109.32866 L142.41937,109.54866" /><path fill="none" stroke="#248B00" stroke-width="0.06mm" d="M148.97786,99.20352 C149.2636,99.50042 149.69943,99.7901 149.85332,100.20981 C149.92271,100.39907 149.89241,100.3775 149.92366,100.51722 C149.98318,100.78342 150.04555,101.04899 150.10649,101.31487 L150.10649,101.31487" /><path fill="none" stroke="#248B00" stroke-width="0.06mm" d="M149.30981,102.17135 L149.47668,102.44446" /><path fill="none" stroke="#248B00" stroke-width="0.06mm" d="M149.36957,104.5549 L149.65593,104.64875" /><path fill="none" stroke="#248B00" stroke-width="0.06mm" d="M149.85422,106.16829 L150.33221,106.65297" /><path fill="none" stroke="#248B00" stroke-width="0.06mm" d="M150.86998,107.7352 L151.13644,108.287155" /><path fill="none" stroke="#248B00" stroke-width="0.06mm" d="M150.42517,108.86389 L150.41942,108.81831" /></g>
<g>
<line fill="none" stroke="#00aeef" stroke-width="0.04mm" stroke-dasharray="0.4,0.2" x1="20.00" y1="21.00" x2="21.13" y2="20.87" />
<line fill="none" stroke="#5674b9" stroke-width="0.04mm" stroke-dasharray="0.4,0.2" x1="20.00" y1="21.00" x2="19.97" y2="25.97" />
<line fill="none" stroke="#00aeef" stroke-width="0.04mm" stroke-dasharray="0.4,0.2" x1="20.00" y1="21.00" x2="21.08" y2="19.44" />
<line fill="none" stroke="#111111" stroke-width="0.04mm" x1="20.00" y1="21.00" x2="25.58" y2="23.97" />
<line fill="none" stroke="#5674b9" stroke-width="0.04mm" stroke-dasharray="0.4,0.2" x1="25.58" y1="23.97" x2="25.68" y2="24.00" />
<line fill="none" stroke="#5674b9" stroke-width="0.04mm" stroke-dasharray="0.4,0.2" x1="25.58" y1="23.97" x2="26.22" y2="28.20" />
<line fill="none" stroke="#00aeef" stroke-width="0.04mm" stroke-dasharray="0.4,0.2" x1="25.58" y1="23.97" x2="25.36" y2="22.74" />
<line fill="none" stroke="#111111" stroke-width="0.04mm" x1="25.58" y1="23.97" x2="29.96" y2="24.64" />
<line fill="none" stroke="#5674b9" stroke-width="0.04mm" stroke-dasharray="0.4,0.2" x1="29.96" y1="24.64" x2="29.63" y2="24.72" />
<line fill="none" stroke="#00aeef" stroke-width="0.04mm" stroke-dasharray="0.4,0.2" x1="29.96" y1="24.64" x2="30.54" y2="28.14" />
<line fill="none" stroke="#111111" stroke-width="0.04mm" x1="29.96" y1="24.64" x2="32.47" y2="25.83" />
<line fill="none" stroke="#00aeef" stroke-width="0.04mm" stroke-dasharray="0.4,0.2" x1="32.47" y1="25.83" x2="32.06" y2="26.03" />
<line fill="none" stroke="#00aeef" stroke-width="0.04mm" stroke-dasharray="0.4,0.2" x1="32.47" y1="25.83" x2="32.27" y2="24.46" />
<line fill="none" stroke="#5674b9" stroke-width="0.04mm" stroke-dasharray="0.4,0.2" x1="32.47" y1="25.83" x2="32.38" y2="29.37" />
<line fill="none" stroke="#111111" stroke-width="0.04mm" x1="32.47" y1="25.83" x2="34.94" y2="26.40" />
<line fill="none" stroke="#5674b9" stroke-width="0.04mm" stroke-dasharray="0.4,0.2" x1="34.94" y1="26.40" x2="34.77" y2="26.44" />
<line fill="none" stroke="#5674b9" stroke-width="0.04mm" stroke-dasharray="0.4,0.2" x1="34.94" y1="26.40" x2="35.49" y2="34.42" />
<line fill="none" stroke="#111111" stroke-width="0.04mm" x1="34.94" y1="26.40" x2="49.58" y2="38.68" />
<line fill="none" stroke="#5674b9" stroke-width="0.04mm" stroke-dasharray="0.4,0.2" x1="49.58" y1="38.68" x2="46.35" y2="38.38" />
<line fill="none" stroke="#5674b9" stroke-width="0.04mm" stroke-dasharray="0.4,0.2" x1="49.58" y1="38.68" x2="45.87" y2="38.20" />
<line fill="none" stroke="#5674b9" stroke-width="0.04mm" stroke-dasharray="0.4,0.2" x1="49.58" y1="38.68" x2="48.36" y2="38.35" />
<line fill="none" stroke="#5674b9" stroke-width="0.04mm" stroke-dasharray="0.4,0.2" x1="49.58" y1="38.68" x2="48.73" y2="47.42" />
<line fill="none" stroke="#00aeef" stroke-width="0.04mm" stroke-dasharray="0.4,0.2" x1="49.58" y1="38.68" x2="48.15" y2="34.70" />
<line fill="none" stroke="#111111" stroke-width="0.04mm" x1="49.58" y1="38.68" x2="55.51" y2="43.00" />
<line fill="none" stroke="#5674b9" stroke-width="0.04mm" stroke-dasharray="0.4,0.2" x1="55.51" y1="43.00" x2="52.39" y2="42.92" />
<line fill="none" stroke="#00aeef" stroke-width="0.04mm" stroke-dasharray="0.4,0.2" x1="55.51" y1="43.00" x2="54.40" y2="39.21" />
<line fill="none" stroke="#5674b9" stroke-width="0.04mm" stroke-dasharray="0.4,0.2" x1="55.51" y1="43.00" x2="53.26" y2="49.55" />
<line fill="none" stroke="#111111" stroke-width="0.04mm" x1="55.51" y1="43.00" x2="62.24" y2="46.09" />
<line fill="none" stroke="#00aeef" stroke-width="0.04mm" stroke-dasharray="0.4,0.2" x1="62.24" y1="46.09" x2="61.93" y2="46.04" />
<line fill="none" stroke="#00aeef" stroke-width="0.04mm" stroke-dasharray="0.4,0.2" x1="62.24" y1="46.09" x2="62.26" y2="52.92" />
<line fill="none" stroke="#00aeef" stroke-width="0.04mm" stroke-dasharray="0.4,0.2" x1="62.24" y1="46.09" x2="62.14" y2="42.68" />
<line fill="none" stroke="#111111" stroke-width="0.04mm" x1="62.24" y1="46.09" x2="65.37" y2="45.92" />
<line fill="none" stroke="#5674b9" stroke-width="0.04mm" stroke-dasharray="0.4,0.2" x1="65.37" y1="45.92" x2="65.20" y2="45.93" />
<line fill="none" stroke="#5674b9" stroke-width="0.04mm" stroke-dasharray="0.4,0.2" x1="65.37" y1="45.92" x2="65.32" y2="51.08" />
<line fill="none" stroke="#5674b9" stroke-width="0.04mm" stroke-dasharray="0.4,0.2" x1="65.37" y1="45.92" x2="65.75" y2="44.45" />
<line fill="none" stroke="#111111" stroke-width="0.04mm" x1="65.37" y1="45.92" x2="72.12" y2="51.95" />
<line fill="none" stroke="#5674b9" stroke-width="0.04mm" stroke-dasharray="0.4,0.2" x1="72.12" y1="51.95" x2="71.74" y2="51.99" />
<line fill="none" stroke="#5674b9" stroke-width="0.04mm" stroke-dasharray="0.4,0.2" x1="72.12" y1="51.95" x2="71.74" y2="56.54" />
<line fill="none" stroke="#5674b9" stroke-width="0.04mm" stroke-dasharray="0.4,0.2" x1="72.12" y1="51.95" x2="72.45" y2="47.64" />
<line fill="none" stroke="#111111" stroke-width="0.04mm" x1="72.12" y1="51.95" x2="74.20" y2="51.24" />
<line fill="none" stroke="#00aeef" stroke-width="0.04mm" stroke-dasharray="0.4,0.2" x1="74.20" y1="51.24" x2="73.84" y2="51.21" />
<line fill="none" stroke="#00aeef" stroke-width="0.04mm" stroke-dasharray="0.4,0.2" x1="74.20" y1="51.24" x2="74.51" y2="56.94" />
<line fill="none" stroke="#00aeef" stroke-width="0.04mm" stroke-dasharray="0.4,0.2" x1="74.20" y1="51.24" x2="73.98" y2="48.10" />
<line fill="none" stroke="#111111" stroke-width="0.04mm" x1="74.20" y1="51.24" x2="77.47" y2="52.07" />
<line fill="none" stroke="#5674b9" stroke-width="0.04mm" stroke-dasharray="0.4,0.2" x1="77.47" y1="52.07" x2="77.03" y2="52.23" />
<line fill="none" stroke="#00aeef" stroke-width="0.04mm" stroke-dasharray="0.4,0.2" x1="77.47" y1="52.07" x2="76.48" y2="57.09" />
<line fill="none" stroke="#5674b9" stroke-width="0.04mm" stroke-dasharray="0.4,0.2" x1="77.47" y1="52.07" x2="77.83" y2="49.92" />
<line fill="none" stroke="#111111" stroke-width="0.04mm" x1="77.47" y1="52.07" x2="80.51" y2="53.79" />
<line fill="none" stroke="#00aeef" stroke-width="0.04mm" stroke-dasharray="0.4,0.2" x1="80.51" y1="53.79" x2="80.28" y2="53.78" />
<line fill="none" stroke="#00aeef" stroke-width="0.04mm" stroke-dasharray="0.4,0.2" x1="80.51" y1="53.79" x2="80.14" y2="58.07" />
<line fill="none" stroke="#00aeef" stroke-width="0.04mm" stroke-dasharray="0.4,0.2" x1="80.51" y1="53.79" x2="80.46" y2="51.26" />
<line fill="none" stroke="#111111" stroke-width="0.04mm" x1="80.51" y1="53.79" x2="89.90" y2="56.32" />
<line fill="none" stroke="#5674b9" stroke-width="0.04mm" stroke-dasharray="0.4,0.2" x1="89.90" y1="56.32" x2="89.63" y2="56.08" />
<line fill="none" stroke="#5674b9" stroke-width="0.04mm" stroke-dasharray="0.4,0.2" x1="89.90" y1="56.32" x2="90.72" y2="61.89" />
<line fill="none" stroke="#5674b9" stroke-width="0.04mm" stroke-dasharray="0.4,0.2" x1="89.90" y1="56.32" x2="90.23" y2="53.89" />
<line fill="none" stroke="#111111" stroke-width="0.04mm" x1="89.90" y1="56.32" x2="92.42" y2="55.98" />
<line fill="none" stroke="#5674b9" stroke-width="0.04mm" stroke-dasharray="0.4,0.2" x1="92.42" y1="55.98" x2="91.82" y2="55.82" />
<line fill="none" stroke="#5674b9" stroke-width="0.04mm" stroke-dasharray="0.4,0.2" x1="92.42" y1="55.98" x2="92.39" y2="61.17" />
<line fill="none" stroke="#00aeef" stroke-width="0.04mm" stroke-dasharray="0.4,0.2" x1="92.42" y1="55.98" x2="92.23" y2="54.58" />
<line fill="none" stroke="#5674b9" stroke-width="0.04mm" stroke-dasharray="0.4,0.2" x1="92.42" y1="55.98" x2="92.15" y2="55.92" />
<line fill="none" stroke="#111111" stroke-width="0.04mm" x1="92.42" y1="55.98" x2="94.20" y2="57.51" />
<line fill="none" stroke="#00aeef" stroke-width="0.04mm" stroke-dasharray="0.4,0.2" x1="94.20" y1="57.51" x2="93.62" y2="56.84" />
<line fill="none" stroke="#00aeef" stroke-width="0.04mm" stroke-dasharray="0.4,0.2" x1="94.20" y1="57.51" x2="94.10" y2="62.04" />
<line fill="none" stroke="#00aeef" stroke-width="0.04mm" stroke-dasharray="0.4,0.2" x1="94.20" y1="57.51" x2="94.09" y2="55.18" />
<line fill="none" stroke="#111111" stroke-width="0.04mm" x1="94.20" y1="57.51" x2="100.97" y2="60.27" />
<line fill="none" stroke="#00aeef" stroke-width="0.04mm" stroke-dasharray="0.4,0.2" x1="100.97" y1="60.27" x2="100.64" y2="60.17" />
<line fill="none" stroke="#00aeef" stroke-width="0.04mm" stroke-dasharray="0.4,0.2" x1="100.97" y1="60.27" x2="100.86" y2="61.85" />
<line fill="none" stroke="#00aeef" stroke-width="0.04mm" stroke-dasharray="0.4,0.2" x1="100.97" y1="60.27" x2="101.09" y2="57.73" />
<line fill="none" stroke="#111111" stroke-width="0.04mm" x1="100.97" y1="60.27" x2="104.85" y2="59.72" />
<line fill="none" stroke="#5674b9" stroke-width="0.04mm" stroke-dasharray="0.4,0.2" x1="104.85" y1="59.72" x2="104.47" y2="59.46" />
<line fill="none" stroke="#5674b9" stroke-width="0.04mm" stroke-dasharray="0.4,0.2" x1="104.85" y1="59.72" x2="104.75" y2="59.07" />
<line fill="none" stroke="#111111" stroke-width="0.04mm" x1="104.85" y1="59.72" x2="108.64" y2="60.33" />
<line fill="none" stroke="#00aeef" stroke-width="0.04mm" stroke-dasharray="0.4,0.2" x1="108.64" y1="60.33" x2="108.66" y2="60.29" />
<line fill="none" stroke="#5674b9" stroke-width="0.04mm" stroke-dasharray="0.4,0.2" x1="108.64" y1="60.33" x2="107.55" y2="59.46" />
<line fill="none" stroke="#5674b9" stroke-width="0.04mm" stroke-dasharray="0.4,0.2" x1="108.64" y1="60.33" x2="107.80" y2="62.10" />
<line fill="none" stroke="#111111" stroke-width="0.04mm" x1="108.64" y1="60.33" x2="111.29" y2="59.47" />
<line fill="none" stroke="#00aeef" stroke-width="0.04mm" stroke-dasharray="0.4,0.2" x1="111.29" y1="59.47" x2="110.68" y2="59.58" />
<line fill="none" stroke="#00aeef" stroke-width="0.04mm" stroke-dasharray="0.4,0.2" x1="111.29" y1="59.47" x2="111.95" y2="62.49" />
<line fill="none" stroke="#111111" stroke-width="0.04mm" x1="111.29" y1="59.47" x2="125.54" y2="59.51" />
<line fill="none" stroke="#5674b9" stroke-width="0.04mm" stroke-dasharray="0.4,0.2" x1="125.54" y1="59.51" x2="125.50" y2="59.54" />
<line fill="none" stroke="#5674b9" stroke-width="0.04mm" stroke-dasharray="0.4,0.2" x1="125.54" y1="59.51" x2="125.11" y2="61.12" />
<line fill="none" stroke="#111111" stroke-width="0.04mm" x1="125.54" y1="59.51" x2="127.71" y2="64.87" />
<line fill="none" stroke="#00aeef" stroke-width="0.04mm" stroke-dasharray="0.4,0.2" x1="127.71" y1="64.87" x2="127.68" y2="64.81" />
<line fill="none" stroke="#00aeef" stroke-width="0.04mm" stroke-dasharray="0.4,0.2" x1="127.71" y1="64.87" x2="131.33" y2="64.61" />
<line fill="none" stroke="#5674b9" stroke-width="0.04mm" stroke-dasharray="0.4,0.2" x1="127.71" y1="64.87" x2="130.73" y2="65.06" />
<line fill="none" stroke="#111111" stroke-width="0.04mm" x1="127.71" y1="64.87" x2="133.95" y2="91.08" />
<line fill="none" stroke="#5674b9" stroke-width="0.04mm" stroke-dasharray="0.4,0.2" x1="133.95" y1="91.08" x2="131.76" y2="91.13" />
<line fill="none" stroke="#5674b9" stroke-width="0.04mm" stroke-dasharray="0.4,0.2" x1="133.95" y1="91.08" x2="135.49" y2="90.52" />
<line fill="none" stroke="#5674b9" stroke-width="0.04mm" stroke-dasharray="0.4,0.2" x1="133.95" y1="91.08" x2="139.35" y2="91.18" />
<line fill="none" stroke="#5674b9" stroke-width="0.04mm" stroke-dasharray="0.4,0.2" x1="133.95" y1="91.08" x2="135.61" y2="91.13" />
<line fill="none" stroke="#5674b9" stroke-width="0.04mm" stroke-dasharray="0.4,0.2" x1="133.95" y1="91.08" x2="139.74" y2="98.71" />
<line fill="none" stroke="#5674b9" stroke-width="0.04mm" stroke-dasharray="0.4,0.2" x1="133.95" y1="91.08" x2="135.79" y2="93.59" />
<line fill="none" stroke="#5674b9" stroke-width="0.04mm" stroke-dasharray="0.4,0.2" x1="133.95" y1="91.08" x2="139.66" y2="98.63" />
<line fill="none" stroke="#5674b9" stroke-width="0.04mm" stroke-dasharray="0.4,0.2" x1="133.95" y1="91.08" x2="139.71" y2="98.63" />
<line fill="none" stroke="#5674b9" stroke-width="0.04mm" stroke-dasharray="0.4,0.2" x1="133.95" y1="91.08" x2="137.98" y2="98.76" />
<line fill="none" stroke="#111111" stroke-width="0.04mm" x1="133.95" y1="91.08" x2="141.37" y2="98.50" />
</g>
<g>
<circle cx="20.00" cy="21.00" r="0.1" fill="#111111" />
<circle cx="25.58" cy="23.97" r="0.1" fill="#111111" />
<circle cx="29.96" cy="24.64" r="0.1" fill="#111111" />
<circle cx="32.47" cy="25.83" r="0.1" fill="#111111" />
<circle cx="34.94" cy="26.40" r="0.1" fill="#111111" />
<circle cx="49.58" cy="38.68" r="0.1" fill="#111111" />
<circle cx="55.51" cy="43.00" r="0.1" fill="#111111" />
<circle cx="62.24" cy="46.09" r="0.1" fill="#111111" />
<circle cx="65.37" cy="45.92" r="0.1" fill="#111111" />
<circle cx="72.12" cy="51.95" r="0.1" fill="#111111" />
<circle cx="74.20" cy="51.24" r="0.1" fill="#111111" />
<circle cx="77.47" cy="52.07" r="0.1" fill="#111111" />
<circle cx="80.51" cy="53.79" r="0.1" fill="#111111" />
<circle cx="89.90" cy="56.32" r="0.1" fill="#111111" />
<circle cx="92.42" cy="55.98" r="0.1" fill="#111111" />
<circle cx="94.20" cy="57.51" r="0.1" fill="#111111" />
<circle cx="100.97" cy="60.27" r="0.1" fill="#111111" />
<circle cx="104.85" cy="59.72" r="0.1" fill="#111111" />
<circle cx="108.64" cy="60.33" r="0.1" fill="#111111" />
<circle cx="111.29" cy="59.47" r="0.1" fill="#111111" />
<circle cx="125.54" cy="59.51" r="0.1" fill="#111111" />
<circle cx="127.71" cy="64.87" r="0.1" fill="#111111" />
<circle cx="133.95" cy="91.08" r="0.1" fill="#111111" />
<circle cx="141.37" cy="98.50" r="0.1" fill="#111111" />
</g>
<g>
<text x="20.20" y="21.00" font-size=".2mm" fill="#000000">0</text>
<text x="25.78" y="23.97" font-size=".2mm" fill="#000000">1</text>
<text x="30.16" y="24.64" font-size=".2mm" fill="#000000">2</text>
<text x="32.67" y="25.83" font-size=".2mm" fill="#000000">3</text>
<text x="35.14" y="26.40" font-size=".2mm" fill="#000000">4</text>
<text x="49.78" y="38.68" font-size=".2mm" fill="#000000">5</text>
<text x="55.71" y="43.00" font-size=".2mm" fill="#000000">6</text>
<text x="62.44" y="46.09" font-size=".2mm" fill="#000000">7</text>
<text x="65.57" y="45.92" font-size=".2mm" fill="#000000">8</text>
<text x="72.32" y="51.95" font-size=".2mm" fill="#000000">9</text>
<text x="74.40" y="51.24" font-size=".2mm" fill="#000000">10</text>
<text x="77.67" y="52.07" font-size=".2mm" fill="#000000">11</text>
<text x="80.71" y="53.79" font-size=".2mm" fill="#000000">12</text>
<text x="90.10" y="56.32" font-size=".2mm" fill="#000000">13</text>
<text x="92.62" y="55.98" font-size=".2mm" fill="#000000">14</text>
<text x="94.40" y="57.51" font-size=".2mm" fill="#000000">15</text>
<text x="101.17" y="60.27" font-size=".2mm" fill="#000000">16</text>
<text x="105.05" y="59.72" font-size=".2mm" fill="#000000">17</text>
<text x="108.84" y="60.33" font-size=".2mm" fill="#000000">18</text>
<text x="111.49" y="59.47" font-size=".2mm" fill="#000000">19</text>
<text x="125.74" y="59.51" font-size=".2mm" fill="#000000">20</text>
<text x="127.91" y="64.87" font-size=".2mm" fill="#000000">21</text>
<text x="134.15" y="91.08" font-size=".2mm" fill="#000000">22</text>
<text x="141.57" y="98.50" font-size=".2mm" fill="#000000">23</text>
</g>
<g>
</g>
</g>
</svg>