<?xml version="1.0" encoding="utf-8"?>
<!DOCTYPE svg PUBLIC "-//W3C//DTD SVG 1.1//EN" "http://www.w3.org/Graphics/SVG/1.1/DTD/svg11.dtd">
<svg version="1.1" id="Layer_1" xmlns="http://www.w3.org/2000/svg" xmlns:xlink="http://www.w3.org/1999/xlink" x="0px" y="0px" width="101mm" height="267mm" viewBox="0 0 101 267" enable-background="new 0 0 101 267" xml:space="preserve">
<symbol id="airflow" viewBox="-12 -12 24 24">
<path d="M-4.38,10.73l4.2-3.84V3.55L-4.07,7.13l-.31-.29L-.18,3V-6.89a3.37,3.37,0,0,0-1.68.53l1.68-4.15L0-11l.21.51h0v0l1.65,4.1A3.26,3.26,0,0,0,.24-6.89v14l-.08,0L-4.07,11Z"/>
<rect fill="none" x="-12" y="-12" width="24" height="24"/>
</symbol>
<symbol id="anastomosis" viewBox="-12 -12 24 24">
<path d="M2.23-4.78l.37.24L5.22-2.78l-.47.57L2.49-3.7l-4.61,8-.24.44-.37-.34L-5.22,2.3l.55-.52,2.1,1.82L2-4.39Z"/>
<rect fill="none" x="-12" y="-12" width="24" height="24"/>
</symbol>
<symbol id="bivouac" viewBox="-12 -12 24 24">
<path d="M.25-7.66l.24.58L.54-7l3.88.48-3.31.91L6,6H8.35v.48l-16.7.07V6.05h2.64L0-7.08Zm0,1.32L-5.13,6H-4l2.07-5L.2-4l2.09,5L4.37,6H5.44Z"/>
<rect fill="none" x="-12" y="-12" width="24" height="24"/>
</symbol>
<symbol id="bones" viewBox="-12 -12 24 24">
<path d="M2.44,4.27l-.16,0H2.13a.22.22,0,0,1-.11,0l-.1-.06a.39.39,0,0,1-.09-.11l-.08-.13a1.51,1.51,0,0,1-.06-.15l-.07-.17s0-.11-.08-.19-.06-.16-.08-.21a4.75,4.75,0,0,0-.38-.71c-.18-.29-.43-.64-.74-1A11.15,11.15,0,0,0-.7.32,6.73,6.73,0,0,0-2-.64a4.12,4.12,0,0,0-1.44-.52A1.64,1.64,0,0,1-5-2.19.72.72,0,0,1-5-2.44a1,1,0,0,1,0-.29A.52.52,0,0,1-4.87-3a.54.54,0,0,1,.35-.15L-4-3.22l.46,0a.54.54,0,0,0,.27-.06A.52.52,0,0,0-3-3.56a.74.74,0,0,0,.13-.31.54.54,0,0,1,.15-.26.54.54,0,0,1,.3-.15.83.83,0,0,1,.47,0,1.11,1.11,0,0,1,.35.4A7.46,7.46,0,0,1-1-2.76q.18.42.33.72a3.22,3.22,0,0,0,.39.57L.1-1a4.77,4.77,0,0,0,.58.43c.28.18.51.33.69.43l1,.56a1.84,1.84,0,0,0,.39.23A5.29,5.29,0,0,1,3.22.9l.43.26a3.7,3.7,0,0,1,.46.3l.36.29a2.28,2.28,0,0,1,.31.32A1,1,0,0,1,5,2.4c.2.48,0,.78-.47.91h0a8.48,8.48,0,0,0-1.12.09,1,1,0,0,0-.42.44A1,1,0,0,1,2.44,4.27Z"/>
<rect fill="none" x="-12" y="-12" width="24" height="24"/>
</symbol>
<symbol id="calcite" viewBox="-12 -12 24 24">
<path d="M2.36-2.22l.05.46.34,3.91L2,2.22,1.65-1.26-2.52-.06l-.23-.7L1.89-2.08Z"/>
<rect fill="none" x="-12" y="-12" width="24" height="24"/>
</symbol>
<symbol id="cauliflower" viewBox="-12 -12 24 24">
<path d="M5.58,3.22v-3A2.12,2.12,0,0,0,6.92-.43a1.78,1.78,0,0,0,.55-1.32,1.92,1.92,0,0,0-.65-1.42,2.19,2.19,0,0,0-1.53-.59,2.21,2.21,0,0,0-1.54.59,1.78,1.78,0,0,0-.64,1.42A1.86,1.86,0,0,0,3.65-.43,2.12,2.12,0,0,0,5,.23v3H.26v-3A2.17,2.17,0,0,0,1.61-.43a1.81,1.81,0,0,0,.54-1.32,1.91,1.91,0,0,0-.64-1.42A2.21,2.21,0,0,0,0-3.76a2.21,2.21,0,0,0-1.54.59,1.82,1.82,0,0,0-.64,1.42A1.83,1.83,0,0,0-1.66-.43,2.12,2.12,0,0,0-.32.23v3H-5v-3A2.12,2.12,0,0,0-3.71-.43a1.78,1.78,0,0,0,.55-1.32,1.92,1.92,0,0,0-.65-1.42,2.19,2.19,0,0,0-1.53-.59,2.21,2.21,0,0,0-1.54.59,1.83,1.83,0,0,0-.65,1.42A1.87,1.87,0,0,0-7-.43,2.12,2.12,0,0,0-5.64.23v3H-8v.54H8V3.22Z"/>
<rect fill="none" x="-12" y="-12" width="24" height="24"/>
</symbol>
<symbol id="clay" viewBox="-12 -12 24 24">
<path d="M1.85-1.33a3,3,0,0,1,1.67.48,3.23,3.23,0,0,1,1,1l.29.51-1,.43a3.81,3.81,0,0,0-.23-.4A3.74,3.74,0,0,0,2.93,0,1.77,1.77,0,0,0,1.85-.32a2.57,2.57,0,0,0-1.1.15A.86.86,0,0,0,.51.14,2.23,2.23,0,0,1,0,.88a2.55,2.55,0,0,1-1.45.43,3.16,3.16,0,0,1-2.75-1,4.28,4.28,0,0,1-.37-.57,3.91,3.91,0,0,1-.21-.47l0-.16,1-.22a1.87,1.87,0,0,0,.45.79A2.12,2.12,0,0,0-1.51.33,1.82,1.82,0,0,0-.69.14l.21-.36A1.53,1.53,0,0,1,.17-1,3.76,3.76,0,0,1,1.85-1.33Z"/>
<rect fill="none" x="-12" y="-12" width="24" height="24"/>
</symbol>
<symbol id="crystals" viewBox="-12 -12 24 24">
<path d="M-2.94-5.38,0-.72,2.94-5.38,3.62-5,.68-.36H6.56V.36H.68L3.62,5l-.68.36L0,.72-2.94,5.38-3.62,5-.68.36H-6.56V-.36H-.68L-3.62-5Z"/>
<rect fill="none" x="-12" y="-12" width="24" height="24"/>
</symbol>
<symbol id="curtain" viewBox="-12 -12 24 24">
<path d="M3.57-6.69l.52.53L.39-3V-.33L.1-.26a3.79,3.79,0,0,0-1,.41c-.58.3-.87.65-.87,1v.07A1.61,1.61,0,0,0-.84,2.48a3.69,3.69,0,0,0,.45.24L0,2.86l.13.05L.39,3V6.12H-.39V3.51a7.65,7.65,0,0,1-.9-.46A2.19,2.19,0,0,1-2.54,1.28V1.23A2,2,0,0,1-1.31-.48,5.32,5.32,0,0,1-.39-.86V-3l-3.7-3.14.52-.53L0-3.67Z"/>
<rect fill="none" x="-12" y="-12" width="24" height="24"/>
</symbol>
<symbol id="disk" viewBox="-12 -12 24 24">
<path d="M-.09-4.19a2.43,2.43,0,0,1,1.7.64A2,2,0,0,1,2.35-2,2.09,2.09,0,0,1,1.81-.55,2.44,2.44,0,0,1,.35.23l2.18,3.6-.68.33L0,1.14-1.48,4.19l-.71-.29L-.41.25A2.53,2.53,0,0,1-1.9-.47a2,2,0,0,1-.63-1.41,2,2,0,0,1,.67-1.61,2.46,2.46,0,0,1,1.72-.7ZM1.05-3.06.56-3.49l-.69,0A1.72,1.72,0,0,0-1.29-3a1.51,1.51,0,0,0-.45,1.08,1.36,1.36,0,0,0,.51,1A1.68,1.68,0,0,0-.07-.44v0l0,0A1.7,1.7,0,0,0,1.11-.92,1.36,1.36,0,0,0,1.56-2,1.47,1.47,0,0,0,1.05-3.06Z"/>
<rect fill="none" x="-12" y="-12" width="24" height="24"/>
</symbol>
<symbol id="entrance" viewBox="-12 -12 24 24">
<path d="M4.46,9H-4.46L0-9Z"/>
<rect fill="none" x="-12" y="-12" width="24" height="24"/>
</symbol>
<symbol id="flowstone" viewBox="-12 -12 24 24">
<rect x="-6" y="-0.21" width="12" height="0.42"/>
<rect fill="none" x="-12" y="-12" width="24" height="24"/>
</symbol>
<symbol id="flutes" viewBox="-12 -12 24 24">
<path d="M-7-1H7v.72H3.87A4.7,4.7,0,0,1,2.16,1.5,4.2,4.2,0,0,1,0,2.13,3.94,3.94,0,0,1-2.19,1.5,4.18,4.18,0,0,1-3.76-.27H-7Zm4.17.72A3.15,3.15,0,0,0-1.65,1,3.21,3.21,0,0,0,0,1.41,3.49,3.49,0,0,0,1.6,1,3.68,3.68,0,0,0,3-.27Z"/>
<rect fill="none" x="-12" y="-12" width="24" height="24"/>
</symbol>
<symbol id="gradient" viewBox="-12 -12 24 24">
<path d="M2.58-3.83,0-10-2.58-3.83A4.74,4.74,0,0,1-.17-4.5V10H.25V-4.5A6.65,6.65,0,0,1,2.58-3.83Z"/>
<rect fill="none" x="-12" y="-12" width="24" height="24"/>
</symbol>
<symbol id="guano" viewBox="-12 -12 24 24">
<path d="M-3.24-3a2.15,2.15,0,0,1,1.57.55A3.93,3.93,0,0,1-.59.24a4.32,4.32,0,0,1,2.75-2.3,2.68,2.68,0,0,1,2.23.36A2.36,2.36,0,0,1,5.5.19l-.79,0a1.72,1.72,0,0,0-.79-1.37,1.94,1.94,0,0,0-1.55-.24A3.53,3.53,0,0,0,.48,0,6.63,6.63,0,0,0-.69,3l-.79-.09a10.72,10.72,0,0,0,0-3.16A3.21,3.21,0,0,0-2.22-2,1.44,1.44,0,0,0-3.37-2.3,3.45,3.45,0,0,0-5-1.54l-.5-.55a4.29,4.29,0,0,1,2-.91A.9.9,0,0,1-3.24-3Z"/>
<rect fill="none" x="-12" y="-12" width="24" height="24"/>
</symbol>
<symbol id="helictites" viewBox="-12 -12 24 24">
<path d="M-4.59-7.92h.79v7.7l3.41,0V-7.92H.39V-.17L4.2-.12h.39v8H3.8V.6L.39.55V7.92H-.39V.55L-4.2.5l-.39,0v-8.4Z"/>
<rect fill="none" x="-12" y="-12" width="24" height="24"/>
</symbol>
<symbol id="human" viewBox="-12 -12 24 24">
<path d="M-3.59-3.29A5.13,5.13,0,0,1,0-4.66,5.13,5.13,0,0,1,3.59-3.29,4.3,4.3,0,0,1,5.09,0a4.3,4.3,0,0,1-1.5,3.29A5.13,5.13,0,0,1,0,4.66,5.13,5.13,0,0,1-3.59,3.29,4.3,4.3,0,0,1-5.09,0,4.3,4.3,0,0,1-3.59-3.29Zm.28.77A3.68,3.68,0,0,0-4.3,0a3.62,3.62,0,0,0,1,2.57L-.5.05ZM0-3.94A4.42,4.42,0,0,0-2.75-3L.16-.36H4.28A3.62,3.62,0,0,0,2.91-2.9,4.38,4.38,0,0,0,0-3.94ZM.16.46-2.7,3.07A4.42,4.42,0,0,0,0,3.94a4.37,4.37,0,0,0,2.87-1A3.78,3.78,0,0,0,4.28.46Z"/>
<rect fill="none" x="-12" y="-12" width="24" height="24"/>
</symbol>
<symbol id="karren" viewBox="-12 -12 24 24">
<path d="M1-5.84h0a1.37,1.37,0,0,1,1.06.68A3.33,3.33,0,0,1,2.5-3.79,25.79,25.79,0,0,1,2.36,0a18.61,18.61,0,0,0-.08,3.72,2.68,2.68,0,0,0,.41,1.2,1.13,1.13,0,0,0,.79.5A.92.92,0,0,0,4,4.94a4.43,4.43,0,0,0,.47-1.22c.16-.64.36-1.86.59-3.66a26.71,26.71,0,0,1,.64-3.69,4.62,4.62,0,0,1,.57-1.29,1.34,1.34,0,0,1,1-.59h0A1.28,1.28,0,0,1,8.37-5a2.17,2.17,0,0,1,.39,1.15A19.91,19.91,0,0,1,8.54-.53a21.51,21.51,0,0,0-.2,3.64A2.64,2.64,0,0,0,9.45,5.36,1.91,1.91,0,0,0,10.88,5a3.84,3.84,0,0,0,.7-1l.42.2-.1.18-.12.21-.11.18L11.52,5a.94.94,0,0,1-.14.16c-.06.07-.13.12-.19.18a2.5,2.5,0,0,1-1.85.41H9.29l0,0A3.06,3.06,0,0,1,7.87,3.13a22.11,22.11,0,0,1,.2-3.7,18.17,18.17,0,0,0,.22-3.28A1.85,1.85,0,0,0,8-4.79a.77.77,0,0,0-.67-.3.93.93,0,0,0-.64.42,4.51,4.51,0,0,0-.51,1.15A26.26,26.26,0,0,0,5.54.1c-.24,1.83-.45,3.07-.61,3.72a5.38,5.38,0,0,1-.51,1.34,1.33,1.33,0,0,1-.89.68H3.47A1.58,1.58,0,0,1,2.3,5.16a3.29,3.29,0,0,1-.49-1.4A20.27,20.27,0,0,1,1.89,0,23.45,23.45,0,0,0,2-3.75a2.94,2.94,0,0,0-.32-1.19A.93.93,0,0,0,1-5.42,1.1,1.1,0,0,0,.19-5,3.69,3.69,0,0,0-.43-3.76,20.78,20.78,0,0,0-1.07.07c-.2,2-.37,3.32-.49,3.86A4.48,4.48,0,0,1-2,5.26,1.06,1.06,0,0,1-3,5.81h0a1.9,1.9,0,0,1-1.29-.67,2.7,2.7,0,0,1-.58-1.31,14.92,14.92,0,0,1,0-3.6q0-.12.06-.54c0-.28,0-.47,0-.57s0-.28,0-.52,0-.42,0-.55,0-.28,0-.47,0-.36,0-.51,0-.29,0-.43A3.09,3.09,0,0,0-5-4.62a1.19,1.19,0,0,0-.67-.6,1.5,1.5,0,0,0-1.2.9A7,7,0,0,0-7.41-2.1c0,.39-.1,1-.14,1.76s-.11,1.47-.18,2.08A9.61,9.61,0,0,1-8,3.32h0l0,0A2.81,2.81,0,0,1-9.2,4.62a1.82,1.82,0,0,1-1.35.15A1.94,1.94,0,0,1-11.61,4,2.39,2.39,0,0,1-12,2.56l.47,0a1.92,1.92,0,0,0,.31,1.16,1.47,1.47,0,0,0,.81.62,1.3,1.3,0,0,0,1-.11A2.32,2.32,0,0,0-8.5,3.18a7.53,7.53,0,0,0,.29-1.5Q-8.1.8-8-.36c0-.78.1-1.37.16-1.78A7.23,7.23,0,0,1-7.28-4.5,1.93,1.93,0,0,1-5.65-5.66h.05l0,0a1.59,1.59,0,0,1,1,.84,3.47,3.47,0,0,1,.34,1.41,4.91,4.91,0,0,1,0,.57v.54c0,.15,0,.37,0,.66s0,.47,0,.58,0,.33-.06.68,0,.56-.06.63a14.78,14.78,0,0,0,0,3.49,2.58,2.58,0,0,0,.5,1.13,1.57,1.57,0,0,0,1,.5A.61.61,0,0,0-2.44,5,3.89,3.89,0,0,0-2,3.85C-1.9,3.31-1.74,2-1.53,0A20.65,20.65,0,0,1-.86-3.89,3.89,3.89,0,0,1-.18-5.26,1.58,1.58,0,0,1,1-5.84Z"/>
<rect fill="none" x="-12" y="-12" width="24" height="24"/>
</symbol>
<symbol id="moonmilk" viewBox="-12 -12 24 24">
<path d="M-4.78-3.06a3.39,3.39,0,0,1,1.5.34,2.48,2.48,0,0,1,1.1,1,3.74,3.74,0,0,1,1.62-.8,3.52,3.52,0,0,1,1.71,0,2.9,2.9,0,0,1,1.39.77A2.49,2.49,0,0,1,3.25-.37,4,4,0,0,1,5-.76a3.58,3.58,0,0,1,1.6.36A2.84,2.84,0,0,1,7.88.92a2.32,2.32,0,0,1,0,1.88.34.34,0,0,1-.37.26A.36.36,0,0,1,7.25,3a.32.32,0,0,1-.12-.25.21.21,0,0,1,0-.12,2,2,0,0,0,0-1.43,2,2,0,0,0-1-.9A2.81,2.81,0,0,0,4.68,0,2.78,2.78,0,0,0,3.12.56L2.46.25A1.7,1.7,0,0,0,2.15-1.1,2.15,2.15,0,0,0,1-1.81a2.85,2.85,0,0,0-1.58.06A3,3,0,0,0-2-.83l-.71-.12A1.74,1.74,0,0,0-3.55-2a2.36,2.36,0,0,0-1.39-.27,3.08,3.08,0,0,0-1.45.53A2.33,2.33,0,0,0-7.32-.56a.35.35,0,0,1-.37.24A.39.39,0,0,1-8-.42a.33.33,0,0,1-.1-.26v-.1A3,3,0,0,1-6.89-2.35,4,4,0,0,1-5-3Z"/>
<rect fill="none" x="-12" y="-12" width="24" height="24"/>
</symbol>
<symbol id="narrow" viewBox="-12 -12 24 24">
<path d="M-1.5,5V-5h0.64V5H-1.5z"/>
<path d="M0.86,5V-5H1.5V5H0.86z"/>
<rect fill="none" x="-12" y="-12" width="24" height="24"/>
</symbol>
<symbol id="paleoflow" viewBox="-12 -12 24 24">
<path d="M.38-12V.17A1.9,1.9,0,0,0,1,0,1.57,1.57,0,0,0,1.7-.72a1.86,1.86,0,0,0,.23-1c0-.09,0-.14.08-.16a.92.92,0,0,1,.24,0,.52.52,0,0,0,.25,0h.08A2.48,2.48,0,0,1,2,0,2.5,2.5,0,0,1,.38.77V7.21H2.09L0,12-1.8,7.23c.07,0,.59,0,1.53,0V.77A3,3,0,0,1-1.35.43a2.16,2.16,0,0,1-1-1,2.38,2.38,0,0,1-.24-1.33l.67,0a2,2,0,0,0,.15,1,1.73,1.73,0,0,0,.59.67A2.14,2.14,0,0,0-.27.16V-12Z"/>
<rect fill="none" x="-12" y="-12" width="24" height="24"/>
</symbol>
<symbol id="rain" viewBox="-12 -12 24 24">
<path d="M-4.14-6.34h0.71v4.69h-0.71V-6.34z"/>
<path d="M-0.35-6.34h0.71v4.69h-0.71V-6.34z"/>
<path d="M3.43-6.34h0.71v4.69H3.43V-6.34z"/>
<path d="M-4.14,1.65h0.71v4.69h-0.71V1.65z"/>
<path d="M-0.35,1.65h0.71v4.69h-0.71V1.65z"/>
<path d="M3.43,1.65h0.71v4.69H3.43V1.65z"/>
<rect fill="none" x="-12" y="-12" width="24" height="24"/>
</symbol>
<symbol id="rats" viewBox="-12 -12 24 24">
<path d="M8.78-2.32,7-2.27c-.51-.17-.65-.56-1.46-.45l-.25.45C3.59-2.75,2.59-3.66.56-3.62l-1.35.3A4.89,4.89,0,0,0-4.24,1.57c-.68.6-2.58.86-3.39.94a6.84,6.84,0,0,0-1.62.39,4.91,4.91,0,0,0-1,.52A1.75,1.75,0,0,0-11,4.61a1.16,1.16,0,0,0,.59,1.48,1.3,1.3,0,0,1,.14.12c.16-.52-.35-.92-.2-1.42a3.35,3.35,0,0,1,.27-.45,3.18,3.18,0,0,1,1.79-1c.63-.12,1.27-.22,1.91-.3.48-.07,1,0,1.4-.12A6.94,6.94,0,0,1-4,2.82,30.64,30.64,0,0,0,.41,2.69l2.16.15c.1-.09,0,0,.1-.15a.87.87,0,0,0-.9-.55c.86-1,2.27-.37,3.1-.05.5.19,1,0,1.25.4.11-.1.1-.07.15-.25.3,0,.31.07.6.15-.06-.49-.34-.64-1-.6a.78.78,0,0,1,0-.55C6.3.56,7.29.73,8.13.43a13.78,13.78,0,0,0,2.15-.9l.6-.85v-.2A16.9,16.9,0,0,0,8.78-2.32Z"/>
<rect fill="none" x="-12" y="-12" width="24" height="24"/>
</symbol>
<symbol id="sand" viewBox="-12 -12 24 24">
<path d="M-1.58,0.83c0.23,0.2,0.35,0.44,0.36,0.73c0.01,0.29-0.08,0.54-0.28,0.75c-0.2,0.21-0.46,0.32-0.78,0.33c-0.32,0.01-0.6-0.08-0.83-0.26C-3.36,2.19-3.49,1.95-3.5,1.67C-3.51,1.38-3.41,1.12-3.2,0.9c0.21-0.22,0.48-0.34,0.8-0.35C-2.08,0.54-1.81,0.64-1.58,0.83z"/>
<path d="M0.08-2.36c0.23,0.2,0.35,0.44,0.36,0.73c0.01,0.29-0.08,0.54-0.28,0.75c-0.2,0.21-0.46,0.32-0.78,0.33c-0.32,0.01-0.59-0.07-0.83-0.26s-0.37-0.42-0.38-0.71c-0.01-0.29,0.09-0.54,0.3-0.76c0.21-0.22,0.48-0.33,0.8-0.35C-0.42-2.65-0.14-2.56,0.08-2.36z"/>
<path d="M3.12,0.55c0.23,0.2,0.35,0.43,0.38,0.71c0.02,0.28-0.07,0.53-0.28,0.75C3,2.23,2.73,2.35,2.42,2.36C2.1,2.37,1.82,2.28,1.58,2.08C1.34,1.88,1.22,1.64,1.2,1.35c-0.01-0.29,0.09-0.54,0.3-0.75C1.72,0.4,1.99,0.29,2.3,0.28S2.89,0.36,3.12,0.55z"/>
<rect fill="none" x="-12" y="-12" width="24" height="24"/>
</symbol>
<symbol  id="scallops" viewBox="-12 -12 24 24">
<path d="M.05-3.74l.21,0A2.35,2.35,0,0,1,1.74-3a2,2,0,0,1,.59,1.55v0l0,0A9.59,9.59,0,0,1-.08,3.27l-.39.47-.27-.55A14.26,14.26,0,0,1-2.33-1.89v-.05l0-.05A2,2,0,0,1-1.44-3.3,2.42,2.42,0,0,1,.05-3.74ZM-.11-3A1.44,1.44,0,0,0-1.55-1.89,13.06,13.06,0,0,0-.29,2.33,8.6,8.6,0,0,0,1.55-1.54a1.41,1.41,0,0,0-.38-1A1.62,1.62,0,0,0,.18-3Z"/>
<rect fill="none" x="-12" y="-12" width="24" height="24"/>
</symbol>
<symbol  id="sink" viewBox="-12 -12 24 24">
<path d="M.72,9.41H.9c1.94,0,3.26-.54,3.94-1.51a3.61,3.61,0,0,0,.33-.69,2,2,0,0,0,.11-.54V6.46l.69,0a2.8,2.8,0,0,1-.58,1.78C4.58,9.39,3.1,10,.93,10H-.93q-3.25,0-4.46-1.8a2.74,2.74,0,0,1-.43-.83A2.37,2.37,0,0,1-6,6.67V6.43l.68,0A2.27,2.27,0,0,0-4.84,7.9c.68,1,2,1.47,3.93,1.48l.5,0ZM-1.46-10a.68.68,0,0,0,.16.41A2.77,2.77,0,0,0-.51-9l0,0a3.63,3.63,0,0,1,1,.7,1.15,1.15,0,0,1,.34.88c0,.58-.53,1.14-1.49,1.68-.68.42-1,.79-1,1.11s.3.61.84,1h0Q.61-2.86.46-1.78a3.51,3.51,0,0,1-1.55,2,.61.61,0,0,0-.26.41,1.67,1.67,0,0,0,.1.51,5.3,5.3,0,0,1,.32,1L.56,1.9.46,8.06-3.4,2.54l1.73-.28A6.16,6.16,0,0,0-2,1.39,1.7,1.7,0,0,1-2.09.58a1.21,1.21,0,0,1,.53-.82h0v0C-.75-.86-.33-1.38-.28-1.85s-.23-.87-.91-1.27h0C-2-3.6-2.37-4.1-2.4-4.61S-2-5.74-1.09-6.29C-.34-6.72.06-7.1.09-7.44a.67.67,0,0,0-.18-.43,3.17,3.17,0,0,0-.79-.58,2.93,2.93,0,0,1-1-.67A1.16,1.16,0,0,1-2.17-10Z"/>
<rect fill="none" x="-12" y="-12" width="24" height="24"/>
</symbol>
<symbol  id="spring" viewBox="-12 -12 24 24">
<path d="M-1.34-9.86,2.52-4.34.78-4.06a8,8,0,0,0,.29.87,1.4,1.4,0,0,1,.13.79,1.3,1.3,0,0,1-.52.84l0,0v0C-.13-.95-.55-.42-.61,0S-.37.91.31,1.3l0,0c.75.46,1.14,1,1.18,1.46S1.12,3.92.21,4.46C-.54,4.9-.94,5.29-1,5.64a.74.74,0,0,0,.18.43A3.2,3.2,0,0,0,0,6.62a3,3,0,0,1,1,.7,1.14,1.14,0,0,1,.31.86A1.74,1.74,0,0,1,.71,9.26H.92c1.92,0,3.22-.52,3.9-1.51a2.05,2.05,0,0,0,.35-.67,2.59,2.59,0,0,0,.1-.55l0-.19.65,0a2.84,2.84,0,0,1-.55,1.8C4.58,9.26,3.08,9.85.92,9.86H-.92c-2.17,0-3.66-.6-4.49-1.77a3.65,3.65,0,0,1-.4-.85A2.43,2.43,0,0,1-6,6.53V6.29l.66,0a2.08,2.08,0,0,0,.47,1.41c.68,1,2,1.5,3.91,1.51H-.4c.62-.43.94-.8,1-1.1a.76.76,0,0,0-.16-.43,3.25,3.25,0,0,0-.79-.51v0a3.8,3.8,0,0,1-1-.7,1.15,1.15,0,0,1-.34-.91q.06-.84,1.5-1.68c.68-.4,1-.77,1-1.1S.49,2.21,0,1.87c0,0,0,0,0,0C-1,1.32-1.44.69-1.34,0a3.58,3.58,0,0,1,1.55-2,.54.54,0,0,0,.23-.38A1.28,1.28,0,0,0,.37-3a4.57,4.57,0,0,1-.32-1l-1.49.24Z"/>
<rect fill="none" x="-12" y="-12" width="24" height="24"/>
</symbol>
<symbol  id="stalactite" viewBox="-12 -12 24 24">
<path d="M3.57-6.69l.52.53L.39-3V6.12H-.39V-3l-3.7-3.14.52-.53L0-3.67Z"/>
<rect fill="none" x="-12" y="-12" width="24" height="24"/>
</symbol>
<symbol  id="stalagmite" viewBox="-12 -12 24 24">
<path d="M.38-6.42V2.75L4.11,5.89l-.56.53L0,3.4l-3.57,3-.53-.53,3.7-3.14V-6.42Z"/>
<rect fill="none" x="-12" y="-12" width="24" height="24"/>
</symbol>
<symbol  id="stalagnate" viewBox="-12 -12 24 24">
<path d="M3.55-8.46l.56.53L.38-4.78v9L4.11,7.36l-.56.53L0,4.86l-3.57,3-.53-.53,3.7-3.14v-9l-3.7-3.15.53-.53L0-5.43Z"/>
<rect fill="none" x="-12" y="-12" width="24" height="24"/>
</symbol>
<symbol  id="straws" viewBox="-12 -12 24 24">
<path d="M-10.89-2.76H10.89V-2H9.63V.46H8.84V-2H8.29v5.6H7.5V-2H5.56V.7H4.77V-2H2.07V2.38H1.29V-2H-.1v3H-.89V-2H-3.2V4.11H-4V-2H-6.22L-6.16.75l-.79,0L-7-2H-8.32V2.33H-9.1V-2h-1.79Z"/>
<rect fill="none" x="-12" y="-12" width="24" height="24"/>
</symbol>
<symbol  id="water" viewBox="-12 -12 24 24">
<path d="M-1.72-9.86,2.11-4.32.38-4.06a6.49,6.49,0,0,0,.29.89,1.5,1.5,0,0,1,.13.79,1.2,1.2,0,0,1-.5.82h0l0,0C-.54-.94-1-.42-1,.05s.24.89.92,1.27h0c.77.48,1.17,1,1.19,1.49S.71,3.94-.2,4.49c-.75.43-1.13.81-1.15,1.15a.51.51,0,0,0,.18.43,2.66,2.66,0,0,0,.76.58,2.93,2.93,0,0,1,1,.67,1.16,1.16,0,0,1,.29.89C.84,8.75.42,9.3-.41,9.86l-.44-.55c.66-.45,1-.83,1-1.15A.47.47,0,0,0,0,7.75a2.84,2.84,0,0,0-.78-.53h0a3.87,3.87,0,0,1-1-.69,1.24,1.24,0,0,1-.34-.91c0-.58.54-1.14,1.52-1.68.66-.42,1-.79,1-1.11s-.3-.61-.84-1h0Q-1.9,1.06-1.74,0a3.44,3.44,0,0,1,1.54-2,.67.67,0,0,0,.27-.41A1.11,1.11,0,0,0,0-3a4.33,4.33,0,0,1-.31-1l-1.5.24Z"/>
<rect fill="none" x="-12" y="-12" width="24" height="24"/>
</symbol><symbol  id="tree" viewBox="-12 -12 24 24">
<path d="M7.4-5.04A4.271,4.271,0,0,0,7.7-6.627a4.3,4.3,0,0,0-4.3-4.3A4.279,4.279,0,0,0,.636-9.914,4.293,4.293,0,0,0-3.045-12a4.3,4.3,0,0,0-4.3,4.3,4.27,4.27,0,0,0,.421,1.845,4.3,4.3,0,0,0-3.645,4.244,4.3,4.3,0,0,0,4.3,4.3A4.282,4.282,0,0,0-3.946,2L-1.175,5.23h0L-1.612,12H.982L.757,6.376,4.119,2.827v0a4.272,4.272,0,0,0,2.15.58,4.3,4.3,0,0,0,4.3-4.3A4.3,4.3,0,0,0,7.4-5.04ZM-3.346,1.538h0A4.346,4.346,0,0,0-2.7.788a4.266,4.266,0,0,0,1.765.753l-.135,2.087ZM.69,4.7.563,1.544A4.258,4.258,0,0,0,2.321.805,4.3,4.3,0,0,0,3.378,2.279Z"/>
<rect fill="none" x="-12" y="-12" width="24" height="24"/>
</symbol><g>
<desc></desc>
<g>
<line fill="none" stroke="#dddddd" stroke-width="0.1mm" x1="0.00" y1="27.00" x2="101.00" y2="27.00" />
<text x="98.20" y="26.80" font-size=".2mm" fill="#000000">0m</text>
<line fill="none" stroke="#dddddd" stroke-width="0.1mm" x1="0.00" y1="77.00" x2="101.00" y2="77.00" />
<text x="98.20" y="76.80" font-size=".2mm" fill="#000000">-5m</text>
<line fill="none" stroke="#dddddd" stroke-width="0.1mm" x1="0.00" y1="127.00" x2="101.00" y2="127.00" />
<text x="98.20" y="126.80" font-size=".2mm" fill="#000000">-10m</text>
<line fill="none" stroke="#dddddd" stroke-width="0.1mm" x1="0.00" y1="177.00" x2="101.00" y2="177.00" />
<text x="98.20" y="176.80" font-size=".2mm" fill="#000000">-15m</text>
<line fill="none" stroke="#dddddd" stroke-width="0.1mm" x1="0.00" y1="227.00" x2="101.00" y2="227.00" />
<text x="98.20" y="226.80" font-size=".2mm" fill="#000000">-20m</text>
<line fill="none" stroke="#dddddd" stroke-width="0.1mm" x1="27.00" y1="0.00" x2="27.00" y2="267.00" />
<text x="27.40" y="2.00" font-size=".2mm" fill="#000000">0m</text>
<line fill="none" stroke="#dddddd" stroke-width="0.1mm" x1="77.00" y1="0.00" x2="77.00" y2="267.00" />
<text x="77.40" y="2.00" font-size=".2mm" fill="#000000">5m</text>
</g>
<g>
<defs><path id="DRAW_7714"  d="M18.913887,22.718994 L19.644173,22.438585" /></defs><use xlink:href="#DRAW_7714" fill="none" stroke="#000000" stroke-width="0.04mm" /><text style="fill:#000000; font-size:0.5mm; letter-spacing:2;"><textPath xlink:href="#DRAW_7714">||||</textPath></text><defs><path id="DRAW_7715"  d="M18.869297,22.09471 L18.603765,21.992676" /></defs><use xlink:href="#DRAW_7715" fill="none" stroke="#000000" stroke-width="0.04mm" /><text style="fill:#000000; font-size:0.5mm; letter-spacing:2;"><textPath xlink:href="#DRAW_7715">||</textPath></text><defs><path id="DRAW_7717"  d="M19.493538,21.440708 C19.708591,21.90004 19.89394,22.374485 20.138693,22.818703 C20.280382,23.075867 20.475113,23.30007 20.648537,23.536995 C21.929398,25.28686 23.256817,27.003195 24.501482,28.778986 C24.943306,29.409346 25.295221,31.323103 25.388699,31.622478 C25.45399,31.831581 25.542358,32.04084 25.678999,32.21206 C26.670887,33.454956 27.687504,34.68039 28.763456,35.85127 C29.050955,36.16413 29.390806,36.43434 29.756998,36.64984 C33.60707,38.91559 30.53409,36.305107 36.44094,39.33559 C38.13719,40.205845 39.761368,41.249687 41.22087,42.47625 C49.52722,49.456894 44.590355,47.84298 48.55067,49.01313 L48.55067,49.01313" /></defs><use xlink:href="#DRAW_7717" fill="none" stroke="#000000" stroke-width="0.04mm" /><text style="fill:#000000; font-size:0.5mm; letter-spacing:2;"><textPath xlink:href="#DRAW_7717">||||||||||||||||||||||||||||||||||||||||||||||||||||||||||||||||||||||||||||||||||||||||||||||||||||||||||||||||||||||||||||||||||||||||||||||||||||||||||||||||||||||</textPath></text><path fill="none" stroke="#000000" stroke-width="0.06mm" d="M18.639566,21.151974 C17.599342,23.158083 17.72754,22.894323 17.182995,24.957115 L17.182995,24.957115" /><defs><path id="DRAW_7735"  d="M18.446346,22.549164 C18.2214,22.770548 17.357388,23.49804 17.163979,23.977686 C16.810875,24.85337 16.452429,25.733435 16.222246,26.649143 C15.177871,30.803865 16.590755,40.864773 16.675215,41.64815 C16.821045,43.00077 17.647743,49.253128 18.939644,51.80816 C20.512749,54.919327 22.319235,57.907784 23.92901,61.000137 C24.397608,61.900307 26.447268,66.67444 27.401255,67.8427 C30.342785,71.44495 33.391987,74.96907 36.640434,78.29718 C38.873005,80.5845 41.239464,82.76607 43.814972,84.658936 C45.4779,85.8811 47.442825,86.62779 49.273003,87.58146 C49.445107,87.67114 49.625683,87.75923 49.817776,87.78686 C50.1429,87.8336 50.474632,87.796585 50.803062,87.80145 L50.803062,87.80145" /></defs><use xlink:href="#DRAW_7735" fill="none" stroke="#000000" stroke-width="0.04mm" /><text style="fill:#000000; font-size:0.5mm; letter-spacing:2;"><textPath xlink:href="#DRAW_7735">|||||||||||||||||||||||||||||||||||||||||||||||||||||||||||||||||||||||||||||||||||||||||||||||||||||||||||||||||||||||||||||||||||||||||||||||||||||||||||||||||||||||||||||||||||||||||||||||||||||||||||||||||||||||||||||||||||||||||||||||||||||||||||||||||||||||||||||||||||||||||||||||||||||||||||||||||||||||||||||||</textPath></text><defs><path id="DRAW_7736"  d="M49.911285,87.63794 C50.809753,87.93845 51.78061,88.28947 52.74813,88.10683 C56.92762,87.31785 55.860153,78.62844 55.782684,77.21617 C55.557007,73.10209 54.88759,69.0199 54.20724,64.95619 C53.50739,60.776012 53.446564,64.02969 52.512848,60.890327 C52.358955,60.372902 52.4134,59.81526 52.363678,59.27773 L52.363678,59.27773" /></defs><use xlink:href="#DRAW_7736" fill="none" stroke="#000000" stroke-width="0.04mm" /><text style="fill:#000000; font-size:0.5mm; letter-spacing:2;"><textPath xlink:href="#DRAW_7736">|||||||||||||||||||||||||||||||||||||||||||||||||||||||||||||||||||||||||||||||||||||||||||||||||||||||||||||||||||||||||||||||||||</textPath></text><path fill="none" stroke="#000000" stroke-width="0.06mm" d="M22.198603,21.619078 C23.03402,22.342955 23.912086,23.020353 24.70485,23.790707 C25.248638,24.319124 25.70077,24.934324 26.19873,25.506134 C28.228872,27.187717 30.311386,28.80801 32.289158,30.550888 C32.68919,30.90341 32.96452,31.376411 33.315575,31.777735 C34.930885,33.62435 36.48089,35.532196 38.187943,37.29435 C41.76264,40.984432 44.50025,42.619225 47.12375,46.669827 C48.272865,48.44402 49.23796,50.33333 50.191586,52.21981 C50.65762,53.14173 50.942627,54.145924 51.37678,55.08328 C52.317,57.11325 52.5706,56.905308 52.944435,58.540276 C53.150974,59.443573 52.935734,60.771774 51.8723,60.991035 C50.922745,61.186825 50.01948,60.87054 49.137787,60.477608 C46.432198,59.27184 43.597683,58.27571 41.108475,56.670116 C33.500534,51.762814 32.827183,50.922558 28.579428,45.993507 C26.107182,43.12474 23.615005,40.272743 21.181091,37.371384 C20.942987,37.087555 20.6907,36.450134 20.619593,36.09589 C19.659918,31.31491 19.581135,28.44051 19.186785,22.76441 C19.127724,21.914333 19.459618,21.042233 20.319126,20.793175 C21.23043,20.529108 22.128454,21.984798 22.527203,22.374136 C22.99652,22.832378 23.802317,22.680466 24.353735,22.629807 L24.353735,22.629807" /><defs><path id="DRAW_7746"  d="M43.832325,86.21102 C45.957844,105.403175 42.598267,73.31453 45.011967,119.65309 C45.147133,122.248024 45.840965,124.78442 46.340607,127.33438 C46.622,128.7705 46.8666,129.52716 47.59288,130.6908 C47.77044,130.97528 48.164284,131.6156 48.563553,131.8731 C49.08142,132.20706 49.820175,132.04675 50.343433,131.84076 C51.253056,131.48264 52.363937,131.06332 53.14948,130.37857 C55.139946,128.64352 56.37954,123.82724 56.684357,122.59755 C57.89539,117.71204 58.84659,112.74899 59.435677,107.75023 C60.073112,102.34118 59.151913,97.24252 58.636505,91.90439 C58.481815,90.30228 58.52005,88.67764 58.24665,87.09148 C57.552372,83.063545 57.216927,82.317154 56.183456,79.46283 L56.183456,79.46283" /></defs><use xlink:href="#DRAW_7746" fill="none" stroke="#000000" stroke-width="0.04mm" /><text style="fill:#000000; font-size:0.5mm; letter-spacing:2;"><textPath xlink:href="#DRAW_7746">|||||||||||||||||||||||||||||||||||||||||||||||||||||||||||||||||||||||||||||||||||||||||||||||||||||||||||||||||||||||||||||||||||||||||||||||||||||||||||||||||||||||||||||||||||||||||||||||||||||||||||||||||||||||||||||||||||||||||||||||||||||||||||||||||||||||||||||||||||||||||||||||||||||||||||||||||||||||||||||||||||||||||||||||||||||||||||||||||||||||||||||||||||||||||||||||||||||||||||||||||||||||||||||||||</textPath></text><defs><path id="DRAW_7747"  d="M45.288902,107.718994 C45.476295,108.06569 45.643673,108.42398 45.851078,108.7591 C46.44556,109.71961 48.23905,110.37033 48.976105,110.65226 C49.731766,110.9413 50.816624,111.10359 51.657814,111.09465 C52.075325,111.09021 52.853714,110.90813 53.248474,110.89596 C53.96351,110.87392 54.890686,111.110855 55.575695,110.68897 C56.923233,109.85908 57.882397,108.48784 58.1895,106.93864 C58.209435,106.83806 58.211025,106.73454 58.215088,106.63208 C58.22605,106.355385 58.22807,106.0784 58.234562,105.80156 L58.234562,105.80156" /></defs><use xlink:href="#DRAW_7747" fill="none" stroke="#000000" stroke-width="0.04mm" /><text style="fill:#000000; font-size:0.5mm; letter-spacing:2;"><textPath xlink:href="#DRAW_7747">|||||||||||||||||||||||||||||||||||||||||||||||||||||||||||||||||||||</textPath></text><defs><path id="DRAW_7761"  d="M65.41115,146.01334 C65.56333,145.60446 65.74329,145.20486 65.86769,144.78671 C65.93402,144.56375 65.9898,144.33057 65.98088,144.09814 C65.89261,141.79715 66.13241,139.43657 65.57671,137.20195 C64.27812,131.9799 62.381172,126.917435 60.458637,121.89151 C59.548813,119.513016 58.234406,117.3096 57.096046,115.03165 C56.294678,113.42803 56.119095,114.169 56.597397,113.149376 L56.597397,113.149376" /></defs><use xlink:href="#DRAW_7761" fill="none" stroke="#000000" stroke-width="0.04mm" /><text style="fill:#000000; font-size:0.5mm; letter-spacing:2;"><textPath xlink:href="#DRAW_7761">|||||||||||||||||||||||||||||||||||||||||||||||||||||||||||||||||||||||||||||||||||||||||||||||||||||||||||||||||||||||||||||||||||||||||||</textPath></text><defs><path id="DRAW_7763"  d="M46.682766,131.09982 C46.915916,131.49316 47.182198,131.86865 47.382217,132.27985 C47.530205,132.58406 47.63562,132.9091 47.721996,133.2362 C48.152306,134.86569 48.46144,136.52698 48.9312,138.14552 C49.190147,139.03772 49.667046,139.85892 49.904793,140.757 C50.742332,143.92084 50.383667,145.6232 52.25549,148.08261 C53.3322,149.49733 55.103447,150.33809 56.8703,150.3501 C59.685802,150.36922 62.598713,150.55698 64.62238,148.26437 C65.52066,147.24673 65.72781,145.79375 66.03438,144.53676 L66.03438,144.53676" /></defs><use xlink:href="#DRAW_7763" fill="none" stroke="#000000" stroke-width="0.04mm" /><text style="fill:#000000; font-size:0.5mm; letter-spacing:2;"><textPath xlink:href="#DRAW_7763">|||||||||||||||||||||||||||||||||||||||||||||||||||||||||||||||||||||||||||||||||||||||||||||||||||||||||||||||||||||||||||||||||||||||||||||</textPath></text><defs><path id="DRAW_7765"  d="M54.53042,150.8836 C54.376324,151.25192 54.1925,151.60919 54.06814,151.98859 C53.43732,153.91298 54.575634,156.8651 55.003677,158.26819 C55.644897,160.37006 56.235085,162.51096 57.208893,164.4809 C58.97731,168.05829 61.223064,171.3793 63.198875,174.84647 C63.56302,175.48546 63.696705,176.05923 64.19647,176.58002 C64.39588,176.78781 64.63896,176.94879 64.8602,177.13316 L64.8602,177.13316" /></defs><use xlink:href="#DRAW_7765" fill="none" stroke="#000000" stroke-width="0.04mm" /><text style="fill:#000000; font-size:0.5mm; letter-spacing:2;"><textPath xlink:href="#DRAW_7765">||||||||||||||||||||||||||||||||||||||||||||||||||||||||||||||||||||||||||||||||||||||||||||||||||||||||||||||||||||</textPath></text><defs><path id="DRAW_7766"  d="M64.889915,178.61954 C67.12905,180.08748 69.36819,181.5554 71.607315,183.02335 C71.90306,183.14062 72.179214,183.33295 72.494545,183.37523 C74.37602,183.62753 76.270874,183.77689 78.165016,183.90279 C78.97778,183.9568 79.969604,183.53711 80.606,183.06367 C81.2231,182.6046 81.91408,181.93973 82.32178,181.27188 C82.57775,180.76208 82.833725,180.25229 83.08971,179.74248 C83.23821,179.37473 83.33835,178.9835 83.53525,178.63922 C83.81976,178.14168 84.17824,177.68956 84.524765,177.23303 C84.90138,176.73688 85.34744,176.29404 85.70341,175.78285 C86.61433,174.47475 86.98427,173.04628 87.343765,171.47087 C87.58835,170.39902 87.72304,169.21164 87.55804,168.10402 C87.338005,166.62698 86.438736,165.40482 85.06364,164.8055 C84.51619,164.5669 83.93695,164.40894 83.36986,164.22177 C82.555016,163.95284 81.65809,163.75009 81.167175,162.9735 C80.58093,162.04613 80.40767,159.90544 80.325424,159.52959 C80.125534,158.61626 79.83212,156.22101 79.03436,155.1597 C78.00111,153.78513 73.78024,152.29181 73.21944,152.10632 C70.241264,151.12125 67.1735,150.43097 64.1568,149.5711 C63.988583,149.52318 63.503365,149.32103 63.66674,149.3835 C63.950638,149.49207 64.23448,149.60074 64.51834,149.70935 L64.51834,149.70935" /></defs><use xlink:href="#DRAW_7766" fill="none" stroke="#000000" stroke-width="0.04mm" /><text style="fill:#000000; font-size:0.5mm; letter-spacing:2;"><textPath xlink:href="#DRAW_7766">|||||||||||||||||||||||||||||||||||||||||||||||||||||||||||||||||||||||||||||||||||||||||||||||||||||||||||||||||||||||||||||||||||||||||||||||||||||||||||||||||||||||||||||||||||||||||||||||||||||||||||||||||||||||||||||||||||||||||||||||||||||||||||||||||||||||||||||||||</textPath></text><path fill="none" stroke="#248B00" stroke-width="0.06mm" d="M72.51006,154.47908 L72.53447,154.5212" /><path fill="none" stroke="#248B00" stroke-width="0.06mm" d="M73.5549,155.52397 C66.696205,158.0091 67.284195,157.57518 60.497284,160.99304 C59.7522,161.36827 59.096428,161.90436 58.355545,162.2878 C52.926834,165.09735 58.647644,161.59062 52.99109,165.11433 C52.90275,165.16937 52.826145,165.24237 52.753357,165.31677 C52.67859,165.39319 52.603935,165.47253 52.5502,165.56494 C50.787445,168.59702 51.194035,167.54486 50.568455,169.47957 L50.568455,169.47957" /><path fill="none" stroke="#248B00" stroke-width="0.06mm" d="M53.874157,171.14432 L53.957592,170.89128" /><path fill="none" stroke="#248B00" stroke-width="0.06mm" d="M51.017082,168.4819 C51.013565,168.79713 50.97605,169.05692 51.064774,169.35446 C51.145805,169.6262 51.26847,169.88484 51.342346,170.15863 C51.37503,170.27975 51.376534,170.40756 51.38273,170.53285 C51.40052,170.8929 51.39452,171.2539 51.414272,171.61383 C51.418556,171.69185 51.428986,171.77095 51.454716,171.84471 C51.51352,172.01332 51.59585,172.17278 51.66642,172.3368 L51.66642,172.3368" /><path fill="none" stroke="#248B00" stroke-width="0.06mm" d="M56.27079,168.6413 C59.247208,167.07521 52.63002,170.59128 59.595554,166.5536 C60.190098,166.20897 60.85325,165.99666 61.46109,165.67606 C62.760147,164.99086 64.01226,164.21881 65.31345,163.53766 C65.69108,163.34 66.09937,163.20743 66.49233,163.04231 C67.66536,162.43338 68.85511,161.85562 70.01142,161.2155 C70.454956,160.96997 71.48185,160.04024 72.179596,160.13078 C72.82565,160.21465 73.37052,160.59976 73.769615,161.10919 C74.12854,161.56735 74.43057,162.06741 74.769485,162.54056 C74.79252,162.57271 74.81921,162.60535 74.85435,162.6235 C75.03599,162.71733 75.22769,162.79028 75.41435,162.87367 L75.41435,162.87367" /><path fill="none" stroke="#248B00" stroke-width="0.06mm" d="M73.212524,155.33505 C73.380005,155.24826 73.502266,155.14336 73.68295,155.12808 C73.91365,155.1086 74.19824,155.24927 74.34886,155.41641 C74.83707,155.95813 75.325836,156.5007 75.778145,157.07274 C75.98975,157.34038 76.13905,157.65234 76.3367,157.93045 C76.575165,158.26604 76.862656,158.56644 77.08559,158.9125 C78.69937,161.41776 77.64362,160.67912 78.7968,161.39784 L78.7968,161.39784" /><defs><path id="DRAW_7778"  d="M78.7968,161.66348 C78.65662,161.62726 78.518295,161.58284 78.37625,161.55481 C78.27873,161.53557 78.106995,161.55658 78.01945,161.58292 C77.461136,161.75076 77.129616,162.21101 76.84262,162.69402 C76.61528,163.07663 76.48039,163.53886 76.57063,163.98463 C76.66315,164.44156 77.06489,164.84883 77.36826,165.18192 L77.36826,165.18192" /></defs><use xlink:href="#DRAW_7778" fill="none" stroke="#248B00" stroke-width="0.04mm" /><text style="fill:#248B00; font-size:0.5mm; letter-spacing:2;"><textPath xlink:href="#DRAW_7778">|||||||||||||||||||||</textPath></text><path fill="none" stroke="#248B00" stroke-width="0.06mm" d="M74.818146,162.49588 C75.46302,163.32195 76.10789,164.14803 76.75275,164.97412 C76.80623,165.02913 76.8654,165.07912 76.91318,165.13914 C77.05711,165.31998 77.18902,165.51006 77.32694,165.69551 L77.32694,165.69551" /><path fill="none" stroke="#248B00" stroke-width="0.06mm" d="M50.44741,168.72179 C50.28515,169.22409 50.089676,169.71686 49.960625,170.2287 C49.56588,171.79427 51.229004,174.64716 51.440224,175.34473 C55.12265,187.5062 47.397266,166.02217 54.790657,185.20941 C54.984627,185.7128 55.065655,186.25542 55.26466,186.75684 C55.45922,187.12938 55.65378,187.50189 55.848343,187.8744 C55.91945,187.88564 55.999844,187.94499 56.06166,187.90811 C56.409496,187.70053 56.705578,187.41649 57.027534,187.17068 L57.027534,187.17068" /><path fill="none" stroke="#248B00" stroke-width="0.06mm" d="M57.615044,168.60428 C57.48821,169.28242 57.318947,169.95401 57.234535,170.63875 C57.15963,171.24638 57.276955,171.94403 57.43628,172.52646 C59.177433,178.8914 58.129684,176.19577 59.720917,179.40991 C60.82114,181.63228 61.881493,183.87451 63.005215,186.08507 C63.04514,186.16362 63.115086,186.25978 63.20319,186.26021 C63.461838,186.26144 63.70784,186.1465 63.960167,186.08963 L63.960167,186.08963" /><defs><path id="DRAW_7789"  d="M57.015774,185.90974 C56.295418,186.39027 55.54457,186.82797 54.854706,187.35135 C54.528564,187.59877 54.23697,187.89468 53.97967,188.21309 C52.69397,189.8042 51.294228,191.32452 50.23166,193.07254 C48.48033,195.95367 47.41202,200.40865 46.905235,203.58571 C45.72597,210.97856 45.3484,213.74644 47.38143,220.44124 C47.580116,221.09552 47.887398,221.71622 48.22269,222.31216 C49.052208,223.7865 50.438667,225.17091 51.714928,226.18372 C53.464302,227.57198 55.300777,228.85011 57.15918,230.08862 C57.486652,230.30687 57.86188,230.47664 58.250404,230.53922 C58.52855,230.58405 58.806015,230.44551 59.08382,230.39865 L59.08382,230.39865" /></defs><use xlink:href="#DRAW_7789" fill="none" stroke="#248B00" stroke-width="0.04mm" /><text style="fill:#248B00; font-size:0.5mm; letter-spacing:2;"><textPath xlink:href="#DRAW_7789">||||||||||||||||||||||||||||||||||||||||||||||||||||||||||||||||||||||||||||||||||||||||||||||||||||||||||||||||||||||||||||||||||||||||||||||||||||||||||||||||||||||||||||||||||||||||||||||||||||||||||||||||||||||||</textPath></text><defs><path id="DRAW_7790"  d="M55.98175,229.22354 C57.3515,229.81248 58.652596,230.15927 60.142605,229.97592 C61.090656,229.85927 62.43526,229.41068 63.164696,228.88097 C64.93724,227.59375 66.613396,226.17387 68.245804,224.71303 C68.867455,224.15671 69.823364,222.84624 70.15761,222.002 C71.11338,219.58795 73.806046,213.86769 74.17779,210.02985 C75.42059,197.19897 75.88474,200.15936 73.33713,189.06718 C73.24275,188.65627 73.04565,188.27127 72.83354,187.90689 C71.83156,186.18552 69.75685,184.09332 67.81253,183.46135 C66.4678,183.02428 64.71465,183.04796 63.422295,183.65369 C63.184998,183.76491 62.94873,183.88937 62.747757,184.05757 C62.64798,184.14108 62.501434,184.2664 62.5428,184.38974 C62.71582,184.90564 63.072525,185.3404 63.337387,185.81573 L63.337387,185.81573" /></defs><use xlink:href="#DRAW_7790" fill="none" stroke="#248B00" stroke-width="0.04mm" /><text style="fill:#248B00; font-size:0.5mm; letter-spacing:2;"><textPath xlink:href="#DRAW_7790">||||||||||||||||||||||||||||||||||||||||||||||||||||||||||||||||||||||||||||||||||||||||||||||||||||||||||||||||||||||||||||||||||||||||||||||||||||||||||||||||||||||||||||||||||||||||||||||||||||||||||||||||||||||||||||||||||||||||||||||||||||||||||||||||||||||||||</textPath></text><defs><path id="DRAW_7794"  d="M120.16145,244.49973 L118.42557,243.3983" /></defs><use xlink:href="#DRAW_7794" fill="none" stroke="#248B00" stroke-width="0.04mm" /><text style="fill:#248B00; font-size:0.5mm; letter-spacing:2;"><textPath xlink:href="#DRAW_7794">|||||||||</textPath></text><defs><path id="DRAW_7812"  d="M55.993805,222.29968 C56.62216,212.8948 56.56621,219.11557 53.58855,202.94073 C53.49336,202.42366 53.322964,201.92049 53.25492,201.39912 C52.936752,198.96124 53.33411,199.23053 52.59237,197.1503 C51.85331,195.0776 50.04883,192.75005 48.309875,191.3974 C46.201084,189.75705 44.701477,188.67221 42.245407,189.9229 C39.151344,191.49846 38.17976,196.37576 37.236187,199.13945 C37.101032,199.53532 36.890472,199.91411 36.836094,200.32886 C36.533886,202.63383 36.354782,204.72383 36.952126,206.97174 C39.40248,216.19284 39.677986,213.13608 40.000988,220.6013 C40.03123,221.3003 39.803722,222.40213 39.535713,223.07817 C38.69882,225.18922 34.08407,228.0771 33.716503,228.41252 C31.747175,230.20975 30.769918,232.76526 30.072079,235.25905 C29.75104,236.40631 29.720945,237.69165 30.50782,238.6637 C31.426867,239.79906 33.408325,240.06006 34.731014,239.63078 C35.51406,239.32571 36.297108,239.02065 37.080154,238.71558 C37.714264,238.43875 38.32769,238.10867 38.982468,237.88509 C41.375458,237.06793 43.58467,237.78447 45.835247,236.37207 C46.429535,235.99908 47.019073,235.60306 47.524902,235.11682 C49.748886,232.97902 55.14798,228.33081 54.785408,224.23178 C54.75861,223.92879 54.577515,222.24568 54.19223,221.81401 C53.996223,221.59442 53.66992,221.54239 53.408768,221.40659 L53.408768,221.40659" /></defs><use xlink:href="#DRAW_7812" fill="none" stroke="#B137AF" stroke-width="0.04mm" /><text style="fill:#B137AF; font-size:0.5mm; letter-spacing:2;"><textPath xlink:href="#DRAW_7812">||||||||||||||||||||||||||||||||||||||||||||||||||||||||||||||||||||||||||||||||||||||||||||||||||||||||||||||||||||||||||||||||||||||||||||||||||||||||||||||||||||||||||||||||||||||||||||||||||||||||||||||||||||||||||||||||||||||||||||||||||||||||||||||||||||||||||||||||||||||||||||||||||||||||||||||||||||||||||||||||||||||||||||||||||||||||||||||||||||||||||||||||||||||||||||||||||||||||||||||||||||||||||||||||||||||||||||||||||||||||||||||||||||||||||||||||||||||||||||||||||||||||||||||||||||||||||||||</textPath></text><defs><path id="DRAW_7816"  d="M74.192276,193.66878 L74.2216,193.62218" /></defs><use xlink:href="#DRAW_7816" fill="none" stroke="#248B00" stroke-width="0.04mm" /><text style="fill:#248B00; font-size:0.5mm; letter-spacing:2;"><textPath xlink:href="#DRAW_7816">|</textPath></text><defs><path id="DRAW_7818"  d="M56.794617,205.06396 C57.686275,205.7335 57.287766,205.48032 59.291183,206.14334 C59.983627,206.37248 60.623215,206.50888 61.340508,206.48795 C62.280113,206.46057 63.2276,206.48746 64.15697,206.34648 C64.76552,206.25415 65.3391,206.00053 65.91874,205.79349 C67.28872,205.30411 70.04529,203.22928 70.27453,203.0664 C70.520515,202.8916 70.74152,202.67474 70.91924,202.43085 C71.85539,201.14624 72.74977,199.83049 73.60774,198.49239 C73.98453,197.90477 74.36847,196.80011 74.50071,196.15338 C74.673355,195.30911 74.66626,195.27715 74.62315,194.80963 L74.62315,194.80963" /></defs><use xlink:href="#DRAW_7818" fill="none" stroke="#248B00" stroke-width="0.04mm" /><text style="fill:#248B00; font-size:0.5mm; letter-spacing:2;"><textPath xlink:href="#DRAW_7818">|||||||||||||||||||||||||||||||||||||||||||||||||||||||||||||||||||||||||||||||||||||||||||||||||</textPath></text><defs><path id="DRAW_7819"  d="M48.119118,198.20558 C48.76057,199.4913 48.448574,199.0058 49.935585,200.65024 C50.07245,200.80159 50.237118,200.92632 50.40091,201.048 C50.47793,201.10524 53.87097,203.90167 55.49905,204.62648 C56.61215,205.04503 56.125916,204.8381 56.968643,205.22263 L56.968643,205.22263" /></defs><use xlink:href="#DRAW_7819" fill="none" stroke="#248B00" stroke-width="0.04mm" /><text style="fill:#248B00; font-size:0.5mm; letter-spacing:2;"><textPath xlink:href="#DRAW_7819">||||||||||||||||||||||||||||||||||||||||||||||</textPath></text><defs><path id="DRAW_7821"  d="M55.5375,186.29254 C55.636612,186.18242 55.72671,186.06345 55.83484,185.96217 C55.91983,185.88255 56.008873,185.80205 56.11418,185.75232 C56.842575,185.40833 57.562027,185.03221 58.32852,184.78448 C59.067856,184.54553 59.841084,184.4212 60.608517,184.29976 C61.015144,184.23541 61.431206,184.26205 61.84153,184.22853 C61.974586,184.21767 62.10533,184.18732 62.237232,184.16672 L62.237232,184.16672" /></defs><use xlink:href="#DRAW_7821" fill="none" stroke="#248B00" stroke-width="0mm" /><text style="fill:#248B00; font-size:0.6mm; letter-spacing:2;"><textPath xlink:href="#DRAW_7821">⊥⊥⊥⊥⊥⊥⊥⊥⊥⊥⊥⊥⊥⊥⊥⊥⊥⊥⊥⊥⊥⊥</textPath></text><use xlink:href="#moonmilk" width="3.6" height="3.6" x="-1.8" y="-1.8" transform="translate(80.31769 151.18088) rotate(1)"/>
<use xlink:href="#moonmilk" width="3.6" height="3.6" x="-1.8" y="-1.8" transform="translate(84.83604 158.76144) rotate(1)"/>
<use xlink:href="#moonmilk" width="3.6" height="3.6" x="-1.8" y="-1.8" transform="translate(29.147144 224.24352) rotate(239)"/>
<use xlink:href="#moonmilk" width="3.6" height="3.6" x="-1.8" y="-1.8" transform="translate(28.240503 235.12386) rotate(273)"/>
<use xlink:href="#sand" width="3.6" height="3.6" x="-1.8" y="-1.8" transform="translate(64.67845 188.4377) rotate(0)"/>
<use xlink:href="#sand" width="3.6" height="3.6" x="-1.8" y="-1.8" transform="translate(57.121925 194.82755) rotate(0)"/>
<use xlink:href="#sand" width="3.6" height="3.6" x="-1.8" y="-1.8" transform="translate(66.852036 193.58751) rotate(0)"/>
<use xlink:href="#sand" width="3.6" height="3.6" x="-1.8" y="-1.8" transform="translate(62.402737 200.06488) rotate(0)"/>
<use xlink:href="#sand" width="3.6" height="3.6" x="-1.8" y="-1.8" transform="translate(60.38961 190.5093) rotate(0)"/>
<use xlink:href="#sand" width="3.6" height="3.6" x="-1.8" y="-1.8" transform="translate(56.796257 220.50807) rotate(0)"/>
<use xlink:href="#rain" width="3.6" height="3.6" x="-1.8" y="-1.8" transform="translate(56.086193 191.95358) rotate(0)"/>
</g>
<g>
<line fill="none" stroke="#00aeef" stroke-width="0.05mm" stroke-dasharray="0.4,0.2" opacity="0.99" x1="27.00" y1="27.00" x2="52.07" y2="58.64" />
<line fill="none" stroke="#5674b9" stroke-width="0.05mm" stroke-dasharray="0.4,0.2" opacity="0.11" x1="27.00" y1="27.00" x2="33.63" y2="19.22" />
<line fill="none" stroke="#00aeef" stroke-width="0.05mm" stroke-dasharray="0.4,0.2" opacity="0.98" x1="27.00" y1="27.00" x2="22.62" y2="21.97" />
<line fill="none" stroke="#5674b9" stroke-width="0.05mm" stroke-dasharray="0.4,0.2" opacity="0.98" x1="27.00" y1="27.00" x2="20.83" y2="35.41" />
<line fill="none" stroke="#111111" stroke-width="0.05mm" x1="27.00" y1="27.00" x2="40.40" y2="64.36" />
<line fill="none" stroke="#00aeef" stroke-width="0.05mm" stroke-dasharray="0.4,0.2" opacity="0.79" x1="40.40" y1="64.36" x2="36.52" y2="77.18" />
<line fill="none" stroke="#00aeef" stroke-width="0.05mm" stroke-dasharray="0.4,0.2" opacity="0.10" x1="40.40" y1="64.36" x2="33.61" y2="75.90" />
<line fill="none" stroke="#111111" stroke-width="0.05mm" x1="40.40" y1="64.36" x2="50.77" y2="88.06" />
<line fill="none" stroke="#00aeef" stroke-width="0.05mm" stroke-dasharray="0.4,0.2" opacity="0.98" x1="50.77" y1="88.06" x2="61.93" y2="111.69" />
<line fill="none" stroke="#00aeef" stroke-width="0.05mm" stroke-dasharray="0.4,0.2" opacity="0.96" x1="50.77" y1="88.06" x2="67.94" y2="105.51" />
<line fill="none" stroke="#00aeef" stroke-width="0.05mm" stroke-dasharray="0.4,0.2" opacity="0.96" x1="50.77" y1="88.06" x2="70.72" y2="104.33" />
<line fill="none" stroke="#111111" stroke-width="0.05mm" x1="50.77" y1="88.06" x2="47.22" y2="122.34" />
<line fill="none" stroke="#00aeef" stroke-width="0.05mm" stroke-dasharray="0.4,0.2" opacity="0.31" x1="47.22" y1="122.34" x2="46.79" y2="133.88" />
<line fill="none" stroke="#111111" stroke-width="0.05mm" x1="47.22" y1="122.34" x2="56.43" y2="126.99" />
<line fill="none" stroke="#00aeef" stroke-width="0.05mm" stroke-dasharray="0.4,0.2" opacity="0.99" x1="56.43" y1="126.99" x2="62.92" y2="146.01" />
<line fill="none" stroke="#5674b9" stroke-width="0.05mm" stroke-dasharray="0.4,0.2" opacity="0.96" x1="56.43" y1="126.99" x2="46.36" y2="134.83" />
<line fill="none" stroke="#5674b9" stroke-width="0.05mm" stroke-dasharray="0.4,0.2" opacity="0.97" x1="56.43" y1="126.99" x2="52.87" y2="144.65" />
<line fill="none" stroke="#111111" stroke-width="0.05mm" x1="56.43" y1="126.99" x2="53.09" y2="147.07" />
<line fill="none" stroke="#111111" stroke-width="0.05mm" x1="53.09" y1="147.07" x2="64.35" y2="154.16" />
<line fill="none" stroke="#00aeef" stroke-width="0.05mm" stroke-dasharray="0.4,0.2" opacity="0.94" x1="64.35" y1="154.16" x2="80.99" y2="184.24" />
<line fill="none" stroke="#00aeef" stroke-width="0.05mm" stroke-dasharray="0.4,0.2" opacity="0.94" x1="64.35" y1="154.16" x2="65.36" y2="176.22" />
<line fill="none" stroke="#00aeef" stroke-width="0.05mm" stroke-dasharray="0.4,0.2" opacity="0.93" x1="64.35" y1="154.16" x2="82.71" y2="164.05" />
<line fill="none" stroke="#00aeef" stroke-width="0.05mm" stroke-dasharray="0.4,0.2" opacity="0.93" x1="64.35" y1="154.16" x2="76.54" y2="154.98" />
<line fill="none" stroke="#111111" stroke-width="0.05mm" x1="64.35" y1="154.16" x2="82.62" y2="179.99" />
<line fill="none" stroke="#111111" stroke-width="0.05mm" x1="82.62" y1="179.99" x2="80.83" y2="172.78" />
<line fill="none" stroke="#00aeef" stroke-width="0.05mm" stroke-dasharray="0.4,0.2" opacity="0.34" x1="80.83" y1="172.78" x2="77.84" y2="163.77" />
<line fill="none" stroke="#111111" stroke-width="0.05mm" x1="80.83" y1="172.78" x2="77.43" y2="163.38" />
<line fill="none" stroke="#5674b9" stroke-width="0.05mm" stroke-dasharray="0.4,0.2" opacity="0.68" x1="77.43" y1="163.38" x2="74.37" y2="157.77" />
<line fill="none" stroke="#111111" stroke-width="0.05mm" x1="77.43" y1="163.38" x2="73.66" y2="156.41" />
<line fill="none" stroke="#111111" stroke-width="0.05mm" x1="73.66" y1="156.41" x2="51.18" y2="168.93" />
<line fill="none" stroke="#00aeef" stroke-width="0.05mm" stroke-dasharray="0.4,0.2" opacity="0.99" x1="51.18" y1="168.93" x2="55.41" y2="171.25" />
<line fill="none" stroke="#5674b9" stroke-width="0.05mm" stroke-dasharray="0.4,0.2" opacity="0.97" x1="51.18" y1="168.93" x2="55.34" y2="171.36" />
<line fill="none" stroke="#5674b9" stroke-width="0.05mm" stroke-dasharray="0.4,0.2" opacity="0.99" x1="51.18" y1="168.93" x2="67.96" y2="203.98" />
<line fill="none" stroke="#111111" stroke-width="0.05mm" x1="51.18" y1="168.93" x2="70.24" y2="211.52" />
<line fill="none" stroke="#5674b9" stroke-width="0.05mm" stroke-dasharray="0.4,0.2" opacity="0.85" x1="70.24" y1="211.52" x2="69.24" y2="184.87" />
<line fill="none" stroke="#5674b9" stroke-width="0.05mm" stroke-dasharray="0.4,0.2" opacity="0.91" x1="70.24" y1="211.52" x2="50.25" y2="194.22" />
<line fill="none" stroke="#00aeef" stroke-width="0.05mm" stroke-dasharray="0.4,0.2" opacity="1.00" x1="70.24" y1="211.52" x2="46.97" y2="211.70" />
<line fill="none" stroke="#00aeef" stroke-width="0.05mm" stroke-dasharray="0.4,0.2" opacity="0.95" x1="70.24" y1="211.52" x2="56.98" y2="228.95" />
<line fill="none" stroke="#00aeef" stroke-width="0.05mm" stroke-dasharray="0.4,0.2" opacity="0.93" x1="70.24" y1="211.52" x2="68.26" y2="223.17" />
<line fill="none" stroke="#00aeef" stroke-width="0.05mm" stroke-dasharray="0.4,0.2" opacity="0.43" x1="70.24" y1="211.52" x2="63.40" y2="223.51" />
<line fill="none" stroke="#00aeef" stroke-width="0.05mm" stroke-dasharray="0.4,0.2" opacity="0.13" x1="70.24" y1="211.52" x2="49.99" y2="219.09" />
<line fill="none" stroke="#00aeef" stroke-width="0.05mm" stroke-dasharray="0.4,0.2" opacity="0.13" x1="70.24" y1="211.52" x2="50.21" y2="219.05" />
<line fill="none" stroke="#00aeef" stroke-width="0.05mm" stroke-dasharray="0.4,0.2" opacity="0.11" x1="70.24" y1="211.52" x2="48.96" y2="219.80" />
<line fill="none" stroke="#00aeef" stroke-width="0.05mm" stroke-dasharray="0.4,0.2" opacity="0.24" x1="70.24" y1="211.52" x2="58.96" y2="228.97" />
<line fill="none" stroke="#00aeef" stroke-width="0.05mm" stroke-dasharray="0.4,0.2" opacity="0.87" x1="70.24" y1="211.52" x2="71.33" y2="246.66" />
<line fill="none" stroke="#00aeef" stroke-width="0.05mm" stroke-dasharray="0.4,0.2" opacity="0.80" x1="70.24" y1="211.52" x2="58.17" y2="242.37" />
<line fill="none" stroke="#111111" stroke-width="0.05mm" x1="70.24" y1="211.52" x2="50.71" y2="219.01" />
<line fill="none" stroke="#00aeef" stroke-width="0.05mm" stroke-dasharray="0.4,0.2" opacity="0.86" x1="50.71" y1="219.01" x2="40.08" y2="236.40" />
<line fill="none" stroke="#00aeef" stroke-width="0.05mm" stroke-dasharray="0.4,0.2" opacity="0.89" x1="50.71" y1="219.01" x2="30.50" y2="236.59" />
<line fill="none" stroke="#00aeef" stroke-width="0.05mm" stroke-dasharray="0.4,0.2" opacity="0.92" x1="50.71" y1="219.01" x2="41.49" y2="223.59" />
<line fill="none" stroke="#00aeef" stroke-width="0.05mm" stroke-dasharray="0.4,0.2" opacity="0.95" x1="50.71" y1="219.01" x2="38.12" y2="209.33" />
<line fill="none" stroke="#00aeef" stroke-width="0.05mm" stroke-dasharray="0.4,0.2" opacity="0.97" x1="50.71" y1="219.01" x2="42.56" y2="191.65" />
<line fill="none" stroke="#00aeef" stroke-width="0.05mm" stroke-dasharray="0.4,0.2" opacity="0.94" x1="50.71" y1="219.01" x2="55.90" y2="218.04" />
<line fill="none" stroke="#111111" stroke-width="0.05mm" x1="50.71" y1="219.01" x2="42.72" y2="215.79" />
<line fill="none" stroke="#111111" stroke-width="0.05mm" x1="42.72" y1="215.79" x2="47.95" y2="202.86" />
<line fill="none" stroke="#00aeef" stroke-width="0.05mm" stroke-dasharray="0.4,0.2" opacity="0.35" x1="47.95" y1="202.86" x2="48.87" y2="175.99" />
<line fill="none" stroke="#111111" stroke-width="0.05mm" x1="47.95" y1="202.86" x2="48.35" y2="173.12" />
<line fill="none" stroke="#00aeef" stroke-width="0.05mm" stroke-dasharray="0.4,0.2" opacity="0.57" x1="48.35" y1="173.12" x2="71.40" y2="135.92" />
</g>
<g>
<circle cx="27.00" cy="27.00" r="0.1" fill="#111111" />
<circle cx="40.40" cy="64.36" r="0.1" fill="#111111" />
<circle cx="50.77" cy="88.06" r="0.1" fill="#111111" />
<circle cx="47.22" cy="122.34" r="0.1" fill="#111111" />
<circle cx="56.43" cy="126.99" r="0.1" fill="#111111" />
<circle cx="53.09" cy="147.07" r="0.1" fill="#111111" />
<circle cx="64.35" cy="154.16" r="0.1" fill="#111111" />
<circle cx="82.62" cy="179.99" r="0.1" fill="#111111" />
<circle cx="80.83" cy="172.78" r="0.1" fill="#111111" />
<circle cx="77.43" cy="163.38" r="0.1" fill="#111111" />
<circle cx="73.66" cy="156.41" r="0.1" fill="#111111" />
<circle cx="51.18" cy="168.93" r="0.1" fill="#111111" />
<circle cx="70.24" cy="211.52" r="0.1" fill="#111111" />
<circle cx="50.71" cy="219.01" r="0.1" fill="#111111" />
<circle cx="42.72" cy="215.79" r="0.1" fill="#111111" />
<circle cx="47.95" cy="202.86" r="0.1" fill="#111111" />
<circle cx="48.35" cy="173.12" r="0.1" fill="#111111" />
</g>
<g>
<text x="27.20" y="27.00" font-size=".2mm" fill="#000000">0</text>
<text x="40.60" y="64.36" font-size=".2mm" fill="#000000">1</text>
<text x="50.97" y="88.06" font-size=".2mm" fill="#000000">2</text>
<text x="47.42" y="122.34" font-size=".2mm" fill="#000000">3</text>
<text x="56.63" y="126.99" font-size=".2mm" fill="#000000">4</text>
<text x="53.29" y="147.07" font-size=".2mm" fill="#000000">5</text>
<text x="64.55" y="154.16" font-size=".2mm" fill="#000000">6</text>
<text x="82.82" y="179.99" font-size=".2mm" fill="#000000">7</text>
<text x="81.03" y="172.78" font-size=".2mm" fill="#000000">8</text>
<text x="77.63" y="163.38" font-size=".2mm" fill="#000000">9</text>
<text x="73.86" y="156.41" font-size=".2mm" fill="#000000">10</text>
<text x="51.38" y="168.93" font-size=".2mm" fill="#000000">11</text>
<text x="70.44" y="211.52" font-size=".2mm" fill="#000000">12</text>
<text x="50.91" y="219.01" font-size=".2mm" fill="#000000">13</text>
<text x="42.92" y="215.79" font-size=".2mm" fill="#000000">14</text>
<text x="48.15" y="202.86" font-size=".2mm" fill="#000000">15</text>
<text x="48.55" y="173.12" font-size=".2mm" fill="#000000">16</text>
</g>
<g>
</g>
</g>
</svg>