<?xml version="1.0" encoding="utf-8"?>
<!DOCTYPE svg PUBLIC "-//W3C//DTD SVG 1.1//EN" "http://www.w3.org/Graphics/SVG/1.1/DTD/svg11.dtd">
<svg version="1.1" id="Layer_1" xmlns="http://www.w3.org/2000/svg" xmlns:xlink="http://www.w3.org/1999/xlink" x="0px" y="0px" width="455mm" height="741mm" viewBox="0 0 455 741" enable-background="new 0 0 455 741" xml:space="preserve">
<symbol id="airflow" viewBox="-12 -12 24 24">
<path d="M-4.38,10.73l4.2-3.84V3.55L-4.07,7.13l-.31-.29L-.18,3V-6.89a3.37,3.37,0,0,0-1.68.53l1.68-4.15L0-11l.21.51h0v0l1.65,4.1A3.26,3.26,0,0,0,.24-6.89v14l-.08,0L-4.07,11Z"/>
<rect fill="none" x="-12" y="-12" width="24" height="24"/>
</symbol>
<symbol id="anastomosis" viewBox="-12 -12 24 24">
<path d="M2.23-4.78l.37.24L5.22-2.78l-.47.57L2.49-3.7l-4.61,8-.24.44-.37-.34L-5.22,2.3l.55-.52,2.1,1.82L2-4.39Z"/>
<rect fill="none" x="-12" y="-12" width="24" height="24"/>
</symbol>
<symbol id="bivouac" viewBox="-12 -12 24 24">
<path d="M.25-7.66l.24.58L.54-7l3.88.48-3.31.91L6,6H8.35v.48l-16.7.07V6.05h2.64L0-7.08Zm0,1.32L-5.13,6H-4l2.07-5L.2-4l2.09,5L4.37,6H5.44Z"/>
<rect fill="none" x="-12" y="-12" width="24" height="24"/>
</symbol>
<symbol id="bones" viewBox="-12 -12 24 24">
<path d="M2.44,4.27l-.16,0H2.13a.22.22,0,0,1-.11,0l-.1-.06a.39.39,0,0,1-.09-.11l-.08-.13a1.51,1.51,0,0,1-.06-.15l-.07-.17s0-.11-.08-.19-.06-.16-.08-.21a4.75,4.75,0,0,0-.38-.71c-.18-.29-.43-.64-.74-1A11.15,11.15,0,0,0-.7.32,6.73,6.73,0,0,0-2-.64a4.12,4.12,0,0,0-1.44-.52A1.64,1.64,0,0,1-5-2.19.72.72,0,0,1-5-2.44a1,1,0,0,1,0-.29A.52.52,0,0,1-4.87-3a.54.54,0,0,1,.35-.15L-4-3.22l.46,0a.54.54,0,0,0,.27-.06A.52.52,0,0,0-3-3.56a.74.74,0,0,0,.13-.31.54.54,0,0,1,.15-.26.54.54,0,0,1,.3-.15.83.83,0,0,1,.47,0,1.11,1.11,0,0,1,.35.4A7.46,7.46,0,0,1-1-2.76q.18.42.33.72a3.22,3.22,0,0,0,.39.57L.1-1a4.77,4.77,0,0,0,.58.43c.28.18.51.33.69.43l1,.56a1.84,1.84,0,0,0,.39.23A5.29,5.29,0,0,1,3.22.9l.43.26a3.7,3.7,0,0,1,.46.3l.36.29a2.28,2.28,0,0,1,.31.32A1,1,0,0,1,5,2.4c.2.48,0,.78-.47.91h0a8.48,8.48,0,0,0-1.12.09,1,1,0,0,0-.42.44A1,1,0,0,1,2.44,4.27Z"/>
<rect fill="none" x="-12" y="-12" width="24" height="24"/>
</symbol>
<symbol id="calcite" viewBox="-12 -12 24 24">
<path d="M2.36-2.22l.05.46.34,3.91L2,2.22,1.65-1.26-2.52-.06l-.23-.7L1.89-2.08Z"/>
<rect fill="none" x="-12" y="-12" width="24" height="24"/>
</symbol>
<symbol id="cauliflower" viewBox="-12 -12 24 24">
<path d="M5.58,3.22v-3A2.12,2.12,0,0,0,6.92-.43a1.78,1.78,0,0,0,.55-1.32,1.92,1.92,0,0,0-.65-1.42,2.19,2.19,0,0,0-1.53-.59,2.21,2.21,0,0,0-1.54.59,1.78,1.78,0,0,0-.64,1.42A1.86,1.86,0,0,0,3.65-.43,2.12,2.12,0,0,0,5,.23v3H.26v-3A2.17,2.17,0,0,0,1.61-.43a1.81,1.81,0,0,0,.54-1.32,1.91,1.91,0,0,0-.64-1.42A2.21,2.21,0,0,0,0-3.76a2.21,2.21,0,0,0-1.54.59,1.82,1.82,0,0,0-.64,1.42A1.83,1.83,0,0,0-1.66-.43,2.12,2.12,0,0,0-.32.23v3H-5v-3A2.12,2.12,0,0,0-3.71-.43a1.78,1.78,0,0,0,.55-1.32,1.92,1.92,0,0,0-.65-1.42,2.19,2.19,0,0,0-1.53-.59,2.21,2.21,0,0,0-1.54.59,1.83,1.83,0,0,0-.65,1.42A1.87,1.87,0,0,0-7-.43,2.12,2.12,0,0,0-5.64.23v3H-8v.54H8V3.22Z"/>
<rect fill="none" x="-12" y="-12" width="24" height="24"/>
</symbol>
<symbol id="clay" viewBox="-12 -12 24 24">
<path d="M1.85-1.33a3,3,0,0,1,1.67.48,3.23,3.23,0,0,1,1,1l.29.51-1,.43a3.81,3.81,0,0,0-.23-.4A3.74,3.74,0,0,0,2.93,0,1.77,1.77,0,0,0,1.85-.32a2.57,2.57,0,0,0-1.1.15A.86.86,0,0,0,.51.14,2.23,2.23,0,0,1,0,.88a2.55,2.55,0,0,1-1.45.43,3.16,3.16,0,0,1-2.75-1,4.28,4.28,0,0,1-.37-.57,3.91,3.91,0,0,1-.21-.47l0-.16,1-.22a1.87,1.87,0,0,0,.45.79A2.12,2.12,0,0,0-1.51.33,1.82,1.82,0,0,0-.69.14l.21-.36A1.53,1.53,0,0,1,.17-1,3.76,3.76,0,0,1,1.85-1.33Z"/>
<rect fill="none" x="-12" y="-12" width="24" height="24"/>
</symbol>
<symbol id="crystals" viewBox="-12 -12 24 24">
<path d="M-2.94-5.38,0-.72,2.94-5.38,3.62-5,.68-.36H6.56V.36H.68L3.62,5l-.68.36L0,.72-2.94,5.38-3.62,5-.68.36H-6.56V-.36H-.68L-3.62-5Z"/>
<rect fill="none" x="-12" y="-12" width="24" height="24"/>
</symbol>
<symbol id="curtain" viewBox="-12 -12 24 24">
<path d="M3.57-6.69l.52.53L.39-3V-.33L.1-.26a3.79,3.79,0,0,0-1,.41c-.58.3-.87.65-.87,1v.07A1.61,1.61,0,0,0-.84,2.48a3.69,3.69,0,0,0,.45.24L0,2.86l.13.05L.39,3V6.12H-.39V3.51a7.65,7.65,0,0,1-.9-.46A2.19,2.19,0,0,1-2.54,1.28V1.23A2,2,0,0,1-1.31-.48,5.32,5.32,0,0,1-.39-.86V-3l-3.7-3.14.52-.53L0-3.67Z"/>
<rect fill="none" x="-12" y="-12" width="24" height="24"/>
</symbol>
<symbol id="disk" viewBox="-12 -12 24 24">
<path d="M-.09-4.19a2.43,2.43,0,0,1,1.7.64A2,2,0,0,1,2.35-2,2.09,2.09,0,0,1,1.81-.55,2.44,2.44,0,0,1,.35.23l2.18,3.6-.68.33L0,1.14-1.48,4.19l-.71-.29L-.41.25A2.53,2.53,0,0,1-1.9-.47a2,2,0,0,1-.63-1.41,2,2,0,0,1,.67-1.61,2.46,2.46,0,0,1,1.72-.7ZM1.05-3.06.56-3.49l-.69,0A1.72,1.72,0,0,0-1.29-3a1.51,1.51,0,0,0-.45,1.08,1.36,1.36,0,0,0,.51,1A1.68,1.68,0,0,0-.07-.44v0l0,0A1.7,1.7,0,0,0,1.11-.92,1.36,1.36,0,0,0,1.56-2,1.47,1.47,0,0,0,1.05-3.06Z"/>
<rect fill="none" x="-12" y="-12" width="24" height="24"/>
</symbol>
<symbol id="entrance" viewBox="-12 -12 24 24">
<path d="M4.46,9H-4.46L0-9Z"/>
<rect fill="none" x="-12" y="-12" width="24" height="24"/>
</symbol>
<symbol id="flowstone" viewBox="-12 -12 24 24">
<rect x="-6" y="-0.21" width="12" height="0.42"/>
<rect fill="none" x="-12" y="-12" width="24" height="24"/>
</symbol>
<symbol id="flutes" viewBox="-12 -12 24 24">
<path d="M-7-1H7v.72H3.87A4.7,4.7,0,0,1,2.16,1.5,4.2,4.2,0,0,1,0,2.13,3.94,3.94,0,0,1-2.19,1.5,4.18,4.18,0,0,1-3.76-.27H-7Zm4.17.72A3.15,3.15,0,0,0-1.65,1,3.21,3.21,0,0,0,0,1.41,3.49,3.49,0,0,0,1.6,1,3.68,3.68,0,0,0,3-.27Z"/>
<rect fill="none" x="-12" y="-12" width="24" height="24"/>
</symbol>
<symbol id="gradient" viewBox="-12 -12 24 24">
<path d="M2.58-3.83,0-10-2.58-3.83A4.74,4.74,0,0,1-.17-4.5V10H.25V-4.5A6.65,6.65,0,0,1,2.58-3.83Z"/>
<rect fill="none" x="-12" y="-12" width="24" height="24"/>
</symbol>
<symbol id="guano" viewBox="-12 -12 24 24">
<path d="M-3.24-3a2.15,2.15,0,0,1,1.57.55A3.93,3.93,0,0,1-.59.24a4.32,4.32,0,0,1,2.75-2.3,2.68,2.68,0,0,1,2.23.36A2.36,2.36,0,0,1,5.5.19l-.79,0a1.72,1.72,0,0,0-.79-1.37,1.94,1.94,0,0,0-1.55-.24A3.53,3.53,0,0,0,.48,0,6.63,6.63,0,0,0-.69,3l-.79-.09a10.72,10.72,0,0,0,0-3.16A3.21,3.21,0,0,0-2.22-2,1.44,1.44,0,0,0-3.37-2.3,3.45,3.45,0,0,0-5-1.54l-.5-.55a4.29,4.29,0,0,1,2-.91A.9.9,0,0,1-3.24-3Z"/>
<rect fill="none" x="-12" y="-12" width="24" height="24"/>
</symbol>
<symbol id="helictites" viewBox="-12 -12 24 24">
<path d="M-4.59-7.92h.79v7.7l3.41,0V-7.92H.39V-.17L4.2-.12h.39v8H3.8V.6L.39.55V7.92H-.39V.55L-4.2.5l-.39,0v-8.4Z"/>
<rect fill="none" x="-12" y="-12" width="24" height="24"/>
</symbol>
<symbol id="human" viewBox="-12 -12 24 24">
<path d="M-3.59-3.29A5.13,5.13,0,0,1,0-4.66,5.13,5.13,0,0,1,3.59-3.29,4.3,4.3,0,0,1,5.09,0a4.3,4.3,0,0,1-1.5,3.29A5.13,5.13,0,0,1,0,4.66,5.13,5.13,0,0,1-3.59,3.29,4.3,4.3,0,0,1-5.09,0,4.3,4.3,0,0,1-3.59-3.29Zm.28.77A3.68,3.68,0,0,0-4.3,0a3.62,3.62,0,0,0,1,2.57L-.5.05ZM0-3.94A4.42,4.42,0,0,0-2.75-3L.16-.36H4.28A3.62,3.62,0,0,0,2.91-2.9,4.38,4.38,0,0,0,0-3.94ZM.16.46-2.7,3.07A4.42,4.42,0,0,0,0,3.94a4.37,4.37,0,0,0,2.87-1A3.78,3.78,0,0,0,4.28.46Z"/>
<rect fill="none" x="-12" y="-12" width="24" height="24"/>
</symbol>
<symbol id="karren" viewBox="-12 -12 24 24">
<path d="M1-5.84h0a1.37,1.37,0,0,1,1.06.68A3.33,3.33,0,0,1,2.5-3.79,25.79,25.79,0,0,1,2.36,0a18.61,18.61,0,0,0-.08,3.72,2.68,2.68,0,0,0,.41,1.2,1.13,1.13,0,0,0,.79.5A.92.92,0,0,0,4,4.94a4.43,4.43,0,0,0,.47-1.22c.16-.64.36-1.86.59-3.66a26.71,26.71,0,0,1,.64-3.69,4.62,4.62,0,0,1,.57-1.29,1.34,1.34,0,0,1,1-.59h0A1.28,1.28,0,0,1,8.37-5a2.17,2.17,0,0,1,.39,1.15A19.91,19.91,0,0,1,8.54-.53a21.51,21.51,0,0,0-.2,3.64A2.64,2.64,0,0,0,9.45,5.36,1.91,1.91,0,0,0,10.88,5a3.84,3.84,0,0,0,.7-1l.42.2-.1.18-.12.21-.11.18L11.52,5a.94.94,0,0,1-.14.16c-.06.07-.13.12-.19.18a2.5,2.5,0,0,1-1.85.41H9.29l0,0A3.06,3.06,0,0,1,7.87,3.13a22.11,22.11,0,0,1,.2-3.7,18.17,18.17,0,0,0,.22-3.28A1.85,1.85,0,0,0,8-4.79a.77.77,0,0,0-.67-.3.93.93,0,0,0-.64.42,4.51,4.51,0,0,0-.51,1.15A26.26,26.26,0,0,0,5.54.1c-.24,1.83-.45,3.07-.61,3.72a5.38,5.38,0,0,1-.51,1.34,1.33,1.33,0,0,1-.89.68H3.47A1.58,1.58,0,0,1,2.3,5.16a3.29,3.29,0,0,1-.49-1.4A20.27,20.27,0,0,1,1.89,0,23.45,23.45,0,0,0,2-3.75a2.94,2.94,0,0,0-.32-1.19A.93.93,0,0,0,1-5.42,1.1,1.1,0,0,0,.19-5,3.69,3.69,0,0,0-.43-3.76,20.78,20.78,0,0,0-1.07.07c-.2,2-.37,3.32-.49,3.86A4.48,4.48,0,0,1-2,5.26,1.06,1.06,0,0,1-3,5.81h0a1.9,1.9,0,0,1-1.29-.67,2.7,2.7,0,0,1-.58-1.31,14.92,14.92,0,0,1,0-3.6q0-.12.06-.54c0-.28,0-.47,0-.57s0-.28,0-.52,0-.42,0-.55,0-.28,0-.47,0-.36,0-.51,0-.29,0-.43A3.09,3.09,0,0,0-5-4.62a1.19,1.19,0,0,0-.67-.6,1.5,1.5,0,0,0-1.2.9A7,7,0,0,0-7.41-2.1c0,.39-.1,1-.14,1.76s-.11,1.47-.18,2.08A9.61,9.61,0,0,1-8,3.32h0l0,0A2.81,2.81,0,0,1-9.2,4.62a1.82,1.82,0,0,1-1.35.15A1.94,1.94,0,0,1-11.61,4,2.39,2.39,0,0,1-12,2.56l.47,0a1.92,1.92,0,0,0,.31,1.16,1.47,1.47,0,0,0,.81.62,1.3,1.3,0,0,0,1-.11A2.32,2.32,0,0,0-8.5,3.18a7.53,7.53,0,0,0,.29-1.5Q-8.1.8-8-.36c0-.78.1-1.37.16-1.78A7.23,7.23,0,0,1-7.28-4.5,1.93,1.93,0,0,1-5.65-5.66h.05l0,0a1.59,1.59,0,0,1,1,.84,3.47,3.47,0,0,1,.34,1.41,4.91,4.91,0,0,1,0,.57v.54c0,.15,0,.37,0,.66s0,.47,0,.58,0,.33-.06.68,0,.56-.06.63a14.78,14.78,0,0,0,0,3.49,2.58,2.58,0,0,0,.5,1.13,1.57,1.57,0,0,0,1,.5A.61.61,0,0,0-2.44,5,3.89,3.89,0,0,0-2,3.85C-1.9,3.31-1.74,2-1.53,0A20.65,20.65,0,0,1-.86-3.89,3.89,3.89,0,0,1-.18-5.26,1.58,1.58,0,0,1,1-5.84Z"/>
<rect fill="none" x="-12" y="-12" width="24" height="24"/>
</symbol>
<symbol id="moonmilk" viewBox="-12 -12 24 24">
<path d="M-4.78-3.06a3.39,3.39,0,0,1,1.5.34,2.48,2.48,0,0,1,1.1,1,3.74,3.74,0,0,1,1.62-.8,3.52,3.52,0,0,1,1.71,0,2.9,2.9,0,0,1,1.39.77A2.49,2.49,0,0,1,3.25-.37,4,4,0,0,1,5-.76a3.58,3.58,0,0,1,1.6.36A2.84,2.84,0,0,1,7.88.92a2.32,2.32,0,0,1,0,1.88.34.34,0,0,1-.37.26A.36.36,0,0,1,7.25,3a.32.32,0,0,1-.12-.25.21.21,0,0,1,0-.12,2,2,0,0,0,0-1.43,2,2,0,0,0-1-.9A2.81,2.81,0,0,0,4.68,0,2.78,2.78,0,0,0,3.12.56L2.46.25A1.7,1.7,0,0,0,2.15-1.1,2.15,2.15,0,0,0,1-1.81a2.85,2.85,0,0,0-1.58.06A3,3,0,0,0-2-.83l-.71-.12A1.74,1.74,0,0,0-3.55-2a2.36,2.36,0,0,0-1.39-.27,3.08,3.08,0,0,0-1.45.53A2.33,2.33,0,0,0-7.32-.56a.35.35,0,0,1-.37.24A.39.39,0,0,1-8-.42a.33.33,0,0,1-.1-.26v-.1A3,3,0,0,1-6.89-2.35,4,4,0,0,1-5-3Z"/>
<rect fill="none" x="-12" y="-12" width="24" height="24"/>
</symbol>
<symbol id="narrow" viewBox="-12 -12 24 24">
<path d="M-1.5,5V-5h0.64V5H-1.5z"/>
<path d="M0.86,5V-5H1.5V5H0.86z"/>
<rect fill="none" x="-12" y="-12" width="24" height="24"/>
</symbol>
<symbol id="paleoflow" viewBox="-12 -12 24 24">
<path d="M.38-12V.17A1.9,1.9,0,0,0,1,0,1.57,1.57,0,0,0,1.7-.72a1.86,1.86,0,0,0,.23-1c0-.09,0-.14.08-.16a.92.92,0,0,1,.24,0,.52.52,0,0,0,.25,0h.08A2.48,2.48,0,0,1,2,0,2.5,2.5,0,0,1,.38.77V7.21H2.09L0,12-1.8,7.23c.07,0,.59,0,1.53,0V.77A3,3,0,0,1-1.35.43a2.16,2.16,0,0,1-1-1,2.38,2.38,0,0,1-.24-1.33l.67,0a2,2,0,0,0,.15,1,1.73,1.73,0,0,0,.59.67A2.14,2.14,0,0,0-.27.16V-12Z"/>
<rect fill="none" x="-12" y="-12" width="24" height="24"/>
</symbol>
<symbol id="rain" viewBox="-12 -12 24 24">
<path d="M-4.14-6.34h0.71v4.69h-0.71V-6.34z"/>
<path d="M-0.35-6.34h0.71v4.69h-0.71V-6.34z"/>
<path d="M3.43-6.34h0.71v4.69H3.43V-6.34z"/>
<path d="M-4.14,1.65h0.71v4.69h-0.71V1.65z"/>
<path d="M-0.35,1.65h0.71v4.69h-0.71V1.65z"/>
<path d="M3.43,1.65h0.71v4.69H3.43V1.65z"/>
<rect fill="none" x="-12" y="-12" width="24" height="24"/>
</symbol>
<symbol id="rats" viewBox="-12 -12 24 24">
<path d="M8.78-2.32,7-2.27c-.51-.17-.65-.56-1.46-.45l-.25.45C3.59-2.75,2.59-3.66.56-3.62l-1.35.3A4.89,4.89,0,0,0-4.24,1.57c-.68.6-2.58.86-3.39.94a6.84,6.84,0,0,0-1.62.39,4.91,4.91,0,0,0-1,.52A1.75,1.75,0,0,0-11,4.61a1.16,1.16,0,0,0,.59,1.48,1.3,1.3,0,0,1,.14.12c.16-.52-.35-.92-.2-1.42a3.35,3.35,0,0,1,.27-.45,3.18,3.18,0,0,1,1.79-1c.63-.12,1.27-.22,1.91-.3.48-.07,1,0,1.4-.12A6.94,6.94,0,0,1-4,2.82,30.64,30.64,0,0,0,.41,2.69l2.16.15c.1-.09,0,0,.1-.15a.87.87,0,0,0-.9-.55c.86-1,2.27-.37,3.1-.05.5.19,1,0,1.25.4.11-.1.1-.07.15-.25.3,0,.31.07.6.15-.06-.49-.34-.64-1-.6a.78.78,0,0,1,0-.55C6.3.56,7.29.73,8.13.43a13.78,13.78,0,0,0,2.15-.9l.6-.85v-.2A16.9,16.9,0,0,0,8.78-2.32Z"/>
<rect fill="none" x="-12" y="-12" width="24" height="24"/>
</symbol>
<symbol id="sand" viewBox="-12 -12 24 24">
<path d="M-1.58,0.83c0.23,0.2,0.35,0.44,0.36,0.73c0.01,0.29-0.08,0.54-0.28,0.75c-0.2,0.21-0.46,0.32-0.78,0.33c-0.32,0.01-0.6-0.08-0.83-0.26C-3.36,2.19-3.49,1.95-3.5,1.67C-3.51,1.38-3.41,1.12-3.2,0.9c0.21-0.22,0.48-0.34,0.8-0.35C-2.08,0.54-1.81,0.64-1.58,0.83z"/>
<path d="M0.08-2.36c0.23,0.2,0.35,0.44,0.36,0.73c0.01,0.29-0.08,0.54-0.28,0.75c-0.2,0.21-0.46,0.32-0.78,0.33c-0.32,0.01-0.59-0.07-0.83-0.26s-0.37-0.42-0.38-0.71c-0.01-0.29,0.09-0.54,0.3-0.76c0.21-0.22,0.48-0.33,0.8-0.35C-0.42-2.65-0.14-2.56,0.08-2.36z"/>
<path d="M3.12,0.55c0.23,0.2,0.35,0.43,0.38,0.71c0.02,0.28-0.07,0.53-0.28,0.75C3,2.23,2.73,2.35,2.42,2.36C2.1,2.37,1.82,2.28,1.58,2.08C1.34,1.88,1.22,1.64,1.2,1.35c-0.01-0.29,0.09-0.54,0.3-0.75C1.72,0.4,1.99,0.29,2.3,0.28S2.89,0.36,3.12,0.55z"/>
<rect fill="none" x="-12" y="-12" width="24" height="24"/>
</symbol>
<symbol  id="scallops" viewBox="-12 -12 24 24">
<path d="M.05-3.74l.21,0A2.35,2.35,0,0,1,1.74-3a2,2,0,0,1,.59,1.55v0l0,0A9.59,9.59,0,0,1-.08,3.27l-.39.47-.27-.55A14.26,14.26,0,0,1-2.33-1.89v-.05l0-.05A2,2,0,0,1-1.44-3.3,2.42,2.42,0,0,1,.05-3.74ZM-.11-3A1.44,1.44,0,0,0-1.55-1.89,13.06,13.06,0,0,0-.29,2.33,8.6,8.6,0,0,0,1.55-1.54a1.41,1.41,0,0,0-.38-1A1.62,1.62,0,0,0,.18-3Z"/>
<rect fill="none" x="-12" y="-12" width="24" height="24"/>
</symbol>
<symbol  id="sink" viewBox="-12 -12 24 24">
<path d="M.72,9.41H.9c1.94,0,3.26-.54,3.94-1.51a3.61,3.61,0,0,0,.33-.69,2,2,0,0,0,.11-.54V6.46l.69,0a2.8,2.8,0,0,1-.58,1.78C4.58,9.39,3.1,10,.93,10H-.93q-3.25,0-4.46-1.8a2.74,2.74,0,0,1-.43-.83A2.37,2.37,0,0,1-6,6.67V6.43l.68,0A2.27,2.27,0,0,0-4.84,7.9c.68,1,2,1.47,3.93,1.48l.5,0ZM-1.46-10a.68.68,0,0,0,.16.41A2.77,2.77,0,0,0-.51-9l0,0a3.63,3.63,0,0,1,1,.7,1.15,1.15,0,0,1,.34.88c0,.58-.53,1.14-1.49,1.68-.68.42-1,.79-1,1.11s.3.61.84,1h0Q.61-2.86.46-1.78a3.51,3.51,0,0,1-1.55,2,.61.61,0,0,0-.26.41,1.67,1.67,0,0,0,.1.51,5.3,5.3,0,0,1,.32,1L.56,1.9.46,8.06-3.4,2.54l1.73-.28A6.16,6.16,0,0,0-2,1.39,1.7,1.7,0,0,1-2.09.58a1.21,1.21,0,0,1,.53-.82h0v0C-.75-.86-.33-1.38-.28-1.85s-.23-.87-.91-1.27h0C-2-3.6-2.37-4.1-2.4-4.61S-2-5.74-1.09-6.29C-.34-6.72.06-7.1.09-7.44a.67.67,0,0,0-.18-.43,3.17,3.17,0,0,0-.79-.58,2.93,2.93,0,0,1-1-.67A1.16,1.16,0,0,1-2.17-10Z"/>
<rect fill="none" x="-12" y="-12" width="24" height="24"/>
</symbol>
<symbol  id="spring" viewBox="-12 -12 24 24">
<path d="M-1.34-9.86,2.52-4.34.78-4.06a8,8,0,0,0,.29.87,1.4,1.4,0,0,1,.13.79,1.3,1.3,0,0,1-.52.84l0,0v0C-.13-.95-.55-.42-.61,0S-.37.91.31,1.3l0,0c.75.46,1.14,1,1.18,1.46S1.12,3.92.21,4.46C-.54,4.9-.94,5.29-1,5.64a.74.74,0,0,0,.18.43A3.2,3.2,0,0,0,0,6.62a3,3,0,0,1,1,.7,1.14,1.14,0,0,1,.31.86A1.74,1.74,0,0,1,.71,9.26H.92c1.92,0,3.22-.52,3.9-1.51a2.05,2.05,0,0,0,.35-.67,2.59,2.59,0,0,0,.1-.55l0-.19.65,0a2.84,2.84,0,0,1-.55,1.8C4.58,9.26,3.08,9.85.92,9.86H-.92c-2.17,0-3.66-.6-4.49-1.77a3.65,3.65,0,0,1-.4-.85A2.43,2.43,0,0,1-6,6.53V6.29l.66,0a2.08,2.08,0,0,0,.47,1.41c.68,1,2,1.5,3.91,1.51H-.4c.62-.43.94-.8,1-1.1a.76.76,0,0,0-.16-.43,3.25,3.25,0,0,0-.79-.51v0a3.8,3.8,0,0,1-1-.7,1.15,1.15,0,0,1-.34-.91q.06-.84,1.5-1.68c.68-.4,1-.77,1-1.1S.49,2.21,0,1.87c0,0,0,0,0,0C-1,1.32-1.44.69-1.34,0a3.58,3.58,0,0,1,1.55-2,.54.54,0,0,0,.23-.38A1.28,1.28,0,0,0,.37-3a4.57,4.57,0,0,1-.32-1l-1.49.24Z"/>
<rect fill="none" x="-12" y="-12" width="24" height="24"/>
</symbol>
<symbol  id="stalactite" viewBox="-12 -12 24 24">
<path d="M3.57-6.69l.52.53L.39-3V6.12H-.39V-3l-3.7-3.14.52-.53L0-3.67Z"/>
<rect fill="none" x="-12" y="-12" width="24" height="24"/>
</symbol>
<symbol  id="stalagmite" viewBox="-12 -12 24 24">
<path d="M.38-6.42V2.75L4.11,5.89l-.56.53L0,3.4l-3.57,3-.53-.53,3.7-3.14V-6.42Z"/>
<rect fill="none" x="-12" y="-12" width="24" height="24"/>
</symbol>
<symbol  id="stalagnate" viewBox="-12 -12 24 24">
<path d="M3.55-8.46l.56.53L.38-4.78v9L4.11,7.36l-.56.53L0,4.86l-3.57,3-.53-.53,3.7-3.14v-9l-3.7-3.15.53-.53L0-5.43Z"/>
<rect fill="none" x="-12" y="-12" width="24" height="24"/>
</symbol>
<symbol  id="straws" viewBox="-12 -12 24 24">
<path d="M-10.89-2.76H10.89V-2H9.63V.46H8.84V-2H8.29v5.6H7.5V-2H5.56V.7H4.77V-2H2.07V2.38H1.29V-2H-.1v3H-.89V-2H-3.2V4.11H-4V-2H-6.22L-6.16.75l-.79,0L-7-2H-8.32V2.33H-9.1V-2h-1.79Z"/>
<rect fill="none" x="-12" y="-12" width="24" height="24"/>
</symbol>
<symbol  id="water" viewBox="-12 -12 24 24">
<path d="M-1.72-9.86,2.11-4.32.38-4.06a6.49,6.49,0,0,0,.29.89,1.5,1.5,0,0,1,.13.79,1.2,1.2,0,0,1-.5.82h0l0,0C-.54-.94-1-.42-1,.05s.24.89.92,1.27h0c.77.48,1.17,1,1.19,1.49S.71,3.94-.2,4.49c-.75.43-1.13.81-1.15,1.15a.51.51,0,0,0,.18.43,2.66,2.66,0,0,0,.76.58,2.93,2.93,0,0,1,1,.67,1.16,1.16,0,0,1,.29.89C.84,8.75.42,9.3-.41,9.86l-.44-.55c.66-.45,1-.83,1-1.15A.47.47,0,0,0,0,7.75a2.84,2.84,0,0,0-.78-.53h0a3.87,3.87,0,0,1-1-.69,1.24,1.24,0,0,1-.34-.91c0-.58.54-1.14,1.52-1.68.66-.42,1-.79,1-1.11s-.3-.61-.84-1h0Q-1.9,1.06-1.74,0a3.44,3.44,0,0,1,1.54-2,.67.67,0,0,0,.27-.41A1.11,1.11,0,0,0,0-3a4.33,4.33,0,0,1-.31-1l-1.5.24Z"/>
<rect fill="none" x="-12" y="-12" width="24" height="24"/>
</symbol><symbol  id="tree" viewBox="-12 -12 24 24">
<path d="M7.4-5.04A4.271,4.271,0,0,0,7.7-6.627a4.3,4.3,0,0,0-4.3-4.3A4.279,4.279,0,0,0,.636-9.914,4.293,4.293,0,0,0-3.045-12a4.3,4.3,0,0,0-4.3,4.3,4.27,4.27,0,0,0,.421,1.845,4.3,4.3,0,0,0-3.645,4.244,4.3,4.3,0,0,0,4.3,4.3A4.282,4.282,0,0,0-3.946,2L-1.175,5.23h0L-1.612,12H.982L.757,6.376,4.119,2.827v0a4.272,4.272,0,0,0,2.15.58,4.3,4.3,0,0,0,4.3-4.3A4.3,4.3,0,0,0,7.4-5.04ZM-3.346,1.538h0A4.346,4.346,0,0,0-2.7.788a4.266,4.266,0,0,0,1.765.753l-.135,2.087ZM.69,4.7.563,1.544A4.258,4.258,0,0,0,2.321.805,4.3,4.3,0,0,0,3.378,2.279Z"/>
<rect fill="none" x="-12" y="-12" width="24" height="24"/>
</symbol><g>
<desc></desc>
<g>
<line fill="none" stroke="#dddddd" stroke-width="0.1mm" x1="0.00" y1="661.00" x2="455.00" y2="661.00" />
<text x="452.20" y="660.80" font-size=".2mm" fill="#000000">0m</text>
<line fill="none" stroke="#dddddd" stroke-width="0.1mm" x1="0.00" y1="611.00" x2="455.00" y2="611.00" />
<text x="452.20" y="610.80" font-size=".2mm" fill="#000000">5m</text>
<line fill="none" stroke="#dddddd" stroke-width="0.1mm" x1="0.00" y1="561.00" x2="455.00" y2="561.00" />
<text x="452.20" y="560.80" font-size=".2mm" fill="#000000">10m</text>
<line fill="none" stroke="#dddddd" stroke-width="0.1mm" x1="0.00" y1="511.00" x2="455.00" y2="511.00" />
<text x="452.20" y="510.80" font-size=".2mm" fill="#000000">15m</text>
<line fill="none" stroke="#dddddd" stroke-width="0.1mm" x1="0.00" y1="461.00" x2="455.00" y2="461.00" />
<text x="452.20" y="460.80" font-size=".2mm" fill="#000000">20m</text>
<line fill="none" stroke="#dddddd" stroke-width="0.1mm" x1="0.00" y1="411.00" x2="455.00" y2="411.00" />
<text x="452.20" y="410.80" font-size=".2mm" fill="#000000">25m</text>
<line fill="none" stroke="#dddddd" stroke-width="0.1mm" x1="0.00" y1="361.00" x2="455.00" y2="361.00" />
<text x="452.20" y="360.80" font-size=".2mm" fill="#000000">30m</text>
<line fill="none" stroke="#dddddd" stroke-width="0.1mm" x1="0.00" y1="311.00" x2="455.00" y2="311.00" />
<text x="452.20" y="310.80" font-size=".2mm" fill="#000000">35m</text>
<line fill="none" stroke="#dddddd" stroke-width="0.1mm" x1="0.00" y1="261.00" x2="455.00" y2="261.00" />
<text x="452.20" y="260.80" font-size=".2mm" fill="#000000">40m</text>
<line fill="none" stroke="#dddddd" stroke-width="0.1mm" x1="0.00" y1="211.00" x2="455.00" y2="211.00" />
<text x="452.20" y="210.80" font-size=".2mm" fill="#000000">45m</text>
<line fill="none" stroke="#dddddd" stroke-width="0.1mm" x1="0.00" y1="161.00" x2="455.00" y2="161.00" />
<text x="452.20" y="160.80" font-size=".2mm" fill="#000000">50m</text>
<line fill="none" stroke="#dddddd" stroke-width="0.1mm" x1="0.00" y1="111.00" x2="455.00" y2="111.00" />
<text x="452.20" y="110.80" font-size=".2mm" fill="#000000">55m</text>
<line fill="none" stroke="#dddddd" stroke-width="0.1mm" x1="0.00" y1="61.00" x2="455.00" y2="61.00" />
<text x="452.20" y="60.80" font-size=".2mm" fill="#000000">60m</text>
<line fill="none" stroke="#dddddd" stroke-width="0.1mm" x1="0.00" y1="11.00" x2="455.00" y2="11.00" />
<text x="452.20" y="10.80" font-size=".2mm" fill="#000000">65m</text>
<line fill="none" stroke="#dddddd" stroke-width="0.1mm" x1="0.00" y1="711.00" x2="455.00" y2="711.00" />
<text x="452.20" y="710.80" font-size=".2mm" fill="#000000">-5m</text>
</g>
<g>
<path fill="none" stroke="#000000" stroke-width="0.06mm" stroke-dasharray="0.3mm,0.1mm" d="M42.926147,720.4191 C43.366184,720.1858 43.78858,719.9156 44.246258,719.7191 C44.57996,719.5758 44.927032,719.4296 45.28932,719.4045 C48.295647,719.19604 51.31167,718.87695 54.32178,719.02057 C56.441757,719.1217 58.48644,719.85803 60.590744,720.1345 C62.046974,720.3258 63.51903,720.3991 64.9876,720.4218 C67.30868,720.45776 67.14536,719.7423 69.92293,719.5215 C72.558975,719.31195 75.21041,719.40643 77.85415,719.3489 L77.85415,719.3489" /><path fill="none" stroke="#000000" stroke-width="0.06mm" stroke-dasharray="0.3mm,0.1mm" d="M19.695301,664.85803 C17.778145,692.18604 19.440018,662.3258 19.254986,688.9438 C19.242325,690.7647 18.777615,692.56 18.714813,694.3799 C18.513714,700.2074 19.630047,707.88165 20.416916,713.0863 C20.616768,714.40814 21.009485,715.6955 21.388487,716.97754 C21.797302,718.3605 22.788603,719.18317 24.008791,719.85046 C25.351309,720.58466 27.345531,720.5676 28.707228,720.5337 C30.34656,720.4928 31.979189,720.3063 33.61284,720.16394 C34.103577,720.1212 34.586426,719.9866 35.078957,719.9785 C36.312992,719.95844 37.54722,720.02423 38.780167,720.0797 C40.90274,720.17523 43.02861,720.6238 45.144604,720.43146 C45.66759,720.3839 45.934715,719.7395 46.329773,719.3935 L46.329773,719.3935" /><path fill="none" stroke="#000000" stroke-width="0.06mm" stroke-dasharray="0.3mm,0.1mm" d="M59.06735,662.97034 C58.762108,662.7603 58.49673,662.47516 58.15163,662.34033 C58.072414,662.3094 58.056526,662.5069 58.085712,662.5868 C64.76376,680.86475 71.59772,699.0856 78.25739,717.3703 C78.50845,718.0596 78.846375,719.5606 78.416885,720.3255 C78.1375,720.82306 77.45315,721.08344 76.98938,720.69745 C76.88941,720.61426 76.72318,720.44135 76.68839,720.3076 C76.57437,719.8693 76.504425,719.4208 76.412445,718.9773 L76.412445,718.9773" /><path fill="none" stroke="#000000" stroke-width="0.06mm" d="M116.98217,556.41595 C114.131134,552.7679 111.28171,549.1186 108.429054,545.4718 C107.41501,544.1754 107.181526,543.77246 105.5889,542.6616 C104.33438,541.78656 103.02057,540.9937 101.67479,540.26685 C101.064606,539.93726 100.39904,539.7177 99.73979,539.50244 C98.518105,539.1035 97.61336,539.045 96.48348,539.64636 C95.63422,540.0984 95.10873,540.8467 94.596375,541.6428 C91.842896,545.9214 88.97307,550.12994 86.39643,554.5173 C80.6814,564.24854 75.68976,574.4037 69.72868,583.9862 C66.37328,589.38007 61.830013,593.9732 58.490307,599.37683 C44.386852,622.196 46.0542,623.22864 34.748936,645.79565 C32.422337,650.4399 29.117256,655.72156 25.721642,659.80817 C24.742083,660.9871 23.61011,662.03253 22.496933,663.0862 C21.87816,663.6719 20.779905,663.93915 20.31844,664.6715 C20.223885,664.8216 20.156492,664.9871 20.07552,665.14496 L20.07552,665.14496" /><path fill="none" stroke="#000000" stroke-width="0.06mm" d="M116.62545,555.9254 C116.88867,555.0093 117.31081,554.1245 117.41511,553.17706 C117.66951,550.8661 117.54502,548.52795 117.695206,546.2079 C117.718124,545.85376 117.81862,545.50604 117.93341,545.1702 C118.290504,544.12555 118.753685,543.1191 119.10842,542.0736 C119.33947,541.3927 119.22797,539.1187 119.23004,539.088 C119.254875,538.72125 119.33871,538.3579 119.44888,538.0072 C119.5884,537.5632 119.79059,537.1411 119.97589,536.7142 C120.21297,536.1679 120.58057,535.66797 120.71576,535.088 C123.31526,523.93604 120.998505,528.8895 123.16517,524.53296 L123.16517,524.53296" /><path fill="none" stroke="#000000" stroke-width="0.06mm" d="M115.97148,581.3872 C116.087875,580.8577 116.16925,580.31934 116.32067,579.79877 C116.753296,578.3114 118.08054,577.1018 119.3856,576.3719 C119.78978,576.1458 120.204285,575.9152 120.654175,575.80536 C127.709656,574.0823 134.78801,572.452 141.87839,570.87866 C142.47166,570.747 144.38438,570.8341 144.86966,570.8165 C144.93443,570.81415 144.9912,570.7698 145.0471,570.737 C145.42108,570.5177 145.78783,570.2863 146.15819,570.0609 L146.15819,570.0609" /><path fill="none" stroke="#000000" stroke-width="0.06mm" d="M144.33005,571.5176 C147.41255,570.49133 144.46973,571.3968 147.80347,570.6041 C148.06169,570.5427 148.32542,570.42566 148.53337,570.2558 C149.15714,569.74634 149.32452,568.77734 149.4129,568.03485 C149.68843,565.7203 149.90257,563.39874 150.16827,561.083 C151.25826,551.58307 152.08493,542.048 153.47992,532.588 C153.63399,531.5432 155.90848,524.35614 156.00404,520.9809 C156.01352,520.6457 155.9105,520.3168 155.86372,519.9846 L155.86372,519.9846" /><path fill="none" stroke="#000000" stroke-width="0.06mm" d="M115.72494,579.7373 C115.03502,584.8226 114.54774,592.6521 112.51234,598.1172 C112.027145,599.4199 111.26,600.60004 110.59534,601.82104 C109.08041,604.60394 107.39058,607.2934 105.97418,610.12775 C101.99274,619.0671 100.6326,621.56055 102.571205,617.9374 L102.571205,617.9374" /><path fill="none" stroke="#000000" stroke-width="0.06mm" d="M101.35244,619.944 C100.01779,626.5593 100.615746,625.0962 98.52202,630.6664 C97.55066,633.25055 96.64542,635.8647 95.515274,638.3835 C94.14365,641.4405 92.69722,642.2355 90.77997,645.17523 C89.54042,647.3081 88.30088,649.44104 87.06134,651.5739 C86.550316,652.48724 86.09032,653.431 85.528275,654.31384 C84.32025,656.2113 82.24269,657.4244 80.46705,658.70416 C80.05989,658.99756 79.71069,659.41266 79.21546,659.5794 C77.78433,660.0614 77.27585,660.15076 75.884735,660.0183 C75.05946,659.9397 74.23789,659.7446 73.40949,659.7765 C58.452755,660.35205 59.168846,665.55396 58.769993,659.571 L58.769993,659.571" /><path fill="none" stroke="#000000" stroke-width="0.06mm" d="M151.65472,536.91394 C152.26201,536.8186 152.87589,536.75854 153.4766,536.62805 C153.75711,536.56714 154.0335,536.473 154.28873,536.34174 C155.8338,535.54675 157.36072,534.7157 158.86926,533.85345 C159.04274,533.7543 159.20749,533.62537 159.32442,533.4634 C160.00677,532.5179 160.64813,531.54205 161.25568,530.5469 C161.85367,529.5673 162.20395,527.61084 162.44794,526.83295 C163.16211,524.5559 163.92886,523.20636 164.09863,520.9223 C164.32794,517.8375 163.94292,519.2329 163.89597,516.8428 C163.8845,516.25977 164.00285,515.6778 163.97731,515.0952 C163.93893,514.2197 163.75568,513.3552 163.70471,512.48035 C163.68951,512.2194 163.72404,511.95526 163.77954,511.69986 C164.13078,510.0835 164.39722,508.30588 165.19975,506.80405 C165.71408,505.84155 166.10098,505.54163 167.13802,505.39435 C168.66988,505.17682 170.19815,504.92993 171.7355,504.7552 C173.70564,504.53125 175.68329,504.37866 177.65794,504.1986 C178.16127,504.1527 178.66846,504.1451 179.16933,504.0774 C179.58566,504.02112 180.073,503.88727 180.45259,503.67853 C180.80054,503.48718 181.04947,503.1209 181.42476,502.9923 C181.9241,502.82117 182.60638,503.38568 182.87419,502.74374 C183.2269,501.89825 182.97801,499.6129 183.15602,498.62842 C183.69592,495.6422 184.77003,492.74246 185.02554,489.71863 C185.68478,481.9168 185.62321,474.0708 185.89229,466.24585 C186.0766,460.8859 186.38002,455.52722 186.38573,450.16412 C186.38774,448.27432 184.2456,441.38092 184.18976,441.1533 C184.08,440.70593 184.06245,440.23923 184.04669,439.7789 C184.0334,439.39124 184.03001,438.31387 184.52374,439.10327 C184.86566,439.6499 185.17307,440.21747 185.49773,440.77457 L185.49773,440.77457" /><path fill="none" stroke="#000000" stroke-width="0.06mm" d="M185.81265,449.72168 C185.91476,447.55392 186.01689,445.38614 186.11899,443.21838 C186.19402,442.89484 186.233,442.56073 186.34406,442.24774 C186.66458,441.34442 187.16425,440.50372 187.41089,439.57755 C193.41122,417.04492 189.25171,433.31683 190.7014,424.4217 C190.73912,424.1903 190.80905,423.9596 190.92067,423.75342 C192.0483,421.67065 193.32477,419.66925 194.41324,417.56573 C195.12856,416.18335 195.58894,414.67682 196.32663,413.3062 C196.82193,412.386 197.52904,411.59598 198.09808,410.7194 C198.55745,410.01178 198.30893,409.755 198.5948,410.18384 L198.5948,410.18384" /><path fill="none" stroke="#000000" stroke-width="0.06mm" d="M199.14473,409.73795 C200.5541,409.72476 201.96349,409.7116 203.37286,409.69846 C203.9983,409.73987 204.62247,409.8336 205.24919,409.82263 C207.28493,409.78714 209.31682,409.48956 211.35167,409.55927 C213.07317,409.6183 214.76476,410.03278 216.47838,410.20737 C217.8341,410.3455 219.203,410.3369 220.5563,410.49707 C221.4879,410.6073 221.98453,410.99237 222.84908,410.91028 C225.97195,410.61377 222.97008,410.7378 225.80124,410.41473 C227.5376,410.2166 227.11751,409.93073 227.77084,410.60004 L227.77084,410.60004" /><path fill="none" stroke="#000000" stroke-width="0.06mm" d="M227.77084,395.3646 C227.91672,395.03488 227.94878,394.62555 228.20844,394.37543 C228.33118,394.25717 228.27267,394.71243 228.27092,394.88287 C228.22423,399.38754 228.18967,403.89288 228.06311,408.39606 C227.95857,412.1151 227.7321,409.50864 227.87486,410.95676 L227.87486,410.95676" /><path fill="none" stroke="#000000" stroke-width="0.06mm" d="M122.49632,525.7205 C122.37238,525.29364 122.22309,524.8733 122.12449,524.4398 C122.06258,524.1677 122.084785,523.7262 122.154785,523.45624 C122.56336,521.88043 123.09438,520.33527 123.43702,518.74384 C124.22446,515.0864 124.58031,511.33478 125.54291,507.71954 C127.63529,499.86115 130.46008,490.26465 134.55563,482.7688 C135.93826,480.23828 137.7444,477.96106 139.23145,475.49042 C140.25206,473.79477 141.0325,471.96063 142.07391,470.27765 C145.21274,465.2052 146.48862,464.37445 150.66052,459.50366 C154.31076,455.24194 157.67378,450.72418 161.5444,446.66156 C163.96788,444.1179 166.73984,441.92242 169.49176,439.73828 C170.54279,438.9041 171.80171,438.37018 172.92194,437.63153 C173.1464,437.48352 173.3519,437.29865 173.51538,437.0852 C179.30457,429.5258 175.08255,434.91434 180.57878,425.77545 C181.22874,424.69476 182.17726,423.807 182.78513,422.70206 C183.99278,420.5068 185.05817,418.22986 186.00572,415.91043 C187.02092,413.42548 187.11787,411.63962 187.69211,409.11218 C187.79466,408.66083 187.98909,408.23303 188.08417,407.78006 C188.15291,407.45255 188.20691,407.1145 188.18143,406.78085 C187.89003,402.96362 187.40698,399.16232 187.1348,395.34372 C187.12808,395.24942 187.29611,395.44232 187.37677,395.4916 C187.53412,395.8407 187.6915,396.18976 187.84886,396.53882 L187.84886,396.53882" /><path fill="none" stroke="#248B00" stroke-width="0.06mm" d="M273.87585,260.33487 C269.2016,262.11343 274.0863,260.04712 267.51483,264.05264 C266.6551,264.57666 265.65817,264.84644 264.7907,265.35754 C263.1973,266.29633 261.73306,267.44257 260.14694,268.39362 C259.78302,268.61182 259.37482,268.76422 258.96002,268.85364 C256.69318,269.34216 254.42941,269.91116 252.12025,270.1235 C250.49393,270.27304 248.85478,269.83743 247.22433,269.93274 C245.97078,270.00598 242.74954,270.35754 241.04128,271.16193 C236.22638,273.42908 231.55908,279.71375 228.60355,283.15588 C227.8416,284.04324 227.4702,285.498 227.64258,286.6461 C228.46593,292.1294 227.10312,290.8619 229.22502,292.43832 L229.22502,292.43832" /><path fill="none" stroke="#000000" stroke-width="0.06mm" d="M226.63997,293.1904 C226.4964,294.15686 226.42996,295.1379 226.20927,296.0897 C223.25914,308.81274 220.11584,321.0896 216.33047,333.6016 C215.63829,335.88956 214.47327,338.02438 213.87013,340.33743 C206.7305,367.719 222.05186,325.58194 202.85928,375.21536 C202.45236,376.2677 200.96268,378.18512 200.07494,378.9262 C198.20422,380.48782 196.15863,381.83054 194.27574,383.37744 C193.91766,383.67166 193.58656,384.02304 193.37149,384.43356 C186.88686,396.81143 184.07346,393.48477 187.58224,397.30338 L187.58224,397.30338" /><path fill="none" stroke="#000000" stroke-width="0.06mm" d="M251.36241,290.65216 C251.37624,291.38257 251.4522,292.11447 251.40382,292.8434 C251.36832,293.37842 251.24684,293.90634 251.11201,294.42535 C249.79745,299.48602 248.0643,304.44733 247.05682,309.57794 C245.10768,319.5041 244.0463,329.58698 242.25261,339.54233 C241.45782,343.9536 240.14743,348.25943 239.29465,352.65988 C238.94771,354.4502 239.0563,356.31406 238.65755,358.09357 C234.30444,377.5188 239.25293,351.16565 233.95206,370.67587 C233.12276,373.72818 230.66843,392.5991 230.48055,393.8103 C230.42392,394.17548 230.2564,394.5174 230.0944,394.84955 C229.60928,395.8443 228.99379,396.7742 228.54236,397.7847 C228.28427,398.3624 228.13539,398.984 227.974,399.59583 C227.93573,399.74103 227.86821,399.91702 227.94604,400.04547 C228.33301,400.6841 228.86136,401.22565 229.31902,401.8157 L229.31902,401.8157" /><path fill="none" stroke="#248B00" stroke-width="0.06mm" d="M251.65105,290.91467 L252.05371,291.29388" /><path fill="none" stroke="#248B00" stroke-width="0.06mm" d="M252.23856,291.33765 C252.5522,288.71252 252.84988,288.59006 254.77661,286.80185 L254.77661,286.80185" /><path fill="none" stroke="#248B00" stroke-width="0.06mm" d="M253.81308,288.6585 L253.60475,288.82617" /><path fill="none" stroke="#248B00" stroke-width="0.06mm" d="M254.35359,286.2613 C255.36234,285.33325 256.36703,284.40082 257.37988,283.47726 C258.25323,282.68088 259.19434,282.22632 260.4007,282.19952 C260.71674,282.1925 261.03357,282.22678 261.34613,282.27423 C262.48315,282.4468 263.5974,282.80817 264.7463,282.85913 C266.33826,282.92975 267.95392,282.92197 269.5217,282.6367 C273.96933,281.8274 278.27887,280.34048 282.73608,279.5858 C284.77026,279.2413 286.8687,279.56247 288.92108,279.3519 C290.282,279.21225 291.59265,278.7527 292.9438,278.5384 C293.9855,278.3731 295.77197,278.61813 296.82422,277.83374 C300.01343,275.45624 296.42395,268.0227 300.82626,266.20523 C301.3492,265.98935 301.88135,265.7792 302.43576,265.66644 C306.9892,264.74054 311.54443,263.80652 316.1358,263.09213 C317.5282,262.87555 320.00323,263.3547 321.36963,263.3492 C323.06418,263.34238 323.5065,263.12958 324.97244,262.7125 L324.97244,262.7125" /><path fill="none" stroke="#248B00" stroke-width="0.06mm" d="M270.7099,260.7149 C281.41638,257.42807 270.29553,260.54163 286.95673,257.54724 C290.01602,256.99744 293.03198,256.22626 296.05212,255.49112 C296.68634,255.33673 297.42886,255.0476 297.72888,254.41382 C297.84543,254.1676 297.914,253.83392 297.90793,253.57202 C297.87097,251.97034 297.52332,250.36017 297.71503,248.76953 C298.7013,240.58774 300.53284,232.51932 301.43314,224.32758 C301.80685,220.92712 301.5575,217.48608 301.5291,214.0653 C301.52603,213.69629 301.53748,213.28564 301.33878,212.97467 C301.09882,212.59909 300.64423,212.41599 300.29694,212.13663 L300.29694,212.13663" /><path fill="none" stroke="#248B00" stroke-width="0.06mm" d="M348.40173,153.74808 C346.2743,155.86453 343.9452,157.79596 342.0194,160.09735 C334.01608,169.66165 336.7111,166.86493 332.65854,174.6951 C332.319,175.35117 331.51443,175.81598 331.42444,176.59262 C331.35605,177.18256 331.6266,177.65042 331.83698,178.18246 C332.4009,179.60858 333.10126,180.98996 333.51105,182.46774 C334.7068,186.77975 335.7306,191.14066 336.64505,195.5209 C336.8604,196.55255 336.87985,197.61899 336.89417,198.67285 C336.90363,199.37225 336.07413,201.83865 337.69247,201.11957 C337.97708,200.99304 338.26056,200.85889 338.52216,200.68982 C338.79282,200.51483 339.06525,200.33044 339.2821,200.09204 C349.0386,189.36398 340.7455,196.64465 358.763,182.32889 C360.66946,180.81412 362.78427,179.57892 364.72836,178.1128 C365.83362,177.2793 366.67618,176.13544 366.79367,174.73563 C367.02704,171.9555 363.84753,166.88483 363.39804,166.06476 C362.15952,163.805 359.42743,160.46405 357.38922,158.83923 C350.3617,153.23712 351.8944,157.05649 350.6578,153.41907 L350.6578,153.41907" /><path fill="none" stroke="#248B00" stroke-width="0.06mm" d="M350.5168,153.65405 C348.70444,152.91913 349.77368,153.14322 347.25024,153.39557 L347.25024,153.39557" /><path fill="none" stroke="#248B00" stroke-width="0.06mm" d="M300.29636,215.41681 C297.62653,193.87634 298.32013,201.33603 299.24612,158.56866 C299.4186,150.60236 299.90433,149.42758 301.49487,144.4649 L301.49487,144.4649" /><path fill="none" stroke="#248B00" stroke-width="0.06mm" d="M322.9508,263.149 C334.1445,258.55096 324.27448,262.46298 354.06696,256.22253 C354.63986,256.10254 355.10413,256.00705 355.55215,255.60834 C357.1797,254.16003 357.0006,250.44403 357.25983,249.00967 C357.4355,248.03778 357.788,247.10336 357.96228,246.13116 C359.19653,239.2453 357.0717,244.92456 360.72348,234.31543 C364.57123,223.13687 366.11044,223.06891 368.58075,211.13556 C369.42786,205.40717 370.27496,199.67874 371.12204,193.95038 C371.23663,191.65405 371.06946,189.32623 371.46582,187.06146 C378.69888,145.73407 372.6294,194.96823 376.0656,155.50659 C376.20258,153.93408 377.38794,150.09042 376.92648,148.02924 C372.25684,127.17114 373.8259,139.51013 372.88922,131.63287 L372.88922,131.63287" /><path fill="none" stroke="#B137AF" stroke-width="0.06mm" d="M301.0876,144.17987 C308.5238,121.577515 301.60785,145.03027 307.3432,112.85303 C307.81708,110.1944 308.95392,107.69763 309.75925,105.119934 L309.75925,105.119934" /><path fill="none" stroke="#B137AF" stroke-width="0.06mm" d="M373.2574,134.63818 C373.5143,127.408936 373.4292,120.159485 374.02805,112.95056 C375.6856,92.99713 376.75113,103.78693 376.17148,98.18683 L376.17148,98.18683" /></g>
<g>
<line fill="none" stroke="#5674b9" stroke-width="0.04mm" stroke-dasharray="0.4,0.2" x1="51.00" y1="661.00" x2="19.36" y2="660.61" />
<line fill="none" stroke="#5674b9" stroke-width="0.04mm" stroke-dasharray="0.4,0.2" x1="51.00" y1="661.00" x2="58.78" y2="720.43" />
<line fill="none" stroke="#00aeef" stroke-width="0.04mm" stroke-dasharray="0.4,0.2" x1="51.00" y1="661.00" x2="56.03" y2="660.78" />
<line fill="none" stroke="#00aeef" stroke-width="0.04mm" stroke-dasharray="0.4,0.2" x1="51.00" y1="661.00" x2="42.59" y2="661.26" />
<line fill="none" stroke="#111111" stroke-width="0.04mm" x1="51.00" y1="661.00" x2="90.69" y2="624.60" />
<line fill="none" stroke="#5674b9" stroke-width="0.04mm" stroke-dasharray="0.4,0.2" x1="90.69" y1="624.60" x2="101.44" y2="620.01" />
<line fill="none" stroke="#5674b9" stroke-width="0.04mm" stroke-dasharray="0.4,0.2" x1="90.69" y1="624.60" x2="99.26" y2="539.79" />
<line fill="none" stroke="#111111" stroke-width="0.04mm" x1="90.69" y1="624.60" x2="116.56" y2="564.83" />
<line fill="none" stroke="#00aeef" stroke-width="0.04mm" stroke-dasharray="0.4,0.2" x1="116.56" y1="564.83" x2="142.68" y2="563.92" />
<line fill="none" stroke="#00aeef" stroke-width="0.04mm" stroke-dasharray="0.4,0.2" x1="116.56" y1="564.83" x2="139.43" y2="563.46" />
<line fill="none" stroke="#00aeef" stroke-width="0.04mm" stroke-dasharray="0.4,0.2" x1="116.56" y1="564.83" x2="139.46" y2="563.09" />
<line fill="none" stroke="#111111" stroke-width="0.04mm" x1="116.56" y1="564.83" x2="151.02" y2="536.68" />
<line fill="none" stroke="#00aeef" stroke-width="0.04mm" stroke-dasharray="0.4,0.2" x1="151.02" y1="536.68" x2="162.55" y2="514.84" />
<line fill="none" stroke="#111111" stroke-width="0.04mm" x1="151.02" y1="536.68" x2="161.34" y2="497.46" />
<line fill="none" stroke="#5674b9" stroke-width="0.04mm" stroke-dasharray="0.4,0.2" x1="161.34" y1="497.46" x2="175.71" y2="497.23" />
<line fill="none" stroke="#5674b9" stroke-width="0.04mm" stroke-dasharray="0.4,0.2" x1="161.34" y1="497.46" x2="155.88" y2="498.34" />
<line fill="none" stroke="#5674b9" stroke-width="0.04mm" stroke-dasharray="0.4,0.2" x1="161.34" y1="497.46" x2="166.13" y2="498.36" />
<line fill="none" stroke="#111111" stroke-width="0.04mm" x1="161.34" y1="497.46" x2="181.69" y2="442.13" />
<line fill="none" stroke="#111111" stroke-width="0.04mm" x1="181.69" y1="442.13" x2="195.00" y2="403.14" />
<line fill="none" stroke="#5674b9" stroke-width="0.04mm" stroke-dasharray="0.4,0.2" x1="195.00" y1="403.14" x2="225.11" y2="400.03" />
<line fill="none" stroke="#5674b9" stroke-width="0.04mm" stroke-dasharray="0.4,0.2" x1="195.00" y1="403.14" x2="207.61" y2="401.02" />
<line fill="none" stroke="#00aeef" stroke-width="0.04mm" stroke-dasharray="0.4,0.2" x1="195.00" y1="403.14" x2="215.80" y2="400.93" />
<line fill="none" stroke="#00aeef" stroke-width="0.04mm" stroke-dasharray="0.4,0.2" x1="195.00" y1="403.14" x2="205.74" y2="401.75" />
<line fill="none" stroke="#111111" stroke-width="0.04mm" x1="195.00" y1="403.14" x2="226.63" y2="399.89" />
<line fill="none" stroke="#111111" stroke-width="0.04mm" x1="226.63" y1="399.89" x2="234.06" y2="292.35" />
<line fill="none" stroke="#00aeef" stroke-width="0.04mm" stroke-dasharray="0.4,0.2" x1="234.06" y1="292.35" x2="243.52" y2="276.52" />
<line fill="none" stroke="#111111" stroke-width="0.04mm" x1="234.06" y1="292.35" x2="244.05" y2="276.14" />
<line fill="none" stroke="#00aeef" stroke-width="0.04mm" stroke-dasharray="0.4,0.2" x1="244.05" y1="276.14" x2="250.37" y2="279.68" />
<line fill="none" stroke="#111111" stroke-width="0.04mm" x1="244.05" y1="276.14" x2="251.97" y2="277.46" />
<line fill="none" stroke="#111111" stroke-width="0.04mm" x1="251.97" y1="277.46" x2="277.70" y2="268.16" />
<line fill="none" stroke="#00aeef" stroke-width="0.04mm" stroke-dasharray="0.4,0.2" x1="277.70" y1="268.16" x2="275.13" y2="268.11" />
<line fill="none" stroke="#00aeef" stroke-width="0.04mm" stroke-dasharray="0.4,0.2" x1="277.70" y1="268.16" x2="275.24" y2="268.35" />
<line fill="none" stroke="#00aeef" stroke-width="0.04mm" stroke-dasharray="0.4,0.2" x1="277.70" y1="268.16" x2="280.09" y2="268.53" />
<line fill="none" stroke="#111111" stroke-width="0.04mm" x1="277.70" y1="268.16" x2="324.36" y2="252.14" />
<line fill="none" stroke="#00aeef" stroke-width="0.04mm" stroke-dasharray="0.4,0.2" x1="324.36" y1="252.14" x2="299.63" y2="258.41" />
<line fill="none" stroke="#5674b9" stroke-width="0.04mm" stroke-dasharray="0.4,0.2" x1="324.36" y1="252.14" x2="300.41" y2="255.79" />
<line fill="none" stroke="#5674b9" stroke-width="0.04mm" stroke-dasharray="0.4,0.2" x1="324.36" y1="252.14" x2="315.03" y2="252.01" />
<line fill="none" stroke="#5674b9" stroke-width="0.04mm" stroke-dasharray="0.4,0.2" x1="324.36" y1="252.14" x2="334.85" y2="250.37" />
<line fill="none" stroke="#5674b9" stroke-width="0.04mm" stroke-dasharray="0.4,0.2" x1="324.36" y1="252.14" x2="334.19" y2="250.82" />
<line fill="none" stroke="#5674b9" stroke-width="0.04mm" stroke-dasharray="0.4,0.2" x1="324.36" y1="252.14" x2="332.51" y2="234.86" />
<line fill="none" stroke="#5674b9" stroke-width="0.04mm" stroke-dasharray="0.4,0.2" x1="324.36" y1="252.14" x2="323.00" y2="145.21" />
<line fill="none" stroke="#5674b9" stroke-width="0.04mm" stroke-dasharray="0.4,0.2" x1="324.36" y1="252.14" x2="323.06" y2="145.30" />
<line fill="none" stroke="#5674b9" stroke-width="0.04mm" stroke-dasharray="0.4,0.2" x1="324.36" y1="252.14" x2="323.23" y2="125.49" />
<line fill="none" stroke="#5674b9" stroke-width="0.04mm" stroke-dasharray="0.4,0.2" x1="324.36" y1="252.14" x2="335.69" y2="200.37" />
<line fill="none" stroke="#5674b9" stroke-width="0.04mm" stroke-dasharray="0.4,0.2" x1="324.36" y1="252.14" x2="356.88" y2="244.72" />
<line fill="none" stroke="#5674b9" stroke-width="0.04mm" stroke-dasharray="0.4,0.2" x1="324.36" y1="252.14" x2="347.59" y2="241.36" />
<line fill="none" stroke="#111111" stroke-width="0.04mm" x1="324.36" y1="252.14" x2="345.28" y2="145.05" />
<line fill="none" stroke="#00aeef" stroke-width="0.04mm" stroke-dasharray="0.4,0.2" x1="345.28" y1="145.05" x2="361.44" y2="140.50" />
<line fill="none" stroke="#00aeef" stroke-width="0.04mm" stroke-dasharray="0.4,0.2" x1="345.28" y1="145.05" x2="370.45" y2="140.56" />
<line fill="none" stroke="#00aeef" stroke-width="0.04mm" stroke-dasharray="0.4,0.2" x1="345.28" y1="145.05" x2="355.53" y2="143.72" />
<line fill="none" stroke="#5674b9" stroke-width="0.04mm" stroke-dasharray="0.4,0.2" x1="345.28" y1="145.05" x2="353.56" y2="143.86" />
<line fill="none" stroke="#5674b9" stroke-width="0.04mm" stroke-dasharray="0.4,0.2" x1="345.28" y1="145.05" x2="343.08" y2="143.60" />
<line fill="none" stroke="#00aeef" stroke-width="0.04mm" stroke-dasharray="0.4,0.2" x1="345.28" y1="145.05" x2="340.09" y2="144.54" />
<line fill="none" stroke="#111111" stroke-width="0.04mm" x1="345.28" y1="145.05" x2="353.89" y2="134.22" />
<line fill="none" stroke="#111111" stroke-width="0.04mm" x1="353.89" y1="134.22" x2="367.84" y2="103.14" />
<line fill="none" stroke="#00aeef" stroke-width="0.04mm" stroke-dasharray="0.4,0.2" x1="367.84" y1="103.14" x2="393.09" y2="58.79" />
<line fill="none" stroke="#111111" stroke-width="0.04mm" x1="367.84" y1="103.14" x2="397.58" y2="53.86" />
<line fill="none" stroke="#5674b9" stroke-width="0.04mm" stroke-dasharray="0.4,0.2" x1="397.58" y1="53.86" x2="435.08" y2="19.03" />
</g>
<g>
<circle cx="51.00" cy="661.00" r="0.1" fill="#111111" />
<circle cx="90.69" cy="624.60" r="0.1" fill="#111111" />
<circle cx="116.56" cy="564.83" r="0.1" fill="#111111" />
<circle cx="151.02" cy="536.68" r="0.1" fill="#111111" />
<circle cx="161.34" cy="497.46" r="0.1" fill="#111111" />
<circle cx="181.69" cy="442.13" r="0.1" fill="#111111" />
<circle cx="195.00" cy="403.14" r="0.1" fill="#111111" />
<circle cx="226.63" cy="399.89" r="0.1" fill="#111111" />
<circle cx="234.06" cy="292.35" r="0.1" fill="#111111" />
<circle cx="244.05" cy="276.14" r="0.1" fill="#111111" />
<circle cx="251.97" cy="277.46" r="0.1" fill="#111111" />
<circle cx="277.70" cy="268.16" r="0.1" fill="#111111" />
<circle cx="324.36" cy="252.14" r="0.1" fill="#111111" />
<circle cx="345.28" cy="145.05" r="0.1" fill="#111111" />
<circle cx="353.89" cy="134.22" r="0.1" fill="#111111" />
<circle cx="367.84" cy="103.14" r="0.1" fill="#111111" />
<circle cx="397.58" cy="53.86" r="0.1" fill="#111111" />
</g>
<g>
<text x="51.20" y="661.00" font-size=".2mm" fill="#000000">0</text>
<text x="90.89" y="624.60" font-size=".2mm" fill="#000000">1</text>
<text x="116.76" y="564.83" font-size=".2mm" fill="#000000">2</text>
<text x="151.22" y="536.68" font-size=".2mm" fill="#000000">3</text>
<text x="161.54" y="497.46" font-size=".2mm" fill="#000000">4</text>
<text x="181.89" y="442.13" font-size=".2mm" fill="#000000">5</text>
<text x="195.20" y="403.14" font-size=".2mm" fill="#000000">6</text>
<text x="226.83" y="399.89" font-size=".2mm" fill="#000000">7</text>
<text x="234.26" y="292.35" font-size=".2mm" fill="#000000">8</text>
<text x="244.25" y="276.14" font-size=".2mm" fill="#000000">9</text>
<text x="252.17" y="277.46" font-size=".2mm" fill="#000000">10</text>
<text x="277.90" y="268.16" font-size=".2mm" fill="#000000">11</text>
<text x="324.56" y="252.14" font-size=".2mm" fill="#000000">12</text>
<text x="345.48" y="145.05" font-size=".2mm" fill="#000000">13</text>
<text x="354.09" y="134.22" font-size=".2mm" fill="#000000">14</text>
<text x="368.04" y="103.14" font-size=".2mm" fill="#000000">15</text>
<text x="397.78" y="53.86" font-size=".2mm" fill="#000000">16</text>
</g>
<g>
</g>
</g>
</svg>