<?xml version="1.0" encoding="utf-8"?>
<!DOCTYPE svg PUBLIC "-//W3C//DTD SVG 1.1//EN" "http://www.w3.org/Graphics/SVG/1.1/DTD/svg11.dtd">
<svg version="1.1" id="Layer_1" xmlns="http://www.w3.org/2000/svg" xmlns:xlink="http://www.w3.org/1999/xlink" x="0px" y="0px" width="123mm" height="180mm" viewBox="0 0 123 180" enable-background="new 0 0 123 180" xml:space="preserve">
<symbol id="airflow" viewBox="-12 -12 24 24">
<path d="M-4.38,10.73l4.2-3.84V3.55L-4.07,7.13l-.31-.29L-.18,3V-6.89a3.37,3.37,0,0,0-1.68.53l1.68-4.15L0-11l.21.51h0v0l1.65,4.1A3.26,3.26,0,0,0,.24-6.89v14l-.08,0L-4.07,11Z"/>
<rect fill="none" x="-12" y="-12" width="24" height="24"/>
</symbol>
<symbol id="anastomosis" viewBox="-12 -12 24 24">
<path d="M2.23-4.78l.37.24L5.22-2.78l-.47.57L2.49-3.7l-4.61,8-.24.44-.37-.34L-5.22,2.3l.55-.52,2.1,1.82L2-4.39Z"/>
<rect fill="none" x="-12" y="-12" width="24" height="24"/>
</symbol>
<symbol id="bivouac" viewBox="-12 -12 24 24">
<path d="M.25-7.66l.24.58L.54-7l3.88.48-3.31.91L6,6H8.35v.48l-16.7.07V6.05h2.64L0-7.08Zm0,1.32L-5.13,6H-4l2.07-5L.2-4l2.09,5L4.37,6H5.44Z"/>
<rect fill="none" x="-12" y="-12" width="24" height="24"/>
</symbol>
<symbol id="bones" viewBox="-12 -12 24 24">
<path d="M2.44,4.27l-.16,0H2.13a.22.22,0,0,1-.11,0l-.1-.06a.39.39,0,0,1-.09-.11l-.08-.13a1.51,1.51,0,0,1-.06-.15l-.07-.17s0-.11-.08-.19-.06-.16-.08-.21a4.75,4.75,0,0,0-.38-.71c-.18-.29-.43-.64-.74-1A11.15,11.15,0,0,0-.7.32,6.73,6.73,0,0,0-2-.64a4.12,4.12,0,0,0-1.44-.52A1.64,1.64,0,0,1-5-2.19.72.72,0,0,1-5-2.44a1,1,0,0,1,0-.29A.52.52,0,0,1-4.87-3a.54.54,0,0,1,.35-.15L-4-3.22l.46,0a.54.54,0,0,0,.27-.06A.52.52,0,0,0-3-3.56a.74.74,0,0,0,.13-.31.54.54,0,0,1,.15-.26.54.54,0,0,1,.3-.15.83.83,0,0,1,.47,0,1.11,1.11,0,0,1,.35.4A7.46,7.46,0,0,1-1-2.76q.18.42.33.72a3.22,3.22,0,0,0,.39.57L.1-1a4.77,4.77,0,0,0,.58.43c.28.18.51.33.69.43l1,.56a1.84,1.84,0,0,0,.39.23A5.29,5.29,0,0,1,3.22.9l.43.26a3.7,3.7,0,0,1,.46.3l.36.29a2.28,2.28,0,0,1,.31.32A1,1,0,0,1,5,2.4c.2.48,0,.78-.47.91h0a8.48,8.48,0,0,0-1.12.09,1,1,0,0,0-.42.44A1,1,0,0,1,2.44,4.27Z"/>
<rect fill="none" x="-12" y="-12" width="24" height="24"/>
</symbol>
<symbol id="calcite" viewBox="-12 -12 24 24">
<path d="M2.36-2.22l.05.46.34,3.91L2,2.22,1.65-1.26-2.52-.06l-.23-.7L1.89-2.08Z"/>
<rect fill="none" x="-12" y="-12" width="24" height="24"/>
</symbol>
<symbol id="cauliflower" viewBox="-12 -12 24 24">
<path d="M5.58,3.22v-3A2.12,2.12,0,0,0,6.92-.43a1.78,1.78,0,0,0,.55-1.32,1.92,1.92,0,0,0-.65-1.42,2.19,2.19,0,0,0-1.53-.59,2.21,2.21,0,0,0-1.54.59,1.78,1.78,0,0,0-.64,1.42A1.86,1.86,0,0,0,3.65-.43,2.12,2.12,0,0,0,5,.23v3H.26v-3A2.17,2.17,0,0,0,1.61-.43a1.81,1.81,0,0,0,.54-1.32,1.91,1.91,0,0,0-.64-1.42A2.21,2.21,0,0,0,0-3.76a2.21,2.21,0,0,0-1.54.59,1.82,1.82,0,0,0-.64,1.42A1.83,1.83,0,0,0-1.66-.43,2.12,2.12,0,0,0-.32.23v3H-5v-3A2.12,2.12,0,0,0-3.71-.43a1.78,1.78,0,0,0,.55-1.32,1.92,1.92,0,0,0-.65-1.42,2.19,2.19,0,0,0-1.53-.59,2.21,2.21,0,0,0-1.54.59,1.83,1.83,0,0,0-.65,1.42A1.87,1.87,0,0,0-7-.43,2.12,2.12,0,0,0-5.64.23v3H-8v.54H8V3.22Z"/>
<rect fill="none" x="-12" y="-12" width="24" height="24"/>
</symbol>
<symbol id="clay" viewBox="-12 -12 24 24">
<path d="M1.85-1.33a3,3,0,0,1,1.67.48,3.23,3.23,0,0,1,1,1l.29.51-1,.43a3.81,3.81,0,0,0-.23-.4A3.74,3.74,0,0,0,2.93,0,1.77,1.77,0,0,0,1.85-.32a2.57,2.57,0,0,0-1.1.15A.86.86,0,0,0,.51.14,2.23,2.23,0,0,1,0,.88a2.55,2.55,0,0,1-1.45.43,3.16,3.16,0,0,1-2.75-1,4.28,4.28,0,0,1-.37-.57,3.91,3.91,0,0,1-.21-.47l0-.16,1-.22a1.87,1.87,0,0,0,.45.79A2.12,2.12,0,0,0-1.51.33,1.82,1.82,0,0,0-.69.14l.21-.36A1.53,1.53,0,0,1,.17-1,3.76,3.76,0,0,1,1.85-1.33Z"/>
<rect fill="none" x="-12" y="-12" width="24" height="24"/>
</symbol>
<symbol id="crystals" viewBox="-12 -12 24 24">
<path d="M-2.94-5.38,0-.72,2.94-5.38,3.62-5,.68-.36H6.56V.36H.68L3.62,5l-.68.36L0,.72-2.94,5.38-3.62,5-.68.36H-6.56V-.36H-.68L-3.62-5Z"/>
<rect fill="none" x="-12" y="-12" width="24" height="24"/>
</symbol>
<symbol id="curtain" viewBox="-12 -12 24 24">
<path d="M3.57-6.69l.52.53L.39-3V-.33L.1-.26a3.79,3.79,0,0,0-1,.41c-.58.3-.87.65-.87,1v.07A1.61,1.61,0,0,0-.84,2.48a3.69,3.69,0,0,0,.45.24L0,2.86l.13.05L.39,3V6.12H-.39V3.51a7.65,7.65,0,0,1-.9-.46A2.19,2.19,0,0,1-2.54,1.28V1.23A2,2,0,0,1-1.31-.48,5.32,5.32,0,0,1-.39-.86V-3l-3.7-3.14.52-.53L0-3.67Z"/>
<rect fill="none" x="-12" y="-12" width="24" height="24"/>
</symbol>
<symbol id="disk" viewBox="-12 -12 24 24">
<path d="M-.09-4.19a2.43,2.43,0,0,1,1.7.64A2,2,0,0,1,2.35-2,2.09,2.09,0,0,1,1.81-.55,2.44,2.44,0,0,1,.35.23l2.18,3.6-.68.33L0,1.14-1.48,4.19l-.71-.29L-.41.25A2.53,2.53,0,0,1-1.9-.47a2,2,0,0,1-.63-1.41,2,2,0,0,1,.67-1.61,2.46,2.46,0,0,1,1.72-.7ZM1.05-3.06.56-3.49l-.69,0A1.72,1.72,0,0,0-1.29-3a1.51,1.51,0,0,0-.45,1.08,1.36,1.36,0,0,0,.51,1A1.68,1.68,0,0,0-.07-.44v0l0,0A1.7,1.7,0,0,0,1.11-.92,1.36,1.36,0,0,0,1.56-2,1.47,1.47,0,0,0,1.05-3.06Z"/>
<rect fill="none" x="-12" y="-12" width="24" height="24"/>
</symbol>
<symbol id="entrance" viewBox="-12 -12 24 24">
<path d="M4.46,9H-4.46L0-9Z"/>
<rect fill="none" x="-12" y="-12" width="24" height="24"/>
</symbol>
<symbol id="flowstone" viewBox="-12 -12 24 24">
<rect x="-6" y="-0.21" width="12" height="0.42"/>
<rect fill="none" x="-12" y="-12" width="24" height="24"/>
</symbol>
<symbol id="flutes" viewBox="-12 -12 24 24">
<path d="M-7-1H7v.72H3.87A4.7,4.7,0,0,1,2.16,1.5,4.2,4.2,0,0,1,0,2.13,3.94,3.94,0,0,1-2.19,1.5,4.18,4.18,0,0,1-3.76-.27H-7Zm4.17.72A3.15,3.15,0,0,0-1.65,1,3.21,3.21,0,0,0,0,1.41,3.49,3.49,0,0,0,1.6,1,3.68,3.68,0,0,0,3-.27Z"/>
<rect fill="none" x="-12" y="-12" width="24" height="24"/>
</symbol>
<symbol id="gradient" viewBox="-12 -12 24 24">
<path d="M2.58-3.83,0-10-2.58-3.83A4.74,4.74,0,0,1-.17-4.5V10H.25V-4.5A6.65,6.65,0,0,1,2.58-3.83Z"/>
<rect fill="none" x="-12" y="-12" width="24" height="24"/>
</symbol>
<symbol id="guano" viewBox="-12 -12 24 24">
<path d="M-3.24-3a2.15,2.15,0,0,1,1.57.55A3.93,3.93,0,0,1-.59.24a4.32,4.32,0,0,1,2.75-2.3,2.68,2.68,0,0,1,2.23.36A2.36,2.36,0,0,1,5.5.19l-.79,0a1.72,1.72,0,0,0-.79-1.37,1.94,1.94,0,0,0-1.55-.24A3.53,3.53,0,0,0,.48,0,6.63,6.63,0,0,0-.69,3l-.79-.09a10.72,10.72,0,0,0,0-3.16A3.21,3.21,0,0,0-2.22-2,1.44,1.44,0,0,0-3.37-2.3,3.45,3.45,0,0,0-5-1.54l-.5-.55a4.29,4.29,0,0,1,2-.91A.9.9,0,0,1-3.24-3Z"/>
<rect fill="none" x="-12" y="-12" width="24" height="24"/>
</symbol>
<symbol id="helictites" viewBox="-12 -12 24 24">
<path d="M-4.59-7.92h.79v7.7l3.41,0V-7.92H.39V-.17L4.2-.12h.39v8H3.8V.6L.39.55V7.92H-.39V.55L-4.2.5l-.39,0v-8.4Z"/>
<rect fill="none" x="-12" y="-12" width="24" height="24"/>
</symbol>
<symbol id="human" viewBox="-12 -12 24 24">
<path d="M-3.59-3.29A5.13,5.13,0,0,1,0-4.66,5.13,5.13,0,0,1,3.59-3.29,4.3,4.3,0,0,1,5.09,0a4.3,4.3,0,0,1-1.5,3.29A5.13,5.13,0,0,1,0,4.66,5.13,5.13,0,0,1-3.59,3.29,4.3,4.3,0,0,1-5.09,0,4.3,4.3,0,0,1-3.59-3.29Zm.28.77A3.68,3.68,0,0,0-4.3,0a3.62,3.62,0,0,0,1,2.57L-.5.05ZM0-3.94A4.42,4.42,0,0,0-2.75-3L.16-.36H4.28A3.62,3.62,0,0,0,2.91-2.9,4.38,4.38,0,0,0,0-3.94ZM.16.46-2.7,3.07A4.42,4.42,0,0,0,0,3.94a4.37,4.37,0,0,0,2.87-1A3.78,3.78,0,0,0,4.28.46Z"/>
<rect fill="none" x="-12" y="-12" width="24" height="24"/>
</symbol>
<symbol id="karren" viewBox="-12 -12 24 24">
<path d="M1-5.84h0a1.37,1.37,0,0,1,1.06.68A3.33,3.33,0,0,1,2.5-3.79,25.79,25.79,0,0,1,2.36,0a18.61,18.61,0,0,0-.08,3.72,2.68,2.68,0,0,0,.41,1.2,1.13,1.13,0,0,0,.79.5A.92.92,0,0,0,4,4.94a4.43,4.43,0,0,0,.47-1.22c.16-.64.36-1.86.59-3.66a26.71,26.71,0,0,1,.64-3.69,4.62,4.62,0,0,1,.57-1.29,1.34,1.34,0,0,1,1-.59h0A1.28,1.28,0,0,1,8.37-5a2.17,2.17,0,0,1,.39,1.15A19.91,19.91,0,0,1,8.54-.53a21.51,21.51,0,0,0-.2,3.64A2.64,2.64,0,0,0,9.45,5.36,1.91,1.91,0,0,0,10.88,5a3.84,3.84,0,0,0,.7-1l.42.2-.1.18-.12.21-.11.18L11.52,5a.94.94,0,0,1-.14.16c-.06.07-.13.12-.19.18a2.5,2.5,0,0,1-1.85.41H9.29l0,0A3.06,3.06,0,0,1,7.87,3.13a22.11,22.11,0,0,1,.2-3.7,18.17,18.17,0,0,0,.22-3.28A1.85,1.85,0,0,0,8-4.79a.77.77,0,0,0-.67-.3.93.93,0,0,0-.64.42,4.51,4.51,0,0,0-.51,1.15A26.26,26.26,0,0,0,5.54.1c-.24,1.83-.45,3.07-.61,3.72a5.38,5.38,0,0,1-.51,1.34,1.33,1.33,0,0,1-.89.68H3.47A1.58,1.58,0,0,1,2.3,5.16a3.29,3.29,0,0,1-.49-1.4A20.27,20.27,0,0,1,1.89,0,23.45,23.45,0,0,0,2-3.75a2.94,2.94,0,0,0-.32-1.19A.93.93,0,0,0,1-5.42,1.1,1.1,0,0,0,.19-5,3.69,3.69,0,0,0-.43-3.76,20.78,20.78,0,0,0-1.07.07c-.2,2-.37,3.32-.49,3.86A4.48,4.48,0,0,1-2,5.26,1.06,1.06,0,0,1-3,5.81h0a1.9,1.9,0,0,1-1.29-.67,2.7,2.7,0,0,1-.58-1.31,14.92,14.92,0,0,1,0-3.6q0-.12.06-.54c0-.28,0-.47,0-.57s0-.28,0-.52,0-.42,0-.55,0-.28,0-.47,0-.36,0-.51,0-.29,0-.43A3.09,3.09,0,0,0-5-4.62a1.19,1.19,0,0,0-.67-.6,1.5,1.5,0,0,0-1.2.9A7,7,0,0,0-7.41-2.1c0,.39-.1,1-.14,1.76s-.11,1.47-.18,2.08A9.61,9.61,0,0,1-8,3.32h0l0,0A2.81,2.81,0,0,1-9.2,4.62a1.82,1.82,0,0,1-1.35.15A1.94,1.94,0,0,1-11.61,4,2.39,2.39,0,0,1-12,2.56l.47,0a1.92,1.92,0,0,0,.31,1.16,1.47,1.47,0,0,0,.81.62,1.3,1.3,0,0,0,1-.11A2.32,2.32,0,0,0-8.5,3.18a7.53,7.53,0,0,0,.29-1.5Q-8.1.8-8-.36c0-.78.1-1.37.16-1.78A7.23,7.23,0,0,1-7.28-4.5,1.93,1.93,0,0,1-5.65-5.66h.05l0,0a1.59,1.59,0,0,1,1,.84,3.47,3.47,0,0,1,.34,1.41,4.91,4.91,0,0,1,0,.57v.54c0,.15,0,.37,0,.66s0,.47,0,.58,0,.33-.06.68,0,.56-.06.63a14.78,14.78,0,0,0,0,3.49,2.58,2.58,0,0,0,.5,1.13,1.57,1.57,0,0,0,1,.5A.61.61,0,0,0-2.44,5,3.89,3.89,0,0,0-2,3.85C-1.9,3.31-1.74,2-1.53,0A20.65,20.65,0,0,1-.86-3.89,3.89,3.89,0,0,1-.18-5.26,1.58,1.58,0,0,1,1-5.84Z"/>
<rect fill="none" x="-12" y="-12" width="24" height="24"/>
</symbol>
<symbol id="moonmilk" viewBox="-12 -12 24 24">
<path d="M-4.78-3.06a3.39,3.39,0,0,1,1.5.34,2.48,2.48,0,0,1,1.1,1,3.74,3.74,0,0,1,1.62-.8,3.52,3.52,0,0,1,1.71,0,2.9,2.9,0,0,1,1.39.77A2.49,2.49,0,0,1,3.25-.37,4,4,0,0,1,5-.76a3.58,3.58,0,0,1,1.6.36A2.84,2.84,0,0,1,7.88.92a2.32,2.32,0,0,1,0,1.88.34.34,0,0,1-.37.26A.36.36,0,0,1,7.25,3a.32.32,0,0,1-.12-.25.21.21,0,0,1,0-.12,2,2,0,0,0,0-1.43,2,2,0,0,0-1-.9A2.81,2.81,0,0,0,4.68,0,2.78,2.78,0,0,0,3.12.56L2.46.25A1.7,1.7,0,0,0,2.15-1.1,2.15,2.15,0,0,0,1-1.81a2.85,2.85,0,0,0-1.58.06A3,3,0,0,0-2-.83l-.71-.12A1.74,1.74,0,0,0-3.55-2a2.36,2.36,0,0,0-1.39-.27,3.08,3.08,0,0,0-1.45.53A2.33,2.33,0,0,0-7.32-.56a.35.35,0,0,1-.37.24A.39.39,0,0,1-8-.42a.33.33,0,0,1-.1-.26v-.1A3,3,0,0,1-6.89-2.35,4,4,0,0,1-5-3Z"/>
<rect fill="none" x="-12" y="-12" width="24" height="24"/>
</symbol>
<symbol id="narrow" viewBox="-12 -12 24 24">
<path d="M-1.5,5V-5h0.64V5H-1.5z"/>
<path d="M0.86,5V-5H1.5V5H0.86z"/>
<rect fill="none" x="-12" y="-12" width="24" height="24"/>
</symbol>
<symbol id="paleoflow" viewBox="-12 -12 24 24">
<path d="M.38-12V.17A1.9,1.9,0,0,0,1,0,1.57,1.57,0,0,0,1.7-.72a1.86,1.86,0,0,0,.23-1c0-.09,0-.14.08-.16a.92.92,0,0,1,.24,0,.52.52,0,0,0,.25,0h.08A2.48,2.48,0,0,1,2,0,2.5,2.5,0,0,1,.38.77V7.21H2.09L0,12-1.8,7.23c.07,0,.59,0,1.53,0V.77A3,3,0,0,1-1.35.43a2.16,2.16,0,0,1-1-1,2.38,2.38,0,0,1-.24-1.33l.67,0a2,2,0,0,0,.15,1,1.73,1.73,0,0,0,.59.67A2.14,2.14,0,0,0-.27.16V-12Z"/>
<rect fill="none" x="-12" y="-12" width="24" height="24"/>
</symbol>
<symbol id="rain" viewBox="-12 -12 24 24">
<path d="M-4.14-6.34h0.71v4.69h-0.71V-6.34z"/>
<path d="M-0.35-6.34h0.71v4.69h-0.71V-6.34z"/>
<path d="M3.43-6.34h0.71v4.69H3.43V-6.34z"/>
<path d="M-4.14,1.65h0.71v4.69h-0.71V1.65z"/>
<path d="M-0.35,1.65h0.71v4.69h-0.71V1.65z"/>
<path d="M3.43,1.65h0.71v4.69H3.43V1.65z"/>
<rect fill="none" x="-12" y="-12" width="24" height="24"/>
</symbol>
<symbol id="rats" viewBox="-12 -12 24 24">
<path d="M8.78-2.32,7-2.27c-.51-.17-.65-.56-1.46-.45l-.25.45C3.59-2.75,2.59-3.66.56-3.62l-1.35.3A4.89,4.89,0,0,0-4.24,1.57c-.68.6-2.58.86-3.39.94a6.84,6.84,0,0,0-1.62.39,4.91,4.91,0,0,0-1,.52A1.75,1.75,0,0,0-11,4.61a1.16,1.16,0,0,0,.59,1.48,1.3,1.3,0,0,1,.14.12c.16-.52-.35-.92-.2-1.42a3.35,3.35,0,0,1,.27-.45,3.18,3.18,0,0,1,1.79-1c.63-.12,1.27-.22,1.91-.3.48-.07,1,0,1.4-.12A6.94,6.94,0,0,1-4,2.82,30.64,30.64,0,0,0,.41,2.69l2.16.15c.1-.09,0,0,.1-.15a.87.87,0,0,0-.9-.55c.86-1,2.27-.37,3.1-.05.5.19,1,0,1.25.4.11-.1.1-.07.15-.25.3,0,.31.07.6.15-.06-.49-.34-.64-1-.6a.78.78,0,0,1,0-.55C6.3.56,7.29.73,8.13.43a13.78,13.78,0,0,0,2.15-.9l.6-.85v-.2A16.9,16.9,0,0,0,8.78-2.32Z"/>
<rect fill="none" x="-12" y="-12" width="24" height="24"/>
</symbol>
<symbol id="sand" viewBox="-12 -12 24 24">
<path d="M-1.58,0.83c0.23,0.2,0.35,0.44,0.36,0.73c0.01,0.29-0.08,0.54-0.28,0.75c-0.2,0.21-0.46,0.32-0.78,0.33c-0.32,0.01-0.6-0.08-0.83-0.26C-3.36,2.19-3.49,1.95-3.5,1.67C-3.51,1.38-3.41,1.12-3.2,0.9c0.21-0.22,0.48-0.34,0.8-0.35C-2.08,0.54-1.81,0.64-1.58,0.83z"/>
<path d="M0.08-2.36c0.23,0.2,0.35,0.44,0.36,0.73c0.01,0.29-0.08,0.54-0.28,0.75c-0.2,0.21-0.46,0.32-0.78,0.33c-0.32,0.01-0.59-0.07-0.83-0.26s-0.37-0.42-0.38-0.71c-0.01-0.29,0.09-0.54,0.3-0.76c0.21-0.22,0.48-0.33,0.8-0.35C-0.42-2.65-0.14-2.56,0.08-2.36z"/>
<path d="M3.12,0.55c0.23,0.2,0.35,0.43,0.38,0.71c0.02,0.28-0.07,0.53-0.28,0.75C3,2.23,2.73,2.35,2.42,2.36C2.1,2.37,1.82,2.28,1.58,2.08C1.34,1.88,1.22,1.64,1.2,1.35c-0.01-0.29,0.09-0.54,0.3-0.75C1.72,0.4,1.99,0.29,2.3,0.28S2.89,0.36,3.12,0.55z"/>
<rect fill="none" x="-12" y="-12" width="24" height="24"/>
</symbol>
<symbol  id="scallops" viewBox="-12 -12 24 24">
<path d="M.05-3.74l.21,0A2.35,2.35,0,0,1,1.74-3a2,2,0,0,1,.59,1.55v0l0,0A9.59,9.59,0,0,1-.08,3.27l-.39.47-.27-.55A14.26,14.26,0,0,1-2.33-1.89v-.05l0-.05A2,2,0,0,1-1.44-3.3,2.42,2.42,0,0,1,.05-3.74ZM-.11-3A1.44,1.44,0,0,0-1.55-1.89,13.06,13.06,0,0,0-.29,2.33,8.6,8.6,0,0,0,1.55-1.54a1.41,1.41,0,0,0-.38-1A1.62,1.62,0,0,0,.18-3Z"/>
<rect fill="none" x="-12" y="-12" width="24" height="24"/>
</symbol>
<symbol  id="sink" viewBox="-12 -12 24 24">
<path d="M.72,9.41H.9c1.94,0,3.26-.54,3.94-1.51a3.61,3.61,0,0,0,.33-.69,2,2,0,0,0,.11-.54V6.46l.69,0a2.8,2.8,0,0,1-.58,1.78C4.58,9.39,3.1,10,.93,10H-.93q-3.25,0-4.46-1.8a2.74,2.74,0,0,1-.43-.83A2.37,2.37,0,0,1-6,6.67V6.43l.68,0A2.27,2.27,0,0,0-4.84,7.9c.68,1,2,1.47,3.93,1.48l.5,0ZM-1.46-10a.68.68,0,0,0,.16.41A2.77,2.77,0,0,0-.51-9l0,0a3.63,3.63,0,0,1,1,.7,1.15,1.15,0,0,1,.34.88c0,.58-.53,1.14-1.49,1.68-.68.42-1,.79-1,1.11s.3.61.84,1h0Q.61-2.86.46-1.78a3.51,3.51,0,0,1-1.55,2,.61.61,0,0,0-.26.41,1.67,1.67,0,0,0,.1.51,5.3,5.3,0,0,1,.32,1L.56,1.9.46,8.06-3.4,2.54l1.73-.28A6.16,6.16,0,0,0-2,1.39,1.7,1.7,0,0,1-2.09.58a1.21,1.21,0,0,1,.53-.82h0v0C-.75-.86-.33-1.38-.28-1.85s-.23-.87-.91-1.27h0C-2-3.6-2.37-4.1-2.4-4.61S-2-5.74-1.09-6.29C-.34-6.72.06-7.1.09-7.44a.67.67,0,0,0-.18-.43,3.17,3.17,0,0,0-.79-.58,2.93,2.93,0,0,1-1-.67A1.16,1.16,0,0,1-2.17-10Z"/>
<rect fill="none" x="-12" y="-12" width="24" height="24"/>
</symbol>
<symbol  id="spring" viewBox="-12 -12 24 24">
<path d="M-1.34-9.86,2.52-4.34.78-4.06a8,8,0,0,0,.29.87,1.4,1.4,0,0,1,.13.79,1.3,1.3,0,0,1-.52.84l0,0v0C-.13-.95-.55-.42-.61,0S-.37.91.31,1.3l0,0c.75.46,1.14,1,1.18,1.46S1.12,3.92.21,4.46C-.54,4.9-.94,5.29-1,5.64a.74.74,0,0,0,.18.43A3.2,3.2,0,0,0,0,6.62a3,3,0,0,1,1,.7,1.14,1.14,0,0,1,.31.86A1.74,1.74,0,0,1,.71,9.26H.92c1.92,0,3.22-.52,3.9-1.51a2.05,2.05,0,0,0,.35-.67,2.59,2.59,0,0,0,.1-.55l0-.19.65,0a2.84,2.84,0,0,1-.55,1.8C4.58,9.26,3.08,9.85.92,9.86H-.92c-2.17,0-3.66-.6-4.49-1.77a3.65,3.65,0,0,1-.4-.85A2.43,2.43,0,0,1-6,6.53V6.29l.66,0a2.08,2.08,0,0,0,.47,1.41c.68,1,2,1.5,3.91,1.51H-.4c.62-.43.94-.8,1-1.1a.76.76,0,0,0-.16-.43,3.25,3.25,0,0,0-.79-.51v0a3.8,3.8,0,0,1-1-.7,1.15,1.15,0,0,1-.34-.91q.06-.84,1.5-1.68c.68-.4,1-.77,1-1.1S.49,2.21,0,1.87c0,0,0,0,0,0C-1,1.32-1.44.69-1.34,0a3.58,3.58,0,0,1,1.55-2,.54.54,0,0,0,.23-.38A1.28,1.28,0,0,0,.37-3a4.57,4.57,0,0,1-.32-1l-1.49.24Z"/>
<rect fill="none" x="-12" y="-12" width="24" height="24"/>
</symbol>
<symbol  id="stalactite" viewBox="-12 -12 24 24">
<path d="M3.57-6.69l.52.53L.39-3V6.12H-.39V-3l-3.7-3.14.52-.53L0-3.67Z"/>
<rect fill="none" x="-12" y="-12" width="24" height="24"/>
</symbol>
<symbol  id="stalagmite" viewBox="-12 -12 24 24">
<path d="M.38-6.42V2.75L4.11,5.89l-.56.53L0,3.4l-3.57,3-.53-.53,3.7-3.14V-6.42Z"/>
<rect fill="none" x="-12" y="-12" width="24" height="24"/>
</symbol>
<symbol  id="stalagnate" viewBox="-12 -12 24 24">
<path d="M3.55-8.46l.56.53L.38-4.78v9L4.11,7.36l-.56.53L0,4.86l-3.57,3-.53-.53,3.7-3.14v-9l-3.7-3.15.53-.53L0-5.43Z"/>
<rect fill="none" x="-12" y="-12" width="24" height="24"/>
</symbol>
<symbol  id="straws" viewBox="-12 -12 24 24">
<path d="M-10.89-2.76H10.89V-2H9.63V.46H8.84V-2H8.29v5.6H7.5V-2H5.56V.7H4.77V-2H2.07V2.38H1.29V-2H-.1v3H-.89V-2H-3.2V4.11H-4V-2H-6.22L-6.16.75l-.79,0L-7-2H-8.32V2.33H-9.1V-2h-1.79Z"/>
<rect fill="none" x="-12" y="-12" width="24" height="24"/>
</symbol>
<symbol  id="water" viewBox="-12 -12 24 24">
<path d="M-1.72-9.86,2.11-4.32.38-4.06a6.49,6.49,0,0,0,.29.89,1.5,1.5,0,0,1,.13.79,1.2,1.2,0,0,1-.5.82h0l0,0C-.54-.94-1-.42-1,.05s.24.89.92,1.27h0c.77.48,1.17,1,1.19,1.49S.71,3.94-.2,4.49c-.75.43-1.13.81-1.15,1.15a.51.51,0,0,0,.18.43,2.66,2.66,0,0,0,.76.58,2.93,2.93,0,0,1,1,.67,1.16,1.16,0,0,1,.29.89C.84,8.75.42,9.3-.41,9.86l-.44-.55c.66-.45,1-.83,1-1.15A.47.47,0,0,0,0,7.75a2.84,2.84,0,0,0-.78-.53h0a3.87,3.87,0,0,1-1-.69,1.24,1.24,0,0,1-.34-.91c0-.58.54-1.14,1.52-1.68.66-.42,1-.79,1-1.11s-.3-.61-.84-1h0Q-1.9,1.06-1.74,0a3.44,3.44,0,0,1,1.54-2,.67.67,0,0,0,.27-.41A1.11,1.11,0,0,0,0-3a4.33,4.33,0,0,1-.31-1l-1.5.24Z"/>
<rect fill="none" x="-12" y="-12" width="24" height="24"/>
</symbol><symbol  id="tree" viewBox="-12 -12 24 24">
<path d="M7.4-5.04A4.271,4.271,0,0,0,7.7-6.627a4.3,4.3,0,0,0-4.3-4.3A4.279,4.279,0,0,0,.636-9.914,4.293,4.293,0,0,0-3.045-12a4.3,4.3,0,0,0-4.3,4.3,4.27,4.27,0,0,0,.421,1.845,4.3,4.3,0,0,0-3.645,4.244,4.3,4.3,0,0,0,4.3,4.3A4.282,4.282,0,0,0-3.946,2L-1.175,5.23h0L-1.612,12H.982L.757,6.376,4.119,2.827v0a4.272,4.272,0,0,0,2.15.58,4.3,4.3,0,0,0,4.3-4.3A4.3,4.3,0,0,0,7.4-5.04ZM-3.346,1.538h0A4.346,4.346,0,0,0-2.7.788a4.266,4.266,0,0,0,1.765.753l-.135,2.087ZM.69,4.7.563,1.544A4.258,4.258,0,0,0,2.321.805,4.3,4.3,0,0,0,3.378,2.279Z"/>
<rect fill="none" x="-12" y="-12" width="24" height="24"/>
</symbol><g>
<desc></desc>
<g>
<line fill="none" stroke="#dddddd" stroke-width="0.1mm" x1="0.00" y1="148.00" x2="123.00" y2="148.00" />
<text x="120.20" y="147.80" font-size=".2mm" fill="#000000">0m</text>
<line fill="none" stroke="#dddddd" stroke-width="0.1mm" x1="0.00" y1="128.00" x2="123.00" y2="128.00" />
<text x="120.20" y="127.80" font-size=".2mm" fill="#000000">10m</text>
<line fill="none" stroke="#dddddd" stroke-width="0.1mm" x1="0.00" y1="108.00" x2="123.00" y2="108.00" />
<text x="120.20" y="107.80" font-size=".2mm" fill="#000000">20m</text>
<line fill="none" stroke="#dddddd" stroke-width="0.1mm" x1="0.00" y1="88.00" x2="123.00" y2="88.00" />
<text x="120.20" y="87.80" font-size=".2mm" fill="#000000">30m</text>
<line fill="none" stroke="#dddddd" stroke-width="0.1mm" x1="0.00" y1="68.00" x2="123.00" y2="68.00" />
<text x="120.20" y="67.80" font-size=".2mm" fill="#000000">40m</text>
<line fill="none" stroke="#dddddd" stroke-width="0.1mm" x1="0.00" y1="48.00" x2="123.00" y2="48.00" />
<text x="120.20" y="47.80" font-size=".2mm" fill="#000000">50m</text>
<line fill="none" stroke="#dddddd" stroke-width="0.1mm" x1="0.00" y1="28.00" x2="123.00" y2="28.00" />
<text x="120.20" y="27.80" font-size=".2mm" fill="#000000">60m</text>
<line fill="none" stroke="#dddddd" stroke-width="0.1mm" x1="0.00" y1="8.00" x2="123.00" y2="8.00" />
<text x="120.20" y="7.80" font-size=".2mm" fill="#000000">70m</text>
<line fill="none" stroke="#dddddd" stroke-width="0.1mm" x1="0.00" y1="168.00" x2="123.00" y2="168.00" />
<text x="120.20" y="167.80" font-size=".2mm" fill="#000000">-10m</text>
</g>
<g>
<path fill="none" stroke="#000000" stroke-width="0.06mm" stroke-dasharray="0.3mm,0.1mm" d="M25.185228,159.88382 C25.273237,159.83716 25.357716,159.78313 25.449251,159.74382 C25.515991,159.71516 25.585407,159.68593 25.657864,159.6809 C26.259129,159.63922 26.862333,159.5754 27.464355,159.60411 C27.888351,159.62434 28.297287,159.7716 28.71815,159.8269 C29.009396,159.86517 29.303806,159.87982 29.597519,159.88437 C30.061735,159.89156 30.029074,159.74846 30.584585,159.7043 C31.111795,159.66238 31.642082,159.68129 32.17083,159.66978 L32.17083,159.66978" /><path fill="none" stroke="#000000" stroke-width="0.06mm" stroke-dasharray="0.3mm,0.1mm" d="M20.53906,148.7716 C20.155628,154.23721 20.488003,148.26517 20.450996,153.58876 C20.448465,153.95294 20.355522,154.312 20.342962,154.67596 C20.302742,155.84148 20.526009,157.37633 20.683384,158.41725 C20.723354,158.68164 20.801897,158.9391 20.877697,159.19551 C20.959461,159.47209 21.15772,159.63663 21.401758,159.7701 C21.670261,159.91693 22.069107,159.91353 22.341446,159.90674 C22.669312,159.89856 22.995838,159.86125 23.322569,159.8328 C23.420715,159.82423 23.517284,159.79732 23.615791,159.7957 C23.862598,159.79169 24.109444,159.80484 24.356033,159.81595 C24.780548,159.83505 25.205723,159.92476 25.628922,159.88629 C25.733519,159.87679 25.786943,159.7479 25.865953,159.6787 L25.865953,159.6787" /><path fill="none" stroke="#000000" stroke-width="0.06mm" stroke-dasharray="0.3mm,0.1mm" d="M28.41347,148.39407 C28.35242,148.35207 28.299347,148.29503 28.230326,148.26807 C28.214483,148.26187 28.211306,148.30138 28.217142,148.31735 C29.552752,151.97296 30.919544,155.61713 32.25148,159.27405 C32.30169,159.41191 32.369274,159.71213 32.283375,159.8651 C32.2275,159.96461 32.09063,160.0167 31.997875,159.93948 C31.977882,159.92285 31.944637,159.88828 31.93768,159.86153 C31.914875,159.77386 31.900887,159.68414 31.882488,159.59546 L31.882488,159.59546" /><path fill="none" stroke="#000000" stroke-width="0.06mm" d="M39.996433,127.08319 C39.426228,126.35358 38.856342,125.62372 38.285812,124.894356 C38.083,124.635086 38.036304,124.55449 37.71778,124.33232 C37.466877,124.15732 37.204113,123.99874 36.93496,123.85337 C36.81292,123.78746 36.67981,123.74354 36.54796,123.700485 C36.30362,123.620705 36.122673,123.60899 35.896698,123.72927 C35.726845,123.81968 35.621746,123.96933 35.519276,124.12856 C34.96858,124.984276 34.39461,125.82599 33.879288,126.70346 C32.73628,128.6497 31.737951,130.68074 30.545736,132.59724 C29.874657,133.67601 28.966003,134.59465 28.298061,135.67537 C25.477371,140.2392 25.81084,140.44572 23.549788,144.95914 C23.084467,145.88799 22.42345,146.94432 21.744328,147.76164 C21.548416,147.99742 21.322021,148.20651 21.099386,148.41724 C20.975632,148.53438 20.755981,148.58783 20.663689,148.7343 C20.644777,148.76431 20.631298,148.79742 20.615105,148.829 L20.615105,148.829" /><path fill="none" stroke="#000000" stroke-width="0.06mm" d="M39.92509,126.985085 C39.977734,126.801865 40.06216,126.62491 40.083023,126.43542 C40.133904,125.97322 40.109005,125.50559 40.13904,125.04158 C40.143623,124.97075 40.163723,124.90121 40.186684,124.834045 C40.258102,124.625114 40.35074,124.42382 40.421684,124.21473 C40.467896,124.078545 40.445595,123.62375 40.446007,123.6176 C40.450974,123.54425 40.467743,123.47158 40.489777,123.40144 C40.51768,123.31264 40.558117,123.228226 40.595177,123.14284 C40.642593,123.03358 40.716114,122.9336 40.743153,122.817604 C41.263054,120.587204 40.7997,121.57791 41.233032,120.7066 L41.233032,120.7066" /><path fill="none" stroke="#000000" stroke-width="0.06mm" d="M39.794296,132.07744 C39.817574,131.97154 39.83385,131.86386 39.864136,131.75975 C39.95066,131.46228 40.21611,131.22037 40.47712,131.07437 C40.557957,131.02916 40.640858,130.98305 40.730835,130.96107 C42.14193,130.61646 43.557602,130.2904 44.975677,129.97572 C45.094334,129.9494 45.476875,129.96683 45.573933,129.9633 C45.586887,129.96283 45.59824,129.95395 45.60942,129.9474 C45.684216,129.90353 45.757565,129.85725 45.83164,129.8122 L45.83164,129.8122" /><path fill="none" stroke="#000000" stroke-width="0.06mm" d="M45.46601,130.10352 C46.08251,129.89827 45.493942,130.07936 46.160694,129.92082 C46.212337,129.90854 46.265083,129.88513 46.306675,129.85117 C46.431427,129.74927 46.464905,129.55548 46.482582,129.40697 C46.537685,128.94405 46.580513,128.47975 46.63365,128.0166 C46.85165,126.11661 47.016983,124.20959 47.295982,122.3176 C47.326797,122.108635 47.781693,120.671234 47.800808,119.996185 C47.802704,119.92914 47.7821,119.86335 47.772743,119.79693 L47.772743,119.79693" /><path fill="none" stroke="#000000" stroke-width="0.06mm" d="M39.744987,131.74745 C39.607002,132.76451 39.50955,134.33041 39.102467,135.42345 C39.00543,135.68399 38.852,135.92001 38.719067,136.1642 C38.41608,136.7208 38.078117,137.25868 37.794838,137.82555 C36.998547,139.61342 36.72652,140.1121 37.114243,139.38748 L37.114243,139.38748" /><path fill="none" stroke="#000000" stroke-width="0.06mm" d="M36.870487,139.7888 C36.603558,141.11186 36.72315,140.81924 36.304405,141.93327 C36.11013,142.4501 35.929085,142.97293 35.703056,143.4767 C35.42873,144.0881 35.139442,144.24709 34.755993,144.83505 C34.508083,145.26163 34.260178,145.6882 34.012268,146.11479 C33.910065,146.29745 33.81806,146.4862 33.705654,146.66277 C33.46405,147.04227 33.04854,147.28488 32.69341,147.54083 C32.61198,147.59952 32.542137,147.68253 32.443092,147.71588 C32.156868,147.81227 32.055172,147.83015 31.776947,147.80367 C31.611893,147.78793 31.447578,147.74893 31.281898,147.7553 C28.29055,147.8704 28.43377,148.91078 28.353998,147.7142 L28.353998,147.7142" /><path fill="none" stroke="#000000" stroke-width="0.06mm" d="M46.930946,123.182785 C47.052402,123.16373 47.17518,123.15172 47.29532,123.12561 C47.35142,123.11343 47.4067,123.094604 47.45775,123.068344 C47.76676,122.90935 48.072144,122.74314 48.373856,122.57069 C48.408546,122.55086 48.441498,122.52508 48.46488,122.492676 C48.601357,122.30357 48.72963,122.108406 48.851135,121.90937 C48.970734,121.71346 49.04079,121.322174 49.089584,121.16659 C49.23242,120.71118 49.385773,120.44128 49.419727,119.98446 C49.46559,119.36751 49.388584,119.646576 49.379192,119.168564 C49.3769,119.051956 49.40057,118.93556 49.395462,118.819046 C49.387787,118.643936 49.351135,118.47104 49.340942,118.29607 C49.337906,118.24388 49.34481,118.19105 49.355907,118.13997 C49.426155,117.816696 49.479446,117.461174 49.63995,117.16081 C49.742813,116.96831 49.820198,116.908325 50.027603,116.87887 C50.333977,116.83536 50.639633,116.78598 50.947098,116.75104 C51.34113,116.70625 51.736656,116.675735 52.131588,116.639725 C52.232254,116.63055 52.333694,116.62902 52.433865,116.61548 C52.517136,116.604225 52.6146,116.57745 52.690517,116.535706 C52.76011,116.49744 52.80989,116.42418 52.88495,116.39846 C52.984818,116.364235 53.121277,116.47714 53.174835,116.34875 C53.24538,116.17966 53.195602,115.72258 53.2312,115.52568 C53.339188,114.928444 53.55401,114.348495 53.60511,113.74373 C53.736954,112.183365 53.72464,110.61417 53.778458,109.049164 C53.815323,107.97718 53.876003,106.90544 53.877144,105.832825 C53.87755,105.454865 53.44912,104.07619 53.43795,104.030655 C53.416,103.94119 53.41249,103.84785 53.40934,103.75578 C53.40668,103.678246 53.406006,103.462776 53.50475,103.62065 C53.573135,103.72998 53.634613,103.84349 53.699547,103.95491 L53.699547,103.95491" /><path fill="none" stroke="#000000" stroke-width="0.06mm" d="M53.762527,105.74434 C53.78295,105.31078 53.803375,104.87723 53.8238,104.44368 C53.838806,104.37897 53.8466,104.31215 53.868813,104.24954 C53.932915,104.068886 54.03285,103.90074 54.082176,103.71551 C55.28224,99.208984 54.45034,102.46336 54.74028,100.68434 C54.747826,100.63806 54.76181,100.59192 54.784134,100.55069 C55.00966,100.13413 55.264954,99.73385 55.482647,99.31314 C55.62571,99.03667 55.71779,98.73537 55.865326,98.46124 C55.964386,98.27719 56.105804,98.119194 56.219616,97.94388 C56.31149,97.80235 56.261787,97.751 56.318962,97.83676 L56.318962,97.83676" /><path fill="none" stroke="#000000" stroke-width="0.06mm" d="M56.428947,97.74759 C56.71082,97.74495 56.9927,97.742325 57.274574,97.73969 C57.39966,97.74797 57.524494,97.766716 57.649837,97.76453 C58.056984,97.75743 58.463364,97.69791 58.870335,97.71185 C59.214634,97.723656 59.55295,97.80656 59.895676,97.84148 C60.16682,97.869095 60.4406,97.867386 60.71126,97.899414 C60.89758,97.92146 60.996906,97.998474 61.169815,97.982056 C61.79439,97.92275 61.194016,97.947556 61.760246,97.88295 C62.10752,97.84332 62.023502,97.78615 62.154167,97.920006 L62.154167,97.920006" /><path fill="none" stroke="#000000" stroke-width="0.06mm" d="M62.154167,94.872925 C62.183342,94.80698 62.189754,94.72511 62.241688,94.67508 C62.266235,94.651436 62.254536,94.74249 62.254185,94.77657 C62.244846,95.677505 62.237934,96.57858 62.212624,97.47922 C62.191715,98.22302 62.14642,97.70173 62.174973,97.99135 L62.174973,97.99135" /><path fill="none" stroke="#000000" stroke-width="0.06mm" d="M41.099266,120.9441 C41.07448,120.85873 41.044617,120.77466 41.0249,120.68797 C41.012516,120.633545 41.016956,120.54524 41.030956,120.49124 C41.11267,120.17609 41.218876,119.86706 41.287403,119.54877 C41.444893,118.81729 41.51606,118.066956 41.70858,117.3439 C42.12706,115.77223 42.692017,113.852936 43.511127,112.35376 C43.78765,111.84766 44.14888,111.39221 44.44629,110.89809 C44.650414,110.55895 44.8065,110.19212 45.014786,109.85553 C45.642548,108.841034 45.897724,108.67489 46.732105,107.70073 C47.46215,106.84839 48.134758,105.94484 48.908882,105.13231 C49.393578,104.62358 49.947968,104.18449 50.498352,103.74766 C50.708557,103.580826 50.960342,103.47404 51.184387,103.32631 C51.22928,103.29671 51.27038,103.259735 51.303078,103.21704 C52.460915,101.705154 51.61651,102.78287 52.71576,100.95509 C52.84575,100.73895 53.035454,100.5614 53.157024,100.34041 C53.398556,99.90136 53.611633,99.44597 53.801147,98.982086 C54.004185,98.48509 54.023575,98.12792 54.13842,97.62244 C54.15893,97.532166 54.197815,97.44661 54.216835,97.35601 C54.230583,97.29051 54.24138,97.2229 54.236286,97.15617 C54.17801,96.39273 54.081398,95.63246 54.026962,94.868744 C54.025616,94.849884 54.05922,94.88846 54.075356,94.89832 C54.106823,94.96814 54.138298,95.03795 54.16977,95.107765 L54.16977,95.107765" /><path fill="none" stroke="#248B00" stroke-width="0.06mm" d="M71.37517,67.866974 C70.44032,68.22269 71.41727,67.809425 70.10297,68.61053 C69.931015,68.71533 69.731636,68.76929 69.558136,68.871506 C69.239456,69.059265 68.94661,69.28851 68.62939,69.47872 C68.55661,69.52236 68.47496,69.55284 68.392,69.570724 C67.93864,69.668434 67.485886,69.782234 67.02405,69.8247 C66.698784,69.85461 66.37096,69.76749 66.04487,69.786545 C65.79416,69.80119 65.14991,69.871506 64.80826,70.03239 C63.845276,70.48582 62.911816,71.74275 62.32071,72.431175 C62.16832,72.60865 62.09404,72.8996 62.128517,73.12922 C62.293186,74.225876 62.020622,73.97238 62.445004,74.28767 L62.445004,74.28767" /><path fill="none" stroke="#000000" stroke-width="0.06mm" d="M61.927994,74.43808 C61.89928,74.63137 61.885994,74.82758 61.841854,75.01794 C61.251827,77.562546 60.62317,80.01792 59.866096,82.52032 C59.727657,82.97791 59.49465,83.40488 59.374027,83.867485 C57.9461,89.343796 61.010372,80.91639 57.171856,90.84308 C57.090473,91.05354 56.792534,91.43703 56.61499,91.585236 C56.240845,91.89757 55.831726,92.16611 55.455147,92.475494 C55.38353,92.53433 55.317314,92.60461 55.2743,92.686714 C53.97737,95.162285 53.41469,94.49695 54.116447,95.26067 L54.116447,95.26067" /><path fill="none" stroke="#000000" stroke-width="0.06mm" d="M66.87248,73.930435 C66.875244,74.076515 66.89044,74.22289 66.88077,74.36868 C66.873665,74.475685 66.849365,74.58127 66.8224,74.685074 C66.559494,75.697205 66.21286,76.68947 66.01137,77.71559 C65.62154,79.70082 65.409256,81.71739 65.05052,83.708466 C64.89156,84.59072 64.629486,85.45189 64.45893,86.33197 C64.38954,86.69004 64.41126,87.06281 64.33151,87.41872 C63.460888,91.30376 64.450584,86.03313 63.39041,89.93517 C63.224552,90.54564 62.733685,94.319824 62.69611,94.56206 C62.684784,94.6351 62.65128,94.703476 62.61888,94.76991 C62.52186,94.96886 62.398758,95.15485 62.30847,95.35693 C62.256855,95.47247 62.227077,95.5968 62.1948,95.71916 C62.187145,95.74821 62.17364,95.7834 62.18921,95.8091 C62.2666,95.93683 62.372272,96.04513 62.463802,96.16314 L62.463802,96.16314" /><path fill="none" stroke="#248B00" stroke-width="0.06mm" d="M66.93021,73.98293 L67.01074,74.05878" /><path fill="none" stroke="#248B00" stroke-width="0.06mm" d="M67.047714,74.06753 C67.11044,73.5425 67.169975,73.51801 67.55532,73.16037 L67.55532,73.16037" /><path fill="none" stroke="#248B00" stroke-width="0.06mm" d="M67.36262,73.5317 L67.32095,73.56523" /><path fill="none" stroke="#248B00" stroke-width="0.06mm" d="M67.47072,73.05226 C67.67247,72.86665 67.873405,72.68016 68.07597,72.49545 C68.25065,72.336174 68.43887,72.24526 68.680145,72.23991 C68.74335,72.2385 68.80672,72.24535 68.86923,72.254845 C69.096634,72.28936 69.31949,72.36163 69.54926,72.371826 C69.86765,72.38595 70.19078,72.38439 70.50434,72.32734 C71.39387,72.16548 72.25577,71.868095 73.14722,71.717155 C73.554054,71.64826 73.97374,71.712494 74.38422,71.67038 C74.6564,71.64245 74.91853,71.55054 75.18876,71.507675 C75.3971,71.474625 75.754395,71.52363 75.96484,71.366745 C76.602684,70.89125 75.88479,69.40454 76.76525,69.041046 C76.86984,68.99787 76.97627,68.95584 77.08715,68.93329 C77.99783,68.74811 78.90889,68.5613 79.82716,68.41843 C80.10564,68.37511 80.60065,68.47094 80.873924,68.46984 C81.21283,68.468475 81.3013,68.42592 81.59448,68.3425 L81.59448,68.3425" /><path fill="none" stroke="#248B00" stroke-width="0.06mm" d="M70.74198,67.94298 C72.88328,67.285614 70.6591,67.908325 73.99135,67.30945 C74.6032,67.199486 75.2064,67.04525 75.810425,66.898224 C75.93727,66.86735 76.08577,66.809525 76.145775,66.68276 C76.16908,66.63352 76.1828,66.56679 76.18159,66.514404 C76.174194,66.19407 76.10466,65.87203 76.143005,65.55391 C76.340256,63.91755 76.70657,62.303864 76.88663,60.665512 C76.96137,59.985428 76.9115,59.29722 76.90582,58.61306 C76.905205,58.53926 76.90749,58.45713 76.86775,58.394936 C76.81976,58.319817 76.72884,58.283195 76.65939,58.227325 L76.65939,58.227325" /><path fill="none" stroke="#248B00" stroke-width="0.06mm" d="M86.28035,46.549614 C85.85486,46.972908 85.38904,47.35919 85.003876,47.819473 C83.40321,49.73233 83.942215,49.17299 83.131714,50.73902 C83.0638,50.87023 82.902885,50.963196 82.88489,51.118523 C82.871216,51.23651 82.925316,51.330086 82.96739,51.436493 C83.080185,51.721718 83.220245,51.997993 83.30221,52.29355 C83.54135,53.155952 83.746124,54.02813 83.929016,54.904182 C83.972084,55.11051 83.97597,55.3238 83.978836,55.53457 C83.98073,55.674454 83.81482,56.167732 84.1385,56.02391 C84.19542,55.99861 84.25211,55.97178 84.30443,55.937965 C84.35857,55.90297 84.413055,55.86609 84.45642,55.818405 C86.407715,53.6728 84.7491,55.12893 88.3526,52.265778 C88.73389,51.962822 89.15686,51.715782 89.54567,51.42256 C89.76672,51.25586 89.935234,51.027084 89.95874,50.747124 C90.00541,50.1911 89.36951,49.176964 89.27961,49.012955 C89.031906,48.560997 88.48549,47.892807 88.07785,47.56785 C86.67233,46.447426 86.97888,47.211296 86.73157,46.48381 L86.73157,46.48381" /><path fill="none" stroke="#248B00" stroke-width="0.06mm" d="M86.70336,46.530807 C86.34088,46.383827 86.55473,46.428642 86.05005,46.47911 L86.05005,46.47911" /><path fill="none" stroke="#248B00" stroke-width="0.06mm" d="M76.65927,58.88336 C76.125305,54.57527 76.26402,56.067207 76.44923,47.513733 C76.48372,45.92047 76.580864,45.685516 76.89897,44.692978 L76.89897,44.692978" /><path fill="none" stroke="#248B00" stroke-width="0.06mm" d="M81.190155,68.429794 C83.4289,67.51019 81.454895,68.292595 87.41339,67.04451 C87.52797,67.02051 87.62082,67.00141 87.710434,66.92167 C88.035934,66.632 88.00012,65.88881 88.05197,65.60194 C88.0871,65.407555 88.1576,65.22067 88.19246,65.02623 C88.4393,63.649063 88.014336,64.78491 88.74469,62.663086 C89.51425,60.427376 89.82209,60.41378 90.31615,58.027115 C90.485565,56.88143 90.65499,55.73575 90.82441,54.590073 C90.84733,54.130814 90.81389,53.665245 90.89316,53.212296 C92.339775,44.946815 91.12588,54.793648 91.813126,46.90132 C91.840515,46.586815 92.07759,45.818085 91.9853,45.405846 C91.05137,41.234222 91.36518,43.702026 91.17784,42.12658 L91.17784,42.12658" /><path fill="none" stroke="#B137AF" stroke-width="0.06mm" d="M76.81752,44.63598 C78.30476,40.11551 76.92157,44.80606 78.068634,38.370605 C78.16342,37.838875 78.39078,37.33953 78.55185,36.823982 L78.55185,36.823982" /><path fill="none" stroke="#B137AF" stroke-width="0.06mm" d="M91.25148,42.72763 C91.302864,41.28179 91.28584,39.8319 91.40561,38.390114 C91.73712,34.39943 91.950226,36.55739 91.8343,35.43737 L91.8343,35.43737" /></g>
<g>
<line fill="none" stroke="#5674b9" stroke-width="0.04mm" stroke-dasharray="0.4,0.2" x1="26.00" y1="148.00" x2="19.67" y2="147.92" />
<line fill="none" stroke="#5674b9" stroke-width="0.04mm" stroke-dasharray="0.4,0.2" x1="26.00" y1="148.00" x2="27.56" y2="159.89" />
<line fill="none" stroke="#00aeef" stroke-width="0.04mm" stroke-dasharray="0.4,0.2" x1="26.00" y1="148.00" x2="27.01" y2="147.96" />
<line fill="none" stroke="#00aeef" stroke-width="0.04mm" stroke-dasharray="0.4,0.2" x1="26.00" y1="148.00" x2="24.32" y2="148.05" />
<line fill="none" stroke="#111111" stroke-width="0.04mm" x1="26.00" y1="148.00" x2="33.94" y2="140.72" />
<line fill="none" stroke="#5674b9" stroke-width="0.04mm" stroke-dasharray="0.4,0.2" x1="33.94" y1="140.72" x2="36.09" y2="139.80" />
<line fill="none" stroke="#5674b9" stroke-width="0.04mm" stroke-dasharray="0.4,0.2" x1="33.94" y1="140.72" x2="35.65" y2="123.76" />
<line fill="none" stroke="#111111" stroke-width="0.04mm" x1="33.94" y1="140.72" x2="39.11" y2="128.77" />
<line fill="none" stroke="#00aeef" stroke-width="0.04mm" stroke-dasharray="0.4,0.2" x1="39.11" y1="128.77" x2="44.34" y2="128.58" />
<line fill="none" stroke="#00aeef" stroke-width="0.04mm" stroke-dasharray="0.4,0.2" x1="39.11" y1="128.77" x2="43.69" y2="128.49" />
<line fill="none" stroke="#00aeef" stroke-width="0.04mm" stroke-dasharray="0.4,0.2" x1="39.11" y1="128.77" x2="43.69" y2="128.42" />
<line fill="none" stroke="#111111" stroke-width="0.04mm" x1="39.11" y1="128.77" x2="46.00" y2="123.14" />
<line fill="none" stroke="#00aeef" stroke-width="0.04mm" stroke-dasharray="0.4,0.2" x1="46.00" y1="123.14" x2="48.31" y2="118.77" />
<line fill="none" stroke="#111111" stroke-width="0.04mm" x1="46.00" y1="123.14" x2="48.07" y2="115.29" />
<line fill="none" stroke="#5674b9" stroke-width="0.04mm" stroke-dasharray="0.4,0.2" x1="48.07" y1="115.29" x2="50.94" y2="115.25" />
<line fill="none" stroke="#5674b9" stroke-width="0.04mm" stroke-dasharray="0.4,0.2" x1="48.07" y1="115.29" x2="46.98" y2="115.47" />
<line fill="none" stroke="#5674b9" stroke-width="0.04mm" stroke-dasharray="0.4,0.2" x1="48.07" y1="115.29" x2="49.03" y2="115.47" />
<line fill="none" stroke="#111111" stroke-width="0.04mm" x1="48.07" y1="115.29" x2="52.14" y2="104.23" />
<line fill="none" stroke="#111111" stroke-width="0.04mm" x1="52.14" y1="104.23" x2="54.80" y2="96.43" />
<line fill="none" stroke="#5674b9" stroke-width="0.04mm" stroke-dasharray="0.4,0.2" x1="54.80" y1="96.43" x2="60.82" y2="95.81" />
<line fill="none" stroke="#5674b9" stroke-width="0.04mm" stroke-dasharray="0.4,0.2" x1="54.80" y1="96.43" x2="57.32" y2="96.00" />
<line fill="none" stroke="#00aeef" stroke-width="0.04mm" stroke-dasharray="0.4,0.2" x1="54.80" y1="96.43" x2="58.96" y2="95.99" />
<line fill="none" stroke="#00aeef" stroke-width="0.04mm" stroke-dasharray="0.4,0.2" x1="54.80" y1="96.43" x2="56.95" y2="96.15" />
<line fill="none" stroke="#111111" stroke-width="0.04mm" x1="54.80" y1="96.43" x2="61.13" y2="95.78" />
<line fill="none" stroke="#111111" stroke-width="0.04mm" x1="61.13" y1="95.78" x2="62.61" y2="74.27" />
<line fill="none" stroke="#00aeef" stroke-width="0.04mm" stroke-dasharray="0.4,0.2" x1="62.61" y1="74.27" x2="64.50" y2="71.10" />
<line fill="none" stroke="#111111" stroke-width="0.04mm" x1="62.61" y1="74.27" x2="64.61" y2="71.03" />
<line fill="none" stroke="#00aeef" stroke-width="0.04mm" stroke-dasharray="0.4,0.2" x1="64.61" y1="71.03" x2="65.87" y2="71.74" />
<line fill="none" stroke="#111111" stroke-width="0.04mm" x1="64.61" y1="71.03" x2="66.19" y2="71.29" />
<line fill="none" stroke="#111111" stroke-width="0.04mm" x1="66.19" y1="71.29" x2="71.34" y2="69.43" />
<line fill="none" stroke="#00aeef" stroke-width="0.04mm" stroke-dasharray="0.4,0.2" x1="71.34" y1="69.43" x2="70.83" y2="69.42" />
<line fill="none" stroke="#00aeef" stroke-width="0.04mm" stroke-dasharray="0.4,0.2" x1="71.34" y1="69.43" x2="70.85" y2="69.47" />
<line fill="none" stroke="#00aeef" stroke-width="0.04mm" stroke-dasharray="0.4,0.2" x1="71.34" y1="69.43" x2="71.82" y2="69.51" />
<line fill="none" stroke="#111111" stroke-width="0.04mm" x1="71.34" y1="69.43" x2="80.67" y2="66.23" />
<line fill="none" stroke="#00aeef" stroke-width="0.04mm" stroke-dasharray="0.4,0.2" x1="80.67" y1="66.23" x2="75.73" y2="67.48" />
<line fill="none" stroke="#5674b9" stroke-width="0.04mm" stroke-dasharray="0.4,0.2" x1="80.67" y1="66.23" x2="75.88" y2="66.96" />
<line fill="none" stroke="#5674b9" stroke-width="0.04mm" stroke-dasharray="0.4,0.2" x1="80.67" y1="66.23" x2="78.81" y2="66.20" />
<line fill="none" stroke="#5674b9" stroke-width="0.04mm" stroke-dasharray="0.4,0.2" x1="80.67" y1="66.23" x2="82.77" y2="65.87" />
<line fill="none" stroke="#5674b9" stroke-width="0.04mm" stroke-dasharray="0.4,0.2" x1="80.67" y1="66.23" x2="82.64" y2="65.96" />
<line fill="none" stroke="#5674b9" stroke-width="0.04mm" stroke-dasharray="0.4,0.2" x1="80.67" y1="66.23" x2="82.30" y2="62.77" />
<line fill="none" stroke="#5674b9" stroke-width="0.04mm" stroke-dasharray="0.4,0.2" x1="80.67" y1="66.23" x2="80.40" y2="44.84" />
<line fill="none" stroke="#5674b9" stroke-width="0.04mm" stroke-dasharray="0.4,0.2" x1="80.67" y1="66.23" x2="80.41" y2="44.86" />
<line fill="none" stroke="#5674b9" stroke-width="0.04mm" stroke-dasharray="0.4,0.2" x1="80.67" y1="66.23" x2="80.45" y2="40.90" />
<line fill="none" stroke="#5674b9" stroke-width="0.04mm" stroke-dasharray="0.4,0.2" x1="80.67" y1="66.23" x2="82.94" y2="55.87" />
<line fill="none" stroke="#5674b9" stroke-width="0.04mm" stroke-dasharray="0.4,0.2" x1="80.67" y1="66.23" x2="87.18" y2="64.74" />
<line fill="none" stroke="#5674b9" stroke-width="0.04mm" stroke-dasharray="0.4,0.2" x1="80.67" y1="66.23" x2="85.32" y2="64.07" />
<line fill="none" stroke="#111111" stroke-width="0.04mm" x1="80.67" y1="66.23" x2="84.86" y2="44.81" />
<line fill="none" stroke="#00aeef" stroke-width="0.04mm" stroke-dasharray="0.4,0.2" x1="84.86" y1="44.81" x2="88.09" y2="43.90" />
<line fill="none" stroke="#00aeef" stroke-width="0.04mm" stroke-dasharray="0.4,0.2" x1="84.86" y1="44.81" x2="89.89" y2="43.91" />
<line fill="none" stroke="#00aeef" stroke-width="0.04mm" stroke-dasharray="0.4,0.2" x1="84.86" y1="44.81" x2="86.91" y2="44.54" />
<line fill="none" stroke="#5674b9" stroke-width="0.04mm" stroke-dasharray="0.4,0.2" x1="84.86" y1="44.81" x2="86.51" y2="44.57" />
<line fill="none" stroke="#5674b9" stroke-width="0.04mm" stroke-dasharray="0.4,0.2" x1="84.86" y1="44.81" x2="84.42" y2="44.52" />
<line fill="none" stroke="#00aeef" stroke-width="0.04mm" stroke-dasharray="0.4,0.2" x1="84.86" y1="44.81" x2="83.82" y2="44.71" />
<line fill="none" stroke="#111111" stroke-width="0.04mm" x1="84.86" y1="44.81" x2="86.58" y2="42.64" />
<line fill="none" stroke="#111111" stroke-width="0.04mm" x1="86.58" y1="42.64" x2="89.37" y2="36.43" />
<line fill="none" stroke="#00aeef" stroke-width="0.04mm" stroke-dasharray="0.4,0.2" x1="89.37" y1="36.43" x2="94.42" y2="27.56" />
<line fill="none" stroke="#111111" stroke-width="0.04mm" x1="89.37" y1="36.43" x2="95.32" y2="26.57" />
<line fill="none" stroke="#5674b9" stroke-width="0.04mm" stroke-dasharray="0.4,0.2" x1="95.32" y1="26.57" x2="102.82" y2="19.61" />
</g>
<g>
<circle cx="26.00" cy="148.00" r="0.1" fill="#111111" />
<circle cx="33.94" cy="140.72" r="0.1" fill="#111111" />
<circle cx="39.11" cy="128.77" r="0.1" fill="#111111" />
<circle cx="46.00" cy="123.14" r="0.1" fill="#111111" />
<circle cx="48.07" cy="115.29" r="0.1" fill="#111111" />
<circle cx="52.14" cy="104.23" r="0.1" fill="#111111" />
<circle cx="54.80" cy="96.43" r="0.1" fill="#111111" />
<circle cx="61.13" cy="95.78" r="0.1" fill="#111111" />
<circle cx="62.61" cy="74.27" r="0.1" fill="#111111" />
<circle cx="64.61" cy="71.03" r="0.1" fill="#111111" />
<circle cx="66.19" cy="71.29" r="0.1" fill="#111111" />
<circle cx="71.34" cy="69.43" r="0.1" fill="#111111" />
<circle cx="80.67" cy="66.23" r="0.1" fill="#111111" />
<circle cx="84.86" cy="44.81" r="0.1" fill="#111111" />
<circle cx="86.58" cy="42.64" r="0.1" fill="#111111" />
<circle cx="89.37" cy="36.43" r="0.1" fill="#111111" />
<circle cx="95.32" cy="26.57" r="0.1" fill="#111111" />
</g>
<g>
<text x="26.20" y="148.00" font-size=".2mm" fill="#000000">0</text>
<text x="34.14" y="140.72" font-size=".2mm" fill="#000000">1</text>
<text x="39.31" y="128.77" font-size=".2mm" fill="#000000">2</text>
<text x="46.20" y="123.14" font-size=".2mm" fill="#000000">3</text>
<text x="48.27" y="115.29" font-size=".2mm" fill="#000000">4</text>
<text x="52.34" y="104.23" font-size=".2mm" fill="#000000">5</text>
<text x="55.00" y="96.43" font-size=".2mm" fill="#000000">6</text>
<text x="61.33" y="95.78" font-size=".2mm" fill="#000000">7</text>
<text x="62.81" y="74.27" font-size=".2mm" fill="#000000">8</text>
<text x="64.81" y="71.03" font-size=".2mm" fill="#000000">9</text>
<text x="66.39" y="71.29" font-size=".2mm" fill="#000000">10</text>
<text x="71.54" y="69.43" font-size=".2mm" fill="#000000">11</text>
<text x="80.87" y="66.23" font-size=".2mm" fill="#000000">12</text>
<text x="85.06" y="44.81" font-size=".2mm" fill="#000000">13</text>
<text x="86.78" y="42.64" font-size=".2mm" fill="#000000">14</text>
<text x="89.57" y="36.43" font-size=".2mm" fill="#000000">15</text>
<text x="95.52" y="26.57" font-size=".2mm" fill="#000000">16</text>
</g>
<g>
</g>
</g>
</svg>