<?xml version="1.0" encoding="utf-8"?>
<!DOCTYPE svg PUBLIC "-//W3C//DTD SVG 1.1//EN" "http://www.w3.org/Graphics/SVG/1.1/DTD/svg11.dtd">
<svg version="1.1" id="Layer_1" xmlns="http://www.w3.org/2000/svg" xmlns:xlink="http://www.w3.org/1999/xlink" x="0px" y="0px" width="91mm" height="82mm" viewBox="0 0 91 82" enable-background="new 0 0 91 82" xml:space="preserve">
<symbol id="airflow" viewBox="-12 -12 24 24">
<path d="M-4.38,10.73l4.2-3.84V3.55L-4.07,7.13l-.31-.29L-.18,3V-6.89a3.37,3.37,0,0,0-1.68.53l1.68-4.15L0-11l.21.51h0v0l1.65,4.1A3.26,3.26,0,0,0,.24-6.89v14l-.08,0L-4.07,11Z"/>
<rect fill="none" x="-12" y="-12" width="24" height="24"/>
</symbol>
<symbol id="anastomosis" viewBox="-12 -12 24 24">
<path d="M2.23-4.78l.37.24L5.22-2.78l-.47.57L2.49-3.7l-4.61,8-.24.44-.37-.34L-5.22,2.3l.55-.52,2.1,1.82L2-4.39Z"/>
<rect fill="none" x="-12" y="-12" width="24" height="24"/>
</symbol>
<symbol id="bivouac" viewBox="-12 -12 24 24">
<path d="M.25-7.66l.24.58L.54-7l3.88.48-3.31.91L6,6H8.35v.48l-16.7.07V6.05h2.64L0-7.08Zm0,1.32L-5.13,6H-4l2.07-5L.2-4l2.09,5L4.37,6H5.44Z"/>
<rect fill="none" x="-12" y="-12" width="24" height="24"/>
</symbol>
<symbol id="bones" viewBox="-12 -12 24 24">
<path d="M2.44,4.27l-.16,0H2.13a.22.22,0,0,1-.11,0l-.1-.06a.39.39,0,0,1-.09-.11l-.08-.13a1.51,1.51,0,0,1-.06-.15l-.07-.17s0-.11-.08-.19-.06-.16-.08-.21a4.75,4.75,0,0,0-.38-.71c-.18-.29-.43-.64-.74-1A11.15,11.15,0,0,0-.7.32,6.73,6.73,0,0,0-2-.64a4.12,4.12,0,0,0-1.44-.52A1.64,1.64,0,0,1-5-2.19.72.72,0,0,1-5-2.44a1,1,0,0,1,0-.29A.52.52,0,0,1-4.87-3a.54.54,0,0,1,.35-.15L-4-3.22l.46,0a.54.54,0,0,0,.27-.06A.52.52,0,0,0-3-3.56a.74.74,0,0,0,.13-.31.54.54,0,0,1,.15-.26.54.54,0,0,1,.3-.15.83.83,0,0,1,.47,0,1.11,1.11,0,0,1,.35.4A7.46,7.46,0,0,1-1-2.76q.18.42.33.72a3.22,3.22,0,0,0,.39.57L.1-1a4.77,4.77,0,0,0,.58.43c.28.18.51.33.69.43l1,.56a1.84,1.84,0,0,0,.39.23A5.29,5.29,0,0,1,3.22.9l.43.26a3.7,3.7,0,0,1,.46.3l.36.29a2.28,2.28,0,0,1,.31.32A1,1,0,0,1,5,2.4c.2.48,0,.78-.47.91h0a8.48,8.48,0,0,0-1.12.09,1,1,0,0,0-.42.44A1,1,0,0,1,2.44,4.27Z"/>
<rect fill="none" x="-12" y="-12" width="24" height="24"/>
</symbol>
<symbol id="calcite" viewBox="-12 -12 24 24">
<path d="M2.36-2.22l.05.46.34,3.91L2,2.22,1.65-1.26-2.52-.06l-.23-.7L1.89-2.08Z"/>
<rect fill="none" x="-12" y="-12" width="24" height="24"/>
</symbol>
<symbol id="cauliflower" viewBox="-12 -12 24 24">
<path d="M5.58,3.22v-3A2.12,2.12,0,0,0,6.92-.43a1.78,1.78,0,0,0,.55-1.32,1.92,1.92,0,0,0-.65-1.42,2.19,2.19,0,0,0-1.53-.59,2.21,2.21,0,0,0-1.54.59,1.78,1.78,0,0,0-.64,1.42A1.86,1.86,0,0,0,3.65-.43,2.12,2.12,0,0,0,5,.23v3H.26v-3A2.17,2.17,0,0,0,1.61-.43a1.81,1.81,0,0,0,.54-1.32,1.91,1.91,0,0,0-.64-1.42A2.21,2.21,0,0,0,0-3.76a2.21,2.21,0,0,0-1.54.59,1.82,1.82,0,0,0-.64,1.42A1.83,1.83,0,0,0-1.66-.43,2.12,2.12,0,0,0-.32.23v3H-5v-3A2.12,2.12,0,0,0-3.71-.43a1.78,1.78,0,0,0,.55-1.32,1.92,1.92,0,0,0-.65-1.42,2.19,2.19,0,0,0-1.53-.59,2.21,2.21,0,0,0-1.54.59,1.83,1.83,0,0,0-.65,1.42A1.87,1.87,0,0,0-7-.43,2.12,2.12,0,0,0-5.64.23v3H-8v.54H8V3.22Z"/>
<rect fill="none" x="-12" y="-12" width="24" height="24"/>
</symbol>
<symbol id="clay" viewBox="-12 -12 24 24">
<path d="M1.85-1.33a3,3,0,0,1,1.67.48,3.23,3.23,0,0,1,1,1l.29.51-1,.43a3.81,3.81,0,0,0-.23-.4A3.74,3.74,0,0,0,2.93,0,1.77,1.77,0,0,0,1.85-.32a2.57,2.57,0,0,0-1.1.15A.86.86,0,0,0,.51.14,2.23,2.23,0,0,1,0,.88a2.55,2.55,0,0,1-1.45.43,3.16,3.16,0,0,1-2.75-1,4.28,4.28,0,0,1-.37-.57,3.91,3.91,0,0,1-.21-.47l0-.16,1-.22a1.87,1.87,0,0,0,.45.79A2.12,2.12,0,0,0-1.51.33,1.82,1.82,0,0,0-.69.14l.21-.36A1.53,1.53,0,0,1,.17-1,3.76,3.76,0,0,1,1.85-1.33Z"/>
<rect fill="none" x="-12" y="-12" width="24" height="24"/>
</symbol>
<symbol id="crystals" viewBox="-12 -12 24 24">
<path d="M-2.94-5.38,0-.72,2.94-5.38,3.62-5,.68-.36H6.56V.36H.68L3.62,5l-.68.36L0,.72-2.94,5.38-3.62,5-.68.36H-6.56V-.36H-.68L-3.62-5Z"/>
<rect fill="none" x="-12" y="-12" width="24" height="24"/>
</symbol>
<symbol id="curtain" viewBox="-12 -12 24 24">
<path d="M3.57-6.69l.52.53L.39-3V-.33L.1-.26a3.79,3.79,0,0,0-1,.41c-.58.3-.87.65-.87,1v.07A1.61,1.61,0,0,0-.84,2.48a3.69,3.69,0,0,0,.45.24L0,2.86l.13.05L.39,3V6.12H-.39V3.51a7.65,7.65,0,0,1-.9-.46A2.19,2.19,0,0,1-2.54,1.28V1.23A2,2,0,0,1-1.31-.48,5.32,5.32,0,0,1-.39-.86V-3l-3.7-3.14.52-.53L0-3.67Z"/>
<rect fill="none" x="-12" y="-12" width="24" height="24"/>
</symbol>
<symbol id="disk" viewBox="-12 -12 24 24">
<path d="M-.09-4.19a2.43,2.43,0,0,1,1.7.64A2,2,0,0,1,2.35-2,2.09,2.09,0,0,1,1.81-.55,2.44,2.44,0,0,1,.35.23l2.18,3.6-.68.33L0,1.14-1.48,4.19l-.71-.29L-.41.25A2.53,2.53,0,0,1-1.9-.47a2,2,0,0,1-.63-1.41,2,2,0,0,1,.67-1.61,2.46,2.46,0,0,1,1.72-.7ZM1.05-3.06.56-3.49l-.69,0A1.72,1.72,0,0,0-1.29-3a1.51,1.51,0,0,0-.45,1.08,1.36,1.36,0,0,0,.51,1A1.68,1.68,0,0,0-.07-.44v0l0,0A1.7,1.7,0,0,0,1.11-.92,1.36,1.36,0,0,0,1.56-2,1.47,1.47,0,0,0,1.05-3.06Z"/>
<rect fill="none" x="-12" y="-12" width="24" height="24"/>
</symbol>
<symbol id="entrance" viewBox="-12 -12 24 24">
<path d="M4.46,9H-4.46L0-9Z"/>
<rect fill="none" x="-12" y="-12" width="24" height="24"/>
</symbol>
<symbol id="flowstone" viewBox="-12 -12 24 24">
<rect x="-6" y="-0.21" width="12" height="0.42"/>
<rect fill="none" x="-12" y="-12" width="24" height="24"/>
</symbol>
<symbol id="flutes" viewBox="-12 -12 24 24">
<path d="M-7-1H7v.72H3.87A4.7,4.7,0,0,1,2.16,1.5,4.2,4.2,0,0,1,0,2.13,3.94,3.94,0,0,1-2.19,1.5,4.18,4.18,0,0,1-3.76-.27H-7Zm4.17.72A3.15,3.15,0,0,0-1.65,1,3.21,3.21,0,0,0,0,1.41,3.49,3.49,0,0,0,1.6,1,3.68,3.68,0,0,0,3-.27Z"/>
<rect fill="none" x="-12" y="-12" width="24" height="24"/>
</symbol>
<symbol id="gradient" viewBox="-12 -12 24 24">
<path d="M2.58-3.83,0-10-2.58-3.83A4.74,4.74,0,0,1-.17-4.5V10H.25V-4.5A6.65,6.65,0,0,1,2.58-3.83Z"/>
<rect fill="none" x="-12" y="-12" width="24" height="24"/>
</symbol>
<symbol id="guano" viewBox="-12 -12 24 24">
<path d="M-3.24-3a2.15,2.15,0,0,1,1.57.55A3.93,3.93,0,0,1-.59.24a4.32,4.32,0,0,1,2.75-2.3,2.68,2.68,0,0,1,2.23.36A2.36,2.36,0,0,1,5.5.19l-.79,0a1.72,1.72,0,0,0-.79-1.37,1.94,1.94,0,0,0-1.55-.24A3.53,3.53,0,0,0,.48,0,6.63,6.63,0,0,0-.69,3l-.79-.09a10.72,10.72,0,0,0,0-3.16A3.21,3.21,0,0,0-2.22-2,1.44,1.44,0,0,0-3.37-2.3,3.45,3.45,0,0,0-5-1.54l-.5-.55a4.29,4.29,0,0,1,2-.91A.9.9,0,0,1-3.24-3Z"/>
<rect fill="none" x="-12" y="-12" width="24" height="24"/>
</symbol>
<symbol id="helictites" viewBox="-12 -12 24 24">
<path d="M-4.59-7.92h.79v7.7l3.41,0V-7.92H.39V-.17L4.2-.12h.39v8H3.8V.6L.39.55V7.92H-.39V.55L-4.2.5l-.39,0v-8.4Z"/>
<rect fill="none" x="-12" y="-12" width="24" height="24"/>
</symbol>
<symbol id="human" viewBox="-12 -12 24 24">
<path d="M-3.59-3.29A5.13,5.13,0,0,1,0-4.66,5.13,5.13,0,0,1,3.59-3.29,4.3,4.3,0,0,1,5.09,0a4.3,4.3,0,0,1-1.5,3.29A5.13,5.13,0,0,1,0,4.66,5.13,5.13,0,0,1-3.59,3.29,4.3,4.3,0,0,1-5.09,0,4.3,4.3,0,0,1-3.59-3.29Zm.28.77A3.68,3.68,0,0,0-4.3,0a3.62,3.62,0,0,0,1,2.57L-.5.05ZM0-3.94A4.42,4.42,0,0,0-2.75-3L.16-.36H4.28A3.62,3.62,0,0,0,2.91-2.9,4.38,4.38,0,0,0,0-3.94ZM.16.46-2.7,3.07A4.42,4.42,0,0,0,0,3.94a4.37,4.37,0,0,0,2.87-1A3.78,3.78,0,0,0,4.28.46Z"/>
<rect fill="none" x="-12" y="-12" width="24" height="24"/>
</symbol>
<symbol id="karren" viewBox="-12 -12 24 24">
<path d="M1-5.84h0a1.37,1.37,0,0,1,1.06.68A3.33,3.33,0,0,1,2.5-3.79,25.79,25.79,0,0,1,2.36,0a18.61,18.61,0,0,0-.08,3.72,2.68,2.68,0,0,0,.41,1.2,1.13,1.13,0,0,0,.79.5A.92.92,0,0,0,4,4.94a4.43,4.43,0,0,0,.47-1.22c.16-.64.36-1.86.59-3.66a26.71,26.71,0,0,1,.64-3.69,4.62,4.62,0,0,1,.57-1.29,1.34,1.34,0,0,1,1-.59h0A1.28,1.28,0,0,1,8.37-5a2.17,2.17,0,0,1,.39,1.15A19.91,19.91,0,0,1,8.54-.53a21.51,21.51,0,0,0-.2,3.64A2.64,2.64,0,0,0,9.45,5.36,1.91,1.91,0,0,0,10.88,5a3.84,3.84,0,0,0,.7-1l.42.2-.1.18-.12.21-.11.18L11.52,5a.94.94,0,0,1-.14.16c-.06.07-.13.12-.19.18a2.5,2.5,0,0,1-1.85.41H9.29l0,0A3.06,3.06,0,0,1,7.87,3.13a22.11,22.11,0,0,1,.2-3.7,18.17,18.17,0,0,0,.22-3.28A1.85,1.85,0,0,0,8-4.79a.77.77,0,0,0-.67-.3.93.93,0,0,0-.64.42,4.51,4.51,0,0,0-.51,1.15A26.26,26.26,0,0,0,5.54.1c-.24,1.83-.45,3.07-.61,3.72a5.38,5.38,0,0,1-.51,1.34,1.33,1.33,0,0,1-.89.68H3.47A1.58,1.58,0,0,1,2.3,5.16a3.29,3.29,0,0,1-.49-1.4A20.27,20.27,0,0,1,1.89,0,23.45,23.45,0,0,0,2-3.75a2.94,2.94,0,0,0-.32-1.19A.93.93,0,0,0,1-5.42,1.1,1.1,0,0,0,.19-5,3.69,3.69,0,0,0-.43-3.76,20.78,20.78,0,0,0-1.07.07c-.2,2-.37,3.32-.49,3.86A4.48,4.48,0,0,1-2,5.26,1.06,1.06,0,0,1-3,5.81h0a1.9,1.9,0,0,1-1.29-.67,2.7,2.7,0,0,1-.58-1.31,14.92,14.92,0,0,1,0-3.6q0-.12.06-.54c0-.28,0-.47,0-.57s0-.28,0-.52,0-.42,0-.55,0-.28,0-.47,0-.36,0-.51,0-.29,0-.43A3.09,3.09,0,0,0-5-4.62a1.19,1.19,0,0,0-.67-.6,1.5,1.5,0,0,0-1.2.9A7,7,0,0,0-7.41-2.1c0,.39-.1,1-.14,1.76s-.11,1.47-.18,2.08A9.61,9.61,0,0,1-8,3.32h0l0,0A2.81,2.81,0,0,1-9.2,4.62a1.82,1.82,0,0,1-1.35.15A1.94,1.94,0,0,1-11.61,4,2.39,2.39,0,0,1-12,2.56l.47,0a1.92,1.92,0,0,0,.31,1.16,1.47,1.47,0,0,0,.81.62,1.3,1.3,0,0,0,1-.11A2.32,2.32,0,0,0-8.5,3.18a7.53,7.53,0,0,0,.29-1.5Q-8.1.8-8-.36c0-.78.1-1.37.16-1.78A7.23,7.23,0,0,1-7.28-4.5,1.93,1.93,0,0,1-5.65-5.66h.05l0,0a1.59,1.59,0,0,1,1,.84,3.47,3.47,0,0,1,.34,1.41,4.91,4.91,0,0,1,0,.57v.54c0,.15,0,.37,0,.66s0,.47,0,.58,0,.33-.06.68,0,.56-.06.63a14.78,14.78,0,0,0,0,3.49,2.58,2.58,0,0,0,.5,1.13,1.57,1.57,0,0,0,1,.5A.61.61,0,0,0-2.44,5,3.89,3.89,0,0,0-2,3.85C-1.9,3.31-1.74,2-1.53,0A20.65,20.65,0,0,1-.86-3.89,3.89,3.89,0,0,1-.18-5.26,1.58,1.58,0,0,1,1-5.84Z"/>
<rect fill="none" x="-12" y="-12" width="24" height="24"/>
</symbol>
<symbol id="moonmilk" viewBox="-12 -12 24 24">
<path d="M-4.78-3.06a3.39,3.39,0,0,1,1.5.34,2.48,2.48,0,0,1,1.1,1,3.74,3.74,0,0,1,1.62-.8,3.52,3.52,0,0,1,1.71,0,2.9,2.9,0,0,1,1.39.77A2.49,2.49,0,0,1,3.25-.37,4,4,0,0,1,5-.76a3.58,3.58,0,0,1,1.6.36A2.84,2.84,0,0,1,7.88.92a2.32,2.32,0,0,1,0,1.88.34.34,0,0,1-.37.26A.36.36,0,0,1,7.25,3a.32.32,0,0,1-.12-.25.21.21,0,0,1,0-.12,2,2,0,0,0,0-1.43,2,2,0,0,0-1-.9A2.81,2.81,0,0,0,4.68,0,2.78,2.78,0,0,0,3.12.56L2.46.25A1.7,1.7,0,0,0,2.15-1.1,2.15,2.15,0,0,0,1-1.81a2.85,2.85,0,0,0-1.58.06A3,3,0,0,0-2-.83l-.71-.12A1.74,1.74,0,0,0-3.55-2a2.36,2.36,0,0,0-1.39-.27,3.08,3.08,0,0,0-1.45.53A2.33,2.33,0,0,0-7.32-.56a.35.35,0,0,1-.37.24A.39.39,0,0,1-8-.42a.33.33,0,0,1-.1-.26v-.1A3,3,0,0,1-6.89-2.35,4,4,0,0,1-5-3Z"/>
<rect fill="none" x="-12" y="-12" width="24" height="24"/>
</symbol>
<symbol id="narrow" viewBox="-12 -12 24 24">
<path d="M-1.5,5V-5h0.64V5H-1.5z"/>
<path d="M0.86,5V-5H1.5V5H0.86z"/>
<rect fill="none" x="-12" y="-12" width="24" height="24"/>
</symbol>
<symbol id="paleoflow" viewBox="-12 -12 24 24">
<path d="M.38-12V.17A1.9,1.9,0,0,0,1,0,1.57,1.57,0,0,0,1.7-.72a1.86,1.86,0,0,0,.23-1c0-.09,0-.14.08-.16a.92.92,0,0,1,.24,0,.52.52,0,0,0,.25,0h.08A2.48,2.48,0,0,1,2,0,2.5,2.5,0,0,1,.38.77V7.21H2.09L0,12-1.8,7.23c.07,0,.59,0,1.53,0V.77A3,3,0,0,1-1.35.43a2.16,2.16,0,0,1-1-1,2.38,2.38,0,0,1-.24-1.33l.67,0a2,2,0,0,0,.15,1,1.73,1.73,0,0,0,.59.67A2.14,2.14,0,0,0-.27.16V-12Z"/>
<rect fill="none" x="-12" y="-12" width="24" height="24"/>
</symbol>
<symbol id="rain" viewBox="-12 -12 24 24">
<path d="M-4.14-6.34h0.71v4.69h-0.71V-6.34z"/>
<path d="M-0.35-6.34h0.71v4.69h-0.71V-6.34z"/>
<path d="M3.43-6.34h0.71v4.69H3.43V-6.34z"/>
<path d="M-4.14,1.65h0.71v4.69h-0.71V1.65z"/>
<path d="M-0.35,1.65h0.71v4.69h-0.71V1.65z"/>
<path d="M3.43,1.65h0.71v4.69H3.43V1.65z"/>
<rect fill="none" x="-12" y="-12" width="24" height="24"/>
</symbol>
<symbol id="rats" viewBox="-12 -12 24 24">
<path d="M8.78-2.32,7-2.27c-.51-.17-.65-.56-1.46-.45l-.25.45C3.59-2.75,2.59-3.66.56-3.62l-1.35.3A4.89,4.89,0,0,0-4.24,1.57c-.68.6-2.58.86-3.39.94a6.84,6.84,0,0,0-1.62.39,4.91,4.91,0,0,0-1,.52A1.75,1.75,0,0,0-11,4.61a1.16,1.16,0,0,0,.59,1.48,1.3,1.3,0,0,1,.14.12c.16-.52-.35-.92-.2-1.42a3.35,3.35,0,0,1,.27-.45,3.18,3.18,0,0,1,1.79-1c.63-.12,1.27-.22,1.91-.3.48-.07,1,0,1.4-.12A6.94,6.94,0,0,1-4,2.82,30.64,30.64,0,0,0,.41,2.69l2.16.15c.1-.09,0,0,.1-.15a.87.87,0,0,0-.9-.55c.86-1,2.27-.37,3.1-.05.5.19,1,0,1.25.4.11-.1.1-.07.15-.25.3,0,.31.07.6.15-.06-.49-.34-.64-1-.6a.78.78,0,0,1,0-.55C6.3.56,7.29.73,8.13.43a13.78,13.78,0,0,0,2.15-.9l.6-.85v-.2A16.9,16.9,0,0,0,8.78-2.32Z"/>
<rect fill="none" x="-12" y="-12" width="24" height="24"/>
</symbol>
<symbol id="sand" viewBox="-12 -12 24 24">
<path d="M-1.58,0.83c0.23,0.2,0.35,0.44,0.36,0.73c0.01,0.29-0.08,0.54-0.28,0.75c-0.2,0.21-0.46,0.32-0.78,0.33c-0.32,0.01-0.6-0.08-0.83-0.26C-3.36,2.19-3.49,1.95-3.5,1.67C-3.51,1.38-3.41,1.12-3.2,0.9c0.21-0.22,0.48-0.34,0.8-0.35C-2.08,0.54-1.81,0.64-1.58,0.83z"/>
<path d="M0.08-2.36c0.23,0.2,0.35,0.44,0.36,0.73c0.01,0.29-0.08,0.54-0.28,0.75c-0.2,0.21-0.46,0.32-0.78,0.33c-0.32,0.01-0.59-0.07-0.83-0.26s-0.37-0.42-0.38-0.71c-0.01-0.29,0.09-0.54,0.3-0.76c0.21-0.22,0.48-0.33,0.8-0.35C-0.42-2.65-0.14-2.56,0.08-2.36z"/>
<path d="M3.12,0.55c0.23,0.2,0.35,0.43,0.38,0.71c0.02,0.28-0.07,0.53-0.28,0.75C3,2.23,2.73,2.35,2.42,2.36C2.1,2.37,1.82,2.28,1.58,2.08C1.34,1.88,1.22,1.64,1.2,1.35c-0.01-0.29,0.09-0.54,0.3-0.75C1.72,0.4,1.99,0.29,2.3,0.28S2.89,0.36,3.12,0.55z"/>
<rect fill="none" x="-12" y="-12" width="24" height="24"/>
</symbol>
<symbol  id="scallops" viewBox="-12 -12 24 24">
<path d="M.05-3.74l.21,0A2.35,2.35,0,0,1,1.74-3a2,2,0,0,1,.59,1.55v0l0,0A9.59,9.59,0,0,1-.08,3.27l-.39.47-.27-.55A14.26,14.26,0,0,1-2.33-1.89v-.05l0-.05A2,2,0,0,1-1.44-3.3,2.42,2.42,0,0,1,.05-3.74ZM-.11-3A1.44,1.44,0,0,0-1.55-1.89,13.06,13.06,0,0,0-.29,2.33,8.6,8.6,0,0,0,1.55-1.54a1.41,1.41,0,0,0-.38-1A1.62,1.62,0,0,0,.18-3Z"/>
<rect fill="none" x="-12" y="-12" width="24" height="24"/>
</symbol>
<symbol  id="sink" viewBox="-12 -12 24 24">
<path d="M.72,9.41H.9c1.94,0,3.26-.54,3.94-1.51a3.61,3.61,0,0,0,.33-.69,2,2,0,0,0,.11-.54V6.46l.69,0a2.8,2.8,0,0,1-.58,1.78C4.58,9.39,3.1,10,.93,10H-.93q-3.25,0-4.46-1.8a2.74,2.74,0,0,1-.43-.83A2.37,2.37,0,0,1-6,6.67V6.43l.68,0A2.27,2.27,0,0,0-4.84,7.9c.68,1,2,1.47,3.93,1.48l.5,0ZM-1.46-10a.68.68,0,0,0,.16.41A2.77,2.77,0,0,0-.51-9l0,0a3.63,3.63,0,0,1,1,.7,1.15,1.15,0,0,1,.34.88c0,.58-.53,1.14-1.49,1.68-.68.42-1,.79-1,1.11s.3.61.84,1h0Q.61-2.86.46-1.78a3.51,3.51,0,0,1-1.55,2,.61.61,0,0,0-.26.41,1.67,1.67,0,0,0,.1.51,5.3,5.3,0,0,1,.32,1L.56,1.9.46,8.06-3.4,2.54l1.73-.28A6.16,6.16,0,0,0-2,1.39,1.7,1.7,0,0,1-2.09.58a1.21,1.21,0,0,1,.53-.82h0v0C-.75-.86-.33-1.38-.28-1.85s-.23-.87-.91-1.27h0C-2-3.6-2.37-4.1-2.4-4.61S-2-5.74-1.09-6.29C-.34-6.72.06-7.1.09-7.44a.67.67,0,0,0-.18-.43,3.17,3.17,0,0,0-.79-.58,2.93,2.93,0,0,1-1-.67A1.16,1.16,0,0,1-2.17-10Z"/>
<rect fill="none" x="-12" y="-12" width="24" height="24"/>
</symbol>
<symbol  id="spring" viewBox="-12 -12 24 24">
<path d="M-1.34-9.86,2.52-4.34.78-4.06a8,8,0,0,0,.29.87,1.4,1.4,0,0,1,.13.79,1.3,1.3,0,0,1-.52.84l0,0v0C-.13-.95-.55-.42-.61,0S-.37.91.31,1.3l0,0c.75.46,1.14,1,1.18,1.46S1.12,3.92.21,4.46C-.54,4.9-.94,5.29-1,5.64a.74.74,0,0,0,.18.43A3.2,3.2,0,0,0,0,6.62a3,3,0,0,1,1,.7,1.14,1.14,0,0,1,.31.86A1.74,1.74,0,0,1,.71,9.26H.92c1.92,0,3.22-.52,3.9-1.51a2.05,2.05,0,0,0,.35-.67,2.59,2.59,0,0,0,.1-.55l0-.19.65,0a2.84,2.84,0,0,1-.55,1.8C4.58,9.26,3.08,9.85.92,9.86H-.92c-2.17,0-3.66-.6-4.49-1.77a3.65,3.65,0,0,1-.4-.85A2.43,2.43,0,0,1-6,6.53V6.29l.66,0a2.08,2.08,0,0,0,.47,1.41c.68,1,2,1.5,3.91,1.51H-.4c.62-.43.94-.8,1-1.1a.76.76,0,0,0-.16-.43,3.25,3.25,0,0,0-.79-.51v0a3.8,3.8,0,0,1-1-.7,1.15,1.15,0,0,1-.34-.91q.06-.84,1.5-1.68c.68-.4,1-.77,1-1.1S.49,2.21,0,1.87c0,0,0,0,0,0C-1,1.32-1.44.69-1.34,0a3.58,3.58,0,0,1,1.55-2,.54.54,0,0,0,.23-.38A1.28,1.28,0,0,0,.37-3a4.57,4.57,0,0,1-.32-1l-1.49.24Z"/>
<rect fill="none" x="-12" y="-12" width="24" height="24"/>
</symbol>
<symbol  id="stalactite" viewBox="-12 -12 24 24">
<path d="M3.57-6.69l.52.53L.39-3V6.12H-.39V-3l-3.7-3.14.52-.53L0-3.67Z"/>
<rect fill="none" x="-12" y="-12" width="24" height="24"/>
</symbol>
<symbol  id="stalagmite" viewBox="-12 -12 24 24">
<path d="M.38-6.42V2.75L4.11,5.89l-.56.53L0,3.4l-3.57,3-.53-.53,3.7-3.14V-6.42Z"/>
<rect fill="none" x="-12" y="-12" width="24" height="24"/>
</symbol>
<symbol  id="stalagnate" viewBox="-12 -12 24 24">
<path d="M3.55-8.46l.56.53L.38-4.78v9L4.11,7.36l-.56.53L0,4.86l-3.57,3-.53-.53,3.7-3.14v-9l-3.7-3.15.53-.53L0-5.43Z"/>
<rect fill="none" x="-12" y="-12" width="24" height="24"/>
</symbol>
<symbol  id="straws" viewBox="-12 -12 24 24">
<path d="M-10.89-2.76H10.89V-2H9.63V.46H8.84V-2H8.29v5.6H7.5V-2H5.56V.7H4.77V-2H2.07V2.38H1.29V-2H-.1v3H-.89V-2H-3.2V4.11H-4V-2H-6.22L-6.16.75l-.79,0L-7-2H-8.32V2.33H-9.1V-2h-1.79Z"/>
<rect fill="none" x="-12" y="-12" width="24" height="24"/>
</symbol>
<symbol  id="water" viewBox="-12 -12 24 24">
<path d="M-1.72-9.86,2.11-4.32.38-4.06a6.49,6.49,0,0,0,.29.89,1.5,1.5,0,0,1,.13.79,1.2,1.2,0,0,1-.5.82h0l0,0C-.54-.94-1-.42-1,.05s.24.89.92,1.27h0c.77.48,1.17,1,1.19,1.49S.71,3.94-.2,4.49c-.75.43-1.13.81-1.15,1.15a.51.51,0,0,0,.18.43,2.66,2.66,0,0,0,.76.58,2.93,2.93,0,0,1,1,.67,1.16,1.16,0,0,1,.29.89C.84,8.75.42,9.3-.41,9.86l-.44-.55c.66-.45,1-.83,1-1.15A.47.47,0,0,0,0,7.75a2.84,2.84,0,0,0-.78-.53h0a3.87,3.87,0,0,1-1-.69,1.24,1.24,0,0,1-.34-.91c0-.58.54-1.14,1.52-1.68.66-.42,1-.79,1-1.11s-.3-.61-.84-1h0Q-1.9,1.06-1.74,0a3.44,3.44,0,0,1,1.54-2,.67.67,0,0,0,.27-.41A1.11,1.11,0,0,0,0-3a4.33,4.33,0,0,1-.31-1l-1.5.24Z"/>
<rect fill="none" x="-12" y="-12" width="24" height="24"/>
</symbol><g>
<desc></desc>
<g>
<line fill="none" stroke="#dddddd" stroke-width="0.1mm" x1="0.00" y1="26.00" x2="91.00" y2="26.00" />
<text x="88.20" y="25.80" font-size=".2mm" fill="#000000">0m</text>
<line fill="none" stroke="#dddddd" stroke-width="0.1mm" x1="0.00" y1="6.00" x2="91.00" y2="6.00" />
<text x="88.20" y="5.80" font-size=".2mm" fill="#000000">10m</text>
<line fill="none" stroke="#dddddd" stroke-width="0.1mm" x1="0.00" y1="46.00" x2="91.00" y2="46.00" />
<text x="88.20" y="45.80" font-size=".2mm" fill="#000000">-10m</text>
<line fill="none" stroke="#dddddd" stroke-width="0.1mm" x1="0.00" y1="66.00" x2="91.00" y2="66.00" />
<text x="88.20" y="65.80" font-size=".2mm" fill="#000000">-20m</text>
<line fill="none" stroke="#dddddd" stroke-width="0.1mm" x1="20.00" y1="0.00" x2="20.00" y2="82.00" />
<text x="20.40" y="2.00" font-size=".2mm" fill="#000000">0m</text>
<line fill="none" stroke="#dddddd" stroke-width="0.1mm" x1="40.00" y1="0.00" x2="40.00" y2="82.00" />
<text x="40.40" y="2.00" font-size=".2mm" fill="#000000">10m</text>
<line fill="none" stroke="#dddddd" stroke-width="0.1mm" x1="60.00" y1="0.00" x2="60.00" y2="82.00" />
<text x="60.40" y="2.00" font-size=".2mm" fill="#000000">20m</text>
<line fill="none" stroke="#dddddd" stroke-width="0.1mm" x1="80.00" y1="0.00" x2="80.00" y2="82.00" />
<text x="80.40" y="2.00" font-size=".2mm" fill="#000000">30m</text>
</g>
<g>
<path fill="none" stroke="#000000" stroke-width="0.06mm" d="M23.54098,20.135593 L22.910246,19.689676" /><path fill="none" stroke="#000000" stroke-width="0.06mm" d="M23.206184,19.835342 C22.74893,19.473766 22.796518,19.448818 22.254408,19.37918 C22.10319,19.359755 22.003027,19.437292 21.863752,19.451462 C21.667252,19.471455 21.469341,19.473524 21.272135,19.484556 L21.272135,19.484556" /><path fill="none" stroke="#000000" stroke-width="0.06mm" d="M20.994133,19.83237 C20.790745,20.407312 20.627096,20.656563 20.348454,21.113632 L20.348454,21.113632" /><path fill="none" stroke="#000000" stroke-width="0.06mm" d="M21.433554,19.43402 C21.16458,19.727245 21.312935,19.559078 20.973207,20.147482 L20.973207,20.147482" /><path fill="none" stroke="#000000" stroke-width="0.06mm" d="M20.500906,21.06904 C20.442924,21.151823 20.327034,21.317192 20.322912,21.32645 C19.965248,22.12959 19.711971,22.913504 19.691584,23.796387 C19.679287,24.328817 19.67792,24.861729 19.692312,25.394108 C19.698433,25.62055 19.87128,25.99387 19.932755,26.153435 C20.011818,26.358654 20.082937,26.56725 20.172642,26.768045 C20.24733,26.935225 20.431425,27.118052 20.553621,27.228094 C20.74116,27.39698 20.92496,27.573019 21.134424,27.713793 C21.429764,27.912283 21.738659,28.093693 22.062153,28.241936 C22.539448,28.460655 22.670008,28.393864 23.134884,28.478027 C23.266424,28.501842 23.567635,28.728075 23.588808,28.741758 L23.588808,28.741758" /><path fill="none" stroke="#000000" stroke-width="0.06mm" d="M24.091003,23.839663 C24.53468,23.865088 24.832432,23.904722 25.295628,24.008173 C25.413183,24.034428 25.52176,24.09253 25.63844,24.122446 C25.799828,24.163826 25.967205,24.179234 26.128317,24.221676 C26.193445,24.238832 26.25373,24.27117 26.314354,24.300507 C26.576496,24.427362 26.831795,24.52135 27.006325,24.757883 C27.162296,24.969265 27.14966,25.156624 27.223745,25.450903 L27.223745,25.450903" /><path fill="none" stroke="#000000" stroke-width="0.06mm" d="M23.7024,20.174238 C23.437145,20.624392 23.375475,20.783173 23.155235,21.373873 C23.089668,21.54973 23.057434,21.737057 22.989012,21.911823 C22.88147,22.186514 22.71307,22.349115 22.726889,22.635395 C22.736944,22.843758 22.787422,22.934082 22.844896,23.158278 C22.884325,23.31208 22.867985,23.348469 22.945742,23.484808 C23.125322,23.799683 23.38956,24.035374 23.77306,24.029848 C24.056444,24.025764 24.250397,23.894457 24.539392,23.786152 L24.539392,23.786152" /><path fill="none" stroke="#000000" stroke-width="0.06mm" d="M23.370386,28.357716 C24.612978,26.916088 23.266853,28.313017 24.885965,26.89622 C25.228882,26.596151 25.540743,26.262135 25.87778,25.955479 C25.90888,25.927185 25.948807,25.909534 25.987772,25.89374 C26.05909,25.86483 26.134052,25.845877 26.207191,25.821945 L26.207191,25.821945" /><path fill="none" stroke="#000000" stroke-width="0.06mm" d="M27.265388,25.173882 C27.4169,25.515139 27.575863,25.853186 27.719923,26.197655 C27.819365,26.435432 27.713715,26.732344 27.81385,26.989378 C27.862404,27.114002 27.917702,27.236303 27.98069,27.35429 C28.012001,27.41294 28.056927,27.463236 28.095673,27.517263 C28.14999,27.59301 28.214378,27.662249 28.259876,27.743599 C28.505945,28.183573 28.779602,28.981815 28.939266,29.34338 C29.416546,30.424208 29.004366,29.270994 29.292107,30.117596 L29.292107,30.117596" /><path fill="none" stroke="#000000" stroke-width="0.02mm" d="M26.17431,25.694115 C26.222973,25.832705 26.262072,25.97503 26.320297,26.109882 C26.712372,27.017946 26.286589,25.935831 26.560371,26.523342 C26.622555,26.656784 26.668987,26.797075 26.727945,26.931973 C26.805511,27.10945 26.901415,27.27909 26.969856,27.460281 C27.498074,28.85866 26.756763,27.311407 27.620312,29.133976 C27.649025,29.194576 27.69354,29.246538 27.734856,29.299356 C27.9279,29.546144 28.122417,29.791883 28.32314,30.03247 C28.483154,30.224268 28.652254,30.408298 28.816813,30.596212 L28.816813,30.596212" /><path fill="none" stroke="#000000" stroke-width="0.02mm" d="M29.413246,30.086924 C29.340015,30.361492 29.302834,30.56201 29.319878,30.819191 C29.334423,31.038677 29.367254,31.25733 29.368597,31.477295 C29.375359,32.58524 29.433266,33.696724 29.344185,34.8011 C29.286125,35.520874 29.067387,36.218544 28.928986,36.927265 L28.928986,36.927265" /><path fill="none" stroke="#000000" stroke-width="0.02mm" d="M28.722729,30.360418 C28.70034,30.758892 28.719769,30.40205 28.633595,31.534353 C28.581264,33.078217 28.543392,34.622635 28.476604,36.165943 C28.472183,36.268143 28.448635,36.36935 28.420107,36.467587 C28.349138,36.711967 28.259155,36.950424 28.17868,37.19184 L28.17868,37.19184" /><path fill="none" stroke="#000000" stroke-width="0.06mm" d="M29.001007,36.585167 C29.36665,36.981514 29.184011,36.747684 29.52114,37.307552 L29.52114,37.307552" /><path fill="none" stroke="#000000" stroke-width="0.02mm" d="M30.220627,36.47518 C30.49963,36.486355 30.200003,36.471916 31.030714,36.570305 L31.030714,36.570305" /><path fill="none" stroke="#000000" stroke-width="0.02mm" d="M31.461166,36.163036 C31.546421,36.196815 31.63116,36.214657 31.701096,36.272293 C31.84763,36.393063 31.855545,36.612545 31.762817,36.76761 C31.74561,36.79638 31.7255,36.823574 31.703232,36.848637 C31.662174,36.89485 31.611696,36.932514 31.573273,36.980946 C31.564095,36.992516 31.56015,37.00997 31.563904,37.024258 C31.573277,37.059917 31.622799,37.067883 31.648006,37.07723 C31.79601,37.1321 31.943935,37.187176 32.0919,37.24215 L32.0919,37.24215" /><path fill="none" stroke="#000000" stroke-width="0.02mm" d="M32.5104,36.573277 C32.61195,36.984684 32.613354,37.216515 32.604134,37.666313 C32.601944,37.773235 32.5815,37.879 32.570183,37.985344 L32.570183,37.985344" /><path fill="none" stroke="#000000" stroke-width="0.02mm" d="M32.621,35.764683 L32.647903,35.859814" /><path fill="none" stroke="#000000" stroke-width="0.02mm" d="M33.206894,36.561386 C33.23298,36.6476 33.25086,36.736732 33.285152,36.820015 C33.316498,36.896152 33.35999,36.96688 33.40281,37.037205 C33.45172,37.117546 33.539864,37.1012 33.59548,37.041687 C33.743248,36.883568 33.793053,36.693146 33.71708,36.48707 C33.70103,36.443535 33.68885,36.39518 33.65686,36.36158 C33.64698,36.351208 33.627983,36.375904 33.624443,36.389782 C33.601887,36.47822 33.632626,36.595676 33.698566,36.659172 C33.781143,36.73869 33.925076,36.78383 34.03898,36.778194 C34.063953,36.77696 34.089752,36.77443 34.11277,36.764656 C34.31421,36.679108 34.51125,36.58356 34.71049,36.49301 L34.71049,36.49301" /><path fill="none" stroke="#000000" stroke-width="0.02mm" d="M35.574387,36.730835 C35.624718,36.795197 35.671707,36.862324 35.725388,36.923923 C35.754765,36.957634 35.816174,36.996517 35.856766,37.014328 C36.05447,37.10107 36.208115,36.964672 36.294632,36.787544 C36.35202,36.670044 36.368332,36.54407 36.357533,36.414715 C36.353977,36.37213 36.344147,36.32834 36.322662,36.29091 C36.274475,36.20694 36.127262,36.128727 36.060112,36.232464 C35.978886,36.357956 35.977932,36.53617 35.96,36.67435 L35.96,36.67435" /><path fill="none" stroke="#000000" stroke-width="0.02mm" d="M36.390453,35.39309 C36.47946,35.935818 36.383255,35.310455 36.54589,37.01325 L36.54589,37.01325" /><path fill="none" stroke="#000000" stroke-width="0.02mm" d="M33.670227,36.430588 C33.633995,36.241867 33.598995,36.081474 33.377804,36.136925 C33.325874,36.14994 33.279633,36.193924 33.25994,36.24306 C33.250984,36.265408 33.24335,36.288456 33.23857,36.31205 C33.199734,36.5037 33.165638,36.696278 33.129173,36.88839 L33.129173,36.88839" /><path fill="none" stroke="#000000" stroke-width="0.02mm" d="M28.28566,34.517326 C27.973902,35.51663 28.098965,34.991722 27.868252,37.057804 C27.84906,37.22967 27.870144,37.403736 27.876802,37.57654 C27.878025,37.608246 27.879763,37.66887 27.902885,37.70392 C27.983322,37.825836 28.254967,37.810646 28.351425,37.820072 L28.351425,37.820072" /><path fill="none" stroke="#000000" stroke-width="0.02mm" d="M28.44409,34.428143 C28.741009,34.7483 28.694172,34.84438 28.872791,35.318493 C29.029558,35.734604 29.198792,36.14591 29.361794,36.559616 L29.361794,36.559616" /><path fill="none" stroke="#000000" stroke-width="0.02mm" d="M28.38935,37.775448 C28.234463,37.856846 27.802147,37.815002 27.627266,37.978416 C27.52789,38.071278 27.496933,38.20853 27.453712,38.331356 L27.453712,38.331356" /><path fill="none" stroke="#000000" stroke-width="0.02mm" d="M27.397888,38.17751 C28.298523,39.390274 27.56035,38.485012 28.715504,39.64493 C28.819939,39.749798 29.032738,40.199722 29.042927,40.21572 C29.114792,40.328568 29.207703,40.426537 29.290089,40.53194 L29.290089,40.53194" /><path fill="none" stroke="#000000" stroke-width="0.02mm" d="M29.346884,40.436813 C29.483765,40.467743 29.657082,40.518345 29.798359,40.457672 C31.332314,39.798912 30.912937,40.03194 31.738293,39.530117 L31.738293,39.530117" /><path fill="none" stroke="#000000" stroke-width="0.02mm" d="M25.112993,52.116615 C25.111938,52.11731 25.110884,52.118004 25.109829,52.11869 C24.99231,52.177452 24.87479,52.236217 24.757273,52.29498 L24.757273,52.29498" /><path fill="none" stroke="#000000" stroke-width="0.02mm" d="M29.396599,37.2498 C29.434568,37.346462 29.4772,37.417046 29.483458,37.516266 C29.505733,37.869526 29.114437,38.17769 28.942234,38.44188 L28.942234,38.44188" /><path fill="none" stroke="#000000" stroke-width="0.02mm" d="M28.933264,38.41215 C30.438412,37.757133 28.850672,38.34587 30.32831,37.876255 C30.766941,37.736855 31.234629,37.38846 31.714802,37.521736 C31.813725,37.54919 31.90908,37.588177 32.006218,37.6214 L32.006218,37.6214" /><path fill="none" stroke="#000000" stroke-width="0.02mm" d="M31.889639,37.48762 C32.337326,37.40912 32.66382,37.131927 33.07747,36.934856 C33.451603,36.756615 33.83143,36.589306 34.218094,36.44018 C34.41588,36.363907 34.623707,36.31666 34.827915,36.259773 C34.942516,36.227848 35.03342,36.438713 35.06423,36.506607 L35.06423,36.506607" /><path fill="none" stroke="#000000" stroke-width="0.02mm" d="M30.368107,36.17068 C30.239143,36.253323 30.121965,36.328476 29.986158,36.424522 C29.962574,36.441204 29.937347,36.459087 29.923595,36.484493 C29.917385,36.495968 29.921623,36.516354 29.933159,36.522453 C29.952309,36.532578 29.976498,36.522785 29.998133,36.523895 C30.029572,36.525513 30.061861,36.522743 30.092339,36.530632 C30.231632,36.566685 30.367855,36.61371 30.505613,36.655247 L30.505613,36.655247" /><path fill="none" stroke="#000000" stroke-width="0.02mm" d="M35.132946,36.21902 C35.086674,36.749763 35.045616,36.963703 34.594498,37.241222 C34.429085,37.342983 34.24204,37.410084 34.08619,37.525963 C33.589188,37.895493 33.10974,38.28888 32.64102,38.693687 C32.299973,38.988228 32.260006,39.06339 32.29913,39.44745 L32.29913,39.44745" /><path fill="none" stroke="#000000" stroke-width="0.02mm" d="M32.42169,38.745872 C32.628826,38.980637 32.831444,39.219463 33.043095,39.450165 C33.099403,39.511543 33.454163,39.833397 33.538406,39.99462 C33.59738,40.107494 33.634907,40.23034 33.683155,40.348198 L33.683155,40.348198" /><path fill="none" stroke="#000000" stroke-width="0.02mm" d="M31.638504,39.405827 C33.99918,40.933468 31.547169,39.388954 32.923817,40.17791 C32.979797,40.209995 33.256874,40.461956 33.257725,40.46267 C33.54905,40.707184 33.313705,40.4719 33.599457,40.78222 L33.599457,40.78222" /><path fill="none" stroke="#000000" stroke-width="0.02mm" d="M33.98806,36.8433 L34.158447,37.10788" /><path fill="none" stroke="#000000" stroke-width="0.02mm" d="M33.46724,40.1545 C33.468292,40.1536 33.469345,40.1527 33.470398,40.151802 C33.555035,40.061535 33.639675,39.971268 33.72431,39.881 L33.72431,39.881" /><path fill="none" stroke="#000000" stroke-width="0.02mm" d="M33.772144,39.92262 C33.735817,39.868347 33.69949,39.814083 33.663162,39.75981 C33.664513,39.746395 33.66031,39.731144 33.66721,39.71956 C33.68732,39.685806 33.743,39.68202 33.77282,39.67613 C33.85292,39.66031 33.934074,39.649506 34.01348,39.6305 C34.084904,39.61341 34.1529,39.58322 34.224743,39.567978 C34.3511,39.54117 34.55666,39.552376 34.666954,39.57114 C34.81076,39.595604 35.087032,39.75998 35.171116,39.80371 L35.171116,39.80371" /><path fill="none" stroke="#000000" stroke-width="0.02mm" d="M35.07247,39.562916 C35.683502,39.723125 35.643993,39.71734 36.088818,40.098015 L36.088818,40.098015" /><path fill="none" stroke="#000000" stroke-width="0.02mm" d="M36.119495,40.122627 C36.226025,40.511814 36.123978,40.659576 36.053474,41.087795 C35.905235,41.98812 36.134842,41.0379 35.853455,42.072765 L35.853455,42.072765" /><path fill="none" stroke="#000000" stroke-width="0.02mm" d="M33.36639,40.363422 C33.68331,40.628017 33.898445,40.6197 34.305183,40.599525 C34.445984,40.59254 34.535004,40.578285 34.656254,40.665264 C34.68772,40.687836 34.749573,40.745136 34.7649,40.782684 C34.902508,41.11978 35.010914,41.468777 35.15881,41.801487 C35.226864,41.95459 35.32696,42.09134 35.41104,42.236267 L35.41104,42.236267" /><path fill="none" stroke="#000000" stroke-width="0.02mm" d="M35.928185,41.876564 C35.940563,41.962624 35.951164,42.036736 35.95313,42.13482 C35.96098,42.527008 35.300945,43.608307 35.21969,43.79402 C34.992172,44.314026 34.96654,44.468758 34.869987,44.89392 L34.869987,44.89392" /><path fill="none" stroke="#000000" stroke-width="0.02mm" d="M35.273537,41.933044 C35.105255,42.25975 35.023056,42.343826 34.95813,42.711494 C34.909573,42.986454 34.910034,43.268837 34.857597,43.54308 C34.820747,43.735817 34.761723,43.924637 34.691162,44.107742 C34.57618,44.406124 34.276085,44.81046 34.141937,45.0652 C34.09362,45.15695 34.0713,45.260185 34.035984,45.357674 L34.035984,45.357674" /><path fill="none" stroke="#000000" stroke-width="0.02mm" d="M33.93435,45.339836 C35.198242,46.96296 34.199432,45.495575 35.163948,46.734055 C35.258026,46.85486 35.3303,46.991165 35.41348,47.11972 C35.524265,47.25872 35.63505,47.397713 35.74584,47.536713 L35.74584,47.536713" /><path fill="none" stroke="#000000" stroke-width="0.02mm" d="M34.40157,44.275658 C34.309868,44.24421 34.244682,44.222214 34.13243,44.17167 C33.985973,44.105717 33.90056,43.945 33.73294,43.92289 C33.633602,43.90979 33.430527,43.869232 33.313007,43.923973 C33.058315,44.042618 33.039974,44.5385 33.153553,44.749016 C33.264416,44.954494 33.646324,45.222397 33.70806,45.277473 L33.70806,45.277473" /><path fill="none" stroke="#000000" stroke-width="0.02mm" d="M33.75589,45.336933 C34.3951,46.504017 34.3348,46.375862 35.27468,48.48693 C35.364212,48.688026 35.410027,48.90586 35.477703,49.115326 L35.477703,49.115326" /><path fill="none" stroke="#000000" stroke-width="0.02mm" d="M34.48228,44.308357 C35.87155,45.392845 35.041603,44.663967 36.786995,46.689545 L36.786995,46.689545" /><path fill="none" stroke="#000000" stroke-width="0.02mm" d="M36.807922,46.63306 C37.07036,46.829025 37.18963,47.05463 37.375877,47.328686 L37.375877,47.328686" /><path fill="none" stroke="#000000" stroke-width="0.02mm" d="M41.276672,47.134747 C41.964966,46.910072 42.454308,46.42671 43.082184,46.008068 L43.082184,46.008068" /><path fill="none" stroke="#000000" stroke-width="0.02mm" d="M43.082184,46.008064 L43.165886,45.942665" /><path fill="none" stroke="#000000" stroke-width="0.02mm" d="M40.580177,46.11509 C40.6914,45.430317 40.947716,45.096718 41.20742,44.55992 C41.25647,44.458527 41.297577,44.353466 41.344337,44.251 C41.37788,44.1775 41.416733,44.10643 41.44832,44.032074 C41.471764,43.97687 41.479774,43.915016 41.50924,43.862778 C41.60346,43.695747 41.7149,43.53904 41.817734,43.377167 L41.817734,43.377167" /><path fill="none" stroke="#000000" stroke-width="0.02mm" d="M41.560654,43.57337 C43.6187,43.679996 41.745773,43.57744 43.257286,43.504307 C43.569275,43.489212 43.882053,43.521957 44.19429,43.513535 C44.446793,43.50672 44.91191,43.270283 45.037163,43.219612 L45.037163,43.219612" /><path fill="none" stroke="#000000" stroke-width="0.02mm" d="M45.07901,43.094757 C45.332767,43.172783 45.42546,43.250015 45.51339,43.502792 C45.545273,43.59445 45.560223,43.691643 45.594795,43.782322 C45.687607,44.025734 45.794983,44.263336 45.895073,44.503845 L45.895073,44.503845" /><path fill="none" stroke="#000000" stroke-width="0.02mm" d="M45.82931,44.28386 C45.7893,44.902954 45.86473,43.993607 45.6111,46.10617 L45.6111,46.10617" /><path fill="none" stroke="#000000" stroke-width="0.02mm" d="M43.115067,45.921856 C43.11578,45.9213 43.116493,45.920746 43.117207,45.92019 C43.244034,45.77706 43.370865,45.633934 43.497692,45.490807 L43.497692,45.490807" /><path fill="none" stroke="#000000" stroke-width="0.02mm" d="M44.06565,44.88436 L44.14337,44.86058" /><path fill="none" stroke="#000000" stroke-width="0.02mm" d="M44.14337,45.05381 L44.197178,45.09543" /><path fill="none" stroke="#000000" stroke-width="0.02mm" d="M43.527588,45.30352 C43.64186,45.17319 43.773506,45.010864 43.96347,44.998672 C44.115334,44.98893 44.29821,45.200584 44.361916,45.314884 C44.451675,45.475945 44.504677,45.965584 44.508064,45.984283 L44.508064,45.984283" /><path fill="none" stroke="#000000" stroke-width="0.02mm" d="M37.318897,47.0307 C38.324284,47.63533 37.152298,46.95955 38.79199,47.739716 C39.065636,47.869915 39.357048,48.157272 39.68638,48.156258 C39.79384,48.155926 39.883095,48.02637 39.913994,47.941 C40.049652,47.566154 40.15602,47.18123 40.288223,46.805153 C40.332886,46.67811 40.397133,46.55865 40.444298,46.43251 C40.557278,46.13031 40.66043,45.824524 40.7685,45.520535 L40.7685,45.520535" /><path fill="none" stroke="#000000" stroke-width="0.02mm" d="M35.504417,48.915436 C36.155746,49.035423 36.655025,48.931366 37.33974,48.936337 C37.446396,48.93711 37.55187,48.9617 37.656086,48.984383 C38.145035,49.090794 38.624252,49.2451 39.118477,49.323444 C39.387573,49.366104 39.663094,49.347435 39.935543,49.34573 C40.277077,49.34359 40.63449,49.168198 40.83766,48.892242 C40.987877,48.68821 41.125114,48.474754 41.277496,48.27234 C41.383934,48.130955 41.443657,48.12172 41.501465,47.988647 C41.51478,47.958004 41.52451,47.92571 41.53167,47.893074 C41.573074,47.704247 41.596638,47.51135 41.647064,47.32473 C41.71011,47.091423 41.796715,46.865128 41.871536,46.635323 L41.871536,46.635323" /><path fill="none" stroke="#000000" stroke-width="0.02mm" d="M44.122444,46.01104 C44.0801,46.169426 43.951187,46.32287 43.967545,46.49215 C43.97353,46.554085 44.017403,46.595776 44.067547,46.626637 C44.22487,46.723457 44.383144,46.818718 44.540943,46.91476 L44.540943,46.91476" /><path fill="none" stroke="#000000" stroke-width="0.02mm" d="M44.612686,46.8999 C44.67499,46.745155 44.76497,46.55789 44.73481,46.382286 C44.72724,46.33822 44.702225,46.266476 44.674683,46.23094 C44.48049,45.980385 44.409042,45.827034 44.095547,45.921856 L44.095547,45.921856" /><path fill="none" stroke="#000000" stroke-width="0.02mm" d="M43.90722,46.995026 C43.907227,46.99805 43.90723,47.001076 43.907238,47.004097 C43.906414,47.077545 43.901703,47.151054 43.904766,47.22444 C43.914745,47.463226 44.317657,47.522224 44.404854,47.361534 C44.45523,47.268692 44.377457,47.115376 44.343925,47.045105 C44.231834,46.810173 44.11955,46.782112 43.86537,46.825577 L43.86537,46.825577" /><path fill="none" stroke="#000000" stroke-width="0.02mm" d="M44.49312,47.00692 C44.54765,47.125122 44.65776,47.391705 44.85036,47.334923 C44.880386,47.326073 44.896782,47.304577 44.903236,47.27468 C44.923584,47.180435 44.85742,47.09121 44.782265,47.0418 C44.669212,46.967484 44.549644,46.903603 44.43333,46.8345 L44.43333,46.8345" /><path fill="none" stroke="#000000" stroke-width="0.02mm" d="M44.97579,46.467354 C45.220387,46.592175 45.457405,46.733124 45.709583,46.84182 C45.826866,46.892372 45.95237,46.927406 46.07914,46.942924 C46.87082,47.039856 47.66771,47.089203 48.460274,47.178593 C48.524868,47.18588 48.58795,47.206905 48.64765,47.232628 C49.383217,47.54953 50.118774,47.867043 50.844532,48.205795 C51.073097,48.31248 51.528156,48.548477 51.684296,48.81086 C51.797573,49.001213 51.891144,49.202625 51.994564,49.398506 L51.994564,49.398506" /><path fill="none" stroke="#000000" stroke-width="0.02mm" d="M45.62446,46.051167 C46.405437,46.343487 45.054184,45.8572 46.54077,46.25557 C47.947895,46.632645 48.191204,46.905174 49.36322,46.95462 C50.781506,47.01445 50.887184,46.93007 52.37402,46.79586 C52.880444,46.75015 53.388386,46.721523 53.894325,46.67077 C54.83476,46.576424 53.71483,46.578682 54.971867,46.624912 L54.971867,46.624912" /><path fill="none" stroke="#000000" stroke-width="0.02mm" d="M51.97065,49.232033 C52.354816,49.496475 52.574535,49.732376 52.815228,50.124054 C52.84333,50.169785 52.863876,50.220398 52.87906,50.271873 C52.94817,50.506172 53.004826,50.743973 53.067703,50.98002 L53.067703,50.98002" /><path fill="none" stroke="#000000" stroke-width="0.02mm" d="M53.064716,50.887863 C53.1733,51.551014 53.135197,51.106384 53.597523,52.282433 C53.668266,52.462395 53.699314,52.656525 53.772396,52.83555 C53.997047,53.385853 54.233135,53.93193 54.489765,54.46807 C54.516315,54.523537 54.654106,54.751923 54.76089,54.834503 C54.944496,54.9765 55.379116,54.997932 55.501144,55.01047 C55.802612,55.041443 56.265495,55.102833 56.611507,55.021408 C56.89705,54.95421 57.171955,54.83717 57.46264,54.79776 C58.254807,54.690353 59.052303,54.55267 59.851173,54.582165 C62.653362,54.68563 62.75832,54.73516 64.36411,55.150818 L64.36411,55.150818" /><path fill="none" stroke="#000000" stroke-width="0.02mm" d="M55.29769,53.545517 C55.301258,53.545906 55.304825,53.546295 55.30839,53.54668 C55.6996,53.609158 56.086132,53.71929 56.482018,53.734108 C57.661015,53.778244 58.841675,53.714737 60.021465,53.723106 C60.541412,53.726795 60.420616,53.757534 60.851826,53.83426 C60.96292,53.854023 61.07653,53.85852 61.187077,53.881134 C61.500366,53.94523 61.806507,54.044846 62.122456,54.094196 C62.521824,54.15658 62.92891,54.158035 63.328983,54.215714 C63.58138,54.252106 64.0869,54.46065 64.286385,54.53545 L64.286385,54.53545" /><path fill="none" stroke="#000000" stroke-width="0.02mm" d="M64.14291,54.244118 C64.67981,54.008194 65.02585,53.529724 65.4521,53.146698 C65.64813,52.97055 65.85075,52.80056 66.065926,52.648388 C67.64105,51.534454 65.872604,52.958794 67.34141,51.735107 L67.34141,51.735107" /><path fill="none" stroke="#000000" stroke-width="0.02mm" d="M67.21287,51.64889 C67.21593,51.648922 67.21898,51.64895 67.222046,51.64898 C67.6782,51.63826 68.13423,51.616295 68.590515,51.61683 C68.651245,51.616898 68.712326,51.63034 68.769516,51.650784 C68.90675,51.699844 69.03706,51.766453 69.17084,51.824284 L69.17084,51.824284" /><path fill="none" stroke="#000000" stroke-width="0.02mm" d="M64.4508,55.067574 C65.49057,54.884865 66.3398,54.225395 67.03949,53.4712 L67.03949,53.4712" /><path fill="none" stroke="#000000" stroke-width="0.02mm" d="M69.0692,51.7024 C69.31894,52.166443 69.47536,52.680504 69.48397,53.210617 C69.50827,54.70523 69.224205,55.422325 69.88148,56.618286 C70.02696,56.882996 70.2027,57.132965 70.40144,57.36042 C71.57684,58.705547 70.978165,57.7322 71.56111,58.62981 C71.58026,58.659298 71.59887,58.690243 71.608444,58.724075 C71.68588,58.997776 71.67995,59.069794 71.70573,59.348366 L71.70573,59.348366" /><path fill="none" stroke="#000000" stroke-width="0.02mm" d="M67.0096,53.411743 C67.05252,53.555725 67.1151,53.770653 67.14874,53.84482 C67.41475,54.431015 67.748886,54.98603 67.99295,55.58169 C68.6066,57.079353 68.02287,55.96698 68.303314,57.016415 C68.37308,57.277466 68.487076,57.52463 68.578964,57.77874 L68.578964,57.77874" /><path fill="none" stroke="#000000" stroke-width="0.02mm" d="M71.628006,59.369175 C71.109024,59.542675 70.55446,59.448383 70.09125,59.773197 C69.81038,59.97015 69.63011,60.355495 69.51526,60.646595 C69.340096,61.090523 69.209915,61.550896 69.05724,62.003048 L69.05724,62.003048" /><path fill="none" stroke="#000000" stroke-width="0.02mm" d="M68.42053,57.615242 C68.5063,57.8319 68.60733,58.04313 68.67784,58.26522 C68.82375,58.72476 68.72641,59.783432 68.71533,59.97955 C68.70752,60.11779 68.683136,60.25629 68.64134,60.388294 C68.010925,62.379585 68.4308,60.650917 68.10666,62.08629 L68.10666,62.08629" /><path fill="none" stroke="#000000" stroke-width="0.06mm" d="M68.62834,62.526176 C68.71515,62.506832 68.79938,62.47187 68.88935,62.477802 C69.096954,62.491497 69.21176,62.69627 69.12837,62.883724 C69.06712,63.021408 68.84038,63.173054 68.77609,63.238285 C68.71912,63.296112 68.6702,63.38728 68.64069,63.462658 C68.575165,63.630074 68.69263,63.884563 68.89549,63.84613 C69.04074,63.818615 69.150406,63.692345 69.247116,63.590427 L69.247116,63.590427" /><path fill="none" stroke="#000000" stroke-width="0.06mm" d="M69.20825,64.66954 C69.207245,64.67032 69.20622,64.6711 69.20521,64.671875 C69.092636,64.73848 68.98006,64.805084 68.86748,64.87169 L68.86748,64.87169" /><path fill="none" stroke="#000000" stroke-width="0.06mm" d="M69.20825,64.47928 C69.14423,64.44502 69.0825,64.40608 69.01619,64.3765 C68.89245,64.321304 68.71878,64.30089 68.6033,64.3866 C68.47534,64.48157 68.41199,64.743286 68.61328,64.79071 C68.80188,64.83516 68.87956,64.81102 69.1126,64.80629 L69.1126,64.80629" /><path fill="none" stroke="#000000" stroke-width="0.02mm" d="M56.13792,56.1475 C56.370743,56.056343 56.343605,56.062683 56.810772,55.83864 C56.86494,55.81266 56.91348,55.77584 56.967815,55.750217 C57.070873,55.70162 57.224163,55.675934 57.321964,55.750336 C57.436726,55.83764 57.53199,56.128838 57.55946,56.182068 C57.620174,56.299725 57.823334,56.275925 57.92024,56.24714 C58.03225,56.21386 58.14853,56.14286 58.22267,56.051537 C58.388935,55.846725 58.45626,55.652546 58.71777,55.595715 C58.762283,55.58604 58.813583,55.586037 58.85845,55.595978 C59.093716,55.648087 59.121044,55.92865 59.190533,56.113438 C59.2615,56.302162 59.4712,56.351505 59.651115,56.295567 C60.086857,56.160088 60.325817,55.490105 60.803905,55.547985 C61.130222,55.587494 61.229206,56.015 61.34731,56.24784 C61.416622,56.384487 61.64949,56.53209 61.806118,56.4628 C61.89012,56.425636 61.947098,56.375862 62.016205,56.30599 C62.089878,56.231495 62.154762,56.1488 62.224045,56.070206 L62.224045,56.070206" /><path fill="none" stroke="#000000" stroke-width="0.02mm" d="M62.43927,55.547 C62.44117,56.071102 62.36288,56.226654 62.227036,56.748 L62.227036,56.748" /><path fill="none" stroke="#000000" stroke-width="0.02mm" d="M62.56183,55.45484 C62.6912,55.68142 62.818546,55.909164 62.949944,56.134575 C62.984276,56.19347 63.028137,56.231026 63.030033,56.301014 C63.03221,56.38147 62.97329,56.4477 62.918385,56.498623 C62.73156,56.671906 62.461044,56.66597 62.224045,56.68557 L62.224045,56.68557" /><path fill="none" stroke="#000000" stroke-width="0.02mm" d="M46.975845,48.35885 C46.97807,48.357727 46.9803,48.3566 46.982525,48.35548 C47.1634,48.260654 47.33992,48.157013 47.52515,48.071003 C47.700394,47.989628 47.955116,47.9497 48.077026,48.13797 C48.114143,48.19529 48.13124,48.270924 48.125874,48.338608 C48.11999,48.41278 48.11145,48.487087 48.0953,48.559715 C48.053818,48.74616 47.85722,49.118095 48.119904,49.248497 C48.392014,49.383583 48.703793,49.162933 48.941788,49.06629 C49.089615,49.006264 49.246223,49.01309 49.390682,49.077606 C49.49172,49.12273 49.59863,49.19374 49.64251,49.30011 C49.70703,49.456512 49.641098,49.612457 49.558315,49.745743 C49.435486,49.943504 49.184975,50.228016 49.21193,50.499237 C49.220665,50.58709 49.255466,50.678753 49.330048,50.731316 C49.614532,50.93181 50.233994,50.50705 50.36304,50.45542 C50.65358,50.33918 51.012154,50.478615 51.173378,50.740288 C51.24642,50.85884 51.259476,51.073013 51.209038,51.19983 C51.10814,51.427578 51.00724,51.655323 50.90634,51.88307 C50.905003,51.890675 50.90269,51.898174 50.902336,51.90589 C50.894497,52.07614 51.08441,52.253876 51.166786,52.36019 L51.166786,52.36019" /><path fill="none" stroke="#000000" stroke-width="0.02mm" d="M51.510544,52.116425 C51.28383,52.47403 51.0996,52.590538 50.71839,52.758545 L50.71839,52.758545" /><path fill="none" stroke="#000000" stroke-width="0.02mm" d="M51.663002,51.99157 C51.838024,52.66249 51.739075,52.199615 51.81246,53.403633 L51.81246,53.403633" /><path fill="none" stroke="#000000" stroke-width="0.02mm" d="M50.524094,52.832863 C50.893257,53.020752 51.035606,53.13624 51.39573,53.21399 C51.551064,53.247528 51.709423,53.26511 51.86627,53.29067 L51.86627,53.29067" /><path fill="none" stroke="#000000" stroke-width="0.02mm" d="M52.763344,46.949257 C52.749973,47.0355 52.74011,47.101696 52.71024,47.20309 C52.646713,47.418724 52.405537,47.58584 52.424446,47.79486 C52.43489,47.91031 52.517265,48.020947 52.605377,48.090668 C52.728573,48.18814 52.914608,48.256935 53.07293,48.244793 C53.375347,48.221596 53.61889,47.89081 53.53399,47.59457 C53.48314,47.417137 53.348396,47.286297 53.243084,47.14084 C53.15749,47.02262 53.12906,46.950546 53.001045,46.87645 C52.85773,46.793503 52.618855,46.826973 52.479366,46.82737 L52.479366,46.82737" /><path fill="none" stroke="#000000" stroke-width="0.02mm" d="M58.64254,34.97228 C58.639793,34.973507 58.637047,34.97474 58.634304,34.975967 C58.570374,35.003105 58.504536,35.026134 58.442516,35.05739 C58.23163,35.163662 58.198307,35.54329 58.190674,35.7396 C58.186623,35.84375 58.23158,35.9592 58.28924,36.043392 C58.351414,36.13417 58.433285,36.22885 58.5384,36.27194 C58.878616,36.411385 59.492046,36.08592 59.663036,35.79244 C59.728065,35.680832 59.871178,35.441288 59.870007,35.270943 C59.86953,35.201954 59.84959,35.141922 59.818615,35.07975 C59.671017,34.783516 59.417984,34.63675 59.084335,34.685326 C58.91122,34.710526 58.74852,34.89077 58.63357,34.987144 L58.63357,34.987144" /><path fill="none" stroke="#000000" stroke-width="0.02mm" d="M58.66347,36.304077 C58.335907,37.082664 57.66594,37.733707 57.22029,38.399097 C57.020786,38.696976 56.87189,39.025826 56.70246,39.341774 C56.589073,39.553226 56.811718,39.590794 56.98815,39.585438 C58.045288,39.553352 59.101448,39.49466 60.158096,39.44927 L60.158096,39.44927" /><path fill="none" stroke="#000000" stroke-width="0.02mm" d="M59.11783,36.146523 C60.532696,39.12642 59.123333,36.30735 60.60037,38.885254 C60.62422,38.926888 60.82039,39.22992 60.71224,39.354694 C60.564796,39.524807 59.945946,39.47971 59.901016,39.48197 L59.901016,39.48197" /><path fill="none" stroke="#000000" stroke-width="0.02mm" d="M59.793404,37.344547 C59.897823,37.254997 59.91249,37.24297 60.07902,37.05768 C60.463375,36.630013 60.844482,36.19931 61.21752,35.76174 C61.31091,35.652203 61.34331,35.418774 61.348717,35.284767 C61.357807,35.05942 61.265923,34.815575 61.216293,34.61257 L61.216293,34.61257" /><path fill="none" stroke="#000000" stroke-width="0.02mm" d="M61.41956,35.418194 C61.73469,35.27348 61.4353,35.410328 62.31335,34.924713 L62.31335,34.924713" /><path fill="none" stroke="#000000" stroke-width="0.02mm" d="M61.252167,35.75709 C61.957436,35.892925 61.808617,35.83784 62.31335,36.02464 L62.31335,36.02464" /><path fill="none" stroke="#000000" stroke-width="0.02mm" d="M57.61723,37.70128 C57.369297,37.456303 57.108475,37.22372 56.873436,36.96635 C56.493233,36.550026 55.9949,36.17283 55.83251,35.619797 C55.749897,35.33843 55.769825,35.003212 55.5849,34.775623 C55.474976,34.640335 55.56266,35.124294 55.571358,35.298393 C55.5781,35.433346 55.60916,35.566 55.631046,35.69934 C55.651104,35.821564 55.72619,35.9269 55.59797,35.839252 C55.473316,35.754044 55.47352,35.716976 55.338074,35.667095 C55.25793,35.63758 55.175472,35.613983 55.09218,35.595116 C55.04802,35.585114 54.994415,35.555153 54.957108,35.580803 C54.93216,35.597958 54.997818,35.627514 55.02465,35.64154 C55.130955,35.69711 55.24338,35.740105 55.353382,35.787945 C55.46205,35.83521 55.57489,35.873363 55.68064,35.926838 C55.723557,35.94854 55.698032,35.985516 55.67407,36.002773 C55.651627,36.018936 55.624065,36.026432 55.599506,36.039143 C55.2634,36.21308 54.927895,36.388187 54.592094,36.56271 L54.592094,36.56271" /><path fill="none" stroke="#000000" stroke-width="0.02mm" d="M58.645535,35.70358 C58.697323,35.72934 58.747944,35.757595 58.8009,35.780857 C58.919735,35.833057 59.034626,35.59909 59.067013,35.548996 L59.067013,35.548996" /><path fill="none" stroke="#000000" stroke-width="0.02mm" d="M58.672436,35.32901 C58.99001,35.339405 58.868176,35.32554 58.657486,35.29334 L58.657486,35.29334" /><path fill="none" stroke="#000000" stroke-width="0.02mm" d="M59.31512,35.216045 L59.261314,35.2101" /><path fill="none" stroke="#000000" stroke-width="0.02mm" d="M58.30177,35.076324 C58.167408,34.768917 58.124496,34.688995 57.919556,34.151066 C57.897408,34.092934 57.887806,34.03045 57.87944,33.968803 C57.875107,33.936893 57.883945,33.90115 57.92336,33.900738 C57.944855,33.900513 57.966503,33.907448 57.985764,33.916985 C58.113216,33.980103 58.23505,34.054127 58.362118,34.11801 C58.497047,34.185844 58.672897,33.967003 58.696377,33.863724 C58.776638,33.510685 58.828934,33.151546 58.913277,32.79946 C58.916355,32.786613 58.94059,32.788647 58.95256,32.79424 C58.974762,32.80462 58.992653,32.823692 59.00724,32.843388 C59.053497,32.90584 59.101776,32.96837 59.13393,33.039124 C59.250927,33.296574 59.3425,33.564903 59.453358,33.825058 C59.468742,33.861168 59.523033,33.880856 59.55799,33.88401 C59.573948,33.885452 59.590324,33.885952 59.606045,33.88285 C59.731686,33.85805 59.854454,33.818058 59.981308,33.800465 C60.022087,33.794807 60.008728,33.881836 60.00809,33.883648 C59.970062,33.992092 59.92714,34.099113 59.876907,34.20247 C59.8036,34.35332 59.71761,34.497673 59.637962,34.645275 L59.637962,34.645275" /><path fill="none" stroke="#000000" stroke-width="0.02mm" d="M58.669445,39.59196 C58.67677,39.891483 58.679306,39.75407 58.65236,40.476395 C58.651146,40.508858 58.623745,40.562424 58.60493,40.587658 C58.55796,40.65067 58.56993,40.617523 58.51175,40.66794 C58.323742,40.830853 58.138596,40.997036 57.952023,41.161583 L57.952023,41.161583" /><path fill="none" stroke="#000000" stroke-width="0.02mm" d="M59.778458,39.371975 C59.813683,39.692066 59.77879,40.1284 59.951294,40.41555 C59.973476,40.452473 60.01257,40.497368 60.047985,40.519833 C60.663612,40.91028 60.51538,40.90089 61.054874,40.947544 L61.054874,40.947544" /><path fill="none" stroke="#000000" stroke-width="0.02mm" d="M54.934303,46.681023 C54.684734,46.989197 54.72687,46.918472 54.45457,47.497475 C54.4008,47.61181 54.378544,47.738716 54.331505,47.855972 C53.99531,48.69406 54.23952,47.528763 53.931267,49.43943 C53.911644,49.56105 53.898373,49.857986 53.94194,50.016563 C54.053326,50.42198 54.080376,50.315285 54.24176,50.774567 C54.47654,51.44274 54.17342,50.82865 54.469982,51.44609 C54.500538,51.50971 54.538414,51.56954 54.57263,51.631264 C54.765903,52.002293 54.978085,52.36407 55.15245,52.744354 C55.269623,52.9999 55.22162,53.071693 55.29051,53.2948 C55.319733,53.38946 55.37401,53.467957 55.42426,53.551815 L55.42426,53.551815" /><use xlink:href="#water" width="3.6" height="3.6" x="-1.8" y="-1.8" transform="translate(20.809565 22.954344) rotate(203)"/>
</g>
<g>
<line fill="none" stroke="#00aeef" stroke-width="0.05mm" stroke-dasharray="0.4,0.2" opacity="0.88" x1="20.00" y1="26.00" x2="22.40" y2="19.47" />
<line fill="none" stroke="#00aeef" stroke-width="0.05mm" stroke-dasharray="0.4,0.2" opacity="0.86" x1="20.00" y1="26.00" x2="23.12" y2="28.32" />
<line fill="none" stroke="#00aeef" stroke-width="0.05mm" stroke-dasharray="0.4,0.2" opacity="0.91" x1="20.00" y1="26.00" x2="22.44" y2="19.47" />
<line fill="none" stroke="#111111" stroke-width="0.05mm" x1="20.00" y1="26.00" x2="26.80" y2="25.16" />
<line fill="none" stroke="#00aeef" stroke-width="0.05mm" stroke-dasharray="0.4,0.2" opacity="0.83" x1="26.80" y1="25.16" x2="26.19" y2="25.84" />
<line fill="none" stroke="#111111" stroke-width="0.05mm" x1="26.80" y1="25.16" x2="29.04" y2="30.17" />
<line fill="none" stroke="#5674b9" stroke-width="0.05mm" stroke-dasharray="0.4,0.2" opacity="0.97" x1="29.04" y1="30.17" x2="28.44" y2="30.29" />
<line fill="none" stroke="#5674b9" stroke-width="0.05mm" stroke-dasharray="0.4,0.2" opacity="0.77" x1="29.04" y1="30.17" x2="28.80" y2="36.81" />
<line fill="none" stroke="#5674b9" stroke-width="0.05mm" stroke-dasharray="0.4,0.2" opacity="0.77" x1="29.04" y1="30.17" x2="28.81" y2="36.87" />
<line fill="none" stroke="#111111" stroke-width="0.05mm" x1="29.04" y1="30.17" x2="28.77" y2="36.60" />
<line fill="none" stroke="#5674b9" stroke-width="0.05mm" stroke-dasharray="0.4,0.2" opacity="0.13" x1="28.77" y1="36.60" x2="29.56" y2="37.57" />
<line fill="none" stroke="#5674b9" stroke-width="0.05mm" stroke-dasharray="0.4,0.2" opacity="0.13" x1="28.77" y1="36.60" x2="29.56" y2="37.55" />
<line fill="none" stroke="#111111" stroke-width="0.05mm" x1="28.77" y1="36.60" x2="29.51" y2="37.57" />
<line fill="none" stroke="#5674b9" stroke-width="0.05mm" stroke-dasharray="0.4,0.2" opacity="0.13" x1="29.51" y1="37.57" x2="30.22" y2="38.55" />
<line fill="none" stroke="#00aeef" stroke-width="0.05mm" stroke-dasharray="0.4,0.2" opacity="0.73" x1="29.51" y1="37.57" x2="28.00" y2="37.79" />
<line fill="none" stroke="#00aeef" stroke-width="0.05mm" stroke-dasharray="0.4,0.2" opacity="0.91" x1="29.51" y1="37.57" x2="28.30" y2="34.47" />
<line fill="none" stroke="#00aeef" stroke-width="0.05mm" stroke-dasharray="0.4,0.2" opacity="0.95" x1="29.51" y1="37.57" x2="29.25" y2="40.44" />
<line fill="none" stroke="#00aeef" stroke-width="0.05mm" stroke-dasharray="0.4,0.2" opacity="0.94" x1="29.51" y1="37.57" x2="29.24" y2="40.47" />
<line fill="none" stroke="#00aeef" stroke-width="0.05mm" stroke-dasharray="0.4,0.2" opacity="0.94" x1="29.51" y1="37.57" x2="29.23" y2="40.52" />
<line fill="none" stroke="#111111" stroke-width="0.05mm" x1="29.51" y1="37.57" x2="28.61" y2="38.55" />
<line fill="none" stroke="#00aeef" stroke-width="0.05mm" stroke-dasharray="0.4,0.2" opacity="0.92" x1="28.61" y1="38.55" x2="27.55" y2="38.25" />
<line fill="none" stroke="#111111" stroke-width="0.05mm" x1="28.61" y1="38.55" x2="31.85" y2="38.89" />
<line fill="none" stroke="#00aeef" stroke-width="0.05mm" stroke-dasharray="0.4,0.2" opacity="0.70" x1="31.85" y1="38.89" x2="31.61" y2="37.74" />
<line fill="none" stroke="#5674b9" stroke-width="0.05mm" stroke-dasharray="0.4,0.2" opacity="0.86" x1="31.85" y1="38.89" x2="34.95" y2="36.70" />
<line fill="none" stroke="#5674b9" stroke-width="0.05mm" stroke-dasharray="0.4,0.2" opacity="0.86" x1="31.85" y1="38.89" x2="34.99" y2="36.67" />
<line fill="none" stroke="#5674b9" stroke-width="0.05mm" stroke-dasharray="0.4,0.2" opacity="0.86" x1="31.85" y1="38.89" x2="35.00" y2="36.67" />
<line fill="none" stroke="#00aeef" stroke-width="0.05mm" stroke-dasharray="0.4,0.2" opacity="0.87" x1="31.85" y1="38.89" x2="31.44" y2="38.67" />
<line fill="none" stroke="#00aeef" stroke-width="0.05mm" stroke-dasharray="0.4,0.2" opacity="0.98" x1="31.85" y1="38.89" x2="32.34" y2="39.08" />
<line fill="none" stroke="#5674b9" stroke-width="0.05mm" stroke-dasharray="0.4,0.2" opacity="0.78" x1="31.85" y1="38.89" x2="33.53" y2="36.71" />
<line fill="none" stroke="#5674b9" stroke-width="0.05mm" stroke-dasharray="0.4,0.2" opacity="0.78" x1="31.85" y1="38.89" x2="33.55" y2="36.67" />
<line fill="none" stroke="#5674b9" stroke-width="0.05mm" stroke-dasharray="0.4,0.2" opacity="0.77" x1="31.85" y1="38.89" x2="33.51" y2="36.72" />
<line fill="none" stroke="#00aeef" stroke-width="0.05mm" stroke-dasharray="0.4,0.2" opacity="0.68" x1="31.85" y1="38.89" x2="33.34" y2="40.33" />
<line fill="none" stroke="#00aeef" stroke-width="0.05mm" stroke-dasharray="0.4,0.2" opacity="0.68" x1="31.85" y1="38.89" x2="33.28" y2="40.31" />
<line fill="none" stroke="#00aeef" stroke-width="0.05mm" stroke-dasharray="0.4,0.2" opacity="0.68" x1="31.85" y1="38.89" x2="33.44" y2="40.45" />
<line fill="none" stroke="#111111" stroke-width="0.05mm" x1="31.85" y1="38.89" x2="33.39" y2="40.31" />
<line fill="none" stroke="#111111" stroke-width="0.05mm" x1="33.39" y1="40.31" x2="34.65" y2="40.29" />
<line fill="none" stroke="#00aeef" stroke-width="0.05mm" stroke-dasharray="0.4,0.2" opacity="0.88" x1="34.65" y1="40.29" x2="35.06" y2="39.74" />
<line fill="none" stroke="#00aeef" stroke-width="0.05mm" stroke-dasharray="0.4,0.2" opacity="0.99" x1="34.65" y1="40.29" x2="36.11" y2="40.22" />
<line fill="none" stroke="#111111" stroke-width="0.05mm" x1="34.65" y1="40.29" x2="35.62" y2="42.04" />
<line fill="none" stroke="#111111" stroke-width="0.05mm" x1="35.62" y1="42.04" x2="34.40" y2="45.29" />
<line fill="none" stroke="#111111" stroke-width="0.05mm" x1="34.40" y1="45.29" x2="36.03" y2="47.44" />
<line fill="none" stroke="#5674b9" stroke-width="0.05mm" stroke-dasharray="0.4,0.2" opacity="0.86" x1="36.03" y1="47.44" x2="38.38" y2="52.69" />
<line fill="none" stroke="#5674b9" stroke-width="0.05mm" stroke-dasharray="0.4,0.2" opacity="0.13" x1="36.03" y1="47.44" x2="37.00" y2="48.93" />
<line fill="none" stroke="#111111" stroke-width="0.05mm" x1="36.03" y1="47.44" x2="37.21" y2="47.80" />
<line fill="none" stroke="#5674b9" stroke-width="0.05mm" stroke-dasharray="0.4,0.2" opacity="0.96" x1="37.21" y1="47.80" x2="33.37" y2="44.02" />
<line fill="none" stroke="#00aeef" stroke-width="0.05mm" stroke-dasharray="0.4,0.2" opacity="0.91" x1="37.21" y1="47.80" x2="35.37" y2="48.90" />
<line fill="none" stroke="#111111" stroke-width="0.05mm" x1="37.21" y1="47.80" x2="39.70" y2="48.89" />
<line fill="none" stroke="#111111" stroke-width="0.05mm" x1="39.70" y1="48.89" x2="42.31" y2="45.34" />
<line fill="none" stroke="#00aeef" stroke-width="0.05mm" stroke-dasharray="0.4,0.2" opacity="0.93" x1="42.31" y1="45.34" x2="41.58" y2="43.75" />
<line fill="none" stroke="#5674b9" stroke-width="0.05mm" stroke-dasharray="0.4,0.2" opacity="0.95" x1="42.31" y1="45.34" x2="44.43" y2="43.96" />
<line fill="none" stroke="#5674b9" stroke-width="0.05mm" stroke-dasharray="0.4,0.2" opacity="1.00" x1="42.31" y1="45.34" x2="42.91" y2="46.22" />
<line fill="none" stroke="#111111" stroke-width="0.05mm" x1="42.31" y1="45.34" x2="45.02" y2="43.64" />
<line fill="none" stroke="#5674b9" stroke-width="0.05mm" stroke-dasharray="0.4,0.2" opacity="0.07" x1="45.02" y1="43.64" x2="45.72" y2="44.27" />
<line fill="none" stroke="#111111" stroke-width="0.05mm" x1="45.02" y1="43.64" x2="45.11" y2="46.04" />
<line fill="none" stroke="#00aeef" stroke-width="0.05mm" stroke-dasharray="0.4,0.2" opacity="0.92" x1="45.11" y1="46.04" x2="43.12" y2="47.06" />
<line fill="none" stroke="#00aeef" stroke-width="0.05mm" stroke-dasharray="0.4,0.2" opacity="0.97" x1="45.11" y1="46.04" x2="46.03" y2="45.16" />
<line fill="none" stroke="#5674b9" stroke-width="0.05mm" stroke-dasharray="0.4,0.2" opacity="0.92" x1="45.11" y1="46.04" x2="48.62" y2="46.93" />
<line fill="none" stroke="#111111" stroke-width="0.05mm" x1="45.11" y1="46.04" x2="48.57" y2="46.92" />
<line fill="none" stroke="#111111" stroke-width="0.05mm" x1="48.57" y1="46.92" x2="53.22" y2="47.37" />
<line fill="none" stroke="#5674b9" stroke-width="0.05mm" stroke-dasharray="0.4,0.2" opacity="0.85" x1="53.22" y1="47.37" x2="54.71" y2="46.63" />
<line fill="none" stroke="#5674b9" stroke-width="0.05mm" stroke-dasharray="0.4,0.2" opacity="0.85" x1="53.22" y1="47.37" x2="51.93" y2="49.06" />
<line fill="none" stroke="#111111" stroke-width="0.05mm" x1="53.22" y1="47.37" x2="53.02" y2="50.73" />
<line fill="none" stroke="#111111" stroke-width="0.05mm" x1="53.02" y1="50.73" x2="54.42" y2="53.25" />
<line fill="none" stroke="#111111" stroke-width="0.05mm" x1="54.42" y1="53.25" x2="54.64" y2="54.33" />
<line fill="none" stroke="#111111" stroke-width="0.05mm" x1="54.64" y1="54.33" x2="59.99" y2="54.19" />
<line fill="none" stroke="#111111" stroke-width="0.05mm" x1="59.99" y1="54.19" x2="63.90" y2="55.01" />
<line fill="none" stroke="#111111" stroke-width="0.05mm" x1="63.90" y1="55.01" x2="67.25" y2="52.98" />
<line fill="none" stroke="#00aeef" stroke-width="0.05mm" stroke-dasharray="0.4,0.2" opacity="0.87" x1="67.25" y1="52.98" x2="67.25" y2="51.78" />
<line fill="none" stroke="#5674b9" stroke-width="0.05mm" stroke-dasharray="0.4,0.2" opacity="0.98" x1="67.25" y1="52.98" x2="69.37" y2="51.99" />
<line fill="none" stroke="#5674b9" stroke-width="0.05mm" stroke-dasharray="0.4,0.2" opacity="0.87" x1="67.25" y1="52.98" x2="68.24" y2="54.81" />
<line fill="none" stroke="#5674b9" stroke-width="0.05mm" stroke-dasharray="0.4,0.2" opacity="0.87" x1="67.25" y1="52.98" x2="68.23" y2="54.81" />
<line fill="none" stroke="#5674b9" stroke-width="0.05mm" stroke-dasharray="0.4,0.2" opacity="0.87" x1="67.25" y1="52.98" x2="69.12" y2="56.44" />
<line fill="none" stroke="#5674b9" stroke-width="0.05mm" stroke-dasharray="0.4,0.2" opacity="0.87" x1="67.25" y1="52.98" x2="68.23" y2="54.82" />
<line fill="none" stroke="#111111" stroke-width="0.05mm" x1="67.25" y1="52.98" x2="69.06" y2="56.58" />
<line fill="none" stroke="#5674b9" stroke-width="0.05mm" stroke-dasharray="0.4,0.2" opacity="0.82" x1="69.06" y1="56.58" x2="71.68" y2="59.37" />
<line fill="none" stroke="#5674b9" stroke-width="0.05mm" stroke-dasharray="0.4,0.2" opacity="0.83" x1="69.06" y1="56.58" x2="71.69" y2="59.30" />
<line fill="none" stroke="#5674b9" stroke-width="0.05mm" stroke-dasharray="0.4,0.2" opacity="0.83" x1="69.06" y1="56.58" x2="71.68" y2="59.31" />
<line fill="none" stroke="#00aeef" stroke-width="0.05mm" stroke-dasharray="0.4,0.2" opacity="0.81" x1="69.06" y1="56.58" x2="68.68" y2="57.50" />
<line fill="none" stroke="#111111" stroke-width="0.05mm" x1="69.06" y1="56.58" x2="69.13" y2="60.17" />
<line fill="none" stroke="#00aeef" stroke-width="0.05mm" stroke-dasharray="0.4,0.2" opacity="0.69" x1="69.13" y1="60.17" x2="68.57" y2="61.82" />
<line fill="none" stroke="#00aeef" stroke-width="0.05mm" stroke-dasharray="0.4,0.2" opacity="0.70" x1="69.13" y1="60.17" x2="68.60" y2="61.84" />
<line fill="none" stroke="#00aeef" stroke-width="0.05mm" stroke-dasharray="0.4,0.2" opacity="0.69" x1="69.13" y1="60.17" x2="68.86" y2="61.04" />
<line fill="none" stroke="#111111" stroke-width="0.05mm" x1="69.13" y1="60.17" x2="68.60" y2="61.84" />
</g>
<g>
<circle cx="20.00" cy="26.00" r="0.1" fill="#111111" />
<circle cx="26.80" cy="25.16" r="0.1" fill="#111111" />
<circle cx="29.04" cy="30.17" r="0.1" fill="#111111" />
<circle cx="28.77" cy="36.60" r="0.1" fill="#111111" />
<circle cx="29.51" cy="37.57" r="0.1" fill="#111111" />
<circle cx="28.61" cy="38.55" r="0.1" fill="#111111" />
<circle cx="31.85" cy="38.89" r="0.1" fill="#111111" />
<circle cx="33.39" cy="40.31" r="0.1" fill="#111111" />
<circle cx="34.65" cy="40.29" r="0.1" fill="#111111" />
<circle cx="35.62" cy="42.04" r="0.1" fill="#111111" />
<circle cx="34.40" cy="45.29" r="0.1" fill="#111111" />
<circle cx="36.03" cy="47.44" r="0.1" fill="#111111" />
<circle cx="37.21" cy="47.80" r="0.1" fill="#111111" />
<circle cx="39.70" cy="48.89" r="0.1" fill="#111111" />
<circle cx="42.31" cy="45.34" r="0.1" fill="#111111" />
<circle cx="45.02" cy="43.64" r="0.1" fill="#111111" />
<circle cx="45.11" cy="46.04" r="0.1" fill="#111111" />
<circle cx="48.57" cy="46.92" r="0.1" fill="#111111" />
<circle cx="53.22" cy="47.37" r="0.1" fill="#111111" />
<circle cx="53.02" cy="50.73" r="0.1" fill="#111111" />
<circle cx="54.42" cy="53.25" r="0.1" fill="#111111" />
<circle cx="54.64" cy="54.33" r="0.1" fill="#111111" />
<circle cx="59.99" cy="54.19" r="0.1" fill="#111111" />
<circle cx="63.90" cy="55.01" r="0.1" fill="#111111" />
<circle cx="67.25" cy="52.98" r="0.1" fill="#111111" />
<circle cx="69.06" cy="56.58" r="0.1" fill="#111111" />
<circle cx="69.13" cy="60.17" r="0.1" fill="#111111" />
<circle cx="68.60" cy="61.84" r="0.1" fill="#111111" />
</g>
<g>
<text x="20.20" y="26.00" font-size=".2mm" fill="#000000">0</text>
<text x="27.00" y="25.16" font-size=".2mm" fill="#000000">1</text>
<text x="29.24" y="30.17" font-size=".2mm" fill="#000000">2</text>
<text x="28.97" y="36.60" font-size=".2mm" fill="#000000">3</text>
<text x="29.71" y="37.57" font-size=".2mm" fill="#000000">4</text>
<text x="28.81" y="38.55" font-size=".2mm" fill="#000000">5</text>
<text x="32.05" y="38.89" font-size=".2mm" fill="#000000">6</text>
<text x="33.59" y="40.31" font-size=".2mm" fill="#000000">7</text>
<text x="34.85" y="40.29" font-size=".2mm" fill="#000000">8</text>
<text x="35.82" y="42.04" font-size=".2mm" fill="#000000">9</text>
<text x="34.60" y="45.29" font-size=".2mm" fill="#000000">10</text>
<text x="36.23" y="47.44" font-size=".2mm" fill="#000000">11</text>
<text x="37.41" y="47.80" font-size=".2mm" fill="#000000">12</text>
<text x="39.90" y="48.89" font-size=".2mm" fill="#000000">13</text>
<text x="42.51" y="45.34" font-size=".2mm" fill="#000000">14</text>
<text x="45.22" y="43.64" font-size=".2mm" fill="#000000">15</text>
<text x="45.31" y="46.04" font-size=".2mm" fill="#000000">16</text>
<text x="48.77" y="46.92" font-size=".2mm" fill="#000000">17</text>
<text x="53.42" y="47.37" font-size=".2mm" fill="#000000">18</text>
<text x="53.22" y="50.73" font-size=".2mm" fill="#000000">19</text>
<text x="54.62" y="53.25" font-size=".2mm" fill="#000000">20</text>
<text x="54.84" y="54.33" font-size=".2mm" fill="#000000">21</text>
<text x="60.19" y="54.19" font-size=".2mm" fill="#000000">22</text>
<text x="64.10" y="55.01" font-size=".2mm" fill="#000000">23</text>
<text x="67.45" y="52.98" font-size=".2mm" fill="#000000">24</text>
<text x="69.26" y="56.58" font-size=".2mm" fill="#000000">25</text>
<text x="69.33" y="60.17" font-size=".2mm" fill="#000000">26</text>
<text x="68.80" y="61.84" font-size=".2mm" fill="#000000">27</text>
</g>
<g>
</g>
</g>
</svg>