<?xml version="1.0" encoding="utf-8"?>
<!DOCTYPE svg PUBLIC "-//W3C//DTD SVG 1.1//EN" "http://www.w3.org/Graphics/SVG/1.1/DTD/svg11.dtd">
<svg version="1.1" id="Layer_1" xmlns="http://www.w3.org/2000/svg" xmlns:xlink="http://www.w3.org/1999/xlink" x="0px" y="0px" width="94mm" height="99mm" viewBox="0 0 94 99" enable-background="new 0 0 94 99" xml:space="preserve">
<symbol id="airflow" viewBox="-12 -12 24 24">
<path d="M-4.38,10.73l4.2-3.84V3.55L-4.07,7.13l-.31-.29L-.18,3V-6.89a3.37,3.37,0,0,0-1.68.53l1.68-4.15L0-11l.21.51h0v0l1.65,4.1A3.26,3.26,0,0,0,.24-6.89v14l-.08,0L-4.07,11Z"/>
<rect fill="none" x="-12" y="-12" width="24" height="24"/>
</symbol>
<symbol id="anastomosis" viewBox="-12 -12 24 24">
<path d="M2.23-4.78l.37.24L5.22-2.78l-.47.57L2.49-3.7l-4.61,8-.24.44-.37-.34L-5.22,2.3l.55-.52,2.1,1.82L2-4.39Z"/>
<rect fill="none" x="-12" y="-12" width="24" height="24"/>
</symbol>
<symbol id="bivouac" viewBox="-12 -12 24 24">
<path d="M.25-7.66l.24.58L.54-7l3.88.48-3.31.91L6,6H8.35v.48l-16.7.07V6.05h2.64L0-7.08Zm0,1.32L-5.13,6H-4l2.07-5L.2-4l2.09,5L4.37,6H5.44Z"/>
<rect fill="none" x="-12" y="-12" width="24" height="24"/>
</symbol>
<symbol id="bones" viewBox="-12 -12 24 24">
<path d="M2.44,4.27l-.16,0H2.13a.22.22,0,0,1-.11,0l-.1-.06a.39.39,0,0,1-.09-.11l-.08-.13a1.51,1.51,0,0,1-.06-.15l-.07-.17s0-.11-.08-.19-.06-.16-.08-.21a4.75,4.75,0,0,0-.38-.71c-.18-.29-.43-.64-.74-1A11.15,11.15,0,0,0-.7.32,6.73,6.73,0,0,0-2-.64a4.12,4.12,0,0,0-1.44-.52A1.64,1.64,0,0,1-5-2.19.72.72,0,0,1-5-2.44a1,1,0,0,1,0-.29A.52.52,0,0,1-4.87-3a.54.54,0,0,1,.35-.15L-4-3.22l.46,0a.54.54,0,0,0,.27-.06A.52.52,0,0,0-3-3.56a.74.74,0,0,0,.13-.31.54.54,0,0,1,.15-.26.54.54,0,0,1,.3-.15.83.83,0,0,1,.47,0,1.11,1.11,0,0,1,.35.4A7.46,7.46,0,0,1-1-2.76q.18.42.33.72a3.22,3.22,0,0,0,.39.57L.1-1a4.77,4.77,0,0,0,.58.43c.28.18.51.33.69.43l1,.56a1.84,1.84,0,0,0,.39.23A5.29,5.29,0,0,1,3.22.9l.43.26a3.7,3.7,0,0,1,.46.3l.36.29a2.28,2.28,0,0,1,.31.32A1,1,0,0,1,5,2.4c.2.48,0,.78-.47.91h0a8.48,8.48,0,0,0-1.12.09,1,1,0,0,0-.42.44A1,1,0,0,1,2.44,4.27Z"/>
<rect fill="none" x="-12" y="-12" width="24" height="24"/>
</symbol>
<symbol id="calcite" viewBox="-12 -12 24 24">
<path d="M2.36-2.22l.05.46.34,3.91L2,2.22,1.65-1.26-2.52-.06l-.23-.7L1.89-2.08Z"/>
<rect fill="none" x="-12" y="-12" width="24" height="24"/>
</symbol>
<symbol id="cauliflower" viewBox="-12 -12 24 24">
<path d="M5.58,3.22v-3A2.12,2.12,0,0,0,6.92-.43a1.78,1.78,0,0,0,.55-1.32,1.92,1.92,0,0,0-.65-1.42,2.19,2.19,0,0,0-1.53-.59,2.21,2.21,0,0,0-1.54.59,1.78,1.78,0,0,0-.64,1.42A1.86,1.86,0,0,0,3.65-.43,2.12,2.12,0,0,0,5,.23v3H.26v-3A2.17,2.17,0,0,0,1.61-.43a1.81,1.81,0,0,0,.54-1.32,1.91,1.91,0,0,0-.64-1.42A2.21,2.21,0,0,0,0-3.76a2.21,2.21,0,0,0-1.54.59,1.82,1.82,0,0,0-.64,1.42A1.83,1.83,0,0,0-1.66-.43,2.12,2.12,0,0,0-.32.23v3H-5v-3A2.12,2.12,0,0,0-3.71-.43a1.78,1.78,0,0,0,.55-1.32,1.92,1.92,0,0,0-.65-1.42,2.19,2.19,0,0,0-1.53-.59,2.21,2.21,0,0,0-1.54.59,1.83,1.83,0,0,0-.65,1.42A1.87,1.87,0,0,0-7-.43,2.12,2.12,0,0,0-5.64.23v3H-8v.54H8V3.22Z"/>
<rect fill="none" x="-12" y="-12" width="24" height="24"/>
</symbol>
<symbol id="clay" viewBox="-12 -12 24 24">
<path d="M1.85-1.33a3,3,0,0,1,1.67.48,3.23,3.23,0,0,1,1,1l.29.51-1,.43a3.81,3.81,0,0,0-.23-.4A3.74,3.74,0,0,0,2.93,0,1.77,1.77,0,0,0,1.85-.32a2.57,2.57,0,0,0-1.1.15A.86.86,0,0,0,.51.14,2.23,2.23,0,0,1,0,.88a2.55,2.55,0,0,1-1.45.43,3.16,3.16,0,0,1-2.75-1,4.28,4.28,0,0,1-.37-.57,3.91,3.91,0,0,1-.21-.47l0-.16,1-.22a1.87,1.87,0,0,0,.45.79A2.12,2.12,0,0,0-1.51.33,1.82,1.82,0,0,0-.69.14l.21-.36A1.53,1.53,0,0,1,.17-1,3.76,3.76,0,0,1,1.85-1.33Z"/>
<rect fill="none" x="-12" y="-12" width="24" height="24"/>
</symbol>
<symbol id="crystals" viewBox="-12 -12 24 24">
<path d="M-2.94-5.38,0-.72,2.94-5.38,3.62-5,.68-.36H6.56V.36H.68L3.62,5l-.68.36L0,.72-2.94,5.38-3.62,5-.68.36H-6.56V-.36H-.68L-3.62-5Z"/>
<rect fill="none" x="-12" y="-12" width="24" height="24"/>
</symbol>
<symbol id="curtain" viewBox="-12 -12 24 24">
<path d="M3.57-6.69l.52.53L.39-3V-.33L.1-.26a3.79,3.79,0,0,0-1,.41c-.58.3-.87.65-.87,1v.07A1.61,1.61,0,0,0-.84,2.48a3.69,3.69,0,0,0,.45.24L0,2.86l.13.05L.39,3V6.12H-.39V3.51a7.65,7.65,0,0,1-.9-.46A2.19,2.19,0,0,1-2.54,1.28V1.23A2,2,0,0,1-1.31-.48,5.32,5.32,0,0,1-.39-.86V-3l-3.7-3.14.52-.53L0-3.67Z"/>
<rect fill="none" x="-12" y="-12" width="24" height="24"/>
</symbol>
<symbol id="disk" viewBox="-12 -12 24 24">
<path d="M-.09-4.19a2.43,2.43,0,0,1,1.7.64A2,2,0,0,1,2.35-2,2.09,2.09,0,0,1,1.81-.55,2.44,2.44,0,0,1,.35.23l2.18,3.6-.68.33L0,1.14-1.48,4.19l-.71-.29L-.41.25A2.53,2.53,0,0,1-1.9-.47a2,2,0,0,1-.63-1.41,2,2,0,0,1,.67-1.61,2.46,2.46,0,0,1,1.72-.7ZM1.05-3.06.56-3.49l-.69,0A1.72,1.72,0,0,0-1.29-3a1.51,1.51,0,0,0-.45,1.08,1.36,1.36,0,0,0,.51,1A1.68,1.68,0,0,0-.07-.44v0l0,0A1.7,1.7,0,0,0,1.11-.92,1.36,1.36,0,0,0,1.56-2,1.47,1.47,0,0,0,1.05-3.06Z"/>
<rect fill="none" x="-12" y="-12" width="24" height="24"/>
</symbol>
<symbol id="entrance" viewBox="-12 -12 24 24">
<path d="M4.46,9H-4.46L0-9Z"/>
<rect fill="none" x="-12" y="-12" width="24" height="24"/>
</symbol>
<symbol id="flowstone" viewBox="-12 -12 24 24">
<rect x="-6" y="-0.21" width="12" height="0.42"/>
<rect fill="none" x="-12" y="-12" width="24" height="24"/>
</symbol>
<symbol id="flutes" viewBox="-12 -12 24 24">
<path d="M-7-1H7v.72H3.87A4.7,4.7,0,0,1,2.16,1.5,4.2,4.2,0,0,1,0,2.13,3.94,3.94,0,0,1-2.19,1.5,4.18,4.18,0,0,1-3.76-.27H-7Zm4.17.72A3.15,3.15,0,0,0-1.65,1,3.21,3.21,0,0,0,0,1.41,3.49,3.49,0,0,0,1.6,1,3.68,3.68,0,0,0,3-.27Z"/>
<rect fill="none" x="-12" y="-12" width="24" height="24"/>
</symbol>
<symbol id="gradient" viewBox="-12 -12 24 24">
<path d="M2.58-3.83,0-10-2.58-3.83A4.74,4.74,0,0,1-.17-4.5V10H.25V-4.5A6.65,6.65,0,0,1,2.58-3.83Z"/>
<rect fill="none" x="-12" y="-12" width="24" height="24"/>
</symbol>
<symbol id="guano" viewBox="-12 -12 24 24">
<path d="M-3.24-3a2.15,2.15,0,0,1,1.57.55A3.93,3.93,0,0,1-.59.24a4.32,4.32,0,0,1,2.75-2.3,2.68,2.68,0,0,1,2.23.36A2.36,2.36,0,0,1,5.5.19l-.79,0a1.72,1.72,0,0,0-.79-1.37,1.94,1.94,0,0,0-1.55-.24A3.53,3.53,0,0,0,.48,0,6.63,6.63,0,0,0-.69,3l-.79-.09a10.72,10.72,0,0,0,0-3.16A3.21,3.21,0,0,0-2.22-2,1.44,1.44,0,0,0-3.37-2.3,3.45,3.45,0,0,0-5-1.54l-.5-.55a4.29,4.29,0,0,1,2-.91A.9.9,0,0,1-3.24-3Z"/>
<rect fill="none" x="-12" y="-12" width="24" height="24"/>
</symbol>
<symbol id="helictites" viewBox="-12 -12 24 24">
<path d="M-4.59-7.92h.79v7.7l3.41,0V-7.92H.39V-.17L4.2-.12h.39v8H3.8V.6L.39.55V7.92H-.39V.55L-4.2.5l-.39,0v-8.4Z"/>
<rect fill="none" x="-12" y="-12" width="24" height="24"/>
</symbol>
<symbol id="human" viewBox="-12 -12 24 24">
<path d="M-3.59-3.29A5.13,5.13,0,0,1,0-4.66,5.13,5.13,0,0,1,3.59-3.29,4.3,4.3,0,0,1,5.09,0a4.3,4.3,0,0,1-1.5,3.29A5.13,5.13,0,0,1,0,4.66,5.13,5.13,0,0,1-3.59,3.29,4.3,4.3,0,0,1-5.09,0,4.3,4.3,0,0,1-3.59-3.29Zm.28.77A3.68,3.68,0,0,0-4.3,0a3.62,3.62,0,0,0,1,2.57L-.5.05ZM0-3.94A4.42,4.42,0,0,0-2.75-3L.16-.36H4.28A3.62,3.62,0,0,0,2.91-2.9,4.38,4.38,0,0,0,0-3.94ZM.16.46-2.7,3.07A4.42,4.42,0,0,0,0,3.94a4.37,4.37,0,0,0,2.87-1A3.78,3.78,0,0,0,4.28.46Z"/>
<rect fill="none" x="-12" y="-12" width="24" height="24"/>
</symbol>
<symbol id="karren" viewBox="-12 -12 24 24">
<path d="M1-5.84h0a1.37,1.37,0,0,1,1.06.68A3.33,3.33,0,0,1,2.5-3.79,25.79,25.79,0,0,1,2.36,0a18.61,18.61,0,0,0-.08,3.72,2.68,2.68,0,0,0,.41,1.2,1.13,1.13,0,0,0,.79.5A.92.92,0,0,0,4,4.94a4.43,4.43,0,0,0,.47-1.22c.16-.64.36-1.86.59-3.66a26.71,26.71,0,0,1,.64-3.69,4.62,4.62,0,0,1,.57-1.29,1.34,1.34,0,0,1,1-.59h0A1.28,1.28,0,0,1,8.37-5a2.17,2.17,0,0,1,.39,1.15A19.91,19.91,0,0,1,8.54-.53a21.51,21.51,0,0,0-.2,3.64A2.64,2.64,0,0,0,9.45,5.36,1.91,1.91,0,0,0,10.88,5a3.84,3.84,0,0,0,.7-1l.42.2-.1.18-.12.21-.11.18L11.52,5a.94.94,0,0,1-.14.16c-.06.07-.13.12-.19.18a2.5,2.5,0,0,1-1.85.41H9.29l0,0A3.06,3.06,0,0,1,7.87,3.13a22.11,22.11,0,0,1,.2-3.7,18.17,18.17,0,0,0,.22-3.28A1.85,1.85,0,0,0,8-4.79a.77.77,0,0,0-.67-.3.93.93,0,0,0-.64.42,4.51,4.51,0,0,0-.51,1.15A26.26,26.26,0,0,0,5.54.1c-.24,1.83-.45,3.07-.61,3.72a5.38,5.38,0,0,1-.51,1.34,1.33,1.33,0,0,1-.89.68H3.47A1.58,1.58,0,0,1,2.3,5.16a3.29,3.29,0,0,1-.49-1.4A20.27,20.27,0,0,1,1.89,0,23.45,23.45,0,0,0,2-3.75a2.94,2.94,0,0,0-.32-1.19A.93.93,0,0,0,1-5.42,1.1,1.1,0,0,0,.19-5,3.69,3.69,0,0,0-.43-3.76,20.78,20.78,0,0,0-1.07.07c-.2,2-.37,3.32-.49,3.86A4.48,4.48,0,0,1-2,5.26,1.06,1.06,0,0,1-3,5.81h0a1.9,1.9,0,0,1-1.29-.67,2.7,2.7,0,0,1-.58-1.31,14.92,14.92,0,0,1,0-3.6q0-.12.06-.54c0-.28,0-.47,0-.57s0-.28,0-.52,0-.42,0-.55,0-.28,0-.47,0-.36,0-.51,0-.29,0-.43A3.09,3.09,0,0,0-5-4.62a1.19,1.19,0,0,0-.67-.6,1.5,1.5,0,0,0-1.2.9A7,7,0,0,0-7.41-2.1c0,.39-.1,1-.14,1.76s-.11,1.47-.18,2.08A9.61,9.61,0,0,1-8,3.32h0l0,0A2.81,2.81,0,0,1-9.2,4.62a1.82,1.82,0,0,1-1.35.15A1.94,1.94,0,0,1-11.61,4,2.39,2.39,0,0,1-12,2.56l.47,0a1.92,1.92,0,0,0,.31,1.16,1.47,1.47,0,0,0,.81.62,1.3,1.3,0,0,0,1-.11A2.32,2.32,0,0,0-8.5,3.18a7.53,7.53,0,0,0,.29-1.5Q-8.1.8-8-.36c0-.78.1-1.37.16-1.78A7.23,7.23,0,0,1-7.28-4.5,1.93,1.93,0,0,1-5.65-5.66h.05l0,0a1.59,1.59,0,0,1,1,.84,3.47,3.47,0,0,1,.34,1.41,4.91,4.91,0,0,1,0,.57v.54c0,.15,0,.37,0,.66s0,.47,0,.58,0,.33-.06.68,0,.56-.06.63a14.78,14.78,0,0,0,0,3.49,2.58,2.58,0,0,0,.5,1.13,1.57,1.57,0,0,0,1,.5A.61.61,0,0,0-2.44,5,3.89,3.89,0,0,0-2,3.85C-1.9,3.31-1.74,2-1.53,0A20.65,20.65,0,0,1-.86-3.89,3.89,3.89,0,0,1-.18-5.26,1.58,1.58,0,0,1,1-5.84Z"/>
<rect fill="none" x="-12" y="-12" width="24" height="24"/>
</symbol>
<symbol id="moonmilk" viewBox="-12 -12 24 24">
<path d="M-4.78-3.06a3.39,3.39,0,0,1,1.5.34,2.48,2.48,0,0,1,1.1,1,3.74,3.74,0,0,1,1.62-.8,3.52,3.52,0,0,1,1.71,0,2.9,2.9,0,0,1,1.39.77A2.49,2.49,0,0,1,3.25-.37,4,4,0,0,1,5-.76a3.58,3.58,0,0,1,1.6.36A2.84,2.84,0,0,1,7.88.92a2.32,2.32,0,0,1,0,1.88.34.34,0,0,1-.37.26A.36.36,0,0,1,7.25,3a.32.32,0,0,1-.12-.25.21.21,0,0,1,0-.12,2,2,0,0,0,0-1.43,2,2,0,0,0-1-.9A2.81,2.81,0,0,0,4.68,0,2.78,2.78,0,0,0,3.12.56L2.46.25A1.7,1.7,0,0,0,2.15-1.1,2.15,2.15,0,0,0,1-1.81a2.85,2.85,0,0,0-1.58.06A3,3,0,0,0-2-.83l-.71-.12A1.74,1.74,0,0,0-3.55-2a2.36,2.36,0,0,0-1.39-.27,3.08,3.08,0,0,0-1.45.53A2.33,2.33,0,0,0-7.32-.56a.35.35,0,0,1-.37.24A.39.39,0,0,1-8-.42a.33.33,0,0,1-.1-.26v-.1A3,3,0,0,1-6.89-2.35,4,4,0,0,1-5-3Z"/>
<rect fill="none" x="-12" y="-12" width="24" height="24"/>
</symbol>
<symbol id="narrow" viewBox="-12 -12 24 24">
<path d="M-1.5,5V-5h0.64V5H-1.5z"/>
<path d="M0.86,5V-5H1.5V5H0.86z"/>
<rect fill="none" x="-12" y="-12" width="24" height="24"/>
</symbol>
<symbol id="paleoflow" viewBox="-12 -12 24 24">
<path d="M.38-12V.17A1.9,1.9,0,0,0,1,0,1.57,1.57,0,0,0,1.7-.72a1.86,1.86,0,0,0,.23-1c0-.09,0-.14.08-.16a.92.92,0,0,1,.24,0,.52.52,0,0,0,.25,0h.08A2.48,2.48,0,0,1,2,0,2.5,2.5,0,0,1,.38.77V7.21H2.09L0,12-1.8,7.23c.07,0,.59,0,1.53,0V.77A3,3,0,0,1-1.35.43a2.16,2.16,0,0,1-1-1,2.38,2.38,0,0,1-.24-1.33l.67,0a2,2,0,0,0,.15,1,1.73,1.73,0,0,0,.59.67A2.14,2.14,0,0,0-.27.16V-12Z"/>
<rect fill="none" x="-12" y="-12" width="24" height="24"/>
</symbol>
<symbol id="rain" viewBox="-12 -12 24 24">
<path d="M-4.14-6.34h0.71v4.69h-0.71V-6.34z"/>
<path d="M-0.35-6.34h0.71v4.69h-0.71V-6.34z"/>
<path d="M3.43-6.34h0.71v4.69H3.43V-6.34z"/>
<path d="M-4.14,1.65h0.71v4.69h-0.71V1.65z"/>
<path d="M-0.35,1.65h0.71v4.69h-0.71V1.65z"/>
<path d="M3.43,1.65h0.71v4.69H3.43V1.65z"/>
<rect fill="none" x="-12" y="-12" width="24" height="24"/>
</symbol>
<symbol id="rats" viewBox="-12 -12 24 24">
<path d="M8.78-2.32,7-2.27c-.51-.17-.65-.56-1.46-.45l-.25.45C3.59-2.75,2.59-3.66.56-3.62l-1.35.3A4.89,4.89,0,0,0-4.24,1.57c-.68.6-2.58.86-3.39.94a6.84,6.84,0,0,0-1.62.39,4.91,4.91,0,0,0-1,.52A1.75,1.75,0,0,0-11,4.61a1.16,1.16,0,0,0,.59,1.48,1.3,1.3,0,0,1,.14.12c.16-.52-.35-.92-.2-1.42a3.35,3.35,0,0,1,.27-.45,3.18,3.18,0,0,1,1.79-1c.63-.12,1.27-.22,1.91-.3.48-.07,1,0,1.4-.12A6.94,6.94,0,0,1-4,2.82,30.64,30.64,0,0,0,.41,2.69l2.16.15c.1-.09,0,0,.1-.15a.87.87,0,0,0-.9-.55c.86-1,2.27-.37,3.1-.05.5.19,1,0,1.25.4.11-.1.1-.07.15-.25.3,0,.31.07.6.15-.06-.49-.34-.64-1-.6a.78.78,0,0,1,0-.55C6.3.56,7.29.73,8.13.43a13.78,13.78,0,0,0,2.15-.9l.6-.85v-.2A16.9,16.9,0,0,0,8.78-2.32Z"/>
<rect fill="none" x="-12" y="-12" width="24" height="24"/>
</symbol>
<symbol id="sand" viewBox="-12 -12 24 24">
<path d="M-1.58,0.83c0.23,0.2,0.35,0.44,0.36,0.73c0.01,0.29-0.08,0.54-0.28,0.75c-0.2,0.21-0.46,0.32-0.78,0.33c-0.32,0.01-0.6-0.08-0.83-0.26C-3.36,2.19-3.49,1.95-3.5,1.67C-3.51,1.38-3.41,1.12-3.2,0.9c0.21-0.22,0.48-0.34,0.8-0.35C-2.08,0.54-1.81,0.64-1.58,0.83z"/>
<path d="M0.08-2.36c0.23,0.2,0.35,0.44,0.36,0.73c0.01,0.29-0.08,0.54-0.28,0.75c-0.2,0.21-0.46,0.32-0.78,0.33c-0.32,0.01-0.59-0.07-0.83-0.26s-0.37-0.42-0.38-0.71c-0.01-0.29,0.09-0.54,0.3-0.76c0.21-0.22,0.48-0.33,0.8-0.35C-0.42-2.65-0.14-2.56,0.08-2.36z"/>
<path d="M3.12,0.55c0.23,0.2,0.35,0.43,0.38,0.71c0.02,0.28-0.07,0.53-0.28,0.75C3,2.23,2.73,2.35,2.42,2.36C2.1,2.37,1.82,2.28,1.58,2.08C1.34,1.88,1.22,1.64,1.2,1.35c-0.01-0.29,0.09-0.54,0.3-0.75C1.72,0.4,1.99,0.29,2.3,0.28S2.89,0.36,3.12,0.55z"/>
<rect fill="none" x="-12" y="-12" width="24" height="24"/>
</symbol>
<symbol  id="scallops" viewBox="-12 -12 24 24">
<path d="M.05-3.74l.21,0A2.35,2.35,0,0,1,1.74-3a2,2,0,0,1,.59,1.55v0l0,0A9.59,9.59,0,0,1-.08,3.27l-.39.47-.27-.55A14.26,14.26,0,0,1-2.33-1.89v-.05l0-.05A2,2,0,0,1-1.44-3.3,2.42,2.42,0,0,1,.05-3.74ZM-.11-3A1.44,1.44,0,0,0-1.55-1.89,13.06,13.06,0,0,0-.29,2.33,8.6,8.6,0,0,0,1.55-1.54a1.41,1.41,0,0,0-.38-1A1.62,1.62,0,0,0,.18-3Z"/>
<rect fill="none" x="-12" y="-12" width="24" height="24"/>
</symbol>
<symbol  id="sink" viewBox="-12 -12 24 24">
<path d="M.72,9.41H.9c1.94,0,3.26-.54,3.94-1.51a3.61,3.61,0,0,0,.33-.69,2,2,0,0,0,.11-.54V6.46l.69,0a2.8,2.8,0,0,1-.58,1.78C4.58,9.39,3.1,10,.93,10H-.93q-3.25,0-4.46-1.8a2.74,2.74,0,0,1-.43-.83A2.37,2.37,0,0,1-6,6.67V6.43l.68,0A2.27,2.27,0,0,0-4.84,7.9c.68,1,2,1.47,3.93,1.48l.5,0ZM-1.46-10a.68.68,0,0,0,.16.41A2.77,2.77,0,0,0-.51-9l0,0a3.63,3.63,0,0,1,1,.7,1.15,1.15,0,0,1,.34.88c0,.58-.53,1.14-1.49,1.68-.68.42-1,.79-1,1.11s.3.61.84,1h0Q.61-2.86.46-1.78a3.51,3.51,0,0,1-1.55,2,.61.61,0,0,0-.26.41,1.67,1.67,0,0,0,.1.51,5.3,5.3,0,0,1,.32,1L.56,1.9.46,8.06-3.4,2.54l1.73-.28A6.16,6.16,0,0,0-2,1.39,1.7,1.7,0,0,1-2.09.58a1.21,1.21,0,0,1,.53-.82h0v0C-.75-.86-.33-1.38-.28-1.85s-.23-.87-.91-1.27h0C-2-3.6-2.37-4.1-2.4-4.61S-2-5.74-1.09-6.29C-.34-6.72.06-7.1.09-7.44a.67.67,0,0,0-.18-.43,3.17,3.17,0,0,0-.79-.58,2.93,2.93,0,0,1-1-.67A1.16,1.16,0,0,1-2.17-10Z"/>
<rect fill="none" x="-12" y="-12" width="24" height="24"/>
</symbol>
<symbol  id="spring" viewBox="-12 -12 24 24">
<path d="M-1.34-9.86,2.52-4.34.78-4.06a8,8,0,0,0,.29.87,1.4,1.4,0,0,1,.13.79,1.3,1.3,0,0,1-.52.84l0,0v0C-.13-.95-.55-.42-.61,0S-.37.91.31,1.3l0,0c.75.46,1.14,1,1.18,1.46S1.12,3.92.21,4.46C-.54,4.9-.94,5.29-1,5.64a.74.74,0,0,0,.18.43A3.2,3.2,0,0,0,0,6.62a3,3,0,0,1,1,.7,1.14,1.14,0,0,1,.31.86A1.74,1.74,0,0,1,.71,9.26H.92c1.92,0,3.22-.52,3.9-1.51a2.05,2.05,0,0,0,.35-.67,2.59,2.59,0,0,0,.1-.55l0-.19.65,0a2.84,2.84,0,0,1-.55,1.8C4.58,9.26,3.08,9.85.92,9.86H-.92c-2.17,0-3.66-.6-4.49-1.77a3.65,3.65,0,0,1-.4-.85A2.43,2.43,0,0,1-6,6.53V6.29l.66,0a2.08,2.08,0,0,0,.47,1.41c.68,1,2,1.5,3.91,1.51H-.4c.62-.43.94-.8,1-1.1a.76.76,0,0,0-.16-.43,3.25,3.25,0,0,0-.79-.51v0a3.8,3.8,0,0,1-1-.7,1.15,1.15,0,0,1-.34-.91q.06-.84,1.5-1.68c.68-.4,1-.77,1-1.1S.49,2.21,0,1.87c0,0,0,0,0,0C-1,1.32-1.44.69-1.34,0a3.58,3.58,0,0,1,1.55-2,.54.54,0,0,0,.23-.38A1.28,1.28,0,0,0,.37-3a4.57,4.57,0,0,1-.32-1l-1.49.24Z"/>
<rect fill="none" x="-12" y="-12" width="24" height="24"/>
</symbol>
<symbol  id="stalactite" viewBox="-12 -12 24 24">
<path d="M3.57-6.69l.52.53L.39-3V6.12H-.39V-3l-3.7-3.14.52-.53L0-3.67Z"/>
<rect fill="none" x="-12" y="-12" width="24" height="24"/>
</symbol>
<symbol  id="stalagmite" viewBox="-12 -12 24 24">
<path d="M.38-6.42V2.75L4.11,5.89l-.56.53L0,3.4l-3.57,3-.53-.53,3.7-3.14V-6.42Z"/>
<rect fill="none" x="-12" y="-12" width="24" height="24"/>
</symbol>
<symbol  id="stalagnate" viewBox="-12 -12 24 24">
<path d="M3.55-8.46l.56.53L.38-4.78v9L4.11,7.36l-.56.53L0,4.86l-3.57,3-.53-.53,3.7-3.14v-9l-3.7-3.15.53-.53L0-5.43Z"/>
<rect fill="none" x="-12" y="-12" width="24" height="24"/>
</symbol>
<symbol  id="straws" viewBox="-12 -12 24 24">
<path d="M-10.89-2.76H10.89V-2H9.63V.46H8.84V-2H8.29v5.6H7.5V-2H5.56V.7H4.77V-2H2.07V2.38H1.29V-2H-.1v3H-.89V-2H-3.2V4.11H-4V-2H-6.22L-6.16.75l-.79,0L-7-2H-8.32V2.33H-9.1V-2h-1.79Z"/>
<rect fill="none" x="-12" y="-12" width="24" height="24"/>
</symbol>
<symbol  id="water" viewBox="-12 -12 24 24">
<path d="M-1.72-9.86,2.11-4.32.38-4.06a6.49,6.49,0,0,0,.29.89,1.5,1.5,0,0,1,.13.79,1.2,1.2,0,0,1-.5.82h0l0,0C-.54-.94-1-.42-1,.05s.24.89.92,1.27h0c.77.48,1.17,1,1.19,1.49S.71,3.94-.2,4.49c-.75.43-1.13.81-1.15,1.15a.51.51,0,0,0,.18.43,2.66,2.66,0,0,0,.76.58,2.93,2.93,0,0,1,1,.67,1.16,1.16,0,0,1,.29.89C.84,8.75.42,9.3-.41,9.86l-.44-.55c.66-.45,1-.83,1-1.15A.47.47,0,0,0,0,7.75a2.84,2.84,0,0,0-.78-.53h0a3.87,3.87,0,0,1-1-.69,1.24,1.24,0,0,1-.34-.91c0-.58.54-1.14,1.52-1.68.66-.42,1-.79,1-1.11s-.3-.61-.84-1h0Q-1.9,1.06-1.74,0a3.44,3.44,0,0,1,1.54-2,.67.67,0,0,0,.27-.41A1.11,1.11,0,0,0,0-3a4.33,4.33,0,0,1-.31-1l-1.5.24Z"/>
<rect fill="none" x="-12" y="-12" width="24" height="24"/>
</symbol><symbol  id="tree" viewBox="-12 -12 24 24">
<path d="M7.4-5.04A4.271,4.271,0,0,0,7.7-6.627a4.3,4.3,0,0,0-4.3-4.3A4.279,4.279,0,0,0,.636-9.914,4.293,4.293,0,0,0-3.045-12a4.3,4.3,0,0,0-4.3,4.3,4.27,4.27,0,0,0,.421,1.845,4.3,4.3,0,0,0-3.645,4.244,4.3,4.3,0,0,0,4.3,4.3A4.282,4.282,0,0,0-3.946,2L-1.175,5.23h0L-1.612,12H.982L.757,6.376,4.119,2.827v0a4.272,4.272,0,0,0,2.15.58,4.3,4.3,0,0,0,4.3-4.3A4.3,4.3,0,0,0,7.4-5.04ZM-3.346,1.538h0A4.346,4.346,0,0,0-2.7.788a4.266,4.266,0,0,0,1.765.753l-.135,2.087ZM.69,4.7.563,1.544A4.258,4.258,0,0,0,2.321.805,4.3,4.3,0,0,0,3.378,2.279Z"/>
<rect fill="none" x="-12" y="-12" width="24" height="24"/>
</symbol><g>
<desc></desc>
<g>
<line fill="none" stroke="#dddddd" stroke-width="0.1mm" x1="0.00" y1="56.00" x2="94.00" y2="56.00" />
<text x="91.20" y="55.80" font-size=".2mm" fill="#000000">0m</text>
<line fill="none" stroke="#dddddd" stroke-width="0.1mm" x1="0.00" y1="36.00" x2="94.00" y2="36.00" />
<text x="91.20" y="35.80" font-size=".2mm" fill="#000000">10m</text>
<line fill="none" stroke="#dddddd" stroke-width="0.1mm" x1="0.00" y1="16.00" x2="94.00" y2="16.00" />
<text x="91.20" y="15.80" font-size=".2mm" fill="#000000">20m</text>
<line fill="none" stroke="#dddddd" stroke-width="0.1mm" x1="0.00" y1="76.00" x2="94.00" y2="76.00" />
<text x="91.20" y="75.80" font-size=".2mm" fill="#000000">-10m</text>
<line fill="none" stroke="#dddddd" stroke-width="0.1mm" x1="0.00" y1="96.00" x2="94.00" y2="96.00" />
<text x="91.20" y="95.80" font-size=".2mm" fill="#000000">-20m</text>
</g>
<g>
<path fill="none" stroke="#000000" stroke-width="0.06mm" d="M22.537296,61.27536 C22.430393,61.23436 22.325836,61.186615 22.216585,61.15236 C22.068016,61.10577 21.894424,61.10039 21.744068,61.14183 C21.616814,61.176907 21.473957,61.301804 21.340107,61.261356 C21.26167,61.237656 21.193687,61.15058 21.143148,61.102936 L21.143148,61.102936" /><path fill="none" stroke="#000000" stroke-width="0.06mm" d="M21.125313,61.07618 L21.00978,61.002262" /><path fill="none" stroke="#000000" stroke-width="0.06mm" d="M20.92615,60.942406 L20.908714,60.90416" /><path fill="none" stroke="#000000" stroke-width="0.06mm" d="M21.30664,60.597565 C21.294403,60.278175 21.251137,59.98433 21.307518,59.674183 C21.31797,59.616676 21.340164,59.56193 21.357351,59.506065 C21.38123,59.42845 21.407223,59.35149 21.430714,59.273758 C21.439915,59.243313 21.442892,59.210835 21.455408,59.181595 C21.473093,59.14028 21.498915,59.102943 21.520668,59.063618 L21.520668,59.063618" /><path fill="none" stroke="#000000" stroke-width="0.06mm" d="M23.698708,56.082714 C25.52605,53.530727 25.050259,53.830185 27.039352,52.107063 C27.18549,51.98047 27.52955,51.762177 27.753664,51.69176 C28.67872,51.401104 27.25545,52.017017 28.999245,51.49866 C29.463371,51.360695 29.909218,51.162453 30.343834,50.949017 C30.928947,50.661667 32.271904,49.302166 32.36851,49.2092 C32.62323,48.964096 32.827953,48.66647 33.102413,48.44369 C33.67096,47.9822 34.31039,47.61409 34.88807,47.164085 C35.30232,46.841393 35.653942,46.37583 35.916805,45.929413 C36.1657,45.506725 36.44774,45.09353 36.606136,44.629284 C37.072598,43.262123 37.33233,41.830925 37.783394,40.458607 C37.91671,40.05301 38.163746,39.694107 38.35392,39.311863 C38.546257,38.772743 38.754578,38.23906 38.930927,37.694504 C39.023327,37.40917 39.074665,37.11193 39.159496,36.824257 C39.222237,36.611496 39.320015,36.409412 39.37338,36.194107 C39.452347,35.875477 39.476154,35.544815 39.555546,35.22629 C39.59261,35.077583 39.872345,34.49819 39.914597,34.387947 C40.037582,34.067043 39.904224,33.714485 40.013374,33.39413 C40.049187,33.289024 40.185772,33.168583 40.23526,33.112125 L40.23526,33.112125" /><path fill="none" stroke="#000000" stroke-width="0.06mm" d="M42.964104,33.959366 C42.956184,34.07861 42.93974,34.1976 42.940346,34.31711 C42.946392,35.509155 43.07718,35.37176 42.773895,36.777794 C42.66226,37.295334 42.448536,37.78608 42.31541,38.298515 C42.246544,38.563614 42.22684,38.83935 42.16879,39.10703 C42.121357,39.32575 42.055717,39.540123 41.999184,39.756668 C41.897797,40.44948 41.821667,41.146458 41.69502,41.8351 C41.632286,42.176216 41.45446,42.37452 41.493855,42.710022 C41.516853,42.905907 41.695114,42.977512 41.866066,42.99214 C42.012985,43.004715 42.16076,43.009766 42.306797,43.03018 C42.423573,43.046505 42.536438,43.085243 42.653126,43.102165 C42.80785,43.124603 42.988266,43.077988 43.11151,42.98198 C43.237858,42.883556 43.32241,42.75431 43.380226,42.606373 C43.551952,42.166935 43.717148,41.724968 43.88561,41.284267 L43.88561,41.284267" /><path fill="none" stroke="#000000" stroke-width="0.06mm" d="M45.417557,46.97209 C45.261562,47.01702 45.106873,47.066742 44.949577,47.10688 C44.786892,47.1484 44.78468,47.116882 44.6716,47.174187 C44.543816,47.238945 44.53183,47.363434 44.357502,47.369907 C44.273697,47.37302 44.19491,47.35434 44.122276,47.312294 C44.063984,47.27855 44.03277,47.2353 43.969276,47.229702 C43.918686,47.225243 43.8916,47.25065 43.851208,47.274395 C43.83921,47.28145 43.826477,47.287323 43.813442,47.292213 C43.709435,47.33125 43.604633,47.36815 43.50023,47.406116 L43.50023,47.406116" /><path fill="none" stroke="#000000" stroke-width="0.06mm" d="M43.479424,47.370445 L43.470905,47.3976" /><path fill="none" stroke="#000000" stroke-width="0.06mm" d="M43.54779,47.370445 L43.57792,47.367874" /><path fill="none" stroke="#000000" stroke-width="0.06mm" d="M44.478218,40.220932 C44.70596,39.766716 44.88802,39.277313 45.235004,38.894226 C45.456474,38.64971 45.738827,38.460472 45.937614,38.19718 C46.48019,37.478554 46.91845,36.68565 47.45082,35.959435 C47.74768,35.55448 48.424065,34.970875 48.786755,34.655235 C48.96543,34.49974 49.15849,34.36081 49.33206,34.19964 C49.529636,34.016174 49.704926,33.809895 49.898857,33.622585 C50.0244,33.50133 50.17016,33.401367 50.289955,33.274437 C50.51545,33.03551 50.70784,32.766785 50.93264,32.527206 C51.154083,32.2912 51.399345,32.078644 51.62741,31.849026 C52.259197,31.212936 52.449314,30.942818 53.183308,30.32379 C54.88341,28.889978 54.28134,29.650194 55.41443,28.34485 C55.53004,28.211662 55.624763,28.061493 55.73714,27.925566 C56.110798,27.473589 57.095333,26.448088 57.43479,25.738585 C57.605164,25.382496 57.69944,24.994452 57.84928,24.62925 C58.03106,24.186213 58.426605,23.698635 58.694603,23.369839 C58.79998,23.240562 58.931458,23.134964 59.04988,23.01752 L59.04988,23.01752" /><path fill="none" stroke="#000000" stroke-width="0.06mm" d="M44.42798,47.817364 L44.29469,47.80066" /><path fill="none" stroke="#000000" stroke-width="0.06mm" d="M44.031586,47.432606 L43.997395,47.28765" /><path fill="none" stroke="#000000" stroke-width="0.06mm" d="M44.853516,47.298523 C44.830193,46.983185 44.82783,46.726154 44.974533,46.45116 C45.05518,46.299984 45.156322,46.15966 45.228558,46.004288 C45.365067,45.71067 45.475964,45.40581 45.599667,45.106575 L45.599667,45.106575" /><path fill="none" stroke="#000000" stroke-width="0.06mm" d="M72.75015,22.192081 L72.75094,22.192867" /><path fill="none" stroke="#000000" stroke-width="0.06mm" d="M46.10099,45.298958 L47.733196,43.631676" /><path fill="none" stroke="#000000" stroke-width="0.06mm" d="M46.77719,44.208813 C48.52246,41.37321 47.69702,42.292027 48.823277,41.119095 L48.823277,41.119095" /><path fill="none" stroke="#000000" stroke-width="0.06mm" d="M48.840763,41.41058 C50.847275,37.514446 48.6065,41.54416 52.40261,36.332916 C52.770973,35.827232 52.98394,35.222908 53.32393,34.697727 C53.578236,34.304905 53.98253,33.9953 54.350395,33.720238 C55.19912,33.085617 56.055817,32.461723 56.90853,31.832468 L56.90853,31.832468" /><path fill="none" stroke="#000000" stroke-width="0.06mm" d="M57.351555,31.832468 C57.84356,31.592077 58.485428,31.39799 58.866085,30.95057 C59.039608,30.74661 59.20491,30.535803 59.37433,30.328419 L59.37433,30.328419" /><path fill="none" stroke="#000000" stroke-width="0.06mm" d="M57.917,31.494352 C58.37305,31.032427 58.553238,30.920662 58.85562,30.381636 C59.071354,29.997068 59.23311,29.583477 59.454346,29.202051 C59.913437,28.41055 59.98243,28.347288 60.526756,27.809856 C61.10971,27.234287 61.640694,26.599274 62.28246,26.090103 C65.56753,23.988876 63.30537,25.575163 65.74341,23.58479 C66.26281,23.160767 66.710785,22.95745 67.083405,22.447308 C67.45478,21.93887 67.550415,21.61127 67.81517,21.006813 L67.81517,21.006813" /><path fill="none" stroke="#000000" stroke-width="0.06mm" d="M53.03787,31.027979 C53.370102,30.686842 54.350082,30.388939 54.658447,29.811537 C54.83104,29.488361 54.949677,29.135206 55.15004,28.828472 C57.565155,25.595686 55.264008,28.880272 57.177555,25.53964 C57.30654,25.314457 57.489723,25.124235 57.662376,24.930492 C57.981445,24.572453 58.31314,24.225563 58.651497,23.885689 C58.670296,23.866806 58.700935,23.863583 58.72742,23.860672 C58.972782,23.833706 59.15445,24.206688 59.189014,24.39626 C59.36311,25.351162 58.3361,25.707722 58.186695,26.554668 C58.149605,26.76494 58.3044,27.122732 58.564217,27.08648 C58.617786,27.079006 58.688946,27.046133 58.728752,27.01115 C59.019714,26.755451 59.295647,26.48278 59.59031,26.231356 C59.747597,26.097147 59.919113,25.980574 60.08352,25.855183 C60.48712,25.446718 60.86409,25.010096 61.294327,24.62979 C61.600178,24.359436 61.964363,24.162477 62.28471,23.909466 C62.354923,23.83339 62.42513,23.757305 62.495342,23.681225 C62.578125,23.582855 62.642517,23.46545 62.743694,23.38612 C63.374523,22.891487 64.08309,22.495884 64.6839,21.965187 C65.054825,21.637539 65.304565,21.193237 65.63914,20.82854 C65.78586,20.668606 65.96282,20.539314 66.124664,20.3947 L66.124664,20.3947" /><path fill="none" stroke="#000000" stroke-width="0.06mm" d="M65.77491,19.805904 C65.80353,19.679543 65.80857,19.308228 65.86075,19.426819 C66.26281,20.34074 65.96538,21.088581 65.617516,21.93956 L65.617516,21.93956" /><path fill="none" stroke="#000000" stroke-width="0.06mm" d="M66.54437,19.333706 C66.70137,19.347305 66.859764,19.349571 67.015366,19.374508 C67.43286,19.441422 67.81741,19.806988 67.969864,20.190731 C68.06468,20.429417 68.034134,20.737595 68.21307,20.92183 C68.291,21.002071 68.38306,20.776394 68.46805,20.70367 L68.46805,20.70367" /><path fill="none" stroke="#000000" stroke-width="0.06mm" d="M66.07803,19.205456 C66.41501,18.849743 66.58945,18.698673 67.06001,18.949703 C67.10569,18.974072 67.14296,19.01207 67.187675,19.038147 C67.22104,19.057606 67.27477,19.11964 67.29332,19.085762 C67.32511,19.02768 67.05534,18.869476 67.02062,18.85543 C66.611786,18.689983 65.93975,18.91256 65.81277,19.366589 C65.7888,19.45226 65.73074,19.546982 65.76488,19.629135 C65.78648,19.68113 65.83787,19.542515 65.86547,19.493446 C65.929794,19.3791 65.96796,19.24908 65.98812,19.120216 C66.00922,18.98534 65.975555,18.830063 66.101494,18.740448 C66.30858,18.59309 66.68683,18.705704 66.84967,18.871098 C67.13605,19.161945 67.42322,19.452915 67.68906,19.76265 C67.96668,20.086113 67.8857,20.107025 68.076004,20.444695 C68.16992,20.611336 68.279076,20.768917 68.38061,20.93103 L68.38061,20.93103" /><path fill="none" stroke="#000000" stroke-width="0.06mm" d="M23.659805,55.692863 C23.110624,56.714764 21.149216,59.53382 22.012264,58.75856 C22.970495,57.8978 23.314465,56.535778 23.961391,55.421955 C23.964813,55.41606 23.948013,55.42718 23.943987,55.432682 C23.014711,56.70204 22.095322,57.97864 21.162382,59.24531 C21.151955,59.25947 21.164394,59.208664 21.173807,59.19381 C21.693275,58.37401 22.207422,57.550533 22.747318,56.744038 C22.836126,56.611378 22.949968,56.4971 23.05785,56.379425 C23.079384,56.35594 23.102762,56.32684 23.134253,56.32198 C23.149345,56.319653 23.144056,56.350906 23.148958,56.365368 C23.123352,56.430595 23.109703,56.501892 23.072138,56.561043 C22.50897,57.447834 21.928617,58.323627 21.34896,59.19973 C21.320995,59.23058 21.293028,59.26143 21.265062,59.29228 C21.25912,59.287243 21.242939,59.28366 21.247242,59.27717 C22.48799,57.40562 22.602547,57.005943 23.78238,55.770657 C23.790403,55.762257 23.800316,55.785423 23.809284,55.79281 C23.76972,55.880604 23.74533,55.976967 23.69059,56.056194 C23.171734,56.807148 22.64152,57.55064 22.091463,58.27905 C21.96864,58.441696 21.81865,58.58219 21.674376,58.726154 C21.642319,58.758144 21.621765,58.71678 21.617767,58.694725 C21.612942,58.66811 21.61348,58.64055 21.615791,58.613594 C21.624352,58.513714 21.638817,58.41443 21.65033,58.314846 L21.65033,58.314846" /><path fill="none" stroke="#000000" stroke-width="0.06mm" d="M41.365536,57.98693 C41.692368,57.40846 41.994278,56.815178 42.34603,56.25151 C42.439865,56.101147 42.569923,55.975544 42.69751,55.852512 C42.80173,55.75201 43.383842,55.39981 43.47379,55.072548 C43.68571,54.30148 43.465607,52.98489 43.51675,52.554195 C43.613552,51.739006 43.951996,50.967617 44.080215,50.15678 C44.159157,49.65759 44.101826,49.145878 44.135475,48.641605 C44.15043,48.417458 44.20068,48.19699 44.225876,47.973766 C44.28588,47.44215 44.199516,47.681644 44.4065,47.255234 L44.4065,47.255234" /><path fill="none" stroke="#000000" stroke-width="0.06mm" d="M25.016256,60.531624 L24.972067,60.53797" /><path fill="none" stroke="#000000" stroke-width="0.06mm" d="M22.30822,61.200493 C23.66864,61.21903 23.791893,61.301647 24.886612,61.116653 C24.9752,61.101685 25.062298,61.07447 25.14443,61.03805 C25.359144,60.94284 25.55185,60.797245 25.774645,60.72288 C26.267153,60.558495 26.78175,60.46892 27.280634,60.325043 C28.637825,59.93363 29.985598,59.51008 31.342354,59.11716 C31.476778,59.07823 31.616718,59.061604 31.753014,59.029846 C31.772432,59.025322 31.79097,59.01723 31.808878,59.00846 C31.88986,58.968807 31.969238,58.92596 32.04942,58.884712 L32.04942,58.884712" /><path fill="none" stroke="#000000" stroke-width="0.06mm" d="M31.749187,59.027405 C32.308884,59.288403 32.098698,59.16502 32.890633,59.866867 C33.09834,60.05095 33.17053,60.15435 33.306828,60.33542 L33.306828,60.33542" /><path fill="none" stroke="#000000" stroke-width="0.06mm" d="M41.41607,57.60047 C40.83848,58.358757 41.125755,57.95421 40.28629,59.74094 C40.11938,60.096188 40.111683,60.723305 40.19606,61.09649 C40.389313,61.951214 40.50129,62.087486 40.863167,62.874165 L40.863167,62.874165" /><path fill="none" stroke="#000000" stroke-width="0.06mm" d="M33.0601,60.27299 C34.994133,62.093277 36.92346,63.918575 38.86219,65.73386 C39.001457,65.86425 39.06167,65.853676 39.260937,65.918274 L39.260937,65.918274" /><path fill="none" stroke="#000000" stroke-width="0.06mm" d="M40.93748,62.606617 C41.00124,62.779366 41.047844,62.959457 41.128754,63.124866 C41.21667,63.304596 41.31688,63.48068 41.44157,63.637154 C42.36913,64.80113 42.419815,64.82555 43.51579,65.652275 C44.57021,66.44766 44.05509,65.97643 44.442173,66.33744 L44.442173,66.33744" /></g>
<g>
<line fill="none" stroke="#111111" stroke-width="0.04mm" x1="29.00" y1="56.00" x2="38.01" y2="48.37" />
<line fill="none" stroke="#00aeef" stroke-width="0.04mm" stroke-dasharray="0.4,0.2" x1="38.01" y1="48.37" x2="36.31" y2="49.20" />
<line fill="none" stroke="#00aeef" stroke-width="0.04mm" stroke-dasharray="0.4,0.2" x1="38.01" y1="48.37" x2="42.64" y2="47.81" />
<line fill="none" stroke="#00aeef" stroke-width="0.04mm" stroke-dasharray="0.4,0.2" x1="38.01" y1="48.37" x2="40.92" y2="47.63" />
<line fill="none" stroke="#00aeef" stroke-width="0.04mm" stroke-dasharray="0.4,0.2" x1="38.01" y1="48.37" x2="31.50" y2="49.80" />
<line fill="none" stroke="#00aeef" stroke-width="0.04mm" stroke-dasharray="0.4,0.2" x1="38.01" y1="48.37" x2="34.23" y2="49.00" />
<line fill="none" stroke="#5674b9" stroke-width="0.04mm" stroke-dasharray="0.4,0.2" x1="38.01" y1="48.37" x2="35.34" y2="48.47" />
<line fill="none" stroke="#00aeef" stroke-width="0.04mm" stroke-dasharray="0.4,0.2" x1="38.01" y1="48.37" x2="42.39" y2="47.29" />
<line fill="none" stroke="#00aeef" stroke-width="0.04mm" stroke-dasharray="0.4,0.2" x1="38.01" y1="48.37" x2="40.47" y2="35.05" />
<line fill="none" stroke="#00aeef" stroke-width="0.04mm" stroke-dasharray="0.4,0.2" x1="38.01" y1="48.37" x2="36.45" y2="65.24" />
<line fill="none" stroke="#00aeef" stroke-width="0.04mm" stroke-dasharray="0.4,0.2" x1="38.01" y1="48.37" x2="40.84" y2="57.95" />
<line fill="none" stroke="#00aeef" stroke-width="0.04mm" stroke-dasharray="0.4,0.2" x1="38.01" y1="48.37" x2="38.60" y2="58.64" />
<line fill="none" stroke="#00aeef" stroke-width="0.04mm" stroke-dasharray="0.4,0.2" x1="38.01" y1="48.37" x2="42.17" y2="55.90" />
<line fill="none" stroke="#00aeef" stroke-width="0.04mm" stroke-dasharray="0.4,0.2" x1="38.01" y1="48.37" x2="37.60" y2="49.04" />
<line fill="none" stroke="#00aeef" stroke-width="0.04mm" stroke-dasharray="0.4,0.2" x1="38.01" y1="48.37" x2="31.65" y2="57.70" />
<line fill="none" stroke="#5674b9" stroke-width="0.04mm" stroke-dasharray="0.4,0.2" x1="38.01" y1="48.37" x2="19.55" y2="60.74" />
<line fill="none" stroke="#5674b9" stroke-width="0.04mm" stroke-dasharray="0.4,0.2" x1="38.01" y1="48.37" x2="22.37" y2="57.84" />
<line fill="none" stroke="#00aeef" stroke-width="0.04mm" stroke-dasharray="0.4,0.2" x1="38.01" y1="48.37" x2="38.76" y2="53.65" />
<line fill="none" stroke="#00aeef" stroke-width="0.04mm" stroke-dasharray="0.4,0.2" x1="38.01" y1="48.37" x2="39.40" y2="46.42" />
<line fill="none" stroke="#111111" stroke-width="0.04mm" x1="38.01" y1="48.37" x2="54.97" y2="30.85" />
<line fill="none" stroke="#00aeef" stroke-width="0.04mm" stroke-dasharray="0.4,0.2" x1="54.97" y1="30.85" x2="52.44" y2="30.48" />
<line fill="none" stroke="#00aeef" stroke-width="0.04mm" stroke-dasharray="0.4,0.2" x1="54.97" y1="30.85" x2="52.11" y2="31.58" />
<line fill="none" stroke="#00aeef" stroke-width="0.04mm" stroke-dasharray="0.4,0.2" x1="54.97" y1="30.85" x2="55.13" y2="29.33" />
<line fill="none" stroke="#5674b9" stroke-width="0.04mm" stroke-dasharray="0.4,0.2" x1="54.97" y1="30.85" x2="52.05" y2="31.61" />
<line fill="none" stroke="#00aeef" stroke-width="0.04mm" stroke-dasharray="0.4,0.2" x1="54.97" y1="30.85" x2="56.97" y2="24.64" />
<line fill="none" stroke="#5674b9" stroke-width="0.04mm" stroke-dasharray="0.4,0.2" x1="54.97" y1="30.85" x2="47.08" y2="41.58" />
<line fill="none" stroke="#00aeef" stroke-width="0.04mm" stroke-dasharray="0.4,0.2" x1="54.97" y1="30.85" x2="58.91" y2="26.83" />
<line fill="none" stroke="#00aeef" stroke-width="0.04mm" stroke-dasharray="0.4,0.2" x1="54.97" y1="30.85" x2="64.07" y2="21.58" />
<line fill="none" stroke="#00aeef" stroke-width="0.04mm" stroke-dasharray="0.4,0.2" x1="54.97" y1="30.85" x2="64.05" y2="21.58" />
<line fill="none" stroke="#00aeef" stroke-width="0.04mm" stroke-dasharray="0.4,0.2" x1="54.97" y1="30.85" x2="60.23" y2="25.44" />
<line fill="none" stroke="#00aeef" stroke-width="0.04mm" stroke-dasharray="0.4,0.2" x1="54.97" y1="30.85" x2="62.71" y2="22.24" />
<line fill="none" stroke="#00aeef" stroke-width="0.04mm" stroke-dasharray="0.4,0.2" x1="54.97" y1="30.85" x2="62.34" y2="22.34" />
<line fill="none" stroke="#00aeef" stroke-width="0.04mm" stroke-dasharray="0.4,0.2" x1="54.97" y1="30.85" x2="60.91" y2="23.86" />
<line fill="none" stroke="#00aeef" stroke-width="0.04mm" stroke-dasharray="0.4,0.2" x1="54.97" y1="30.85" x2="59.91" y2="24.97" />
<line fill="none" stroke="#00aeef" stroke-width="0.04mm" stroke-dasharray="0.4,0.2" x1="54.97" y1="30.85" x2="58.95" y2="25.71" />
<line fill="none" stroke="#00aeef" stroke-width="0.04mm" stroke-dasharray="0.4,0.2" x1="54.97" y1="30.85" x2="57.31" y2="27.25" />
<line fill="none" stroke="#00aeef" stroke-width="0.04mm" stroke-dasharray="0.4,0.2" x1="54.97" y1="30.85" x2="55.86" y2="28.84" />
<line fill="none" stroke="#00aeef" stroke-width="0.04mm" stroke-dasharray="0.4,0.2" x1="54.97" y1="30.85" x2="61.68" y2="24.50" />
<line fill="none" stroke="#00aeef" stroke-width="0.04mm" stroke-dasharray="0.4,0.2" x1="54.97" y1="30.85" x2="61.09" y2="25.33" />
<line fill="none" stroke="#00aeef" stroke-width="0.04mm" stroke-dasharray="0.4,0.2" x1="54.97" y1="30.85" x2="59.28" y2="26.91" />
<line fill="none" stroke="#00aeef" stroke-width="0.04mm" stroke-dasharray="0.4,0.2" x1="54.97" y1="30.85" x2="58.11" y2="28.12" />
<line fill="none" stroke="#00aeef" stroke-width="0.04mm" stroke-dasharray="0.4,0.2" x1="54.97" y1="30.85" x2="57.73" y2="28.83" />
<line fill="none" stroke="#00aeef" stroke-width="0.04mm" stroke-dasharray="0.4,0.2" x1="54.97" y1="30.85" x2="55.96" y2="29.99" />
<line fill="none" stroke="#00aeef" stroke-width="0.04mm" stroke-dasharray="0.4,0.2" x1="54.97" y1="30.85" x2="54.26" y2="31.39" />
<line fill="none" stroke="#5674b9" stroke-width="0.04mm" stroke-dasharray="0.4,0.2" x1="54.97" y1="30.85" x2="56.20" y2="31.49" />
<line fill="none" stroke="#5674b9" stroke-width="0.04mm" stroke-dasharray="0.4,0.2" x1="54.97" y1="30.85" x2="56.66" y2="31.12" />
<line fill="none" stroke="#00aeef" stroke-width="0.04mm" stroke-dasharray="0.4,0.2" x1="54.97" y1="30.85" x2="57.13" y2="30.80" />
<line fill="none" stroke="#5674b9" stroke-width="0.04mm" stroke-dasharray="0.4,0.2" x1="54.97" y1="30.85" x2="54.08" y2="32.80" />
<line fill="none" stroke="#5674b9" stroke-width="0.04mm" stroke-dasharray="0.4,0.2" x1="54.97" y1="30.85" x2="52.87" y2="33.46" />
<line fill="none" stroke="#5674b9" stroke-width="0.04mm" stroke-dasharray="0.4,0.2" x1="54.97" y1="30.85" x2="57.92" y2="28.75" />
<line fill="none" stroke="#111111" stroke-width="0.04mm" x1="54.97" y1="30.85" x2="66.30" y2="21.57" />
<line fill="none" stroke="#5674b9" stroke-width="0.04mm" stroke-dasharray="0.4,0.2" x1="66.30" y1="21.57" x2="66.42" y2="21.62" />
<line fill="none" stroke="#5674b9" stroke-width="0.04mm" stroke-dasharray="0.4,0.2" x1="66.30" y1="21.57" x2="65.58" y2="21.58" />
<line fill="none" stroke="#111111" stroke-width="0.04mm" x1="66.30" y1="21.57" x2="73.90" y2="19.50" />
<line fill="none" stroke="#111111" stroke-width="0.04mm" x1="29.00" y1="56.00" x2="41.54" y2="66.48" />
<line fill="none" stroke="#00aeef" stroke-width="0.04mm" stroke-dasharray="0.4,0.2" x1="41.54" y1="66.48" x2="30.94" y2="54.89" />
<line fill="none" stroke="#111111" stroke-width="0.04mm" x1="41.54" y1="66.48" x2="56.90" y2="79.18" />
</g>
<g>
<circle cx="29.00" cy="56.00" r="0.1" fill="#111111" />
<circle cx="38.01" cy="48.37" r="0.1" fill="#111111" />
<circle cx="54.97" cy="30.85" r="0.1" fill="#111111" />
<circle cx="66.30" cy="21.57" r="0.1" fill="#111111" />
<circle cx="73.90" cy="19.50" r="0.1" fill="#111111" />
<circle cx="41.54" cy="66.48" r="0.1" fill="#111111" />
<circle cx="56.90" cy="79.18" r="0.1" fill="#111111" />
</g>
<g>
<text x="29.20" y="56.00" font-size=".2mm" fill="#000000">0</text>
<text x="38.21" y="48.37" font-size=".2mm" fill="#000000">1</text>
<text x="55.17" y="30.85" font-size=".2mm" fill="#000000">2</text>
<text x="66.50" y="21.57" font-size=".2mm" fill="#000000">3</text>
<text x="74.10" y="19.50" font-size=".2mm" fill="#000000">4</text>
<text x="41.74" y="66.48" font-size=".2mm" fill="#000000">0.1</text>
<text x="57.10" y="79.18" font-size=".2mm" fill="#000000">0.2</text>
</g>
<g>
</g>
</g>
</svg>