<?xml version="1.0" encoding="utf-8"?>
<!DOCTYPE svg PUBLIC "-//W3C//DTD SVG 1.1//EN" "http://www.w3.org/Graphics/SVG/1.1/DTD/svg11.dtd">
<svg version="1.1" id="Layer_1" xmlns="http://www.w3.org/2000/svg" xmlns:xlink="http://www.w3.org/1999/xlink" x="0px" y="0px" width="332mm" height="193mm" viewBox="0 0 332 193" enable-background="new 0 0 332 193" xml:space="preserve">
<symbol id="airflow" viewBox="-12 -12 24 24">
<path d="M-4.38,10.73l4.2-3.84V3.55L-4.07,7.13l-.31-.29L-.18,3V-6.89a3.37,3.37,0,0,0-1.68.53l1.68-4.15L0-11l.21.51h0v0l1.65,4.1A3.26,3.26,0,0,0,.24-6.89v14l-.08,0L-4.07,11Z"/>
<rect fill="none" x="-12" y="-12" width="24" height="24"/>
</symbol>
<symbol id="anastomosis" viewBox="-12 -12 24 24">
<path d="M2.23-4.78l.37.24L5.22-2.78l-.47.57L2.49-3.7l-4.61,8-.24.44-.37-.34L-5.22,2.3l.55-.52,2.1,1.82L2-4.39Z"/>
<rect fill="none" x="-12" y="-12" width="24" height="24"/>
</symbol>
<symbol id="bivouac" viewBox="-12 -12 24 24">
<path d="M.25-7.66l.24.58L.54-7l3.88.48-3.31.91L6,6H8.35v.48l-16.7.07V6.05h2.64L0-7.08Zm0,1.32L-5.13,6H-4l2.07-5L.2-4l2.09,5L4.37,6H5.44Z"/>
<rect fill="none" x="-12" y="-12" width="24" height="24"/>
</symbol>
<symbol id="bones" viewBox="-12 -12 24 24">
<path d="M2.44,4.27l-.16,0H2.13a.22.22,0,0,1-.11,0l-.1-.06a.39.39,0,0,1-.09-.11l-.08-.13a1.51,1.51,0,0,1-.06-.15l-.07-.17s0-.11-.08-.19-.06-.16-.08-.21a4.75,4.75,0,0,0-.38-.71c-.18-.29-.43-.64-.74-1A11.15,11.15,0,0,0-.7.32,6.73,6.73,0,0,0-2-.64a4.12,4.12,0,0,0-1.44-.52A1.64,1.64,0,0,1-5-2.19.72.72,0,0,1-5-2.44a1,1,0,0,1,0-.29A.52.52,0,0,1-4.87-3a.54.54,0,0,1,.35-.15L-4-3.22l.46,0a.54.54,0,0,0,.27-.06A.52.52,0,0,0-3-3.56a.74.74,0,0,0,.13-.31.54.54,0,0,1,.15-.26.54.54,0,0,1,.3-.15.83.83,0,0,1,.47,0,1.11,1.11,0,0,1,.35.4A7.46,7.46,0,0,1-1-2.76q.18.42.33.72a3.22,3.22,0,0,0,.39.57L.1-1a4.77,4.77,0,0,0,.58.43c.28.18.51.33.69.43l1,.56a1.84,1.84,0,0,0,.39.23A5.29,5.29,0,0,1,3.22.9l.43.26a3.7,3.7,0,0,1,.46.3l.36.29a2.28,2.28,0,0,1,.31.32A1,1,0,0,1,5,2.4c.2.48,0,.78-.47.91h0a8.48,8.48,0,0,0-1.12.09,1,1,0,0,0-.42.44A1,1,0,0,1,2.44,4.27Z"/>
<rect fill="none" x="-12" y="-12" width="24" height="24"/>
</symbol>
<symbol id="calcite" viewBox="-12 -12 24 24">
<path d="M2.36-2.22l.05.46.34,3.91L2,2.22,1.65-1.26-2.52-.06l-.23-.7L1.89-2.08Z"/>
<rect fill="none" x="-12" y="-12" width="24" height="24"/>
</symbol>
<symbol id="cauliflower" viewBox="-12 -12 24 24">
<path d="M5.58,3.22v-3A2.12,2.12,0,0,0,6.92-.43a1.78,1.78,0,0,0,.55-1.32,1.92,1.92,0,0,0-.65-1.42,2.19,2.19,0,0,0-1.53-.59,2.21,2.21,0,0,0-1.54.59,1.78,1.78,0,0,0-.64,1.42A1.86,1.86,0,0,0,3.65-.43,2.12,2.12,0,0,0,5,.23v3H.26v-3A2.17,2.17,0,0,0,1.61-.43a1.81,1.81,0,0,0,.54-1.32,1.91,1.91,0,0,0-.64-1.42A2.21,2.21,0,0,0,0-3.76a2.21,2.21,0,0,0-1.54.59,1.82,1.82,0,0,0-.64,1.42A1.83,1.83,0,0,0-1.66-.43,2.12,2.12,0,0,0-.32.23v3H-5v-3A2.12,2.12,0,0,0-3.71-.43a1.78,1.78,0,0,0,.55-1.32,1.92,1.92,0,0,0-.65-1.42,2.19,2.19,0,0,0-1.53-.59,2.21,2.21,0,0,0-1.54.59,1.83,1.83,0,0,0-.65,1.42A1.87,1.87,0,0,0-7-.43,2.12,2.12,0,0,0-5.64.23v3H-8v.54H8V3.22Z"/>
<rect fill="none" x="-12" y="-12" width="24" height="24"/>
</symbol>
<symbol id="clay" viewBox="-12 -12 24 24">
<path d="M1.85-1.33a3,3,0,0,1,1.67.48,3.23,3.23,0,0,1,1,1l.29.51-1,.43a3.81,3.81,0,0,0-.23-.4A3.74,3.74,0,0,0,2.93,0,1.77,1.77,0,0,0,1.85-.32a2.57,2.57,0,0,0-1.1.15A.86.86,0,0,0,.51.14,2.23,2.23,0,0,1,0,.88a2.55,2.55,0,0,1-1.45.43,3.16,3.16,0,0,1-2.75-1,4.28,4.28,0,0,1-.37-.57,3.91,3.91,0,0,1-.21-.47l0-.16,1-.22a1.87,1.87,0,0,0,.45.79A2.12,2.12,0,0,0-1.51.33,1.82,1.82,0,0,0-.69.14l.21-.36A1.53,1.53,0,0,1,.17-1,3.76,3.76,0,0,1,1.85-1.33Z"/>
<rect fill="none" x="-12" y="-12" width="24" height="24"/>
</symbol>
<symbol id="crystals" viewBox="-12 -12 24 24">
<path d="M-2.94-5.38,0-.72,2.94-5.38,3.62-5,.68-.36H6.56V.36H.68L3.62,5l-.68.36L0,.72-2.94,5.38-3.62,5-.68.36H-6.56V-.36H-.68L-3.62-5Z"/>
<rect fill="none" x="-12" y="-12" width="24" height="24"/>
</symbol>
<symbol id="curtain" viewBox="-12 -12 24 24">
<path d="M3.57-6.69l.52.53L.39-3V-.33L.1-.26a3.79,3.79,0,0,0-1,.41c-.58.3-.87.65-.87,1v.07A1.61,1.61,0,0,0-.84,2.48a3.69,3.69,0,0,0,.45.24L0,2.86l.13.05L.39,3V6.12H-.39V3.51a7.65,7.65,0,0,1-.9-.46A2.19,2.19,0,0,1-2.54,1.28V1.23A2,2,0,0,1-1.31-.48,5.32,5.32,0,0,1-.39-.86V-3l-3.7-3.14.52-.53L0-3.67Z"/>
<rect fill="none" x="-12" y="-12" width="24" height="24"/>
</symbol>
<symbol id="disk" viewBox="-12 -12 24 24">
<path d="M-.09-4.19a2.43,2.43,0,0,1,1.7.64A2,2,0,0,1,2.35-2,2.09,2.09,0,0,1,1.81-.55,2.44,2.44,0,0,1,.35.23l2.18,3.6-.68.33L0,1.14-1.48,4.19l-.71-.29L-.41.25A2.53,2.53,0,0,1-1.9-.47a2,2,0,0,1-.63-1.41,2,2,0,0,1,.67-1.61,2.46,2.46,0,0,1,1.72-.7ZM1.05-3.06.56-3.49l-.69,0A1.72,1.72,0,0,0-1.29-3a1.51,1.51,0,0,0-.45,1.08,1.36,1.36,0,0,0,.51,1A1.68,1.68,0,0,0-.07-.44v0l0,0A1.7,1.7,0,0,0,1.11-.92,1.36,1.36,0,0,0,1.56-2,1.47,1.47,0,0,0,1.05-3.06Z"/>
<rect fill="none" x="-12" y="-12" width="24" height="24"/>
</symbol>
<symbol id="entrance" viewBox="-12 -12 24 24">
<path d="M4.46,9H-4.46L0-9Z"/>
<rect fill="none" x="-12" y="-12" width="24" height="24"/>
</symbol>
<symbol id="flowstone" viewBox="-12 -12 24 24">
<rect x="-6" y="-0.21" width="12" height="0.42"/>
<rect fill="none" x="-12" y="-12" width="24" height="24"/>
</symbol>
<symbol id="flutes" viewBox="-12 -12 24 24">
<path d="M-7-1H7v.72H3.87A4.7,4.7,0,0,1,2.16,1.5,4.2,4.2,0,0,1,0,2.13,3.94,3.94,0,0,1-2.19,1.5,4.18,4.18,0,0,1-3.76-.27H-7Zm4.17.72A3.15,3.15,0,0,0-1.65,1,3.21,3.21,0,0,0,0,1.41,3.49,3.49,0,0,0,1.6,1,3.68,3.68,0,0,0,3-.27Z"/>
<rect fill="none" x="-12" y="-12" width="24" height="24"/>
</symbol>
<symbol id="gradient" viewBox="-12 -12 24 24">
<path d="M2.58-3.83,0-10-2.58-3.83A4.74,4.74,0,0,1-.17-4.5V10H.25V-4.5A6.65,6.65,0,0,1,2.58-3.83Z"/>
<rect fill="none" x="-12" y="-12" width="24" height="24"/>
</symbol>
<symbol id="guano" viewBox="-12 -12 24 24">
<path d="M-3.24-3a2.15,2.15,0,0,1,1.57.55A3.93,3.93,0,0,1-.59.24a4.32,4.32,0,0,1,2.75-2.3,2.68,2.68,0,0,1,2.23.36A2.36,2.36,0,0,1,5.5.19l-.79,0a1.72,1.72,0,0,0-.79-1.37,1.94,1.94,0,0,0-1.55-.24A3.53,3.53,0,0,0,.48,0,6.63,6.63,0,0,0-.69,3l-.79-.09a10.72,10.72,0,0,0,0-3.16A3.21,3.21,0,0,0-2.22-2,1.44,1.44,0,0,0-3.37-2.3,3.45,3.45,0,0,0-5-1.54l-.5-.55a4.29,4.29,0,0,1,2-.91A.9.9,0,0,1-3.24-3Z"/>
<rect fill="none" x="-12" y="-12" width="24" height="24"/>
</symbol>
<symbol id="helictites" viewBox="-12 -12 24 24">
<path d="M-4.59-7.92h.79v7.7l3.41,0V-7.92H.39V-.17L4.2-.12h.39v8H3.8V.6L.39.55V7.92H-.39V.55L-4.2.5l-.39,0v-8.4Z"/>
<rect fill="none" x="-12" y="-12" width="24" height="24"/>
</symbol>
<symbol id="human" viewBox="-12 -12 24 24">
<path d="M-3.59-3.29A5.13,5.13,0,0,1,0-4.66,5.13,5.13,0,0,1,3.59-3.29,4.3,4.3,0,0,1,5.09,0a4.3,4.3,0,0,1-1.5,3.29A5.13,5.13,0,0,1,0,4.66,5.13,5.13,0,0,1-3.59,3.29,4.3,4.3,0,0,1-5.09,0,4.3,4.3,0,0,1-3.59-3.29Zm.28.77A3.68,3.68,0,0,0-4.3,0a3.62,3.62,0,0,0,1,2.57L-.5.05ZM0-3.94A4.42,4.42,0,0,0-2.75-3L.16-.36H4.28A3.62,3.62,0,0,0,2.91-2.9,4.38,4.38,0,0,0,0-3.94ZM.16.46-2.7,3.07A4.42,4.42,0,0,0,0,3.94a4.37,4.37,0,0,0,2.87-1A3.78,3.78,0,0,0,4.28.46Z"/>
<rect fill="none" x="-12" y="-12" width="24" height="24"/>
</symbol>
<symbol id="karren" viewBox="-12 -12 24 24">
<path d="M1-5.84h0a1.37,1.37,0,0,1,1.06.68A3.33,3.33,0,0,1,2.5-3.79,25.79,25.79,0,0,1,2.36,0a18.61,18.61,0,0,0-.08,3.72,2.68,2.68,0,0,0,.41,1.2,1.13,1.13,0,0,0,.79.5A.92.92,0,0,0,4,4.94a4.43,4.43,0,0,0,.47-1.22c.16-.64.36-1.86.59-3.66a26.71,26.71,0,0,1,.64-3.69,4.62,4.62,0,0,1,.57-1.29,1.34,1.34,0,0,1,1-.59h0A1.28,1.28,0,0,1,8.37-5a2.17,2.17,0,0,1,.39,1.15A19.91,19.91,0,0,1,8.54-.53a21.51,21.51,0,0,0-.2,3.64A2.64,2.64,0,0,0,9.45,5.36,1.91,1.91,0,0,0,10.88,5a3.84,3.84,0,0,0,.7-1l.42.2-.1.18-.12.21-.11.18L11.52,5a.94.94,0,0,1-.14.16c-.06.07-.13.12-.19.18a2.5,2.5,0,0,1-1.85.41H9.29l0,0A3.06,3.06,0,0,1,7.87,3.13a22.11,22.11,0,0,1,.2-3.7,18.17,18.17,0,0,0,.22-3.28A1.85,1.85,0,0,0,8-4.79a.77.77,0,0,0-.67-.3.93.93,0,0,0-.64.42,4.51,4.51,0,0,0-.51,1.15A26.26,26.26,0,0,0,5.54.1c-.24,1.83-.45,3.07-.61,3.72a5.38,5.38,0,0,1-.51,1.34,1.33,1.33,0,0,1-.89.68H3.47A1.58,1.58,0,0,1,2.3,5.16a3.29,3.29,0,0,1-.49-1.4A20.27,20.27,0,0,1,1.89,0,23.45,23.45,0,0,0,2-3.75a2.94,2.94,0,0,0-.32-1.19A.93.93,0,0,0,1-5.42,1.1,1.1,0,0,0,.19-5,3.69,3.69,0,0,0-.43-3.76,20.78,20.78,0,0,0-1.07.07c-.2,2-.37,3.32-.49,3.86A4.48,4.48,0,0,1-2,5.26,1.06,1.06,0,0,1-3,5.81h0a1.9,1.9,0,0,1-1.29-.67,2.7,2.7,0,0,1-.58-1.31,14.92,14.92,0,0,1,0-3.6q0-.12.06-.54c0-.28,0-.47,0-.57s0-.28,0-.52,0-.42,0-.55,0-.28,0-.47,0-.36,0-.51,0-.29,0-.43A3.09,3.09,0,0,0-5-4.62a1.19,1.19,0,0,0-.67-.6,1.5,1.5,0,0,0-1.2.9A7,7,0,0,0-7.41-2.1c0,.39-.1,1-.14,1.76s-.11,1.47-.18,2.08A9.61,9.61,0,0,1-8,3.32h0l0,0A2.81,2.81,0,0,1-9.2,4.62a1.82,1.82,0,0,1-1.35.15A1.94,1.94,0,0,1-11.61,4,2.39,2.39,0,0,1-12,2.56l.47,0a1.92,1.92,0,0,0,.31,1.16,1.47,1.47,0,0,0,.81.62,1.3,1.3,0,0,0,1-.11A2.32,2.32,0,0,0-8.5,3.18a7.53,7.53,0,0,0,.29-1.5Q-8.1.8-8-.36c0-.78.1-1.37.16-1.78A7.23,7.23,0,0,1-7.28-4.5,1.93,1.93,0,0,1-5.65-5.66h.05l0,0a1.59,1.59,0,0,1,1,.84,3.47,3.47,0,0,1,.34,1.41,4.91,4.91,0,0,1,0,.57v.54c0,.15,0,.37,0,.66s0,.47,0,.58,0,.33-.06.68,0,.56-.06.63a14.78,14.78,0,0,0,0,3.49,2.58,2.58,0,0,0,.5,1.13,1.57,1.57,0,0,0,1,.5A.61.61,0,0,0-2.44,5,3.89,3.89,0,0,0-2,3.85C-1.9,3.31-1.74,2-1.53,0A20.65,20.65,0,0,1-.86-3.89,3.89,3.89,0,0,1-.18-5.26,1.58,1.58,0,0,1,1-5.84Z"/>
<rect fill="none" x="-12" y="-12" width="24" height="24"/>
</symbol>
<symbol id="moonmilk" viewBox="-12 -12 24 24">
<path d="M-4.78-3.06a3.39,3.39,0,0,1,1.5.34,2.48,2.48,0,0,1,1.1,1,3.74,3.74,0,0,1,1.62-.8,3.52,3.52,0,0,1,1.71,0,2.9,2.9,0,0,1,1.39.77A2.49,2.49,0,0,1,3.25-.37,4,4,0,0,1,5-.76a3.58,3.58,0,0,1,1.6.36A2.84,2.84,0,0,1,7.88.92a2.32,2.32,0,0,1,0,1.88.34.34,0,0,1-.37.26A.36.36,0,0,1,7.25,3a.32.32,0,0,1-.12-.25.21.21,0,0,1,0-.12,2,2,0,0,0,0-1.43,2,2,0,0,0-1-.9A2.81,2.81,0,0,0,4.68,0,2.78,2.78,0,0,0,3.12.56L2.46.25A1.7,1.7,0,0,0,2.15-1.1,2.15,2.15,0,0,0,1-1.81a2.85,2.85,0,0,0-1.58.06A3,3,0,0,0-2-.83l-.71-.12A1.74,1.74,0,0,0-3.55-2a2.36,2.36,0,0,0-1.39-.27,3.08,3.08,0,0,0-1.45.53A2.33,2.33,0,0,0-7.32-.56a.35.35,0,0,1-.37.24A.39.39,0,0,1-8-.42a.33.33,0,0,1-.1-.26v-.1A3,3,0,0,1-6.89-2.35,4,4,0,0,1-5-3Z"/>
<rect fill="none" x="-12" y="-12" width="24" height="24"/>
</symbol>
<symbol id="narrow" viewBox="-12 -12 24 24">
<path d="M-1.5,5V-5h0.64V5H-1.5z"/>
<path d="M0.86,5V-5H1.5V5H0.86z"/>
<rect fill="none" x="-12" y="-12" width="24" height="24"/>
</symbol>
<symbol id="paleoflow" viewBox="-12 -12 24 24">
<path d="M.38-12V.17A1.9,1.9,0,0,0,1,0,1.57,1.57,0,0,0,1.7-.72a1.86,1.86,0,0,0,.23-1c0-.09,0-.14.08-.16a.92.92,0,0,1,.24,0,.52.52,0,0,0,.25,0h.08A2.48,2.48,0,0,1,2,0,2.5,2.5,0,0,1,.38.77V7.21H2.09L0,12-1.8,7.23c.07,0,.59,0,1.53,0V.77A3,3,0,0,1-1.35.43a2.16,2.16,0,0,1-1-1,2.38,2.38,0,0,1-.24-1.33l.67,0a2,2,0,0,0,.15,1,1.73,1.73,0,0,0,.59.67A2.14,2.14,0,0,0-.27.16V-12Z"/>
<rect fill="none" x="-12" y="-12" width="24" height="24"/>
</symbol>
<symbol id="rain" viewBox="-12 -12 24 24">
<path d="M-4.14-6.34h0.71v4.69h-0.71V-6.34z"/>
<path d="M-0.35-6.34h0.71v4.69h-0.71V-6.34z"/>
<path d="M3.43-6.34h0.71v4.69H3.43V-6.34z"/>
<path d="M-4.14,1.65h0.71v4.69h-0.71V1.65z"/>
<path d="M-0.35,1.65h0.71v4.69h-0.71V1.65z"/>
<path d="M3.43,1.65h0.71v4.69H3.43V1.65z"/>
<rect fill="none" x="-12" y="-12" width="24" height="24"/>
</symbol>
<symbol id="rats" viewBox="-12 -12 24 24">
<path d="M8.78-2.32,7-2.27c-.51-.17-.65-.56-1.46-.45l-.25.45C3.59-2.75,2.59-3.66.56-3.62l-1.35.3A4.89,4.89,0,0,0-4.24,1.57c-.68.6-2.58.86-3.39.94a6.84,6.84,0,0,0-1.62.39,4.91,4.91,0,0,0-1,.52A1.75,1.75,0,0,0-11,4.61a1.16,1.16,0,0,0,.59,1.48,1.3,1.3,0,0,1,.14.12c.16-.52-.35-.92-.2-1.42a3.35,3.35,0,0,1,.27-.45,3.18,3.18,0,0,1,1.79-1c.63-.12,1.27-.22,1.91-.3.48-.07,1,0,1.4-.12A6.94,6.94,0,0,1-4,2.82,30.64,30.64,0,0,0,.41,2.69l2.16.15c.1-.09,0,0,.1-.15a.87.87,0,0,0-.9-.55c.86-1,2.27-.37,3.1-.05.5.19,1,0,1.25.4.11-.1.1-.07.15-.25.3,0,.31.07.6.15-.06-.49-.34-.64-1-.6a.78.78,0,0,1,0-.55C6.3.56,7.29.73,8.13.43a13.78,13.78,0,0,0,2.15-.9l.6-.85v-.2A16.9,16.9,0,0,0,8.78-2.32Z"/>
<rect fill="none" x="-12" y="-12" width="24" height="24"/>
</symbol>
<symbol id="sand" viewBox="-12 -12 24 24">
<path d="M-1.58,0.83c0.23,0.2,0.35,0.44,0.36,0.73c0.01,0.29-0.08,0.54-0.28,0.75c-0.2,0.21-0.46,0.32-0.78,0.33c-0.32,0.01-0.6-0.08-0.83-0.26C-3.36,2.19-3.49,1.95-3.5,1.67C-3.51,1.38-3.41,1.12-3.2,0.9c0.21-0.22,0.48-0.34,0.8-0.35C-2.08,0.54-1.81,0.64-1.58,0.83z"/>
<path d="M0.08-2.36c0.23,0.2,0.35,0.44,0.36,0.73c0.01,0.29-0.08,0.54-0.28,0.75c-0.2,0.21-0.46,0.32-0.78,0.33c-0.32,0.01-0.59-0.07-0.83-0.26s-0.37-0.42-0.38-0.71c-0.01-0.29,0.09-0.54,0.3-0.76c0.21-0.22,0.48-0.33,0.8-0.35C-0.42-2.65-0.14-2.56,0.08-2.36z"/>
<path d="M3.12,0.55c0.23,0.2,0.35,0.43,0.38,0.71c0.02,0.28-0.07,0.53-0.28,0.75C3,2.23,2.73,2.35,2.42,2.36C2.1,2.37,1.82,2.28,1.58,2.08C1.34,1.88,1.22,1.64,1.2,1.35c-0.01-0.29,0.09-0.54,0.3-0.75C1.72,0.4,1.99,0.29,2.3,0.28S2.89,0.36,3.12,0.55z"/>
<rect fill="none" x="-12" y="-12" width="24" height="24"/>
</symbol>
<symbol  id="scallops" viewBox="-12 -12 24 24">
<path d="M.05-3.74l.21,0A2.35,2.35,0,0,1,1.74-3a2,2,0,0,1,.59,1.55v0l0,0A9.59,9.59,0,0,1-.08,3.27l-.39.47-.27-.55A14.26,14.26,0,0,1-2.33-1.89v-.05l0-.05A2,2,0,0,1-1.44-3.3,2.42,2.42,0,0,1,.05-3.74ZM-.11-3A1.44,1.44,0,0,0-1.55-1.89,13.06,13.06,0,0,0-.29,2.33,8.6,8.6,0,0,0,1.55-1.54a1.41,1.41,0,0,0-.38-1A1.62,1.62,0,0,0,.18-3Z"/>
<rect fill="none" x="-12" y="-12" width="24" height="24"/>
</symbol>
<symbol  id="sink" viewBox="-12 -12 24 24">
<path d="M.72,9.41H.9c1.94,0,3.26-.54,3.94-1.51a3.61,3.61,0,0,0,.33-.69,2,2,0,0,0,.11-.54V6.46l.69,0a2.8,2.8,0,0,1-.58,1.78C4.58,9.39,3.1,10,.93,10H-.93q-3.25,0-4.46-1.8a2.74,2.74,0,0,1-.43-.83A2.37,2.37,0,0,1-6,6.67V6.43l.68,0A2.27,2.27,0,0,0-4.84,7.9c.68,1,2,1.47,3.93,1.48l.5,0ZM-1.46-10a.68.68,0,0,0,.16.41A2.77,2.77,0,0,0-.51-9l0,0a3.63,3.63,0,0,1,1,.7,1.15,1.15,0,0,1,.34.88c0,.58-.53,1.14-1.49,1.68-.68.42-1,.79-1,1.11s.3.61.84,1h0Q.61-2.86.46-1.78a3.51,3.51,0,0,1-1.55,2,.61.61,0,0,0-.26.41,1.67,1.67,0,0,0,.1.51,5.3,5.3,0,0,1,.32,1L.56,1.9.46,8.06-3.4,2.54l1.73-.28A6.16,6.16,0,0,0-2,1.39,1.7,1.7,0,0,1-2.09.58a1.21,1.21,0,0,1,.53-.82h0v0C-.75-.86-.33-1.38-.28-1.85s-.23-.87-.91-1.27h0C-2-3.6-2.37-4.1-2.4-4.61S-2-5.74-1.09-6.29C-.34-6.72.06-7.1.09-7.44a.67.67,0,0,0-.18-.43,3.17,3.17,0,0,0-.79-.58,2.93,2.93,0,0,1-1-.67A1.16,1.16,0,0,1-2.17-10Z"/>
<rect fill="none" x="-12" y="-12" width="24" height="24"/>
</symbol>
<symbol  id="spring" viewBox="-12 -12 24 24">
<path d="M-1.34-9.86,2.52-4.34.78-4.06a8,8,0,0,0,.29.87,1.4,1.4,0,0,1,.13.79,1.3,1.3,0,0,1-.52.84l0,0v0C-.13-.95-.55-.42-.61,0S-.37.91.31,1.3l0,0c.75.46,1.14,1,1.18,1.46S1.12,3.92.21,4.46C-.54,4.9-.94,5.29-1,5.64a.74.74,0,0,0,.18.43A3.2,3.2,0,0,0,0,6.62a3,3,0,0,1,1,.7,1.14,1.14,0,0,1,.31.86A1.74,1.74,0,0,1,.71,9.26H.92c1.92,0,3.22-.52,3.9-1.51a2.05,2.05,0,0,0,.35-.67,2.59,2.59,0,0,0,.1-.55l0-.19.65,0a2.84,2.84,0,0,1-.55,1.8C4.58,9.26,3.08,9.85.92,9.86H-.92c-2.17,0-3.66-.6-4.49-1.77a3.65,3.65,0,0,1-.4-.85A2.43,2.43,0,0,1-6,6.53V6.29l.66,0a2.08,2.08,0,0,0,.47,1.41c.68,1,2,1.5,3.91,1.51H-.4c.62-.43.94-.8,1-1.1a.76.76,0,0,0-.16-.43,3.25,3.25,0,0,0-.79-.51v0a3.8,3.8,0,0,1-1-.7,1.15,1.15,0,0,1-.34-.91q.06-.84,1.5-1.68c.68-.4,1-.77,1-1.1S.49,2.21,0,1.87c0,0,0,0,0,0C-1,1.32-1.44.69-1.34,0a3.58,3.58,0,0,1,1.55-2,.54.54,0,0,0,.23-.38A1.28,1.28,0,0,0,.37-3a4.57,4.57,0,0,1-.32-1l-1.49.24Z"/>
<rect fill="none" x="-12" y="-12" width="24" height="24"/>
</symbol>
<symbol  id="stalactite" viewBox="-12 -12 24 24">
<path d="M3.57-6.69l.52.53L.39-3V6.12H-.39V-3l-3.7-3.14.52-.53L0-3.67Z"/>
<rect fill="none" x="-12" y="-12" width="24" height="24"/>
</symbol>
<symbol  id="stalagmite" viewBox="-12 -12 24 24">
<path d="M.38-6.42V2.75L4.11,5.89l-.56.53L0,3.4l-3.57,3-.53-.53,3.7-3.14V-6.42Z"/>
<rect fill="none" x="-12" y="-12" width="24" height="24"/>
</symbol>
<symbol  id="stalagnate" viewBox="-12 -12 24 24">
<path d="M3.55-8.46l.56.53L.38-4.78v9L4.11,7.36l-.56.53L0,4.86l-3.57,3-.53-.53,3.7-3.14v-9l-3.7-3.15.53-.53L0-5.43Z"/>
<rect fill="none" x="-12" y="-12" width="24" height="24"/>
</symbol>
<symbol  id="straws" viewBox="-12 -12 24 24">
<path d="M-10.89-2.76H10.89V-2H9.63V.46H8.84V-2H8.29v5.6H7.5V-2H5.56V.7H4.77V-2H2.07V2.38H1.29V-2H-.1v3H-.89V-2H-3.2V4.11H-4V-2H-6.22L-6.16.75l-.79,0L-7-2H-8.32V2.33H-9.1V-2h-1.79Z"/>
<rect fill="none" x="-12" y="-12" width="24" height="24"/>
</symbol>
<symbol  id="water" viewBox="-12 -12 24 24">
<path d="M-1.72-9.86,2.11-4.32.38-4.06a6.49,6.49,0,0,0,.29.89,1.5,1.5,0,0,1,.13.79,1.2,1.2,0,0,1-.5.82h0l0,0C-.54-.94-1-.42-1,.05s.24.89.92,1.27h0c.77.48,1.17,1,1.19,1.49S.71,3.94-.2,4.49c-.75.43-1.13.81-1.15,1.15a.51.51,0,0,0,.18.43,2.66,2.66,0,0,0,.76.58,2.93,2.93,0,0,1,1,.67,1.16,1.16,0,0,1,.29.89C.84,8.75.42,9.3-.41,9.86l-.44-.55c.66-.45,1-.83,1-1.15A.47.47,0,0,0,0,7.75a2.84,2.84,0,0,0-.78-.53h0a3.87,3.87,0,0,1-1-.69,1.24,1.24,0,0,1-.34-.91c0-.58.54-1.14,1.52-1.68.66-.42,1-.79,1-1.11s-.3-.61-.84-1h0Q-1.9,1.06-1.74,0a3.44,3.44,0,0,1,1.54-2,.67.67,0,0,0,.27-.41A1.11,1.11,0,0,0,0-3a4.33,4.33,0,0,1-.31-1l-1.5.24Z"/>
<rect fill="none" x="-12" y="-12" width="24" height="24"/>
</symbol><symbol  id="tree" viewBox="-12 -12 24 24">
<path d="M7.4-5.04A4.271,4.271,0,0,0,7.7-6.627a4.3,4.3,0,0,0-4.3-4.3A4.279,4.279,0,0,0,.636-9.914,4.293,4.293,0,0,0-3.045-12a4.3,4.3,0,0,0-4.3,4.3,4.27,4.27,0,0,0,.421,1.845,4.3,4.3,0,0,0-3.645,4.244,4.3,4.3,0,0,0,4.3,4.3A4.282,4.282,0,0,0-3.946,2L-1.175,5.23h0L-1.612,12H.982L.757,6.376,4.119,2.827v0a4.272,4.272,0,0,0,2.15.58,4.3,4.3,0,0,0,4.3-4.3A4.3,4.3,0,0,0,7.4-5.04ZM-3.346,1.538h0A4.346,4.346,0,0,0-2.7.788a4.266,4.266,0,0,0,1.765.753l-.135,2.087ZM.69,4.7.563,1.544A4.258,4.258,0,0,0,2.321.805,4.3,4.3,0,0,0,3.378,2.279Z"/>
<rect fill="none" x="-12" y="-12" width="24" height="24"/>
</symbol><g>
<desc></desc>
<g>
<line fill="none" stroke="#dddddd" stroke-width="0.1mm" x1="0.00" y1="137.00" x2="332.00" y2="137.00" />
<text x="329.20" y="136.80" font-size=".2mm" fill="#000000">0m</text>
<line fill="none" stroke="#dddddd" stroke-width="0.1mm" x1="0.00" y1="87.00" x2="332.00" y2="87.00" />
<text x="329.20" y="86.80" font-size=".2mm" fill="#000000">5m</text>
<line fill="none" stroke="#dddddd" stroke-width="0.1mm" x1="0.00" y1="37.00" x2="332.00" y2="37.00" />
<text x="329.20" y="36.80" font-size=".2mm" fill="#000000">10m</text>
<line fill="none" stroke="#dddddd" stroke-width="0.1mm" x1="0.00" y1="187.00" x2="332.00" y2="187.00" />
<text x="329.20" y="186.80" font-size=".2mm" fill="#000000">-5m</text>
<line fill="none" stroke="#dddddd" stroke-width="0.1mm" x1="181.00" y1="0.00" x2="181.00" y2="193.00" />
<text x="181.40" y="2.00" font-size=".2mm" fill="#000000">0m</text>
<line fill="none" stroke="#dddddd" stroke-width="0.1mm" x1="131.00" y1="0.00" x2="131.00" y2="193.00" />
<text x="131.40" y="2.00" font-size=".2mm" fill="#000000">-5m</text>
<line fill="none" stroke="#dddddd" stroke-width="0.1mm" x1="81.00" y1="0.00" x2="81.00" y2="193.00" />
<text x="81.40" y="2.00" font-size=".2mm" fill="#000000">-10m</text>
<line fill="none" stroke="#dddddd" stroke-width="0.1mm" x1="31.00" y1="0.00" x2="31.00" y2="193.00" />
<text x="31.40" y="2.00" font-size=".2mm" fill="#000000">-15m</text>
<line fill="none" stroke="#dddddd" stroke-width="0.1mm" x1="231.00" y1="0.00" x2="231.00" y2="193.00" />
<text x="231.40" y="2.00" font-size=".2mm" fill="#000000">5m</text>
<line fill="none" stroke="#dddddd" stroke-width="0.1mm" x1="281.00" y1="0.00" x2="281.00" y2="193.00" />
<text x="281.40" y="2.00" font-size=".2mm" fill="#000000">10m</text>
<line fill="none" stroke="#dddddd" stroke-width="0.1mm" x1="331.00" y1="0.00" x2="331.00" y2="193.00" />
<text x="331.40" y="2.00" font-size=".2mm" fill="#000000">15m</text>
</g>
<g>
<path fill="none" stroke="#000000" stroke-width="0.06mm" d="M120.99071,108.35083 L121.572365,108.39742" /><path fill="none" stroke="#000000" stroke-width="0.06mm" d="M179.55086,136.16109 C178.96532,136.24252 178.48267,136.39027 177.91911,136.30751 C176.56184,136.1082 175.48978,134.76128 174.57176,133.87206 L174.57176,133.87206" /><defs><path id="DRAW_7157"  d="M177.82675,134.70442 C176.53926,134.24222 177.23048,134.65633 176.11751,132.99509 L176.11751,132.99509" /></defs><use xlink:href="#DRAW_7157" fill="none" stroke="#000000" stroke-width="0.04mm" /><text style="fill:#000000; font-size:0.5mm; letter-spacing:2;"><textPath xlink:href="#DRAW_7157">||||||||||</textPath></text><defs><path id="DRAW_7158"  d="M175.95401,132.84644 L175.95602,132.83359" /></defs><use xlink:href="#DRAW_7158" fill="none" stroke="#000000" stroke-width="0.04mm" /><text style="fill:#000000; font-size:0.5mm; letter-spacing:2;"><textPath xlink:href="#DRAW_7158">|</textPath></text><defs><path id="DRAW_7159"  d="M175.90942,132.47484 L175.94115,132.32822" /></defs><use xlink:href="#DRAW_7159" fill="none" stroke="#000000" stroke-width="0.04mm" /><text style="fill:#000000; font-size:0.5mm; letter-spacing:2;"><textPath xlink:href="#DRAW_7159">|</textPath></text><defs><path id="DRAW_7162"  d="M181.24524,136.16109 C179.91458,133.85645 177.52362,132.52649 175.45589,130.96306 C175.12358,130.7118 174.86897,130.35075 174.49922,130.1588 C165.11069,125.284386 165.01138,125.568954 153.17662,122.60449 C152.46118,122.425285 141.52835,119.38997 137.58054,119.793106 C134.1847,120.13988 130.82878,120.811195 127.470665,121.42359 C126.97313,121.51433 126.470825,121.65159 126.030014,121.899506 C125.44227,122.23004 120.558876,124.762024 118.79552,126.598854 C117.88771,127.544495 117.31734,129.19864 116.90946,130.21565 C116.52718,131.16881 116.21937,132.45598 116.47437,133.4984 C117.00226,135.65628 117.57479,137.80412 118.206924,139.9338 C118.3277,140.3407 118.51434,140.72905 118.72922,141.09508 C118.97668,141.51662 119.26618,141.91563 119.5869,142.28452 C120.27586,143.07695 121.008545,143.8312 121.75244,144.57233 C121.87053,144.68997 122.01373,144.78549 122.1658,144.85378 C123.75692,145.56824 125.39552,146.17575 126.9743,146.91708 C128.2909,147.53532 129.47336,148.44855 130.84596,148.92972 C133.13487,149.73209 135.52002,150.23997 137.89244,150.74442 C138.66522,150.90874 139.46548,150.94933 140.25531,150.9304 C143.73976,150.84694 147.24263,150.8788 150.70004,150.43764 C152.91602,150.15488 154.99437,149.17644 157.19092,148.76944 C158.66101,148.49706 160.1786,148.59682 161.66158,148.40663 C162.19061,148.33878 162.70738,148.18025 163.20853,147.99771 C165.30298,147.23483 167.38689,146.43951 169.4407,145.57318 C173.38136,143.91095 174.77658,142.78984 178.66776,139.9675 C179.13478,139.62875 179.55669,139.22571 179.94267,138.79692 C180.52774,138.14693 181.02904,137.42616 181.57222,136.74078 L181.57222,136.74078" /></defs><use xlink:href="#DRAW_7162" fill="none" stroke="#000000" stroke-width="0.04mm" /><text style="fill:#000000; font-size:0.5mm; letter-spacing:2;"><textPath xlink:href="#DRAW_7162">|||||||||||||||||||||||||||||||||||||||||||||||||||||||||||||||||||||||||||||||||||||||||||||||||||||||||||||||||||||||||||||||||||||||||||||||||||||||||||||||||||||||||||||||||||||||||||||||||||||||||||||||||||||||||||||||||||||||||||||||||||||||||||||||||||||||||||||||||||||||||||||||||||||||||||||||||||||||||||||||||||||||||||||||||||||||||||||||||||||||||||||||||||||||||||||||||||||||||||||||||||||||||||||||||||||||||||||||||||||||||||||||||||||||||||||||||||||||||||||||||||||||||||||||||||||||||||||||||||||||||||||||||||||||||||||||||||||||||||||||||||||||||||||||||||||||||||||||||||||||||||||||||||</textPath></text><path fill="none" stroke="#000000" stroke-width="0.06mm" d="M128.83836,150.72766 C108.45835,143.05501 134.32552,153.09024 119.82325,146.72758 C114.676025,144.46931 115.02782,145.54793 111.82283,143.18536 C111.34979,142.83665 110.206795,141.8661 109.86728,141.21031 C108.50139,138.57198 108.25055,137.11241 107.71815,133.94624 C107.624084,133.38687 107.591385,132.80975 107.652596,132.24583 C107.93639,129.63124 108.28789,127.61283 109.242714,125.24501 C109.591286,124.380615 110.058464,123.56888 110.45621,122.72598 C111.31318,120.90991 112.1087,119.06432 113.006805,117.26824 C113.16765,116.946594 113.41998,116.679504 113.62679,116.38529 C113.93221,115.95077 114.25311,115.52675 114.54348,115.08203 C116.16788,112.59414 115.91462,112.62335 117.74823,110.45128 C117.91413,110.25475 118.142075,110.11993 118.32837,109.94263 C119.66402,108.67146 120.98513,107.38513 122.313515,106.10639 L122.313515,106.10639" /><path fill="none" stroke="#000000" stroke-width="0.06mm" d="M159.79796,112.48298 C159.89247,113.00891 159.87474,113.354126 160.12152,113.77684 C161.1404,115.52207 164.06258,115.73524 165.78773,115.79762 L165.78773,115.79762" /><path fill="none" stroke="#000000" stroke-width="0.06mm" d="M161.38829,112.48298 C161.87642,112.51062 162.37589,112.45779 162.85269,112.5659 C165.55672,113.17902 171.1426,115.96318 172.43031,116.48717 C172.88467,116.67206 173.36905,116.81119 173.85866,116.841484 C183.8639,117.46052 187.36888,116.736145 197.34615,118.96661 C219.44765,123.9075 201.05553,120.52957 207.97272,122.60218 C209.00713,122.912125 209.64755,122.77261 210.76346,122.89829 C211.42375,122.97266 212.07227,123.13226 212.73161,123.214714 C213.54343,123.31624 214.13496,123.21223 214.86938,123.514175 C216.42633,124.15432 217.9759,124.81485 219.49976,125.53023 C220.12828,125.825294 220.68936,126.252594 221.32027,126.54257 C223.94061,127.74693 223.88065,127.67656 225.90851,128.23865 L225.90851,128.23865" /><path fill="none" stroke="#000000" stroke-width="0.06mm" d="M180.9777,139.26764 C179.58578,140.19801 179.59955,140.11026 178.51045,138.95549 L178.51045,138.95549" /><path fill="none" stroke="#000000" stroke-width="0.06mm" d="M178.62935,138.64334 L178.82457,138.60075" /><path fill="none" stroke="#000000" stroke-width="0.06mm" d="M179.06038,138.52443 L179.24074,139.06152" /><path fill="none" stroke="#000000" stroke-width="0.06mm" d="M179.17929,139.5649 L179.15155,139.53717" /><path fill="none" stroke="#000000" stroke-width="0.06mm" d="M180.99257,137.98935 C181.85983,137.69939 182.7685,137.42038 183.69055,137.6256 C184.9349,137.90254 186.9823,138.96506 187.68637,139.32874 C191.21286,141.15028 194.68105,143.08282 198.1959,144.92673 C198.72371,145.20361 199.27005,145.4439 199.81276,145.69026 C202.90807,147.09543 206.0116,148.48239 209.10976,149.88124 C209.51993,150.06644 209.94638,150.22023 210.33778,150.4424 C212.7018,151.78423 214.98328,153.27061 217.37076,154.57024 C217.79953,154.80365 218.28745,154.91313 218.76193,155.02806 C220.91724,155.55016 223.09033,155.996 225.25452,156.47997 L225.25452,156.47997" /><path fill="none" stroke="#000000" stroke-width="0.06mm" d="M117.38579,98.23909 C106.63907,90.74588 117.61058,98.17244 110.070625,93.5303 C109.42134,93.13055 108.859314,92.59653 108.19903,92.215225 C107.46011,91.788506 106.60851,91.571556 105.8878,91.11476 C85.62364,77.339676 105.146,90.136444 94.691025,84.04883 C94.0972,83.703064 93.58607,83.230896 93.016106,82.84707 C92.45812,82.4713 91.87053,82.141075 91.3087,81.77107 C90.78126,81.42371 90.29031,81.02069 89.74895,80.69544 C89.49277,80.54153 89.21414,80.41898 88.926025,80.339554 C87.54136,79.957825 86.11253,79.740234 84.74069,79.31473 C83.9052,79.05559 83.12956,78.632774 82.324,78.29181 L82.324,78.29181" /><path fill="none" stroke="#000000" stroke-width="0.06mm" d="M121.05693,101.37536 C122.28261,104.180786 121.49726,102.59567 123.58365,106.0426 L123.58365,106.0426" /><path fill="none" stroke="#000000" stroke-width="0.06mm" d="M118.18838,98.625534 C118.57812,101.943214 119.74774,103.347916 120.87114,106.327774 C121.3507,107.59981 121.32349,109.36745 121.41365,110.59094 L121.41365,110.59094" /><path fill="none" stroke="#000000" stroke-width="0.06mm" d="M81.3579,78.08371 C80.78253,78.42874 80.20716,78.77377 79.63179,79.118805 C79.39394,79.2351 79.14024,79.323395 78.918274,79.467705 C77.991745,80.07007 77.207054,80.95334 76.530235,81.795456 C76.27255,82.116066 76.09239,82.49191 75.873474,82.84015 L75.873474,82.84015" /><path fill="none" stroke="#000000" stroke-width="0.06mm" d="M77.37463,82.00777 C76.01159,83.77902 74.648544,85.55029 73.2855,87.32155 C73.177795,87.40408 73.07679,87.496216 72.96236,87.56915 C72.46476,87.8863 71.849396,87.79257 71.30075,87.89905 C70.998856,87.957634 70.71033,88.07155 70.417145,88.16437 C70.08341,88.27002 69.76558,88.43748 69.42019,88.4944 C67.64605,88.786804 65.30358,89.29545 63.43799,88.690056 C62.81627,88.48831 61.92209,87.79863 61.545547,87.55199 L61.545547,87.55199" /><path fill="none" stroke="#000000" stroke-width="0.06mm" d="M62.957542,87.67088 C61.475067,87.44452 59.98719,87.25102 58.5101,86.9918 C57.80462,86.868 56.025322,86.7194 55.283173,85.972946 C53.83143,84.5128 54.2269,84.89743 53.32634,82.91446 L53.32634,82.91446" /><path fill="none" stroke="#000000" stroke-width="0.06mm" d="M101.30404,63.11582 C100.302155,63.01066 99.29807,62.924744 98.2984,62.80034 C97.8019,62.738556 97.838974,62.05538 97.94411,61.728363 C98.14375,61.10733 98.35549,60.48876 98.60988,59.88807 C98.83765,59.350204 99.738716,57.850838 99.3883,58.318146 C94.391525,64.98158 101.251366,57.052574 96.473564,62.41722 L96.473564,62.41722" /><path fill="none" stroke="#000000" stroke-width="0.06mm" d="M95.52234,62.41722 L94.42447,62.181396" /><path fill="none" stroke="#000000" stroke-width="0.06mm" d="M93.887405,61.956444 L92.71524,61.869263" /><path fill="none" stroke="#000000" stroke-width="0.06mm" d="M91.70255,61.391617 L91.3627,61.393623" /><path fill="none" stroke="#000000" stroke-width="0.06mm" d="M90.69186,59.92009 C95.1875,64.83002 92.74605,62.450623 97.009766,66.189255 C100.99435,69.6831 99.197464,68.3811 101.73506,70.11669 L101.73506,70.11669" /><path fill="none" stroke="#000000" stroke-width="0.06mm" d="M104.23203,71.528755 C107.940445,74.26263 101.76043,69.61854 110.713234,77.82889 C120.47525,86.78134 110.902275,77.701065 117.581985,82.62415 C120.03403,84.43135 122.38639,86.37372 124.6966,88.359024 C126.08094,89.54866 126.73699,90.70222 127.9433,92.009125 C128.69427,92.82272 129.5011,93.58294 130.27574,94.37404 C130.62048,94.726105 130.95526,95.08784 131.30136,95.43857 C131.67737,95.81964 132.09445,96.16204 132.44193,96.56931 C134.37527,98.83535 137.49547,103.32841 140.44241,105.62244 C141.47198,106.4239 142.62057,107.061035 143.67609,107.827995 C144.17014,108.187 144.36646,108.80177 144.86726,109.164856 C146.2485,110.16623 147.05052,109.14984 148.27106,108.30191 L148.27106,108.30191" /><path fill="none" stroke="#000000" stroke-width="0.06mm" d="M149.22229,108.732956 C151.44034,108.362015 152.62553,108.0355 154.62991,108.88659 C155.37129,109.201385 156.09155,109.576096 156.7651,110.01774 C157.95709,110.79932 159.00005,111.79834 160.21281,112.54725 C161.2355,113.17877 162.36838,113.61135 163.44617,114.1434 L163.44617,114.1434" /><path fill="none" stroke="#000000" stroke-width="0.06mm" d="M54.85025,83.95697 C53.541054,82.77259 52.59172,81.86252 50.91063,81.50813 C49.384857,81.18651 48.019714,81.59335 46.413376,81.66487 C46.14882,81.67665 45.88089,81.64028 45.62381,81.57668 C44.45929,81.28857 43.33008,80.86121 42.156647,80.611725 C41.11479,80.39021 40.051773,80.27713 38.99237,80.16673 C38.401764,80.10519 36.289444,80.16687 35.340378,79.77191 C33.045883,78.81707 30.62674,77.95243 28.672806,76.35579 C28.16043,75.93711 27.691635,75.461914 27.266312,74.95503 C25.215149,72.51047 23.330002,70.60212 22.661087,67.53661 C22.437866,66.51366 22.3555,65.30359 22.726044,64.29304 C23.136566,63.173386 23.612976,62.89154 24.544632,62.032806 L24.544632,62.032806" /><path fill="none" stroke="#000000" stroke-width="0.06mm" d="M94.650986,62.475914 C94.281136,62.08499 93.940056,61.664703 93.54144,61.303146 C92.05424,59.954163 89.23986,59.390167 87.617134,59.0568 C74.33069,56.32728 81.73632,58.508347 77.707184,57.3033 L77.707184,57.3033" /><path fill="none" stroke="#000000" stroke-width="0.06mm" d="M81.3189,55.698006 L84.97519,56.84253" /><path fill="none" stroke="#000000" stroke-width="0.06mm" d="M84.871155,57.006027 L84.87315,57.008026" /><path fill="none" stroke="#000000" stroke-width="0.06mm" d="M84.871155,57.31816 L84.87315,57.26071" /><defs><path id="DRAW_7203"  d="M38.825638,57.481667 C38.289917,57.057358 37.65851,56.620224 37.436874,55.927956 C37.416763,55.865166 37.446716,55.79635 37.45613,55.731087 C37.48854,55.506554 37.526917,55.282936 37.562286,55.05886 L37.562286,55.05886" /></defs><use xlink:href="#DRAW_7203" fill="none" stroke="#000000" stroke-width="0mm" /><text style="fill:#000000; font-size:0.6mm; letter-spacing:2;"><textPath xlink:href="#DRAW_7203">⊥⊥⊥⊥⊥⊥⊥⊥⊥</textPath></text><defs><path id="DRAW_7204"  d="M37.621735,54.65754 L37.71292,54.629814" /></defs><use xlink:href="#DRAW_7204" fill="none" stroke="#000000" stroke-width="0mm" /><text style="fill:#000000; font-size:0.6mm; letter-spacing:2;"><textPath xlink:href="#DRAW_7204">⊥</textPath></text><path fill="none" stroke="#000000" stroke-width="0.06mm" d="M85.82238,59.354507 C86.62172,59.704025 87.394424,60.122208 88.2204,60.40307 C89.77648,60.932182 92.17501,61.077522 93.68551,60.264816 C93.744255,60.233215 93.741714,60.107056 93.69013,60.064774 C93.59343,59.985497 93.449814,59.99405 93.32695,59.970863 C93.06124,59.920715 92.792694,59.886963 92.52558,59.845016 L92.52558,59.845016" /><path fill="none" stroke="#000000" stroke-width="0.06mm" d="M92.2729,58.864 C92.02098,58.612144 91.75088,58.377243 91.51712,58.10843 C90.839714,57.3294 90.86022,55.874054 90.75689,54.984535 L90.75689,54.984535" /><path fill="none" stroke="#000000" stroke-width="0.06mm" d="M92.13914,58.49241 C91.82046,57.937668 91.50177,57.38292 91.18307,56.82818 C90.9469,56.2957 90.77581,55.72931 90.47453,55.230774 C89.90675,54.29119 89.216095,53.431595 88.58689,52.532005 L88.58689,52.532005" /><path fill="none" stroke="#000000" stroke-width="0.06mm" d="M89.92457,53.17115 C89.55411,52.883377 89.15239,52.631866 88.813194,52.30783 C86.96046,50.53781 85.34803,48.54415 83.42943,46.83914 L83.42943,46.83914" /><path fill="none" stroke="#000000" stroke-width="0.06mm" d="M85.3319,48.32553 C85.00662,47.94725 84.72803,47.523155 84.356064,47.19066 C83.215355,46.17095 81.45434,44.97982 79.810104,45.337135 C78.666534,45.585655 78.37302,45.924286 77.20185,46.601326 L77.20185,46.601326" /><path fill="none" stroke="#000000" stroke-width="0.06mm" d="M78.821915,46.83914 C75.74594,48.09806 78.28523,46.961487 74.15796,49.30739 C73.92287,49.441025 73.65939,49.518433 73.41929,49.642853 C73.01877,49.85038 72.63151,50.082565 72.23761,50.30243 L72.23761,50.30243" /><path fill="none" stroke="#000000" stroke-width="0.06mm" d="M74.09548,49.901093 C69.49432,51.2947 77.02464,48.925232 67.49555,52.77485 C66.54488,53.158913 65.53401,53.380722 64.53275,53.601532 C63.85842,53.750244 63.099068,53.757057 62.412575,53.643333 C61.93273,53.563858 61.40249,53.254944 61.00119,53.067093 L61.00119,53.067093" /><path fill="none" stroke="#000000" stroke-width="0.06mm" d="M63.20092,52.725243 C60.57547,53.439484 59.023804,54.05713 56.370567,54.139847 C49.917603,54.04029 52.416336,53.973717 48.873,54.107574 L48.873,54.107574" /><path fill="none" stroke="#000000" stroke-width="0.06mm" d="M50.70114,53.453568 C49.60991,53.354523 48.51764,53.04637 47.42746,53.156433 C43.333817,53.56971 39.297333,54.428986 35.224976,55.016014 C33.94583,55.200394 33.11812,53.89892 31.951553,53.653015 C31.82045,53.625374 31.684296,53.59237 31.551697,53.611694 C28.63562,54.03682 25.72937,54.526924 22.818207,54.984535 L22.818207,54.984535" /><path fill="none" stroke="#000000" stroke-width="0.06mm" d="M24.640625,54.89618 C24.467926,54.71499 24.314835,54.600517 24.214157,54.380714 C23.8526,53.591278 24.136871,52.590485 24.346695,51.80655 L24.346695,51.80655" /><path fill="none" stroke="#000000" stroke-width="0.06mm" d="M24.360367,53.474396 C24.615967,52.821808 24.871521,52.16922 25.127106,51.516617 C25.309326,51.106995 25.56958,50.723793 25.673752,50.287735 C25.967972,49.056046 26.10138,47.791405 26.3152,46.543236 L26.3152,46.543236" /><path fill="none" stroke="#000000" stroke-width="0.06mm" d="M26.002396,46.35295 C26.712296,43.817863 26.362183,45.34427 26.727554,40.758133 C26.779312,40.108536 26.756622,39.45276 26.839401,38.806374 C26.904007,38.301796 27.005493,37.798096 27.168304,37.316162 C28.113739,34.517403 29.270782,31.791145 30.160751,28.974258 C30.681213,27.326965 30.979034,25.61744 31.394241,23.940529 C31.558395,23.277527 31.767899,22.624924 31.898865,21.95459 C31.938705,21.75071 32.199356,20.36277 32.148376,19.708344 C32.10289,19.124413 31.235474,19.044716 30.873108,19.364433 C30.449646,19.738068 30.372498,19.854797 30.075409,20.316254 C29.558517,21.11914 28.96373,21.878853 28.539368,22.73426 C27.352905,25.125885 26.195145,27.540207 25.252533,30.038025 C24.299957,32.56224 23.776855,35.73024 23.16594,38.408752 C22.820953,39.921295 21.228943,45.011246 21.21228,47.88875 C21.207825,48.658234 21.330307,49.42424 21.340744,50.193672 C21.354568,51.210983 20.812637,51.975204 20.44899,52.894745 C20.321426,53.217316 20.268219,53.779404 20.282227,54.105286 C20.319534,54.973114 20.373856,55.84088 20.463333,56.704903 C20.481842,56.883766 20.536285,57.05928 20.605331,57.22531 C21.130402,58.488243 21.67192,59.744736 22.24376,60.98719 C22.327148,61.16839 22.444824,61.333252 22.568115,61.490044 C22.681076,61.633728 22.810638,61.76509 22.949158,61.88433 C23.655334,62.492195 24.383133,63.074493 25.100113,63.66957 L25.100113,63.66957" /><defs><path id="DRAW_7235"  d="M33.102448,56.066658 C31.599335,60.275772 31.564957,59.727905 30.919174,64.448975 C30.712708,65.95836 30.872406,67.58558 31.50029,68.98487 C32.37741,70.93963 33.851974,72.21681 35.594315,73.44972 C36.14743,73.84112 37.7117,74.53295 38.415253,74.60447 C41.630066,74.93127 44.87036,74.96381 48.0849,75.293335 C48.838715,75.370605 49.592514,75.5401 50.29576,75.82233 C52.09117,76.54291 53.832558,77.3972 55.549316,78.28911 C57.665833,79.3887 59.687363,80.66344 61.788086,81.79294 C62.06449,81.94154 62.368027,82.03837 62.671448,82.11848 C63.987892,82.46604 64.75746,82.21295 66.07573,82.12141 C66.750885,82.074524 67.42842,82.07291 68.10477,82.048645 L68.10477,82.048645" /></defs><use xlink:href="#DRAW_7235" fill="none" stroke="#000000" stroke-width="0mm" /><text style="fill:#000000; font-size:0.6mm; letter-spacing:2;"><textPath xlink:href="#DRAW_7235">⊥⊥⊥⊥⊥⊥⊥⊥⊥⊥⊥⊥⊥⊥⊥⊥⊥⊥⊥⊥⊥⊥⊥⊥⊥⊥⊥⊥⊥⊥⊥⊥⊥⊥⊥⊥⊥⊥⊥⊥⊥⊥⊥⊥⊥⊥⊥⊥⊥⊥⊥⊥⊥⊥⊥⊥⊥⊥⊥⊥⊥⊥⊥⊥⊥⊥⊥⊥⊥⊥⊥⊥⊥⊥⊥⊥⊥⊥⊥⊥⊥⊥⊥⊥⊥⊥⊥⊥⊥⊥⊥⊥⊥⊥⊥⊥⊥⊥⊥⊥⊥⊥⊥⊥⊥⊥⊥⊥⊥⊥⊥⊥⊥⊥⊥⊥⊥⊥⊥⊥⊥⊥⊥⊥⊥⊥⊥⊥⊥⊥⊥⊥⊥⊥⊥⊥⊥⊥⊥⊥⊥⊥⊥⊥⊥⊥⊥⊥⊥⊥⊥⊥⊥⊥⊥⊥⊥⊥⊥⊥⊥</textPath></text><defs><path id="DRAW_7236"  d="M150.5,104.700005 L150.50198,104.70201" /></defs><use xlink:href="#DRAW_7236" fill="none" stroke="#000000" stroke-width="0mm" /><text style="fill:#000000; font-size:0.6mm; letter-spacing:2;"><textPath xlink:href="#DRAW_7236">⊥</textPath></text><path fill="none" stroke="#000000" stroke-width="0.06mm" d="M38.899994,180.4 L38.10199,180.702" /><path fill="none" stroke="#000000" stroke-width="0.06mm" d="M141.39879,135.43062 C141.72986,135.54686 142.0517,135.69386 142.39201,135.77934 C142.64668,135.8433 142.91135,135.88643 143.17372,135.8764 C144.89618,135.81055 145.94614,135.8358 147.40091,135.3385 C147.7565,135.21695 148.09619,135.05309 148.44383,134.91037 L148.44383,134.91037" /><path fill="none" stroke="#000000" stroke-width="0.06mm" d="M141.85953,131.52142 C140.69353,131.7751 139.36357,132.16394 138.8525,133.36938 C138.1177,135.10248 138.25064,137.42209 139.31697,138.99927 C140.6246,140.93333 142.99933,141.69357 145.19644,140.96317 C145.67723,140.80333 146.34923,140.51067 146.7661,140.16077 C147.77808,139.31139 148.67612,137.67278 149.15332,136.73723 C150.02887,135.02069 150.60251,133.14444 149.67883,131.36565 C149.35442,130.74086 148.79193,130.3767 148.13297,130.1708 C146.06519,129.52477 143.56207,130.62354 141.6366,131.29846 L141.6366,131.29846" /><use xlink:href="#entrance" width="3.6" height="3.6" x="-1.8" y="-1.8" transform="translate(192.09521 131.59789) rotate(113)"/>
<use xlink:href="#entrance" width="3.6" height="3.6" x="-1.8" y="-1.8" transform="translate(197.66882 123.2444) rotate(113)"/>
<use xlink:href="#entrance" width="3.6" height="3.6" x="-1.8" y="-1.8" transform="translate(204.07478 130.37904) rotate(110)"/>
<use xlink:href="#entrance" width="3.6" height="3.6" x="-1.8" y="-1.8" transform="translate(207.89456 139.13385) rotate(123)"/>
<use xlink:href="#entrance" width="3.6" height="3.6" x="-1.8" y="-1.8" transform="translate(214.90988 127.76301) rotate(123)"/>
<use xlink:href="#entrance" width="3.6" height="3.6" x="-1.8" y="-1.8" transform="translate(91.21207 76.15141) rotate(106)"/>
<use xlink:href="#entrance" width="3.6" height="3.6" x="-1.8" y="-1.8" transform="translate(105.703476 76.255455) rotate(106)"/>
<use xlink:href="#entrance" width="3.6" height="3.6" x="-1.8" y="-1.8" transform="translate(107.724846 85.63455) rotate(106)"/>
<use xlink:href="#entrance" width="3.6" height="3.6" x="-1.8" y="-1.8" transform="translate(53.33603 58.80432) rotate(101)"/>
<use xlink:href="#entrance" width="3.6" height="3.6" x="-1.8" y="-1.8" transform="translate(44.46765 66.72363) rotate(85)"/>
<use xlink:href="#entrance" width="3.6" height="3.6" x="-1.8" y="-1.8" transform="translate(70.15725 75.49222) rotate(87)"/>
<use xlink:href="#entrance" width="3.6" height="3.6" x="-1.8" y="-1.8" transform="translate(55.90609 67.20893) rotate(82)"/>
<use xlink:href="#entrance" width="3.6" height="3.6" x="-1.8" y="-1.8" transform="translate(65.17154 65.53242) rotate(82)"/>
<use xlink:href="#entrance" width="3.6" height="3.6" x="-1.8" y="-1.8" transform="translate(77.04016 70.341354) rotate(109)"/>
</g>
<g>
<line fill="none" stroke="#111111" stroke-width="0.05mm" x1="181.00" y1="137.00" x2="143.28" y2="112.41" />
<line fill="none" stroke="#5674b9" stroke-width="0.05mm" stroke-dasharray="0.4,0.2" opacity="0.94" x1="143.28" y1="112.41" x2="127.66" y2="151.88" />
<line fill="none" stroke="#00aeef" stroke-width="0.05mm" stroke-dasharray="0.4,0.2" opacity="0.94" x1="143.28" y1="112.41" x2="114.51" y2="114.10" />
<line fill="none" stroke="#00aeef" stroke-width="0.05mm" stroke-dasharray="0.4,0.2" opacity="0.95" x1="143.28" y1="112.41" x2="107.28" y2="140.94" />
<line fill="none" stroke="#5674b9" stroke-width="0.05mm" stroke-dasharray="0.4,0.2" opacity="0.88" x1="143.28" y1="112.41" x2="161.21" y2="144.45" />
<line fill="none" stroke="#5674b9" stroke-width="0.05mm" stroke-dasharray="0.4,0.2" opacity="0.90" x1="143.28" y1="112.41" x2="157.97" y2="124.41" />
<line fill="none" stroke="#5674b9" stroke-width="0.05mm" stroke-dasharray="0.4,0.2" opacity="0.98" x1="143.28" y1="112.41" x2="158.25" y2="113.84" />
<line fill="none" stroke="#00aeef" stroke-width="0.05mm" stroke-dasharray="0.4,0.2" opacity="0.86" x1="143.28" y1="112.41" x2="120.14" y2="107.74" />
<line fill="none" stroke="#00aeef" stroke-width="0.05mm" stroke-dasharray="0.4,0.2" opacity="0.24" x1="143.28" y1="112.41" x2="119.96" y2="125.59" />
<line fill="none" stroke="#5674b9" stroke-width="0.05mm" stroke-dasharray="0.4,0.2" opacity="0.28" x1="143.28" y1="112.41" x2="128.64" y2="149.13" />
<line fill="none" stroke="#5674b9" stroke-width="0.05mm" stroke-dasharray="0.4,0.2" opacity="0.40" x1="143.28" y1="112.41" x2="113.88" y2="131.57" />
<line fill="none" stroke="#5674b9" stroke-width="0.05mm" stroke-dasharray="0.4,0.2" opacity="0.41" x1="143.28" y1="112.41" x2="119.55" y2="143.38" />
<line fill="none" stroke="#5674b9" stroke-width="0.05mm" stroke-dasharray="0.4,0.2" opacity="0.46" x1="143.28" y1="112.41" x2="111.38" y2="123.23" />
<line fill="none" stroke="#5674b9" stroke-width="0.05mm" stroke-dasharray="0.4,0.2" opacity="0.44" x1="143.28" y1="112.41" x2="143.98" y2="115.09" />
<line fill="none" stroke="#5674b9" stroke-width="0.05mm" stroke-dasharray="0.4,0.2" opacity="0.45" x1="143.28" y1="112.41" x2="156.74" y2="149.95" />
<line fill="none" stroke="#5674b9" stroke-width="0.05mm" stroke-dasharray="0.4,0.2" opacity="0.62" x1="143.28" y1="112.41" x2="224.43" y2="156.88" />
<line fill="none" stroke="#5674b9" stroke-width="0.05mm" stroke-dasharray="0.4,0.2" opacity="0.67" x1="143.28" y1="112.41" x2="226.14" y2="128.42" />
<line fill="none" stroke="#5674b9" stroke-width="0.05mm" stroke-dasharray="0.4,0.2" opacity="0.31" x1="143.28" y1="112.41" x2="132.63" y2="121.83" />
<line fill="none" stroke="#00aeef" stroke-width="0.05mm" stroke-dasharray="0.4,0.2" opacity="0.41" x1="143.28" y1="112.41" x2="136.30" y2="110.34" />
<line fill="none" stroke="#111111" stroke-width="0.05mm" x1="143.28" y1="112.41" x2="77.72" y2="58.60" />
<line fill="none" stroke="#00aeef" stroke-width="0.05mm" stroke-dasharray="0.4,0.2" opacity="0.96" x1="77.72" y1="58.60" x2="70.12" y2="87.77" />
<line fill="none" stroke="#5674b9" stroke-width="0.05mm" stroke-dasharray="0.4,0.2" opacity="0.88" x1="77.72" y1="58.60" x2="80.80" y2="77.34" />
<line fill="none" stroke="#00aeef" stroke-width="0.05mm" stroke-dasharray="0.4,0.2" opacity="0.86" x1="77.72" y1="58.60" x2="55.41" y2="84.49" />
<line fill="none" stroke="#5674b9" stroke-width="0.05mm" stroke-dasharray="0.4,0.2" opacity="0.85" x1="77.72" y1="58.60" x2="92.20" y2="63.96" />
<line fill="none" stroke="#00aeef" stroke-width="0.05mm" stroke-dasharray="0.4,0.2" opacity="0.27" x1="77.72" y1="58.60" x2="63.77" y2="59.83" />
<line fill="none" stroke="#5674b9" stroke-width="0.05mm" stroke-dasharray="0.4,0.2" opacity="0.41" x1="77.72" y1="58.60" x2="114.99" y2="75.39" />
<line fill="none" stroke="#00aeef" stroke-width="0.05mm" stroke-dasharray="0.4,0.2" opacity="0.56" x1="77.72" y1="58.60" x2="53.08" y2="57.58" />
<line fill="none" stroke="#00aeef" stroke-width="0.05mm" stroke-dasharray="0.4,0.2" opacity="0.57" x1="77.72" y1="58.60" x2="20.71" y2="56.35" />
<line fill="none" stroke="#00aeef" stroke-width="0.05mm" stroke-dasharray="0.4,0.2" opacity="0.57" x1="77.72" y1="58.60" x2="20.71" y2="56.46" />
<line fill="none" stroke="#00aeef" stroke-width="0.05mm" stroke-dasharray="0.4,0.2" opacity="0.56" x1="77.72" y1="58.60" x2="44.65" y2="57.40" />
<line fill="none" stroke="#00aeef" stroke-width="0.05mm" stroke-dasharray="0.4,0.2" opacity="0.57" x1="77.72" y1="58.60" x2="23.85" y2="63.24" />
<line fill="none" stroke="#00aeef" stroke-width="0.05mm" stroke-dasharray="0.4,0.2" opacity="0.59" x1="77.72" y1="58.60" x2="21.77" y2="68.69" />
<line fill="none" stroke="#00aeef" stroke-width="0.05mm" stroke-dasharray="0.4,0.2" opacity="0.62" x1="77.72" y1="58.60" x2="28.58" y2="71.62" />
<line fill="none" stroke="#00aeef" stroke-width="0.05mm" stroke-dasharray="0.4,0.2" opacity="0.65" x1="77.72" y1="58.60" x2="32.00" y2="75.34" />
<line fill="none" stroke="#00aeef" stroke-width="0.05mm" stroke-dasharray="0.4,0.2" opacity="0.69" x1="77.72" y1="58.60" x2="33.73" y2="80.83" />
<line fill="none" stroke="#00aeef" stroke-width="0.05mm" stroke-dasharray="0.4,0.2" opacity="0.74" x1="77.72" y1="58.60" x2="43.39" y2="81.94" />
<line fill="none" stroke="#00aeef" stroke-width="0.05mm" stroke-dasharray="0.4,0.2" opacity="0.79" x1="77.72" y1="58.60" x2="55.99" y2="78.08" />
<line fill="none" stroke="#00aeef" stroke-width="0.05mm" stroke-dasharray="0.4,0.2" opacity="0.62" x1="77.72" y1="58.60" x2="31.36" y2="62.21" />
<line fill="none" stroke="#00aeef" stroke-width="0.05mm" stroke-dasharray="0.4,0.2" opacity="0.65" x1="77.72" y1="58.60" x2="32.84" y2="65.00" />
<line fill="none" stroke="#00aeef" stroke-width="0.05mm" stroke-dasharray="0.4,0.2" opacity="0.72" x1="77.72" y1="58.60" x2="38.85" y2="71.97" />
<line fill="none" stroke="#00aeef" stroke-width="0.05mm" stroke-dasharray="0.4,0.2" opacity="0.78" x1="77.72" y1="58.60" x2="44.11" y2="74.82" />
<line fill="none" stroke="#00aeef" stroke-width="0.05mm" stroke-dasharray="0.4,0.2" opacity="0.83" x1="77.72" y1="58.60" x2="45.61" y2="75.97" />
<line fill="none" stroke="#00aeef" stroke-width="0.05mm" stroke-dasharray="0.4,0.2" opacity="0.89" x1="77.72" y1="58.60" x2="58.96" y2="73.67" />
<line fill="none" stroke="#5674b9" stroke-width="0.05mm" stroke-dasharray="0.4,0.2" opacity="0.94" x1="77.72" y1="58.60" x2="62.77" y2="82.39" />
<line fill="none" stroke="#5674b9" stroke-width="0.05mm" stroke-dasharray="0.4,0.2" opacity="0.85" x1="77.72" y1="58.60" x2="80.24" y2="45.79" />
<line fill="none" stroke="#5674b9" stroke-width="0.05mm" stroke-dasharray="0.4,0.2" opacity="0.91" x1="77.72" y1="58.60" x2="74.35" y2="49.42" />
<line fill="none" stroke="#00aeef" stroke-width="0.05mm" stroke-dasharray="0.4,0.2" opacity="0.99" x1="77.72" y1="58.60" x2="68.53" y2="52.79" />
<line fill="none" stroke="#5674b9" stroke-width="0.05mm" stroke-dasharray="0.4,0.2" opacity="0.55" x1="77.72" y1="58.60" x2="87.95" y2="53.17" />
<line fill="none" stroke="#5674b9" stroke-width="0.05mm" stroke-dasharray="0.4,0.2" opacity="0.52" x1="77.72" y1="58.60" x2="91.49" y2="58.40" />
<line fill="none" stroke="#00aeef" stroke-width="0.05mm" stroke-dasharray="0.4,0.2" opacity="0.83" x1="77.72" y1="58.60" x2="88.32" y2="22.41" />
<line fill="none" stroke="#111111" stroke-width="0.05mm" x1="77.72" y1="58.60" x2="21.11" y2="56.28" />
<line fill="none" stroke="#5674b9" stroke-width="0.05mm" stroke-dasharray="0.4,0.2" opacity="0.96" x1="21.11" y1="56.28" x2="20.65" y2="52.28" />
<line fill="none" stroke="#5674b9" stroke-width="0.05mm" stroke-dasharray="0.4,0.2" opacity="0.99" x1="21.11" y1="56.28" x2="24.88" y2="52.45" />
<line fill="none" stroke="#111111" stroke-width="0.05mm" x1="21.11" y1="56.28" x2="30.87" y2="19.57" />
<line fill="none" stroke="#111111" stroke-width="0.05mm" x1="181.00" y1="137.00" x2="243.60" y2="140.52" />
<line fill="none" stroke="#00aeef" stroke-width="0.05mm" stroke-dasharray="0.4,0.2" opacity="0.47" x1="243.60" y1="140.52" x2="191.08" y2="130.34" />
<line fill="none" stroke="#111111" stroke-width="0.05mm" x1="243.60" y1="140.52" x2="313.02" y2="173.38" />
</g>
<g>
<circle cx="181.00" cy="137.00" r="0.1" fill="#111111" />
<circle cx="143.28" cy="112.41" r="0.1" fill="#111111" />
<circle cx="77.72" cy="58.60" r="0.1" fill="#111111" />
<circle cx="21.11" cy="56.28" r="0.1" fill="#111111" />
<circle cx="30.87" cy="19.57" r="0.1" fill="#111111" />
<circle cx="243.60" cy="140.52" r="0.1" fill="#111111" />
<circle cx="313.02" cy="173.38" r="0.1" fill="#111111" />
</g>
<g>
<text x="181.20" y="137.00" font-size=".2mm" fill="#000000">0</text>
<text x="143.48" y="112.41" font-size=".2mm" fill="#000000">1</text>
<text x="77.92" y="58.60" font-size=".2mm" fill="#000000">2</text>
<text x="21.31" y="56.28" font-size=".2mm" fill="#000000">3</text>
<text x="31.07" y="19.57" font-size=".2mm" fill="#000000">4</text>
<text x="243.80" y="140.52" font-size=".2mm" fill="#000000">0.1</text>
<text x="313.22" y="173.38" font-size=".2mm" fill="#000000">0.2</text>
</g>
<g>
</g>
</g>
</svg>