<?xml version="1.0" encoding="utf-8"?>
<!DOCTYPE svg PUBLIC "-//W3C//DTD SVG 1.1//EN" "http://www.w3.org/Graphics/SVG/1.1/DTD/svg11.dtd">
<svg version="1.1" id="Layer_1" xmlns="http://www.w3.org/2000/svg" xmlns:xlink="http://www.w3.org/1999/xlink" x="0px" y="0px" width="98mm" height="70mm" viewBox="0 0 98 70" enable-background="new 0 0 98 70" xml:space="preserve">
<symbol id="airflow" viewBox="-12 -12 24 24">
<path d="M-4.38,10.73l4.2-3.84V3.55L-4.07,7.13l-.31-.29L-.18,3V-6.89a3.37,3.37,0,0,0-1.68.53l1.68-4.15L0-11l.21.51h0v0l1.65,4.1A3.26,3.26,0,0,0,.24-6.89v14l-.08,0L-4.07,11Z"/>
<rect fill="none" x="-12" y="-12" width="24" height="24"/>
</symbol>
<symbol id="anastomosis" viewBox="-12 -12 24 24">
<path d="M2.23-4.78l.37.24L5.22-2.78l-.47.57L2.49-3.7l-4.61,8-.24.44-.37-.34L-5.22,2.3l.55-.52,2.1,1.82L2-4.39Z"/>
<rect fill="none" x="-12" y="-12" width="24" height="24"/>
</symbol>
<symbol id="bivouac" viewBox="-12 -12 24 24">
<path d="M.25-7.66l.24.58L.54-7l3.88.48-3.31.91L6,6H8.35v.48l-16.7.07V6.05h2.64L0-7.08Zm0,1.32L-5.13,6H-4l2.07-5L.2-4l2.09,5L4.37,6H5.44Z"/>
<rect fill="none" x="-12" y="-12" width="24" height="24"/>
</symbol>
<symbol id="bones" viewBox="-12 -12 24 24">
<path d="M2.44,4.27l-.16,0H2.13a.22.22,0,0,1-.11,0l-.1-.06a.39.39,0,0,1-.09-.11l-.08-.13a1.51,1.51,0,0,1-.06-.15l-.07-.17s0-.11-.08-.19-.06-.16-.08-.21a4.75,4.75,0,0,0-.38-.71c-.18-.29-.43-.64-.74-1A11.15,11.15,0,0,0-.7.32,6.73,6.73,0,0,0-2-.64a4.12,4.12,0,0,0-1.44-.52A1.64,1.64,0,0,1-5-2.19.72.72,0,0,1-5-2.44a1,1,0,0,1,0-.29A.52.52,0,0,1-4.87-3a.54.54,0,0,1,.35-.15L-4-3.22l.46,0a.54.54,0,0,0,.27-.06A.52.52,0,0,0-3-3.56a.74.74,0,0,0,.13-.31.54.54,0,0,1,.15-.26.54.54,0,0,1,.3-.15.83.83,0,0,1,.47,0,1.11,1.11,0,0,1,.35.4A7.46,7.46,0,0,1-1-2.76q.18.42.33.72a3.22,3.22,0,0,0,.39.57L.1-1a4.77,4.77,0,0,0,.58.43c.28.18.51.33.69.43l1,.56a1.84,1.84,0,0,0,.39.23A5.29,5.29,0,0,1,3.22.9l.43.26a3.7,3.7,0,0,1,.46.3l.36.29a2.28,2.28,0,0,1,.31.32A1,1,0,0,1,5,2.4c.2.48,0,.78-.47.91h0a8.48,8.48,0,0,0-1.12.09,1,1,0,0,0-.42.44A1,1,0,0,1,2.44,4.27Z"/>
<rect fill="none" x="-12" y="-12" width="24" height="24"/>
</symbol>
<symbol id="calcite" viewBox="-12 -12 24 24">
<path d="M2.36-2.22l.05.46.34,3.91L2,2.22,1.65-1.26-2.52-.06l-.23-.7L1.89-2.08Z"/>
<rect fill="none" x="-12" y="-12" width="24" height="24"/>
</symbol>
<symbol id="cauliflower" viewBox="-12 -12 24 24">
<path d="M5.58,3.22v-3A2.12,2.12,0,0,0,6.92-.43a1.78,1.78,0,0,0,.55-1.32,1.92,1.92,0,0,0-.65-1.42,2.19,2.19,0,0,0-1.53-.59,2.21,2.21,0,0,0-1.54.59,1.78,1.78,0,0,0-.64,1.42A1.86,1.86,0,0,0,3.65-.43,2.12,2.12,0,0,0,5,.23v3H.26v-3A2.17,2.17,0,0,0,1.61-.43a1.81,1.81,0,0,0,.54-1.32,1.91,1.91,0,0,0-.64-1.42A2.21,2.21,0,0,0,0-3.76a2.21,2.21,0,0,0-1.54.59,1.82,1.82,0,0,0-.64,1.42A1.83,1.83,0,0,0-1.66-.43,2.12,2.12,0,0,0-.32.23v3H-5v-3A2.12,2.12,0,0,0-3.71-.43a1.78,1.78,0,0,0,.55-1.32,1.92,1.92,0,0,0-.65-1.42,2.19,2.19,0,0,0-1.53-.59,2.21,2.21,0,0,0-1.54.59,1.83,1.83,0,0,0-.65,1.42A1.87,1.87,0,0,0-7-.43,2.12,2.12,0,0,0-5.64.23v3H-8v.54H8V3.22Z"/>
<rect fill="none" x="-12" y="-12" width="24" height="24"/>
</symbol>
<symbol id="clay" viewBox="-12 -12 24 24">
<path d="M1.85-1.33a3,3,0,0,1,1.67.48,3.23,3.23,0,0,1,1,1l.29.51-1,.43a3.81,3.81,0,0,0-.23-.4A3.74,3.74,0,0,0,2.93,0,1.77,1.77,0,0,0,1.85-.32a2.57,2.57,0,0,0-1.1.15A.86.86,0,0,0,.51.14,2.23,2.23,0,0,1,0,.88a2.55,2.55,0,0,1-1.45.43,3.16,3.16,0,0,1-2.75-1,4.28,4.28,0,0,1-.37-.57,3.91,3.91,0,0,1-.21-.47l0-.16,1-.22a1.87,1.87,0,0,0,.45.79A2.12,2.12,0,0,0-1.51.33,1.82,1.82,0,0,0-.69.14l.21-.36A1.53,1.53,0,0,1,.17-1,3.76,3.76,0,0,1,1.85-1.33Z"/>
<rect fill="none" x="-12" y="-12" width="24" height="24"/>
</symbol>
<symbol id="crystals" viewBox="-12 -12 24 24">
<path d="M-2.94-5.38,0-.72,2.94-5.38,3.62-5,.68-.36H6.56V.36H.68L3.62,5l-.68.36L0,.72-2.94,5.38-3.62,5-.68.36H-6.56V-.36H-.68L-3.62-5Z"/>
<rect fill="none" x="-12" y="-12" width="24" height="24"/>
</symbol>
<symbol id="curtain" viewBox="-12 -12 24 24">
<path d="M3.57-6.69l.52.53L.39-3V-.33L.1-.26a3.79,3.79,0,0,0-1,.41c-.58.3-.87.65-.87,1v.07A1.61,1.61,0,0,0-.84,2.48a3.69,3.69,0,0,0,.45.24L0,2.86l.13.05L.39,3V6.12H-.39V3.51a7.65,7.65,0,0,1-.9-.46A2.19,2.19,0,0,1-2.54,1.28V1.23A2,2,0,0,1-1.31-.48,5.32,5.32,0,0,1-.39-.86V-3l-3.7-3.14.52-.53L0-3.67Z"/>
<rect fill="none" x="-12" y="-12" width="24" height="24"/>
</symbol>
<symbol id="disk" viewBox="-12 -12 24 24">
<path d="M-.09-4.19a2.43,2.43,0,0,1,1.7.64A2,2,0,0,1,2.35-2,2.09,2.09,0,0,1,1.81-.55,2.44,2.44,0,0,1,.35.23l2.18,3.6-.68.33L0,1.14-1.48,4.19l-.71-.29L-.41.25A2.53,2.53,0,0,1-1.9-.47a2,2,0,0,1-.63-1.41,2,2,0,0,1,.67-1.61,2.46,2.46,0,0,1,1.72-.7ZM1.05-3.06.56-3.49l-.69,0A1.72,1.72,0,0,0-1.29-3a1.51,1.51,0,0,0-.45,1.08,1.36,1.36,0,0,0,.51,1A1.68,1.68,0,0,0-.07-.44v0l0,0A1.7,1.7,0,0,0,1.11-.92,1.36,1.36,0,0,0,1.56-2,1.47,1.47,0,0,0,1.05-3.06Z"/>
<rect fill="none" x="-12" y="-12" width="24" height="24"/>
</symbol>
<symbol id="entrance" viewBox="-12 -12 24 24">
<path d="M4.46,9H-4.46L0-9Z"/>
<rect fill="none" x="-12" y="-12" width="24" height="24"/>
</symbol>
<symbol id="flowstone" viewBox="-12 -12 24 24">
<rect x="-6" y="-0.21" width="12" height="0.42"/>
<rect fill="none" x="-12" y="-12" width="24" height="24"/>
</symbol>
<symbol id="flutes" viewBox="-12 -12 24 24">
<path d="M-7-1H7v.72H3.87A4.7,4.7,0,0,1,2.16,1.5,4.2,4.2,0,0,1,0,2.13,3.94,3.94,0,0,1-2.19,1.5,4.18,4.18,0,0,1-3.76-.27H-7Zm4.17.72A3.15,3.15,0,0,0-1.65,1,3.21,3.21,0,0,0,0,1.41,3.49,3.49,0,0,0,1.6,1,3.68,3.68,0,0,0,3-.27Z"/>
<rect fill="none" x="-12" y="-12" width="24" height="24"/>
</symbol>
<symbol id="gradient" viewBox="-12 -12 24 24">
<path d="M2.58-3.83,0-10-2.58-3.83A4.74,4.74,0,0,1-.17-4.5V10H.25V-4.5A6.65,6.65,0,0,1,2.58-3.83Z"/>
<rect fill="none" x="-12" y="-12" width="24" height="24"/>
</symbol>
<symbol id="guano" viewBox="-12 -12 24 24">
<path d="M-3.24-3a2.15,2.15,0,0,1,1.57.55A3.93,3.93,0,0,1-.59.24a4.32,4.32,0,0,1,2.75-2.3,2.68,2.68,0,0,1,2.23.36A2.36,2.36,0,0,1,5.5.19l-.79,0a1.72,1.72,0,0,0-.79-1.37,1.94,1.94,0,0,0-1.55-.24A3.53,3.53,0,0,0,.48,0,6.63,6.63,0,0,0-.69,3l-.79-.09a10.72,10.72,0,0,0,0-3.16A3.21,3.21,0,0,0-2.22-2,1.44,1.44,0,0,0-3.37-2.3,3.45,3.45,0,0,0-5-1.54l-.5-.55a4.29,4.29,0,0,1,2-.91A.9.9,0,0,1-3.24-3Z"/>
<rect fill="none" x="-12" y="-12" width="24" height="24"/>
</symbol>
<symbol id="helictites" viewBox="-12 -12 24 24">
<path d="M-4.59-7.92h.79v7.7l3.41,0V-7.92H.39V-.17L4.2-.12h.39v8H3.8V.6L.39.55V7.92H-.39V.55L-4.2.5l-.39,0v-8.4Z"/>
<rect fill="none" x="-12" y="-12" width="24" height="24"/>
</symbol>
<symbol id="human" viewBox="-12 -12 24 24">
<path d="M-3.59-3.29A5.13,5.13,0,0,1,0-4.66,5.13,5.13,0,0,1,3.59-3.29,4.3,4.3,0,0,1,5.09,0a4.3,4.3,0,0,1-1.5,3.29A5.13,5.13,0,0,1,0,4.66,5.13,5.13,0,0,1-3.59,3.29,4.3,4.3,0,0,1-5.09,0,4.3,4.3,0,0,1-3.59-3.29Zm.28.77A3.68,3.68,0,0,0-4.3,0a3.62,3.62,0,0,0,1,2.57L-.5.05ZM0-3.94A4.42,4.42,0,0,0-2.75-3L.16-.36H4.28A3.62,3.62,0,0,0,2.91-2.9,4.38,4.38,0,0,0,0-3.94ZM.16.46-2.7,3.07A4.42,4.42,0,0,0,0,3.94a4.37,4.37,0,0,0,2.87-1A3.78,3.78,0,0,0,4.28.46Z"/>
<rect fill="none" x="-12" y="-12" width="24" height="24"/>
</symbol>
<symbol id="karren" viewBox="-12 -12 24 24">
<path d="M1-5.84h0a1.37,1.37,0,0,1,1.06.68A3.33,3.33,0,0,1,2.5-3.79,25.79,25.79,0,0,1,2.36,0a18.61,18.61,0,0,0-.08,3.72,2.68,2.68,0,0,0,.41,1.2,1.13,1.13,0,0,0,.79.5A.92.92,0,0,0,4,4.94a4.43,4.43,0,0,0,.47-1.22c.16-.64.36-1.86.59-3.66a26.71,26.71,0,0,1,.64-3.69,4.62,4.62,0,0,1,.57-1.29,1.34,1.34,0,0,1,1-.59h0A1.28,1.28,0,0,1,8.37-5a2.17,2.17,0,0,1,.39,1.15A19.91,19.91,0,0,1,8.54-.53a21.51,21.51,0,0,0-.2,3.64A2.64,2.64,0,0,0,9.45,5.36,1.91,1.91,0,0,0,10.88,5a3.84,3.84,0,0,0,.7-1l.42.2-.1.18-.12.21-.11.18L11.52,5a.94.94,0,0,1-.14.16c-.06.07-.13.12-.19.18a2.5,2.5,0,0,1-1.85.41H9.29l0,0A3.06,3.06,0,0,1,7.87,3.13a22.11,22.11,0,0,1,.2-3.7,18.17,18.17,0,0,0,.22-3.28A1.85,1.85,0,0,0,8-4.79a.77.77,0,0,0-.67-.3.93.93,0,0,0-.64.42,4.51,4.51,0,0,0-.51,1.15A26.26,26.26,0,0,0,5.54.1c-.24,1.83-.45,3.07-.61,3.72a5.38,5.38,0,0,1-.51,1.34,1.33,1.33,0,0,1-.89.68H3.47A1.58,1.58,0,0,1,2.3,5.16a3.29,3.29,0,0,1-.49-1.4A20.27,20.27,0,0,1,1.89,0,23.45,23.45,0,0,0,2-3.75a2.94,2.94,0,0,0-.32-1.19A.93.93,0,0,0,1-5.42,1.1,1.1,0,0,0,.19-5,3.69,3.69,0,0,0-.43-3.76,20.78,20.78,0,0,0-1.07.07c-.2,2-.37,3.32-.49,3.86A4.48,4.48,0,0,1-2,5.26,1.06,1.06,0,0,1-3,5.81h0a1.9,1.9,0,0,1-1.29-.67,2.7,2.7,0,0,1-.58-1.31,14.92,14.92,0,0,1,0-3.6q0-.12.06-.54c0-.28,0-.47,0-.57s0-.28,0-.52,0-.42,0-.55,0-.28,0-.47,0-.36,0-.51,0-.29,0-.43A3.09,3.09,0,0,0-5-4.62a1.19,1.19,0,0,0-.67-.6,1.5,1.5,0,0,0-1.2.9A7,7,0,0,0-7.41-2.1c0,.39-.1,1-.14,1.76s-.11,1.47-.18,2.08A9.61,9.61,0,0,1-8,3.32h0l0,0A2.81,2.81,0,0,1-9.2,4.62a1.82,1.82,0,0,1-1.35.15A1.94,1.94,0,0,1-11.61,4,2.39,2.39,0,0,1-12,2.56l.47,0a1.92,1.92,0,0,0,.31,1.16,1.47,1.47,0,0,0,.81.62,1.3,1.3,0,0,0,1-.11A2.32,2.32,0,0,0-8.5,3.18a7.53,7.53,0,0,0,.29-1.5Q-8.1.8-8-.36c0-.78.1-1.37.16-1.78A7.23,7.23,0,0,1-7.28-4.5,1.93,1.93,0,0,1-5.65-5.66h.05l0,0a1.59,1.59,0,0,1,1,.84,3.47,3.47,0,0,1,.34,1.41,4.91,4.91,0,0,1,0,.57v.54c0,.15,0,.37,0,.66s0,.47,0,.58,0,.33-.06.68,0,.56-.06.63a14.78,14.78,0,0,0,0,3.49,2.58,2.58,0,0,0,.5,1.13,1.57,1.57,0,0,0,1,.5A.61.61,0,0,0-2.44,5,3.89,3.89,0,0,0-2,3.85C-1.9,3.31-1.74,2-1.53,0A20.65,20.65,0,0,1-.86-3.89,3.89,3.89,0,0,1-.18-5.26,1.58,1.58,0,0,1,1-5.84Z"/>
<rect fill="none" x="-12" y="-12" width="24" height="24"/>
</symbol>
<symbol id="moonmilk" viewBox="-12 -12 24 24">
<path d="M-4.78-3.06a3.39,3.39,0,0,1,1.5.34,2.48,2.48,0,0,1,1.1,1,3.74,3.74,0,0,1,1.62-.8,3.52,3.52,0,0,1,1.71,0,2.9,2.9,0,0,1,1.39.77A2.49,2.49,0,0,1,3.25-.37,4,4,0,0,1,5-.76a3.58,3.58,0,0,1,1.6.36A2.84,2.84,0,0,1,7.88.92a2.32,2.32,0,0,1,0,1.88.34.34,0,0,1-.37.26A.36.36,0,0,1,7.25,3a.32.32,0,0,1-.12-.25.21.21,0,0,1,0-.12,2,2,0,0,0,0-1.43,2,2,0,0,0-1-.9A2.81,2.81,0,0,0,4.68,0,2.78,2.78,0,0,0,3.12.56L2.46.25A1.7,1.7,0,0,0,2.15-1.1,2.15,2.15,0,0,0,1-1.81a2.85,2.85,0,0,0-1.58.06A3,3,0,0,0-2-.83l-.71-.12A1.74,1.74,0,0,0-3.55-2a2.36,2.36,0,0,0-1.39-.27,3.08,3.08,0,0,0-1.45.53A2.33,2.33,0,0,0-7.32-.56a.35.35,0,0,1-.37.24A.39.39,0,0,1-8-.42a.33.33,0,0,1-.1-.26v-.1A3,3,0,0,1-6.89-2.35,4,4,0,0,1-5-3Z"/>
<rect fill="none" x="-12" y="-12" width="24" height="24"/>
</symbol>
<symbol id="narrow" viewBox="-12 -12 24 24">
<path d="M-1.5,5V-5h0.64V5H-1.5z"/>
<path d="M0.86,5V-5H1.5V5H0.86z"/>
<rect fill="none" x="-12" y="-12" width="24" height="24"/>
</symbol>
<symbol id="paleoflow" viewBox="-12 -12 24 24">
<path d="M.38-12V.17A1.9,1.9,0,0,0,1,0,1.57,1.57,0,0,0,1.7-.72a1.86,1.86,0,0,0,.23-1c0-.09,0-.14.08-.16a.92.92,0,0,1,.24,0,.52.52,0,0,0,.25,0h.08A2.48,2.48,0,0,1,2,0,2.5,2.5,0,0,1,.38.77V7.21H2.09L0,12-1.8,7.23c.07,0,.59,0,1.53,0V.77A3,3,0,0,1-1.35.43a2.16,2.16,0,0,1-1-1,2.38,2.38,0,0,1-.24-1.33l.67,0a2,2,0,0,0,.15,1,1.73,1.73,0,0,0,.59.67A2.14,2.14,0,0,0-.27.16V-12Z"/>
<rect fill="none" x="-12" y="-12" width="24" height="24"/>
</symbol>
<symbol id="rain" viewBox="-12 -12 24 24">
<path d="M-4.14-6.34h0.71v4.69h-0.71V-6.34z"/>
<path d="M-0.35-6.34h0.71v4.69h-0.71V-6.34z"/>
<path d="M3.43-6.34h0.71v4.69H3.43V-6.34z"/>
<path d="M-4.14,1.65h0.71v4.69h-0.71V1.65z"/>
<path d="M-0.35,1.65h0.71v4.69h-0.71V1.65z"/>
<path d="M3.43,1.65h0.71v4.69H3.43V1.65z"/>
<rect fill="none" x="-12" y="-12" width="24" height="24"/>
</symbol>
<symbol id="rats" viewBox="-12 -12 24 24">
<path d="M8.78-2.32,7-2.27c-.51-.17-.65-.56-1.46-.45l-.25.45C3.59-2.75,2.59-3.66.56-3.62l-1.35.3A4.89,4.89,0,0,0-4.24,1.57c-.68.6-2.58.86-3.39.94a6.84,6.84,0,0,0-1.62.39,4.91,4.91,0,0,0-1,.52A1.75,1.75,0,0,0-11,4.61a1.16,1.16,0,0,0,.59,1.48,1.3,1.3,0,0,1,.14.12c.16-.52-.35-.92-.2-1.42a3.35,3.35,0,0,1,.27-.45,3.18,3.18,0,0,1,1.79-1c.63-.12,1.27-.22,1.91-.3.48-.07,1,0,1.4-.12A6.94,6.94,0,0,1-4,2.82,30.64,30.64,0,0,0,.41,2.69l2.16.15c.1-.09,0,0,.1-.15a.87.87,0,0,0-.9-.55c.86-1,2.27-.37,3.1-.05.5.19,1,0,1.25.4.11-.1.1-.07.15-.25.3,0,.31.07.6.15-.06-.49-.34-.64-1-.6a.78.78,0,0,1,0-.55C6.3.56,7.29.73,8.13.43a13.78,13.78,0,0,0,2.15-.9l.6-.85v-.2A16.9,16.9,0,0,0,8.78-2.32Z"/>
<rect fill="none" x="-12" y="-12" width="24" height="24"/>
</symbol>
<symbol id="sand" viewBox="-12 -12 24 24">
<path d="M-1.58,0.83c0.23,0.2,0.35,0.44,0.36,0.73c0.01,0.29-0.08,0.54-0.28,0.75c-0.2,0.21-0.46,0.32-0.78,0.33c-0.32,0.01-0.6-0.08-0.83-0.26C-3.36,2.19-3.49,1.95-3.5,1.67C-3.51,1.38-3.41,1.12-3.2,0.9c0.21-0.22,0.48-0.34,0.8-0.35C-2.08,0.54-1.81,0.64-1.58,0.83z"/>
<path d="M0.08-2.36c0.23,0.2,0.35,0.44,0.36,0.73c0.01,0.29-0.08,0.54-0.28,0.75c-0.2,0.21-0.46,0.32-0.78,0.33c-0.32,0.01-0.59-0.07-0.83-0.26s-0.37-0.42-0.38-0.71c-0.01-0.29,0.09-0.54,0.3-0.76c0.21-0.22,0.48-0.33,0.8-0.35C-0.42-2.65-0.14-2.56,0.08-2.36z"/>
<path d="M3.12,0.55c0.23,0.2,0.35,0.43,0.38,0.71c0.02,0.28-0.07,0.53-0.28,0.75C3,2.23,2.73,2.35,2.42,2.36C2.1,2.37,1.82,2.28,1.58,2.08C1.34,1.88,1.22,1.64,1.2,1.35c-0.01-0.29,0.09-0.54,0.3-0.75C1.72,0.4,1.99,0.29,2.3,0.28S2.89,0.36,3.12,0.55z"/>
<rect fill="none" x="-12" y="-12" width="24" height="24"/>
</symbol>
<symbol  id="scallops" viewBox="-12 -12 24 24">
<path d="M.05-3.74l.21,0A2.35,2.35,0,0,1,1.74-3a2,2,0,0,1,.59,1.55v0l0,0A9.59,9.59,0,0,1-.08,3.27l-.39.47-.27-.55A14.26,14.26,0,0,1-2.33-1.89v-.05l0-.05A2,2,0,0,1-1.44-3.3,2.42,2.42,0,0,1,.05-3.74ZM-.11-3A1.44,1.44,0,0,0-1.55-1.89,13.06,13.06,0,0,0-.29,2.33,8.6,8.6,0,0,0,1.55-1.54a1.41,1.41,0,0,0-.38-1A1.62,1.62,0,0,0,.18-3Z"/>
<rect fill="none" x="-12" y="-12" width="24" height="24"/>
</symbol>
<symbol  id="sink" viewBox="-12 -12 24 24">
<path d="M.72,9.41H.9c1.94,0,3.26-.54,3.94-1.51a3.61,3.61,0,0,0,.33-.69,2,2,0,0,0,.11-.54V6.46l.69,0a2.8,2.8,0,0,1-.58,1.78C4.58,9.39,3.1,10,.93,10H-.93q-3.25,0-4.46-1.8a2.74,2.74,0,0,1-.43-.83A2.37,2.37,0,0,1-6,6.67V6.43l.68,0A2.27,2.27,0,0,0-4.84,7.9c.68,1,2,1.47,3.93,1.48l.5,0ZM-1.46-10a.68.68,0,0,0,.16.41A2.77,2.77,0,0,0-.51-9l0,0a3.63,3.63,0,0,1,1,.7,1.15,1.15,0,0,1,.34.88c0,.58-.53,1.14-1.49,1.68-.68.42-1,.79-1,1.11s.3.61.84,1h0Q.61-2.86.46-1.78a3.51,3.51,0,0,1-1.55,2,.61.61,0,0,0-.26.41,1.67,1.67,0,0,0,.1.51,5.3,5.3,0,0,1,.32,1L.56,1.9.46,8.06-3.4,2.54l1.73-.28A6.16,6.16,0,0,0-2,1.39,1.7,1.7,0,0,1-2.09.58a1.21,1.21,0,0,1,.53-.82h0v0C-.75-.86-.33-1.38-.28-1.85s-.23-.87-.91-1.27h0C-2-3.6-2.37-4.1-2.4-4.61S-2-5.74-1.09-6.29C-.34-6.72.06-7.1.09-7.44a.67.67,0,0,0-.18-.43,3.17,3.17,0,0,0-.79-.58,2.93,2.93,0,0,1-1-.67A1.16,1.16,0,0,1-2.17-10Z"/>
<rect fill="none" x="-12" y="-12" width="24" height="24"/>
</symbol>
<symbol  id="spring" viewBox="-12 -12 24 24">
<path d="M-1.34-9.86,2.52-4.34.78-4.06a8,8,0,0,0,.29.87,1.4,1.4,0,0,1,.13.79,1.3,1.3,0,0,1-.52.84l0,0v0C-.13-.95-.55-.42-.61,0S-.37.91.31,1.3l0,0c.75.46,1.14,1,1.18,1.46S1.12,3.92.21,4.46C-.54,4.9-.94,5.29-1,5.64a.74.74,0,0,0,.18.43A3.2,3.2,0,0,0,0,6.62a3,3,0,0,1,1,.7,1.14,1.14,0,0,1,.31.86A1.74,1.74,0,0,1,.71,9.26H.92c1.92,0,3.22-.52,3.9-1.51a2.05,2.05,0,0,0,.35-.67,2.59,2.59,0,0,0,.1-.55l0-.19.65,0a2.84,2.84,0,0,1-.55,1.8C4.58,9.26,3.08,9.85.92,9.86H-.92c-2.17,0-3.66-.6-4.49-1.77a3.65,3.65,0,0,1-.4-.85A2.43,2.43,0,0,1-6,6.53V6.29l.66,0a2.08,2.08,0,0,0,.47,1.41c.68,1,2,1.5,3.91,1.51H-.4c.62-.43.94-.8,1-1.1a.76.76,0,0,0-.16-.43,3.25,3.25,0,0,0-.79-.51v0a3.8,3.8,0,0,1-1-.7,1.15,1.15,0,0,1-.34-.91q.06-.84,1.5-1.68c.68-.4,1-.77,1-1.1S.49,2.21,0,1.87c0,0,0,0,0,0C-1,1.32-1.44.69-1.34,0a3.58,3.58,0,0,1,1.55-2,.54.54,0,0,0,.23-.38A1.28,1.28,0,0,0,.37-3a4.57,4.57,0,0,1-.32-1l-1.49.24Z"/>
<rect fill="none" x="-12" y="-12" width="24" height="24"/>
</symbol>
<symbol  id="stalactite" viewBox="-12 -12 24 24">
<path d="M3.57-6.69l.52.53L.39-3V6.12H-.39V-3l-3.7-3.14.52-.53L0-3.67Z"/>
<rect fill="none" x="-12" y="-12" width="24" height="24"/>
</symbol>
<symbol  id="stalagmite" viewBox="-12 -12 24 24">
<path d="M.38-6.42V2.75L4.11,5.89l-.56.53L0,3.4l-3.57,3-.53-.53,3.7-3.14V-6.42Z"/>
<rect fill="none" x="-12" y="-12" width="24" height="24"/>
</symbol>
<symbol  id="stalagnate" viewBox="-12 -12 24 24">
<path d="M3.55-8.46l.56.53L.38-4.78v9L4.11,7.36l-.56.53L0,4.86l-3.57,3-.53-.53,3.7-3.14v-9l-3.7-3.15.53-.53L0-5.43Z"/>
<rect fill="none" x="-12" y="-12" width="24" height="24"/>
</symbol>
<symbol  id="straws" viewBox="-12 -12 24 24">
<path d="M-10.89-2.76H10.89V-2H9.63V.46H8.84V-2H8.29v5.6H7.5V-2H5.56V.7H4.77V-2H2.07V2.38H1.29V-2H-.1v3H-.89V-2H-3.2V4.11H-4V-2H-6.22L-6.16.75l-.79,0L-7-2H-8.32V2.33H-9.1V-2h-1.79Z"/>
<rect fill="none" x="-12" y="-12" width="24" height="24"/>
</symbol>
<symbol  id="water" viewBox="-12 -12 24 24">
<path d="M-1.72-9.86,2.11-4.32.38-4.06a6.49,6.49,0,0,0,.29.89,1.5,1.5,0,0,1,.13.79,1.2,1.2,0,0,1-.5.82h0l0,0C-.54-.94-1-.42-1,.05s.24.89.92,1.27h0c.77.48,1.17,1,1.19,1.49S.71,3.94-.2,4.49c-.75.43-1.13.81-1.15,1.15a.51.51,0,0,0,.18.43,2.66,2.66,0,0,0,.76.58,2.93,2.93,0,0,1,1,.67,1.16,1.16,0,0,1,.29.89C.84,8.75.42,9.3-.41,9.86l-.44-.55c.66-.45,1-.83,1-1.15A.47.47,0,0,0,0,7.75a2.84,2.84,0,0,0-.78-.53h0a3.87,3.87,0,0,1-1-.69,1.24,1.24,0,0,1-.34-.91c0-.58.54-1.14,1.52-1.68.66-.42,1-.79,1-1.11s-.3-.61-.84-1h0Q-1.9,1.06-1.74,0a3.44,3.44,0,0,1,1.54-2,.67.67,0,0,0,.27-.41A1.11,1.11,0,0,0,0-3a4.33,4.33,0,0,1-.31-1l-1.5.24Z"/>
<rect fill="none" x="-12" y="-12" width="24" height="24"/>
</symbol><symbol  id="tree" viewBox="-12 -12 24 24">
<path d="M7.4-5.04A4.271,4.271,0,0,0,7.7-6.627a4.3,4.3,0,0,0-4.3-4.3A4.279,4.279,0,0,0,.636-9.914,4.293,4.293,0,0,0-3.045-12a4.3,4.3,0,0,0-4.3,4.3,4.27,4.27,0,0,0,.421,1.845,4.3,4.3,0,0,0-3.645,4.244,4.3,4.3,0,0,0,4.3,4.3A4.282,4.282,0,0,0-3.946,2L-1.175,5.23h0L-1.612,12H.982L.757,6.376,4.119,2.827v0a4.272,4.272,0,0,0,2.15.58,4.3,4.3,0,0,0,4.3-4.3A4.3,4.3,0,0,0,7.4-5.04ZM-3.346,1.538h0A4.346,4.346,0,0,0-2.7.788a4.266,4.266,0,0,0,1.765.753l-.135,2.087ZM.69,4.7.563,1.544A4.258,4.258,0,0,0,2.321.805,4.3,4.3,0,0,0,3.378,2.279Z"/>
<rect fill="none" x="-12" y="-12" width="24" height="24"/>
</symbol><g>
<desc></desc>
<g>
<line fill="none" stroke="#dddddd" stroke-width="0.1mm" x1="0.00" y1="43.00" x2="98.00" y2="43.00" />
<text x="95.20" y="42.80" font-size=".2mm" fill="#000000">0m</text>
<line fill="none" stroke="#dddddd" stroke-width="0.1mm" x1="0.00" y1="23.00" x2="98.00" y2="23.00" />
<text x="95.20" y="22.80" font-size=".2mm" fill="#000000">10m</text>
<line fill="none" stroke="#dddddd" stroke-width="0.1mm" x1="0.00" y1="3.00" x2="98.00" y2="3.00" />
<text x="95.20" y="2.80" font-size=".2mm" fill="#000000">20m</text>
<line fill="none" stroke="#dddddd" stroke-width="0.1mm" x1="0.00" y1="63.00" x2="98.00" y2="63.00" />
<text x="95.20" y="62.80" font-size=".2mm" fill="#000000">-10m</text>
<line fill="none" stroke="#dddddd" stroke-width="0.1mm" x1="53.00" y1="0.00" x2="53.00" y2="70.00" />
<text x="53.40" y="2.00" font-size=".2mm" fill="#000000">0m</text>
<line fill="none" stroke="#dddddd" stroke-width="0.1mm" x1="33.00" y1="0.00" x2="33.00" y2="70.00" />
<text x="33.40" y="2.00" font-size=".2mm" fill="#000000">-10m</text>
<line fill="none" stroke="#dddddd" stroke-width="0.1mm" x1="13.00" y1="0.00" x2="13.00" y2="70.00" />
<text x="13.40" y="2.00" font-size=".2mm" fill="#000000">-20m</text>
<line fill="none" stroke="#dddddd" stroke-width="0.1mm" x1="73.00" y1="0.00" x2="73.00" y2="70.00" />
<text x="73.40" y="2.00" font-size=".2mm" fill="#000000">10m</text>
<line fill="none" stroke="#dddddd" stroke-width="0.1mm" x1="93.00" y1="0.00" x2="93.00" y2="70.00" />
<text x="93.40" y="2.00" font-size=".2mm" fill="#000000">20m</text>
</g>
<g>
<path fill="none" stroke="#000000" stroke-width="0.06mm" d="M40.998142,37.270164 L41.11447,37.279484" /><path fill="none" stroke="#000000" stroke-width="0.06mm" d="M52.71017,42.832214 C52.593063,42.848503 52.496532,42.878056 52.383823,42.861504 C52.11237,42.82164 51.897957,42.552254 51.71435,42.374413 L51.71435,42.374413" /><defs><path id="DRAW_7157"  d="M52.36535,42.540886 C52.107853,42.448444 52.246094,42.531265 52.023502,42.19902 L52.023502,42.19902" /></defs><use xlink:href="#DRAW_7157" fill="none" stroke="#000000" stroke-width="0.04mm" /><text style="fill:#000000; font-size:0.5mm; letter-spacing:2;"><textPath xlink:href="#DRAW_7157">||</textPath></text><defs><path id="DRAW_7158"  d="M51.990803,42.16929 L51.991203,42.166718" /></defs><use xlink:href="#DRAW_7158" fill="none" stroke="#000000" stroke-width="0.04mm" /><text style="fill:#000000; font-size:0.5mm; letter-spacing:2;"><textPath xlink:href="#DRAW_7158">|</textPath></text><defs><path id="DRAW_7159"  d="M51.981884,42.09497 L51.98823,42.065643" /></defs><use xlink:href="#DRAW_7159" fill="none" stroke="#000000" stroke-width="0.04mm" /><text style="fill:#000000; font-size:0.5mm; letter-spacing:2;"><textPath xlink:href="#DRAW_7159">|</textPath></text><defs><path id="DRAW_7162"  d="M53.04905,42.832214 C52.782917,42.37129 52.304726,42.1053 51.89118,41.79261 C51.824715,41.74236 51.773792,41.67015 51.699844,41.63176 C49.822136,40.65688 49.802277,40.71379 47.435326,40.1209 C47.292236,40.085056 45.10567,39.477993 44.316105,39.55862 C43.63694,39.627975 42.965755,39.762238 42.294132,39.88472 C42.194626,39.902866 42.094166,39.930317 42.006004,39.9799 C41.888454,40.04601 40.911774,40.552402 40.559105,40.91977 C40.37754,41.1089 40.263466,41.439728 40.181892,41.64313 C40.10544,41.833763 40.043873,42.091198 40.094875,42.29968 C40.20045,42.73126 40.314957,43.160824 40.441383,43.58676 C40.465538,43.66814 40.50287,43.74581 40.545845,43.819016 C40.595337,43.903324 40.653236,43.983128 40.71738,44.056904 C40.85517,44.21539 41.00171,44.36624 41.15049,44.514465 C41.174107,44.537994 41.202747,44.5571 41.233162,44.570755 C41.551384,44.713646 41.879105,44.83515 42.19486,44.983418 C42.458176,45.107063 42.69467,45.289707 42.969193,45.38594 C43.426975,45.546417 43.904003,45.647995 44.378487,45.748882 C44.533043,45.781746 44.693096,45.789864 44.851063,45.78608 C45.54795,45.769386 46.248524,45.775757 46.94001,45.687527 C47.3832,45.630974 47.798874,45.435287 48.238186,45.35389 C48.532204,45.29941 48.83572,45.319363 49.132317,45.281326 C49.23812,45.267757 49.341476,45.23605 49.441708,45.199543 C49.860596,45.046967 50.277378,44.887905 50.68814,44.714638 C51.476273,44.38219 51.755318,44.157967 52.533554,43.5935 C52.626957,43.52575 52.711338,43.445145 52.788532,43.359383 C52.90555,43.229385 53.005806,43.08523 53.114445,42.948154 L53.114445,42.948154" /></defs><use xlink:href="#DRAW_7162" fill="none" stroke="#000000" stroke-width="0.04mm" /><text style="fill:#000000; font-size:0.5mm; letter-spacing:2;"><textPath xlink:href="#DRAW_7162">|||||||||||||||||||||||||||||||||||||||||||||||||||||||||||||||||||||||||||||||||||||||||||||||||||||||||||||||||||||||||||</textPath></text><path fill="none" stroke="#000000" stroke-width="0.06mm" d="M42.567673,45.74553 C38.49167,44.211002 43.665104,46.21805 40.76465,44.94552 C39.735207,44.493862 39.805565,44.709587 39.164566,44.237072 C39.069958,44.16733 38.84136,43.97322 38.773457,43.842064 C38.50028,43.314396 38.45011,43.022484 38.343628,42.389248 C38.324818,42.277374 38.318275,42.16195 38.33052,42.049168 C38.38728,41.52625 38.457577,41.122566 38.648544,40.649002 C38.718258,40.476124 38.81169,40.313774 38.891243,40.145195 C39.062637,39.781982 39.22174,39.412865 39.40136,39.05365 C39.43353,38.98932 39.483997,38.9359 39.52536,38.87706 C39.58644,38.790154 39.650623,38.70535 39.708694,38.616405 C40.033577,38.118828 39.982925,38.124672 40.349648,37.690254 C40.382828,37.65095 40.428413,37.623985 40.465675,37.588524 C40.732803,37.334293 40.997025,37.077026 41.262703,36.821278 L41.262703,36.821278" /><path fill="none" stroke="#000000" stroke-width="0.06mm" d="M48.75959,38.096596 C48.778496,38.201782 48.77495,38.270824 48.824303,38.355366 C49.02808,38.704414 49.612514,38.747047 49.957546,38.759525 L49.957546,38.759525" /><path fill="none" stroke="#000000" stroke-width="0.06mm" d="M49.07766,38.096596 C49.175285,38.102123 49.275177,38.091557 49.37054,38.113182 C49.911343,38.235806 51.02852,38.792637 51.28606,38.897434 C51.376934,38.93441 51.47381,38.96224 51.57173,38.968296 C53.57278,39.092102 54.273773,38.947227 56.26923,39.393322 C60.68953,40.3815 57.01111,39.705914 58.394543,40.120438 C58.601425,40.182426 58.729507,40.154522 58.95269,40.179657 C59.08475,40.19453 59.214455,40.22645 59.34632,40.242943 C59.508686,40.26325 59.626995,40.242447 59.773876,40.302837 C60.085266,40.430862 60.39518,40.56297 60.69995,40.706047 C60.825657,40.76506 60.937874,40.850517 61.064053,40.908516 C61.588123,41.149387 61.57613,41.13531 61.9817,41.24773 L61.9817,41.24773" /><path fill="none" stroke="#000000" stroke-width="0.06mm" d="M52.99554,43.45353 C52.717155,43.639603 52.71991,43.62205 52.50209,43.391098 L52.50209,43.391098" /><path fill="none" stroke="#000000" stroke-width="0.06mm" d="M52.52587,43.328667 L52.564915,43.320152" /><path fill="none" stroke="#000000" stroke-width="0.06mm" d="M52.612076,43.304886 L52.648148,43.412308" /><path fill="none" stroke="#000000" stroke-width="0.06mm" d="M52.635857,43.512978 L52.63031,43.507435" /><path fill="none" stroke="#000000" stroke-width="0.06mm" d="M52.998512,43.19787 C53.171967,43.139877 53.3537,43.084076 53.538113,43.12512 C53.78698,43.180508 54.19646,43.39301 54.337273,43.465744 C55.042572,43.83006 55.73621,44.216564 56.439182,44.585346 C56.544743,44.640724 56.654007,44.688778 56.762554,44.738052 C57.38161,45.019085 58.00232,45.29648 58.62195,45.57625 C58.703987,45.61329 58.789276,45.644047 58.867554,45.688477 C59.34036,45.956844 59.796654,46.254124 60.27415,46.514046 C60.359905,46.56073 60.45749,46.582626 60.552383,46.605614 C60.983448,46.71003 61.418064,46.7992 61.850906,46.895992 L61.850906,46.895992" /><path fill="none" stroke="#000000" stroke-width="0.06mm" d="M40.277157,35.247818 C38.127815,33.749176 40.322117,35.23449 38.814125,34.30606 C38.68427,34.22611 38.57186,34.119305 38.439804,34.043045 C38.292023,33.957703 38.121704,33.91431 37.977562,33.822952 C33.92473,31.067936 37.8292,33.62729 35.738205,32.409767 C35.61944,32.340614 35.517212,32.246178 35.40322,32.169415 C35.291626,32.09426 35.174107,32.028214 35.06174,31.954216 C34.956253,31.884743 34.858063,31.804138 34.74979,31.739088 C34.698555,31.708305 34.64283,31.683796 34.585205,31.667912 C34.308273,31.591564 34.022507,31.548046 33.74814,31.462946 C33.58104,31.411118 33.42591,31.326555 33.2648,31.258362 L33.2648,31.258362" /><path fill="none" stroke="#000000" stroke-width="0.06mm" d="M41.011387,35.875072 C41.256523,36.436157 41.099453,36.119133 41.51673,36.80852 L41.51673,36.80852" /><path fill="none" stroke="#000000" stroke-width="0.06mm" d="M40.437675,35.325108 C40.515625,35.988644 40.74955,36.269585 40.974228,36.865555 C41.07014,37.11996 41.064697,37.47349 41.08273,37.71819 L41.08273,37.71819" /><path fill="none" stroke="#000000" stroke-width="0.06mm" d="M33.07158,31.216743 C32.956505,31.285748 32.84143,31.354755 32.726357,31.42376 C32.678787,31.44702 32.628048,31.46468 32.583656,31.493542 C32.39835,31.614014 32.24141,31.790668 32.10605,31.959091 C32.054512,32.023212 32.01848,32.09838 31.974695,32.16803 L31.974695,32.16803" /><path fill="none" stroke="#000000" stroke-width="0.06mm" d="M32.274925,32.001553 C32.00232,32.355804 31.72971,32.71006 31.4571,33.06431 C31.435558,33.08082 31.415358,33.099243 31.392471,33.11383 C31.292952,33.17726 31.16988,33.158516 31.06015,33.17981 C30.999771,33.19153 30.942066,33.21431 30.883429,33.232872 C30.816683,33.254005 30.753117,33.287495 30.684038,33.29888 C30.32921,33.35736 29.860716,33.45909 29.487598,33.338013 C29.363255,33.29766 29.184418,33.159725 29.10911,33.110397 L29.10911,33.110397" /><path fill="none" stroke="#000000" stroke-width="0.06mm" d="M29.391508,33.13418 C29.095013,33.088905 28.797438,33.050205 28.50202,32.99836 C28.360924,32.9736 28.005064,32.94388 27.856634,32.79459 C27.566286,32.50256 27.64538,32.579487 27.465267,32.18289 L27.465267,32.18289" /><path fill="none" stroke="#000000" stroke-width="0.06mm" d="M37.060806,28.223164 C36.86043,28.202133 36.659615,28.184948 36.45968,28.160069 C36.360382,28.14771 36.367794,28.011076 36.38882,27.945671 C36.42875,27.821465 36.4711,27.697752 36.521976,27.577614 C36.567528,27.470041 36.74774,27.170166 36.677658,27.26363 C35.678307,28.596317 37.050274,27.010515 36.09471,28.083443 L36.09471,28.083443" /><path fill="none" stroke="#000000" stroke-width="0.06mm" d="M35.90447,28.083445 L35.684895,28.03628" /><path fill="none" stroke="#000000" stroke-width="0.06mm" d="M35.57748,27.99129 L35.34305,27.973852" /><path fill="none" stroke="#000000" stroke-width="0.06mm" d="M35.14051,27.878323 L35.07254,27.878723" /><path fill="none" stroke="#000000" stroke-width="0.06mm" d="M34.93837,27.584019 C35.8375,28.566004 35.34921,28.090126 36.201954,28.83785 C36.99887,29.536621 36.639492,29.27622 37.14701,29.623339 L37.14701,29.623339" /><path fill="none" stroke="#000000" stroke-width="0.06mm" d="M37.646408,29.90575 C38.38809,30.452526 37.152084,29.523708 38.942646,31.165777 C40.89505,32.95627 38.980453,31.140213 40.3164,32.124832 C40.806805,32.48627 41.27728,32.874744 41.73932,33.271805 C42.01619,33.50973 42.1474,33.740444 42.38866,34.001823 C42.538853,34.164543 42.700222,34.31659 42.85515,34.474808 C42.924095,34.54522 42.991055,34.61757 43.060272,34.687714 C43.135475,34.763927 43.218887,34.83241 43.288383,34.913864 C43.675056,35.36707 44.299095,36.265682 44.88848,36.724487 C45.0944,36.88478 45.324112,37.012207 45.535217,37.1656 C45.63403,37.2374 45.67329,37.360355 45.773453,37.432972 C46.049698,37.633247 46.210106,37.42997 46.45421,37.260384 L46.45421,37.260384" /><path fill="none" stroke="#000000" stroke-width="0.06mm" d="M46.644455,37.346592 C47.08807,37.272404 47.325108,37.2071 47.725983,37.37732 C47.87426,37.440277 48.01831,37.51522 48.153023,37.603546 C48.39142,37.75986 48.60001,37.959667 48.842564,38.10945 C49.0471,38.235756 49.273678,38.32227 49.48923,38.42868 L49.48923,38.42868" /><path fill="none" stroke="#000000" stroke-width="0.06mm" d="M27.77005,32.391396 C27.508211,32.15452 27.318344,31.972504 26.982126,31.901627 C26.676971,31.837301 26.403944,31.91867 26.082676,31.932974 C26.029764,31.93533 25.97618,31.928057 25.924763,31.915337 C25.691856,31.857714 25.466015,31.772243 25.23133,31.722345 C25.022959,31.678043 24.810354,31.655426 24.598473,31.633347 C24.480354,31.621037 24.05789,31.633373 23.868076,31.554382 C23.409178,31.363415 22.925348,31.190487 22.534561,30.871159 C22.432087,30.787422 22.338327,30.692383 22.253263,30.591007 C21.843029,30.102093 21.466002,29.720425 21.332218,29.107323 C21.287573,28.902733 21.271101,28.660717 21.345207,28.458607 C21.427315,28.234676 21.522596,28.178307 21.708927,28.006561 L21.708927,28.006561" /><path fill="none" stroke="#000000" stroke-width="0.06mm" d="M35.730198,28.095182 C35.656227,28.016998 35.588013,27.932941 35.50829,27.86063 C35.210846,27.590832 34.647972,27.478035 34.323425,27.411362 C31.666138,26.865456 33.147263,27.30167 32.34144,27.06066 L32.34144,27.06066" /><path fill="none" stroke="#000000" stroke-width="0.06mm" d="M33.06378,26.739601 L33.795036,26.968506" /><path fill="none" stroke="#000000" stroke-width="0.06mm" d="M33.77423,27.001205 L33.77463,27.001606" /><path fill="none" stroke="#000000" stroke-width="0.06mm" d="M33.77423,27.063633 L33.77463,27.052143" /><defs><path id="DRAW_7203"  d="M24.565126,27.096333 C24.457983,27.01147 24.331703,26.924046 24.287374,26.785591 C24.283352,26.773033 24.289345,26.75927 24.291227,26.746218 C24.297709,26.701311 24.305382,26.656588 24.312458,26.611773 L24.312458,26.611773" /></defs><use xlink:href="#DRAW_7203" fill="none" stroke="#000000" stroke-width="0mm" /><text style="fill:#000000; font-size:0.6mm; letter-spacing:2;"><textPath xlink:href="#DRAW_7203">⊥⊥</textPath></text><defs><path id="DRAW_7204"  d="M24.324347,26.531507 L24.342583,26.525963" /></defs><use xlink:href="#DRAW_7204" fill="none" stroke="#000000" stroke-width="0mm" /><text style="fill:#000000; font-size:0.6mm; letter-spacing:2;"><textPath xlink:href="#DRAW_7204">⊥</textPath></text><path fill="none" stroke="#000000" stroke-width="0.06mm" d="M33.964478,27.470901 C34.124344,27.540806 34.278885,27.624443 34.44408,27.680614 C34.755295,27.786438 35.235,27.815506 35.5371,27.652962 C35.54885,27.646643 35.548344,27.62141 35.538025,27.612953 C35.518684,27.5971 35.489964,27.59881 35.46539,27.594173 C35.412247,27.584145 35.35854,27.577393 35.305115,27.569004 L35.305115,27.569004" /><path fill="none" stroke="#000000" stroke-width="0.06mm" d="M35.25458,27.372799 C35.204197,27.32243 35.150177,27.275448 35.103424,27.221685 C34.96794,27.06588 34.972046,26.77481 34.951378,26.596907 L34.951378,26.596907" /><path fill="none" stroke="#000000" stroke-width="0.06mm" d="M35.22783,27.298481 C35.164093,27.187534 35.100353,27.076584 35.036613,26.965635 C34.98938,26.85914 34.955162,26.745861 34.894905,26.646154 C34.78135,26.458239 34.64322,26.28632 34.51738,26.106401 L34.51738,26.106401" /><path fill="none" stroke="#000000" stroke-width="0.06mm" d="M34.784912,26.23423 C34.710823,26.176676 34.630478,26.126373 34.562637,26.061565 C34.192093,25.707561 33.869606,25.30883 33.485886,24.967829 L33.485886,24.967829" /><path fill="none" stroke="#000000" stroke-width="0.06mm" d="M33.86638,25.265106 C33.801323,25.18945 33.745605,25.104631 33.67121,25.038132 C33.44307,24.83419 33.090866,24.595964 32.76202,24.667427 C32.533306,24.71713 32.4746,24.784857 32.24037,24.920265 L32.24037,24.920265" /><path fill="none" stroke="#000000" stroke-width="0.06mm" d="M32.564384,24.967829 C31.949188,25.219612 32.457047,24.992298 31.631592,25.461477 C31.584574,25.488205 31.53188,25.503687 31.483858,25.52857 C31.403753,25.570076 31.326302,25.616512 31.247522,25.660486 L31.247522,25.660486" /><path fill="none" stroke="#000000" stroke-width="0.06mm" d="M31.619097,25.58022 C30.698864,25.85894 32.20493,25.385046 30.29911,26.15497 C30.108976,26.231783 29.906803,26.276144 29.70655,26.320307 C29.571684,26.350048 29.419813,26.351412 29.282515,26.328667 C29.186546,26.31277 29.080498,26.250988 29.000238,26.213419 L29.000238,26.213419" /><path fill="none" stroke="#000000" stroke-width="0.06mm" d="M29.440184,26.145048 C28.915094,26.287897 28.604761,26.411427 28.074114,26.427969 C26.783522,26.408058 27.283268,26.394743 26.5746,26.421515 L26.5746,26.421515" /><path fill="none" stroke="#000000" stroke-width="0.06mm" d="M26.94023,26.290714 C26.721983,26.270905 26.503529,26.209274 26.285492,26.231287 C25.466763,26.313942 24.659468,26.485798 23.844995,26.603203 C23.589165,26.64008 23.423624,26.379784 23.190311,26.330603 C23.16409,26.325075 23.136858,26.318474 23.110338,26.322338 C22.527122,26.407364 21.945873,26.505384 21.363642,26.596907 L21.363642,26.596907" /><path fill="none" stroke="#000000" stroke-width="0.06mm" d="M21.728125,26.579235 C21.693586,26.542997 21.662966,26.520103 21.642832,26.476143 C21.57052,26.318256 21.627373,26.118097 21.66934,25.96131 L21.66934,25.96131" /><path fill="none" stroke="#000000" stroke-width="0.06mm" d="M21.672073,26.29488 C21.723192,26.164362 21.774305,26.033844 21.825422,25.903324 C21.861864,25.8214 21.913916,25.744759 21.93475,25.657547 C21.993595,25.41121 22.020275,25.158281 22.06304,24.908648 L22.06304,24.908648" /><path fill="none" stroke="#000000" stroke-width="0.06mm" d="M22.000479,24.87059 C22.142458,24.363573 22.072437,24.668854 22.145512,23.751627 C22.155863,23.621708 22.151325,23.490551 22.16788,23.361275 C22.180801,23.260359 22.2011,23.159618 22.23366,23.063232 C22.422749,22.50348 22.654156,21.95823 22.832151,21.394852 C22.936241,21.065393 22.995806,20.723488 23.078848,20.388105 C23.11168,20.255505 23.15358,20.124985 23.179773,19.990917 C23.18774,19.950142 23.239872,19.672554 23.229675,19.541668 C23.220577,19.424883 23.047096,19.408943 22.974623,19.472887 C22.88993,19.547613 22.874498,19.57096 22.815083,19.66325 C22.711702,19.823828 22.592747,19.97577 22.507874,20.146852 C22.27058,20.625177 22.039028,21.108042 21.850506,21.607605 C21.659992,22.112448 21.55537,22.746048 21.433187,23.28175 C21.36419,23.584259 21.04579,24.60225 21.042458,25.17775 C21.041565,25.331646 21.066061,25.484848 21.06815,25.638735 C21.070913,25.842197 20.962528,25.99504 20.889797,26.17895 C20.864285,26.243464 20.853645,26.35588 20.856445,26.421057 C20.863907,26.594624 20.874771,26.768177 20.892666,26.94098 C20.89637,26.976753 20.907257,27.011856 20.921066,27.045063 C21.026081,27.29765 21.134384,27.548946 21.24875,27.79744 C21.265429,27.83368 21.288965,27.86665 21.313622,27.89801 C21.336216,27.926746 21.362127,27.953018 21.389832,27.976866 C21.531067,28.098438 21.676626,28.214897 21.820023,28.333914 L21.820023,28.333914" /><defs><path id="DRAW_7235"  d="M23.420488,26.813332 C23.119865,27.655155 23.112991,27.545582 22.983835,28.489796 C22.942541,28.791672 22.974482,29.117115 23.100058,29.396973 C23.275482,29.787926 23.570395,30.043362 23.918863,30.289944 C24.029486,30.368223 24.342339,30.50659 24.48305,30.520893 C25.126015,30.586254 25.774073,30.592762 26.41698,30.658669 C26.567741,30.674122 26.718504,30.70802 26.859152,30.764465 C27.218235,30.90858 27.566511,31.079441 27.909863,31.25782 C28.333166,31.477741 28.737473,31.732689 29.157618,31.958588 C29.212898,31.988308 29.273605,32.007675 29.33429,32.023697 C29.597578,32.09321 29.751492,32.04259 30.015146,32.02428 C30.150177,32.014904 30.285685,32.01458 30.420954,32.009727 L30.420954,32.009727" /></defs><use xlink:href="#DRAW_7235" fill="none" stroke="#000000" stroke-width="0mm" /><text style="fill:#000000; font-size:0.6mm; letter-spacing:2;"><textPath xlink:href="#DRAW_7235">⊥⊥⊥⊥⊥⊥⊥⊥⊥⊥⊥⊥⊥⊥⊥⊥⊥⊥⊥⊥⊥⊥⊥⊥⊥⊥⊥⊥⊥⊥⊥⊥⊥</textPath></text><defs><path id="DRAW_7236"  d="M46.9,36.54 L46.9004,36.5404" /></defs><use xlink:href="#DRAW_7236" fill="none" stroke="#000000" stroke-width="0mm" /><text style="fill:#000000; font-size:0.6mm; letter-spacing:2;"><textPath xlink:href="#DRAW_7236">⊥</textPath></text><path fill="none" stroke="#000000" stroke-width="0.06mm" d="M24.579998,51.68 L24.420399,51.7404" /><path fill="none" stroke="#000000" stroke-width="0.06mm" d="M45.079758,42.686123 C45.145973,42.70937 45.21034,42.738773 45.278404,42.755867 C45.329334,42.76866 45.382267,42.777287 45.434742,42.77528 C45.779236,42.762108 45.989227,42.767162 46.28018,42.6677 C46.3513,42.64339 46.41924,42.61062 46.488766,42.582077 L46.488766,42.582077" /><path fill="none" stroke="#000000" stroke-width="0.06mm" d="M45.171906,41.90428 C44.938705,41.955017 44.672714,42.032787 44.5705,42.273876 C44.423542,42.620495 44.450127,43.08442 44.663395,43.399853 C44.924923,43.786667 45.399864,43.938713 45.83929,43.792633 C45.935448,43.760666 46.069843,43.702133 46.153217,43.632153 C46.355614,43.462276 46.535225,43.134556 46.63066,42.947445 C46.805775,42.60414 46.9205,42.22889 46.735767,41.87313 C46.670883,41.748173 46.558384,41.67534 46.426594,41.634163 C46.01304,41.50495 45.512413,41.724705 45.12732,41.85969 L45.12732,41.85969" /><use xlink:href="#entrance" width="3.6" height="3.6" x="-1.8" y="-1.8" transform="translate(55.219044 41.919575) rotate(113)"/>
<use xlink:href="#entrance" width="3.6" height="3.6" x="-1.8" y="-1.8" transform="translate(56.333767 40.248882) rotate(113)"/>
<use xlink:href="#entrance" width="3.6" height="3.6" x="-1.8" y="-1.8" transform="translate(57.614956 41.675808) rotate(110)"/>
<use xlink:href="#entrance" width="3.6" height="3.6" x="-1.8" y="-1.8" transform="translate(58.378914 43.426773) rotate(123)"/>
<use xlink:href="#entrance" width="3.6" height="3.6" x="-1.8" y="-1.8" transform="translate(59.78198 41.152603) rotate(123)"/>
<use xlink:href="#entrance" width="3.6" height="3.6" x="-1.8" y="-1.8" transform="translate(35.04241 30.830282) rotate(106)"/>
<use xlink:href="#entrance" width="3.6" height="3.6" x="-1.8" y="-1.8" transform="translate(37.940697 30.851091) rotate(106)"/>
<use xlink:href="#entrance" width="3.6" height="3.6" x="-1.8" y="-1.8" transform="translate(38.34497 32.72691) rotate(106)"/>
<use xlink:href="#entrance" width="3.6" height="3.6" x="-1.8" y="-1.8" transform="translate(27.467205 27.360865) rotate(101)"/>
<use xlink:href="#entrance" width="3.6" height="3.6" x="-1.8" y="-1.8" transform="translate(25.69353 28.944725) rotate(85)"/>
<use xlink:href="#entrance" width="3.6" height="3.6" x="-1.8" y="-1.8" transform="translate(30.83145 30.698444) rotate(87)"/>
<use xlink:href="#entrance" width="3.6" height="3.6" x="-1.8" y="-1.8" transform="translate(27.981218 29.041786) rotate(82)"/>
<use xlink:href="#entrance" width="3.6" height="3.6" x="-1.8" y="-1.8" transform="translate(29.834309 28.706484) rotate(82)"/>
<use xlink:href="#entrance" width="3.6" height="3.6" x="-1.8" y="-1.8" transform="translate(32.20803 29.66827) rotate(109)"/>
</g>
<g>
<line fill="none" stroke="#111111" stroke-width="0.05mm" x1="53.00" y1="43.00" x2="45.46" y2="38.08" />
<line fill="none" stroke="#5674b9" stroke-width="0.05mm" stroke-dasharray="0.4,0.2" opacity="0.94" x1="45.46" y1="38.08" x2="42.33" y2="45.98" />
<line fill="none" stroke="#00aeef" stroke-width="0.05mm" stroke-dasharray="0.4,0.2" opacity="0.94" x1="45.46" y1="38.08" x2="39.70" y2="38.42" />
<line fill="none" stroke="#00aeef" stroke-width="0.05mm" stroke-dasharray="0.4,0.2" opacity="0.95" x1="45.46" y1="38.08" x2="38.26" y2="43.79" />
<line fill="none" stroke="#5674b9" stroke-width="0.05mm" stroke-dasharray="0.4,0.2" opacity="0.88" x1="45.46" y1="38.08" x2="49.04" y2="44.49" />
<line fill="none" stroke="#5674b9" stroke-width="0.05mm" stroke-dasharray="0.4,0.2" opacity="0.90" x1="45.46" y1="38.08" x2="48.39" y2="40.48" />
<line fill="none" stroke="#5674b9" stroke-width="0.05mm" stroke-dasharray="0.4,0.2" opacity="0.98" x1="45.46" y1="38.08" x2="48.45" y2="38.37" />
<line fill="none" stroke="#00aeef" stroke-width="0.05mm" stroke-dasharray="0.4,0.2" opacity="0.86" x1="45.46" y1="38.08" x2="40.83" y2="37.15" />
<line fill="none" stroke="#00aeef" stroke-width="0.05mm" stroke-dasharray="0.4,0.2" opacity="0.24" x1="45.46" y1="38.08" x2="40.79" y2="40.72" />
<line fill="none" stroke="#5674b9" stroke-width="0.05mm" stroke-dasharray="0.4,0.2" opacity="0.28" x1="45.46" y1="38.08" x2="42.53" y2="45.43" />
<line fill="none" stroke="#5674b9" stroke-width="0.05mm" stroke-dasharray="0.4,0.2" opacity="0.40" x1="45.46" y1="38.08" x2="39.58" y2="41.91" />
<line fill="none" stroke="#5674b9" stroke-width="0.05mm" stroke-dasharray="0.4,0.2" opacity="0.41" x1="45.46" y1="38.08" x2="40.71" y2="44.28" />
<line fill="none" stroke="#5674b9" stroke-width="0.05mm" stroke-dasharray="0.4,0.2" opacity="0.46" x1="45.46" y1="38.08" x2="39.08" y2="40.25" />
<line fill="none" stroke="#5674b9" stroke-width="0.05mm" stroke-dasharray="0.4,0.2" opacity="0.44" x1="45.46" y1="38.08" x2="45.60" y2="38.62" />
<line fill="none" stroke="#5674b9" stroke-width="0.05mm" stroke-dasharray="0.4,0.2" opacity="0.45" x1="45.46" y1="38.08" x2="48.15" y2="45.59" />
<line fill="none" stroke="#5674b9" stroke-width="0.05mm" stroke-dasharray="0.4,0.2" opacity="0.62" x1="45.46" y1="38.08" x2="61.69" y2="46.98" />
<line fill="none" stroke="#5674b9" stroke-width="0.05mm" stroke-dasharray="0.4,0.2" opacity="0.67" x1="45.46" y1="38.08" x2="62.03" y2="41.28" />
<line fill="none" stroke="#5674b9" stroke-width="0.05mm" stroke-dasharray="0.4,0.2" opacity="0.31" x1="45.46" y1="38.08" x2="43.33" y2="39.97" />
<line fill="none" stroke="#00aeef" stroke-width="0.05mm" stroke-dasharray="0.4,0.2" opacity="0.41" x1="45.46" y1="38.08" x2="44.06" y2="37.67" />
<line fill="none" stroke="#111111" stroke-width="0.05mm" x1="45.46" y1="38.08" x2="32.34" y2="27.32" />
<line fill="none" stroke="#00aeef" stroke-width="0.05mm" stroke-dasharray="0.4,0.2" opacity="0.96" x1="32.34" y1="27.32" x2="30.82" y2="33.15" />
<line fill="none" stroke="#5674b9" stroke-width="0.05mm" stroke-dasharray="0.4,0.2" opacity="0.88" x1="32.34" y1="27.32" x2="32.96" y2="31.07" />
<line fill="none" stroke="#00aeef" stroke-width="0.05mm" stroke-dasharray="0.4,0.2" opacity="0.86" x1="32.34" y1="27.32" x2="27.88" y2="32.50" />
<line fill="none" stroke="#5674b9" stroke-width="0.05mm" stroke-dasharray="0.4,0.2" opacity="0.85" x1="32.34" y1="27.32" x2="35.24" y2="28.39" />
<line fill="none" stroke="#00aeef" stroke-width="0.05mm" stroke-dasharray="0.4,0.2" opacity="0.27" x1="32.34" y1="27.32" x2="29.55" y2="27.57" />
<line fill="none" stroke="#5674b9" stroke-width="0.05mm" stroke-dasharray="0.4,0.2" opacity="0.41" x1="32.34" y1="27.32" x2="39.80" y2="30.68" />
<line fill="none" stroke="#00aeef" stroke-width="0.05mm" stroke-dasharray="0.4,0.2" opacity="0.56" x1="32.34" y1="27.32" x2="27.42" y2="27.12" />
<line fill="none" stroke="#00aeef" stroke-width="0.05mm" stroke-dasharray="0.4,0.2" opacity="0.57" x1="32.34" y1="27.32" x2="20.94" y2="26.87" />
<line fill="none" stroke="#00aeef" stroke-width="0.05mm" stroke-dasharray="0.4,0.2" opacity="0.57" x1="32.34" y1="27.32" x2="20.94" y2="26.89" />
<line fill="none" stroke="#00aeef" stroke-width="0.05mm" stroke-dasharray="0.4,0.2" opacity="0.56" x1="32.34" y1="27.32" x2="25.73" y2="27.08" />
<line fill="none" stroke="#00aeef" stroke-width="0.05mm" stroke-dasharray="0.4,0.2" opacity="0.57" x1="32.34" y1="27.32" x2="21.57" y2="28.25" />
<line fill="none" stroke="#00aeef" stroke-width="0.05mm" stroke-dasharray="0.4,0.2" opacity="0.59" x1="32.34" y1="27.32" x2="21.15" y2="29.34" />
<line fill="none" stroke="#00aeef" stroke-width="0.05mm" stroke-dasharray="0.4,0.2" opacity="0.62" x1="32.34" y1="27.32" x2="22.52" y2="29.92" />
<line fill="none" stroke="#00aeef" stroke-width="0.05mm" stroke-dasharray="0.4,0.2" opacity="0.65" x1="32.34" y1="27.32" x2="23.20" y2="30.67" />
<line fill="none" stroke="#00aeef" stroke-width="0.05mm" stroke-dasharray="0.4,0.2" opacity="0.69" x1="32.34" y1="27.32" x2="23.55" y2="31.77" />
<line fill="none" stroke="#00aeef" stroke-width="0.05mm" stroke-dasharray="0.4,0.2" opacity="0.74" x1="32.34" y1="27.32" x2="25.48" y2="31.99" />
<line fill="none" stroke="#00aeef" stroke-width="0.05mm" stroke-dasharray="0.4,0.2" opacity="0.79" x1="32.34" y1="27.32" x2="28.00" y2="31.22" />
<line fill="none" stroke="#00aeef" stroke-width="0.05mm" stroke-dasharray="0.4,0.2" opacity="0.62" x1="32.34" y1="27.32" x2="23.07" y2="28.04" />
<line fill="none" stroke="#00aeef" stroke-width="0.05mm" stroke-dasharray="0.4,0.2" opacity="0.65" x1="32.34" y1="27.32" x2="23.37" y2="28.60" />
<line fill="none" stroke="#00aeef" stroke-width="0.05mm" stroke-dasharray="0.4,0.2" opacity="0.72" x1="32.34" y1="27.32" x2="24.57" y2="29.99" />
<line fill="none" stroke="#00aeef" stroke-width="0.05mm" stroke-dasharray="0.4,0.2" opacity="0.78" x1="32.34" y1="27.32" x2="25.62" y2="30.56" />
<line fill="none" stroke="#00aeef" stroke-width="0.05mm" stroke-dasharray="0.4,0.2" opacity="0.83" x1="32.34" y1="27.32" x2="25.92" y2="30.79" />
<line fill="none" stroke="#00aeef" stroke-width="0.05mm" stroke-dasharray="0.4,0.2" opacity="0.89" x1="32.34" y1="27.32" x2="28.59" y2="30.33" />
<line fill="none" stroke="#5674b9" stroke-width="0.05mm" stroke-dasharray="0.4,0.2" opacity="0.94" x1="32.34" y1="27.32" x2="29.35" y2="32.08" />
<line fill="none" stroke="#5674b9" stroke-width="0.05mm" stroke-dasharray="0.4,0.2" opacity="0.85" x1="32.34" y1="27.32" x2="32.85" y2="24.76" />
<line fill="none" stroke="#5674b9" stroke-width="0.05mm" stroke-dasharray="0.4,0.2" opacity="0.91" x1="32.34" y1="27.32" x2="31.67" y2="25.48" />
<line fill="none" stroke="#00aeef" stroke-width="0.05mm" stroke-dasharray="0.4,0.2" opacity="0.99" x1="32.34" y1="27.32" x2="30.51" y2="26.16" />
<line fill="none" stroke="#5674b9" stroke-width="0.05mm" stroke-dasharray="0.4,0.2" opacity="0.55" x1="32.34" y1="27.32" x2="34.39" y2="26.23" />
<line fill="none" stroke="#5674b9" stroke-width="0.05mm" stroke-dasharray="0.4,0.2" opacity="0.52" x1="32.34" y1="27.32" x2="35.10" y2="27.28" />
<line fill="none" stroke="#00aeef" stroke-width="0.05mm" stroke-dasharray="0.4,0.2" opacity="0.83" x1="32.34" y1="27.32" x2="34.46" y2="20.08" />
<line fill="none" stroke="#111111" stroke-width="0.05mm" x1="32.34" y1="27.32" x2="21.02" y2="26.86" />
<line fill="none" stroke="#5674b9" stroke-width="0.05mm" stroke-dasharray="0.4,0.2" opacity="0.96" x1="21.02" y1="26.86" x2="20.93" y2="26.06" />
<line fill="none" stroke="#5674b9" stroke-width="0.05mm" stroke-dasharray="0.4,0.2" opacity="0.99" x1="21.02" y1="26.86" x2="21.78" y2="26.09" />
<line fill="none" stroke="#111111" stroke-width="0.05mm" x1="21.02" y1="26.86" x2="22.97" y2="19.51" />
<line fill="none" stroke="#111111" stroke-width="0.05mm" x1="53.00" y1="43.00" x2="65.52" y2="43.70" />
<line fill="none" stroke="#00aeef" stroke-width="0.05mm" stroke-dasharray="0.4,0.2" opacity="0.47" x1="65.52" y1="43.70" x2="55.02" y2="41.67" />
<line fill="none" stroke="#111111" stroke-width="0.05mm" x1="65.52" y1="43.70" x2="79.40" y2="50.28" />
</g>
<g>
<circle cx="53.00" cy="43.00" r="0.1" fill="#111111" />
<circle cx="45.46" cy="38.08" r="0.1" fill="#111111" />
<circle cx="32.34" cy="27.32" r="0.1" fill="#111111" />
<circle cx="21.02" cy="26.86" r="0.1" fill="#111111" />
<circle cx="22.97" cy="19.51" r="0.1" fill="#111111" />
<circle cx="65.52" cy="43.70" r="0.1" fill="#111111" />
<circle cx="79.40" cy="50.28" r="0.1" fill="#111111" />
</g>
<g>
<text x="53.20" y="43.00" font-size=".2mm" fill="#000000">0</text>
<text x="45.66" y="38.08" font-size=".2mm" fill="#000000">1</text>
<text x="32.54" y="27.32" font-size=".2mm" fill="#000000">2</text>
<text x="21.22" y="26.86" font-size=".2mm" fill="#000000">3</text>
<text x="23.17" y="19.51" font-size=".2mm" fill="#000000">4</text>
<text x="65.72" y="43.70" font-size=".2mm" fill="#000000">0.1</text>
<text x="79.60" y="50.28" font-size=".2mm" fill="#000000">0.2</text>
</g>
<g>
</g>
</g>
</svg>