<?xml version="1.0" encoding="utf-8"?>
<!DOCTYPE svg PUBLIC "-//W3C//DTD SVG 1.1//EN" "http://www.w3.org/Graphics/SVG/1.1/DTD/svg11.dtd">
<svg version="1.1" id="Layer_1" xmlns="http://www.w3.org/2000/svg" xmlns:xlink="http://www.w3.org/1999/xlink" x="0px" y="0px" width="126mm" height="87mm" viewBox="0 0 126 87" enable-background="new 0 0 126 87" xml:space="preserve">
<symbol id="airflow" viewBox="-12 -12 24 24">
<path d="M-4.38,10.73l4.2-3.84V3.55L-4.07,7.13l-.31-.29L-.18,3V-6.89a3.37,3.37,0,0,0-1.68.53l1.68-4.15L0-11l.21.51h0v0l1.65,4.1A3.26,3.26,0,0,0,.24-6.89v14l-.08,0L-4.07,11Z"/>
<rect fill="none" x="-12" y="-12" width="24" height="24"/>
</symbol>
<symbol id="anastomosis" viewBox="-12 -12 24 24">
<path d="M2.23-4.78l.37.24L5.22-2.78l-.47.57L2.49-3.7l-4.61,8-.24.44-.37-.34L-5.22,2.3l.55-.52,2.1,1.82L2-4.39Z"/>
<rect fill="none" x="-12" y="-12" width="24" height="24"/>
</symbol>
<symbol id="bivouac" viewBox="-12 -12 24 24">
<path d="M.25-7.66l.24.58L.54-7l3.88.48-3.31.91L6,6H8.35v.48l-16.7.07V6.05h2.64L0-7.08Zm0,1.32L-5.13,6H-4l2.07-5L.2-4l2.09,5L4.37,6H5.44Z"/>
<rect fill="none" x="-12" y="-12" width="24" height="24"/>
</symbol>
<symbol id="bones" viewBox="-12 -12 24 24">
<path d="M2.44,4.27l-.16,0H2.13a.22.22,0,0,1-.11,0l-.1-.06a.39.39,0,0,1-.09-.11l-.08-.13a1.51,1.51,0,0,1-.06-.15l-.07-.17s0-.11-.08-.19-.06-.16-.08-.21a4.75,4.75,0,0,0-.38-.71c-.18-.29-.43-.64-.74-1A11.15,11.15,0,0,0-.7.32,6.73,6.73,0,0,0-2-.64a4.12,4.12,0,0,0-1.44-.52A1.64,1.64,0,0,1-5-2.19.72.72,0,0,1-5-2.44a1,1,0,0,1,0-.29A.52.52,0,0,1-4.87-3a.54.54,0,0,1,.35-.15L-4-3.22l.46,0a.54.54,0,0,0,.27-.06A.52.52,0,0,0-3-3.56a.74.74,0,0,0,.13-.31.54.54,0,0,1,.15-.26.54.54,0,0,1,.3-.15.83.83,0,0,1,.47,0,1.11,1.11,0,0,1,.35.4A7.46,7.46,0,0,1-1-2.76q.18.42.33.72a3.22,3.22,0,0,0,.39.57L.1-1a4.77,4.77,0,0,0,.58.43c.28.18.51.33.69.43l1,.56a1.84,1.84,0,0,0,.39.23A5.29,5.29,0,0,1,3.22.9l.43.26a3.7,3.7,0,0,1,.46.3l.36.29a2.28,2.28,0,0,1,.31.32A1,1,0,0,1,5,2.4c.2.48,0,.78-.47.91h0a8.48,8.48,0,0,0-1.12.09,1,1,0,0,0-.42.44A1,1,0,0,1,2.44,4.27Z"/>
<rect fill="none" x="-12" y="-12" width="24" height="24"/>
</symbol>
<symbol id="calcite" viewBox="-12 -12 24 24">
<path d="M2.36-2.22l.05.46.34,3.91L2,2.22,1.65-1.26-2.52-.06l-.23-.7L1.89-2.08Z"/>
<rect fill="none" x="-12" y="-12" width="24" height="24"/>
</symbol>
<symbol id="cauliflower" viewBox="-12 -12 24 24">
<path d="M5.58,3.22v-3A2.12,2.12,0,0,0,6.92-.43a1.78,1.78,0,0,0,.55-1.32,1.92,1.92,0,0,0-.65-1.42,2.19,2.19,0,0,0-1.53-.59,2.21,2.21,0,0,0-1.54.59,1.78,1.78,0,0,0-.64,1.42A1.86,1.86,0,0,0,3.65-.43,2.12,2.12,0,0,0,5,.23v3H.26v-3A2.17,2.17,0,0,0,1.61-.43a1.81,1.81,0,0,0,.54-1.32,1.91,1.91,0,0,0-.64-1.42A2.21,2.21,0,0,0,0-3.76a2.21,2.21,0,0,0-1.54.59,1.82,1.82,0,0,0-.64,1.42A1.83,1.83,0,0,0-1.66-.43,2.12,2.12,0,0,0-.32.23v3H-5v-3A2.12,2.12,0,0,0-3.71-.43a1.78,1.78,0,0,0,.55-1.32,1.92,1.92,0,0,0-.65-1.42,2.19,2.19,0,0,0-1.53-.59,2.21,2.21,0,0,0-1.54.59,1.83,1.83,0,0,0-.65,1.42A1.87,1.87,0,0,0-7-.43,2.12,2.12,0,0,0-5.64.23v3H-8v.54H8V3.22Z"/>
<rect fill="none" x="-12" y="-12" width="24" height="24"/>
</symbol>
<symbol id="clay" viewBox="-12 -12 24 24">
<path d="M1.85-1.33a3,3,0,0,1,1.67.48,3.23,3.23,0,0,1,1,1l.29.51-1,.43a3.81,3.81,0,0,0-.23-.4A3.74,3.74,0,0,0,2.93,0,1.77,1.77,0,0,0,1.85-.32a2.57,2.57,0,0,0-1.1.15A.86.86,0,0,0,.51.14,2.23,2.23,0,0,1,0,.88a2.55,2.55,0,0,1-1.45.43,3.16,3.16,0,0,1-2.75-1,4.28,4.28,0,0,1-.37-.57,3.91,3.91,0,0,1-.21-.47l0-.16,1-.22a1.87,1.87,0,0,0,.45.79A2.12,2.12,0,0,0-1.51.33,1.82,1.82,0,0,0-.69.14l.21-.36A1.53,1.53,0,0,1,.17-1,3.76,3.76,0,0,1,1.85-1.33Z"/>
<rect fill="none" x="-12" y="-12" width="24" height="24"/>
</symbol>
<symbol id="crystals" viewBox="-12 -12 24 24">
<path d="M-2.94-5.38,0-.72,2.94-5.38,3.62-5,.68-.36H6.56V.36H.68L3.62,5l-.68.36L0,.72-2.94,5.38-3.62,5-.68.36H-6.56V-.36H-.68L-3.62-5Z"/>
<rect fill="none" x="-12" y="-12" width="24" height="24"/>
</symbol>
<symbol id="curtain" viewBox="-12 -12 24 24">
<path d="M3.57-6.69l.52.53L.39-3V-.33L.1-.26a3.79,3.79,0,0,0-1,.41c-.58.3-.87.65-.87,1v.07A1.61,1.61,0,0,0-.84,2.48a3.69,3.69,0,0,0,.45.24L0,2.86l.13.05L.39,3V6.12H-.39V3.51a7.65,7.65,0,0,1-.9-.46A2.19,2.19,0,0,1-2.54,1.28V1.23A2,2,0,0,1-1.31-.48,5.32,5.32,0,0,1-.39-.86V-3l-3.7-3.14.52-.53L0-3.67Z"/>
<rect fill="none" x="-12" y="-12" width="24" height="24"/>
</symbol>
<symbol id="disk" viewBox="-12 -12 24 24">
<path d="M-.09-4.19a2.43,2.43,0,0,1,1.7.64A2,2,0,0,1,2.35-2,2.09,2.09,0,0,1,1.81-.55,2.44,2.44,0,0,1,.35.23l2.18,3.6-.68.33L0,1.14-1.48,4.19l-.71-.29L-.41.25A2.53,2.53,0,0,1-1.9-.47a2,2,0,0,1-.63-1.41,2,2,0,0,1,.67-1.61,2.46,2.46,0,0,1,1.72-.7ZM1.05-3.06.56-3.49l-.69,0A1.72,1.72,0,0,0-1.29-3a1.51,1.51,0,0,0-.45,1.08,1.36,1.36,0,0,0,.51,1A1.68,1.68,0,0,0-.07-.44v0l0,0A1.7,1.7,0,0,0,1.11-.92,1.36,1.36,0,0,0,1.56-2,1.47,1.47,0,0,0,1.05-3.06Z"/>
<rect fill="none" x="-12" y="-12" width="24" height="24"/>
</symbol>
<symbol id="entrance" viewBox="-12 -12 24 24">
<path d="M4.46,9H-4.46L0-9Z"/>
<rect fill="none" x="-12" y="-12" width="24" height="24"/>
</symbol>
<symbol id="flowstone" viewBox="-12 -12 24 24">
<rect x="-6" y="-0.21" width="12" height="0.42"/>
<rect fill="none" x="-12" y="-12" width="24" height="24"/>
</symbol>
<symbol id="flutes" viewBox="-12 -12 24 24">
<path d="M-7-1H7v.72H3.87A4.7,4.7,0,0,1,2.16,1.5,4.2,4.2,0,0,1,0,2.13,3.94,3.94,0,0,1-2.19,1.5,4.18,4.18,0,0,1-3.76-.27H-7Zm4.17.72A3.15,3.15,0,0,0-1.65,1,3.21,3.21,0,0,0,0,1.41,3.49,3.49,0,0,0,1.6,1,3.68,3.68,0,0,0,3-.27Z"/>
<rect fill="none" x="-12" y="-12" width="24" height="24"/>
</symbol>
<symbol id="gradient" viewBox="-12 -12 24 24">
<path d="M2.58-3.83,0-10-2.58-3.83A4.74,4.74,0,0,1-.17-4.5V10H.25V-4.5A6.65,6.65,0,0,1,2.58-3.83Z"/>
<rect fill="none" x="-12" y="-12" width="24" height="24"/>
</symbol>
<symbol id="guano" viewBox="-12 -12 24 24">
<path d="M-3.24-3a2.15,2.15,0,0,1,1.57.55A3.93,3.93,0,0,1-.59.24a4.32,4.32,0,0,1,2.75-2.3,2.68,2.68,0,0,1,2.23.36A2.36,2.36,0,0,1,5.5.19l-.79,0a1.72,1.72,0,0,0-.79-1.37,1.94,1.94,0,0,0-1.55-.24A3.53,3.53,0,0,0,.48,0,6.63,6.63,0,0,0-.69,3l-.79-.09a10.72,10.72,0,0,0,0-3.16A3.21,3.21,0,0,0-2.22-2,1.44,1.44,0,0,0-3.37-2.3,3.45,3.45,0,0,0-5-1.54l-.5-.55a4.29,4.29,0,0,1,2-.91A.9.9,0,0,1-3.24-3Z"/>
<rect fill="none" x="-12" y="-12" width="24" height="24"/>
</symbol>
<symbol id="helictites" viewBox="-12 -12 24 24">
<path d="M-4.59-7.92h.79v7.7l3.41,0V-7.92H.39V-.17L4.2-.12h.39v8H3.8V.6L.39.55V7.92H-.39V.55L-4.2.5l-.39,0v-8.4Z"/>
<rect fill="none" x="-12" y="-12" width="24" height="24"/>
</symbol>
<symbol id="human" viewBox="-12 -12 24 24">
<path d="M-3.59-3.29A5.13,5.13,0,0,1,0-4.66,5.13,5.13,0,0,1,3.59-3.29,4.3,4.3,0,0,1,5.09,0a4.3,4.3,0,0,1-1.5,3.29A5.13,5.13,0,0,1,0,4.66,5.13,5.13,0,0,1-3.59,3.29,4.3,4.3,0,0,1-5.09,0,4.3,4.3,0,0,1-3.59-3.29Zm.28.77A3.68,3.68,0,0,0-4.3,0a3.62,3.62,0,0,0,1,2.57L-.5.05ZM0-3.94A4.42,4.42,0,0,0-2.75-3L.16-.36H4.28A3.62,3.62,0,0,0,2.91-2.9,4.38,4.38,0,0,0,0-3.94ZM.16.46-2.7,3.07A4.42,4.42,0,0,0,0,3.94a4.37,4.37,0,0,0,2.87-1A3.78,3.78,0,0,0,4.28.46Z"/>
<rect fill="none" x="-12" y="-12" width="24" height="24"/>
</symbol>
<symbol id="karren" viewBox="-12 -12 24 24">
<path d="M1-5.84h0a1.37,1.37,0,0,1,1.06.68A3.33,3.33,0,0,1,2.5-3.79,25.79,25.79,0,0,1,2.36,0a18.61,18.61,0,0,0-.08,3.72,2.68,2.68,0,0,0,.41,1.2,1.13,1.13,0,0,0,.79.5A.92.92,0,0,0,4,4.94a4.43,4.43,0,0,0,.47-1.22c.16-.64.36-1.86.59-3.66a26.71,26.71,0,0,1,.64-3.69,4.62,4.62,0,0,1,.57-1.29,1.34,1.34,0,0,1,1-.59h0A1.28,1.28,0,0,1,8.37-5a2.17,2.17,0,0,1,.39,1.15A19.91,19.91,0,0,1,8.54-.53a21.51,21.51,0,0,0-.2,3.64A2.64,2.64,0,0,0,9.45,5.36,1.91,1.91,0,0,0,10.88,5a3.84,3.84,0,0,0,.7-1l.42.2-.1.18-.12.21-.11.18L11.52,5a.94.94,0,0,1-.14.16c-.06.07-.13.12-.19.18a2.5,2.5,0,0,1-1.85.41H9.29l0,0A3.06,3.06,0,0,1,7.87,3.13a22.11,22.11,0,0,1,.2-3.7,18.17,18.17,0,0,0,.22-3.28A1.85,1.85,0,0,0,8-4.79a.77.77,0,0,0-.67-.3.93.93,0,0,0-.64.42,4.51,4.51,0,0,0-.51,1.15A26.26,26.26,0,0,0,5.54.1c-.24,1.83-.45,3.07-.61,3.72a5.38,5.38,0,0,1-.51,1.34,1.33,1.33,0,0,1-.89.68H3.47A1.58,1.58,0,0,1,2.3,5.16a3.29,3.29,0,0,1-.49-1.4A20.27,20.27,0,0,1,1.89,0,23.45,23.45,0,0,0,2-3.75a2.94,2.94,0,0,0-.32-1.19A.93.93,0,0,0,1-5.42,1.1,1.1,0,0,0,.19-5,3.69,3.69,0,0,0-.43-3.76,20.78,20.78,0,0,0-1.07.07c-.2,2-.37,3.32-.49,3.86A4.48,4.48,0,0,1-2,5.26,1.06,1.06,0,0,1-3,5.81h0a1.9,1.9,0,0,1-1.29-.67,2.7,2.7,0,0,1-.58-1.31,14.92,14.92,0,0,1,0-3.6q0-.12.06-.54c0-.28,0-.47,0-.57s0-.28,0-.52,0-.42,0-.55,0-.28,0-.47,0-.36,0-.51,0-.29,0-.43A3.09,3.09,0,0,0-5-4.62a1.19,1.19,0,0,0-.67-.6,1.5,1.5,0,0,0-1.2.9A7,7,0,0,0-7.41-2.1c0,.39-.1,1-.14,1.76s-.11,1.47-.18,2.08A9.61,9.61,0,0,1-8,3.32h0l0,0A2.81,2.81,0,0,1-9.2,4.62a1.82,1.82,0,0,1-1.35.15A1.94,1.94,0,0,1-11.61,4,2.39,2.39,0,0,1-12,2.56l.47,0a1.92,1.92,0,0,0,.31,1.16,1.47,1.47,0,0,0,.81.62,1.3,1.3,0,0,0,1-.11A2.32,2.32,0,0,0-8.5,3.18a7.53,7.53,0,0,0,.29-1.5Q-8.1.8-8-.36c0-.78.1-1.37.16-1.78A7.23,7.23,0,0,1-7.28-4.5,1.93,1.93,0,0,1-5.65-5.66h.05l0,0a1.59,1.59,0,0,1,1,.84,3.47,3.47,0,0,1,.34,1.41,4.91,4.91,0,0,1,0,.57v.54c0,.15,0,.37,0,.66s0,.47,0,.58,0,.33-.06.68,0,.56-.06.63a14.78,14.78,0,0,0,0,3.49,2.58,2.58,0,0,0,.5,1.13,1.57,1.57,0,0,0,1,.5A.61.61,0,0,0-2.44,5,3.89,3.89,0,0,0-2,3.85C-1.9,3.31-1.74,2-1.53,0A20.65,20.65,0,0,1-.86-3.89,3.89,3.89,0,0,1-.18-5.26,1.58,1.58,0,0,1,1-5.84Z"/>
<rect fill="none" x="-12" y="-12" width="24" height="24"/>
</symbol>
<symbol id="moonmilk" viewBox="-12 -12 24 24">
<path d="M-4.78-3.06a3.39,3.39,0,0,1,1.5.34,2.48,2.48,0,0,1,1.1,1,3.74,3.74,0,0,1,1.62-.8,3.52,3.52,0,0,1,1.71,0,2.9,2.9,0,0,1,1.39.77A2.49,2.49,0,0,1,3.25-.37,4,4,0,0,1,5-.76a3.58,3.58,0,0,1,1.6.36A2.84,2.84,0,0,1,7.88.92a2.32,2.32,0,0,1,0,1.88.34.34,0,0,1-.37.26A.36.36,0,0,1,7.25,3a.32.32,0,0,1-.12-.25.21.21,0,0,1,0-.12,2,2,0,0,0,0-1.43,2,2,0,0,0-1-.9A2.81,2.81,0,0,0,4.68,0,2.78,2.78,0,0,0,3.12.56L2.46.25A1.7,1.7,0,0,0,2.15-1.1,2.15,2.15,0,0,0,1-1.81a2.85,2.85,0,0,0-1.58.06A3,3,0,0,0-2-.83l-.71-.12A1.74,1.74,0,0,0-3.55-2a2.36,2.36,0,0,0-1.39-.27,3.08,3.08,0,0,0-1.45.53A2.33,2.33,0,0,0-7.32-.56a.35.35,0,0,1-.37.24A.39.39,0,0,1-8-.42a.33.33,0,0,1-.1-.26v-.1A3,3,0,0,1-6.89-2.35,4,4,0,0,1-5-3Z"/>
<rect fill="none" x="-12" y="-12" width="24" height="24"/>
</symbol>
<symbol id="narrow" viewBox="-12 -12 24 24">
<path d="M-1.5,5V-5h0.64V5H-1.5z"/>
<path d="M0.86,5V-5H1.5V5H0.86z"/>
<rect fill="none" x="-12" y="-12" width="24" height="24"/>
</symbol>
<symbol id="paleoflow" viewBox="-12 -12 24 24">
<path d="M.38-12V.17A1.9,1.9,0,0,0,1,0,1.57,1.57,0,0,0,1.7-.72a1.86,1.86,0,0,0,.23-1c0-.09,0-.14.08-.16a.92.92,0,0,1,.24,0,.52.52,0,0,0,.25,0h.08A2.48,2.48,0,0,1,2,0,2.5,2.5,0,0,1,.38.77V7.21H2.09L0,12-1.8,7.23c.07,0,.59,0,1.53,0V.77A3,3,0,0,1-1.35.43a2.16,2.16,0,0,1-1-1,2.38,2.38,0,0,1-.24-1.33l.67,0a2,2,0,0,0,.15,1,1.73,1.73,0,0,0,.59.67A2.14,2.14,0,0,0-.27.16V-12Z"/>
<rect fill="none" x="-12" y="-12" width="24" height="24"/>
</symbol>
<symbol id="rain" viewBox="-12 -12 24 24">
<path d="M-4.14-6.34h0.71v4.69h-0.71V-6.34z"/>
<path d="M-0.35-6.34h0.71v4.69h-0.71V-6.34z"/>
<path d="M3.43-6.34h0.71v4.69H3.43V-6.34z"/>
<path d="M-4.14,1.65h0.71v4.69h-0.71V1.65z"/>
<path d="M-0.35,1.65h0.71v4.69h-0.71V1.65z"/>
<path d="M3.43,1.65h0.71v4.69H3.43V1.65z"/>
<rect fill="none" x="-12" y="-12" width="24" height="24"/>
</symbol>
<symbol id="rats" viewBox="-12 -12 24 24">
<path d="M8.78-2.32,7-2.27c-.51-.17-.65-.56-1.46-.45l-.25.45C3.59-2.75,2.59-3.66.56-3.62l-1.35.3A4.89,4.89,0,0,0-4.24,1.57c-.68.6-2.58.86-3.39.94a6.84,6.84,0,0,0-1.62.39,4.91,4.91,0,0,0-1,.52A1.75,1.75,0,0,0-11,4.61a1.16,1.16,0,0,0,.59,1.48,1.3,1.3,0,0,1,.14.12c.16-.52-.35-.92-.2-1.42a3.35,3.35,0,0,1,.27-.45,3.18,3.18,0,0,1,1.79-1c.63-.12,1.27-.22,1.91-.3.48-.07,1,0,1.4-.12A6.94,6.94,0,0,1-4,2.82,30.64,30.64,0,0,0,.41,2.69l2.16.15c.1-.09,0,0,.1-.15a.87.87,0,0,0-.9-.55c.86-1,2.27-.37,3.1-.05.5.19,1,0,1.25.4.11-.1.1-.07.15-.25.3,0,.31.07.6.15-.06-.49-.34-.64-1-.6a.78.78,0,0,1,0-.55C6.3.56,7.29.73,8.13.43a13.78,13.78,0,0,0,2.15-.9l.6-.85v-.2A16.9,16.9,0,0,0,8.78-2.32Z"/>
<rect fill="none" x="-12" y="-12" width="24" height="24"/>
</symbol>
<symbol id="sand" viewBox="-12 -12 24 24">
<path d="M-1.58,0.83c0.23,0.2,0.35,0.44,0.36,0.73c0.01,0.29-0.08,0.54-0.28,0.75c-0.2,0.21-0.46,0.32-0.78,0.33c-0.32,0.01-0.6-0.08-0.83-0.26C-3.36,2.19-3.49,1.95-3.5,1.67C-3.51,1.38-3.41,1.12-3.2,0.9c0.21-0.22,0.48-0.34,0.8-0.35C-2.08,0.54-1.81,0.64-1.58,0.83z"/>
<path d="M0.08-2.36c0.23,0.2,0.35,0.44,0.36,0.73c0.01,0.29-0.08,0.54-0.28,0.75c-0.2,0.21-0.46,0.32-0.78,0.33c-0.32,0.01-0.59-0.07-0.83-0.26s-0.37-0.42-0.38-0.71c-0.01-0.29,0.09-0.54,0.3-0.76c0.21-0.22,0.48-0.33,0.8-0.35C-0.42-2.65-0.14-2.56,0.08-2.36z"/>
<path d="M3.12,0.55c0.23,0.2,0.35,0.43,0.38,0.71c0.02,0.28-0.07,0.53-0.28,0.75C3,2.23,2.73,2.35,2.42,2.36C2.1,2.37,1.82,2.28,1.58,2.08C1.34,1.88,1.22,1.64,1.2,1.35c-0.01-0.29,0.09-0.54,0.3-0.75C1.72,0.4,1.99,0.29,2.3,0.28S2.89,0.36,3.12,0.55z"/>
<rect fill="none" x="-12" y="-12" width="24" height="24"/>
</symbol>
<symbol  id="scallops" viewBox="-12 -12 24 24">
<path d="M.05-3.74l.21,0A2.35,2.35,0,0,1,1.74-3a2,2,0,0,1,.59,1.55v0l0,0A9.59,9.59,0,0,1-.08,3.27l-.39.47-.27-.55A14.26,14.26,0,0,1-2.33-1.89v-.05l0-.05A2,2,0,0,1-1.44-3.3,2.42,2.42,0,0,1,.05-3.74ZM-.11-3A1.44,1.44,0,0,0-1.55-1.89,13.06,13.06,0,0,0-.29,2.33,8.6,8.6,0,0,0,1.55-1.54a1.41,1.41,0,0,0-.38-1A1.62,1.62,0,0,0,.18-3Z"/>
<rect fill="none" x="-12" y="-12" width="24" height="24"/>
</symbol>
<symbol  id="sink" viewBox="-12 -12 24 24">
<path d="M.72,9.41H.9c1.94,0,3.26-.54,3.94-1.51a3.61,3.61,0,0,0,.33-.69,2,2,0,0,0,.11-.54V6.46l.69,0a2.8,2.8,0,0,1-.58,1.78C4.58,9.39,3.1,10,.93,10H-.93q-3.25,0-4.46-1.8a2.74,2.74,0,0,1-.43-.83A2.37,2.37,0,0,1-6,6.67V6.43l.68,0A2.27,2.27,0,0,0-4.84,7.9c.68,1,2,1.47,3.93,1.48l.5,0ZM-1.46-10a.68.68,0,0,0,.16.41A2.77,2.77,0,0,0-.51-9l0,0a3.63,3.63,0,0,1,1,.7,1.15,1.15,0,0,1,.34.88c0,.58-.53,1.14-1.49,1.68-.68.42-1,.79-1,1.11s.3.61.84,1h0Q.61-2.86.46-1.78a3.51,3.51,0,0,1-1.55,2,.61.61,0,0,0-.26.41,1.67,1.67,0,0,0,.1.51,5.3,5.3,0,0,1,.32,1L.56,1.9.46,8.06-3.4,2.54l1.73-.28A6.16,6.16,0,0,0-2,1.39,1.7,1.7,0,0,1-2.09.58a1.21,1.21,0,0,1,.53-.82h0v0C-.75-.86-.33-1.38-.28-1.85s-.23-.87-.91-1.27h0C-2-3.6-2.37-4.1-2.4-4.61S-2-5.74-1.09-6.29C-.34-6.72.06-7.1.09-7.44a.67.67,0,0,0-.18-.43,3.17,3.17,0,0,0-.79-.58,2.93,2.93,0,0,1-1-.67A1.16,1.16,0,0,1-2.17-10Z"/>
<rect fill="none" x="-12" y="-12" width="24" height="24"/>
</symbol>
<symbol  id="spring" viewBox="-12 -12 24 24">
<path d="M-1.34-9.86,2.52-4.34.78-4.06a8,8,0,0,0,.29.87,1.4,1.4,0,0,1,.13.79,1.3,1.3,0,0,1-.52.84l0,0v0C-.13-.95-.55-.42-.61,0S-.37.91.31,1.3l0,0c.75.46,1.14,1,1.18,1.46S1.12,3.92.21,4.46C-.54,4.9-.94,5.29-1,5.64a.74.74,0,0,0,.18.43A3.2,3.2,0,0,0,0,6.62a3,3,0,0,1,1,.7,1.14,1.14,0,0,1,.31.86A1.74,1.74,0,0,1,.71,9.26H.92c1.92,0,3.22-.52,3.9-1.51a2.05,2.05,0,0,0,.35-.67,2.59,2.59,0,0,0,.1-.55l0-.19.65,0a2.84,2.84,0,0,1-.55,1.8C4.58,9.26,3.08,9.85.92,9.86H-.92c-2.17,0-3.66-.6-4.49-1.77a3.65,3.65,0,0,1-.4-.85A2.43,2.43,0,0,1-6,6.53V6.29l.66,0a2.08,2.08,0,0,0,.47,1.41c.68,1,2,1.5,3.91,1.51H-.4c.62-.43.94-.8,1-1.1a.76.76,0,0,0-.16-.43,3.25,3.25,0,0,0-.79-.51v0a3.8,3.8,0,0,1-1-.7,1.15,1.15,0,0,1-.34-.91q.06-.84,1.5-1.68c.68-.4,1-.77,1-1.1S.49,2.21,0,1.87c0,0,0,0,0,0C-1,1.32-1.44.69-1.34,0a3.58,3.58,0,0,1,1.55-2,.54.54,0,0,0,.23-.38A1.28,1.28,0,0,0,.37-3a4.57,4.57,0,0,1-.32-1l-1.49.24Z"/>
<rect fill="none" x="-12" y="-12" width="24" height="24"/>
</symbol>
<symbol  id="stalactite" viewBox="-12 -12 24 24">
<path d="M3.57-6.69l.52.53L.39-3V6.12H-.39V-3l-3.7-3.14.52-.53L0-3.67Z"/>
<rect fill="none" x="-12" y="-12" width="24" height="24"/>
</symbol>
<symbol  id="stalagmite" viewBox="-12 -12 24 24">
<path d="M.38-6.42V2.75L4.11,5.89l-.56.53L0,3.4l-3.57,3-.53-.53,3.7-3.14V-6.42Z"/>
<rect fill="none" x="-12" y="-12" width="24" height="24"/>
</symbol>
<symbol  id="stalagnate" viewBox="-12 -12 24 24">
<path d="M3.55-8.46l.56.53L.38-4.78v9L4.11,7.36l-.56.53L0,4.86l-3.57,3-.53-.53,3.7-3.14v-9l-3.7-3.15.53-.53L0-5.43Z"/>
<rect fill="none" x="-12" y="-12" width="24" height="24"/>
</symbol>
<symbol  id="straws" viewBox="-12 -12 24 24">
<path d="M-10.89-2.76H10.89V-2H9.63V.46H8.84V-2H8.29v5.6H7.5V-2H5.56V.7H4.77V-2H2.07V2.38H1.29V-2H-.1v3H-.89V-2H-3.2V4.11H-4V-2H-6.22L-6.16.75l-.79,0L-7-2H-8.32V2.33H-9.1V-2h-1.79Z"/>
<rect fill="none" x="-12" y="-12" width="24" height="24"/>
</symbol>
<symbol  id="water" viewBox="-12 -12 24 24">
<path d="M-1.72-9.86,2.11-4.32.38-4.06a6.49,6.49,0,0,0,.29.89,1.5,1.5,0,0,1,.13.79,1.2,1.2,0,0,1-.5.82h0l0,0C-.54-.94-1-.42-1,.05s.24.89.92,1.27h0c.77.48,1.17,1,1.19,1.49S.71,3.94-.2,4.49c-.75.43-1.13.81-1.15,1.15a.51.51,0,0,0,.18.43,2.66,2.66,0,0,0,.76.58,2.93,2.93,0,0,1,1,.67,1.16,1.16,0,0,1,.29.89C.84,8.75.42,9.3-.41,9.86l-.44-.55c.66-.45,1-.83,1-1.15A.47.47,0,0,0,0,7.75a2.84,2.84,0,0,0-.78-.53h0a3.87,3.87,0,0,1-1-.69,1.24,1.24,0,0,1-.34-.91c0-.58.54-1.14,1.52-1.68.66-.42,1-.79,1-1.11s-.3-.61-.84-1h0Q-1.9,1.06-1.74,0a3.44,3.44,0,0,1,1.54-2,.67.67,0,0,0,.27-.41A1.11,1.11,0,0,0,0-3a4.33,4.33,0,0,1-.31-1l-1.5.24Z"/>
<rect fill="none" x="-12" y="-12" width="24" height="24"/>
</symbol><symbol  id="tree" viewBox="-12 -12 24 24">
<path d="M7.4-5.04A4.271,4.271,0,0,0,7.7-6.627a4.3,4.3,0,0,0-4.3-4.3A4.279,4.279,0,0,0,.636-9.914,4.293,4.293,0,0,0-3.045-12a4.3,4.3,0,0,0-4.3,4.3,4.27,4.27,0,0,0,.421,1.845,4.3,4.3,0,0,0-3.645,4.244,4.3,4.3,0,0,0,4.3,4.3A4.282,4.282,0,0,0-3.946,2L-1.175,5.23h0L-1.612,12H.982L.757,6.376,4.119,2.827v0a4.272,4.272,0,0,0,2.15.58,4.3,4.3,0,0,0,4.3-4.3A4.3,4.3,0,0,0,7.4-5.04ZM-3.346,1.538h0A4.346,4.346,0,0,0-2.7.788a4.266,4.266,0,0,0,1.765.753l-.135,2.087ZM.69,4.7.563,1.544A4.258,4.258,0,0,0,2.321.805,4.3,4.3,0,0,0,3.378,2.279Z"/>
<rect fill="none" x="-12" y="-12" width="24" height="24"/>
</symbol><g>
<desc></desc>
<g>
<line fill="none" stroke="#dddddd" stroke-width="0.1mm" x1="0.00" y1="35.00" x2="126.00" y2="35.00" />
<text x="123.20" y="34.80" font-size=".2mm" fill="#000000">0m</text>
<line fill="none" stroke="#dddddd" stroke-width="0.1mm" x1="0.00" y1="15.00" x2="126.00" y2="15.00" />
<text x="123.20" y="14.80" font-size=".2mm" fill="#000000">10m</text>
<line fill="none" stroke="#dddddd" stroke-width="0.1mm" x1="0.00" y1="55.00" x2="126.00" y2="55.00" />
<text x="123.20" y="54.80" font-size=".2mm" fill="#000000">-10m</text>
<line fill="none" stroke="#dddddd" stroke-width="0.1mm" x1="0.00" y1="75.00" x2="126.00" y2="75.00" />
<text x="123.20" y="74.80" font-size=".2mm" fill="#000000">-20m</text>
</g>
<g>
<path fill="none" stroke="#000000" stroke-width="0.06mm" d="M20.18699,38.71204 C20.608463,38.559086 21.016472,38.354572 21.478878,38.365154 C22.107481,38.379536 22.731953,38.4774 23.36027,38.501198 C23.491938,38.506184 23.62337,38.478 23.75239,38.451256 C24.174702,38.363716 24.585455,38.2173 25.01274,38.15866 C28.001219,37.748524 25.541847,38.35125 27.491585,37.82568 L27.491585,37.82568" /><path fill="none" stroke="#000000" stroke-width="0.06mm" d="M19.577162,33.000664 C19.672943,33.024708 19.94485,33.115932 20.082071,33.090614 C22.331657,32.675537 20.036299,32.886818 22.822369,32.908497 C23.398966,32.912983 23.421356,32.800415 24.012896,32.735134 C24.151073,32.719887 24.291155,32.73109 24.429924,32.73939 C24.7673,32.75957 25.102814,32.831745 25.440607,32.820538 C26.129925,32.79766 26.814589,32.69848 27.50158,32.63745 L27.50158,32.63745" /><path fill="none" stroke="#000000" stroke-width="0.06mm" d="M27.402328,32.56244 C27.686586,32.597366 28.538654,32.758835 28.955524,32.675934 C29.676065,32.532642 30.37416,32.279438 31.100601,32.169895 C31.889845,32.05088 32.69492,32.077698 33.488514,31.992386 C33.698128,31.969852 33.908176,31.924997 34.10405,31.847029 C36.88337,30.740723 35.58548,31.173523 38.16635,29.67934 C38.66188,29.392456 39.191296,29.167877 39.69306,28.892044 C39.800194,28.833153 40.13848,28.483845 40.17785,28.450207 C40.36525,28.290077 40.577576,28.159245 40.756153,27.989332 C41.12238,27.640879 41.231888,27.328337 41.53734,26.910103 C41.7465,26.623722 41.971157,26.348799 42.197994,26.07621 C42.231224,26.036276 42.27215,26.002253 42.316,25.974392 C42.777008,25.681519 43.246025,25.401453 43.711033,25.114983 L43.711033,25.114983" /><path fill="none" stroke="#000000" stroke-width="0.06mm" d="M45.069717,28.781021 C45.51396,28.59917 45.72468,28.597214 46.23464,28.676449 C47.01626,28.797895 47.797768,28.923937 48.57225,29.084732 C48.853325,29.143085 49.240456,29.392889 49.48757,29.498 C49.56977,29.532963 49.656887,29.56211 49.745934,29.569166 C50.56758,29.634262 51.39155,29.665745 52.214355,29.714035 L52.214355,29.714035" /><path fill="none" stroke="#000000" stroke-width="0.06mm" d="M43.356865,25.065624 C43.573326,25.02443 45.104885,24.725323 45.33139,24.712572 C46.029022,24.673302 46.72937,24.676743 47.42758,24.70372 C47.93598,24.723362 48.437897,24.853592 48.946674,24.852259 C49.45355,24.850933 49.9526,24.711666 50.45923,24.695784 C50.92163,24.681288 51.383347,24.78094 51.845566,24.761383 C52.804596,24.720808 53.09858,24.639828 53.827232,24.475826 L53.827232,24.475826" /><path fill="none" stroke="#000000" stroke-width="0.06mm" d="M52.164135,29.681484 C52.30037,29.67414 52.43757,29.677204 52.572845,29.659458 C52.80553,29.628933 53.61894,29.366625 53.64537,29.35426 C54.312695,29.042072 54.946957,28.663618 55.597748,28.318296 C56.73212,27.865795 57.88329,27.453318 59.000866,26.960789 C59.457893,26.75937 59.841053,26.39944 60.31425,26.239677 C61.32721,25.897675 62.3965,25.751072 63.427032,25.466393 C64.07019,25.288727 64.67638,24.974173 65.332596,24.853394 C66.40997,24.655102 67.51183,24.627155 68.601456,24.514036 L68.601456,24.514036" /><path fill="none" stroke="#000000" stroke-width="0.06mm" d="M68.20446,24.553596 C68.44383,24.646866 68.55257,24.72564 68.65265,24.973166 C68.69838,25.086239 68.74364,25.201595 68.76312,25.321997 C68.93837,26.404634 69.06787,27.494263 69.236176,28.578001 C69.28595,28.898468 69.65077,29.168503 69.950485,29.226484 C70.557755,29.343964 71.223,28.981401 71.75753,28.84563 C71.87953,28.814644 72.008026,28.820473 72.13327,28.807894 L72.13327,28.807894" /><path fill="none" stroke="#000000" stroke-width="0.06mm" d="M53.522343,24.488792 C53.641075,24.497095 53.75951,24.51411 53.878532,24.5137 C53.96096,24.513416 54.044956,24.508884 54.12435,24.486717 C56.456738,23.835472 58.814037,23.262436 61.110603,22.49437 C62.33065,22.086334 63.48989,21.51247 64.65411,20.965126 C68.74375,19.042454 65.287346,20.291927 68.778175,19.142113 L68.778175,19.142113" /><path fill="none" stroke="#000000" stroke-width="0.06mm" d="M68.46448,19.26501 C68.8338,19.274336 69.01594,19.238884 69.33608,19.350983 C69.82312,19.52152 70.295395,19.891556 70.61991,20.283518 C71.19906,20.983032 71.4776,21.787012 71.892395,22.599712 C72.03252,22.874264 72.10962,22.985332 72.31599,23.191338 C72.411194,23.286373 72.52168,23.36573 72.61322,23.464302 C72.75047,23.612103 72.90727,23.855038 72.97178,24.044594 C73.16243,24.604824 73.339455,25.170063 73.49652,25.740623 C73.58689,26.06891 73.568504,26.474777 73.78049,26.770355 C74.00668,27.085768 74.542145,27.307217 74.91893,27.43604 C75.01128,27.467615 75.10766,27.485846 75.20203,27.510748 L75.20203,27.510748" /><path fill="none" stroke="#000000" stroke-width="0.06mm" d="M72.76188,28.25075 L72.7794,28.251135" /><path fill="none" stroke="#000000" stroke-width="0.06mm" d="M71.79325,28.893608 C72.298485,28.622925 72.230515,28.68992 72.668945,28.33782 C72.82814,28.209969 72.9755,28.067726 73.13591,27.941387 C73.27196,27.834229 73.46399,27.758892 73.63934,27.786774 C73.94696,27.835682 74.09911,27.993378 74.433395,28.129454 C74.671936,28.226553 74.99138,28.23648 75.23346,28.262177 L75.23346,28.262177" /><path fill="none" stroke="#000000" stroke-width="0.06mm" d="M27.245329,37.85038 C28.119541,37.623173 27.86227,37.732887 28.770683,37.28752 C28.971668,37.188984 29.155922,37.056217 29.362835,36.97082 C29.663757,36.84663 29.974232,36.744026 30.288986,36.66091 C30.51973,36.59998 30.757175,36.563644 30.994642,36.539917 C33.960045,36.24358 34.342934,36.10807 37.285442,36.59037 C37.940807,36.697792 38.569656,36.929424 39.21177,37.098953 L39.21177,37.098953" /><path fill="none" stroke="#000000" stroke-width="0.06mm" d="M45.19213,28.618929 C44.953625,28.823456 44.693344,29.00504 44.47661,29.232506 C44.17623,29.547756 43.934834,29.914865 43.64646,30.24113 C43.376564,30.546495 42.755077,30.776663 42.410698,30.81722 C41.79974,30.889174 41.18022,30.841238 40.566185,30.878633 C40.47076,30.884445 40.377525,30.914259 40.287537,30.946522 C40.185616,30.983063 40.088898,31.033268 39.993263,31.084038 C39.494133,31.349033 39.03192,31.692774 38.503685,31.893587 C37.413914,32.307877 36.27928,32.593372 35.160477,32.92127 C34.71433,33.052025 34.254997,33.13517 33.809837,33.269253 C33.52576,33.354816 33.371742,33.47724 33.13426,33.63323 L33.13426,33.63323" /><path fill="none" stroke="#B137AF" stroke-width="0.06mm" d="M33.46285,33.361797 C33.278378,33.455994 33.243916,33.456654 33.101837,33.582035 C33.05333,33.624844 33.01906,33.68706 33.006332,33.75019 C32.969906,33.930935 33.11966,34.00835 33.292393,33.99569 C33.592896,33.973663 33.893017,33.93871 34.189533,33.885197 C34.778595,33.77889 35.8098,33.1856 36.108086,33.068428 C36.478092,32.923088 36.878265,32.86553 37.25025,32.725346 C37.65163,32.574085 38.032173,32.372456 38.423134,32.19601 C38.928284,31.993092 39.426453,31.771845 39.938587,31.587252 C40.06582,31.541393 40.20095,31.50729 40.33619,31.50647 C41.44638,31.499739 42.55628,31.545258 43.666325,31.564651 L43.666325,31.564651" /><path fill="none" stroke="#B137AF" stroke-width="0.06mm" d="M33.143627,36.316566 C34.284515,36.37965 35.375656,36.26909 36.442642,36.6533 C36.715427,36.75153 36.99092,36.855404 37.235294,37.011425 C38.143745,37.591423 38.980827,38.278755 39.891518,38.855225 C40.082336,38.976013 41.878616,39.80272 42.093536,39.902576 L42.093536,39.902576" /><path fill="none" stroke="#B137AF" stroke-width="0.06mm" d="M43.385086,31.48633 C43.55127,31.548777 43.713566,31.62275 43.883636,31.673668 C44.17862,31.76199 44.485493,31.808378 44.778362,31.903486 C45.235573,32.051964 45.827366,32.447807 46.15741,32.71007 C47.434093,33.724575 46.814262,33.5338 47.897953,34.033096 C48.555374,34.33599 49.991234,34.14611 50.24143,34.14862 L50.24143,34.14862" /><path fill="none" stroke="#B137AF" stroke-width="0.06mm" d="M41.997044,39.81681 C42.148804,39.84609 42.36882,39.910084 42.53837,39.88509 C43.75135,39.70628 44.959244,39.493744 46.172764,39.318634 C46.279026,39.303303 46.38876,39.297504 46.494816,39.314186 C47.177696,39.421597 47.854866,39.562637 48.534294,39.69008 C49.58306,39.8868 48.839233,39.846794 50.8721,39.849854 C51.029247,39.850086 51.1858,39.81816 51.338478,39.78095 C51.51343,39.738308 51.680386,39.667774 51.85134,39.611187 L51.85134,39.611187" /><path fill="none" stroke="#B137AF" stroke-width="0.06mm" d="M50.11656,34.208855 C50.732655,34.073902 50.699017,34.06592 51.629982,34.03511 C51.806396,34.02927 51.984566,34.044388 52.15771,34.07869 C52.813892,34.208687 54.94432,34.99496 54.99568,35.00938 C55.714893,35.21133 57.158382,35.120346 57.716175,35.14989 C58.00827,35.16536 58.907772,35.500515 59.021793,35.531536 C59.637318,35.699013 60.26059,35.836597 60.87999,35.989124 L60.87999,35.989124" /><path fill="none" stroke="#B137AF" stroke-width="0.06mm" d="M51.34497,39.852695 C51.48513,39.78038 51.621696,39.700626 51.76545,39.63575 C52.039505,39.512066 52.810825,39.523724 52.838448,39.52573 C53.432026,39.568832 54.181293,39.698357 54.752754,39.96464 C55.503033,40.314247 56.791763,41.205833 57.30225,41.511635 C57.459156,41.60563 57.63567,41.66272 57.797165,41.74859 C57.984207,41.848045 58.090958,42.06381 58.29224,42.142365 C58.68767,42.296684 59.00465,42.332478 59.45331,42.378284 C59.58007,42.391228 59.70815,42.37923 59.83557,42.379707 L59.83557,42.379707" /><path fill="none" stroke="#B137AF" stroke-width="0.06mm" d="M60.703163,36.01701 C61.467834,36.603024 62.241978,37.176884 62.99719,37.775043 C63.093224,37.85111 63.171852,37.947044 63.254314,38.03764 C63.344,38.13616 63.5129,38.3852 63.668858,38.469017 C64.59451,38.96652 64.52658,38.917416 65.34621,39.24206 L65.34621,39.24206" /><path fill="none" stroke="#B137AF" stroke-width="0.06mm" d="M59.666862,42.391357 C60.111298,42.37401 60.191326,42.35383 60.665604,42.41801 C61.00038,42.463318 61.756344,42.866375 61.821243,42.903736 C62.17272,43.10607 62.475914,43.385643 62.828014,43.586895 C63.182762,43.789665 63.707825,43.948452 64.1125,44.0411 C64.22092,44.065918 64.3325,44.07401 64.44249,44.09046 L64.44249,44.09046" /><path fill="none" stroke="#B137AF" stroke-width="0.06mm" d="M65.08614,39.123135 C65.18775,39.204765 65.382454,39.38553 65.52992,39.43644 C66.07406,39.62429 66.273865,39.547413 66.935455,39.693012 C67.10396,39.730095 67.26332,39.80198 67.42176,39.8703 C68.11386,40.168743 68.78052,40.52787 69.48609,40.792892 C72.29915,41.849506 70.25806,41.00067 71.84345,41.38556 C72.143845,41.45849 72.43051,41.580933 72.72976,41.65842 C72.90937,41.70493 73.16428,41.70205 73.34947,41.706963 L73.34947,41.706963" /><path fill="none" stroke="#B137AF" stroke-width="0.06mm" d="M64.27172,44.01212 C65.05115,44.095333 65.82838,44.202576 66.60999,44.26176 C67.52694,44.331192 67.474014,44.171566 68.21231,44.368507 C68.536865,44.45508 69.001,44.675415 69.278404,44.844193 C69.46989,44.96069 69.63718,45.114098 69.828384,45.231056 C70.12009,45.39268 70.41179,45.55431 70.7035,45.715935 C70.86032,45.780834 71.02573,45.827984 71.17396,45.91064 C71.44658,46.06266 71.69894,46.248466 71.961426,46.41738 L71.961426,46.41738" /><path fill="none" stroke="#B137AF" stroke-width="0.06mm" d="M71.97035,46.396564 L71.92472,46.399635" /><path fill="none" stroke="#B137AF" stroke-width="0.06mm" d="M71.8053,46.401978 C71.91754,46.49346 72.041534,46.57219 72.14204,46.676437 C72.734856,47.291367 72.93187,47.646095 73.3813,48.441437 C73.45973,48.58023 73.51213,48.7322 73.57756,48.87758 L73.57756,48.87758" /><path fill="none" stroke="#B137AF" stroke-width="0.06mm" d="M74.04836,48.577263 C74.00853,48.46195 73.96869,48.346634 73.928856,48.231323 C73.88054,48.114414 73.81389,48.003494 73.78391,47.8806 C73.68632,47.480583 73.59619,47.07704 73.547485,46.668182 C73.526855,46.49507 73.49027,45.975624 73.630936,45.729683 C73.690216,45.626038 73.74893,45.521076 73.82236,45.426926 C74.10357,45.066353 74.46214,44.858257 74.83302,44.575706 L74.83302,44.575706" /><path fill="none" stroke="#B137AF" stroke-width="0.06mm" d="M71.63484,49.50528 C71.5986,49.750816 71.56236,49.996353 71.52612,50.24189 C71.53048,50.25583 71.52939,50.272884 71.53919,50.283707 C71.58037,50.329155 71.70018,50.238453 71.71774,50.22409 C71.98459,50.0059 72.17966,49.719196 72.37622,49.440342 L72.37622,49.440342" /><path fill="none" stroke="#B137AF" stroke-width="0.06mm" d="M72.00553,50.01122 C72.020386,50.09338 72.03181,50.176235 72.050095,50.2577 C72.08338,50.405937 72.24643,50.465008 72.36824,50.38156 C72.45091,50.324932 72.53047,50.180874 72.632904,50.182217 C72.73537,50.18356 72.798965,50.421295 72.93555,50.46788 C73.06128,50.510757 73.21445,50.31067 73.01671,50.309467 C72.95021,50.309063 72.88374,50.312653 72.81725,50.314247 L72.81725,50.314247" /><path fill="none" stroke="#B137AF" stroke-width="0.06mm" d="M73.34758,50.371063 C73.37905,50.32428 73.40783,50.275562 73.442,50.230717 C73.52373,50.123478 73.701965,50.249336 73.759705,50.315464 C73.79704,50.358227 73.817604,50.434074 73.86943,50.46209 C73.941444,50.501015 74.02203,50.39396 74.06681,50.362053 C74.15622,50.29834 74.30287,50.260975 74.398865,50.33159 C74.494705,50.402084 74.519485,50.561413 74.52478,50.666122 C74.55476,51.25975 74.51778,50.792213 74.47483,51.259483 C74.4741,51.267456 74.49069,51.2573 74.49863,51.25621 C74.61367,50.93142 74.74977,50.613335 74.84376,50.281837 C74.89613,50.0971 74.91394,49.90397 74.93609,49.713234 C74.94423,49.64311 74.94307,49.431396 74.93437,49.501453 C74.90196,49.76238 74.83396,50.380768 75.085205,50.607025 C75.09386,50.614826 75.106636,50.616356 75.11783,50.61961 C75.20842,50.645935 75.299545,50.670357 75.3904,50.695732 L75.3904,50.695732" /><path fill="none" stroke="#B137AF" stroke-width="0.06mm" d="M74.73833,49.908405 C74.96024,50.00853 75.16675,50.022747 75.40123,50.02475 L75.40123,50.02475" /><path fill="none" stroke="#B137AF" stroke-width="0.06mm" d="M75.50134,50.308834 C75.47034,50.35848 75.43526,50.4058 75.40833,50.457767 C75.36365,50.544014 75.509155,50.59851 75.569885,50.592506 C75.675705,50.58204 75.70549,50.452557 75.78177,50.446632 C75.8468,50.441578 75.8678,50.544544 75.91256,50.57504 C76.00391,50.637264 76.145485,50.567055 76.23189,50.54151 L76.23189,50.54151" /><path fill="none" stroke="#B137AF" stroke-width="0.06mm" d="M76.23189,49.85159 C76.24787,49.87816 76.237564,50.230286 76.38563,50.233215 C76.44704,50.234432 76.49548,50.19628 76.55674,50.225567 C76.607414,50.249794 76.629074,50.299675 76.664825,50.339783 C76.7239,50.406067 76.83821,50.39039 76.91078,50.366634 C76.99305,50.339703 77.05727,50.310272 77.124084,50.256325 C77.14867,50.23648 77.21557,50.14855 77.27302,50.137615 C77.34108,50.12466 77.378555,50.213375 77.39154,50.26351 C77.44693,50.477337 77.276825,50.768513 77.258865,50.930706 C77.25227,50.990196 77.33788,50.837067 77.35704,50.780365 C77.5016,50.352516 77.60443,49.91135 77.74797,49.48316 C77.756744,49.456963 77.7591,49.537285 77.76467,49.564346 C77.76222,49.70612 77.759766,49.847893 77.75731,49.98967 C77.763145,50.002098 77.76575,50.01666 77.77484,50.026955 C77.7928,50.04731 77.826996,50.051785 77.851204,50.043774 C78.051506,49.9775 78.24899,49.903027 78.44789,49.83265 L78.44789,49.83265" /><path fill="none" stroke="#B137AF" stroke-width="0.06mm" d="M78.025795,50.479286 L78.31531,50.59292" /><path fill="none" stroke="#B137AF" stroke-width="0.06mm" d="M71.05582,52.42189 C71.066956,52.310463 71.078094,52.199036 71.08924,52.08761 C71.115875,51.975384 71.11788,51.647606 71.169136,51.750935 C71.23038,51.874397 71.13512,52.02462 71.12622,52.162155 C71.12012,52.2564 71.15712,52.36402 71.223465,52.431717 C71.41283,52.624928 71.7617,52.078476 71.68832,51.90967 C71.6658,51.85789 71.609985,51.91873 71.59529,51.939507 C71.54942,52.004406 71.50441,52.069904 71.45897,52.1351 L71.45897,52.1351" /><path fill="none" stroke="#B137AF" stroke-width="0.06mm" d="M72.23552,52.029587 C72.20334,52.085667 72.16808,52.1401 72.13896,52.19783 C72.08955,52.295776 72.2177,52.37844 72.30269,52.368027 C72.38456,52.357994 72.443695,52.2706 72.467896,52.199196 C72.48811,52.139526 72.46101,52.051243 72.38209,52.06152 C72.293976,52.07299 72.20681,52.090733 72.11917,52.10534 L72.11917,52.10534" /><path fill="none" stroke="#B137AF" stroke-width="0.06mm" d="M72.95795,52.051228 C73.04549,52.43996 73.0405,52.43583 73.41522,52.486824 L73.41522,52.486824" /><path fill="none" stroke="#B137AF" stroke-width="0.06mm" d="M73.46933,51.731968 C73.514885,51.821545 73.57197,51.900105 73.588104,51.999054 C73.609665,52.131195 73.53323,52.246056 73.53783,52.376476 C73.54461,52.569107 73.65494,52.64526 73.823425,52.548637 C73.87746,52.517654 73.92503,52.473824 73.96283,52.4246 C74.05963,52.298557 74.14577,52.16436 74.246,52.041042 C74.25906,52.02498 74.34421,51.92324 74.40349,51.918785 C74.47838,51.913155 74.47896,52.024406 74.5255,52.05947 C74.585785,52.104897 74.6573,52.05436 74.71613,52.0377 C74.85242,51.999107 74.849884,52.17522 74.9409,52.225548 C75.01631,52.267242 75.16047,52.251198 75.21976,52.256866 C75.26701,52.26139 75.313065,52.275322 75.36033,52.2798 C75.473236,52.290504 75.58452,52.19028 75.65425,52.11979 C75.68385,52.089867 75.708725,52.055527 75.73364,52.021614 C75.75568,51.991623 75.77005,51.95597 75.79494,51.928314 C75.803665,51.918613 75.81825,51.911068 75.83111,51.913322 C75.86505,51.919266 75.89192,51.988464 75.89697,52.00688 C75.95351,52.212967 75.99014,52.36825 75.98604,52.580406 C75.9824,52.768665 75.93457,52.93741 75.865776,53.112747 C75.7982,53.28497 75.66379,53.45211 75.544334,53.58309 C75.53146,53.5972 75.49289,53.621742 75.49054,53.60279 C75.48439,53.553223 75.61418,53.340904 75.622955,53.32958 C75.86626,53.015495 76.12271,52.71183 76.37259,52.402954 L76.37259,52.402954" /><path fill="none" stroke="#B137AF" stroke-width="0.06mm" d="M68.77488,53.601524 C68.97931,53.540718 69.21701,53.44219 69.10445,53.747456 C69.08284,53.806026 69.05477,53.862095 69.02635,53.917683 C68.99159,53.9857 68.9435,54.03642 68.92806,54.109177 C68.90599,54.213203 69.00031,54.277695 69.09554,54.280315 C69.33259,54.286835 69.54059,54.096413 69.711914,53.95745 C69.753914,53.923386 69.8,53.863518 69.8633,53.869293 C69.93307,53.875656 69.95038,53.96 70.001175,53.995373 C70.095184,54.06085 70.2437,54.02748 70.3327,53.969994 C70.4219,53.91239 70.51533,53.71962 70.354485,53.68981 C70.24659,53.669815 70.055435,53.72916 69.987045,53.742218 L69.987045,53.742218" /><path fill="none" stroke="#B137AF" stroke-width="0.06mm" d="M70.506546,53.85314 C70.75127,53.988453 70.82918,54.005905 71.08558,53.98301 L71.08558,53.98301" /><path fill="none" stroke="#B137AF" stroke-width="0.06mm" d="M71.29663,53.09017 C71.26788,53.230244 71.23312,53.369217 71.21041,53.51039 C71.1875,53.652824 71.19575,53.807953 71.36189,53.836887 C71.41341,53.84586 71.47,53.834736 71.51587,53.81026 C71.5403,53.797226 71.565636,53.784424 71.58586,53.76551 C71.75809,53.60447 71.92336,53.436134 72.09211,53.271446 L72.09211,53.271446" /><path fill="none" stroke="#B137AF" stroke-width="0.06mm" d="M71.82425,53.639404 C71.99521,53.897335 72.00815,53.91107 72.254456,54.056065 L72.254456,54.056065" /><path fill="none" stroke="#B137AF" stroke-width="0.06mm" d="M72.54668,54.056065 C72.61797,53.977123 72.68509,53.894188 72.760574,53.819244 C73.122665,53.459785 73.064926,54.109543 73.37213,54.19168 C73.59266,54.250645 73.90228,54.051514 74.06613,53.990196 C74.137764,53.963394 74.21303,53.94753 74.28647,53.926193 L74.28647,53.926193" /><path fill="none" stroke="#B137AF" stroke-width="0.06mm" d="M74.600334,53.98301 C74.66228,53.94381 74.73176,53.914543 74.78616,53.865417 C74.79563,53.856865 74.77838,53.838844 74.76768,53.8319 C74.70877,53.79368 74.61113,53.814255 74.55606,53.84788 C74.49257,53.88665 74.44955,53.93026 74.403336,53.990852 C74.30785,54.116055 74.287125,54.297714 74.41967,54.40396 C74.561035,54.517273 74.73488,54.49356 74.906204,54.47822 C74.96697,54.472782 75.026306,54.455986 75.086975,54.449524 C75.199066,54.437584 75.262344,54.588867 75.28029,54.67167 C75.301575,54.76979 75.29375,54.84629 75.293,54.948906 L75.293,54.948906" /><path fill="none" stroke="#B137AF" stroke-width="0.06mm" d="M75.658264,53.693512 C75.47891,53.76867 75.31619,53.840126 75.236435,54.02495 C75.19925,54.111122 75.16099,54.228813 75.188225,54.323547 C75.24298,54.514004 75.525314,54.591797 75.69126,54.512253 C76.20121,54.267822 75.79621,54.444763 76.18347,54.2275 C76.21392,54.21042 76.330376,54.177963 76.372025,54.127403 C76.38857,54.107323 76.39582,54.08405 76.39513,54.058174 C76.394295,54.027126 76.359146,53.91012 76.36046,53.91008 C76.40889,53.908684 76.426315,53.981384 76.462616,54.01348 C76.47966,54.02857 76.499466,54.04057 76.51973,54.05095 C76.54708,54.064953 76.57524,54.07813 76.60486,54.086323 C76.878365,54.16198 77.16862,54.11256 77.44406,54.080414 L77.44406,54.080414" /><path fill="none" stroke="#B137AF" stroke-width="0.06mm" d="M78.76024,54.094296 C78.628174,54.120758 78.45967,54.129803 78.36751,54.246937 C78.25127,54.394684 78.355835,54.612675 78.53825,54.640446 C78.67261,54.660904 78.809204,54.57132 78.89199,54.473774 C78.992676,54.355145 79.06297,54.226448 79.09427,54.073845 C79.12539,53.92207 78.98727,53.748943 78.82548,53.80486 C78.7412,53.833984 78.66225,53.931305 78.61142,53.97525 L78.61142,53.97525" /><path fill="none" stroke="#B137AF" stroke-width="0.06mm" d="M79.03352,53.41249 C78.92563,53.71309 78.902756,53.717552 78.88052,54.066177 C78.87333,54.178944 78.87921,54.292427 78.88792,54.405083 C78.8931,54.47223 78.91665,54.554337 78.9505,54.61535 C79.03984,54.77633 79.222565,54.750504 79.34137,54.632664 C79.35791,54.616257 79.472725,54.437515 79.559555,54.43998 C79.61621,54.441586 79.662994,54.53041 79.69164,54.557667 C79.81842,54.678257 79.970825,54.75148 80.092636,54.59233 C80.12061,54.555782 80.14159,54.51261 80.143936,54.466064 C80.1496,54.354404 80.052025,54.24199 79.93532,54.273674 C79.67475,54.344414 79.57282,54.58844 79.42044,54.797745 L79.42044,54.797745" /><path fill="none" stroke="#B137AF" stroke-width="0.06mm" d="M70.05318,55.980087 C69.98973,55.991074 69.92557,55.998554 69.86282,56.013058 C69.68984,56.053047 69.56154,56.27938 69.489746,56.412743 C69.45346,56.480118 69.394485,56.605774 69.40202,56.696865 C69.41429,56.845047 69.64882,56.864594 69.75586,56.83345 C69.93474,56.781414 70.02875,56.702724 70.19929,56.599663 L70.19929,56.599663" /><path fill="none" stroke="#B137AF" stroke-width="0.06mm" d="M70.85407,55.904327 C70.81746,56.580917 70.79931,56.28108 70.8676,56.805286 L70.8676,56.805286" /><path fill="none" stroke="#B137AF" stroke-width="0.06mm" d="M70.81078,55.330746 L71.33299,55.252285" /><path fill="none" stroke="#B137AF" stroke-width="0.06mm" d="M71.59815,56.12889 C71.51228,56.163372 71.4373,56.179832 71.3687,56.237236 C71.29049,56.30269 71.24824,56.40024 71.21823,56.495068 C71.16217,56.672173 71.19415,56.82246 71.378006,56.902683 C71.606766,57.0025 71.7871,56.733955 71.85033,56.55488 C71.893036,56.43389 71.96159,56.228672 71.89978,56.09458 C71.839386,55.9636 71.64122,56.020042 71.559906,56.096825 C71.49077,56.1621 71.45162,56.264664 71.43286,56.355316 C71.38486,56.587242 71.46695,56.72943 71.71713,56.737743 C71.83319,56.7416 72.16704,56.70198 72.222694,56.699112 C72.30261,56.695 72.4556,56.706215 72.51029,56.785294 C72.603485,56.92004 72.68867,57.060165 72.77785,57.197598 L72.77785,57.197598" /><path fill="none" stroke="#B137AF" stroke-width="0.06mm" d="M73.1756,56.00985 C73.044876,56.188023 73.00877,56.38945 73.0363,56.60778 C73.04695,56.692215 73.094604,56.79949 73.18227,56.829544 C73.33887,56.883224 73.474304,56.570824 73.507996,56.50953 C73.556915,56.420547 73.61365,56.27658 73.52484,56.190372 C73.49949,56.165756 73.461174,56.13424 73.42425,56.126743 C73.290436,56.099594 73.360275,56.397926 73.38966,56.4509 C73.60506,56.83909 73.827415,57.111588 73.88545,57.549545 C73.905594,57.701492 73.747574,57.875053 73.5933,57.863426 C73.469696,57.854103 73.37102,57.704094 73.43097,57.590614 C73.48205,57.493935 73.52872,57.39441 73.58879,57.30305 C73.6532,57.20512 73.73181,57.11731 73.80333,57.02444 L73.80333,57.02444" /><path fill="none" stroke="#B137AF" stroke-width="0.06mm" d="M74.236244,55.90974 C74.27387,56.089554 74.30663,56.270454 74.34913,56.44918 C74.352295,56.462505 74.36235,56.473793 74.37254,56.48295 C74.46794,56.56865 74.707664,56.330017 74.73941,56.247025 C74.79874,56.09198 74.834755,55.928272 74.899734,55.775513 C74.91536,55.738792 74.88992,55.854874 74.88927,55.89477 C74.8887,55.929688 74.900246,55.971123 74.91675,56.00173 C74.93457,56.034805 74.96292,56.065964 74.9933,56.087776 C75.16991,56.21455 75.35034,56.113976 75.52959,56.042313 L75.52959,56.042313" /><path fill="none" stroke="#B137AF" stroke-width="0.06mm" d="M77.20444,56.212765 C77.21654,56.273994 77.22519,56.336006 77.24074,56.39645 C77.2697,56.509003 77.44655,56.47406 77.517685,56.449905 C77.6683,56.39875 77.70856,56.236855 77.75059,56.10076 C77.76819,56.04379 77.78529,55.973133 77.767265,55.91256 C77.72391,55.76688 77.539055,55.72857 77.42589,55.81446 C77.34978,55.87222 77.29544,55.94223 77.241646,56.02282 C77.156494,56.150402 77.10986,56.324913 77.167404,56.472557 C77.173615,56.48848 77.183,56.502975 77.191414,56.517853 C77.24858,56.61894 77.31147,56.71692 77.36414,56.820423 C77.4066,56.903854 77.42125,57.013313 77.40758,57.105606 C77.39851,57.16674 77.37782,57.22104 77.344765,57.273247 C77.32738,57.300705 77.30771,57.327003 77.28511,57.35036 C77.26861,57.367424 77.21454,57.412727 77.228455,57.393497 C77.921036,56.436317 77.699615,56.934692 78.170746,55.78202 C78.18407,55.74943 78.12222,55.833668 78.10361,55.86355 C78.07973,55.901905 78.06076,55.943344 78.04411,55.98535 C78.01901,56.048706 78.00409,56.124454 78.00441,56.192734 C78.005264,56.377502 78.06937,56.577824 78.25518,56.648933 C78.316345,56.672333 78.38107,56.682755 78.44408,56.660294 C78.52404,56.63179 78.57643,56.52916 78.64378,56.518196 C78.707115,56.50789 78.728355,56.606796 78.74762,56.63976 C78.81122,56.74857 78.980064,56.790405 79.07617,56.700657 C79.285,56.505653 78.97029,56.4321 78.82716,56.40161 C78.68436,56.3712 78.54083,56.344254 78.397675,56.315575 L78.397675,56.315575" /><path fill="none" stroke="#B137AF" stroke-width="0.06mm" d="M77.659004,55.593185 L78.00804,55.29828" /><path fill="none" stroke="#B137AF" stroke-width="0.06mm" d="M78.57084,55.852924 L79.10387,55.482258" /><path fill="none" stroke="#B137AF" stroke-width="0.06mm" d="M79.43397,56.096424 C79.44606,56.142952 79.4263,56.388084 79.54374,56.416718 C79.60302,56.43117 79.71807,56.39041 79.762314,56.38764 C79.8457,56.382423 79.929565,56.39116 80.012955,56.385956 C80.137344,56.378197 80.23187,56.26328 80.313324,56.185707 L80.313324,56.185707" /><path fill="none" stroke="#B137AF" stroke-width="0.06mm" d="M80.60826,56.239822 C80.61664,56.303947 80.59398,56.60624 80.76028,56.57978 C80.862305,56.563553 80.953636,56.516205 81.05993,56.55024 C81.070526,56.55363 81.080536,56.561066 81.08646,56.570488 C81.13153,56.642246 81.16991,56.718002 81.21164,56.79176 L81.21164,56.79176" /><path fill="none" stroke="#B137AF" stroke-width="0.06mm" d="M81.50926,56.521202 C81.55094,56.47991 81.59555,56.44139 81.63429,56.397335 C81.71077,56.310364 81.54673,56.226715 81.47569,56.242374 C81.448,56.24848 81.43197,56.267593 81.421265,56.29263 C81.38668,56.373512 81.423096,56.45873 81.490524,56.509033 C81.5511,56.55423 81.61267,56.582863 81.68535,56.60533 C81.73305,56.62008 81.81335,56.63156 81.86384,56.623306 C81.938675,56.61107 82.01168,56.589508 82.085594,56.57261 L82.085594,56.57261" /><path fill="none" stroke="#B137AF" stroke-width="0.06mm" d="M82.28311,56.56449 C82.266525,56.737236 82.2428,56.863407 82.44636,56.858658 C82.63538,56.854244 82.7453,56.49563 82.553894,56.41508 C82.479614,56.383823 82.43651,56.48519 82.41826,56.53589 C82.353516,56.715782 82.49607,57.14193 82.50181,57.18623 C82.51113,57.25824 82.505936,57.33166 82.50034,57.40406 C82.48996,57.53859 82.443535,57.672882 82.36014,57.779808 C82.34358,57.80104 82.327644,57.837044 82.30083,57.83464 C82.28068,57.832832 82.29167,57.793762 82.296455,57.7741 C82.35751,57.52314 82.417175,57.428436 82.5645,57.230064 L82.5645,57.230064" /><path fill="none" stroke="#B137AF" stroke-width="0.06mm" d="M82.8432,56.299343 C82.83424,56.365665 82.82041,56.43151 82.816345,56.498306 C82.81253,56.560936 82.81891,56.743217 82.909454,56.760155 C82.97032,56.77153 83.04782,56.694023 83.07922,56.66121 C83.168655,56.56778 83.33945,56.227936 83.25333,56.1027 C83.207306,56.035774 83.07069,56.028477 83.010956,56.01526 L83.010956,56.01526" /><path fill="none" stroke="#B137AF" stroke-width="0.06mm" d="M73.72821,45.546825 C73.87416,45.367992 74.0085,45.058838 74.24019,44.937027 C74.355415,44.87645 74.50642,44.861088 74.63369,44.87788 C74.81053,44.90121 75.08298,44.93627 75.266754,45.02196 C75.32886,45.05091 75.38493,45.091312 75.44403,45.125984 C75.63239,45.245617 75.806335,45.39176 76.00911,45.484882 C76.392204,45.660805 76.794655,45.79169 77.193146,45.9292 C77.36395,45.98814 78.038155,46.127373 78.27255,46.319496 C78.68743,46.65955 79.08934,47.01709 79.4665,47.39856 C81.91282,49.872883 80.37952,48.575848 81.31781,49.35899 L81.31781,49.35899" /><path fill="none" stroke="#B137AF" stroke-width="0.06mm" d="M73.306,41.78147 C73.740715,41.912346 74.21127,41.76361 74.64018,41.914074 C74.95018,42.02282 75.249214,42.16064 75.555664,42.279 C76.03615,42.46457 76.535355,42.605408 77.000885,42.82583 C78.35545,43.467197 79.653366,44.224224 81.00987,44.861492 C82.244644,45.441574 83.69619,45.523983 84.9975,45.73973 L84.9975,45.73973" /><path fill="none" stroke="#B137AF" stroke-width="0.06mm" d="M81.13641,49.305687 C82.798584,49.574566 80.56351,49.233135 83.54259,49.54406 C83.7648,49.567253 83.97947,49.643524 84.20187,49.664818 C86.1435,49.85072 84.34601,49.58993 85.119255,49.706116 L85.119255,49.706116" /><path fill="none" stroke="#B137AF" stroke-width="0.06mm" d="M75.4003,27.232847 C75.43799,27.130772 75.4493,27.057772 75.51248,26.979126 C75.56982,26.90775 75.77252,26.751976 75.78744,26.941517 C75.793564,27.01936 75.79589,27.09762 75.793884,27.175678 C75.78993,27.330156 75.75917,27.38744 75.78624,27.517635 C75.843796,27.794437 76.05,27.725628 76.21901,27.57381 C76.3083,27.493603 76.38864,27.40397 76.473465,27.319052 L76.473465,27.319052" /><path fill="none" stroke="#B137AF" stroke-width="0.06mm" d="M75.953224,28.537817 C75.89584,28.665094 75.83056,28.76329 75.813835,28.896929 C75.79155,29.075027 75.88556,29.37167 76.118774,29.328005 C76.23203,29.306799 76.30995,29.193537 76.36549,29.105276 C76.418175,29.021584 76.46274,28.918188 76.461464,28.816761 C76.45926,28.640741 76.32634,28.417177 76.12803,28.439045 C75.987915,28.454494 75.88133,28.595293 75.78675,28.674557 L75.78675,28.674557" /><path fill="none" stroke="#B137AF" stroke-width="0.06mm" d="M84.79315,45.75307 C85.08655,45.874672 85.37363,46.01277 85.673325,46.117874 C86.26543,46.32553 86.51263,46.27951 86.99413,46.590496 C87.189156,46.716454 87.360565,46.875664 87.54403,47.017925 C87.81271,47.226265 88.06744,47.45408 88.35058,47.642292 C88.47771,47.7268 88.624794,47.777657 88.7677,47.831337 C89.32493,48.04066 89.97605,47.99214 90.56627,47.976574 L90.56627,47.976574" /><path fill="none" stroke="#B137AF" stroke-width="0.06mm" d="M84.98639,49.57583 C85.07233,49.627274 85.15488,49.684837 85.2442,49.730164 C85.29776,49.757343 85.35631,49.77343 85.41327,49.792458 C85.97528,49.98016 86.543526,50.149673 87.10104,50.35032 C87.19684,50.384796 87.28625,50.437473 87.36927,50.4964 C87.74584,50.76368 87.86512,51.030304 88.2089,51.40547 C88.27426,51.4768 88.35222,51.5364 88.432045,51.591072 C88.930984,51.932823 89.424576,51.862785 90.01632,51.867702 L90.01632,51.867702" /><path fill="none" stroke="#B137AF" stroke-width="0.06mm" d="M90.30818,47.972595 C90.69551,48.036644 90.94174,48.325474 91.30612,48.466038 C92.0932,48.769665 92.59334,48.867348 93.37906,48.867348 L93.37906,48.867348" /><path fill="none" stroke="#B137AF" stroke-width="0.06mm" d="M89.78842,51.94315 C90.03091,51.8804 90.287346,51.8574 90.515884,51.754898 C91.05196,51.514458 91.19213,51.380276 91.530464,51.092987 L91.530464,51.092987" /><path fill="none" stroke="#B137AF" stroke-width="0.06mm" d="M91.10833,51.161358 C91.44057,51.124268 91.772156,51.080994 92.10503,51.05008 C92.521484,51.01141 92.45442,51.584297 92.36242,51.83168 C92.31502,51.959118 92.20399,52.11194 92.11311,52.197205 C91.73696,52.550125 91.15134,52.975887 90.69606,53.160107 C90.466675,53.252922 88.66957,53.965977 87.84567,54.000763 C87.25299,54.025787 86.561325,53.89489 86.016266,53.71692 C84.95897,53.37168 83.930405,52.943542 82.88009,52.57762 C82.70342,52.51607 82.50806,52.511414 82.33723,52.435165 C82.02635,52.296402 81.73283,52.119843 81.44547,51.937286 C80.8369,51.55066 80.38724,51.286777 79.94812,50.779152 C79.34807,50.085487 79.21124,49.72386 78.601974,49.28373 C78.5165,49.221985 78.42682,49.163177 78.328896,49.124104 C77.81447,48.918835 77.04822,48.611046 76.4453,48.595196 C75.745285,48.576797 75.04536,48.637535 74.34516,48.646496 C74.29982,48.647076 74.2527,48.641674 74.21103,48.623787 C74.12405,48.58645 74.0466,48.52996 73.96437,48.483047 L73.96437,48.483047" /><path fill="none" stroke="#B137AF" stroke-width="0.06mm" d="M73.44711,48.71491 C73.632416,48.88288 73.70491,48.976376 73.9153,49.083595 C74.04909,49.151783 74.25198,49.209454 74.397835,49.217857 C75.38698,49.274837 76.93372,49.01873 77.93228,49.66926 C78.18109,49.831352 78.411545,50.022984 78.624954,50.229473 C78.829636,50.427517 78.99968,50.658577 79.181404,50.877876 C79.537315,51.307354 79.85161,51.773148 80.23775,52.17566 C80.5629,52.514584 80.91793,52.830128 81.306854,53.093422 C81.9267,53.513054 82.57278,53.900795 83.25168,54.216057 C84.48955,54.790897 85.554375,55.027847 86.88503,55.187836 C87.632034,55.27765 88.382385,55.36548 89.13474,55.370678 C89.64153,55.37418 90.14422,55.277344 90.647026,55.213833 C91.096466,55.15706 91.428024,54.72524 91.73629,54.470882 C91.868675,54.36165 92.33669,54.278084 92.342026,54.276638 L92.342026,54.276638" /><path fill="none" stroke="#B137AF" stroke-width="0.06mm" d="M91.91098,54.26772 C92.00011,54.224 92.09278,54.18688 92.17835,54.136562 C92.526924,53.93161 92.6648,53.5006 92.7345,53.130943 C92.81384,52.710136 92.83308,52.28003 92.896614,51.856552 C92.91078,51.7621 92.95624,51.638176 93.03467,51.572136 C93.14297,51.48094 93.429436,51.375244 93.579155,51.374943 C93.7864,51.374527 93.993065,51.397034 94.20002,51.40808 L94.20002,51.40808" /><path fill="none" stroke="#B137AF" stroke-width="0.06mm" d="M93.94222,51.419212 C94.06038,51.371445 94.129654,51.328552 94.247116,51.316124 C94.649635,51.27352 94.997185,51.744602 95.214966,51.960655 C95.27308,52.01831 95.32853,52.081535 95.36602,52.15432 C95.61576,52.639122 95.83179,53.140648 96.07443,53.629044 C96.09146,53.663322 96.11759,53.69272 96.14408,53.720345 C96.444916,54.034058 96.92424,54.07373 97.322266,54.14508 L97.322266,54.14508" /><path fill="none" stroke="#B137AF" stroke-width="0.06mm" d="M93.21985,48.770626 C94.151665,49.128242 95.07104,49.520157 96.0153,49.843475 C96.23056,49.917175 96.46228,49.930973 96.68817,49.958183 C98.65362,50.194923 98.00829,50.207348 99.35564,50.066677 L99.35564,50.066677" /><path fill="none" stroke="#B137AF" stroke-width="0.06mm" d="M97.22119,54.11238 C98.70078,53.997437 98.16952,54.08139 98.82946,53.969696 L98.82946,53.969696" /><path fill="none" stroke="#B137AF" stroke-width="0.06mm" d="M99.09582,50.018673 C100.50301,50.283154 101.9061,50.570488 103.3174,50.81212 C103.7645,50.888668 103.839165,50.87609 104.14655,50.850998 L104.14655,50.850998" /><path fill="none" stroke="#B137AF" stroke-width="0.06mm" d="M98.17032,54.25425 L98.170715,54.18628" /><path fill="none" stroke="#B137AF" stroke-width="0.06mm" d="M98.41111,54.040222 C98.559296,53.997147 98.709724,53.96115 98.85566,53.910995 C99.16836,53.80352 99.47171,53.669483 99.78626,53.56758 C99.86195,53.54306 99.94298,53.53685 100.02245,53.533005 C100.282295,53.520416 100.53524,53.55259 100.77042,53.66738 C101.11621,53.836174 101.46917,54.428215 101.62518,54.734875 C101.81697,55.111847 101.90966,55.654716 101.761215,56.063545 C101.342354,57.21711 100.8653,57.42452 100.09377,58.77312 C99.55816,59.709343 99.36138,60.81681 98.942604,61.79528 C98.59931,62.597397 98.10438,63.332382 97.79881,64.14961 C97.55129,64.81162 97.17586,66.15036 97.19632,67.05925 C97.20124,67.27788 97.23772,67.495056 97.274536,67.71062 C97.33169,68.04527 97.55253,68.35756 97.755356,68.61381 C97.83293,68.71182 97.920204,68.80298 98.01536,68.88405 C98.44415,69.24941 98.6143,69.33092 99.16379,69.54764 C99.28584,69.59578 99.413284,69.63205 99.54246,69.655075 C99.85891,69.71148 100.18313,69.695496 100.49869,69.64331 C100.822914,69.58971 101.11829,69.456116 101.36675,69.24211 C101.43214,69.18581 101.49745,69.12671 101.54612,69.05546 C101.929504,68.494255 102.46691,67.71619 102.651955,67.021454 C102.85228,66.26941 102.916176,65.4854 103.11614,64.73325 C103.27319,64.14253 103.57329,63.595238 103.72057,63.00201 C104.06893,61.598976 104.14327,59.299683 104.164474,58.01815 C104.17036,57.662815 104.148994,57.151516 104.02664,56.758976 C103.89895,56.34928 103.75785,55.943783 103.63417,55.532856 C103.577286,55.34386 103.60448,55.133873 103.7761,55.014954 C103.91844,54.91632 104.113434,54.923977 104.273415,54.905247 L104.273415,54.905247" /><path fill="none" stroke="#B137AF" stroke-width="0.06mm" d="M104.0927,50.21605 C104.214745,48.875084 104.31391,47.531834 104.458824,46.193142 C104.49328,45.874886 104.582375,45.503227 104.78342,45.23825 C104.84778,45.153423 104.94547,45.09841 105.046524,45.069645 C105.14664,45.041153 105.25447,45.023403 105.35916,45.03071 C105.610794,45.04827 105.86478,45.208057 105.992035,45.425484 C106.311676,45.97161 106.28118,46.709026 106.265625,47.306347 C106.25694,47.639492 106.18921,47.970795 106.19908,48.30391 C106.26421,50.500927 106.2015,50.124336 106.46497,51.292133 L106.46497,51.292133" /><path fill="none" stroke="#B137AF" stroke-width="0.06mm" d="M103.860825,49.987164 C103.98976,50.366108 103.94107,50.58279 103.89352,50.980007 L103.89352,50.980007" /><path fill="none" stroke="#B137AF" stroke-width="0.06mm" d="M106.21229,50.941364 C106.54674,51.579735 106.49745,51.54042 106.87818,51.92827 L106.87818,51.92827" /><path fill="none" stroke="#B137AF" stroke-width="0.06mm" d="M106.30035,51.142593 C106.37642,51.236122 106.46631,51.319946 106.52857,51.423187 C106.7899,51.85647 107.00452,52.316948 107.26886,52.748398 C107.37669,52.924385 107.52503,53.07241 107.642845,53.241875 C107.903915,53.61739 108.15099,54.002438 108.405075,54.38272 L108.405075,54.38272" /><path fill="none" stroke="#B137AF" stroke-width="0.06mm" d="M104.02024,54.83753 C104.101204,54.886486 104.18587,54.929794 104.263145,54.984398 C104.30603,55.014706 104.3433,55.052628 104.37904,55.0911 C104.907455,55.659946 105.41442,56.24893 105.95525,56.805992 C106.05517,56.9089 106.18334,56.97998 106.29738,57.06698 L106.29738,57.06698" /><path fill="none" stroke="#B137AF" stroke-width="0.06mm" d="M107.60539,55.797676 C107.602234,55.73215 107.59527,55.6667 107.5959,55.601097 C107.59753,55.432392 107.80536,55.293236 107.93236,55.228004 C108.12112,55.131065 108.26374,55.162148 108.35243,55.366776 C108.42919,55.54387 108.37075,55.747734 108.318596,55.921547 C108.29548,55.99859 108.238884,56.07304 108.2551,56.158066 C108.3042,56.41555 108.61763,56.505424 108.84247,56.442093 C109.000595,56.397552 109.13686,56.327118 109.27239,56.233047 C109.43773,56.118286 109.512276,56.005875 109.64769,55.848213 L109.64769,55.848213" /><path fill="none" stroke="#B137AF" stroke-width="0.06mm" d="M108.64884,57.23047 C108.58712,57.269066 108.522736,57.303703 108.46367,57.346252 C108.27543,57.481842 108.19831,57.778625 108.30597,57.98475 C108.44589,58.25263 108.74073,58.30606 108.96978,58.11769 C109.06095,58.042717 109.09573,57.946716 109.11872,57.830612 C109.16043,57.61999 109.172554,57.437237 109.02588,57.270584 C108.989525,57.22928 108.94287,57.19347 108.892426,57.17101 C108.7598,57.11196 108.61629,57.15441 108.479385,57.17102 L108.479385,57.17102" /></g>
<g>
<line fill="none" stroke="#00aeef" stroke-width="0.05mm" stroke-dasharray="0.4,0.2" x1="21.00" y1="35.00" x2="24.57" y2="34.20" />
<line fill="none" stroke="#00aeef" stroke-width="0.05mm" stroke-dasharray="0.4,0.2" x1="21.00" y1="35.00" x2="24.57" y2="34.20" />
<line fill="none" stroke="#00aeef" stroke-width="0.05mm" stroke-dasharray="0.4,0.2" x1="21.00" y1="35.00" x2="24.45" y2="34.21" />
<line fill="none" stroke="#00aeef" stroke-width="0.05mm" stroke-dasharray="0.4,0.2" x1="21.00" y1="35.00" x2="24.39" y2="34.21" />
<line fill="none" stroke="#00aeef" stroke-width="0.05mm" stroke-dasharray="0.4,0.2" x1="21.00" y1="35.00" x2="22.19" y2="34.95" />
<line fill="none" stroke="#5674b9" stroke-width="0.05mm" stroke-dasharray="0.4,0.2" x1="21.00" y1="35.00" x2="19.43" y2="33.94" />
<line fill="none" stroke="#00aeef" stroke-width="0.05mm" stroke-dasharray="0.4,0.2" x1="21.00" y1="35.00" x2="21.20" y2="33.01" />
<line fill="none" stroke="#00aeef" stroke-width="0.05mm" stroke-dasharray="0.4,0.2" x1="21.00" y1="35.00" x2="21.24" y2="38.37" />
<line fill="none" stroke="#00aeef" stroke-width="0.05mm" stroke-dasharray="0.4,0.2" x1="21.00" y1="35.00" x2="20.02" y2="32.87" />
<line fill="none" stroke="#00aeef" stroke-width="0.05mm" stroke-dasharray="0.4,0.2" x1="21.00" y1="35.00" x2="21.53" y2="38.31" />
<line fill="none" stroke="#00aeef" stroke-width="0.05mm" stroke-dasharray="0.4,0.2" x1="21.00" y1="35.00" x2="24.42" y2="34.21" />
<line fill="none" stroke="#00aeef" stroke-width="0.05mm" stroke-dasharray="0.4,0.2" x1="21.00" y1="35.00" x2="24.50" y2="34.19" />
<line fill="none" stroke="#111111" stroke-width="0.05mm" x1="21.00" y1="35.00" x2="24.41" y2="34.21" />
<line fill="none" stroke="#5674b9" stroke-width="0.05mm" stroke-dasharray="0.4,0.2" x1="24.41" y1="34.21" x2="23.33" y2="34.19" />
<line fill="none" stroke="#5674b9" stroke-width="0.05mm" stroke-dasharray="0.4,0.2" x1="24.41" y1="34.21" x2="23.73" y2="37.92" />
<line fill="none" stroke="#5674b9" stroke-width="0.05mm" stroke-dasharray="0.4,0.2" x1="24.41" y1="34.21" x2="24.18" y2="32.52" />
<line fill="none" stroke="#5674b9" stroke-width="0.05mm" stroke-dasharray="0.4,0.2" x1="24.41" y1="34.21" x2="23.27" y2="38.45" />
<line fill="none" stroke="#111111" stroke-width="0.05mm" x1="24.41" y1="34.21" x2="32.13" y2="33.72" />
<line fill="none" stroke="#00aeef" stroke-width="0.05mm" stroke-dasharray="0.4,0.2" x1="32.13" y1="33.72" x2="34.90" y2="40.24" />
<line fill="none" stroke="#00aeef" stroke-width="0.05mm" stroke-dasharray="0.4,0.2" x1="32.13" y1="33.72" x2="34.95" y2="40.27" />
<line fill="none" stroke="#5674b9" stroke-width="0.05mm" stroke-dasharray="0.4,0.2" x1="32.13" y1="33.72" x2="30.55" y2="33.75" />
<line fill="none" stroke="#5674b9" stroke-width="0.05mm" stroke-dasharray="0.4,0.2" x1="32.13" y1="33.72" x2="31.16" y2="36.62" />
<line fill="none" stroke="#5674b9" stroke-width="0.05mm" stroke-dasharray="0.4,0.2" x1="32.13" y1="33.72" x2="31.54" y2="32.00" />
<line fill="none" stroke="#00aeef" stroke-width="0.05mm" stroke-dasharray="0.4,0.2" x1="32.13" y1="33.72" x2="29.29" y2="35.27" />
<line fill="none" stroke="#00aeef" stroke-width="0.05mm" stroke-dasharray="0.4,0.2" x1="32.13" y1="33.72" x2="30.00" y2="35.36" />
<line fill="none" stroke="#00aeef" stroke-width="0.05mm" stroke-dasharray="0.4,0.2" x1="32.13" y1="33.72" x2="29.42" y2="35.33" />
<line fill="none" stroke="#00aeef" stroke-width="0.05mm" stroke-dasharray="0.4,0.2" x1="32.13" y1="33.72" x2="30.04" y2="35.21" />
<line fill="none" stroke="#00aeef" stroke-width="0.05mm" stroke-dasharray="0.4,0.2" x1="32.13" y1="33.72" x2="29.69" y2="43.22" />
<line fill="none" stroke="#111111" stroke-width="0.05mm" x1="32.13" y1="33.72" x2="43.02" y2="27.72" />
<line fill="none" stroke="#00aeef" stroke-width="0.05mm" stroke-dasharray="0.4,0.2" x1="43.02" y1="27.72" x2="40.90" y2="27.93" />
<line fill="none" stroke="#5674b9" stroke-width="0.05mm" stroke-dasharray="0.4,0.2" x1="43.02" y1="27.72" x2="40.75" y2="28.05" />
<line fill="none" stroke="#00aeef" stroke-width="0.05mm" stroke-dasharray="0.4,0.2" x1="43.02" y1="27.72" x2="42.01" y2="30.72" />
<line fill="none" stroke="#00aeef" stroke-width="0.05mm" stroke-dasharray="0.4,0.2" x1="43.02" y1="27.72" x2="41.45" y2="25.89" />
<line fill="none" stroke="#00aeef" stroke-width="0.05mm" stroke-dasharray="0.4,0.2" x1="43.02" y1="27.72" x2="39.94" y2="28.97" />
<line fill="none" stroke="#5674b9" stroke-width="0.05mm" stroke-dasharray="0.4,0.2" x1="43.02" y1="27.72" x2="39.79" y2="29.16" />
<line fill="none" stroke="#111111" stroke-width="0.05mm" x1="43.02" y1="27.72" x2="50.71" y2="26.76" />
<line fill="none" stroke="#00aeef" stroke-width="0.05mm" stroke-dasharray="0.4,0.2" x1="50.71" y1="26.76" x2="50.43" y2="26.79" />
<line fill="none" stroke="#00aeef" stroke-width="0.05mm" stroke-dasharray="0.4,0.2" x1="50.71" y1="26.76" x2="50.00" y2="29.37" />
<line fill="none" stroke="#00aeef" stroke-width="0.05mm" stroke-dasharray="0.4,0.2" x1="50.71" y1="26.76" x2="50.66" y2="24.73" />
<line fill="none" stroke="#111111" stroke-width="0.05mm" x1="50.71" y1="26.76" x2="67.17" y2="22.63" />
<line fill="none" stroke="#5674b9" stroke-width="0.05mm" stroke-dasharray="0.4,0.2" x1="67.17" y1="22.63" x2="67.23" y2="22.89" />
<line fill="none" stroke="#5674b9" stroke-width="0.05mm" stroke-dasharray="0.4,0.2" x1="67.17" y1="22.63" x2="67.58" y2="19.37" />
<line fill="none" stroke="#5674b9" stroke-width="0.05mm" stroke-dasharray="0.4,0.2" x1="67.17" y1="22.63" x2="67.18" y2="24.46" />
<line fill="none" stroke="#5674b9" stroke-width="0.05mm" stroke-dasharray="0.4,0.2" x1="67.17" y1="22.63" x2="68.20" y2="23.13" />
<line fill="none" stroke="#5674b9" stroke-width="0.05mm" stroke-dasharray="0.4,0.2" x1="67.17" y1="22.63" x2="69.52" y2="23.41" />
<line fill="none" stroke="#5674b9" stroke-width="0.05mm" stroke-dasharray="0.4,0.2" x1="67.17" y1="22.63" x2="70.29" y2="23.40" />
<line fill="none" stroke="#5674b9" stroke-width="0.05mm" stroke-dasharray="0.4,0.2" x1="67.17" y1="22.63" x2="72.15" y2="23.77" />
<line fill="none" stroke="#5674b9" stroke-width="0.05mm" stroke-dasharray="0.4,0.2" x1="67.17" y1="22.63" x2="69.70" y2="23.09" />
<line fill="none" stroke="#00aeef" stroke-width="0.05mm" stroke-dasharray="0.4,0.2" x1="67.17" y1="22.63" x2="70.16" y2="23.52" />
<line fill="none" stroke="#00aeef" stroke-width="0.05mm" stroke-dasharray="0.4,0.2" x1="67.17" y1="22.63" x2="67.90" y2="22.98" />
<line fill="none" stroke="#00aeef" stroke-width="0.05mm" stroke-dasharray="0.4,0.2" x1="67.17" y1="22.63" x2="68.60" y2="28.91" />
<line fill="none" stroke="#00aeef" stroke-width="0.05mm" stroke-dasharray="0.4,0.2" x1="67.17" y1="22.63" x2="72.47" y2="27.37" />
<line fill="none" stroke="#5674b9" stroke-width="0.05mm" stroke-dasharray="0.4,0.2" x1="67.17" y1="22.63" x2="72.54" y2="27.18" />
<line fill="none" stroke="#00aeef" stroke-width="0.05mm" stroke-dasharray="0.4,0.2" x1="67.17" y1="22.63" x2="72.74" y2="26.80" />
<line fill="none" stroke="#00aeef" stroke-width="0.05mm" stroke-dasharray="0.4,0.2" x1="67.17" y1="22.63" x2="72.44" y2="26.68" />
<line fill="none" stroke="#111111" stroke-width="0.05mm" x1="67.17" y1="22.63" x2="72.58" y2="26.87" />
<line fill="none" stroke="#111111" stroke-width="0.05mm" x1="32.13" y1="33.72" x2="38.06" y2="35.27" />
<line fill="none" stroke="#5674b9" stroke-width="0.05mm" stroke-dasharray="0.4,0.2" x1="38.06" y1="35.27" x2="37.73" y2="35.34" />
<line fill="none" stroke="#5674b9" stroke-width="0.05mm" stroke-dasharray="0.4,0.2" x1="38.06" y1="35.27" x2="37.77" y2="38.27" />
<line fill="none" stroke="#5674b9" stroke-width="0.05mm" stroke-dasharray="0.4,0.2" x1="38.06" y1="35.27" x2="39.04" y2="30.94" />
<line fill="none" stroke="#111111" stroke-width="0.05mm" x1="38.06" y1="35.27" x2="47.10" y2="36.20" />
<line fill="none" stroke="#00aeef" stroke-width="0.05mm" stroke-dasharray="0.4,0.2" x1="47.10" y1="36.20" x2="45.93" y2="36.32" />
<line fill="none" stroke="#00aeef" stroke-width="0.05mm" stroke-dasharray="0.4,0.2" x1="47.10" y1="36.20" x2="46.37" y2="39.52" />
<line fill="none" stroke="#00aeef" stroke-width="0.05mm" stroke-dasharray="0.4,0.2" x1="47.10" y1="36.20" x2="46.54" y2="33.89" />
<line fill="none" stroke="#111111" stroke-width="0.05mm" x1="47.10" y1="36.20" x2="57.60" y2="39.31" />
<line fill="none" stroke="#5674b9" stroke-width="0.05mm" stroke-dasharray="0.4,0.2" x1="57.60" y1="39.31" x2="56.97" y2="39.31" />
<line fill="none" stroke="#5674b9" stroke-width="0.05mm" stroke-dasharray="0.4,0.2" x1="57.60" y1="39.31" x2="57.13" y2="41.76" />
<line fill="none" stroke="#5674b9" stroke-width="0.05mm" stroke-dasharray="0.4,0.2" x1="57.60" y1="39.31" x2="58.11" y2="35.91" />
<line fill="none" stroke="#111111" stroke-width="0.05mm" x1="57.60" y1="39.31" x2="63.01" y2="41.27" />
<line fill="none" stroke="#00aeef" stroke-width="0.05mm" stroke-dasharray="0.4,0.2" x1="63.01" y1="41.27" x2="62.24" y2="41.17" />
<line fill="none" stroke="#00aeef" stroke-width="0.05mm" stroke-dasharray="0.4,0.2" x1="63.01" y1="41.27" x2="62.38" y2="43.87" />
<line fill="none" stroke="#00aeef" stroke-width="0.05mm" stroke-dasharray="0.4,0.2" x1="63.01" y1="41.27" x2="62.98" y2="38.73" />
<line fill="none" stroke="#111111" stroke-width="0.05mm" x1="63.01" y1="41.27" x2="70.89" y2="43.52" />
<line fill="none" stroke="#5674b9" stroke-width="0.05mm" stroke-dasharray="0.4,0.2" x1="70.89" y1="43.52" x2="69.66" y2="43.48" />
<line fill="none" stroke="#5674b9" stroke-width="0.05mm" stroke-dasharray="0.4,0.2" x1="70.89" y1="43.52" x2="69.95" y2="45.78" />
<line fill="none" stroke="#5674b9" stroke-width="0.05mm" stroke-dasharray="0.4,0.2" x1="70.89" y1="43.52" x2="71.10" y2="41.70" />
<line fill="none" stroke="#5674b9" stroke-width="0.05mm" stroke-dasharray="0.4,0.2" x1="70.89" y1="43.52" x2="69.80" y2="43.26" />
<line fill="none" stroke="#5674b9" stroke-width="0.05mm" stroke-dasharray="0.4,0.2" x1="70.89" y1="43.52" x2="70.83" y2="45.03" />
<line fill="none" stroke="#5674b9" stroke-width="0.05mm" stroke-dasharray="0.4,0.2" x1="70.89" y1="43.52" x2="72.46" y2="46.04" />
<line fill="none" stroke="#5674b9" stroke-width="0.05mm" stroke-dasharray="0.4,0.2" opacity="0.65" x1="70.89" y1="43.52" x2="70.85" y2="45.06" />
<line fill="none" stroke="#5674b9" stroke-width="0.05mm" stroke-dasharray="0.4,0.2" x1="70.89" y1="43.52" x2="72.46" y2="46.38" />
<line fill="none" stroke="#111111" stroke-width="0.05mm" x1="70.89" y1="43.52" x2="80.26" y2="46.88" />
<line fill="none" stroke="#00aeef" stroke-width="0.05mm" stroke-dasharray="0.4,0.2" x1="80.26" y1="46.88" x2="79.28" y2="46.94" />
<line fill="none" stroke="#00aeef" stroke-width="0.05mm" stroke-dasharray="0.4,0.2" x1="80.26" y1="46.88" x2="79.88" y2="48.95" />
<line fill="none" stroke="#00aeef" stroke-width="0.05mm" stroke-dasharray="0.4,0.2" x1="80.26" y1="46.88" x2="80.29" y2="45.57" />
<line fill="none" stroke="#00aeef" stroke-width="0.05mm" stroke-dasharray="0.4,0.2" x1="80.26" y1="46.88" x2="80.01" y2="46.95" />
<line fill="none" stroke="#111111" stroke-width="0.05mm" x1="80.26" y1="46.88" x2="82.76" y2="47.15" />
<line fill="none" stroke="#5674b9" stroke-width="0.05mm" stroke-dasharray="0.4,0.2" x1="82.76" y1="47.15" x2="80.62" y2="47.18" />
<line fill="none" stroke="#5674b9" stroke-width="0.05mm" stroke-dasharray="0.4,0.2" x1="82.76" y1="47.15" x2="82.26" y2="49.49" />
<line fill="none" stroke="#5674b9" stroke-width="0.05mm" stroke-dasharray="0.4,0.2" x1="82.76" y1="47.15" x2="82.09" y2="45.58" />
<line fill="none" stroke="#111111" stroke-width="0.05mm" x1="82.76" y1="47.15" x2="87.97" y2="49.35" />
<line fill="none" stroke="#00aeef" stroke-width="0.05mm" stroke-dasharray="0.4,0.2" x1="87.97" y1="49.35" x2="86.75" y2="49.28" />
<line fill="none" stroke="#00aeef" stroke-width="0.05mm" stroke-dasharray="0.4,0.2" x1="87.97" y1="49.35" x2="87.37" y2="51.56" />
<line fill="none" stroke="#00aeef" stroke-width="0.05mm" stroke-dasharray="0.4,0.2" x1="87.97" y1="49.35" x2="87.63" y2="47.92" />
<line fill="none" stroke="#111111" stroke-width="0.05mm" x1="87.97" y1="49.35" x2="92.00" y2="50.03" />
<line fill="none" stroke="#5674b9" stroke-width="0.05mm" stroke-dasharray="0.4,0.2" x1="92.00" y1="50.03" x2="90.03" y2="50.10" />
<line fill="none" stroke="#5674b9" stroke-width="0.05mm" stroke-dasharray="0.4,0.2" x1="92.00" y1="50.03" x2="91.18" y2="52.40" />
<line fill="none" stroke="#5674b9" stroke-width="0.05mm" stroke-dasharray="0.4,0.2" x1="92.00" y1="50.03" x2="90.82" y2="48.93" />
<line fill="none" stroke="#5674b9" stroke-width="0.05mm" stroke-dasharray="0.4,0.2" x1="92.00" y1="50.03" x2="91.18" y2="51.24" />
<line fill="none" stroke="#5674b9" stroke-width="0.05mm" stroke-dasharray="0.4,0.2" opacity="0.15" x1="92.00" y1="50.03" x2="92.01" y2="51.70" />
<line fill="none" stroke="#111111" stroke-width="0.05mm" x1="92.00" y1="50.03" x2="95.69" y2="51.22" />
<line fill="none" stroke="#00aeef" stroke-width="0.05mm" stroke-dasharray="0.4,0.2" x1="95.69" y1="51.22" x2="93.79" y2="50.97" />
<line fill="none" stroke="#00aeef" stroke-width="0.05mm" stroke-dasharray="0.4,0.2" x1="95.69" y1="51.22" x2="93.25" y2="55.92" />
<line fill="none" stroke="#00aeef" stroke-width="0.05mm" stroke-dasharray="0.4,0.2" x1="95.69" y1="51.22" x2="94.97" y2="53.75" />
<line fill="none" stroke="#00aeef" stroke-width="0.05mm" stroke-dasharray="0.4,0.2" x1="95.69" y1="51.22" x2="95.24" y2="49.96" />
<line fill="none" stroke="#111111" stroke-width="0.05mm" x1="95.69" y1="51.22" x2="102.82" y2="53.16" />
<line fill="none" stroke="#00aeef" stroke-width="0.05mm" stroke-dasharray="0.4,0.2" x1="102.82" y1="53.16" x2="100.43" y2="53.51" />
<line fill="none" stroke="#00aeef" stroke-width="0.05mm" stroke-dasharray="0.4,0.2" x1="102.82" y1="53.16" x2="99.00" y2="53.51" />
<line fill="none" stroke="#00aeef" stroke-width="0.05mm" stroke-dasharray="0.4,0.2" x1="102.82" y1="53.16" x2="100.20" y2="53.57" />
<line fill="none" stroke="#00aeef" stroke-width="0.05mm" stroke-dasharray="0.4,0.2" x1="102.82" y1="53.16" x2="101.10" y2="53.79" />
<line fill="none" stroke="#00aeef" stroke-width="0.05mm" stroke-dasharray="0.4,0.2" x1="102.82" y1="53.16" x2="103.15" y2="53.57" />
<line fill="none" stroke="#00aeef" stroke-width="0.05mm" stroke-dasharray="0.4,0.2" x1="102.82" y1="53.16" x2="103.89" y2="53.18" />
<line fill="none" stroke="#00aeef" stroke-width="0.05mm" stroke-dasharray="0.4,0.2" x1="102.82" y1="53.16" x2="105.14" y2="47.71" />
<line fill="none" stroke="#00aeef" stroke-width="0.05mm" stroke-dasharray="0.4,0.2" x1="102.82" y1="53.16" x2="104.03" y2="45.57" />
<line fill="none" stroke="#5674b9" stroke-width="0.05mm" stroke-dasharray="0.4,0.2" x1="102.82" y1="53.16" x2="101.58" y2="55.87" />
<line fill="none" stroke="#5674b9" stroke-width="0.05mm" stroke-dasharray="0.4,0.2" x1="102.82" y1="53.16" x2="102.57" y2="55.64" />
<line fill="none" stroke="#00aeef" stroke-width="0.05mm" stroke-dasharray="0.4,0.2" x1="102.82" y1="53.16" x2="97.20" y2="67.31" />
<line fill="none" stroke="#5674b9" stroke-width="0.05mm" stroke-dasharray="0.4,0.2" x1="102.82" y1="53.16" x2="102.62" y2="53.59" />
<line fill="none" stroke="#5674b9" stroke-width="0.05mm" stroke-dasharray="0.4,0.2" x1="102.82" y1="53.16" x2="105.91" y2="56.66" />
<line fill="none" stroke="#5674b9" stroke-width="0.05mm" stroke-dasharray="0.4,0.2" x1="102.82" y1="53.16" x2="103.27" y2="53.66" />
</g>
<g>
<circle cx="21.00" cy="35.00" r="0.1" fill="#111111" />
<circle cx="24.41" cy="34.21" r="0.1" fill="#111111" />
<circle cx="32.13" cy="33.72" r="0.1" fill="#111111" />
<circle cx="43.02" cy="27.72" r="0.1" fill="#111111" />
<circle cx="50.71" cy="26.76" r="0.1" fill="#111111" />
<circle cx="67.17" cy="22.63" r="0.1" fill="#111111" />
<circle cx="72.58" cy="26.87" r="0.1" fill="#111111" />
<circle cx="38.06" cy="35.27" r="0.1" fill="#111111" />
<circle cx="47.10" cy="36.20" r="0.1" fill="#111111" />
<circle cx="57.60" cy="39.31" r="0.1" fill="#111111" />
<circle cx="63.01" cy="41.27" r="0.1" fill="#111111" />
<circle cx="70.89" cy="43.52" r="0.1" fill="#111111" />
<circle cx="80.26" cy="46.88" r="0.1" fill="#111111" />
<circle cx="82.76" cy="47.15" r="0.1" fill="#111111" />
<circle cx="87.97" cy="49.35" r="0.1" fill="#111111" />
<circle cx="92.00" cy="50.03" r="0.1" fill="#111111" />
<circle cx="95.69" cy="51.22" r="0.1" fill="#111111" />
<circle cx="102.82" cy="53.16" r="0.1" fill="#111111" />
</g>
<g>
<text x="21.20" y="35.00" font-size=".2mm" fill="#000000">0</text>
<text x="24.61" y="34.21" font-size=".2mm" fill="#000000">1</text>
<text x="32.33" y="33.72" font-size=".2mm" fill="#000000">2</text>
<text x="43.22" y="27.72" font-size=".2mm" fill="#000000">3</text>
<text x="50.91" y="26.76" font-size=".2mm" fill="#000000">4</text>
<text x="67.37" y="22.63" font-size=".2mm" fill="#000000">5</text>
<text x="72.78" y="26.87" font-size=".2mm" fill="#000000">6</text>
<text x="38.26" y="35.27" font-size=".2mm" fill="#000000">2.1</text>
<text x="47.30" y="36.20" font-size=".2mm" fill="#000000">2.2</text>
<text x="57.80" y="39.31" font-size=".2mm" fill="#000000">2.3</text>
<text x="63.21" y="41.27" font-size=".2mm" fill="#000000">2.4</text>
<text x="71.09" y="43.52" font-size=".2mm" fill="#000000">2.5</text>
<text x="80.46" y="46.88" font-size=".2mm" fill="#000000">2.6</text>
<text x="82.96" y="47.15" font-size=".2mm" fill="#000000">2.7</text>
<text x="88.17" y="49.35" font-size=".2mm" fill="#000000">2.8</text>
<text x="92.20" y="50.03" font-size=".2mm" fill="#000000">2.9</text>
<text x="95.89" y="51.22" font-size=".2mm" fill="#000000">2.10</text>
<text x="103.02" y="53.16" font-size=".2mm" fill="#000000">2.11</text>
</g>
<g>
</g>
</g>
</svg>