<?xml version="1.0" encoding="utf-8"?>
<!-- Generator: Adobe Illustrator 25.2.0, SVG Export Plug-In . SVG Version: 6.00 Build 0)  -->
<svg version="1.1" xmlns="http://www.w3.org/2000/svg" xmlns:xlink="http://www.w3.org/1999/xlink" x="0px" y="0px"
	 viewBox="0 0 595.3 841.9" style="enable-background:new 0 0 595.3 841.9;" xml:space="preserve">
<style type="text/css">
	.st0{fill:none;stroke:#000000;stroke-width:0.7087;stroke-linecap:round;stroke-linejoin:round;stroke-miterlimit:10;}
	.st1{fill:none;stroke:#FF0000;stroke-width:0.7087;stroke-linecap:round;stroke-linejoin:round;stroke-miterlimit:10;}
</style>
<g id="Sketch">
	<g id="POLYLINE">
		<polyline class="st0" points="345.2,402.3 345.2,404.3 349.1,407.2 353,407.2 357.9,412.1 		"/>
	</g>
	<g id="POLYLINE_1_">
		<polyline class="st0" points="350.1,405.2 354,407.2 357.9,413.1 		"/>
	</g>
	<g id="POLYLINE_2_">
		<polyline class="st0" points="353,386.7 355,388.6 356.9,388.6 362.8,392.5 		"/>
	</g>
	<g id="POLYLINE_3_">
		<polyline class="st0" points="333.4,402.3 343.2,402.3 349.1,404.3 351,406.2 353,406.2 355.9,409.2 		"/>
	</g>
	<g id="POLYLINE_4_">
		<polyline class="st0" points="327.6,382.8 329.5,383.7 331.5,382.8 333.4,383.7 335.4,382.8 343.2,384.7 351,385.7 353,387.6 
			356.9,388.6 358.9,389.6 		"/>
	</g>
	<g id="POLYLINE_5_">
		<polyline class="st0" points="298.2,376.9 296.3,376.9 295.3,373 295.3,370 293.3,361.2 		"/>
	</g>
	<g id="POLYLINE_6_">
		<polyline class="st0" points="270.9,405.2 272.8,406.2 277.7,399.4 278.7,390.6 282.6,378.8 282.6,363.2 281.6,361.2 		"/>
	</g>
	<g id="POLYLINE_7_">
		<polyline class="st0" points="299.2,401.3 293.3,400.4 290.4,403.3 283.6,418 		"/>
	</g>
	<g id="POLYLINE_8_">
		<polyline class="st0" points="297.3,401.3 299.2,403.3 303.1,402.3 307,403.3 310.9,403.3 312.9,404.3 314.9,403.3 318.8,404.3 
			322.7,403.3 332.5,403.3 334.4,402.3 337.4,403.3 339.3,402.3 341.3,403.3 		"/>
	</g>
	<g id="POLYLINE_9_">
		<polyline class="st0" points="296.3,375.9 298.2,377.9 302.1,377.9 306.1,378.8 308,380.8 311.9,381.8 315.8,382.8 319.7,383.7 
			323.7,382.8 331.5,383.7 333.4,383.7 		"/>
	</g>
	<g id="POLYLINE_10_">
		<polyline class="st0" points="573.5,546.6 572.1,553.9 575,545.8 577.9,545.1 578.7,546.6 575.7,551 572.8,552.4 574.3,552.4 
			577.2,557.6 578.7,558.3 		"/>
	</g>
	<g id="POLYLINE_11_">
		<polyline class="st0" points="561.8,554.6 563.3,555.4 564.7,554.6 566.9,555.4 568.4,553.9 569.9,554.6 		"/>
	</g>
	<g id="POLYLINE_12_">
		<polyline class="st0" points="564,548.8 563.3,547.3 565.5,547.3 567.7,549.5 		"/>
	</g>
	<g id="POLYLINE_13_">
		<polyline class="st0" points="565.5,545.8 563.3,548 563.3,550.2 562.5,553.2 565.5,545.1 566.9,543.6 571.3,544.4 		"/>
	</g>
	<g id="POLYLINE_14_">
		<polyline class="st0" points="555.2,543.6 556.7,542.9 559.6,543.6 561.1,545.8 561.1,549.5 558.1,551.7 554.5,553.2 		"/>
	</g>
	<g id="POLYLINE_15_">
		<polyline class="st0" points="553.7,542.9 554.5,545.1 554.5,543.6 553.7,546.6 552.3,553.2 		"/>
	</g>
	<g id="POINT">
		<line class="st0" x1="555.2" y1="542.9" x2="555.2" y2="542.9"/>
	</g>
	<g id="POLYLINE_16_">
		<polyline class="st0" points="543.5,545.1 543.5,542.9 542,549.5 542,551 543.5,548 543.5,543.6 544.2,542.2 544.9,545.8 
			546.4,550.2 549.3,552.4 550.1,549.5 550.8,544.4 550.8,542.2 		"/>
	</g>
	<g id="POLYLINE_17_">
		<polyline class="st0" points="533.2,548.8 533.2,547.3 540.5,547.3 		"/>
	</g>
	<g id="POLYLINE_18_">
		<polyline class="st0" points="536.1,543.6 533.9,547.3 533.2,550.2 531.7,551.7 534.6,546.6 534.6,541.4 537.6,540.7 539.8,544.4 
			539.8,551 539,552.4 		"/>
	</g>
	<g id="POLYLINE_19_">
		<polyline class="st0" points="523.6,553.2 525.1,552.4 527.3,553.9 528.8,552.4 		"/>
	</g>
	<g id="POLYLINE_20_">
		<line class="st0" x1="525.8" y1="547.3" x2="528.8" y2="548.8"/>
	</g>
	<g id="POLYLINE_21_">
		<polyline class="st0" points="522.9,547.3 522.9,545.8 523.6,547.3 522.9,552.4 525.1,542.9 528,540.7 531.7,542.2 		"/>
	</g>
	<g id="POLYLINE_22_">
		<polyline class="st0" points="512.6,543.6 512.6,542.9 513.4,546.6 514.8,548 517.8,545.8 519.2,542.2 519.2,544.4 517.8,548 
			517,553.9 518.5,553.9 		"/>
	</g>
	<g id="POLYLINE_23_">
		<polyline class="st0" points="513.4,542.9 512.6,540.7 512.6,545.8 510.4,554.6 		"/>
	</g>
	<g id="POLYLINE_24_">
		<polyline class="st0" points="562.5,526.8 567.7,518.7 566.9,521.6 564.7,526 		"/>
	</g>
	<g id="POLYLINE_25_">
		<polyline class="st0" points="562.5,526.8 564.7,523.1 566.2,522.4 		"/>
	</g>
	<g id="POLYLINE_26_">
		<polyline class="st0" points="563.3,526.8 563.3,529 560.3,537.8 		"/>
	</g>
	<g id="POLYLINE_27_">
		<polyline class="st0" points="561.8,520.2 560.3,520.9 559.6,523.1 560.3,526 563.3,527.5 567.7,523.8 		"/>
	</g>
	<g id="POLYLINE_28_">
		<polyline class="st0" points="557.4,521.6 555.2,524.6 553.7,532.6 553.7,534.1 555.2,533.4 		"/>
	</g>
	<g id="POLYLINE_29_">
		<polyline class="st0" points="548.6,528.2 552.3,527.5 553.7,528.2 555.2,527.5 		"/>
	</g>
	<g id="POLYLINE_30_">
		<polyline class="st0" points="550.1,519.4 547.1,530.4 547.1,531.9 		"/>
	</g>
	<g id="POLYLINE_31_">
		<polyline class="st0" points="542,521.6 541.2,520.2 538.3,520.9 536.8,522.4 536.1,526 535.4,529.7 536.1,532.6 539,532.6 
			540.5,533.4 543.5,531.9 544.9,529.7 		"/>
	</g>
	<g id="POLYLINE_32_">
		<polyline class="st0" points="530.2,521.6 529.5,528.2 528.8,531.2 528.8,532.6 		"/>
	</g>
	<g id="POLYLINE_33_">
		<polyline class="st0" points="517.8,521.6 519.2,521.6 520,520.2 518.5,520.2 516.3,523.1 515.6,528.2 516.3,531.2 518.5,533.4 
			521.4,532.6 522.9,533.4 526.6,529 		"/>
	</g>
	<g id="POINT_1_">
		<line class="st0" x1="517.8" y1="521.6" x2="517.8" y2="521.6"/>
	</g>
	<g id="POLYLINE_34_">
		<polyline class="st0" points="456.4,520.2 455.4,529 457.4,536.8 465.2,560.2 467.2,569 471.1,582.7 471.1,585.7 473,591.5 
			473,600.3 472.1,604.3 471.1,608.2 468.1,615 466.2,615 464.2,617 458.4,615 455.4,612.1 448.6,608.2 445.7,605.2 443.7,605.2 
			440.8,601.3 436.9,600.3 425.1,593.5 422.2,590.6 420.2,590.6 415.3,584.7 413.4,585.7 409.5,582.7 407.5,582.7 402.6,577.8 
			400.7,577.8 398.7,575.9 392.8,575.9 390.9,574.9 388.9,575.9 387,574.9 385,576.9 		"/>
	</g>
	<g id="POLYLINE_35_">
		<polyline class="st0" points="451.5,523.1 449.6,525 449.6,531.9 452.5,537.8 454.5,537.8 454.5,539.7 456.4,541.7 458.4,552.4 
			459.3,561.2 460.3,565.1 460.3,569 463.3,583.7 463.3,587.6 464.2,591.5 463.3,600.3 462.3,602.3 454.5,600.3 446.6,593.5 
			446.6,591.5 442.7,588.6 440.8,588.6 440.8,586.6 438.8,584.7 434.9,583.7 431,580.8 429,581.8 423.2,577.8 419.3,576.9 
			414.4,572 410.5,571 402.6,568.1 400.7,569 396.8,568.1 394.8,569 390.9,567.1 385,569 		"/>
	</g>
	<g id="POLYLINE_36_">
		<polyline class="st0" points="346.9,593.5 327.3,606.2 323.4,606.2 321.5,608.2 319.5,608.2 317.5,610.1 315.6,609.1 303.9,617.9 
			300.9,618.9 299,622.8 289.2,629.7 279.4,636.5 273.5,641.4 262.8,651.2 256.9,656.1 254,656.1 245.2,664.9 233.4,675.6 
			231.5,675.6 221.7,683.5 217.8,684.4 208,692.3 		"/>
	</g>
	<g id="POLYLINE_37_">
		<polyline class="st0" points="204.1,682.5 202.2,682.5 211.9,673.7 217.8,669.8 222.7,665.9 226.6,664.9 229.5,662 235.4,656.1 
			237.4,656.1 244.2,649.2 254,641.4 255.9,641.4 258.9,638.5 268.7,632.6 275.5,625.8 277.5,625.8 286.3,618.9 288.2,618.9 
			293.1,613.1 295.1,613.1 304.8,606.2 314.6,600.3 318.5,599.4 321.5,596.4 325.4,595.5 335.2,590.6 343,585.7 		"/>
	</g>
	<g id="POLYLINE_38_">
		<polyline class="st0" points="203.1,712.8 201.2,712.8 193.4,716.7 		"/>
	</g>
	<g id="POLYLINE_39_">
		<line class="st0" x1="204.1" y1="703" x2="195.3" y2="705"/>
	</g>
	<g id="POLYLINE_40_">
		<line class="st0" x1="202.2" y1="694.2" x2="193.4" y2="697.2"/>
	</g>
	<g id="POLYLINE_41_">
		<polyline class="st0" points="199.2,686.4 194.3,687.4 192.4,690.3 		"/>
	</g>
	<g id="POLYLINE_42_">
		<polyline class="st0" points="192.4,679.6 190.4,679.6 184.5,682.5 		"/>
	</g>
	<g id="POLYLINE_43_">
		<polyline class="st0" points="205.1,715.7 206.1,717.7 206.1,712.8 207,707.9 207,696.2 202.2,683.5 195.3,676.6 190.4,672.7 
			188.5,672.7 		"/>
	</g>
	<g id="POLYLINE_44_">
		<polyline class="st0" points="192.4,720.6 193.4,724.5 194.3,728.4 193.4,731.4 		"/>
	</g>
	<g id="POLYLINE_45_">
		<line class="st0" x1="185.5" y1="719.6" x2="186.5" y2="730.4"/>
	</g>
	<g id="POLYLINE_46_">
		<polyline class="st0" points="175.7,721.6 174.8,729.4 174.8,731.4 		"/>
	</g>
	<g id="POLYLINE_47_">
		<polyline class="st0" points="165,717.7 166.9,719.6 166.9,727.5 166,732.4 		"/>
	</g>
	<g id="POLYLINE_48_">
		<polyline class="st0" points="161.1,726.5 162.1,724.5 165,727.5 168.9,728.4 176.7,727.5 180.6,729.4 186.5,727.5 190.4,728.4 
			194.3,727.5 198.2,727.5 200.2,725.5 202.2,726.5 204.1,724.5 204.1,726.5 		"/>
	</g>
	<g id="POLYLINE_49_">
		<polyline class="st0" points="187.5,723.6 186.5,728.4 186.5,732.4 191.4,738.2 194.3,750 199.2,761.7 205.1,771.5 214.9,790.1 
			220.7,797.9 221.7,801.8 226.6,812.6 227.6,816.5 229.5,820.4 		"/>
	</g>
	<g id="POLYLINE_50_">
		<polyline class="st0" points="219.8,819.4 213.9,811.6 212.9,807.7 209,797.9 207,795.9 207,793 197.3,775.4 196.3,771.5 
			192.4,765.6 191.4,760.7 189.4,754.9 187.5,746.1 182.6,732.4 182.6,730.4 180.6,728.4 180.6,726.5 178.7,725.5 		"/>
	</g>
	<g id="POLYLINE_51_">
		<polyline class="st0" points="222.7,833.1 212.9,831.1 209,830.2 207,828.2 199.2,826.2 195.3,823.3 191.4,823.3 177.7,817.4 
			173.8,817.4 		"/>
	</g>
	<g id="POLYLINE_52_">
		<polyline class="st0" points="224.6,822.3 224.6,820.4 220.7,819.4 211,814.5 209,814.5 207,811.6 203.1,810.6 191.4,806.7 
			187.5,805.7 181.6,803.8 179.7,803.8 		"/>
	</g>
	<g id="POLYLINE_53_">
		<polyline class="st0" points="166,731.4 166.9,735.3 171.8,746.1 175.7,751.9 184.5,768.5 190.4,778.3 194.3,786.1 192.4,788.1 
			188.5,789.1 184.5,790.1 180.6,791 176.7,792 174.8,791 168.9,793 161.1,794 157.2,792 155.2,793 153.3,792 151.3,794 147.4,793 
			145.4,794.9 143.5,794 141.5,794.9 139.6,794 129.8,796.9 126.9,799.8 121,803.8 122,807.7 125.9,811.6 139.6,813.5 147.4,817.4 
			153.3,817.4 155.2,819.4 157.2,818.4 163,820.4 175.7,832.1 183.6,837 185.5,836 188.5,839 192.4,839.9 200.2,840.9 204.1,841.9 
			208,839.9 210,840.9 213.9,839.9 215.8,840.9 219.8,839.9 223.7,839.9 233.4,837 235.4,837 		"/>
	</g>
	<g id="POLYLINE_54_">
		<polyline class="st0" points="206.1,745.1 209,751.9 219.8,772.5 225.6,781.3 230.5,786.1 230.5,788.1 236.4,797.9 239.3,803.8 
			240.3,807.7 241.3,811.6 241.3,824.3 238.3,831.1 232.5,836 232.5,838 		"/>
	</g>
	<g id="POLYLINE_55_">
		<polyline class="st0" points="305.8,629.7 301.9,633.6 288.2,642.4 286.3,644.3 284.3,644.3 277.5,651.2 269.6,658 267.7,658 
			257.9,666.8 247.1,675.6 234.4,687.4 232.5,687.4 217.8,706.9 213.9,708.9 205.1,719.6 204.1,724.5 203.1,728.4 203.1,732.4 
			204.1,736.3 205.1,745.1 207,747 208,750.9 		"/>
	</g>
	<g id="POLYLINE_56_">
		<polyline class="st0" points="263.8,617.9 263.8,619.9 257.9,621.9 255.9,621.9 234.4,639.5 228.6,645.3 221.7,651.2 220.7,654.1 
			209,660 207,660 199.2,666.8 191.4,671.7 188.5,674.7 172.8,680.5 170.9,679.6 168.9,680.5 166.9,679.6 165,680.5 163,679.6 
			161.1,680.5 159.1,679.6 157.2,681.5 155.2,681.5 148.4,688.4 144.5,695.2 143.5,703 145.4,709.9 148.4,712.8 153.3,719.6 
			158.1,724.5 160.1,724.5 167.9,734.3 		"/>
	</g>
	<g id="POLYLINE_57_">
		<polyline class="st0" points="368.4,572 368.4,570 372.3,567.1 374.3,567.1 376.2,564.2 		"/>
	</g>
	<g id="POLYLINE_58_">
		<polyline class="st0" points="374.3,577.8 376.2,578.8 380.1,577.8 382.1,577.8 		"/>
	</g>
	<g id="POLYLINE_59_">
		<polyline class="st0" points="374.3,577.8 376.2,578.8 380.1,577.8 		"/>
	</g>
	<g id="POLYLINE_60_">
		<line class="st0" x1="370.4" y1="585.7" x2="378.2" y2="590.6"/>
	</g>
	<g id="POLYLINE_61_">
		<polyline class="st0" points="371.3,584.7 371.3,586.6 375.2,587.6 		"/>
	</g>
	<g id="POLYLINE_62_">
		<polyline class="st0" points="365.5,589.6 363.5,589.6 363.5,600.3 365.5,598.4 		"/>
	</g>
	<g id="POLYLINE_63_">
		<line class="st0" x1="353.7" y1="594.5" x2="356.7" y2="587.6"/>
	</g>
	<g id="POLYLINE_64_">
		<line class="st0" x1="347.9" y1="578.8" x2="353.7" y2="580.8"/>
	</g>
	<g id="POLYLINE_65_">
		<polyline class="st0" points="352.8,565.1 358.6,570 360.6,571 		"/>
	</g>
	<g id="POLYLINE_66_">
		<polyline class="st0" points="362.5,560.2 358.6,563.2 354.7,564.2 349.8,569 348.8,573 348.8,583.7 349.8,587.6 350.8,591.5 
			352.8,596.4 358.6,598.4 366.4,599.4 370.4,598.4 372.3,598.4 377.2,593.5 380.1,590.6 385,576.9 385,573 384,569 381.1,564.2 
			370.4,561.2 364.5,561.2 360.6,562.2 358.6,564.2 		"/>
	</g>
	<g id="POLYLINE_67_">
		<line class="st0" x1="364.5" y1="559.3" x2="363.5" y2="561.2"/>
	</g>
	<g id="POLYLINE_68_">
		<polyline class="st0" points="369.4,610.1 369.4,612.1 365.5,612.1 363.5,611.1 361.6,612.1 357.6,611.1 349.8,611.1 340,615 
			338.1,614 336.1,616 332.2,617 320.5,624.8 317.5,627.7 308.7,630.7 305.8,634.6 		"/>
	</g>
	<g id="POLYLINE_69_">
		<polyline class="st0" points="394.8,540.7 395.8,542.6 391.9,544.6 384,542.6 376.2,542.6 370.4,544.6 366.4,544.6 360.6,547.5 
			358.6,547.5 356.7,549.5 352.8,550.5 350.8,552.4 348.8,552.4 342,559.3 338.1,561.2 336.1,564.2 332.2,565.1 326.3,567.1 
			316.6,574.9 314.6,574.9 300.9,588.6 294.1,595.5 277.5,612.1 267.7,619.9 261.8,622.8 260.8,625.8 		"/>
	</g>
	<g id="POLYLINE_70_">
		<polyline class="st0" points="412.4,591.5 410.5,593.5 407.5,590.6 405.6,589.6 403.6,590.6 401.6,589.6 395.8,593.5 393.8,593.5 
			388,597.4 387,600.3 385,600.3 383.1,603.3 381.1,603.3 372.3,612.1 366.4,612.1 		"/>
	</g>
	<g id="POLYLINE_71_">
		<polyline class="st0" points="449.6,624.8 447.6,624.8 440.8,617.9 428.1,607.2 425.1,604.3 416.3,595.5 411.4,590.6 		"/>
	</g>
	<g id="POLYLINE_72_">
		<polyline class="st0" points="469.1,509.4 472.1,513.3 472.1,521.1 475,531.9 475,534.8 477.9,542.6 480.9,555.4 481.8,559.3 
			481.8,573.9 488.7,580.8 494.6,586.6 500.4,599.4 501.4,608.2 502.4,612.1 499.4,620.9 490.6,629.7 480.9,632.6 473,632.6 
			471.1,631.6 469.1,632.6 457.4,626.7 453.5,625.8 449.6,622.8 		"/>
	</g>
	<g id="POLYLINE_73_">
		<line class="st0" x1="436.9" y1="513.3" x2="439.8" y2="504.5"/>
	</g>
	<g id="POLYLINE_74_">
		<polyline class="st0" points="443.7,517.2 445.7,515.3 445.7,512.3 446.6,508.4 		"/>
	</g>
	<g id="POLYLINE_75_">
		<polyline class="st0" points="454.5,519.2 454.5,516.2 455.4,512.3 455.4,509.4 454.5,507.4 		"/>
	</g>
	<g id="POLYLINE_76_">
		<polyline class="st0" points="461.3,516.2 459.3,506.5 458.4,503.5 		"/>
	</g>
	<g id="POLYLINE_77_">
		<polyline class="st0" points="458.4,516.2 462.3,515.3 470.1,509.4 		"/>
	</g>
	<g id="POLYLINE_78_">
		<polyline class="st0" points="462.3,514.3 464.2,516.2 464.2,518.2 458.4,522.1 454.5,522.1 452.5,524.1 440.8,518.2 436.9,515.3 
			434.9,515.3 		"/>
	</g>
	<g id="POLYLINE_79_">
		<polyline class="st0" points="462.3,518.2 462.3,520.2 464.2,519.2 		"/>
	</g>
	<g id="POLYLINE_80_">
		<polyline class="st0" points="473,515.3 475,511.3 478.9,510.4 482.8,507.4 488.7,507.4 492.6,505.5 494.6,506.5 496.5,504.5 
			504.3,504.5 506.3,503.5 		"/>
	</g>
	<g id="POLYLINE_81_">
		<polyline class="st0" points="438.8,533.8 438.8,526 437.8,520.2 437.8,525 439.8,533.8 438.8,529.9 438.8,519.2 		"/>
	</g>
	<g id="POLYLINE_82_">
		<polyline class="st0" points="436.9,524.1 438.8,529.9 438.8,532.9 445.7,548.5 447.6,556.3 448.6,560.2 451.5,572 453.5,577.8 
			453.5,579.8 451.5,579.8 448.6,574.9 442.7,567.1 429,557.3 423.2,553.4 415.3,551.4 413.4,552.4 409.5,551.4 407.5,549.5 
			403.6,549.5 393.8,544.6 		"/>
	</g>
	<g id="POLYLINE_83_">
		<polyline class="st0" points="551.3,502.5 557.1,515.3 557.1,517.2 562,507.4 565,503.5 		"/>
	</g>
	<g id="POLYLINE_84_">
		<polyline class="st0" points="514.1,451.7 520,452.7 523.9,450.7 527.8,451.7 529.8,450.7 538.6,454.6 540.5,454.6 544.4,458.5 
			546.4,458.5 552.3,464.4 556.2,477.1 557.1,484.9 557.1,490.8 558.1,494.7 558.1,506.5 559.1,510.4 559.1,510.4 		"/>
	</g>
	<g id="POLYLINE_85_">
		<polyline class="st0" points="471.1,421.4 477,424.3 480.9,424.3 481.8,422.4 		"/>
	</g>
	<g id="POLYLINE_86_">
		<polyline class="st0" points="468.1,438 472.1,438 477.9,440 478.9,437 		"/>
	</g>
	<g id="POLYLINE_87_">
		<polyline class="st0" points="465.2,454.6 467.2,453.7 477.9,455.6 		"/>
	</g>
	<g id="POLYLINE_88_">
		<polyline class="st0" points="466.2,469.3 478.9,468.3 479.9,465.4 		"/>
	</g>
	<g id="POLYLINE_89_">
		<polyline class="st0" points="469.1,484 470.1,482 475,481 482.8,478.1 		"/>
	</g>
	<g id="POLYLINE_90_">
		<polyline class="st0" points="478.9,496.7 477,494.7 478.9,493.7 480.9,494.7 489.7,491.8 		"/>
	</g>
	<g id="POLYLINE_91_">
		<polyline class="st0" points="472.1,413.6 469.1,421.4 469.1,425.3 464.2,445.8 464.2,458.5 465.2,462.5 465.2,467.3 466.2,471.3 
			467.2,476.1 472.1,488.9 474,490.8 474,492.8 477.9,496.7 479.9,501.6 484.8,507.4 484.8,507.4 484.8,505.5 		"/>
	</g>
	<g id="POLYLINE_92_">
		<polyline class="st0" points="413.4,427.2 414.4,432.1 416.3,434.1 416.3,436 418.3,439 		"/>
	</g>
	<g id="POLYLINE_93_">
		<polyline class="st0" points="430,416.5 433.9,423.3 433.9,426.3 434.9,428.2 		"/>
	</g>
	<g id="POLYLINE_94_">
		<polyline class="st0" points="425.1,419.4 429,430.2 430,428.2 		"/>
	</g>
	<g id="POLYLINE_95_">
		<polyline class="st0" points="420.2,422.4 420.2,425.3 425.1,433.1 		"/>
	</g>
	<g id="POLYLINE_96_">
		<polyline class="st0" points="412.4,427.2 413.4,432.1 414.4,436 416.3,435.1 		"/>
	</g>
	<g id="POLYLINE_97_">
		<polyline class="st0" points="407.5,435.1 407.5,433.1 411.4,441.9 411.4,443.9 413.4,440 		"/>
	</g>
	<g id="POLYLINE_98_">
		<polyline class="st0" points="403.6,441.9 404.6,437 414.4,426.3 416.3,426.3 417.3,424.3 419.3,424.3 422.2,421.4 428.1,418.4 
			430,418.4 431,416.5 432.9,417.5 		"/>
	</g>
	<g id="POLYLINE_99_">
		<polyline class="st0" points="229.5,45.9 224.6,53.7 224.6,66.4 229.5,78.1 230.5,84 		"/>
	</g>
	<g id="POINT_2_">
		<line class="st0" x1="227.6" y1="50.7" x2="227.6" y2="50.7"/>
	</g>
	<g id="POLYLINE_100_">
		<line class="st0" x1="222.7" y1="94.7" x2="225.6" y2="98.7"/>
	</g>
	<g id="POLYLINE_101_">
		<line class="st0" x1="225.6" y1="87.9" x2="229.5" y2="89.9"/>
	</g>
	<g id="POLYLINE_102_">
		<line class="st0" x1="227.6" y1="80.1" x2="223.7" y2="84"/>
	</g>
	<g id="POLYLINE_103_">
		<line class="st0" x1="213.9" y1="96.7" x2="216.8" y2="92.8"/>
	</g>
	<g id="POLYLINE_104_">
		<polyline class="st0" points="208,86.9 210,87.9 213.9,86.9 		"/>
	</g>
	<g id="POLYLINE_105_">
		<line class="st0" x1="216.8" y1="76.2" x2="215.8" y2="83"/>
	</g>
	<g id="POLYLINE_106_">
		<polyline class="st0" points="217.8,74.2 213.9,75.2 211.9,75.2 208,79.1 208,89.9 211.9,95.7 213.9,95.7 217.8,98.7 221.7,98.7 
			227.6,96.7 231.5,90.8 231.5,84 228.6,78.1 222.7,75.2 218.8,76.2 		"/>
	</g>
	<g id="POLYLINE_107_">
		<polyline class="st0" points="238.3,23.4 233.4,33.1 232.5,37.1 224.6,59.5 		"/>
	</g>
	<g id="POLYLINE_108_">
		<polyline class="st0" points="236.4,15.5 237.4,13.6 233.4,17.5 234.4,15.5 		"/>
	</g>
	<g id="POLYLINE_109_">
		<polyline class="st0" points="233.4,11.6 238.3,17.5 238.3,14.6 236.4,13.6 235.4,15.5 		"/>
	</g>
	<g id="POLYLINE_110_">
		<polyline class="st0" points="229.5,7.7 236.4,13.6 233.4,17.5 		"/>
	</g>
	<g id="POLYLINE_111_">
		<polyline class="st0" points="231.5,8.7 234.4,12.6 234.4,14.6 231.5,19.4 228.6,23.4 231.5,18.5 236.4,12.6 236.4,14.6 
			236.4,14.6 233.4,18.5 235.4,17.5 235.4,15.5 229.5,22.4 		"/>
	</g>
	<g id="POLYLINE_112_">
		<line class="st0" x1="235.4" y1="13.6" x2="235.4" y2="11.6"/>
	</g>
	<g id="POLYLINE_113_">
		<polyline class="st0" points="230.5,7.7 234.4,9.7 233.4,13.6 228.6,22.4 222.7,32.2 223.7,28.3 228.6,16.5 228.6,12.6 230.5,6.7 
			236.4,12.6 233.4,15.5 225.6,28.3 225.6,25.3 231.5,19.4 233.4,14.6 235.4,12.6 227.6,22.4 227.6,22.4 231.5,16.5 233.4,8.7 
			227.6,23.4 226.6,27.3 231.5,16.5 232.5,8.7 226.6,23.4 226.6,20.4 229.5,12.6 229.5,8.7 226.6,19.4 224.6,25.3 228.6,16.5 
			229.5,12.6 227.6,14.6 226.6,18.5 224.6,25.3 227.6,16.5 229.5,14.6 229.5,12.6 231.5,9.7 230.5,5.8 228.6,8.7 227.6,12.6 
			226.6,14.6 228.6,12.6 229.5,8.7 228.6,17.5 225.6,23.4 224.6,28.3 223.7,30.2 		"/>
	</g>
	<g id="POLYLINE_114_">
		<polyline class="st0" points="224.6,4.8 234.4,-0.1 238.3,-0.1 243.2,5.8 243.2,14.6 240.3,20.4 239.3,24.3 235.4,30.2 		"/>
	</g>
	<g id="POLYLINE_115_">
		<polyline class="st0" points="168.9,30.2 177.7,21.4 185.5,16.5 187.5,17.5 189.4,16.5 199.2,22.4 203.1,23.4 212.9,19.4 
			213.9,17.5 215.8,17.5 217.8,14.6 219.8,14.6 226.6,4.8 		"/>
	</g>
	<g id="POLYLINE_116_">
		<line class="st0" x1="216.8" y1="59.5" x2="209" y2="66.4"/>
	</g>
	<g id="POLYLINE_117_">
		<line class="st0" x1="209" y1="51.7" x2="204.1" y2="58.6"/>
	</g>
	<g id="POLYLINE_118_">
		<line class="st0" x1="202.2" y1="46.8" x2="196.3" y2="54.7"/>
	</g>
	<g id="POLYLINE_119_">
		<line class="st0" x1="195.3" y1="41" x2="192.4" y2="45.9"/>
	</g>
	<g id="POLYLINE_120_">
		<polyline class="st0" points="184.5,39 183.6,42.9 181.6,44.9 182.6,46.8 		"/>
	</g>
	<g id="POLYLINE_121_">
		<line class="st0" x1="173.8" y1="37.1" x2="172.8" y2="42.9"/>
	</g>
	<g id="POLYLINE_122_">
		<polyline class="st0" points="161.1,40 162.1,38 172.8,36.1 174.8,37.1 176.7,36.1 180.6,37.1 182.6,36.1 186.5,37.1 190.4,38 
			194.3,39 202.2,44.9 204.1,44.9 208,48.8 210,48.8 216.8,56.6 219.8,61.5 219.8,63.5 		"/>
	</g>
	<g id="POLYLINE_123_">
		<polyline class="st0" points="210,120.2 210,115.3 214.9,102.6 217.8,98.7 		"/>
	</g>
	<g id="POLYLINE_124_">
		<polyline class="st0" points="140.5,41 144.5,41 146.4,40 150.3,41.9 154.2,41 160.1,41 167.9,36.1 170.9,31.2 173.8,25.3 		"/>
	</g>
	<g id="POLYLINE_125_">
		<polyline class="st0" points="118,62.5 117.1,58.6 122.9,43.9 127.8,39 129.8,40 131.7,39 133.7,41 137.6,41.9 143.5,43.9 		"/>
	</g>
	<g id="POLYLINE_126_">
		<polyline class="st0" points="128.8,78.1 132.7,78.1 134.7,79.1 		"/>
	</g>
	<g id="POLYLINE_127_">
		<line class="st0" x1="128.8" y1="75.2" x2="132.7" y2="74.2"/>
	</g>
	<g id="POLYLINE_128_">
		<line class="st0" x1="128.8" y1="71.3" x2="131.7" y2="68.3"/>
	</g>
	<g id="POLYLINE_129_">
		<polyline class="st0" points="124.9,70.3 126.9,66.4 128.8,65.4 		"/>
	</g>
	<g id="POLYLINE_130_">
		<line class="st0" x1="121" y1="68.3" x2="124.9" y2="62.5"/>
	</g>
	<g id="POLYLINE_131_">
		<polyline class="st0" points="120,63.5 120,61.5 123.9,62.5 129.8,65.4 134.7,73.2 134.7,81.1 132.7,86.9 		"/>
	</g>
	<g id="POLYLINE_132_">
		<polyline class="st0" points="32,191.6 35.9,190.6 39.8,190.6 43.7,189.6 		"/>
	</g>
	<g id="POLYLINE_133_">
		<polyline class="st0" points="82.8,191.6 83.8,195.5 82.8,204.3 		"/>
	</g>
	<g id="POLYLINE_134_">
		<polyline class="st0" points="66.2,192.5 68.2,200.4 68.2,202.3 69.2,197.4 68.2,192.5 71.1,196.5 73.1,201.3 75,203.3 77,201.3 
			77,189.6 		"/>
	</g>
	<g id="POLYLINE_135_">
		<polyline class="st0" points="55.5,192.5 57.4,198.4 56.4,201.3 56.4,194.5 57.4,190.6 61.3,191.6 62.3,195.5 61.3,199.4 
			55.5,203.3 		"/>
	</g>
	<g id="POLYLINE_136_">
		<polyline class="st0" points="43.7,193.5 42.7,197.4 43.7,201.3 45.7,203.3 48.6,200.4 50.6,190.6 		"/>
	</g>
	<g id="POLYLINE_137_">
		<polyline class="st0" points="35.9,190.6 35.9,199.4 34.9,203.3 34.9,205.3 		"/>
	</g>
	<g id="POLYLINE_138_">
		<polyline class="st0" points="30,191.6 35.9,189.6 37.9,189.6 		"/>
	</g>
	<g id="POLYLINE_139_">
		<polyline class="st0" points="25.1,190.6 21.2,188.6 17.3,190.6 16.3,194.5 22.2,196.5 24.2,196.5 26.1,198.4 26.1,203.3 
			22.2,202.3 16.3,204.3 		"/>
	</g>
	<g id="POLYLINE_140_">
		<polyline class="st0" points="23.2,176.9 21.2,175.9 19.3,176.9 		"/>
	</g>
	<g id="POLYLINE_141_">
		<polyline class="st0" points="34.9,170.1 33,170.1 32,175.9 33.9,177.9 37.9,176.9 41.8,171 38.8,168.1 34.9,170.1 		"/>
	</g>
	<g id="POLYLINE_142_">
		<polyline class="st0" points="18.3,172 17.3,177.9 18.3,171 22.2,168.1 26.1,169.1 27.1,173 24.2,176.9 20.3,176.9 		"/>
	</g>
	<g id="POLYLINE_143_">
		<polyline class="st0" points="91.6,149.5 90.7,153.4 90.7,164.2 95.6,159.3 99.5,158.3 102.4,156.4 		"/>
	</g>
	<g id="POLYLINE_144_">
		<polyline class="st0" points="93.6,160.3 93.6,157.3 97.5,151.5 106.3,139.7 108.3,138.8 		"/>
	</g>
	<g id="POLYLINE_145_">
		<polyline class="st0" points="130.8,167.1 122.9,179.8 117.1,186.7 107.3,201.3 105.3,203.3 		"/>
	</g>
	<g id="POLYLINE_146_">
		<polyline class="st0" points="121,63.5 119,67.4 119,70.3 114.1,82 113.2,86.9 107.3,94.7 103.4,101.6 98.5,106.5 93.6,115.3 
			78.9,137.8 77,139.7 		"/>
	</g>
	<g id="POLYLINE_147_">
		<polyline class="st0" points="145.4,152.4 141.5,153.4 134.7,161.2 129.8,172 129.8,174.9 127.8,178.9 		"/>
	</g>
	<g id="POLYLINE_148_">
		<polyline class="st0" points="206.1,200.4 205.1,196.5 202.2,191.6 200.2,187.7 198.2,186.7 197.3,182.8 187.5,171 180.6,166.1 
			178.7,166.1 176.7,164.2 174.8,164.2 165,157.3 161.1,154.4 159.1,155.4 158.1,152.4 156.2,153.4 152.3,152.4 148.4,153.4 
			142.5,153.4 140.5,154.4 		"/>
	</g>
	<g id="POLYLINE_149_">
		<line class="st0" x1="209" y1="204.3" x2="206.1" y2="197.4"/>
	</g>
	<g id="POLYLINE_150_">
		<polyline class="st0" points="203.1,115.3 204.1,119.2 208,123.1 		"/>
	</g>
	<g id="POLYLINE_151_">
		<polyline class="st0" points="198.2,119.2 199.2,123.1 203.1,127 		"/>
	</g>
	<g id="POLYLINE_152_">
		<polyline class="st0" points="192.4,123.1 196.3,129 198.2,130.9 		"/>
	</g>
	<g id="POLYLINE_153_">
		<polyline class="st0" points="192.4,125.1 195.3,128 196.3,130 		"/>
	</g>
	<g id="POLYLINE_154_">
		<polyline class="st0" points="183.6,126 190.4,133.9 191.4,136.8 191.4,134.8 		"/>
	</g>
	<g id="POLYLINE_155_">
		<polyline class="st0" points="181.6,133.9 185.5,139.7 186.5,137.8 		"/>
	</g>
	<g id="POLYLINE_156_">
		<polyline class="st0" points="180.6,132.9 183.6,135.8 184.5,137.8 		"/>
	</g>
	<g id="POLYLINE_157_">
		<polyline class="st0" points="211,141.7 208,148.5 205.1,152.4 208,148.5 211.9,147.6 213.9,145.6 206.1,150.5 205.1,151.5 
			211,146.6 211,146.6 203.1,153.4 		"/>
	</g>
	<g id="POLYLINE_158_">
		<polyline class="st0" points="240.3,120.2 241.3,122.1 236.4,127 242.2,119.2 239.3,125.1 237.4,126 236.4,129 230.5,133.9 
			231.5,130.9 241.3,124.1 		"/>
	</g>
	<g id="POLYLINE_159_">
		<polyline class="st0" points="247.1,126 237.4,130 235.4,129 233.4,130.9 237.4,129 239.3,130 245.2,128 233.4,131.9 238.3,126 		
			"/>
	</g>
	<g id="POLYLINE_160_">
		<polyline class="st0" points="207,146.6 207,144.6 211,140.7 210,142.7 211,144.6 211.9,140.7 211,146.6 210,142.7 209,146.6 
			213.9,141.7 212.9,143.6 212.9,137.8 211.9,139.7 213.9,141.7 212.9,139.7 215.8,143.6 215.8,141.7 214.9,143.6 212.9,143.6 
			205.1,151.5 205.1,148.5 212.9,143.6 214.9,143.6 207,149.5 212.9,143.6 216.8,143.6 214.9,144.6 216.8,144.6 209,149.5 
			207,149.5 214.9,145.6 211,146.6 207,148.5 211.9,140.7 211.9,140.7 208,147.6 211,136.8 212.9,142.7 212.9,142.7 213.9,144.6 
			212.9,146.6 211,146.6 212.9,147.6 213.9,145.6 		"/>
	</g>
	<g id="POLYLINE_161_">
		<polyline class="st0" points="211.9,135.8 211.9,137.8 210,138.8 209,143.6 206.1,147.6 206.1,149.5 200.2,157.3 203.1,154.4 
			211,148.5 212.9,148.5 218.8,143.6 		"/>
	</g>
	<g id="POLYLINE_162_">
		<polyline class="st0" points="212.9,138.8 219.8,145.6 220.7,147.6 		"/>
	</g>
	<g id="POLYLINE_163_">
		<polyline class="st0" points="234.4,126 235.4,124.1 234.4,128 236.4,124.1 236.4,126 237.4,124.1 238.3,126 238.3,126 
			240.3,121.2 240.3,126 239.3,128 241.3,121.2 241.3,125.1 244.2,119.2 244.2,123.1 243.2,125.1 245.2,118.2 245.2,123.1 
			243.2,122.1 234.4,130 232.5,130.9 237.4,126 242.2,121.2 241.3,117.2 243.2,126 243.2,122.1 241.3,117.2 246.2,124.1 240.3,126 
			236.4,130 232.5,130.9 238.3,127 242.2,127 244.2,126 244.2,126 233.4,130.9 231.5,130 230.5,131.9 234.4,130.9 242.2,126 
			246.2,126 247.1,124.1 243.2,118.2 243.2,122.1 245.2,126 		"/>
	</g>
	<g id="POLYLINE_164_">
		<polyline class="st0" points="241.3,116.3 239.3,121.2 233.4,129 230.5,133.9 228.6,135.8 229.5,133.9 231.5,133.9 237.4,130 
			239.3,130 241.3,128 245.2,127 247.1,128 		"/>
	</g>
	<g id="POLYLINE_165_">
		<polyline class="st0" points="243.2,117.2 249.1,128 249.1,130 251,131.9 		"/>
	</g>
	<g id="POLYLINE_166_">
		<polyline class="st0" points="247.1,198.4 245.2,198.4 235.4,176.9 235.4,169.1 241.3,161.2 248.1,155.4 261.8,144.6 271.6,132.9 
			273.5,127 274.5,118.2 269.6,113.3 261.8,112.4 252,110.4 244.2,110.4 240.3,109.4 236.4,111.4 232.5,110.4 222.7,114.3 
			218.8,117.2 216.8,117.2 203.1,127 197.3,132.9 187.5,140.7 187.5,142.7 185.5,142.7 183.6,144.6 		"/>
	</g>
	<g id="POLYLINE_167_">
		<polyline class="st0" points="262.8,300.1 260.8,301.1 249.1,297.2 247.1,297.2 245.2,295.2 240.3,294.2 239.3,292.3 237.4,292.3 
			231.5,288.4 215.8,275.7 214.9,273.7 211.9,272.7 209,265.9 205.1,260 204.1,256.1 202.2,250.2 202.2,235.6 207,227.7 
			211.9,219.9 211.9,210.1 210,202.3 		"/>
	</g>
	<g id="POINT_3_">
		<line class="st0" x1="263.8" y1="300.1" x2="263.8" y2="300.1"/>
	</g>
	<g id="POLYLINE_168_">
		<polyline class="st0" points="325.4,329.5 318.5,322.6 310.7,317.7 306.8,316.7 298,311.9 296,311.9 290.2,307.9 284.3,307 
			280.4,304 278.4,304 276.5,302.1 268.7,301.1 266.7,302.1 262.8,301.1 		"/>
	</g>
	<g id="POLYLINE_169_">
		<polyline class="st0" points="341,395 336.1,387.2 333.2,384.2 331.2,384.2 327.3,381.3 325.4,381.3 322.4,378.3 319.5,378.3 
			316.6,374.4 312.7,374.4 307.8,368.6 304.8,359.8 307.8,351.9 321.5,338.3 327.3,331.4 327.3,329.5 325.4,327.5 		"/>
	</g>
	<g id="POLYLINE_170_">
		<polyline class="st0" points="340,391.1 344,396.9 346.9,401.8 355.7,413.6 363.5,419.4 376.2,435.1 383.1,441.9 387,445.8 
			390.9,452.7 395.8,457.6 400.7,463.4 402.6,468.3 408.5,474.2 417.3,486.9 427.1,500.6 432.9,510.4 432.9,512.3 437.8,518.2 
			438.8,521.1 440.8,522.1 442.7,531.9 		"/>
	</g>
	<g id="POLYLINE_171_">
		<polyline class="st0" points="312.7,261 312.7,263 302.9,256.1 300.9,256.1 298,253.2 296,253.2 294.1,250.2 292.1,251.2 
			288.2,247.3 282.3,244.4 277.5,239.5 265.7,227.7 265.7,225.8 262.8,222.9 252,208.2 249.1,203.3 248.1,199.4 246.2,197.4 		"/>
	</g>
	<g id="POLYLINE_172_">
		<polyline class="st0" points="354.7,309.9 351.8,305 350.8,298.2 348.8,296.2 347.9,292.3 342,283.5 342,281.5 332.2,273.7 
			330.3,273.7 322.4,267.8 318.5,266.9 312.7,263.9 		"/>
	</g>
	<g id="POLYLINE_173_">
		<polyline class="st0" points="353.7,308.9 354.7,311.9 352.8,307.9 		"/>
	</g>
	<g id="POLYLINE_174_">
		<polyline class="st0" points="355.7,309.9 355.7,320.7 356.7,324.6 356.7,329.5 357.6,333.4 359.6,342.2 365.5,351.9 376.2,365.6 
			378.2,365.6 380.1,368.6 382.1,368.6 386,375.4 392.8,381.3 403.6,392 411.4,402.8 415.3,403.8 415.3,405.7 426.1,414.5 
			428.1,414.5 430,418.4 437.8,422.4 441.7,421.4 443.7,419.4 445.7,420.4 452.5,413.6 454.5,413.6 463.3,404.8 469.1,402.8 
			475,398.9 482.8,390.1 484.8,390.1 		"/>
	</g>
</g>
<g id="Shots">
	<g id="LINE">
		<line class="st1" x1="364.8" y1="567.6" x2="358.5" y2="574.1"/>
	</g>
	<g id="CIRCLE">
		<circle class="st1" cx="358.5" cy="574.1" r="1.2"/>
	</g>
	<g id="LINE_1_">
		<line class="st1" x1="370.8" y1="598.8" x2="364.8" y2="567.6"/>
	</g>
	<g id="CIRCLE_1_">
		<circle class="st1" cx="364.8" cy="567.6" r="1.2"/>
	</g>
	<g id="LINE_2_">
		<line class="st1" x1="343.9" y1="585.9" x2="370.8" y2="598.8"/>
	</g>
	<g id="CIRCLE_2_">
		<circle class="st1" cx="370.8" cy="598.8" r="1.2"/>
	</g>
	<g id="LINE_3_">
		<line class="st1" x1="343.9" y1="585.9" x2="343.9" y2="585.9"/>
	</g>
	<g id="CIRCLE_3_">
		<circle class="st1" cx="343.9" cy="585.9" r="1.2"/>
	</g>
	<g id="LINE_4_">
		<line class="st1" x1="159.4" y1="798.4" x2="125.5" y2="806.5"/>
	</g>
	<g id="CIRCLE_4_">
		<circle class="st1" cx="125.5" cy="806.5" r="1.2"/>
	</g>
	<g id="LINE_5_">
		<line class="st1" x1="236.4" y1="829.1" x2="159.4" y2="798.4"/>
	</g>
	<g id="CIRCLE_5_">
		<circle class="st1" cx="159.4" cy="798.4" r="1.2"/>
	</g>
	<g id="LINE_6_">
		<line class="st1" x1="168.3" y1="727.3" x2="236.4" y2="829.1"/>
	</g>
	<g id="CIRCLE_6_">
		<circle class="st1" cx="236.4" cy="829.1" r="1.2"/>
	</g>
	<g id="LINE_7_">
		<line class="st1" x1="227.7" y1="671.4" x2="168.3" y2="727.3"/>
	</g>
	<g id="CIRCLE_7_">
		<circle class="st1" cx="168.3" cy="727.3" r="1.2"/>
	</g>
	<g id="LINE_8_">
		<line class="st1" x1="264.8" y1="638.6" x2="227.7" y2="671.4"/>
	</g>
	<g id="CIRCLE_8_">
		<circle class="st1" cx="227.7" cy="671.4" r="1.2"/>
	</g>
	<g id="LINE_9_">
		<line class="st1" x1="343.9" y1="585.9" x2="264.8" y2="638.6"/>
	</g>
	<g id="CIRCLE_9_">
		<circle class="st1" cx="264.8" cy="638.6" r="1.2"/>
	</g>
	<g id="LINE_10_">
		<line class="st1" x1="396.2" y1="553.4" x2="343.9" y2="585.9"/>
	</g>
	<g id="CIRCLE_10_">
		<circle class="st1" cx="343.9" cy="585.9" r="1.2"/>
	</g>
	<g id="LINE_11_">
		<line class="st1" x1="465.6" y1="614.8" x2="396.2" y2="553.4"/>
	</g>
	<g id="CIRCLE_11_">
		<circle class="st1" cx="396.2" cy="553.4" r="1.2"/>
	</g>
	<g id="LINE_12_">
		<line class="st1" x1="475.2" y1="580.5" x2="465.6" y2="614.8"/>
	</g>
	<g id="CIRCLE_12_">
		<circle class="st1" cx="465.6" cy="614.8" r="1.2"/>
	</g>
	<g id="LINE_13_">
		<line class="st1" x1="453.3" y1="527.8" x2="475.2" y2="580.5"/>
	</g>
	<g id="CIRCLE_13_">
		<circle class="st1" cx="475.2" cy="580.5" r="1.2"/>
	</g>
	<g id="LINE_14_">
		<line class="st1" x1="439.9" y1="426.1" x2="453.3" y2="527.8"/>
	</g>
	<g id="CIRCLE_14_">
		<circle class="st1" cx="453.3" cy="527.8" r="1.2"/>
	</g>
	<g id="LINE_15_">
		<line class="st1" x1="439.9" y1="426.1" x2="439.9" y2="426.1"/>
	</g>
	<g id="CIRCLE_15_">
		<circle class="st1" cx="439.9" cy="426.1" r="1.2"/>
	</g>
	<g id="LINE_16_">
		<line class="st1" x1="203.6" y1="67.7" x2="221.9" y2="91.2"/>
	</g>
	<g id="CIRCLE_16_">
		<circle class="st1" cx="221.9" cy="91.2" r="1.2"/>
	</g>
	<g id="LINE_17_">
		<line class="st1" x1="153.9" y1="99.5" x2="203.6" y2="67.7"/>
	</g>
	<g id="CIRCLE_17_">
		<circle class="st1" cx="203.6" cy="67.7" r="1.2"/>
	</g>
	<g id="LINE_18_">
		<line class="st1" x1="126.9" y1="74.1" x2="153.9" y2="99.5"/>
	</g>
	<g id="CIRCLE_18_">
		<circle class="st1" cx="153.9" cy="99.5" r="1.2"/>
	</g>
	<g id="LINE_19_">
		<line class="st1" x1="139.2" y1="129.3" x2="126.9" y2="74.1"/>
	</g>
	<g id="CIRCLE_19_">
		<circle class="st1" cx="126.9" cy="74.1" r="1.2"/>
	</g>
	<g id="LINE_20_">
		<line class="st1" x1="180.1" y1="153" x2="139.2" y2="129.3"/>
	</g>
	<g id="CIRCLE_20_">
		<circle class="st1" cx="139.2" cy="129.3" r="1.2"/>
	</g>
	<g id="LINE_21_">
		<line class="st1" x1="250.9" y1="216.3" x2="180.1" y2="153"/>
	</g>
	<g id="CIRCLE_21_">
		<circle class="st1" cx="180.1" cy="153" r="1.2"/>
	</g>
	<g id="LINE_22_">
		<line class="st1" x1="211.3" y1="256.8" x2="250.9" y2="216.3"/>
	</g>
	<g id="CIRCLE_22_">
		<circle class="st1" cx="250.9" cy="216.3" r="1.2"/>
	</g>
	<g id="LINE_23_">
		<line class="st1" x1="288.9" y1="291.9" x2="211.3" y2="256.8"/>
	</g>
	<g id="CIRCLE_23_">
		<circle class="st1" cx="211.3" cy="256.8" r="1.2"/>
	</g>
	<g id="LINE_24_">
		<line class="st1" x1="333.7" y1="327.1" x2="288.9" y2="291.9"/>
	</g>
	<g id="CIRCLE_24_">
		<circle class="st1" cx="288.9" cy="291.9" r="1.2"/>
	</g>
	<g id="LINE_25_">
		<line class="st1" x1="340.9" y1="392" x2="333.7" y2="327.1"/>
	</g>
	<g id="CIRCLE_25_">
		<circle class="st1" cx="333.7" cy="327.1" r="1.2"/>
	</g>
	<g id="LINE_26_">
		<line class="st1" x1="439.9" y1="426.1" x2="340.9" y2="392"/>
	</g>
	<g id="CIRCLE_26_">
		<circle class="st1" cx="340.9" cy="392" r="1.2"/>
	</g>
	<g id="LINE_27_">
		<line class="st1" x1="421.7" y1="435.3" x2="439.9" y2="426.1"/>
	</g>
	<g id="CIRCLE_27_">
		<circle class="st1" cx="439.9" cy="426.1" r="1.2"/>
	</g>
	<g id="LINE_28_">
		<line class="st1" x1="356" y1="395.4" x2="421.7" y2="435.3"/>
	</g>
	<g id="CIRCLE_28_">
		<circle class="st1" cx="421.7" cy="435.3" r="1.2"/>
	</g>
	<g id="LINE_29_">
		<line class="st1" x1="303.7" y1="390.8" x2="356" y2="395.4"/>
	</g>
	<g id="CIRCLE_29_">
		<circle class="st1" cx="356" cy="395.4" r="1.2"/>
	</g>
</g>
</svg>
