  999
DXF created by TopoDroid v. 3.1.4
  0
SECTION
  2
HEADER
  9
$ACADVER
  1
AC1009
  9
$INSBASE
  10
0.00
  20
0.00
  30
0.00
  9
$EXTMIN
  10
-56.78
  20
-902.78
  30
0.00
  9
$EXTMAX
  10
1635.29
  20
133.06
  30
0.00
  0
ENDSEC
  0
SECTION
  2
TABLES
  0
TABLE
  2
LTYPE
  70
1
  0
LTYPE
  2
CONTINUOUS
  70
64
  3
Solid line
  72
65
  73
0
  40
0.0
  0
ENDTAB
  0
TABLE
  2
LAYER
  70
36
  0
LAYER
  2
LEG
  70
0
  62
1
  6
CONTINUOUS
  0
LAYER
  2
SPLAY
  70
0
  62
2
  6
CONTINUOUS
  0
LAYER
  2
STATION
  70
0
  62
3
  6
CONTINUOUS
  0
LAYER
  2
LINE
  70
0
  62
4
  6
CONTINUOUS
  0
LAYER
  2
POINT
  70
0
  62
5
  6
CONTINUOUS
  0
LAYER
  2
REF
  70
0
  62
6
  6
CONTINUOUS
  0
LAYER
  2
L_u-user
  70
0
  62
7
  6
CONTINUOUS
  0
LAYER
  2
L_wall
  70
0
  62
8
  6
CONTINUOUS
  0
LAYER
  2
L_arrow
  70
0
  62
9
  6
CONTINUOUS
  0
LAYER
  2
L_border
  70
0
  62
10
  6
CONTINUOUS
  0
LAYER
  2
L_ceiling-meander
  70
0
  62
11
  6
CONTINUOUS
  0
LAYER
  2
L_chimney
  70
0
  62
12
  6
CONTINUOUS
  0
LAYER
  2
L_contour
  70
0
  62
13
  6
CONTINUOUS
  0
LAYER
  2
L_fault
  70
0
  62
14
  6
CONTINUOUS
  0
LAYER
  2
L_floor-meander
  70
0
  62
15
  6
CONTINUOUS
  0
LAYER
  2
L_overhang
  70
0
  62
16
  6
CONTINUOUS
  0
LAYER
  2
L_pit
  70
0
  62
17
  6
CONTINUOUS
  0
LAYER
  2
L_wall-presumed
  70
0
  62
18
  6
CONTINUOUS
  0
LAYER
  2
L_rock-border
  70
0
  62
19
  6
CONTINUOUS
  0
LAYER
  2
L_section
  70
0
  62
20
  6
CONTINUOUS
  0
LAYER
  2
L_slope
  70
0
  62
21
  6
CONTINUOUS
  0
LAYER
  2
L_wall-blocks
  70
0
  62
22
  6
CONTINUOUS
  0
LAYER
  2
L_wall-clay
  70
0
  62
23
  6
CONTINUOUS
  0
LAYER
  2
L_wall-debris
  70
0
  62
24
  6
CONTINUOUS
  0
LAYER
  2
L_wall-ice
  70
0
  62
25
  6
CONTINUOUS
  0
LAYER
  2
L_wall-sand
  70
0
  62
26
  6
CONTINUOUS
  0
LAYER
  2
L_water-flow
  70
0
  62
27
  6
CONTINUOUS
  0
LAYER
  2
A_u-user
  70
0
  62
28
  6
CONTINUOUS
  0
LAYER
  2
A_water
  70
0
  62
29
  6
CONTINUOUS
  0
LAYER
  2
A_blocks
  70
0
  62
30
  6
CONTINUOUS
  0
LAYER
  2
A_clay
  70
0
  62
31
  6
CONTINUOUS
  0
LAYER
  2
A_debris
  70
0
  62
32
  6
CONTINUOUS
  0
LAYER
  2
A_ice
  70
0
  62
33
  6
CONTINUOUS
  0
LAYER
  2
A_pebbles
  70
0
  62
34
  6
CONTINUOUS
  0
LAYER
  2
A_sand
  70
0
  62
35
  6
CONTINUOUS
  0
LAYER
  2
A_snow
  70
0
  62
36
  6
CONTINUOUS
  0
ENDTAB
  0
TABLE
  2
VIEW
  70
0
  0
ENDTAB
  0
TABLE
  2
UCS
  70
0
  0
ENDTAB
  0
TABLE
  2
APPID
  70
1
  0
APPID
  2
ACAD
  70
0
  0
ENDTAB
  0
ENDSEC
  0
SECTION
  2
BLOCKS
  0
BLOCK
  8
POINT
  2
P_u-user
  70
64
  10
0.0
  20
0.0
  30
0.0
  0
CIRCLE
  8
POINT
  10
0.00
  20
-0.00
  30
0.00
  40
0.30
  0
ENDBLK
  0
BLOCK
  8
POINT
  2
P_label
  70
64
  10
0.0
  20
0.0
  30
0.0
  0
LINE
  8
POINT
  10
0.00
  20
-0.15
  30
0.00
  11
0.00
  21
0.30
  31
0.00
  0
LINE
  8
POINT
  10
0.00
  20
0.30
  30
0.00
  11
-0.15
  21
0.30
  31
0.00
  0
LINE
  8
POINT
  10
-0.15
  20
0.30
  30
0.00
  11
0.15
  21
0.30
  31
0.00
  0
ENDBLK
  0
BLOCK
  8
POINT
  2
P_air-draught
  70
64
  10
0.0
  20
0.0
  30
0.0
  0
LINE
  8
POINT
  10
-0.20
  20
-0.35
  30
0.00
  11
0.00
  21
-0.15
  31
0.00
  0
LINE
  8
POINT
  10
0.00
  20
-0.15
  30
0.00
  11
0.00
  21
0.50
  31
0.00
  0
LINE
  8
POINT
  10
0.00
  20
0.50
  30
0.00
  11
0.20
  21
0.30
  31
0.00
  0
LINE
  8
POINT
  10
0.00
  20
0.50
  30
0.00
  11
-0.20
  21
0.30
  31
0.00
  0
LINE
  8
POINT
  10
-0.20
  20
-0.20
  30
0.00
  11
0.00
  21
-0.00
  31
0.00
  0
ENDBLK
  0
BLOCK
  8
POINT
  2
P_anchor
  70
64
  10
0.0
  20
0.0
  30
0.0
  0
LINE
  8
POINT
  10
0.25
  20
-0.00
  30
0.00
  11
-0.25
  21
-0.00
  31
0.00
  0
CIRCLE
  8
POINT
  10
0.00
  20
-0.00
  30
0.00
  40
0.25
  0
ENDBLK
  0
BLOCK
  8
POINT
  2
P_aragonite
  70
64
  10
0.0
  20
0.0
  30
0.0
  0
LINE
  8
POINT
  10
0.00
  20
0.25
  30
0.00
  11
0.00
  21
-0.35
  31
0.00
  0
LINE
  8
POINT
  10
-0.10
  20
0.35
  30
0.00
  11
0.00
  21
0.25
  31
0.00
  0
LINE
  8
POINT
  10
0.00
  20
0.25
  30
0.00
  11
0.10
  21
0.35
  31
0.00
  0
LINE
  8
POINT
  10
-0.15
  20
0.20
  30
0.00
  11
0.00
  21
0.05
  31
0.00
  0
LINE
  8
POINT
  10
0.00
  20
0.05
  30
0.00
  11
0.15
  21
0.20
  31
0.00
  0
ENDBLK
  0
BLOCK
  8
POINT
  2
P_archeo-material
  70
64
  10
0.0
  20
0.0
  30
0.0
  0
LINE
  8
POINT
  10
-0.17
  20
-0.17
  30
0.00
  11
0.00
  21
-0.00
  31
0.00
  0
LINE
  8
POINT
  10
-0.17
  20
0.17
  30
0.00
  11
0.00
  21
-0.00
  31
0.00
  0
LINE
  8
POINT
  10
0.00
  20
-0.00
  30
0.00
  11
0.25
  21
-0.00
  31
0.00
  0
CIRCLE
  8
POINT
  10
0.00
  20
-0.00
  30
0.00
  40
0.25
  0
ENDBLK
  0
BLOCK
  8
POINT
  2
P_blocks
  70
64
  10
0.0
  20
0.0
  30
0.0
  0
LINE
  8
POINT
  10
-0.35
  20
-0.20
  30
0.00
  11
0.40
  21
-0.25
  31
0.00
  0
LINE
  8
POINT
  10
0.40
  20
-0.25
  30
0.00
  11
0.35
  21
0.25
  31
0.00
  0
LINE
  8
POINT
  10
0.35
  20
0.25
  30
0.00
  11
-0.25
  21
0.30
  31
0.00
  0
LINE
  8
POINT
  10
-0.25
  20
0.30
  30
0.00
  11
-0.35
  21
0.20
  31
0.00
  0
LINE
  8
POINT
  10
-0.35
  20
0.20
  30
0.00
  11
-0.35
  21
-0.20
  31
0.00
  0
LINE
  8
POINT
  10
-0.35
  20
-0.20
  30
0.00
  11
-0.30
  21
-0.10
  31
0.00
  0
LINE
  8
POINT
  10
-0.30
  20
-0.10
  30
0.00
  11
-0.25
  21
0.10
  31
0.00
  0
LINE
  8
POINT
  10
-0.25
  20
0.10
  30
0.00
  11
-0.20
  21
0.20
  31
0.00
  0
LINE
  8
POINT
  10
-0.20
  20
0.20
  30
0.00
  11
0.25
  21
0.15
  31
0.00
  0
LINE
  8
POINT
  10
0.25
  20
0.15
  30
0.00
  11
0.35
  21
0.25
  31
0.00
  0
LINE
  8
POINT
  10
-0.20
  20
0.20
  30
0.00
  11
-0.25
  21
0.30
  31
0.00
  0
ENDBLK
  0
BLOCK
  8
POINT
  2
P_breakdown-choke
  70
64
  10
0.0
  20
0.0
  30
0.0
  0
LINE
  8
POINT
  10
-0.20
  20
-0.20
  30
0.00
  11
0.20
  21
0.20
  31
0.00
  0
LINE
  8
POINT
  10
-0.20
  20
0.20
  30
0.00
  11
0.20
  21
-0.20
  31
0.00
  0
ENDBLK
  0
BLOCK
  8
POINT
  2
P_clay
  70
64
  10
0.0
  20
0.0
  30
0.0
  0
ARC
  8
POINT
  10
-0.15
  20
-0.00
  30
0.00
  40
0.15
  50
90.00
  51
180.00
  0
ARC
  8
POINT
  10
-0.15
  20
-0.00
  30
0.00
  40
0.15
  50
0.00
  51
90.00
  0
ARC
  8
POINT
  10
0.15
  20
-0.00
  30
0.00
  40
0.15
  50
180.00
  51
270.00
  0
ARC
  8
POINT
  10
0.15
  20
-0.00
  30
0.00
  40
0.15
  50
270.00
  51
360.00
  0
ENDBLK
  0
BLOCK
  8
POINT
  2
P_continuation
  70
64
  10
0.0
  20
0.0
  30
0.0
  0
LINE
  8
POINT
  10
0.00
  20
-0.15
  30
0.00
  11
0.00
  21
-0.00
  31
0.00
  0
ARC
  8
POINT
  10
0.10
  20
-0.00
  30
0.00
  40
0.10
  50
90.00
  51
180.00
  0
ARC
  8
POINT
  10
0.00
  20
0.15
  30
0.00
  40
0.10
  50
0.00
  51
90.00
  0
ARC
  8
POINT
  10
-0.15
  20
0.30
  30
0.00
  40
0.15
  50
270.00
  51
360.00
  0
LINE
  8
POINT
  10
0.00
  20
-0.35
  30
0.00
  11
0.00
  21
-0.25
  31
0.00
  0
ENDBLK
  0
BLOCK
  8
POINT
  2
P_crystal
  70
64
  10
0.0
  20
0.0
  30
0.0
  0
LINE
  8
POINT
  10
-0.25
  20
-0.00
  30
0.00
  11
0.25
  21
-0.00
  31
0.00
  0
LINE
  8
POINT
  10
0.00
  20
0.25
  30
0.00
  11
0.00
  21
-0.25
  31
0.00
  0
LINE
  8
POINT
  10
0.00
  20
-0.25
  30
0.00
  11
0.25
  21
-0.00
  31
0.00
  0
LINE
  8
POINT
  10
0.25
  20
-0.00
  30
0.00
  11
0.00
  21
0.25
  31
0.00
  0
LINE
  8
POINT
  10
0.00
  20
0.25
  30
0.00
  11
-0.25
  21
-0.00
  31
0.00
  0
LINE
  8
POINT
  10
-0.25
  20
-0.00
  30
0.00
  11
0.00
  21
-0.25
  31
0.00
  0
ENDBLK
  0
BLOCK
  8
POINT
  2
P_curtain
  70
64
  10
0.0
  20
0.0
  30
0.0
  0
LINE
  8
POINT
  10
-0.20
  20
0.20
  30
0.00
  11
0.00
  21
-0.00
  31
0.00
  0
LINE
  8
POINT
  10
0.00
  20
-0.00
  30
0.00
  11
0.20
  21
0.20
  31
0.00
  0
LINE
  8
POINT
  10
0.00
  20
-0.00
  30
0.00
  11
0.00
  21
-0.10
  31
0.00
  0
ARC
  8
POINT
  10
0.00
  20
-0.20
  30
0.00
  40
0.10
  50
90.00
  51
180.00
  0
ARC
  8
POINT
  10
0.00
  20
-0.20
  30
0.00
  40
0.10
  50
180.00
  51
270.00
  0
LINE
  8
POINT
  10
0.00
  20
-0.30
  30
0.00
  11
0.00
  21
-0.40
  31
0.00
  0
ENDBLK
  0
BLOCK
  8
POINT
  2
P_u-danger
  70
64
  10
0.0
  20
0.0
  30
0.0
  0
LINE
  8
POINT
  10
0.00
  20
-0.00
  30
0.00
  11
0.10
  21
0.40
  31
0.00
  0
LINE
  8
POINT
  10
0.10
  20
0.40
  30
0.00
  11
-0.10
  21
0.40
  31
0.00
  0
LINE
  8
POINT
  10
-0.10
  20
0.40
  30
0.00
  11
0.00
  21
-0.00
  31
0.00
  0
CIRCLE
  8
POINT
  10
0.00
  20
-0.20
  30
0.00
  40
0.10
  0
ENDBLK
  0
BLOCK
  8
POINT
  2
P_debris
  70
64
  10
0.0
  20
0.0
  30
0.0
  0
LINE
  8
POINT
  10
0.00
  20
-0.00
  30
0.00
  11
0.20
  21
-0.05
  31
0.00
  0
LINE
  8
POINT
  10
0.20
  20
-0.05
  30
0.00
  11
0.10
  21
0.15
  31
0.00
  0
LINE
  8
POINT
  10
0.10
  20
0.15
  30
0.00
  11
0.00
  21
-0.00
  31
0.00
  0
LINE
  8
POINT
  10
0.00
  20
-0.00
  30
0.00
  11
-0.20
  21
-0.00
  31
0.00
  0
LINE
  8
POINT
  10
-0.20
  20
-0.00
  30
0.00
  11
-0.10
  21
0.20
  31
0.00
  0
LINE
  8
POINT
  10
-0.10
  20
0.20
  30
0.00
  11
0.00
  21
-0.00
  31
0.00
  0
ENDBLK
  0
BLOCK
  8
POINT
  2
P_dig
  70
64
  10
0.0
  20
0.0
  30
0.0
  0
LINE
  8
POINT
  10
-0.25
  20
0.10
  30
0.00
  11
-0.05
  21
0.30
  31
0.00
  0
LINE
  8
POINT
  10
-0.15
  20
0.20
  30
0.00
  11
0.20
  21
-0.15
  31
0.00
  0
LINE
  8
POINT
  10
0.25
  20
0.10
  30
0.00
  11
0.05
  21
0.30
  31
0.00
  0
LINE
  8
POINT
  10
0.15
  20
0.20
  30
0.00
  11
-0.20
  21
-0.15
  31
0.00
  0
ENDBLK
  0
BLOCK
  8
POINT
  2
P_disc
  70
64
  10
0.0
  20
0.0
  30
0.0
  0
CIRCLE
  8
POINT
  10
0.00
  20
0.15
  30
0.00
  40
0.15
  0
LINE
  8
POINT
  10
-0.10
  20
-0.15
  30
0.00
  11
0.00
  21
-0.00
  31
0.00
  0
LINE
  8
POINT
  10
0.00
  20
-0.00
  30
0.00
  11
0.10
  21
-0.15
  31
0.00
  0
ENDBLK
  0
BLOCK
  8
POINT
  2
P_entrance
  70
64
  10
0.0
  20
0.0
  30
0.0
  0
LINE
  8
POINT
  10
0.00
  20
0.30
  30
0.00
  11
-0.15
  21
-0.15
  31
0.00
  0
LINE
  8
POINT
  10
-0.15
  20
-0.15
  30
0.00
  11
0.15
  21
-0.15
  31
0.00
  0
LINE
  8
POINT
  10
0.15
  20
-0.15
  30
0.00
  11
0.00
  21
0.30
  31
0.00
  0
ENDBLK
  0
BLOCK
  8
POINT
  2
P_flowstone
  70
64
  10
0.0
  20
0.0
  30
0.0
  0
LINE
  8
POINT
  10
-0.30
  20
0.10
  30
0.00
  11
-0.05
  21
0.10
  31
0.00
  0
LINE
  8
POINT
  10
0.10
  20
0.10
  30
0.00
  11
0.35
  21
0.10
  31
0.00
  0
LINE
  8
POINT
  10
-0.15
  20
-0.10
  30
0.00
  11
0.15
  21
-0.10
  31
0.00
  0
ENDBLK
  0
BLOCK
  8
POINT
  2
P_flute
  70
64
  10
0.0
  20
0.0
  30
0.0
  0
LINE
  8
POINT
  10
-0.30
  20
-0.00
  30
0.00
  11
0.30
  21
-0.00
  31
0.00
  0
ARC
  8
POINT
  10
0.00
  20
-0.00
  30
0.00
  40
0.15
  50
90.00
  51
180.00
  0
ARC
  8
POINT
  10
0.00
  20
-0.00
  30
0.00
  40
0.15
  50
0.00
  51
90.00
  0
ENDBLK
  0
BLOCK
  8
POINT
  2
P_gradient
  70
64
  10
0.0
  20
0.0
  30
0.0
  0
LINE
  8
POINT
  10
0.00
  20
-0.40
  30
0.00
  11
0.00
  21
0.20
  31
0.00
  0
LINE
  8
POINT
  10
0.00
  20
0.20
  30
0.00
  11
-0.10
  21
0.10
  31
0.00
  0
LINE
  8
POINT
  10
-0.10
  20
0.10
  30
0.00
  11
0.10
  21
0.10
  31
0.00
  0
LINE
  8
POINT
  10
0.10
  20
0.10
  30
0.00
  11
0.00
  21
0.20
  31
0.00
  0
ENDBLK
  0
BLOCK
  8
POINT
  2
P_guano
  70
64
  10
0.0
  20
0.0
  30
0.0
  0
ARC
  8
POINT
  10
-0.12
  20
-0.00
  30
0.00
  40
0.12
  50
0.00
  51
180.00
  0
LINE
  8
POINT
  10
0.00
  20
-0.00
  30
0.00
  11
0.00
  21
-0.30
  31
0.00
  0
ARC
  8
POINT
  10
0.12
  20
-0.00
  30
0.00
  40
0.12
  50
0.00
  51
180.00
  0
ENDBLK
  0
BLOCK
  8
POINT
  2
P_gypsum
  70
64
  10
0.0
  20
0.0
  30
0.0
  0
LINE
  8
POINT
  10
-0.25
  20
-0.00
  30
0.00
  11
0.00
  21
0.25
  31
0.00
  0
LINE
  8
POINT
  10
0.00
  20
0.25
  30
0.00
  11
0.00
  21
-0.25
  31
0.00
  0
LINE
  8
POINT
  10
0.00
  20
-0.25
  30
0.00
  11
0.25
  21
-0.00
  31
0.00
  0
LINE
  8
POINT
  10
0.25
  20
-0.00
  30
0.00
  11
-0.25
  21
-0.00
  31
0.00
  0
ENDBLK
  0
BLOCK
  8
POINT
  2
P_helictite
  70
64
  10
0.0
  20
0.0
  30
0.0
  0
LINE
  8
POINT
  10
0.00
  20
0.35
  30
0.00
  11
0.00
  21
-0.35
  31
0.00
  0
LINE
  8
POINT
  10
-0.15
  20
0.25
  30
0.00
  11
-0.15
  21
-0.00
  31
0.00
  0
LINE
  8
POINT
  10
-0.15
  20
-0.00
  30
0.00
  11
0.15
  21
-0.00
  31
0.00
  0
LINE
  8
POINT
  10
0.15
  20
-0.00
  30
0.00
  11
0.15
  21
-0.25
  31
0.00
  0
ENDBLK
  0
BLOCK
  8
POINT
  2
P_ice
  70
64
  10
0.0
  20
0.0
  30
0.0
  0
LINE
  8
POINT
  10
-0.25
  20
-0.00
  30
0.00
  11
0.25
  21
-0.00
  31
0.00
  0
LINE
  8
POINT
  10
0.00
  20
0.25
  30
0.00
  11
0.00
  21
-0.25
  31
0.00
  0
ENDBLK
  0
BLOCK
  8
POINT
  2
P_low-end
  70
64
  10
0.0
  20
0.0
  30
0.0
  0
LINE
  8
POINT
  10
-0.30
  20
0.10
  30
0.00
  11
0.30
  21
0.10
  31
0.00
  0
LINE
  8
POINT
  10
-0.30
  20
-0.10
  30
0.00
  11
0.30
  21
-0.10
  31
0.00
  0
ENDBLK
  0
BLOCK
  8
POINT
  2
P_moonmilk
  70
64
  10
0.0
  20
0.0
  30
0.0
  0
ARC
  8
POINT
  10
-0.28
  20
-0.05
  30
0.00
  40
0.12
  50
0.00
  51
180.00
  0
ARC
  8
POINT
  10
-0.03
  20
-0.05
  30
0.00
  40
0.12
  50
0.00
  51
180.00
  0
ARC
  8
POINT
  10
0.23
  20
-0.05
  30
0.00
  40
0.12
  50
0.00
  51
180.00
  0
ENDBLK
  0
BLOCK
  8
POINT
  2
P_narrow-end
  70
64
  10
0.0
  20
0.0
  30
0.0
  0
LINE
  8
POINT
  10
-0.10
  20
0.30
  30
0.00
  11
-0.10
  21
-0.30
  31
0.00
  0
LINE
  8
POINT
  10
0.10
  20
0.30
  30
0.00
  11
0.10
  21
-0.30
  31
0.00
  0
ENDBLK
  0
BLOCK
  8
POINT
  2
P_paleo-material
  70
64
  10
0.0
  20
0.0
  30
0.0
  0
CIRCLE
  8
POINT
  10
-0.25
  20
-0.10
  30
0.00
  40
0.05
  0
CIRCLE
  8
POINT
  10
-0.20
  20
-0.20
  30
0.00
  40
0.05
  0
CIRCLE
  8
POINT
  10
0.20
  20
0.20
  30
0.00
  40
0.05
  0
CIRCLE
  8
POINT
  10
0.25
  20
0.10
  30
0.00
  40
0.05
  0
LINE
  8
POINT
  10
-0.21
  20
-0.09
  30
0.00
  11
0.17
  21
0.17
  31
0.00
  0
LINE
  8
POINT
  10
0.21
  20
0.09
  30
0.00
  11
-0.17
  21
-0.17
  31
0.00
  0
ENDBLK
  0
BLOCK
  8
POINT
  2
P_paleoflow
  70
64
  10
0.0
  20
0.0
  30
0.0
  0
LINE
  8
POINT
  10
0.00
  20
-0.25
  30
0.00
  11
0.00
  21
0.35
  31
0.00
  0
LINE
  8
POINT
  10
0.00
  20
0.35
  30
0.00
  11
0.10
  21
0.25
  31
0.00
  0
LINE
  8
POINT
  10
0.00
  20
0.35
  30
0.00
  11
-0.10
  21
0.25
  31
0.00
  0
ARC
  8
POINT
  10
0.00
  20
-0.00
  30
0.00
  40
0.15
  50
90.00
  51
180.00
  0
ARC
  8
POINT
  10
0.00
  20
-0.00
  30
0.00
  40
0.15
  50
0.00
  51
90.00
  0
ENDBLK
  0
BLOCK
  8
POINT
  2
P_pebbles
  70
64
  10
0.0
  20
0.0
  30
0.0
  0
CIRCLE
  8
POINT
  10
-0.15
  20
-0.05
  30
0.00
  40
0.10
  0
CIRCLE
  8
POINT
  10
0.20
  20
-0.15
  30
0.00
  40
0.10
  0
CIRCLE
  8
POINT
  10
0.15
  20
0.15
  30
0.00
  40
0.10
  0
ENDBLK
  0
BLOCK
  8
POINT
  2
P_pendant
  70
64
  10
0.0
  20
0.0
  30
0.0
  0
ARC
  8
POINT
  10
-0.20
  20
0.20
  30
0.00
  40
0.10
  50
90.00
  51
270.00
  0
ARC
  8
POINT
  10
0.00
  20
0.10
  30
0.00
  40
0.20
  50
180.00
  51
270.00
  0
ARC
  8
POINT
  10
0.20
  20
-0.30
  30
0.00
  40
0.20
  50
90.00
  51
180.00
  0
ARC
  8
POINT
  10
0.20
  20
0.20
  30
0.00
  40
0.10
  50
90.00
  51
270.00
  0
ENDBLK
  0
BLOCK
  8
POINT
  2
P_pillar
  70
64
  10
0.0
  20
0.0
  30
0.0
  0
LINE
  8
POINT
  10
-0.15
  20
0.35
  30
0.00
  11
0.00
  21
0.20
  31
0.00
  0
LINE
  8
POINT
  10
0.00
  20
0.20
  30
0.00
  11
0.00
  21
-0.20
  31
0.00
  0
LINE
  8
POINT
  10
0.00
  20
-0.20
  30
0.00
  11
-0.15
  21
-0.35
  31
0.00
  0
LINE
  8
POINT
  10
0.00
  20
-0.20
  30
0.00
  11
0.15
  21
-0.35
  31
0.00
  0
LINE
  8
POINT
  10
0.00
  20
0.20
  30
0.00
  11
0.15
  21
0.35
  31
0.00
  0
ENDBLK
  0
BLOCK
  8
POINT
  2
P_popcorn
  70
64
  10
0.0
  20
0.0
  30
0.0
  0
LINE
  8
POINT
  10
-0.35
  20
-0.20
  30
0.00
  11
0.35
  21
-0.20
  31
0.00
  0
LINE
  8
POINT
  10
-0.30
  20
-0.20
  30
0.00
  11
-0.30
  21
0.05
  31
0.00
  0
CIRCLE
  8
POINT
  10
-0.30
  20
0.10
  30
0.00
  40
0.05
  0
LINE
  8
POINT
  10
0.00
  20
-0.20
  30
0.00
  11
0.00
  21
0.05
  31
0.00
  0
CIRCLE
  8
POINT
  10
0.00
  20
0.10
  30
0.00
  40
0.05
  0
LINE
  8
POINT
  10
0.30
  20
-0.20
  30
0.00
  11
0.30
  21
0.05
  31
0.00
  0
CIRCLE
  8
POINT
  10
0.30
  20
0.10
  30
0.00
  40
0.05
  0
ENDBLK
  0
BLOCK
  8
POINT
  2
P_root
  70
64
  10
0.0
  20
0.0
  30
0.0
  0
LINE
  8
POINT
  10
0.00
  20
0.40
  30
0.00
  11
0.00
  21
-0.20
  31
0.00
  0
LINE
  8
POINT
  10
0.00
  20
-0.20
  30
0.00
  11
0.15
  21
-0.35
  31
0.00
  0
LINE
  8
POINT
  10
0.00
  20
-0.05
  30
0.00
  11
0.15
  21
-0.20
  31
0.00
  0
LINE
  8
POINT
  10
0.00
  20
0.10
  30
0.00
  11
0.15
  21
-0.05
  31
0.00
  0
ENDBLK
  0
BLOCK
  8
POINT
  2
P_sand
  70
64
  10
0.0
  20
0.0
  30
0.0
  0
LINE
  8
POINT
  10
-0.35
  20
-0.15
  30
0.00
  11
-0.25
  21
-0.15
  31
0.00
  0
LINE
  8
POINT
  10
-0.25
  20
-0.15
  30
0.00
  11
-0.30
  21
-0.05
  31
0.00
  0
LINE
  8
POINT
  10
-0.30
  20
-0.05
  30
0.00
  11
-0.35
  21
-0.15
  31
0.00
  0
LINE
  8
POINT
  10
0.35
  20
-0.15
  30
0.00
  11
0.25
  21
-0.15
  31
0.00
  0
LINE
  8
POINT
  10
0.25
  20
-0.15
  30
0.00
  11
0.30
  21
-0.05
  31
0.00
  0
LINE
  8
POINT
  10
0.30
  20
-0.05
  30
0.00
  11
0.35
  21
-0.15
  31
0.00
  0
LINE
  8
POINT
  10
-0.05
  20
0.15
  30
0.00
  11
0.05
  21
0.15
  31
0.00
  0
LINE
  8
POINT
  10
0.05
  20
0.15
  30
0.00
  11
0.00
  21
0.25
  31
0.00
  0
LINE
  8
POINT
  10
0.00
  20
0.25
  30
0.00
  11
-0.05
  21
0.15
  31
0.00
  0
ENDBLK
  0
BLOCK
  8
POINT
  2
P_scallop
  70
64
  10
0.0
  20
0.0
  30
0.0
  0
LINE
  8
POINT
  10
0.00
  20
-0.30
  30
0.00
  11
-0.15
  21
-0.00
  31
0.00
  0
ARC
  8
POINT
  10
0.00
  20
-0.00
  30
0.00
  40
0.15
  50
90.00
  51
180.00
  0
ARC
  8
POINT
  10
0.00
  20
-0.00
  30
0.00
  40
0.15
  50
0.00
  51
90.00
  0
LINE
  8
POINT
  10
0.15
  20
-0.00
  30
0.00
  11
0.00
  21
-0.30
  31
0.00
  0
ENDBLK
  0
BLOCK
  8
POINT
  2
P_section
  70
64
  10
0.0
  20
0.0
  30
0.0
  0
LINE
  8
POINT
  10
-0.25
  20
0.25
  30
0.00
  11
-0.25
  21
-0.25
  31
0.00
  0
LINE
  8
POINT
  10
-0.25
  20
-0.25
  30
0.00
  11
0.25
  21
-0.25
  31
0.00
  0
LINE
  8
POINT
  10
0.25
  20
-0.25
  30
0.00
  11
0.25
  21
0.25
  31
0.00
  0
LINE
  8
POINT
  10
0.25
  20
0.25
  30
0.00
  11
-0.25
  21
0.25
  31
0.00
  0
ENDBLK
  0
BLOCK
  8
POINT
  2
P_sink
  70
64
  10
0.0
  20
0.0
  30
0.0
  0
ARC
  8
POINT
  10
0.00
  20
0.15
  30
0.00
  40
0.25
  50
180.00
  51
360.00
  0
ENDBLK
  0
BLOCK
  8
POINT
  2
P_snow
  70
64
  10
0.0
  20
0.0
  30
0.0
  0
LINE
  8
POINT
  10
0.00
  20
0.25
  30
0.00
  11
0.00
  21
-0.25
  31
0.00
  0
LINE
  8
POINT
  10
-0.20
  20
0.15
  30
0.00
  11
0.20
  21
-0.15
  31
0.00
  0
LINE
  8
POINT
  10
-0.20
  20
-0.15
  30
0.00
  11
0.20
  21
0.15
  31
0.00
  0
ENDBLK
  0
BLOCK
  8
POINT
  2
P_soda-straw
  70
64
  10
0.0
  20
0.0
  30
0.0
  0
LINE
  8
POINT
  10
-0.30
  20
0.10
  30
0.00
  11
0.30
  21
0.10
  31
0.00
  0
LINE
  8
POINT
  10
-0.20
  20
0.10
  30
0.00
  11
-0.20
  21
-0.10
  31
0.00
  0
LINE
  8
POINT
  10
0.00
  20
0.10
  30
0.00
  11
0.00
  21
-0.30
  31
0.00
  0
LINE
  8
POINT
  10
0.20
  20
0.10
  30
0.00
  11
0.20
  21
-0.20
  31
0.00
  0
ENDBLK
  0
BLOCK
  8
POINT
  2
P_spring
  70
64
  10
0.0
  20
0.0
  30
0.0
  0
ARC
  8
POINT
  10
0.00
  20
-0.15
  30
0.00
  40
0.25
  50
0.00
  51
180.00
  0
ENDBLK
  0
BLOCK
  8
POINT
  2
P_stalactite
  70
64
  10
0.0
  20
0.0
  30
0.0
  0
LINE
  8
POINT
  10
-0.20
  20
0.20
  30
0.00
  11
0.00
  21
-0.00
  31
0.00
  0
LINE
  8
POINT
  10
0.00
  20
-0.00
  30
0.00
  11
0.20
  21
0.20
  31
0.00
  0
LINE
  8
POINT
  10
0.00
  20
-0.00
  30
0.00
  11
0.00
  21
-0.30
  31
0.00
  0
ENDBLK
  0
BLOCK
  8
POINT
  2
P_stalagmite
  70
64
  10
0.0
  20
0.0
  30
0.0
  0
LINE
  8
POINT
  10
-0.20
  20
-0.20
  30
0.00
  11
0.00
  21
-0.00
  31
0.00
  0
LINE
  8
POINT
  10
0.00
  20
-0.00
  30
0.00
  11
0.20
  21
-0.20
  31
0.00
  0
LINE
  8
POINT
  10
0.00
  20
-0.00
  30
0.00
  11
0.00
  21
0.30
  31
0.00
  0
ENDBLK
  0
BLOCK
  8
POINT
  2
P_wall-calcite
  70
64
  10
0.0
  20
0.0
  30
0.0
  0
LINE
  8
POINT
  10
-0.30
  20
-0.10
  30
0.00
  11
-0.15
  21
0.10
  31
0.00
  0
LINE
  8
POINT
  10
-0.15
  20
0.10
  30
0.00
  11
0.00
  21
-0.10
  31
0.00
  0
LINE
  8
POINT
  10
0.00
  20
-0.10
  30
0.00
  11
0.15
  21
0.10
  31
0.00
  0
LINE
  8
POINT
  10
0.15
  20
0.10
  30
0.00
  11
0.30
  21
-0.10
  31
0.00
  0
ENDBLK
  0
BLOCK
  8
POINT
  2
P_water
  70
64
  10
0.0
  20
0.0
  30
0.0
  0
LINE
  8
POINT
  10
-0.30
  20
0.15
  30
0.00
  11
-0.05
  21
0.15
  31
0.00
  0
LINE
  8
POINT
  10
0.10
  20
0.15
  30
0.00
  11
0.30
  21
0.15
  31
0.00
  0
LINE
  8
POINT
  10
-0.20
  20
-0.00
  30
0.00
  11
0.05
  21
-0.00
  31
0.00
  0
LINE
  8
POINT
  10
0.15
  20
-0.00
  30
0.00
  11
0.35
  21
-0.00
  31
0.00
  0
LINE
  8
POINT
  10
-0.15
  20
-0.15
  30
0.00
  11
0.25
  21
-0.15
  31
0.00
  0
ENDBLK
  0
BLOCK
  8
POINT
  2
P_water-flow
  70
64
  10
0.0
  20
0.0
  30
0.0
  0
ARC
  8
POINT
  10
0.00
  20
-0.08
  30
0.00
  40
0.08
  50
90.00
  51
270.00
  0
ARC
  8
POINT
  10
0.00
  20
0.08
  30
0.00
  40
0.08
  50
270.00
  51
450.00
  0
ARC
  8
POINT
  10
0.00
  20
0.23
  30
0.00
  40
0.08
  50
90.00
  51
270.00
  0
ARC
  8
POINT
  10
0.00
  20
0.38
  30
0.00
  40
0.08
  50
270.00
  51
360.00
  0
ARC
  8
POINT
  10
0.00
  20
0.38
  30
0.00
  40
0.08
  50
0.00
  51
90.00
  0
LINE
  8
POINT
  10
0.00
  20
0.50
  30
0.00
  11
0.20
  21
0.30
  31
0.00
  0
LINE
  8
POINT
  10
0.00
  20
0.50
  30
0.00
  11
-0.20
  21
0.30
  31
0.00
  0
ENDBLK
  0
ENDSEC
  0
SECTION
  2
ENTITIES
  0
LINE
  8
REF
  10
-56.78
  20
-902.78
  30
0.00
  11
143.22
  21
-902.78
  31
0.00
  0
LINE
  8
REF
  10
-56.78
  20
-902.78
  30
0.00
  11
-56.78
  21
-702.78
  31
0.00
  0
TEXT
  8
REF
  10
144.22
  20
-902.78
  30
0.00
  40
0.30
  1
"10"
  0
TEXT
  8
REF
  10
-56.78
  20
-701.78
  30
0.00
  40
0.30
  1
"10"
  0
LINE
  8
LEG
  10
100.00
  20
-120.00
  30
0.00
  11
55.71
  21
-196.02
  31
0.00
  0
LINE
  8
LEG
  10
55.71
  20
-196.02
  30
0.00
  11
125.88
  21
-179.41
  31
0.00
  0
LINE
  8
LEG
  10
125.88
  20
-179.41
  30
0.00
  11
210.42
  21
-190.66
  31
0.00
  0
LINE
  8
LEG
  10
210.42
  20
-190.66
  30
0.00
  11
254.42
  21
-246.04
  31
0.00
  0
LINE
  8
LEG
  10
254.42
  20
-246.04
  30
0.00
  11
413.18
  21
-336.64
  31
0.00
  0
LINE
  8
LEG
  10
413.18
  20
-336.64
  30
0.00
  11
473.48
  21
-320.48
  31
0.00
  0
LINE
  8
LEG
  10
473.48
  20
-320.48
  30
0.00
  11
514.89
  21
-321.46
  31
0.00
  0
LINE
  8
LEG
  10
514.89
  20
-321.46
  30
0.00
  11
554.80
  21
-238.12
  31
0.00
  0
LINE
  8
LEG
  10
554.80
  20
-238.12
  30
0.00
  11
660.84
  21
-260.14
  31
0.00
  0
LINE
  8
LEG
  10
660.84
  20
-260.14
  30
0.00
  11
720.82
  21
-290.27
  31
0.00
  0
LINE
  8
LEG
  10
720.82
  20
-290.27
  30
0.00
  11
797.64
  21
-269.60
  31
0.00
  0
LINE
  8
LEG
  10
797.64
  20
-269.60
  30
0.00
  11
823.91
  21
-172.47
  31
0.00
  0
LINE
  8
LEG
  10
823.91
  20
-172.47
  30
0.00
  11
816.77
  21
-123.49
  31
0.00
  0
LINE
  8
LEG
  10
816.77
  20
-123.49
  30
0.00
  11
695.43
  21
-74.67
  31
0.00
  0
LINE
  8
LEG
  10
695.43
  20
-74.67
  30
0.00
  11
667.89
  21
15.28
  31
0.00
  0
LINE
  8
LEG
  10
667.89
  20
15.28
  30
0.00
  11
554.57
  21
13.54
  31
0.00
  0
LINE
  8
LEG
  10
554.57
  20
13.54
  30
0.00
  11
536.68
  21
110.12
  31
0.00
  0
LINE
  8
LEG
  10
536.68
  20
110.12
  30
0.00
  11
468.61
  21
124.44
  31
0.00
  0
LINE
  8
LEG
  10
816.77
  20
-123.49
  30
0.00
  11
956.54
  21
-188.67
  31
0.00
  0
LINE
  8
LEG
  10
720.82
  20
-290.27
  30
0.00
  11
902.32
  21
-369.93
  31
0.00
  0
LINE
  8
LEG
  10
902.32
  20
-369.93
  30
0.00
  11
905.79
  21
-446.77
  31
0.00
  0
LINE
  8
LEG
  10
720.82
  20
-290.27
  30
0.00
  11
789.63
  21
-417.44
  31
0.00
  0
LINE
  8
LEG
  10
789.63
  20
-417.44
  30
0.00
  11
840.25
  21
-507.63
  31
0.00
  0
LINE
  8
LEG
  10
840.25
  20
-507.63
  30
0.00
  11
966.22
  21
-593.93
  31
0.00
  0
LINE
  8
LEG
  10
966.22
  20
-593.93
  30
0.00
  11
988.82
  21
-653.01
  31
0.00
  0
LINE
  8
LEG
  10
988.82
  20
-653.01
  30
0.00
  11
922.97
  21
-735.97
  31
0.00
  0
LINE
  8
LEG
  10
966.22
  20
-593.93
  30
0.00
  11
1058.76
  21
-714.99
  31
0.00
  0
LINE
  8
LEG
  10
1058.76
  20
-714.99
  30
0.00
  11
1076.90
  21
-728.09
  31
0.00
  0
LINE
  8
LEG
  10
1076.90
  20
-728.09
  30
0.00
  11
1126.04
  21
-719.55
  31
0.00
  0
LINE
  8
LEG
  10
1126.04
  20
-719.55
  30
0.00
  11
1187.35
  21
-755.41
  31
0.00
  0
LINE
  8
LEG
  10
1187.35
  20
-755.41
  30
0.00
  11
1222.31
  21
-767.30
  31
0.00
  0
LINE
  8
LEG
  10
1222.31
  20
-767.30
  30
0.00
  11
1256.07
  21
-814.83
  31
0.00
  0
LINE
  8
LEG
  10
1256.07
  20
-814.83
  30
0.00
  11
1335.67
  21
-848.89
  31
0.00
  0
LINE
  8
LEG
  10
1335.67
  20
-848.89
  30
0.00
  11
1445.55
  21
-864.17
  31
0.00
  0
LINE
  8
LEG
  10
1445.55
  20
-864.17
  30
0.00
  11
1534.17
  21
-854.10
  31
0.00
  0
LINE
  8
LEG
  10
1534.17
  20
-854.10
  30
0.00
  11
1586.23
  21
-847.47
  31
0.00
  0
LINE
  8
LEG
  10
1586.23
  20
-847.47
  30
0.00
  11
1608.75
  21
-875.38
  31
0.00
  0
LINE
  8
LEG
  10
1608.75
  20
-875.38
  30
0.00
  11
1632.98
  21
-894.22
  31
0.00
  0
LINE
  8
LEG
  10
413.18
  20
-336.64
  30
0.00
  11
415.46
  21
-276.14
  31
0.00
  0
LINE
  8
LEG
  10
415.46
  20
-276.14
  30
0.00
  11
453.60
  21
-236.82
  31
0.00
  0
LINE
  8
LEG
  10
210.42
  20
-190.66
  30
0.00
  11
158.68
  21
-281.63
  31
0.00
  0
LINE
  8
LEG
  10
158.68
  20
-281.63
  30
0.00
  11
150.71
  21
-261.12
  31
0.00
  0
LINE
  8
SPLAY
  10
100.00
  20
-120.00
  30
0.00
  11
103.94
  21
-117.26
  31
0.00
  0
LINE
  8
SPLAY
  10
100.00
  20
-120.00
  30
0.00
  11
140.62
  21
-181.52
  31
0.00
  0
LINE
  8
SPLAY
  10
100.00
  20
-120.00
  30
0.00
  11
113.47
  21
-191.31
  31
0.00
  0
LINE
  8
SPLAY
  10
100.00
  20
-120.00
  30
0.00
  11
92.17
  21
-185.08
  31
0.00
  0
LINE
  8
SPLAY
  10
100.00
  20
-120.00
  30
0.00
  11
70.01
  21
-187.06
  31
0.00
  0
LINE
  8
SPLAY
  10
100.00
  20
-120.00
  30
0.00
  11
80.62
  21
-151.59
  31
0.00
  0
LINE
  8
SPLAY
  10
100.00
  20
-120.00
  30
0.00
  11
68.62
  21
-136.51
  31
0.00
  0
LINE
  8
SPLAY
  10
100.00
  20
-120.00
  30
0.00
  11
82.28
  21
-122.99
  31
0.00
  0
LINE
  8
SPLAY
  10
100.00
  20
-120.00
  30
0.00
  11
87.63
  21
-119.21
  31
0.00
  0
LINE
  8
SPLAY
  10
55.71
  20
-196.02
  30
0.00
  11
67.29
  21
-208.79
  31
0.00
  0
LINE
  8
SPLAY
  10
55.71
  20
-196.02
  30
0.00
  11
60.17
  21
-234.14
  31
0.00
  0
LINE
  8
SPLAY
  10
55.71
  20
-196.02
  30
0.00
  11
76.90
  21
-294.07
  31
0.00
  0
LINE
  8
SPLAY
  10
55.71
  20
-196.02
  30
0.00
  11
51.31
  21
-266.43
  31
0.00
  0
LINE
  8
SPLAY
  10
55.71
  20
-196.02
  30
0.00
  11
12.89
  21
-250.26
  31
0.00
  0
LINE
  8
SPLAY
  10
55.71
  20
-196.02
  30
0.00
  11
-20.65
  21
-232.56
  31
0.00
  0
LINE
  8
SPLAY
  10
55.71
  20
-196.02
  30
0.00
  11
-37.25
  21
-207.59
  31
0.00
  0
LINE
  8
SPLAY
  10
55.71
  20
-196.02
  30
0.00
  11
-13.62
  21
-198.18
  31
0.00
  0
LINE
  8
SPLAY
  10
55.71
  20
-196.02
  30
0.00
  11
-5.00
  21
-169.82
  31
0.00
  0
LINE
  8
SPLAY
  10
55.71
  20
-196.02
  30
0.00
  11
11.58
  21
-150.83
  31
0.00
  0
LINE
  8
SPLAY
  10
55.71
  20
-196.02
  30
0.00
  11
37.26
  21
-156.55
  31
0.00
  0
LINE
  8
SPLAY
  10
55.71
  20
-196.02
  30
0.00
  11
68.80
  21
-186.57
  31
0.00
  0
LINE
  8
SPLAY
  10
55.71
  20
-196.02
  30
0.00
  11
69.00
  21
-185.64
  31
0.00
  0
LINE
  8
SPLAY
  10
55.71
  20
-196.02
  30
0.00
  11
38.43
  21
-155.95
  31
0.00
  0
LINE
  8
SPLAY
  10
55.71
  20
-196.02
  30
0.00
  11
124.41
  21
-173.37
  31
0.00
  0
LINE
  8
SPLAY
  10
55.71
  20
-196.02
  30
0.00
  11
80.54
  21
-151.63
  31
0.00
  0
LINE
  8
SPLAY
  10
55.71
  20
-196.02
  30
0.00
  11
97.62
  21
-157.63
  31
0.00
  0
LINE
  8
SPLAY
  10
55.71
  20
-196.02
  30
0.00
  11
110.30
  21
-171.65
  31
0.00
  0
LINE
  8
SPLAY
  10
55.71
  20
-196.02
  30
0.00
  11
105.92
  21
-191.62
  31
0.00
  0
LINE
  8
SPLAY
  10
55.71
  20
-196.02
  30
0.00
  11
96.55
  21
-202.56
  31
0.00
  0
LINE
  8
SPLAY
  10
55.71
  20
-196.02
  30
0.00
  11
75.44
  21
-212.40
  31
0.00
  0
LINE
  8
SPLAY
  10
55.71
  20
-196.02
  30
0.00
  11
92.96
  21
-194.21
  31
0.00
  0
LINE
  8
SPLAY
  10
55.71
  20
-196.02
  30
0.00
  11
74.75
  21
-214.35
  31
0.00
  0
LINE
  8
SPLAY
  10
55.71
  20
-196.02
  30
0.00
  11
128.08
  21
-172.97
  31
0.00
  0
LINE
  8
SPLAY
  10
210.42
  20
-190.66
  30
0.00
  11
221.43
  21
-165.06
  31
0.00
  0
LINE
  8
SPLAY
  10
210.42
  20
-190.66
  30
0.00
  11
193.87
  21
-142.46
  31
0.00
  0
LINE
  8
SPLAY
  10
210.42
  20
-190.66
  30
0.00
  11
165.84
  21
-129.95
  31
0.00
  0
LINE
  8
SPLAY
  10
210.42
  20
-190.66
  30
0.00
  11
170.25
  21
-169.71
  31
0.00
  0
LINE
  8
SPLAY
  10
210.42
  20
-190.66
  30
0.00
  11
162.37
  21
-176.58
  31
0.00
  0
LINE
  8
SPLAY
  10
210.42
  20
-190.66
  30
0.00
  11
139.86
  21
-213.20
  31
0.00
  0
LINE
  8
SPLAY
  10
210.42
  20
-190.66
  30
0.00
  11
144.00
  21
-234.67
  31
0.00
  0
LINE
  8
SPLAY
  10
210.42
  20
-190.66
  30
0.00
  11
143.30
  21
-270.80
  31
0.00
  0
LINE
  8
SPLAY
  10
210.42
  20
-190.66
  30
0.00
  11
163.75
  21
-286.05
  31
0.00
  0
LINE
  8
SPLAY
  10
210.42
  20
-190.66
  30
0.00
  11
165.99
  21
-288.36
  31
0.00
  0
LINE
  8
SPLAY
  10
210.42
  20
-190.66
  30
0.00
  11
193.62
  21
-237.10
  31
0.00
  0
LINE
  8
SPLAY
  10
210.42
  20
-190.66
  30
0.00
  11
209.00
  21
-241.28
  31
0.00
  0
LINE
  8
SPLAY
  10
210.42
  20
-190.66
  30
0.00
  11
225.42
  21
-215.44
  31
0.00
  0
LINE
  8
SPLAY
  10
210.42
  20
-190.66
  30
0.00
  11
235.39
  21
-205.98
  31
0.00
  0
LINE
  8
SPLAY
  10
210.42
  20
-190.66
  30
0.00
  11
230.25
  21
-166.69
  31
0.00
  0
LINE
  8
SPLAY
  10
254.42
  20
-246.04
  30
0.00
  11
241.63
  21
-188.99
  31
0.00
  0
LINE
  8
SPLAY
  10
254.42
  20
-246.04
  30
0.00
  11
252.55
  21
-182.97
  31
0.00
  0
LINE
  8
SPLAY
  10
254.42
  20
-246.04
  30
0.00
  11
277.54
  21
-204.69
  31
0.00
  0
LINE
  8
SPLAY
  10
254.42
  20
-246.04
  30
0.00
  11
330.99
  21
-230.18
  31
0.00
  0
LINE
  8
SPLAY
  10
254.42
  20
-246.04
  30
0.00
  11
370.76
  21
-265.85
  31
0.00
  0
LINE
  8
SPLAY
  10
254.42
  20
-246.04
  30
0.00
  11
354.90
  21
-334.33
  31
0.00
  0
LINE
  8
SPLAY
  10
254.42
  20
-246.04
  30
0.00
  11
311.63
  21
-334.17
  31
0.00
  0
LINE
  8
SPLAY
  10
254.42
  20
-246.04
  30
0.00
  11
275.42
  21
-325.78
  31
0.00
  0
LINE
  8
SPLAY
  10
254.42
  20
-246.04
  30
0.00
  11
230.51
  21
-326.61
  31
0.00
  0
LINE
  8
SPLAY
  10
254.42
  20
-246.04
  30
0.00
  11
222.87
  21
-268.24
  31
0.00
  0
LINE
  8
SPLAY
  10
254.42
  20
-246.04
  30
0.00
  11
227.60
  21
-242.27
  31
0.00
  0
LINE
  8
SPLAY
  10
254.42
  20
-246.04
  30
0.00
  11
233.75
  21
-228.77
  31
0.00
  0
LINE
  8
SPLAY
  10
413.18
  20
-336.64
  30
0.00
  11
400.02
  21
-273.61
  31
0.00
  0
LINE
  8
SPLAY
  10
413.18
  20
-336.64
  30
0.00
  11
420.67
  21
-288.37
  31
0.00
  0
LINE
  8
SPLAY
  10
413.18
  20
-336.64
  30
0.00
  11
434.83
  21
-293.78
  31
0.00
  0
LINE
  8
SPLAY
  10
413.18
  20
-336.64
  30
0.00
  11
457.94
  21
-303.87
  31
0.00
  0
LINE
  8
SPLAY
  10
413.18
  20
-336.64
  30
0.00
  11
465.39
  21
-310.79
  31
0.00
  0
LINE
  8
SPLAY
  10
413.18
  20
-336.64
  30
0.00
  11
483.25
  21
-337.81
  31
0.00
  0
LINE
  8
SPLAY
  10
413.18
  20
-336.64
  30
0.00
  11
470.85
  21
-347.82
  31
0.00
  0
LINE
  8
SPLAY
  10
413.18
  20
-336.64
  30
0.00
  11
447.66
  21
-364.94
  31
0.00
  0
LINE
  8
SPLAY
  10
413.18
  20
-336.64
  30
0.00
  11
408.98
  21
-364.46
  31
0.00
  0
LINE
  8
SPLAY
  10
413.18
  20
-336.64
  30
0.00
  11
373.69
  21
-353.97
  31
0.00
  0
LINE
  8
SPLAY
  10
413.18
  20
-336.64
  30
0.00
  11
359.95
  21
-341.27
  31
0.00
  0
LINE
  8
SPLAY
  10
473.48
  20
-320.48
  30
0.00
  11
496.48
  21
-328.19
  31
0.00
  0
LINE
  8
SPLAY
  10
473.48
  20
-320.48
  30
0.00
  11
481.48
  21
-334.81
  31
0.00
  0
LINE
  8
SPLAY
  10
473.48
  20
-320.48
  30
0.00
  11
472.00
  21
-335.31
  31
0.00
  0
LINE
  8
SPLAY
  10
473.48
  20
-320.48
  30
0.00
  11
461.32
  21
-305.74
  31
0.00
  0
LINE
  8
SPLAY
  10
473.48
  20
-320.48
  30
0.00
  11
474.44
  21
-306.19
  31
0.00
  0
LINE
  8
SPLAY
  10
473.48
  20
-320.48
  30
0.00
  11
496.52
  21
-313.17
  31
0.00
  0
LINE
  8
SPLAY
  10
473.48
  20
-320.48
  30
0.00
  11
503.26
  21
-317.41
  31
0.00
  0
LINE
  8
SPLAY
  10
514.89
  20
-321.46
  30
0.00
  11
514.63
  21
-301.55
  31
0.00
  0
LINE
  8
SPLAY
  10
514.89
  20
-321.46
  30
0.00
  11
506.35
  21
-307.74
  31
0.00
  0
LINE
  8
SPLAY
  10
514.89
  20
-321.46
  30
0.00
  11
502.27
  21
-311.69
  31
0.00
  0
LINE
  8
SPLAY
  10
514.89
  20
-321.46
  30
0.00
  11
508.03
  21
-328.34
  31
0.00
  0
LINE
  8
SPLAY
  10
514.89
  20
-321.46
  30
0.00
  11
521.25
  21
-319.47
  31
0.00
  0
LINE
  8
SPLAY
  10
554.80
  20
-238.12
  30
0.00
  11
524.16
  21
-320.73
  31
0.00
  0
LINE
  8
SPLAY
  10
554.80
  20
-238.12
  30
0.00
  11
540.38
  21
-301.90
  31
0.00
  0
LINE
  8
SPLAY
  10
554.80
  20
-238.12
  30
0.00
  11
558.36
  21
-271.41
  31
0.00
  0
LINE
  8
SPLAY
  10
554.80
  20
-238.12
  30
0.00
  11
579.37
  21
-272.64
  31
0.00
  0
LINE
  8
SPLAY
  10
554.80
  20
-238.12
  30
0.00
  11
611.53
  21
-264.37
  31
0.00
  0
LINE
  8
SPLAY
  10
554.80
  20
-238.12
  30
0.00
  11
635.22
  21
-259.35
  31
0.00
  0
LINE
  8
SPLAY
  10
554.80
  20
-238.12
  30
0.00
  11
526.72
  21
-281.57
  31
0.00
  0
LINE
  8
SPLAY
  10
554.80
  20
-238.12
  30
0.00
  11
516.36
  21
-263.20
  31
0.00
  0
LINE
  8
SPLAY
  10
554.80
  20
-238.12
  30
0.00
  11
505.52
  21
-234.77
  31
0.00
  0
LINE
  8
SPLAY
  10
554.80
  20
-238.12
  30
0.00
  11
539.94
  21
-232.99
  31
0.00
  0
LINE
  8
SPLAY
  10
554.80
  20
-238.12
  30
0.00
  11
579.90
  21
-223.57
  31
0.00
  0
LINE
  8
SPLAY
  10
554.80
  20
-238.12
  30
0.00
  11
617.09
  21
-223.20
  31
0.00
  0
LINE
  8
SPLAY
  10
554.80
  20
-238.12
  30
0.00
  11
626.05
  21
-236.14
  31
0.00
  0
LINE
  8
SPLAY
  10
660.84
  20
-260.14
  30
0.00
  11
661.69
  21
-267.78
  31
0.00
  0
LINE
  8
SPLAY
  10
660.84
  20
-260.14
  30
0.00
  11
643.64
  21
-265.33
  31
0.00
  0
LINE
  8
SPLAY
  10
660.84
  20
-260.14
  30
0.00
  11
638.20
  21
-261.18
  31
0.00
  0
LINE
  8
SPLAY
  10
660.84
  20
-260.14
  30
0.00
  11
694.52
  21
-246.04
  31
0.00
  0
LINE
  8
SPLAY
  10
660.84
  20
-260.14
  30
0.00
  11
677.71
  21
-233.01
  31
0.00
  0
LINE
  8
SPLAY
  10
660.84
  20
-260.14
  30
0.00
  11
652.34
  21
-217.93
  31
0.00
  0
LINE
  8
SPLAY
  10
660.84
  20
-260.14
  30
0.00
  11
629.40
  21
-230.12
  31
0.00
  0
LINE
  8
SPLAY
  10
720.82
  20
-290.27
  30
0.00
  11
697.79
  21
-256.76
  31
0.00
  0
LINE
  8
SPLAY
  10
720.82
  20
-290.27
  30
0.00
  11
743.41
  21
-267.30
  31
0.00
  0
LINE
  8
SPLAY
  10
720.82
  20
-290.27
  30
0.00
  11
777.20
  21
-258.71
  31
0.00
  0
LINE
  8
SPLAY
  10
720.82
  20
-290.27
  30
0.00
  11
883.16
  21
-215.07
  31
0.00
  0
LINE
  8
SPLAY
  10
720.82
  20
-290.27
  30
0.00
  11
864.30
  21
-278.06
  31
0.00
  0
LINE
  8
SPLAY
  10
720.82
  20
-290.27
  30
0.00
  11
854.54
  21
-336.32
  31
0.00
  0
LINE
  8
SPLAY
  10
720.82
  20
-290.27
  30
0.00
  11
839.36
  21
-379.90
  31
0.00
  0
LINE
  8
SPLAY
  10
720.82
  20
-290.27
  30
0.00
  11
834.91
  21
-426.84
  31
0.00
  0
LINE
  8
SPLAY
  10
720.82
  20
-290.27
  30
0.00
  11
811.81
  21
-417.96
  31
0.00
  0
LINE
  8
SPLAY
  10
720.82
  20
-290.27
  30
0.00
  11
780.57
  21
-413.87
  31
0.00
  0
LINE
  8
SPLAY
  10
720.82
  20
-290.27
  30
0.00
  11
761.15
  21
-411.97
  31
0.00
  0
LINE
  8
SPLAY
  10
720.82
  20
-290.27
  30
0.00
  11
737.61
  21
-390.34
  31
0.00
  0
LINE
  8
SPLAY
  10
720.82
  20
-290.27
  30
0.00
  11
727.68
  21
-351.07
  31
0.00
  0
LINE
  8
SPLAY
  10
720.82
  20
-290.27
  30
0.00
  11
717.71
  21
-322.01
  31
0.00
  0
LINE
  8
SPLAY
  10
720.82
  20
-290.27
  30
0.00
  11
698.57
  21
-316.96
  31
0.00
  0
LINE
  8
SPLAY
  10
720.82
  20
-290.27
  30
0.00
  11
667.90
  21
-291.00
  31
0.00
  0
LINE
  8
SPLAY
  10
720.82
  20
-290.27
  30
0.00
  11
664.68
  21
-267.15
  31
0.00
  0
LINE
  8
SPLAY
  10
720.82
  20
-290.27
  30
0.00
  11
750.62
  21
-333.32
  31
0.00
  0
LINE
  8
SPLAY
  10
720.82
  20
-290.27
  30
0.00
  11
772.89
  21
-304.67
  31
0.00
  0
LINE
  8
SPLAY
  10
720.82
  20
-290.27
  30
0.00
  11
760.15
  21
-305.09
  31
0.00
  0
LINE
  8
SPLAY
  10
720.82
  20
-290.27
  30
0.00
  11
728.26
  21
-339.48
  31
0.00
  0
LINE
  8
SPLAY
  10
720.82
  20
-290.27
  30
0.00
  11
930.71
  21
-379.32
  31
0.00
  0
LINE
  8
SPLAY
  10
720.82
  20
-290.27
  30
0.00
  11
929.57
  21
-399.88
  31
0.00
  0
LINE
  8
SPLAY
  10
720.82
  20
-290.27
  30
0.00
  11
905.02
  21
-415.67
  31
0.00
  0
LINE
  8
SPLAY
  10
720.82
  20
-290.27
  30
0.00
  11
872.16
  21
-403.21
  31
0.00
  0
LINE
  8
SPLAY
  10
797.64
  20
-269.60
  30
0.00
  11
867.70
  21
-271.58
  31
0.00
  0
LINE
  8
SPLAY
  10
797.64
  20
-269.60
  30
0.00
  11
880.75
  21
-227.92
  31
0.00
  0
LINE
  8
SPLAY
  10
797.64
  20
-269.60
  30
0.00
  11
846.27
  21
-195.09
  31
0.00
  0
LINE
  8
SPLAY
  10
797.64
  20
-269.60
  30
0.00
  11
837.11
  21
-186.40
  31
0.00
  0
LINE
  8
SPLAY
  10
797.64
  20
-269.60
  30
0.00
  11
748.62
  21
-264.76
  31
0.00
  0
LINE
  8
SPLAY
  10
797.64
  20
-269.60
  30
0.00
  11
781.38
  21
-258.23
  31
0.00
  0
LINE
  8
SPLAY
  10
797.64
  20
-269.60
  30
0.00
  11
790.38
  21
-223.98
  31
0.00
  0
LINE
  8
SPLAY
  10
823.91
  20
-172.47
  30
0.00
  11
831.82
  21
-208.40
  31
0.00
  0
LINE
  8
SPLAY
  10
823.91
  20
-172.47
  30
0.00
  11
803.03
  21
-172.83
  31
0.00
  0
LINE
  8
SPLAY
  10
823.91
  20
-172.47
  30
0.00
  11
777.93
  21
-140.08
  31
0.00
  0
LINE
  8
SPLAY
  10
823.91
  20
-172.47
  30
0.00
  11
769.43
  21
-130.60
  31
0.00
  0
LINE
  8
SPLAY
  10
816.77
  20
-123.49
  30
0.00
  11
766.24
  21
-120.13
  31
0.00
  0
LINE
  8
SPLAY
  10
816.77
  20
-123.49
  30
0.00
  11
772.43
  21
-139.85
  31
0.00
  0
LINE
  8
SPLAY
  10
816.77
  20
-123.49
  30
0.00
  11
771.10
  21
-167.10
  31
0.00
  0
LINE
  8
SPLAY
  10
816.77
  20
-123.49
  30
0.00
  11
775.15
  21
-165.96
  31
0.00
  0
LINE
  8
SPLAY
  10
816.77
  20
-123.49
  30
0.00
  11
783.12
  21
-192.46
  31
0.00
  0
LINE
  8
SPLAY
  10
816.77
  20
-123.49
  30
0.00
  11
792.98
  21
-211.27
  31
0.00
  0
LINE
  8
SPLAY
  10
816.77
  20
-123.49
  30
0.00
  11
787.38
  21
-104.87
  31
0.00
  0
LINE
  8
SPLAY
  10
816.77
  20
-123.49
  30
0.00
  11
810.75
  21
-113.24
  31
0.00
  0
LINE
  8
SPLAY
  10
816.77
  20
-123.49
  30
0.00
  11
826.85
  21
-121.63
  31
0.00
  0
LINE
  8
SPLAY
  10
816.77
  20
-123.49
  30
0.00
  11
843.65
  21
-124.62
  31
0.00
  0
LINE
  8
SPLAY
  10
816.77
  20
-123.49
  30
0.00
  11
845.41
  21
-155.24
  31
0.00
  0
LINE
  8
SPLAY
  10
816.77
  20
-123.49
  30
0.00
  11
829.09
  21
-168.27
  31
0.00
  0
LINE
  8
SPLAY
  10
816.77
  20
-123.49
  30
0.00
  11
825.89
  21
-174.66
  31
0.00
  0
LINE
  8
SPLAY
  10
667.89
  20
15.28
  30
0.00
  11
653.99
  21
5.10
  31
0.00
  0
LINE
  8
SPLAY
  10
667.89
  20
15.28
  30
0.00
  11
665.35
  21
-20.95
  31
0.00
  0
LINE
  8
SPLAY
  10
667.89
  20
15.28
  30
0.00
  11
680.47
  21
-41.18
  31
0.00
  0
LINE
  8
SPLAY
  10
667.89
  20
15.28
  30
0.00
  11
700.02
  21
-77.26
  31
0.00
  0
LINE
  8
SPLAY
  10
667.89
  20
15.28
  30
0.00
  11
740.72
  21
-49.31
  31
0.00
  0
LINE
  8
SPLAY
  10
667.89
  20
15.28
  30
0.00
  11
701.05
  21
-11.86
  31
0.00
  0
LINE
  8
SPLAY
  10
667.89
  20
15.28
  30
0.00
  11
696.68
  21
11.85
  31
0.00
  0
LINE
  8
SPLAY
  10
667.89
  20
15.28
  30
0.00
  11
672.60
  21
35.02
  31
0.00
  0
LINE
  8
SPLAY
  10
554.57
  20
13.54
  30
0.00
  11
531.60
  21
62.10
  31
0.00
  0
LINE
  8
SPLAY
  10
554.57
  20
13.54
  30
0.00
  11
533.10
  21
32.20
  31
0.00
  0
LINE
  8
SPLAY
  10
554.57
  20
13.54
  30
0.00
  11
518.99
  21
9.28
  31
0.00
  0
LINE
  8
SPLAY
  10
554.57
  20
13.54
  30
0.00
  11
544.48
  21
-15.33
  31
0.00
  0
LINE
  8
SPLAY
  10
554.57
  20
13.54
  30
0.00
  11
584.49
  21
-45.63
  31
0.00
  0
LINE
  8
SPLAY
  10
554.57
  20
13.54
  30
0.00
  11
601.53
  21
-23.02
  31
0.00
  0
LINE
  8
SPLAY
  10
554.57
  20
13.54
  30
0.00
  11
649.83
  21
-13.60
  31
0.00
  0
LINE
  8
SPLAY
  10
554.57
  20
13.54
  30
0.00
  11
652.04
  21
2.30
  31
0.00
  0
LINE
  8
SPLAY
  10
554.57
  20
13.54
  30
0.00
  11
555.36
  21
61.68
  31
0.00
  0
LINE
  8
SPLAY
  10
554.57
  20
13.54
  30
0.00
  11
574.83
  21
54.45
  31
0.00
  0
LINE
  8
SPLAY
  10
554.57
  20
13.54
  30
0.00
  11
604.55
  21
46.42
  31
0.00
  0
LINE
  8
SPLAY
  10
554.57
  20
13.54
  30
0.00
  11
658.31
  21
51.33
  31
0.00
  0
LINE
  8
SPLAY
  10
554.57
  20
13.54
  30
0.00
  11
671.64
  21
24.26
  31
0.00
  0
LINE
  8
SPLAY
  10
536.68
  20
110.12
  30
0.00
  11
514.14
  21
93.32
  31
0.00
  0
LINE
  8
SPLAY
  10
536.68
  20
110.12
  30
0.00
  11
482.36
  21
101.49
  31
0.00
  0
LINE
  8
SPLAY
  10
902.32
  20
-369.93
  30
0.00
  11
933.46
  21
-388.81
  31
0.00
  0
LINE
  8
SPLAY
  10
902.32
  20
-369.93
  30
0.00
  11
923.58
  21
-370.77
  31
0.00
  0
LINE
  8
SPLAY
  10
902.32
  20
-369.93
  30
0.00
  11
917.77
  21
-411.28
  31
0.00
  0
LINE
  8
SPLAY
  10
902.32
  20
-369.93
  30
0.00
  11
867.29
  21
-401.39
  31
0.00
  0
LINE
  8
SPLAY
  10
902.32
  20
-369.93
  30
0.00
  11
897.60
  21
-418.42
  31
0.00
  0
LINE
  8
SPLAY
  10
840.25
  20
-507.63
  30
0.00
  11
748.97
  21
-468.02
  31
0.00
  0
LINE
  8
SPLAY
  10
840.25
  20
-507.63
  30
0.00
  11
797.15
  21
-504.48
  31
0.00
  0
LINE
  8
SPLAY
  10
840.25
  20
-507.63
  30
0.00
  11
816.80
  21
-529.88
  31
0.00
  0
LINE
  8
SPLAY
  10
840.25
  20
-507.63
  30
0.00
  11
839.94
  21
-547.22
  31
0.00
  0
LINE
  8
SPLAY
  10
840.25
  20
-507.63
  30
0.00
  11
867.69
  21
-602.50
  31
0.00
  0
LINE
  8
SPLAY
  10
840.25
  20
-507.63
  30
0.00
  11
930.54
  21
-652.29
  31
0.00
  0
LINE
  8
SPLAY
  10
840.25
  20
-507.63
  30
0.00
  11
814.49
  21
-433.18
  31
0.00
  0
LINE
  8
SPLAY
  10
840.25
  20
-507.63
  30
0.00
  11
843.11
  21
-442.17
  31
0.00
  0
LINE
  8
SPLAY
  10
840.25
  20
-507.63
  30
0.00
  11
849.52
  21
-442.81
  31
0.00
  0
LINE
  8
SPLAY
  10
840.25
  20
-507.63
  30
0.00
  11
849.08
  21
-480.88
  31
0.00
  0
LINE
  8
SPLAY
  10
840.25
  20
-507.63
  30
0.00
  11
861.02
  21
-490.58
  31
0.00
  0
LINE
  8
SPLAY
  10
840.25
  20
-507.63
  30
0.00
  11
898.62
  21
-526.95
  31
0.00
  0
LINE
  8
SPLAY
  10
840.25
  20
-507.63
  30
0.00
  11
965.89
  21
-602.20
  31
0.00
  0
LINE
  8
SPLAY
  10
966.22
  20
-593.93
  30
0.00
  11
900.45
  21
-536.01
  31
0.00
  0
LINE
  8
SPLAY
  10
966.22
  20
-593.93
  30
0.00
  11
950.08
  21
-572.79
  31
0.00
  0
LINE
  8
SPLAY
  10
966.22
  20
-593.93
  30
0.00
  11
839.59
  21
-556.09
  31
0.00
  0
LINE
  8
SPLAY
  10
966.22
  20
-593.93
  30
0.00
  11
815.81
  21
-595.66
  31
0.00
  0
LINE
  8
SPLAY
  10
966.22
  20
-593.93
  30
0.00
  11
899.04
  21
-621.08
  31
0.00
  0
LINE
  8
SPLAY
  10
966.22
  20
-593.93
  30
0.00
  11
930.05
  21
-658.36
  31
0.00
  0
LINE
  8
SPLAY
  10
966.22
  20
-593.93
  30
0.00
  11
1008.04
  21
-614.31
  31
0.00
  0
LINE
  8
SPLAY
  10
966.22
  20
-593.93
  30
0.00
  11
1042.45
  21
-656.14
  31
0.00
  0
LINE
  8
SPLAY
  10
966.22
  20
-593.93
  30
0.00
  11
1121.13
  21
-761.40
  31
0.00
  0
LINE
  8
SPLAY
  10
966.22
  20
-593.93
  30
0.00
  11
1023.76
  21
-704.23
  31
0.00
  0
LINE
  8
SPLAY
  10
966.22
  20
-593.93
  30
0.00
  11
997.37
  21
-715.10
  31
0.00
  0
LINE
  8
SPLAY
  10
966.22
  20
-593.93
  30
0.00
  11
837.45
  21
-520.74
  31
0.00
  0
LINE
  8
SPLAY
  10
966.22
  20
-593.93
  30
0.00
  11
872.92
  21
-560.20
  31
0.00
  0
LINE
  8
SPLAY
  10
966.22
  20
-593.93
  30
0.00
  11
919.26
  21
-619.95
  31
0.00
  0
LINE
  8
SPLAY
  10
966.22
  20
-593.93
  30
0.00
  11
956.12
  21
-729.61
  31
0.00
  0
LINE
  8
SPLAY
  10
988.82
  20
-653.01
  30
0.00
  11
991.33
  21
-700.29
  31
0.00
  0
LINE
  8
SPLAY
  10
988.82
  20
-653.01
  30
0.00
  11
961.33
  21
-750.39
  31
0.00
  0
LINE
  8
SPLAY
  10
988.82
  20
-653.01
  30
0.00
  11
917.55
  21
-751.36
  31
0.00
  0
LINE
  8
SPLAY
  10
988.82
  20
-653.01
  30
0.00
  11
923.29
  21
-692.24
  31
0.00
  0
LINE
  8
SPLAY
  10
1058.76
  20
-714.99
  30
0.00
  11
1076.98
  21
-700.33
  31
0.00
  0
LINE
  8
SPLAY
  10
1058.76
  20
-714.99
  30
0.00
  11
1110.03
  21
-711.94
  31
0.00
  0
LINE
  8
SPLAY
  10
1058.76
  20
-714.99
  30
0.00
  11
1057.40
  21
-742.07
  31
0.00
  0
LINE
  8
SPLAY
  10
1058.76
  20
-714.99
  30
0.00
  11
1078.29
  21
-768.87
  31
0.00
  0
LINE
  8
SPLAY
  10
1126.04
  20
-719.55
  30
0.00
  11
1098.61
  21
-707.64
  31
0.00
  0
LINE
  8
SPLAY
  10
1126.04
  20
-719.55
  30
0.00
  11
1120.79
  21
-696.33
  31
0.00
  0
LINE
  8
SPLAY
  10
1126.04
  20
-719.55
  30
0.00
  11
1137.04
  21
-692.97
  31
0.00
  0
LINE
  8
SPLAY
  10
1126.04
  20
-719.55
  30
0.00
  11
1186.66
  21
-702.35
  31
0.00
  0
LINE
  8
SPLAY
  10
1126.04
  20
-719.55
  30
0.00
  11
1189.95
  21
-739.12
  31
0.00
  0
LINE
  8
SPLAY
  10
1126.04
  20
-719.55
  30
0.00
  11
1056.75
  21
-732.80
  31
0.00
  0
LINE
  8
SPLAY
  10
1126.04
  20
-719.55
  30
0.00
  11
1066.76
  21
-758.91
  31
0.00
  0
LINE
  8
SPLAY
  10
1126.04
  20
-719.55
  30
0.00
  11
1101.21
  21
-752.28
  31
0.00
  0
LINE
  8
SPLAY
  10
1126.04
  20
-719.55
  30
0.00
  11
1124.90
  21
-759.51
  31
0.00
  0
LINE
  8
SPLAY
  10
1126.04
  20
-719.55
  30
0.00
  11
1150.96
  21
-762.13
  31
0.00
  0
LINE
  8
SPLAY
  10
1126.04
  20
-719.55
  30
0.00
  11
1176.96
  21
-768.00
  31
0.00
  0
LINE
  8
SPLAY
  10
1187.35
  20
-755.41
  30
0.00
  11
1178.79
  21
-776.93
  31
0.00
  0
LINE
  8
SPLAY
  10
1187.35
  20
-755.41
  30
0.00
  11
1193.84
  21
-782.64
  31
0.00
  0
LINE
  8
SPLAY
  10
1187.35
  20
-755.41
  30
0.00
  11
1234.38
  21
-744.69
  31
0.00
  0
LINE
  8
SPLAY
  10
1187.35
  20
-755.41
  30
0.00
  11
1233.93
  21
-759.17
  31
0.00
  0
LINE
  8
SPLAY
  10
1256.07
  20
-814.83
  30
0.00
  11
1200.43
  21
-802.86
  31
0.00
  0
LINE
  8
SPLAY
  10
1256.07
  20
-814.83
  30
0.00
  11
1217.55
  21
-844.59
  31
0.00
  0
LINE
  8
SPLAY
  10
1256.07
  20
-814.83
  30
0.00
  11
1238.76
  21
-880.04
  31
0.00
  0
LINE
  8
SPLAY
  10
1256.07
  20
-814.83
  30
0.00
  11
1281.47
  21
-872.05
  31
0.00
  0
LINE
  8
SPLAY
  10
1256.07
  20
-814.83
  30
0.00
  11
1319.14
  21
-870.26
  31
0.00
  0
LINE
  8
SPLAY
  10
1256.07
  20
-814.83
  30
0.00
  11
1328.55
  21
-859.38
  31
0.00
  0
LINE
  8
SPLAY
  10
1256.07
  20
-814.83
  30
0.00
  11
1238.13
  21
-765.93
  31
0.00
  0
LINE
  8
SPLAY
  10
1256.07
  20
-814.83
  30
0.00
  11
1267.46
  21
-749.36
  31
0.00
  0
LINE
  8
SPLAY
  10
1256.07
  20
-814.83
  30
0.00
  11
1295.38
  21
-748.21
  31
0.00
  0
LINE
  8
SPLAY
  10
1256.07
  20
-814.83
  30
0.00
  11
1301.12
  21
-793.93
  31
0.00
  0
LINE
  8
SPLAY
  10
1335.67
  20
-848.89
  30
0.00
  11
1364.24
  21
-802.62
  31
0.00
  0
LINE
  8
SPLAY
  10
1335.67
  20
-848.89
  30
0.00
  11
1375.17
  21
-830.33
  31
0.00
  0
LINE
  8
SPLAY
  10
1335.67
  20
-848.89
  30
0.00
  11
1391.13
  21
-836.19
  31
0.00
  0
LINE
  8
SPLAY
  10
1335.67
  20
-848.89
  30
0.00
  11
1353.26
  21
-875.73
  31
0.00
  0
LINE
  8
SPLAY
  10
1445.55
  20
-864.17
  30
0.00
  11
1450.00
  21
-887.41
  31
0.00
  0
LINE
  8
SPLAY
  10
1445.55
  20
-864.17
  30
0.00
  11
1452.95
  21
-839.25
  31
0.00
  0
LINE
  8
SPLAY
  10
1445.55
  20
-864.17
  30
0.00
  11
1496.66
  21
-815.08
  31
0.00
  0
LINE
  8
SPLAY
  10
1445.55
  20
-864.17
  30
0.00
  11
1510.23
  21
-830.78
  31
0.00
  0
LINE
  8
SPLAY
  10
1445.55
  20
-864.17
  30
0.00
  11
1517.46
  21
-838.79
  31
0.00
  0
LINE
  8
SPLAY
  10
1445.55
  20
-864.17
  30
0.00
  11
1527.87
  21
-867.70
  31
0.00
  0
LINE
  8
SPLAY
  10
1445.55
  20
-864.17
  30
0.00
  11
1509.95
  21
-881.20
  31
0.00
  0
LINE
  8
SPLAY
  10
1445.55
  20
-864.17
  30
0.00
  11
1478.70
  21
-886.27
  31
0.00
  0
LINE
  8
SPLAY
  10
1534.17
  20
-854.10
  30
0.00
  11
1524.41
  21
-837.91
  31
0.00
  0
LINE
  8
SPLAY
  10
1534.17
  20
-854.10
  30
0.00
  11
1533.03
  21
-861.49
  31
0.00
  0
LINE
  8
SPLAY
  10
1534.17
  20
-854.10
  30
0.00
  11
1546.65
  21
-819.86
  31
0.00
  0
LINE
  8
SPLAY
  10
1534.17
  20
-854.10
  30
0.00
  11
1580.58
  21
-810.19
  31
0.00
  0
LINE
  8
SPLAY
  10
1534.17
  20
-854.10
  30
0.00
  11
1548.33
  21
-863.84
  31
0.00
  0
LINE
  8
SPLAY
  10
1534.17
  20
-854.10
  30
0.00
  11
1579.95
  21
-871.61
  31
0.00
  0
LINE
  8
SPLAY
  10
1534.17
  20
-854.10
  30
0.00
  11
1581.09
  21
-864.82
  31
0.00
  0
LINE
  8
SPLAY
  10
1586.23
  20
-847.47
  30
0.00
  11
1594.69
  21
-857.12
  31
0.00
  0
LINE
  8
SPLAY
  10
1586.23
  20
-847.47
  30
0.00
  11
1600.62
  21
-835.13
  31
0.00
  0
LINE
  8
SPLAY
  10
1586.23
  20
-847.47
  30
0.00
  11
1577.29
  21
-805.24
  31
0.00
  0
LINE
  8
SPLAY
  10
1586.23
  20
-847.47
  30
0.00
  11
1555.35
  21
-798.52
  31
0.00
  0
LINE
  8
SPLAY
  10
1586.23
  20
-847.47
  30
0.00
  11
1563.61
  21
-826.57
  31
0.00
  0
LINE
  8
SPLAY
  10
1586.23
  20
-847.47
  30
0.00
  11
1547.35
  21
-819.50
  31
0.00
  0
LINE
  8
SPLAY
  10
1586.23
  20
-847.47
  30
0.00
  11
1591.09
  21
-881.88
  31
0.00
  0
LINE
  8
SPLAY
  10
1586.23
  20
-847.47
  30
0.00
  11
1572.92
  21
-898.71
  31
0.00
  0
LINE
  8
SPLAY
  10
1586.23
  20
-847.47
  30
0.00
  11
1550.29
  21
-893.03
  31
0.00
  0
LINE
  8
SPLAY
  10
1586.23
  20
-847.47
  30
0.00
  11
1545.53
  21
-862.09
  31
0.00
  0
LINE
  8
SPLAY
  10
158.68
  20
-281.63
  30
0.00
  11
141.21
  21
-257.67
  31
0.00
  0
LINE
  8
SPLAY
  10
158.68
  20
-281.63
  30
0.00
  11
149.22
  21
-243.76
  31
0.00
  0
LINE
  8
SPLAY
  10
158.68
  20
-281.63
  30
0.00
  11
167.42
  21
-217.47
  31
0.00
  0
LINE
  8
SPLAY
  10
158.68
  20
-281.63
  30
0.00
  11
184.95
  21
-242.83
  31
0.00
  0
LINE
  8
SPLAY
  10
158.68
  20
-281.63
  30
0.00
  11
183.35
  21
-269.22
  31
0.00
  0
POLYLINE
  8
L_pit
  66
1
  70
0
  0
VERTEX
  8
L_pit
  10
90.49
  20
-120.26
  30
0.00
  0
VERTEX
  8
L_pit
  10
86.88
  20
-122.28
  30
0.00
  0
VERTEX
  8
L_pit
  10
83.62
  20
-125.00
  30
0.00
  0
VERTEX
  8
L_pit
  10
80.82
  20
-127.86
  30
0.00
  0
VERTEX
  8
L_pit
  10
78.23
  20
-131.14
  30
0.00
  0
VERTEX
  8
L_pit
  10
75.08
  20
-133.90
  30
0.00
  0
VERTEX
  8
L_pit
  10
73.71
  20
-137.60
  30
0.00
  0
VERTEX
  8
L_pit
  10
73.32
  20
-142.36
  30
0.00
  0
VERTEX
  8
L_pit
  10
72.83
  20
-146.32
  30
0.00
  0
VERTEX
  8
L_pit
  10
73.78
  20
-150.40
  30
0.00
  0
VERTEX
  8
L_pit
  10
74.90
  20
-154.42
  30
0.00
  0
VERTEX
  8
L_pit
  10
77.27
  20
-158.47
  30
0.00
  0
VERTEX
  8
L_pit
  10
79.04
  20
-163.05
  30
0.00
  0
VERTEX
  8
L_pit
  10
80.87
  20
-166.91
  30
0.00
  0
VERTEX
  8
L_pit
  10
82.89
  20
-170.42
  30
0.00
  0
VERTEX
  8
L_pit
  10
84.57
  20
-174.31
  30
0.00
  0
VERTEX
  8
L_pit
  10
85.96
  20
-178.53
  30
0.00
  0
VERTEX
  8
L_pit
  10
88.38
  20
-182.20
  30
0.00
  0
VERTEX
  8
L_pit
  10
91.41
  20
-185.98
  30
0.00
  0
VERTEX
  8
L_pit
  10
95.34
  20
-188.30
  30
0.00
  0
VERTEX
  8
L_pit
  10
99.51
  20
-190.82
  30
0.00
  0
VERTEX
  8
L_pit
  10
103.94
  20
-190.95
  30
0.00
  0
VERTEX
  8
L_pit
  10
108.25
  20
-190.56
  30
0.00
  0
VERTEX
  8
L_pit
  10
112.78
  20
-190.85
  30
0.00
  0
VERTEX
  8
L_pit
  10
117.43
  20
-190.06
  30
0.00
  0
VERTEX
  8
L_pit
  10
121.64
  20
-188.98
  30
0.00
  0
VERTEX
  8
L_pit
  10
126.02
  20
-187.50
  30
0.00
  0
VERTEX
  8
L_pit
  10
130.53
  20
-186.41
  30
0.00
  0
VERTEX
  8
L_pit
  10
134.64
  20
-185.77
  30
0.00
  0
VERTEX
  8
L_pit
  10
139.08
  20
-183.23
  30
0.00
  0
VERTEX
  8
L_pit
  10
141.89
  20
-179.81
  30
0.00
  0
VERTEX
  8
L_pit
  10
143.05
  20
-175.38
  30
0.00
  0
VERTEX
  8
L_pit
  10
142.61
  20
-170.85
  30
0.00
  0
VERTEX
  8
L_pit
  10
142.01
  20
-165.97
  30
0.00
  0
VERTEX
  8
L_pit
  10
140.40
  20
-161.67
  30
0.00
  0
VERTEX
  8
L_pit
  10
139.44
  20
-157.63
  30
0.00
  0
VERTEX
  8
L_pit
  10
137.34
  20
-153.97
  30
0.00
  0
VERTEX
  8
L_pit
  10
135.33
  20
-149.37
  30
0.00
  0
VERTEX
  8
L_pit
  10
133.04
  20
-145.84
  30
0.00
  0
VERTEX
  8
L_pit
  10
130.86
  20
-142.18
  30
0.00
  0
VERTEX
  8
L_pit
  10
128.48
  20
-137.87
  30
0.00
  0
VERTEX
  8
L_pit
  10
125.84
  20
-134.52
  30
0.00
  0
VERTEX
  8
L_pit
  10
123.78
  20
-130.58
  30
0.00
  0
VERTEX
  8
L_pit
  10
121.24
  20
-126.93
  30
0.00
  0
VERTEX
  8
L_pit
  10
118.22
  20
-124.06
  30
0.00
  0
VERTEX
  8
L_pit
  10
114.58
  20
-121.74
  30
0.00
  0
VERTEX
  8
L_pit
  10
110.10
  20
-120.09
  30
0.00
  0
VERTEX
  8
L_pit
  10
106.28
  20
-117.89
  30
0.00
  0
VERTEX
  8
L_pit
  10
101.96
  20
-117.69
  30
0.00
  0
VERTEX
  8
L_pit
  10
97.30
  20
-118.48
  30
0.00
  0
VERTEX
  8
L_pit
  10
93.16
  20
-120.95
  30
0.00
  0
VERTEX
  8
L_pit
  10
90.29
  20
-122.03
  30
0.00
  0
SEQEND
  0
POLYLINE
  8
L_wall
  66
1
  70
0
  0
VERTEX
  8
L_wall
  10
132.78
  20
-191.26
  30
0.00
  0
VERTEX
  8
L_wall
  10
124.32
  20
-193.70
  30
0.00
  0
VERTEX
  8
L_wall
  10
115.95
  20
-195.52
  30
0.00
  0
VERTEX
  8
L_wall
  10
108.67
  20
-199.00
  30
0.00
  0
VERTEX
  8
L_wall
  10
101.64
  20
-202.68
  30
0.00
  0
VERTEX
  8
L_wall
  10
94.25
  20
-205.31
  30
0.00
  0
VERTEX
  8
L_wall
  10
85.23
  20
-206.92
  30
0.00
  0
VERTEX
  8
L_wall
  10
77.91
  20
-209.84
  30
0.00
  0
VERTEX
  8
L_wall
  10
72.74
  20
-216.49
  30
0.00
  0
VERTEX
  8
L_wall
  10
72.04
  20
-224.35
  30
0.00
  0
VERTEX
  8
L_wall
  10
73.20
  20
-232.96
  30
0.00
  0
VERTEX
  8
L_wall
  10
74.75
  20
-241.27
  30
0.00
  0
SEQEND
  0
POLYLINE
  8
L_wall
  66
1
  70
0
  0
VERTEX
  8
L_wall
  10
79.55
  20
-133.35
  30
0.00
  0
VERTEX
  8
L_wall
  10
78.39
  20
-137.25
  30
0.00
  0
VERTEX
  8
L_wall
  10
76.65
  20
-141.29
  30
0.00
  0
VERTEX
  8
L_wall
  10
76.07
  20
-145.55
  30
0.00
  0
VERTEX
  8
L_wall
  10
74.52
  20
-149.30
  30
0.00
  0
VERTEX
  8
L_wall
  10
73.13
  20
-153.33
  30
0.00
  0
VERTEX
  8
L_wall
  10
70.59
  20
-156.65
  30
0.00
  0
VERTEX
  8
L_wall
  10
67.13
  20
-158.56
  30
0.00
  0
VERTEX
  8
L_wall
  10
63.29
  20
-159.68
  30
0.00
  0
VERTEX
  8
L_wall
  10
58.17
  20
-160.07
  30
0.00
  0
VERTEX
  8
L_wall
  10
52.99
  20
-160.46
  30
0.00
  0
VERTEX
  8
L_wall
  10
48.16
  20
-160.46
  30
0.00
  0
VERTEX
  8
L_wall
  10
44.08
  20
-159.95
  30
0.00
  0
SEQEND
  0
POLYLINE
  8
L_wall
  66
1
  70
0
  0
VERTEX
  8
L_wall
  10
45.87
  20
-163.94
  30
0.00
  0
VERTEX
  8
L_wall
  10
41.42
  20
-162.39
  30
0.00
  0
VERTEX
  8
L_wall
  10
37.68
  20
-160.43
  30
0.00
  0
VERTEX
  8
L_wall
  10
33.49
  20
-158.72
  30
0.00
  0
VERTEX
  8
L_wall
  10
29.14
  20
-157.75
  30
0.00
  0
VERTEX
  8
L_wall
  10
25.06
  20
-155.86
  30
0.00
  0
VERTEX
  8
L_wall
  10
20.71
  20
-155.04
  30
0.00
  0
VERTEX
  8
L_wall
  10
16.20
  20
-155.81
  30
0.00
  0
VERTEX
  8
L_wall
  10
12.27
  20
-156.59
  30
0.00
  0
VERTEX
  8
L_wall
  10
10.13
  20
-160.20
  30
0.00
  0
VERTEX
  8
L_wall
  10
7.05
  20
-163.28
  30
0.00
  0
VERTEX
  8
L_wall
  10
3.19
  20
-164.81
  30
0.00
  0
VERTEX
  8
L_wall
  10
-0.69
  20
-166.37
  30
0.00
  0
VERTEX
  8
L_wall
  10
-4.46
  20
-168.59
  30
0.00
  0
VERTEX
  8
L_wall
  10
-8.55
  20
-168.98
  30
0.00
  0
VERTEX
  8
L_wall
  10
-12.77
  20
-170.14
  30
0.00
  0
VERTEX
  8
L_wall
  10
-16.81
  20
-170.53
  30
0.00
  0
VERTEX
  8
L_wall
  10
-20.88
  20
-169.97
  30
0.00
  0
VERTEX
  8
L_wall
  10
-24.97
  20
-169.75
  30
0.00
  0
VERTEX
  8
L_wall
  10
-29.03
  20
-168.27
  30
0.00
  0
VERTEX
  8
L_wall
  10
-33.41
  20
-165.18
  30
0.00
  0
VERTEX
  8
L_wall
  10
-38.54
  20
-164.23
  30
0.00
  0
VERTEX
  8
L_wall
  10
-42.19
  20
-162.39
  30
0.00
  0
SEQEND
  0
POLYLINE
  8
L_wall
  66
1
  70
0
  0
VERTEX
  8
L_wall
  10
-54.78
  20
-196.48
  30
0.00
  0
VERTEX
  8
L_wall
  10
-50.39
  20
-197.38
  30
0.00
  0
VERTEX
  8
L_wall
  10
-45.57
  20
-201.04
  30
0.00
  0
VERTEX
  8
L_wall
  10
-43.26
  20
-205.04
  30
0.00
  0
VERTEX
  8
L_wall
  10
-39.53
  20
-207.24
  30
0.00
  0
VERTEX
  8
L_wall
  10
-35.23
  20
-208.68
  30
0.00
  0
VERTEX
  8
L_wall
  10
-32.87
  20
-212.04
  30
0.00
  0
VERTEX
  8
L_wall
  10
-29.07
  20
-215.38
  30
0.00
  0
VERTEX
  8
L_wall
  10
-25.16
  20
-216.62
  30
0.00
  0
VERTEX
  8
L_wall
  10
-21.34
  20
-217.78
  30
0.00
  0
VERTEX
  8
L_wall
  10
-17.56
  20
-219.99
  30
0.00
  0
VERTEX
  8
L_wall
  10
-12.97
  20
-222.81
  30
0.00
  0
VERTEX
  8
L_wall
  10
-10.49
  20
-225.84
  30
0.00
  0
VERTEX
  8
L_wall
  10
-6.83
  20
-227.74
  30
0.00
  0
VERTEX
  8
L_wall
  10
-2.16
  20
-230.74
  30
0.00
  0
SEQEND
  0
POLYLINE
  8
L_wall
  66
1
  70
0
  0
VERTEX
  8
L_wall
  10
-2.52
  20
-230.95
  30
0.00
  0
VERTEX
  8
L_wall
  10
0.39
  20
-233.66
  30
0.00
  0
VERTEX
  8
L_wall
  10
2.43
  20
-238.21
  30
0.00
  0
VERTEX
  8
L_wall
  10
5.20
  20
-241.26
  30
0.00
  0
VERTEX
  8
L_wall
  10
8.90
  20
-243.92
  30
0.00
  0
VERTEX
  8
L_wall
  10
11.42
  20
-247.57
  30
0.00
  0
VERTEX
  8
L_wall
  10
13.36
  20
-250.97
  30
0.00
  0
VERTEX
  8
L_wall
  10
16.65
  20
-253.41
  30
0.00
  0
SEQEND
  0
POLYLINE
  8
L_wall
  66
1
  70
0
  0
VERTEX
  8
L_wall
  10
78.00
  20
-242.56
  30
0.00
  0
VERTEX
  8
L_wall
  10
80.71
  20
-245.51
  30
0.00
  0
VERTEX
  8
L_wall
  10
84.00
  20
-247.69
  30
0.00
  0
VERTEX
  8
L_wall
  10
87.42
  20
-249.66
  30
0.00
  0
SEQEND
  0
POLYLINE
  8
L_wall
  66
1
  70
0
  0
VERTEX
  8
L_wall
  10
76.46
  20
-243.73
  30
0.00
  0
VERTEX
  8
L_wall
  10
79.25
  20
-247.85
  30
0.00
  0
VERTEX
  8
L_wall
  10
82.52
  20
-250.48
  30
0.00
  0
VERTEX
  8
L_wall
  10
85.84
  20
-253.11
  30
0.00
  0
VERTEX
  8
L_wall
  10
90.09
  20
-255.37
  30
0.00
  0
VERTEX
  8
L_wall
  10
94.46
  20
-257.48
  30
0.00
  0
VERTEX
  8
L_wall
  10
97.72
  20
-259.58
  30
0.00
  0
SEQEND
  0
POLYLINE
  8
L_pit
  66
1
  70
0
  0
VERTEX
  8
L_pit
  10
74.52
  20
-218.94
  30
0.00
  0
VERTEX
  8
L_pit
  10
68.53
  20
-213.16
  30
0.00
  0
VERTEX
  8
L_pit
  10
64.69
  20
-206.32
  30
0.00
  0
VERTEX
  8
L_pit
  10
58.80
  20
-198.26
  30
0.00
  0
VERTEX
  8
L_pit
  10
55.20
  20
-190.80
  30
0.00
  0
VERTEX
  8
L_pit
  10
50.04
  20
-184.03
  30
0.00
  0
VERTEX
  8
L_pit
  10
44.71
  20
-175.95
  30
0.00
  0
VERTEX
  8
L_pit
  10
39.14
  20
-169.22
  30
0.00
  0
VERTEX
  8
L_pit
  10
34.55
  20
-161.53
  30
0.00
  0
SEQEND
  0
POLYLINE
  8
L_wall
  66
1
  70
0
  0
VERTEX
  8
L_wall
  10
18.77
  20
-139.16
  30
0.00
  0
VERTEX
  8
L_wall
  10
19.28
  20
-147.03
  30
0.00
  0
VERTEX
  8
L_wall
  10
24.97
  20
-147.49
  30
0.00
  0
SEQEND
  0
POLYLINE
  8
L_wall
  66
1
  70
0
  0
VERTEX
  8
L_wall
  10
14.51
  20
-143.03
  30
0.00
  0
VERTEX
  8
L_wall
  10
17.31
  20
-137.22
  30
0.00
  0
VERTEX
  8
L_wall
  10
21.87
  20
-138.39
  30
0.00
  0
SEQEND
  0
POLYLINE
  8
L_wall
  66
1
  70
0
  0
VERTEX
  8
L_wall
  10
32.32
  20
-149.62
  30
0.00
  0
VERTEX
  8
L_wall
  10
33.61
  20
-141.09
  30
0.00
  0
VERTEX
  8
L_wall
  10
38.98
  20
-143.88
  30
0.00
  0
VERTEX
  8
L_wall
  10
43.94
  20
-144.75
  30
0.00
  0
VERTEX
  8
L_wall
  10
44.32
  20
-149.62
  30
0.00
  0
SEQEND
  0
POLYLINE
  8
L_wall
  66
1
  70
0
  0
VERTEX
  8
L_wall
  10
85.36
  20
-94.62
  30
0.00
  0
VERTEX
  8
L_wall
  10
80.22
  20
-103.47
  30
0.00
  0
VERTEX
  8
L_wall
  10
83.49
  20
-108.53
  30
0.00
  0
VERTEX
  8
L_wall
  10
86.99
  20
-111.27
  30
0.00
  0
SEQEND
  0
POLYLINE
  8
L_wall
  66
1
  70
0
  0
VERTEX
  8
L_wall
  10
89.23
  20
-106.63
  30
0.00
  0
VERTEX
  8
L_wall
  10
86.75
  20
-116.52
  30
0.00
  0
VERTEX
  8
L_wall
  10
84.51
  20
-121.03
  30
0.00
  0
SEQEND
  0
POLYLINE
  8
L_wall
  66
1
  70
0
  0
VERTEX
  8
L_wall
  10
92.32
  20
-111.27
  30
0.00
  0
VERTEX
  8
L_wall
  10
96.47
  20
-103.09
  30
0.00
  0
VERTEX
  8
L_wall
  10
99.87
  20
-95.02
  30
0.00
  0
VERTEX
  8
L_wall
  10
102.39
  20
-103.53
  30
0.00
  0
VERTEX
  8
L_wall
  10
108.39
  20
-97.14
  30
0.00
  0
VERTEX
  8
L_wall
  10
111.29
  20
-106.04
  30
0.00
  0
SEQEND
  0
INSERT
  8
POINT
  2
P_blocks
  41
10.00
  42
10.00
  50
360.00
  10
-48.18
  20
-191.44
  30
0.00
  0
INSERT
  8
POINT
  2
P_blocks
  41
10.00
  42
10.00
  50
360.00
  10
-50.61
  20
-175.57
  30
0.00
  0
INSERT
  8
POINT
  2
P_blocks
  41
10.00
  42
10.00
  50
360.00
  10
-50.76
  20
-160.92
  30
0.00
  0
INSERT
  8
POINT
  2
P_blocks
  41
10.00
  42
10.00
  50
360.00
  10
-32.34
  20
-171.71
  30
0.00
  0
INSERT
  8
POINT
  2
P_blocks
  41
10.00
  42
10.00
  50
360.00
  10
-34.65
  20
-190.53
  30
0.00
  0
INSERT
  8
POINT
  2
P_blocks
  41
10.00
  42
10.00
  50
360.00
  10
-36.86
  20
-206.16
  30
0.00
  0
INSERT
  8
POINT
  2
P_blocks
  41
10.00
  42
10.00
  50
360.00
  10
-32.94
  20
-180.53
  30
0.00
  0
INSERT
  8
POINT
  2
P_debris
  41
10.00
  42
10.00
  50
360.00
  10
5.80
  20
-192.61
  30
0.00
  0
INSERT
  8
POINT
  2
P_debris
  41
10.00
  42
10.00
  50
360.00
  10
7.60
  20
-211.25
  30
0.00
  0
INSERT
  8
POINT
  2
P_debris
  41
10.00
  42
10.00
  50
360.00
  10
18.43
  20
-225.17
  30
0.00
  0
INSERT
  8
POINT
  2
P_debris
  41
10.00
  42
10.00
  50
360.00
  10
35.42
  20
-218.17
  30
0.00
  0
INSERT
  8
POINT
  2
P_debris
  41
10.00
  42
10.00
  50
360.00
  10
23.42
  20
-174.40
  30
0.00
  0
INSERT
  8
POINT
  2
P_debris
  41
10.00
  42
10.00
  50
360.00
  10
40.57
  20
-215.71
  30
0.00
  0
INSERT
  8
POINT
  2
P_debris
  41
10.00
  42
10.00
  50
360.00
  10
42.00
  20
-251.71
  30
0.00
  0
INSERT
  8
POINT
  2
P_debris
  41
10.00
  42
10.00
  50
360.00
  10
30.50
  20
-186.01
  30
0.00
  0
INSERT
  8
POINT
  2
P_debris
  41
10.00
  42
10.00
  50
360.00
  10
31.01
  20
-204.20
  30
0.00
  0
INSERT
  8
POINT
  2
P_debris
  41
10.00
  42
10.00
  50
360.00
  10
-17.50
  20
-196.21
  30
0.00
  0
INSERT
  8
POINT
  2
P_debris
  41
10.00
  42
10.00
  50
360.00
  10
64.45
  20
-175.96
  30
0.00
  0
INSERT
  8
POINT
  2
P_debris
  41
10.00
  42
10.00
  50
360.00
  10
76.53
  20
-196.63
  30
0.00
  0
INSERT
  8
POINT
  2
P_debris
  41
10.00
  42
10.00
  50
360.00
  10
84.64
  20
-203.81
  30
0.00
  0
INSERT
  8
POINT
  2
P_debris
  41
10.00
  42
10.00
  50
360.00
  10
67.94
  20
-175.28
  30
0.00
  0
POLYLINE
  8
L_u-user
  66
1
  70
0
  0
VERTEX
  8
L_u-user
  10
63.35
  20
-160.07
  30
0.00
  0
VERTEX
  8
L_u-user
  10
72.75
  20
-158.52
  30
0.00
  0
VERTEX
  8
L_u-user
  10
81.41
  20
-157.36
  30
0.00
  0
VERTEX
  8
L_u-user
  10
90.25
  20
-157.94
  30
0.00
  0
VERTEX
  8
L_u-user
  10
96.28
  20
-162.81
  30
0.00
  0
VERTEX
  8
L_u-user
  10
104.43
  20
-161.62
  30
0.00
  0
VERTEX
  8
L_u-user
  10
112.04
  20
-166.04
  30
0.00
  0
VERTEX
  8
L_u-user
  10
119.86
  20
-167.42
  30
0.00
  0
VERTEX
  8
L_u-user
  10
127.80
  20
-167.43
  30
0.00
  0
VERTEX
  8
L_u-user
  10
135.86
  20
-164.98
  30
0.00
  0
VERTEX
  8
L_u-user
  10
145.47
  20
-163.95
  30
0.00
  0
VERTEX
  8
L_u-user
  10
153.98
  20
-161.62
  30
0.00
  0
SEQEND
  0
POLYLINE
  8
L_u-user
  66
1
  70
0
  0
VERTEX
  8
L_u-user
  10
74.96
  20
-212.75
  30
0.00
  0
VERTEX
  8
L_u-user
  10
80.93
  20
-207.05
  30
0.00
  0
VERTEX
  8
L_u-user
  10
90.95
  20
-204.55
  30
0.00
  0
VERTEX
  8
L_u-user
  10
99.25
  20
-202.29
  30
0.00
  0
VERTEX
  8
L_u-user
  10
107.37
  20
-201.51
  30
0.00
  0
VERTEX
  8
L_u-user
  10
115.68
  20
-200.28
  30
0.00
  0
VERTEX
  8
L_u-user
  10
123.74
  20
-201.51
  30
0.00
  0
VERTEX
  8
L_u-user
  10
131.67
  20
-202.29
  30
0.00
  0
VERTEX
  8
L_u-user
  10
139.68
  20
-202.68
  30
0.00
  0
VERTEX
  8
L_u-user
  10
147.63
  20
-204.36
  30
0.00
  0
VERTEX
  8
L_u-user
  10
155.65
  20
-207.32
  30
0.00
  0
VERTEX
  8
L_u-user
  10
159.91
  20
-209.38
  30
0.00
  0
SEQEND
  0
POLYLINE
  8
L_wall
  66
1
  70
0
  0
VERTEX
  8
L_wall
  10
162.78
  20
-168.11
  30
0.00
  0
VERTEX
  8
L_wall
  10
169.55
  20
-162.69
  30
0.00
  0
VERTEX
  8
L_wall
  10
171.58
  20
-154.27
  30
0.00
  0
VERTEX
  8
L_wall
  10
171.29
  20
-146.27
  30
0.00
  0
VERTEX
  8
L_wall
  10
168.97
  20
-138.92
  30
0.00
  0
VERTEX
  8
L_wall
  10
168.20
  20
-132.03
  30
0.00
  0
VERTEX
  8
L_wall
  10
177.29
  20
-132.87
  30
0.00
  0
VERTEX
  8
L_wall
  10
185.40
  20
-137.02
  30
0.00
  0
VERTEX
  8
L_wall
  10
193.23
  20
-139.97
  30
0.00
  0
VERTEX
  8
L_wall
  10
200.41
  20
-144.10
  30
0.00
  0
VERTEX
  8
L_wall
  10
206.43
  20
-150.20
  30
0.00
  0
VERTEX
  8
L_wall
  10
213.86
  20
-154.56
  30
0.00
  0
VERTEX
  8
L_wall
  10
219.54
  20
-161.07
  30
0.00
  0
VERTEX
  8
L_wall
  10
227.44
  20
-163.09
  30
0.00
  0
VERTEX
  8
L_wall
  10
236.02
  20
-164.16
  30
0.00
  0
SEQEND
  0
POLYLINE
  8
L_wall
  66
1
  70
0
  0
VERTEX
  8
L_wall
  10
217.36
  20
-236.47
  30
0.00
  0
VERTEX
  8
L_wall
  10
208.89
  20
-237.82
  30
0.00
  0
VERTEX
  8
L_wall
  10
201.74
  20
-239.12
  30
0.00
  0
VERTEX
  8
L_wall
  10
196.91
  20
-246.21
  30
0.00
  0
VERTEX
  8
L_wall
  10
193.36
  20
-254.22
  30
0.00
  0
VERTEX
  8
L_wall
  10
189.10
  20
-260.87
  30
0.00
  0
VERTEX
  8
L_wall
  10
185.43
  20
-268.02
  30
0.00
  0
VERTEX
  8
L_wall
  10
182.52
  20
-275.59
  30
0.00
  0
VERTEX
  8
L_wall
  10
179.77
  20
-283.18
  30
0.00
  0
SEQEND
  0
POLYLINE
  8
L_wall
  66
1
  70
0
  0
VERTEX
  8
L_wall
  10
179.77
  20
-283.18
  30
0.00
  0
VERTEX
  8
L_wall
  10
176.54
  20
-291.06
  30
0.00
  0
VERTEX
  8
L_wall
  10
171.18
  20
-297.19
  30
0.00
  0
VERTEX
  8
L_wall
  10
162.08
  20
-294.21
  30
0.00
  0
VERTEX
  8
L_wall
  10
153.98
  20
-288.28
  30
0.00
  0
VERTEX
  8
L_wall
  10
147.30
  20
-279.85
  30
0.00
  0
VERTEX
  8
L_wall
  10
143.27
  20
-272.61
  30
0.00
  0
VERTEX
  8
L_wall
  10
141.10
  20
-263.58
  30
0.00
  0
VERTEX
  8
L_wall
  10
140.71
  20
-254.28
  30
0.00
  0
VERTEX
  8
L_wall
  10
140.84
  20
-245.96
  30
0.00
  0
VERTEX
  8
L_wall
  10
142.26
  20
-237.71
  30
0.00
  0
VERTEX
  8
L_wall
  10
146.82
  20
-230.17
  30
0.00
  0
VERTEX
  8
L_wall
  10
151.21
  20
-223.06
  30
0.00
  0
VERTEX
  8
L_wall
  10
154.65
  20
-215.68
  30
0.00
  0
VERTEX
  8
L_wall
  10
153.62
  20
-208.84
  30
0.00
  0
SEQEND
  0
POLYLINE
  8
L_wall
  66
1
  70
0
  0
VERTEX
  8
L_wall
  10
162.78
  20
-168.11
  30
0.00
  0
VERTEX
  8
L_wall
  10
157.08
  20
-164.35
  30
0.00
  0
VERTEX
  8
L_wall
  10
153.49
  20
-161.91
  30
0.00
  0
SEQEND
  0
POLYLINE
  8
L_slope
  66
1
  70
0
  0
VERTEX
  8
L_slope
  10
150.78
  20
-173.53
  30
0.00
  0
VERTEX
  8
L_slope
  10
150.24
  20
-183.74
  30
0.00
  0
VERTEX
  8
L_slope
  10
147.49
  20
-195.80
  30
0.00
  0
SEQEND
  0
POLYLINE
  8
L_slope
  66
1
  70
0
  0
VERTEX
  8
L_slope
  10
175.94
  20
-180.50
  30
0.00
  0
VERTEX
  8
L_slope
  10
178.38
  20
-180.35
  30
0.00
  0
VERTEX
  8
L_slope
  10
177.88
  20
-191.32
  30
0.00
  0
VERTEX
  8
L_slope
  10
176.49
  20
-199.48
  30
0.00
  0
SEQEND
  0
POLYLINE
  8
L_slope
  66
1
  70
0
  0
VERTEX
  8
L_slope
  10
202.26
  20
-163.85
  30
0.00
  0
VERTEX
  8
L_slope
  10
202.07
  20
-177.39
  30
0.00
  0
VERTEX
  8
L_slope
  10
202.26
  20
-193.63
  30
0.00
  0
VERTEX
  8
L_slope
  10
200.71
  20
-204.51
  30
0.00
  0
VERTEX
  8
L_slope
  10
198.44
  20
-213.51
  30
0.00
  0
VERTEX
  8
L_slope
  10
197.62
  20
-220.20
  30
0.00
  0
SEQEND
  0
POLYLINE
  8
L_slope
  66
1
  70
0
  0
VERTEX
  8
L_slope
  10
227.81
  20
-170.05
  30
0.00
  0
VERTEX
  8
L_slope
  10
227.81
  20
-178.12
  30
0.00
  0
VERTEX
  8
L_slope
  10
227.42
  20
-188.20
  30
0.00
  0
VERTEX
  8
L_slope
  10
226.65
  20
-197.16
  30
0.00
  0
VERTEX
  8
L_slope
  10
225.30
  20
-205.87
  30
0.00
  0
SEQEND
  0
INSERT
  8
POINT
  2
P_debris
  41
10.00
  42
10.00
  50
360.00
  10
141.09
  20
-193.09
  30
0.00
  0
INSERT
  8
POINT
  2
P_debris
  41
10.00
  42
10.00
  50
360.00
  10
154.77
  20
-169.47
  30
0.00
  0
INSERT
  8
POINT
  2
P_debris
  41
10.00
  42
10.00
  50
360.00
  10
169.00
  20
-201.69
  30
0.00
  0
INSERT
  8
POINT
  2
P_debris
  41
10.00
  42
10.00
  50
360.00
  10
168.61
  20
-227.95
  30
0.00
  0
INSERT
  8
POINT
  2
P_debris
  41
10.00
  42
10.00
  50
360.00
  10
187.23
  20
-211.66
  30
0.00
  0
INSERT
  8
POINT
  2
P_debris
  41
10.00
  42
10.00
  50
360.00
  10
190.38
  20
-149.71
  30
0.00
  0
INSERT
  8
POINT
  2
P_debris
  41
10.00
  42
10.00
  50
360.00
  10
192.25
  20
-167.17
  30
0.00
  0
INSERT
  8
POINT
  2
P_debris
  41
10.00
  42
10.00
  50
360.00
  10
189.13
  20
-238.09
  30
0.00
  0
INSERT
  8
POINT
  2
P_debris
  41
10.00
  42
10.00
  50
360.00
  10
218.82
  20
-220.32
  30
0.00
  0
INSERT
  8
POINT
  2
P_debris
  41
10.00
  42
10.00
  50
360.00
  10
221.65
  20
-170.24
  30
0.00
  0
INSERT
  8
POINT
  2
P_debris
  41
10.00
  42
10.00
  50
360.00
  10
255.01
  20
-184.18
  30
0.00
  0
POLYLINE
  8
L_wall
  66
1
  70
0
  0
VERTEX
  8
L_wall
  10
236.02
  20
-164.16
  30
0.00
  0
VERTEX
  8
L_wall
  10
239.88
  20
-173.33
  30
0.00
  0
VERTEX
  8
L_wall
  10
247.05
  20
-177.02
  30
0.00
  0
VERTEX
  8
L_wall
  10
254.02
  20
-181.28
  30
0.00
  0
VERTEX
  8
L_wall
  10
261.96
  20
-185.93
  30
0.00
  0
VERTEX
  8
L_wall
  10
268.66
  20
-190.50
  30
0.00
  0
VERTEX
  8
L_wall
  10
275.03
  20
-195.95
  30
0.00
  0
VERTEX
  8
L_wall
  10
280.15
  20
-202.14
  30
0.00
  0
VERTEX
  8
L_wall
  10
287.72
  20
-208.73
  30
0.00
  0
VERTEX
  8
L_wall
  10
294.47
  20
-214.19
  30
0.00
  0
VERTEX
  8
L_wall
  10
299.32
  20
-215.98
  30
0.00
  0
SEQEND
  0
POLYLINE
  8
L_wall
  66
1
  70
0
  0
VERTEX
  8
L_wall
  10
299.32
  20
-215.98
  30
0.00
  0
VERTEX
  8
L_wall
  10
310.52
  20
-221.68
  30
0.00
  0
VERTEX
  8
L_wall
  10
318.39
  20
-225.39
  30
0.00
  0
VERTEX
  8
L_wall
  10
326.22
  20
-229.69
  30
0.00
  0
VERTEX
  8
L_wall
  10
333.38
  20
-233.95
  30
0.00
  0
VERTEX
  8
L_wall
  10
338.77
  20
-241.05
  30
0.00
  0
VERTEX
  8
L_wall
  10
345.81
  20
-247.02
  30
0.00
  0
VERTEX
  8
L_wall
  10
353.31
  20
-250.56
  30
0.00
  0
VERTEX
  8
L_wall
  10
361.44
  20
-256.03
  30
0.00
  0
VERTEX
  8
L_wall
  10
368.98
  20
-260.02
  30
0.00
  0
VERTEX
  8
L_wall
  10
376.41
  20
-263.19
  30
0.00
  0
SEQEND
  0
POLYLINE
  8
L_wall
  66
1
  70
0
  0
VERTEX
  8
L_wall
  10
217.36
  20
-236.47
  30
0.00
  0
VERTEX
  8
L_wall
  10
221.70
  20
-243.18
  30
0.00
  0
VERTEX
  8
L_wall
  10
222.86
  20
-251.38
  30
0.00
  0
VERTEX
  8
L_wall
  10
223.37
  20
-260.61
  30
0.00
  0
VERTEX
  8
L_wall
  10
225.33
  20
-269.68
  30
0.00
  0
VERTEX
  8
L_wall
  10
226.03
  20
-279.29
  30
0.00
  0
VERTEX
  8
L_wall
  10
225.96
  20
-287.98
  30
0.00
  0
VERTEX
  8
L_wall
  10
226.34
  20
-297.52
  30
0.00
  0
VERTEX
  8
L_wall
  10
226.34
  20
-305.96
  30
0.00
  0
VERTEX
  8
L_wall
  10
228.11
  20
-315.92
  30
0.00
  0
VERTEX
  8
L_wall
  10
232.34
  20
-323.42
  30
0.00
  0
VERTEX
  8
L_wall
  10
239.28
  20
-329.89
  30
0.00
  0
VERTEX
  8
L_wall
  10
248.82
  20
-331.74
  30
0.00
  0
SEQEND
  0
POLYLINE
  8
L_wall
  66
1
  70
0
  0
VERTEX
  8
L_wall
  10
248.82
  20
-331.74
  30
0.00
  0
VERTEX
  8
L_wall
  10
257.12
  20
-332.03
  30
0.00
  0
VERTEX
  8
L_wall
  10
269.10
  20
-331.74
  30
0.00
  0
VERTEX
  8
L_wall
  10
279.33
  20
-333.09
  30
0.00
  0
VERTEX
  8
L_wall
  10
285.02
  20
-333.70
  30
0.00
  0
SEQEND
  0
POLYLINE
  8
L_wall
  66
1
  70
0
  0
VERTEX
  8
L_wall
  10
285.02
  20
-333.70
  30
0.00
  0
VERTEX
  8
L_wall
  10
281.89
  20
-332.52
  30
0.00
  0
VERTEX
  8
L_wall
  10
291.61
  20
-333.29
  30
0.00
  0
VERTEX
  8
L_wall
  10
300.60
  20
-332.90
  30
0.00
  0
VERTEX
  8
L_wall
  10
309.14
  20
-334.07
  30
0.00
  0
VERTEX
  8
L_wall
  10
318.11
  20
-336.00
  30
0.00
  0
VERTEX
  8
L_wall
  10
327.61
  20
-337.67
  30
0.00
  0
VERTEX
  8
L_wall
  10
336.74
  20
-338.33
  30
0.00
  0
VERTEX
  8
L_wall
  10
344.97
  20
-340.82
  30
0.00
  0
SEQEND
  0
INSERT
  8
POINT
  2
P_blocks
  41
10.00
  42
10.00
  50
360.00
  10
258.47
  20
-241.96
  30
0.00
  0
INSERT
  8
POINT
  2
P_blocks
  41
10.00
  42
10.00
  50
360.00
  10
232.89
  20
-262.33
  30
0.00
  0
INSERT
  8
POINT
  2
P_blocks
  41
10.00
  42
10.00
  50
360.00
  10
312.42
  20
-241.44
  30
0.00
  0
INSERT
  8
POINT
  2
P_debris
  41
10.00
  42
10.00
  50
360.00
  10
252.35
  20
-302.31
  30
0.00
  0
INSERT
  8
POINT
  2
P_debris
  41
10.00
  42
10.00
  50
360.00
  10
239.16
  20
-226.79
  30
0.00
  0
INSERT
  8
POINT
  2
P_debris
  41
10.00
  42
10.00
  50
360.00
  10
258.39
  20
-198.82
  30
0.00
  0
INSERT
  8
POINT
  2
P_debris
  41
10.00
  42
10.00
  50
360.00
  10
289.50
  20
-229.23
  30
0.00
  0
INSERT
  8
POINT
  2
P_debris
  41
10.00
  42
10.00
  50
360.00
  10
287.94
  20
-284.54
  30
0.00
  0
INSERT
  8
POINT
  2
P_debris
  41
10.00
  42
10.00
  50
360.00
  10
292.93
  20
-320.83
  30
0.00
  0
INSERT
  8
POINT
  2
P_debris
  41
10.00
  42
10.00
  50
360.00
  10
339.76
  20
-262.22
  30
0.00
  0
INSERT
  8
POINT
  2
P_debris
  41
10.00
  42
10.00
  50
360.00
  10
325.06
  20
-310.64
  30
0.00
  0
INSERT
  8
POINT
  2
P_debris
  41
10.00
  42
10.00
  50
360.00
  10
336.89
  20
-285.73
  30
0.00
  0
POLYLINE
  8
L_slope
  66
1
  70
0
  0
VERTEX
  8
L_slope
  10
279.76
  20
-202.39
  30
0.00
  0
VERTEX
  8
L_slope
  10
271.63
  20
-210.71
  30
0.00
  0
VERTEX
  8
L_slope
  10
261.99
  20
-219.39
  30
0.00
  0
VERTEX
  8
L_slope
  10
254.34
  20
-225.63
  30
0.00
  0
VERTEX
  8
L_slope
  10
245.84
  20
-233.14
  30
0.00
  0
VERTEX
  8
L_slope
  10
238.42
  20
-238.92
  30
0.00
  0
SEQEND
  0
POLYLINE
  8
L_slope
  66
1
  70
0
  0
VERTEX
  8
L_slope
  10
294.47
  20
-243.83
  30
0.00
  0
VERTEX
  8
L_slope
  10
284.67
  20
-254.04
  30
0.00
  0
VERTEX
  8
L_slope
  10
275.71
  20
-262.21
  30
0.00
  0
VERTEX
  8
L_slope
  10
262.54
  20
-272.87
  30
0.00
  0
VERTEX
  8
L_slope
  10
254.12
  20
-276.78
  30
0.00
  0
SEQEND
  0
POLYLINE
  8
L_slope
  66
1
  70
0
  0
VERTEX
  8
L_slope
  10
326.99
  20
-266.68
  30
0.00
  0
VERTEX
  8
L_slope
  10
323.31
  20
-274.81
  30
0.00
  0
VERTEX
  8
L_slope
  10
315.96
  20
-287.20
  30
0.00
  0
VERTEX
  8
L_slope
  10
309.95
  20
-298.34
  30
0.00
  0
VERTEX
  8
L_slope
  10
305.25
  20
-305.27
  30
0.00
  0
SEQEND
  0
POLYLINE
  8
L_wall
  66
1
  70
0
  0
VERTEX
  8
L_wall
  10
446.60
  20
-297.74
  30
0.00
  0
VERTEX
  8
L_wall
  10
448.00
  20
-302.24
  30
0.00
  0
VERTEX
  8
L_wall
  10
452.02
  20
-305.29
  30
0.00
  0
VERTEX
  8
L_wall
  10
455.01
  20
-308.48
  30
0.00
  0
VERTEX
  8
L_wall
  10
458.45
  20
-310.64
  30
0.00
  0
VERTEX
  8
L_wall
  10
462.73
  20
-311.29
  30
0.00
  0
VERTEX
  8
L_wall
  10
466.76
  20
-312.48
  30
0.00
  0
VERTEX
  8
L_wall
  10
470.79
  20
-312.46
  30
0.00
  0
VERTEX
  8
L_wall
  10
474.94
  20
-312.46
  30
0.00
  0
VERTEX
  8
L_wall
  10
478.81
  20
-311.68
  30
0.00
  0
VERTEX
  8
L_wall
  10
483.22
  20
-311.68
  30
0.00
  0
VERTEX
  8
L_wall
  10
486.59
  20
-313.68
  30
0.00
  0
SEQEND
  0
POLYLINE
  8
L_wall
  66
1
  70
0
  0
VERTEX
  8
L_wall
  10
487.63
  20
-338.79
  30
0.00
  0
VERTEX
  8
L_wall
  10
483.71
  20
-338.40
  30
0.00
  0
VERTEX
  8
L_wall
  10
479.11
  20
-337.63
  30
0.00
  0
VERTEX
  8
L_wall
  10
473.59
  20
-338.42
  30
0.00
  0
VERTEX
  8
L_wall
  10
469.30
  20
-340.30
  30
0.00
  0
VERTEX
  8
L_wall
  10
464.40
  20
-343.24
  30
0.00
  0
SEQEND
  0
POLYLINE
  8
L_wall
  66
1
  70
0
  0
VERTEX
  8
L_wall
  10
344.01
  20
-344.21
  30
0.00
  0
VERTEX
  8
L_wall
  10
347.60
  20
-342.28
  30
0.00
  0
VERTEX
  8
L_wall
  10
351.55
  20
-341.70
  30
0.00
  0
VERTEX
  8
L_wall
  10
355.24
  20
-343.44
  30
0.00
  0
VERTEX
  8
L_wall
  10
357.98
  20
-346.18
  30
0.00
  0
VERTEX
  8
L_wall
  10
362.49
  20
-347.79
  30
0.00
  0
VERTEX
  8
L_wall
  10
367.00
  20
-348.94
  30
0.00
  0
VERTEX
  8
L_wall
  10
372.92
  20
-350.58
  30
0.00
  0
VERTEX
  8
L_wall
  10
376.47
  20
-352.67
  30
0.00
  0
VERTEX
  8
L_wall
  10
379.52
  20
-355.24
  30
0.00
  0
VERTEX
  8
L_wall
  10
383.99
  20
-357.42
  30
0.00
  0
VERTEX
  8
L_wall
  10
387.71
  20
-359.10
  30
0.00
  0
VERTEX
  8
L_wall
  10
391.41
  20
-361.53
  30
0.00
  0
VERTEX
  8
L_wall
  10
395.19
  20
-363.86
  30
0.00
  0
VERTEX
  8
L_wall
  10
399.98
  20
-366.29
  30
0.00
  0
VERTEX
  8
L_wall
  10
404.06
  20
-367.45
  30
0.00
  0
VERTEX
  8
L_wall
  10
408.34
  20
-367.84
  30
0.00
  0
VERTEX
  8
L_wall
  10
412.53
  20
-367.26
  30
0.00
  0
VERTEX
  8
L_wall
  10
416.31
  20
-366.29
  30
0.00
  0
VERTEX
  8
L_wall
  10
420.51
  20
-365.51
  30
0.00
  0
VERTEX
  8
L_wall
  10
424.48
  20
-365.51
  30
0.00
  0
VERTEX
  8
L_wall
  10
429.24
  20
-365.24
  30
0.00
  0
VERTEX
  8
L_wall
  10
433.53
  20
-365.13
  30
0.00
  0
VERTEX
  8
L_wall
  10
437.80
  20
-365.13
  30
0.00
  0
VERTEX
  8
L_wall
  10
442.03
  20
-363.93
  30
0.00
  0
VERTEX
  8
L_wall
  10
445.30
  20
-361.64
  30
0.00
  0
VERTEX
  8
L_wall
  10
448.99
  20
-360.07
  30
0.00
  0
VERTEX
  8
L_wall
  10
453.15
  20
-358.36
  30
0.00
  0
VERTEX
  8
L_wall
  10
456.14
  20
-355.58
  30
0.00
  0
VERTEX
  8
L_wall
  10
459.26
  20
-353.23
  30
0.00
  0
VERTEX
  8
L_wall
  10
462.64
  20
-350.63
  30
0.00
  0
VERTEX
  8
L_wall
  10
465.97
  20
-348.06
  30
0.00
  0
SEQEND
  0
POLYLINE
  8
L_wall
  66
1
  70
0
  0
VERTEX
  8
L_wall
  10
464.02
  20
-352.35
  30
0.00
  0
VERTEX
  8
L_wall
  10
463.82
  20
-348.09
  30
0.00
  0
VERTEX
  8
L_wall
  10
464.98
  20
-343.83
  30
0.00
  0
SEQEND
  0
POLYLINE
  8
L_wall
  66
1
  70
0
  0
VERTEX
  8
L_wall
  10
375.88
  20
-261.89
  30
0.00
  0
VERTEX
  8
L_wall
  10
378.16
  20
-265.40
  30
0.00
  0
VERTEX
  8
L_wall
  10
382.11
  20
-266.40
  30
0.00
  0
VERTEX
  8
L_wall
  10
385.93
  20
-267.62
  30
0.00
  0
VERTEX
  8
L_wall
  10
389.62
  20
-270.60
  30
0.00
  0
VERTEX
  8
L_wall
  10
393.60
  20
-273.43
  30
0.00
  0
VERTEX
  8
L_wall
  10
397.48
  20
-274.60
  30
0.00
  0
VERTEX
  8
L_wall
  10
401.77
  20
-274.13
  30
0.00
  0
VERTEX
  8
L_wall
  10
405.77
  20
-274.13
  30
0.00
  0
VERTEX
  8
L_wall
  10
408.91
  20
-271.09
  30
0.00
  0
VERTEX
  8
L_wall
  10
410.52
  20
-267.48
  30
0.00
  0
VERTEX
  8
L_wall
  10
411.67
  20
-263.77
  30
0.00
  0
SEQEND
  0
POLYLINE
  8
L_wall
  66
1
  70
0
  0
VERTEX
  8
L_wall
  10
447.59
  20
-299.24
  30
0.00
  0
VERTEX
  8
L_wall
  10
445.46
  20
-294.99
  30
0.00
  0
VERTEX
  8
L_wall
  10
442.73
  20
-291.40
  30
0.00
  0
VERTEX
  8
L_wall
  10
440.83
  20
-287.26
  30
0.00
  0
VERTEX
  8
L_wall
  10
438.22
  20
-284.08
  30
0.00
  0
VERTEX
  8
L_wall
  10
436.77
  20
-280.08
  30
0.00
  0
VERTEX
  8
L_wall
  10
436.00
  20
-275.68
  30
0.00
  0
VERTEX
  8
L_wall
  10
436.00
  20
-271.66
  30
0.00
  0
SEQEND
  0
POLYLINE
  8
L_slope
  66
1
  70
0
  0
VERTEX
  8
L_slope
  10
379.62
  20
-274.13
  30
0.00
  0
VERTEX
  8
L_slope
  10
380.20
  20
-283.78
  30
0.00
  0
VERTEX
  8
L_slope
  10
381.91
  20
-291.63
  30
0.00
  0
VERTEX
  8
L_slope
  10
387.15
  20
-300.20
  30
0.00
  0
VERTEX
  8
L_slope
  10
394.33
  20
-310.38
  30
0.00
  0
VERTEX
  8
L_slope
  10
402.02
  20
-312.57
  30
0.00
  0
VERTEX
  8
L_slope
  10
410.90
  20
-314.11
  30
0.00
  0
VERTEX
  8
L_slope
  10
419.07
  20
-313.92
  30
0.00
  0
VERTEX
  8
L_slope
  10
427.98
  20
-312.76
  30
0.00
  0
VERTEX
  8
L_slope
  10
436.46
  20
-309.17
  30
0.00
  0
VERTEX
  8
L_slope
  10
442.17
  20
-302.53
  30
0.00
  0
VERTEX
  8
L_slope
  10
446.21
  20
-295.73
  30
0.00
  0
SEQEND
  0
POLYLINE
  8
L_slope
  66
1
  70
0
  0
VERTEX
  8
L_slope
  10
400.09
  20
-276.06
  30
0.00
  0
VERTEX
  8
L_slope
  10
405.48
  20
-283.97
  30
0.00
  0
VERTEX
  8
L_slope
  10
411.85
  20
-290.63
  30
0.00
  0
VERTEX
  8
L_slope
  10
420.81
  20
-293.44
  30
0.00
  0
VERTEX
  8
L_slope
  10
429.04
  20
-292.38
  30
0.00
  0
VERTEX
  8
L_slope
  10
436.51
  20
-286.81
  30
0.00
  0
SEQEND
  0
POLYLINE
  8
L_slope
  66
1
  70
0
  0
VERTEX
  8
L_slope
  10
411.29
  20
-264.85
  30
0.00
  0
VERTEX
  8
L_slope
  10
415.63
  20
-272.74
  30
0.00
  0
VERTEX
  8
L_slope
  10
423.08
  20
-276.78
  30
0.00
  0
VERTEX
  8
L_slope
  10
431.69
  20
-276.09
  30
0.00
  0
VERTEX
  8
L_slope
  10
435.36
  20
-272.84
  30
0.00
  0
SEQEND
  0
POLYLINE
  8
L_slope
  66
1
  70
0
  0
VERTEX
  8
L_slope
  10
435.62
  20
-362.21
  30
0.00
  0
VERTEX
  8
L_slope
  10
442.22
  20
-353.62
  30
0.00
  0
VERTEX
  8
L_slope
  10
447.45
  20
-344.72
  30
0.00
  0
VERTEX
  8
L_slope
  10
453.31
  20
-337.31
  30
0.00
  0
VERTEX
  8
L_slope
  10
455.50
  20
-328.98
  30
0.00
  0
VERTEX
  8
L_slope
  10
455.70
  20
-320.76
  30
0.00
  0
VERTEX
  8
L_slope
  10
455.31
  20
-310.69
  30
0.00
  0
VERTEX
  8
L_slope
  10
454.27
  20
-305.19
  30
0.00
  0
SEQEND
  0
POLYLINE
  8
L_slope
  66
1
  70
0
  0
VERTEX
  8
L_slope
  10
464.96
  20
-343.28
  30
0.00
  0
VERTEX
  8
L_slope
  10
465.74
  20
-333.05
  30
0.00
  0
VERTEX
  8
L_slope
  10
465.99
  20
-323.98
  30
0.00
  0
VERTEX
  8
L_slope
  10
465.74
  20
-314.07
  30
0.00
  0
SEQEND
  0
INSERT
  8
POINT
  2
P_blocks
  41
10.00
  42
10.00
  50
360.00
  10
416.02
  20
-337.87
  30
0.00
  0
INSERT
  8
POINT
  2
P_debris
  41
10.00
  42
10.00
  50
360.00
  10
357.47
  20
-330.00
  30
0.00
  0
INSERT
  8
POINT
  2
P_debris
  41
10.00
  42
10.00
  50
360.00
  10
356.65
  20
-286.78
  30
0.00
  0
INSERT
  8
POINT
  2
P_debris
  41
10.00
  42
10.00
  50
360.00
  10
373.48
  20
-307.19
  30
0.00
  0
INSERT
  8
POINT
  2
P_debris
  41
10.00
  42
10.00
  50
360.00
  10
387.87
  20
-335.94
  30
0.00
  0
INSERT
  8
POINT
  2
P_debris
  41
10.00
  42
10.00
  50
360.00
  10
402.02
  20
-347.91
  30
0.00
  0
INSERT
  8
POINT
  2
P_debris
  41
10.00
  42
10.00
  50
360.00
  10
430.98
  20
-322.46
  30
0.00
  0
INSERT
  8
POINT
  2
P_debris
  41
10.00
  42
10.00
  50
360.00
  10
400.86
  20
-290.35
  30
0.00
  0
INSERT
  8
POINT
  2
P_debris
  41
10.00
  42
10.00
  50
360.00
  10
421.39
  20
-299.62
  30
0.00
  0
INSERT
  8
POINT
  2
P_debris
  41
10.00
  42
10.00
  50
360.00
  10
419.83
  20
-258.33
  30
0.00
  0
INSERT
  8
POINT
  2
P_debris
  41
10.00
  42
10.00
  50
360.00
  10
433.68
  20
-262.27
  30
0.00
  0
INSERT
  8
POINT
  2
P_debris
  41
10.00
  42
10.00
  50
360.00
  10
506.60
  20
-328.78
  30
0.00
  0
POLYLINE
  8
L_wall
  66
1
  70
0
  0
VERTEX
  8
L_wall
  10
487.63
  20
-338.79
  30
0.00
  0
VERTEX
  8
L_wall
  10
493.35
  20
-337.39
  30
0.00
  0
VERTEX
  8
L_wall
  10
497.55
  20
-331.25
  30
0.00
  0
SEQEND
  0
POLYLINE
  8
L_wall
  66
1
  70
0
  0
VERTEX
  8
L_wall
  10
499.05
  20
-333.18
  30
0.00
  0
VERTEX
  8
L_wall
  10
504.74
  20
-329.82
  30
0.00
  0
VERTEX
  8
L_wall
  10
512.83
  20
-328.33
  30
0.00
  0
VERTEX
  8
L_wall
  10
519.67
  20
-324.51
  30
0.00
  0
VERTEX
  8
L_wall
  10
526.25
  20
-319.58
  30
0.00
  0
VERTEX
  8
L_wall
  10
531.33
  20
-313.22
  30
0.00
  0
VERTEX
  8
L_wall
  10
534.70
  20
-310.96
  30
0.00
  0
SEQEND
  0
POLYLINE
  8
L_wall
  66
1
  70
0
  0
VERTEX
  8
L_wall
  10
534.70
  20
-310.96
  30
0.00
  0
VERTEX
  8
L_wall
  10
544.33
  20
-292.28
  30
0.00
  0
VERTEX
  8
L_wall
  10
549.63
  20
-285.79
  30
0.00
  0
VERTEX
  8
L_wall
  10
552.84
  20
-278.70
  30
0.00
  0
VERTEX
  8
L_wall
  10
558.56
  20
-273.33
  30
0.00
  0
SEQEND
  0
POLYLINE
  8
L_wall
  66
1
  70
0
  0
VERTEX
  8
L_wall
  10
558.56
  20
-273.33
  30
0.00
  0
VERTEX
  8
L_wall
  10
566.94
  20
-272.64
  30
0.00
  0
VERTEX
  8
L_wall
  10
575.41
  20
-272.63
  30
0.00
  0
VERTEX
  8
L_wall
  10
583.07
  20
-273.77
  30
0.00
  0
VERTEX
  8
L_wall
  10
592.60
  20
-271.34
  30
0.00
  0
VERTEX
  8
L_wall
  10
600.36
  20
-267.62
  30
0.00
  0
VERTEX
  8
L_wall
  10
607.87
  20
-264.26
  30
0.00
  0
VERTEX
  8
L_wall
  10
616.28
  20
-262.93
  30
0.00
  0
SEQEND
  0
POLYLINE
  8
L_wall
  66
1
  70
0
  0
VERTEX
  8
L_wall
  10
616.28
  20
-262.93
  30
0.00
  0
VERTEX
  8
L_wall
  10
624.96
  20
-263.17
  30
0.00
  0
VERTEX
  8
L_wall
  10
633.58
  20
-261.37
  30
0.00
  0
VERTEX
  8
L_wall
  10
641.18
  20
-259.56
  30
0.00
  0
SEQEND
  0
POLYLINE
  8
L_wall
  66
1
  70
0
  0
VERTEX
  8
L_wall
  10
489.34
  20
-314.13
  30
0.00
  0
VERTEX
  8
L_wall
  10
497.37
  20
-312.07
  30
0.00
  0
VERTEX
  8
L_wall
  10
505.53
  20
-309.57
  30
0.00
  0
VERTEX
  8
L_wall
  10
510.63
  20
-303.79
  30
0.00
  0
SEQEND
  0
POLYLINE
  8
L_wall
  66
1
  70
0
  0
VERTEX
  8
L_wall
  10
529.24
  20
-279.06
  30
0.00
  0
VERTEX
  8
L_wall
  10
527.72
  20
-271.72
  30
0.00
  0
VERTEX
  8
L_wall
  10
522.27
  20
-265.98
  30
0.00
  0
VERTEX
  8
L_wall
  10
515.17
  20
-261.65
  30
0.00
  0
VERTEX
  8
L_wall
  10
510.32
  20
-255.96
  30
0.00
  0
VERTEX
  8
L_wall
  10
504.72
  20
-249.17
  30
0.00
  0
VERTEX
  8
L_wall
  10
501.22
  20
-241.80
  30
0.00
  0
VERTEX
  8
L_wall
  10
501.66
  20
-236.90
  30
0.00
  0
SEQEND
  0
POLYLINE
  8
L_wall
  66
1
  70
0
  0
VERTEX
  8
L_wall
  10
501.66
  20
-236.90
  30
0.00
  0
VERTEX
  8
L_wall
  10
501.76
  20
-233.31
  30
0.00
  0
VERTEX
  8
L_wall
  10
509.84
  20
-229.71
  30
0.00
  0
VERTEX
  8
L_wall
  10
518.77
  20
-230.41
  30
0.00
  0
VERTEX
  8
L_wall
  10
527.51
  20
-232.28
  30
0.00
  0
VERTEX
  8
L_wall
  10
535.00
  20
-233.40
  30
0.00
  0
VERTEX
  8
L_wall
  10
543.20
  20
-233.40
  30
0.00
  0
VERTEX
  8
L_wall
  10
548.91
  20
-232.84
  30
0.00
  0
SEQEND
  0
POLYLINE
  8
L_wall
  66
1
  70
0
  0
VERTEX
  8
L_wall
  10
548.91
  20
-232.84
  30
0.00
  0
VERTEX
  8
L_wall
  10
558.76
  20
-232.50
  30
0.00
  0
VERTEX
  8
L_wall
  10
564.55
  20
-226.92
  30
0.00
  0
VERTEX
  8
L_wall
  10
573.06
  20
-224.38
  30
0.00
  0
VERTEX
  8
L_wall
  10
581.24
  20
-224.06
  30
0.00
  0
SEQEND
  0
POLYLINE
  8
L_wall
  66
1
  70
0
  0
VERTEX
  8
L_wall
  10
581.24
  20
-224.06
  30
0.00
  0
VERTEX
  8
L_wall
  10
586.62
  20
-225.38
  30
0.00
  0
VERTEX
  8
L_wall
  10
595.16
  20
-222.51
  30
0.00
  0
VERTEX
  8
L_wall
  10
603.57
  20
-223.31
  30
0.00
  0
VERTEX
  8
L_wall
  10
612.23
  20
-223.31
  30
0.00
  0
VERTEX
  8
L_wall
  10
619.13
  20
-225.65
  30
0.00
  0
VERTEX
  8
L_wall
  10
625.73
  20
-229.72
  30
0.00
  0
VERTEX
  8
L_wall
  10
629.20
  20
-236.93
  30
0.00
  0
VERTEX
  8
L_wall
  10
636.24
  20
-238.26
  30
0.00
  0
SEQEND
  0
POLYLINE
  8
L_pit
  66
1
  70
0
  0
VERTEX
  8
L_pit
  10
520.71
  20
-240.88
  30
0.00
  0
VERTEX
  8
L_pit
  10
515.19
  20
-245.95
  30
0.00
  0
VERTEX
  8
L_pit
  10
519.13
  20
-254.29
  30
0.00
  0
VERTEX
  8
L_pit
  10
524.50
  20
-259.19
  30
0.00
  0
VERTEX
  8
L_pit
  10
532.48
  20
-256.02
  30
0.00
  0
VERTEX
  8
L_pit
  10
539.58
  20
-250.97
  30
0.00
  0
VERTEX
  8
L_pit
  10
539.22
  20
-243.01
  30
0.00
  0
VERTEX
  8
L_pit
  10
530.24
  20
-240.88
  30
0.00
  0
VERTEX
  8
L_pit
  10
521.83
  20
-241.63
  30
0.00
  0
SEQEND
  0
POLYLINE
  8
L_wall
  66
1
  70
0
  0
VERTEX
  8
L_wall
  10
534.72
  20
-246.67
  30
0.00
  0
VERTEX
  8
L_wall
  10
530.38
  20
-247.23
  30
0.00
  0
VERTEX
  8
L_wall
  10
521.83
  20
-248.35
  30
0.00
  0
VERTEX
  8
L_wall
  10
527.06
  20
-255.08
  30
0.00
  0
VERTEX
  8
L_wall
  10
527.44
  20
-245.57
  30
0.00
  0
VERTEX
  8
L_wall
  10
529.08
  20
-237.29
  30
0.00
  0
SEQEND
  0
POLYLINE
  8
L_slope
  66
1
  70
0
  0
VERTEX
  8
L_slope
  10
490.46
  20
-313.38
  30
0.00
  0
VERTEX
  8
L_slope
  10
493.11
  20
-321.54
  30
0.00
  0
VERTEX
  8
L_slope
  10
495.31
  20
-330.17
  30
0.00
  0
SEQEND
  0
POLYLINE
  8
L_slope
  66
1
  70
0
  0
VERTEX
  8
L_slope
  10
510.63
  20
-302.54
  30
0.00
  0
VERTEX
  8
L_slope
  10
517.54
  20
-311.51
  30
0.00
  0
VERTEX
  8
L_slope
  10
521.83
  20
-317.11
  30
0.00
  0
SEQEND
  0
POLYLINE
  8
L_slope
  66
1
  70
0
  0
VERTEX
  8
L_slope
  10
525.57
  20
-286.84
  30
0.00
  0
VERTEX
  8
L_slope
  10
530.61
  20
-293.76
  30
0.00
  0
VERTEX
  8
L_slope
  10
538.27
  20
-298.43
  30
0.00
  0
SEQEND
  0
POLYLINE
  8
L_wall
  66
1
  70
0
  0
VERTEX
  8
L_wall
  10
510.63
  20
-303.79
  30
0.00
  0
VERTEX
  8
L_wall
  10
513.66
  20
-297.64
  30
0.00
  0
VERTEX
  8
L_wall
  10
518.71
  20
-290.86
  30
0.00
  0
VERTEX
  8
L_wall
  10
524.37
  20
-285.05
  30
0.00
  0
VERTEX
  8
L_wall
  10
529.24
  20
-279.06
  30
0.00
  0
SEQEND
  0
INSERT
  8
POINT
  2
P_debris
  41
10.00
  42
10.00
  50
360.00
  10
532.29
  20
-301.58
  30
0.00
  0
INSERT
  8
POINT
  2
P_debris
  41
10.00
  42
10.00
  50
360.00
  10
524.82
  20
-295.44
  30
0.00
  0
INSERT
  8
POINT
  2
P_debris
  41
10.00
  42
10.00
  50
360.00
  10
544.24
  20
-268.16
  30
0.00
  0
INSERT
  8
POINT
  2
P_debris
  41
10.00
  42
10.00
  50
360.00
  10
510.67
  20
-238.26
  30
0.00
  0
INSERT
  8
POINT
  2
P_debris
  41
10.00
  42
10.00
  50
360.00
  10
531.17
  20
-263.15
  30
0.00
  0
INSERT
  8
POINT
  2
P_debris
  41
10.00
  42
10.00
  50
360.00
  10
553.58
  20
-240.13
  30
0.00
  0
INSERT
  8
POINT
  2
P_debris
  41
10.00
  42
10.00
  50
360.00
  10
565.91
  20
-262.18
  30
0.00
  0
INSERT
  8
POINT
  2
P_debris
  41
10.00
  42
10.00
  50
360.00
  10
555.45
  20
-252.09
  30
0.00
  0
POLYLINE
  8
L_wall
  66
1
  70
0
  0
VERTEX
  8
L_wall
  10
636.24
  20
-238.26
  30
0.00
  0
VERTEX
  8
L_wall
  10
635.92
  20
-235.32
  30
0.00
  0
VERTEX
  8
L_wall
  10
638.52
  20
-232.05
  30
0.00
  0
VERTEX
  8
L_wall
  10
642.14
  20
-230.10
  30
0.00
  0
VERTEX
  8
L_wall
  10
645.89
  20
-227.29
  30
0.00
  0
VERTEX
  8
L_wall
  10
648.30
  20
-223.97
  30
0.00
  0
VERTEX
  8
L_wall
  10
651.17
  20
-220.88
  30
0.00
  0
VERTEX
  8
L_wall
  10
655.43
  20
-220.55
  30
0.00
  0
SEQEND
  0
POLYLINE
  8
L_wall
  66
1
  70
0
  0
VERTEX
  8
L_wall
  10
655.43
  20
-220.55
  30
0.00
  0
VERTEX
  8
L_wall
  10
659.91
  20
-220.24
  30
0.00
  0
VERTEX
  8
L_wall
  10
666.50
  20
-221.04
  30
0.00
  0
VERTEX
  8
L_wall
  10
669.95
  20
-222.59
  30
0.00
  0
VERTEX
  8
L_wall
  10
673.01
  20
-225.98
  30
0.00
  0
VERTEX
  8
L_wall
  10
678.06
  20
-228.41
  30
0.00
  0
VERTEX
  8
L_wall
  10
680.42
  20
-231.39
  30
0.00
  0
VERTEX
  8
L_wall
  10
684.02
  20
-234.63
  30
0.00
  0
VERTEX
  8
L_wall
  10
687.97
  20
-237.02
  30
0.00
  0
VERTEX
  8
L_wall
  10
690.81
  20
-239.67
  30
0.00
  0
VERTEX
  8
L_wall
  10
696.20
  20
-242.07
  30
0.00
  0
SEQEND
  0
POLYLINE
  8
L_wall
  66
1
  70
0
  0
VERTEX
  8
L_wall
  10
641.18
  20
-259.56
  30
0.00
  0
VERTEX
  8
L_wall
  10
639.55
  20
-263.62
  30
0.00
  0
VERTEX
  8
L_wall
  10
644.07
  20
-264.80
  30
0.00
  0
VERTEX
  8
L_wall
  10
647.88
  20
-266.00
  30
0.00
  0
VERTEX
  8
L_wall
  10
651.54
  20
-267.33
  30
0.00
  0
VERTEX
  8
L_wall
  10
655.24
  20
-268.83
  30
0.00
  0
VERTEX
  8
L_wall
  10
659.11
  20
-270.39
  30
0.00
  0
VERTEX
  8
L_wall
  10
663.84
  20
-272.87
  30
0.00
  0
SEQEND
  0
INSERT
  8
POINT
  2
P_debris
  41
10.00
  42
10.00
  50
360.00
  10
585.03
  20
-242.23
  30
0.00
  0
INSERT
  8
POINT
  2
P_debris
  41
10.00
  42
10.00
  50
360.00
  10
588.10
  20
-261.16
  30
0.00
  0
INSERT
  8
POINT
  2
P_debris
  41
10.00
  42
10.00
  50
360.00
  10
606.00
  20
-240.39
  30
0.00
  0
INSERT
  8
POINT
  2
P_debris
  41
10.00
  42
10.00
  50
360.00
  10
626.47
  20
-250.87
  30
0.00
  0
INSERT
  8
POINT
  2
P_debris
  41
10.00
  42
10.00
  50
360.00
  10
659.73
  20
-234.39
  30
0.00
  0
INSERT
  8
POINT
  2
P_debris
  41
10.00
  42
10.00
  50
360.00
  10
648.88
  20
-257.98
  30
0.00
  0
INSERT
  8
POINT
  2
P_blocks
  41
10.00
  42
10.00
  50
360.00
  10
664.49
  20
-259.37
  30
0.00
  0
POLYLINE
  8
L_wall
  66
1
  70
0
  0
VERTEX
  8
L_wall
  10
695.66
  20
-241.26
  30
0.00
  0
VERTEX
  8
L_wall
  10
696.79
  20
-246.26
  30
0.00
  0
VERTEX
  8
L_wall
  10
700.92
  20
-249.01
  30
0.00
  0
VERTEX
  8
L_wall
  10
704.83
  20
-251.37
  30
0.00
  0
VERTEX
  8
L_wall
  10
709.22
  20
-253.92
  30
0.00
  0
VERTEX
  8
L_wall
  10
713.64
  20
-254.74
  30
0.00
  0
VERTEX
  8
L_wall
  10
717.26
  20
-255.95
  30
0.00
  0
VERTEX
  8
L_wall
  10
721.90
  20
-257.35
  30
0.00
  0
VERTEX
  8
L_wall
  10
725.93
  20
-258.10
  30
0.00
  0
VERTEX
  8
L_wall
  10
729.84
  20
-259.64
  30
0.00
  0
VERTEX
  8
L_wall
  10
734.75
  20
-259.97
  30
0.00
  0
VERTEX
  8
L_wall
  10
738.68
  20
-261.28
  30
0.00
  0
VERTEX
  8
L_wall
  10
742.42
  20
-261.47
  30
0.00
  0
VERTEX
  8
L_wall
  10
746.72
  20
-261.28
  30
0.00
  0
VERTEX
  8
L_wall
  10
750.83
  20
-261.47
  30
0.00
  0
VERTEX
  8
L_wall
  10
755.48
  20
-261.84
  30
0.00
  0
VERTEX
  8
L_wall
  10
759.53
  20
-261.33
  30
0.00
  0
VERTEX
  8
L_wall
  10
763.38
  20
-261.10
  30
0.00
  0
VERTEX
  8
L_wall
  10
768.42
  20
-260.72
  30
0.00
  0
VERTEX
  8
L_wall
  10
772.16
  20
-259.97
  30
0.00
  0
VERTEX
  8
L_wall
  10
776.41
  20
-259.44
  30
0.00
  0
SEQEND
  0
POLYLINE
  8
L_wall
  66
1
  70
0
  0
VERTEX
  8
L_wall
  10
885.22
  20
-215.58
  30
0.00
  0
VERTEX
  8
L_wall
  10
883.91
  20
-219.69
  30
0.00
  0
VERTEX
  8
L_wall
  10
882.41
  20
-223.44
  30
0.00
  0
VERTEX
  8
L_wall
  10
880.23
  20
-226.59
  30
0.00
  0
VERTEX
  8
L_wall
  10
877.85
  20
-230.43
  30
0.00
  0
VERTEX
  8
L_wall
  10
875.86
  20
-233.73
  30
0.00
  0
VERTEX
  8
L_wall
  10
873.85
  20
-237.19
  30
0.00
  0
VERTEX
  8
L_wall
  10
872.66
  20
-240.80
  30
0.00
  0
VERTEX
  8
L_wall
  10
871.00
  20
-244.77
  30
0.00
  0
VERTEX
  8
L_wall
  10
871.00
  20
-249.44
  30
0.00
  0
VERTEX
  8
L_wall
  10
869.69
  20
-253.37
  30
0.00
  0
VERTEX
  8
L_wall
  10
869.13
  20
-257.68
  30
0.00
  0
VERTEX
  8
L_wall
  10
868.38
  20
-262.33
  30
0.00
  0
VERTEX
  8
L_wall
  10
867.26
  20
-266.53
  30
0.00
  0
VERTEX
  8
L_wall
  10
866.89
  20
-270.58
  30
0.00
  0
VERTEX
  8
L_wall
  10
865.72
  20
-274.51
  30
0.00
  0
VERTEX
  8
L_wall
  10
865.39
  20
-278.55
  30
0.00
  0
VERTEX
  8
L_wall
  10
865.02
  20
-282.94
  30
0.00
  0
VERTEX
  8
L_wall
  10
864.27
  20
-286.76
  30
0.00
  0
VERTEX
  8
L_wall
  10
863.71
  20
-290.61
  30
0.00
  0
VERTEX
  8
L_wall
  10
863.89
  20
-294.80
  30
0.00
  0
VERTEX
  8
L_wall
  10
863.52
  20
-299.95
  30
0.00
  0
VERTEX
  8
L_wall
  10
863.15
  20
-304.25
  30
0.00
  0
VERTEX
  8
L_wall
  10
862.77
  20
-308.28
  30
0.00
  0
VERTEX
  8
L_wall
  10
861.86
  20
-312.79
  30
0.00
  0
VERTEX
  8
L_wall
  10
861.16
  20
-317.44
  30
0.00
  0
VERTEX
  8
L_wall
  10
860.90
  20
-321.30
  30
0.00
  0
VERTEX
  8
L_wall
  10
860.15
  20
-326.16
  30
0.00
  0
VERTEX
  8
L_wall
  10
859.25
  20
-330.19
  30
0.00
  0
VERTEX
  8
L_wall
  10
857.91
  20
-334.27
  30
0.00
  0
VERTEX
  8
L_wall
  10
857.16
  20
-337.99
  30
0.00
  0
VERTEX
  8
L_wall
  10
856.04
  20
-341.99
  30
0.00
  0
VERTEX
  8
L_wall
  10
855.66
  20
-346.37
  30
0.00
  0
VERTEX
  8
L_wall
  10
856.86
  20
-350.45
  30
0.00
  0
VERTEX
  8
L_wall
  10
857.16
  20
-354.19
  30
0.00
  0
SEQEND
  0
POLYLINE
  8
L_wall
  66
1
  70
0
  0
VERTEX
  8
L_wall
  10
853.79
  20
-385.86
  30
0.00
  0
VERTEX
  8
L_wall
  10
850.24
  20
-384.26
  30
0.00
  0
VERTEX
  8
L_wall
  10
845.91
  20
-383.98
  30
0.00
  0
VERTEX
  8
L_wall
  10
841.45
  20
-385.48
  30
0.00
  0
VERTEX
  8
L_wall
  10
839.77
  20
-389.22
  30
0.00
  0
VERTEX
  8
L_wall
  10
836.85
  20
-394.36
  30
0.00
  0
VERTEX
  8
L_wall
  10
836.59
  20
-398.21
  30
0.00
  0
VERTEX
  8
L_wall
  10
835.81
  20
-403.18
  30
0.00
  0
VERTEX
  8
L_wall
  10
835.46
  20
-407.66
  30
0.00
  0
VERTEX
  8
L_wall
  10
835.84
  20
-411.89
  30
0.00
  0
VERTEX
  8
L_wall
  10
835.35
  20
-416.03
  30
0.00
  0
VERTEX
  8
L_wall
  10
836.21
  20
-419.86
  30
0.00
  0
VERTEX
  8
L_wall
  10
837.34
  20
-423.90
  30
0.00
  0
VERTEX
  8
L_wall
  10
837.34
  20
-428.32
  30
0.00
  0
VERTEX
  8
L_wall
  10
835.91
  20
-431.89
  30
0.00
  0
VERTEX
  8
L_wall
  10
832.29
  20
-430.58
  30
0.00
  0
VERTEX
  8
L_wall
  10
829.55
  20
-427.84
  30
0.00
  0
VERTEX
  8
L_wall
  10
825.08
  20
-426.27
  30
0.00
  0
VERTEX
  8
L_wall
  10
821.81
  20
-424.40
  30
0.00
  0
VERTEX
  8
L_wall
  10
817.61
  20
-425.32
  30
0.00
  0
VERTEX
  8
L_wall
  10
814.71
  20
-428.14
  30
0.00
  0
VERTEX
  8
L_wall
  10
811.82
  20
-430.92
  30
0.00
  0
VERTEX
  8
L_wall
  10
810.22
  20
-434.32
  30
0.00
  0
VERTEX
  8
L_wall
  10
809.28
  20
-438.25
  30
0.00
  0
VERTEX
  8
L_wall
  10
807.78
  20
-442.11
  30
0.00
  0
SEQEND
  0
POLYLINE
  8
L_wall
  66
1
  70
0
  0
VERTEX
  8
L_wall
  10
659.65
  20
-272.83
  30
0.00
  0
VERTEX
  8
L_wall
  10
664.75
  20
-272.83
  30
0.00
  0
VERTEX
  8
L_wall
  10
667.70
  20
-275.18
  30
0.00
  0
VERTEX
  8
L_wall
  10
669.38
  20
-278.79
  30
0.00
  0
SEQEND
  0
POLYLINE
  8
L_wall
  66
1
  70
0
  0
VERTEX
  8
L_wall
  10
669.38
  20
-280.32
  30
0.00
  0
VERTEX
  8
L_wall
  10
669.38
  20
-284.25
  30
0.00
  0
VERTEX
  8
L_wall
  10
669.38
  20
-288.18
  30
0.00
  0
VERTEX
  8
L_wall
  10
669.38
  20
-292.02
  30
0.00
  0
VERTEX
  8
L_wall
  10
671.48
  20
-295.90
  30
0.00
  0
VERTEX
  8
L_wall
  10
674.25
  20
-298.57
  30
0.00
  0
VERTEX
  8
L_wall
  10
677.71
  20
-300.39
  30
0.00
  0
VERTEX
  8
L_wall
  10
681.72
  20
-303.15
  30
0.00
  0
VERTEX
  8
L_wall
  10
686.45
  20
-304.58
  30
0.00
  0
VERTEX
  8
L_wall
  10
690.26
  20
-307.95
  30
0.00
  0
VERTEX
  8
L_wall
  10
693.18
  20
-311.24
  30
0.00
  0
VERTEX
  8
L_wall
  10
696.24
  20
-313.55
  30
0.00
  0
VERTEX
  8
L_wall
  10
699.68
  20
-316.06
  30
0.00
  0
VERTEX
  8
L_wall
  10
703.28
  20
-318.12
  30
0.00
  0
VERTEX
  8
L_wall
  10
707.07
  20
-318.49
  30
0.00
  0
VERTEX
  8
L_wall
  10
711.32
  20
-319.35
  30
0.00
  0
SEQEND
  0
POLYLINE
  8
L_wall
  66
1
  70
0
  0
VERTEX
  8
L_wall
  10
714.64
  20
-322.23
  30
0.00
  0
VERTEX
  8
L_wall
  10
718.61
  20
-323.73
  30
0.00
  0
VERTEX
  8
L_wall
  10
722.05
  20
-326.58
  30
0.00
  0
VERTEX
  8
L_wall
  10
723.62
  20
-330.47
  30
0.00
  0
VERTEX
  8
L_wall
  10
724.68
  20
-334.09
  30
0.00
  0
VERTEX
  8
L_wall
  10
725.86
  20
-338.22
  30
0.00
  0
VERTEX
  8
L_wall
  10
727.36
  20
-341.76
  30
0.00
  0
VERTEX
  8
L_wall
  10
728.63
  20
-346.24
  30
0.00
  0
VERTEX
  8
L_wall
  10
730.14
  20
-350.62
  30
0.00
  0
VERTEX
  8
L_wall
  10
730.73
  20
-354.33
  30
0.00
  0
VERTEX
  8
L_wall
  10
731.77
  20
-358.98
  30
0.00
  0
VERTEX
  8
L_wall
  10
732.34
  20
-362.75
  30
0.00
  0
VERTEX
  8
L_wall
  10
734.84
  20
-370.14
  30
0.00
  0
SEQEND
  0
POLYLINE
  8
L_wall
  66
1
  70
0
  0
VERTEX
  8
L_wall
  10
733.72
  20
-369.39
  30
0.00
  0
VERTEX
  8
L_wall
  10
734.95
  20
-373.20
  30
0.00
  0
VERTEX
  8
L_wall
  10
735.77
  20
-378.90
  30
0.00
  0
VERTEX
  8
L_wall
  10
736.79
  20
-382.65
  30
0.00
  0
VERTEX
  8
L_wall
  10
738.76
  20
-386.12
  30
0.00
  0
VERTEX
  8
L_wall
  10
739.13
  20
-391.40
  30
0.00
  0
VERTEX
  8
L_wall
  10
740.26
  20
-395.95
  30
0.00
  0
VERTEX
  8
L_wall
  10
742.70
  20
-399.33
  30
0.00
  0
VERTEX
  8
L_wall
  10
745.88
  20
-402.70
  30
0.00
  0
VERTEX
  8
L_wall
  10
749.93
  20
-404.17
  30
0.00
  0
VERTEX
  8
L_wall
  10
754.35
  20
-405.80
  30
0.00
  0
VERTEX
  8
L_wall
  10
758.41
  20
-407.00
  30
0.00
  0
VERTEX
  8
L_wall
  10
762.58
  20
-407.72
  30
0.00
  0
VERTEX
  8
L_wall
  10
766.97
  20
-409.43
  30
0.00
  0
VERTEX
  8
L_wall
  10
770.53
  20
-410.74
  30
0.00
  0
VERTEX
  8
L_wall
  10
774.07
  20
-412.75
  30
0.00
  0
VERTEX
  8
L_wall
  10
777.29
  20
-414.76
  30
0.00
  0
VERTEX
  8
L_wall
  10
780.85
  20
-417.85
  30
0.00
  0
SEQEND
  0
POLYLINE
  8
L_wall
  66
1
  70
0
  0
VERTEX
  8
L_wall
  10
780.48
  20
-418.04
  30
0.00
  0
VERTEX
  8
L_wall
  10
782.78
  20
-421.53
  30
0.00
  0
VERTEX
  8
L_wall
  10
784.22
  20
-425.16
  30
0.00
  0
VERTEX
  8
L_wall
  10
784.97
  20
-429.37
  30
0.00
  0
VERTEX
  8
L_wall
  10
785.34
  20
-433.17
  30
0.00
  0
SEQEND
  0
INSERT
  8
POINT
  2
P_blocks
  41
10.00
  42
10.00
  50
360.00
  10
723.99
  20
-296.64
  30
0.00
  0
INSERT
  8
POINT
  2
P_blocks
  41
10.00
  42
10.00
  50
360.00
  10
716.14
  20
-314.38
  30
0.00
  0
INSERT
  8
POINT
  2
P_blocks
  41
10.00
  42
10.00
  50
360.00
  10
797.77
  20
-296.12
  30
0.00
  0
INSERT
  8
POINT
  2
P_blocks
  41
10.00
  42
10.00
  50
360.00
  10
816.74
  20
-322.60
  30
0.00
  0
INSERT
  8
POINT
  2
P_blocks
  41
10.00
  42
10.00
  50
360.00
  10
825.01
  20
-299.79
  30
0.00
  0
INSERT
  8
POINT
  2
P_blocks
  41
10.00
  42
10.00
  50
360.00
  10
850.47
  20
-301.32
  30
0.00
  0
INSERT
  8
POINT
  2
P_blocks
  41
10.00
  42
10.00
  50
360.00
  10
844.89
  20
-332.78
  30
0.00
  0
INSERT
  8
POINT
  2
P_blocks
  41
10.00
  42
10.00
  50
360.00
  10
850.83
  20
-314.07
  30
0.00
  0
INSERT
  8
POINT
  2
P_blocks
  41
10.00
  42
10.00
  50
360.00
  10
835.16
  20
-311.85
  30
0.00
  0
INSERT
  8
POINT
  2
P_blocks
  41
10.00
  42
10.00
  50
360.00
  10
814.07
  20
-342.56
  30
0.00
  0
INSERT
  8
POINT
  2
P_blocks
  41
10.00
  42
10.00
  50
360.00
  10
818.02
  20
-385.11
  30
0.00
  0
INSERT
  8
POINT
  2
P_blocks
  41
10.00
  42
10.00
  50
360.00
  10
809.28
  20
-344.50
  30
0.00
  0
INSERT
  8
POINT
  2
P_blocks
  41
10.00
  42
10.00
  50
360.00
  10
802.55
  20
-358.16
  30
0.00
  0
POLYLINE
  8
L_wall
  66
1
  70
0
  0
VERTEX
  8
L_wall
  10
824.62
  20
-170.99
  30
0.00
  0
VERTEX
  8
L_wall
  10
828.17
  20
-178.46
  30
0.00
  0
VERTEX
  8
L_wall
  10
833.44
  20
-185.42
  30
0.00
  0
VERTEX
  8
L_wall
  10
839.21
  20
-190.82
  30
0.00
  0
VERTEX
  8
L_wall
  10
846.94
  20
-195.37
  30
0.00
  0
VERTEX
  8
L_wall
  10
853.80
  20
-199.05
  30
0.00
  0
VERTEX
  8
L_wall
  10
861.79
  20
-201.35
  30
0.00
  0
VERTEX
  8
L_wall
  10
870.32
  20
-205.56
  30
0.00
  0
VERTEX
  8
L_wall
  10
877.55
  20
-209.34
  30
0.00
  0
VERTEX
  8
L_wall
  10
884.65
  20
-213.84
  30
0.00
  0
VERTEX
  8
L_wall
  10
885.98
  20
-217.80
  30
0.00
  0
SEQEND
  0
POLYLINE
  8
L_wall
  66
1
  70
0
  0
VERTEX
  8
L_wall
  10
776.41
  20
-259.44
  30
0.00
  0
VERTEX
  8
L_wall
  10
779.96
  20
-254.66
  30
0.00
  0
VERTEX
  8
L_wall
  10
784.97
  20
-247.14
  30
0.00
  0
VERTEX
  8
L_wall
  10
788.14
  20
-239.85
  30
0.00
  0
VERTEX
  8
L_wall
  10
788.71
  20
-231.75
  30
0.00
  0
VERTEX
  8
L_wall
  10
789.83
  20
-223.75
  30
0.00
  0
VERTEX
  8
L_wall
  10
792.07
  20
-219.26
  30
0.00
  0
SEQEND
  0
INSERT
  8
POINT
  2
P_blocks
  41
10.00
  42
10.00
  50
360.00
  10
801.43
  20
-267.54
  30
0.00
  0
POLYLINE
  8
L_wall
  66
1
  70
0
  0
VERTEX
  8
L_wall
  10
802.55
  20
-109.98
  30
0.00
  0
VERTEX
  8
L_wall
  10
805.95
  20
-117.89
  30
0.00
  0
VERTEX
  8
L_wall
  10
813.40
  20
-123.83
  30
0.00
  0
VERTEX
  8
L_wall
  10
822.56
  20
-125.70
  30
0.00
  0
VERTEX
  8
L_wall
  10
830.94
  20
-125.33
  30
0.00
  0
VERTEX
  8
L_wall
  10
839.35
  20
-124.58
  30
0.00
  0
SEQEND
  0
POLYLINE
  8
L_wall
  66
1
  70
0
  0
VERTEX
  8
L_wall
  10
824.62
  20
-170.99
  30
0.00
  0
VERTEX
  8
L_wall
  10
826.86
  20
-167.71
  30
0.00
  0
VERTEX
  8
L_wall
  10
832.53
  20
-162.36
  30
0.00
  0
VERTEX
  8
L_wall
  10
841.57
  20
-158.47
  30
0.00
  0
VERTEX
  8
L_wall
  10
849.71
  20
-155.88
  30
0.00
  0
SEQEND
  0
POLYLINE
  8
L_wall
  66
1
  70
0
  0
VERTEX
  8
L_wall
  10
766.26
  20
-117.47
  30
0.00
  0
VERTEX
  8
L_wall
  10
766.64
  20
-125.85
  30
0.00
  0
VERTEX
  8
L_wall
  10
767.90
  20
-135.54
  30
0.00
  0
VERTEX
  8
L_wall
  10
769.26
  20
-144.41
  30
0.00
  0
VERTEX
  8
L_wall
  10
769.63
  20
-153.57
  30
0.00
  0
VERTEX
  8
L_wall
  10
769.26
  20
-162.99
  30
0.00
  0
VERTEX
  8
L_wall
  10
771.91
  20
-170.65
  30
0.00
  0
VERTEX
  8
L_wall
  10
776.55
  20
-177.34
  30
0.00
  0
VERTEX
  8
L_wall
  10
781.67
  20
-185.13
  30
0.00
  0
VERTEX
  8
L_wall
  10
785.98
  20
-192.59
  30
0.00
  0
VERTEX
  8
L_wall
  10
789.73
  20
-200.96
  30
0.00
  0
VERTEX
  8
L_wall
  10
794.73
  20
-208.11
  30
0.00
  0
VERTEX
  8
L_wall
  10
797.31
  20
-216.45
  30
0.00
  0
VERTEX
  8
L_wall
  10
793.20
  20
-222.39
  30
0.00
  0
SEQEND
  0
POLYLINE
  8
L_slope
  66
1
  70
0
  0
VERTEX
  8
L_slope
  10
804.79
  20
-214.02
  30
0.00
  0
VERTEX
  8
L_slope
  10
813.95
  20
-211.83
  30
0.00
  0
VERTEX
  8
L_slope
  10
823.90
  20
-207.46
  30
0.00
  0
VERTEX
  8
L_slope
  10
831.88
  20
-201.98
  30
0.00
  0
VERTEX
  8
L_slope
  10
839.76
  20
-196.77
  30
0.00
  0
SEQEND
  0
POLYLINE
  8
L_slope
  66
1
  70
0
  0
VERTEX
  8
L_slope
  10
789.83
  20
-179.97
  30
0.00
  0
VERTEX
  8
L_slope
  10
797.86
  20
-183.14
  30
0.00
  0
VERTEX
  8
L_slope
  10
807.40
  20
-179.41
  30
0.00
  0
VERTEX
  8
L_slope
  10
814.96
  20
-175.12
  30
0.00
  0
SEQEND
  0
POLYLINE
  8
L_slope
  66
1
  70
0
  0
VERTEX
  8
L_slope
  10
777.11
  20
-144.04
  30
0.00
  0
VERTEX
  8
L_slope
  10
785.90
  20
-144.42
  30
0.00
  0
VERTEX
  8
L_slope
  10
795.05
  20
-141.99
  30
0.00
  0
VERTEX
  8
L_slope
  10
803.03
  20
-137.16
  30
0.00
  0
SEQEND
  0
INSERT
  8
POINT
  2
P_debris
  41
10.00
  42
10.00
  50
360.00
  10
814.22
  20
-244.71
  30
0.00
  0
INSERT
  8
POINT
  2
P_debris
  41
10.00
  42
10.00
  50
360.00
  10
839.95
  20
-222.63
  30
0.00
  0
INSERT
  8
POINT
  2
P_debris
  41
10.00
  42
10.00
  50
360.00
  10
860.67
  20
-245.23
  30
0.00
  0
INSERT
  8
POINT
  2
P_debris
  41
10.00
  42
10.00
  50
360.00
  10
841.45
  20
-270.53
  30
0.00
  0
INSERT
  8
POINT
  2
P_debris
  41
10.00
  42
10.00
  50
360.00
  10
832.62
  20
-244.25
  30
0.00
  0
INSERT
  8
POINT
  2
P_debris
  41
10.00
  42
10.00
  50
360.00
  10
757.36
  20
-285.20
  30
0.00
  0
INSERT
  8
POINT
  2
P_debris
  41
10.00
  42
10.00
  50
360.00
  10
756.16
  20
-338.01
  30
0.00
  0
INSERT
  8
POINT
  2
P_debris
  41
10.00
  42
10.00
  50
360.00
  10
754.51
  20
-369.08
  30
0.00
  0
INSERT
  8
POINT
  2
P_debris
  41
10.00
  42
10.00
  50
360.00
  10
784.97
  20
-365.82
  30
0.00
  0
INSERT
  8
POINT
  2
P_debris
  41
10.00
  42
10.00
  50
360.00
  10
786.84
  20
-320.31
  30
0.00
  0
INSERT
  8
POINT
  2
P_debris
  41
10.00
  42
10.00
  50
360.00
  10
769.17
  20
-304.67
  30
0.00
  0
INSERT
  8
POINT
  2
P_debris
  41
10.00
  42
10.00
  50
360.00
  10
690.74
  20
-280.32
  30
0.00
  0
INSERT
  8
POINT
  2
P_debris
  41
10.00
  42
10.00
  50
360.00
  10
705.44
  20
-253.78
  30
0.00
  0
INSERT
  8
POINT
  2
P_debris
  41
10.00
  42
10.00
  50
360.00
  10
717.82
  20
-271.28
  30
0.00
  0
INSERT
  8
POINT
  2
P_debris
  41
10.00
  42
10.00
  50
360.00
  10
781.97
  20
-166.49
  30
0.00
  0
INSERT
  8
POINT
  2
P_debris
  41
10.00
  42
10.00
  50
360.00
  10
801.86
  20
-154.89
  30
0.00
  0
INSERT
  8
POINT
  2
P_debris
  41
10.00
  42
10.00
  50
360.00
  10
810.03
  20
-150.59
  30
0.00
  0
INSERT
  8
POINT
  2
P_debris
  41
10.00
  42
10.00
  50
360.00
  10
778.37
  20
-125.70
  30
0.00
  0
INSERT
  8
POINT
  2
P_debris
  41
10.00
  42
10.00
  50
360.00
  10
797.31
  20
-123.83
  30
0.00
  0
INSERT
  8
POINT
  2
P_debris
  41
10.00
  42
10.00
  50
360.00
  10
793.26
  20
-171.77
  30
0.00
  0
INSERT
  8
POINT
  2
P_debris
  41
10.00
  42
10.00
  50
360.00
  10
809.47
  20
-199.05
  30
0.00
  0
POLYLINE
  8
L_wall
  66
1
  70
0
  0
VERTEX
  8
L_wall
  10
654.64
  20
9.91
  30
0.00
  0
VERTEX
  8
L_wall
  10
660.66
  20
-1.09
  30
0.00
  0
VERTEX
  8
L_wall
  10
664.22
  20
-13.61
  30
0.00
  0
VERTEX
  8
L_wall
  10
672.82
  20
-21.71
  30
0.00
  0
VERTEX
  8
L_wall
  10
677.68
  20
-32.00
  30
0.00
  0
VERTEX
  8
L_wall
  10
684.49
  20
-40.91
  30
0.00
  0
VERTEX
  8
L_wall
  10
689.46
  20
-51.39
  30
0.00
  0
VERTEX
  8
L_wall
  10
692.34
  20
-62.47
  30
0.00
  0
VERTEX
  8
L_wall
  10
697.58
  20
-72.99
  30
0.00
  0
VERTEX
  8
L_wall
  10
695.48
  20
-73.92
  30
0.00
  0
VERTEX
  8
L_wall
  10
703.06
  20
-82.68
  30
0.00
  0
VERTEX
  8
L_wall
  10
711.19
  20
-90.16
  30
0.00
  0
VERTEX
  8
L_wall
  10
721.25
  20
-96.45
  30
0.00
  0
VERTEX
  8
L_wall
  10
731.72
  20
-101.47
  30
0.00
  0
VERTEX
  8
L_wall
  10
743.99
  20
-104.76
  30
0.00
  0
VERTEX
  8
L_wall
  10
754.30
  20
-110.75
  30
0.00
  0
VERTEX
  8
L_wall
  10
763.56
  20
-116.89
  30
0.00
  0
VERTEX
  8
L_wall
  10
767.75
  20
-120.77
  30
0.00
  0
SEQEND
  0
POLYLINE
  8
L_wall
  66
1
  70
0
  0
VERTEX
  8
L_wall
  10
680.20
  20
21.39
  30
0.00
  0
VERTEX
  8
L_wall
  10
685.06
  20
15.56
  30
0.00
  0
VERTEX
  8
L_wall
  10
688.65
  20
8.10
  30
0.00
  0
VERTEX
  8
L_wall
  10
693.08
  20
3.02
  30
0.00
  0
VERTEX
  8
L_wall
  10
697.39
  20
-2.84
  30
0.00
  0
VERTEX
  8
L_wall
  10
701.92
  20
-8.08
  30
0.00
  0
VERTEX
  8
L_wall
  10
706.82
  20
-13.89
  30
0.00
  0
VERTEX
  8
L_wall
  10
711.79
  20
-19.48
  30
0.00
  0
VERTEX
  8
L_wall
  10
716.19
  20
-25.64
  30
0.00
  0
VERTEX
  8
L_wall
  10
720.94
  20
-30.01
  30
0.00
  0
VERTEX
  8
L_wall
  10
725.98
  20
-34.73
  30
0.00
  0
VERTEX
  8
L_wall
  10
731.86
  20
-40.09
  30
0.00
  0
VERTEX
  8
L_wall
  10
738.58
  20
-44.07
  30
0.00
  0
VERTEX
  8
L_wall
  10
743.65
  20
-49.83
  30
0.00
  0
VERTEX
  8
L_wall
  10
749.21
  20
-54.07
  30
0.00
  0
VERTEX
  8
L_wall
  10
749.46
  20
-54.99
  30
0.00
  0
VERTEX
  8
L_wall
  10
755.98
  20
-59.88
  30
0.00
  0
VERTEX
  8
L_wall
  10
762.02
  20
-63.70
  30
0.00
  0
VERTEX
  8
L_wall
  10
767.89
  20
-67.51
  30
0.00
  0
VERTEX
  8
L_wall
  10
774.74
  20
-71.35
  30
0.00
  0
VERTEX
  8
L_wall
  10
779.80
  20
-76.00
  30
0.00
  0
VERTEX
  8
L_wall
  10
784.16
  20
-82.22
  30
0.00
  0
VERTEX
  8
L_wall
  10
788.27
  20
-88.67
  30
0.00
  0
VERTEX
  8
L_wall
  10
792.94
  20
-94.56
  30
0.00
  0
VERTEX
  8
L_wall
  10
796.27
  20
-100.64
  30
0.00
  0
VERTEX
  8
L_wall
  10
801.79
  20
-106.06
  30
0.00
  0
VERTEX
  8
L_wall
  10
804.54
  20
-109.78
  30
0.00
  0
SEQEND
  0
INSERT
  8
POINT
  2
P_blocks
  41
10.00
  42
10.00
  50
360.00
  10
711.61
  20
-50.64
  30
0.00
  0
INSERT
  8
POINT
  2
P_blocks
  41
10.00
  42
10.00
  50
360.00
  10
716.60
  20
-61.86
  30
0.00
  0
INSERT
  8
POINT
  2
P_blocks
  41
10.00
  42
10.00
  50
360.00
  10
670.48
  20
16.17
  30
0.00
  0
INSERT
  8
POINT
  2
P_debris
  41
10.00
  42
10.00
  50
360.00
  10
693.58
  20
-34.93
  30
0.00
  0
POLYLINE
  8
L_slope
  66
1
  70
0
  0
VERTEX
  8
L_slope
  10
759.77
  20
-108.17
  30
0.00
  0
VERTEX
  8
L_slope
  10
777.11
  20
-117.84
  30
0.00
  0
VERTEX
  8
L_slope
  10
785.53
  20
-119.15
  30
0.00
  0
VERTEX
  8
L_slope
  10
795.14
  20
-115.75
  30
0.00
  0
VERTEX
  8
L_slope
  10
800.68
  20
-112.04
  30
0.00
  0
SEQEND
  0
POLYLINE
  8
L_slope
  66
1
  70
0
  0
VERTEX
  8
L_slope
  10
740.12
  20
-94.96
  30
0.00
  0
VERTEX
  8
L_slope
  10
748.02
  20
-86.14
  30
0.00
  0
VERTEX
  8
L_slope
  10
754.90
  20
-78.23
  30
0.00
  0
VERTEX
  8
L_slope
  10
758.48
  20
-72.72
  30
0.00
  0
SEQEND
  0
POLYLINE
  8
L_slope
  66
1
  70
0
  0
VERTEX
  8
L_slope
  10
713.38
  20
-79.49
  30
0.00
  0
VERTEX
  8
L_slope
  10
719.87
  20
-76.19
  30
0.00
  0
VERTEX
  8
L_slope
  10
728.56
  20
-67.97
  30
0.00
  0
VERTEX
  8
L_slope
  10
733.40
  20
-62.34
  30
0.00
  0
VERTEX
  8
L_slope
  10
736.05
  20
-57.64
  30
0.00
  0
SEQEND
  0
POLYLINE
  8
L_slope
  66
1
  70
0
  0
VERTEX
  8
L_slope
  10
701.14
  20
-13.42
  30
0.00
  0
VERTEX
  8
L_slope
  10
693.97
  20
-19.51
  30
0.00
  0
VERTEX
  8
L_slope
  10
688.57
  20
-24.70
  30
0.00
  0
VERTEX
  8
L_slope
  10
683.90
  20
-30.02
  30
0.00
  0
SEQEND
  0
POLYLINE
  8
L_slope
  66
1
  70
0
  0
VERTEX
  8
L_slope
  10
685.68
  20
5.92
  30
0.00
  0
VERTEX
  8
L_slope
  10
676.65
  20
-0.86
  30
0.00
  0
VERTEX
  8
L_slope
  10
670.44
  20
-5.35
  30
0.00
  0
SEQEND
  0
INSERT
  8
POINT
  2
P_debris
  41
10.00
  42
10.00
  50
360.00
  10
680.57
  20
-18.30
  30
0.00
  0
INSERT
  8
POINT
  2
P_debris
  41
10.00
  42
10.00
  50
360.00
  10
691.80
  20
-6.01
  30
0.00
  0
INSERT
  8
POINT
  2
P_debris
  41
10.00
  42
10.00
  50
360.00
  10
708.91
  20
-33.48
  30
0.00
  0
INSERT
  8
POINT
  2
P_debris
  41
10.00
  42
10.00
  50
360.00
  10
693.73
  20
-51.45
  30
0.00
  0
INSERT
  8
POINT
  2
P_debris
  41
10.00
  42
10.00
  50
360.00
  10
729.64
  20
-90.69
  30
0.00
  0
INSERT
  8
POINT
  2
P_debris
  41
10.00
  42
10.00
  50
360.00
  10
743.34
  20
-64.34
  30
0.00
  0
INSERT
  8
POINT
  2
P_debris
  41
10.00
  42
10.00
  50
360.00
  10
753.36
  20
-98.82
  30
0.00
  0
INSERT
  8
POINT
  2
P_debris
  41
10.00
  42
10.00
  50
360.00
  10
768.86
  20
-81.34
  30
0.00
  0
INSERT
  8
POINT
  2
P_debris
  41
10.00
  42
10.00
  50
360.00
  10
779.09
  20
-101.40
  30
0.00
  0
POLYLINE
  8
L_wall
  66
1
  70
0
  0
VERTEX
  8
L_wall
  10
534.05
  20
61.96
  30
0.00
  0
VERTEX
  8
L_wall
  10
533.08
  20
54.07
  30
0.00
  0
VERTEX
  8
L_wall
  10
533.08
  20
45.81
  30
0.00
  0
VERTEX
  8
L_wall
  10
534.14
  20
37.82
  30
0.00
  0
VERTEX
  8
L_wall
  10
535.34
  20
30.81
  30
0.00
  0
VERTEX
  8
L_wall
  10
532.28
  20
22.80
  30
0.00
  0
VERTEX
  8
L_wall
  10
527.18
  20
17.69
  30
0.00
  0
VERTEX
  8
L_wall
  10
522.45
  20
12.65
  30
0.00
  0
VERTEX
  8
L_wall
  10
524.14
  20
4.68
  30
0.00
  0
VERTEX
  8
L_wall
  10
526.64
  20
-2.50
  30
0.00
  0
VERTEX
  8
L_wall
  10
531.79
  20
-9.11
  30
0.00
  0
VERTEX
  8
L_wall
  10
538.40
  20
-14.43
  30
0.00
  0
VERTEX
  8
L_wall
  10
546.07
  20
-18.60
  30
0.00
  0
SEQEND
  0
POLYLINE
  8
L_wall
  66
1
  70
0
  0
VERTEX
  8
L_wall
  10
546.07
  20
-18.60
  30
0.00
  0
VERTEX
  8
L_wall
  10
550.55
  20
-20.11
  30
0.00
  0
VERTEX
  8
L_wall
  10
559.26
  20
-24.95
  30
0.00
  0
VERTEX
  8
L_wall
  10
564.91
  20
-30.01
  30
0.00
  0
VERTEX
  8
L_wall
  10
570.62
  20
-34.21
  30
0.00
  0
VERTEX
  8
L_wall
  10
575.83
  20
-39.47
  30
0.00
  0
VERTEX
  8
L_wall
  10
580.76
  20
-44.73
  30
0.00
  0
VERTEX
  8
L_wall
  10
588.09
  20
-45.26
  30
0.00
  0
VERTEX
  8
L_wall
  10
593.82
  20
-41.72
  30
0.00
  0
VERTEX
  8
L_wall
  10
598.30
  20
-33.88
  30
0.00
  0
VERTEX
  8
L_wall
  10
600.88
  20
-26.27
  30
0.00
  0
VERTEX
  8
L_wall
  10
605.63
  20
-20.46
  30
0.00
  0
SEQEND
  0
POLYLINE
  8
L_wall
  66
1
  70
0
  0
VERTEX
  8
L_wall
  10
605.63
  20
-20.46
  30
0.00
  0
VERTEX
  8
L_wall
  10
607.18
  20
-16.05
  30
0.00
  0
VERTEX
  8
L_wall
  10
616.05
  20
-13.34
  30
0.00
  0
VERTEX
  8
L_wall
  10
624.11
  20
-12.05
  30
0.00
  0
VERTEX
  8
L_wall
  10
631.31
  20
-13.56
  30
0.00
  0
VERTEX
  8
L_wall
  10
638.69
  20
-14.43
  30
0.00
  0
VERTEX
  8
L_wall
  10
646.17
  20
-15.08
  30
0.00
  0
VERTEX
  8
L_wall
  10
652.77
  20
-12.34
  30
0.00
  0
VERTEX
  8
L_wall
  10
653.58
  20
-5.25
  30
0.00
  0
VERTEX
  8
L_wall
  10
652.29
  20
2.81
  30
0.00
  0
VERTEX
  8
L_wall
  10
652.93
  20
7.07
  30
0.00
  0
SEQEND
  0
POLYLINE
  8
L_wall
  66
1
  70
0
  0
VERTEX
  8
L_wall
  10
553.06
  20
69.02
  30
0.00
  0
VERTEX
  8
L_wall
  10
555.15
  20
61.93
  30
0.00
  0
VERTEX
  8
L_wall
  10
561.11
  20
57.58
  30
0.00
  0
VERTEX
  8
L_wall
  10
567.40
  20
55.36
  30
0.00
  0
VERTEX
  8
L_wall
  10
575.04
  20
54.39
  30
0.00
  0
VERTEX
  8
L_wall
  10
581.85
  20
53.17
  30
0.00
  0
VERTEX
  8
L_wall
  10
589.46
  20
50.81
  30
0.00
  0
VERTEX
  8
L_wall
  10
597.90
  20
48.38
  30
0.00
  0
VERTEX
  8
L_wall
  10
607.33
  20
46.34
  30
0.00
  0
VERTEX
  8
L_wall
  10
611.86
  20
47.10
  30
0.00
  0
SEQEND
  0
POLYLINE
  8
L_wall
  66
1
  70
0
  0
VERTEX
  8
L_wall
  10
611.86
  20
47.10
  30
0.00
  0
VERTEX
  8
L_wall
  10
616.26
  20
49.04
  30
0.00
  0
VERTEX
  8
L_wall
  10
623.74
  20
48.39
  30
0.00
  0
VERTEX
  8
L_wall
  10
631.50
  20
49.33
  30
0.00
  0
VERTEX
  8
L_wall
  10
639.18
  20
50.65
  30
0.00
  0
VERTEX
  8
L_wall
  10
644.98
  20
53.93
  30
0.00
  0
VERTEX
  8
L_wall
  10
652.37
  20
54.84
  30
0.00
  0
VERTEX
  8
L_wall
  10
658.55
  20
51.52
  30
0.00
  0
VERTEX
  8
L_wall
  10
664.31
  20
47.22
  30
0.00
  0
VERTEX
  8
L_wall
  10
669.24
  20
42.19
  30
0.00
  0
VERTEX
  8
L_wall
  10
673.17
  20
35.11
  30
0.00
  0
VERTEX
  8
L_wall
  10
676.26
  20
27.83
  30
0.00
  0
VERTEX
  8
L_wall
  10
680.52
  20
22.40
  30
0.00
  0
SEQEND
  0
POLYLINE
  8
L_slope
  66
1
  70
0
  0
VERTEX
  8
L_slope
  10
651.00
  20
43.88
  30
0.00
  0
VERTEX
  8
L_slope
  10
647.21
  20
34.69
  30
0.00
  0
VERTEX
  8
L_slope
  10
643.84
  20
24.77
  30
0.00
  0
VERTEX
  8
L_slope
  10
641.18
  20
11.09
  30
0.00
  0
VERTEX
  8
L_slope
  10
640.85
  20
3.46
  30
0.00
  0
SEQEND
  0
POLYLINE
  8
L_slope
  66
1
  70
0
  0
VERTEX
  8
L_slope
  10
620.72
  20
44.53
  30
0.00
  0
VERTEX
  8
L_slope
  10
617.40
  20
32.82
  30
0.00
  0
VERTEX
  8
L_slope
  10
612.35
  20
17.93
  30
0.00
  0
VERTEX
  8
L_slope
  10
612.18
  20
6.51
  30
0.00
  0
VERTEX
  8
L_slope
  10
614.07
  20
1.75
  30
0.00
  0
SEQEND
  0
POLYLINE
  8
L_slope
  66
1
  70
0
  0
VERTEX
  8
L_slope
  10
591.40
  20
41.63
  30
0.00
  0
VERTEX
  8
L_slope
  10
589.04
  20
33.91
  30
0.00
  0
VERTEX
  8
L_slope
  10
588.50
  20
25.32
  30
0.00
  0
VERTEX
  8
L_slope
  10
588.66
  20
16.48
  30
0.00
  0
VERTEX
  8
L_slope
  10
589.30
  20
6.49
  30
0.00
  0
VERTEX
  8
L_slope
  10
589.79
  20
-4.65
  30
0.00
  0
VERTEX
  8
L_slope
  10
590.91
  20
-11.08
  30
0.00
  0
SEQEND
  0
INSERT
  8
POINT
  2
P_blocks
  41
10.00
  42
10.00
  50
360.00
  10
627.80
  20
4.88
  30
0.00
  0
INSERT
  8
POINT
  2
P_blocks
  41
10.00
  42
10.00
  50
360.00
  10
606.22
  20
37.82
  30
0.00
  0
INSERT
  8
POINT
  2
P_debris
  41
10.00
  42
10.00
  50
360.00
  10
634.97
  20
35.46
  30
0.00
  0
INSERT
  8
POINT
  2
P_debris
  41
10.00
  42
10.00
  50
360.00
  10
605.63
  20
-11.18
  30
0.00
  0
INSERT
  8
POINT
  2
P_debris
  41
10.00
  42
10.00
  50
360.00
  10
605.25
  20
26.48
  30
0.00
  0
INSERT
  8
POINT
  2
P_debris
  41
10.00
  42
10.00
  50
360.00
  10
663.73
  20
34.05
  30
0.00
  0
INSERT
  8
POINT
  2
P_debris
  41
10.00
  42
10.00
  50
360.00
  10
581.09
  20
-25.10
  30
0.00
  0
INSERT
  8
POINT
  2
P_debris
  41
10.00
  42
10.00
  50
360.00
  10
568.84
  20
0.04
  30
0.00
  0
INSERT
  8
POINT
  2
P_debris
  41
10.00
  42
10.00
  50
360.00
  10
537.92
  20
5.52
  30
0.00
  0
INSERT
  8
POINT
  2
P_debris
  41
10.00
  42
10.00
  50
360.00
  10
556.83
  20
-9.68
  30
0.00
  0
INSERT
  8
POINT
  2
P_debris
  41
10.00
  42
10.00
  50
360.00
  10
573.05
  20
30.67
  30
0.00
  0
POLYLINE
  8
L_slope
  66
1
  70
0
  0
VERTEX
  8
L_slope
  10
539.53
  20
30.34
  30
0.00
  0
VERTEX
  8
L_slope
  10
548.87
  20
31.79
  30
0.00
  0
VERTEX
  8
L_slope
  10
556.88
  20
34.99
  30
0.00
  0
SEQEND
  0
POLYLINE
  8
L_slope
  66
1
  70
0
  0
VERTEX
  8
L_slope
  10
556.88
  20
34.99
  30
0.00
  0
VERTEX
  8
L_slope
  10
574.71
  20
45.36
  30
0.00
  0
VERTEX
  8
L_slope
  10
581.94
  20
46.46
  30
0.00
  0
SEQEND
  0
POLYLINE
  8
L_slope
  66
1
  70
0
  0
VERTEX
  8
L_slope
  10
539.07
  20
54.47
  30
0.00
  0
VERTEX
  8
L_slope
  10
545.23
  20
54.47
  30
0.00
  0
VERTEX
  8
L_slope
  10
551.50
  20
55.94
  30
0.00
  0
VERTEX
  8
L_slope
  10
553.85
  20
57.78
  30
0.00
  0
SEQEND
  0
POLYLINE
  8
L_wall
  66
1
  70
0
  0
VERTEX
  8
L_wall
  10
529.22
  20
113.18
  30
0.00
  0
VERTEX
  8
L_wall
  10
535.58
  20
110.36
  30
0.00
  0
VERTEX
  8
L_wall
  10
542.26
  20
108.19
  30
0.00
  0
VERTEX
  8
L_wall
  10
547.74
  20
103.03
  30
0.00
  0
VERTEX
  8
L_wall
  10
551.59
  20
96.85
  30
0.00
  0
VERTEX
  8
L_wall
  10
552.09
  20
88.95
  30
0.00
  0
VERTEX
  8
L_wall
  10
552.74
  20
81.59
  30
0.00
  0
VERTEX
  8
L_wall
  10
553.38
  20
74.58
  30
0.00
  0
VERTEX
  8
L_wall
  10
554.02
  20
67.06
  30
0.00
  0
SEQEND
  0
POLYLINE
  8
L_wall
  66
1
  70
0
  0
VERTEX
  8
L_wall
  10
534.05
  20
61.96
  30
0.00
  0
VERTEX
  8
L_wall
  10
535.66
  20
65.89
  30
0.00
  0
VERTEX
  8
L_wall
  10
535.66
  20
73.63
  30
0.00
  0
VERTEX
  8
L_wall
  10
535.07
  20
81.48
  30
0.00
  0
VERTEX
  8
L_wall
  10
533.89
  20
88.36
  30
0.00
  0
VERTEX
  8
L_wall
  10
530.55
  20
94.63
  30
0.00
  0
VERTEX
  8
L_wall
  10
524.62
  20
99.04
  30
0.00
  0
VERTEX
  8
L_wall
  10
518.89
  20
100.94
  30
0.00
  0
SEQEND
  0
POLYLINE
  8
L_slope
  66
1
  70
0
  0
VERTEX
  8
L_slope
  10
536.95
  20
77.73
  30
0.00
  0
VERTEX
  8
L_slope
  10
545.81
  20
79.18
  30
0.00
  0
VERTEX
  8
L_slope
  10
551.93
  20
81.76
  30
0.00
  0
SEQEND
  0
POLYLINE
  8
L_slope
  66
1
  70
0
  0
VERTEX
  8
L_slope
  10
531.79
  20
97.07
  30
0.00
  0
VERTEX
  8
L_slope
  10
538.56
  20
104.15
  30
0.00
  0
VERTEX
  8
L_slope
  10
540.24
  20
107.20
  30
0.00
  0
SEQEND
  0
POLYLINE
  8
L_wall
  66
1
  70
0
  0
VERTEX
  8
L_wall
  10
522.03
  20
101.47
  30
0.00
  0
VERTEX
  8
L_wall
  10
515.18
  20
101.15
  30
0.00
  0
VERTEX
  8
L_wall
  10
508.27
  20
99.86
  30
0.00
  0
VERTEX
  8
L_wall
  10
501.65
  20
99.01
  30
0.00
  0
VERTEX
  8
L_wall
  10
494.75
  20
99.16
  30
0.00
  0
VERTEX
  8
L_wall
  10
487.35
  20
101.09
  30
0.00
  0
VERTEX
  8
L_wall
  10
480.52
  20
103.08
  30
0.00
  0
VERTEX
  8
L_wall
  10
473.61
  20
106.03
  30
0.00
  0
VERTEX
  8
L_wall
  10
468.52
  20
110.84
  30
0.00
  0
VERTEX
  8
L_wall
  10
465.73
  20
117.75
  30
0.00
  0
VERTEX
  8
L_wall
  10
465.97
  20
124.62
  30
0.00
  0
SEQEND
  0
POLYLINE
  8
L_wall
  66
1
  70
0
  0
VERTEX
  8
L_wall
  10
530.73
  20
114.04
  30
0.00
  0
VERTEX
  8
L_wall
  10
524.98
  20
117.81
  30
0.00
  0
VERTEX
  8
L_wall
  10
518.11
  20
120.83
  30
0.00
  0
VERTEX
  8
L_wall
  10
511.20
  20
122.42
  30
0.00
  0
VERTEX
  8
L_wall
  10
504.21
  20
123.92
  30
0.00
  0
VERTEX
  8
L_wall
  10
497.02
  20
125.32
  30
0.00
  0
VERTEX
  8
L_wall
  10
489.97
  20
126.61
  30
0.00
  0
VERTEX
  8
L_wall
  10
482.88
  20
127.90
  30
0.00
  0
VERTEX
  8
L_wall
  10
476.92
  20
129.03
  30
0.00
  0
SEQEND
  0
INSERT
  8
POINT
  2
P_debris
  41
10.00
  42
10.00
  50
360.00
  10
467.25
  20
126.61
  30
0.00
  0
INSERT
  8
POINT
  2
P_debris
  41
10.00
  42
10.00
  50
360.00
  10
472.73
  20
133.06
  30
0.00
  0
INSERT
  8
POINT
  2
P_debris
  41
10.00
  42
10.00
  50
360.00
  10
472.41
  20
116.30
  30
0.00
  0
INSERT
  8
POINT
  2
P_debris
  41
10.00
  42
10.00
  50
360.00
  10
481.27
  20
105.98
  30
0.00
  0
INSERT
  8
POINT
  2
P_debris
  41
10.00
  42
10.00
  50
360.00
  10
472.25
  20
130.80
  30
0.00
  0
INSERT
  8
POINT
  2
P_debris
  41
10.00
  42
10.00
  50
360.00
  10
468.87
  20
129.51
  30
0.00
  0
INSERT
  8
POINT
  2
P_clay
  41
10.00
  42
10.00
  50
360.00
  10
488.88
  20
113.72
  30
0.00
  0
INSERT
  8
POINT
  2
P_clay
  41
10.00
  42
10.00
  50
360.00
  10
499.72
  20
106.18
  30
0.00
  0
INSERT
  8
POINT
  2
P_clay
  41
10.00
  42
10.00
  50
360.00
  10
515.00
  20
111.46
  30
0.00
  0
POLYLINE
  8
L_wall
  66
1
  70
0
  0
VERTEX
  8
L_wall
  10
842.61
  20
-126.21
  30
0.00
  0
VERTEX
  8
L_wall
  10
846.13
  20
-124.60
  30
0.00
  0
VERTEX
  8
L_wall
  10
849.46
  20
-124.60
  30
0.00
  0
VERTEX
  8
L_wall
  10
853.21
  20
-124.92
  30
0.00
  0
VERTEX
  8
L_wall
  10
856.62
  20
-124.92
  30
0.00
  0
VERTEX
  8
L_wall
  10
859.71
  20
-125.91
  30
0.00
  0
VERTEX
  8
L_wall
  10
863.45
  20
-127.45
  30
0.00
  0
SEQEND
  0
POLYLINE
  8
L_wall
  66
1
  70
0
  0
VERTEX
  8
L_wall
  10
863.55
  20
-128.15
  30
0.00
  0
VERTEX
  8
L_wall
  10
867.67
  20
-127.79
  30
0.00
  0
VERTEX
  8
L_wall
  10
871.64
  20
-128.15
  30
0.00
  0
VERTEX
  8
L_wall
  10
876.57
  20
-129.05
  30
0.00
  0
VERTEX
  8
L_wall
  10
880.37
  20
-130.42
  30
0.00
  0
VERTEX
  8
L_wall
  10
884.33
  20
-131.85
  30
0.00
  0
VERTEX
  8
L_wall
  10
886.83
  20
-134.00
  30
0.00
  0
VERTEX
  8
L_wall
  10
890.13
  20
-136.53
  30
0.00
  0
VERTEX
  8
L_wall
  10
893.76
  20
-138.24
  30
0.00
  0
VERTEX
  8
L_wall
  10
896.51
  20
-140.49
  30
0.00
  0
VERTEX
  8
L_wall
  10
900.89
  20
-142.95
  30
0.00
  0
VERTEX
  8
L_wall
  10
904.28
  20
-144.97
  30
0.00
  0
VERTEX
  8
L_wall
  10
907.37
  20
-147.00
  30
0.00
  0
VERTEX
  8
L_wall
  10
911.33
  20
-148.82
  30
0.00
  0
VERTEX
  8
L_wall
  10
915.34
  20
-150.67
  30
0.00
  0
VERTEX
  8
L_wall
  10
918.55
  20
-152.41
  30
0.00
  0
VERTEX
  8
L_wall
  10
922.16
  20
-153.84
  30
0.00
  0
VERTEX
  8
L_wall
  10
924.86
  20
-155.63
  30
0.00
  0
VERTEX
  8
L_wall
  10
929.12
  20
-157.16
  30
0.00
  0
VERTEX
  8
L_wall
  10
932.78
  20
-158.97
  30
0.00
  0
VERTEX
  8
L_wall
  10
936.99
  20
-160.89
  30
0.00
  0
VERTEX
  8
L_wall
  10
940.79
  20
-162.27
  30
0.00
  0
VERTEX
  8
L_wall
  10
944.18
  20
-164.01
  30
0.00
  0
VERTEX
  8
L_wall
  10
949.16
  20
-166.12
  30
0.00
  0
VERTEX
  8
L_wall
  10
952.25
  20
-167.57
  30
0.00
  0
VERTEX
  8
L_wall
  10
956.10
  20
-169.60
  30
0.00
  0
VERTEX
  8
L_wall
  10
959.10
  20
-171.27
  30
0.00
  0
VERTEX
  8
L_wall
  10
962.02
  20
-173.79
  30
0.00
  0
VERTEX
  8
L_wall
  10
964.04
  20
-176.78
  30
0.00
  0
VERTEX
  8
L_wall
  10
966.33
  20
-180.23
  30
0.00
  0
VERTEX
  8
L_wall
  10
966.33
  20
-183.64
  30
0.00
  0
VERTEX
  8
L_wall
  10
963.81
  20
-187.02
  30
0.00
  0
VERTEX
  8
L_wall
  10
961.01
  20
-189.23
  30
0.00
  0
VERTEX
  8
L_wall
  10
958.76
  20
-191.81
  30
0.00
  0
VERTEX
  8
L_wall
  10
955.92
  20
-193.68
  30
0.00
  0
VERTEX
  8
L_wall
  10
952.17
  20
-194.65
  30
0.00
  0
VERTEX
  8
L_wall
  10
948.43
  20
-195.15
  30
0.00
  0
VERTEX
  8
L_wall
  10
945.07
  20
-195.19
  30
0.00
  0
VERTEX
  8
L_wall
  10
941.47
  20
-194.87
  30
0.00
  0
VERTEX
  8
L_wall
  10
937.60
  20
-194.31
  30
0.00
  0
VERTEX
  8
L_wall
  10
934.35
  20
-194.22
  30
0.00
  0
VERTEX
  8
L_wall
  10
929.09
  20
-192.96
  30
0.00
  0
VERTEX
  8
L_wall
  10
924.99
  20
-191.67
  30
0.00
  0
VERTEX
  8
L_wall
  10
921.79
  20
-190.20
  30
0.00
  0
VERTEX
  8
L_wall
  10
916.67
  20
-188.84
  30
0.00
  0
VERTEX
  8
L_wall
  10
913.76
  20
-187.42
  30
0.00
  0
VERTEX
  8
L_wall
  10
910.54
  20
-186.15
  30
0.00
  0
VERTEX
  8
L_wall
  10
907.15
  20
-184.64
  30
0.00
  0
VERTEX
  8
L_wall
  10
903.00
  20
-183.39
  30
0.00
  0
VERTEX
  8
L_wall
  10
899.51
  20
-180.66
  30
0.00
  0
VERTEX
  8
L_wall
  10
897.51
  20
-177.91
  30
0.00
  0
VERTEX
  8
L_wall
  10
895.94
  20
-174.89
  30
0.00
  0
VERTEX
  8
L_wall
  10
891.73
  20
-172.54
  30
0.00
  0
VERTEX
  8
L_wall
  10
889.16
  20
-170.21
  30
0.00
  0
VERTEX
  8
L_wall
  10
886.06
  20
-168.83
  30
0.00
  0
VERTEX
  8
L_wall
  10
882.83
  20
-167.77
  30
0.00
  0
VERTEX
  8
L_wall
  10
879.44
  20
-166.11
  30
0.00
  0
VERTEX
  8
L_wall
  10
876.36
  20
-164.69
  30
0.00
  0
VERTEX
  8
L_wall
  10
873.06
  20
-163.44
  30
0.00
  0
VERTEX
  8
L_wall
  10
869.59
  20
-161.75
  30
0.00
  0
VERTEX
  8
L_wall
  10
865.92
  20
-160.31
  30
0.00
  0
VERTEX
  8
L_wall
  10
862.63
  20
-158.95
  30
0.00
  0
VERTEX
  8
L_wall
  10
859.43
  20
-157.35
  30
0.00
  0
VERTEX
  8
L_wall
  10
855.57
  20
-156.39
  30
0.00
  0
VERTEX
  8
L_wall
  10
851.71
  20
-155.87
  30
0.00
  0
SEQEND
  0
POLYLINE
  8
L_pit
  66
1
  70
0
  0
VERTEX
  8
L_pit
  10
845.19
  20
-159.41
  30
0.00
  0
VERTEX
  8
L_pit
  10
845.03
  20
-150.39
  30
0.00
  0
VERTEX
  8
L_pit
  10
844.74
  20
-142.42
  30
0.00
  0
VERTEX
  8
L_pit
  10
843.17
  20
-133.85
  30
0.00
  0
VERTEX
  8
L_pit
  10
841.09
  20
-125.94
  30
0.00
  0
SEQEND
  0
POLYLINE
  8
L_slope
  66
1
  70
0
  0
VERTEX
  8
L_slope
  10
871.29
  20
-158.44
  30
0.00
  0
VERTEX
  8
L_slope
  10
873.16
  20
-149.88
  30
0.00
  0
VERTEX
  8
L_slope
  10
872.43
  20
-140.50
  30
0.00
  0
VERTEX
  8
L_slope
  10
872.25
  20
-137.02
  30
0.00
  0
SEQEND
  0
POLYLINE
  8
L_slope
  66
1
  70
0
  0
VERTEX
  8
L_slope
  10
902.86
  20
-173.27
  30
0.00
  0
VERTEX
  8
L_slope
  10
906.40
  20
-167.00
  30
0.00
  0
VERTEX
  8
L_slope
  10
907.05
  20
-157.91
  30
0.00
  0
SEQEND
  0
POLYLINE
  8
L_slope
  66
1
  70
0
  0
VERTEX
  8
L_slope
  10
924.45
  20
-182.30
  30
0.00
  0
VERTEX
  8
L_slope
  10
925.65
  20
-173.49
  30
0.00
  0
VERTEX
  8
L_slope
  10
926.06
  20
-166.60
  30
0.00
  0
SEQEND
  0
POLYLINE
  8
L_slope
  66
1
  70
0
  0
VERTEX
  8
L_slope
  10
943.13
  20
-189.07
  30
0.00
  0
VERTEX
  8
L_slope
  10
947.38
  20
-181.18
  30
0.00
  0
VERTEX
  8
L_slope
  10
949.80
  20
-174.00
  30
0.00
  0
SEQEND
  0
POLYLINE
  8
L_wall
  66
1
  70
0
  0
VERTEX
  8
L_wall
  10
834.88
  20
-103.01
  30
0.00
  0
VERTEX
  8
L_wall
  10
838.75
  20
-96.89
  30
0.00
  0
VERTEX
  8
L_wall
  10
844.37
  20
-100.09
  30
0.00
  0
VERTEX
  8
L_wall
  10
842.83
  20
-107.83
  30
0.00
  0
VERTEX
  8
L_wall
  10
839.02
  20
-113.90
  30
0.00
  0
VERTEX
  8
L_wall
  10
845.56
  20
-113.53
  30
0.00
  0
SEQEND
  0
POLYLINE
  8
L_wall
  66
1
  70
0
  0
VERTEX
  8
L_wall
  10
853.89
  20
-112.36
  30
0.00
  0
VERTEX
  8
L_wall
  10
855.53
  20
-103.48
  30
0.00
  0
VERTEX
  8
L_wall
  10
858.45
  20
-97.86
  30
0.00
  0
VERTEX
  8
L_wall
  10
862.42
  20
-98.67
  30
0.00
  0
VERTEX
  8
L_wall
  10
866.56
  20
-106.01
  30
0.00
  0
VERTEX
  8
L_wall
  10
868.23
  20
-110.75
  30
0.00
  0
SEQEND
  0
POLYLINE
  8
L_wall
  66
1
  70
0
  0
VERTEX
  8
L_wall
  10
860.98
  20
-107.85
  30
0.00
  0
VERTEX
  8
L_wall
  10
861.62
  20
-99.86
  30
0.00
  0
VERTEX
  8
L_wall
  10
861.62
  20
-96.06
  30
0.00
  0
SEQEND
  0
POLYLINE
  8
L_wall
  66
1
  70
0
  0
VERTEX
  8
L_wall
  10
855.68
  20
-346.14
  30
0.00
  0
VERTEX
  8
L_wall
  10
859.58
  20
-347.23
  30
0.00
  0
VERTEX
  8
L_wall
  10
862.65
  20
-348.39
  30
0.00
  0
VERTEX
  8
L_wall
  10
866.48
  20
-349.36
  30
0.00
  0
VERTEX
  8
L_wall
  10
870.04
  20
-350.37
  30
0.00
  0
VERTEX
  8
L_wall
  10
873.58
  20
-351.29
  30
0.00
  0
VERTEX
  8
L_wall
  10
877.90
  20
-352.04
  30
0.00
  0
VERTEX
  8
L_wall
  10
881.35
  20
-353.11
  30
0.00
  0
VERTEX
  8
L_wall
  10
884.56
  20
-354.78
  30
0.00
  0
VERTEX
  8
L_wall
  10
887.82
  20
-355.89
  30
0.00
  0
VERTEX
  8
L_wall
  10
890.40
  20
-357.98
  30
0.00
  0
VERTEX
  8
L_wall
  10
893.48
  20
-360.37
  30
0.00
  0
VERTEX
  8
L_wall
  10
897.07
  20
-361.76
  30
0.00
  0
VERTEX
  8
L_wall
  10
899.96
  20
-364.65
  30
0.00
  0
VERTEX
  8
L_wall
  10
902.08
  20
-367.25
  30
0.00
  0
VERTEX
  8
L_wall
  10
905.42
  20
-368.95
  30
0.00
  0
VERTEX
  8
L_wall
  10
909.13
  20
-369.99
  30
0.00
  0
VERTEX
  8
L_wall
  10
912.46
  20
-370.78
  30
0.00
  0
SEQEND
  0
POLYLINE
  8
L_wall
  66
1
  70
0
  0
VERTEX
  8
L_wall
  10
855.68
  20
-385.14
  30
0.00
  0
VERTEX
  8
L_wall
  10
857.78
  20
-388.90
  30
0.00
  0
VERTEX
  8
L_wall
  10
861.30
  20
-391.41
  30
0.00
  0
VERTEX
  8
L_wall
  10
862.95
  20
-394.79
  30
0.00
  0
VERTEX
  8
L_wall
  10
864.57
  20
-397.75
  30
0.00
  0
VERTEX
  8
L_wall
  10
867.20
  20
-400.39
  30
0.00
  0
VERTEX
  8
L_wall
  10
869.26
  20
-404.26
  30
0.00
  0
VERTEX
  8
L_wall
  10
870.98
  20
-407.69
  30
0.00
  0
VERTEX
  8
L_wall
  10
872.84
  20
-411.56
  30
0.00
  0
VERTEX
  8
L_wall
  10
874.00
  20
-415.93
  30
0.00
  0
VERTEX
  8
L_wall
  10
875.49
  20
-419.21
  30
0.00
  0
VERTEX
  8
L_wall
  10
876.83
  20
-422.81
  30
0.00
  0
VERTEX
  8
L_wall
  10
879.04
  20
-425.66
  30
0.00
  0
VERTEX
  8
L_wall
  10
881.07
  20
-428.55
  30
0.00
  0
VERTEX
  8
L_wall
  10
882.77
  20
-431.61
  30
0.00
  0
VERTEX
  8
L_wall
  10
885.36
  20
-433.81
  30
0.00
  0
VERTEX
  8
L_wall
  10
888.42
  20
-435.84
  30
0.00
  0
VERTEX
  8
L_wall
  10
891.04
  20
-438.23
  30
0.00
  0
VERTEX
  8
L_wall
  10
893.64
  20
-440.52
  30
0.00
  0
VERTEX
  8
L_wall
  10
896.83
  20
-442.42
  30
0.00
  0
VERTEX
  8
L_wall
  10
900.02
  20
-444.45
  30
0.00
  0
VERTEX
  8
L_wall
  10
902.60
  20
-446.58
  30
0.00
  0
VERTEX
  8
L_wall
  10
905.67
  20
-448.01
  30
0.00
  0
VERTEX
  8
L_wall
  10
909.09
  20
-448.06
  30
0.00
  0
VERTEX
  8
L_wall
  10
911.67
  20
-444.51
  30
0.00
  0
VERTEX
  8
L_wall
  10
914.06
  20
-442.32
  30
0.00
  0
VERTEX
  8
L_wall
  10
915.77
  20
-439.13
  30
0.00
  0
VERTEX
  8
L_wall
  10
918.13
  20
-434.63
  30
0.00
  0
VERTEX
  8
L_wall
  10
919.18
  20
-430.83
  30
0.00
  0
VERTEX
  8
L_wall
  10
919.80
  20
-426.99
  30
0.00
  0
VERTEX
  8
L_wall
  10
920.38
  20
-423.75
  30
0.00
  0
VERTEX
  8
L_wall
  10
920.44
  20
-420.04
  30
0.00
  0
VERTEX
  8
L_wall
  10
920.76
  20
-416.67
  30
0.00
  0
VERTEX
  8
L_wall
  10
921.76
  20
-413.12
  30
0.00
  0
VERTEX
  8
L_wall
  10
924.19
  20
-409.11
  30
0.00
  0
VERTEX
  8
L_wall
  10
925.49
  20
-405.99
  30
0.00
  0
VERTEX
  8
L_wall
  10
927.84
  20
-403.20
  30
0.00
  0
VERTEX
  8
L_wall
  10
929.14
  20
-400.02
  30
0.00
  0
VERTEX
  8
L_wall
  10
930.59
  20
-397.06
  30
0.00
  0
VERTEX
  8
L_wall
  10
932.26
  20
-392.39
  30
0.00
  0
VERTEX
  8
L_wall
  10
931.37
  20
-389.27
  30
0.00
  0
VERTEX
  8
L_wall
  10
930.63
  20
-385.85
  30
0.00
  0
VERTEX
  8
L_wall
  10
929.62
  20
-382.40
  30
0.00
  0
VERTEX
  8
L_wall
  10
927.58
  20
-379.71
  30
0.00
  0
VERTEX
  8
L_wall
  10
924.04
  20
-377.43
  30
0.00
  0
VERTEX
  8
L_wall
  10
921.52
  20
-375.04
  30
0.00
  0
VERTEX
  8
L_wall
  10
919.31
  20
-372.40
  30
0.00
  0
VERTEX
  8
L_wall
  10
915.87
  20
-370.48
  30
0.00
  0
VERTEX
  8
L_wall
  10
916.86
  20
-366.94
  30
0.00
  0
SEQEND
  0
POLYLINE
  8
L_slope
  66
1
  70
0
  0
VERTEX
  8
L_slope
  10
878.24
  20
-413.82
  30
0.00
  0
VERTEX
  8
L_slope
  10
890.16
  20
-412.53
  30
0.00
  0
VERTEX
  8
L_slope
  10
899.31
  20
-407.47
  30
0.00
  0
VERTEX
  8
L_slope
  10
907.07
  20
-403.19
  30
0.00
  0
VERTEX
  8
L_slope
  10
912.99
  20
-398.72
  30
0.00
  0
VERTEX
  8
L_slope
  10
918.18
  20
-393.85
  30
0.00
  0
VERTEX
  8
L_slope
  10
920.92
  20
-388.52
  30
0.00
  0
SEQEND
  0
POLYLINE
  8
L_slope
  66
1
  70
0
  0
VERTEX
  8
L_slope
  10
889.51
  20
-430.59
  30
0.00
  0
VERTEX
  8
L_slope
  10
896.35
  20
-431.55
  30
0.00
  0
VERTEX
  8
L_slope
  10
905.51
  20
-428.19
  30
0.00
  0
VERTEX
  8
L_slope
  10
910.94
  20
-423.97
  30
0.00
  0
VERTEX
  8
L_slope
  10
916.57
  20
-419.42
  30
0.00
  0
VERTEX
  8
L_slope
  10
919.26
  20
-416.19
  30
0.00
  0
SEQEND
  0
POLYLINE
  8
L_slope
  66
1
  70
0
  0
VERTEX
  8
L_slope
  10
899.18
  20
-440.26
  30
0.00
  0
VERTEX
  8
L_slope
  10
907.67
  20
-438.18
  30
0.00
  0
VERTEX
  8
L_slope
  10
914.75
  20
-433.85
  30
0.00
  0
VERTEX
  8
L_slope
  10
919.45
  20
-427.26
  30
0.00
  0
SEQEND
  0
POLYLINE
  8
L_slope
  66
1
  70
0
  0
VERTEX
  8
L_slope
  10
856.01
  20
-379.01
  30
0.00
  0
VERTEX
  8
L_slope
  10
863.57
  20
-375.32
  30
0.00
  0
VERTEX
  8
L_slope
  10
872.53
  20
-364.49
  30
0.00
  0
VERTEX
  8
L_slope
  10
876.92
  20
-356.40
  30
0.00
  0
VERTEX
  8
L_slope
  10
879.18
  20
-353.25
  30
0.00
  0
SEQEND
  0
INSERT
  8
POINT
  2
P_debris
  41
10.00
  42
10.00
  50
360.00
  10
840.55
  20
-366.78
  30
0.00
  0
INSERT
  8
POINT
  2
P_debris
  41
10.00
  42
10.00
  50
360.00
  10
845.99
  20
-354.67
  30
0.00
  0
INSERT
  8
POINT
  2
P_debris
  41
10.00
  42
10.00
  50
360.00
  10
874.42
  20
-389.67
  30
0.00
  0
INSERT
  8
POINT
  2
P_debris
  41
10.00
  42
10.00
  50
360.00
  10
890.53
  20
-373.50
  30
0.00
  0
INSERT
  8
POINT
  2
P_debris
  41
10.00
  42
10.00
  50
360.00
  10
890.48
  20
-398.35
  30
0.00
  0
POLYLINE
  8
L_wall
  66
1
  70
0
  0
VERTEX
  8
L_wall
  10
785.60
  20
-431.58
  30
0.00
  0
VERTEX
  8
L_wall
  10
785.60
  20
-435.17
  30
0.00
  0
VERTEX
  8
L_wall
  10
784.81
  20
-438.46
  30
0.00
  0
VERTEX
  8
L_wall
  10
783.02
  20
-441.90
  30
0.00
  0
VERTEX
  8
L_wall
  10
780.00
  20
-445.95
  30
0.00
  0
VERTEX
  8
L_wall
  10
776.96
  20
-447.99
  30
0.00
  0
VERTEX
  8
L_wall
  10
773.28
  20
-451.08
  30
0.00
  0
VERTEX
  8
L_wall
  10
770.15
  20
-452.20
  30
0.00
  0
VERTEX
  8
L_wall
  10
766.07
  20
-454.14
  30
0.00
  0
VERTEX
  8
L_wall
  10
762.86
  20
-455.48
  30
0.00
  0
VERTEX
  8
L_wall
  10
759.31
  20
-456.85
  30
0.00
  0
VERTEX
  8
L_wall
  10
756.06
  20
-458.33
  30
0.00
  0
VERTEX
  8
L_wall
  10
753.45
  20
-460.85
  30
0.00
  0
VERTEX
  8
L_wall
  10
750.85
  20
-463.31
  30
0.00
  0
VERTEX
  8
L_wall
  10
749.51
  20
-466.71
  30
0.00
  0
VERTEX
  8
L_wall
  10
749.19
  20
-470.08
  30
0.00
  0
VERTEX
  8
L_wall
  10
750.26
  20
-473.16
  30
0.00
  0
VERTEX
  8
L_wall
  10
752.87
  20
-476.20
  30
0.00
  0
VERTEX
  8
L_wall
  10
755.44
  20
-478.77
  30
0.00
  0
VERTEX
  8
L_wall
  10
758.76
  20
-481.59
  30
0.00
  0
VERTEX
  8
L_wall
  10
761.65
  20
-483.30
  30
0.00
  0
VERTEX
  8
L_wall
  10
764.66
  20
-485.73
  30
0.00
  0
VERTEX
  8
L_wall
  10
767.63
  20
-488.69
  30
0.00
  0
VERTEX
  8
L_wall
  10
771.26
  20
-490.73
  30
0.00
  0
VERTEX
  8
L_wall
  10
774.30
  20
-492.30
  30
0.00
  0
VERTEX
  8
L_wall
  10
777.87
  20
-494.65
  30
0.00
  0
VERTEX
  8
L_wall
  10
780.92
  20
-496.36
  30
0.00
  0
VERTEX
  8
L_wall
  10
784.15
  20
-498.05
  30
0.00
  0
VERTEX
  8
L_wall
  10
788.15
  20
-499.58
  30
0.00
  0
VERTEX
  8
L_wall
  10
791.25
  20
-501.64
  30
0.00
  0
VERTEX
  8
L_wall
  10
794.18
  20
-503.67
  30
0.00
  0
VERTEX
  8
L_wall
  10
796.87
  20
-505.56
  30
0.00
  0
VERTEX
  8
L_wall
  10
799.95
  20
-508.09
  30
0.00
  0
VERTEX
  8
L_wall
  10
802.15
  20
-511.43
  30
0.00
  0
VERTEX
  8
L_wall
  10
804.44
  20
-514.26
  30
0.00
  0
VERTEX
  8
L_wall
  10
807.01
  20
-516.98
  30
0.00
  0
VERTEX
  8
L_wall
  10
810.01
  20
-520.27
  30
0.00
  0
VERTEX
  8
L_wall
  10
812.98
  20
-523.12
  30
0.00
  0
VERTEX
  8
L_wall
  10
816.82
  20
-524.83
  30
0.00
  0
VERTEX
  8
L_wall
  10
819.20
  20
-527.41
  30
0.00
  0
VERTEX
  8
L_wall
  10
821.36
  20
-529.89
  30
0.00
  0
VERTEX
  8
L_wall
  10
824.10
  20
-532.15
  30
0.00
  0
VERTEX
  8
L_wall
  10
826.19
  20
-535.85
  30
0.00
  0
SEQEND
  0
POLYLINE
  8
L_slope
  66
1
  70
0
  0
VERTEX
  8
L_slope
  10
808.47
  20
-436.09
  30
0.00
  0
VERTEX
  8
L_slope
  10
797.06
  20
-436.56
  30
0.00
  0
VERTEX
  8
L_slope
  10
790.84
  20
-438.27
  30
0.00
  0
SEQEND
  0
POLYLINE
  8
L_wall
  66
1
  70
0
  0
VERTEX
  8
L_wall
  10
807.78
  20
-442.11
  30
0.00
  0
VERTEX
  8
L_wall
  10
812.76
  20
-442.54
  30
0.00
  0
VERTEX
  8
L_wall
  10
835.84
  20
-445.76
  30
0.00
  0
VERTEX
  8
L_wall
  10
842.89
  20
-445.19
  30
0.00
  0
VERTEX
  8
L_wall
  10
849.93
  20
-449.38
  30
0.00
  0
VERTEX
  8
L_wall
  10
854.70
  20
-449.79
  30
0.00
  0
SEQEND
  0
POLYLINE
  8
L_wall
  66
1
  70
0
  0
VERTEX
  8
L_wall
  10
854.70
  20
-449.79
  30
0.00
  0
VERTEX
  8
L_wall
  10
854.54
  20
-456.14
  30
0.00
  0
VERTEX
  8
L_wall
  10
852.35
  20
-463.04
  30
0.00
  0
VERTEX
  8
L_wall
  10
850.36
  20
-469.94
  30
0.00
  0
VERTEX
  8
L_wall
  10
849.65
  20
-477.18
  30
0.00
  0
VERTEX
  8
L_wall
  10
853.47
  20
-483.10
  30
0.00
  0
VERTEX
  8
L_wall
  10
859.89
  20
-486.47
  30
0.00
  0
VERTEX
  8
L_wall
  10
864.46
  20
-491.71
  30
0.00
  0
VERTEX
  8
L_wall
  10
868.10
  20
-498.70
  30
0.00
  0
VERTEX
  8
L_wall
  10
870.72
  20
-501.79
  30
0.00
  0
SEQEND
  0
INSERT
  8
POINT
  2
P_blocks
  41
10.00
  42
10.00
  50
360.00
  10
843.67
  20
-509.34
  30
0.00
  0
INSERT
  8
POINT
  2
P_blocks
  41
10.00
  42
10.00
  50
360.00
  10
779.48
  20
-469.29
  30
0.00
  0
INSERT
  8
POINT
  2
P_clay
  41
10.00
  42
10.00
  50
360.00
  10
755.31
  20
-472.19
  30
0.00
  0
INSERT
  8
POINT
  2
P_clay
  41
10.00
  42
10.00
  50
360.00
  10
755.31
  20
-472.52
  30
0.00
  0
INSERT
  8
POINT
  2
P_clay
  41
10.00
  42
10.00
  50
360.00
  10
781.44
  20
-484.15
  30
0.00
  0
INSERT
  8
POINT
  2
P_debris
  41
10.00
  42
10.00
  50
360.00
  10
813.00
  20
-491.21
  30
0.00
  0
INSERT
  8
POINT
  2
P_debris
  41
10.00
  42
10.00
  50
360.00
  10
828.15
  20
-458.68
  30
0.00
  0
INSERT
  8
POINT
  2
P_debris
  41
10.00
  42
10.00
  50
360.00
  10
872.64
  20
-564.33
  30
0.00
  0
INSERT
  8
POINT
  2
P_debris
  41
10.00
  42
10.00
  50
360.00
  10
880.96
  20
-530.54
  30
0.00
  0
INSERT
  8
POINT
  2
P_debris
  41
10.00
  42
10.00
  50
360.00
  10
900.12
  20
-593.07
  30
0.00
  0
INSERT
  8
POINT
  2
P_debris
  41
10.00
  42
10.00
  50
360.00
  10
928.32
  20
-575.98
  30
0.00
  0
INSERT
  8
POINT
  2
P_debris
  41
10.00
  42
10.00
  50
360.00
  10
919.58
  20
-614.66
  30
0.00
  0
POLYLINE
  8
L_slope
  66
1
  70
0
  0
VERTEX
  8
L_slope
  10
811.05
  20
-457.69
  30
0.00
  0
VERTEX
  8
L_slope
  10
803.64
  20
-467.68
  30
0.00
  0
VERTEX
  8
L_slope
  10
799.89
  20
-472.18
  30
0.00
  0
SEQEND
  0
POLYLINE
  8
L_slope
  66
1
  70
0
  0
VERTEX
  8
L_slope
  10
834.89
  20
-473.48
  30
0.00
  0
VERTEX
  8
L_slope
  10
826.68
  20
-481.54
  30
0.00
  0
VERTEX
  8
L_slope
  10
819.21
  20
-490.54
  30
0.00
  0
VERTEX
  8
L_slope
  10
816.81
  20
-494.83
  30
0.00
  0
SEQEND
  0
POLYLINE
  8
L_slope
  66
1
  70
0
  0
VERTEX
  8
L_slope
  10
866.14
  20
-514.74
  30
0.00
  0
VERTEX
  8
L_slope
  10
861.67
  20
-519.86
  30
0.00
  0
VERTEX
  8
L_slope
  10
849.18
  20
-529.66
  30
0.00
  0
VERTEX
  8
L_slope
  10
842.14
  20
-536.98
  30
0.00
  0
SEQEND
  0
POLYLINE
  8
L_slope
  66
1
  70
0
  0
VERTEX
  8
L_slope
  10
899.97
  20
-549.55
  30
0.00
  0
VERTEX
  8
L_slope
  10
894.33
  20
-555.68
  30
0.00
  0
VERTEX
  8
L_slope
  10
888.95
  20
-563.37
  30
0.00
  0
VERTEX
  8
L_slope
  10
883.07
  20
-570.00
  30
0.00
  0
VERTEX
  8
L_slope
  10
875.81
  20
-577.60
  30
0.00
  0
VERTEX
  8
L_slope
  10
874.05
  20
-580.39
  30
0.00
  0
SEQEND
  0
POLYLINE
  8
L_slope
  66
1
  70
0
  0
VERTEX
  8
L_slope
  10
945.40
  20
-595.97
  30
0.00
  0
VERTEX
  8
L_slope
  10
939.72
  20
-603.08
  30
0.00
  0
VERTEX
  8
L_slope
  10
934.15
  20
-609.48
  30
0.00
  0
VERTEX
  8
L_slope
  10
925.58
  20
-621.92
  30
0.00
  0
VERTEX
  8
L_slope
  10
922.07
  20
-628.47
  30
0.00
  0
SEQEND
  0
INSERT
  8
POINT
  2
P_debris
  41
10.00
  42
10.00
  50
360.00
  10
947.61
  20
-702.66
  30
0.00
  0
INSERT
  8
POINT
  2
P_debris
  41
10.00
  42
10.00
  50
360.00
  10
940.05
  20
-727.26
  30
0.00
  0
INSERT
  8
POINT
  2
P_debris
  41
10.00
  42
10.00
  50
360.00
  10
952.78
  20
-737.32
  30
0.00
  0
INSERT
  8
POINT
  2
P_debris
  41
10.00
  42
10.00
  50
360.00
  10
976.35
  20
-725.77
  30
0.00
  0
INSERT
  8
POINT
  2
P_debris
  41
10.00
  42
10.00
  50
360.00
  10
973.68
  20
-698.18
  30
0.00
  0
INSERT
  8
POINT
  2
P_debris
  41
10.00
  42
10.00
  50
360.00
  10
950.32
  20
-681.74
  30
0.00
  0
INSERT
  8
POINT
  2
P_debris
  41
10.00
  42
10.00
  50
360.00
  10
959.45
  20
-707.64
  30
0.00
  0
INSERT
  8
POINT
  2
P_debris
  41
10.00
  42
10.00
  50
360.00
  10
930.02
  20
-717.51
  30
0.00
  0
POLYLINE
  8
L_slope
  66
1
  70
0
  0
VERTEX
  8
L_slope
  10
1019.32
  20
-699.70
  30
0.00
  0
VERTEX
  8
L_slope
  10
1025.27
  20
-691.24
  30
0.00
  0
VERTEX
  8
L_slope
  10
1033.27
  20
-680.86
  30
0.00
  0
VERTEX
  8
L_slope
  10
1038.01
  20
-672.79
  30
0.00
  0
VERTEX
  8
L_slope
  10
1040.85
  20
-665.62
  30
0.00
  0
SEQEND
  0
POLYLINE
  8
L_slope
  66
1
  70
0
  0
VERTEX
  8
L_slope
  10
1045.74
  20
-713.07
  30
0.00
  0
VERTEX
  8
L_slope
  10
1051.32
  20
-701.72
  30
0.00
  0
VERTEX
  8
L_slope
  10
1056.46
  20
-696.38
  30
0.00
  0
VERTEX
  8
L_slope
  10
1059.22
  20
-690.70
  30
0.00
  0
SEQEND
  0
POLYLINE
  8
L_slope
  66
1
  70
0
  0
VERTEX
  8
L_slope
  10
1073.78
  20
-719.35
  30
0.00
  0
VERTEX
  8
L_slope
  10
1077.53
  20
-713.16
  30
0.00
  0
SEQEND
  0
INSERT
  8
POINT
  2
P_debris
  41
10.00
  42
10.00
  50
360.00
  10
1025.22
  20
-708.83
  30
0.00
  0
INSERT
  8
POINT
  2
P_debris
  41
10.00
  42
10.00
  50
360.00
  10
1044.72
  20
-686.41
  30
0.00
  0
INSERT
  8
POINT
  2
P_debris
  41
10.00
  42
10.00
  50
360.00
  10
1059.86
  20
-711.64
  30
0.00
  0
INSERT
  8
POINT
  2
P_debris
  41
10.00
  42
10.00
  50
360.00
  10
1087.57
  20
-731.04
  30
0.00
  0
INSERT
  8
POINT
  2
P_blocks
  41
10.00
  42
10.00
  50
360.00
  10
957.73
  20
-643.98
  30
0.00
  0
INSERT
  8
POINT
  2
P_blocks
  41
10.00
  42
10.00
  50
360.00
  10
993.38
  20
-630.09
  30
0.00
  0
POLYLINE
  8
L_slope
  66
1
  70
0
  0
VERTEX
  8
L_slope
  10
1003.41
  20
-674.73
  30
0.00
  0
VERTEX
  8
L_slope
  10
1009.60
  20
-663.36
  30
0.00
  0
VERTEX
  8
L_slope
  10
1013.79
  20
-652.57
  30
0.00
  0
VERTEX
  8
L_slope
  10
1021.35
  20
-636.69
  30
0.00
  0
VERTEX
  8
L_slope
  10
1022.33
  20
-632.42
  30
0.00
  0
SEQEND
  0
INSERT
  8
POINT
  2
P_debris
  41
10.00
  42
10.00
  50
360.00
  10
1023.13
  20
-661.10
  30
0.00
  0
POLYLINE
  8
L_wall
  66
1
  70
0
  0
VERTEX
  8
L_wall
  10
824.90
  20
-536.98
  30
0.00
  0
VERTEX
  8
L_wall
  10
827.48
  20
-539.24
  30
0.00
  0
VERTEX
  8
L_wall
  10
830.13
  20
-541.89
  30
0.00
  0
VERTEX
  8
L_wall
  10
833.22
  20
-544.59
  30
0.00
  0
VERTEX
  8
L_wall
  10
835.32
  20
-547.40
  30
0.00
  0
VERTEX
  8
L_wall
  10
837.88
  20
-550.24
  30
0.00
  0
VERTEX
  8
L_wall
  10
841.32
  20
-552.34
  30
0.00
  0
VERTEX
  8
L_wall
  10
844.02
  20
-554.49
  30
0.00
  0
VERTEX
  8
L_wall
  10
845.95
  20
-557.81
  30
0.00
  0
VERTEX
  8
L_wall
  10
849.02
  20
-560.46
  30
0.00
  0
VERTEX
  8
L_wall
  10
845.70
  20
-553.26
  30
0.00
  0
VERTEX
  8
L_wall
  10
845.26
  20
-561.34
  30
0.00
  0
VERTEX
  8
L_wall
  10
840.65
  20
-568.62
  30
0.00
  0
VERTEX
  8
L_wall
  10
838.32
  20
-575.61
  30
0.00
  0
VERTEX
  8
L_wall
  10
833.40
  20
-581.03
  30
0.00
  0
VERTEX
  8
L_wall
  10
828.82
  20
-586.49
  30
0.00
  0
VERTEX
  8
L_wall
  10
825.72
  20
-592.73
  30
0.00
  0
VERTEX
  8
L_wall
  10
826.45
  20
-599.84
  30
0.00
  0
VERTEX
  8
L_wall
  10
829.47
  20
-606.75
  30
0.00
  0
VERTEX
  8
L_wall
  10
833.88
  20
-612.99
  30
0.00
  0
VERTEX
  8
L_wall
  10
838.70
  20
-617.54
  30
0.00
  0
VERTEX
  8
L_wall
  10
845.55
  20
-619.78
  30
0.00
  0
VERTEX
  8
L_wall
  10
853.59
  20
-620.62
  30
0.00
  0
VERTEX
  8
L_wall
  10
862.47
  20
-621.51
  30
0.00
  0
VERTEX
  8
L_wall
  10
870.47
  20
-622.81
  30
0.00
  0
VERTEX
  8
L_wall
  10
878.70
  20
-624.84
  30
0.00
  0
VERTEX
  8
L_wall
  10
886.45
  20
-626.37
  30
0.00
  0
VERTEX
  8
L_wall
  10
892.73
  20
-628.52
  30
0.00
  0
VERTEX
  8
L_wall
  10
899.36
  20
-632.61
  30
0.00
  0
VERTEX
  8
L_wall
  10
905.44
  20
-636.57
  30
0.00
  0
VERTEX
  8
L_wall
  10
912.56
  20
-640.05
  30
0.00
  0
VERTEX
  8
L_wall
  10
918.72
  20
-642.61
  30
0.00
  0
VERTEX
  8
L_wall
  10
925.18
  20
-646.24
  30
0.00
  0
VERTEX
  8
L_wall
  10
931.79
  20
-649.67
  30
0.00
  0
VERTEX
  8
L_wall
  10
932.28
  20
-652.73
  30
0.00
  0
VERTEX
  8
L_wall
  10
938.50
  20
-657.52
  30
0.00
  0
SEQEND
  0
POLYLINE
  8
L_wall
  66
1
  70
0
  0
VERTEX
  8
L_wall
  10
938.40
  20
-671.29
  30
0.00
  0
VERTEX
  8
L_wall
  10
935.23
  20
-677.50
  30
0.00
  0
VERTEX
  8
L_wall
  10
932.28
  20
-683.51
  30
0.00
  0
VERTEX
  8
L_wall
  10
928.49
  20
-690.04
  30
0.00
  0
VERTEX
  8
L_wall
  10
926.48
  20
-697.02
  30
0.00
  0
VERTEX
  8
L_wall
  10
924.61
  20
-703.53
  30
0.00
  0
VERTEX
  8
L_wall
  10
922.77
  20
-710.42
  30
0.00
  0
VERTEX
  8
L_wall
  10
921.97
  20
-717.66
  30
0.00
  0
VERTEX
  8
L_wall
  10
921.02
  20
-725.20
  30
0.00
  0
VERTEX
  8
L_wall
  10
919.71
  20
-732.48
  30
0.00
  0
VERTEX
  8
L_wall
  10
919.07
  20
-739.32
  30
0.00
  0
VERTEX
  8
L_wall
  10
919.32
  20
-746.07
  30
0.00
  0
VERTEX
  8
L_wall
  10
923.11
  20
-751.21
  30
0.00
  0
VERTEX
  8
L_wall
  10
931.71
  20
-754.52
  30
0.00
  0
VERTEX
  8
L_wall
  10
939.19
  20
-756.19
  30
0.00
  0
VERTEX
  8
L_wall
  10
947.12
  20
-757.81
  30
0.00
  0
VERTEX
  8
L_wall
  10
952.12
  20
-757.38
  30
0.00
  0
VERTEX
  8
L_wall
  10
952.57
  20
-762.96
  30
0.00
  0
VERTEX
  8
L_wall
  10
957.91
  20
-758.15
  30
0.00
  0
VERTEX
  8
L_wall
  10
965.43
  20
-752.46
  30
0.00
  0
VERTEX
  8
L_wall
  10
971.35
  20
-748.25
  30
0.00
  0
VERTEX
  8
L_wall
  10
976.29
  20
-742.46
  30
0.00
  0
VERTEX
  8
L_wall
  10
979.74
  20
-736.32
  30
0.00
  0
VERTEX
  8
L_wall
  10
984.41
  20
-730.15
  30
0.00
  0
VERTEX
  8
L_wall
  10
989.14
  20
-725.41
  30
0.00
  0
VERTEX
  8
L_wall
  10
995.20
  20
-720.69
  30
0.00
  0
SEQEND
  0
POLYLINE
  8
L_pit
  66
1
  70
0
  0
VERTEX
  8
L_pit
  10
1013.79
  20
-710.75
  30
0.00
  0
VERTEX
  8
L_pit
  10
1012.29
  20
-701.63
  30
0.00
  0
VERTEX
  8
L_pit
  10
1008.89
  20
-695.01
  30
0.00
  0
VERTEX
  8
L_pit
  10
1007.67
  20
-688.57
  30
0.00
  0
VERTEX
  8
L_pit
  10
1006.38
  20
-680.95
  30
0.00
  0
VERTEX
  8
L_pit
  10
1004.77
  20
-674.37
  30
0.00
  0
VERTEX
  8
L_pit
  10
1000.48
  20
-669.29
  30
0.00
  0
VERTEX
  8
L_pit
  10
995.94
  20
-664.20
  30
0.00
  0
VERTEX
  8
L_pit
  10
991.72
  20
-658.45
  30
0.00
  0
VERTEX
  8
L_pit
  10
986.73
  20
-653.85
  30
0.00
  0
VERTEX
  8
L_pit
  10
979.12
  20
-651.12
  30
0.00
  0
VERTEX
  8
L_pit
  10
971.52
  20
-650.79
  30
0.00
  0
VERTEX
  8
L_pit
  10
964.33
  20
-651.44
  30
0.00
  0
VERTEX
  8
L_pit
  10
957.21
  20
-652.40
  30
0.00
  0
VERTEX
  8
L_pit
  10
949.67
  20
-653.21
  30
0.00
  0
VERTEX
  8
L_pit
  10
943.13
  20
-656.48
  30
0.00
  0
VERTEX
  8
L_pit
  10
939.53
  20
-658.37
  30
0.00
  0
SEQEND
  0
POLYLINE
  8
L_wall
  66
1
  70
0
  0
VERTEX
  8
L_wall
  10
940.33
  20
-673.36
  30
0.00
  0
VERTEX
  8
L_wall
  10
941.62
  20
-665.20
  30
0.00
  0
VERTEX
  8
L_wall
  10
941.30
  20
-658.01
  30
0.00
  0
SEQEND
  0
POLYLINE
  8
L_wall
  66
1
  70
0
  0
VERTEX
  8
L_wall
  10
994.14
  20
-720.42
  30
0.00
  0
VERTEX
  8
L_wall
  10
998.11
  20
-713.36
  30
0.00
  0
VERTEX
  8
L_wall
  10
1005.09
  20
-713.97
  30
0.00
  0
VERTEX
  8
L_wall
  10
1013.63
  20
-716.06
  30
0.00
  0
VERTEX
  8
L_wall
  10
1017.86
  20
-718.89
  30
0.00
  0
SEQEND
  0
POLYLINE
  8
L_wall
  66
1
  70
0
  0
VERTEX
  8
L_wall
  10
1011.85
  20
-718.81
  30
0.00
  0
VERTEX
  8
L_wall
  10
1018.61
  20
-720.90
  30
0.00
  0
VERTEX
  8
L_wall
  10
1025.86
  20
-720.58
  30
0.00
  0
VERTEX
  8
L_wall
  10
1032.79
  20
-719.77
  30
0.00
  0
VERTEX
  8
L_wall
  10
1040.18
  20
-718.48
  30
0.00
  0
VERTEX
  8
L_wall
  10
1047.70
  20
-717.19
  30
0.00
  0
VERTEX
  8
L_wall
  10
1054.37
  20
-718.00
  30
0.00
  0
VERTEX
  8
L_wall
  10
1060.27
  20
-721.03
  30
0.00
  0
VERTEX
  8
L_wall
  10
1065.12
  20
-725.68
  30
0.00
  0
VERTEX
  8
L_wall
  10
1068.88
  20
-731.19
  30
0.00
  0
VERTEX
  8
L_wall
  10
1071.45
  20
-735.89
  30
0.00
  0
SEQEND
  0
POLYLINE
  8
L_wall
  66
1
  70
0
  0
VERTEX
  8
L_wall
  10
870.72
  20
-501.79
  30
0.00
  0
VERTEX
  8
L_wall
  10
876.11
  20
-508.19
  30
0.00
  0
VERTEX
  8
L_wall
  10
882.90
  20
-513.13
  30
0.00
  0
VERTEX
  8
L_wall
  10
889.54
  20
-517.52
  30
0.00
  0
VERTEX
  8
L_wall
  10
895.35
  20
-521.29
  30
0.00
  0
VERTEX
  8
L_wall
  10
900.42
  20
-527.04
  30
0.00
  0
VERTEX
  8
L_wall
  10
903.51
  20
-534.08
  30
0.00
  0
VERTEX
  8
L_wall
  10
907.08
  20
-541.19
  30
0.00
  0
VERTEX
  8
L_wall
  10
911.54
  20
-546.62
  30
0.00
  0
VERTEX
  8
L_wall
  10
918.70
  20
-551.18
  30
0.00
  0
VERTEX
  8
L_wall
  10
924.61
  20
-555.46
  30
0.00
  0
VERTEX
  8
L_wall
  10
930.41
  20
-560.48
  30
0.00
  0
VERTEX
  8
L_wall
  10
936.59
  20
-566.21
  30
0.00
  0
VERTEX
  8
L_wall
  10
942.25
  20
-571.86
  30
0.00
  0
VERTEX
  8
L_wall
  10
947.39
  20
-577.01
  30
0.00
  0
VERTEX
  8
L_wall
  10
953.11
  20
-581.88
  30
0.00
  0
VERTEX
  8
L_wall
  10
953.63
  20
-580.98
  30
0.00
  0
VERTEX
  8
L_wall
  10
960.66
  20
-581.62
  30
0.00
  0
VERTEX
  8
L_wall
  10
968.69
  20
-584.16
  30
0.00
  0
VERTEX
  8
L_wall
  10
975.26
  20
-587.13
  30
0.00
  0
VERTEX
  8
L_wall
  10
981.49
  20
-591.77
  30
0.00
  0
VERTEX
  8
L_wall
  10
986.81
  20
-596.29
  30
0.00
  0
VERTEX
  8
L_wall
  10
993.41
  20
-601.44
  30
0.00
  0
VERTEX
  8
L_wall
  10
1001.78
  20
-607.19
  30
0.00
  0
VERTEX
  8
L_wall
  10
1007.83
  20
-611.03
  30
0.00
  0
VERTEX
  8
L_wall
  10
1013.26
  20
-615.50
  30
0.00
  0
VERTEX
  8
L_wall
  10
1018.16
  20
-621.83
  30
0.00
  0
VERTEX
  8
L_wall
  10
1022.69
  20
-629.68
  30
0.00
  0
VERTEX
  8
L_wall
  10
1025.47
  20
-633.84
  30
0.00
  0
VERTEX
  8
L_wall
  10
1025.58
  20
-633.96
  30
0.00
  0
VERTEX
  8
L_wall
  10
1033.28
  20
-638.90
  30
0.00
  0
VERTEX
  8
L_wall
  10
1037.33
  20
-644.43
  30
0.00
  0
VERTEX
  8
L_wall
  10
1042.45
  20
-651.05
  30
0.00
  0
VERTEX
  8
L_wall
  10
1046.04
  20
-657.81
  30
0.00
  0
VERTEX
  8
L_wall
  10
1049.66
  20
-664.61
  30
0.00
  0
VERTEX
  8
L_wall
  10
1054.39
  20
-670.01
  30
0.00
  0
VERTEX
  8
L_wall
  10
1060.20
  20
-675.95
  30
0.00
  0
VERTEX
  8
L_wall
  10
1064.35
  20
-681.49
  30
0.00
  0
VERTEX
  8
L_wall
  10
1068.60
  20
-687.14
  30
0.00
  0
SEQEND
  0
POLYLINE
  8
L_wall
  66
1
  70
0
  0
VERTEX
  8
L_wall
  10
1071.45
  20
-735.89
  30
0.00
  0
VERTEX
  8
L_wall
  10
1072.80
  20
-746.04
  30
0.00
  0
VERTEX
  8
L_wall
  10
1073.77
  20
-752.93
  30
0.00
  0
VERTEX
  8
L_wall
  10
1077.75
  20
-760.13
  30
0.00
  0
VERTEX
  8
L_wall
  10
1084.75
  20
-759.14
  30
0.00
  0
VERTEX
  8
L_wall
  10
1091.87
  20
-758.19
  30
0.00
  0
VERTEX
  8
L_wall
  10
1101.40
  20
-757.87
  30
0.00
  0
VERTEX
  8
L_wall
  10
1108.35
  20
-758.87
  30
0.00
  0
SEQEND
  0
POLYLINE
  8
L_wall
  66
1
  70
0
  0
VERTEX
  8
L_wall
  10
1108.35
  20
-758.87
  30
0.00
  0
VERTEX
  8
L_wall
  10
1121.26
  20
-759.48
  30
0.00
  0
VERTEX
  8
L_wall
  10
1129.49
  20
-760.29
  30
0.00
  0
VERTEX
  8
L_wall
  10
1141.59
  20
-761.79
  30
0.00
  0
VERTEX
  8
L_wall
  10
1148.43
  20
-765.43
  30
0.00
  0
VERTEX
  8
L_wall
  10
1155.89
  20
-764.96
  30
0.00
  0
VERTEX
  8
L_wall
  10
1165.10
  20
-765.13
  30
0.00
  0
VERTEX
  8
L_wall
  10
1171.83
  20
-765.34
  30
0.00
  0
VERTEX
  8
L_wall
  10
1177.39
  20
-770.97
  30
0.00
  0
SEQEND
  0
POLYLINE
  8
L_wall
  66
1
  70
0
  0
VERTEX
  8
L_wall
  10
1177.39
  20
-770.97
  30
0.00
  0
VERTEX
  8
L_wall
  10
1177.03
  20
-775.93
  30
0.00
  0
VERTEX
  8
L_wall
  10
1180.81
  20
-781.48
  30
0.00
  0
VERTEX
  8
L_wall
  10
1187.98
  20
-781.48
  30
0.00
  0
VERTEX
  8
L_wall
  10
1195.55
  20
-780.43
  30
0.00
  0
VERTEX
  8
L_wall
  10
1201.79
  20
-780.43
  30
0.00
  0
SEQEND
  0
POLYLINE
  8
L_wall
  66
1
  70
0
  0
VERTEX
  8
L_wall
  10
1201.79
  20
-780.43
  30
0.00
  0
VERTEX
  8
L_wall
  10
1202.96
  20
-784.30
  30
0.00
  0
VERTEX
  8
L_wall
  10
1204.25
  20
-791.99
  30
0.00
  0
VERTEX
  8
L_wall
  10
1202.61
  20
-798.23
  30
0.00
  0
VERTEX
  8
L_wall
  10
1199.26
  20
-804.61
  30
0.00
  0
VERTEX
  8
L_wall
  10
1199.74
  20
-811.95
  30
0.00
  0
VERTEX
  8
L_wall
  10
1202.18
  20
-814.36
  30
0.00
  0
SEQEND
  0
POLYLINE
  8
L_wall
  66
1
  70
0
  0
VERTEX
  8
L_wall
  10
1068.60
  20
-687.14
  30
0.00
  0
VERTEX
  8
L_wall
  10
1073.47
  20
-690.06
  30
0.00
  0
VERTEX
  8
L_wall
  10
1078.38
  20
-694.74
  30
0.00
  0
VERTEX
  8
L_wall
  10
1084.69
  20
-697.97
  30
0.00
  0
VERTEX
  8
L_wall
  10
1090.84
  20
-700.51
  30
0.00
  0
VERTEX
  8
L_wall
  10
1096.35
  20
-704.09
  30
0.00
  0
VERTEX
  8
L_wall
  10
1101.92
  20
-708.05
  30
0.00
  0
VERTEX
  8
L_wall
  10
1105.53
  20
-707.80
  30
0.00
  0
SEQEND
  0
POLYLINE
  8
L_wall
  66
1
  70
0
  0
VERTEX
  8
L_wall
  10
1105.53
  20
-707.80
  30
0.00
  0
VERTEX
  8
L_wall
  10
1111.49
  20
-705.06
  30
0.00
  0
VERTEX
  8
L_wall
  10
1117.53
  20
-699.30
  30
0.00
  0
VERTEX
  8
L_wall
  10
1123.38
  20
-696.03
  30
0.00
  0
VERTEX
  8
L_wall
  10
1130.50
  20
-693.94
  30
0.00
  0
VERTEX
  8
L_wall
  10
1134.34
  20
-693.06
  30
0.00
  0
SEQEND
  0
POLYLINE
  8
L_wall
  66
1
  70
0
  0
VERTEX
  8
L_wall
  10
1134.34
  20
-693.06
  30
0.00
  0
VERTEX
  8
L_wall
  10
1140.20
  20
-696.04
  30
0.00
  0
VERTEX
  8
L_wall
  10
1147.54
  20
-698.11
  30
0.00
  0
VERTEX
  8
L_wall
  10
1154.82
  20
-700.70
  30
0.00
  0
VERTEX
  8
L_wall
  10
1162.23
  20
-701.67
  30
0.00
  0
VERTEX
  8
L_wall
  10
1170.11
  20
-701.51
  30
0.00
  0
VERTEX
  8
L_wall
  10
1176.89
  20
-700.87
  30
0.00
  0
VERTEX
  8
L_wall
  10
1183.84
  20
-703.21
  30
0.00
  0
SEQEND
  0
POLYLINE
  8
L_wall
  66
1
  70
0
  0
VERTEX
  8
L_wall
  10
1183.84
  20
-703.21
  30
0.00
  0
VERTEX
  8
L_wall
  10
1186.53
  20
-704.56
  30
0.00
  0
VERTEX
  8
L_wall
  10
1188.81
  20
-711.94
  30
0.00
  0
VERTEX
  8
L_wall
  10
1187.81
  20
-719.67
  30
0.00
  0
VERTEX
  8
L_wall
  10
1188.17
  20
-726.65
  30
0.00
  0
VERTEX
  8
L_wall
  10
1188.49
  20
-733.89
  30
0.00
  0
VERTEX
  8
L_wall
  10
1191.55
  20
-739.87
  30
0.00
  0
VERTEX
  8
L_wall
  10
1197.40
  20
-743.41
  30
0.00
  0
VERTEX
  8
L_wall
  10
1203.96
  20
-744.06
  30
0.00
  0
SEQEND
  0
POLYLINE
  8
L_wall
  66
1
  70
0
  0
VERTEX
  8
L_wall
  10
1203.96
  20
-744.06
  30
0.00
  0
VERTEX
  8
L_wall
  10
1213.26
  20
-747.69
  30
0.00
  0
VERTEX
  8
L_wall
  10
1220.33
  20
-747.60
  30
0.00
  0
VERTEX
  8
L_wall
  10
1227.80
  20
-746.96
  30
0.00
  0
VERTEX
  8
L_wall
  10
1232.31
  20
-750.31
  30
0.00
  0
VERTEX
  8
L_wall
  10
1233.92
  20
-756.63
  30
0.00
  0
VERTEX
  8
L_wall
  10
1238.00
  20
-762.21
  30
0.00
  0
SEQEND
  0
POLYLINE
  8
L_wall
  66
1
  70
0
  0
VERTEX
  8
L_wall
  10
1238.00
  20
-762.21
  30
0.00
  0
VERTEX
  8
L_wall
  10
1245.54
  20
-763.88
  30
0.00
  0
VERTEX
  8
L_wall
  10
1252.21
  20
-761.36
  30
0.00
  0
VERTEX
  8
L_wall
  10
1258.44
  20
-757.43
  30
0.00
  0
VERTEX
  8
L_wall
  10
1264.84
  20
-755.03
  30
0.00
  0
VERTEX
  8
L_wall
  10
1268.23
  20
-753.89
  30
0.00
  0
SEQEND
  0
POLYLINE
  8
L_wall
  66
1
  70
0
  0
VERTEX
  8
L_wall
  10
1268.23
  20
-753.89
  30
0.00
  0
VERTEX
  8
L_wall
  10
1271.61
  20
-755.02
  30
0.00
  0
VERTEX
  8
L_wall
  10
1276.75
  20
-750.20
  30
0.00
  0
VERTEX
  8
L_wall
  10
1283.71
  20
-746.80
  30
0.00
  0
VERTEX
  8
L_wall
  10
1290.69
  20
-746.80
  30
0.00
  0
VERTEX
  8
L_wall
  10
1296.19
  20
-750.92
  30
0.00
  0
VERTEX
  8
L_wall
  10
1298.19
  20
-757.54
  30
0.00
  0
VERTEX
  8
L_wall
  10
1298.52
  20
-765.56
  30
0.00
  0
VERTEX
  8
L_wall
  10
1299.39
  20
-773.04
  30
0.00
  0
VERTEX
  8
L_wall
  10
1299.48
  20
-780.87
  30
0.00
  0
VERTEX
  8
L_wall
  10
1300.45
  20
-787.62
  30
0.00
  0
VERTEX
  8
L_wall
  10
1300.77
  20
-794.95
  30
0.00
  0
VERTEX
  8
L_wall
  10
1302.35
  20
-801.57
  30
0.00
  0
SEQEND
  0
POLYLINE
  8
L_wall
  66
1
  70
0
  0
VERTEX
  8
L_wall
  10
1302.35
  20
-801.57
  30
0.00
  0
VERTEX
  8
L_wall
  10
1304.80
  20
-807.56
  30
0.00
  0
VERTEX
  8
L_wall
  10
1311.22
  20
-811.34
  30
0.00
  0
VERTEX
  8
L_wall
  10
1318.61
  20
-810.62
  30
0.00
  0
VERTEX
  8
L_wall
  10
1325.86
  20
-808.13
  30
0.00
  0
VERTEX
  8
L_wall
  10
1333.02
  20
-805.91
  30
0.00
  0
VERTEX
  8
L_wall
  10
1339.64
  20
-803.91
  30
0.00
  0
VERTEX
  8
L_wall
  10
1346.98
  20
-803.21
  30
0.00
  0
VERTEX
  8
L_wall
  10
1354.15
  20
-803.21
  30
0.00
  0
VERTEX
  8
L_wall
  10
1360.72
  20
-802.88
  30
0.00
  0
SEQEND
  0
POLYLINE
  8
L_wall
  66
1
  70
0
  0
VERTEX
  8
L_wall
  10
1202.18
  20
-814.36
  30
0.00
  0
VERTEX
  8
L_wall
  10
1210.07
  20
-820.20
  30
0.00
  0
VERTEX
  8
L_wall
  10
1210.88
  20
-827.59
  30
0.00
  0
VERTEX
  8
L_wall
  10
1213.34
  20
-834.78
  30
0.00
  0
VERTEX
  8
L_wall
  10
1215.55
  20
-841.56
  30
0.00
  0
VERTEX
  8
L_wall
  10
1219.26
  20
-848.65
  30
0.00
  0
SEQEND
  0
POLYLINE
  8
L_wall
  66
1
  70
0
  0
VERTEX
  8
L_wall
  10
1219.26
  20
-848.65
  30
0.00
  0
VERTEX
  8
L_wall
  10
1224.83
  20
-853.55
  30
0.00
  0
VERTEX
  8
L_wall
  10
1229.07
  20
-859.56
  30
0.00
  0
VERTEX
  8
L_wall
  10
1231.27
  20
-867.49
  30
0.00
  0
VERTEX
  8
L_wall
  10
1235.01
  20
-874.87
  30
0.00
  0
VERTEX
  8
L_wall
  10
1237.71
  20
-881.13
  30
0.00
  0
VERTEX
  8
L_wall
  10
1244.55
  20
-884.92
  30
0.00
  0
VERTEX
  8
L_wall
  10
1252.26
  20
-884.08
  30
0.00
  0
VERTEX
  8
L_wall
  10
1260.23
  20
-881.07
  30
0.00
  0
VERTEX
  8
L_wall
  10
1266.45
  20
-878.48
  30
0.00
  0
VERTEX
  8
L_wall
  10
1276.25
  20
-876.27
  30
0.00
  0
SEQEND
  0
POLYLINE
  8
L_wall
  66
1
  70
0
  0
VERTEX
  8
L_wall
  10
1276.25
  20
-876.27
  30
0.00
  0
VERTEX
  8
L_wall
  10
1284.34
  20
-873.63
  30
0.00
  0
VERTEX
  8
L_wall
  10
1292.03
  20
-873.15
  30
0.00
  0
VERTEX
  8
L_wall
  10
1299.66
  20
-873.85
  30
0.00
  0
VERTEX
  8
L_wall
  10
1306.21
  20
-878.27
  30
0.00
  0
VERTEX
  8
L_wall
  10
1312.69
  20
-876.70
  30
0.00
  0
VERTEX
  8
L_wall
  10
1319.61
  20
-872.35
  30
0.00
  0
VERTEX
  8
L_wall
  10
1323.85
  20
-865.43
  30
0.00
  0
VERTEX
  8
L_wall
  10
1331.65
  20
-859.96
  30
0.00
  0
SEQEND
  0
POLYLINE
  8
L_wall
  66
1
  70
0
  0
VERTEX
  8
L_wall
  10
1331.65
  20
-859.96
  30
0.00
  0
VERTEX
  8
L_wall
  10
1336.96
  20
-864.18
  30
0.00
  0
VERTEX
  8
L_wall
  10
1341.85
  20
-868.80
  30
0.00
  0
VERTEX
  8
L_wall
  10
1347.51
  20
-874.14
  30
0.00
  0
VERTEX
  8
L_wall
  10
1352.97
  20
-877.99
  30
0.00
  0
VERTEX
  8
L_wall
  10
1356.45
  20
-877.37
  30
0.00
  0
SEQEND
  0
POLYLINE
  8
L_wall
  66
1
  70
0
  0
VERTEX
  8
L_wall
  10
1360.72
  20
-802.88
  30
0.00
  0
VERTEX
  8
L_wall
  10
1367.74
  20
-806.13
  30
0.00
  0
VERTEX
  8
L_wall
  10
1374.45
  20
-808.07
  30
0.00
  0
VERTEX
  8
L_wall
  10
1377.03
  20
-814.08
  30
0.00
  0
VERTEX
  8
L_wall
  10
1376.45
  20
-821.33
  30
0.00
  0
VERTEX
  8
L_wall
  10
1379.02
  20
-828.28
  30
0.00
  0
VERTEX
  8
L_wall
  10
1384.08
  20
-833.32
  30
0.00
  0
VERTEX
  8
L_wall
  10
1390.08
  20
-837.04
  30
0.00
  0
SEQEND
  0
POLYLINE
  8
L_wall
  66
1
  70
0
  0
VERTEX
  8
L_wall
  10
1390.08
  20
-837.04
  30
0.00
  0
VERTEX
  8
L_wall
  10
1401.79
  20
-840.91
  30
0.00
  0
VERTEX
  8
L_wall
  10
1408.34
  20
-841.91
  30
0.00
  0
VERTEX
  8
L_wall
  10
1415.37
  20
-844.10
  30
0.00
  0
VERTEX
  8
L_wall
  10
1422.49
  20
-844.49
  30
0.00
  0
VERTEX
  8
L_wall
  10
1429.48
  20
-843.52
  30
0.00
  0
VERTEX
  8
L_wall
  10
1437.31
  20
-841.91
  30
0.00
  0
VERTEX
  8
L_wall
  10
1444.73
  20
-842.23
  30
0.00
  0
VERTEX
  8
L_wall
  10
1451.19
  20
-841.59
  30
0.00
  0
SEQEND
  0
POLYLINE
  8
L_wall
  66
1
  70
0
  0
VERTEX
  8
L_wall
  10
1451.19
  20
-841.59
  30
0.00
  0
VERTEX
  8
L_wall
  10
1460.41
  20
-839.50
  30
0.00
  0
VERTEX
  8
L_wall
  10
1467.60
  20
-834.62
  30
0.00
  0
VERTEX
  8
L_wall
  10
1472.92
  20
-828.23
  30
0.00
  0
VERTEX
  8
L_wall
  10
1478.65
  20
-823.47
  30
0.00
  0
VERTEX
  8
L_wall
  10
1485.42
  20
-819.21
  30
0.00
  0
VERTEX
  8
L_wall
  10
1492.33
  20
-820.71
  30
0.00
  0
VERTEX
  8
L_wall
  10
1498.71
  20
-823.38
  30
0.00
  0
VERTEX
  8
L_wall
  10
1504.01
  20
-827.88
  30
0.00
  0
VERTEX
  8
L_wall
  10
1509.17
  20
-833.20
  30
0.00
  0
VERTEX
  8
L_wall
  10
1515.13
  20
-840.28
  30
0.00
  0
SEQEND
  0
POLYLINE
  8
L_wall
  66
1
  70
0
  0
VERTEX
  8
L_wall
  10
1356.45
  20
-877.37
  30
0.00
  0
VERTEX
  8
L_wall
  10
1364.27
  20
-876.81
  30
0.00
  0
VERTEX
  8
L_wall
  10
1371.45
  20
-874.15
  30
0.00
  0
VERTEX
  8
L_wall
  10
1380.71
  20
-872.85
  30
0.00
  0
VERTEX
  8
L_wall
  10
1387.84
  20
-873.00
  30
0.00
  0
VERTEX
  8
L_wall
  10
1394.89
  20
-874.57
  30
0.00
  0
VERTEX
  8
L_wall
  10
1401.25
  20
-876.24
  30
0.00
  0
VERTEX
  8
L_wall
  10
1409.38
  20
-878.03
  30
0.00
  0
VERTEX
  8
L_wall
  10
1415.81
  20
-881.61
  30
0.00
  0
VERTEX
  8
L_wall
  10
1424.44
  20
-886.87
  30
0.00
  0
VERTEX
  8
L_wall
  10
1431.79
  20
-889.03
  30
0.00
  0
VERTEX
  8
L_wall
  10
1439.11
  20
-890.10
  30
0.00
  0
VERTEX
  8
L_wall
  10
1446.31
  20
-890.26
  30
0.00
  0
VERTEX
  8
L_wall
  10
1453.28
  20
-890.26
  30
0.00
  0
VERTEX
  8
L_wall
  10
1460.84
  20
-888.58
  30
0.00
  0
SEQEND
  0
POLYLINE
  8
L_wall
  66
1
  70
0
  0
VERTEX
  8
L_wall
  10
1460.84
  20
-888.58
  30
0.00
  0
VERTEX
  8
L_wall
  10
1470.04
  20
-888.00
  30
0.00
  0
VERTEX
  8
L_wall
  10
1477.50
  20
-888.00
  30
0.00
  0
VERTEX
  8
L_wall
  10
1484.81
  20
-886.77
  30
0.00
  0
VERTEX
  8
L_wall
  10
1491.27
  20
-882.37
  30
0.00
  0
VERTEX
  8
L_wall
  10
1499.56
  20
-880.89
  30
0.00
  0
VERTEX
  8
L_wall
  10
1507.22
  20
-880.91
  30
0.00
  0
VERTEX
  8
L_wall
  10
1515.52
  20
-878.40
  30
0.00
  0
SEQEND
  0
POLYLINE
  8
L_wall
  66
1
  70
0
  0
VERTEX
  8
L_wall
  10
1515.52
  20
-878.40
  30
0.00
  0
VERTEX
  8
L_wall
  10
1519.67
  20
-873.23
  30
0.00
  0
VERTEX
  8
L_wall
  10
1524.80
  20
-868.11
  30
0.00
  0
VERTEX
  8
L_wall
  10
1532.68
  20
-865.71
  30
0.00
  0
VERTEX
  8
L_wall
  10
1541.40
  20
-863.99
  30
0.00
  0
SEQEND
  0
POLYLINE
  8
L_wall
  66
1
  70
0
  0
VERTEX
  8
L_wall
  10
1515.13
  20
-840.28
  30
0.00
  0
VERTEX
  8
L_wall
  10
1529.05
  20
-840.60
  30
0.00
  0
VERTEX
  8
L_wall
  10
1534.93
  20
-835.10
  30
0.00
  0
VERTEX
  8
L_wall
  10
1539.42
  20
-828.68
  30
0.00
  0
VERTEX
  8
L_wall
  10
1542.02
  20
-823.67
  30
0.00
  0
SEQEND
  0
POLYLINE
  8
L_wall
  66
1
  70
0
  0
VERTEX
  8
L_wall
  10
1542.02
  20
-823.67
  30
0.00
  0
VERTEX
  8
L_wall
  10
1548.22
  20
-821.16
  30
0.00
  0
VERTEX
  8
L_wall
  10
1552.59
  20
-814.87
  30
0.00
  0
VERTEX
  8
L_wall
  10
1552.81
  20
-807.28
  30
0.00
  0
VERTEX
  8
L_wall
  10
1556.36
  20
-801.90
  30
0.00
  0
VERTEX
  8
L_wall
  10
1563.34
  20
-802.39
  30
0.00
  0
VERTEX
  8
L_wall
  10
1569.95
  20
-803.68
  30
0.00
  0
VERTEX
  8
L_wall
  10
1575.21
  20
-806.45
  30
0.00
  0
SEQEND
  0
POLYLINE
  8
L_wall
  66
1
  70
0
  0
VERTEX
  8
L_wall
  10
1575.21
  20
-806.45
  30
0.00
  0
VERTEX
  8
L_wall
  10
1580.57
  20
-812.75
  30
0.00
  0
VERTEX
  8
L_wall
  10
1586.00
  20
-817.21
  30
0.00
  0
VERTEX
  8
L_wall
  10
1588.69
  20
-823.89
  30
0.00
  0
VERTEX
  8
L_wall
  10
1591.55
  20
-830.16
  30
0.00
  0
VERTEX
  8
L_wall
  10
1596.79
  20
-835.90
  30
0.00
  0
VERTEX
  8
L_wall
  10
1602.07
  20
-839.87
  30
0.00
  0
VERTEX
  8
L_wall
  10
1605.65
  20
-846.71
  30
0.00
  0
SEQEND
  0
POLYLINE
  8
L_wall
  66
1
  70
0
  0
VERTEX
  8
L_wall
  10
1605.65
  20
-846.71
  30
0.00
  0
VERTEX
  8
L_wall
  10
1607.58
  20
-855.96
  30
0.00
  0
VERTEX
  8
L_wall
  10
1608.39
  20
-863.30
  30
0.00
  0
VERTEX
  8
L_wall
  10
1613.22
  20
-868.47
  30
0.00
  0
VERTEX
  8
L_wall
  10
1619.76
  20
-873.27
  30
0.00
  0
VERTEX
  8
L_wall
  10
1625.30
  20
-877.81
  30
0.00
  0
VERTEX
  8
L_wall
  10
1630.88
  20
-882.85
  30
0.00
  0
VERTEX
  8
L_wall
  10
1634.00
  20
-889.74
  30
0.00
  0
VERTEX
  8
L_wall
  10
1635.29
  20
-896.29
  30
0.00
  0
VERTEX
  8
L_wall
  10
1629.33
  20
-894.57
  30
0.00
  0
SEQEND
  0
POLYLINE
  8
L_wall
  66
1
  70
0
  0
VERTEX
  8
L_wall
  10
1629.33
  20
-894.57
  30
0.00
  0
VERTEX
  8
L_wall
  10
1625.86
  20
-894.05
  30
0.00
  0
VERTEX
  8
L_wall
  10
1618.52
  20
-889.72
  30
0.00
  0
VERTEX
  8
L_wall
  10
1612.21
  20
-884.05
  30
0.00
  0
VERTEX
  8
L_wall
  10
1607.99
  20
-877.90
  30
0.00
  0
VERTEX
  8
L_wall
  10
1602.03
  20
-874.59
  30
0.00
  0
VERTEX
  8
L_wall
  10
1596.95
  20
-879.68
  30
0.00
  0
SEQEND
  0
POLYLINE
  8
L_wall
  66
1
  70
0
  0
VERTEX
  8
L_wall
  10
1596.95
  20
-879.68
  30
0.00
  0
VERTEX
  8
L_wall
  10
1592.90
  20
-880.39
  30
0.00
  0
VERTEX
  8
L_wall
  10
1589.15
  20
-886.02
  30
0.00
  0
VERTEX
  8
L_wall
  10
1585.60
  20
-891.75
  30
0.00
  0
VERTEX
  8
L_wall
  10
1580.20
  20
-896.45
  30
0.00
  0
VERTEX
  8
L_wall
  10
1574.56
  20
-900.78
  30
0.00
  0
VERTEX
  8
L_wall
  10
1566.79
  20
-900.38
  30
0.00
  0
VERTEX
  8
L_wall
  10
1559.65
  20
-898.76
  30
0.00
  0
VERTEX
  8
L_wall
  10
1553.49
  20
-896.36
  30
0.00
  0
VERTEX
  8
L_wall
  10
1550.19
  20
-890.24
  30
0.00
  0
VERTEX
  8
L_wall
  10
1549.94
  20
-881.23
  30
0.00
  0
VERTEX
  8
L_wall
  10
1551.01
  20
-873.77
  30
0.00
  0
VERTEX
  8
L_wall
  10
1551.53
  20
-870.08
  30
0.00
  0
SEQEND
  0
POLYLINE
  8
L_wall
  66
1
  70
0
  0
VERTEX
  8
L_wall
  10
1552.81
  20
-873.30
  30
0.00
  0
VERTEX
  8
L_wall
  10
1549.55
  20
-867.14
  30
0.00
  0
VERTEX
  8
L_wall
  10
1544.04
  20
-862.66
  30
0.00
  0
SEQEND
  0
INSERT
  8
POINT
  2
P_debris
  41
10.00
  42
10.00
  50
360.00
  10
1101.57
  20
-749.12
  30
0.00
  0
INSERT
  8
POINT
  2
P_debris
  41
10.00
  42
10.00
  50
360.00
  10
1107.93
  20
-716.69
  30
0.00
  0
INSERT
  8
POINT
  2
P_debris
  41
10.00
  42
10.00
  50
360.00
  10
1135.92
  20
-748.10
  30
0.00
  0
INSERT
  8
POINT
  2
P_debris
  41
10.00
  42
10.00
  50
360.00
  10
1151.56
  20
-712.13
  30
0.00
  0
INSERT
  8
POINT
  2
P_debris
  41
10.00
  42
10.00
  50
360.00
  10
1154.62
  20
-737.10
  30
0.00
  0
POLYLINE
  8
L_slope
  66
1
  70
0
  0
VERTEX
  8
L_slope
  10
1177.47
  20
-766.92
  30
0.00
  0
VERTEX
  8
L_slope
  10
1182.56
  20
-757.90
  30
0.00
  0
VERTEX
  8
L_slope
  10
1188.31
  20
-744.55
  30
0.00
  0
SEQEND
  0
POLYLINE
  8
L_slope
  66
1
  70
0
  0
VERTEX
  8
L_slope
  10
1301.78
  20
-865.85
  30
0.00
  0
VERTEX
  8
L_slope
  10
1308.92
  20
-855.78
  30
0.00
  0
VERTEX
  8
L_slope
  10
1314.64
  20
-841.46
  30
0.00
  0
VERTEX
  8
L_slope
  10
1319.80
  20
-832.10
  30
0.00
  0
VERTEX
  8
L_slope
  10
1322.06
  20
-822.13
  30
0.00
  0
VERTEX
  8
L_slope
  10
1322.58
  20
-814.30
  30
0.00
  0
SEQEND
  0
POLYLINE
  8
L_slope
  66
1
  70
0
  0
VERTEX
  8
L_slope
  10
1413.63
  20
-879.31
  30
0.00
  0
VERTEX
  8
L_slope
  10
1418.71
  20
-866.14
  30
0.00
  0
VERTEX
  8
L_slope
  10
1423.21
  20
-849.44
  30
0.00
  0
VERTEX
  8
L_slope
  10
1425.00
  20
-843.18
  30
0.00
  0
SEQEND
  0
POLYLINE
  8
L_slope
  66
1
  70
0
  0
VERTEX
  8
L_slope
  10
1514.43
  20
-872.47
  30
0.00
  0
VERTEX
  8
L_slope
  10
1514.66
  20
-859.06
  30
0.00
  0
VERTEX
  8
L_slope
  10
1513.08
  20
-845.54
  30
0.00
  0
SEQEND
  0
POLYLINE
  8
L_slope
  66
1
  70
0
  0
VERTEX
  8
L_slope
  10
1606.39
  20
-855.82
  30
0.00
  0
VERTEX
  8
L_slope
  10
1595.82
  20
-862.83
  30
0.00
  0
VERTEX
  8
L_slope
  10
1592.07
  20
-876.16
  30
0.00
  0
SEQEND
  0
INSERT
  8
POINT
  2
P_debris
  41
10.00
  42
10.00
  50
360.00
  10
1574.48
  20
-884.95
  30
0.00
  0
INSERT
  8
POINT
  2
P_debris
  41
10.00
  42
10.00
  50
360.00
  10
1563.52
  20
-847.65
  30
0.00
  0
INSERT
  8
POINT
  2
P_debris
  41
10.00
  42
10.00
  50
360.00
  10
1567.11
  20
-820.68
  30
0.00
  0
INSERT
  8
POINT
  2
P_clay
  41
10.00
  42
10.00
  50
360.00
  10
1250.30
  20
-853.39
  30
0.00
  0
INSERT
  8
POINT
  2
P_clay
  41
10.00
  42
10.00
  50
360.00
  10
1227.21
  20
-790.95
  30
0.00
  0
INSERT
  8
POINT
  2
P_clay
  41
10.00
  42
10.00
  50
360.00
  10
1280.25
  20
-825.49
  30
0.00
  0
INSERT
  8
POINT
  2
P_clay
  41
10.00
  42
10.00
  50
360.00
  10
1345.39
  20
-852.94
  30
0.00
  0
INSERT
  8
POINT
  2
P_debris
  41
10.00
  42
10.00
  50
360.00
  10
1276.07
  20
-780.02
  30
0.00
  0
INSERT
  8
POINT
  2
P_debris
  41
10.00
  42
10.00
  50
360.00
  10
1290.88
  20
-802.90
  30
0.00
  0
INSERT
  8
POINT
  2
P_debris
  41
10.00
  42
10.00
  50
360.00
  10
1478.52
  20
-878.70
  30
0.00
  0
INSERT
  8
POINT
  2
P_debris
  41
10.00
  42
10.00
  50
360.00
  10
1480.37
  20
-873.11
  30
0.00
  0
INSERT
  8
POINT
  2
P_debris
  41
10.00
  42
10.00
  50
360.00
  10
1478.09
  20
-835.67
  30
0.00
  0
INSERT
  8
POINT
  2
P_debris
  41
10.00
  42
10.00
  50
360.00
  10
1383.80
  20
-867.09
  30
0.00
  0
INSERT
  8
POINT
  2
P_clay
  41
10.00
  42
10.00
  50
360.00
  10
1347.56
  20
-834.28
  30
0.00
  0
INSERT
  8
POINT
  2
P_clay
  41
10.00
  42
10.00
  50
360.00
  10
1470.28
  20
-853.23
  30
0.00
  0
INSERT
  8
POINT
  2
P_clay
  41
10.00
  42
10.00
  50
360.00
  10
1388.13
  20
-852.31
  30
0.00
  0
POLYLINE
  8
L_wall
  66
1
  70
0
  0
VERTEX
  8
L_wall
  10
411.62
  20
-268.36
  30
0.00
  0
VERTEX
  8
L_wall
  10
412.34
  20
-261.98
  30
0.00
  0
VERTEX
  8
L_wall
  10
415.06
  20
-256.22
  30
0.00
  0
VERTEX
  8
L_wall
  10
420.44
  20
-252.10
  30
0.00
  0
VERTEX
  8
L_wall
  10
425.21
  20
-247.11
  30
0.00
  0
VERTEX
  8
L_wall
  10
430.96
  20
-243.74
  30
0.00
  0
VERTEX
  8
L_wall
  10
435.32
  20
-238.54
  30
0.00
  0
VERTEX
  8
L_wall
  10
439.94
  20
-233.37
  30
0.00
  0
VERTEX
  8
L_wall
  10
441.95
  20
-226.78
  30
0.00
  0
SEQEND
  0
POLYLINE
  8
L_wall
  66
1
  70
0
  0
VERTEX
  8
L_wall
  10
438.55
  20
-273.00
  30
0.00
  0
VERTEX
  8
L_wall
  10
438.97
  20
-266.49
  30
0.00
  0
VERTEX
  8
L_wall
  10
444.44
  20
-260.11
  30
0.00
  0
VERTEX
  8
L_wall
  10
450.59
  20
-255.48
  30
0.00
  0
VERTEX
  8
L_wall
  10
455.62
  20
-251.23
  30
0.00
  0
VERTEX
  8
L_wall
  10
460.46
  20
-246.44
  30
0.00
  0
VERTEX
  8
L_wall
  10
463.00
  20
-240.47
  30
0.00
  0
VERTEX
  8
L_wall
  10
464.86
  20
-234.47
  30
0.00
  0
SEQEND
  0
INSERT
  8
POINT
  2
P_continuation
  41
10.00
  42
10.00
  50
360.00
  10
457.45
  20
-216.02
  30
0.00
  0
INSERT
  8
POINT
  2
P_debris
  41
10.00
  42
10.00
  50
360.00
  10
433.96
  20
-246.38
  30
0.00
  0
INSERT
  8
POINT
  2
P_debris
  41
10.00
  42
10.00
  50
360.00
  10
449.13
  20
-253.81
  30
0.00
  0
INSERT
  8
POINT
  2
P_blocks
  41
10.00
  42
10.00
  50
360.00
  10
446.66
  20
-239.81
  30
0.00
  0
POLYLINE
  8
L_wall
  66
1
  70
0
  0
VERTEX
  8
L_wall
  10
409.14
  20
-227.49
  30
0.00
  0
VERTEX
  8
L_wall
  10
409.26
  20
-219.26
  30
0.00
  0
VERTEX
  8
L_wall
  10
409.14
  20
-210.77
  30
0.00
  0
SEQEND
  0
POLYLINE
  8
L_wall
  66
1
  70
0
  0
VERTEX
  8
L_wall
  10
411.93
  20
-237.09
  30
0.00
  0
VERTEX
  8
L_wall
  10
406.22
  20
-237.84
  30
0.00
  0
VERTEX
  8
L_wall
  10
410.52
  20
-242.35
  30
0.00
  0
VERTEX
  8
L_wall
  10
411.57
  20
-236.36
  30
0.00
  0
SEQEND
  0
POLYLINE
  8
L_wall
  66
1
  70
0
  0
VERTEX
  8
L_wall
  10
439.17
  20
-188.16
  30
0.00
  0
VERTEX
  8
L_wall
  10
439.48
  20
-179.18
  30
0.00
  0
VERTEX
  8
L_wall
  10
439.15
  20
-171.08
  30
0.00
  0
SEQEND
  0
POLYLINE
  8
L_wall
  66
1
  70
0
  0
VERTEX
  8
L_wall
  10
437.93
  20
-198.07
  30
0.00
  0
VERTEX
  8
L_wall
  10
433.60
  20
-202.33
  30
0.00
  0
VERTEX
  8
L_wall
  10
437.15
  20
-207.20
  30
0.00
  0
VERTEX
  8
L_wall
  10
440.33
  20
-202.56
  30
0.00
  0
VERTEX
  8
L_wall
  10
435.36
  20
-198.69
  30
0.00
  0
SEQEND
  0
POLYLINE
  8
L_wall
  66
1
  70
0
  0
VERTEX
  8
L_wall
  10
456.19
  20
-191.88
  30
0.00
  0
VERTEX
  8
L_wall
  10
455.46
  20
-183.62
  30
0.00
  0
VERTEX
  8
L_wall
  10
455.57
  20
-174.54
  30
0.00
  0
VERTEX
  8
L_wall
  10
454.95
  20
-170.76
  30
0.00
  0
SEQEND
  0
POLYLINE
  8
L_wall
  66
1
  70
0
  0
VERTEX
  8
L_wall
  10
455.57
  20
-197.76
  30
0.00
  0
VERTEX
  8
L_wall
  10
450.55
  20
-201.37
  30
0.00
  0
VERTEX
  8
L_wall
  10
453.59
  20
-206.99
  30
0.00
  0
VERTEX
  8
L_wall
  10
456.03
  20
-203.33
  30
0.00
  0
VERTEX
  8
L_wall
  10
451.70
  20
-202.25
  30
0.00
  0
SEQEND
  0
POLYLINE
  8
L_wall
  66
1
  70
0
  0
VERTEX
  8
L_wall
  10
17.52
  20
-255.44
  30
0.00
  0
VERTEX
  8
L_wall
  10
22.94
  20
-261.64
  30
0.00
  0
VERTEX
  8
L_wall
  10
29.11
  20
-265.34
  30
0.00
  0
VERTEX
  8
L_wall
  10
36.11
  20
-267.94
  30
0.00
  0
VERTEX
  8
L_wall
  10
42.58
  20
-270.69
  30
0.00
  0
VERTEX
  8
L_wall
  10
49.15
  20
-272.16
  30
0.00
  0
VERTEX
  8
L_wall
  10
55.65
  20
-275.32
  30
0.00
  0
VERTEX
  8
L_wall
  10
63.04
  20
-279.19
  30
0.00
  0
VERTEX
  8
L_wall
  10
70.02
  20
-282.07
  30
0.00
  0
VERTEX
  8
L_wall
  10
77.10
  20
-282.69
  30
0.00
  0
VERTEX
  8
L_wall
  10
84.88
  20
-285.00
  30
0.00
  0
VERTEX
  8
L_wall
  10
90.99
  20
-287.32
  30
0.00
  0
SEQEND
  0
INSERT
  8
POINT
  2
P_continuation
  41
10.00
  42
10.00
  50
360.00
  10
107.59
  20
-278.98
  30
0.00
  0
POLYLINE
  8
L_pit
  66
1
  70
0
  0
VERTEX
  8
L_pit
  10
194.47
  20
-254.59
  30
0.00
  0
VERTEX
  8
L_pit
  10
194.45
  20
-251.59
  30
0.00
  0
VERTEX
  8
L_pit
  10
192.15
  20
-247.92
  30
0.00
  0
VERTEX
  8
L_pit
  10
189.56
  20
-244.37
  30
0.00
  0
VERTEX
  8
L_pit
  10
187.08
  20
-240.78
  30
0.00
  0
VERTEX
  8
L_pit
  10
184.09
  20
-238.17
  30
0.00
  0
VERTEX
  8
L_pit
  10
180.58
  20
-235.32
  30
0.00
  0
VERTEX
  8
L_pit
  10
177.00
  20
-233.21
  30
0.00
  0
VERTEX
  8
L_pit
  10
174.01
  20
-232.32
  30
0.00
  0
VERTEX
  8
L_pit
  10
168.99
  20
-231.64
  30
0.00
  0
VERTEX
  8
L_pit
  10
165.46
  20
-231.79
  30
0.00
  0
VERTEX
  8
L_pit
  10
161.90
  20
-232.19
  30
0.00
  0
VERTEX
  8
L_pit
  10
158.32
  20
-232.88
  30
0.00
  0
VERTEX
  8
L_pit
  10
154.87
  20
-233.61
  30
0.00
  0
VERTEX
  8
L_pit
  10
151.55
  20
-234.38
  30
0.00
  0
VERTEX
  8
L_pit
  10
148.33
  20
-235.85
  30
0.00
  0
VERTEX
  8
L_pit
  10
145.51
  20
-238.15
  30
0.00
  0
VERTEX
  8
L_pit
  10
143.59
  20
-241.34
  30
0.00
  0
SEQEND
  0
INSERT
  8
POINT
  2
P_label
  41
10.00
  42
10.00
  50
360.00
  10
1146.60
  20
-301.63
  30
0.00
  0
ENDSEC
  0
EOF
