<svg width="2307" height="930"
   xmlns:svg="http://www.w3.org/2000/svg"
   xmlns="http://www.w3.org/2000/svg" >
<!-- SVG created by TopoDroid v. 3.1.4 -->
  <defs>
    <marker id="Triangle" viewBox="0 0 10 10" refX="0" refY="5" 
      markerUnits="strokeWidth" markerWidth="4" markerHeight="3" orient="auto" >
      <path d="M 0 0 L 10 5 L 0 10 z" />
    </marker>
  </defs>
<g>
<g style="fill:none;stroke-opacity:0.6;stroke:red" >
  <path stroke-width="1" stroke="black" d="M 100.00 120.00 L 12.02 228.80" />
  <path stroke-width="1" stroke="black" d="M 12.02 228.80 L 84.13 331.19" />
  <path stroke-width="1" stroke="black" d="M 84.13 331.19 L 169.41 371.27" />
  <path stroke-width="1" stroke="black" d="M 169.41 371.27 L 240.14 415.79" />
  <path stroke-width="1" stroke="black" d="M 240.14 415.79 L 422.94 440.95" />
  <path stroke-width="1" stroke="black" d="M 422.94 440.95 L 485.37 463.14" />
  <path stroke-width="1" stroke="black" d="M 485.37 463.14 L 526.79 502.79" />
  <path stroke-width="1" stroke="black" d="M 526.79 502.79 L 619.19 495.09" />
  <path stroke-width="1" stroke="black" d="M 619.19 495.09 L 727.49 519.95" />
  <path stroke-width="1" stroke="black" d="M 727.49 519.95 L 794.61 503.47" />
  <path stroke-width="1" stroke="black" d="M 794.61 503.47 L 874.17 499.85" />
  <path stroke-width="1" stroke="black" d="M 874.17 499.85 L 974.80 509.89" />
  <path stroke-width="1" stroke="black" d="M 974.80 509.89 L 925.30 508.13" />
  <path stroke-width="1" stroke="black" d="M 925.30 508.13 L 794.51 612.30" />
  <path stroke-width="1" stroke="black" d="M 794.51 612.30 L 700.45 595.79" />
  <path stroke-width="1" stroke="black" d="M 700.45 595.79 L 587.10 518.46" />
  <path stroke-width="1" stroke="black" d="M 587.10 518.46 L 488.88 605.91" />
  <path stroke-width="1" stroke="black" d="M 488.88 605.91 L 419.32 633.25" />
  <path stroke-width="1" stroke="black" d="M 925.30 508.13 L 1079.53 376.48" />
  <path stroke-width="1" stroke="black" d="M 794.61 503.47 L 992.82 447.08" />
  <path stroke-width="1" stroke="black" d="M 992.82 447.08 L 1069.74 319.18" />
  <path stroke-width="1" stroke="black" d="M 794.61 503.47 L 939.20 523.05" />
  <path stroke-width="1" stroke="black" d="M 939.20 523.05 L 1042.63 551.49" />
  <path stroke-width="1" stroke="black" d="M 1042.63 551.49 L 1195.32 601.49" />
  <path stroke-width="1" stroke="black" d="M 1195.32 601.49 L 1258.58 622.63" />
  <path stroke-width="1" stroke="black" d="M 1258.58 622.63 L 1152.65 774.08" />
  <path stroke-width="1" stroke="black" d="M 1195.32 601.49 L 1347.70 519.64" />
  <path stroke-width="1" stroke="black" d="M 1347.70 519.64 L 1370.08 515.26" />
  <path stroke-width="1" stroke="black" d="M 1370.08 515.26 L 1419.96 511.09" />
  <path stroke-width="1" stroke="black" d="M 1419.96 511.09 L 1490.98 518.43" />
  <path stroke-width="1" stroke="black" d="M 1490.98 518.43 L 1527.91 488.60" />
  <path stroke-width="1" stroke="black" d="M 1527.91 488.60 L 1586.21 473.22" />
  <path stroke-width="1" stroke="black" d="M 1586.21 473.22 L 1672.79 446.35" />
  <path stroke-width="1" stroke="black" d="M 1672.79 446.35 L 1783.73 432.58" />
  <path stroke-width="1" stroke="black" d="M 1783.73 432.58 L 1872.92 395.77" />
  <path stroke-width="1" stroke="black" d="M 1872.92 395.77 L 1925.40 371.24" />
  <path stroke-width="1" stroke="black" d="M 1925.40 371.24 L 1961.26 384.44" />
  <path stroke-width="1" stroke="black" d="M 1961.26 384.44 L 1991.96 368.97" />
  <path stroke-width="1" stroke="black" d="M 422.94 440.95 L 483.48 495.45" />
  <path stroke-width="1" stroke="black" d="M 483.48 495.45 L 538.26 553.51" />
  <path stroke-width="1" stroke="black" d="M 169.41 371.27 L 64.75 392.60" />
  <path stroke-width="1" stroke="black" d="M 64.75 392.60 L 42.75 206.67" />
  <path stroke-width="1" stroke="grey" d="M 100.00 120.00 L 104.80 119.93" />
  <path stroke-width="1" stroke="grey" d="M 100.00 120.00 L 173.72 121.77" />
  <path stroke-width="1" stroke="grey" d="M 100.00 120.00 L 172.57 123.57" />
  <path stroke-width="1" stroke="grey" d="M 100.00 120.00 L 34.45 124.41" />
  <path stroke-width="1" stroke="grey" d="M 100.00 120.00 L 26.54 126.23" />
  <path stroke-width="1" stroke="grey" d="M 100.00 120.00 L 62.93 124.84" />
  <path stroke-width="1" stroke="grey" d="M 100.00 120.00 L 64.55 129.63" />
  <path stroke-width="1" stroke="grey" d="M 100.00 120.00 L 82.03 125.86" />
  <path stroke-width="1" stroke="grey" d="M 100.00 120.00 L 87.61 139.30" />
  <path stroke-width="1" stroke="grey" d="M 12.02 228.80 L 29.25 238.63" />
  <path stroke-width="1" stroke="grey" d="M 12.02 228.80 L 50.39 242.79" />
  <path stroke-width="1" stroke="grey" d="M 12.02 228.80 L 112.33 202.28" />
  <path stroke-width="1" stroke="grey" d="M 12.02 228.80 L -58.53 212.00" />
  <path stroke-width="1" stroke="grey" d="M 12.02 228.80 L -57.09 226.50" />
  <path stroke-width="1" stroke="grey" d="M 12.02 228.80 L -72.64 222.92" />
  <path stroke-width="1" stroke="grey" d="M 12.02 228.80 L -81.66 207.54" />
  <path stroke-width="1" stroke="grey" d="M 12.02 228.80 L -57.35 215.01" />
  <path stroke-width="1" stroke="grey" d="M 12.02 228.80 L -54.11 220.39" />
  <path stroke-width="1" stroke="grey" d="M 12.02 228.80 L -51.16 232.84" />
  <path stroke-width="1" stroke="grey" d="M 12.02 228.80 L -31.56 233.43" />
  <path stroke-width="1" stroke="grey" d="M 12.02 228.80 L 28.16 230.70" />
  <path stroke-width="1" stroke="grey" d="M 12.02 228.80 L 28.88 230.40" />
  <path stroke-width="1" stroke="grey" d="M 12.02 228.80 L -31.62 230.15" />
  <path stroke-width="1" stroke="grey" d="M 12.02 228.80 L 84.35 305.41" />
  <path stroke-width="1" stroke="grey" d="M 12.02 228.80 L 62.89 283.67" />
  <path stroke-width="1" stroke="grey" d="M 12.02 228.80 L 68.86 294.96" />
  <path stroke-width="1" stroke="grey" d="M 12.02 228.80 L 71.80 306.25" />
  <path stroke-width="1" stroke="grey" d="M 12.02 228.80 L 62.42 305.29" />
  <path stroke-width="1" stroke="grey" d="M 12.02 228.80 L 53.37 300.88" />
  <path stroke-width="1" stroke="grey" d="M 12.02 228.80 L 37.65 279.82" />
  <path stroke-width="1" stroke="grey" d="M 12.02 228.80 L 49.31 277.33" />
  <path stroke-width="1" stroke="grey" d="M 12.02 228.80 L 38.44 282.47" />
  <path stroke-width="1" stroke="grey" d="M 12.02 228.80 L 87.97 334.33" />
  <path stroke-width="1" stroke="grey" d="M 169.41 371.27 L 197.27 375.86" />
  <path stroke-width="1" stroke="grey" d="M 169.41 371.27 L 118.45 371.53" />
  <path stroke-width="1" stroke="grey" d="M 169.41 371.27 L 94.09 366.08" />
  <path stroke-width="1" stroke="grey" d="M 169.41 371.27 L 124.11 358.24" />
  <path stroke-width="1" stroke="grey" d="M 169.41 371.27 L 119.34 348.22" />
  <path stroke-width="1" stroke="grey" d="M 169.41 371.27 L 95.34 350.16" />
  <path stroke-width="1" stroke="grey" d="M 169.41 371.27 L 89.73 357.15" />
  <path stroke-width="1" stroke="grey" d="M 169.41 371.27 L 64.87 373.43" />
  <path stroke-width="1" stroke="grey" d="M 169.41 371.27 L 63.22 385.33" />
  <path stroke-width="1" stroke="grey" d="M 169.41 371.27 L 62.08 385.58" />
  <path stroke-width="1" stroke="grey" d="M 169.41 371.27 L 120.03 381.04" />
  <path stroke-width="1" stroke="grey" d="M 169.41 371.27 L 118.77 390.43" />
  <path stroke-width="1" stroke="grey" d="M 169.41 371.27 L 198.38 384.58" />
  <path stroke-width="1" stroke="grey" d="M 169.41 371.27 L 198.71 386.54" />
  <path stroke-width="1" stroke="grey" d="M 169.41 371.27 L 200.52 385.03" />
  <path stroke-width="1" stroke="grey" d="M 240.14 415.79 L 181.67 396.40" />
  <path stroke-width="1" stroke="grey" d="M 240.14 415.79 L 177.04 391.83" />
  <path stroke-width="1" stroke="grey" d="M 240.14 415.79 L 287.52 398.26" />
  <path stroke-width="1" stroke="grey" d="M 240.14 415.79 L 318.33 409.29" />
  <path stroke-width="1" stroke="grey" d="M 240.14 415.79 L 358.16 409.95" />
  <path stroke-width="1" stroke="grey" d="M 240.14 415.79 L 373.90 414.77" />
  <path stroke-width="1" stroke="grey" d="M 240.14 415.79 L 345.21 417.08" />
  <path stroke-width="1" stroke="grey" d="M 240.14 415.79 L 322.60 411.39" />
  <path stroke-width="1" stroke="grey" d="M 240.14 415.79 L 156.10 403.21" />
  <path stroke-width="1" stroke="grey" d="M 240.14 415.79 L 201.57 396.21" />
  <path stroke-width="1" stroke="grey" d="M 240.14 415.79 L 213.05 391.66" />
  <path stroke-width="1" stroke="grey" d="M 240.14 415.79 L 213.21 392.45" />
  <path stroke-width="1" stroke="grey" d="M 422.94 440.95 L 358.55 430.97" />
  <path stroke-width="1" stroke="grey" d="M 422.94 440.95 L 471.79 437.74" />
  <path stroke-width="1" stroke="grey" d="M 422.94 440.95 L 470.96 439.66" />
  <path stroke-width="1" stroke="grey" d="M 422.94 440.95 L 478.41 443.71" />
  <path stroke-width="1" stroke="grey" d="M 422.94 440.95 L 481.20 456.97" />
  <path stroke-width="1" stroke="grey" d="M 422.94 440.95 L 493.01 450.36" />
  <path stroke-width="1" stroke="grey" d="M 422.94 440.95 L 481.68 433.75" />
  <path stroke-width="1" stroke="grey" d="M 422.94 440.95 L 467.54 424.79" />
  <path stroke-width="1" stroke="grey" d="M 422.94 440.95 L 394.81 429.81" />
  <path stroke-width="1" stroke="grey" d="M 422.94 440.95 L 379.81 427.02" />
  <path stroke-width="1" stroke="grey" d="M 422.94 440.95 L 369.51 423.99" />
  <path stroke-width="1" stroke="grey" d="M 485.37 463.14 L 509.62 477.60" />
  <path stroke-width="1" stroke="grey" d="M 485.37 463.14 L 501.77 466.36" />
  <path stroke-width="1" stroke="grey" d="M 485.37 463.14 L 470.46 460.85" />
  <path stroke-width="1" stroke="grey" d="M 485.37 463.14 L 466.26 465.39" />
  <path stroke-width="1" stroke="grey" d="M 485.37 463.14 L 499.68 472.56" />
  <path stroke-width="1" stroke="grey" d="M 485.37 463.14 L 509.53 481.45" />
  <path stroke-width="1" stroke="grey" d="M 485.37 463.14 L 515.30 485.66" />
  <path stroke-width="1" stroke="grey" d="M 526.79 502.79 L 506.87 501.16" />
  <path stroke-width="1" stroke="grey" d="M 526.79 502.79 L 510.63 500.66" />
  <path stroke-width="1" stroke="grey" d="M 526.79 502.79 L 510.82 497.75" />
  <path stroke-width="1" stroke="grey" d="M 526.79 502.79 L 517.07 502.12" />
  <path stroke-width="1" stroke="grey" d="M 526.79 502.79 L 533.45 500.28" />
  <path stroke-width="1" stroke="grey" d="M 619.19 495.09 L 531.08 504.60" />
  <path stroke-width="1" stroke="grey" d="M 619.19 495.09 L 553.80 505.02" />
  <path stroke-width="1" stroke="grey" d="M 619.19 495.09 L 652.68 505.74" />
  <path stroke-width="1" stroke="grey" d="M 619.19 495.09 L 661.56 503.10" />
  <path stroke-width="1" stroke="grey" d="M 619.19 495.09 L 681.70 506.94" />
  <path stroke-width="1" stroke="grey" d="M 619.19 495.09 L 702.36 508.08" />
  <path stroke-width="1" stroke="grey" d="M 619.19 495.09 L 567.45 498.65" />
  <path stroke-width="1" stroke="grey" d="M 619.19 495.09 L 573.29 490.00" />
  <path stroke-width="1" stroke="grey" d="M 619.19 495.09 L 569.80 489.23" />
  <path stroke-width="1" stroke="grey" d="M 619.19 495.09 L 603.47 494.38" />
  <path stroke-width="1" stroke="grey" d="M 619.19 495.09 L 648.20 497.11" />
  <path stroke-width="1" stroke="grey" d="M 619.19 495.09 L 683.24 502.36" />
  <path stroke-width="1" stroke="grey" d="M 619.19 495.09 L 690.46 509.01" />
  <path stroke-width="1" stroke="grey" d="M 727.49 519.95 L 735.18 519.19" />
  <path stroke-width="1" stroke="grey" d="M 727.49 519.95 L 709.53 517.59" />
  <path stroke-width="1" stroke="grey" d="M 727.49 519.95 L 704.83 515.71" />
  <path stroke-width="1" stroke="grey" d="M 727.49 519.95 L 764.01 524.68" />
  <path stroke-width="1" stroke="grey" d="M 727.49 519.95 L 759.44 524.12" />
  <path stroke-width="1" stroke="grey" d="M 727.49 519.95 L 684.44 521.34" />
  <path stroke-width="1" stroke="grey" d="M 727.49 519.95 L 684.02 519.02" />
  <path stroke-width="1" stroke="grey" d="M 794.61 503.47 L 753.95 509.33" />
  <path stroke-width="1" stroke="grey" d="M 794.61 503.47 L 826.84 505.40" />
  <path stroke-width="1" stroke="grey" d="M 794.61 503.47 L 859.23 497.80" />
  <path stroke-width="1" stroke="grey" d="M 794.61 503.47 L 973.53 487.61" />
  <path stroke-width="1" stroke="grey" d="M 794.61 503.47 L 938.62 475.90" />
  <path stroke-width="1" stroke="grey" d="M 794.61 503.47 L 936.04 464.34" />
  <path stroke-width="1" stroke="grey" d="M 794.61 503.47 L 943.22 473.82" />
  <path stroke-width="1" stroke="grey" d="M 794.61 503.47 L 972.57 479.80" />
  <path stroke-width="1" stroke="grey" d="M 794.61 503.47 L 951.41 485.32" />
  <path stroke-width="1" stroke="grey" d="M 794.61 503.47 L 931.89 502.66" />
  <path stroke-width="1" stroke="grey" d="M 794.61 503.47 L 922.82 497.96" />
  <path stroke-width="1" stroke="grey" d="M 794.61 503.47 L 896.08 513.10" />
  <path stroke-width="1" stroke="grey" d="M 794.61 503.47 L 855.80 504.80" />
  <path stroke-width="1" stroke="grey" d="M 794.61 503.47 L 762.73 498.96" />
  <path stroke-width="1" stroke="grey" d="M 794.61 503.47 L 759.87 492.76" />
  <path stroke-width="1" stroke="grey" d="M 794.61 503.47 L 741.69 492.25" />
  <path stroke-width="1" stroke="grey" d="M 794.61 503.47 L 733.90 507.36" />
  <path stroke-width="1" stroke="grey" d="M 794.61 503.47 L 846.97 407.29" />
  <path stroke-width="1" stroke="grey" d="M 794.61 503.47 L 848.64 430.21" />
  <path stroke-width="1" stroke="grey" d="M 794.61 503.47 L 836.64 391.75" />
  <path stroke-width="1" stroke="grey" d="M 794.61 503.47 L 844.38 447.63" />
  <path stroke-width="1" stroke="grey" d="M 794.61 503.47 L 792.74 465.05" />
  <path stroke-width="1" stroke="grey" d="M 794.61 503.47 L 1022.61 429.55" />
  <path stroke-width="1" stroke="grey" d="M 794.61 503.47 L 1030.39 428.52" />
  <path stroke-width="1" stroke="grey" d="M 794.61 503.47 L 1017.44 433.41" />
  <path stroke-width="1" stroke="grey" d="M 794.61 503.47 L 983.45 443.86" />
  <path stroke-width="1" stroke="grey" d="M 874.17 499.85 L 944.26 482.18" />
  <path stroke-width="1" stroke="grey" d="M 874.17 499.85 L 967.14 486.25" />
  <path stroke-width="1" stroke="grey" d="M 874.17 499.85 L 963.15 496.10" />
  <path stroke-width="1" stroke="grey" d="M 874.17 499.85 L 966.26 501.07" />
  <path stroke-width="1" stroke="grey" d="M 874.17 499.85 L 824.91 502.89" />
  <path stroke-width="1" stroke="grey" d="M 874.17 499.85 L 854.32 498.19" />
  <path stroke-width="1" stroke="grey" d="M 874.17 499.85 L 827.98 499.25" />
  <path stroke-width="1" stroke="grey" d="M 974.80 509.89 L 1011.59 464.23" />
  <path stroke-width="1" stroke="grey" d="M 974.80 509.89 L 982.30 461.67" />
  <path stroke-width="1" stroke="grey" d="M 974.80 509.89 L 953.91 459.36" />
  <path stroke-width="1" stroke="grey" d="M 974.80 509.89 L 918.56 479.27" />
  <path stroke-width="1" stroke="grey" d="M 974.80 509.89 L 906.08 508.02" />
  <path stroke-width="1" stroke="grey" d="M 925.30 508.13 L 874.67 551.97" />
  <path stroke-width="1" stroke="grey" d="M 925.30 508.13 L 878.04 534.78" />
  <path stroke-width="1" stroke="grey" d="M 925.30 508.13 L 862.16 521.98" />
  <path stroke-width="1" stroke="grey" d="M 925.30 508.13 L 865.84 521.19" />
  <path stroke-width="1" stroke="grey" d="M 925.30 508.13 L 848.56 511.11" />
  <path stroke-width="1" stroke="grey" d="M 925.30 508.13 L 834.36 502.44" />
  <path stroke-width="1" stroke="grey" d="M 925.30 508.13 L 890.51 536.23" />
  <path stroke-width="1" stroke="grey" d="M 925.30 508.13 L 913.42 521.67" />
  <path stroke-width="1" stroke="grey" d="M 925.30 508.13 L 935.56 511.18" />
  <path stroke-width="1" stroke="grey" d="M 925.30 508.13 L 952.21 505.49" />
  <path stroke-width="1" stroke="grey" d="M 925.30 508.13 L 968.06 515.78" />
  <path stroke-width="1" stroke="grey" d="M 925.30 508.13 L 971.74 511.98" />
  <path stroke-width="1" stroke="grey" d="M 925.30 508.13 L 977.28 508.63" />
  <path stroke-width="1" stroke="grey" d="M 700.45 595.79 L 683.22 591.74" />
  <path stroke-width="1" stroke="grey" d="M 700.45 595.79 L 664.13 591.41" />
  <path stroke-width="1" stroke="grey" d="M 700.45 595.79 L 758.28 595.32" />
  <path stroke-width="1" stroke="grey" d="M 700.45 595.79 L 798.40 606.52" />
  <path stroke-width="1" stroke="grey" d="M 700.45 595.79 L 797.79 577.42" />
  <path stroke-width="1" stroke="grey" d="M 700.45 595.79 L 743.29 584.31" />
  <path stroke-width="1" stroke="grey" d="M 700.45 595.79 L 729.44 585.22" />
  <path stroke-width="1" stroke="grey" d="M 700.45 595.79 L 720.74 579.70" />
  <path stroke-width="1" stroke="grey" d="M 587.10 518.46 L 533.39 565.65" />
  <path stroke-width="1" stroke="grey" d="M 587.10 518.46 L 558.66 539.40" />
  <path stroke-width="1" stroke="grey" d="M 587.10 518.46 L 551.28 542.35" />
  <path stroke-width="1" stroke="grey" d="M 587.10 518.46 L 556.52 523.78" />
  <path stroke-width="1" stroke="grey" d="M 587.10 518.46 L 653.40 516.79" />
  <path stroke-width="1" stroke="grey" d="M 587.10 518.46 L 646.62 517.63" />
  <path stroke-width="1" stroke="grey" d="M 587.10 518.46 L 686.16 538.39" />
  <path stroke-width="1" stroke="grey" d="M 587.10 518.46 L 685.22 558.68" />
  <path stroke-width="1" stroke="grey" d="M 587.10 518.46 L 635.25 563.11" />
  <path stroke-width="1" stroke="grey" d="M 587.10 518.46 L 632.76 550.90" />
  <path stroke-width="1" stroke="grey" d="M 587.10 518.46 L 646.93 543.41" />
  <path stroke-width="1" stroke="grey" d="M 587.10 518.46 L 697.52 567.61" />
  <path stroke-width="1" stroke="grey" d="M 587.10 518.46 L 704.67 576.35" />
  <path stroke-width="1" stroke="grey" d="M 488.88 605.91 L 460.77 609.82" />
  <path stroke-width="1" stroke="grey" d="M 488.88 605.91 L 433.88 627.25" />
  <path stroke-width="1" stroke="grey" d="M 992.82 447.08 L 1029.24 432.10" />
  <path stroke-width="1" stroke="grey" d="M 992.82 447.08 L 1014.10 423.72" />
  <path stroke-width="1" stroke="grey" d="M 992.82 447.08 L 1036.96 428.47" />
  <path stroke-width="1" stroke="grey" d="M 992.82 447.08 L 945.74 435.26" />
  <path stroke-width="1" stroke="grey" d="M 992.82 447.08 L 944.10 430.51" />
  <path stroke-width="1" stroke="grey" d="M 1042.63 551.49 L 943.12 538.11" />
  <path stroke-width="1" stroke="grey" d="M 1042.63 551.49 L 999.41 550.86" />
  <path stroke-width="1" stroke="grey" d="M 1042.63 551.49 L 1010.30 554.19" />
  <path stroke-width="1" stroke="grey" d="M 1042.63 551.49 L 1003.04 555.97" />
  <path stroke-width="1" stroke="grey" d="M 1042.63 551.49 L 1141.38 573.59" />
  <path stroke-width="1" stroke="grey" d="M 1042.63 551.49 L 1213.15 589.20" />
  <path stroke-width="1" stroke="grey" d="M 1042.63 551.49 L 963.85 524.54" />
  <path stroke-width="1" stroke="grey" d="M 1042.63 551.49 L 1108.15 527.53" />
  <path stroke-width="1" stroke="grey" d="M 1042.63 551.49 L 1108.11 528.20" />
  <path stroke-width="1" stroke="grey" d="M 1042.63 551.49 L 1070.80 538.94" />
  <path stroke-width="1" stroke="grey" d="M 1042.63 551.49 L 1069.51 543.57" />
  <path stroke-width="1" stroke="grey" d="M 1042.63 551.49 L 1104.11 540.06" />
  <path stroke-width="1" stroke="grey" d="M 1042.63 551.49 L 1199.89 551.83" />
  <path stroke-width="1" stroke="grey" d="M 1195.32 601.49 L 1107.68 584.13" />
  <path stroke-width="1" stroke="grey" d="M 1195.32 601.49 L 1168.72 597.09" />
  <path stroke-width="1" stroke="grey" d="M 1195.32 601.49 L 1063.16 564.21" />
  <path stroke-width="1" stroke="grey" d="M 1195.32 601.49 L 1044.90 563.02" />
  <path stroke-width="1" stroke="grey" d="M 1195.32 601.49 L 1122.86 587.19" />
  <path stroke-width="1" stroke="grey" d="M 1195.32 601.49 L 1121.44 596.65" />
  <path stroke-width="1" stroke="grey" d="M 1195.32 601.49 L 1241.85 586.91" />
  <path stroke-width="1" stroke="grey" d="M 1195.32 601.49 L 1293.71 554.68" />
  <path stroke-width="1" stroke="grey" d="M 1195.32 601.49 L 1423.45 482.49" />
  <path stroke-width="1" stroke="grey" d="M 1195.32 601.49 L 1319.73 544.07" />
  <path stroke-width="1" stroke="grey" d="M 1195.32 601.49 L 1320.44 581.02" />
  <path stroke-width="1" stroke="grey" d="M 1195.32 601.49 L 1047.21 521.48" />
  <path stroke-width="1" stroke="grey" d="M 1195.32 601.49 L 1096.11 504.45" />
  <path stroke-width="1" stroke="grey" d="M 1195.32 601.49 L 1141.64 383.81" />
  <path stroke-width="1" stroke="grey" d="M 1195.32 601.49 L 1059.26 294.07" />
  <path stroke-width="1" stroke="grey" d="M 1195.32 601.49 L 1160.22 308.08" />
  <path stroke-width="1" stroke="grey" d="M 1258.58 622.63 L 1305.93 767.97" />
  <path stroke-width="1" stroke="grey" d="M 1258.58 622.63 L 1157.39 770.24" />
  <path stroke-width="1" stroke="grey" d="M 1258.58 622.63 L 1137.12 778.82" />
  <path stroke-width="1" stroke="grey" d="M 1258.58 622.63 L 1182.20 734.50" />
  <path stroke-width="1" stroke="grey" d="M 1347.70 519.64 L 1371.08 519.30" />
  <path stroke-width="1" stroke="grey" d="M 1347.70 519.64 L 1399.06 516.72" />
  <path stroke-width="1" stroke="grey" d="M 1347.70 519.64 L 1320.59 490.01" />
  <path stroke-width="1" stroke="grey" d="M 1347.70 519.64 L 1405.02 486.71" />
  <path stroke-width="1" stroke="grey" d="M 1419.96 511.09 L 1390.05 518.22" />
  <path stroke-width="1" stroke="grey" d="M 1419.96 511.09 L 1396.16 511.11" />
  <path stroke-width="1" stroke="grey" d="M 1419.96 511.09 L 1448.72 506.07" />
  <path stroke-width="1" stroke="grey" d="M 1419.96 511.09 L 1482.97 494.26" />
  <path stroke-width="1" stroke="grey" d="M 1419.96 511.09 L 1486.79 498.14" />
  <path stroke-width="1" stroke="grey" d="M 1419.96 511.09 L 1349.41 498.05" />
  <path stroke-width="1" stroke="grey" d="M 1419.96 511.09 L 1348.80 494.79" />
  <path stroke-width="1" stroke="grey" d="M 1419.96 511.09 L 1378.88 502.25" />
  <path stroke-width="1" stroke="grey" d="M 1419.96 511.09 L 1379.98 513.00" />
  <path stroke-width="1" stroke="grey" d="M 1419.96 511.09 L 1469.30 521.47" />
  <path stroke-width="1" stroke="grey" d="M 1419.96 511.09 L 1490.24 521.26" />
  <path stroke-width="1" stroke="grey" d="M 1490.98 518.43 L 1467.81 508.97" />
  <path stroke-width="1" stroke="grey" d="M 1490.98 518.43 L 1518.98 494.89" />
  <path stroke-width="1" stroke="grey" d="M 1490.98 518.43 L 1539.21 495.79" />
  <path stroke-width="1" stroke="grey" d="M 1490.98 518.43 L 1537.72 490.59" />
  <path stroke-width="1" stroke="grey" d="M 1586.21 473.22 L 1529.30 459.75" />
  <path stroke-width="1" stroke="grey" d="M 1586.21 473.22 L 1537.53 449.57" />
  <path stroke-width="1" stroke="grey" d="M 1586.21 473.22 L 1518.74 431.89" />
  <path stroke-width="1" stroke="grey" d="M 1586.21 473.22 L 1648.81 431.78" />
  <path stroke-width="1" stroke="grey" d="M 1586.21 473.22 L 1670.18 429.13" />
  <path stroke-width="1" stroke="grey" d="M 1586.21 473.22 L 1671.29 435.61" />
  <path stroke-width="1" stroke="grey" d="M 1586.21 473.22 L 1534.12 480.69" />
  <path stroke-width="1" stroke="grey" d="M 1586.21 473.22 L 1652.66 447.20" />
  <path stroke-width="1" stroke="grey" d="M 1586.21 473.22 L 1663.56 431.76" />
  <path stroke-width="1" stroke="grey" d="M 1586.21 473.22 L 1635.87 456.14" />
  <path stroke-width="1" stroke="grey" d="M 1672.79 446.35 L 1727.17 438.36" />
  <path stroke-width="1" stroke="grey" d="M 1672.79 446.35 L 1716.43 433.54" />
  <path stroke-width="1" stroke="grey" d="M 1672.79 446.35 L 1729.68 435.81" />
  <path stroke-width="1" stroke="grey" d="M 1672.79 446.35 L 1704.89 427.79" />
  <path stroke-width="1" stroke="grey" d="M 1783.73 432.58 L 1807.38 435.38" />
  <path stroke-width="1" stroke="grey" d="M 1783.73 432.58 L 1809.73 435.03" />
  <path stroke-width="1" stroke="grey" d="M 1783.73 432.58 L 1854.59 427.09" />
  <path stroke-width="1" stroke="grey" d="M 1783.73 432.58 L 1856.52 411.29" />
  <path stroke-width="1" stroke="grey" d="M 1783.73 432.58 L 1859.98 404.11" />
  <path stroke-width="1" stroke="grey" d="M 1783.73 432.58 L 1866.12 404.77" />
  <path stroke-width="1" stroke="grey" d="M 1783.73 432.58 L 1850.34 417.68" />
  <path stroke-width="1" stroke="grey" d="M 1783.73 432.58 L 1823.57 432.69" />
  <path stroke-width="1" stroke="grey" d="M 1872.92 395.77 L 1854.01 398.86" />
  <path stroke-width="1" stroke="grey" d="M 1872.92 395.77 L 1865.44 395.93" />
  <path stroke-width="1" stroke="grey" d="M 1872.92 395.77 L 1909.37 382.75" />
  <path stroke-width="1" stroke="grey" d="M 1872.92 395.77 L 1936.81 363.10" />
  <path stroke-width="1" stroke="grey" d="M 1872.92 395.77 L 1890.10 381.43" />
  <path stroke-width="1" stroke="grey" d="M 1872.92 395.77 L 1921.94 359.52" />
  <path stroke-width="1" stroke="grey" d="M 1872.92 395.77 L 1921.05 359.11" />
  <path stroke-width="1" stroke="grey" d="M 1925.40 371.24 L 1938.24 373.41" />
  <path stroke-width="1" stroke="grey" d="M 1925.40 371.24 L 1944.35 366.41" />
  <path stroke-width="1" stroke="grey" d="M 1925.40 371.24 L 1882.24 357.28" />
  <path stroke-width="1" stroke="grey" d="M 1925.40 371.24 L 1867.52 348.84" />
  <path stroke-width="1" stroke="grey" d="M 1925.40 371.24 L 1894.60 363.98" />
  <path stroke-width="1" stroke="grey" d="M 1925.40 371.24 L 1877.51 381.52" />
  <path stroke-width="1" stroke="grey" d="M 1925.40 371.24 L 1960.15 372.58" />
  <path stroke-width="1" stroke="grey" d="M 1925.40 371.24 L 1872.46 356.86" />
  <path stroke-width="1" stroke="grey" d="M 1925.40 371.24 L 1867.36 354.66" />
  <path stroke-width="1" stroke="grey" d="M 1925.40 371.24 L 1882.16 373.81" />
  <path stroke-width="1" stroke="grey" d="M 64.75 392.60 L 35.10 369.70" />
  <path stroke-width="1" stroke="grey" d="M 64.75 392.60 L 25.72 355.46" />
  <path stroke-width="1" stroke="grey" d="M 64.75 392.60 L 129.51 349.51" />
  <path stroke-width="1" stroke="grey" d="M 64.75 392.60 L 111.61 367.48" />
  <path stroke-width="1" stroke="grey" d="M 64.75 392.60 L 92.37 384.63" />
</g>
  <path stroke="#ff0000" stroke-width="2" fill="none" d="M 116.20 119.40 L 125.30 117.88 L 133.04 117.88 L 140.08 120.92 L 147.66 122.43 L 151.45 129.26 L 154.41 136.39 L 159.25 142.75 L 165.95 147.93 L 171.92 153.15" />
  <path stroke="#ff0000" stroke-width="2" fill="none" d="M 34.30 51.88 L 34.30 61.13 L 33.54 68.95 L 35.17 77.13 L 35.06 85.96 L 34.30 94.23 L 35.44 102.33 L 32.79 110.19 L 29.75 117.19 L 26.72 124.96 L 25.20 132.48" />
  <path stroke="#ff0000" stroke-width="2" fill="none" d="M 29.00 133.05 L 27.35 140.90 L 23.64 149.09 L 19.72 156.17 L 12.47 160.36 L 6.20 164.96 L 1.34 172.47 L -2.92 179.40 L -9.43 183.38 L -16.50 186.41 L -23.62 189.19 L -31.29 189.19 L -38.96 187.67 L -45.63 183.57 L -55.14 180.48 L -62.11 177.05" />
  <path stroke="#ff0000" stroke-width="2" fill="none" d="M -77.16 163.40 L -71.35 170.22 L -64.63 176.69 L -54.79 179.71 L -47.35 182.60" />
  <path stroke="#ff0000" stroke-width="2" fill="none" d="M -90.34 207.80 L -82.01 212.91 L -76.70 221.44 L -70.37 227.65 L -62.71 228.28 L -54.60 227.52 L -46.74 229.80 L -38.55 232.89" />
<!-- point blocks -->
<g transform="translate(100.03,86.37),scale(10),rotate(0.00)" 
 style="fill:none;stroke:#ffcc66;stroke-width:0.1" >
<path d="M -1.75 1.00 L 2.00 1.25 L 1.75 -1.25 L -1.25 -1.50 L -1.75 -1.00 L -1.75 1.00 L -1.50 0.50 L -1.25 -0.50 L -1.00 -1.00 L 1.25 -0.75 L 1.75 -1.25 M -1.00 -1.00 L -1.25 -1.50 "/> 
</g>
<!-- point blocks -->
<g transform="translate(-89.11,200.97),scale(10),rotate(0.00)" 
 style="fill:none;stroke:#ffcc66;stroke-width:0.1" >
<path d="M -1.75 1.00 L 2.00 1.25 L 1.75 -1.25 L -1.25 -1.50 L -1.75 -1.00 L -1.75 1.00 L -1.50 0.50 L -1.25 -0.50 L -1.00 -1.00 L 1.25 -0.75 L 1.75 -1.25 M -1.00 -1.00 L -1.25 -1.50 "/> 
</g>
<!-- point blocks -->
<g transform="translate(-93.37,199.83),scale(10),rotate(0.00)" 
 style="fill:none;stroke:#ffcc66;stroke-width:0.1" >
<path d="M -1.75 1.00 L 2.00 1.25 L 1.75 -1.25 L -1.25 -1.50 L -1.75 -1.00 L -1.75 1.00 L -1.50 0.50 L -1.25 -0.50 L -1.00 -1.00 L 1.25 -0.75 L 1.75 -1.25 M -1.00 -1.00 L -1.25 -1.50 "/> 
</g>
<!-- point blocks -->
<g transform="translate(-91.86,180.56),scale(10),rotate(0.00)" 
 style="fill:none;stroke:#ffcc66;stroke-width:0.1" >
<path d="M -1.75 1.00 L 2.00 1.25 L 1.75 -1.25 L -1.25 -1.50 L -1.75 -1.00 L -1.75 1.00 L -1.50 0.50 L -1.25 -0.50 L -1.00 -1.00 L 1.25 -0.75 L 1.75 -1.25 M -1.00 -1.00 L -1.25 -1.50 "/> 
</g>
<!-- point blocks -->
<g transform="translate(-80.48,166.07),scale(10),rotate(0.00)" 
 style="fill:none;stroke:#ffcc66;stroke-width:0.1" >
<path d="M -1.75 1.00 L 2.00 1.25 L 1.75 -1.25 L -1.25 -1.50 L -1.75 -1.00 L -1.75 1.00 L -1.50 0.50 L -1.25 -0.50 L -1.00 -1.00 L 1.25 -0.75 L 1.75 -1.25 M -1.00 -1.00 L -1.25 -1.50 "/> 
</g>
<!-- point blocks -->
<g transform="translate(-87.37,193.73),scale(10),rotate(0.00)" 
 style="fill:none;stroke:#ffcc66;stroke-width:0.1" >
<path d="M -1.75 1.00 L 2.00 1.25 L 1.75 -1.25 L -1.25 -1.50 L -1.75 -1.00 L -1.75 1.00 L -1.50 0.50 L -1.25 -0.50 L -1.00 -1.00 L 1.25 -0.75 L 1.75 -1.25 M -1.00 -1.00 L -1.25 -1.50 "/> 
</g>
  <path stroke="#ff0000" stroke-width="2" fill="none" d="M 110.13 122.43 L 109.37 130.07 L 107.85 138.23 L 104.82 145.36 L 101.03 152.14 L 93.91 156.86 L 86.78 161.43 L 81.12 168.14 L 77.52 175.04 L 72.73 181.09 L 69.74 188.64 L 65.96 196.21 L 61.78 202.85 L 55.35 208.34 L 50.79 215.18 L 47.57 222.95" />
  <path stroke="#ff0000" stroke-width="2" fill="none" d="M 47.57 222.95 L 46.68 240.87 L 46.15 255.97 L 52.59 261.66" />
  <path stroke="#ff0000" stroke-width="2" fill="none" d="M 52.59 261.66 L 66.44 271.71 L 78.87 281.50 L 88.87 294.05 L 97.31 308.29 L 103.77 322.73" />
  <path stroke="#ff0000" stroke-width="2" fill="none" d="M 103.77 322.73 L 120.08 330.31 L 132.76 339.11 L 147.61 345.41" />
  <path stroke="#ff0000" stroke-width="2" fill="none" d="M 147.61 345.41 L 163.21 357.92 L 176.56 367.85 L 190.69 374.23 L 205.41 378.78" />
  <path stroke="#ff0000" stroke-width="2" fill="none" d="M 245.10 384.09 L 259.06 375.13 L 264.82 359.59 L 270.88 345.60 L 282.26 339.78" />
  <path stroke="#ff0000" stroke-width="2" fill="none" d="M 282.26 339.78 L 304.22 345.88 L 325.10 346.92 L 342.54 345.40 L 356.82 350.96 L 372.11 356.78" />
  <path stroke="#ff0000" stroke-width="2" fill="none" d="M 205.41 378.78 L 227.80 381.81 L 243.21 379.91" />
  <path stroke="#ff0000" stroke-width="2" fill="none" d="M -38.55 232.89 L -22.00 243.67 L -11.17 251.99" />
  <path stroke="#ff0000" stroke-width="2" fill="none" d="M -11.17 251.99 L 4.54 260.49 L 17.78 274.88 L 29.65 288.32 L 39.30 300.64 L 53.66 308.50 L 60.00 321.02" />
  <path stroke="#ff0000" stroke-width="2" fill="none" d="M 60.00 321.02 L 70.33 331.34 L 84.42 337.49 L 97.91 347.46" />
  <path stroke="#ff0000" stroke-width="2" fill="none" d="M 97.91 347.46 L 104.97 362.50 L 119.42 375.42 L 136.85 379.60 L 153.16 385.29 L 163.02 389.46" />
  <path stroke="#ff0000" stroke-width="2" fill="none" d="M 163.02 389.46 L 183.44 395.15 L 194.80 406.12 L 210.79 412.98 L 227.78 417.68 L 240.69 421.50" />
<!-- point debris -->
<g transform="translate(-78.11,225.46),scale(10),rotate(0.00)" 
 style="fill:none;stroke:#ffcc66;stroke-width:0.1" >
<path d="M 0.00 0.00 L 1.00 0.25 L 0.50 -0.75 L 0.00 0.00 L -1.00 0.00 L -0.50 -1.00 L 0.00 0.00 "/> 
</g>
<!-- point debris -->
<g transform="translate(-59.53,235.84),scale(10),rotate(0.00)" 
 style="fill:none;stroke:#ffcc66;stroke-width:0.1" >
<path d="M 0.00 0.00 L 1.00 0.25 L 0.50 -0.75 L 0.00 0.00 L -1.00 0.00 L -0.50 -1.00 L 0.00 0.00 "/> 
</g>
<!-- point debris -->
<g transform="translate(-32.62,238.87),scale(10),rotate(0.00)" 
 style="fill:none;stroke:#ffcc66;stroke-width:0.1" >
<path d="M 0.00 0.00 L 1.00 0.25 L 0.50 -0.75 L 0.00 0.00 L -1.00 0.00 L -0.50 -1.00 L 0.00 0.00 "/> 
</g>
<!-- point debris -->
<g transform="translate(-18.21,244.18),scale(10),rotate(0.00)" 
 style="fill:none;stroke:#ffcc66;stroke-width:0.1" >
<path d="M 0.00 0.00 L 1.00 0.25 L 0.50 -0.75 L 0.00 0.00 L -1.00 0.00 L -0.50 -1.00 L 0.00 0.00 "/> 
</g>
<!-- point debris -->
<g transform="translate(84.76,353.11),scale(10),rotate(0.00)" 
 style="fill:none;stroke:#ffcc66;stroke-width:0.1" >
<path d="M 0.00 0.00 L 1.00 0.25 L 0.50 -0.75 L 0.00 0.00 L -1.00 0.00 L -0.50 -1.00 L 0.00 0.00 "/> 
</g>
<!-- point debris -->
<g transform="translate(75.94,342.93),scale(10),rotate(0.00)" 
 style="fill:none;stroke:#ffcc66;stroke-width:0.1" >
<path d="M 0.00 0.00 L 1.00 0.25 L 0.50 -0.75 L 0.00 0.00 L -1.00 0.00 L -0.50 -1.00 L 0.00 0.00 "/> 
</g>
<!-- point debris -->
<g transform="translate(91.41,365.67),scale(10),rotate(0.00)" 
 style="fill:none;stroke:#ffcc66;stroke-width:0.1" >
<path d="M 0.00 0.00 L 1.00 0.25 L 0.50 -0.75 L 0.00 0.00 L -1.00 0.00 L -0.50 -1.00 L 0.00 0.00 "/> 
</g>
<!-- point debris -->
<g transform="translate(107.67,379.22),scale(10),rotate(0.00)" 
 style="fill:none;stroke:#ffcc66;stroke-width:0.1" >
<path d="M 0.00 0.00 L 1.00 0.25 L 0.50 -0.75 L 0.00 0.00 L -1.00 0.00 L -0.50 -1.00 L 0.00 0.00 "/> 
</g>
<!-- point debris -->
<g transform="translate(161.50,405.77),scale(10),rotate(0.00)" 
 style="fill:none;stroke:#ffcc66;stroke-width:0.1" >
<path d="M 0.00 0.00 L 1.00 0.25 L 0.50 -0.75 L 0.00 0.00 L -1.00 0.00 L -0.50 -1.00 L 0.00 0.00 "/> 
</g>
<!-- point debris -->
<g transform="translate(175.32,407.29),scale(10),rotate(0.00)" 
 style="fill:none;stroke:#ffcc66;stroke-width:0.1" >
<path d="M 0.00 0.00 L 1.00 0.25 L 0.50 -0.75 L 0.00 0.00 L -1.00 0.00 L -0.50 -1.00 L 0.00 0.00 "/> 
</g>
<!-- point debris -->
<g transform="translate(136.48,389.84),scale(10),rotate(0.00)" 
 style="fill:none;stroke:#ffcc66;stroke-width:0.1" >
<path d="M 0.00 0.00 L 1.00 0.25 L 0.50 -0.75 L 0.00 0.00 L -1.00 0.00 L -0.50 -1.00 L 0.00 0.00 "/> 
</g>
<!-- point debris -->
<g transform="translate(202.13,425.07),scale(10),rotate(0.00)" 
 style="fill:none;stroke:#ffcc66;stroke-width:0.1" >
<path d="M 0.00 0.00 L 1.00 0.25 L 0.50 -0.75 L 0.00 0.00 L -1.00 0.00 L -0.50 -1.00 L 0.00 0.00 "/> 
</g>
<!-- point debris -->
<g transform="translate(226.99,430.19),scale(10),rotate(0.00)" 
 style="fill:none;stroke:#ffcc66;stroke-width:0.1" >
<path d="M 0.00 0.00 L 1.00 0.25 L 0.50 -0.75 L 0.00 0.00 L -1.00 0.00 L -0.50 -1.00 L 0.00 0.00 "/> 
</g>
<!-- point debris -->
<g transform="translate(238.30,433.94),scale(10),rotate(0.00)" 
 style="fill:none;stroke:#ffcc66;stroke-width:0.1" >
<path d="M 0.00 0.00 L 1.00 0.25 L 0.50 -0.75 L 0.00 0.00 L -1.00 0.00 L -0.50 -1.00 L 0.00 0.00 "/> 
</g>
  <path stroke="#ff0000" stroke-width="2" fill="none" d="M 372.43 362.58 L 375.84 369.96 L 380.18 376.38 L 381.51 384.39 L 381.51 392.18 L 380.76 399.77 L 388.41 401.94 L 396.13 402.70 L 404.26 402.70 L 410.40 407.24 L 416.98 411.02 L 423.95 414.87 L 431.63 417.92 L 439.35 419.35 L 446.71 422.38 L 453.63 426.40 L 462.07 428.99 L 468.76 433.96" />
  <path stroke="#ff0000" stroke-width="2" fill="none" d="M 249.10 425.41 L 253.87 431.92 L 260.13 438.11 L 267.84 440.88 L 275.94 442.06 L 285.42 444.33 L 293.37 442.82 L 301.31 442.06 L 310.74 442.61 L 318.50 442.82 L 326.42 441.30 L 334.81 439.79 L 342.64 440.55 L 350.80 441.30 L 358.20 439.65 L 365.99 439.03 L 373.57 438.27 L 382.93 439.36 L 390.33 442.82 L 398.39 444.33 L 405.89 445.84 L 414.29 446.60 L 422.15 446.60" />
  <path stroke="#ff0000" stroke-width="2" fill="none" d="M 472.31 433.73 L 477.61 440.92 L 485.76 443.97 L 491.50 449.15 L 498.59 455.21 L 504.09 460.61 L 511.05 465.68 L 513.92 473.85 L 517.71 480.71 L 524.52 484.83 L 532.38 485.21" />
  <path stroke="#ff0000" stroke-width="2" fill="none" d="M 532.08 488.24 L 538.14 482.94 L 545.32 479.53 L 552.14 475.11 L 555.07 467.42 L 561.59 459.47 L 569.10 454.69 L 576.86 451.01 L 584.67 448.87 L 594.50 448.87 L 603.77 450.39 L 611.91 451.14 L 621.06 450.39 L 632.64 451.23 L 641.14 451.90 L 648.87 453.55" />
  <path stroke="#ff0000" stroke-width="2" fill="none" d="M 492.74 489.25 L 493.90 500.75 L 500.28 505.38 L 508.09 507.27 L 515.98 509.43 L 523.78 511.52 L 532.36 513.22 L 540.26 512.46 L 548.11 509.43 L 555.78 507.92 L 564.52 508.67 L 572.94 509.43 L 580.07 512.03 L 588.63 511.70 L 597.36 511.70 L 605.48 511.70 L 613.41 511.70 L 621.22 511.70 L 632.82 511.72 L 640.96 511.22" />
<!-- point debris -->
<g transform="translate(256.79,454.80),scale(10),rotate(0.00)" 
 style="fill:none;stroke:#ffcc66;stroke-width:0.1" >
<path d="M 0.00 0.00 L 1.00 0.25 L 0.50 -0.75 L 0.00 0.00 L -1.00 0.00 L -0.50 -1.00 L 0.00 0.00 "/> 
</g>
<!-- point debris -->
<g transform="translate(304.74,457.02),scale(10),rotate(0.00)" 
 style="fill:none;stroke:#ffcc66;stroke-width:0.1" >
<path d="M 0.00 0.00 L 1.00 0.25 L 0.50 -0.75 L 0.00 0.00 L -1.00 0.00 L -0.50 -1.00 L 0.00 0.00 "/> 
</g>
<!-- point debris -->
<g transform="translate(347.12,454.75),scale(10),rotate(0.00)" 
 style="fill:none;stroke:#ffcc66;stroke-width:0.1" >
<path d="M 0.00 0.00 L 1.00 0.25 L 0.50 -0.75 L 0.00 0.00 L -1.00 0.00 L -0.50 -1.00 L 0.00 0.00 "/> 
</g>
<!-- point debris -->
<g transform="translate(381.29,458.53),scale(10),rotate(0.00)" 
 style="fill:none;stroke:#ffcc66;stroke-width:0.1" >
<path d="M 0.00 0.00 L 1.00 0.25 L 0.50 -0.75 L 0.00 0.00 L -1.00 0.00 L -0.50 -1.00 L 0.00 0.00 "/> 
</g>
<!-- point debris -->
<g transform="translate(422.96,462.89),scale(10),rotate(0.00)" 
 style="fill:none;stroke:#ffcc66;stroke-width:0.1" >
<path d="M 0.00 0.00 L 1.00 0.25 L 0.50 -0.75 L 0.00 0.00 L -1.00 0.00 L -0.50 -1.00 L 0.00 0.00 "/> 
</g>
<!-- point debris -->
<g transform="translate(502.03,518.34),scale(10),rotate(0.00)" 
 style="fill:none;stroke:#ffcc66;stroke-width:0.1" >
<path d="M 0.00 0.00 L 1.00 0.25 L 0.50 -0.75 L 0.00 0.00 L -1.00 0.00 L -0.50 -1.00 L 0.00 0.00 "/> 
</g>
<!-- point debris -->
<g transform="translate(541.26,528.93),scale(10),rotate(0.00)" 
 style="fill:none;stroke:#ffcc66;stroke-width:0.1" >
<path d="M 0.00 0.00 L 1.00 0.25 L 0.50 -0.75 L 0.00 0.00 L -1.00 0.00 L -0.50 -1.00 L 0.00 0.00 "/> 
</g>
<!-- point debris -->
<g transform="translate(587.89,528.41),scale(10),rotate(0.00)" 
 style="fill:none;stroke:#ffcc66;stroke-width:0.1" >
<path d="M 0.00 0.00 L 1.00 0.25 L 0.50 -0.75 L 0.00 0.00 L -1.00 0.00 L -0.50 -1.00 L 0.00 0.00 "/> 
</g>
<!-- point debris -->
<g transform="translate(628.87,530.45),scale(10),rotate(0.00)" 
 style="fill:none;stroke:#ffcc66;stroke-width:0.1" >
<path d="M 0.00 0.00 L 1.00 0.25 L 0.50 -0.75 L 0.00 0.00 L -1.00 0.00 L -0.50 -1.00 L 0.00 0.00 "/> 
</g>
<!-- point debris -->
<g transform="translate(657.33,534.99),scale(10),rotate(0.00)" 
 style="fill:none;stroke:#ffcc66;stroke-width:0.1" >
<path d="M 0.00 0.00 L 1.00 0.25 L 0.50 -0.75 L 0.00 0.00 L -1.00 0.00 L -0.50 -1.00 L 0.00 0.00 "/> 
</g>
  <path stroke="#ff0000" stroke-width="2" fill="none" d="M 640.96 511.22 L 653.63 513.76 L 668.54 516.82 L 688.97 522.12 L 703.08 528.90 L 711.05 531.00" />
  <path stroke="#ff0000" stroke-width="2" fill="none" d="M 711.05 531.00 L 715.04 529.46 L 731.88 525.45 L 749.12 527.80 L 765.86 530.07 L 782.04 522.12 L 796.41 515.31 L 813.93 514.18 L 831.31 516.68 L 847.50 520.24 L 860.33 520.23" />
  <path stroke="#ff0000" stroke-width="2" fill="none" d="M 648.87 453.55 L 667.50 467.33 L 683.30 472.92 L 699.45 474.81 L 714.42 480.21" />
  <path stroke="#ff0000" stroke-width="2" fill="none" d="M 714.42 480.21 L 734.45 480.87 L 752.33 479.35 L 769.17 477.46 L 783.28 476.22" />
  <path stroke="#ff0000" stroke-width="2" fill="none" d="M 484.79 485.84 L 492.74 489.25" />
<!-- point debris -->
<g transform="translate(466.90,486.54),scale(10),rotate(0.00)" 
 style="fill:none;stroke:#ffcc66;stroke-width:0.1" >
<path d="M 0.00 0.00 L 1.00 0.25 L 0.50 -0.75 L 0.00 0.00 L -1.00 0.00 L -0.50 -1.00 L 0.00 0.00 "/> 
</g>
  <path stroke="#ff0000" stroke-width="2" fill="none" d="M 422.15 446.60 L 434.65 452.72 L 441.98 455.27 L 448.60 459.97 L 456.74 466.14 L 464.03 470.11 L 469.21 476.05 L 475.20 481.42 L 484.79 485.84 L 492.74 489.25" />
  <path stroke="#ff0000" stroke-width="2" fill="none" d="M 783.28 476.22 L 793.71 465.14 L 804.30 452.21 L 814.51 439.34 L 822.02 425.83 L 824.94 409.39 L 827.75 393.92 L 828.51 378.40" />
  <path stroke="#ff0000" stroke-width="2" fill="none" d="M 842.89 392.41 L 838.05 383.17 L 837.59 373.29" />
<!-- point continuation -->
<g transform="translate(831.73,350.02),scale(10),rotate(0.00)" 
 style="fill:none;stroke:#ff3333;stroke-width:0.1" >
<path d="M 0.00 0.75 L 0.00 0.00 C 0.00 -0.25 0.25 -0.50 0.50 -0.75 C 0.75 -1.00 0.25 -1.50 0.00 -1.50 C -0.25 -1.50 -0.75 -0.75 -0.75 -1.00 M 0.00 1.75 L 0.00 1.25 "/> 
</g>
<!-- point blocks -->
<g transform="translate(799.06,509.04),scale(10),rotate(0.00)" 
 style="fill:none;stroke:#ffcc66;stroke-width:0.1" >
<path d="M -1.75 1.00 L 2.00 1.25 L 1.75 -1.25 L -1.25 -1.50 L -1.75 -1.00 L -1.75 1.00 L -1.50 0.50 L -1.25 -0.50 L -1.00 -1.00 L 1.25 -0.75 L 1.75 -1.25 M -1.00 -1.00 L -1.25 -1.50 "/> 
</g>
<!-- point blocks -->
<g transform="translate(829.27,510.50),scale(10),rotate(0.00)" 
 style="fill:none;stroke:#ffcc66;stroke-width:0.1" >
<path d="M -1.75 1.00 L 2.00 1.25 L 1.75 -1.25 L -1.25 -1.50 L -1.75 -1.00 L -1.75 1.00 L -1.50 0.50 L -1.25 -0.50 L -1.00 -1.00 L 1.25 -0.75 L 1.75 -1.25 M -1.00 -1.00 L -1.25 -1.50 "/> 
</g>
<!-- point blocks -->
<g transform="translate(855.86,512.01),scale(10),rotate(0.00)" 
 style="fill:none;stroke:#ffcc66;stroke-width:0.1" >
<path d="M -1.75 1.00 L 2.00 1.25 L 1.75 -1.25 L -1.25 -1.50 L -1.75 -1.00 L -1.75 1.00 L -1.50 0.50 L -1.25 -0.50 L -1.00 -1.00 L 1.25 -0.75 L 1.75 -1.25 M -1.00 -1.00 L -1.25 -1.50 "/> 
</g>
<!-- point blocks -->
<g transform="translate(884.61,512.01),scale(10),rotate(0.00)" 
 style="fill:none;stroke:#ffcc66;stroke-width:0.1" >
<path d="M -1.75 1.00 L 2.00 1.25 L 1.75 -1.25 L -1.25 -1.50 L -1.75 -1.00 L -1.75 1.00 L -1.50 0.50 L -1.25 -0.50 L -1.00 -1.00 L 1.25 -0.75 L 1.75 -1.25 M -1.00 -1.00 L -1.25 -1.50 "/> 
</g>
  <path stroke="#ff0000" stroke-width="2" fill="none" d="M 874.22 441.61 L 890.68 441.61" />
  <path stroke="#ff0000" stroke-width="2" fill="none" d="M 842.89 392.41 L 842.89 408.88 L 848.18 424.87 L 859.34 436.11 L 874.22 441.61 L 890.68 441.61" />
  <path stroke="#ff0000" stroke-width="2" fill="none" d="M 892.07 443.88 L 907.96 446.91 L 925.13 452.21 L 939.27 459.32 L 956.57 460.54 L 973.58 462.71 L 990.34 474.07 L 1000.64 476.43" />
  <path stroke="#ff0000" stroke-width="2" fill="none" d="M 860.33 520.23 L 878.42 517.16 L 898.23 515.79 L 915.83 515.04 L 929.14 515.79" />
  <path stroke="#ff0000" stroke-width="2" fill="none" d="M 929.14 515.79 L 949.48 517.03 L 968.82 520.34 L 985.29 520.34 L 1002.19 515.79 L 1010.34 516.55" />
<!-- point blocks -->
<g transform="translate(927.10,514.17),scale(10),rotate(0.00)" 
 style="fill:none;stroke:#ffcc66;stroke-width:0.1" >
<path d="M -1.75 1.00 L 2.00 1.25 L 1.75 -1.25 L -1.25 -1.50 L -1.75 -1.00 L -1.75 1.00 L -1.50 0.50 L -1.25 -0.50 L -1.00 -1.00 L 1.25 -0.75 L 1.75 -1.25 M -1.00 -1.00 L -1.25 -1.50 "/> 
</g>
<!-- point blocks -->
<g transform="translate(954.11,512.01),scale(10),rotate(0.00)" 
 style="fill:none;stroke:#ffcc66;stroke-width:0.1" >
<path d="M -1.75 1.00 L 2.00 1.25 L 1.75 -1.25 L -1.25 -1.50 L -1.75 -1.00 L -1.75 1.00 L -1.50 0.50 L -1.25 -0.50 L -1.00 -1.00 L 1.25 -0.75 L 1.75 -1.25 M -1.00 -1.00 L -1.25 -1.50 "/> 
</g>
  <path stroke="#ff0000" stroke-width="2" fill="none" d="M 871.12 518.53 L 864.90 524.34 L 858.48 528.37 L 852.34 533.53 L 847.89 540.04 L 842.54 547.12 L 835.81 553.10 L 830.44 559.99 L 825.93 566.56 L 821.41 572.81 L 814.06 575.62 L 805.91 575.30 L 797.60 573.79 L 789.98 573.03 L 782.27 570.76 L 773.86 570.00 L 766.09 567.87 L 758.94 564.98 L 749.74 564.70 L 741.49 563.95 L 731.15 563.19 L 721.56 563.31 L 713.51 560.67 L 705.66 559.40 L 698.09 559.40" />
  <path stroke="#ff0000" stroke-width="2" fill="none" d="M 930.90 531.40 L 923.10 532.91 L 915.86 537.79 L 912.27 545.20 L 906.54 551.93 L 901.27 558.12 L 896.09 564.70 L 891.72 571.93 L 886.15 578.38 L 880.36 583.63 L 874.73 589.86 L 870.24 596.62 L 864.92 602.71 L 857.93 606.34 L 851.83 612.01 L 843.55 613.01 L 834.27 614.66 L 826.23 615.42 L 818.05 616.18 L 810.33 617.95 L 801.51 619.21 L 792.99 619.96 L 785.04 619.21 L 773.79 619.96 L 765.81 619.96 L 756.40 619.96 L 748.01 619.96 L 740.22 616.93 L 732.59 615.42 L 724.85 614.66 L 717.27 613.91 L 709.47 615.42 L 700.57 615.42 L 692.16 613.24 L 683.74 610.25 L 675.58 606.55 L 664.81 606.34" />
  <path stroke="#ff0000" stroke-width="2" fill="none" d="M 664.81 606.34 L 656.09 597.08 L 639.40 591.36 L 626.39 582.64 L 619.47 567.28 L 609.11 554.32 L 597.65 543.45 L 586.41 541.24" />
  <path stroke="#ff0000" stroke-width="2" fill="none" d="M 586.41 541.24 L 572.44 555.04 L 563.33 568.49 L 550.28 577.86 L 536.09 586.85 L 522.40 598.46 L 508.88 609.36 L 499.30 616.93" />
  <path stroke="#ff0000" stroke-width="2" fill="none" d="M 499.30 616.93 L 486.51 619.97 L 469.69 625.50 L 453.99 631.32 L 437.26 635.90 L 420.98 641.40" />
  <path stroke="#ff0000" stroke-width="2" fill="none" d="M 420.98 641.40 L 429.52 617.96 L 442.69 609.36 L 459.79 607.72 L 475.46 603.79 L 487.83 593.96 L 499.88 581.91 L 513.72 571.05 L 524.74 558.27 L 537.78 549.01 L 548.19 537.08 L 561.44 526.10 L 575.03 515.89" />
  <path stroke="#ff0000" stroke-width="2" fill="none" d="M 575.03 515.89 L 582.48 507.63 L 600.74 503.39 L 618.34 507.17 L 634.94 509.48 L 651.76 511.05 L 668.88 519.28 L 680.80 529.69 L 692.44 539.82 L 700.89 554.43 L 710.82 560.49" />
<!-- point debris -->
<g transform="translate(456.00,642.67),scale(10),rotate(0.00)" 
 style="fill:none;stroke:#ffcc66;stroke-width:0.1" >
<path d="M 0.00 0.00 L 1.00 0.25 L 0.50 -0.75 L 0.00 0.00 L -1.00 0.00 L -0.50 -1.00 L 0.00 0.00 "/> 
</g>
<!-- point debris -->
<g transform="translate(500.27,622.35),scale(10),rotate(0.00)" 
 style="fill:none;stroke:#ffcc66;stroke-width:0.1" >
<path d="M 0.00 0.00 L 1.00 0.25 L 0.50 -0.75 L 0.00 0.00 L -1.00 0.00 L -0.50 -1.00 L 0.00 0.00 "/> 
</g>
<!-- point debris -->
<g transform="translate(563.83,575.07),scale(10),rotate(0.00)" 
 style="fill:none;stroke:#ffcc66;stroke-width:0.1" >
<path d="M 0.00 0.00 L 1.00 0.25 L 0.50 -0.75 L 0.00 0.00 L -1.00 0.00 L -0.50 -1.00 L 0.00 0.00 "/> 
</g>
<!-- point debris -->
<g transform="translate(599.27,550.65),scale(10),rotate(0.00)" 
 style="fill:none;stroke:#ffcc66;stroke-width:0.1" >
<path d="M 0.00 0.00 L 1.00 0.25 L 0.50 -0.75 L 0.00 0.00 L -1.00 0.00 L -0.50 -1.00 L 0.00 0.00 "/> 
</g>
<!-- point debris -->
<g transform="translate(663.00,624.50),scale(10),rotate(0.00)" 
 style="fill:none;stroke:#ffcc66;stroke-width:0.1" >
<path d="M 0.00 0.00 L 1.00 0.25 L 0.50 -0.75 L 0.00 0.00 L -1.00 0.00 L -0.50 -1.00 L 0.00 0.00 "/> 
</g>
<!-- point debris -->
<g transform="translate(718.73,626.38),scale(10),rotate(0.00)" 
 style="fill:none;stroke:#ffcc66;stroke-width:0.1" >
<path d="M 0.00 0.00 L 1.00 0.25 L 0.50 -0.75 L 0.00 0.00 L -1.00 0.00 L -0.50 -1.00 L 0.00 0.00 "/> 
</g>
<!-- point debris -->
<g transform="translate(771.99,635.10),scale(10),rotate(0.00)" 
 style="fill:none;stroke:#ffcc66;stroke-width:0.1" >
<path d="M 0.00 0.00 L 1.00 0.25 L 0.50 -0.75 L 0.00 0.00 L -1.00 0.00 L -0.50 -1.00 L 0.00 0.00 "/> 
</g>
<!-- point debris -->
<g transform="translate(825.75,632.83),scale(10),rotate(0.00)" 
 style="fill:none;stroke:#ffcc66;stroke-width:0.1" >
<path d="M 0.00 0.00 L 1.00 0.25 L 0.50 -0.75 L 0.00 0.00 L -1.00 0.00 L -0.50 -1.00 L 0.00 0.00 "/> 
</g>
<!-- point debris -->
<g transform="translate(886.52,615.42),scale(10),rotate(0.00)" 
 style="fill:none;stroke:#ffcc66;stroke-width:0.1" >
<path d="M 0.00 0.00 L 1.00 0.25 L 0.50 -0.75 L 0.00 0.00 L -1.00 0.00 L -0.50 -1.00 L 0.00 0.00 "/> 
</g>
<!-- point debris -->
<g transform="translate(923.22,558.34),scale(10),rotate(0.00)" 
 style="fill:none;stroke:#ffcc66;stroke-width:0.1" >
<path d="M 0.00 0.00 L 1.00 0.25 L 0.50 -0.75 L 0.00 0.00 L -1.00 0.00 L -0.50 -1.00 L 0.00 0.00 "/> 
</g>
<!-- point debris -->
<g transform="translate(941.71,539.72),scale(10),rotate(0.00)" 
 style="fill:none;stroke:#ffcc66;stroke-width:0.1" >
<path d="M 0.00 0.00 L 1.00 0.25 L 0.50 -0.75 L 0.00 0.00 L -1.00 0.00 L -0.50 -1.00 L 0.00 0.00 "/> 
</g>
<!-- point clay -->
<g transform="translate(508.07,622.90),scale(10),rotate(0.00)" 
 style="fill:none;stroke:#ffcc66;stroke-width:0.1" >
<path d="M -1.50 0.00 C -1.50 -0.25 -1.00 -0.75 -0.75 -0.75 C -0.50 -0.75 0.00 -0.25 0.00 0.00 C 0.00 0.25 0.50 0.75 0.75 0.75 C 1.00 0.75 1.50 0.25 1.50 0.00 "/> 
</g>
<!-- point blocks -->
<g transform="translate(611.73,571.75),scale(10),rotate(0.00)" 
 style="fill:none;stroke:#ffcc66;stroke-width:0.1" >
<path d="M -1.75 1.00 L 2.00 1.25 L 1.75 -1.25 L -1.25 -1.50 L -1.75 -1.00 L -1.75 1.00 L -1.50 0.50 L -1.25 -0.50 L -1.00 -1.00 L 1.25 -0.75 L 1.75 -1.25 M -1.00 -1.00 L -1.25 -1.50 "/> 
</g>
<!-- point blocks -->
<g transform="translate(643.65,608.75),scale(10),rotate(0.00)" 
 style="fill:none;stroke:#ffcc66;stroke-width:0.1" >
<path d="M -1.75 1.00 L 2.00 1.25 L 1.75 -1.25 L -1.25 -1.50 L -1.75 -1.00 L -1.75 1.00 L -1.50 0.50 L -1.25 -0.50 L -1.00 -1.00 L 1.25 -0.75 L 1.75 -1.25 M -1.00 -1.00 L -1.25 -1.50 "/> 
</g>
<!-- point blocks -->
<g transform="translate(746.52,629.80),scale(10),rotate(0.00)" 
 style="fill:none;stroke:#ffcc66;stroke-width:0.1" >
<path d="M -1.75 1.00 L 2.00 1.25 L 1.75 -1.25 L -1.25 -1.50 L -1.75 -1.00 L -1.75 1.00 L -1.50 0.50 L -1.25 -0.50 L -1.00 -1.00 L 1.25 -0.75 L 1.75 -1.25 M -1.00 -1.00 L -1.25 -1.50 "/> 
</g>
  <path stroke="#ff0000" stroke-width="2" fill="none" d="M 1038.90 512.81 L 1054.03 519.24 L 1069.86 525.15 L 1087.04 530.97 L 1102.46 534.76 L 1120.73 535.51 L 1136.83 534.76 L 1152.71 534.76 L 1155.66 542.09 L 1168.52 530.74 L 1177.11 515.29 L 1180.63 497.49 L 1181.38 480.50 L 1178.36 460.86 L 1168.52 444.06 L 1164.36 426.27 L 1163.23 408.57 L 1163.98 389.58 L 1166.04 371.85 L 1167.77 355.55 L 1172.78 338.55 L 1179.11 322.53 L 1189.71 310.83 L 1202.76 296.45 L 1211.24 280.03 L 1217.95 265.30" />
  <path stroke="#ff0000" stroke-width="2" fill="none" d="M 960.97 548.38 L 976.86 544.98 L 999.04 543.08 L 1017.32 550.04 L 1032.50 554.58 L 1050.04 561.43 L 1067.54 566.90 L 1087.07 573.28 L 1102.53 577.68 L 1117.59 582.45" />
  <path stroke="#ff0000" stroke-width="2" fill="none" d="M 1117.59 582.45 L 1135.43 586.07 L 1152.29 589.44 L 1160.21 592.54" />
  <path stroke="#ff0000" stroke-width="2" fill="none" d="M 1267.64 270.33 L 1267.26 287.36 L 1268.69 306.34 L 1268.40 325.36 L 1269.91 342.18 L 1272.18 360.42 L 1275.58 376.69 L 1283.91 391.45 L 1288.96 402.93" />
<!-- point continuation -->
<g transform="translate(1250.31,235.51),scale(10),rotate(0.00)" 
 style="fill:none;stroke:#ff3333;stroke-width:0.1" >
<path d="M 0.00 0.75 L 0.00 0.00 C 0.00 -0.25 0.25 -0.50 0.50 -0.75 C 0.75 -1.00 0.25 -1.50 0.00 -1.50 C -0.25 -1.50 -0.75 -0.75 -0.75 -1.00 M 0.00 1.75 L 0.00 1.25 "/> 
</g>
  <path stroke="#ff0000" stroke-width="2" fill="none" d="M 1288.96 402.93 L 1310.55 414.38 L 1331.78 430.36 L 1344.70 452.38 L 1362.08 469.39 L 1380.87 482.36 L 1406.29 484.48 L 1430.49 487.66 L 1451.84 492.43" />
  <path stroke="#ff0000" stroke-width="2" fill="none" d="M 1451.84 492.43 L 1485.67 487.96 L 1510.41 477.06 L 1530.23 468.05 L 1539.23 448.13 L 1555.78 433.81 L 1579.08 430.43 L 1601.08 425.83 L 1623.98 425.66 L 1641.56 424.07" />
  <path stroke="#ff0000" stroke-width="2" fill="none" d="M 1641.56 424.07 L 1664.35 425.13 L 1687.96 429.06 L 1710.42 433.61 L 1735.02 429.37 L 1764.24 425.13 L 1775.45 425.13" />
  <path stroke="#ff0000" stroke-width="2" fill="none" d="M 1775.45 425.13 L 1792.06 410.47 L 1812.53 402.12 L 1833.57 394.80 L 1856.10 388.04 L 1874.73 375.62 L 1886.08 358.37 L 1908.84 353.07 L 1930.45 352.01 L 1952.35 360.49" />
  <path stroke="#ff0000" stroke-width="2" fill="none" d="M 1952.35 360.49 L 1964.54 366.32 L 1992.49 362.61 L 2009.73 352.01" />
  <path stroke="#ff0000" stroke-width="2" fill="none" d="M 1160.21 592.54 L 1179.90 602.50 L 1192.30 618.52 L 1186.66 638.36 L 1175.74 658.33 L 1170.05 680.58 L 1170.05 703.11 L 1166.88 726.31 L 1164.76 752.16 L 1164.44 776.92" />
  <path stroke="#ff0000" stroke-width="2" fill="none" d="M 1164.44 776.92 L 1181.10 782.32 L 1207.09 782.32 L 1232.14 778.80 L 1258.37 779.14 L 1273.40 768.67 L 1276.08 740.74 L 1278.10 712.15 L 1281.28 689.06 L 1275.83 665.59 L 1267.51 644.75 L 1272.53 622.56 L 1284.05 602.97 L 1292.52 582.43 L 1304.77 564.88 L 1319.48 548.04 L 1339.52 535.04 L 1366.19 523.21" />
  <path stroke="#ff0000" stroke-width="2" fill="none" d="M 1366.19 523.21 L 1391.77 534.33 L 1417.81 535.39 L 1441.71 535.39 L 1464.71 534.33 L 1487.49 532.21 L 1512.45 526.91 L 1532.67 519.15 L 1550.66 503.27 L 1568.50 490.88 L 1587.75 479.94 L 1611.23 474.73 L 1625.54 474.98" />
  <path stroke="#ff0000" stroke-width="2" fill="none" d="M 1625.54 474.98 L 1650.40 480.81 L 1677.41 468.10 L 1697.60 457.65 L 1719.67 455.91 L 1741.50 454.85 L 1764.79 458.03 L 1788.11 458.03 L 1809.89 454.78 L 1831.54 446.37 L 1849.57 430.29 L 1873.77 413.32 L 1886.42 409.33" />
  <path stroke="#ff0000" stroke-width="2" fill="none" d="M 1886.42 409.33 L 1894.04 398.15 L 1915.53 387.66 L 1939.43 387.02 L 1962.72 387.02 L 1983.72 381.72 L 2002.86 371.13 L 2014.26 354.70" />
  <path stroke="#ff0000" stroke-width="2" fill="none" d="M 155.76 382.90 L 141.80 382.37 L 130.69 384.23 L 120.62 389.76 L 109.68 392.40 L 99.06 391.34 L 86.97 391.87 L 75.95 396.09 L 64.80 395.56 L 56.70 389.23 L 51.09 380.33 L 50.26 368.52 L 51.32 357.22 L 51.05 344.11 L 51.32 331.44 L 47.89 317.46 L 47.62 305.67 L 47.06 291.40 L 41.96 280.66 L 40.24 268.39 L 38.49 256.28 L 38.13 243.77 L 38.13 232.49 L 37.07 218.97 L 31.69 207.46 L 37.87 198.45 L 45.74 196.94" />
  <path stroke="#ff0000" stroke-width="2" fill="none" d="M 45.74 196.94 L 62.66 206.36 L 68.71 217.69 L 69.46 228.88 L 68.20 240.52 L 68.99 252.01 L 69.78 266.50 L 70.31 280.67 L 71.42 291.24 L 74.53 304.79 L 77.16 319.33 L 79.27 331.51 L 81.91 342.48 L 82.48 353.43 L 91.62 359.52 L 101.93 362.48 L 113.23 360.47" />
</g>
</svg>
