<?xml version="1.0" encoding="utf-8"?>
<!DOCTYPE svg PUBLIC "-//W3C//DTD SVG 1.1//EN" "http://www.w3.org/Graphics/SVG/1.1/DTD/svg11.dtd">
<svg version="1.1" id="Layer_1" xmlns="http://www.w3.org/2000/svg" xmlns:xlink="http://www.w3.org/1999/xlink" x="0px" y="0px" width="100mm" height="60mm" viewBox="0 0 100 60" enable-background="new 0 0 100 60" xml:space="preserve">
<symbol id="airflow" viewBox="-12 -12 24 24">
<path d="M-4.38,10.73l4.2-3.84V3.55L-4.07,7.13l-.31-.29L-.18,3V-6.89a3.37,3.37,0,0,0-1.68.53l1.68-4.15L0-11l.21.51h0v0l1.65,4.1A3.26,3.26,0,0,0,.24-6.89v14l-.08,0L-4.07,11Z"/>
<rect fill="none" x="-12" y="-12" width="24" height="24"/>
</symbol>
<symbol id="anastomosis" viewBox="-12 -12 24 24">
<path d="M2.23-4.78l.37.24L5.22-2.78l-.47.57L2.49-3.7l-4.61,8-.24.44-.37-.34L-5.22,2.3l.55-.52,2.1,1.82L2-4.39Z"/>
<rect fill="none" x="-12" y="-12" width="24" height="24"/>
</symbol>
<symbol id="bivouac" viewBox="-12 -12 24 24">
<path d="M.25-7.66l.24.58L.54-7l3.88.48-3.31.91L6,6H8.35v.48l-16.7.07V6.05h2.64L0-7.08Zm0,1.32L-5.13,6H-4l2.07-5L.2-4l2.09,5L4.37,6H5.44Z"/>
<rect fill="none" x="-12" y="-12" width="24" height="24"/>
</symbol>
<symbol id="bones" viewBox="-12 -12 24 24">
<path d="M2.44,4.27l-.16,0H2.13a.22.22,0,0,1-.11,0l-.1-.06a.39.39,0,0,1-.09-.11l-.08-.13a1.51,1.51,0,0,1-.06-.15l-.07-.17s0-.11-.08-.19-.06-.16-.08-.21a4.75,4.75,0,0,0-.38-.71c-.18-.29-.43-.64-.74-1A11.15,11.15,0,0,0-.7.32,6.73,6.73,0,0,0-2-.64a4.12,4.12,0,0,0-1.44-.52A1.64,1.64,0,0,1-5-2.19.72.72,0,0,1-5-2.44a1,1,0,0,1,0-.29A.52.52,0,0,1-4.87-3a.54.54,0,0,1,.35-.15L-4-3.22l.46,0a.54.54,0,0,0,.27-.06A.52.52,0,0,0-3-3.56a.74.74,0,0,0,.13-.31.54.54,0,0,1,.15-.26.54.54,0,0,1,.3-.15.83.83,0,0,1,.47,0,1.11,1.11,0,0,1,.35.4A7.46,7.46,0,0,1-1-2.76q.18.42.33.72a3.22,3.22,0,0,0,.39.57L.1-1a4.77,4.77,0,0,0,.58.43c.28.18.51.33.69.43l1,.56a1.84,1.84,0,0,0,.39.23A5.29,5.29,0,0,1,3.22.9l.43.26a3.7,3.7,0,0,1,.46.3l.36.29a2.28,2.28,0,0,1,.31.32A1,1,0,0,1,5,2.4c.2.48,0,.78-.47.91h0a8.48,8.48,0,0,0-1.12.09,1,1,0,0,0-.42.44A1,1,0,0,1,2.44,4.27Z"/>
<rect fill="none" x="-12" y="-12" width="24" height="24"/>
</symbol>
<symbol id="calcite" viewBox="-12 -12 24 24">
<path d="M2.36-2.22l.05.46.34,3.91L2,2.22,1.65-1.26-2.52-.06l-.23-.7L1.89-2.08Z"/>
<rect fill="none" x="-12" y="-12" width="24" height="24"/>
</symbol>
<symbol id="cauliflower" viewBox="-12 -12 24 24">
<path d="M5.58,3.22v-3A2.12,2.12,0,0,0,6.92-.43a1.78,1.78,0,0,0,.55-1.32,1.92,1.92,0,0,0-.65-1.42,2.19,2.19,0,0,0-1.53-.59,2.21,2.21,0,0,0-1.54.59,1.78,1.78,0,0,0-.64,1.42A1.86,1.86,0,0,0,3.65-.43,2.12,2.12,0,0,0,5,.23v3H.26v-3A2.17,2.17,0,0,0,1.61-.43a1.81,1.81,0,0,0,.54-1.32,1.91,1.91,0,0,0-.64-1.42A2.21,2.21,0,0,0,0-3.76a2.21,2.21,0,0,0-1.54.59,1.82,1.82,0,0,0-.64,1.42A1.83,1.83,0,0,0-1.66-.43,2.12,2.12,0,0,0-.32.23v3H-5v-3A2.12,2.12,0,0,0-3.71-.43a1.78,1.78,0,0,0,.55-1.32,1.92,1.92,0,0,0-.65-1.42,2.19,2.19,0,0,0-1.53-.59,2.21,2.21,0,0,0-1.54.59,1.83,1.83,0,0,0-.65,1.42A1.87,1.87,0,0,0-7-.43,2.12,2.12,0,0,0-5.64.23v3H-8v.54H8V3.22Z"/>
<rect fill="none" x="-12" y="-12" width="24" height="24"/>
</symbol>
<symbol id="clay" viewBox="-12 -12 24 24">
<path d="M1.85-1.33a3,3,0,0,1,1.67.48,3.23,3.23,0,0,1,1,1l.29.51-1,.43a3.81,3.81,0,0,0-.23-.4A3.74,3.74,0,0,0,2.93,0,1.77,1.77,0,0,0,1.85-.32a2.57,2.57,0,0,0-1.1.15A.86.86,0,0,0,.51.14,2.23,2.23,0,0,1,0,.88a2.55,2.55,0,0,1-1.45.43,3.16,3.16,0,0,1-2.75-1,4.28,4.28,0,0,1-.37-.57,3.91,3.91,0,0,1-.21-.47l0-.16,1-.22a1.87,1.87,0,0,0,.45.79A2.12,2.12,0,0,0-1.51.33,1.82,1.82,0,0,0-.69.14l.21-.36A1.53,1.53,0,0,1,.17-1,3.76,3.76,0,0,1,1.85-1.33Z"/>
<rect fill="none" x="-12" y="-12" width="24" height="24"/>
</symbol>
<symbol id="crystals" viewBox="-12 -12 24 24">
<path d="M-2.94-5.38,0-.72,2.94-5.38,3.62-5,.68-.36H6.56V.36H.68L3.62,5l-.68.36L0,.72-2.94,5.38-3.62,5-.68.36H-6.56V-.36H-.68L-3.62-5Z"/>
<rect fill="none" x="-12" y="-12" width="24" height="24"/>
</symbol>
<symbol id="curtain" viewBox="-12 -12 24 24">
<path d="M3.57-6.69l.52.53L.39-3V-.33L.1-.26a3.79,3.79,0,0,0-1,.41c-.58.3-.87.65-.87,1v.07A1.61,1.61,0,0,0-.84,2.48a3.69,3.69,0,0,0,.45.24L0,2.86l.13.05L.39,3V6.12H-.39V3.51a7.65,7.65,0,0,1-.9-.46A2.19,2.19,0,0,1-2.54,1.28V1.23A2,2,0,0,1-1.31-.48,5.32,5.32,0,0,1-.39-.86V-3l-3.7-3.14.52-.53L0-3.67Z"/>
<rect fill="none" x="-12" y="-12" width="24" height="24"/>
</symbol>
<symbol id="disk" viewBox="-12 -12 24 24">
<path d="M-.09-4.19a2.43,2.43,0,0,1,1.7.64A2,2,0,0,1,2.35-2,2.09,2.09,0,0,1,1.81-.55,2.44,2.44,0,0,1,.35.23l2.18,3.6-.68.33L0,1.14-1.48,4.19l-.71-.29L-.41.25A2.53,2.53,0,0,1-1.9-.47a2,2,0,0,1-.63-1.41,2,2,0,0,1,.67-1.61,2.46,2.46,0,0,1,1.72-.7ZM1.05-3.06.56-3.49l-.69,0A1.72,1.72,0,0,0-1.29-3a1.51,1.51,0,0,0-.45,1.08,1.36,1.36,0,0,0,.51,1A1.68,1.68,0,0,0-.07-.44v0l0,0A1.7,1.7,0,0,0,1.11-.92,1.36,1.36,0,0,0,1.56-2,1.47,1.47,0,0,0,1.05-3.06Z"/>
<rect fill="none" x="-12" y="-12" width="24" height="24"/>
</symbol>
<symbol id="entrance" viewBox="-12 -12 24 24">
<path d="M4.46,9H-4.46L0-9Z"/>
<rect fill="none" x="-12" y="-12" width="24" height="24"/>
</symbol>
<symbol id="flowstone" viewBox="-12 -12 24 24">
<rect x="-6" y="-0.21" width="12" height="0.42"/>
<rect fill="none" x="-12" y="-12" width="24" height="24"/>
</symbol>
<symbol id="flutes" viewBox="-12 -12 24 24">
<path d="M-7-1H7v.72H3.87A4.7,4.7,0,0,1,2.16,1.5,4.2,4.2,0,0,1,0,2.13,3.94,3.94,0,0,1-2.19,1.5,4.18,4.18,0,0,1-3.76-.27H-7Zm4.17.72A3.15,3.15,0,0,0-1.65,1,3.21,3.21,0,0,0,0,1.41,3.49,3.49,0,0,0,1.6,1,3.68,3.68,0,0,0,3-.27Z"/>
<rect fill="none" x="-12" y="-12" width="24" height="24"/>
</symbol>
<symbol id="gradient" viewBox="-12 -12 24 24">
<path d="M2.58-3.83,0-10-2.58-3.83A4.74,4.74,0,0,1-.17-4.5V10H.25V-4.5A6.65,6.65,0,0,1,2.58-3.83Z"/>
<rect fill="none" x="-12" y="-12" width="24" height="24"/>
</symbol>
<symbol id="guano" viewBox="-12 -12 24 24">
<path d="M-3.24-3a2.15,2.15,0,0,1,1.57.55A3.93,3.93,0,0,1-.59.24a4.32,4.32,0,0,1,2.75-2.3,2.68,2.68,0,0,1,2.23.36A2.36,2.36,0,0,1,5.5.19l-.79,0a1.72,1.72,0,0,0-.79-1.37,1.94,1.94,0,0,0-1.55-.24A3.53,3.53,0,0,0,.48,0,6.63,6.63,0,0,0-.69,3l-.79-.09a10.72,10.72,0,0,0,0-3.16A3.21,3.21,0,0,0-2.22-2,1.44,1.44,0,0,0-3.37-2.3,3.45,3.45,0,0,0-5-1.54l-.5-.55a4.29,4.29,0,0,1,2-.91A.9.9,0,0,1-3.24-3Z"/>
<rect fill="none" x="-12" y="-12" width="24" height="24"/>
</symbol>
<symbol id="helictites" viewBox="-12 -12 24 24">
<path d="M-4.59-7.92h.79v7.7l3.41,0V-7.92H.39V-.17L4.2-.12h.39v8H3.8V.6L.39.55V7.92H-.39V.55L-4.2.5l-.39,0v-8.4Z"/>
<rect fill="none" x="-12" y="-12" width="24" height="24"/>
</symbol>
<symbol id="human" viewBox="-12 -12 24 24">
<path d="M-3.59-3.29A5.13,5.13,0,0,1,0-4.66,5.13,5.13,0,0,1,3.59-3.29,4.3,4.3,0,0,1,5.09,0a4.3,4.3,0,0,1-1.5,3.29A5.13,5.13,0,0,1,0,4.66,5.13,5.13,0,0,1-3.59,3.29,4.3,4.3,0,0,1-5.09,0,4.3,4.3,0,0,1-3.59-3.29Zm.28.77A3.68,3.68,0,0,0-4.3,0a3.62,3.62,0,0,0,1,2.57L-.5.05ZM0-3.94A4.42,4.42,0,0,0-2.75-3L.16-.36H4.28A3.62,3.62,0,0,0,2.91-2.9,4.38,4.38,0,0,0,0-3.94ZM.16.46-2.7,3.07A4.42,4.42,0,0,0,0,3.94a4.37,4.37,0,0,0,2.87-1A3.78,3.78,0,0,0,4.28.46Z"/>
<rect fill="none" x="-12" y="-12" width="24" height="24"/>
</symbol>
<symbol id="karren" viewBox="-12 -12 24 24">
<path d="M1-5.84h0a1.37,1.37,0,0,1,1.06.68A3.33,3.33,0,0,1,2.5-3.79,25.79,25.79,0,0,1,2.36,0a18.61,18.61,0,0,0-.08,3.72,2.68,2.68,0,0,0,.41,1.2,1.13,1.13,0,0,0,.79.5A.92.92,0,0,0,4,4.94a4.43,4.43,0,0,0,.47-1.22c.16-.64.36-1.86.59-3.66a26.71,26.71,0,0,1,.64-3.69,4.62,4.62,0,0,1,.57-1.29,1.34,1.34,0,0,1,1-.59h0A1.28,1.28,0,0,1,8.37-5a2.17,2.17,0,0,1,.39,1.15A19.91,19.91,0,0,1,8.54-.53a21.51,21.51,0,0,0-.2,3.64A2.64,2.64,0,0,0,9.45,5.36,1.91,1.91,0,0,0,10.88,5a3.84,3.84,0,0,0,.7-1l.42.2-.1.18-.12.21-.11.18L11.52,5a.94.94,0,0,1-.14.16c-.06.07-.13.12-.19.18a2.5,2.5,0,0,1-1.85.41H9.29l0,0A3.06,3.06,0,0,1,7.87,3.13a22.11,22.11,0,0,1,.2-3.7,18.17,18.17,0,0,0,.22-3.28A1.85,1.85,0,0,0,8-4.79a.77.77,0,0,0-.67-.3.93.93,0,0,0-.64.42,4.51,4.51,0,0,0-.51,1.15A26.26,26.26,0,0,0,5.54.1c-.24,1.83-.45,3.07-.61,3.72a5.38,5.38,0,0,1-.51,1.34,1.33,1.33,0,0,1-.89.68H3.47A1.58,1.58,0,0,1,2.3,5.16a3.29,3.29,0,0,1-.49-1.4A20.27,20.27,0,0,1,1.89,0,23.45,23.45,0,0,0,2-3.75a2.94,2.94,0,0,0-.32-1.19A.93.93,0,0,0,1-5.42,1.1,1.1,0,0,0,.19-5,3.69,3.69,0,0,0-.43-3.76,20.78,20.78,0,0,0-1.07.07c-.2,2-.37,3.32-.49,3.86A4.48,4.48,0,0,1-2,5.26,1.06,1.06,0,0,1-3,5.81h0a1.9,1.9,0,0,1-1.29-.67,2.7,2.7,0,0,1-.58-1.31,14.92,14.92,0,0,1,0-3.6q0-.12.06-.54c0-.28,0-.47,0-.57s0-.28,0-.52,0-.42,0-.55,0-.28,0-.47,0-.36,0-.51,0-.29,0-.43A3.09,3.09,0,0,0-5-4.62a1.19,1.19,0,0,0-.67-.6,1.5,1.5,0,0,0-1.2.9A7,7,0,0,0-7.41-2.1c0,.39-.1,1-.14,1.76s-.11,1.47-.18,2.08A9.61,9.61,0,0,1-8,3.32h0l0,0A2.81,2.81,0,0,1-9.2,4.62a1.82,1.82,0,0,1-1.35.15A1.94,1.94,0,0,1-11.61,4,2.39,2.39,0,0,1-12,2.56l.47,0a1.92,1.92,0,0,0,.31,1.16,1.47,1.47,0,0,0,.81.62,1.3,1.3,0,0,0,1-.11A2.32,2.32,0,0,0-8.5,3.18a7.53,7.53,0,0,0,.29-1.5Q-8.1.8-8-.36c0-.78.1-1.37.16-1.78A7.23,7.23,0,0,1-7.28-4.5,1.93,1.93,0,0,1-5.65-5.66h.05l0,0a1.59,1.59,0,0,1,1,.84,3.47,3.47,0,0,1,.34,1.41,4.91,4.91,0,0,1,0,.57v.54c0,.15,0,.37,0,.66s0,.47,0,.58,0,.33-.06.68,0,.56-.06.63a14.78,14.78,0,0,0,0,3.49,2.58,2.58,0,0,0,.5,1.13,1.57,1.57,0,0,0,1,.5A.61.61,0,0,0-2.44,5,3.89,3.89,0,0,0-2,3.85C-1.9,3.31-1.74,2-1.53,0A20.65,20.65,0,0,1-.86-3.89,3.89,3.89,0,0,1-.18-5.26,1.58,1.58,0,0,1,1-5.84Z"/>
<rect fill="none" x="-12" y="-12" width="24" height="24"/>
</symbol>
<symbol id="moonmilk" viewBox="-12 -12 24 24">
<path d="M-4.78-3.06a3.39,3.39,0,0,1,1.5.34,2.48,2.48,0,0,1,1.1,1,3.74,3.74,0,0,1,1.62-.8,3.52,3.52,0,0,1,1.71,0,2.9,2.9,0,0,1,1.39.77A2.49,2.49,0,0,1,3.25-.37,4,4,0,0,1,5-.76a3.58,3.58,0,0,1,1.6.36A2.84,2.84,0,0,1,7.88.92a2.32,2.32,0,0,1,0,1.88.34.34,0,0,1-.37.26A.36.36,0,0,1,7.25,3a.32.32,0,0,1-.12-.25.21.21,0,0,1,0-.12,2,2,0,0,0,0-1.43,2,2,0,0,0-1-.9A2.81,2.81,0,0,0,4.68,0,2.78,2.78,0,0,0,3.12.56L2.46.25A1.7,1.7,0,0,0,2.15-1.1,2.15,2.15,0,0,0,1-1.81a2.85,2.85,0,0,0-1.58.06A3,3,0,0,0-2-.83l-.71-.12A1.74,1.74,0,0,0-3.55-2a2.36,2.36,0,0,0-1.39-.27,3.08,3.08,0,0,0-1.45.53A2.33,2.33,0,0,0-7.32-.56a.35.35,0,0,1-.37.24A.39.39,0,0,1-8-.42a.33.33,0,0,1-.1-.26v-.1A3,3,0,0,1-6.89-2.35,4,4,0,0,1-5-3Z"/>
<rect fill="none" x="-12" y="-12" width="24" height="24"/>
</symbol>
<symbol id="narrow" viewBox="-12 -12 24 24">
<path d="M-1.5,5V-5h0.64V5H-1.5z"/>
<path d="M0.86,5V-5H1.5V5H0.86z"/>
<rect fill="none" x="-12" y="-12" width="24" height="24"/>
</symbol>
<symbol id="paleoflow" viewBox="-12 -12 24 24">
<path d="M.38-12V.17A1.9,1.9,0,0,0,1,0,1.57,1.57,0,0,0,1.7-.72a1.86,1.86,0,0,0,.23-1c0-.09,0-.14.08-.16a.92.92,0,0,1,.24,0,.52.52,0,0,0,.25,0h.08A2.48,2.48,0,0,1,2,0,2.5,2.5,0,0,1,.38.77V7.21H2.09L0,12-1.8,7.23c.07,0,.59,0,1.53,0V.77A3,3,0,0,1-1.35.43a2.16,2.16,0,0,1-1-1,2.38,2.38,0,0,1-.24-1.33l.67,0a2,2,0,0,0,.15,1,1.73,1.73,0,0,0,.59.67A2.14,2.14,0,0,0-.27.16V-12Z"/>
<rect fill="none" x="-12" y="-12" width="24" height="24"/>
</symbol>
<symbol id="rain" viewBox="-12 -12 24 24">
<path d="M-4.14-6.34h0.71v4.69h-0.71V-6.34z"/>
<path d="M-0.35-6.34h0.71v4.69h-0.71V-6.34z"/>
<path d="M3.43-6.34h0.71v4.69H3.43V-6.34z"/>
<path d="M-4.14,1.65h0.71v4.69h-0.71V1.65z"/>
<path d="M-0.35,1.65h0.71v4.69h-0.71V1.65z"/>
<path d="M3.43,1.65h0.71v4.69H3.43V1.65z"/>
<rect fill="none" x="-12" y="-12" width="24" height="24"/>
</symbol>
<symbol id="rats" viewBox="-12 -12 24 24">
<path d="M8.78-2.32,7-2.27c-.51-.17-.65-.56-1.46-.45l-.25.45C3.59-2.75,2.59-3.66.56-3.62l-1.35.3A4.89,4.89,0,0,0-4.24,1.57c-.68.6-2.58.86-3.39.94a6.84,6.84,0,0,0-1.62.39,4.91,4.91,0,0,0-1,.52A1.75,1.75,0,0,0-11,4.61a1.16,1.16,0,0,0,.59,1.48,1.3,1.3,0,0,1,.14.12c.16-.52-.35-.92-.2-1.42a3.35,3.35,0,0,1,.27-.45,3.18,3.18,0,0,1,1.79-1c.63-.12,1.27-.22,1.91-.3.48-.07,1,0,1.4-.12A6.94,6.94,0,0,1-4,2.82,30.64,30.64,0,0,0,.41,2.69l2.16.15c.1-.09,0,0,.1-.15a.87.87,0,0,0-.9-.55c.86-1,2.27-.37,3.1-.05.5.19,1,0,1.25.4.11-.1.1-.07.15-.25.3,0,.31.07.6.15-.06-.49-.34-.64-1-.6a.78.78,0,0,1,0-.55C6.3.56,7.29.73,8.13.43a13.78,13.78,0,0,0,2.15-.9l.6-.85v-.2A16.9,16.9,0,0,0,8.78-2.32Z"/>
<rect fill="none" x="-12" y="-12" width="24" height="24"/>
</symbol>
<symbol id="sand" viewBox="-12 -12 24 24">
<path d="M-1.58,0.83c0.23,0.2,0.35,0.44,0.36,0.73c0.01,0.29-0.08,0.54-0.28,0.75c-0.2,0.21-0.46,0.32-0.78,0.33c-0.32,0.01-0.6-0.08-0.83-0.26C-3.36,2.19-3.49,1.95-3.5,1.67C-3.51,1.38-3.41,1.12-3.2,0.9c0.21-0.22,0.48-0.34,0.8-0.35C-2.08,0.54-1.81,0.64-1.58,0.83z"/>
<path d="M0.08-2.36c0.23,0.2,0.35,0.44,0.36,0.73c0.01,0.29-0.08,0.54-0.28,0.75c-0.2,0.21-0.46,0.32-0.78,0.33c-0.32,0.01-0.59-0.07-0.83-0.26s-0.37-0.42-0.38-0.71c-0.01-0.29,0.09-0.54,0.3-0.76c0.21-0.22,0.48-0.33,0.8-0.35C-0.42-2.65-0.14-2.56,0.08-2.36z"/>
<path d="M3.12,0.55c0.23,0.2,0.35,0.43,0.38,0.71c0.02,0.28-0.07,0.53-0.28,0.75C3,2.23,2.73,2.35,2.42,2.36C2.1,2.37,1.82,2.28,1.58,2.08C1.34,1.88,1.22,1.64,1.2,1.35c-0.01-0.29,0.09-0.54,0.3-0.75C1.72,0.4,1.99,0.29,2.3,0.28S2.89,0.36,3.12,0.55z"/>
<rect fill="none" x="-12" y="-12" width="24" height="24"/>
</symbol>
<symbol  id="scallops" viewBox="-12 -12 24 24">
<path d="M.05-3.74l.21,0A2.35,2.35,0,0,1,1.74-3a2,2,0,0,1,.59,1.55v0l0,0A9.59,9.59,0,0,1-.08,3.27l-.39.47-.27-.55A14.26,14.26,0,0,1-2.33-1.89v-.05l0-.05A2,2,0,0,1-1.44-3.3,2.42,2.42,0,0,1,.05-3.74ZM-.11-3A1.44,1.44,0,0,0-1.55-1.89,13.06,13.06,0,0,0-.29,2.33,8.6,8.6,0,0,0,1.55-1.54a1.41,1.41,0,0,0-.38-1A1.62,1.62,0,0,0,.18-3Z"/>
<rect fill="none" x="-12" y="-12" width="24" height="24"/>
</symbol>
<symbol  id="sink" viewBox="-12 -12 24 24">
<path d="M.72,9.41H.9c1.94,0,3.26-.54,3.94-1.51a3.61,3.61,0,0,0,.33-.69,2,2,0,0,0,.11-.54V6.46l.69,0a2.8,2.8,0,0,1-.58,1.78C4.58,9.39,3.1,10,.93,10H-.93q-3.25,0-4.46-1.8a2.74,2.74,0,0,1-.43-.83A2.37,2.37,0,0,1-6,6.67V6.43l.68,0A2.27,2.27,0,0,0-4.84,7.9c.68,1,2,1.47,3.93,1.48l.5,0ZM-1.46-10a.68.68,0,0,0,.16.41A2.77,2.77,0,0,0-.51-9l0,0a3.63,3.63,0,0,1,1,.7,1.15,1.15,0,0,1,.34.88c0,.58-.53,1.14-1.49,1.68-.68.42-1,.79-1,1.11s.3.61.84,1h0Q.61-2.86.46-1.78a3.51,3.51,0,0,1-1.55,2,.61.61,0,0,0-.26.41,1.67,1.67,0,0,0,.1.51,5.3,5.3,0,0,1,.32,1L.56,1.9.46,8.06-3.4,2.54l1.73-.28A6.16,6.16,0,0,0-2,1.39,1.7,1.7,0,0,1-2.09.58a1.21,1.21,0,0,1,.53-.82h0v0C-.75-.86-.33-1.38-.28-1.85s-.23-.87-.91-1.27h0C-2-3.6-2.37-4.1-2.4-4.61S-2-5.74-1.09-6.29C-.34-6.72.06-7.1.09-7.44a.67.67,0,0,0-.18-.43,3.17,3.17,0,0,0-.79-.58,2.93,2.93,0,0,1-1-.67A1.16,1.16,0,0,1-2.17-10Z"/>
<rect fill="none" x="-12" y="-12" width="24" height="24"/>
</symbol>
<symbol  id="spring" viewBox="-12 -12 24 24">
<path d="M-1.34-9.86,2.52-4.34.78-4.06a8,8,0,0,0,.29.87,1.4,1.4,0,0,1,.13.79,1.3,1.3,0,0,1-.52.84l0,0v0C-.13-.95-.55-.42-.61,0S-.37.91.31,1.3l0,0c.75.46,1.14,1,1.18,1.46S1.12,3.92.21,4.46C-.54,4.9-.94,5.29-1,5.64a.74.74,0,0,0,.18.43A3.2,3.2,0,0,0,0,6.62a3,3,0,0,1,1,.7,1.14,1.14,0,0,1,.31.86A1.74,1.74,0,0,1,.71,9.26H.92c1.92,0,3.22-.52,3.9-1.51a2.05,2.05,0,0,0,.35-.67,2.59,2.59,0,0,0,.1-.55l0-.19.65,0a2.84,2.84,0,0,1-.55,1.8C4.58,9.26,3.08,9.85.92,9.86H-.92c-2.17,0-3.66-.6-4.49-1.77a3.65,3.65,0,0,1-.4-.85A2.43,2.43,0,0,1-6,6.53V6.29l.66,0a2.08,2.08,0,0,0,.47,1.41c.68,1,2,1.5,3.91,1.51H-.4c.62-.43.94-.8,1-1.1a.76.76,0,0,0-.16-.43,3.25,3.25,0,0,0-.79-.51v0a3.8,3.8,0,0,1-1-.7,1.15,1.15,0,0,1-.34-.91q.06-.84,1.5-1.68c.68-.4,1-.77,1-1.1S.49,2.21,0,1.87c0,0,0,0,0,0C-1,1.32-1.44.69-1.34,0a3.58,3.58,0,0,1,1.55-2,.54.54,0,0,0,.23-.38A1.28,1.28,0,0,0,.37-3a4.57,4.57,0,0,1-.32-1l-1.49.24Z"/>
<rect fill="none" x="-12" y="-12" width="24" height="24"/>
</symbol>
<symbol  id="stalactite" viewBox="-12 -12 24 24">
<path d="M3.57-6.69l.52.53L.39-3V6.12H-.39V-3l-3.7-3.14.52-.53L0-3.67Z"/>
<rect fill="none" x="-12" y="-12" width="24" height="24"/>
</symbol>
<symbol  id="stalagmite" viewBox="-12 -12 24 24">
<path d="M.38-6.42V2.75L4.11,5.89l-.56.53L0,3.4l-3.57,3-.53-.53,3.7-3.14V-6.42Z"/>
<rect fill="none" x="-12" y="-12" width="24" height="24"/>
</symbol>
<symbol  id="stalagnate" viewBox="-12 -12 24 24">
<path d="M3.55-8.46l.56.53L.38-4.78v9L4.11,7.36l-.56.53L0,4.86l-3.57,3-.53-.53,3.7-3.14v-9l-3.7-3.15.53-.53L0-5.43Z"/>
<rect fill="none" x="-12" y="-12" width="24" height="24"/>
</symbol>
<symbol  id="straws" viewBox="-12 -12 24 24">
<path d="M-10.89-2.76H10.89V-2H9.63V.46H8.84V-2H8.29v5.6H7.5V-2H5.56V.7H4.77V-2H2.07V2.38H1.29V-2H-.1v3H-.89V-2H-3.2V4.11H-4V-2H-6.22L-6.16.75l-.79,0L-7-2H-8.32V2.33H-9.1V-2h-1.79Z"/>
<rect fill="none" x="-12" y="-12" width="24" height="24"/>
</symbol>
<symbol  id="water" viewBox="-12 -12 24 24">
<path d="M-1.72-9.86,2.11-4.32.38-4.06a6.49,6.49,0,0,0,.29.89,1.5,1.5,0,0,1,.13.79,1.2,1.2,0,0,1-.5.82h0l0,0C-.54-.94-1-.42-1,.05s.24.89.92,1.27h0c.77.48,1.17,1,1.19,1.49S.71,3.94-.2,4.49c-.75.43-1.13.81-1.15,1.15a.51.51,0,0,0,.18.43,2.66,2.66,0,0,0,.76.58,2.93,2.93,0,0,1,1,.67,1.16,1.16,0,0,1,.29.89C.84,8.75.42,9.3-.41,9.86l-.44-.55c.66-.45,1-.83,1-1.15A.47.47,0,0,0,0,7.75a2.84,2.84,0,0,0-.78-.53h0a3.87,3.87,0,0,1-1-.69,1.24,1.24,0,0,1-.34-.91c0-.58.54-1.14,1.52-1.68.66-.42,1-.79,1-1.11s-.3-.61-.84-1h0Q-1.9,1.06-1.74,0a3.44,3.44,0,0,1,1.54-2,.67.67,0,0,0,.27-.41A1.11,1.11,0,0,0,0-3a4.33,4.33,0,0,1-.31-1l-1.5.24Z"/>
<rect fill="none" x="-12" y="-12" width="24" height="24"/>
</symbol><symbol  id="tree" viewBox="-12 -12 24 24">
<path d="M7.4-5.04A4.271,4.271,0,0,0,7.7-6.627a4.3,4.3,0,0,0-4.3-4.3A4.279,4.279,0,0,0,.636-9.914,4.293,4.293,0,0,0-3.045-12a4.3,4.3,0,0,0-4.3,4.3,4.27,4.27,0,0,0,.421,1.845,4.3,4.3,0,0,0-3.645,4.244,4.3,4.3,0,0,0,4.3,4.3A4.282,4.282,0,0,0-3.946,2L-1.175,5.23h0L-1.612,12H.982L.757,6.376,4.119,2.827v0a4.272,4.272,0,0,0,2.15.58,4.3,4.3,0,0,0,4.3-4.3A4.3,4.3,0,0,0,7.4-5.04ZM-3.346,1.538h0A4.346,4.346,0,0,0-2.7.788a4.266,4.266,0,0,0,1.765.753l-.135,2.087ZM.69,4.7.563,1.544A4.258,4.258,0,0,0,2.321.805,4.3,4.3,0,0,0,3.378,2.279Z"/>
<rect fill="none" x="-12" y="-12" width="24" height="24"/>
</symbol><g>
<desc></desc>
<g>
<line fill="none" stroke="#dddddd" stroke-width="0.1mm" x1="0.00" y1="31.00" x2="100.00" y2="31.00" />
<text x="97.20" y="30.80" font-size=".2mm" fill="#000000">0m</text>
<line fill="none" stroke="#dddddd" stroke-width="0.1mm" x1="0.00" y1="11.00" x2="100.00" y2="11.00" />
<text x="97.20" y="10.80" font-size=".2mm" fill="#000000">10m</text>
<line fill="none" stroke="#dddddd" stroke-width="0.1mm" x1="0.00" y1="51.00" x2="100.00" y2="51.00" />
<text x="97.20" y="50.80" font-size=".2mm" fill="#000000">-10m</text>
<line fill="none" stroke="#dddddd" stroke-width="0.1mm" x1="78.00" y1="0.00" x2="78.00" y2="60.00" />
<text x="78.40" y="2.00" font-size=".2mm" fill="#000000">0m</text>
<line fill="none" stroke="#dddddd" stroke-width="0.1mm" x1="58.00" y1="0.00" x2="58.00" y2="60.00" />
<text x="58.40" y="2.00" font-size=".2mm" fill="#000000">-10m</text>
<line fill="none" stroke="#dddddd" stroke-width="0.1mm" x1="38.00" y1="0.00" x2="38.00" y2="60.00" />
<text x="38.40" y="2.00" font-size=".2mm" fill="#000000">-20m</text>
<line fill="none" stroke="#dddddd" stroke-width="0.1mm" x1="18.00" y1="0.00" x2="18.00" y2="60.00" />
<text x="18.40" y="2.00" font-size=".2mm" fill="#000000">-30m</text>
<line fill="none" stroke="#dddddd" stroke-width="0.1mm" x1="98.00" y1="0.00" x2="98.00" y2="60.00" />
<text x="98.40" y="2.00" font-size=".2mm" fill="#000000">10m</text>
</g>
<g>
<path fill="none" stroke="#000000" stroke-width="0.06mm" d="M69.41942,20.595818 C69.28925,20.632984 69.15751,20.665035 69.028915,20.70732 C68.93836,20.737091 68.85984,20.788494 68.78696,20.848595 C68.48415,21.09828 68.19031,21.3588 67.88477,21.60514 C67.78401,21.686384 67.674095,21.755573 67.568756,21.830791 C67.30313,22.080698 67.05018,22.344795 66.77188,22.58051 C65.71509,23.4756 66.92425,22.083275 65.32666,23.774525 C65.17027,23.940079 65.07093,24.151438 64.94307,24.339895 L64.94307,24.339895" /><path fill="none" stroke="#000000" stroke-width="0.02mm" d="M68.927055,21.052303 C69.13742,21.286896 69.27541,21.422276 69.4473,21.673443 C69.49188,21.738583 69.526505,21.810007 69.56611,21.878292 L69.56611,21.878292" /><path fill="none" stroke="#000000" stroke-width="0.02mm" d="M68.82758,21.12164 C68.78421,21.432652 68.72261,21.52281 68.47785,21.736893 C67.6734,22.440533 68.12422,21.981117 67.73638,22.387753 L67.73638,22.387753" /><path fill="none" stroke="#000000" stroke-width="0.02mm" d="M72.45991,49.877464 L72.294525,49.88994" /><path fill="none" stroke="#000000" stroke-width="0.02mm" d="M67.775566,22.312386 C68.14665,22.242455 68.51774,22.17252 68.888824,22.102585 C69.04397,22.053642 69.1958,21.992645 69.35424,21.955757 C69.43203,21.937645 69.51357,21.944307 69.59324,21.938583 L69.59324,21.938583" /><path fill="none" stroke="#000000" stroke-width="0.02mm" d="M69.67161,22.637959 C69.90728,23.375544 69.79394,23.097118 69.964005,23.491077 L69.964005,23.491077" /><path fill="none" stroke="#000000" stroke-width="0.02mm" d="M69.64448,22.662075 C69.20699,23.25293 69.19679,23.339607 68.74834,23.757551 C68.68485,23.816715 68.61227,23.86528 68.544235,23.919146 L68.544235,23.919146" /><path fill="none" stroke="#000000" stroke-width="0.02mm" d="M68.58342,23.96135 C71.295586,23.157764 68.62501,23.98765 69.87226,23.536783 C69.9261,23.51732 69.983665,23.510332 70.03937,23.497107 L70.03937,23.497107" /><path fill="none" stroke="#000000" stroke-width="0.02mm" d="M66.74163,23.255943 C66.808784,23.081114 66.82135,22.990314 66.9196,22.859856 C67.05705,22.677343 67.19981,22.693733 67.38628,22.798714 C67.51137,22.869137 67.60555,22.970165 67.75371,22.975916 C68.00171,22.98554 68.08776,22.914543 68.29705,22.788689 L68.29705,22.788689" /><path fill="none" stroke="#000000" stroke-width="0.02mm" d="M66.48843,24.365297 C66.51881,24.218266 66.52025,24.134846 66.58473,24.012964 C66.67121,23.84949 66.856865,23.724653 67.04664,23.786938 C67.124054,23.812346 67.183525,23.868984 67.256836,23.903664 C67.36662,23.95559 67.50254,24.002441 67.62732,23.984589 C67.93425,23.940674 68.18758,23.465494 68.32418,23.27403 L68.32418,23.27403" /><path fill="none" stroke="#000000" stroke-width="0.06mm" d="M66.32307,24.971977 C66.17839,25.115446 66.039795,25.26532 65.88903,25.402382 C65.84449,25.442875 65.790276,25.471352 65.73904,25.502941 C65.41229,25.704395 65.099045,25.930796 64.755196,26.101433 C63.04361,26.95082 63.69728,26.354776 62.88366,27.042976 L62.88366,27.042976" /><path fill="none" stroke="#000000" stroke-width="0.06mm" d="M66.124344,25.233168 C66.22691,25.145052 66.3251,25.05157 66.432045,24.968822 C66.68045,24.776613 67.006966,24.751467 67.30703,24.797375 C67.51335,24.828941 67.71226,24.905539 67.920074,24.9249 C68.37156,24.966963 68.82583,24.974546 69.27922,24.981117 C69.44018,24.983448 69.93735,24.829405 69.98717,24.82056 C70.1929,24.784037 70.49175,24.756971 70.68635,24.880072 C70.75724,24.924921 70.851494,24.999739 70.89876,25.071339 C71.27853,25.646652 71.639114,26.234478 72.0193,26.809517 C72.10048,26.932297 72.203896,27.039633 72.2824,27.164137 C72.36227,27.290794 72.41424,27.461128 72.463585,27.602608 L72.463585,27.602608" /><path fill="none" stroke="#000000" stroke-width="0.06mm" d="M69.23518,20.578697 C69.41701,20.562403 69.59829,20.538183 69.780655,20.529816 C69.834694,20.527336 69.88987,20.53219 69.94211,20.546257 C70.28722,20.639202 70.631165,20.737522 70.97034,20.850225 C71.09621,20.892048 71.29074,21.0466 71.37503,21.126167 C71.438,21.185616 71.49722,21.250134 71.5465,21.32135 C71.82061,21.717503 72.09454,22.114485 72.34402,22.526598 C72.556496,22.877607 72.45839,22.822174 72.56906,23.08867 C72.60018,23.1636 72.6358,23.194775 72.68854,23.254555 C72.797646,23.378233 72.94184,23.515682 73.00376,23.676079 C73.4429,24.813587 73.39683,24.67039 73.572876,25.383896 L73.572876,25.383896" /><path fill="none" stroke="#000000" stroke-width="0.06mm" d="M63.185326,26.67111 C62.840717,26.857319 62.574104,26.875206 62.210335,26.737759 C61.066025,26.30539 61.3841,26.467844 60.8733,26.194809 L60.8733,26.194809" /><path fill="none" stroke="#000000" stroke-width="0.06mm" d="M71.96018,10.612581 L71.93949,10.703424" /><path fill="none" stroke="#000000" stroke-width="0.06mm" d="M64.99414,24.046001 C64.94802,24.104923 64.90596,24.167257 64.85578,24.222763 C64.64994,24.450472 64.017136,24.491667 63.752045,24.507137 C63.514984,24.520971 63.44398,24.475191 63.247963,24.538305 C62.849094,24.666739 62.450245,24.79597 62.05703,24.9408 C61.675617,25.08128 61.482487,25.230087 61.128365,25.291172 C61.075188,25.300343 61.020702,25.29993 60.966743,25.30045 C60.817093,25.30189 60.66744,25.298178 60.517784,25.29704 L60.517784,25.29704" /><path fill="none" stroke="#000000" stroke-width="0.06mm" d="M62.459045,24.712217 C62.101006,24.811619 61.533913,24.867786 61.330925,25.24296 C61.20866,25.468931 61.141804,25.767092 61.258965,26.008762 C61.28277,26.057858 61.331635,26.119678 61.373264,26.152237 C61.602615,26.331615 61.757416,26.423859 62.046684,26.452791 C62.058067,26.45393 63.013695,26.653452 63.235962,26.406742 C63.47853,26.137499 63.504166,25.481068 63.534027,25.273298 C63.56363,25.067291 63.551517,24.713999 63.365715,24.56565 C63.178482,24.41616 62.93339,24.45192 62.71709,24.500679 C62.703934,24.503645 62.69233,24.511513 62.680603,24.518183 C62.577145,24.57702 62.47462,24.637491 62.37163,24.697147 L62.37163,24.697147" /><path fill="none" stroke="#000000" stroke-width="0.06mm" d="M61.853157,25.432695 L62.90819,25.480927" /><path fill="none" stroke="#000000" stroke-width="0.06mm" d="M60.78196,26.1629 C60.6913,26.118626 60.605194,26.063442 60.50997,26.030079 C60.303673,25.957794 59.458878,25.801256 59.39737,25.78314 C57.96731,25.361948 56.067398,24.65014 54.471306,24.339367 C54.381943,24.321968 53.449112,24.265995 53.10305,24.121445 C52.83017,24.007462 52.560158,23.824951 52.340424,23.632433 C51.882782,23.23147 51.991528,23.211498 51.63259,22.994183 C51.516365,22.923813 51.34211,22.891623 51.22638,22.858952 L51.22638,22.858952" /><path fill="none" stroke="#000000" stroke-width="0.06mm" d="M60.58603,25.24045 C60.488564,25.19642 60.395515,25.140882 60.293625,25.108362 C56.28282,23.828241 57.533897,24.459745 53.564568,22.553251 C53.330082,22.440624 53.123734,22.276659 52.909428,22.129211 C52.609844,21.92309 52.3156,21.709213 52.02333,21.492844 C51.989002,21.46743 51.932007,21.37987 51.91897,21.346804 C51.880737,21.249872 51.853134,21.14908 51.820213,21.050219 L51.820213,21.050219" /><path fill="none" stroke="#000000" stroke-width="0.06mm" d="M55.60604,23.69813 C55.541775,23.948393 55.564247,23.836182 55.531265,24.033312 L55.531265,24.033312" /><path fill="none" stroke="#000000" stroke-width="0.06mm" d="M55.752926,23.71816 L55.70619,23.983902" /><path fill="none" stroke="#000000" stroke-width="0.06mm" d="M55.564648,24.172192 C55.52119,24.30903 55.54163,24.228024 55.51524,24.417904 L55.51524,24.417904" /><path fill="none" stroke="#000000" stroke-width="0.06mm" d="M55.695507,24.166851 C55.66284,24.446524 55.66822,24.32687 55.66613,24.524736 L55.66613,24.524736" /><path fill="none" stroke="#000000" stroke-width="0.06mm" d="M55.910492,23.783594 C55.917274,23.974522 55.922726,23.881096 55.895805,24.064026 L55.895805,24.064026" /><path fill="none" stroke="#000000" stroke-width="0.06mm" d="M55.914497,24.309738 L55.866425,24.619549" /><path fill="none" stroke="#000000" stroke-width="0.06mm" d="M52.05368,21.490894 C51.968338,21.403885 51.882988,21.316875 51.797646,21.229868 C51.699997,21.122633 51.606094,21.01187 51.504707,20.908161 C51.461906,20.864378 51.412056,20.828089 51.36573,20.788052 L51.36573,20.788052" /><path fill="none" stroke="#000000" stroke-width="0.06mm" d="M51.828487,21.404276 C51.75116,21.288536 51.68047,21.168072 51.596504,21.057056 C51.38428,20.776478 50.751484,20.366554 50.637367,20.289797 C50.51758,20.209229 50.390083,20.135363 50.252884,20.09046 C49.888836,19.97131 49.508503,19.908176 49.14102,19.800064 C48.796955,19.698841 48.467873,19.547234 48.11931,19.462776 C46.947796,19.178925 47.102203,19.402 46.526123,19.132954 C46.515335,19.127914 46.50595,19.120222 46.49657,19.112883 C46.437187,19.066404 46.378803,19.018665 46.319923,18.971556 L46.319923,18.971556" /><path fill="none" stroke="#000000" stroke-width="0.06mm" d="M51.100945,22.899052 C50.705967,22.593525 50.318115,22.27856 49.916016,21.982471 C49.85793,21.939701 49.790756,21.909435 49.723083,21.884464 C49.260006,21.713585 48.790833,21.559692 48.325344,21.395508 C47.64638,21.156029 48.127,21.25251 46.716442,20.995852 C46.555557,20.96658 46.389957,20.957289 46.226715,20.96693 C46.0194,20.979176 45.812965,21.013418 45.61085,21.061157 C44.863262,21.291958 45.145985,21.22939 44.778217,21.305286 L44.778217,21.305286" /><path fill="none" stroke="#000000" stroke-width="0.06mm" d="M45.138103,21.1912 C45.041042,21.215569 44.946827,21.258492 44.846924,21.264303 C43.6642,21.333086 42.480465,21.43621 41.29594,21.414646 C40.878094,21.40704 40.47661,21.248865 40.064877,21.17725 C40.026596,21.170593 39.986412,21.17243 39.94836,21.180256 C39.778046,21.215279 39.609596,21.25923 39.441948,21.30535 C39.405907,21.315264 39.370903,21.329857 39.338272,21.348085 C39.28212,21.379452 39.23054,21.41838 39.17668,21.45353 L39.17668,21.45353" /><path fill="none" stroke="#000000" stroke-width="0.06mm" d="M47.424683,18.540699 L47.31118,18.580627" /><path fill="none" stroke="#000000" stroke-width="0.06mm" d="M46.28882,18.904491 C44.913593,19.092484 44.97276,19.098331 42.789,19.18805 C42.073906,19.217428 41.34879,19.083256 40.64191,19.195292 C39.837204,19.322834 39.07762,19.652222 38.301247,19.899334 C38.21674,19.926233 38.13811,19.970314 38.062313,20.016357 C37.99619,20.05652 37.939095,20.109943 37.87749,20.156738 L37.87749,20.156738" /><path fill="none" stroke="#000000" stroke-width="0.06mm" d="M39.340008,20.322548 C39.403385,20.286999 39.464645,20.24738 39.53014,20.215895 C39.662605,20.152216 39.843353,20.154089 39.965717,20.24016 C40.012512,20.273077 40.057312,20.309063 40.099335,20.347889 C40.198185,20.439232 40.225582,20.515522 40.36731,20.519085 C40.753223,20.528786 41.06357,20.29212 41.369213,20.087444 L41.369213,20.087444" /><path fill="none" stroke="#000000" stroke-width="0.06mm" d="M41.636482,20.961044 C41.66326,20.87704 41.679646,20.779438 41.733227,20.70458 C41.845562,20.547626 42.18286,20.479008 42.36554,20.530287 C42.43964,20.551088 42.482124,20.575912 42.543907,20.62078 C42.593483,20.656788 42.596607,20.67451 42.642635,20.693382 C42.749363,20.73714 42.864838,20.65268 42.952995,20.609623 L42.952995,20.609623" /><path fill="none" stroke="#000000" stroke-width="0.06mm" d="M42.849056,19.562786 C43.04994,19.5293 43.25263,19.504253 43.436504,19.60733 C43.51751,19.652737 43.56533,19.70032 43.661053,19.703278 C43.88614,19.71024 44.076557,19.602005 44.27198,19.508339 L44.27198,19.508339" /><path fill="none" stroke="#000000" stroke-width="0.06mm" d="M43.838913,20.990742 C43.922863,20.890474 43.957634,20.824448 44.05898,20.761242 C44.239124,20.648891 44.51106,20.614662 44.697796,20.731237 C44.77818,20.781418 44.81775,20.860739 44.88546,20.923672 C44.973095,21.005123 45.113937,21.078163 45.224873,20.994038 C45.27539,20.955727 45.322105,20.912647 45.370724,20.871952 L45.370724,20.871952" /><path fill="none" stroke="#000000" stroke-width="0.06mm" d="M44.494854,20.307207 C44.53438,20.214952 44.551258,20.143055 44.614765,20.071583 C44.69239,19.98423 44.92225,19.804516 45.05574,19.882744 C45.168194,19.948643 45.303562,20.137543 45.349632,20.182875 C45.4571,20.288626 45.64444,20.338112 45.791393,20.334019 C46.09006,20.325697 46.390003,19.88956 46.538914,19.723156 L46.538914,19.723156" /><path fill="none" stroke="#000000" stroke-width="0.06mm" d="M47.58569,20.220589 C47.727657,20.07401 47.8675,19.953983 48.075005,19.936386 C48.155624,19.929548 48.241917,19.936226 48.315136,19.973732 C48.334145,19.98347 48.352238,19.99527 48.368774,20.00879 C48.46303,20.08584 48.550167,20.171638 48.647198,20.245173 C48.711338,20.293783 48.806786,20.343416 48.888565,20.364658 C49.126038,20.426346 49.24247,20.307743 49.441673,20.180992 L49.441673,20.180992" /><path fill="none" stroke="#000000" stroke-width="0.06mm" d="M48.003906,20.953127 C48.18081,20.905954 48.38875,20.85315 48.563705,20.939693 C48.70261,21.008404 48.784798,21.104757 48.955353,21.114023 C49.127808,21.123392 49.369835,21.005024 49.478794,20.970451 L49.478794,20.970451" /><path fill="none" stroke="#000000" stroke-width="0.06mm" d="M50.112305,21.240202 C50.32395,21.133919 50.55087,21.056934 50.75821,21.206406 C50.856873,21.277533 50.926323,21.396109 51.049114,21.430115 C51.132942,21.453331 51.240196,21.384838 51.300137,21.363945 L51.300137,21.363945" /><path fill="none" stroke="#000000" stroke-width="0.06mm" d="M50.362244,21.945518 C50.46179,21.81932 50.56638,21.693838 50.740074,21.734913 C50.786667,21.745934 50.83921,21.771996 50.86936,21.810638 C50.888615,21.835308 51.025337,22.071331 51.131783,22.143284 C51.22473,22.206112 51.33528,22.186323 51.441193,22.183102 L51.441193,22.183102" /><path fill="none" stroke="#000000" stroke-width="0.06mm" d="M53.015068,23.17054 C53.13748,23.14619 53.276947,23.11108 53.393417,23.18023 C53.449978,23.213808 53.621765,23.350641 53.71956,23.376049 C53.81729,23.401442 53.924065,23.373016 54.019775,23.358624 L54.019775,23.358624" /><path fill="none" stroke="#000000" stroke-width="0.06mm" d="M53.21551,23.952576 C53.394146,23.833782 53.618114,23.746536 53.832222,23.827564 C53.878937,23.845242 53.924313,23.866768 53.967884,23.891184 C54.0568,23.941013 54.074966,23.978947 54.155186,23.998493 C54.241287,24.01947 54.334637,23.991978 54.41819,23.977324 L54.41819,23.977324" /><path fill="none" stroke="#000000" stroke-width="0.06mm" d="M56.779007,24.600971 C56.938507,24.567698 57.188972,24.49186 57.340027,24.607952 C57.39186,24.64779 57.40602,24.693516 57.453934,24.746815 C57.514374,24.814049 57.59163,24.866285 57.672188,24.905968 C57.857628,24.99731 57.96086,24.976389 58.169758,24.964766 L58.169758,24.964766" /><path fill="none" stroke="#000000" stroke-width="0.06mm" d="M58.951748,25.321136 C59.014507,25.272 59.074158,25.218607 59.140026,25.173723 C59.300102,25.064648 59.454685,25.077763 59.57878,25.227993 C59.69211,25.365177 59.760395,25.609268 59.943493,25.668686 C60.074028,25.711048 60.21946,25.613222 60.330128,25.576038 L60.330128,25.576038" /><path fill="none" stroke="#000000" stroke-width="0.06mm" d="M39.33453,21.349316 C39.20845,21.389288 39.100742,21.40836 38.993774,21.482471 C38.547543,21.791641 38.30986,22.345951 38.01774,22.778994 C37.94334,22.889282 37.821003,22.985535 37.71037,23.054348 C37.630016,23.104328 37.54107,23.139496 37.460636,23.189339 C37.387142,23.234882 37.322067,23.338121 37.275623,23.398441 L37.275623,23.398441" /><path fill="none" stroke="#000000" stroke-width="0.06mm" d="M38.03782,19.98818 C37.69836,20.207632 37.58362,20.316223 37.208622,20.437986 C37.00684,20.503506 36.799263,20.550184 36.59232,20.596931 C36.480186,20.622261 36.36372,20.626127 36.252193,20.654037 C36.108902,20.689894 35.965195,20.763186 35.846245,20.850044 C35.528496,21.082067 35.12581,21.792011 35.053387,21.893768 L35.053387,21.893768" /><path fill="none" stroke="#000000" stroke-width="0.06mm" d="M36.62232,21.334465 C36.621548,21.260563 36.61622,21.186567 36.62,21.112757 C36.62608,20.993992 36.729424,20.80737 36.875008,20.852798 C37.081116,20.917116 37.200512,21.049587 37.378624,21.177265 C37.457863,21.234068 37.586,21.261803 37.680744,21.236439 C37.83799,21.194336 37.959988,20.820322 37.973476,20.79496 L37.973476,20.79496" /><path fill="none" stroke="#000000" stroke-width="0.06mm" d="M36.98609,22.289736 C37.0002,22.222668 37.010483,22.154678 37.02841,22.088528 C37.03837,22.05178 37.0707,22.002483 37.096615,21.975033 C37.211212,21.853626 37.368626,21.870174 37.51847,21.907682 C37.62118,21.933392 37.983444,22.08952 38.166985,22.045952 C38.325138,22.00841 38.400925,21.82402 38.478306,21.70816 L38.478306,21.70816" /><path fill="none" stroke="#000000" stroke-width="0.06mm" d="M35.42287,20.892832 L35.423203,20.96246" /><path fill="none" stroke="#000000" stroke-width="0.06mm" d="M35.212524,21.68229 C34.843853,22.112442 34.497997,22.563248 34.10651,22.97274 C33.89674,23.192158 33.62995,23.350763 33.41373,23.563824 C33.284103,23.691555 33.198715,23.85875 33.073418,23.99073 C32.882717,24.1916 32.597805,24.357864 32.35395,24.473331 C32.05426,24.615236 31.430336,24.72091 31.216377,24.791248 C30.376549,25.067343 29.771591,25.585693 29.211498,26.253231 L29.211498,26.253231" /><path fill="none" stroke="#000000" stroke-width="0.06mm" d="M37.60303,22.964233 C34.939663,25.019115 36.85267,23.620789 35.62687,24.42949 C35.503937,24.510593 35.391365,24.607697 35.26372,24.681171 C35.08798,24.782333 34.895123,24.851505 34.719032,24.952065 C34.539726,25.054462 34.37722,25.18433 34.199265,25.28906 C34.14256,25.322433 34.081856,25.353333 34.017128,25.365154 C33.210567,25.512444 32.388485,25.578348 31.590233,25.765505 C30.822483,25.94551 30.200474,26.33226 29.520832,26.698692 L29.520832,26.698692" /><defs><path id="DRAW_3222"  d="M29.780674,26.53783 C29.730774,26.341583 29.684883,26.145662 29.546482,25.992138 C29.51839,25.960978 29.48484,25.935219 29.454018,25.906761 L29.454018,25.906761" /></defs><use xlink:href="#DRAW_3222" fill="none" stroke="#000000" stroke-width="0.04mm" /><text style="font-family:'SpeleoUIS'; font-size:0.2mm;"><textPath xlink:href="#DRAW_3222">!!!!!!!!!!!!!!!!!!!!!!!!!!!!!!!!!!!!!!!!!!!!!!!!!!!!!!!!!!!!!!!!!!!!!!!!!!!!!!!!!!!!!!!!!!!!!</textPath></text><path fill="none" stroke="#000000" stroke-width="0.06mm" d="M29.306835,26.088333 C29.254375,26.152409 29.195454,26.211702 29.149452,26.280563 C28.922962,26.619606 28.86406,27.172949 28.80489,27.493942 C28.696678,28.080975 28.6596,28.680918 28.528286,29.263216 C28.449165,29.614088 28.293377,29.943142 28.175922,30.283104 L28.175922,30.283104" /><path fill="none" stroke="#000000" stroke-width="0.06mm" d="M29.759697,26.60309 C29.724136,26.684988 29.676834,26.762735 29.653019,26.848785 C29.388096,27.805916 29.525108,28.787975 29.623001,29.76049 C29.641342,29.942684 29.670357,30.12461 29.71645,30.301828 C30.240509,32.316727 30.001484,30.853088 30.212555,32.4535 L30.212555,32.4535" /><path fill="none" stroke="#000000" stroke-width="0.06mm" d="M28.477833,29.34021 C28.401356,29.481102 28.338284,29.564434 28.308224,29.71673 C28.20197,30.255117 28.38412,30.841787 28.558308,31.334387 C28.566559,31.357723 28.934628,32.012283 28.974964,32.32582 C29.012844,32.62028 28.847336,32.913773 28.747562,33.17119 L28.747562,33.17119" /><path fill="none" stroke="#000000" stroke-width="0.06mm" d="M34.8649,22.695393 C34.979156,22.691385 35.104256,22.67303 35.184124,22.770374 C35.231853,22.828552 35.25679,22.88273 35.32672,22.914457 C35.587234,23.032654 35.715443,22.791817 35.82506,22.593927 L35.82506,22.593927" /><path fill="none" stroke="#000000" stroke-width="0.06mm" d="M34.142303,24.603458 C34.227055,24.483429 34.308662,24.361122 34.39655,24.243372 C34.510754,24.090357 34.665096,24.103958 34.83755,24.139362 C34.917656,24.155807 34.986717,24.198723 35.06458,24.157772 C35.20936,24.08162 35.25269,23.932177 35.30291,23.789251 L35.30291,23.789251" /><path fill="none" stroke="#000000" stroke-width="0.06mm" d="M31.830975,25.35332 C31.983063,25.269762 32.1162,25.219257 32.289642,25.233137 C32.351208,25.238064 32.41128,25.26806 32.472717,25.261707 C32.553955,25.25331 32.628906,25.213892 32.707005,25.189983 L32.707005,25.189983" /><path fill="none" stroke="#000000" stroke-width="0.06mm" d="M30.405582,25.81858 C30.437675,25.705757 30.448685,25.617418 30.509151,25.522854 C30.59544,25.387903 30.761032,25.233643 30.93687,25.262276 C31.011677,25.274458 31.057564,25.321705 31.1217,25.359112 C31.249142,25.433441 31.38105,25.353323 31.499374,25.303823 L31.499374,25.303823" /><path fill="none" stroke="#000000" stroke-width="0.06mm" d="M28.980186,28.253777 C28.964092,28.151434 28.902588,27.906351 28.982197,27.802345 C29.037258,27.730404 29.134022,27.769484 29.207558,27.739262 C29.323822,27.691479 29.390827,27.583721 29.470161,27.491539 L29.470161,27.491539" /><path fill="none" stroke="#000000" stroke-width="0.06mm" d="M29.143505,29.679255 C29.076561,29.576914 28.922504,29.393322 29.007748,29.255098 C29.047058,29.191357 29.127983,29.161705 29.181911,29.116512 C29.29004,29.025892 29.347733,28.918602 29.430573,28.800705 L29.430573,28.800705" /><path fill="none" stroke="#000000" stroke-width="0.06mm" d="M28.845299,32.83402 C28.52309,33.304737 28.214062,33.78475 27.878685,34.24618 C27.764095,34.403835 27.617775,34.53614 27.496975,34.68909 C27.392635,34.8212 27.181183,35.18141 26.988544,35.340523 C26.823261,35.47704 26.426281,35.638794 26.318554,35.683308 C26.13076,35.760902 25.717976,35.771793 25.596325,35.796936 C25.444397,35.82834 25.299374,35.88697 25.151775,35.934757 C24.866707,36.02705 24.588264,36.141346 24.298374,36.217167 C24.141422,36.25822 23.975796,36.2544 23.816296,36.28406 C23.54697,36.334145 23.391258,36.501083 23.203106,36.679844 L23.203106,36.679844" /><path fill="none" stroke="#000000" stroke-width="0.06mm" d="M30.181614,32.049507 C30.18446,32.225857 30.196354,32.40229 30.190155,32.578552 C30.177956,32.92518 29.951683,33.333378 29.779434,33.588985 C29.317707,34.274162 28.82246,34.93631 28.329243,35.599182 C28.275402,35.671543 28.211128,35.737152 28.139904,35.79248 C27.797626,36.05837 27.274982,36.370945 26.883614,36.509308 C26.512085,36.640663 26.123951,36.72092 25.738781,36.804195 C25.45794,36.864918 25.17036,36.889317 24.887684,36.940853 C24.860352,36.94584 24.834461,36.95858 24.810936,36.973362 C24.755886,37.007957 24.70581,37.04991 24.653248,37.088184 L24.653248,37.088184" /><path fill="none" stroke="#000000" stroke-width="0.06mm" d="M24.42558,36.578377 C24.204731,36.653076 23.980984,36.719707 23.763031,36.80248 C23.705982,36.824142 23.65189,36.85474 23.60271,36.890873 C23.3079,37.107483 23.017616,37.330418 22.732502,37.559643 C22.694118,37.590504 22.660057,37.627968 22.63395,37.66973 C22.403122,38.038994 22.336731,38.26857 22.322624,38.71054 C22.317684,38.86532 22.32241,39.02111 22.342155,39.1747 C22.34507,39.19737 22.423775,39.707 22.509266,39.85497 C22.624332,40.054127 22.773094,40.317574 22.988499,40.442062 C23.059658,40.483185 23.159134,40.51013 23.23669,40.520424 C23.608025,40.569717 23.877987,40.444023 24.18058,40.211197 C24.757519,39.76728 25.104641,39.45087 25.51363,38.87485 C25.648426,38.685005 25.770157,38.447323 25.8303,38.215458 C25.859886,38.101376 25.869316,37.89372 25.816326,37.784035 C25.802345,37.755096 25.518478,37.084763 25.302727,36.875626 C25.097095,36.676292 24.79755,36.552387 24.509293,36.587734 C24.383698,36.603138 24.3247,36.645702 24.20039,36.702118 L24.20039,36.702118" /><path fill="none" stroke="#000000" stroke-width="0.06mm" d="M23.267448,38.105324 C24.840832,38.542862 24.323391,38.26316 24.952682,38.627506 L24.952682,38.627506" /><path fill="none" stroke="#000000" stroke-width="0.06mm" d="M23.4184,36.306152 C23.11512,36.553413 22.987354,36.792854 22.825706,37.156494 C22.618252,37.6232 22.643867,37.57361 22.552269,37.959312 L22.552269,37.959312" /><path fill="none" stroke="#000000" stroke-width="0.06mm" d="M22.376041,38.50457 C22.175205,38.21145 21.974361,37.918324 21.773521,37.6252 C21.722694,37.54676 21.674809,37.46634 21.62104,37.389885 C21.54544,37.28239 21.452358,37.18685 21.385628,37.07364 C21.18219,36.728493 21.00325,36.369484 20.812065,36.017406 L20.812065,36.017406" /><path fill="none" stroke="#000000" stroke-width="0.06mm" d="M19.745487,35.663513 C19.763195,35.756832 19.768745,35.8533 19.798603,35.943466 C20.092731,36.831764 21.402058,38.55231 21.49131,38.68209 C21.833385,39.17951 22.127869,39.46795 22.524517,39.890457 L22.524517,39.890457" /></g>
<g>
<line fill="none" stroke="#111111" stroke-width="0.05mm" x1="78.00" y1="31.00" x2="80.73" y2="28.44" />
<line fill="none" stroke="#111111" stroke-width="0.05mm" x1="80.73" y1="28.44" x2="73.60" y2="28.13" />
<line fill="none" stroke="#111111" stroke-width="0.05mm" x1="73.60" y1="28.13" x2="70.77" y2="23.15" />
<line fill="none" stroke="#5674b9" stroke-width="0.05mm" stroke-dasharray="0.4,0.2" opacity="0.84" x1="70.77" y1="23.15" x2="69.39" y2="20.75" />
<line fill="none" stroke="#5674b9" stroke-width="0.05mm" stroke-dasharray="0.4,0.2" opacity="0.87" x1="70.77" y1="23.15" x2="70.42" y2="24.69" />
<line fill="none" stroke="#5674b9" stroke-width="0.05mm" stroke-dasharray="0.4,0.2" opacity="0.09" x1="70.77" y1="23.15" x2="69.18" y2="23.31" />
<line fill="none" stroke="#00aeef" stroke-width="0.05mm" stroke-dasharray="0.4,0.2" opacity="0.39" x1="70.77" y1="23.15" x2="72.93" y2="23.61" />
<line fill="none" stroke="#5674b9" stroke-width="0.05mm" stroke-dasharray="0.4,0.2" opacity="0.66" x1="70.77" y1="23.15" x2="71.93" y2="24.31" />
<line fill="none" stroke="#5674b9" stroke-width="0.05mm" stroke-dasharray="0.4,0.2" opacity="0.12" x1="70.77" y1="23.15" x2="68.68" y2="23.51" />
<line fill="none" stroke="#5674b9" stroke-width="0.05mm" stroke-dasharray="0.4,0.2" opacity="0.75" x1="70.77" y1="23.15" x2="69.81" y2="23.40" />
<line fill="none" stroke="#5674b9" stroke-width="0.05mm" stroke-dasharray="0.4,0.2" opacity="0.75" x1="70.77" y1="23.15" x2="69.83" y2="23.40" />
<line fill="none" stroke="#111111" stroke-width="0.05mm" x1="70.77" y1="23.15" x2="65.61" y2="24.54" />
<line fill="none" stroke="#00aeef" stroke-width="0.05mm" stroke-dasharray="0.4,0.2" opacity="0.92" x1="65.61" y1="24.54" x2="66.27" y2="25.19" />
<line fill="none" stroke="#5674b9" stroke-width="0.05mm" stroke-dasharray="0.4,0.2" opacity="0.79" x1="65.61" y1="24.54" x2="65.31" y2="24.15" />
<line fill="none" stroke="#5674b9" stroke-width="0.05mm" stroke-dasharray="0.4,0.2" opacity="0.14" x1="65.61" y1="24.54" x2="63.53" y2="24.60" />
<line fill="none" stroke="#00aeef" stroke-width="0.05mm" stroke-dasharray="0.4,0.2" opacity="0.16" x1="65.61" y1="24.54" x2="65.86" y2="24.73" />
<line fill="none" stroke="#5674b9" stroke-width="0.05mm" stroke-dasharray="0.4,0.2" opacity="0.19" x1="65.61" y1="24.54" x2="65.82" y2="23.83" />
<line fill="none" stroke="#111111" stroke-width="0.05mm" x1="65.61" y1="24.54" x2="63.27" y2="26.78" />
<line fill="none" stroke="#5674b9" stroke-width="0.05mm" stroke-dasharray="0.4,0.2" opacity="0.99" x1="63.27" y1="26.78" x2="63.51" y2="24.51" />
<line fill="none" stroke="#00aeef" stroke-width="0.05mm" stroke-dasharray="0.4,0.2" opacity="0.40" x1="63.27" y1="26.78" x2="62.86" y2="26.02" />
<line fill="none" stroke="#5674b9" stroke-width="0.05mm" stroke-dasharray="0.4,0.2" opacity="0.11" x1="63.27" y1="26.78" x2="62.12" y2="26.45" />
<line fill="none" stroke="#111111" stroke-width="0.05mm" x1="63.27" y1="26.78" x2="61.28" y2="25.60" />
<line fill="none" stroke="#00aeef" stroke-width="0.05mm" stroke-dasharray="0.4,0.2" opacity="0.97" x1="61.28" y1="25.60" x2="61.06" y2="26.29" />
<line fill="none" stroke="#00aeef" stroke-width="0.05mm" stroke-dasharray="0.4,0.2" opacity="0.12" x1="61.28" y1="25.60" x2="60.51" y2="25.76" />
<line fill="none" stroke="#5674b9" stroke-width="0.05mm" stroke-dasharray="0.4,0.2" opacity="0.12" x1="61.28" y1="25.60" x2="60.69" y2="26.13" />
<line fill="none" stroke="#5674b9" stroke-width="0.05mm" stroke-dasharray="0.4,0.2" opacity="0.06" x1="61.28" y1="25.60" x2="60.88" y2="25.19" />
<line fill="none" stroke="#5674b9" stroke-width="0.05mm" stroke-dasharray="0.4,0.2" opacity="0.06" x1="61.28" y1="25.60" x2="61.13" y2="24.55" />
<line fill="none" stroke="#5674b9" stroke-width="0.05mm" stroke-dasharray="0.4,0.2" opacity="0.92" x1="61.28" y1="25.60" x2="51.85" y2="22.90" />
<line fill="none" stroke="#5674b9" stroke-width="0.05mm" stroke-dasharray="0.4,0.2" opacity="0.92" x1="61.28" y1="25.60" x2="51.66" y2="22.86" />
<line fill="none" stroke="#5674b9" stroke-width="0.05mm" stroke-dasharray="0.4,0.2" opacity="0.92" x1="61.28" y1="25.60" x2="51.89" y2="22.95" />
<line fill="none" stroke="#5674b9" stroke-width="0.05mm" stroke-dasharray="0.4,0.2" opacity="0.92" x1="61.28" y1="25.60" x2="51.80" y2="22.91" />
<line fill="none" stroke="#111111" stroke-width="0.05mm" x1="61.28" y1="25.60" x2="52.07" y2="22.98" />
<line fill="none" stroke="#5674b9" stroke-width="0.05mm" stroke-dasharray="0.4,0.2" opacity="0.96" x1="52.07" y1="22.98" x2="52.46" y2="21.91" />
<line fill="none" stroke="#00aeef" stroke-width="0.05mm" stroke-dasharray="0.4,0.2" opacity="0.34" x1="52.07" y1="22.98" x2="51.93" y2="21.45" />
<line fill="none" stroke="#5674b9" stroke-width="0.05mm" stroke-dasharray="0.4,0.2" opacity="0.12" x1="52.07" y1="22.98" x2="52.27" y2="22.19" />
<line fill="none" stroke="#5674b9" stroke-width="0.05mm" stroke-dasharray="0.4,0.2" opacity="0.05" x1="52.07" y1="22.98" x2="52.18" y2="22.85" />
<line fill="none" stroke="#5674b9" stroke-width="0.05mm" stroke-dasharray="0.4,0.2" opacity="0.06" x1="52.07" y1="22.98" x2="51.44" y2="22.32" />
<line fill="none" stroke="#5674b9" stroke-width="0.05mm" stroke-dasharray="0.4,0.2" opacity="0.61" x1="52.07" y1="22.98" x2="55.74" y2="24.27" />
<line fill="none" stroke="#111111" stroke-width="0.05mm" x1="52.07" y1="22.98" x2="46.86" y2="19.36" />
<line fill="none" stroke="#5674b9" stroke-width="0.05mm" stroke-dasharray="0.4,0.2" opacity="0.88" x1="46.86" y1="19.36" x2="46.60" y2="20.55" />
<line fill="none" stroke="#00aeef" stroke-width="0.05mm" stroke-dasharray="0.4,0.2" opacity="0.85" x1="46.86" y1="19.36" x2="45.24" y2="21.56" />
<line fill="none" stroke="#5674b9" stroke-width="0.05mm" stroke-dasharray="0.4,0.2" opacity="0.13" x1="46.86" y1="19.36" x2="46.43" y2="19.61" />
<line fill="none" stroke="#00aeef" stroke-width="0.05mm" stroke-dasharray="0.4,0.2" opacity="0.42" x1="46.86" y1="19.36" x2="46.01" y2="21.06" />
<line fill="none" stroke="#5674b9" stroke-width="0.05mm" stroke-dasharray="0.4,0.2" opacity="0.15" x1="46.86" y1="19.36" x2="43.78" y2="19.69" />
<line fill="none" stroke="#00aeef" stroke-width="0.05mm" stroke-dasharray="0.4,0.2" opacity="0.99" x1="46.86" y1="19.36" x2="38.66" y2="19.89" />
<line fill="none" stroke="#00aeef" stroke-width="0.05mm" stroke-dasharray="0.4,0.2" opacity="0.99" x1="46.86" y1="19.36" x2="38.65" y2="19.86" />
<line fill="none" stroke="#00aeef" stroke-width="0.05mm" stroke-dasharray="0.4,0.2" opacity="0.99" x1="46.86" y1="19.36" x2="45.48" y2="19.46" />
<line fill="none" stroke="#111111" stroke-width="0.05mm" x1="46.86" y1="19.36" x2="38.69" y2="20.03" />
<line fill="none" stroke="#00aeef" stroke-width="0.05mm" stroke-dasharray="0.4,0.2" opacity="0.94" x1="38.69" y1="20.03" x2="39.96" y2="21.17" />
<line fill="none" stroke="#00aeef" stroke-width="0.05mm" stroke-dasharray="0.4,0.2" opacity="0.32" x1="38.69" y1="20.03" x2="38.81" y2="20.20" />
<line fill="none" stroke="#5674b9" stroke-width="0.05mm" stroke-dasharray="0.4,0.2" opacity="0.13" x1="38.69" y1="20.03" x2="38.83" y2="19.55" />
<line fill="none" stroke="#00aeef" stroke-width="0.05mm" stroke-dasharray="0.4,0.2" opacity="0.38" x1="38.69" y1="20.03" x2="39.10" y2="20.86" />
<line fill="none" stroke="#111111" stroke-width="0.05mm" x1="38.69" y1="20.03" x2="37.39" y2="23.15" />
<line fill="none" stroke="#00aeef" stroke-width="0.05mm" stroke-dasharray="0.4,0.2" opacity="0.93" x1="37.39" y1="23.15" x2="35.81" y2="20.90" />
<line fill="none" stroke="#00aeef" stroke-width="0.05mm" stroke-dasharray="0.4,0.2" opacity="0.60" x1="37.39" y1="23.15" x2="36.46" y2="22.60" />
<line fill="none" stroke="#5674b9" stroke-width="0.05mm" stroke-dasharray="0.4,0.2" opacity="0.48" x1="37.39" y1="23.15" x2="35.86" y2="22.01" />
<line fill="none" stroke="#111111" stroke-width="0.05mm" x1="37.39" y1="23.15" x2="32.98" y2="24.25" />
<line fill="none" stroke="#00aeef" stroke-width="0.05mm" stroke-dasharray="0.4,0.2" opacity="0.96" x1="32.98" y1="24.25" x2="34.14" y2="25.58" />
<line fill="none" stroke="#5674b9" stroke-width="0.05mm" stroke-dasharray="0.4,0.2" opacity="0.12" x1="32.98" y1="24.25" x2="33.11" y2="24.74" />
<line fill="none" stroke="#00aeef" stroke-width="0.05mm" stroke-dasharray="0.4,0.2" opacity="0.34" x1="32.98" y1="24.25" x2="33.44" y2="25.14" />
<line fill="none" stroke="#111111" stroke-width="0.05mm" x1="32.98" y1="24.25" x2="29.65" y2="26.14" />
<line fill="none" stroke="#5674b9" stroke-width="0.05mm" stroke-dasharray="0.4,0.2" opacity="0.92" x1="29.65" y1="26.14" x2="30.20" y2="26.30" />
<line fill="none" stroke="#5674b9" stroke-width="0.05mm" stroke-dasharray="0.4,0.2" opacity="0.08" x1="29.65" y1="26.14" x2="30.05" y2="26.08" />
<line fill="none" stroke="#00aeef" stroke-width="0.05mm" stroke-dasharray="0.4,0.2" opacity="0.07" x1="29.65" y1="26.14" x2="29.53" y2="26.45" />
<line fill="none" stroke="#5674b9" stroke-width="0.05mm" stroke-dasharray="0.4,0.2" opacity="0.45" x1="29.65" y1="26.14" x2="30.69" y2="25.39" />
<line fill="none" stroke="#5674b9" stroke-width="0.05mm" stroke-dasharray="0.4,0.2" opacity="0.14" x1="29.65" y1="26.14" x2="30.23" y2="25.73" />
<line fill="none" stroke="#111111" stroke-width="0.05mm" x1="29.65" y1="26.14" x2="28.48" y2="29.30" />
<line fill="none" stroke="#00aeef" stroke-width="0.05mm" stroke-dasharray="0.4,0.2" opacity="0.87" x1="28.48" y1="29.30" x2="29.15" y2="29.05" />
<line fill="none" stroke="#5674b9" stroke-width="0.05mm" stroke-dasharray="0.4,0.2" opacity="0.14" x1="28.48" y1="29.30" x2="29.08" y2="29.30" />
<line fill="none" stroke="#00aeef" stroke-width="0.05mm" stroke-dasharray="0.4,0.2" opacity="0.18" x1="28.48" y1="29.30" x2="29.71" y2="29.34" />
<line fill="none" stroke="#111111" stroke-width="0.05mm" x1="28.48" y1="29.30" x2="30.18" y2="32.36" />
<line fill="none" stroke="#5674b9" stroke-width="0.05mm" stroke-dasharray="0.4,0.2" opacity="0.91" x1="30.18" y1="32.36" x2="29.10" y2="32.37" />
<line fill="none" stroke="#5674b9" stroke-width="0.05mm" stroke-dasharray="0.4,0.2" opacity="0.12" x1="30.18" y1="32.36" x2="29.67" y2="31.85" />
<line fill="none" stroke="#00aeef" stroke-width="0.05mm" stroke-dasharray="0.4,0.2" opacity="0.16" x1="30.18" y1="32.36" x2="29.14" y2="33.33" />
<line fill="none" stroke="#111111" stroke-width="0.05mm" x1="30.18" y1="32.36" x2="26.95" y2="36.32" />
<line fill="none" stroke="#5674b9" stroke-width="0.05mm" stroke-dasharray="0.4,0.2" opacity="0.99" x1="26.95" y1="36.32" x2="26.83" y2="35.56" />
<line fill="none" stroke="#5674b9" stroke-width="0.05mm" stroke-dasharray="0.4,0.2" opacity="0.05" x1="26.95" y1="36.32" x2="26.69" y2="36.47" />
<line fill="none" stroke="#00aeef" stroke-width="0.05mm" stroke-dasharray="0.4,0.2" opacity="0.31" x1="26.95" y1="36.32" x2="25.37" y2="36.03" />
<line fill="none" stroke="#111111" stroke-width="0.05mm" x1="26.95" y1="36.32" x2="24.41" y2="36.72" />
<line fill="none" stroke="#00aeef" stroke-width="0.05mm" stroke-dasharray="0.4,0.2" opacity="0.97" x1="24.41" y1="36.72" x2="24.64" y2="37.13" />
<line fill="none" stroke="#5674b9" stroke-width="0.05mm" stroke-dasharray="0.4,0.2" opacity="0.08" x1="24.41" y1="36.72" x2="23.80" y2="37.54" />
<line fill="none" stroke="#00aeef" stroke-width="0.05mm" stroke-dasharray="0.4,0.2" opacity="0.11" x1="24.41" y1="36.72" x2="23.28" y2="36.67" />
<line fill="none" stroke="#111111" stroke-width="0.05mm" x1="24.41" y1="36.72" x2="22.51" y2="39.88" />
<line fill="none" stroke="#5674b9" stroke-width="0.05mm" stroke-dasharray="0.4,0.2" opacity="0.25" x1="22.51" y1="39.88" x2="23.21" y2="39.78" />
<line fill="none" stroke="#5674b9" stroke-width="0.05mm" stroke-dasharray="0.4,0.2" opacity="0.95" x1="22.51" y1="39.88" x2="22.78" y2="37.53" />
<line fill="none" stroke="#00aeef" stroke-width="0.05mm" stroke-dasharray="0.4,0.2" opacity="0.99" x1="22.51" y1="39.88" x2="24.66" y2="37.19" />
<line fill="none" stroke="#5674b9" stroke-width="0.05mm" stroke-dasharray="0.4,0.2" opacity="0.99" x1="22.51" y1="39.88" x2="25.78" y2="38.03" />
<line fill="none" stroke="#5674b9" stroke-width="0.05mm" stroke-dasharray="0.4,0.2" opacity="0.98" x1="22.51" y1="39.88" x2="25.00" y2="39.64" />
<line fill="none" stroke="#5674b9" stroke-width="0.05mm" stroke-dasharray="0.4,0.2" opacity="1.00" x1="22.51" y1="39.88" x2="23.29" y2="40.25" />
<line fill="none" stroke="#00aeef" stroke-width="0.05mm" stroke-dasharray="0.4,0.2" opacity="0.15" x1="22.51" y1="39.88" x2="22.59" y2="37.33" />
<line fill="none" stroke="#5674b9" stroke-width="0.05mm" stroke-dasharray="0.4,0.2" opacity="0.99" x1="22.51" y1="39.88" x2="21.00" y2="36.33" />
<line fill="none" stroke="#5674b9" stroke-width="0.05mm" stroke-dasharray="0.4,0.2" opacity="0.99" x1="22.51" y1="39.88" x2="20.03" y2="36.44" />
<line fill="none" stroke="#5674b9" stroke-width="0.05mm" stroke-dasharray="0.4,0.2" opacity="0.95" x1="22.51" y1="39.88" x2="21.08" y2="36.18" />
<line fill="none" stroke="#5674b9" stroke-width="0.05mm" stroke-dasharray="0.4,0.2" opacity="0.98" x1="22.51" y1="39.88" x2="20.12" y2="36.38" />
</g>
<g>
<circle cx="78.00" cy="31.00" r="0.1" fill="#111111" />
<circle cx="80.73" cy="28.44" r="0.1" fill="#111111" />
<circle cx="73.60" cy="28.13" r="0.1" fill="#111111" />
<circle cx="70.77" cy="23.15" r="0.1" fill="#111111" />
<circle cx="65.61" cy="24.54" r="0.1" fill="#111111" />
<circle cx="63.27" cy="26.78" r="0.1" fill="#111111" />
<circle cx="61.28" cy="25.60" r="0.1" fill="#111111" />
<circle cx="52.07" cy="22.98" r="0.1" fill="#111111" />
<circle cx="46.86" cy="19.36" r="0.1" fill="#111111" />
<circle cx="38.69" cy="20.03" r="0.1" fill="#111111" />
<circle cx="37.39" cy="23.15" r="0.1" fill="#111111" />
<circle cx="32.98" cy="24.25" r="0.1" fill="#111111" />
<circle cx="29.65" cy="26.14" r="0.1" fill="#111111" />
<circle cx="28.48" cy="29.30" r="0.1" fill="#111111" />
<circle cx="30.18" cy="32.36" r="0.1" fill="#111111" />
<circle cx="26.95" cy="36.32" r="0.1" fill="#111111" />
<circle cx="24.41" cy="36.72" r="0.1" fill="#111111" />
<circle cx="22.51" cy="39.88" r="0.1" fill="#111111" />
</g>
<g>
<text x="78.20" y="31.00" font-size=".2mm" fill="#000000">0</text>
<text x="80.93" y="28.44" font-size=".2mm" fill="#000000">1</text>
<text x="73.80" y="28.13" font-size=".2mm" fill="#000000">2</text>
<text x="70.97" y="23.15" font-size=".2mm" fill="#000000">3</text>
<text x="65.81" y="24.54" font-size=".2mm" fill="#000000">4</text>
<text x="63.47" y="26.78" font-size=".2mm" fill="#000000">5</text>
<text x="61.48" y="25.60" font-size=".2mm" fill="#000000">6</text>
<text x="52.27" y="22.98" font-size=".2mm" fill="#000000">7</text>
<text x="47.06" y="19.36" font-size=".2mm" fill="#000000">8</text>
<text x="38.89" y="20.03" font-size=".2mm" fill="#000000">9</text>
<text x="37.59" y="23.15" font-size=".2mm" fill="#000000">10</text>
<text x="33.18" y="24.25" font-size=".2mm" fill="#000000">11</text>
<text x="29.85" y="26.14" font-size=".2mm" fill="#000000">12</text>
<text x="28.68" y="29.30" font-size=".2mm" fill="#000000">13</text>
<text x="30.38" y="32.36" font-size=".2mm" fill="#000000">14</text>
<text x="27.15" y="36.32" font-size=".2mm" fill="#000000">15</text>
<text x="24.61" y="36.72" font-size=".2mm" fill="#000000">16</text>
<text x="22.71" y="39.88" font-size=".2mm" fill="#000000">17</text>
</g>
<g>
</g>
</g>
</svg>