<?xml version="1.0" encoding="utf-8"?>
<!DOCTYPE svg PUBLIC "-//W3C//DTD SVG 1.1//EN" "http://www.w3.org/Graphics/SVG/1.1/DTD/svg11.dtd">
<svg version="1.1" id="Layer_1" xmlns="http://www.w3.org/2000/svg" xmlns:xlink="http://www.w3.org/1999/xlink" x="0px" y="0px" width="68mm" height="112mm" viewBox="0 0 68 112" style="background-color:#ffffff;enable-background:new 0 0 68 112;" xml:space="preserve">
<symbol id="airflow" viewBox="-12 -12 24 24">
<path d="M-4.38,10.73l4.2-3.84V3.55L-4.07,7.13l-.31-.29L-.18,3V-6.89a3.37,3.37,0,0,0-1.68.53l1.68-4.15L0-11l.21.51h0v0l1.65,4.1A3.26,3.26,0,0,0,.24-6.89v14l-.08,0L-4.07,11Z"/>
<rect fill="none" x="-12" y="-12" width="24" height="24"/>
</symbol>
<symbol id="anastomosis" viewBox="-12 -12 24 24">
<path d="M2.23-4.78l.37.24L5.22-2.78l-.47.57L2.49-3.7l-4.61,8-.24.44-.37-.34L-5.22,2.3l.55-.52,2.1,1.82L2-4.39Z"/>
<rect fill="none" x="-12" y="-12" width="24" height="24"/>
</symbol>
<symbol id="bivouac" viewBox="-12 -12 24 24">
<path d="M.25-7.66l.24.58L.54-7l3.88.48-3.31.91L6,6H8.35v.48l-16.7.07V6.05h2.64L0-7.08Zm0,1.32L-5.13,6H-4l2.07-5L.2-4l2.09,5L4.37,6H5.44Z"/>
<rect fill="none" x="-12" y="-12" width="24" height="24"/>
</symbol>
<symbol id="bones" viewBox="-12 -12 24 24">
<path d="M2.44,4.27l-.16,0H2.13a.22.22,0,0,1-.11,0l-.1-.06a.39.39,0,0,1-.09-.11l-.08-.13a1.51,1.51,0,0,1-.06-.15l-.07-.17s0-.11-.08-.19-.06-.16-.08-.21a4.75,4.75,0,0,0-.38-.71c-.18-.29-.43-.64-.74-1A11.15,11.15,0,0,0-.7.32,6.73,6.73,0,0,0-2-.64a4.12,4.12,0,0,0-1.44-.52A1.64,1.64,0,0,1-5-2.19.72.72,0,0,1-5-2.44a1,1,0,0,1,0-.29A.52.52,0,0,1-4.87-3a.54.54,0,0,1,.35-.15L-4-3.22l.46,0a.54.54,0,0,0,.27-.06A.52.52,0,0,0-3-3.56a.74.74,0,0,0,.13-.31.54.54,0,0,1,.15-.26.54.54,0,0,1,.3-.15.83.83,0,0,1,.47,0,1.11,1.11,0,0,1,.35.4A7.46,7.46,0,0,1-1-2.76q.18.42.33.72a3.22,3.22,0,0,0,.39.57L.1-1a4.77,4.77,0,0,0,.58.43c.28.18.51.33.69.43l1,.56a1.84,1.84,0,0,0,.39.23A5.29,5.29,0,0,1,3.22.9l.43.26a3.7,3.7,0,0,1,.46.3l.36.29a2.28,2.28,0,0,1,.31.32A1,1,0,0,1,5,2.4c.2.48,0,.78-.47.91h0a8.48,8.48,0,0,0-1.12.09,1,1,0,0,0-.42.44A1,1,0,0,1,2.44,4.27Z"/>
<rect fill="none" x="-12" y="-12" width="24" height="24"/>
</symbol>
<symbol id="calcite" viewBox="-12 -12 24 24">
<path d="M2.36-2.22l.05.46.34,3.91L2,2.22,1.65-1.26-2.52-.06l-.23-.7L1.89-2.08Z"/>
<rect fill="none" x="-12" y="-12" width="24" height="24"/>
</symbol>
<symbol id="cauliflower" viewBox="-12 -12 24 24">
<path d="M5.58,3.22v-3A2.12,2.12,0,0,0,6.92-.43a1.78,1.78,0,0,0,.55-1.32,1.92,1.92,0,0,0-.65-1.42,2.19,2.19,0,0,0-1.53-.59,2.21,2.21,0,0,0-1.54.59,1.78,1.78,0,0,0-.64,1.42A1.86,1.86,0,0,0,3.65-.43,2.12,2.12,0,0,0,5,.23v3H.26v-3A2.17,2.17,0,0,0,1.61-.43a1.81,1.81,0,0,0,.54-1.32,1.91,1.91,0,0,0-.64-1.42A2.21,2.21,0,0,0,0-3.76a2.21,2.21,0,0,0-1.54.59,1.82,1.82,0,0,0-.64,1.42A1.83,1.83,0,0,0-1.66-.43,2.12,2.12,0,0,0-.32.23v3H-5v-3A2.12,2.12,0,0,0-3.71-.43a1.78,1.78,0,0,0,.55-1.32,1.92,1.92,0,0,0-.65-1.42,2.19,2.19,0,0,0-1.53-.59,2.21,2.21,0,0,0-1.54.59,1.83,1.83,0,0,0-.65,1.42A1.87,1.87,0,0,0-7-.43,2.12,2.12,0,0,0-5.64.23v3H-8v.54H8V3.22Z"/>
<rect fill="none" x="-12" y="-12" width="24" height="24"/>
</symbol>
<symbol id="clay" viewBox="-12 -12 24 24">
<path d="M1.85-1.33a3,3,0,0,1,1.67.48,3.23,3.23,0,0,1,1,1l.29.51-1,.43a3.81,3.81,0,0,0-.23-.4A3.74,3.74,0,0,0,2.93,0,1.77,1.77,0,0,0,1.85-.32a2.57,2.57,0,0,0-1.1.15A.86.86,0,0,0,.51.14,2.23,2.23,0,0,1,0,.88a2.55,2.55,0,0,1-1.45.43,3.16,3.16,0,0,1-2.75-1,4.28,4.28,0,0,1-.37-.57,3.91,3.91,0,0,1-.21-.47l0-.16,1-.22a1.87,1.87,0,0,0,.45.79A2.12,2.12,0,0,0-1.51.33,1.82,1.82,0,0,0-.69.14l.21-.36A1.53,1.53,0,0,1,.17-1,3.76,3.76,0,0,1,1.85-1.33Z"/>
<rect fill="none" x="-12" y="-12" width="24" height="24"/>
</symbol>
<symbol id="crystals" viewBox="-12 -12 24 24">
<path d="M-2.94-5.38,0-.72,2.94-5.38,3.62-5,.68-.36H6.56V.36H.68L3.62,5l-.68.36L0,.72-2.94,5.38-3.62,5-.68.36H-6.56V-.36H-.68L-3.62-5Z"/>
<rect fill="none" x="-12" y="-12" width="24" height="24"/>
</symbol>
<symbol id="curtain" viewBox="-12 -12 24 24">
<path d="M3.57-6.69l.52.53L.39-3V-.33L.1-.26a3.79,3.79,0,0,0-1,.41c-.58.3-.87.65-.87,1v.07A1.61,1.61,0,0,0-.84,2.48a3.69,3.69,0,0,0,.45.24L0,2.86l.13.05L.39,3V6.12H-.39V3.51a7.65,7.65,0,0,1-.9-.46A2.19,2.19,0,0,1-2.54,1.28V1.23A2,2,0,0,1-1.31-.48,5.32,5.32,0,0,1-.39-.86V-3l-3.7-3.14.52-.53L0-3.67Z"/>
<rect fill="none" x="-12" y="-12" width="24" height="24"/>
</symbol>
<symbol id="disk" viewBox="-12 -12 24 24">
<path d="M-.09-4.19a2.43,2.43,0,0,1,1.7.64A2,2,0,0,1,2.35-2,2.09,2.09,0,0,1,1.81-.55,2.44,2.44,0,0,1,.35.23l2.18,3.6-.68.33L0,1.14-1.48,4.19l-.71-.29L-.41.25A2.53,2.53,0,0,1-1.9-.47a2,2,0,0,1-.63-1.41,2,2,0,0,1,.67-1.61,2.46,2.46,0,0,1,1.72-.7ZM1.05-3.06.56-3.49l-.69,0A1.72,1.72,0,0,0-1.29-3a1.51,1.51,0,0,0-.45,1.08,1.36,1.36,0,0,0,.51,1A1.68,1.68,0,0,0-.07-.44v0l0,0A1.7,1.7,0,0,0,1.11-.92,1.36,1.36,0,0,0,1.56-2,1.47,1.47,0,0,0,1.05-3.06Z"/>
<rect fill="none" x="-12" y="-12" width="24" height="24"/>
</symbol>
<symbol id="entrance" viewBox="-12 -12 24 24">
<path d="M4.46,9H-4.46L0-9Z"/>
<rect fill="none" x="-12" y="-12" width="24" height="24"/>
</symbol>
<symbol id="flowstone" viewBox="-12 -12 24 24">
<rect x="-6" y="-0.21" width="12" height="0.42"/>
<rect fill="none" x="-12" y="-12" width="24" height="24"/>
</symbol>
<symbol id="flutes" viewBox="-12 -12 24 24">
<path d="M-7-1H7v.72H3.87A4.7,4.7,0,0,1,2.16,1.5,4.2,4.2,0,0,1,0,2.13,3.94,3.94,0,0,1-2.19,1.5,4.18,4.18,0,0,1-3.76-.27H-7Zm4.17.72A3.15,3.15,0,0,0-1.65,1,3.21,3.21,0,0,0,0,1.41,3.49,3.49,0,0,0,1.6,1,3.68,3.68,0,0,0,3-.27Z"/>
<rect fill="none" x="-12" y="-12" width="24" height="24"/>
</symbol>
<symbol id="gradient" viewBox="-12 -12 24 24">
<path d="M2.58-3.83,0-10-2.58-3.83A4.74,4.74,0,0,1-.17-4.5V10H.25V-4.5A6.65,6.65,0,0,1,2.58-3.83Z"/>
<rect fill="none" x="-12" y="-12" width="24" height="24"/>
</symbol>
<symbol id="guano" viewBox="-12 -12 24 24">
<path d="M-3.24-3a2.15,2.15,0,0,1,1.57.55A3.93,3.93,0,0,1-.59.24a4.32,4.32,0,0,1,2.75-2.3,2.68,2.68,0,0,1,2.23.36A2.36,2.36,0,0,1,5.5.19l-.79,0a1.72,1.72,0,0,0-.79-1.37,1.94,1.94,0,0,0-1.55-.24A3.53,3.53,0,0,0,.48,0,6.63,6.63,0,0,0-.69,3l-.79-.09a10.72,10.72,0,0,0,0-3.16A3.21,3.21,0,0,0-2.22-2,1.44,1.44,0,0,0-3.37-2.3,3.45,3.45,0,0,0-5-1.54l-.5-.55a4.29,4.29,0,0,1,2-.91A.9.9,0,0,1-3.24-3Z"/>
<rect fill="none" x="-12" y="-12" width="24" height="24"/>
</symbol>
<symbol id="helictites" viewBox="-12 -12 24 24">
<path d="M-4.59-7.92h.79v7.7l3.41,0V-7.92H.39V-.17L4.2-.12h.39v8H3.8V.6L.39.55V7.92H-.39V.55L-4.2.5l-.39,0v-8.4Z"/>
<rect fill="none" x="-12" y="-12" width="24" height="24"/>
</symbol>
<symbol id="human" viewBox="-12 -12 24 24">
<path d="M-3.59-3.29A5.13,5.13,0,0,1,0-4.66,5.13,5.13,0,0,1,3.59-3.29,4.3,4.3,0,0,1,5.09,0a4.3,4.3,0,0,1-1.5,3.29A5.13,5.13,0,0,1,0,4.66,5.13,5.13,0,0,1-3.59,3.29,4.3,4.3,0,0,1-5.09,0,4.3,4.3,0,0,1-3.59-3.29Zm.28.77A3.68,3.68,0,0,0-4.3,0a3.62,3.62,0,0,0,1,2.57L-.5.05ZM0-3.94A4.42,4.42,0,0,0-2.75-3L.16-.36H4.28A3.62,3.62,0,0,0,2.91-2.9,4.38,4.38,0,0,0,0-3.94ZM.16.46-2.7,3.07A4.42,4.42,0,0,0,0,3.94a4.37,4.37,0,0,0,2.87-1A3.78,3.78,0,0,0,4.28.46Z"/>
<rect fill="none" x="-12" y="-12" width="24" height="24"/>
</symbol>
<symbol id="karren" viewBox="-12 -12 24 24">
<path d="M1-5.84h0a1.37,1.37,0,0,1,1.06.68A3.33,3.33,0,0,1,2.5-3.79,25.79,25.79,0,0,1,2.36,0a18.61,18.61,0,0,0-.08,3.72,2.68,2.68,0,0,0,.41,1.2,1.13,1.13,0,0,0,.79.5A.92.92,0,0,0,4,4.94a4.43,4.43,0,0,0,.47-1.22c.16-.64.36-1.86.59-3.66a26.71,26.71,0,0,1,.64-3.69,4.62,4.62,0,0,1,.57-1.29,1.34,1.34,0,0,1,1-.59h0A1.28,1.28,0,0,1,8.37-5a2.17,2.17,0,0,1,.39,1.15A19.91,19.91,0,0,1,8.54-.53a21.51,21.51,0,0,0-.2,3.64A2.64,2.64,0,0,0,9.45,5.36,1.91,1.91,0,0,0,10.88,5a3.84,3.84,0,0,0,.7-1l.42.2-.1.18-.12.21-.11.18L11.52,5a.94.94,0,0,1-.14.16c-.06.07-.13.12-.19.18a2.5,2.5,0,0,1-1.85.41H9.29l0,0A3.06,3.06,0,0,1,7.87,3.13a22.11,22.11,0,0,1,.2-3.7,18.17,18.17,0,0,0,.22-3.28A1.85,1.85,0,0,0,8-4.79a.77.77,0,0,0-.67-.3.93.93,0,0,0-.64.42,4.51,4.51,0,0,0-.51,1.15A26.26,26.26,0,0,0,5.54.1c-.24,1.83-.45,3.07-.61,3.72a5.38,5.38,0,0,1-.51,1.34,1.33,1.33,0,0,1-.89.68H3.47A1.58,1.58,0,0,1,2.3,5.16a3.29,3.29,0,0,1-.49-1.4A20.27,20.27,0,0,1,1.89,0,23.45,23.45,0,0,0,2-3.75a2.94,2.94,0,0,0-.32-1.19A.93.93,0,0,0,1-5.42,1.1,1.1,0,0,0,.19-5,3.69,3.69,0,0,0-.43-3.76,20.78,20.78,0,0,0-1.07.07c-.2,2-.37,3.32-.49,3.86A4.48,4.48,0,0,1-2,5.26,1.06,1.06,0,0,1-3,5.81h0a1.9,1.9,0,0,1-1.29-.67,2.7,2.7,0,0,1-.58-1.31,14.92,14.92,0,0,1,0-3.6q0-.12.06-.54c0-.28,0-.47,0-.57s0-.28,0-.52,0-.42,0-.55,0-.28,0-.47,0-.36,0-.51,0-.29,0-.43A3.09,3.09,0,0,0-5-4.62a1.19,1.19,0,0,0-.67-.6,1.5,1.5,0,0,0-1.2.9A7,7,0,0,0-7.41-2.1c0,.39-.1,1-.14,1.76s-.11,1.47-.18,2.08A9.61,9.61,0,0,1-8,3.32h0l0,0A2.81,2.81,0,0,1-9.2,4.62a1.82,1.82,0,0,1-1.35.15A1.94,1.94,0,0,1-11.61,4,2.39,2.39,0,0,1-12,2.56l.47,0a1.92,1.92,0,0,0,.31,1.16,1.47,1.47,0,0,0,.81.62,1.3,1.3,0,0,0,1-.11A2.32,2.32,0,0,0-8.5,3.18a7.53,7.53,0,0,0,.29-1.5Q-8.1.8-8-.36c0-.78.1-1.37.16-1.78A7.23,7.23,0,0,1-7.28-4.5,1.93,1.93,0,0,1-5.65-5.66h.05l0,0a1.59,1.59,0,0,1,1,.84,3.47,3.47,0,0,1,.34,1.41,4.91,4.91,0,0,1,0,.57v.54c0,.15,0,.37,0,.66s0,.47,0,.58,0,.33-.06.68,0,.56-.06.63a14.78,14.78,0,0,0,0,3.49,2.58,2.58,0,0,0,.5,1.13,1.57,1.57,0,0,0,1,.5A.61.61,0,0,0-2.44,5,3.89,3.89,0,0,0-2,3.85C-1.9,3.31-1.74,2-1.53,0A20.65,20.65,0,0,1-.86-3.89,3.89,3.89,0,0,1-.18-5.26,1.58,1.58,0,0,1,1-5.84Z"/>
<rect fill="none" x="-12" y="-12" width="24" height="24"/>
</symbol>
<symbol id="moonmilk" viewBox="-12 -12 24 24">
<path d="M-4.78-3.06a3.39,3.39,0,0,1,1.5.34,2.48,2.48,0,0,1,1.1,1,3.74,3.74,0,0,1,1.62-.8,3.52,3.52,0,0,1,1.71,0,2.9,2.9,0,0,1,1.39.77A2.49,2.49,0,0,1,3.25-.37,4,4,0,0,1,5-.76a3.58,3.58,0,0,1,1.6.36A2.84,2.84,0,0,1,7.88.92a2.32,2.32,0,0,1,0,1.88.34.34,0,0,1-.37.26A.36.36,0,0,1,7.25,3a.32.32,0,0,1-.12-.25.21.21,0,0,1,0-.12,2,2,0,0,0,0-1.43,2,2,0,0,0-1-.9A2.81,2.81,0,0,0,4.68,0,2.78,2.78,0,0,0,3.12.56L2.46.25A1.7,1.7,0,0,0,2.15-1.1,2.15,2.15,0,0,0,1-1.81a2.85,2.85,0,0,0-1.58.06A3,3,0,0,0-2-.83l-.71-.12A1.74,1.74,0,0,0-3.55-2a2.36,2.36,0,0,0-1.39-.27,3.08,3.08,0,0,0-1.45.53A2.33,2.33,0,0,0-7.32-.56a.35.35,0,0,1-.37.24A.39.39,0,0,1-8-.42a.33.33,0,0,1-.1-.26v-.1A3,3,0,0,1-6.89-2.35,4,4,0,0,1-5-3Z"/>
<rect fill="none" x="-12" y="-12" width="24" height="24"/>
</symbol>
<symbol id="narrow" viewBox="-12 -12 24 24">
<path d="M-1.5,5V-5h0.64V5H-1.5z"/>
<path d="M0.86,5V-5H1.5V5H0.86z"/>
<rect fill="none" x="-12" y="-12" width="24" height="24"/>
</symbol>
<symbol id="paleoflow" viewBox="-12 -12 24 24">
<path d="M.38-12V.17A1.9,1.9,0,0,0,1,0,1.57,1.57,0,0,0,1.7-.72a1.86,1.86,0,0,0,.23-1c0-.09,0-.14.08-.16a.92.92,0,0,1,.24,0,.52.52,0,0,0,.25,0h.08A2.48,2.48,0,0,1,2,0,2.5,2.5,0,0,1,.38.77V7.21H2.09L0,12-1.8,7.23c.07,0,.59,0,1.53,0V.77A3,3,0,0,1-1.35.43a2.16,2.16,0,0,1-1-1,2.38,2.38,0,0,1-.24-1.33l.67,0a2,2,0,0,0,.15,1,1.73,1.73,0,0,0,.59.67A2.14,2.14,0,0,0-.27.16V-12Z"/>
<rect fill="none" x="-12" y="-12" width="24" height="24"/>
</symbol>
<symbol id="rain" viewBox="-12 -12 24 24">
<path d="M-4.14-6.34h0.71v4.69h-0.71V-6.34z"/>
<path d="M-0.35-6.34h0.71v4.69h-0.71V-6.34z"/>
<path d="M3.43-6.34h0.71v4.69H3.43V-6.34z"/>
<path d="M-4.14,1.65h0.71v4.69h-0.71V1.65z"/>
<path d="M-0.35,1.65h0.71v4.69h-0.71V1.65z"/>
<path d="M3.43,1.65h0.71v4.69H3.43V1.65z"/>
<rect fill="none" x="-12" y="-12" width="24" height="24"/>
</symbol>
<symbol id="rats" viewBox="-12 -12 24 24">
<path d="M8.78-2.32,7-2.27c-.51-.17-.65-.56-1.46-.45l-.25.45C3.59-2.75,2.59-3.66.56-3.62l-1.35.3A4.89,4.89,0,0,0-4.24,1.57c-.68.6-2.58.86-3.39.94a6.84,6.84,0,0,0-1.62.39,4.91,4.91,0,0,0-1,.52A1.75,1.75,0,0,0-11,4.61a1.16,1.16,0,0,0,.59,1.48,1.3,1.3,0,0,1,.14.12c.16-.52-.35-.92-.2-1.42a3.35,3.35,0,0,1,.27-.45,3.18,3.18,0,0,1,1.79-1c.63-.12,1.27-.22,1.91-.3.48-.07,1,0,1.4-.12A6.94,6.94,0,0,1-4,2.82,30.64,30.64,0,0,0,.41,2.69l2.16.15c.1-.09,0,0,.1-.15a.87.87,0,0,0-.9-.55c.86-1,2.27-.37,3.1-.05.5.19,1,0,1.25.4.11-.1.1-.07.15-.25.3,0,.31.07.6.15-.06-.49-.34-.64-1-.6a.78.78,0,0,1,0-.55C6.3.56,7.29.73,8.13.43a13.78,13.78,0,0,0,2.15-.9l.6-.85v-.2A16.9,16.9,0,0,0,8.78-2.32Z"/>
<rect fill="none" x="-12" y="-12" width="24" height="24"/>
</symbol>
<symbol id="sand" viewBox="-12 -12 24 24">
<path d="M-1.58,0.83c0.23,0.2,0.35,0.44,0.36,0.73c0.01,0.29-0.08,0.54-0.28,0.75c-0.2,0.21-0.46,0.32-0.78,0.33c-0.32,0.01-0.6-0.08-0.83-0.26C-3.36,2.19-3.49,1.95-3.5,1.67C-3.51,1.38-3.41,1.12-3.2,0.9c0.21-0.22,0.48-0.34,0.8-0.35C-2.08,0.54-1.81,0.64-1.58,0.83z"/>
<path d="M0.08-2.36c0.23,0.2,0.35,0.44,0.36,0.73c0.01,0.29-0.08,0.54-0.28,0.75c-0.2,0.21-0.46,0.32-0.78,0.33c-0.32,0.01-0.59-0.07-0.83-0.26s-0.37-0.42-0.38-0.71c-0.01-0.29,0.09-0.54,0.3-0.76c0.21-0.22,0.48-0.33,0.8-0.35C-0.42-2.65-0.14-2.56,0.08-2.36z"/>
<path d="M3.12,0.55c0.23,0.2,0.35,0.43,0.38,0.71c0.02,0.28-0.07,0.53-0.28,0.75C3,2.23,2.73,2.35,2.42,2.36C2.1,2.37,1.82,2.28,1.58,2.08C1.34,1.88,1.22,1.64,1.2,1.35c-0.01-0.29,0.09-0.54,0.3-0.75C1.72,0.4,1.99,0.29,2.3,0.28S2.89,0.36,3.12,0.55z"/>
<rect fill="none" x="-12" y="-12" width="24" height="24"/>
</symbol>
<symbol  id="scallops" viewBox="-12 -12 24 24">
<path d="M.05-3.74l.21,0A2.35,2.35,0,0,1,1.74-3a2,2,0,0,1,.59,1.55v0l0,0A9.59,9.59,0,0,1-.08,3.27l-.39.47-.27-.55A14.26,14.26,0,0,1-2.33-1.89v-.05l0-.05A2,2,0,0,1-1.44-3.3,2.42,2.42,0,0,1,.05-3.74ZM-.11-3A1.44,1.44,0,0,0-1.55-1.89,13.06,13.06,0,0,0-.29,2.33,8.6,8.6,0,0,0,1.55-1.54a1.41,1.41,0,0,0-.38-1A1.62,1.62,0,0,0,.18-3Z"/>
<rect fill="none" x="-12" y="-12" width="24" height="24"/>
</symbol>
<symbol  id="sink" viewBox="-12 -12 24 24">
<path d="M.72,9.41H.9c1.94,0,3.26-.54,3.94-1.51a3.61,3.61,0,0,0,.33-.69,2,2,0,0,0,.11-.54V6.46l.69,0a2.8,2.8,0,0,1-.58,1.78C4.58,9.39,3.1,10,.93,10H-.93q-3.25,0-4.46-1.8a2.74,2.74,0,0,1-.43-.83A2.37,2.37,0,0,1-6,6.67V6.43l.68,0A2.27,2.27,0,0,0-4.84,7.9c.68,1,2,1.47,3.93,1.48l.5,0ZM-1.46-10a.68.68,0,0,0,.16.41A2.77,2.77,0,0,0-.51-9l0,0a3.63,3.63,0,0,1,1,.7,1.15,1.15,0,0,1,.34.88c0,.58-.53,1.14-1.49,1.68-.68.42-1,.79-1,1.11s.3.61.84,1h0Q.61-2.86.46-1.78a3.51,3.51,0,0,1-1.55,2,.61.61,0,0,0-.26.41,1.67,1.67,0,0,0,.1.51,5.3,5.3,0,0,1,.32,1L.56,1.9.46,8.06-3.4,2.54l1.73-.28A6.16,6.16,0,0,0-2,1.39,1.7,1.7,0,0,1-2.09.58a1.21,1.21,0,0,1,.53-.82h0v0C-.75-.86-.33-1.38-.28-1.85s-.23-.87-.91-1.27h0C-2-3.6-2.37-4.1-2.4-4.61S-2-5.74-1.09-6.29C-.34-6.72.06-7.1.09-7.44a.67.67,0,0,0-.18-.43,3.17,3.17,0,0,0-.79-.58,2.93,2.93,0,0,1-1-.67A1.16,1.16,0,0,1-2.17-10Z"/>
<rect fill="none" x="-12" y="-12" width="24" height="24"/>
</symbol>
<symbol  id="spring" viewBox="-12 -12 24 24">
<path d="M-1.34-9.86,2.52-4.34.78-4.06a8,8,0,0,0,.29.87,1.4,1.4,0,0,1,.13.79,1.3,1.3,0,0,1-.52.84l0,0v0C-.13-.95-.55-.42-.61,0S-.37.91.31,1.3l0,0c.75.46,1.14,1,1.18,1.46S1.12,3.92.21,4.46C-.54,4.9-.94,5.29-1,5.64a.74.74,0,0,0,.18.43A3.2,3.2,0,0,0,0,6.62a3,3,0,0,1,1,.7,1.14,1.14,0,0,1,.31.86A1.74,1.74,0,0,1,.71,9.26H.92c1.92,0,3.22-.52,3.9-1.51a2.05,2.05,0,0,0,.35-.67,2.59,2.59,0,0,0,.1-.55l0-.19.65,0a2.84,2.84,0,0,1-.55,1.8C4.58,9.26,3.08,9.85.92,9.86H-.92c-2.17,0-3.66-.6-4.49-1.77a3.65,3.65,0,0,1-.4-.85A2.43,2.43,0,0,1-6,6.53V6.29l.66,0a2.08,2.08,0,0,0,.47,1.41c.68,1,2,1.5,3.91,1.51H-.4c.62-.43.94-.8,1-1.1a.76.76,0,0,0-.16-.43,3.25,3.25,0,0,0-.79-.51v0a3.8,3.8,0,0,1-1-.7,1.15,1.15,0,0,1-.34-.91q.06-.84,1.5-1.68c.68-.4,1-.77,1-1.1S.49,2.21,0,1.87c0,0,0,0,0,0C-1,1.32-1.44.69-1.34,0a3.58,3.58,0,0,1,1.55-2,.54.54,0,0,0,.23-.38A1.28,1.28,0,0,0,.37-3a4.57,4.57,0,0,1-.32-1l-1.49.24Z"/>
<rect fill="none" x="-12" y="-12" width="24" height="24"/>
</symbol>
<symbol  id="stalactite" viewBox="-12 -12 24 24">
<path d="M3.57-6.69l.52.53L.39-3V6.12H-.39V-3l-3.7-3.14.52-.53L0-3.67Z"/>
<rect fill="none" x="-12" y="-12" width="24" height="24"/>
</symbol>
<symbol  id="stalagmite" viewBox="-12 -12 24 24">
<path d="M.38-6.42V2.75L4.11,5.89l-.56.53L0,3.4l-3.57,3-.53-.53,3.7-3.14V-6.42Z"/>
<rect fill="none" x="-12" y="-12" width="24" height="24"/>
</symbol>
<symbol  id="stalagnate" viewBox="-12 -12 24 24">
<path d="M3.55-8.46l.56.53L.38-4.78v9L4.11,7.36l-.56.53L0,4.86l-3.57,3-.53-.53,3.7-3.14v-9l-3.7-3.15.53-.53L0-5.43Z"/>
<rect fill="none" x="-12" y="-12" width="24" height="24"/>
</symbol>
<symbol  id="straws" viewBox="-12 -12 24 24">
<path d="M-10.89-2.76H10.89V-2H9.63V.46H8.84V-2H8.29v5.6H7.5V-2H5.56V.7H4.77V-2H2.07V2.38H1.29V-2H-.1v3H-.89V-2H-3.2V4.11H-4V-2H-6.22L-6.16.75l-.79,0L-7-2H-8.32V2.33H-9.1V-2h-1.79Z"/>
<rect fill="none" x="-12" y="-12" width="24" height="24"/>
</symbol>
<symbol  id="water" viewBox="-12 -12 24 24">
<path d="M-1.72-9.86,2.11-4.32.38-4.06a6.49,6.49,0,0,0,.29.89,1.5,1.5,0,0,1,.13.79,1.2,1.2,0,0,1-.5.82h0l0,0C-.54-.94-1-.42-1,.05s.24.89.92,1.27h0c.77.48,1.17,1,1.19,1.49S.71,3.94-.2,4.49c-.75.43-1.13.81-1.15,1.15a.51.51,0,0,0,.18.43,2.66,2.66,0,0,0,.76.58,2.93,2.93,0,0,1,1,.67,1.16,1.16,0,0,1,.29.89C.84,8.75.42,9.3-.41,9.86l-.44-.55c.66-.45,1-.83,1-1.15A.47.47,0,0,0,0,7.75a2.84,2.84,0,0,0-.78-.53h0a3.87,3.87,0,0,1-1-.69,1.24,1.24,0,0,1-.34-.91c0-.58.54-1.14,1.52-1.68.66-.42,1-.79,1-1.11s-.3-.61-.84-1h0Q-1.9,1.06-1.74,0a3.44,3.44,0,0,1,1.54-2,.67.67,0,0,0,.27-.41A1.11,1.11,0,0,0,0-3a4.33,4.33,0,0,1-.31-1l-1.5.24Z"/>
<rect fill="none" x="-12" y="-12" width="24" height="24"/>
</symbol><symbol  id="tree" viewBox="-12 -12 24 24">
<path d="M7.4-5.04A4.271,4.271,0,0,0,7.7-6.627a4.3,4.3,0,0,0-4.3-4.3A4.279,4.279,0,0,0,.636-9.914,4.293,4.293,0,0,0-3.045-12a4.3,4.3,0,0,0-4.3,4.3,4.27,4.27,0,0,0,.421,1.845,4.3,4.3,0,0,0-3.645,4.244,4.3,4.3,0,0,0,4.3,4.3A4.282,4.282,0,0,0-3.946,2L-1.175,5.23h0L-1.612,12H.982L.757,6.376,4.119,2.827v0a4.272,4.272,0,0,0,2.15.58,4.3,4.3,0,0,0,4.3-4.3A4.3,4.3,0,0,0,7.4-5.04ZM-3.346,1.538h0A4.346,4.346,0,0,0-2.7.788a4.266,4.266,0,0,0,1.765.753l-.135,2.087ZM.69,4.7.563,1.544A4.258,4.258,0,0,0,2.321.805,4.3,4.3,0,0,0,3.378,2.279Z"/>
<rect fill="none" x="-12" y="-12" width="24" height="24"/>
</symbol><g>
<desc></desc>
<g>
<line fill="none" stroke="#dddddd" stroke-width="0.1mm" x1="0.00" y1="33.00" x2="68.00" y2="33.00" />
<text x="65.20" y="32.80" font-size=".2mm" fill="#000000">0m</text>
<line fill="none" stroke="#dddddd" stroke-width="0.1mm" x1="0.00" y1="13.00" x2="68.00" y2="13.00" />
<text x="65.20" y="12.80" font-size=".2mm" fill="#000000">10m</text>
<line fill="none" stroke="#dddddd" stroke-width="0.1mm" x1="0.00" y1="53.00" x2="68.00" y2="53.00" />
<text x="65.20" y="52.80" font-size=".2mm" fill="#000000">-10m</text>
<line fill="none" stroke="#dddddd" stroke-width="0.1mm" x1="0.00" y1="73.00" x2="68.00" y2="73.00" />
<text x="65.20" y="72.80" font-size=".2mm" fill="#000000">-20m</text>
<line fill="none" stroke="#dddddd" stroke-width="0.1mm" x1="0.00" y1="93.00" x2="68.00" y2="93.00" />
<text x="65.20" y="92.80" font-size=".2mm" fill="#000000">-30m</text>
<line fill="none" stroke="#dddddd" stroke-width="0.1mm" x1="49.00" y1="0.00" x2="49.00" y2="112.00" />
<text x="49.40" y="2.00" font-size=".2mm" fill="#000000">0m</text>
<line fill="none" stroke="#dddddd" stroke-width="0.1mm" x1="29.00" y1="0.00" x2="29.00" y2="112.00" />
<text x="29.40" y="2.00" font-size=".2mm" fill="#000000">-10m</text>
<line fill="none" stroke="#dddddd" stroke-width="0.1mm" x1="9.00" y1="0.00" x2="9.00" y2="112.00" />
<text x="9.40" y="2.00" font-size=".2mm" fill="#000000">-20m</text>
</g>
<g>
<path fill="none" stroke="#000000" stroke-width="0.06mm" d="M48.0091,40.24968 C47.609596,41.28436 47.877296,40.69295 47.1221,41.983463 L47.1221,41.983463" /><path fill="none" stroke="#000000" stroke-width="0.06mm" d="M46.15136,39.192036 C45.453064,40.197998 46.547527,38.669727 45.060703,40.392303 C44.850418,40.635933 44.69483,40.922123 44.50031,41.178513 C44.350918,41.37542 44.37799,41.242233 44.21356,41.43888 C43.641785,42.122665 43.068466,42.805763 42.523594,43.51117 C41.814705,44.42891 42.478134,43.74125 42.209473,44.015 L42.209473,44.015" /><path fill="none" stroke="#000000" stroke-width="0.06mm" d="M45.472153,38.931503 C45.409935,38.90136 45.345707,38.875057 45.2855,38.841076 C45.25182,38.822067 45.184433,38.75904 45.166065,38.725185 C45.008564,38.434875 44.861492,38.139027 44.709206,37.845947 L44.709206,37.845947" /><path fill="none" stroke="#000000" stroke-width="0.06mm" d="M43.76948,36.81312 L43.446934,36.096657" /><path fill="none" stroke="#000000" stroke-width="0.06mm" d="M42.94761,35.138268 C42.758392,34.01069 42.882576,34.53082 42.60025,33.571968 L42.60025,33.571968" /><path fill="none" stroke="#000000" stroke-width="0.06mm" d="M50.898865,59.869102 L50.920147,59.806923" /><path fill="none" stroke="#000000" stroke-width="0.06mm" d="M47.977535,40.066666 C47.407433,40.203808 46.86003,40.088898 46.332012,39.8562 C46.19305,39.794964 46.04547,39.739258 45.93177,39.638596 C45.843067,39.560066 45.807125,39.437088 45.744804,39.336334 L45.744804,39.336334" /><path fill="none" stroke="#000000" stroke-width="0.06mm" d="M45.870003,40.0458 C46.211117,39.305218 46.013916,39.69703 46.475136,38.877266 L46.475136,38.877266" /><path fill="none" stroke="#000000" stroke-width="0.06mm" d="M47.2472,40.191864 C47.246487,39.638744 47.21981,39.931732 47.351536,39.315468 L47.351536,39.315468" /><path fill="none" stroke="#000000" stroke-width="0.06mm" d="M47.8732,40.170998 C48.02337,39.903618 47.930016,40.059124 48.165333,39.71193 L48.165333,39.71193" /><path fill="none" stroke="#000000" stroke-width="0.06mm" d="M54.675724,33.431076 C54.36772,34.13258 54.49994,33.752388 54.300125,34.57874 L54.300125,34.57874" /><path fill="none" stroke="#000000" stroke-width="0.06mm" d="M53.507195,36.24807 C53.27186,36.808968 53.376167,36.52378 53.19419,37.1036 L53.19419,37.1036" /><path fill="none" stroke="#000000" stroke-width="0.06mm" d="M52.150864,38.313866 C51.764923,38.676064 51.92747,38.49125 51.650063,38.8564 L51.650063,38.8564" /><path fill="none" stroke="#000000" stroke-width="0.06mm" d="M50.398064,39.71193 C49.83769,39.654514 49.285107,39.83652 48.7496,39.9832 L48.7496,39.9832" /><path fill="none" stroke="#000000" stroke-width="0.06mm" d="M54.02886,32.408607 C52.62664,31.445578 53.171764,31.879955 52.33866,31.177477 L52.33866,31.177477" /><path fill="none" stroke="#000000" stroke-width="0.06mm" d="M51.04493,29.758545 L50.10593,28.089214" /><path fill="none" stroke="#000000" stroke-width="0.06mm" d="M49.772064,36.435867 L51.21186,36.832336" /><path fill="none" stroke="#000000" stroke-width="0.06mm" d="M46.809002,42.048996 L46.78855,42.04941" /><path fill="none" stroke="#000000" stroke-width="0.06mm" d="M49.542534,26.962418 C48.703106,25.551105 48.97243,26.143307 48.60353,25.251352 L48.60353,25.251352" /><path fill="none" stroke="#000000" stroke-width="0.06mm" d="M47.9358,23.20642 C47.20897,22.680393 47.728054,23.08663 46.5586,21.78749 L46.5586,21.78749" /><path fill="none" stroke="#000000" stroke-width="0.06mm" d="M46.28734,20.681557 C45.968784,20.379715 45.932602,19.809076 45.598736,19.49216 L45.598736,19.49216" /><path fill="none" stroke="#000000" stroke-width="0.06mm" d="M43.658142,32.59641 L44.868404,31.53221" /><path fill="none" stroke="#000000" stroke-width="0.06mm" d="M45.619602,30.426277 C45.63338,29.796062 45.643726,30.186975 45.51527,29.257748 L45.51527,29.257748" /><path fill="none" stroke="#000000" stroke-width="0.06mm" d="M45.682205,27.317148 C45.39412,26.606432 45.547207,26.880972 45.285736,26.461617 L45.285736,26.461617" /><path fill="none" stroke="#000000" stroke-width="0.06mm" d="M39.02575,59.681305 L39.026165,59.66085" /><path fill="none" stroke="#26B8EE" stroke-width="0.06mm" d="M50.231133,36.68627 C50.18219,36.796608 50.126354,36.90414 50.08431,37.017284 C50.063416,37.073498 50.05552,37.13374 50.04304,37.192394 C49.993168,37.426838 49.945858,37.66182 49.897266,37.896534 L49.897266,37.896534" /><path fill="none" stroke="#26B8EE" stroke-width="0.06mm" d="M50.314598,36.81147 C52.216232,37.01462 51.536335,36.84211 52.40126,37.082733 L52.40126,37.082733" /><path fill="none" stroke="#000000" stroke-width="0.06mm" d="M53.987125,34.537006 L52.213463,34.161407" /><path fill="none" stroke="#000000" stroke-width="0.06mm" d="M53.694992,32.15821 L52.359528,33.18067" /><path fill="none" stroke="#000000" stroke-width="0.06mm" d="M51.816994,31.094011 C51.60395,31.489567 51.220413,31.718552 50.836266,31.928677 L50.836266,31.928677" /><path fill="none" stroke="#000000" stroke-width="0.06mm" d="M52.60993,37.2288 C52.59137,37.13651 52.577908,37.04304 52.554253,36.951923 C52.482727,36.676403 52.023804,36.412937 51.90628,36.328754 C51.57918,36.094444 51.23467,35.885452 50.898865,35.663803 L50.898865,35.663803" /><path fill="none" stroke="#000000" stroke-width="0.06mm" d="M50.606728,39.211132 L49.542534,37.416603" /><path fill="none" stroke="#000000" stroke-width="0.06mm" d="M48.394867,40.317066 C48.519844,38.86832 48.4691,39.833908 48.353134,37.416603 L48.353134,37.416603" /><path fill="none" stroke="#000000" stroke-width="0.06mm" d="M44.47194,38.021736 C46.213062,36.5708 45.635044,37.17771 46.370804,36.373272 L46.370804,36.373272" /><path fill="none" stroke="#000000" stroke-width="0.06mm" d="M43.261673,35.93507 C44.120113,35.42146 43.499454,35.777214 45.181404,34.975204 L45.181404,34.975204" /><path fill="none" stroke="#000000" stroke-width="0.06mm" d="M43.53294,32.554676 L45.66134,33.243275" /><path fill="none" stroke="#000000" stroke-width="0.06mm" d="M45.786537,31.010544 C47.573112,31.524115 46.892765,31.35791 47.8106,31.573944 L47.8106,31.573944" /><path fill="none" stroke="#000000" stroke-width="0.06mm" d="M44.430206,25.68955 C44.41139,25.553644 44.400253,25.416452 44.373753,25.281834 C44.36186,25.221405 44.345257,25.160402 44.315434,25.106516 C44.01574,24.564972 43.696396,24.034542 43.386875,23.498554 L43.386875,23.498554" /><path fill="none" stroke="#26B8EE" stroke-width="0.06mm" d="M48.60353,34.850006 C48.679665,34.774357 48.751057,34.680145 48.85117,34.63103 C49.269543,34.425766 49.82579,34.500767 50.26156,34.538612 C50.494026,34.558804 50.934483,34.719376 51.006268,34.98684 C51.0619,35.194138 50.913944,35.41275 50.770573,35.545433 C50.6288,35.67664 50.351696,35.888973 50.143566,35.955235 C49.681644,36.102295 49.214497,36.233276 48.744995,36.353977 C48.547848,36.404663 48.127045,36.45356 47.95795,36.277897 C47.918816,36.23724 47.898426,36.17357 47.89492,36.118538 C47.87587,35.819424 47.904327,35.55922 48.07552,35.302418 C48.325497,34.927425 48.80359,34.718605 49.231197,34.64454 C49.568783,34.586067 49.910442,34.55058 50.252167,34.525894 C50.38163,34.516544 50.654682,34.50919 50.771694,34.634857 C50.82437,34.69143 50.84096,34.765408 50.846775,34.840343 C50.87056,35.14692 50.4054,35.36745 50.247414,35.466686 C50.037216,35.598724 49.820526,35.724876 49.589314,35.815197 C49.075798,36.015797 48.531788,36.078537 47.98727,36.115326 C47.950245,36.11783 47.417526,36.099583 47.43588,35.97815 C47.43851,35.960735 47.45,35.943825 47.464386,35.93367 C47.5351,35.883747 47.60842,35.836075 47.687374,35.800594 C48.141964,35.5963 48.59904,35.396793 49.063156,35.215176 C49.307163,35.11969 49.521584,35.110474 49.75835,35.205704 C49.78276,35.215523 49.811165,35.239326 49.825363,35.261898 C49.896675,35.37529 49.753033,35.5423 49.69096,35.612457 C49.482224,35.84839 49.15074,35.891254 48.85256,35.93583 C48.58501,35.975826 48.313255,35.981827 48.042904,35.991486 C47.968155,35.994156 47.89304,35.985245 47.819294,35.972744 C47.805798,35.970455 47.793793,35.959602 47.786507,35.948013 C47.732986,35.862877 47.96298,35.664143 48.000904,35.634834 C48.056152,35.59214 48.111942,35.546494 48.17725,35.521782 C48.52169,35.39145 48.86915,35.266052 49.225105,35.171604 C49.438198,35.115063 49.66033,35.10064 49.8787,35.07033 C49.980854,35.056156 50.081444,35.101517 50.109795,35.205456 C50.146687,35.340714 50.088577,35.464844 49.994144,35.562607 C49.536964,36.035923 48.822166,36.91535 48.15233,36.232384 C48.02402,36.10156 47.907436,35.924232 47.9031,35.73459 C47.900448,35.61858 47.941154,35.501873 48.00356,35.40525 C48.40286,34.786976 49.591976,35.020943 50.091328,35.08865 C50.323757,35.120163 50.54847,35.194763 50.77415,35.258682 C50.789703,35.26309 50.802017,35.277626 50.80937,35.292027 C50.880047,35.430508 50.41833,35.610672 50.378822,35.62112 C49.42698,35.872833 49.208813,35.921127 48.26773,35.97366 C48.18096,35.9785 48.09399,35.964577 48.007793,35.9535 C47.98424,35.950474 47.95707,35.92975 47.94832,35.90724 C47.896996,35.775238 48.18491,35.52422 48.26837,35.46766 C48.837624,35.081875 49.799343,35.087646 50.463215,35.120445 C50.59857,35.127132 50.73282,35.154694 50.864037,35.188576 C50.878147,35.19222 50.888992,35.215855 50.88179,35.228523 C50.8685,35.25191 50.840122,35.263866 50.815323,35.27429 C50.69027,35.32683 50.56646,35.386982 50.434097,35.41663 C50.11839,35.487343 49.79889,35.548466 49.476383,35.574184 C49.2668,35.590897 49.056225,35.556473 48.846394,35.54324 C48.816715,35.54137 48.77752,35.533604 48.755962,35.509 C48.661587,35.401295 48.888737,35.14245 48.966038,35.086777 C49.297787,34.847847 49.76725,34.83822 50.149807,34.810493 C50.279873,34.80107 50.465496,34.829178 50.569122,34.91823 C50.78244,35.10155 50.20974,35.612022 50.09552,35.679127 C49.69808,35.91262 49.17188,36.22043 48.688744,36.34691 C48.4111,36.419594 48.16321,36.41763 47.877296,36.398945 C47.730263,36.389336 47.522903,36.34664 47.445156,36.200092 C47.321312,35.966656 47.43124,35.70937 47.587635,35.52099 C48.06892,34.94127 48.71727,34.767067 49.424213,34.576145 C49.586178,34.532402 49.871464,34.48264 49.958645,34.685898 C49.993908,34.76811 49.957382,34.85389 49.892254,34.910084 C49.649307,35.1197 49.41369,35.3391 49.155617,35.529793 C48.850487,35.75526 48.46829,35.903645 48.11322,36.02076 C47.960686,36.07107 47.78374,36.102547 47.625526,36.055233 C47.59728,36.046787 47.540306,36.027042 47.526634,35.991264 C47.496407,35.91215 47.68753,35.80682 47.704254,35.799606 C48.562668,35.429214 49.2138,35.146175 50.14138,35.158024 C50.26486,35.159603 50.387535,35.180298 50.509495,35.19967 C50.62668,35.218285 50.761578,35.270905 50.76025,35.409523 C50.75941,35.497013 50.708782,35.61183 50.634663,35.66127 C50.295902,35.887234 49.956295,36.113132 49.602356,36.31449 C49.164185,36.563766 48.725357,36.675156 48.225536,36.66816 C48.07264,36.66602 47.815655,36.668568 47.746056,36.48875 C47.720882,36.423717 47.7177,36.35076 47.719383,36.28237 C47.727997,35.932297 48.08042,35.727894 48.345814,35.57846 C48.816624,35.31336 49.23715,35.21807 49.776375,35.097355 C49.868595,35.07671 49.964127,35.07226 50.058613,35.070595 C50.077393,35.070267 50.099644,35.076466 50.110954,35.09146 C50.162415,35.15968 49.904373,35.318542 49.878918,35.326942 C49.49592,35.45329 49.114185,35.58941 48.719852,35.673973 C48.40557,35.74137 48.081978,35.755936 47.76153,35.78101 C47.7458,35.78224 47.715595,35.765102 47.724213,35.751884 C47.7452,35.719696 47.785786,35.704506 47.82118,35.68954 C47.945835,35.636833 48.0706,35.580616 48.202362,35.549713 C48.865425,35.39421 49.532745,35.256393 50.20218,35.131134 C50.216995,35.128365 50.211857,35.169094 50.19857,35.17621 C49.7432,35.41996 49.293503,35.679462 48.81492,35.873714 C48.424633,36.032124 48.008404,36.117268 47.602535,36.2299 C47.582565,36.235443 47.511757,36.241272 47.498444,36.20411 C47.45586,36.085217 47.80518,35.86874 47.81842,35.860256 C48.25833,35.578316 48.69093,35.28306 49.148563,35.030907 C49.373146,34.90716 49.6195,34.827477 49.85901,34.735912 C49.91636,34.72178 49.97371,34.70765 50.03106,34.69352 C50.03439,34.698822 50.04424,34.70404 50.04105,34.70943 C50.03037,34.727497 50.013485,34.741924 49.995777,34.753185 C49.813362,34.869198 49.6364,34.99622 49.441864,35.090504 C48.892418,35.35681 48.535194,35.48935 47.96088,35.576214 C47.82084,35.597397 47.67837,35.59985 47.53675,35.601883 C47.52392,35.602066 47.51032,35.59354 47.503315,35.582787 C47.485756,35.555813 47.5156,35.50646 47.52731,35.49059 C47.62005,35.36489 47.739754,35.26175 47.888016,35.20644 C48.144478,35.11077 48.461933,35.082165 48.722042,35.092464 C49.22248,35.112274 49.721466,35.163715 50.219074,35.220448 C50.33795,35.234 50.45249,35.273293 50.568398,35.302975 C50.59803,35.310562 50.627537,35.332714 50.623623,35.36679 C50.61509,35.441105 50.488773,35.53748 50.457428,35.56087 C50.35781,35.635216 50.2548,35.70566 50.146748,35.767105 C50.076466,35.807068 50.003376,35.84673 49.924385,35.86398 C49.08115,36.04815 48.98232,36.07484 48.259613,36.043533 C48.12656,36.03777 47.837666,35.945583 47.90162,35.752785 C47.911587,35.72274 47.94091,35.67123 47.961636,35.653915 C48.305874,35.36631 48.48676,35.227783 48.90657,35.04594 C49.07573,34.972668 49.254467,34.92348 49.430935,34.870163 C49.632195,34.80935 49.72545,34.89146 49.69219,35.095966 C49.68371,35.148094 49.661983,35.205906 49.632504,35.249832 C49.45235,35.518227 48.79155,35.909546 48.465286,36.040775 C48.28611,36.112843 48.095383,36.152035 47.909496,36.20443 C47.89063,36.209747 47.844067,36.217804 47.825096,36.199703 C47.80259,36.178226 47.823574,36.126816 47.832016,36.11089 C47.93122,35.923725 48.108242,35.74358 48.302406,35.657143 C48.959393,35.364674 49.62724,35.09657 50.298336,34.83811 C50.413593,34.79372 50.536003,34.767822 50.658203,34.749863 C50.67246,34.747765 50.69279,34.76704 50.688423,34.780773 C50.68003,34.80717 50.651978,34.823116 50.62968,34.83955 C50.57073,34.88301 50.51442,34.934326 50.445713,34.959698 C49.853203,35.17848 48.888515,35.54337 48.162323,35.647575 C48.14057,35.6507 48.181973,35.60609 48.19994,35.593433 C48.25489,35.554733 48.313282,35.51861 48.376766,35.496536 C48.621826,35.41135 48.8701,35.33389 49.12225,35.27282 C49.301304,35.229454 49.485905,35.21352 49.667732,35.183872 L49.667732,35.183872" /><path fill="none" stroke="#26B8EE" stroke-width="0.06mm" d="M48.916534,33.20154 C49.013676,32.730865 49.1335,32.26431 49.207962,31.78952 C49.23536,31.614857 49.32262,30.935238 49.156925,30.6791 C49.036163,30.492426 48.885128,30.323961 48.784863,30.125523 C48.49836,29.558495 48.24334,28.975592 47.99973,28.388857 C47.888935,28.122011 47.823368,27.838352 47.72278,27.567497 C47.704254,27.517624 47.658722,27.547552 47.63828,27.567663 C47.56586,27.638908 47.50974,27.767962 47.499638,27.868668 C47.450233,28.361204 47.41433,28.855015 47.367577,29.347813 C47.365295,29.371855 47.361656,29.396317 47.352577,29.418695 C47.314404,29.512793 47.268417,29.603529 47.226334,29.695946 L47.226334,29.695946" /><path fill="none" stroke="#26B8EE" stroke-width="0.06mm" d="M47.768867,27.713615 C49.52945,28.535353 48.904507,28.180353 49.709465,28.652615 L49.709465,28.652615" /><path fill="none" stroke="#000000" stroke-width="0.06mm" d="M42.861423,45.064106 C43.28506,44.66523 42.613518,45.285286 43.68389,44.446545 C43.949738,44.238228 44.184883,43.99169 44.45687,43.79146 C44.913067,43.455612 45.399647,43.163017 45.8654,42.840553 C45.952015,42.780586 46.024418,42.701046 46.11336,42.64458 C46.956173,42.109535 46.15304,42.752205 47.004173,42.01101 L47.004173,42.01101" /><path fill="none" stroke="#000000" stroke-width="0.06mm" d="M42.751198,45.127262 C43.04502,46.10582 42.84991,45.425972 42.871517,48.013573 C42.87574,48.519447 42.83441,49.024677 42.81586,49.530228 L42.81586,49.530228" /><path fill="none" stroke="#000000" stroke-width="0.06mm" d="M49.0,33.0 L49.0,33.0" /><path fill="none" stroke="#000000" stroke-width="0.06mm" d="M41.86943,44.198463 L41.869545,44.192703" /><path fill="none" stroke="#000000" stroke-width="0.06mm" d="M42.222137,44.10441 C42.21013,44.12714 42.196716,44.14918 42.18611,44.1726 C42.181263,44.18331 42.175983,44.194622 42.17596,44.206383 C42.17439,45.07017 42.183784,45.933964 42.181335,46.797752 C42.150043,48.467327 42.16929,46.791134 42.184242,48.260345 C42.195656,49.381855 42.117985,48.921246 42.21626,49.430294 L42.21626,49.430294" /><path fill="none" stroke="#26B8EE" stroke-width="0.06mm" d="M42.314583,48.881706 C42.37026,48.8127 42.429413,48.74636 42.481606,48.674683 C42.521297,48.62018 42.587917,48.478916 42.561325,48.405777 C42.5587,48.398552 42.555824,48.39122 42.551273,48.38502 C42.5152,48.33587 42.47444,48.290188 42.43972,48.240074 C42.40602,48.19144 42.385357,48.123928 42.385372,48.064697 C42.38541,47.8972 42.501614,47.765846 42.59173,47.638412 L42.59173,47.638412" /><path fill="none" stroke="#26B8EE" stroke-width="0.06mm" d="M42.53675,47.779797 L42.573776,48.054714" /><path fill="none" stroke="#26B8EE" stroke-width="0.06mm" d="M42.216965,47.704617 L42.49748,47.64402" /><path fill="none" stroke="#26B8EE" stroke-width="0.06mm" d="M42.41669,47.170494 C42.55439,46.922264 42.5609,46.922768 42.577137,46.63562 C42.581676,46.555374 42.54795,46.464493 42.492752,46.40645 C42.4301,46.34056 42.30906,46.342922 42.269615,46.266693 C42.242878,46.21501 42.24912,46.126865 42.25498,46.07859 C42.276623,45.900253 42.329716,45.838936 42.435764,45.702774 L42.435764,45.702774" /><path fill="none" stroke="#26B8EE" stroke-width="0.06mm" d="M42.374054,45.73307 C42.211613,45.79742 42.30729,45.754333 42.093544,45.87558 L42.093544,45.87558" /><path fill="none" stroke="#26B8EE" stroke-width="0.06mm" d="M42.440254,45.882313 C42.50023,46.054848 42.47958,46.016552 42.573776,46.14264 L42.573776,46.14264" /><path fill="none" stroke="#26B8EE" stroke-width="0.06mm" d="M49.47242,39.265514 C48.804745,39.510853 49.03837,39.370533 48.719147,39.58336 L48.719147,39.58336" /><path fill="none" stroke="#26B8EE" stroke-width="0.06mm" d="M45.027863,39.578354 L45.27812,39.67095" /><path fill="none" stroke="#26B8EE" stroke-width="0.06mm" d="M45.31065,39.660942 L45.33101,39.661278" /><path fill="none" stroke="#26B8EE" stroke-width="0.06mm" d="M49.0,33.0 L49.0,33.0" /><path fill="none" stroke="#26B8EE" stroke-width="0.06mm" d="M45.33568,39.693478 C45.45861,39.809494 45.3936,39.76504 45.52587,39.83363 L45.52587,39.83363" /><path fill="none" stroke="#26B8EE" stroke-width="0.06mm" d="M45.708557,39.650932 L45.708897,39.511116" /><path fill="none" stroke="#26B8EE" stroke-width="0.06mm" d="M45.708557,39.50077 L45.708897,39.478584" /><path fill="none" stroke="#26B8EE" stroke-width="0.06mm" d="M45.708557,39.46573 L45.70389,39.348442" /><path fill="none" stroke="#26B8EE" stroke-width="0.06mm" d="M42.89818,46.32817 C42.953457,46.179832 43.002632,46.029076 43.064014,45.883156 C43.13735,45.708824 43.51004,45.358658 43.522194,45.347343 C43.80376,45.085148 44.14226,44.907173 44.45864,44.69374 C44.555824,44.628178 44.557285,44.499928 44.590294,44.401695 C44.64312,44.244476 44.769207,44.087242 44.914936,44.006287 C45.10802,43.89902 45.60728,43.832684 45.64505,43.822674 C45.783344,43.786026 45.961014,43.65782 46.04633,43.54355 C46.188553,43.353054 46.243973,43.25556 46.32393,43.04295 C46.454155,42.696655 46.51784,42.372353 46.7921,42.10078 C46.914024,41.98005 46.94059,41.9817 47.081806,41.901466 C47.2521,41.80471 47.42654,41.714737 47.591694,41.609444 C47.864582,41.43546 47.92349,41.132095 48.04688,40.85478 C48.07609,40.78912 48.137726,40.736233 48.14994,40.665417 C48.15446,40.63921 48.098877,40.680992 48.074883,40.692455 C47.870552,40.790047 47.668537,40.89241 47.465363,40.992386 L47.465363,40.992386" /><path fill="none" stroke="#26B8EE" stroke-width="0.06mm" d="M48.086,40.744617 L48.101013,41.90087" /><path fill="none" stroke="#26B8EE" stroke-width="0.06mm" d="M48.36879,40.554413 C48.32597,40.433804 48.271755,40.29362 48.314327,40.162117 C48.652588,39.117233 48.48691,39.752655 48.916874,38.69577 C48.95087,38.61221 48.970245,38.522964 48.98634,38.4342 C48.98921,38.418365 48.988655,38.389854 48.972687,38.387897 C48.950977,38.38524 48.93499,38.410786 48.919266,38.425983 C48.745182,38.594223 48.575638,38.7671 48.403824,38.93766 L48.403824,38.93766" /><path fill="none" stroke="#26B8EE" stroke-width="0.06mm" d="M48.87681,38.48467 C48.938763,38.598473 49.000717,38.71228 49.062668,38.826088 C49.099865,38.930557 49.24158,39.22762 49.17426,39.139496 C49.00855,38.92258 48.899216,38.667908 48.761692,38.43211 L48.761692,38.43211" /><path fill="none" stroke="#000000" stroke-width="0.06mm" d="M41.92179,50.742004 C41.82482,51.547646 41.916904,51.2636 41.785557,51.627563 L41.785557,51.627563" /><path fill="none" stroke="#000000" stroke-width="0.06mm" d="M42.190247,49.325516 C41.94743,50.54589 42.0637,49.899998 41.849667,51.26493 L41.849667,51.26493" /><path fill="none" stroke="#000000" stroke-width="0.06mm" d="M42.73918,49.620033 C42.769867,50.459652 42.71662,50.287434 42.96995,51.17095 C43.03649,51.40303 43.05171,51.397156 43.177925,51.537407 L43.177925,51.537407" /><path fill="none" stroke="#000000" stroke-width="0.06mm" d="M43.408318,51.797863 C44.541542,52.69495 45.177288,53.171936 46.22926,54.09382 C46.499355,54.330513 46.411236,54.349815 46.67788,54.470566 L46.67788,54.470566" /><path fill="none" stroke="#000000" stroke-width="0.06mm" d="M41.777546,51.743767 C41.85211,51.844826 41.918922,51.952087 42.001244,52.046932 C42.592293,52.727875 43.47772,53.548424 44.048462,54.11805 C44.635902,54.704346 44.121983,54.294563 45.10481,55.115578 C45.287533,55.26822 45.465107,55.33017 45.680183,55.428253 L45.680183,55.428253" /><path fill="none" stroke="#000000" stroke-width="0.06mm" d="M46.42946,54.406452 C46.571396,54.60862 46.947693,55.05783 47.075752,55.39448 C47.157387,55.609077 47.22261,55.82959 47.30039,56.045612 C47.33413,56.139336 47.387875,56.226456 47.410248,56.323524 C47.448444,56.489227 47.4669,56.65928 47.480904,56.828743 C47.549618,57.660385 47.42436,56.759796 47.493267,57.227417 L47.493267,57.227417" /><path fill="none" stroke="#000000" stroke-width="0.06mm" d="M45.46181,55.366142 C45.563133,55.49077 45.59494,55.621147 45.628094,55.772858 L45.628094,55.772858" /><path fill="none" stroke="#26B8EE" stroke-width="0.06mm" d="M44.928905,54.170036 C44.92222,54.1025 44.91971,54.034416 44.90884,53.967422 C44.880974,53.795685 44.754253,53.60569 44.587425,53.54044 C44.402897,53.468266 44.212658,53.411407 44.027584,53.340633 C44.00659,53.332603 43.987732,53.31913 43.97061,53.30456 C43.8651,53.21478 43.810684,53.116245 43.7357,52.991043 C43.71291,52.952995 43.691772,52.913246 43.678383,52.87096 C43.660553,52.814667 43.654606,52.755283 43.64272,52.697445 L43.64272,52.697445" /><path fill="none" stroke="#26B8EE" stroke-width="0.06mm" d="M43.51049,52.731506 C43.558098,52.92686 43.562218,53.117485 43.536537,53.316536 L43.536537,53.316536" /><path fill="none" stroke="#26B8EE" stroke-width="0.06mm" d="M43.56659,52.70546 L44.46812,53.042053" /><path fill="none" stroke="#000000" stroke-width="0.06mm" d="M43.001625,51.577477 C42.6211,51.529007 42.725586,51.527634 42.208855,51.569923 C42.10637,51.578312 41.93986,51.648697 41.87133,51.727295 C41.83477,51.769226 41.811478,51.82109 41.78155,51.86799 L41.78155,51.86799" /><path fill="none" stroke="#000000" stroke-width="0.06mm" d="M42.15619,51.533398 C42.100323,51.390205 42.07498,51.29814 42.08607,51.15874 L42.08607,51.15874" /><path fill="none" stroke="#000000" stroke-width="0.06mm" d="M42.482742,51.593506 C42.42072,51.210922 42.43111,51.355446 42.42064,51.162746 L42.42064,51.162746" /><path fill="none" stroke="#000000" stroke-width="0.06mm" d="M42.699112,51.525383 L42.695107,51.168755" /><path fill="none" stroke="#000000" stroke-width="0.06mm" d="M45.547215,55.771652 C45.80702,55.95925 45.61827,55.818016 46.13353,56.379158 C46.25334,56.509636 46.2906,56.543797 46.359898,56.683807 C46.38763,56.739845 46.40193,56.83233 46.413548,56.884914 L46.413548,56.884914" /><path fill="none" stroke="#000000" stroke-width="0.06mm" d="M47.367775,57.198803 C47.337967,57.204594 47.32098,57.204437 47.29643,57.217773 C47.24966,57.243183 47.174374,57.333527 47.165493,57.34279 C46.28849,58.258476 45.411488,59.174164 44.534485,60.08985 C44.489674,60.146755 44.44876,60.206955 44.40005,60.26056 C44.300552,60.370056 44.198235,60.477253 44.090397,60.578545 C43.577698,61.060112 44.085117,60.53691 43.8271,60.806442 L43.8271,60.806442" /><path fill="none" stroke="#000000" stroke-width="0.06mm" d="M46.33403,56.8891 C46.206135,57.097145 46.104195,57.323578 45.950344,57.51324 C45.18703,58.45424 45.336536,58.180817 44.697803,58.733932 C44.590176,58.827133 44.487076,58.925617 44.386738,59.026627 C43.961014,59.455193 43.54559,59.893906 43.119835,60.32244 C43.02265,60.395794 43.06148,60.359573 42.99843,60.42559 L42.99843,60.42559" /><path fill="none" stroke="#26B8EE" stroke-width="0.06mm" d="M45.844364,57.989807 C45.785686,58.030655 45.756428,58.092773 45.71298,58.147926 C45.611835,58.276318 45.71853,58.05536 45.567196,58.38394 C45.493282,58.544422 45.43108,58.710083 45.35884,58.871326 C45.34791,58.89572 45.318924,58.937252 45.29605,58.956604 C45.198147,59.03943 44.945206,59.146973 44.90929,59.1632 C44.903362,59.16588 44.6845,59.22319 44.633198,59.285263 C44.58696,59.34121 44.561623,59.429153 44.548332,59.49945 C44.54304,59.527443 44.541832,59.556057 44.53858,59.584366 L44.53858,59.584366" /><path fill="none" stroke="#26B8EE" stroke-width="0.06mm" d="M45.823437,58.014915 C45.803352,58.025818 45.78424,58.038742 45.76318,58.047615 C45.743233,58.056023 45.722153,58.061703 45.701046,58.066505 C45.607014,58.0879 45.511654,58.103355 45.41795,58.126152 C45.40422,58.129494 45.39252,58.13849 45.379807,58.144657 L45.379807,58.144657" /><path fill="none" stroke="#26B8EE" stroke-width="0.06mm" d="M45.869473,58.006546 L45.92388,58.236732" /><path fill="none" stroke="#000000" stroke-width="0.06mm" d="M43.994797,60.926765 C44.44568,61.189983 44.57339,61.252457 45.110508,61.71177 C45.318703,61.88981 45.50224,62.09558 45.68254,62.30182 C45.81644,62.454983 45.926346,62.62761 46.051434,62.78805 C46.095394,62.844437 46.116264,62.84552 46.13984,62.896133 C46.153446,62.92534 46.149582,62.95531 46.159668,62.98429 C46.17981,63.042168 46.202816,63.099003 46.22439,63.156357 L46.22439,63.156357" /><path fill="none" stroke="#000000" stroke-width="0.06mm" d="M43.83554,60.858513 L43.96067,60.96089" /><path fill="none" stroke="#000000" stroke-width="0.06mm" d="M46.031006,63.088104 L46.156136,63.361115" /><path fill="none" stroke="#000000" stroke-width="0.06mm" d="M42.99704,60.499508 C43.031654,60.57467 43.04457,60.62133 43.104095,60.680508 C43.28164,60.857033 43.479477,61.01351 43.646828,61.199722 C43.7308,61.29316 43.785324,61.409355 43.853775,61.51469 C44.0003,61.740173 44.131428,61.976284 44.291756,62.19217 C44.83864,62.928574 44.467525,62.39278 44.7984,62.70543 C45.07712,62.968796 45.103504,63.00703 45.302856,63.238216 L45.302856,63.238216" /><path fill="none" stroke="#000000" stroke-width="0.06mm" d="M46.03539,63.82928 C45.426857,64.46975 44.81183,65.10411 44.209797,65.7507 C44.164627,65.79921 44.13192,65.85803 44.095104,65.91315 C44.083363,65.93073 44.080227,65.954704 44.064278,65.96858 C44.058662,65.973465 44.055546,65.95592 44.054405,65.94856 C44.051605,65.93051 44.05325,65.91205 44.052673,65.89379 L44.052673,65.89379" /><path fill="none" stroke="#000000" stroke-width="0.06mm" d="M46.134422,63.045135 C46.170982,63.25666 46.174694,63.484444 46.100967,63.689255 C46.021782,63.909225 46.053185,63.868473 45.962902,63.959972 L45.962902,63.959972" /><path fill="none" stroke="#000000" stroke-width="0.06mm" d="M45.24312,63.20135 C45.222656,63.240295 45.210857,63.285206 45.181732,63.31817 C44.951363,63.56311 44.720993,63.808052 44.490623,64.05299 C44.434635,64.106865 44.37564,64.15777 44.322666,64.2146 C44.1343,64.41667 43.94608,64.619125 43.766895,64.829384 C43.71616,64.888916 43.681484,64.960625 43.633953,65.02275 C43.59502,65.07363 43.54509,65.115685 43.50792,65.16788 C43.41601,65.30751 43.32411,65.44716 43.2322,65.58681 C43.228634,65.5892 43.22322,65.597946 43.221493,65.59401 C43.21537,65.580055 43.217487,65.5638 43.21548,65.54869 L43.21548,65.54869" /><path fill="none" stroke="#000000" stroke-width="0.06mm" d="M43.035217,65.57779 C43.046726,65.612656 43.063515,65.64988 43.05453,65.687645 C43.050068,65.70641 43.042213,65.724304 43.038296,65.743195 C43.030594,65.78029 43.03746,65.816925 43.02431,65.853226 C43.01093,65.89018 42.988815,65.92429 42.98056,65.96272 C42.71195,67.213486 42.965202,66.454124 42.554752,67.49379 L42.554752,67.49379" /><path fill="none" stroke="#000000" stroke-width="0.06mm" d="M44.060596,65.82974 C43.58145,67.45516 44.288258,65.08569 43.51921,67.5159 C43.499825,67.57715 43.49342,67.641785 43.480526,67.70473 L43.480526,67.70473" /><path fill="none" stroke="#000000" stroke-width="0.06mm" d="M43.398495,67.70473 C43.384995,67.7308 43.366905,67.754974 43.35799,67.78294 C43.183502,68.33044 43.036034,68.88664 42.848682,69.429855 C42.781956,69.62334 42.72097,69.66395 42.634518,69.7979 C42.629253,69.806046 42.625404,69.81508 42.621685,69.82404 C42.608574,69.85565 42.596596,69.88771 42.58405,69.91954 L42.58405,69.91954" /><path fill="none" stroke="#26B8EE" stroke-width="0.06mm" d="M42.265015,68.97953 C42.273384,68.95236 42.299873,68.842026 42.33028,68.80794 C42.62506,68.47746 42.987034,68.24873 43.036415,67.79324 C43.050907,67.65956 43.04652,67.52972 43.01314,67.39905 C42.984264,67.285995 42.9442,67.1761 42.908524,67.06502 C42.903023,67.04788 42.841278,66.93214 42.86641,66.882126 C42.89239,66.83044 43.050762,66.80144 43.054348,66.799774 C43.096863,66.780136 43.13417,66.75078 43.17408,66.72629 L43.17408,66.72629" /><path fill="none" stroke="#26B8EE" stroke-width="0.06mm" d="M43.080845,66.671906 C42.83398,66.6913 42.97855,66.66832 42.653503,66.7729 L42.653503,66.7729" /><path fill="none" stroke="#26B8EE" stroke-width="0.06mm" d="M43.18185,66.72629 L43.18962,66.86615" /><path fill="none" stroke="#000000" stroke-width="0.06mm" d="M42.487743,67.34955 C41.415546,68.86488 42.255302,67.784836 40.36705,69.693115 C40.261955,69.79933 40.17141,69.91901 40.073586,70.03195 L40.073586,70.03195" /><path fill="none" stroke="#000000" stroke-width="0.06mm" d="M42.60696,69.86803 C42.54037,69.88278 42.472397,69.8923 42.407192,69.91232 C42.364334,69.925476 42.32264,69.943756 42.28434,69.967064 C41.956074,70.16678 41.634583,70.377426 41.308533,70.580734 C41.19737,70.65005 41.08214,70.712875 40.972733,70.78493 C40.891964,70.83812 40.78887,70.95434 40.729282,71.015495 L40.729282,71.015495" /><path fill="none" stroke="#000000" stroke-width="0.06mm" d="M39.76064,69.912735 C37.91909,72.29724 38.31636,72.04315 36.67877,73.555916 C36.630085,73.60089 36.571804,73.63553 36.512142,73.6644 C36.2977,73.76814 35.907543,73.88252 35.672394,74.0675 C35.6202,74.10855 35.594612,74.15114 35.56056,74.206665 C35.435616,74.41043 35.331512,74.628204 35.187958,74.81931 C33.395203,77.20593 34.572327,75.44739 33.993492,76.32068 L33.993492,76.32068" /><path fill="none" stroke="#000000" stroke-width="0.06mm" d="M40.908108,70.89628 C40.251434,71.28971 39.993656,71.33632 39.570328,71.89017 C39.19155,72.385735 38.89762,72.94586 38.490417,73.418335 C37.668125,74.37245 36.761948,75.25096 35.890263,76.160164 C35.798103,76.25629 35.764824,76.23778 35.7107,76.329346 C35.69441,76.35691 35.680275,76.38597 35.669556,76.416145 C35.597874,76.617905 35.55363,76.83029 35.46369,77.024605 C35.346714,77.27732 35.188927,77.509056 35.051548,77.75128 L35.051548,77.75128" /><path fill="none" stroke="#000000" stroke-width="0.06mm" d="M34.923874,77.67636 C34.853962,77.71106 34.78085,77.73996 34.71413,77.780464 C34.659725,77.81349 34.61299,77.85776 34.56211,77.895996 C34.40867,78.01129 34.259674,78.13285 34.101166,78.24109 C33.931118,78.3572 33.733185,78.43391 33.577305,78.56845 C32.326073,79.64839 31.7594,80.46828 30.683542,81.878075 C30.515968,82.097664 30.385414,82.343475 30.224403,82.56792 C29.083584,84.1582 29.598717,83.280106 29.104416,84.15751 L29.104416,84.15751" /><path fill="none" stroke="#000000" stroke-width="0.06mm" d="M34.058594,76.08153 C33.769325,76.34386 33.480064,76.606186 33.190796,76.86853 C32.84217,77.12367 32.45501,77.33316 32.144913,77.633965 C31.640278,78.12346 31.238804,78.70984 30.760939,79.225494 C28.609686,81.546906 30.70497,79.1294 29.766102,80.22131 L29.766102,80.22131" /><path fill="none" stroke="#000000" stroke-width="0.06mm" d="M29.56251,80.05165 C26.609293,84.57411 29.264338,80.71909 27.662188,82.74306 C27.477427,82.976456 27.32755,83.236176 27.14201,83.46896 C27.035866,83.602135 26.901596,83.710526 26.789137,83.83841 C26.66693,83.97737 26.623667,84.17143 26.57643,84.34414 L26.57643,84.34414" /><path fill="none" stroke="#000000" stroke-width="0.06mm" d="M28.629358,84.25931 C28.474665,84.43946 28.291811,84.59883 28.165276,84.79976 C27.554573,85.769516 27.087957,86.83035 26.422617,87.763466 C25.625124,88.88191 24.677843,89.88571 23.7909,90.93464 C23.742014,90.99246 23.675467,91.032646 23.617302,91.081116 C23.498518,91.18011 23.371958,91.270294 23.26006,91.377 C23.05912,91.56862 23.019487,91.71358 22.836536,91.937805 C22.750559,92.04318 22.649115,92.13493 22.555403,92.2335 L22.555403,92.2335" /><path fill="none" stroke="#000000" stroke-width="0.06mm" d="M26.025375,84.18396 L26.025608,84.13785" /><path fill="none" stroke="#000000" stroke-width="0.06mm" d="M26.604774,83.91745 C26.002642,85.23996 26.734838,83.668274 25.019743,86.706116 C23.645031,89.14105 25.842909,85.99777 22.655169,90.52477 C22.487865,90.76237 22.257742,90.949036 22.06797,91.1691 C21.9935,91.25546 21.93429,91.35399 21.8632,91.443146 C21.843111,91.46834 21.79718,91.49687 21.768656,91.51006 C21.660784,91.55992 21.507391,91.601105 21.432499,91.70894 C21.197124,92.047844 20.971684,92.393555 20.741276,92.73586 L20.741276,92.73586" /><path fill="none" stroke="#000000" stroke-width="0.06mm" d="M20.521105,92.318695 C20.38566,92.33725 20.286064,92.305016 20.161879,92.26076 L20.161879,92.26076" /><path fill="none" stroke="#000000" stroke-width="0.06mm" d="M18.898796,91.68136 L18.470041,91.26419" /><path fill="none" stroke="#000000" stroke-width="0.06mm" d="M22.745989,92.38823 C22.567389,92.52945 22.388783,92.670685 22.21018,92.811905 C22.114264,92.89008 22.027473,92.98104 21.922426,93.04644 C21.426996,93.35487 21.012636,93.62473 20.461601,93.7628 C20.062563,93.86278 19.666431,93.81847 19.25802,93.813545 L19.25802,93.813545" /><text x="57.384666" y="27.885117" font-family="sans-serif" font-size=".2mm" fill="black">studnia eskapistw</text>
</g>
<g>
<line fill="none" stroke="#5674b9" stroke-width="0.05mm" stroke-dasharray="0.4,0.2" opacity="0.24" x1="49.00" y1="33.00" x2="45.36" y2="20.27" />
<line fill="none" stroke="#5674b9" stroke-width="0.05mm" stroke-dasharray="0.4,0.2" opacity="0.25" x1="49.00" y1="33.00" x2="43.02" y2="19.58" />
<line fill="none" stroke="#111111" stroke-width="0.05mm" x1="49.00" y1="33.00" x2="46.64" y2="39.43" />
<line fill="none" stroke="#00aeef" stroke-width="0.05mm" stroke-dasharray="0.4,0.2" opacity="0.29" x1="46.64" y1="39.43" x2="44.27" y2="45.86" />
<line fill="none" stroke="#111111" stroke-width="0.05mm" x1="46.64" y1="39.43" x2="42.38" y2="43.94" />
<line fill="none" stroke="#00aeef" stroke-width="0.05mm" stroke-dasharray="0.4,0.2" opacity="0.96" x1="42.38" y1="43.94" x2="42.84" y2="44.93" />
<line fill="none" stroke="#00aeef" stroke-width="0.05mm" stroke-dasharray="0.4,0.2" opacity="0.03" x1="42.38" y1="43.94" x2="42.49" y2="44.15" />
<line fill="none" stroke="#5674b9" stroke-width="0.05mm" stroke-dasharray="0.4,0.2" opacity="0.37" x1="42.38" y1="43.94" x2="42.54" y2="45.32" />
<line fill="none" stroke="#5674b9" stroke-width="0.05mm" stroke-dasharray="0.4,0.2" opacity="0.90" x1="42.38" y1="43.94" x2="41.67" y2="43.45" />
<line fill="none" stroke="#5674b9" stroke-width="0.05mm" stroke-dasharray="0.4,0.2" opacity="0.14" x1="42.38" y1="43.94" x2="41.98" y2="43.76" />
<line fill="none" stroke="#00aeef" stroke-width="0.05mm" stroke-dasharray="0.4,0.2" opacity="0.07" x1="42.38" y1="43.94" x2="41.83" y2="43.55" />
<line fill="none" stroke="#111111" stroke-width="0.05mm" x1="42.38" y1="43.94" x2="42.83" y2="49.67" />
<line fill="none" stroke="#5674b9" stroke-width="0.05mm" stroke-dasharray="0.4,0.2" opacity="0.94" x1="42.83" y1="49.67" x2="42.22" y2="49.30" />
<line fill="none" stroke="#5674b9" stroke-width="0.05mm" stroke-dasharray="0.4,0.2" opacity="0.17" x1="42.83" y1="49.67" x2="42.13" y2="49.36" />
<line fill="none" stroke="#00aeef" stroke-width="0.05mm" stroke-dasharray="0.4,0.2" opacity="0.10" x1="42.83" y1="49.67" x2="42.08" y2="50.36" />
<line fill="none" stroke="#111111" stroke-width="0.05mm" x1="42.83" y1="49.67" x2="41.86" y2="51.66" />
<line fill="none" stroke="#00aeef" stroke-width="0.05mm" stroke-dasharray="0.4,0.2" opacity="0.96" x1="41.86" y1="51.66" x2="43.09" y2="51.32" />
<line fill="none" stroke="#00aeef" stroke-width="0.05mm" stroke-dasharray="0.4,0.2" opacity="0.23" x1="41.86" y1="51.66" x2="42.00" y2="51.44" />
<line fill="none" stroke="#111111" stroke-width="0.05mm" x1="41.86" y1="51.66" x2="45.59" y2="55.28" />
<line fill="none" stroke="#00aeef" stroke-width="0.05mm" stroke-dasharray="0.4,0.2" opacity="0.94" x1="45.59" y1="55.28" x2="46.47" y2="54.29" />
<line fill="none" stroke="#00aeef" stroke-width="0.05mm" stroke-dasharray="0.4,0.2" opacity="0.36" x1="45.59" y1="55.28" x2="45.64" y2="55.04" />
<line fill="none" stroke="#5674b9" stroke-width="0.05mm" stroke-dasharray="0.4,0.2" opacity="0.12" x1="45.59" y1="55.28" x2="44.62" y2="56.43" />
<line fill="none" stroke="#111111" stroke-width="0.05mm" x1="45.59" y1="55.28" x2="47.53" y2="57.06" />
<line fill="none" stroke="#00aeef" stroke-width="0.05mm" stroke-dasharray="0.4,0.2" opacity="1.00" x1="47.53" y1="57.06" x2="46.45" y2="56.86" />
<line fill="none" stroke="#111111" stroke-width="0.05mm" x1="47.53" y1="57.06" x2="43.10" y2="60.43" />
<line fill="none" stroke="#00aeef" stroke-width="0.05mm" stroke-dasharray="0.4,0.2" opacity="0.09" x1="43.10" y1="60.43" x2="43.42" y2="59.87" />
<line fill="none" stroke="#5674b9" stroke-width="0.05mm" stroke-dasharray="0.4,0.2" opacity="0.03" x1="43.10" y1="60.43" x2="43.20" y2="60.60" />
<line fill="none" stroke="#5674b9" stroke-width="0.05mm" stroke-dasharray="0.4,0.2" opacity="0.98" x1="43.10" y1="60.43" x2="43.84" y2="60.72" />
<line fill="none" stroke="#5674b9" stroke-width="0.05mm" stroke-dasharray="0.4,0.2" opacity="0.01" x1="43.10" y1="60.43" x2="43.07" y2="60.37" />
<line fill="none" stroke="#5674b9" stroke-width="0.05mm" stroke-dasharray="0.4,0.2" opacity="0.97" x1="43.10" y1="60.43" x2="43.88" y2="60.59" />
<line fill="none" stroke="#00aeef" stroke-width="0.05mm" stroke-dasharray="0.4,0.2" opacity="0.14" x1="43.10" y1="60.43" x2="42.50" y2="61.16" />
<line fill="none" stroke="#111111" stroke-width="0.05mm" x1="43.10" y1="60.43" x2="46.29" y2="63.39" />
<line fill="none" stroke="#00aeef" stroke-width="0.05mm" stroke-dasharray="0.4,0.2" opacity="0.97" x1="46.29" y1="63.39" x2="45.62" y2="63.82" />
<line fill="none" stroke="#00aeef" stroke-width="0.05mm" stroke-dasharray="0.4,0.2" opacity="0.16" x1="46.29" y1="63.39" x2="45.26" y2="62.51" />
<line fill="none" stroke="#00aeef" stroke-width="0.05mm" stroke-dasharray="0.4,0.2" opacity="0.85" x1="46.29" y1="63.39" x2="43.29" y2="65.56" />
<line fill="none" stroke="#00aeef" stroke-width="0.05mm" stroke-dasharray="0.4,0.2" opacity="0.91" x1="46.29" y1="63.39" x2="46.09" y2="62.67" />
<line fill="none" stroke="#00aeef" stroke-width="0.05mm" stroke-dasharray="0.4,0.2" opacity="0.20" x1="46.29" y1="63.39" x2="44.96" y2="63.76" />
<line fill="none" stroke="#5674b9" stroke-width="0.05mm" stroke-dasharray="0.4,0.2" opacity="0.04" x1="46.29" y1="63.39" x2="46.28" y2="63.57" />
<line fill="none" stroke="#00aeef" stroke-width="0.05mm" stroke-dasharray="0.4,0.2" opacity="0.88" x1="46.29" y1="63.39" x2="44.03" y2="64.43" />
<line fill="none" stroke="#00aeef" stroke-width="0.05mm" stroke-dasharray="0.4,0.2" opacity="0.87" x1="46.29" y1="63.39" x2="44.03" y2="64.44" />
<line fill="none" stroke="#00aeef" stroke-width="0.05mm" stroke-dasharray="0.4,0.2" opacity="0.80" x1="46.29" y1="63.39" x2="44.05" y2="64.28" />
<line fill="none" stroke="#111111" stroke-width="0.05mm" x1="46.29" y1="63.39" x2="43.24" y2="65.58" />
<line fill="none" stroke="#00aeef" stroke-width="0.05mm" stroke-dasharray="0.4,0.2" opacity="0.89" x1="43.24" y1="65.58" x2="44.03" y2="65.94" />
<line fill="none" stroke="#00aeef" stroke-width="0.05mm" stroke-dasharray="0.4,0.2" opacity="0.15" x1="43.24" y1="65.58" x2="42.77" y2="67.18" />
<line fill="none" stroke="#5674b9" stroke-width="0.05mm" stroke-dasharray="0.4,0.2" opacity="0.04" x1="43.24" y1="65.58" x2="43.37" y2="65.71" />
<line fill="none" stroke="#111111" stroke-width="0.05mm" x1="43.24" y1="65.58" x2="43.32" y2="67.22" />
<line fill="none" stroke="#111111" stroke-width="0.05mm" x1="43.32" y1="67.22" x2="41.43" y2="70.32" />
<line fill="none" stroke="#00aeef" stroke-width="0.05mm" stroke-dasharray="0.4,0.2" opacity="0.11" x1="41.43" y1="70.32" x2="41.40" y2="70.18" />
<line fill="none" stroke="#00aeef" stroke-width="0.05mm" stroke-dasharray="0.4,0.2" opacity="0.74" x1="41.43" y1="70.32" x2="40.27" y2="69.95" />
<line fill="none" stroke="#5674b9" stroke-width="0.05mm" stroke-dasharray="0.4,0.2" opacity="0.09" x1="41.43" y1="70.32" x2="42.02" y2="69.18" />
<line fill="none" stroke="#5674b9" stroke-width="0.05mm" stroke-dasharray="0.4,0.2" opacity="0.96" x1="41.43" y1="70.32" x2="41.00" y2="70.96" />
<line fill="none" stroke="#111111" stroke-width="0.05mm" x1="41.43" y1="70.32" x2="34.19" y2="76.31" />
<line fill="none" stroke="#5674b9" stroke-width="0.05mm" stroke-dasharray="0.4,0.2" opacity="0.99" x1="34.19" y1="76.31" x2="34.78" y2="77.82" />
<line fill="none" stroke="#00aeef" stroke-width="0.05mm" stroke-dasharray="0.4,0.2" opacity="0.15" x1="34.19" y1="76.31" x2="33.65" y2="76.53" />
<line fill="none" stroke="#5674b9" stroke-width="0.05mm" stroke-dasharray="0.4,0.2" opacity="0.11" x1="34.19" y1="76.31" x2="34.50" y2="77.86" />
<line fill="none" stroke="#00aeef" stroke-width="0.05mm" stroke-dasharray="0.4,0.2" opacity="0.70" x1="34.19" y1="76.31" x2="30.20" y2="79.89" />
<line fill="none" stroke="#111111" stroke-width="0.05mm" x1="34.19" y1="76.31" x2="30.18" y2="79.88" />
<line fill="none" stroke="#5674b9" stroke-width="0.05mm" stroke-dasharray="0.4,0.2" opacity="0.95" x1="30.18" y1="79.88" x2="30.05" y2="80.20" />
<line fill="none" stroke="#111111" stroke-width="0.05mm" x1="30.18" y1="79.88" x2="27.12" y2="84.99" />
<line fill="none" stroke="#5674b9" stroke-width="0.05mm" stroke-dasharray="0.4,0.2" opacity="0.92" x1="27.12" y1="84.99" x2="26.59" y2="84.11" />
<line fill="none" stroke="#00aeef" stroke-width="0.05mm" stroke-dasharray="0.4,0.2" opacity="0.21" x1="27.12" y1="84.99" x2="27.20" y2="84.61" />
<line fill="none" stroke="#5674b9" stroke-width="0.05mm" stroke-dasharray="0.4,0.2" opacity="0.10" x1="27.12" y1="84.99" x2="26.72" y2="86.34" />
<line fill="none" stroke="#111111" stroke-width="0.05mm" x1="27.12" y1="84.99" x2="22.72" y2="92.15" />
<line fill="none" stroke="#5674b9" stroke-width="0.05mm" stroke-dasharray="0.4,0.2" opacity="0.96" x1="22.72" y1="92.15" x2="20.99" y2="92.56" />
<line fill="none" stroke="#5674b9" stroke-width="0.05mm" stroke-dasharray="0.4,0.2" opacity="0.96" x1="22.72" y1="92.15" x2="20.96" y2="92.55" />
<line fill="none" stroke="#111111" stroke-width="0.05mm" x1="22.72" y1="92.15" x2="20.94" y2="92.53" />
</g>
<g>
<circle cx="49.00" cy="33.00" r="0.1" fill="#111111" />
<circle cx="46.64" cy="39.43" r="0.1" fill="#111111" />
<circle cx="42.38" cy="43.94" r="0.1" fill="#111111" />
<circle cx="42.83" cy="49.67" r="0.1" fill="#111111" />
<circle cx="41.86" cy="51.66" r="0.1" fill="#111111" />
<circle cx="45.59" cy="55.28" r="0.1" fill="#111111" />
<circle cx="47.53" cy="57.06" r="0.1" fill="#111111" />
<circle cx="43.10" cy="60.43" r="0.1" fill="#111111" />
<circle cx="46.29" cy="63.39" r="0.1" fill="#111111" />
<circle cx="43.24" cy="65.58" r="0.1" fill="#111111" />
<circle cx="43.32" cy="67.22" r="0.1" fill="#111111" />
<circle cx="41.43" cy="70.32" r="0.1" fill="#111111" />
<circle cx="34.19" cy="76.31" r="0.1" fill="#111111" />
<circle cx="30.18" cy="79.88" r="0.1" fill="#111111" />
<circle cx="27.12" cy="84.99" r="0.1" fill="#111111" />
<circle cx="22.72" cy="92.15" r="0.1" fill="#111111" />
<circle cx="20.94" cy="92.53" r="0.1" fill="#111111" />
</g>
<g>
<text x="49.20" y="33.00" font-size=".2mm" fill="#000000">0</text>
<text x="46.84" y="39.43" font-size=".2mm" fill="#000000">1</text>
<text x="42.58" y="43.94" font-size=".2mm" fill="#000000">2</text>
<text x="43.03" y="49.67" font-size=".2mm" fill="#000000">3</text>
<text x="42.06" y="51.66" font-size=".2mm" fill="#000000">4</text>
<text x="45.79" y="55.28" font-size=".2mm" fill="#000000">5</text>
<text x="47.73" y="57.06" font-size=".2mm" fill="#000000">6</text>
<text x="43.30" y="60.43" font-size=".2mm" fill="#000000">7</text>
<text x="46.49" y="63.39" font-size=".2mm" fill="#000000">8</text>
<text x="43.44" y="65.58" font-size=".2mm" fill="#000000">9</text>
<text x="43.52" y="67.22" font-size=".2mm" fill="#000000">10</text>
<text x="41.63" y="70.32" font-size=".2mm" fill="#000000">11</text>
<text x="34.39" y="76.31" font-size=".2mm" fill="#000000">12</text>
<text x="30.38" y="79.88" font-size=".2mm" fill="#000000">13</text>
<text x="27.32" y="84.99" font-size=".2mm" fill="#000000">14</text>
<text x="22.92" y="92.15" font-size=".2mm" fill="#000000">15</text>
<text x="21.14" y="92.53" font-size=".2mm" fill="#000000">16</text>
</g>
<g>
</g>
</g>
</svg>