<?xml version="1.0" encoding="utf-8"?>
<!DOCTYPE svg PUBLIC "-//W3C//DTD SVG 1.1//EN" "http://www.w3.org/Graphics/SVG/1.1/DTD/svg11.dtd">
<svg version="1.1" id="Layer_1" xmlns="http://www.w3.org/2000/svg" xmlns:xlink="http://www.w3.org/1999/xlink" x="0px" y="0px" width="180mm" height="404mm" viewBox="0 0 180 404" style="background-color:#ffffff;enable-background:new 0 0 180 404;" xml:space="preserve">
<symbol id="airflow" viewBox="-12 -12 24 24">
<path d="M-4.38,10.73l4.2-3.84V3.55L-4.07,7.13l-.31-.29L-.18,3V-6.89a3.37,3.37,0,0,0-1.68.53l1.68-4.15L0-11l.21.51h0v0l1.65,4.1A3.26,3.26,0,0,0,.24-6.89v14l-.08,0L-4.07,11Z"/>
<rect fill="none" x="-12" y="-12" width="24" height="24"/>
</symbol>
<symbol id="anastomosis" viewBox="-12 -12 24 24">
<path d="M2.23-4.78l.37.24L5.22-2.78l-.47.57L2.49-3.7l-4.61,8-.24.44-.37-.34L-5.22,2.3l.55-.52,2.1,1.82L2-4.39Z"/>
<rect fill="none" x="-12" y="-12" width="24" height="24"/>
</symbol>
<symbol id="bivouac" viewBox="-12 -12 24 24">
<path d="M.25-7.66l.24.58L.54-7l3.88.48-3.31.91L6,6H8.35v.48l-16.7.07V6.05h2.64L0-7.08Zm0,1.32L-5.13,6H-4l2.07-5L.2-4l2.09,5L4.37,6H5.44Z"/>
<rect fill="none" x="-12" y="-12" width="24" height="24"/>
</symbol>
<symbol id="bones" viewBox="-12 -12 24 24">
<path d="M2.44,4.27l-.16,0H2.13a.22.22,0,0,1-.11,0l-.1-.06a.39.39,0,0,1-.09-.11l-.08-.13a1.51,1.51,0,0,1-.06-.15l-.07-.17s0-.11-.08-.19-.06-.16-.08-.21a4.75,4.75,0,0,0-.38-.71c-.18-.29-.43-.64-.74-1A11.15,11.15,0,0,0-.7.32,6.73,6.73,0,0,0-2-.64a4.12,4.12,0,0,0-1.44-.52A1.64,1.64,0,0,1-5-2.19.72.72,0,0,1-5-2.44a1,1,0,0,1,0-.29A.52.52,0,0,1-4.87-3a.54.54,0,0,1,.35-.15L-4-3.22l.46,0a.54.54,0,0,0,.27-.06A.52.52,0,0,0-3-3.56a.74.74,0,0,0,.13-.31.54.54,0,0,1,.15-.26.54.54,0,0,1,.3-.15.83.83,0,0,1,.47,0,1.11,1.11,0,0,1,.35.4A7.46,7.46,0,0,1-1-2.76q.18.42.33.72a3.22,3.22,0,0,0,.39.57L.1-1a4.77,4.77,0,0,0,.58.43c.28.18.51.33.69.43l1,.56a1.84,1.84,0,0,0,.39.23A5.29,5.29,0,0,1,3.22.9l.43.26a3.7,3.7,0,0,1,.46.3l.36.29a2.28,2.28,0,0,1,.31.32A1,1,0,0,1,5,2.4c.2.48,0,.78-.47.91h0a8.48,8.48,0,0,0-1.12.09,1,1,0,0,0-.42.44A1,1,0,0,1,2.44,4.27Z"/>
<rect fill="none" x="-12" y="-12" width="24" height="24"/>
</symbol>
<symbol id="calcite" viewBox="-12 -12 24 24">
<path d="M2.36-2.22l.05.46.34,3.91L2,2.22,1.65-1.26-2.52-.06l-.23-.7L1.89-2.08Z"/>
<rect fill="none" x="-12" y="-12" width="24" height="24"/>
</symbol>
<symbol id="cauliflower" viewBox="-12 -12 24 24">
<path d="M5.58,3.22v-3A2.12,2.12,0,0,0,6.92-.43a1.78,1.78,0,0,0,.55-1.32,1.92,1.92,0,0,0-.65-1.42,2.19,2.19,0,0,0-1.53-.59,2.21,2.21,0,0,0-1.54.59,1.78,1.78,0,0,0-.64,1.42A1.86,1.86,0,0,0,3.65-.43,2.12,2.12,0,0,0,5,.23v3H.26v-3A2.17,2.17,0,0,0,1.61-.43a1.81,1.81,0,0,0,.54-1.32,1.91,1.91,0,0,0-.64-1.42A2.21,2.21,0,0,0,0-3.76a2.21,2.21,0,0,0-1.54.59,1.82,1.82,0,0,0-.64,1.42A1.83,1.83,0,0,0-1.66-.43,2.12,2.12,0,0,0-.32.23v3H-5v-3A2.12,2.12,0,0,0-3.71-.43a1.78,1.78,0,0,0,.55-1.32,1.92,1.92,0,0,0-.65-1.42,2.19,2.19,0,0,0-1.53-.59,2.21,2.21,0,0,0-1.54.59,1.83,1.83,0,0,0-.65,1.42A1.87,1.87,0,0,0-7-.43,2.12,2.12,0,0,0-5.64.23v3H-8v.54H8V3.22Z"/>
<rect fill="none" x="-12" y="-12" width="24" height="24"/>
</symbol>
<symbol id="clay" viewBox="-12 -12 24 24">
<path d="M1.85-1.33a3,3,0,0,1,1.67.48,3.23,3.23,0,0,1,1,1l.29.51-1,.43a3.81,3.81,0,0,0-.23-.4A3.74,3.74,0,0,0,2.93,0,1.77,1.77,0,0,0,1.85-.32a2.57,2.57,0,0,0-1.1.15A.86.86,0,0,0,.51.14,2.23,2.23,0,0,1,0,.88a2.55,2.55,0,0,1-1.45.43,3.16,3.16,0,0,1-2.75-1,4.28,4.28,0,0,1-.37-.57,3.91,3.91,0,0,1-.21-.47l0-.16,1-.22a1.87,1.87,0,0,0,.45.79A2.12,2.12,0,0,0-1.51.33,1.82,1.82,0,0,0-.69.14l.21-.36A1.53,1.53,0,0,1,.17-1,3.76,3.76,0,0,1,1.85-1.33Z"/>
<rect fill="none" x="-12" y="-12" width="24" height="24"/>
</symbol>
<symbol id="crystals" viewBox="-12 -12 24 24">
<path d="M-2.94-5.38,0-.72,2.94-5.38,3.62-5,.68-.36H6.56V.36H.68L3.62,5l-.68.36L0,.72-2.94,5.38-3.62,5-.68.36H-6.56V-.36H-.68L-3.62-5Z"/>
<rect fill="none" x="-12" y="-12" width="24" height="24"/>
</symbol>
<symbol id="curtain" viewBox="-12 -12 24 24">
<path d="M3.57-6.69l.52.53L.39-3V-.33L.1-.26a3.79,3.79,0,0,0-1,.41c-.58.3-.87.65-.87,1v.07A1.61,1.61,0,0,0-.84,2.48a3.69,3.69,0,0,0,.45.24L0,2.86l.13.05L.39,3V6.12H-.39V3.51a7.65,7.65,0,0,1-.9-.46A2.19,2.19,0,0,1-2.54,1.28V1.23A2,2,0,0,1-1.31-.48,5.32,5.32,0,0,1-.39-.86V-3l-3.7-3.14.52-.53L0-3.67Z"/>
<rect fill="none" x="-12" y="-12" width="24" height="24"/>
</symbol>
<symbol id="disk" viewBox="-12 -12 24 24">
<path d="M-.09-4.19a2.43,2.43,0,0,1,1.7.64A2,2,0,0,1,2.35-2,2.09,2.09,0,0,1,1.81-.55,2.44,2.44,0,0,1,.35.23l2.18,3.6-.68.33L0,1.14-1.48,4.19l-.71-.29L-.41.25A2.53,2.53,0,0,1-1.9-.47a2,2,0,0,1-.63-1.41,2,2,0,0,1,.67-1.61,2.46,2.46,0,0,1,1.72-.7ZM1.05-3.06.56-3.49l-.69,0A1.72,1.72,0,0,0-1.29-3a1.51,1.51,0,0,0-.45,1.08,1.36,1.36,0,0,0,.51,1A1.68,1.68,0,0,0-.07-.44v0l0,0A1.7,1.7,0,0,0,1.11-.92,1.36,1.36,0,0,0,1.56-2,1.47,1.47,0,0,0,1.05-3.06Z"/>
<rect fill="none" x="-12" y="-12" width="24" height="24"/>
</symbol>
<symbol id="entrance" viewBox="-12 -12 24 24">
<path d="M4.46,9H-4.46L0-9Z"/>
<rect fill="none" x="-12" y="-12" width="24" height="24"/>
</symbol>
<symbol id="flowstone" viewBox="-12 -12 24 24">
<rect x="-6" y="-0.21" width="12" height="0.42"/>
<rect fill="none" x="-12" y="-12" width="24" height="24"/>
</symbol>
<symbol id="flutes" viewBox="-12 -12 24 24">
<path d="M-7-1H7v.72H3.87A4.7,4.7,0,0,1,2.16,1.5,4.2,4.2,0,0,1,0,2.13,3.94,3.94,0,0,1-2.19,1.5,4.18,4.18,0,0,1-3.76-.27H-7Zm4.17.72A3.15,3.15,0,0,0-1.65,1,3.21,3.21,0,0,0,0,1.41,3.49,3.49,0,0,0,1.6,1,3.68,3.68,0,0,0,3-.27Z"/>
<rect fill="none" x="-12" y="-12" width="24" height="24"/>
</symbol>
<symbol id="gradient" viewBox="-12 -12 24 24">
<path d="M2.58-3.83,0-10-2.58-3.83A4.74,4.74,0,0,1-.17-4.5V10H.25V-4.5A6.65,6.65,0,0,1,2.58-3.83Z"/>
<rect fill="none" x="-12" y="-12" width="24" height="24"/>
</symbol>
<symbol id="guano" viewBox="-12 -12 24 24">
<path d="M-3.24-3a2.15,2.15,0,0,1,1.57.55A3.93,3.93,0,0,1-.59.24a4.32,4.32,0,0,1,2.75-2.3,2.68,2.68,0,0,1,2.23.36A2.36,2.36,0,0,1,5.5.19l-.79,0a1.72,1.72,0,0,0-.79-1.37,1.94,1.94,0,0,0-1.55-.24A3.53,3.53,0,0,0,.48,0,6.63,6.63,0,0,0-.69,3l-.79-.09a10.72,10.72,0,0,0,0-3.16A3.21,3.21,0,0,0-2.22-2,1.44,1.44,0,0,0-3.37-2.3,3.45,3.45,0,0,0-5-1.54l-.5-.55a4.29,4.29,0,0,1,2-.91A.9.9,0,0,1-3.24-3Z"/>
<rect fill="none" x="-12" y="-12" width="24" height="24"/>
</symbol>
<symbol id="helictites" viewBox="-12 -12 24 24">
<path d="M-4.59-7.92h.79v7.7l3.41,0V-7.92H.39V-.17L4.2-.12h.39v8H3.8V.6L.39.55V7.92H-.39V.55L-4.2.5l-.39,0v-8.4Z"/>
<rect fill="none" x="-12" y="-12" width="24" height="24"/>
</symbol>
<symbol id="human" viewBox="-12 -12 24 24">
<path d="M-3.59-3.29A5.13,5.13,0,0,1,0-4.66,5.13,5.13,0,0,1,3.59-3.29,4.3,4.3,0,0,1,5.09,0a4.3,4.3,0,0,1-1.5,3.29A5.13,5.13,0,0,1,0,4.66,5.13,5.13,0,0,1-3.59,3.29,4.3,4.3,0,0,1-5.09,0,4.3,4.3,0,0,1-3.59-3.29Zm.28.77A3.68,3.68,0,0,0-4.3,0a3.62,3.62,0,0,0,1,2.57L-.5.05ZM0-3.94A4.42,4.42,0,0,0-2.75-3L.16-.36H4.28A3.62,3.62,0,0,0,2.91-2.9,4.38,4.38,0,0,0,0-3.94ZM.16.46-2.7,3.07A4.42,4.42,0,0,0,0,3.94a4.37,4.37,0,0,0,2.87-1A3.78,3.78,0,0,0,4.28.46Z"/>
<rect fill="none" x="-12" y="-12" width="24" height="24"/>
</symbol>
<symbol id="karren" viewBox="-12 -12 24 24">
<path d="M1-5.84h0a1.37,1.37,0,0,1,1.06.68A3.33,3.33,0,0,1,2.5-3.79,25.79,25.79,0,0,1,2.36,0a18.61,18.61,0,0,0-.08,3.72,2.68,2.68,0,0,0,.41,1.2,1.13,1.13,0,0,0,.79.5A.92.92,0,0,0,4,4.94a4.43,4.43,0,0,0,.47-1.22c.16-.64.36-1.86.59-3.66a26.71,26.71,0,0,1,.64-3.69,4.62,4.62,0,0,1,.57-1.29,1.34,1.34,0,0,1,1-.59h0A1.28,1.28,0,0,1,8.37-5a2.17,2.17,0,0,1,.39,1.15A19.91,19.91,0,0,1,8.54-.53a21.51,21.51,0,0,0-.2,3.64A2.64,2.64,0,0,0,9.45,5.36,1.91,1.91,0,0,0,10.88,5a3.84,3.84,0,0,0,.7-1l.42.2-.1.18-.12.21-.11.18L11.52,5a.94.94,0,0,1-.14.16c-.06.07-.13.12-.19.18a2.5,2.5,0,0,1-1.85.41H9.29l0,0A3.06,3.06,0,0,1,7.87,3.13a22.11,22.11,0,0,1,.2-3.7,18.17,18.17,0,0,0,.22-3.28A1.85,1.85,0,0,0,8-4.79a.77.77,0,0,0-.67-.3.93.93,0,0,0-.64.42,4.51,4.51,0,0,0-.51,1.15A26.26,26.26,0,0,0,5.54.1c-.24,1.83-.45,3.07-.61,3.72a5.38,5.38,0,0,1-.51,1.34,1.33,1.33,0,0,1-.89.68H3.47A1.58,1.58,0,0,1,2.3,5.16a3.29,3.29,0,0,1-.49-1.4A20.27,20.27,0,0,1,1.89,0,23.45,23.45,0,0,0,2-3.75a2.94,2.94,0,0,0-.32-1.19A.93.93,0,0,0,1-5.42,1.1,1.1,0,0,0,.19-5,3.69,3.69,0,0,0-.43-3.76,20.78,20.78,0,0,0-1.07.07c-.2,2-.37,3.32-.49,3.86A4.48,4.48,0,0,1-2,5.26,1.06,1.06,0,0,1-3,5.81h0a1.9,1.9,0,0,1-1.29-.67,2.7,2.7,0,0,1-.58-1.31,14.92,14.92,0,0,1,0-3.6q0-.12.06-.54c0-.28,0-.47,0-.57s0-.28,0-.52,0-.42,0-.55,0-.28,0-.47,0-.36,0-.51,0-.29,0-.43A3.09,3.09,0,0,0-5-4.62a1.19,1.19,0,0,0-.67-.6,1.5,1.5,0,0,0-1.2.9A7,7,0,0,0-7.41-2.1c0,.39-.1,1-.14,1.76s-.11,1.47-.18,2.08A9.61,9.61,0,0,1-8,3.32h0l0,0A2.81,2.81,0,0,1-9.2,4.62a1.82,1.82,0,0,1-1.35.15A1.94,1.94,0,0,1-11.61,4,2.39,2.39,0,0,1-12,2.56l.47,0a1.92,1.92,0,0,0,.31,1.16,1.47,1.47,0,0,0,.81.62,1.3,1.3,0,0,0,1-.11A2.32,2.32,0,0,0-8.5,3.18a7.53,7.53,0,0,0,.29-1.5Q-8.1.8-8-.36c0-.78.1-1.37.16-1.78A7.23,7.23,0,0,1-7.28-4.5,1.93,1.93,0,0,1-5.65-5.66h.05l0,0a1.59,1.59,0,0,1,1,.84,3.47,3.47,0,0,1,.34,1.41,4.91,4.91,0,0,1,0,.57v.54c0,.15,0,.37,0,.66s0,.47,0,.58,0,.33-.06.68,0,.56-.06.63a14.78,14.78,0,0,0,0,3.49,2.58,2.58,0,0,0,.5,1.13,1.57,1.57,0,0,0,1,.5A.61.61,0,0,0-2.44,5,3.89,3.89,0,0,0-2,3.85C-1.9,3.31-1.74,2-1.53,0A20.65,20.65,0,0,1-.86-3.89,3.89,3.89,0,0,1-.18-5.26,1.58,1.58,0,0,1,1-5.84Z"/>
<rect fill="none" x="-12" y="-12" width="24" height="24"/>
</symbol>
<symbol id="moonmilk" viewBox="-12 -12 24 24">
<path d="M-4.78-3.06a3.39,3.39,0,0,1,1.5.34,2.48,2.48,0,0,1,1.1,1,3.74,3.74,0,0,1,1.62-.8,3.52,3.52,0,0,1,1.71,0,2.9,2.9,0,0,1,1.39.77A2.49,2.49,0,0,1,3.25-.37,4,4,0,0,1,5-.76a3.58,3.58,0,0,1,1.6.36A2.84,2.84,0,0,1,7.88.92a2.32,2.32,0,0,1,0,1.88.34.34,0,0,1-.37.26A.36.36,0,0,1,7.25,3a.32.32,0,0,1-.12-.25.21.21,0,0,1,0-.12,2,2,0,0,0,0-1.43,2,2,0,0,0-1-.9A2.81,2.81,0,0,0,4.68,0,2.78,2.78,0,0,0,3.12.56L2.46.25A1.7,1.7,0,0,0,2.15-1.1,2.15,2.15,0,0,0,1-1.81a2.85,2.85,0,0,0-1.58.06A3,3,0,0,0-2-.83l-.71-.12A1.74,1.74,0,0,0-3.55-2a2.36,2.36,0,0,0-1.39-.27,3.08,3.08,0,0,0-1.45.53A2.33,2.33,0,0,0-7.32-.56a.35.35,0,0,1-.37.24A.39.39,0,0,1-8-.42a.33.33,0,0,1-.1-.26v-.1A3,3,0,0,1-6.89-2.35,4,4,0,0,1-5-3Z"/>
<rect fill="none" x="-12" y="-12" width="24" height="24"/>
</symbol>
<symbol id="narrow" viewBox="-12 -12 24 24">
<path d="M-1.5,5V-5h0.64V5H-1.5z"/>
<path d="M0.86,5V-5H1.5V5H0.86z"/>
<rect fill="none" x="-12" y="-12" width="24" height="24"/>
</symbol>
<symbol id="paleoflow" viewBox="-12 -12 24 24">
<path d="M.38-12V.17A1.9,1.9,0,0,0,1,0,1.57,1.57,0,0,0,1.7-.72a1.86,1.86,0,0,0,.23-1c0-.09,0-.14.08-.16a.92.92,0,0,1,.24,0,.52.52,0,0,0,.25,0h.08A2.48,2.48,0,0,1,2,0,2.5,2.5,0,0,1,.38.77V7.21H2.09L0,12-1.8,7.23c.07,0,.59,0,1.53,0V.77A3,3,0,0,1-1.35.43a2.16,2.16,0,0,1-1-1,2.38,2.38,0,0,1-.24-1.33l.67,0a2,2,0,0,0,.15,1,1.73,1.73,0,0,0,.59.67A2.14,2.14,0,0,0-.27.16V-12Z"/>
<rect fill="none" x="-12" y="-12" width="24" height="24"/>
</symbol>
<symbol id="rain" viewBox="-12 -12 24 24">
<path d="M-4.14-6.34h0.71v4.69h-0.71V-6.34z"/>
<path d="M-0.35-6.34h0.71v4.69h-0.71V-6.34z"/>
<path d="M3.43-6.34h0.71v4.69H3.43V-6.34z"/>
<path d="M-4.14,1.65h0.71v4.69h-0.71V1.65z"/>
<path d="M-0.35,1.65h0.71v4.69h-0.71V1.65z"/>
<path d="M3.43,1.65h0.71v4.69H3.43V1.65z"/>
<rect fill="none" x="-12" y="-12" width="24" height="24"/>
</symbol>
<symbol id="rats" viewBox="-12 -12 24 24">
<path d="M8.78-2.32,7-2.27c-.51-.17-.65-.56-1.46-.45l-.25.45C3.59-2.75,2.59-3.66.56-3.62l-1.35.3A4.89,4.89,0,0,0-4.24,1.57c-.68.6-2.58.86-3.39.94a6.84,6.84,0,0,0-1.62.39,4.91,4.91,0,0,0-1,.52A1.75,1.75,0,0,0-11,4.61a1.16,1.16,0,0,0,.59,1.48,1.3,1.3,0,0,1,.14.12c.16-.52-.35-.92-.2-1.42a3.35,3.35,0,0,1,.27-.45,3.18,3.18,0,0,1,1.79-1c.63-.12,1.27-.22,1.91-.3.48-.07,1,0,1.4-.12A6.94,6.94,0,0,1-4,2.82,30.64,30.64,0,0,0,.41,2.69l2.16.15c.1-.09,0,0,.1-.15a.87.87,0,0,0-.9-.55c.86-1,2.27-.37,3.1-.05.5.19,1,0,1.25.4.11-.1.1-.07.15-.25.3,0,.31.07.6.15-.06-.49-.34-.64-1-.6a.78.78,0,0,1,0-.55C6.3.56,7.29.73,8.13.43a13.78,13.78,0,0,0,2.15-.9l.6-.85v-.2A16.9,16.9,0,0,0,8.78-2.32Z"/>
<rect fill="none" x="-12" y="-12" width="24" height="24"/>
</symbol>
<symbol id="sand" viewBox="-12 -12 24 24">
<path d="M-1.58,0.83c0.23,0.2,0.35,0.44,0.36,0.73c0.01,0.29-0.08,0.54-0.28,0.75c-0.2,0.21-0.46,0.32-0.78,0.33c-0.32,0.01-0.6-0.08-0.83-0.26C-3.36,2.19-3.49,1.95-3.5,1.67C-3.51,1.38-3.41,1.12-3.2,0.9c0.21-0.22,0.48-0.34,0.8-0.35C-2.08,0.54-1.81,0.64-1.58,0.83z"/>
<path d="M0.08-2.36c0.23,0.2,0.35,0.44,0.36,0.73c0.01,0.29-0.08,0.54-0.28,0.75c-0.2,0.21-0.46,0.32-0.78,0.33c-0.32,0.01-0.59-0.07-0.83-0.26s-0.37-0.42-0.38-0.71c-0.01-0.29,0.09-0.54,0.3-0.76c0.21-0.22,0.48-0.33,0.8-0.35C-0.42-2.65-0.14-2.56,0.08-2.36z"/>
<path d="M3.12,0.55c0.23,0.2,0.35,0.43,0.38,0.71c0.02,0.28-0.07,0.53-0.28,0.75C3,2.23,2.73,2.35,2.42,2.36C2.1,2.37,1.82,2.28,1.58,2.08C1.34,1.88,1.22,1.64,1.2,1.35c-0.01-0.29,0.09-0.54,0.3-0.75C1.72,0.4,1.99,0.29,2.3,0.28S2.89,0.36,3.12,0.55z"/>
<rect fill="none" x="-12" y="-12" width="24" height="24"/>
</symbol>
<symbol  id="scallops" viewBox="-12 -12 24 24">
<path d="M.05-3.74l.21,0A2.35,2.35,0,0,1,1.74-3a2,2,0,0,1,.59,1.55v0l0,0A9.59,9.59,0,0,1-.08,3.27l-.39.47-.27-.55A14.26,14.26,0,0,1-2.33-1.89v-.05l0-.05A2,2,0,0,1-1.44-3.3,2.42,2.42,0,0,1,.05-3.74ZM-.11-3A1.44,1.44,0,0,0-1.55-1.89,13.06,13.06,0,0,0-.29,2.33,8.6,8.6,0,0,0,1.55-1.54a1.41,1.41,0,0,0-.38-1A1.62,1.62,0,0,0,.18-3Z"/>
<rect fill="none" x="-12" y="-12" width="24" height="24"/>
</symbol>
<symbol  id="sink" viewBox="-12 -12 24 24">
<path d="M.72,9.41H.9c1.94,0,3.26-.54,3.94-1.51a3.61,3.61,0,0,0,.33-.69,2,2,0,0,0,.11-.54V6.46l.69,0a2.8,2.8,0,0,1-.58,1.78C4.58,9.39,3.1,10,.93,10H-.93q-3.25,0-4.46-1.8a2.74,2.74,0,0,1-.43-.83A2.37,2.37,0,0,1-6,6.67V6.43l.68,0A2.27,2.27,0,0,0-4.84,7.9c.68,1,2,1.47,3.93,1.48l.5,0ZM-1.46-10a.68.68,0,0,0,.16.41A2.77,2.77,0,0,0-.51-9l0,0a3.63,3.63,0,0,1,1,.7,1.15,1.15,0,0,1,.34.88c0,.58-.53,1.14-1.49,1.68-.68.42-1,.79-1,1.11s.3.61.84,1h0Q.61-2.86.46-1.78a3.51,3.51,0,0,1-1.55,2,.61.61,0,0,0-.26.41,1.67,1.67,0,0,0,.1.51,5.3,5.3,0,0,1,.32,1L.56,1.9.46,8.06-3.4,2.54l1.73-.28A6.16,6.16,0,0,0-2,1.39,1.7,1.7,0,0,1-2.09.58a1.21,1.21,0,0,1,.53-.82h0v0C-.75-.86-.33-1.38-.28-1.85s-.23-.87-.91-1.27h0C-2-3.6-2.37-4.1-2.4-4.61S-2-5.74-1.09-6.29C-.34-6.72.06-7.1.09-7.44a.67.67,0,0,0-.18-.43,3.17,3.17,0,0,0-.79-.58,2.93,2.93,0,0,1-1-.67A1.16,1.16,0,0,1-2.17-10Z"/>
<rect fill="none" x="-12" y="-12" width="24" height="24"/>
</symbol>
<symbol  id="spring" viewBox="-12 -12 24 24">
<path d="M-1.34-9.86,2.52-4.34.78-4.06a8,8,0,0,0,.29.87,1.4,1.4,0,0,1,.13.79,1.3,1.3,0,0,1-.52.84l0,0v0C-.13-.95-.55-.42-.61,0S-.37.91.31,1.3l0,0c.75.46,1.14,1,1.18,1.46S1.12,3.92.21,4.46C-.54,4.9-.94,5.29-1,5.64a.74.74,0,0,0,.18.43A3.2,3.2,0,0,0,0,6.62a3,3,0,0,1,1,.7,1.14,1.14,0,0,1,.31.86A1.74,1.74,0,0,1,.71,9.26H.92c1.92,0,3.22-.52,3.9-1.51a2.05,2.05,0,0,0,.35-.67,2.59,2.59,0,0,0,.1-.55l0-.19.65,0a2.84,2.84,0,0,1-.55,1.8C4.58,9.26,3.08,9.85.92,9.86H-.92c-2.17,0-3.66-.6-4.49-1.77a3.65,3.65,0,0,1-.4-.85A2.43,2.43,0,0,1-6,6.53V6.29l.66,0a2.08,2.08,0,0,0,.47,1.41c.68,1,2,1.5,3.91,1.51H-.4c.62-.43.94-.8,1-1.1a.76.76,0,0,0-.16-.43,3.25,3.25,0,0,0-.79-.51v0a3.8,3.8,0,0,1-1-.7,1.15,1.15,0,0,1-.34-.91q.06-.84,1.5-1.68c.68-.4,1-.77,1-1.1S.49,2.21,0,1.87c0,0,0,0,0,0C-1,1.32-1.44.69-1.34,0a3.58,3.58,0,0,1,1.55-2,.54.54,0,0,0,.23-.38A1.28,1.28,0,0,0,.37-3a4.57,4.57,0,0,1-.32-1l-1.49.24Z"/>
<rect fill="none" x="-12" y="-12" width="24" height="24"/>
</symbol>
<symbol  id="stalactite" viewBox="-12 -12 24 24">
<path d="M3.57-6.69l.52.53L.39-3V6.12H-.39V-3l-3.7-3.14.52-.53L0-3.67Z"/>
<rect fill="none" x="-12" y="-12" width="24" height="24"/>
</symbol>
<symbol  id="stalagmite" viewBox="-12 -12 24 24">
<path d="M.38-6.42V2.75L4.11,5.89l-.56.53L0,3.4l-3.57,3-.53-.53,3.7-3.14V-6.42Z"/>
<rect fill="none" x="-12" y="-12" width="24" height="24"/>
</symbol>
<symbol  id="stalagnate" viewBox="-12 -12 24 24">
<path d="M3.55-8.46l.56.53L.38-4.78v9L4.11,7.36l-.56.53L0,4.86l-3.57,3-.53-.53,3.7-3.14v-9l-3.7-3.15.53-.53L0-5.43Z"/>
<rect fill="none" x="-12" y="-12" width="24" height="24"/>
</symbol>
<symbol  id="straws" viewBox="-12 -12 24 24">
<path d="M-10.89-2.76H10.89V-2H9.63V.46H8.84V-2H8.29v5.6H7.5V-2H5.56V.7H4.77V-2H2.07V2.38H1.29V-2H-.1v3H-.89V-2H-3.2V4.11H-4V-2H-6.22L-6.16.75l-.79,0L-7-2H-8.32V2.33H-9.1V-2h-1.79Z"/>
<rect fill="none" x="-12" y="-12" width="24" height="24"/>
</symbol>
<symbol  id="water" viewBox="-12 -12 24 24">
<path d="M-1.72-9.86,2.11-4.32.38-4.06a6.49,6.49,0,0,0,.29.89,1.5,1.5,0,0,1,.13.79,1.2,1.2,0,0,1-.5.82h0l0,0C-.54-.94-1-.42-1,.05s.24.89.92,1.27h0c.77.48,1.17,1,1.19,1.49S.71,3.94-.2,4.49c-.75.43-1.13.81-1.15,1.15a.51.51,0,0,0,.18.43,2.66,2.66,0,0,0,.76.58,2.93,2.93,0,0,1,1,.67,1.16,1.16,0,0,1,.29.89C.84,8.75.42,9.3-.41,9.86l-.44-.55c.66-.45,1-.83,1-1.15A.47.47,0,0,0,0,7.75a2.84,2.84,0,0,0-.78-.53h0a3.87,3.87,0,0,1-1-.69,1.24,1.24,0,0,1-.34-.91c0-.58.54-1.14,1.52-1.68.66-.42,1-.79,1-1.11s-.3-.61-.84-1h0Q-1.9,1.06-1.74,0a3.44,3.44,0,0,1,1.54-2,.67.67,0,0,0,.27-.41A1.11,1.11,0,0,0,0-3a4.33,4.33,0,0,1-.31-1l-1.5.24Z"/>
<rect fill="none" x="-12" y="-12" width="24" height="24"/>
</symbol><symbol  id="tree" viewBox="-12 -12 24 24">
<path d="M7.4-5.04A4.271,4.271,0,0,0,7.7-6.627a4.3,4.3,0,0,0-4.3-4.3A4.279,4.279,0,0,0,.636-9.914,4.293,4.293,0,0,0-3.045-12a4.3,4.3,0,0,0-4.3,4.3,4.27,4.27,0,0,0,.421,1.845,4.3,4.3,0,0,0-3.645,4.244,4.3,4.3,0,0,0,4.3,4.3A4.282,4.282,0,0,0-3.946,2L-1.175,5.23h0L-1.612,12H.982L.757,6.376,4.119,2.827v0a4.272,4.272,0,0,0,2.15.58,4.3,4.3,0,0,0,4.3-4.3A4.3,4.3,0,0,0,7.4-5.04ZM-3.346,1.538h0A4.346,4.346,0,0,0-2.7.788a4.266,4.266,0,0,0,1.765.753l-.135,2.087ZM.69,4.7.563,1.544A4.258,4.258,0,0,0,2.321.805,4.3,4.3,0,0,0,3.378,2.279Z"/>
<rect fill="none" x="-12" y="-12" width="24" height="24"/>
</symbol><g>
<desc></desc>
<g>
<line fill="none" stroke="#dddddd" stroke-width="0.1mm" x1="0.00" y1="87.00" x2="180.00" y2="87.00" />
<text x="177.20" y="86.80" font-size=".2mm" fill="#000000">0m</text>
<line fill="none" stroke="#dddddd" stroke-width="0.1mm" x1="0.00" y1="37.00" x2="180.00" y2="37.00" />
<text x="177.20" y="36.80" font-size=".2mm" fill="#000000">5m</text>
<line fill="none" stroke="#dddddd" stroke-width="0.1mm" x1="0.00" y1="137.00" x2="180.00" y2="137.00" />
<text x="177.20" y="136.80" font-size=".2mm" fill="#000000">-5m</text>
<line fill="none" stroke="#dddddd" stroke-width="0.1mm" x1="0.00" y1="187.00" x2="180.00" y2="187.00" />
<text x="177.20" y="186.80" font-size=".2mm" fill="#000000">-10m</text>
<line fill="none" stroke="#dddddd" stroke-width="0.1mm" x1="0.00" y1="237.00" x2="180.00" y2="237.00" />
<text x="177.20" y="236.80" font-size=".2mm" fill="#000000">-15m</text>
<line fill="none" stroke="#dddddd" stroke-width="0.1mm" x1="0.00" y1="287.00" x2="180.00" y2="287.00" />
<text x="177.20" y="286.80" font-size=".2mm" fill="#000000">-20m</text>
<line fill="none" stroke="#dddddd" stroke-width="0.1mm" x1="0.00" y1="337.00" x2="180.00" y2="337.00" />
<text x="177.20" y="336.80" font-size=".2mm" fill="#000000">-25m</text>
<line fill="none" stroke="#dddddd" stroke-width="0.1mm" x1="0.00" y1="387.00" x2="180.00" y2="387.00" />
<text x="177.20" y="386.80" font-size=".2mm" fill="#000000">-30m</text>
<line fill="none" stroke="#dddddd" stroke-width="0.1mm" x1="161.00" y1="0.00" x2="161.00" y2="404.00" />
<text x="161.40" y="2.00" font-size=".2mm" fill="#000000">0m</text>
<line fill="none" stroke="#dddddd" stroke-width="0.1mm" x1="111.00" y1="0.00" x2="111.00" y2="404.00" />
<text x="111.40" y="2.00" font-size=".2mm" fill="#000000">-5m</text>
<line fill="none" stroke="#dddddd" stroke-width="0.1mm" x1="61.00" y1="0.00" x2="61.00" y2="404.00" />
<text x="61.40" y="2.00" font-size=".2mm" fill="#000000">-10m</text>
<line fill="none" stroke="#dddddd" stroke-width="0.1mm" x1="11.00" y1="0.00" x2="11.00" y2="404.00" />
<text x="11.40" y="2.00" font-size=".2mm" fill="#000000">-15m</text>
</g>
<g>
<path fill="none" stroke="#000000" stroke-width="0.06mm" d="M156.0455,123.24839 C154.04797,128.4218 155.38649,125.46475 151.61049,131.91733 L151.61049,131.91733" /><path fill="none" stroke="#000000" stroke-width="0.06mm" d="M146.7568,117.960175 C143.26532,122.98999 148.73763,115.34864 141.30351,123.96152 C140.25209,125.17966 139.47415,126.61061 138.50154,127.89256 C137.7546,128.87709 137.88995,128.21117 137.06778,129.19441 C134.20892,132.61333 131.34233,136.02882 128.61797,139.55585 C125.07353,144.14456 128.39067,140.70624 127.04737,142.075 L127.04737,142.075" /><path fill="none" stroke="#000000" stroke-width="0.06mm" d="M143.36075,116.65752 C143.04967,116.506805 142.72853,116.37529 142.42749,116.20538 C142.2591,116.110344 141.92216,115.795204 141.83032,115.62593 C141.04282,114.17438 140.30746,112.695145 139.54602,111.229744 L139.54602,111.229744" /><path fill="none" stroke="#000000" stroke-width="0.06mm" d="M134.84741,106.06561 L133.23468,102.483284" /><path fill="none" stroke="#000000" stroke-width="0.06mm" d="M130.73804,97.69133 C129.79196,92.05344 130.41289,94.6541 129.00125,89.85983 L129.00125,89.85983" /><path fill="none" stroke="#000000" stroke-width="0.06mm" d="M170.49431,221.3455 L170.60074,221.0346" /><path fill="none" stroke="#000000" stroke-width="0.06mm" d="M155.88766,122.33332 C153.03717,123.01904 150.30017,122.444496 147.66006,121.28101 C146.96526,120.974815 146.22736,120.69629 145.65884,120.19298 C145.21533,119.80032 145.03563,119.18543 144.72401,118.68166 L144.72401,118.68166" /><path fill="none" stroke="#000000" stroke-width="0.06mm" d="M145.35002,122.22899 C147.05559,118.52609 146.06958,120.48515 148.37567,116.38633 L148.37567,116.38633" /><path fill="none" stroke="#000000" stroke-width="0.06mm" d="M152.23601,122.95932 C152.23242,120.193726 152.09906,121.65866 152.75768,118.57733 L152.75768,118.57733" /><path fill="none" stroke="#000000" stroke-width="0.06mm" d="M155.366,122.85499 C156.11684,121.51808 155.65007,122.29562 156.82668,120.559654 L156.82668,120.559654" /><path fill="none" stroke="#000000" stroke-width="0.06mm" d="M189.37862,89.15537 C187.83862,92.6629 188.4997,90.76195 187.50063,94.89369 L187.50063,94.89369" /><path fill="none" stroke="#000000" stroke-width="0.06mm" d="M183.53596,103.24035 C182.3593,106.044846 182.88084,104.618904 181.97096,107.518005 L181.97096,107.518005" /><path fill="none" stroke="#000000" stroke-width="0.06mm" d="M176.7543,113.569336 C174.82462,115.38031 175.63736,114.45625 174.25032,116.282 L174.25032,116.282" /><path fill="none" stroke="#000000" stroke-width="0.06mm" d="M167.99033,120.559654 C165.18845,120.27258 162.42554,121.18262 159.748,121.91599 L159.748,121.91599" /><path fill="none" stroke="#000000" stroke-width="0.06mm" d="M186.14429,84.043045 C179.13321,79.22789 181.85883,81.39977 177.6933,77.88738 L177.6933,77.88738" /><path fill="none" stroke="#000000" stroke-width="0.06mm" d="M171.22464,70.792725 L166.52965,62.446075" /><path fill="none" stroke="#000000" stroke-width="0.06mm" d="M164.86032,104.179344 L172.05931,106.16168" /><path fill="none" stroke="#000000" stroke-width="0.06mm" d="M150.04501,132.24496 L149.94276,132.24706" /><path fill="none" stroke="#000000" stroke-width="0.06mm" d="M163.71266,56.812084 C159.51552,49.755524 160.86215,52.71653 159.01767,48.25676 L159.01767,48.25676" /><path fill="none" stroke="#000000" stroke-width="0.06mm" d="M155.679,38.03211 C152.04485,35.40197 154.64027,37.43315 148.79301,30.93745 L148.79301,30.93745" /><path fill="none" stroke="#000000" stroke-width="0.06mm" d="M147.43668,25.407787 C145.84392,23.898579 145.66301,21.04538 143.99368,19.4608 L143.99368,19.4608" /><path fill="none" stroke="#000000" stroke-width="0.06mm" d="M134.2907,84.98204 L140.34203,79.66105" /><path fill="none" stroke="#000000" stroke-width="0.06mm" d="M144.09802,74.13139 C144.1669,70.980316 144.21863,72.93488 143.57635,68.288734 L143.57635,68.288734" /><path fill="none" stroke="#000000" stroke-width="0.06mm" d="M144.41103,58.585743 C142.9706,55.032158 143.73604,56.404858 142.42868,54.308086 L142.42868,54.308086" /><path fill="none" stroke="#000000" stroke-width="0.06mm" d="M111.12874,220.40651 L111.13082,220.30426" /><path fill="none" stroke="#26B8EE" stroke-width="0.06mm" d="M167.15565,105.43135 C166.91095,105.98304 166.63177,106.5207 166.42154,107.08642 C166.31708,107.367485 166.27759,107.668686 166.2152,107.961975 C165.96584,109.13419 165.72928,110.309105 165.48633,111.482666 L165.48633,111.482666" /><path fill="none" stroke="#26B8EE" stroke-width="0.06mm" d="M167.573,106.05734 C177.08115,107.07312 173.68167,106.21055 178.0063,107.41367 L178.0063,107.41367" /><path fill="none" stroke="#000000" stroke-width="0.06mm" d="M185.93562,94.68503 L177.0673,92.80703" /><path fill="none" stroke="#000000" stroke-width="0.06mm" d="M184.47496,82.791046 L177.79764,87.903366" /><path fill="none" stroke="#000000" stroke-width="0.06mm" d="M175.08498,77.470055 C174.01974,79.44783 172.10205,80.59275 170.18132,81.64338 L170.18132,81.64338" /><path fill="none" stroke="#000000" stroke-width="0.06mm" d="M179.04964,108.14401 C178.95685,107.68254 178.88954,107.21521 178.77127,106.75961 C178.41364,105.38202 176.11902,104.06469 175.5314,103.64377 C173.8959,102.47223 172.17334,101.42727 170.49431,100.319016 L170.49431,100.319016" /><path fill="none" stroke="#000000" stroke-width="0.06mm" d="M169.03365,118.055664 L163.71266,109.08301" /><path fill="none" stroke="#000000" stroke-width="0.06mm" d="M157.97433,123.58533 C158.59921,116.3416 158.3455,121.16954 157.76567,109.08301 L157.76567,109.08301" /><path fill="none" stroke="#000000" stroke-width="0.06mm" d="M138.3597,112.10867 C147.0653,104.854 144.17523,107.888565 147.85402,103.86635 L147.85402,103.86635" /><path fill="none" stroke="#000000" stroke-width="0.06mm" d="M132.30836,101.675354 C136.60057,99.10729 133.49727,100.88608 141.90703,96.87602 L141.90703,96.87602" /><path fill="none" stroke="#000000" stroke-width="0.06mm" d="M133.6647,84.77338 L144.30669,88.21637" /><path fill="none" stroke="#000000" stroke-width="0.06mm" d="M144.93268,77.05272 C153.86555,79.620575 150.46382,78.78955 155.05301,79.86972 L155.05301,79.86972" /><path fill="none" stroke="#000000" stroke-width="0.06mm" d="M138.15103,50.447754 C138.05695,49.768223 138.00127,49.08226 137.86877,48.409164 C137.8093,48.107025 137.72629,47.80201 137.57718,47.532578 C136.0787,44.824863 134.48196,42.17271 132.93437,39.49277 L132.93437,39.49277" /><path fill="none" stroke="#26B8EE" stroke-width="0.06mm" d="M159.01767,96.25002 C159.39833,95.87179 159.7553,95.400734 160.25586,95.15515 C162.34772,94.12884 165.12897,94.50384 167.30779,94.69307 C168.47014,94.79402 170.67242,95.59688 171.03133,96.934204 C171.30951,97.970695 170.56972,99.06376 169.85287,99.72717 C169.144,100.383194 167.75848,101.44487 166.71783,101.776184 C164.40822,102.51148 162.07248,103.16639 159.72499,103.76989 C158.73924,104.02331 156.63522,104.26781 155.78976,103.389496 C155.59407,103.1862 155.49213,102.86785 155.47461,102.59268 C155.37935,101.09712 155.52164,99.7961 156.3776,98.512085 C157.62749,96.63714 160.01794,95.593025 162.15599,95.222694 C163.84392,94.93033 165.55222,94.75289 167.26083,94.62948 C167.90816,94.58272 169.2734,94.54595 169.85847,95.17428 C170.12184,95.45714 170.2048,95.82704 170.23387,96.201706 C170.3528,97.734604 168.027,98.83726 167.23708,99.33344 C166.18608,99.99362 165.10263,100.62439 163.94656,101.07599 C161.37898,102.07897 158.65894,102.39269 155.93636,102.57664 C155.75124,102.58915 153.08763,102.49792 153.1794,101.89075 C153.19255,101.80368 153.25,101.71913 153.32193,101.66835 C153.67549,101.41873 154.0421,101.18038 154.43686,101.002975 C156.70981,99.9815 158.9952,98.98397 161.31577,98.07588 C162.53583,97.59844 163.60791,97.55236 164.79175,98.02853 C164.9138,98.07762 165.05583,98.19663 165.1268,98.3095 C165.48337,98.87645 164.76517,99.7115 164.4548,100.062294 C163.41112,101.241936 161.75371,101.456276 160.26279,101.67915 C158.92505,101.879135 157.56627,101.90914 156.21452,101.95743 C155.84077,101.97078 155.4652,101.92623 155.09647,101.863716 C155.02899,101.85227 154.96896,101.79802 154.93254,101.740074 C154.66493,101.314384 155.8149,100.32071 156.00452,100.17417 C156.28076,99.96069 156.55972,99.732475 156.88625,99.60892 C158.60844,98.95725 160.34575,98.33026 162.12553,97.858025 C163.191,97.575325 164.30165,97.503204 165.39351,97.35166 C165.90427,97.28077 166.40723,97.50758 166.54898,98.02728 C166.73343,98.70356 166.44289,99.32421 165.97072,99.813034 C163.68483,102.17961 160.11082,106.57677 156.76164,103.16191 C156.12012,102.50779 155.53719,101.62116 155.5155,100.672935 C155.50224,100.0929 155.70578,99.50937 156.01779,99.02625 C158.01428,95.93488 163.95988,97.104706 166.45663,97.44324 C167.61879,97.600815 168.74234,97.97381 169.87076,98.29342 C169.94852,98.315445 170.01009,98.38814 170.04684,98.46013 C170.40024,99.15254 168.09166,100.05337 167.89412,100.105606 C163.13489,101.36417 162.04407,101.60564 157.33865,101.86829 C156.9048,101.89251 156.46996,101.822876 156.03897,101.767494 C155.92122,101.75236 155.78535,101.64875 155.7416,101.53621 C155.48497,100.87618 156.92455,99.62109 157.34184,99.33829 C160.18811,97.40938 164.99672,97.43823 168.31607,97.60223 C168.99287,97.635666 169.6641,97.77346 170.32019,97.94287 C170.39073,97.96109 170.44496,98.07928 170.40895,98.142624 C170.3425,98.25955 170.2006,98.31934 170.07661,98.37144 C169.45134,98.634155 168.8323,98.93491 168.17049,99.08315 C166.59195,99.436714 164.99445,99.74233 163.38191,99.87092 C162.334,99.95448 161.28113,99.78236 160.23196,99.7162 C160.08357,99.70685 159.8876,99.668015 159.77982,99.545 C159.30794,99.00647 160.44368,97.71225 160.8302,97.433876 C162.48894,96.239235 164.83624,96.191086 166.74904,96.052475 C167.39937,96.00535 168.32747,96.14588 168.84561,96.59115 C169.9122,97.50776 167.0487,100.06011 166.4776,100.39563 C164.49039,101.563095 161.85939,103.10214 159.44373,103.73454 C158.0555,104.09797 156.81606,104.08814 155.38647,103.99473 C154.6513,103.946686 153.6145,103.7332 153.22577,103.00046 C152.60657,101.83328 153.1562,100.546844 153.93817,99.60495 C156.3446,96.70635 159.58633,95.835335 163.12106,94.88072 C163.9309,94.66202 165.35732,94.41319 165.79323,95.4295 C165.96954,95.84054 165.78691,96.269455 165.46127,96.550415 C164.24652,97.598495 163.06844,98.695496 161.77809,99.64896 C160.25244,100.7763 158.34145,101.518234 156.56612,102.10379 C155.80342,102.355354 154.9187,102.51274 154.12764,102.27617 C153.9864,102.23393 153.70152,102.135216 153.63318,101.956314 C153.48204,101.56077 154.43765,101.0341 154.52127,100.998024 C158.81334,99.14608 162.069,97.73087 166.7069,97.79012 C167.3243,97.79801 167.93768,97.9015 168.54749,97.99835 C169.13339,98.091415 169.80789,98.35453 169.80125,99.04762 C169.79706,99.48506 169.5439,100.05915 169.17331,100.30635 C167.47952,101.43617 165.78148,102.565674 164.01178,103.57245 C161.82092,104.81883 159.62679,105.37578 157.12769,105.3408 C156.3632,105.33009 155.07828,105.34284 154.73027,104.443756 C154.60442,104.11859 154.5885,103.7538 154.59692,103.411865 C154.63998,101.66148 156.40211,100.63946 157.72906,99.892296 C160.08313,98.566795 162.18575,98.09036 164.88188,97.486786 C165.34297,97.38356 165.82063,97.361305 166.29306,97.35298 C166.38696,97.351326 166.49821,97.38234 166.55478,97.457306 C166.81207,97.79839 165.52187,98.59271 165.39458,98.634705 C163.4796,99.26645 161.57094,99.947044 159.59926,100.369865 C158.02785,100.70685 156.4099,100.77968 154.80766,100.90506 C154.729,100.91121 154.57797,100.825516 154.62106,100.75942 C154.72601,100.59849 154.92894,100.52252 155.1059,100.4477 C155.72917,100.184166 156.353,99.90308 157.01181,99.74857 C160.32712,98.971054 163.66373,98.28196 167.0109,97.65568 C167.08498,97.641815 167.05928,97.845474 166.99284,97.88104 C164.71599,99.0998 162.46751,100.39731 160.07458,101.36857 C158.12317,102.16062 156.04202,102.586334 154.01268,103.149506 C153.91284,103.177216 153.55878,103.20637 153.49222,103.02054 C153.2793,102.42608 155.0259,101.34371 155.0921,101.30127 C157.29166,99.89158 159.45464,98.41529 161.74281,97.154526 C162.86574,96.535805 164.09749,96.13739 165.29504,95.67955 C165.58179,95.6089 165.86855,95.538246 166.15529,95.46759 C166.17194,95.49411 166.22119,95.520195 166.20525,95.54715 C166.15184,95.63748 166.06743,95.70962 165.97888,95.76593 C165.06682,96.34599 164.18199,96.98109 163.20932,97.45253 C160.4621,98.78406 158.67598,99.446754 155.8044,99.88108 C155.10419,99.986984 154.39186,99.99925 153.68376,100.009415 C153.61958,100.01034 153.55159,99.96771 153.51657,99.913925 C153.42879,99.77907 153.578,99.532295 153.63655,99.45294 C154.10023,98.824455 154.69876,98.308754 155.44008,98.03221 C156.72238,97.553856 158.30966,97.41083 159.6102,97.46231 C162.1124,97.56138 164.60733,97.81857 167.09537,98.10225 C167.68976,98.17001 168.26247,98.36647 168.842,98.51487 C168.99014,98.55281 169.1377,98.663574 169.11812,98.83396 C169.07544,99.20552 168.44386,99.68739 168.28714,99.80436 C167.78906,100.17609 167.274,100.528305 166.73375,100.83552 C166.38234,101.03534 166.01688,101.23364 165.62193,101.3199 C161.40575,102.24075 160.9116,102.3742 157.29807,102.21766 C156.63281,102.18884 155.18834,101.72792 155.50809,100.76393 C155.55792,100.6137 155.70456,100.356155 155.80818,100.269585 C157.52937,98.83154 158.43379,98.138916 160.53285,97.2297 C161.37865,96.863335 162.27234,96.61741 163.15468,96.35081 C164.16098,96.046745 164.62724,96.4573 164.46094,97.479836 C164.41855,97.74047 164.30992,98.029526 164.1625,98.24915 C163.26176,99.59114 159.95775,101.54773 158.32643,102.20387 C157.43054,102.564224 156.47691,102.760185 155.54749,103.02215 C155.45316,103.04874 155.22034,103.08901 155.12549,102.99851 C155.01295,102.891136 155.11786,102.63408 155.16006,102.55445 C155.6561,101.61862 156.54121,100.71789 157.51202,100.28571 C160.79697,98.823364 164.13618,97.48284 167.49167,96.19055 C168.06796,95.968605 168.68002,95.83911 169.291,95.749306 C169.36229,95.73883 169.46396,95.835205 169.44212,95.90387 C169.40015,96.03586 169.25989,96.11557 169.1484,96.197754 C168.85364,96.415054 168.57211,96.67164 168.22858,96.798485 C165.266,97.89239 160.44258,99.71684 156.81161,100.237885 C156.70285,100.253494 156.90987,100.03045 156.9997,99.96718 C157.27444,99.77366 157.5664,99.59303 157.88383,99.48269 C159.10913,99.056755 160.3505,98.66945 161.61125,98.3641 C162.50652,98.14727 163.42952,98.06761 164.33867,97.91936 L164.33867,97.91936" /><path fill="none" stroke="#26B8EE" stroke-width="0.06mm" d="M160.58266,88.0077 C161.06837,85.654335 161.6675,83.32155 162.03981,80.9476 C162.17679,80.07429 162.61311,76.67619 161.78462,75.3955 C161.18082,74.46213 160.42564,73.619804 159.92432,72.62762 C158.49179,69.79247 157.21669,66.87796 155.99864,63.944283 C155.44467,62.610058 155.11685,61.191765 154.61388,59.837486 C154.52127,59.588116 154.29361,59.737762 154.19139,59.838314 C153.8293,60.194542 153.54869,60.83981 153.49818,61.343334 C153.25117,63.806023 153.07166,66.27507 152.83788,68.73906 C152.82648,68.859276 152.80829,68.98158 152.7629,69.093475 C152.572,69.563965 152.34209,70.01765 152.13168,70.47973 L152.13168,70.47973" /><path fill="none" stroke="#26B8EE" stroke-width="0.06mm" d="M154.84433,60.568077 C163.64725,64.676765 160.52252,62.901764 164.54733,65.26308 L164.54733,65.26308" /><path fill="none" stroke="#000000" stroke-width="0.06mm" d="M130.30711,147.32053 C132.42531,145.32614 129.0676,148.42642 134.41945,144.23273 C135.74869,143.19113 136.92441,141.95845 138.28435,140.95729 C140.56534,139.27806 142.99823,137.8151 145.327,136.20276 C145.76009,135.90292 146.12209,135.50522 146.5668,135.2229 C150.78087,132.54768 146.7652,135.76103 151.02086,132.05505 L151.02086,132.05505" /><path fill="none" stroke="#000000" stroke-width="0.06mm" d="M129.75598,147.6363 C131.2251,152.5291 130.24956,149.12987 130.35757,162.06787 C130.3787,164.59724 130.17206,167.12338 130.0793,169.65114 L130.0793,169.65114" /><path fill="none" stroke="#000000" stroke-width="0.06mm" d="M161.0,87.0 L161.0,87.0" /><path fill="none" stroke="#000000" stroke-width="0.06mm" d="M125.347145,142.99232 L125.34773,142.96352" /><path fill="none" stroke="#000000" stroke-width="0.06mm" d="M127.11068,142.52205 C127.050644,142.6357 126.98358,142.74591 126.93056,142.863 C126.90631,142.91656 126.87991,142.97311 126.87981,143.0319 C126.87195,147.35086 126.918915,151.66983 126.90668,155.98877 C126.75022,164.33664 126.84645,155.95566 126.9212,163.30173 C126.97827,168.90927 126.58992,166.60623 127.08129,169.15147 L127.08129,169.15147" /><path fill="none" stroke="#26B8EE" stroke-width="0.06mm" d="M127.57292,166.40854 C127.85129,166.0635 128.14706,165.7318 128.40804,165.37341 C128.60648,165.10089 128.93959,164.39459 128.80663,164.02887 C128.7935,163.99275 128.77911,163.95609 128.75638,163.92511 C128.576,163.67935 128.37221,163.45094 128.1986,163.20038 C128.03012,162.9572 127.92678,162.61964 127.92685,162.32349 C127.92706,161.48601 128.50807,160.82922 128.95865,160.19205 L128.95865,160.19205" /><path fill="none" stroke="#26B8EE" stroke-width="0.06mm" d="M128.68375,160.89899 L128.86888,162.27356" /><path fill="none" stroke="#26B8EE" stroke-width="0.06mm" d="M127.08483,160.52307 L128.4874,160.22011" /><path fill="none" stroke="#26B8EE" stroke-width="0.06mm" d="M128.08345,157.85246 C128.77194,156.61131 128.8045,156.61383 128.8857,155.1781 C128.90839,154.77686 128.73975,154.32245 128.46376,154.03223 C128.15048,153.70279 127.545296,153.71461 127.34808,153.33347 C127.214386,153.07507 127.24559,152.63432 127.27489,152.39296 C127.38311,151.50125 127.648575,151.19467 128.17883,150.51387 L128.17883,150.51387" /><path fill="none" stroke="#26B8EE" stroke-width="0.06mm" d="M127.87026,150.66536 C127.05806,150.98709 127.536446,150.77167 126.46771,151.3779 L126.46771,151.3779" /><path fill="none" stroke="#26B8EE" stroke-width="0.06mm" d="M128.20126,151.41156 C128.50113,152.27423 128.39789,152.08276 128.86888,152.7132 L128.86888,152.7132" /><path fill="none" stroke="#26B8EE" stroke-width="0.06mm" d="M163.3621,118.327576 C160.02371,119.554276 161.19185,118.85266 159.59575,119.916794 L159.59575,119.916794" /><path fill="none" stroke="#26B8EE" stroke-width="0.06mm" d="M141.1393,119.89177 L142.3906,120.35477" /><path fill="none" stroke="#26B8EE" stroke-width="0.06mm" d="M142.55325,120.30472 L142.65504,120.3064" /><path fill="none" stroke="#26B8EE" stroke-width="0.06mm" d="M161.0,87.0 L161.0,87.0" /><path fill="none" stroke="#26B8EE" stroke-width="0.06mm" d="M142.67839,120.467384 C143.29305,121.04748 142.968,120.82521 143.62936,121.168144 L143.62936,121.168144" /><path fill="none" stroke="#26B8EE" stroke-width="0.06mm" d="M144.5428,120.25466 L144.54448,119.55559" /><path fill="none" stroke="#26B8EE" stroke-width="0.06mm" d="M144.5428,119.503845 L144.54448,119.392914" /><path fill="none" stroke="#26B8EE" stroke-width="0.06mm" d="M144.5428,119.32865 L144.51945,118.7422" /><path fill="none" stroke="#26B8EE" stroke-width="0.06mm" d="M130.49088,153.64084 C130.76727,152.89917 131.01317,152.14539 131.32007,151.41579 C131.68674,150.54413 133.5502,148.79329 133.61096,148.73671 C135.0188,147.42574 136.7113,146.53587 138.29321,145.4687 C138.77913,145.14088 138.78642,144.49963 138.95146,144.00848 C139.2156,143.22238 139.84602,142.4362 140.57468,142.03143 C141.5401,141.49512 144.03639,141.16342 144.22525,141.11337 C144.91672,140.93013 145.80507,140.28911 146.23166,139.71774 C146.94278,138.76526 147.21988,138.27782 147.61964,137.21475 C148.27077,135.48328 148.58922,133.86177 149.9605,132.5039 C150.57011,131.90024 150.70294,131.90851 151.40903,131.50734 C152.26051,131.02356 153.1327,130.57368 153.95848,130.04721 C155.32292,129.17729 155.61743,127.66048 156.23439,126.273895 C156.38046,125.9456 156.68861,125.68117 156.74971,125.32707 C156.77231,125.196045 156.4944,125.40497 156.3744,125.46228 C155.35277,125.95024 154.34268,126.46205 153.32681,126.96193 L153.32681,126.96193" /><path fill="none" stroke="#26B8EE" stroke-width="0.06mm" d="M156.43,125.72308 L156.50507,131.50436" /><path fill="none" stroke="#26B8EE" stroke-width="0.06mm" d="M157.84395,124.772064 C157.62985,124.16902 157.35876,123.46811 157.57164,122.81058 C159.26294,117.58617 158.43456,120.76328 160.58438,115.47885 C160.75435,115.061035 160.85124,114.61482 160.93169,114.17099 C160.94604,114.09183 160.94328,113.949265 160.86342,113.93948 C160.7549,113.92619 160.67496,114.053925 160.59633,114.12991 C159.7259,114.971115 158.87819,115.8355 158.01913,116.68829 L158.01913,116.68829" /><path fill="none" stroke="#26B8EE" stroke-width="0.06mm" d="M160.38405,114.42334 C160.69382,114.99237 161.00359,115.5614 161.31335,116.13043 C161.49933,116.65278 162.2079,118.13809 161.8713,117.69748 C161.04274,116.612915 160.49608,115.33953 159.80846,114.16055 L159.80846,114.16055" /><path fill="none" stroke="#000000" stroke-width="0.06mm" d="M125.60895,175.71002 C125.12411,179.73822 125.58453,178.318 124.927795,180.13782 L124.927795,180.13782" /><path fill="none" stroke="#000000" stroke-width="0.06mm" d="M126.95123,168.62758 C125.73715,174.72946 126.31851,171.49998 125.24834,178.32465 L125.24834,178.32465" /><path fill="none" stroke="#000000" stroke-width="0.06mm" d="M129.6959,170.10016 C129.84933,174.29826 129.5831,173.43716 130.84975,177.85477 C131.18246,179.01514 131.25854,178.98578 131.88963,179.68704 L131.88963,179.68704" /><path fill="none" stroke="#000000" stroke-width="0.06mm" d="M133.0416,180.98932 C138.70772,185.47475 141.88644,187.85968 147.1463,192.46909 C148.49678,193.65256 148.05618,193.74908 149.3894,194.35284 L149.3894,194.35284" /><path fill="none" stroke="#000000" stroke-width="0.06mm" d="M124.887726,180.71884 C125.26056,181.22412 125.59461,181.76044 126.006226,182.23466 C128.96146,185.63937 133.38858,189.74211 136.2423,192.59026 C139.1795,195.52173 136.60991,193.47281 141.52403,197.57788 C142.43767,198.3411 143.32553,198.65085 144.40092,199.14127 L144.40092,199.14127" /><path fill="none" stroke="#000000" stroke-width="0.06mm" d="M148.1473,194.03226 C148.857,195.04309 150.73846,197.28915 151.37877,198.97241 C151.78693,200.04538 152.11305,201.14795 152.50194,202.22806 C152.67065,202.69669 152.93938,203.1323 153.05125,203.61763 C153.24222,204.44614 153.3345,205.29639 153.40451,206.1437 C153.7481,210.30194 153.1218,205.79898 153.46634,208.13708 L153.46634,208.13708" /><path fill="none" stroke="#000000" stroke-width="0.06mm" d="M143.30905,198.83072 C143.81567,199.45384 143.9747,200.10573 144.14047,200.86429 L144.14047,200.86429" /><path fill="none" stroke="#26B8EE" stroke-width="0.06mm" d="M140.64453,192.85019 C140.61108,192.5125 140.59854,192.17209 140.54419,191.83713 C140.40486,190.97842 139.77126,190.02844 138.93713,189.7022 C138.01448,189.34132 137.0633,189.05704 136.13792,188.70317 C136.03296,188.66302 135.93866,188.59564 135.85306,188.52281 C135.3255,188.0739 135.0534,187.58122 134.6785,186.95523 C134.56454,186.76497 134.45886,186.56622 134.3919,186.3548 C134.30278,186.07333 134.27303,185.77641 134.2136,185.48723 L134.2136,185.48723" /><path fill="none" stroke="#26B8EE" stroke-width="0.06mm" d="M133.55246,185.65753 C133.79048,186.63431 133.8111,187.58742 133.68268,188.58269 L133.68268,188.58269" /><path fill="none" stroke="#26B8EE" stroke-width="0.06mm" d="M133.83295,185.5273 L138.3406,187.21027" /><path fill="none" stroke="#000000" stroke-width="0.06mm" d="M131.00813,179.88739 C129.1055,179.64505 129.62793,179.63815 127.044266,179.84961 C126.53184,179.89156 125.69931,180.24347 125.35664,180.63647 C125.17384,180.84613 125.05739,181.10547 124.90776,181.33995 L124.90776,181.33995" /><path fill="none" stroke="#000000" stroke-width="0.06mm" d="M126.780945,179.66699 C126.50161,178.95103 126.37491,178.49072 126.43034,177.7937 L126.43034,177.7937" /><path fill="none" stroke="#000000" stroke-width="0.06mm" d="M128.41373,179.96753 C128.10359,178.0546 128.15555,178.77724 128.1032,177.81374 L128.1032,177.81374" /><path fill="none" stroke="#000000" stroke-width="0.06mm" d="M129.49556,179.62692 L129.47552,177.84378" /><path fill="none" stroke="#000000" stroke-width="0.06mm" d="M143.73607,200.85826 C145.03508,201.79626 144.09135,201.09009 146.66765,203.89578 C147.26671,204.54819 147.453,204.71898 147.79948,205.41904 C147.93816,205.69922 148.00964,206.16165 148.06775,206.42458 L148.06775,206.42458" /><path fill="none" stroke="#000000" stroke-width="0.06mm" d="M152.83887,207.99402 C152.68983,208.02296 152.6049,208.02219 152.48215,208.08887 C152.24829,208.21591 151.87187,208.66763 151.82747,208.71393 C147.44244,213.29239 143.05743,217.87082 138.67242,222.44925 C138.44836,222.73378 138.2438,223.03479 138.00026,223.30281 C137.50276,223.85027 136.99118,224.38626 136.45198,224.89273 C133.88849,227.30055 136.42558,224.68457 135.1355,226.03221 L135.1355,226.03221" /><path fill="none" stroke="#000000" stroke-width="0.06mm" d="M147.67015,206.4455 C147.03067,207.48573 146.52097,208.61789 145.75172,209.56621 C141.93517,214.27121 142.68268,212.90408 139.48901,215.66965 C138.95088,216.13565 138.43538,216.62808 137.93369,217.13312 C135.80508,219.27597 133.72795,221.46954 131.59918,223.61221 C131.11327,223.97897 131.3074,223.79788 130.99214,224.12794 L130.99214,224.12794" /><path fill="none" stroke="#26B8EE" stroke-width="0.06mm" d="M145.22182,211.94904 C144.92842,212.15329 144.78214,212.46387 144.5649,212.73964 C144.05917,213.38159 144.59265,212.2768 143.83597,213.91971 C143.46642,214.7221 143.1554,215.55043 142.79419,216.35663 C142.73956,216.47859 142.59462,216.68626 142.48026,216.78302 C141.99072,217.19714 140.72603,217.73488 140.54645,217.81601 C140.5168,217.8294 139.42252,218.11594 139.16599,218.42633 C138.93481,218.70604 138.8081,219.14575 138.74167,219.49724 C138.71521,219.63722 138.70917,219.78029 138.6929,219.92183 L138.6929,219.92183" /><path fill="none" stroke="#26B8EE" stroke-width="0.06mm" d="M145.11719,212.07458 C145.01675,212.12909 144.9212,212.19371 144.8159,212.23808 C144.71617,212.28012 144.61078,212.30852 144.50523,212.33252 C144.03506,212.43948 143.55827,212.51678 143.08975,212.63077 C143.0211,212.64746 142.9626,212.69244 142.89903,212.72328 L142.89903,212.72328" /><path fill="none" stroke="#26B8EE" stroke-width="0.06mm" d="M145.34737,212.03273 L145.6194,213.18365" /><path fill="none" stroke="#000000" stroke-width="0.06mm" d="M135.97397,226.63383 C138.22841,227.94992 138.86696,228.2623 141.55254,230.55884 C142.5935,231.44904 143.5112,232.4779 144.41269,233.5091 C145.08221,234.27492 145.63173,235.13803 146.25717,235.94026 C146.47696,236.22218 146.58133,236.2276 146.6992,236.48065 C146.76723,236.62671 146.74792,236.77655 146.79836,236.92146 C146.89905,237.21083 147.01407,237.49501 147.12193,237.78178 L147.12193,237.78178" /><path fill="none" stroke="#000000" stroke-width="0.06mm" d="M135.17769,226.29257 L135.80334,226.80447" /><path fill="none" stroke="#000000" stroke-width="0.06mm" d="M146.15501,237.44052 L146.78067,238.80559" /><path fill="none" stroke="#000000" stroke-width="0.06mm" d="M130.9852,224.49754 C131.15828,224.87335 131.22285,225.10664 131.52048,225.40254 C132.4082,226.28516 133.39738,227.06755 134.23415,227.99863 C134.65399,228.4658 134.92664,229.04677 135.26889,229.57346 C136.00151,230.70085 136.65715,231.88142 137.45879,232.96086 C140.1932,236.64287 138.33763,233.9639 139.992,235.52713 C141.3856,236.84396 141.51752,237.03516 142.51428,238.19109 L142.51428,238.19109" /><path fill="none" stroke="#000000" stroke-width="0.06mm" d="M146.17694,241.14641 C143.1343,244.34875 140.05914,247.52057 137.04898,250.7535 C136.82314,250.99605 136.6596,251.29015 136.47552,251.56575 C136.41681,251.65366 136.40114,251.77353 136.32138,251.84291 C136.2933,251.86734 136.27774,251.77957 136.27203,251.7428 C136.25803,251.65256 136.26625,251.56024 136.26337,251.46896 L136.26337,251.46896" /><path fill="none" stroke="#000000" stroke-width="0.06mm" d="M146.67212,237.22566 C146.85492,238.2833 146.87346,239.42221 146.50482,240.44626 C146.10892,241.54611 146.26593,241.34236 145.8145,241.79987 L145.8145,241.79987" /><path fill="none" stroke="#000000" stroke-width="0.06mm" d="M142.21559,238.00676 C142.11328,238.20146 142.05429,238.42603 141.90866,238.59085 C140.7568,239.81557 139.60495,241.04027 138.45311,242.26497 C138.17319,242.53432 137.8782,242.78883 137.61333,243.07298 C136.6715,244.08336 135.7304,245.09564 134.83447,246.14693 C134.58081,246.44458 134.40741,246.80313 134.16977,247.11374 C133.9751,247.36816 133.72545,247.57843 133.5396,247.83937 C133.08006,248.53757 132.62054,249.2358 132.16101,249.93402 C132.14316,249.94601 132.1161,249.98975 132.10747,249.97005 C132.07686,249.90027 132.08743,249.81898 132.07741,249.74344 L132.07741,249.74344" /><path fill="none" stroke="#000000" stroke-width="0.06mm" d="M131.17609,249.88895 C131.23363,250.0633 131.31758,250.24939 131.27266,250.43823 C131.25034,250.53207 131.21107,250.62152 131.19147,250.71596 C131.15298,250.90143 131.18732,251.08461 131.12157,251.26613 C131.05464,251.45091 130.94408,251.62146 130.9028,251.8136 C129.55974,258.06744 130.82602,254.27063 128.77377,259.46893 L128.77377,259.46893" /><path fill="none" stroke="#000000" stroke-width="0.06mm" d="M136.30298,251.14871 C133.90726,259.27582 137.44128,247.42845 133.59605,259.57947 C133.49913,259.88574 133.4671,260.20892 133.40262,260.52362 L133.40262,260.52362" /><path fill="none" stroke="#000000" stroke-width="0.06mm" d="M132.99248,260.52362 C132.92496,260.654 132.83453,260.77487 132.78995,260.91473 C131.91751,263.6522 131.18018,266.4332 130.24341,269.1493 C129.90979,270.11667 129.60486,270.31973 129.17259,270.98947 C129.14627,271.03024 129.12703,271.07538 129.10843,271.1202 C129.04286,271.27826 128.98297,271.43854 128.92026,271.59772 L128.92026,271.59772" /><path fill="none" stroke="#26B8EE" stroke-width="0.06mm" d="M127.32507,266.89764 C127.36693,266.76178 127.49936,266.2101 127.6514,266.03967 C129.1253,264.38733 130.93517,263.24365 131.18207,260.96622 C131.25455,260.29782 131.2326,259.6486 131.0657,258.99524 C130.92133,258.43 130.72101,257.8805 130.54262,257.32507 C130.5151,257.2394 130.20639,256.66068 130.33205,256.41064 C130.46194,256.1522 131.25381,256.00717 131.27174,255.99887 C131.4843,255.90068 131.67085,255.7539 131.8704,255.63144 L131.8704,255.63144" /><path fill="none" stroke="#26B8EE" stroke-width="0.06mm" d="M131.40422,255.35951 C130.1699,255.4565 130.89275,255.3416 129.26753,255.86452 L129.26753,255.86452" /><path fill="none" stroke="#26B8EE" stroke-width="0.06mm" d="M131.90926,255.63144 L131.9481,256.33075" /><path fill="none" stroke="#000000" stroke-width="0.06mm" d="M128.4387,258.74774 C123.077736,266.3244 127.276505,260.9242 117.83525,270.46558 C117.309784,270.99664 116.85704,271.59503 116.367935,272.15976 L116.367935,272.15976" /><path fill="none" stroke="#000000" stroke-width="0.06mm" d="M129.03479,271.34012 C128.70184,271.41394 128.36198,271.46152 128.03596,271.56158 C127.82167,271.62738 127.613205,271.7188 127.42169,271.83533 C125.78037,272.83386 124.172905,273.88712 122.542656,274.9037 C121.98685,275.25024 121.41071,275.5644 120.86367,275.92462 C120.459816,276.19058 119.94435,276.7717 119.64641,277.07748 L119.64641,277.07748" /><path fill="none" stroke="#000000" stroke-width="0.06mm" d="M114.8032,271.56366 C105.59545,283.4862 107.5818,282.21576 99.393845,289.77957 C99.15043,290.00446 98.859024,290.17767 98.560715,290.32196 C97.488495,290.8407 95.53771,291.4126 94.36198,292.3375 C94.10101,292.5428 93.97305,292.75568 93.802795,293.03333 C93.17808,294.05212 92.657555,295.14105 91.93978,296.09656 C82.97602,308.02966 88.86164,299.23694 85.96746,303.6034 L85.96746,303.6034" /><path fill="none" stroke="#000000" stroke-width="0.06mm" d="M120.54054,276.48138 C117.257164,278.44855 115.96828,278.68158 113.85163,281.45087 C111.95775,283.92868 110.48811,286.7293 108.45209,289.09167 C104.34062,293.86224 99.80974,298.2548 95.45131,302.8008 C94.990524,303.28143 94.82413,303.1889 94.5535,303.64673 C94.47204,303.78455 94.401375,303.92987 94.34777,304.08072 C93.98937,305.08954 93.76816,306.1515 93.31845,307.12302 C92.73357,308.3866 91.94464,309.5453 91.25774,310.7564 L91.25774,310.7564" /><path fill="none" stroke="#000000" stroke-width="0.06mm" d="M90.61938,310.3818 C90.269806,310.5553 89.90425,310.69977 89.57065,310.9023 C89.29863,311.06744 89.064964,311.2888 88.81056,311.47998 C88.04335,312.05646 87.29838,312.66425 86.50584,313.20544 C85.65559,313.786 84.66592,314.16953 83.88652,314.84222 C77.630356,320.24197 74.797,324.3414 69.41771,331.39038 C68.57984,332.4883 67.92707,333.71738 67.12202,334.8396 C61.417923,342.79102 63.993584,338.40054 61.52208,342.78754 L61.52208,342.78754" /><path fill="none" stroke="#000000" stroke-width="0.06mm" d="M86.29296,302.40762 C84.846634,303.7193 83.400314,305.03094 81.95399,306.34265 C80.210846,307.61835 78.275055,308.66583 76.724556,310.16983 C74.201385,312.6173 72.194016,315.5492 69.804695,318.1275 C59.04843,329.73456 69.52485,317.647 64.830505,323.10657 L64.830505,323.10657" /><path fill="none" stroke="#000000" stroke-width="0.06mm" d="M63.812546,322.25824 C49.046463,344.87057 62.321686,325.59546 54.310936,335.71527 C53.38713,336.8823 52.637756,338.1809 51.710052,339.34482 C51.17933,340.01068 50.50798,340.5526 49.945686,341.19202 C49.33465,341.88684 49.118332,342.85718 48.88215,343.7207 L48.88215,343.7207" /><path fill="none" stroke="#000000" stroke-width="0.06mm" d="M59.14679,343.29657 C58.37332,344.1973 57.459053,344.99414 56.826378,345.99878 C53.772865,350.84756 51.43979,356.15176 48.113083,360.81732 C44.125618,366.40958 39.389214,371.4286 34.9545,376.6732 C34.710068,376.96228 34.377335,377.16324 34.08651,377.4056 C33.49259,377.90054 32.859787,378.35147 32.300293,378.885 C31.295593,379.84308 31.097443,380.5679 30.182678,381.68906 C29.752792,382.21594 29.245575,382.67468 28.777008,383.16748 L28.777008,383.16748" /><path fill="none" stroke="#000000" stroke-width="0.06mm" d="M46.126877,342.9198 L46.128036,342.6892" /><path fill="none" stroke="#000000" stroke-width="0.06mm" d="M49.023872,341.58722 C46.013206,348.19977 49.674194,340.34137 41.098717,355.53058 C34.22516,367.70526 45.214546,351.98883 29.275848,374.62387 C28.439331,375.81183 27.288712,376.7452 26.339844,377.8455 C25.967499,378.27728 25.671448,378.76993 25.315994,379.21573 C25.21556,379.3417 24.9859,379.48438 24.843277,379.55032 C24.303925,379.79962 23.536957,380.00552 23.16249,380.54468 C21.985626,382.23923 20.858414,383.96777 19.706375,385.67932 L19.706375,385.67932" /><path fill="none" stroke="#000000" stroke-width="0.06mm" d="M18.60553,383.59348 C17.928299,383.68625 17.430328,383.5251 16.809387,383.30377 L16.809387,383.30377" /><path fill="none" stroke="#000000" stroke-width="0.06mm" d="M10.493988,380.4068 L8.350204,378.32098" /><path fill="none" stroke="#000000" stroke-width="0.06mm" d="M29.72995,383.94116 C28.836945,384.64725 27.943909,385.3534 27.050903,386.05954 C26.57132,386.4504 26.13736,386.9052 25.612137,387.2322 C23.13498,388.77435 21.063187,390.12366 18.308014,390.814 C16.31282,391.3139 14.332153,391.09235 12.2901,391.06772 L12.2901,391.06772" /><text x="202.92332" y="61.42558" font-family="sans-serif" font-size=".2mm" fill="black">studnia eskapistw</text>
</g>
<g>
<line fill="none" stroke="#5674b9" stroke-width="0.05mm" stroke-dasharray="0.4,0.2" opacity="0.24" x1="161.00" y1="87.00" x2="142.81" y2="23.33" />
<line fill="none" stroke="#5674b9" stroke-width="0.05mm" stroke-dasharray="0.4,0.2" opacity="0.25" x1="161.00" y1="87.00" x2="131.09" y2="19.91" />
<line fill="none" stroke="#111111" stroke-width="0.05mm" x1="161.00" y1="87.00" x2="149.18" y2="119.13" />
<line fill="none" stroke="#00aeef" stroke-width="0.05mm" stroke-dasharray="0.4,0.2" opacity="0.29" x1="149.18" y1="119.13" x2="137.34" y2="151.28" />
<line fill="none" stroke="#111111" stroke-width="0.05mm" x1="149.18" y1="119.13" x2="127.92" y2="141.68" />
<line fill="none" stroke="#00aeef" stroke-width="0.05mm" stroke-dasharray="0.4,0.2" opacity="0.96" x1="127.92" y1="141.68" x2="130.20" y2="146.66" />
<line fill="none" stroke="#00aeef" stroke-width="0.05mm" stroke-dasharray="0.4,0.2" opacity="0.03" x1="127.92" y1="141.68" x2="128.45" y2="142.75" />
<line fill="none" stroke="#5674b9" stroke-width="0.05mm" stroke-dasharray="0.4,0.2" opacity="0.37" x1="127.92" y1="141.68" x2="128.68" y2="148.58" />
<line fill="none" stroke="#5674b9" stroke-width="0.05mm" stroke-dasharray="0.4,0.2" opacity="0.90" x1="127.92" y1="141.68" x2="124.33" y2="139.25" />
<line fill="none" stroke="#5674b9" stroke-width="0.05mm" stroke-dasharray="0.4,0.2" opacity="0.14" x1="127.92" y1="141.68" x2="125.90" y2="140.80" />
<line fill="none" stroke="#00aeef" stroke-width="0.05mm" stroke-dasharray="0.4,0.2" opacity="0.07" x1="127.92" y1="141.68" x2="125.13" y2="139.77" />
<line fill="none" stroke="#111111" stroke-width="0.05mm" x1="127.92" y1="141.68" x2="130.15" y2="170.37" />
<line fill="none" stroke="#5674b9" stroke-width="0.05mm" stroke-dasharray="0.4,0.2" opacity="0.94" x1="130.15" y1="170.37" x2="127.12" y2="168.51" />
<line fill="none" stroke="#5674b9" stroke-width="0.05mm" stroke-dasharray="0.4,0.2" opacity="0.17" x1="130.15" y1="170.37" x2="126.65" y2="168.82" />
<line fill="none" stroke="#00aeef" stroke-width="0.05mm" stroke-dasharray="0.4,0.2" opacity="0.10" x1="130.15" y1="170.37" x2="126.40" y2="173.82" />
<line fill="none" stroke="#111111" stroke-width="0.05mm" x1="130.15" y1="170.37" x2="125.30" y2="180.29" />
<line fill="none" stroke="#00aeef" stroke-width="0.05mm" stroke-dasharray="0.4,0.2" opacity="0.96" x1="125.30" y1="180.29" x2="131.45" y2="178.61" />
<line fill="none" stroke="#00aeef" stroke-width="0.05mm" stroke-dasharray="0.4,0.2" opacity="0.23" x1="125.30" y1="180.29" x2="126.00" y2="179.19" />
<line fill="none" stroke="#111111" stroke-width="0.05mm" x1="125.30" y1="180.29" x2="143.97" y2="198.39" />
<line fill="none" stroke="#00aeef" stroke-width="0.05mm" stroke-dasharray="0.4,0.2" opacity="0.94" x1="143.97" y1="198.39" x2="148.34" y2="193.44" />
<line fill="none" stroke="#00aeef" stroke-width="0.05mm" stroke-dasharray="0.4,0.2" opacity="0.36" x1="143.97" y1="198.39" x2="144.18" y2="197.21" />
<line fill="none" stroke="#5674b9" stroke-width="0.05mm" stroke-dasharray="0.4,0.2" opacity="0.12" x1="143.97" y1="198.39" x2="139.11" y2="204.16" />
<line fill="none" stroke="#111111" stroke-width="0.05mm" x1="143.97" y1="198.39" x2="153.63" y2="207.31" />
<line fill="none" stroke="#00aeef" stroke-width="0.05mm" stroke-dasharray="0.4,0.2" opacity="1.00" x1="153.63" y1="207.31" x2="148.25" y2="206.29" />
<line fill="none" stroke="#111111" stroke-width="0.05mm" x1="153.63" y1="207.31" x2="131.51" y2="224.16" />
<line fill="none" stroke="#00aeef" stroke-width="0.05mm" stroke-dasharray="0.4,0.2" opacity="0.09" x1="131.51" y1="224.16" x2="133.09" y2="221.36" />
<line fill="none" stroke="#5674b9" stroke-width="0.05mm" stroke-dasharray="0.4,0.2" opacity="0.03" x1="131.51" y1="224.16" x2="132.00" y2="224.99" />
<line fill="none" stroke="#5674b9" stroke-width="0.05mm" stroke-dasharray="0.4,0.2" opacity="0.98" x1="131.51" y1="224.16" x2="135.19" y2="225.58" />
<line fill="none" stroke="#5674b9" stroke-width="0.05mm" stroke-dasharray="0.4,0.2" opacity="0.01" x1="131.51" y1="224.16" x2="131.35" y2="223.85" />
<line fill="none" stroke="#5674b9" stroke-width="0.05mm" stroke-dasharray="0.4,0.2" opacity="0.97" x1="131.51" y1="224.16" x2="135.41" y2="224.97" />
<line fill="none" stroke="#00aeef" stroke-width="0.05mm" stroke-dasharray="0.4,0.2" opacity="0.14" x1="131.51" y1="224.16" x2="128.48" y2="227.79" />
<line fill="none" stroke="#111111" stroke-width="0.05mm" x1="131.51" y1="224.16" x2="147.45" y2="238.97" />
<line fill="none" stroke="#00aeef" stroke-width="0.05mm" stroke-dasharray="0.4,0.2" opacity="0.97" x1="147.45" y1="238.97" x2="144.12" y2="241.08" />
<line fill="none" stroke="#00aeef" stroke-width="0.05mm" stroke-dasharray="0.4,0.2" opacity="0.16" x1="147.45" y1="238.97" x2="142.31" y2="234.53" />
<line fill="none" stroke="#00aeef" stroke-width="0.05mm" stroke-dasharray="0.4,0.2" opacity="0.85" x1="147.45" y1="238.97" x2="132.43" y2="249.82" />
<line fill="none" stroke="#00aeef" stroke-width="0.05mm" stroke-dasharray="0.4,0.2" opacity="0.91" x1="147.45" y1="238.97" x2="146.47" y2="235.35" />
<line fill="none" stroke="#00aeef" stroke-width="0.05mm" stroke-dasharray="0.4,0.2" opacity="0.20" x1="147.45" y1="238.97" x2="140.78" y2="240.81" />
<line fill="none" stroke="#5674b9" stroke-width="0.05mm" stroke-dasharray="0.4,0.2" opacity="0.04" x1="147.45" y1="238.97" x2="147.42" y2="239.86" />
<line fill="none" stroke="#00aeef" stroke-width="0.05mm" stroke-dasharray="0.4,0.2" opacity="0.88" x1="147.45" y1="238.97" x2="136.17" y2="244.17" />
<line fill="none" stroke="#00aeef" stroke-width="0.05mm" stroke-dasharray="0.4,0.2" opacity="0.87" x1="147.45" y1="238.97" x2="136.15" y2="244.20" />
<line fill="none" stroke="#00aeef" stroke-width="0.05mm" stroke-dasharray="0.4,0.2" opacity="0.80" x1="147.45" y1="238.97" x2="136.25" y2="243.41" />
<line fill="none" stroke="#111111" stroke-width="0.05mm" x1="147.45" y1="238.97" x2="132.21" y2="249.90" />
<line fill="none" stroke="#00aeef" stroke-width="0.05mm" stroke-dasharray="0.4,0.2" opacity="0.89" x1="132.21" y1="249.90" x2="136.16" y2="251.68" />
<line fill="none" stroke="#00aeef" stroke-width="0.05mm" stroke-dasharray="0.4,0.2" opacity="0.15" x1="132.21" y1="249.90" x2="129.86" y2="257.88" />
<line fill="none" stroke="#5674b9" stroke-width="0.05mm" stroke-dasharray="0.4,0.2" opacity="0.04" x1="132.21" y1="249.90" x2="132.87" y2="250.53" />
<line fill="none" stroke="#111111" stroke-width="0.05mm" x1="132.21" y1="249.90" x2="132.62" y2="258.10" />
<line fill="none" stroke="#111111" stroke-width="0.05mm" x1="132.62" y1="258.10" x2="123.14" y2="273.58" />
<line fill="none" stroke="#00aeef" stroke-width="0.05mm" stroke-dasharray="0.4,0.2" opacity="0.11" x1="123.14" y1="273.58" x2="123.01" y2="272.91" />
<line fill="none" stroke="#00aeef" stroke-width="0.05mm" stroke-dasharray="0.4,0.2" opacity="0.74" x1="123.14" y1="273.58" x2="117.34" y2="271.77" />
<line fill="none" stroke="#5674b9" stroke-width="0.05mm" stroke-dasharray="0.4,0.2" opacity="0.09" x1="123.14" y1="273.58" x2="126.09" y2="267.90" />
<line fill="none" stroke="#5674b9" stroke-width="0.05mm" stroke-dasharray="0.4,0.2" opacity="0.96" x1="123.14" y1="273.58" x2="121.02" y2="276.81" />
<line fill="none" stroke="#111111" stroke-width="0.05mm" x1="123.14" y1="273.58" x2="86.94" y2="303.54" />
<line fill="none" stroke="#5674b9" stroke-width="0.05mm" stroke-dasharray="0.4,0.2" opacity="0.99" x1="86.94" y1="303.54" x2="89.90" y2="311.12" />
<line fill="none" stroke="#00aeef" stroke-width="0.05mm" stroke-dasharray="0.4,0.2" opacity="0.15" x1="86.94" y1="303.54" x2="84.27" y2="304.65" />
<line fill="none" stroke="#5674b9" stroke-width="0.05mm" stroke-dasharray="0.4,0.2" opacity="0.11" x1="86.94" y1="303.54" x2="88.50" y2="311.32" />
<line fill="none" stroke="#00aeef" stroke-width="0.05mm" stroke-dasharray="0.4,0.2" opacity="0.70" x1="86.94" y1="303.54" x2="66.99" y2="321.45" />
<line fill="none" stroke="#111111" stroke-width="0.05mm" x1="86.94" y1="303.54" x2="66.90" y2="321.40" />
<line fill="none" stroke="#5674b9" stroke-width="0.05mm" stroke-dasharray="0.4,0.2" opacity="0.95" x1="66.90" y1="321.40" x2="66.26" y2="323.01" />
<line fill="none" stroke="#111111" stroke-width="0.05mm" x1="66.90" y1="321.40" x2="51.60" y2="346.96" />
<line fill="none" stroke="#5674b9" stroke-width="0.05mm" stroke-dasharray="0.4,0.2" opacity="0.92" x1="51.60" y1="346.96" x2="48.95" y2="342.53" />
<line fill="none" stroke="#00aeef" stroke-width="0.05mm" stroke-dasharray="0.4,0.2" opacity="0.21" x1="51.60" y1="346.96" x2="51.99" y2="345.06" />
<line fill="none" stroke="#5674b9" stroke-width="0.05mm" stroke-dasharray="0.4,0.2" opacity="0.10" x1="51.60" y1="346.96" x2="49.60" y2="353.71" />
<line fill="none" stroke="#111111" stroke-width="0.05mm" x1="51.60" y1="346.96" x2="29.61" y2="382.73" />
<line fill="none" stroke="#5674b9" stroke-width="0.05mm" stroke-dasharray="0.4,0.2" opacity="0.96" x1="29.61" y1="382.73" x2="20.95" y2="384.81" />
<line fill="none" stroke="#5674b9" stroke-width="0.05mm" stroke-dasharray="0.4,0.2" opacity="0.96" x1="29.61" y1="382.73" x2="20.81" y2="384.76" />
<line fill="none" stroke="#111111" stroke-width="0.05mm" x1="29.61" y1="382.73" x2="20.68" y2="384.65" />
</g>
<g>
<circle cx="161.00" cy="87.00" r="0.1" fill="#111111" />
<circle cx="149.18" cy="119.13" r="0.1" fill="#111111" />
<circle cx="127.92" cy="141.68" r="0.1" fill="#111111" />
<circle cx="130.15" cy="170.37" r="0.1" fill="#111111" />
<circle cx="125.30" cy="180.29" r="0.1" fill="#111111" />
<circle cx="143.97" cy="198.39" r="0.1" fill="#111111" />
<circle cx="153.63" cy="207.31" r="0.1" fill="#111111" />
<circle cx="131.51" cy="224.16" r="0.1" fill="#111111" />
<circle cx="147.45" cy="238.97" r="0.1" fill="#111111" />
<circle cx="132.21" cy="249.90" r="0.1" fill="#111111" />
<circle cx="132.62" cy="258.10" r="0.1" fill="#111111" />
<circle cx="123.14" cy="273.58" r="0.1" fill="#111111" />
<circle cx="86.94" cy="303.54" r="0.1" fill="#111111" />
<circle cx="66.90" cy="321.40" r="0.1" fill="#111111" />
<circle cx="51.60" cy="346.96" r="0.1" fill="#111111" />
<circle cx="29.61" cy="382.73" r="0.1" fill="#111111" />
<circle cx="20.68" cy="384.65" r="0.1" fill="#111111" />
</g>
<g>
<text x="161.20" y="87.00" font-size=".2mm" fill="#000000">0</text>
<text x="149.38" y="119.13" font-size=".2mm" fill="#000000">1</text>
<text x="128.12" y="141.68" font-size=".2mm" fill="#000000">2</text>
<text x="130.35" y="170.37" font-size=".2mm" fill="#000000">3</text>
<text x="125.50" y="180.29" font-size=".2mm" fill="#000000">4</text>
<text x="144.17" y="198.39" font-size=".2mm" fill="#000000">5</text>
<text x="153.83" y="207.31" font-size=".2mm" fill="#000000">6</text>
<text x="131.71" y="224.16" font-size=".2mm" fill="#000000">7</text>
<text x="147.65" y="238.97" font-size=".2mm" fill="#000000">8</text>
<text x="132.41" y="249.90" font-size=".2mm" fill="#000000">9</text>
<text x="132.82" y="258.10" font-size=".2mm" fill="#000000">10</text>
<text x="123.34" y="273.58" font-size=".2mm" fill="#000000">11</text>
<text x="87.14" y="303.54" font-size=".2mm" fill="#000000">12</text>
<text x="67.10" y="321.40" font-size=".2mm" fill="#000000">13</text>
<text x="51.80" y="346.96" font-size=".2mm" fill="#000000">14</text>
<text x="29.81" y="382.73" font-size=".2mm" fill="#000000">15</text>
<text x="20.88" y="384.65" font-size=".2mm" fill="#000000">16</text>
</g>
<g>
</g>
</g>
</svg>