<?xml version="1.0" encoding="utf-8"?>
<!DOCTYPE svg PUBLIC "-//W3C//DTD SVG 1.1//EN" "http://www.w3.org/Graphics/SVG/1.1/DTD/svg11.dtd">
<svg version="1.1" id="Layer_1" xmlns="http://www.w3.org/2000/svg" xmlns:xlink="http://www.w3.org/1999/xlink" x="0px" y="0px" width="433mm" height="395mm" viewBox="0 0 433 395" style="background-color:#ffffff;enable-background:new 0 0 433 395;" xml:space="preserve">
<symbol id="airflow" viewBox="-12 -12 24 24">
<path d="M-4.38,10.73l4.2-3.84V3.55L-4.07,7.13l-.31-.29L-.18,3V-6.89a3.37,3.37,0,0,0-1.68.53l1.68-4.15L0-11l.21.51h0v0l1.65,4.1A3.26,3.26,0,0,0,.24-6.89v14l-.08,0L-4.07,11Z"/>
<rect fill="none" x="-12" y="-12" width="24" height="24"/>
</symbol>
<symbol id="anastomosis" viewBox="-12 -12 24 24">
<path d="M2.23-4.78l.37.24L5.22-2.78l-.47.57L2.49-3.7l-4.61,8-.24.44-.37-.34L-5.22,2.3l.55-.52,2.1,1.82L2-4.39Z"/>
<rect fill="none" x="-12" y="-12" width="24" height="24"/>
</symbol>
<symbol id="bivouac" viewBox="-12 -12 24 24">
<path d="M.25-7.66l.24.58L.54-7l3.88.48-3.31.91L6,6H8.35v.48l-16.7.07V6.05h2.64L0-7.08Zm0,1.32L-5.13,6H-4l2.07-5L.2-4l2.09,5L4.37,6H5.44Z"/>
<rect fill="none" x="-12" y="-12" width="24" height="24"/>
</symbol>
<symbol id="bones" viewBox="-12 -12 24 24">
<path d="M2.44,4.27l-.16,0H2.13a.22.22,0,0,1-.11,0l-.1-.06a.39.39,0,0,1-.09-.11l-.08-.13a1.51,1.51,0,0,1-.06-.15l-.07-.17s0-.11-.08-.19-.06-.16-.08-.21a4.75,4.75,0,0,0-.38-.71c-.18-.29-.43-.64-.74-1A11.15,11.15,0,0,0-.7.32,6.73,6.73,0,0,0-2-.64a4.12,4.12,0,0,0-1.44-.52A1.64,1.64,0,0,1-5-2.19.72.72,0,0,1-5-2.44a1,1,0,0,1,0-.29A.52.52,0,0,1-4.87-3a.54.54,0,0,1,.35-.15L-4-3.22l.46,0a.54.54,0,0,0,.27-.06A.52.52,0,0,0-3-3.56a.74.74,0,0,0,.13-.31.54.54,0,0,1,.15-.26.54.54,0,0,1,.3-.15.83.83,0,0,1,.47,0,1.11,1.11,0,0,1,.35.4A7.46,7.46,0,0,1-1-2.76q.18.42.33.72a3.22,3.22,0,0,0,.39.57L.1-1a4.77,4.77,0,0,0,.58.43c.28.18.51.33.69.43l1,.56a1.84,1.84,0,0,0,.39.23A5.29,5.29,0,0,1,3.22.9l.43.26a3.7,3.7,0,0,1,.46.3l.36.29a2.28,2.28,0,0,1,.31.32A1,1,0,0,1,5,2.4c.2.48,0,.78-.47.91h0a8.48,8.48,0,0,0-1.12.09,1,1,0,0,0-.42.44A1,1,0,0,1,2.44,4.27Z"/>
<rect fill="none" x="-12" y="-12" width="24" height="24"/>
</symbol>
<symbol id="calcite" viewBox="-12 -12 24 24">
<path d="M2.36-2.22l.05.46.34,3.91L2,2.22,1.65-1.26-2.52-.06l-.23-.7L1.89-2.08Z"/>
<rect fill="none" x="-12" y="-12" width="24" height="24"/>
</symbol>
<symbol id="cauliflower" viewBox="-12 -12 24 24">
<path d="M5.58,3.22v-3A2.12,2.12,0,0,0,6.92-.43a1.78,1.78,0,0,0,.55-1.32,1.92,1.92,0,0,0-.65-1.42,2.19,2.19,0,0,0-1.53-.59,2.21,2.21,0,0,0-1.54.59,1.78,1.78,0,0,0-.64,1.42A1.86,1.86,0,0,0,3.65-.43,2.12,2.12,0,0,0,5,.23v3H.26v-3A2.17,2.17,0,0,0,1.61-.43a1.81,1.81,0,0,0,.54-1.32,1.91,1.91,0,0,0-.64-1.42A2.21,2.21,0,0,0,0-3.76a2.21,2.21,0,0,0-1.54.59,1.82,1.82,0,0,0-.64,1.42A1.83,1.83,0,0,0-1.66-.43,2.12,2.12,0,0,0-.32.23v3H-5v-3A2.12,2.12,0,0,0-3.71-.43a1.78,1.78,0,0,0,.55-1.32,1.92,1.92,0,0,0-.65-1.42,2.19,2.19,0,0,0-1.53-.59,2.21,2.21,0,0,0-1.54.59,1.83,1.83,0,0,0-.65,1.42A1.87,1.87,0,0,0-7-.43,2.12,2.12,0,0,0-5.64.23v3H-8v.54H8V3.22Z"/>
<rect fill="none" x="-12" y="-12" width="24" height="24"/>
</symbol>
<symbol id="clay" viewBox="-12 -12 24 24">
<path d="M1.85-1.33a3,3,0,0,1,1.67.48,3.23,3.23,0,0,1,1,1l.29.51-1,.43a3.81,3.81,0,0,0-.23-.4A3.74,3.74,0,0,0,2.93,0,1.77,1.77,0,0,0,1.85-.32a2.57,2.57,0,0,0-1.1.15A.86.86,0,0,0,.51.14,2.23,2.23,0,0,1,0,.88a2.55,2.55,0,0,1-1.45.43,3.16,3.16,0,0,1-2.75-1,4.28,4.28,0,0,1-.37-.57,3.91,3.91,0,0,1-.21-.47l0-.16,1-.22a1.87,1.87,0,0,0,.45.79A2.12,2.12,0,0,0-1.51.33,1.82,1.82,0,0,0-.69.14l.21-.36A1.53,1.53,0,0,1,.17-1,3.76,3.76,0,0,1,1.85-1.33Z"/>
<rect fill="none" x="-12" y="-12" width="24" height="24"/>
</symbol>
<symbol id="crystals" viewBox="-12 -12 24 24">
<path d="M-2.94-5.38,0-.72,2.94-5.38,3.62-5,.68-.36H6.56V.36H.68L3.62,5l-.68.36L0,.72-2.94,5.38-3.62,5-.68.36H-6.56V-.36H-.68L-3.62-5Z"/>
<rect fill="none" x="-12" y="-12" width="24" height="24"/>
</symbol>
<symbol id="curtain" viewBox="-12 -12 24 24">
<path d="M3.57-6.69l.52.53L.39-3V-.33L.1-.26a3.79,3.79,0,0,0-1,.41c-.58.3-.87.65-.87,1v.07A1.61,1.61,0,0,0-.84,2.48a3.69,3.69,0,0,0,.45.24L0,2.86l.13.05L.39,3V6.12H-.39V3.51a7.65,7.65,0,0,1-.9-.46A2.19,2.19,0,0,1-2.54,1.28V1.23A2,2,0,0,1-1.31-.48,5.32,5.32,0,0,1-.39-.86V-3l-3.7-3.14.52-.53L0-3.67Z"/>
<rect fill="none" x="-12" y="-12" width="24" height="24"/>
</symbol>
<symbol id="disk" viewBox="-12 -12 24 24">
<path d="M-.09-4.19a2.43,2.43,0,0,1,1.7.64A2,2,0,0,1,2.35-2,2.09,2.09,0,0,1,1.81-.55,2.44,2.44,0,0,1,.35.23l2.18,3.6-.68.33L0,1.14-1.48,4.19l-.71-.29L-.41.25A2.53,2.53,0,0,1-1.9-.47a2,2,0,0,1-.63-1.41,2,2,0,0,1,.67-1.61,2.46,2.46,0,0,1,1.72-.7ZM1.05-3.06.56-3.49l-.69,0A1.72,1.72,0,0,0-1.29-3a1.51,1.51,0,0,0-.45,1.08,1.36,1.36,0,0,0,.51,1A1.68,1.68,0,0,0-.07-.44v0l0,0A1.7,1.7,0,0,0,1.11-.92,1.36,1.36,0,0,0,1.56-2,1.47,1.47,0,0,0,1.05-3.06Z"/>
<rect fill="none" x="-12" y="-12" width="24" height="24"/>
</symbol>
<symbol id="entrance" viewBox="-12 -12 24 24">
<path d="M4.46,9H-4.46L0-9Z"/>
<rect fill="none" x="-12" y="-12" width="24" height="24"/>
</symbol>
<symbol id="flowstone" viewBox="-12 -12 24 24">
<rect x="-6" y="-0.21" width="12" height="0.42"/>
<rect fill="none" x="-12" y="-12" width="24" height="24"/>
</symbol>
<symbol id="flutes" viewBox="-12 -12 24 24">
<path d="M-7-1H7v.72H3.87A4.7,4.7,0,0,1,2.16,1.5,4.2,4.2,0,0,1,0,2.13,3.94,3.94,0,0,1-2.19,1.5,4.18,4.18,0,0,1-3.76-.27H-7Zm4.17.72A3.15,3.15,0,0,0-1.65,1,3.21,3.21,0,0,0,0,1.41,3.49,3.49,0,0,0,1.6,1,3.68,3.68,0,0,0,3-.27Z"/>
<rect fill="none" x="-12" y="-12" width="24" height="24"/>
</symbol>
<symbol id="gradient" viewBox="-12 -12 24 24">
<path d="M2.58-3.83,0-10-2.58-3.83A4.74,4.74,0,0,1-.17-4.5V10H.25V-4.5A6.65,6.65,0,0,1,2.58-3.83Z"/>
<rect fill="none" x="-12" y="-12" width="24" height="24"/>
</symbol>
<symbol id="guano" viewBox="-12 -12 24 24">
<path d="M-3.24-3a2.15,2.15,0,0,1,1.57.55A3.93,3.93,0,0,1-.59.24a4.32,4.32,0,0,1,2.75-2.3,2.68,2.68,0,0,1,2.23.36A2.36,2.36,0,0,1,5.5.19l-.79,0a1.72,1.72,0,0,0-.79-1.37,1.94,1.94,0,0,0-1.55-.24A3.53,3.53,0,0,0,.48,0,6.63,6.63,0,0,0-.69,3l-.79-.09a10.72,10.72,0,0,0,0-3.16A3.21,3.21,0,0,0-2.22-2,1.44,1.44,0,0,0-3.37-2.3,3.45,3.45,0,0,0-5-1.54l-.5-.55a4.29,4.29,0,0,1,2-.91A.9.9,0,0,1-3.24-3Z"/>
<rect fill="none" x="-12" y="-12" width="24" height="24"/>
</symbol>
<symbol id="helictites" viewBox="-12 -12 24 24">
<path d="M-4.59-7.92h.79v7.7l3.41,0V-7.92H.39V-.17L4.2-.12h.39v8H3.8V.6L.39.55V7.92H-.39V.55L-4.2.5l-.39,0v-8.4Z"/>
<rect fill="none" x="-12" y="-12" width="24" height="24"/>
</symbol>
<symbol id="human" viewBox="-12 -12 24 24">
<path d="M-3.59-3.29A5.13,5.13,0,0,1,0-4.66,5.13,5.13,0,0,1,3.59-3.29,4.3,4.3,0,0,1,5.09,0a4.3,4.3,0,0,1-1.5,3.29A5.13,5.13,0,0,1,0,4.66,5.13,5.13,0,0,1-3.59,3.29,4.3,4.3,0,0,1-5.09,0,4.3,4.3,0,0,1-3.59-3.29Zm.28.77A3.68,3.68,0,0,0-4.3,0a3.62,3.62,0,0,0,1,2.57L-.5.05ZM0-3.94A4.42,4.42,0,0,0-2.75-3L.16-.36H4.28A3.62,3.62,0,0,0,2.91-2.9,4.38,4.38,0,0,0,0-3.94ZM.16.46-2.7,3.07A4.42,4.42,0,0,0,0,3.94a4.37,4.37,0,0,0,2.87-1A3.78,3.78,0,0,0,4.28.46Z"/>
<rect fill="none" x="-12" y="-12" width="24" height="24"/>
</symbol>
<symbol id="karren" viewBox="-12 -12 24 24">
<path d="M1-5.84h0a1.37,1.37,0,0,1,1.06.68A3.33,3.33,0,0,1,2.5-3.79,25.79,25.79,0,0,1,2.36,0a18.61,18.61,0,0,0-.08,3.72,2.68,2.68,0,0,0,.41,1.2,1.13,1.13,0,0,0,.79.5A.92.92,0,0,0,4,4.94a4.43,4.43,0,0,0,.47-1.22c.16-.64.36-1.86.59-3.66a26.71,26.71,0,0,1,.64-3.69,4.62,4.62,0,0,1,.57-1.29,1.34,1.34,0,0,1,1-.59h0A1.28,1.28,0,0,1,8.37-5a2.17,2.17,0,0,1,.39,1.15A19.91,19.91,0,0,1,8.54-.53a21.51,21.51,0,0,0-.2,3.64A2.64,2.64,0,0,0,9.45,5.36,1.91,1.91,0,0,0,10.88,5a3.84,3.84,0,0,0,.7-1l.42.2-.1.18-.12.21-.11.18L11.52,5a.94.94,0,0,1-.14.16c-.06.07-.13.12-.19.18a2.5,2.5,0,0,1-1.85.41H9.29l0,0A3.06,3.06,0,0,1,7.87,3.13a22.11,22.11,0,0,1,.2-3.7,18.17,18.17,0,0,0,.22-3.28A1.85,1.85,0,0,0,8-4.79a.77.77,0,0,0-.67-.3.93.93,0,0,0-.64.42,4.51,4.51,0,0,0-.51,1.15A26.26,26.26,0,0,0,5.54.1c-.24,1.83-.45,3.07-.61,3.72a5.38,5.38,0,0,1-.51,1.34,1.33,1.33,0,0,1-.89.68H3.47A1.58,1.58,0,0,1,2.3,5.16a3.29,3.29,0,0,1-.49-1.4A20.27,20.27,0,0,1,1.89,0,23.45,23.45,0,0,0,2-3.75a2.94,2.94,0,0,0-.32-1.19A.93.93,0,0,0,1-5.42,1.1,1.1,0,0,0,.19-5,3.69,3.69,0,0,0-.43-3.76,20.78,20.78,0,0,0-1.07.07c-.2,2-.37,3.32-.49,3.86A4.48,4.48,0,0,1-2,5.26,1.06,1.06,0,0,1-3,5.81h0a1.9,1.9,0,0,1-1.29-.67,2.7,2.7,0,0,1-.58-1.31,14.92,14.92,0,0,1,0-3.6q0-.12.06-.54c0-.28,0-.47,0-.57s0-.28,0-.52,0-.42,0-.55,0-.28,0-.47,0-.36,0-.51,0-.29,0-.43A3.09,3.09,0,0,0-5-4.62a1.19,1.19,0,0,0-.67-.6,1.5,1.5,0,0,0-1.2.9A7,7,0,0,0-7.41-2.1c0,.39-.1,1-.14,1.76s-.11,1.47-.18,2.08A9.61,9.61,0,0,1-8,3.32h0l0,0A2.81,2.81,0,0,1-9.2,4.62a1.82,1.82,0,0,1-1.35.15A1.94,1.94,0,0,1-11.61,4,2.39,2.39,0,0,1-12,2.56l.47,0a1.92,1.92,0,0,0,.31,1.16,1.47,1.47,0,0,0,.81.62,1.3,1.3,0,0,0,1-.11A2.32,2.32,0,0,0-8.5,3.18a7.53,7.53,0,0,0,.29-1.5Q-8.1.8-8-.36c0-.78.1-1.37.16-1.78A7.23,7.23,0,0,1-7.28-4.5,1.93,1.93,0,0,1-5.65-5.66h.05l0,0a1.59,1.59,0,0,1,1,.84,3.47,3.47,0,0,1,.34,1.41,4.91,4.91,0,0,1,0,.57v.54c0,.15,0,.37,0,.66s0,.47,0,.58,0,.33-.06.68,0,.56-.06.63a14.78,14.78,0,0,0,0,3.49,2.58,2.58,0,0,0,.5,1.13,1.57,1.57,0,0,0,1,.5A.61.61,0,0,0-2.44,5,3.89,3.89,0,0,0-2,3.85C-1.9,3.31-1.74,2-1.53,0A20.65,20.65,0,0,1-.86-3.89,3.89,3.89,0,0,1-.18-5.26,1.58,1.58,0,0,1,1-5.84Z"/>
<rect fill="none" x="-12" y="-12" width="24" height="24"/>
</symbol>
<symbol id="moonmilk" viewBox="-12 -12 24 24">
<path d="M-4.78-3.06a3.39,3.39,0,0,1,1.5.34,2.48,2.48,0,0,1,1.1,1,3.74,3.74,0,0,1,1.62-.8,3.52,3.52,0,0,1,1.71,0,2.9,2.9,0,0,1,1.39.77A2.49,2.49,0,0,1,3.25-.37,4,4,0,0,1,5-.76a3.58,3.58,0,0,1,1.6.36A2.84,2.84,0,0,1,7.88.92a2.32,2.32,0,0,1,0,1.88.34.34,0,0,1-.37.26A.36.36,0,0,1,7.25,3a.32.32,0,0,1-.12-.25.21.21,0,0,1,0-.12,2,2,0,0,0,0-1.43,2,2,0,0,0-1-.9A2.81,2.81,0,0,0,4.68,0,2.78,2.78,0,0,0,3.12.56L2.46.25A1.7,1.7,0,0,0,2.15-1.1,2.15,2.15,0,0,0,1-1.81a2.85,2.85,0,0,0-1.58.06A3,3,0,0,0-2-.83l-.71-.12A1.74,1.74,0,0,0-3.55-2a2.36,2.36,0,0,0-1.39-.27,3.08,3.08,0,0,0-1.45.53A2.33,2.33,0,0,0-7.32-.56a.35.35,0,0,1-.37.24A.39.39,0,0,1-8-.42a.33.33,0,0,1-.1-.26v-.1A3,3,0,0,1-6.89-2.35,4,4,0,0,1-5-3Z"/>
<rect fill="none" x="-12" y="-12" width="24" height="24"/>
</symbol>
<symbol id="narrow" viewBox="-12 -12 24 24">
<path d="M-1.5,5V-5h0.64V5H-1.5z"/>
<path d="M0.86,5V-5H1.5V5H0.86z"/>
<rect fill="none" x="-12" y="-12" width="24" height="24"/>
</symbol>
<symbol id="paleoflow" viewBox="-12 -12 24 24">
<path d="M.38-12V.17A1.9,1.9,0,0,0,1,0,1.57,1.57,0,0,0,1.7-.72a1.86,1.86,0,0,0,.23-1c0-.09,0-.14.08-.16a.92.92,0,0,1,.24,0,.52.52,0,0,0,.25,0h.08A2.48,2.48,0,0,1,2,0,2.5,2.5,0,0,1,.38.77V7.21H2.09L0,12-1.8,7.23c.07,0,.59,0,1.53,0V.77A3,3,0,0,1-1.35.43a2.16,2.16,0,0,1-1-1,2.38,2.38,0,0,1-.24-1.33l.67,0a2,2,0,0,0,.15,1,1.73,1.73,0,0,0,.59.67A2.14,2.14,0,0,0-.27.16V-12Z"/>
<rect fill="none" x="-12" y="-12" width="24" height="24"/>
</symbol>
<symbol id="rain" viewBox="-12 -12 24 24">
<path d="M-4.14-6.34h0.71v4.69h-0.71V-6.34z"/>
<path d="M-0.35-6.34h0.71v4.69h-0.71V-6.34z"/>
<path d="M3.43-6.34h0.71v4.69H3.43V-6.34z"/>
<path d="M-4.14,1.65h0.71v4.69h-0.71V1.65z"/>
<path d="M-0.35,1.65h0.71v4.69h-0.71V1.65z"/>
<path d="M3.43,1.65h0.71v4.69H3.43V1.65z"/>
<rect fill="none" x="-12" y="-12" width="24" height="24"/>
</symbol>
<symbol id="rats" viewBox="-12 -12 24 24">
<path d="M8.78-2.32,7-2.27c-.51-.17-.65-.56-1.46-.45l-.25.45C3.59-2.75,2.59-3.66.56-3.62l-1.35.3A4.89,4.89,0,0,0-4.24,1.57c-.68.6-2.58.86-3.39.94a6.84,6.84,0,0,0-1.62.39,4.91,4.91,0,0,0-1,.52A1.75,1.75,0,0,0-11,4.61a1.16,1.16,0,0,0,.59,1.48,1.3,1.3,0,0,1,.14.12c.16-.52-.35-.92-.2-1.42a3.35,3.35,0,0,1,.27-.45,3.18,3.18,0,0,1,1.79-1c.63-.12,1.27-.22,1.91-.3.48-.07,1,0,1.4-.12A6.94,6.94,0,0,1-4,2.82,30.64,30.64,0,0,0,.41,2.69l2.16.15c.1-.09,0,0,.1-.15a.87.87,0,0,0-.9-.55c.86-1,2.27-.37,3.1-.05.5.19,1,0,1.25.4.11-.1.1-.07.15-.25.3,0,.31.07.6.15-.06-.49-.34-.64-1-.6a.78.78,0,0,1,0-.55C6.3.56,7.29.73,8.13.43a13.78,13.78,0,0,0,2.15-.9l.6-.85v-.2A16.9,16.9,0,0,0,8.78-2.32Z"/>
<rect fill="none" x="-12" y="-12" width="24" height="24"/>
</symbol>
<symbol id="sand" viewBox="-12 -12 24 24">
<path d="M-1.58,0.83c0.23,0.2,0.35,0.44,0.36,0.73c0.01,0.29-0.08,0.54-0.28,0.75c-0.2,0.21-0.46,0.32-0.78,0.33c-0.32,0.01-0.6-0.08-0.83-0.26C-3.36,2.19-3.49,1.95-3.5,1.67C-3.51,1.38-3.41,1.12-3.2,0.9c0.21-0.22,0.48-0.34,0.8-0.35C-2.08,0.54-1.81,0.64-1.58,0.83z"/>
<path d="M0.08-2.36c0.23,0.2,0.35,0.44,0.36,0.73c0.01,0.29-0.08,0.54-0.28,0.75c-0.2,0.21-0.46,0.32-0.78,0.33c-0.32,0.01-0.59-0.07-0.83-0.26s-0.37-0.42-0.38-0.71c-0.01-0.29,0.09-0.54,0.3-0.76c0.21-0.22,0.48-0.33,0.8-0.35C-0.42-2.65-0.14-2.56,0.08-2.36z"/>
<path d="M3.12,0.55c0.23,0.2,0.35,0.43,0.38,0.71c0.02,0.28-0.07,0.53-0.28,0.75C3,2.23,2.73,2.35,2.42,2.36C2.1,2.37,1.82,2.28,1.58,2.08C1.34,1.88,1.22,1.64,1.2,1.35c-0.01-0.29,0.09-0.54,0.3-0.75C1.72,0.4,1.99,0.29,2.3,0.28S2.89,0.36,3.12,0.55z"/>
<rect fill="none" x="-12" y="-12" width="24" height="24"/>
</symbol>
<symbol  id="scallops" viewBox="-12 -12 24 24">
<path d="M.05-3.74l.21,0A2.35,2.35,0,0,1,1.74-3a2,2,0,0,1,.59,1.55v0l0,0A9.59,9.59,0,0,1-.08,3.27l-.39.47-.27-.55A14.26,14.26,0,0,1-2.33-1.89v-.05l0-.05A2,2,0,0,1-1.44-3.3,2.42,2.42,0,0,1,.05-3.74ZM-.11-3A1.44,1.44,0,0,0-1.55-1.89,13.06,13.06,0,0,0-.29,2.33,8.6,8.6,0,0,0,1.55-1.54a1.41,1.41,0,0,0-.38-1A1.62,1.62,0,0,0,.18-3Z"/>
<rect fill="none" x="-12" y="-12" width="24" height="24"/>
</symbol>
<symbol  id="sink" viewBox="-12 -12 24 24">
<path d="M.72,9.41H.9c1.94,0,3.26-.54,3.94-1.51a3.61,3.61,0,0,0,.33-.69,2,2,0,0,0,.11-.54V6.46l.69,0a2.8,2.8,0,0,1-.58,1.78C4.58,9.39,3.1,10,.93,10H-.93q-3.25,0-4.46-1.8a2.74,2.74,0,0,1-.43-.83A2.37,2.37,0,0,1-6,6.67V6.43l.68,0A2.27,2.27,0,0,0-4.84,7.9c.68,1,2,1.47,3.93,1.48l.5,0ZM-1.46-10a.68.68,0,0,0,.16.41A2.77,2.77,0,0,0-.51-9l0,0a3.63,3.63,0,0,1,1,.7,1.15,1.15,0,0,1,.34.88c0,.58-.53,1.14-1.49,1.68-.68.42-1,.79-1,1.11s.3.61.84,1h0Q.61-2.86.46-1.78a3.51,3.51,0,0,1-1.55,2,.61.61,0,0,0-.26.41,1.67,1.67,0,0,0,.1.51,5.3,5.3,0,0,1,.32,1L.56,1.9.46,8.06-3.4,2.54l1.73-.28A6.16,6.16,0,0,0-2,1.39,1.7,1.7,0,0,1-2.09.58a1.21,1.21,0,0,1,.53-.82h0v0C-.75-.86-.33-1.38-.28-1.85s-.23-.87-.91-1.27h0C-2-3.6-2.37-4.1-2.4-4.61S-2-5.74-1.09-6.29C-.34-6.72.06-7.1.09-7.44a.67.67,0,0,0-.18-.43,3.17,3.17,0,0,0-.79-.58,2.93,2.93,0,0,1-1-.67A1.16,1.16,0,0,1-2.17-10Z"/>
<rect fill="none" x="-12" y="-12" width="24" height="24"/>
</symbol>
<symbol  id="spring" viewBox="-12 -12 24 24">
<path d="M-1.34-9.86,2.52-4.34.78-4.06a8,8,0,0,0,.29.87,1.4,1.4,0,0,1,.13.79,1.3,1.3,0,0,1-.52.84l0,0v0C-.13-.95-.55-.42-.61,0S-.37.91.31,1.3l0,0c.75.46,1.14,1,1.18,1.46S1.12,3.92.21,4.46C-.54,4.9-.94,5.29-1,5.64a.74.74,0,0,0,.18.43A3.2,3.2,0,0,0,0,6.62a3,3,0,0,1,1,.7,1.14,1.14,0,0,1,.31.86A1.74,1.74,0,0,1,.71,9.26H.92c1.92,0,3.22-.52,3.9-1.51a2.05,2.05,0,0,0,.35-.67,2.59,2.59,0,0,0,.1-.55l0-.19.65,0a2.84,2.84,0,0,1-.55,1.8C4.58,9.26,3.08,9.85.92,9.86H-.92c-2.17,0-3.66-.6-4.49-1.77a3.65,3.65,0,0,1-.4-.85A2.43,2.43,0,0,1-6,6.53V6.29l.66,0a2.08,2.08,0,0,0,.47,1.41c.68,1,2,1.5,3.91,1.51H-.4c.62-.43.94-.8,1-1.1a.76.76,0,0,0-.16-.43,3.25,3.25,0,0,0-.79-.51v0a3.8,3.8,0,0,1-1-.7,1.15,1.15,0,0,1-.34-.91q.06-.84,1.5-1.68c.68-.4,1-.77,1-1.1S.49,2.21,0,1.87c0,0,0,0,0,0C-1,1.32-1.44.69-1.34,0a3.58,3.58,0,0,1,1.55-2,.54.54,0,0,0,.23-.38A1.28,1.28,0,0,0,.37-3a4.57,4.57,0,0,1-.32-1l-1.49.24Z"/>
<rect fill="none" x="-12" y="-12" width="24" height="24"/>
</symbol>
<symbol  id="stalactite" viewBox="-12 -12 24 24">
<path d="M3.57-6.69l.52.53L.39-3V6.12H-.39V-3l-3.7-3.14.52-.53L0-3.67Z"/>
<rect fill="none" x="-12" y="-12" width="24" height="24"/>
</symbol>
<symbol  id="stalagmite" viewBox="-12 -12 24 24">
<path d="M.38-6.42V2.75L4.11,5.89l-.56.53L0,3.4l-3.57,3-.53-.53,3.7-3.14V-6.42Z"/>
<rect fill="none" x="-12" y="-12" width="24" height="24"/>
</symbol>
<symbol  id="stalagnate" viewBox="-12 -12 24 24">
<path d="M3.55-8.46l.56.53L.38-4.78v9L4.11,7.36l-.56.53L0,4.86l-3.57,3-.53-.53,3.7-3.14v-9l-3.7-3.15.53-.53L0-5.43Z"/>
<rect fill="none" x="-12" y="-12" width="24" height="24"/>
</symbol>
<symbol  id="straws" viewBox="-12 -12 24 24">
<path d="M-10.89-2.76H10.89V-2H9.63V.46H8.84V-2H8.29v5.6H7.5V-2H5.56V.7H4.77V-2H2.07V2.38H1.29V-2H-.1v3H-.89V-2H-3.2V4.11H-4V-2H-6.22L-6.16.75l-.79,0L-7-2H-8.32V2.33H-9.1V-2h-1.79Z"/>
<rect fill="none" x="-12" y="-12" width="24" height="24"/>
</symbol>
<symbol  id="water" viewBox="-12 -12 24 24">
<path d="M-1.72-9.86,2.11-4.32.38-4.06a6.49,6.49,0,0,0,.29.89,1.5,1.5,0,0,1,.13.79,1.2,1.2,0,0,1-.5.82h0l0,0C-.54-.94-1-.42-1,.05s.24.89.92,1.27h0c.77.48,1.17,1,1.19,1.49S.71,3.94-.2,4.49c-.75.43-1.13.81-1.15,1.15a.51.51,0,0,0,.18.43,2.66,2.66,0,0,0,.76.58,2.93,2.93,0,0,1,1,.67,1.16,1.16,0,0,1,.29.89C.84,8.75.42,9.3-.41,9.86l-.44-.55c.66-.45,1-.83,1-1.15A.47.47,0,0,0,0,7.75a2.84,2.84,0,0,0-.78-.53h0a3.87,3.87,0,0,1-1-.69,1.24,1.24,0,0,1-.34-.91c0-.58.54-1.14,1.52-1.68.66-.42,1-.79,1-1.11s-.3-.61-.84-1h0Q-1.9,1.06-1.74,0a3.44,3.44,0,0,1,1.54-2,.67.67,0,0,0,.27-.41A1.11,1.11,0,0,0,0-3a4.33,4.33,0,0,1-.31-1l-1.5.24Z"/>
<rect fill="none" x="-12" y="-12" width="24" height="24"/>
</symbol><symbol  id="tree" viewBox="-12 -12 24 24">
<path d="M7.4-5.04A4.271,4.271,0,0,0,7.7-6.627a4.3,4.3,0,0,0-4.3-4.3A4.279,4.279,0,0,0,.636-9.914,4.293,4.293,0,0,0-3.045-12a4.3,4.3,0,0,0-4.3,4.3,4.27,4.27,0,0,0,.421,1.845,4.3,4.3,0,0,0-3.645,4.244,4.3,4.3,0,0,0,4.3,4.3A4.282,4.282,0,0,0-3.946,2L-1.175,5.23h0L-1.612,12H.982L.757,6.376,4.119,2.827v0a4.272,4.272,0,0,0,2.15.58,4.3,4.3,0,0,0,4.3-4.3A4.3,4.3,0,0,0,7.4-5.04ZM-3.346,1.538h0A4.346,4.346,0,0,0-2.7.788a4.266,4.266,0,0,0,1.765.753l-.135,2.087ZM.69,4.7.563,1.544A4.258,4.258,0,0,0,2.321.805,4.3,4.3,0,0,0,3.378,2.279Z"/>
<rect fill="none" x="-12" y="-12" width="24" height="24"/>
</symbol><g>
<desc></desc>
<g>
<line fill="none" stroke="#dddddd" stroke-width="0.1mm" x1="0.00" y1="201.00" x2="433.00" y2="201.00" />
<text x="430.20" y="200.80" font-size=".2mm" fill="#000000">0m</text>
<line fill="none" stroke="#dddddd" stroke-width="0.1mm" x1="0.00" y1="151.00" x2="433.00" y2="151.00" />
<text x="430.20" y="150.80" font-size=".2mm" fill="#000000">5m</text>
<line fill="none" stroke="#dddddd" stroke-width="0.1mm" x1="0.00" y1="101.00" x2="433.00" y2="101.00" />
<text x="430.20" y="100.80" font-size=".2mm" fill="#000000">10m</text>
<line fill="none" stroke="#dddddd" stroke-width="0.1mm" x1="0.00" y1="51.00" x2="433.00" y2="51.00" />
<text x="430.20" y="50.80" font-size=".2mm" fill="#000000">15m</text>
<line fill="none" stroke="#dddddd" stroke-width="0.1mm" x1="0.00" y1="1.00" x2="433.00" y2="1.00" />
<text x="430.20" y="0.80" font-size=".2mm" fill="#000000">20m</text>
<line fill="none" stroke="#dddddd" stroke-width="0.1mm" x1="0.00" y1="251.00" x2="433.00" y2="251.00" />
<text x="430.20" y="250.80" font-size=".2mm" fill="#000000">-5m</text>
<line fill="none" stroke="#dddddd" stroke-width="0.1mm" x1="0.00" y1="301.00" x2="433.00" y2="301.00" />
<text x="430.20" y="300.80" font-size=".2mm" fill="#000000">-10m</text>
<line fill="none" stroke="#dddddd" stroke-width="0.1mm" x1="0.00" y1="351.00" x2="433.00" y2="351.00" />
<text x="430.20" y="350.80" font-size=".2mm" fill="#000000">-15m</text>
</g>
<g>
<path fill="none" stroke="#000000" stroke-width="0.06mm" d="M20.0,201.0 L20.0,201.0" /><path fill="none" stroke="#000000" stroke-width="0.06mm" d="M360.133,75.080215 L356.61557,77.07251" /><path fill="none" stroke="#000000" stroke-width="0.06mm" d="M358.54547,76.79235 C362.43167,74.546524 367.1264,74.565636 371.34595,73.43587 C375.02377,72.45114 378.5834,71.0562 382.26062,70.06926 C385.89383,69.09415 393.60104,67.63095 397.64804,66.95509 C406.9234,65.40613 409.4359,64.38875 416.8062,64.52527 C417.17297,64.532074 417.52896,64.65117 417.89032,64.71413 L417.89032,64.71413" /><path fill="none" stroke="#000000" stroke-width="0.06mm" d="M348.75583,22.595978 C350.11768,22.010437 351.42572,21.278915 352.8415,20.839355 C355.65292,19.966507 358.92206,19.780945 361.82828,19.835419 C363.23764,19.861816 364.6358,20.261246 366.04306,20.17978 C375.9135,19.608429 385.7494,18.533783 395.61475,17.87967 C396.99622,17.788055 398.38373,17.975769 399.76788,17.94374 C403.0537,17.867691 406.3358,17.67395 409.62036,17.555573 C411.38696,17.491913 411.01526,17.67746 412.96075,17.167892 C414.51428,16.760986 414.95862,16.465363 416.39618,15.7786255 L416.39618,15.7786255" /><path fill="none" stroke="#000000" stroke-width="0.06mm" d="M251.21149,89.164 C251.8866,89.328 252.55263,89.53535 253.23682,89.65599 C253.64937,89.72873 254.07219,89.76192 254.49066,89.74219 C275.12054,88.769585 295.7568,87.9043 316.37323,86.67938 C318.1772,86.572205 319.9782,86.25071 321.71405,85.74814 C343.9378,79.31386 324.04922,84.76144 332.74548,81.52535 C337.29816,79.831215 341.8515,78.12983 346.47403,76.63695 C347.30182,76.36963 348.1919,76.35846 349.0559,76.2578 C357.86487,75.23155 352.49203,76.11386 358.54474,75.027435 L358.54474,75.027435" /><path fill="none" stroke="#000000" stroke-width="0.06mm" d="M238.2268,39.52893 C243.53487,38.066208 250.91562,36.016098 255.13008,35.107956 C262.84866,34.097504 259.92938,34.722076 263.9868,33.769608 L263.9868,33.769608" /><path fill="none" stroke="#000000" stroke-width="0.06mm" d="M262.52075,33.769608 C263.34515,33.734085 264.17844,33.788544 264.99402,33.663086 C272.90656,32.445908 280.79062,31.050476 288.6889,29.74414 C297.89963,29.11496 307.18332,29.173676 316.32108,27.856598 C322.89175,26.909515 329.143,24.388199 335.63013,22.978271 C339.39877,22.15918 342.51532,22.51596 346.29303,22.66977 L346.29303,22.66977" /><path fill="none" stroke="#000000" stroke-width="0.06mm" d="M345.35065,23.29805 C346.86325,22.786514 345.99835,23.024872 347.96848,22.66977 L347.96848,22.66977" /><path fill="none" stroke="#000000" stroke-width="0.06mm" d="M186.81154,101.101555 C188.445,100.99 187.77301,101.12245 189.17625,100.737274 C199.1436,98.001305 209.00484,94.84552 219.0765,92.522705 C226.48303,90.81453 245.59126,91.38661 250.16434,91.363014 L250.16434,91.363014" /><path fill="none" stroke="#000000" stroke-width="0.06mm" d="M244.92857,93.45732 C245.16777,93.104034 245.3852,92.734955 245.6462,92.397446 C245.76674,92.24159 246.26035,91.80352 246.47346,91.763565 C249.92697,91.116196 253.40193,90.589005 256.86615,90.001724 L256.86615,90.001724" /><path fill="none" stroke="#000000" stroke-width="0.06mm" d="M148.79988,104.55716 C149.46725,104.2556 150.0831,103.79224 150.80197,103.65248 C174.71277,99.00414 170.07458,99.7888 189.01059,98.27424 L189.01059,98.27424" /><path fill="none" stroke="#000000" stroke-width="0.06mm" d="M185.13611,101.52041 C189.01627,100.43964 186.82437,100.99318 191.73317,99.94968 L191.73317,99.94968" /><path fill="none" stroke="#000000" stroke-width="0.06mm" d="M152.56964,58.16826 C153.082,57.980453 153.57007,57.703827 154.10669,57.604843 C168.36136,54.975677 162.6564,57.029984 183.40857,55.767517 C187.91544,55.493347 192.35826,54.49179 196.86507,54.21611 C202.50714,53.871002 208.17157,54.12259 213.8201,53.907272 C215.63351,53.83815 217.52142,53.03569 218.92429,51.91304 C221.37053,49.955444 223.45131,47.510117 226.11356,45.85826 C229.42978,43.80063 240.39987,39.413986 236.44662,40.99495 L236.44662,40.99495" /><path fill="none" stroke="#000000" stroke-width="0.06mm" d="M103.45814,75.23685 C104.16976,75.35274 104.8721,75.596466 105.593,75.584496 C111.34787,75.48888 116.766624,74.605156 122.287254,72.761536 C132.52907,69.34125 139.7474,64.730316 149.71721,60.266266 C152.5175,59.012405 155.45839,58.09967 158.329,57.016373 L158.329,57.016373" /><path fill="none" stroke="#000000" stroke-width="0.06mm" d="M73.50955,87.90742 C74.64229,87.55704 75.849075,87.39018 76.907745,86.85628 C81.64773,84.46581 86.14957,81.6261 90.85147,79.16158 C91.49734,78.82306 92.206245,78.59015 92.92398,78.46133 C96.97621,77.73402 101.06372,77.219215 105.13358,76.59815 L105.13358,76.59815" /><path fill="none" stroke="#000000" stroke-width="0.06mm" d="M146.28671,104.76659 C146.72827,104.29528 147.1725,103.70534 147.84744,103.55417 C147.97171,103.52633 148.13853,103.44141 148.22879,103.53124 C148.32277,103.62474 148.22557,103.79632 148.22394,103.928856 L148.22394,103.928856" /><path fill="none" stroke="#000000" stroke-width="0.06mm" d="M149.84705,102.77698 C148.68314,102.76875 144.12909,102.33614 141.79926,102.96033 C138.58292,103.82201 136.03925,106.706055 135.20026,109.869484 C135.11989,110.17255 135.07472,110.487045 135.06592,110.800476 C135.02696,112.189156 135.1067,113.579796 135.05719,114.96814 C135.03015,115.72615 134.43562,116.93297 134.16765,117.44095 C133.81766,118.104355 133.2533,118.96257 132.58046,119.38851 C132.01187,119.74846 131.21674,119.8329 130.62141,120.07584 C129.90552,120.368 129.19968,120.68741 128.51257,121.04202 C127.56501,121.531075 125.736,123.849846 125.716324,123.874504 C124.6395,125.22387 123.16815,127.29803 122.54515,129.036 C122.34765,129.58694 121.91167,132.08862 121.27739,133.22255 C120.844894,133.99576 119.06949,135.74872 119.05511,135.76578 C116.33646,138.99106 118.64277,136.9406 114.847534,140.39334 C114.63904,140.58302 114.39544,140.73746 114.139725,140.85608 C109.364395,143.07153 112.63634,141.26776 110.15992,142.67354 L110.15992,142.67354" /><path fill="none" stroke="#000000" stroke-width="0.06mm" d="M106.599594,147.49045 C105.09754,147.45285 105.9008,147.43091 104.19114,147.59517 L104.19114,147.59517" /><path fill="none" stroke="#000000" stroke-width="0.06mm" d="M91.206436,155.44882 C89.69594,155.239 89.13575,155.3636 87.85555,155.9724 L87.85555,155.9724" /><path fill="none" stroke="#000000" stroke-width="0.06mm" d="M77.06986,161.52231 C72.187805,162.14165 74.11911,161.7074 71.20581,162.46474 L71.20581,162.46474" /><path fill="none" stroke="#000000" stroke-width="0.06mm" d="M67.22662,163.19775 C65.23404,162.59874 64.56105,162.8659 62.61915,163.40718 L62.61915,163.40718" /><path fill="none" stroke="#000000" stroke-width="0.06mm" d="M82.61978,159.11386 L83.457504,157.75255" /><path fill="none" stroke="#000000" stroke-width="0.06mm" d="M61.46728,151.88849 C61.68545,151.52838 61.882942,151.15489 62.121803,150.80815 C62.25772,150.61084 62.67852,150.20724 62.900307,150.10683 C67.54408,148.00409 66.46576,148.34258 68.58793,147.69987 L68.58793,147.69987" /><path fill="none" stroke="#000000" stroke-width="0.06mm" d="M81.88677,142.14996 L88.37913,141.10281" /><path fill="none" stroke="#000000" stroke-width="0.06mm" d="M94.03375,138.17078 C98.26009,136.55699 96.064156,137.19597 100.63081,136.2859 L100.63081,136.2859" /><path fill="none" stroke="#000000" stroke-width="0.06mm" d="M99.47895,135.02933 C100.58334,134.45886 101.75422,134.00198 102.79212,133.318 C106.17769,131.08687 109.77299,128.91808 112.511795,125.863144 C113.28816,124.99716 114.08252,123.665016 113.57795,122.47004 C113.48378,122.24701 113.32823,122.01657 113.11554,121.88804 C112.04888,121.24345 109.5132,121.5562 108.76587,121.66585 C107.17582,121.89914 105.60712,122.27397 104.054016,122.68694 C95.76854,124.967255 87.48308,127.247574 79.19762,129.5279 C77.61712,130.16547 76.07872,130.91943 74.45613,131.44064 C73.033104,131.89777 71.55768,132.18082 70.08823,132.45407 C67.65465,132.90659 63.164314,132.86867 60.539253,134.56973 C59.326115,135.35585 58.342834,138.16537 58.171883,139.26895 C57.78778,141.74841 57.67413,144.26282 57.48817,146.76498 C57.467598,147.04175 57.506317,147.32147 57.553085,147.59503 C57.677692,148.32387 57.868618,148.95352 58.65596,149.11891 C58.827827,149.15501 59.002754,149.19725 59.17817,149.18875 C61.64578,149.06932 61.466976,149.06335 63.247437,148.74704 L63.247437,148.74704" /><path fill="none" stroke="#000000" stroke-width="0.06mm" d="M65.23703,162.46474 C64.584816,162.3906 63.783752,162.2236 63.344315,162.85922 C60.10837,167.53987 56.710167,172.11505 53.685497,176.93492 C52.230663,179.25323 50.68376,182.67966 49.980644,185.55302 C49.87227,185.99591 49.853027,186.45764 49.836742,186.9133 C49.75804,189.1154 49.814262,191.322 49.695827,193.52232 C49.46749,197.76459 49.096424,201.99796 48.796722,206.23576 L48.796722,206.23576" /><path fill="none" stroke="#000000" stroke-width="0.06mm" d="M76.02271,87.279106 C74.3795,87.03855 74.11715,86.877106 72.44143,87.13318 C65.31643,88.22197 58.191948,89.32096 51.091904,90.56212 C50.5419,90.65827 50.020622,90.8934 49.519756,91.140144 C46.698826,92.52984 44.900143,94.05484 42.45871,96.34659 C41.071922,97.64833 39.733253,99.0162 38.561134,100.51416 C37.002335,102.5063 34.458717,106.4503 33.638138,109.16339 C33.275814,110.36136 30.110823,121.98543 29.66052,125.850075 C29.503973,127.19363 30.030401,131.11252 29.801453,132.20131 C27.423515,143.50961 24.278526,154.6467 21.864275,165.9473 C20.105915,174.17781 21.650335,171.10248 20.888247,177.95581 C19.644497,189.14066 19.992445,183.29935 18.200272,192.20761 C17.791592,194.23903 17.752625,198.05283 16.466082,199.84085 C15.515462,201.16202 13.448654,201.9188 11.936917,202.67543 L11.936917,202.67543" /><path fill="none" stroke="#000000" stroke-width="0.06mm" d="M14.940624,201.28108 C14.804131,202.50531 14.745788,203.74078 14.531143,204.95374 C13.398933,211.35187 4.0639725,221.6131 0.4581871,225.26895 C-8.571491,234.42401 -17.710243,243.50073 -27.403938,251.94954 C-39.14183,262.18005 -51.459854,268.32068 -64.218506,277.16077 C-69.34486,280.71265 -70.81395,282.18237 -74.037285,286.3537 C-75.45135,288.18365 -76.275024,290.04932 -78.0941,291.34296 C-84.10103,295.61475 -92.69813,296.2482 -97.77442,301.956 C-108.05461,313.5151 -111.61243,316.7738 -119.25136,329.71936 C-121.343094,333.26422 -123.29619,336.9293 -124.71301,340.7937 C-126.212524,344.88367 -127.22635,349.15906 -127.95331,353.4541 C-128.57126,357.10535 -128.39175,360.8488 -128.73141,364.53635 C-128.77444,365.00348 -128.93639,365.45483 -129.09918,365.89484 C-129.97424,368.26007 -132.89482,371.5115 -133.69745,372.74252 C-134.04906,373.2818 -134.2725,373.89795 -134.48811,374.50455 C-135.2988,376.78534 -135.97336,379.1128 -136.77371,381.39725 C-136.96082,381.9313 -137.2237,382.43573 -137.44867,382.95496 C-137.90172,384.32733 -138.35477,385.69974 -138.80782,387.07214 L-138.80782,387.07214" /><path fill="none" stroke="#000000" stroke-width="0.06mm" d="M47.264347,210.27551 C47.06029,217.11472 46.91597,223.95595 46.652184,230.7931 C45.87697,250.88644 45.280487,270.9896 44.147396,291.06592 C44.051804,292.7597 43.477276,294.39835 42.970978,296.0175 C41.848946,299.60574 39.292347,303.0438 35.307297,303.50156 C33.076263,303.75784 29.419445,303.55307 27.009481,304.6105 C24.552061,305.68875 22.12043,306.84433 19.796295,308.18594 C14.153415,311.44333 9.2325115,317.101 7.6228313,323.50507 C5.200263,333.14322 6.205799,332.96088 4.8981113,343.8688 C4.740815,345.18088 4.274541,346.44034 4.0721655,347.74622 C3.9742622,348.37796 4.1965876,349.39865 4.425582,349.9754 C5.5496206,352.8065 7.2770767,355.2425 6.51458,358.33762 C6.325779,359.104 6.1065283,359.55814 5.6111984,360.13007 C5.08533,360.73724 4.2697916,361.01276 3.512291,361.17047 C-0.2950592,361.96332 -4.1352005,362.60327 -7.9224815,363.48703 C-9.957678,363.96194 -11.925058,364.9187 -12.836124,366.89044 C-16.11147,373.97906 -11.271328,383.62006 -16.49327,389.83514 C-17.494778,391.02713 -18.707329,392.1966 -20.088638,392.96347 C-25.503506,395.96967 -31.021416,393.78995 -37.189827,394.79434 C-55.981445,397.8541 -49.332993,398.22504 -61.07997,401.59985 C-61.889153,401.8323 -62.739548,401.92334 -63.58094,401.95264 C-69.72548,402.1666 -73.68931,401.29926 -79.01917,402.8445 C-79.995125,403.12747 -80.92597,403.55408 -81.84627,403.98486 C-84.8848,405.4073 -89.218094,406.95044 -90.647194,410.45984 C-91.0629,411.48065 -91.533424,412.51074 -91.66947,413.60455 C-92.25697,418.32782 -91.23687,428.86993 -95.73174,433.53674 C-99.26546,437.2056 -112.22499,439.6836 -112.265564,439.69928 C-116.81288,441.45667 -122.58371,445.46936 -126.65849,447.90656 C-136.76541,453.9516 -132.68504,450.3249 -137.9646,455.65466 L-137.9646,455.65466" /><text x="-146.89227" y="412.5484" font-family="sans-serif" font-size=".2mm" fill="black">?</text>
<use xlink:href="#entrance" width="3.6" height="3.6" x="-1.8" y="-1.8" transform="translate(276.96954 290.36536) rotate(2)"/>
<use xlink:href="#entrance" width="3.6" height="3.6" x="-1.8" y="-1.8" transform="translate(325.89087 316.50385) rotate(6)"/>
</g>
<g>
<line fill="none" stroke="#00aeef" stroke-width="0.04mm" stroke-dasharray="0.4,0.2" x1="20.00" y1="201.00" x2="83.67" y2="368.81" />
<line fill="none" stroke="#00aeef" stroke-width="0.04mm" stroke-dasharray="0.4,0.2" x1="20.00" y1="201.00" x2="87.09" y2="375.07" />
<line fill="none" stroke="#111111" stroke-width="0.04mm" x1="20.00" y1="201.00" x2="54.23" y2="131.13" />
<line fill="none" stroke="#5674b9" stroke-width="0.04mm" stroke-dasharray="0.4,0.2" x1="54.23" y1="131.13" x2="88.50" y2="61.36" />
<line fill="none" stroke="#111111" stroke-width="0.04mm" x1="54.23" y1="131.13" x2="85.22" y2="116.01" />
<line fill="none" stroke="#00aeef" stroke-width="0.04mm" stroke-dasharray="0.4,0.2" x1="85.22" y1="116.01" x2="87.29" y2="115.66" />
<line fill="none" stroke="#00aeef" stroke-width="0.04mm" stroke-dasharray="0.4,0.2" x1="85.22" y1="116.01" x2="85.64" y2="89.08" />
<line fill="none" stroke="#00aeef" stroke-width="0.04mm" stroke-dasharray="0.4,0.2" x1="85.22" y1="116.01" x2="89.73" y2="126.41" />
<line fill="none" stroke="#5674b9" stroke-width="0.04mm" stroke-dasharray="0.4,0.2" x1="85.22" y1="116.01" x2="85.92" y2="116.68" />
<line fill="none" stroke="#5674b9" stroke-width="0.04mm" stroke-dasharray="0.4,0.2" x1="85.22" y1="116.01" x2="85.97" y2="126.13" />
<line fill="none" stroke="#5674b9" stroke-width="0.04mm" stroke-dasharray="0.4,0.2" x1="85.22" y1="116.01" x2="85.75" y2="84.47" />
<line fill="none" stroke="#111111" stroke-width="0.04mm" x1="85.22" y1="116.01" x2="114.00" y2="106.79" />
<line fill="none" stroke="#5674b9" stroke-width="0.04mm" stroke-dasharray="0.4,0.2" x1="114.00" y1="106.79" x2="111.91" y2="107.14" />
<line fill="none" stroke="#5674b9" stroke-width="0.04mm" stroke-dasharray="0.4,0.2" x1="114.00" y1="106.79" x2="112.19" y2="120.97" />
<line fill="none" stroke="#5674b9" stroke-width="0.04mm" stroke-dasharray="0.4,0.2" x1="114.00" y1="106.79" x2="117.15" y2="74.58" />
<line fill="none" stroke="#111111" stroke-width="0.04mm" x1="114.00" y1="106.79" x2="125.04" y2="76.93" />
<line fill="none" stroke="#00aeef" stroke-width="0.04mm" stroke-dasharray="0.4,0.2" x1="125.04" y1="76.93" x2="120.83" y2="76.50" />
<line fill="none" stroke="#00aeef" stroke-width="0.04mm" stroke-dasharray="0.4,0.2" x1="125.04" y1="76.93" x2="123.74" y2="73.47" />
<line fill="none" stroke="#111111" stroke-width="0.04mm" x1="125.04" y1="76.93" x2="151.03" y2="64.44" />
<line fill="none" stroke="#00aeef" stroke-width="0.04mm" stroke-dasharray="0.4,0.2" x1="151.03" y1="64.44" x2="150.74" y2="63.83" />
<line fill="none" stroke="#00aeef" stroke-width="0.04mm" stroke-dasharray="0.4,0.2" x1="151.03" y1="64.44" x2="150.37" y2="62.54" />
<line fill="none" stroke="#5674b9" stroke-width="0.04mm" stroke-dasharray="0.4,0.2" x1="151.03" y1="64.44" x2="151.57" y2="103.97" />
<line fill="none" stroke="#111111" stroke-width="0.04mm" x1="151.03" y1="64.44" x2="164.19" y2="59.85" />
<line fill="none" stroke="#5674b9" stroke-width="0.04mm" stroke-dasharray="0.4,0.2" x1="164.19" y1="59.85" x2="159.54" y2="59.81" />
<line fill="none" stroke="#111111" stroke-width="0.04mm" x1="164.19" y1="59.85" x2="192.00" y2="79.43" />
<line fill="none" stroke="#5674b9" stroke-width="0.04mm" stroke-dasharray="0.4,0.2" x1="192.00" y1="79.43" x2="189.05" y2="57.97" />
<line fill="none" stroke="#00aeef" stroke-width="0.04mm" stroke-dasharray="0.4,0.2" x1="192.00" y1="79.43" x2="192.11" y2="97.29" />
<line fill="none" stroke="#00aeef" stroke-width="0.04mm" stroke-dasharray="0.4,0.2" x1="192.00" y1="79.43" x2="189.93" y2="79.54" />
<line fill="none" stroke="#5674b9" stroke-width="0.04mm" stroke-dasharray="0.4,0.2" x1="192.00" y1="79.43" x2="191.94" y2="97.36" />
<line fill="none" stroke="#00aeef" stroke-width="0.04mm" stroke-dasharray="0.4,0.2" x1="192.00" y1="79.43" x2="189.39" y2="79.63" />
<line fill="none" stroke="#00aeef" stroke-width="0.04mm" stroke-dasharray="0.4,0.2" x1="192.00" y1="79.43" x2="196.61" y2="58.77" />
<line fill="none" stroke="#111111" stroke-width="0.04mm" x1="192.00" y1="79.43" x2="213.76" y2="79.19" />
<line fill="none" stroke="#5674b9" stroke-width="0.04mm" stroke-dasharray="0.4,0.2" x1="213.76" y1="79.19" x2="212.76" y2="79.03" />
<line fill="none" stroke="#5674b9" stroke-width="0.04mm" stroke-dasharray="0.4,0.2" x1="213.76" y1="79.19" x2="206.97" y2="52.55" />
<line fill="none" stroke="#5674b9" stroke-width="0.04mm" stroke-dasharray="0.4,0.2" x1="213.76" y1="79.19" x2="210.15" y2="74.64" />
<line fill="none" stroke="#00aeef" stroke-width="0.04mm" stroke-dasharray="0.4,0.2" x1="213.76" y1="79.19" x2="210.58" y2="78.66" />
<line fill="none" stroke="#5674b9" stroke-width="0.04mm" stroke-dasharray="0.4,0.2" x1="213.76" y1="79.19" x2="210.13" y2="57.66" />
<line fill="none" stroke="#5674b9" stroke-width="0.04mm" stroke-dasharray="0.4,0.2" x1="213.76" y1="79.19" x2="214.35" y2="92.60" />
<line fill="none" stroke="#5674b9" stroke-width="0.04mm" stroke-dasharray="0.4,0.2" x1="213.76" y1="79.19" x2="209.04" y2="76.73" />
<line fill="none" stroke="#5674b9" stroke-width="0.04mm" stroke-dasharray="0.4,0.2" x1="213.76" y1="79.19" x2="209.05" y2="76.66" />
<line fill="none" stroke="#5674b9" stroke-width="0.04mm" stroke-dasharray="0.4,0.2" x1="213.76" y1="79.19" x2="208.58" y2="75.24" />
<line fill="none" stroke="#111111" stroke-width="0.04mm" x1="213.76" y1="79.19" x2="232.51" y2="74.53" />
<line fill="none" stroke="#00aeef" stroke-width="0.04mm" stroke-dasharray="0.4,0.2" x1="232.51" y1="74.53" x2="230.35" y2="73.78" />
<line fill="none" stroke="#00aeef" stroke-width="0.04mm" stroke-dasharray="0.4,0.2" x1="232.51" y1="74.53" x2="239.07" y2="39.07" />
<line fill="none" stroke="#00aeef" stroke-width="0.04mm" stroke-dasharray="0.4,0.2" x1="232.51" y1="74.53" x2="232.34" y2="88.66" />
<line fill="none" stroke="#111111" stroke-width="0.04mm" x1="232.51" y1="74.53" x2="240.72" y2="64.33" />
<line fill="none" stroke="#111111" stroke-width="0.04mm" x1="240.72" y1="64.33" x2="258.87" y2="40.25" />
<line fill="none" stroke="#5674b9" stroke-width="0.04mm" stroke-dasharray="0.4,0.2" x1="258.87" y1="40.25" x2="258.38" y2="36.31" />
<line fill="none" stroke="#5674b9" stroke-width="0.04mm" stroke-dasharray="0.4,0.2" x1="258.87" y1="40.25" x2="260.36" y2="37.63" />
<line fill="none" stroke="#5674b9" stroke-width="0.04mm" stroke-dasharray="0.4,0.2" x1="258.87" y1="40.25" x2="252.49" y2="85.55" />
<line fill="none" stroke="#5674b9" stroke-width="0.04mm" stroke-dasharray="0.4,0.2" x1="258.87" y1="40.25" x2="262.74" y2="40.52" />
<line fill="none" stroke="#111111" stroke-width="0.04mm" x1="258.87" y1="40.25" x2="305.86" y2="40.67" />
<line fill="none" stroke="#00aeef" stroke-width="0.04mm" stroke-dasharray="0.4,0.2" x1="305.86" y1="40.67" x2="308.42" y2="40.76" />
<line fill="none" stroke="#5674b9" stroke-width="0.04mm" stroke-dasharray="0.4,0.2" x1="305.86" y1="40.67" x2="308.63" y2="28.95" />
<line fill="none" stroke="#00aeef" stroke-width="0.04mm" stroke-dasharray="0.4,0.2" x1="305.86" y1="40.67" x2="309.62" y2="87.06" />
<line fill="none" stroke="#00aeef" stroke-width="0.04mm" stroke-dasharray="0.4,0.2" x1="305.86" y1="40.67" x2="332.66" y2="27.09" />
<line fill="none" stroke="#111111" stroke-width="0.04mm" x1="305.86" y1="40.67" x2="332.71" y2="27.14" />
<line fill="none" stroke="#00aeef" stroke-width="0.04mm" stroke-dasharray="0.4,0.2" x1="332.71" y1="27.14" x2="334.25" y2="27.28" />
<line fill="none" stroke="#111111" stroke-width="0.04mm" x1="332.71" y1="27.14" x2="362.50" y2="27.07" />
<line fill="none" stroke="#5674b9" stroke-width="0.04mm" stroke-dasharray="0.4,0.2" x1="362.50" y1="27.07" x2="360.06" y2="27.72" />
<line fill="none" stroke="#5674b9" stroke-width="0.04mm" stroke-dasharray="0.4,0.2" x1="362.50" y1="27.07" x2="360.67" y2="21.46" />
<line fill="none" stroke="#00aeef" stroke-width="0.04mm" stroke-dasharray="0.4,0.2" x1="362.50" y1="27.07" x2="369.32" y2="73.73" />
<line fill="none" stroke="#111111" stroke-width="0.04mm" x1="362.50" y1="27.07" x2="404.49" y2="19.67" />
<line fill="none" stroke="#5674b9" stroke-width="0.04mm" stroke-dasharray="0.4,0.2" x1="404.49" y1="19.67" x2="410.80" y2="20.27" />
<line fill="none" stroke="#5674b9" stroke-width="0.04mm" stroke-dasharray="0.4,0.2" x1="404.49" y1="19.67" x2="410.83" y2="20.24" />
<line fill="none" stroke="#111111" stroke-width="0.04mm" x1="404.49" y1="19.67" x2="413.63" y2="20.15" />
</g>
<g>
<circle cx="20.00" cy="201.00" r="0.1" fill="#111111" />
<circle cx="54.23" cy="131.13" r="0.1" fill="#111111" />
<circle cx="85.22" cy="116.01" r="0.1" fill="#111111" />
<circle cx="114.00" cy="106.79" r="0.1" fill="#111111" />
<circle cx="125.04" cy="76.93" r="0.1" fill="#111111" />
<circle cx="151.03" cy="64.44" r="0.1" fill="#111111" />
<circle cx="164.19" cy="59.85" r="0.1" fill="#111111" />
<circle cx="192.00" cy="79.43" r="0.1" fill="#111111" />
<circle cx="213.76" cy="79.19" r="0.1" fill="#111111" />
<circle cx="232.51" cy="74.53" r="0.1" fill="#111111" />
<circle cx="240.72" cy="64.33" r="0.1" fill="#111111" />
<circle cx="258.87" cy="40.25" r="0.1" fill="#111111" />
<circle cx="305.86" cy="40.67" r="0.1" fill="#111111" />
<circle cx="332.71" cy="27.14" r="0.1" fill="#111111" />
<circle cx="362.50" cy="27.07" r="0.1" fill="#111111" />
<circle cx="404.49" cy="19.67" r="0.1" fill="#111111" />
<circle cx="413.63" cy="20.15" r="0.1" fill="#111111" />
</g>
<g>
<text x="20.20" y="201.00" font-size=".2mm" fill="#000000">0</text>
<text x="54.43" y="131.13" font-size=".2mm" fill="#000000">1</text>
<text x="85.42" y="116.01" font-size=".2mm" fill="#000000">2</text>
<text x="114.20" y="106.79" font-size=".2mm" fill="#000000">3</text>
<text x="125.24" y="76.93" font-size=".2mm" fill="#000000">4</text>
<text x="151.23" y="64.44" font-size=".2mm" fill="#000000">5</text>
<text x="164.39" y="59.85" font-size=".2mm" fill="#000000">6</text>
<text x="192.20" y="79.43" font-size=".2mm" fill="#000000">7</text>
<text x="213.96" y="79.19" font-size=".2mm" fill="#000000">8</text>
<text x="232.71" y="74.53" font-size=".2mm" fill="#000000">9</text>
<text x="240.92" y="64.33" font-size=".2mm" fill="#000000">10</text>
<text x="259.07" y="40.25" font-size=".2mm" fill="#000000">11</text>
<text x="306.06" y="40.67" font-size=".2mm" fill="#000000">12</text>
<text x="332.91" y="27.14" font-size=".2mm" fill="#000000">13</text>
<text x="362.70" y="27.07" font-size=".2mm" fill="#000000">14</text>
<text x="404.69" y="19.67" font-size=".2mm" fill="#000000">15</text>
<text x="413.83" y="20.15" font-size=".2mm" fill="#000000">16</text>
</g>
<g>
</g>
</g>
</svg>