<?xml version="1.0" encoding="utf-8"?>
<!DOCTYPE svg PUBLIC "-//W3C//DTD SVG 1.1//EN" "http://www.w3.org/Graphics/SVG/1.1/DTD/svg11.dtd">
<svg version="1.1" id="Layer_1" xmlns="http://www.w3.org/2000/svg" xmlns:xlink="http://www.w3.org/1999/xlink" x="0px" y="0px" width="118mm" height="111mm" viewBox="0 0 118 111" style="background-color:#ffffff;enable-background:new 0 0 118 111;" xml:space="preserve">
<symbol id="airflow" viewBox="-12 -12 24 24">
<path d="M-4.38,10.73l4.2-3.84V3.55L-4.07,7.13l-.31-.29L-.18,3V-6.89a3.37,3.37,0,0,0-1.68.53l1.68-4.15L0-11l.21.51h0v0l1.65,4.1A3.26,3.26,0,0,0,.24-6.89v14l-.08,0L-4.07,11Z"/>
<rect fill="none" x="-12" y="-12" width="24" height="24"/>
</symbol>
<symbol id="anastomosis" viewBox="-12 -12 24 24">
<path d="M2.23-4.78l.37.24L5.22-2.78l-.47.57L2.49-3.7l-4.61,8-.24.44-.37-.34L-5.22,2.3l.55-.52,2.1,1.82L2-4.39Z"/>
<rect fill="none" x="-12" y="-12" width="24" height="24"/>
</symbol>
<symbol id="bivouac" viewBox="-12 -12 24 24">
<path d="M.25-7.66l.24.58L.54-7l3.88.48-3.31.91L6,6H8.35v.48l-16.7.07V6.05h2.64L0-7.08Zm0,1.32L-5.13,6H-4l2.07-5L.2-4l2.09,5L4.37,6H5.44Z"/>
<rect fill="none" x="-12" y="-12" width="24" height="24"/>
</symbol>
<symbol id="bones" viewBox="-12 -12 24 24">
<path d="M2.44,4.27l-.16,0H2.13a.22.22,0,0,1-.11,0l-.1-.06a.39.39,0,0,1-.09-.11l-.08-.13a1.51,1.51,0,0,1-.06-.15l-.07-.17s0-.11-.08-.19-.06-.16-.08-.21a4.75,4.75,0,0,0-.38-.71c-.18-.29-.43-.64-.74-1A11.15,11.15,0,0,0-.7.32,6.73,6.73,0,0,0-2-.64a4.12,4.12,0,0,0-1.44-.52A1.64,1.64,0,0,1-5-2.19.72.72,0,0,1-5-2.44a1,1,0,0,1,0-.29A.52.52,0,0,1-4.87-3a.54.54,0,0,1,.35-.15L-4-3.22l.46,0a.54.54,0,0,0,.27-.06A.52.52,0,0,0-3-3.56a.74.74,0,0,0,.13-.31.54.54,0,0,1,.15-.26.54.54,0,0,1,.3-.15.83.83,0,0,1,.47,0,1.11,1.11,0,0,1,.35.4A7.46,7.46,0,0,1-1-2.76q.18.42.33.72a3.22,3.22,0,0,0,.39.57L.1-1a4.77,4.77,0,0,0,.58.43c.28.18.51.33.69.43l1,.56a1.84,1.84,0,0,0,.39.23A5.29,5.29,0,0,1,3.22.9l.43.26a3.7,3.7,0,0,1,.46.3l.36.29a2.28,2.28,0,0,1,.31.32A1,1,0,0,1,5,2.4c.2.48,0,.78-.47.91h0a8.48,8.48,0,0,0-1.12.09,1,1,0,0,0-.42.44A1,1,0,0,1,2.44,4.27Z"/>
<rect fill="none" x="-12" y="-12" width="24" height="24"/>
</symbol>
<symbol id="calcite" viewBox="-12 -12 24 24">
<path d="M2.36-2.22l.05.46.34,3.91L2,2.22,1.65-1.26-2.52-.06l-.23-.7L1.89-2.08Z"/>
<rect fill="none" x="-12" y="-12" width="24" height="24"/>
</symbol>
<symbol id="cauliflower" viewBox="-12 -12 24 24">
<path d="M5.58,3.22v-3A2.12,2.12,0,0,0,6.92-.43a1.78,1.78,0,0,0,.55-1.32,1.92,1.92,0,0,0-.65-1.42,2.19,2.19,0,0,0-1.53-.59,2.21,2.21,0,0,0-1.54.59,1.78,1.78,0,0,0-.64,1.42A1.86,1.86,0,0,0,3.65-.43,2.12,2.12,0,0,0,5,.23v3H.26v-3A2.17,2.17,0,0,0,1.61-.43a1.81,1.81,0,0,0,.54-1.32,1.91,1.91,0,0,0-.64-1.42A2.21,2.21,0,0,0,0-3.76a2.21,2.21,0,0,0-1.54.59,1.82,1.82,0,0,0-.64,1.42A1.83,1.83,0,0,0-1.66-.43,2.12,2.12,0,0,0-.32.23v3H-5v-3A2.12,2.12,0,0,0-3.71-.43a1.78,1.78,0,0,0,.55-1.32,1.92,1.92,0,0,0-.65-1.42,2.19,2.19,0,0,0-1.53-.59,2.21,2.21,0,0,0-1.54.59,1.83,1.83,0,0,0-.65,1.42A1.87,1.87,0,0,0-7-.43,2.12,2.12,0,0,0-5.64.23v3H-8v.54H8V3.22Z"/>
<rect fill="none" x="-12" y="-12" width="24" height="24"/>
</symbol>
<symbol id="clay" viewBox="-12 -12 24 24">
<path d="M1.85-1.33a3,3,0,0,1,1.67.48,3.23,3.23,0,0,1,1,1l.29.51-1,.43a3.81,3.81,0,0,0-.23-.4A3.74,3.74,0,0,0,2.93,0,1.77,1.77,0,0,0,1.85-.32a2.57,2.57,0,0,0-1.1.15A.86.86,0,0,0,.51.14,2.23,2.23,0,0,1,0,.88a2.55,2.55,0,0,1-1.45.43,3.16,3.16,0,0,1-2.75-1,4.28,4.28,0,0,1-.37-.57,3.91,3.91,0,0,1-.21-.47l0-.16,1-.22a1.87,1.87,0,0,0,.45.79A2.12,2.12,0,0,0-1.51.33,1.82,1.82,0,0,0-.69.14l.21-.36A1.53,1.53,0,0,1,.17-1,3.76,3.76,0,0,1,1.85-1.33Z"/>
<rect fill="none" x="-12" y="-12" width="24" height="24"/>
</symbol>
<symbol id="crystals" viewBox="-12 -12 24 24">
<path d="M-2.94-5.38,0-.72,2.94-5.38,3.62-5,.68-.36H6.56V.36H.68L3.62,5l-.68.36L0,.72-2.94,5.38-3.62,5-.68.36H-6.56V-.36H-.68L-3.62-5Z"/>
<rect fill="none" x="-12" y="-12" width="24" height="24"/>
</symbol>
<symbol id="curtain" viewBox="-12 -12 24 24">
<path d="M3.57-6.69l.52.53L.39-3V-.33L.1-.26a3.79,3.79,0,0,0-1,.41c-.58.3-.87.65-.87,1v.07A1.61,1.61,0,0,0-.84,2.48a3.69,3.69,0,0,0,.45.24L0,2.86l.13.05L.39,3V6.12H-.39V3.51a7.65,7.65,0,0,1-.9-.46A2.19,2.19,0,0,1-2.54,1.28V1.23A2,2,0,0,1-1.31-.48,5.32,5.32,0,0,1-.39-.86V-3l-3.7-3.14.52-.53L0-3.67Z"/>
<rect fill="none" x="-12" y="-12" width="24" height="24"/>
</symbol>
<symbol id="disk" viewBox="-12 -12 24 24">
<path d="M-.09-4.19a2.43,2.43,0,0,1,1.7.64A2,2,0,0,1,2.35-2,2.09,2.09,0,0,1,1.81-.55,2.44,2.44,0,0,1,.35.23l2.18,3.6-.68.33L0,1.14-1.48,4.19l-.71-.29L-.41.25A2.53,2.53,0,0,1-1.9-.47a2,2,0,0,1-.63-1.41,2,2,0,0,1,.67-1.61,2.46,2.46,0,0,1,1.72-.7ZM1.05-3.06.56-3.49l-.69,0A1.72,1.72,0,0,0-1.29-3a1.51,1.51,0,0,0-.45,1.08,1.36,1.36,0,0,0,.51,1A1.68,1.68,0,0,0-.07-.44v0l0,0A1.7,1.7,0,0,0,1.11-.92,1.36,1.36,0,0,0,1.56-2,1.47,1.47,0,0,0,1.05-3.06Z"/>
<rect fill="none" x="-12" y="-12" width="24" height="24"/>
</symbol>
<symbol id="entrance" viewBox="-12 -12 24 24">
<path d="M4.46,9H-4.46L0-9Z"/>
<rect fill="none" x="-12" y="-12" width="24" height="24"/>
</symbol>
<symbol id="flowstone" viewBox="-12 -12 24 24">
<rect x="-6" y="-0.21" width="12" height="0.42"/>
<rect fill="none" x="-12" y="-12" width="24" height="24"/>
</symbol>
<symbol id="flutes" viewBox="-12 -12 24 24">
<path d="M-7-1H7v.72H3.87A4.7,4.7,0,0,1,2.16,1.5,4.2,4.2,0,0,1,0,2.13,3.94,3.94,0,0,1-2.19,1.5,4.18,4.18,0,0,1-3.76-.27H-7Zm4.17.72A3.15,3.15,0,0,0-1.65,1,3.21,3.21,0,0,0,0,1.41,3.49,3.49,0,0,0,1.6,1,3.68,3.68,0,0,0,3-.27Z"/>
<rect fill="none" x="-12" y="-12" width="24" height="24"/>
</symbol>
<symbol id="gradient" viewBox="-12 -12 24 24">
<path d="M2.58-3.83,0-10-2.58-3.83A4.74,4.74,0,0,1-.17-4.5V10H.25V-4.5A6.65,6.65,0,0,1,2.58-3.83Z"/>
<rect fill="none" x="-12" y="-12" width="24" height="24"/>
</symbol>
<symbol id="guano" viewBox="-12 -12 24 24">
<path d="M-3.24-3a2.15,2.15,0,0,1,1.57.55A3.93,3.93,0,0,1-.59.24a4.32,4.32,0,0,1,2.75-2.3,2.68,2.68,0,0,1,2.23.36A2.36,2.36,0,0,1,5.5.19l-.79,0a1.72,1.72,0,0,0-.79-1.37,1.94,1.94,0,0,0-1.55-.24A3.53,3.53,0,0,0,.48,0,6.63,6.63,0,0,0-.69,3l-.79-.09a10.72,10.72,0,0,0,0-3.16A3.21,3.21,0,0,0-2.22-2,1.44,1.44,0,0,0-3.37-2.3,3.45,3.45,0,0,0-5-1.54l-.5-.55a4.29,4.29,0,0,1,2-.91A.9.9,0,0,1-3.24-3Z"/>
<rect fill="none" x="-12" y="-12" width="24" height="24"/>
</symbol>
<symbol id="helictites" viewBox="-12 -12 24 24">
<path d="M-4.59-7.92h.79v7.7l3.41,0V-7.92H.39V-.17L4.2-.12h.39v8H3.8V.6L.39.55V7.92H-.39V.55L-4.2.5l-.39,0v-8.4Z"/>
<rect fill="none" x="-12" y="-12" width="24" height="24"/>
</symbol>
<symbol id="human" viewBox="-12 -12 24 24">
<path d="M-3.59-3.29A5.13,5.13,0,0,1,0-4.66,5.13,5.13,0,0,1,3.59-3.29,4.3,4.3,0,0,1,5.09,0a4.3,4.3,0,0,1-1.5,3.29A5.13,5.13,0,0,1,0,4.66,5.13,5.13,0,0,1-3.59,3.29,4.3,4.3,0,0,1-5.09,0,4.3,4.3,0,0,1-3.59-3.29Zm.28.77A3.68,3.68,0,0,0-4.3,0a3.62,3.62,0,0,0,1,2.57L-.5.05ZM0-3.94A4.42,4.42,0,0,0-2.75-3L.16-.36H4.28A3.62,3.62,0,0,0,2.91-2.9,4.38,4.38,0,0,0,0-3.94ZM.16.46-2.7,3.07A4.42,4.42,0,0,0,0,3.94a4.37,4.37,0,0,0,2.87-1A3.78,3.78,0,0,0,4.28.46Z"/>
<rect fill="none" x="-12" y="-12" width="24" height="24"/>
</symbol>
<symbol id="karren" viewBox="-12 -12 24 24">
<path d="M1-5.84h0a1.37,1.37,0,0,1,1.06.68A3.33,3.33,0,0,1,2.5-3.79,25.79,25.79,0,0,1,2.36,0a18.61,18.61,0,0,0-.08,3.72,2.68,2.68,0,0,0,.41,1.2,1.13,1.13,0,0,0,.79.5A.92.92,0,0,0,4,4.94a4.43,4.43,0,0,0,.47-1.22c.16-.64.36-1.86.59-3.66a26.71,26.71,0,0,1,.64-3.69,4.62,4.62,0,0,1,.57-1.29,1.34,1.34,0,0,1,1-.59h0A1.28,1.28,0,0,1,8.37-5a2.17,2.17,0,0,1,.39,1.15A19.91,19.91,0,0,1,8.54-.53a21.51,21.51,0,0,0-.2,3.64A2.64,2.64,0,0,0,9.45,5.36,1.91,1.91,0,0,0,10.88,5a3.84,3.84,0,0,0,.7-1l.42.2-.1.18-.12.21-.11.18L11.52,5a.94.94,0,0,1-.14.16c-.06.07-.13.12-.19.18a2.5,2.5,0,0,1-1.85.41H9.29l0,0A3.06,3.06,0,0,1,7.87,3.13a22.11,22.11,0,0,1,.2-3.7,18.17,18.17,0,0,0,.22-3.28A1.85,1.85,0,0,0,8-4.79a.77.77,0,0,0-.67-.3.93.93,0,0,0-.64.42,4.51,4.51,0,0,0-.51,1.15A26.26,26.26,0,0,0,5.54.1c-.24,1.83-.45,3.07-.61,3.72a5.38,5.38,0,0,1-.51,1.34,1.33,1.33,0,0,1-.89.68H3.47A1.58,1.58,0,0,1,2.3,5.16a3.29,3.29,0,0,1-.49-1.4A20.27,20.27,0,0,1,1.89,0,23.45,23.45,0,0,0,2-3.75a2.94,2.94,0,0,0-.32-1.19A.93.93,0,0,0,1-5.42,1.1,1.1,0,0,0,.19-5,3.69,3.69,0,0,0-.43-3.76,20.78,20.78,0,0,0-1.07.07c-.2,2-.37,3.32-.49,3.86A4.48,4.48,0,0,1-2,5.26,1.06,1.06,0,0,1-3,5.81h0a1.9,1.9,0,0,1-1.29-.67,2.7,2.7,0,0,1-.58-1.31,14.92,14.92,0,0,1,0-3.6q0-.12.06-.54c0-.28,0-.47,0-.57s0-.28,0-.52,0-.42,0-.55,0-.28,0-.47,0-.36,0-.51,0-.29,0-.43A3.09,3.09,0,0,0-5-4.62a1.19,1.19,0,0,0-.67-.6,1.5,1.5,0,0,0-1.2.9A7,7,0,0,0-7.41-2.1c0,.39-.1,1-.14,1.76s-.11,1.47-.18,2.08A9.61,9.61,0,0,1-8,3.32h0l0,0A2.81,2.81,0,0,1-9.2,4.62a1.82,1.82,0,0,1-1.35.15A1.94,1.94,0,0,1-11.61,4,2.39,2.39,0,0,1-12,2.56l.47,0a1.92,1.92,0,0,0,.31,1.16,1.47,1.47,0,0,0,.81.62,1.3,1.3,0,0,0,1-.11A2.32,2.32,0,0,0-8.5,3.18a7.53,7.53,0,0,0,.29-1.5Q-8.1.8-8-.36c0-.78.1-1.37.16-1.78A7.23,7.23,0,0,1-7.28-4.5,1.93,1.93,0,0,1-5.65-5.66h.05l0,0a1.59,1.59,0,0,1,1,.84,3.47,3.47,0,0,1,.34,1.41,4.91,4.91,0,0,1,0,.57v.54c0,.15,0,.37,0,.66s0,.47,0,.58,0,.33-.06.68,0,.56-.06.63a14.78,14.78,0,0,0,0,3.49,2.58,2.58,0,0,0,.5,1.13,1.57,1.57,0,0,0,1,.5A.61.61,0,0,0-2.44,5,3.89,3.89,0,0,0-2,3.85C-1.9,3.31-1.74,2-1.53,0A20.65,20.65,0,0,1-.86-3.89,3.89,3.89,0,0,1-.18-5.26,1.58,1.58,0,0,1,1-5.84Z"/>
<rect fill="none" x="-12" y="-12" width="24" height="24"/>
</symbol>
<symbol id="moonmilk" viewBox="-12 -12 24 24">
<path d="M-4.78-3.06a3.39,3.39,0,0,1,1.5.34,2.48,2.48,0,0,1,1.1,1,3.74,3.74,0,0,1,1.62-.8,3.52,3.52,0,0,1,1.71,0,2.9,2.9,0,0,1,1.39.77A2.49,2.49,0,0,1,3.25-.37,4,4,0,0,1,5-.76a3.58,3.58,0,0,1,1.6.36A2.84,2.84,0,0,1,7.88.92a2.32,2.32,0,0,1,0,1.88.34.34,0,0,1-.37.26A.36.36,0,0,1,7.25,3a.32.32,0,0,1-.12-.25.21.21,0,0,1,0-.12,2,2,0,0,0,0-1.43,2,2,0,0,0-1-.9A2.81,2.81,0,0,0,4.68,0,2.78,2.78,0,0,0,3.12.56L2.46.25A1.7,1.7,0,0,0,2.15-1.1,2.15,2.15,0,0,0,1-1.81a2.85,2.85,0,0,0-1.58.06A3,3,0,0,0-2-.83l-.71-.12A1.74,1.74,0,0,0-3.55-2a2.36,2.36,0,0,0-1.39-.27,3.08,3.08,0,0,0-1.45.53A2.33,2.33,0,0,0-7.32-.56a.35.35,0,0,1-.37.24A.39.39,0,0,1-8-.42a.33.33,0,0,1-.1-.26v-.1A3,3,0,0,1-6.89-2.35,4,4,0,0,1-5-3Z"/>
<rect fill="none" x="-12" y="-12" width="24" height="24"/>
</symbol>
<symbol id="narrow" viewBox="-12 -12 24 24">
<path d="M-1.5,5V-5h0.64V5H-1.5z"/>
<path d="M0.86,5V-5H1.5V5H0.86z"/>
<rect fill="none" x="-12" y="-12" width="24" height="24"/>
</symbol>
<symbol id="paleoflow" viewBox="-12 -12 24 24">
<path d="M.38-12V.17A1.9,1.9,0,0,0,1,0,1.57,1.57,0,0,0,1.7-.72a1.86,1.86,0,0,0,.23-1c0-.09,0-.14.08-.16a.92.92,0,0,1,.24,0,.52.52,0,0,0,.25,0h.08A2.48,2.48,0,0,1,2,0,2.5,2.5,0,0,1,.38.77V7.21H2.09L0,12-1.8,7.23c.07,0,.59,0,1.53,0V.77A3,3,0,0,1-1.35.43a2.16,2.16,0,0,1-1-1,2.38,2.38,0,0,1-.24-1.33l.67,0a2,2,0,0,0,.15,1,1.73,1.73,0,0,0,.59.67A2.14,2.14,0,0,0-.27.16V-12Z"/>
<rect fill="none" x="-12" y="-12" width="24" height="24"/>
</symbol>
<symbol id="rain" viewBox="-12 -12 24 24">
<path d="M-4.14-6.34h0.71v4.69h-0.71V-6.34z"/>
<path d="M-0.35-6.34h0.71v4.69h-0.71V-6.34z"/>
<path d="M3.43-6.34h0.71v4.69H3.43V-6.34z"/>
<path d="M-4.14,1.65h0.71v4.69h-0.71V1.65z"/>
<path d="M-0.35,1.65h0.71v4.69h-0.71V1.65z"/>
<path d="M3.43,1.65h0.71v4.69H3.43V1.65z"/>
<rect fill="none" x="-12" y="-12" width="24" height="24"/>
</symbol>
<symbol id="rats" viewBox="-12 -12 24 24">
<path d="M8.78-2.32,7-2.27c-.51-.17-.65-.56-1.46-.45l-.25.45C3.59-2.75,2.59-3.66.56-3.62l-1.35.3A4.89,4.89,0,0,0-4.24,1.57c-.68.6-2.58.86-3.39.94a6.84,6.84,0,0,0-1.62.39,4.91,4.91,0,0,0-1,.52A1.75,1.75,0,0,0-11,4.61a1.16,1.16,0,0,0,.59,1.48,1.3,1.3,0,0,1,.14.12c.16-.52-.35-.92-.2-1.42a3.35,3.35,0,0,1,.27-.45,3.18,3.18,0,0,1,1.79-1c.63-.12,1.27-.22,1.91-.3.48-.07,1,0,1.4-.12A6.94,6.94,0,0,1-4,2.82,30.64,30.64,0,0,0,.41,2.69l2.16.15c.1-.09,0,0,.1-.15a.87.87,0,0,0-.9-.55c.86-1,2.27-.37,3.1-.05.5.19,1,0,1.25.4.11-.1.1-.07.15-.25.3,0,.31.07.6.15-.06-.49-.34-.64-1-.6a.78.78,0,0,1,0-.55C6.3.56,7.29.73,8.13.43a13.78,13.78,0,0,0,2.15-.9l.6-.85v-.2A16.9,16.9,0,0,0,8.78-2.32Z"/>
<rect fill="none" x="-12" y="-12" width="24" height="24"/>
</symbol>
<symbol id="sand" viewBox="-12 -12 24 24">
<path d="M-1.58,0.83c0.23,0.2,0.35,0.44,0.36,0.73c0.01,0.29-0.08,0.54-0.28,0.75c-0.2,0.21-0.46,0.32-0.78,0.33c-0.32,0.01-0.6-0.08-0.83-0.26C-3.36,2.19-3.49,1.95-3.5,1.67C-3.51,1.38-3.41,1.12-3.2,0.9c0.21-0.22,0.48-0.34,0.8-0.35C-2.08,0.54-1.81,0.64-1.58,0.83z"/>
<path d="M0.08-2.36c0.23,0.2,0.35,0.44,0.36,0.73c0.01,0.29-0.08,0.54-0.28,0.75c-0.2,0.21-0.46,0.32-0.78,0.33c-0.32,0.01-0.59-0.07-0.83-0.26s-0.37-0.42-0.38-0.71c-0.01-0.29,0.09-0.54,0.3-0.76c0.21-0.22,0.48-0.33,0.8-0.35C-0.42-2.65-0.14-2.56,0.08-2.36z"/>
<path d="M3.12,0.55c0.23,0.2,0.35,0.43,0.38,0.71c0.02,0.28-0.07,0.53-0.28,0.75C3,2.23,2.73,2.35,2.42,2.36C2.1,2.37,1.82,2.28,1.58,2.08C1.34,1.88,1.22,1.64,1.2,1.35c-0.01-0.29,0.09-0.54,0.3-0.75C1.72,0.4,1.99,0.29,2.3,0.28S2.89,0.36,3.12,0.55z"/>
<rect fill="none" x="-12" y="-12" width="24" height="24"/>
</symbol>
<symbol  id="scallops" viewBox="-12 -12 24 24">
<path d="M.05-3.74l.21,0A2.35,2.35,0,0,1,1.74-3a2,2,0,0,1,.59,1.55v0l0,0A9.59,9.59,0,0,1-.08,3.27l-.39.47-.27-.55A14.26,14.26,0,0,1-2.33-1.89v-.05l0-.05A2,2,0,0,1-1.44-3.3,2.42,2.42,0,0,1,.05-3.74ZM-.11-3A1.44,1.44,0,0,0-1.55-1.89,13.06,13.06,0,0,0-.29,2.33,8.6,8.6,0,0,0,1.55-1.54a1.41,1.41,0,0,0-.38-1A1.62,1.62,0,0,0,.18-3Z"/>
<rect fill="none" x="-12" y="-12" width="24" height="24"/>
</symbol>
<symbol  id="sink" viewBox="-12 -12 24 24">
<path d="M.72,9.41H.9c1.94,0,3.26-.54,3.94-1.51a3.61,3.61,0,0,0,.33-.69,2,2,0,0,0,.11-.54V6.46l.69,0a2.8,2.8,0,0,1-.58,1.78C4.58,9.39,3.1,10,.93,10H-.93q-3.25,0-4.46-1.8a2.74,2.74,0,0,1-.43-.83A2.37,2.37,0,0,1-6,6.67V6.43l.68,0A2.27,2.27,0,0,0-4.84,7.9c.68,1,2,1.47,3.93,1.48l.5,0ZM-1.46-10a.68.68,0,0,0,.16.41A2.77,2.77,0,0,0-.51-9l0,0a3.63,3.63,0,0,1,1,.7,1.15,1.15,0,0,1,.34.88c0,.58-.53,1.14-1.49,1.68-.68.42-1,.79-1,1.11s.3.61.84,1h0Q.61-2.86.46-1.78a3.51,3.51,0,0,1-1.55,2,.61.61,0,0,0-.26.41,1.67,1.67,0,0,0,.1.51,5.3,5.3,0,0,1,.32,1L.56,1.9.46,8.06-3.4,2.54l1.73-.28A6.16,6.16,0,0,0-2,1.39,1.7,1.7,0,0,1-2.09.58a1.21,1.21,0,0,1,.53-.82h0v0C-.75-.86-.33-1.38-.28-1.85s-.23-.87-.91-1.27h0C-2-3.6-2.37-4.1-2.4-4.61S-2-5.74-1.09-6.29C-.34-6.72.06-7.1.09-7.44a.67.67,0,0,0-.18-.43,3.17,3.17,0,0,0-.79-.58,2.93,2.93,0,0,1-1-.67A1.16,1.16,0,0,1-2.17-10Z"/>
<rect fill="none" x="-12" y="-12" width="24" height="24"/>
</symbol>
<symbol  id="spring" viewBox="-12 -12 24 24">
<path d="M-1.34-9.86,2.52-4.34.78-4.06a8,8,0,0,0,.29.87,1.4,1.4,0,0,1,.13.79,1.3,1.3,0,0,1-.52.84l0,0v0C-.13-.95-.55-.42-.61,0S-.37.91.31,1.3l0,0c.75.46,1.14,1,1.18,1.46S1.12,3.92.21,4.46C-.54,4.9-.94,5.29-1,5.64a.74.74,0,0,0,.18.43A3.2,3.2,0,0,0,0,6.62a3,3,0,0,1,1,.7,1.14,1.14,0,0,1,.31.86A1.74,1.74,0,0,1,.71,9.26H.92c1.92,0,3.22-.52,3.9-1.51a2.05,2.05,0,0,0,.35-.67,2.59,2.59,0,0,0,.1-.55l0-.19.65,0a2.84,2.84,0,0,1-.55,1.8C4.58,9.26,3.08,9.85.92,9.86H-.92c-2.17,0-3.66-.6-4.49-1.77a3.65,3.65,0,0,1-.4-.85A2.43,2.43,0,0,1-6,6.53V6.29l.66,0a2.08,2.08,0,0,0,.47,1.41c.68,1,2,1.5,3.91,1.51H-.4c.62-.43.94-.8,1-1.1a.76.76,0,0,0-.16-.43,3.25,3.25,0,0,0-.79-.51v0a3.8,3.8,0,0,1-1-.7,1.15,1.15,0,0,1-.34-.91q.06-.84,1.5-1.68c.68-.4,1-.77,1-1.1S.49,2.21,0,1.87c0,0,0,0,0,0C-1,1.32-1.44.69-1.34,0a3.58,3.58,0,0,1,1.55-2,.54.54,0,0,0,.23-.38A1.28,1.28,0,0,0,.37-3a4.57,4.57,0,0,1-.32-1l-1.49.24Z"/>
<rect fill="none" x="-12" y="-12" width="24" height="24"/>
</symbol>
<symbol  id="stalactite" viewBox="-12 -12 24 24">
<path d="M3.57-6.69l.52.53L.39-3V6.12H-.39V-3l-3.7-3.14.52-.53L0-3.67Z"/>
<rect fill="none" x="-12" y="-12" width="24" height="24"/>
</symbol>
<symbol  id="stalagmite" viewBox="-12 -12 24 24">
<path d="M.38-6.42V2.75L4.11,5.89l-.56.53L0,3.4l-3.57,3-.53-.53,3.7-3.14V-6.42Z"/>
<rect fill="none" x="-12" y="-12" width="24" height="24"/>
</symbol>
<symbol  id="stalagnate" viewBox="-12 -12 24 24">
<path d="M3.55-8.46l.56.53L.38-4.78v9L4.11,7.36l-.56.53L0,4.86l-3.57,3-.53-.53,3.7-3.14v-9l-3.7-3.15.53-.53L0-5.43Z"/>
<rect fill="none" x="-12" y="-12" width="24" height="24"/>
</symbol>
<symbol  id="straws" viewBox="-12 -12 24 24">
<path d="M-10.89-2.76H10.89V-2H9.63V.46H8.84V-2H8.29v5.6H7.5V-2H5.56V.7H4.77V-2H2.07V2.38H1.29V-2H-.1v3H-.89V-2H-3.2V4.11H-4V-2H-6.22L-6.16.75l-.79,0L-7-2H-8.32V2.33H-9.1V-2h-1.79Z"/>
<rect fill="none" x="-12" y="-12" width="24" height="24"/>
</symbol>
<symbol  id="water" viewBox="-12 -12 24 24">
<path d="M-1.72-9.86,2.11-4.32.38-4.06a6.49,6.49,0,0,0,.29.89,1.5,1.5,0,0,1,.13.79,1.2,1.2,0,0,1-.5.82h0l0,0C-.54-.94-1-.42-1,.05s.24.89.92,1.27h0c.77.48,1.17,1,1.19,1.49S.71,3.94-.2,4.49c-.75.43-1.13.81-1.15,1.15a.51.51,0,0,0,.18.43,2.66,2.66,0,0,0,.76.58,2.93,2.93,0,0,1,1,.67,1.16,1.16,0,0,1,.29.89C.84,8.75.42,9.3-.41,9.86l-.44-.55c.66-.45,1-.83,1-1.15A.47.47,0,0,0,0,7.75a2.84,2.84,0,0,0-.78-.53h0a3.87,3.87,0,0,1-1-.69,1.24,1.24,0,0,1-.34-.91c0-.58.54-1.14,1.52-1.68.66-.42,1-.79,1-1.11s-.3-.61-.84-1h0Q-1.9,1.06-1.74,0a3.44,3.44,0,0,1,1.54-2,.67.67,0,0,0,.27-.41A1.11,1.11,0,0,0,0-3a4.33,4.33,0,0,1-.31-1l-1.5.24Z"/>
<rect fill="none" x="-12" y="-12" width="24" height="24"/>
</symbol><symbol  id="tree" viewBox="-12 -12 24 24">
<path d="M7.4-5.04A4.271,4.271,0,0,0,7.7-6.627a4.3,4.3,0,0,0-4.3-4.3A4.279,4.279,0,0,0,.636-9.914,4.293,4.293,0,0,0-3.045-12a4.3,4.3,0,0,0-4.3,4.3,4.27,4.27,0,0,0,.421,1.845,4.3,4.3,0,0,0-3.645,4.244,4.3,4.3,0,0,0,4.3,4.3A4.282,4.282,0,0,0-3.946,2L-1.175,5.23h0L-1.612,12H.982L.757,6.376,4.119,2.827v0a4.272,4.272,0,0,0,2.15.58,4.3,4.3,0,0,0,4.3-4.3A4.3,4.3,0,0,0,7.4-5.04ZM-3.346,1.538h0A4.346,4.346,0,0,0-2.7.788a4.266,4.266,0,0,0,1.765.753l-.135,2.087ZM.69,4.7.563,1.544A4.258,4.258,0,0,0,2.321.805,4.3,4.3,0,0,0,3.378,2.279Z"/>
<rect fill="none" x="-12" y="-12" width="24" height="24"/>
</symbol><g>
<desc></desc>
<g>
<line fill="none" stroke="#dddddd" stroke-width="0.1mm" x1="0.00" y1="56.00" x2="118.00" y2="56.00" />
<text x="115.20" y="55.80" font-size=".2mm" fill="#000000">0m</text>
<line fill="none" stroke="#dddddd" stroke-width="0.1mm" x1="0.00" y1="36.00" x2="118.00" y2="36.00" />
<text x="115.20" y="35.80" font-size=".2mm" fill="#000000">10m</text>
<line fill="none" stroke="#dddddd" stroke-width="0.1mm" x1="0.00" y1="16.00" x2="118.00" y2="16.00" />
<text x="115.20" y="15.80" font-size=".2mm" fill="#000000">20m</text>
<line fill="none" stroke="#dddddd" stroke-width="0.1mm" x1="0.00" y1="76.00" x2="118.00" y2="76.00" />
<text x="115.20" y="75.80" font-size=".2mm" fill="#000000">-10m</text>
<line fill="none" stroke="#dddddd" stroke-width="0.1mm" x1="0.00" y1="96.00" x2="118.00" y2="96.00" />
<text x="115.20" y="95.80" font-size=".2mm" fill="#000000">-20m</text>
</g>
<g>
<path fill="none" stroke="#000000" stroke-width="0.06mm" d="M20.0,56.0 L20.0,56.0" /><path fill="none" stroke="#000000" stroke-width="0.06mm" d="M88.026596,30.816044 L87.32311,31.214502" /><path fill="none" stroke="#000000" stroke-width="0.06mm" d="M87.70909,31.15847 C88.486336,30.709305 89.42528,30.713127 90.26919,30.487173 C91.00475,30.290228 91.71668,30.01124 92.452126,29.813852 C93.178764,29.61883 94.72021,29.326189 95.52961,29.19102 C97.38468,28.881226 97.887184,28.67775 99.361244,28.705055 C99.43459,28.706413 99.50579,28.730234 99.578064,28.742825 L99.578064,28.742825" /><path fill="none" stroke="#000000" stroke-width="0.06mm" d="M85.75117,20.319195 C86.02354,20.202087 86.28514,20.055782 86.5683,19.967873 C87.130585,19.7933 87.78441,19.756187 88.365654,19.767082 C88.64753,19.772362 88.92716,19.85225 89.20861,19.835957 C91.1827,19.721687 93.14988,19.506756 95.12295,19.375935 C95.39925,19.357613 95.67674,19.395153 95.953575,19.388748 C96.61074,19.373539 97.26716,19.33479 97.92407,19.311115 C98.27739,19.298382 98.20305,19.335491 98.59215,19.233578 C98.902855,19.152199 98.99172,19.093071 99.279236,18.955727 L99.279236,18.955727" /><path fill="none" stroke="#000000" stroke-width="0.06mm" d="M66.242294,33.6328 C66.37732,33.6656 66.51053,33.70707 66.64736,33.731197 C66.72987,33.745747 66.81444,33.752384 66.89813,33.748436 C71.02411,33.553917 75.15137,33.38086 79.27464,33.135876 C79.63544,33.11444 79.99564,33.05014 80.34281,32.949627 C84.78756,31.662771 80.809845,32.75229 82.5491,32.105072 C83.459625,31.766243 84.3703,31.425966 85.29481,31.12739 C85.460365,31.073925 85.63838,31.071692 85.81118,31.05156 C87.572975,30.84631 86.498405,31.022772 87.70895,30.805487 L87.70895,30.805487" /><path fill="none" stroke="#000000" stroke-width="0.06mm" d="M63.645363,23.705788 C64.70697,23.413242 66.18312,23.00322 67.02602,22.82159 C68.56973,22.6195 67.98588,22.744415 68.797356,22.55392 L68.797356,22.55392" /><path fill="none" stroke="#000000" stroke-width="0.06mm" d="M68.50415,22.55392 C68.66904,22.546818 68.835686,22.557709 68.9988,22.532616 C70.581314,22.28918 72.15813,22.010094 73.73778,21.748829 C75.579926,21.622993 77.43666,21.634735 79.26421,21.371319 C80.578354,21.181904 81.8286,20.677639 83.12602,20.395653 C83.87976,20.231834 84.50307,20.303192 85.258606,20.333954 L85.258606,20.333954" /><path fill="none" stroke="#000000" stroke-width="0.06mm" d="M85.07013,20.45961 C85.37265,20.357304 85.19967,20.404976 85.5937,20.333954 L85.5937,20.333954" /><path fill="none" stroke="#000000" stroke-width="0.06mm" d="M53.36231,36.02031 C53.689003,35.998 53.554604,36.02449 53.83525,35.947456 C55.82872,35.40026 57.80097,34.769104 59.8153,34.304543 C61.296608,33.962906 65.118256,34.077324 66.03287,34.0726 L66.03287,34.0726" /><path fill="none" stroke="#000000" stroke-width="0.06mm" d="M64.98572,34.491463 C65.033554,34.420807 65.07704,34.346992 65.12924,34.279488 C65.15335,34.248318 65.25207,34.160706 65.29469,34.152714 C65.9854,34.02324 66.68039,33.9178 67.37323,33.800346 L67.37323,33.800346" /><path fill="none" stroke="#000000" stroke-width="0.06mm" d="M45.75998,36.711433 C45.893448,36.65112 46.01662,36.55845 46.160393,36.530495 C50.94255,35.60083 50.014915,35.75776 53.802116,35.45485 L53.802116,35.45485" /><path fill="none" stroke="#000000" stroke-width="0.06mm" d="M53.02722,36.10408 C53.803253,35.887928 53.364876,35.998634 54.346634,35.789936 L54.346634,35.789936" /><path fill="none" stroke="#000000" stroke-width="0.06mm" d="M46.51393,27.433651 C46.6164,27.396091 46.714012,27.340765 46.82134,27.320969 C49.67227,26.795135 48.53128,27.205997 52.681713,26.953505 C53.583088,26.898668 54.471653,26.698359 55.373013,26.643223 C56.501427,26.5742 57.634315,26.62452 58.76402,26.581455 C59.1267,26.56763 59.504284,26.407137 59.78486,26.182608 C60.274105,25.79109 60.69026,25.302023 61.22271,24.971651 C61.885956,24.560125 64.07997,23.682796 63.289326,23.99899 L63.289326,23.99899" /><path fill="none" stroke="#000000" stroke-width="0.06mm" d="M36.691628,30.84737 C36.833954,30.870548 36.97442,30.919292 37.1186,30.916899 C38.269573,30.897776 39.353325,30.721031 40.45745,30.352306 C42.505814,29.668251 43.949482,28.746063 45.943443,27.853252 C46.5035,27.602482 47.091675,27.419933 47.6658,27.203276 L47.6658,27.203276" /><path fill="none" stroke="#000000" stroke-width="0.06mm" d="M30.70191,33.381485 C30.928457,33.31141 31.169815,33.278038 31.38155,33.171257 C32.329544,32.69316 33.22991,32.12522 34.170296,31.632317 C34.29947,31.564611 34.44125,31.51803 34.584797,31.492266 C35.39524,31.346804 36.212746,31.243843 37.02672,31.11963 L37.02672,31.11963" /><path fill="none" stroke="#000000" stroke-width="0.06mm" d="M45.25734,36.75332 C45.345654,36.659058 45.4345,36.54107 45.56949,36.510834 C45.59434,36.505264 45.62771,36.48828 45.64576,36.50625 C45.66455,36.52495 45.645115,36.559265 45.64479,36.58577 L45.64479,36.58577" /><path fill="none" stroke="#000000" stroke-width="0.06mm" d="M45.969406,36.355396 C45.736626,36.353752 44.82582,36.267227 44.35985,36.392067 C43.716583,36.5644 43.207848,37.141212 43.040054,37.773895 C43.02398,37.83451 43.014946,37.897408 43.013184,37.960094 C43.005394,38.23783 43.02134,38.51596 43.011436,38.79363 C43.006027,38.94523 42.887123,39.186592 42.83353,39.28819 C42.763535,39.42087 42.650658,39.592514 42.51609,39.677704 C42.402374,39.74969 42.243347,39.76658 42.124283,39.81517 C41.981102,39.8736 41.839935,39.93748 41.702515,40.008404 C41.513,40.106216 41.1472,40.56997 41.143265,40.5749 C40.927902,40.844772 40.63363,41.259605 40.50903,41.6072 C40.46953,41.71739 40.38233,42.217724 40.255478,42.44451 C40.16898,42.59915 39.813896,42.94974 39.81102,42.953156 C39.267292,43.598213 39.728554,43.188118 38.969505,43.87867 C38.927807,43.916603 38.87909,43.94749 38.827946,43.971214 C37.87288,44.414307 38.527267,44.05355 38.031982,44.33471 L38.031982,44.33471" /><path fill="none" stroke="#000000" stroke-width="0.06mm" d="M37.31992,45.298088 C37.01951,45.29057 37.18016,45.28618 36.838226,45.319035 L36.838226,45.319035" /><path fill="none" stroke="#000000" stroke-width="0.06mm" d="M34.241287,46.889763 C33.939186,46.8478 33.82715,46.87272 33.57111,46.99448 L33.57111,46.99448" /><path fill="none" stroke="#000000" stroke-width="0.06mm" d="M31.413973,48.10446 C30.437561,48.22833 30.823822,48.14148 30.241161,48.29295 L30.241161,48.29295" /><path fill="none" stroke="#000000" stroke-width="0.06mm" d="M29.445324,48.439552 C29.046808,48.319748 28.91221,48.37318 28.52383,48.481438 L28.52383,48.481438" /><path fill="none" stroke="#000000" stroke-width="0.06mm" d="M32.523956,47.622772 L32.6915,47.35051" /><path fill="none" stroke="#000000" stroke-width="0.06mm" d="M28.293457,46.177696 C28.33709,46.105675 28.376589,46.03098 28.42436,45.96163 C28.451544,45.922165 28.535704,45.84145 28.580061,45.821365 C29.508816,45.400818 29.293152,45.468513 29.717587,45.339973 L29.717587,45.339973" /><path fill="none" stroke="#000000" stroke-width="0.06mm" d="M32.377354,44.229992 L33.675827,44.02056" /><path fill="none" stroke="#000000" stroke-width="0.06mm" d="M34.80675,43.434155 C35.65202,43.111397 35.21283,43.239193 36.126163,43.057182 L36.126163,43.057182" /><path fill="none" stroke="#000000" stroke-width="0.06mm" d="M35.89579,42.805862 C36.11667,42.691772 36.350845,42.600395 36.558426,42.463596 C37.23554,42.017372 37.954597,41.583614 38.502357,40.97263 C38.65763,40.79943 38.816505,40.533005 38.71559,40.294006 C38.696754,40.2494 38.665646,40.203316 38.623108,40.17761 C38.409775,40.04869 37.90264,40.11124 37.753174,40.13317 C37.435165,40.17983 37.12142,40.254795 36.810802,40.337387 C35.15371,40.79345 33.496616,41.249516 31.839523,41.705578 C31.523424,41.833096 31.215744,41.983887 30.891226,42.088127 C30.60662,42.17955 30.311535,42.236164 30.017647,42.290813 C29.53093,42.381317 28.632862,42.373734 28.107851,42.713943 C27.865223,42.87117 27.668568,43.433075 27.634377,43.65379 C27.557556,44.149685 27.534826,44.652565 27.497635,45.152996 C27.493519,45.208347 27.501263,45.264294 27.510616,45.319008 C27.535538,45.464775 27.573723,45.590706 27.731192,45.623783 C27.765566,45.631004 27.80055,45.63945 27.835634,45.637753 C28.329155,45.613865 28.293396,45.61267 28.649487,45.549408 L28.649487,45.549408" /><path fill="none" stroke="#000000" stroke-width="0.06mm" d="M29.047405,48.29295 C28.916964,48.278122 28.75675,48.24472 28.668863,48.371845 C28.021675,49.307976 27.342033,50.22301 26.737099,51.186985 C26.446133,51.650646 26.136753,52.335934 25.996128,52.910606 C25.974453,52.999184 25.970606,53.091526 25.967348,53.18266 C25.951609,53.62308 25.962852,54.0644 25.939165,54.504463 C25.893497,55.352917 25.819284,56.19959 25.759344,57.047153 L25.759344,57.047153" /><path fill="none" stroke="#000000" stroke-width="0.06mm" d="M31.204542,33.25582 C30.8759,33.20771 30.82343,33.175423 30.488285,33.226635 C29.063286,33.444393 27.63839,33.664192 26.21838,33.912422 C26.10838,33.931656 26.004124,33.97868 25.903952,34.02803 C25.339766,34.30597 24.980028,34.61097 24.491741,35.069317 C24.214384,35.329666 23.946651,35.60324 23.712227,35.902832 C23.400467,36.30126 22.891743,37.09006 22.727629,37.63268 C22.655163,37.872272 22.022165,40.197086 21.932104,40.970016 C21.900795,41.238724 22.00608,42.022507 21.96029,42.24026 C21.484703,44.501923 20.855705,46.72934 20.372854,48.98946 C20.021183,50.635563 20.330067,50.020496 20.177649,51.391163 C19.9289,53.628128 19.99849,52.45987 19.640055,54.241524 C19.55832,54.647808 19.550526,55.410564 19.293217,55.768173 C19.103092,56.032406 18.689732,56.183758 18.387383,56.335087 L18.387383,56.335087" /><path fill="none" stroke="#000000" stroke-width="0.06mm" d="M18.988125,56.056217 C18.960827,56.30106 18.949158,56.548157 18.906229,56.79075 C18.679787,58.070374 16.812794,60.12262 16.091637,60.85379 C14.285702,62.684803 12.457952,64.500145 10.519213,66.18991 C8.171634,68.23601 5.708029,69.46414 3.1562996,71.232155 C2.1310291,71.94253 1.8372097,72.23647 1.192543,73.07074 C0.9097309,73.43673 0.7449951,73.80986 0.3811798,74.06859 C-0.8202057,74.92295 -2.5396252,75.04964 -3.554884,76.1912 C-5.610922,78.50302 -6.322487,79.15476 -7.850271,81.74387 C-8.268618,82.45284 -8.659237,83.18586 -8.942602,83.95874 C-9.242504,84.77673 -9.445271,85.631805 -9.59066,86.49082 C-9.714252,87.22107 -9.678352,87.96976 -9.746283,88.70727 C-9.754889,88.8007 -9.787277,88.89097 -9.819836,88.978966 C-9.994848,89.45201 -10.578964,90.1023 -10.7394905,90.3485 C-10.809813,90.45636 -10.854502,90.57959 -10.897623,90.70091 C-11.059761,91.157074 -11.194672,91.62256 -11.354742,92.07945 C-11.392162,92.186264 -11.444738,92.28714 -11.489735,92.39099 C-11.580343,92.66547 -11.670952,92.93995 -11.761564,93.21443 L-11.761564,93.21443" /><path fill="none" stroke="#000000" stroke-width="0.06mm" d="M25.45287,57.855103 C25.412058,59.222942 25.383194,60.59119 25.330437,61.958622 C25.175394,65.97729 25.056097,69.99792 24.82948,74.01318 C24.81036,74.351944 24.695456,74.67967 24.594196,75.003494 C24.36979,75.721146 23.858469,76.40876 23.061459,76.50031 C22.615252,76.55157 21.883888,76.51061 21.401896,76.7221 C20.910412,76.93775 20.424086,77.16887 19.959259,77.43719 C18.830683,78.08867 17.846502,79.2202 17.524567,80.501015 C17.040052,82.42864 17.24116,82.39218 16.979622,84.57376 C16.948162,84.836174 16.854908,85.088066 16.814434,85.34924 C16.794853,85.47559 16.839317,85.67973 16.885117,85.79508 C17.109924,86.3613 17.455416,86.848495 17.302916,87.46752 C17.265156,87.6208 17.221306,87.711624 17.12224,87.82601 C17.017067,87.94745 16.853958,88.00255 16.702457,88.034096 C15.940989,88.19266 15.17296,88.320656 14.4155035,88.497406 C14.008465,88.59239 13.614988,88.78374 13.4327755,89.178085 C12.777706,90.59581 13.745734,92.52401 12.701345,93.76703 C12.501044,94.005424 12.2585335,94.23932 11.982272,94.39269 C10.899299,94.99393 9.795717,94.55799 8.562035,94.758865 C4.803711,95.37082 6.133401,95.44501 3.784006,96.119965 C3.6221695,96.16646 3.4520912,96.18467 3.2838116,96.19053 C2.054905,96.23332 1.2621384,96.05985 0.19616508,96.368904 C9.7465515E-4,96.42549 -0.18519402,96.51082 -0.36925316,96.59697 C-0.97696114,96.881454 -1.8436184,97.190094 -2.1294384,97.89197 C-2.2125797,98.09613 -2.3066845,98.30215 -2.3338947,98.520905 C-2.451395,99.46556 -2.2473736,101.57399 -3.146349,102.50735 C-3.8530922,103.24112 -6.444998,103.736725 -6.4531116,103.73985 C-7.3625774,104.09134 -8.516741,104.893875 -9.331699,105.38131 C-11.353081,106.59032 -10.537008,105.864975 -11.592918,106.93093 L-11.592918,106.93093" /><text x="-13.378456" y="98.30968" font-family="sans-serif" font-size=".2mm" fill="black">?</text>
<use xlink:href="#entrance" width="3.6" height="3.6" x="-1.8" y="-1.8" transform="translate(71.393906 73.87307) rotate(2)"/>
<use xlink:href="#entrance" width="3.6" height="3.6" x="-1.8" y="-1.8" transform="translate(81.17818 79.10077) rotate(6)"/>
</g>
<g>
<line fill="none" stroke="#00aeef" stroke-width="0.04mm" stroke-dasharray="0.4,0.2" x1="20.00" y1="56.00" x2="32.73" y2="89.56" />
<line fill="none" stroke="#00aeef" stroke-width="0.04mm" stroke-dasharray="0.4,0.2" x1="20.00" y1="56.00" x2="33.42" y2="90.81" />
<line fill="none" stroke="#111111" stroke-width="0.04mm" x1="20.00" y1="56.00" x2="26.85" y2="42.03" />
<line fill="none" stroke="#5674b9" stroke-width="0.04mm" stroke-dasharray="0.4,0.2" x1="26.85" y1="42.03" x2="33.70" y2="28.07" />
<line fill="none" stroke="#111111" stroke-width="0.04mm" x1="26.85" y1="42.03" x2="33.04" y2="39.00" />
<line fill="none" stroke="#00aeef" stroke-width="0.04mm" stroke-dasharray="0.4,0.2" x1="33.04" y1="39.00" x2="33.46" y2="38.93" />
<line fill="none" stroke="#00aeef" stroke-width="0.04mm" stroke-dasharray="0.4,0.2" x1="33.04" y1="39.00" x2="33.13" y2="33.62" />
<line fill="none" stroke="#00aeef" stroke-width="0.04mm" stroke-dasharray="0.4,0.2" x1="33.04" y1="39.00" x2="33.95" y2="41.08" />
<line fill="none" stroke="#5674b9" stroke-width="0.04mm" stroke-dasharray="0.4,0.2" x1="33.04" y1="39.00" x2="33.18" y2="39.14" />
<line fill="none" stroke="#5674b9" stroke-width="0.04mm" stroke-dasharray="0.4,0.2" x1="33.04" y1="39.00" x2="33.19" y2="41.03" />
<line fill="none" stroke="#5674b9" stroke-width="0.04mm" stroke-dasharray="0.4,0.2" x1="33.04" y1="39.00" x2="33.15" y2="32.69" />
<line fill="none" stroke="#111111" stroke-width="0.04mm" x1="33.04" y1="39.00" x2="38.80" y2="37.16" />
<line fill="none" stroke="#5674b9" stroke-width="0.04mm" stroke-dasharray="0.4,0.2" x1="38.80" y1="37.16" x2="38.38" y2="37.23" />
<line fill="none" stroke="#5674b9" stroke-width="0.04mm" stroke-dasharray="0.4,0.2" x1="38.80" y1="37.16" x2="38.44" y2="39.99" />
<line fill="none" stroke="#5674b9" stroke-width="0.04mm" stroke-dasharray="0.4,0.2" x1="38.80" y1="37.16" x2="39.43" y2="30.72" />
<line fill="none" stroke="#111111" stroke-width="0.04mm" x1="38.80" y1="37.16" x2="41.01" y2="31.19" />
<line fill="none" stroke="#00aeef" stroke-width="0.04mm" stroke-dasharray="0.4,0.2" x1="41.01" y1="31.19" x2="40.17" y2="31.10" />
<line fill="none" stroke="#00aeef" stroke-width="0.04mm" stroke-dasharray="0.4,0.2" x1="41.01" y1="31.19" x2="40.75" y2="30.49" />
<line fill="none" stroke="#111111" stroke-width="0.04mm" x1="41.01" y1="31.19" x2="46.21" y2="28.69" />
<line fill="none" stroke="#00aeef" stroke-width="0.04mm" stroke-dasharray="0.4,0.2" x1="46.21" y1="28.69" x2="46.15" y2="28.57" />
<line fill="none" stroke="#00aeef" stroke-width="0.04mm" stroke-dasharray="0.4,0.2" x1="46.21" y1="28.69" x2="46.07" y2="28.31" />
<line fill="none" stroke="#5674b9" stroke-width="0.04mm" stroke-dasharray="0.4,0.2" x1="46.21" y1="28.69" x2="46.31" y2="36.59" />
<line fill="none" stroke="#111111" stroke-width="0.04mm" x1="46.21" y1="28.69" x2="48.84" y2="27.77" />
<line fill="none" stroke="#5674b9" stroke-width="0.04mm" stroke-dasharray="0.4,0.2" x1="48.84" y1="27.77" x2="47.91" y2="27.76" />
<line fill="none" stroke="#111111" stroke-width="0.04mm" x1="48.84" y1="27.77" x2="54.40" y2="31.69" />
<line fill="none" stroke="#5674b9" stroke-width="0.04mm" stroke-dasharray="0.4,0.2" x1="54.40" y1="31.69" x2="53.81" y2="27.39" />
<line fill="none" stroke="#00aeef" stroke-width="0.04mm" stroke-dasharray="0.4,0.2" x1="54.40" y1="31.69" x2="54.42" y2="35.26" />
<line fill="none" stroke="#00aeef" stroke-width="0.04mm" stroke-dasharray="0.4,0.2" x1="54.40" y1="31.69" x2="53.99" y2="31.71" />
<line fill="none" stroke="#5674b9" stroke-width="0.04mm" stroke-dasharray="0.4,0.2" x1="54.40" y1="31.69" x2="54.39" y2="35.27" />
<line fill="none" stroke="#00aeef" stroke-width="0.04mm" stroke-dasharray="0.4,0.2" x1="54.40" y1="31.69" x2="53.88" y2="31.73" />
<line fill="none" stroke="#00aeef" stroke-width="0.04mm" stroke-dasharray="0.4,0.2" x1="54.40" y1="31.69" x2="55.32" y2="27.55" />
<line fill="none" stroke="#111111" stroke-width="0.04mm" x1="54.40" y1="31.69" x2="58.75" y2="31.64" />
<line fill="none" stroke="#5674b9" stroke-width="0.04mm" stroke-dasharray="0.4,0.2" x1="58.75" y1="31.64" x2="58.55" y2="31.61" />
<line fill="none" stroke="#5674b9" stroke-width="0.04mm" stroke-dasharray="0.4,0.2" x1="58.75" y1="31.64" x2="57.39" y2="26.31" />
<line fill="none" stroke="#5674b9" stroke-width="0.04mm" stroke-dasharray="0.4,0.2" x1="58.75" y1="31.64" x2="58.03" y2="30.73" />
<line fill="none" stroke="#00aeef" stroke-width="0.04mm" stroke-dasharray="0.4,0.2" x1="58.75" y1="31.64" x2="58.12" y2="31.53" />
<line fill="none" stroke="#5674b9" stroke-width="0.04mm" stroke-dasharray="0.4,0.2" x1="58.75" y1="31.64" x2="58.03" y2="27.33" />
<line fill="none" stroke="#5674b9" stroke-width="0.04mm" stroke-dasharray="0.4,0.2" x1="58.75" y1="31.64" x2="58.87" y2="34.32" />
<line fill="none" stroke="#5674b9" stroke-width="0.04mm" stroke-dasharray="0.4,0.2" x1="58.75" y1="31.64" x2="57.81" y2="31.15" />
<line fill="none" stroke="#5674b9" stroke-width="0.04mm" stroke-dasharray="0.4,0.2" x1="58.75" y1="31.64" x2="57.81" y2="31.13" />
<line fill="none" stroke="#5674b9" stroke-width="0.04mm" stroke-dasharray="0.4,0.2" x1="58.75" y1="31.64" x2="57.72" y2="30.85" />
<line fill="none" stroke="#111111" stroke-width="0.04mm" x1="58.75" y1="31.64" x2="62.50" y2="30.71" />
<line fill="none" stroke="#00aeef" stroke-width="0.04mm" stroke-dasharray="0.4,0.2" x1="62.50" y1="30.71" x2="62.07" y2="30.56" />
<line fill="none" stroke="#00aeef" stroke-width="0.04mm" stroke-dasharray="0.4,0.2" x1="62.50" y1="30.71" x2="63.81" y2="23.61" />
<line fill="none" stroke="#00aeef" stroke-width="0.04mm" stroke-dasharray="0.4,0.2" x1="62.50" y1="30.71" x2="62.47" y2="33.53" />
<line fill="none" stroke="#111111" stroke-width="0.04mm" x1="62.50" y1="30.71" x2="64.14" y2="28.67" />
<line fill="none" stroke="#111111" stroke-width="0.04mm" x1="64.14" y1="28.67" x2="67.77" y2="23.85" />
<line fill="none" stroke="#5674b9" stroke-width="0.04mm" stroke-dasharray="0.4,0.2" x1="67.77" y1="23.85" x2="67.68" y2="23.06" />
<line fill="none" stroke="#5674b9" stroke-width="0.04mm" stroke-dasharray="0.4,0.2" x1="67.77" y1="23.85" x2="68.07" y2="23.33" />
<line fill="none" stroke="#5674b9" stroke-width="0.04mm" stroke-dasharray="0.4,0.2" x1="67.77" y1="23.85" x2="66.50" y2="32.91" />
<line fill="none" stroke="#5674b9" stroke-width="0.04mm" stroke-dasharray="0.4,0.2" x1="67.77" y1="23.85" x2="68.55" y2="23.90" />
<line fill="none" stroke="#111111" stroke-width="0.04mm" x1="67.77" y1="23.85" x2="77.17" y2="23.93" />
<line fill="none" stroke="#00aeef" stroke-width="0.04mm" stroke-dasharray="0.4,0.2" x1="77.17" y1="23.93" x2="77.68" y2="23.95" />
<line fill="none" stroke="#5674b9" stroke-width="0.04mm" stroke-dasharray="0.4,0.2" x1="77.17" y1="23.93" x2="77.73" y2="21.59" />
<line fill="none" stroke="#00aeef" stroke-width="0.04mm" stroke-dasharray="0.4,0.2" x1="77.17" y1="23.93" x2="77.92" y2="33.21" />
<line fill="none" stroke="#00aeef" stroke-width="0.04mm" stroke-dasharray="0.4,0.2" x1="77.17" y1="23.93" x2="82.53" y2="21.22" />
<line fill="none" stroke="#111111" stroke-width="0.04mm" x1="77.17" y1="23.93" x2="82.54" y2="21.23" />
<line fill="none" stroke="#00aeef" stroke-width="0.04mm" stroke-dasharray="0.4,0.2" x1="82.54" y1="21.23" x2="82.85" y2="21.26" />
<line fill="none" stroke="#111111" stroke-width="0.04mm" x1="82.54" y1="21.23" x2="88.50" y2="21.21" />
<line fill="none" stroke="#5674b9" stroke-width="0.04mm" stroke-dasharray="0.4,0.2" x1="88.50" y1="21.21" x2="88.01" y2="21.34" />
<line fill="none" stroke="#5674b9" stroke-width="0.04mm" stroke-dasharray="0.4,0.2" x1="88.50" y1="21.21" x2="88.13" y2="20.09" />
<line fill="none" stroke="#00aeef" stroke-width="0.04mm" stroke-dasharray="0.4,0.2" x1="88.50" y1="21.21" x2="89.86" y2="30.55" />
<line fill="none" stroke="#111111" stroke-width="0.04mm" x1="88.50" y1="21.21" x2="96.90" y2="19.73" />
<line fill="none" stroke="#5674b9" stroke-width="0.04mm" stroke-dasharray="0.4,0.2" x1="96.90" y1="19.73" x2="98.16" y2="19.85" />
<line fill="none" stroke="#5674b9" stroke-width="0.04mm" stroke-dasharray="0.4,0.2" x1="96.90" y1="19.73" x2="98.17" y2="19.85" />
<line fill="none" stroke="#111111" stroke-width="0.04mm" x1="96.90" y1="19.73" x2="98.73" y2="19.83" />
</g>
<g>
<circle cx="20.00" cy="56.00" r="0.1" fill="#111111" />
<circle cx="26.85" cy="42.03" r="0.1" fill="#111111" />
<circle cx="33.04" cy="39.00" r="0.1" fill="#111111" />
<circle cx="38.80" cy="37.16" r="0.1" fill="#111111" />
<circle cx="41.01" cy="31.19" r="0.1" fill="#111111" />
<circle cx="46.21" cy="28.69" r="0.1" fill="#111111" />
<circle cx="48.84" cy="27.77" r="0.1" fill="#111111" />
<circle cx="54.40" cy="31.69" r="0.1" fill="#111111" />
<circle cx="58.75" cy="31.64" r="0.1" fill="#111111" />
<circle cx="62.50" cy="30.71" r="0.1" fill="#111111" />
<circle cx="64.14" cy="28.67" r="0.1" fill="#111111" />
<circle cx="67.77" cy="23.85" r="0.1" fill="#111111" />
<circle cx="77.17" cy="23.93" r="0.1" fill="#111111" />
<circle cx="82.54" cy="21.23" r="0.1" fill="#111111" />
<circle cx="88.50" cy="21.21" r="0.1" fill="#111111" />
<circle cx="96.90" cy="19.73" r="0.1" fill="#111111" />
<circle cx="98.73" cy="19.83" r="0.1" fill="#111111" />
</g>
<g>
<text x="20.20" y="56.00" font-size=".2mm" fill="#000000">0</text>
<text x="27.05" y="42.03" font-size=".2mm" fill="#000000">1</text>
<text x="33.24" y="39.00" font-size=".2mm" fill="#000000">2</text>
<text x="39.00" y="37.16" font-size=".2mm" fill="#000000">3</text>
<text x="41.21" y="31.19" font-size=".2mm" fill="#000000">4</text>
<text x="46.41" y="28.69" font-size=".2mm" fill="#000000">5</text>
<text x="49.04" y="27.77" font-size=".2mm" fill="#000000">6</text>
<text x="54.60" y="31.69" font-size=".2mm" fill="#000000">7</text>
<text x="58.95" y="31.64" font-size=".2mm" fill="#000000">8</text>
<text x="62.70" y="30.71" font-size=".2mm" fill="#000000">9</text>
<text x="64.34" y="28.67" font-size=".2mm" fill="#000000">10</text>
<text x="67.97" y="23.85" font-size=".2mm" fill="#000000">11</text>
<text x="77.37" y="23.93" font-size=".2mm" fill="#000000">12</text>
<text x="82.74" y="21.23" font-size=".2mm" fill="#000000">13</text>
<text x="88.70" y="21.21" font-size=".2mm" fill="#000000">14</text>
<text x="97.10" y="19.73" font-size=".2mm" fill="#000000">15</text>
<text x="98.93" y="19.83" font-size=".2mm" fill="#000000">16</text>
</g>
<g>
</g>
</g>
</svg>