<?xml version="1.0" encoding="utf-8"?>
<!DOCTYPE svg PUBLIC "-//W3C//DTD SVG 1.1//EN" "http://www.w3.org/Graphics/SVG/1.1/DTD/svg11.dtd">
<svg version="1.1" id="Layer_1" xmlns="http://www.w3.org/2000/svg" xmlns:xlink="http://www.w3.org/1999/xlink" x="0px" y="0px" width="383mm" height="653mm" viewBox="0 0 383 653" style="background-color:#ffffff;enable-background:new 0 0 383 653;" xml:space="preserve">
<symbol id="airflow" viewBox="-12 -12 24 24">
<path d="M-4.38,10.73l4.2-3.84V3.55L-4.07,7.13l-.31-.29L-.18,3V-6.89a3.37,3.37,0,0,0-1.68.53l1.68-4.15L0-11l.21.51h0v0l1.65,4.1A3.26,3.26,0,0,0,.24-6.89v14l-.08,0L-4.07,11Z"/>
<rect fill="none" x="-12" y="-12" width="24" height="24"/>
</symbol>
<symbol id="anastomosis" viewBox="-12 -12 24 24">
<path d="M2.23-4.78l.37.24L5.22-2.78l-.47.57L2.49-3.7l-4.61,8-.24.44-.37-.34L-5.22,2.3l.55-.52,2.1,1.82L2-4.39Z"/>
<rect fill="none" x="-12" y="-12" width="24" height="24"/>
</symbol>
<symbol id="bivouac" viewBox="-12 -12 24 24">
<path d="M.25-7.66l.24.58L.54-7l3.88.48-3.31.91L6,6H8.35v.48l-16.7.07V6.05h2.64L0-7.08Zm0,1.32L-5.13,6H-4l2.07-5L.2-4l2.09,5L4.37,6H5.44Z"/>
<rect fill="none" x="-12" y="-12" width="24" height="24"/>
</symbol>
<symbol id="bones" viewBox="-12 -12 24 24">
<path d="M2.44,4.27l-.16,0H2.13a.22.22,0,0,1-.11,0l-.1-.06a.39.39,0,0,1-.09-.11l-.08-.13a1.51,1.51,0,0,1-.06-.15l-.07-.17s0-.11-.08-.19-.06-.16-.08-.21a4.75,4.75,0,0,0-.38-.71c-.18-.29-.43-.64-.74-1A11.15,11.15,0,0,0-.7.32,6.73,6.73,0,0,0-2-.64a4.12,4.12,0,0,0-1.44-.52A1.64,1.64,0,0,1-5-2.19.72.72,0,0,1-5-2.44a1,1,0,0,1,0-.29A.52.52,0,0,1-4.87-3a.54.54,0,0,1,.35-.15L-4-3.22l.46,0a.54.54,0,0,0,.27-.06A.52.52,0,0,0-3-3.56a.74.74,0,0,0,.13-.31.54.54,0,0,1,.15-.26.54.54,0,0,1,.3-.15.83.83,0,0,1,.47,0,1.11,1.11,0,0,1,.35.4A7.46,7.46,0,0,1-1-2.76q.18.42.33.72a3.22,3.22,0,0,0,.39.57L.1-1a4.77,4.77,0,0,0,.58.43c.28.18.51.33.69.43l1,.56a1.84,1.84,0,0,0,.39.23A5.29,5.29,0,0,1,3.22.9l.43.26a3.7,3.7,0,0,1,.46.3l.36.29a2.28,2.28,0,0,1,.31.32A1,1,0,0,1,5,2.4c.2.48,0,.78-.47.91h0a8.48,8.48,0,0,0-1.12.09,1,1,0,0,0-.42.44A1,1,0,0,1,2.44,4.27Z"/>
<rect fill="none" x="-12" y="-12" width="24" height="24"/>
</symbol>
<symbol id="calcite" viewBox="-12 -12 24 24">
<path d="M2.36-2.22l.05.46.34,3.91L2,2.22,1.65-1.26-2.52-.06l-.23-.7L1.89-2.08Z"/>
<rect fill="none" x="-12" y="-12" width="24" height="24"/>
</symbol>
<symbol id="cauliflower" viewBox="-12 -12 24 24">
<path d="M5.58,3.22v-3A2.12,2.12,0,0,0,6.92-.43a1.78,1.78,0,0,0,.55-1.32,1.92,1.92,0,0,0-.65-1.42,2.19,2.19,0,0,0-1.53-.59,2.21,2.21,0,0,0-1.54.59,1.78,1.78,0,0,0-.64,1.42A1.86,1.86,0,0,0,3.65-.43,2.12,2.12,0,0,0,5,.23v3H.26v-3A2.17,2.17,0,0,0,1.61-.43a1.81,1.81,0,0,0,.54-1.32,1.91,1.91,0,0,0-.64-1.42A2.21,2.21,0,0,0,0-3.76a2.21,2.21,0,0,0-1.54.59,1.82,1.82,0,0,0-.64,1.42A1.83,1.83,0,0,0-1.66-.43,2.12,2.12,0,0,0-.32.23v3H-5v-3A2.12,2.12,0,0,0-3.71-.43a1.78,1.78,0,0,0,.55-1.32,1.92,1.92,0,0,0-.65-1.42,2.19,2.19,0,0,0-1.53-.59,2.21,2.21,0,0,0-1.54.59,1.83,1.83,0,0,0-.65,1.42A1.87,1.87,0,0,0-7-.43,2.12,2.12,0,0,0-5.64.23v3H-8v.54H8V3.22Z"/>
<rect fill="none" x="-12" y="-12" width="24" height="24"/>
</symbol>
<symbol id="clay" viewBox="-12 -12 24 24">
<path d="M1.85-1.33a3,3,0,0,1,1.67.48,3.23,3.23,0,0,1,1,1l.29.51-1,.43a3.81,3.81,0,0,0-.23-.4A3.74,3.74,0,0,0,2.93,0,1.77,1.77,0,0,0,1.85-.32a2.57,2.57,0,0,0-1.1.15A.86.86,0,0,0,.51.14,2.23,2.23,0,0,1,0,.88a2.55,2.55,0,0,1-1.45.43,3.16,3.16,0,0,1-2.75-1,4.28,4.28,0,0,1-.37-.57,3.91,3.91,0,0,1-.21-.47l0-.16,1-.22a1.87,1.87,0,0,0,.45.79A2.12,2.12,0,0,0-1.51.33,1.82,1.82,0,0,0-.69.14l.21-.36A1.53,1.53,0,0,1,.17-1,3.76,3.76,0,0,1,1.85-1.33Z"/>
<rect fill="none" x="-12" y="-12" width="24" height="24"/>
</symbol>
<symbol id="crystals" viewBox="-12 -12 24 24">
<path d="M-2.94-5.38,0-.72,2.94-5.38,3.62-5,.68-.36H6.56V.36H.68L3.62,5l-.68.36L0,.72-2.94,5.38-3.62,5-.68.36H-6.56V-.36H-.68L-3.62-5Z"/>
<rect fill="none" x="-12" y="-12" width="24" height="24"/>
</symbol>
<symbol id="curtain" viewBox="-12 -12 24 24">
<path d="M3.57-6.69l.52.53L.39-3V-.33L.1-.26a3.79,3.79,0,0,0-1,.41c-.58.3-.87.65-.87,1v.07A1.61,1.61,0,0,0-.84,2.48a3.69,3.69,0,0,0,.45.24L0,2.86l.13.05L.39,3V6.12H-.39V3.51a7.65,7.65,0,0,1-.9-.46A2.19,2.19,0,0,1-2.54,1.28V1.23A2,2,0,0,1-1.31-.48,5.32,5.32,0,0,1-.39-.86V-3l-3.7-3.14.52-.53L0-3.67Z"/>
<rect fill="none" x="-12" y="-12" width="24" height="24"/>
</symbol>
<symbol id="disk" viewBox="-12 -12 24 24">
<path d="M-.09-4.19a2.43,2.43,0,0,1,1.7.64A2,2,0,0,1,2.35-2,2.09,2.09,0,0,1,1.81-.55,2.44,2.44,0,0,1,.35.23l2.18,3.6-.68.33L0,1.14-1.48,4.19l-.71-.29L-.41.25A2.53,2.53,0,0,1-1.9-.47a2,2,0,0,1-.63-1.41,2,2,0,0,1,.67-1.61,2.46,2.46,0,0,1,1.72-.7ZM1.05-3.06.56-3.49l-.69,0A1.72,1.72,0,0,0-1.29-3a1.51,1.51,0,0,0-.45,1.08,1.36,1.36,0,0,0,.51,1A1.68,1.68,0,0,0-.07-.44v0l0,0A1.7,1.7,0,0,0,1.11-.92,1.36,1.36,0,0,0,1.56-2,1.47,1.47,0,0,0,1.05-3.06Z"/>
<rect fill="none" x="-12" y="-12" width="24" height="24"/>
</symbol>
<symbol id="entrance" viewBox="-12 -12 24 24">
<path d="M4.46,9H-4.46L0-9Z"/>
<rect fill="none" x="-12" y="-12" width="24" height="24"/>
</symbol>
<symbol id="flowstone" viewBox="-12 -12 24 24">
<rect x="-6" y="-0.21" width="12" height="0.42"/>
<rect fill="none" x="-12" y="-12" width="24" height="24"/>
</symbol>
<symbol id="flutes" viewBox="-12 -12 24 24">
<path d="M-7-1H7v.72H3.87A4.7,4.7,0,0,1,2.16,1.5,4.2,4.2,0,0,1,0,2.13,3.94,3.94,0,0,1-2.19,1.5,4.18,4.18,0,0,1-3.76-.27H-7Zm4.17.72A3.15,3.15,0,0,0-1.65,1,3.21,3.21,0,0,0,0,1.41,3.49,3.49,0,0,0,1.6,1,3.68,3.68,0,0,0,3-.27Z"/>
<rect fill="none" x="-12" y="-12" width="24" height="24"/>
</symbol>
<symbol id="gradient" viewBox="-12 -12 24 24">
<path d="M2.58-3.83,0-10-2.58-3.83A4.74,4.74,0,0,1-.17-4.5V10H.25V-4.5A6.65,6.65,0,0,1,2.58-3.83Z"/>
<rect fill="none" x="-12" y="-12" width="24" height="24"/>
</symbol>
<symbol id="guano" viewBox="-12 -12 24 24">
<path d="M-3.24-3a2.15,2.15,0,0,1,1.57.55A3.93,3.93,0,0,1-.59.24a4.32,4.32,0,0,1,2.75-2.3,2.68,2.68,0,0,1,2.23.36A2.36,2.36,0,0,1,5.5.19l-.79,0a1.72,1.72,0,0,0-.79-1.37,1.94,1.94,0,0,0-1.55-.24A3.53,3.53,0,0,0,.48,0,6.63,6.63,0,0,0-.69,3l-.79-.09a10.72,10.72,0,0,0,0-3.16A3.21,3.21,0,0,0-2.22-2,1.44,1.44,0,0,0-3.37-2.3,3.45,3.45,0,0,0-5-1.54l-.5-.55a4.29,4.29,0,0,1,2-.91A.9.9,0,0,1-3.24-3Z"/>
<rect fill="none" x="-12" y="-12" width="24" height="24"/>
</symbol>
<symbol id="helictites" viewBox="-12 -12 24 24">
<path d="M-4.59-7.92h.79v7.7l3.41,0V-7.92H.39V-.17L4.2-.12h.39v8H3.8V.6L.39.55V7.92H-.39V.55L-4.2.5l-.39,0v-8.4Z"/>
<rect fill="none" x="-12" y="-12" width="24" height="24"/>
</symbol>
<symbol id="human" viewBox="-12 -12 24 24">
<path d="M-3.59-3.29A5.13,5.13,0,0,1,0-4.66,5.13,5.13,0,0,1,3.59-3.29,4.3,4.3,0,0,1,5.09,0a4.3,4.3,0,0,1-1.5,3.29A5.13,5.13,0,0,1,0,4.66,5.13,5.13,0,0,1-3.59,3.29,4.3,4.3,0,0,1-5.09,0,4.3,4.3,0,0,1-3.59-3.29Zm.28.77A3.68,3.68,0,0,0-4.3,0a3.62,3.62,0,0,0,1,2.57L-.5.05ZM0-3.94A4.42,4.42,0,0,0-2.75-3L.16-.36H4.28A3.62,3.62,0,0,0,2.91-2.9,4.38,4.38,0,0,0,0-3.94ZM.16.46-2.7,3.07A4.42,4.42,0,0,0,0,3.94a4.37,4.37,0,0,0,2.87-1A3.78,3.78,0,0,0,4.28.46Z"/>
<rect fill="none" x="-12" y="-12" width="24" height="24"/>
</symbol>
<symbol id="karren" viewBox="-12 -12 24 24">
<path d="M1-5.84h0a1.37,1.37,0,0,1,1.06.68A3.33,3.33,0,0,1,2.5-3.79,25.79,25.79,0,0,1,2.36,0a18.61,18.61,0,0,0-.08,3.72,2.68,2.68,0,0,0,.41,1.2,1.13,1.13,0,0,0,.79.5A.92.92,0,0,0,4,4.94a4.43,4.43,0,0,0,.47-1.22c.16-.64.36-1.86.59-3.66a26.71,26.71,0,0,1,.64-3.69,4.62,4.62,0,0,1,.57-1.29,1.34,1.34,0,0,1,1-.59h0A1.28,1.28,0,0,1,8.37-5a2.17,2.17,0,0,1,.39,1.15A19.91,19.91,0,0,1,8.54-.53a21.51,21.51,0,0,0-.2,3.64A2.64,2.64,0,0,0,9.45,5.36,1.91,1.91,0,0,0,10.88,5a3.84,3.84,0,0,0,.7-1l.42.2-.1.18-.12.21-.11.18L11.52,5a.94.94,0,0,1-.14.16c-.06.07-.13.12-.19.18a2.5,2.5,0,0,1-1.85.41H9.29l0,0A3.06,3.06,0,0,1,7.87,3.13a22.11,22.11,0,0,1,.2-3.7,18.17,18.17,0,0,0,.22-3.28A1.85,1.85,0,0,0,8-4.79a.77.77,0,0,0-.67-.3.93.93,0,0,0-.64.42,4.51,4.51,0,0,0-.51,1.15A26.26,26.26,0,0,0,5.54.1c-.24,1.83-.45,3.07-.61,3.72a5.38,5.38,0,0,1-.51,1.34,1.33,1.33,0,0,1-.89.68H3.47A1.58,1.58,0,0,1,2.3,5.16a3.29,3.29,0,0,1-.49-1.4A20.27,20.27,0,0,1,1.89,0,23.45,23.45,0,0,0,2-3.75a2.94,2.94,0,0,0-.32-1.19A.93.93,0,0,0,1-5.42,1.1,1.1,0,0,0,.19-5,3.69,3.69,0,0,0-.43-3.76,20.78,20.78,0,0,0-1.07.07c-.2,2-.37,3.32-.49,3.86A4.48,4.48,0,0,1-2,5.26,1.06,1.06,0,0,1-3,5.81h0a1.9,1.9,0,0,1-1.29-.67,2.7,2.7,0,0,1-.58-1.31,14.92,14.92,0,0,1,0-3.6q0-.12.06-.54c0-.28,0-.47,0-.57s0-.28,0-.52,0-.42,0-.55,0-.28,0-.47,0-.36,0-.51,0-.29,0-.43A3.09,3.09,0,0,0-5-4.62a1.19,1.19,0,0,0-.67-.6,1.5,1.5,0,0,0-1.2.9A7,7,0,0,0-7.41-2.1c0,.39-.1,1-.14,1.76s-.11,1.47-.18,2.08A9.61,9.61,0,0,1-8,3.32h0l0,0A2.81,2.81,0,0,1-9.2,4.62a1.82,1.82,0,0,1-1.35.15A1.94,1.94,0,0,1-11.61,4,2.39,2.39,0,0,1-12,2.56l.47,0a1.92,1.92,0,0,0,.31,1.16,1.47,1.47,0,0,0,.81.62,1.3,1.3,0,0,0,1-.11A2.32,2.32,0,0,0-8.5,3.18a7.53,7.53,0,0,0,.29-1.5Q-8.1.8-8-.36c0-.78.1-1.37.16-1.78A7.23,7.23,0,0,1-7.28-4.5,1.93,1.93,0,0,1-5.65-5.66h.05l0,0a1.59,1.59,0,0,1,1,.84,3.47,3.47,0,0,1,.34,1.41,4.91,4.91,0,0,1,0,.57v.54c0,.15,0,.37,0,.66s0,.47,0,.58,0,.33-.06.68,0,.56-.06.63a14.78,14.78,0,0,0,0,3.49,2.58,2.58,0,0,0,.5,1.13,1.57,1.57,0,0,0,1,.5A.61.61,0,0,0-2.44,5,3.89,3.89,0,0,0-2,3.85C-1.9,3.31-1.74,2-1.53,0A20.65,20.65,0,0,1-.86-3.89,3.89,3.89,0,0,1-.18-5.26,1.58,1.58,0,0,1,1-5.84Z"/>
<rect fill="none" x="-12" y="-12" width="24" height="24"/>
</symbol>
<symbol id="moonmilk" viewBox="-12 -12 24 24">
<path d="M-4.78-3.06a3.39,3.39,0,0,1,1.5.34,2.48,2.48,0,0,1,1.1,1,3.74,3.74,0,0,1,1.62-.8,3.52,3.52,0,0,1,1.71,0,2.9,2.9,0,0,1,1.39.77A2.49,2.49,0,0,1,3.25-.37,4,4,0,0,1,5-.76a3.58,3.58,0,0,1,1.6.36A2.84,2.84,0,0,1,7.88.92a2.32,2.32,0,0,1,0,1.88.34.34,0,0,1-.37.26A.36.36,0,0,1,7.25,3a.32.32,0,0,1-.12-.25.21.21,0,0,1,0-.12,2,2,0,0,0,0-1.43,2,2,0,0,0-1-.9A2.81,2.81,0,0,0,4.68,0,2.78,2.78,0,0,0,3.12.56L2.46.25A1.7,1.7,0,0,0,2.15-1.1,2.15,2.15,0,0,0,1-1.81a2.85,2.85,0,0,0-1.58.06A3,3,0,0,0-2-.83l-.71-.12A1.74,1.74,0,0,0-3.55-2a2.36,2.36,0,0,0-1.39-.27,3.08,3.08,0,0,0-1.45.53A2.33,2.33,0,0,0-7.32-.56a.35.35,0,0,1-.37.24A.39.39,0,0,1-8-.42a.33.33,0,0,1-.1-.26v-.1A3,3,0,0,1-6.89-2.35,4,4,0,0,1-5-3Z"/>
<rect fill="none" x="-12" y="-12" width="24" height="24"/>
</symbol>
<symbol id="narrow" viewBox="-12 -12 24 24">
<path d="M-1.5,5V-5h0.64V5H-1.5z"/>
<path d="M0.86,5V-5H1.5V5H0.86z"/>
<rect fill="none" x="-12" y="-12" width="24" height="24"/>
</symbol>
<symbol id="paleoflow" viewBox="-12 -12 24 24">
<path d="M.38-12V.17A1.9,1.9,0,0,0,1,0,1.57,1.57,0,0,0,1.7-.72a1.86,1.86,0,0,0,.23-1c0-.09,0-.14.08-.16a.92.92,0,0,1,.24,0,.52.52,0,0,0,.25,0h.08A2.48,2.48,0,0,1,2,0,2.5,2.5,0,0,1,.38.77V7.21H2.09L0,12-1.8,7.23c.07,0,.59,0,1.53,0V.77A3,3,0,0,1-1.35.43a2.16,2.16,0,0,1-1-1,2.38,2.38,0,0,1-.24-1.33l.67,0a2,2,0,0,0,.15,1,1.73,1.73,0,0,0,.59.67A2.14,2.14,0,0,0-.27.16V-12Z"/>
<rect fill="none" x="-12" y="-12" width="24" height="24"/>
</symbol>
<symbol id="rain" viewBox="-12 -12 24 24">
<path d="M-4.14-6.34h0.71v4.69h-0.71V-6.34z"/>
<path d="M-0.35-6.34h0.71v4.69h-0.71V-6.34z"/>
<path d="M3.43-6.34h0.71v4.69H3.43V-6.34z"/>
<path d="M-4.14,1.65h0.71v4.69h-0.71V1.65z"/>
<path d="M-0.35,1.65h0.71v4.69h-0.71V1.65z"/>
<path d="M3.43,1.65h0.71v4.69H3.43V1.65z"/>
<rect fill="none" x="-12" y="-12" width="24" height="24"/>
</symbol>
<symbol id="rats" viewBox="-12 -12 24 24">
<path d="M8.78-2.32,7-2.27c-.51-.17-.65-.56-1.46-.45l-.25.45C3.59-2.75,2.59-3.66.56-3.62l-1.35.3A4.89,4.89,0,0,0-4.24,1.57c-.68.6-2.58.86-3.39.94a6.84,6.84,0,0,0-1.62.39,4.91,4.91,0,0,0-1,.52A1.75,1.75,0,0,0-11,4.61a1.16,1.16,0,0,0,.59,1.48,1.3,1.3,0,0,1,.14.12c.16-.52-.35-.92-.2-1.42a3.35,3.35,0,0,1,.27-.45,3.18,3.18,0,0,1,1.79-1c.63-.12,1.27-.22,1.91-.3.48-.07,1,0,1.4-.12A6.94,6.94,0,0,1-4,2.82,30.64,30.64,0,0,0,.41,2.69l2.16.15c.1-.09,0,0,.1-.15a.87.87,0,0,0-.9-.55c.86-1,2.27-.37,3.1-.05.5.19,1,0,1.25.4.11-.1.1-.07.15-.25.3,0,.31.07.6.15-.06-.49-.34-.64-1-.6a.78.78,0,0,1,0-.55C6.3.56,7.29.73,8.13.43a13.78,13.78,0,0,0,2.15-.9l.6-.85v-.2A16.9,16.9,0,0,0,8.78-2.32Z"/>
<rect fill="none" x="-12" y="-12" width="24" height="24"/>
</symbol>
<symbol id="sand" viewBox="-12 -12 24 24">
<path d="M-1.58,0.83c0.23,0.2,0.35,0.44,0.36,0.73c0.01,0.29-0.08,0.54-0.28,0.75c-0.2,0.21-0.46,0.32-0.78,0.33c-0.32,0.01-0.6-0.08-0.83-0.26C-3.36,2.19-3.49,1.95-3.5,1.67C-3.51,1.38-3.41,1.12-3.2,0.9c0.21-0.22,0.48-0.34,0.8-0.35C-2.08,0.54-1.81,0.64-1.58,0.83z"/>
<path d="M0.08-2.36c0.23,0.2,0.35,0.44,0.36,0.73c0.01,0.29-0.08,0.54-0.28,0.75c-0.2,0.21-0.46,0.32-0.78,0.33c-0.32,0.01-0.59-0.07-0.83-0.26s-0.37-0.42-0.38-0.71c-0.01-0.29,0.09-0.54,0.3-0.76c0.21-0.22,0.48-0.33,0.8-0.35C-0.42-2.65-0.14-2.56,0.08-2.36z"/>
<path d="M3.12,0.55c0.23,0.2,0.35,0.43,0.38,0.71c0.02,0.28-0.07,0.53-0.28,0.75C3,2.23,2.73,2.35,2.42,2.36C2.1,2.37,1.82,2.28,1.58,2.08C1.34,1.88,1.22,1.64,1.2,1.35c-0.01-0.29,0.09-0.54,0.3-0.75C1.72,0.4,1.99,0.29,2.3,0.28S2.89,0.36,3.12,0.55z"/>
<rect fill="none" x="-12" y="-12" width="24" height="24"/>
</symbol>
<symbol  id="scallops" viewBox="-12 -12 24 24">
<path d="M.05-3.74l.21,0A2.35,2.35,0,0,1,1.74-3a2,2,0,0,1,.59,1.55v0l0,0A9.59,9.59,0,0,1-.08,3.27l-.39.47-.27-.55A14.26,14.26,0,0,1-2.33-1.89v-.05l0-.05A2,2,0,0,1-1.44-3.3,2.42,2.42,0,0,1,.05-3.74ZM-.11-3A1.44,1.44,0,0,0-1.55-1.89,13.06,13.06,0,0,0-.29,2.33,8.6,8.6,0,0,0,1.55-1.54a1.41,1.41,0,0,0-.38-1A1.62,1.62,0,0,0,.18-3Z"/>
<rect fill="none" x="-12" y="-12" width="24" height="24"/>
</symbol>
<symbol  id="sink" viewBox="-12 -12 24 24">
<path d="M.72,9.41H.9c1.94,0,3.26-.54,3.94-1.51a3.61,3.61,0,0,0,.33-.69,2,2,0,0,0,.11-.54V6.46l.69,0a2.8,2.8,0,0,1-.58,1.78C4.58,9.39,3.1,10,.93,10H-.93q-3.25,0-4.46-1.8a2.74,2.74,0,0,1-.43-.83A2.37,2.37,0,0,1-6,6.67V6.43l.68,0A2.27,2.27,0,0,0-4.84,7.9c.68,1,2,1.47,3.93,1.48l.5,0ZM-1.46-10a.68.68,0,0,0,.16.41A2.77,2.77,0,0,0-.51-9l0,0a3.63,3.63,0,0,1,1,.7,1.15,1.15,0,0,1,.34.88c0,.58-.53,1.14-1.49,1.68-.68.42-1,.79-1,1.11s.3.61.84,1h0Q.61-2.86.46-1.78a3.51,3.51,0,0,1-1.55,2,.61.61,0,0,0-.26.41,1.67,1.67,0,0,0,.1.51,5.3,5.3,0,0,1,.32,1L.56,1.9.46,8.06-3.4,2.54l1.73-.28A6.16,6.16,0,0,0-2,1.39,1.7,1.7,0,0,1-2.09.58a1.21,1.21,0,0,1,.53-.82h0v0C-.75-.86-.33-1.38-.28-1.85s-.23-.87-.91-1.27h0C-2-3.6-2.37-4.1-2.4-4.61S-2-5.74-1.09-6.29C-.34-6.72.06-7.1.09-7.44a.67.67,0,0,0-.18-.43,3.17,3.17,0,0,0-.79-.58,2.93,2.93,0,0,1-1-.67A1.16,1.16,0,0,1-2.17-10Z"/>
<rect fill="none" x="-12" y="-12" width="24" height="24"/>
</symbol>
<symbol  id="spring" viewBox="-12 -12 24 24">
<path d="M-1.34-9.86,2.52-4.34.78-4.06a8,8,0,0,0,.29.87,1.4,1.4,0,0,1,.13.79,1.3,1.3,0,0,1-.52.84l0,0v0C-.13-.95-.55-.42-.61,0S-.37.91.31,1.3l0,0c.75.46,1.14,1,1.18,1.46S1.12,3.92.21,4.46C-.54,4.9-.94,5.29-1,5.64a.74.74,0,0,0,.18.43A3.2,3.2,0,0,0,0,6.62a3,3,0,0,1,1,.7,1.14,1.14,0,0,1,.31.86A1.74,1.74,0,0,1,.71,9.26H.92c1.92,0,3.22-.52,3.9-1.51a2.05,2.05,0,0,0,.35-.67,2.59,2.59,0,0,0,.1-.55l0-.19.65,0a2.84,2.84,0,0,1-.55,1.8C4.58,9.26,3.08,9.85.92,9.86H-.92c-2.17,0-3.66-.6-4.49-1.77a3.65,3.65,0,0,1-.4-.85A2.43,2.43,0,0,1-6,6.53V6.29l.66,0a2.08,2.08,0,0,0,.47,1.41c.68,1,2,1.5,3.91,1.51H-.4c.62-.43.94-.8,1-1.1a.76.76,0,0,0-.16-.43,3.25,3.25,0,0,0-.79-.51v0a3.8,3.8,0,0,1-1-.7,1.15,1.15,0,0,1-.34-.91q.06-.84,1.5-1.68c.68-.4,1-.77,1-1.1S.49,2.21,0,1.87c0,0,0,0,0,0C-1,1.32-1.44.69-1.34,0a3.58,3.58,0,0,1,1.55-2,.54.54,0,0,0,.23-.38A1.28,1.28,0,0,0,.37-3a4.57,4.57,0,0,1-.32-1l-1.49.24Z"/>
<rect fill="none" x="-12" y="-12" width="24" height="24"/>
</symbol>
<symbol  id="stalactite" viewBox="-12 -12 24 24">
<path d="M3.57-6.69l.52.53L.39-3V6.12H-.39V-3l-3.7-3.14.52-.53L0-3.67Z"/>
<rect fill="none" x="-12" y="-12" width="24" height="24"/>
</symbol>
<symbol  id="stalagmite" viewBox="-12 -12 24 24">
<path d="M.38-6.42V2.75L4.11,5.89l-.56.53L0,3.4l-3.57,3-.53-.53,3.7-3.14V-6.42Z"/>
<rect fill="none" x="-12" y="-12" width="24" height="24"/>
</symbol>
<symbol  id="stalagnate" viewBox="-12 -12 24 24">
<path d="M3.55-8.46l.56.53L.38-4.78v9L4.11,7.36l-.56.53L0,4.86l-3.57,3-.53-.53,3.7-3.14v-9l-3.7-3.15.53-.53L0-5.43Z"/>
<rect fill="none" x="-12" y="-12" width="24" height="24"/>
</symbol>
<symbol  id="straws" viewBox="-12 -12 24 24">
<path d="M-10.89-2.76H10.89V-2H9.63V.46H8.84V-2H8.29v5.6H7.5V-2H5.56V.7H4.77V-2H2.07V2.38H1.29V-2H-.1v3H-.89V-2H-3.2V4.11H-4V-2H-6.22L-6.16.75l-.79,0L-7-2H-8.32V2.33H-9.1V-2h-1.79Z"/>
<rect fill="none" x="-12" y="-12" width="24" height="24"/>
</symbol>
<symbol  id="water" viewBox="-12 -12 24 24">
<path d="M-1.72-9.86,2.11-4.32.38-4.06a6.49,6.49,0,0,0,.29.89,1.5,1.5,0,0,1,.13.79,1.2,1.2,0,0,1-.5.82h0l0,0C-.54-.94-1-.42-1,.05s.24.89.92,1.27h0c.77.48,1.17,1,1.19,1.49S.71,3.94-.2,4.49c-.75.43-1.13.81-1.15,1.15a.51.51,0,0,0,.18.43,2.66,2.66,0,0,0,.76.58,2.93,2.93,0,0,1,1,.67,1.16,1.16,0,0,1,.29.89C.84,8.75.42,9.3-.41,9.86l-.44-.55c.66-.45,1-.83,1-1.15A.47.47,0,0,0,0,7.75a2.84,2.84,0,0,0-.78-.53h0a3.87,3.87,0,0,1-1-.69,1.24,1.24,0,0,1-.34-.91c0-.58.54-1.14,1.52-1.68.66-.42,1-.79,1-1.11s-.3-.61-.84-1h0Q-1.9,1.06-1.74,0a3.44,3.44,0,0,1,1.54-2,.67.67,0,0,0,.27-.41A1.11,1.11,0,0,0,0-3a4.33,4.33,0,0,1-.31-1l-1.5.24Z"/>
<rect fill="none" x="-12" y="-12" width="24" height="24"/>
</symbol><symbol  id="tree" viewBox="-12 -12 24 24">
<path d="M7.4-5.04A4.271,4.271,0,0,0,7.7-6.627a4.3,4.3,0,0,0-4.3-4.3A4.279,4.279,0,0,0,.636-9.914,4.293,4.293,0,0,0-3.045-12a4.3,4.3,0,0,0-4.3,4.3,4.27,4.27,0,0,0,.421,1.845,4.3,4.3,0,0,0-3.645,4.244,4.3,4.3,0,0,0,4.3,4.3A4.282,4.282,0,0,0-3.946,2L-1.175,5.23h0L-1.612,12H.982L.757,6.376,4.119,2.827v0a4.272,4.272,0,0,0,2.15.58,4.3,4.3,0,0,0,4.3-4.3A4.3,4.3,0,0,0,7.4-5.04ZM-3.346,1.538h0A4.346,4.346,0,0,0-2.7.788a4.266,4.266,0,0,0,1.765.753l-.135,2.087ZM.69,4.7.563,1.544A4.258,4.258,0,0,0,2.321.805,4.3,4.3,0,0,0,3.378,2.279Z"/>
<rect fill="none" x="-12" y="-12" width="24" height="24"/>
</symbol><g>
<desc></desc>
<g>
<line fill="none" stroke="#dddddd" stroke-width="0.1mm" x1="0.00" y1="22.00" x2="383.00" y2="22.00" />
<text x="380.20" y="21.80" font-size=".2mm" fill="#000000">0m</text>
<line fill="none" stroke="#dddddd" stroke-width="0.1mm" x1="0.00" y1="72.00" x2="383.00" y2="72.00" />
<text x="380.20" y="71.80" font-size=".2mm" fill="#000000">-5m</text>
<line fill="none" stroke="#dddddd" stroke-width="0.1mm" x1="0.00" y1="122.00" x2="383.00" y2="122.00" />
<text x="380.20" y="121.80" font-size=".2mm" fill="#000000">-10m</text>
<line fill="none" stroke="#dddddd" stroke-width="0.1mm" x1="0.00" y1="172.00" x2="383.00" y2="172.00" />
<text x="380.20" y="171.80" font-size=".2mm" fill="#000000">-15m</text>
<line fill="none" stroke="#dddddd" stroke-width="0.1mm" x1="0.00" y1="222.00" x2="383.00" y2="222.00" />
<text x="380.20" y="221.80" font-size=".2mm" fill="#000000">-20m</text>
<line fill="none" stroke="#dddddd" stroke-width="0.1mm" x1="0.00" y1="272.00" x2="383.00" y2="272.00" />
<text x="380.20" y="271.80" font-size=".2mm" fill="#000000">-25m</text>
<line fill="none" stroke="#dddddd" stroke-width="0.1mm" x1="0.00" y1="322.00" x2="383.00" y2="322.00" />
<text x="380.20" y="321.80" font-size=".2mm" fill="#000000">-30m</text>
<line fill="none" stroke="#dddddd" stroke-width="0.1mm" x1="0.00" y1="372.00" x2="383.00" y2="372.00" />
<text x="380.20" y="371.80" font-size=".2mm" fill="#000000">-35m</text>
<line fill="none" stroke="#dddddd" stroke-width="0.1mm" x1="0.00" y1="422.00" x2="383.00" y2="422.00" />
<text x="380.20" y="421.80" font-size=".2mm" fill="#000000">-40m</text>
<line fill="none" stroke="#dddddd" stroke-width="0.1mm" x1="0.00" y1="472.00" x2="383.00" y2="472.00" />
<text x="380.20" y="471.80" font-size=".2mm" fill="#000000">-45m</text>
<line fill="none" stroke="#dddddd" stroke-width="0.1mm" x1="0.00" y1="522.00" x2="383.00" y2="522.00" />
<text x="380.20" y="521.80" font-size=".2mm" fill="#000000">-50m</text>
<line fill="none" stroke="#dddddd" stroke-width="0.1mm" x1="0.00" y1="572.00" x2="383.00" y2="572.00" />
<text x="380.20" y="571.80" font-size=".2mm" fill="#000000">-55m</text>
<line fill="none" stroke="#dddddd" stroke-width="0.1mm" x1="0.00" y1="622.00" x2="383.00" y2="622.00" />
<text x="380.20" y="621.80" font-size=".2mm" fill="#000000">-60m</text>
</g>
<g>
<path fill="none" stroke="#000000" stroke-width="0.06mm" d="M62.474777,52.891647 L62.47678,52.804474" /><path fill="none" stroke="#000000" stroke-width="0.06mm" d="M62.733932,52.39157 L61.60941,53.52174" /><path fill="none" stroke="#000000" stroke-width="0.06mm" d="M161.50302,426.7963 L161.5062,426.77597" /><path fill="none" stroke="#000000" stroke-width="0.02mm" d="M154.92159,373.0387 L155.53577,372.92438" /><path fill="none" stroke="#000000" stroke-width="0.02mm" d="M156.14362,373.29724 L156.47578,373.5354" /><path fill="none" stroke="#000000" stroke-width="0.06mm" d="M123.77796,232.32101 C125.28942,235.20273 126.312874,238.39886 128.31232,240.96619 C134.57375,249.0059 141.264,256.74042 148.43488,263.9807 C151.67184,267.24902 155.83963,269.44672 159.40198,272.357 C161.00883,273.6697 165.09836,279.5984 165.35999,280.0266 C187.40999,316.1148 132.86447,233.55357 185.12622,315.30362 C188.39105,320.4106 192.7476,324.7429 196.22838,329.7052 C200.26321,335.4574 203.53468,341.7266 207.65338,347.41904 C209.41205,349.84973 211.9477,351.63364 213.80122,353.9928 C215.87036,356.6264 217.40533,359.64435 219.38242,362.34778 C220.22212,363.496 221.89212,364.83176 223.17322,365.52066 C224.44789,366.2061 225.85753,366.63275 227.09616,367.38135 C228.13837,368.0113 229.06902,368.817 229.97446,369.6313 C235.25537,374.38083 235.8137,382.18918 240.25027,387.64862 C241.02377,388.6005 243.06293,389.59692 243.70906,389.99115 L243.70906,389.99115" /><path fill="none" stroke="#000000" stroke-width="0.06mm" d="M156.38562,425.0408 C158.7641,424.57043 161.12059,423.97046 163.52107,423.62967 C164.43019,423.5006 165.35765,423.62064 166.27573,423.6368 C170.9523,423.71936 175.63232,423.71033 180.30466,423.9259 C181.34978,423.97412 185.35605,425.19495 185.88472,425.30328 C189.57353,426.0593 193.3324,426.4734 196.99353,427.35367 C201.86375,428.52466 209.12541,430.2179 211.6369,435.466 C213.10652,438.53702 212.51193,442.1221 212.10516,445.34088 L212.10516,445.34088" /><path fill="none" stroke="#924216" stroke-width="0.06mm" d="M213.97464,445.0704 C211.97041,451.633 213.19968,458.6609 211.97247,465.37024 C211.34778,468.78564 210.53676,472.17395 209.51709,475.4929 C208.94374,477.35904 208.03967,479.109 207.20883,480.8756 C206.35071,482.70023 206.04816,482.35724 205.66052,484.0091 C204.83478,487.52795 206.14032,488.36508 206.63489,492.35736 C207.23143,497.17255 205.33249,496.27615 205.57475,502.22305 C205.75058,506.53995 206.52232,510.81992 207.31293,515.0675 C207.96304,518.5602 209.37419,523.1637 211.38594,526.3008 C220.56528,540.2702 229.74461,554.2396 238.92393,568.209 C239.8695,569.8576 240.7549,571.5422 241.76067,573.15466 C243.59915,576.1023 248.23584,579.1334 249.99686,580.6742 C250.82925,581.4024 251.25427,582.74207 251.66986,583.6903 L251.66986,583.6903" /><path fill="none" stroke="#924216" stroke-width="0.06mm" d="M262.80402,429.1252 C262.96625,430.251 262.9395,430.7891 263.377,431.75674 C267.0876,439.9633 272.41345,450.11496 274.98547,459.24115 C277.08856,466.70343 276.77582,471.53076 280.11758,477.8682 C282.34338,482.0893 285.15594,485.98468 287.3577,490.21838 C292.0035,499.1518 287.8994,493.8906 291.40295,499.2369 C292.9279,501.5639 297.07706,502.88605 298.8581,503.93698 C299.49924,504.31534 300.06995,504.80942 300.61172,505.31998 C301.4199,506.08148 302.1341,506.93698 302.8975,507.74338 C303.3103,508.17947 303.7704,508.57437 304.14026,509.04736 C304.56247,509.58725 304.90045,510.18823 305.26392,510.7693 C306.34296,512.4942 307.36368,514.2556 308.46756,515.9647 C308.75348,516.40735 309.19922,516.91895 309.66788,517.2142 C310.26413,517.5897 310.95157,517.74536 311.4789,518.2323 C312.59967,519.2672 312.85028,520.67834 312.95795,522.1665 C313.02368,523.0748 313.10583,523.9962 312.98196,524.8984 C312.10864,531.25903 310.49387,531.4983 307.54694,537.97284 C306.0463,541.26996 304.71365,544.64575 303.50125,548.0593 C301.97485,552.357 300.80472,556.77435 299.3358,561.09204 C299.14444,561.6544 298.9048,562.2215 298.5271,562.6799 C297.025,564.50354 295.33823,566.1669 293.72995,567.8976 C292.70288,569.0028 291.6298,570.06537 290.6212,571.18756 C290.4358,571.39386 289.99292,572.10754 289.94897,572.42633 C289.432,576.1754 289.08115,579.9462 288.5592,583.6947 C288.45367,584.45276 288.51794,585.31866 288.0677,585.9377 C287.64163,586.52344 286.799,586.63696 286.16467,586.98663 L286.16467,586.98663" /><path fill="none" stroke="#924216" stroke-width="0.06mm" d="M251.689,582.2146 C252.43468,582.7993 253.22623,583.3297 253.92604,583.9686 C255.59854,585.49554 257.50726,586.8432 258.79752,588.70435 C261.76184,592.9804 263.89798,597.7767 266.58636,602.2314 C266.91956,602.7835 267.3824,603.2515 267.84668,603.6991 C268.46326,604.29346 269.1609,604.7975 269.81796,605.3466 L269.81796,605.3466" /><path fill="none" stroke="#924216" stroke-width="0.06mm" d="M286.91208,587.50415 C285.9085,588.9946 286.41583,588.0221 285.81976,590.6089 L285.81976,590.6089" /><path fill="none" stroke="#924216" stroke-width="0.06mm" d="M302.05295,726.5569 C302.16794,725.0879 301.74704,725.4036 302.91498,725.234 L302.91498,725.234" /><path fill="none" stroke="#924216" stroke-width="0.06mm" d="M268.15045,604.89636 C269.05923,604.7384 269.61337,604.80865 270.42267,605.10254 C270.8922,605.2731 271.34216,605.5109 271.8305,605.6162 C274.25543,606.13904 276.69824,606.57965 279.14587,606.98346 C279.46826,607.0366 279.7995,606.9922 280.1262,606.9846 C281.9498,606.9423 283.77237,606.81976 285.5964,606.8339 C285.9972,606.8371 286.38733,606.96454 286.78162,607.0363 C287.33752,607.13745 287.88736,607.2743 288.4469,607.35266 C289.32095,607.47516 291.89798,607.485 293.28015,608.0924 C294.9299,608.8175 297.82358,611.9226 297.9615,612.0312 C299.3275,612.96936 300.6935,613.90765 302.0595,614.8458 C302.81714,615.29004 303.641,615.63684 304.33237,616.1784 C305.40375,617.0176 306.23856,618.13416 307.3171,618.96405 C308.3394,619.7508 309.56396,620.2433 310.60486,621.00525 C322.41367,629.6488 307.27045,619.61273 319.3497,627.14105 C319.54797,627.2646 319.71735,627.4329 319.8736,627.6066 C320.50302,628.3064 321.0459,629.08356 321.70303,629.7573 C322.3192,630.38916 323.29767,631.0156 324.09753,631.401 C325.28064,631.971 326.6413,631.8882 327.90836,632.00934 C330.1178,632.2207 332.3149,632.583 334.5317,632.6929 C336.8223,632.80646 337.23154,632.2324 339.03015,632.6565 C340.25415,632.9451 341.45572,633.3218 342.6685,633.6545 C344.4937,633.99316 346.3267,634.29236 348.1441,634.67053 C348.75574,634.7978 349.31174,635.29663 349.85138,635.5253 C350.319,635.7234 350.8082,635.8728 351.30222,635.9908 C351.68524,636.0823 352.07904,636.1399 352.4727,636.1513 C354.49927,636.21014 356.5358,636.01587 358.5547,636.20123 C360.10788,636.34393 361.62656,636.75616 363.14056,637.131 C366.95117,638.07446 364.19113,637.8951 366.69205,637.9535 L366.69205,637.9535" /><path fill="none" stroke="#924216" stroke-width="0.06mm" d="M289.31537,582.52625 C289.08884,583.34973 289.00027,584.0763 289.24667,584.8972 C290.3568,588.59595 298.03574,589.06586 300.0182,589.6153 C300.81284,589.8356 301.5488,590.2339 302.28647,590.60236 C303.33655,591.1269 303.44324,591.4805 304.4224,591.71075 C305.88477,592.05457 307.36728,592.3087 308.82922,592.6544 C308.99164,592.6928 309.14172,592.7759 309.28552,592.8607 C309.43094,592.9464 309.55826,593.05975 309.69183,593.16296 C310.24316,593.58923 310.76288,594.0586 311.34015,594.4489 C311.79214,594.7546 312.27798,595.01 312.77054,595.24475 C313.03696,595.3717 313.3268,595.44244 313.60867,595.5299 C314.60126,595.8381 314.8969,595.8 315.82474,596.4196 C332.44675,608.16003 314.02643,595.458 323.39673,601.337 C324.869,602.2607 325.3979,603.0569 326.77234,603.55896 C327.79648,603.93304 328.91394,603.61786 329.95654,603.62213 C330.91946,603.6261 332.09003,603.9936 332.86218,604.5725 C334.50818,605.8065 335.37857,606.9607 336.65765,608.6911 C337.4704,609.7905 338.24728,610.9181 338.97336,612.07666 C339.58618,613.0545 339.6535,614.2883 340.3864,615.2096 C341.7331,616.9024 341.09082,615.81726 342.80624,617.42114 C343.2467,617.83295 343.59326,618.3365 344.0208,618.7616 C344.4468,619.1852 344.8473,619.2816 345.343,619.6348 C345.96472,620.07776 346.2446,620.7595 346.75482,621.3292 C347.02234,621.6279 347.33124,621.8905 347.65424,622.12823 C349.22604,623.28485 350.45264,623.305 352.33594,623.8079 C352.98615,623.98157 353.51834,624.6577 354.0556,624.98535 C355.08527,625.6132 356.21292,625.9947 357.39807,626.22705 C358.2019,626.38464 359.0297,626.3834 359.83975,626.50525 C360.24628,626.56635 360.63394,626.7354 361.0431,626.77515 C361.82068,626.8505 364.0719,626.283 364.46564,627.63544 C364.5814,628.03284 364.6618,628.4398 364.75992,628.842 L364.75992,628.842" /><path fill="none" stroke="#000000" stroke-width="0.06mm" d="M124.439606,232.45581 C119.77893,204.14499 120.07384,210.30278 119.700134,169.25302 C119.6457,163.27377 120.94651,157.34193 121.01582,151.36282 C121.198074,135.64078 121.490005,119.88581 120.454285,104.196846 C120.03973,97.91731 118.06204,91.837944 116.68088,85.69819 C115.711105,81.387184 110.99082,78.88593 108.128044,76.069275 C106.14801,74.12115 104.23269,71.11215 103.916885,68.2767 C102.805214,58.29562 101.819496,48.29742 101.092896,38.28094 C100.97454,36.64938 101.18992,35.006233 101.38561,33.382133 C101.75617,30.306921 102.814156,28.222616 101.652885,25.304441 C99.46065,19.79557 94.373604,14.163558 91.114136,10.272714 C88.77687,7.4827023 85.86329,5.203951 83.579865,2.3696976 C81.86577,0.24210739 80.64278,-2.238186 79.177086,-4.543951 C72.26561,-15.416851 65.136284,-26.154465 58.44838,-37.16629 C52.555992,-46.868263 57.490345,-41.871162 53.955177,-45.259254 L53.955177,-45.259254" /><path fill="none" stroke="#000000" stroke-width="0.06mm" d="M23.249603,240.94702 C24.100996,250.7142 23.13485,240.51967 25.39714,257.89514 C25.746504,260.57843 25.756618,263.31348 26.317564,265.9606 C26.887634,268.65082 28.025307,271.19016 28.775074,273.83594 C28.892475,274.25024 28.946527,274.691 28.913273,275.12033 C28.26282,283.51788 27.363012,280.7719 28.666348,291.3289 C29.005299,294.0744 31.961561,300.32324 32.62547,302.3435 C33.244423,304.227 33.472866,306.29468 33.34279,308.27255 C33.20358,310.38928 32.536297,311.9757 33.363323,313.8994 C33.770386,314.84625 34.325127,315.8363 35.066193,316.57483 C37.95574,319.45444 45.409695,325.13837 47.356358,330.30957 C48.302006,332.8216 48.175953,334.5374 48.238857,337.49146 C48.320644,341.3323 48.11266,345.17975 48.309338,349.01642 C48.66614,355.97678 54.63864,364.4331 57.49922,369.38397 C58.611397,371.3088 61.077682,372.78192 62.847786,373.83002 C63.828987,374.411 65.00856,374.34814 65.957924,374.97452 C68.40622,376.58987 68.14572,380.03888 69.96093,382.1028 C70.423355,382.6286 70.9289,383.12106 71.47679,383.55707 C73.1885,384.9193 74.4185,385.2161 75.36951,387.09946 C76.007935,388.3638 75.86639,389.55322 76.06795,390.91696 C76.30738,392.53696 77.20741,394.1024 78.28349,395.30536 C79.88732,397.09824 81.53072,398.859 83.25341,400.53802 C84.1539,401.41565 85.6742,401.75082 86.30373,402.904 C87.33346,404.79025 85.96932,407.19147 85.62683,409.01202 C85.49602,409.70737 84.85948,412.37137 85.199684,413.80725 C85.771065,416.2189 89.54083,418.56293 90.973434,419.5849 C93.287,421.23535 96.669754,421.28485 99.30603,421.32797 C103.17472,421.3912 107.044205,421.21356 110.91332,421.23996 C112.99174,421.25412 115.06788,421.5192 117.14519,421.44965 C118.50165,421.40427 119.84999,421.17117 121.1791,420.8963 C124.157524,420.28033 125.750175,419.32468 128.48004,419.35745 C129.09732,419.3648 129.71513,419.44214 130.32057,419.56256 C133.69861,420.23456 137.08847,420.86957 140.42267,421.73312 C141.70988,422.0665 142.85733,422.84833 144.15346,423.14526 C148.61938,424.16843 153.15923,424.8369 157.66211,425.6828 L157.66211,425.6828" /><path fill="none" stroke="#000000" stroke-width="0.02mm" d="M164.57256,373.10016 L164.30309,372.77606" /><path fill="none" stroke="#000000" stroke-width="0.02mm" d="M156.919,375.36697 C153.35641,372.15546 149.80435,368.93222 146.23125,365.73242 C143.82791,363.58014 141.43169,361.4193 138.98982,359.31085 C138.74602,359.10037 138.03847,358.86597 137.76758,358.8194 C135.78104,358.47803 134.35837,358.59363 132.18071,358.83713 C131.32608,358.9327 130.45483,359.0381 129.6511,359.34393 C126.120926,360.68732 122.721436,362.35385 119.219604,363.76947 C116.03616,365.05637 106.89357,363.39038 106.33793,363.35016 C106.01132,363.32654 104.770615,363.40457 104.37366,363.6444 C101.09116,365.6273 97.816605,367.62903 94.63926,369.77637 C92.45367,371.25348 90.43525,372.96472 88.29696,374.5095 C88.0582,374.682 87.78656,374.80667 87.515785,374.9226 C87.331924,375.00128 87.13957,375.08136 86.93978,375.09064 C85.1736,375.17288 83.403534,375.1337 81.63655,375.19635 C81.361786,375.20605 81.01413,375.47058 80.85533,375.67554 C78.82948,378.29028 76.8143,380.91342 74.8177,383.55057 C74.65011,383.7719 74.57919,384.14056 74.591515,384.41113 C74.614685,384.91977 74.81546,385.66623 75.18344,386.03415 C78.049774,388.9 81.109314,391.5717 83.91574,394.49622 C92.29787,403.23114 86.467766,398.61383 92.935074,403.85986 C93.7222,404.49832 96.25985,404.17963 96.685936,404.21887 C98.44869,404.3811 100.19846,404.6646 101.949295,404.92572 C102.10463,404.94888 102.56178,405.1516 102.67118,405.26648 C105.14258,407.86237 107.49567,410.5706 110.0056,413.1292 C111.31685,414.46594 115.90471,419.78424 119.19805,421.1696 C120.51087,421.72183 123.33303,420.80618 124.4129,420.29242 C132.15347,416.60983 139.78346,412.6987 147.49994,408.9658 C147.7113,408.86353 147.95126,408.8315 148.18297,408.79355 C150.60999,408.39615 155.11172,411.7307 155.7489,412.05508 C155.86182,412.1126 156.11604,412.1151 156.25162,412.09506 C157.1033,411.96887 158.05106,410.64993 158.40273,410.02536 C160.8207,405.73126 163.13086,401.37738 165.49493,397.05334 L165.49493,397.05334" /><path fill="none" stroke="#000000" stroke-width="0.02mm" d="M138.02815,358.9276 C136.58397,365.38547 131.2521,369.80872 128.91823,375.78497 C128.69086,376.36722 127.7147,378.7005 127.98859,379.8577 C128.01962,379.98877 128.05391,380.12335 128.124,380.2384 C130.66357,384.40704 132.94815,388.74908 135.81305,392.70117 C138.33093,396.17462 141.48141,399.14386 144.22144,402.4449 C145.2192,403.6469 146.05698,404.97412 147.0207,406.20364 C149.7695,409.7106 148.49823,407.6473 149.42805,409.19708 L149.42805,409.19708" /><path fill="none" stroke="#000000" stroke-width="0.02mm" d="M127.83215,379.60318 C114.94134,380.15445 120.155304,380.43155 102.730774,377.59668 C97.45263,376.73798 93.97597,375.25626 89.24336,375.27704 C88.67404,375.27954 88.10686,375.3469 87.5386,375.3818 L87.5386,375.3818" /><path fill="none" stroke="#000000" stroke-width="0.02mm" d="M153.81525,378.97507 C164.97804,370.45154 147.53993,383.61176 175.37845,364.66757 C178.43532,362.5874 181.25581,360.17905 184.22603,357.97687 C184.41818,357.83438 184.9569,357.66788 185.18707,357.65128 C190.74193,357.25067 192.00569,358.60678 199.97295,360.37915 C200.39195,360.47232 200.80057,360.6148 201.22447,360.6823 C203.52168,361.0482 206.31215,359.99243 208.19518,359.5014 C210.2587,358.96335 212.26186,358.21335 214.31477,357.63605 C215.85286,357.20355 216.70456,357.91953 217.70981,359.1796 C218.92657,360.7047 220.0857,362.28165 221.12714,363.9315 C222.55914,366.2 223.65692,368.6706 225.12027,370.91904 C227.10825,373.97357 229.31494,376.88055 231.46834,379.82086 C231.70271,380.14087 232.4219,380.60904 232.74304,380.7418 C233.86795,381.20685 235.03383,381.5672 236.16556,382.01538 C236.49792,382.14703 236.40018,382.58224 236.2689,382.80792 C235.73201,383.73108 235.13585,384.62012 234.62851,385.55988 C234.18701,386.3776 233.88957,387.2697 233.4254,388.07477 C231.78267,390.92392 230.8856,392.13684 228.89067,394.50763 C228.33621,395.16656 226.90985,395.18433 226.23853,395.1499 C224.42494,395.05692 222.62512,394.708 220.80917,394.70093 C219.03966,394.69403 217.27217,394.88928 215.51619,395.10794 C214.34352,395.25397 213.3968,395.87085 212.20746,395.89246 C211.86896,395.8986 211.52179,395.91028 211.194,395.82556 C210.2962,395.59344 209.39764,395.3331 208.55408,394.94794 C206.10138,393.82797 203.74478,392.50827 201.32487,391.31912 C201.19968,391.25757 200.8833,391.23782 200.75047,391.25156 C199.92667,391.3366 198.90384,392.01904 198.36047,392.47522 C194.25665,395.92078 190.11539,399.33057 186.197,402.9856 C182.78194,406.17114 179.52951,409.5332 176.37839,412.98007 C174.58775,414.93878 173.0687,417.12967 171.38858,419.18396 C170.81696,419.88293 169.77335,419.57202 169.34814,418.87894 C169.2753,418.7602 169.19424,418.64038 169.16145,418.505 C168.15504,414.34787 167.11322,410.1976 166.23315,406.01187 C165.75545,403.73987 165.51173,401.4244 165.09012,399.1413 C165.03545,398.8452 164.92546,398.5603 164.80605,398.28387 C164.61441,397.8404 164.18094,397.08408 163.68745,396.8678 C159.63464,395.09137 155.53085,393.43335 151.46498,391.68704 C150.71785,391.36615 150.36311,389.943 150.5271,389.2386 C152.53857,380.59894 150.76324,383.0224 153.2653,379.9561 L153.2653,379.9561" /><path fill="none" stroke="#000000" stroke-width="0.02mm" d="M200.3215,390.7175 C204.03854,386.80377 207.7774,382.91068 211.4726,378.97632 C211.69249,378.7422 211.44774,378.3557 211.25768,378.21075 C210.59741,377.70712 209.96852,377.15417 209.25598,376.72772 C207.19447,375.4938 205.09521,374.3186 202.9494,373.23795 C201.28943,372.40195 199.47432,371.8864 197.8498,370.9835 C194.8551,369.3191 189.87315,365.07037 187.68364,363.06625 C182.5513,358.36838 187.34888,362.29993 184.32076,359.23087 C183.92288,358.82764 183.45424,358.50092 183.02098,358.13593 L183.02098,358.13593" /><path fill="none" stroke="#000000" stroke-width="0.02mm" d="M211.46877,377.7414 C219.17044,380.53137 212.17899,378.11386 231.20488,381.89392 C235.77208,382.80136 233.16283,382.60727 236.20076,382.7207 L236.20076,382.7207" /><path fill="none" stroke="#000000" stroke-width="0.02mm" d="M183.63037,358.13593 C178.06387,366.72775 182.27287,360.0185 172.72052,382.66928 C172.61502,382.91943 172.5577,383.19653 172.56102,383.46796 C172.63376,389.39117 173.0026,395.3112 172.94846,401.23456 C172.9042,406.0762 172.44745,410.9056 172.26607,415.74408 C172.22453,416.85214 172.2945,417.9618 172.27988,419.0706 C172.27834,419.187 172.28021,419.31613 172.21767,419.41437 C172.13191,419.54907 171.97849,419.62598 171.85889,419.73175 L171.85889,419.73175" /><path fill="none" stroke="#000000" stroke-width="0.02mm" d="M164.36797,398.06024 C172.07947,386.21048 169.37445,391.0967 173.19656,383.82065 L173.19656,383.82065" /><path fill="none" stroke="#000000" stroke-width="0.02mm" d="M170.86308,419.375 C179.42146,413.51685 174.16306,416.81604 195.47018,410.18372 C216.01462,403.78867 194.2597,411.7013 206.31342,407.38574 C206.60954,407.27972 206.87978,406.93198 207.01643,406.67117 C208.14238,404.52258 208.66849,402.64987 210.20334,400.99554 C210.44626,400.7337 211.01225,400.31653 211.35573,400.20325 C213.69887,399.43024 216.06696,398.7348 218.42554,398.0102 C221.54185,397.05283 224.66656,396.12277 227.78036,395.1572 C229.07056,394.7571 227.44333,395.0514 229.34889,394.80505 L229.34889,394.80505" /><path fill="none" stroke="#000000" stroke-width="0.02mm" d="M182.24812,423.35846 C182.05081,421.60464 181.83871,419.85242 181.65622,418.09695 C181.6044,417.59845 181.86316,417.15698 182.36281,417.03455 C184.02159,416.6281 185.69197,416.26892 187.3465,415.8455 C187.4434,415.82068 187.52612,415.75455 187.60493,415.69293 C188.19548,415.23145 188.43552,413.90155 188.63104,413.4897 C189.07922,412.54562 189.55214,412.00665 190.17009,411.19986 L190.17009,411.19986" /><path fill="none" stroke="#000000" stroke-width="0.02mm" d="M206.08835,406.77045 C208.84802,409.3366 211.62602,411.88324 214.3674,414.4689 C214.56796,414.6581 214.65393,415.06717 214.63606,415.32806 C214.54153,416.7073 214.29056,418.07986 214.30548,419.46222 C214.32446,421.22073 214.50903,422.97662 214.73743,424.7203 C214.93245,426.2091 215.31706,427.6671 215.574,429.14648 C215.67834,429.74707 215.53558,430.27747 214.88165,430.3899 C213.85411,430.56656 212.81409,430.67538 211.79489,430.895 C209.68024,431.35065 211.29199,431.1551 209.95076,431.61392 C209.7651,431.67743 209.56563,431.6892 209.37308,431.72684 L209.37308,431.72684" /><path fill="none" stroke="#000000" stroke-width="0.02mm" d="M188.5203,416.64 C189.58144,418.6141 190.33705,421.58075 192.34045,422.78772 C192.76228,423.0419 193.42458,423.0841 193.87784,422.8975 C197.34142,421.4715 200.79535,420.02097 204.22374,418.51233 C205.72632,417.8511 207.15628,417.03046 208.66756,416.38934 C214.29752,414.00104 210.91809,415.9911 213.69817,414.2618 L213.69817,414.2618" /><path fill="none" stroke="#000000" stroke-width="0.02mm" d="M192.28062,423.626 L190.12549,426.3907" /><path fill="none" stroke="#000000" stroke-width="0.02mm" d="M223.9477,430.10492 C225.60602,429.60248 227.29047,429.1793 228.92264,428.59753 C231.93436,427.52396 234.88913,426.29684 237.87062,425.14197 C238.11055,425.04904 238.27911,424.9558 238.54092,425.0029 C239.4553,425.16742 240.7761,427.17218 240.87338,427.29224 C241.17764,427.66766 241.31459,428.15524 241.7512,428.39105 C242.26767,428.67004 242.99124,428.52756 243.48001,428.25403 C243.87746,428.03165 244.12567,427.64282 244.62955,427.77713 C245.10211,427.90305 245.70071,428.44946 245.95988,428.75067 C246.62201,429.52026 247.74252,430.713 247.69618,431.919 C247.6852,432.20538 247.58527,432.54907 247.38574,432.7647 C245.87827,434.3938 244.32462,435.97983 242.82114,437.61255 C241.97447,438.53198 241.18216,439.50043 240.33609,440.42035 C240.23001,440.53564 239.95306,440.65323 239.8083,440.69266 C238.44641,441.06396 236.75526,439.76062 235.71608,439.45642 C234.62245,439.1363 233.48262,438.9972 232.35544,438.8298 C231.97241,438.77292 231.10309,438.88196 230.5882,438.64536 C230.44623,438.58014 230.18314,438.40265 230.09653,438.2706 C228.9558,436.5315 227.93805,434.71072 226.73811,433.0119 C226.04343,432.02838 225.19492,431.1631 224.42331,430.2387 L224.42331,430.2387" /><path fill="none" stroke="#000000" stroke-width="0.02mm" d="M225.61237,430.3279 C229.5065,430.71536 226.01141,430.4475 233.26573,430.25232 C233.91269,430.2349 234.55983,430.28247 235.207,430.28558 C235.55891,430.2873 235.86919,430.22595 236.17133,430.45282 C237.00775,431.08105 237.93137,433.44193 238.007,433.6058 C241.28413,440.70593 239.2417,437.53983 241.27792,440.55423 L241.27792,440.55423" /><path fill="none" stroke="#000000" stroke-width="0.02mm" d="M237.17578,429.89685 C236.85385,430.04657 236.5505,430.24557 236.21,430.34607 C236.14575,430.36505 236.05469,430.29684 236.04556,430.23047 C236.02727,430.09787 236.07945,429.95944 236.14027,429.84015 C237.42548,427.32056 237.62494,426.7096 239.31604,425.0512 L239.31604,425.0512" /><path fill="none" stroke="#000000" stroke-width="0.02mm" d="M215.16368,418.9719 C217.83675,421.0567 223.25041,412.10928 226.99982,415.0329 C227.1,415.111 227.19707,415.1966 227.27339,415.29816 C234.45293,424.8459 228.66231,416.89893 230.8917,420.44318 C231.37785,421.21613 232.74951,421.21155 233.41324,421.32538 C233.82043,421.39517 234.35597,421.47708 234.54741,421.92664 C236.10912,425.59387 234.97853,424.22504 236.41774,425.7647 L236.41774,425.7647" /><path fill="none" stroke="#000000" stroke-width="0.02mm" d="M228.70386,438.2503 L228.70586,438.25232" /><path fill="none" stroke="#000000" stroke-width="0.02mm" d="M228.9268,438.2355 C228.16312,438.40173 227.60895,438.436 226.95456,438.82703 C226.19106,439.2832 225.4755,439.81622 224.71591,440.27893 C224.53578,440.38864 224.2215,440.42313 224.01324,440.37842 C222.46327,440.04584 222.64058,438.0567 222.45343,436.9091 C222.41168,436.65305 222.19748,436.40222 221.9933,436.26007 C221.19775,435.706 219.9786,435.80063 219.1139,435.6539 C218.8523,435.60956 218.5998,435.51874 218.35117,435.42606 C217.50253,435.10974 216.92404,434.01816 216.432,433.3928 C212.84438,428.833 218.77838,436.48907 214.2719,430.6549 L214.2719,430.6549" /><path fill="none" stroke="#000000" stroke-width="0.02mm" d="M225.65694,414.8249 C223.79282,417.58975 221.89029,420.32916 220.06453,423.1195 C219.89957,423.37164 219.68929,423.9627 219.63977,424.309 C219.58897,424.66434 219.61864,425.07278 219.70453,425.41656 C220.24985,427.59933 220.92586,429.75012 221.4056,431.94827 C221.79117,433.7149 222.00047,435.51544 222.29793,437.29904 L222.29793,437.29904" /><path fill="none" stroke="#000000" stroke-width="0.02mm" d="M220.27655,424.90265 C218.53253,423.15982 216.76373,421.44147 215.04446,419.67426 C214.63895,419.2574 214.69727,419.31564 214.80698,418.92737 L214.80698,418.92737" /><path fill="none" stroke="#000000" stroke-width="0.06mm" d="M243.7898,390.40363 C245.07397,391.9974 245.32516,394.2316 246.77733,395.70334 C248.0687,397.01215 249.4404,398.23975 250.80576,399.47116 C252.73773,401.2136 256.83664,399.28668 258.18036,401.51114 C258.4936,402.02963 258.78052,402.5647 259.04297,403.11066 C260.39664,405.92642 260.81122,405.96408 259.3126,408.4886 C259.00226,409.01135 258.09384,409.83508 258.09924,410.65738 C258.10284,411.20703 258.52716,411.93152 258.56076,412.33005 C258.7571,414.66046 258.62756,417.0116 258.8423,419.34036 C259.22305,423.4701 261.20804,427.55417 263.09677,431.1008 L263.09677,431.1008" /><path fill="none" stroke="#000000" stroke-width="0.02mm" d="M140.01727,338.78998 C137.9383,338.45084 138.23932,338.37912 136.03519,338.54617 C134.53964,338.65952 133.05188,338.86115 131.55722,338.98517 C131.39279,338.9988 131.22607,338.9837 131.06299,338.95874 C130.41196,338.85907 130.0575,338.14886 129.8111,337.63724 C129.18187,336.33066 128.86937,334.45044 129.85403,333.22653 C130.39618,332.55264 131.1325,331.914 131.8499,331.456 C133.1141,330.64893 133.45941,330.78687 134.23581,330.00653 C134.522,329.7189 134.7201,329.34085 134.76901,328.93588 C134.8187,328.52463 134.72621,327.14478 135.27777,326.82236 C135.70813,326.5708 137.58817,326.9551 137.7755,326.96274 C138.48567,326.9917 139.25069,326.8078 139.90578,326.56033 C140.60896,326.2947 141.27945,325.94833 141.97835,325.6716 C142.04568,325.64496 142.12277,325.64758 142.19492,325.65393 C142.38797,325.67093 142.63264,325.83426 142.69046,326.02844 C143.61868,329.1458 144.52893,332.26874 145.40054,335.4024 C145.62807,336.22046 144.74031,337.49527 144.18628,338.00006 C143.66714,338.47305 143.01611,338.25833 142.3944,338.27402 C141.9196,338.28598 141.88525,338.36838 141.42667,338.45792 C141.04272,338.5329 140.65552,338.59012 140.26994,338.65622 L140.26994,338.65622" /><path fill="none" stroke="#000000" stroke-width="0.02mm" d="M144.6248,332.0864 C171.506,321.82547 181.3573,314.87402 203.29268,311.32138 C209.38885,310.33408 203.67833,312.02805 208.32755,310.4892 L208.32755,310.4892" /><path fill="none" stroke="#000000" stroke-width="0.02mm" d="M145.13014,331.4324 C147.14531,329.2124 145.9563,330.36032 148.8013,328.10287 L148.8013,328.10287" /><path fill="none" stroke="#000000" stroke-width="0.02mm" d="M144.84775,332.22015 C146.16138,332.12698 147.30922,332.51968 148.54865,332.8296 L148.54865,332.8296" /><path fill="none" stroke="#000000" stroke-width="0.02mm" d="M91.68848,106.780716 C87.81537,106.8683 86.9453,106.59134 83.5211,107.58386 C82.801834,107.79234 80.332535,109.50502 79.061554,108.54224 C78.291534,107.95893 77.87649,106.44744 77.75625,105.66728 C77.174324,101.89146 77.65487,100.800156 76.578575,97.95793 C75.73816,95.7386 73.43745,94.70463 72.22777,92.72093 C71.41177,91.38282 71.05692,89.62078 71.20902,88.07213 C73.87387,60.938488 70.05439,67.41994 83.57889,50.096542 C84.76965,48.571304 87.226685,48.798702 88.70537,49.650406 C89.16505,49.915173 89.93373,50.521156 90.18504,50.95829 C93.38364,56.52207 96.5956,62.083206 99.54515,67.78293 C100.479095,69.58767 101.358406,72.26611 100.92593,74.42534 C100.64606,75.822624 100.15348,77.17474 99.92137,78.58075 C99.62055,80.403046 99.773384,82.38571 100.157555,84.17851 C100.94992,87.876305 104.3139,90.43589 105.09317,94.12653 C105.17093,94.49477 105.21301,94.87432 105.200676,95.25048 C105.135605,97.235565 104.81714,99.21361 104.86133,101.199265 C104.89074,102.52117 105.15809,103.83043 105.42045,105.12637 C105.68685,106.44231 106.15047,107.71186 106.44496,109.0218 C106.93157,111.186165 103.5575,112.57855 101.94675,112.55622 C99.06221,112.51621 95.92739,109.99899 93.68945,108.99834 C93.07791,108.7249 92.38353,108.69905 91.730576,108.54939 L91.730576,108.54939" /><path fill="none" stroke="#000000" stroke-width="0.02mm" d="M76.90805,95.45261 C78.440765,90.68301 79.97348,85.91341 81.506195,81.143814 C81.68329,80.51097 81.80031,79.858154 82.037476,79.2453 C82.41582,78.2676 83.12445,76.95093 84.0759,76.37149 C84.79652,75.93262 85.682846,76.02629 86.39545,76.43557 C98.16621,83.19595 94.32332,80.14234 100.32091,85.43001 L100.32091,85.43001" /><path fill="none" stroke="#000000" stroke-width="0.02mm" d="M84.782524,76.79704 C86.77184,52.420475 86.80771,61.967617 86.42479,48.20306 L86.42479,48.20306" /><path fill="none" stroke="#000000" stroke-width="0.06mm" d="M23.850143,239.8122 C24.076513,236.42166 24.23888,233.02623 24.529253,229.64056 C24.864573,225.7308 26.180393,220.4624 25.397955,216.09789 C24.881027,213.21442 23.603462,211.82349 22.729633,209.30315 C22.274971,207.99176 22.154842,206.6626 22.214775,205.27377 C22.535095,197.851 28.16146,191.39018 31.339563,184.96419 C33.097263,181.4102 32.424103,177.27185 34.258724,173.79456 C36.091904,170.32002 39.154762,168.12009 42.369236,166.00781 C44.607674,164.53691 47.324284,163.41066 48.633415,160.86153 C49.41027,159.34885 50.115376,157.79001 50.65232,156.17651 C51.611687,153.29367 51.97795,149.37907 53.689056,146.51773 C54.825676,144.61707 56.7536,142.7971 58.42363,141.52794 C61.614513,139.10297 67.08246,137.11377 67.60379,132.34674 C67.82703,130.30551 64.51545,129.72137 63.51879,129.06897 C61.846214,127.97411 60.34222,126.641174 58.75347,125.42788 C58.14843,124.96582 57.594444,124.42749 56.937424,124.04293 C55.400856,123.14356 53.727318,122.49252 52.193604,121.58831 C50.763176,120.74498 49.598045,119.63607 48.578903,118.342384 C41.08281,108.826904 44.95106,114.112434 39.094624,101.3689 C38.116077,99.23959 35.66729,98.3949 34.4189,96.46702 C31.84955,92.49921 30.71516,83.08568 30.515787,80.28842 C29.984875,72.8396 30.528921,65.347145 30.173998,57.887856 C29.975395,53.713875 28.290487,51.33274 27.090252,47.321384 C26.118683,44.074265 26.530163,40.721443 27.23455,37.486996 C27.535791,36.103745 28.031248,34.756714 28.19968,33.351097 C28.479416,31.016647 28.79546,28.648304 28.574165,26.30759 C25.454857,-6.6862965 34.011806,-1.1753464 21.618336,-7.721527 L21.618336,-7.721527" /><path fill="none" stroke="#000000" stroke-width="0.02mm" d="M56.62366,120.50285 C57.513775,119.169876 58.454666,117.86944 59.294003,116.50392 C59.490288,116.18458 59.600582,115.818596 59.721096,115.46366 C60.031525,114.54937 60.226593,113.595345 60.585873,112.69914 C60.91289,111.88342 61.35914,111.12032 61.773094,110.3451 C61.82916,110.2401 62.020992,110.09361 62.124474,110.03926 C62.343567,109.924194 62.578247,109.91645 62.818302,109.94693 C63.891113,110.08312 64.95845,110.26616 66.03493,110.36943 C67.76846,110.53573 68.38655,110.16283 69.63838,111.3116 C69.85924,111.51427 70.08972,111.718414 70.247055,111.973564 C71.240326,113.58432 72.50749,115.74246 72.63196,117.722626 C72.69984,118.80243 72.145706,119.88461 72.49104,120.95028 C72.93805,122.329735 75.71588,124.61116 75.84493,124.74968 C75.934784,124.846115 75.961395,125.03658 75.93297,125.159454 C75.85477,125.49743 75.47141,125.73414 75.210594,125.89307 C73.62363,126.860085 72.0145,127.79049 70.42974,128.76111 C69.85097,129.1156 69.29893,129.51248 68.72074,129.86792 C68.62129,129.92906 68.51135,129.97342 68.400116,130.00885 C67.44792,130.31201 66.56886,129.53822 66.10484,128.77994 C65.984985,128.58405 65.1292,126.59967 64.38296,125.951866 C63.670532,125.33342 62.691383,125.298225 61.798676,125.27236 C61.35114,125.25939 60.820244,125.25858 60.52135,124.843895 C59.44966,123.35705 58.422005,121.83895 57.37233,120.33648 L57.37233,120.33648" /><path fill="none" stroke="#000000" stroke-width="0.02mm" d="M58.287365,118.97216 C60.22375,119.97499 62.149353,120.99892 64.09652,121.98063 C64.6676,122.268555 65.42751,121.41956 65.65859,121.11552 C67.86279,118.21536 69.99463,115.260895 72.16265,112.333595 L72.16265,112.333595" /><path fill="none" stroke="#000000" stroke-width="0.02mm" d="M65.45793,122.69908 L65.360344,122.534935" /><path fill="none" stroke="#000000" stroke-width="0.02mm" d="M64.908905,122.03356 C65.22604,122.45119 65.57594,122.84586 65.86031,123.28646 C66.04215,123.56819 66.1646,123.884445 66.30116,124.190704 C66.75746,125.214005 67.22992,126.231224 67.63859,127.274475 C69.080414,130.95526 67.418785,127.42663 68.66888,129.98653 L68.66888,129.98653" /><path fill="none" stroke="#000000" stroke-width="0.02mm" d="M262.67737,441.37808 L262.85016,441.17477" /><path fill="none" stroke="#000000" stroke-width="0.02mm" d="M266.0206,449.9874 C266.271,461.60892 266.52142,473.2305 266.77185,484.85205 C266.98267,485.85074 267.09616,486.87506 267.4043,487.8481 C268.3435,490.8142 270.78384,494.41193 272.2522,496.69516 C276.20978,502.849 280.39423,508.8565 284.28204,515.0546 C286.54126,518.6563 285.86194,523.90186 286.1449,527.76166 C286.35913,530.68384 290.30695,534.2715 291.56094,535.5891 C292.74948,536.838 294.14194,538.26263 295.82104,538.9389 C298.04666,539.8353 301.9619,538.296 303.32172,537.95245 C307.3736,536.9285 308.76047,528.15564 308.57245,525.9862 C308.5265,525.45605 308.2583,524.8293 307.8957,524.4381 C306.3989,522.82336 297.99475,515.0432 295.15527,510.1753 C293.6207,507.5444 293.80756,504.32532 292.22314,501.7003 C288.81763,496.05807 293.59027,505.49414 288.04233,496.66095 C282.26804,487.46738 276.37466,478.32196 271.29315,468.72806 C266.3322,455.38107 268.82227,460.20816 265.1848,453.62338 L265.1848,453.62338" /><path fill="none" stroke="#000000" stroke-width="0.02mm" d="M286.16354,516.22894 C283.79718,509.55524 281.36432,502.90485 279.06442,496.208 C278.72736,495.22647 279.851,494.62427 280.59842,494.46793 C283.84833,493.78818 286.9481,495.93814 289.29782,497.96545 L289.29782,497.96545" /><path fill="none" stroke="#000000" stroke-width="0.02mm" d="M279.3517,495.62512 C262.92728,459.19708 274.10852,486.65015 266.89105,464.66272 C266.56213,463.6607 266.03217,462.73624 265.60272,461.77298 L265.60272,461.77298" /><path fill="none" stroke="#924216" stroke-width="0.06mm" stroke-dasharray="0.3mm,0.1mm" d="M365.9831,626.43646 C367.8575,626.43866 369.7444,626.22766 371.60638,626.4431 C375.06232,626.843 378.41107,628.02716 381.88116,628.2761 C392.34756,629.02686 393.10724,628.72345 400.33475,627.64844 L400.33475,627.64844" /><path fill="none" stroke="#924216" stroke-width="0.06mm" stroke-dasharray="0.3mm,0.1mm" d="M369.11737,636.13245 C371.92166,636.2061 374.72592,636.27985 377.53018,636.3535 C379.10236,636.2449 380.67087,636.01465 382.24677,636.0276 C384.42685,636.04553 386.59778,636.312 388.7738,636.446 C390.8698,636.5751 392.18613,636.9256 393.98264,636.4667 L393.98264,636.4667" /><path fill="none" stroke="#924216" stroke-width="0.02mm" d="M399.11813,613.32227 L399.6026,624.0095" /><path fill="none" stroke="#924216" stroke-width="0.02mm" d="M401.73993,613.20825 L402.33838,622.5561" /><text x="214.03493" y="309.2258" font-family="sans-serif" font-size=".2mm" fill="black">okienko ze studzienk</text>
<text x="408.97836" y="630.4219" font-family="sans-serif" font-size=".2mm" fill="black">?</text>
<text x="418.1897" y="620.8998" font-family="sans-serif" font-size=".2mm" fill="black">Koniec Meander do uczowieczenia
studnia i mocny przewiew</text>
</g>
<g>
<line fill="none" stroke="#111111" stroke-width="0.04mm" x1="32.00" y1="22.00" x2="48.50" y2="105.63" />
<line fill="none" stroke="#00aeef" stroke-width="0.04mm" stroke-dasharray="0.4,0.2" x1="48.50" y1="105.63" x2="68.59" y2="94.32" />
<line fill="none" stroke="#111111" stroke-width="0.04mm" x1="48.50" y1="105.63" x2="66.39" y2="122.51" />
<line fill="none" stroke="#00aeef" stroke-width="0.04mm" stroke-dasharray="0.4,0.2" x1="66.39" y1="122.51" x2="76.10" y2="111.13" />
<line fill="none" stroke="#00aeef" stroke-width="0.04mm" stroke-dasharray="0.4,0.2" x1="66.39" y1="122.51" x2="76.04" y2="111.14" />
<line fill="none" stroke="#5674b9" stroke-width="0.04mm" stroke-dasharray="0.4,0.2" x1="66.39" y1="122.51" x2="67.67" y2="122.41" />
<line fill="none" stroke="#5674b9" stroke-width="0.04mm" stroke-dasharray="0.4,0.2" x1="66.39" y1="122.51" x2="66.22" y2="131.17" />
<line fill="none" stroke="#5674b9" stroke-width="0.04mm" stroke-dasharray="0.4,0.2" x1="66.39" y1="122.51" x2="61.41" y2="55.25" />
<line fill="none" stroke="#5674b9" stroke-width="0.04mm" stroke-dasharray="0.4,0.2" x1="66.39" y1="122.51" x2="76.29" y2="122.42" />
<line fill="none" stroke="#00aeef" stroke-width="0.04mm" stroke-dasharray="0.4,0.2" x1="66.39" y1="122.51" x2="79.02" y2="123.68" />
<line fill="none" stroke="#00aeef" stroke-width="0.04mm" stroke-dasharray="0.4,0.2" x1="66.39" y1="122.51" x2="78.48" y2="123.48" />
<line fill="none" stroke="#5674b9" stroke-width="0.04mm" stroke-dasharray="0.4,0.2" x1="66.39" y1="122.51" x2="75.89" y2="117.57" />
<line fill="none" stroke="#111111" stroke-width="0.04mm" x1="66.39" y1="122.51" x2="94.69" y2="126.92" />
<line fill="none" stroke="#00aeef" stroke-width="0.04mm" stroke-dasharray="0.4,0.2" x1="94.69" y1="126.92" x2="95.97" y2="126.68" />
<line fill="none" stroke="#5674b9" stroke-width="0.04mm" stroke-dasharray="0.4,0.2" x1="94.69" y1="126.92" x2="177.85" y2="141.94" />
<line fill="none" stroke="#5674b9" stroke-width="0.04mm" stroke-dasharray="0.4,0.2" x1="94.69" y1="126.92" x2="96.55" y2="110.93" />
<line fill="none" stroke="#00aeef" stroke-width="0.04mm" stroke-dasharray="0.4,0.2" x1="94.69" y1="126.92" x2="80.38" y2="126.58" />
<line fill="none" stroke="#5674b9" stroke-width="0.04mm" stroke-dasharray="0.4,0.2" x1="94.69" y1="126.92" x2="92.11" y2="130.35" />
<line fill="none" stroke="#111111" stroke-width="0.04mm" x1="94.69" y1="126.92" x2="117.09" y2="232.66" />
<line fill="none" stroke="#5674b9" stroke-width="0.04mm" stroke-dasharray="0.4,0.2" x1="117.09" y1="232.66" x2="139.12" y2="338.40" />
<line fill="none" stroke="#5674b9" stroke-width="0.04mm" stroke-dasharray="0.4,0.2" x1="117.09" y1="232.66" x2="139.29" y2="338.35" />
<line fill="none" stroke="#00aeef" stroke-width="0.04mm" stroke-dasharray="0.4,0.2" x1="117.09" y1="232.66" x2="121.56" y2="232.17" />
<line fill="none" stroke="#5674b9" stroke-width="0.04mm" stroke-dasharray="0.4,0.2" x1="117.09" y1="232.66" x2="100.50" y2="236.57" />
<line fill="none" stroke="#5674b9" stroke-width="0.04mm" stroke-dasharray="0.4,0.2" x1="117.09" y1="232.66" x2="48.84" y2="245.99" />
<line fill="none" stroke="#5674b9" stroke-width="0.04mm" stroke-dasharray="0.4,0.2" x1="117.09" y1="232.66" x2="19.63" y2="240.52" />
<line fill="none" stroke="#5674b9" stroke-width="0.04mm" stroke-dasharray="0.4,0.2" x1="117.09" y1="232.66" x2="25.83" y2="239.94" />
<line fill="none" stroke="#00aeef" stroke-width="0.04mm" stroke-dasharray="0.4,0.2" x1="117.09" y1="232.66" x2="39.37" y2="241.35" />
<line fill="none" stroke="#00aeef" stroke-width="0.04mm" stroke-dasharray="0.4,0.2" x1="117.09" y1="232.66" x2="93.82" y2="237.43" />
<line fill="none" stroke="#00aeef" stroke-width="0.04mm" stroke-dasharray="0.4,0.2" x1="117.09" y1="232.66" x2="99.73" y2="236.34" />
<line fill="none" stroke="#00aeef" stroke-width="0.04mm" stroke-dasharray="0.4,0.2" x1="117.09" y1="232.66" x2="108.46" y2="233.99" />
<line fill="none" stroke="#5674b9" stroke-width="0.04mm" stroke-dasharray="0.4,0.2" x1="117.09" y1="232.66" x2="91.08" y2="108.96" />
<line fill="none" stroke="#5674b9" stroke-width="0.04mm" stroke-dasharray="0.4,0.2" x1="117.09" y1="232.66" x2="95.94" y2="137.04" />
<line fill="none" stroke="#5674b9" stroke-width="0.04mm" stroke-dasharray="0.4,0.2" x1="117.09" y1="232.66" x2="89.59" y2="107.62" />
<line fill="none" stroke="#5674b9" stroke-width="0.04mm" stroke-dasharray="0.4,0.2" x1="117.09" y1="232.66" x2="42.09" y2="19.66" />
<line fill="none" stroke="#5674b9" stroke-width="0.04mm" stroke-dasharray="0.4,0.2" x1="117.09" y1="232.66" x2="120.52" y2="332.26" />
<line fill="none" stroke="#5674b9" stroke-width="0.04mm" stroke-dasharray="0.4,0.2" x1="117.09" y1="232.66" x2="52.53" y2="363.94" />
<line fill="none" stroke="#5674b9" stroke-width="0.04mm" stroke-dasharray="0.4,0.2" x1="117.09" y1="232.66" x2="74.69" y2="386.54" />
<line fill="none" stroke="#111111" stroke-width="0.04mm" x1="117.09" y1="232.66" x2="163.66" y2="396.22" />
<line fill="none" stroke="#00aeef" stroke-width="0.04mm" stroke-dasharray="0.4,0.2" x1="163.66" y1="396.22" x2="156.91" y2="395.76" />
<line fill="none" stroke="#00aeef" stroke-width="0.04mm" stroke-dasharray="0.4,0.2" x1="163.66" y1="396.22" x2="128.50" y2="398.65" />
<line fill="none" stroke="#00aeef" stroke-width="0.04mm" stroke-dasharray="0.4,0.2" x1="163.66" y1="396.22" x2="119.13" y2="400.92" />
<line fill="none" stroke="#5674b9" stroke-width="0.04mm" stroke-dasharray="0.4,0.2" x1="163.66" y1="396.22" x2="135.69" y2="397.56" />
<line fill="none" stroke="#5674b9" stroke-width="0.04mm" stroke-dasharray="0.4,0.2" x1="163.66" y1="396.22" x2="187.13" y2="395.81" />
<line fill="none" stroke="#5674b9" stroke-width="0.04mm" stroke-dasharray="0.4,0.2" x1="163.66" y1="396.22" x2="193.76" y2="392.84" />
<line fill="none" stroke="#00aeef" stroke-width="0.04mm" stroke-dasharray="0.4,0.2" x1="163.66" y1="396.22" x2="145.34" y2="419.18" />
<line fill="none" stroke="#00aeef" stroke-width="0.04mm" stroke-dasharray="0.4,0.2" x1="163.66" y1="396.22" x2="143.87" y2="418.57" />
<line fill="none" stroke="#00aeef" stroke-width="0.04mm" stroke-dasharray="0.4,0.2" x1="163.66" y1="396.22" x2="159.07" y2="426.83" />
<line fill="none" stroke="#00aeef" stroke-width="0.04mm" stroke-dasharray="0.4,0.2" x1="163.66" y1="396.22" x2="203.50" y2="404.70" />
<line fill="none" stroke="#00aeef" stroke-width="0.04mm" stroke-dasharray="0.4,0.2" x1="163.66" y1="396.22" x2="208.61" y2="413.09" />
<line fill="none" stroke="#00aeef" stroke-width="0.04mm" stroke-dasharray="0.4,0.2" x1="163.66" y1="396.22" x2="128.69" y2="381.34" />
<line fill="none" stroke="#111111" stroke-width="0.04mm" x1="163.66" y1="396.22" x2="209.88" y2="402.93" />
<line fill="none" stroke="#5674b9" stroke-width="0.04mm" stroke-dasharray="0.4,0.2" x1="209.88" y1="402.93" x2="212.24" y2="403.08" />
<line fill="none" stroke="#5674b9" stroke-width="0.04mm" stroke-dasharray="0.4,0.2" x1="209.88" y1="402.93" x2="212.37" y2="396.99" />
<line fill="none" stroke="#5674b9" stroke-width="0.04mm" stroke-dasharray="0.4,0.2" x1="209.88" y1="402.93" x2="210.90" y2="409.70" />
<line fill="none" stroke="#00aeef" stroke-width="0.04mm" stroke-dasharray="0.4,0.2" x1="209.88" y1="402.93" x2="228.94" y2="403.27" />
<line fill="none" stroke="#5674b9" stroke-width="0.04mm" stroke-dasharray="0.4,0.2" x1="209.88" y1="402.93" x2="236.67" y2="404.07" />
<line fill="none" stroke="#5674b9" stroke-width="0.04mm" stroke-dasharray="0.4,0.2" x1="209.88" y1="402.93" x2="223.35" y2="403.66" />
<line fill="none" stroke="#111111" stroke-width="0.04mm" x1="209.88" y1="402.93" x2="237.35" y2="404.42" />
<line fill="none" stroke="#00aeef" stroke-width="0.04mm" stroke-dasharray="0.4,0.2" x1="237.35" y1="404.42" x2="233.98" y2="405.91" />
<line fill="none" stroke="#00aeef" stroke-width="0.04mm" stroke-dasharray="0.4,0.2" x1="237.35" y1="404.42" x2="245.16" y2="407.65" />
<line fill="none" stroke="#00aeef" stroke-width="0.04mm" stroke-dasharray="0.4,0.2" x1="237.35" y1="404.42" x2="256.78" y2="411.11" />
<line fill="none" stroke="#00aeef" stroke-width="0.04mm" stroke-dasharray="0.4,0.2" x1="237.35" y1="404.42" x2="258.17" y2="404.23" />
<line fill="none" stroke="#00aeef" stroke-width="0.04mm" stroke-dasharray="0.4,0.2" x1="237.35" y1="404.42" x2="236.47" y2="390.37" />
<line fill="none" stroke="#00aeef" stroke-width="0.04mm" stroke-dasharray="0.4,0.2" x1="237.35" y1="404.42" x2="241.96" y2="427.52" />
<line fill="none" stroke="#00aeef" stroke-width="0.04mm" stroke-dasharray="0.4,0.2" x1="237.35" y1="404.42" x2="239.81" y2="429.32" />
<line fill="none" stroke="#00aeef" stroke-width="0.04mm" stroke-dasharray="0.4,0.2" x1="237.35" y1="404.42" x2="243.36" y2="426.50" />
<line fill="none" stroke="#111111" stroke-width="0.04mm" x1="237.35" y1="404.42" x2="246.15" y2="428.30" />
<line fill="none" stroke="#00aeef" stroke-width="0.04mm" stroke-dasharray="0.4,0.2" x1="246.15" y1="428.30" x2="214.99" y2="430.97" />
<line fill="none" stroke="#00aeef" stroke-width="0.04mm" stroke-dasharray="0.4,0.2" x1="246.15" y1="428.30" x2="240.67" y2="426.85" />
<line fill="none" stroke="#00aeef" stroke-width="0.04mm" stroke-dasharray="0.4,0.2" x1="246.15" y1="428.30" x2="240.95" y2="427.59" />
<line fill="none" stroke="#00aeef" stroke-width="0.04mm" stroke-dasharray="0.4,0.2" x1="246.15" y1="428.30" x2="265.06" y2="431.18" />
<line fill="none" stroke="#111111" stroke-width="0.04mm" x1="246.15" y1="428.30" x2="257.36" y2="506.45" />
<line fill="none" stroke="#00aeef" stroke-width="0.04mm" stroke-dasharray="0.4,0.2" x1="257.36" y1="506.45" x2="205.68" y2="506.73" />
<line fill="none" stroke="#00aeef" stroke-width="0.04mm" stroke-dasharray="0.4,0.2" x1="257.36" y1="506.45" x2="204.84" y2="506.77" />
<line fill="none" stroke="#00aeef" stroke-width="0.04mm" stroke-dasharray="0.4,0.2" x1="257.36" y1="506.45" x2="218.79" y2="505.72" />
<line fill="none" stroke="#00aeef" stroke-width="0.04mm" stroke-dasharray="0.4,0.2" x1="257.36" y1="506.45" x2="248.57" y2="506.07" />
<line fill="none" stroke="#00aeef" stroke-width="0.04mm" stroke-dasharray="0.4,0.2" x1="257.36" y1="506.45" x2="255.91" y2="505.62" />
<line fill="none" stroke="#00aeef" stroke-width="0.04mm" stroke-dasharray="0.4,0.2" x1="257.36" y1="506.45" x2="260.18" y2="505.05" />
<line fill="none" stroke="#00aeef" stroke-width="0.04mm" stroke-dasharray="0.4,0.2" x1="257.36" y1="506.45" x2="270.69" y2="511.72" />
<line fill="none" stroke="#00aeef" stroke-width="0.04mm" stroke-dasharray="0.4,0.2" x1="257.36" y1="506.45" x2="271.56" y2="513.88" />
<line fill="none" stroke="#00aeef" stroke-width="0.04mm" stroke-dasharray="0.4,0.2" x1="257.36" y1="506.45" x2="284.85" y2="515.76" />
<line fill="none" stroke="#00aeef" stroke-width="0.04mm" stroke-dasharray="0.4,0.2" x1="257.36" y1="506.45" x2="288.69" y2="517.71" />
<line fill="none" stroke="#00aeef" stroke-width="0.04mm" stroke-dasharray="0.4,0.2" x1="257.36" y1="506.45" x2="311.67" y2="521.48" />
<line fill="none" stroke="#00aeef" stroke-width="0.04mm" stroke-dasharray="0.4,0.2" x1="257.36" y1="506.45" x2="283.49" y2="515.34" />
<line fill="none" stroke="#5674b9" stroke-width="0.04mm" stroke-dasharray="0.4,0.2" x1="257.36" y1="506.45" x2="270.54" y2="512.52" />
<line fill="none" stroke="#5674b9" stroke-width="0.04mm" stroke-dasharray="0.4,0.2" x1="257.36" y1="506.45" x2="267.73" y2="508.27" />
<line fill="none" stroke="#00aeef" stroke-width="0.04mm" stroke-dasharray="0.4,0.2" x1="257.36" y1="506.45" x2="256.33" y2="505.17" />
<line fill="none" stroke="#111111" stroke-width="0.04mm" x1="257.36" y1="506.45" x2="271.96" y2="582.01" />
<line fill="none" stroke="#5674b9" stroke-width="0.04mm" stroke-dasharray="0.4,0.2" x1="271.96" y1="582.01" x2="256.05" y2="584.92" />
<line fill="none" stroke="#5674b9" stroke-width="0.04mm" stroke-dasharray="0.4,0.2" x1="271.96" y1="582.01" x2="259.45" y2="587.92" />
<line fill="none" stroke="#5674b9" stroke-width="0.04mm" stroke-dasharray="0.4,0.2" x1="271.96" y1="582.01" x2="269.06" y2="601.78" />
<line fill="none" stroke="#5674b9" stroke-width="0.04mm" stroke-dasharray="0.4,0.2" x1="271.96" y1="582.01" x2="279.00" y2="590.77" />
<line fill="none" stroke="#5674b9" stroke-width="0.04mm" stroke-dasharray="0.4,0.2" x1="271.96" y1="582.01" x2="281.96" y2="587.53" />
<line fill="none" stroke="#5674b9" stroke-width="0.04mm" stroke-dasharray="0.4,0.2" x1="271.96" y1="582.01" x2="275.13" y2="600.83" />
<line fill="none" stroke="#5674b9" stroke-width="0.04mm" stroke-dasharray="0.4,0.2" x1="271.96" y1="582.01" x2="268.94" y2="600.59" />
<line fill="none" stroke="#00aeef" stroke-width="0.04mm" stroke-dasharray="0.4,0.2" x1="271.96" y1="582.01" x2="275.71" y2="591.83" />
<line fill="none" stroke="#00aeef" stroke-width="0.04mm" stroke-dasharray="0.4,0.2" x1="271.96" y1="582.01" x2="273.86" y2="592.24" />
<line fill="none" stroke="#5674b9" stroke-width="0.04mm" stroke-dasharray="0.4,0.2" x1="271.96" y1="582.01" x2="265.86" y2="602.83" />
<line fill="none" stroke="#5674b9" stroke-width="0.04mm" stroke-dasharray="0.4,0.2" x1="271.96" y1="582.01" x2="272.37" y2="611.66" />
<line fill="none" stroke="#5674b9" stroke-width="0.04mm" stroke-dasharray="0.4,0.2" x1="271.96" y1="582.01" x2="268.35" y2="522.98" />
<line fill="none" stroke="#5674b9" stroke-width="0.04mm" stroke-dasharray="0.4,0.2" x1="271.96" y1="582.01" x2="267.33" y2="528.45" />
<line fill="none" stroke="#111111" stroke-width="0.04mm" x1="271.96" y1="582.01" x2="312.43" y2="599.60" />
<line fill="none" stroke="#5674b9" stroke-width="0.04mm" stroke-dasharray="0.4,0.2" x1="312.43" y1="599.60" x2="312.52" y2="600.67" />
<line fill="none" stroke="#5674b9" stroke-width="0.04mm" stroke-dasharray="0.4,0.2" x1="312.43" y1="599.60" x2="310.29" y2="620.33" />
<line fill="none" stroke="#5674b9" stroke-width="0.04mm" stroke-dasharray="0.4,0.2" x1="312.43" y1="599.60" x2="307.55" y2="599.91" />
<line fill="none" stroke="#111111" stroke-width="0.04mm" x1="312.43" y1="599.60" x2="325.96" y2="620.95" />
<line fill="none" stroke="#5674b9" stroke-width="0.04mm" stroke-dasharray="0.4,0.2" x1="325.96" y1="620.95" x2="327.61" y2="601.80" />
<line fill="none" stroke="#5674b9" stroke-width="0.04mm" stroke-dasharray="0.4,0.2" x1="325.96" y1="620.95" x2="324.56" y2="632.03" />
<line fill="none" stroke="#5674b9" stroke-width="0.04mm" stroke-dasharray="0.4,0.2" x1="325.96" y1="620.95" x2="363.19" y2="633.42" />
<line fill="none" stroke="#5674b9" stroke-width="0.04mm" stroke-dasharray="0.4,0.2" x1="325.96" y1="620.95" x2="350.85" y2="628.38" />
<line fill="none" stroke="#5674b9" stroke-width="0.04mm" stroke-dasharray="0.4,0.2" x1="325.96" y1="620.95" x2="350.94" y2="627.77" />
</g>
<g>
<circle cx="32.00" cy="22.00" r="0.1" fill="#111111" />
<circle cx="48.50" cy="105.63" r="0.1" fill="#111111" />
<circle cx="66.39" cy="122.51" r="0.1" fill="#111111" />
<circle cx="94.69" cy="126.92" r="0.1" fill="#111111" />
<circle cx="117.09" cy="232.66" r="0.1" fill="#111111" />
<circle cx="163.66" cy="396.22" r="0.1" fill="#111111" />
<circle cx="209.88" cy="402.93" r="0.1" fill="#111111" />
<circle cx="237.35" cy="404.42" r="0.1" fill="#111111" />
<circle cx="246.15" cy="428.30" r="0.1" fill="#111111" />
<circle cx="257.36" cy="506.45" r="0.1" fill="#111111" />
<circle cx="271.96" cy="582.01" r="0.1" fill="#111111" />
<circle cx="312.43" cy="599.60" r="0.1" fill="#111111" />
<circle cx="325.96" cy="620.95" r="0.1" fill="#111111" />
</g>
<g>
<text x="32.20" y="22.00" font-size=".2mm" fill="#000000">0</text>
<text x="48.70" y="105.63" font-size=".2mm" fill="#000000">1</text>
<text x="66.59" y="122.51" font-size=".2mm" fill="#000000">2</text>
<text x="94.89" y="126.92" font-size=".2mm" fill="#000000">3</text>
<text x="117.29" y="232.66" font-size=".2mm" fill="#000000">4</text>
<text x="163.86" y="396.22" font-size=".2mm" fill="#000000">5</text>
<text x="210.08" y="402.93" font-size=".2mm" fill="#000000">6</text>
<text x="237.55" y="404.42" font-size=".2mm" fill="#000000">7</text>
<text x="246.35" y="428.30" font-size=".2mm" fill="#000000">8</text>
<text x="257.56" y="506.45" font-size=".2mm" fill="#000000">9</text>
<text x="272.16" y="582.01" font-size=".2mm" fill="#000000">10</text>
<text x="312.63" y="599.60" font-size=".2mm" fill="#000000">11</text>
<text x="326.16" y="620.95" font-size=".2mm" fill="#000000">12</text>
</g>
<g>
</g>
</g>
</svg>