<?xml version="1.0" encoding="utf-8"?>
<!DOCTYPE svg PUBLIC "-//W3C//DTD SVG 1.1//EN" "http://www.w3.org/Graphics/SVG/1.1/DTD/svg11.dtd">
<svg version="1.1" id="Layer_1" xmlns="http://www.w3.org/2000/svg" xmlns:xlink="http://www.w3.org/1999/xlink" x="0px" y="0px" width="108mm" height="162mm" viewBox="0 0 108 162" style="background-color:#ffffff;enable-background:new 0 0 108 162;" xml:space="preserve">
<symbol id="airflow" viewBox="-12 -12 24 24">
<path d="M-4.38,10.73l4.2-3.84V3.55L-4.07,7.13l-.31-.29L-.18,3V-6.89a3.37,3.37,0,0,0-1.68.53l1.68-4.15L0-11l.21.51h0v0l1.65,4.1A3.26,3.26,0,0,0,.24-6.89v14l-.08,0L-4.07,11Z"/>
<rect fill="none" x="-12" y="-12" width="24" height="24"/>
</symbol>
<symbol id="anastomosis" viewBox="-12 -12 24 24">
<path d="M2.23-4.78l.37.24L5.22-2.78l-.47.57L2.49-3.7l-4.61,8-.24.44-.37-.34L-5.22,2.3l.55-.52,2.1,1.82L2-4.39Z"/>
<rect fill="none" x="-12" y="-12" width="24" height="24"/>
</symbol>
<symbol id="bivouac" viewBox="-12 -12 24 24">
<path d="M.25-7.66l.24.58L.54-7l3.88.48-3.31.91L6,6H8.35v.48l-16.7.07V6.05h2.64L0-7.08Zm0,1.32L-5.13,6H-4l2.07-5L.2-4l2.09,5L4.37,6H5.44Z"/>
<rect fill="none" x="-12" y="-12" width="24" height="24"/>
</symbol>
<symbol id="bones" viewBox="-12 -12 24 24">
<path d="M2.44,4.27l-.16,0H2.13a.22.22,0,0,1-.11,0l-.1-.06a.39.39,0,0,1-.09-.11l-.08-.13a1.51,1.51,0,0,1-.06-.15l-.07-.17s0-.11-.08-.19-.06-.16-.08-.21a4.75,4.75,0,0,0-.38-.71c-.18-.29-.43-.64-.74-1A11.15,11.15,0,0,0-.7.32,6.73,6.73,0,0,0-2-.64a4.12,4.12,0,0,0-1.44-.52A1.64,1.64,0,0,1-5-2.19.72.72,0,0,1-5-2.44a1,1,0,0,1,0-.29A.52.52,0,0,1-4.87-3a.54.54,0,0,1,.35-.15L-4-3.22l.46,0a.54.54,0,0,0,.27-.06A.52.52,0,0,0-3-3.56a.74.74,0,0,0,.13-.31.54.54,0,0,1,.15-.26.54.54,0,0,1,.3-.15.83.83,0,0,1,.47,0,1.11,1.11,0,0,1,.35.4A7.46,7.46,0,0,1-1-2.76q.18.42.33.72a3.22,3.22,0,0,0,.39.57L.1-1a4.77,4.77,0,0,0,.58.43c.28.18.51.33.69.43l1,.56a1.84,1.84,0,0,0,.39.23A5.29,5.29,0,0,1,3.22.9l.43.26a3.7,3.7,0,0,1,.46.3l.36.29a2.28,2.28,0,0,1,.31.32A1,1,0,0,1,5,2.4c.2.48,0,.78-.47.91h0a8.48,8.48,0,0,0-1.12.09,1,1,0,0,0-.42.44A1,1,0,0,1,2.44,4.27Z"/>
<rect fill="none" x="-12" y="-12" width="24" height="24"/>
</symbol>
<symbol id="calcite" viewBox="-12 -12 24 24">
<path d="M2.36-2.22l.05.46.34,3.91L2,2.22,1.65-1.26-2.52-.06l-.23-.7L1.89-2.08Z"/>
<rect fill="none" x="-12" y="-12" width="24" height="24"/>
</symbol>
<symbol id="cauliflower" viewBox="-12 -12 24 24">
<path d="M5.58,3.22v-3A2.12,2.12,0,0,0,6.92-.43a1.78,1.78,0,0,0,.55-1.32,1.92,1.92,0,0,0-.65-1.42,2.19,2.19,0,0,0-1.53-.59,2.21,2.21,0,0,0-1.54.59,1.78,1.78,0,0,0-.64,1.42A1.86,1.86,0,0,0,3.65-.43,2.12,2.12,0,0,0,5,.23v3H.26v-3A2.17,2.17,0,0,0,1.61-.43a1.81,1.81,0,0,0,.54-1.32,1.91,1.91,0,0,0-.64-1.42A2.21,2.21,0,0,0,0-3.76a2.21,2.21,0,0,0-1.54.59,1.82,1.82,0,0,0-.64,1.42A1.83,1.83,0,0,0-1.66-.43,2.12,2.12,0,0,0-.32.23v3H-5v-3A2.12,2.12,0,0,0-3.71-.43a1.78,1.78,0,0,0,.55-1.32,1.92,1.92,0,0,0-.65-1.42,2.19,2.19,0,0,0-1.53-.59,2.21,2.21,0,0,0-1.54.59,1.83,1.83,0,0,0-.65,1.42A1.87,1.87,0,0,0-7-.43,2.12,2.12,0,0,0-5.64.23v3H-8v.54H8V3.22Z"/>
<rect fill="none" x="-12" y="-12" width="24" height="24"/>
</symbol>
<symbol id="clay" viewBox="-12 -12 24 24">
<path d="M1.85-1.33a3,3,0,0,1,1.67.48,3.23,3.23,0,0,1,1,1l.29.51-1,.43a3.81,3.81,0,0,0-.23-.4A3.74,3.74,0,0,0,2.93,0,1.77,1.77,0,0,0,1.85-.32a2.57,2.57,0,0,0-1.1.15A.86.86,0,0,0,.51.14,2.23,2.23,0,0,1,0,.88a2.55,2.55,0,0,1-1.45.43,3.16,3.16,0,0,1-2.75-1,4.28,4.28,0,0,1-.37-.57,3.91,3.91,0,0,1-.21-.47l0-.16,1-.22a1.87,1.87,0,0,0,.45.79A2.12,2.12,0,0,0-1.51.33,1.82,1.82,0,0,0-.69.14l.21-.36A1.53,1.53,0,0,1,.17-1,3.76,3.76,0,0,1,1.85-1.33Z"/>
<rect fill="none" x="-12" y="-12" width="24" height="24"/>
</symbol>
<symbol id="crystals" viewBox="-12 -12 24 24">
<path d="M-2.94-5.38,0-.72,2.94-5.38,3.62-5,.68-.36H6.56V.36H.68L3.62,5l-.68.36L0,.72-2.94,5.38-3.62,5-.68.36H-6.56V-.36H-.68L-3.62-5Z"/>
<rect fill="none" x="-12" y="-12" width="24" height="24"/>
</symbol>
<symbol id="curtain" viewBox="-12 -12 24 24">
<path d="M3.57-6.69l.52.53L.39-3V-.33L.1-.26a3.79,3.79,0,0,0-1,.41c-.58.3-.87.65-.87,1v.07A1.61,1.61,0,0,0-.84,2.48a3.69,3.69,0,0,0,.45.24L0,2.86l.13.05L.39,3V6.12H-.39V3.51a7.65,7.65,0,0,1-.9-.46A2.19,2.19,0,0,1-2.54,1.28V1.23A2,2,0,0,1-1.31-.48,5.32,5.32,0,0,1-.39-.86V-3l-3.7-3.14.52-.53L0-3.67Z"/>
<rect fill="none" x="-12" y="-12" width="24" height="24"/>
</symbol>
<symbol id="disk" viewBox="-12 -12 24 24">
<path d="M-.09-4.19a2.43,2.43,0,0,1,1.7.64A2,2,0,0,1,2.35-2,2.09,2.09,0,0,1,1.81-.55,2.44,2.44,0,0,1,.35.23l2.18,3.6-.68.33L0,1.14-1.48,4.19l-.71-.29L-.41.25A2.53,2.53,0,0,1-1.9-.47a2,2,0,0,1-.63-1.41,2,2,0,0,1,.67-1.61,2.46,2.46,0,0,1,1.72-.7ZM1.05-3.06.56-3.49l-.69,0A1.72,1.72,0,0,0-1.29-3a1.51,1.51,0,0,0-.45,1.08,1.36,1.36,0,0,0,.51,1A1.68,1.68,0,0,0-.07-.44v0l0,0A1.7,1.7,0,0,0,1.11-.92,1.36,1.36,0,0,0,1.56-2,1.47,1.47,0,0,0,1.05-3.06Z"/>
<rect fill="none" x="-12" y="-12" width="24" height="24"/>
</symbol>
<symbol id="entrance" viewBox="-12 -12 24 24">
<path d="M4.46,9H-4.46L0-9Z"/>
<rect fill="none" x="-12" y="-12" width="24" height="24"/>
</symbol>
<symbol id="flowstone" viewBox="-12 -12 24 24">
<rect x="-6" y="-0.21" width="12" height="0.42"/>
<rect fill="none" x="-12" y="-12" width="24" height="24"/>
</symbol>
<symbol id="flutes" viewBox="-12 -12 24 24">
<path d="M-7-1H7v.72H3.87A4.7,4.7,0,0,1,2.16,1.5,4.2,4.2,0,0,1,0,2.13,3.94,3.94,0,0,1-2.19,1.5,4.18,4.18,0,0,1-3.76-.27H-7Zm4.17.72A3.15,3.15,0,0,0-1.65,1,3.21,3.21,0,0,0,0,1.41,3.49,3.49,0,0,0,1.6,1,3.68,3.68,0,0,0,3-.27Z"/>
<rect fill="none" x="-12" y="-12" width="24" height="24"/>
</symbol>
<symbol id="gradient" viewBox="-12 -12 24 24">
<path d="M2.58-3.83,0-10-2.58-3.83A4.74,4.74,0,0,1-.17-4.5V10H.25V-4.5A6.65,6.65,0,0,1,2.58-3.83Z"/>
<rect fill="none" x="-12" y="-12" width="24" height="24"/>
</symbol>
<symbol id="guano" viewBox="-12 -12 24 24">
<path d="M-3.24-3a2.15,2.15,0,0,1,1.57.55A3.93,3.93,0,0,1-.59.24a4.32,4.32,0,0,1,2.75-2.3,2.68,2.68,0,0,1,2.23.36A2.36,2.36,0,0,1,5.5.19l-.79,0a1.72,1.72,0,0,0-.79-1.37,1.94,1.94,0,0,0-1.55-.24A3.53,3.53,0,0,0,.48,0,6.63,6.63,0,0,0-.69,3l-.79-.09a10.72,10.72,0,0,0,0-3.16A3.21,3.21,0,0,0-2.22-2,1.44,1.44,0,0,0-3.37-2.3,3.45,3.45,0,0,0-5-1.54l-.5-.55a4.29,4.29,0,0,1,2-.91A.9.9,0,0,1-3.24-3Z"/>
<rect fill="none" x="-12" y="-12" width="24" height="24"/>
</symbol>
<symbol id="helictites" viewBox="-12 -12 24 24">
<path d="M-4.59-7.92h.79v7.7l3.41,0V-7.92H.39V-.17L4.2-.12h.39v8H3.8V.6L.39.55V7.92H-.39V.55L-4.2.5l-.39,0v-8.4Z"/>
<rect fill="none" x="-12" y="-12" width="24" height="24"/>
</symbol>
<symbol id="human" viewBox="-12 -12 24 24">
<path d="M-3.59-3.29A5.13,5.13,0,0,1,0-4.66,5.13,5.13,0,0,1,3.59-3.29,4.3,4.3,0,0,1,5.09,0a4.3,4.3,0,0,1-1.5,3.29A5.13,5.13,0,0,1,0,4.66,5.13,5.13,0,0,1-3.59,3.29,4.3,4.3,0,0,1-5.09,0,4.3,4.3,0,0,1-3.59-3.29Zm.28.77A3.68,3.68,0,0,0-4.3,0a3.62,3.62,0,0,0,1,2.57L-.5.05ZM0-3.94A4.42,4.42,0,0,0-2.75-3L.16-.36H4.28A3.62,3.62,0,0,0,2.91-2.9,4.38,4.38,0,0,0,0-3.94ZM.16.46-2.7,3.07A4.42,4.42,0,0,0,0,3.94a4.37,4.37,0,0,0,2.87-1A3.78,3.78,0,0,0,4.28.46Z"/>
<rect fill="none" x="-12" y="-12" width="24" height="24"/>
</symbol>
<symbol id="karren" viewBox="-12 -12 24 24">
<path d="M1-5.84h0a1.37,1.37,0,0,1,1.06.68A3.33,3.33,0,0,1,2.5-3.79,25.79,25.79,0,0,1,2.36,0a18.61,18.61,0,0,0-.08,3.72,2.68,2.68,0,0,0,.41,1.2,1.13,1.13,0,0,0,.79.5A.92.92,0,0,0,4,4.94a4.43,4.43,0,0,0,.47-1.22c.16-.64.36-1.86.59-3.66a26.71,26.71,0,0,1,.64-3.69,4.62,4.62,0,0,1,.57-1.29,1.34,1.34,0,0,1,1-.59h0A1.28,1.28,0,0,1,8.37-5a2.17,2.17,0,0,1,.39,1.15A19.91,19.91,0,0,1,8.54-.53a21.51,21.51,0,0,0-.2,3.64A2.64,2.64,0,0,0,9.45,5.36,1.91,1.91,0,0,0,10.88,5a3.84,3.84,0,0,0,.7-1l.42.2-.1.18-.12.21-.11.18L11.52,5a.94.94,0,0,1-.14.16c-.06.07-.13.12-.19.18a2.5,2.5,0,0,1-1.85.41H9.29l0,0A3.06,3.06,0,0,1,7.87,3.13a22.11,22.11,0,0,1,.2-3.7,18.17,18.17,0,0,0,.22-3.28A1.85,1.85,0,0,0,8-4.79a.77.77,0,0,0-.67-.3.93.93,0,0,0-.64.42,4.51,4.51,0,0,0-.51,1.15A26.26,26.26,0,0,0,5.54.1c-.24,1.83-.45,3.07-.61,3.72a5.38,5.38,0,0,1-.51,1.34,1.33,1.33,0,0,1-.89.68H3.47A1.58,1.58,0,0,1,2.3,5.16a3.29,3.29,0,0,1-.49-1.4A20.27,20.27,0,0,1,1.89,0,23.45,23.45,0,0,0,2-3.75a2.94,2.94,0,0,0-.32-1.19A.93.93,0,0,0,1-5.42,1.1,1.1,0,0,0,.19-5,3.69,3.69,0,0,0-.43-3.76,20.78,20.78,0,0,0-1.07.07c-.2,2-.37,3.32-.49,3.86A4.48,4.48,0,0,1-2,5.26,1.06,1.06,0,0,1-3,5.81h0a1.9,1.9,0,0,1-1.29-.67,2.7,2.7,0,0,1-.58-1.31,14.92,14.92,0,0,1,0-3.6q0-.12.06-.54c0-.28,0-.47,0-.57s0-.28,0-.52,0-.42,0-.55,0-.28,0-.47,0-.36,0-.51,0-.29,0-.43A3.09,3.09,0,0,0-5-4.62a1.19,1.19,0,0,0-.67-.6,1.5,1.5,0,0,0-1.2.9A7,7,0,0,0-7.41-2.1c0,.39-.1,1-.14,1.76s-.11,1.47-.18,2.08A9.61,9.61,0,0,1-8,3.32h0l0,0A2.81,2.81,0,0,1-9.2,4.62a1.82,1.82,0,0,1-1.35.15A1.94,1.94,0,0,1-11.61,4,2.39,2.39,0,0,1-12,2.56l.47,0a1.92,1.92,0,0,0,.31,1.16,1.47,1.47,0,0,0,.81.62,1.3,1.3,0,0,0,1-.11A2.32,2.32,0,0,0-8.5,3.18a7.53,7.53,0,0,0,.29-1.5Q-8.1.8-8-.36c0-.78.1-1.37.16-1.78A7.23,7.23,0,0,1-7.28-4.5,1.93,1.93,0,0,1-5.65-5.66h.05l0,0a1.59,1.59,0,0,1,1,.84,3.47,3.47,0,0,1,.34,1.41,4.91,4.91,0,0,1,0,.57v.54c0,.15,0,.37,0,.66s0,.47,0,.58,0,.33-.06.68,0,.56-.06.63a14.78,14.78,0,0,0,0,3.49,2.58,2.58,0,0,0,.5,1.13,1.57,1.57,0,0,0,1,.5A.61.61,0,0,0-2.44,5,3.89,3.89,0,0,0-2,3.85C-1.9,3.31-1.74,2-1.53,0A20.65,20.65,0,0,1-.86-3.89,3.89,3.89,0,0,1-.18-5.26,1.58,1.58,0,0,1,1-5.84Z"/>
<rect fill="none" x="-12" y="-12" width="24" height="24"/>
</symbol>
<symbol id="moonmilk" viewBox="-12 -12 24 24">
<path d="M-4.78-3.06a3.39,3.39,0,0,1,1.5.34,2.48,2.48,0,0,1,1.1,1,3.74,3.74,0,0,1,1.62-.8,3.52,3.52,0,0,1,1.71,0,2.9,2.9,0,0,1,1.39.77A2.49,2.49,0,0,1,3.25-.37,4,4,0,0,1,5-.76a3.58,3.58,0,0,1,1.6.36A2.84,2.84,0,0,1,7.88.92a2.32,2.32,0,0,1,0,1.88.34.34,0,0,1-.37.26A.36.36,0,0,1,7.25,3a.32.32,0,0,1-.12-.25.21.21,0,0,1,0-.12,2,2,0,0,0,0-1.43,2,2,0,0,0-1-.9A2.81,2.81,0,0,0,4.68,0,2.78,2.78,0,0,0,3.12.56L2.46.25A1.7,1.7,0,0,0,2.15-1.1,2.15,2.15,0,0,0,1-1.81a2.85,2.85,0,0,0-1.58.06A3,3,0,0,0-2-.83l-.71-.12A1.74,1.74,0,0,0-3.55-2a2.36,2.36,0,0,0-1.39-.27,3.08,3.08,0,0,0-1.45.53A2.33,2.33,0,0,0-7.32-.56a.35.35,0,0,1-.37.24A.39.39,0,0,1-8-.42a.33.33,0,0,1-.1-.26v-.1A3,3,0,0,1-6.89-2.35,4,4,0,0,1-5-3Z"/>
<rect fill="none" x="-12" y="-12" width="24" height="24"/>
</symbol>
<symbol id="narrow" viewBox="-12 -12 24 24">
<path d="M-1.5,5V-5h0.64V5H-1.5z"/>
<path d="M0.86,5V-5H1.5V5H0.86z"/>
<rect fill="none" x="-12" y="-12" width="24" height="24"/>
</symbol>
<symbol id="paleoflow" viewBox="-12 -12 24 24">
<path d="M.38-12V.17A1.9,1.9,0,0,0,1,0,1.57,1.57,0,0,0,1.7-.72a1.86,1.86,0,0,0,.23-1c0-.09,0-.14.08-.16a.92.92,0,0,1,.24,0,.52.52,0,0,0,.25,0h.08A2.48,2.48,0,0,1,2,0,2.5,2.5,0,0,1,.38.77V7.21H2.09L0,12-1.8,7.23c.07,0,.59,0,1.53,0V.77A3,3,0,0,1-1.35.43a2.16,2.16,0,0,1-1-1,2.38,2.38,0,0,1-.24-1.33l.67,0a2,2,0,0,0,.15,1,1.73,1.73,0,0,0,.59.67A2.14,2.14,0,0,0-.27.16V-12Z"/>
<rect fill="none" x="-12" y="-12" width="24" height="24"/>
</symbol>
<symbol id="rain" viewBox="-12 -12 24 24">
<path d="M-4.14-6.34h0.71v4.69h-0.71V-6.34z"/>
<path d="M-0.35-6.34h0.71v4.69h-0.71V-6.34z"/>
<path d="M3.43-6.34h0.71v4.69H3.43V-6.34z"/>
<path d="M-4.14,1.65h0.71v4.69h-0.71V1.65z"/>
<path d="M-0.35,1.65h0.71v4.69h-0.71V1.65z"/>
<path d="M3.43,1.65h0.71v4.69H3.43V1.65z"/>
<rect fill="none" x="-12" y="-12" width="24" height="24"/>
</symbol>
<symbol id="rats" viewBox="-12 -12 24 24">
<path d="M8.78-2.32,7-2.27c-.51-.17-.65-.56-1.46-.45l-.25.45C3.59-2.75,2.59-3.66.56-3.62l-1.35.3A4.89,4.89,0,0,0-4.24,1.57c-.68.6-2.58.86-3.39.94a6.84,6.84,0,0,0-1.62.39,4.91,4.91,0,0,0-1,.52A1.75,1.75,0,0,0-11,4.61a1.16,1.16,0,0,0,.59,1.48,1.3,1.3,0,0,1,.14.12c.16-.52-.35-.92-.2-1.42a3.35,3.35,0,0,1,.27-.45,3.18,3.18,0,0,1,1.79-1c.63-.12,1.27-.22,1.91-.3.48-.07,1,0,1.4-.12A6.94,6.94,0,0,1-4,2.82,30.64,30.64,0,0,0,.41,2.69l2.16.15c.1-.09,0,0,.1-.15a.87.87,0,0,0-.9-.55c.86-1,2.27-.37,3.1-.05.5.19,1,0,1.25.4.11-.1.1-.07.15-.25.3,0,.31.07.6.15-.06-.49-.34-.64-1-.6a.78.78,0,0,1,0-.55C6.3.56,7.29.73,8.13.43a13.78,13.78,0,0,0,2.15-.9l.6-.85v-.2A16.9,16.9,0,0,0,8.78-2.32Z"/>
<rect fill="none" x="-12" y="-12" width="24" height="24"/>
</symbol>
<symbol id="sand" viewBox="-12 -12 24 24">
<path d="M-1.58,0.83c0.23,0.2,0.35,0.44,0.36,0.73c0.01,0.29-0.08,0.54-0.28,0.75c-0.2,0.21-0.46,0.32-0.78,0.33c-0.32,0.01-0.6-0.08-0.83-0.26C-3.36,2.19-3.49,1.95-3.5,1.67C-3.51,1.38-3.41,1.12-3.2,0.9c0.21-0.22,0.48-0.34,0.8-0.35C-2.08,0.54-1.81,0.64-1.58,0.83z"/>
<path d="M0.08-2.36c0.23,0.2,0.35,0.44,0.36,0.73c0.01,0.29-0.08,0.54-0.28,0.75c-0.2,0.21-0.46,0.32-0.78,0.33c-0.32,0.01-0.59-0.07-0.83-0.26s-0.37-0.42-0.38-0.71c-0.01-0.29,0.09-0.54,0.3-0.76c0.21-0.22,0.48-0.33,0.8-0.35C-0.42-2.65-0.14-2.56,0.08-2.36z"/>
<path d="M3.12,0.55c0.23,0.2,0.35,0.43,0.38,0.71c0.02,0.28-0.07,0.53-0.28,0.75C3,2.23,2.73,2.35,2.42,2.36C2.1,2.37,1.82,2.28,1.58,2.08C1.34,1.88,1.22,1.64,1.2,1.35c-0.01-0.29,0.09-0.54,0.3-0.75C1.72,0.4,1.99,0.29,2.3,0.28S2.89,0.36,3.12,0.55z"/>
<rect fill="none" x="-12" y="-12" width="24" height="24"/>
</symbol>
<symbol  id="scallops" viewBox="-12 -12 24 24">
<path d="M.05-3.74l.21,0A2.35,2.35,0,0,1,1.74-3a2,2,0,0,1,.59,1.55v0l0,0A9.59,9.59,0,0,1-.08,3.27l-.39.47-.27-.55A14.26,14.26,0,0,1-2.33-1.89v-.05l0-.05A2,2,0,0,1-1.44-3.3,2.42,2.42,0,0,1,.05-3.74ZM-.11-3A1.44,1.44,0,0,0-1.55-1.89,13.06,13.06,0,0,0-.29,2.33,8.6,8.6,0,0,0,1.55-1.54a1.41,1.41,0,0,0-.38-1A1.62,1.62,0,0,0,.18-3Z"/>
<rect fill="none" x="-12" y="-12" width="24" height="24"/>
</symbol>
<symbol  id="sink" viewBox="-12 -12 24 24">
<path d="M.72,9.41H.9c1.94,0,3.26-.54,3.94-1.51a3.61,3.61,0,0,0,.33-.69,2,2,0,0,0,.11-.54V6.46l.69,0a2.8,2.8,0,0,1-.58,1.78C4.58,9.39,3.1,10,.93,10H-.93q-3.25,0-4.46-1.8a2.74,2.74,0,0,1-.43-.83A2.37,2.37,0,0,1-6,6.67V6.43l.68,0A2.27,2.27,0,0,0-4.84,7.9c.68,1,2,1.47,3.93,1.48l.5,0ZM-1.46-10a.68.68,0,0,0,.16.41A2.77,2.77,0,0,0-.51-9l0,0a3.63,3.63,0,0,1,1,.7,1.15,1.15,0,0,1,.34.88c0,.58-.53,1.14-1.49,1.68-.68.42-1,.79-1,1.11s.3.61.84,1h0Q.61-2.86.46-1.78a3.51,3.51,0,0,1-1.55,2,.61.61,0,0,0-.26.41,1.67,1.67,0,0,0,.1.51,5.3,5.3,0,0,1,.32,1L.56,1.9.46,8.06-3.4,2.54l1.73-.28A6.16,6.16,0,0,0-2,1.39,1.7,1.7,0,0,1-2.09.58a1.21,1.21,0,0,1,.53-.82h0v0C-.75-.86-.33-1.38-.28-1.85s-.23-.87-.91-1.27h0C-2-3.6-2.37-4.1-2.4-4.61S-2-5.74-1.09-6.29C-.34-6.72.06-7.1.09-7.44a.67.67,0,0,0-.18-.43,3.17,3.17,0,0,0-.79-.58,2.93,2.93,0,0,1-1-.67A1.16,1.16,0,0,1-2.17-10Z"/>
<rect fill="none" x="-12" y="-12" width="24" height="24"/>
</symbol>
<symbol  id="spring" viewBox="-12 -12 24 24">
<path d="M-1.34-9.86,2.52-4.34.78-4.06a8,8,0,0,0,.29.87,1.4,1.4,0,0,1,.13.79,1.3,1.3,0,0,1-.52.84l0,0v0C-.13-.95-.55-.42-.61,0S-.37.91.31,1.3l0,0c.75.46,1.14,1,1.18,1.46S1.12,3.92.21,4.46C-.54,4.9-.94,5.29-1,5.64a.74.74,0,0,0,.18.43A3.2,3.2,0,0,0,0,6.62a3,3,0,0,1,1,.7,1.14,1.14,0,0,1,.31.86A1.74,1.74,0,0,1,.71,9.26H.92c1.92,0,3.22-.52,3.9-1.51a2.05,2.05,0,0,0,.35-.67,2.59,2.59,0,0,0,.1-.55l0-.19.65,0a2.84,2.84,0,0,1-.55,1.8C4.58,9.26,3.08,9.85.92,9.86H-.92c-2.17,0-3.66-.6-4.49-1.77a3.65,3.65,0,0,1-.4-.85A2.43,2.43,0,0,1-6,6.53V6.29l.66,0a2.08,2.08,0,0,0,.47,1.41c.68,1,2,1.5,3.91,1.51H-.4c.62-.43.94-.8,1-1.1a.76.76,0,0,0-.16-.43,3.25,3.25,0,0,0-.79-.51v0a3.8,3.8,0,0,1-1-.7,1.15,1.15,0,0,1-.34-.91q.06-.84,1.5-1.68c.68-.4,1-.77,1-1.1S.49,2.21,0,1.87c0,0,0,0,0,0C-1,1.32-1.44.69-1.34,0a3.58,3.58,0,0,1,1.55-2,.54.54,0,0,0,.23-.38A1.28,1.28,0,0,0,.37-3a4.57,4.57,0,0,1-.32-1l-1.49.24Z"/>
<rect fill="none" x="-12" y="-12" width="24" height="24"/>
</symbol>
<symbol  id="stalactite" viewBox="-12 -12 24 24">
<path d="M3.57-6.69l.52.53L.39-3V6.12H-.39V-3l-3.7-3.14.52-.53L0-3.67Z"/>
<rect fill="none" x="-12" y="-12" width="24" height="24"/>
</symbol>
<symbol  id="stalagmite" viewBox="-12 -12 24 24">
<path d="M.38-6.42V2.75L4.11,5.89l-.56.53L0,3.4l-3.57,3-.53-.53,3.7-3.14V-6.42Z"/>
<rect fill="none" x="-12" y="-12" width="24" height="24"/>
</symbol>
<symbol  id="stalagnate" viewBox="-12 -12 24 24">
<path d="M3.55-8.46l.56.53L.38-4.78v9L4.11,7.36l-.56.53L0,4.86l-3.57,3-.53-.53,3.7-3.14v-9l-3.7-3.15.53-.53L0-5.43Z"/>
<rect fill="none" x="-12" y="-12" width="24" height="24"/>
</symbol>
<symbol  id="straws" viewBox="-12 -12 24 24">
<path d="M-10.89-2.76H10.89V-2H9.63V.46H8.84V-2H8.29v5.6H7.5V-2H5.56V.7H4.77V-2H2.07V2.38H1.29V-2H-.1v3H-.89V-2H-3.2V4.11H-4V-2H-6.22L-6.16.75l-.79,0L-7-2H-8.32V2.33H-9.1V-2h-1.79Z"/>
<rect fill="none" x="-12" y="-12" width="24" height="24"/>
</symbol>
<symbol  id="water" viewBox="-12 -12 24 24">
<path d="M-1.72-9.86,2.11-4.32.38-4.06a6.49,6.49,0,0,0,.29.89,1.5,1.5,0,0,1,.13.79,1.2,1.2,0,0,1-.5.82h0l0,0C-.54-.94-1-.42-1,.05s.24.89.92,1.27h0c.77.48,1.17,1,1.19,1.49S.71,3.94-.2,4.49c-.75.43-1.13.81-1.15,1.15a.51.51,0,0,0,.18.43,2.66,2.66,0,0,0,.76.58,2.93,2.93,0,0,1,1,.67,1.16,1.16,0,0,1,.29.89C.84,8.75.42,9.3-.41,9.86l-.44-.55c.66-.45,1-.83,1-1.15A.47.47,0,0,0,0,7.75a2.84,2.84,0,0,0-.78-.53h0a3.87,3.87,0,0,1-1-.69,1.24,1.24,0,0,1-.34-.91c0-.58.54-1.14,1.52-1.68.66-.42,1-.79,1-1.11s-.3-.61-.84-1h0Q-1.9,1.06-1.74,0a3.44,3.44,0,0,1,1.54-2,.67.67,0,0,0,.27-.41A1.11,1.11,0,0,0,0-3a4.33,4.33,0,0,1-.31-1l-1.5.24Z"/>
<rect fill="none" x="-12" y="-12" width="24" height="24"/>
</symbol><symbol  id="tree" viewBox="-12 -12 24 24">
<path d="M7.4-5.04A4.271,4.271,0,0,0,7.7-6.627a4.3,4.3,0,0,0-4.3-4.3A4.279,4.279,0,0,0,.636-9.914,4.293,4.293,0,0,0-3.045-12a4.3,4.3,0,0,0-4.3,4.3,4.27,4.27,0,0,0,.421,1.845,4.3,4.3,0,0,0-3.645,4.244,4.3,4.3,0,0,0,4.3,4.3A4.282,4.282,0,0,0-3.946,2L-1.175,5.23h0L-1.612,12H.982L.757,6.376,4.119,2.827v0a4.272,4.272,0,0,0,2.15.58,4.3,4.3,0,0,0,4.3-4.3A4.3,4.3,0,0,0,7.4-5.04ZM-3.346,1.538h0A4.346,4.346,0,0,0-2.7.788a4.266,4.266,0,0,0,1.765.753l-.135,2.087ZM.69,4.7.563,1.544A4.258,4.258,0,0,0,2.321.805,4.3,4.3,0,0,0,3.378,2.279Z"/>
<rect fill="none" x="-12" y="-12" width="24" height="24"/>
</symbol><g>
<desc></desc>
<g>
<line fill="none" stroke="#dddddd" stroke-width="0.1mm" x1="0.00" y1="20.00" x2="108.00" y2="20.00" />
<text x="105.20" y="19.80" font-size=".2mm" fill="#000000">0m</text>
<line fill="none" stroke="#dddddd" stroke-width="0.1mm" x1="0.00" y1="40.00" x2="108.00" y2="40.00" />
<text x="105.20" y="39.80" font-size=".2mm" fill="#000000">-10m</text>
<line fill="none" stroke="#dddddd" stroke-width="0.1mm" x1="0.00" y1="60.00" x2="108.00" y2="60.00" />
<text x="105.20" y="59.80" font-size=".2mm" fill="#000000">-20m</text>
<line fill="none" stroke="#dddddd" stroke-width="0.1mm" x1="0.00" y1="80.00" x2="108.00" y2="80.00" />
<text x="105.20" y="79.80" font-size=".2mm" fill="#000000">-30m</text>
<line fill="none" stroke="#dddddd" stroke-width="0.1mm" x1="0.00" y1="100.00" x2="108.00" y2="100.00" />
<text x="105.20" y="99.80" font-size=".2mm" fill="#000000">-40m</text>
<line fill="none" stroke="#dddddd" stroke-width="0.1mm" x1="0.00" y1="120.00" x2="108.00" y2="120.00" />
<text x="105.20" y="119.80" font-size=".2mm" fill="#000000">-50m</text>
<line fill="none" stroke="#dddddd" stroke-width="0.1mm" x1="0.00" y1="140.00" x2="108.00" y2="140.00" />
<text x="105.20" y="139.80" font-size=".2mm" fill="#000000">-60m</text>
<line fill="none" stroke="#dddddd" stroke-width="0.1mm" x1="0.00" y1="160.00" x2="108.00" y2="160.00" />
<text x="105.20" y="159.80" font-size=".2mm" fill="#000000">-70m</text>
</g>
<g>
<path fill="none" stroke="#000000" stroke-width="0.06mm" d="M28.894955,26.17833 L28.895355,26.160894" /><path fill="none" stroke="#000000" stroke-width="0.06mm" d="M28.946787,26.078314 L28.721882,26.304348" /><path fill="none" stroke="#000000" stroke-width="0.06mm" d="M48.700607,100.95926 L48.70124,100.95519" /><path fill="none" stroke="#000000" stroke-width="0.02mm" d="M47.384315,90.20774 L47.507153,90.184875" /><path fill="none" stroke="#000000" stroke-width="0.02mm" d="M47.628723,90.259445 L47.695156,90.30708" /><path fill="none" stroke="#000000" stroke-width="0.06mm" d="M41.155594,62.0642 C41.457886,62.640545 41.662575,63.279774 42.06246,63.793236 C43.31475,65.401184 44.6528,66.94808 46.086975,68.39614 C46.734367,69.049805 47.567924,69.48935 48.280396,70.071396 C48.60177,70.33394 49.41967,71.519684 49.472,71.605316 C53.881996,78.82296 42.972893,62.310715 53.425243,78.66072 C54.07821,79.68212 54.94952,80.54858 55.645676,81.541046 C56.452644,82.69148 57.106937,83.94531 57.930676,85.08381 C58.28241,85.56995 58.78954,85.92673 59.160244,86.39856 C59.574074,86.92528 59.881065,87.52887 60.27648,88.06956 C60.444424,88.2992 60.778423,88.56635 61.034645,88.70413 C61.289577,88.84122 61.571507,88.92655 61.819233,89.07627 C62.02767,89.202255 62.213802,89.363396 62.39489,89.52626 C63.451073,90.476166 63.56274,92.037834 64.45006,93.12972 C64.60475,93.3201 65.01259,93.51939 65.141815,93.59823 L65.141815,93.59823" /><path fill="none" stroke="#000000" stroke-width="0.06mm" d="M47.677124,100.60816 C48.15282,100.514084 48.624115,100.39409 49.104218,100.325935 C49.286037,100.300125 49.47153,100.32413 49.655144,100.32736 C50.59046,100.34387 51.526466,100.342064 52.46093,100.38518 C52.669956,100.39482 53.47121,100.63899 53.576942,100.66066 C54.314705,100.81186 55.06648,100.89468 55.798706,101.07073 C56.77275,101.30493 58.225082,101.64358 58.72738,102.6932 C59.021305,103.3074 58.902386,104.02442 58.821033,104.668175 L58.821033,104.668175" /><path fill="none" stroke="#924216" stroke-width="0.06mm" d="M59.194927,104.61408 C58.794083,105.9266 59.039936,107.33218 58.794495,108.67405 C58.669556,109.35713 58.50735,110.03479 58.303417,110.69858 C58.188747,111.07181 58.007935,111.4218 57.841766,111.77512 C57.670143,112.140045 57.60963,112.07145 57.532104,112.40182 C57.366955,113.10559 57.628063,113.27302 57.72698,114.07147 C57.846287,115.03451 57.4665,114.85523 57.51495,116.04461 C57.550117,116.90799 57.704464,117.763985 57.862587,118.613495 C57.992607,119.31204 58.274837,120.232735 58.67719,120.86016 C60.513054,123.65404 62.348923,126.44792 64.184784,129.24179 C64.3739,129.57152 64.55098,129.90843 64.75214,130.23093 C65.11983,130.82047 66.047165,131.4267 66.39937,131.73483 C66.56585,131.88048 66.650856,132.1484 66.73397,132.33806 L66.73397,132.33806" /><path fill="none" stroke="#924216" stroke-width="0.06mm" d="M68.9608,101.42504 C68.99325,101.6502 68.9879,101.75782 69.0754,101.95135 C69.81752,103.59266 70.88269,105.62299 71.397095,107.44823 C71.81771,108.94069 71.755165,109.90615 72.423515,111.17364 C72.868675,112.01786 73.43119,112.796936 73.87154,113.64368 C74.800705,115.43036 73.97989,114.37812 74.68059,115.44738 C74.98558,115.91278 75.815414,116.17721 76.171616,116.3874 C76.29985,116.463066 76.41399,116.56188 76.52235,116.663994 C76.683975,116.8163 76.82681,116.9874 76.97949,117.148674 C77.06206,117.23589 77.154076,117.31487 77.22806,117.40947 C77.3125,117.51745 77.38009,117.63765 77.45279,117.75386 C77.668594,118.09884 77.872734,118.451126 78.09351,118.79294 C78.150696,118.88147 78.239845,118.983795 78.33357,119.04283 C78.45283,119.11795 78.59032,119.14908 78.695786,119.24646 C78.91994,119.45344 78.97006,119.735664 78.99159,120.033295 C79.00473,120.21496 79.021164,120.39924 78.99639,120.57967 C78.82173,121.8518 78.49877,121.89965 77.90939,123.19457 C77.60925,123.85399 77.34273,124.529144 77.10025,125.21186 C76.79497,126.0714 76.56094,126.95487 76.26715,127.81841 C76.22889,127.93088 76.180954,128.0443 76.10542,128.13599 C75.80499,128.5007 75.46765,128.83337 75.14599,129.1795 C74.940575,129.40057 74.72595,129.61307 74.52424,129.83752 C74.48715,129.87878 74.39858,130.02151 74.38979,130.08527 C74.2864,130.83508 74.21623,131.58925 74.11185,132.33893 C74.09074,132.49055 74.10359,132.66373 74.013535,132.78754 C73.92833,132.9047 73.759796,132.9274 73.632935,132.99733 L73.632935,132.99733" /><path fill="none" stroke="#924216" stroke-width="0.06mm" d="M66.7378,132.04291 C66.88693,132.15985 67.04524,132.26595 67.18521,132.39372 C67.51971,132.69911 67.90146,132.96864 68.1595,133.34088 C68.752365,134.19608 69.179596,135.15533 69.71727,136.04626 C69.783905,136.15671 69.87648,136.2503 69.96934,136.33981 C70.09265,136.45868 70.23218,136.5595 70.363594,136.66933 L70.363594,136.66933" /><path fill="none" stroke="#924216" stroke-width="0.06mm" d="M73.78242,133.10083 C73.5817,133.39893 73.68317,133.2044 73.56395,133.72177 L73.56395,133.72177" /><path fill="none" stroke="#924216" stroke-width="0.06mm" d="M76.81059,160.91138 C76.83359,160.61758 76.749405,160.68073 76.983,160.6468 L76.983,160.6468" /><path fill="none" stroke="#924216" stroke-width="0.06mm" d="M70.03009,136.57927 C70.211845,136.54768 70.32268,136.56174 70.48453,136.62051 C70.578445,136.6546 70.668434,136.70218 70.7661,136.72324 C71.25108,136.82782 71.739655,136.91592 72.22917,136.99669 C72.293655,137.00732 72.3599,136.99844 72.42524,136.99692 C72.78996,136.98846 73.15447,136.96396 73.51928,136.9668 C73.59944,136.9674 73.67746,136.99292 73.756325,137.00726 C73.86751,137.0275 73.97747,137.05486 74.089386,137.07053 C74.26419,137.09503 74.779594,137.09698 75.05603,137.21848 C75.38599,137.3635 75.96472,137.98453 75.992294,138.00623 C76.2655,138.19388 76.5387,138.38153 76.811905,138.56917 C76.963425,138.658 77.128204,138.72736 77.26648,138.83568 C77.48074,139.00351 77.64771,139.22684 77.86342,139.39282 C78.06788,139.55016 78.31279,139.64865 78.52097,139.80106 C80.88274,141.52975 77.854095,139.52255 80.26994,141.0282 C80.3096,141.05292 80.343475,141.08658 80.374725,141.12132 C80.5006,141.26128 80.60918,141.41672 80.7406,141.55147 C80.863846,141.67783 81.05953,141.80313 81.21951,141.8802 C81.45613,141.9942 81.72826,141.97763 81.981674,142.00186 C82.42355,142.04414 82.86298,142.11661 83.30634,142.13858 C83.76446,142.16129 83.84631,142.04648 84.20603,142.1313 C84.450836,142.18903 84.69115,142.26436 84.9337,142.3309 C85.29874,142.39862 85.66534,142.45847 86.028824,142.53412 C86.15115,142.55957 86.262344,142.65933 86.37027,142.70506 C86.463806,142.74469 86.56164,142.77457 86.660446,142.79816 C86.737045,142.81645 86.81581,142.82797 86.89454,142.83026 C87.29985,142.84203 87.70716,142.80316 88.11094,142.84024 C88.42158,142.86877 88.72531,142.95123 89.028114,143.0262 C89.79024,143.21489 89.23823,143.17902 89.73841,143.1907 L89.73841,143.1907" /><path fill="none" stroke="#924216" stroke-width="0.06mm" d="M74.26308,132.10526 C74.21777,132.26996 74.20006,132.41525 74.24933,132.57944 C74.47136,133.31918 76.00714,133.41318 76.40364,133.52307 C76.56256,133.56711 76.70976,133.64679 76.8573,133.72047 C77.06731,133.82538 77.08865,133.8961 77.28448,133.94214 C77.57695,134.01093 77.87346,134.06174 78.16585,134.13089 C78.19833,134.13855 78.22835,134.15518 78.2571,134.17215 C78.28619,134.18929 78.311646,134.21194 78.33836,134.2326 C78.44863,134.31784 78.552574,134.41171 78.66803,134.48978 C78.75842,134.5509 78.85559,134.602 78.95411,134.64896 C79.007385,134.67435 79.06537,134.68849 79.121735,134.706 C79.32025,134.76761 79.37938,134.76 79.56494,134.88391 C82.88934,137.232 79.20529,134.6916 81.079346,135.8674 C81.373795,136.05214 81.479576,136.21136 81.75447,136.3118 C81.95929,136.38661 82.182785,136.32358 82.39131,136.32443 C82.58389,136.32523 82.81801,136.39871 82.972435,136.5145 C83.301636,136.76129 83.475716,136.99214 83.73154,137.33823 C83.89408,137.5581 84.04945,137.78363 84.19467,138.01532 C84.31724,138.2109 84.3307,138.45767 84.47728,138.64192 C84.74662,138.98048 84.618164,138.76346 84.96125,139.08423 C85.04934,139.1666 85.11865,139.2673 85.20416,139.35233 C85.28936,139.43704 85.36946,139.45633 85.4686,139.52696 C85.59294,139.61555 85.64892,139.7519 85.75096,139.86584 C85.80447,139.9256 85.86624,139.9781 85.93085,140.02565 C86.24521,140.25697 86.490524,140.261 86.86719,140.36159 C86.99722,140.3963 87.10367,140.53156 87.21112,140.59708 C87.41705,140.72264 87.642586,140.79893 87.879616,140.8454 C88.04038,140.87692 88.20594,140.87668 88.36795,140.90105 C88.44926,140.91327 88.52679,140.94708 88.60862,140.95502 C88.76414,140.9701 89.21438,140.8566 89.29313,141.12708 C89.31628,141.20657 89.33236,141.28796 89.35198,141.3684 L89.35198,141.3684" /><path fill="none" stroke="#000000" stroke-width="0.06mm" d="M41.28792,62.091164 C40.355785,56.428997 40.41477,57.660557 40.340027,49.450603 C40.32914,48.254753 40.589302,47.068386 40.603165,45.872566 C40.639614,42.728157 40.698,39.577164 40.490856,36.43937 C40.407944,35.183464 40.01241,33.96759 39.736176,32.73964 C39.54222,31.877438 38.598164,31.377186 38.025608,30.813854 C37.6296,30.424229 37.246536,29.82243 37.183376,29.25534 C36.961044,27.259125 36.7639,25.259483 36.61858,23.256187 C36.59491,22.929876 36.637985,22.601246 36.677124,22.276426 C36.751236,21.661385 36.96283,21.244524 36.730576,20.660889 C36.29213,19.559114 35.27472,18.432713 34.622826,17.654543 C34.155373,17.09654 33.57266,16.64079 33.115974,16.07394 C32.773155,15.648421 32.528557,15.152363 32.235416,14.69121 C30.853123,12.51663 29.427258,10.369107 28.089676,8.166742 C26.911198,6.226347 27.89807,7.225767 27.191036,6.548149 L27.191036,6.548149" /><path fill="none" stroke="#000000" stroke-width="0.06mm" d="M21.049921,63.789406 C21.2202,65.74284 21.02697,63.703934 21.479427,67.17903 C21.549301,67.71568 21.551323,68.262695 21.663513,68.79212 C21.777527,69.33017 22.005062,69.83803 22.155014,70.36719 C22.178495,70.45004 22.189306,70.5382 22.182655,70.62407 C22.052565,72.30357 21.872602,71.75438 22.13327,73.86578 C22.20106,74.41488 22.792313,75.66464 22.925095,76.0687 C23.048883,76.4454 23.094574,76.85893 23.068558,77.25451 C23.040716,77.67786 22.907259,77.99514 23.072664,78.37988 C23.154078,78.56925 23.265024,78.76726 23.413239,78.91496 C23.991148,79.49089 25.48194,80.62767 25.871271,81.66191 C26.060402,82.16432 26.03519,82.50748 26.047771,83.0983 C26.064129,83.86646 26.022532,84.63595 26.061867,85.40328 C26.133228,86.79536 27.327728,88.48662 27.899845,89.47679 C28.12228,89.86176 28.615536,90.15639 28.969557,90.366005 C29.165798,90.4822 29.401712,90.46963 29.591585,90.5949 C30.081245,90.91798 30.029144,91.60777 30.392185,92.02056 C30.484673,92.12572 30.585781,92.22421 30.695358,92.31142 C31.0377,92.58386 31.283699,92.64322 31.4739,93.01989 C31.601587,93.27276 31.573277,93.51064 31.61359,93.783394 C31.661476,94.10739 31.841484,94.42048 32.056698,94.66107 C32.377464,95.019646 32.706146,95.3718 33.050682,95.7076 C33.23078,95.88313 33.53484,95.950165 33.660744,96.1808 C33.86669,96.55805 33.593864,97.03829 33.525368,97.402405 C33.499203,97.54147 33.371895,98.07427 33.439938,98.36145 C33.554214,98.84378 34.308167,99.312584 34.59469,99.51698 C35.0574,99.84707 35.73395,99.85697 36.261208,99.86559 C37.034943,99.87824 37.80884,99.84271 38.582664,99.84799 C38.99835,99.85082 39.413574,99.90384 39.829037,99.88993 C40.10033,99.88085 40.37,99.834236 40.63582,99.77926 C41.231506,99.65607 41.550034,99.464935 42.09601,99.47149 C42.219463,99.47296 42.343025,99.48843 42.464115,99.51251 C43.13972,99.64691 43.817696,99.77391 44.484535,99.946625 C44.741978,100.0133 44.971466,100.16966 45.23069,100.22905 C46.12388,100.433685 47.031845,100.56738 47.93242,100.73656 L47.93242,100.73656" /><path fill="none" stroke="#000000" stroke-width="0.02mm" d="M49.314514,90.22003 L49.26062,90.15521" /><path fill="none" stroke="#000000" stroke-width="0.02mm" d="M47.7838,90.67339 C47.07128,90.03109 46.36087,89.386444 45.646248,88.74648 C45.16558,88.316025 44.686337,87.883865 44.197964,87.46217 C44.149204,87.420074 44.007694,87.37319 43.953514,87.36388 C43.556206,87.29561 43.271675,87.318726 42.836143,87.367424 C42.665215,87.38654 42.490967,87.407616 42.33022,87.46879 C41.624184,87.737465 40.944286,88.07077 40.24392,88.3539 C39.60723,88.611275 37.778713,88.278076 37.667587,88.270035 C37.602264,88.265305 37.354122,88.280914 37.27473,88.32888 C36.618233,88.72546 35.96332,89.12581 35.32785,89.555275 C34.89073,89.85069 34.48705,90.19295 34.05939,90.5019 C34.01164,90.5364 33.957314,90.56133 33.903156,90.58452 C33.866386,90.60026 33.827915,90.61627 33.787956,90.618126 C33.43472,90.634575 33.080708,90.62674 32.72731,90.63927 C32.672356,90.64121 32.602825,90.694115 32.571068,90.73511 C32.165897,91.25806 31.76286,91.782684 31.36354,92.31011 C31.33002,92.354385 31.315838,92.428116 31.318302,92.48222 C31.322937,92.583954 31.36309,92.733246 31.436687,92.80683 C32.009956,93.38 32.621864,93.91434 33.183147,94.499245 C34.859573,96.24623 33.693554,95.32277 34.987015,96.37197 C35.14444,96.499664 35.65197,96.43593 35.737186,96.44377 C36.089737,96.47622 36.439693,96.53292 36.78986,96.585144 C36.820927,96.589775 36.912357,96.630325 36.934235,96.6533 C37.428516,97.17247 37.89913,97.71412 38.40112,98.225845 C38.66337,98.49319 39.58094,99.55685 40.23961,99.833916 C40.502174,99.94437 41.066605,99.76124 41.28258,99.658485 C42.830696,98.92197 44.356693,98.13974 45.899986,97.39316 C45.94226,97.3727 45.99025,97.3663 46.036594,97.35871 C46.521996,97.27923 47.422344,97.946144 47.54978,98.01102 C47.572365,98.02252 47.623207,98.023026 47.650322,98.01901 C47.820663,97.993774 48.01021,97.72999 48.080544,97.60507 C48.56414,96.746254 49.026173,95.87547 49.498985,95.010666 L49.498985,95.010666" /><path fill="none" stroke="#000000" stroke-width="0.02mm" d="M44.00563,87.38552 C43.716793,88.67709 42.65042,89.561745 42.183647,90.756996 C42.13817,90.87344 41.94294,91.3401 41.99772,91.57154 C42.00392,91.597755 42.01078,91.62467 42.024796,91.64768 C42.532715,92.48141 42.98963,93.349815 43.56261,94.140236 C44.066185,94.83492 44.69628,95.42877 45.244286,96.088974 C45.44384,96.329384 45.611397,96.594826 45.804142,96.84073 C46.353897,97.54212 46.099648,97.12946 46.28561,97.439415 L46.28561,97.439415" /><path fill="none" stroke="#000000" stroke-width="0.02mm" d="M41.96643,91.52064 C39.388268,91.63089 40.43106,91.68631 36.946156,91.11934 C35.890526,90.94759 35.195194,90.65125 34.248672,90.65541 C34.134808,90.65591 34.02137,90.66938 33.90772,90.67636 L33.90772,90.67636" /><path fill="none" stroke="#000000" stroke-width="0.02mm" d="M47.163048,91.39501 C49.395607,89.69031 45.907986,92.32235 51.47569,88.533516 C52.087067,88.11748 52.65116,87.63581 53.24521,87.19537 C53.283638,87.16688 53.39138,87.133575 53.437416,87.13026 C54.548386,87.05013 54.80114,87.32136 56.39459,87.67583 C56.47839,87.694466 56.560112,87.72296 56.644894,87.736465 C57.104336,87.80964 57.66243,87.59849 58.039036,87.50028 C58.45174,87.39267 58.85237,87.24267 59.262955,87.12721 C59.57057,87.04071 59.740913,87.18391 59.941963,87.43592 C60.185314,87.740944 60.417137,88.05633 60.625427,88.3863 C60.911827,88.840004 61.131386,89.33412 61.424053,89.783806 C61.821648,90.394714 62.26299,90.97611 62.69367,91.56417 C62.740543,91.628174 62.88438,91.72181 62.94861,91.74836 C63.17359,91.84137 63.406765,91.91344 63.63311,92.003075 C63.699585,92.0294 63.680035,92.11645 63.65378,92.16158 C63.546402,92.346214 63.42717,92.524025 63.325703,92.711975 C63.237404,92.87552 63.177914,93.05394 63.08508,93.21495 C62.756535,93.78478 62.57712,94.02737 62.178135,94.501526 C62.06724,94.633316 61.78197,94.63686 61.647705,94.62998 C61.28499,94.61138 60.925026,94.5416 60.561836,94.540184 C60.20793,94.5388 59.854435,94.57786 59.50324,94.62159 C59.268703,94.650795 59.07936,94.77417 58.84149,94.77849 C58.773792,94.77972 58.704357,94.78206 58.6388,94.765114 C58.45924,94.71869 58.27953,94.66662 58.110817,94.589584 C57.620277,94.36559 57.148956,94.101654 56.664974,93.86382 C56.639935,93.85152 56.57666,93.847565 56.550095,93.85031 C56.385334,93.867325 56.180767,94.00381 56.072094,94.09505 C55.25133,94.78416 54.42308,95.46611 53.639404,96.19712 C52.95639,96.83423 52.3059,97.50664 51.67568,98.196014 C51.31755,98.58775 51.01374,99.02593 50.677715,99.43679 C50.563393,99.576584 50.354668,99.514404 50.26963,99.375786 C50.25506,99.352036 50.238846,99.32808 50.232292,99.301 C50.031006,98.469574 49.822643,97.63952 49.64663,96.802376 C49.55109,96.34798 49.502346,95.88488 49.418022,95.42826 C49.40709,95.36904 49.385094,95.31206 49.361206,95.256775 C49.322884,95.168076 49.236187,95.016815 49.13749,94.97356 C48.326927,94.61827 47.506172,94.28667 46.692997,93.93741 C46.54357,93.87323 46.472622,93.5886 46.50542,93.447716 C46.907715,91.71979 46.55265,92.20448 47.053062,91.59122 L47.053062,91.59122" /><path fill="none" stroke="#000000" stroke-width="0.02mm" d="M56.464302,93.7435 C57.20771,92.960754 57.955482,92.18214 58.69452,91.39526 C58.7385,91.348434 58.68955,91.27114 58.651535,91.24215 C58.51948,91.141426 58.393703,91.03084 58.251198,90.94554 C57.838894,90.69876 57.419044,90.46372 56.98988,90.24759 C56.657887,90.08039 56.294865,89.97728 55.96996,89.7967 C55.37102,89.46382 54.37463,88.614075 53.93673,88.21325 C52.91026,87.273674 53.869774,88.05998 53.264153,87.446175 C53.184578,87.365524 53.090847,87.300186 53.004196,87.22719 L53.004196,87.22719" /><path fill="none" stroke="#000000" stroke-width="0.02mm" d="M58.693752,91.14828 C60.23409,91.706276 58.835796,91.22277 62.640976,91.97878 C63.554417,92.16027 63.032566,92.12145 63.640152,92.14414 L63.640152,92.14414" /><path fill="none" stroke="#000000" stroke-width="0.02mm" d="M53.126076,87.22719 C52.01277,88.94555 52.854576,87.6037 50.944103,92.13386 C50.923004,92.18388 50.911537,92.2393 50.912205,92.293594 C50.92675,93.47823 51.00052,94.66224 50.989693,95.84691 C50.980843,96.81524 50.88949,97.78112 50.85321,98.74882 C50.844906,98.97043 50.8589,99.19236 50.855972,99.414116 C50.855667,99.4374 50.85604,99.46323 50.843533,99.48287 C50.82638,99.50981 50.795696,99.52519 50.77178,99.54635 L50.77178,99.54635" /><path fill="none" stroke="#000000" stroke-width="0.02mm" d="M49.27359,95.21205 C50.815895,92.842094 50.27489,93.81934 51.039314,92.36413 L51.039314,92.36413" /><path fill="none" stroke="#000000" stroke-width="0.02mm" d="M50.572617,99.475 C52.284294,98.30337 51.232613,98.96321 55.494038,97.63674 C59.602924,96.357735 55.25194,97.94026 57.66268,97.07715 C57.72191,97.05595 57.775955,96.9864 57.803288,96.934235 C58.028477,96.50452 58.133698,96.129974 58.440666,95.79911 C58.48925,95.74674 58.60245,95.66331 58.671146,95.64065 C59.139774,95.486046 59.61339,95.34696 60.085106,95.20204 C60.70837,95.01057 61.333313,94.824554 61.956074,94.63144 C62.21411,94.55142 61.888664,94.610275 62.26978,94.56101 L62.26978,94.56101" /><path fill="none" stroke="#000000" stroke-width="0.02mm" d="M52.849625,100.27169 C52.810165,99.92093 52.767746,99.57048 52.731243,99.21939 C52.72088,99.11969 52.772633,99.031395 52.872562,99.00691 C53.20432,98.92562 53.538395,98.85378 53.8693,98.7691 C53.88868,98.76414 53.905224,98.75091 53.92099,98.73859 C54.039097,98.646286 54.087105,98.38031 54.12621,98.297935 C54.215843,98.10912 54.31043,98.00133 54.43402,97.83997 L54.43402,97.83997" /><path fill="none" stroke="#000000" stroke-width="0.02mm" d="M57.61767,96.95409 C58.169605,97.46732 58.725204,97.97665 59.27348,98.49378 C59.31359,98.531624 59.330788,98.613434 59.327213,98.66561 C59.308308,98.94146 59.25811,99.21597 59.261097,99.49245 C59.264893,99.84415 59.301807,100.19533 59.347485,100.54406 C59.38649,100.84182 59.463413,101.13342 59.5148,101.4293 C59.535667,101.549416 59.50712,101.655495 59.37633,101.67798 C59.170822,101.71331 58.96282,101.73508 58.75898,101.779 C58.33605,101.87013 58.658398,101.83102 58.390152,101.92278 C58.35302,101.935486 58.313126,101.93784 58.274616,101.945366 L58.274616,101.945366" /><path fill="none" stroke="#000000" stroke-width="0.02mm" d="M54.104057,98.928 C54.316288,99.32282 54.467407,99.91615 54.868088,100.15755 C54.952457,100.20838 55.084915,100.21682 55.175568,100.1795 C55.868282,99.8943 56.55907,99.604195 57.244747,99.30247 C57.545265,99.17022 57.831257,99.00609 58.13351,98.87787 C59.259502,98.40021 58.58362,98.79822 59.139633,98.45236 L59.139633,98.45236" /><path fill="none" stroke="#000000" stroke-width="0.02mm" d="M54.856125,100.3252 L54.4251,100.878136" /><path fill="none" stroke="#000000" stroke-width="0.02mm" d="M61.189537,101.62099 C61.521202,101.52049 61.858093,101.43586 62.18453,101.3195 C62.786873,101.10479 63.377827,100.85937 63.974125,100.628395 C64.02211,100.60981 64.055824,100.59116 64.108185,100.60058 C64.29106,100.633484 64.55522,101.03444 64.57468,101.05845 C64.63553,101.13353 64.66292,101.23105 64.750244,101.27821 C64.85353,101.33401 64.998245,101.30551 65.096,101.25081 C65.17549,101.20633 65.225136,101.12856 65.32591,101.155426 C65.420425,101.18061 65.540146,101.289894 65.59198,101.350136 C65.7244,101.50405 65.9485,101.7426 65.93924,101.9838 C65.93704,102.04108 65.91705,102.10982 65.87715,102.15294 C65.57565,102.47876 65.26492,102.79597 64.964226,103.12251 C64.79489,103.3064 64.63643,103.500084 64.46722,103.68407 C64.446,103.70713 64.39061,103.730644 64.361664,103.73853 C64.08928,103.81279 63.751053,103.552124 63.543217,103.49129 C63.32449,103.42726 63.096523,103.39944 62.871086,103.36596 C62.794483,103.35458 62.620617,103.37639 62.51764,103.32907 C62.489246,103.316025 62.436626,103.28053 62.419304,103.25412 C62.19116,102.906296 61.98761,102.542145 61.747623,102.20238 C61.608685,102.00568 61.438984,101.83262 61.28466,101.64774 L61.28466,101.64774" /><path fill="none" stroke="#000000" stroke-width="0.02mm" d="M61.522472,101.66558 C62.3013,101.74307 61.602283,101.6895 63.053146,101.65047 C63.182537,101.64698 63.311966,101.656494 63.4414,101.65712 C63.511784,101.657455 63.573837,101.64519 63.634266,101.69057 C63.80155,101.81621 63.986275,102.28838 64.0014,102.32116 C64.65683,103.74119 64.24834,103.10796 64.65559,103.710846 L64.65559,103.710846" /><path fill="none" stroke="#000000" stroke-width="0.02mm" d="M63.835155,101.57937 C63.77077,101.609314 63.710102,101.64912 63.642002,101.66921 C63.62915,101.67301 63.61094,101.65937 63.60911,101.646095 C63.605453,101.619576 63.61589,101.59189 63.628056,101.56803 C63.885094,101.06411 63.924988,100.94192 64.26321,100.610245 L64.26321,100.610245" /><path fill="none" stroke="#000000" stroke-width="0.02mm" d="M59.432735,99.39438 C59.96735,99.81134 61.050083,98.02186 61.799965,98.60658 C61.82,98.6222 61.839413,98.63932 61.85468,98.65963 C63.290585,100.569176 62.13246,98.97978 62.57834,99.68864 C62.67557,99.84322 62.9499,99.84231 63.08265,99.865074 C63.164085,99.879036 63.271194,99.89542 63.309483,99.98533 C63.621822,100.71877 63.395706,100.44501 63.683548,100.752945 L63.683548,100.752945" /><path fill="none" stroke="#000000" stroke-width="0.02mm" d="M62.14077,103.25006 L62.14117,103.250465" /><path fill="none" stroke="#000000" stroke-width="0.02mm" d="M62.18536,103.2471 C62.032623,103.28035 61.92179,103.2872 61.790913,103.3654 C61.63821,103.45664 61.4951,103.56325 61.34318,103.655785 C61.307156,103.67773 61.2443,103.68462 61.20265,103.67568 C60.892654,103.60917 60.928116,103.21134 60.890686,102.98182 C60.882336,102.93061 60.839497,102.88045 60.79866,102.85201 C60.63955,102.741196 60.39572,102.760124 60.222782,102.73078 C60.17046,102.72191 60.119957,102.70375 60.070232,102.68521 C59.900505,102.62195 59.78481,102.40363 59.6864,102.27856 C58.968876,101.3666 60.155678,102.89781 59.25438,101.73098 L59.25438,101.73098" /><path fill="none" stroke="#000000" stroke-width="0.02mm" d="M61.531387,98.56498 C61.15856,99.11795 60.778057,99.66583 60.412907,100.2239 C60.379913,100.27433 60.337856,100.39254 60.327953,100.4618 C60.317795,100.53287 60.323727,100.614555 60.340904,100.68331 C60.44997,101.119865 60.58517,101.550026 60.681118,101.989655 C60.758232,102.34298 60.800095,102.70309 60.859585,103.05981 L60.859585,103.05981" /><path fill="none" stroke="#000000" stroke-width="0.02mm" d="M60.45531,100.58053 C60.106506,100.231964 59.752747,99.88829 59.408894,99.53485 C59.32779,99.45148 59.339455,99.46313 59.361397,99.385475 L59.361397,99.385475" /><path fill="none" stroke="#000000" stroke-width="0.06mm" d="M65.15796,93.680725 C65.414795,93.99948 65.465034,94.44632 65.75546,94.74067 C66.01374,95.002426 66.28808,95.24795 66.56115,95.49423 C66.94755,95.84272 67.76733,95.45734 68.03607,95.90223 C68.09872,96.00593 68.1561,96.11294 68.20859,96.22213 C68.479324,96.785286 68.56224,96.792816 68.26252,97.297714 C68.200455,97.40227 68.01877,97.56702 68.01985,97.731476 C68.02057,97.84141 68.10544,97.986305 68.11215,98.06601 C68.15142,98.53209 68.12551,99.00232 68.16846,99.46807 C68.24461,100.29402 68.64161,101.11083 69.019356,101.82016 L69.019356,101.82016" /><path fill="none" stroke="#000000" stroke-width="0.02mm" d="M44.403458,83.357994 C43.98766,83.29017 44.047863,83.27582 43.607037,83.309235 C43.30793,83.3319 43.010376,83.37223 42.71144,83.39703 C42.67856,83.399765 42.645214,83.39674 42.6126,83.391754 C42.48239,83.37181 42.4115,83.22977 42.36222,83.12745 C42.236374,82.866135 42.173874,82.49008 42.370804,82.2453 C42.479237,82.11053 42.626503,81.9828 42.76998,81.891205 C43.02282,81.72978 43.09188,81.75737 43.24716,81.6013 C43.304398,81.54378 43.344017,81.46817 43.353806,81.38718 C43.36374,81.304924 43.34524,81.02896 43.45555,80.96448 C43.541626,80.91416 43.917633,80.99102 43.9551,80.992546 C44.097134,80.99834 44.250137,80.96156 44.381157,80.91206 C44.521793,80.85894 44.65589,80.78967 44.79567,80.73432 C44.809135,80.72899 44.824554,80.729515 44.83898,80.73079 C44.877594,80.734184 44.92653,80.766846 44.938095,80.805695 C45.123734,81.42917 45.305786,82.05375 45.48011,82.68048 C45.52561,82.844086 45.34806,83.09905 45.237255,83.20001 C45.13343,83.29461 45.00322,83.25166 44.87888,83.25481 C44.78392,83.2572 44.777054,83.273674 44.685333,83.29158 C44.608543,83.30658 44.531105,83.31802 44.453987,83.331245 L44.453987,83.331245" /><path fill="none" stroke="#000000" stroke-width="0.02mm" d="M45.32496,82.01728 C50.7012,79.965096 52.67146,78.5748 57.058537,77.86427 C58.27777,77.66681 57.135666,78.00561 58.06551,77.697845 L58.06551,77.697845" /><path fill="none" stroke="#000000" stroke-width="0.02mm" d="M45.42603,81.886475 C45.829063,81.44248 45.591263,81.672066 46.160263,81.22058 L46.160263,81.22058" /><path fill="none" stroke="#000000" stroke-width="0.02mm" d="M45.369553,82.04403 C45.632275,82.02539 45.861843,82.103935 46.109726,82.165924 L46.109726,82.165924" /><path fill="none" stroke="#000000" stroke-width="0.02mm" d="M34.737694,36.956142 C33.963074,36.97366 33.78906,36.918266 33.10422,37.11677 C32.960365,37.15847 32.466507,37.501003 32.21231,37.30845 C32.058308,37.191788 31.975298,36.88949 31.95125,36.733456 C31.834866,35.97829 31.930973,35.760033 31.715715,35.191586 C31.547632,34.74772 31.08749,34.540924 30.845554,34.144188 C30.682354,33.876564 30.611385,33.524155 30.641804,33.214424 C31.174774,27.787697 30.410877,29.083988 33.115776,25.619308 C33.35393,25.31426 33.845337,25.359741 34.141075,25.53008 C34.23301,25.583035 34.386745,25.704231 34.437008,25.791658 C35.07673,26.904415 35.71912,28.016642 36.30903,29.156586 C36.49582,29.517534 36.67168,30.053223 36.585186,30.48507 C36.529213,30.764524 36.430695,31.034948 36.384274,31.31615 C36.324112,31.68061 36.354675,32.07714 36.43151,32.435703 C36.589985,33.175262 37.26278,33.68718 37.418633,34.42531 C37.434185,34.498955 37.442604,34.574863 37.440136,34.650097 C37.42712,35.04711 37.363426,35.442722 37.372265,35.83985 C37.378147,36.104233 37.431618,36.366085 37.48409,36.625275 C37.53737,36.888462 37.630093,37.142372 37.68899,37.404358 C37.786316,37.837234 37.1115,38.11571 36.78935,38.111244 C36.21244,38.10324 35.58548,37.5998 35.13789,37.399666 C35.015583,37.34498 34.876705,37.33981 34.746117,37.30988 L34.746117,37.30988" /><path fill="none" stroke="#000000" stroke-width="0.02mm" d="M31.78161,34.69052 C32.088154,33.736603 32.394695,32.78268 32.70124,31.828762 C32.736656,31.702194 32.760063,31.571632 32.807495,31.449059 C32.883163,31.253521 33.02489,30.990185 33.21518,30.874298 C33.359303,30.786524 33.536568,30.805258 33.67909,30.887114 C36.03324,32.23919 35.264664,31.628468 36.46418,32.686 L36.46418,32.686" /><path fill="none" stroke="#000000" stroke-width="0.02mm" d="M33.356506,30.959408 C33.754368,26.084095 33.761543,27.993523 33.68496,25.240612 L33.68496,25.240612" /><path fill="none" stroke="#000000" stroke-width="0.06mm" d="M21.170029,63.56244 C21.215303,62.88433 21.247776,62.205246 21.305851,61.528114 C21.372915,60.746162 21.636078,59.692482 21.479591,58.819576 C21.376205,58.24288 21.120693,57.9647 20.945927,57.46063 C20.854994,57.198353 20.830969,56.932518 20.842955,56.654755 C20.907019,55.1702 22.032291,53.878036 22.667913,52.59284 C23.019453,51.882042 22.88482,51.054367 23.251745,50.35891 C23.618382,49.664 24.230953,49.22402 24.873848,48.801563 C25.321535,48.507385 25.864857,48.282135 26.126684,47.772305 C26.282055,47.46977 26.423075,47.158005 26.530464,46.835304 C26.722338,46.258736 26.79559,45.475815 27.137812,44.90355 C27.365135,44.523415 27.750721,44.15942 28.084726,43.905586 C28.722902,43.420593 29.81649,43.022755 29.920757,42.069347 C29.965405,41.661102 29.30309,41.544273 29.103758,41.413795 C28.769243,41.194824 28.468445,40.928234 28.150694,40.685577 C28.029686,40.593163 27.918888,40.485497 27.787485,40.408585 C27.480171,40.228714 27.145464,40.098503 26.83872,39.917664 C26.552635,39.748997 26.319609,39.527214 26.11578,39.26848 C24.616562,37.36538 25.390213,38.422485 24.218925,35.87378 C24.023216,35.447918 23.533459,35.27898 23.28378,34.893402 C22.76991,34.099842 22.543032,32.217136 22.503157,31.657684 C22.396975,30.16792 22.505785,28.66943 22.4348,27.17757 C22.395079,26.342775 22.058098,25.866549 21.81805,25.064278 C21.623737,24.414852 21.706032,23.74429 21.84691,23.097399 C21.907158,22.82075 22.00625,22.551342 22.039936,22.27022 C22.095882,21.80333 22.159092,21.32966 22.114834,20.861519 C21.49097,14.262741 23.20236,15.364931 20.723667,14.055695 L20.723667,14.055695" /><path fill="none" stroke="#000000" stroke-width="0.02mm" d="M27.724731,39.70057 C27.902756,39.433975 28.090933,39.17389 28.2588,38.900784 C28.298058,38.836914 28.320116,38.763718 28.34422,38.692734 C28.406305,38.509872 28.445318,38.31907 28.517174,38.139828 C28.582579,37.976685 28.671827,37.824066 28.75462,37.66902 C28.765831,37.648018 28.8042,37.61872 28.824894,37.607853 C28.868713,37.58484 28.91565,37.58329 28.963661,37.589386 C29.178223,37.616623 29.391691,37.653233 29.606987,37.673885 C29.953691,37.707146 30.07731,37.632565 30.327677,37.86232 C30.37185,37.902855 30.417944,37.943684 30.44941,37.994713 C30.648064,38.316864 30.901499,38.748493 30.926392,39.144524 C30.939968,39.360485 30.829142,39.576923 30.898209,39.790054 C30.98761,40.06595 31.543175,40.522232 31.568987,40.549934 C31.586956,40.56922 31.592278,40.607315 31.586594,40.63189 C31.570953,40.699486 31.494282,40.746826 31.44212,40.778614 C31.124725,40.972015 30.8029,41.158096 30.485949,41.352222 C30.370193,41.42312 30.259785,41.502495 30.144148,41.573586 C30.124258,41.58581 30.102272,41.594685 30.080023,41.60177 C29.889584,41.6624 29.713772,41.507645 29.620968,41.355988 C29.596996,41.31681 29.42584,40.919933 29.276592,40.790375 C29.134106,40.666683 28.938276,40.659645 28.759735,40.654472 C28.670227,40.65188 28.564049,40.65172 28.50427,40.56878 C28.289932,40.271408 28.0844,39.96779 27.874466,39.667297 L27.874466,39.667297" /><path fill="none" stroke="#000000" stroke-width="0.02mm" d="M28.057472,39.394432 C28.44475,39.594997 28.82987,39.79978 29.219303,39.996124 C29.33352,40.05371 29.485502,39.88391 29.53172,39.823105 C29.972557,39.243073 30.398926,38.65218 30.832531,38.06672 L30.832531,38.06672" /><path fill="none" stroke="#000000" stroke-width="0.02mm" d="M29.491585,40.139816 L29.472069,40.106987" /><path fill="none" stroke="#000000" stroke-width="0.02mm" d="M29.38178,40.006714 C29.445208,40.090237 29.51519,40.169174 29.572063,40.257294 C29.60843,40.313637 29.63292,40.37689 29.660233,40.43814 C29.751492,40.6428 29.845985,40.846245 29.927717,41.054893 C30.216084,41.791054 29.883757,41.085327 30.133776,41.597305 L30.133776,41.597305" /><path fill="none" stroke="#000000" stroke-width="0.02mm" d="M68.93547,103.87562 L68.97003,103.83495" /><path fill="none" stroke="#000000" stroke-width="0.02mm" d="M69.60412,105.59748 C69.654205,107.92178 69.704285,110.2461 69.75437,112.57041 C69.79654,112.77015 69.81923,112.97501 69.88086,113.169624 C70.068695,113.76284 70.55677,114.48238 70.85044,114.93903 C71.64195,116.1698 72.47884,117.3713 73.25641,118.61092 C73.70825,119.33126 73.57239,120.38036 73.62898,121.15233 C73.67183,121.73676 74.461395,122.45429 74.71219,122.71783 C74.94989,122.9676 75.22839,123.252525 75.56421,123.38778 C76.00934,123.56706 76.79238,123.25921 77.06435,123.19049 C77.874725,122.98571 78.15209,121.231125 78.11449,120.79724 C78.1053,120.691216 78.05167,120.56586 77.97914,120.48762 C77.67978,120.164665 75.99895,118.60865 75.43105,117.635056 C75.12414,117.10888 75.161514,116.465065 74.844635,115.940056 C74.16353,114.811615 75.11806,116.69883 74.00847,114.93219 C72.85361,113.093475 71.674934,111.26439 70.65863,109.34561 C69.66644,106.676216 70.16445,107.64163 69.436966,106.32468 L69.436966,106.32468" /><path fill="none" stroke="#000000" stroke-width="0.02mm" d="M73.632706,118.84579 C73.15944,117.51105 72.67287,116.18097 72.21288,114.8416 C72.14547,114.645294 72.3702,114.52486 72.519684,114.49358 C73.16966,114.357635 73.78962,114.78763 74.25957,115.19309 L74.25957,115.19309" /><path fill="none" stroke="#000000" stroke-width="0.02mm" d="M72.27034,114.72502 C68.98546,107.439415 71.22171,112.93003 69.77821,108.53255 C69.71243,108.33214 69.60643,108.14725 69.52054,107.9546 L69.52054,107.9546" /><path fill="none" stroke="#924216" stroke-width="0.06mm" stroke-dasharray="0.3mm,0.1mm" d="M89.59662,140.8873 C89.971504,140.88773 90.34888,140.84554 90.721275,140.88863 C91.41246,140.9686 92.082214,141.20544 92.77623,141.25522 C94.869514,141.40536 95.02145,141.3447 96.46695,141.1297 L96.46695,141.1297" /><path fill="none" stroke="#924216" stroke-width="0.06mm" stroke-dasharray="0.3mm,0.1mm" d="M90.22347,142.82648 C90.78433,142.84122 91.345184,142.85597 91.90604,142.8707 C92.220474,142.84897 92.53417,142.80292 92.84935,142.80551 C93.28537,142.80911 93.71956,142.8624 94.15476,142.88919 C94.57396,142.91501 94.83723,142.9851 95.196526,142.89334 L95.196526,142.89334" /><path fill="none" stroke="#924216" stroke-width="0.02mm" d="M96.223625,138.26445 L96.32052,140.4019" /><path fill="none" stroke="#924216" stroke-width="0.02mm" d="M96.747986,138.24165 L96.867676,140.1112" /><text x="59.206985" y="77.44516" font-family="sans-serif" font-size=".2mm" fill="black">okienko ze studzienk</text>
<text x="98.19567" y="141.68439" font-family="sans-serif" font-size=".2mm" fill="black">?</text>
<text x="100.03794" y="139.77995" font-family="sans-serif" font-size=".2mm" fill="black">Koniec Meander do uczowieczenia
studnia i mocny przewiew</text>
</g>
<g>
<line fill="none" stroke="#111111" stroke-width="0.04mm" x1="22.00" y1="20.00" x2="25.30" y2="36.73" />
<line fill="none" stroke="#00aeef" stroke-width="0.04mm" stroke-dasharray="0.4,0.2" x1="25.30" y1="36.73" x2="29.32" y2="34.46" />
<line fill="none" stroke="#111111" stroke-width="0.04mm" x1="25.30" y1="36.73" x2="28.88" y2="40.10" />
<line fill="none" stroke="#00aeef" stroke-width="0.04mm" stroke-dasharray="0.4,0.2" x1="28.88" y1="40.10" x2="30.82" y2="37.83" />
<line fill="none" stroke="#00aeef" stroke-width="0.04mm" stroke-dasharray="0.4,0.2" x1="28.88" y1="40.10" x2="30.81" y2="37.83" />
<line fill="none" stroke="#5674b9" stroke-width="0.04mm" stroke-dasharray="0.4,0.2" x1="28.88" y1="40.10" x2="29.13" y2="40.08" />
<line fill="none" stroke="#5674b9" stroke-width="0.04mm" stroke-dasharray="0.4,0.2" x1="28.88" y1="40.10" x2="28.84" y2="41.83" />
<line fill="none" stroke="#5674b9" stroke-width="0.04mm" stroke-dasharray="0.4,0.2" x1="28.88" y1="40.10" x2="27.88" y2="26.65" />
<line fill="none" stroke="#5674b9" stroke-width="0.04mm" stroke-dasharray="0.4,0.2" x1="28.88" y1="40.10" x2="30.86" y2="40.08" />
<line fill="none" stroke="#00aeef" stroke-width="0.04mm" stroke-dasharray="0.4,0.2" x1="28.88" y1="40.10" x2="31.40" y2="40.34" />
<line fill="none" stroke="#00aeef" stroke-width="0.04mm" stroke-dasharray="0.4,0.2" x1="28.88" y1="40.10" x2="31.30" y2="40.30" />
<line fill="none" stroke="#5674b9" stroke-width="0.04mm" stroke-dasharray="0.4,0.2" x1="28.88" y1="40.10" x2="30.78" y2="39.11" />
<line fill="none" stroke="#111111" stroke-width="0.04mm" x1="28.88" y1="40.10" x2="34.54" y2="40.98" />
<line fill="none" stroke="#00aeef" stroke-width="0.04mm" stroke-dasharray="0.4,0.2" x1="34.54" y1="40.98" x2="34.79" y2="40.94" />
<line fill="none" stroke="#5674b9" stroke-width="0.04mm" stroke-dasharray="0.4,0.2" x1="34.54" y1="40.98" x2="51.17" y2="43.99" />
<line fill="none" stroke="#5674b9" stroke-width="0.04mm" stroke-dasharray="0.4,0.2" x1="34.54" y1="40.98" x2="34.91" y2="37.79" />
<line fill="none" stroke="#00aeef" stroke-width="0.04mm" stroke-dasharray="0.4,0.2" x1="34.54" y1="40.98" x2="31.68" y2="40.92" />
<line fill="none" stroke="#5674b9" stroke-width="0.04mm" stroke-dasharray="0.4,0.2" x1="34.54" y1="40.98" x2="34.02" y2="41.67" />
<line fill="none" stroke="#111111" stroke-width="0.04mm" x1="34.54" y1="40.98" x2="39.02" y2="62.13" />
<line fill="none" stroke="#5674b9" stroke-width="0.04mm" stroke-dasharray="0.4,0.2" x1="39.02" y1="62.13" x2="43.42" y2="83.28" />
<line fill="none" stroke="#5674b9" stroke-width="0.04mm" stroke-dasharray="0.4,0.2" x1="39.02" y1="62.13" x2="43.46" y2="83.27" />
<line fill="none" stroke="#00aeef" stroke-width="0.04mm" stroke-dasharray="0.4,0.2" x1="39.02" y1="62.13" x2="39.91" y2="62.03" />
<line fill="none" stroke="#5674b9" stroke-width="0.04mm" stroke-dasharray="0.4,0.2" x1="39.02" y1="62.13" x2="35.70" y2="62.91" />
<line fill="none" stroke="#5674b9" stroke-width="0.04mm" stroke-dasharray="0.4,0.2" x1="39.02" y1="62.13" x2="25.37" y2="64.80" />
<line fill="none" stroke="#5674b9" stroke-width="0.04mm" stroke-dasharray="0.4,0.2" x1="39.02" y1="62.13" x2="19.53" y2="63.70" />
<line fill="none" stroke="#5674b9" stroke-width="0.04mm" stroke-dasharray="0.4,0.2" x1="39.02" y1="62.13" x2="20.77" y2="63.59" />
<line fill="none" stroke="#00aeef" stroke-width="0.04mm" stroke-dasharray="0.4,0.2" x1="39.02" y1="62.13" x2="23.47" y2="63.87" />
<line fill="none" stroke="#00aeef" stroke-width="0.04mm" stroke-dasharray="0.4,0.2" x1="39.02" y1="62.13" x2="34.36" y2="63.09" />
<line fill="none" stroke="#00aeef" stroke-width="0.04mm" stroke-dasharray="0.4,0.2" x1="39.02" y1="62.13" x2="35.55" y2="62.87" />
<line fill="none" stroke="#00aeef" stroke-width="0.04mm" stroke-dasharray="0.4,0.2" x1="39.02" y1="62.13" x2="37.29" y2="62.40" />
<line fill="none" stroke="#5674b9" stroke-width="0.04mm" stroke-dasharray="0.4,0.2" x1="39.02" y1="62.13" x2="33.82" y2="37.39" />
<line fill="none" stroke="#5674b9" stroke-width="0.04mm" stroke-dasharray="0.4,0.2" x1="39.02" y1="62.13" x2="34.79" y2="43.01" />
<line fill="none" stroke="#5674b9" stroke-width="0.04mm" stroke-dasharray="0.4,0.2" x1="39.02" y1="62.13" x2="33.52" y2="37.12" />
<line fill="none" stroke="#5674b9" stroke-width="0.04mm" stroke-dasharray="0.4,0.2" x1="39.02" y1="62.13" x2="24.02" y2="19.53" />
<line fill="none" stroke="#5674b9" stroke-width="0.04mm" stroke-dasharray="0.4,0.2" x1="39.02" y1="62.13" x2="39.70" y2="82.05" />
<line fill="none" stroke="#5674b9" stroke-width="0.04mm" stroke-dasharray="0.4,0.2" x1="39.02" y1="62.13" x2="26.11" y2="88.39" />
<line fill="none" stroke="#5674b9" stroke-width="0.04mm" stroke-dasharray="0.4,0.2" x1="39.02" y1="62.13" x2="30.54" y2="92.91" />
<line fill="none" stroke="#111111" stroke-width="0.04mm" x1="39.02" y1="62.13" x2="48.33" y2="94.84" />
<line fill="none" stroke="#00aeef" stroke-width="0.04mm" stroke-dasharray="0.4,0.2" x1="48.33" y1="94.84" x2="46.98" y2="94.75" />
<line fill="none" stroke="#00aeef" stroke-width="0.04mm" stroke-dasharray="0.4,0.2" x1="48.33" y1="94.84" x2="41.30" y2="95.33" />
<line fill="none" stroke="#00aeef" stroke-width="0.04mm" stroke-dasharray="0.4,0.2" x1="48.33" y1="94.84" x2="39.43" y2="95.78" />
<line fill="none" stroke="#5674b9" stroke-width="0.04mm" stroke-dasharray="0.4,0.2" x1="48.33" y1="94.84" x2="42.74" y2="95.11" />
<line fill="none" stroke="#5674b9" stroke-width="0.04mm" stroke-dasharray="0.4,0.2" x1="48.33" y1="94.84" x2="53.03" y2="94.76" />
<line fill="none" stroke="#5674b9" stroke-width="0.04mm" stroke-dasharray="0.4,0.2" x1="48.33" y1="94.84" x2="54.35" y2="94.17" />
<line fill="none" stroke="#00aeef" stroke-width="0.04mm" stroke-dasharray="0.4,0.2" x1="48.33" y1="94.84" x2="44.67" y2="99.44" />
<line fill="none" stroke="#00aeef" stroke-width="0.04mm" stroke-dasharray="0.4,0.2" x1="48.33" y1="94.84" x2="44.37" y2="99.31" />
<line fill="none" stroke="#00aeef" stroke-width="0.04mm" stroke-dasharray="0.4,0.2" x1="48.33" y1="94.84" x2="47.41" y2="100.97" />
<line fill="none" stroke="#00aeef" stroke-width="0.04mm" stroke-dasharray="0.4,0.2" x1="48.33" y1="94.84" x2="56.30" y2="96.54" />
<line fill="none" stroke="#00aeef" stroke-width="0.04mm" stroke-dasharray="0.4,0.2" x1="48.33" y1="94.84" x2="57.32" y2="98.22" />
<line fill="none" stroke="#00aeef" stroke-width="0.04mm" stroke-dasharray="0.4,0.2" x1="48.33" y1="94.84" x2="41.34" y2="91.87" />
<line fill="none" stroke="#111111" stroke-width="0.04mm" x1="48.33" y1="94.84" x2="57.58" y2="96.19" />
<line fill="none" stroke="#5674b9" stroke-width="0.04mm" stroke-dasharray="0.4,0.2" x1="57.58" y1="96.19" x2="58.05" y2="96.22" />
<line fill="none" stroke="#5674b9" stroke-width="0.04mm" stroke-dasharray="0.4,0.2" x1="57.58" y1="96.19" x2="58.07" y2="95.00" />
<line fill="none" stroke="#5674b9" stroke-width="0.04mm" stroke-dasharray="0.4,0.2" x1="57.58" y1="96.19" x2="57.78" y2="97.54" />
<line fill="none" stroke="#00aeef" stroke-width="0.04mm" stroke-dasharray="0.4,0.2" x1="57.58" y1="96.19" x2="61.39" y2="96.25" />
<line fill="none" stroke="#5674b9" stroke-width="0.04mm" stroke-dasharray="0.4,0.2" x1="57.58" y1="96.19" x2="62.93" y2="96.41" />
<line fill="none" stroke="#5674b9" stroke-width="0.04mm" stroke-dasharray="0.4,0.2" x1="57.58" y1="96.19" x2="60.27" y2="96.33" />
<line fill="none" stroke="#111111" stroke-width="0.04mm" x1="57.58" y1="96.19" x2="63.07" y2="96.48" />
<line fill="none" stroke="#00aeef" stroke-width="0.04mm" stroke-dasharray="0.4,0.2" x1="63.07" y1="96.48" x2="62.40" y2="96.78" />
<line fill="none" stroke="#00aeef" stroke-width="0.04mm" stroke-dasharray="0.4,0.2" x1="63.07" y1="96.48" x2="64.63" y2="97.13" />
<line fill="none" stroke="#00aeef" stroke-width="0.04mm" stroke-dasharray="0.4,0.2" x1="63.07" y1="96.48" x2="66.96" y2="97.82" />
<line fill="none" stroke="#00aeef" stroke-width="0.04mm" stroke-dasharray="0.4,0.2" x1="63.07" y1="96.48" x2="67.23" y2="96.45" />
<line fill="none" stroke="#00aeef" stroke-width="0.04mm" stroke-dasharray="0.4,0.2" x1="63.07" y1="96.48" x2="62.89" y2="93.67" />
<line fill="none" stroke="#00aeef" stroke-width="0.04mm" stroke-dasharray="0.4,0.2" x1="63.07" y1="96.48" x2="63.99" y2="101.10" />
<line fill="none" stroke="#00aeef" stroke-width="0.04mm" stroke-dasharray="0.4,0.2" x1="63.07" y1="96.48" x2="63.56" y2="101.46" />
<line fill="none" stroke="#00aeef" stroke-width="0.04mm" stroke-dasharray="0.4,0.2" x1="63.07" y1="96.48" x2="64.27" y2="100.90" />
<line fill="none" stroke="#111111" stroke-width="0.04mm" x1="63.07" y1="96.48" x2="64.83" y2="101.26" />
<line fill="none" stroke="#00aeef" stroke-width="0.04mm" stroke-dasharray="0.4,0.2" x1="64.83" y1="101.26" x2="58.60" y2="101.79" />
<line fill="none" stroke="#00aeef" stroke-width="0.04mm" stroke-dasharray="0.4,0.2" x1="64.83" y1="101.26" x2="63.73" y2="100.97" />
<line fill="none" stroke="#00aeef" stroke-width="0.04mm" stroke-dasharray="0.4,0.2" x1="64.83" y1="101.26" x2="63.79" y2="101.12" />
<line fill="none" stroke="#00aeef" stroke-width="0.04mm" stroke-dasharray="0.4,0.2" x1="64.83" y1="101.26" x2="68.61" y2="101.84" />
<line fill="none" stroke="#111111" stroke-width="0.04mm" x1="64.83" y1="101.26" x2="67.07" y2="116.89" />
<line fill="none" stroke="#00aeef" stroke-width="0.04mm" stroke-dasharray="0.4,0.2" x1="67.07" y1="116.89" x2="56.74" y2="116.95" />
<line fill="none" stroke="#00aeef" stroke-width="0.04mm" stroke-dasharray="0.4,0.2" x1="67.07" y1="116.89" x2="56.57" y2="116.95" />
<line fill="none" stroke="#00aeef" stroke-width="0.04mm" stroke-dasharray="0.4,0.2" x1="67.07" y1="116.89" x2="59.36" y2="116.74" />
<line fill="none" stroke="#00aeef" stroke-width="0.04mm" stroke-dasharray="0.4,0.2" x1="67.07" y1="116.89" x2="65.31" y2="116.81" />
<line fill="none" stroke="#00aeef" stroke-width="0.04mm" stroke-dasharray="0.4,0.2" x1="67.07" y1="116.89" x2="66.78" y2="116.72" />
<line fill="none" stroke="#00aeef" stroke-width="0.04mm" stroke-dasharray="0.4,0.2" x1="67.07" y1="116.89" x2="67.64" y2="116.61" />
<line fill="none" stroke="#00aeef" stroke-width="0.04mm" stroke-dasharray="0.4,0.2" x1="67.07" y1="116.89" x2="69.74" y2="117.94" />
<line fill="none" stroke="#00aeef" stroke-width="0.04mm" stroke-dasharray="0.4,0.2" x1="67.07" y1="116.89" x2="69.91" y2="118.38" />
<line fill="none" stroke="#00aeef" stroke-width="0.04mm" stroke-dasharray="0.4,0.2" x1="67.07" y1="116.89" x2="72.57" y2="118.75" />
<line fill="none" stroke="#00aeef" stroke-width="0.04mm" stroke-dasharray="0.4,0.2" x1="67.07" y1="116.89" x2="73.34" y2="119.14" />
<line fill="none" stroke="#00aeef" stroke-width="0.04mm" stroke-dasharray="0.4,0.2" x1="67.07" y1="116.89" x2="77.93" y2="119.90" />
<line fill="none" stroke="#00aeef" stroke-width="0.04mm" stroke-dasharray="0.4,0.2" x1="67.07" y1="116.89" x2="72.30" y2="118.67" />
<line fill="none" stroke="#5674b9" stroke-width="0.04mm" stroke-dasharray="0.4,0.2" x1="67.07" y1="116.89" x2="69.71" y2="118.10" />
<line fill="none" stroke="#5674b9" stroke-width="0.04mm" stroke-dasharray="0.4,0.2" x1="67.07" y1="116.89" x2="69.15" y2="117.25" />
<line fill="none" stroke="#00aeef" stroke-width="0.04mm" stroke-dasharray="0.4,0.2" x1="67.07" y1="116.89" x2="66.87" y2="116.63" />
<line fill="none" stroke="#111111" stroke-width="0.04mm" x1="67.07" y1="116.89" x2="69.99" y2="132.00" />
<line fill="none" stroke="#5674b9" stroke-width="0.04mm" stroke-dasharray="0.4,0.2" x1="69.99" y1="132.00" x2="66.81" y2="132.58" />
<line fill="none" stroke="#5674b9" stroke-width="0.04mm" stroke-dasharray="0.4,0.2" x1="69.99" y1="132.00" x2="67.49" y2="133.18" />
<line fill="none" stroke="#5674b9" stroke-width="0.04mm" stroke-dasharray="0.4,0.2" x1="69.99" y1="132.00" x2="69.41" y2="135.96" />
<line fill="none" stroke="#5674b9" stroke-width="0.04mm" stroke-dasharray="0.4,0.2" x1="69.99" y1="132.00" x2="71.40" y2="133.75" />
<line fill="none" stroke="#5674b9" stroke-width="0.04mm" stroke-dasharray="0.4,0.2" x1="69.99" y1="132.00" x2="71.99" y2="133.11" />
<line fill="none" stroke="#5674b9" stroke-width="0.04mm" stroke-dasharray="0.4,0.2" x1="69.99" y1="132.00" x2="70.63" y2="135.77" />
<line fill="none" stroke="#5674b9" stroke-width="0.04mm" stroke-dasharray="0.4,0.2" x1="69.99" y1="132.00" x2="69.39" y2="135.72" />
<line fill="none" stroke="#00aeef" stroke-width="0.04mm" stroke-dasharray="0.4,0.2" x1="69.99" y1="132.00" x2="70.74" y2="133.97" />
<line fill="none" stroke="#00aeef" stroke-width="0.04mm" stroke-dasharray="0.4,0.2" x1="69.99" y1="132.00" x2="70.37" y2="134.05" />
<line fill="none" stroke="#5674b9" stroke-width="0.04mm" stroke-dasharray="0.4,0.2" x1="69.99" y1="132.00" x2="68.77" y2="136.17" />
<line fill="none" stroke="#5674b9" stroke-width="0.04mm" stroke-dasharray="0.4,0.2" x1="69.99" y1="132.00" x2="70.07" y2="137.93" />
<line fill="none" stroke="#5674b9" stroke-width="0.04mm" stroke-dasharray="0.4,0.2" x1="69.99" y1="132.00" x2="69.27" y2="120.20" />
<line fill="none" stroke="#5674b9" stroke-width="0.04mm" stroke-dasharray="0.4,0.2" x1="69.99" y1="132.00" x2="69.07" y2="121.29" />
<line fill="none" stroke="#111111" stroke-width="0.04mm" x1="69.99" y1="132.00" x2="78.09" y2="135.52" />
<line fill="none" stroke="#5674b9" stroke-width="0.04mm" stroke-dasharray="0.4,0.2" x1="78.09" y1="135.52" x2="78.10" y2="135.73" />
<line fill="none" stroke="#5674b9" stroke-width="0.04mm" stroke-dasharray="0.4,0.2" x1="78.09" y1="135.52" x2="77.66" y2="139.67" />
<line fill="none" stroke="#5674b9" stroke-width="0.04mm" stroke-dasharray="0.4,0.2" x1="78.09" y1="135.52" x2="77.11" y2="135.58" />
<line fill="none" stroke="#111111" stroke-width="0.04mm" x1="78.09" y1="135.52" x2="80.79" y2="139.79" />
<line fill="none" stroke="#5674b9" stroke-width="0.04mm" stroke-dasharray="0.4,0.2" x1="80.79" y1="139.79" x2="81.12" y2="135.96" />
<line fill="none" stroke="#5674b9" stroke-width="0.04mm" stroke-dasharray="0.4,0.2" x1="80.79" y1="139.79" x2="80.51" y2="142.01" />
<line fill="none" stroke="#5674b9" stroke-width="0.04mm" stroke-dasharray="0.4,0.2" x1="80.79" y1="139.79" x2="88.24" y2="142.28" />
<line fill="none" stroke="#5674b9" stroke-width="0.04mm" stroke-dasharray="0.4,0.2" x1="80.79" y1="139.79" x2="85.77" y2="141.28" />
<line fill="none" stroke="#5674b9" stroke-width="0.04mm" stroke-dasharray="0.4,0.2" x1="80.79" y1="139.79" x2="85.79" y2="141.15" />
</g>
<g>
<circle cx="22.00" cy="20.00" r="0.1" fill="#111111" />
<circle cx="25.30" cy="36.73" r="0.1" fill="#111111" />
<circle cx="28.88" cy="40.10" r="0.1" fill="#111111" />
<circle cx="34.54" cy="40.98" r="0.1" fill="#111111" />
<circle cx="39.02" cy="62.13" r="0.1" fill="#111111" />
<circle cx="48.33" cy="94.84" r="0.1" fill="#111111" />
<circle cx="57.58" cy="96.19" r="0.1" fill="#111111" />
<circle cx="63.07" cy="96.48" r="0.1" fill="#111111" />
<circle cx="64.83" cy="101.26" r="0.1" fill="#111111" />
<circle cx="67.07" cy="116.89" r="0.1" fill="#111111" />
<circle cx="69.99" cy="132.00" r="0.1" fill="#111111" />
<circle cx="78.09" cy="135.52" r="0.1" fill="#111111" />
<circle cx="80.79" cy="139.79" r="0.1" fill="#111111" />
</g>
<g>
<text x="22.20" y="20.00" font-size=".2mm" fill="#000000">0</text>
<text x="25.50" y="36.73" font-size=".2mm" fill="#000000">1</text>
<text x="29.08" y="40.10" font-size=".2mm" fill="#000000">2</text>
<text x="34.74" y="40.98" font-size=".2mm" fill="#000000">3</text>
<text x="39.22" y="62.13" font-size=".2mm" fill="#000000">4</text>
<text x="48.53" y="94.84" font-size=".2mm" fill="#000000">5</text>
<text x="57.78" y="96.19" font-size=".2mm" fill="#000000">6</text>
<text x="63.27" y="96.48" font-size=".2mm" fill="#000000">7</text>
<text x="65.03" y="101.26" font-size=".2mm" fill="#000000">8</text>
<text x="67.27" y="116.89" font-size=".2mm" fill="#000000">9</text>
<text x="70.19" y="132.00" font-size=".2mm" fill="#000000">10</text>
<text x="78.29" y="135.52" font-size=".2mm" fill="#000000">11</text>
<text x="80.99" y="139.79" font-size=".2mm" fill="#000000">12</text>
</g>
<g>
</g>
</g>
</svg>