<?xml version="1.0" encoding="utf-8"?>
<!DOCTYPE svg PUBLIC "-//W3C//DTD SVG 1.1//EN" "http://www.w3.org/Graphics/SVG/1.1/DTD/svg11.dtd">
<svg version="1.1" id="Layer_1" xmlns="http://www.w3.org/2000/svg" xmlns:xlink="http://www.w3.org/1999/xlink" x="0px" y="0px" width="257mm" height="158mm" viewBox="0 0 257 158" style="background-color:#ffffff;enable-background:new 0 0 257 158;" xml:space="preserve">
<symbol id="airflow" viewBox="-12 -12 24 24">
<path d="M-4.38,10.73l4.2-3.84V3.55L-4.07,7.13l-.31-.29L-.18,3V-6.89a3.37,3.37,0,0,0-1.68.53l1.68-4.15L0-11l.21.51h0v0l1.65,4.1A3.26,3.26,0,0,0,.24-6.89v14l-.08,0L-4.07,11Z"/>
<rect fill="none" x="-12" y="-12" width="24" height="24"/>
</symbol>
<symbol id="anastomosis" viewBox="-12 -12 24 24">
<path d="M2.23-4.78l.37.24L5.22-2.78l-.47.57L2.49-3.7l-4.61,8-.24.44-.37-.34L-5.22,2.3l.55-.52,2.1,1.82L2-4.39Z"/>
<rect fill="none" x="-12" y="-12" width="24" height="24"/>
</symbol>
<symbol id="bivouac" viewBox="-12 -12 24 24">
<path d="M.25-7.66l.24.58L.54-7l3.88.48-3.31.91L6,6H8.35v.48l-16.7.07V6.05h2.64L0-7.08Zm0,1.32L-5.13,6H-4l2.07-5L.2-4l2.09,5L4.37,6H5.44Z"/>
<rect fill="none" x="-12" y="-12" width="24" height="24"/>
</symbol>
<symbol id="bones" viewBox="-12 -12 24 24">
<path d="M2.44,4.27l-.16,0H2.13a.22.22,0,0,1-.11,0l-.1-.06a.39.39,0,0,1-.09-.11l-.08-.13a1.51,1.51,0,0,1-.06-.15l-.07-.17s0-.11-.08-.19-.06-.16-.08-.21a4.75,4.75,0,0,0-.38-.71c-.18-.29-.43-.64-.74-1A11.15,11.15,0,0,0-.7.32,6.73,6.73,0,0,0-2-.64a4.12,4.12,0,0,0-1.44-.52A1.64,1.64,0,0,1-5-2.19.72.72,0,0,1-5-2.44a1,1,0,0,1,0-.29A.52.52,0,0,1-4.87-3a.54.54,0,0,1,.35-.15L-4-3.22l.46,0a.54.54,0,0,0,.27-.06A.52.52,0,0,0-3-3.56a.74.74,0,0,0,.13-.31.54.54,0,0,1,.15-.26.54.54,0,0,1,.3-.15.83.83,0,0,1,.47,0,1.11,1.11,0,0,1,.35.4A7.46,7.46,0,0,1-1-2.76q.18.42.33.72a3.22,3.22,0,0,0,.39.57L.1-1a4.77,4.77,0,0,0,.58.43c.28.18.51.33.69.43l1,.56a1.84,1.84,0,0,0,.39.23A5.29,5.29,0,0,1,3.22.9l.43.26a3.7,3.7,0,0,1,.46.3l.36.29a2.28,2.28,0,0,1,.31.32A1,1,0,0,1,5,2.4c.2.48,0,.78-.47.91h0a8.48,8.48,0,0,0-1.12.09,1,1,0,0,0-.42.44A1,1,0,0,1,2.44,4.27Z"/>
<rect fill="none" x="-12" y="-12" width="24" height="24"/>
</symbol>
<symbol id="calcite" viewBox="-12 -12 24 24">
<path d="M2.36-2.22l.05.46.34,3.91L2,2.22,1.65-1.26-2.52-.06l-.23-.7L1.89-2.08Z"/>
<rect fill="none" x="-12" y="-12" width="24" height="24"/>
</symbol>
<symbol id="cauliflower" viewBox="-12 -12 24 24">
<path d="M5.58,3.22v-3A2.12,2.12,0,0,0,6.92-.43a1.78,1.78,0,0,0,.55-1.32,1.92,1.92,0,0,0-.65-1.42,2.19,2.19,0,0,0-1.53-.59,2.21,2.21,0,0,0-1.54.59,1.78,1.78,0,0,0-.64,1.42A1.86,1.86,0,0,0,3.65-.43,2.12,2.12,0,0,0,5,.23v3H.26v-3A2.17,2.17,0,0,0,1.61-.43a1.81,1.81,0,0,0,.54-1.32,1.91,1.91,0,0,0-.64-1.42A2.21,2.21,0,0,0,0-3.76a2.21,2.21,0,0,0-1.54.59,1.82,1.82,0,0,0-.64,1.42A1.83,1.83,0,0,0-1.66-.43,2.12,2.12,0,0,0-.32.23v3H-5v-3A2.12,2.12,0,0,0-3.71-.43a1.78,1.78,0,0,0,.55-1.32,1.92,1.92,0,0,0-.65-1.42,2.19,2.19,0,0,0-1.53-.59,2.21,2.21,0,0,0-1.54.59,1.83,1.83,0,0,0-.65,1.42A1.87,1.87,0,0,0-7-.43,2.12,2.12,0,0,0-5.64.23v3H-8v.54H8V3.22Z"/>
<rect fill="none" x="-12" y="-12" width="24" height="24"/>
</symbol>
<symbol id="clay" viewBox="-12 -12 24 24">
<path d="M1.85-1.33a3,3,0,0,1,1.67.48,3.23,3.23,0,0,1,1,1l.29.51-1,.43a3.81,3.81,0,0,0-.23-.4A3.74,3.74,0,0,0,2.93,0,1.77,1.77,0,0,0,1.85-.32a2.57,2.57,0,0,0-1.1.15A.86.86,0,0,0,.51.14,2.23,2.23,0,0,1,0,.88a2.55,2.55,0,0,1-1.45.43,3.16,3.16,0,0,1-2.75-1,4.28,4.28,0,0,1-.37-.57,3.91,3.91,0,0,1-.21-.47l0-.16,1-.22a1.87,1.87,0,0,0,.45.79A2.12,2.12,0,0,0-1.51.33,1.82,1.82,0,0,0-.69.14l.21-.36A1.53,1.53,0,0,1,.17-1,3.76,3.76,0,0,1,1.85-1.33Z"/>
<rect fill="none" x="-12" y="-12" width="24" height="24"/>
</symbol>
<symbol id="crystals" viewBox="-12 -12 24 24">
<path d="M-2.94-5.38,0-.72,2.94-5.38,3.62-5,.68-.36H6.56V.36H.68L3.62,5l-.68.36L0,.72-2.94,5.38-3.62,5-.68.36H-6.56V-.36H-.68L-3.62-5Z"/>
<rect fill="none" x="-12" y="-12" width="24" height="24"/>
</symbol>
<symbol id="curtain" viewBox="-12 -12 24 24">
<path d="M3.57-6.69l.52.53L.39-3V-.33L.1-.26a3.79,3.79,0,0,0-1,.41c-.58.3-.87.65-.87,1v.07A1.61,1.61,0,0,0-.84,2.48a3.69,3.69,0,0,0,.45.24L0,2.86l.13.05L.39,3V6.12H-.39V3.51a7.65,7.65,0,0,1-.9-.46A2.19,2.19,0,0,1-2.54,1.28V1.23A2,2,0,0,1-1.31-.48,5.32,5.32,0,0,1-.39-.86V-3l-3.7-3.14.52-.53L0-3.67Z"/>
<rect fill="none" x="-12" y="-12" width="24" height="24"/>
</symbol>
<symbol id="disk" viewBox="-12 -12 24 24">
<path d="M-.09-4.19a2.43,2.43,0,0,1,1.7.64A2,2,0,0,1,2.35-2,2.09,2.09,0,0,1,1.81-.55,2.44,2.44,0,0,1,.35.23l2.18,3.6-.68.33L0,1.14-1.48,4.19l-.71-.29L-.41.25A2.53,2.53,0,0,1-1.9-.47a2,2,0,0,1-.63-1.41,2,2,0,0,1,.67-1.61,2.46,2.46,0,0,1,1.72-.7ZM1.05-3.06.56-3.49l-.69,0A1.72,1.72,0,0,0-1.29-3a1.51,1.51,0,0,0-.45,1.08,1.36,1.36,0,0,0,.51,1A1.68,1.68,0,0,0-.07-.44v0l0,0A1.7,1.7,0,0,0,1.11-.92,1.36,1.36,0,0,0,1.56-2,1.47,1.47,0,0,0,1.05-3.06Z"/>
<rect fill="none" x="-12" y="-12" width="24" height="24"/>
</symbol>
<symbol id="entrance" viewBox="-12 -12 24 24">
<path d="M4.46,9H-4.46L0-9Z"/>
<rect fill="none" x="-12" y="-12" width="24" height="24"/>
</symbol>
<symbol id="flowstone" viewBox="-12 -12 24 24">
<rect x="-6" y="-0.21" width="12" height="0.42"/>
<rect fill="none" x="-12" y="-12" width="24" height="24"/>
</symbol>
<symbol id="flutes" viewBox="-12 -12 24 24">
<path d="M-7-1H7v.72H3.87A4.7,4.7,0,0,1,2.16,1.5,4.2,4.2,0,0,1,0,2.13,3.94,3.94,0,0,1-2.19,1.5,4.18,4.18,0,0,1-3.76-.27H-7Zm4.17.72A3.15,3.15,0,0,0-1.65,1,3.21,3.21,0,0,0,0,1.41,3.49,3.49,0,0,0,1.6,1,3.68,3.68,0,0,0,3-.27Z"/>
<rect fill="none" x="-12" y="-12" width="24" height="24"/>
</symbol>
<symbol id="gradient" viewBox="-12 -12 24 24">
<path d="M2.58-3.83,0-10-2.58-3.83A4.74,4.74,0,0,1-.17-4.5V10H.25V-4.5A6.65,6.65,0,0,1,2.58-3.83Z"/>
<rect fill="none" x="-12" y="-12" width="24" height="24"/>
</symbol>
<symbol id="guano" viewBox="-12 -12 24 24">
<path d="M-3.24-3a2.15,2.15,0,0,1,1.57.55A3.93,3.93,0,0,1-.59.24a4.32,4.32,0,0,1,2.75-2.3,2.68,2.68,0,0,1,2.23.36A2.36,2.36,0,0,1,5.5.19l-.79,0a1.72,1.72,0,0,0-.79-1.37,1.94,1.94,0,0,0-1.55-.24A3.53,3.53,0,0,0,.48,0,6.63,6.63,0,0,0-.69,3l-.79-.09a10.72,10.72,0,0,0,0-3.16A3.21,3.21,0,0,0-2.22-2,1.44,1.44,0,0,0-3.37-2.3,3.45,3.45,0,0,0-5-1.54l-.5-.55a4.29,4.29,0,0,1,2-.91A.9.9,0,0,1-3.24-3Z"/>
<rect fill="none" x="-12" y="-12" width="24" height="24"/>
</symbol>
<symbol id="helictites" viewBox="-12 -12 24 24">
<path d="M-4.59-7.92h.79v7.7l3.41,0V-7.92H.39V-.17L4.2-.12h.39v8H3.8V.6L.39.55V7.92H-.39V.55L-4.2.5l-.39,0v-8.4Z"/>
<rect fill="none" x="-12" y="-12" width="24" height="24"/>
</symbol>
<symbol id="human" viewBox="-12 -12 24 24">
<path d="M-3.59-3.29A5.13,5.13,0,0,1,0-4.66,5.13,5.13,0,0,1,3.59-3.29,4.3,4.3,0,0,1,5.09,0a4.3,4.3,0,0,1-1.5,3.29A5.13,5.13,0,0,1,0,4.66,5.13,5.13,0,0,1-3.59,3.29,4.3,4.3,0,0,1-5.09,0,4.3,4.3,0,0,1-3.59-3.29Zm.28.77A3.68,3.68,0,0,0-4.3,0a3.62,3.62,0,0,0,1,2.57L-.5.05ZM0-3.94A4.42,4.42,0,0,0-2.75-3L.16-.36H4.28A3.62,3.62,0,0,0,2.91-2.9,4.38,4.38,0,0,0,0-3.94ZM.16.46-2.7,3.07A4.42,4.42,0,0,0,0,3.94a4.37,4.37,0,0,0,2.87-1A3.78,3.78,0,0,0,4.28.46Z"/>
<rect fill="none" x="-12" y="-12" width="24" height="24"/>
</symbol>
<symbol id="karren" viewBox="-12 -12 24 24">
<path d="M1-5.84h0a1.37,1.37,0,0,1,1.06.68A3.33,3.33,0,0,1,2.5-3.79,25.79,25.79,0,0,1,2.36,0a18.61,18.61,0,0,0-.08,3.72,2.68,2.68,0,0,0,.41,1.2,1.13,1.13,0,0,0,.79.5A.92.92,0,0,0,4,4.94a4.43,4.43,0,0,0,.47-1.22c.16-.64.36-1.86.59-3.66a26.71,26.71,0,0,1,.64-3.69,4.62,4.62,0,0,1,.57-1.29,1.34,1.34,0,0,1,1-.59h0A1.28,1.28,0,0,1,8.37-5a2.17,2.17,0,0,1,.39,1.15A19.91,19.91,0,0,1,8.54-.53a21.51,21.51,0,0,0-.2,3.64A2.64,2.64,0,0,0,9.45,5.36,1.91,1.91,0,0,0,10.88,5a3.84,3.84,0,0,0,.7-1l.42.2-.1.18-.12.21-.11.18L11.52,5a.94.94,0,0,1-.14.16c-.06.07-.13.12-.19.18a2.5,2.5,0,0,1-1.85.41H9.29l0,0A3.06,3.06,0,0,1,7.87,3.13a22.11,22.11,0,0,1,.2-3.7,18.17,18.17,0,0,0,.22-3.28A1.85,1.85,0,0,0,8-4.79a.77.77,0,0,0-.67-.3.93.93,0,0,0-.64.42,4.51,4.51,0,0,0-.51,1.15A26.26,26.26,0,0,0,5.54.1c-.24,1.83-.45,3.07-.61,3.72a5.38,5.38,0,0,1-.51,1.34,1.33,1.33,0,0,1-.89.68H3.47A1.58,1.58,0,0,1,2.3,5.16a3.29,3.29,0,0,1-.49-1.4A20.27,20.27,0,0,1,1.89,0,23.45,23.45,0,0,0,2-3.75a2.94,2.94,0,0,0-.32-1.19A.93.93,0,0,0,1-5.42,1.1,1.1,0,0,0,.19-5,3.69,3.69,0,0,0-.43-3.76,20.78,20.78,0,0,0-1.07.07c-.2,2-.37,3.32-.49,3.86A4.48,4.48,0,0,1-2,5.26,1.06,1.06,0,0,1-3,5.81h0a1.9,1.9,0,0,1-1.29-.67,2.7,2.7,0,0,1-.58-1.31,14.92,14.92,0,0,1,0-3.6q0-.12.06-.54c0-.28,0-.47,0-.57s0-.28,0-.52,0-.42,0-.55,0-.28,0-.47,0-.36,0-.51,0-.29,0-.43A3.09,3.09,0,0,0-5-4.62a1.19,1.19,0,0,0-.67-.6,1.5,1.5,0,0,0-1.2.9A7,7,0,0,0-7.41-2.1c0,.39-.1,1-.14,1.76s-.11,1.47-.18,2.08A9.61,9.61,0,0,1-8,3.32h0l0,0A2.81,2.81,0,0,1-9.2,4.62a1.82,1.82,0,0,1-1.35.15A1.94,1.94,0,0,1-11.61,4,2.39,2.39,0,0,1-12,2.56l.47,0a1.92,1.92,0,0,0,.31,1.16,1.47,1.47,0,0,0,.81.62,1.3,1.3,0,0,0,1-.11A2.32,2.32,0,0,0-8.5,3.18a7.53,7.53,0,0,0,.29-1.5Q-8.1.8-8-.36c0-.78.1-1.37.16-1.78A7.23,7.23,0,0,1-7.28-4.5,1.93,1.93,0,0,1-5.65-5.66h.05l0,0a1.59,1.59,0,0,1,1,.84,3.47,3.47,0,0,1,.34,1.41,4.91,4.91,0,0,1,0,.57v.54c0,.15,0,.37,0,.66s0,.47,0,.58,0,.33-.06.68,0,.56-.06.63a14.78,14.78,0,0,0,0,3.49,2.58,2.58,0,0,0,.5,1.13,1.57,1.57,0,0,0,1,.5A.61.61,0,0,0-2.44,5,3.89,3.89,0,0,0-2,3.85C-1.9,3.31-1.74,2-1.53,0A20.65,20.65,0,0,1-.86-3.89,3.89,3.89,0,0,1-.18-5.26,1.58,1.58,0,0,1,1-5.84Z"/>
<rect fill="none" x="-12" y="-12" width="24" height="24"/>
</symbol>
<symbol id="moonmilk" viewBox="-12 -12 24 24">
<path d="M-4.78-3.06a3.39,3.39,0,0,1,1.5.34,2.48,2.48,0,0,1,1.1,1,3.74,3.74,0,0,1,1.62-.8,3.52,3.52,0,0,1,1.71,0,2.9,2.9,0,0,1,1.39.77A2.49,2.49,0,0,1,3.25-.37,4,4,0,0,1,5-.76a3.58,3.58,0,0,1,1.6.36A2.84,2.84,0,0,1,7.88.92a2.32,2.32,0,0,1,0,1.88.34.34,0,0,1-.37.26A.36.36,0,0,1,7.25,3a.32.32,0,0,1-.12-.25.21.21,0,0,1,0-.12,2,2,0,0,0,0-1.43,2,2,0,0,0-1-.9A2.81,2.81,0,0,0,4.68,0,2.78,2.78,0,0,0,3.12.56L2.46.25A1.7,1.7,0,0,0,2.15-1.1,2.15,2.15,0,0,0,1-1.81a2.85,2.85,0,0,0-1.58.06A3,3,0,0,0-2-.83l-.71-.12A1.74,1.74,0,0,0-3.55-2a2.36,2.36,0,0,0-1.39-.27,3.08,3.08,0,0,0-1.45.53A2.33,2.33,0,0,0-7.32-.56a.35.35,0,0,1-.37.24A.39.39,0,0,1-8-.42a.33.33,0,0,1-.1-.26v-.1A3,3,0,0,1-6.89-2.35,4,4,0,0,1-5-3Z"/>
<rect fill="none" x="-12" y="-12" width="24" height="24"/>
</symbol>
<symbol id="narrow" viewBox="-12 -12 24 24">
<path d="M-1.5,5V-5h0.64V5H-1.5z"/>
<path d="M0.86,5V-5H1.5V5H0.86z"/>
<rect fill="none" x="-12" y="-12" width="24" height="24"/>
</symbol>
<symbol id="paleoflow" viewBox="-12 -12 24 24">
<path d="M.38-12V.17A1.9,1.9,0,0,0,1,0,1.57,1.57,0,0,0,1.7-.72a1.86,1.86,0,0,0,.23-1c0-.09,0-.14.08-.16a.92.92,0,0,1,.24,0,.52.52,0,0,0,.25,0h.08A2.48,2.48,0,0,1,2,0,2.5,2.5,0,0,1,.38.77V7.21H2.09L0,12-1.8,7.23c.07,0,.59,0,1.53,0V.77A3,3,0,0,1-1.35.43a2.16,2.16,0,0,1-1-1,2.38,2.38,0,0,1-.24-1.33l.67,0a2,2,0,0,0,.15,1,1.73,1.73,0,0,0,.59.67A2.14,2.14,0,0,0-.27.16V-12Z"/>
<rect fill="none" x="-12" y="-12" width="24" height="24"/>
</symbol>
<symbol id="rain" viewBox="-12 -12 24 24">
<path d="M-4.14-6.34h0.71v4.69h-0.71V-6.34z"/>
<path d="M-0.35-6.34h0.71v4.69h-0.71V-6.34z"/>
<path d="M3.43-6.34h0.71v4.69H3.43V-6.34z"/>
<path d="M-4.14,1.65h0.71v4.69h-0.71V1.65z"/>
<path d="M-0.35,1.65h0.71v4.69h-0.71V1.65z"/>
<path d="M3.43,1.65h0.71v4.69H3.43V1.65z"/>
<rect fill="none" x="-12" y="-12" width="24" height="24"/>
</symbol>
<symbol id="rats" viewBox="-12 -12 24 24">
<path d="M8.78-2.32,7-2.27c-.51-.17-.65-.56-1.46-.45l-.25.45C3.59-2.75,2.59-3.66.56-3.62l-1.35.3A4.89,4.89,0,0,0-4.24,1.57c-.68.6-2.58.86-3.39.94a6.84,6.84,0,0,0-1.62.39,4.91,4.91,0,0,0-1,.52A1.75,1.75,0,0,0-11,4.61a1.16,1.16,0,0,0,.59,1.48,1.3,1.3,0,0,1,.14.12c.16-.52-.35-.92-.2-1.42a3.35,3.35,0,0,1,.27-.45,3.18,3.18,0,0,1,1.79-1c.63-.12,1.27-.22,1.91-.3.48-.07,1,0,1.4-.12A6.94,6.94,0,0,1-4,2.82,30.64,30.64,0,0,0,.41,2.69l2.16.15c.1-.09,0,0,.1-.15a.87.87,0,0,0-.9-.55c.86-1,2.27-.37,3.1-.05.5.19,1,0,1.25.4.11-.1.1-.07.15-.25.3,0,.31.07.6.15-.06-.49-.34-.64-1-.6a.78.78,0,0,1,0-.55C6.3.56,7.29.73,8.13.43a13.78,13.78,0,0,0,2.15-.9l.6-.85v-.2A16.9,16.9,0,0,0,8.78-2.32Z"/>
<rect fill="none" x="-12" y="-12" width="24" height="24"/>
</symbol>
<symbol id="sand" viewBox="-12 -12 24 24">
<path d="M-1.58,0.83c0.23,0.2,0.35,0.44,0.36,0.73c0.01,0.29-0.08,0.54-0.28,0.75c-0.2,0.21-0.46,0.32-0.78,0.33c-0.32,0.01-0.6-0.08-0.83-0.26C-3.36,2.19-3.49,1.95-3.5,1.67C-3.51,1.38-3.41,1.12-3.2,0.9c0.21-0.22,0.48-0.34,0.8-0.35C-2.08,0.54-1.81,0.64-1.58,0.83z"/>
<path d="M0.08-2.36c0.23,0.2,0.35,0.44,0.36,0.73c0.01,0.29-0.08,0.54-0.28,0.75c-0.2,0.21-0.46,0.32-0.78,0.33c-0.32,0.01-0.59-0.07-0.83-0.26s-0.37-0.42-0.38-0.71c-0.01-0.29,0.09-0.54,0.3-0.76c0.21-0.22,0.48-0.33,0.8-0.35C-0.42-2.65-0.14-2.56,0.08-2.36z"/>
<path d="M3.12,0.55c0.23,0.2,0.35,0.43,0.38,0.71c0.02,0.28-0.07,0.53-0.28,0.75C3,2.23,2.73,2.35,2.42,2.36C2.1,2.37,1.82,2.28,1.58,2.08C1.34,1.88,1.22,1.64,1.2,1.35c-0.01-0.29,0.09-0.54,0.3-0.75C1.72,0.4,1.99,0.29,2.3,0.28S2.89,0.36,3.12,0.55z"/>
<rect fill="none" x="-12" y="-12" width="24" height="24"/>
</symbol>
<symbol  id="scallops" viewBox="-12 -12 24 24">
<path d="M.05-3.74l.21,0A2.35,2.35,0,0,1,1.74-3a2,2,0,0,1,.59,1.55v0l0,0A9.59,9.59,0,0,1-.08,3.27l-.39.47-.27-.55A14.26,14.26,0,0,1-2.33-1.89v-.05l0-.05A2,2,0,0,1-1.44-3.3,2.42,2.42,0,0,1,.05-3.74ZM-.11-3A1.44,1.44,0,0,0-1.55-1.89,13.06,13.06,0,0,0-.29,2.33,8.6,8.6,0,0,0,1.55-1.54a1.41,1.41,0,0,0-.38-1A1.62,1.62,0,0,0,.18-3Z"/>
<rect fill="none" x="-12" y="-12" width="24" height="24"/>
</symbol>
<symbol  id="sink" viewBox="-12 -12 24 24">
<path d="M.72,9.41H.9c1.94,0,3.26-.54,3.94-1.51a3.61,3.61,0,0,0,.33-.69,2,2,0,0,0,.11-.54V6.46l.69,0a2.8,2.8,0,0,1-.58,1.78C4.58,9.39,3.1,10,.93,10H-.93q-3.25,0-4.46-1.8a2.74,2.74,0,0,1-.43-.83A2.37,2.37,0,0,1-6,6.67V6.43l.68,0A2.27,2.27,0,0,0-4.84,7.9c.68,1,2,1.47,3.93,1.48l.5,0ZM-1.46-10a.68.68,0,0,0,.16.41A2.77,2.77,0,0,0-.51-9l0,0a3.63,3.63,0,0,1,1,.7,1.15,1.15,0,0,1,.34.88c0,.58-.53,1.14-1.49,1.68-.68.42-1,.79-1,1.11s.3.61.84,1h0Q.61-2.86.46-1.78a3.51,3.51,0,0,1-1.55,2,.61.61,0,0,0-.26.41,1.67,1.67,0,0,0,.1.51,5.3,5.3,0,0,1,.32,1L.56,1.9.46,8.06-3.4,2.54l1.73-.28A6.16,6.16,0,0,0-2,1.39,1.7,1.7,0,0,1-2.09.58a1.21,1.21,0,0,1,.53-.82h0v0C-.75-.86-.33-1.38-.28-1.85s-.23-.87-.91-1.27h0C-2-3.6-2.37-4.1-2.4-4.61S-2-5.74-1.09-6.29C-.34-6.72.06-7.1.09-7.44a.67.67,0,0,0-.18-.43,3.17,3.17,0,0,0-.79-.58,2.93,2.93,0,0,1-1-.67A1.16,1.16,0,0,1-2.17-10Z"/>
<rect fill="none" x="-12" y="-12" width="24" height="24"/>
</symbol>
<symbol  id="spring" viewBox="-12 -12 24 24">
<path d="M-1.34-9.86,2.52-4.34.78-4.06a8,8,0,0,0,.29.87,1.4,1.4,0,0,1,.13.79,1.3,1.3,0,0,1-.52.84l0,0v0C-.13-.95-.55-.42-.61,0S-.37.91.31,1.3l0,0c.75.46,1.14,1,1.18,1.46S1.12,3.92.21,4.46C-.54,4.9-.94,5.29-1,5.64a.74.74,0,0,0,.18.43A3.2,3.2,0,0,0,0,6.62a3,3,0,0,1,1,.7,1.14,1.14,0,0,1,.31.86A1.74,1.74,0,0,1,.71,9.26H.92c1.92,0,3.22-.52,3.9-1.51a2.05,2.05,0,0,0,.35-.67,2.59,2.59,0,0,0,.1-.55l0-.19.65,0a2.84,2.84,0,0,1-.55,1.8C4.58,9.26,3.08,9.85.92,9.86H-.92c-2.17,0-3.66-.6-4.49-1.77a3.65,3.65,0,0,1-.4-.85A2.43,2.43,0,0,1-6,6.53V6.29l.66,0a2.08,2.08,0,0,0,.47,1.41c.68,1,2,1.5,3.91,1.51H-.4c.62-.43.94-.8,1-1.1a.76.76,0,0,0-.16-.43,3.25,3.25,0,0,0-.79-.51v0a3.8,3.8,0,0,1-1-.7,1.15,1.15,0,0,1-.34-.91q.06-.84,1.5-1.68c.68-.4,1-.77,1-1.1S.49,2.21,0,1.87c0,0,0,0,0,0C-1,1.32-1.44.69-1.34,0a3.58,3.58,0,0,1,1.55-2,.54.54,0,0,0,.23-.38A1.28,1.28,0,0,0,.37-3a4.57,4.57,0,0,1-.32-1l-1.49.24Z"/>
<rect fill="none" x="-12" y="-12" width="24" height="24"/>
</symbol>
<symbol  id="stalactite" viewBox="-12 -12 24 24">
<path d="M3.57-6.69l.52.53L.39-3V6.12H-.39V-3l-3.7-3.14.52-.53L0-3.67Z"/>
<rect fill="none" x="-12" y="-12" width="24" height="24"/>
</symbol>
<symbol  id="stalagmite" viewBox="-12 -12 24 24">
<path d="M.38-6.42V2.75L4.11,5.89l-.56.53L0,3.4l-3.57,3-.53-.53,3.7-3.14V-6.42Z"/>
<rect fill="none" x="-12" y="-12" width="24" height="24"/>
</symbol>
<symbol  id="stalagnate" viewBox="-12 -12 24 24">
<path d="M3.55-8.46l.56.53L.38-4.78v9L4.11,7.36l-.56.53L0,4.86l-3.57,3-.53-.53,3.7-3.14v-9l-3.7-3.15.53-.53L0-5.43Z"/>
<rect fill="none" x="-12" y="-12" width="24" height="24"/>
</symbol>
<symbol  id="straws" viewBox="-12 -12 24 24">
<path d="M-10.89-2.76H10.89V-2H9.63V.46H8.84V-2H8.29v5.6H7.5V-2H5.56V.7H4.77V-2H2.07V2.38H1.29V-2H-.1v3H-.89V-2H-3.2V4.11H-4V-2H-6.22L-6.16.75l-.79,0L-7-2H-8.32V2.33H-9.1V-2h-1.79Z"/>
<rect fill="none" x="-12" y="-12" width="24" height="24"/>
</symbol>
<symbol  id="water" viewBox="-12 -12 24 24">
<path d="M-1.72-9.86,2.11-4.32.38-4.06a6.49,6.49,0,0,0,.29.89,1.5,1.5,0,0,1,.13.79,1.2,1.2,0,0,1-.5.82h0l0,0C-.54-.94-1-.42-1,.05s.24.89.92,1.27h0c.77.48,1.17,1,1.19,1.49S.71,3.94-.2,4.49c-.75.43-1.13.81-1.15,1.15a.51.51,0,0,0,.18.43,2.66,2.66,0,0,0,.76.58,2.93,2.93,0,0,1,1,.67,1.16,1.16,0,0,1,.29.89C.84,8.75.42,9.3-.41,9.86l-.44-.55c.66-.45,1-.83,1-1.15A.47.47,0,0,0,0,7.75a2.84,2.84,0,0,0-.78-.53h0a3.87,3.87,0,0,1-1-.69,1.24,1.24,0,0,1-.34-.91c0-.58.54-1.14,1.52-1.68.66-.42,1-.79,1-1.11s-.3-.61-.84-1h0Q-1.9,1.06-1.74,0a3.44,3.44,0,0,1,1.54-2,.67.67,0,0,0,.27-.41A1.11,1.11,0,0,0,0-3a4.33,4.33,0,0,1-.31-1l-1.5.24Z"/>
<rect fill="none" x="-12" y="-12" width="24" height="24"/>
</symbol><symbol  id="tree" viewBox="-12 -12 24 24">
<path d="M7.4-5.04A4.271,4.271,0,0,0,7.7-6.627a4.3,4.3,0,0,0-4.3-4.3A4.279,4.279,0,0,0,.636-9.914,4.293,4.293,0,0,0-3.045-12a4.3,4.3,0,0,0-4.3,4.3,4.27,4.27,0,0,0,.421,1.845,4.3,4.3,0,0,0-3.645,4.244,4.3,4.3,0,0,0,4.3,4.3A4.282,4.282,0,0,0-3.946,2L-1.175,5.23h0L-1.612,12H.982L.757,6.376,4.119,2.827v0a4.272,4.272,0,0,0,2.15.58,4.3,4.3,0,0,0,4.3-4.3A4.3,4.3,0,0,0,7.4-5.04ZM-3.346,1.538h0A4.346,4.346,0,0,0-2.7.788a4.266,4.266,0,0,0,1.765.753l-.135,2.087ZM.69,4.7.563,1.544A4.258,4.258,0,0,0,2.321.805,4.3,4.3,0,0,0,3.378,2.279Z"/>
<rect fill="none" x="-12" y="-12" width="24" height="24"/>
</symbol><g>
<desc></desc>
<g>
<line fill="none" stroke="#dddddd" stroke-width="0.1mm" x1="0.00" y1="26.00" x2="257.00" y2="26.00" />
<text x="254.20" y="25.80" font-size=".2mm" fill="#000000">0m</text>
<line fill="none" stroke="#dddddd" stroke-width="0.1mm" x1="0.00" y1="76.00" x2="257.00" y2="76.00" />
<text x="254.20" y="75.80" font-size=".2mm" fill="#000000">-5m</text>
<line fill="none" stroke="#dddddd" stroke-width="0.1mm" x1="0.00" y1="126.00" x2="257.00" y2="126.00" />
<text x="254.20" y="125.80" font-size=".2mm" fill="#000000">-10m</text>
<line fill="none" stroke="#dddddd" stroke-width="0.1mm" x1="20.00" y1="0.00" x2="20.00" y2="158.00" />
<text x="20.40" y="2.00" font-size=".2mm" fill="#000000">0m</text>
<line fill="none" stroke="#dddddd" stroke-width="0.1mm" x1="70.00" y1="0.00" x2="70.00" y2="158.00" />
<text x="70.40" y="2.00" font-size=".2mm" fill="#000000">5m</text>
<line fill="none" stroke="#dddddd" stroke-width="0.1mm" x1="120.00" y1="0.00" x2="120.00" y2="158.00" />
<text x="120.40" y="2.00" font-size=".2mm" fill="#000000">10m</text>
<line fill="none" stroke="#dddddd" stroke-width="0.1mm" x1="170.00" y1="0.00" x2="170.00" y2="158.00" />
<text x="170.40" y="2.00" font-size=".2mm" fill="#000000">15m</text>
<line fill="none" stroke="#dddddd" stroke-width="0.1mm" x1="220.00" y1="0.00" x2="220.00" y2="158.00" />
<text x="220.40" y="2.00" font-size=".2mm" fill="#000000">20m</text>
</g>
<g>
<path fill="none" stroke="#FA356C" stroke-width="0.02mm" d="M19.36832,23.719297 C19.04825,23.962656 18.715078,24.189684 18.408112,24.449373 C18.083242,24.724209 17.868038,25.190615 17.784508,25.596657 C17.680838,26.100586 17.661184,26.652561 17.850779,27.140442 C18.330933,28.376019 19.940874,28.993954 21.038456,28.172146 C22.196075,27.305384 22.352192,24.853003 21.272495,23.872984 C21.227047,23.831732 20.788845,23.490562 20.656452,23.520401 C20.107178,23.644188 19.589619,23.880907 19.056202,24.061161 L19.056202,24.061161" /><path fill="none" stroke="#FA356C" stroke-width="0.02mm" d="M36.35671,23.749014 C35.126663,23.780138 34.454094,23.823334 33.887356,24.969093 C33.407665,25.938873 33.387234,27.209524 34.27005,27.96348 C35.19891,28.75676 37.07745,28.538822 37.986973,27.806759 C38.67469,27.253222 39.22477,26.104149 38.752846,25.25239 C38.70385,25.163958 38.645283,25.07996 38.577667,25.0048 C38.175636,24.55792 37.773506,24.11016 37.345528,23.688068 C37.205025,23.5495 36.833717,23.355356 36.64654,23.303406 C35.69642,23.0397 35.4766,23.454292 34.26103,23.882795 L34.26103,23.882795" /><path fill="none" stroke="#FA356C" stroke-width="0.06mm" d="M40.488617,45.152966 L41.172314,47.27849" /><path fill="none" stroke="#000000" stroke-width="0.06mm" d="M39.552254,45.123222 C40.91349,46.621082 40.248367,46.05214 42.45235,47.45784 C42.766586,47.658264 43.120117,47.79611 43.42181,48.01496 C43.92561,48.38042 44.312817,48.909622 44.86071,49.204895 C46.38147,50.024467 48.01008,50.62584 49.584763,51.336315 L49.584763,51.336315" /><path fill="none" stroke="#000000" stroke-width="0.06mm" d="M46.136543,41.40727 C47.118702,42.262997 48.055244,43.174088 49.083023,43.974457 C49.68228,44.441124 50.38655,44.757492 51.00495,45.198483 C51.198196,45.33629 51.36128,45.516014 51.507225,45.70319 C54.066994,48.98613 53.411556,48.019142 55.00975,51.0539 L55.00975,51.0539" /><defs><path id="DRAW_12304"  d="M53.147976,37.312336 C53.469875,40.159508 53.897472,42.99671 54.113678,45.85386 C54.23979,47.520485 53.603092,49.74009 53.500076,51.30847 C53.444942,52.147854 53.497845,52.9946 53.593678,53.830315 C53.94981,56.93602 55.651413,59.40338 56.739048,62.379402 C57.00884,63.11762 57.098534,64.556465 57.0598,65.39166 C56.993965,66.81131 55.439476,68.429306 54.99181,69.3573 C54.41173,70.559784 53.819336,71.78905 53.56443,73.09957 C52.86477,76.69669 52.237644,80.33763 52.14352,84.000946 C51.984814,90.17819 52.954567,98.56787 55.12743,104.58773 C56.97066,109.69434 59.18885,114.666046 61.542587,119.55839 C62.693195,121.94997 65.63035,125.4521 67.6201,127.19574 C69.869835,129.16719 72.15837,131.12306 74.66834,132.75034 C76.18581,133.73413 77.91667,134.3584 79.61723,134.97372 C80.62184,135.33725 87.222984,137.27425 89.269875,137.57872 C91.9028,137.97038 94.57167,138.08508 97.20599,138.46732 C98.821075,138.70164 100.38883,139.2151 102.007034,139.4268 C106.10462,139.96286 108.58237,139.87411 112.6848,139.35135 C114.30909,139.14436 116.38681,138.16605 117.683784,137.42647 C122.13747,134.88683 123.95653,133.46375 127.5925,129.51068 C131.15811,125.634125 135.57341,117.33529 137.40738,113.96139 C137.87552,113.10018 138.58275,110.98646 138.6716,109.798 C138.97156,105.78654 136.99606,101.66789 135.54782,98.15569 C135.06628,96.987885 134.62239,95.77883 133.89746,94.744354 C129.10349,87.903275 125.55329,83.49832 119.40149,78.200195 C108.180984,68.536736 118.81481,78.53586 108.64144,71.19936 C104.50123,68.21367 100.476295,65.05687 96.62624,61.705322 C90.24856,56.153404 84.96838,48.892456 76.92232,45.403027 C72.27883,43.38923 67.22972,42.47965 62.42382,40.891983 C61.915974,40.724213 61.466377,40.41337 61.004135,40.14432 C59.610626,39.333244 58.269154,38.432953 56.858223,37.652584 C55.813206,37.074593 54.569084,36.833794 53.413525,37.140877 C53.097424,37.224876 52.807568,37.414383 52.727688,37.74799 C52.621647,38.19084 52.87468,38.855694 52.95476,39.200043 L52.95476,39.200043" /></defs><use xlink:href="#DRAW_12304" fill="none" stroke="#000000" stroke-width="0.04mm" /><text style="fill:#000000; font-size:0.5mm; letter-spacing:2;"><textPath xlink:href="#DRAW_12304">||||||||||||||||||||||||||||||||||||||||||||||||||||||||||||||||||||||||||||||||||||||||||||||||||||||||||||||||||||||||||||||||||||||||||||||||||||||||||||||||||||||||||||||||||||||||||||||||||||||||||||||||||||||||||||||||||||||||||||||||||||||||||||||||||||||||||||||||||||||||||||||||||||||||||||||||||||||||||||||||||||||||||||||||||||||||||||||||||||||||||||||||||||||||||||||||||||||||||||||||||||||||||||||||||||||||||||||||||||||||||||||||||||||||||||||||||||||||||||||||||||||||||||||||||||||||||||||||||||||||||||||||||||||||||||||||||||||||||||||||||||||||||||||||||||||||||||||||||||||||||||||||||||||||||||||||||||||||||||||||||||||||||||||||||||||||||||||||||||||||||||||||||||||||||||||||||||||||||||||||||||||||||||||||||||||||||||||||||||||||||||||||||||||||||||||||||||||||||||||||||||||||||||||||||||||||||||||||||||||||||||||||||||||||||||||||||||||||||||||||||||||||||||||||||||||||||||||||||||||||||||||||||||||||||||||||||||||||||||||||||||||||||||||||||||||||||||||||||||||||||||||||||||||||||||||||||||||||||||||||||||||||||||||||||||||||||||||||||||||||||||||||||||||||||||||||||||||||||||||||||||||||||||||||||||||||||||||||||||||||||||||||||||||||||||||||||||||||||||||||||||||||||||</textPath></text><path fill="none" stroke="#000000" stroke-width="0.02mm" d="M101.84746,110.879776 L101.827126,110.88295" /><path fill="none" stroke="#000000" stroke-width="0.02mm" d="M101.30695,111.09131 L101.02812,112.01103" /><path fill="none" stroke="#000000" stroke-width="0.06mm" stroke-dasharray="0.3mm,0.1mm" d="M121.61621,101.39102 C124.09288,101.706436 126.56956,102.02185 129.04623,102.33726 C130.2767,102.40491 131.51352,102.39815 132.73764,102.540215 C133.92659,102.67821 135.09782,102.94213 136.2717,103.175865 C136.98862,103.31861 137.517,103.5937 138.24286,103.54198 C138.58398,103.517685 138.91527,103.41687 139.25146,103.35432 L139.25146,103.35432" /><path fill="none" stroke="#000000" stroke-width="0.06mm" d="M138.96863,102.50578 C139.54659,102.66691 140.6652,103.45904 141.40424,103.25767 C141.82736,103.142365 142.24278,103.000435 142.66205,102.87181 L142.66205,102.87181" /><path fill="none" stroke="#000000" stroke-width="0.06mm" stroke-dasharray="0.3mm,0.1mm" d="M122.68741,108.48259 C123.12293,108.30469 123.54683,108.09514 123.99399,107.94892 C126.934494,106.9874 133.0643,110.028076 133.88513,110.29226 C139.6164,112.13696 136.6155,111.5399 140.09196,112.12422 L140.09196,112.12422" /><path fill="none" stroke="#000000" stroke-width="0.06mm" d="M138.4132,103.4698 C141.48105,102.937325 140.68987,102.885864 143.26517,102.98647 C143.6705,103.002304 144.07297,103.08254 144.47859,103.07881 C145.62936,103.06824 145.35481,102.89504 146.5162,102.66057 C146.89697,102.583694 147.2873,102.56586 147.67282,102.5185 L147.67282,102.5185" /><defs><path id="DRAW_12392"  d="M121.23142,101.33082 C122.44874,103.9868 122.46047,103.6315 123.068054,106.75685 C123.943855,111.26177 122.89018,107.336685 123.50445,109.53799 L123.50445,109.53799" /></defs><use xlink:href="#DRAW_12392" fill="none" stroke="#000000" stroke-width="0mm" /><text style="fill:#000000; font-size:0.6mm; letter-spacing:2;"><textPath xlink:href="#DRAW_12392">⊥⊥⊥⊥⊥⊥⊥⊥⊥⊥⊥⊥⊥⊥⊥⊥⊥⊥⊥⊥⊥⊥⊥⊥⊥⊥</textPath></text><defs><path id="DRAW_12393"  d="M140.26141,112.47194 C141.61072,112.59137 143.20322,112.44393 144.4524,113.115555 C146.14592,114.02611 142.44034,112.982834 147.30493,115.10414 C150.50798,116.5009 153.81009,117.67031 157.13289,118.751724 C157.83572,118.98046 158.59496,119.01729 159.33408,119.01904 C161.65231,119.024536 164.46886,119.04341 166.64357,117.901245 C167.17368,117.62284 167.85553,117.07235 168.22424,116.60812 C169.59103,114.88726 170.14195,114.125656 170.80798,112.067856 C171.28375,110.597855 170.9964,109.638725 171.272,108.05356 C171.52238,106.61366 172.96117,103.67488 171.61775,102.088165 C170.75482,101.06896 169.82785,100.1646 168.56291,99.67852 C166.43475,98.86072 163.44952,99.424095 161.5281,99.71202 C160.01399,99.93892 158.56825,100.54637 157.04721,100.72087 C154.96962,100.95921 152.86562,100.82942 150.77762,100.94531 C149.54108,101.01395 148.57086,101.812645 148.34009,103.02671 C148.11246,104.22434 147.95638,105.43448 147.76405,106.638275 C147.55783,107.929184 147.403,109.22941 147.14444,110.510864 C146.99283,111.262184 146.70088,111.97974 146.53531,112.7281 C146.32623,113.67305 146.57443,114.57767 146.76332,115.49841 L146.76332,115.49841" /></defs><use xlink:href="#DRAW_12393" fill="none" stroke="#000000" stroke-width="0.04mm" /><text style="fill:#000000; font-size:0.5mm; letter-spacing:2;"><textPath xlink:href="#DRAW_12393">||||||||||||||||||||||||||||||||||||||||||||||||||||||||||||||||||||||||||||||||||||||||||||||||||||||||||||||||||||||||||||||||||||||||||||||||||||||||||||||||||||||||||||||||||||||||||||||||||||||||||||||||||||||||||||||||||||||||||||||||||||||||||||||||||||||||||||||||||||||||||||||||||||||||||||||||||||||||||||||||||||||||||||</textPath></text><path fill="none" stroke="#924216" stroke-width="0.06mm" stroke-dasharray="0.3mm,0.1mm" d="M111.807945,120.46125 C112.71361,119.127335 113.7782,117.79617 115.20181,116.98564 C115.71945,116.690926 116.272446,116.4609 116.78728,116.16132 C116.94081,116.07198 117.08447,115.95887 117.19928,115.82331 C117.83147,115.07686 118.41646,114.29167 119.02162,113.523155 C119.260544,113.21976 119.477554,112.89853 119.731476,112.60756 C120.36575,111.880745 121.31402,111.551636 122.21945,111.315796 C124.36188,110.75775 124.68853,111.184166 127.36284,111.00488 C127.89224,110.9694 128.41208,110.83276 128.92331,110.690735 C130.49606,110.25377 132.0701,109.81235 133.60947,109.269356 C134.01071,109.12782 135.41989,108.23751 136.21956,108.19295 C137.52374,108.120255 138.85141,108.333336 140.13713,108.10295 C142.62143,107.65776 145.01347,106.79816 147.46014,106.17868 C148.02771,106.03497 148.6286,106.015396 149.17828,105.81379 C149.9847,105.51804 150.75793,105.12871 151.50043,104.69689 C156.58176,101.74164 155.71448,102.75996 157.84993,100.16142 L157.84993,100.16142" /><path fill="none" stroke="#924216" stroke-width="0.06mm" d="M175.70377,100.7165 L175.5734,101.81521" /><path fill="none" stroke="#924216" stroke-width="0.06mm" d="M175.09586,95.43008 C175.14778,96.52664 175.19968,97.62319 175.25159,98.71974 C175.33217,99.245445 175.45053,99.76672 175.49333,100.29683 C175.5354,100.8183 175.50145,101.34314 175.50554,101.86629 L175.50554,101.86629" /><path fill="none" stroke="#924216" stroke-width="0.06mm" d="M176.28523,100.75614 C176.03601,101.0503 175.80931,101.36515 175.53754,101.638626 C174.19264,102.99195 170.68767,103.712845 169.61153,104.073364 L169.61153,104.073364" /><path fill="none" stroke="#924216" stroke-width="0.06mm" stroke-dasharray="0.3mm,0.1mm" d="M171.48808,102.79141 C169.64616,103.083305 168.75932,103.07518 167.00476,104.13014 C160.65036,107.95084 159.01076,110.466545 153.45065,112.16525 C150.35124,113.11218 147.11609,112.75209 143.9072,112.97504 C140.01804,113.245255 138.39668,113.40165 134.74983,114.944626 C132.48438,115.90314 130.3563,117.16008 128.12732,118.20063 C127.78494,118.36047 127.4176,118.47224 127.04606,118.540985 C125.17299,118.88756 123.25684,119.00528 121.403366,119.444756 C119.59273,119.874084 117.89069,120.69253 116.08446,121.14012 C115.47242,121.29179 113.75431,121.416245 112.89412,121.20313 C112.25623,121.0451 111.641396,120.80546 111.01503,120.60663 L111.01503,120.60663" /><path fill="none" stroke="#924216" stroke-width="0.06mm" d="M157.26187,100.24993 C155.36925,96.76837 157.92365,101.66543 155.27133,95.11895 C154.56738,93.38141 154.03174,93.28324 153.76501,91.82892 C153.70052,91.47718 153.61548,91.11437 153.66742,90.76056 C153.72229,90.386696 153.94046,90.05588 154.07698,89.70354 L154.07698,89.70354" /><path fill="none" stroke="#924216" stroke-width="0.06mm" stroke-dasharray="0.3mm,0.1mm" d="M154.18271,91.130875 C154.11935,90.68071 154.02786,90.23362 153.99265,89.78039 C153.86156,88.09277 155.28944,86.05104 155.7878,84.81819 C156.14381,83.937454 156.32167,81.542465 156.42908,81.069046 C156.64511,80.11684 156.95538,79.18606 157.2968,78.27128 C157.67343,77.262146 158.36533,76.177475 159.23125,75.51206 C159.87387,75.01825 161.2622,74.62244 162.09018,74.65786 C162.57341,74.67854 163.05307,74.758156 163.52968,74.840485 C165.2768,75.14229 165.02718,74.990555 166.16896,75.826706 L166.16896,75.826706" /><path fill="none" stroke="#924216" stroke-width="0.06mm" stroke-dasharray="0.3mm,0.1mm" d="M163.92236,75.17912 C167.23505,74.70119 170.82578,74.56546 173.792,72.798 C174.24797,72.526306 174.67242,72.20075 175.07448,71.85424 C176.73209,70.42555 178.26682,68.85455 179.96652,67.47621 C180.73839,66.850266 182.4317,66.326065 183.25647,65.87823 C183.67688,65.64996 184.04045,65.329834 184.43245,65.05563 L184.43245,65.05563" /><path fill="none" stroke="#924216" stroke-width="0.06mm" stroke-dasharray="0.3mm,0.1mm" d="M154.72452,92.51855 C156.30823,93.241714 157.89194,93.96488 159.47565,94.68805 C159.85945,94.824196 160.25803,94.9243 160.62708,95.0965 C161.09428,95.31451 161.5151,95.62211 161.97537,95.85444 C162.43285,96.08538 162.91568,96.26289 163.37755,96.484924 C164.03197,96.799515 164.09312,96.97558 164.84013,97.10259 C167.39117,97.53634 168.69583,97.39268 171.24347,96.75023 C172.01364,96.55601 172.82184,96.04063 173.33171,95.43187 C174.78748,93.693756 175.55515,90.085495 176.04521,88.40822 C178.10304,81.36522 177.14537,82.80766 179.74698,77.50131 C180.32242,76.32761 180.86987,75.37279 181.82315,74.49064 C182.66064,73.71568 184.2762,72.281075 185.53369,71.82146 C185.78061,71.7312 186.0594,71.81317 186.32224,71.80904 L186.32224,71.80904" /><path fill="none" stroke="#924216" stroke-width="0.06mm" stroke-dasharray="0.3mm,0.1mm" d="M184.56032,64.61824 C188.12375,63.124958 186.35995,63.729195 189.8367,62.76026 L189.8367,62.76026" /><path fill="none" stroke="#924216" stroke-width="0.06mm" d="M153.64532,89.82732 C152.83772,76.93623 154.03745,84.849884 150.45929,72.50611 C150.0498,71.093475 150.19637,69.308 151.31146,68.22791 C151.6868,67.86435 152.09277,67.529785 152.52242,67.23233 C156.62622,64.39106 161.1691,65.44479 166.06714,64.87867 C171.43008,64.258804 179.57431,60.618916 183.31572,59.26471 C184.43535,58.85946 184.87082,58.863716 185.79788,58.201496 C187.21805,57.187057 187.39224,56.56329 188.7992,55.155605 C189.74872,54.20559 191.40953,53.63546 192.67882,53.334267 C193.5218,53.134228 194.64038,53.316856 194.67245,54.353676 C194.70213,55.31305 194.76346,56.216373 194.47777,57.139565 C194.12749,58.271503 193.35603,59.707405 192.95448,60.772545 C192.80133,61.1788 192.56584,61.988045 192.87675,62.424194 C193.08653,62.71844 193.49008,62.822212 193.81454,62.89557 C195.08698,63.183258 197.03687,62.753643 198.23218,62.36319 C199.5473,61.933598 200.6549,60.889053 201.95741,61.616497 C202.13493,61.715645 202.28792,61.890816 202.36996,62.075714 C202.69331,62.804543 202.17284,63.901184 201.73158,64.437805 C200.44241,66.00564 198.62366,68.04132 196.81543,69.095856 C194.7699,70.28879 192.48099,71.03623 190.46118,72.27224 C186.3494,74.78844 184.43445,76.27311 181.93625,80.00711 C179.82056,83.16933 179.30986,88.96798 178.56148,92.17055 C178.33295,93.1486 177.6653,94.310486 177.09158,95.10896 C176.74193,95.59561 176.29369,96.00619 175.94481,96.493385 C175.71437,96.81517 175.55504,97.18233 175.36014,97.5268 L175.36014,97.5268" /><path fill="none" stroke="#924216" stroke-width="0.06mm" stroke-dasharray="0.3mm,0.1mm" d="M185.98457,71.63231 C187.33832,70.60193 189.66576,68.76617 191.22113,67.78359 C191.5049,67.60432 191.81197,67.45418 192.13318,67.35677 C193.41652,66.96763 194.53726,66.851875 195.88342,66.895004 C196.08818,66.901566 198.10025,67.04289 198.63731,67.340836 C199.179,67.64134 199.6451,68.061424 200.14902,68.42172 L200.14902,68.42172" /><path fill="none" stroke="#924216" stroke-width="0.06mm" stroke-dasharray="0.3mm,0.1mm" d="M187.6344,63.665295 C189.35947,63.33367 190.63641,62.897667 192.306,63.013187 C192.8584,63.051407 193.39697,63.22072 193.94972,63.253033 C194.58713,63.290295 195.22647,63.21947 195.86499,63.221245 C196.09494,63.22188 196.32394,63.269497 196.55371,63.260254 C197.4373,63.224724 198.57663,62.763626 199.29333,62.59018 C199.86464,62.45192 200.5593,62.740948 201.00146,63.07893 C201.13492,63.180923 201.24818,63.30688 201.3698,63.422733 C201.443,63.492462 201.5042,63.57591 201.58575,63.635635 C201.7377,63.74692 201.90613,63.83377 202.06633,63.93284 L202.06633,63.93284" /><path fill="none" stroke="#924216" stroke-width="0.06mm" d="M200.23819,67.94608 C201.64075,68.96791 202.9734,70.093315 204.44586,71.011566 C206.47661,72.278 208.70746,73.20528 210.72809,74.48784 C212.43698,75.572525 212.52448,76.33993 213.94998,77.46821 C215.52185,78.7123 217.0398,80.05377 218.77414,81.059006 C220.7608,82.210464 222.97804,82.90975 225.04916,83.90127 C225.29036,84.01672 225.49889,84.19461 225.69765,84.373474 C226.51764,85.1114 227.22685,85.97582 228.10149,86.64807 C229.97763,88.09009 231.9794,89.36095 233.92987,90.700775 C234.06554,90.793976 234.21555,90.86436 234.35838,90.946144 C234.55336,91.08794 234.74829,91.22971 234.94325,91.3715 L234.94325,91.3715" /><path fill="none" stroke="#924216" stroke-width="0.06mm" d="M202.3636,63.427467 C204.01178,63.75516 204.2716,64.26792 205.72461,65.133095 C206.4451,65.56212 207.17064,65.990776 207.93839,66.328064 C211.21849,67.76908 210.07996,66.566055 213.20662,68.86623 C214.25636,69.63848 215.18678,70.56103 216.1818,71.40263 C216.41478,71.5997 216.68192,71.75935 216.89043,71.98214 C217.91034,73.07192 218.78525,74.29791 219.86037,75.33327 C220.87155,76.30708 221.99551,77.16079 223.12857,77.989624 C223.72003,78.42227 224.41393,78.69798 225.02109,79.10832 C226.81815,80.37623 228.61514,81.64414 230.41217,82.91205 C230.91545,83.350174 231.37999,83.83728 231.92201,84.22644 C232.65436,84.75223 233.4886,85.12497 234.22293,85.64797 C234.82175,86.07448 235.29997,86.65857 235.91093,87.0675 C236.54282,87.49043 237.38275,87.601166 237.92998,88.129135 C238.32657,88.511795 238.36642,89.141235 238.58467,89.64729 L238.58467,89.64729" /><path fill="none" stroke="#924216" stroke-width="0.06mm" stroke-dasharray="0.3mm,0.1mm" d="M235.00272,91.02962 C240.44681,93.626045 236.01892,91.462425 240.44711,93.74087 C240.62508,93.83243 240.85541,93.8465 240.99222,93.99255 C241.23117,94.24765 241.34909,94.593666 241.52756,94.894226 L241.52756,94.894226" /><path fill="none" stroke="#924216" stroke-width="0.06mm" stroke-dasharray="0.3mm,0.1mm" d="M238.986,88.99328 C240.77686,91.409 243.78738,92.39641 246.5661,93.2592 L246.5661,93.2592" /><path fill="none" stroke="#000000" stroke-width="0.02mm" d="M39.173073,41.37946 C39.23382,42.131733 38.934982,43.551785 39.760784,44.13066 C40.323975,44.52545 40.813877,44.74636 41.220356,45.264473 C41.48838,45.60611 41.71099,45.98175 41.97817,46.32405 C42.380447,46.83944 44.117508,46.443687 44.285362,46.305794 C44.633186,46.020058 44.118874,45.171295 43.955185,44.945232 C43.60401,44.460236 43.197014,44.017044 42.85026,43.52888 C42.427864,42.934227 42.188797,42.263004 41.552,41.851715 C40.772614,41.34834 39.86522,41.38039 38.968956,41.287605 L38.968956,41.287605" /><path fill="none" stroke="#000000" stroke-width="0.02mm" d="M39.509865,41.736687 C40.08815,42.407566 40.400425,43.766273 41.238853,44.36341 C41.33275,44.430283 41.432545,44.49064 41.538483,44.53608 C42.445736,44.925232 43.36348,45.28946 44.275974,45.666153 L44.275974,45.666153" /><path fill="none" stroke="#000000" stroke-width="0.02mm" d="M41.122383,44.461796 L40.72573,45.249058" /><path fill="none" stroke="#000000" stroke-width="0.06mm" stroke-dasharray="0.3mm,0.1mm" d="M67.02472,62.251545 C66.63569,62.05663 66.24172,61.871254 65.85762,61.666798 C65.461075,61.45571 65.45729,61.36083 65.06923,61.264587 C64.93126,61.230373 64.78885,61.217346 64.64806,61.19767 C64.240166,61.140663 63.828194,61.109917 63.42328,61.034554 C62.94764,60.94602 62.463547,60.586777 62.13955,60.249954 C61.726265,59.82031 61.323242,59.37961 60.946278,58.91776 C60.83109,58.776627 60.76193,58.603493 60.668213,58.447277 C60.52786,58.21333 60.40918,57.964485 60.244083,57.747288 C60.020325,57.452927 59.774857,57.17313 59.50641,56.91886 C59.074146,56.509438 58.610584,56.13385 58.146664,55.760685 C57.36438,55.131435 57.287136,55.3207 56.639606,54.36908 C54.120518,50.66697 55.839382,52.36735 54.17561,50.83059 L54.17561,50.83059" /><path fill="none" stroke="#000000" stroke-width="0.06mm" stroke-dasharray="0.3mm,0.1mm" d="M61.23802,65.41553 C59.654278,64.0966 60.753204,65.09289 58.396957,62.091297 C57.873238,61.42413 57.374004,60.736786 56.822647,60.09227 C56.45927,59.667492 55.584724,59.124817 55.206394,58.86302 L55.206394,58.86302" /><path fill="none" stroke="#000000" stroke-width="0.06mm" d="M53.971493,57.403503 C52.875168,55.590424 52.325367,54.360825 50.93933,52.921772 C50.461662,52.42583 49.91264,52.003944 49.399292,51.545033 L49.399292,51.545033" /><defs><path id="DRAW_12505"  d="M67.10636,62.42505 C65.554955,62.8533 63.816067,63.167404 62.514824,64.187965 C62.245174,64.39945 61.948658,64.59037 61.736084,64.85916 C61.552193,65.09169 61.47888,65.39337 61.35029,65.66048 L61.35029,65.66048" /></defs><use xlink:href="#DRAW_12505" fill="none" stroke="#000000" stroke-width="0.04mm" /><text style="fill:#000000; font-size:0.5mm; letter-spacing:2;"><textPath xlink:href="#DRAW_12505">||||||||||||||||||||||||||||</textPath></text><path fill="none" stroke="#000000" stroke-width="0.02mm" d="M67.04513,61.496277 C66.71152,62.757675 66.96701,61.912766 67.07149,59.61613 C67.08563,59.30524 66.698616,59.18628 66.48223,59.110905 C66.17862,59.005146 65.86932,58.913887 65.5728,58.789635 C64.63635,58.397232 63.965305,57.804916 62.970295,58.334835 C62.600075,58.532005 62.33049,58.852806 61.917023,58.98052 C61.43438,59.129597 60.948986,59.27413 60.45458,59.377724 C59.63179,59.550117 59.37221,59.322674 58.81015,59.97544 C58.19633,60.688316 58.088413,61.91923 58.294025,62.80713 C58.417652,63.340973 58.64753,63.855545 58.526096,64.41161 C58.500935,64.52684 58.458237,64.63777 58.41572,64.74779 C58.09064,65.58891 57.725437,66.41483 57.423496,67.26454 C57.404675,67.31751 57.4134,67.40229 57.463154,67.42845 C57.52214,67.459465 57.597828,67.414795 57.659008,67.388374 C57.88254,67.291855 58.084248,67.146866 58.312374,67.06178 C58.785183,66.885414 59.30699,66.83632 59.756073,66.60615 C60.12612,66.41647 60.403854,66.08457 60.727737,65.82379 L60.727737,65.82379" /><path fill="none" stroke="#000000" stroke-width="0.02mm" d="M58.08443,61.537098 C59.176277,62.128353 60.26812,62.71961 61.35997,63.310867 C61.40609,63.320297 61.451378,63.3358 61.498333,63.33916 C62.023624,63.37674 62.37841,62.6593 62.51554,62.2623 C62.79268,61.45997 62.994495,60.630566 63.31442,59.844315 C63.5569,59.248383 63.903282,58.70021 64.19771,58.12816 L64.19771,58.12816" /><path fill="none" stroke="#000000" stroke-width="0.02mm" d="M61.942223,63.119087 C61.763214,64.9672 61.99234,64.295944 61.61564,65.2216 L61.61564,65.2216" /><path fill="none" stroke="#000000" stroke-width="0.02mm" d="M60.380737,59.148804 C60.38466,57.67634 60.41429,56.203716 60.392513,54.731407 C60.38677,54.34304 60.300808,53.8665 59.93847,53.64028 C59.44703,53.333454 59.367527,53.34633 58.7831,53.16491 C58.15003,52.968384 57.5112,52.78987 56.882664,52.57929 C56.295998,52.382736 56.05867,51.794743 55.54513,51.50389 C54.965645,51.17569 54.527054,51.316357 53.91026,51.351112 L53.91026,51.351112" /><path fill="none" stroke="#000000" stroke-width="0.02mm" d="M57.584343,53.300537 C57.219368,53.863102 56.838963,54.41595 56.489418,54.98823 C56.21738,55.43362 56.311882,56.29774 56.79609,56.580788 C60.69802,58.861702 59.81974,59.981018 60.829792,58.373116 L60.829792,58.373116" /><path fill="none" stroke="#000000" stroke-width="0.02mm" d="M56.676033,56.13791 C54.96856,58.350548 55.75855,57.458786 54.400135,58.893642 L54.400135,58.893642" /><path fill="none" stroke="#000000" stroke-width="0.02mm" d="M62.187164,64.33365 C62.35524,64.92817 62.476242,65.53806 62.691383,66.117226 C62.96989,66.866974 63.340073,67.57941 63.664417,68.31049 C64.31777,70.456314 64.92142,72.61789 65.62447,74.74794 C66.1572,76.36195 69.03774,78.978134 69.32802,79.31843 C69.43155,79.439804 69.495895,79.590744 69.56187,79.73599 C69.74101,80.13042 69.875824,80.54438 70.06242,80.93533 C70.267334,81.36465 70.767815,81.74536 71.17535,81.94289 C72.98907,82.821976 75.14401,82.89416 76.87278,83.93616 C77.27752,84.180115 77.49422,84.60329 77.812614,84.93531 C78.161285,85.2989 78.596016,85.506546 78.60515,86.04936 C78.60983,86.327774 78.53502,86.67019 78.36422,86.89645 C76.67651,89.13213 74.930405,91.32342 73.24824,93.563286 C73.152084,93.69131 73.09268,93.84425 73.03434,93.99335 C72.50702,95.341 73.24402,96.86282 73.73305,98.06763 C74.08062,98.92396 74.54113,99.7333 74.86101,100.60035 C75.172424,101.44448 75.7178,103.150955 75.73706,104.26119 C75.74693,104.83047 75.64351,105.39717 75.64032,105.966515 C75.63759,106.453354 75.85219,107.14974 76.17844,107.52076 C76.97856,108.430695 77.80715,109.31626 78.65961,110.17737 C78.77342,110.29234 79.126656,110.54286 79.35061,110.62602 C79.56352,110.705086 79.8216,110.723045 80.04155,110.66358 C83.859535,109.631485 87.6863,108.62948 91.48395,107.52486 C91.76766,107.44234 92.019165,107.27002 92.266136,107.10783 C93.07758,106.57495 93.35412,106.220024 93.96142,105.3933 C94.09461,105.212 94.23202,105.02345 94.29827,104.80846 C94.71184,103.46657 94.95281,102.07393 95.39516,100.74125 C95.9719,99.00364 98.14341,93.83239 98.96974,92.28133 C102.89761,84.90857 98.97111,94.45297 102.716515,84.92006 C102.79877,84.71071 102.80893,84.223015 102.77246,84.0273 C102.22767,81.10348 101.59099,78.1971 101.06015,75.270706 C101.023224,75.06717 101.04324,74.85516 101.07149,74.650246 C101.28473,73.10355 101.56348,71.56645 101.78398,70.020775 C101.81,69.83839 101.75899,69.44647 101.69415,69.291336 C101.07471,67.809 100.40802,66.34684 99.764946,64.874596 L99.764946,64.874596" /><path fill="none" stroke="#000000" stroke-width="0.06mm" d="M99.81597,63.466103 C99.61171,63.28 99.395424,63.106274 99.20316,62.90779 C99.10762,62.809155 99.00644,62.705948 98.95595,62.578243 C97.03801,57.726753 95.12138,52.873962 93.3034,47.98414 C92.88873,46.868813 93.00624,45.813545 92.90862,44.644028 C92.89708,44.5057 92.85543,44.37063 92.810196,44.2394 C92.30801,42.78248 90.44997,43.122967 89.299736,43.49189 C88.40793,43.77793 88.29878,43.983116 87.5419,44.075153 C86.42807,44.210598 84.75734,43.251106 84.11963,42.908768 C82.18567,41.870564 80.35214,40.653976 78.43579,39.583614 C77.86005,39.262035 77.08611,39.016438 76.40934,39.08474 C75.568115,39.16964 74.46081,39.73661 73.82094,39.859207 C71.66702,40.271904 69.47696,40.469437 67.313416,40.828175 C66.97107,40.88494 66.14711,41.007195 65.72937,41.31015 C65.321625,41.605865 65.0824,41.972412 64.748825,42.369484 L64.748825,42.369484" /><path fill="none" stroke="#000000" stroke-width="0.02mm" d="M62.503548,41.685654 C60.546684,43.854042 61.541092,42.61334 59.160915,46.531326 C59.04736,46.718246 59.054707,47.008793 59.084354,47.211727 C59.25061,48.349636 59.45842,49.481552 59.606148,50.622013 C59.623882,50.7589 59.601345,50.89894 59.57964,51.035248 C59.45974,51.788223 58.625854,53.275776 58.54369,53.45363 L58.54369,53.45363" /><path fill="none" stroke="#000000" stroke-width="0.02mm" d="M112.00935,96.42615 C112.11484,96.22551 112.20685,96.01718 112.32579,95.82422 C112.431244,95.653145 112.64807,95.44587 112.816154,95.34071 C115.831215,93.45437 118.84967,91.573265 121.884415,89.71875 C122.00931,89.642426 122.28296,89.61011 122.42439,89.615265 C123.01878,89.63694 123.47829,90.01892 124.01841,90.19845 C124.311455,90.29586 124.615395,90.37594 124.92356,90.39584 C126.97925,90.52865 129.04065,90.55177 131.09799,90.655815 C131.77179,90.68988 131.94366,91.69041 132.03467,92.1646 C132.38399,93.98455 132.70375,95.81044 133.08348,97.62429 C133.31067,98.70947 134.79147,99.48047 135.4556,100.10971 C135.90938,100.53965 136.29778,101.03409 136.70169,101.51118 C136.82036,101.651306 136.88779,101.928085 136.8733,102.107346 C136.66396,104.69805 136.30075,107.278885 136.2085,109.87639 C136.16171,111.19279 136.36066,112.506546 136.45724,113.82022 C136.48036,114.13469 136.81512,115.64848 136.55579,116.29671 C136.50003,116.4361 136.35696,116.5933 136.22264,116.65502 C134.99258,117.2202 133.6593,117.58731 132.51277,118.306984 C130.26768,119.71621 128.22685,121.42743 126.09973,123.00911 C125.898674,123.1586 125.73181,123.35091 125.52993,123.49927 C125.25581,123.7007 124.87578,123.84588 124.55333,123.9276 C123.80691,124.116776 122.77416,123.74429 122.20451,124.42351 C121.77736,124.93281 121.08422,126.42614 121.16279,127.16734 C121.33259,128.76938 121.58204,130.3621 121.766266,131.96255 C121.78932,132.16283 121.57317,132.32858 121.41066,132.38095 C120.44667,132.69157 118.53768,131.83728 117.9615,131.72948 C117.01794,131.55293 116.05205,131.52826 115.09979,131.40704 C114.83574,131.37341 113.31094,131.42572 112.99667,130.7828 C112.75254,130.28339 112.84697,129.65364 112.88161,129.13522 C112.94784,128.14369 113.133194,127.15554 113.103294,126.16225 C113.01933,123.37341 113.02695,122.42102 112.274796,120.377106 C112.1315,119.987686 111.87241,119.6135 111.4794,119.44521 C110.75898,119.136734 108.91826,118.57732 107.981606,117.85347 C107.80048,117.71349 107.6375,117.550674 107.4792,117.38533 C105.58411,115.40581 103.70094,113.41486 101.82228,111.41974 C101.729065,111.32075 101.69959,111.12165 101.69827,110.99805 C101.69252,110.45662 102.08902,109.754074 102.3206,109.35232 C103.37884,107.516525 104.4189,105.66795 105.56523,103.88584 C106.277466,102.7786 107.12022,101.760956 107.89051,100.6933 C108.71849,99.54568 109.50832,98.3702 110.360016,97.240074 C110.51444,97.03515 110.70153,96.853134 110.90366,96.69506 C111.37256,96.32836 111.87893,96.01227 112.36656,95.670876 L112.36656,95.670876" /><path fill="none" stroke="#000000" stroke-width="0.02mm" d="M102.44652,110.8784 C103.19699,110.88885 103.94746,110.89931 104.69794,110.90976 C105.22742,110.86856 105.75532,110.79132 106.286385,110.78618 C106.90158,110.78023 107.51514,110.901344 108.12987,110.876526 C109.55565,110.81896 110.97047,110.544106 112.3974,110.539474 C125.63388,110.4964 109.18542,111.21736 118.605194,110.67465 C119.26803,110.63647 120.71202,110.83827 121.436226,110.28208 C122.67707,109.3291 121.44799,107.37218 122.059586,106.07791 C122.15328,105.87963 122.35564,105.600235 122.519424,105.469406 C124.224686,104.10746 125.97919,102.80784 127.68081,101.44135 C127.84702,101.30788 128.24988,100.839096 128.32794,100.599815 C129.29599,97.63243 130.18384,94.63944 131.12988,91.66497 C131.25914,91.25858 131.44778,90.87096 131.55365,90.457855 C131.56512,90.413055 131.51292,90.35468 131.46698,90.349525 C131.38275,90.34007 131.2998,90.3851 131.22293,90.42072 C131.03148,90.509415 130.85135,90.62076 130.66557,90.72078 L130.66557,90.72078" /><path fill="none" stroke="#000000" stroke-width="0.02mm" d="M121.30685,110.42932 C120.80642,111.47839 120.65633,112.6327 120.75618,113.783936 C121.03465,116.99466 121.392555,120.19826 121.66171,123.40978 C121.74626,124.4187 121.76533,125.43204 121.81713,126.44318 L121.81713,126.44318" /><path fill="none" stroke="#000000" stroke-width="0.02mm" d="M101.65047,111.409134 C99.548996,111.26844 97.44678,111.138535 95.346054,110.98703 C94.89487,110.95449 94.92124,110.86957 94.51957,110.94974 C94.40591,110.97243 94.292244,111.00367 94.18788,111.054085 C93.40504,111.432205 92.62114,111.8104 91.86169,112.233536 C91.68136,112.334 91.52785,112.478195 91.377655,112.6198 C90.364334,113.57516 89.42082,114.605484 88.37291,115.522766 C87.971146,115.874435 87.49074,116.12471 87.04239,116.414665 C86.63129,116.680534 86.3665,116.76649 86.11611,117.20186 C85.613754,118.075356 85.99351,119.51185 86.06981,120.25525 C86.12654,120.80798 86.49772,121.59838 86.10693,122.15241 C85.93644,122.39413 85.58868,122.69896 85.378586,122.825745 C83.83586,123.7567 81.87016,124.141396 81.492004,126.0802 C81.44701,126.310905 81.39711,126.54715 81.41698,126.78136 C81.67319,129.80295 82.00225,132.81796 82.31906,135.8338 C82.33299,135.96643 82.47418,136.10197 82.588585,136.15204 C84.05383,136.79327 93.65259,135.71075 96.516335,135.35727 C97.117836,135.283 97.60097,133.64297 97.61689,133.61127 C97.8003,133.2461 98.482376,133.14523 98.79384,133.17575 C101.16481,133.40811 103.53223,133.68434 105.89069,134.02069 C106.2841,134.0768 106.67705,134.181 107.03613,134.35123 C109.001045,135.28268 110.93243,136.28519 112.84607,137.31789 C113.35961,137.59502 113.81225,137.97342 114.31065,138.27695 C114.53498,138.41354 114.73955,138.1617 114.782326,137.97128 C114.913025,137.38934 115.070656,136.81038 115.13849,136.21782 C115.23746,135.3534 115.205475,134.47824 115.28142,133.6115 C115.29956,133.40445 115.35675,133.20154 115.420135,133.00362 C115.47866,132.82079 115.81193,132.35165 115.53036,132.5466 L115.53036,132.5466" /><path fill="none" stroke="#000000" stroke-width="0.02mm" d="M87.21946,122.14628 C88.21229,122.3998 89.19283,122.707565 90.19796,122.90685 C92.430565,123.34952 94.68569,123.67023 96.92622,124.07088 C96.974174,124.07945 97.01668,124.10814 97.058205,124.133606 C97.2233,124.23482 97.33186,124.417274 97.35745,124.60816 C97.76975,127.68464 98.84861,130.77026 98.37441,133.85301 L98.37441,133.85301" /><path fill="none" stroke="#000000" stroke-width="0.02mm" d="M97.6702,123.48331 C99.10125,120.24643 99.83731,118.94232 100.76224,115.91704 C100.881546,115.52679 100.89538,115.109146 101.01686,114.71956 C101.28941,113.84563 101.61345,112.98818 101.94209,112.13376 C102.28262,111.46678 102.154,111.77709 102.35467,111.21522 L102.35467,111.21522" /><path fill="none" stroke="#000000" stroke-width="0.02mm" d="M98.47646,133.36311 C101.85345,131.54184 98.76283,133.27692 105.87994,127.672 C106.22279,127.40199 106.72475,127.688705 106.9749,127.926384 C107.463,128.39015 107.48021,129.06038 107.87491,129.59108 C109.52201,131.80571 111.270065,133.94383 113.007324,136.08847 C113.38119,136.54999 113.81494,136.95982 114.206055,137.40683 C114.53612,137.78406 114.47557,137.96959 114.52,137.6498 L114.52,137.6498" /><path fill="none" stroke="#000000" stroke-width="0.02mm" d="M106.78399,127.41277 C108.29266,124.08857 107.08558,126.51074 111.3766,120.71737 L111.3766,120.71737" /><path fill="none" stroke="#000000" stroke-width="0.02mm" d="M88.92383,82.59647 C88.52678,82.911026 88.14356,83.2439 87.73268,83.54013 C87.362274,83.80718 86.960106,84.02748 86.58263,84.28443 C86.35005,84.44275 86.35674,84.788864 86.41957,85.02369 C86.670616,85.96193 86.96209,86.8894 87.19608,87.83203 C87.22917,87.965324 87.22573,88.10625 87.21881,88.24341 C87.1996,88.62378 87.08852,89.001175 86.92986,89.34508 C86.67253,89.902855 85.99211,90.698 86.08042,91.458115 C86.12826,91.86985 86.377174,92.18667 86.70094,92.429344 C87.60202,93.10473 88.50667,93.7756 89.42306,94.43007 C89.65148,94.59321 90.020775,94.345924 90.172676,94.19997 C90.85508,93.54428 91.443954,92.781624 92.2,92.212425 C93.6197,91.14358 95.19294,90.295204 96.67052,89.30791 C96.78489,89.23148 96.87952,89.127716 96.9707,89.02472 C97.53059,88.392166 97.70533,87.43121 97.63006,86.61497 C97.42799,84.42364 97.1399,82.24104 96.87567,80.056335 C96.807755,79.4948 95.84657,79.40814 95.466606,79.521255 C95.006905,79.658104 94.555504,79.82565 94.116356,80.018524 C93.57459,80.25646 93.0387,80.51236 92.52831,80.81174 C89.26355,82.726746 91.98648,81.478134 89.43412,82.56586 L89.43412,82.56586" /><path fill="none" stroke="#000000" stroke-width="0.02mm" d="M87.362335,88.59784 C87.87477,88.58102 88.3908,88.610245 88.89965,88.54738 C89.73279,88.44444 90.5546,88.26358 91.37831,88.10164 C92.01563,87.97633 92.29264,86.99477 92.4784,86.562164 C92.71464,86.01206 92.86101,85.41693 93.172485,84.905655 C99.401375,74.68151 94.650055,83.234245 96.46592,79.94281 L96.46592,79.94281" /><path fill="none" stroke="#000000" stroke-width="0.02mm" d="M91.65898,88.19978 L90.199554,94.5992" /><path fill="none" stroke="#924216" stroke-width="0.02mm" d="M26.83134,317.07153 L26.530647,316.97363" /><text x="249.03336" y="94.58209" font-family="sans-serif" font-size=".2mm" fill="black">...?</text>
<use xlink:href="#airflow" width="3.6" height="3.6" x="-1.8" y="-1.8" transform="translate(245.13925 97.42108) rotate(318)"/>
<text x="251.42627" y="88.339264" font-family="sans-serif" font-size=".2mm" fill="black">Studnia lub kaskady</text>
</g>
<g>
<line fill="none" stroke="#111111" stroke-width="0.05mm" x1="20.00" y1="26.00" x2="36.50" y2="26.11" />
<line fill="none" stroke="#00aeef" stroke-width="0.05mm" stroke-dasharray="0.4,0.2" opacity="0.67" x1="36.50" y1="26.11" x2="56.60" y2="25.37" />
<line fill="none" stroke="#111111" stroke-width="0.05mm" x1="36.50" y1="26.11" x2="45.66" y2="41.49" />
<line fill="none" stroke="#00aeef" stroke-width="0.05mm" stroke-dasharray="0.4,0.2" opacity="0.67" x1="45.66" y1="41.49" x2="65.72" y2="40.83" />
<line fill="none" stroke="#00aeef" stroke-width="0.05mm" stroke-dasharray="0.4,0.2" opacity="0.67" x1="45.66" y1="41.49" x2="65.69" y2="40.78" />
<line fill="none" stroke="#00aeef" stroke-width="0.05mm" stroke-dasharray="0.4,0.2" opacity="0.99" x1="45.66" y1="41.49" x2="41.03" y2="45.73" />
<line fill="none" stroke="#5674b9" stroke-width="0.05mm" stroke-dasharray="0.4,0.2" opacity="0.16" x1="45.66" y1="41.49" x2="43.66" y2="42.48" />
<line fill="none" stroke="#00aeef" stroke-width="0.05mm" stroke-dasharray="0.4,0.2" opacity="0.10" x1="45.66" y1="41.49" x2="35.47" y2="41.76" />
<line fill="none" stroke="#00aeef" stroke-width="0.05mm" stroke-dasharray="0.4,0.2" opacity="0.99" x1="45.66" y1="41.49" x2="50.40" y2="50.18" />
<line fill="none" stroke="#5674b9" stroke-width="0.05mm" stroke-dasharray="0.4,0.2" opacity="0.94" x1="45.66" y1="41.49" x2="54.26" y2="51.06" />
<line fill="none" stroke="#5674b9" stroke-width="0.05mm" stroke-dasharray="0.4,0.2" opacity="0.95" x1="45.66" y1="41.49" x2="54.07" y2="50.55" />
<line fill="none" stroke="#00aeef" stroke-width="0.05mm" stroke-dasharray="0.4,0.2" opacity="0.69" x1="45.66" y1="41.49" x2="50.32" y2="49.77" />
<line fill="none" stroke="#111111" stroke-width="0.05mm" x1="45.66" y1="41.49" x2="62.22" y2="64.43" />
<line fill="none" stroke="#00aeef" stroke-width="0.05mm" stroke-dasharray="0.4,0.2" opacity="0.97" x1="62.22" y1="64.43" x2="67.36" y2="62.30" />
<line fill="none" stroke="#5674b9" stroke-width="0.05mm" stroke-dasharray="0.4,0.2" opacity="0.89" x1="62.22" y1="64.43" x2="105.83" y2="135.52" />
<line fill="none" stroke="#00aeef" stroke-width="0.05mm" stroke-dasharray="0.4,0.2" opacity="0.08" x1="62.22" y1="64.43" x2="62.59" y2="66.46" />
<line fill="none" stroke="#00aeef" stroke-width="0.05mm" stroke-dasharray="0.4,0.2" opacity="0.98" x1="62.22" y1="64.43" x2="55.38" y2="51.73" />
<line fill="none" stroke="#5674b9" stroke-width="0.05mm" stroke-dasharray="0.4,0.2" opacity="0.41" x1="62.22" y1="64.43" x2="60.35" y2="62.60" />
<line fill="none" stroke="#111111" stroke-width="0.05mm" x1="62.22" y1="64.43" x2="61.78" y2="42.03" />
<line fill="none" stroke="#5674b9" stroke-width="0.05mm" stroke-dasharray="0.4,0.2" opacity="0.13" x1="61.78" y1="42.03" x2="61.46" y2="20.00" />
<line fill="none" stroke="#5674b9" stroke-width="0.05mm" stroke-dasharray="0.4,0.2" opacity="0.13" x1="61.78" y1="42.03" x2="61.57" y2="19.83" />
<line fill="none" stroke="#00aeef" stroke-width="0.05mm" stroke-dasharray="0.4,0.2" opacity="0.97" x1="61.78" y1="42.03" x2="52.96" y2="37.73" />
<line fill="none" stroke="#5674b9" stroke-width="0.05mm" stroke-dasharray="0.4,0.2" opacity="0.93" x1="61.78" y1="42.03" x2="93.24" y2="58.01" />
<line fill="none" stroke="#5674b9" stroke-width="0.05mm" stroke-dasharray="0.4,0.2" opacity="0.92" x1="61.78" y1="42.03" x2="138.26" y2="108.81" />
<line fill="none" stroke="#5674b9" stroke-width="0.05mm" stroke-dasharray="0.4,0.2" opacity="0.95" x1="61.78" y1="42.03" x2="111.20" y2="138.55" />
<line fill="none" stroke="#5674b9" stroke-width="0.05mm" stroke-dasharray="0.4,0.2" opacity="0.95" x1="61.78" y1="42.03" x2="77.69" y2="132.99" />
<line fill="none" stroke="#5674b9" stroke-width="0.05mm" stroke-dasharray="0.4,0.2" opacity="0.93" x1="61.78" y1="42.03" x2="59.52" y2="119.80" />
<line fill="none" stroke="#5674b9" stroke-width="0.05mm" stroke-dasharray="0.4,0.2" opacity="0.87" x1="61.78" y1="42.03" x2="58.29" y2="65.37" />
<line fill="none" stroke="#5674b9" stroke-width="0.05mm" stroke-dasharray="0.4,0.2" opacity="0.87" x1="61.78" y1="42.03" x2="57.89" y2="59.47" />
<line fill="none" stroke="#5674b9" stroke-width="0.05mm" stroke-dasharray="0.4,0.2" opacity="0.93" x1="61.78" y1="42.03" x2="53.75" y2="50.82" />
<line fill="none" stroke="#00aeef" stroke-width="0.05mm" stroke-dasharray="0.4,0.2" opacity="0.13" x1="61.78" y1="42.03" x2="64.39" y2="67.99" />
<line fill="none" stroke="#00aeef" stroke-width="0.05mm" stroke-dasharray="0.4,0.2" opacity="0.15" x1="61.78" y1="42.03" x2="71.53" y2="62.99" />
<line fill="none" stroke="#00aeef" stroke-width="0.05mm" stroke-dasharray="0.4,0.2" opacity="0.14" x1="61.78" y1="42.03" x2="67.66" y2="69.42" />
<line fill="none" stroke="#00aeef" stroke-width="0.05mm" stroke-dasharray="0.4,0.2" opacity="0.22" x1="61.78" y1="42.03" x2="69.35" y2="116.90" />
<line fill="none" stroke="#5674b9" stroke-width="0.05mm" stroke-dasharray="0.4,0.2" opacity="0.18" x1="61.78" y1="42.03" x2="90.50" y2="38.04" />
<line fill="none" stroke="#5674b9" stroke-width="0.05mm" stroke-dasharray="0.4,0.2" opacity="0.32" x1="61.78" y1="42.03" x2="93.60" y2="105.98" />
<line fill="none" stroke="#5674b9" stroke-width="0.05mm" stroke-dasharray="0.4,0.2" opacity="0.18" x1="61.78" y1="42.03" x2="76.39" y2="84.15" />
<line fill="none" stroke="#111111" stroke-width="0.05mm" x1="61.78" y1="42.03" x2="78.76" y2="85.40" />
<line fill="none" stroke="#00aeef" stroke-width="0.05mm" stroke-dasharray="0.4,0.2" opacity="0.99" x1="78.76" y1="85.40" x2="101.19" y2="69.37" />
<line fill="none" stroke="#5674b9" stroke-width="0.05mm" stroke-dasharray="0.4,0.2" opacity="0.97" x1="78.76" y1="85.40" x2="92.06" y2="42.44" />
<line fill="none" stroke="#5674b9" stroke-width="0.05mm" stroke-dasharray="0.4,0.2" opacity="0.94" x1="78.76" y1="85.40" x2="76.99" y2="38.28" />
<line fill="none" stroke="#5674b9" stroke-width="0.05mm" stroke-dasharray="0.4,0.2" opacity="0.97" x1="78.76" y1="85.40" x2="62.67" y2="61.66" />
<line fill="none" stroke="#00aeef" stroke-width="0.05mm" stroke-dasharray="0.4,0.2" opacity="0.99" x1="78.76" y1="85.40" x2="79.02" y2="110.50" />
<line fill="none" stroke="#00aeef" stroke-width="0.05mm" stroke-dasharray="0.4,0.2" opacity="0.94" x1="78.76" y1="85.40" x2="66.79" y2="122.41" />
<line fill="none" stroke="#5674b9" stroke-width="0.05mm" stroke-dasharray="0.4,0.2" opacity="0.45" x1="78.76" y1="85.40" x2="78.83" y2="65.70" />
<line fill="none" stroke="#5674b9" stroke-width="0.05mm" stroke-dasharray="0.4,0.2" opacity="0.49" x1="78.76" y1="85.40" x2="79.05" y2="64.04" />
<line fill="none" stroke="#5674b9" stroke-width="0.05mm" stroke-dasharray="0.4,0.2" opacity="0.11" x1="78.76" y1="85.40" x2="79.75" y2="80.09" />
<line fill="none" stroke="#5674b9" stroke-width="0.05mm" stroke-dasharray="0.4,0.2" opacity="0.87" x1="78.76" y1="85.40" x2="106.75" y2="117.23" />
<line fill="none" stroke="#5674b9" stroke-width="0.05mm" stroke-dasharray="0.4,0.2" opacity="0.79" x1="78.76" y1="85.40" x2="112.20" y2="120.58" />
<line fill="none" stroke="#00aeef" stroke-width="0.05mm" stroke-dasharray="0.4,0.2" opacity="0.79" x1="78.76" y1="85.40" x2="88.98" y2="43.85" />
<line fill="none" stroke="#111111" stroke-width="0.05mm" x1="78.76" y1="85.40" x2="121.66" y2="102.61" />
<line fill="none" stroke="#5674b9" stroke-width="0.05mm" stroke-dasharray="0.4,0.2" opacity="0.98" x1="121.66" y1="102.61" x2="121.86" y2="108.41" />
<line fill="none" stroke="#00aeef" stroke-width="0.05mm" stroke-dasharray="0.4,0.2" opacity="0.26" x1="121.66" y1="102.61" x2="123.72" y2="104.15" />
<line fill="none" stroke="#5674b9" stroke-width="0.05mm" stroke-dasharray="0.4,0.2" opacity="0.24" x1="121.66" y1="102.61" x2="121.70" y2="105.23" />
<line fill="none" stroke="#5674b9" stroke-width="0.05mm" stroke-dasharray="0.4,0.2" opacity="0.99" x1="121.66" y1="102.61" x2="141.35" y2="104.68" />
<line fill="none" stroke="#5674b9" stroke-width="0.05mm" stroke-dasharray="0.4,0.2" opacity="0.97" x1="121.66" y1="102.61" x2="146.31" y2="113.11" />
<line fill="none" stroke="#5674b9" stroke-width="0.05mm" stroke-dasharray="0.4,0.2" opacity="0.97" x1="121.66" y1="102.61" x2="134.01" y2="107.97" />
<line fill="none" stroke="#111111" stroke-width="0.05mm" x1="121.66" y1="102.61" x2="146.84" y2="113.56" />
<line fill="none" stroke="#5674b9" stroke-width="0.05mm" stroke-dasharray="0.4,0.2" opacity="0.91" x1="146.84" y1="113.56" x2="147.58" y2="103.42" />
<line fill="none" stroke="#5674b9" stroke-width="0.05mm" stroke-dasharray="0.4,0.2" opacity="0.90" x1="146.84" y1="113.56" x2="161.36" y2="99.79" />
<line fill="none" stroke="#5674b9" stroke-width="0.05mm" stroke-dasharray="0.4,0.2" opacity="0.82" x1="146.84" y1="113.56" x2="169.64" y2="109.88" />
<line fill="none" stroke="#00aeef" stroke-width="0.05mm" stroke-dasharray="0.4,0.2" opacity="0.99" x1="146.84" y1="113.56" x2="167.87" y2="117.42" />
<line fill="none" stroke="#00aeef" stroke-width="0.05mm" stroke-dasharray="0.4,0.2" opacity="0.09" x1="146.84" y1="113.56" x2="146.74" y2="111.61" />
<line fill="none" stroke="#5674b9" stroke-width="0.05mm" stroke-dasharray="0.4,0.2" opacity="0.17" x1="146.84" y1="113.56" x2="152.89" y2="111.23" />
<line fill="none" stroke="#5674b9" stroke-width="0.05mm" stroke-dasharray="0.4,0.2" opacity="0.30" x1="146.84" y1="113.56" x2="153.99" y2="103.32" />
<line fill="none" stroke="#5674b9" stroke-width="0.05mm" stroke-dasharray="0.4,0.2" opacity="0.22" x1="146.84" y1="113.56" x2="154.51" y2="111.00" />
<line fill="none" stroke="#111111" stroke-width="0.05mm" x1="146.84" y1="113.56" x2="155.18" y2="110.76" />
<line fill="none" stroke="#5674b9" stroke-width="0.05mm" stroke-dasharray="0.4,0.2" opacity="0.95" x1="155.18" y1="110.76" x2="122.37" y2="110.95" />
<line fill="none" stroke="#00aeef" stroke-width="0.05mm" stroke-dasharray="0.4,0.2" opacity="0.89" x1="155.18" y1="110.76" x2="147.86" y2="106.18" />
<line fill="none" stroke="#00aeef" stroke-width="0.05mm" stroke-dasharray="0.4,0.2" opacity="0.92" x1="155.18" y1="110.76" x2="149.60" y2="110.47" />
<line fill="none" stroke="#5674b9" stroke-width="0.05mm" stroke-dasharray="0.4,0.2" opacity="0.90" x1="155.18" y1="110.76" x2="172.74" y2="103.64" />
<line fill="none" stroke="#111111" stroke-width="0.05mm" x1="155.18" y1="110.76" x2="163.74" y2="103.52" />
<line fill="none" stroke="#5674b9" stroke-width="0.05mm" stroke-dasharray="0.4,0.2" opacity="1.00" x1="163.74" y1="103.52" x2="110.50" y2="120.57" />
<line fill="none" stroke="#5674b9" stroke-width="0.05mm" stroke-dasharray="0.4,0.2" opacity="1.00" x1="163.74" y1="103.52" x2="109.90" y2="121.17" />
<line fill="none" stroke="#00aeef" stroke-width="0.05mm" stroke-dasharray="0.4,0.2" opacity="0.99" x1="163.74" y1="103.52" x2="119.78" y2="111.25" />
<line fill="none" stroke="#00aeef" stroke-width="0.05mm" stroke-dasharray="0.4,0.2" opacity="0.98" x1="163.74" y1="103.52" x2="152.70" y2="104.07" />
<line fill="none" stroke="#00aeef" stroke-width="0.05mm" stroke-dasharray="0.4,0.2" opacity="0.93" x1="163.74" y1="103.52" x2="158.09" y2="99.07" />
<line fill="none" stroke="#00aeef" stroke-width="0.05mm" stroke-dasharray="0.4,0.2" opacity="0.88" x1="163.74" y1="103.52" x2="161.35" y2="96.31" />
<line fill="none" stroke="#5674b9" stroke-width="0.05mm" stroke-dasharray="0.4,0.2" opacity="0.91" x1="163.74" y1="103.52" x2="152.69" y2="69.78" />
<line fill="none" stroke="#5674b9" stroke-width="0.05mm" stroke-dasharray="0.4,0.2" opacity="0.87" x1="163.74" y1="103.52" x2="153.29" y2="69.14" />
<line fill="none" stroke="#5674b9" stroke-width="0.05mm" stroke-dasharray="0.4,0.2" opacity="0.85" x1="163.74" y1="103.52" x2="166.44" y2="64.11" />
<line fill="none" stroke="#5674b9" stroke-width="0.05mm" stroke-dasharray="0.4,0.2" opacity="0.80" x1="163.74" y1="103.52" x2="177.61" y2="71.38" />
<line fill="none" stroke="#5674b9" stroke-width="0.05mm" stroke-dasharray="0.4,0.2" opacity="0.84" x1="163.74" y1="103.52" x2="193.23" y2="54.27" />
<line fill="none" stroke="#5674b9" stroke-width="0.05mm" stroke-dasharray="0.4,0.2" opacity="0.80" x1="163.74" y1="103.52" x2="179.55" y2="81.73" />
<line fill="none" stroke="#5674b9" stroke-width="0.05mm" stroke-dasharray="0.4,0.2" opacity="0.73" x1="163.74" y1="103.52" x2="174.44" y2="95.75" />
<line fill="none" stroke="#5674b9" stroke-width="0.05mm" stroke-dasharray="0.4,0.2" opacity="0.90" x1="163.74" y1="103.52" x2="175.49" y2="101.34" />
<line fill="none" stroke="#00aeef" stroke-width="0.05mm" stroke-dasharray="0.4,0.2" opacity="0.88" x1="163.74" y1="103.52" x2="158.57" y2="98.97" />
<line fill="none" stroke="#111111" stroke-width="0.05mm" x1="163.74" y1="103.52" x2="154.88" y2="91.91" />
<line fill="none" stroke="#5674b9" stroke-width="0.05mm" stroke-dasharray="0.4,0.2" opacity="0.90" x1="154.88" y1="91.91" x2="170.86" y2="99.74" />
<line fill="none" stroke="#5674b9" stroke-width="0.05mm" stroke-dasharray="0.4,0.2" opacity="0.84" x1="154.88" y1="91.91" x2="178.32" y2="89.76" />
<line fill="none" stroke="#5674b9" stroke-width="0.05mm" stroke-dasharray="0.4,0.2" opacity="0.70" x1="154.88" y1="91.91" x2="187.30" y2="70.81" />
<line fill="none" stroke="#5674b9" stroke-width="0.05mm" stroke-dasharray="0.4,0.2" opacity="0.75" x1="154.88" y1="91.91" x2="166.51" y2="74.18" />
<line fill="none" stroke="#5674b9" stroke-width="0.05mm" stroke-dasharray="0.4,0.2" opacity="0.80" x1="154.88" y1="91.91" x2="159.86" y2="75.53" />
<line fill="none" stroke="#5674b9" stroke-width="0.05mm" stroke-dasharray="0.4,0.2" opacity="0.73" x1="154.88" y1="91.91" x2="185.55" y2="64.52" />
<line fill="none" stroke="#5674b9" stroke-width="0.05mm" stroke-dasharray="0.4,0.2" opacity="0.73" x1="154.88" y1="91.91" x2="189.38" y2="69.38" />
<line fill="none" stroke="#5674b9" stroke-width="0.05mm" stroke-dasharray="0.4,0.2" opacity="0.73" x1="154.88" y1="91.91" x2="135.35" y2="102.11" />
<line fill="none" stroke="#5674b9" stroke-width="0.05mm" stroke-dasharray="0.4,0.2" opacity="0.70" x1="154.88" y1="91.91" x2="137.74" y2="102.60" />
<line fill="none" stroke="#5674b9" stroke-width="0.05mm" stroke-dasharray="0.4,0.2" opacity="0.28" x1="154.88" y1="91.91" x2="164.84" y2="91.99" />
<line fill="none" stroke="#5674b9" stroke-width="0.05mm" stroke-dasharray="0.4,0.2" opacity="0.47" x1="154.88" y1="91.91" x2="175.79" y2="75.44" />
<line fill="none" stroke="#00aeef" stroke-width="0.05mm" stroke-dasharray="0.4,0.2" opacity="0.47" x1="154.88" y1="91.91" x2="200.32" y2="61.77" />
<line fill="none" stroke="#00aeef" stroke-width="0.05mm" stroke-dasharray="0.4,0.2" opacity="0.52" x1="154.88" y1="91.91" x2="202.82" y2="61.15" />
<line fill="none" stroke="#111111" stroke-width="0.05mm" x1="154.88" y1="91.91" x2="185.19" y2="65.09" />
<line fill="none" stroke="#5674b9" stroke-width="0.05mm" stroke-dasharray="0.4,0.2" opacity="0.87" x1="185.19" y1="65.09" x2="188.69" y2="68.92" />
<line fill="none" stroke="#5674b9" stroke-width="0.05mm" stroke-dasharray="0.4,0.2" opacity="0.09" x1="185.19" y1="65.09" x2="185.04" y2="68.16" />
<line fill="none" stroke="#5674b9" stroke-width="0.05mm" stroke-dasharray="0.4,0.2" opacity="0.97" x1="185.19" y1="65.09" x2="183.59" y2="70.66" />
<line fill="none" stroke="#111111" stroke-width="0.05mm" x1="185.19" y1="65.09" x2="198.69" y2="64.27" />
<line fill="none" stroke="#00aeef" stroke-width="0.05mm" stroke-dasharray="0.4,0.2" opacity="0.11" x1="198.69" y1="64.27" x2="200.51" y2="66.97" />
<line fill="none" stroke="#5674b9" stroke-width="0.05mm" stroke-dasharray="0.4,0.2" opacity="0.13" x1="198.69" y1="64.27" x2="197.41" y2="66.28" />
<line fill="none" stroke="#5674b9" stroke-width="0.05mm" stroke-dasharray="0.4,0.2" opacity="0.83" x1="198.69" y1="64.27" x2="237.53" y2="89.62" />
<line fill="none" stroke="#5674b9" stroke-width="0.05mm" stroke-dasharray="0.4,0.2" opacity="0.85" x1="198.69" y1="64.27" x2="224.74" y2="82.55" />
<line fill="none" stroke="#5674b9" stroke-width="0.05mm" stroke-dasharray="0.4,0.2" opacity="0.86" x1="198.69" y1="64.27" x2="224.63" y2="79.15" />
</g>
<g>
<circle cx="20.00" cy="26.00" r="0.1" fill="#111111" />
<circle cx="36.50" cy="26.11" r="0.1" fill="#111111" />
<circle cx="45.66" cy="41.49" r="0.1" fill="#111111" />
<circle cx="62.22" cy="64.43" r="0.1" fill="#111111" />
<circle cx="61.78" cy="42.03" r="0.1" fill="#111111" />
<circle cx="78.76" cy="85.40" r="0.1" fill="#111111" />
<circle cx="121.66" cy="102.61" r="0.1" fill="#111111" />
<circle cx="146.84" cy="113.56" r="0.1" fill="#111111" />
<circle cx="155.18" cy="110.76" r="0.1" fill="#111111" />
<circle cx="163.74" cy="103.52" r="0.1" fill="#111111" />
<circle cx="154.88" cy="91.91" r="0.1" fill="#111111" />
<circle cx="185.19" cy="65.09" r="0.1" fill="#111111" />
<circle cx="198.69" cy="64.27" r="0.1" fill="#111111" />
</g>
<g>
<text x="20.20" y="26.00" font-size=".2mm" fill="#000000">0</text>
<text x="36.70" y="26.11" font-size=".2mm" fill="#000000">1</text>
<text x="45.86" y="41.49" font-size=".2mm" fill="#000000">2</text>
<text x="62.42" y="64.43" font-size=".2mm" fill="#000000">3</text>
<text x="61.98" y="42.03" font-size=".2mm" fill="#000000">4</text>
<text x="78.96" y="85.40" font-size=".2mm" fill="#000000">5</text>
<text x="121.86" y="102.61" font-size=".2mm" fill="#000000">6</text>
<text x="147.04" y="113.56" font-size=".2mm" fill="#000000">7</text>
<text x="155.38" y="110.76" font-size=".2mm" fill="#000000">8</text>
<text x="163.94" y="103.52" font-size=".2mm" fill="#000000">9</text>
<text x="155.08" y="91.91" font-size=".2mm" fill="#000000">10</text>
<text x="185.39" y="65.09" font-size=".2mm" fill="#000000">11</text>
<text x="198.89" y="64.27" font-size=".2mm" fill="#000000">12</text>
</g>
<g>
</g>
</g>
</svg>