<?xml version="1.0" encoding="utf-8"?>
<!DOCTYPE svg PUBLIC "-//W3C//DTD SVG 1.1//EN" "http://www.w3.org/Graphics/SVG/1.1/DTD/svg11.dtd">
<svg version="1.1" id="Layer_1" xmlns="http://www.w3.org/2000/svg" xmlns:xlink="http://www.w3.org/1999/xlink" x="0px" y="0px" width="186mm" height="71mm" viewBox="0 0 186 71" enable-background="new 0 0 186 71" xml:space="preserve">
<symbol id="airflow" viewBox="-12 -12 24 24">
<path d="M-4.38,10.73l4.2-3.84V3.55L-4.07,7.13l-.31-.29L-.18,3V-6.89a3.37,3.37,0,0,0-1.68.53l1.68-4.15L0-11l.21.51h0v0l1.65,4.1A3.26,3.26,0,0,0,.24-6.89v14l-.08,0L-4.07,11Z"/>
<rect fill="none" x="-12" y="-12" width="24" height="24"/>
</symbol>
<symbol id="anastomosis" viewBox="-12 -12 24 24">
<path d="M2.23-4.78l.37.24L5.22-2.78l-.47.57L2.49-3.7l-4.61,8-.24.44-.37-.34L-5.22,2.3l.55-.52,2.1,1.82L2-4.39Z"/>
<rect fill="none" x="-12" y="-12" width="24" height="24"/>
</symbol>
<symbol id="bivouac" viewBox="-12 -12 24 24">
<path d="M.25-7.66l.24.58L.54-7l3.88.48-3.31.91L6,6H8.35v.48l-16.7.07V6.05h2.64L0-7.08Zm0,1.32L-5.13,6H-4l2.07-5L.2-4l2.09,5L4.37,6H5.44Z"/>
<rect fill="none" x="-12" y="-12" width="24" height="24"/>
</symbol>
<symbol id="bones" viewBox="-12 -12 24 24">
<path d="M2.44,4.27l-.16,0H2.13a.22.22,0,0,1-.11,0l-.1-.06a.39.39,0,0,1-.09-.11l-.08-.13a1.51,1.51,0,0,1-.06-.15l-.07-.17s0-.11-.08-.19-.06-.16-.08-.21a4.75,4.75,0,0,0-.38-.71c-.18-.29-.43-.64-.74-1A11.15,11.15,0,0,0-.7.32,6.73,6.73,0,0,0-2-.64a4.12,4.12,0,0,0-1.44-.52A1.64,1.64,0,0,1-5-2.19.72.72,0,0,1-5-2.44a1,1,0,0,1,0-.29A.52.52,0,0,1-4.87-3a.54.54,0,0,1,.35-.15L-4-3.22l.46,0a.54.54,0,0,0,.27-.06A.52.52,0,0,0-3-3.56a.74.74,0,0,0,.13-.31.54.54,0,0,1,.15-.26.54.54,0,0,1,.3-.15.83.83,0,0,1,.47,0,1.11,1.11,0,0,1,.35.4A7.46,7.46,0,0,1-1-2.76q.18.42.33.72a3.22,3.22,0,0,0,.39.57L.1-1a4.77,4.77,0,0,0,.58.43c.28.18.51.33.69.43l1,.56a1.84,1.84,0,0,0,.39.23A5.29,5.29,0,0,1,3.22.9l.43.26a3.7,3.7,0,0,1,.46.3l.36.29a2.28,2.28,0,0,1,.31.32A1,1,0,0,1,5,2.4c.2.48,0,.78-.47.91h0a8.48,8.48,0,0,0-1.12.09,1,1,0,0,0-.42.44A1,1,0,0,1,2.44,4.27Z"/>
<rect fill="none" x="-12" y="-12" width="24" height="24"/>
</symbol>
<symbol id="calcite" viewBox="-12 -12 24 24">
<path d="M2.36-2.22l.05.46.34,3.91L2,2.22,1.65-1.26-2.52-.06l-.23-.7L1.89-2.08Z"/>
<rect fill="none" x="-12" y="-12" width="24" height="24"/>
</symbol>
<symbol id="cauliflower" viewBox="-12 -12 24 24">
<path d="M5.58,3.22v-3A2.12,2.12,0,0,0,6.92-.43a1.78,1.78,0,0,0,.55-1.32,1.92,1.92,0,0,0-.65-1.42,2.19,2.19,0,0,0-1.53-.59,2.21,2.21,0,0,0-1.54.59,1.78,1.78,0,0,0-.64,1.42A1.86,1.86,0,0,0,3.65-.43,2.12,2.12,0,0,0,5,.23v3H.26v-3A2.17,2.17,0,0,0,1.61-.43a1.81,1.81,0,0,0,.54-1.32,1.91,1.91,0,0,0-.64-1.42A2.21,2.21,0,0,0,0-3.76a2.21,2.21,0,0,0-1.54.59,1.82,1.82,0,0,0-.64,1.42A1.83,1.83,0,0,0-1.66-.43,2.12,2.12,0,0,0-.32.23v3H-5v-3A2.12,2.12,0,0,0-3.71-.43a1.78,1.78,0,0,0,.55-1.32,1.92,1.92,0,0,0-.65-1.42,2.19,2.19,0,0,0-1.53-.59,2.21,2.21,0,0,0-1.54.59,1.83,1.83,0,0,0-.65,1.42A1.87,1.87,0,0,0-7-.43,2.12,2.12,0,0,0-5.64.23v3H-8v.54H8V3.22Z"/>
<rect fill="none" x="-12" y="-12" width="24" height="24"/>
</symbol>
<symbol id="clay" viewBox="-12 -12 24 24">
<path d="M1.85-1.33a3,3,0,0,1,1.67.48,3.23,3.23,0,0,1,1,1l.29.51-1,.43a3.81,3.81,0,0,0-.23-.4A3.74,3.74,0,0,0,2.93,0,1.77,1.77,0,0,0,1.85-.32a2.57,2.57,0,0,0-1.1.15A.86.86,0,0,0,.51.14,2.23,2.23,0,0,1,0,.88a2.55,2.55,0,0,1-1.45.43,3.16,3.16,0,0,1-2.75-1,4.28,4.28,0,0,1-.37-.57,3.91,3.91,0,0,1-.21-.47l0-.16,1-.22a1.87,1.87,0,0,0,.45.79A2.12,2.12,0,0,0-1.51.33,1.82,1.82,0,0,0-.69.14l.21-.36A1.53,1.53,0,0,1,.17-1,3.76,3.76,0,0,1,1.85-1.33Z"/>
<rect fill="none" x="-12" y="-12" width="24" height="24"/>
</symbol>
<symbol id="crystals" viewBox="-12 -12 24 24">
<path d="M-2.94-5.38,0-.72,2.94-5.38,3.62-5,.68-.36H6.56V.36H.68L3.62,5l-.68.36L0,.72-2.94,5.38-3.62,5-.68.36H-6.56V-.36H-.68L-3.62-5Z"/>
<rect fill="none" x="-12" y="-12" width="24" height="24"/>
</symbol>
<symbol id="curtain" viewBox="-12 -12 24 24">
<path d="M3.57-6.69l.52.53L.39-3V-.33L.1-.26a3.79,3.79,0,0,0-1,.41c-.58.3-.87.65-.87,1v.07A1.61,1.61,0,0,0-.84,2.48a3.69,3.69,0,0,0,.45.24L0,2.86l.13.05L.39,3V6.12H-.39V3.51a7.65,7.65,0,0,1-.9-.46A2.19,2.19,0,0,1-2.54,1.28V1.23A2,2,0,0,1-1.31-.48,5.32,5.32,0,0,1-.39-.86V-3l-3.7-3.14.52-.53L0-3.67Z"/>
<rect fill="none" x="-12" y="-12" width="24" height="24"/>
</symbol>
<symbol id="disk" viewBox="-12 -12 24 24">
<path d="M-.09-4.19a2.43,2.43,0,0,1,1.7.64A2,2,0,0,1,2.35-2,2.09,2.09,0,0,1,1.81-.55,2.44,2.44,0,0,1,.35.23l2.18,3.6-.68.33L0,1.14-1.48,4.19l-.71-.29L-.41.25A2.53,2.53,0,0,1-1.9-.47a2,2,0,0,1-.63-1.41,2,2,0,0,1,.67-1.61,2.46,2.46,0,0,1,1.72-.7ZM1.05-3.06.56-3.49l-.69,0A1.72,1.72,0,0,0-1.29-3a1.51,1.51,0,0,0-.45,1.08,1.36,1.36,0,0,0,.51,1A1.68,1.68,0,0,0-.07-.44v0l0,0A1.7,1.7,0,0,0,1.11-.92,1.36,1.36,0,0,0,1.56-2,1.47,1.47,0,0,0,1.05-3.06Z"/>
<rect fill="none" x="-12" y="-12" width="24" height="24"/>
</symbol>
<symbol id="entrance" viewBox="-12 -12 24 24">
<path d="M4.46,9H-4.46L0-9Z"/>
<rect fill="none" x="-12" y="-12" width="24" height="24"/>
</symbol>
<symbol id="flowstone" viewBox="-12 -12 24 24">
<rect x="-6" y="-0.21" width="12" height="0.42"/>
<rect fill="none" x="-12" y="-12" width="24" height="24"/>
</symbol>
<symbol id="flutes" viewBox="-12 -12 24 24">
<path d="M-7-1H7v.72H3.87A4.7,4.7,0,0,1,2.16,1.5,4.2,4.2,0,0,1,0,2.13,3.94,3.94,0,0,1-2.19,1.5,4.18,4.18,0,0,1-3.76-.27H-7Zm4.17.72A3.15,3.15,0,0,0-1.65,1,3.21,3.21,0,0,0,0,1.41,3.49,3.49,0,0,0,1.6,1,3.68,3.68,0,0,0,3-.27Z"/>
<rect fill="none" x="-12" y="-12" width="24" height="24"/>
</symbol>
<symbol id="gradient" viewBox="-12 -12 24 24">
<path d="M2.58-3.83,0-10-2.58-3.83A4.74,4.74,0,0,1-.17-4.5V10H.25V-4.5A6.65,6.65,0,0,1,2.58-3.83Z"/>
<rect fill="none" x="-12" y="-12" width="24" height="24"/>
</symbol>
<symbol id="guano" viewBox="-12 -12 24 24">
<path d="M-3.24-3a2.15,2.15,0,0,1,1.57.55A3.93,3.93,0,0,1-.59.24a4.32,4.32,0,0,1,2.75-2.3,2.68,2.68,0,0,1,2.23.36A2.36,2.36,0,0,1,5.5.19l-.79,0a1.72,1.72,0,0,0-.79-1.37,1.94,1.94,0,0,0-1.55-.24A3.53,3.53,0,0,0,.48,0,6.63,6.63,0,0,0-.69,3l-.79-.09a10.72,10.72,0,0,0,0-3.16A3.21,3.21,0,0,0-2.22-2,1.44,1.44,0,0,0-3.37-2.3,3.45,3.45,0,0,0-5-1.54l-.5-.55a4.29,4.29,0,0,1,2-.91A.9.9,0,0,1-3.24-3Z"/>
<rect fill="none" x="-12" y="-12" width="24" height="24"/>
</symbol>
<symbol id="helictites" viewBox="-12 -12 24 24">
<path d="M-4.59-7.92h.79v7.7l3.41,0V-7.92H.39V-.17L4.2-.12h.39v8H3.8V.6L.39.55V7.92H-.39V.55L-4.2.5l-.39,0v-8.4Z"/>
<rect fill="none" x="-12" y="-12" width="24" height="24"/>
</symbol>
<symbol id="human" viewBox="-12 -12 24 24">
<path d="M-3.59-3.29A5.13,5.13,0,0,1,0-4.66,5.13,5.13,0,0,1,3.59-3.29,4.3,4.3,0,0,1,5.09,0a4.3,4.3,0,0,1-1.5,3.29A5.13,5.13,0,0,1,0,4.66,5.13,5.13,0,0,1-3.59,3.29,4.3,4.3,0,0,1-5.09,0,4.3,4.3,0,0,1-3.59-3.29Zm.28.77A3.68,3.68,0,0,0-4.3,0a3.62,3.62,0,0,0,1,2.57L-.5.05ZM0-3.94A4.42,4.42,0,0,0-2.75-3L.16-.36H4.28A3.62,3.62,0,0,0,2.91-2.9,4.38,4.38,0,0,0,0-3.94ZM.16.46-2.7,3.07A4.42,4.42,0,0,0,0,3.94a4.37,4.37,0,0,0,2.87-1A3.78,3.78,0,0,0,4.28.46Z"/>
<rect fill="none" x="-12" y="-12" width="24" height="24"/>
</symbol>
<symbol id="karren" viewBox="-12 -12 24 24">
<path d="M1-5.84h0a1.37,1.37,0,0,1,1.06.68A3.33,3.33,0,0,1,2.5-3.79,25.79,25.79,0,0,1,2.36,0a18.61,18.61,0,0,0-.08,3.72,2.68,2.68,0,0,0,.41,1.2,1.13,1.13,0,0,0,.79.5A.92.92,0,0,0,4,4.94a4.43,4.43,0,0,0,.47-1.22c.16-.64.36-1.86.59-3.66a26.71,26.71,0,0,1,.64-3.69,4.62,4.62,0,0,1,.57-1.29,1.34,1.34,0,0,1,1-.59h0A1.28,1.28,0,0,1,8.37-5a2.17,2.17,0,0,1,.39,1.15A19.91,19.91,0,0,1,8.54-.53a21.51,21.51,0,0,0-.2,3.64A2.64,2.64,0,0,0,9.45,5.36,1.91,1.91,0,0,0,10.88,5a3.84,3.84,0,0,0,.7-1l.42.2-.1.18-.12.21-.11.18L11.52,5a.94.94,0,0,1-.14.16c-.06.07-.13.12-.19.18a2.5,2.5,0,0,1-1.85.41H9.29l0,0A3.06,3.06,0,0,1,7.87,3.13a22.11,22.11,0,0,1,.2-3.7,18.17,18.17,0,0,0,.22-3.28A1.85,1.85,0,0,0,8-4.79a.77.77,0,0,0-.67-.3.93.93,0,0,0-.64.42,4.51,4.51,0,0,0-.51,1.15A26.26,26.26,0,0,0,5.54.1c-.24,1.83-.45,3.07-.61,3.72a5.38,5.38,0,0,1-.51,1.34,1.33,1.33,0,0,1-.89.68H3.47A1.58,1.58,0,0,1,2.3,5.16a3.29,3.29,0,0,1-.49-1.4A20.27,20.27,0,0,1,1.89,0,23.45,23.45,0,0,0,2-3.75a2.94,2.94,0,0,0-.32-1.19A.93.93,0,0,0,1-5.42,1.1,1.1,0,0,0,.19-5,3.69,3.69,0,0,0-.43-3.76,20.78,20.78,0,0,0-1.07.07c-.2,2-.37,3.32-.49,3.86A4.48,4.48,0,0,1-2,5.26,1.06,1.06,0,0,1-3,5.81h0a1.9,1.9,0,0,1-1.29-.67,2.7,2.7,0,0,1-.58-1.31,14.92,14.92,0,0,1,0-3.6q0-.12.06-.54c0-.28,0-.47,0-.57s0-.28,0-.52,0-.42,0-.55,0-.28,0-.47,0-.36,0-.51,0-.29,0-.43A3.09,3.09,0,0,0-5-4.62a1.19,1.19,0,0,0-.67-.6,1.5,1.5,0,0,0-1.2.9A7,7,0,0,0-7.41-2.1c0,.39-.1,1-.14,1.76s-.11,1.47-.18,2.08A9.61,9.61,0,0,1-8,3.32h0l0,0A2.81,2.81,0,0,1-9.2,4.62a1.82,1.82,0,0,1-1.35.15A1.94,1.94,0,0,1-11.61,4,2.39,2.39,0,0,1-12,2.56l.47,0a1.92,1.92,0,0,0,.31,1.16,1.47,1.47,0,0,0,.81.62,1.3,1.3,0,0,0,1-.11A2.32,2.32,0,0,0-8.5,3.18a7.53,7.53,0,0,0,.29-1.5Q-8.1.8-8-.36c0-.78.1-1.37.16-1.78A7.23,7.23,0,0,1-7.28-4.5,1.93,1.93,0,0,1-5.65-5.66h.05l0,0a1.59,1.59,0,0,1,1,.84,3.47,3.47,0,0,1,.34,1.41,4.91,4.91,0,0,1,0,.57v.54c0,.15,0,.37,0,.66s0,.47,0,.58,0,.33-.06.68,0,.56-.06.63a14.78,14.78,0,0,0,0,3.49,2.58,2.58,0,0,0,.5,1.13,1.57,1.57,0,0,0,1,.5A.61.61,0,0,0-2.44,5,3.89,3.89,0,0,0-2,3.85C-1.9,3.31-1.74,2-1.53,0A20.65,20.65,0,0,1-.86-3.89,3.89,3.89,0,0,1-.18-5.26,1.58,1.58,0,0,1,1-5.84Z"/>
<rect fill="none" x="-12" y="-12" width="24" height="24"/>
</symbol>
<symbol id="moonmilk" viewBox="-12 -12 24 24">
<path d="M-4.78-3.06a3.39,3.39,0,0,1,1.5.34,2.48,2.48,0,0,1,1.1,1,3.74,3.74,0,0,1,1.62-.8,3.52,3.52,0,0,1,1.71,0,2.9,2.9,0,0,1,1.39.77A2.49,2.49,0,0,1,3.25-.37,4,4,0,0,1,5-.76a3.58,3.58,0,0,1,1.6.36A2.84,2.84,0,0,1,7.88.92a2.32,2.32,0,0,1,0,1.88.34.34,0,0,1-.37.26A.36.36,0,0,1,7.25,3a.32.32,0,0,1-.12-.25.21.21,0,0,1,0-.12,2,2,0,0,0,0-1.43,2,2,0,0,0-1-.9A2.81,2.81,0,0,0,4.68,0,2.78,2.78,0,0,0,3.12.56L2.46.25A1.7,1.7,0,0,0,2.15-1.1,2.15,2.15,0,0,0,1-1.81a2.85,2.85,0,0,0-1.58.06A3,3,0,0,0-2-.83l-.71-.12A1.74,1.74,0,0,0-3.55-2a2.36,2.36,0,0,0-1.39-.27,3.08,3.08,0,0,0-1.45.53A2.33,2.33,0,0,0-7.32-.56a.35.35,0,0,1-.37.24A.39.39,0,0,1-8-.42a.33.33,0,0,1-.1-.26v-.1A3,3,0,0,1-6.89-2.35,4,4,0,0,1-5-3Z"/>
<rect fill="none" x="-12" y="-12" width="24" height="24"/>
</symbol>
<symbol id="narrow" viewBox="-12 -12 24 24">
<path d="M-1.5,5V-5h0.64V5H-1.5z"/>
<path d="M0.86,5V-5H1.5V5H0.86z"/>
<rect fill="none" x="-12" y="-12" width="24" height="24"/>
</symbol>
<symbol id="paleoflow" viewBox="-12 -12 24 24">
<path d="M.38-12V.17A1.9,1.9,0,0,0,1,0,1.57,1.57,0,0,0,1.7-.72a1.86,1.86,0,0,0,.23-1c0-.09,0-.14.08-.16a.92.92,0,0,1,.24,0,.52.52,0,0,0,.25,0h.08A2.48,2.48,0,0,1,2,0,2.5,2.5,0,0,1,.38.77V7.21H2.09L0,12-1.8,7.23c.07,0,.59,0,1.53,0V.77A3,3,0,0,1-1.35.43a2.16,2.16,0,0,1-1-1,2.38,2.38,0,0,1-.24-1.33l.67,0a2,2,0,0,0,.15,1,1.73,1.73,0,0,0,.59.67A2.14,2.14,0,0,0-.27.16V-12Z"/>
<rect fill="none" x="-12" y="-12" width="24" height="24"/>
</symbol>
<symbol id="rain" viewBox="-12 -12 24 24">
<path d="M-4.14-6.34h0.71v4.69h-0.71V-6.34z"/>
<path d="M-0.35-6.34h0.71v4.69h-0.71V-6.34z"/>
<path d="M3.43-6.34h0.71v4.69H3.43V-6.34z"/>
<path d="M-4.14,1.65h0.71v4.69h-0.71V1.65z"/>
<path d="M-0.35,1.65h0.71v4.69h-0.71V1.65z"/>
<path d="M3.43,1.65h0.71v4.69H3.43V1.65z"/>
<rect fill="none" x="-12" y="-12" width="24" height="24"/>
</symbol>
<symbol id="rats" viewBox="-12 -12 24 24">
<path d="M8.78-2.32,7-2.27c-.51-.17-.65-.56-1.46-.45l-.25.45C3.59-2.75,2.59-3.66.56-3.62l-1.35.3A4.89,4.89,0,0,0-4.24,1.57c-.68.6-2.58.86-3.39.94a6.84,6.84,0,0,0-1.62.39,4.91,4.91,0,0,0-1,.52A1.75,1.75,0,0,0-11,4.61a1.16,1.16,0,0,0,.59,1.48,1.3,1.3,0,0,1,.14.12c.16-.52-.35-.92-.2-1.42a3.35,3.35,0,0,1,.27-.45,3.18,3.18,0,0,1,1.79-1c.63-.12,1.27-.22,1.91-.3.48-.07,1,0,1.4-.12A6.94,6.94,0,0,1-4,2.82,30.64,30.64,0,0,0,.41,2.69l2.16.15c.1-.09,0,0,.1-.15a.87.87,0,0,0-.9-.55c.86-1,2.27-.37,3.1-.05.5.19,1,0,1.25.4.11-.1.1-.07.15-.25.3,0,.31.07.6.15-.06-.49-.34-.64-1-.6a.78.78,0,0,1,0-.55C6.3.56,7.29.73,8.13.43a13.78,13.78,0,0,0,2.15-.9l.6-.85v-.2A16.9,16.9,0,0,0,8.78-2.32Z"/>
<rect fill="none" x="-12" y="-12" width="24" height="24"/>
</symbol>
<symbol id="sand" viewBox="-12 -12 24 24">
<path d="M-1.58,0.83c0.23,0.2,0.35,0.44,0.36,0.73c0.01,0.29-0.08,0.54-0.28,0.75c-0.2,0.21-0.46,0.32-0.78,0.33c-0.32,0.01-0.6-0.08-0.83-0.26C-3.36,2.19-3.49,1.95-3.5,1.67C-3.51,1.38-3.41,1.12-3.2,0.9c0.21-0.22,0.48-0.34,0.8-0.35C-2.08,0.54-1.81,0.64-1.58,0.83z"/>
<path d="M0.08-2.36c0.23,0.2,0.35,0.44,0.36,0.73c0.01,0.29-0.08,0.54-0.28,0.75c-0.2,0.21-0.46,0.32-0.78,0.33c-0.32,0.01-0.59-0.07-0.83-0.26s-0.37-0.42-0.38-0.71c-0.01-0.29,0.09-0.54,0.3-0.76c0.21-0.22,0.48-0.33,0.8-0.35C-0.42-2.65-0.14-2.56,0.08-2.36z"/>
<path d="M3.12,0.55c0.23,0.2,0.35,0.43,0.38,0.71c0.02,0.28-0.07,0.53-0.28,0.75C3,2.23,2.73,2.35,2.42,2.36C2.1,2.37,1.82,2.28,1.58,2.08C1.34,1.88,1.22,1.64,1.2,1.35c-0.01-0.29,0.09-0.54,0.3-0.75C1.72,0.4,1.99,0.29,2.3,0.28S2.89,0.36,3.12,0.55z"/>
<rect fill="none" x="-12" y="-12" width="24" height="24"/>
</symbol>
<symbol  id="scallops" viewBox="-12 -12 24 24">
<path d="M.05-3.74l.21,0A2.35,2.35,0,0,1,1.74-3a2,2,0,0,1,.59,1.55v0l0,0A9.59,9.59,0,0,1-.08,3.27l-.39.47-.27-.55A14.26,14.26,0,0,1-2.33-1.89v-.05l0-.05A2,2,0,0,1-1.44-3.3,2.42,2.42,0,0,1,.05-3.74ZM-.11-3A1.44,1.44,0,0,0-1.55-1.89,13.06,13.06,0,0,0-.29,2.33,8.6,8.6,0,0,0,1.55-1.54a1.41,1.41,0,0,0-.38-1A1.62,1.62,0,0,0,.18-3Z"/>
<rect fill="none" x="-12" y="-12" width="24" height="24"/>
</symbol>
<symbol  id="sink" viewBox="-12 -12 24 24">
<path d="M.72,9.41H.9c1.94,0,3.26-.54,3.94-1.51a3.61,3.61,0,0,0,.33-.69,2,2,0,0,0,.11-.54V6.46l.69,0a2.8,2.8,0,0,1-.58,1.78C4.58,9.39,3.1,10,.93,10H-.93q-3.25,0-4.46-1.8a2.74,2.74,0,0,1-.43-.83A2.37,2.37,0,0,1-6,6.67V6.43l.68,0A2.27,2.27,0,0,0-4.84,7.9c.68,1,2,1.47,3.93,1.48l.5,0ZM-1.46-10a.68.68,0,0,0,.16.41A2.77,2.77,0,0,0-.51-9l0,0a3.63,3.63,0,0,1,1,.7,1.15,1.15,0,0,1,.34.88c0,.58-.53,1.14-1.49,1.68-.68.42-1,.79-1,1.11s.3.61.84,1h0Q.61-2.86.46-1.78a3.51,3.51,0,0,1-1.55,2,.61.61,0,0,0-.26.41,1.67,1.67,0,0,0,.1.51,5.3,5.3,0,0,1,.32,1L.56,1.9.46,8.06-3.4,2.54l1.73-.28A6.16,6.16,0,0,0-2,1.39,1.7,1.7,0,0,1-2.09.58a1.21,1.21,0,0,1,.53-.82h0v0C-.75-.86-.33-1.38-.28-1.85s-.23-.87-.91-1.27h0C-2-3.6-2.37-4.1-2.4-4.61S-2-5.74-1.09-6.29C-.34-6.72.06-7.1.09-7.44a.67.67,0,0,0-.18-.43,3.17,3.17,0,0,0-.79-.58,2.93,2.93,0,0,1-1-.67A1.16,1.16,0,0,1-2.17-10Z"/>
<rect fill="none" x="-12" y="-12" width="24" height="24"/>
</symbol>
<symbol  id="spring" viewBox="-12 -12 24 24">
<path d="M-1.34-9.86,2.52-4.34.78-4.06a8,8,0,0,0,.29.87,1.4,1.4,0,0,1,.13.79,1.3,1.3,0,0,1-.52.84l0,0v0C-.13-.95-.55-.42-.61,0S-.37.91.31,1.3l0,0c.75.46,1.14,1,1.18,1.46S1.12,3.92.21,4.46C-.54,4.9-.94,5.29-1,5.64a.74.74,0,0,0,.18.43A3.2,3.2,0,0,0,0,6.62a3,3,0,0,1,1,.7,1.14,1.14,0,0,1,.31.86A1.74,1.74,0,0,1,.71,9.26H.92c1.92,0,3.22-.52,3.9-1.51a2.05,2.05,0,0,0,.35-.67,2.59,2.59,0,0,0,.1-.55l0-.19.65,0a2.84,2.84,0,0,1-.55,1.8C4.58,9.26,3.08,9.85.92,9.86H-.92c-2.17,0-3.66-.6-4.49-1.77a3.65,3.65,0,0,1-.4-.85A2.43,2.43,0,0,1-6,6.53V6.29l.66,0a2.08,2.08,0,0,0,.47,1.41c.68,1,2,1.5,3.91,1.51H-.4c.62-.43.94-.8,1-1.1a.76.76,0,0,0-.16-.43,3.25,3.25,0,0,0-.79-.51v0a3.8,3.8,0,0,1-1-.7,1.15,1.15,0,0,1-.34-.91q.06-.84,1.5-1.68c.68-.4,1-.77,1-1.1S.49,2.21,0,1.87c0,0,0,0,0,0C-1,1.32-1.44.69-1.34,0a3.58,3.58,0,0,1,1.55-2,.54.54,0,0,0,.23-.38A1.28,1.28,0,0,0,.37-3a4.57,4.57,0,0,1-.32-1l-1.49.24Z"/>
<rect fill="none" x="-12" y="-12" width="24" height="24"/>
</symbol>
<symbol  id="stalactite" viewBox="-12 -12 24 24">
<path d="M3.57-6.69l.52.53L.39-3V6.12H-.39V-3l-3.7-3.14.52-.53L0-3.67Z"/>
<rect fill="none" x="-12" y="-12" width="24" height="24"/>
</symbol>
<symbol  id="stalagmite" viewBox="-12 -12 24 24">
<path d="M.38-6.42V2.75L4.11,5.89l-.56.53L0,3.4l-3.57,3-.53-.53,3.7-3.14V-6.42Z"/>
<rect fill="none" x="-12" y="-12" width="24" height="24"/>
</symbol>
<symbol  id="stalagnate" viewBox="-12 -12 24 24">
<path d="M3.55-8.46l.56.53L.38-4.78v9L4.11,7.36l-.56.53L0,4.86l-3.57,3-.53-.53,3.7-3.14v-9l-3.7-3.15.53-.53L0-5.43Z"/>
<rect fill="none" x="-12" y="-12" width="24" height="24"/>
</symbol>
<symbol  id="straws" viewBox="-12 -12 24 24">
<path d="M-10.89-2.76H10.89V-2H9.63V.46H8.84V-2H8.29v5.6H7.5V-2H5.56V.7H4.77V-2H2.07V2.38H1.29V-2H-.1v3H-.89V-2H-3.2V4.11H-4V-2H-6.22L-6.16.75l-.79,0L-7-2H-8.32V2.33H-9.1V-2h-1.79Z"/>
<rect fill="none" x="-12" y="-12" width="24" height="24"/>
</symbol>
<symbol  id="water" viewBox="-12 -12 24 24">
<path d="M-1.72-9.86,2.11-4.32.38-4.06a6.49,6.49,0,0,0,.29.89,1.5,1.5,0,0,1,.13.79,1.2,1.2,0,0,1-.5.82h0l0,0C-.54-.94-1-.42-1,.05s.24.89.92,1.27h0c.77.48,1.17,1,1.19,1.49S.71,3.94-.2,4.49c-.75.43-1.13.81-1.15,1.15a.51.51,0,0,0,.18.43,2.66,2.66,0,0,0,.76.58,2.93,2.93,0,0,1,1,.67,1.16,1.16,0,0,1,.29.89C.84,8.75.42,9.3-.41,9.86l-.44-.55c.66-.45,1-.83,1-1.15A.47.47,0,0,0,0,7.75a2.84,2.84,0,0,0-.78-.53h0a3.87,3.87,0,0,1-1-.69,1.24,1.24,0,0,1-.34-.91c0-.58.54-1.14,1.52-1.68.66-.42,1-.79,1-1.11s-.3-.61-.84-1h0Q-1.9,1.06-1.74,0a3.44,3.44,0,0,1,1.54-2,.67.67,0,0,0,.27-.41A1.11,1.11,0,0,0,0-3a4.33,4.33,0,0,1-.31-1l-1.5.24Z"/>
<rect fill="none" x="-12" y="-12" width="24" height="24"/>
</symbol><symbol  id="tree" viewBox="-12 -12 24 24">
<path d="M7.4-5.04A4.271,4.271,0,0,0,7.7-6.627a4.3,4.3,0,0,0-4.3-4.3A4.279,4.279,0,0,0,.636-9.914,4.293,4.293,0,0,0-3.045-12a4.3,4.3,0,0,0-4.3,4.3,4.27,4.27,0,0,0,.421,1.845,4.3,4.3,0,0,0-3.645,4.244,4.3,4.3,0,0,0,4.3,4.3A4.282,4.282,0,0,0-3.946,2L-1.175,5.23h0L-1.612,12H.982L.757,6.376,4.119,2.827v0a4.272,4.272,0,0,0,2.15.58,4.3,4.3,0,0,0,4.3-4.3A4.3,4.3,0,0,0,7.4-5.04ZM-3.346,1.538h0A4.346,4.346,0,0,0-2.7.788a4.266,4.266,0,0,0,1.765.753l-.135,2.087ZM.69,4.7.563,1.544A4.258,4.258,0,0,0,2.321.805,4.3,4.3,0,0,0,3.378,2.279Z"/>
<rect fill="none" x="-12" y="-12" width="24" height="24"/>
</symbol><g>
<desc></desc>
<g>
<line fill="none" stroke="#dddddd" stroke-width="0.1mm" x1="0.00" y1="20.00" x2="186.00" y2="20.00" />
<text x="183.20" y="19.80" font-size=".2mm" fill="#000000">0m</text>
<line fill="none" stroke="#dddddd" stroke-width="0.1mm" x1="0.00" y1="40.00" x2="186.00" y2="40.00" />
<text x="183.20" y="39.80" font-size=".2mm" fill="#000000">-10m</text>
<line fill="none" stroke="#dddddd" stroke-width="0.1mm" x1="0.00" y1="60.00" x2="186.00" y2="60.00" />
<text x="183.20" y="59.80" font-size=".2mm" fill="#000000">-20m</text>
</g>
<g>
<path fill="none" stroke="#000000" stroke-width="0.06mm" d="M22.991543,21.85058 C23.101671,21.868093 23.2118,21.885607 23.321928,21.90312 C23.43273,21.914566 23.54584,21.912214 23.654333,21.937458 C23.870779,21.987822 24.081171,22.061531 24.292896,22.129047 C25.188633,22.414682 26.086967,22.69276 26.9766,22.996874 C27.17268,23.063904 27.35505,23.16618 27.547989,23.241772 C27.725657,23.311378 27.907879,23.368744 28.087824,23.43223 L28.087824,23.43223" /><path fill="none" stroke="#000000" stroke-width="0.06mm" d="M23.550583,20.869005 C23.633665,20.899014 23.715006,20.934374 23.79983,20.959034 C23.917177,20.993149 24.037415,21.016392 24.156208,21.04507 C24.755718,21.227734 25.354637,21.412346 25.954739,21.59306 C26.037033,21.61784 26.12259,21.632032 26.203314,21.661528 C26.567686,21.794662 26.245262,21.714214 26.601372,21.879343 C26.855865,21.997353 26.963463,21.986086 27.241589,22.065943 C27.496077,22.139013 27.749916,22.214935 28.000462,22.30055 C28.314253,22.43689 28.174393,22.387402 28.415035,22.462576 L28.415035,22.462576" /><path fill="none" stroke="#000000" stroke-width="0.06mm" d="M28.366922,22.42291 C28.39091,22.445293 28.41334,22.469471 28.438885,22.490057 C28.45276,22.50124 28.467192,22.514002 28.484612,22.51776 C28.731134,22.57093 28.98009,22.612125 29.227661,22.66018 C29.560398,22.724766 29.89756,22.77013 30.225533,22.855679 C30.525738,22.933985 30.93891,23.171947 31.2986,23.157187 C31.664272,23.14218 32.027508,23.09028 32.392265,23.060427 C32.455444,23.055256 32.51892,23.054893 32.582253,23.052126 L32.582253,23.052126" /><path fill="none" stroke="#000000" stroke-width="0.06mm" d="M28.006592,23.505161 C28.11095,23.505173 28.21531,23.505186 28.319668,23.505198 C28.617043,23.477146 28.913158,23.426926 29.211796,23.421047 C29.851936,23.408443 30.600613,23.422874 31.197744,23.716368 C31.586304,23.907349 32.497726,24.5546 32.634335,24.64391 C32.654263,24.656937 32.677525,24.664873 32.700706,24.670303 C32.85633,24.706757 33.011154,24.750463 33.169872,24.769356 C33.527138,24.811886 33.59647,24.806215 33.831482,24.79406 L33.831482,24.79406" /><path fill="none" stroke="#000000" stroke-width="0.06mm" d="M33.658478,24.86544 C33.90398,24.723667 33.832584,24.74724 34.229046,24.6661 C34.297466,24.652098 34.369453,24.635033 34.437866,24.649073 C35.222908,24.81019 36.822998,25.287647 37.842552,25.332375 C39.529823,25.406395 39.57365,25.232828 40.908623,25.439713 C41.141624,25.475822 41.365,25.56211 41.598053,25.5979 C41.99797,25.659315 42.405075,25.666725 42.804565,25.730871 C43.646797,25.866108 42.93451,25.879158 43.64658,25.902845 C43.90928,25.911583 44.039116,25.82616 44.32676,25.775597 C44.48077,25.74852 44.71138,25.772263 44.859707,25.7808 L44.859707,25.7808" /><path fill="none" stroke="#000000" stroke-width="0.06mm" d="M32.566704,22.996927 C33.20834,23.103851 33.84998,23.210775 34.491615,23.317698 C34.759087,23.36795 35.023056,23.44312 35.294018,23.468458 C36.38616,23.57059 37.488247,23.563051 38.57661,23.699705 C39.407135,23.803986 40.215485,24.042461 41.039455,24.18985 C41.599823,24.290087 42.16719,24.347342 42.728462,24.442377 C42.918114,24.474491 43.520103,24.656841 43.836296,24.627678 C44.02939,24.609867 44.21903,24.565044 44.4104,24.533726 L44.4104,24.533726" /><path fill="none" stroke="#000000" stroke-width="0.06mm" d="M44.223473,24.589231 C44.28392,24.587498 44.34474,24.590994 44.404808,24.58403 C44.44763,24.579067 44.488655,24.563885 44.530533,24.553637 C44.69108,24.514347 44.849434,24.464836 45.012077,24.435417 C45.2247,24.396955 45.43927,24.367039 45.654697,24.350288 C46.274666,24.30209 46.895332,24.255133 47.517006,24.24067 C47.754723,24.235138 48.255207,24.344528 48.55518,24.253225 C49.227333,24.048643 51.47046,23.046448 51.50119,23.035545 C52.12235,22.815159 52.77175,22.684261 53.409153,22.516554 C53.444534,22.507244 53.483692,22.492916 53.518284,22.504827 C53.568916,22.522259 53.605072,22.567577 53.64846,22.598951 L53.64846,22.598951" /><path fill="none" stroke="#000000" stroke-width="0.06mm" d="M44.834106,25.854296 C45.200615,25.91319 45.30285,25.946941 45.74918,25.89198 C46.25808,25.829315 46.76367,25.739351 47.266243,25.637754 C47.456284,25.599339 47.639103,25.531094 47.823936,25.472559 C47.895344,25.449945 48.09754,25.354454 48.213135,25.355461 C48.755615,25.360178 48.44275,25.520145 49.375828,25.554453 C54.105618,25.728355 53.234222,25.335064 57.12417,25.89889 C58.21719,26.057318 60.10828,26.661293 61.001446,26.967922 C61.37913,27.097582 61.735603,27.282558 62.106743,27.429916 C62.142017,27.44392 62.18084,27.447329 62.218597,27.451183 C62.273643,27.456806 62.329163,27.455912 62.384445,27.458277 L62.384445,27.458277" /><path fill="none" stroke="#000000" stroke-width="0.06mm" d="M53.559937,22.577051 C53.592228,22.616499 53.6219,22.658247 53.65681,22.695393 C53.684242,22.724579 53.756798,22.769638 53.79162,22.779722 C54.490776,22.982183 55.187344,23.195318 55.893852,23.370392 C60.241104,24.447643 57.058445,23.64368 59.843853,24.146854 C59.93663,24.163614 60.025925,24.19954 60.110443,24.241304 C60.422504,24.395504 60.709915,24.60004 61.031334,24.733635 C61.33622,24.860355 61.66237,24.928377 61.980038,25.018372 C62.007183,25.026062 62.03611,25.027199 62.064304,25.02627 C62.118065,25.024502 62.171352,25.015635 62.224876,25.010315 L62.224876,25.010315" /><path fill="none" stroke="#000000" stroke-width="0.06mm" d="M80.122055,42.136227 L80.093925,42.126442" /><path fill="none" stroke="#000000" stroke-width="0.06mm" d="M62.00065,25.113792 C62.20218,25.222378 62.409042,25.170963 62.62417,25.21645 C64.41768,25.595669 66.20227,26.01639 67.99631,26.393158 C69.240326,26.65442 70.5026,26.830387 71.737854,27.130436 C73.74916,27.618992 75.73515,28.206524 77.73024,28.757578 C77.9793,28.826368 78.13941,29.083294 78.3071,29.244904 C78.49835,29.429218 78.82043,29.48156 79.05624,29.521708 C79.15076,29.5378 79.24791,29.52763 79.34376,29.53059 L79.34376,29.53059" /><path fill="none" stroke="#000000" stroke-width="0.06mm" d="M62.16198,27.528175 L62.162376,27.528572" /><path fill="none" stroke="#000000" stroke-width="0.06mm" d="M61.960323,27.388783 L61.96072,27.389183" /><path fill="none" stroke="#000000" stroke-width="0.06mm" d="M61.972183,27.353195 C62.160072,27.399446 62.345577,27.456795 62.53586,27.491951 C70.2603,28.919079 60.466988,26.965603 68.75767,28.796286 C70.76778,29.240143 72.7948,29.605623 74.802795,30.058975 C75.420044,30.198336 76.64081,30.509003 77.349754,30.868753 C77.46692,30.928205 77.56447,31.020212 77.67183,31.095943 L77.67183,31.095943" /><path fill="none" stroke="#000000" stroke-width="0.06mm" d="M77.56206,31.064655 C77.60301,31.113533 77.675095,31.190588 77.6235,31.25996 C77.56577,31.33757 77.50972,31.41669 77.446495,31.489885 C77.409645,31.53254 77.36957,31.573257 77.3241,31.606556 C76.883255,31.929329 76.68223,32.120575 76.22838,32.280807 C76.1123,32.32179 75.99434,32.362988 75.87222,32.3785 C75.58222,32.415344 75.28888,32.41764 74.99721,32.437214 L74.99721,32.437214" /><path fill="none" stroke="#000000" stroke-width="0.06mm" d="M78.62435,31.73676 C78.546906,31.760242 78.45256,31.777872 78.38548,31.830687 C77.34582,32.64936 77.78816,32.45108 76.69738,32.930683 C76.63206,32.959404 76.56327,32.985565 76.49217,32.99163 C74.75398,33.139977 75.47476,32.92253 74.88881,33.10598 L74.88881,33.10598" /><path fill="none" stroke="#000000" stroke-width="0.06mm" d="M73.56969,31.808472 C73.60098,31.84893 73.64546,31.88817 73.650085,31.942486 C73.65869,32.043674 73.461365,32.2763 73.417816,32.344604 C73.27112,32.574665 73.39041,32.784275 73.644806,32.837406 C73.74529,32.858395 73.85405,32.857704 73.95094,32.81994 C74.038895,32.785664 74.1237,32.743793 74.210075,32.705723 L74.210075,32.705723" /><path fill="none" stroke="#000000" stroke-width="0.06mm" d="M73.62639,33.346138 C73.51544,33.307697 73.414116,33.282036 73.31308,33.35269 C73.226425,33.413296 73.15527,33.534386 73.154274,33.641586 C73.15285,33.795185 73.28801,33.88931 73.43598,33.855236 C73.58095,33.82186 73.71978,33.608765 73.60941,33.475147 C73.56529,33.421722 73.50629,33.416252 73.441284,33.399506 L73.441284,33.399506" /><path fill="none" stroke="#000000" stroke-width="0.06mm" d="M78.26167,31.808462 C78.39836,31.739948 78.53114,31.66299 78.671745,31.602917 C78.82989,31.535355 78.99238,31.477762 79.15643,31.426186 C80.04498,31.146837 80.951645,30.923183 81.82895,30.610327 C82.4958,30.372526 82.79993,30.043976 83.37857,29.670424 C83.45488,29.621159 83.53575,29.572533 83.624435,29.552938 C84.32179,29.398876 85.02744,29.285095 85.72894,29.151173 L85.72894,29.151173" /><path fill="none" stroke="#000000" stroke-width="0.06mm" d="M78.94079,29.364704 L78.94119,29.3651" /><path fill="none" stroke="#000000" stroke-width="0.06mm" d="M78.94079,29.364704 C79.13219,29.384216 79.43919,29.445484 79.65786,29.398003 C80.29696,29.25923 80.97793,28.900354 81.54437,28.695839 C81.73277,28.627817 82.54256,28.490902 82.651184,28.463017 C83.13594,28.338581 83.61368,28.188263 84.094925,28.050888 L84.094925,28.050888" /><path fill="none" stroke="#000000" stroke-width="0.06mm" d="M56.603077,83.49329 L57.0451,83.27885" /><path fill="none" stroke="#000000" stroke-width="0.06mm" d="M85.35254,29.210762 C85.51152,29.1703 85.6705,29.129837 85.82949,29.089375 C86.001625,29.039467 86.169365,28.970608 86.345894,28.939653 C86.538055,28.90596 86.73449,28.895 86.92957,28.89648 C87.56242,28.901283 88.19511,28.99035 88.82718,28.95848 C95.097466,28.642323 86.587616,28.550875 94.31709,28.771544 L94.31709,28.771544" /><path fill="none" stroke="#000000" stroke-width="0.06mm" d="M83.73532,28.029531 C87.00298,27.79934 83.14966,28.065773 92.51758,27.678392 C93.77325,27.626469 91.88134,27.634861 93.28221,27.640224 L93.28221,27.640224" /><path fill="none" stroke="#000000" stroke-width="0.06mm" d="M100.14292,28.419193 C100.0239,28.395298 99.906746,28.358734 99.78588,28.347507 C99.6775,28.337439 99.567955,28.346977 99.459465,28.355701 C98.95407,28.396355 98.45117,28.469027 97.94485,28.495592 C94.17611,28.693325 95.96794,28.325792 93.893684,28.83179 L93.893684,28.83179" /><path fill="none" stroke="#000000" stroke-width="0.06mm" d="M100.03644,26.772125 C96.83118,27.40526 100.81695,26.68438 96.219284,27.189445 C95.13374,27.308697 94.058815,27.510166 92.97859,27.670527 L92.97859,27.670527" /><path fill="none" stroke="#000000" stroke-width="0.06mm" d="M100.05805,28.373608 C100.15133,28.41808 100.240074,28.47369 100.33789,28.507023 C100.73961,28.643917 101.61281,28.685902 101.84199,28.727873 C103.24436,28.984692 104.6515,29.226906 106.03558,29.568829 C107.13002,29.839193 106.96822,30.029156 107.81066,30.35701 C108.28938,30.543316 108.53927,30.538273 109.0459,30.596315 L109.0459,30.596315" /><path fill="none" stroke="#000000" stroke-width="0.06mm" d="M108.8163,27.285545 L108.81009,27.292648" /><path fill="none" stroke="#000000" stroke-width="0.06mm" d="M109.292145,27.205687 C109.161674,27.236046 109.02827,27.255724 108.90075,27.29676 C108.637695,27.381426 108.386444,27.500658 108.1224,27.582165 C107.84202,27.668713 107.396774,27.714378 107.121056,27.66322 C106.021286,27.459154 104.95049,27.10112 103.84241,26.948536 C102.84564,26.811281 101.83339,26.828121 100.82771,26.796625 C100.26426,26.778978 100.30788,26.785294 99.93826,26.902893 L99.93826,26.902893" /><path fill="none" stroke="#000000" stroke-width="0.06mm" d="M109.12601,27.181646 C109.779755,27.187376 110.44596,27.095804 111.02245,27.468594 C111.73064,27.926537 112.4202,28.413746 113.09615,28.918045 C113.3047,29.073637 113.47996,29.269476 113.67186,29.44519 C113.96902,29.671228 114.25801,29.908394 114.56331,30.123302 C114.65176,30.185562 114.84743,30.276787 114.97247,30.302956 C115.238686,30.358665 115.51981,30.264744 115.70044,30.05785 C115.86337,29.871216 116.03118,29.684805 116.15713,29.47145 C116.303894,29.222815 116.70576,28.414322 116.75427,28.003178 C116.99079,25.998993 117.01509,26.419617 116.89262,25.358227 L116.89262,25.358227" /><path fill="none" stroke="#000000" stroke-width="0.06mm" d="M117.04569,30.811848 C117.05395,30.65402 117.03476,30.492321 117.070465,30.338364 C117.2875,29.402538 117.59398,28.488636 117.801994,27.550766 C118.05247,26.421455 118.04923,26.238451 118.09389,25.424774 L118.09389,25.424774" /><path fill="none" stroke="#000000" stroke-width="0.06mm" d="M116.99911,22.819416 C116.99611,22.683706 116.95967,22.432333 117.152275,22.394392 C117.210335,22.382957 117.27174,22.379116 117.32512,22.40913 C117.43706,22.47207 117.45347,22.648151 117.44574,22.759174 C117.441284,22.823168 117.43157,22.886976 117.417145,22.949482 C117.37336,23.139198 117.31052,23.324379 117.27128,23.515089 C117.24437,23.64585 117.22891,23.847702 117.382835,23.9074 C117.440346,23.929703 117.50739,23.931974 117.56704,23.917795 C117.66721,23.893982 117.75462,23.847511 117.838684,23.786835 C118.129166,23.577154 118.126396,23.569008 118.33015,23.368439 L118.33015,23.368439" /><path fill="none" stroke="#000000" stroke-width="0.06mm" d="M117.734505,24.629524 C117.65098,24.65074 117.566246,24.66771 117.48391,24.693169 C117.33969,24.737766 117.26193,24.934692 117.36825,25.054167 C117.436226,25.130548 117.58363,25.176586 117.6099,25.038391 C117.636635,24.897743 117.42264,24.663574 117.4084,24.639507 L117.4084,24.639507" /><path fill="none" stroke="#000000" stroke-width="0.06mm" d="M108.912544,30.564995 C109.072784,30.631641 109.2061,30.70895 109.37876,30.72193 C110.36617,30.796158 111.356415,30.833097 112.342575,30.922276 C112.471924,30.933971 112.59984,30.971615 112.7187,31.023956 C113.31839,31.288023 113.91653,31.558548 114.49338,31.869366 C115.17754,32.238014 115.21958,32.485336 115.88591,32.663834 C116.195915,32.746872 116.5125,32.817295 116.83273,32.838474 C117.322945,32.870895 117.81522,32.825974 118.3065,32.823917 C118.412964,32.82347 118.51937,32.828613 118.62581,32.83096 L118.62581,32.83096" /><path fill="none" stroke="#000000" stroke-width="0.06mm" d="M118.2805,32.813057 C118.55194,32.94235 118.63537,33.035294 118.6933,33.330315 C118.733154,33.533333 118.7294,33.762268 118.89813,33.91155 C119.06321,34.057606 119.25575,34.074966 119.47086,34.07229 C119.77576,34.06849 120.08026,34.045612 120.38517,34.043823 C121.321014,34.03834 120.30118,34.10261 121.138916,34.03754 L121.138916,34.03754" /><path fill="none" stroke="#000000" stroke-width="0.06mm" d="M117.026,30.706806 C117.02585,30.82716 117.006584,30.959057 117.08231,31.062283 C117.32514,31.393276 118.155,31.248213 118.42138,31.272308 C121.399155,31.541672 119.10103,31.486374 120.91264,31.505383 L120.91264,31.505383" /><path fill="none" stroke="#000000" stroke-width="0.06mm" d="M120.96687,34.016224 C121.062935,34.02145 121.159645,34.019524 121.25505,34.031902 C121.31469,34.039642 121.37593,34.049828 121.429924,34.076317 C121.879295,34.296783 122.32921,34.51816 122.76127,34.770874 C123.31636,35.095543 123.83885,35.473396 124.38869,35.806885 C124.67677,35.981613 125.28832,36.0361 125.49906,36.07589 L125.49906,36.07589" /><path fill="none" stroke="#000000" stroke-width="0.06mm" d="M120.53761,31.540634 C120.759636,31.574837 120.98579,31.588615 121.20369,31.643244 C121.70064,31.767834 122.10346,32.051346 122.53445,32.320496 C122.78755,32.47855 123.013176,32.68374 123.28252,32.812176 C123.83407,33.07519 124.42216,33.253925 124.98597,33.489525 C126.08843,33.950195 125.27421,33.688164 125.951614,33.89311 L125.951614,33.89311" /><path fill="none" stroke="#000000" stroke-width="0.06mm" d="M125.367065,36.015392 C128.5494,36.969677 124.154274,35.595352 128.22241,37.11638 C130.0364,37.79461 132.02805,37.949356 133.7815,38.78656 C133.9187,38.852066 134.04236,38.9429 134.17029,39.025043 C135.06052,39.596672 135.93811,40.18814 136.83592,40.74781 C137.12952,40.930824 138.05884,41.02143 138.12227,41.02894 C138.52638,41.076744 138.93387,41.0894 139.33966,41.119637 L139.33966,41.119637" /><path fill="none" stroke="#000000" stroke-width="0.06mm" d="M125.64326,33.756084 C125.89514,33.862278 126.00245,33.884075 126.21174,34.062042 C126.32018,34.154243 126.4185,34.258167 126.5135,34.364166 C126.717285,34.59156 126.84979,34.839855 127.11531,34.997322 C127.34441,35.133194 127.58381,35.251896 127.82644,35.361816 C127.92095,35.40464 128.02249,35.431377 128.12372,35.454178 C129.4595,35.755028 130.8085,35.99882 132.13644,36.33254 C132.85672,36.513542 133.564,36.746277 134.26306,36.996994 C134.8323,37.201153 135.82715,37.7675 136.38416,37.96408 C136.62877,38.050407 136.89038,38.07966 137.14682,38.11879 C137.59836,38.187702 138.13428,38.09199 138.47165,37.764183 C138.57492,37.663857 138.74603,37.437557 138.78558,37.308277 C139.09056,36.31166 139.35019,35.301727 139.63248,34.29845 L139.63248,34.29845" /><path fill="none" stroke="#000000" stroke-width="0.06mm" d="M139.49605,38.404472 C139.63892,36.81415 139.46632,38.34234 140.39944,34.97422 C140.4632,34.744057 140.49374,34.50596 140.54092,34.27183 L140.54092,34.27183" /><path fill="none" stroke="#000000" stroke-width="0.06mm" d="M139.51602,31.114122 C139.4198,30.887505 139.35942,30.684433 139.54932,30.495953 C139.59651,30.449106 139.66376,30.417381 139.72903,30.406782 C139.91148,30.377151 140.02036,30.536589 140.0578,30.698433 C140.06798,30.74239 140.0817,30.78759 140.07681,30.832443 C140.02995,31.161251 139.9831,31.490055 139.93623,31.818861 C139.93768,31.83561 139.9372,31.852642 139.94057,31.86911 C139.95383,31.933735 140.0027,31.980888 140.06375,32.00256 C140.35123,32.104607 140.55771,31.824564 140.73724,31.64318 L140.73724,31.64318" /><path fill="none" stroke="#000000" stroke-width="0.06mm" d="M140.25807,33.03736 C140.17752,33.080307 140.0942,33.11837 140.01645,33.16619 C139.9714,33.1939 139.9227,33.255234 139.89813,33.30107 C139.74231,33.591877 139.97128,33.873283 140.28632,33.783913 C140.50293,33.722466 140.6363,33.407063 140.65451,33.206722 C140.65955,33.151447 140.59973,33.014675 140.52554,33.034218 C140.40509,33.06594 140.28954,33.113953 140.17154,33.153824 L140.17154,33.153824" /><path fill="none" stroke="#000000" stroke-width="0.06mm" d="M139.41953,38.31796 C139.47775,38.471344 139.536,38.624725 139.59424,38.778114 C139.65457,38.95455 139.70502,39.134697 139.77527,39.307423 C139.8424,39.472435 139.92007,39.63341 140.0057,39.789623 C140.05853,39.886 140.2193,40.052406 140.28802,40.128067 L140.28802,40.128067" /><path fill="none" stroke="#000000" stroke-width="0.06mm" d="M140.15683,40.161217 C141.64969,40.32667 141.74298,40.421577 143.36444,40.19143 C143.74884,40.136868 144.38095,39.847176 144.74893,39.692055 L144.74893,39.692055" /><path fill="none" stroke="#000000" stroke-width="0.06mm" d="M144.61581,39.805183 L144.64288,39.79565" /><path fill="none" stroke="#000000" stroke-width="0.06mm" d="M144.53214,39.785805 C144.70288,39.766838 145.09807,39.682842 145.33401,39.736824 C146.2785,39.952923 146.7593,40.425896 147.46231,41.110847 C147.5758,41.22143 147.94133,41.65805 148.00702,41.874523 C148.23672,42.63143 148.40608,43.405483 148.62245,44.16631 C148.64075,44.230682 148.67686,44.28886 148.71014,44.346924 C148.76904,44.449677 148.9864,44.867966 149.15326,45.01591 C149.50032,45.32366 149.93466,45.4924 150.38524,45.580757 C150.72786,45.647945 151.07869,45.66964 151.42003,45.743076 C152.26134,45.92408 151.8477,45.926956 152.63557,46.18876 C153.14029,46.35647 152.93806,46.20017 153.41449,46.316673 C153.75299,46.399452 154.09033,46.490395 154.41927,46.60549 C154.98369,46.802986 155.31801,47.04961 155.83931,47.36564 L155.83931,47.36564" /><path fill="none" stroke="#000000" stroke-width="0.06mm" d="M139.17136,41.203278 C140.13197,41.235695 140.42084,41.22825 141.51033,41.37284 C141.6311,41.38887 141.74857,41.428978 141.86092,41.47609 C142.29013,41.65608 143.10204,42.25933 143.32315,42.378944 C143.71655,42.59176 144.1488,42.725067 144.54834,42.9261 C144.90585,43.105988 145.28424,43.504684 145.53467,43.767456 C145.61859,43.855522 145.73691,44.049244 145.77231,44.169495 C145.84189,44.40587 145.90683,44.64452 145.94878,44.887325 C146.04022,45.416573 145.98859,45.81112 146.18414,46.27134 C146.35051,46.662914 146.66603,47.014954 147.00665,47.264843 C147.21901,47.420624 147.4381,47.563095 147.69312,47.635006 C148.07895,47.74381 148.50227,47.724438 148.88985,47.77745 C149.1558,47.813824 149.41426,47.89812 149.68112,47.927094 C150.51106,48.017197 150.65207,47.890553 151.39188,48.09691 C151.58685,48.15129 151.7666,48.25014 151.9544,48.325645 C152.53502,48.559063 153.12874,48.7619 153.69714,49.02367 C154.02942,49.176697 154.31639,49.418304 154.65048,49.56731 C155.04434,49.742973 155.46783,49.84319 155.87198,49.99366 C156.19608,50.152153 156.03047,50.082115 156.36841,50.203915 L156.36841,50.203915" /><path fill="none" stroke="#000000" stroke-width="0.06mm" d="M163.11429,51.647118 C160.78313,51.412983 161.45573,51.50928 157.33728,50.555992 C157.02533,50.483788 156.74265,50.31759 156.43997,50.213142 C156.33527,50.17701 156.14545,50.18217 156.04314,50.17973 L156.04314,50.17973" /><path fill="none" stroke="#000000" stroke-width="0.06mm" d="M155.7137,47.234974 C155.89467,47.319767 156.08315,47.390125 156.25662,47.489357 C156.36932,47.55382 156.47096,47.637123 156.56784,47.723557 C156.87201,47.994938 157.23918,48.438286 157.62846,48.63952 C159.24889,49.477177 158.54378,49.01307 160.24034,49.545853 C160.46962,49.61786 160.67517,49.752693 160.90175,49.832844 C161.20378,49.939682 162.02332,49.959007 162.16576,49.973343 C163.15959,50.073357 162.49005,50.07401 163.21744,50.049957 L163.21744,50.049957" /></g>
<g>
<line fill="none" stroke="#111111" stroke-width="0.04mm" x1="20.00" y1="20.00" x2="27.64" y2="22.27" />
<line fill="none" stroke="#00aeef" stroke-width="0.04mm" stroke-dasharray="0.4,0.2" x1="27.64" y1="22.27" x2="27.45" y2="22.91" />
<line fill="none" stroke="#5674b9" stroke-width="0.04mm" stroke-dasharray="0.4,0.2" x1="27.64" y1="22.27" x2="28.18" y2="22.42" />
<line fill="none" stroke="#00aeef" stroke-width="0.04mm" stroke-dasharray="0.4,0.2" x1="27.64" y1="22.27" x2="26.79" y2="22.24" />
<line fill="none" stroke="#00aeef" stroke-width="0.04mm" stroke-dasharray="0.4,0.2" x1="27.64" y1="22.27" x2="27.36" y2="21.73" />
<line fill="none" stroke="#00aeef" stroke-width="0.04mm" stroke-dasharray="0.4,0.2" x1="27.64" y1="22.27" x2="27.28" y2="22.65" />
<line fill="none" stroke="#5674b9" stroke-width="0.04mm" stroke-dasharray="0.4,0.2" x1="27.64" y1="22.27" x2="27.72" y2="23.22" />
<line fill="none" stroke="#111111" stroke-width="0.04mm" x1="27.64" y1="22.27" x2="32.41" y2="23.63" />
<line fill="none" stroke="#00aeef" stroke-width="0.04mm" stroke-dasharray="0.4,0.2" x1="32.41" y1="23.63" x2="31.99" y2="23.22" />
<line fill="none" stroke="#5674b9" stroke-width="0.04mm" stroke-dasharray="0.4,0.2" x1="32.41" y1="23.63" x2="33.00" y2="23.61" />
<line fill="none" stroke="#5674b9" stroke-width="0.04mm" stroke-dasharray="0.4,0.2" x1="32.41" y1="23.63" x2="33.54" y2="23.86" />
<line fill="none" stroke="#5674b9" stroke-width="0.04mm" stroke-dasharray="0.4,0.2" x1="32.41" y1="23.63" x2="31.19" y2="23.57" />
<line fill="none" stroke="#5674b9" stroke-width="0.04mm" stroke-dasharray="0.4,0.2" x1="32.41" y1="23.63" x2="30.66" y2="23.37" />
<line fill="none" stroke="#5674b9" stroke-width="0.04mm" stroke-dasharray="0.4,0.2" x1="32.41" y1="23.63" x2="33.73" y2="23.34" />
<line fill="none" stroke="#00aeef" stroke-width="0.04mm" stroke-dasharray="0.4,0.2" x1="32.41" y1="23.63" x2="33.15" y2="22.09" />
<line fill="none" stroke="#00aeef" stroke-width="0.04mm" stroke-dasharray="0.4,0.2" x1="32.41" y1="23.63" x2="36.18" y2="21.81" />
<line fill="none" stroke="#00aeef" stroke-width="0.04mm" stroke-dasharray="0.4,0.2" x1="32.41" y1="23.63" x2="36.23" y2="22.51" />
<line fill="none" stroke="#00aeef" stroke-width="0.04mm" stroke-dasharray="0.4,0.2" x1="32.41" y1="23.63" x2="37.91" y2="23.37" />
<line fill="none" stroke="#5674b9" stroke-width="0.04mm" stroke-dasharray="0.4,0.2" x1="32.41" y1="23.63" x2="32.49" y2="23.06" />
<line fill="none" stroke="#5674b9" stroke-width="0.04mm" stroke-dasharray="0.4,0.2" x1="32.41" y1="23.63" x2="33.10" y2="24.81" />
<line fill="none" stroke="#111111" stroke-width="0.04mm" x1="32.41" y1="23.63" x2="43.51" y2="24.73" />
<line fill="none" stroke="#00aeef" stroke-width="0.04mm" stroke-dasharray="0.4,0.2" x1="43.51" y1="24.73" x2="44.80" y2="24.34" />
<line fill="none" stroke="#5674b9" stroke-width="0.04mm" stroke-dasharray="0.4,0.2" x1="43.51" y1="24.73" x2="43.06" y2="25.30" />
<line fill="none" stroke="#00aeef" stroke-width="0.04mm" stroke-dasharray="0.4,0.2" x1="43.51" y1="24.73" x2="42.81" y2="24.69" />
<line fill="none" stroke="#5674b9" stroke-width="0.04mm" stroke-dasharray="0.4,0.2" x1="43.51" y1="24.73" x2="45.92" y2="24.64" />
<line fill="none" stroke="#00aeef" stroke-width="0.04mm" stroke-dasharray="0.4,0.2" x1="43.51" y1="24.73" x2="44.93" y2="24.28" />
<line fill="none" stroke="#5674b9" stroke-width="0.04mm" stroke-dasharray="0.4,0.2" x1="43.51" y1="24.73" x2="45.09" y2="24.37" />
<line fill="none" stroke="#00aeef" stroke-width="0.04mm" stroke-dasharray="0.4,0.2" x1="43.51" y1="24.73" x2="43.49" y2="25.81" />
<line fill="none" stroke="#00aeef" stroke-width="0.04mm" stroke-dasharray="0.4,0.2" x1="43.51" y1="24.73" x2="43.42" y2="25.51" />
<line fill="none" stroke="#5674b9" stroke-width="0.04mm" stroke-dasharray="0.4,0.2" x1="43.51" y1="24.73" x2="43.13" y2="25.94" />
<line fill="none" stroke="#111111" stroke-width="0.04mm" x1="43.51" y1="24.73" x2="48.66" y2="24.22" />
<line fill="none" stroke="#00aeef" stroke-width="0.04mm" stroke-dasharray="0.4,0.2" x1="48.66" y1="24.22" x2="46.06" y2="23.35" />
<line fill="none" stroke="#00aeef" stroke-width="0.04mm" stroke-dasharray="0.4,0.2" x1="48.66" y1="24.22" x2="48.77" y2="24.07" />
<line fill="none" stroke="#5674b9" stroke-width="0.04mm" stroke-dasharray="0.4,0.2" x1="48.66" y1="24.22" x2="48.11" y2="24.55" />
<line fill="none" stroke="#00aeef" stroke-width="0.04mm" stroke-dasharray="0.4,0.2" x1="48.66" y1="24.22" x2="48.81" y2="24.21" />
<line fill="none" stroke="#5674b9" stroke-width="0.04mm" stroke-dasharray="0.4,0.2" x1="48.66" y1="24.22" x2="48.19" y2="24.50" />
<line fill="none" stroke="#00aeef" stroke-width="0.04mm" stroke-dasharray="0.4,0.2" x1="48.66" y1="24.22" x2="45.80" y2="22.13" />
<line fill="none" stroke="#00aeef" stroke-width="0.04mm" stroke-dasharray="0.4,0.2" x1="48.66" y1="24.22" x2="45.98" y2="23.32" />
<line fill="none" stroke="#00aeef" stroke-width="0.04mm" stroke-dasharray="0.4,0.2" x1="48.66" y1="24.22" x2="47.45" y2="22.77" />
<line fill="none" stroke="#00aeef" stroke-width="0.04mm" stroke-dasharray="0.4,0.2" x1="48.66" y1="24.22" x2="47.07" y2="22.30" />
<line fill="none" stroke="#00aeef" stroke-width="0.04mm" stroke-dasharray="0.4,0.2" x1="48.66" y1="24.22" x2="47.36" y2="22.51" />
<line fill="none" stroke="#00aeef" stroke-width="0.04mm" stroke-dasharray="0.4,0.2" x1="48.66" y1="24.22" x2="45.78" y2="23.35" />
<line fill="none" stroke="#111111" stroke-width="0.04mm" x1="48.66" y1="24.22" x2="52.93" y2="23.04" />
<line fill="none" stroke="#5674b9" stroke-width="0.04mm" stroke-dasharray="0.4,0.2" x1="52.93" y1="23.04" x2="51.44" y2="22.95" />
<line fill="none" stroke="#5674b9" stroke-width="0.04mm" stroke-dasharray="0.4,0.2" x1="52.93" y1="23.04" x2="53.37" y2="23.15" />
<line fill="none" stroke="#00aeef" stroke-width="0.04mm" stroke-dasharray="0.4,0.2" x1="52.93" y1="23.04" x2="52.04" y2="22.76" />
<line fill="none" stroke="#00aeef" stroke-width="0.04mm" stroke-dasharray="0.4,0.2" x1="52.93" y1="23.04" x2="50.26" y2="22.05" />
<line fill="none" stroke="#00aeef" stroke-width="0.04mm" stroke-dasharray="0.4,0.2" x1="52.93" y1="23.04" x2="50.21" y2="22.48" />
<line fill="none" stroke="#5674b9" stroke-width="0.04mm" stroke-dasharray="0.4,0.2" x1="52.93" y1="23.04" x2="51.43" y2="22.94" />
<line fill="none" stroke="#5674b9" stroke-width="0.04mm" stroke-dasharray="0.4,0.2" x1="52.93" y1="23.04" x2="52.47" y2="23.30" />
<line fill="none" stroke="#5674b9" stroke-width="0.04mm" stroke-dasharray="0.4,0.2" x1="52.93" y1="23.04" x2="51.27" y2="23.78" />
<line fill="none" stroke="#5674b9" stroke-width="0.04mm" stroke-dasharray="0.4,0.2" x1="52.93" y1="23.04" x2="48.63" y2="25.10" />
<line fill="none" stroke="#5674b9" stroke-width="0.04mm" stroke-dasharray="0.4,0.2" x1="52.93" y1="23.04" x2="51.02" y2="23.47" />
<line fill="none" stroke="#5674b9" stroke-width="0.04mm" stroke-dasharray="0.4,0.2" x1="52.93" y1="23.04" x2="52.77" y2="22.63" />
<line fill="none" stroke="#00aeef" stroke-width="0.04mm" stroke-dasharray="0.4,0.2" x1="52.93" y1="23.04" x2="52.81" y2="23.69" />
<line fill="none" stroke="#5674b9" stroke-width="0.04mm" stroke-dasharray="0.4,0.2" x1="52.93" y1="23.04" x2="52.03" y2="24.14" />
<line fill="none" stroke="#5674b9" stroke-width="0.04mm" stroke-dasharray="0.4,0.2" x1="52.93" y1="23.04" x2="51.94" y2="22.18" />
<line fill="none" stroke="#5674b9" stroke-width="0.04mm" stroke-dasharray="0.4,0.2" x1="52.93" y1="23.04" x2="51.76" y2="22.34" />
<line fill="none" stroke="#5674b9" stroke-width="0.04mm" stroke-dasharray="0.4,0.2" x1="52.93" y1="23.04" x2="51.50" y2="23.96" />
<line fill="none" stroke="#5674b9" stroke-width="0.04mm" stroke-dasharray="0.4,0.2" x1="52.93" y1="23.04" x2="48.75" y2="25.42" />
<line fill="none" stroke="#5674b9" stroke-width="0.04mm" stroke-dasharray="0.4,0.2" x1="52.93" y1="23.04" x2="48.86" y2="25.35" />
<line fill="none" stroke="#5674b9" stroke-width="0.04mm" stroke-dasharray="0.4,0.2" x1="52.93" y1="23.04" x2="48.91" y2="25.35" />
<line fill="none" stroke="#111111" stroke-width="0.04mm" x1="52.93" y1="23.04" x2="60.61" y2="25.38" />
<line fill="none" stroke="#5674b9" stroke-width="0.04mm" stroke-dasharray="0.4,0.2" x1="60.61" y1="25.38" x2="55.49" y2="23.56" />
<line fill="none" stroke="#00aeef" stroke-width="0.04mm" stroke-dasharray="0.4,0.2" x1="60.61" y1="25.38" x2="58.93" y2="24.94" />
<line fill="none" stroke="#5674b9" stroke-width="0.04mm" stroke-dasharray="0.4,0.2" x1="60.61" y1="25.38" x2="60.73" y2="25.45" />
<line fill="none" stroke="#5674b9" stroke-width="0.04mm" stroke-dasharray="0.4,0.2" x1="60.61" y1="25.38" x2="57.12" y2="24.41" />
<line fill="none" stroke="#00aeef" stroke-width="0.04mm" stroke-dasharray="0.4,0.2" x1="60.61" y1="25.38" x2="51.07" y2="22.15" />
<line fill="none" stroke="#00aeef" stroke-width="0.04mm" stroke-dasharray="0.4,0.2" x1="60.61" y1="25.38" x2="58.08" y2="24.46" />
<line fill="none" stroke="#00aeef" stroke-width="0.04mm" stroke-dasharray="0.4,0.2" x1="60.61" y1="25.38" x2="59.11" y2="24.63" />
<line fill="none" stroke="#00aeef" stroke-width="0.04mm" stroke-dasharray="0.4,0.2" x1="60.61" y1="25.38" x2="60.93" y2="25.21" />
<line fill="none" stroke="#00aeef" stroke-width="0.04mm" stroke-dasharray="0.4,0.2" x1="60.61" y1="25.38" x2="63.48" y2="25.94" />
<line fill="none" stroke="#00aeef" stroke-width="0.04mm" stroke-dasharray="0.4,0.2" x1="60.61" y1="25.38" x2="63.65" y2="26.27" />
<line fill="none" stroke="#5674b9" stroke-width="0.04mm" stroke-dasharray="0.4,0.2" x1="60.61" y1="25.38" x2="56.99" y2="24.20" />
<line fill="none" stroke="#00aeef" stroke-width="0.04mm" stroke-dasharray="0.4,0.2" x1="60.61" y1="25.38" x2="60.61" y2="26.39" />
<line fill="none" stroke="#00aeef" stroke-width="0.04mm" stroke-dasharray="0.4,0.2" x1="60.61" y1="25.38" x2="60.39" y2="26.79" />
<line fill="none" stroke="#00aeef" stroke-width="0.04mm" stroke-dasharray="0.4,0.2" x1="60.61" y1="25.38" x2="60.43" y2="24.84" />
<line fill="none" stroke="#00aeef" stroke-width="0.04mm" stroke-dasharray="0.4,0.2" x1="60.61" y1="25.38" x2="59.81" y2="24.00" />
<line fill="none" stroke="#111111" stroke-width="0.04mm" x1="60.61" y1="25.38" x2="78.36" y2="29.69" />
<line fill="none" stroke="#00aeef" stroke-width="0.04mm" stroke-dasharray="0.4,0.2" x1="78.36" y1="29.69" x2="78.00" y2="28.80" />
<line fill="none" stroke="#5674b9" stroke-width="0.04mm" stroke-dasharray="0.4,0.2" x1="78.36" y1="29.69" x2="78.49" y2="31.29" />
<line fill="none" stroke="#00aeef" stroke-width="0.04mm" stroke-dasharray="0.4,0.2" x1="78.36" y1="29.69" x2="77.58" y2="30.97" />
<line fill="none" stroke="#00aeef" stroke-width="0.04mm" stroke-dasharray="0.4,0.2" x1="78.36" y1="29.69" x2="78.06" y2="28.76" />
<line fill="none" stroke="#00aeef" stroke-width="0.04mm" stroke-dasharray="0.4,0.2" x1="78.36" y1="29.69" x2="78.41" y2="31.30" />
<line fill="none" stroke="#5674b9" stroke-width="0.04mm" stroke-dasharray="0.4,0.2" x1="78.36" y1="29.69" x2="78.30" y2="29.33" />
<line fill="none" stroke="#00aeef" stroke-width="0.04mm" stroke-dasharray="0.4,0.2" x1="78.36" y1="29.69" x2="77.99" y2="28.88" />
<line fill="none" stroke="#111111" stroke-width="0.04mm" x1="78.36" y1="29.69" x2="82.52" y2="28.56" />
<line fill="none" stroke="#00aeef" stroke-width="0.04mm" stroke-dasharray="0.4,0.2" x1="82.52" y1="28.56" x2="81.39" y2="28.73" />
<line fill="none" stroke="#5674b9" stroke-width="0.04mm" stroke-dasharray="0.4,0.2" x1="82.52" y1="28.56" x2="82.97" y2="28.81" />
<line fill="none" stroke="#5674b9" stroke-width="0.04mm" stroke-dasharray="0.4,0.2" x1="82.52" y1="28.56" x2="83.39" y2="29.51" />
<line fill="none" stroke="#00aeef" stroke-width="0.04mm" stroke-dasharray="0.4,0.2" x1="82.52" y1="28.56" x2="83.41" y2="28.52" />
<line fill="none" stroke="#5674b9" stroke-width="0.04mm" stroke-dasharray="0.4,0.2" x1="82.52" y1="28.56" x2="77.46" y2="31.79" />
<line fill="none" stroke="#5674b9" stroke-width="0.04mm" stroke-dasharray="0.4,0.2" x1="82.52" y1="28.56" x2="77.68" y2="31.10" />
<line fill="none" stroke="#5674b9" stroke-width="0.04mm" stroke-dasharray="0.4,0.2" x1="82.52" y1="28.56" x2="76.07" y2="32.43" />
<line fill="none" stroke="#5674b9" stroke-width="0.04mm" stroke-dasharray="0.4,0.2" x1="82.52" y1="28.56" x2="77.93" y2="31.36" />
<line fill="none" stroke="#5674b9" stroke-width="0.04mm" stroke-dasharray="0.4,0.2" x1="82.52" y1="28.56" x2="77.91" y2="30.55" />
<line fill="none" stroke="#5674b9" stroke-width="0.04mm" stroke-dasharray="0.4,0.2" x1="82.52" y1="28.56" x2="77.60" y2="31.80" />
<line fill="none" stroke="#5674b9" stroke-width="0.04mm" stroke-dasharray="0.4,0.2" x1="82.52" y1="28.56" x2="82.57" y2="30.29" />
<line fill="none" stroke="#5674b9" stroke-width="0.04mm" stroke-dasharray="0.4,0.2" x1="82.52" y1="28.56" x2="83.06" y2="30.05" />
<line fill="none" stroke="#5674b9" stroke-width="0.04mm" stroke-dasharray="0.4,0.2" x1="82.52" y1="28.56" x2="77.82" y2="32.32" />
<line fill="none" stroke="#5674b9" stroke-width="0.04mm" stroke-dasharray="0.4,0.2" x1="82.52" y1="28.56" x2="77.82" y2="31.15" />
<line fill="none" stroke="#5674b9" stroke-width="0.04mm" stroke-dasharray="0.4,0.2" x1="82.52" y1="28.56" x2="88.87" y2="28.05" />
<line fill="none" stroke="#111111" stroke-width="0.04mm" x1="82.52" y1="28.56" x2="91.97" y2="27.83" />
<line fill="none" stroke="#00aeef" stroke-width="0.04mm" stroke-dasharray="0.4,0.2" x1="91.97" y1="27.83" x2="92.89" y2="27.32" />
<line fill="none" stroke="#00aeef" stroke-width="0.04mm" stroke-dasharray="0.4,0.2" x1="91.97" y1="27.83" x2="94.76" y2="26.71" />
<line fill="none" stroke="#5674b9" stroke-width="0.04mm" stroke-dasharray="0.4,0.2" x1="91.97" y1="27.83" x2="99.23" y2="27.04" />
<line fill="none" stroke="#5674b9" stroke-width="0.04mm" stroke-dasharray="0.4,0.2" x1="91.97" y1="27.83" x2="93.07" y2="27.61" />
<line fill="none" stroke="#00aeef" stroke-width="0.04mm" stroke-dasharray="0.4,0.2" x1="91.97" y1="27.83" x2="91.95" y2="27.84" />
<line fill="none" stroke="#00aeef" stroke-width="0.04mm" stroke-dasharray="0.4,0.2" x1="91.97" y1="27.83" x2="91.86" y2="28.28" />
<line fill="none" stroke="#00aeef" stroke-width="0.04mm" stroke-dasharray="0.4,0.2" x1="91.97" y1="27.83" x2="91.94" y2="28.78" />
<line fill="none" stroke="#5674b9" stroke-width="0.04mm" stroke-dasharray="0.4,0.2" x1="91.97" y1="27.83" x2="92.58" y2="27.19" />
<line fill="none" stroke="#111111" stroke-width="0.04mm" x1="91.97" y1="27.83" x2="99.38" y2="27.72" />
<line fill="none" stroke="#00aeef" stroke-width="0.04mm" stroke-dasharray="0.4,0.2" x1="99.38" y1="27.72" x2="106.77" y2="27.59" />
<line fill="none" stroke="#00aeef" stroke-width="0.04mm" stroke-dasharray="0.4,0.2" x1="99.38" y1="27.72" x2="106.77" y2="27.60" />
<line fill="none" stroke="#5674b9" stroke-width="0.04mm" stroke-dasharray="0.4,0.2" x1="99.38" y1="27.72" x2="99.33" y2="26.98" />
<line fill="none" stroke="#00aeef" stroke-width="0.04mm" stroke-dasharray="0.4,0.2" x1="99.38" y1="27.72" x2="99.34" y2="28.38" />
<line fill="none" stroke="#5674b9" stroke-width="0.04mm" stroke-dasharray="0.4,0.2" x1="99.38" y1="27.72" x2="97.31" y2="27.79" />
<line fill="none" stroke="#5674b9" stroke-width="0.04mm" stroke-dasharray="0.4,0.2" x1="99.38" y1="27.72" x2="96.61" y2="27.44" />
<line fill="none" stroke="#00aeef" stroke-width="0.04mm" stroke-dasharray="0.4,0.2" x1="99.38" y1="27.72" x2="98.56" y2="26.91" />
<line fill="none" stroke="#00aeef" stroke-width="0.04mm" stroke-dasharray="0.4,0.2" x1="99.38" y1="27.72" x2="95.85" y2="26.75" />
<line fill="none" stroke="#5674b9" stroke-width="0.04mm" stroke-dasharray="0.4,0.2" x1="99.38" y1="27.72" x2="99.22" y2="26.87" />
<line fill="none" stroke="#00aeef" stroke-width="0.04mm" stroke-dasharray="0.4,0.2" x1="99.38" y1="27.72" x2="99.34" y2="28.30" />
<line fill="none" stroke="#111111" stroke-width="0.04mm" x1="99.38" y1="27.72" x2="108.01" y2="29.49" />
<line fill="none" stroke="#5674b9" stroke-width="0.04mm" stroke-dasharray="0.4,0.2" x1="108.01" y1="29.49" x2="108.18" y2="28.87" />
<line fill="none" stroke="#5674b9" stroke-width="0.04mm" stroke-dasharray="0.4,0.2" x1="108.01" y1="29.49" x2="109.48" y2="28.86" />
<line fill="none" stroke="#5674b9" stroke-width="0.04mm" stroke-dasharray="0.4,0.2" x1="108.01" y1="29.49" x2="109.88" y2="29.10" />
<line fill="none" stroke="#5674b9" stroke-width="0.04mm" stroke-dasharray="0.4,0.2" x1="108.01" y1="29.49" x2="106.56" y2="28.82" />
<line fill="none" stroke="#5674b9" stroke-width="0.04mm" stroke-dasharray="0.4,0.2" x1="108.01" y1="29.49" x2="108.06" y2="27.51" />
<line fill="none" stroke="#5674b9" stroke-width="0.04mm" stroke-dasharray="0.4,0.2" x1="108.01" y1="29.49" x2="107.74" y2="27.74" />
<line fill="none" stroke="#5674b9" stroke-width="0.04mm" stroke-dasharray="0.4,0.2" x1="108.01" y1="29.49" x2="108.23" y2="30.42" />
<line fill="none" stroke="#111111" stroke-width="0.04mm" x1="108.01" y1="29.49" x2="116.20" y2="31.52" />
<line fill="none" stroke="#5674b9" stroke-width="0.04mm" stroke-dasharray="0.4,0.2" x1="116.20" y1="31.52" x2="114.02" y2="31.26" />
<line fill="none" stroke="#5674b9" stroke-width="0.04mm" stroke-dasharray="0.4,0.2" x1="116.20" y1="31.52" x2="115.73" y2="31.26" />
<line fill="none" stroke="#5674b9" stroke-width="0.04mm" stroke-dasharray="0.4,0.2" x1="116.20" y1="31.52" x2="116.90" y2="31.34" />
<line fill="none" stroke="#5674b9" stroke-width="0.04mm" stroke-dasharray="0.4,0.2" x1="116.20" y1="31.52" x2="114.63" y2="30.99" />
<line fill="none" stroke="#5674b9" stroke-width="0.04mm" stroke-dasharray="0.4,0.2" x1="116.20" y1="31.52" x2="114.64" y2="30.93" />
<line fill="none" stroke="#5674b9" stroke-width="0.04mm" stroke-dasharray="0.4,0.2" x1="116.20" y1="31.52" x2="115.98" y2="30.96" />
<line fill="none" stroke="#00aeef" stroke-width="0.04mm" stroke-dasharray="0.4,0.2" x1="116.20" y1="31.52" x2="115.46" y2="31.81" />
<line fill="none" stroke="#5674b9" stroke-width="0.04mm" stroke-dasharray="0.4,0.2" x1="116.20" y1="31.52" x2="115.07" y2="30.46" />
<line fill="none" stroke="#5674b9" stroke-width="0.04mm" stroke-dasharray="0.4,0.2" x1="116.20" y1="31.52" x2="116.89" y2="31.00" />
<line fill="none" stroke="#5674b9" stroke-width="0.04mm" stroke-dasharray="0.4,0.2" x1="116.20" y1="31.52" x2="116.50" y2="30.25" />
<line fill="none" stroke="#5674b9" stroke-width="0.04mm" stroke-dasharray="0.4,0.2" opacity="0.65" x1="116.20" y1="31.52" x2="116.15" y2="31.93" />
<line fill="none" stroke="#5674b9" stroke-width="0.04mm" stroke-dasharray="0.4,0.2" x1="116.20" y1="31.52" x2="115.40" y2="31.30" />
<line fill="none" stroke="#5674b9" stroke-width="0.04mm" stroke-dasharray="0.4,0.2" x1="116.20" y1="31.52" x2="116.75" y2="30.33" />
<line fill="none" stroke="#00aeef" stroke-width="0.04mm" stroke-dasharray="0.4,0.2" x1="116.20" y1="31.52" x2="116.35" y2="32.88" />
<line fill="none" stroke="#00aeef" stroke-width="0.04mm" stroke-dasharray="0.4,0.2" x1="116.20" y1="31.52" x2="116.15" y2="30.59" />
<line fill="none" stroke="#00aeef" stroke-width="0.04mm" stroke-dasharray="0.4,0.2" x1="116.20" y1="31.52" x2="116.42" y2="30.14" />
<line fill="none" stroke="#111111" stroke-width="0.04mm" x1="116.20" y1="31.52" x2="119.60" y2="31.58" />
<line fill="none" stroke="#5674b9" stroke-width="0.04mm" stroke-dasharray="0.4,0.2" x1="119.60" y1="31.58" x2="118.38" y2="31.73" />
<line fill="none" stroke="#00aeef" stroke-width="0.04mm" stroke-dasharray="0.4,0.2" x1="119.60" y1="31.58" x2="120.67" y2="31.57" />
<line fill="none" stroke="#00aeef" stroke-width="0.04mm" stroke-dasharray="0.4,0.2" x1="119.60" y1="31.58" x2="120.89" y2="32.66" />
<line fill="none" stroke="#00aeef" stroke-width="0.04mm" stroke-dasharray="0.4,0.2" x1="119.60" y1="31.58" x2="120.65" y2="33.82" />
<line fill="none" stroke="#00aeef" stroke-width="0.04mm" stroke-dasharray="0.4,0.2" x1="119.60" y1="31.58" x2="119.79" y2="33.96" />
<line fill="none" stroke="#5674b9" stroke-width="0.04mm" stroke-dasharray="0.4,0.2" x1="119.60" y1="31.58" x2="118.54" y2="33.95" />
<line fill="none" stroke="#111111" stroke-width="0.04mm" x1="119.60" y1="31.58" x2="124.58" y2="34.86" />
<line fill="none" stroke="#00aeef" stroke-width="0.04mm" stroke-dasharray="0.4,0.2" x1="124.58" y1="34.86" x2="124.15" y2="34.46" />
<line fill="none" stroke="#00aeef" stroke-width="0.04mm" stroke-dasharray="0.4,0.2" x1="124.58" y1="34.86" x2="124.72" y2="34.76" />
<line fill="none" stroke="#00aeef" stroke-width="0.04mm" stroke-dasharray="0.4,0.2" x1="124.58" y1="34.86" x2="126.52" y2="34.99" />
<line fill="none" stroke="#00aeef" stroke-width="0.04mm" stroke-dasharray="0.4,0.2" x1="124.58" y1="34.86" x2="121.82" y2="32.93" />
<line fill="none" stroke="#00aeef" stroke-width="0.04mm" stroke-dasharray="0.4,0.2" x1="124.58" y1="34.86" x2="124.48" y2="35.47" />
<line fill="none" stroke="#00aeef" stroke-width="0.04mm" stroke-dasharray="0.4,0.2" x1="124.58" y1="34.86" x2="124.76" y2="33.36" />
<line fill="none" stroke="#00aeef" stroke-width="0.04mm" stroke-dasharray="0.4,0.2" x1="124.58" y1="34.86" x2="124.70" y2="35.89" />
<line fill="none" stroke="#111111" stroke-width="0.04mm" x1="124.58" y1="34.86" x2="138.46" y2="39.76" />
<line fill="none" stroke="#5674b9" stroke-width="0.04mm" stroke-dasharray="0.4,0.2" x1="138.46" y1="39.76" x2="138.11" y2="39.54" />
<line fill="none" stroke="#00aeef" stroke-width="0.04mm" stroke-dasharray="0.4,0.2" x1="138.46" y1="39.76" x2="137.26" y2="39.35" />
<line fill="none" stroke="#5674b9" stroke-width="0.04mm" stroke-dasharray="0.4,0.2" x1="138.46" y1="39.76" x2="140.03" y2="40.13" />
<line fill="none" stroke="#5674b9" stroke-width="0.04mm" stroke-dasharray="0.4,0.2" x1="138.46" y1="39.76" x2="137.40" y2="39.13" />
<line fill="none" stroke="#5674b9" stroke-width="0.04mm" stroke-dasharray="0.4,0.2" x1="138.46" y1="39.76" x2="138.79" y2="38.13" />
<line fill="none" stroke="#5674b9" stroke-width="0.04mm" stroke-dasharray="0.4,0.2" x1="138.46" y1="39.76" x2="139.95" y2="35.43" />
<line fill="none" stroke="#00aeef" stroke-width="0.04mm" stroke-dasharray="0.4,0.2" x1="138.46" y1="39.76" x2="138.30" y2="40.63" />
<line fill="none" stroke="#5674b9" stroke-width="0.04mm" stroke-dasharray="0.4,0.2" x1="138.46" y1="39.76" x2="138.04" y2="40.95" />
<line fill="none" stroke="#5674b9" stroke-width="0.04mm" stroke-dasharray="0.4,0.2" x1="138.46" y1="39.76" x2="138.30" y2="39.51" />
<line fill="none" stroke="#5674b9" stroke-width="0.04mm" stroke-dasharray="0.4,0.2" x1="138.46" y1="39.76" x2="138.35" y2="38.39" />
<line fill="none" stroke="#5674b9" stroke-width="0.04mm" stroke-dasharray="0.4,0.2" x1="138.46" y1="39.76" x2="138.50" y2="40.86" />
<line fill="none" stroke="#5674b9" stroke-width="0.04mm" stroke-dasharray="0.4,0.2" x1="138.46" y1="39.76" x2="139.08" y2="37.86" />
<line fill="none" stroke="#5674b9" stroke-width="0.04mm" stroke-dasharray="0.4,0.2" x1="138.46" y1="39.76" x2="139.40" y2="35.45" />
<line fill="none" stroke="#5674b9" stroke-width="0.04mm" stroke-dasharray="0.4,0.2" x1="138.46" y1="39.76" x2="138.39" y2="37.30" />
<line fill="none" stroke="#5674b9" stroke-width="0.04mm" stroke-dasharray="0.4,0.2" x1="138.46" y1="39.76" x2="139.71" y2="35.03" />
<line fill="none" stroke="#111111" stroke-width="0.04mm" x1="138.46" y1="39.76" x2="144.92" y2="41.68" />
<line fill="none" stroke="#5674b9" stroke-width="0.04mm" stroke-dasharray="0.4,0.2" x1="144.92" y1="41.68" x2="142.59" y2="41.77" />
<line fill="none" stroke="#5674b9" stroke-width="0.04mm" stroke-dasharray="0.4,0.2" x1="144.92" y1="41.68" x2="143.95" y2="42.57" />
<line fill="none" stroke="#00aeef" stroke-width="0.04mm" stroke-dasharray="0.4,0.2" x1="144.92" y1="41.68" x2="139.73" y2="40.37" />
<line fill="none" stroke="#5674b9" stroke-width="0.04mm" stroke-dasharray="0.4,0.2" x1="144.92" y1="41.68" x2="142.12" y2="41.60" />
<line fill="none" stroke="#00aeef" stroke-width="0.04mm" stroke-dasharray="0.4,0.2" x1="144.92" y1="41.68" x2="140.68" y2="40.62" />
<line fill="none" stroke="#5674b9" stroke-width="0.04mm" stroke-dasharray="0.4,0.2" x1="144.92" y1="41.68" x2="143.43" y2="40.13" />
<line fill="none" stroke="#00aeef" stroke-width="0.04mm" stroke-dasharray="0.4,0.2" x1="144.92" y1="41.68" x2="144.98" y2="43.71" />
<line fill="none" stroke="#5674b9" stroke-width="0.04mm" stroke-dasharray="0.4,0.2" x1="144.92" y1="41.68" x2="143.19" y2="47.61" />
<line fill="none" stroke="#5674b9" stroke-width="0.04mm" stroke-dasharray="0.4,0.2" x1="144.92" y1="41.68" x2="143.04" y2="47.16" />
<line fill="none" stroke="#5674b9" stroke-width="0.04mm" stroke-dasharray="0.4,0.2" x1="144.92" y1="41.68" x2="144.75" y2="47.68" />
<line fill="none" stroke="#5674b9" stroke-width="0.04mm" stroke-dasharray="0.4,0.2" x1="144.92" y1="41.68" x2="144.62" y2="44.35" />
<line fill="none" stroke="#5674b9" stroke-width="0.04mm" stroke-dasharray="0.4,0.2" x1="144.92" y1="41.68" x2="142.86" y2="43.35" />
<line fill="none" stroke="#5674b9" stroke-width="0.04mm" stroke-dasharray="0.4,0.2" x1="144.92" y1="41.68" x2="142.96" y2="44.01" />
<line fill="none" stroke="#111111" stroke-width="0.04mm" x1="144.92" y1="41.68" x2="148.50" y2="45.86" />
<line fill="none" stroke="#5674b9" stroke-width="0.04mm" stroke-dasharray="0.4,0.2" x1="148.50" y1="45.86" x2="149.05" y2="45.68" />
<line fill="none" stroke="#5674b9" stroke-width="0.04mm" stroke-dasharray="0.4,0.2" x1="148.50" y1="45.86" x2="147.63" y2="45.77" />
<line fill="none" stroke="#5674b9" stroke-width="0.04mm" stroke-dasharray="0.4,0.2" x1="148.50" y1="45.86" x2="145.91" y2="45.62" />
<line fill="none" stroke="#00aeef" stroke-width="0.04mm" stroke-dasharray="0.4,0.2" x1="148.50" y1="45.86" x2="147.65" y2="45.98" />
<line fill="none" stroke="#00aeef" stroke-width="0.04mm" stroke-dasharray="0.4,0.2" x1="148.50" y1="45.86" x2="144.05" y2="47.35" />
<line fill="none" stroke="#5674b9" stroke-width="0.04mm" stroke-dasharray="0.4,0.2" x1="148.50" y1="45.86" x2="145.94" y2="45.12" />
<line fill="none" stroke="#5674b9" stroke-width="0.04mm" stroke-dasharray="0.4,0.2" x1="148.50" y1="45.86" x2="147.32" y2="44.73" />
<line fill="none" stroke="#5674b9" stroke-width="0.04mm" stroke-dasharray="0.4,0.2" x1="148.50" y1="45.86" x2="147.76" y2="45.08" />
<line fill="none" stroke="#00aeef" stroke-width="0.04mm" stroke-dasharray="0.4,0.2" x1="148.50" y1="45.86" x2="146.46" y2="44.66" />
<line fill="none" stroke="#00aeef" stroke-width="0.04mm" stroke-dasharray="0.4,0.2" x1="148.50" y1="45.86" x2="148.38" y2="42.53" />
<line fill="none" stroke="#5674b9" stroke-width="0.04mm" stroke-dasharray="0.4,0.2" x1="148.50" y1="45.86" x2="147.86" y2="47.65" />
<line fill="none" stroke="#5674b9" stroke-width="0.04mm" stroke-dasharray="0.4,0.2" x1="148.50" y1="45.86" x2="148.55" y2="47.65" />
<line fill="none" stroke="#5674b9" stroke-width="0.04mm" stroke-dasharray="0.4,0.2" x1="148.50" y1="45.86" x2="147.14" y2="47.51" />
<line fill="none" stroke="#111111" stroke-width="0.04mm" x1="148.50" y1="45.86" x2="153.52" y2="47.76" />
<line fill="none" stroke="#00aeef" stroke-width="0.04mm" stroke-dasharray="0.4,0.2" x1="153.52" y1="47.76" x2="158.54" y2="49.69" />
<line fill="none" stroke="#00aeef" stroke-width="0.04mm" stroke-dasharray="0.4,0.2" x1="153.52" y1="47.76" x2="155.09" y2="47.39" />
<line fill="none" stroke="#5674b9" stroke-width="0.04mm" stroke-dasharray="0.4,0.2" x1="153.52" y1="47.76" x2="151.59" y2="47.80" />
<line fill="none" stroke="#5674b9" stroke-width="0.04mm" stroke-dasharray="0.4,0.2" x1="153.52" y1="47.76" x2="152.88" y2="46.06" />
<line fill="none" stroke="#5674b9" stroke-width="0.04mm" stroke-dasharray="0.4,0.2" x1="153.52" y1="47.76" x2="152.31" y2="48.53" />
<line fill="none" stroke="#5674b9" stroke-width="0.04mm" stroke-dasharray="0.4,0.2" x1="153.52" y1="47.76" x2="151.56" y2="47.09" />
<line fill="none" stroke="#5674b9" stroke-width="0.04mm" stroke-dasharray="0.4,0.2" x1="153.52" y1="47.76" x2="155.30" y2="49.87" />
<line fill="none" stroke="#5674b9" stroke-width="0.04mm" stroke-dasharray="0.4,0.2" x1="153.52" y1="47.76" x2="153.58" y2="45.63" />
<line fill="none" stroke="#5674b9" stroke-width="0.04mm" stroke-dasharray="0.4,0.2" x1="153.52" y1="47.76" x2="152.32" y2="48.31" />
<line fill="none" stroke="#111111" stroke-width="0.04mm" x1="153.52" y1="47.76" x2="161.29" y2="50.91" />
<line fill="none" stroke="#5674b9" stroke-width="0.04mm" stroke-dasharray="0.4,0.2" x1="161.29" y1="50.91" x2="161.48" y2="50.88" />
<line fill="none" stroke="#5674b9" stroke-width="0.04mm" stroke-dasharray="0.4,0.2" x1="161.29" y1="50.91" x2="161.58" y2="49.99" />
<line fill="none" stroke="#5674b9" stroke-width="0.04mm" stroke-dasharray="0.4,0.2" x1="161.29" y1="50.91" x2="159.48" y2="50.14" />
<line fill="none" stroke="#5674b9" stroke-width="0.04mm" stroke-dasharray="0.4,0.2" x1="161.29" y1="50.91" x2="164.72" y2="51.28" />
<line fill="none" stroke="#00aeef" stroke-width="0.04mm" stroke-dasharray="0.4,0.2" x1="161.29" y1="50.91" x2="158.13" y2="49.58" />
<line fill="none" stroke="#5674b9" stroke-width="0.04mm" stroke-dasharray="0.4,0.2" x1="161.29" y1="50.91" x2="164.23" y2="51.23" />
<line fill="none" stroke="#5674b9" stroke-width="0.04mm" stroke-dasharray="0.4,0.2" x1="161.29" y1="50.91" x2="162.40" y2="50.83" />
<line fill="none" stroke="#5674b9" stroke-width="0.04mm" stroke-dasharray="0.4,0.2" x1="161.29" y1="50.91" x2="166.95" y2="51.45" />
<line fill="none" stroke="#5674b9" stroke-width="0.04mm" stroke-dasharray="0.4,0.2" x1="161.29" y1="50.91" x2="161.38" y2="49.93" />
<line fill="none" stroke="#5674b9" stroke-width="0.04mm" stroke-dasharray="0.4,0.2" x1="161.29" y1="50.91" x2="161.41" y2="51.48" />
</g>
<g>
<circle cx="20.00" cy="20.00" r="0.1" fill="#111111" />
<circle cx="27.64" cy="22.27" r="0.1" fill="#111111" />
<circle cx="32.41" cy="23.63" r="0.1" fill="#111111" />
<circle cx="43.51" cy="24.73" r="0.1" fill="#111111" />
<circle cx="48.66" cy="24.22" r="0.1" fill="#111111" />
<circle cx="52.93" cy="23.04" r="0.1" fill="#111111" />
<circle cx="60.61" cy="25.38" r="0.1" fill="#111111" />
<circle cx="78.36" cy="29.69" r="0.1" fill="#111111" />
<circle cx="82.52" cy="28.56" r="0.1" fill="#111111" />
<circle cx="91.97" cy="27.83" r="0.1" fill="#111111" />
<circle cx="99.38" cy="27.72" r="0.1" fill="#111111" />
<circle cx="108.01" cy="29.49" r="0.1" fill="#111111" />
<circle cx="116.20" cy="31.52" r="0.1" fill="#111111" />
<circle cx="119.60" cy="31.58" r="0.1" fill="#111111" />
<circle cx="124.58" cy="34.86" r="0.1" fill="#111111" />
<circle cx="138.46" cy="39.76" r="0.1" fill="#111111" />
<circle cx="144.92" cy="41.68" r="0.1" fill="#111111" />
<circle cx="148.50" cy="45.86" r="0.1" fill="#111111" />
<circle cx="153.52" cy="47.76" r="0.1" fill="#111111" />
<circle cx="161.29" cy="50.91" r="0.1" fill="#111111" />
</g>
<g>
<text x="20.20" y="20.00" font-size=".2mm" fill="#000000">0</text>
<text x="27.84" y="22.27" font-size=".2mm" fill="#000000">1</text>
<text x="32.61" y="23.63" font-size=".2mm" fill="#000000">2</text>
<text x="43.71" y="24.73" font-size=".2mm" fill="#000000">3</text>
<text x="48.86" y="24.22" font-size=".2mm" fill="#000000">4</text>
<text x="53.13" y="23.04" font-size=".2mm" fill="#000000">5</text>
<text x="60.81" y="25.38" font-size=".2mm" fill="#000000">6</text>
<text x="78.56" y="29.69" font-size=".2mm" fill="#000000">7</text>
<text x="82.72" y="28.56" font-size=".2mm" fill="#000000">8</text>
<text x="92.17" y="27.83" font-size=".2mm" fill="#000000">9</text>
<text x="99.58" y="27.72" font-size=".2mm" fill="#000000">10</text>
<text x="108.21" y="29.49" font-size=".2mm" fill="#000000">11</text>
<text x="116.40" y="31.52" font-size=".2mm" fill="#000000">12</text>
<text x="119.80" y="31.58" font-size=".2mm" fill="#000000">13</text>
<text x="124.78" y="34.86" font-size=".2mm" fill="#000000">14</text>
<text x="138.66" y="39.76" font-size=".2mm" fill="#000000">15</text>
<text x="145.12" y="41.68" font-size=".2mm" fill="#000000">16</text>
<text x="148.70" y="45.86" font-size=".2mm" fill="#000000">17</text>
<text x="153.72" y="47.76" font-size=".2mm" fill="#000000">18</text>
<text x="161.49" y="50.91" font-size=".2mm" fill="#000000">19</text>
</g>
<g>
</g>
</g>
</svg>