<?xml version="1.0" encoding="utf-8"?>
<!DOCTYPE svg PUBLIC "-//W3C//DTD SVG 1.1//EN" "http://www.w3.org/Graphics/SVG/1.1/DTD/svg11.dtd">
<svg version="1.1" id="Layer_1" xmlns="http://www.w3.org/2000/svg" xmlns:xlink="http://www.w3.org/1999/xlink" x="0px" y="0px" width="824mm" height="218mm" viewBox="0 0 824 218" style="background-color:#ffffff;enable-background:new 0 0 824 218;" xml:space="preserve">
<symbol id="airflow" viewBox="-12 -12 24 24">
<path d="M-4.38,10.73l4.2-3.84V3.55L-4.07,7.13l-.31-.29L-.18,3V-6.89a3.37,3.37,0,0,0-1.68.53l1.68-4.15L0-11l.21.51h0v0l1.65,4.1A3.26,3.26,0,0,0,.24-6.89v14l-.08,0L-4.07,11Z"/>
<rect fill="none" x="-12" y="-12" width="24" height="24"/>
</symbol>
<symbol id="anastomosis" viewBox="-12 -12 24 24">
<path d="M2.23-4.78l.37.24L5.22-2.78l-.47.57L2.49-3.7l-4.61,8-.24.44-.37-.34L-5.22,2.3l.55-.52,2.1,1.82L2-4.39Z"/>
<rect fill="none" x="-12" y="-12" width="24" height="24"/>
</symbol>
<symbol id="bivouac" viewBox="-12 -12 24 24">
<path d="M.25-7.66l.24.58L.54-7l3.88.48-3.31.91L6,6H8.35v.48l-16.7.07V6.05h2.64L0-7.08Zm0,1.32L-5.13,6H-4l2.07-5L.2-4l2.09,5L4.37,6H5.44Z"/>
<rect fill="none" x="-12" y="-12" width="24" height="24"/>
</symbol>
<symbol id="bones" viewBox="-12 -12 24 24">
<path d="M2.44,4.27l-.16,0H2.13a.22.22,0,0,1-.11,0l-.1-.06a.39.39,0,0,1-.09-.11l-.08-.13a1.51,1.51,0,0,1-.06-.15l-.07-.17s0-.11-.08-.19-.06-.16-.08-.21a4.75,4.75,0,0,0-.38-.71c-.18-.29-.43-.64-.74-1A11.15,11.15,0,0,0-.7.32,6.73,6.73,0,0,0-2-.64a4.12,4.12,0,0,0-1.44-.52A1.64,1.64,0,0,1-5-2.19.72.72,0,0,1-5-2.44a1,1,0,0,1,0-.29A.52.52,0,0,1-4.87-3a.54.54,0,0,1,.35-.15L-4-3.22l.46,0a.54.54,0,0,0,.27-.06A.52.52,0,0,0-3-3.56a.74.74,0,0,0,.13-.31.54.54,0,0,1,.15-.26.54.54,0,0,1,.3-.15.83.83,0,0,1,.47,0,1.11,1.11,0,0,1,.35.4A7.46,7.46,0,0,1-1-2.76q.18.42.33.72a3.22,3.22,0,0,0,.39.57L.1-1a4.77,4.77,0,0,0,.58.43c.28.18.51.33.69.43l1,.56a1.84,1.84,0,0,0,.39.23A5.29,5.29,0,0,1,3.22.9l.43.26a3.7,3.7,0,0,1,.46.3l.36.29a2.28,2.28,0,0,1,.31.32A1,1,0,0,1,5,2.4c.2.48,0,.78-.47.91h0a8.48,8.48,0,0,0-1.12.09,1,1,0,0,0-.42.44A1,1,0,0,1,2.44,4.27Z"/>
<rect fill="none" x="-12" y="-12" width="24" height="24"/>
</symbol>
<symbol id="calcite" viewBox="-12 -12 24 24">
<path d="M2.36-2.22l.05.46.34,3.91L2,2.22,1.65-1.26-2.52-.06l-.23-.7L1.89-2.08Z"/>
<rect fill="none" x="-12" y="-12" width="24" height="24"/>
</symbol>
<symbol id="cauliflower" viewBox="-12 -12 24 24">
<path d="M5.58,3.22v-3A2.12,2.12,0,0,0,6.92-.43a1.78,1.78,0,0,0,.55-1.32,1.92,1.92,0,0,0-.65-1.42,2.19,2.19,0,0,0-1.53-.59,2.21,2.21,0,0,0-1.54.59,1.78,1.78,0,0,0-.64,1.42A1.86,1.86,0,0,0,3.65-.43,2.12,2.12,0,0,0,5,.23v3H.26v-3A2.17,2.17,0,0,0,1.61-.43a1.81,1.81,0,0,0,.54-1.32,1.91,1.91,0,0,0-.64-1.42A2.21,2.21,0,0,0,0-3.76a2.21,2.21,0,0,0-1.54.59,1.82,1.82,0,0,0-.64,1.42A1.83,1.83,0,0,0-1.66-.43,2.12,2.12,0,0,0-.32.23v3H-5v-3A2.12,2.12,0,0,0-3.71-.43a1.78,1.78,0,0,0,.55-1.32,1.92,1.92,0,0,0-.65-1.42,2.19,2.19,0,0,0-1.53-.59,2.21,2.21,0,0,0-1.54.59,1.83,1.83,0,0,0-.65,1.42A1.87,1.87,0,0,0-7-.43,2.12,2.12,0,0,0-5.64.23v3H-8v.54H8V3.22Z"/>
<rect fill="none" x="-12" y="-12" width="24" height="24"/>
</symbol>
<symbol id="clay" viewBox="-12 -12 24 24">
<path d="M1.85-1.33a3,3,0,0,1,1.67.48,3.23,3.23,0,0,1,1,1l.29.51-1,.43a3.81,3.81,0,0,0-.23-.4A3.74,3.74,0,0,0,2.93,0,1.77,1.77,0,0,0,1.85-.32a2.57,2.57,0,0,0-1.1.15A.86.86,0,0,0,.51.14,2.23,2.23,0,0,1,0,.88a2.55,2.55,0,0,1-1.45.43,3.16,3.16,0,0,1-2.75-1,4.28,4.28,0,0,1-.37-.57,3.91,3.91,0,0,1-.21-.47l0-.16,1-.22a1.87,1.87,0,0,0,.45.79A2.12,2.12,0,0,0-1.51.33,1.82,1.82,0,0,0-.69.14l.21-.36A1.53,1.53,0,0,1,.17-1,3.76,3.76,0,0,1,1.85-1.33Z"/>
<rect fill="none" x="-12" y="-12" width="24" height="24"/>
</symbol>
<symbol id="crystals" viewBox="-12 -12 24 24">
<path d="M-2.94-5.38,0-.72,2.94-5.38,3.62-5,.68-.36H6.56V.36H.68L3.62,5l-.68.36L0,.72-2.94,5.38-3.62,5-.68.36H-6.56V-.36H-.68L-3.62-5Z"/>
<rect fill="none" x="-12" y="-12" width="24" height="24"/>
</symbol>
<symbol id="curtain" viewBox="-12 -12 24 24">
<path d="M3.57-6.69l.52.53L.39-3V-.33L.1-.26a3.79,3.79,0,0,0-1,.41c-.58.3-.87.65-.87,1v.07A1.61,1.61,0,0,0-.84,2.48a3.69,3.69,0,0,0,.45.24L0,2.86l.13.05L.39,3V6.12H-.39V3.51a7.65,7.65,0,0,1-.9-.46A2.19,2.19,0,0,1-2.54,1.28V1.23A2,2,0,0,1-1.31-.48,5.32,5.32,0,0,1-.39-.86V-3l-3.7-3.14.52-.53L0-3.67Z"/>
<rect fill="none" x="-12" y="-12" width="24" height="24"/>
</symbol>
<symbol id="disk" viewBox="-12 -12 24 24">
<path d="M-.09-4.19a2.43,2.43,0,0,1,1.7.64A2,2,0,0,1,2.35-2,2.09,2.09,0,0,1,1.81-.55,2.44,2.44,0,0,1,.35.23l2.18,3.6-.68.33L0,1.14-1.48,4.19l-.71-.29L-.41.25A2.53,2.53,0,0,1-1.9-.47a2,2,0,0,1-.63-1.41,2,2,0,0,1,.67-1.61,2.46,2.46,0,0,1,1.72-.7ZM1.05-3.06.56-3.49l-.69,0A1.72,1.72,0,0,0-1.29-3a1.51,1.51,0,0,0-.45,1.08,1.36,1.36,0,0,0,.51,1A1.68,1.68,0,0,0-.07-.44v0l0,0A1.7,1.7,0,0,0,1.11-.92,1.36,1.36,0,0,0,1.56-2,1.47,1.47,0,0,0,1.05-3.06Z"/>
<rect fill="none" x="-12" y="-12" width="24" height="24"/>
</symbol>
<symbol id="entrance" viewBox="-12 -12 24 24">
<path d="M4.46,9H-4.46L0-9Z"/>
<rect fill="none" x="-12" y="-12" width="24" height="24"/>
</symbol>
<symbol id="flowstone" viewBox="-12 -12 24 24">
<rect x="-6" y="-0.21" width="12" height="0.42"/>
<rect fill="none" x="-12" y="-12" width="24" height="24"/>
</symbol>
<symbol id="flutes" viewBox="-12 -12 24 24">
<path d="M-7-1H7v.72H3.87A4.7,4.7,0,0,1,2.16,1.5,4.2,4.2,0,0,1,0,2.13,3.94,3.94,0,0,1-2.19,1.5,4.18,4.18,0,0,1-3.76-.27H-7Zm4.17.72A3.15,3.15,0,0,0-1.65,1,3.21,3.21,0,0,0,0,1.41,3.49,3.49,0,0,0,1.6,1,3.68,3.68,0,0,0,3-.27Z"/>
<rect fill="none" x="-12" y="-12" width="24" height="24"/>
</symbol>
<symbol id="gradient" viewBox="-12 -12 24 24">
<path d="M2.58-3.83,0-10-2.58-3.83A4.74,4.74,0,0,1-.17-4.5V10H.25V-4.5A6.65,6.65,0,0,1,2.58-3.83Z"/>
<rect fill="none" x="-12" y="-12" width="24" height="24"/>
</symbol>
<symbol id="guano" viewBox="-12 -12 24 24">
<path d="M-3.24-3a2.15,2.15,0,0,1,1.57.55A3.93,3.93,0,0,1-.59.24a4.32,4.32,0,0,1,2.75-2.3,2.68,2.68,0,0,1,2.23.36A2.36,2.36,0,0,1,5.5.19l-.79,0a1.72,1.72,0,0,0-.79-1.37,1.94,1.94,0,0,0-1.55-.24A3.53,3.53,0,0,0,.48,0,6.63,6.63,0,0,0-.69,3l-.79-.09a10.72,10.72,0,0,0,0-3.16A3.21,3.21,0,0,0-2.22-2,1.44,1.44,0,0,0-3.37-2.3,3.45,3.45,0,0,0-5-1.54l-.5-.55a4.29,4.29,0,0,1,2-.91A.9.9,0,0,1-3.24-3Z"/>
<rect fill="none" x="-12" y="-12" width="24" height="24"/>
</symbol>
<symbol id="helictites" viewBox="-12 -12 24 24">
<path d="M-4.59-7.92h.79v7.7l3.41,0V-7.92H.39V-.17L4.2-.12h.39v8H3.8V.6L.39.55V7.92H-.39V.55L-4.2.5l-.39,0v-8.4Z"/>
<rect fill="none" x="-12" y="-12" width="24" height="24"/>
</symbol>
<symbol id="human" viewBox="-12 -12 24 24">
<path d="M-3.59-3.29A5.13,5.13,0,0,1,0-4.66,5.13,5.13,0,0,1,3.59-3.29,4.3,4.3,0,0,1,5.09,0a4.3,4.3,0,0,1-1.5,3.29A5.13,5.13,0,0,1,0,4.66,5.13,5.13,0,0,1-3.59,3.29,4.3,4.3,0,0,1-5.09,0,4.3,4.3,0,0,1-3.59-3.29Zm.28.77A3.68,3.68,0,0,0-4.3,0a3.62,3.62,0,0,0,1,2.57L-.5.05ZM0-3.94A4.42,4.42,0,0,0-2.75-3L.16-.36H4.28A3.62,3.62,0,0,0,2.91-2.9,4.38,4.38,0,0,0,0-3.94ZM.16.46-2.7,3.07A4.42,4.42,0,0,0,0,3.94a4.37,4.37,0,0,0,2.87-1A3.78,3.78,0,0,0,4.28.46Z"/>
<rect fill="none" x="-12" y="-12" width="24" height="24"/>
</symbol>
<symbol id="karren" viewBox="-12 -12 24 24">
<path d="M1-5.84h0a1.37,1.37,0,0,1,1.06.68A3.33,3.33,0,0,1,2.5-3.79,25.79,25.79,0,0,1,2.36,0a18.61,18.61,0,0,0-.08,3.72,2.68,2.68,0,0,0,.41,1.2,1.13,1.13,0,0,0,.79.5A.92.92,0,0,0,4,4.94a4.43,4.43,0,0,0,.47-1.22c.16-.64.36-1.86.59-3.66a26.71,26.71,0,0,1,.64-3.69,4.62,4.62,0,0,1,.57-1.29,1.34,1.34,0,0,1,1-.59h0A1.28,1.28,0,0,1,8.37-5a2.17,2.17,0,0,1,.39,1.15A19.91,19.91,0,0,1,8.54-.53a21.51,21.51,0,0,0-.2,3.64A2.64,2.64,0,0,0,9.45,5.36,1.91,1.91,0,0,0,10.88,5a3.84,3.84,0,0,0,.7-1l.42.2-.1.18-.12.21-.11.18L11.52,5a.94.94,0,0,1-.14.16c-.06.07-.13.12-.19.18a2.5,2.5,0,0,1-1.85.41H9.29l0,0A3.06,3.06,0,0,1,7.87,3.13a22.11,22.11,0,0,1,.2-3.7,18.17,18.17,0,0,0,.22-3.28A1.85,1.85,0,0,0,8-4.79a.77.77,0,0,0-.67-.3.93.93,0,0,0-.64.42,4.51,4.51,0,0,0-.51,1.15A26.26,26.26,0,0,0,5.54.1c-.24,1.83-.45,3.07-.61,3.72a5.38,5.38,0,0,1-.51,1.34,1.33,1.33,0,0,1-.89.68H3.47A1.58,1.58,0,0,1,2.3,5.16a3.29,3.29,0,0,1-.49-1.4A20.27,20.27,0,0,1,1.89,0,23.45,23.45,0,0,0,2-3.75a2.94,2.94,0,0,0-.32-1.19A.93.93,0,0,0,1-5.42,1.1,1.1,0,0,0,.19-5,3.69,3.69,0,0,0-.43-3.76,20.78,20.78,0,0,0-1.07.07c-.2,2-.37,3.32-.49,3.86A4.48,4.48,0,0,1-2,5.26,1.06,1.06,0,0,1-3,5.81h0a1.9,1.9,0,0,1-1.29-.67,2.7,2.7,0,0,1-.58-1.31,14.92,14.92,0,0,1,0-3.6q0-.12.06-.54c0-.28,0-.47,0-.57s0-.28,0-.52,0-.42,0-.55,0-.28,0-.47,0-.36,0-.51,0-.29,0-.43A3.09,3.09,0,0,0-5-4.62a1.19,1.19,0,0,0-.67-.6,1.5,1.5,0,0,0-1.2.9A7,7,0,0,0-7.41-2.1c0,.39-.1,1-.14,1.76s-.11,1.47-.18,2.08A9.61,9.61,0,0,1-8,3.32h0l0,0A2.81,2.81,0,0,1-9.2,4.62a1.82,1.82,0,0,1-1.35.15A1.94,1.94,0,0,1-11.61,4,2.39,2.39,0,0,1-12,2.56l.47,0a1.92,1.92,0,0,0,.31,1.16,1.47,1.47,0,0,0,.81.62,1.3,1.3,0,0,0,1-.11A2.32,2.32,0,0,0-8.5,3.18a7.53,7.53,0,0,0,.29-1.5Q-8.1.8-8-.36c0-.78.1-1.37.16-1.78A7.23,7.23,0,0,1-7.28-4.5,1.93,1.93,0,0,1-5.65-5.66h.05l0,0a1.59,1.59,0,0,1,1,.84,3.47,3.47,0,0,1,.34,1.41,4.91,4.91,0,0,1,0,.57v.54c0,.15,0,.37,0,.66s0,.47,0,.58,0,.33-.06.68,0,.56-.06.63a14.78,14.78,0,0,0,0,3.49,2.58,2.58,0,0,0,.5,1.13,1.57,1.57,0,0,0,1,.5A.61.61,0,0,0-2.44,5,3.89,3.89,0,0,0-2,3.85C-1.9,3.31-1.74,2-1.53,0A20.65,20.65,0,0,1-.86-3.89,3.89,3.89,0,0,1-.18-5.26,1.58,1.58,0,0,1,1-5.84Z"/>
<rect fill="none" x="-12" y="-12" width="24" height="24"/>
</symbol>
<symbol id="moonmilk" viewBox="-12 -12 24 24">
<path d="M-4.78-3.06a3.39,3.39,0,0,1,1.5.34,2.48,2.48,0,0,1,1.1,1,3.74,3.74,0,0,1,1.62-.8,3.52,3.52,0,0,1,1.71,0,2.9,2.9,0,0,1,1.39.77A2.49,2.49,0,0,1,3.25-.37,4,4,0,0,1,5-.76a3.58,3.58,0,0,1,1.6.36A2.84,2.84,0,0,1,7.88.92a2.32,2.32,0,0,1,0,1.88.34.34,0,0,1-.37.26A.36.36,0,0,1,7.25,3a.32.32,0,0,1-.12-.25.21.21,0,0,1,0-.12,2,2,0,0,0,0-1.43,2,2,0,0,0-1-.9A2.81,2.81,0,0,0,4.68,0,2.78,2.78,0,0,0,3.12.56L2.46.25A1.7,1.7,0,0,0,2.15-1.1,2.15,2.15,0,0,0,1-1.81a2.85,2.85,0,0,0-1.58.06A3,3,0,0,0-2-.83l-.71-.12A1.74,1.74,0,0,0-3.55-2a2.36,2.36,0,0,0-1.39-.27,3.08,3.08,0,0,0-1.45.53A2.33,2.33,0,0,0-7.32-.56a.35.35,0,0,1-.37.24A.39.39,0,0,1-8-.42a.33.33,0,0,1-.1-.26v-.1A3,3,0,0,1-6.89-2.35,4,4,0,0,1-5-3Z"/>
<rect fill="none" x="-12" y="-12" width="24" height="24"/>
</symbol>
<symbol id="narrow" viewBox="-12 -12 24 24">
<path d="M-1.5,5V-5h0.64V5H-1.5z"/>
<path d="M0.86,5V-5H1.5V5H0.86z"/>
<rect fill="none" x="-12" y="-12" width="24" height="24"/>
</symbol>
<symbol id="paleoflow" viewBox="-12 -12 24 24">
<path d="M.38-12V.17A1.9,1.9,0,0,0,1,0,1.57,1.57,0,0,0,1.7-.72a1.86,1.86,0,0,0,.23-1c0-.09,0-.14.08-.16a.92.92,0,0,1,.24,0,.52.52,0,0,0,.25,0h.08A2.48,2.48,0,0,1,2,0,2.5,2.5,0,0,1,.38.77V7.21H2.09L0,12-1.8,7.23c.07,0,.59,0,1.53,0V.77A3,3,0,0,1-1.35.43a2.16,2.16,0,0,1-1-1,2.38,2.38,0,0,1-.24-1.33l.67,0a2,2,0,0,0,.15,1,1.73,1.73,0,0,0,.59.67A2.14,2.14,0,0,0-.27.16V-12Z"/>
<rect fill="none" x="-12" y="-12" width="24" height="24"/>
</symbol>
<symbol id="rain" viewBox="-12 -12 24 24">
<path d="M-4.14-6.34h0.71v4.69h-0.71V-6.34z"/>
<path d="M-0.35-6.34h0.71v4.69h-0.71V-6.34z"/>
<path d="M3.43-6.34h0.71v4.69H3.43V-6.34z"/>
<path d="M-4.14,1.65h0.71v4.69h-0.71V1.65z"/>
<path d="M-0.35,1.65h0.71v4.69h-0.71V1.65z"/>
<path d="M3.43,1.65h0.71v4.69H3.43V1.65z"/>
<rect fill="none" x="-12" y="-12" width="24" height="24"/>
</symbol>
<symbol id="rats" viewBox="-12 -12 24 24">
<path d="M8.78-2.32,7-2.27c-.51-.17-.65-.56-1.46-.45l-.25.45C3.59-2.75,2.59-3.66.56-3.62l-1.35.3A4.89,4.89,0,0,0-4.24,1.57c-.68.6-2.58.86-3.39.94a6.84,6.84,0,0,0-1.62.39,4.91,4.91,0,0,0-1,.52A1.75,1.75,0,0,0-11,4.61a1.16,1.16,0,0,0,.59,1.48,1.3,1.3,0,0,1,.14.12c.16-.52-.35-.92-.2-1.42a3.35,3.35,0,0,1,.27-.45,3.18,3.18,0,0,1,1.79-1c.63-.12,1.27-.22,1.91-.3.48-.07,1,0,1.4-.12A6.94,6.94,0,0,1-4,2.82,30.64,30.64,0,0,0,.41,2.69l2.16.15c.1-.09,0,0,.1-.15a.87.87,0,0,0-.9-.55c.86-1,2.27-.37,3.1-.05.5.19,1,0,1.25.4.11-.1.1-.07.15-.25.3,0,.31.07.6.15-.06-.49-.34-.64-1-.6a.78.78,0,0,1,0-.55C6.3.56,7.29.73,8.13.43a13.78,13.78,0,0,0,2.15-.9l.6-.85v-.2A16.9,16.9,0,0,0,8.78-2.32Z"/>
<rect fill="none" x="-12" y="-12" width="24" height="24"/>
</symbol>
<symbol id="sand" viewBox="-12 -12 24 24">
<path d="M-1.58,0.83c0.23,0.2,0.35,0.44,0.36,0.73c0.01,0.29-0.08,0.54-0.28,0.75c-0.2,0.21-0.46,0.32-0.78,0.33c-0.32,0.01-0.6-0.08-0.83-0.26C-3.36,2.19-3.49,1.95-3.5,1.67C-3.51,1.38-3.41,1.12-3.2,0.9c0.21-0.22,0.48-0.34,0.8-0.35C-2.08,0.54-1.81,0.64-1.58,0.83z"/>
<path d="M0.08-2.36c0.23,0.2,0.35,0.44,0.36,0.73c0.01,0.29-0.08,0.54-0.28,0.75c-0.2,0.21-0.46,0.32-0.78,0.33c-0.32,0.01-0.59-0.07-0.83-0.26s-0.37-0.42-0.38-0.71c-0.01-0.29,0.09-0.54,0.3-0.76c0.21-0.22,0.48-0.33,0.8-0.35C-0.42-2.65-0.14-2.56,0.08-2.36z"/>
<path d="M3.12,0.55c0.23,0.2,0.35,0.43,0.38,0.71c0.02,0.28-0.07,0.53-0.28,0.75C3,2.23,2.73,2.35,2.42,2.36C2.1,2.37,1.82,2.28,1.58,2.08C1.34,1.88,1.22,1.64,1.2,1.35c-0.01-0.29,0.09-0.54,0.3-0.75C1.72,0.4,1.99,0.29,2.3,0.28S2.89,0.36,3.12,0.55z"/>
<rect fill="none" x="-12" y="-12" width="24" height="24"/>
</symbol>
<symbol  id="scallops" viewBox="-12 -12 24 24">
<path d="M.05-3.74l.21,0A2.35,2.35,0,0,1,1.74-3a2,2,0,0,1,.59,1.55v0l0,0A9.59,9.59,0,0,1-.08,3.27l-.39.47-.27-.55A14.26,14.26,0,0,1-2.33-1.89v-.05l0-.05A2,2,0,0,1-1.44-3.3,2.42,2.42,0,0,1,.05-3.74ZM-.11-3A1.44,1.44,0,0,0-1.55-1.89,13.06,13.06,0,0,0-.29,2.33,8.6,8.6,0,0,0,1.55-1.54a1.41,1.41,0,0,0-.38-1A1.62,1.62,0,0,0,.18-3Z"/>
<rect fill="none" x="-12" y="-12" width="24" height="24"/>
</symbol>
<symbol  id="sink" viewBox="-12 -12 24 24">
<path d="M.72,9.41H.9c1.94,0,3.26-.54,3.94-1.51a3.61,3.61,0,0,0,.33-.69,2,2,0,0,0,.11-.54V6.46l.69,0a2.8,2.8,0,0,1-.58,1.78C4.58,9.39,3.1,10,.93,10H-.93q-3.25,0-4.46-1.8a2.74,2.74,0,0,1-.43-.83A2.37,2.37,0,0,1-6,6.67V6.43l.68,0A2.27,2.27,0,0,0-4.84,7.9c.68,1,2,1.47,3.93,1.48l.5,0ZM-1.46-10a.68.68,0,0,0,.16.41A2.77,2.77,0,0,0-.51-9l0,0a3.63,3.63,0,0,1,1,.7,1.15,1.15,0,0,1,.34.88c0,.58-.53,1.14-1.49,1.68-.68.42-1,.79-1,1.11s.3.61.84,1h0Q.61-2.86.46-1.78a3.51,3.51,0,0,1-1.55,2,.61.61,0,0,0-.26.41,1.67,1.67,0,0,0,.1.51,5.3,5.3,0,0,1,.32,1L.56,1.9.46,8.06-3.4,2.54l1.73-.28A6.16,6.16,0,0,0-2,1.39,1.7,1.7,0,0,1-2.09.58a1.21,1.21,0,0,1,.53-.82h0v0C-.75-.86-.33-1.38-.28-1.85s-.23-.87-.91-1.27h0C-2-3.6-2.37-4.1-2.4-4.61S-2-5.74-1.09-6.29C-.34-6.72.06-7.1.09-7.44a.67.67,0,0,0-.18-.43,3.17,3.17,0,0,0-.79-.58,2.93,2.93,0,0,1-1-.67A1.16,1.16,0,0,1-2.17-10Z"/>
<rect fill="none" x="-12" y="-12" width="24" height="24"/>
</symbol>
<symbol  id="spring" viewBox="-12 -12 24 24">
<path d="M-1.34-9.86,2.52-4.34.78-4.06a8,8,0,0,0,.29.87,1.4,1.4,0,0,1,.13.79,1.3,1.3,0,0,1-.52.84l0,0v0C-.13-.95-.55-.42-.61,0S-.37.91.31,1.3l0,0c.75.46,1.14,1,1.18,1.46S1.12,3.92.21,4.46C-.54,4.9-.94,5.29-1,5.64a.74.74,0,0,0,.18.43A3.2,3.2,0,0,0,0,6.62a3,3,0,0,1,1,.7,1.14,1.14,0,0,1,.31.86A1.74,1.74,0,0,1,.71,9.26H.92c1.92,0,3.22-.52,3.9-1.51a2.05,2.05,0,0,0,.35-.67,2.59,2.59,0,0,0,.1-.55l0-.19.65,0a2.84,2.84,0,0,1-.55,1.8C4.58,9.26,3.08,9.85.92,9.86H-.92c-2.17,0-3.66-.6-4.49-1.77a3.65,3.65,0,0,1-.4-.85A2.43,2.43,0,0,1-6,6.53V6.29l.66,0a2.08,2.08,0,0,0,.47,1.41c.68,1,2,1.5,3.91,1.51H-.4c.62-.43.94-.8,1-1.1a.76.76,0,0,0-.16-.43,3.25,3.25,0,0,0-.79-.51v0a3.8,3.8,0,0,1-1-.7,1.15,1.15,0,0,1-.34-.91q.06-.84,1.5-1.68c.68-.4,1-.77,1-1.1S.49,2.21,0,1.87c0,0,0,0,0,0C-1,1.32-1.44.69-1.34,0a3.58,3.58,0,0,1,1.55-2,.54.54,0,0,0,.23-.38A1.28,1.28,0,0,0,.37-3a4.57,4.57,0,0,1-.32-1l-1.49.24Z"/>
<rect fill="none" x="-12" y="-12" width="24" height="24"/>
</symbol>
<symbol  id="stalactite" viewBox="-12 -12 24 24">
<path d="M3.57-6.69l.52.53L.39-3V6.12H-.39V-3l-3.7-3.14.52-.53L0-3.67Z"/>
<rect fill="none" x="-12" y="-12" width="24" height="24"/>
</symbol>
<symbol  id="stalagmite" viewBox="-12 -12 24 24">
<path d="M.38-6.42V2.75L4.11,5.89l-.56.53L0,3.4l-3.57,3-.53-.53,3.7-3.14V-6.42Z"/>
<rect fill="none" x="-12" y="-12" width="24" height="24"/>
</symbol>
<symbol  id="stalagnate" viewBox="-12 -12 24 24">
<path d="M3.55-8.46l.56.53L.38-4.78v9L4.11,7.36l-.56.53L0,4.86l-3.57,3-.53-.53,3.7-3.14v-9l-3.7-3.15.53-.53L0-5.43Z"/>
<rect fill="none" x="-12" y="-12" width="24" height="24"/>
</symbol>
<symbol  id="straws" viewBox="-12 -12 24 24">
<path d="M-10.89-2.76H10.89V-2H9.63V.46H8.84V-2H8.29v5.6H7.5V-2H5.56V.7H4.77V-2H2.07V2.38H1.29V-2H-.1v3H-.89V-2H-3.2V4.11H-4V-2H-6.22L-6.16.75l-.79,0L-7-2H-8.32V2.33H-9.1V-2h-1.79Z"/>
<rect fill="none" x="-12" y="-12" width="24" height="24"/>
</symbol>
<symbol  id="water" viewBox="-12 -12 24 24">
<path d="M-1.72-9.86,2.11-4.32.38-4.06a6.49,6.49,0,0,0,.29.89,1.5,1.5,0,0,1,.13.79,1.2,1.2,0,0,1-.5.82h0l0,0C-.54-.94-1-.42-1,.05s.24.89.92,1.27h0c.77.48,1.17,1,1.19,1.49S.71,3.94-.2,4.49c-.75.43-1.13.81-1.15,1.15a.51.51,0,0,0,.18.43,2.66,2.66,0,0,0,.76.58,2.93,2.93,0,0,1,1,.67,1.16,1.16,0,0,1,.29.89C.84,8.75.42,9.3-.41,9.86l-.44-.55c.66-.45,1-.83,1-1.15A.47.47,0,0,0,0,7.75a2.84,2.84,0,0,0-.78-.53h0a3.87,3.87,0,0,1-1-.69,1.24,1.24,0,0,1-.34-.91c0-.58.54-1.14,1.52-1.68.66-.42,1-.79,1-1.11s-.3-.61-.84-1h0Q-1.9,1.06-1.74,0a3.44,3.44,0,0,1,1.54-2,.67.67,0,0,0,.27-.41A1.11,1.11,0,0,0,0-3a4.33,4.33,0,0,1-.31-1l-1.5.24Z"/>
<rect fill="none" x="-12" y="-12" width="24" height="24"/>
</symbol><symbol  id="tree" viewBox="-12 -12 24 24">
<path d="M7.4-5.04A4.271,4.271,0,0,0,7.7-6.627a4.3,4.3,0,0,0-4.3-4.3A4.279,4.279,0,0,0,.636-9.914,4.293,4.293,0,0,0-3.045-12a4.3,4.3,0,0,0-4.3,4.3,4.27,4.27,0,0,0,.421,1.845,4.3,4.3,0,0,0-3.645,4.244,4.3,4.3,0,0,0,4.3,4.3A4.282,4.282,0,0,0-3.946,2L-1.175,5.23h0L-1.612,12H.982L.757,6.376,4.119,2.827v0a4.272,4.272,0,0,0,2.15.58,4.3,4.3,0,0,0,4.3-4.3A4.3,4.3,0,0,0,7.4-5.04ZM-3.346,1.538h0A4.346,4.346,0,0,0-2.7.788a4.266,4.266,0,0,0,1.765.753l-.135,2.087ZM.69,4.7.563,1.544A4.258,4.258,0,0,0,2.321.805,4.3,4.3,0,0,0,3.378,2.279Z"/>
<rect fill="none" x="-12" y="-12" width="24" height="24"/>
</symbol><g>
<desc></desc>
<g>
<line fill="none" stroke="#dddddd" stroke-width="0.1mm" x1="0.00" y1="182.00" x2="824.00" y2="182.00" />
<text x="821.20" y="181.80" font-size=".2mm" fill="#000000">0m</text>
<line fill="none" stroke="#dddddd" stroke-width="0.1mm" x1="0.00" y1="132.00" x2="824.00" y2="132.00" />
<text x="821.20" y="131.80" font-size=".2mm" fill="#000000">5m</text>
<line fill="none" stroke="#dddddd" stroke-width="0.1mm" x1="0.00" y1="82.00" x2="824.00" y2="82.00" />
<text x="821.20" y="81.80" font-size=".2mm" fill="#000000">10m</text>
<line fill="none" stroke="#dddddd" stroke-width="0.1mm" x1="0.00" y1="32.00" x2="824.00" y2="32.00" />
<text x="821.20" y="31.80" font-size=".2mm" fill="#000000">15m</text>
</g>
<g>
<path fill="none" stroke="#000000" stroke-width="0.06mm" d="M10.415821,167.40788 C13.937145,165.06578 17.22809,162.33347 20.979794,160.38156 C26.92436,157.28877 40.176582,150.06612 49.62946,148.68948 C79.61998,144.32193 26.81719,157.63559 95.88214,139.50595 C99.76163,138.48758 103.56334,137.08255 107.15446,135.29611 C113.237564,132.27 120.14055,125.67279 123.71077,119.8296 C131.00365,107.89369 136.39926,93.51414 140.80444,80.75392 C148.32146,58.979866 148.10867,44.562332 163.35675,26.031036 L163.35675,26.031036" /><path fill="none" stroke="#000000" stroke-width="0.06mm" d="M21.091242,191.32532 C26.225542,190.17207 31.576557,189.73865 36.49414,187.86559 C49.967545,182.7337 55.621994,177.47531 67.61746,171.94498 C72.89329,169.51262 78.50987,167.84642 83.71879,165.27391 C86.190895,164.05301 88.271194,162.1621 90.55474,160.61699 C93.791534,158.42688 96.19211,156.85262 100.12662,156.17838 C104.90114,155.36021 107.01355,158.50275 107.69314,162.86244 C108.01253,164.91138 107.27673,168.289 106.95248,169.70245 C106.596146,171.2557 106.27106,172.8588 105.51681,174.2626 C102.82861,179.26581 99.78725,184.07683 96.676155,188.82863 C90.216484,198.69495 81.708694,207.10568 75.678925,217.26028 L75.678925,217.26028" /><path fill="none" stroke="#000000" stroke-width="0.06mm" d="M75.76593,232.335 C76.00702,231.07175 76.18599,229.79503 76.48918,228.5452 C77.16467,225.76074 81.03641,224.50815 83.270294,226.19296 C84.62913,227.2178 85.08682,229.15448 84.90307,230.77408 C84.527725,234.08232 80.81843,237.91644 79.63214,239.8978 C78.43492,241.89743 77.304146,245.50859 77.426956,247.78406 C77.46551,248.49832 77.73757,249.27185 78.18146,249.83635 C80.26581,252.48703 84.05058,251.94783 86.6875,250.428 C88.915184,249.14401 90.29161,247.42609 91.83409,245.4309 L91.83409,245.4309" /><path fill="none" stroke="#000000" stroke-width="0.06mm" d="M78.99423,264.7996 C76.68071,264.96832 74.95267,265.2646 73.92109,267.43677 C73.29416,268.7569 73.17068,270.3228 73.42676,271.7504 C74.05684,275.26288 75.39109,277.96286 79.23921,278.35727 C80.94467,278.5321 82.68456,277.3863 83.922806,276.36902 C86.527435,274.22913 86.04479,269.33237 83.33257,267.48172 C83.18092,267.37823 81.24014,266.1565 80.69112,266.221 C79.21729,266.39417 77.79899,266.88745 76.35292,267.2207 L76.35292,267.2207" /><path fill="none" stroke="#000000" stroke-width="0.06mm" d="M94.53301,219.4555 L94.505295,221.1575" /><path fill="none" stroke="#000000" stroke-width="0.06mm" d="M98.120735,222.27428 C98.86615,219.75668 101.721466,207.56842 104.64403,203.16031 C107.26963,199.2001 110.60731,195.74089 113.20011,191.75916 C114.88292,189.1749 115.86002,186.18573 117.426994,183.52965 C120.17104,178.8784 123.119125,175.52933 127.19895,171.93335 C130.95956,168.6187 134.91602,165.53157 138.85011,162.4248 C139.75787,161.70795 141.44257,161.08975 142.6176,161.20145 C145.98534,161.52162 149.32912,162.05984 152.6918,162.4294 C154.87054,162.66884 154.6959,162.29242 156.73003,163.00641 C157.70352,163.34811 159.85034,164.26897 160.69897,165.09982 C162.10123,166.47273 163.4101,167.94377 164.64476,169.46913 C166.09851,171.26515 168.49313,175.33054 170.88153,177.31839 C174.1104,180.00574 179.40717,179.45892 183.13704,179.54439 L183.13704,179.54439" /><path fill="none" stroke="#000000" stroke-width="0.06mm" d="M159.68869,28.99678 C159.754,27.947388 159.59201,26.484344 160.51004,25.67398 C161.35297,24.929901 162.52376,24.62233 163.61295,24.960724 C168.05174,26.339828 169.51125,33.23398 169.94913,36.868454 C171.80365,52.26111 170.61716,52.720093 170.16864,68.69705 C170.1528,69.261215 170.21288,69.84672 170.42116,70.37126 C172.76906,76.28468 175.3534,82.10149 177.81952,87.9666 L177.81952,87.9666" /><path fill="none" stroke="#000000" stroke-width="0.06mm" d="M181.51695,179.33296 C188.37851,178.31567 185.67007,178.81337 198.65985,174.57245 C200.90936,173.83803 205.99379,170.63766 207.32007,169.77682 C209.58344,168.30772 209.21935,167.99254 211.26483,167.1595 C214.05872,166.02164 215.86853,167.2172 219.5006,166.47974 C222.51483,165.86772 225.34135,164.54942 228.26173,163.58427 L228.26173,163.58427" /><path fill="none" stroke="#000000" stroke-width="0.06mm" d="M177.27475,88.061844 C178.15468,89.0621 178.95413,90.13934 179.91452,91.062614 C181.64014,92.72154 183.79591,93.58362 185.93579,94.58248 C198.51198,100.45287 196.28465,99.65626 214.11017,103.31631 C216.10625,103.72615 218.18747,103.51509 220.2028,103.816086 C230.09357,105.29329 224.3057,105.501114 229.47278,105.143036 L229.47278,105.143036" /><path fill="none" stroke="#000000" stroke-width="0.06mm" d="M226.3364,164.09215 C229.90958,162.46844 228.86522,162.72281 234.76953,162.17732 C235.83575,162.07883 236.92767,162.08362 237.98012,162.28079 C240.7158,162.79333 243.35452,163.7468 246.08292,164.2969 C246.90097,164.46185 247.7495,164.44704 248.58354,164.4187 C250.93417,164.33885 253.27438,164.0416 255.62537,163.97275 C257.25687,163.92497 258.88916,164.03702 260.521,164.06914 C262.17578,163.98409 263.83017,163.89114 265.4853,163.81396 C266.68152,163.75818 269.74863,163.82098 271.23068,163.29965 C272.81924,162.74084 274.33102,161.98392 275.8812,161.32605 L275.8812,161.32605" /><path fill="none" stroke="#000000" stroke-width="0.06mm" d="M1203.1282,-123.81372 C1182.9929,-84.57474 1205.0103,-129.63062 1174.9734,-40.598557 C1166.3871,-15.147446 1160.9562,-13.835709 1158.4995,6.9724426 L1158.4995,6.9724426" /><path fill="none" stroke="#000000" stroke-width="0.06mm" d="M227.55968,104.13596 C228.37097,104.45671 229.14888,104.8799 229.99352,105.09821 C236.33821,106.73821 242.96617,104.588646 249.26648,104.22946 C249.52634,104.214645 258.04938,105.004005 260.7971,103.9711 C267.0418,101.62361 273.68005,96.64412 278.28223,92.67993 C319.38116,57.278687 293.26874,75.34957 328.25742,50.334763 C329.08292,49.744583 330.0698,49.421402 330.97595,48.964737 L330.97595,48.964737" /><path fill="none" stroke="#000000" stroke-width="0.06mm" d="M341.4895,17.254196 C340.53235,15.702576 339.85266,14.736938 341.24118,13.231018 C342.25037,12.136581 343.5233,10.929733 345.00873,10.501877 C347.85626,9.681717 352.8397,10.630981 352.12735,14.52887 C352.03326,15.043594 351.91748,15.559647 351.7252,16.046265 C349.97226,20.481735 348.0048,24.83136 346.29596,29.283981 C345.8682,30.39862 345.49622,32.270355 345.8286,33.51938 C346.24432,35.081345 348.04077,35.978577 349.58307,35.64943 C350.93054,35.361847 353.41724,34.776657 354.81885,33.94725 C355.74292,33.400406 356.65073,32.812805 357.47433,32.12384 C358.5833,31.196121 359.55624,30.116898 360.59717,29.113434 L360.59717,29.113434" /><path fill="none" stroke="#000000" stroke-width="0.06mm" d="M353.2348,43.951767 C351.19992,44.018463 349.93686,44.459366 348.5681,45.98094 C347.9285,46.691956 347.03308,47.799194 346.64716,48.772827 C345.94083,50.55478 345.64694,53.304184 347.0836,54.855743 C347.62604,55.44153 348.50818,55.795425 349.25238,55.97431 C352.17526,56.676857 354.08105,56.493378 356.42853,54.583984 C357.7347,53.521545 358.98453,52.094162 359.59824,50.499725 C360.33414,48.587936 359.29965,46.21994 357.34695,45.585846 C353.86987,44.456787 352.02368,45.36412 348.9377,46.844986 L348.9377,46.844986" /><path fill="none" stroke="#000000" stroke-width="0.06mm" d="M338.42422,59.964622 C316.61456,86.36029 322.72098,75.87356 315.707,88.380936 L315.707,88.380936" /><path fill="none" stroke="#000000" stroke-width="0.06mm" d="M315.36777,85.37909 C314.9612,86.06807 314.2063,86.92187 314.2636,87.837296 C314.35352,89.27342 315.43405,90.43587 316.63052,91.11248 C318.03806,91.908455 319.3638,92.891525 320.88147,93.4496 C337.86108,99.69356 339.48737,100.298035 354.94513,102.72123 C357.44003,103.11233 359.95868,103.335434 362.47098,103.59196 C369.7841,104.3387 377.12265,104.84686 384.42044,105.73093 C385.54654,105.86734 386.60522,106.34228 387.6976,106.64794 L387.6976,106.64794" /><path fill="none" stroke="#000000" stroke-width="0.06mm" d="M353.45047,197.45168 C357.3486,192.62206 361.2468,187.79242 365.14493,182.96278 C366.3232,181.89941 367.33853,180.6212 368.67984,179.77267 C392.7991,164.515 377.92548,176.05602 389.63058,166.65025 L389.63058,166.65025" /><path fill="none" stroke="#000000" stroke-width="0.06mm" d="M336.22614,199.95773 C338.2427,198.38449 338.99655,197.46446 341.0956,196.60991 C343.91125,195.46365 345.38702,196.44102 344.64908,199.54655 C344.26633,201.15747 343.6494,202.18962 342.6935,203.60977 C341.46634,205.43292 340.0791,207.14587 338.872,208.98239 C338.75476,209.16081 338.74927,209.39748 338.74902,209.611 C338.7467,211.32741 341.3308,212.17049 342.60876,212.43712 C343.82904,212.69173 344.813,212.63214 346.05585,212.4266 C347.31384,212.21857 348.55533,211.92072 349.80505,211.66776 L349.80505,211.66776" /><path fill="none" stroke="#000000" stroke-width="0.06mm" d="M335.49707,229.16444 C332.9718,229.42354 329.7301,230.02518 329.09824,233.05014 C328.36447,236.56322 336.6234,237.05942 338.22882,233.82672 C339.94342,230.37425 335.62665,228.23363 332.75815,229.19815 C330.825,229.84814 329.60013,231.82994 328.34308,233.21967 L328.34308,233.21967" /><path fill="none" stroke="#000000" stroke-width="0.06mm" d="M271.48062,161.16313 C272.412,160.7048 273.32028,160.19624 274.27472,159.78816 C277.25037,158.51593 281.9123,160.08536 284.2361,160.52267 C297.6851,163.05365 311.06833,165.93631 324.54556,168.31215 C326.05106,168.57755 327.6144,168.63701 329.12994,168.4368 C340.53665,166.92992 346.71384,162.41353 358.67355,157.77509 C360.98596,156.87825 363.73486,156.32802 366.21548,156.8769 C368.89224,157.46918 369.49866,161.00249 368.72333,163.21434 C367.36752,167.08226 363.37433,171.14032 360.63095,173.30486 C350.4726,181.31981 339.75714,188.60228 329.32028,196.25099 L329.32028,196.25099" /><path fill="none" stroke="#000000" stroke-width="0.06mm" d="M386.28934,165.59169 C387.28867,165.42871 388.27863,165.18983 389.28745,165.10274 C390.51987,164.99632 394.42654,165.60898 394.89185,165.65546 C418.76752,168.0408 367.44107,161.93494 425.38324,170.13576 C427.05307,170.3721 428.75705,170.19394 430.43973,170.30719 C431.37436,170.3701 432.29803,170.54488 433.22723,170.66371 L433.22723,170.66371" /><path fill="none" stroke="#000000" stroke-width="0.06mm" d="M385.37357,105.694695 C387.33127,105.90895 389.3001,106.03878 391.2467,106.33745 C391.82245,106.42578 392.39243,106.598145 392.91663,106.85204 C401.84705,111.17735 405.74405,112.128654 411.41034,118.60789 C412.4795,119.830444 413.386,122.67355 413.8681,123.6633 C414.856,125.691185 417.5258,127.051445 419.22705,128.02478 C419.66742,128.27675 420.16068,128.42831 420.6468,128.57365 C423.21375,129.34111 424.90726,128.33908 425.8363,125.78151 C428.07434,119.620346 424.77737,112.81339 424.85657,106.73415 C424.97333,97.76392 426.21356,88.84083 427.16098,79.92 C427.27686,78.82906 427.54596,77.72766 428.04105,76.74864 C430.17163,72.53522 432.5858,68.46903 435.00244,64.41289 C435.37842,63.781845 435.84967,63.19435 436.40387,62.712234 C437.3645,61.87657 438.47534,61.2312 439.51108,60.490692 L439.51108,60.490692" /><path fill="none" stroke="#000000" stroke-width="0.06mm" d="M430.80826,169.75418 C437.42627,172.05103 429.8916,169.68867 443.05682,171.55937 C446.19604,172.00543 449.29504,172.707 452.3911,173.39119 C453.4478,173.6247 453.97522,174.05646 454.85934,174.59148 C456.4729,175.56784 457.97363,176.48799 459.90573,176.63632 C463.93063,176.94533 464.9753,176.9471 468.83398,176.2778 C471.17966,175.87094 472.85516,173.43509 475.38922,173.59467 C487.97757,174.38734 479.49518,174.61946 488.65842,174.10764 L488.65842,174.10764" /><path fill="none" stroke="#000000" stroke-width="0.06mm" d="M439.30283,61.218246 C440.03088,60.491676 440.37726,59.9638 441.22897,59.543495 C442.12616,59.100792 443.5341,58.956696 444.3626,58.922997 C447.4024,58.79933 450.52554,59.541206 452.90582,61.53553 C455.29108,63.534035 456.98608,66.577675 457.81296,69.5273 C461.52222,82.75885 460.13263,82.31424 461.4281,97.981705 C461.8562,103.15952 463.03006,106.35006 462.64957,111.73941 C462.28168,116.9512 460.99768,122.07019 460.61218,127.280716 C460.36847,130.57486 460.62402,133.8889 460.76663,137.18898 C460.87857,139.77756 462.43774,142.88994 465.24426,143.34888 C468.27753,143.84491 470.30563,140.26059 471.10016,137.93568 C473.29938,131.50055 475.051,124.917015 477.29193,118.49628 C477.84164,116.92127 480.9386,112.349396 481.54498,111.30451 C483.42578,108.063835 482.33862,108.996925 484.51492,106.41244 C486.3208,104.267845 486.63968,104.614586 487.90497,102.05702 C489.2909,99.25571 489.45898,97.70308 490.34427,94.665726 C490.85046,92.92906 491.36246,91.19343 491.92737,89.47497 C491.9765,89.32538 492.08398,89.20043 492.18143,89.07678 C492.8087,88.280975 494.03336,87.873215 494.91257,87.62776 C496.88522,87.07703 498.804,86.504135 500.85004,86.59609 C504.42725,86.75685 512.0674,90.284256 512.44855,90.43666 C513.66626,90.92352 515.3108,92.39199 516.14935,93.26362 C518.3552,95.55646 520.3676,98.03408 522.6282,100.273094 C523.91473,101.547424 526.1313,103.499985 528.15857,103.94512 C528.47595,104.01482 528.8019,104.04021 529.12573,104.06728 C530.1947,104.15666 531.26575,104.218704 532.33575,104.2944 L532.33575,104.2944" /><path fill="none" stroke="#000000" stroke-width="0.06mm" d="M487.56732,174.25453 C492.54846,173.59785 497.10748,172.29555 501.18607,169.30211 C502.0158,168.69312 502.73236,167.94063 503.4538,167.20653 C505.62466,164.99747 507.56332,162.55446 509.8596,160.47601 C511.37448,159.10481 515.1536,157.22644 516.6461,155.02858 C518.5447,152.23294 520.0397,149.1717 522.0054,146.42287 C523.4333,144.42593 525.20337,142.69727 526.79846,140.83115 C527.66455,139.81796 528.45123,138.73227 529.3889,137.785 C531.52185,135.63023 534.153,134.31036 536.71545,132.71931 L536.71545,132.71931" /><path fill="none" stroke="#000000" stroke-width="0.06mm" d="M529.7918,103.85176 C534.34393,103.27077 535.56757,103.45816 539.8313,101.51614 C542.8325,100.14914 546.1107,97.47604 548.5253,95.39902 C549.50354,94.55761 551.39557,91.30283 551.6123,91.003975 C552.20056,90.19276 553.2214,89.404976 554.072,88.92946 C557.73694,86.88068 566.20215,85.41295 567.6702,85.03374 L567.6702,85.03374" /><path fill="none" stroke="#000000" stroke-width="0.06mm" d="M535.0571,133.09976 C535.7999,132.61383 536.5275,132.1039 537.2855,131.64192 C538.3059,131.01996 539.35535,130.44676 540.39026,129.84918 C543.71985,127.14092 546.8235,124.128334 550.379,121.72441 C556.80756,117.37805 558.3745,117.28522 564.58716,115.46288 L564.58716,115.46288" /><path fill="none" stroke="#000000" stroke-width="0.02mm" d="M563.16565,115.74315 L563.1884,115.68578" /><path fill="none" stroke="#000000" stroke-width="0.02mm" d="M562.9054,115.382805 C563.89276,115.427635 564.8796,115.54752 565.8675,115.5173 C569.57697,115.403824 573.2755,114.95249 576.9867,114.95202 C579.9076,114.951645 586.3142,117.486664 587.9221,117.804794 C590.0788,118.23149 592.29974,118.28473 594.49817,118.3122 C598.5823,118.363235 601.82385,117.58938 605.6684,118.26259 C606.4489,118.39926 607.19025,118.704994 607.9511,118.9262 L607.9511,118.9262" /><path fill="none" stroke="#000000" stroke-width="0.02mm" d="M565.8684,83.83258 C568.1341,85.26503 568.3883,84.47089 571.48474,84.767525 C581.0877,85.6875 574.0281,85.99769 584.8605,85.63165 C585.4507,85.61171 586.04407,85.50887 586.6053,85.32524 C589.69684,84.31368 588.7476,84.196434 591.542,83.17659 C592.4632,82.84037 593.66754,82.782585 594.61395,82.84298 C596.92664,82.99057 598.56946,84.02412 600.8361,84.960976 C603.6404,86.11999 606.4337,87.305016 609.2325,88.477036 L609.2325,88.477036" /><path fill="none" stroke="#5C208C" stroke-width="0.06mm" d="M607.71655,88.05231 C611.59674,89.502045 613.1939,89.87547 617.0072,92.75848 C618.879,94.173645 620.48816,95.91283 622.1044,97.61405 C623.22345,98.79198 624.97876,101.65829 626.861,102.87226 C627.5101,103.29089 628.47626,103.7539 629.2648,103.88247 C630.16644,104.029465 631.09784,103.97298 631.99054,104.16682 C632.64154,104.30817 633.2352,104.64209 633.85754,104.87972 L633.85754,104.87972" /><path fill="none" stroke="#5C208C" stroke-width="0.06mm" d="M611.1985,106.04633 C612.66406,106.53684 614.1126,107.081696 615.5952,107.51787 C617.2345,108.00011 618.91895,108.3187 620.55853,108.799866 C620.8636,108.88939 621.15356,109.04014 621.41223,109.22497 C622.507,110.00738 623.4751,110.9651 624.6069,111.69301 C634.86395,117.322464 624.11725,111.182236 631.9585,116.26108 C632.3608,116.521645 632.8135,116.69951 633.2629,116.86617 C635.37476,117.64938 637.51245,118.36124 639.63727,119.10877 L639.63727,119.10877" /><path fill="none" stroke="#5C208C" stroke-width="0.06mm" d="M637.4712,118.58283 C638.88617,120.32534 640.7647,120.88133 642.6205,122.14681 C643.36115,122.65187 644.04474,123.243164 644.6834,123.872284 C645.7813,124.95386 646.7414,126.16835 647.8202,127.26901 C648.0038,127.4564 648.2289,127.60371 648.4608,127.726326 C650.5934,128.85376 653.1795,129.21893 655.5724,129.17194 C661.5138,129.05524 660.10565,129.23885 663.21106,128.72896 L663.21106,128.72896" /><path fill="none" stroke="#5C208C" stroke-width="0.06mm" d="M632.8915,104.391624 C636.7106,107.12267 630.4351,102.76495 640.2322,107.974434 C643.3779,109.64717 646.3348,111.65472 649.431,113.417534 C649.76935,113.610176 650.1383,113.77086 650.5226,113.83327 C656.62726,114.8246 655.564,114.61704 661.0717,114.33718 L661.0717,114.33718" /><path fill="none" stroke="#5C208C" stroke-width="0.06mm" d="M659.58026,127.43373 C660.0543,127.589935 662.1167,128.09714 662.80707,128.71263 C667.63696,133.01875 672.8434,141.58754 675.5158,145.08737 C676.4767,146.3457 678.2203,147.5844 679.38855,148.51794 L679.38855,148.51794" /><path fill="none" stroke="#248B00" stroke-width="0.06mm" d="M627.5518,97.780754 C631.7535,94.834076 633.13715,94.20212 636.73254,90.0605 C637.87146,88.74858 638.7932,87.256485 639.6855,85.76584 C641.15344,83.313484 642.32904,80.69339 643.8049,78.24576 C645.4847,75.4597 648.48126,73.44162 650.47003,71.04451 C656.56384,63.699448 662.21747,50.85576 665.22266,43.794724 C667.19635,39.15715 668.52106,34.264618 669.9197,29.42247 C671.7449,23.103516 670.0676,24.971832 672.27606,20.820557 C672.988,19.482224 673.98737,18.501465 675.20996,17.587036 C676.9884,16.256912 679.6221,14.317535 681.9625,13.503632 C682.8274,13.202866 683.73804,13.054855 684.6258,12.830505 L684.6258,12.830505" /><path fill="none" stroke="#248B00" stroke-width="0.06mm" d="M642.2364,106.70428 C644.50385,106.36198 646.7713,106.01967 649.0388,105.67737 C650.5386,105.334915 652.0191,104.893234 653.5381,104.65002 C655.0082,104.41463 656.52264,104.517685 657.9862,104.244736 C660.37134,103.799934 662.6977,103.08327 665.0534,102.502525 L665.0534,102.502525" /><path fill="none" stroke="#248B00" stroke-width="0.06mm" d="M663.1282,102.45254 C677.6084,102.293686 675.57733,101.31457 683.9968,102.85257 C686.2674,103.267334 688.5038,103.897354 690.7972,104.15771 C694.442,104.571465 700.89514,103.80269 704.04614,103.547356 L704.04614,103.547356" /><path fill="none" stroke="#248B00" stroke-width="0.06mm" d="M848.86786,-70.87062 L848.9055,-70.434616" /><path fill="none" stroke="#248B00" stroke-width="0.06mm" d="M801.951,40.947754 C791.1376,41.853775 780.30664,42.572174 769.5105,43.665833 C766.2704,44.183456 763.0301,44.70108 759.79,45.218704 C757.6114,45.938553 755.53076,47.093063 753.254,47.37825 C748.93665,47.919037 744.547,47.40712 740.2039,47.672012 C739.2877,47.72789 738.39526,48.025772 737.5318,48.33719 C734.9878,49.2547 732.47644,50.265945 729.9999,51.352234 C729.2902,51.663483 728.56555,52.00203 727.991,52.52202 C723.18506,56.872215 718.8071,61.68914 713.90015,65.925064 C704.9114,73.684654 703.61725,72.93804 693.1677,78.82819 C691.7793,79.61081 690.57605,80.69552 689.18634,81.47593 C688.0305,82.125015 686.8183,82.693504 685.5572,83.10211 C685.4004,83.15294 677.8952,86.35028 675.04645,85.102585 C673.1879,84.28859 672.1708,81.54644 671.8065,79.73645 C671.5573,78.49841 671.66003,76.90424 671.9733,75.7551 C675.4129,63.14196 679.505,50.70572 682.6727,38.02159 C683.86,33.267654 684.4416,28.376068 685.02106,23.510498 C685.5924,18.712265 685.4867,17.537338 684.8568,13.759811 C684.83887,13.652374 684.80115,13.548645 684.7612,13.447327 C684.4669,12.701584 684.1566,11.9622345 683.8544,11.219696 L683.8544,11.219696" /><path fill="none" stroke="#248B00" stroke-width="0.06mm" d="M701.4808,103.08289 C703.8865,103.66784 705.35925,104.60719 706.52454,106.81806 C707.25586,108.20587 707.6254,109.43735 708.657,110.52628 C710.03613,111.98206 711.74084,112.26472 713.72644,112.24695 C715.3989,112.23198 718.47156,112.00874 720.22577,111.30901 C723.88635,109.8489 733.98035,104.78354 738.6714,104.24795 C747.4778,103.2425 756.36865,103.19547 765.2256,102.85377 C773.9127,102.518616 766.38824,104.14946 776.98865,101.94144 C780.22516,101.2673 785.1956,97.322525 786.64435,96.290054 C787.3651,95.77644 787.94977,95.0939 788.5749,94.46743 C790.7971,92.24033 793.3112,90.25751 795.18524,87.73042 C798.68494,83.011215 801.3883,77.74914 804.6144,72.83884 C804.9944,72.260544 805.91156,71.3322 806.6055,70.90595 C808.4482,69.77423 812.1447,69.488266 813.3023,69.24227 L813.3023,69.24227" /><path fill="none" stroke="#248B00" stroke-width="0.06mm" d="M819.29535,29.03302 C820.34717,28.189484 821.36346,27.299698 822.4507,26.50241 C823.4863,25.743042 826.53796,24.792953 827.6521,25.54535 C828.5993,26.184982 828.08374,28.424377 827.6523,29.157257 C827.4677,29.470749 817.4347,41.140396 822.3544,44.72943 C823.366,45.46747 824.7071,46.360886 826.02686,46.475616 C827.4227,46.596985 828.8416,46.36406 830.1649,45.906036 C834.11896,44.53743 835.5999,43.702408 838.8724,42.05226 L838.8724,42.05226" /><path fill="none" stroke="#248B00" stroke-width="0.06mm" d="M830.55273,57.092545 C829.67004,57.09706 828.7445,56.98313 827.97723,57.49134 C825.75635,58.962143 825.2765,62.132835 826.2109,64.481575 C826.8114,65.990875 828.08075,67.28546 829.54376,67.976326 C832.80634,69.517 836.6288,67.80777 838.9295,65.33867 C841.15796,62.94718 841.1068,59.63793 840.02234,56.735413 C839.8031,56.148705 839.35474,55.432816 838.90796,54.974854 C837.3908,53.41992 834.6101,52.595062 832.48627,52.817078 C830.61536,53.01262 829.37915,54.61458 828.10846,55.80001 L828.10846,55.80001" /><path fill="none" stroke="#000000" stroke-width="0.06mm" d="M600.7703,84.76199 C601.26965,85.43548 601.73663,86.13426 602.2685,86.78245 C605.7723,91.052925 603.2418,86.84997 608.36993,94.26996 C610.2434,96.98059 611.3362,100.29891 613.94617,102.47374 C630.84753,116.55736 614.8348,103.46557 626.5072,111.825264 C628.51733,113.26488 629.77936,115.55521 631.36774,117.34573 C631.83435,117.87175 632.4254,118.27261 632.9542,118.73605 L632.9542,118.73605" /><path fill="none" stroke="#000000" stroke-width="0.06mm" d="M605.90405,118.120026 C608.80707,121.726204 604.9835,117.10455 611.18665,123.51497 C611.54974,123.89019 611.86304,124.320045 612.11115,124.779495 C613.3148,127.0087 614.31903,130.71228 614.70825,132.80957 C615.2908,135.949 614.8656,143.8632 614.89923,145.85886 C614.9796,150.63023 619.2442,154.0185 623.16766,155.88727 C624.17914,156.36905 625.3199,156.54965 626.4017,156.7795 L626.4017,156.7795" /><path fill="none" stroke="#000000" stroke-width="0.06mm" d="M631.2609,118.12078 C631.6002,118.29028 631.9275,118.4861 632.2787,118.629295 C633.1742,118.99443 634.88715,118.96922 635.5001,118.93113 C643.7255,118.419876 641.91046,118.65781 647.9924,117.010704 L647.9924,117.010704" /><path fill="none" stroke="#000000" stroke-width="0.06mm" d="M646.47253,116.733185 C648.6547,116.48784 650.2072,115.98965 651.7304,114.38273 C652.48346,113.588295 653.70825,111.76384 655.00726,111.39225 C659.6734,110.057465 661.2294,109.54066 665.66064,109.32451 C666.283,109.29414 666.904,109.40922 667.5257,109.45157 L667.5257,109.45157" /><path fill="none" stroke="#000000" stroke-width="0.06mm" d="M624.6925,156.59042 C632.1072,153.22551 625.33746,156.48438 632.6812,152.37363 C633.6296,151.84279 634.68805,151.50987 635.5956,150.91196 C636.83875,150.09294 638.035,149.1838 639.1005,148.14427 C641.6588,145.64856 644.03754,142.15721 644.9578,138.64787 C645.4162,136.89993 645.72565,129.20297 648.9482,127.32979 C649.52,126.99739 650.28265,126.79079 650.913,126.72891 C652.4371,126.579315 653.8003,126.44716 655.2623,126.739494 C655.95,126.877 656.61725,127.11094 657.30853,127.22892 C658.0837,127.361206 659.2196,127.251495 659.96606,127.21289 L659.96606,127.21289" /><path fill="none" stroke="#000000" stroke-width="0.06mm" d="M658.0113,126.88327 C661.4983,128.17274 663.76764,128.6065 666.55383,130.54541 C667.128,130.945 667.66876,131.40189 668.1428,131.91632 C672.55927,136.7089 676.8164,141.6464 681.2151,146.45523 C681.7456,147.0352 682.3557,147.53697 682.926,148.07784 C684.9713,150.7922 686.8529,153.63802 689.06177,156.22096 C692.706,160.48228 691.8597,158.33333 695.41174,161.34471 C698.4341,164.41699 697.0582,163.24823 699.3567,165.04863 L699.3567,165.04863" /><path fill="none" stroke="#000000" stroke-width="0.06mm" d="M697.7194,164.65005 C705.0414,176.26414 698.7534,165.75015 709.8789,192.97316 C710.1854,193.72304 711.178,194.80858 711.7413,195.33401 C711.9601,195.53812 712.18604,195.75998 712.4675,195.86168 C727.95013,201.45749 723.3738,200.4713 731.1618,201.95029 L731.1618,201.95029" /><path fill="none" stroke="#000000" stroke-width="0.06mm" d="M666.1405,108.66643 C673.6001,107.25395 681.38885,108.941925 688.73987,106.92988 C690.07043,106.56569 691.421,106.20944 692.6592,105.60103 C697.033,103.45163 701.1996,100.90112 705.5355,98.67615 C706.56287,98.14894 708.515,97.77953 709.6014,97.816315 C717.72406,98.09139 725.8414,98.52266 733.9554,98.98996 C735.5049,99.0792 735.8091,99.31834 737.10156,99.86545 L737.10156,99.86545" /><path fill="none" stroke="#000000" stroke-width="0.06mm" d="M730.05286,201.64282 C730.50183,200.99368 730.95087,200.34454 731.3999,199.6954 C732.6918,198.08162 734.2239,196.63365 735.2758,194.85406 C738.107,190.06454 740.80475,185.1706 743.0061,180.06094 C745.1045,175.19048 745.88165,169.80096 748.13745,165.00137 C750.4911,159.9936 754.15765,154.25082 758.4124,150.16307 C758.7931,149.7973 759.21875,149.45978 759.6974,149.23718 C766.4514,146.09645 773.288,143.13626 780.0833,140.0858 L780.0833,140.0858" /><path fill="none" stroke="#000000" stroke-width="0.06mm" d="M735.82306,98.82832 C736.50146,99.16277 737.14,99.58513 737.9056,99.6841 C738.50653,99.7618 739.7755,99.7435 740.3183,99.53857 C746.09216,97.35841 751.6773,94.670746 757.5344,92.72529 C763.0431,90.89557 768.7924,89.87863 774.3585,88.232025 C775.8519,87.790245 781.4731,84.716415 784.40356,85.557045 C785.34235,85.82634 786.2483,86.55489 786.83936,87.313675 C789.08264,90.19324 789.4337,90.95804 790.2048,94.637344 C790.319,95.18225 790.3618,95.747635 790.32544,96.30319 C790.1765,98.58187 789.8008,100.84189 789.6504,103.12047 C789.61664,103.63301 789.68506,104.15061 789.7743,104.65648 C790.21533,107.15889 790.5211,109.02017 791.5339,111.24115 C792.4005,113.14167 793.9518,114.94378 796.1578,115.0568 C796.4165,115.07005 796.67914,115.070786 796.9343,115.02618 C799.3972,114.59563 801.84143,114.0624 804.30444,113.632645 C805.9295,113.34911 807.5659,113.1353 809.19666,112.88663 L809.19666,112.88663" /><path fill="none" stroke="#000000" stroke-width="0.06mm" d="M778.6327,139.77208 C786.7241,135.53436 782.7428,137.25653 797.3328,133.58234 C798.1253,133.38278 798.9556,133.35207 799.7727,133.34297 C818.7258,133.13211 810.0162,133.93234 817.5323,133.1838 L817.5323,133.1838" /></g>
<g>
<line fill="none" stroke="#111111" stroke-width="0.04mm" x1="20.00" y1="182.00" x2="65.10" y2="157.98" />
<line fill="none" stroke="#111111" stroke-width="0.04mm" x1="65.10" y1="157.98" x2="131.57" y2="146.02" />
<line fill="none" stroke="#00aeef" stroke-width="0.04mm" stroke-dasharray="0.4,0.2" x1="131.57" y1="146.02" x2="146.93" y2="105.21" />
<line fill="none" stroke="#00aeef" stroke-width="0.04mm" stroke-dasharray="0.4,0.2" x1="131.57" y1="146.02" x2="162.82" y2="41.07" />
<line fill="none" stroke="#5674b9" stroke-width="0.04mm" stroke-dasharray="0.4,0.2" x1="131.57" y1="146.02" x2="133.05" y2="145.03" />
<line fill="none" stroke="#00aeef" stroke-width="0.04mm" stroke-dasharray="0.4,0.2" x1="131.57" y1="146.02" x2="129.38" y2="143.09" />
<line fill="none" stroke="#5674b9" stroke-width="0.04mm" stroke-dasharray="0.4,0.2" x1="131.57" y1="146.02" x2="148.51" y2="160.34" />
<line fill="none" stroke="#00aeef" stroke-width="0.04mm" stroke-dasharray="0.4,0.2" x1="131.57" y1="146.02" x2="151.98" y2="107.45" />
<line fill="none" stroke="#5674b9" stroke-width="0.04mm" stroke-dasharray="0.4,0.2" x1="131.57" y1="146.02" x2="114.22" y2="163.25" />
<line fill="none" stroke="#5674b9" stroke-width="0.04mm" stroke-dasharray="0.4,0.2" x1="131.57" y1="146.02" x2="123.12" y2="157.88" />
<line fill="none" stroke="#5674b9" stroke-width="0.04mm" stroke-dasharray="0.4,0.2" x1="131.57" y1="146.02" x2="106.61" y2="198.03" />
<line fill="none" stroke="#5674b9" stroke-width="0.04mm" stroke-dasharray="0.4,0.2" x1="131.57" y1="146.02" x2="140.60" y2="161.48" />
<line fill="none" stroke="#00aeef" stroke-width="0.04mm" stroke-dasharray="0.4,0.2" x1="131.57" y1="146.02" x2="161.76" y2="47.58" />
<line fill="none" stroke="#5674b9" stroke-width="0.04mm" stroke-dasharray="0.4,0.2" x1="131.57" y1="146.02" x2="118.32" y2="168.32" />
<line fill="none" stroke="#5674b9" stroke-width="0.04mm" stroke-dasharray="0.4,0.2" x1="131.57" y1="146.02" x2="118.62" y2="158.00" />
<line fill="none" stroke="#111111" stroke-width="0.04mm" x1="131.57" y1="146.02" x2="166.58" y2="152.29" />
<line fill="none" stroke="#00aeef" stroke-width="0.04mm" stroke-dasharray="0.4,0.2" x1="166.58" y1="152.29" x2="164.61" y2="152.55" />
<line fill="none" stroke="#5674b9" stroke-width="0.04mm" stroke-dasharray="0.4,0.2" x1="166.58" y1="152.29" x2="166.88" y2="163.46" />
<line fill="none" stroke="#5674b9" stroke-width="0.04mm" stroke-dasharray="0.4,0.2" x1="166.58" y1="152.29" x2="174.05" y2="178.38" />
<line fill="none" stroke="#00aeef" stroke-width="0.04mm" stroke-dasharray="0.4,0.2" x1="166.58" y1="152.29" x2="171.43" y2="77.50" />
<line fill="none" stroke="#111111" stroke-width="0.04mm" x1="166.58" y1="152.29" x2="227.41" y2="143.68" />
<line fill="none" stroke="#5674b9" stroke-width="0.04mm" stroke-dasharray="0.4,0.2" x1="227.41" y1="143.68" x2="219.85" y2="142.05" />
<line fill="none" stroke="#00aeef" stroke-width="0.04mm" stroke-dasharray="0.4,0.2" x1="227.41" y1="143.68" x2="222.27" y2="103.26" />
<line fill="none" stroke="#5674b9" stroke-width="0.04mm" stroke-dasharray="0.4,0.2" x1="227.41" y1="143.68" x2="216.41" y2="165.43" />
<line fill="none" stroke="#111111" stroke-width="0.04mm" x1="227.41" y1="143.68" x2="263.32" y2="134.99" />
<line fill="none" stroke="#00aeef" stroke-width="0.04mm" stroke-dasharray="0.4,0.2" x1="263.32" y1="134.99" x2="244.29" y2="130.30" />
<line fill="none" stroke="#00aeef" stroke-width="0.04mm" stroke-dasharray="0.4,0.2" x1="263.32" y1="134.99" x2="255.30" y2="132.12" />
<line fill="none" stroke="#5674b9" stroke-width="0.04mm" stroke-dasharray="0.4,0.2" x1="263.32" y1="134.99" x2="251.15" y2="163.06" />
<line fill="none" stroke="#00aeef" stroke-width="0.04mm" stroke-dasharray="0.4,0.2" x1="263.32" y1="134.99" x2="257.40" y2="103.72" />
<line fill="none" stroke="#00aeef" stroke-width="0.04mm" stroke-dasharray="0.4,0.2" x1="263.32" y1="134.99" x2="318.07" y2="70.03" />
<line fill="none" stroke="#00aeef" stroke-width="0.04mm" stroke-dasharray="0.4,0.2" x1="263.32" y1="134.99" x2="308.86" y2="125.11" />
<line fill="none" stroke="#111111" stroke-width="0.04mm" x1="263.32" y1="134.99" x2="307.88" y2="126.06" />
<line fill="none" stroke="#5674b9" stroke-width="0.04mm" stroke-dasharray="0.4,0.2" x1="307.88" y1="126.06" x2="288.05" y2="125.44" />
<line fill="none" stroke="#00aeef" stroke-width="0.04mm" stroke-dasharray="0.4,0.2" x1="307.88" y1="126.06" x2="313.97" y2="126.00" />
<line fill="none" stroke="#00aeef" stroke-width="0.04mm" stroke-dasharray="0.4,0.2" x1="307.88" y1="126.06" x2="306.95" y2="132.97" />
<line fill="none" stroke="#5674b9" stroke-width="0.04mm" stroke-dasharray="0.4,0.2" x1="307.88" y1="126.06" x2="293.30" y2="94.99" />
<line fill="none" stroke="#5674b9" stroke-width="0.04mm" stroke-dasharray="0.4,0.2" x1="307.88" y1="126.06" x2="284.85" y2="93.36" />
<line fill="none" stroke="#5674b9" stroke-width="0.04mm" stroke-dasharray="0.4,0.2" x1="307.88" y1="126.06" x2="306.03" y2="118.99" />
<line fill="none" stroke="#5674b9" stroke-width="0.04mm" stroke-dasharray="0.4,0.2" x1="307.88" y1="126.06" x2="287.27" y2="93.30" />
<line fill="none" stroke="#5674b9" stroke-width="0.04mm" stroke-dasharray="0.4,0.2" x1="307.88" y1="126.06" x2="282.31" y2="98.37" />
<line fill="none" stroke="#5674b9" stroke-width="0.04mm" stroke-dasharray="0.4,0.2" x1="307.88" y1="126.06" x2="288.94" y2="94.91" />
<line fill="none" stroke="#111111" stroke-width="0.04mm" x1="307.88" y1="126.06" x2="343.47" y2="145.13" />
<line fill="none" stroke="#00aeef" stroke-width="0.04mm" stroke-dasharray="0.4,0.2" x1="343.47" y1="145.13" x2="338.31" y2="144.23" />
<line fill="none" stroke="#5674b9" stroke-width="0.04mm" stroke-dasharray="0.4,0.2" x1="343.47" y1="145.13" x2="345.48" y2="145.67" />
<line fill="none" stroke="#5674b9" stroke-width="0.04mm" stroke-dasharray="0.4,0.2" x1="343.47" y1="145.13" x2="347.56" y2="165.95" />
<line fill="none" stroke="#5674b9" stroke-width="0.04mm" stroke-dasharray="0.4,0.2" x1="343.47" y1="145.13" x2="339.96" y2="161.52" />
<line fill="none" stroke="#5674b9" stroke-width="0.04mm" stroke-dasharray="0.4,0.2" x1="343.47" y1="145.13" x2="343.29" y2="167.33" />
<line fill="none" stroke="#00aeef" stroke-width="0.04mm" stroke-dasharray="0.4,0.2" x1="343.47" y1="145.13" x2="342.60" y2="162.45" />
<line fill="none" stroke="#00aeef" stroke-width="0.04mm" stroke-dasharray="0.4,0.2" x1="343.47" y1="145.13" x2="347.38" y2="101.06" />
<line fill="none" stroke="#111111" stroke-width="0.04mm" x1="343.47" y1="145.13" x2="408.46" y2="148.90" />
<line fill="none" stroke="#5674b9" stroke-width="0.04mm" stroke-dasharray="0.4,0.2" x1="408.46" y1="148.90" x2="375.63" y2="162.11" />
<line fill="none" stroke="#00aeef" stroke-width="0.04mm" stroke-dasharray="0.4,0.2" x1="408.46" y1="148.90" x2="404.62" y2="148.63" />
<line fill="none" stroke="#00aeef" stroke-width="0.04mm" stroke-dasharray="0.4,0.2" x1="408.46" y1="148.90" x2="407.07" y2="146.27" />
<line fill="none" stroke="#5674b9" stroke-width="0.04mm" stroke-dasharray="0.4,0.2" x1="408.46" y1="148.90" x2="400.26" y2="109.62" />
<line fill="none" stroke="#5674b9" stroke-width="0.04mm" stroke-dasharray="0.4,0.2" x1="408.46" y1="148.90" x2="403.40" y2="167.39" />
<line fill="none" stroke="#111111" stroke-width="0.04mm" x1="408.46" y1="148.90" x2="431.47" y2="150.27" />
<line fill="none" stroke="#5674b9" stroke-width="0.04mm" stroke-dasharray="0.4,0.2" x1="431.47" y1="150.27" x2="424.97" y2="149.85" />
<line fill="none" stroke="#5674b9" stroke-width="0.04mm" stroke-dasharray="0.4,0.2" x1="431.47" y1="150.27" x2="426.08" y2="167.21" />
<line fill="none" stroke="#5674b9" stroke-width="0.04mm" stroke-dasharray="0.4,0.2" x1="431.47" y1="150.27" x2="422.94" y2="130.27" />
<line fill="none" stroke="#00aeef" stroke-width="0.04mm" stroke-dasharray="0.4,0.2" x1="431.47" y1="150.27" x2="437.70" y2="67.12" />
<line fill="none" stroke="#111111" stroke-width="0.04mm" x1="431.47" y1="150.27" x2="466.99" y2="159.37" />
<line fill="none" stroke="#00aeef" stroke-width="0.04mm" stroke-dasharray="0.4,0.2" x1="466.99" y1="159.37" x2="465.24" y2="157.89" />
<line fill="none" stroke="#00aeef" stroke-width="0.04mm" stroke-dasharray="0.4,0.2" x1="466.99" y1="159.37" x2="464.57" y2="142.51" />
<line fill="none" stroke="#00aeef" stroke-width="0.04mm" stroke-dasharray="0.4,0.2" x1="466.99" y1="159.37" x2="470.53" y2="175.94" />
<line fill="none" stroke="#00aeef" stroke-width="0.04mm" stroke-dasharray="0.4,0.2" x1="466.99" y1="159.37" x2="468.94" y2="174.13" />
<line fill="none" stroke="#111111" stroke-width="0.04mm" x1="466.99" y1="159.37" x2="482.65" y2="157.55" />
<line fill="none" stroke="#00aeef" stroke-width="0.04mm" stroke-dasharray="0.4,0.2" x1="482.65" y1="157.55" x2="474.45" y2="158.04" />
<line fill="none" stroke="#00aeef" stroke-width="0.04mm" stroke-dasharray="0.4,0.2" x1="482.65" y1="157.55" x2="476.12" y2="157.73" />
<line fill="none" stroke="#00aeef" stroke-width="0.04mm" stroke-dasharray="0.4,0.2" x1="482.65" y1="157.55" x2="486.82" y2="96.28" />
<line fill="none" stroke="#00aeef" stroke-width="0.04mm" stroke-dasharray="0.4,0.2" x1="482.65" y1="157.55" x2="479.49" y2="124.04" />
<line fill="none" stroke="#00aeef" stroke-width="0.04mm" stroke-dasharray="0.4,0.2" x1="482.65" y1="157.55" x2="504.75" y2="107.66" />
<line fill="none" stroke="#00aeef" stroke-width="0.04mm" stroke-dasharray="0.4,0.2" x1="482.65" y1="157.55" x2="502.86" y2="104.44" />
<line fill="none" stroke="#00aeef" stroke-width="0.04mm" stroke-dasharray="0.4,0.2" x1="482.65" y1="157.55" x2="481.58" y2="171.64" />
<line fill="none" stroke="#111111" stroke-width="0.04mm" x1="482.65" y1="157.55" x2="526.97" y2="112.97" />
<line fill="none" stroke="#00aeef" stroke-width="0.04mm" stroke-dasharray="0.4,0.2" x1="526.97" y1="112.97" x2="492.98" y2="104.87" />
<line fill="none" stroke="#5674b9" stroke-width="0.04mm" stroke-dasharray="0.4,0.2" x1="526.97" y1="112.97" x2="508.88" y2="112.95" />
<line fill="none" stroke="#00aeef" stroke-width="0.04mm" stroke-dasharray="0.4,0.2" x1="526.97" y1="112.97" x2="525.23" y2="110.53" />
<line fill="none" stroke="#00aeef" stroke-width="0.04mm" stroke-dasharray="0.4,0.2" x1="526.97" y1="112.97" x2="528.36" y2="113.11" />
<line fill="none" stroke="#5674b9" stroke-width="0.04mm" stroke-dasharray="0.4,0.2" x1="526.97" y1="112.97" x2="526.32" y2="104.20" />
<line fill="none" stroke="#00aeef" stroke-width="0.04mm" stroke-dasharray="0.4,0.2" x1="526.97" y1="112.97" x2="496.34" y2="86.50" />
<line fill="none" stroke="#5674b9" stroke-width="0.04mm" stroke-dasharray="0.4,0.2" x1="526.97" y1="112.97" x2="513.95" y2="155.37" />
<line fill="none" stroke="#5674b9" stroke-width="0.04mm" stroke-dasharray="0.4,0.2" x1="526.97" y1="112.97" x2="528.86" y2="135.93" />
<line fill="none" stroke="#5674b9" stroke-width="0.04mm" stroke-dasharray="0.4,0.2" x1="526.97" y1="112.97" x2="518.30" y2="134.52" />
<line fill="none" stroke="#111111" stroke-width="0.04mm" x1="526.97" y1="112.97" x2="556.24" y2="104.45" />
<line fill="none" stroke="#00aeef" stroke-width="0.04mm" stroke-dasharray="0.4,0.2" x1="556.24" y1="104.45" x2="551.03" y2="103.91" />
<line fill="none" stroke="#00aeef" stroke-width="0.04mm" stroke-dasharray="0.4,0.2" x1="556.24" y1="104.45" x2="555.38" y2="89.16" />
<line fill="none" stroke="#00aeef" stroke-width="0.04mm" stroke-dasharray="0.4,0.2" x1="556.24" y1="104.45" x2="557.05" y2="89.56" />
<line fill="none" stroke="#00aeef" stroke-width="0.04mm" stroke-dasharray="0.4,0.2" x1="556.24" y1="104.45" x2="556.51" y2="118.22" />
<line fill="none" stroke="#111111" stroke-width="0.04mm" x1="556.24" y1="104.45" x2="589.47" y2="101.13" />
<line fill="none" stroke="#00aeef" stroke-width="0.04mm" stroke-dasharray="0.4,0.2" x1="589.47" y1="101.13" x2="584.12" y2="103.72" />
<line fill="none" stroke="#00aeef" stroke-width="0.04mm" stroke-dasharray="0.4,0.2" x1="589.47" y1="101.13" x2="592.57" y2="102.25" />
<line fill="none" stroke="#00aeef" stroke-width="0.04mm" stroke-dasharray="0.4,0.2" x1="589.47" y1="101.13" x2="608.51" y2="95.92" />
<line fill="none" stroke="#5674b9" stroke-width="0.04mm" stroke-dasharray="0.4,0.2" x1="589.47" y1="101.13" x2="578.84" y2="101.80" />
<line fill="none" stroke="#00aeef" stroke-width="0.04mm" stroke-dasharray="0.4,0.2" x1="589.47" y1="101.13" x2="588.61" y2="116.22" />
<line fill="none" stroke="#00aeef" stroke-width="0.04mm" stroke-dasharray="0.4,0.2" x1="589.47" y1="101.13" x2="592.54" y2="83.26" />
<line fill="none" stroke="#00aeef" stroke-width="0.04mm" stroke-dasharray="0.4,0.2" x1="589.47" y1="101.13" x2="588.26" y2="92.87" />
<line fill="none" stroke="#00aeef" stroke-width="0.04mm" stroke-dasharray="0.4,0.2" x1="589.47" y1="101.13" x2="583.14" y2="86.38" />
<line fill="none" stroke="#111111" stroke-width="0.04mm" x1="589.47" y1="101.13" x2="617.88" y2="112.95" />
<line fill="none" stroke="#00aeef" stroke-width="0.04mm" stroke-dasharray="0.4,0.2" x1="617.88" y1="112.95" x2="628.87" y2="109.94" />
<line fill="none" stroke="#00aeef" stroke-width="0.04mm" stroke-dasharray="0.4,0.2" x1="617.88" y1="112.95" x2="611.25" y2="108.71" />
<line fill="none" stroke="#00aeef" stroke-width="0.04mm" stroke-dasharray="0.4,0.2" x1="617.88" y1="112.95" x2="618.68" y2="97.88" />
<line fill="none" stroke="#00aeef" stroke-width="0.04mm" stroke-dasharray="0.4,0.2" x1="617.88" y1="112.95" x2="618.10" y2="151.24" />
<line fill="none" stroke="#00aeef" stroke-width="0.04mm" stroke-dasharray="0.4,0.2" x1="617.88" y1="112.95" x2="620.73" y2="152.51" />
<line fill="none" stroke="#00aeef" stroke-width="0.04mm" stroke-dasharray="0.4,0.2" x1="617.88" y1="112.95" x2="619.57" y2="152.01" />
<line fill="none" stroke="#00aeef" stroke-width="0.04mm" stroke-dasharray="0.4,0.2" x1="617.88" y1="112.95" x2="619.44" y2="96.78" />
<line fill="none" stroke="#00aeef" stroke-width="0.04mm" stroke-dasharray="0.4,0.2" x1="617.88" y1="112.95" x2="619.26" y2="97.43" />
<line fill="none" stroke="#00aeef" stroke-width="0.04mm" stroke-dasharray="0.4,0.2" x1="617.88" y1="112.95" x2="613.07" y2="123.23" />
<line fill="none" stroke="#00aeef" stroke-width="0.04mm" stroke-dasharray="0.4,0.2" x1="617.88" y1="112.95" x2="612.70" y2="123.72" />
<line fill="none" stroke="#00aeef" stroke-width="0.04mm" stroke-dasharray="0.4,0.2" x1="617.88" y1="112.95" x2="612.39" y2="123.32" />
<line fill="none" stroke="#00aeef" stroke-width="0.04mm" stroke-dasharray="0.4,0.2" x1="617.88" y1="112.95" x2="613.32" y2="121.63" />
<line fill="none" stroke="#00aeef" stroke-width="0.04mm" stroke-dasharray="0.4,0.2" x1="617.88" y1="112.95" x2="615.33" y2="123.50" />
<line fill="none" stroke="#111111" stroke-width="0.04mm" x1="617.88" y1="112.95" x2="652.20" y2="117.15" />
<line fill="none" stroke="#5674b9" stroke-width="0.04mm" stroke-dasharray="0.4,0.2" x1="652.20" y1="117.15" x2="650.57" y2="117.35" />
<line fill="none" stroke="#5674b9" stroke-width="0.04mm" stroke-dasharray="0.4,0.2" x1="652.20" y1="117.15" x2="654.72" y2="128.78" />
<line fill="none" stroke="#5674b9" stroke-width="0.04mm" stroke-dasharray="0.4,0.2" x1="652.20" y1="117.15" x2="654.33" y2="111.33" />
<line fill="none" stroke="#5674b9" stroke-width="0.04mm" stroke-dasharray="0.4,0.2" x1="652.20" y1="117.15" x2="701.38" y2="155.85" />
<line fill="none" stroke="#5674b9" stroke-width="0.04mm" stroke-dasharray="0.4,0.2" x1="652.20" y1="117.15" x2="701.55" y2="156.08" />
<line fill="none" stroke="#5674b9" stroke-width="0.04mm" stroke-dasharray="0.4,0.2" x1="652.20" y1="117.15" x2="704.51" y2="158.40" />
<line fill="none" stroke="#5674b9" stroke-width="0.04mm" stroke-dasharray="0.4,0.2" x1="652.20" y1="117.15" x2="701.38" y2="155.82" />
<line fill="none" stroke="#111111" stroke-width="0.04mm" x1="652.20" y1="117.15" x2="690.16" y2="149.23" />
<line fill="none" stroke="#00aeef" stroke-width="0.04mm" stroke-dasharray="0.4,0.2" x1="690.16" y1="149.23" x2="687.66" y2="147.48" />
<line fill="none" stroke="#00aeef" stroke-width="0.04mm" stroke-dasharray="0.4,0.2" x1="690.16" y1="149.23" x2="688.40" y2="145.80" />
<line fill="none" stroke="#00aeef" stroke-width="0.04mm" stroke-dasharray="0.4,0.2" x1="690.16" y1="149.23" x2="692.98" y2="159.84" />
<line fill="none" stroke="#00aeef" stroke-width="0.04mm" stroke-dasharray="0.4,0.2" x1="690.16" y1="149.23" x2="685.96" y2="114.57" />
<line fill="none" stroke="#111111" stroke-width="0.04mm" x1="690.16" y1="149.23" x2="720.43" y2="152.29" />
<line fill="none" stroke="#5674b9" stroke-width="0.04mm" stroke-dasharray="0.4,0.2" x1="720.43" y1="152.29" x2="711.56" y2="178.03" />
<line fill="none" stroke="#5674b9" stroke-width="0.04mm" stroke-dasharray="0.4,0.2" x1="720.43" y1="152.29" x2="709.57" y2="185.44" />
<line fill="none" stroke="#5674b9" stroke-width="0.04mm" stroke-dasharray="0.4,0.2" x1="720.43" y1="152.29" x2="712.55" y2="195.03" />
<line fill="none" stroke="#00aeef" stroke-width="0.04mm" stroke-dasharray="0.4,0.2" x1="720.43" y1="152.29" x2="710.74" y2="151.50" />
<line fill="none" stroke="#00aeef" stroke-width="0.04mm" stroke-dasharray="0.4,0.2" x1="720.43" y1="152.29" x2="711.19" y2="97.22" />
<line fill="none" stroke="#00aeef" stroke-width="0.04mm" stroke-dasharray="0.4,0.2" x1="720.43" y1="152.29" x2="718.95" y2="170.64" />
<line fill="none" stroke="#111111" stroke-width="0.04mm" x1="720.43" y1="152.29" x2="757.43" y2="137.59" />
<line fill="none" stroke="#5674b9" stroke-width="0.04mm" stroke-dasharray="0.4,0.2" x1="757.43" y1="137.59" x2="756.92" y2="137.27" />
<line fill="none" stroke="#5674b9" stroke-width="0.04mm" stroke-dasharray="0.4,0.2" x1="757.43" y1="137.59" x2="765.29" y2="98.70" />
<line fill="none" stroke="#5674b9" stroke-width="0.04mm" stroke-dasharray="0.4,0.2" x1="757.43" y1="137.59" x2="755.72" y2="150.33" />
<line fill="none" stroke="#111111" stroke-width="0.04mm" x1="757.43" y1="137.59" x2="779.52" y2="130.99" />
<line fill="none" stroke="#5674b9" stroke-width="0.04mm" stroke-dasharray="0.4,0.2" x1="779.52" y1="130.99" x2="779.39" y2="130.24" />
<line fill="none" stroke="#5674b9" stroke-width="0.04mm" stroke-dasharray="0.4,0.2" x1="779.52" y1="130.99" x2="781.34" y2="136.29" />
<line fill="none" stroke="#5674b9" stroke-width="0.04mm" stroke-dasharray="0.4,0.2" x1="779.52" y1="130.99" x2="784.72" y2="88.95" />
<line fill="none" stroke="#111111" stroke-width="0.04mm" x1="779.52" y1="130.99" x2="797.01" y2="123.34" />
<line fill="none" stroke="#5674b9" stroke-width="0.04mm" stroke-dasharray="0.4,0.2" x1="797.01" y1="123.34" x2="790.58" y2="123.53" />
<line fill="none" stroke="#5674b9" stroke-width="0.04mm" stroke-dasharray="0.4,0.2" x1="797.01" y1="123.34" x2="793.61" y2="114.91" />
<line fill="none" stroke="#5674b9" stroke-width="0.04mm" stroke-dasharray="0.4,0.2" x1="797.01" y1="123.34" x2="796.94" y2="133.96" />
<line fill="none" stroke="#111111" stroke-width="0.04mm" x1="589.47" y1="101.13" x2="628.56" y2="106.66" />
<line fill="none" stroke="#00aeef" stroke-width="0.04mm" stroke-dasharray="0.4,0.2" x1="628.56" y1="106.66" x2="628.23" y2="111.68" />
<line fill="none" stroke="#00aeef" stroke-width="0.04mm" stroke-dasharray="0.4,0.2" x1="628.56" y1="106.66" x2="625.97" y2="108.56" />
<line fill="none" stroke="#00aeef" stroke-width="0.04mm" stroke-dasharray="0.4,0.2" x1="628.56" y1="106.66" x2="628.98" y2="80.57" />
<line fill="none" stroke="#00aeef" stroke-width="0.04mm" stroke-dasharray="0.4,0.2" x1="628.56" y1="106.66" x2="631.02" y2="116.11" />
<line fill="none" stroke="#111111" stroke-width="0.04mm" x1="628.56" y1="106.66" x2="649.13" y2="123.94" />
<line fill="none" stroke="#5674b9" stroke-width="0.04mm" stroke-dasharray="0.4,0.2" x1="649.13" y1="123.94" x2="649.99" y2="113.70" />
<line fill="none" stroke="#00aeef" stroke-width="0.04mm" stroke-dasharray="0.4,0.2" x1="649.13" y1="123.94" x2="647.82" y2="127.89" />
<line fill="none" stroke="#00aeef" stroke-width="0.04mm" stroke-dasharray="0.4,0.2" x1="649.13" y1="123.94" x2="644.89" y2="122.09" />
<line fill="none" stroke="#5674b9" stroke-width="0.04mm" stroke-dasharray="0.4,0.2" x1="649.13" y1="123.94" x2="652.54" y2="121.94" />
<line fill="none" stroke="#111111" stroke-width="0.04mm" x1="649.13" y1="123.94" x2="669.29" y2="120.82" />
<line fill="none" stroke="#00aeef" stroke-width="0.04mm" stroke-dasharray="0.4,0.2" x1="669.29" y1="120.82" x2="666.22" y2="118.45" />
<line fill="none" stroke="#00aeef" stroke-width="0.04mm" stroke-dasharray="0.4,0.2" x1="669.29" y1="120.82" x2="666.06" y2="132.83" />
<line fill="none" stroke="#5674b9" stroke-width="0.04mm" stroke-dasharray="0.4,0.2" x1="669.29" y1="120.82" x2="674.20" y2="85.44" />
<line fill="none" stroke="#00aeef" stroke-width="0.04mm" stroke-dasharray="0.4,0.2" x1="669.29" y1="120.82" x2="673.80" y2="90.89" />
<line fill="none" stroke="#00aeef" stroke-width="0.04mm" stroke-dasharray="0.4,0.2" opacity="0.12" x1="669.29" y1="120.82" x2="669.29" y2="134.46" />
<line fill="none" stroke="#00aeef" stroke-width="0.04mm" stroke-dasharray="0.4,0.2" x1="669.29" y1="120.82" x2="667.96" y2="134.06" />
<line fill="none" stroke="#00aeef" stroke-width="0.04mm" stroke-dasharray="0.4,0.2" x1="669.29" y1="120.82" x2="668.28" y2="129.12" />
<line fill="none" stroke="#00aeef" stroke-width="0.04mm" stroke-dasharray="0.4,0.2" x1="669.29" y1="120.82" x2="687.90" y2="164.48" />
<line fill="none" stroke="#00aeef" stroke-width="0.04mm" stroke-dasharray="0.4,0.2" x1="669.29" y1="120.82" x2="668.92" y2="130.49" />
<line fill="none" stroke="#00aeef" stroke-width="0.04mm" stroke-dasharray="0.4,0.2" x1="669.29" y1="120.82" x2="668.35" y2="130.27" />
<line fill="none" stroke="#00aeef" stroke-width="0.04mm" stroke-dasharray="0.4,0.2" x1="669.29" y1="120.82" x2="669.99" y2="130.90" />
<line fill="none" stroke="#00aeef" stroke-width="0.04mm" stroke-dasharray="0.4,0.2" x1="669.29" y1="120.82" x2="669.50" y2="132.12" />
<line fill="none" stroke="#00aeef" stroke-width="0.04mm" stroke-dasharray="0.4,0.2" x1="669.29" y1="120.82" x2="669.62" y2="136.45" />
<line fill="none" stroke="#00aeef" stroke-width="0.04mm" stroke-dasharray="0.4,0.2" x1="669.29" y1="120.82" x2="670.64" y2="136.56" />
<line fill="none" stroke="#00aeef" stroke-width="0.04mm" stroke-dasharray="0.4,0.2" x1="669.29" y1="120.82" x2="668.31" y2="112.70" />
<line fill="none" stroke="#00aeef" stroke-width="0.04mm" stroke-dasharray="0.4,0.2" x1="669.29" y1="120.82" x2="668.31" y2="112.85" />
<line fill="none" stroke="#00aeef" stroke-width="0.04mm" stroke-dasharray="0.4,0.2" x1="669.29" y1="120.82" x2="668.32" y2="112.86" />
<line fill="none" stroke="#111111" stroke-width="0.04mm" x1="669.29" y1="120.82" x2="680.06" y2="112.81" />
<line fill="none" stroke="#111111" stroke-width="0.04mm" x1="628.56" y1="106.66" x2="656.84" y2="93.59" />
<line fill="none" stroke="#00aeef" stroke-width="0.04mm" stroke-dasharray="0.4,0.2" x1="656.84" y1="93.59" x2="631.17" y2="92.68" />
<line fill="none" stroke="#5674b9" stroke-width="0.04mm" stroke-dasharray="0.4,0.2" x1="656.84" y1="93.59" x2="670.81" y2="90.90" />
<line fill="none" stroke="#00aeef" stroke-width="0.04mm" stroke-dasharray="0.4,0.2" x1="656.84" y1="93.59" x2="664.37" y2="102.08" />
<line fill="none" stroke="#00aeef" stroke-width="0.04mm" stroke-dasharray="0.4,0.2" x1="656.84" y1="93.59" x2="667.99" y2="95.42" />
<line fill="none" stroke="#5674b9" stroke-width="0.04mm" stroke-dasharray="0.4,0.2" x1="656.84" y1="93.59" x2="650.40" y2="74.09" />
<line fill="none" stroke="#5674b9" stroke-width="0.04mm" stroke-dasharray="0.4,0.2" x1="656.84" y1="93.59" x2="673.44" y2="19.50" />
<line fill="none" stroke="#111111" stroke-width="0.04mm" x1="656.84" y1="93.59" x2="687.29" y2="87.99" />
<line fill="none" stroke="#5674b9" stroke-width="0.04mm" stroke-dasharray="0.4,0.2" x1="687.29" y1="87.99" x2="688.81" y2="87.54" />
<line fill="none" stroke="#00aeef" stroke-width="0.04mm" stroke-dasharray="0.4,0.2" x1="687.29" y1="87.99" x2="687.17" y2="87.96" />
<line fill="none" stroke="#00aeef" stroke-width="0.04mm" stroke-dasharray="0.4,0.2" x1="687.29" y1="87.99" x2="689.29" y2="78.82" />
<line fill="none" stroke="#5674b9" stroke-width="0.04mm" stroke-dasharray="0.4,0.2" x1="687.29" y1="87.99" x2="693.54" y2="105.60" />
<line fill="none" stroke="#111111" stroke-width="0.04mm" x1="687.29" y1="87.99" x2="710.14" y2="80.14" />
<line fill="none" stroke="#00aeef" stroke-width="0.04mm" stroke-dasharray="0.4,0.2" x1="710.14" y1="80.14" x2="714.06" y2="93.36" />
<line fill="none" stroke="#00aeef" stroke-width="0.04mm" stroke-dasharray="0.4,0.2" opacity="0.05" x1="710.14" y1="80.14" x2="710.14" y2="77.58" />
<line fill="none" stroke="#5674b9" stroke-width="0.04mm" stroke-dasharray="0.4,0.2" x1="710.14" y1="80.14" x2="711.02" y2="79.94" />
<line fill="none" stroke="#5674b9" stroke-width="0.04mm" stroke-dasharray="0.4,0.2" x1="710.14" y1="80.14" x2="717.77" y2="95.62" />
<line fill="none" stroke="#5674b9" stroke-width="0.04mm" stroke-dasharray="0.4,0.2" x1="710.14" y1="80.14" x2="713.86" y2="103.55" />
<line fill="none" stroke="#5674b9" stroke-width="0.04mm" stroke-dasharray="0.4,0.2" x1="710.14" y1="80.14" x2="711.92" y2="111.89" />
<line fill="none" stroke="#5674b9" stroke-width="0.04mm" stroke-dasharray="0.4,0.2" x1="710.14" y1="80.14" x2="708.72" y2="71.98" />
<line fill="none" stroke="#111111" stroke-width="0.04mm" x1="710.14" y1="80.14" x2="725.00" y2="63.12" />
<line fill="none" stroke="#00aeef" stroke-width="0.04mm" stroke-dasharray="0.4,0.2" x1="725.00" y1="63.12" x2="725.98" y2="53.18" />
<line fill="none" stroke="#00aeef" stroke-width="0.04mm" stroke-dasharray="0.4,0.2" x1="725.00" y1="63.12" x2="725.34" y2="70.44" />
<line fill="none" stroke="#00aeef" stroke-width="0.04mm" stroke-dasharray="0.4,0.2" x1="725.00" y1="63.12" x2="726.22" y2="107.47" />
<line fill="none" stroke="#00aeef" stroke-width="0.04mm" stroke-dasharray="0.4,0.2" x1="725.00" y1="63.12" x2="723.68" y2="62.89" />
<line fill="none" stroke="#00aeef" stroke-width="0.04mm" stroke-dasharray="0.4,0.2" x1="725.00" y1="63.12" x2="728.07" y2="107.21" />
<line fill="none" stroke="#111111" stroke-width="0.04mm" x1="725.00" y1="63.12" x2="749.03" y2="52.10" />
<line fill="none" stroke="#00aeef" stroke-width="0.04mm" stroke-dasharray="0.4,0.2" x1="749.03" y1="52.10" x2="747.73" y2="51.79" />
<line fill="none" stroke="#00aeef" stroke-width="0.04mm" stroke-dasharray="0.4,0.2" x1="749.03" y1="52.10" x2="747.94" y2="48.70" />
<line fill="none" stroke="#00aeef" stroke-width="0.04mm" stroke-dasharray="0.4,0.2" x1="749.03" y1="52.10" x2="755.45" y2="102.12" />
<line fill="none" stroke="#5674b9" stroke-width="0.04mm" stroke-dasharray="0.4,0.2" x1="749.03" y1="52.10" x2="753.33" y2="52.79" />
<line fill="none" stroke="#111111" stroke-width="0.04mm" x1="749.03" y1="52.10" x2="784.40" y2="46.26" />
<line fill="none" stroke="#00aeef" stroke-width="0.04mm" stroke-dasharray="0.4,0.2" x1="784.40" y1="46.26" x2="788.08" y2="59.99" />
<line fill="none" stroke="#00aeef" stroke-width="0.04mm" stroke-dasharray="0.4,0.2" x1="784.40" y1="46.26" x2="784.89" y2="96.00" />
<line fill="none" stroke="#5674b9" stroke-width="0.04mm" stroke-dasharray="0.4,0.2" x1="784.40" y1="46.26" x2="784.77" y2="44.26" />
<line fill="none" stroke="#00aeef" stroke-width="0.04mm" stroke-dasharray="0.4,0.2" x1="784.40" y1="46.26" x2="804.29" y2="47.10" />
</g>
<g>
<circle cx="20.00" cy="182.00" r="0.1" fill="#111111" />
<circle cx="65.10" cy="157.98" r="0.1" fill="#111111" />
<circle cx="131.57" cy="146.02" r="0.1" fill="#111111" />
<circle cx="166.58" cy="152.29" r="0.1" fill="#111111" />
<circle cx="227.41" cy="143.68" r="0.1" fill="#111111" />
<circle cx="263.32" cy="134.99" r="0.1" fill="#111111" />
<circle cx="307.88" cy="126.06" r="0.1" fill="#111111" />
<circle cx="343.47" cy="145.13" r="0.1" fill="#111111" />
<circle cx="408.46" cy="148.90" r="0.1" fill="#111111" />
<circle cx="431.47" cy="150.27" r="0.1" fill="#111111" />
<circle cx="466.99" cy="159.37" r="0.1" fill="#111111" />
<circle cx="482.65" cy="157.55" r="0.1" fill="#111111" />
<circle cx="526.97" cy="112.97" r="0.1" fill="#111111" />
<circle cx="556.24" cy="104.45" r="0.1" fill="#111111" />
<circle cx="589.47" cy="101.13" r="0.1" fill="#111111" />
<circle cx="617.88" cy="112.95" r="0.1" fill="#111111" />
<circle cx="652.20" cy="117.15" r="0.1" fill="#111111" />
<circle cx="690.16" cy="149.23" r="0.1" fill="#111111" />
<circle cx="720.43" cy="152.29" r="0.1" fill="#111111" />
<circle cx="757.43" cy="137.59" r="0.1" fill="#111111" />
<circle cx="779.52" cy="130.99" r="0.1" fill="#111111" />
<circle cx="797.01" cy="123.34" r="0.1" fill="#111111" />
<circle cx="628.56" cy="106.66" r="0.1" fill="#111111" />
<circle cx="649.13" cy="123.94" r="0.1" fill="#111111" />
<circle cx="669.29" cy="120.82" r="0.1" fill="#111111" />
<circle cx="680.06" cy="112.81" r="0.1" fill="#111111" />
<circle cx="656.84" cy="93.59" r="0.1" fill="#111111" />
<circle cx="687.29" cy="87.99" r="0.1" fill="#111111" />
<circle cx="710.14" cy="80.14" r="0.1" fill="#111111" />
<circle cx="725.00" cy="63.12" r="0.1" fill="#111111" />
<circle cx="749.03" cy="52.10" r="0.1" fill="#111111" />
<circle cx="784.40" cy="46.26" r="0.1" fill="#111111" />
</g>
<g>
<text x="20.20" y="182.00" font-size=".2mm" fill="#000000">0</text>
<text x="65.30" y="157.98" font-size=".2mm" fill="#000000">1</text>
<text x="131.77" y="146.02" font-size=".2mm" fill="#000000">2</text>
<text x="166.78" y="152.29" font-size=".2mm" fill="#000000">3</text>
<text x="227.61" y="143.68" font-size=".2mm" fill="#000000">4</text>
<text x="263.52" y="134.99" font-size=".2mm" fill="#000000">5</text>
<text x="308.08" y="126.06" font-size=".2mm" fill="#000000">6</text>
<text x="343.67" y="145.13" font-size=".2mm" fill="#000000">7</text>
<text x="408.66" y="148.90" font-size=".2mm" fill="#000000">8</text>
<text x="431.67" y="150.27" font-size=".2mm" fill="#000000">9</text>
<text x="467.19" y="159.37" font-size=".2mm" fill="#000000">10</text>
<text x="482.85" y="157.55" font-size=".2mm" fill="#000000">11</text>
<text x="527.17" y="112.97" font-size=".2mm" fill="#000000">12</text>
<text x="556.44" y="104.45" font-size=".2mm" fill="#000000">13</text>
<text x="589.67" y="101.13" font-size=".2mm" fill="#000000">14</text>
<text x="618.08" y="112.95" font-size=".2mm" fill="#000000">15</text>
<text x="652.40" y="117.15" font-size=".2mm" fill="#000000">16</text>
<text x="690.36" y="149.23" font-size=".2mm" fill="#000000">17</text>
<text x="720.63" y="152.29" font-size=".2mm" fill="#000000">18</text>
<text x="757.63" y="137.59" font-size=".2mm" fill="#000000">19</text>
<text x="779.72" y="130.99" font-size=".2mm" fill="#000000">20</text>
<text x="797.21" y="123.34" font-size=".2mm" fill="#000000">21</text>
<text x="628.76" y="106.66" font-size=".2mm" fill="#000000">14.1</text>
<text x="649.33" y="123.94" font-size=".2mm" fill="#000000">14.2</text>
<text x="669.49" y="120.82" font-size=".2mm" fill="#000000">14.3</text>
<text x="680.26" y="112.81" font-size=".2mm" fill="#000000">14.4</text>
<text x="657.04" y="93.59" font-size=".2mm" fill="#000000">14.1.1</text>
<text x="687.49" y="87.99" font-size=".2mm" fill="#000000">14.1.2</text>
<text x="710.34" y="80.14" font-size=".2mm" fill="#000000">14.1.3</text>
<text x="725.20" y="63.12" font-size=".2mm" fill="#000000">14.1.4</text>
<text x="749.23" y="52.10" font-size=".2mm" fill="#000000">14.1.5</text>
<text x="784.60" y="46.26" font-size=".2mm" fill="#000000">14.1.6</text>
</g>
<g>
</g>
</g>
</svg>