<?xml version="1.0" encoding="utf-8"?>
<!DOCTYPE svg PUBLIC "-//W3C//DTD SVG 1.1//EN" "http://www.w3.org/Graphics/SVG/1.1/DTD/svg11.dtd">
<svg version="1.1" id="Layer_1" xmlns="http://www.w3.org/2000/svg" xmlns:xlink="http://www.w3.org/1999/xlink" x="0px" y="0px" width="60mm" height="67mm" viewBox="0 0 60 67" enable-background="new 0 0 60 67" xml:space="preserve">
<symbol id="airflow" viewBox="-12 -12 24 24">
<path d="M-4.38,10.73l4.2-3.84V3.55L-4.07,7.13l-.31-.29L-.18,3V-6.89a3.37,3.37,0,0,0-1.68.53l1.68-4.15L0-11l.21.51h0v0l1.65,4.1A3.26,3.26,0,0,0,.24-6.89v14l-.08,0L-4.07,11Z"/>
<rect fill="none" x="-12" y="-12" width="24" height="24"/>
</symbol>
<symbol id="anastomosis" viewBox="-12 -12 24 24">
<path d="M2.23-4.78l.37.24L5.22-2.78l-.47.57L2.49-3.7l-4.61,8-.24.44-.37-.34L-5.22,2.3l.55-.52,2.1,1.82L2-4.39Z"/>
<rect fill="none" x="-12" y="-12" width="24" height="24"/>
</symbol>
<symbol id="bivouac" viewBox="-12 -12 24 24">
<path d="M.25-7.66l.24.58L.54-7l3.88.48-3.31.91L6,6H8.35v.48l-16.7.07V6.05h2.64L0-7.08Zm0,1.32L-5.13,6H-4l2.07-5L.2-4l2.09,5L4.37,6H5.44Z"/>
<rect fill="none" x="-12" y="-12" width="24" height="24"/>
</symbol>
<symbol id="bones" viewBox="-12 -12 24 24">
<path d="M2.44,4.27l-.16,0H2.13a.22.22,0,0,1-.11,0l-.1-.06a.39.39,0,0,1-.09-.11l-.08-.13a1.51,1.51,0,0,1-.06-.15l-.07-.17s0-.11-.08-.19-.06-.16-.08-.21a4.75,4.75,0,0,0-.38-.71c-.18-.29-.43-.64-.74-1A11.15,11.15,0,0,0-.7.32,6.73,6.73,0,0,0-2-.64a4.12,4.12,0,0,0-1.44-.52A1.64,1.64,0,0,1-5-2.19.72.72,0,0,1-5-2.44a1,1,0,0,1,0-.29A.52.52,0,0,1-4.87-3a.54.54,0,0,1,.35-.15L-4-3.22l.46,0a.54.54,0,0,0,.27-.06A.52.52,0,0,0-3-3.56a.74.74,0,0,0,.13-.31.54.54,0,0,1,.15-.26.54.54,0,0,1,.3-.15.83.83,0,0,1,.47,0,1.11,1.11,0,0,1,.35.4A7.46,7.46,0,0,1-1-2.76q.18.42.33.72a3.22,3.22,0,0,0,.39.57L.1-1a4.77,4.77,0,0,0,.58.43c.28.18.51.33.69.43l1,.56a1.84,1.84,0,0,0,.39.23A5.29,5.29,0,0,1,3.22.9l.43.26a3.7,3.7,0,0,1,.46.3l.36.29a2.28,2.28,0,0,1,.31.32A1,1,0,0,1,5,2.4c.2.48,0,.78-.47.91h0a8.48,8.48,0,0,0-1.12.09,1,1,0,0,0-.42.44A1,1,0,0,1,2.44,4.27Z"/>
<rect fill="none" x="-12" y="-12" width="24" height="24"/>
</symbol>
<symbol id="calcite" viewBox="-12 -12 24 24">
<path d="M2.36-2.22l.05.46.34,3.91L2,2.22,1.65-1.26-2.52-.06l-.23-.7L1.89-2.08Z"/>
<rect fill="none" x="-12" y="-12" width="24" height="24"/>
</symbol>
<symbol id="cauliflower" viewBox="-12 -12 24 24">
<path d="M5.58,3.22v-3A2.12,2.12,0,0,0,6.92-.43a1.78,1.78,0,0,0,.55-1.32,1.92,1.92,0,0,0-.65-1.42,2.19,2.19,0,0,0-1.53-.59,2.21,2.21,0,0,0-1.54.59,1.78,1.78,0,0,0-.64,1.42A1.86,1.86,0,0,0,3.65-.43,2.12,2.12,0,0,0,5,.23v3H.26v-3A2.17,2.17,0,0,0,1.61-.43a1.81,1.81,0,0,0,.54-1.32,1.91,1.91,0,0,0-.64-1.42A2.21,2.21,0,0,0,0-3.76a2.21,2.21,0,0,0-1.54.59,1.82,1.82,0,0,0-.64,1.42A1.83,1.83,0,0,0-1.66-.43,2.12,2.12,0,0,0-.32.23v3H-5v-3A2.12,2.12,0,0,0-3.71-.43a1.78,1.78,0,0,0,.55-1.32,1.92,1.92,0,0,0-.65-1.42,2.19,2.19,0,0,0-1.53-.59,2.21,2.21,0,0,0-1.54.59,1.83,1.83,0,0,0-.65,1.42A1.87,1.87,0,0,0-7-.43,2.12,2.12,0,0,0-5.64.23v3H-8v.54H8V3.22Z"/>
<rect fill="none" x="-12" y="-12" width="24" height="24"/>
</symbol>
<symbol id="clay" viewBox="-12 -12 24 24">
<path d="M1.85-1.33a3,3,0,0,1,1.67.48,3.23,3.23,0,0,1,1,1l.29.51-1,.43a3.81,3.81,0,0,0-.23-.4A3.74,3.74,0,0,0,2.93,0,1.77,1.77,0,0,0,1.85-.32a2.57,2.57,0,0,0-1.1.15A.86.86,0,0,0,.51.14,2.23,2.23,0,0,1,0,.88a2.55,2.55,0,0,1-1.45.43,3.16,3.16,0,0,1-2.75-1,4.28,4.28,0,0,1-.37-.57,3.91,3.91,0,0,1-.21-.47l0-.16,1-.22a1.87,1.87,0,0,0,.45.79A2.12,2.12,0,0,0-1.51.33,1.82,1.82,0,0,0-.69.14l.21-.36A1.53,1.53,0,0,1,.17-1,3.76,3.76,0,0,1,1.85-1.33Z"/>
<rect fill="none" x="-12" y="-12" width="24" height="24"/>
</symbol>
<symbol id="crystals" viewBox="-12 -12 24 24">
<path d="M-2.94-5.38,0-.72,2.94-5.38,3.62-5,.68-.36H6.56V.36H.68L3.62,5l-.68.36L0,.72-2.94,5.38-3.62,5-.68.36H-6.56V-.36H-.68L-3.62-5Z"/>
<rect fill="none" x="-12" y="-12" width="24" height="24"/>
</symbol>
<symbol id="curtain" viewBox="-12 -12 24 24">
<path d="M3.57-6.69l.52.53L.39-3V-.33L.1-.26a3.79,3.79,0,0,0-1,.41c-.58.3-.87.65-.87,1v.07A1.61,1.61,0,0,0-.84,2.48a3.69,3.69,0,0,0,.45.24L0,2.86l.13.05L.39,3V6.12H-.39V3.51a7.65,7.65,0,0,1-.9-.46A2.19,2.19,0,0,1-2.54,1.28V1.23A2,2,0,0,1-1.31-.48,5.32,5.32,0,0,1-.39-.86V-3l-3.7-3.14.52-.53L0-3.67Z"/>
<rect fill="none" x="-12" y="-12" width="24" height="24"/>
</symbol>
<symbol id="disk" viewBox="-12 -12 24 24">
<path d="M-.09-4.19a2.43,2.43,0,0,1,1.7.64A2,2,0,0,1,2.35-2,2.09,2.09,0,0,1,1.81-.55,2.44,2.44,0,0,1,.35.23l2.18,3.6-.68.33L0,1.14-1.48,4.19l-.71-.29L-.41.25A2.53,2.53,0,0,1-1.9-.47a2,2,0,0,1-.63-1.41,2,2,0,0,1,.67-1.61,2.46,2.46,0,0,1,1.72-.7ZM1.05-3.06.56-3.49l-.69,0A1.72,1.72,0,0,0-1.29-3a1.51,1.51,0,0,0-.45,1.08,1.36,1.36,0,0,0,.51,1A1.68,1.68,0,0,0-.07-.44v0l0,0A1.7,1.7,0,0,0,1.11-.92,1.36,1.36,0,0,0,1.56-2,1.47,1.47,0,0,0,1.05-3.06Z"/>
<rect fill="none" x="-12" y="-12" width="24" height="24"/>
</symbol>
<symbol id="entrance" viewBox="-12 -12 24 24">
<path d="M4.46,9H-4.46L0-9Z"/>
<rect fill="none" x="-12" y="-12" width="24" height="24"/>
</symbol>
<symbol id="flowstone" viewBox="-12 -12 24 24">
<rect x="-6" y="-0.21" width="12" height="0.42"/>
<rect fill="none" x="-12" y="-12" width="24" height="24"/>
</symbol>
<symbol id="flutes" viewBox="-12 -12 24 24">
<path d="M-7-1H7v.72H3.87A4.7,4.7,0,0,1,2.16,1.5,4.2,4.2,0,0,1,0,2.13,3.94,3.94,0,0,1-2.19,1.5,4.18,4.18,0,0,1-3.76-.27H-7Zm4.17.72A3.15,3.15,0,0,0-1.65,1,3.21,3.21,0,0,0,0,1.41,3.49,3.49,0,0,0,1.6,1,3.68,3.68,0,0,0,3-.27Z"/>
<rect fill="none" x="-12" y="-12" width="24" height="24"/>
</symbol>
<symbol id="gradient" viewBox="-12 -12 24 24">
<path d="M2.58-3.83,0-10-2.58-3.83A4.74,4.74,0,0,1-.17-4.5V10H.25V-4.5A6.65,6.65,0,0,1,2.58-3.83Z"/>
<rect fill="none" x="-12" y="-12" width="24" height="24"/>
</symbol>
<symbol id="guano" viewBox="-12 -12 24 24">
<path d="M-3.24-3a2.15,2.15,0,0,1,1.57.55A3.93,3.93,0,0,1-.59.24a4.32,4.32,0,0,1,2.75-2.3,2.68,2.68,0,0,1,2.23.36A2.36,2.36,0,0,1,5.5.19l-.79,0a1.72,1.72,0,0,0-.79-1.37,1.94,1.94,0,0,0-1.55-.24A3.53,3.53,0,0,0,.48,0,6.63,6.63,0,0,0-.69,3l-.79-.09a10.72,10.72,0,0,0,0-3.16A3.21,3.21,0,0,0-2.22-2,1.44,1.44,0,0,0-3.37-2.3,3.45,3.45,0,0,0-5-1.54l-.5-.55a4.29,4.29,0,0,1,2-.91A.9.9,0,0,1-3.24-3Z"/>
<rect fill="none" x="-12" y="-12" width="24" height="24"/>
</symbol>
<symbol id="helictites" viewBox="-12 -12 24 24">
<path d="M-4.59-7.92h.79v7.7l3.41,0V-7.92H.39V-.17L4.2-.12h.39v8H3.8V.6L.39.55V7.92H-.39V.55L-4.2.5l-.39,0v-8.4Z"/>
<rect fill="none" x="-12" y="-12" width="24" height="24"/>
</symbol>
<symbol id="human" viewBox="-12 -12 24 24">
<path d="M-3.59-3.29A5.13,5.13,0,0,1,0-4.66,5.13,5.13,0,0,1,3.59-3.29,4.3,4.3,0,0,1,5.09,0a4.3,4.3,0,0,1-1.5,3.29A5.13,5.13,0,0,1,0,4.66,5.13,5.13,0,0,1-3.59,3.29,4.3,4.3,0,0,1-5.09,0,4.3,4.3,0,0,1-3.59-3.29Zm.28.77A3.68,3.68,0,0,0-4.3,0a3.62,3.62,0,0,0,1,2.57L-.5.05ZM0-3.94A4.42,4.42,0,0,0-2.75-3L.16-.36H4.28A3.62,3.62,0,0,0,2.91-2.9,4.38,4.38,0,0,0,0-3.94ZM.16.46-2.7,3.07A4.42,4.42,0,0,0,0,3.94a4.37,4.37,0,0,0,2.87-1A3.78,3.78,0,0,0,4.28.46Z"/>
<rect fill="none" x="-12" y="-12" width="24" height="24"/>
</symbol>
<symbol id="karren" viewBox="-12 -12 24 24">
<path d="M1-5.84h0a1.37,1.37,0,0,1,1.06.68A3.33,3.33,0,0,1,2.5-3.79,25.79,25.79,0,0,1,2.36,0a18.61,18.61,0,0,0-.08,3.72,2.68,2.68,0,0,0,.41,1.2,1.13,1.13,0,0,0,.79.5A.92.92,0,0,0,4,4.94a4.43,4.43,0,0,0,.47-1.22c.16-.64.36-1.86.59-3.66a26.71,26.71,0,0,1,.64-3.69,4.62,4.62,0,0,1,.57-1.29,1.34,1.34,0,0,1,1-.59h0A1.28,1.28,0,0,1,8.37-5a2.17,2.17,0,0,1,.39,1.15A19.91,19.91,0,0,1,8.54-.53a21.51,21.51,0,0,0-.2,3.64A2.64,2.64,0,0,0,9.45,5.36,1.91,1.91,0,0,0,10.88,5a3.84,3.84,0,0,0,.7-1l.42.2-.1.18-.12.21-.11.18L11.52,5a.94.94,0,0,1-.14.16c-.06.07-.13.12-.19.18a2.5,2.5,0,0,1-1.85.41H9.29l0,0A3.06,3.06,0,0,1,7.87,3.13a22.11,22.11,0,0,1,.2-3.7,18.17,18.17,0,0,0,.22-3.28A1.85,1.85,0,0,0,8-4.79a.77.77,0,0,0-.67-.3.93.93,0,0,0-.64.42,4.51,4.51,0,0,0-.51,1.15A26.26,26.26,0,0,0,5.54.1c-.24,1.83-.45,3.07-.61,3.72a5.38,5.38,0,0,1-.51,1.34,1.33,1.33,0,0,1-.89.68H3.47A1.58,1.58,0,0,1,2.3,5.16a3.29,3.29,0,0,1-.49-1.4A20.27,20.27,0,0,1,1.89,0,23.45,23.45,0,0,0,2-3.75a2.94,2.94,0,0,0-.32-1.19A.93.93,0,0,0,1-5.42,1.1,1.1,0,0,0,.19-5,3.69,3.69,0,0,0-.43-3.76,20.78,20.78,0,0,0-1.07.07c-.2,2-.37,3.32-.49,3.86A4.48,4.48,0,0,1-2,5.26,1.06,1.06,0,0,1-3,5.81h0a1.9,1.9,0,0,1-1.29-.67,2.7,2.7,0,0,1-.58-1.31,14.92,14.92,0,0,1,0-3.6q0-.12.06-.54c0-.28,0-.47,0-.57s0-.28,0-.52,0-.42,0-.55,0-.28,0-.47,0-.36,0-.51,0-.29,0-.43A3.09,3.09,0,0,0-5-4.62a1.19,1.19,0,0,0-.67-.6,1.5,1.5,0,0,0-1.2.9A7,7,0,0,0-7.41-2.1c0,.39-.1,1-.14,1.76s-.11,1.47-.18,2.08A9.61,9.61,0,0,1-8,3.32h0l0,0A2.81,2.81,0,0,1-9.2,4.62a1.82,1.82,0,0,1-1.35.15A1.94,1.94,0,0,1-11.61,4,2.39,2.39,0,0,1-12,2.56l.47,0a1.92,1.92,0,0,0,.31,1.16,1.47,1.47,0,0,0,.81.62,1.3,1.3,0,0,0,1-.11A2.32,2.32,0,0,0-8.5,3.18a7.53,7.53,0,0,0,.29-1.5Q-8.1.8-8-.36c0-.78.1-1.37.16-1.78A7.23,7.23,0,0,1-7.28-4.5,1.93,1.93,0,0,1-5.65-5.66h.05l0,0a1.59,1.59,0,0,1,1,.84,3.47,3.47,0,0,1,.34,1.41,4.91,4.91,0,0,1,0,.57v.54c0,.15,0,.37,0,.66s0,.47,0,.58,0,.33-.06.68,0,.56-.06.63a14.78,14.78,0,0,0,0,3.49,2.58,2.58,0,0,0,.5,1.13,1.57,1.57,0,0,0,1,.5A.61.61,0,0,0-2.44,5,3.89,3.89,0,0,0-2,3.85C-1.9,3.31-1.74,2-1.53,0A20.65,20.65,0,0,1-.86-3.89,3.89,3.89,0,0,1-.18-5.26,1.58,1.58,0,0,1,1-5.84Z"/>
<rect fill="none" x="-12" y="-12" width="24" height="24"/>
</symbol>
<symbol id="moonmilk" viewBox="-12 -12 24 24">
<path d="M-4.78-3.06a3.39,3.39,0,0,1,1.5.34,2.48,2.48,0,0,1,1.1,1,3.74,3.74,0,0,1,1.62-.8,3.52,3.52,0,0,1,1.71,0,2.9,2.9,0,0,1,1.39.77A2.49,2.49,0,0,1,3.25-.37,4,4,0,0,1,5-.76a3.58,3.58,0,0,1,1.6.36A2.84,2.84,0,0,1,7.88.92a2.32,2.32,0,0,1,0,1.88.34.34,0,0,1-.37.26A.36.36,0,0,1,7.25,3a.32.32,0,0,1-.12-.25.21.21,0,0,1,0-.12,2,2,0,0,0,0-1.43,2,2,0,0,0-1-.9A2.81,2.81,0,0,0,4.68,0,2.78,2.78,0,0,0,3.12.56L2.46.25A1.7,1.7,0,0,0,2.15-1.1,2.15,2.15,0,0,0,1-1.81a2.85,2.85,0,0,0-1.58.06A3,3,0,0,0-2-.83l-.71-.12A1.74,1.74,0,0,0-3.55-2a2.36,2.36,0,0,0-1.39-.27,3.08,3.08,0,0,0-1.45.53A2.33,2.33,0,0,0-7.32-.56a.35.35,0,0,1-.37.24A.39.39,0,0,1-8-.42a.33.33,0,0,1-.1-.26v-.1A3,3,0,0,1-6.89-2.35,4,4,0,0,1-5-3Z"/>
<rect fill="none" x="-12" y="-12" width="24" height="24"/>
</symbol>
<symbol id="narrow" viewBox="-12 -12 24 24">
<path d="M-1.5,5V-5h0.64V5H-1.5z"/>
<path d="M0.86,5V-5H1.5V5H0.86z"/>
<rect fill="none" x="-12" y="-12" width="24" height="24"/>
</symbol>
<symbol id="paleoflow" viewBox="-12 -12 24 24">
<path d="M.38-12V.17A1.9,1.9,0,0,0,1,0,1.57,1.57,0,0,0,1.7-.72a1.86,1.86,0,0,0,.23-1c0-.09,0-.14.08-.16a.92.92,0,0,1,.24,0,.52.52,0,0,0,.25,0h.08A2.48,2.48,0,0,1,2,0,2.5,2.5,0,0,1,.38.77V7.21H2.09L0,12-1.8,7.23c.07,0,.59,0,1.53,0V.77A3,3,0,0,1-1.35.43a2.16,2.16,0,0,1-1-1,2.38,2.38,0,0,1-.24-1.33l.67,0a2,2,0,0,0,.15,1,1.73,1.73,0,0,0,.59.67A2.14,2.14,0,0,0-.27.16V-12Z"/>
<rect fill="none" x="-12" y="-12" width="24" height="24"/>
</symbol>
<symbol id="rain" viewBox="-12 -12 24 24">
<path d="M-4.14-6.34h0.71v4.69h-0.71V-6.34z"/>
<path d="M-0.35-6.34h0.71v4.69h-0.71V-6.34z"/>
<path d="M3.43-6.34h0.71v4.69H3.43V-6.34z"/>
<path d="M-4.14,1.65h0.71v4.69h-0.71V1.65z"/>
<path d="M-0.35,1.65h0.71v4.69h-0.71V1.65z"/>
<path d="M3.43,1.65h0.71v4.69H3.43V1.65z"/>
<rect fill="none" x="-12" y="-12" width="24" height="24"/>
</symbol>
<symbol id="rats" viewBox="-12 -12 24 24">
<path d="M8.78-2.32,7-2.27c-.51-.17-.65-.56-1.46-.45l-.25.45C3.59-2.75,2.59-3.66.56-3.62l-1.35.3A4.89,4.89,0,0,0-4.24,1.57c-.68.6-2.58.86-3.39.94a6.84,6.84,0,0,0-1.62.39,4.91,4.91,0,0,0-1,.52A1.75,1.75,0,0,0-11,4.61a1.16,1.16,0,0,0,.59,1.48,1.3,1.3,0,0,1,.14.12c.16-.52-.35-.92-.2-1.42a3.35,3.35,0,0,1,.27-.45,3.18,3.18,0,0,1,1.79-1c.63-.12,1.27-.22,1.91-.3.48-.07,1,0,1.4-.12A6.94,6.94,0,0,1-4,2.82,30.64,30.64,0,0,0,.41,2.69l2.16.15c.1-.09,0,0,.1-.15a.87.87,0,0,0-.9-.55c.86-1,2.27-.37,3.1-.05.5.19,1,0,1.25.4.11-.1.1-.07.15-.25.3,0,.31.07.6.15-.06-.49-.34-.64-1-.6a.78.78,0,0,1,0-.55C6.3.56,7.29.73,8.13.43a13.78,13.78,0,0,0,2.15-.9l.6-.85v-.2A16.9,16.9,0,0,0,8.78-2.32Z"/>
<rect fill="none" x="-12" y="-12" width="24" height="24"/>
</symbol>
<symbol id="sand" viewBox="-12 -12 24 24">
<path d="M-1.58,0.83c0.23,0.2,0.35,0.44,0.36,0.73c0.01,0.29-0.08,0.54-0.28,0.75c-0.2,0.21-0.46,0.32-0.78,0.33c-0.32,0.01-0.6-0.08-0.83-0.26C-3.36,2.19-3.49,1.95-3.5,1.67C-3.51,1.38-3.41,1.12-3.2,0.9c0.21-0.22,0.48-0.34,0.8-0.35C-2.08,0.54-1.81,0.64-1.58,0.83z"/>
<path d="M0.08-2.36c0.23,0.2,0.35,0.44,0.36,0.73c0.01,0.29-0.08,0.54-0.28,0.75c-0.2,0.21-0.46,0.32-0.78,0.33c-0.32,0.01-0.59-0.07-0.83-0.26s-0.37-0.42-0.38-0.71c-0.01-0.29,0.09-0.54,0.3-0.76c0.21-0.22,0.48-0.33,0.8-0.35C-0.42-2.65-0.14-2.56,0.08-2.36z"/>
<path d="M3.12,0.55c0.23,0.2,0.35,0.43,0.38,0.71c0.02,0.28-0.07,0.53-0.28,0.75C3,2.23,2.73,2.35,2.42,2.36C2.1,2.37,1.82,2.28,1.58,2.08C1.34,1.88,1.22,1.64,1.2,1.35c-0.01-0.29,0.09-0.54,0.3-0.75C1.72,0.4,1.99,0.29,2.3,0.28S2.89,0.36,3.12,0.55z"/>
<rect fill="none" x="-12" y="-12" width="24" height="24"/>
</symbol>
<symbol  id="scallops" viewBox="-12 -12 24 24">
<path d="M.05-3.74l.21,0A2.35,2.35,0,0,1,1.74-3a2,2,0,0,1,.59,1.55v0l0,0A9.59,9.59,0,0,1-.08,3.27l-.39.47-.27-.55A14.26,14.26,0,0,1-2.33-1.89v-.05l0-.05A2,2,0,0,1-1.44-3.3,2.42,2.42,0,0,1,.05-3.74ZM-.11-3A1.44,1.44,0,0,0-1.55-1.89,13.06,13.06,0,0,0-.29,2.33,8.6,8.6,0,0,0,1.55-1.54a1.41,1.41,0,0,0-.38-1A1.62,1.62,0,0,0,.18-3Z"/>
<rect fill="none" x="-12" y="-12" width="24" height="24"/>
</symbol>
<symbol  id="sink" viewBox="-12 -12 24 24">
<path d="M.72,9.41H.9c1.94,0,3.26-.54,3.94-1.51a3.61,3.61,0,0,0,.33-.69,2,2,0,0,0,.11-.54V6.46l.69,0a2.8,2.8,0,0,1-.58,1.78C4.58,9.39,3.1,10,.93,10H-.93q-3.25,0-4.46-1.8a2.74,2.74,0,0,1-.43-.83A2.37,2.37,0,0,1-6,6.67V6.43l.68,0A2.27,2.27,0,0,0-4.84,7.9c.68,1,2,1.47,3.93,1.48l.5,0ZM-1.46-10a.68.68,0,0,0,.16.41A2.77,2.77,0,0,0-.51-9l0,0a3.63,3.63,0,0,1,1,.7,1.15,1.15,0,0,1,.34.88c0,.58-.53,1.14-1.49,1.68-.68.42-1,.79-1,1.11s.3.61.84,1h0Q.61-2.86.46-1.78a3.51,3.51,0,0,1-1.55,2,.61.61,0,0,0-.26.41,1.67,1.67,0,0,0,.1.51,5.3,5.3,0,0,1,.32,1L.56,1.9.46,8.06-3.4,2.54l1.73-.28A6.16,6.16,0,0,0-2,1.39,1.7,1.7,0,0,1-2.09.58a1.21,1.21,0,0,1,.53-.82h0v0C-.75-.86-.33-1.38-.28-1.85s-.23-.87-.91-1.27h0C-2-3.6-2.37-4.1-2.4-4.61S-2-5.74-1.09-6.29C-.34-6.72.06-7.1.09-7.44a.67.67,0,0,0-.18-.43,3.17,3.17,0,0,0-.79-.58,2.93,2.93,0,0,1-1-.67A1.16,1.16,0,0,1-2.17-10Z"/>
<rect fill="none" x="-12" y="-12" width="24" height="24"/>
</symbol>
<symbol  id="spring" viewBox="-12 -12 24 24">
<path d="M-1.34-9.86,2.52-4.34.78-4.06a8,8,0,0,0,.29.87,1.4,1.4,0,0,1,.13.79,1.3,1.3,0,0,1-.52.84l0,0v0C-.13-.95-.55-.42-.61,0S-.37.91.31,1.3l0,0c.75.46,1.14,1,1.18,1.46S1.12,3.92.21,4.46C-.54,4.9-.94,5.29-1,5.64a.74.74,0,0,0,.18.43A3.2,3.2,0,0,0,0,6.62a3,3,0,0,1,1,.7,1.14,1.14,0,0,1,.31.86A1.74,1.74,0,0,1,.71,9.26H.92c1.92,0,3.22-.52,3.9-1.51a2.05,2.05,0,0,0,.35-.67,2.59,2.59,0,0,0,.1-.55l0-.19.65,0a2.84,2.84,0,0,1-.55,1.8C4.58,9.26,3.08,9.85.92,9.86H-.92c-2.17,0-3.66-.6-4.49-1.77a3.65,3.65,0,0,1-.4-.85A2.43,2.43,0,0,1-6,6.53V6.29l.66,0a2.08,2.08,0,0,0,.47,1.41c.68,1,2,1.5,3.91,1.51H-.4c.62-.43.94-.8,1-1.1a.76.76,0,0,0-.16-.43,3.25,3.25,0,0,0-.79-.51v0a3.8,3.8,0,0,1-1-.7,1.15,1.15,0,0,1-.34-.91q.06-.84,1.5-1.68c.68-.4,1-.77,1-1.1S.49,2.21,0,1.87c0,0,0,0,0,0C-1,1.32-1.44.69-1.34,0a3.58,3.58,0,0,1,1.55-2,.54.54,0,0,0,.23-.38A1.28,1.28,0,0,0,.37-3a4.57,4.57,0,0,1-.32-1l-1.49.24Z"/>
<rect fill="none" x="-12" y="-12" width="24" height="24"/>
</symbol>
<symbol  id="stalactite" viewBox="-12 -12 24 24">
<path d="M3.57-6.69l.52.53L.39-3V6.12H-.39V-3l-3.7-3.14.52-.53L0-3.67Z"/>
<rect fill="none" x="-12" y="-12" width="24" height="24"/>
</symbol>
<symbol  id="stalagmite" viewBox="-12 -12 24 24">
<path d="M.38-6.42V2.75L4.11,5.89l-.56.53L0,3.4l-3.57,3-.53-.53,3.7-3.14V-6.42Z"/>
<rect fill="none" x="-12" y="-12" width="24" height="24"/>
</symbol>
<symbol  id="stalagnate" viewBox="-12 -12 24 24">
<path d="M3.55-8.46l.56.53L.38-4.78v9L4.11,7.36l-.56.53L0,4.86l-3.57,3-.53-.53,3.7-3.14v-9l-3.7-3.15.53-.53L0-5.43Z"/>
<rect fill="none" x="-12" y="-12" width="24" height="24"/>
</symbol>
<symbol  id="straws" viewBox="-12 -12 24 24">
<path d="M-10.89-2.76H10.89V-2H9.63V.46H8.84V-2H8.29v5.6H7.5V-2H5.56V.7H4.77V-2H2.07V2.38H1.29V-2H-.1v3H-.89V-2H-3.2V4.11H-4V-2H-6.22L-6.16.75l-.79,0L-7-2H-8.32V2.33H-9.1V-2h-1.79Z"/>
<rect fill="none" x="-12" y="-12" width="24" height="24"/>
</symbol>
<symbol  id="water" viewBox="-12 -12 24 24">
<path d="M-1.72-9.86,2.11-4.32.38-4.06a6.49,6.49,0,0,0,.29.89,1.5,1.5,0,0,1,.13.79,1.2,1.2,0,0,1-.5.82h0l0,0C-.54-.94-1-.42-1,.05s.24.89.92,1.27h0c.77.48,1.17,1,1.19,1.49S.71,3.94-.2,4.49c-.75.43-1.13.81-1.15,1.15a.51.51,0,0,0,.18.43,2.66,2.66,0,0,0,.76.58,2.93,2.93,0,0,1,1,.67,1.16,1.16,0,0,1,.29.89C.84,8.75.42,9.3-.41,9.86l-.44-.55c.66-.45,1-.83,1-1.15A.47.47,0,0,0,0,7.75a2.84,2.84,0,0,0-.78-.53h0a3.87,3.87,0,0,1-1-.69,1.24,1.24,0,0,1-.34-.91c0-.58.54-1.14,1.52-1.68.66-.42,1-.79,1-1.11s-.3-.61-.84-1h0Q-1.9,1.06-1.74,0a3.44,3.44,0,0,1,1.54-2,.67.67,0,0,0,.27-.41A1.11,1.11,0,0,0,0-3a4.33,4.33,0,0,1-.31-1l-1.5.24Z"/>
<rect fill="none" x="-12" y="-12" width="24" height="24"/>
</symbol><symbol  id="tree" viewBox="-12 -12 24 24">
<path d="M7.4-5.04A4.271,4.271,0,0,0,7.7-6.627a4.3,4.3,0,0,0-4.3-4.3A4.279,4.279,0,0,0,.636-9.914,4.293,4.293,0,0,0-3.045-12a4.3,4.3,0,0,0-4.3,4.3,4.27,4.27,0,0,0,.421,1.845,4.3,4.3,0,0,0-3.645,4.244,4.3,4.3,0,0,0,4.3,4.3A4.282,4.282,0,0,0-3.946,2L-1.175,5.23h0L-1.612,12H.982L.757,6.376,4.119,2.827v0a4.272,4.272,0,0,0,2.15.58,4.3,4.3,0,0,0,4.3-4.3A4.3,4.3,0,0,0,7.4-5.04ZM-3.346,1.538h0A4.346,4.346,0,0,0-2.7.788a4.266,4.266,0,0,0,1.765.753l-.135,2.087ZM.69,4.7.563,1.544A4.258,4.258,0,0,0,2.321.805,4.3,4.3,0,0,0,3.378,2.279Z"/>
<rect fill="none" x="-12" y="-12" width="24" height="24"/>
</symbol><g>
<desc></desc>
<g>
<line fill="none" stroke="#dddddd" stroke-width="0.1mm" x1="0.00" y1="43.00" x2="60.00" y2="43.00" />
<text x="57.20" y="42.80" font-size=".2mm" fill="#000000">0m</text>
<line fill="none" stroke="#dddddd" stroke-width="0.1mm" x1="0.00" y1="23.00" x2="60.00" y2="23.00" />
<text x="57.20" y="22.80" font-size=".2mm" fill="#000000">10m</text>
<line fill="none" stroke="#dddddd" stroke-width="0.1mm" x1="0.00" y1="3.00" x2="60.00" y2="3.00" />
<text x="57.20" y="2.80" font-size=".2mm" fill="#000000">20m</text>
<line fill="none" stroke="#dddddd" stroke-width="0.1mm" x1="0.00" y1="63.00" x2="60.00" y2="63.00" />
<text x="57.20" y="62.80" font-size=".2mm" fill="#000000">-10m</text>
<line fill="none" stroke="#dddddd" stroke-width="0.1mm" x1="20.00" y1="0.00" x2="20.00" y2="67.00" />
<text x="20.40" y="2.00" font-size=".2mm" fill="#000000">0m</text>
<line fill="none" stroke="#dddddd" stroke-width="0.1mm" x1="40.00" y1="0.00" x2="40.00" y2="67.00" />
<text x="40.40" y="2.00" font-size=".2mm" fill="#000000">10m</text>
</g>
<g>
<path fill="none" stroke="#000000" stroke-width="0.06mm" stroke-dasharray="0.3,0.1" d="M21.395615,42.973423 C21.280485,43.138046 21.31502,43.099648 21.42486,43.258408 C21.513086,43.38592 21.599642,43.57636 21.75584,43.642216 C21.78627,43.655045 21.820305,43.64603 21.8457,43.627052 C21.926952,43.566338 22.007301,43.504417 22.088537,43.44368 C22.123215,43.41775 22.161812,43.395752 22.136414,43.344444 C22.055683,43.181362 21.980793,43.15089 21.823141,43.064384 L21.823141,43.064384" /><path fill="none" stroke="#000000" stroke-width="0.06mm" stroke-dasharray="0.3,0.1" d="M22.850328,42.918846 C22.902546,42.992393 22.915686,43.04125 22.905418,43.125874 C22.899727,43.17278 22.893509,43.186836 22.899607,43.23132 C22.907259,43.287144 22.943737,43.3551 22.96888,43.39525 C22.991137,43.430794 23.05048,43.541946 23.118952,43.56078 C23.185486,43.57908 23.265009,43.530853 23.316034,43.49949 C23.416504,43.43773 23.541622,43.284298 23.548326,43.158997 C23.556206,43.011692 23.379549,42.86234 23.249125,42.832317 C23.12996,42.804882 23.058872,42.822006 22.923065,42.82788 L22.923065,42.82788" /><path fill="none" stroke="#000000" stroke-width="0.06mm" stroke-dasharray="0.3,0.1" d="M24.068651,43.009808 C24.084465,43.032627 24.101215,43.054825 24.116095,43.078266 C24.167538,43.159313 24.038128,43.293495 24.028717,43.373676 C24.023561,43.4176 24.037905,43.47875 24.0398,43.515194 C24.04381,43.59226 24.029482,43.604103 24.048504,43.664104 C24.0929,43.804134 24.248602,43.824123 24.373405,43.852715 C24.40948,43.860977 24.450176,43.847767 24.479666,43.827427 C24.50727,43.808388 24.621195,43.74403 24.6632,43.688225 C24.725925,43.604893 24.704535,43.491234 24.691212,43.397392 C24.685736,43.35881 24.67868,43.320877 24.649107,43.294147 C24.61061,43.25935 24.562365,43.243965 24.514156,43.228115 L24.514156,43.228115" /><path fill="none" stroke="#000000" stroke-width="0.06mm" stroke-dasharray="0.3,0.1" d="M20.958975,42.00934 C21.001194,42.010643 21.04383,42.007206 21.085636,42.013256 C21.15223,42.02289 21.217129,42.041878 21.282875,42.056187 C21.40044,42.060383 21.518547,42.05674 21.635569,42.068768 C21.781363,42.08376 21.924437,42.11928 22.06991,42.137104 C22.126894,42.144085 22.184977,42.13674 22.242037,42.143078 C22.33979,42.15393 22.43571,42.178703 22.533567,42.18858 C22.683065,42.203663 22.833597,42.205997 22.983383,42.217888 C23.01914,42.220726 23.054148,42.230713 23.08996,42.232742 C23.151756,42.236248 23.21398,42.22906 23.27564,42.234455 C23.393114,42.244736 23.50935,42.266254 23.626503,42.27969 C23.870857,42.307716 24.116636,42.324024 24.360117,42.358837 C24.432617,42.3692 24.500416,42.40224 24.572544,42.41495 C24.692335,42.43606 24.814346,42.442146 24.934652,42.460087 C24.953363,42.462875 24.971334,42.4698 24.98882,42.47702 C25.075974,42.51302 24.99458,42.495113 25.106613,42.546722 C25.15424,42.568665 25.203314,42.588055 25.253775,42.602314 C25.419746,42.64922 25.845947,42.63989 25.891073,42.639545 C25.95603,42.639046 26.062126,42.621964 26.120094,42.579144 C26.147896,42.558605 26.161526,42.52426 26.19096,42.50686 C26.271536,42.459225 26.30468,42.461212 26.41761,42.427765 L26.41761,42.427765" /><path fill="none" stroke="#000000" stroke-width="0.06mm" stroke-dasharray="0.3,0.1" d="M20.10433,44.21062 C20.167416,44.19948 20.229551,44.17903 20.293587,44.17719 C20.59943,44.168392 20.905529,44.177567 21.211496,44.178783 C22.29079,44.183075 23.182108,44.199112 24.287418,44.166885 C24.425505,44.16286 24.56117,44.125473 24.699215,44.120186 C24.944422,44.11079 25.19004,44.117653 25.435371,44.122906 C25.461647,44.12347 25.487377,44.131084 25.512838,44.137608 C25.523552,44.14035 25.534346,44.14419 25.543377,44.150578 C25.622866,44.20679 25.6996,44.26681 25.77771,44.32493 L25.77771,44.32493" /><path fill="none" stroke="#000000" stroke-width="0.06mm" stroke-dasharray="0.3,0.1" d="M25.781849,43.974575 C25.797846,44.01406 25.817846,44.052155 25.829838,44.09304 C25.840813,44.13045 25.846832,44.16936 25.850376,44.20819 C25.867218,44.392742 25.877426,44.577843 25.890953,44.76267 L25.890953,44.76267" /><path fill="none" stroke="#000000" stroke-width="0.06mm" stroke-dasharray="0.3,0.1" d="M25.636377,44.90239 L25.763664,45.050797" /><defs><path id="DRAW_1429"  d="M25.88956,44.18322 C25.967735,43.758217 25.966766,43.907864 25.965605,43.71364 C25.965454,43.688732 25.961506,43.663567 25.965103,43.638924 C25.991888,43.45546 26.027946,43.273457 26.05661,43.090275 C26.060125,43.06782 26.057053,43.04454 26.061602,43.02227 C26.07602,42.9517 26.09611,42.88241 26.113361,42.81248 L26.113361,42.81248" /></defs><use xlink:href="#DRAW_1429" fill="none" stroke="#000000" stroke-width="0.04mm" /><text style="font-family:'SpeleoUIS'; font-size:0.2mm;"><textPath xlink:href="#DRAW_1429">!!!!!!!!!!!!!!!!!!!!!!!!!!!!!!!!!!!!!!!!!!!!!!!!!!!!!!!!!!!!!!!!!!!!!!!!!!!!!!!!!!!!!!!!!!!!!</textPath></text><path fill="none" stroke="#000000" stroke-width="0.06mm" d="M25.931328,44.250103 C25.93799,44.264317 25.943691,44.279026 25.951313,44.29275 C25.961971,44.311943 25.976933,44.320564 25.991625,44.337337 C26.004982,44.352585 26.014473,44.376183 26.024979,44.392033 C26.032139,44.402832 26.041618,44.41197 26.048807,44.42275 C26.05995,44.439465 26.06964,44.47283 26.077492,44.48712 C26.093468,44.516186 26.10934,44.545662 26.129816,44.571754 C26.206877,44.669956 26.173382,44.607548 26.221386,44.66384 C26.23681,44.68193 26.250427,44.701496 26.2656,44.71979 C26.279022,44.735973 26.29412,44.75074 26.307144,44.767242 C26.447157,44.94463 26.345306,44.812675 26.432056,44.95168 C26.44907,44.97894 26.521126,45.02952 26.524385,45.032482 C26.534418,45.041603 26.541807,45.053265 26.550518,45.063656 C26.558361,45.073376 26.56477,45.08445 26.574047,45.09281 C26.635319,45.14806 26.661257,45.164623 26.720907,45.206947 C26.72635,45.21081 26.731441,45.215233 26.737238,45.218544 C26.760166,45.231636 26.786747,45.233612 26.81156,45.241707 C26.838932,45.250633 26.866043,45.260452 26.892654,45.271446 C26.899775,45.27439 26.905954,45.279236 26.912447,45.283386 C26.951866,45.30856 26.960602,45.32021 27.006138,45.331413 C27.247993,45.39093 27.18927,45.367973 27.502935,45.362564 L27.502935,45.362564" /><path fill="none" stroke="#000000" stroke-width="0.06mm" d="M26.417387,42.471493 C26.4331,42.494476 26.448812,42.517464 26.464525,42.54045 C26.472538,42.55128 26.481579,42.56142 26.488562,42.572937 C26.533258,42.646664 26.578424,42.720192 26.619465,42.796013 C26.652308,42.856693 26.688951,43.012638 26.696709,43.050556 C26.707811,43.12275 26.718914,43.194942 26.730015,43.26714 C26.731304,43.28521 26.73058,43.303543 26.733881,43.321358 C26.74405,43.37621 26.756046,43.39806 26.770676,43.447826 C26.803827,43.560593 26.742863,43.405365 26.838318,43.633823 C26.843954,43.647312 26.854235,43.658916 26.857891,43.67307 C26.91039,43.876247 26.954733,44.081467 27.00653,44.28482 C27.009604,44.296886 27.016155,44.30785 27.022335,44.318657 C27.026909,44.326656 27.031872,44.334736 27.038649,44.34098 C27.09396,44.391956 27.149212,44.443207 27.208168,44.489918 C27.234701,44.510937 27.2858,44.54262 27.324902,44.554184 C27.36932,44.567318 27.418053,44.552853 27.460884,44.570293 C27.47299,44.575226 27.484602,44.581375 27.495888,44.58797 C27.514206,44.59867 27.531414,44.611187 27.549599,44.622112 C27.553516,44.624466 27.557606,44.6269 27.562096,44.62775 C27.594687,44.63393 27.62764,44.638 27.660412,44.643127 L27.660412,44.643127" /><path fill="none" stroke="#000000" stroke-width="0.06mm" d="M27.528595,45.405037 C27.542698,45.39811 27.556362,45.39021 27.5709,45.384254 C27.583193,45.379215 27.606718,45.37667 27.619017,45.3778 C27.688286,45.384144 27.757496,45.39142 27.826443,45.400642 C27.900436,45.41054 27.912159,45.45826 27.97299,45.486195 C28.037899,45.516003 28.099941,45.502033 28.165356,45.51219 C28.241383,45.524002 28.349888,45.58068 28.406168,45.60141 C28.419765,45.60642 28.434368,45.609104 28.448849,45.60968 C28.56425,45.614292 28.679905,45.61124 28.795261,45.61696 C28.874655,45.62419 28.954048,45.631424 29.033443,45.638657 C29.068203,45.64628 29.102219,45.65909 29.137722,45.661526 C29.946617,45.675232 29.24011,45.645927 29.505219,45.678753 C29.515442,45.68002 29.525826,45.67875 29.536118,45.678337 C29.63684,45.674324 29.73745,45.666035 29.83825,45.66549 C29.942696,45.66492 29.906204,45.687435 30.014246,45.69615 C30.115025,45.704285 30.216297,45.70414 30.317324,45.708134 L30.317324,45.708134" /><path fill="none" stroke="#000000" stroke-width="0.06mm" d="M27.693056,44.634308 C27.728447,44.635952 27.78281,44.632294 27.82202,44.645927 C27.841476,44.652695 27.865608,44.667683 27.88544,44.67372 C27.922188,44.68491 27.934093,44.680454 27.961437,44.695915 C28.0318,44.735703 28.044386,44.824383 28.119408,44.86007 C28.170727,44.884483 28.16153,44.865547 28.237064,44.889412 C28.276844,44.90198 28.433685,44.9688 28.489979,44.9808 C28.608978,45.00617 28.613392,44.99167 28.718685,45.003933 C28.749626,45.007538 28.773243,45.02973 28.803747,45.033184 C28.811226,45.03403 28.818792,45.03383 28.82632,45.033817 C28.844784,45.033794 28.863258,45.032413 28.88171,45.033085 C28.90023,45.033764 28.918571,45.03748 28.9371,45.037865 C28.946894,45.03807 28.956656,45.036377 28.966331,45.03485 C28.99884,45.029728 29.030865,45.021313 29.063602,45.01792 C29.091349,45.015045 29.119396,45.014965 29.14727,45.016106 C29.162819,45.01674 29.178068,45.02063 29.193413,45.023224 C29.227814,45.02904 29.261694,45.0389 29.296494,45.04134 C29.332283,45.04385 29.368225,45.039444 29.404072,45.038002 C29.431767,45.03689 29.441916,45.032436 29.46864,45.039486 C29.539602,45.0582 29.551483,45.0805 29.631138,45.123573 C29.63855,45.127583 29.646961,45.129673 29.65526,45.13114 C29.687517,45.136852 29.720646,45.137608 29.752544,45.14506 C29.778072,45.15103 29.801998,45.162502 29.826723,45.17122 L29.826723,45.17122" /><path fill="none" stroke="#000000" stroke-width="0.06mm" d="M31.41464,44.376762 C31.404156,44.385246 31.39419,44.394413 31.383186,44.40221 C31.34473,44.429466 31.215832,44.423954 31.215544,44.423958 C31.087364,44.426872 30.958973,44.419655 30.830906,44.425777 C30.791294,44.42767 30.752981,44.440544 30.71402,44.447926 C30.671457,44.45154 30.62904,44.45788 30.586334,44.458775 C30.50627,44.460457 30.441914,44.45495 30.365425,44.44035 C30.349327,44.43728 30.334084,44.43019 30.31785,44.427944 C30.008926,44.385197 29.936409,44.42341 29.733646,44.326977 C29.652637,44.28845 29.545027,44.15542 29.512207,44.127625 C29.479836,44.10021 29.441565,44.080597 29.405302,44.058586 C29.399643,44.055153 29.393187,44.053066 29.38676,44.05148 C29.274818,44.023872 29.16227,43.99876 29.050354,43.971046 C29.046064,43.969982 29.042194,43.967564 29.038446,43.96522 C29.034584,43.96281 29.030533,43.96038 29.027637,43.956863 C29.001907,43.92561 28.97804,43.892864 28.952812,43.861206 C28.94743,43.854454 28.94085,43.848675 28.93583,43.841652 C28.908764,43.80379 28.939388,43.839046 28.913988,43.799664 C28.888374,43.759945 28.852707,43.73098 28.814556,43.703957 L28.814556,43.703957" /><path fill="none" stroke="#000000" stroke-width="0.06mm" d="M29.896538,45.029587 C29.83628,45.03033 29.798882,45.028877 29.761002,44.980244 C29.7422,44.95611 29.736027,44.923977 29.70462,44.91241 C29.694206,44.908577 29.683575,44.905304 29.672848,44.90246 C29.62779,44.8905 29.582209,44.880535 29.537308,44.868004 C29.528309,44.86549 29.512373,44.853912 29.506626,44.847847 C29.497318,44.838024 29.488598,44.827568 29.480896,44.81644 C29.46859,44.798668 29.451733,44.753403 29.424269,44.73883 C29.404926,44.728565 29.373148,44.728813 29.354837,44.72385 C29.34645,44.721577 29.287868,44.707848 29.264496,44.69171 C29.257404,44.686813 29.25171,44.681007 29.247307,44.673584 C29.215643,44.620213 29.187439,44.564728 29.153477,44.51279 C29.04311,44.344006 29.031712,44.381084 28.965752,44.196815 C28.93638,44.114754 28.926601,44.075798 28.922956,44.006645 C28.92257,43.999306 28.92329,43.9919 28.92243,43.984604 C28.920197,43.965694 28.90849,43.938557 28.904583,43.923126 C28.892532,43.875538 28.887135,43.826115 28.87114,43.7797 C28.85157,43.72292 28.82402,43.669174 28.798346,43.614876 C28.788916,43.594933 28.775154,43.577217 28.765923,43.557182 C28.749763,43.52211 28.74347,43.482174 28.740198,43.44425 C28.739246,43.43322 28.738754,43.421783 28.741547,43.41107 C28.78084,43.260445 28.82909,43.11219 28.866251,42.96102 C28.882673,42.89422 28.890285,42.825558 28.902143,42.757797 C28.923374,42.636482 28.942612,42.51481 28.965515,42.3938 C28.967194,42.38492 28.97205,42.376938 28.975784,42.36871 C28.986195,42.345757 28.998444,42.323627 29.007938,42.30028 C29.089867,42.09886 28.915688,42.402172 29.199463,41.983246 L29.199463,41.983246" /><path fill="none" stroke="#000000" stroke-width="0.06mm" d="M29.318295,42.01782 C29.461226,41.88466 29.309101,42.02957 29.581299,41.733337 C29.588116,41.725918 29.59676,41.720387 29.604944,41.71451 C29.633785,41.693806 29.663754,41.674686 29.692337,41.65363 C29.706621,41.6431 29.719082,41.630222 29.73346,41.619823 C29.763596,41.598022 29.796947,41.593536 29.833452,41.59157 C30.026756,41.58118 29.82513,41.608845 30.13417,41.558746 C30.142305,41.557426 30.156286,41.549423 30.162361,41.54449 C30.169157,41.538975 30.175564,41.532936 30.181461,41.526466 C30.22538,41.47829 30.268951,41.429783 30.311758,41.380615 C30.341541,41.346405 30.334972,41.34486 30.362503,41.32301 C30.374336,41.313614 30.387127,41.30547 30.398933,41.296043 C30.450794,41.25462 30.501328,41.21154 30.553478,41.170483 C30.577312,41.15172 30.611933,41.15742 30.63786,41.142406 C30.663698,41.127445 30.677513,41.115856 30.697512,41.094322 C30.727499,41.06203 30.721302,41.055534 30.768196,41.0291 C30.846226,40.985107 30.92582,40.943787 31.006687,40.90526 C31.043785,40.88759 31.10065,40.881126 31.139725,40.878918 C31.285072,40.870697 31.430576,40.865456 31.576,40.858727 L31.576,40.858727" /><path fill="none" stroke="#000000" stroke-width="0.06mm" d="M34.807247,41.749 C34.77256,41.801144 34.704308,41.925823 34.637806,41.97727 C34.45889,42.11568 34.592503,41.990917 34.425823,42.103413 C34.39879,42.12166 34.375008,42.14443 34.351395,42.166927 C34.267845,42.246536 34.176773,42.36863 34.072227,42.419384 C34.00151,42.453716 34.00786,42.433758 33.914063,42.461185 C33.86864,42.47447 33.814903,42.504707 33.77896,42.534916 C33.670383,42.626175 33.68129,42.667984 33.57573,42.81136 C33.554962,42.839565 33.526554,42.861248 33.502186,42.886406 C33.405518,42.98622 33.351837,43.023445 33.291008,43.123013 C33.2852,43.132526 33.28141,43.14315 33.27713,43.153442 C33.26812,43.175095 33.26126,43.19767 33.251137,43.21883 C33.220646,43.282543 33.195904,43.296745 33.209324,43.370415 C33.238857,43.53255 33.405792,43.55188 33.54709,43.557896 C33.645885,43.5621 33.74502,43.55552 33.843727,43.561512 C33.91614,43.565907 33.987118,43.58678 34.05963,43.589012 C34.283768,43.59591 34.508156,43.5845 34.732353,43.588856 C34.756622,43.58933 34.779846,43.598923 34.80369,43.60347 C34.819492,43.606487 34.83521,43.610634 34.85127,43.61154 C34.871445,43.612682 34.89175,43.61159 34.911858,43.609596 C34.981625,43.602673 35.050835,43.590485 35.120712,43.584805 C35.166855,43.581055 35.21334,43.584145 35.259544,43.58134 C35.33878,43.576534 35.41777,43.568283 35.4969,43.561977 C35.532642,43.559128 35.568336,43.5553 35.604164,43.55387 C35.64855,43.5521 35.693,43.55287 35.737415,43.552372 C35.89025,43.5422 36.04309,43.532024 36.19593,43.521847 L36.19593,43.521847" /><path fill="none" stroke="#000000" stroke-width="0.06mm" d="M36.180153,43.63244 C36.227844,43.64992 36.275536,43.6674 36.32323,43.68488 C36.372055,43.69547 36.422546,43.700176 36.46971,43.716652 C36.557926,43.74746 36.643814,43.785103 36.727753,43.82616 C36.803833,43.863377 36.86167,43.94452 36.94557,43.966766 C37.088108,44.00456 37.188637,43.99749 37.29931,44.08487 C37.316147,44.09816 37.331596,44.113308 37.345695,44.129475 C37.388863,44.178974 37.48361,44.27529 37.51706,44.356174 C37.54332,44.41965 37.535816,44.44166 37.569305,44.48645 C37.62309,44.558372 37.79173,44.646397 37.810677,44.660233 C37.928345,44.74617 37.92283,44.9435 37.94653,45.060947 C37.96534,45.154152 38.074497,45.21641 38.107445,45.30757 C38.1539,45.436096 38.115025,45.556366 38.0895,45.684303 C38.079834,45.732758 38.076122,45.782463 38.063522,45.83024 C37.99712,46.081944 37.9749,46.136623 37.80901,46.32316 C37.79232,46.341923 37.773415,46.359295 37.752003,46.37241 C37.67534,46.419373 37.404625,46.54184 37.356308,46.56264 C37.253174,46.607044 37.150772,46.653973 37.04429,46.68959 C36.999725,46.704494 36.952286,46.71099 36.90536,46.71346 C36.35691,46.742332 35.80787,46.758698 35.259224,46.783566 C34.731327,46.80749 35.59664,46.842857 34.24266,46.78391 C34.03485,46.774864 33.828255,46.74738 33.6209,46.730965 C33.45969,46.718204 33.298103,46.710327 33.136993,46.696396 C33.046593,46.68858 32.955147,46.627857 32.912678,46.547886 C32.905487,46.534344 32.90108,46.5195 32.89529,46.505302 C32.878708,46.464638 32.86345,46.42341 32.845562,46.383305 C32.800392,46.282036 32.772446,46.19904 32.700386,46.12 C32.666775,46.08313 32.62854,46.05076 32.592617,46.01614 C32.513893,45.933666 32.432648,45.853523 32.356445,45.768715 C32.308167,45.714985 32.288998,45.661057 32.228962,45.62359 C32.090057,45.536892 31.932873,45.497726 31.769539,45.49511 C30.935154,45.48175 31.213387,45.43788 30.650703,45.589836 L30.650703,45.589836" /><defs><path id="DRAW_1463"  d="M32.67902,40.791027 C32.34072,40.79501 32.448105,40.77116 32.132717,40.860012 C32.11431,40.865196 32.08474,40.88601 32.07142,40.89879 C31.93724,41.02751 31.84412,41.42639 31.811144,41.5088 C31.75092,41.659294 31.68869,41.809532 31.613207,41.952984 C31.43312,42.29522 31.330132,42.362762 31.2239,42.66019 C31.212053,42.69335 31.208042,42.72887 31.20252,42.76365 C31.190231,42.841064 31.18808,42.920223 31.170488,42.996605 C31.148743,43.091026 31.10311,43.17923 31.084896,43.274395 C31.036919,43.52506 30.999268,43.936146 31.031574,44.1942 C31.055805,44.387764 31.10933,44.576607 31.155056,44.766247 C31.174253,44.845875 31.253376,44.93717 31.286648,44.997555 C31.502035,45.388466 31.15438,44.867306 31.537556,45.406082 L31.537556,45.406082" /></defs><use xlink:href="#DRAW_1463" fill="none" stroke="#000000" stroke-width="0.04mm" /><text style="font-family:'SpeleoUIS'; font-size:0.2mm;"><textPath xlink:href="#DRAW_1463">!!!!!!!!!!!!!!!!!!!!!!!!!!!!!!!!!!!!!!!!!!!!!!!!!!!!!!!!!!!!!!!!!!!!!!!!!!!!!!!!!!!!!!!!!!!!!</textPath></text><path fill="none" stroke="#000000" stroke-width="0.02mm" d="M30.58643,45.060913 C30.648115,45.04661 30.732471,45.045723 30.78585,44.999565 C30.831385,44.96019 30.83992,44.90837 30.86488,44.853153 C30.870947,44.839725 30.881836,44.830204 30.891838,44.819973 C30.911629,44.799732 30.940342,44.77456 30.951178,44.747116 C30.97817,44.67876 31.000965,44.60876 31.022453,44.538483 C31.027317,44.522575 31.027927,44.505657 31.030052,44.48916 C31.03535,44.448074 31.03928,44.406822 31.04472,44.365757 C31.047672,44.343464 31.053211,44.321514 31.05523,44.299118 C31.062298,44.220596 31.016258,44.111668 30.96732,44.057266 C30.900002,43.982433 30.796366,44.004745 30.701324,43.992012 C30.646816,43.984707 30.62555,43.939865 30.596148,43.901 C30.573376,43.8709 30.525337,43.87715 30.494541,43.88045 C30.437794,43.886536 30.381248,43.894463 30.324797,43.902863 C30.312237,43.90473 30.29599,43.91659 30.288706,43.92625 C30.271717,43.948772 30.243195,43.98265 30.232588,44.01447 C30.230377,44.021107 30.228306,44.027935 30.22786,44.034912 C30.224407,44.088955 30.225857,44.143295 30.220907,44.197216 C30.2188,44.22018 30.21384,44.242992 30.206745,44.26493 C30.175205,44.36246 30.135105,44.45714 30.105146,44.555164 C30.096556,44.583275 30.09282,44.612915 30.091423,44.642277 C30.086626,44.743168 30.090654,44.82704 30.149397,44.90979 C30.188618,44.965042 30.27098,44.97527 30.329283,45.000885 C30.345764,45.00813 30.360588,45.018845 30.377172,45.025845 C30.389256,45.030945 30.402287,45.033413 30.41489,45.037033 C30.487732,45.057945 30.560635,45.078644 30.633507,45.09945 L30.633507,45.09945" /><path fill="none" stroke="#000000" stroke-width="0.02mm" d="M30.372442,44.136063 C30.39024,44.171043 30.409586,44.203934 30.398962,44.24326 C30.395939,44.254448 30.373016,44.31154 30.377234,44.338562 C30.382744,44.373863 30.389484,44.409023 30.398216,44.443665 C30.43797,44.60134 30.395508,44.40505 30.433887,44.52947 C30.449223,44.579178 30.46299,44.629448 30.473927,44.680305 C30.484255,44.728325 30.469835,44.772423 30.470171,44.820095 C30.470358,44.846695 30.473148,44.87321 30.474636,44.89977 L30.474636,44.89977" /><path fill="none" stroke="#000000" stroke-width="0.02mm" d="M30.937366,44.144623 C30.905926,44.220947 30.900143,44.258358 30.856695,44.314384 C30.828667,44.350525 30.797318,44.384026 30.76968,44.420467 C30.756994,44.437195 30.748047,44.4565 30.735916,44.47364 C30.720436,44.495514 30.7084,44.494564 30.68985,44.508488 C30.680096,44.51581 30.670574,44.52366 30.662539,44.532833 C30.64172,44.55661 30.62321,44.582314 30.603548,44.60705 L30.603548,44.60705" /><path fill="none" stroke="#000000" stroke-width="0.02mm" d="M30.646345,44.68412 C30.732721,44.72906 30.766132,44.737305 30.809418,44.81346 L30.809418,44.81346" /><path fill="none" stroke="#000000" stroke-width="0.02mm" d="M29.893112,43.939102 C29.96489,43.83782 29.9417,43.879154 30.009228,43.715237 C30.013035,43.705994 30.01464,43.695908 30.015833,43.68598 C30.017246,43.674225 30.01818,43.66226 30.017002,43.65047 C30.009552,43.57586 30.00393,43.500824 29.989988,43.427143 C29.979239,43.37033 29.958588,43.31584 29.94315,43.26012 C29.939854,43.248222 29.938118,43.235847 29.933783,43.224293 C29.92863,43.210564 29.922052,43.197357 29.91481,43.18461 C29.907494,43.171738 29.875378,43.107834 29.848919,43.084717 C29.815504,43.055523 29.756702,43.03172 29.711426,43.03326 C29.697647,43.033733 29.683926,43.035633 29.670328,43.037914 C29.63479,43.043873 29.58045,43.045322 29.54969,43.0742 C29.4897,43.130524 29.424934,43.29814 29.403368,43.335167 C29.357506,43.413906 29.312563,43.444736 29.286774,43.520107 C29.252224,43.621086 29.295465,43.763763 29.387909,43.82103 C29.424736,43.84384 29.495354,43.85448 29.52264,43.859474 C29.545631,43.86368 29.569668,43.860466 29.592505,43.865444 C29.74646,43.899 29.780062,43.890972 29.86758,43.990627 L29.86758,43.990627" /><path fill="none" stroke="#000000" stroke-width="0.02mm" d="M29.747604,43.26259 C29.754627,43.309723 29.75834,43.35826 29.740204,43.403507 C29.737087,43.41128 29.732525,43.4184 29.728432,43.42571 C29.716667,43.44672 29.70229,43.4664 29.692627,43.48846 C29.676708,43.524803 29.665508,43.563038 29.651947,43.600327 L29.651947,43.600327" /><path fill="none" stroke="#000000" stroke-width="0.02mm" d="M30.26973,43.322533 C30.432999,43.288227 30.27921,43.316322 30.607048,43.30236 C30.653946,43.30036 30.700928,43.29756 30.747421,43.29109 C30.81871,43.28116 30.882591,43.269478 30.939291,43.22576 C30.949598,43.217815 30.963535,43.20289 30.970005,43.19077 C31.008854,43.118004 31.047647,43.045185 31.084324,42.971302 C31.087534,42.964836 31.088478,42.95741 31.089405,42.95025 C31.091835,42.93147 31.088472,42.913403 31.0826,42.895405 C31.05982,42.825577 30.997173,42.777958 30.929443,42.75385 C30.849174,42.725277 30.757463,42.745766 30.675735,42.75055 C30.652302,42.751923 30.594227,42.74674 30.562618,42.758327 C30.500336,42.78116 30.441895,42.815754 30.3773,42.83084 C30.24062,42.862766 30.100025,42.874744 29.961721,42.898674 C29.956505,42.89958 29.951813,42.902546 29.947264,42.905254 C29.917015,42.92324 29.897873,42.959694 29.888464,42.9924 C29.880701,43.019394 29.886375,43.051952 29.889784,43.07735 C29.893417,43.10443 29.90318,43.13581 29.916973,43.159565 C29.980095,43.26827 29.988178,43.270454 30.06987,43.348736 C30.128155,43.40459 30.090378,43.373352 30.154177,43.421013 L30.154177,43.421013" /><path fill="none" stroke="#000000" stroke-width="0.02mm" d="M29.781841,42.808727 C29.817055,42.79298 29.852268,42.77723 29.88748,42.761482 C29.91391,42.749226 29.939774,42.735676 29.966766,42.724716 C30.001545,42.710598 30.03509,42.720013 30.07125,42.71446 C30.276867,42.68288 30.481728,42.646572 30.687084,42.61335 C30.693333,42.61234 30.699787,42.612957 30.706005,42.61178 C30.72127,42.608875 30.74187,42.597836 30.752634,42.589756 C30.820084,42.539135 30.886986,42.487713 30.952127,42.434155 C30.971897,42.417896 30.982483,42.394947 31.005861,42.38389 C31.056278,42.360046 31.086037,42.35983 31.146206,42.343323 C31.158638,42.339912 31.173609,42.33399 31.180714,42.32211 C31.192604,42.30223 31.17956,42.27257 31.16735,42.25682 C31.142738,42.225063 31.062464,42.11224 31.000824,42.11286 C30.853882,42.114346 30.706923,42.11514 30.560013,42.11854 C30.52248,42.11941 30.484928,42.12154 30.447617,42.12567 C30.422487,42.128456 30.394207,42.144184 30.37352,42.155834 C30.340714,42.174305 30.27059,42.225 30.22107,42.23443 C30.159702,42.246113 30.09774,42.254856 30.035622,42.261463 C29.788418,42.287743 30.11599,42.226067 29.779686,42.291016 C29.772022,42.292496 29.764717,42.295654 29.757713,42.299095 C29.6822,42.336174 29.55174,42.489285 29.551258,42.489746 C29.418068,42.6104 29.572302,42.468067 29.451847,42.587044 C29.429491,42.609123 29.380634,42.641735 29.36868,42.678448 C29.360287,42.704216 29.373363,42.73152 29.385807,42.753403 C29.436852,42.843147 29.493458,42.86449 29.584013,42.907993 L29.584013,42.907993" /><path fill="none" stroke="#000000" stroke-width="0.02mm" d="M29.798958,42.68884 C29.871696,42.58498 29.883274,42.59853 30.000875,42.547466 C30.039757,42.530582 30.036316,42.5244 30.07018,42.518063 C30.076656,42.516853 30.083305,42.516796 30.08989,42.516552 C30.205421,42.512295 30.32101,42.509552 30.436514,42.504555 C30.586666,42.498062 30.563835,42.492058 30.753338,42.449062 L30.753338,42.449062" /><path fill="none" stroke="#000000" stroke-width="0.02mm" d="M30.201254,43.26259 C30.269867,43.249836 30.338482,43.23708 30.407097,43.224323 C30.47981,43.21637 30.553204,43.21316 30.62524,43.20046 C30.645508,43.196884 30.748425,43.180187 30.78299,43.143585 C30.79417,43.131744 30.794144,43.127728 30.801373,43.11321 C30.859825,42.995766 30.837257,43.0328 30.86461,42.98856 L30.86461,42.98856" /><path fill="none" stroke="#000000" stroke-width="0.02mm" d="M30.244051,43.057068 C30.267662,43.035774 30.29035,43.013412 30.31488,42.993187 C30.322899,42.986576 30.331684,42.98048 30.341404,42.9768 C30.45663,42.933193 30.573227,42.893295 30.68914,42.851543 L30.68914,42.851543" /><path fill="none" stroke="#000000" stroke-width="0.02mm" d="M30.945925,43.416733 C30.507236,43.392212 30.830086,43.39756 30.60336,43.410843 C30.55449,43.413708 30.51543,43.406326 30.470661,43.431908 C30.38785,43.479225 30.34409,43.55899 30.284704,43.632423 C30.27319,43.64666 30.258032,43.657936 30.247845,43.673153 C30.23213,43.696625 30.19529,43.751095 30.187023,43.791477 C30.180456,43.82355 30.186565,43.866795 30.189308,43.894768 C30.194225,43.944946 30.287533,43.972645 30.31173,43.982227 C30.385204,44.011322 30.587105,43.996925 30.59402,43.99678 C30.619076,43.996258 30.73402,43.999325 30.781328,43.971554 C30.861477,43.924507 30.879276,43.827545 30.92149,43.75315 C30.963951,43.67832 31.013206,43.60755 31.059063,43.53475 L31.059063,43.53475" /><path fill="none" stroke="#000000" stroke-width="0.02mm" d="M30.372442,43.802086 C30.450066,43.7089 30.454998,43.684433 30.56046,43.64768 C30.607958,43.631123 30.701992,43.629467 30.737698,43.62328 C30.764935,43.61856 30.79092,43.608322 30.817533,43.600845 L30.817533,43.600845" /><path fill="none" stroke="#000000" stroke-width="0.06mm" d="M31.604378,41.012905 L31.81023,40.97394" /><path fill="none" stroke="#000000" stroke-width="0.06mm" d="M35.13302,41.74117 C34.680943,41.844627 35.138176,41.747776 34.403877,41.854706 C34.36187,41.860825 34.30658,41.88088 34.269985,41.905197 C34.17688,41.967064 34.132816,42.069054 34.06442,42.153713 C33.988457,42.24774 33.910706,42.34058 33.827454,42.428223 C33.755653,42.50381 33.67252,42.567986 33.59987,42.642757 C33.57482,42.668533 33.554176,42.69851 33.53518,42.729023 C33.43583,42.8886 33.35863,43.03047 33.341106,43.219208 C33.32991,43.339752 33.403255,43.44957 33.47358,43.53901 C33.496185,43.56776 33.5532,43.62472 33.596153,43.62694 C35.067787,43.702972 34.569176,43.70096 35.766296,43.64537 L35.766296,43.64537" /><path fill="none" stroke="#000000" stroke-width="0.06mm" d="M34.60091,42.2121 L34.693005,42.25305" /><defs><path id="DRAW_1512"  d="M40.567276,41.550148 C40.591835,41.459476 40.619904,41.369682 40.640953,41.278133 C40.645905,41.2566 40.645596,41.23406 40.645035,41.211967 C40.639668,40.99956 40.64352,40.78642 40.623177,40.57492 C40.61432,40.482822 40.57968,40.395058 40.557816,40.305157 C40.552822,40.28463 40.54985,40.26348 40.542595,40.24364 C40.533607,40.219074 40.52082,40.19606 40.509315,40.172565 C40.33365,39.813828 40.36624,39.85515 40.088814,39.47889 C39.909428,39.2356 39.717014,39.0021 39.537212,38.759117 C39.440254,38.628086 39.361145,38.483963 39.25875,38.357132 C39.17713,38.25603 39.078598,38.169827 38.98705,38.07762 C38.929985,38.020145 38.80125,38.08426 38.748226,38.106438 L38.748226,38.106438" /></defs><use xlink:href="#DRAW_1512" fill="none" stroke="#000000" stroke-width="0.04mm" /><text style="font-family:'SpeleoUIS'; font-size:0.2mm;"><textPath xlink:href="#DRAW_1512">!!!!!!!!!!!!!!!!!!!!!!!!!!!!!!!!!!!!!!!!!!!!!!!!!!!!!!!!!!!!!!!!!!!!!!!!!!!!!!!!!!!!!!!!!!!!!</textPath></text><defs><path id="DRAW_1514"  d="M38.516655,37.898712 C38.454582,37.940796 38.38954,37.99749 38.31372,38.018623 C38.276882,38.02889 38.239235,38.03938 38.201004,38.03999 C37.9189,38.04448 37.63641,38.02008 37.354607,38.033886 C37.1303,38.044876 36.90795,38.08213 36.685677,38.114235 C36.659534,38.11801 36.633327,38.126854 36.611187,38.14126 C36.454758,38.243004 36.30163,38.34997 36.151947,38.461403 C36.02824,38.553497 36.0467,38.60433 35.926476,38.731144 C35.850273,38.81152 35.758675,38.87593 35.679146,38.953014 C35.65852,38.973007 35.64383,38.998337 35.626884,39.021526 C35.58766,39.075176 35.551727,39.13127 35.51065,39.183517 C35.42916,39.28716 35.28337,39.27049 35.188812,39.37429 C35.17823,39.38591 35.167336,39.397797 35.160313,39.41186 C35.06908,39.601147 34.977848,39.790436 34.88662,39.97972 C34.86046,40.01861 34.83017,40.055016 34.808144,40.096382 C34.654133,40.385586 34.75083,40.30401 34.539692,40.639877 C34.467148,40.75528 34.38439,40.864407 34.29689,40.968925 C34.261364,41.01136 34.16696,41.12207 34.08353,41.14212 C34.013393,41.158978 33.931087,41.1369 33.86584,41.112362 C33.82749,41.09794 33.71322,41.0626 33.660473,41.016876 C33.603294,40.967304 33.58391,40.89337 33.51954,40.839424 C33.42345,40.758904 33.30499,40.719353 33.192574,40.66552 L33.192574,40.66552" /></defs><use xlink:href="#DRAW_1514" fill="none" stroke="#000000" stroke-width="0.04mm" /><text style="font-family:'SpeleoUIS'; font-size:0.2mm;"><textPath xlink:href="#DRAW_1514">!!!!!!!!!!!!!!!!!!!!!!!!!!!!!!!!!!!!!!!!!!!!!!!!!!!!!!!!!!!!!!!!!!!!!!!!!!!!!!!!!!!!!!!!!!!!!</textPath></text><defs><path id="DRAW_1517"  d="M37.80176,45.483906 C38.31124,44.932247 38.13224,45.09145 38.888885,44.49489 C38.93972,44.45481 39.00131,44.4302 39.05371,44.3922 C39.166634,44.310318 39.18271,44.250813 39.29231,44.144806 C39.661102,43.788086 39.516006,44.011623 39.79449,43.5943 C39.838135,43.528893 39.864136,43.403297 39.892487,43.34338 C39.992058,43.132946 40.093594,42.92307 40.207855,42.720234 C40.2556,42.635475 40.326725,42.56572 40.37735,42.482647 C40.41008,42.428936 40.428566,42.367695 40.456898,42.311543 C40.474354,42.276947 40.498184,42.245724 40.514595,42.21062 C40.57088,42.090195 40.576225,41.933754 40.577423,41.805748 C40.57794,41.750023 40.52919,41.656925 40.514763,41.621918 L40.514763,41.621918" /></defs><use xlink:href="#DRAW_1517" fill="none" stroke="#000000" stroke-width="0.04mm" /><text style="font-family:'SpeleoUIS'; font-size:0.2mm;"><textPath xlink:href="#DRAW_1517">!!!!!!!!!!!!!!!!!!!!!!!!!!!!!!!!!!!!!!!!!!!!!!!!!!!!!!!!!!!!!!!!!!!!!!!!!!!!!!!!!!!!!!!!!!!!!</textPath></text><defs><path id="DRAW_1521"  d="M35.60394,45.662975 C35.67791,45.6592 35.751793,45.65287 35.825848,45.651653 C35.860424,45.651085 35.894875,45.656124 35.92942,45.657627 C36.397346,45.677975 36.203857,45.658558 36.85623,45.72273 C36.89203,45.72625 36.926517,45.74011 36.96245,45.741734 C37.218758,45.75333 37.30687,45.74478 37.557594,45.693962 C37.585,45.688404 37.610554,45.675915 37.636513,45.665516 C37.6407,45.663837 37.64434,45.660892 37.64769,45.657867 C37.653496,45.652615 37.65912,45.647057 37.66385,45.640812 C37.693962,45.601006 37.722694,45.56017 37.752117,45.519848 L37.752117,45.519848" /></defs><use xlink:href="#DRAW_1521" fill="none" stroke="#000000" stroke-width="0.04mm" /><text style="font-family:'SpeleoUIS'; font-size:0.2mm;"><textPath xlink:href="#DRAW_1521">!!!!!!!!!!!!!!!!!!!!!!!!!!!!!!!!!!!!!!!!!!!!!!!!!!!!!!!!!!!!!!!!!!!!!!!!!!!!!!!!!!!!!!!!!!!!!</textPath></text><defs><path id="DRAW_1522"  d="M34.678356,49.74282 L34.678356,49.692493" /></defs><use xlink:href="#DRAW_1522" fill="none" stroke="#000000" stroke-width="0.04mm" /><text style="font-family:'SpeleoUIS'; font-size:0.2mm;"><textPath xlink:href="#DRAW_1522">!!!!!!!!!!!!!!!!!!!!!!!!!!!!!!!!!!!!!!!!!!!!!!!!!!!!!!!!!!!!!!!!!!!!!!!!!!!!!!!!!!!!!!!!!!!!!</textPath></text><defs><path id="DRAW_1524"  d="M32.810947,46.29387 C33.97354,46.31895 33.10293,46.31821 33.49461,46.299107 C33.627754,46.29261 33.76132,46.293167 33.89415,46.281956 C33.99003,46.27386 34.084854,46.25605 34.17993,46.241253 C34.211555,46.23633 34.249065,46.184635 34.264065,46.173836 C34.310986,46.14005 34.36039,46.10971 34.410477,46.080833 C34.423355,46.07341 34.43775,46.06842 34.452286,46.065323 C34.531006,46.048557 34.61135,46.03978 34.689697,46.021362 C34.736683,46.010315 34.782,45.993015 34.827568,45.977097 C34.83601,45.974144 34.85181,45.963272 34.858047,45.956028 C34.87858,45.93218 34.945114,45.824554 35.004715,45.799114 C35.00924,45.797184 35.01402,45.795776 35.018867,45.794964 C35.083214,45.784157 35.148033,45.776154 35.21219,45.764263 C35.22102,45.762627 35.229153,45.758274 35.237293,45.75448 C35.258766,45.74446 35.278812,45.731293 35.300957,45.722855 C35.331295,45.711296 35.36232,45.700848 35.394196,45.694695 C35.490273,45.67615 35.484547,45.68847 35.55919,45.679424 C35.587814,45.675953 35.616203,45.67078 35.644714,45.66646 L35.644714,45.66646" /></defs><use xlink:href="#DRAW_1524" fill="none" stroke="#000000" stroke-width="0.04mm" /><text style="font-family:'SpeleoUIS'; font-size:0.2mm;"><textPath xlink:href="#DRAW_1524">!!!!!!!!!!!!!!!!!!!!!!!!!!!!!!!!!!!!!!!!!!!!!!!!!!!!!!!!!!!!!!!!!!!!!!!!!!!!!!!!!!!!!!!!!!!!!</textPath></text><path fill="none" stroke="#000000" stroke-width="0.02mm" d="M37.41007,40.673626 C37.814217,40.678303 37.61367,40.66094 38.011692,40.725513 L38.011692,40.725513" /><path fill="none" stroke="#000000" stroke-width="0.02mm" d="M37.576035,40.25852 C37.465454,40.31109 37.411514,40.324978 37.325226,40.40046 C37.22967,40.484047 37.12523,40.675552 37.151085,40.809155 C37.16709,40.891888 37.188087,40.97373 37.21242,41.05441 C37.22533,41.097214 37.257637,41.1516 37.287945,41.18575 C37.321358,41.22339 37.386147,41.258087 37.425884,41.275265 C37.515293,41.313908 37.605118,41.35272 37.698433,41.38063 C37.83589,41.42175 38.06684,41.44424 38.199936,41.40309 C38.244835,41.389206 38.282066,41.35564 38.302002,41.31304 C38.378098,41.15042 38.396233,41.056347 38.341496,40.88064 C38.312706,40.788216 38.278,40.671947 38.211082,40.59208 C38.091713,40.449615 37.954147,40.39093 37.772507,40.33625 L37.772507,40.33625" /><path fill="none" stroke="#000000" stroke-width="0.06mm" stroke-dasharray="0.3,0.1" d="M33.09768,39.37991 L33.09768,39.460476" /><path fill="none" stroke="#000000" stroke-width="0.06mm" stroke-dasharray="0.3,0.1" d="M34.433228,40.622837 C34.36273,40.694954 34.355255,40.714996 34.284645,40.758286 C34.270218,40.76713 34.249294,40.77322 34.23272,40.77565 C34.107895,40.79393 34.095993,40.788414 33.958946,40.75542 C33.948994,40.753025 33.939606,40.748413 33.930695,40.743374 C33.876335,40.712646 33.848774,40.64934 33.78601,40.63307 C33.77032,40.629005 33.75436,40.62517 33.73817,40.624332 C33.590866,40.616707 33.509094,40.593216 33.389,40.63481 L33.389,40.63481" /><path fill="none" stroke="#000000" stroke-width="0.06mm" stroke-dasharray="0.3,0.1" d="M34.699608,40.20599 C34.656677,40.22878 34.631195,40.235264 34.601295,40.26468 C34.580616,40.285027 34.562294,40.307774 34.540703,40.32715 C34.504395,40.35973 34.489956,40.358997 34.45062,40.38617 C34.436237,40.396107 34.424118,40.40911 34.40959,40.41884 C34.393803,40.429405 34.360153,40.443214 34.341652,40.445797 C34.23175,40.46116 34.15827,40.462852 34.045425,40.455666 C33.872734,40.44467 34.07937,40.434315 33.876553,40.452 L33.876553,40.452" /><defs><path id="DRAW_1536"  d="M33.251575,40.60917 C33.23664,40.617817 33.222282,40.62755 33.20677,40.63511 C33.19767,40.639545 33.188087,40.643665 33.178047,40.645008 C33.082047,40.65783 32.985558,40.66667 32.889313,40.677505 L32.889313,40.677505" /></defs><use xlink:href="#DRAW_1536" fill="none" stroke="#000000" stroke-width="0.04mm" /><text style="font-family:'SpeleoUIS'; font-size:0.2mm;"><textPath xlink:href="#DRAW_1536">!!!!!!!!!!!!!!!!!!!!!!!!!!!!!!!!!!!!!!!!!!!!!!!!!!!!!!!!!!!!!!!!!!!!!!!!!!!!!!!!!!!!!!!!!!!!!</textPath></text><defs><path id="DRAW_1537"  d="M32.88274,40.663837 C32.765266,40.683258 32.845165,40.66615 32.65051,40.742424 L32.65051,40.742424" /></defs><use xlink:href="#DRAW_1537" fill="none" stroke="#000000" stroke-width="0.04mm" /><text style="font-family:'SpeleoUIS'; font-size:0.2mm;"><textPath xlink:href="#DRAW_1537">!!!!!!!!!!!!!!!!!!!!!!!!!!!!!!!!!!!!!!!!!!!!!!!!!!!!!!!!!!!!!!!!!!!!!!!!!!!!!!!!!!!!!!!!!!!!!</textPath></text><path fill="none" stroke="#000000" stroke-width="0.06mm" d="M34.87037,41.6752 C34.92019,41.57288 34.95392,41.51835 34.9765,41.40051 C34.99506,41.30367 35.004807,41.205242 35.013565,41.10703 C35.015644,41.08372 35.012314,41.060135 35.008926,41.03698 C34.99951,40.972706 34.987232,40.93882 34.95704,40.880165 C34.948215,40.86303 34.93823,40.846226 34.925724,40.83156 C34.91458,40.81849 34.851624,40.737644 34.808075,40.72711 C34.77659,40.719498 34.744896,40.71235 34.712803,40.70795 C34.698586,40.706 34.684063,40.707176 34.669746,40.708157 C34.56599,40.715252 34.46237,40.724167 34.35868,40.732174 L34.35868,40.732174" /><path fill="none" stroke="#000000" stroke-width="0.02mm" d="M35.53199,42.842773 C35.586285,42.7771 35.622185,42.719845 35.687477,42.671402 C35.722263,42.64559 35.760674,42.624847 35.79496,42.59838 C35.83439,42.567947 35.856655,42.521954 35.904995,42.50415 C35.953526,42.48628 36.02945,42.47438 36.06823,42.429058 C36.082417,42.412476 36.14598,42.31575 36.190956,42.285263 C36.26745,42.233406 36.34394,42.181427 36.42283,42.1333 C36.444412,42.120136 36.467934,42.110092 36.491795,42.10174 C36.53399,42.08698 36.596497,42.084106 36.633278,42.04985 C36.640182,42.043415 36.6473,42.036884 36.652336,42.028893 C36.812843,41.774044 36.73642,41.90706 36.83419,41.657528 C36.846222,41.626823 36.869606,41.610214 36.876972,41.57377 C36.899406,41.46276 36.917397,41.361225 36.911358,41.247726 C36.90964,41.215454 36.90139,41.183716 36.89274,41.152576 C36.87876,41.10224 36.861465,41.052853 36.843605,41.00376 C36.840176,40.994335 36.835762,40.98487 36.82902,40.97744 C36.78927,40.9336 36.681858,40.809048 36.605247,40.759 C36.58771,40.747543 36.56841,40.738983 36.549377,40.730236 C36.50233,40.708622 36.45586,40.685333 36.40709,40.667957 C36.269722,40.619026 36.123573,40.614452 35.979797,40.60232 C35.848495,40.59124 35.93155,40.580772 35.687332,40.60849 C35.653873,40.612286 35.621944,40.6247 35.58968,40.634335 C35.58522,40.635666 35.581276,40.638466 35.577568,40.641273 C35.54618,40.66503 35.52975,40.704533 35.515247,40.73973 C35.509953,40.752583 35.50668,40.766277 35.50057,40.778763 C35.491066,40.798176 35.477924,40.815674 35.468548,40.83515 C35.463448,40.84574 35.461006,40.857414 35.45732,40.868576 C35.45311,40.881336 35.45123,40.895084 35.444862,40.90692 C35.436577,40.922318 35.361374,41.024925 35.347748,41.08248 C35.344975,41.0942 35.344017,41.106277 35.34244,41.118217 C35.333237,41.187992 35.322147,41.25756 35.3154,41.327614 C35.31357,41.34662 35.318058,41.36583 35.31675,41.38488 C35.285164,41.670254 35.3137,41.371235 35.30253,41.607918 C35.302025,41.618553 35.299824,41.629143 35.296738,41.639336 C35.26633,41.73987 35.236187,41.840534 35.202118,41.939884 C35.190353,41.974174 35.17141,42.005695 35.15937,42.03989 C35.151054,42.063522 35.14797,42.088696 35.141224,42.11282 C35.13767,42.125538 35.131756,42.137543 35.128498,42.15034 C35.11808,42.191246 35.133102,42.231846 35.134533,42.272583 C35.136642,42.33268 35.135334,42.392853 35.136482,42.452976 C35.137054,42.48283 35.140293,42.512646 35.13969,42.5425 C35.137745,42.55609 35.1358,42.569683 35.133854,42.583275 C35.132988,42.589565 35.131424,42.595795 35.13125,42.60214 C35.130363,42.634342 35.142994,42.632973 35.147675,42.676586 C35.15678,42.761486 35.15506,42.847416 35.166145,42.93208 C35.17328,42.98654 35.19155,43.06163 35.254677,43.0743 C35.30141,43.08368 35.3513,43.069775 35.39619,43.06284 C35.415348,43.059875 35.437904,43.04426 35.44634,43.026596 C35.496216,42.922173 35.54441,42.816948 35.593445,42.712124 L35.593445,42.712124" /><path fill="none" stroke="#000000" stroke-width="0.02mm" d="M35.316906,42.30481 C35.318863,42.290276 35.31941,42.275482 35.322784,42.26121 C35.325817,42.2484 35.33068,42.23604 35.33603,42.22401 C35.361614,42.166424 35.38959,42.109924 35.415524,42.052494 C35.496693,41.860107 35.39474,42.093647 35.47707,41.92752 C35.486725,41.90803 35.491745,41.886375 35.5022,41.867302 C35.53179,41.81334 35.56548,41.761726 35.59697,41.70885 C35.606762,41.6924 35.616943,41.676167 35.62605,41.65933 C35.632614,41.647194 35.637146,41.634014 35.643932,41.622 C35.653233,41.60554 35.65788,41.603676 35.67045,41.591732 C35.69759,41.565945 35.726784,41.54213 35.751663,41.514156 C35.900967,41.346294 35.900906,41.333897 36.019768,41.155876 L36.019768,41.155876" /><path fill="none" stroke="#000000" stroke-width="0.02mm" d="M35.38604,42.63527 C35.435562,42.579563 35.44753,42.513874 35.473885,42.447906 C35.479877,42.432907 35.489044,42.419285 35.49476,42.40418 C35.504375,42.37877 35.509674,42.351833 35.519783,42.326614 C35.525562,42.312195 35.53368,42.298748 35.542217,42.28577 C35.561417,42.256577 35.582558,42.228703 35.602882,42.200275 C35.606358,42.19541 35.609505,42.190254 35.61361,42.185913 C35.634315,42.164017 35.64737,42.162735 35.675537,42.14145 C35.683487,42.135445 35.690224,42.12796 35.697,42.12066 C35.725586,42.089855 35.752625,42.05762 35.781586,42.027164 C35.79406,42.01405 35.809036,42.003433 35.821205,41.99004 C35.84453,41.964367 35.856667,41.930397 35.88279,41.9073 C35.92213,41.872513 35.977303,41.865078 36.01571,41.82678 C36.208702,41.61743 35.97149,41.86802 36.147064,41.70072 C36.163414,41.685146 36.17404,41.663773 36.19188,41.649925 C36.24273,41.61044 36.297962,41.576927 36.35186,41.54171 C36.382523,41.52167 36.384995,41.528023 36.406498,41.506554 C36.46173,41.451412 36.48249,41.376266 36.513477,41.307514 C36.545372,41.23675 36.579216,41.16688 36.61209,41.09657 L36.61209,41.09657" /><path fill="none" stroke="#000000" stroke-width="0.02mm" d="M36.30783,43.042587 C36.40915,43.057953 36.492977,43.130344 36.595455,43.138683 C36.66986,43.144737 36.74443,43.148582 36.81898,43.15242 C36.838196,43.15341 36.85768,43.15027 36.8767,43.153168 C37.04599,43.178997 37.214783,43.20807 37.3833,43.238514 C37.39897,43.24135 37.42623,43.25732 37.438484,43.266464 C37.47101,43.290733 37.496834,43.37547 37.546318,43.36224 C37.565445,43.35713 37.590267,43.33239 37.59706,43.31493 C37.615936,43.266445 37.654724,43.171257 37.657055,43.106087 C37.662918,42.942314 37.675323,42.87365 37.59839,42.744682 C37.588894,42.728767 37.560368,42.69476 37.543434,42.684826 C37.490566,42.65381 37.432396,42.63206 37.380924,42.598778 C37.258926,42.519886 37.27859,42.513016 37.189896,42.42694 C37.160828,42.398735 37.069122,42.36779 37.05768,42.36352 C37.046955,42.35952 37.03542,42.35783 37.024033,42.356693 C36.978035,42.35209 36.931873,42.349266 36.885742,42.346317 C36.78608,42.339947 36.78318,42.34499 36.65037,42.364525 C36.64347,42.36554 36.636894,42.368465 36.630714,42.371704 C36.579727,42.39839 36.526295,42.452934 36.491425,42.48626 C36.44319,42.532352 36.399826,42.583435 36.350708,42.628586 C36.320717,42.656155 36.28727,42.67974 36.254547,42.70401 C36.238014,42.716274 36.216644,42.716484 36.198174,42.72378 C36.168167,42.735634 36.14892,42.766914 36.155567,42.798847 C36.16503,42.8443 36.17514,42.88961 36.18493,42.934994 L36.18493,42.934994" /><path fill="none" stroke="#000000" stroke-width="0.02mm" d="M36.699593,42.79666 C36.90209,42.771408 36.87899,42.76718 37.16028,42.79321 C37.20609,42.797447 37.25004,42.813442 37.294918,42.82356 L37.294918,42.82356" /><path fill="none" stroke="#000000" stroke-width="0.02mm" d="M37.920967,42.166473 C37.88778,42.176167 37.855072,42.187687 37.8214,42.195553 C37.807777,42.19874 37.793594,42.200138 37.779625,42.1995 C37.701687,42.19597 37.623398,42.194016 37.54615,42.18307 C37.476692,42.17323 37.38047,42.13234 37.334732,42.07457 C37.30375,42.035427 37.29414,41.96152 37.28018,41.924694 C37.261814,41.876217 37.237743,41.830074 37.218254,41.782036 C37.215935,41.77632 37.215256,41.769997 37.21492,41.76384 C37.214382,41.753902 37.21463,41.743893 37.215645,41.73399 C37.222046,41.67144 37.232147,41.609264 37.23716,41.546585 C37.238487,41.529987 37.23652,41.51324 37.234604,41.496704 C37.232964,41.482513 37.214386,41.44301 37.236923,41.429882 C37.239494,41.428383 37.24227,41.42688 37.24524,41.426598 C37.26661,41.42457 37.288067,41.422764 37.309532,41.42298 C37.42122,41.424114 37.532913,41.426506 37.64453,41.43065 C37.65319,41.43097 37.661587,41.433872 37.66989,41.436348 C37.705112,41.446835 37.74362,41.489094 37.74392,41.52728 C37.7443,41.574894 37.74224,41.6225 37.741188,41.670105 C37.74107,41.675434 37.740128,41.680756 37.74041,41.686077 C37.74182,41.71298 37.766693,41.729877 37.788857,41.739918 C37.84253,41.76423 37.917343,41.726154 37.962868,41.715252 C37.967606,41.714115 37.98167,41.71324 37.984123,41.720806 C37.985558,41.72523 37.983147,41.728947 37.981876,41.732964 C37.976856,41.74886 37.969177,41.764183 37.96702,41.780712 C37.92503,42.102325 37.977646,41.883125 37.91713,42.104992 L37.91713,42.104992" /><path fill="none" stroke="#000000" stroke-width="0.02mm" d="M37.69052,41.812954 C37.648895,41.813435 37.508545,41.859352 37.455673,41.8002 C37.43505,41.777122 37.429817,41.74748 37.421665,41.71856 L37.421665,41.71856" /><path fill="none" stroke="#000000" stroke-width="0.02mm" d="M37.114403,40.514156 C37.09175,40.45932 37.065594,40.407833 37.012306,40.37773 C37.001366,40.371548 36.981895,40.364075 36.968987,40.363667 C36.901676,40.361526 36.83431,40.36123 36.76696,40.361275 C36.742386,40.361294 36.738907,40.396328 36.745125,40.412743 C36.74842,40.421455 36.752495,40.426327 36.758587,40.43333 C36.80386,40.485405 36.848827,40.537758 36.894806,40.58921 C36.89958,40.594555 36.919426,40.60128 36.921898,40.60173 C36.951294,40.607117 36.981102,40.60995 37.010696,40.614063 L37.010696,40.614063" /><path fill="none" stroke="#000000" stroke-width="0.02mm" d="M36.72264,40.15295 C36.483215,40.172596 36.817764,40.14832 36.585217,40.155052 C36.484924,40.15796 36.384743,40.16386 36.28456,40.16935 C36.282078,40.169487 36.279778,40.170788 36.27756,40.171913 C36.26635,40.177593 36.258797,40.190712 36.256294,40.20262 C36.250717,40.229176 36.245274,40.255814 36.241817,40.282726 C36.240692,40.291473 36.241447,40.30043 36.24262,40.309174 C36.249153,40.357933 36.272224,40.39206 36.325493,40.397034 C36.497383,40.413082 36.475807,40.410793 36.604538,40.396477 L36.604538,40.396477" /><path fill="none" stroke="#000000" stroke-width="0.02mm" d="M36.108112,40.383507 C36.01564,40.38921 35.923283,40.39716 35.830704,40.40061 C35.79986,40.401764 35.768948,40.399582 35.738167,40.39731 C35.71628,40.39569 35.68984,40.379013 35.676605,40.36294 C35.643272,40.319115 35.609074,40.27594 35.576614,40.23147 C35.573624,40.22737 35.57283,40.219032 35.575035,40.214302 C35.577705,40.20858 35.5841,40.205364 35.589645,40.203545 C35.620037,40.193577 35.649475,40.178574 35.68126,40.17501 C35.751205,40.167168 35.82197,40.168243 35.892345,40.1696 C35.903122,40.16981 35.985184,40.166748 36.013206,40.191616 C36.035362,40.21128 36.041527,40.244865 36.044735,40.27268 C36.04534,40.277958 36.044426,40.28346 36.04583,40.28858 C36.059006,40.336487 36.06061,40.3384 36.07501,40.371067 L36.07501,40.371067" /><path fill="none" stroke="#000000" stroke-width="0.02mm" d="M37.329483,40.15295 C37.34737,40.129055 37.362236,40.106968 37.34104,40.081112 C37.33258,40.070793 37.323807,40.0634 37.31198,40.05713 C37.297073,40.04922 37.273724,40.043785 37.25972,40.037415 C37.23228,40.024933 37.22241,40.01128 37.19433,39.995815 C37.12807,39.95932 36.98323,39.950138 36.921227,39.988995 C36.896263,40.004635 36.886078,40.048527 36.878788,40.068798 C36.866936,40.101757 36.872097,40.138565 36.882652,40.171024 C36.899223,40.221973 36.921555,40.267715 36.968067,40.29608 C37.000946,40.31613 37.058064,40.309917 37.091354,40.310497 L37.091354,40.310497" /><path fill="none" stroke="#000000" stroke-width="0.02mm" d="M38.430058,39.175484 L38.36621,39.143547" /><path fill="none" stroke="#000000" stroke-width="0.02mm" d="M37.838573,39.19854 C37.828197,39.207184 37.81713,39.215057 37.80744,39.22447 C37.79527,39.236294 37.784378,39.25802 37.778584,39.272446 C37.764427,39.30771 37.760017,39.34673 37.780296,39.380512 C37.789127,39.395218 37.80124,39.40829 37.81726,39.415123 C37.82206,39.417168 37.827053,39.419228 37.832253,39.41959 C37.870735,39.422276 37.90982,39.41795 37.947876,39.424236 C38.028603,39.437572 38.107174,39.461803 38.187325,39.478245 C38.202988,39.481457 38.239693,39.474224 38.250507,39.470425 C38.32144,39.44552 38.32714,39.440086 38.380127,39.40988 L38.380127,39.40988" /><path fill="none" stroke="#000000" stroke-width="0.02mm" d="M39.121403,40.166874 C39.154854,40.203075 39.184357,40.243404 39.185455,40.294685 C39.186134,40.326363 39.173042,40.385696 39.169617,40.406593 C39.163143,40.446087 39.162323,40.499058 39.12951,40.528687 C39.11759,40.539448 39.109573,40.543583 39.094727,40.549892 C38.972794,40.601673 38.97458,40.60344 38.835327,40.59598 C38.80642,40.594433 38.776344,40.590435 38.74958,40.578453 C38.726234,40.567997 38.690666,40.536133 38.680504,40.512848 C38.588444,40.301884 38.59768,40.34906 38.62776,40.12857 C38.63003,40.111942 38.64711,40.09741 38.661278,40.09109 C38.749817,40.0516 38.96561,40.067818 38.99411,40.066967 L38.99411,40.066967" /><path fill="none" stroke="#000000" stroke-width="0.02mm" d="M39.367214,41.0891 C39.368217,41.11755 39.369217,41.145996 39.37022,41.174446 C39.371674,41.19387 39.374405,41.213238 39.37458,41.23271 C39.376633,41.454597 39.362656,41.26187 39.380566,41.50755 C39.380577,41.507717 39.394264,41.579613 39.387695,41.608536 C39.380203,41.64155 39.342644,41.66052 39.3114,41.663277 C39.24395,41.667843 39.17649,41.672413 39.10904,41.67698 C39.10665,41.676426 39.104164,41.676178 39.101875,41.675316 C39.05703,41.658455 39.04779,41.59102 39.039276,41.55343 C39.032524,41.523613 39.02733,41.49346 39.020847,41.463585 C39.01709,41.446266 39.010944,41.429417 39.008575,41.411854 C39.007324,41.402588 38.96865,41.191032 39.007355,41.14789 C39.012417,41.142246 39.020073,41.13814 39.027702,41.13755 C39.14212,41.128654 39.256607,41.12062 39.371056,41.112156 L39.371056,41.112156" /><path fill="none" stroke="#000000" stroke-width="0.02mm" d="M39.10604,42.09586 C39.139927,42.233734 39.134033,42.26404 39.10795,42.407654 C39.104668,42.425716 39.090477,42.44481 39.076447,42.455982 C39.035152,42.488853 39.00974,42.48133 38.96264,42.495754 C38.858868,42.527542 38.75624,42.562992 38.652534,42.594997 C38.634842,42.600456 38.614594,42.593494 38.599808,42.584118 C38.562683,42.560574 38.563072,42.495308 38.563183,42.4608 C38.563477,42.36685 38.566254,42.27291 38.5698,42.179028 C38.570724,42.154552 38.589905,42.123795 38.615074,42.11767 C38.66834,42.10471 38.722084,42.093666 38.776054,42.084072 C38.790703,42.081467 38.805725,42.08167 38.820595,42.081135 C38.862137,42.079647 38.903786,42.08074 38.945263,42.07801 C38.98492,42.075397 39.024284,42.069416 39.06379,42.06512 L39.06379,42.06512" /><path fill="none" stroke="#000000" stroke-width="0.02mm" d="M39.059948,42.902805 C39.034515,43.033924 39.038147,42.983196 39.03968,43.13562 C39.039852,43.152798 39.044346,43.16997 39.042686,43.187073 C39.041584,43.198395 39.040703,43.266636 39.016304,43.289314 C38.991493,43.31237 38.93419,43.314762 38.911602,43.316547 C38.817337,43.324005 38.7228,43.32763 38.62834,43.331993 C38.620987,43.332333 38.61178,43.326866 38.607033,43.32163 C38.603394,43.317616 38.600784,43.312447 38.59932,43.307274 C38.559868,43.167976 38.520226,43.028725 38.48185,42.889126 C38.47808,42.875412 38.496284,42.860065 38.506462,42.855778 C38.64435,42.79772 38.797775,42.847237 38.94371,42.83364 L38.94371,42.83364" /><path fill="none" stroke="#000000" stroke-width="0.02mm" d="M37.953796,43.978733 C37.97094,43.957436 38.22372,44.026012 38.282997,43.95236 C38.28527,43.949535 38.287518,43.94657 38.288902,43.943222 C38.310944,43.890064 38.332726,43.836784 38.353214,43.78301 C38.383762,43.702827 38.413223,43.62223 38.441994,43.541397 C38.444542,43.53425 38.44112,43.523926 38.436516,43.518394 C38.42289,43.50202 38.383488,43.497593 38.3714,43.496376 C38.29499,43.488678 38.218002,43.487694 38.141586,43.48009 C38.102165,43.47617 38.068253,43.45733 38.033344,43.44031 C37.958176,43.40367 37.943703,43.371006 37.889603,43.441273 C37.860947,43.478497 37.833473,43.51665 37.807106,43.555527 C37.80205,43.56298 37.797897,43.57125 37.795547,43.579945 C37.772396,43.665478 37.77922,43.65659 37.78253,43.74818 L37.78253,43.74818" /><defs><path id="DRAW_1564"  d="M17.633509,49.964638 L17.633509,49.90769" /></defs><use xlink:href="#DRAW_1564" fill="none" stroke="#000000" stroke-width="0.04mm" /><text style="font-family:'SpeleoUIS'; font-size:0.2mm;"><textPath xlink:href="#DRAW_1564">!!!!!!!!!!!!!!!!!!!!!!!!!!!!!!!!!!!!!!!!!!!!!!!!!!!!!!!!!!!!!!!!!!!!!!!!!!!!!!!!!!!!!!!!!!!!!</textPath></text><defs><path id="DRAW_1566"  d="M35.116413,38.94436 L35.14611,38.954933" /></defs><use xlink:href="#DRAW_1566" fill="none" stroke="#000000" stroke-width="0.04mm" /><text style="font-family:'SpeleoUIS'; font-size:0.2mm;"><textPath xlink:href="#DRAW_1566">!!!!!!!!!!!!!!!!!!!!!!!!!!!!!!!!!!!!!!!!!!!!!!!!!!!!!!!!!!!!!!!!!!!!!!!!!!!!!!!!!!!!!!!!!!!!!</textPath></text><path fill="none" stroke="#000000" stroke-width="0.06mm" d="M32.121666,32.12828 C32.029793,32.189583 31.933643,32.244915 31.846046,32.312187 C31.681408,32.438633 31.529873,32.581505 31.365854,32.70875 C31.256886,32.793293 31.191895,32.840294 31.078968,32.88114 C31.038303,32.89585 30.962793,32.91074 30.917662,32.94151 C30.874855,32.970695 30.855686,33.01686 30.820951,33.054092 C30.765211,33.113842 30.704353,33.16864 30.647808,33.227627 C30.636465,33.23946 30.625916,33.25228 30.617493,33.26634 C30.596272,33.301758 30.584646,33.36148 30.575256,33.39622 L30.575256,33.39622" /><path fill="none" stroke="#000000" stroke-width="0.06mm" d="M30.65559,33.57495 C30.705046,33.631287 30.715954,33.697983 30.74239,33.765793 C30.755424,33.799232 30.772614,33.830956 30.785503,33.86445 C30.802727,33.9092 30.815193,33.955692 30.832657,34.00035 C30.844975,34.03185 30.865473,34.06015 30.874756,34.092674 C30.97391,34.440044 30.87416,34.23516 31.009228,34.579002 C31.048298,34.67847 31.134212,34.7415 31.201267,34.82139 C31.226852,34.85187 31.23841,34.888523 31.270706,34.912125 C31.363789,34.98014 31.478804,35.01921 31.59205,35.036682 C31.704597,35.054043 31.817852,35.066814 31.930126,35.085865 C31.947021,35.088734 31.963167,35.09537 31.978836,35.102314 C32.07567,35.145233 32.142303,35.244347 32.214237,35.315437 C32.224606,35.325684 32.23664,35.33447 32.24956,35.341217 C32.438484,35.43984 32.41649,35.41844 32.648853,35.433525 L32.648853,35.433525" /><path fill="none" stroke="#000000" stroke-width="0.06mm" d="M36.673805,33.732044 C36.67788,33.706505 36.678436,33.680153 36.686028,33.65543 C36.71496,33.561234 36.75362,33.47023 36.783096,33.376205 C36.789906,33.354492 36.798706,33.248505 36.800377,33.2355 C36.813454,33.13355 36.832092,33.032257 36.841743,32.929924 C36.84413,32.904625 36.83956,32.879086 36.836365,32.853874 C36.825466,32.767876 36.809326,32.682568 36.799477,32.596443 C36.797363,32.577953 36.799255,32.55919 36.800552,32.540627 C36.802208,32.516945 36.814583,32.4949 36.809166,32.470467 C36.76503,32.27143 36.721283,32.12835 36.617966,31.934578 C36.557014,31.820263 36.47444,31.71886 36.40268,31.611004 L36.40268,31.611004" /><path fill="none" stroke="#000000" stroke-width="0.06mm" d="M36.503098,31.361109 C36.529087,31.233929 36.553032,31.148706 36.550377,31.01482 C36.54589,30.78901 36.3228,30.317402 36.301163,30.257345 C36.297035,30.245892 36.296783,30.233393 36.294884,30.221367 C36.29098,30.19662 36.28887,30.171562 36.28376,30.147038 C36.273514,30.097836 36.259727,30.049435 36.248863,30.000366 C36.24478,29.981915 36.24366,29.962843 36.238945,29.944542 C36.234028,29.925478 36.22339,29.90799 36.22004,29.88859 C36.21264,29.84571 36.211258,29.80201 36.206867,29.758718 L36.206867,29.758718" /><path fill="none" stroke="#000000" stroke-width="0.06mm" d="M36.372555,29.623093 C36.35175,29.486248 36.345062,29.47165 36.34378,29.3232 C36.34363,29.306324 36.346413,29.289387 36.35055,29.273024 C36.37413,29.179745 36.39351,29.084904 36.42683,28.994646 C36.485386,28.836033 36.562195,28.684725 36.6256,28.527987 C36.660095,28.442707 36.68554,28.35393 36.72044,28.268812 C36.73437,28.23483 36.756775,28.204847 36.771828,28.171347 C36.806797,28.093525 36.834618,28.012587 36.870384,27.935127 C36.879456,27.91547 36.893528,27.898506 36.90599,27.880798 C36.947533,27.821756 36.99217,27.76488 37.03237,27.704914 C37.040718,27.692463 37.046272,27.678238 37.051266,27.664104 C37.08204,27.572792 37.112812,27.481476 37.143585,27.390163 C37.15258,27.353157 37.159256,27.31551 37.17057,27.279148 C37.197212,27.193531 37.344406,26.998135 37.346733,26.99378 C37.412224,26.871304 37.46456,26.742207 37.52069,26.61517 C37.5327,26.587997 37.530838,26.540113 37.536613,26.515902 C37.558372,26.424612 37.58518,26.334602 37.60946,26.243954 L37.60946,26.243954" /><path fill="none" stroke="#000000" stroke-width="0.06mm" stroke-dasharray="0.3,0.1" d="M37.51995,26.133043 C37.521477,26.068447 37.52628,26.068394 37.515244,26.017141 C37.509674,25.99129 37.5002,25.966211 37.496727,25.939997 C37.481842,25.827595 37.461258,25.631413 37.4972,25.519611 C37.549168,25.357983 37.76495,25.170746 37.8593,25.063766 C37.88561,25.033937 37.90677,24.999918 37.93153,24.968796 C37.94316,24.954178 37.95758,24.941826 37.968422,24.926615 C37.98645,24.901323 37.998913,24.87224 38.017887,24.847649 C38.102737,24.737673 38.217884,24.635992 38.26608,24.500708 C38.271145,24.48649 38.274338,24.471615 38.276855,24.456734 C38.341595,24.074362 38.257687,24.472525 38.26126,23.725815 C38.261795,23.614182 38.280876,23.50279 38.304817,23.393753 C38.37422,23.07769 38.380142,23.096043 38.478523,22.902302 C38.489563,22.88056 38.49698,22.856873 38.510036,22.83628 C38.54282,22.7846 38.57872,22.734896 38.61566,22.686098 C38.711952,22.558899 38.632767,22.714588 38.75147,22.49594 C38.769226,22.46323 38.778725,22.426586 38.794994,22.393114 C38.907394,22.161877 38.848534,22.362787 38.98056,21.972832 C38.995087,21.929914 38.997612,21.88383 39.00618,21.839338 C39.00804,21.829659 39.01098,21.820135 39.01186,21.810318 C39.012928,21.798437 39.012974,21.786425 39.012005,21.774536 C39.00436,21.68082 38.992325,21.587471 38.98603,21.493654 C38.983627,21.457903 38.9838,21.421928 38.985924,21.38616 C38.988213,21.347767 39.019974,21.273523 39.026978,21.249006 C39.0308,21.235619 39.03141,21.22151 39.033478,21.20774 C39.036003,21.19092 39.03508,21.17327 39.040752,21.157234 C39.164757,20.806725 39.06323,21.112732 39.16377,20.888462 C39.20472,20.797112 39.24082,20.703661 39.27935,20.611263 L39.27935,20.611263" /><path fill="none" stroke="#000000" stroke-width="0.06mm" stroke-dasharray="0.3,0.1" d="M36.194454,26.434433 C36.34292,26.344223 36.37384,26.33802 36.4874,26.231958 C36.524544,26.197268 36.59453,26.071133 36.601593,26.057747 C36.607094,26.047337 36.740845,25.82277 36.760574,25.714048 C36.76876,25.668934 36.756836,25.581224 36.757202,25.553068 C36.757286,25.546515 36.775307,25.431871 36.77572,25.428375 C36.784126,25.357206 36.780243,25.318571 36.821518,25.255543 C36.859245,25.197935 36.904232,25.145243 36.94103,25.087036 C36.993988,25.003254 36.975693,24.993174 37.0299,24.93636 C37.072575,24.891636 37.11274,24.849888 37.167458,24.821394 C37.22338,24.792276 37.220886,24.803705 37.269775,24.781124 C37.278522,24.777084 37.286835,24.772022 37.29459,24.766302 C37.342773,24.730743 37.394325,24.698921 37.437454,24.657381 C37.4789,24.617462 37.51201,24.569614 37.546577,24.52361 C37.55632,24.510637 37.56221,24.495174 37.570015,24.48095 C37.57534,24.471237 37.579132,24.460514 37.585964,24.451792 C37.6268,24.39966 37.67315,24.351913 37.712696,24.2988 C37.728565,24.27749 37.74175,24.253916 37.751663,24.229265 C37.838497,24.013395 37.830486,24.055853 37.849472,23.92854 C37.857204,23.876682 37.868534,23.82523 37.872578,23.772959 C37.87912,23.688423 37.865055,23.540007 37.88585,23.455818 C37.92304,23.305223 37.972656,23.157867 38.022583,23.011003 C38.0475,22.937698 38.154472,22.799236 38.1846,22.761965 C38.211643,22.728508 38.247055,22.70248 38.274437,22.669296 C38.36123,22.564104 38.439774,22.452274 38.526775,22.347256 C38.543213,22.327415 38.568615,22.316015 38.584137,22.295454 C38.630707,22.233784 38.70432,22.126413 38.73774,22.0411 C38.743237,22.027065 38.747223,22.012253 38.748856,21.997267 C38.758186,21.91149 38.761932,21.825178 38.770557,21.739325 C38.77239,21.721102 38.778572,21.703476 38.780205,21.685232 C38.783222,21.651375 38.780304,21.617083 38.784477,21.583345 C38.788155,21.553574 38.799736,21.52516 38.803658,21.49542 C38.80729,21.467852 38.819702,21.167841 38.864933,21.043505 C38.890594,20.972961 38.93546,20.955479 38.984573,20.902267 C39.0047,20.880455 39.02236,20.856491 39.041256,20.833601 L39.041256,20.833601" /><path fill="none" stroke="#000000" stroke-width="0.06mm" d="M32.1839,31.944157 C32.176056,31.889647 32.17234,31.83438 32.16036,31.780626 C32.141655,31.69672 32.096355,31.630318 32.064636,31.551025 C32.057743,31.53379 32.05491,31.515152 32.05162,31.496883 C32.039417,31.429039 32.032112,31.360317 32.018192,31.292805 C32.002243,31.229439 31.98629,31.166075 31.97034,31.10271 C31.959846,31.076813 31.945492,31.052158 31.938854,31.025013 C31.922241,30.957088 31.91629,30.886904 31.90088,30.818695 C31.889732,30.769356 31.86953,30.722294 31.859274,30.67276 C31.835323,30.557083 31.845133,30.475063 31.879583,30.362741 C31.894943,30.31266 31.926853,30.255884 31.968174,30.222202 C32.037632,30.165585 32.10753,30.109423 32.179474,30.056002 C32.19252,30.046318 32.20817,30.040754 32.222603,30.03329 C32.271435,30.008026 32.32224,29.986303 32.36927,29.95782 C32.40084,29.938698 32.42917,29.914572 32.457565,29.890987 C32.54634,29.817255 32.91511,29.49177 32.95271,29.456707 C32.98552,29.42611 33.004612,29.372032 33.044323,29.347496 C33.103783,29.31076 33.165688,29.278137 33.226803,29.244225 C33.26976,29.22039 33.274414,29.225735 33.310844,29.190014 C33.344723,29.156792 33.377518,29.12239 33.40858,29.086525 C33.46634,29.019848 33.51989,28.94962 33.577175,28.882542 C33.58261,28.876175 33.589535,28.871143 33.596497,28.866493 C33.660954,28.823418 33.75472,28.846077 33.824158,28.812931 C33.863476,28.794163 33.892838,28.758816 33.917004,28.72374 C33.93823,28.69294 33.933125,28.688026 33.95877,28.665592 C33.968365,28.657198 33.979023,28.650078 33.989586,28.642944 C34.060078,28.595345 34.13006,28.546928 34.20191,28.50141 C34.21164,28.495247 34.22262,28.490818 34.233837,28.488205 C34.310898,28.470268 34.451572,28.464565 34.52583,28.402773 C34.575344,28.361568 34.596096,28.297676 34.6333,28.247196 C34.668743,28.1991 34.70533,28.151394 34.747375,28.10895 C35.0178,27.835966 34.719883,28.171663 34.97889,27.937313 C35.19795,27.73911 35.038612,27.858418 35.158554,27.727936 C35.184017,27.700233 35.21286,27.675835 35.24001,27.649784 C35.265522,27.617231 35.28889,27.582882 35.316544,27.552124 C35.33384,27.532887 35.402004,27.45885 35.44472,27.439074 C35.476532,27.424347 35.625504,27.386631 35.67454,27.3261 C35.709972,27.282368 35.71067,27.228914 35.72906,27.177212 C35.737446,27.15364 35.749245,27.13134 35.761486,27.109518 C35.78483,27.06791 35.79522,27.071468 35.825092,27.03004 C35.981644,26.812933 35.69982,27.157728 35.99972,26.805458 L35.99972,26.805458" /><path fill="none" stroke="#000000" stroke-width="0.06mm" d="M32.886818,35.842136 L32.881794,35.791904" /><path fill="none" stroke="#000000" stroke-width="0.06mm" d="M36.91873,37.892513 C36.82364,37.862495 36.63944,37.88183 36.53263,37.811752 C36.504356,37.793198 36.48445,37.75554 36.474762,37.72498 C36.426594,37.573067 36.38728,37.41838 36.336845,37.267204 C36.240223,36.97756 36.19557,36.977093 36.154594,36.67271 C36.13748,36.5456 36.149292,36.37135 36.185455,36.245514 C36.21502,36.142635 36.257614,36.043957 36.293697,35.94318 L36.293697,35.94318" /><path fill="none" stroke="#000000" stroke-width="0.06mm" d="M34.175457,36.57251 C34.24262,36.64587 34.41793,36.588203 34.495518,36.67291 C34.50341,36.68153 34.51239,36.68995 34.516815,36.70077 C34.58762,36.882034 34.658424,37.063297 34.729225,37.24456 C34.73938,37.27535 34.747665,37.30682 34.75969,37.336926 C35.00709,37.956383 34.64854,37.00687 34.89507,37.69637 C34.8999,37.709877 34.908478,37.72173 34.915184,37.73441 C34.94751,37.80191 34.988388,37.865944 35.012157,37.93691 C35.055023,38.064888 35.096043,38.194992 35.11425,38.328728 C35.14397,38.547047 35.15239,38.67871 35.115234,38.858917 C35.109367,38.887383 35.100113,38.915165 35.095722,38.943897 C35.049286,39.24771 35.086998,39.088337 35.064445,39.182236 L35.064445,39.182236" /><defs><path id="DRAW_1604"  d="M32.8822,35.2133 C32.942375,35.336563 32.937122,35.34532 33.024757,35.449486 C33.05805,35.489056 33.096516,35.523994 33.131004,35.562523 C33.150257,35.584038 33.165997,35.608604 33.1859,35.62952 C33.21412,35.659172 33.260986,35.688698 33.29708,35.704056 C33.332138,35.718967 33.368904,35.729538 33.405296,35.74081 C33.440697,35.751778 33.448074,35.74637 33.472862,35.762024 C33.51343,35.78765 33.527676,35.837723 33.56619,35.866333 C33.62511,35.910103 33.68768,35.9489 33.745846,35.99367 C33.781616,36.02121 33.81505,36.061382 33.82978,36.104893 C33.843887,36.14655 33.83895,36.178013 33.884632,36.198235 C33.891716,36.20137 33.899113,36.203987 33.906715,36.20548 C33.953613,36.214684 34.000393,36.225357 34.04793,36.230278 C34.21438,36.247517 34.381454,36.258038 34.548214,36.271915 L34.548214,36.271915" /></defs><use xlink:href="#DRAW_1604" fill="none" stroke="#000000" stroke-width="0.04mm" /><text style="font-family:'SpeleoUIS'; font-size:0.2mm;"><textPath xlink:href="#DRAW_1604">!!!!!!!!!!!!!!!!!!!!!!!!!!!!!!!!!!!!!!!!!!!!!!!!!!!!!!!!!!!!!!!!!!!!!!!!!!!!!!!!!!!!!!!!!!!!!</textPath></text><defs><path id="DRAW_1605"  d="M34.645733,36.193497 C34.672955,36.210335 34.698227,36.23083 34.727394,36.244015 C34.87743,36.31183 34.996586,36.329212 35.16381,36.30947 C35.26013,36.2981 35.35402,36.271362 35.44912,36.25231 L35.44912,36.25231" /></defs><use xlink:href="#DRAW_1605" fill="none" stroke="#000000" stroke-width="0.04mm" /><text style="font-family:'SpeleoUIS'; font-size:0.2mm;"><textPath xlink:href="#DRAW_1605">!!!!!!!!!!!!!!!!!!!!!!!!!!!!!!!!!!!!!!!!!!!!!!!!!!!!!!!!!!!!!!!!!!!!!!!!!!!!!!!!!!!!!!!!!!!!!</textPath></text><defs><path id="DRAW_1606"  d="M35.429527,36.245773 C35.539745,36.197296 35.59558,36.17845 35.703255,36.08571 C35.78632,36.01416 35.85267,35.925037 35.932335,35.849724 C35.9644,35.81941 36.004116,35.798187 36.03769,35.769547 C36.073395,35.73909 36.099747,35.684406 36.12545,35.650024 C36.1508,35.616123 36.190197,35.597557 36.210556,35.55934 C36.233864,35.51559 36.252274,35.469357 36.275383,35.425503 C36.328007,35.325634 36.396595,35.23342 36.43769,35.128284 C36.49266,34.98768 36.65582,34.305992 36.683594,34.19389 L36.683594,34.19389" /></defs><use xlink:href="#DRAW_1606" fill="none" stroke="#000000" stroke-width="0.04mm" /><text style="font-family:'SpeleoUIS'; font-size:0.2mm;"><textPath xlink:href="#DRAW_1606">!!!!!!!!!!!!!!!!!!!!!!!!!!!!!!!!!!!!!!!!!!!!!!!!!!!!!!!!!!!!!!!!!!!!!!!!!!!!!!!!!!!!!!!!!!!!!</textPath></text><defs><path id="DRAW_1607"  d="M36.65747,34.12854 L36.721478,33.986088" /></defs><use xlink:href="#DRAW_1607" fill="none" stroke="#000000" stroke-width="0.04mm" /><text style="font-family:'SpeleoUIS'; font-size:0.2mm;"><textPath xlink:href="#DRAW_1607">!!!!!!!!!!!!!!!!!!!!!!!!!!!!!!!!!!!!!!!!!!!!!!!!!!!!!!!!!!!!!!!!!!!!!!!!!!!!!!!!!!!!!!!!!!!!!</textPath></text><defs><path id="DRAW_1608"  d="M36.89261,33.644978 L36.9122,33.54042" /></defs><use xlink:href="#DRAW_1608" fill="none" stroke="#000000" stroke-width="0.04mm" /><text style="font-family:'SpeleoUIS'; font-size:0.2mm;"><textPath xlink:href="#DRAW_1608">!!!!!!!!!!!!!!!!!!!!!!!!!!!!!!!!!!!!!!!!!!!!!!!!!!!!!!!!!!!!!!!!!!!!!!!!!!!!!!!!!!!!!!!!!!!!!</textPath></text><defs><path id="DRAW_1609"  d="M36.566025,34.010918 L36.566025,33.94686" /></defs><use xlink:href="#DRAW_1609" fill="none" stroke="#000000" stroke-width="0.04mm" /><text style="font-family:'SpeleoUIS'; font-size:0.2mm;"><textPath xlink:href="#DRAW_1609">!!!!!!!!!!!!!!!!!!!!!!!!!!!!!!!!!!!!!!!!!!!!!!!!!!!!!!!!!!!!!!!!!!!!!!!!!!!!!!!!!!!!!!!!!!!!!</textPath></text><path fill="none" stroke="#000000" stroke-width="0.06mm" d="M37.907448,25.863647 C38.17607,25.877373 38.59272,25.98843 38.858612,25.800634 C38.919464,25.757656 38.996567,25.65937 39.031017,25.614807 C39.08739,25.541883 39.079773,25.398252 39.07991,25.327332 C39.07997,25.296576 39.075935,25.265678 39.069016,25.23571 C39.016403,25.007858 38.996094,24.901114 38.884277,24.707972 C38.843605,24.63771 38.739517,24.556053 38.685936,24.50824 L38.685936,24.50824" /><text x="19.540855" y="42.718727" font-family="sans-serif" font-size=".2mm" fill="black">punkt nr 100</text>
</g>
<g>
<line fill="none" stroke="#111111" stroke-width="0.05mm" x1="20.00" y1="43.00" x2="25.92" y2="43.31" />
<line fill="none" stroke="#111111" stroke-width="0.05mm" x1="25.92" y1="43.31" x2="26.69" y2="45.11" />
<line fill="none" stroke="#00aeef" stroke-width="0.05mm" stroke-dasharray="0.4,0.2" opacity="0.98" x1="26.69" y1="45.11" x2="26.71" y2="45.99" />
<line fill="none" stroke="#5674b9" stroke-width="0.05mm" stroke-dasharray="0.4,0.2" opacity="0.94" x1="26.69" y1="45.11" x2="25.85" y2="45.06" />
<line fill="none" stroke="#00aeef" stroke-width="0.05mm" stroke-dasharray="0.4,0.2" opacity="0.11" x1="26.69" y1="45.11" x2="26.83" y2="44.41" />
<line fill="none" stroke="#5674b9" stroke-width="0.05mm" stroke-dasharray="0.4,0.2" opacity="0.23" x1="26.69" y1="45.11" x2="27.25" y2="45.80" />
<line fill="none" stroke="#111111" stroke-width="0.05mm" x1="26.69" y1="45.11" x2="30.20" y2="45.66" />
<line fill="none" stroke="#00aeef" stroke-width="0.05mm" stroke-dasharray="0.4,0.2" opacity="0.14" x1="30.20" y1="45.66" x2="30.11" y2="45.50" />
<line fill="none" stroke="#00aeef" stroke-width="0.05mm" stroke-dasharray="0.4,0.2" opacity="0.90" x1="30.20" y1="45.66" x2="31.48" y2="44.52" />
<line fill="none" stroke="#00aeef" stroke-width="0.05mm" stroke-dasharray="0.4,0.2" opacity="0.90" x1="30.20" y1="45.66" x2="28.86" y2="43.78" />
<line fill="none" stroke="#00aeef" stroke-width="0.05mm" stroke-dasharray="0.4,0.2" opacity="0.95" x1="30.20" y1="45.66" x2="29.14" y2="41.97" />
<line fill="none" stroke="#5674b9" stroke-width="0.05mm" stroke-dasharray="0.4,0.2" opacity="0.96" x1="30.20" y1="45.66" x2="31.54" y2="40.82" />
<line fill="none" stroke="#5674b9" stroke-width="0.05mm" stroke-dasharray="0.4,0.2" opacity="0.87" x1="30.20" y1="45.66" x2="34.68" y2="41.78" />
<line fill="none" stroke="#5674b9" stroke-width="0.05mm" stroke-dasharray="0.4,0.2" opacity="0.92" x1="30.20" y1="45.66" x2="33.24" y2="43.03" />
<line fill="none" stroke="#5674b9" stroke-width="0.05mm" stroke-dasharray="0.4,0.2" opacity="0.99" x1="30.20" y1="45.66" x2="35.63" y2="43.64" />
<line fill="none" stroke="#111111" stroke-width="0.05mm" x1="30.20" y1="45.66" x2="33.46" y2="43.44" />
<line fill="none" stroke="#5674b9" stroke-width="0.05mm" stroke-dasharray="0.4,0.2" opacity="0.98" x1="33.46" y1="43.44" x2="37.75" y2="45.86" />
<line fill="none" stroke="#5674b9" stroke-width="0.05mm" stroke-dasharray="0.4,0.2" opacity="0.96" x1="33.46" y1="43.44" x2="35.17" y2="46.89" />
<line fill="none" stroke="#5674b9" stroke-width="0.05mm" stroke-dasharray="0.4,0.2" opacity="0.99" x1="33.46" y1="43.44" x2="32.50" y2="46.12" />
<line fill="none" stroke="#00aeef" stroke-width="0.05mm" stroke-dasharray="0.4,0.2" opacity="0.91" x1="33.46" y1="43.44" x2="31.30" y2="44.91" />
<line fill="none" stroke="#00aeef" stroke-width="0.05mm" stroke-dasharray="0.4,0.2" opacity="0.27" x1="33.46" y1="43.44" x2="36.83" y2="46.49" />
<line fill="none" stroke="#5674b9" stroke-width="0.05mm" stroke-dasharray="0.4,0.2" opacity="0.08" x1="33.46" y1="43.44" x2="31.93" y2="44.33" />
<line fill="none" stroke="#00aeef" stroke-width="0.05mm" stroke-dasharray="0.4,0.2" opacity="0.29" x1="33.46" y1="43.44" x2="37.45" y2="47.66" />
<line fill="none" stroke="#00aeef" stroke-width="0.05mm" stroke-dasharray="0.4,0.2" opacity="0.27" x1="33.46" y1="43.44" x2="36.92" y2="46.69" />
<line fill="none" stroke="#5674b9" stroke-width="0.05mm" stroke-dasharray="0.4,0.2" opacity="0.53" x1="33.46" y1="43.44" x2="31.70" y2="42.89" />
<line fill="none" stroke="#111111" stroke-width="0.05mm" x1="33.46" y1="43.44" x2="33.37" y2="44.74" />
<line fill="none" stroke="#00aeef" stroke-width="0.05mm" stroke-dasharray="0.4,0.2" opacity="0.84" x1="33.37" y1="44.74" x2="35.61" y2="45.58" />
<line fill="none" stroke="#00aeef" stroke-width="0.05mm" stroke-dasharray="0.4,0.2" opacity="0.97" x1="33.37" y1="44.74" x2="32.81" y2="46.22" />
<line fill="none" stroke="#00aeef" stroke-width="0.05mm" stroke-dasharray="0.4,0.2" opacity="0.96" x1="33.37" y1="44.74" x2="27.96" y2="46.11" />
<line fill="none" stroke="#00aeef" stroke-width="0.05mm" stroke-dasharray="0.4,0.2" opacity="0.88" x1="33.37" y1="44.74" x2="31.08" y2="43.19" />
<line fill="none" stroke="#00aeef" stroke-width="0.05mm" stroke-dasharray="0.4,0.2" opacity="0.86" x1="33.37" y1="44.74" x2="33.77" y2="41.70" />
<line fill="none" stroke="#00aeef" stroke-width="0.05mm" stroke-dasharray="0.4,0.2" opacity="0.67" x1="33.37" y1="44.74" x2="34.91" y2="41.70" />
<line fill="none" stroke="#00aeef" stroke-width="0.05mm" stroke-dasharray="0.4,0.2" opacity="0.74" x1="33.37" y1="44.74" x2="38.08" y2="37.99" />
<line fill="none" stroke="#00aeef" stroke-width="0.05mm" stroke-dasharray="0.4,0.2" opacity="0.68" x1="33.37" y1="44.74" x2="40.71" y2="41.69" />
<line fill="none" stroke="#00aeef" stroke-width="0.05mm" stroke-dasharray="0.4,0.2" opacity="0.64" x1="33.37" y1="44.74" x2="37.96" y2="43.03" />
<line fill="none" stroke="#111111" stroke-width="0.05mm" x1="33.37" y1="44.74" x2="36.89" y2="42.53" />
<line fill="none" stroke="#111111" stroke-width="0.05mm" x1="36.89" y1="42.53" x2="35.72" y2="38.59" />
<line fill="none" stroke="#5674b9" stroke-width="0.05mm" stroke-dasharray="0.4,0.2" opacity="0.75" x1="35.72" y1="38.59" x2="35.99" y2="37.14" />
<line fill="none" stroke="#111111" stroke-width="0.05mm" x1="35.72" y1="38.59" x2="33.86" y2="32.62" />
<line fill="none" stroke="#00aeef" stroke-width="0.05mm" stroke-dasharray="0.4,0.2" opacity="0.87" x1="33.86" y1="32.62" x2="32.16" y2="32.17" />
<line fill="none" stroke="#00aeef" stroke-width="0.05mm" stroke-dasharray="0.4,0.2" opacity="0.83" x1="33.86" y1="32.62" x2="30.58" y2="33.58" />
<line fill="none" stroke="#00aeef" stroke-width="0.05mm" stroke-dasharray="0.4,0.2" opacity="0.98" x1="33.86" y1="32.62" x2="32.67" y2="35.36" />
<line fill="none" stroke="#00aeef" stroke-width="0.05mm" stroke-dasharray="0.4,0.2" opacity="0.99" x1="33.86" y1="32.62" x2="35.44" y2="36.42" />
<line fill="none" stroke="#00aeef" stroke-width="0.05mm" stroke-dasharray="0.4,0.2" opacity="0.99" x1="33.86" y1="32.62" x2="36.65" y2="33.91" />
<line fill="none" stroke="#5674b9" stroke-width="0.05mm" stroke-dasharray="0.4,0.2" opacity="1.00" x1="33.86" y1="32.62" x2="36.46" y2="31.73" />
<line fill="none" stroke="#5674b9" stroke-width="0.05mm" stroke-dasharray="0.4,0.2" opacity="0.85" x1="33.86" y1="32.62" x2="36.19" y2="29.68" />
<line fill="none" stroke="#5674b9" stroke-width="0.05mm" stroke-dasharray="0.4,0.2" opacity="0.81" x1="33.86" y1="32.62" x2="37.58" y2="26.23" />
<line fill="none" stroke="#5674b9" stroke-width="0.05mm" stroke-dasharray="0.4,0.2" opacity="0.81" x1="33.86" y1="32.62" x2="35.98" y2="26.92" />
<line fill="none" stroke="#5674b9" stroke-width="0.05mm" stroke-dasharray="0.4,0.2" opacity="0.73" x1="33.86" y1="32.62" x2="39.16" y2="19.84" />
<line fill="none" stroke="#5674b9" stroke-width="0.05mm" stroke-dasharray="0.4,0.2" opacity="0.88" x1="33.86" y1="32.62" x2="33.69" y2="28.89" />
<line fill="none" stroke="#5674b9" stroke-width="0.05mm" stroke-dasharray="0.4,0.2" opacity="0.96" x1="33.86" y1="32.62" x2="31.92" y2="30.49" />
<line fill="none" stroke="#00aeef" stroke-width="0.05mm" stroke-dasharray="0.4,0.2" opacity="0.10" x1="33.86" y1="32.62" x2="35.09" y2="34.17" />
<line fill="none" stroke="#00aeef" stroke-width="0.05mm" stroke-dasharray="0.4,0.2" opacity="0.17" x1="33.86" y1="32.62" x2="35.62" y2="30.52" />
<line fill="none" stroke="#00aeef" stroke-width="0.05mm" stroke-dasharray="0.4,0.2" opacity="0.04" x1="33.86" y1="32.62" x2="32.63" y2="30.50" />
<line fill="none" stroke="#5674b9" stroke-width="0.05mm" stroke-dasharray="0.4,0.2" opacity="0.05" x1="33.86" y1="32.62" x2="33.98" y2="32.35" />
<line fill="none" stroke="#5674b9" stroke-width="0.05mm" stroke-dasharray="0.4,0.2" opacity="0.31" x1="33.86" y1="32.62" x2="34.82" y2="30.88" />
<line fill="none" stroke="#5674b9" stroke-width="0.05mm" stroke-dasharray="0.4,0.2" opacity="0.44" x1="33.86" y1="32.62" x2="37.16" y2="27.47" />
<line fill="none" stroke="#5674b9" stroke-width="0.05mm" stroke-dasharray="0.4,0.2" opacity="0.85" x1="33.86" y1="32.62" x2="36.38" y2="26.59" />
<line fill="none" stroke="#5674b9" stroke-width="0.05mm" stroke-dasharray="0.4,0.2" opacity="0.84" x1="33.86" y1="32.62" x2="36.69" y2="26.61" />
<line fill="none" stroke="#111111" stroke-width="0.05mm" x1="33.86" y1="32.62" x2="37.93" y2="26.12" />
</g>
<g>
<circle cx="20.00" cy="43.00" r="0.1" fill="#111111" />
<circle cx="25.92" cy="43.31" r="0.1" fill="#111111" />
<circle cx="26.69" cy="45.11" r="0.1" fill="#111111" />
<circle cx="30.20" cy="45.66" r="0.1" fill="#111111" />
<circle cx="33.46" cy="43.44" r="0.1" fill="#111111" />
<circle cx="33.37" cy="44.74" r="0.1" fill="#111111" />
<circle cx="36.89" cy="42.53" r="0.1" fill="#111111" />
<circle cx="35.72" cy="38.59" r="0.1" fill="#111111" />
<circle cx="33.86" cy="32.62" r="0.1" fill="#111111" />
<circle cx="37.93" cy="26.12" r="0.1" fill="#111111" />
</g>
<g>
<text x="20.20" y="43.00" font-size=".2mm" fill="#000000">0</text>
<text x="26.12" y="43.31" font-size=".2mm" fill="#000000">1</text>
<text x="26.89" y="45.11" font-size=".2mm" fill="#000000">2</text>
<text x="30.40" y="45.66" font-size=".2mm" fill="#000000">3</text>
<text x="33.66" y="43.44" font-size=".2mm" fill="#000000">4</text>
<text x="33.57" y="44.74" font-size=".2mm" fill="#000000">5</text>
<text x="37.09" y="42.53" font-size=".2mm" fill="#000000">6</text>
<text x="35.92" y="38.59" font-size=".2mm" fill="#000000">7</text>
<text x="34.06" y="32.62" font-size=".2mm" fill="#000000">8</text>
<text x="38.13" y="26.12" font-size=".2mm" fill="#000000">9</text>
</g>
<g>
</g>
</g>
</svg>