<?xml version="1.0" encoding="utf-8"?>
<!DOCTYPE svg PUBLIC "-//W3C//DTD SVG 1.1//EN" "http://www.w3.org/Graphics/SVG/1.1/DTD/svg11.dtd">
<svg version="1.1" id="Layer_1" xmlns="http://www.w3.org/2000/svg" xmlns:xlink="http://www.w3.org/1999/xlink" x="0px" y="0px" width="81mm" height="85mm" viewBox="0 0 81 85" enable-background="new 0 0 81 85" xml:space="preserve">
<symbol id="airflow" viewBox="-12 -12 24 24">
<path d="M-4.38,10.73l4.2-3.84V3.55L-4.07,7.13l-.31-.29L-.18,3V-6.89a3.37,3.37,0,0,0-1.68.53l1.68-4.15L0-11l.21.51h0v0l1.65,4.1A3.26,3.26,0,0,0,.24-6.89v14l-.08,0L-4.07,11Z"/>
<rect fill="none" x="-12" y="-12" width="24" height="24"/>
</symbol>
<symbol id="anastomosis" viewBox="-12 -12 24 24">
<path d="M2.23-4.78l.37.24L5.22-2.78l-.47.57L2.49-3.7l-4.61,8-.24.44-.37-.34L-5.22,2.3l.55-.52,2.1,1.82L2-4.39Z"/>
<rect fill="none" x="-12" y="-12" width="24" height="24"/>
</symbol>
<symbol id="bivouac" viewBox="-12 -12 24 24">
<path d="M.25-7.66l.24.58L.54-7l3.88.48-3.31.91L6,6H8.35v.48l-16.7.07V6.05h2.64L0-7.08Zm0,1.32L-5.13,6H-4l2.07-5L.2-4l2.09,5L4.37,6H5.44Z"/>
<rect fill="none" x="-12" y="-12" width="24" height="24"/>
</symbol>
<symbol id="bones" viewBox="-12 -12 24 24">
<path d="M2.44,4.27l-.16,0H2.13a.22.22,0,0,1-.11,0l-.1-.06a.39.39,0,0,1-.09-.11l-.08-.13a1.51,1.51,0,0,1-.06-.15l-.07-.17s0-.11-.08-.19-.06-.16-.08-.21a4.75,4.75,0,0,0-.38-.71c-.18-.29-.43-.64-.74-1A11.15,11.15,0,0,0-.7.32,6.73,6.73,0,0,0-2-.64a4.12,4.12,0,0,0-1.44-.52A1.64,1.64,0,0,1-5-2.19.72.72,0,0,1-5-2.44a1,1,0,0,1,0-.29A.52.52,0,0,1-4.87-3a.54.54,0,0,1,.35-.15L-4-3.22l.46,0a.54.54,0,0,0,.27-.06A.52.52,0,0,0-3-3.56a.74.74,0,0,0,.13-.31.54.54,0,0,1,.15-.26.54.54,0,0,1,.3-.15.83.83,0,0,1,.47,0,1.11,1.11,0,0,1,.35.4A7.46,7.46,0,0,1-1-2.76q.18.42.33.72a3.22,3.22,0,0,0,.39.57L.1-1a4.77,4.77,0,0,0,.58.43c.28.18.51.33.69.43l1,.56a1.84,1.84,0,0,0,.39.23A5.29,5.29,0,0,1,3.22.9l.43.26a3.7,3.7,0,0,1,.46.3l.36.29a2.28,2.28,0,0,1,.31.32A1,1,0,0,1,5,2.4c.2.48,0,.78-.47.91h0a8.48,8.48,0,0,0-1.12.09,1,1,0,0,0-.42.44A1,1,0,0,1,2.44,4.27Z"/>
<rect fill="none" x="-12" y="-12" width="24" height="24"/>
</symbol>
<symbol id="calcite" viewBox="-12 -12 24 24">
<path d="M2.36-2.22l.05.46.34,3.91L2,2.22,1.65-1.26-2.52-.06l-.23-.7L1.89-2.08Z"/>
<rect fill="none" x="-12" y="-12" width="24" height="24"/>
</symbol>
<symbol id="cauliflower" viewBox="-12 -12 24 24">
<path d="M5.58,3.22v-3A2.12,2.12,0,0,0,6.92-.43a1.78,1.78,0,0,0,.55-1.32,1.92,1.92,0,0,0-.65-1.42,2.19,2.19,0,0,0-1.53-.59,2.21,2.21,0,0,0-1.54.59,1.78,1.78,0,0,0-.64,1.42A1.86,1.86,0,0,0,3.65-.43,2.12,2.12,0,0,0,5,.23v3H.26v-3A2.17,2.17,0,0,0,1.61-.43a1.81,1.81,0,0,0,.54-1.32,1.91,1.91,0,0,0-.64-1.42A2.21,2.21,0,0,0,0-3.76a2.21,2.21,0,0,0-1.54.59,1.82,1.82,0,0,0-.64,1.42A1.83,1.83,0,0,0-1.66-.43,2.12,2.12,0,0,0-.32.23v3H-5v-3A2.12,2.12,0,0,0-3.71-.43a1.78,1.78,0,0,0,.55-1.32,1.92,1.92,0,0,0-.65-1.42,2.19,2.19,0,0,0-1.53-.59,2.21,2.21,0,0,0-1.54.59,1.83,1.83,0,0,0-.65,1.42A1.87,1.87,0,0,0-7-.43,2.12,2.12,0,0,0-5.64.23v3H-8v.54H8V3.22Z"/>
<rect fill="none" x="-12" y="-12" width="24" height="24"/>
</symbol>
<symbol id="clay" viewBox="-12 -12 24 24">
<path d="M1.85-1.33a3,3,0,0,1,1.67.48,3.23,3.23,0,0,1,1,1l.29.51-1,.43a3.81,3.81,0,0,0-.23-.4A3.74,3.74,0,0,0,2.93,0,1.77,1.77,0,0,0,1.85-.32a2.57,2.57,0,0,0-1.1.15A.86.86,0,0,0,.51.14,2.23,2.23,0,0,1,0,.88a2.55,2.55,0,0,1-1.45.43,3.16,3.16,0,0,1-2.75-1,4.28,4.28,0,0,1-.37-.57,3.91,3.91,0,0,1-.21-.47l0-.16,1-.22a1.87,1.87,0,0,0,.45.79A2.12,2.12,0,0,0-1.51.33,1.82,1.82,0,0,0-.69.14l.21-.36A1.53,1.53,0,0,1,.17-1,3.76,3.76,0,0,1,1.85-1.33Z"/>
<rect fill="none" x="-12" y="-12" width="24" height="24"/>
</symbol>
<symbol id="crystals" viewBox="-12 -12 24 24">
<path d="M-2.94-5.38,0-.72,2.94-5.38,3.62-5,.68-.36H6.56V.36H.68L3.62,5l-.68.36L0,.72-2.94,5.38-3.62,5-.68.36H-6.56V-.36H-.68L-3.62-5Z"/>
<rect fill="none" x="-12" y="-12" width="24" height="24"/>
</symbol>
<symbol id="curtain" viewBox="-12 -12 24 24">
<path d="M3.57-6.69l.52.53L.39-3V-.33L.1-.26a3.79,3.79,0,0,0-1,.41c-.58.3-.87.65-.87,1v.07A1.61,1.61,0,0,0-.84,2.48a3.69,3.69,0,0,0,.45.24L0,2.86l.13.05L.39,3V6.12H-.39V3.51a7.65,7.65,0,0,1-.9-.46A2.19,2.19,0,0,1-2.54,1.28V1.23A2,2,0,0,1-1.31-.48,5.32,5.32,0,0,1-.39-.86V-3l-3.7-3.14.52-.53L0-3.67Z"/>
<rect fill="none" x="-12" y="-12" width="24" height="24"/>
</symbol>
<symbol id="disk" viewBox="-12 -12 24 24">
<path d="M-.09-4.19a2.43,2.43,0,0,1,1.7.64A2,2,0,0,1,2.35-2,2.09,2.09,0,0,1,1.81-.55,2.44,2.44,0,0,1,.35.23l2.18,3.6-.68.33L0,1.14-1.48,4.19l-.71-.29L-.41.25A2.53,2.53,0,0,1-1.9-.47a2,2,0,0,1-.63-1.41,2,2,0,0,1,.67-1.61,2.46,2.46,0,0,1,1.72-.7ZM1.05-3.06.56-3.49l-.69,0A1.72,1.72,0,0,0-1.29-3a1.51,1.51,0,0,0-.45,1.08,1.36,1.36,0,0,0,.51,1A1.68,1.68,0,0,0-.07-.44v0l0,0A1.7,1.7,0,0,0,1.11-.92,1.36,1.36,0,0,0,1.56-2,1.47,1.47,0,0,0,1.05-3.06Z"/>
<rect fill="none" x="-12" y="-12" width="24" height="24"/>
</symbol>
<symbol id="entrance" viewBox="-12 -12 24 24">
<path d="M4.46,9H-4.46L0-9Z"/>
<rect fill="none" x="-12" y="-12" width="24" height="24"/>
</symbol>
<symbol id="flowstone" viewBox="-12 -12 24 24">
<rect x="-6" y="-0.21" width="12" height="0.42"/>
<rect fill="none" x="-12" y="-12" width="24" height="24"/>
</symbol>
<symbol id="flutes" viewBox="-12 -12 24 24">
<path d="M-7-1H7v.72H3.87A4.7,4.7,0,0,1,2.16,1.5,4.2,4.2,0,0,1,0,2.13,3.94,3.94,0,0,1-2.19,1.5,4.18,4.18,0,0,1-3.76-.27H-7Zm4.17.72A3.15,3.15,0,0,0-1.65,1,3.21,3.21,0,0,0,0,1.41,3.49,3.49,0,0,0,1.6,1,3.68,3.68,0,0,0,3-.27Z"/>
<rect fill="none" x="-12" y="-12" width="24" height="24"/>
</symbol>
<symbol id="gradient" viewBox="-12 -12 24 24">
<path d="M2.58-3.83,0-10-2.58-3.83A4.74,4.74,0,0,1-.17-4.5V10H.25V-4.5A6.65,6.65,0,0,1,2.58-3.83Z"/>
<rect fill="none" x="-12" y="-12" width="24" height="24"/>
</symbol>
<symbol id="guano" viewBox="-12 -12 24 24">
<path d="M-3.24-3a2.15,2.15,0,0,1,1.57.55A3.93,3.93,0,0,1-.59.24a4.32,4.32,0,0,1,2.75-2.3,2.68,2.68,0,0,1,2.23.36A2.36,2.36,0,0,1,5.5.19l-.79,0a1.72,1.72,0,0,0-.79-1.37,1.94,1.94,0,0,0-1.55-.24A3.53,3.53,0,0,0,.48,0,6.63,6.63,0,0,0-.69,3l-.79-.09a10.72,10.72,0,0,0,0-3.16A3.21,3.21,0,0,0-2.22-2,1.44,1.44,0,0,0-3.37-2.3,3.45,3.45,0,0,0-5-1.54l-.5-.55a4.29,4.29,0,0,1,2-.91A.9.9,0,0,1-3.24-3Z"/>
<rect fill="none" x="-12" y="-12" width="24" height="24"/>
</symbol>
<symbol id="helictites" viewBox="-12 -12 24 24">
<path d="M-4.59-7.92h.79v7.7l3.41,0V-7.92H.39V-.17L4.2-.12h.39v8H3.8V.6L.39.55V7.92H-.39V.55L-4.2.5l-.39,0v-8.4Z"/>
<rect fill="none" x="-12" y="-12" width="24" height="24"/>
</symbol>
<symbol id="human" viewBox="-12 -12 24 24">
<path d="M-3.59-3.29A5.13,5.13,0,0,1,0-4.66,5.13,5.13,0,0,1,3.59-3.29,4.3,4.3,0,0,1,5.09,0a4.3,4.3,0,0,1-1.5,3.29A5.13,5.13,0,0,1,0,4.66,5.13,5.13,0,0,1-3.59,3.29,4.3,4.3,0,0,1-5.09,0,4.3,4.3,0,0,1-3.59-3.29Zm.28.77A3.68,3.68,0,0,0-4.3,0a3.62,3.62,0,0,0,1,2.57L-.5.05ZM0-3.94A4.42,4.42,0,0,0-2.75-3L.16-.36H4.28A3.62,3.62,0,0,0,2.91-2.9,4.38,4.38,0,0,0,0-3.94ZM.16.46-2.7,3.07A4.42,4.42,0,0,0,0,3.94a4.37,4.37,0,0,0,2.87-1A3.78,3.78,0,0,0,4.28.46Z"/>
<rect fill="none" x="-12" y="-12" width="24" height="24"/>
</symbol>
<symbol id="karren" viewBox="-12 -12 24 24">
<path d="M1-5.84h0a1.37,1.37,0,0,1,1.06.68A3.33,3.33,0,0,1,2.5-3.79,25.79,25.79,0,0,1,2.36,0a18.61,18.61,0,0,0-.08,3.72,2.68,2.68,0,0,0,.41,1.2,1.13,1.13,0,0,0,.79.5A.92.92,0,0,0,4,4.94a4.43,4.43,0,0,0,.47-1.22c.16-.64.36-1.86.59-3.66a26.71,26.71,0,0,1,.64-3.69,4.62,4.62,0,0,1,.57-1.29,1.34,1.34,0,0,1,1-.59h0A1.28,1.28,0,0,1,8.37-5a2.17,2.17,0,0,1,.39,1.15A19.91,19.91,0,0,1,8.54-.53a21.51,21.51,0,0,0-.2,3.64A2.64,2.64,0,0,0,9.45,5.36,1.91,1.91,0,0,0,10.88,5a3.84,3.84,0,0,0,.7-1l.42.2-.1.18-.12.21-.11.18L11.52,5a.94.94,0,0,1-.14.16c-.06.07-.13.12-.19.18a2.5,2.5,0,0,1-1.85.41H9.29l0,0A3.06,3.06,0,0,1,7.87,3.13a22.11,22.11,0,0,1,.2-3.7,18.17,18.17,0,0,0,.22-3.28A1.85,1.85,0,0,0,8-4.79a.77.77,0,0,0-.67-.3.93.93,0,0,0-.64.42,4.51,4.51,0,0,0-.51,1.15A26.26,26.26,0,0,0,5.54.1c-.24,1.83-.45,3.07-.61,3.72a5.38,5.38,0,0,1-.51,1.34,1.33,1.33,0,0,1-.89.68H3.47A1.58,1.58,0,0,1,2.3,5.16a3.29,3.29,0,0,1-.49-1.4A20.27,20.27,0,0,1,1.89,0,23.45,23.45,0,0,0,2-3.75a2.94,2.94,0,0,0-.32-1.19A.93.93,0,0,0,1-5.42,1.1,1.1,0,0,0,.19-5,3.69,3.69,0,0,0-.43-3.76,20.78,20.78,0,0,0-1.07.07c-.2,2-.37,3.32-.49,3.86A4.48,4.48,0,0,1-2,5.26,1.06,1.06,0,0,1-3,5.81h0a1.9,1.9,0,0,1-1.29-.67,2.7,2.7,0,0,1-.58-1.31,14.92,14.92,0,0,1,0-3.6q0-.12.06-.54c0-.28,0-.47,0-.57s0-.28,0-.52,0-.42,0-.55,0-.28,0-.47,0-.36,0-.51,0-.29,0-.43A3.09,3.09,0,0,0-5-4.62a1.19,1.19,0,0,0-.67-.6,1.5,1.5,0,0,0-1.2.9A7,7,0,0,0-7.41-2.1c0,.39-.1,1-.14,1.76s-.11,1.47-.18,2.08A9.61,9.61,0,0,1-8,3.32h0l0,0A2.81,2.81,0,0,1-9.2,4.62a1.82,1.82,0,0,1-1.35.15A1.94,1.94,0,0,1-11.61,4,2.39,2.39,0,0,1-12,2.56l.47,0a1.92,1.92,0,0,0,.31,1.16,1.47,1.47,0,0,0,.81.62,1.3,1.3,0,0,0,1-.11A2.32,2.32,0,0,0-8.5,3.18a7.53,7.53,0,0,0,.29-1.5Q-8.1.8-8-.36c0-.78.1-1.37.16-1.78A7.23,7.23,0,0,1-7.28-4.5,1.93,1.93,0,0,1-5.65-5.66h.05l0,0a1.59,1.59,0,0,1,1,.84,3.47,3.47,0,0,1,.34,1.41,4.91,4.91,0,0,1,0,.57v.54c0,.15,0,.37,0,.66s0,.47,0,.58,0,.33-.06.68,0,.56-.06.63a14.78,14.78,0,0,0,0,3.49,2.58,2.58,0,0,0,.5,1.13,1.57,1.57,0,0,0,1,.5A.61.61,0,0,0-2.44,5,3.89,3.89,0,0,0-2,3.85C-1.9,3.31-1.74,2-1.53,0A20.65,20.65,0,0,1-.86-3.89,3.89,3.89,0,0,1-.18-5.26,1.58,1.58,0,0,1,1-5.84Z"/>
<rect fill="none" x="-12" y="-12" width="24" height="24"/>
</symbol>
<symbol id="moonmilk" viewBox="-12 -12 24 24">
<path d="M-4.78-3.06a3.39,3.39,0,0,1,1.5.34,2.48,2.48,0,0,1,1.1,1,3.74,3.74,0,0,1,1.62-.8,3.52,3.52,0,0,1,1.71,0,2.9,2.9,0,0,1,1.39.77A2.49,2.49,0,0,1,3.25-.37,4,4,0,0,1,5-.76a3.58,3.58,0,0,1,1.6.36A2.84,2.84,0,0,1,7.88.92a2.32,2.32,0,0,1,0,1.88.34.34,0,0,1-.37.26A.36.36,0,0,1,7.25,3a.32.32,0,0,1-.12-.25.21.21,0,0,1,0-.12,2,2,0,0,0,0-1.43,2,2,0,0,0-1-.9A2.81,2.81,0,0,0,4.68,0,2.78,2.78,0,0,0,3.12.56L2.46.25A1.7,1.7,0,0,0,2.15-1.1,2.15,2.15,0,0,0,1-1.81a2.85,2.85,0,0,0-1.58.06A3,3,0,0,0-2-.83l-.71-.12A1.74,1.74,0,0,0-3.55-2a2.36,2.36,0,0,0-1.39-.27,3.08,3.08,0,0,0-1.45.53A2.33,2.33,0,0,0-7.32-.56a.35.35,0,0,1-.37.24A.39.39,0,0,1-8-.42a.33.33,0,0,1-.1-.26v-.1A3,3,0,0,1-6.89-2.35,4,4,0,0,1-5-3Z"/>
<rect fill="none" x="-12" y="-12" width="24" height="24"/>
</symbol>
<symbol id="narrow" viewBox="-12 -12 24 24">
<path d="M-1.5,5V-5h0.64V5H-1.5z"/>
<path d="M0.86,5V-5H1.5V5H0.86z"/>
<rect fill="none" x="-12" y="-12" width="24" height="24"/>
</symbol>
<symbol id="paleoflow" viewBox="-12 -12 24 24">
<path d="M.38-12V.17A1.9,1.9,0,0,0,1,0,1.57,1.57,0,0,0,1.7-.72a1.86,1.86,0,0,0,.23-1c0-.09,0-.14.08-.16a.92.92,0,0,1,.24,0,.52.52,0,0,0,.25,0h.08A2.48,2.48,0,0,1,2,0,2.5,2.5,0,0,1,.38.77V7.21H2.09L0,12-1.8,7.23c.07,0,.59,0,1.53,0V.77A3,3,0,0,1-1.35.43a2.16,2.16,0,0,1-1-1,2.38,2.38,0,0,1-.24-1.33l.67,0a2,2,0,0,0,.15,1,1.73,1.73,0,0,0,.59.67A2.14,2.14,0,0,0-.27.16V-12Z"/>
<rect fill="none" x="-12" y="-12" width="24" height="24"/>
</symbol>
<symbol id="rain" viewBox="-12 -12 24 24">
<path d="M-4.14-6.34h0.71v4.69h-0.71V-6.34z"/>
<path d="M-0.35-6.34h0.71v4.69h-0.71V-6.34z"/>
<path d="M3.43-6.34h0.71v4.69H3.43V-6.34z"/>
<path d="M-4.14,1.65h0.71v4.69h-0.71V1.65z"/>
<path d="M-0.35,1.65h0.71v4.69h-0.71V1.65z"/>
<path d="M3.43,1.65h0.71v4.69H3.43V1.65z"/>
<rect fill="none" x="-12" y="-12" width="24" height="24"/>
</symbol>
<symbol id="rats" viewBox="-12 -12 24 24">
<path d="M8.78-2.32,7-2.27c-.51-.17-.65-.56-1.46-.45l-.25.45C3.59-2.75,2.59-3.66.56-3.62l-1.35.3A4.89,4.89,0,0,0-4.24,1.57c-.68.6-2.58.86-3.39.94a6.84,6.84,0,0,0-1.62.39,4.91,4.91,0,0,0-1,.52A1.75,1.75,0,0,0-11,4.61a1.16,1.16,0,0,0,.59,1.48,1.3,1.3,0,0,1,.14.12c.16-.52-.35-.92-.2-1.42a3.35,3.35,0,0,1,.27-.45,3.18,3.18,0,0,1,1.79-1c.63-.12,1.27-.22,1.91-.3.48-.07,1,0,1.4-.12A6.94,6.94,0,0,1-4,2.82,30.64,30.64,0,0,0,.41,2.69l2.16.15c.1-.09,0,0,.1-.15a.87.87,0,0,0-.9-.55c.86-1,2.27-.37,3.1-.05.5.19,1,0,1.25.4.11-.1.1-.07.15-.25.3,0,.31.07.6.15-.06-.49-.34-.64-1-.6a.78.78,0,0,1,0-.55C6.3.56,7.29.73,8.13.43a13.78,13.78,0,0,0,2.15-.9l.6-.85v-.2A16.9,16.9,0,0,0,8.78-2.32Z"/>
<rect fill="none" x="-12" y="-12" width="24" height="24"/>
</symbol>
<symbol id="sand" viewBox="-12 -12 24 24">
<path d="M-1.58,0.83c0.23,0.2,0.35,0.44,0.36,0.73c0.01,0.29-0.08,0.54-0.28,0.75c-0.2,0.21-0.46,0.32-0.78,0.33c-0.32,0.01-0.6-0.08-0.83-0.26C-3.36,2.19-3.49,1.95-3.5,1.67C-3.51,1.38-3.41,1.12-3.2,0.9c0.21-0.22,0.48-0.34,0.8-0.35C-2.08,0.54-1.81,0.64-1.58,0.83z"/>
<path d="M0.08-2.36c0.23,0.2,0.35,0.44,0.36,0.73c0.01,0.29-0.08,0.54-0.28,0.75c-0.2,0.21-0.46,0.32-0.78,0.33c-0.32,0.01-0.59-0.07-0.83-0.26s-0.37-0.42-0.38-0.71c-0.01-0.29,0.09-0.54,0.3-0.76c0.21-0.22,0.48-0.33,0.8-0.35C-0.42-2.65-0.14-2.56,0.08-2.36z"/>
<path d="M3.12,0.55c0.23,0.2,0.35,0.43,0.38,0.71c0.02,0.28-0.07,0.53-0.28,0.75C3,2.23,2.73,2.35,2.42,2.36C2.1,2.37,1.82,2.28,1.58,2.08C1.34,1.88,1.22,1.64,1.2,1.35c-0.01-0.29,0.09-0.54,0.3-0.75C1.72,0.4,1.99,0.29,2.3,0.28S2.89,0.36,3.12,0.55z"/>
<rect fill="none" x="-12" y="-12" width="24" height="24"/>
</symbol>
<symbol  id="scallops" viewBox="-12 -12 24 24">
<path d="M.05-3.74l.21,0A2.35,2.35,0,0,1,1.74-3a2,2,0,0,1,.59,1.55v0l0,0A9.59,9.59,0,0,1-.08,3.27l-.39.47-.27-.55A14.26,14.26,0,0,1-2.33-1.89v-.05l0-.05A2,2,0,0,1-1.44-3.3,2.42,2.42,0,0,1,.05-3.74ZM-.11-3A1.44,1.44,0,0,0-1.55-1.89,13.06,13.06,0,0,0-.29,2.33,8.6,8.6,0,0,0,1.55-1.54a1.41,1.41,0,0,0-.38-1A1.62,1.62,0,0,0,.18-3Z"/>
<rect fill="none" x="-12" y="-12" width="24" height="24"/>
</symbol>
<symbol  id="sink" viewBox="-12 -12 24 24">
<path d="M.72,9.41H.9c1.94,0,3.26-.54,3.94-1.51a3.61,3.61,0,0,0,.33-.69,2,2,0,0,0,.11-.54V6.46l.69,0a2.8,2.8,0,0,1-.58,1.78C4.58,9.39,3.1,10,.93,10H-.93q-3.25,0-4.46-1.8a2.74,2.74,0,0,1-.43-.83A2.37,2.37,0,0,1-6,6.67V6.43l.68,0A2.27,2.27,0,0,0-4.84,7.9c.68,1,2,1.47,3.93,1.48l.5,0ZM-1.46-10a.68.68,0,0,0,.16.41A2.77,2.77,0,0,0-.51-9l0,0a3.63,3.63,0,0,1,1,.7,1.15,1.15,0,0,1,.34.88c0,.58-.53,1.14-1.49,1.68-.68.42-1,.79-1,1.11s.3.61.84,1h0Q.61-2.86.46-1.78a3.51,3.51,0,0,1-1.55,2,.61.61,0,0,0-.26.41,1.67,1.67,0,0,0,.1.51,5.3,5.3,0,0,1,.32,1L.56,1.9.46,8.06-3.4,2.54l1.73-.28A6.16,6.16,0,0,0-2,1.39,1.7,1.7,0,0,1-2.09.58a1.21,1.21,0,0,1,.53-.82h0v0C-.75-.86-.33-1.38-.28-1.85s-.23-.87-.91-1.27h0C-2-3.6-2.37-4.1-2.4-4.61S-2-5.74-1.09-6.29C-.34-6.72.06-7.1.09-7.44a.67.67,0,0,0-.18-.43,3.17,3.17,0,0,0-.79-.58,2.93,2.93,0,0,1-1-.67A1.16,1.16,0,0,1-2.17-10Z"/>
<rect fill="none" x="-12" y="-12" width="24" height="24"/>
</symbol>
<symbol  id="spring" viewBox="-12 -12 24 24">
<path d="M-1.34-9.86,2.52-4.34.78-4.06a8,8,0,0,0,.29.87,1.4,1.4,0,0,1,.13.79,1.3,1.3,0,0,1-.52.84l0,0v0C-.13-.95-.55-.42-.61,0S-.37.91.31,1.3l0,0c.75.46,1.14,1,1.18,1.46S1.12,3.92.21,4.46C-.54,4.9-.94,5.29-1,5.64a.74.74,0,0,0,.18.43A3.2,3.2,0,0,0,0,6.62a3,3,0,0,1,1,.7,1.14,1.14,0,0,1,.31.86A1.74,1.74,0,0,1,.71,9.26H.92c1.92,0,3.22-.52,3.9-1.51a2.05,2.05,0,0,0,.35-.67,2.59,2.59,0,0,0,.1-.55l0-.19.65,0a2.84,2.84,0,0,1-.55,1.8C4.58,9.26,3.08,9.85.92,9.86H-.92c-2.17,0-3.66-.6-4.49-1.77a3.65,3.65,0,0,1-.4-.85A2.43,2.43,0,0,1-6,6.53V6.29l.66,0a2.08,2.08,0,0,0,.47,1.41c.68,1,2,1.5,3.91,1.51H-.4c.62-.43.94-.8,1-1.1a.76.76,0,0,0-.16-.43,3.25,3.25,0,0,0-.79-.51v0a3.8,3.8,0,0,1-1-.7,1.15,1.15,0,0,1-.34-.91q.06-.84,1.5-1.68c.68-.4,1-.77,1-1.1S.49,2.21,0,1.87c0,0,0,0,0,0C-1,1.32-1.44.69-1.34,0a3.58,3.58,0,0,1,1.55-2,.54.54,0,0,0,.23-.38A1.28,1.28,0,0,0,.37-3a4.57,4.57,0,0,1-.32-1l-1.49.24Z"/>
<rect fill="none" x="-12" y="-12" width="24" height="24"/>
</symbol>
<symbol  id="stalactite" viewBox="-12 -12 24 24">
<path d="M3.57-6.69l.52.53L.39-3V6.12H-.39V-3l-3.7-3.14.52-.53L0-3.67Z"/>
<rect fill="none" x="-12" y="-12" width="24" height="24"/>
</symbol>
<symbol  id="stalagmite" viewBox="-12 -12 24 24">
<path d="M.38-6.42V2.75L4.11,5.89l-.56.53L0,3.4l-3.57,3-.53-.53,3.7-3.14V-6.42Z"/>
<rect fill="none" x="-12" y="-12" width="24" height="24"/>
</symbol>
<symbol  id="stalagnate" viewBox="-12 -12 24 24">
<path d="M3.55-8.46l.56.53L.38-4.78v9L4.11,7.36l-.56.53L0,4.86l-3.57,3-.53-.53,3.7-3.14v-9l-3.7-3.15.53-.53L0-5.43Z"/>
<rect fill="none" x="-12" y="-12" width="24" height="24"/>
</symbol>
<symbol  id="straws" viewBox="-12 -12 24 24">
<path d="M-10.89-2.76H10.89V-2H9.63V.46H8.84V-2H8.29v5.6H7.5V-2H5.56V.7H4.77V-2H2.07V2.38H1.29V-2H-.1v3H-.89V-2H-3.2V4.11H-4V-2H-6.22L-6.16.75l-.79,0L-7-2H-8.32V2.33H-9.1V-2h-1.79Z"/>
<rect fill="none" x="-12" y="-12" width="24" height="24"/>
</symbol>
<symbol  id="water" viewBox="-12 -12 24 24">
<path d="M-1.72-9.86,2.11-4.32.38-4.06a6.49,6.49,0,0,0,.29.89,1.5,1.5,0,0,1,.13.79,1.2,1.2,0,0,1-.5.82h0l0,0C-.54-.94-1-.42-1,.05s.24.89.92,1.27h0c.77.48,1.17,1,1.19,1.49S.71,3.94-.2,4.49c-.75.43-1.13.81-1.15,1.15a.51.51,0,0,0,.18.43,2.66,2.66,0,0,0,.76.58,2.93,2.93,0,0,1,1,.67,1.16,1.16,0,0,1,.29.89C.84,8.75.42,9.3-.41,9.86l-.44-.55c.66-.45,1-.83,1-1.15A.47.47,0,0,0,0,7.75a2.84,2.84,0,0,0-.78-.53h0a3.87,3.87,0,0,1-1-.69,1.24,1.24,0,0,1-.34-.91c0-.58.54-1.14,1.52-1.68.66-.42,1-.79,1-1.11s-.3-.61-.84-1h0Q-1.9,1.06-1.74,0a3.44,3.44,0,0,1,1.54-2,.67.67,0,0,0,.27-.41A1.11,1.11,0,0,0,0-3a4.33,4.33,0,0,1-.31-1l-1.5.24Z"/>
<rect fill="none" x="-12" y="-12" width="24" height="24"/>
</symbol><symbol  id="tree" viewBox="-12 -12 24 24">
<path d="M7.4-5.04A4.271,4.271,0,0,0,7.7-6.627a4.3,4.3,0,0,0-4.3-4.3A4.279,4.279,0,0,0,.636-9.914,4.293,4.293,0,0,0-3.045-12a4.3,4.3,0,0,0-4.3,4.3,4.27,4.27,0,0,0,.421,1.845,4.3,4.3,0,0,0-3.645,4.244,4.3,4.3,0,0,0,4.3,4.3A4.282,4.282,0,0,0-3.946,2L-1.175,5.23h0L-1.612,12H.982L.757,6.376,4.119,2.827v0a4.272,4.272,0,0,0,2.15.58,4.3,4.3,0,0,0,4.3-4.3A4.3,4.3,0,0,0,7.4-5.04ZM-3.346,1.538h0A4.346,4.346,0,0,0-2.7.788a4.266,4.266,0,0,0,1.765.753l-.135,2.087ZM.69,4.7.563,1.544A4.258,4.258,0,0,0,2.321.805,4.3,4.3,0,0,0,3.378,2.279Z"/>
<rect fill="none" x="-12" y="-12" width="24" height="24"/>
</symbol><g>
<desc></desc>
<g>
<line fill="none" stroke="#dddddd" stroke-width="0.1mm" x1="0.00" y1="54.00" x2="81.00" y2="54.00" />
<text x="78.20" y="53.80" font-size=".2mm" fill="#000000">0m</text>
<line fill="none" stroke="#dddddd" stroke-width="0.1mm" x1="0.00" y1="34.00" x2="81.00" y2="34.00" />
<text x="78.20" y="33.80" font-size=".2mm" fill="#000000">10m</text>
<line fill="none" stroke="#dddddd" stroke-width="0.1mm" x1="0.00" y1="14.00" x2="81.00" y2="14.00" />
<text x="78.20" y="13.80" font-size=".2mm" fill="#000000">20m</text>
<line fill="none" stroke="#dddddd" stroke-width="0.1mm" x1="0.00" y1="74.00" x2="81.00" y2="74.00" />
<text x="78.20" y="73.80" font-size=".2mm" fill="#000000">-10m</text>
</g>
<g>
<path fill="none" stroke="#000000" stroke-width="0.06mm" d="M28.773632,49.504227 C28.583092,49.511257 28.392551,49.51829 28.202013,49.525322 C28.041819,49.532463 27.88178,49.545906 27.72143,49.546745 C27.50781,49.547863 27.294369,49.53275 27.080753,49.53118 C27.053986,49.530987 27.027832,49.53991 27.00111,49.541462 C26.93671,49.545204 26.872173,49.547028 26.807663,49.547047 C26.63338,49.54709 26.459068,49.5372 26.28484,49.541634 C26.157112,49.544888 26.029774,49.557884 25.902588,49.570084 C25.889837,49.57131 25.877808,49.576866 25.865993,49.58181 C25.850864,49.588142 25.836655,49.59648 25.821987,49.603813 L25.821987,49.603813" /><path fill="none" stroke="#000000" stroke-width="0.06mm" d="M25.908546,49.616806 C25.6936,49.765568 25.804497,49.686714 25.387568,50.027424 C25.357882,50.05168 25.33814,50.09975 25.34568,50.137802 C25.349522,50.157185 25.360262,50.181774 25.370487,50.196823 C25.500475,50.388073 25.441692,50.302223 25.551634,50.426422 C25.671299,50.561604 25.489397,50.37224 25.683926,50.56473 C25.697893,50.578552 25.710854,50.59336 25.72472,50.60728 C25.729311,50.611893 25.734913,50.61623 25.741655,50.61675 C25.7603,50.61818 25.784542,50.607162 25.798111,50.59796 C25.85337,50.5605 25.91026,50.52463 25.960224,50.48035 C26.075542,50.378155 26.111603,50.311592 26.15998,50.170174 C26.17065,50.138992 26.180933,50.106888 26.182884,50.073986 C26.190752,49.941353 26.17374,49.895103 26.148342,49.772682 L26.148342,49.772682" /><path fill="none" stroke="#000000" stroke-width="0.06mm" d="M25.969137,49.590824 C26.028223,49.71216 25.99364,49.649456 26.075377,49.777424 L26.075377,49.777424" /><path fill="none" stroke="#000000" stroke-width="0.06mm" d="M26.047039,49.755363 C26.013437,49.846447 26.016426,49.850864 25.960196,49.94143 C25.943476,49.968357 25.897968,50.00002 25.881987,50.020794 C25.851768,50.060078 25.82756,50.103638 25.800346,50.145058 L25.800346,50.145058" /><path fill="none" stroke="#000000" stroke-width="0.06mm" d="M25.614246,50.1797 L25.68378,50.153717" /><path fill="none" stroke="#000000" stroke-width="0.06mm" d="M25.917202,50.11042 C25.870161,50.305355 25.886633,50.193527 25.886906,50.448154 L25.886906,50.448154" /><path fill="none" stroke="#000000" stroke-width="0.06mm" d="M27.033806,49.357006 C27.036709,49.375244 27.035309,49.40021 27.047964,49.41663 C27.075495,49.452347 27.142492,49.439518 27.171772,49.413017 C27.177197,49.408104 27.210354,49.363613 27.19329,49.36138 C27.17665,49.359207 27.131721,49.397682 27.131468,49.397858 L27.131468,49.397858" /><path fill="none" stroke="#000000" stroke-width="0.06mm" d="M27.284824,49.47825 C27.367794,49.4617 27.450022,49.440872 27.53373,49.42861 C27.567308,49.423695 27.60159,49.42656 27.635525,49.42688 C27.644697,49.426964 27.642384,49.437317 27.63934,49.441776 C27.635712,49.447094 27.631653,49.452156 27.627132,49.45674 C27.619076,49.464912 27.610182,49.472206 27.601707,49.47994 L27.601707,49.47994" /><path fill="none" stroke="#000000" stroke-width="0.06mm" d="M27.925358,49.478245 L27.977293,49.478073" /><path fill="none" stroke="#000000" stroke-width="0.06mm" d="M27.283115,43.11176 C27.254398,43.13093 27.22359,43.147293 27.196966,43.16928 C27.103542,43.246437 27.01415,43.32836 26.9235,43.40876 C26.883495,43.44424 26.84761,43.484573 26.805016,43.516903 C26.68017,43.61166 26.547276,43.695446 26.421886,43.789482 C26.366642,43.83091 26.320362,43.883827 26.263496,43.923004 C26.098946,44.036373 25.9262,44.137375 25.758722,44.246372 C25.736141,44.261066 25.716167,44.279564 25.69342,44.294006 C25.679897,44.30259 25.66467,44.30814 25.650295,44.31521 C25.63433,44.322212 25.61717,44.326954 25.602404,44.33622 C25.481428,44.41213 25.357662,44.484444 25.243605,44.5704 C25.038927,44.724648 24.846142,44.89407 24.647411,45.055904 L24.647411,45.055904" /><path fill="none" stroke="#000000" stroke-width="0.06mm" d="M28.963945,49.258625 C29.101665,49.100258 28.899635,49.326973 29.104343,49.12326 C29.144936,49.082863 29.179146,49.036354 29.219906,48.996124 C29.244385,48.971962 29.274296,48.953873 29.299583,48.930553 C29.309055,48.921818 29.31706,48.911392 29.323742,48.900375 C29.35926,48.841793 29.389668,48.780174 29.42598,48.72208 C29.444866,48.69187 29.469517,48.66559 29.489105,48.635834 C29.58879,48.484394 29.57951,48.460033 29.714891,48.29086 C29.779778,48.22058 29.844658,48.150307 29.909542,48.08003 C29.93501,48.05781 29.963188,48.038357 29.985947,48.01337 C30.075989,47.91452 30.15774,47.808346 30.247383,47.709137 C30.401794,47.538246 30.189919,47.80016 30.34422,47.636604 C30.431955,47.543606 30.519444,47.449936 30.598587,47.34952 C30.651606,47.282253 30.691078,47.205296 30.73972,47.134796 C30.745895,47.125843 30.754107,47.118294 30.76271,47.111645 C30.81446,47.071648 30.85422,47.056843 30.890062,47.01129 C30.925442,46.96633 30.922235,46.89979 30.961489,46.858032 C31.00618,46.810482 31.054369,46.766304 31.09909,46.71878 C31.147133,46.667725 31.189041,46.610832 31.239704,46.562378 C31.271444,46.532017 31.310022,46.509727 31.34518,46.483402 L31.34518,46.483402" /><path fill="none" stroke="#000000" stroke-width="0.06mm" d="M27.528557,43.133385 C27.551414,43.125328 27.573772,43.115677 27.59713,43.109215 C27.611425,43.105263 27.62626,43.101616 27.641077,43.102264 C27.810226,43.10967 27.979816,43.114353 28.14806,43.133335 C28.331951,43.154083 28.513222,43.193764 28.696217,43.221306 C28.72771,43.226044 28.759945,43.224854 28.791346,43.230156 C28.861034,43.241924 28.929075,43.262947 28.999107,43.272446 C29.127804,43.2899 29.350945,43.285545 29.504665,43.338493 C29.523651,43.34503 29.541864,43.35407 29.558943,43.36463 C29.68013,43.439598 29.797878,43.520035 29.91914,43.59488 C29.928665,43.600754 29.939844,43.603577 29.950672,43.606403 C30.002708,43.619987 30.051548,43.610313 30.104715,43.63005 C30.1273,43.63843 30.14888,43.649387 30.170284,43.660442 C30.205482,43.67862 30.226925,43.699715 30.266232,43.70599 C30.542904,43.750164 30.432482,43.705402 30.653034,43.78731 C30.669128,43.79329 30.685379,43.808056 30.69764,43.819412 C30.756577,43.873997 30.813744,43.930515 30.873837,43.98382 C30.89814,44.00538 30.979584,44.03039 30.989925,44.035255 C31.005928,44.042774 31.020952,44.05251 31.034933,44.06334 C31.060154,44.082874 31.087297,44.107803 31.104805,44.135708 C31.12141,44.16217 31.124287,44.19434 31.143688,44.21898 C31.14962,44.22651 31.155424,44.234562 31.16333,44.23998 C31.239494,44.292164 31.317965,44.340897 31.395283,44.391357 L31.395283,44.391357" /><path fill="none" stroke="#000000" stroke-width="0.06mm" d="M31.471767,46.629395 C31.500557,46.60119 31.553444,46.535133 31.60344,46.510155 C31.655037,46.48438 31.728546,46.479023 31.77791,46.47355 C31.842197,46.466423 31.89925,46.481415 31.956268,46.5104 C32.01727,46.54141 32.048233,46.597057 32.11914,46.61183 C32.16662,46.621727 32.188446,46.61593 32.23904,46.623 C32.266327,46.62682 32.292816,46.63536 32.32011,46.63913 C32.363068,46.645058 32.4357,46.633266 32.46326,46.68041 C32.50056,46.74421 32.478157,46.86206 32.4777,46.923286 C32.477345,46.971428 32.530926,47.073147 32.578636,47.098404 C32.586823,47.102737 32.59516,47.107365 32.60424,47.1092 C32.700993,47.12874 32.79892,47.14223 32.895546,47.162403 C32.94713,47.173172 32.986916,47.22058 33.03776,47.224236 C33.207283,47.236427 33.218895,47.21267 33.352276,47.2671 L33.352276,47.2671" /><path fill="none" stroke="#000000" stroke-width="0.06mm" d="M31.583042,44.44743 C31.657644,44.329674 31.729488,44.21013 31.806852,44.094166 C31.84497,44.03703 31.844995,44.066147 31.864546,44.022125 C31.88229,43.98217 31.880312,43.96656 31.904068,43.93803 C31.927692,43.909657 31.968563,43.88652 32.00616,43.885616 C32.14679,43.88223 32.28749,43.880836 32.42815,43.88215 C32.471344,43.882553 32.566055,43.905922 32.617134,43.876587 C32.877033,43.727325 32.751144,43.798878 32.981518,43.595108 C32.99626,43.582066 33.050407,43.55928 33.062748,43.550995 C33.113567,43.5169 33.165173,43.483376 33.211517,43.443405 C33.2618,43.40004 33.301987,43.345913 33.351646,43.301838 C33.377995,43.278454 33.422245,43.260174 33.455128,43.24512 L33.455128,43.24512" /><path fill="none" stroke="#000000" stroke-width="0.06mm" d="M33.710983,42.969498 C33.758827,42.779327 33.96379,42.690746 34.03401,42.51677 C34.130913,42.276676 34.207474,42.0283 34.313023,41.791885 C34.362564,41.680916 34.440434,41.584747 34.497917,41.477684 C34.538033,41.40296 34.56565,41.321987 34.605503,41.247128 C34.627384,41.20602 34.662933,41.172844 34.682648,41.130653 C34.779484,40.923447 34.808506,40.79422 34.846836,40.56788 C34.87169,40.421112 34.880997,40.271824 34.909573,40.125736 C34.92028,40.07099 34.953453,40.022305 34.96425,39.96758 C34.98002,39.88765 34.97716,39.80504 34.98875,39.724392 C34.99424,39.686203 35.02154,39.633904 35.03103,39.597008 C35.049534,39.52503 35.034626,39.518436 35.048462,39.43624 C35.05435,39.401245 35.0634,39.36669 35.074787,39.33308 C35.13987,39.14102 35.338226,39.02436 35.40616,38.834145 C35.422276,38.789017 35.43353,38.742233 35.450012,38.69724 C35.471012,38.6399 35.499237,38.585278 35.51853,38.52734 C35.54061,38.46103 35.55206,38.24913 35.555958,38.227657 C35.597244,38.000336 35.614502,37.91868 35.70704,37.736496 C35.74256,37.666565 35.81256,37.605026 35.891586,37.593697 C35.974102,37.58187 36.065926,37.597797 36.107113,37.513336 C36.134933,37.456284 36.16319,37.39932 36.186874,37.34043 C36.194954,37.32034 36.197727,37.298477 36.202065,37.27726 C36.225746,37.161346 36.244102,37.044308 36.27092,36.929077 C36.357635,36.556465 36.284008,36.92604 36.39569,36.597958 C36.569336,36.087826 36.38188,36.506454 36.54621,36.160316 L36.54621,36.160316" /><path fill="none" stroke="#000000" stroke-width="0.06mm" d="M33.605522,47.235188 C33.59864,47.28153 33.588013,47.327465 33.584877,47.374207 C33.582756,47.405804 33.587437,47.4375 33.58982,47.469074 C33.594322,47.528637 33.606194,47.587852 33.605522,47.647575 C33.603264,47.848976 33.59774,48.050594 33.58105,48.251312 C33.575356,48.319824 33.54925,48.38522 33.53855,48.453133 C33.491264,48.75329 33.433945,49.052513 33.40714,49.355186 C33.245247,51.183228 33.601257,48.862545 33.308105,51.112843 C33.288696,51.261814 33.23864,51.405167 33.20391,51.551327 C33.10867,52.269253 33.007236,52.98638 32.91819,53.7051 C32.90438,53.81659 32.94581,53.905563 32.975822,54.012714 C33.058434,54.30764 33.16335,54.597233 33.22339,54.89757 C33.29115,55.236553 33.323536,55.58189 33.358253,55.925835 C33.36778,56.020233 33.357315,56.11559 33.35591,56.210457 C33.348824,56.68929 33.341614,57.168118 33.332787,57.64692 C33.331398,57.722157 33.32288,57.797333 33.325256,57.872543 C33.334667,58.16992 33.356773,58.46678 33.368134,58.76409 C33.37165,58.856194 33.339146,58.793434 33.333916,58.917118 C33.324783,59.133194 33.31539,59.350124 33.32979,59.56591 C33.35125,59.88764 33.435547,60.028038 33.52884,60.329964 C33.54246,60.374054 33.54641,60.42074 33.55983,60.464893 C33.602398,60.60493 33.724674,60.65539 33.749153,60.80121 C33.787724,61.031 33.78655,61.372505 33.79357,61.57167 L33.79357,61.57167" /><path fill="none" stroke="#000000" stroke-width="0.06mm" d="M33.21078,60.895317 C33.282005,60.919876 33.354443,60.94116 33.42445,60.968994 C33.549683,61.018787 33.60704,61.16604 33.73127,61.218292 C34.440517,61.516624 33.685425,61.190033 34.163677,61.376522 C34.260265,61.41419 34.35373,61.459568 34.45036,61.497124 C34.50637,61.51889 34.560764,61.49523 34.6173,61.497402 C34.698204,61.50051 34.71826,61.505135 34.771767,61.51634 L34.771767,61.51634" /><path fill="none" stroke="#000000" stroke-width="0.06mm" d="M36.20201,35.7293 C36.46584,35.773735 36.20562,35.737053 36.5595,35.755356 C36.57724,35.756275 36.602257,35.75135 36.611618,35.76644 C36.618675,35.777817 36.586143,35.775482 36.572826,35.77684 C36.4614,35.788208 36.34958,35.79532 36.237953,35.804558 L36.237953,35.804558" /><path fill="none" stroke="#000000" stroke-width="0.06mm" d="M33.357838,47.40235 C33.40838,47.43165 33.45729,47.463955 33.50946,47.49024 C33.615353,47.543583 33.756554,47.50814 33.8463,47.59066 C33.87372,47.615868 33.90325,47.653584 33.918022,47.6874 C34.236908,48.417522 34.160824,48.149723 34.269882,48.681694 L34.269882,48.681694" /><path fill="none" stroke="#000000" stroke-width="0.06mm" d="M32.69499,43.77997 C32.73707,43.73731 32.79165,43.688046 32.79732,43.623154 C32.801678,43.573326 32.76552,43.511017 32.750736,43.473763 C32.747284,43.465057 32.7446,43.45598 32.74016,43.44773 C32.72371,43.41715 32.715675,43.42088 32.689697,43.389786 C32.677536,43.37522 32.667465,43.349182 32.66384,43.331703 C32.640453,43.2189 32.667633,43.17695 32.683636,43.05715 C32.690445,43.00619 32.6673,42.937584 32.661133,42.894135 C32.648937,42.80823 32.72198,42.694485 32.743828,42.63239 C32.782948,42.521214 32.728622,42.47287 32.66893,42.37347 L32.66893,42.37347" /><path fill="none" stroke="#000000" stroke-width="0.06mm" d="M33.351498,43.3124 C33.39553,43.25552 33.45417,43.199295 33.467304,43.12464 C33.484894,43.024673 33.436142,42.930668 33.409637,42.838093 C33.3946,42.785576 33.415565,42.671497 33.41926,42.648376 C33.42276,42.62642 33.42929,42.604713 33.438717,42.58458 C33.48118,42.493896 33.497704,42.461197 33.55794,42.398705 C33.602657,42.352318 33.651398,42.31991 33.682636,42.265484 C33.70785,42.22155 33.711723,42.147728 33.71872,42.110073 L33.71872,42.110073" /><path fill="none" stroke="#000000" stroke-width="0.06mm" d="M32.16088,43.92469 C32.15109,43.909786 32.14237,43.894123 32.131508,43.87998 C32.093567,43.83058 31.973299,43.79701 31.938774,43.79002 C31.8134,43.76464 31.685349,43.755013 31.558739,43.736782 C31.551502,43.73574 31.542637,43.732063 31.536861,43.727676 C31.489265,43.691536 31.463861,43.626156 31.437607,43.57574 L31.437607,43.57574" /><path fill="none" stroke="#000000" stroke-width="0.06mm" d="M31.526627,46.429497 C31.516205,46.371143 31.505089,46.31111 31.525099,46.253456 C31.54027,46.209743 31.57048,46.16779 31.612413,46.146507 C31.650162,46.12735 31.685513,46.10085 31.726727,46.091194 C31.913609,46.04742 32.142815,46.000072 32.344734,46.021206 C32.414803,46.028538 32.483635,46.045113 32.552498,46.059975 C32.563187,46.06228 32.573174,46.067368 32.582787,46.072582 C32.623627,46.094738 32.658295,46.12684 32.65038,46.176666 C32.64384,46.217827 32.594696,46.22712 32.566067,46.246605 C32.55182,46.2563 32.537926,46.266827 32.525944,46.279213 C32.485485,46.321022 32.447266,46.36495 32.409073,46.408836 C32.399456,46.41989 32.39219,46.432854 32.38261,46.44394 C32.37265,46.45546 32.353,46.46562 32.337914,46.467297 C32.24147,46.47802 32.14487,46.487324 32.04825,46.496304 C31.921062,46.50812 31.793753,46.518562 31.666504,46.52969 L31.666504,46.52969" /><path fill="none" stroke="#000000" stroke-width="0.06mm" d="M31.815935,46.373833 C32.029144,46.357117 31.970745,46.3617 32.244335,46.34044 L32.244335,46.34044" /><path fill="none" stroke="#000000" stroke-width="0.06mm" d="M31.993973,46.17345 C31.998753,46.132057 32.005444,46.086357 32.03813,46.056366 C32.07898,46.01889 32.17952,46.005634 32.22077,45.99533 L32.22077,45.99533" /><path fill="none" stroke="#000000" stroke-width="0.06mm" d="M32.183136,46.240246 C32.263233,46.233757 32.305717,46.254074 32.37786,46.284775 L32.37786,46.284775" /><path fill="none" stroke="#000000" stroke-width="0.06mm" d="M32.717243,46.496292 C32.79644,46.46095 32.864,46.448475 32.944004,46.488777 C32.95402,46.493824 32.963955,46.499428 32.972454,46.50675 C33.028446,46.555004 33.080612,46.60762 33.137157,46.655228 C33.210114,46.716652 33.265022,46.708076 33.362206,46.727875 C33.41211,46.738045 33.444687,46.798176 33.44834,46.844482 C33.456142,46.943283 33.46288,47.042168 33.468792,47.141098 C33.471756,47.190727 33.392925,47.205143 33.36006,47.208424 C33.16027,47.228374 33.45185,47.1883 33.08897,47.241486 C33.000084,47.254517 32.887108,47.274883 32.803337,47.23231 C32.782562,47.221752 32.764793,47.20158 32.754124,47.181267 C32.70854,47.0945 32.73725,47.055508 32.754047,46.954655 C32.763264,46.89931 32.716484,46.843525 32.67944,46.810036 C32.653053,46.78618 32.623985,46.765396 32.597687,46.741447 C32.592896,46.737083 32.593597,46.72768 32.59572,46.7226 C32.598854,46.715088 32.608143,46.70534 32.61447,46.70124 C32.682686,46.657074 32.751877,46.614433 32.82058,46.571026 L32.82058,46.571026" /><path fill="none" stroke="#000000" stroke-width="0.06mm" d="M32.861897,46.71894 C32.864815,46.73708 32.8665,46.755463 32.870655,46.773357 C32.88546,46.837105 33.02134,46.915993 33.030228,46.92447 C33.075684,46.967804 33.11459,47.01752 33.15677,47.06405 L33.15677,47.06405" /><path fill="none" stroke="#000000" stroke-width="0.06mm" d="M33.65193,43.045223 L33.52486,43.138958" /><path fill="none" stroke="#000000" stroke-width="0.06mm" d="M36.63474,36.51543 C36.668114,36.70755 36.660263,36.70484 36.763596,36.945534 C36.805664,37.043514 36.871357,37.130722 36.908848,37.230537 C36.947098,37.33238 36.965275,37.44072 36.989418,37.54679 C36.993164,37.563255 36.995377,37.580757 36.99234,37.597366 C36.965416,37.7444 36.935555,37.891014 36.89982,38.036156 C36.8721,38.14872 36.800232,38.226498 36.818886,38.359596 C36.824005,38.396114 36.84876,38.42436 36.85441,38.460865 C36.86155,38.50703 36.84876,38.482395 36.85657,38.543934 C36.865685,38.615734 36.93171,38.82049 36.936806,38.835777 C37.005287,39.04117 37.0858,39.24256 37.149445,39.4495 C37.170147,39.51683 37.172592,39.588608 37.18936,39.657024 C37.205624,39.72336 37.254982,39.77783 37.263184,39.846317 C37.287254,40.047375 37.245163,40.054863 37.196686,40.270687 C37.152718,40.46644 37.148026,40.5045 37.165367,40.688663 C37.175415,40.79529 37.268616,40.862457 37.33111,40.93826 C37.379906,40.997444 37.428284,41.157085 37.41143,41.23794 C37.393463,41.32412 37.371597,41.409485 37.3483,41.494377 C37.23606,41.903343 37.38746,41.14383 37.165695,42.068886 C37.075836,42.443714 37.182907,42.348106 37.0269,42.712723 C36.974632,42.83489 36.896286,42.944214 36.834694,43.061954 C36.827057,43.076553 36.822536,43.092804 36.819595,43.10901 C36.79814,43.227295 36.830162,43.18294 36.819584,43.345085 C36.812943,43.44688 36.76853,43.5824 36.78808,43.696957 C36.807495,43.810757 36.88601,43.91275 36.95243,44.00014 C36.98098,44.037704 37.016808,44.06913 37.04963,44.103024 C37.06494,44.11883 37.081017,44.128223 37.086456,44.150497 C37.102783,44.217384 36.947517,44.368824 36.929092,44.3926 C36.892265,44.44011 36.893246,44.512318 36.90655,44.56739 C36.92459,44.64206 36.93776,44.708527 36.978333,44.771904 C37.045303,44.876503 37.141098,44.90158 37.244675,44.996296 C37.403336,45.14138 37.47307,45.224457 37.53933,45.41136 C37.547226,45.43363 37.55268,45.477867 37.549324,45.50279 C37.526344,45.673164 37.496162,45.842545 37.474762,46.01313 C37.471573,46.038563 37.472878,46.06454 37.47566,46.09002 C37.482574,46.153324 37.497955,46.191624 37.524162,46.249706 C37.667244,46.56678 37.720642,46.628906 37.79887,46.910072 C37.804733,46.931137 37.805634,46.953392 37.806305,46.975246 C37.81019,47.1011 37.806435,47.227173 37.812523,47.35294 C37.814743,47.39879 37.83425,47.45681 37.864925,47.492798 C37.889168,47.52124 37.92182,47.53785 37.919,47.578064 C37.915165,47.63262 37.835922,47.752293 37.832153,47.760334 C37.7947,47.8403 37.82028,47.939198 37.827744,48.019264 L37.827744,48.019264" /><path fill="none" stroke="#000000" stroke-width="0.06mm" d="M38.00791,48.33029 C38.00126,48.283905 37.960083,48.112213 37.973118,48.01879 C37.98616,47.92532 38.065926,47.828102 38.115875,47.76208 C38.160248,47.70343 38.234444,47.652554 38.3086,47.643314 C38.417156,47.62979 38.46554,47.685226 38.435585,47.791084 C38.415512,47.86199 38.390415,47.93152 38.362785,47.99984 C38.352158,48.026123 38.336143,48.04995 38.32116,48.07402 C38.226357,48.22633 38.186405,48.321896 38.022373,48.386795 L38.022373,48.386795" /><path fill="none" stroke="#000000" stroke-width="0.06mm" d="M35.955616,60.950638 C35.961308,60.89735 35.962593,60.843407 35.972694,60.790775 C36.017353,60.558067 36.191914,60.345997 36.402008,60.240826 C36.59246,60.145485 36.45246,60.23292 36.6297,60.155033 C36.80258,60.07906 36.997078,59.947216 37.196648,59.998356 C37.36949,60.042645 37.479828,60.14133 37.619644,60.25801 C37.638374,60.27364 37.655624,60.291916 37.668015,60.312927 C37.778465,60.500233 37.789284,60.597282 37.877426,60.821014 C37.901123,60.88116 37.93467,60.912125 37.93177,60.975063 C37.926094,61.098267 37.771507,61.30197 37.71727,61.365376 C37.585487,61.51944 37.40233,61.669468 37.20816,61.740814 C37.064545,61.793583 36.706635,61.769386 36.675785,61.76755 C36.4679,61.755165 36.12374,61.750942 35.93979,61.5848 C35.926132,61.572464 35.912716,61.55664 35.906296,61.53886 C35.874397,61.45054 35.910248,61.35074 35.933945,61.26498 L35.933945,61.26498" /><path fill="none" stroke="#000000" stroke-width="0.06mm" d="M34.71417,61.42599 C34.752426,61.594246 34.738487,61.568768 34.8142,61.73788 C34.819775,61.75033 34.827217,61.76231 34.83685,61.77197 C34.87961,61.814835 34.962784,61.90731 35.040237,61.909668 C35.439476,61.921825 35.83868,61.93617 36.23805,61.942757 C36.310715,61.943954 36.38319,61.93391 36.455864,61.93302 C36.587593,61.931404 36.719597,61.943428 36.85108,61.935234 C36.910194,61.93155 36.96643,61.90806 37.024715,61.897556 C37.03871,61.89504 37.053135,61.89636 37.067356,61.89628 C37.115665,61.895992 37.14558,61.90176 37.189804,61.88932 C37.229816,61.878067 37.279846,61.847 37.31495,61.83387 C37.339645,61.82463 37.36538,61.81806 37.391285,61.813156 C37.488075,61.794827 37.650112,61.78634 37.763306,61.74063 C37.809654,61.721916 37.847164,61.653442 37.873825,61.626835 C37.93588,61.56491 38.140705,61.42126 38.17446,61.401333 C38.244667,61.35989 38.318428,61.32314 38.39559,61.296833 C38.524685,61.25282 38.699074,61.259 38.812534,61.16389 C38.81844,61.15894 38.824005,61.153435 38.828537,61.1472 C38.880867,61.075245 38.932808,61.002975 38.98299,60.929504 C39.00477,60.897617 39.02073,60.861794 39.044342,60.831245 C39.062286,60.808037 39.17389,60.710217 39.18664,60.6981 C39.198414,60.686916 39.208107,60.67366 39.219994,60.662598 C39.25255,60.63231 39.290405,60.64039 39.329407,60.62609 C39.398483,60.600765 39.46721,60.574123 39.533943,60.54315 C39.58029,60.521645 39.626907,60.479347 39.661644,60.443398 C39.75402,60.34779 39.84561,60.25139 39.935356,60.153297 C39.96239,60.123753 39.95971,60.07791 39.974487,60.043762 C39.997677,59.990192 40.024353,59.93813 40.0522,59.88682 C40.058735,59.87479 40.068176,59.864513 40.077316,59.854317 C40.10926,59.818684 40.14543,59.78678 40.175354,59.749435 C40.203438,59.714382 40.225647,59.675007 40.250793,59.63779 C40.316475,59.556023 40.381065,59.47337 40.447834,59.39249 C40.494705,59.335716 40.567406,59.35285 40.63182,59.34056 C40.70806,59.32601 40.783543,59.307537 40.858643,59.287933 C40.871193,59.28466 40.900436,59.265846 40.908188,59.2554 C40.962067,59.182827 41.01204,59.107437 41.063965,59.033455 L41.063965,59.033455" /><path fill="none" stroke="#000000" stroke-width="0.06mm" d="M41.7743,58.53396 C41.876175,58.41335 41.978058,58.29274 42.079933,58.172127 C42.160065,58.095078 42.24634,58.02395 42.320313,57.94097 C42.432457,57.815178 42.53544,57.681366 42.6372,57.547028 C42.651802,57.527752 42.660477,57.50437 42.668343,57.481506 C42.6782,57.452877 42.68369,57.422913 42.690098,57.393322 C42.715958,57.273872 42.731506,57.15193 42.765137,57.03443 C42.8451,56.75505 43.00171,56.485474 43.129074,56.231216 L43.129074,56.231216" /><path fill="none" stroke="#000000" stroke-width="0.06mm" d="M50.695168,60.444916 C51.17322,60.462692 51.553555,60.511192 51.97888,60.366604 L51.97888,60.366604" /><path fill="none" stroke="#000000" stroke-width="0.06mm" d="M52.16674,60.476242 C52.382458,60.367832 52.488,60.379913 52.749207,60.389347 C52.775757,60.39031 52.816525,60.407864 52.838394,60.42208 C52.969826,60.507534 53.08762,60.847206 53.112103,60.92016 C53.356796,61.64926 53.28971,61.635677 53.327175,62.482986 L53.327175,62.482986" /><path fill="none" stroke="#000000" stroke-width="0.06mm" d="M53.45046,62.29308 C53.469402,62.85665 53.452877,62.640358 53.615177,63.603615 C53.626045,63.668118 53.67284,63.769672 53.71314,63.82466 C53.836708,63.99327 53.99814,64.0815 54.16525,64.2225 C54.37862,64.40256 54.262035,64.37138 54.60986,64.53244 C54.72495,64.58573 54.84929,64.61622 54.969,64.658104 L54.969,64.658104" /><path fill="none" stroke="#000000" stroke-width="0.06mm" d="M50.94565,60.131668 C49.453712,59.728935 53.225155,60.733162 49.092197,59.79476 C48.929413,59.7578 48.786293,59.660973 48.634666,59.591156 C48.61866,59.583786 48.603592,59.574207 48.589684,59.56339 C48.462852,59.46474 48.471054,59.287006 48.40155,59.15661 C48.068058,58.530945 48.180176,58.86132 47.81207,58.30918 C47.47518,57.803867 47.467403,57.66637 47.274746,57.007294 C47.261837,56.963135 47.258366,56.9163 47.25795,56.870293 C47.25592,56.6462 47.26455,56.422134 47.267418,56.19805 C47.27576,55.54591 47.369045,54.98944 47.161407,54.379223 C47.07328,54.120235 46.962555,53.867332 46.826828,53.629807 C46.45456,52.97835 46.39489,52.76767 45.832565,52.5483 C45.66662,52.483566 45.20583,52.529655 45.192078,52.530254 C45.064884,52.53578 44.900665,52.583187 44.80989,52.67954 C44.76816,52.723835 44.735695,52.775562 44.71572,52.833454 C44.55337,53.303974 44.4172,53.783703 44.240906,54.24918 C44.189037,54.386124 44.092247,54.502262 44.03296,54.63616 C43.947296,54.829636 43.88227,55.03161 43.80693,55.229332 L43.80693,55.229332" /><path fill="none" stroke="#000000" stroke-width="0.06mm" d="M43.83824,55.370293 L43.41588,55.95254" /><path fill="none" stroke="#000000" stroke-width="0.06mm" d="M53.920116,46.035496 C53.913536,46.223183 53.90021,46.41075 53.90038,46.598553 C53.900566,46.801193 53.93998,46.757435 53.910343,46.91369 C53.83433,47.314438 53.74072,47.711895 53.672577,48.11406 C53.657722,48.20175 53.654034,48.29206 53.661785,48.380665 C53.67403,48.52068 53.708763,48.657806 53.73225,48.796375 L53.73225,48.796375" /><path fill="none" stroke="#000000" stroke-width="0.06mm" d="M54.309437,48.565704 C54.34485,48.670578 54.384804,48.774025 54.415672,48.880325 C54.42637,48.917156 54.42883,48.95592 54.4338,48.993954 C54.447735,49.100536 54.457375,49.20767 54.47239,49.314102 C54.51702,49.630547 54.53761,49.95188 54.61273,50.2625 C54.746426,50.81538 54.92075,51.35798 55.09741,51.89867 C55.25008,52.36596 55.248524,51.97006 55.320824,52.48764 C55.381104,53.0149 55.441387,53.542164 55.501667,54.069424 C55.51502,54.556755 55.479332,55.047913 55.541733,55.531418 C55.595104,55.944992 55.723087,56.346436 55.84691,56.744633 C55.944744,57.059254 56.06598,57.130524 56.198997,57.4009 C56.241875,57.488056 56.271454,57.58119 56.304592,57.672497 C56.336933,57.761612 56.32153,57.765198 56.364265,57.833237 C56.477177,58.012997 56.742058,58.04097 56.9137,58.10405 C57.08737,58.16787 57.19099,58.386887 57.28319,58.51027 L57.28319,58.51027" /><path fill="none" stroke="#000000" stroke-width="0.06mm" stroke-dasharray="0.3,0.1" d="M57.158665,58.84025 C57.472527,58.83063 57.786247,58.8126 58.100254,58.8114 C58.22123,58.810936 58.343983,58.834305 58.390743,58.955162 C58.471985,59.165142 58.53886,59.38086 58.628757,59.587284 C58.67535,59.694275 58.787067,59.849205 58.87749,59.93288 C59.097637,60.1366 59.392014,60.249294 59.678696,60.318142 C59.749622,60.335175 59.823254,60.338837 59.896046,60.34358 C60.19862,60.363277 60.502396,60.364685 60.80443,60.39143 C60.90287,60.40015 61.09858,60.419125 61.195232,60.505325 C61.255543,60.559113 61.29563,60.65228 61.312416,60.727028 C61.385452,61.052303 61.37501,61.351704 61.56371,61.6214 C61.60479,61.68012 61.65772,61.737766 61.7261,61.7646 C61.781124,61.78619 61.760677,61.77013 61.821457,61.78338 C61.84878,61.789337 61.90201,61.823067 61.91304,61.83604 C62.279938,62.26777 62.652187,62.69564 62.99789,63.144516 C63.043568,63.20383 63.23488,63.648655 63.428436,63.765167 C63.571426,63.851234 63.70952,63.748585 63.812073,63.64861 L63.812073,63.64861" /><path fill="none" stroke="#000000" stroke-width="0.06mm" stroke-dasharray="0.3,0.1" d="M54.62254,65.10521 C54.905415,64.98721 55.132576,64.74924 55.437016,64.67964 C55.627647,64.63607 55.824795,64.624664 56.01505,64.57947 C56.344227,64.50126 56.66471,64.38921 56.993607,64.30983 C57.064335,64.292755 57.13847,64.28577 57.211056,64.29077 C57.393745,64.303375 57.57491,64.33353 57.755737,64.36241 C57.96987,64.396614 58.06331,64.68942 58.274746,64.76333 C58.29962,64.77202 58.325363,64.78169 58.35171,64.781364 C58.96978,64.77368 59.587914,64.76287 60.20558,64.739334 C60.3378,64.7343 60.467823,64.69347 60.600117,64.69571 C60.888786,64.70059 61.17591,64.739 61.463806,64.76064 L61.463806,64.76064" /><path fill="none" stroke="#000000" stroke-width="0.06mm" d="M46.68643,46.523132 C46.577755,46.641647 46.48045,46.771698 46.360394,46.878674 C46.28793,46.94324 46.035057,47.06682 45.937702,47.202976 C45.848602,47.327583 45.790176,47.602417 45.75963,47.673187 C45.703636,47.802887 45.622814,47.92062 45.562576,48.0484 C45.51794,48.14308 45.492126,48.24608 45.445404,48.33975 C45.40799,48.414764 45.254475,48.71786 45.1398,48.83649 C45.02768,48.95248 44.6623,49.079536 44.63562,49.091766 L44.63562,49.091766" /><path fill="none" stroke="#000000" stroke-width="0.06mm" d="M46.65512,46.491806 C46.976635,45.83159 46.807533,46.090195 47.037838,45.774437 C47.071396,45.728424 47.10888,45.684967 47.13803,45.636044 C47.242435,45.460846 47.33806,45.28056 47.43807,45.102818 L47.43807,45.102818" /><path fill="none" stroke="#000000" stroke-width="0.06mm" d="M44.33817,48.684544 C44.18923,48.63546 44.038834,48.5906 43.891357,48.53729 C43.773315,48.49462 43.614796,48.227505 43.58763,48.19603 C43.540325,48.141224 43.455963,48.08255 43.389313,48.05391 C43.14379,47.9484 42.470917,47.83223 42.43223,47.824333 C42.303814,47.798134 42.304367,47.822388 42.20672,47.78037 C42.18363,47.770435 42.16156,47.758038 42.1405,47.744328 C42.045456,47.682453 41.956703,47.610737 41.85864,47.55378 C41.768364,47.501343 41.57789,47.44479 41.48101,47.438087 C40.78029,47.38961 41.18718,47.47713 40.390614,47.542866 C39.265366,47.63572 39.501072,47.642723 38.717834,47.4942 L38.717834,47.4942" /><path fill="none" stroke="#000000" stroke-width="0.06mm" d="M20.0,54.0 L20.0,54.0" /><path fill="none" stroke="#000000" stroke-width="0.06mm" d="M48.078598,44.58942 C48.708748,44.753548 49.04805,44.69296 49.83336,44.722755 L49.83336,44.722755" /><path fill="none" stroke="#000000" stroke-width="0.06mm" d="M49.91178,43.870083 C49.741386,43.36766 49.699898,43.004093 49.82565,42.4815 C49.879684,42.256943 49.989014,42.048573 50.04831,41.825348 C50.09089,41.66504 50.08721,41.49472 50.130318,41.334557 C50.280487,40.77651 50.509815,40.239452 50.627346,39.673634 C50.69385,39.353462 50.720024,38.516335 50.791153,38.01841 C50.818558,37.82657 50.85133,37.635536 50.88142,37.444096 C50.89279,37.23974 50.891895,37.034332 50.915535,36.83103 C50.950195,36.533024 51.044373,36.241814 51.0561,35.94203 C51.38851,27.441784 51.148163,34.70039 51.01741,32.854195 C51.013718,32.80205 51.02057,32.74958 51.026405,32.69763 C51.132957,31.749027 51.195797,30.794064 51.354553,29.852789 C51.447674,29.300701 51.810677,28.645575 51.996273,28.120182 C52.235546,27.442856 52.67008,26.309862 52.77656,25.459127 C52.815327,25.149448 52.819485,24.836412 52.840767,24.525043 C52.89328,23.756636 52.94389,22.988096 52.997948,22.219795 C53.006172,22.102861 53.020054,21.986359 53.02762,21.869377 C53.087337,20.945576 52.975395,22.217428 53.107803,21.103985 C53.121063,20.992493 53.110508,20.878056 53.13333,20.768124 C53.199177,20.451035 53.284702,20.138168 53.373047,19.826591 C53.38707,19.777134 53.41353,19.731762 53.43972,19.687527 C53.52143,19.558346 53.603134,19.429169 53.684845,19.299988 C53.698162,19.292946 53.70995,19.281395 53.724804,19.278866 C53.75537,19.273666 53.80123,19.297031 53.81744,19.320412 C53.993015,19.57367 54.173588,19.82449 54.327587,20.091415 C54.696068,20.730087 54.793304,21.208542 54.89113,21.94894 C54.914238,22.123844 54.90499,22.301542 54.915447,22.477657 C54.922703,22.599874 54.943607,22.721388 54.944252,22.843817 C54.945107,23.004976 54.921364,23.165537 54.91993,23.326693 C54.918846,23.448544 54.975765,23.551197 55.000423,23.668617 C55.00966,23.71259 55.016136,23.758348 55.011066,23.802994 C54.98199,24.058899 54.948986,24.314857 54.89832,24.567377 C54.76658,25.15651 54.634842,25.745642 54.5031,26.334774 C54.39527,26.60768 54.25278,26.869324 54.17961,27.153492 C54.02921,27.737621 54.100555,28.392414 54.07636,28.980328 C54.071182,29.106066 54.03068,29.228678 54.02542,29.354414 C54.003414,29.880438 54.11156,29.49929 54.111446,30.140303 C54.111416,30.328703 54.070934,30.514946 54.047066,30.70183 C54.031788,30.821434 53.989388,30.939163 53.994026,31.05965 C54.39693,37.50488 54.01698,30.341387 54.141323,36.394173 C54.146053,36.6244 54.23182,36.84843 54.234512,37.07869 C54.243416,37.840534 54.17629,38.601734 54.17603,39.36363 C54.175957,39.58462 54.23838,39.803173 54.233513,40.024117 C54.131226,44.66913 54.233917,39.080574 53.89688,42.345028 C53.861053,43.14515 53.825233,43.945267 53.78941,44.745384 C53.79354,44.843307 53.80735,44.941303 53.8018,45.039158 C53.773296,45.542095 53.725502,46.043755 53.68735,46.546055 L53.68735,46.546055" /></g>
<g>
<line fill="none" stroke="#111111" stroke-width="0.05mm" x1="20.00" y1="54.00" x2="25.93" y2="47.83" />
<line fill="none" stroke="#111111" stroke-width="0.05mm" x1="25.93" y1="47.83" x2="27.89" y2="47.17" />
<line fill="none" stroke="#5674b9" stroke-width="0.05mm" stroke-dasharray="0.4,0.2" x1="27.89" y1="47.17" x2="28.70" y2="47.14" />
<line fill="none" stroke="#5674b9" stroke-width="0.05mm" stroke-dasharray="0.4,0.2" x1="27.89" y1="47.17" x2="27.51" y2="47.25" />
<line fill="none" stroke="#00aeef" stroke-width="0.05mm" stroke-dasharray="0.4,0.2" x1="27.89" y1="47.17" x2="27.30" y2="43.03" />
<line fill="none" stroke="#00aeef" stroke-width="0.05mm" stroke-dasharray="0.4,0.2" x1="27.89" y1="47.17" x2="28.74" y2="49.47" />
<line fill="none" stroke="#111111" stroke-width="0.05mm" x1="27.89" y1="47.17" x2="31.43" y2="44.68" />
<line fill="none" stroke="#00aeef" stroke-width="0.05mm" stroke-dasharray="0.4,0.2" x1="31.43" y1="44.68" x2="31.33" y2="43.86" />
<line fill="none" stroke="#00aeef" stroke-width="0.05mm" stroke-dasharray="0.4,0.2" x1="31.43" y1="44.68" x2="32.53" y2="44.40" />
<line fill="none" stroke="#00aeef" stroke-width="0.05mm" stroke-dasharray="0.4,0.2" x1="31.43" y1="44.68" x2="29.82" y2="44.30" />
<line fill="none" stroke="#00aeef" stroke-width="0.05mm" stroke-dasharray="0.4,0.2" x1="31.43" y1="44.68" x2="29.81" y2="44.39" />
<line fill="none" stroke="#00aeef" stroke-width="0.05mm" stroke-dasharray="0.4,0.2" x1="31.43" y1="44.68" x2="32.01" y2="44.96" />
<line fill="none" stroke="#00aeef" stroke-width="0.05mm" stroke-dasharray="0.4,0.2" x1="31.43" y1="44.68" x2="35.26" y2="45.89" />
<line fill="none" stroke="#00aeef" stroke-width="0.05mm" stroke-dasharray="0.4,0.2" x1="31.43" y1="44.68" x2="34.03" y2="45.17" />
<line fill="none" stroke="#00aeef" stroke-width="0.05mm" stroke-dasharray="0.4,0.2" x1="31.43" y1="44.68" x2="36.49" y2="44.77" />
<line fill="none" stroke="#111111" stroke-width="0.05mm" x1="31.43" y1="44.68" x2="35.38" y2="46.21" />
<line fill="none" stroke="#5674b9" stroke-width="0.05mm" stroke-dasharray="0.4,0.2" x1="35.38" y1="46.21" x2="37.57" y2="46.35" />
<line fill="none" stroke="#5674b9" stroke-width="0.05mm" stroke-dasharray="0.4,0.2" x1="35.38" y1="46.21" x2="34.85" y2="46.47" />
<line fill="none" stroke="#5674b9" stroke-width="0.05mm" stroke-dasharray="0.4,0.2" x1="35.38" y1="46.21" x2="33.08" y2="46.26" />
<line fill="none" stroke="#00aeef" stroke-width="0.05mm" stroke-dasharray="0.4,0.2" x1="35.38" y1="46.21" x2="32.77" y2="45.85" />
<line fill="none" stroke="#5674b9" stroke-width="0.05mm" stroke-dasharray="0.4,0.2" x1="35.38" y1="46.21" x2="36.45" y2="36.17" />
<line fill="none" stroke="#00aeef" stroke-width="0.05mm" stroke-dasharray="0.4,0.2" x1="35.38" y1="46.21" x2="33.61" y2="61.03" />
<line fill="none" stroke="#5674b9" stroke-width="0.05mm" stroke-dasharray="0.4,0.2" x1="35.38" y1="46.21" x2="36.30" y2="34.25" />
<line fill="none" stroke="#5674b9" stroke-width="0.05mm" stroke-dasharray="0.4,0.2" x1="35.38" y1="46.21" x2="36.41" y2="35.88" />
<line fill="none" stroke="#00aeef" stroke-width="0.05mm" stroke-dasharray="0.4,0.2" x1="35.38" y1="46.21" x2="34.23" y2="47.88" />
<line fill="none" stroke="#111111" stroke-width="0.05mm" x1="35.38" y1="46.21" x2="36.69" y2="60.10" />
<line fill="none" stroke="#00aeef" stroke-width="0.05mm" stroke-dasharray="0.4,0.2" x1="36.69" y1="60.10" x2="37.36" y2="59.47" />
<line fill="none" stroke="#5674b9" stroke-width="0.05mm" stroke-dasharray="0.4,0.2" x1="36.69" y1="60.10" x2="38.20" y2="60.01" />
<line fill="none" stroke="#5674b9" stroke-width="0.05mm" stroke-dasharray="0.4,0.2" x1="36.69" y1="60.10" x2="38.44" y2="59.75" />
<line fill="none" stroke="#5674b9" stroke-width="0.05mm" stroke-dasharray="0.4,0.2" x1="36.69" y1="60.10" x2="35.31" y2="59.57" />
<line fill="none" stroke="#00aeef" stroke-width="0.05mm" stroke-dasharray="0.4,0.2" x1="36.69" y1="60.10" x2="33.63" y2="59.42" />
<line fill="none" stroke="#00aeef" stroke-width="0.05mm" stroke-dasharray="0.4,0.2" x1="36.69" y1="60.10" x2="33.54" y2="58.12" />
<line fill="none" stroke="#00aeef" stroke-width="0.05mm" stroke-dasharray="0.4,0.2" x1="36.69" y1="60.10" x2="29.62" y2="56.48" />
<line fill="none" stroke="#00aeef" stroke-width="0.05mm" stroke-dasharray="0.4,0.2" x1="36.69" y1="60.10" x2="33.12" y2="55.74" />
<line fill="none" stroke="#00aeef" stroke-width="0.05mm" stroke-dasharray="0.4,0.2" x1="36.69" y1="60.10" x2="34.65" y2="57.03" />
<line fill="none" stroke="#111111" stroke-width="0.05mm" x1="36.69" y1="60.10" x2="40.85" y2="57.84" />
<line fill="none" stroke="#111111" stroke-width="0.05mm" x1="40.85" y1="57.84" x2="44.96" y2="50.04" />
<line fill="none" stroke="#5674b9" stroke-width="0.05mm" stroke-dasharray="0.4,0.2" x1="44.96" y1="50.04" x2="46.27" y2="50.65" />
<line fill="none" stroke="#111111" stroke-width="0.05mm" x1="44.96" y1="50.04" x2="51.22" y2="56.77" />
<line fill="none" stroke="#00aeef" stroke-width="0.05mm" stroke-dasharray="0.4,0.2" x1="51.22" y1="56.77" x2="52.14" y2="56.42" />
<line fill="none" stroke="#00aeef" stroke-width="0.05mm" stroke-dasharray="0.4,0.2" x1="51.22" y1="56.77" x2="51.27" y2="55.85" />
<line fill="none" stroke="#00aeef" stroke-width="0.05mm" stroke-dasharray="0.4,0.2" x1="51.22" y1="56.77" x2="48.95" y2="56.67" />
<line fill="none" stroke="#5674b9" stroke-width="0.05mm" stroke-dasharray="0.4,0.2" x1="51.22" y1="56.77" x2="47.11" y2="56.72" />
<line fill="none" stroke="#5674b9" stroke-width="0.05mm" stroke-dasharray="0.4,0.2" x1="51.22" y1="56.77" x2="49.15" y2="56.73" />
<line fill="none" stroke="#5674b9" stroke-width="0.05mm" stroke-dasharray="0.4,0.2" x1="51.22" y1="56.77" x2="51.29" y2="56.79" />
<line fill="none" stroke="#5674b9" stroke-width="0.05mm" stroke-dasharray="0.4,0.2" x1="51.22" y1="56.77" x2="53.33" y2="57.68" />
<line fill="none" stroke="#5674b9" stroke-width="0.05mm" stroke-dasharray="0.4,0.2" x1="51.22" y1="56.77" x2="56.21" y2="59.01" />
<line fill="none" stroke="#5674b9" stroke-width="0.05mm" stroke-dasharray="0.4,0.2" x1="51.22" y1="56.77" x2="56.03" y2="58.64" />
<line fill="none" stroke="#5674b9" stroke-width="0.05mm" stroke-dasharray="0.4,0.2" x1="51.22" y1="56.77" x2="61.84" y2="63.07" />
<line fill="none" stroke="#5674b9" stroke-width="0.05mm" stroke-dasharray="0.4,0.2" x1="51.22" y1="56.77" x2="54.82" y2="57.46" />
<line fill="none" stroke="#00aeef" stroke-width="0.05mm" stroke-dasharray="0.4,0.2" x1="51.22" y1="56.77" x2="53.82" y2="56.95" />
<line fill="none" stroke="#5674b9" stroke-width="0.05mm" stroke-dasharray="0.4,0.2" x1="51.22" y1="56.77" x2="49.37" y2="44.80" />
<line fill="none" stroke="#5674b9" stroke-width="0.05mm" stroke-dasharray="0.4,0.2" x1="51.22" y1="56.77" x2="52.70" y2="46.94" />
<line fill="none" stroke="#00aeef" stroke-width="0.05mm" stroke-dasharray="0.4,0.2" x1="51.22" y1="56.77" x2="53.60" y2="19.00" />
<line fill="none" stroke="#5674b9" stroke-width="0.05mm" stroke-dasharray="0.4,0.2" x1="51.22" y1="56.77" x2="51.44" y2="60.30" />
<line fill="none" stroke="#5674b9" stroke-width="0.05mm" stroke-dasharray="0.4,0.2" x1="51.22" y1="56.77" x2="52.59" y2="60.58" />
<line fill="none" stroke="#5674b9" stroke-width="0.05mm" stroke-dasharray="0.4,0.2" x1="51.22" y1="56.77" x2="55.15" y2="64.23" />
<line fill="none" stroke="#5674b9" stroke-width="0.05mm" stroke-dasharray="0.4,0.2" x1="51.22" y1="56.77" x2="56.22" y2="58.32" />
<line fill="none" stroke="#5674b9" stroke-width="0.05mm" stroke-dasharray="0.4,0.2" x1="51.22" y1="56.77" x2="56.11" y2="58.45" />
<line fill="none" stroke="#111111" stroke-width="0.05mm" x1="51.22" y1="56.77" x2="58.88" y2="60.40" />
</g>
<g>
<circle cx="20.00" cy="54.00" r="0.1" fill="#111111" />
<circle cx="25.93" cy="47.83" r="0.1" fill="#111111" />
<circle cx="27.89" cy="47.17" r="0.1" fill="#111111" />
<circle cx="31.43" cy="44.68" r="0.1" fill="#111111" />
<circle cx="35.38" cy="46.21" r="0.1" fill="#111111" />
<circle cx="36.69" cy="60.10" r="0.1" fill="#111111" />
<circle cx="40.85" cy="57.84" r="0.1" fill="#111111" />
<circle cx="44.96" cy="50.04" r="0.1" fill="#111111" />
<circle cx="51.22" cy="56.77" r="0.1" fill="#111111" />
<circle cx="58.88" cy="60.40" r="0.1" fill="#111111" />
</g>
<g>
<text x="20.20" y="54.00" font-size=".2mm" fill="#000000">0</text>
<text x="26.13" y="47.83" font-size=".2mm" fill="#000000">1</text>
<text x="28.09" y="47.17" font-size=".2mm" fill="#000000">2</text>
<text x="31.63" y="44.68" font-size=".2mm" fill="#000000">3</text>
<text x="35.58" y="46.21" font-size=".2mm" fill="#000000">4</text>
<text x="36.89" y="60.10" font-size=".2mm" fill="#000000">5</text>
<text x="41.05" y="57.84" font-size=".2mm" fill="#000000">6</text>
<text x="45.16" y="50.04" font-size=".2mm" fill="#000000">7</text>
<text x="51.42" y="56.77" font-size=".2mm" fill="#000000">8</text>
<text x="59.08" y="60.40" font-size=".2mm" fill="#000000">9</text>
</g>
<g>
</g>
</g>
</svg>