  999
DXF created by TopoDroid v. 3.1.4
  0
SECTION
  2
HEADER
  9
$ACADVER
  1
AC1009
  9
$INSBASE
  10
0.00
  20
0.00
  30
0.00
  9
$EXTMIN
  10
-559.29
  20
-2436.23
  30
0.00
  9
$EXTMAX
  10
127.55
  20
-86.17
  30
0.00
  0
ENDSEC
  0
SECTION
  2
TABLES
  0
TABLE
  2
LTYPE
  70
1
  0
LTYPE
  2
CONTINUOUS
  70
64
  3
Solid line
  72
65
  73
0
  40
0.0
  0
ENDTAB
  0
TABLE
  2
LAYER
  70
36
  0
LAYER
  2
LEG
  70
0
  62
1
  6
CONTINUOUS
  0
LAYER
  2
SPLAY
  70
0
  62
2
  6
CONTINUOUS
  0
LAYER
  2
STATION
  70
0
  62
3
  6
CONTINUOUS
  0
LAYER
  2
LINE
  70
0
  62
4
  6
CONTINUOUS
  0
LAYER
  2
POINT
  70
0
  62
5
  6
CONTINUOUS
  0
LAYER
  2
REF
  70
0
  62
6
  6
CONTINUOUS
  0
LAYER
  2
L_u-user
  70
0
  62
7
  6
CONTINUOUS
  0
LAYER
  2
L_wall
  70
0
  62
8
  6
CONTINUOUS
  0
LAYER
  2
L_arrow
  70
0
  62
9
  6
CONTINUOUS
  0
LAYER
  2
L_border
  70
0
  62
10
  6
CONTINUOUS
  0
LAYER
  2
L_ceiling-meander
  70
0
  62
11
  6
CONTINUOUS
  0
LAYER
  2
L_chimney
  70
0
  62
12
  6
CONTINUOUS
  0
LAYER
  2
L_contour
  70
0
  62
13
  6
CONTINUOUS
  0
LAYER
  2
L_fault
  70
0
  62
14
  6
CONTINUOUS
  0
LAYER
  2
L_floor-meander
  70
0
  62
15
  6
CONTINUOUS
  0
LAYER
  2
L_overhang
  70
0
  62
16
  6
CONTINUOUS
  0
LAYER
  2
L_pit
  70
0
  62
17
  6
CONTINUOUS
  0
LAYER
  2
L_wall-presumed
  70
0
  62
18
  6
CONTINUOUS
  0
LAYER
  2
L_rock-border
  70
0
  62
19
  6
CONTINUOUS
  0
LAYER
  2
L_section
  70
0
  62
20
  6
CONTINUOUS
  0
LAYER
  2
L_slope
  70
0
  62
21
  6
CONTINUOUS
  0
LAYER
  2
L_wall-blocks
  70
0
  62
22
  6
CONTINUOUS
  0
LAYER
  2
L_wall-clay
  70
0
  62
23
  6
CONTINUOUS
  0
LAYER
  2
L_wall-debris
  70
0
  62
24
  6
CONTINUOUS
  0
LAYER
  2
L_wall-ice
  70
0
  62
25
  6
CONTINUOUS
  0
LAYER
  2
L_wall-sand
  70
0
  62
26
  6
CONTINUOUS
  0
LAYER
  2
L_water-flow
  70
0
  62
27
  6
CONTINUOUS
  0
LAYER
  2
A_u-user
  70
0
  62
28
  6
CONTINUOUS
  0
LAYER
  2
A_water
  70
0
  62
29
  6
CONTINUOUS
  0
LAYER
  2
A_blocks
  70
0
  62
30
  6
CONTINUOUS
  0
LAYER
  2
A_clay
  70
0
  62
31
  6
CONTINUOUS
  0
LAYER
  2
A_debris
  70
0
  62
32
  6
CONTINUOUS
  0
LAYER
  2
A_ice
  70
0
  62
33
  6
CONTINUOUS
  0
LAYER
  2
A_pebbles
  70
0
  62
34
  6
CONTINUOUS
  0
LAYER
  2
A_sand
  70
0
  62
35
  6
CONTINUOUS
  0
LAYER
  2
A_snow
  70
0
  62
36
  6
CONTINUOUS
  0
ENDTAB
  0
TABLE
  2
VIEW
  70
0
  0
ENDTAB
  0
TABLE
  2
UCS
  70
0
  0
ENDTAB
  0
TABLE
  2
APPID
  70
1
  0
APPID
  2
ACAD
  70
0
  0
ENDTAB
  0
ENDSEC
  0
SECTION
  2
BLOCKS
  0
BLOCK
  8
POINT
  2
P_u-user
  70
64
  10
0.0
  20
0.0
  30
0.0
  0
CIRCLE
  8
POINT
  10
0.00
  20
-0.00
  30
0.00
  40
0.30
  0
ENDBLK
  0
BLOCK
  8
POINT
  2
P_label
  70
64
  10
0.0
  20
0.0
  30
0.0
  0
LINE
  8
POINT
  10
0.00
  20
-0.15
  30
0.00
  11
0.00
  21
0.30
  31
0.00
  0
LINE
  8
POINT
  10
0.00
  20
0.30
  30
0.00
  11
-0.15
  21
0.30
  31
0.00
  0
LINE
  8
POINT
  10
-0.15
  20
0.30
  30
0.00
  11
0.15
  21
0.30
  31
0.00
  0
ENDBLK
  0
BLOCK
  8
POINT
  2
P_air-draught
  70
64
  10
0.0
  20
0.0
  30
0.0
  0
LINE
  8
POINT
  10
-0.20
  20
-0.35
  30
0.00
  11
0.00
  21
-0.15
  31
0.00
  0
LINE
  8
POINT
  10
0.00
  20
-0.15
  30
0.00
  11
0.00
  21
0.50
  31
0.00
  0
LINE
  8
POINT
  10
0.00
  20
0.50
  30
0.00
  11
0.20
  21
0.30
  31
0.00
  0
LINE
  8
POINT
  10
0.00
  20
0.50
  30
0.00
  11
-0.20
  21
0.30
  31
0.00
  0
LINE
  8
POINT
  10
-0.20
  20
-0.20
  30
0.00
  11
0.00
  21
-0.00
  31
0.00
  0
ENDBLK
  0
BLOCK
  8
POINT
  2
P_anchor
  70
64
  10
0.0
  20
0.0
  30
0.0
  0
LINE
  8
POINT
  10
0.25
  20
-0.00
  30
0.00
  11
-0.25
  21
-0.00
  31
0.00
  0
CIRCLE
  8
POINT
  10
0.00
  20
-0.00
  30
0.00
  40
0.25
  0
ENDBLK
  0
BLOCK
  8
POINT
  2
P_aragonite
  70
64
  10
0.0
  20
0.0
  30
0.0
  0
LINE
  8
POINT
  10
0.00
  20
0.25
  30
0.00
  11
0.00
  21
-0.35
  31
0.00
  0
LINE
  8
POINT
  10
-0.10
  20
0.35
  30
0.00
  11
0.00
  21
0.25
  31
0.00
  0
LINE
  8
POINT
  10
0.00
  20
0.25
  30
0.00
  11
0.10
  21
0.35
  31
0.00
  0
LINE
  8
POINT
  10
-0.15
  20
0.20
  30
0.00
  11
0.00
  21
0.05
  31
0.00
  0
LINE
  8
POINT
  10
0.00
  20
0.05
  30
0.00
  11
0.15
  21
0.20
  31
0.00
  0
ENDBLK
  0
BLOCK
  8
POINT
  2
P_archeo-material
  70
64
  10
0.0
  20
0.0
  30
0.0
  0
LINE
  8
POINT
  10
-0.17
  20
-0.17
  30
0.00
  11
0.00
  21
-0.00
  31
0.00
  0
LINE
  8
POINT
  10
-0.17
  20
0.17
  30
0.00
  11
0.00
  21
-0.00
  31
0.00
  0
LINE
  8
POINT
  10
0.00
  20
-0.00
  30
0.00
  11
0.25
  21
-0.00
  31
0.00
  0
CIRCLE
  8
POINT
  10
0.00
  20
-0.00
  30
0.00
  40
0.25
  0
ENDBLK
  0
BLOCK
  8
POINT
  2
P_blocks
  70
64
  10
0.0
  20
0.0
  30
0.0
  0
LINE
  8
POINT
  10
-0.35
  20
-0.20
  30
0.00
  11
0.40
  21
-0.25
  31
0.00
  0
LINE
  8
POINT
  10
0.40
  20
-0.25
  30
0.00
  11
0.35
  21
0.25
  31
0.00
  0
LINE
  8
POINT
  10
0.35
  20
0.25
  30
0.00
  11
-0.25
  21
0.30
  31
0.00
  0
LINE
  8
POINT
  10
-0.25
  20
0.30
  30
0.00
  11
-0.35
  21
0.20
  31
0.00
  0
LINE
  8
POINT
  10
-0.35
  20
0.20
  30
0.00
  11
-0.35
  21
-0.20
  31
0.00
  0
LINE
  8
POINT
  10
-0.35
  20
-0.20
  30
0.00
  11
-0.30
  21
-0.10
  31
0.00
  0
LINE
  8
POINT
  10
-0.30
  20
-0.10
  30
0.00
  11
-0.25
  21
0.10
  31
0.00
  0
LINE
  8
POINT
  10
-0.25
  20
0.10
  30
0.00
  11
-0.20
  21
0.20
  31
0.00
  0
LINE
  8
POINT
  10
-0.20
  20
0.20
  30
0.00
  11
0.25
  21
0.15
  31
0.00
  0
LINE
  8
POINT
  10
0.25
  20
0.15
  30
0.00
  11
0.35
  21
0.25
  31
0.00
  0
LINE
  8
POINT
  10
-0.20
  20
0.20
  30
0.00
  11
-0.25
  21
0.30
  31
0.00
  0
ENDBLK
  0
BLOCK
  8
POINT
  2
P_breakdown-choke
  70
64
  10
0.0
  20
0.0
  30
0.0
  0
LINE
  8
POINT
  10
-0.20
  20
-0.20
  30
0.00
  11
0.20
  21
0.20
  31
0.00
  0
LINE
  8
POINT
  10
-0.20
  20
0.20
  30
0.00
  11
0.20
  21
-0.20
  31
0.00
  0
ENDBLK
  0
BLOCK
  8
POINT
  2
P_clay
  70
64
  10
0.0
  20
0.0
  30
0.0
  0
ARC
  8
POINT
  10
-0.15
  20
-0.00
  30
0.00
  40
0.15
  50
90.00
  51
180.00
  0
ARC
  8
POINT
  10
-0.15
  20
-0.00
  30
0.00
  40
0.15
  50
0.00
  51
90.00
  0
ARC
  8
POINT
  10
0.15
  20
-0.00
  30
0.00
  40
0.15
  50
180.00
  51
270.00
  0
ARC
  8
POINT
  10
0.15
  20
-0.00
  30
0.00
  40
0.15
  50
270.00
  51
360.00
  0
ENDBLK
  0
BLOCK
  8
POINT
  2
P_continuation
  70
64
  10
0.0
  20
0.0
  30
0.0
  0
LINE
  8
POINT
  10
0.00
  20
-0.15
  30
0.00
  11
0.00
  21
-0.00
  31
0.00
  0
ARC
  8
POINT
  10
0.10
  20
-0.00
  30
0.00
  40
0.10
  50
90.00
  51
180.00
  0
ARC
  8
POINT
  10
0.00
  20
0.15
  30
0.00
  40
0.10
  50
0.00
  51
90.00
  0
ARC
  8
POINT
  10
-0.15
  20
0.30
  30
0.00
  40
0.15
  50
270.00
  51
360.00
  0
LINE
  8
POINT
  10
0.00
  20
-0.35
  30
0.00
  11
0.00
  21
-0.25
  31
0.00
  0
ENDBLK
  0
BLOCK
  8
POINT
  2
P_crystal
  70
64
  10
0.0
  20
0.0
  30
0.0
  0
LINE
  8
POINT
  10
-0.25
  20
-0.00
  30
0.00
  11
0.25
  21
-0.00
  31
0.00
  0
LINE
  8
POINT
  10
0.00
  20
0.25
  30
0.00
  11
0.00
  21
-0.25
  31
0.00
  0
LINE
  8
POINT
  10
0.00
  20
-0.25
  30
0.00
  11
0.25
  21
-0.00
  31
0.00
  0
LINE
  8
POINT
  10
0.25
  20
-0.00
  30
0.00
  11
0.00
  21
0.25
  31
0.00
  0
LINE
  8
POINT
  10
0.00
  20
0.25
  30
0.00
  11
-0.25
  21
-0.00
  31
0.00
  0
LINE
  8
POINT
  10
-0.25
  20
-0.00
  30
0.00
  11
0.00
  21
-0.25
  31
0.00
  0
ENDBLK
  0
BLOCK
  8
POINT
  2
P_curtain
  70
64
  10
0.0
  20
0.0
  30
0.0
  0
LINE
  8
POINT
  10
-0.20
  20
0.20
  30
0.00
  11
0.00
  21
-0.00
  31
0.00
  0
LINE
  8
POINT
  10
0.00
  20
-0.00
  30
0.00
  11
0.20
  21
0.20
  31
0.00
  0
LINE
  8
POINT
  10
0.00
  20
-0.00
  30
0.00
  11
0.00
  21
-0.10
  31
0.00
  0
ARC
  8
POINT
  10
0.00
  20
-0.20
  30
0.00
  40
0.10
  50
90.00
  51
180.00
  0
ARC
  8
POINT
  10
0.00
  20
-0.20
  30
0.00
  40
0.10
  50
180.00
  51
270.00
  0
LINE
  8
POINT
  10
0.00
  20
-0.30
  30
0.00
  11
0.00
  21
-0.40
  31
0.00
  0
ENDBLK
  0
BLOCK
  8
POINT
  2
P_u-danger
  70
64
  10
0.0
  20
0.0
  30
0.0
  0
LINE
  8
POINT
  10
0.00
  20
-0.00
  30
0.00
  11
0.10
  21
0.40
  31
0.00
  0
LINE
  8
POINT
  10
0.10
  20
0.40
  30
0.00
  11
-0.10
  21
0.40
  31
0.00
  0
LINE
  8
POINT
  10
-0.10
  20
0.40
  30
0.00
  11
0.00
  21
-0.00
  31
0.00
  0
CIRCLE
  8
POINT
  10
0.00
  20
-0.20
  30
0.00
  40
0.10
  0
ENDBLK
  0
BLOCK
  8
POINT
  2
P_debris
  70
64
  10
0.0
  20
0.0
  30
0.0
  0
LINE
  8
POINT
  10
0.00
  20
-0.00
  30
0.00
  11
0.20
  21
-0.05
  31
0.00
  0
LINE
  8
POINT
  10
0.20
  20
-0.05
  30
0.00
  11
0.10
  21
0.15
  31
0.00
  0
LINE
  8
POINT
  10
0.10
  20
0.15
  30
0.00
  11
0.00
  21
-0.00
  31
0.00
  0
LINE
  8
POINT
  10
0.00
  20
-0.00
  30
0.00
  11
-0.20
  21
-0.00
  31
0.00
  0
LINE
  8
POINT
  10
-0.20
  20
-0.00
  30
0.00
  11
-0.10
  21
0.20
  31
0.00
  0
LINE
  8
POINT
  10
-0.10
  20
0.20
  30
0.00
  11
0.00
  21
-0.00
  31
0.00
  0
ENDBLK
  0
BLOCK
  8
POINT
  2
P_dig
  70
64
  10
0.0
  20
0.0
  30
0.0
  0
LINE
  8
POINT
  10
-0.25
  20
0.10
  30
0.00
  11
-0.05
  21
0.30
  31
0.00
  0
LINE
  8
POINT
  10
-0.15
  20
0.20
  30
0.00
  11
0.20
  21
-0.15
  31
0.00
  0
LINE
  8
POINT
  10
0.25
  20
0.10
  30
0.00
  11
0.05
  21
0.30
  31
0.00
  0
LINE
  8
POINT
  10
0.15
  20
0.20
  30
0.00
  11
-0.20
  21
-0.15
  31
0.00
  0
ENDBLK
  0
BLOCK
  8
POINT
  2
P_disc
  70
64
  10
0.0
  20
0.0
  30
0.0
  0
CIRCLE
  8
POINT
  10
0.00
  20
0.15
  30
0.00
  40
0.15
  0
LINE
  8
POINT
  10
-0.10
  20
-0.15
  30
0.00
  11
0.00
  21
-0.00
  31
0.00
  0
LINE
  8
POINT
  10
0.00
  20
-0.00
  30
0.00
  11
0.10
  21
-0.15
  31
0.00
  0
ENDBLK
  0
BLOCK
  8
POINT
  2
P_entrance
  70
64
  10
0.0
  20
0.0
  30
0.0
  0
LINE
  8
POINT
  10
0.00
  20
0.30
  30
0.00
  11
-0.15
  21
-0.15
  31
0.00
  0
LINE
  8
POINT
  10
-0.15
  20
-0.15
  30
0.00
  11
0.15
  21
-0.15
  31
0.00
  0
LINE
  8
POINT
  10
0.15
  20
-0.15
  30
0.00
  11
0.00
  21
0.30
  31
0.00
  0
ENDBLK
  0
BLOCK
  8
POINT
  2
P_flowstone
  70
64
  10
0.0
  20
0.0
  30
0.0
  0
LINE
  8
POINT
  10
-0.30
  20
0.10
  30
0.00
  11
-0.05
  21
0.10
  31
0.00
  0
LINE
  8
POINT
  10
0.10
  20
0.10
  30
0.00
  11
0.35
  21
0.10
  31
0.00
  0
LINE
  8
POINT
  10
-0.15
  20
-0.10
  30
0.00
  11
0.15
  21
-0.10
  31
0.00
  0
ENDBLK
  0
BLOCK
  8
POINT
  2
P_flute
  70
64
  10
0.0
  20
0.0
  30
0.0
  0
LINE
  8
POINT
  10
-0.30
  20
-0.00
  30
0.00
  11
0.30
  21
-0.00
  31
0.00
  0
ARC
  8
POINT
  10
0.00
  20
-0.00
  30
0.00
  40
0.15
  50
90.00
  51
180.00
  0
ARC
  8
POINT
  10
0.00
  20
-0.00
  30
0.00
  40
0.15
  50
0.00
  51
90.00
  0
ENDBLK
  0
BLOCK
  8
POINT
  2
P_gradient
  70
64
  10
0.0
  20
0.0
  30
0.0
  0
LINE
  8
POINT
  10
0.00
  20
-0.40
  30
0.00
  11
0.00
  21
0.20
  31
0.00
  0
LINE
  8
POINT
  10
0.00
  20
0.20
  30
0.00
  11
-0.10
  21
0.10
  31
0.00
  0
LINE
  8
POINT
  10
-0.10
  20
0.10
  30
0.00
  11
0.10
  21
0.10
  31
0.00
  0
LINE
  8
POINT
  10
0.10
  20
0.10
  30
0.00
  11
0.00
  21
0.20
  31
0.00
  0
ENDBLK
  0
BLOCK
  8
POINT
  2
P_guano
  70
64
  10
0.0
  20
0.0
  30
0.0
  0
ARC
  8
POINT
  10
-0.12
  20
-0.00
  30
0.00
  40
0.12
  50
0.00
  51
180.00
  0
LINE
  8
POINT
  10
0.00
  20
-0.00
  30
0.00
  11
0.00
  21
-0.30
  31
0.00
  0
ARC
  8
POINT
  10
0.12
  20
-0.00
  30
0.00
  40
0.12
  50
0.00
  51
180.00
  0
ENDBLK
  0
BLOCK
  8
POINT
  2
P_gypsum
  70
64
  10
0.0
  20
0.0
  30
0.0
  0
LINE
  8
POINT
  10
-0.25
  20
-0.00
  30
0.00
  11
0.00
  21
0.25
  31
0.00
  0
LINE
  8
POINT
  10
0.00
  20
0.25
  30
0.00
  11
0.00
  21
-0.25
  31
0.00
  0
LINE
  8
POINT
  10
0.00
  20
-0.25
  30
0.00
  11
0.25
  21
-0.00
  31
0.00
  0
LINE
  8
POINT
  10
0.25
  20
-0.00
  30
0.00
  11
-0.25
  21
-0.00
  31
0.00
  0
ENDBLK
  0
BLOCK
  8
POINT
  2
P_helictite
  70
64
  10
0.0
  20
0.0
  30
0.0
  0
LINE
  8
POINT
  10
0.00
  20
0.35
  30
0.00
  11
0.00
  21
-0.35
  31
0.00
  0
LINE
  8
POINT
  10
-0.15
  20
0.25
  30
0.00
  11
-0.15
  21
-0.00
  31
0.00
  0
LINE
  8
POINT
  10
-0.15
  20
-0.00
  30
0.00
  11
0.15
  21
-0.00
  31
0.00
  0
LINE
  8
POINT
  10
0.15
  20
-0.00
  30
0.00
  11
0.15
  21
-0.25
  31
0.00
  0
ENDBLK
  0
BLOCK
  8
POINT
  2
P_ice
  70
64
  10
0.0
  20
0.0
  30
0.0
  0
LINE
  8
POINT
  10
-0.25
  20
-0.00
  30
0.00
  11
0.25
  21
-0.00
  31
0.00
  0
LINE
  8
POINT
  10
0.00
  20
0.25
  30
0.00
  11
0.00
  21
-0.25
  31
0.00
  0
ENDBLK
  0
BLOCK
  8
POINT
  2
P_low-end
  70
64
  10
0.0
  20
0.0
  30
0.0
  0
LINE
  8
POINT
  10
-0.30
  20
0.10
  30
0.00
  11
0.30
  21
0.10
  31
0.00
  0
LINE
  8
POINT
  10
-0.30
  20
-0.10
  30
0.00
  11
0.30
  21
-0.10
  31
0.00
  0
ENDBLK
  0
BLOCK
  8
POINT
  2
P_moonmilk
  70
64
  10
0.0
  20
0.0
  30
0.0
  0
ARC
  8
POINT
  10
-0.28
  20
-0.05
  30
0.00
  40
0.12
  50
0.00
  51
180.00
  0
ARC
  8
POINT
  10
-0.03
  20
-0.05
  30
0.00
  40
0.12
  50
0.00
  51
180.00
  0
ARC
  8
POINT
  10
0.23
  20
-0.05
  30
0.00
  40
0.12
  50
0.00
  51
180.00
  0
ENDBLK
  0
BLOCK
  8
POINT
  2
P_narrow-end
  70
64
  10
0.0
  20
0.0
  30
0.0
  0
LINE
  8
POINT
  10
-0.10
  20
0.30
  30
0.00
  11
-0.10
  21
-0.30
  31
0.00
  0
LINE
  8
POINT
  10
0.10
  20
0.30
  30
0.00
  11
0.10
  21
-0.30
  31
0.00
  0
ENDBLK
  0
BLOCK
  8
POINT
  2
P_paleo-material
  70
64
  10
0.0
  20
0.0
  30
0.0
  0
CIRCLE
  8
POINT
  10
-0.25
  20
-0.10
  30
0.00
  40
0.05
  0
CIRCLE
  8
POINT
  10
-0.20
  20
-0.20
  30
0.00
  40
0.05
  0
CIRCLE
  8
POINT
  10
0.20
  20
0.20
  30
0.00
  40
0.05
  0
CIRCLE
  8
POINT
  10
0.25
  20
0.10
  30
0.00
  40
0.05
  0
LINE
  8
POINT
  10
-0.21
  20
-0.09
  30
0.00
  11
0.17
  21
0.17
  31
0.00
  0
LINE
  8
POINT
  10
0.21
  20
0.09
  30
0.00
  11
-0.17
  21
-0.17
  31
0.00
  0
ENDBLK
  0
BLOCK
  8
POINT
  2
P_paleoflow
  70
64
  10
0.0
  20
0.0
  30
0.0
  0
LINE
  8
POINT
  10
0.00
  20
-0.25
  30
0.00
  11
0.00
  21
0.35
  31
0.00
  0
LINE
  8
POINT
  10
0.00
  20
0.35
  30
0.00
  11
0.10
  21
0.25
  31
0.00
  0
LINE
  8
POINT
  10
0.00
  20
0.35
  30
0.00
  11
-0.10
  21
0.25
  31
0.00
  0
ARC
  8
POINT
  10
0.00
  20
-0.00
  30
0.00
  40
0.15
  50
90.00
  51
180.00
  0
ARC
  8
POINT
  10
0.00
  20
-0.00
  30
0.00
  40
0.15
  50
0.00
  51
90.00
  0
ENDBLK
  0
BLOCK
  8
POINT
  2
P_pebbles
  70
64
  10
0.0
  20
0.0
  30
0.0
  0
CIRCLE
  8
POINT
  10
-0.15
  20
-0.05
  30
0.00
  40
0.10
  0
CIRCLE
  8
POINT
  10
0.20
  20
-0.15
  30
0.00
  40
0.10
  0
CIRCLE
  8
POINT
  10
0.15
  20
0.15
  30
0.00
  40
0.10
  0
ENDBLK
  0
BLOCK
  8
POINT
  2
P_pendant
  70
64
  10
0.0
  20
0.0
  30
0.0
  0
ARC
  8
POINT
  10
-0.20
  20
0.20
  30
0.00
  40
0.10
  50
90.00
  51
270.00
  0
ARC
  8
POINT
  10
0.00
  20
0.10
  30
0.00
  40
0.20
  50
180.00
  51
270.00
  0
ARC
  8
POINT
  10
0.20
  20
-0.30
  30
0.00
  40
0.20
  50
90.00
  51
180.00
  0
ARC
  8
POINT
  10
0.20
  20
0.20
  30
0.00
  40
0.10
  50
90.00
  51
270.00
  0
ENDBLK
  0
BLOCK
  8
POINT
  2
P_pillar
  70
64
  10
0.0
  20
0.0
  30
0.0
  0
LINE
  8
POINT
  10
-0.15
  20
0.35
  30
0.00
  11
0.00
  21
0.20
  31
0.00
  0
LINE
  8
POINT
  10
0.00
  20
0.20
  30
0.00
  11
0.00
  21
-0.20
  31
0.00
  0
LINE
  8
POINT
  10
0.00
  20
-0.20
  30
0.00
  11
-0.15
  21
-0.35
  31
0.00
  0
LINE
  8
POINT
  10
0.00
  20
-0.20
  30
0.00
  11
0.15
  21
-0.35
  31
0.00
  0
LINE
  8
POINT
  10
0.00
  20
0.20
  30
0.00
  11
0.15
  21
0.35
  31
0.00
  0
ENDBLK
  0
BLOCK
  8
POINT
  2
P_popcorn
  70
64
  10
0.0
  20
0.0
  30
0.0
  0
LINE
  8
POINT
  10
-0.35
  20
-0.20
  30
0.00
  11
0.35
  21
-0.20
  31
0.00
  0
LINE
  8
POINT
  10
-0.30
  20
-0.20
  30
0.00
  11
-0.30
  21
0.05
  31
0.00
  0
CIRCLE
  8
POINT
  10
-0.30
  20
0.10
  30
0.00
  40
0.05
  0
LINE
  8
POINT
  10
0.00
  20
-0.20
  30
0.00
  11
0.00
  21
0.05
  31
0.00
  0
CIRCLE
  8
POINT
  10
0.00
  20
0.10
  30
0.00
  40
0.05
  0
LINE
  8
POINT
  10
0.30
  20
-0.20
  30
0.00
  11
0.30
  21
0.05
  31
0.00
  0
CIRCLE
  8
POINT
  10
0.30
  20
0.10
  30
0.00
  40
0.05
  0
ENDBLK
  0
BLOCK
  8
POINT
  2
P_root
  70
64
  10
0.0
  20
0.0
  30
0.0
  0
LINE
  8
POINT
  10
0.00
  20
0.40
  30
0.00
  11
0.00
  21
-0.20
  31
0.00
  0
LINE
  8
POINT
  10
0.00
  20
-0.20
  30
0.00
  11
0.15
  21
-0.35
  31
0.00
  0
LINE
  8
POINT
  10
0.00
  20
-0.05
  30
0.00
  11
0.15
  21
-0.20
  31
0.00
  0
LINE
  8
POINT
  10
0.00
  20
0.10
  30
0.00
  11
0.15
  21
-0.05
  31
0.00
  0
ENDBLK
  0
BLOCK
  8
POINT
  2
P_sand
  70
64
  10
0.0
  20
0.0
  30
0.0
  0
LINE
  8
POINT
  10
-0.35
  20
-0.15
  30
0.00
  11
-0.25
  21
-0.15
  31
0.00
  0
LINE
  8
POINT
  10
-0.25
  20
-0.15
  30
0.00
  11
-0.30
  21
-0.05
  31
0.00
  0
LINE
  8
POINT
  10
-0.30
  20
-0.05
  30
0.00
  11
-0.35
  21
-0.15
  31
0.00
  0
LINE
  8
POINT
  10
0.35
  20
-0.15
  30
0.00
  11
0.25
  21
-0.15
  31
0.00
  0
LINE
  8
POINT
  10
0.25
  20
-0.15
  30
0.00
  11
0.30
  21
-0.05
  31
0.00
  0
LINE
  8
POINT
  10
0.30
  20
-0.05
  30
0.00
  11
0.35
  21
-0.15
  31
0.00
  0
LINE
  8
POINT
  10
-0.05
  20
0.15
  30
0.00
  11
0.05
  21
0.15
  31
0.00
  0
LINE
  8
POINT
  10
0.05
  20
0.15
  30
0.00
  11
0.00
  21
0.25
  31
0.00
  0
LINE
  8
POINT
  10
0.00
  20
0.25
  30
0.00
  11
-0.05
  21
0.15
  31
0.00
  0
ENDBLK
  0
BLOCK
  8
POINT
  2
P_scallop
  70
64
  10
0.0
  20
0.0
  30
0.0
  0
LINE
  8
POINT
  10
0.00
  20
-0.30
  30
0.00
  11
-0.15
  21
-0.00
  31
0.00
  0
ARC
  8
POINT
  10
0.00
  20
-0.00
  30
0.00
  40
0.15
  50
90.00
  51
180.00
  0
ARC
  8
POINT
  10
0.00
  20
-0.00
  30
0.00
  40
0.15
  50
0.00
  51
90.00
  0
LINE
  8
POINT
  10
0.15
  20
-0.00
  30
0.00
  11
0.00
  21
-0.30
  31
0.00
  0
ENDBLK
  0
BLOCK
  8
POINT
  2
P_section
  70
64
  10
0.0
  20
0.0
  30
0.0
  0
LINE
  8
POINT
  10
-0.25
  20
0.25
  30
0.00
  11
-0.25
  21
-0.25
  31
0.00
  0
LINE
  8
POINT
  10
-0.25
  20
-0.25
  30
0.00
  11
0.25
  21
-0.25
  31
0.00
  0
LINE
  8
POINT
  10
0.25
  20
-0.25
  30
0.00
  11
0.25
  21
0.25
  31
0.00
  0
LINE
  8
POINT
  10
0.25
  20
0.25
  30
0.00
  11
-0.25
  21
0.25
  31
0.00
  0
ENDBLK
  0
BLOCK
  8
POINT
  2
P_sink
  70
64
  10
0.0
  20
0.0
  30
0.0
  0
ARC
  8
POINT
  10
0.00
  20
0.15
  30
0.00
  40
0.25
  50
180.00
  51
360.00
  0
ENDBLK
  0
BLOCK
  8
POINT
  2
P_snow
  70
64
  10
0.0
  20
0.0
  30
0.0
  0
LINE
  8
POINT
  10
0.00
  20
0.25
  30
0.00
  11
0.00
  21
-0.25
  31
0.00
  0
LINE
  8
POINT
  10
-0.20
  20
0.15
  30
0.00
  11
0.20
  21
-0.15
  31
0.00
  0
LINE
  8
POINT
  10
-0.20
  20
-0.15
  30
0.00
  11
0.20
  21
0.15
  31
0.00
  0
ENDBLK
  0
BLOCK
  8
POINT
  2
P_soda-straw
  70
64
  10
0.0
  20
0.0
  30
0.0
  0
LINE
  8
POINT
  10
-0.30
  20
0.10
  30
0.00
  11
0.30
  21
0.10
  31
0.00
  0
LINE
  8
POINT
  10
-0.20
  20
0.10
  30
0.00
  11
-0.20
  21
-0.10
  31
0.00
  0
LINE
  8
POINT
  10
0.00
  20
0.10
  30
0.00
  11
0.00
  21
-0.30
  31
0.00
  0
LINE
  8
POINT
  10
0.20
  20
0.10
  30
0.00
  11
0.20
  21
-0.20
  31
0.00
  0
ENDBLK
  0
BLOCK
  8
POINT
  2
P_spring
  70
64
  10
0.0
  20
0.0
  30
0.0
  0
ARC
  8
POINT
  10
0.00
  20
-0.15
  30
0.00
  40
0.25
  50
0.00
  51
180.00
  0
ENDBLK
  0
BLOCK
  8
POINT
  2
P_stalactite
  70
64
  10
0.0
  20
0.0
  30
0.0
  0
LINE
  8
POINT
  10
-0.20
  20
0.20
  30
0.00
  11
0.00
  21
-0.00
  31
0.00
  0
LINE
  8
POINT
  10
0.00
  20
-0.00
  30
0.00
  11
0.20
  21
0.20
  31
0.00
  0
LINE
  8
POINT
  10
0.00
  20
-0.00
  30
0.00
  11
0.00
  21
-0.30
  31
0.00
  0
ENDBLK
  0
BLOCK
  8
POINT
  2
P_stalagmite
  70
64
  10
0.0
  20
0.0
  30
0.0
  0
LINE
  8
POINT
  10
-0.20
  20
-0.20
  30
0.00
  11
0.00
  21
-0.00
  31
0.00
  0
LINE
  8
POINT
  10
0.00
  20
-0.00
  30
0.00
  11
0.20
  21
-0.20
  31
0.00
  0
LINE
  8
POINT
  10
0.00
  20
-0.00
  30
0.00
  11
0.00
  21
0.30
  31
0.00
  0
ENDBLK
  0
BLOCK
  8
POINT
  2
P_wall-calcite
  70
64
  10
0.0
  20
0.0
  30
0.0
  0
LINE
  8
POINT
  10
-0.30
  20
-0.10
  30
0.00
  11
-0.15
  21
0.10
  31
0.00
  0
LINE
  8
POINT
  10
-0.15
  20
0.10
  30
0.00
  11
0.00
  21
-0.10
  31
0.00
  0
LINE
  8
POINT
  10
0.00
  20
-0.10
  30
0.00
  11
0.15
  21
0.10
  31
0.00
  0
LINE
  8
POINT
  10
0.15
  20
0.10
  30
0.00
  11
0.30
  21
-0.10
  31
0.00
  0
ENDBLK
  0
BLOCK
  8
POINT
  2
P_water
  70
64
  10
0.0
  20
0.0
  30
0.0
  0
LINE
  8
POINT
  10
-0.30
  20
0.15
  30
0.00
  11
-0.05
  21
0.15
  31
0.00
  0
LINE
  8
POINT
  10
0.10
  20
0.15
  30
0.00
  11
0.30
  21
0.15
  31
0.00
  0
LINE
  8
POINT
  10
-0.20
  20
-0.00
  30
0.00
  11
0.05
  21
-0.00
  31
0.00
  0
LINE
  8
POINT
  10
0.15
  20
-0.00
  30
0.00
  11
0.35
  21
-0.00
  31
0.00
  0
LINE
  8
POINT
  10
-0.15
  20
-0.15
  30
0.00
  11
0.25
  21
-0.15
  31
0.00
  0
ENDBLK
  0
BLOCK
  8
POINT
  2
P_water-flow
  70
64
  10
0.0
  20
0.0
  30
0.0
  0
ARC
  8
POINT
  10
0.00
  20
-0.08
  30
0.00
  40
0.08
  50
90.00
  51
270.00
  0
ARC
  8
POINT
  10
0.00
  20
0.08
  30
0.00
  40
0.08
  50
270.00
  51
450.00
  0
ARC
  8
POINT
  10
0.00
  20
0.23
  30
0.00
  40
0.08
  50
90.00
  51
270.00
  0
ARC
  8
POINT
  10
0.00
  20
0.38
  30
0.00
  40
0.08
  50
270.00
  51
360.00
  0
ARC
  8
POINT
  10
0.00
  20
0.38
  30
0.00
  40
0.08
  50
0.00
  51
90.00
  0
LINE
  8
POINT
  10
0.00
  20
0.50
  30
0.00
  11
0.20
  21
0.30
  31
0.00
  0
LINE
  8
POINT
  10
0.00
  20
0.50
  30
0.00
  11
-0.20
  21
0.30
  31
0.00
  0
ENDBLK
  0
ENDSEC
  0
SECTION
  2
ENTITIES
  0
LINE
  8
REF
  10
-559.29
  20
-2436.23
  30
0.00
  11
-359.29
  21
-2436.23
  31
0.00
  0
LINE
  8
REF
  10
-559.29
  20
-2436.23
  30
0.00
  11
-559.29
  21
-2236.23
  31
0.00
  0
TEXT
  8
REF
  10
-358.29
  20
-2436.23
  30
0.00
  40
0.30
  1
"10"
  0
TEXT
  8
REF
  10
-559.29
  20
-2235.23
  30
0.00
  40
0.30
  1
"10"
  0
LINE
  8
LEG
  10
100.00
  20
-120.00
  30
0.00
  11
59.59
  21
-250.73
  31
0.00
  0
LINE
  8
LEG
  10
59.59
  20
-250.73
  30
0.00
  11
17.36
  21
-374.87
  31
0.00
  0
LINE
  8
LEG
  10
17.36
  20
-374.87
  30
0.00
  11
-40.55
  21
-480.30
  31
0.00
  0
LINE
  8
LEG
  10
-40.55
  20
-480.30
  30
0.00
  11
-82.14
  21
-510.82
  31
0.00
  0
LINE
  8
LEG
  10
-82.14
  20
-510.82
  30
0.00
  11
-114.07
  21
-577.20
  31
0.00
  0
LINE
  8
LEG
  10
-114.07
  20
-577.20
  30
0.00
  11
-148.81
  21
-593.88
  31
0.00
  0
LINE
  8
LEG
  10
-148.81
  20
-593.88
  30
0.00
  11
-185.30
  21
-572.42
  31
0.00
  0
LINE
  8
LEG
  10
-185.30
  20
-572.42
  30
0.00
  11
-210.82
  21
-632.46
  31
0.00
  0
LINE
  8
LEG
  10
-210.82
  20
-632.46
  30
0.00
  11
-300.88
  21
-750.87
  31
0.00
  0
LINE
  8
LEG
  10
-300.88
  20
-750.87
  30
0.00
  11
-273.24
  21
-825.52
  31
0.00
  0
LINE
  8
LEG
  10
-273.24
  20
-825.52
  30
0.00
  11
-312.51
  21
-816.75
  31
0.00
  0
LINE
  8
LEG
  10
-312.51
  20
-816.75
  30
0.00
  11
-356.81
  21
-849.27
  31
0.00
  0
LINE
  8
LEG
  10
-356.81
  20
-849.27
  30
0.00
  11
-374.42
  21
-898.63
  31
0.00
  0
LINE
  8
LEG
  10
-374.42
  20
-898.63
  30
0.00
  11
-336.09
  21
-1102.02
  31
0.00
  0
LINE
  8
LEG
  10
-336.09
  20
-1102.02
  30
0.00
  11
-439.83
  21
-1445.16
  31
0.00
  0
LINE
  8
LEG
  10
-439.83
  20
-1445.16
  30
0.00
  11
-522.25
  21
-1464.88
  31
0.00
  0
LINE
  8
LEG
  10
-522.25
  20
-1464.88
  30
0.00
  11
-486.60
  21
-1618.45
  31
0.00
  0
LINE
  8
LEG
  10
-486.60
  20
-1618.45
  30
0.00
  11
-428.67
  21
-1864.69
  31
0.00
  0
LINE
  8
LEG
  10
-428.67
  20
-1864.69
  30
0.00
  11
-484.81
  21
-1990.10
  31
0.00
  0
LINE
  8
LEG
  10
-484.81
  20
-1990.10
  30
0.00
  11
-429.68
  21
-2163.87
  31
0.00
  0
LINE
  8
LEG
  10
-429.68
  20
-2163.87
  30
0.00
  11
-308.71
  21
-2388.75
  31
0.00
  0
LINE
  8
LEG
  10
-308.71
  20
-2388.75
  30
0.00
  11
-222.87
  21
-2851.60
  31
0.00
  0
LINE
  8
SPLAY
  10
100.00
  20
-120.00
  30
0.00
  11
77.96
  21
-118.71
  31
0.00
  0
LINE
  8
SPLAY
  10
100.00
  20
-120.00
  30
0.00
  11
37.52
  21
-125.01
  31
0.00
  0
LINE
  8
SPLAY
  10
100.00
  20
-120.00
  30
0.00
  11
72.15
  21
-122.72
  31
0.00
  0
LINE
  8
SPLAY
  10
100.00
  20
-120.00
  30
0.00
  11
196.92
  21
-120.72
  31
0.00
  0
LINE
  8
SPLAY
  10
100.00
  20
-120.00
  30
0.00
  11
128.72
  21
-121.10
  31
0.00
  0
LINE
  8
SPLAY
  10
100.00
  20
-120.00
  30
0.00
  11
58.60
  21
-114.66
  31
0.00
  0
LINE
  8
SPLAY
  10
100.00
  20
-120.00
  30
0.00
  11
86.61
  21
-273.96
  31
0.00
  0
LINE
  8
SPLAY
  10
100.00
  20
-120.00
  30
0.00
  11
87.45
  21
-159.79
  31
0.00
  0
LINE
  8
SPLAY
  10
100.00
  20
-120.00
  30
0.00
  11
43.78
  21
-232.45
  31
0.00
  0
LINE
  8
SPLAY
  10
100.00
  20
-120.00
  30
0.00
  11
4.33
  21
-189.31
  31
0.00
  0
LINE
  8
SPLAY
  10
100.00
  20
-120.00
  30
0.00
  11
69.04
  21
-120.29
  31
0.00
  0
LINE
  8
SPLAY
  10
100.00
  20
-120.00
  30
0.00
  11
87.85
  21
-43.01
  31
0.00
  0
LINE
  8
SPLAY
  10
100.00
  20
-120.00
  30
0.00
  11
66.27
  21
-31.34
  31
0.00
  0
LINE
  8
SPLAY
  10
100.00
  20
-120.00
  30
0.00
  11
79.76
  21
-73.12
  31
0.00
  0
LINE
  8
SPLAY
  10
100.00
  20
-120.00
  30
0.00
  11
63.54
  21
-47.67
  31
0.00
  0
LINE
  8
SPLAY
  10
100.00
  20
-120.00
  30
0.00
  11
59.35
  21
-251.19
  31
0.00
  0
LINE
  8
SPLAY
  10
100.00
  20
-120.00
  30
0.00
  11
62.08
  21
-241.81
  31
0.00
  0
LINE
  8
SPLAY
  10
59.59
  20
-250.73
  30
0.00
  11
80.19
  21
-249.68
  31
0.00
  0
LINE
  8
SPLAY
  10
59.59
  20
-250.73
  30
0.00
  11
99.81
  21
-250.11
  31
0.00
  0
LINE
  8
SPLAY
  10
59.59
  20
-250.73
  30
0.00
  11
116.16
  21
-249.50
  31
0.00
  0
LINE
  8
SPLAY
  10
59.59
  20
-250.73
  30
0.00
  11
136.13
  21
-248.78
  31
0.00
  0
LINE
  8
SPLAY
  10
59.59
  20
-250.73
  30
0.00
  11
90.26
  21
-124.73
  31
0.00
  0
LINE
  8
SPLAY
  10
59.59
  20
-250.73
  30
0.00
  11
86.20
  21
-186.05
  31
0.00
  0
LINE
  8
SPLAY
  10
59.59
  20
-250.73
  30
0.00
  11
-28.62
  21
-247.81
  31
0.00
  0
LINE
  8
SPLAY
  10
59.59
  20
-250.73
  30
0.00
  11
10.87
  21
-244.46
  31
0.00
  0
LINE
  8
SPLAY
  10
59.59
  20
-250.73
  30
0.00
  11
8.68
  21
-247.15
  31
0.00
  0
LINE
  8
SPLAY
  10
59.59
  20
-250.73
  30
0.00
  11
41.59
  21
-249.92
  31
0.00
  0
LINE
  8
SPLAY
  10
59.59
  20
-250.73
  30
0.00
  11
17.54
  21
-171.61
  31
0.00
  0
LINE
  8
SPLAY
  10
59.59
  20
-250.73
  30
0.00
  11
2.87
  21
-192.04
  31
0.00
  0
LINE
  8
SPLAY
  10
59.59
  20
-250.73
  30
0.00
  11
99.09
  21
-321.83
  31
0.00
  0
LINE
  8
SPLAY
  10
59.59
  20
-250.73
  30
0.00
  11
85.96
  21
-392.62
  31
0.00
  0
LINE
  8
SPLAY
  10
59.59
  20
-250.73
  30
0.00
  11
72.12
  21
-387.22
  31
0.00
  0
LINE
  8
SPLAY
  10
17.36
  20
-374.87
  30
0.00
  11
88.50
  21
-374.54
  31
0.00
  0
LINE
  8
SPLAY
  10
17.36
  20
-374.87
  30
0.00
  11
51.53
  21
-375.79
  31
0.00
  0
LINE
  8
SPLAY
  10
17.36
  20
-374.87
  30
0.00
  11
71.02
  21
-375.00
  31
0.00
  0
LINE
  8
SPLAY
  10
17.36
  20
-374.87
  30
0.00
  11
-10.62
  21
-373.85
  31
0.00
  0
LINE
  8
SPLAY
  10
17.36
  20
-374.87
  30
0.00
  11
62.08
  21
-282.84
  31
0.00
  0
LINE
  8
SPLAY
  10
17.36
  20
-374.87
  30
0.00
  11
114.67
  21
-212.35
  31
0.00
  0
LINE
  8
SPLAY
  10
17.36
  20
-374.87
  30
0.00
  11
-21.46
  21
-363.83
  31
0.00
  0
LINE
  8
SPLAY
  10
17.36
  20
-374.87
  30
0.00
  11
-54.13
  21
-310.65
  31
0.00
  0
LINE
  8
SPLAY
  10
17.36
  20
-374.87
  30
0.00
  11
-80.46
  21
-362.40
  31
0.00
  0
LINE
  8
SPLAY
  10
17.36
  20
-374.87
  30
0.00
  11
-64.08
  21
-362.51
  31
0.00
  0
LINE
  8
SPLAY
  10
17.36
  20
-374.87
  30
0.00
  11
-17.65
  21
-365.29
  31
0.00
  0
LINE
  8
SPLAY
  10
17.36
  20
-374.87
  30
0.00
  11
-34.03
  21
-376.99
  31
0.00
  0
LINE
  8
SPLAY
  10
17.36
  20
-374.87
  30
0.00
  11
-74.35
  21
-506.78
  31
0.00
  0
LINE
  8
SPLAY
  10
17.36
  20
-374.87
  30
0.00
  11
-6.38
  21
-525.11
  31
0.00
  0
LINE
  8
SPLAY
  10
17.36
  20
-374.87
  30
0.00
  11
41.36
  21
-480.73
  31
0.00
  0
LINE
  8
SPLAY
  10
17.36
  20
-374.87
  30
0.00
  11
-52.60
  21
-513.87
  31
0.00
  0
LINE
  8
SPLAY
  10
17.36
  20
-374.87
  30
0.00
  11
-98.71
  21
-486.81
  31
0.00
  0
LINE
  8
SPLAY
  10
17.36
  20
-374.87
  30
0.00
  11
-80.86
  21
-503.67
  31
0.00
  0
LINE
  8
SPLAY
  10
17.36
  20
-374.87
  30
0.00
  11
-41.36
  21
-481.26
  31
0.00
  0
LINE
  8
SPLAY
  10
17.36
  20
-374.87
  30
0.00
  11
-43.17
  21
-485.20
  31
0.00
  0
LINE
  8
SPLAY
  10
-40.55
  20
-480.30
  30
0.00
  11
-6.54
  21
-481.58
  31
0.00
  0
LINE
  8
SPLAY
  10
-40.55
  20
-480.30
  30
0.00
  11
-74.91
  21
-476.96
  31
0.00
  0
LINE
  8
SPLAY
  10
-40.55
  20
-480.30
  30
0.00
  11
-94.67
  21
-471.29
  31
0.00
  0
LINE
  8
SPLAY
  10
-40.55
  20
-480.30
  30
0.00
  11
-109.88
  21
-472.31
  31
0.00
  0
LINE
  8
SPLAY
  10
-40.55
  20
-480.30
  30
0.00
  11
-101.20
  21
-470.21
  31
0.00
  0
LINE
  8
SPLAY
  10
-40.55
  20
-480.30
  30
0.00
  11
30.62
  21
-479.46
  31
0.00
  0
LINE
  8
SPLAY
  10
-40.55
  20
-480.30
  30
0.00
  11
17.89
  21
-478.82
  31
0.00
  0
LINE
  8
SPLAY
  10
-40.55
  20
-480.30
  30
0.00
  11
1.52
  21
-478.01
  31
0.00
  0
LINE
  8
SPLAY
  10
-40.55
  20
-480.30
  30
0.00
  11
-3.54
  21
-478.10
  31
0.00
  0
LINE
  8
SPLAY
  10
-40.55
  20
-480.30
  30
0.00
  11
33.77
  21
-416.83
  31
0.00
  0
LINE
  8
SPLAY
  10
-40.55
  20
-480.30
  30
0.00
  11
30.04
  21
-296.83
  31
0.00
  0
LINE
  8
SPLAY
  10
-40.55
  20
-480.30
  30
0.00
  11
-68.04
  21
-293.15
  31
0.00
  0
LINE
  8
SPLAY
  10
-40.55
  20
-480.30
  30
0.00
  11
-87.57
  21
-384.94
  31
0.00
  0
LINE
  8
SPLAY
  10
-40.55
  20
-480.30
  30
0.00
  11
-38.47
  21
-511.23
  31
0.00
  0
LINE
  8
SPLAY
  10
-40.55
  20
-480.30
  30
0.00
  11
-18.63
  21
-520.17
  31
0.00
  0
LINE
  8
SPLAY
  10
-82.14
  20
-510.82
  30
0.00
  11
-93.68
  21
-510.67
  31
0.00
  0
LINE
  8
SPLAY
  10
-82.14
  20
-510.82
  30
0.00
  11
-117.19
  21
-469.88
  31
0.00
  0
LINE
  8
SPLAY
  10
-82.14
  20
-510.82
  30
0.00
  11
-100.67
  21
-445.29
  31
0.00
  0
LINE
  8
SPLAY
  10
-82.14
  20
-510.82
  30
0.00
  11
-103.41
  21
-486.41
  31
0.00
  0
LINE
  8
SPLAY
  10
-82.14
  20
-510.82
  30
0.00
  11
-55.58
  21
-353.20
  31
0.00
  0
LINE
  8
SPLAY
  10
-82.14
  20
-510.82
  30
0.00
  11
-85.01
  21
-403.52
  31
0.00
  0
LINE
  8
SPLAY
  10
-82.14
  20
-510.82
  30
0.00
  11
-54.50
  21
-492.73
  31
0.00
  0
LINE
  8
SPLAY
  10
-82.14
  20
-510.82
  30
0.00
  11
-100.51
  21
-511.31
  31
0.00
  0
LINE
  8
SPLAY
  10
-82.14
  20
-510.82
  30
0.00
  11
-100.94
  21
-512.93
  31
0.00
  0
LINE
  8
SPLAY
  10
-82.14
  20
-510.82
  30
0.00
  11
-67.20
  21
-517.97
  31
0.00
  0
LINE
  8
SPLAY
  10
-114.07
  20
-577.20
  30
0.00
  11
-122.49
  21
-578.64
  31
0.00
  0
LINE
  8
SPLAY
  10
-114.07
  20
-577.20
  30
0.00
  11
-125.17
  21
-566.46
  31
0.00
  0
LINE
  8
SPLAY
  10
-114.07
  20
-577.20
  30
0.00
  11
-111.99
  21
-549.77
  31
0.00
  0
LINE
  8
SPLAY
  10
-114.07
  20
-577.20
  30
0.00
  11
-102.09
  21
-530.32
  31
0.00
  0
LINE
  8
SPLAY
  10
-114.07
  20
-577.20
  30
0.00
  11
-64.34
  21
-541.66
  31
0.00
  0
LINE
  8
SPLAY
  10
-114.07
  20
-577.20
  30
0.00
  11
-75.01
  21
-555.71
  31
0.00
  0
LINE
  8
SPLAY
  10
-114.07
  20
-577.20
  30
0.00
  11
-89.43
  21
-554.29
  31
0.00
  0
LINE
  8
SPLAY
  10
-114.07
  20
-577.20
  30
0.00
  11
-115.94
  21
-595.84
  31
0.00
  0
LINE
  8
SPLAY
  10
-114.07
  20
-577.20
  30
0.00
  11
-55.26
  21
-528.81
  31
0.00
  0
LINE
  8
SPLAY
  10
-114.07
  20
-577.20
  30
0.00
  11
-94.93
  21
-490.19
  31
0.00
  0
LINE
  8
SPLAY
  10
-114.07
  20
-577.20
  30
0.00
  11
-138.15
  21
-571.46
  31
0.00
  0
LINE
  8
SPLAY
  10
-114.07
  20
-577.20
  30
0.00
  11
-147.98
  21
-593.70
  31
0.00
  0
LINE
  8
SPLAY
  10
-148.81
  20
-593.88
  30
0.00
  11
-133.16
  21
-590.55
  31
0.00
  0
LINE
  8
SPLAY
  10
-148.81
  20
-593.88
  30
0.00
  11
-136.94
  21
-594.77
  31
0.00
  0
LINE
  8
SPLAY
  10
-148.81
  20
-593.88
  30
0.00
  11
-134.07
  21
-583.38
  31
0.00
  0
LINE
  8
SPLAY
  10
-148.81
  20
-593.88
  30
0.00
  11
-158.02
  21
-594.56
  31
0.00
  0
LINE
  8
SPLAY
  10
-148.81
  20
-593.88
  30
0.00
  11
-140.79
  21
-593.25
  31
0.00
  0
LINE
  8
SPLAY
  10
-148.81
  20
-593.88
  30
0.00
  11
-139.45
  21
-593.89
  31
0.00
  0
LINE
  8
SPLAY
  10
-148.81
  20
-593.88
  30
0.00
  11
-136.53
  21
-593.93
  31
0.00
  0
LINE
  8
SPLAY
  10
-148.81
  20
-593.88
  30
0.00
  11
-123.52
  21
-591.26
  31
0.00
  0
LINE
  8
SPLAY
  10
-148.81
  20
-593.88
  30
0.00
  11
-134.77
  21
-592.38
  31
0.00
  0
LINE
  8
SPLAY
  10
-148.81
  20
-593.88
  30
0.00
  11
-136.71
  21
-592.85
  31
0.00
  0
LINE
  8
SPLAY
  10
-148.81
  20
-593.88
  30
0.00
  11
-134.87
  21
-582.03
  31
0.00
  0
LINE
  8
SPLAY
  10
-148.81
  20
-593.88
  30
0.00
  11
-155.84
  21
-611.45
  31
0.00
  0
LINE
  8
SPLAY
  10
-148.81
  20
-593.88
  30
0.00
  11
-159.65
  21
-591.25
  31
0.00
  0
LINE
  8
SPLAY
  10
-148.81
  20
-593.88
  30
0.00
  11
-166.44
  21
-587.19
  31
0.00
  0
LINE
  8
SPLAY
  10
-148.81
  20
-593.88
  30
0.00
  11
-156.86
  21
-589.69
  31
0.00
  0
LINE
  8
SPLAY
  10
-148.81
  20
-593.88
  30
0.00
  11
-158.22
  21
-570.21
  31
0.00
  0
LINE
  8
SPLAY
  10
-185.30
  20
-572.42
  30
0.00
  11
-192.20
  21
-572.45
  31
0.00
  0
LINE
  8
SPLAY
  10
-185.30
  20
-572.42
  30
0.00
  11
-155.63
  21
-567.97
  31
0.00
  0
LINE
  8
SPLAY
  10
-185.30
  20
-572.42
  30
0.00
  11
-164.15
  21
-568.23
  31
0.00
  0
LINE
  8
SPLAY
  10
-185.30
  20
-572.42
  30
0.00
  11
-168.47
  21
-566.62
  31
0.00
  0
LINE
  8
SPLAY
  10
-185.30
  20
-572.42
  30
0.00
  11
-178.61
  21
-565.01
  31
0.00
  0
LINE
  8
SPLAY
  10
-185.30
  20
-572.42
  30
0.00
  11
-170.49
  21
-572.88
  31
0.00
  0
LINE
  8
SPLAY
  10
-185.30
  20
-572.42
  30
0.00
  11
-181.74
  21
-555.00
  31
0.00
  0
LINE
  8
SPLAY
  10
-185.30
  20
-572.42
  30
0.00
  11
-198.74
  21
-612.90
  31
0.00
  0
LINE
  8
SPLAY
  10
-185.30
  20
-572.42
  30
0.00
  11
-198.75
  21
-624.98
  31
0.00
  0
LINE
  8
SPLAY
  10
-185.30
  20
-572.42
  30
0.00
  11
-198.02
  21
-602.65
  31
0.00
  0
LINE
  8
SPLAY
  10
-185.30
  20
-572.42
  30
0.00
  11
-190.24
  21
-597.64
  31
0.00
  0
LINE
  8
SPLAY
  10
-210.82
  20
-632.46
  30
0.00
  11
-195.64
  21
-629.23
  31
0.00
  0
LINE
  8
SPLAY
  10
-210.82
  20
-632.46
  30
0.00
  11
-216.24
  21
-607.17
  31
0.00
  0
LINE
  8
SPLAY
  10
-210.82
  20
-632.46
  30
0.00
  11
-217.33
  21
-622.59
  31
0.00
  0
LINE
  8
SPLAY
  10
-210.82
  20
-632.46
  30
0.00
  11
-282.60
  21
-629.35
  31
0.00
  0
LINE
  8
SPLAY
  10
-210.82
  20
-632.46
  30
0.00
  11
-228.64
  21
-627.96
  31
0.00
  0
LINE
  8
SPLAY
  10
-210.82
  20
-632.46
  30
0.00
  11
-237.83
  21
-603.03
  31
0.00
  0
LINE
  8
SPLAY
  10
-210.82
  20
-632.46
  30
0.00
  11
-242.73
  21
-628.62
  31
0.00
  0
LINE
  8
SPLAY
  10
-210.82
  20
-632.46
  30
0.00
  11
-242.93
  21
-635.22
  31
0.00
  0
LINE
  8
SPLAY
  10
-210.82
  20
-632.46
  30
0.00
  11
-234.52
  21
-635.45
  31
0.00
  0
LINE
  8
SPLAY
  10
-210.82
  20
-632.46
  30
0.00
  11
-225.78
  21
-632.24
  31
0.00
  0
LINE
  8
SPLAY
  10
-210.82
  20
-632.46
  30
0.00
  11
-206.38
  21
-667.86
  31
0.00
  0
LINE
  8
SPLAY
  10
-210.82
  20
-632.46
  30
0.00
  11
-171.15
  21
-560.20
  31
0.00
  0
LINE
  8
SPLAY
  10
-210.82
  20
-632.46
  30
0.00
  11
-290.63
  21
-672.03
  31
0.00
  0
LINE
  8
SPLAY
  10
-210.82
  20
-632.46
  30
0.00
  11
-293.91
  21
-678.93
  31
0.00
  0
LINE
  8
SPLAY
  10
-210.82
  20
-632.46
  30
0.00
  11
-272.30
  21
-669.12
  31
0.00
  0
LINE
  8
SPLAY
  10
-210.82
  20
-632.46
  30
0.00
  11
-236.85
  21
-602.35
  31
0.00
  0
LINE
  8
SPLAY
  10
-210.82
  20
-632.46
  30
0.00
  11
-293.09
  21
-848.01
  31
0.00
  0
LINE
  8
SPLAY
  10
-210.82
  20
-632.46
  30
0.00
  11
-256.63
  21
-791.37
  31
0.00
  0
LINE
  8
SPLAY
  10
-210.82
  20
-632.46
  30
0.00
  11
-224.72
  21
-671.29
  31
0.00
  0
LINE
  8
SPLAY
  10
-210.82
  20
-632.46
  30
0.00
  11
-299.99
  21
-741.30
  31
0.00
  0
LINE
  8
SPLAY
  10
-300.88
  20
-750.87
  30
0.00
  11
-289.16
  21
-751.32
  31
0.00
  0
LINE
  8
SPLAY
  10
-300.88
  20
-750.87
  30
0.00
  11
-290.10
  21
-736.26
  31
0.00
  0
LINE
  8
SPLAY
  10
-300.88
  20
-750.87
  30
0.00
  11
-289.84
  21
-715.22
  31
0.00
  0
LINE
  8
SPLAY
  10
-300.88
  20
-750.87
  30
0.00
  11
-310.91
  21
-716.97
  31
0.00
  0
LINE
  8
SPLAY
  10
-300.88
  20
-750.87
  30
0.00
  11
-254.85
  21
-757.78
  31
0.00
  0
LINE
  8
SPLAY
  10
-300.88
  20
-750.87
  30
0.00
  11
-247.80
  21
-718.25
  31
0.00
  0
LINE
  8
SPLAY
  10
-300.88
  20
-750.87
  30
0.00
  11
-242.40
  21
-717.60
  31
0.00
  0
LINE
  8
SPLAY
  10
-300.88
  20
-750.87
  30
0.00
  11
-216.11
  21
-684.60
  31
0.00
  0
LINE
  8
SPLAY
  10
-300.88
  20
-750.87
  30
0.00
  11
-212.56
  21
-667.61
  31
0.00
  0
LINE
  8
SPLAY
  10
-300.88
  20
-750.87
  30
0.00
  11
-234.30
  21
-644.04
  31
0.00
  0
LINE
  8
SPLAY
  10
-300.88
  20
-750.87
  30
0.00
  11
-287.35
  21
-722.71
  31
0.00
  0
LINE
  8
SPLAY
  10
-300.88
  20
-750.87
  30
0.00
  11
-260.29
  21
-778.14
  31
0.00
  0
LINE
  8
SPLAY
  10
-300.88
  20
-750.87
  30
0.00
  11
-262.71
  21
-771.99
  31
0.00
  0
LINE
  8
SPLAY
  10
-300.88
  20
-750.87
  30
0.00
  11
-284.74
  21
-763.62
  31
0.00
  0
LINE
  8
SPLAY
  10
-300.88
  20
-750.87
  30
0.00
  11
-286.16
  21
-768.58
  31
0.00
  0
LINE
  8
SPLAY
  10
-273.24
  20
-825.52
  30
0.00
  11
-292.77
  21
-827.12
  31
0.00
  0
LINE
  8
SPLAY
  10
-273.24
  20
-825.52
  30
0.00
  11
-301.77
  21
-824.31
  31
0.00
  0
LINE
  8
SPLAY
  10
-273.24
  20
-825.52
  30
0.00
  11
-325.57
  21
-824.81
  31
0.00
  0
LINE
  8
SPLAY
  10
-273.24
  20
-825.52
  30
0.00
  11
-276.25
  21
-885.26
  31
0.00
  0
LINE
  8
SPLAY
  10
-273.24
  20
-825.52
  30
0.00
  11
-281.81
  21
-909.74
  31
0.00
  0
LINE
  8
SPLAY
  10
-273.24
  20
-825.52
  30
0.00
  11
-286.45
  21
-871.27
  31
0.00
  0
LINE
  8
SPLAY
  10
-273.24
  20
-825.52
  30
0.00
  11
-301.89
  21
-826.91
  31
0.00
  0
LINE
  8
SPLAY
  10
-273.24
  20
-825.52
  30
0.00
  11
-291.30
  21
-780.53
  31
0.00
  0
LINE
  8
SPLAY
  10
-273.24
  20
-825.52
  30
0.00
  11
-281.38
  21
-759.19
  31
0.00
  0
LINE
  8
SPLAY
  10
-273.24
  20
-825.52
  30
0.00
  11
-298.01
  21
-863.01
  31
0.00
  0
LINE
  8
SPLAY
  10
-273.24
  20
-825.52
  30
0.00
  11
-309.90
  21
-825.57
  31
0.00
  0
LINE
  8
SPLAY
  10
-312.51
  20
-816.75
  30
0.00
  11
-305.04
  21
-816.38
  31
0.00
  0
LINE
  8
SPLAY
  10
-312.51
  20
-816.75
  30
0.00
  11
-218.94
  21
-824.80
  31
0.00
  0
LINE
  8
SPLAY
  10
-312.51
  20
-816.75
  30
0.00
  11
-265.60
  21
-818.24
  31
0.00
  0
LINE
  8
SPLAY
  10
-312.51
  20
-816.75
  30
0.00
  11
-300.54
  21
-774.64
  31
0.00
  0
LINE
  8
SPLAY
  10
-312.51
  20
-816.75
  30
0.00
  11
-300.19
  21
-747.68
  31
0.00
  0
LINE
  8
SPLAY
  10
-312.51
  20
-816.75
  30
0.00
  11
-270.43
  21
-800.99
  31
0.00
  0
LINE
  8
SPLAY
  10
-312.51
  20
-816.75
  30
0.00
  11
-287.42
  21
-811.03
  31
0.00
  0
LINE
  8
SPLAY
  10
-312.51
  20
-816.75
  30
0.00
  11
-300.16
  21
-809.90
  31
0.00
  0
LINE
  8
SPLAY
  10
-312.51
  20
-816.75
  30
0.00
  11
-295.53
  21
-834.19
  31
0.00
  0
LINE
  8
SPLAY
  10
-312.51
  20
-816.75
  30
0.00
  11
-287.50
  21
-881.23
  31
0.00
  0
LINE
  8
SPLAY
  10
-312.51
  20
-816.75
  30
0.00
  11
-270.85
  21
-875.47
  31
0.00
  0
LINE
  8
SPLAY
  10
-312.51
  20
-816.75
  30
0.00
  11
-284.29
  21
-869.99
  31
0.00
  0
LINE
  8
SPLAY
  10
-312.51
  20
-816.75
  30
0.00
  11
-309.02
  21
-844.37
  31
0.00
  0
LINE
  8
SPLAY
  10
-312.51
  20
-816.75
  30
0.00
  11
-372.64
  21
-830.03
  31
0.00
  0
LINE
  8
SPLAY
  10
-356.81
  20
-849.27
  30
0.00
  11
-369.53
  21
-849.43
  31
0.00
  0
LINE
  8
SPLAY
  10
-356.81
  20
-849.27
  30
0.00
  11
-370.00
  21
-848.71
  31
0.00
  0
LINE
  8
SPLAY
  10
-356.81
  20
-849.27
  30
0.00
  11
-364.49
  21
-827.55
  31
0.00
  0
LINE
  8
SPLAY
  10
-356.81
  20
-849.27
  30
0.00
  11
-392.16
  21
-849.98
  31
0.00
  0
LINE
  8
SPLAY
  10
-356.81
  20
-849.27
  30
0.00
  11
-347.43
  21
-862.75
  31
0.00
  0
LINE
  8
SPLAY
  10
-356.81
  20
-849.27
  30
0.00
  11
-366.67
  21
-899.37
  31
0.00
  0
LINE
  8
SPLAY
  10
-356.81
  20
-849.27
  30
0.00
  11
-259.80
  21
-811.41
  31
0.00
  0
LINE
  8
SPLAY
  10
-356.81
  20
-849.27
  30
0.00
  11
-430.14
  21
-796.26
  31
0.00
  0
LINE
  8
SPLAY
  10
-356.81
  20
-849.27
  30
0.00
  11
-448.73
  21
-825.18
  31
0.00
  0
LINE
  8
SPLAY
  10
-356.81
  20
-849.27
  30
0.00
  11
-310.34
  21
-877.67
  31
0.00
  0
LINE
  8
SPLAY
  10
-356.81
  20
-849.27
  30
0.00
  11
-322.25
  21
-878.77
  31
0.00
  0
LINE
  8
SPLAY
  10
-374.42
  20
-898.63
  30
0.00
  11
-415.52
  21
-898.80
  31
0.00
  0
LINE
  8
SPLAY
  10
-374.42
  20
-898.63
  30
0.00
  11
-415.94
  21
-897.99
  31
0.00
  0
LINE
  8
SPLAY
  10
-374.42
  20
-898.63
  30
0.00
  11
-356.08
  21
-897.50
  31
0.00
  0
LINE
  8
SPLAY
  10
-374.42
  20
-898.63
  30
0.00
  11
-356.42
  21
-901.54
  31
0.00
  0
LINE
  8
SPLAY
  10
-374.42
  20
-898.63
  30
0.00
  11
-352.52
  21
-872.34
  31
0.00
  0
LINE
  8
SPLAY
  10
-374.42
  20
-898.63
  30
0.00
  11
-354.84
  21
-851.39
  31
0.00
  0
LINE
  8
SPLAY
  10
-374.42
  20
-898.63
  30
0.00
  11
-359.35
  21
-832.53
  31
0.00
  0
LINE
  8
SPLAY
  10
-374.42
  20
-898.63
  30
0.00
  11
-352.56
  21
-938.05
  31
0.00
  0
LINE
  8
SPLAY
  10
-374.42
  20
-898.63
  30
0.00
  11
-444.50
  21
-1049.38
  31
0.00
  0
LINE
  8
SPLAY
  10
-374.42
  20
-898.63
  30
0.00
  11
-358.43
  21
-1026.55
  31
0.00
  0
LINE
  8
SPLAY
  10
-374.42
  20
-898.63
  30
0.00
  11
-365.89
  21
-888.61
  31
0.00
  0
LINE
  8
SPLAY
  10
-336.09
  20
-1102.02
  30
0.00
  11
-309.02
  21
-1102.82
  31
0.00
  0
LINE
  8
SPLAY
  10
-336.09
  20
-1102.02
  30
0.00
  11
-380.72
  21
-1101.23
  31
0.00
  0
LINE
  8
SPLAY
  10
-336.09
  20
-1102.02
  30
0.00
  11
-375.99
  21
-1099.97
  31
0.00
  0
LINE
  8
SPLAY
  10
-336.09
  20
-1102.02
  30
0.00
  11
-372.92
  21
-1099.89
  31
0.00
  0
LINE
  8
SPLAY
  10
-336.09
  20
-1102.02
  30
0.00
  11
-374.67
  21
-1099.91
  31
0.00
  0
LINE
  8
SPLAY
  10
-336.09
  20
-1102.02
  30
0.00
  11
-378.18
  21
-1097.42
  31
0.00
  0
LINE
  8
SPLAY
  10
-336.09
  20
-1102.02
  30
0.00
  11
-384.89
  21
-1098.62
  31
0.00
  0
LINE
  8
SPLAY
  10
-336.09
  20
-1102.02
  30
0.00
  11
-396.27
  21
-1092.09
  31
0.00
  0
LINE
  8
SPLAY
  10
-336.09
  20
-1102.02
  30
0.00
  11
-407.83
  21
-1068.57
  31
0.00
  0
LINE
  8
SPLAY
  10
-336.09
  20
-1102.02
  30
0.00
  11
-402.95
  21
-1063.14
  31
0.00
  0
LINE
  8
SPLAY
  10
-336.09
  20
-1102.02
  30
0.00
  11
-310.06
  21
-1094.47
  31
0.00
  0
LINE
  8
SPLAY
  10
-336.09
  20
-1102.02
  30
0.00
  11
-378.45
  21
-1144.00
  31
0.00
  0
LINE
  8
SPLAY
  10
-336.09
  20
-1102.02
  30
0.00
  11
-337.88
  21
-1105.63
  31
0.00
  0
LINE
  8
SPLAY
  10
-336.09
  20
-1102.02
  30
0.00
  11
-366.91
  21
-1015.33
  31
0.00
  0
LINE
  8
SPLAY
  10
-336.09
  20
-1102.02
  30
0.00
  11
-354.35
  21
-959.04
  31
0.00
  0
LINE
  8
SPLAY
  10
-336.09
  20
-1102.02
  30
0.00
  11
-379.34
  21
-901.14
  31
0.00
  0
LINE
  8
SPLAY
  10
-336.09
  20
-1102.02
  30
0.00
  11
-411.80
  21
-878.94
  31
0.00
  0
LINE
  8
SPLAY
  10
-336.09
  20
-1102.02
  30
0.00
  11
-400.89
  21
-1212.12
  31
0.00
  0
LINE
  8
SPLAY
  10
-336.09
  20
-1102.02
  30
0.00
  11
-427.32
  21
-1255.90
  31
0.00
  0
LINE
  8
SPLAY
  10
-336.09
  20
-1102.02
  30
0.00
  11
-408.85
  21
-1219.53
  31
0.00
  0
LINE
  8
SPLAY
  10
-336.09
  20
-1102.02
  30
0.00
  11
-419.05
  21
-1361.64
  31
0.00
  0
LINE
  8
SPLAY
  10
-336.09
  20
-1102.02
  30
0.00
  11
-425.09
  21
-1311.32
  31
0.00
  0
LINE
  8
SPLAY
  10
-439.83
  20
-1445.16
  30
0.00
  11
-392.29
  21
-1447.57
  31
0.00
  0
LINE
  8
SPLAY
  10
-439.83
  20
-1445.16
  30
0.00
  11
-365.26
  21
-1437.09
  31
0.00
  0
LINE
  8
SPLAY
  10
-439.83
  20
-1445.16
  30
0.00
  11
-428.00
  21
-1443.42
  31
0.00
  0
LINE
  8
SPLAY
  10
-439.83
  20
-1445.16
  30
0.00
  11
-356.41
  21
-1443.24
  31
0.00
  0
LINE
  8
SPLAY
  10
-439.83
  20
-1445.16
  30
0.00
  11
-360.67
  21
-1445.99
  31
0.00
  0
LINE
  8
SPLAY
  10
-439.83
  20
-1445.16
  30
0.00
  11
-393.09
  21
-1444.99
  31
0.00
  0
LINE
  8
SPLAY
  10
-439.83
  20
-1445.16
  30
0.00
  11
-395.62
  21
-1444.02
  31
0.00
  0
LINE
  8
SPLAY
  10
-439.83
  20
-1445.16
  30
0.00
  11
-382.92
  21
-1350.86
  31
0.00
  0
LINE
  8
SPLAY
  10
-439.83
  20
-1445.16
  30
0.00
  11
-515.46
  21
-1293.49
  31
0.00
  0
LINE
  8
SPLAY
  10
-439.83
  20
-1445.16
  30
0.00
  11
-410.78
  21
-1296.15
  31
0.00
  0
LINE
  8
SPLAY
  10
-439.83
  20
-1445.16
  30
0.00
  11
-433.46
  21
-1477.50
  31
0.00
  0
LINE
  8
SPLAY
  10
-439.83
  20
-1445.16
  30
0.00
  11
-402.81
  21
-1481.22
  31
0.00
  0
LINE
  8
SPLAY
  10
-439.83
  20
-1445.16
  30
0.00
  11
-335.16
  21
-1534.18
  31
0.00
  0
LINE
  8
SPLAY
  10
-439.83
  20
-1445.16
  30
0.00
  11
-398.72
  21
-1472.77
  31
0.00
  0
LINE
  8
SPLAY
  10
-439.83
  20
-1445.16
  30
0.00
  11
-397.13
  21
-1476.90
  31
0.00
  0
LINE
  8
SPLAY
  10
-522.25
  20
-1464.88
  30
0.00
  11
-535.29
  21
-1465.66
  31
0.00
  0
LINE
  8
SPLAY
  10
-522.25
  20
-1464.88
  30
0.00
  11
-498.05
  21
-1465.85
  31
0.00
  0
LINE
  8
SPLAY
  10
-522.25
  20
-1464.88
  30
0.00
  11
-501.79
  21
-1471.20
  31
0.00
  0
LINE
  8
SPLAY
  10
-522.25
  20
-1464.88
  30
0.00
  11
-500.69
  21
-1504.88
  31
0.00
  0
LINE
  8
SPLAY
  10
-522.25
  20
-1464.88
  30
0.00
  11
-474.07
  21
-1524.76
  31
0.00
  0
LINE
  8
SPLAY
  10
-522.25
  20
-1464.88
  30
0.00
  11
-486.93
  21
-1563.65
  31
0.00
  0
LINE
  8
SPLAY
  10
-522.25
  20
-1464.88
  30
0.00
  11
-572.97
  21
-1465.68
  31
0.00
  0
LINE
  8
SPLAY
  10
-522.25
  20
-1464.88
  30
0.00
  11
-604.35
  21
-1460.73
  31
0.00
  0
LINE
  8
SPLAY
  10
-522.25
  20
-1464.88
  30
0.00
  11
-534.41
  21
-1449.71
  31
0.00
  0
LINE
  8
SPLAY
  10
-522.25
  20
-1464.88
  30
0.00
  11
-563.94
  21
-1386.40
  31
0.00
  0
LINE
  8
SPLAY
  10
-522.25
  20
-1464.88
  30
0.00
  11
-552.97
  21
-1470.36
  31
0.00
  0
LINE
  8
SPLAY
  10
-522.25
  20
-1464.88
  30
0.00
  11
-572.70
  21
-1488.59
  31
0.00
  0
LINE
  8
SPLAY
  10
-522.25
  20
-1464.88
  30
0.00
  11
-576.22
  21
-1523.33
  31
0.00
  0
LINE
  8
SPLAY
  10
-522.25
  20
-1464.88
  30
0.00
  11
-581.98
  21
-1564.22
  31
0.00
  0
LINE
  8
SPLAY
  10
-486.60
  20
-1618.45
  30
0.00
  11
-433.68
  21
-1615.20
  31
0.00
  0
LINE
  8
SPLAY
  10
-486.60
  20
-1618.45
  30
0.00
  11
-443.05
  21
-1615.98
  31
0.00
  0
LINE
  8
SPLAY
  10
-486.60
  20
-1618.45
  30
0.00
  11
-446.37
  21
-1612.86
  31
0.00
  0
LINE
  8
SPLAY
  10
-486.60
  20
-1618.45
  30
0.00
  11
-539.29
  21
-1611.54
  31
0.00
  0
LINE
  8
SPLAY
  10
-486.60
  20
-1618.45
  30
0.00
  11
-442.14
  21
-1616.18
  31
0.00
  0
LINE
  8
SPLAY
  10
-486.60
  20
-1618.45
  30
0.00
  11
-521.04
  21
-1512.80
  31
0.00
  0
LINE
  8
SPLAY
  10
-486.60
  20
-1618.45
  30
0.00
  11
-519.01
  21
-1470.32
  31
0.00
  0
LINE
  8
SPLAY
  10
-486.60
  20
-1618.45
  30
0.00
  11
-455.65
  21
-1536.93
  31
0.00
  0
LINE
  8
SPLAY
  10
-486.60
  20
-1618.45
  30
0.00
  11
-449.14
  21
-1573.89
  31
0.00
  0
LINE
  8
SPLAY
  10
-486.60
  20
-1618.45
  30
0.00
  11
-426.54
  21
-1772.28
  31
0.00
  0
LINE
  8
SPLAY
  10
-486.60
  20
-1618.45
  30
0.00
  11
-430.84
  21
-1684.89
  31
0.00
  0
LINE
  8
SPLAY
  10
-486.60
  20
-1618.45
  30
0.00
  11
-425.33
  21
-1698.14
  31
0.00
  0
LINE
  8
SPLAY
  10
-486.60
  20
-1618.45
  30
0.00
  11
-414.94
  21
-1845.26
  31
0.00
  0
LINE
  8
SPLAY
  10
-486.60
  20
-1618.45
  30
0.00
  11
-441.76
  21
-1860.76
  31
0.00
  0
LINE
  8
SPLAY
  10
-486.60
  20
-1618.45
  30
0.00
  11
-426.54
  21
-1856.97
  31
0.00
  0
LINE
  8
SPLAY
  10
-428.67
  20
-1864.69
  30
0.00
  11
-504.29
  21
-1789.62
  31
0.00
  0
LINE
  8
SPLAY
  10
-428.67
  20
-1864.69
  30
0.00
  11
-492.85
  21
-1797.81
  31
0.00
  0
LINE
  8
SPLAY
  10
-428.67
  20
-1864.69
  30
0.00
  11
-466.73
  21
-1828.94
  31
0.00
  0
LINE
  8
SPLAY
  10
-428.67
  20
-1864.69
  30
0.00
  11
-522.64
  21
-1816.95
  31
0.00
  0
LINE
  8
SPLAY
  10
-428.67
  20
-1864.69
  30
0.00
  11
-524.72
  21
-1837.22
  31
0.00
  0
LINE
  8
SPLAY
  10
-428.67
  20
-1864.69
  30
0.00
  11
-495.90
  21
-1850.56
  31
0.00
  0
LINE
  8
SPLAY
  10
-428.67
  20
-1864.69
  30
0.00
  11
-492.46
  21
-1850.56
  31
0.00
  0
LINE
  8
SPLAY
  10
-428.67
  20
-1864.69
  30
0.00
  11
-480.80
  21
-1875.78
  31
0.00
  0
LINE
  8
SPLAY
  10
-428.67
  20
-1864.69
  30
0.00
  11
-388.73
  21
-1864.69
  31
0.00
  0
LINE
  8
SPLAY
  10
-428.67
  20
-1864.69
  30
0.00
  11
-487.03
  21
-1732.90
  31
0.00
  0
LINE
  8
SPLAY
  10
-428.67
  20
-1864.69
  30
0.00
  11
-498.95
  21
-1461.27
  31
0.00
  0
LINE
  8
SPLAY
  10
-428.67
  20
-1864.69
  30
0.00
  11
-517.59
  21
-1594.66
  31
0.00
  0
LINE
  8
SPLAY
  10
-428.67
  20
-1864.69
  30
0.00
  11
-495.14
  21
-1861.32
  31
0.00
  0
LINE
  8
SPLAY
  10
-428.67
  20
-1864.69
  30
0.00
  11
-512.61
  21
-1848.12
  31
0.00
  0
LINE
  8
SPLAY
  10
-428.67
  20
-1864.69
  30
0.00
  11
-460.42
  21
-1966.41
  31
0.00
  0
LINE
  8
SPLAY
  10
-484.81
  20
-1990.10
  30
0.00
  11
-559.06
  21
-2035.02
  31
0.00
  0
LINE
  8
SPLAY
  10
-484.81
  20
-1990.10
  30
0.00
  11
-569.56
  21
-2020.02
  31
0.00
  0
LINE
  8
SPLAY
  10
-484.81
  20
-1990.10
  30
0.00
  11
-548.08
  21
-2051.87
  31
0.00
  0
LINE
  8
SPLAY
  10
-484.81
  20
-1990.10
  30
0.00
  11
-509.21
  21
-2022.47
  31
0.00
  0
LINE
  8
SPLAY
  10
-484.81
  20
-1990.10
  30
0.00
  11
-499.50
  21
-2009.33
  31
0.00
  0
LINE
  8
SPLAY
  10
-484.81
  20
-1990.10
  30
0.00
  11
-531.01
  21
-1990.82
  31
0.00
  0
LINE
  8
SPLAY
  10
-484.81
  20
-1990.10
  30
0.00
  11
-459.21
  21
-1992.57
  31
0.00
  0
LINE
  8
SPLAY
  10
-484.81
  20
-1990.10
  30
0.00
  11
-439.53
  21
-1979.70
  31
0.00
  0
LINE
  8
SPLAY
  10
-484.81
  20
-1990.10
  30
0.00
  11
-475.69
  21
-1989.02
  31
0.00
  0
LINE
  8
SPLAY
  10
-484.81
  20
-1990.10
  30
0.00
  11
-535.72
  21
-2001.36
  31
0.00
  0
LINE
  8
SPLAY
  10
-484.81
  20
-1990.10
  30
0.00
  11
-515.04
  21
-1943.86
  31
0.00
  0
LINE
  8
SPLAY
  10
-484.81
  20
-1990.10
  30
0.00
  11
-503.07
  21
-2144.98
  31
0.00
  0
LINE
  8
SPLAY
  10
-484.81
  20
-1990.10
  30
0.00
  11
-460.71
  21
-2171.36
  31
0.00
  0
LINE
  8
SPLAY
  10
-429.68
  20
-2163.87
  30
0.00
  11
-513.44
  21
-2163.80
  31
0.00
  0
LINE
  8
SPLAY
  10
-429.68
  20
-2163.87
  30
0.00
  11
-501.11
  21
-2166.98
  31
0.00
  0
LINE
  8
SPLAY
  10
-429.68
  20
-2163.87
  30
0.00
  11
-495.56
  21
-2164.55
  31
0.00
  0
LINE
  8
SPLAY
  10
-429.68
  20
-2163.87
  30
0.00
  11
-470.05
  21
-2154.61
  31
0.00
  0
LINE
  8
SPLAY
  10
-429.68
  20
-2163.87
  30
0.00
  11
-389.70
  21
-2150.05
  31
0.00
  0
LINE
  8
SPLAY
  10
-429.68
  20
-2163.87
  30
0.00
  11
-412.61
  21
-2141.56
  31
0.00
  0
LINE
  8
SPLAY
  10
-429.68
  20
-2163.87
  30
0.00
  11
-367.92
  21
-2284.03
  31
0.00
  0
LINE
  8
SPLAY
  10
-429.68
  20
-2163.87
  30
0.00
  11
-380.74
  21
-2344.23
  31
0.00
  0
LINE
  8
SPLAY
  10
-429.68
  20
-2163.87
  30
0.00
  11
-391.61
  21
-2346.67
  31
0.00
  0
LINE
  8
SPLAY
  10
-429.68
  20
-2163.87
  30
0.00
  11
-537.59
  21
-2016.91
  31
0.00
  0
LINE
  8
SPLAY
  10
-429.68
  20
-2163.87
  30
0.00
  11
-565.27
  21
-1974.68
  31
0.00
  0
LINE
  8
SPLAY
  10
-429.68
  20
-2163.87
  30
0.00
  11
-526.32
  21
-2021.18
  31
0.00
  0
LINE
  8
SPLAY
  10
-429.68
  20
-2163.87
  30
0.00
  11
-453.23
  21
-2093.30
  31
0.00
  0
LINE
  8
SPLAY
  10
-429.68
  20
-2163.87
  30
0.00
  11
-423.99
  21
-2094.32
  31
0.00
  0
LINE
  8
SPLAY
  10
-429.68
  20
-2163.87
  30
0.00
  11
-413.36
  21
-2164.57
  31
0.00
  0
LINE
  8
SPLAY
  10
-429.68
  20
-2163.87
  30
0.00
  11
-356.58
  21
-2395.01
  31
0.00
  0
LINE
  8
SPLAY
  10
-308.71
  20
-2388.75
  30
0.00
  11
-257.89
  21
-2436.22
  31
0.00
  0
LINE
  8
SPLAY
  10
-308.71
  20
-2388.75
  30
0.00
  11
-258.72
  21
-2459.54
  31
0.00
  0
LINE
  8
SPLAY
  10
-308.71
  20
-2388.75
  30
0.00
  11
-231.57
  21
-2500.30
  31
0.00
  0
LINE
  8
SPLAY
  10
-308.71
  20
-2388.75
  30
0.00
  11
-135.72
  21
-2745.08
  31
0.00
  0
LINE
  8
SPLAY
  10
-308.71
  20
-2388.75
  30
0.00
  11
-272.74
  21
-2521.42
  31
0.00
  0
POLYLINE
  8
L_wall
  66
1
  70
0
  0
VERTEX
  8
L_wall
  10
123.00
  20
-86.17
  30
0.00
  0
VERTEX
  8
L_wall
  10
123.00
  20
-94.71
  30
0.00
  0
VERTEX
  8
L_wall
  10
119.97
  20
-101.90
  30
0.00
  0
VERTEX
  8
L_wall
  10
113.14
  20
-107.27
  30
0.00
  0
VERTEX
  8
L_wall
  10
109.35
  20
-113.86
  30
0.00
  0
VERTEX
  8
L_wall
  10
108.59
  20
-122.05
  30
0.00
  0
VERTEX
  8
L_wall
  10
107.83
  20
-129.68
  30
0.00
  0
VERTEX
  8
L_wall
  10
109.35
  20
-138.38
  30
0.00
  0
VERTEX
  8
L_wall
  10
113.19
  20
-145.45
  30
0.00
  0
VERTEX
  8
L_wall
  10
115.42
  20
-152.83
  30
0.00
  0
VERTEX
  8
L_wall
  10
118.83
  20
-160.53
  30
0.00
  0
VERTEX
  8
L_wall
  10
120.72
  20
-170.85
  30
0.00
  0
VERTEX
  8
L_wall
  10
122.24
  20
-178.95
  30
0.00
  0
VERTEX
  8
L_wall
  10
123.76
  20
-188.45
  30
0.00
  0
VERTEX
  8
L_wall
  10
124.52
  20
-196.31
  30
0.00
  0
VERTEX
  8
L_wall
  10
126.03
  20
-204.05
  30
0.00
  0
VERTEX
  8
L_wall
  10
127.41
  20
-212.75
  30
0.00
  0
VERTEX
  8
L_wall
  10
126.79
  20
-220.33
  30
0.00
  0
VERTEX
  8
L_wall
  10
127.55
  20
-227.93
  30
0.00
  0
VERTEX
  8
L_wall
  10
127.55
  20
-235.95
  30
0.00
  0
VERTEX
  8
L_wall
  10
126.79
  20
-244.38
  30
0.00
  0
VERTEX
  8
L_wall
  10
126.03
  20
-252.97
  30
0.00
  0
VERTEX
  8
L_wall
  10
121.39
  20
-259.27
  30
0.00
  0
VERTEX
  8
L_wall
  10
115.12
  20
-263.73
  30
0.00
  0
VERTEX
  8
L_wall
  10
108.41
  20
-268.46
  30
0.00
  0
VERTEX
  8
L_wall
  10
100.97
  20
-271.32
  30
0.00
  0
VERTEX
  8
L_wall
  10
93.02
  20
-273.59
  30
0.00
  0
VERTEX
  8
L_wall
  10
87.35
  20
-279.13
  30
0.00
  0
VERTEX
  8
L_wall
  10
83.56
  20
-288.08
  30
0.00
  0
VERTEX
  8
L_wall
  10
81.71
  20
-295.51
  30
0.00
  0
VERTEX
  8
L_wall
  10
82.04
  20
-304.70
  30
0.00
  0
VERTEX
  8
L_wall
  10
81.29
  20
-314.06
  30
0.00
  0
VERTEX
  8
L_wall
  10
81.29
  20
-322.83
  30
0.00
  0
VERTEX
  8
L_wall
  10
82.04
  20
-330.78
  30
0.00
  0
VERTEX
  8
L_wall
  10
81.29
  20
-338.77
  30
0.00
  0
VERTEX
  8
L_wall
  10
82.04
  20
-346.82
  30
0.00
  0
VERTEX
  8
L_wall
  10
81.29
  20
-354.90
  30
0.00
  0
VERTEX
  8
L_wall
  10
80.53
  20
-362.46
  30
0.00
  0
VERTEX
  8
L_wall
  10
81.29
  20
-370.24
  30
0.00
  0
VERTEX
  8
L_wall
  10
81.29
  20
-377.93
  30
0.00
  0
VERTEX
  8
L_wall
  10
79.39
  20
-385.51
  30
0.00
  0
VERTEX
  8
L_wall
  10
72.70
  20
-391.33
  30
0.00
  0
VERTEX
  8
L_wall
  10
64.88
  20
-392.72
  30
0.00
  0
VERTEX
  8
L_wall
  10
58.49
  20
-397.32
  30
0.00
  0
VERTEX
  8
L_wall
  10
54.48
  20
-404.13
  30
0.00
  0
VERTEX
  8
L_wall
  10
48.39
  20
-410.46
  30
0.00
  0
VERTEX
  8
L_wall
  10
46.27
  20
-418.78
  30
0.00
  0
VERTEX
  8
L_wall
  10
44.55
  20
-427.53
  30
0.00
  0
VERTEX
  8
L_wall
  10
44.12
  20
-435.98
  30
0.00
  0
VERTEX
  8
L_wall
  10
44.12
  20
-443.64
  30
0.00
  0
VERTEX
  8
L_wall
  10
44.12
  20
-451.72
  30
0.00
  0
VERTEX
  8
L_wall
  10
44.36
  20
-459.74
  30
0.00
  0
VERTEX
  8
L_wall
  10
46.40
  20
-467.14
  30
0.00
  0
VERTEX
  8
L_wall
  10
44.88
  20
-475.05
  30
0.00
  0
VERTEX
  8
L_wall
  10
45.98
  20
-484.46
  30
0.00
  0
VERTEX
  8
L_wall
  10
44.12
  20
-492.44
  30
0.00
  0
VERTEX
  8
L_wall
  10
40.29
  20
-499.76
  30
0.00
  0
VERTEX
  8
L_wall
  10
34.70
  20
-506.11
  30
0.00
  0
VERTEX
  8
L_wall
  10
27.81
  20
-509.96
  30
0.00
  0
VERTEX
  8
L_wall
  10
21.05
  20
-513.70
  30
0.00
  0
VERTEX
  8
L_wall
  10
15.30
  20
-519.45
  30
0.00
  0
VERTEX
  8
L_wall
  10
7.06
  20
-522.95
  30
0.00
  0
VERTEX
  8
L_wall
  10
-0.70
  20
-523.24
  30
0.00
  0
VERTEX
  8
L_wall
  10
-8.85
  20
-523.24
  30
0.00
  0
VERTEX
  8
L_wall
  10
-17.56
  20
-521.72
  30
0.00
  0
VERTEX
  8
L_wall
  10
-25.16
  20
-520.20
  30
0.00
  0
VERTEX
  8
L_wall
  10
-32.95
  20
-517.93
  30
0.00
  0
VERTEX
  8
L_wall
  10
-40.31
  20
-515.65
  30
0.00
  0
VERTEX
  8
L_wall
  10
-48.57
  20
-515.65
  30
0.00
  0
VERTEX
  8
L_wall
  10
-56.13
  20
-514.76
  30
0.00
  0
SEQEND
  0
POLYLINE
  8
L_wall
  66
1
  70
0
  0
VERTEX
  8
L_wall
  10
59.29
  20
-86.93
  30
0.00
  0
VERTEX
  8
L_wall
  10
49.43
  20
-91.88
  30
0.00
  0
VERTEX
  8
L_wall
  10
47.03
  20
-100.08
  30
0.00
  0
VERTEX
  8
L_wall
  10
41.85
  20
-105.90
  30
0.00
  0
VERTEX
  8
L_wall
  10
38.05
  20
-112.73
  30
0.00
  0
VERTEX
  8
L_wall
  10
35.02
  20
-120.10
  30
0.00
  0
VERTEX
  8
L_wall
  10
32.74
  20
-127.94
  30
0.00
  0
VERTEX
  8
L_wall
  10
30.47
  20
-135.86
  30
0.00
  0
VERTEX
  8
L_wall
  10
30.47
  20
-144.09
  30
0.00
  0
VERTEX
  8
L_wall
  10
28.19
  20
-151.52
  30
0.00
  0
VERTEX
  8
L_wall
  10
25.92
  20
-158.82
  30
0.00
  0
VERTEX
  8
L_wall
  10
19.48
  20
-163.57
  30
0.00
  0
VERTEX
  8
L_wall
  10
15.68
  20
-171.15
  30
0.00
  0
VERTEX
  8
L_wall
  10
7.65
  20
-178.53
  30
0.00
  0
VERTEX
  8
L_wall
  10
2.79
  20
-184.43
  30
0.00
  0
VERTEX
  8
L_wall
  10
-1.75
  20
-191.61
  30
0.00
  0
VERTEX
  8
L_wall
  10
-6.78
  20
-197.75
  30
0.00
  0
VERTEX
  8
L_wall
  10
-9.23
  20
-206.57
  30
0.00
  0
VERTEX
  8
L_wall
  10
-10.49
  20
-214.52
  30
0.00
  0
VERTEX
  8
L_wall
  10
-13.10
  20
-222.33
  30
0.00
  0
VERTEX
  8
L_wall
  10
-12.76
  20
-230.07
  30
0.00
  0
VERTEX
  8
L_wall
  10
-15.80
  20
-237.80
  30
0.00
  0
VERTEX
  8
L_wall
  10
-19.96
  20
-244.37
  30
0.00
  0
VERTEX
  8
L_wall
  10
-23.38
  20
-253.58
  30
0.00
  0
VERTEX
  8
L_wall
  10
-23.38
  20
-261.54
  30
0.00
  0
VERTEX
  8
L_wall
  10
-23.25
  20
-269.30
  30
0.00
  0
VERTEX
  8
L_wall
  10
-23.38
  20
-277.59
  30
0.00
  0
VERTEX
  8
L_wall
  10
-24.14
  20
-285.35
  30
0.00
  0
VERTEX
  8
L_wall
  10
-25.66
  20
-293.33
  30
0.00
  0
VERTEX
  8
L_wall
  10
-27.17
  20
-301.15
  30
0.00
  0
VERTEX
  8
L_wall
  10
-34.82
  20
-303.19
  30
0.00
  0
VERTEX
  8
L_wall
  10
-42.56
  20
-304.81
  30
0.00
  0
VERTEX
  8
L_wall
  10
-47.53
  20
-312.80
  30
0.00
  0
VERTEX
  8
L_wall
  10
-51.25
  20
-320.25
  30
0.00
  0
VERTEX
  8
L_wall
  10
-56.05
  20
-326.82
  30
0.00
  0
VERTEX
  8
L_wall
  10
-60.84
  20
-334.19
  30
0.00
  0
VERTEX
  8
L_wall
  10
-64.87
  20
-341.66
  30
0.00
  0
VERTEX
  8
L_wall
  10
-68.44
  20
-350.10
  30
0.00
  0
VERTEX
  8
L_wall
  10
-70.72
  20
-359.22
  30
0.00
  0
VERTEX
  8
L_wall
  10
-70.40
  20
-367.42
  30
0.00
  0
VERTEX
  8
L_wall
  10
-71.95
  20
-375.30
  30
0.00
  0
VERTEX
  8
L_wall
  10
-74.20
  20
-384.85
  30
0.00
  0
VERTEX
  8
L_wall
  10
-77.33
  20
-392.06
  30
0.00
  0
SEQEND
  0
INSERT
  8
POINT
  2
P_water-flow
  41
10.00
  42
10.00
  50
179.00
  10
104.99
  20
-144.20
  30
0.00
  0
INSERT
  8
POINT
  2
P_water-flow
  41
10.00
  42
10.00
  50
179.00
  10
115.42
  20
-227.68
  30
0.00
  0
INSERT
  8
POINT
  2
P_water-flow
  41
10.00
  42
10.00
  50
179.00
  10
85.49
  20
-273.98
  30
0.00
  0
INSERT
  8
POINT
  2
P_water-flow
  41
10.00
  42
10.00
  50
179.00
  10
73.71
  20
-337.83
  30
0.00
  0
INSERT
  8
POINT
  2
P_water-flow
  41
10.00
  42
10.00
  50
179.00
  10
37.30
  20
-426.87
  30
0.00
  0
INSERT
  8
POINT
  2
P_water-flow
  41
10.00
  42
10.00
  50
179.00
  10
38.81
  20
-499.84
  30
0.00
  0
INSERT
  8
POINT
  2
P_water-flow
  41
10.00
  42
10.00
  50
93.00
  10
-29.62
  20
-515.30
  30
0.00
  0
POLYLINE
  8
L_wall
  66
1
  70
0
  0
VERTEX
  8
L_wall
  10
-77.33
  20
-392.06
  30
0.00
  0
VERTEX
  8
L_wall
  10
-71.53
  20
-394.53
  30
0.00
  0
VERTEX
  8
L_wall
  10
-74.56
  20
-414.99
  30
0.00
  0
VERTEX
  8
L_wall
  10
-83.04
  20
-428.48
  30
0.00
  0
VERTEX
  8
L_wall
  10
-86.04
  20
-442.90
  30
0.00
  0
VERTEX
  8
L_wall
  10
-88.81
  20
-458.78
  30
0.00
  0
SEQEND
  0
POLYLINE
  8
L_wall
  66
1
  70
0
  0
VERTEX
  8
L_wall
  10
-88.81
  20
-458.78
  30
0.00
  0
VERTEX
  8
L_wall
  10
-91.81
  20
-470.77
  30
0.00
  0
VERTEX
  8
L_wall
  10
-98.89
  20
-479.72
  30
0.00
  0
SEQEND
  0
POLYLINE
  8
L_wall
  66
1
  70
0
  0
VERTEX
  8
L_wall
  10
-56.13
  20
-514.76
  30
0.00
  0
VERTEX
  8
L_wall
  10
-53.13
  20
-527.90
  30
0.00
  0
VERTEX
  8
L_wall
  10
-54.38
  20
-545.32
  30
0.00
  0
VERTEX
  8
L_wall
  10
-60.39
  20
-561.12
  30
0.00
  0
VERTEX
  8
L_wall
  10
-73.81
  20
-573.60
  30
0.00
  0
VERTEX
  8
L_wall
  10
-90.06
  20
-578.13
  30
0.00
  0
VERTEX
  8
L_wall
  10
-107.89
  20
-578.13
  30
0.00
  0
SEQEND
  0
POLYLINE
  8
L_wall
  66
1
  70
0
  0
VERTEX
  8
L_wall
  10
-98.02
  20
-475.18
  30
0.00
  0
VERTEX
  8
L_wall
  10
-100.88
  20
-492.09
  30
0.00
  0
VERTEX
  8
L_wall
  10
-106.34
  20
-506.69
  30
0.00
  0
VERTEX
  8
L_wall
  10
-108.99
  20
-522.49
  30
0.00
  0
VERTEX
  8
L_wall
  10
-110.21
  20
-538.10
  30
0.00
  0
VERTEX
  8
L_wall
  10
-119.35
  20
-551.64
  30
0.00
  0
SEQEND
  0
INSERT
  8
POINT
  2
P_water-flow
  41
10.00
  42
10.00
  50
93.00
  10
-82.13
  20
-574.35
  30
0.00
  0
INSERT
  8
POINT
  2
P_debris
  41
10.00
  42
10.00
  50
360.00
  10
-80.78
  20
-569.40
  30
0.00
  0
INSERT
  8
POINT
  2
P_debris
  41
10.00
  42
10.00
  50
360.00
  10
-92.62
  20
-572.99
  30
0.00
  0
POLYLINE
  8
L_wall
  66
1
  70
0
  0
VERTEX
  8
L_wall
  10
-107.89
  20
-578.13
  30
0.00
  0
VERTEX
  8
L_wall
  10
-111.11
  20
-585.27
  30
0.00
  0
VERTEX
  8
L_wall
  10
-112.52
  20
-590.73
  30
0.00
  0
VERTEX
  8
L_wall
  10
-117.14
  20
-594.35
  30
0.00
  0
VERTEX
  8
L_wall
  10
-123.38
  20
-596.16
  30
0.00
  0
VERTEX
  8
L_wall
  10
-129.83
  20
-595.73
  30
0.00
  0
VERTEX
  8
L_wall
  10
-135.94
  20
-595.05
  30
0.00
  0
VERTEX
  8
L_wall
  10
-141.49
  20
-597.31
  30
0.00
  0
VERTEX
  8
L_wall
  10
-145.30
  20
-601.78
  30
0.00
  0
VERTEX
  8
L_wall
  10
-148.39
  20
-606.70
  30
0.00
  0
VERTEX
  8
L_wall
  10
-149.99
  20
-608.78
  30
0.00
  0
SEQEND
  0
POLYLINE
  8
L_wall
  66
1
  70
0
  0
VERTEX
  8
L_wall
  10
-119.35
  20
-551.64
  30
0.00
  0
VERTEX
  8
L_wall
  10
-120.10
  20
-558.79
  30
0.00
  0
VERTEX
  8
L_wall
  10
-121.72
  20
-565.67
  30
0.00
  0
VERTEX
  8
L_wall
  10
-123.52
  20
-571.05
  30
0.00
  0
VERTEX
  8
L_wall
  10
-127.65
  20
-575.60
  30
0.00
  0
VERTEX
  8
L_wall
  10
-132.51
  20
-579.77
  30
0.00
  0
VERTEX
  8
L_wall
  10
-138.96
  20
-580.99
  30
0.00
  0
VERTEX
  8
L_wall
  10
-144.30
  20
-578.45
  30
0.00
  0
VERTEX
  8
L_wall
  10
-150.13
  20
-576.85
  30
0.00
  0
VERTEX
  8
L_wall
  10
-156.15
  20
-575.37
  30
0.00
  0
SEQEND
  0
POLYLINE
  8
L_wall
  66
1
  70
0
  0
VERTEX
  8
L_wall
  10
-149.99
  20
-608.78
  30
0.00
  0
VERTEX
  8
L_wall
  10
-156.57
  20
-607.41
  30
0.00
  0
VERTEX
  8
L_wall
  10
-161.59
  20
-604.15
  30
0.00
  0
VERTEX
  8
L_wall
  10
-164.72
  20
-603.05
  30
0.00
  0
SEQEND
  0
POLYLINE
  8
L_wall
  66
1
  70
0
  0
VERTEX
  8
L_wall
  10
-156.15
  20
-575.37
  30
0.00
  0
VERTEX
  8
L_wall
  10
-151.92
  20
-577.54
  30
0.00
  0
VERTEX
  8
L_wall
  10
-159.38
  20
-573.60
  30
0.00
  0
VERTEX
  8
L_wall
  10
-168.68
  20
-568.87
  30
0.00
  0
VERTEX
  8
L_wall
  10
-174.94
  20
-565.21
  30
0.00
  0
VERTEX
  8
L_wall
  10
-181.97
  20
-560.85
  30
0.00
  0
SEQEND
  0
POLYLINE
  8
L_wall
  66
1
  70
0
  0
VERTEX
  8
L_wall
  10
-181.97
  20
-560.85
  30
0.00
  0
VERTEX
  8
L_wall
  10
-189.38
  20
-560.43
  30
0.00
  0
VERTEX
  8
L_wall
  10
-194.38
  20
-566.23
  30
0.00
  0
VERTEX
  8
L_wall
  10
-200.02
  20
-573.94
  30
0.00
  0
VERTEX
  8
L_wall
  10
-201.82
  20
-580.71
  30
0.00
  0
VERTEX
  8
L_wall
  10
-205.72
  20
-586.01
  30
0.00
  0
VERTEX
  8
L_wall
  10
-206.79
  20
-593.01
  30
0.00
  0
VERTEX
  8
L_wall
  10
-209.38
  20
-599.24
  30
0.00
  0
VERTEX
  8
L_wall
  10
-213.41
  20
-604.99
  30
0.00
  0
VERTEX
  8
L_wall
  10
-219.02
  20
-606.39
  30
0.00
  0
VERTEX
  8
L_wall
  10
-225.26
  20
-604.16
  30
0.00
  0
VERTEX
  8
L_wall
  10
-218.92
  20
-605.44
  30
0.00
  0
VERTEX
  8
L_wall
  10
-225.56
  20
-603.50
  30
0.00
  0
VERTEX
  8
L_wall
  10
-235.45
  20
-607.91
  30
0.00
  0
VERTEX
  8
L_wall
  10
-244.39
  20
-607.37
  30
0.00
  0
VERTEX
  8
L_wall
  10
-250.63
  20
-610.40
  30
0.00
  0
VERTEX
  8
L_wall
  10
-257.53
  20
-613.16
  30
0.00
  0
VERTEX
  8
L_wall
  10
-263.56
  20
-613.99
  30
0.00
  0
VERTEX
  8
L_wall
  10
-269.42
  20
-617.05
  30
0.00
  0
VERTEX
  8
L_wall
  10
-274.62
  20
-620.88
  30
0.00
  0
VERTEX
  8
L_wall
  10
-278.86
  20
-625.28
  30
0.00
  0
VERTEX
  8
L_wall
  10
-281.24
  20
-630.68
  30
0.00
  0
VERTEX
  8
L_wall
  10
-282.72
  20
-637.10
  30
0.00
  0
VERTEX
  8
L_wall
  10
-283.75
  20
-643.96
  30
0.00
  0
VERTEX
  8
L_wall
  10
-284.67
  20
-650.06
  30
0.00
  0
VERTEX
  8
L_wall
  10
-286.32
  20
-656.12
  30
0.00
  0
VERTEX
  8
L_wall
  10
-287.58
  20
-662.89
  30
0.00
  0
VERTEX
  8
L_wall
  10
-287.86
  20
-669.16
  30
0.00
  0
VERTEX
  8
L_wall
  10
-287.58
  20
-676.47
  30
0.00
  0
VERTEX
  8
L_wall
  10
-287.86
  20
-681.89
  30
0.00
  0
VERTEX
  8
L_wall
  10
-289.26
  20
-688.29
  30
0.00
  0
VERTEX
  8
L_wall
  10
-289.24
  20
-695.13
  30
0.00
  0
VERTEX
  8
L_wall
  10
-288.41
  20
-702.24
  30
0.00
  0
VERTEX
  8
L_wall
  10
-289.24
  20
-707.78
  30
0.00
  0
VERTEX
  8
L_wall
  10
-291.30
  20
-713.16
  30
0.00
  0
VERTEX
  8
L_wall
  10
-296.41
  20
-716.61
  30
0.00
  0
VERTEX
  8
L_wall
  10
-302.37
  20
-718.21
  30
0.00
  0
VERTEX
  8
L_wall
  10
-305.22
  20
-718.81
  30
0.00
  0
VERTEX
  8
L_wall
  10
-300.81
  20
-717.56
  30
0.00
  0
VERTEX
  8
L_wall
  10
-300.81
  20
-724.03
  30
0.00
  0
VERTEX
  8
L_wall
  10
-301.63
  20
-729.91
  30
0.00
  0
VERTEX
  8
L_wall
  10
-302.46
  20
-736.46
  30
0.00
  0
VERTEX
  8
L_wall
  10
-303.56
  20
-742.81
  30
0.00
  0
VERTEX
  8
L_wall
  10
-304.32
  20
-748.95
  30
0.00
  0
VERTEX
  8
L_wall
  10
-305.36
  20
-754.53
  30
0.00
  0
VERTEX
  8
L_wall
  10
-305.22
  20
-760.37
  30
0.00
  0
VERTEX
  8
L_wall
  10
-305.49
  20
-766.87
  30
0.00
  0
VERTEX
  8
L_wall
  10
-305.77
  20
-773.07
  30
0.00
  0
VERTEX
  8
L_wall
  10
-306.32
  20
-779.27
  30
0.00
  0
VERTEX
  8
L_wall
  10
-308.70
  20
-784.63
  30
0.00
  0
VERTEX
  8
L_wall
  10
-313.71
  20
-788.00
  30
0.00
  0
VERTEX
  8
L_wall
  10
-316.97
  20
-788.88
  30
0.00
  0
VERTEX
  8
L_wall
  10
-312.36
  20
-787.78
  30
0.00
  0
VERTEX
  8
L_wall
  10
-316.64
  20
-791.77
  30
0.00
  0
VERTEX
  8
L_wall
  10
-323.67
  20
-793.84
  30
0.00
  0
VERTEX
  8
L_wall
  10
-333.25
  20
-793.61
  30
0.00
  0
VERTEX
  8
L_wall
  10
-341.05
  20
-792.23
  30
0.00
  0
VERTEX
  8
L_wall
  10
-347.85
  20
-792.19
  30
0.00
  0
VERTEX
  8
L_wall
  10
-350.78
  20
-791.89
  30
0.00
  0
SEQEND
  0
INSERT
  8
POINT
  2
P_debris
  41
10.00
  42
10.00
  50
360.00
  10
-197.28
  20
-628.99
  30
0.00
  0
INSERT
  8
POINT
  2
P_debris
  41
10.00
  42
10.00
  50
360.00
  10
-188.06
  20
-618.18
  30
0.00
  0
INSERT
  8
POINT
  2
P_water-flow
  41
10.00
  42
10.00
  50
151.00
  10
-181.33
  20
-611.88
  30
0.00
  0
INSERT
  8
POINT
  2
P_debris
  41
10.00
  42
10.00
  50
360.00
  10
-252.70
  20
-750.96
  30
0.00
  0
INSERT
  8
POINT
  2
P_debris
  41
10.00
  42
10.00
  50
360.00
  10
-257.25
  20
-755.51
  30
0.00
  0
INSERT
  8
POINT
  2
P_water-flow
  41
10.00
  42
10.00
  50
161.00
  10
-235.93
  20
-737.30
  30
0.00
  0
INSERT
  8
POINT
  2
P_blocks
  41
10.00
  42
10.00
  50
360.00
  10
-315.97
  20
-833.85
  30
0.00
  0
INSERT
  8
POINT
  2
P_blocks
  41
10.00
  42
10.00
  50
360.00
  10
-325.35
  20
-844.29
  30
0.00
  0
INSERT
  8
POINT
  2
P_blocks
  41
10.00
  42
10.00
  50
360.00
  10
-331.41
  20
-843.22
  30
0.00
  0
INSERT
  8
POINT
  2
P_blocks
  41
10.00
  42
10.00
  50
360.00
  10
-303.37
  20
-859.50
  30
0.00
  0
INSERT
  8
POINT
  2
P_blocks
  41
10.00
  42
10.00
  50
360.00
  10
-321.50
  20
-857.22
  30
0.00
  0
INSERT
  8
POINT
  2
P_debris
  41
10.00
  42
10.00
  50
360.00
  10
-282.06
  20
-904.68
  30
0.00
  0
POLYLINE
  8
L_wall
  66
1
  70
0
  0
VERTEX
  8
L_wall
  10
-300.26
  20
-863.78
  30
0.00
  0
VERTEX
  8
L_wall
  10
-302.98
  20
-857.35
  30
0.00
  0
VERTEX
  8
L_wall
  10
-304.67
  20
-851.50
  30
0.00
  0
SEQEND
  0
POLYLINE
  8
L_wall
  66
1
  70
0
  0
VERTEX
  8
L_wall
  10
-158.81
  20
-605.81
  30
0.00
  0
VERTEX
  8
L_wall
  10
-165.56
  20
-602.92
  30
0.00
  0
VERTEX
  8
L_wall
  10
-171.85
  20
-600.85
  30
0.00
  0
VERTEX
  8
L_wall
  10
-176.70
  20
-607.00
  30
0.00
  0
VERTEX
  8
L_wall
  10
-180.72
  20
-613.11
  30
0.00
  0
VERTEX
  8
L_wall
  10
-184.84
  20
-619.85
  30
0.00
  0
VERTEX
  8
L_wall
  10
-187.86
  20
-625.25
  30
0.00
  0
VERTEX
  8
L_wall
  10
-191.44
  20
-630.69
  30
0.00
  0
VERTEX
  8
L_wall
  10
-198.73
  20
-633.37
  30
0.00
  0
VERTEX
  8
L_wall
  10
-204.93
  20
-635.33
  30
0.00
  0
VERTEX
  8
L_wall
  10
-210.99
  20
-635.16
  30
0.00
  0
VERTEX
  8
L_wall
  10
-209.82
  20
-638.26
  30
0.00
  0
VERTEX
  8
L_wall
  10
-209.06
  20
-646.29
  30
0.00
  0
VERTEX
  8
L_wall
  10
-207.42
  20
-651.82
  30
0.00
  0
VERTEX
  8
L_wall
  10
-206.79
  20
-658.37
  30
0.00
  0
VERTEX
  8
L_wall
  10
-206.90
  20
-665.08
  30
0.00
  0
VERTEX
  8
L_wall
  10
-209.13
  20
-670.95
  30
0.00
  0
VERTEX
  8
L_wall
  10
-212.27
  20
-676.55
  30
0.00
  0
VERTEX
  8
L_wall
  10
-216.76
  20
-680.22
  30
0.00
  0
VERTEX
  8
L_wall
  10
-220.79
  20
-684.55
  30
0.00
  0
VERTEX
  8
L_wall
  10
-221.79
  20
-690.36
  30
0.00
  0
VERTEX
  8
L_wall
  10
-223.70
  20
-696.28
  30
0.00
  0
VERTEX
  8
L_wall
  10
-227.75
  20
-700.75
  30
0.00
  0
VERTEX
  8
L_wall
  10
-228.57
  20
-706.43
  30
0.00
  0
VERTEX
  8
L_wall
  10
-230.20
  20
-712.17
  30
0.00
  0
VERTEX
  8
L_wall
  10
-232.57
  20
-717.30
  30
0.00
  0
VERTEX
  8
L_wall
  10
-235.74
  20
-722.16
  30
0.00
  0
VERTEX
  8
L_wall
  10
-236.57
  20
-727.76
  30
0.00
  0
VERTEX
  8
L_wall
  10
-236.25
  20
-733.80
  30
0.00
  0
VERTEX
  8
L_wall
  10
-235.47
  20
-740.23
  30
0.00
  0
VERTEX
  8
L_wall
  10
-235.19
  20
-747.10
  30
0.00
  0
VERTEX
  8
L_wall
  10
-237.28
  20
-752.91
  30
0.00
  0
VERTEX
  8
L_wall
  10
-244.34
  20
-754.88
  30
0.00
  0
VERTEX
  8
L_wall
  10
-251.18
  20
-755.51
  30
0.00
  0
VERTEX
  8
L_wall
  10
-258.51
  20
-755.23
  30
0.00
  0
VERTEX
  8
L_wall
  10
-265.23
  20
-754.41
  30
0.00
  0
VERTEX
  8
L_wall
  10
-271.41
  20
-752.63
  30
0.00
  0
VERTEX
  8
L_wall
  10
-274.06
  20
-753.84
  30
0.00
  0
VERTEX
  8
L_wall
  10
-269.98
  20
-755.66
  30
0.00
  0
VERTEX
  8
L_wall
  10
-268.18
  20
-762.39
  30
0.00
  0
VERTEX
  8
L_wall
  10
-267.55
  20
-769.10
  30
0.00
  0
VERTEX
  8
L_wall
  10
-267.44
  20
-775.35
  30
0.00
  0
VERTEX
  8
L_wall
  10
-267.17
  20
-782.68
  30
0.00
  0
VERTEX
  8
L_wall
  10
-267.72
  20
-789.31
  30
0.00
  0
VERTEX
  8
L_wall
  10
-267.78
  20
-796.44
  30
0.00
  0
VERTEX
  8
L_wall
  10
-267.44
  20
-802.26
  30
0.00
  0
VERTEX
  8
L_wall
  10
-267.44
  20
-808.05
  30
0.00
  0
VERTEX
  8
L_wall
  10
-267.44
  20
-814.85
  30
0.00
  0
VERTEX
  8
L_wall
  10
-267.17
  20
-820.48
  30
0.00
  0
VERTEX
  8
L_wall
  10
-267.17
  20
-825.55
  30
0.00
  0
VERTEX
  8
L_wall
  10
-266.89
  20
-826.12
  30
0.00
  0
VERTEX
  8
L_wall
  10
-266.61
  20
-832.23
  30
0.00
  0
VERTEX
  8
L_wall
  10
-266.34
  20
-838.43
  30
0.00
  0
VERTEX
  8
L_wall
  10
-266.34
  20
-847.34
  30
0.00
  0
VERTEX
  8
L_wall
  10
-266.61
  20
-855.58
  30
0.00
  0
VERTEX
  8
L_wall
  10
-266.34
  20
-863.64
  30
0.00
  0
VERTEX
  8
L_wall
  10
-267.17
  20
-871.95
  30
0.00
  0
VERTEX
  8
L_wall
  10
-267.17
  20
-878.65
  30
0.00
  0
VERTEX
  8
L_wall
  10
-267.82
  20
-885.76
  30
0.00
  0
VERTEX
  8
L_wall
  10
-270.75
  20
-896.05
  30
0.00
  0
VERTEX
  8
L_wall
  10
-273.39
  20
-902.03
  30
0.00
  0
VERTEX
  8
L_wall
  10
-279.57
  20
-906.53
  30
0.00
  0
VERTEX
  8
L_wall
  10
-284.57
  20
-908.61
  30
0.00
  0
VERTEX
  8
L_wall
  10
-289.23
  20
-904.46
  30
0.00
  0
SEQEND
  0
POLYLINE
  8
L_wall
  66
1
  70
0
  0
VERTEX
  8
L_wall
  10
-346.27
  20
-786.48
  30
0.00
  0
VERTEX
  8
L_wall
  10
-350.51
  20
-789.95
  30
0.00
  0
VERTEX
  8
L_wall
  10
-354.85
  20
-793.36
  30
0.00
  0
VERTEX
  8
L_wall
  10
-358.08
  20
-795.86
  30
0.00
  0
VERTEX
  8
L_wall
  10
-360.47
  20
-799.75
  30
0.00
  0
VERTEX
  8
L_wall
  10
-363.61
  20
-802.10
  30
0.00
  0
VERTEX
  8
L_wall
  10
-367.23
  20
-806.30
  30
0.00
  0
VERTEX
  8
L_wall
  10
-369.85
  20
-809.98
  30
0.00
  0
VERTEX
  8
L_wall
  10
-374.07
  20
-814.30
  30
0.00
  0
VERTEX
  8
L_wall
  10
-377.19
  20
-816.92
  30
0.00
  0
VERTEX
  8
L_wall
  10
-380.29
  20
-819.66
  30
0.00
  0
VERTEX
  8
L_wall
  10
-384.31
  20
-822.15
  30
0.00
  0
VERTEX
  8
L_wall
  10
-388.68
  20
-825.83
  30
0.00
  0
VERTEX
  8
L_wall
  10
-393.40
  20
-829.01
  30
0.00
  0
VERTEX
  8
L_wall
  10
-396.75
  20
-834.60
  30
0.00
  0
VERTEX
  8
L_wall
  10
-397.94
  20
-838.98
  30
0.00
  0
VERTEX
  8
L_wall
  10
-398.32
  20
-843.77
  30
0.00
  0
VERTEX
  8
L_wall
  10
-398.90
  20
-848.02
  30
0.00
  0
VERTEX
  8
L_wall
  10
-399.94
  20
-852.35
  30
0.00
  0
VERTEX
  8
L_wall
  10
-400.25
  20
-857.70
  30
0.00
  0
VERTEX
  8
L_wall
  10
-400.83
  20
-862.49
  30
0.00
  0
VERTEX
  8
L_wall
  10
-400.64
  20
-866.92
  30
0.00
  0
VERTEX
  8
L_wall
  10
-399.75
  20
-871.82
  30
0.00
  0
VERTEX
  8
L_wall
  10
-398.15
  20
-877.24
  30
0.00
  0
VERTEX
  8
L_wall
  10
-397.15
  20
-881.48
  30
0.00
  0
VERTEX
  8
L_wall
  10
-395.63
  20
-885.63
  30
0.00
  0
VERTEX
  8
L_wall
  10
-395.24
  20
-890.77
  30
0.00
  0
VERTEX
  8
L_wall
  10
-393.89
  20
-895.47
  30
0.00
  0
VERTEX
  8
L_wall
  10
-393.70
  20
-900.00
  30
0.00
  0
VERTEX
  8
L_wall
  10
-393.70
  20
-903.95
  30
0.00
  0
VERTEX
  8
L_wall
  10
-394.08
  20
-908.70
  30
0.00
  0
SEQEND
  0
POLYLINE
  8
L_wall
  66
1
  70
0
  0
VERTEX
  8
L_wall
  10
-317.34
  20
-907.24
  30
0.00
  0
VERTEX
  8
L_wall
  10
-321.05
  20
-905.15
  30
0.00
  0
VERTEX
  8
L_wall
  10
-323.80
  20
-902.32
  30
0.00
  0
SEQEND
  0
POLYLINE
  8
L_wall
  66
1
  70
0
  0
VERTEX
  8
L_wall
  10
-332.77
  20
-924.21
  30
0.00
  0
VERTEX
  8
L_wall
  10
-330.98
  20
-927.91
  30
0.00
  0
VERTEX
  8
L_wall
  10
-327.78
  20
-932.95
  30
0.00
  0
VERTEX
  8
L_wall
  10
-325.83
  20
-936.94
  30
0.00
  0
VERTEX
  8
L_wall
  10
-324.29
  20
-941.38
  30
0.00
  0
SEQEND
  0
POLYLINE
  8
L_wall
  66
1
  70
0
  0
VERTEX
  8
L_wall
  10
-303.46
  20
-968.58
  30
0.00
  0
VERTEX
  8
L_wall
  10
-303.06
  20
-973.69
  30
0.00
  0
VERTEX
  8
L_wall
  10
-300.96
  20
-979.37
  30
0.00
  0
SEQEND
  0
POLYLINE
  8
L_wall
  66
1
  70
0
  0
VERTEX
  8
L_wall
  10
-276.85
  20
-999.44
  30
0.00
  0
VERTEX
  8
L_wall
  10
-278.52
  20
-1003.79
  30
0.00
  0
VERTEX
  8
L_wall
  10
-280.12
  20
-1008.08
  30
0.00
  0
VERTEX
  8
L_wall
  10
-280.71
  20
-1014.10
  30
0.00
  0
VERTEX
  8
L_wall
  10
-281.10
  20
-1018.71
  30
0.00
  0
VERTEX
  8
L_wall
  10
-281.10
  20
-1023.40
  30
0.00
  0
VERTEX
  8
L_wall
  10
-280.52
  20
-1027.22
  30
0.00
  0
VERTEX
  8
L_wall
  10
-280.71
  20
-1033.00
  30
0.00
  0
VERTEX
  8
L_wall
  10
-280.33
  20
-1038.04
  30
0.00
  0
VERTEX
  8
L_wall
  10
-279.94
  20
-1043.81
  30
0.00
  0
SEQEND
  0
POLYLINE
  8
L_wall
  66
1
  70
0
  0
VERTEX
  8
L_wall
  10
-391.38
  20
-901.07
  30
0.00
  0
VERTEX
  8
L_wall
  10
-390.81
  20
-906.26
  30
0.00
  0
VERTEX
  8
L_wall
  10
-391.00
  20
-913.60
  30
0.00
  0
VERTEX
  8
L_wall
  10
-390.61
  20
-924.25
  30
0.00
  0
VERTEX
  8
L_wall
  10
-390.61
  20
-933.56
  30
0.00
  0
VERTEX
  8
L_wall
  10
-391.00
  20
-944.57
  30
0.00
  0
VERTEX
  8
L_wall
  10
-390.59
  20
-948.43
  30
0.00
  0
VERTEX
  8
L_wall
  10
-390.11
  20
-957.74
  30
0.00
  0
VERTEX
  8
L_wall
  10
-389.07
  20
-965.86
  30
0.00
  0
VERTEX
  8
L_wall
  10
-389.46
  20
-969.85
  30
0.00
  0
VERTEX
  8
L_wall
  10
-389.07
  20
-975.21
  30
0.00
  0
VERTEX
  8
L_wall
  10
-389.64
  20
-979.28
  30
0.00
  0
SEQEND
  0
INSERT
  8
POINT
  2
P_water-flow
  41
10.00
  42
10.00
  50
147.00
  10
-293.44
  20
-919.58
  30
0.00
  0
INSERT
  8
POINT
  2
P_water-flow
  41
10.00
  42
10.00
  50
147.00
  10
-297.68
  20
-971.54
  30
0.00
  0
INSERT
  8
POINT
  2
P_water-flow
  41
10.00
  42
10.00
  50
147.00
  10
-293.12
  20
-1005.06
  30
0.00
  0
POLYLINE
  8
L_wall
  66
1
  70
0
  0
VERTEX
  8
L_wall
  10
-387.40
  20
-953.94
  30
0.00
  0
VERTEX
  8
L_wall
  10
-396.11
  20
-975.22
  30
0.00
  0
VERTEX
  8
L_wall
  10
-403.57
  20
-996.10
  30
0.00
  0
VERTEX
  8
L_wall
  10
-406.29
  20
-1016.64
  30
0.00
  0
VERTEX
  8
L_wall
  10
-408.94
  20
-1032.58
  30
0.00
  0
VERTEX
  8
L_wall
  10
-414.19
  20
-1054.21
  30
0.00
  0
VERTEX
  8
L_wall
  10
-414.60
  20
-1071.91
  30
0.00
  0
VERTEX
  8
L_wall
  10
-412.72
  20
-1094.58
  30
0.00
  0
VERTEX
  8
L_wall
  10
-411.58
  20
-1115.57
  30
0.00
  0
VERTEX
  8
L_wall
  10
-412.34
  20
-1139.58
  30
0.00
  0
VERTEX
  8
L_wall
  10
-414.93
  20
-1175.58
  30
0.00
  0
VERTEX
  8
L_wall
  10
-417.91
  20
-1209.85
  30
0.00
  0
VERTEX
  8
L_wall
  10
-422.16
  20
-1234.84
  30
0.00
  0
VERTEX
  8
L_wall
  10
-427.27
  20
-1259.74
  30
0.00
  0
VERTEX
  8
L_wall
  10
-430.85
  20
-1279.45
  30
0.00
  0
VERTEX
  8
L_wall
  10
-433.88
  20
-1303.29
  30
0.00
  0
VERTEX
  8
L_wall
  10
-435.01
  20
-1330.72
  30
0.00
  0
VERTEX
  8
L_wall
  10
-438.03
  20
-1352.82
  30
0.00
  0
VERTEX
  8
L_wall
  10
-440.58
  20
-1376.88
  30
0.00
  0
VERTEX
  8
L_wall
  10
-443.46
  20
-1392.91
  30
0.00
  0
VERTEX
  8
L_wall
  10
-449.80
  20
-1395.06
  30
0.00
  0
VERTEX
  8
L_wall
  10
-441.49
  20
-1407.15
  30
0.00
  0
VERTEX
  8
L_wall
  10
-451.78
  20
-1415.48
  30
0.00
  0
VERTEX
  8
L_wall
  10
-469.75
  20
-1411.75
  30
0.00
  0
SEQEND
  0
POLYLINE
  8
L_wall
  66
1
  70
0
  0
VERTEX
  8
L_wall
  10
-276.85
  20
-999.44
  30
0.00
  0
VERTEX
  8
L_wall
  10
-287.63
  20
-1020.83
  30
0.00
  0
VERTEX
  8
L_wall
  10
-288.38
  20
-1047.86
  30
0.00
  0
VERTEX
  8
L_wall
  10
-291.21
  20
-1071.23
  30
0.00
  0
VERTEX
  8
L_wall
  10
-293.76
  20
-1096.11
  30
0.00
  0
VERTEX
  8
L_wall
  10
-298.57
  20
-1120.97
  30
0.00
  0
VERTEX
  8
L_wall
  10
-307.05
  20
-1143.81
  30
0.00
  0
VERTEX
  8
L_wall
  10
-309.55
  20
-1171.41
  30
0.00
  0
VERTEX
  8
L_wall
  10
-312.35
  20
-1195.95
  30
0.00
  0
VERTEX
  8
L_wall
  10
-313.33
  20
-1224.51
  30
0.00
  0
VERTEX
  8
L_wall
  10
-314.08
  20
-1244.78
  30
0.00
  0
VERTEX
  8
L_wall
  10
-315.59
  20
-1268.57
  30
0.00
  0
VERTEX
  8
L_wall
  10
-314.65
  20
-1287.62
  30
0.00
  0
VERTEX
  8
L_wall
  10
-314.84
  20
-1310.40
  30
0.00
  0
VERTEX
  8
L_wall
  10
-314.84
  20
-1327.22
  30
0.00
  0
VERTEX
  8
L_wall
  10
-316.35
  20
-1347.15
  30
0.00
  0
VERTEX
  8
L_wall
  10
-317.65
  20
-1366.81
  30
0.00
  0
VERTEX
  8
L_wall
  10
-319.80
  20
-1364.81
  30
0.00
  0
VERTEX
  8
L_wall
  10
-329.39
  20
-1380.45
  30
0.00
  0
VERTEX
  8
L_wall
  10
-343.23
  20
-1392.79
  30
0.00
  0
VERTEX
  8
L_wall
  10
-348.88
  20
-1411.26
  30
0.00
  0
VERTEX
  8
L_wall
  10
-346.26
  20
-1430.88
  30
0.00
  0
VERTEX
  8
L_wall
  10
-348.61
  20
-1447.50
  30
0.00
  0
VERTEX
  8
L_wall
  10
-357.89
  20
-1461.90
  30
0.00
  0
VERTEX
  8
L_wall
  10
-372.90
  20
-1471.75
  30
0.00
  0
VERTEX
  8
L_wall
  10
-389.15
  20
-1477.01
  30
0.00
  0
VERTEX
  8
L_wall
  10
-404.45
  20
-1483.91
  30
0.00
  0
VERTEX
  8
L_wall
  10
-423.44
  20
-1481.74
  30
0.00
  0
VERTEX
  8
L_wall
  10
-438.68
  20
-1481.26
  30
0.00
  0
VERTEX
  8
L_wall
  10
-449.72
  20
-1477.79
  30
0.00
  0
SEQEND
  0
INSERT
  8
POINT
  2
P_water-flow
  41
10.00
  42
10.00
  50
147.00
  10
-325.92
  20
-1165.19
  30
0.00
  0
INSERT
  8
POINT
  2
P_water-flow
  41
10.00
  42
10.00
  50
147.00
  10
-341.43
  20
-1240.74
  30
0.00
  0
INSERT
  8
POINT
  2
P_water-flow
  41
10.00
  42
10.00
  50
147.00
  10
-343.51
  20
-1276.70
  30
0.00
  0
INSERT
  8
POINT
  2
P_water-flow
  41
10.00
  42
10.00
  50
147.00
  10
-353.93
  20
-1328.63
  30
0.00
  0
INSERT
  8
POINT
  2
P_water-flow
  41
10.00
  42
10.00
  50
147.00
  10
-371.48
  20
-1374.37
  30
0.00
  0
HATCH
  8
A_water
  210
0.00
  220
0.00
  230
1.00
  70
1
  71
1
  91
1
  92
3
  93
6
  72
0
  73
1
  10
-365.91
  20
-1471.43
  10
-379.28
  20
-1466.90
  10
-394.63
  20
-1470.30
  10
-410.99
  20
-1474.46
  10
-415.42
  20
-1484.66
  10
-398.41
  20
-1486.94
  0
POLYLINE
  8
L_wall
  66
1
  70
0
  0
VERTEX
  8
L_wall
  10
-462.30
  20
-1411.75
  30
0.00
  0
VERTEX
  8
L_wall
  10
-470.21
  20
-1411.96
  30
0.00
  0
VERTEX
  8
L_wall
  10
-483.53
  20
-1413.14
  30
0.00
  0
VERTEX
  8
L_wall
  10
-491.18
  20
-1415.55
  30
0.00
  0
VERTEX
  8
L_wall
  10
-500.57
  20
-1419.36
  30
0.00
  0
VERTEX
  8
L_wall
  10
-507.82
  20
-1422.74
  30
0.00
  0
VERTEX
  8
L_wall
  10
-516.64
  20
-1428.86
  30
0.00
  0
VERTEX
  8
L_wall
  10
-524.32
  20
-1434.03
  30
0.00
  0
VERTEX
  8
L_wall
  10
-528.42
  20
-1442.08
  30
0.00
  0
VERTEX
  8
L_wall
  10
-532.75
  20
-1450.30
  30
0.00
  0
VERTEX
  8
L_wall
  10
-536.24
  20
-1457.07
  30
0.00
  0
VERTEX
  8
L_wall
  10
-536.02
  20
-1465.23
  30
0.00
  0
VERTEX
  8
L_wall
  10
-536.78
  20
-1473.89
  30
0.00
  0
VERTEX
  8
L_wall
  10
-537.54
  20
-1482.84
  30
0.00
  0
VERTEX
  8
L_wall
  10
-539.82
  20
-1494.86
  30
0.00
  0
VERTEX
  8
L_wall
  10
-539.82
  20
-1502.58
  30
0.00
  0
VERTEX
  8
L_wall
  10
-539.44
  20
-1510.97
  30
0.00
  0
VERTEX
  8
L_wall
  10
-543.03
  20
-1520.06
  30
0.00
  0
VERTEX
  8
L_wall
  10
-548.05
  20
-1527.07
  30
0.00
  0
VERTEX
  8
L_wall
  10
-551.82
  20
-1537.18
  30
0.00
  0
VERTEX
  8
L_wall
  10
-555.25
  20
-1544.43
  30
0.00
  0
VERTEX
  8
L_wall
  10
-556.53
  20
-1552.78
  30
0.00
  0
VERTEX
  8
L_wall
  10
-556.53
  20
-1563.19
  30
0.00
  0
VERTEX
  8
L_wall
  10
-557.29
  20
-1571.05
  30
0.00
  0
VERTEX
  8
L_wall
  10
-555.55
  20
-1579.90
  30
0.00
  0
VERTEX
  8
L_wall
  10
-552.86
  20
-1591.56
  30
0.00
  0
VERTEX
  8
L_wall
  10
-550.34
  20
-1601.50
  30
0.00
  0
VERTEX
  8
L_wall
  10
-548.38
  20
-1611.10
  30
0.00
  0
VERTEX
  8
L_wall
  10
-546.65
  20
-1618.93
  30
0.00
  0
VERTEX
  8
L_wall
  10
-544.37
  20
-1628.05
  30
0.00
  0
VERTEX
  8
L_wall
  10
-542.05
  20
-1636.16
  30
0.00
  0
VERTEX
  8
L_wall
  10
-540.58
  20
-1644.14
  30
0.00
  0
VERTEX
  8
L_wall
  10
-536.42
  20
-1653.05
  30
0.00
  0
VERTEX
  8
L_wall
  10
-534.79
  20
-1660.68
  30
0.00
  0
VERTEX
  8
L_wall
  10
-530.70
  20
-1668.64
  30
0.00
  0
VERTEX
  8
L_wall
  10
-527.66
  20
-1676.85
  30
0.00
  0
VERTEX
  8
L_wall
  10
-524.76
  20
-1685.79
  30
0.00
  0
VERTEX
  8
L_wall
  10
-523.86
  20
-1694.17
  30
0.00
  0
VERTEX
  8
L_wall
  10
-522.50
  20
-1704.38
  30
0.00
  0
VERTEX
  8
L_wall
  10
-521.27
  20
-1712.55
  30
0.00
  0
VERTEX
  8
L_wall
  10
-520.82
  20
-1723.46
  30
0.00
  0
VERTEX
  8
L_wall
  10
-520.06
  20
-1733.71
  30
0.00
  0
VERTEX
  8
L_wall
  10
-519.25
  20
-1743.46
  30
0.00
  0
VERTEX
  8
L_wall
  10
-519.30
  20
-1753.23
  30
0.00
  0
VERTEX
  8
L_wall
  10
-516.98
  20
-1762.40
  30
0.00
  0
VERTEX
  8
L_wall
  10
-514.36
  20
-1772.12
  30
0.00
  0
VERTEX
  8
L_wall
  10
-513.09
  20
-1780.88
  30
0.00
  0
VERTEX
  8
L_wall
  10
-507.90
  20
-1788.09
  30
0.00
  0
VERTEX
  8
L_wall
  10
-503.53
  20
-1799.11
  30
0.00
  0
VERTEX
  8
L_wall
  10
-500.93
  20
-1807.48
  30
0.00
  0
VERTEX
  8
L_wall
  10
-498.40
  20
-1815.83
  30
0.00
  0
VERTEX
  8
L_wall
  10
-496.69
  20
-1824.20
  30
0.00
  0
VERTEX
  8
L_wall
  10
-496.12
  20
-1831.80
  30
0.00
  0
SEQEND
  0
POLYLINE
  8
L_wall
  66
1
  70
0
  0
VERTEX
  8
L_wall
  10
-448.62
  20
-1483.98
  30
0.00
  0
VERTEX
  8
L_wall
  10
-449.38
  20
-1492.34
  30
0.00
  0
VERTEX
  8
L_wall
  10
-448.62
  20
-1500.32
  30
0.00
  0
VERTEX
  8
L_wall
  10
-447.86
  20
-1511.16
  30
0.00
  0
VERTEX
  8
L_wall
  10
-446.33
  20
-1520.54
  30
0.00
  0
VERTEX
  8
L_wall
  10
-446.35
  20
-1531.11
  30
0.00
  0
VERTEX
  8
L_wall
  10
-444.83
  20
-1543.28
  30
0.00
  0
VERTEX
  8
L_wall
  10
-442.55
  20
-1550.85
  30
0.00
  0
VERTEX
  8
L_wall
  10
-440.02
  20
-1562.73
  30
0.00
  0
VERTEX
  8
L_wall
  10
-437.78
  20
-1573.60
  30
0.00
  0
VERTEX
  8
L_wall
  10
-437.99
  20
-1584.81
  30
0.00
  0
VERTEX
  8
L_wall
  10
-436.40
  20
-1593.07
  30
0.00
  0
VERTEX
  8
L_wall
  10
-435.96
  20
-1603.61
  30
0.00
  0
VERTEX
  8
L_wall
  10
-436.78
  20
-1613.17
  30
0.00
  0
VERTEX
  8
L_wall
  10
-438.03
  20
-1621.76
  30
0.00
  0
VERTEX
  8
L_wall
  10
-435.98
  20
-1630.37
  30
0.00
  0
VERTEX
  8
L_wall
  10
-434.76
  20
-1638.30
  30
0.00
  0
VERTEX
  8
L_wall
  10
-434.95
  20
-1647.65
  30
0.00
  0
VERTEX
  8
L_wall
  10
-434.19
  20
-1655.35
  30
0.00
  0
VERTEX
  8
L_wall
  10
-432.67
  20
-1663.87
  30
0.00
  0
VERTEX
  8
L_wall
  10
-428.49
  20
-1672.15
  30
0.00
  0
VERTEX
  8
L_wall
  10
-427.24
  20
-1680.67
  30
0.00
  0
VERTEX
  8
L_wall
  10
-422.60
  20
-1688.86
  30
0.00
  0
VERTEX
  8
L_wall
  10
-415.83
  20
-1697.10
  30
0.00
  0
VERTEX
  8
L_wall
  10
-413.16
  20
-1704.99
  30
0.00
  0
VERTEX
  8
L_wall
  10
-412.15
  20
-1713.69
  30
0.00
  0
VERTEX
  8
L_wall
  10
-410.63
  20
-1723.08
  30
0.00
  0
VERTEX
  8
L_wall
  10
-409.87
  20
-1731.32
  30
0.00
  0
VERTEX
  8
L_wall
  10
-407.29
  20
-1739.26
  30
0.00
  0
VERTEX
  8
L_wall
  10
-408.44
  20
-1747.47
  30
0.00
  0
SEQEND
  0
POLYLINE
  8
L_wall
  66
1
  70
0
  0
VERTEX
  8
L_wall
  10
-397.95
  20
-1741.81
  30
0.00
  0
VERTEX
  8
L_wall
  10
-397.95
  20
-1753.40
  30
0.00
  0
VERTEX
  8
L_wall
  10
-399.55
  20
-1767.85
  30
0.00
  0
VERTEX
  8
L_wall
  10
-403.75
  20
-1784.53
  30
0.00
  0
VERTEX
  8
L_wall
  10
-408.21
  20
-1798.81
  30
0.00
  0
VERTEX
  8
L_wall
  10
-412.74
  20
-1814.25
  30
0.00
  0
VERTEX
  8
L_wall
  10
-414.42
  20
-1827.91
  30
0.00
  0
VERTEX
  8
L_wall
  10
-413.89
  20
-1840.49
  30
0.00
  0
VERTEX
  8
L_wall
  10
-416.42
  20
-1853.18
  30
0.00
  0
VERTEX
  8
L_wall
  10
-416.02
  20
-1864.07
  30
0.00
  0
VERTEX
  8
L_wall
  10
-414.95
  20
-1876.10
  30
0.00
  0
VERTEX
  8
L_wall
  10
-414.95
  20
-1886.91
  30
0.00
  0
VERTEX
  8
L_wall
  10
-415.27
  20
-1899.76
  30
0.00
  0
VERTEX
  8
L_wall
  10
-416.49
  20
-1911.78
  30
0.00
  0
VERTEX
  8
L_wall
  10
-419.69
  20
-1923.49
  30
0.00
  0
VERTEX
  8
L_wall
  10
-420.27
  20
-1934.74
  30
0.00
  0
VERTEX
  8
L_wall
  10
-423.92
  20
-1947.90
  30
0.00
  0
VERTEX
  8
L_wall
  10
-428.79
  20
-1959.80
  30
0.00
  0
VERTEX
  8
L_wall
  10
-431.95
  20
-1973.01
  30
0.00
  0
VERTEX
  8
L_wall
  10
-438.71
  20
-1983.88
  30
0.00
  0
VERTEX
  8
L_wall
  10
-441.76
  20
-1996.51
  30
0.00
  0
VERTEX
  8
L_wall
  10
-444.70
  20
-2007.56
  30
0.00
  0
SEQEND
  0
POLYLINE
  8
L_wall
  66
1
  70
0
  0
VERTEX
  8
L_wall
  10
-445.77
  20
-1828.98
  30
0.00
  0
VERTEX
  8
L_wall
  10
-431.33
  20
-1831.44
  30
0.00
  0
VERTEX
  8
L_wall
  10
-416.17
  20
-1830.85
  30
0.00
  0
VERTEX
  8
L_wall
  10
-403.80
  20
-1829.51
  30
0.00
  0
VERTEX
  8
L_wall
  10
-386.14
  20
-1824.81
  30
0.00
  0
VERTEX
  8
L_wall
  10
-369.74
  20
-1819.69
  30
0.00
  0
SEQEND
  0
POLYLINE
  8
L_wall
  66
1
  70
0
  0
VERTEX
  8
L_wall
  10
-436.20
  20
-1859.80
  30
0.00
  0
VERTEX
  8
L_wall
  10
-423.45
  20
-1861.40
  30
0.00
  0
VERTEX
  8
L_wall
  10
-408.05
  20
-1859.27
  30
0.00
  0
VERTEX
  8
L_wall
  10
-391.18
  20
-1849.05
  30
0.00
  0
VERTEX
  8
L_wall
  10
-374.41
  20
-1838.27
  30
0.00
  0
VERTEX
  8
L_wall
  10
-362.90
  20
-1833.02
  30
0.00
  0
VERTEX
  8
L_wall
  10
-348.69
  20
-1829.68
  30
0.00
  0
SEQEND
  0
INSERT
  8
POINT
  2
P_continuation
  41
10.00
  42
10.00
  50
360.00
  10
-318.92
  20
-1834.95
  30
0.00
  0
INSERT
  8
POINT
  2
P_continuation
  41
10.00
  42
10.00
  50
360.00
  10
-549.96
  20
-1948.35
  30
0.00
  0
POLYLINE
  8
L_wall
  66
1
  70
0
  0
VERTEX
  8
L_wall
  10
-489.33
  20
-1821.53
  30
0.00
  0
VERTEX
  8
L_wall
  10
-493.05
  20
-1852.89
  30
0.00
  0
VERTEX
  8
L_wall
  10
-490.33
  20
-1876.08
  30
0.00
  0
VERTEX
  8
L_wall
  10
-490.31
  20
-1899.37
  30
0.00
  0
VERTEX
  8
L_wall
  10
-494.89
  20
-1923.01
  30
0.00
  0
VERTEX
  8
L_wall
  10
-514.40
  20
-1930.81
  30
0.00
  0
VERTEX
  8
L_wall
  10
-533.35
  20
-1928.14
  30
0.00
  0
SEQEND
  0
POLYLINE
  8
L_wall
  66
1
  70
0
  0
VERTEX
  8
L_wall
  10
-497.83
  20
-1958.66
  30
0.00
  0
VERTEX
  8
L_wall
  10
-522.27
  20
-1956.00
  30
0.00
  0
VERTEX
  8
L_wall
  10
-542.83
  20
-1957.92
  30
0.00
  0
SEQEND
  0
POLYLINE
  8
L_wall
  66
1
  70
0
  0
VERTEX
  8
L_wall
  10
-495.70
  20
-1961.85
  30
0.00
  0
VERTEX
  8
L_wall
  10
-507.77
  20
-1983.37
  30
0.00
  0
VERTEX
  8
L_wall
  10
-521.01
  20
-2001.43
  30
0.00
  0
VERTEX
  8
L_wall
  10
-538.99
  20
-2021.10
  30
0.00
  0
VERTEX
  8
L_wall
  10
-542.45
  20
-2042.65
  30
0.00
  0
VERTEX
  8
L_wall
  10
-539.84
  20
-2066.26
  30
0.00
  0
SEQEND
  0
INSERT
  8
POINT
  2
P_label
  41
10.00
  42
10.00
  50
360.00
  10
-61.44
  20
-2352.01
  30
0.00
  0
POLYLINE
  8
L_wall
  66
1
  70
0
  0
VERTEX
  8
L_wall
  10
-438.44
  20
-2012.95
  30
0.00
  0
VERTEX
  8
L_wall
  10
-433.55
  20
-2024.01
  30
0.00
  0
VERTEX
  8
L_wall
  10
-430.55
  20
-2034.48
  30
0.00
  0
VERTEX
  8
L_wall
  10
-425.39
  20
-2045.28
  30
0.00
  0
VERTEX
  8
L_wall
  10
-422.50
  20
-2055.99
  30
0.00
  0
VERTEX
  8
L_wall
  10
-415.06
  20
-2065.84
  30
0.00
  0
VERTEX
  8
L_wall
  10
-411.87
  20
-2077.40
  30
0.00
  0
VERTEX
  8
L_wall
  10
-408.69
  20
-2087.85
  30
0.00
  0
VERTEX
  8
L_wall
  10
-404.44
  20
-2098.78
  30
0.00
  0
VERTEX
  8
L_wall
  10
-403.34
  20
-2111.93
  30
0.00
  0
VERTEX
  8
L_wall
  10
-401.80
  20
-2123.96
  30
0.00
  0
VERTEX
  8
L_wall
  10
-401.25
  20
-2135.39
  30
0.00
  0
VERTEX
  8
L_wall
  10
-395.07
  20
-2147.56
  30
0.00
  0
VERTEX
  8
L_wall
  10
-386.56
  20
-2156.27
  30
0.00
  0
VERTEX
  8
L_wall
  10
-378.69
  20
-2165.21
  30
0.00
  0
VERTEX
  8
L_wall
  10
-374.69
  20
-2175.19
  30
0.00
  0
VERTEX
  8
L_wall
  10
-371.50
  20
-2186.38
  30
0.00
  0
VERTEX
  8
L_wall
  10
-365.06
  20
-2195.85
  30
0.00
  0
VERTEX
  8
L_wall
  10
-357.78
  20
-2204.29
  30
0.00
  0
VERTEX
  8
L_wall
  10
-351.84
  20
-2214.39
  30
0.00
  0
SEQEND
  0
POLYLINE
  8
L_wall
  66
1
  70
0
  0
VERTEX
  8
L_wall
  10
-510.69
  20
-2121.37
  30
0.00
  0
VERTEX
  8
L_wall
  10
-501.78
  20
-2129.23
  30
0.00
  0
VERTEX
  8
L_wall
  10
-497.94
  20
-2139.98
  30
0.00
  0
VERTEX
  8
L_wall
  10
-493.69
  20
-2150.26
  30
0.00
  0
VERTEX
  8
L_wall
  10
-487.31
  20
-2160.71
  30
0.00
  0
VERTEX
  8
L_wall
  10
-484.88
  20
-2171.96
  30
0.00
  0
VERTEX
  8
L_wall
  10
-479.48
  20
-2182.36
  30
0.00
  0
VERTEX
  8
L_wall
  10
-474.03
  20
-2192.06
  30
0.00
  0
VERTEX
  8
L_wall
  10
-467.78
  20
-2202.57
  30
0.00
  0
SEQEND
  0
POLYLINE
  8
L_wall
  66
1
  70
0
  0
VERTEX
  8
L_wall
  10
-500.06
  20
-2130.94
  30
0.00
  0
VERTEX
  8
L_wall
  10
-508.85
  20
-2123.89
  30
0.00
  0
VERTEX
  8
L_wall
  10
-517.59
  20
-2115.53
  30
0.00
  0
SEQEND
  0
POLYLINE
  8
L_wall
  66
1
  70
0
  0
VERTEX
  8
L_wall
  10
-525.56
  20
-2077.79
  30
0.00
  0
VERTEX
  8
L_wall
  10
-521.87
  20
-2089.71
  30
0.00
  0
VERTEX
  8
L_wall
  10
-516.84
  20
-2100.55
  30
0.00
  0
VERTEX
  8
L_wall
  10
-514.58
  20
-2111.46
  30
0.00
  0
VERTEX
  8
L_wall
  10
-507.92
  20
-2121.60
  30
0.00
  0
SEQEND
  0
POLYLINE
  8
L_wall
  66
1
  70
0
  0
VERTEX
  8
L_wall
  10
-464.61
  20
-2201.77
  30
0.00
  0
VERTEX
  8
L_wall
  10
-458.52
  20
-2212.48
  30
0.00
  0
VERTEX
  8
L_wall
  10
-452.57
  20
-2223.39
  30
0.00
  0
VERTEX
  8
L_wall
  10
-446.18
  20
-2235.78
  30
0.00
  0
VERTEX
  8
L_wall
  10
-442.72
  20
-2249.26
  30
0.00
  0
VERTEX
  8
L_wall
  10
-438.69
  20
-2261.72
  30
0.00
  0
VERTEX
  8
L_wall
  10
-435.25
  20
-2273.21
  30
0.00
  0
VERTEX
  8
L_wall
  10
-430.51
  20
-2286.38
  30
0.00
  0
VERTEX
  8
L_wall
  10
-424.33
  20
-2297.37
  30
0.00
  0
VERTEX
  8
L_wall
  10
-418.75
  20
-2308.07
  30
0.00
  0
VERTEX
  8
L_wall
  10
-413.06
  20
-2319.06
  30
0.00
  0
VERTEX
  8
L_wall
  10
-407.59
  20
-2331.73
  30
0.00
  0
VERTEX
  8
L_wall
  10
-405.84
  20
-2344.45
  30
0.00
  0
VERTEX
  8
L_wall
  10
-398.93
  20
-2354.96
  30
0.00
  0
VERTEX
  8
L_wall
  10
-395.34
  20
-2366.77
  30
0.00
  0
VERTEX
  8
L_wall
  10
-390.74
  20
-2378.28
  30
0.00
  0
VERTEX
  8
L_wall
  10
-385.68
  20
-2389.12
  30
0.00
  0
VERTEX
  8
L_wall
  10
-378.76
  20
-2398.92
  30
0.00
  0
SEQEND
  0
POLYLINE
  8
L_wall
  66
1
  70
0
  0
VERTEX
  8
L_wall
  10
-343.62
  20
-2205.23
  30
0.00
  0
VERTEX
  8
L_wall
  10
-339.78
  20
-2218.67
  30
0.00
  0
VERTEX
  8
L_wall
  10
-333.82
  20
-2231.74
  30
0.00
  0
VERTEX
  8
L_wall
  10
-326.90
  20
-2246.35
  30
0.00
  0
VERTEX
  8
L_wall
  10
-320.07
  20
-2256.13
  30
0.00
  0
VERTEX
  8
L_wall
  10
-314.37
  20
-2266.50
  30
0.00
  0
VERTEX
  8
L_wall
  10
-305.59
  20
-2276.12
  30
0.00
  0
VERTEX
  8
L_wall
  10
-300.03
  20
-2289.18
  30
0.00
  0
VERTEX
  8
L_wall
  10
-290.89
  20
-2304.09
  30
0.00
  0
VERTEX
  8
L_wall
  10
-281.61
  20
-2312.23
  30
0.00
  0
VERTEX
  8
L_wall
  10
-275.56
  20
-2322.97
  30
0.00
  0
VERTEX
  8
L_wall
  10
-270.73
  20
-2334.93
  30
0.00
  0
VERTEX
  8
L_wall
  10
-267.56
  20
-2347.78
  30
0.00
  0
VERTEX
  8
L_wall
  10
-266.41
  20
-2359.32
  30
0.00
  0
SEQEND
  0
POLYLINE
  8
L_wall
  66
1
  70
0
  0
VERTEX
  8
L_wall
  10
-370.12
  20
-2400.07
  30
0.00
  0
VERTEX
  8
L_wall
  10
-356.61
  20
-2406.83
  30
0.00
  0
VERTEX
  8
L_wall
  10
-344.29
  20
-2408.14
  30
0.00
  0
VERTEX
  8
L_wall
  10
-332.18
  20
-2406.90
  30
0.00
  0
VERTEX
  8
L_wall
  10
-321.56
  20
-2411.60
  30
0.00
  0
SEQEND
  0
POLYLINE
  8
L_wall
  66
1
  70
0
  0
VERTEX
  8
L_wall
  10
-320.07
  20
-2408.92
  30
0.00
  0
VERTEX
  8
L_wall
  10
-321.22
  20
-2420.44
  30
0.00
  0
VERTEX
  8
L_wall
  10
-319.79
  20
-2434.23
  30
0.00
  0
SEQEND
  0
POLYLINE
  8
L_wall-presumed
  66
1
  70
0
  0
VERTEX
  8
L_wall-presumed
  10
-328.05
  20
-2430.33
  30
0.00
  0
VERTEX
  8
L_wall-presumed
  10
-313.12
  20
-2455.02
  30
0.00
  0
VERTEX
  8
L_wall-presumed
  10
-311.98
  20
-2481.00
  30
0.00
  0
VERTEX
  8
L_wall-presumed
  10
-315.63
  20
-2509.45
  30
0.00
  0
VERTEX
  8
L_wall-presumed
  10
-322.77
  20
-2536.70
  30
0.00
  0
VERTEX
  8
L_wall-presumed
  10
-328.62
  20
-2560.11
  30
0.00
  0
VERTEX
  8
L_wall-presumed
  10
-333.20
  20
-2587.62
  30
0.00
  0
VERTEX
  8
L_wall-presumed
  10
-333.79
  20
-2617.49
  30
0.00
  0
VERTEX
  8
L_wall-presumed
  10
-334.94
  20
-2648.71
  30
0.00
  0
VERTEX
  8
L_wall-presumed
  10
-334.94
  20
-2673.51
  30
0.00
  0
VERTEX
  8
L_wall-presumed
  10
-331.01
  20
-2698.22
  30
0.00
  0
VERTEX
  8
L_wall-presumed
  10
-325.18
  20
-2724.92
  30
0.00
  0
VERTEX
  8
L_wall-presumed
  10
-316.83
  20
-2751.40
  30
0.00
  0
VERTEX
  8
L_wall-presumed
  10
-312.74
  20
-2780.62
  30
0.00
  0
VERTEX
  8
L_wall-presumed
  10
-310.83
  20
-2805.07
  30
0.00
  0
SEQEND
  0
POLYLINE
  8
L_wall-presumed
  66
1
  70
0
  0
VERTEX
  8
L_wall-presumed
  10
-266.06
  20
-2360.27
  30
0.00
  0
VERTEX
  8
L_wall-presumed
  10
-250.29
  20
-2386.38
  30
0.00
  0
VERTEX
  8
L_wall-presumed
  10
-229.33
  20
-2416.86
  30
0.00
  0
VERTEX
  8
L_wall-presumed
  10
-205.79
  20
-2452.72
  30
0.00
  0
VERTEX
  8
L_wall-presumed
  10
-180.55
  20
-2488.44
  30
0.00
  0
VERTEX
  8
L_wall-presumed
  10
-161.91
  20
-2525.57
  30
0.00
  0
VERTEX
  8
L_wall-presumed
  10
-148.39
  20
-2558.39
  30
0.00
  0
VERTEX
  8
L_wall-presumed
  10
-139.79
  20
-2589.17
  30
0.00
  0
VERTEX
  8
L_wall-presumed
  10
-123.37
  20
-2619.48
  30
0.00
  0
VERTEX
  8
L_wall-presumed
  10
-112.53
  20
-2645.75
  30
0.00
  0
VERTEX
  8
L_wall-presumed
  10
-101.49
  20
-2676.17
  30
0.00
  0
VERTEX
  8
L_wall-presumed
  10
-99.60
  20
-2702.63
  30
0.00
  0
VERTEX
  8
L_wall-presumed
  10
-97.65
  20
-2731.50
  30
0.00
  0
SEQEND
  0
POLYLINE
  8
L_wall-presumed
  66
1
  70
0
  0
VERTEX
  8
L_wall-presumed
  10
-165.03
  20
-2877.10
  30
0.00
  0
VERTEX
  8
L_wall-presumed
  10
-190.81
  20
-2855.02
  30
0.00
  0
VERTEX
  8
L_wall-presumed
  10
-213.95
  20
-2850.83
  30
0.00
  0
VERTEX
  8
L_wall-presumed
  10
-235.62
  20
-2874.77
  30
0.00
  0
VERTEX
  8
L_wall-presumed
  10
-241.34
  20
-2904.40
  30
0.00
  0
SEQEND
  0
POLYLINE
  8
L_wall-presumed
  66
1
  70
0
  0
VERTEX
  8
L_wall-presumed
  10
-308.53
  20
-2790.96
  30
0.00
  0
VERTEX
  8
L_wall-presumed
  10
-300.50
  20
-2819.68
  30
0.00
  0
VERTEX
  8
L_wall-presumed
  10
-291.31
  20
-2844.95
  30
0.00
  0
VERTEX
  8
L_wall-presumed
  10
-284.42
  20
-2883.82
  30
0.00
  0
SEQEND
  0
POLYLINE
  8
L_wall-presumed
  66
1
  70
0
  0
VERTEX
  8
L_wall-presumed
  10
-83.53
  20
-2707.12
  30
0.00
  0
VERTEX
  8
L_wall-presumed
  10
-89.27
  20
-2731.71
  30
0.00
  0
VERTEX
  8
L_wall-presumed
  10
-87.57
  20
-2756.38
  30
0.00
  0
VERTEX
  8
L_wall-presumed
  10
-84.45
  20
-2792.21
  30
0.00
  0
VERTEX
  8
L_wall-presumed
  10
-86.34
  20
-2843.08
  30
0.00
  0
VERTEX
  8
L_wall-presumed
  10
-89.31
  20
-2858.85
  30
0.00
  0
SEQEND
  0
INSERT
  8
POINT
  2
P_blocks
  41
10.00
  42
10.00
  50
360.00
  10
-323.24
  20
-2398.44
  30
0.00
  0
INSERT
  8
POINT
  2
P_blocks
  41
10.00
  42
10.00
  50
360.00
  10
-338.19
  20
-2401.61
  30
0.00
  0
INSERT
  8
POINT
  2
P_blocks
  41
10.00
  42
10.00
  50
360.00
  10
-318.21
  20
-2407.64
  30
0.00
  0
ENDSEC
  0
EOF
