<svg width="620" height="505"
   xmlns:svg="http://www.w3.org/2000/svg"
   xmlns="http://www.w3.org/2000/svg" >
<!-- SVG created by TopoDroid v. 3.1.4 -->
  <defs>
    <marker id="Triangle" viewBox="0 0 10 10" refX="0" refY="5" 
      markerUnits="strokeWidth" markerWidth="4" markerHeight="3" orient="auto" >
      <path d="M 0 0 L 10 5 L 0 10 z" />
    </marker>
  </defs>
<g>
<g style="fill:none;stroke-opacity:0.6;stroke:red" >
  <path stroke-width="1" stroke="black" d="M 100.00 120.00 L 71.80 148.94" />
  <path stroke-width="1" stroke="black" d="M 71.80 148.94 L 56.49 188.29" />
  <path stroke-width="1" stroke="black" d="M 56.49 188.29 L -1.34 191.54" />
  <path stroke-width="1" stroke="black" d="M -1.34 191.54 L -30.46 221.23" />
  <path stroke-width="1" stroke="black" d="M -30.46 221.23 L -56.44 202.68" />
  <path stroke-width="1" stroke="black" d="M -56.44 202.68 L -84.74 182.52" />
  <path stroke-width="1" stroke="black" d="M -84.74 182.52 L -118.50 168.68" />
  <path stroke-width="1" stroke="black" d="M -118.50 168.68 L -140.01 154.94" />
  <path stroke-width="1" stroke="black" d="M -140.01 154.94 L -218.41 110.64" />
  <path stroke-width="1" stroke="black" d="M -218.41 110.64 L -211.82 83.80" />
  <path stroke-width="1" stroke="black" d="M -211.82 83.80 L -229.20 48.58" />
  <path stroke-width="1" stroke="black" d="M -229.20 48.58 L -224.16 4.57" />
  <path stroke-width="1" stroke="black" d="M -224.16 4.57 L -241.46 1.26" />
  <path stroke-width="1" stroke="black" d="M -241.46 1.26 L -234.27 38.91" />
  <path stroke-width="1" stroke="black" d="M -234.27 38.91 L -265.43 137.86" />
  <path stroke-width="1" stroke="black" d="M -265.43 137.86 L -199.69 187.58" />
  <path stroke-width="1" stroke="black" d="M -199.69 187.58 L -172.62 164.39" />
  <path stroke-width="1" stroke="black" d="M -172.62 164.39 L -120.45 189.60" />
  <path stroke-width="1" stroke="black" d="M -120.45 189.60 L -175.78 199.09" />
  <path stroke-width="1" stroke="black" d="M -175.78 199.09 L -121.11 206.16" />
  <path stroke-width="1" stroke="black" d="M -121.11 206.16 L -23.31 134.94" />
  <path stroke-width="1" stroke="black" d="M -23.31 134.94 L 50.43 178.88" />
  <path stroke-width="1" stroke="grey" d="M 100.00 120.00 L 79.64 111.57" />
  <path stroke-width="1" stroke="grey" d="M 100.00 120.00 L 53.75 162.01" />
  <path stroke-width="1" stroke="grey" d="M 100.00 120.00 L 95.85 147.54" />
  <path stroke-width="1" stroke="grey" d="M 100.00 120.00 L 127.00 26.92" />
  <path stroke-width="1" stroke="grey" d="M 100.00 120.00 L 118.24 97.82" />
  <path stroke-width="1" stroke="grey" d="M 100.00 120.00 L 86.01 81.04" />
  <path stroke-width="1" stroke="grey" d="M 100.00 120.00 L 92.43 109.99" />
  <path stroke-width="1" stroke="grey" d="M 100.00 120.00 L 80.74 172.82" />
  <path stroke-width="1" stroke="grey" d="M 100.00 120.00 L 32.43 187.73" />
  <path stroke-width="1" stroke="grey" d="M 100.00 120.00 L 69.91 127.30" />
  <path stroke-width="1" stroke="grey" d="M 100.00 120.00 L 89.21 88.04" />
  <path stroke-width="1" stroke="grey" d="M 100.00 120.00 L 80.27 124.52" />
  <path stroke-width="1" stroke="grey" d="M 100.00 120.00 L 83.62 87.43" />
  <path stroke-width="1" stroke="grey" d="M 100.00 120.00 L 71.37 148.86" />
  <path stroke-width="1" stroke="grey" d="M 100.00 120.00 L 73.17 146.80" />
  <path stroke-width="1" stroke="grey" d="M 71.80 148.94 L 87.10 162.72" />
  <path stroke-width="1" stroke="grey" d="M 71.80 148.94 L 111.99 150.27" />
  <path stroke-width="1" stroke="grey" d="M 71.80 148.94 L 123.59 126.19" />
  <path stroke-width="1" stroke="grey" d="M 71.80 148.94 L 121.11 90.41" />
  <path stroke-width="1" stroke="grey" d="M 71.80 148.94 L 101.31 140.61" />
  <path stroke-width="1" stroke="grey" d="M 71.80 148.94 L 96.32 159.24" />
  <path stroke-width="1" stroke="grey" d="M 71.80 148.94 L 5.16 206.73" />
  <path stroke-width="1" stroke="grey" d="M 71.80 148.94 L 26.99 168.07" />
  <path stroke-width="1" stroke="grey" d="M 71.80 148.94 L 50.11 195.00" />
  <path stroke-width="1" stroke="grey" d="M 71.80 148.94 L 71.51 166.94" />
  <path stroke-width="1" stroke="grey" d="M 71.80 148.94 L 34.20 167.77" />
  <path stroke-width="1" stroke="grey" d="M 71.80 148.94 L 32.36 189.70" />
  <path stroke-width="1" stroke="grey" d="M 71.80 148.94 L 110.63 156.17" />
  <path stroke-width="1" stroke="grey" d="M 71.80 148.94 L 97.16 156.11" />
  <path stroke-width="1" stroke="grey" d="M 56.49 188.29 L 96.23 129.29" />
  <path stroke-width="1" stroke="grey" d="M 56.49 188.29 L 58.95 154.21" />
  <path stroke-width="1" stroke="grey" d="M 56.49 188.29 L 73.69 137.46" />
  <path stroke-width="1" stroke="grey" d="M 56.49 188.29 L 41.16 164.88" />
  <path stroke-width="1" stroke="grey" d="M 56.49 188.29 L 64.17 144.25" />
  <path stroke-width="1" stroke="grey" d="M 56.49 188.29 L 129.35 123.80" />
  <path stroke-width="1" stroke="grey" d="M 56.49 188.29 L 18.55 180.07" />
  <path stroke-width="1" stroke="grey" d="M 56.49 188.29 L -13.75 201.61" />
  <path stroke-width="1" stroke="grey" d="M 56.49 188.29 L -30.60 232.86" />
  <path stroke-width="1" stroke="grey" d="M 56.49 188.29 L -24.22 199.22" />
  <path stroke-width="1" stroke="grey" d="M 56.49 188.29 L 24.26 174.61" />
  <path stroke-width="1" stroke="grey" d="M 56.49 188.29 L 13.18 215.97" />
  <path stroke-width="1" stroke="grey" d="M 56.49 188.29 L -33.99 203.30" />
  <path stroke-width="1" stroke="grey" d="M 56.49 188.29 L 59.14 164.45" />
  <path stroke-width="1" stroke="grey" d="M 56.49 188.29 L -2.88 225.33" />
  <path stroke-width="1" stroke="grey" d="M 56.49 188.29 L -55.19 219.96" />
  <path stroke-width="1" stroke="grey" d="M 56.49 188.29 L -36.25 220.67" />
  <path stroke-width="1" stroke="grey" d="M 56.49 188.29 L -2.15 191.57" />
  <path stroke-width="1" stroke="grey" d="M 56.49 188.29 L -3.92 192.11" />
  <path stroke-width="1" stroke="grey" d="M -1.34 191.54 L 6.05 224.74" />
  <path stroke-width="1" stroke="grey" d="M -1.34 191.54 L -6.98 225.43" />
  <path stroke-width="1" stroke="grey" d="M -1.34 191.54 L -18.78 242.77" />
  <path stroke-width="1" stroke="grey" d="M -1.34 191.54 L -49.26 241.63" />
  <path stroke-width="1" stroke="grey" d="M -1.34 191.54 L -56.85 215.97" />
  <path stroke-width="1" stroke="grey" d="M -1.34 191.54 L 68.47 177.68" />
  <path stroke-width="1" stroke="grey" d="M -1.34 191.54 L 56.97 195.46" />
  <path stroke-width="1" stroke="grey" d="M -1.34 191.54 L 35.69 211.53" />
  <path stroke-width="1" stroke="grey" d="M -1.34 191.54 L 19.11 222.39" />
  <path stroke-width="1" stroke="grey" d="M -1.34 191.54 L 72.26 181.15" />
  <path stroke-width="1" stroke="grey" d="M -1.34 191.54 L 68.46 181.01" />
  <path stroke-width="1" stroke="grey" d="M -1.34 191.54 L -27.20 230.81" />
  <path stroke-width="1" stroke="grey" d="M -1.34 191.54 L 5.52 212.36" />
  <path stroke-width="1" stroke="grey" d="M -30.46 221.23 L -35.80 211.00" />
  <path stroke-width="1" stroke="grey" d="M -30.46 221.23 L -49.53 191.82" />
  <path stroke-width="1" stroke="grey" d="M -30.46 221.23 L -34.61 203.17" />
  <path stroke-width="1" stroke="grey" d="M -30.46 221.23 L -49.11 210.99" />
  <path stroke-width="1" stroke="grey" d="M -30.46 221.23 L -3.63 227.89" />
  <path stroke-width="1" stroke="grey" d="M -30.46 221.23 L -47.23 213.74" />
  <path stroke-width="1" stroke="grey" d="M -30.46 221.23 L -45.28 209.67" />
  <path stroke-width="1" stroke="grey" d="M -30.46 221.23 L -17.59 213.64" />
  <path stroke-width="1" stroke="grey" d="M -56.44 202.68 L -61.32 209.54" />
  <path stroke-width="1" stroke="grey" d="M -56.44 202.68 L -67.53 202.07" />
  <path stroke-width="1" stroke="grey" d="M -56.44 202.68 L -44.80 205.50" />
  <path stroke-width="1" stroke="grey" d="M -56.44 202.68 L -12.24 225.47" />
  <path stroke-width="1" stroke="grey" d="M -56.44 202.68 L -30.71 232.07" />
  <path stroke-width="1" stroke="grey" d="M -56.44 202.68 L -50.98 226.70" />
  <path stroke-width="1" stroke="grey" d="M -56.44 202.68 L 1.06 215.00" />
  <path stroke-width="1" stroke="grey" d="M -56.44 202.68 L -42.43 189.66" />
  <path stroke-width="1" stroke="grey" d="M -56.44 202.68 L -76.20 188.91" />
  <path stroke-width="1" stroke="grey" d="M -56.44 202.68 L -84.02 182.94" />
  <path stroke-width="1" stroke="grey" d="M -84.74 182.52 L -72.52 172.74" />
  <path stroke-width="1" stroke="grey" d="M -84.74 182.52 L -76.62 173.87" />
  <path stroke-width="1" stroke="grey" d="M -84.74 182.52 L -70.78 177.79" />
  <path stroke-width="1" stroke="grey" d="M -84.74 182.52 L -91.11 175.87" />
  <path stroke-width="1" stroke="grey" d="M -84.74 182.52 L -84.46 174.51" />
  <path stroke-width="1" stroke="grey" d="M -84.74 182.52 L -79.18 190.05" />
  <path stroke-width="1" stroke="grey" d="M -84.74 182.52 L -75.43 190.54" />
  <path stroke-width="1" stroke="grey" d="M -84.74 182.52 L -63.13 195.66" />
  <path stroke-width="1" stroke="grey" d="M -84.74 182.52 L -71.52 187.25" />
  <path stroke-width="1" stroke="grey" d="M -84.74 182.52 L -72.67 181.74" />
  <path stroke-width="1" stroke="grey" d="M -84.74 182.52 L -71.50 178.13" />
  <path stroke-width="1" stroke="grey" d="M -84.74 182.52 L -84.90 175.50" />
  <path stroke-width="1" stroke="grey" d="M -84.74 182.52 L -95.42 184.38" />
  <path stroke-width="1" stroke="grey" d="M -84.74 182.52 L -102.09 179.37" />
  <path stroke-width="1" stroke="grey" d="M -84.74 182.52 L -90.70 177.10" />
  <path stroke-width="1" stroke="grey" d="M -84.74 182.52 L -94.08 181.35" />
  <path stroke-width="1" stroke="grey" d="M -118.50 168.68 L -122.14 174.55" />
  <path stroke-width="1" stroke="grey" d="M -118.50 168.68 L -90.18 177.53" />
  <path stroke-width="1" stroke="grey" d="M -118.50 168.68 L -100.70 180.10" />
  <path stroke-width="1" stroke="grey" d="M -118.50 168.68 L -110.28 183.37" />
  <path stroke-width="1" stroke="grey" d="M -118.50 168.68 L -111.84 168.04" />
  <path stroke-width="1" stroke="grey" d="M -118.50 168.68 L -115.95 183.27" />
  <path stroke-width="1" stroke="grey" d="M -118.50 168.68 L -116.57 171.68" />
  <path stroke-width="1" stroke="grey" d="M -118.50 168.68 L -131.40 164.93" />
  <path stroke-width="1" stroke="grey" d="M -118.50 168.68 L -131.94 169.42" />
  <path stroke-width="1" stroke="grey" d="M -118.50 168.68 L -122.75 180.68" />
  <path stroke-width="1" stroke="grey" d="M -118.50 168.68 L -121.24 172.80" />
  <path stroke-width="1" stroke="grey" d="M -140.01 154.94 L -126.16 161.16" />
  <path stroke-width="1" stroke="grey" d="M -140.01 154.94 L -140.68 160.32" />
  <path stroke-width="1" stroke="grey" d="M -140.01 154.94 L -143.59 160.38" />
  <path stroke-width="1" stroke="grey" d="M -140.01 154.94 L -205.17 124.85" />
  <path stroke-width="1" stroke="grey" d="M -140.01 154.94 L -155.45 146.04" />
  <path stroke-width="1" stroke="grey" d="M -140.01 154.94 L -166.01 147.63" />
  <path stroke-width="1" stroke="grey" d="M -140.01 154.94 L -170.55 145.68" />
  <path stroke-width="1" stroke="grey" d="M -140.01 154.94 L -171.87 150.97" />
  <path stroke-width="1" stroke="grey" d="M -140.01 154.94 L -163.58 157.29" />
  <path stroke-width="1" stroke="grey" d="M -140.01 154.94 L -153.46 161.49" />
  <path stroke-width="1" stroke="grey" d="M -140.01 154.94 L -108.86 179.52" />
  <path stroke-width="1" stroke="grey" d="M -140.01 154.94 L -218.70 141.65" />
  <path stroke-width="1" stroke="grey" d="M -140.01 154.94 L -214.17 117.46" />
  <path stroke-width="1" stroke="grey" d="M -140.01 154.94 L -191.52 121.38" />
  <path stroke-width="1" stroke="grey" d="M -140.01 154.94 L -165.65 150.52" />
  <path stroke-width="1" stroke="grey" d="M -140.01 154.94 L -220.90 139.93" />
  <path stroke-width="1" stroke="grey" d="M -140.01 154.94 L -185.58 150.29" />
  <path stroke-width="1" stroke="grey" d="M -140.01 154.94 L -149.87 145.15" />
  <path stroke-width="1" stroke="grey" d="M -140.01 154.94 L -225.85 130.83" />
  <path stroke-width="1" stroke="grey" d="M -218.41 110.64 L -206.95 108.22" />
  <path stroke-width="1" stroke="grey" d="M -218.41 110.64 L -209.55 104.50" />
  <path stroke-width="1" stroke="grey" d="M -218.41 110.64 L -214.35 100.38" />
  <path stroke-width="1" stroke="grey" d="M -218.41 110.64 L -221.15 120.29" />
  <path stroke-width="1" stroke="grey" d="M -218.41 110.64 L -210.43 155.97" />
  <path stroke-width="1" stroke="grey" d="M -218.41 110.64 L -205.83 162.20" />
  <path stroke-width="1" stroke="grey" d="M -218.41 110.64 L -183.00 157.18" />
  <path stroke-width="1" stroke="grey" d="M -218.41 110.64 L -156.59 168.64" />
  <path stroke-width="1" stroke="grey" d="M -218.41 110.64 L -140.30 151.85" />
  <path stroke-width="1" stroke="grey" d="M -218.41 110.64 L -158.36 139.39" />
  <path stroke-width="1" stroke="grey" d="M -218.41 110.64 L -205.40 114.31" />
  <path stroke-width="1" stroke="grey" d="M -218.41 110.64 L -178.90 119.92" />
  <path stroke-width="1" stroke="grey" d="M -218.41 110.64 L -203.54 145.79" />
  <path stroke-width="1" stroke="grey" d="M -218.41 110.64 L -217.85 126.76" />
  <path stroke-width="1" stroke="grey" d="M -218.41 110.64 L -203.70 110.49" />
  <path stroke-width="1" stroke="grey" d="M -211.82 83.80 L -231.07 87.14" />
  <path stroke-width="1" stroke="grey" d="M -211.82 83.80 L -222.58 110.23" />
  <path stroke-width="1" stroke="grey" d="M -211.82 83.80 L -214.83 136.05" />
  <path stroke-width="1" stroke="grey" d="M -211.82 83.80 L -224.62 87.05" />
  <path stroke-width="1" stroke="grey" d="M -211.82 83.80 L -232.46 63.93" />
  <path stroke-width="1" stroke="grey" d="M -211.82 83.80 L -227.27 74.44" />
  <path stroke-width="1" stroke="grey" d="M -211.82 83.80 L -232.31 97.72" />
  <path stroke-width="1" stroke="grey" d="M -211.82 83.80 L -228.69 51.25" />
  <path stroke-width="1" stroke="grey" d="M -229.20 48.58 L -221.78 49.40" />
  <path stroke-width="1" stroke="grey" d="M -229.20 48.58 L -212.06 140.57" />
  <path stroke-width="1" stroke="grey" d="M -229.20 48.58 L -226.18 95.40" />
  <path stroke-width="1" stroke="grey" d="M -229.20 48.58 L -225.84 60.07" />
  <path stroke-width="1" stroke="grey" d="M -229.20 48.58 L -216.89 48.28" />
  <path stroke-width="1" stroke="grey" d="M -229.20 48.58 L -226.21 6.60" />
  <path stroke-width="1" stroke="grey" d="M -229.20 48.58 L -216.60 26.88" />
  <path stroke-width="1" stroke="grey" d="M -229.20 48.58 L -219.74 40.65" />
  <path stroke-width="1" stroke="grey" d="M -229.20 48.58 L -219.40 34.72" />
  <path stroke-width="1" stroke="grey" d="M -229.20 48.58 L -220.06 71.86" />
  <path stroke-width="1" stroke="grey" d="M -229.20 48.58 L -222.08 89.63" />
  <path stroke-width="1" stroke="grey" d="M -229.20 48.58 L -214.97 72.95" />
  <path stroke-width="1" stroke="grey" d="M -229.20 48.58 L -231.47 -11.50" />
  <path stroke-width="1" stroke="grey" d="M -224.16 4.57 L -233.87 12.79" />
  <path stroke-width="1" stroke="grey" d="M -224.16 4.57 L -235.95 -1.35" />
  <path stroke-width="1" stroke="grey" d="M -224.16 4.57 L -231.77 5.63" />
  <path stroke-width="1" stroke="grey" d="M -224.16 4.57 L -242.35 -25.74" />
  <path stroke-width="1" stroke="grey" d="M -224.16 4.57 L -219.80 12.88" />
  <path stroke-width="1" stroke="grey" d="M -224.16 4.57 L -225.87 14.28" />
  <path stroke-width="1" stroke="grey" d="M -224.16 4.57 L -222.61 101.57" />
  <path stroke-width="1" stroke="grey" d="M -224.16 4.57 L -225.15 77.89" />
  <path stroke-width="1" stroke="grey" d="M -224.16 4.57 L -224.71 96.48" />
  <path stroke-width="1" stroke="grey" d="M -224.16 4.57 L -214.99 50.13" />
  <path stroke-width="1" stroke="grey" d="M -224.16 4.57 L -216.66 38.31" />
  <path stroke-width="1" stroke="grey" d="M -241.46 1.26 L -246.08 -39.58" />
  <path stroke-width="1" stroke="grey" d="M -241.46 1.26 L -243.24 -40.22" />
  <path stroke-width="1" stroke="grey" d="M -241.46 1.26 L -228.34 -11.57" />
  <path stroke-width="1" stroke="grey" d="M -241.46 1.26 L -223.51 2.68" />
  <path stroke-width="1" stroke="grey" d="M -241.46 1.26 L -222.38 12.00" />
  <path stroke-width="1" stroke="grey" d="M -241.46 1.26 L -222.46 6.00" />
  <path stroke-width="1" stroke="grey" d="M -241.46 1.26 L -226.39 0.94" />
  <path stroke-width="1" stroke="grey" d="M -241.46 1.26 L -230.31 20.06" />
  <path stroke-width="1" stroke="grey" d="M -241.46 1.26 L -243.66 71.30" />
  <path stroke-width="1" stroke="grey" d="M -241.46 1.26 L -240.60 9.75" />
  <path stroke-width="1" stroke="grey" d="M -234.27 38.91 L -233.86 65.98" />
  <path stroke-width="1" stroke="grey" d="M -234.27 38.91 L -246.20 81.92" />
  <path stroke-width="1" stroke="grey" d="M -234.27 38.91 L -254.79 73.14" />
  <path stroke-width="1" stroke="grey" d="M -234.27 38.91 L -260.79 64.48" />
  <path stroke-width="1" stroke="grey" d="M -234.27 38.91 L -271.62 48.57" />
  <path stroke-width="1" stroke="grey" d="M -234.27 38.91 L -275.54 30.65" />
  <path stroke-width="1" stroke="grey" d="M -234.27 38.91 L -278.81 18.96" />
  <path stroke-width="1" stroke="grey" d="M -234.27 38.91 L -276.36 -4.11" />
  <path stroke-width="1" stroke="grey" d="M -234.27 38.91 L -268.52 -24.13" />
  <path stroke-width="1" stroke="grey" d="M -234.27 38.91 L -251.66 -25.65" />
  <path stroke-width="1" stroke="grey" d="M -234.27 38.91 L -233.97 12.89" />
  <path stroke-width="1" stroke="grey" d="M -234.27 38.91 L -259.20 4.66" />
  <path stroke-width="1" stroke="grey" d="M -234.27 38.91 L -235.47 37.57" />
  <path stroke-width="1" stroke="grey" d="M -234.27 38.91 L -250.29 65.24" />
  <path stroke-width="1" stroke="grey" d="M -234.27 38.91 L -242.87 -3.47" />
  <path stroke-width="1" stroke="grey" d="M -234.27 38.91 L -241.71 -36.44" />
  <path stroke-width="1" stroke="grey" d="M -234.27 38.91 L -248.74 102.08" />
  <path stroke-width="1" stroke="grey" d="M -234.27 38.91 L -284.19 115.28" />
  <path stroke-width="1" stroke="grey" d="M -234.27 38.91 L -296.00 77.45" />
  <path stroke-width="1" stroke="grey" d="M -234.27 38.91 L -269.13 114.20" />
  <path stroke-width="1" stroke="grey" d="M -234.27 38.91 L -266.14 122.02" />
  <path stroke-width="1" stroke="grey" d="M -265.43 137.86 L -218.74 146.79" />
  <path stroke-width="1" stroke="grey" d="M -265.43 137.86 L -215.04 192.82" />
  <path stroke-width="1" stroke="grey" d="M -265.43 137.86 L -259.72 148.23" />
  <path stroke-width="1" stroke="grey" d="M -265.43 137.86 L -260.05 54.62" />
  <path stroke-width="1" stroke="grey" d="M -265.43 137.86 L -230.70 66.74" />
  <path stroke-width="1" stroke="grey" d="M -265.43 137.86 L -226.43 112.11" />
  <path stroke-width="1" stroke="grey" d="M -265.43 137.86 L -221.50 132.95" />
  <path stroke-width="1" stroke="grey" d="M -265.43 137.86 L -218.91 105.08" />
  <path stroke-width="1" stroke="grey" d="M -265.43 137.86 L -268.73 62.30" />
  <path stroke-width="1" stroke="grey" d="M -265.43 137.86 L -242.61 119.90" />
  <path stroke-width="1" stroke="grey" d="M -265.43 137.86 L -260.62 133.69" />
  <path stroke-width="1" stroke="grey" d="M -265.43 137.86 L -228.77 132.75" />
  <path stroke-width="1" stroke="grey" d="M -265.43 137.86 L -181.87 200.89" />
  <path stroke-width="1" stroke="grey" d="M -265.43 137.86 L -224.43 140.81" />
  <path stroke-width="1" stroke="grey" d="M -265.43 137.86 L -225.12 151.94" />
  <path stroke-width="1" stroke="grey" d="M -199.69 187.58 L -207.39 177.06" />
  <path stroke-width="1" stroke="grey" d="M -199.69 187.58 L -187.99 166.40" />
  <path stroke-width="1" stroke="grey" d="M -199.69 187.58 L -180.65 180.07" />
  <path stroke-width="1" stroke="grey" d="M -199.69 187.58 L -185.36 171.48" />
  <path stroke-width="1" stroke="grey" d="M -199.69 187.58 L -151.71 183.24" />
  <path stroke-width="1" stroke="grey" d="M -199.69 187.58 L -166.22 198.86" />
  <path stroke-width="1" stroke="grey" d="M -199.69 187.58 L -247.11 169.61" />
  <path stroke-width="1" stroke="grey" d="M -199.69 187.58 L -264.89 137.70" />
  <path stroke-width="1" stroke="grey" d="M -199.69 187.58 L -211.36 184.16" />
  <path stroke-width="1" stroke="grey" d="M -199.69 187.58 L -237.92 170.96" />
  <path stroke-width="1" stroke="grey" d="M -199.69 187.58 L -229.20 179.05" />
  <path stroke-width="1" stroke="grey" d="M -199.69 187.58 L -241.97 160.07" />
  <path stroke-width="1" stroke="grey" d="M -199.69 187.58 L -246.57 160.85" />
  <path stroke-width="1" stroke="grey" d="M -199.69 187.58 L -248.92 153.75" />
  <path stroke-width="1" stroke="grey" d="M -172.62 164.39 L -124.22 142.98" />
  <path stroke-width="1" stroke="grey" d="M -172.62 164.39 L -132.45 181.22" />
  <path stroke-width="1" stroke="grey" d="M -172.62 164.39 L -148.16 196.34" />
  <path stroke-width="1" stroke="grey" d="M -172.62 164.39 L -207.44 203.93" />
  <path stroke-width="1" stroke="grey" d="M -172.62 164.39 L -165.97 208.35" />
  <path stroke-width="1" stroke="grey" d="M -172.62 164.39 L -185.93 196.14" />
  <path stroke-width="1" stroke="grey" d="M -172.62 164.39 L -193.45 189.21" />
  <path stroke-width="1" stroke="grey" d="M -172.62 164.39 L -160.72 192.97" />
  <path stroke-width="1" stroke="grey" d="M -172.62 164.39 L -135.25 167.09" />
  <path stroke-width="1" stroke="grey" d="M -172.62 164.39 L -112.68 168.36" />
  <path stroke-width="1" stroke="grey" d="M -172.62 164.39 L -120.00 145.94" />
  <path stroke-width="1" stroke="grey" d="M -172.62 164.39 L -114.95 185.09" />
  <path stroke-width="1" stroke="grey" d="M -172.62 164.39 L -116.04 208.38" />
  <path stroke-width="1" stroke="grey" d="M -172.62 164.39 L -127.79 165.80" />
  <path stroke-width="1" stroke="grey" d="M -172.62 164.39 L -117.35 187.91" />
  <path stroke-width="1" stroke="grey" d="M -120.45 189.60 L -181.12 144.45" />
  <path stroke-width="1" stroke="grey" d="M -120.45 189.60 L -164.76 143.16" />
  <path stroke-width="1" stroke="grey" d="M -120.45 189.60 L -135.25 154.53" />
  <path stroke-width="1" stroke="grey" d="M -120.45 189.60 L -210.76 163.64" />
  <path stroke-width="1" stroke="grey" d="M -120.45 189.60 L -215.93 179.20" />
  <path stroke-width="1" stroke="grey" d="M -120.45 189.60 L -185.03 208.28" />
  <path stroke-width="1" stroke="grey" d="M -120.45 189.60 L -166.34 233.91" />
  <path stroke-width="1" stroke="grey" d="M -120.45 189.60 L -139.42 238.16" />
  <path stroke-width="1" stroke="grey" d="M -120.45 189.60 L -112.27 228.69" />
  <path stroke-width="1" stroke="grey" d="M -120.45 189.60 L -163.71 228.77" />
  <path stroke-width="1" stroke="grey" d="M -120.45 189.60 L -209.33 192.17" />
  <path stroke-width="1" stroke="grey" d="M -120.45 189.60 L -179.86 219.41" />
  <path stroke-width="1" stroke="grey" d="M -120.45 189.60 L -193.87 230.27" />
  <path stroke-width="1" stroke="grey" d="M -120.45 189.60 L -139.77 214.80" />
  <path stroke-width="1" stroke="grey" d="M -175.78 199.09 L -240.26 162.27" />
  <path stroke-width="1" stroke="grey" d="M -175.78 199.09 L -245.64 151.10" />
  <path stroke-width="1" stroke="grey" d="M -175.78 199.09 L -232.89 171.85" />
  <path stroke-width="1" stroke="grey" d="M -175.78 199.09 L -199.72 194.39" />
  <path stroke-width="1" stroke="grey" d="M -175.78 199.09 L -190.25 201.63" />
  <path stroke-width="1" stroke="grey" d="M -175.78 199.09 L -192.80 156.15" />
  <path stroke-width="1" stroke="grey" d="M -175.78 199.09 L -150.29 196.73" />
  <path stroke-width="1" stroke="grey" d="M -175.78 199.09 L -146.46 164.59" />
  <path stroke-width="1" stroke="grey" d="M -175.78 199.09 L -171.48 191.06" />
  <path stroke-width="1" stroke="grey" d="M -175.78 199.09 L -186.08 149.24" />
  <path stroke-width="1" stroke="grey" d="M -175.78 199.09 L -199.07 179.83" />
  <path stroke-width="1" stroke="grey" d="M -121.11 206.16 L -124.11 122.45" />
  <path stroke-width="1" stroke="grey" d="M -121.11 206.16 L -162.12 147.67" />
  <path stroke-width="1" stroke="grey" d="M -121.11 206.16 L -179.81 176.27" />
  <path stroke-width="1" stroke="grey" d="M -121.11 206.16 L -161.48 205.64" />
  <path stroke-width="1" stroke="grey" d="M -121.11 206.16 L -100.65 171.81" />
  <path stroke-width="1" stroke="grey" d="M -121.11 206.16 L -104.63 201.70" />
  <path stroke-width="1" stroke="grey" d="M -121.11 206.16 L -111.42 145.16" />
  <path stroke-width="1" stroke="grey" d="M -121.11 206.16 L -116.62 157.42" />
  <path stroke-width="1" stroke="grey" d="M -121.11 206.16 L -91.40 182.35" />
  <path stroke-width="1" stroke="grey" d="M -121.11 206.16 L -214.89 152.79" />
  <path stroke-width="1" stroke="grey" d="M -121.11 206.16 L -247.44 156.91" />
  <path stroke-width="1" stroke="grey" d="M -121.11 206.16 L -214.87 182.77" />
  <path stroke-width="1" stroke="grey" d="M -121.11 206.16 L -139.83 220.44" />
  <path stroke-width="1" stroke="grey" d="M -121.11 206.16 L -105.33 210.34" />
  <path stroke-width="1" stroke="grey" d="M -121.11 206.16 L -78.94 146.45" />
  <path stroke-width="1" stroke="grey" d="M -23.31 134.94 L 2.96 91.45" />
  <path stroke-width="1" stroke="grey" d="M -23.31 134.94 L 24.66 120.88" />
  <path stroke-width="1" stroke="grey" d="M -23.31 134.94 L 52.28 150.28" />
  <path stroke-width="1" stroke="grey" d="M -23.31 134.94 L 123.22 226.87" />
  <path stroke-width="1" stroke="grey" d="M -23.31 134.94 L 0.04 162.29" />
</g>
  <path stroke="#ff0000" stroke-width="2" fill="none" d="M 121.62 89.87 L 120.43 94.41 L 119.74 98.66 L 118.82 103.15 L 117.08 107.44 L 117.08 111.62 L 118.31 115.85 L 119.64 119.89 L 120.24 124.48 L 120.63 128.82 L 120.63 133.53 L 119.78 138.70 L 118.46 143.00 L 115.67 145.98 L 112.44 149.42 L 108.84 152.23 L 104.05 154.56 L 99.90 157.72 L 96.64 160.28 L 92.59 163.64 L 88.81 166.93 L 85.14 170.02 L 79.78 173.34 L 75.26 175.77 L 72.17 178.84 L 68.47 181.12 L 64.47 182.31 L 61.40 185.27 L 57.65 187.74 L 53.63 189.02" />
  <path stroke="#ff0000" stroke-width="2" fill="none" d="M 84.30 79.40 L 83.91 85.11 L 82.74 88.94 L 81.64 94.81 L 80.88 99.56 L 79.96 104.58 L 77.31 110.58 L 75.60 114.61 L 74.04 119.59 L 71.05 123.48 L 69.50 127.24 L 68.71 132.04 L 68.18 137.39 L 67.03 141.32 L 64.21 145.13 L 60.61 148.04 L 56.37 151.20 L 51.85 152.97 L 48.19 155.50 L 44.69 157.75 L 40.26 159.61 L 35.97 162.64 L 32.35 164.94 L 28.78 167.93" />
  <path stroke="#ff0000" stroke-width="2" fill="none" d="M 31.28 162.97 L 25.48 171.09 L 17.56 175.16 L 8.64 178.26 L 2.91 183.87 L -4.90 186.77 L -8.96 193.25" />
  <path stroke="#ff0000" stroke-width="2" fill="none" d="M 57.98 185.42 L 51.63 194.10 L 45.02 199.94 L 37.79 205.47 L 29.74 210.58 L 22.09 214.53 L 14.84 219.29 L 7.13 222.36 L 0.10 225.30" />
  <path stroke="#ff00ff" stroke-width="2" fill="none" d="M 123.77 127.35 L 115.36 123.57 L 106.80 121.93 L 98.11 119.99 L 88.55 117.67 L 80.20 118.06 L 72.64 120.82" />
  <path stroke="#ff00ff" stroke-width="2" fill="none" d="M 88.16 170.32 L 84.29 157.55 L 78.88 149.80 L 70.78 145.75 L 64.86 143.61" />
  <path stroke="#ff00ff" stroke-width="2" fill="none" d="M 51.79 181.55 L 48.60 170.82 L 44.80 162.93 L 39.21 157.55" />
  <path stroke="#ff00ff" stroke-width="2" fill="none" d="M 51.79 181.55 L 51.79 182.98 L 47.92 173.03" />
<!-- point water-flow -->
<g transform="translate(47.38,176.21),scale(10),rotate(226.00)" 
 style="fill:none;stroke:#6666ff;stroke-width:0.1" >
<path d="M 0.00 0.75 C -0.25 0.75 -0.25 0.00 0.00 0.00 C 0.25 0.00 0.25 -0.75 0.00 -0.75 C -0.25 -0.75 -0.25 -1.50 0.00 -1.50 C 0.25 -1.50 0.38 -1.62 0.38 -1.88 C 0.38 -2.12 0.00 -2.25 0.00 -2.50 L 1.00 -1.50 M 0.00 -2.50 L -1.00 -1.50 "/> 
</g>
<!-- point water-flow -->
<g transform="translate(78.30,156.19),scale(10),rotate(226.00)" 
 style="fill:none;stroke:#6666ff;stroke-width:0.1" >
<path d="M 0.00 0.75 C -0.25 0.75 -0.25 0.00 0.00 0.00 C 0.25 0.00 0.25 -0.75 0.00 -0.75 C -0.25 -0.75 -0.25 -1.50 0.00 -1.50 C 0.25 -1.50 0.38 -1.62 0.38 -1.88 C 0.38 -2.12 0.00 -2.25 0.00 -2.50 L 1.00 -1.50 M 0.00 -2.50 L -1.00 -1.50 "/> 
</g>
<!-- point water-flow -->
<g transform="translate(100.93,124.88),scale(10),rotate(226.00)" 
 style="fill:none;stroke:#6666ff;stroke-width:0.1" >
<path d="M 0.00 0.75 C -0.25 0.75 -0.25 0.00 0.00 0.00 C 0.25 0.00 0.25 -0.75 0.00 -0.75 C -0.25 -0.75 -0.25 -1.50 0.00 -1.50 C 0.25 -1.50 0.38 -1.62 0.38 -1.88 C 0.38 -2.12 0.00 -2.25 0.00 -2.50 L 1.00 -1.50 M 0.00 -2.50 L -1.00 -1.50 "/> 
</g>
  <path stroke="#ff0000" stroke-width="2" fill="none" d="M 2.67 221.63 L -0.16 226.10 L -5.78 230.91" />
  <path stroke="#ff0000" stroke-width="2" fill="none" d="M -26.24 243.22 L -32.35 243.49 L -38.14 243.49 L -44.15 243.22 L -49.99 241.23 L -52.77 240.34" />
  <path stroke="#ff0000" stroke-width="2" fill="none" d="M -2.77 189.68 L -10.19 195.94 L -18.00 198.97" />
  <path stroke="#ff0000" stroke-width="2" fill="none" d="M -44.63 207.95 L -50.88 213.42 L -54.30 216.84" />
  <path stroke="#ff0000" stroke-width="2" fill="none" d="M -18.63 199.48 L -25.25 201.14 L -32.22 204.20 L -39.19 206.16 L -44.97 207.78" />
  <path stroke="#ff0000" stroke-width="2" fill="none" d="M -2.86 228.54 L -8.56 232.21 L -14.42 235.19 L -20.29 238.09 L -25.12 242.38 L -30.29 242.35" />
  <path stroke="#ff00ff" stroke-width="2" fill="none" d="M 0.73 225.78 L 0.49 218.21 L -1.51 211.23 L -5.16 205.60 L -9.07 200.23 L -13.32 196.27" />
  <path stroke="#ff00ff" stroke-width="2" fill="none" d="M -52.94 216.64 L -48.37 220.99 L -42.73 224.39 L -35.77 225.50 L -29.38 224.93 L -24.49 219.26 L -24.17 213.09 L -24.72 207.14 L -27.95 201.51" />
  <path stroke="#ff0000" stroke-width="2" fill="none" d="M -32.47 232.70 L -30.72 240.43 L -29.91 247.20 L -29.42 250.55" />
  <path stroke="#ff0000" stroke-width="2" fill="none" d="M -40.49 234.91 L -38.73 240.41 L -35.71 246.60 L -33.57 251.24" />
  <path stroke="#ff0000" stroke-width="2" fill="none" d="M -34.68 205.02 L -37.27 199.42 L -38.97 192.58 L -39.78 186.29" />
  <path stroke="#ff0000" stroke-width="2" fill="none" d="M -45.19 207.51 L -45.75 201.08 L -43.60 193.81 L -41.46 187.72 L -40.51 185.07" />
<!-- point continuation -->
<g transform="translate(-38.88,177.84),scale(10),rotate(0.00)" 
 style="fill:none;stroke:#ff3333;stroke-width:0.1" >
<path d="M 0.00 0.75 L 0.00 0.00 C 0.00 -0.25 0.25 -0.50 0.50 -0.75 C 0.75 -1.00 0.25 -1.50 0.00 -1.50 C -0.25 -1.50 -0.75 -0.75 -0.75 -1.00 M 0.00 1.75 L 0.00 1.25 "/> 
</g>
<!-- point continuation -->
<g transform="translate(-29.29,256.92),scale(10),rotate(0.00)" 
 style="fill:none;stroke:#ff3333;stroke-width:0.1" >
<path d="M 0.00 0.75 L 0.00 0.00 C 0.00 -0.25 0.25 -0.50 0.50 -0.75 C 0.75 -1.00 0.25 -1.50 0.00 -1.50 C -0.25 -1.50 -0.75 -0.75 -0.75 -1.00 M 0.00 1.75 L 0.00 1.25 "/> 
</g>
  <path stroke="#cc0000" stroke-width="2" fill="none" stroke-dasharray="6 2 " d="M -25.00 215.26 L -18.64 216.00 L -12.13 214.98 L -9.23 211.16" />
<!-- point water-flow -->
<g transform="translate(-13.15,214.93),scale(10),rotate(267.00)" 
 style="fill:none;stroke:#6666ff;stroke-width:0.1" >
<path d="M 0.00 0.75 C -0.25 0.75 -0.25 0.00 0.00 0.00 C 0.25 0.00 0.25 -0.75 0.00 -0.75 C -0.25 -0.75 -0.25 -1.50 0.00 -1.50 C 0.25 -1.50 0.38 -1.62 0.38 -1.88 C 0.38 -2.12 0.00 -2.25 0.00 -2.50 L 1.00 -1.50 M 0.00 -2.50 L -1.00 -1.50 "/> 
</g>
  <path stroke="#ff0000" stroke-width="2" fill="none" d="M -43.90 207.77 L -48.94 205.89 L -53.18 204.81 L -56.21 203.03" />
  <path stroke="#ff0000" stroke-width="2" fill="none" d="M -41.13 245.53 L -42.89 240.38 L -45.50 236.02 L -49.02 231.78 L -50.99 228.00 L -53.24 224.12 L -55.75 220.82 L -57.53 216.81 L -60.46 213.37 L -62.69 209.54 L -65.01 205.04 L -67.12 201.15" />
<!-- point water-flow -->
<g transform="translate(-51.86,213.28),scale(10),rotate(306.00)" 
 style="fill:none;stroke:#6666ff;stroke-width:0.1" >
<path d="M 0.00 0.75 C -0.25 0.75 -0.25 0.00 0.00 0.00 C 0.25 0.00 0.25 -0.75 0.00 -0.75 C -0.25 -0.75 -0.25 -1.50 0.00 -1.50 C 0.25 -1.50 0.38 -1.62 0.38 -1.88 C 0.38 -2.12 0.00 -2.25 0.00 -2.50 L 1.00 -1.50 M 0.00 -2.50 L -1.00 -1.50 "/> 
</g>
<!-- point debris -->
<g transform="translate(-37.20,217.15),scale(10),rotate(0.00)" 
 style="fill:none;stroke:#ffcc66;stroke-width:0.1" >
<path d="M 0.00 0.00 L 1.00 0.25 L 0.50 -0.75 L 0.00 0.00 L -1.00 0.00 L -0.50 -1.00 L 0.00 0.00 "/> 
</g>
<!-- point debris -->
<g transform="translate(-49.40,215.89),scale(10),rotate(0.00)" 
 style="fill:none;stroke:#ffcc66;stroke-width:0.1" >
<path d="M 0.00 0.00 L 1.00 0.25 L 0.50 -0.75 L 0.00 0.00 L -1.00 0.00 L -0.50 -1.00 L 0.00 0.00 "/> 
</g>
  <path stroke="#ff0000" stroke-width="2" fill="none" d="M -56.08 203.37 L -57.71 200.05 L -59.25 196.33 L -60.97 193.82 L -62.77 191.41 L -64.75 188.65 L -66.54 186.10 L -68.11 183.43 L -69.80 180.73 L -71.05 177.76 L -73.14 175.15 L -74.72 173.12" />
  <path stroke="#ff0000" stroke-width="2" fill="none" d="M -66.67 203.37 L -68.26 201.16 L -70.27 198.24 L -72.96 196.59 L -75.69 193.07 L -78.17 190.80 L -80.95 187.86 L -83.50 185.25 L -86.40 183.91" />
  <path stroke="#ff0000" stroke-width="2" fill="none" d="M -75.00 174.13 L -77.85 171.34 L -81.65 169.32 L -85.46 168.22 L -88.44 168.34 L -92.27 167.92 L -95.32 167.21 L -98.50 166.65 L -102.49 166.93 L -106.33 166.65 L -109.69 166.65 L -112.82 166.79" />
  <path stroke="#ff0000" stroke-width="2" fill="none" d="M -85.87 184.58 L -89.24 185.01 L -93.75 184.97 L -96.68 183.68 L -99.58 182.47 L -102.57 181.32 L -105.44 179.53" />
<!-- point water-flow -->
<g transform="translate(-74.30,188.09),scale(10),rotate(306.00)" 
 style="fill:none;stroke:#6666ff;stroke-width:0.1" >
<path d="M 0.00 0.75 C -0.25 0.75 -0.25 0.00 0.00 0.00 C 0.25 0.00 0.25 -0.75 0.00 -0.75 C -0.25 -0.75 -0.25 -1.50 0.00 -1.50 C 0.25 -1.50 0.38 -1.62 0.38 -1.88 C 0.38 -2.12 0.00 -2.25 0.00 -2.50 L 1.00 -1.50 M 0.00 -2.50 L -1.00 -1.50 "/> 
</g>
<!-- point label -->
<text x="-73.63" y=".2f"  style="fill:black;stroke:black;stroke-width:0.3">meander</text>
  <path stroke="#ff0000" stroke-width="2" fill="none" d="M -110.98 167.97 L -114.42 167.47 L -117.57 168.11 L -120.44 167.54 L -123.22 165.75 L -126.12 163.56 L -128.52 162.02 L -131.58 159.99 L -134.97 157.38 L -138.10 155.56 L -140.71 153.62 L -143.34 151.40 L -146.09 148.94 L -148.27 147.07" />
  <path stroke="#ff0000" stroke-width="2" fill="none" d="M -102.65 182.09 L -107.59 181.03 L -113.04 181.30 L -117.05 182.09 L -121.49 181.46 L -126.11 179.92 L -130.41 179.30 L -134.01 177.98 L -137.31 175.52 L -140.17 173.08 L -143.24 170.77 L -145.49 167.90 L -147.60 165.84 L -150.92 163.38 L -154.38 161.90 L -157.22 160.02" />
<!-- point debris -->
<g transform="translate(-121.14,174.61),scale(10),rotate(0.00)" 
 style="fill:none;stroke:#ffcc66;stroke-width:0.1" >
<path d="M 0.00 0.00 L 1.00 0.25 L 0.50 -0.75 L 0.00 0.00 L -1.00 0.00 L -0.50 -1.00 L 0.00 0.00 "/> 
</g>
<!-- point debris -->
<g transform="translate(-134.47,167.52),scale(10),rotate(0.00)" 
 style="fill:none;stroke:#ffcc66;stroke-width:0.1" >
<path d="M 0.00 0.00 L 1.00 0.25 L 0.50 -0.75 L 0.00 0.00 L -1.00 0.00 L -0.50 -1.00 L 0.00 0.00 "/> 
</g>
<!-- point water-flow -->
<g transform="translate(-127.38,171.92),scale(10),rotate(306.00)" 
 style="fill:none;stroke:#6666ff;stroke-width:0.1" >
<path d="M 0.00 0.75 C -0.25 0.75 -0.25 0.00 0.00 0.00 C 0.25 0.00 0.25 -0.75 0.00 -0.75 C -0.25 -0.75 -0.25 -1.50 0.00 -1.50 C 0.25 -1.50 0.38 -1.62 0.38 -1.88 C 0.38 -2.12 0.00 -2.25 0.00 -2.50 L 1.00 -1.50 M 0.00 -2.50 L -1.00 -1.50 "/> 
</g>
  <path stroke="#ff00ff" stroke-width="2" fill="none" d="M -147.96 173.76 L -145.14 170.44 L -141.88 165.67 L -140.30 161.95 L -138.97 154.36 L -138.78 149.26 L -139.63 142.83 L -140.39 140.92" />
  <path stroke="#ff0000" stroke-width="2" fill="none" d="M -149.87 166.20 L -157.35 166.40 L -164.10 165.61 L -168.96 164.56 L -174.80 163.09 L -178.97 162.20 L -183.54 161.20 L -188.31 160.96 L -192.36 159.88 L -196.77 158.33 L -201.83 157.85 L -206.00 156.07 L -209.51 153.57 L -213.57 151.25 L -217.03 148.82 L -219.31 144.75 L -221.26 140.10 L -223.58 135.77 L -224.22 130.73 L -223.59 126.53 L -223.44 122.17 L -223.39 118.16 L -221.43 114.05 L -219.44 110.55 L -223.19 115.99 L -224.37 111.56 L -227.51 106.36 L -228.51 101.80 L -229.12 96.22 L -230.00 91.10 L -230.60 84.68 L -231.09 79.21 L -231.90 74.81 L -233.24 69.42 L -233.95 64.84 L -234.45 59.47 L -234.26 55.12 L -233.59 50.51 L -232.19 46.30" />
  <path stroke="#ff0000" stroke-width="2" fill="none" d="M -147.90 148.21 L -151.37 144.12 L -155.97 140.69 L -161.49 137.13 L -167.01 133.81 L -172.22 131.34 L -177.30 128.17 L -181.44 126.21 L -185.88 124.17 L -191.12 121.75 L -195.81 119.75 L -199.88 116.84 L -202.53 113.63 L -203.51 110.85 L -202.05 110.65 L -204.61 106.30 L -206.27 100.08 L -207.74 95.41 L -209.71 91.16 L -212.12 87.12 L -212.91 83.06 L -213.31 78.89 L -213.31 74.57 L -213.31 70.20 L -213.31 65.10 L -213.73 60.54 L -213.97 56.20 L -214.54 51.40 L -215.22 47.06 L -216.05 42.97 L -216.67 38.88" />
  <path stroke="#ff00ff" stroke-width="2" fill="none" d="M -202.44 157.31 L -205.51 157.29 L -204.16 161.12 L -200.72 157.34 L -198.10 152.55 L -192.98 145.48 L -190.68 138.99 L -188.01 134.09 L -186.85 129.24 L -186.16 123.96 L -185.84 118.53" />
<!-- point debris -->
<g transform="translate(-181.05,147.24),scale(10),rotate(0.00)" 
 style="fill:none;stroke:#ffcc66;stroke-width:0.1" >
<path d="M 0.00 0.00 L 1.00 0.25 L 0.50 -0.75 L 0.00 0.00 L -1.00 0.00 L -0.50 -1.00 L 0.00 0.00 "/> 
</g>
<!-- point debris -->
<g transform="translate(-185.68,144.42),scale(10),rotate(0.00)" 
 style="fill:none;stroke:#ffcc66;stroke-width:0.1" >
<path d="M 0.00 0.00 L 1.00 0.25 L 0.50 -0.75 L 0.00 0.00 L -1.00 0.00 L -0.50 -1.00 L 0.00 0.00 "/> 
</g>
<!-- point water-flow -->
<g transform="translate(-198.71,140.88),scale(10),rotate(311.00)" 
 style="fill:none;stroke:#6666ff;stroke-width:0.1" >
<path d="M 0.00 0.75 C -0.25 0.75 -0.25 0.00 0.00 0.00 C 0.25 0.00 0.25 -0.75 0.00 -0.75 C -0.25 -0.75 -0.25 -1.50 0.00 -1.50 C 0.25 -1.50 0.38 -1.62 0.38 -1.88 C 0.38 -2.12 0.00 -2.25 0.00 -2.50 L 1.00 -1.50 M 0.00 -2.50 L -1.00 -1.50 "/> 
</g>
<!-- point blocks -->
<g transform="translate(-225.36,57.35),scale(10),rotate(0.00)" 
 style="fill:none;stroke:#ffcc66;stroke-width:0.1" >
<path d="M -1.75 1.00 L 2.00 1.25 L 1.75 -1.25 L -1.25 -1.50 L -1.75 -1.00 L -1.75 1.00 L -1.50 0.50 L -1.25 -0.50 L -1.00 -1.00 L 1.25 -0.75 L 1.75 -1.25 M -1.00 -1.00 L -1.25 -1.50 "/> 
</g>
<!-- point blocks -->
<g transform="translate(-222.79,73.88),scale(10),rotate(0.00)" 
 style="fill:none;stroke:#ffcc66;stroke-width:0.1" >
<path d="M -1.75 1.00 L 2.00 1.25 L 1.75 -1.25 L -1.25 -1.50 L -1.75 -1.00 L -1.75 1.00 L -1.50 0.50 L -1.25 -0.50 L -1.00 -1.00 L 1.25 -0.75 L 1.75 -1.25 M -1.00 -1.00 L -1.25 -1.50 "/> 
</g>
  <path stroke="#ff00ff" stroke-width="2" fill="none" d="M -227.74 119.94 L -222.82 116.73 L -218.22 111.77 L -213.61 106.40 L -210.96 102.99 L -208.34 98.34 L -207.51 94.38" />
<!-- point water-flow -->
<g transform="translate(-219.35,95.08),scale(10),rotate(320.00)" 
 style="fill:none;stroke:#6666ff;stroke-width:0.1" >
<path d="M 0.00 0.75 C -0.25 0.75 -0.25 0.00 0.00 0.00 C 0.25 0.00 0.25 -0.75 0.00 -0.75 C -0.25 -0.75 -0.25 -1.50 0.00 -1.50 C 0.25 -1.50 0.38 -1.62 0.38 -1.88 C 0.38 -2.12 0.00 -2.25 0.00 -2.50 L 1.00 -1.50 M 0.00 -2.50 L -1.00 -1.50 "/> 
</g>
<!-- point debris -->
<g transform="translate(-219.99,98.90),scale(10),rotate(0.00)" 
 style="fill:none;stroke:#ffcc66;stroke-width:0.1" >
<path d="M 0.00 0.00 L 1.00 0.25 L 0.50 -0.75 L 0.00 0.00 L -1.00 0.00 L -0.50 -1.00 L 0.00 0.00 "/> 
</g>
  <path stroke="#ff0000" stroke-width="2" fill="none" d="M -217.32 38.49 L -215.24 35.58 L -213.98 32.35 L -212.43 28.65 L -211.76 25.89 L -211.79 22.58 L -211.24 19.29 L -210.96 14.27 L -210.96 11.22 L -211.88 7.81 L -212.94 4.90 L -214.39 2.40 L -216.11 -0.44 L -217.07 -3.37 L -218.22 -6.27 L -219.67 -9.12 L -221.25 -11.42 L -222.61 -14.15 L -224.51 -17.28 L -226.31 -21.16 L -227.28 -24.19 L -229.60 -26.24 L -231.71 -28.91 L -233.63 -32.62 L -235.35 -34.92 L -237.93 -38.04 L -239.87 -40.94 L -241.61 -43.49 L -244.71 -45.38 L -246.96 -47.04 L -249.48 -48.77 L -252.71 -48.70" />
  <path stroke="#ff00ff" stroke-width="2" fill="none" d="M -233.09 49.01 L -228.66 42.78 L -225.90 36.83 L -221.89 31.84 L -217.74 27.56 L -212.67 25.98" />
  <path stroke="#ff0000" stroke-width="2" fill="none" d="M -249.97 -47.87 L -253.59 -45.97 L -255.78 -42.61 L -258.26 -41.10 L -261.94 -38.21 L -263.79 -34.47 L -267.63 -31.15 L -270.93 -27.09 L -272.52 -23.93 L -275.61 -19.08 L -278.44 -14.65 L -281.48 -10.08 L -283.43 -6.24 L -285.19 -0.31 L -286.42 4.18 L -287.22 7.57 L -287.87 10.66 L -288.27 15.79 L -288.81 19.61 L -289.32 23.23 L -289.25 26.45 L -290.19 31.40 L -290.49 34.16 L -291.47 39.04 L -291.57 44.70 L -291.47 49.17 L -292.42 53.05 L -293.13 56.34 L -294.23 61.32 L -295.58 65.06 L -296.63 68.11 L -297.28 71.28 L -298.25 75.16 L -298.80 78.76 L -299.21 82.89 L -298.13 86.98 L -297.41 90.21 L -297.14 93.02 L -295.89 97.86 L -293.48 101.60 L -290.88 104.56 L -289.12 107.41 L -286.72 111.01 L -284.09 113.68 L -281.81 116.37 L -279.34 119.64 L -278.36 122.55 L -277.29 125.43 L -275.06 128.28 L -273.62 131.07 L -271.84 134.51 L -269.04 136.95 L -266.85 139.37 L -264.96 141.67 L -262.56 144.50" />
  <path stroke="#ff00ff" stroke-width="2" fill="none" d="M -233.09 49.01 L -238.90 40.57 L -237.57 31.27 L -236.68 24.30 L -236.41 18.28 L -237.36 11.20 L -238.07 5.20 L -239.18 -1.33 L -240.84 -7.69 L -243.06 -13.30 L -247.74 -17.96 L -250.76 -23.20 L -257.28 -27.84 L -262.69 -30.71 L -268.13 -28.77 L -271.08 -28.26" />
  <path stroke="#ff0000" stroke-width="2" fill="none" d="M -232.19 46.30 L -236.93 52.68 L -236.18 59.32 L -234.49 65.37 L -232.86 71.06 L -230.84 76.87 L -228.95 82.49 L -226.95 90.12 L -226.11 96.16 L -225.02 102.27 L -224.01 108.93 L -222.90 114.81 L -221.14 123.54 L -221.24 129.73 L -222.07 136.19 L -222.35 141.79 L -222.35 148.81 L -219.58 154.12 L -215.43 159.24 L -215.16 165.06" />
  <path stroke="black" stroke-width="1" fill="#3366ff" fill-opacity="0.5" d="M -263.57 82.16 L -259.46 77.59 L -255.79 72.10 L -254.31 64.88 L -255.18 57.41 L -260.05 52.83 L -267.29 50.88 L -275.74 52.11 L -282.85 55.97 L -286.51 61.77 L -286.81 68.38 L -283.51 74.82 L -276.18 80.76 L -269.38 85.48 L -262.33 89.77 L -257.88 87.57 Z" />
  <path stroke="#ff00ff" stroke-width="2" fill="none" d="M -229.27 154.40 L -232.45 147.48 L -237.00 139.55 L -240.01 132.98 L -244.88 125.96 L -248.90 120.64 L -253.61 115.38 L -259.01 112.00 L -264.79 111.22 L -268.66 115.31 L -268.26 121.51 L -266.67 128.27 L -264.12 134.61 L -262.65 142.11" />
  <path stroke="#cccccc" stroke-width="2" fill="none" d="M -265.22 144.94 L -260.95 153.87 L -257.24 162.19 L -252.70 172.31 L -247.60 179.62 L -239.66 187.95 L -229.05 195.48 L -219.59 198.78 L -211.97 204.42 L -202.95 209.22 L -195.16 212.75 L -187.18 215.08 L -179.60 216.60 L -171.10 216.43 L -162.11 213.41 L -151.54 210.62 L -140.83 208.19 L -132.00 206.94 L -123.54 208.88" />
  <path stroke="#cccccc" stroke-width="2" fill="none" d="M -216.70 163.52 L -207.58 165.82 L -198.78 165.01 L -189.53 163.52 L -180.17 160.63 L -171.36 158.52 L -162.10 159.28 L -153.58 160.05 L -144.61 158.90 L -137.15 156.42 L -129.62 152.75 L -121.05 153.34 L -119.43 160.44" />
  <path stroke="#ff00ff" stroke-width="2" fill="none" d="M -186.32 162.36 L -193.07 167.19 L -198.43 175.06 L -200.93 183.64 L -202.09 192.56 L -199.97 200.83 L -195.94 209.29 L -193.63 214.71" />
<!-- point water-flow -->
<g transform="translate(-204.01,187.36),scale(10),rotate(128.00)" 
 style="fill:none;stroke:#6666ff;stroke-width:0.1" >
<path d="M 0.00 0.75 C -0.25 0.75 -0.25 0.00 0.00 0.00 C 0.25 0.00 0.25 -0.75 0.00 -0.75 C -0.25 -0.75 -0.25 -1.50 0.00 -1.50 C 0.25 -1.50 0.38 -1.62 0.38 -1.88 C 0.38 -2.12 0.00 -2.25 0.00 -2.50 L 1.00 -1.50 M 0.00 -2.50 L -1.00 -1.50 "/> 
</g>
<!-- point water-flow -->
<g transform="translate(-221.45,175.58),scale(10),rotate(128.00)" 
 style="fill:none;stroke:#6666ff;stroke-width:0.1" >
<path d="M 0.00 0.75 C -0.25 0.75 -0.25 0.00 0.00 0.00 C 0.25 0.00 0.25 -0.75 0.00 -0.75 C -0.25 -0.75 -0.25 -1.50 0.00 -1.50 C 0.25 -1.50 0.38 -1.62 0.38 -1.88 C 0.38 -2.12 0.00 -2.25 0.00 -2.50 L 1.00 -1.50 M 0.00 -2.50 L -1.00 -1.50 "/> 
</g>
</g>
</svg>
