  999
DXF created by TopoDroid v. 3.1.4
  0
SECTION
  2
HEADER
  9
$ACADVER
  1
AC1009
  9
$INSBASE
  10
0.00
  20
0.00
  30
0.00
  9
$EXTMIN
  10
-301.21
  20
-258.92
  30
0.00
  9
$EXTMAX
  10
121.62
  20
48.77
  30
0.00
  0
ENDSEC
  0
SECTION
  2
TABLES
  0
TABLE
  2
LTYPE
  70
1
  0
LTYPE
  2
CONTINUOUS
  70
64
  3
Solid line
  72
65
  73
0
  40
0.0
  0
ENDTAB
  0
TABLE
  2
LAYER
  70
36
  0
LAYER
  2
LEG
  70
0
  62
1
  6
CONTINUOUS
  0
LAYER
  2
SPLAY
  70
0
  62
2
  6
CONTINUOUS
  0
LAYER
  2
STATION
  70
0
  62
3
  6
CONTINUOUS
  0
LAYER
  2
LINE
  70
0
  62
4
  6
CONTINUOUS
  0
LAYER
  2
POINT
  70
0
  62
5
  6
CONTINUOUS
  0
LAYER
  2
REF
  70
0
  62
6
  6
CONTINUOUS
  0
LAYER
  2
L_u-user
  70
0
  62
7
  6
CONTINUOUS
  0
LAYER
  2
L_wall
  70
0
  62
8
  6
CONTINUOUS
  0
LAYER
  2
L_arrow
  70
0
  62
9
  6
CONTINUOUS
  0
LAYER
  2
L_border
  70
0
  62
10
  6
CONTINUOUS
  0
LAYER
  2
L_ceiling-meander
  70
0
  62
11
  6
CONTINUOUS
  0
LAYER
  2
L_chimney
  70
0
  62
12
  6
CONTINUOUS
  0
LAYER
  2
L_contour
  70
0
  62
13
  6
CONTINUOUS
  0
LAYER
  2
L_fault
  70
0
  62
14
  6
CONTINUOUS
  0
LAYER
  2
L_floor-meander
  70
0
  62
15
  6
CONTINUOUS
  0
LAYER
  2
L_overhang
  70
0
  62
16
  6
CONTINUOUS
  0
LAYER
  2
L_pit
  70
0
  62
17
  6
CONTINUOUS
  0
LAYER
  2
L_wall-presumed
  70
0
  62
18
  6
CONTINUOUS
  0
LAYER
  2
L_rock-border
  70
0
  62
19
  6
CONTINUOUS
  0
LAYER
  2
L_section
  70
0
  62
20
  6
CONTINUOUS
  0
LAYER
  2
L_slope
  70
0
  62
21
  6
CONTINUOUS
  0
LAYER
  2
L_wall-blocks
  70
0
  62
22
  6
CONTINUOUS
  0
LAYER
  2
L_wall-clay
  70
0
  62
23
  6
CONTINUOUS
  0
LAYER
  2
L_wall-debris
  70
0
  62
24
  6
CONTINUOUS
  0
LAYER
  2
L_wall-ice
  70
0
  62
25
  6
CONTINUOUS
  0
LAYER
  2
L_wall-sand
  70
0
  62
26
  6
CONTINUOUS
  0
LAYER
  2
L_water-flow
  70
0
  62
27
  6
CONTINUOUS
  0
LAYER
  2
A_u-user
  70
0
  62
28
  6
CONTINUOUS
  0
LAYER
  2
A_water
  70
0
  62
29
  6
CONTINUOUS
  0
LAYER
  2
A_blocks
  70
0
  62
30
  6
CONTINUOUS
  0
LAYER
  2
A_clay
  70
0
  62
31
  6
CONTINUOUS
  0
LAYER
  2
A_debris
  70
0
  62
32
  6
CONTINUOUS
  0
LAYER
  2
A_ice
  70
0
  62
33
  6
CONTINUOUS
  0
LAYER
  2
A_pebbles
  70
0
  62
34
  6
CONTINUOUS
  0
LAYER
  2
A_sand
  70
0
  62
35
  6
CONTINUOUS
  0
LAYER
  2
A_snow
  70
0
  62
36
  6
CONTINUOUS
  0
ENDTAB
  0
TABLE
  2
VIEW
  70
0
  0
ENDTAB
  0
TABLE
  2
UCS
  70
0
  0
ENDTAB
  0
TABLE
  2
APPID
  70
1
  0
APPID
  2
ACAD
  70
0
  0
ENDTAB
  0
ENDSEC
  0
SECTION
  2
BLOCKS
  0
BLOCK
  8
POINT
  2
P_u-user
  70
64
  10
0.0
  20
0.0
  30
0.0
  0
CIRCLE
  8
POINT
  10
0.00
  20
-0.00
  30
0.00
  40
0.30
  0
ENDBLK
  0
BLOCK
  8
POINT
  2
P_label
  70
64
  10
0.0
  20
0.0
  30
0.0
  0
LINE
  8
POINT
  10
0.00
  20
-0.15
  30
0.00
  11
0.00
  21
0.30
  31
0.00
  0
LINE
  8
POINT
  10
0.00
  20
0.30
  30
0.00
  11
-0.15
  21
0.30
  31
0.00
  0
LINE
  8
POINT
  10
-0.15
  20
0.30
  30
0.00
  11
0.15
  21
0.30
  31
0.00
  0
ENDBLK
  0
BLOCK
  8
POINT
  2
P_air-draught
  70
64
  10
0.0
  20
0.0
  30
0.0
  0
LINE
  8
POINT
  10
-0.20
  20
-0.35
  30
0.00
  11
0.00
  21
-0.15
  31
0.00
  0
LINE
  8
POINT
  10
0.00
  20
-0.15
  30
0.00
  11
0.00
  21
0.50
  31
0.00
  0
LINE
  8
POINT
  10
0.00
  20
0.50
  30
0.00
  11
0.20
  21
0.30
  31
0.00
  0
LINE
  8
POINT
  10
0.00
  20
0.50
  30
0.00
  11
-0.20
  21
0.30
  31
0.00
  0
LINE
  8
POINT
  10
-0.20
  20
-0.20
  30
0.00
  11
0.00
  21
-0.00
  31
0.00
  0
ENDBLK
  0
BLOCK
  8
POINT
  2
P_anchor
  70
64
  10
0.0
  20
0.0
  30
0.0
  0
LINE
  8
POINT
  10
0.25
  20
-0.00
  30
0.00
  11
-0.25
  21
-0.00
  31
0.00
  0
CIRCLE
  8
POINT
  10
0.00
  20
-0.00
  30
0.00
  40
0.25
  0
ENDBLK
  0
BLOCK
  8
POINT
  2
P_aragonite
  70
64
  10
0.0
  20
0.0
  30
0.0
  0
LINE
  8
POINT
  10
0.00
  20
0.25
  30
0.00
  11
0.00
  21
-0.35
  31
0.00
  0
LINE
  8
POINT
  10
-0.10
  20
0.35
  30
0.00
  11
0.00
  21
0.25
  31
0.00
  0
LINE
  8
POINT
  10
0.00
  20
0.25
  30
0.00
  11
0.10
  21
0.35
  31
0.00
  0
LINE
  8
POINT
  10
-0.15
  20
0.20
  30
0.00
  11
0.00
  21
0.05
  31
0.00
  0
LINE
  8
POINT
  10
0.00
  20
0.05
  30
0.00
  11
0.15
  21
0.20
  31
0.00
  0
ENDBLK
  0
BLOCK
  8
POINT
  2
P_archeo-material
  70
64
  10
0.0
  20
0.0
  30
0.0
  0
LINE
  8
POINT
  10
-0.17
  20
-0.17
  30
0.00
  11
0.00
  21
-0.00
  31
0.00
  0
LINE
  8
POINT
  10
-0.17
  20
0.17
  30
0.00
  11
0.00
  21
-0.00
  31
0.00
  0
LINE
  8
POINT
  10
0.00
  20
-0.00
  30
0.00
  11
0.25
  21
-0.00
  31
0.00
  0
CIRCLE
  8
POINT
  10
0.00
  20
-0.00
  30
0.00
  40
0.25
  0
ENDBLK
  0
BLOCK
  8
POINT
  2
P_blocks
  70
64
  10
0.0
  20
0.0
  30
0.0
  0
LINE
  8
POINT
  10
-0.35
  20
-0.20
  30
0.00
  11
0.40
  21
-0.25
  31
0.00
  0
LINE
  8
POINT
  10
0.40
  20
-0.25
  30
0.00
  11
0.35
  21
0.25
  31
0.00
  0
LINE
  8
POINT
  10
0.35
  20
0.25
  30
0.00
  11
-0.25
  21
0.30
  31
0.00
  0
LINE
  8
POINT
  10
-0.25
  20
0.30
  30
0.00
  11
-0.35
  21
0.20
  31
0.00
  0
LINE
  8
POINT
  10
-0.35
  20
0.20
  30
0.00
  11
-0.35
  21
-0.20
  31
0.00
  0
LINE
  8
POINT
  10
-0.35
  20
-0.20
  30
0.00
  11
-0.30
  21
-0.10
  31
0.00
  0
LINE
  8
POINT
  10
-0.30
  20
-0.10
  30
0.00
  11
-0.25
  21
0.10
  31
0.00
  0
LINE
  8
POINT
  10
-0.25
  20
0.10
  30
0.00
  11
-0.20
  21
0.20
  31
0.00
  0
LINE
  8
POINT
  10
-0.20
  20
0.20
  30
0.00
  11
0.25
  21
0.15
  31
0.00
  0
LINE
  8
POINT
  10
0.25
  20
0.15
  30
0.00
  11
0.35
  21
0.25
  31
0.00
  0
LINE
  8
POINT
  10
-0.20
  20
0.20
  30
0.00
  11
-0.25
  21
0.30
  31
0.00
  0
ENDBLK
  0
BLOCK
  8
POINT
  2
P_breakdown-choke
  70
64
  10
0.0
  20
0.0
  30
0.0
  0
LINE
  8
POINT
  10
-0.20
  20
-0.20
  30
0.00
  11
0.20
  21
0.20
  31
0.00
  0
LINE
  8
POINT
  10
-0.20
  20
0.20
  30
0.00
  11
0.20
  21
-0.20
  31
0.00
  0
ENDBLK
  0
BLOCK
  8
POINT
  2
P_clay
  70
64
  10
0.0
  20
0.0
  30
0.0
  0
ARC
  8
POINT
  10
-0.15
  20
-0.00
  30
0.00
  40
0.15
  50
90.00
  51
180.00
  0
ARC
  8
POINT
  10
-0.15
  20
-0.00
  30
0.00
  40
0.15
  50
0.00
  51
90.00
  0
ARC
  8
POINT
  10
0.15
  20
-0.00
  30
0.00
  40
0.15
  50
180.00
  51
270.00
  0
ARC
  8
POINT
  10
0.15
  20
-0.00
  30
0.00
  40
0.15
  50
270.00
  51
360.00
  0
ENDBLK
  0
BLOCK
  8
POINT
  2
P_continuation
  70
64
  10
0.0
  20
0.0
  30
0.0
  0
LINE
  8
POINT
  10
0.00
  20
-0.15
  30
0.00
  11
0.00
  21
-0.00
  31
0.00
  0
ARC
  8
POINT
  10
0.10
  20
-0.00
  30
0.00
  40
0.10
  50
90.00
  51
180.00
  0
ARC
  8
POINT
  10
0.00
  20
0.15
  30
0.00
  40
0.10
  50
0.00
  51
90.00
  0
ARC
  8
POINT
  10
-0.15
  20
0.30
  30
0.00
  40
0.15
  50
270.00
  51
360.00
  0
LINE
  8
POINT
  10
0.00
  20
-0.35
  30
0.00
  11
0.00
  21
-0.25
  31
0.00
  0
ENDBLK
  0
BLOCK
  8
POINT
  2
P_crystal
  70
64
  10
0.0
  20
0.0
  30
0.0
  0
LINE
  8
POINT
  10
-0.25
  20
-0.00
  30
0.00
  11
0.25
  21
-0.00
  31
0.00
  0
LINE
  8
POINT
  10
0.00
  20
0.25
  30
0.00
  11
0.00
  21
-0.25
  31
0.00
  0
LINE
  8
POINT
  10
0.00
  20
-0.25
  30
0.00
  11
0.25
  21
-0.00
  31
0.00
  0
LINE
  8
POINT
  10
0.25
  20
-0.00
  30
0.00
  11
0.00
  21
0.25
  31
0.00
  0
LINE
  8
POINT
  10
0.00
  20
0.25
  30
0.00
  11
-0.25
  21
-0.00
  31
0.00
  0
LINE
  8
POINT
  10
-0.25
  20
-0.00
  30
0.00
  11
0.00
  21
-0.25
  31
0.00
  0
ENDBLK
  0
BLOCK
  8
POINT
  2
P_curtain
  70
64
  10
0.0
  20
0.0
  30
0.0
  0
LINE
  8
POINT
  10
-0.20
  20
0.20
  30
0.00
  11
0.00
  21
-0.00
  31
0.00
  0
LINE
  8
POINT
  10
0.00
  20
-0.00
  30
0.00
  11
0.20
  21
0.20
  31
0.00
  0
LINE
  8
POINT
  10
0.00
  20
-0.00
  30
0.00
  11
0.00
  21
-0.10
  31
0.00
  0
ARC
  8
POINT
  10
0.00
  20
-0.20
  30
0.00
  40
0.10
  50
90.00
  51
180.00
  0
ARC
  8
POINT
  10
0.00
  20
-0.20
  30
0.00
  40
0.10
  50
180.00
  51
270.00
  0
LINE
  8
POINT
  10
0.00
  20
-0.30
  30
0.00
  11
0.00
  21
-0.40
  31
0.00
  0
ENDBLK
  0
BLOCK
  8
POINT
  2
P_u-danger
  70
64
  10
0.0
  20
0.0
  30
0.0
  0
LINE
  8
POINT
  10
0.00
  20
-0.00
  30
0.00
  11
0.10
  21
0.40
  31
0.00
  0
LINE
  8
POINT
  10
0.10
  20
0.40
  30
0.00
  11
-0.10
  21
0.40
  31
0.00
  0
LINE
  8
POINT
  10
-0.10
  20
0.40
  30
0.00
  11
0.00
  21
-0.00
  31
0.00
  0
CIRCLE
  8
POINT
  10
0.00
  20
-0.20
  30
0.00
  40
0.10
  0
ENDBLK
  0
BLOCK
  8
POINT
  2
P_debris
  70
64
  10
0.0
  20
0.0
  30
0.0
  0
LINE
  8
POINT
  10
0.00
  20
-0.00
  30
0.00
  11
0.20
  21
-0.05
  31
0.00
  0
LINE
  8
POINT
  10
0.20
  20
-0.05
  30
0.00
  11
0.10
  21
0.15
  31
0.00
  0
LINE
  8
POINT
  10
0.10
  20
0.15
  30
0.00
  11
0.00
  21
-0.00
  31
0.00
  0
LINE
  8
POINT
  10
0.00
  20
-0.00
  30
0.00
  11
-0.20
  21
-0.00
  31
0.00
  0
LINE
  8
POINT
  10
-0.20
  20
-0.00
  30
0.00
  11
-0.10
  21
0.20
  31
0.00
  0
LINE
  8
POINT
  10
-0.10
  20
0.20
  30
0.00
  11
0.00
  21
-0.00
  31
0.00
  0
ENDBLK
  0
BLOCK
  8
POINT
  2
P_dig
  70
64
  10
0.0
  20
0.0
  30
0.0
  0
LINE
  8
POINT
  10
-0.25
  20
0.10
  30
0.00
  11
-0.05
  21
0.30
  31
0.00
  0
LINE
  8
POINT
  10
-0.15
  20
0.20
  30
0.00
  11
0.20
  21
-0.15
  31
0.00
  0
LINE
  8
POINT
  10
0.25
  20
0.10
  30
0.00
  11
0.05
  21
0.30
  31
0.00
  0
LINE
  8
POINT
  10
0.15
  20
0.20
  30
0.00
  11
-0.20
  21
-0.15
  31
0.00
  0
ENDBLK
  0
BLOCK
  8
POINT
  2
P_disc
  70
64
  10
0.0
  20
0.0
  30
0.0
  0
CIRCLE
  8
POINT
  10
0.00
  20
0.15
  30
0.00
  40
0.15
  0
LINE
  8
POINT
  10
-0.10
  20
-0.15
  30
0.00
  11
0.00
  21
-0.00
  31
0.00
  0
LINE
  8
POINT
  10
0.00
  20
-0.00
  30
0.00
  11
0.10
  21
-0.15
  31
0.00
  0
ENDBLK
  0
BLOCK
  8
POINT
  2
P_entrance
  70
64
  10
0.0
  20
0.0
  30
0.0
  0
LINE
  8
POINT
  10
0.00
  20
0.30
  30
0.00
  11
-0.15
  21
-0.15
  31
0.00
  0
LINE
  8
POINT
  10
-0.15
  20
-0.15
  30
0.00
  11
0.15
  21
-0.15
  31
0.00
  0
LINE
  8
POINT
  10
0.15
  20
-0.15
  30
0.00
  11
0.00
  21
0.30
  31
0.00
  0
ENDBLK
  0
BLOCK
  8
POINT
  2
P_flowstone
  70
64
  10
0.0
  20
0.0
  30
0.0
  0
LINE
  8
POINT
  10
-0.30
  20
0.10
  30
0.00
  11
-0.05
  21
0.10
  31
0.00
  0
LINE
  8
POINT
  10
0.10
  20
0.10
  30
0.00
  11
0.35
  21
0.10
  31
0.00
  0
LINE
  8
POINT
  10
-0.15
  20
-0.10
  30
0.00
  11
0.15
  21
-0.10
  31
0.00
  0
ENDBLK
  0
BLOCK
  8
POINT
  2
P_flute
  70
64
  10
0.0
  20
0.0
  30
0.0
  0
LINE
  8
POINT
  10
-0.30
  20
-0.00
  30
0.00
  11
0.30
  21
-0.00
  31
0.00
  0
ARC
  8
POINT
  10
0.00
  20
-0.00
  30
0.00
  40
0.15
  50
90.00
  51
180.00
  0
ARC
  8
POINT
  10
0.00
  20
-0.00
  30
0.00
  40
0.15
  50
0.00
  51
90.00
  0
ENDBLK
  0
BLOCK
  8
POINT
  2
P_gradient
  70
64
  10
0.0
  20
0.0
  30
0.0
  0
LINE
  8
POINT
  10
0.00
  20
-0.40
  30
0.00
  11
0.00
  21
0.20
  31
0.00
  0
LINE
  8
POINT
  10
0.00
  20
0.20
  30
0.00
  11
-0.10
  21
0.10
  31
0.00
  0
LINE
  8
POINT
  10
-0.10
  20
0.10
  30
0.00
  11
0.10
  21
0.10
  31
0.00
  0
LINE
  8
POINT
  10
0.10
  20
0.10
  30
0.00
  11
0.00
  21
0.20
  31
0.00
  0
ENDBLK
  0
BLOCK
  8
POINT
  2
P_guano
  70
64
  10
0.0
  20
0.0
  30
0.0
  0
ARC
  8
POINT
  10
-0.12
  20
-0.00
  30
0.00
  40
0.12
  50
0.00
  51
180.00
  0
LINE
  8
POINT
  10
0.00
  20
-0.00
  30
0.00
  11
0.00
  21
-0.30
  31
0.00
  0
ARC
  8
POINT
  10
0.12
  20
-0.00
  30
0.00
  40
0.12
  50
0.00
  51
180.00
  0
ENDBLK
  0
BLOCK
  8
POINT
  2
P_gypsum
  70
64
  10
0.0
  20
0.0
  30
0.0
  0
LINE
  8
POINT
  10
-0.25
  20
-0.00
  30
0.00
  11
0.00
  21
0.25
  31
0.00
  0
LINE
  8
POINT
  10
0.00
  20
0.25
  30
0.00
  11
0.00
  21
-0.25
  31
0.00
  0
LINE
  8
POINT
  10
0.00
  20
-0.25
  30
0.00
  11
0.25
  21
-0.00
  31
0.00
  0
LINE
  8
POINT
  10
0.25
  20
-0.00
  30
0.00
  11
-0.25
  21
-0.00
  31
0.00
  0
ENDBLK
  0
BLOCK
  8
POINT
  2
P_helictite
  70
64
  10
0.0
  20
0.0
  30
0.0
  0
LINE
  8
POINT
  10
0.00
  20
0.35
  30
0.00
  11
0.00
  21
-0.35
  31
0.00
  0
LINE
  8
POINT
  10
-0.15
  20
0.25
  30
0.00
  11
-0.15
  21
-0.00
  31
0.00
  0
LINE
  8
POINT
  10
-0.15
  20
-0.00
  30
0.00
  11
0.15
  21
-0.00
  31
0.00
  0
LINE
  8
POINT
  10
0.15
  20
-0.00
  30
0.00
  11
0.15
  21
-0.25
  31
0.00
  0
ENDBLK
  0
BLOCK
  8
POINT
  2
P_ice
  70
64
  10
0.0
  20
0.0
  30
0.0
  0
LINE
  8
POINT
  10
-0.25
  20
-0.00
  30
0.00
  11
0.25
  21
-0.00
  31
0.00
  0
LINE
  8
POINT
  10
0.00
  20
0.25
  30
0.00
  11
0.00
  21
-0.25
  31
0.00
  0
ENDBLK
  0
BLOCK
  8
POINT
  2
P_low-end
  70
64
  10
0.0
  20
0.0
  30
0.0
  0
LINE
  8
POINT
  10
-0.30
  20
0.10
  30
0.00
  11
0.30
  21
0.10
  31
0.00
  0
LINE
  8
POINT
  10
-0.30
  20
-0.10
  30
0.00
  11
0.30
  21
-0.10
  31
0.00
  0
ENDBLK
  0
BLOCK
  8
POINT
  2
P_moonmilk
  70
64
  10
0.0
  20
0.0
  30
0.0
  0
ARC
  8
POINT
  10
-0.28
  20
-0.05
  30
0.00
  40
0.12
  50
0.00
  51
180.00
  0
ARC
  8
POINT
  10
-0.03
  20
-0.05
  30
0.00
  40
0.12
  50
0.00
  51
180.00
  0
ARC
  8
POINT
  10
0.23
  20
-0.05
  30
0.00
  40
0.12
  50
0.00
  51
180.00
  0
ENDBLK
  0
BLOCK
  8
POINT
  2
P_narrow-end
  70
64
  10
0.0
  20
0.0
  30
0.0
  0
LINE
  8
POINT
  10
-0.10
  20
0.30
  30
0.00
  11
-0.10
  21
-0.30
  31
0.00
  0
LINE
  8
POINT
  10
0.10
  20
0.30
  30
0.00
  11
0.10
  21
-0.30
  31
0.00
  0
ENDBLK
  0
BLOCK
  8
POINT
  2
P_paleo-material
  70
64
  10
0.0
  20
0.0
  30
0.0
  0
CIRCLE
  8
POINT
  10
-0.25
  20
-0.10
  30
0.00
  40
0.05
  0
CIRCLE
  8
POINT
  10
-0.20
  20
-0.20
  30
0.00
  40
0.05
  0
CIRCLE
  8
POINT
  10
0.20
  20
0.20
  30
0.00
  40
0.05
  0
CIRCLE
  8
POINT
  10
0.25
  20
0.10
  30
0.00
  40
0.05
  0
LINE
  8
POINT
  10
-0.21
  20
-0.09
  30
0.00
  11
0.17
  21
0.17
  31
0.00
  0
LINE
  8
POINT
  10
0.21
  20
0.09
  30
0.00
  11
-0.17
  21
-0.17
  31
0.00
  0
ENDBLK
  0
BLOCK
  8
POINT
  2
P_paleoflow
  70
64
  10
0.0
  20
0.0
  30
0.0
  0
LINE
  8
POINT
  10
0.00
  20
-0.25
  30
0.00
  11
0.00
  21
0.35
  31
0.00
  0
LINE
  8
POINT
  10
0.00
  20
0.35
  30
0.00
  11
0.10
  21
0.25
  31
0.00
  0
LINE
  8
POINT
  10
0.00
  20
0.35
  30
0.00
  11
-0.10
  21
0.25
  31
0.00
  0
ARC
  8
POINT
  10
0.00
  20
-0.00
  30
0.00
  40
0.15
  50
90.00
  51
180.00
  0
ARC
  8
POINT
  10
0.00
  20
-0.00
  30
0.00
  40
0.15
  50
0.00
  51
90.00
  0
ENDBLK
  0
BLOCK
  8
POINT
  2
P_pebbles
  70
64
  10
0.0
  20
0.0
  30
0.0
  0
CIRCLE
  8
POINT
  10
-0.15
  20
-0.05
  30
0.00
  40
0.10
  0
CIRCLE
  8
POINT
  10
0.20
  20
-0.15
  30
0.00
  40
0.10
  0
CIRCLE
  8
POINT
  10
0.15
  20
0.15
  30
0.00
  40
0.10
  0
ENDBLK
  0
BLOCK
  8
POINT
  2
P_pendant
  70
64
  10
0.0
  20
0.0
  30
0.0
  0
ARC
  8
POINT
  10
-0.20
  20
0.20
  30
0.00
  40
0.10
  50
90.00
  51
270.00
  0
ARC
  8
POINT
  10
0.00
  20
0.10
  30
0.00
  40
0.20
  50
180.00
  51
270.00
  0
ARC
  8
POINT
  10
0.20
  20
-0.30
  30
0.00
  40
0.20
  50
90.00
  51
180.00
  0
ARC
  8
POINT
  10
0.20
  20
0.20
  30
0.00
  40
0.10
  50
90.00
  51
270.00
  0
ENDBLK
  0
BLOCK
  8
POINT
  2
P_pillar
  70
64
  10
0.0
  20
0.0
  30
0.0
  0
LINE
  8
POINT
  10
-0.15
  20
0.35
  30
0.00
  11
0.00
  21
0.20
  31
0.00
  0
LINE
  8
POINT
  10
0.00
  20
0.20
  30
0.00
  11
0.00
  21
-0.20
  31
0.00
  0
LINE
  8
POINT
  10
0.00
  20
-0.20
  30
0.00
  11
-0.15
  21
-0.35
  31
0.00
  0
LINE
  8
POINT
  10
0.00
  20
-0.20
  30
0.00
  11
0.15
  21
-0.35
  31
0.00
  0
LINE
  8
POINT
  10
0.00
  20
0.20
  30
0.00
  11
0.15
  21
0.35
  31
0.00
  0
ENDBLK
  0
BLOCK
  8
POINT
  2
P_popcorn
  70
64
  10
0.0
  20
0.0
  30
0.0
  0
LINE
  8
POINT
  10
-0.35
  20
-0.20
  30
0.00
  11
0.35
  21
-0.20
  31
0.00
  0
LINE
  8
POINT
  10
-0.30
  20
-0.20
  30
0.00
  11
-0.30
  21
0.05
  31
0.00
  0
CIRCLE
  8
POINT
  10
-0.30
  20
0.10
  30
0.00
  40
0.05
  0
LINE
  8
POINT
  10
0.00
  20
-0.20
  30
0.00
  11
0.00
  21
0.05
  31
0.00
  0
CIRCLE
  8
POINT
  10
0.00
  20
0.10
  30
0.00
  40
0.05
  0
LINE
  8
POINT
  10
0.30
  20
-0.20
  30
0.00
  11
0.30
  21
0.05
  31
0.00
  0
CIRCLE
  8
POINT
  10
0.30
  20
0.10
  30
0.00
  40
0.05
  0
ENDBLK
  0
BLOCK
  8
POINT
  2
P_root
  70
64
  10
0.0
  20
0.0
  30
0.0
  0
LINE
  8
POINT
  10
0.00
  20
0.40
  30
0.00
  11
0.00
  21
-0.20
  31
0.00
  0
LINE
  8
POINT
  10
0.00
  20
-0.20
  30
0.00
  11
0.15
  21
-0.35
  31
0.00
  0
LINE
  8
POINT
  10
0.00
  20
-0.05
  30
0.00
  11
0.15
  21
-0.20
  31
0.00
  0
LINE
  8
POINT
  10
0.00
  20
0.10
  30
0.00
  11
0.15
  21
-0.05
  31
0.00
  0
ENDBLK
  0
BLOCK
  8
POINT
  2
P_sand
  70
64
  10
0.0
  20
0.0
  30
0.0
  0
LINE
  8
POINT
  10
-0.35
  20
-0.15
  30
0.00
  11
-0.25
  21
-0.15
  31
0.00
  0
LINE
  8
POINT
  10
-0.25
  20
-0.15
  30
0.00
  11
-0.30
  21
-0.05
  31
0.00
  0
LINE
  8
POINT
  10
-0.30
  20
-0.05
  30
0.00
  11
-0.35
  21
-0.15
  31
0.00
  0
LINE
  8
POINT
  10
0.35
  20
-0.15
  30
0.00
  11
0.25
  21
-0.15
  31
0.00
  0
LINE
  8
POINT
  10
0.25
  20
-0.15
  30
0.00
  11
0.30
  21
-0.05
  31
0.00
  0
LINE
  8
POINT
  10
0.30
  20
-0.05
  30
0.00
  11
0.35
  21
-0.15
  31
0.00
  0
LINE
  8
POINT
  10
-0.05
  20
0.15
  30
0.00
  11
0.05
  21
0.15
  31
0.00
  0
LINE
  8
POINT
  10
0.05
  20
0.15
  30
0.00
  11
0.00
  21
0.25
  31
0.00
  0
LINE
  8
POINT
  10
0.00
  20
0.25
  30
0.00
  11
-0.05
  21
0.15
  31
0.00
  0
ENDBLK
  0
BLOCK
  8
POINT
  2
P_scallop
  70
64
  10
0.0
  20
0.0
  30
0.0
  0
LINE
  8
POINT
  10
0.00
  20
-0.30
  30
0.00
  11
-0.15
  21
-0.00
  31
0.00
  0
ARC
  8
POINT
  10
0.00
  20
-0.00
  30
0.00
  40
0.15
  50
90.00
  51
180.00
  0
ARC
  8
POINT
  10
0.00
  20
-0.00
  30
0.00
  40
0.15
  50
0.00
  51
90.00
  0
LINE
  8
POINT
  10
0.15
  20
-0.00
  30
0.00
  11
0.00
  21
-0.30
  31
0.00
  0
ENDBLK
  0
BLOCK
  8
POINT
  2
P_section
  70
64
  10
0.0
  20
0.0
  30
0.0
  0
LINE
  8
POINT
  10
-0.25
  20
0.25
  30
0.00
  11
-0.25
  21
-0.25
  31
0.00
  0
LINE
  8
POINT
  10
-0.25
  20
-0.25
  30
0.00
  11
0.25
  21
-0.25
  31
0.00
  0
LINE
  8
POINT
  10
0.25
  20
-0.25
  30
0.00
  11
0.25
  21
0.25
  31
0.00
  0
LINE
  8
POINT
  10
0.25
  20
0.25
  30
0.00
  11
-0.25
  21
0.25
  31
0.00
  0
ENDBLK
  0
BLOCK
  8
POINT
  2
P_sink
  70
64
  10
0.0
  20
0.0
  30
0.0
  0
ARC
  8
POINT
  10
0.00
  20
0.15
  30
0.00
  40
0.25
  50
180.00
  51
360.00
  0
ENDBLK
  0
BLOCK
  8
POINT
  2
P_snow
  70
64
  10
0.0
  20
0.0
  30
0.0
  0
LINE
  8
POINT
  10
0.00
  20
0.25
  30
0.00
  11
0.00
  21
-0.25
  31
0.00
  0
LINE
  8
POINT
  10
-0.20
  20
0.15
  30
0.00
  11
0.20
  21
-0.15
  31
0.00
  0
LINE
  8
POINT
  10
-0.20
  20
-0.15
  30
0.00
  11
0.20
  21
0.15
  31
0.00
  0
ENDBLK
  0
BLOCK
  8
POINT
  2
P_soda-straw
  70
64
  10
0.0
  20
0.0
  30
0.0
  0
LINE
  8
POINT
  10
-0.30
  20
0.10
  30
0.00
  11
0.30
  21
0.10
  31
0.00
  0
LINE
  8
POINT
  10
-0.20
  20
0.10
  30
0.00
  11
-0.20
  21
-0.10
  31
0.00
  0
LINE
  8
POINT
  10
0.00
  20
0.10
  30
0.00
  11
0.00
  21
-0.30
  31
0.00
  0
LINE
  8
POINT
  10
0.20
  20
0.10
  30
0.00
  11
0.20
  21
-0.20
  31
0.00
  0
ENDBLK
  0
BLOCK
  8
POINT
  2
P_spring
  70
64
  10
0.0
  20
0.0
  30
0.0
  0
ARC
  8
POINT
  10
0.00
  20
-0.15
  30
0.00
  40
0.25
  50
0.00
  51
180.00
  0
ENDBLK
  0
BLOCK
  8
POINT
  2
P_stalactite
  70
64
  10
0.0
  20
0.0
  30
0.0
  0
LINE
  8
POINT
  10
-0.20
  20
0.20
  30
0.00
  11
0.00
  21
-0.00
  31
0.00
  0
LINE
  8
POINT
  10
0.00
  20
-0.00
  30
0.00
  11
0.20
  21
0.20
  31
0.00
  0
LINE
  8
POINT
  10
0.00
  20
-0.00
  30
0.00
  11
0.00
  21
-0.30
  31
0.00
  0
ENDBLK
  0
BLOCK
  8
POINT
  2
P_stalagmite
  70
64
  10
0.0
  20
0.0
  30
0.0
  0
LINE
  8
POINT
  10
-0.20
  20
-0.20
  30
0.00
  11
0.00
  21
-0.00
  31
0.00
  0
LINE
  8
POINT
  10
0.00
  20
-0.00
  30
0.00
  11
0.20
  21
-0.20
  31
0.00
  0
LINE
  8
POINT
  10
0.00
  20
-0.00
  30
0.00
  11
0.00
  21
0.30
  31
0.00
  0
ENDBLK
  0
BLOCK
  8
POINT
  2
P_wall-calcite
  70
64
  10
0.0
  20
0.0
  30
0.0
  0
LINE
  8
POINT
  10
-0.30
  20
-0.10
  30
0.00
  11
-0.15
  21
0.10
  31
0.00
  0
LINE
  8
POINT
  10
-0.15
  20
0.10
  30
0.00
  11
0.00
  21
-0.10
  31
0.00
  0
LINE
  8
POINT
  10
0.00
  20
-0.10
  30
0.00
  11
0.15
  21
0.10
  31
0.00
  0
LINE
  8
POINT
  10
0.15
  20
0.10
  30
0.00
  11
0.30
  21
-0.10
  31
0.00
  0
ENDBLK
  0
BLOCK
  8
POINT
  2
P_water
  70
64
  10
0.0
  20
0.0
  30
0.0
  0
LINE
  8
POINT
  10
-0.30
  20
0.15
  30
0.00
  11
-0.05
  21
0.15
  31
0.00
  0
LINE
  8
POINT
  10
0.10
  20
0.15
  30
0.00
  11
0.30
  21
0.15
  31
0.00
  0
LINE
  8
POINT
  10
-0.20
  20
-0.00
  30
0.00
  11
0.05
  21
-0.00
  31
0.00
  0
LINE
  8
POINT
  10
0.15
  20
-0.00
  30
0.00
  11
0.35
  21
-0.00
  31
0.00
  0
LINE
  8
POINT
  10
-0.15
  20
-0.15
  30
0.00
  11
0.25
  21
-0.15
  31
0.00
  0
ENDBLK
  0
BLOCK
  8
POINT
  2
P_water-flow
  70
64
  10
0.0
  20
0.0
  30
0.0
  0
ARC
  8
POINT
  10
0.00
  20
-0.08
  30
0.00
  40
0.08
  50
90.00
  51
270.00
  0
ARC
  8
POINT
  10
0.00
  20
0.08
  30
0.00
  40
0.08
  50
270.00
  51
450.00
  0
ARC
  8
POINT
  10
0.00
  20
0.23
  30
0.00
  40
0.08
  50
90.00
  51
270.00
  0
ARC
  8
POINT
  10
0.00
  20
0.38
  30
0.00
  40
0.08
  50
270.00
  51
360.00
  0
ARC
  8
POINT
  10
0.00
  20
0.38
  30
0.00
  40
0.08
  50
0.00
  51
90.00
  0
LINE
  8
POINT
  10
0.00
  20
0.50
  30
0.00
  11
0.20
  21
0.30
  31
0.00
  0
LINE
  8
POINT
  10
0.00
  20
0.50
  30
0.00
  11
-0.20
  21
0.30
  31
0.00
  0
ENDBLK
  0
ENDSEC
  0
SECTION
  2
ENTITIES
  0
LINE
  8
REF
  10
-301.21
  20
-258.92
  30
0.00
  11
-101.21
  21
-258.92
  31
0.00
  0
LINE
  8
REF
  10
-301.21
  20
-258.92
  30
0.00
  11
-301.21
  21
-58.92
  31
0.00
  0
TEXT
  8
REF
  10
-100.21
  20
-258.92
  30
0.00
  40
0.30
  1
"10"
  0
TEXT
  8
REF
  10
-301.21
  20
-57.92
  30
0.00
  40
0.30
  1
"10"
  0
LINE
  8
LEG
  10
100.00
  20
-120.00
  30
0.00
  11
71.80
  21
-148.94
  31
0.00
  0
LINE
  8
LEG
  10
71.80
  20
-148.94
  30
0.00
  11
56.49
  21
-188.29
  31
0.00
  0
LINE
  8
LEG
  10
56.49
  20
-188.29
  30
0.00
  11
-1.34
  21
-191.54
  31
0.00
  0
LINE
  8
LEG
  10
-1.34
  20
-191.54
  30
0.00
  11
-30.46
  21
-221.23
  31
0.00
  0
LINE
  8
LEG
  10
-30.46
  20
-221.23
  30
0.00
  11
-56.44
  21
-202.68
  31
0.00
  0
LINE
  8
LEG
  10
-56.44
  20
-202.68
  30
0.00
  11
-84.74
  21
-182.52
  31
0.00
  0
LINE
  8
LEG
  10
-84.74
  20
-182.52
  30
0.00
  11
-118.50
  21
-168.68
  31
0.00
  0
LINE
  8
LEG
  10
-118.50
  20
-168.68
  30
0.00
  11
-140.01
  21
-154.94
  31
0.00
  0
LINE
  8
LEG
  10
-140.01
  20
-154.94
  30
0.00
  11
-218.41
  21
-110.64
  31
0.00
  0
LINE
  8
LEG
  10
-218.41
  20
-110.64
  30
0.00
  11
-211.82
  21
-83.80
  31
0.00
  0
LINE
  8
LEG
  10
-211.82
  20
-83.80
  30
0.00
  11
-229.20
  21
-48.58
  31
0.00
  0
LINE
  8
LEG
  10
-229.20
  20
-48.58
  30
0.00
  11
-224.16
  21
-4.57
  31
0.00
  0
LINE
  8
LEG
  10
-224.16
  20
-4.57
  30
0.00
  11
-241.46
  21
-1.26
  31
0.00
  0
LINE
  8
LEG
  10
-241.46
  20
-1.26
  30
0.00
  11
-234.27
  21
-38.91
  31
0.00
  0
LINE
  8
LEG
  10
-234.27
  20
-38.91
  30
0.00
  11
-265.43
  21
-137.86
  31
0.00
  0
LINE
  8
LEG
  10
-265.43
  20
-137.86
  30
0.00
  11
-199.69
  21
-187.58
  31
0.00
  0
LINE
  8
LEG
  10
-199.69
  20
-187.58
  30
0.00
  11
-172.62
  21
-164.39
  31
0.00
  0
LINE
  8
LEG
  10
-172.62
  20
-164.39
  30
0.00
  11
-120.45
  21
-189.60
  31
0.00
  0
LINE
  8
LEG
  10
-120.45
  20
-189.60
  30
0.00
  11
-175.78
  21
-199.09
  31
0.00
  0
LINE
  8
LEG
  10
-175.78
  20
-199.09
  30
0.00
  11
-121.11
  21
-206.16
  31
0.00
  0
LINE
  8
LEG
  10
-121.11
  20
-206.16
  30
0.00
  11
-23.31
  21
-134.94
  31
0.00
  0
LINE
  8
LEG
  10
-23.31
  20
-134.94
  30
0.00
  11
50.43
  21
-178.88
  31
0.00
  0
LINE
  8
SPLAY
  10
100.00
  20
-120.00
  30
0.00
  11
79.64
  21
-111.57
  31
0.00
  0
LINE
  8
SPLAY
  10
100.00
  20
-120.00
  30
0.00
  11
53.75
  21
-162.01
  31
0.00
  0
LINE
  8
SPLAY
  10
100.00
  20
-120.00
  30
0.00
  11
95.85
  21
-147.54
  31
0.00
  0
LINE
  8
SPLAY
  10
100.00
  20
-120.00
  30
0.00
  11
127.00
  21
-26.92
  31
0.00
  0
LINE
  8
SPLAY
  10
100.00
  20
-120.00
  30
0.00
  11
118.24
  21
-97.82
  31
0.00
  0
LINE
  8
SPLAY
  10
100.00
  20
-120.00
  30
0.00
  11
86.01
  21
-81.04
  31
0.00
  0
LINE
  8
SPLAY
  10
100.00
  20
-120.00
  30
0.00
  11
92.43
  21
-109.99
  31
0.00
  0
LINE
  8
SPLAY
  10
100.00
  20
-120.00
  30
0.00
  11
80.74
  21
-172.82
  31
0.00
  0
LINE
  8
SPLAY
  10
100.00
  20
-120.00
  30
0.00
  11
32.43
  21
-187.73
  31
0.00
  0
LINE
  8
SPLAY
  10
100.00
  20
-120.00
  30
0.00
  11
69.91
  21
-127.30
  31
0.00
  0
LINE
  8
SPLAY
  10
100.00
  20
-120.00
  30
0.00
  11
89.21
  21
-88.04
  31
0.00
  0
LINE
  8
SPLAY
  10
100.00
  20
-120.00
  30
0.00
  11
80.27
  21
-124.52
  31
0.00
  0
LINE
  8
SPLAY
  10
100.00
  20
-120.00
  30
0.00
  11
83.62
  21
-87.43
  31
0.00
  0
LINE
  8
SPLAY
  10
100.00
  20
-120.00
  30
0.00
  11
71.37
  21
-148.86
  31
0.00
  0
LINE
  8
SPLAY
  10
100.00
  20
-120.00
  30
0.00
  11
73.17
  21
-146.80
  31
0.00
  0
LINE
  8
SPLAY
  10
71.80
  20
-148.94
  30
0.00
  11
87.10
  21
-162.72
  31
0.00
  0
LINE
  8
SPLAY
  10
71.80
  20
-148.94
  30
0.00
  11
111.99
  21
-150.27
  31
0.00
  0
LINE
  8
SPLAY
  10
71.80
  20
-148.94
  30
0.00
  11
123.59
  21
-126.19
  31
0.00
  0
LINE
  8
SPLAY
  10
71.80
  20
-148.94
  30
0.00
  11
121.11
  21
-90.41
  31
0.00
  0
LINE
  8
SPLAY
  10
71.80
  20
-148.94
  30
0.00
  11
101.31
  21
-140.61
  31
0.00
  0
LINE
  8
SPLAY
  10
71.80
  20
-148.94
  30
0.00
  11
96.32
  21
-159.24
  31
0.00
  0
LINE
  8
SPLAY
  10
71.80
  20
-148.94
  30
0.00
  11
5.16
  21
-206.73
  31
0.00
  0
LINE
  8
SPLAY
  10
71.80
  20
-148.94
  30
0.00
  11
26.99
  21
-168.07
  31
0.00
  0
LINE
  8
SPLAY
  10
71.80
  20
-148.94
  30
0.00
  11
50.11
  21
-195.00
  31
0.00
  0
LINE
  8
SPLAY
  10
71.80
  20
-148.94
  30
0.00
  11
71.51
  21
-166.94
  31
0.00
  0
LINE
  8
SPLAY
  10
71.80
  20
-148.94
  30
0.00
  11
34.20
  21
-167.77
  31
0.00
  0
LINE
  8
SPLAY
  10
71.80
  20
-148.94
  30
0.00
  11
32.36
  21
-189.70
  31
0.00
  0
LINE
  8
SPLAY
  10
71.80
  20
-148.94
  30
0.00
  11
110.63
  21
-156.17
  31
0.00
  0
LINE
  8
SPLAY
  10
71.80
  20
-148.94
  30
0.00
  11
97.16
  21
-156.11
  31
0.00
  0
LINE
  8
SPLAY
  10
56.49
  20
-188.29
  30
0.00
  11
96.23
  21
-129.29
  31
0.00
  0
LINE
  8
SPLAY
  10
56.49
  20
-188.29
  30
0.00
  11
58.95
  21
-154.21
  31
0.00
  0
LINE
  8
SPLAY
  10
56.49
  20
-188.29
  30
0.00
  11
73.69
  21
-137.46
  31
0.00
  0
LINE
  8
SPLAY
  10
56.49
  20
-188.29
  30
0.00
  11
41.16
  21
-164.88
  31
0.00
  0
LINE
  8
SPLAY
  10
56.49
  20
-188.29
  30
0.00
  11
64.17
  21
-144.25
  31
0.00
  0
LINE
  8
SPLAY
  10
56.49
  20
-188.29
  30
0.00
  11
129.35
  21
-123.80
  31
0.00
  0
LINE
  8
SPLAY
  10
56.49
  20
-188.29
  30
0.00
  11
18.55
  21
-180.07
  31
0.00
  0
LINE
  8
SPLAY
  10
56.49
  20
-188.29
  30
0.00
  11
-13.75
  21
-201.61
  31
0.00
  0
LINE
  8
SPLAY
  10
56.49
  20
-188.29
  30
0.00
  11
-30.60
  21
-232.86
  31
0.00
  0
LINE
  8
SPLAY
  10
56.49
  20
-188.29
  30
0.00
  11
-24.22
  21
-199.22
  31
0.00
  0
LINE
  8
SPLAY
  10
56.49
  20
-188.29
  30
0.00
  11
24.26
  21
-174.61
  31
0.00
  0
LINE
  8
SPLAY
  10
56.49
  20
-188.29
  30
0.00
  11
13.18
  21
-215.97
  31
0.00
  0
LINE
  8
SPLAY
  10
56.49
  20
-188.29
  30
0.00
  11
-33.99
  21
-203.30
  31
0.00
  0
LINE
  8
SPLAY
  10
56.49
  20
-188.29
  30
0.00
  11
59.14
  21
-164.45
  31
0.00
  0
LINE
  8
SPLAY
  10
56.49
  20
-188.29
  30
0.00
  11
-2.88
  21
-225.33
  31
0.00
  0
LINE
  8
SPLAY
  10
56.49
  20
-188.29
  30
0.00
  11
-55.19
  21
-219.96
  31
0.00
  0
LINE
  8
SPLAY
  10
56.49
  20
-188.29
  30
0.00
  11
-36.25
  21
-220.67
  31
0.00
  0
LINE
  8
SPLAY
  10
56.49
  20
-188.29
  30
0.00
  11
-2.15
  21
-191.57
  31
0.00
  0
LINE
  8
SPLAY
  10
56.49
  20
-188.29
  30
0.00
  11
-3.92
  21
-192.11
  31
0.00
  0
LINE
  8
SPLAY
  10
-1.34
  20
-191.54
  30
0.00
  11
6.05
  21
-224.74
  31
0.00
  0
LINE
  8
SPLAY
  10
-1.34
  20
-191.54
  30
0.00
  11
-6.98
  21
-225.43
  31
0.00
  0
LINE
  8
SPLAY
  10
-1.34
  20
-191.54
  30
0.00
  11
-18.78
  21
-242.77
  31
0.00
  0
LINE
  8
SPLAY
  10
-1.34
  20
-191.54
  30
0.00
  11
-49.26
  21
-241.63
  31
0.00
  0
LINE
  8
SPLAY
  10
-1.34
  20
-191.54
  30
0.00
  11
-56.85
  21
-215.97
  31
0.00
  0
LINE
  8
SPLAY
  10
-1.34
  20
-191.54
  30
0.00
  11
68.47
  21
-177.68
  31
0.00
  0
LINE
  8
SPLAY
  10
-1.34
  20
-191.54
  30
0.00
  11
56.97
  21
-195.46
  31
0.00
  0
LINE
  8
SPLAY
  10
-1.34
  20
-191.54
  30
0.00
  11
35.69
  21
-211.53
  31
0.00
  0
LINE
  8
SPLAY
  10
-1.34
  20
-191.54
  30
0.00
  11
19.11
  21
-222.39
  31
0.00
  0
LINE
  8
SPLAY
  10
-1.34
  20
-191.54
  30
0.00
  11
72.26
  21
-181.15
  31
0.00
  0
LINE
  8
SPLAY
  10
-1.34
  20
-191.54
  30
0.00
  11
68.46
  21
-181.01
  31
0.00
  0
LINE
  8
SPLAY
  10
-1.34
  20
-191.54
  30
0.00
  11
-27.20
  21
-230.81
  31
0.00
  0
LINE
  8
SPLAY
  10
-1.34
  20
-191.54
  30
0.00
  11
5.52
  21
-212.36
  31
0.00
  0
LINE
  8
SPLAY
  10
-30.46
  20
-221.23
  30
0.00
  11
-35.80
  21
-211.00
  31
0.00
  0
LINE
  8
SPLAY
  10
-30.46
  20
-221.23
  30
0.00
  11
-49.53
  21
-191.82
  31
0.00
  0
LINE
  8
SPLAY
  10
-30.46
  20
-221.23
  30
0.00
  11
-34.61
  21
-203.17
  31
0.00
  0
LINE
  8
SPLAY
  10
-30.46
  20
-221.23
  30
0.00
  11
-49.11
  21
-210.99
  31
0.00
  0
LINE
  8
SPLAY
  10
-30.46
  20
-221.23
  30
0.00
  11
-3.63
  21
-227.89
  31
0.00
  0
LINE
  8
SPLAY
  10
-30.46
  20
-221.23
  30
0.00
  11
-47.23
  21
-213.74
  31
0.00
  0
LINE
  8
SPLAY
  10
-30.46
  20
-221.23
  30
0.00
  11
-45.28
  21
-209.67
  31
0.00
  0
LINE
  8
SPLAY
  10
-30.46
  20
-221.23
  30
0.00
  11
-17.59
  21
-213.64
  31
0.00
  0
LINE
  8
SPLAY
  10
-56.44
  20
-202.68
  30
0.00
  11
-61.32
  21
-209.54
  31
0.00
  0
LINE
  8
SPLAY
  10
-56.44
  20
-202.68
  30
0.00
  11
-67.53
  21
-202.07
  31
0.00
  0
LINE
  8
SPLAY
  10
-56.44
  20
-202.68
  30
0.00
  11
-44.80
  21
-205.50
  31
0.00
  0
LINE
  8
SPLAY
  10
-56.44
  20
-202.68
  30
0.00
  11
-12.24
  21
-225.47
  31
0.00
  0
LINE
  8
SPLAY
  10
-56.44
  20
-202.68
  30
0.00
  11
-30.71
  21
-232.07
  31
0.00
  0
LINE
  8
SPLAY
  10
-56.44
  20
-202.68
  30
0.00
  11
-50.98
  21
-226.70
  31
0.00
  0
LINE
  8
SPLAY
  10
-56.44
  20
-202.68
  30
0.00
  11
1.06
  21
-215.00
  31
0.00
  0
LINE
  8
SPLAY
  10
-56.44
  20
-202.68
  30
0.00
  11
-42.43
  21
-189.66
  31
0.00
  0
LINE
  8
SPLAY
  10
-56.44
  20
-202.68
  30
0.00
  11
-76.20
  21
-188.91
  31
0.00
  0
LINE
  8
SPLAY
  10
-56.44
  20
-202.68
  30
0.00
  11
-84.02
  21
-182.94
  31
0.00
  0
LINE
  8
SPLAY
  10
-84.74
  20
-182.52
  30
0.00
  11
-72.52
  21
-172.74
  31
0.00
  0
LINE
  8
SPLAY
  10
-84.74
  20
-182.52
  30
0.00
  11
-76.62
  21
-173.87
  31
0.00
  0
LINE
  8
SPLAY
  10
-84.74
  20
-182.52
  30
0.00
  11
-70.78
  21
-177.79
  31
0.00
  0
LINE
  8
SPLAY
  10
-84.74
  20
-182.52
  30
0.00
  11
-91.11
  21
-175.87
  31
0.00
  0
LINE
  8
SPLAY
  10
-84.74
  20
-182.52
  30
0.00
  11
-84.46
  21
-174.51
  31
0.00
  0
LINE
  8
SPLAY
  10
-84.74
  20
-182.52
  30
0.00
  11
-79.18
  21
-190.05
  31
0.00
  0
LINE
  8
SPLAY
  10
-84.74
  20
-182.52
  30
0.00
  11
-75.43
  21
-190.54
  31
0.00
  0
LINE
  8
SPLAY
  10
-84.74
  20
-182.52
  30
0.00
  11
-63.13
  21
-195.66
  31
0.00
  0
LINE
  8
SPLAY
  10
-84.74
  20
-182.52
  30
0.00
  11
-71.52
  21
-187.25
  31
0.00
  0
LINE
  8
SPLAY
  10
-84.74
  20
-182.52
  30
0.00
  11
-72.67
  21
-181.74
  31
0.00
  0
LINE
  8
SPLAY
  10
-84.74
  20
-182.52
  30
0.00
  11
-71.50
  21
-178.13
  31
0.00
  0
LINE
  8
SPLAY
  10
-84.74
  20
-182.52
  30
0.00
  11
-84.90
  21
-175.50
  31
0.00
  0
LINE
  8
SPLAY
  10
-84.74
  20
-182.52
  30
0.00
  11
-95.42
  21
-184.38
  31
0.00
  0
LINE
  8
SPLAY
  10
-84.74
  20
-182.52
  30
0.00
  11
-102.09
  21
-179.37
  31
0.00
  0
LINE
  8
SPLAY
  10
-84.74
  20
-182.52
  30
0.00
  11
-90.70
  21
-177.10
  31
0.00
  0
LINE
  8
SPLAY
  10
-84.74
  20
-182.52
  30
0.00
  11
-94.08
  21
-181.35
  31
0.00
  0
LINE
  8
SPLAY
  10
-118.50
  20
-168.68
  30
0.00
  11
-122.14
  21
-174.55
  31
0.00
  0
LINE
  8
SPLAY
  10
-118.50
  20
-168.68
  30
0.00
  11
-90.18
  21
-177.53
  31
0.00
  0
LINE
  8
SPLAY
  10
-118.50
  20
-168.68
  30
0.00
  11
-100.70
  21
-180.10
  31
0.00
  0
LINE
  8
SPLAY
  10
-118.50
  20
-168.68
  30
0.00
  11
-110.28
  21
-183.37
  31
0.00
  0
LINE
  8
SPLAY
  10
-118.50
  20
-168.68
  30
0.00
  11
-111.84
  21
-168.04
  31
0.00
  0
LINE
  8
SPLAY
  10
-118.50
  20
-168.68
  30
0.00
  11
-115.95
  21
-183.27
  31
0.00
  0
LINE
  8
SPLAY
  10
-118.50
  20
-168.68
  30
0.00
  11
-116.57
  21
-171.68
  31
0.00
  0
LINE
  8
SPLAY
  10
-118.50
  20
-168.68
  30
0.00
  11
-131.40
  21
-164.93
  31
0.00
  0
LINE
  8
SPLAY
  10
-118.50
  20
-168.68
  30
0.00
  11
-131.94
  21
-169.42
  31
0.00
  0
LINE
  8
SPLAY
  10
-118.50
  20
-168.68
  30
0.00
  11
-122.75
  21
-180.68
  31
0.00
  0
LINE
  8
SPLAY
  10
-118.50
  20
-168.68
  30
0.00
  11
-121.24
  21
-172.80
  31
0.00
  0
LINE
  8
SPLAY
  10
-140.01
  20
-154.94
  30
0.00
  11
-126.16
  21
-161.16
  31
0.00
  0
LINE
  8
SPLAY
  10
-140.01
  20
-154.94
  30
0.00
  11
-140.68
  21
-160.32
  31
0.00
  0
LINE
  8
SPLAY
  10
-140.01
  20
-154.94
  30
0.00
  11
-143.59
  21
-160.38
  31
0.00
  0
LINE
  8
SPLAY
  10
-140.01
  20
-154.94
  30
0.00
  11
-205.17
  21
-124.85
  31
0.00
  0
LINE
  8
SPLAY
  10
-140.01
  20
-154.94
  30
0.00
  11
-155.45
  21
-146.04
  31
0.00
  0
LINE
  8
SPLAY
  10
-140.01
  20
-154.94
  30
0.00
  11
-166.01
  21
-147.63
  31
0.00
  0
LINE
  8
SPLAY
  10
-140.01
  20
-154.94
  30
0.00
  11
-170.55
  21
-145.68
  31
0.00
  0
LINE
  8
SPLAY
  10
-140.01
  20
-154.94
  30
0.00
  11
-171.87
  21
-150.97
  31
0.00
  0
LINE
  8
SPLAY
  10
-140.01
  20
-154.94
  30
0.00
  11
-163.58
  21
-157.29
  31
0.00
  0
LINE
  8
SPLAY
  10
-140.01
  20
-154.94
  30
0.00
  11
-153.46
  21
-161.49
  31
0.00
  0
LINE
  8
SPLAY
  10
-140.01
  20
-154.94
  30
0.00
  11
-108.86
  21
-179.52
  31
0.00
  0
LINE
  8
SPLAY
  10
-140.01
  20
-154.94
  30
0.00
  11
-218.70
  21
-141.65
  31
0.00
  0
LINE
  8
SPLAY
  10
-140.01
  20
-154.94
  30
0.00
  11
-214.17
  21
-117.46
  31
0.00
  0
LINE
  8
SPLAY
  10
-140.01
  20
-154.94
  30
0.00
  11
-191.52
  21
-121.38
  31
0.00
  0
LINE
  8
SPLAY
  10
-140.01
  20
-154.94
  30
0.00
  11
-165.65
  21
-150.52
  31
0.00
  0
LINE
  8
SPLAY
  10
-140.01
  20
-154.94
  30
0.00
  11
-220.90
  21
-139.93
  31
0.00
  0
LINE
  8
SPLAY
  10
-140.01
  20
-154.94
  30
0.00
  11
-185.58
  21
-150.29
  31
0.00
  0
LINE
  8
SPLAY
  10
-140.01
  20
-154.94
  30
0.00
  11
-149.87
  21
-145.15
  31
0.00
  0
LINE
  8
SPLAY
  10
-140.01
  20
-154.94
  30
0.00
  11
-225.85
  21
-130.83
  31
0.00
  0
LINE
  8
SPLAY
  10
-218.41
  20
-110.64
  30
0.00
  11
-206.95
  21
-108.22
  31
0.00
  0
LINE
  8
SPLAY
  10
-218.41
  20
-110.64
  30
0.00
  11
-209.55
  21
-104.50
  31
0.00
  0
LINE
  8
SPLAY
  10
-218.41
  20
-110.64
  30
0.00
  11
-214.35
  21
-100.38
  31
0.00
  0
LINE
  8
SPLAY
  10
-218.41
  20
-110.64
  30
0.00
  11
-221.15
  21
-120.29
  31
0.00
  0
LINE
  8
SPLAY
  10
-218.41
  20
-110.64
  30
0.00
  11
-210.43
  21
-155.97
  31
0.00
  0
LINE
  8
SPLAY
  10
-218.41
  20
-110.64
  30
0.00
  11
-205.83
  21
-162.20
  31
0.00
  0
LINE
  8
SPLAY
  10
-218.41
  20
-110.64
  30
0.00
  11
-183.00
  21
-157.18
  31
0.00
  0
LINE
  8
SPLAY
  10
-218.41
  20
-110.64
  30
0.00
  11
-156.59
  21
-168.64
  31
0.00
  0
LINE
  8
SPLAY
  10
-218.41
  20
-110.64
  30
0.00
  11
-140.30
  21
-151.85
  31
0.00
  0
LINE
  8
SPLAY
  10
-218.41
  20
-110.64
  30
0.00
  11
-158.36
  21
-139.39
  31
0.00
  0
LINE
  8
SPLAY
  10
-218.41
  20
-110.64
  30
0.00
  11
-205.40
  21
-114.31
  31
0.00
  0
LINE
  8
SPLAY
  10
-218.41
  20
-110.64
  30
0.00
  11
-178.90
  21
-119.92
  31
0.00
  0
LINE
  8
SPLAY
  10
-218.41
  20
-110.64
  30
0.00
  11
-203.54
  21
-145.79
  31
0.00
  0
LINE
  8
SPLAY
  10
-218.41
  20
-110.64
  30
0.00
  11
-217.85
  21
-126.76
  31
0.00
  0
LINE
  8
SPLAY
  10
-218.41
  20
-110.64
  30
0.00
  11
-203.70
  21
-110.49
  31
0.00
  0
LINE
  8
SPLAY
  10
-211.82
  20
-83.80
  30
0.00
  11
-231.07
  21
-87.14
  31
0.00
  0
LINE
  8
SPLAY
  10
-211.82
  20
-83.80
  30
0.00
  11
-222.58
  21
-110.23
  31
0.00
  0
LINE
  8
SPLAY
  10
-211.82
  20
-83.80
  30
0.00
  11
-214.83
  21
-136.05
  31
0.00
  0
LINE
  8
SPLAY
  10
-211.82
  20
-83.80
  30
0.00
  11
-224.62
  21
-87.05
  31
0.00
  0
LINE
  8
SPLAY
  10
-211.82
  20
-83.80
  30
0.00
  11
-232.46
  21
-63.93
  31
0.00
  0
LINE
  8
SPLAY
  10
-211.82
  20
-83.80
  30
0.00
  11
-227.27
  21
-74.44
  31
0.00
  0
LINE
  8
SPLAY
  10
-211.82
  20
-83.80
  30
0.00
  11
-232.31
  21
-97.72
  31
0.00
  0
LINE
  8
SPLAY
  10
-211.82
  20
-83.80
  30
0.00
  11
-228.69
  21
-51.25
  31
0.00
  0
LINE
  8
SPLAY
  10
-229.20
  20
-48.58
  30
0.00
  11
-221.78
  21
-49.40
  31
0.00
  0
LINE
  8
SPLAY
  10
-229.20
  20
-48.58
  30
0.00
  11
-212.06
  21
-140.57
  31
0.00
  0
LINE
  8
SPLAY
  10
-229.20
  20
-48.58
  30
0.00
  11
-226.18
  21
-95.40
  31
0.00
  0
LINE
  8
SPLAY
  10
-229.20
  20
-48.58
  30
0.00
  11
-225.84
  21
-60.07
  31
0.00
  0
LINE
  8
SPLAY
  10
-229.20
  20
-48.58
  30
0.00
  11
-216.89
  21
-48.28
  31
0.00
  0
LINE
  8
SPLAY
  10
-229.20
  20
-48.58
  30
0.00
  11
-226.21
  21
-6.60
  31
0.00
  0
LINE
  8
SPLAY
  10
-229.20
  20
-48.58
  30
0.00
  11
-216.60
  21
-26.88
  31
0.00
  0
LINE
  8
SPLAY
  10
-229.20
  20
-48.58
  30
0.00
  11
-219.74
  21
-40.65
  31
0.00
  0
LINE
  8
SPLAY
  10
-229.20
  20
-48.58
  30
0.00
  11
-219.40
  21
-34.72
  31
0.00
  0
LINE
  8
SPLAY
  10
-229.20
  20
-48.58
  30
0.00
  11
-220.06
  21
-71.86
  31
0.00
  0
LINE
  8
SPLAY
  10
-229.20
  20
-48.58
  30
0.00
  11
-222.08
  21
-89.63
  31
0.00
  0
LINE
  8
SPLAY
  10
-229.20
  20
-48.58
  30
0.00
  11
-214.97
  21
-72.95
  31
0.00
  0
LINE
  8
SPLAY
  10
-229.20
  20
-48.58
  30
0.00
  11
-231.47
  21
11.50
  31
0.00
  0
LINE
  8
SPLAY
  10
-224.16
  20
-4.57
  30
0.00
  11
-233.87
  21
-12.79
  31
0.00
  0
LINE
  8
SPLAY
  10
-224.16
  20
-4.57
  30
0.00
  11
-235.95
  21
1.35
  31
0.00
  0
LINE
  8
SPLAY
  10
-224.16
  20
-4.57
  30
0.00
  11
-231.77
  21
-5.63
  31
0.00
  0
LINE
  8
SPLAY
  10
-224.16
  20
-4.57
  30
0.00
  11
-242.35
  21
25.74
  31
0.00
  0
LINE
  8
SPLAY
  10
-224.16
  20
-4.57
  30
0.00
  11
-219.80
  21
-12.88
  31
0.00
  0
LINE
  8
SPLAY
  10
-224.16
  20
-4.57
  30
0.00
  11
-225.87
  21
-14.28
  31
0.00
  0
LINE
  8
SPLAY
  10
-224.16
  20
-4.57
  30
0.00
  11
-222.61
  21
-101.57
  31
0.00
  0
LINE
  8
SPLAY
  10
-224.16
  20
-4.57
  30
0.00
  11
-225.15
  21
-77.89
  31
0.00
  0
LINE
  8
SPLAY
  10
-224.16
  20
-4.57
  30
0.00
  11
-224.71
  21
-96.48
  31
0.00
  0
LINE
  8
SPLAY
  10
-224.16
  20
-4.57
  30
0.00
  11
-214.99
  21
-50.13
  31
0.00
  0
LINE
  8
SPLAY
  10
-224.16
  20
-4.57
  30
0.00
  11
-216.66
  21
-38.31
  31
0.00
  0
LINE
  8
SPLAY
  10
-241.46
  20
-1.26
  30
0.00
  11
-246.08
  21
39.58
  31
0.00
  0
LINE
  8
SPLAY
  10
-241.46
  20
-1.26
  30
0.00
  11
-243.24
  21
40.22
  31
0.00
  0
LINE
  8
SPLAY
  10
-241.46
  20
-1.26
  30
0.00
  11
-228.34
  21
11.57
  31
0.00
  0
LINE
  8
SPLAY
  10
-241.46
  20
-1.26
  30
0.00
  11
-223.51
  21
-2.68
  31
0.00
  0
LINE
  8
SPLAY
  10
-241.46
  20
-1.26
  30
0.00
  11
-222.38
  21
-12.00
  31
0.00
  0
LINE
  8
SPLAY
  10
-241.46
  20
-1.26
  30
0.00
  11
-222.46
  21
-6.00
  31
0.00
  0
LINE
  8
SPLAY
  10
-241.46
  20
-1.26
  30
0.00
  11
-226.39
  21
-0.94
  31
0.00
  0
LINE
  8
SPLAY
  10
-241.46
  20
-1.26
  30
0.00
  11
-230.31
  21
-20.06
  31
0.00
  0
LINE
  8
SPLAY
  10
-241.46
  20
-1.26
  30
0.00
  11
-243.66
  21
-71.30
  31
0.00
  0
LINE
  8
SPLAY
  10
-241.46
  20
-1.26
  30
0.00
  11
-240.60
  21
-9.75
  31
0.00
  0
LINE
  8
SPLAY
  10
-234.27
  20
-38.91
  30
0.00
  11
-233.86
  21
-65.98
  31
0.00
  0
LINE
  8
SPLAY
  10
-234.27
  20
-38.91
  30
0.00
  11
-246.20
  21
-81.92
  31
0.00
  0
LINE
  8
SPLAY
  10
-234.27
  20
-38.91
  30
0.00
  11
-254.79
  21
-73.14
  31
0.00
  0
LINE
  8
SPLAY
  10
-234.27
  20
-38.91
  30
0.00
  11
-260.79
  21
-64.48
  31
0.00
  0
LINE
  8
SPLAY
  10
-234.27
  20
-38.91
  30
0.00
  11
-271.62
  21
-48.57
  31
0.00
  0
LINE
  8
SPLAY
  10
-234.27
  20
-38.91
  30
0.00
  11
-275.54
  21
-30.65
  31
0.00
  0
LINE
  8
SPLAY
  10
-234.27
  20
-38.91
  30
0.00
  11
-278.81
  21
-18.96
  31
0.00
  0
LINE
  8
SPLAY
  10
-234.27
  20
-38.91
  30
0.00
  11
-276.36
  21
4.11
  31
0.00
  0
LINE
  8
SPLAY
  10
-234.27
  20
-38.91
  30
0.00
  11
-268.52
  21
24.13
  31
0.00
  0
LINE
  8
SPLAY
  10
-234.27
  20
-38.91
  30
0.00
  11
-251.66
  21
25.65
  31
0.00
  0
LINE
  8
SPLAY
  10
-234.27
  20
-38.91
  30
0.00
  11
-233.97
  21
-12.89
  31
0.00
  0
LINE
  8
SPLAY
  10
-234.27
  20
-38.91
  30
0.00
  11
-259.20
  21
-4.66
  31
0.00
  0
LINE
  8
SPLAY
  10
-234.27
  20
-38.91
  30
0.00
  11
-235.47
  21
-37.57
  31
0.00
  0
LINE
  8
SPLAY
  10
-234.27
  20
-38.91
  30
0.00
  11
-250.29
  21
-65.24
  31
0.00
  0
LINE
  8
SPLAY
  10
-234.27
  20
-38.91
  30
0.00
  11
-242.87
  21
3.47
  31
0.00
  0
LINE
  8
SPLAY
  10
-234.27
  20
-38.91
  30
0.00
  11
-241.71
  21
36.44
  31
0.00
  0
LINE
  8
SPLAY
  10
-234.27
  20
-38.91
  30
0.00
  11
-248.74
  21
-102.08
  31
0.00
  0
LINE
  8
SPLAY
  10
-234.27
  20
-38.91
  30
0.00
  11
-284.19
  21
-115.28
  31
0.00
  0
LINE
  8
SPLAY
  10
-234.27
  20
-38.91
  30
0.00
  11
-296.00
  21
-77.45
  31
0.00
  0
LINE
  8
SPLAY
  10
-234.27
  20
-38.91
  30
0.00
  11
-269.13
  21
-114.20
  31
0.00
  0
LINE
  8
SPLAY
  10
-234.27
  20
-38.91
  30
0.00
  11
-266.14
  21
-122.02
  31
0.00
  0
LINE
  8
SPLAY
  10
-265.43
  20
-137.86
  30
0.00
  11
-218.74
  21
-146.79
  31
0.00
  0
LINE
  8
SPLAY
  10
-265.43
  20
-137.86
  30
0.00
  11
-215.04
  21
-192.82
  31
0.00
  0
LINE
  8
SPLAY
  10
-265.43
  20
-137.86
  30
0.00
  11
-259.72
  21
-148.23
  31
0.00
  0
LINE
  8
SPLAY
  10
-265.43
  20
-137.86
  30
0.00
  11
-260.05
  21
-54.62
  31
0.00
  0
LINE
  8
SPLAY
  10
-265.43
  20
-137.86
  30
0.00
  11
-230.70
  21
-66.74
  31
0.00
  0
LINE
  8
SPLAY
  10
-265.43
  20
-137.86
  30
0.00
  11
-226.43
  21
-112.11
  31
0.00
  0
LINE
  8
SPLAY
  10
-265.43
  20
-137.86
  30
0.00
  11
-221.50
  21
-132.95
  31
0.00
  0
LINE
  8
SPLAY
  10
-265.43
  20
-137.86
  30
0.00
  11
-218.91
  21
-105.08
  31
0.00
  0
LINE
  8
SPLAY
  10
-265.43
  20
-137.86
  30
0.00
  11
-268.73
  21
-62.30
  31
0.00
  0
LINE
  8
SPLAY
  10
-265.43
  20
-137.86
  30
0.00
  11
-242.61
  21
-119.90
  31
0.00
  0
LINE
  8
SPLAY
  10
-265.43
  20
-137.86
  30
0.00
  11
-260.62
  21
-133.69
  31
0.00
  0
LINE
  8
SPLAY
  10
-265.43
  20
-137.86
  30
0.00
  11
-228.77
  21
-132.75
  31
0.00
  0
LINE
  8
SPLAY
  10
-265.43
  20
-137.86
  30
0.00
  11
-181.87
  21
-200.89
  31
0.00
  0
LINE
  8
SPLAY
  10
-265.43
  20
-137.86
  30
0.00
  11
-224.43
  21
-140.81
  31
0.00
  0
LINE
  8
SPLAY
  10
-265.43
  20
-137.86
  30
0.00
  11
-225.12
  21
-151.94
  31
0.00
  0
LINE
  8
SPLAY
  10
-199.69
  20
-187.58
  30
0.00
  11
-207.39
  21
-177.06
  31
0.00
  0
LINE
  8
SPLAY
  10
-199.69
  20
-187.58
  30
0.00
  11
-187.99
  21
-166.40
  31
0.00
  0
LINE
  8
SPLAY
  10
-199.69
  20
-187.58
  30
0.00
  11
-180.65
  21
-180.07
  31
0.00
  0
LINE
  8
SPLAY
  10
-199.69
  20
-187.58
  30
0.00
  11
-185.36
  21
-171.48
  31
0.00
  0
LINE
  8
SPLAY
  10
-199.69
  20
-187.58
  30
0.00
  11
-151.71
  21
-183.24
  31
0.00
  0
LINE
  8
SPLAY
  10
-199.69
  20
-187.58
  30
0.00
  11
-166.22
  21
-198.86
  31
0.00
  0
LINE
  8
SPLAY
  10
-199.69
  20
-187.58
  30
0.00
  11
-247.11
  21
-169.61
  31
0.00
  0
LINE
  8
SPLAY
  10
-199.69
  20
-187.58
  30
0.00
  11
-264.89
  21
-137.70
  31
0.00
  0
LINE
  8
SPLAY
  10
-199.69
  20
-187.58
  30
0.00
  11
-211.36
  21
-184.16
  31
0.00
  0
LINE
  8
SPLAY
  10
-199.69
  20
-187.58
  30
0.00
  11
-237.92
  21
-170.96
  31
0.00
  0
LINE
  8
SPLAY
  10
-199.69
  20
-187.58
  30
0.00
  11
-229.20
  21
-179.05
  31
0.00
  0
LINE
  8
SPLAY
  10
-199.69
  20
-187.58
  30
0.00
  11
-241.97
  21
-160.07
  31
0.00
  0
LINE
  8
SPLAY
  10
-199.69
  20
-187.58
  30
0.00
  11
-246.57
  21
-160.85
  31
0.00
  0
LINE
  8
SPLAY
  10
-199.69
  20
-187.58
  30
0.00
  11
-248.92
  21
-153.75
  31
0.00
  0
LINE
  8
SPLAY
  10
-172.62
  20
-164.39
  30
0.00
  11
-124.22
  21
-142.98
  31
0.00
  0
LINE
  8
SPLAY
  10
-172.62
  20
-164.39
  30
0.00
  11
-132.45
  21
-181.22
  31
0.00
  0
LINE
  8
SPLAY
  10
-172.62
  20
-164.39
  30
0.00
  11
-148.16
  21
-196.34
  31
0.00
  0
LINE
  8
SPLAY
  10
-172.62
  20
-164.39
  30
0.00
  11
-207.44
  21
-203.93
  31
0.00
  0
LINE
  8
SPLAY
  10
-172.62
  20
-164.39
  30
0.00
  11
-165.97
  21
-208.35
  31
0.00
  0
LINE
  8
SPLAY
  10
-172.62
  20
-164.39
  30
0.00
  11
-185.93
  21
-196.14
  31
0.00
  0
LINE
  8
SPLAY
  10
-172.62
  20
-164.39
  30
0.00
  11
-193.45
  21
-189.21
  31
0.00
  0
LINE
  8
SPLAY
  10
-172.62
  20
-164.39
  30
0.00
  11
-160.72
  21
-192.97
  31
0.00
  0
LINE
  8
SPLAY
  10
-172.62
  20
-164.39
  30
0.00
  11
-135.25
  21
-167.09
  31
0.00
  0
LINE
  8
SPLAY
  10
-172.62
  20
-164.39
  30
0.00
  11
-112.68
  21
-168.36
  31
0.00
  0
LINE
  8
SPLAY
  10
-172.62
  20
-164.39
  30
0.00
  11
-120.00
  21
-145.94
  31
0.00
  0
LINE
  8
SPLAY
  10
-172.62
  20
-164.39
  30
0.00
  11
-114.95
  21
-185.09
  31
0.00
  0
LINE
  8
SPLAY
  10
-172.62
  20
-164.39
  30
0.00
  11
-116.04
  21
-208.38
  31
0.00
  0
LINE
  8
SPLAY
  10
-172.62
  20
-164.39
  30
0.00
  11
-127.79
  21
-165.80
  31
0.00
  0
LINE
  8
SPLAY
  10
-172.62
  20
-164.39
  30
0.00
  11
-117.35
  21
-187.91
  31
0.00
  0
LINE
  8
SPLAY
  10
-120.45
  20
-189.60
  30
0.00
  11
-181.12
  21
-144.45
  31
0.00
  0
LINE
  8
SPLAY
  10
-120.45
  20
-189.60
  30
0.00
  11
-164.76
  21
-143.16
  31
0.00
  0
LINE
  8
SPLAY
  10
-120.45
  20
-189.60
  30
0.00
  11
-135.25
  21
-154.53
  31
0.00
  0
LINE
  8
SPLAY
  10
-120.45
  20
-189.60
  30
0.00
  11
-210.76
  21
-163.64
  31
0.00
  0
LINE
  8
SPLAY
  10
-120.45
  20
-189.60
  30
0.00
  11
-215.93
  21
-179.20
  31
0.00
  0
LINE
  8
SPLAY
  10
-120.45
  20
-189.60
  30
0.00
  11
-185.03
  21
-208.28
  31
0.00
  0
LINE
  8
SPLAY
  10
-120.45
  20
-189.60
  30
0.00
  11
-166.34
  21
-233.91
  31
0.00
  0
LINE
  8
SPLAY
  10
-120.45
  20
-189.60
  30
0.00
  11
-139.42
  21
-238.16
  31
0.00
  0
LINE
  8
SPLAY
  10
-120.45
  20
-189.60
  30
0.00
  11
-112.27
  21
-228.69
  31
0.00
  0
LINE
  8
SPLAY
  10
-120.45
  20
-189.60
  30
0.00
  11
-163.71
  21
-228.77
  31
0.00
  0
LINE
  8
SPLAY
  10
-120.45
  20
-189.60
  30
0.00
  11
-209.33
  21
-192.17
  31
0.00
  0
LINE
  8
SPLAY
  10
-120.45
  20
-189.60
  30
0.00
  11
-179.86
  21
-219.41
  31
0.00
  0
LINE
  8
SPLAY
  10
-120.45
  20
-189.60
  30
0.00
  11
-193.87
  21
-230.27
  31
0.00
  0
LINE
  8
SPLAY
  10
-120.45
  20
-189.60
  30
0.00
  11
-139.77
  21
-214.80
  31
0.00
  0
LINE
  8
SPLAY
  10
-175.78
  20
-199.09
  30
0.00
  11
-240.26
  21
-162.27
  31
0.00
  0
LINE
  8
SPLAY
  10
-175.78
  20
-199.09
  30
0.00
  11
-245.64
  21
-151.10
  31
0.00
  0
LINE
  8
SPLAY
  10
-175.78
  20
-199.09
  30
0.00
  11
-232.89
  21
-171.85
  31
0.00
  0
LINE
  8
SPLAY
  10
-175.78
  20
-199.09
  30
0.00
  11
-199.72
  21
-194.39
  31
0.00
  0
LINE
  8
SPLAY
  10
-175.78
  20
-199.09
  30
0.00
  11
-190.25
  21
-201.63
  31
0.00
  0
LINE
  8
SPLAY
  10
-175.78
  20
-199.09
  30
0.00
  11
-192.80
  21
-156.15
  31
0.00
  0
LINE
  8
SPLAY
  10
-175.78
  20
-199.09
  30
0.00
  11
-150.29
  21
-196.73
  31
0.00
  0
LINE
  8
SPLAY
  10
-175.78
  20
-199.09
  30
0.00
  11
-146.46
  21
-164.59
  31
0.00
  0
LINE
  8
SPLAY
  10
-175.78
  20
-199.09
  30
0.00
  11
-171.48
  21
-191.06
  31
0.00
  0
LINE
  8
SPLAY
  10
-175.78
  20
-199.09
  30
0.00
  11
-186.08
  21
-149.24
  31
0.00
  0
LINE
  8
SPLAY
  10
-175.78
  20
-199.09
  30
0.00
  11
-199.07
  21
-179.83
  31
0.00
  0
LINE
  8
SPLAY
  10
-121.11
  20
-206.16
  30
0.00
  11
-124.11
  21
-122.45
  31
0.00
  0
LINE
  8
SPLAY
  10
-121.11
  20
-206.16
  30
0.00
  11
-162.12
  21
-147.67
  31
0.00
  0
LINE
  8
SPLAY
  10
-121.11
  20
-206.16
  30
0.00
  11
-179.81
  21
-176.27
  31
0.00
  0
LINE
  8
SPLAY
  10
-121.11
  20
-206.16
  30
0.00
  11
-161.48
  21
-205.64
  31
0.00
  0
LINE
  8
SPLAY
  10
-121.11
  20
-206.16
  30
0.00
  11
-100.65
  21
-171.81
  31
0.00
  0
LINE
  8
SPLAY
  10
-121.11
  20
-206.16
  30
0.00
  11
-104.63
  21
-201.70
  31
0.00
  0
LINE
  8
SPLAY
  10
-121.11
  20
-206.16
  30
0.00
  11
-111.42
  21
-145.16
  31
0.00
  0
LINE
  8
SPLAY
  10
-121.11
  20
-206.16
  30
0.00
  11
-116.62
  21
-157.42
  31
0.00
  0
LINE
  8
SPLAY
  10
-121.11
  20
-206.16
  30
0.00
  11
-91.40
  21
-182.35
  31
0.00
  0
LINE
  8
SPLAY
  10
-121.11
  20
-206.16
  30
0.00
  11
-214.89
  21
-152.79
  31
0.00
  0
LINE
  8
SPLAY
  10
-121.11
  20
-206.16
  30
0.00
  11
-247.44
  21
-156.91
  31
0.00
  0
LINE
  8
SPLAY
  10
-121.11
  20
-206.16
  30
0.00
  11
-214.87
  21
-182.77
  31
0.00
  0
LINE
  8
SPLAY
  10
-121.11
  20
-206.16
  30
0.00
  11
-139.83
  21
-220.44
  31
0.00
  0
LINE
  8
SPLAY
  10
-121.11
  20
-206.16
  30
0.00
  11
-105.33
  21
-210.34
  31
0.00
  0
LINE
  8
SPLAY
  10
-121.11
  20
-206.16
  30
0.00
  11
-78.94
  21
-146.45
  31
0.00
  0
LINE
  8
SPLAY
  10
-23.31
  20
-134.94
  30
0.00
  11
2.96
  21
-91.45
  31
0.00
  0
LINE
  8
SPLAY
  10
-23.31
  20
-134.94
  30
0.00
  11
24.66
  21
-120.88
  31
0.00
  0
LINE
  8
SPLAY
  10
-23.31
  20
-134.94
  30
0.00
  11
52.28
  21
-150.28
  31
0.00
  0
LINE
  8
SPLAY
  10
-23.31
  20
-134.94
  30
0.00
  11
123.22
  21
-226.87
  31
0.00
  0
LINE
  8
SPLAY
  10
-23.31
  20
-134.94
  30
0.00
  11
0.04
  21
-162.29
  31
0.00
  0
POLYLINE
  8
L_wall
  66
1
  70
0
  0
VERTEX
  8
L_wall
  10
121.62
  20
-89.87
  30
0.00
  0
VERTEX
  8
L_wall
  10
120.43
  20
-94.41
  30
0.00
  0
VERTEX
  8
L_wall
  10
119.74
  20
-98.66
  30
0.00
  0
VERTEX
  8
L_wall
  10
118.82
  20
-103.15
  30
0.00
  0
VERTEX
  8
L_wall
  10
117.08
  20
-107.44
  30
0.00
  0
VERTEX
  8
L_wall
  10
117.08
  20
-111.62
  30
0.00
  0
VERTEX
  8
L_wall
  10
118.31
  20
-115.85
  30
0.00
  0
VERTEX
  8
L_wall
  10
119.64
  20
-119.89
  30
0.00
  0
VERTEX
  8
L_wall
  10
120.24
  20
-124.48
  30
0.00
  0
VERTEX
  8
L_wall
  10
120.63
  20
-128.82
  30
0.00
  0
VERTEX
  8
L_wall
  10
120.63
  20
-133.53
  30
0.00
  0
VERTEX
  8
L_wall
  10
119.78
  20
-138.70
  30
0.00
  0
VERTEX
  8
L_wall
  10
118.46
  20
-143.00
  30
0.00
  0
VERTEX
  8
L_wall
  10
115.67
  20
-145.98
  30
0.00
  0
VERTEX
  8
L_wall
  10
112.44
  20
-149.42
  30
0.00
  0
VERTEX
  8
L_wall
  10
108.84
  20
-152.23
  30
0.00
  0
VERTEX
  8
L_wall
  10
104.05
  20
-154.56
  30
0.00
  0
VERTEX
  8
L_wall
  10
99.90
  20
-157.72
  30
0.00
  0
VERTEX
  8
L_wall
  10
96.64
  20
-160.28
  30
0.00
  0
VERTEX
  8
L_wall
  10
92.59
  20
-163.64
  30
0.00
  0
VERTEX
  8
L_wall
  10
88.81
  20
-166.93
  30
0.00
  0
VERTEX
  8
L_wall
  10
85.14
  20
-170.02
  30
0.00
  0
VERTEX
  8
L_wall
  10
79.78
  20
-173.34
  30
0.00
  0
VERTEX
  8
L_wall
  10
75.26
  20
-175.77
  30
0.00
  0
VERTEX
  8
L_wall
  10
72.17
  20
-178.84
  30
0.00
  0
VERTEX
  8
L_wall
  10
68.47
  20
-181.12
  30
0.00
  0
VERTEX
  8
L_wall
  10
64.47
  20
-182.31
  30
0.00
  0
VERTEX
  8
L_wall
  10
61.40
  20
-185.27
  30
0.00
  0
VERTEX
  8
L_wall
  10
57.65
  20
-187.74
  30
0.00
  0
VERTEX
  8
L_wall
  10
53.63
  20
-189.02
  30
0.00
  0
SEQEND
  0
POLYLINE
  8
L_wall
  66
1
  70
0
  0
VERTEX
  8
L_wall
  10
84.30
  20
-79.40
  30
0.00
  0
VERTEX
  8
L_wall
  10
83.91
  20
-85.11
  30
0.00
  0
VERTEX
  8
L_wall
  10
82.74
  20
-88.94
  30
0.00
  0
VERTEX
  8
L_wall
  10
81.64
  20
-94.81
  30
0.00
  0
VERTEX
  8
L_wall
  10
80.88
  20
-99.56
  30
0.00
  0
VERTEX
  8
L_wall
  10
79.96
  20
-104.58
  30
0.00
  0
VERTEX
  8
L_wall
  10
77.31
  20
-110.58
  30
0.00
  0
VERTEX
  8
L_wall
  10
75.60
  20
-114.61
  30
0.00
  0
VERTEX
  8
L_wall
  10
74.04
  20
-119.59
  30
0.00
  0
VERTEX
  8
L_wall
  10
71.05
  20
-123.48
  30
0.00
  0
VERTEX
  8
L_wall
  10
69.50
  20
-127.24
  30
0.00
  0
VERTEX
  8
L_wall
  10
68.71
  20
-132.04
  30
0.00
  0
VERTEX
  8
L_wall
  10
68.18
  20
-137.39
  30
0.00
  0
VERTEX
  8
L_wall
  10
67.03
  20
-141.32
  30
0.00
  0
VERTEX
  8
L_wall
  10
64.21
  20
-145.13
  30
0.00
  0
VERTEX
  8
L_wall
  10
60.61
  20
-148.04
  30
0.00
  0
VERTEX
  8
L_wall
  10
56.37
  20
-151.20
  30
0.00
  0
VERTEX
  8
L_wall
  10
51.85
  20
-152.97
  30
0.00
  0
VERTEX
  8
L_wall
  10
48.19
  20
-155.50
  30
0.00
  0
VERTEX
  8
L_wall
  10
44.69
  20
-157.75
  30
0.00
  0
VERTEX
  8
L_wall
  10
40.26
  20
-159.61
  30
0.00
  0
VERTEX
  8
L_wall
  10
35.97
  20
-162.64
  30
0.00
  0
VERTEX
  8
L_wall
  10
32.35
  20
-164.94
  30
0.00
  0
VERTEX
  8
L_wall
  10
28.78
  20
-167.93
  30
0.00
  0
SEQEND
  0
POLYLINE
  8
L_wall
  66
1
  70
0
  0
VERTEX
  8
L_wall
  10
31.28
  20
-162.97
  30
0.00
  0
VERTEX
  8
L_wall
  10
25.48
  20
-171.09
  30
0.00
  0
VERTEX
  8
L_wall
  10
17.56
  20
-175.16
  30
0.00
  0
VERTEX
  8
L_wall
  10
8.64
  20
-178.26
  30
0.00
  0
VERTEX
  8
L_wall
  10
2.91
  20
-183.87
  30
0.00
  0
VERTEX
  8
L_wall
  10
-4.90
  20
-186.77
  30
0.00
  0
VERTEX
  8
L_wall
  10
-8.96
  20
-193.25
  30
0.00
  0
SEQEND
  0
POLYLINE
  8
L_wall
  66
1
  70
0
  0
VERTEX
  8
L_wall
  10
57.98
  20
-185.42
  30
0.00
  0
VERTEX
  8
L_wall
  10
51.63
  20
-194.10
  30
0.00
  0
VERTEX
  8
L_wall
  10
45.02
  20
-199.94
  30
0.00
  0
VERTEX
  8
L_wall
  10
37.79
  20
-205.47
  30
0.00
  0
VERTEX
  8
L_wall
  10
29.74
  20
-210.58
  30
0.00
  0
VERTEX
  8
L_wall
  10
22.09
  20
-214.53
  30
0.00
  0
VERTEX
  8
L_wall
  10
14.84
  20
-219.29
  30
0.00
  0
VERTEX
  8
L_wall
  10
7.13
  20
-222.36
  30
0.00
  0
VERTEX
  8
L_wall
  10
0.10
  20
-225.30
  30
0.00
  0
SEQEND
  0
POLYLINE
  8
L_pit
  66
1
  70
0
  0
VERTEX
  8
L_pit
  10
123.77
  20
-127.35
  30
0.00
  0
VERTEX
  8
L_pit
  10
115.36
  20
-123.57
  30
0.00
  0
VERTEX
  8
L_pit
  10
106.80
  20
-121.93
  30
0.00
  0
VERTEX
  8
L_pit
  10
98.11
  20
-119.99
  30
0.00
  0
VERTEX
  8
L_pit
  10
88.55
  20
-117.67
  30
0.00
  0
VERTEX
  8
L_pit
  10
80.20
  20
-118.06
  30
0.00
  0
VERTEX
  8
L_pit
  10
72.64
  20
-120.82
  30
0.00
  0
SEQEND
  0
POLYLINE
  8
L_pit
  66
1
  70
0
  0
VERTEX
  8
L_pit
  10
88.16
  20
-170.32
  30
0.00
  0
VERTEX
  8
L_pit
  10
84.29
  20
-157.55
  30
0.00
  0
VERTEX
  8
L_pit
  10
78.88
  20
-149.80
  30
0.00
  0
VERTEX
  8
L_pit
  10
70.78
  20
-145.75
  30
0.00
  0
VERTEX
  8
L_pit
  10
64.86
  20
-143.61
  30
0.00
  0
SEQEND
  0
POLYLINE
  8
L_pit
  66
1
  70
0
  0
VERTEX
  8
L_pit
  10
51.79
  20
-181.55
  30
0.00
  0
VERTEX
  8
L_pit
  10
48.60
  20
-170.82
  30
0.00
  0
VERTEX
  8
L_pit
  10
44.80
  20
-162.93
  30
0.00
  0
VERTEX
  8
L_pit
  10
39.21
  20
-157.55
  30
0.00
  0
SEQEND
  0
POLYLINE
  8
L_pit
  66
1
  70
0
  0
VERTEX
  8
L_pit
  10
51.79
  20
-181.55
  30
0.00
  0
VERTEX
  8
L_pit
  10
51.79
  20
-182.98
  30
0.00
  0
VERTEX
  8
L_pit
  10
47.92
  20
-173.03
  30
0.00
  0
SEQEND
  0
INSERT
  8
POINT
  2
P_water-flow
  41
10.00
  42
10.00
  50
134.00
  10
47.38
  20
-176.21
  30
0.00
  0
INSERT
  8
POINT
  2
P_water-flow
  41
10.00
  42
10.00
  50
134.00
  10
78.30
  20
-156.19
  30
0.00
  0
INSERT
  8
POINT
  2
P_water-flow
  41
10.00
  42
10.00
  50
134.00
  10
100.93
  20
-124.88
  30
0.00
  0
POLYLINE
  8
L_wall
  66
1
  70
0
  0
VERTEX
  8
L_wall
  10
2.67
  20
-221.63
  30
0.00
  0
VERTEX
  8
L_wall
  10
-0.16
  20
-226.10
  30
0.00
  0
VERTEX
  8
L_wall
  10
-5.78
  20
-230.91
  30
0.00
  0
SEQEND
  0
POLYLINE
  8
L_wall
  66
1
  70
0
  0
VERTEX
  8
L_wall
  10
-26.24
  20
-243.22
  30
0.00
  0
VERTEX
  8
L_wall
  10
-32.35
  20
-243.49
  30
0.00
  0
VERTEX
  8
L_wall
  10
-38.14
  20
-243.49
  30
0.00
  0
VERTEX
  8
L_wall
  10
-44.15
  20
-243.22
  30
0.00
  0
VERTEX
  8
L_wall
  10
-49.99
  20
-241.23
  30
0.00
  0
VERTEX
  8
L_wall
  10
-52.77
  20
-240.34
  30
0.00
  0
SEQEND
  0
POLYLINE
  8
L_wall
  66
1
  70
0
  0
VERTEX
  8
L_wall
  10
-2.77
  20
-189.68
  30
0.00
  0
VERTEX
  8
L_wall
  10
-10.19
  20
-195.94
  30
0.00
  0
VERTEX
  8
L_wall
  10
-18.00
  20
-198.97
  30
0.00
  0
SEQEND
  0
POLYLINE
  8
L_wall
  66
1
  70
0
  0
VERTEX
  8
L_wall
  10
-44.63
  20
-207.95
  30
0.00
  0
VERTEX
  8
L_wall
  10
-50.88
  20
-213.42
  30
0.00
  0
VERTEX
  8
L_wall
  10
-54.30
  20
-216.84
  30
0.00
  0
SEQEND
  0
POLYLINE
  8
L_wall
  66
1
  70
0
  0
VERTEX
  8
L_wall
  10
-18.63
  20
-199.48
  30
0.00
  0
VERTEX
  8
L_wall
  10
-25.25
  20
-201.14
  30
0.00
  0
VERTEX
  8
L_wall
  10
-32.22
  20
-204.20
  30
0.00
  0
VERTEX
  8
L_wall
  10
-39.19
  20
-206.16
  30
0.00
  0
VERTEX
  8
L_wall
  10
-44.97
  20
-207.78
  30
0.00
  0
SEQEND
  0
POLYLINE
  8
L_wall
  66
1
  70
0
  0
VERTEX
  8
L_wall
  10
-2.86
  20
-228.54
  30
0.00
  0
VERTEX
  8
L_wall
  10
-8.56
  20
-232.21
  30
0.00
  0
VERTEX
  8
L_wall
  10
-14.42
  20
-235.19
  30
0.00
  0
VERTEX
  8
L_wall
  10
-20.29
  20
-238.09
  30
0.00
  0
VERTEX
  8
L_wall
  10
-25.12
  20
-242.38
  30
0.00
  0
VERTEX
  8
L_wall
  10
-30.29
  20
-242.35
  30
0.00
  0
SEQEND
  0
POLYLINE
  8
L_pit
  66
1
  70
0
  0
VERTEX
  8
L_pit
  10
0.73
  20
-225.78
  30
0.00
  0
VERTEX
  8
L_pit
  10
0.49
  20
-218.21
  30
0.00
  0
VERTEX
  8
L_pit
  10
-1.51
  20
-211.23
  30
0.00
  0
VERTEX
  8
L_pit
  10
-5.16
  20
-205.60
  30
0.00
  0
VERTEX
  8
L_pit
  10
-9.07
  20
-200.23
  30
0.00
  0
VERTEX
  8
L_pit
  10
-13.32
  20
-196.27
  30
0.00
  0
SEQEND
  0
POLYLINE
  8
L_pit
  66
1
  70
0
  0
VERTEX
  8
L_pit
  10
-52.94
  20
-216.64
  30
0.00
  0
VERTEX
  8
L_pit
  10
-48.37
  20
-220.99
  30
0.00
  0
VERTEX
  8
L_pit
  10
-42.73
  20
-224.39
  30
0.00
  0
VERTEX
  8
L_pit
  10
-35.77
  20
-225.50
  30
0.00
  0
VERTEX
  8
L_pit
  10
-29.38
  20
-224.93
  30
0.00
  0
VERTEX
  8
L_pit
  10
-24.49
  20
-219.26
  30
0.00
  0
VERTEX
  8
L_pit
  10
-24.17
  20
-213.09
  30
0.00
  0
VERTEX
  8
L_pit
  10
-24.72
  20
-207.14
  30
0.00
  0
VERTEX
  8
L_pit
  10
-27.95
  20
-201.51
  30
0.00
  0
SEQEND
  0
POLYLINE
  8
L_wall
  66
1
  70
0
  0
VERTEX
  8
L_wall
  10
-32.47
  20
-232.70
  30
0.00
  0
VERTEX
  8
L_wall
  10
-30.72
  20
-240.43
  30
0.00
  0
VERTEX
  8
L_wall
  10
-29.91
  20
-247.20
  30
0.00
  0
VERTEX
  8
L_wall
  10
-29.42
  20
-250.55
  30
0.00
  0
SEQEND
  0
POLYLINE
  8
L_wall
  66
1
  70
0
  0
VERTEX
  8
L_wall
  10
-40.49
  20
-234.91
  30
0.00
  0
VERTEX
  8
L_wall
  10
-38.73
  20
-240.41
  30
0.00
  0
VERTEX
  8
L_wall
  10
-35.71
  20
-246.60
  30
0.00
  0
VERTEX
  8
L_wall
  10
-33.57
  20
-251.24
  30
0.00
  0
SEQEND
  0
POLYLINE
  8
L_wall
  66
1
  70
0
  0
VERTEX
  8
L_wall
  10
-34.68
  20
-205.02
  30
0.00
  0
VERTEX
  8
L_wall
  10
-37.27
  20
-199.42
  30
0.00
  0
VERTEX
  8
L_wall
  10
-38.97
  20
-192.58
  30
0.00
  0
VERTEX
  8
L_wall
  10
-39.78
  20
-186.29
  30
0.00
  0
SEQEND
  0
POLYLINE
  8
L_wall
  66
1
  70
0
  0
VERTEX
  8
L_wall
  10
-45.19
  20
-207.51
  30
0.00
  0
VERTEX
  8
L_wall
  10
-45.75
  20
-201.08
  30
0.00
  0
VERTEX
  8
L_wall
  10
-43.60
  20
-193.81
  30
0.00
  0
VERTEX
  8
L_wall
  10
-41.46
  20
-187.72
  30
0.00
  0
VERTEX
  8
L_wall
  10
-40.51
  20
-185.07
  30
0.00
  0
SEQEND
  0
INSERT
  8
POINT
  2
P_continuation
  41
10.00
  42
10.00
  50
360.00
  10
-38.88
  20
-177.84
  30
0.00
  0
INSERT
  8
POINT
  2
P_continuation
  41
10.00
  42
10.00
  50
360.00
  10
-29.29
  20
-256.92
  30
0.00
  0
POLYLINE
  8
L_floor-meander
  66
1
  70
0
  0
VERTEX
  8
L_floor-meander
  10
-25.00
  20
-215.26
  30
0.00
  0
VERTEX
  8
L_floor-meander
  10
-18.64
  20
-216.00
  30
0.00
  0
VERTEX
  8
L_floor-meander
  10
-12.13
  20
-214.98
  30
0.00
  0
VERTEX
  8
L_floor-meander
  10
-9.23
  20
-211.16
  30
0.00
  0
SEQEND
  0
INSERT
  8
POINT
  2
P_water-flow
  41
10.00
  42
10.00
  50
93.00
  10
-13.15
  20
-214.93
  30
0.00
  0
POLYLINE
  8
L_wall
  66
1
  70
0
  0
VERTEX
  8
L_wall
  10
-43.90
  20
-207.77
  30
0.00
  0
VERTEX
  8
L_wall
  10
-48.94
  20
-205.89
  30
0.00
  0
VERTEX
  8
L_wall
  10
-53.18
  20
-204.81
  30
0.00
  0
VERTEX
  8
L_wall
  10
-56.21
  20
-203.03
  30
0.00
  0
SEQEND
  0
POLYLINE
  8
L_wall
  66
1
  70
0
  0
VERTEX
  8
L_wall
  10
-41.13
  20
-245.53
  30
0.00
  0
VERTEX
  8
L_wall
  10
-42.89
  20
-240.38
  30
0.00
  0
VERTEX
  8
L_wall
  10
-45.50
  20
-236.02
  30
0.00
  0
VERTEX
  8
L_wall
  10
-49.02
  20
-231.78
  30
0.00
  0
VERTEX
  8
L_wall
  10
-50.99
  20
-228.00
  30
0.00
  0
VERTEX
  8
L_wall
  10
-53.24
  20
-224.12
  30
0.00
  0
VERTEX
  8
L_wall
  10
-55.75
  20
-220.82
  30
0.00
  0
VERTEX
  8
L_wall
  10
-57.53
  20
-216.81
  30
0.00
  0
VERTEX
  8
L_wall
  10
-60.46
  20
-213.37
  30
0.00
  0
VERTEX
  8
L_wall
  10
-62.69
  20
-209.54
  30
0.00
  0
VERTEX
  8
L_wall
  10
-65.01
  20
-205.04
  30
0.00
  0
VERTEX
  8
L_wall
  10
-67.12
  20
-201.15
  30
0.00
  0
SEQEND
  0
INSERT
  8
POINT
  2
P_water-flow
  41
10.00
  42
10.00
  50
54.00
  10
-51.86
  20
-213.28
  30
0.00
  0
INSERT
  8
POINT
  2
P_debris
  41
10.00
  42
10.00
  50
360.00
  10
-37.20
  20
-217.15
  30
0.00
  0
INSERT
  8
POINT
  2
P_debris
  41
10.00
  42
10.00
  50
360.00
  10
-49.40
  20
-215.89
  30
0.00
  0
POLYLINE
  8
L_wall
  66
1
  70
0
  0
VERTEX
  8
L_wall
  10
-56.08
  20
-203.37
  30
0.00
  0
VERTEX
  8
L_wall
  10
-57.71
  20
-200.05
  30
0.00
  0
VERTEX
  8
L_wall
  10
-59.25
  20
-196.33
  30
0.00
  0
VERTEX
  8
L_wall
  10
-60.97
  20
-193.82
  30
0.00
  0
VERTEX
  8
L_wall
  10
-62.77
  20
-191.41
  30
0.00
  0
VERTEX
  8
L_wall
  10
-64.75
  20
-188.65
  30
0.00
  0
VERTEX
  8
L_wall
  10
-66.54
  20
-186.10
  30
0.00
  0
VERTEX
  8
L_wall
  10
-68.11
  20
-183.43
  30
0.00
  0
VERTEX
  8
L_wall
  10
-69.80
  20
-180.73
  30
0.00
  0
VERTEX
  8
L_wall
  10
-71.05
  20
-177.76
  30
0.00
  0
VERTEX
  8
L_wall
  10
-73.14
  20
-175.15
  30
0.00
  0
VERTEX
  8
L_wall
  10
-74.72
  20
-173.12
  30
0.00
  0
SEQEND
  0
POLYLINE
  8
L_wall
  66
1
  70
0
  0
VERTEX
  8
L_wall
  10
-66.67
  20
-203.37
  30
0.00
  0
VERTEX
  8
L_wall
  10
-68.26
  20
-201.16
  30
0.00
  0
VERTEX
  8
L_wall
  10
-70.27
  20
-198.24
  30
0.00
  0
VERTEX
  8
L_wall
  10
-72.96
  20
-196.59
  30
0.00
  0
VERTEX
  8
L_wall
  10
-75.69
  20
-193.07
  30
0.00
  0
VERTEX
  8
L_wall
  10
-78.17
  20
-190.80
  30
0.00
  0
VERTEX
  8
L_wall
  10
-80.95
  20
-187.86
  30
0.00
  0
VERTEX
  8
L_wall
  10
-83.50
  20
-185.25
  30
0.00
  0
VERTEX
  8
L_wall
  10
-86.40
  20
-183.91
  30
0.00
  0
SEQEND
  0
POLYLINE
  8
L_wall
  66
1
  70
0
  0
VERTEX
  8
L_wall
  10
-75.00
  20
-174.13
  30
0.00
  0
VERTEX
  8
L_wall
  10
-77.85
  20
-171.34
  30
0.00
  0
VERTEX
  8
L_wall
  10
-81.65
  20
-169.32
  30
0.00
  0
VERTEX
  8
L_wall
  10
-85.46
  20
-168.22
  30
0.00
  0
VERTEX
  8
L_wall
  10
-88.44
  20
-168.34
  30
0.00
  0
VERTEX
  8
L_wall
  10
-92.27
  20
-167.92
  30
0.00
  0
VERTEX
  8
L_wall
  10
-95.32
  20
-167.21
  30
0.00
  0
VERTEX
  8
L_wall
  10
-98.50
  20
-166.65
  30
0.00
  0
VERTEX
  8
L_wall
  10
-102.49
  20
-166.93
  30
0.00
  0
VERTEX
  8
L_wall
  10
-106.33
  20
-166.65
  30
0.00
  0
VERTEX
  8
L_wall
  10
-109.69
  20
-166.65
  30
0.00
  0
VERTEX
  8
L_wall
  10
-112.82
  20
-166.79
  30
0.00
  0
SEQEND
  0
POLYLINE
  8
L_wall
  66
1
  70
0
  0
VERTEX
  8
L_wall
  10
-85.87
  20
-184.58
  30
0.00
  0
VERTEX
  8
L_wall
  10
-89.24
  20
-185.01
  30
0.00
  0
VERTEX
  8
L_wall
  10
-93.75
  20
-184.97
  30
0.00
  0
VERTEX
  8
L_wall
  10
-96.68
  20
-183.68
  30
0.00
  0
VERTEX
  8
L_wall
  10
-99.58
  20
-182.47
  30
0.00
  0
VERTEX
  8
L_wall
  10
-102.57
  20
-181.32
  30
0.00
  0
VERTEX
  8
L_wall
  10
-105.44
  20
-179.53
  30
0.00
  0
SEQEND
  0
INSERT
  8
POINT
  2
P_water-flow
  41
10.00
  42
10.00
  50
54.00
  10
-74.30
  20
-188.09
  30
0.00
  0
INSERT
  8
POINT
  2
P_label
  41
10.00
  42
10.00
  50
360.00
  10
-73.63
  20
-177.81
  30
0.00
  0
POLYLINE
  8
L_wall
  66
1
  70
0
  0
VERTEX
  8
L_wall
  10
-110.98
  20
-167.97
  30
0.00
  0
VERTEX
  8
L_wall
  10
-114.42
  20
-167.47
  30
0.00
  0
VERTEX
  8
L_wall
  10
-117.57
  20
-168.11
  30
0.00
  0
VERTEX
  8
L_wall
  10
-120.44
  20
-167.54
  30
0.00
  0
VERTEX
  8
L_wall
  10
-123.22
  20
-165.75
  30
0.00
  0
VERTEX
  8
L_wall
  10
-126.12
  20
-163.56
  30
0.00
  0
VERTEX
  8
L_wall
  10
-128.52
  20
-162.02
  30
0.00
  0
VERTEX
  8
L_wall
  10
-131.58
  20
-159.99
  30
0.00
  0
VERTEX
  8
L_wall
  10
-134.97
  20
-157.38
  30
0.00
  0
VERTEX
  8
L_wall
  10
-138.10
  20
-155.56
  30
0.00
  0
VERTEX
  8
L_wall
  10
-140.71
  20
-153.62
  30
0.00
  0
VERTEX
  8
L_wall
  10
-143.34
  20
-151.40
  30
0.00
  0
VERTEX
  8
L_wall
  10
-146.09
  20
-148.94
  30
0.00
  0
VERTEX
  8
L_wall
  10
-148.27
  20
-147.07
  30
0.00
  0
SEQEND
  0
POLYLINE
  8
L_wall
  66
1
  70
0
  0
VERTEX
  8
L_wall
  10
-102.65
  20
-182.09
  30
0.00
  0
VERTEX
  8
L_wall
  10
-107.59
  20
-181.03
  30
0.00
  0
VERTEX
  8
L_wall
  10
-113.04
  20
-181.30
  30
0.00
  0
VERTEX
  8
L_wall
  10
-117.05
  20
-182.09
  30
0.00
  0
VERTEX
  8
L_wall
  10
-121.49
  20
-181.46
  30
0.00
  0
VERTEX
  8
L_wall
  10
-126.11
  20
-179.92
  30
0.00
  0
VERTEX
  8
L_wall
  10
-130.41
  20
-179.30
  30
0.00
  0
VERTEX
  8
L_wall
  10
-134.01
  20
-177.98
  30
0.00
  0
VERTEX
  8
L_wall
  10
-137.31
  20
-175.52
  30
0.00
  0
VERTEX
  8
L_wall
  10
-140.17
  20
-173.08
  30
0.00
  0
VERTEX
  8
L_wall
  10
-143.24
  20
-170.77
  30
0.00
  0
VERTEX
  8
L_wall
  10
-145.49
  20
-167.90
  30
0.00
  0
VERTEX
  8
L_wall
  10
-147.60
  20
-165.84
  30
0.00
  0
VERTEX
  8
L_wall
  10
-150.92
  20
-163.38
  30
0.00
  0
VERTEX
  8
L_wall
  10
-154.38
  20
-161.90
  30
0.00
  0
VERTEX
  8
L_wall
  10
-157.22
  20
-160.02
  30
0.00
  0
SEQEND
  0
INSERT
  8
POINT
  2
P_debris
  41
10.00
  42
10.00
  50
360.00
  10
-121.14
  20
-174.61
  30
0.00
  0
INSERT
  8
POINT
  2
P_debris
  41
10.00
  42
10.00
  50
360.00
  10
-134.47
  20
-167.52
  30
0.00
  0
INSERT
  8
POINT
  2
P_water-flow
  41
10.00
  42
10.00
  50
54.00
  10
-127.38
  20
-171.92
  30
0.00
  0
POLYLINE
  8
L_pit
  66
1
  70
0
  0
VERTEX
  8
L_pit
  10
-147.96
  20
-173.76
  30
0.00
  0
VERTEX
  8
L_pit
  10
-145.14
  20
-170.44
  30
0.00
  0
VERTEX
  8
L_pit
  10
-141.88
  20
-165.67
  30
0.00
  0
VERTEX
  8
L_pit
  10
-140.30
  20
-161.95
  30
0.00
  0
VERTEX
  8
L_pit
  10
-138.97
  20
-154.36
  30
0.00
  0
VERTEX
  8
L_pit
  10
-138.78
  20
-149.26
  30
0.00
  0
VERTEX
  8
L_pit
  10
-139.63
  20
-142.83
  30
0.00
  0
VERTEX
  8
L_pit
  10
-140.39
  20
-140.92
  30
0.00
  0
SEQEND
  0
POLYLINE
  8
L_wall
  66
1
  70
0
  0
VERTEX
  8
L_wall
  10
-149.87
  20
-166.20
  30
0.00
  0
VERTEX
  8
L_wall
  10
-157.35
  20
-166.40
  30
0.00
  0
VERTEX
  8
L_wall
  10
-164.10
  20
-165.61
  30
0.00
  0
VERTEX
  8
L_wall
  10
-168.96
  20
-164.56
  30
0.00
  0
VERTEX
  8
L_wall
  10
-174.80
  20
-163.09
  30
0.00
  0
VERTEX
  8
L_wall
  10
-178.97
  20
-162.20
  30
0.00
  0
VERTEX
  8
L_wall
  10
-183.54
  20
-161.20
  30
0.00
  0
VERTEX
  8
L_wall
  10
-188.31
  20
-160.96
  30
0.00
  0
VERTEX
  8
L_wall
  10
-192.36
  20
-159.88
  30
0.00
  0
VERTEX
  8
L_wall
  10
-196.77
  20
-158.33
  30
0.00
  0
VERTEX
  8
L_wall
  10
-201.83
  20
-157.85
  30
0.00
  0
VERTEX
  8
L_wall
  10
-206.00
  20
-156.07
  30
0.00
  0
VERTEX
  8
L_wall
  10
-209.51
  20
-153.57
  30
0.00
  0
VERTEX
  8
L_wall
  10
-213.57
  20
-151.25
  30
0.00
  0
VERTEX
  8
L_wall
  10
-217.03
  20
-148.82
  30
0.00
  0
VERTEX
  8
L_wall
  10
-219.31
  20
-144.75
  30
0.00
  0
VERTEX
  8
L_wall
  10
-221.26
  20
-140.10
  30
0.00
  0
VERTEX
  8
L_wall
  10
-223.58
  20
-135.77
  30
0.00
  0
VERTEX
  8
L_wall
  10
-224.22
  20
-130.73
  30
0.00
  0
VERTEX
  8
L_wall
  10
-223.59
  20
-126.53
  30
0.00
  0
VERTEX
  8
L_wall
  10
-223.44
  20
-122.17
  30
0.00
  0
VERTEX
  8
L_wall
  10
-223.39
  20
-118.16
  30
0.00
  0
VERTEX
  8
L_wall
  10
-221.43
  20
-114.05
  30
0.00
  0
VERTEX
  8
L_wall
  10
-219.44
  20
-110.55
  30
0.00
  0
VERTEX
  8
L_wall
  10
-223.19
  20
-115.99
  30
0.00
  0
VERTEX
  8
L_wall
  10
-224.37
  20
-111.56
  30
0.00
  0
VERTEX
  8
L_wall
  10
-227.51
  20
-106.36
  30
0.00
  0
VERTEX
  8
L_wall
  10
-228.51
  20
-101.80
  30
0.00
  0
VERTEX
  8
L_wall
  10
-229.12
  20
-96.22
  30
0.00
  0
VERTEX
  8
L_wall
  10
-230.00
  20
-91.10
  30
0.00
  0
VERTEX
  8
L_wall
  10
-230.60
  20
-84.68
  30
0.00
  0
VERTEX
  8
L_wall
  10
-231.09
  20
-79.21
  30
0.00
  0
VERTEX
  8
L_wall
  10
-231.90
  20
-74.81
  30
0.00
  0
VERTEX
  8
L_wall
  10
-233.24
  20
-69.42
  30
0.00
  0
VERTEX
  8
L_wall
  10
-233.95
  20
-64.84
  30
0.00
  0
VERTEX
  8
L_wall
  10
-234.45
  20
-59.47
  30
0.00
  0
VERTEX
  8
L_wall
  10
-234.26
  20
-55.12
  30
0.00
  0
VERTEX
  8
L_wall
  10
-233.59
  20
-50.51
  30
0.00
  0
VERTEX
  8
L_wall
  10
-232.19
  20
-46.30
  30
0.00
  0
SEQEND
  0
POLYLINE
  8
L_wall
  66
1
  70
0
  0
VERTEX
  8
L_wall
  10
-147.90
  20
-148.21
  30
0.00
  0
VERTEX
  8
L_wall
  10
-151.37
  20
-144.12
  30
0.00
  0
VERTEX
  8
L_wall
  10
-155.97
  20
-140.69
  30
0.00
  0
VERTEX
  8
L_wall
  10
-161.49
  20
-137.13
  30
0.00
  0
VERTEX
  8
L_wall
  10
-167.01
  20
-133.81
  30
0.00
  0
VERTEX
  8
L_wall
  10
-172.22
  20
-131.34
  30
0.00
  0
VERTEX
  8
L_wall
  10
-177.30
  20
-128.17
  30
0.00
  0
VERTEX
  8
L_wall
  10
-181.44
  20
-126.21
  30
0.00
  0
VERTEX
  8
L_wall
  10
-185.88
  20
-124.17
  30
0.00
  0
VERTEX
  8
L_wall
  10
-191.12
  20
-121.75
  30
0.00
  0
VERTEX
  8
L_wall
  10
-195.81
  20
-119.75
  30
0.00
  0
VERTEX
  8
L_wall
  10
-199.88
  20
-116.84
  30
0.00
  0
VERTEX
  8
L_wall
  10
-202.53
  20
-113.63
  30
0.00
  0
VERTEX
  8
L_wall
  10
-203.51
  20
-110.85
  30
0.00
  0
VERTEX
  8
L_wall
  10
-202.05
  20
-110.65
  30
0.00
  0
VERTEX
  8
L_wall
  10
-204.61
  20
-106.30
  30
0.00
  0
VERTEX
  8
L_wall
  10
-206.27
  20
-100.08
  30
0.00
  0
VERTEX
  8
L_wall
  10
-207.74
  20
-95.41
  30
0.00
  0
VERTEX
  8
L_wall
  10
-209.71
  20
-91.16
  30
0.00
  0
VERTEX
  8
L_wall
  10
-212.12
  20
-87.12
  30
0.00
  0
VERTEX
  8
L_wall
  10
-212.91
  20
-83.06
  30
0.00
  0
VERTEX
  8
L_wall
  10
-213.31
  20
-78.89
  30
0.00
  0
VERTEX
  8
L_wall
  10
-213.31
  20
-74.57
  30
0.00
  0
VERTEX
  8
L_wall
  10
-213.31
  20
-70.20
  30
0.00
  0
VERTEX
  8
L_wall
  10
-213.31
  20
-65.10
  30
0.00
  0
VERTEX
  8
L_wall
  10
-213.73
  20
-60.54
  30
0.00
  0
VERTEX
  8
L_wall
  10
-213.97
  20
-56.20
  30
0.00
  0
VERTEX
  8
L_wall
  10
-214.54
  20
-51.40
  30
0.00
  0
VERTEX
  8
L_wall
  10
-215.22
  20
-47.06
  30
0.00
  0
VERTEX
  8
L_wall
  10
-216.05
  20
-42.97
  30
0.00
  0
VERTEX
  8
L_wall
  10
-216.67
  20
-38.88
  30
0.00
  0
SEQEND
  0
POLYLINE
  8
L_pit
  66
1
  70
0
  0
VERTEX
  8
L_pit
  10
-202.44
  20
-157.31
  30
0.00
  0
VERTEX
  8
L_pit
  10
-205.51
  20
-157.29
  30
0.00
  0
VERTEX
  8
L_pit
  10
-204.16
  20
-161.12
  30
0.00
  0
VERTEX
  8
L_pit
  10
-200.72
  20
-157.34
  30
0.00
  0
VERTEX
  8
L_pit
  10
-198.10
  20
-152.55
  30
0.00
  0
VERTEX
  8
L_pit
  10
-192.98
  20
-145.48
  30
0.00
  0
VERTEX
  8
L_pit
  10
-190.68
  20
-138.99
  30
0.00
  0
VERTEX
  8
L_pit
  10
-188.01
  20
-134.09
  30
0.00
  0
VERTEX
  8
L_pit
  10
-186.85
  20
-129.24
  30
0.00
  0
VERTEX
  8
L_pit
  10
-186.16
  20
-123.96
  30
0.00
  0
VERTEX
  8
L_pit
  10
-185.84
  20
-118.53
  30
0.00
  0
SEQEND
  0
INSERT
  8
POINT
  2
P_debris
  41
10.00
  42
10.00
  50
360.00
  10
-181.05
  20
-147.24
  30
0.00
  0
INSERT
  8
POINT
  2
P_debris
  41
10.00
  42
10.00
  50
360.00
  10
-185.68
  20
-144.42
  30
0.00
  0
INSERT
  8
POINT
  2
P_water-flow
  41
10.00
  42
10.00
  50
49.00
  10
-198.71
  20
-140.88
  30
0.00
  0
INSERT
  8
POINT
  2
P_blocks
  41
10.00
  42
10.00
  50
360.00
  10
-225.36
  20
-57.35
  30
0.00
  0
INSERT
  8
POINT
  2
P_blocks
  41
10.00
  42
10.00
  50
360.00
  10
-222.79
  20
-73.88
  30
0.00
  0
POLYLINE
  8
L_pit
  66
1
  70
0
  0
VERTEX
  8
L_pit
  10
-227.74
  20
-119.94
  30
0.00
  0
VERTEX
  8
L_pit
  10
-222.82
  20
-116.73
  30
0.00
  0
VERTEX
  8
L_pit
  10
-218.22
  20
-111.77
  30
0.00
  0
VERTEX
  8
L_pit
  10
-213.61
  20
-106.40
  30
0.00
  0
VERTEX
  8
L_pit
  10
-210.96
  20
-102.99
  30
0.00
  0
VERTEX
  8
L_pit
  10
-208.34
  20
-98.34
  30
0.00
  0
VERTEX
  8
L_pit
  10
-207.51
  20
-94.38
  30
0.00
  0
SEQEND
  0
INSERT
  8
POINT
  2
P_water-flow
  41
10.00
  42
10.00
  50
40.00
  10
-219.35
  20
-95.08
  30
0.00
  0
INSERT
  8
POINT
  2
P_debris
  41
10.00
  42
10.00
  50
360.00
  10
-219.99
  20
-98.90
  30
0.00
  0
POLYLINE
  8
L_wall
  66
1
  70
0
  0
VERTEX
  8
L_wall
  10
-217.32
  20
-38.49
  30
0.00
  0
VERTEX
  8
L_wall
  10
-215.24
  20
-35.58
  30
0.00
  0
VERTEX
  8
L_wall
  10
-213.98
  20
-32.35
  30
0.00
  0
VERTEX
  8
L_wall
  10
-212.43
  20
-28.65
  30
0.00
  0
VERTEX
  8
L_wall
  10
-211.76
  20
-25.89
  30
0.00
  0
VERTEX
  8
L_wall
  10
-211.79
  20
-22.58
  30
0.00
  0
VERTEX
  8
L_wall
  10
-211.24
  20
-19.29
  30
0.00
  0
VERTEX
  8
L_wall
  10
-210.96
  20
-14.27
  30
0.00
  0
VERTEX
  8
L_wall
  10
-210.96
  20
-11.22
  30
0.00
  0
VERTEX
  8
L_wall
  10
-211.88
  20
-7.81
  30
0.00
  0
VERTEX
  8
L_wall
  10
-212.94
  20
-4.90
  30
0.00
  0
VERTEX
  8
L_wall
  10
-214.39
  20
-2.40
  30
0.00
  0
VERTEX
  8
L_wall
  10
-216.11
  20
0.44
  30
0.00
  0
VERTEX
  8
L_wall
  10
-217.07
  20
3.37
  30
0.00
  0
VERTEX
  8
L_wall
  10
-218.22
  20
6.27
  30
0.00
  0
VERTEX
  8
L_wall
  10
-219.67
  20
9.12
  30
0.00
  0
VERTEX
  8
L_wall
  10
-221.25
  20
11.42
  30
0.00
  0
VERTEX
  8
L_wall
  10
-222.61
  20
14.15
  30
0.00
  0
VERTEX
  8
L_wall
  10
-224.51
  20
17.28
  30
0.00
  0
VERTEX
  8
L_wall
  10
-226.31
  20
21.16
  30
0.00
  0
VERTEX
  8
L_wall
  10
-227.28
  20
24.19
  30
0.00
  0
VERTEX
  8
L_wall
  10
-229.60
  20
26.24
  30
0.00
  0
VERTEX
  8
L_wall
  10
-231.71
  20
28.91
  30
0.00
  0
VERTEX
  8
L_wall
  10
-233.63
  20
32.62
  30
0.00
  0
VERTEX
  8
L_wall
  10
-235.35
  20
34.92
  30
0.00
  0
VERTEX
  8
L_wall
  10
-237.93
  20
38.04
  30
0.00
  0
VERTEX
  8
L_wall
  10
-239.87
  20
40.94
  30
0.00
  0
VERTEX
  8
L_wall
  10
-241.61
  20
43.49
  30
0.00
  0
VERTEX
  8
L_wall
  10
-244.71
  20
45.38
  30
0.00
  0
VERTEX
  8
L_wall
  10
-246.96
  20
47.04
  30
0.00
  0
VERTEX
  8
L_wall
  10
-249.48
  20
48.77
  30
0.00
  0
VERTEX
  8
L_wall
  10
-252.71
  20
48.70
  30
0.00
  0
SEQEND
  0
POLYLINE
  8
L_pit
  66
1
  70
0
  0
VERTEX
  8
L_pit
  10
-233.09
  20
-49.01
  30
0.00
  0
VERTEX
  8
L_pit
  10
-228.66
  20
-42.78
  30
0.00
  0
VERTEX
  8
L_pit
  10
-225.90
  20
-36.83
  30
0.00
  0
VERTEX
  8
L_pit
  10
-221.89
  20
-31.84
  30
0.00
  0
VERTEX
  8
L_pit
  10
-217.74
  20
-27.56
  30
0.00
  0
VERTEX
  8
L_pit
  10
-212.67
  20
-25.98
  30
0.00
  0
SEQEND
  0
POLYLINE
  8
L_wall
  66
1
  70
0
  0
VERTEX
  8
L_wall
  10
-249.97
  20
47.87
  30
0.00
  0
VERTEX
  8
L_wall
  10
-253.59
  20
45.97
  30
0.00
  0
VERTEX
  8
L_wall
  10
-255.78
  20
42.61
  30
0.00
  0
VERTEX
  8
L_wall
  10
-258.26
  20
41.10
  30
0.00
  0
VERTEX
  8
L_wall
  10
-261.94
  20
38.21
  30
0.00
  0
VERTEX
  8
L_wall
  10
-263.79
  20
34.47
  30
0.00
  0
VERTEX
  8
L_wall
  10
-267.63
  20
31.15
  30
0.00
  0
VERTEX
  8
L_wall
  10
-270.93
  20
27.09
  30
0.00
  0
VERTEX
  8
L_wall
  10
-272.52
  20
23.93
  30
0.00
  0
VERTEX
  8
L_wall
  10
-275.61
  20
19.08
  30
0.00
  0
VERTEX
  8
L_wall
  10
-278.44
  20
14.65
  30
0.00
  0
VERTEX
  8
L_wall
  10
-281.48
  20
10.08
  30
0.00
  0
VERTEX
  8
L_wall
  10
-283.43
  20
6.24
  30
0.00
  0
VERTEX
  8
L_wall
  10
-285.19
  20
0.31
  30
0.00
  0
VERTEX
  8
L_wall
  10
-286.42
  20
-4.18
  30
0.00
  0
VERTEX
  8
L_wall
  10
-287.22
  20
-7.57
  30
0.00
  0
VERTEX
  8
L_wall
  10
-287.87
  20
-10.66
  30
0.00
  0
VERTEX
  8
L_wall
  10
-288.27
  20
-15.79
  30
0.00
  0
VERTEX
  8
L_wall
  10
-288.81
  20
-19.61
  30
0.00
  0
VERTEX
  8
L_wall
  10
-289.32
  20
-23.23
  30
0.00
  0
VERTEX
  8
L_wall
  10
-289.25
  20
-26.45
  30
0.00
  0
VERTEX
  8
L_wall
  10
-290.19
  20
-31.40
  30
0.00
  0
VERTEX
  8
L_wall
  10
-290.49
  20
-34.16
  30
0.00
  0
VERTEX
  8
L_wall
  10
-291.47
  20
-39.04
  30
0.00
  0
VERTEX
  8
L_wall
  10
-291.57
  20
-44.70
  30
0.00
  0
VERTEX
  8
L_wall
  10
-291.47
  20
-49.17
  30
0.00
  0
VERTEX
  8
L_wall
  10
-292.42
  20
-53.05
  30
0.00
  0
VERTEX
  8
L_wall
  10
-293.13
  20
-56.34
  30
0.00
  0
VERTEX
  8
L_wall
  10
-294.23
  20
-61.32
  30
0.00
  0
VERTEX
  8
L_wall
  10
-295.58
  20
-65.06
  30
0.00
  0
VERTEX
  8
L_wall
  10
-296.63
  20
-68.11
  30
0.00
  0
VERTEX
  8
L_wall
  10
-297.28
  20
-71.28
  30
0.00
  0
VERTEX
  8
L_wall
  10
-298.25
  20
-75.16
  30
0.00
  0
VERTEX
  8
L_wall
  10
-298.80
  20
-78.76
  30
0.00
  0
VERTEX
  8
L_wall
  10
-299.21
  20
-82.89
  30
0.00
  0
VERTEX
  8
L_wall
  10
-298.13
  20
-86.98
  30
0.00
  0
VERTEX
  8
L_wall
  10
-297.41
  20
-90.21
  30
0.00
  0
VERTEX
  8
L_wall
  10
-297.14
  20
-93.02
  30
0.00
  0
VERTEX
  8
L_wall
  10
-295.89
  20
-97.86
  30
0.00
  0
VERTEX
  8
L_wall
  10
-293.48
  20
-101.60
  30
0.00
  0
VERTEX
  8
L_wall
  10
-290.88
  20
-104.56
  30
0.00
  0
VERTEX
  8
L_wall
  10
-289.12
  20
-107.41
  30
0.00
  0
VERTEX
  8
L_wall
  10
-286.72
  20
-111.01
  30
0.00
  0
VERTEX
  8
L_wall
  10
-284.09
  20
-113.68
  30
0.00
  0
VERTEX
  8
L_wall
  10
-281.81
  20
-116.37
  30
0.00
  0
VERTEX
  8
L_wall
  10
-279.34
  20
-119.64
  30
0.00
  0
VERTEX
  8
L_wall
  10
-278.36
  20
-122.55
  30
0.00
  0
VERTEX
  8
L_wall
  10
-277.29
  20
-125.43
  30
0.00
  0
VERTEX
  8
L_wall
  10
-275.06
  20
-128.28
  30
0.00
  0
VERTEX
  8
L_wall
  10
-273.62
  20
-131.07
  30
0.00
  0
VERTEX
  8
L_wall
  10
-271.84
  20
-134.51
  30
0.00
  0
VERTEX
  8
L_wall
  10
-269.04
  20
-136.95
  30
0.00
  0
VERTEX
  8
L_wall
  10
-266.85
  20
-139.37
  30
0.00
  0
VERTEX
  8
L_wall
  10
-264.96
  20
-141.67
  30
0.00
  0
VERTEX
  8
L_wall
  10
-262.56
  20
-144.50
  30
0.00
  0
SEQEND
  0
POLYLINE
  8
L_pit
  66
1
  70
0
  0
VERTEX
  8
L_pit
  10
-233.09
  20
-49.01
  30
0.00
  0
VERTEX
  8
L_pit
  10
-238.90
  20
-40.57
  30
0.00
  0
VERTEX
  8
L_pit
  10
-237.57
  20
-31.27
  30
0.00
  0
VERTEX
  8
L_pit
  10
-236.68
  20
-24.30
  30
0.00
  0
VERTEX
  8
L_pit
  10
-236.41
  20
-18.28
  30
0.00
  0
VERTEX
  8
L_pit
  10
-237.36
  20
-11.20
  30
0.00
  0
VERTEX
  8
L_pit
  10
-238.07
  20
-5.20
  30
0.00
  0
VERTEX
  8
L_pit
  10
-239.18
  20
1.33
  30
0.00
  0
VERTEX
  8
L_pit
  10
-240.84
  20
7.69
  30
0.00
  0
VERTEX
  8
L_pit
  10
-243.06
  20
13.30
  30
0.00
  0
VERTEX
  8
L_pit
  10
-247.74
  20
17.96
  30
0.00
  0
VERTEX
  8
L_pit
  10
-250.76
  20
23.20
  30
0.00
  0
VERTEX
  8
L_pit
  10
-257.28
  20
27.84
  30
0.00
  0
VERTEX
  8
L_pit
  10
-262.69
  20
30.71
  30
0.00
  0
VERTEX
  8
L_pit
  10
-268.13
  20
28.77
  30
0.00
  0
VERTEX
  8
L_pit
  10
-271.08
  20
28.26
  30
0.00
  0
SEQEND
  0
POLYLINE
  8
L_wall
  66
1
  70
0
  0
VERTEX
  8
L_wall
  10
-232.19
  20
-46.30
  30
0.00
  0
VERTEX
  8
L_wall
  10
-236.93
  20
-52.68
  30
0.00
  0
VERTEX
  8
L_wall
  10
-236.18
  20
-59.32
  30
0.00
  0
VERTEX
  8
L_wall
  10
-234.49
  20
-65.37
  30
0.00
  0
VERTEX
  8
L_wall
  10
-232.86
  20
-71.06
  30
0.00
  0
VERTEX
  8
L_wall
  10
-230.84
  20
-76.87
  30
0.00
  0
VERTEX
  8
L_wall
  10
-228.95
  20
-82.49
  30
0.00
  0
VERTEX
  8
L_wall
  10
-226.95
  20
-90.12
  30
0.00
  0
VERTEX
  8
L_wall
  10
-226.11
  20
-96.16
  30
0.00
  0
VERTEX
  8
L_wall
  10
-225.02
  20
-102.27
  30
0.00
  0
VERTEX
  8
L_wall
  10
-224.01
  20
-108.93
  30
0.00
  0
VERTEX
  8
L_wall
  10
-222.90
  20
-114.81
  30
0.00
  0
VERTEX
  8
L_wall
  10
-221.14
  20
-123.54
  30
0.00
  0
VERTEX
  8
L_wall
  10
-221.24
  20
-129.73
  30
0.00
  0
VERTEX
  8
L_wall
  10
-222.07
  20
-136.19
  30
0.00
  0
VERTEX
  8
L_wall
  10
-222.35
  20
-141.79
  30
0.00
  0
VERTEX
  8
L_wall
  10
-222.35
  20
-148.81
  30
0.00
  0
VERTEX
  8
L_wall
  10
-219.58
  20
-154.12
  30
0.00
  0
VERTEX
  8
L_wall
  10
-215.43
  20
-159.24
  30
0.00
  0
VERTEX
  8
L_wall
  10
-215.16
  20
-165.06
  30
0.00
  0
SEQEND
  0
HATCH
  8
A_water
  210
0.00
  220
0.00
  230
1.00
  70
1
  71
1
  91
1
  92
3
  93
16
  72
0
  73
1
  10
-263.57
  20
-82.16
  10
-259.46
  20
-77.59
  10
-255.79
  20
-72.10
  10
-254.31
  20
-64.88
  10
-255.18
  20
-57.41
  10
-260.05
  20
-52.83
  10
-267.29
  20
-50.88
  10
-275.74
  20
-52.11
  10
-282.85
  20
-55.97
  10
-286.51
  20
-61.77
  10
-286.81
  20
-68.38
  10
-283.51
  20
-74.82
  10
-276.18
  20
-80.76
  10
-269.38
  20
-85.48
  10
-262.33
  20
-89.77
  10
-257.88
  20
-87.57
  0
POLYLINE
  8
L_pit
  66
1
  70
0
  0
VERTEX
  8
L_pit
  10
-229.27
  20
-154.40
  30
0.00
  0
VERTEX
  8
L_pit
  10
-232.45
  20
-147.48
  30
0.00
  0
VERTEX
  8
L_pit
  10
-237.00
  20
-139.55
  30
0.00
  0
VERTEX
  8
L_pit
  10
-240.01
  20
-132.98
  30
0.00
  0
VERTEX
  8
L_pit
  10
-244.88
  20
-125.96
  30
0.00
  0
VERTEX
  8
L_pit
  10
-248.90
  20
-120.64
  30
0.00
  0
VERTEX
  8
L_pit
  10
-253.61
  20
-115.38
  30
0.00
  0
VERTEX
  8
L_pit
  10
-259.01
  20
-112.00
  30
0.00
  0
VERTEX
  8
L_pit
  10
-264.79
  20
-111.22
  30
0.00
  0
VERTEX
  8
L_pit
  10
-268.66
  20
-115.31
  30
0.00
  0
VERTEX
  8
L_pit
  10
-268.26
  20
-121.51
  30
0.00
  0
VERTEX
  8
L_pit
  10
-266.67
  20
-128.27
  30
0.00
  0
VERTEX
  8
L_pit
  10
-264.12
  20
-134.61
  30
0.00
  0
VERTEX
  8
L_pit
  10
-262.65
  20
-142.11
  30
0.00
  0
SEQEND
  0
POLYLINE
  8
L_u-user
  66
1
  70
0
  0
VERTEX
  8
L_u-user
  10
-265.22
  20
-144.94
  30
0.00
  0
VERTEX
  8
L_u-user
  10
-260.95
  20
-153.87
  30
0.00
  0
VERTEX
  8
L_u-user
  10
-257.24
  20
-162.19
  30
0.00
  0
VERTEX
  8
L_u-user
  10
-252.70
  20
-172.31
  30
0.00
  0
VERTEX
  8
L_u-user
  10
-247.60
  20
-179.62
  30
0.00
  0
VERTEX
  8
L_u-user
  10
-239.66
  20
-187.95
  30
0.00
  0
VERTEX
  8
L_u-user
  10
-229.05
  20
-195.48
  30
0.00
  0
VERTEX
  8
L_u-user
  10
-219.59
  20
-198.78
  30
0.00
  0
VERTEX
  8
L_u-user
  10
-211.97
  20
-204.42
  30
0.00
  0
VERTEX
  8
L_u-user
  10
-202.95
  20
-209.22
  30
0.00
  0
VERTEX
  8
L_u-user
  10
-195.16
  20
-212.75
  30
0.00
  0
VERTEX
  8
L_u-user
  10
-187.18
  20
-215.08
  30
0.00
  0
VERTEX
  8
L_u-user
  10
-179.60
  20
-216.60
  30
0.00
  0
VERTEX
  8
L_u-user
  10
-171.10
  20
-216.43
  30
0.00
  0
VERTEX
  8
L_u-user
  10
-162.11
  20
-213.41
  30
0.00
  0
VERTEX
  8
L_u-user
  10
-151.54
  20
-210.62
  30
0.00
  0
VERTEX
  8
L_u-user
  10
-140.83
  20
-208.19
  30
0.00
  0
VERTEX
  8
L_u-user
  10
-132.00
  20
-206.94
  30
0.00
  0
VERTEX
  8
L_u-user
  10
-123.54
  20
-208.88
  30
0.00
  0
SEQEND
  0
POLYLINE
  8
L_u-user
  66
1
  70
0
  0
VERTEX
  8
L_u-user
  10
-216.70
  20
-163.52
  30
0.00
  0
VERTEX
  8
L_u-user
  10
-207.58
  20
-165.82
  30
0.00
  0
VERTEX
  8
L_u-user
  10
-198.78
  20
-165.01
  30
0.00
  0
VERTEX
  8
L_u-user
  10
-189.53
  20
-163.52
  30
0.00
  0
VERTEX
  8
L_u-user
  10
-180.17
  20
-160.63
  30
0.00
  0
VERTEX
  8
L_u-user
  10
-171.36
  20
-158.52
  30
0.00
  0
VERTEX
  8
L_u-user
  10
-162.10
  20
-159.28
  30
0.00
  0
VERTEX
  8
L_u-user
  10
-153.58
  20
-160.05
  30
0.00
  0
VERTEX
  8
L_u-user
  10
-144.61
  20
-158.90
  30
0.00
  0
VERTEX
  8
L_u-user
  10
-137.15
  20
-156.42
  30
0.00
  0
VERTEX
  8
L_u-user
  10
-129.62
  20
-152.75
  30
0.00
  0
VERTEX
  8
L_u-user
  10
-121.05
  20
-153.34
  30
0.00
  0
VERTEX
  8
L_u-user
  10
-119.43
  20
-160.44
  30
0.00
  0
SEQEND
  0
POLYLINE
  8
L_pit
  66
1
  70
0
  0
VERTEX
  8
L_pit
  10
-186.32
  20
-162.36
  30
0.00
  0
VERTEX
  8
L_pit
  10
-193.07
  20
-167.19
  30
0.00
  0
VERTEX
  8
L_pit
  10
-198.43
  20
-175.06
  30
0.00
  0
VERTEX
  8
L_pit
  10
-200.93
  20
-183.64
  30
0.00
  0
VERTEX
  8
L_pit
  10
-202.09
  20
-192.56
  30
0.00
  0
VERTEX
  8
L_pit
  10
-199.97
  20
-200.83
  30
0.00
  0
VERTEX
  8
L_pit
  10
-195.94
  20
-209.29
  30
0.00
  0
VERTEX
  8
L_pit
  10
-193.63
  20
-214.71
  30
0.00
  0
SEQEND
  0
INSERT
  8
POINT
  2
P_water-flow
  41
10.00
  42
10.00
  50
232.00
  10
-204.01
  20
-187.36
  30
0.00
  0
INSERT
  8
POINT
  2
P_water-flow
  41
10.00
  42
10.00
  50
232.00
  10
-221.45
  20
-175.58
  30
0.00
  0
ENDSEC
  0
EOF
