<?xml version="1.0" encoding="utf-8"?>
<!DOCTYPE svg PUBLIC "-//W3C//DTD SVG 1.1//EN" "http://www.w3.org/Graphics/SVG/1.1/DTD/svg11.dtd">
<svg version="1.1" id="Layer_1" xmlns="http://www.w3.org/2000/svg" xmlns:xlink="http://www.w3.org/1999/xlink" x="0px" y="0px" width="54mm" height="83mm" viewBox="0 0 54 83" style="background-color:#ffffff;enable-background:new 0 0 54 83;" xml:space="preserve">
<symbol id="airflow" viewBox="-12 -12 24 24">
<path d="M-4.38,10.73l4.2-3.84V3.55L-4.07,7.13l-.31-.29L-.18,3V-6.89a3.37,3.37,0,0,0-1.68.53l1.68-4.15L0-11l.21.51h0v0l1.65,4.1A3.26,3.26,0,0,0,.24-6.89v14l-.08,0L-4.07,11Z"/>
<rect fill="none" x="-12" y="-12" width="24" height="24"/>
</symbol>
<symbol id="anastomosis" viewBox="-12 -12 24 24">
<path d="M2.23-4.78l.37.24L5.22-2.78l-.47.57L2.49-3.7l-4.61,8-.24.44-.37-.34L-5.22,2.3l.55-.52,2.1,1.82L2-4.39Z"/>
<rect fill="none" x="-12" y="-12" width="24" height="24"/>
</symbol>
<symbol id="bivouac" viewBox="-12 -12 24 24">
<path d="M.25-7.66l.24.58L.54-7l3.88.48-3.31.91L6,6H8.35v.48l-16.7.07V6.05h2.64L0-7.08Zm0,1.32L-5.13,6H-4l2.07-5L.2-4l2.09,5L4.37,6H5.44Z"/>
<rect fill="none" x="-12" y="-12" width="24" height="24"/>
</symbol>
<symbol id="bones" viewBox="-12 -12 24 24">
<path d="M2.44,4.27l-.16,0H2.13a.22.22,0,0,1-.11,0l-.1-.06a.39.39,0,0,1-.09-.11l-.08-.13a1.51,1.51,0,0,1-.06-.15l-.07-.17s0-.11-.08-.19-.06-.16-.08-.21a4.75,4.75,0,0,0-.38-.71c-.18-.29-.43-.64-.74-1A11.15,11.15,0,0,0-.7.32,6.73,6.73,0,0,0-2-.64a4.12,4.12,0,0,0-1.44-.52A1.64,1.64,0,0,1-5-2.19.72.72,0,0,1-5-2.44a1,1,0,0,1,0-.29A.52.52,0,0,1-4.87-3a.54.54,0,0,1,.35-.15L-4-3.22l.46,0a.54.54,0,0,0,.27-.06A.52.52,0,0,0-3-3.56a.74.74,0,0,0,.13-.31.54.54,0,0,1,.15-.26.54.54,0,0,1,.3-.15.83.83,0,0,1,.47,0,1.11,1.11,0,0,1,.35.4A7.46,7.46,0,0,1-1-2.76q.18.42.33.72a3.22,3.22,0,0,0,.39.57L.1-1a4.77,4.77,0,0,0,.58.43c.28.18.51.33.69.43l1,.56a1.84,1.84,0,0,0,.39.23A5.29,5.29,0,0,1,3.22.9l.43.26a3.7,3.7,0,0,1,.46.3l.36.29a2.28,2.28,0,0,1,.31.32A1,1,0,0,1,5,2.4c.2.48,0,.78-.47.91h0a8.48,8.48,0,0,0-1.12.09,1,1,0,0,0-.42.44A1,1,0,0,1,2.44,4.27Z"/>
<rect fill="none" x="-12" y="-12" width="24" height="24"/>
</symbol>
<symbol id="calcite" viewBox="-12 -12 24 24">
<path d="M2.36-2.22l.05.46.34,3.91L2,2.22,1.65-1.26-2.52-.06l-.23-.7L1.89-2.08Z"/>
<rect fill="none" x="-12" y="-12" width="24" height="24"/>
</symbol>
<symbol id="cauliflower" viewBox="-12 -12 24 24">
<path d="M5.58,3.22v-3A2.12,2.12,0,0,0,6.92-.43a1.78,1.78,0,0,0,.55-1.32,1.92,1.92,0,0,0-.65-1.42,2.19,2.19,0,0,0-1.53-.59,2.21,2.21,0,0,0-1.54.59,1.78,1.78,0,0,0-.64,1.42A1.86,1.86,0,0,0,3.65-.43,2.12,2.12,0,0,0,5,.23v3H.26v-3A2.17,2.17,0,0,0,1.61-.43a1.81,1.81,0,0,0,.54-1.32,1.91,1.91,0,0,0-.64-1.42A2.21,2.21,0,0,0,0-3.76a2.21,2.21,0,0,0-1.54.59,1.82,1.82,0,0,0-.64,1.42A1.83,1.83,0,0,0-1.66-.43,2.12,2.12,0,0,0-.32.23v3H-5v-3A2.12,2.12,0,0,0-3.71-.43a1.78,1.78,0,0,0,.55-1.32,1.92,1.92,0,0,0-.65-1.42,2.19,2.19,0,0,0-1.53-.59,2.21,2.21,0,0,0-1.54.59,1.83,1.83,0,0,0-.65,1.42A1.87,1.87,0,0,0-7-.43,2.12,2.12,0,0,0-5.64.23v3H-8v.54H8V3.22Z"/>
<rect fill="none" x="-12" y="-12" width="24" height="24"/>
</symbol>
<symbol id="clay" viewBox="-12 -12 24 24">
<path d="M1.85-1.33a3,3,0,0,1,1.67.48,3.23,3.23,0,0,1,1,1l.29.51-1,.43a3.81,3.81,0,0,0-.23-.4A3.74,3.74,0,0,0,2.93,0,1.77,1.77,0,0,0,1.85-.32a2.57,2.57,0,0,0-1.1.15A.86.86,0,0,0,.51.14,2.23,2.23,0,0,1,0,.88a2.55,2.55,0,0,1-1.45.43,3.16,3.16,0,0,1-2.75-1,4.28,4.28,0,0,1-.37-.57,3.91,3.91,0,0,1-.21-.47l0-.16,1-.22a1.87,1.87,0,0,0,.45.79A2.12,2.12,0,0,0-1.51.33,1.82,1.82,0,0,0-.69.14l.21-.36A1.53,1.53,0,0,1,.17-1,3.76,3.76,0,0,1,1.85-1.33Z"/>
<rect fill="none" x="-12" y="-12" width="24" height="24"/>
</symbol>
<symbol id="crystals" viewBox="-12 -12 24 24">
<path d="M-2.94-5.38,0-.72,2.94-5.38,3.62-5,.68-.36H6.56V.36H.68L3.62,5l-.68.36L0,.72-2.94,5.38-3.62,5-.68.36H-6.56V-.36H-.68L-3.62-5Z"/>
<rect fill="none" x="-12" y="-12" width="24" height="24"/>
</symbol>
<symbol id="curtain" viewBox="-12 -12 24 24">
<path d="M3.57-6.69l.52.53L.39-3V-.33L.1-.26a3.79,3.79,0,0,0-1,.41c-.58.3-.87.65-.87,1v.07A1.61,1.61,0,0,0-.84,2.48a3.69,3.69,0,0,0,.45.24L0,2.86l.13.05L.39,3V6.12H-.39V3.51a7.65,7.65,0,0,1-.9-.46A2.19,2.19,0,0,1-2.54,1.28V1.23A2,2,0,0,1-1.31-.48,5.32,5.32,0,0,1-.39-.86V-3l-3.7-3.14.52-.53L0-3.67Z"/>
<rect fill="none" x="-12" y="-12" width="24" height="24"/>
</symbol>
<symbol id="disk" viewBox="-12 -12 24 24">
<path d="M-.09-4.19a2.43,2.43,0,0,1,1.7.64A2,2,0,0,1,2.35-2,2.09,2.09,0,0,1,1.81-.55,2.44,2.44,0,0,1,.35.23l2.18,3.6-.68.33L0,1.14-1.48,4.19l-.71-.29L-.41.25A2.53,2.53,0,0,1-1.9-.47a2,2,0,0,1-.63-1.41,2,2,0,0,1,.67-1.61,2.46,2.46,0,0,1,1.72-.7ZM1.05-3.06.56-3.49l-.69,0A1.72,1.72,0,0,0-1.29-3a1.51,1.51,0,0,0-.45,1.08,1.36,1.36,0,0,0,.51,1A1.68,1.68,0,0,0-.07-.44v0l0,0A1.7,1.7,0,0,0,1.11-.92,1.36,1.36,0,0,0,1.56-2,1.47,1.47,0,0,0,1.05-3.06Z"/>
<rect fill="none" x="-12" y="-12" width="24" height="24"/>
</symbol>
<symbol id="entrance" viewBox="-12 -12 24 24">
<path d="M4.46,9H-4.46L0-9Z"/>
<rect fill="none" x="-12" y="-12" width="24" height="24"/>
</symbol>
<symbol id="flowstone" viewBox="-12 -12 24 24">
<rect x="-6" y="-0.21" width="12" height="0.42"/>
<rect fill="none" x="-12" y="-12" width="24" height="24"/>
</symbol>
<symbol id="flutes" viewBox="-12 -12 24 24">
<path d="M-7-1H7v.72H3.87A4.7,4.7,0,0,1,2.16,1.5,4.2,4.2,0,0,1,0,2.13,3.94,3.94,0,0,1-2.19,1.5,4.18,4.18,0,0,1-3.76-.27H-7Zm4.17.72A3.15,3.15,0,0,0-1.65,1,3.21,3.21,0,0,0,0,1.41,3.49,3.49,0,0,0,1.6,1,3.68,3.68,0,0,0,3-.27Z"/>
<rect fill="none" x="-12" y="-12" width="24" height="24"/>
</symbol>
<symbol id="gradient" viewBox="-12 -12 24 24">
<path d="M2.58-3.83,0-10-2.58-3.83A4.74,4.74,0,0,1-.17-4.5V10H.25V-4.5A6.65,6.65,0,0,1,2.58-3.83Z"/>
<rect fill="none" x="-12" y="-12" width="24" height="24"/>
</symbol>
<symbol id="guano" viewBox="-12 -12 24 24">
<path d="M-3.24-3a2.15,2.15,0,0,1,1.57.55A3.93,3.93,0,0,1-.59.24a4.32,4.32,0,0,1,2.75-2.3,2.68,2.68,0,0,1,2.23.36A2.36,2.36,0,0,1,5.5.19l-.79,0a1.72,1.72,0,0,0-.79-1.37,1.94,1.94,0,0,0-1.55-.24A3.53,3.53,0,0,0,.48,0,6.63,6.63,0,0,0-.69,3l-.79-.09a10.72,10.72,0,0,0,0-3.16A3.21,3.21,0,0,0-2.22-2,1.44,1.44,0,0,0-3.37-2.3,3.45,3.45,0,0,0-5-1.54l-.5-.55a4.29,4.29,0,0,1,2-.91A.9.9,0,0,1-3.24-3Z"/>
<rect fill="none" x="-12" y="-12" width="24" height="24"/>
</symbol>
<symbol id="helictites" viewBox="-12 -12 24 24">
<path d="M-4.59-7.92h.79v7.7l3.41,0V-7.92H.39V-.17L4.2-.12h.39v8H3.8V.6L.39.55V7.92H-.39V.55L-4.2.5l-.39,0v-8.4Z"/>
<rect fill="none" x="-12" y="-12" width="24" height="24"/>
</symbol>
<symbol id="human" viewBox="-12 -12 24 24">
<path d="M-3.59-3.29A5.13,5.13,0,0,1,0-4.66,5.13,5.13,0,0,1,3.59-3.29,4.3,4.3,0,0,1,5.09,0a4.3,4.3,0,0,1-1.5,3.29A5.13,5.13,0,0,1,0,4.66,5.13,5.13,0,0,1-3.59,3.29,4.3,4.3,0,0,1-5.09,0,4.3,4.3,0,0,1-3.59-3.29Zm.28.77A3.68,3.68,0,0,0-4.3,0a3.62,3.62,0,0,0,1,2.57L-.5.05ZM0-3.94A4.42,4.42,0,0,0-2.75-3L.16-.36H4.28A3.62,3.62,0,0,0,2.91-2.9,4.38,4.38,0,0,0,0-3.94ZM.16.46-2.7,3.07A4.42,4.42,0,0,0,0,3.94a4.37,4.37,0,0,0,2.87-1A3.78,3.78,0,0,0,4.28.46Z"/>
<rect fill="none" x="-12" y="-12" width="24" height="24"/>
</symbol>
<symbol id="karren" viewBox="-12 -12 24 24">
<path d="M1-5.84h0a1.37,1.37,0,0,1,1.06.68A3.33,3.33,0,0,1,2.5-3.79,25.79,25.79,0,0,1,2.36,0a18.61,18.61,0,0,0-.08,3.72,2.68,2.68,0,0,0,.41,1.2,1.13,1.13,0,0,0,.79.5A.92.92,0,0,0,4,4.94a4.43,4.43,0,0,0,.47-1.22c.16-.64.36-1.86.59-3.66a26.71,26.71,0,0,1,.64-3.69,4.62,4.62,0,0,1,.57-1.29,1.34,1.34,0,0,1,1-.59h0A1.28,1.28,0,0,1,8.37-5a2.17,2.17,0,0,1,.39,1.15A19.91,19.91,0,0,1,8.54-.53a21.51,21.51,0,0,0-.2,3.64A2.64,2.64,0,0,0,9.45,5.36,1.91,1.91,0,0,0,10.88,5a3.84,3.84,0,0,0,.7-1l.42.2-.1.18-.12.21-.11.18L11.52,5a.94.94,0,0,1-.14.16c-.06.07-.13.12-.19.18a2.5,2.5,0,0,1-1.85.41H9.29l0,0A3.06,3.06,0,0,1,7.87,3.13a22.11,22.11,0,0,1,.2-3.7,18.17,18.17,0,0,0,.22-3.28A1.85,1.85,0,0,0,8-4.79a.77.77,0,0,0-.67-.3.93.93,0,0,0-.64.42,4.51,4.51,0,0,0-.51,1.15A26.26,26.26,0,0,0,5.54.1c-.24,1.83-.45,3.07-.61,3.72a5.38,5.38,0,0,1-.51,1.34,1.33,1.33,0,0,1-.89.68H3.47A1.58,1.58,0,0,1,2.3,5.16a3.29,3.29,0,0,1-.49-1.4A20.27,20.27,0,0,1,1.89,0,23.45,23.45,0,0,0,2-3.75a2.94,2.94,0,0,0-.32-1.19A.93.93,0,0,0,1-5.42,1.1,1.1,0,0,0,.19-5,3.69,3.69,0,0,0-.43-3.76,20.78,20.78,0,0,0-1.07.07c-.2,2-.37,3.32-.49,3.86A4.48,4.48,0,0,1-2,5.26,1.06,1.06,0,0,1-3,5.81h0a1.9,1.9,0,0,1-1.29-.67,2.7,2.7,0,0,1-.58-1.31,14.92,14.92,0,0,1,0-3.6q0-.12.06-.54c0-.28,0-.47,0-.57s0-.28,0-.52,0-.42,0-.55,0-.28,0-.47,0-.36,0-.51,0-.29,0-.43A3.09,3.09,0,0,0-5-4.62a1.19,1.19,0,0,0-.67-.6,1.5,1.5,0,0,0-1.2.9A7,7,0,0,0-7.41-2.1c0,.39-.1,1-.14,1.76s-.11,1.47-.18,2.08A9.61,9.61,0,0,1-8,3.32h0l0,0A2.81,2.81,0,0,1-9.2,4.62a1.82,1.82,0,0,1-1.35.15A1.94,1.94,0,0,1-11.61,4,2.39,2.39,0,0,1-12,2.56l.47,0a1.92,1.92,0,0,0,.31,1.16,1.47,1.47,0,0,0,.81.62,1.3,1.3,0,0,0,1-.11A2.32,2.32,0,0,0-8.5,3.18a7.53,7.53,0,0,0,.29-1.5Q-8.1.8-8-.36c0-.78.1-1.37.16-1.78A7.23,7.23,0,0,1-7.28-4.5,1.93,1.93,0,0,1-5.65-5.66h.05l0,0a1.59,1.59,0,0,1,1,.84,3.47,3.47,0,0,1,.34,1.41,4.91,4.91,0,0,1,0,.57v.54c0,.15,0,.37,0,.66s0,.47,0,.58,0,.33-.06.68,0,.56-.06.63a14.78,14.78,0,0,0,0,3.49,2.58,2.58,0,0,0,.5,1.13,1.57,1.57,0,0,0,1,.5A.61.61,0,0,0-2.44,5,3.89,3.89,0,0,0-2,3.85C-1.9,3.31-1.74,2-1.53,0A20.65,20.65,0,0,1-.86-3.89,3.89,3.89,0,0,1-.18-5.26,1.58,1.58,0,0,1,1-5.84Z"/>
<rect fill="none" x="-12" y="-12" width="24" height="24"/>
</symbol>
<symbol id="moonmilk" viewBox="-12 -12 24 24">
<path d="M-4.78-3.06a3.39,3.39,0,0,1,1.5.34,2.48,2.48,0,0,1,1.1,1,3.74,3.74,0,0,1,1.62-.8,3.52,3.52,0,0,1,1.71,0,2.9,2.9,0,0,1,1.39.77A2.49,2.49,0,0,1,3.25-.37,4,4,0,0,1,5-.76a3.58,3.58,0,0,1,1.6.36A2.84,2.84,0,0,1,7.88.92a2.32,2.32,0,0,1,0,1.88.34.34,0,0,1-.37.26A.36.36,0,0,1,7.25,3a.32.32,0,0,1-.12-.25.21.21,0,0,1,0-.12,2,2,0,0,0,0-1.43,2,2,0,0,0-1-.9A2.81,2.81,0,0,0,4.68,0,2.78,2.78,0,0,0,3.12.56L2.46.25A1.7,1.7,0,0,0,2.15-1.1,2.15,2.15,0,0,0,1-1.81a2.85,2.85,0,0,0-1.58.06A3,3,0,0,0-2-.83l-.71-.12A1.74,1.74,0,0,0-3.55-2a2.36,2.36,0,0,0-1.39-.27,3.08,3.08,0,0,0-1.45.53A2.33,2.33,0,0,0-7.32-.56a.35.35,0,0,1-.37.24A.39.39,0,0,1-8-.42a.33.33,0,0,1-.1-.26v-.1A3,3,0,0,1-6.89-2.35,4,4,0,0,1-5-3Z"/>
<rect fill="none" x="-12" y="-12" width="24" height="24"/>
</symbol>
<symbol id="narrow" viewBox="-12 -12 24 24">
<path d="M-1.5,5V-5h0.64V5H-1.5z"/>
<path d="M0.86,5V-5H1.5V5H0.86z"/>
<rect fill="none" x="-12" y="-12" width="24" height="24"/>
</symbol>
<symbol id="paleoflow" viewBox="-12 -12 24 24">
<path d="M.38-12V.17A1.9,1.9,0,0,0,1,0,1.57,1.57,0,0,0,1.7-.72a1.86,1.86,0,0,0,.23-1c0-.09,0-.14.08-.16a.92.92,0,0,1,.24,0,.52.52,0,0,0,.25,0h.08A2.48,2.48,0,0,1,2,0,2.5,2.5,0,0,1,.38.77V7.21H2.09L0,12-1.8,7.23c.07,0,.59,0,1.53,0V.77A3,3,0,0,1-1.35.43a2.16,2.16,0,0,1-1-1,2.38,2.38,0,0,1-.24-1.33l.67,0a2,2,0,0,0,.15,1,1.73,1.73,0,0,0,.59.67A2.14,2.14,0,0,0-.27.16V-12Z"/>
<rect fill="none" x="-12" y="-12" width="24" height="24"/>
</symbol>
<symbol id="rain" viewBox="-12 -12 24 24">
<path d="M-4.14-6.34h0.71v4.69h-0.71V-6.34z"/>
<path d="M-0.35-6.34h0.71v4.69h-0.71V-6.34z"/>
<path d="M3.43-6.34h0.71v4.69H3.43V-6.34z"/>
<path d="M-4.14,1.65h0.71v4.69h-0.71V1.65z"/>
<path d="M-0.35,1.65h0.71v4.69h-0.71V1.65z"/>
<path d="M3.43,1.65h0.71v4.69H3.43V1.65z"/>
<rect fill="none" x="-12" y="-12" width="24" height="24"/>
</symbol>
<symbol id="rats" viewBox="-12 -12 24 24">
<path d="M8.78-2.32,7-2.27c-.51-.17-.65-.56-1.46-.45l-.25.45C3.59-2.75,2.59-3.66.56-3.62l-1.35.3A4.89,4.89,0,0,0-4.24,1.57c-.68.6-2.58.86-3.39.94a6.84,6.84,0,0,0-1.62.39,4.91,4.91,0,0,0-1,.52A1.75,1.75,0,0,0-11,4.61a1.16,1.16,0,0,0,.59,1.48,1.3,1.3,0,0,1,.14.12c.16-.52-.35-.92-.2-1.42a3.35,3.35,0,0,1,.27-.45,3.18,3.18,0,0,1,1.79-1c.63-.12,1.27-.22,1.91-.3.48-.07,1,0,1.4-.12A6.94,6.94,0,0,1-4,2.82,30.64,30.64,0,0,0,.41,2.69l2.16.15c.1-.09,0,0,.1-.15a.87.87,0,0,0-.9-.55c.86-1,2.27-.37,3.1-.05.5.19,1,0,1.25.4.11-.1.1-.07.15-.25.3,0,.31.07.6.15-.06-.49-.34-.64-1-.6a.78.78,0,0,1,0-.55C6.3.56,7.29.73,8.13.43a13.78,13.78,0,0,0,2.15-.9l.6-.85v-.2A16.9,16.9,0,0,0,8.78-2.32Z"/>
<rect fill="none" x="-12" y="-12" width="24" height="24"/>
</symbol>
<symbol id="sand" viewBox="-12 -12 24 24">
<path d="M-1.58,0.83c0.23,0.2,0.35,0.44,0.36,0.73c0.01,0.29-0.08,0.54-0.28,0.75c-0.2,0.21-0.46,0.32-0.78,0.33c-0.32,0.01-0.6-0.08-0.83-0.26C-3.36,2.19-3.49,1.95-3.5,1.67C-3.51,1.38-3.41,1.12-3.2,0.9c0.21-0.22,0.48-0.34,0.8-0.35C-2.08,0.54-1.81,0.64-1.58,0.83z"/>
<path d="M0.08-2.36c0.23,0.2,0.35,0.44,0.36,0.73c0.01,0.29-0.08,0.54-0.28,0.75c-0.2,0.21-0.46,0.32-0.78,0.33c-0.32,0.01-0.59-0.07-0.83-0.26s-0.37-0.42-0.38-0.71c-0.01-0.29,0.09-0.54,0.3-0.76c0.21-0.22,0.48-0.33,0.8-0.35C-0.42-2.65-0.14-2.56,0.08-2.36z"/>
<path d="M3.12,0.55c0.23,0.2,0.35,0.43,0.38,0.71c0.02,0.28-0.07,0.53-0.28,0.75C3,2.23,2.73,2.35,2.42,2.36C2.1,2.37,1.82,2.28,1.58,2.08C1.34,1.88,1.22,1.64,1.2,1.35c-0.01-0.29,0.09-0.54,0.3-0.75C1.72,0.4,1.99,0.29,2.3,0.28S2.89,0.36,3.12,0.55z"/>
<rect fill="none" x="-12" y="-12" width="24" height="24"/>
</symbol>
<symbol  id="scallops" viewBox="-12 -12 24 24">
<path d="M.05-3.74l.21,0A2.35,2.35,0,0,1,1.74-3a2,2,0,0,1,.59,1.55v0l0,0A9.59,9.59,0,0,1-.08,3.27l-.39.47-.27-.55A14.26,14.26,0,0,1-2.33-1.89v-.05l0-.05A2,2,0,0,1-1.44-3.3,2.42,2.42,0,0,1,.05-3.74ZM-.11-3A1.44,1.44,0,0,0-1.55-1.89,13.06,13.06,0,0,0-.29,2.33,8.6,8.6,0,0,0,1.55-1.54a1.41,1.41,0,0,0-.38-1A1.62,1.62,0,0,0,.18-3Z"/>
<rect fill="none" x="-12" y="-12" width="24" height="24"/>
</symbol>
<symbol  id="sink" viewBox="-12 -12 24 24">
<path d="M.72,9.41H.9c1.94,0,3.26-.54,3.94-1.51a3.61,3.61,0,0,0,.33-.69,2,2,0,0,0,.11-.54V6.46l.69,0a2.8,2.8,0,0,1-.58,1.78C4.58,9.39,3.1,10,.93,10H-.93q-3.25,0-4.46-1.8a2.74,2.74,0,0,1-.43-.83A2.37,2.37,0,0,1-6,6.67V6.43l.68,0A2.27,2.27,0,0,0-4.84,7.9c.68,1,2,1.47,3.93,1.48l.5,0ZM-1.46-10a.68.68,0,0,0,.16.41A2.77,2.77,0,0,0-.51-9l0,0a3.63,3.63,0,0,1,1,.7,1.15,1.15,0,0,1,.34.88c0,.58-.53,1.14-1.49,1.68-.68.42-1,.79-1,1.11s.3.61.84,1h0Q.61-2.86.46-1.78a3.51,3.51,0,0,1-1.55,2,.61.61,0,0,0-.26.41,1.67,1.67,0,0,0,.1.51,5.3,5.3,0,0,1,.32,1L.56,1.9.46,8.06-3.4,2.54l1.73-.28A6.16,6.16,0,0,0-2,1.39,1.7,1.7,0,0,1-2.09.58a1.21,1.21,0,0,1,.53-.82h0v0C-.75-.86-.33-1.38-.28-1.85s-.23-.87-.91-1.27h0C-2-3.6-2.37-4.1-2.4-4.61S-2-5.74-1.09-6.29C-.34-6.72.06-7.1.09-7.44a.67.67,0,0,0-.18-.43,3.17,3.17,0,0,0-.79-.58,2.93,2.93,0,0,1-1-.67A1.16,1.16,0,0,1-2.17-10Z"/>
<rect fill="none" x="-12" y="-12" width="24" height="24"/>
</symbol>
<symbol  id="spring" viewBox="-12 -12 24 24">
<path d="M-1.34-9.86,2.52-4.34.78-4.06a8,8,0,0,0,.29.87,1.4,1.4,0,0,1,.13.79,1.3,1.3,0,0,1-.52.84l0,0v0C-.13-.95-.55-.42-.61,0S-.37.91.31,1.3l0,0c.75.46,1.14,1,1.18,1.46S1.12,3.92.21,4.46C-.54,4.9-.94,5.29-1,5.64a.74.74,0,0,0,.18.43A3.2,3.2,0,0,0,0,6.62a3,3,0,0,1,1,.7,1.14,1.14,0,0,1,.31.86A1.74,1.74,0,0,1,.71,9.26H.92c1.92,0,3.22-.52,3.9-1.51a2.05,2.05,0,0,0,.35-.67,2.59,2.59,0,0,0,.1-.55l0-.19.65,0a2.84,2.84,0,0,1-.55,1.8C4.58,9.26,3.08,9.85.92,9.86H-.92c-2.17,0-3.66-.6-4.49-1.77a3.65,3.65,0,0,1-.4-.85A2.43,2.43,0,0,1-6,6.53V6.29l.66,0a2.08,2.08,0,0,0,.47,1.41c.68,1,2,1.5,3.91,1.51H-.4c.62-.43.94-.8,1-1.1a.76.76,0,0,0-.16-.43,3.25,3.25,0,0,0-.79-.51v0a3.8,3.8,0,0,1-1-.7,1.15,1.15,0,0,1-.34-.91q.06-.84,1.5-1.68c.68-.4,1-.77,1-1.1S.49,2.21,0,1.87c0,0,0,0,0,0C-1,1.32-1.44.69-1.34,0a3.58,3.58,0,0,1,1.55-2,.54.54,0,0,0,.23-.38A1.28,1.28,0,0,0,.37-3a4.57,4.57,0,0,1-.32-1l-1.49.24Z"/>
<rect fill="none" x="-12" y="-12" width="24" height="24"/>
</symbol>
<symbol  id="stalactite" viewBox="-12 -12 24 24">
<path d="M3.57-6.69l.52.53L.39-3V6.12H-.39V-3l-3.7-3.14.52-.53L0-3.67Z"/>
<rect fill="none" x="-12" y="-12" width="24" height="24"/>
</symbol>
<symbol  id="stalagmite" viewBox="-12 -12 24 24">
<path d="M.38-6.42V2.75L4.11,5.89l-.56.53L0,3.4l-3.57,3-.53-.53,3.7-3.14V-6.42Z"/>
<rect fill="none" x="-12" y="-12" width="24" height="24"/>
</symbol>
<symbol  id="stalagnate" viewBox="-12 -12 24 24">
<path d="M3.55-8.46l.56.53L.38-4.78v9L4.11,7.36l-.56.53L0,4.86l-3.57,3-.53-.53,3.7-3.14v-9l-3.7-3.15.53-.53L0-5.43Z"/>
<rect fill="none" x="-12" y="-12" width="24" height="24"/>
</symbol>
<symbol  id="straws" viewBox="-12 -12 24 24">
<path d="M-10.89-2.76H10.89V-2H9.63V.46H8.84V-2H8.29v5.6H7.5V-2H5.56V.7H4.77V-2H2.07V2.38H1.29V-2H-.1v3H-.89V-2H-3.2V4.11H-4V-2H-6.22L-6.16.75l-.79,0L-7-2H-8.32V2.33H-9.1V-2h-1.79Z"/>
<rect fill="none" x="-12" y="-12" width="24" height="24"/>
</symbol>
<symbol  id="water" viewBox="-12 -12 24 24">
<path d="M-1.72-9.86,2.11-4.32.38-4.06a6.49,6.49,0,0,0,.29.89,1.5,1.5,0,0,1,.13.79,1.2,1.2,0,0,1-.5.82h0l0,0C-.54-.94-1-.42-1,.05s.24.89.92,1.27h0c.77.48,1.17,1,1.19,1.49S.71,3.94-.2,4.49c-.75.43-1.13.81-1.15,1.15a.51.51,0,0,0,.18.43,2.66,2.66,0,0,0,.76.58,2.93,2.93,0,0,1,1,.67,1.16,1.16,0,0,1,.29.89C.84,8.75.42,9.3-.41,9.86l-.44-.55c.66-.45,1-.83,1-1.15A.47.47,0,0,0,0,7.75a2.84,2.84,0,0,0-.78-.53h0a3.87,3.87,0,0,1-1-.69,1.24,1.24,0,0,1-.34-.91c0-.58.54-1.14,1.52-1.68.66-.42,1-.79,1-1.11s-.3-.61-.84-1h0Q-1.9,1.06-1.74,0a3.44,3.44,0,0,1,1.54-2,.67.67,0,0,0,.27-.41A1.11,1.11,0,0,0,0-3a4.33,4.33,0,0,1-.31-1l-1.5.24Z"/>
<rect fill="none" x="-12" y="-12" width="24" height="24"/>
</symbol><symbol  id="tree" viewBox="-12 -12 24 24">
<path d="M7.4-5.04A4.271,4.271,0,0,0,7.7-6.627a4.3,4.3,0,0,0-4.3-4.3A4.279,4.279,0,0,0,.636-9.914,4.293,4.293,0,0,0-3.045-12a4.3,4.3,0,0,0-4.3,4.3,4.27,4.27,0,0,0,.421,1.845,4.3,4.3,0,0,0-3.645,4.244,4.3,4.3,0,0,0,4.3,4.3A4.282,4.282,0,0,0-3.946,2L-1.175,5.23h0L-1.612,12H.982L.757,6.376,4.119,2.827v0a4.272,4.272,0,0,0,2.15.58,4.3,4.3,0,0,0,4.3-4.3A4.3,4.3,0,0,0,7.4-5.04ZM-3.346,1.538h0A4.346,4.346,0,0,0-2.7.788a4.266,4.266,0,0,0,1.765.753l-.135,2.087ZM.69,4.7.563,1.544A4.258,4.258,0,0,0,2.321.805,4.3,4.3,0,0,0,3.378,2.279Z"/>
<rect fill="none" x="-12" y="-12" width="24" height="24"/>
</symbol><g>
<desc></desc>
<g>
<line fill="none" stroke="#dddddd" stroke-width="0.1mm" x1="0.00" y1="20.00" x2="54.00" y2="20.00" />
<text x="51.20" y="19.80" font-size=".2mm" fill="#000000">0m</text>
<line fill="none" stroke="#dddddd" stroke-width="0.1mm" x1="0.00" y1="40.00" x2="54.00" y2="40.00" />
<text x="51.20" y="39.80" font-size=".2mm" fill="#000000">-10m</text>
<line fill="none" stroke="#dddddd" stroke-width="0.1mm" x1="0.00" y1="60.00" x2="54.00" y2="60.00" />
<text x="51.20" y="59.80" font-size=".2mm" fill="#000000">-20m</text>
<line fill="none" stroke="#dddddd" stroke-width="0.1mm" x1="0.00" y1="80.00" x2="54.00" y2="80.00" />
<text x="51.20" y="79.80" font-size=".2mm" fill="#000000">-30m</text>
<line fill="none" stroke="#dddddd" stroke-width="0.1mm" x1="28.00" y1="0.00" x2="28.00" y2="83.00" />
<text x="28.40" y="2.00" font-size=".2mm" fill="#000000">0m</text>
<line fill="none" stroke="#dddddd" stroke-width="0.1mm" x1="8.00" y1="0.00" x2="8.00" y2="83.00" />
<text x="8.40" y="2.00" font-size=".2mm" fill="#000000">-10m</text>
<line fill="none" stroke="#dddddd" stroke-width="0.1mm" x1="48.00" y1="0.00" x2="48.00" y2="83.00" />
<text x="48.40" y="2.00" font-size=".2mm" fill="#000000">10m</text>
</g>
<g>
<path fill="none" stroke="#000000" stroke-width="0.06mm" d="M25.050049,26.291296 C25.00123,26.385693 24.942719,26.475677 24.903591,26.574484 C24.802332,26.830196 24.728218,27.096012 24.629704,27.352795 C24.581648,27.47805 24.49666,27.521885 24.43043,27.643541 C24.36576,27.762327 24.306087,27.885105 24.264448,28.013784 C23.999985,28.831057 23.775503,29.660877 23.512966,30.478773 C23.492462,30.542656 23.454823,30.600357 23.416504,30.65543 C23.328747,30.781551 23.2293,30.899124 23.135698,31.020971 L23.135698,31.020971" /><path fill="none" stroke="#000000" stroke-width="0.06mm" d="M23.245684,30.62262 C23.176136,30.751553 23.097563,30.87601 23.03704,31.00942 C22.951616,31.19772 22.908236,31.404957 22.808578,31.586124 C21.945679,33.154778 21.906113,33.166084 21.11136,34.282097 L21.11136,34.282097" /><path fill="none" stroke="#000000" stroke-width="0.06mm" d="M27.338951,26.713428 C27.289534,26.76719 27.23629,26.81767 27.1907,26.874714 C27.141787,26.935917 27.125038,27.005325 27.101595,27.07846 C26.975515,27.471796 26.82976,27.85945 26.724976,28.258986 C26.663986,28.491531 26.662298,28.736652 26.605446,28.970245 C26.473291,29.513226 26.307386,30.04743 26.158594,30.58609 C26.064505,30.926714 26.001116,31.277302 25.8768,31.608093 C24.501127,35.268646 25.644236,32.22 24.687672,34.049374 C24.518293,34.3733 24.400467,34.722046 24.239128,35.05005 C23.92197,35.69483 24.240572,34.914654 23.973272,35.41678 C23.871883,35.60724 23.763134,35.96421 23.584015,36.167786 C23.47054,36.296753 23.296711,36.380135 23.16745,36.47853 C23.0083,36.59967 22.854595,36.727882 22.701603,36.856712 C22.691568,36.865166 22.685566,36.87766 22.679596,36.88934 C22.64096,36.964893 22.605154,37.041862 22.567932,37.11812 L22.567932,37.11812" /><path fill="none" stroke="#000000" stroke-width="0.06mm" d="M27.139786,27.102861 C27.271067,26.592922 27.189522,26.782375 27.321115,26.511282 L27.321115,26.511282" /><path fill="none" stroke="#000000" stroke-width="0.06mm" d="M21.592922,33.684574 C21.51019,33.8264 21.306347,34.02204 21.296291,34.225742 C21.294958,34.252747 21.299429,34.279724 21.300999,34.306713 C21.310774,34.43919 21.338806,34.57158 21.330322,34.704147 C21.314167,34.956615 21.290451,35.211082 21.227442,35.4561 C21.127146,35.846107 20.939503,36.326256 20.707493,36.68291 C20.435099,37.101643 20.591455,36.744335 20.484142,37.0111 L20.484142,37.0111" /><path fill="none" stroke="#000000" stroke-width="0.06mm" d="M22.550098,37.008125 L22.476183,37.08879" /><path fill="none" stroke="#000000" stroke-width="0.06mm" d="M20.675297,36.74229 C20.640415,36.793488 20.602432,36.842712 20.57065,36.895897 C20.492374,37.026875 20.517193,37.369118 20.518547,37.431164 C20.53011,37.96086 20.565866,37.773148 20.653852,38.357117 C20.68562,38.567955 20.662176,38.694157 20.644497,38.90596 L20.644497,38.90596" /><path fill="none" stroke="#000000" stroke-width="0.06mm" d="M22.549837,37.00048 C22.394829,37.202637 22.388462,37.254017 22.346563,37.51248 C22.327978,37.627132 22.306313,37.74157 22.296394,37.857292 C22.289986,37.932068 22.304688,38.007713 22.29772,38.082443 C22.267094,38.41092 22.216827,38.737328 22.183743,39.065567 C22.179935,39.103333 22.183018,39.141647 22.18715,39.17938 C22.195019,39.251236 22.20884,39.32232 22.219683,39.39379 L22.219683,39.39379" /><path fill="none" stroke="#000000" stroke-width="0.06mm" d="M20.627373,38.877167 C20.889484,39.597454 20.762121,39.346115 20.93203,39.66562 L20.93203,39.66562" /><path fill="none" stroke="#000000" stroke-width="0.06mm" d="M20.759445,39.182396 L20.893612,39.23436" /><path fill="none" stroke="#000000" stroke-width="0.06mm" d="M22.316849,39.24664 C22.331694,39.483627 22.36681,39.500122 22.561712,39.68045 C22.636372,39.749523 22.744427,39.779823 22.827744,39.829742 C22.908548,39.87816 22.979292,39.9426 23.061644,39.988335 C23.558937,40.264496 22.960524,39.86166 23.582146,40.188988 C23.903444,40.358177 24.205236,40.562477 24.52419,40.736042 C24.586374,40.769882 24.786125,40.822838 24.876194,40.90174 C25.091787,41.090622 24.680206,40.766285 25.040215,41.102867 C25.142342,41.198353 25.254215,41.28312 25.36643,41.366516 C25.630596,41.562836 25.644817,41.49869 25.880093,41.782547 C26.25511,42.234993 26.239166,42.284233 26.474174,42.795914 L26.474174,42.795914" /><path fill="none" stroke="#000000" stroke-width="0.06mm" d="M20.777882,39.643375 C20.850384,39.84429 20.936699,40.04075 20.995386,40.246124 C21.05932,40.469864 21.092325,40.701324 21.14497,40.927982 C21.166075,41.018852 21.197323,41.10725 21.216595,41.198524 C21.249247,41.353176 21.273695,41.509453 21.300621,41.6652 C21.406487,42.277573 21.532228,42.886955 21.614967,43.502884 C21.969017,46.13848 21.63975,44.432236 21.75944,45.04757 L21.75944,45.04757" /><path fill="none" stroke="#000000" stroke-width="0.06mm" d="M40.433334,54.55741 L40.59874,54.400063" /><path fill="none" stroke="#000000" stroke-width="0.06mm" d="M26.120453,42.24611 L26.178347,42.170242" /><path fill="none" stroke="#000000" stroke-width="0.06mm" d="M34.11711,51.53366 L34.25848,51.439583" /><path fill="none" stroke="#000000" stroke-width="0.06mm" d="M22.205555,45.208897 C22.55507,45.68067 22.894485,46.160095 23.2541,46.624214 C23.732525,47.241673 23.238346,46.538105 23.531254,46.872673 C23.757689,47.131317 23.970512,47.401596 24.194092,47.662712 C24.286718,47.77089 24.399487,47.862778 24.479755,47.980415 C25.0727,48.84944 25.648718,49.730156 26.211294,50.61914 C26.399704,50.916862 26.43217,51.224583 26.566978,51.550858 C26.62732,51.696903 26.724194,51.82571 26.787575,51.97046 C27.077438,52.63243 26.834827,52.281292 27.044136,52.565407 L27.044136,52.565407" /><path fill="none" stroke="#000000" stroke-width="0.06mm" d="M21.685709,44.85768 C21.736162,44.88426 21.788485,44.90756 21.83707,44.937412 C21.919235,44.9879 21.9623,45.079483 22.04704,45.125267 C22.126448,45.168167 22.209864,45.16805 22.293829,45.1929 C22.394665,45.222755 22.433256,45.284046 22.513454,45.361984 L22.513454,45.361984" /><path fill="none" stroke="#000000" stroke-width="0.06mm" d="M29.620783,55.321014 C29.774511,55.442753 29.68843,55.38064 29.88249,55.50326 L29.88249,55.50326" /><path fill="none" stroke="#000000" stroke-width="0.06mm" d="M27.749454,54.228523 C27.866188,54.337467 28.018257,54.59625 28.216532,54.65409 C28.619116,54.77154 28.319204,54.663963 28.80678,54.759434 C29.058378,54.8087 29.304485,54.884594 29.556997,54.928944 C30.0792,55.02066 30.223553,55.00218 30.732101,55.00592 L30.732101,55.00592" /><path fill="none" stroke="#000000" stroke-width="0.06mm" d="M27.557713,54.07018 C27.551899,54.128036 27.530787,54.198254 27.557175,54.256214 C27.59135,54.331287 27.841026,54.4883 27.853662,54.43725 C27.863272,54.398422 27.792442,54.273457 27.790045,54.269386 C27.768156,54.23919 27.746267,54.208992 27.724377,54.178795 C27.717834,54.175663 27.701115,54.16313 27.70475,54.169407 C27.722687,54.200356 27.747465,54.22679 27.768824,54.255486 L27.768824,54.255486" /><path fill="none" stroke="#000000" stroke-width="0.06mm" d="M26.360754,42.87764 C27.366575,46.02334 27.627012,46.346146 28.087578,49.217552 C28.136833,49.524628 28.09022,49.841827 28.137344,50.14924 C28.20142,50.56723 28.34741,50.96937 28.419981,51.38597 C28.454975,51.586853 28.457415,51.79254 28.459124,51.996445 C28.46235,52.38121 28.39248,52.547134 28.448196,52.908947 C28.494808,53.211647 28.559706,53.46436 28.684347,53.73549 C28.703255,53.776623 28.748585,53.862946 28.79714,53.901657 C28.832432,53.929794 28.874826,53.9409 28.919285,53.941677 C29.396358,53.950012 29.64371,54.014393 30.039639,53.829468 L30.039639,53.829468" /><path fill="none" stroke="#000000" stroke-width="0.06mm" d="M29.90494,53.691124 C29.943113,53.731815 29.98342,53.79985 30.045189,53.81619 C30.074783,53.82402 30.105816,53.81915 30.13372,53.807663 C30.264338,53.7539 30.393108,53.71823 30.498354,53.62341 C30.578293,53.551388 30.647327,53.467834 30.727367,53.395927 C30.792751,53.33719 31.037132,53.237057 31.056183,53.22558 C31.116377,53.18932 31.166452,53.13844 31.221588,53.09487 L31.221588,53.09487" /><path fill="none" stroke="#000000" stroke-width="0.06mm" d="M26.93603,52.49771 C27.003206,52.67338 27.070385,52.849052 27.137564,53.024723 C27.275963,53.401173 27.409399,53.779488 27.552761,54.154076 C27.567513,54.19262 27.587423,54.229546 27.6115,54.26306 C27.65234,54.319916 27.701544,54.370262 27.746565,54.423862 L27.746565,54.423862" /><path fill="none" stroke="#000000" stroke-width="0.06mm" d="M26.44486,42.52339 C26.391207,42.630238 26.356695,42.669373 26.339624,42.773247 C26.335897,42.795933 26.341255,42.819756 26.335903,42.842113 C26.333088,42.853874 26.326546,42.878086 26.315895,42.872368 C26.303082,42.865486 26.310999,42.843502 26.311417,42.828964 C26.31332,42.76273 26.319035,42.696663 26.322844,42.630516 L26.322844,42.630516" /><path fill="none" stroke="#000000" stroke-width="0.06mm" d="M31.296429,53.41275 L31.277897,53.417557" /><path fill="none" stroke="#000000" stroke-width="0.06mm" d="M31.032215,53.192673 C31.037376,53.245174 31.039644,53.29804 31.047697,53.350174 C31.073013,53.514084 31.465094,53.65088 31.483282,53.659977 C31.544573,53.690643 31.63587,53.731503 31.71068,53.710022 C31.80589,53.682682 31.889324,53.5525 31.938349,53.49814 L31.938349,53.49814" /><path fill="none" stroke="#000000" stroke-width="0.06mm" d="M30.90501,54.927307 C30.922136,54.823418 31.69581,54.975025 31.849848,54.934765 C31.914013,54.917995 31.975204,54.89141 32.037884,54.86973 L32.037884,54.86973" /><path fill="none" stroke="#000000" stroke-width="0.06mm" d="M31.727951,48.541862 C31.59122,48.43429 31.393383,48.292885 31.209263,48.376194 C30.905111,48.513813 30.840126,49.062584 30.803677,49.305435 C30.778479,49.47332 30.718164,49.802605 30.845505,49.980804 C30.927979,50.096222 31.070425,50.1389 31.2016,50.17119 C31.325954,50.201797 31.456018,50.164032 31.561628,50.09658 C31.645472,50.043026 31.727018,49.96223 31.779778,49.879456 C31.840195,49.784668 31.888529,49.682648 31.939663,49.58255 C31.961494,49.539803 32.00066,49.403206 31.998552,49.451157 C31.99555,49.51947 31.8026,50.12664 32.034492,50.260414 C32.0995,50.297913 32.186462,50.278217 32.253757,50.275597 L32.253757,50.275597" /><path fill="none" stroke="#000000" stroke-width="0.06mm" d="M32.40744,48.133125 L32.37761,48.091927" /><path fill="none" stroke="#000000" stroke-width="0.06mm" d="M32.273098,48.135468 C32.249012,48.16045 32.229664,48.1911 32.200836,48.21042 C32.1917,48.216545 32.207554,48.189346 32.20898,48.17844 C32.21024,48.168808 32.2103,48.158905 32.208824,48.149307 C32.200863,48.097473 32.15176,48.070198 32.10804,48.051994 C32.013958,48.012825 31.953827,48.092304 31.924276,48.17124 C31.916086,48.193115 31.908375,48.225098 31.91364,48.24942 C31.930105,48.325516 32.01072,48.28089 32.04795,48.283554 C32.062214,48.28457 32.0167,48.287117 32.007626,48.298164 C31.995625,48.312767 31.996752,48.33437 31.991316,48.352478 L31.991316,48.352478" /><path fill="none" stroke="#000000" stroke-width="0.06mm" d="M32.87043,49.395477 C32.829292,49.423714 32.785652,49.4486 32.747025,49.48018 C32.59683,49.60296 32.50853,49.85894 32.515034,50.04773 C32.517376,50.11563 32.538918,50.195847 32.590054,50.244114 C32.65515,50.305565 32.77928,50.282867 32.80014,50.189484 C32.821697,50.092983 32.795876,49.98215 32.742504,49.899918 C32.721474,49.86752 32.698444,49.835945 32.671135,49.808624 C32.663074,49.800564 32.645836,49.7873 32.639153,49.79653 C32.625504,49.815384 32.665962,49.916256 32.667374,49.91922 C32.760838,50.115383 32.965843,50.31971 33.196846,50.324654 C33.23526,50.325478 33.27744,50.320198 33.310684,50.29907 C33.448727,50.21131 33.374405,49.813904 33.350517,49.70346 C33.338593,49.64832 33.314613,49.596493 33.296795,49.542965 C33.27671,49.482628 33.28619,49.437363 33.351612,49.414005 C33.423782,49.388237 33.50228,49.395134 33.575752,49.411327 C33.837463,49.469006 34.07139,49.755043 34.08466,50.02103 C34.09248,50.17779 34.04237,50.232315 33.97916,50.360977 L33.97916,50.360977" /><path fill="none" stroke="#000000" stroke-width="0.06mm" d="M34.51034,49.63564 C34.42392,49.088737 34.50885,49.68879 34.70389,50.16599 C34.74474,50.265926 34.66457,49.953636 34.64823,49.846916 C34.6391,49.787277 34.67036,49.758682 34.726048,49.78915 C34.84359,49.853462 34.992992,49.976837 35.143623,49.98774 C35.16952,49.989613 35.20064,49.984833 35.22518,49.976543 C35.251205,49.96776 35.275406,49.954544 35.29558,49.935688 C35.314896,49.91764 35.332542,49.891502 35.34149,49.86664 C35.348675,49.846672 35.35344,49.825863 35.357635,49.80506 C35.364662,49.770195 35.339603,49.697853 35.37512,49.69979 C35.41117,49.701767 35.38276,49.771805 35.391228,49.8069 C35.397896,49.83453 35.408367,49.861267 35.420307,49.887062 C35.43154,49.911324 35.445076,49.934635 35.460476,49.956497 C35.54727,50.079697 35.63077,49.812332 35.73417,49.932472 C35.748257,49.948837 35.763317,49.96525 35.77216,49.984955 C35.947285,50.375202 35.988598,50.443336 36.058304,50.824047 C36.076385,50.922806 36.082367,51.170204 35.96461,51.2314 C35.884335,51.273117 35.824207,50.98455 35.83359,50.92788 C35.868282,50.718437 35.905937,50.50878 35.96267,50.304207 C36.044136,50.010464 36.15259,49.724884 36.24755,49.435226 L36.24755,49.435226" /><path fill="none" stroke="#000000" stroke-width="0.06mm" d="M30.66993,52.165848 C30.659018,52.11392 30.643036,52.062798 30.637192,52.010056 C30.624949,51.89956 30.643822,51.769493 30.695509,51.670513 C30.756464,51.553787 30.92806,51.468853 31.041695,51.56366 C31.199043,51.694946 31.183004,51.90499 31.244484,52.081085 C31.252365,52.10366 31.247879,52.033382 31.249577,52.009533 C31.24012,51.841236 31.215727,51.67312 31.221207,51.504646 C31.221992,51.4805 31.25098,51.542774 31.2641,51.56306 C31.308966,51.63244 31.347816,51.705723 31.395073,51.7735 C31.400993,51.78199 31.411686,51.787178 31.421825,51.78927 C31.496416,51.804676 31.499063,51.647675 31.566746,51.665844 C31.598522,51.674377 31.634783,51.779633 31.64784,51.80049 C31.6603,51.820404 31.674692,51.83926 31.690891,51.856266 C31.848928,52.02218 32.021984,51.85227 32.023216,51.66496 C32.02009,51.582947 32.016964,51.50094 32.01384,51.418926 C32.01225,51.41327 32.00772,51.396248 32.00907,51.401962 C32.037724,51.523468 32.03944,51.557526 32.09948,51.67071 C32.119312,51.7081 32.14371,51.743042 32.16926,51.77678 C32.365253,52.035637 32.424866,51.496456 32.640846,51.591347 C32.728546,51.629883 32.808796,51.71356 32.8454,51.80242 C32.868824,51.85928 32.860214,51.875706 32.891373,51.916786 C32.945827,51.98858 33.028065,52.033836 33.109627,52.067944 C33.21233,52.110886 33.34967,52.13017 33.436386,52.043858 C33.47405,52.00637 33.50782,51.917847 33.57057,51.91616 C33.632755,51.914486 33.648113,51.998314 33.70605,52.00491 C33.730656,52.007713 33.744587,51.988766 33.755783,51.97071 C33.805527,51.89051 33.749275,51.80143 33.683617,51.752 C33.647614,51.72489 33.604218,51.70967 33.559753,51.722626 C33.545765,51.726707 33.494408,51.753185 33.48549,51.748207 C33.47414,51.741867 33.48342,51.72119 33.488766,51.709343 C33.662403,51.324326 33.631615,51.497963 33.735256,51.096657 C33.745506,51.05696 33.746784,50.99492 33.73806,50.951714 C33.736652,50.94474 33.708946,50.843838 33.683758,50.866875 C33.67361,50.876152 33.66995,50.891384 33.668003,50.905 C33.65986,50.962036 33.65431,51.019638 33.653717,51.077248 C33.652134,51.231815 33.738716,51.395798 33.804916,51.523357 C33.860786,51.63101 33.94743,51.75618 34.082638,51.76064 C34.12644,51.762085 34.171097,51.748215 34.20164,51.715584 C34.254707,51.65889 34.277702,51.580997 34.269913,51.50383 C34.26627,51.467743 34.26933,51.427155 34.249146,51.39702 C34.24098,51.384823 34.226067,51.417164 34.22113,51.430984 C34.21289,51.45404 34.212242,51.47928 34.211014,51.50373 C34.20858,51.552235 34.21785,51.601295 34.243507,51.64294 C34.296173,51.728416 34.379753,51.756477 34.471855,51.729195 C34.608074,51.688843 34.717396,51.73494 34.822998,51.8304 C34.843384,51.84883 34.861443,51.86982 34.878494,51.891373 C34.88745,51.9027 34.91882,51.980625 34.959877,51.980232 C34.983322,51.980003 35.0067,51.95397 35.01684,51.937622 C35.079277,51.83697 35.13087,51.72959 35.197296,51.63153 C35.223885,51.592285 35.26094,51.561203 35.294506,51.527725 C35.374508,51.44793 35.459618,51.37326 35.537914,51.29179 C35.64344,51.181984 35.743114,51.066704 35.845715,50.954163 L35.845715,50.954163" /><path fill="none" stroke="#000000" stroke-width="0.06mm" d="M31.80733,53.81121 C32.32563,55.062878 32.843933,56.314545 33.362232,57.56621 C33.532867,58.106106 33.670265,58.65765 33.87413,59.185894 C34.214096,60.066784 34.62598,60.91825 34.99183,61.78871 C35.00639,61.82336 35.009666,61.86189 35.014496,61.89916 C35.07109,62.336346 35.01594,62.05057 35.06053,62.269493 L35.06053,62.269493" /><path fill="none" stroke="#000000" stroke-width="0.06mm" d="M30.173733,55.015663 C30.69141,55.547104 30.206646,55.033092 31.202251,56.39883 C31.259787,56.477753 31.332443,56.545223 31.387121,56.626152 C31.902441,57.388866 32.641582,58.767445 32.960583,59.34791 C33.373108,60.098568 33.785423,60.84954 34.178974,61.610313 C34.23059,61.710094 34.271812,61.816864 34.294678,61.926853 C34.3094,61.997654 34.315166,62.43321 34.403244,62.627415 C34.466568,62.767036 34.55797,62.823265 34.67913,62.91452 L34.67913,62.91452" /><path fill="none" stroke="#000000" stroke-width="0.06mm" d="M35.58011,52.33843 C35.5894,52.438087 35.592407,52.538532 35.607994,52.637398 C35.64957,52.90114 35.725674,53.159687 35.751472,53.425434 C35.826714,54.20046 35.834686,54.797646 35.659637,55.551086 C35.57436,55.918133 35.427162,56.26806 35.3196,56.629204 C35.310444,56.65994 35.311333,56.69289 35.310017,56.72493 C35.305775,56.82822 35.312534,56.932056 35.30293,57.034985 C35.29685,57.10015 35.27593,57.16307 35.263138,57.227257 C35.251236,57.287003 35.236103,57.34628 35.228844,57.40676 C35.19124,57.720154 35.23437,57.65996 35.166252,57.866608 C35.02574,58.292862 35.16248,57.683617 34.982956,58.649014 C34.96742,58.732586 35.088287,58.750023 35.142475,58.741848 C35.166054,58.73829 35.33418,58.663914 35.26874,58.642525 C35.24711,58.635452 35.222942,58.64058 35.200493,58.64431 C35.139427,58.654453 35.07916,58.669094 35.01908,58.684002 C34.968315,58.696598 34.954655,58.71297 34.911705,58.710342 C34.80017,58.70352 34.71244,58.54078 34.67659,58.467064 C34.332634,57.759857 34.11466,57.741432 34.39204,57.77479 L34.39204,57.77479" /></g>
<g>
<line fill="none" stroke="#111111" stroke-width="0.05mm" x1="28.00" y1="20.00" x2="27.21" y2="26.87" />
<line fill="none" stroke="#00aeef" stroke-width="0.05mm" stroke-dasharray="0.4,0.2" opacity="0.98" x1="27.21" y1="26.87" x2="24.88" y2="26.71" />
<line fill="none" stroke="#5674b9" stroke-width="0.05mm" stroke-dasharray="0.4,0.2" opacity="0.46" x1="27.21" y1="26.87" x2="25.58" y2="26.26" />
<line fill="none" stroke="#00aeef" stroke-width="0.05mm" stroke-dasharray="0.4,0.2" opacity="0.32" x1="27.21" y1="26.87" x2="25.91" y2="27.28" />
<line fill="none" stroke="#111111" stroke-width="0.05mm" x1="27.21" y1="26.87" x2="22.65" y2="36.49" />
<line fill="none" stroke="#00aeef" stroke-width="0.05mm" stroke-dasharray="0.4,0.2" opacity="0.96" x1="22.65" y1="36.49" x2="21.27" y2="35.80" />
<line fill="none" stroke="#00aeef" stroke-width="0.05mm" stroke-dasharray="0.4,0.2" opacity="0.05" x1="22.65" y1="36.49" x2="22.51" y2="36.65" />
<line fill="none" stroke="#5674b9" stroke-width="0.05mm" stroke-dasharray="0.4,0.2" opacity="0.14" x1="22.65" y1="36.49" x2="22.04" y2="35.31" />
<line fill="none" stroke="#111111" stroke-width="0.05mm" x1="22.65" y1="36.49" x2="20.70" y2="38.65" />
<line fill="none" stroke="#00aeef" stroke-width="0.05mm" stroke-dasharray="0.4,0.2" opacity="0.24" x1="20.70" y1="38.65" x2="21.43" y2="38.44" />
<line fill="none" stroke="#5674b9" stroke-width="0.05mm" stroke-dasharray="0.4,0.2" opacity="0.26" x1="20.70" y1="38.65" x2="22.29" y2="37.74" />
<line fill="none" stroke="#5674b9" stroke-width="0.05mm" stroke-dasharray="0.4,0.2" opacity="0.90" x1="20.70" y1="38.65" x2="22.17" y2="38.87" />
<line fill="none" stroke="#111111" stroke-width="0.05mm" x1="20.70" y1="38.65" x2="25.95" y2="42.17" />
<line fill="none" stroke="#5674b9" stroke-width="0.05mm" stroke-dasharray="0.4,0.2" opacity="1.00" x1="25.95" y1="42.17" x2="21.55" y2="43.70" />
<line fill="none" stroke="#00aeef" stroke-width="0.05mm" stroke-dasharray="0.4,0.2" opacity="0.34" x1="25.95" y1="42.17" x2="20.63" y2="44.39" />
<line fill="none" stroke="#5674b9" stroke-width="0.05mm" stroke-dasharray="0.4,0.2" opacity="0.24" x1="25.95" y1="42.17" x2="24.83" y2="46.41" />
<line fill="none" stroke="#111111" stroke-width="0.05mm" x1="25.95" y1="42.17" x2="28.58" y2="53.94" />
<line fill="none" stroke="#5674b9" stroke-width="0.05mm" stroke-dasharray="0.4,0.2" opacity="0.97" x1="28.58" y1="53.94" x2="27.95" y2="53.98" />
<line fill="none" stroke="#00aeef" stroke-width="0.05mm" stroke-dasharray="0.4,0.2" opacity="0.29" x1="28.58" y1="53.94" x2="27.34" y2="53.57" />
<line fill="none" stroke="#5674b9" stroke-width="0.05mm" stroke-dasharray="0.4,0.2" opacity="0.08" x1="28.58" y1="53.94" x2="27.18" y2="53.46" />
<line fill="none" stroke="#111111" stroke-width="0.05mm" x1="28.58" y1="53.94" x2="30.57" y2="54.01" />
<line fill="none" stroke="#5674b9" stroke-width="0.05mm" stroke-dasharray="0.4,0.2" opacity="0.97" x1="30.57" y1="54.01" x2="29.43" y2="54.83" />
<line fill="none" stroke="#5674b9" stroke-width="0.05mm" stroke-dasharray="0.4,0.2" opacity="0.38" x1="30.57" y1="54.01" x2="29.62" y2="54.51" />
<line fill="none" stroke="#00aeef" stroke-width="0.05mm" stroke-dasharray="0.4,0.2" opacity="0.08" x1="30.57" y1="54.01" x2="30.07" y2="54.90" />
<line fill="none" stroke="#111111" stroke-width="0.05mm" x1="30.57" y1="54.01" x2="34.78" y2="61.91" />
<line fill="none" stroke="#00aeef" stroke-width="0.05mm" stroke-dasharray="0.4,0.2" opacity="0.84" x1="34.78" y1="61.91" x2="34.18" y2="62.25" />
<line fill="none" stroke="#5674b9" stroke-width="0.05mm" stroke-dasharray="0.4,0.2" opacity="0.18" x1="34.78" y1="61.91" x2="35.60" y2="62.08" />
<line fill="none" stroke="#00aeef" stroke-width="0.05mm" stroke-dasharray="0.4,0.2" opacity="0.10" x1="34.78" y1="61.91" x2="34.43" y2="63.03" />
</g>
<g>
<circle cx="28.00" cy="20.00" r="0.1" fill="#111111" />
<circle cx="27.21" cy="26.87" r="0.1" fill="#111111" />
<circle cx="22.65" cy="36.49" r="0.1" fill="#111111" />
<circle cx="20.70" cy="38.65" r="0.1" fill="#111111" />
<circle cx="25.95" cy="42.17" r="0.1" fill="#111111" />
<circle cx="28.58" cy="53.94" r="0.1" fill="#111111" />
<circle cx="30.57" cy="54.01" r="0.1" fill="#111111" />
<circle cx="34.78" cy="61.91" r="0.1" fill="#111111" />
</g>
<g>
<text x="28.20" y="20.00" font-size=".2mm" fill="#000000">0</text>
<text x="27.41" y="26.87" font-size=".2mm" fill="#000000">1</text>
<text x="22.85" y="36.49" font-size=".2mm" fill="#000000">2</text>
<text x="20.90" y="38.65" font-size=".2mm" fill="#000000">3</text>
<text x="26.15" y="42.17" font-size=".2mm" fill="#000000">4</text>
<text x="28.78" y="53.94" font-size=".2mm" fill="#000000">5</text>
<text x="30.77" y="54.01" font-size=".2mm" fill="#000000">6</text>
<text x="34.98" y="61.91" font-size=".2mm" fill="#000000">7</text>
</g>
<g>
</g>
</g>
</svg>