<?xml version="1.0" encoding="utf-8"?>
<!DOCTYPE svg PUBLIC "-//W3C//DTD SVG 1.1//EN" "http://www.w3.org/Graphics/SVG/1.1/DTD/svg11.dtd">
<svg version="1.1" id="Layer_1" xmlns="http://www.w3.org/2000/svg" xmlns:xlink="http://www.w3.org/1999/xlink" x="0px" y="0px" width="90mm" height="78mm" viewBox="0 0 90 78" style="background-color:#ffffff;enable-background:new 0 0 90 78;" xml:space="preserve">
<symbol id="airflow" viewBox="-12 -12 24 24">
<path d="M-4.38,10.73l4.2-3.84V3.55L-4.07,7.13l-.31-.29L-.18,3V-6.89a3.37,3.37,0,0,0-1.68.53l1.68-4.15L0-11l.21.51h0v0l1.65,4.1A3.26,3.26,0,0,0,.24-6.89v14l-.08,0L-4.07,11Z"/>
<rect fill="none" x="-12" y="-12" width="24" height="24"/>
</symbol>
<symbol id="anastomosis" viewBox="-12 -12 24 24">
<path d="M2.23-4.78l.37.24L5.22-2.78l-.47.57L2.49-3.7l-4.61,8-.24.44-.37-.34L-5.22,2.3l.55-.52,2.1,1.82L2-4.39Z"/>
<rect fill="none" x="-12" y="-12" width="24" height="24"/>
</symbol>
<symbol id="bivouac" viewBox="-12 -12 24 24">
<path d="M.25-7.66l.24.58L.54-7l3.88.48-3.31.91L6,6H8.35v.48l-16.7.07V6.05h2.64L0-7.08Zm0,1.32L-5.13,6H-4l2.07-5L.2-4l2.09,5L4.37,6H5.44Z"/>
<rect fill="none" x="-12" y="-12" width="24" height="24"/>
</symbol>
<symbol id="bones" viewBox="-12 -12 24 24">
<path d="M2.44,4.27l-.16,0H2.13a.22.22,0,0,1-.11,0l-.1-.06a.39.39,0,0,1-.09-.11l-.08-.13a1.51,1.51,0,0,1-.06-.15l-.07-.17s0-.11-.08-.19-.06-.16-.08-.21a4.75,4.75,0,0,0-.38-.71c-.18-.29-.43-.64-.74-1A11.15,11.15,0,0,0-.7.32,6.73,6.73,0,0,0-2-.64a4.12,4.12,0,0,0-1.44-.52A1.64,1.64,0,0,1-5-2.19.72.72,0,0,1-5-2.44a1,1,0,0,1,0-.29A.52.52,0,0,1-4.87-3a.54.54,0,0,1,.35-.15L-4-3.22l.46,0a.54.54,0,0,0,.27-.06A.52.52,0,0,0-3-3.56a.74.74,0,0,0,.13-.31.54.54,0,0,1,.15-.26.54.54,0,0,1,.3-.15.83.83,0,0,1,.47,0,1.11,1.11,0,0,1,.35.4A7.46,7.46,0,0,1-1-2.76q.18.42.33.72a3.22,3.22,0,0,0,.39.57L.1-1a4.77,4.77,0,0,0,.58.43c.28.18.51.33.69.43l1,.56a1.84,1.84,0,0,0,.39.23A5.29,5.29,0,0,1,3.22.9l.43.26a3.7,3.7,0,0,1,.46.3l.36.29a2.28,2.28,0,0,1,.31.32A1,1,0,0,1,5,2.4c.2.48,0,.78-.47.91h0a8.48,8.48,0,0,0-1.12.09,1,1,0,0,0-.42.44A1,1,0,0,1,2.44,4.27Z"/>
<rect fill="none" x="-12" y="-12" width="24" height="24"/>
</symbol>
<symbol id="calcite" viewBox="-12 -12 24 24">
<path d="M2.36-2.22l.05.46.34,3.91L2,2.22,1.65-1.26-2.52-.06l-.23-.7L1.89-2.08Z"/>
<rect fill="none" x="-12" y="-12" width="24" height="24"/>
</symbol>
<symbol id="cauliflower" viewBox="-12 -12 24 24">
<path d="M5.58,3.22v-3A2.12,2.12,0,0,0,6.92-.43a1.78,1.78,0,0,0,.55-1.32,1.92,1.92,0,0,0-.65-1.42,2.19,2.19,0,0,0-1.53-.59,2.21,2.21,0,0,0-1.54.59,1.78,1.78,0,0,0-.64,1.42A1.86,1.86,0,0,0,3.65-.43,2.12,2.12,0,0,0,5,.23v3H.26v-3A2.17,2.17,0,0,0,1.61-.43a1.81,1.81,0,0,0,.54-1.32,1.91,1.91,0,0,0-.64-1.42A2.21,2.21,0,0,0,0-3.76a2.21,2.21,0,0,0-1.54.59,1.82,1.82,0,0,0-.64,1.42A1.83,1.83,0,0,0-1.66-.43,2.12,2.12,0,0,0-.32.23v3H-5v-3A2.12,2.12,0,0,0-3.71-.43a1.78,1.78,0,0,0,.55-1.32,1.92,1.92,0,0,0-.65-1.42,2.19,2.19,0,0,0-1.53-.59,2.21,2.21,0,0,0-1.54.59,1.83,1.83,0,0,0-.65,1.42A1.87,1.87,0,0,0-7-.43,2.12,2.12,0,0,0-5.64.23v3H-8v.54H8V3.22Z"/>
<rect fill="none" x="-12" y="-12" width="24" height="24"/>
</symbol>
<symbol id="clay" viewBox="-12 -12 24 24">
<path d="M1.85-1.33a3,3,0,0,1,1.67.48,3.23,3.23,0,0,1,1,1l.29.51-1,.43a3.81,3.81,0,0,0-.23-.4A3.74,3.74,0,0,0,2.93,0,1.77,1.77,0,0,0,1.85-.32a2.57,2.57,0,0,0-1.1.15A.86.86,0,0,0,.51.14,2.23,2.23,0,0,1,0,.88a2.55,2.55,0,0,1-1.45.43,3.16,3.16,0,0,1-2.75-1,4.28,4.28,0,0,1-.37-.57,3.91,3.91,0,0,1-.21-.47l0-.16,1-.22a1.87,1.87,0,0,0,.45.79A2.12,2.12,0,0,0-1.51.33,1.82,1.82,0,0,0-.69.14l.21-.36A1.53,1.53,0,0,1,.17-1,3.76,3.76,0,0,1,1.85-1.33Z"/>
<rect fill="none" x="-12" y="-12" width="24" height="24"/>
</symbol>
<symbol id="crystals" viewBox="-12 -12 24 24">
<path d="M-2.94-5.38,0-.72,2.94-5.38,3.62-5,.68-.36H6.56V.36H.68L3.62,5l-.68.36L0,.72-2.94,5.38-3.62,5-.68.36H-6.56V-.36H-.68L-3.62-5Z"/>
<rect fill="none" x="-12" y="-12" width="24" height="24"/>
</symbol>
<symbol id="curtain" viewBox="-12 -12 24 24">
<path d="M3.57-6.69l.52.53L.39-3V-.33L.1-.26a3.79,3.79,0,0,0-1,.41c-.58.3-.87.65-.87,1v.07A1.61,1.61,0,0,0-.84,2.48a3.69,3.69,0,0,0,.45.24L0,2.86l.13.05L.39,3V6.12H-.39V3.51a7.65,7.65,0,0,1-.9-.46A2.19,2.19,0,0,1-2.54,1.28V1.23A2,2,0,0,1-1.31-.48,5.32,5.32,0,0,1-.39-.86V-3l-3.7-3.14.52-.53L0-3.67Z"/>
<rect fill="none" x="-12" y="-12" width="24" height="24"/>
</symbol>
<symbol id="disk" viewBox="-12 -12 24 24">
<path d="M-.09-4.19a2.43,2.43,0,0,1,1.7.64A2,2,0,0,1,2.35-2,2.09,2.09,0,0,1,1.81-.55,2.44,2.44,0,0,1,.35.23l2.18,3.6-.68.33L0,1.14-1.48,4.19l-.71-.29L-.41.25A2.53,2.53,0,0,1-1.9-.47a2,2,0,0,1-.63-1.41,2,2,0,0,1,.67-1.61,2.46,2.46,0,0,1,1.72-.7ZM1.05-3.06.56-3.49l-.69,0A1.72,1.72,0,0,0-1.29-3a1.51,1.51,0,0,0-.45,1.08,1.36,1.36,0,0,0,.51,1A1.68,1.68,0,0,0-.07-.44v0l0,0A1.7,1.7,0,0,0,1.11-.92,1.36,1.36,0,0,0,1.56-2,1.47,1.47,0,0,0,1.05-3.06Z"/>
<rect fill="none" x="-12" y="-12" width="24" height="24"/>
</symbol>
<symbol id="entrance" viewBox="-12 -12 24 24">
<path d="M4.46,9H-4.46L0-9Z"/>
<rect fill="none" x="-12" y="-12" width="24" height="24"/>
</symbol>
<symbol id="flowstone" viewBox="-12 -12 24 24">
<rect x="-6" y="-0.21" width="12" height="0.42"/>
<rect fill="none" x="-12" y="-12" width="24" height="24"/>
</symbol>
<symbol id="flutes" viewBox="-12 -12 24 24">
<path d="M-7-1H7v.72H3.87A4.7,4.7,0,0,1,2.16,1.5,4.2,4.2,0,0,1,0,2.13,3.94,3.94,0,0,1-2.19,1.5,4.18,4.18,0,0,1-3.76-.27H-7Zm4.17.72A3.15,3.15,0,0,0-1.65,1,3.21,3.21,0,0,0,0,1.41,3.49,3.49,0,0,0,1.6,1,3.68,3.68,0,0,0,3-.27Z"/>
<rect fill="none" x="-12" y="-12" width="24" height="24"/>
</symbol>
<symbol id="gradient" viewBox="-12 -12 24 24">
<path d="M2.58-3.83,0-10-2.58-3.83A4.74,4.74,0,0,1-.17-4.5V10H.25V-4.5A6.65,6.65,0,0,1,2.58-3.83Z"/>
<rect fill="none" x="-12" y="-12" width="24" height="24"/>
</symbol>
<symbol id="guano" viewBox="-12 -12 24 24">
<path d="M-3.24-3a2.15,2.15,0,0,1,1.57.55A3.93,3.93,0,0,1-.59.24a4.32,4.32,0,0,1,2.75-2.3,2.68,2.68,0,0,1,2.23.36A2.36,2.36,0,0,1,5.5.19l-.79,0a1.72,1.72,0,0,0-.79-1.37,1.94,1.94,0,0,0-1.55-.24A3.53,3.53,0,0,0,.48,0,6.63,6.63,0,0,0-.69,3l-.79-.09a10.72,10.72,0,0,0,0-3.16A3.21,3.21,0,0,0-2.22-2,1.44,1.44,0,0,0-3.37-2.3,3.45,3.45,0,0,0-5-1.54l-.5-.55a4.29,4.29,0,0,1,2-.91A.9.9,0,0,1-3.24-3Z"/>
<rect fill="none" x="-12" y="-12" width="24" height="24"/>
</symbol>
<symbol id="helictites" viewBox="-12 -12 24 24">
<path d="M-4.59-7.92h.79v7.7l3.41,0V-7.92H.39V-.17L4.2-.12h.39v8H3.8V.6L.39.55V7.92H-.39V.55L-4.2.5l-.39,0v-8.4Z"/>
<rect fill="none" x="-12" y="-12" width="24" height="24"/>
</symbol>
<symbol id="human" viewBox="-12 -12 24 24">
<path d="M-3.59-3.29A5.13,5.13,0,0,1,0-4.66,5.13,5.13,0,0,1,3.59-3.29,4.3,4.3,0,0,1,5.09,0a4.3,4.3,0,0,1-1.5,3.29A5.13,5.13,0,0,1,0,4.66,5.13,5.13,0,0,1-3.59,3.29,4.3,4.3,0,0,1-5.09,0,4.3,4.3,0,0,1-3.59-3.29Zm.28.77A3.68,3.68,0,0,0-4.3,0a3.62,3.62,0,0,0,1,2.57L-.5.05ZM0-3.94A4.42,4.42,0,0,0-2.75-3L.16-.36H4.28A3.62,3.62,0,0,0,2.91-2.9,4.38,4.38,0,0,0,0-3.94ZM.16.46-2.7,3.07A4.42,4.42,0,0,0,0,3.94a4.37,4.37,0,0,0,2.87-1A3.78,3.78,0,0,0,4.28.46Z"/>
<rect fill="none" x="-12" y="-12" width="24" height="24"/>
</symbol>
<symbol id="karren" viewBox="-12 -12 24 24">
<path d="M1-5.84h0a1.37,1.37,0,0,1,1.06.68A3.33,3.33,0,0,1,2.5-3.79,25.79,25.79,0,0,1,2.36,0a18.61,18.61,0,0,0-.08,3.72,2.68,2.68,0,0,0,.41,1.2,1.13,1.13,0,0,0,.79.5A.92.92,0,0,0,4,4.94a4.43,4.43,0,0,0,.47-1.22c.16-.64.36-1.86.59-3.66a26.71,26.71,0,0,1,.64-3.69,4.62,4.62,0,0,1,.57-1.29,1.34,1.34,0,0,1,1-.59h0A1.28,1.28,0,0,1,8.37-5a2.17,2.17,0,0,1,.39,1.15A19.91,19.91,0,0,1,8.54-.53a21.51,21.51,0,0,0-.2,3.64A2.64,2.64,0,0,0,9.45,5.36,1.91,1.91,0,0,0,10.88,5a3.84,3.84,0,0,0,.7-1l.42.2-.1.18-.12.21-.11.18L11.52,5a.94.94,0,0,1-.14.16c-.06.07-.13.12-.19.18a2.5,2.5,0,0,1-1.85.41H9.29l0,0A3.06,3.06,0,0,1,7.87,3.13a22.11,22.11,0,0,1,.2-3.7,18.17,18.17,0,0,0,.22-3.28A1.85,1.85,0,0,0,8-4.79a.77.77,0,0,0-.67-.3.93.93,0,0,0-.64.42,4.51,4.51,0,0,0-.51,1.15A26.26,26.26,0,0,0,5.54.1c-.24,1.83-.45,3.07-.61,3.72a5.38,5.38,0,0,1-.51,1.34,1.33,1.33,0,0,1-.89.68H3.47A1.58,1.58,0,0,1,2.3,5.16a3.29,3.29,0,0,1-.49-1.4A20.27,20.27,0,0,1,1.89,0,23.45,23.45,0,0,0,2-3.75a2.94,2.94,0,0,0-.32-1.19A.93.93,0,0,0,1-5.42,1.1,1.1,0,0,0,.19-5,3.69,3.69,0,0,0-.43-3.76,20.78,20.78,0,0,0-1.07.07c-.2,2-.37,3.32-.49,3.86A4.48,4.48,0,0,1-2,5.26,1.06,1.06,0,0,1-3,5.81h0a1.9,1.9,0,0,1-1.29-.67,2.7,2.7,0,0,1-.58-1.31,14.92,14.92,0,0,1,0-3.6q0-.12.06-.54c0-.28,0-.47,0-.57s0-.28,0-.52,0-.42,0-.55,0-.28,0-.47,0-.36,0-.51,0-.29,0-.43A3.09,3.09,0,0,0-5-4.62a1.19,1.19,0,0,0-.67-.6,1.5,1.5,0,0,0-1.2.9A7,7,0,0,0-7.41-2.1c0,.39-.1,1-.14,1.76s-.11,1.47-.18,2.08A9.61,9.61,0,0,1-8,3.32h0l0,0A2.81,2.81,0,0,1-9.2,4.62a1.82,1.82,0,0,1-1.35.15A1.94,1.94,0,0,1-11.61,4,2.39,2.39,0,0,1-12,2.56l.47,0a1.92,1.92,0,0,0,.31,1.16,1.47,1.47,0,0,0,.81.62,1.3,1.3,0,0,0,1-.11A2.32,2.32,0,0,0-8.5,3.18a7.53,7.53,0,0,0,.29-1.5Q-8.1.8-8-.36c0-.78.1-1.37.16-1.78A7.23,7.23,0,0,1-7.28-4.5,1.93,1.93,0,0,1-5.65-5.66h.05l0,0a1.59,1.59,0,0,1,1,.84,3.47,3.47,0,0,1,.34,1.41,4.91,4.91,0,0,1,0,.57v.54c0,.15,0,.37,0,.66s0,.47,0,.58,0,.33-.06.68,0,.56-.06.63a14.78,14.78,0,0,0,0,3.49,2.58,2.58,0,0,0,.5,1.13,1.57,1.57,0,0,0,1,.5A.61.61,0,0,0-2.44,5,3.89,3.89,0,0,0-2,3.85C-1.9,3.31-1.74,2-1.53,0A20.65,20.65,0,0,1-.86-3.89,3.89,3.89,0,0,1-.18-5.26,1.58,1.58,0,0,1,1-5.84Z"/>
<rect fill="none" x="-12" y="-12" width="24" height="24"/>
</symbol>
<symbol id="moonmilk" viewBox="-12 -12 24 24">
<path d="M-4.78-3.06a3.39,3.39,0,0,1,1.5.34,2.48,2.48,0,0,1,1.1,1,3.74,3.74,0,0,1,1.62-.8,3.52,3.52,0,0,1,1.71,0,2.9,2.9,0,0,1,1.39.77A2.49,2.49,0,0,1,3.25-.37,4,4,0,0,1,5-.76a3.58,3.58,0,0,1,1.6.36A2.84,2.84,0,0,1,7.88.92a2.32,2.32,0,0,1,0,1.88.34.34,0,0,1-.37.26A.36.36,0,0,1,7.25,3a.32.32,0,0,1-.12-.25.21.21,0,0,1,0-.12,2,2,0,0,0,0-1.43,2,2,0,0,0-1-.9A2.81,2.81,0,0,0,4.68,0,2.78,2.78,0,0,0,3.12.56L2.46.25A1.7,1.7,0,0,0,2.15-1.1,2.15,2.15,0,0,0,1-1.81a2.85,2.85,0,0,0-1.58.06A3,3,0,0,0-2-.83l-.71-.12A1.74,1.74,0,0,0-3.55-2a2.36,2.36,0,0,0-1.39-.27,3.08,3.08,0,0,0-1.45.53A2.33,2.33,0,0,0-7.32-.56a.35.35,0,0,1-.37.24A.39.39,0,0,1-8-.42a.33.33,0,0,1-.1-.26v-.1A3,3,0,0,1-6.89-2.35,4,4,0,0,1-5-3Z"/>
<rect fill="none" x="-12" y="-12" width="24" height="24"/>
</symbol>
<symbol id="narrow" viewBox="-12 -12 24 24">
<path d="M-1.5,5V-5h0.64V5H-1.5z"/>
<path d="M0.86,5V-5H1.5V5H0.86z"/>
<rect fill="none" x="-12" y="-12" width="24" height="24"/>
</symbol>
<symbol id="paleoflow" viewBox="-12 -12 24 24">
<path d="M.38-12V.17A1.9,1.9,0,0,0,1,0,1.57,1.57,0,0,0,1.7-.72a1.86,1.86,0,0,0,.23-1c0-.09,0-.14.08-.16a.92.92,0,0,1,.24,0,.52.52,0,0,0,.25,0h.08A2.48,2.48,0,0,1,2,0,2.5,2.5,0,0,1,.38.77V7.21H2.09L0,12-1.8,7.23c.07,0,.59,0,1.53,0V.77A3,3,0,0,1-1.35.43a2.16,2.16,0,0,1-1-1,2.38,2.38,0,0,1-.24-1.33l.67,0a2,2,0,0,0,.15,1,1.73,1.73,0,0,0,.59.67A2.14,2.14,0,0,0-.27.16V-12Z"/>
<rect fill="none" x="-12" y="-12" width="24" height="24"/>
</symbol>
<symbol id="rain" viewBox="-12 -12 24 24">
<path d="M-4.14-6.34h0.71v4.69h-0.71V-6.34z"/>
<path d="M-0.35-6.34h0.71v4.69h-0.71V-6.34z"/>
<path d="M3.43-6.34h0.71v4.69H3.43V-6.34z"/>
<path d="M-4.14,1.65h0.71v4.69h-0.71V1.65z"/>
<path d="M-0.35,1.65h0.71v4.69h-0.71V1.65z"/>
<path d="M3.43,1.65h0.71v4.69H3.43V1.65z"/>
<rect fill="none" x="-12" y="-12" width="24" height="24"/>
</symbol>
<symbol id="rats" viewBox="-12 -12 24 24">
<path d="M8.78-2.32,7-2.27c-.51-.17-.65-.56-1.46-.45l-.25.45C3.59-2.75,2.59-3.66.56-3.62l-1.35.3A4.89,4.89,0,0,0-4.24,1.57c-.68.6-2.58.86-3.39.94a6.84,6.84,0,0,0-1.62.39,4.91,4.91,0,0,0-1,.52A1.75,1.75,0,0,0-11,4.61a1.16,1.16,0,0,0,.59,1.48,1.3,1.3,0,0,1,.14.12c.16-.52-.35-.92-.2-1.42a3.35,3.35,0,0,1,.27-.45,3.18,3.18,0,0,1,1.79-1c.63-.12,1.27-.22,1.91-.3.48-.07,1,0,1.4-.12A6.94,6.94,0,0,1-4,2.82,30.64,30.64,0,0,0,.41,2.69l2.16.15c.1-.09,0,0,.1-.15a.87.87,0,0,0-.9-.55c.86-1,2.27-.37,3.1-.05.5.19,1,0,1.25.4.11-.1.1-.07.15-.25.3,0,.31.07.6.15-.06-.49-.34-.64-1-.6a.78.78,0,0,1,0-.55C6.3.56,7.29.73,8.13.43a13.78,13.78,0,0,0,2.15-.9l.6-.85v-.2A16.9,16.9,0,0,0,8.78-2.32Z"/>
<rect fill="none" x="-12" y="-12" width="24" height="24"/>
</symbol>
<symbol id="sand" viewBox="-12 -12 24 24">
<path d="M-1.58,0.83c0.23,0.2,0.35,0.44,0.36,0.73c0.01,0.29-0.08,0.54-0.28,0.75c-0.2,0.21-0.46,0.32-0.78,0.33c-0.32,0.01-0.6-0.08-0.83-0.26C-3.36,2.19-3.49,1.95-3.5,1.67C-3.51,1.38-3.41,1.12-3.2,0.9c0.21-0.22,0.48-0.34,0.8-0.35C-2.08,0.54-1.81,0.64-1.58,0.83z"/>
<path d="M0.08-2.36c0.23,0.2,0.35,0.44,0.36,0.73c0.01,0.29-0.08,0.54-0.28,0.75c-0.2,0.21-0.46,0.32-0.78,0.33c-0.32,0.01-0.59-0.07-0.83-0.26s-0.37-0.42-0.38-0.71c-0.01-0.29,0.09-0.54,0.3-0.76c0.21-0.22,0.48-0.33,0.8-0.35C-0.42-2.65-0.14-2.56,0.08-2.36z"/>
<path d="M3.12,0.55c0.23,0.2,0.35,0.43,0.38,0.71c0.02,0.28-0.07,0.53-0.28,0.75C3,2.23,2.73,2.35,2.42,2.36C2.1,2.37,1.82,2.28,1.58,2.08C1.34,1.88,1.22,1.64,1.2,1.35c-0.01-0.29,0.09-0.54,0.3-0.75C1.72,0.4,1.99,0.29,2.3,0.28S2.89,0.36,3.12,0.55z"/>
<rect fill="none" x="-12" y="-12" width="24" height="24"/>
</symbol>
<symbol  id="scallops" viewBox="-12 -12 24 24">
<path d="M.05-3.74l.21,0A2.35,2.35,0,0,1,1.74-3a2,2,0,0,1,.59,1.55v0l0,0A9.59,9.59,0,0,1-.08,3.27l-.39.47-.27-.55A14.26,14.26,0,0,1-2.33-1.89v-.05l0-.05A2,2,0,0,1-1.44-3.3,2.42,2.42,0,0,1,.05-3.74ZM-.11-3A1.44,1.44,0,0,0-1.55-1.89,13.06,13.06,0,0,0-.29,2.33,8.6,8.6,0,0,0,1.55-1.54a1.41,1.41,0,0,0-.38-1A1.62,1.62,0,0,0,.18-3Z"/>
<rect fill="none" x="-12" y="-12" width="24" height="24"/>
</symbol>
<symbol  id="sink" viewBox="-12 -12 24 24">
<path d="M.72,9.41H.9c1.94,0,3.26-.54,3.94-1.51a3.61,3.61,0,0,0,.33-.69,2,2,0,0,0,.11-.54V6.46l.69,0a2.8,2.8,0,0,1-.58,1.78C4.58,9.39,3.1,10,.93,10H-.93q-3.25,0-4.46-1.8a2.74,2.74,0,0,1-.43-.83A2.37,2.37,0,0,1-6,6.67V6.43l.68,0A2.27,2.27,0,0,0-4.84,7.9c.68,1,2,1.47,3.93,1.48l.5,0ZM-1.46-10a.68.68,0,0,0,.16.41A2.77,2.77,0,0,0-.51-9l0,0a3.63,3.63,0,0,1,1,.7,1.15,1.15,0,0,1,.34.88c0,.58-.53,1.14-1.49,1.68-.68.42-1,.79-1,1.11s.3.61.84,1h0Q.61-2.86.46-1.78a3.51,3.51,0,0,1-1.55,2,.61.61,0,0,0-.26.41,1.67,1.67,0,0,0,.1.51,5.3,5.3,0,0,1,.32,1L.56,1.9.46,8.06-3.4,2.54l1.73-.28A6.16,6.16,0,0,0-2,1.39,1.7,1.7,0,0,1-2.09.58a1.21,1.21,0,0,1,.53-.82h0v0C-.75-.86-.33-1.38-.28-1.85s-.23-.87-.91-1.27h0C-2-3.6-2.37-4.1-2.4-4.61S-2-5.74-1.09-6.29C-.34-6.72.06-7.1.09-7.44a.67.67,0,0,0-.18-.43,3.17,3.17,0,0,0-.79-.58,2.93,2.93,0,0,1-1-.67A1.16,1.16,0,0,1-2.17-10Z"/>
<rect fill="none" x="-12" y="-12" width="24" height="24"/>
</symbol>
<symbol  id="spring" viewBox="-12 -12 24 24">
<path d="M-1.34-9.86,2.52-4.34.78-4.06a8,8,0,0,0,.29.87,1.4,1.4,0,0,1,.13.79,1.3,1.3,0,0,1-.52.84l0,0v0C-.13-.95-.55-.42-.61,0S-.37.91.31,1.3l0,0c.75.46,1.14,1,1.18,1.46S1.12,3.92.21,4.46C-.54,4.9-.94,5.29-1,5.64a.74.74,0,0,0,.18.43A3.2,3.2,0,0,0,0,6.62a3,3,0,0,1,1,.7,1.14,1.14,0,0,1,.31.86A1.74,1.74,0,0,1,.71,9.26H.92c1.92,0,3.22-.52,3.9-1.51a2.05,2.05,0,0,0,.35-.67,2.59,2.59,0,0,0,.1-.55l0-.19.65,0a2.84,2.84,0,0,1-.55,1.8C4.58,9.26,3.08,9.85.92,9.86H-.92c-2.17,0-3.66-.6-4.49-1.77a3.65,3.65,0,0,1-.4-.85A2.43,2.43,0,0,1-6,6.53V6.29l.66,0a2.08,2.08,0,0,0,.47,1.41c.68,1,2,1.5,3.91,1.51H-.4c.62-.43.94-.8,1-1.1a.76.76,0,0,0-.16-.43,3.25,3.25,0,0,0-.79-.51v0a3.8,3.8,0,0,1-1-.7,1.15,1.15,0,0,1-.34-.91q.06-.84,1.5-1.68c.68-.4,1-.77,1-1.1S.49,2.21,0,1.87c0,0,0,0,0,0C-1,1.32-1.44.69-1.34,0a3.58,3.58,0,0,1,1.55-2,.54.54,0,0,0,.23-.38A1.28,1.28,0,0,0,.37-3a4.57,4.57,0,0,1-.32-1l-1.49.24Z"/>
<rect fill="none" x="-12" y="-12" width="24" height="24"/>
</symbol>
<symbol  id="stalactite" viewBox="-12 -12 24 24">
<path d="M3.57-6.69l.52.53L.39-3V6.12H-.39V-3l-3.7-3.14.52-.53L0-3.67Z"/>
<rect fill="none" x="-12" y="-12" width="24" height="24"/>
</symbol>
<symbol  id="stalagmite" viewBox="-12 -12 24 24">
<path d="M.38-6.42V2.75L4.11,5.89l-.56.53L0,3.4l-3.57,3-.53-.53,3.7-3.14V-6.42Z"/>
<rect fill="none" x="-12" y="-12" width="24" height="24"/>
</symbol>
<symbol  id="stalagnate" viewBox="-12 -12 24 24">
<path d="M3.55-8.46l.56.53L.38-4.78v9L4.11,7.36l-.56.53L0,4.86l-3.57,3-.53-.53,3.7-3.14v-9l-3.7-3.15.53-.53L0-5.43Z"/>
<rect fill="none" x="-12" y="-12" width="24" height="24"/>
</symbol>
<symbol  id="straws" viewBox="-12 -12 24 24">
<path d="M-10.89-2.76H10.89V-2H9.63V.46H8.84V-2H8.29v5.6H7.5V-2H5.56V.7H4.77V-2H2.07V2.38H1.29V-2H-.1v3H-.89V-2H-3.2V4.11H-4V-2H-6.22L-6.16.75l-.79,0L-7-2H-8.32V2.33H-9.1V-2h-1.79Z"/>
<rect fill="none" x="-12" y="-12" width="24" height="24"/>
</symbol>
<symbol  id="water" viewBox="-12 -12 24 24">
<path d="M-1.72-9.86,2.11-4.32.38-4.06a6.49,6.49,0,0,0,.29.89,1.5,1.5,0,0,1,.13.79,1.2,1.2,0,0,1-.5.82h0l0,0C-.54-.94-1-.42-1,.05s.24.89.92,1.27h0c.77.48,1.17,1,1.19,1.49S.71,3.94-.2,4.49c-.75.43-1.13.81-1.15,1.15a.51.51,0,0,0,.18.43,2.66,2.66,0,0,0,.76.58,2.93,2.93,0,0,1,1,.67,1.16,1.16,0,0,1,.29.89C.84,8.75.42,9.3-.41,9.86l-.44-.55c.66-.45,1-.83,1-1.15A.47.47,0,0,0,0,7.75a2.84,2.84,0,0,0-.78-.53h0a3.87,3.87,0,0,1-1-.69,1.24,1.24,0,0,1-.34-.91c0-.58.54-1.14,1.52-1.68.66-.42,1-.79,1-1.11s-.3-.61-.84-1h0Q-1.9,1.06-1.74,0a3.44,3.44,0,0,1,1.54-2,.67.67,0,0,0,.27-.41A1.11,1.11,0,0,0,0-3a4.33,4.33,0,0,1-.31-1l-1.5.24Z"/>
<rect fill="none" x="-12" y="-12" width="24" height="24"/>
</symbol><symbol  id="tree" viewBox="-12 -12 24 24">
<path d="M7.4-5.04A4.271,4.271,0,0,0,7.7-6.627a4.3,4.3,0,0,0-4.3-4.3A4.279,4.279,0,0,0,.636-9.914,4.293,4.293,0,0,0-3.045-12a4.3,4.3,0,0,0-4.3,4.3,4.27,4.27,0,0,0,.421,1.845,4.3,4.3,0,0,0-3.645,4.244,4.3,4.3,0,0,0,4.3,4.3A4.282,4.282,0,0,0-3.946,2L-1.175,5.23h0L-1.612,12H.982L.757,6.376,4.119,2.827v0a4.272,4.272,0,0,0,2.15.58,4.3,4.3,0,0,0,4.3-4.3A4.3,4.3,0,0,0,7.4-5.04ZM-3.346,1.538h0A4.346,4.346,0,0,0-2.7.788a4.266,4.266,0,0,0,1.765.753l-.135,2.087ZM.69,4.7.563,1.544A4.258,4.258,0,0,0,2.321.805,4.3,4.3,0,0,0,3.378,2.279Z"/>
<rect fill="none" x="-12" y="-12" width="24" height="24"/>
</symbol><g>
<desc></desc>
<g>
<line fill="none" stroke="#dddddd" stroke-width="0.1mm" x1="0.00" y1="25.00" x2="90.00" y2="25.00" />
<text x="87.20" y="24.80" font-size=".2mm" fill="#000000">0m</text>
<line fill="none" stroke="#dddddd" stroke-width="0.1mm" x1="0.00" y1="5.00" x2="90.00" y2="5.00" />
<text x="87.20" y="4.80" font-size=".2mm" fill="#000000">10m</text>
<line fill="none" stroke="#dddddd" stroke-width="0.1mm" x1="0.00" y1="45.00" x2="90.00" y2="45.00" />
<text x="87.20" y="44.80" font-size=".2mm" fill="#000000">-10m</text>
<line fill="none" stroke="#dddddd" stroke-width="0.1mm" x1="0.00" y1="65.00" x2="90.00" y2="65.00" />
<text x="87.20" y="64.80" font-size=".2mm" fill="#000000">-20m</text>
</g>
<g>
<path fill="none" stroke="#000000" stroke-width="0.06mm" d="M20.109503,26.521864 C20.499266,26.38462 20.526114,26.479853 20.918127,26.51641 C21.110529,26.534353 21.303886,26.547682 21.49711,26.545424 C21.727127,26.542734 22.038376,26.448595 22.23447,26.364897 C22.368967,26.307487 22.492197,26.226547 22.61906,26.153807 C22.789595,26.056026 22.917843,25.94541 23.115047,25.90462 C23.499891,25.82502 23.891985,25.784311 24.277578,25.708422 C24.424715,25.679464 24.562523,25.605734 24.711695,25.59038 C25.115026,25.548862 25.521664,25.549398 25.926985,25.538643 C25.975855,25.537346 26.076385,25.567127 26.118336,25.591347 C26.169235,25.620731 26.21463,25.658756 26.262777,25.692461 L26.262777,25.692461" /><path fill="none" stroke="#000000" stroke-width="0.06mm" d="M19.601189,24.066359 C19.907988,23.878529 20.24731,23.82138 20.602953,23.8215 C22.138577,23.822016 20.085579,23.99925 23.032066,23.757828 C23.443789,23.724092 24.141052,23.626772 24.555943,23.43766 C24.798233,23.32722 25.016914,23.17099 25.246655,23.036375 C25.833408,22.692572 26.575558,22.229704 27.119783,21.968813 C27.486105,21.793205 27.884388,21.693295 28.260275,21.539219 C28.422405,21.472761 28.571945,21.37851 28.73229,21.307848 C28.881691,21.24201 28.988869,21.24734 29.155113,21.230335 L29.155113,21.230335" /><path fill="none" stroke="#000000" stroke-width="0.06mm" d="M28.608154,21.447346 C29.638206,21.0246 29.25765,21.251999 29.812057,20.882523 L29.812057,20.882523" /><path fill="none" stroke="#000000" stroke-width="0.06mm" d="M26.111174,25.564632 C26.185612,25.630209 26.2492,25.71069 26.334486,25.76136 C26.553211,25.891312 26.789295,25.989529 27.017076,26.102858 C27.046715,26.117603 27.078312,26.128597 27.106728,26.145582 C27.214352,26.209911 27.265085,26.327868 27.341385,26.42134 C27.441479,26.54396 27.619658,26.653328 27.731241,26.735905 L27.731241,26.735905" /><path fill="none" stroke="#000000" stroke-width="0.06mm" d="M29.865566,20.950897 C30.055939,20.772295 30.274164,20.641985 30.542412,20.64029 C30.733597,20.63908 30.925125,20.666023 31.11584,20.652634 C31.40177,20.63256 31.690868,20.61202 31.968353,20.540188 C32.783134,20.329262 33.572296,20.027754 34.38434,19.80651 C34.556522,19.759602 35.035625,19.764395 35.2171,19.744083 C35.492798,19.713226 35.765976,19.662735 36.04113,19.627342 C36.28319,19.596205 36.26225,19.636383 36.502045,19.543764 C36.57996,19.51367 36.949677,19.318537 37.01763,19.283173 L37.01763,19.283173" /><path fill="none" stroke="#000000" stroke-width="0.06mm" d="M36.70848,19.321817 C36.792618,19.344501 36.875504,19.372517 36.9609,19.389872 C37.111893,19.420559 37.277687,19.338976 37.42141,19.412317 C38.158493,19.788464 37.775204,19.678879 38.25423,19.788544 L38.25423,19.788544" /><path fill="none" stroke="#000000" stroke-width="0.06mm" d="M39.095474,29.554087 L39.05426,29.498007" /><path fill="none" stroke="#000000" stroke-width="0.06mm" d="M32.707367,29.375723 C32.90593,29.40712 33.09652,29.394724 33.282166,29.31487 C33.506878,29.218216 33.637157,28.985704 33.860523,28.888908 C34.07302,28.796822 34.31305,28.851788 34.533596,28.813755 C36.199764,28.439987 34.714058,28.737396 35.65239,28.608917 C35.745327,28.596191 35.835007,28.561892 35.928535,28.554733 C36.416428,28.5174 37.040825,28.724112 37.43974,28.807922 L37.43974,28.807922" /><path fill="none" stroke="#000000" stroke-width="0.06mm" d="M27.977964,26.340525 C28.16735,26.482012 28.211979,26.700554 28.33927,26.88353 C28.494354,27.106459 28.600517,27.215126 28.812172,27.37547 C28.94671,27.477392 29.028053,27.475819 29.192848,27.552387 C29.223175,27.566479 29.250679,27.58663 29.276134,27.608316 C29.368141,27.686695 29.453144,27.773024 29.544601,27.85204 C29.55448,27.860575 29.566465,27.867764 29.579285,27.870224 C29.647346,27.883293 29.716629,27.888914 29.785303,27.898258 L29.785303,27.898258" /><path fill="none" stroke="#000000" stroke-width="0.06mm" d="M29.844755,27.803127 C29.826931,27.635204 29.798767,27.468058 29.791279,27.299356 C29.785418,27.167309 29.828342,27.56123 29.839863,27.692905 C29.84715,27.776203 29.786373,27.856926 29.722292,27.90157 C29.688745,27.92494 29.651318,27.941296 29.611107,27.949005 C29.593277,27.952425 29.513508,27.952213 29.495953,27.967735 C29.489082,27.973806 29.502571,27.984835 29.50588,27.993385 L29.50588,27.993385" /><path fill="none" stroke="#000000" stroke-width="0.06mm" d="M31.036766,28.029058 C31.138638,28.10589 31.231527,28.196363 31.342377,28.259554 C32.583656,28.967136 32.18862,28.707481 33.071033,29.126022 C33.16331,29.16979 33.24583,29.235594 33.34292,29.267284 C33.69001,29.380573 34.05113,29.44723 34.3986,29.559336 C34.509716,29.595184 34.606194,29.667177 34.714848,29.709911 C34.762623,29.728703 34.772217,29.671593 34.765892,29.643768 C34.73713,29.517208 34.707413,29.389805 34.659153,29.269323 C34.65294,29.253807 34.635227,29.295572 34.633064,29.312145 C34.627426,29.355299 34.638996,29.39921 34.63651,29.442657 C34.634586,29.476212 34.628098,29.509516 34.619896,29.542109 C34.531425,29.893679 34.224304,29.687834 33.997475,29.601654 L33.997475,29.601654" /><path fill="none" stroke="#000000" stroke-width="0.06mm" d="M27.508293,26.397007 C27.878805,27.176134 27.642662,26.738813 28.712872,28.008228 C28.770248,28.076284 28.837019,28.13744 28.91008,28.188293 C29.170883,28.369827 29.448467,28.526184 29.712029,28.703691 C30.177925,29.017475 29.712555,28.835491 30.50991,29.149776 C30.888157,29.298866 31.655643,29.298317 31.895592,29.325119 C32.200943,29.359228 32.504154,29.410381 32.808437,29.453012 L32.808437,29.453012" /><path fill="none" stroke="#000000" stroke-width="0.06mm" d="M37.94999,19.902111 C37.95485,19.883675 37.927486,19.73831 37.989807,19.717001 C38.04042,19.699696 38.138924,19.762877 38.163635,19.77854 C38.264317,19.842356 38.335808,19.91013 38.39592,20.010563 C38.668247,20.465513 38.341446,19.973288 39.110973,20.957243 C39.13887,20.992916 39.169968,21.026428 39.193794,21.064941 C39.789696,22.10113 39.020218,20.807701 39.664257,21.755922 C39.957455,22.187593 39.7391,22.019222 40.054497,22.27475 L40.054497,22.27475" /><path fill="none" stroke="#000000" stroke-width="0.06mm" d="M36.701416,28.599018 C36.743526,28.618498 36.784554,28.640514 36.82775,28.657457 C36.852993,28.667358 36.91128,28.675627 36.937996,28.671377 C37.211464,28.627886 37.48491,28.583584 37.75666,28.530388 C37.79325,28.523224 37.827736,28.507055 37.86122,28.49065 C38.007904,28.418783 38.12226,28.327614 38.280663,28.29712 C38.339455,28.2858 38.39952,28.277971 38.459373,28.279242 C38.54802,28.281124 38.78299,28.29048 38.900078,28.341888 C39.145996,28.449856 39.247665,28.531452 39.455994,28.73441 C39.498917,28.776222 39.52675,28.831133 39.562126,28.879496 L39.562126,28.879496" /><path fill="none" stroke="#000000" stroke-width="0.06mm" d="M40.06201,22.307297 C40.18711,22.446451 40.351852,22.491232 40.505314,22.581882 C40.574615,22.622822 40.637817,22.673672 40.70776,22.71351 C40.862206,22.801487 40.77433,22.713 40.939682,22.814339 C41.099915,22.912539 41.25216,23.023289 41.411087,23.123587 C41.509583,23.185747 41.616707,23.234283 41.71176,23.301592 C41.78958,23.36833 41.8674,23.435068 41.945225,23.501808 C41.995197,23.545603 42.041138,23.59448 42.095142,23.633196 C42.27838,23.764559 42.512566,23.839205 42.7183,23.909788 C42.753304,23.921799 42.79113,23.922968 42.827576,23.929365 C43.076267,23.973011 43.326405,24.009026 43.573715,24.059916 C43.627953,24.071075 43.72238,24.103968 43.77755,24.143497 C43.874313,24.212837 43.944355,24.36293 43.99887,24.449322 L43.99887,24.449322" /><path fill="none" stroke="#000000" stroke-width="0.06mm" d="M39.64859,29.069944 C39.731945,29.151386 39.80642,29.243034 39.89865,29.314268 C40.12731,29.490885 40.381485,29.632944 40.608658,29.811478 C41.271904,30.33272 41.269253,30.34935 41.665627,30.912413 C41.747612,31.028881 41.84491,31.136015 41.911243,31.262058 C42.468525,32.320988 42.148067,31.797592 42.460655,32.58025 C42.477947,32.623543 42.503853,32.66356 42.532997,32.699947 C42.716934,32.9296 42.913433,33.148964 43.099037,33.377277 C43.20456,33.507088 43.294083,33.65002 43.406235,33.77415 C44.834183,35.354588 44.164177,34.351673 45.438225,36.35697 C45.48844,36.436012 45.517067,36.527054 45.549927,36.614746 C45.59846,36.744255 45.593094,36.86506 45.588154,37.00021 L45.588154,37.00021" /><path fill="none" stroke="#000000" stroke-width="0.06mm" d="M45.08583,36.404617 C45.146935,36.48896 45.214157,36.569183 45.269127,36.657642 C45.298893,36.705544 45.32432,36.7573 45.338852,36.81179 C45.426025,37.138676 45.51671,37.465706 45.57354,37.799202 C45.64767,38.23423 45.57254,38.568867 45.57708,39.00905 C45.577858,39.08468 45.592148,39.16028 45.612095,39.23324 C45.694016,39.532867 45.79226,39.827797 45.882217,40.125114 C45.91112,40.22064 45.92566,40.32171 45.96868,40.41176 C46.140953,40.737103 46.313217,41.062447 46.48548,41.387794 C46.635216,41.58246 46.815872,41.756844 46.934685,41.971775 C47.860195,43.646027 48.322273,44.354336 48.692524,45.922485 L48.692524,45.922485" /><path fill="none" stroke="#000000" stroke-width="0.06mm" d="M44.060364,24.214529 C44.14431,24.51794 44.214355,24.825544 44.312202,25.124762 C44.41015,25.424303 44.535484,25.714186 44.64713,26.0089 C44.924118,27.013752 45.16539,28.02914 45.4781,29.023458 C45.664227,29.615284 45.97102,30.165854 46.14203,30.762222 C46.442226,31.809132 46.625042,32.886356 46.888775,33.94304 C46.959347,34.225792 47.128513,34.533592 47.34932,34.72825 C47.545563,34.901245 47.691055,34.983875 47.930183,35.085564 C48.647266,35.390514 49.358604,35.710873 50.088917,35.982624 C50.326202,36.07092 50.59332,36.065067 50.82665,36.163345 C51.702026,36.532074 52.55148,36.959984 53.403942,37.378975 C53.768616,37.55821 53.95439,37.946358 54.183838,38.251694 C54.46253,38.622566 55.29202,38.919956 55.53048,39.005093 C56.5946,39.385014 56.746655,39.32678 57.716717,39.30376 C57.78245,39.3022 57.848473,39.3098 57.913975,39.304073 C58.086033,39.289032 58.169487,39.229458 58.3515,39.197224 C58.479603,39.174538 58.701435,39.16751 58.83251,39.203625 C59.330925,39.340942 59.573105,39.5105 59.98678,39.79836 L59.98678,39.79836" /><path fill="none" stroke="#000000" stroke-width="0.06mm" d="M58.08918,39.618217 C58.042065,39.53814 57.976276,39.466434 57.947834,39.377983 C57.941578,39.35852 57.98387,39.350235 58.004055,39.35347 C58.04888,39.360657 58.086025,39.393215 58.129257,39.40706 C58.243233,39.443546 58.272114,39.36519 58.34207,39.32308 C58.35814,39.313408 58.37792,39.311363 58.3965,39.308865 C58.539528,39.289635 58.68313,39.27492 58.826443,39.25795 L58.826443,39.25795" /><path fill="none" stroke="#000000" stroke-width="0.06mm" d="M48.69335,45.529182 C48.71737,45.66437 48.72688,45.80296 48.76542,45.934746 C48.811268,46.09151 48.863014,46.24943 48.94526,46.39055 C49.51573,47.369354 49.64358,47.579002 50.44082,48.243862 C50.613037,48.38749 50.828262,48.476334 50.99214,48.62941 C51.52015,49.12262 51.97741,49.6886 52.510094,50.17675 C53.727448,51.292316 52.734142,50.222557 53.56474,50.84721 C54.049522,51.211792 54.3,51.622993 54.733955,52.069534 C55.01176,52.355404 55.767963,52.727165 55.97063,52.824745 C56.621685,53.138218 56.840675,53.15074 57.5658,53.27013 C57.685932,53.28991 57.81209,53.277054 57.92859,53.31242 C58.771168,53.568214 58.722637,53.564423 59.26209,53.874073 L59.26209,53.874073" /><path fill="none" stroke="#000000" stroke-width="0.06mm" d="M59.366814,39.614033 C59.584793,39.792183 59.80586,39.90468 60.09188,39.885414 C60.225243,39.87643 60.353256,39.81272 60.4874,39.825634 C60.578053,39.834362 60.890358,39.959785 60.94605,39.978493 L60.94605,39.978493" /><path fill="none" stroke="#000000" stroke-width="0.06mm" d="M58.922783,53.82799 C59.32696,54.463226 59.233112,54.23876 59.44096,54.76229 C59.48224,54.866253 59.510544,54.97579 59.560654,55.075794 C59.68766,55.329277 59.82768,55.576214 59.97127,55.820686 C60.050587,55.95572 60.42089,56.338627 60.434998,56.354076 L60.434998,56.354076" /><path fill="none" stroke="#000000" stroke-width="0.06mm" d="M60.888336,39.82057 C60.595776,43.51599 60.391487,43.94354 60.48597,46.57897 C60.493336,46.784405 60.524036,46.988426 60.53582,47.193653 C60.543194,47.322044 60.521484,47.64447 60.580154,47.81407 C60.629974,47.958084 60.69056,48.098366 60.75462,48.23664 C60.768875,48.26741 60.780914,48.312416 60.81415,48.31914 C60.856857,48.327778 60.8958,48.28868 60.936623,48.273453 L60.936623,48.273453" /><path fill="none" stroke="#000000" stroke-width="0.06mm" d="M60.386566,47.311848 C60.367046,47.355377 60.34503,47.397865 60.32802,47.442432 C60.274925,47.58152 60.488537,47.92893 60.492367,47.93645 C60.543304,48.03653 60.608818,48.1285 60.665863,48.225227 C60.970734,48.74217 60.804,48.515324 61.073086,48.84874 L61.073086,48.84874" /><path fill="none" stroke="#000000" stroke-width="0.06mm" d="M60.858944,48.141182 C60.90213,48.284966 60.934765,48.432343 60.988495,48.57253 C61.04106,48.709686 61.11624,48.8371 61.17693,48.970863 C61.352993,49.358906 61.52479,49.74887 61.698723,50.137875 L61.698723,50.137875" /><path fill="none" stroke="#000000" stroke-width="0.06mm" d="M54.235172,50.70266 C54.354233,50.749763 54.452328,50.774895 54.549286,50.861145 C54.842377,51.121864 54.889,51.241882 55.141323,51.39517 C55.210583,51.43724 55.257942,51.444412 55.311157,51.503853 C55.436188,51.650208 55.56122,51.796555 55.68625,51.94291 C55.69434,51.941246 55.704136,51.94317 55.710518,51.937927 C55.720455,51.929764 55.728207,51.918022 55.731625,51.90562 C55.74897,51.842636 55.76555,51.778877 55.772224,51.71389 C55.797306,51.469734 55.786068,51.30462 55.68751,51.08367 C55.67309,51.051346 55.6631,51.009705 55.63173,50.9933 C55.612404,50.9832 55.63388,51.037125 55.639023,51.05832 C55.682426,51.237167 55.739773,51.412666 55.777237,51.59285 C55.793934,51.673164 55.837822,51.88588 55.689266,51.89099 C55.609215,51.893745 55.528835,51.89269 55.45174,51.867435 C55.20104,51.785316 55.246643,51.800858 55.064457,51.678963 L55.064457,51.678963" /><path fill="none" stroke="#000000" stroke-width="0.06mm" d="M59.376728,54.110268 C59.583786,54.469646 59.790844,54.82902 59.9979,55.1884 C60.008083,55.192406 60.01838,55.204693 60.028454,55.200424 C60.083496,55.17711 60.07288,54.933525 60.06836,54.89687 C60.06439,54.86464 60.04597,54.854916 60.018833,54.868507 C60.005604,54.875137 59.995415,54.88672 59.984913,54.89714 C59.88435,54.99695 59.787075,55.10005 59.68575,55.19908 C59.56186,55.320175 59.449352,55.061638 59.42054,54.989998 C59.40699,54.956306 59.40113,54.920006 59.391426,54.885017 L59.391426,54.885017" /><path fill="none" stroke="#000000" stroke-width="0.06mm" d="M60.258987,56.024956 C60.33103,56.112083 60.40308,56.19921 60.475124,56.28634 C60.497086,56.304092 60.515812,56.326828 60.540997,56.339592 C60.651886,56.395782 60.76319,56.45338 60.881306,56.492157 C61.88638,56.82209 62.10333,56.89862 63.16665,56.90026 C63.762295,56.901176 64.21154,56.761044 64.776085,56.850952 C65.00848,56.887962 65.2312,56.973404 65.463104,57.013382 C66.86263,57.254665 65.92409,57.07501 66.84433,57.133675 C66.89499,57.136906 66.94409,57.15339 66.99278,57.167786 C67.12225,57.206066 67.24693,57.261074 67.378456,57.291584 C67.52742,57.326138 67.68062,57.338787 67.83171,57.36239 L67.83171,57.36239" /><path fill="none" stroke="#000000" stroke-width="0.06mm" d="M60.833714,48.108253 C60.975994,48.455658 61.125465,48.80021 61.26056,49.15047 C61.316998,49.29679 61.344425,49.45389 61.408012,49.597248 C61.598225,50.026047 61.672035,50.1918 61.95693,50.48043 C62.22582,50.752846 62.841393,51.005665 63.040638,51.099884 C63.21745,51.183495 63.637276,51.23369 63.784092,51.230938 C64.10625,51.224907 64.429016,51.19982 64.74734,51.14988 C65.00343,51.1097 65.49573,51.004192 65.78964,50.85142 C65.848366,50.8209 65.900894,50.77966 65.95502,50.741577 C66.08136,50.652683 66.20351,50.55787 66.33095,50.47056 C66.44034,50.395622 66.565475,50.342323 66.66525,50.255 C66.9798,49.979725 67.24623,49.651154 67.56973,49.386444 C67.89903,49.116974 68.259766,48.88765 68.617615,48.657425 C68.81117,48.53289 69.18152,48.452763 69.36798,48.37867 C69.44626,48.347565 69.51537,48.297073 69.58939,48.256878 C69.82631,48.12822 70.05965,47.99265 70.300804,47.872112 C70.36025,47.8424 70.42348,47.816467 70.48927,47.807083 C70.892525,47.749573 71.756905,47.754166 72.29583,47.542904 C72.41421,47.4965 72.50432,47.418503 72.60535,47.34401 L72.60535,47.34401" /><path fill="none" stroke="#000000" stroke-width="0.06mm" d="M67.85008,57.421963 C68.66348,57.46377 68.66608,57.43589 69.66249,57.68517 C69.89134,57.742424 70.110634,57.833694 70.32951,57.9217 C70.43377,57.963623 70.526924,58.029808 70.630135,58.07425 C70.771416,58.13508 70.83179,58.129723 70.98036,58.14422 L70.98036,58.14422" /></g>
<g>
<line fill="none" stroke="#111111" stroke-width="0.04mm" x1="20.00" y1="25.00" x2="26.91" y2="24.23" />
<line fill="none" stroke="#5674b9" stroke-width="0.04mm" stroke-dasharray="0.4,0.2" x1="26.91" y1="24.23" x2="27.02" y2="24.15" />
<line fill="none" stroke="#5674b9" stroke-width="0.04mm" stroke-dasharray="0.4,0.2" x1="26.91" y1="24.23" x2="26.49" y2="26.20" />
<line fill="none" stroke="#5674b9" stroke-width="0.04mm" stroke-dasharray="0.4,0.2" x1="26.91" y1="24.23" x2="27.47" y2="21.73" />
<line fill="none" stroke="#111111" stroke-width="0.04mm" x1="26.91" y1="24.23" x2="37.56" y2="22.43" />
<line fill="none" stroke="#5674b9" stroke-width="0.04mm" stroke-dasharray="0.4,0.2" x1="37.56" y1="22.43" x2="37.53" y2="22.34" />
<line fill="none" stroke="#5674b9" stroke-width="0.04mm" stroke-dasharray="0.4,0.2" x1="37.56" y1="22.43" x2="37.76" y2="19.79" />
<line fill="none" stroke="#5674b9" stroke-width="0.04mm" stroke-dasharray="0.4,0.2" x1="37.56" y1="22.43" x2="36.76" y2="28.53" />
<line fill="none" stroke="#111111" stroke-width="0.04mm" x1="37.56" y1="22.43" x2="40.48" y2="23.92" />
<line fill="none" stroke="#00aeef" stroke-width="0.04mm" stroke-dasharray="0.4,0.2" x1="40.48" y1="23.92" x2="39.82" y2="21.95" />
<line fill="none" stroke="#00aeef" stroke-width="0.04mm" stroke-dasharray="0.4,0.2" x1="40.48" y1="23.92" x2="38.73" y2="28.23" />
<line fill="none" stroke="#00aeef" stroke-width="0.04mm" stroke-dasharray="0.4,0.2" x1="40.48" y1="23.92" x2="39.64" y2="24.16" />
<line fill="none" stroke="#111111" stroke-width="0.04mm" x1="40.48" y1="23.92" x2="46.80" y2="34.13" />
<line fill="none" stroke="#5674b9" stroke-width="0.04mm" stroke-dasharray="0.4,0.2" x1="46.80" y1="34.13" x2="43.99" y2="34.16" />
<line fill="none" stroke="#5674b9" stroke-width="0.04mm" stroke-dasharray="0.4,0.2" x1="46.80" y1="34.13" x2="43.61" y2="24.22" />
<line fill="none" stroke="#5674b9" stroke-width="0.04mm" stroke-dasharray="0.4,0.2" x1="46.80" y1="34.13" x2="48.23" y2="45.00" />
<line fill="none" stroke="#111111" stroke-width="0.04mm" x1="46.80" y1="34.13" x2="58.86" y2="42.28" />
<line fill="none" stroke="#5674b9" stroke-width="0.04mm" stroke-dasharray="0.4,0.2" x1="58.86" y1="42.28" x2="58.76" y2="42.30" />
<line fill="none" stroke="#5674b9" stroke-width="0.04mm" stroke-dasharray="0.4,0.2" x1="58.86" y1="42.28" x2="58.23" y2="39.60" />
<line fill="none" stroke="#5674b9" stroke-width="0.04mm" stroke-dasharray="0.4,0.2" x1="58.86" y1="42.28" x2="58.09" y2="53.42" />
<line fill="none" stroke="#111111" stroke-width="0.04mm" x1="58.86" y1="42.28" x2="60.85" y2="55.31" />
<line fill="none" stroke="#5674b9" stroke-width="0.04mm" stroke-dasharray="0.4,0.2" x1="60.85" y1="55.31" x2="59.74" y2="55.38" />
<line fill="none" stroke="#5674b9" stroke-width="0.04mm" stroke-dasharray="0.4,0.2" x1="60.85" y1="55.31" x2="59.92" y2="56.90" />
<line fill="none" stroke="#5674b9" stroke-width="0.04mm" stroke-dasharray="0.4,0.2" x1="60.85" y1="55.31" x2="60.38" y2="47.52" />
<line fill="none" stroke="#111111" stroke-width="0.04mm" x1="60.85" y1="55.31" x2="69.81" y2="55.07" />
<line fill="none" stroke="#5674b9" stroke-width="0.04mm" stroke-dasharray="0.4,0.2" opacity="0.96" x1="69.81" y1="55.07" x2="69.82" y2="54.90" />
<line fill="none" stroke="#00aeef" stroke-width="0.04mm" stroke-dasharray="0.4,0.2" x1="69.81" y1="55.07" x2="70.34" y2="57.90" />
<line fill="none" stroke="#5674b9" stroke-width="0.04mm" stroke-dasharray="0.4,0.2" x1="69.81" y1="55.07" x2="70.63" y2="47.75" />
</g>
<g>
<circle cx="20.00" cy="25.00" r="0.1" fill="#111111" />
<circle cx="26.91" cy="24.23" r="0.1" fill="#111111" />
<circle cx="37.56" cy="22.43" r="0.1" fill="#111111" />
<circle cx="40.48" cy="23.92" r="0.1" fill="#111111" />
<circle cx="46.80" cy="34.13" r="0.1" fill="#111111" />
<circle cx="58.86" cy="42.28" r="0.1" fill="#111111" />
<circle cx="60.85" cy="55.31" r="0.1" fill="#111111" />
<circle cx="69.81" cy="55.07" r="0.1" fill="#111111" />
</g>
<g>
<text x="20.20" y="25.00" font-size=".2mm" fill="#000000">0</text>
<text x="27.11" y="24.23" font-size=".2mm" fill="#000000">1</text>
<text x="37.76" y="22.43" font-size=".2mm" fill="#000000">2</text>
<text x="40.68" y="23.92" font-size=".2mm" fill="#000000">3</text>
<text x="47.00" y="34.13" font-size=".2mm" fill="#000000">4</text>
<text x="59.06" y="42.28" font-size=".2mm" fill="#000000">5</text>
<text x="61.05" y="55.31" font-size=".2mm" fill="#000000">6</text>
<text x="70.01" y="55.07" font-size=".2mm" fill="#000000">7</text>
</g>
<g>
</g>
</g>
</svg>