<?xml version="1.0" encoding="utf-8"?>
<!DOCTYPE svg PUBLIC "-//W3C//DTD SVG 1.1//EN" "http://www.w3.org/Graphics/SVG/1.1/DTD/svg11.dtd">
<svg version="1.1" id="Layer_1" xmlns="http://www.w3.org/2000/svg" xmlns:xlink="http://www.w3.org/1999/xlink" x="0px" y="0px" width="959mm" height="584mm" viewBox="0 0 959 584" enable-background="new 0 0 959 584" xml:space="preserve">
<symbol id="airflow" viewBox="-12 -12 24 24">
<path d="M-4.38,10.73l4.2-3.84V3.55L-4.07,7.13l-.31-.29L-.18,3V-6.89a3.37,3.37,0,0,0-1.68.53l1.68-4.15L0-11l.21.51h0v0l1.65,4.1A3.26,3.26,0,0,0,.24-6.89v14l-.08,0L-4.07,11Z"/>
<rect fill="none" x="-12" y="-12" width="24" height="24"/>
</symbol>
<symbol id="anastomosis" viewBox="-12 -12 24 24">
<path d="M2.23-4.78l.37.24L5.22-2.78l-.47.57L2.49-3.7l-4.61,8-.24.44-.37-.34L-5.22,2.3l.55-.52,2.1,1.82L2-4.39Z"/>
<rect fill="none" x="-12" y="-12" width="24" height="24"/>
</symbol>
<symbol id="bivouac" viewBox="-12 -12 24 24">
<path d="M.25-7.66l.24.58L.54-7l3.88.48-3.31.91L6,6H8.35v.48l-16.7.07V6.05h2.64L0-7.08Zm0,1.32L-5.13,6H-4l2.07-5L.2-4l2.09,5L4.37,6H5.44Z"/>
<rect fill="none" x="-12" y="-12" width="24" height="24"/>
</symbol>
<symbol id="bones" viewBox="-12 -12 24 24">
<path d="M2.44,4.27l-.16,0H2.13a.22.22,0,0,1-.11,0l-.1-.06a.39.39,0,0,1-.09-.11l-.08-.13a1.51,1.51,0,0,1-.06-.15l-.07-.17s0-.11-.08-.19-.06-.16-.08-.21a4.75,4.75,0,0,0-.38-.71c-.18-.29-.43-.64-.74-1A11.15,11.15,0,0,0-.7.32,6.73,6.73,0,0,0-2-.64a4.12,4.12,0,0,0-1.44-.52A1.64,1.64,0,0,1-5-2.19.72.72,0,0,1-5-2.44a1,1,0,0,1,0-.29A.52.52,0,0,1-4.87-3a.54.54,0,0,1,.35-.15L-4-3.22l.46,0a.54.54,0,0,0,.27-.06A.52.52,0,0,0-3-3.56a.74.74,0,0,0,.13-.31.54.54,0,0,1,.15-.26.54.54,0,0,1,.3-.15.83.83,0,0,1,.47,0,1.11,1.11,0,0,1,.35.4A7.46,7.46,0,0,1-1-2.76q.18.42.33.72a3.22,3.22,0,0,0,.39.57L.1-1a4.77,4.77,0,0,0,.58.43c.28.18.51.33.69.43l1,.56a1.84,1.84,0,0,0,.39.23A5.29,5.29,0,0,1,3.22.9l.43.26a3.7,3.7,0,0,1,.46.3l.36.29a2.28,2.28,0,0,1,.31.32A1,1,0,0,1,5,2.4c.2.48,0,.78-.47.91h0a8.48,8.48,0,0,0-1.12.09,1,1,0,0,0-.42.44A1,1,0,0,1,2.44,4.27Z"/>
<rect fill="none" x="-12" y="-12" width="24" height="24"/>
</symbol>
<symbol id="calcite" viewBox="-12 -12 24 24">
<path d="M2.36-2.22l.05.46.34,3.91L2,2.22,1.65-1.26-2.52-.06l-.23-.7L1.89-2.08Z"/>
<rect fill="none" x="-12" y="-12" width="24" height="24"/>
</symbol>
<symbol id="cauliflower" viewBox="-12 -12 24 24">
<path d="M5.58,3.22v-3A2.12,2.12,0,0,0,6.92-.43a1.78,1.78,0,0,0,.55-1.32,1.92,1.92,0,0,0-.65-1.42,2.19,2.19,0,0,0-1.53-.59,2.21,2.21,0,0,0-1.54.59,1.78,1.78,0,0,0-.64,1.42A1.86,1.86,0,0,0,3.65-.43,2.12,2.12,0,0,0,5,.23v3H.26v-3A2.17,2.17,0,0,0,1.61-.43a1.81,1.81,0,0,0,.54-1.32,1.91,1.91,0,0,0-.64-1.42A2.21,2.21,0,0,0,0-3.76a2.21,2.21,0,0,0-1.54.59,1.82,1.82,0,0,0-.64,1.42A1.83,1.83,0,0,0-1.66-.43,2.12,2.12,0,0,0-.32.23v3H-5v-3A2.12,2.12,0,0,0-3.71-.43a1.78,1.78,0,0,0,.55-1.32,1.92,1.92,0,0,0-.65-1.42,2.19,2.19,0,0,0-1.53-.59,2.21,2.21,0,0,0-1.54.59,1.83,1.83,0,0,0-.65,1.42A1.87,1.87,0,0,0-7-.43,2.12,2.12,0,0,0-5.64.23v3H-8v.54H8V3.22Z"/>
<rect fill="none" x="-12" y="-12" width="24" height="24"/>
</symbol>
<symbol id="clay" viewBox="-12 -12 24 24">
<path d="M1.85-1.33a3,3,0,0,1,1.67.48,3.23,3.23,0,0,1,1,1l.29.51-1,.43a3.81,3.81,0,0,0-.23-.4A3.74,3.74,0,0,0,2.93,0,1.77,1.77,0,0,0,1.85-.32a2.57,2.57,0,0,0-1.1.15A.86.86,0,0,0,.51.14,2.23,2.23,0,0,1,0,.88a2.55,2.55,0,0,1-1.45.43,3.16,3.16,0,0,1-2.75-1,4.28,4.28,0,0,1-.37-.57,3.91,3.91,0,0,1-.21-.47l0-.16,1-.22a1.87,1.87,0,0,0,.45.79A2.12,2.12,0,0,0-1.51.33,1.82,1.82,0,0,0-.69.14l.21-.36A1.53,1.53,0,0,1,.17-1,3.76,3.76,0,0,1,1.85-1.33Z"/>
<rect fill="none" x="-12" y="-12" width="24" height="24"/>
</symbol>
<symbol id="crystals" viewBox="-12 -12 24 24">
<path d="M-2.94-5.38,0-.72,2.94-5.38,3.62-5,.68-.36H6.56V.36H.68L3.62,5l-.68.36L0,.72-2.94,5.38-3.62,5-.68.36H-6.56V-.36H-.68L-3.62-5Z"/>
<rect fill="none" x="-12" y="-12" width="24" height="24"/>
</symbol>
<symbol id="curtain" viewBox="-12 -12 24 24">
<path d="M3.57-6.69l.52.53L.39-3V-.33L.1-.26a3.79,3.79,0,0,0-1,.41c-.58.3-.87.65-.87,1v.07A1.61,1.61,0,0,0-.84,2.48a3.69,3.69,0,0,0,.45.24L0,2.86l.13.05L.39,3V6.12H-.39V3.51a7.65,7.65,0,0,1-.9-.46A2.19,2.19,0,0,1-2.54,1.28V1.23A2,2,0,0,1-1.31-.48,5.32,5.32,0,0,1-.39-.86V-3l-3.7-3.14.52-.53L0-3.67Z"/>
<rect fill="none" x="-12" y="-12" width="24" height="24"/>
</symbol>
<symbol id="disk" viewBox="-12 -12 24 24">
<path d="M-.09-4.19a2.43,2.43,0,0,1,1.7.64A2,2,0,0,1,2.35-2,2.09,2.09,0,0,1,1.81-.55,2.44,2.44,0,0,1,.35.23l2.18,3.6-.68.33L0,1.14-1.48,4.19l-.71-.29L-.41.25A2.53,2.53,0,0,1-1.9-.47a2,2,0,0,1-.63-1.41,2,2,0,0,1,.67-1.61,2.46,2.46,0,0,1,1.72-.7ZM1.05-3.06.56-3.49l-.69,0A1.72,1.72,0,0,0-1.29-3a1.51,1.51,0,0,0-.45,1.08,1.36,1.36,0,0,0,.51,1A1.68,1.68,0,0,0-.07-.44v0l0,0A1.7,1.7,0,0,0,1.11-.92,1.36,1.36,0,0,0,1.56-2,1.47,1.47,0,0,0,1.05-3.06Z"/>
<rect fill="none" x="-12" y="-12" width="24" height="24"/>
</symbol>
<symbol id="entrance" viewBox="-12 -12 24 24">
<path d="M4.46,9H-4.46L0-9Z"/>
<rect fill="none" x="-12" y="-12" width="24" height="24"/>
</symbol>
<symbol id="flowstone" viewBox="-12 -12 24 24">
<rect x="-6" y="-0.21" width="12" height="0.42"/>
<rect fill="none" x="-12" y="-12" width="24" height="24"/>
</symbol>
<symbol id="flutes" viewBox="-12 -12 24 24">
<path d="M-7-1H7v.72H3.87A4.7,4.7,0,0,1,2.16,1.5,4.2,4.2,0,0,1,0,2.13,3.94,3.94,0,0,1-2.19,1.5,4.18,4.18,0,0,1-3.76-.27H-7Zm4.17.72A3.15,3.15,0,0,0-1.65,1,3.21,3.21,0,0,0,0,1.41,3.49,3.49,0,0,0,1.6,1,3.68,3.68,0,0,0,3-.27Z"/>
<rect fill="none" x="-12" y="-12" width="24" height="24"/>
</symbol>
<symbol id="gradient" viewBox="-12 -12 24 24">
<path d="M2.58-3.83,0-10-2.58-3.83A4.74,4.74,0,0,1-.17-4.5V10H.25V-4.5A6.65,6.65,0,0,1,2.58-3.83Z"/>
<rect fill="none" x="-12" y="-12" width="24" height="24"/>
</symbol>
<symbol id="guano" viewBox="-12 -12 24 24">
<path d="M-3.24-3a2.15,2.15,0,0,1,1.57.55A3.93,3.93,0,0,1-.59.24a4.32,4.32,0,0,1,2.75-2.3,2.68,2.68,0,0,1,2.23.36A2.36,2.36,0,0,1,5.5.19l-.79,0a1.72,1.72,0,0,0-.79-1.37,1.94,1.94,0,0,0-1.55-.24A3.53,3.53,0,0,0,.48,0,6.63,6.63,0,0,0-.69,3l-.79-.09a10.72,10.72,0,0,0,0-3.16A3.21,3.21,0,0,0-2.22-2,1.44,1.44,0,0,0-3.37-2.3,3.45,3.45,0,0,0-5-1.54l-.5-.55a4.29,4.29,0,0,1,2-.91A.9.9,0,0,1-3.24-3Z"/>
<rect fill="none" x="-12" y="-12" width="24" height="24"/>
</symbol>
<symbol id="helictites" viewBox="-12 -12 24 24">
<path d="M-4.59-7.92h.79v7.7l3.41,0V-7.92H.39V-.17L4.2-.12h.39v8H3.8V.6L.39.55V7.92H-.39V.55L-4.2.5l-.39,0v-8.4Z"/>
<rect fill="none" x="-12" y="-12" width="24" height="24"/>
</symbol>
<symbol id="human" viewBox="-12 -12 24 24">
<path d="M-3.59-3.29A5.13,5.13,0,0,1,0-4.66,5.13,5.13,0,0,1,3.59-3.29,4.3,4.3,0,0,1,5.09,0a4.3,4.3,0,0,1-1.5,3.29A5.13,5.13,0,0,1,0,4.66,5.13,5.13,0,0,1-3.59,3.29,4.3,4.3,0,0,1-5.09,0,4.3,4.3,0,0,1-3.59-3.29Zm.28.77A3.68,3.68,0,0,0-4.3,0a3.62,3.62,0,0,0,1,2.57L-.5.05ZM0-3.94A4.42,4.42,0,0,0-2.75-3L.16-.36H4.28A3.62,3.62,0,0,0,2.91-2.9,4.38,4.38,0,0,0,0-3.94ZM.16.46-2.7,3.07A4.42,4.42,0,0,0,0,3.94a4.37,4.37,0,0,0,2.87-1A3.78,3.78,0,0,0,4.28.46Z"/>
<rect fill="none" x="-12" y="-12" width="24" height="24"/>
</symbol>
<symbol id="karren" viewBox="-12 -12 24 24">
<path d="M1-5.84h0a1.37,1.37,0,0,1,1.06.68A3.33,3.33,0,0,1,2.5-3.79,25.79,25.79,0,0,1,2.36,0a18.61,18.61,0,0,0-.08,3.72,2.68,2.68,0,0,0,.41,1.2,1.13,1.13,0,0,0,.79.5A.92.92,0,0,0,4,4.94a4.43,4.43,0,0,0,.47-1.22c.16-.64.36-1.86.59-3.66a26.71,26.71,0,0,1,.64-3.69,4.62,4.62,0,0,1,.57-1.29,1.34,1.34,0,0,1,1-.59h0A1.28,1.28,0,0,1,8.37-5a2.17,2.17,0,0,1,.39,1.15A19.91,19.91,0,0,1,8.54-.53a21.51,21.51,0,0,0-.2,3.64A2.64,2.64,0,0,0,9.45,5.36,1.91,1.91,0,0,0,10.88,5a3.84,3.84,0,0,0,.7-1l.42.2-.1.18-.12.21-.11.18L11.52,5a.94.94,0,0,1-.14.16c-.06.07-.13.12-.19.18a2.5,2.5,0,0,1-1.85.41H9.29l0,0A3.06,3.06,0,0,1,7.87,3.13a22.11,22.11,0,0,1,.2-3.7,18.17,18.17,0,0,0,.22-3.28A1.85,1.85,0,0,0,8-4.79a.77.77,0,0,0-.67-.3.93.93,0,0,0-.64.42,4.51,4.51,0,0,0-.51,1.15A26.26,26.26,0,0,0,5.54.1c-.24,1.83-.45,3.07-.61,3.72a5.38,5.38,0,0,1-.51,1.34,1.33,1.33,0,0,1-.89.68H3.47A1.58,1.58,0,0,1,2.3,5.16a3.29,3.29,0,0,1-.49-1.4A20.27,20.27,0,0,1,1.89,0,23.45,23.45,0,0,0,2-3.75a2.94,2.94,0,0,0-.32-1.19A.93.93,0,0,0,1-5.42,1.1,1.1,0,0,0,.19-5,3.69,3.69,0,0,0-.43-3.76,20.78,20.78,0,0,0-1.07.07c-.2,2-.37,3.32-.49,3.86A4.48,4.48,0,0,1-2,5.26,1.06,1.06,0,0,1-3,5.81h0a1.9,1.9,0,0,1-1.29-.67,2.7,2.7,0,0,1-.58-1.31,14.92,14.92,0,0,1,0-3.6q0-.12.06-.54c0-.28,0-.47,0-.57s0-.28,0-.52,0-.42,0-.55,0-.28,0-.47,0-.36,0-.51,0-.29,0-.43A3.09,3.09,0,0,0-5-4.62a1.19,1.19,0,0,0-.67-.6,1.5,1.5,0,0,0-1.2.9A7,7,0,0,0-7.41-2.1c0,.39-.1,1-.14,1.76s-.11,1.47-.18,2.08A9.61,9.61,0,0,1-8,3.32h0l0,0A2.81,2.81,0,0,1-9.2,4.62a1.82,1.82,0,0,1-1.35.15A1.94,1.94,0,0,1-11.61,4,2.39,2.39,0,0,1-12,2.56l.47,0a1.92,1.92,0,0,0,.31,1.16,1.47,1.47,0,0,0,.81.62,1.3,1.3,0,0,0,1-.11A2.32,2.32,0,0,0-8.5,3.18a7.53,7.53,0,0,0,.29-1.5Q-8.1.8-8-.36c0-.78.1-1.37.16-1.78A7.23,7.23,0,0,1-7.28-4.5,1.93,1.93,0,0,1-5.65-5.66h.05l0,0a1.59,1.59,0,0,1,1,.84,3.47,3.47,0,0,1,.34,1.41,4.91,4.91,0,0,1,0,.57v.54c0,.15,0,.37,0,.66s0,.47,0,.58,0,.33-.06.68,0,.56-.06.63a14.78,14.78,0,0,0,0,3.49,2.58,2.58,0,0,0,.5,1.13,1.57,1.57,0,0,0,1,.5A.61.61,0,0,0-2.44,5,3.89,3.89,0,0,0-2,3.85C-1.9,3.31-1.74,2-1.53,0A20.65,20.65,0,0,1-.86-3.89,3.89,3.89,0,0,1-.18-5.26,1.58,1.58,0,0,1,1-5.84Z"/>
<rect fill="none" x="-12" y="-12" width="24" height="24"/>
</symbol>
<symbol id="moonmilk" viewBox="-12 -12 24 24">
<path d="M-4.78-3.06a3.39,3.39,0,0,1,1.5.34,2.48,2.48,0,0,1,1.1,1,3.74,3.74,0,0,1,1.62-.8,3.52,3.52,0,0,1,1.71,0,2.9,2.9,0,0,1,1.39.77A2.49,2.49,0,0,1,3.25-.37,4,4,0,0,1,5-.76a3.58,3.58,0,0,1,1.6.36A2.84,2.84,0,0,1,7.88.92a2.32,2.32,0,0,1,0,1.88.34.34,0,0,1-.37.26A.36.36,0,0,1,7.25,3a.32.32,0,0,1-.12-.25.21.21,0,0,1,0-.12,2,2,0,0,0,0-1.43,2,2,0,0,0-1-.9A2.81,2.81,0,0,0,4.68,0,2.78,2.78,0,0,0,3.12.56L2.46.25A1.7,1.7,0,0,0,2.15-1.1,2.15,2.15,0,0,0,1-1.81a2.85,2.85,0,0,0-1.58.06A3,3,0,0,0-2-.83l-.71-.12A1.74,1.74,0,0,0-3.55-2a2.36,2.36,0,0,0-1.39-.27,3.08,3.08,0,0,0-1.45.53A2.33,2.33,0,0,0-7.32-.56a.35.35,0,0,1-.37.24A.39.39,0,0,1-8-.42a.33.33,0,0,1-.1-.26v-.1A3,3,0,0,1-6.89-2.35,4,4,0,0,1-5-3Z"/>
<rect fill="none" x="-12" y="-12" width="24" height="24"/>
</symbol>
<symbol id="narrow" viewBox="-12 -12 24 24">
<path d="M-1.5,5V-5h0.64V5H-1.5z"/>
<path d="M0.86,5V-5H1.5V5H0.86z"/>
<rect fill="none" x="-12" y="-12" width="24" height="24"/>
</symbol>
<symbol id="paleoflow" viewBox="-12 -12 24 24">
<path d="M.38-12V.17A1.9,1.9,0,0,0,1,0,1.57,1.57,0,0,0,1.7-.72a1.86,1.86,0,0,0,.23-1c0-.09,0-.14.08-.16a.92.92,0,0,1,.24,0,.52.52,0,0,0,.25,0h.08A2.48,2.48,0,0,1,2,0,2.5,2.5,0,0,1,.38.77V7.21H2.09L0,12-1.8,7.23c.07,0,.59,0,1.53,0V.77A3,3,0,0,1-1.35.43a2.16,2.16,0,0,1-1-1,2.38,2.38,0,0,1-.24-1.33l.67,0a2,2,0,0,0,.15,1,1.73,1.73,0,0,0,.59.67A2.14,2.14,0,0,0-.27.16V-12Z"/>
<rect fill="none" x="-12" y="-12" width="24" height="24"/>
</symbol>
<symbol id="rain" viewBox="-12 -12 24 24">
<path d="M-4.14-6.34h0.71v4.69h-0.71V-6.34z"/>
<path d="M-0.35-6.34h0.71v4.69h-0.71V-6.34z"/>
<path d="M3.43-6.34h0.71v4.69H3.43V-6.34z"/>
<path d="M-4.14,1.65h0.71v4.69h-0.71V1.65z"/>
<path d="M-0.35,1.65h0.71v4.69h-0.71V1.65z"/>
<path d="M3.43,1.65h0.71v4.69H3.43V1.65z"/>
<rect fill="none" x="-12" y="-12" width="24" height="24"/>
</symbol>
<symbol id="rats" viewBox="-12 -12 24 24">
<path d="M8.78-2.32,7-2.27c-.51-.17-.65-.56-1.46-.45l-.25.45C3.59-2.75,2.59-3.66.56-3.62l-1.35.3A4.89,4.89,0,0,0-4.24,1.57c-.68.6-2.58.86-3.39.94a6.84,6.84,0,0,0-1.62.39,4.91,4.91,0,0,0-1,.52A1.75,1.75,0,0,0-11,4.61a1.16,1.16,0,0,0,.59,1.48,1.3,1.3,0,0,1,.14.12c.16-.52-.35-.92-.2-1.42a3.35,3.35,0,0,1,.27-.45,3.18,3.18,0,0,1,1.79-1c.63-.12,1.27-.22,1.91-.3.48-.07,1,0,1.4-.12A6.94,6.94,0,0,1-4,2.82,30.64,30.64,0,0,0,.41,2.69l2.16.15c.1-.09,0,0,.1-.15a.87.87,0,0,0-.9-.55c.86-1,2.27-.37,3.1-.05.5.19,1,0,1.25.4.11-.1.1-.07.15-.25.3,0,.31.07.6.15-.06-.49-.34-.64-1-.6a.78.78,0,0,1,0-.55C6.3.56,7.29.73,8.13.43a13.78,13.78,0,0,0,2.15-.9l.6-.85v-.2A16.9,16.9,0,0,0,8.78-2.32Z"/>
<rect fill="none" x="-12" y="-12" width="24" height="24"/>
</symbol>
<symbol id="sand" viewBox="-12 -12 24 24">
<path d="M-1.58,0.83c0.23,0.2,0.35,0.44,0.36,0.73c0.01,0.29-0.08,0.54-0.28,0.75c-0.2,0.21-0.46,0.32-0.78,0.33c-0.32,0.01-0.6-0.08-0.83-0.26C-3.36,2.19-3.49,1.95-3.5,1.67C-3.51,1.38-3.41,1.12-3.2,0.9c0.21-0.22,0.48-0.34,0.8-0.35C-2.08,0.54-1.81,0.64-1.58,0.83z"/>
<path d="M0.08-2.36c0.23,0.2,0.35,0.44,0.36,0.73c0.01,0.29-0.08,0.54-0.28,0.75c-0.2,0.21-0.46,0.32-0.78,0.33c-0.32,0.01-0.59-0.07-0.83-0.26s-0.37-0.42-0.38-0.71c-0.01-0.29,0.09-0.54,0.3-0.76c0.21-0.22,0.48-0.33,0.8-0.35C-0.42-2.65-0.14-2.56,0.08-2.36z"/>
<path d="M3.12,0.55c0.23,0.2,0.35,0.43,0.38,0.71c0.02,0.28-0.07,0.53-0.28,0.75C3,2.23,2.73,2.35,2.42,2.36C2.1,2.37,1.82,2.28,1.58,2.08C1.34,1.88,1.22,1.64,1.2,1.35c-0.01-0.29,0.09-0.54,0.3-0.75C1.72,0.4,1.99,0.29,2.3,0.28S2.89,0.36,3.12,0.55z"/>
<rect fill="none" x="-12" y="-12" width="24" height="24"/>
</symbol>
<symbol  id="scallops" viewBox="-12 -12 24 24">
<path d="M.05-3.74l.21,0A2.35,2.35,0,0,1,1.74-3a2,2,0,0,1,.59,1.55v0l0,0A9.59,9.59,0,0,1-.08,3.27l-.39.47-.27-.55A14.26,14.26,0,0,1-2.33-1.89v-.05l0-.05A2,2,0,0,1-1.44-3.3,2.42,2.42,0,0,1,.05-3.74ZM-.11-3A1.44,1.44,0,0,0-1.55-1.89,13.06,13.06,0,0,0-.29,2.33,8.6,8.6,0,0,0,1.55-1.54a1.41,1.41,0,0,0-.38-1A1.62,1.62,0,0,0,.18-3Z"/>
<rect fill="none" x="-12" y="-12" width="24" height="24"/>
</symbol>
<symbol  id="sink" viewBox="-12 -12 24 24">
<path d="M.72,9.41H.9c1.94,0,3.26-.54,3.94-1.51a3.61,3.61,0,0,0,.33-.69,2,2,0,0,0,.11-.54V6.46l.69,0a2.8,2.8,0,0,1-.58,1.78C4.58,9.39,3.1,10,.93,10H-.93q-3.25,0-4.46-1.8a2.74,2.74,0,0,1-.43-.83A2.37,2.37,0,0,1-6,6.67V6.43l.68,0A2.27,2.27,0,0,0-4.84,7.9c.68,1,2,1.47,3.93,1.48l.5,0ZM-1.46-10a.68.68,0,0,0,.16.41A2.77,2.77,0,0,0-.51-9l0,0a3.63,3.63,0,0,1,1,.7,1.15,1.15,0,0,1,.34.88c0,.58-.53,1.14-1.49,1.68-.68.42-1,.79-1,1.11s.3.61.84,1h0Q.61-2.86.46-1.78a3.51,3.51,0,0,1-1.55,2,.61.61,0,0,0-.26.41,1.67,1.67,0,0,0,.1.51,5.3,5.3,0,0,1,.32,1L.56,1.9.46,8.06-3.4,2.54l1.73-.28A6.16,6.16,0,0,0-2,1.39,1.7,1.7,0,0,1-2.09.58a1.21,1.21,0,0,1,.53-.82h0v0C-.75-.86-.33-1.38-.28-1.85s-.23-.87-.91-1.27h0C-2-3.6-2.37-4.1-2.4-4.61S-2-5.74-1.09-6.29C-.34-6.72.06-7.1.09-7.44a.67.67,0,0,0-.18-.43,3.17,3.17,0,0,0-.79-.58,2.93,2.93,0,0,1-1-.67A1.16,1.16,0,0,1-2.17-10Z"/>
<rect fill="none" x="-12" y="-12" width="24" height="24"/>
</symbol>
<symbol  id="spring" viewBox="-12 -12 24 24">
<path d="M-1.34-9.86,2.52-4.34.78-4.06a8,8,0,0,0,.29.87,1.4,1.4,0,0,1,.13.79,1.3,1.3,0,0,1-.52.84l0,0v0C-.13-.95-.55-.42-.61,0S-.37.91.31,1.3l0,0c.75.46,1.14,1,1.18,1.46S1.12,3.92.21,4.46C-.54,4.9-.94,5.29-1,5.64a.74.74,0,0,0,.18.43A3.2,3.2,0,0,0,0,6.62a3,3,0,0,1,1,.7,1.14,1.14,0,0,1,.31.86A1.74,1.74,0,0,1,.71,9.26H.92c1.92,0,3.22-.52,3.9-1.51a2.05,2.05,0,0,0,.35-.67,2.59,2.59,0,0,0,.1-.55l0-.19.65,0a2.84,2.84,0,0,1-.55,1.8C4.58,9.26,3.08,9.85.92,9.86H-.92c-2.17,0-3.66-.6-4.49-1.77a3.65,3.65,0,0,1-.4-.85A2.43,2.43,0,0,1-6,6.53V6.29l.66,0a2.08,2.08,0,0,0,.47,1.41c.68,1,2,1.5,3.91,1.51H-.4c.62-.43.94-.8,1-1.1a.76.76,0,0,0-.16-.43,3.25,3.25,0,0,0-.79-.51v0a3.8,3.8,0,0,1-1-.7,1.15,1.15,0,0,1-.34-.91q.06-.84,1.5-1.68c.68-.4,1-.77,1-1.1S.49,2.21,0,1.87c0,0,0,0,0,0C-1,1.32-1.44.69-1.34,0a3.58,3.58,0,0,1,1.55-2,.54.54,0,0,0,.23-.38A1.28,1.28,0,0,0,.37-3a4.57,4.57,0,0,1-.32-1l-1.49.24Z"/>
<rect fill="none" x="-12" y="-12" width="24" height="24"/>
</symbol>
<symbol  id="stalactite" viewBox="-12 -12 24 24">
<path d="M3.57-6.69l.52.53L.39-3V6.12H-.39V-3l-3.7-3.14.52-.53L0-3.67Z"/>
<rect fill="none" x="-12" y="-12" width="24" height="24"/>
</symbol>
<symbol  id="stalagmite" viewBox="-12 -12 24 24">
<path d="M.38-6.42V2.75L4.11,5.89l-.56.53L0,3.4l-3.57,3-.53-.53,3.7-3.14V-6.42Z"/>
<rect fill="none" x="-12" y="-12" width="24" height="24"/>
</symbol>
<symbol  id="stalagnate" viewBox="-12 -12 24 24">
<path d="M3.55-8.46l.56.53L.38-4.78v9L4.11,7.36l-.56.53L0,4.86l-3.57,3-.53-.53,3.7-3.14v-9l-3.7-3.15.53-.53L0-5.43Z"/>
<rect fill="none" x="-12" y="-12" width="24" height="24"/>
</symbol>
<symbol  id="straws" viewBox="-12 -12 24 24">
<path d="M-10.89-2.76H10.89V-2H9.63V.46H8.84V-2H8.29v5.6H7.5V-2H5.56V.7H4.77V-2H2.07V2.38H1.29V-2H-.1v3H-.89V-2H-3.2V4.11H-4V-2H-6.22L-6.16.75l-.79,0L-7-2H-8.32V2.33H-9.1V-2h-1.79Z"/>
<rect fill="none" x="-12" y="-12" width="24" height="24"/>
</symbol>
<symbol  id="water" viewBox="-12 -12 24 24">
<path d="M-1.72-9.86,2.11-4.32.38-4.06a6.49,6.49,0,0,0,.29.89,1.5,1.5,0,0,1,.13.79,1.2,1.2,0,0,1-.5.82h0l0,0C-.54-.94-1-.42-1,.05s.24.89.92,1.27h0c.77.48,1.17,1,1.19,1.49S.71,3.94-.2,4.49c-.75.43-1.13.81-1.15,1.15a.51.51,0,0,0,.18.43,2.66,2.66,0,0,0,.76.58,2.93,2.93,0,0,1,1,.67,1.16,1.16,0,0,1,.29.89C.84,8.75.42,9.3-.41,9.86l-.44-.55c.66-.45,1-.83,1-1.15A.47.47,0,0,0,0,7.75a2.84,2.84,0,0,0-.78-.53h0a3.87,3.87,0,0,1-1-.69,1.24,1.24,0,0,1-.34-.91c0-.58.54-1.14,1.52-1.68.66-.42,1-.79,1-1.11s-.3-.61-.84-1h0Q-1.9,1.06-1.74,0a3.44,3.44,0,0,1,1.54-2,.67.67,0,0,0,.27-.41A1.11,1.11,0,0,0,0-3a4.33,4.33,0,0,1-.31-1l-1.5.24Z"/>
<rect fill="none" x="-12" y="-12" width="24" height="24"/>
</symbol><symbol  id="tree" viewBox="-12 -12 24 24">
<path d="M7.4-5.04A4.271,4.271,0,0,0,7.7-6.627a4.3,4.3,0,0,0-4.3-4.3A4.279,4.279,0,0,0,.636-9.914,4.293,4.293,0,0,0-3.045-12a4.3,4.3,0,0,0-4.3,4.3,4.27,4.27,0,0,0,.421,1.845,4.3,4.3,0,0,0-3.645,4.244,4.3,4.3,0,0,0,4.3,4.3A4.282,4.282,0,0,0-3.946,2L-1.175,5.23h0L-1.612,12H.982L.757,6.376,4.119,2.827v0a4.272,4.272,0,0,0,2.15.58,4.3,4.3,0,0,0,4.3-4.3A4.3,4.3,0,0,0,7.4-5.04ZM-3.346,1.538h0A4.346,4.346,0,0,0-2.7.788a4.266,4.266,0,0,0,1.765.753l-.135,2.087ZM.69,4.7.563,1.544A4.258,4.258,0,0,0,2.321.805,4.3,4.3,0,0,0,3.378,2.279Z"/>
<rect fill="none" x="-12" y="-12" width="24" height="24"/>
</symbol><g>
<desc></desc>
<g>
<line fill="none" stroke="#dddddd" stroke-width="0.1mm" x1="0.00" y1="69.00" x2="959.00" y2="69.00" />
<text x="956.20" y="68.80" font-size=".2mm" fill="#000000">0m</text>
<line fill="none" stroke="#dddddd" stroke-width="0.1mm" x1="0.00" y1="49.00" x2="959.00" y2="49.00" />
<text x="956.20" y="48.80" font-size=".2mm" fill="#000000">1m</text>
<line fill="none" stroke="#dddddd" stroke-width="0.1mm" x1="0.00" y1="29.00" x2="959.00" y2="29.00" />
<text x="956.20" y="28.80" font-size=".2mm" fill="#000000">2m</text>
<line fill="none" stroke="#dddddd" stroke-width="0.1mm" x1="0.00" y1="9.00" x2="959.00" y2="9.00" />
<text x="956.20" y="8.80" font-size=".2mm" fill="#000000">3m</text>
<line fill="none" stroke="#dddddd" stroke-width="0.1mm" x1="0.00" y1="89.00" x2="959.00" y2="89.00" />
<text x="956.20" y="88.80" font-size=".2mm" fill="#000000">-1m</text>
<line fill="none" stroke="#dddddd" stroke-width="0.1mm" x1="0.00" y1="109.00" x2="959.00" y2="109.00" />
<text x="956.20" y="108.80" font-size=".2mm" fill="#000000">-2m</text>
<line fill="none" stroke="#dddddd" stroke-width="0.1mm" x1="0.00" y1="129.00" x2="959.00" y2="129.00" />
<text x="956.20" y="128.80" font-size=".2mm" fill="#000000">-3m</text>
<line fill="none" stroke="#dddddd" stroke-width="0.1mm" x1="0.00" y1="149.00" x2="959.00" y2="149.00" />
<text x="956.20" y="148.80" font-size=".2mm" fill="#000000">-4m</text>
<line fill="none" stroke="#dddddd" stroke-width="0.1mm" x1="0.00" y1="169.00" x2="959.00" y2="169.00" />
<text x="956.20" y="168.80" font-size=".2mm" fill="#000000">-5m</text>
<line fill="none" stroke="#dddddd" stroke-width="0.1mm" x1="0.00" y1="189.00" x2="959.00" y2="189.00" />
<text x="956.20" y="188.80" font-size=".2mm" fill="#000000">-6m</text>
<line fill="none" stroke="#dddddd" stroke-width="0.1mm" x1="0.00" y1="209.00" x2="959.00" y2="209.00" />
<text x="956.20" y="208.80" font-size=".2mm" fill="#000000">-7m</text>
<line fill="none" stroke="#dddddd" stroke-width="0.1mm" x1="0.00" y1="229.00" x2="959.00" y2="229.00" />
<text x="956.20" y="228.80" font-size=".2mm" fill="#000000">-8m</text>
<line fill="none" stroke="#dddddd" stroke-width="0.1mm" x1="0.00" y1="249.00" x2="959.00" y2="249.00" />
<text x="956.20" y="248.80" font-size=".2mm" fill="#000000">-9m</text>
<line fill="none" stroke="#dddddd" stroke-width="0.1mm" x1="0.00" y1="269.00" x2="959.00" y2="269.00" />
<text x="956.20" y="268.80" font-size=".2mm" fill="#000000">-10m</text>
<line fill="none" stroke="#dddddd" stroke-width="0.1mm" x1="0.00" y1="289.00" x2="959.00" y2="289.00" />
<text x="956.20" y="288.80" font-size=".2mm" fill="#000000">-11m</text>
<line fill="none" stroke="#dddddd" stroke-width="0.1mm" x1="0.00" y1="309.00" x2="959.00" y2="309.00" />
<text x="956.20" y="308.80" font-size=".2mm" fill="#000000">-12m</text>
<line fill="none" stroke="#dddddd" stroke-width="0.1mm" x1="0.00" y1="329.00" x2="959.00" y2="329.00" />
<text x="956.20" y="328.80" font-size=".2mm" fill="#000000">-13m</text>
<line fill="none" stroke="#dddddd" stroke-width="0.1mm" x1="0.00" y1="349.00" x2="959.00" y2="349.00" />
<text x="956.20" y="348.80" font-size=".2mm" fill="#000000">-14m</text>
<line fill="none" stroke="#dddddd" stroke-width="0.1mm" x1="0.00" y1="369.00" x2="959.00" y2="369.00" />
<text x="956.20" y="368.80" font-size=".2mm" fill="#000000">-15m</text>
<line fill="none" stroke="#dddddd" stroke-width="0.1mm" x1="0.00" y1="389.00" x2="959.00" y2="389.00" />
<text x="956.20" y="388.80" font-size=".2mm" fill="#000000">-16m</text>
<line fill="none" stroke="#dddddd" stroke-width="0.1mm" x1="0.00" y1="409.00" x2="959.00" y2="409.00" />
<text x="956.20" y="408.80" font-size=".2mm" fill="#000000">-17m</text>
<line fill="none" stroke="#dddddd" stroke-width="0.1mm" x1="0.00" y1="429.00" x2="959.00" y2="429.00" />
<text x="956.20" y="428.80" font-size=".2mm" fill="#000000">-18m</text>
<line fill="none" stroke="#dddddd" stroke-width="0.1mm" x1="0.00" y1="449.00" x2="959.00" y2="449.00" />
<text x="956.20" y="448.80" font-size=".2mm" fill="#000000">-19m</text>
<line fill="none" stroke="#dddddd" stroke-width="0.1mm" x1="0.00" y1="469.00" x2="959.00" y2="469.00" />
<text x="956.20" y="468.80" font-size=".2mm" fill="#000000">-20m</text>
<line fill="none" stroke="#dddddd" stroke-width="0.1mm" x1="0.00" y1="489.00" x2="959.00" y2="489.00" />
<text x="956.20" y="488.80" font-size=".2mm" fill="#000000">-21m</text>
<line fill="none" stroke="#dddddd" stroke-width="0.1mm" x1="0.00" y1="509.00" x2="959.00" y2="509.00" />
<text x="956.20" y="508.80" font-size=".2mm" fill="#000000">-22m</text>
<line fill="none" stroke="#dddddd" stroke-width="0.1mm" x1="0.00" y1="529.00" x2="959.00" y2="529.00" />
<text x="956.20" y="528.80" font-size=".2mm" fill="#000000">-23m</text>
<line fill="none" stroke="#dddddd" stroke-width="0.1mm" x1="0.00" y1="549.00" x2="959.00" y2="549.00" />
<text x="956.20" y="548.80" font-size=".2mm" fill="#000000">-24m</text>
<line fill="none" stroke="#dddddd" stroke-width="0.1mm" x1="0.00" y1="569.00" x2="959.00" y2="569.00" />
<text x="956.20" y="568.80" font-size=".2mm" fill="#000000">-25m</text>
</g>
<g>
<path fill="none" stroke="#000000" stroke-width="0.06mm" d="M110.15191,92.93388 C150.97421,65.518524 176.13023,60.983368 213.06181,45.940636 C224.62549,41.23059 235.97665,36.000057 247.60988,31.4645 C250.25357,30.433784 253.02335,29.659409 255.8333,29.264896 C260.78287,28.569977 265.80475,28.561607 270.79047,28.209957 L270.79047,28.209957" /><path fill="none" stroke="#000000" stroke-width="0.06mm" d="M136.83498,243.6062 L136.83498,243.10379" /><path fill="none" stroke="#000000" stroke-width="0.06mm" d="M137.4917,243.10379 C145.76497,242.69534 150.27322,241.37654 157.2225,243.14764 C158.68942,243.5215 160.09982,244.0897 161.5385,244.56075 L161.5385,244.56075" /><path fill="none" stroke="#000000" stroke-width="0.06mm" d="M162.80144,244.71146 C172.07964,243.00423 164.81317,244.20293 189.95772,237.7152 C200.4627,236.21344 211.01534,235.01372 221.47272,233.20998 C229.41046,231.84082 237.30417,230.17813 245.11288,228.20172 C248.39368,227.37134 251.45325,225.82367 254.68051,224.80495 C258.78735,223.50858 263.67786,226.0405 267.22308,227.62993 L267.22308,227.62993" /><path fill="none" stroke="#000000" stroke-width="0.06mm" d="M52.418633,140.41365 C56.538425,140.58322 58.49281,140.29292 62.487774,139.18964 C65.79875,138.27525 68.859406,136.50005 72.35887,137.75587 C78.39618,139.92242 85.43928,150.30394 87.92936,155.78558 C93.63326,168.34213 98.79648,181.13731 104.21714,193.81873 C104.70295,194.95526 105.23068,196.07611 105.64873,197.23932 C110.90461,211.86374 115.93057,226.57048 121.23711,241.1766 C121.75601,242.60487 122.89079,244.33176 123.93287,245.45569 C126.702225,248.44254 130.78598,249.71626 134.81216,249.2958 C136.14044,249.15709 136.83669,248.84018 138.02225,248.26904 C138.81857,247.88544 139.23796,247.51839 140.19888,247.62488 C145.40231,248.20152 145.74496,248.68161 151.63684,250.48903 L151.63684,250.48903" /><path fill="none" stroke="#000000" stroke-width="0.06mm" d="M18.369198,73.69521 C32.24209,111.19682 15.389435,63.131294 29.532654,115.7307 C31.355537,122.5101 34.12475,129.00098 36.61044,135.5664 C36.933853,136.42062 38.04995,137.85287 38.810276,138.45883 C43.50595,142.20108 49.37618,142.87238 55.227467,143.67738 C56.952393,143.91469 58.715,143.91446 60.450172,143.76996 C62.744995,143.57886 64.99743,143.03961 67.27106,142.67444 L67.27106,142.67444" /><path fill="none" stroke="#000000" stroke-width="0.06mm" d="M33.92889,58.824226 C34.143253,60.10649 34.56152,62.60825 34.614403,62.822334 C34.803658,63.588455 35.041695,64.36204 35.4497,65.03753 C43.37806,78.16378 51.70659,91.046036 59.602074,104.19209 C61.710125,107.70201 63.502293,111.39224 65.45241,114.99232 L65.45241,114.99232" /><path fill="none" stroke="#000000" stroke-width="0.06mm" d="M66.61431,116.95166 C77.87158,113.68561 87.424484,110.973724 100.26406,106.830795 C101.65748,106.38118 102.97943,105.67784 104.17764,104.83639 C109.2404,101.28105 114.073875,97.40987 119.002914,93.67135 C120.688065,92.39321 122.62575,90.48463 124.962425,90.5742 C127.96948,90.68948 130.91684,92.64578 133.45023,93.94185 L133.45023,93.94185" /><path fill="none" stroke="#000000" stroke-width="0.06mm" d="M114.101654,87.46092 C113.06515,90.17967 111.914276,92.90585 109.99592,95.11806 C109.67827,95.48437 109.3155,95.817154 108.91773,96.09442 C86.42992,111.76978 110.518684,95.1193 91.95678,106.445694 C89.85114,107.730545 88.83643,109.0759 87.27635,110.82243 L87.27635,110.82243" /><path fill="none" stroke="#000000" stroke-width="0.06mm" d="M271.46664,30.087074 L272.578,30.036835" /><path fill="none" stroke="#000000" stroke-width="0.06mm" d="M272.98218,31.694744 C279.57037,32.38019 283.17682,34.206486 287.73068,39.239223 C289.52332,41.220337 290.6986,43.759163 292.70288,45.525898 C295.23624,47.759087 298.34857,49.233505 301.17148,51.087303 L301.17148,51.087303" /><path fill="none" stroke="#000000" stroke-width="0.06mm" d="M271.7697,28.780827 C287.37097,36.90017 302.32104,46.281563 314.14014,59.490364 C320.49585,66.59339 326.92673,78.43548 330.1138,86.376465 C358.0223,155.91426 342.38266,116.34688 349.18024,142.15463 C349.7514,144.32315 350.62817,146.4141 351.05466,148.61563 C354.65396,167.19714 357.28833,185.96594 361.2517,204.47322 C362.56116,207.84055 363.87054,211.20789 365.18002,214.5752 C365.23972,214.63371 365.2878,214.70717 365.35916,214.75072 C365.86215,215.05768 366.8115,214.422 367.0788,214.14584 C369.04587,212.11353 370.89737,209.97241 372.80664,207.88568 L372.80664,207.88568" /><path fill="none" stroke="#000000" stroke-width="0.06mm" d="M265.32657,228.74802 C274.12952,234.56398 285.40817,231.63681 295.24854,233.49225 C297.5207,233.92067 299.71545,234.75458 302.00964,235.04248 C322.60275,237.62659 343.24814,239.77583 363.87183,242.10341 C369.5656,242.74602 364.2639,241.71864 371.99823,243.62674 L371.99823,243.62674" /><path fill="none" stroke="#000000" stroke-width="0.06mm" d="M365.4697,210.27522 C366.04306,212.21896 366.698,213.97342 368.5235,215.00801 C370.70587,216.24484 372.82782,217.61322 375.12527,218.62032 C377.50873,219.6651 380.02243,220.39066 382.5143,221.14091 C384.3769,221.7017 386.37268,221.82378 388.17722,222.54999 C390.52753,223.49583 392.6504,224.93005 394.88696,226.12009 L394.88696,226.12009" /><path fill="none" stroke="#000000" stroke-width="0.06mm" d="M394.80927,226.46791 C397.06036,227.78458 410.01755,234.97597 409.74,238.6019 C409.6829,239.34775 409.16797,239.87463 408.72125,240.4191 L408.72125,240.4191" /><path fill="none" stroke="#000000" stroke-width="0.06mm" d="M411.28604,239.14377 C415.621,239.39526 421.5522,237.69562 425.9409,240.01868 C428.19775,241.21329 430.1321,243.58334 431.6244,245.35474 C432.29276,246.14813 432.84912,247.04092 433.31396,247.96832 C436.15173,253.6293 438.8615,259.3544 441.52252,265.1006 C442.06924,266.28113 442.38968,267.55768 442.9331,268.73975 C443.69708,270.40146 444.93872,272.10632 446.4647,273.1586 C446.99182,273.52206 448.21045,274.14322 448.86295,274.18878 C454.48767,274.5813 460.12775,275.37814 465.75647,275.04706 C478.39777,274.30344 487.44815,269.11688 499.42398,264.8379 C503.1892,263.49255 507.0642,262.4745 510.8546,261.20184 C511.93353,260.8396 512.4093,260.26852 513.468,260.26486 C516.31836,260.25497 517.30896,260.85608 520.63904,261.71304 L520.63904,261.71304" /><path fill="none" stroke="#000000" stroke-width="0.06mm" d="M521.92145,274.6208 C521.89465,274.64703 521.86786,274.67328 521.84106,274.69955 C518.95215,277.36603 515.9891,279.95435 513.1742,282.6989 C510.98846,284.83008 509.2069,287.38367 506.84656,289.31967 C498.70404,295.9983 492.35663,299.36365 482.2015,302.51398 C475.24136,304.6732 466.2172,303.43225 459.5335,302.78302 C458.3264,302.66577 454.79062,301.30942 453.73804,301.02576 C452.60803,300.7212 451.42703,300.62222 450.30524,300.2887 C446.25577,299.08472 443.5271,296.31342 442.09567,292.38214 C441.4541,290.6202 441.3266,289.4221 441.27277,287.58038 C441.23996,286.45752 441.4133,285.326 441.28207,284.21033 C441.02646,282.0373 440.6102,279.88214 440.11652,277.75055 C439.9609,277.07877 439.69482,276.42468 439.34158,275.8325 C436.75186,271.4905 434.80035,268.13715 431.14407,264.8446 C425.93124,260.15033 420.5057,255.69785 415.1968,251.11258 C413.39514,249.55652 407.15137,242.10062 402.20578,241.35336 C394.33502,240.16411 392.9282,239.97337 385.14758,240.799 C384.3037,240.88855 383.48404,241.16006 382.68604,241.44876 C379.53442,242.589 376.4677,243.95659 373.31058,245.08151 C373.20886,245.11777 373.07495,244.98618 373.0571,244.87965 C373.02606,244.69446 373.09595,244.49643 373.1848,244.33102 C373.51117,243.72368 373.92224,243.16588 374.29102,242.5833 L374.29102,242.5833" /><path fill="none" stroke="#000000" stroke-width="0.06mm" d="M405.9622,230.37115 C411.19968,233.47992 410.34863,233.21095 416.8907,235.82016 C418.29272,236.37936 419.81003,236.63812 421.18,237.27187 C423.49835,238.34433 425.67215,239.70497 427.91824,240.92151 L427.91824,240.92151" /><path fill="none" stroke="#000000" stroke-width="0.06mm" d="M135.56824,246.95233 C148.15765,243.00168 147.66693,242.66919 160.94511,241.91418 C162.55292,241.82275 164.16588,242.04755 165.76607,242.22845 C166.11871,242.26831 166.3597,242.60394 166.29337,242.94177 C166.20886,243.37218 165.6438,244.0363 165.36726,244.25952 C163.91635,245.4307 162.50246,246.6689 160.91187,247.64195 C153.00352,252.47989 143.80891,253.56293 134.75241,253.87114 C134.70207,253.87286 130.02922,254.30962 129.81459,252.56924 C129.61339,250.93793 131.82246,249.40445 133.04353,248.92459 C142.26799,245.29947 148.77786,245.8331 158.95041,246.63641 C160.8874,246.78938 162.79042,247.24327 164.69194,247.64275 C165.29787,247.77005 166.64163,248.27477 166.5267,249.16003 C166.33743,250.61792 163.83516,251.75581 162.65709,251.88849 C148.5877,253.47299 146.6011,253.83289 133.95396,253.09592 C132.63171,253.01886 128.82385,252.2302 128.07712,250.81317 C127.763824,250.21864 128.20325,249.53542 128.6543,249.16754 C132.26405,246.22348 138.13808,243.76347 142.65082,243.2525 C147.95534,242.65189 153.31584,242.71208 158.65338,242.61478 C159.63284,242.59692 160.61633,242.71904 161.57768,242.90741 C162.85374,243.15744 160.91234,244.48943 160.81453,244.54762 C159.82771,245.1347 158.86076,245.79156 157.77844,246.17505 C155.1143,247.11893 152.41766,248.0607 149.62738,248.51114 C144.47006,249.3437 139.24268,249.71565 134.02682,250.00934 C132.2507,250.10933 130.4699,249.86493 128.69963,249.68951 C127.47348,249.56801 127.98252,248.74261 128.71838,248.36063 C129.99405,247.69841 131.27457,247.02014 132.6359,246.55907 C134.46625,245.93918 136.34451,245.4237 138.25467,245.13089 C146.30627,243.89662 153.65863,245.83183 161.84282,247.07303 C162.54393,247.17935 163.22589,247.4124 163.87971,247.68697 C164.6855,248.02536 163.15936,248.85577 163.12201,248.86952 C160.60295,249.79668 158.14601,251.01242 155.50143,251.47241 C149.0481,252.59491 142.49803,253.11191 135.9655,253.59311 C133.74977,253.75633 131.52185,253.51639 129.30305,253.40228 C129.1384,253.3938 128.97787,253.31807 128.84067,253.22665 C128.40454,252.93607 128.53268,252.3496 128.73862,251.96654 C129.85423,249.89143 131.82698,248.17343 133.82532,246.96793 C137.44865,244.78214 142.68849,245.143 146.43307,245.18039 C148.21614,245.19818 151.5129,245.55733 153.61102,246.28079 C155.54759,246.94855 154.24364,248.04614 153.08601,248.56696 C152.63185,248.77129 152.17397,249.0311 151.67703,249.06387 C147.37473,249.34778 143.05986,249.6304 138.74979,249.51302 C135.62477,249.42792 132.51987,248.93822 129.43079,248.45802 C129.24763,248.42955 129.05417,248.19278 129.09785,248.01262 C129.16818,247.72263 129.46378,247.53271 129.69952,247.34978 C131.2894,246.11594 134.0974,245.65077 135.94662,245.70932 C144.31009,245.9742 152.66559,246.47885 161.01393,247.04736 C162.04675,247.24074 163.07957,247.43408 164.11241,247.62744 C164.242,247.77716 164.612,247.91248 164.50122,248.0766 C164.2967,248.37964 163.86038,248.45425 163.50284,248.53064 C162.0497,248.84113 160.58287,249.13094 159.10027,249.23053 C148.41,249.94856 137.71454,250.66197 127.00496,250.98213 C126.50365,250.99713 127.79076,250.32912 128.2602,250.15251 C130.66162,249.24916 133.043,248.16983 135.57549,247.75807 C142.05792,246.70409 148.62619,246.22745 155.1782,245.77594 C157.51993,245.61455 159.87665,245.7627 162.21849,245.92207 C163.22607,245.99065 162.53247,246.72066 162.24391,246.96188 C161.84497,247.29536 161.4028,247.5857 160.93092,247.80403 C159.99698,248.23618 159.05981,248.72536 158.04639,248.90416 C151.50449,250.05841 144.92233,250.99069 138.32788,251.79208 C136.68437,251.82797 135.04103,251.9262 133.39734,251.89966 C133.09467,251.89478 132.83717,251.65659 132.86763,251.34747 C132.98947,250.1107 135.91296,247.95851 136.07182,247.83482 C142.36816,242.93248 152.52359,243.7254 159.75452,243.9159 C160.71436,243.94118 161.65695,244.18527 162.59839,244.37407 C162.78404,244.4113 163.20105,244.56258 163.19395,244.85419 C163.18704,245.13847 162.73569,245.54498 162.56766,245.63516 C160.98546,246.48436 159.4141,247.37143 157.74889,248.04337 C156.26344,248.64279 154.72926,249.1706 153.14952,249.43561 C148.789,250.16713 144.39261,250.73477 139.98065,251.02417 C137.39755,251.1936 134.8021,250.95667 132.21768,250.80861 C131.28482,250.75516 131.68546,249.87625 132.13272,249.55759 C133.18616,248.8071 134.2518,248.05847 135.40358,247.46994 C136.79312,246.75992 138.22247,246.0877 139.7278,245.6767 C147.87192,243.45305 155.38754,243.84285 164.04462,244.0161 C166.1895,244.26466 168.33435,244.51323 170.47923,244.76181 C170.64078,244.87805 170.87288,244.93347 170.96385,245.11046 C171.55197,246.25485 167.14935,248.3003 166.80524,248.35793 C156.9382,250.01062 147.0347,251.47652 137.09506,252.6139 C134.56856,252.90303 132.00784,252.71086 129.46611,252.63066 C129.20209,252.62231 126.76065,252.6805 126.59712,251.62672 C126.45169,250.6896 127.67345,249.37732 128.11841,248.90099 C131.05028,245.76251 135.36711,244.80075 139.54926,244.20334 C145.90872,243.29492 152.34059,242.9578 158.75496,242.60562 C160.13326,242.52994 161.518,242.7233 162.88397,242.92221 C163.88867,243.06853 168.81975,244.36285 168.3748,245.80107 C168.23676,246.24728 167.57109,246.69885 167.22409,246.85738 C165.67468,247.56516 164.15329,248.38011 162.51123,248.83316 C159.44043,249.68042 156.32814,250.57312 153.14706,250.74133 C142.31503,251.31407 131.45369,250.94632 120.607,251.04881 L120.607,251.04881" /><path fill="none" stroke="#000000" stroke-width="0.06mm" d="M45.140213,140.48262 C48.716957,138.39975 49.267456,137.77219 54.48009,136.8848 C58.038376,136.27902 61.663017,136.12442 65.268486,135.95435 C67.04122,135.8707 70.05847,135.63733 71.37964,137.41269 C71.73648,137.89221 72.013275,138.47083 71.851456,139.07867 C71.31847,141.08081 66.26327,142.67442 65.78594,142.82126 C53.179676,146.69919 50.52069,146.1121 35.775272,146.14848 C34.821224,146.15083 33.87709,145.91374 32.950943,145.68471 C32.44519,145.55963 31.92352,145.40204 31.504585,145.09233 C31.365227,144.98932 31.352104,144.7181 31.450253,144.57526 C31.63992,144.29926 31.947475,144.09479 32.26441,143.98657 C35.66474,142.82562 39.02295,141.43384 42.556618,140.78326 C47.818134,139.81458 53.183304,139.47754 58.523342,139.15207 C60.060883,139.05836 63.468193,139.07872 65.55295,139.76543 C67.59904,140.43942 68.94035,143.18756 66.167046,143.90706 C59.387962,145.6658 57.762417,146.53271 50.42789,146.07526 C47.569813,145.89699 44.767838,145.19644 41.950153,144.68552 C41.64347,144.6299 41.328773,144.5473 41.06716,144.37787 C40.567783,144.05449 40.789375,143.6427 41.17485,143.3396 C41.709877,142.91888 42.298782,142.56476 42.904816,142.25494 C49.061752,139.10762 68.790085,140.2612 69.67943,140.25586 C69.82937,140.25494 70.014145,140.48265 69.947586,140.617 C69.3797,141.76343 65.490326,143.31519 64.32443,143.4371 C58.27062,144.07013 52.22464,144.82077 46.214153,143.68494 C45.01778,143.45885 43.873325,143.00986 42.72293,142.61108 C42.530228,142.5443 41.430435,142.11227 41.42038,141.63664 C41.411076,141.19672 42.34533,140.86502 42.552223,140.80057 C43.46237,140.51704 44.360447,140.11937 45.31097,140.0468 C49.907413,139.6959 54.521126,139.53084 59.13094,139.53493 C60.544098,139.5362 61.950768,139.79044 63.337433,140.06282 C64.36242,140.36362 65.387405,140.66444 66.4124,140.96524 C66.32507,141.05362 66.27464,141.23305 66.15045,141.23032 C56.927612,141.02791 47.70062,140.85373 38.48919,140.35242 C38.18137,140.33566 38.91574,139.87701 39.20245,139.76373 C40.76897,139.14484 42.34439,138.48853 43.999393,138.17548 C48.22458,137.37631 52.49493,136.77002 56.78225,136.43866 C59.6518,136.21686 62.542057,136.36896 65.41618,136.5202 C65.60947,136.53036 65.86818,136.72363 65.84163,136.91534 C65.72127,137.7844 61.92536,139.40083 61.05171,139.46191 C53.187035,140.01181 47.40227,140.30446 39.948288,139.06497 C39.77249,139.03574 40.176674,138.79132 40.29087,138.65451 C41.711254,138.2874 43.088844,137.6598 44.552025,137.55319 C49.841694,137.16776 55.157017,137.04407 60.458836,137.18494 C63.18224,137.2573 65.88208,137.74556 68.56973,138.19128 C68.78943,138.22772 72.11385,138.94836 72.17223,139.95285 C72.20032,140.43602 71.24562,140.80698 71.03259,140.88101 C70.04682,141.22357 69.064224,141.60992 68.03576,141.78708 C64.53079,142.39084 61.01803,143.3036 57.462463,143.2185 C52.17477,143.09196 46.96925,141.87741 41.729263,141.1575 C41.607098,141.14072 41.47187,141.10243 41.38985,141.01035 C41.352737,140.96869 41.415695,140.88702 41.464905,140.86072 C41.6156,140.78017 41.784325,140.72476 41.954426,140.70859 C44.28583,140.48705 46.61949,140.01892 48.9578,140.14868 C52.489372,140.34467 56.050423,140.73096 59.45775,141.67992 C62.979435,142.66074 66.20816,144.48868 69.58337,145.89304 L69.58337,145.89304" /><path fill="none" stroke="#000000" stroke-width="0.06mm" d="M88.31406,165.29333 C89.69883,167.07175 91.20386,168.76271 92.46837,170.62854 C94.78791,174.05109 96.03298,178.36142 95.461,182.47943 C95.058624,185.37631 92.838,191.90231 94.84492,195.4245 C95.72105,196.96213 96.99094,198.28708 98.53895,199.15466 C99.52262,199.70598 100.43328,199.79645 101.49774,200.23555 C102.62894,200.70218 103.82625,201.8153 104.01688,203.08176 C104.319595,205.0928 101.2836,208.78735 101.024124,209.27829 C100.69812,209.89508 100.496765,210.86618 100.485374,211.5821 C100.44487,214.12694 103.049995,215.57428 104.79084,216.9244 L104.79084,216.9244" /><path fill="none" stroke="#000000" stroke-width="0.06mm" d="M113.34012,204.51904 C113.326004,204.54736 113.31189,204.57568 113.29779,204.604 C112.47754,206.16829 111.48123,207.6522 110.837036,209.29681 C109.73575,212.10849 109.05507,215.06815 108.0797,217.92593 C107.71866,218.98376 106.41864,218.98654 105.590775,218.61348 C98.543365,215.43777 91.4709,212.31541 84.47585,209.02599 C84.3824,208.98203 84.53482,208.80714 84.622955,208.75333 C85.1335,208.4416 86.628426,208.25119 86.95394,208.19038 L86.95394,208.19038" /><path fill="none" stroke="#000000" stroke-width="0.06mm" d="M296.68323,430.40485 C298.16104,435.46695 297.8935,434.65735 300.09784,445.7441 C300.69827,448.76407 299.7556,453.34796 299.65842,442.33575 C299.63895,440.1291 299.8759,437.92224 300.17117,435.7353 C300.27762,434.94693 300.74796,432.58765 301.4015,431.44083 C303.3678,427.9905 307.6038,427.02518 309.68167,430.8388 C310.83157,432.94922 310.9094,435.18445 311.05502,437.65292 C311.00803,439.2531 310.961,440.8533 310.91397,442.45343 C310.8285,442.53168 310.73706,442.77246 310.65756,442.68817 C310.4781,442.49786 310.46255,442.19708 310.42776,441.93787 C310.31985,441.13354 310.1631,440.31992 310.2313,439.5113 C310.52542,436.0253 310.99103,432.55396 311.51135,429.09448 C311.883,426.62375 313.81818,424.15845 316.4994,424.8916 C317.22083,425.08887 317.9059,425.5361 318.3555,426.13806 C319.72507,427.97174 320.1704,430.87823 320.50104,432.7712 C321.69165,439.5882 321.55072,439.6756 321.39844,444.58795 L321.39844,444.58795" /><path fill="none" stroke="#000000" stroke-width="0.06mm" d="M523.08813,276.2334 C527.7578,276.5171 531.4293,276.55637 535.5244,278.01447 C535.8692,278.1372 536.2121,278.28912 536.50476,278.5089 C537.88135,279.5427 539.1786,280.67816 540.51544,281.76276 L540.51544,281.76276" /><path fill="none" stroke="#000000" stroke-width="0.06mm" d="M523.6859,262.2019 C528.1133,261.91534 532.4325,262.9549 536.7591,263.68842 C538.8648,264.04538 540.9772,264.36218 543.0862,264.69904 L543.0862,264.69904" /><path fill="none" stroke="#000000" stroke-width="0.06mm" d="M525.6588,262.23166 C525.6508,262.22968 525.64294,262.22766 525.635,262.22568 C523.94904,261.643 522.26306,261.06036 520.5771,260.4777 L520.5771,260.4777" /><path fill="none" stroke="#000000" stroke-width="0.06mm" d="M554.34393,252.07631 C554.92566,251.99583 555.50684,251.7588 556.0892,251.83485 C556.30255,251.86272 555.7533,252.10391 555.5853,252.23843 C553.5719,253.7539 551.5731,255.28922 549.5449,256.78485 C548.76337,257.3611 547.8906,257.81714 547.1571,258.45337 C545.1805,260.16788 543.41406,262.1158 541.4309,263.8228 C540.8855,264.2923 540.2062,264.57907 539.59644,264.96127 C537.00543,266.5852 537.9652,265.87854 536.29346,267.21454 L536.29346,267.21454" /><path fill="none" stroke="#000000" stroke-width="0.06mm" d="M564.50745,268.86102 C560.525,270.25317 556.5667,271.71588 552.56036,273.03748 C550.2619,273.7957 548.18726,273.9409 546.15424,275.16302 C544.42535,276.20233 542.8013,277.9037 541.57007,279.41147 C541.20233,280.00937 540.8346,280.6072 540.46686,281.20508 C540.5491,281.26672 540.6112,281.3976 540.7136,281.38995 C541.34766,281.3427 542.48254,280.3681 542.889,279.90613 C543.85474,278.80865 547.1654,274.21927 549.62744,272.59436 C550.14246,272.2544 550.67126,271.90277 551.26263,271.72644 C566.90027,267.06293 562.58716,267.77655 572.16455,266.73434 L572.16455,266.73434" /><path fill="none" stroke="#000000" stroke-width="0.06mm" d="M567.3386,267.87933 C569.0604,268.58984 571.7207,269.3545 573.27765,270.77783 C575.2548,272.5854 576.8312,274.84943 579.00287,276.4179 C582.1854,278.7165 585.70264,280.53046 589.2133,282.28735 C592.52856,283.94635 595.36615,284.32706 598.7652,285.4451 C602.79895,286.7719 601.46216,286.7167 605.3984,287.73944 C617.2617,290.8219 629.12195,293.9197 641.02795,296.83292 C642.0738,297.0888 643.1813,297.0067 644.23206,297.24146 C645.3826,297.49847 646.4625,298.0155 647.6061,298.30237 C649.9569,298.89203 651.0358,298.84424 653.2683,298.4074 L653.2683,298.4074" /><path fill="none" stroke="#000000" stroke-width="0.06mm" d="M555.3816,250.86598 C556.1178,250.719 556.8398,250.44614 557.5902,250.42503 C559.8339,250.36194 562.09204,250.35374 564.3214,250.61461 C569.7112,251.24525 578.3707,255.32849 581.8429,257.08377 C592.2041,262.32162 602.3844,267.91656 612.4981,273.6176 C613.9549,274.43872 615.22455,275.5597 616.51227,276.62646 C619.5789,279.16693 622.4322,281.96252 625.55475,284.4339 C626.23663,284.9735 628.67377,286.58865 630.1389,286.88156 C631.9079,287.23523 633.68695,287.54575 635.4755,287.78067 C636.5638,287.9236 639.22797,287.28928 639.7443,287.22546 C641.2705,287.03693 642.80695,286.94287 644.33826,286.80157 C647.7058,286.36346 651.07336,285.92535 654.441,285.4873 L654.441,285.4873" /><path fill="none" stroke="#000000" stroke-width="0.06mm" d="M653.2228,299.2617 C655.6224,299.35565 655.48224,299.34308 660.28735,298.7548 C663.7029,298.3366 669.99927,296.47235 673.6698,297.58453 C675.44336,298.12192 677.56555,300.06366 678.6706,301.0811 C679.2163,301.58347 679.70154,302.16165 680.09607,302.78973 C682.20325,306.1445 685.34766,312.50354 688.5243,316.16565 C689.5747,317.3766 691.13,318.28882 692.51135,319.02423 C693.531,319.56705 695.088,319.70685 693.8865,321.159 C692.6384,322.66745 692.58105,322.67783 691.51526,323.63837 L691.51526,323.63837" /><path fill="none" stroke="#000000" stroke-width="0.06mm" d="M1383.8701,404.5519 C1385.7451,406.31705 1387.4824,408.24118 1389.4954,409.84735 C1391.0051,411.05197 1392.7173,411.98245 1394.3907,412.94678 C1395.7117,413.708 1401.4697,416.2104 1403.2672,418.29202 C1419.9858,437.65298 1435.9932,457.62854 1452.9791,476.75555 C1457.2853,481.60468 1462.7546,485.3274 1467.0851,490.15485 C1470.9114,494.4202 1472.6561,497.6766 1475.0255,501.93176 L1475.0255,501.93176" /><path fill="none" stroke="#000000" stroke-width="0.06mm" d="M746.56744,19.893078 C763.6266,39.03944 766.60876,40.771515 781.14026,66.09614 C797.7265,95.00159 822.93567,157.96948 828.8502,180.3206 C836.1071,207.74393 837.7221,236.36243 841.4987,264.47714 C841.71515,266.08847 839.156,280.8741 844.00696,274.31525 C845.1909,272.7145 846.25366,271.02768 847.37695,269.3839 L847.37695,269.3839" /><path fill="none" stroke="#000000" stroke-width="0.06mm" d="M748.0123,18.782772 C747.95013,18.789394 747.88794,18.796013 747.8258,18.802635 C745.4105,19.059288 742.94165,19.005375 740.5799,19.57259 C734.3313,21.073349 725.7171,25.309387 720.713,28.669727 C717.01263,31.154572 713.6938,34.173508 710.3557,37.127136 C709.3978,37.974678 708.49915,38.933884 707.8604,40.04197 C703.165,48.187546 693.4673,65.97162 691.4114,75.721855 C687.65375,93.54232 684.9647,111.60587 683.0906,129.7215 C669.0772,338.9341 686.3956,129.63477 672.0358,234.64049 C671.10223,241.46751 671.12427,248.4026 671.148,255.29312 C671.1577,258.0987 671.943,260.85272 672.13586,263.65167 C672.32434,266.3872 671.45013,269.73727 670.57544,272.16693 C669.90173,274.0381 669.0204,275.83157 668.1124,277.6009 C665.97473,281.76672 663.151,282.27402 658.63,282.31564 L658.63,282.31564" /><path fill="none" stroke="#000000" stroke-width="0.06mm" d="M866.9651,448.53772 C870.5674,463.2881 867.96625,454.59686 874.94696,473.05472 L874.94696,473.05472" /><path fill="none" stroke="#000000" stroke-width="0.06mm" d="M875.4017,493.854 L882.2217,511.58865" /><path fill="none" stroke="#000000" stroke-width="0.06mm" d="M882.8784,531.3329 L891.5171,546.7565" /><path fill="none" stroke="#000000" stroke-width="0.06mm" d="M898.135,451.8033 C899.3032,466.35315 899.2671,462.64935 903.5405,480.6409 L903.5405,480.6409" /><path fill="none" stroke="#000000" stroke-width="0.06mm" d="M909.04694,501.94266 L914.95764,520.4811" /><path fill="none" stroke="#000000" stroke-width="0.06mm" d="M916.2711,544.2445 C918.53894,556.2134 917.684,552.7305 921.77765,563.78784 L921.77765,563.78784" /><path fill="none" stroke="#000000" stroke-width="0.06mm" d="M890.45624,549.41925 C892.81525,556.6177 891.05194,551.9641 896.9225,562.88354 L896.9225,562.88354" /><path fill="none" stroke="#000000" stroke-width="0.06mm" d="M907.07666,584.28564 C910.2872,584.02075 915.68756,581.79425 919.10767,583.92346 C921.54333,585.4399 921.5094,589.2602 921.70544,591.5726 C922.0198,595.2794 921.03204,598.74774 919.376,602.0419 C918.0557,604.6679 916.52045,606.28705 914.36304,608.324 C912.39166,610.18524 908.15393,612.69214 907.0967,615.94794 C905.7656,620.0475 910.9193,622.9437 914.23413,623.6668 C915.8955,624.02924 917.922,624.1103 919.5967,623.79736 C923.1965,623.12476 924.7267,622.1356 928.244,620.5588 L928.244,620.5588" /><path fill="none" stroke="#000000" stroke-width="0.06mm" d="M917.8877,649.0447 C917.89984,649.04095 917.912,649.0372 917.9242,649.03345 C921.583,646.94385 925.2418,644.8543 928.9007,642.7647 L928.9007,642.7647" /><path fill="none" stroke="#000000" stroke-width="0.06mm" d="M923.09106,648.64276 C924.86505,653.0212 926.1642,656.9772 921.54205,659.8337 C920.2292,660.64496 918.5709,661.0062 917.0966,660.4291 C914.7433,659.5077 913.30493,656.78937 912.8875,654.4325 C912.35864,651.4468 912.04236,647.4614 913.736,644.7391 C915.95734,641.16833 923.04193,643.9317 924.5167,647.11707 C926.88245,652.2266 920.18933,654.2955 918.62494,649.36 C917.4884,645.77435 920.3348,647.881 921.06287,649.20544 C921.75903,650.47186 921.59,653.7396 919.5309,652.0457 C918.8756,651.44165 918.2202,650.83765 917.56494,650.2335 C917.5546,650.2225 917.5443,650.21136 917.53406,650.20026 L917.53406,650.20026" /><path fill="none" stroke="#000000" stroke-width="0.06mm" d="M841.8574,381.91974 C855.05676,426.71652 844.0381,391.39044 863.4397,438.91815 C864.40967,441.2943 864.7122,443.891 865.34845,446.37738 L865.34845,446.37738" /><path fill="none" stroke="#000000" stroke-width="0.06mm" d="M867.5208,374.2833 C876.7622,400.19574 874.6017,396.34125 884.5448,417.63052 C885.63446,419.96362 887.2562,422.0624 888.0643,424.50732 C891.0084,433.4147 893.07184,442.59094 895.76526,451.57733 C895.91516,452.07758 895.7273,450.5335 895.7083,450.01163 C895.08417,446.75623 894.6865,443.44913 893.8357,440.24548 C892.84485,436.5151 891.7125,432.80243 890.1948,429.25357 C886.8187,421.35873 882.33795,413.95285 879.1778,405.96918 C875.39087,396.40234 872.6526,386.45294 869.38995,376.69482 L869.38995,376.69482" /><path fill="none" stroke="#000000" stroke-width="0.06mm" d="M843.0194,385.2356 C848.03296,387.3445 846.208,386.5024 857.63763,392.0822 C859.2667,392.87753 861.00006,394.1145 859.6622,395.98114 C858.4291,397.70154 857.12427,399.36945 855.8591,401.0664 C855.28925,401.8307 854.73206,402.3948 853.6976,402.33124 C850.7434,402.14972 847.45435,398.43048 845.6079,396.379 C844.1724,394.78427 842.7375,393.18735 841.37085,391.5333 C841.2354,391.3694 841.1727,391.15286 841.1197,390.947 C840.01416,386.66 850.0778,383.0676 852.1632,382.17096 L852.1632,382.17096" /><path fill="none" stroke="#000000" stroke-width="0.06mm" d="M881.41345,397.64478 C882.01105,401.51086 887.82336,403.32755 888.4475,407.35577 C888.57556,408.18268 888.3717,409.0275 887.96625,409.75394 C885.8701,413.50885 881.52466,413.94202 877.5955,414.2281 C875.24634,414.24448 872.8973,414.26093 870.54803,414.27734 C870.3421,414.2075 870.12305,414.1683 869.9301,414.06793 C868.8823,413.5227 868.5302,412.12515 868.4958,411.0515 C868.3417,406.236 869.4641,401.3851 874.59296,399.71408 C877.9962,398.60526 882.5711,399.5868 885.5054,399.70465 L885.5054,399.70465" /><path fill="none" stroke="#000000" stroke-width="0.06mm" d="M854.7397,419.5996 C858.56476,421.9815 862.4134,424.32596 866.2149,426.74536 C869.1133,428.59 866.63586,432.3063 864.89465,433.94305 C863.22723,435.51044 860.7025,436.188 858.4723,435.60098 C857.3968,435.31787 856.3038,434.6332 855.62683,433.74463 C854.7645,432.61273 848.98315,427.66742 851.7229,424.8826 C852.46576,424.12753 853.613,423.33282 854.58813,423.03104 C857.464,422.14105 860.41455,421.51376 863.32776,420.75513 L863.32776,420.75513" /><path fill="none" stroke="#000000" stroke-width="0.06mm" d="M921.62604,435.97778 C921.6185,435.9524 921.61084,435.927 921.60333,435.9016 C921.05524,434.30258 920.50714,432.70358 919.959,431.1045 L919.959,431.1045" /><path fill="none" stroke="#000000" stroke-width="0.06mm" d="M819.27563,368.40524 C821.0973,368.51044 823.7649,367.8515 825.6867,368.64313 C831.5685,371.0659 837.4004,373.61456 843.166,376.30188 C844.2447,376.80463 848.88763,379.05954 847.43463,381.4959 C844.4434,386.51126 841.4081,391.50137 838.27765,396.431 C838.1495,396.63278 837.9072,396.74265 837.6897,396.8415 C836.98413,397.16193 836.145,396.94257 835.51886,396.55124 C831.906,394.293 828.2534,392.09128 824.7455,389.67328 C823.9581,389.13055 821.8794,387.5595 821.1057,386.23938 C820.39343,385.0241 820.213,383.4305 820.4095,382.06 C821.645,373.43976 821.2955,375.79495 825.0853,367.6014 L825.0853,367.6014" /><path fill="none" stroke="#000000" stroke-width="0.06mm" d="M806.14087,348.5103 C812.68646,347.6402 812.99207,347.86624 818.66797,351.9025 C820.1426,352.95117 821.30554,354.5086 821.94836,356.19318 C823.6638,360.68796 821.2564,368.13617 818.20886,371.531 C815.3794,374.68283 808.82227,369.39096 807.50116,366.75214 C805.9413,363.63657 805.21106,358.05676 804.8865,355.73178 C804.20404,350.84338 805.1278,348.1032 806.10864,343.0343 C806.3331,341.87396 806.8976,342.75754 807.05054,343.36136 C807.36884,344.6178 807.6229,345.88965 807.90906,347.1538 L807.90906,347.1538" /><path fill="none" stroke="#000000" stroke-width="0.06mm" d="M805.7873,346.19925 C799.05786,347.94595 795.8197,346.69254 788.8189,344.6117 C779.992,341.9881 771.3056,338.89215 762.4304,336.43668 C755.6263,334.5542 754.57635,335.32333 749.7623,339.41687 L749.7623,339.41687" /><path fill="none" stroke="#000000" stroke-width="0.06mm" d="M771.7378,343.13464 C781.7142,347.30786 791.7181,351.4159 801.6669,355.65433 C804.0752,356.68033 804.9226,359.79257 802.8202,361.534 C801.568,362.57117 800.0599,363.22772 798.5143,363.70505 C793.52,365.24734 786.72107,365.04382 782.48956,361.54446 C779.34705,358.9457 776.413,356.10394 773.3242,353.44174 C772.8256,353.01202 772.23364,352.69995 771.7325,352.27332 C770.5582,351.27374 770.12195,349.70926 770.0432,348.23114 C769.8746,345.06787 773.4881,340.66693 775.32465,338.11066 L775.32465,338.11066" /><path fill="none" stroke="#000000" stroke-width="0.06mm" d="M761.432,337.6585 C762.54346,339.69696 763.7687,341.6774 764.76654,343.77383 C766.52106,347.46014 767.181,353.20883 763.5218,356.07605 C761.6174,357.5683 758.0414,358.20078 755.5621,358.26953 C750.55457,358.40836 744.165,355.49084 740.4951,354.23755 C738.2588,353.4738 735.4551,351.142 735.1611,348.6361 C735.0861,347.9983 735.18604,347.2455 735.42975,346.65146 C738.014,340.35458 739.24915,339.3586 744.86536,334.4043 C747.8513,331.77014 758.1503,332.49774 759.1016,332.50864 C764.8263,332.5741 770.643,334.7425 775.9813,336.20157 L775.9813,336.20157" /><path fill="none" stroke="#000000" stroke-width="0.06mm" d="M732.88916,320.12482 C736.0815,325.39923 739.3554,330.62512 742.4661,335.94812 C742.95953,336.79242 742.5024,337.57245 741.65405,337.81628 C739.66925,338.38684 734.57214,338.0078 732.94806,336.11362 C732.4576,335.54166 732.1374,334.8696 731.9097,334.15686 C731.07697,331.5498 730.1993,328.9538 729.5034,326.30692 C729.3596,325.7597 729.3761,325.17792 729.4005,324.61264 C729.5668,320.76718 732.4895,319.75497 735.95026,321.01376 C740.4361,322.6454 744.8215,324.54077 749.25714,326.30432 L749.25714,326.30432" /><path fill="none" stroke="#000000" stroke-width="0.06mm" d="M723.69476,321.43103 C723.74994,320.57336 722.9988,317.68155 724.6784,317.3504 C726.178,317.05475 728.6725,318.55618 729.5659,319.133 C731.2536,320.2226 735.87085,323.08466 734.63715,326.03265 C733.0441,329.83942 726.51544,331.09653 723.42053,331.73535 C721.3989,332.15265 718.31555,332.4099 716.0884,332.08426 C713.4514,331.69873 711.4346,330.48904 709.07715,329.10764 C706.3449,327.50662 702.68726,324.15567 703.29517,320.5531 C703.5536,319.0216 705.33014,316.0241 705.539,315.5535 C705.8975,314.74567 706.0967,313.87262 706.4629,313.0683 C707.4847,310.82404 710.84717,309.93484 713.02356,309.80823 C715.34265,309.67334 717.60565,310.6891 719.54895,311.84668 C735.6025,321.40936 727.7091,317.91248 736.1224,321.43103 L736.1224,321.43103" /><path fill="none" stroke="#000000" stroke-width="0.06mm" d="M695.556,316.5578 C698.1605,315.25208 699.87085,314.05438 702.6413,313.61792 C705.15967,313.22113 707.8312,313.28983 710.1935,314.34177 C711.4332,314.8938 712.4893,315.62335 713.43207,316.59613 C715.1431,318.36188 715.5319,321.25006 713.10736,322.58942 C706.39526,326.2973 703.7057,325.1671 698.5974,319.87762 C697.9929,319.2517 697.1424,318.36765 697.1283,317.38055 C697.0977,315.24545 699.5426,313.1728 700.65845,311.88547 L700.65845,311.88547" /><path fill="none" stroke="#000000" stroke-width="0.06mm" d="M843.6256,269.9855 C844.82544,271.61682 846.27783,273.08963 847.22534,274.87936 C857.72815,294.719 861.71765,305.86942 866.88544,329.74646 C868.7851,338.52374 869.2191,347.55838 870.0969,356.49588 C870.6068,361.68802 870.5775,366.92242 871.0468,372.11838 C871.3054,374.98187 871.8989,377.1149 874.4923,378.3025 L874.4923,378.3025" /><text x="321.55386" y="461.05115" font-family="sans-serif" font-size=".2mm" fill="black">meander - moxna isc</text>
<text x="408.22333" y="226.04495" font-family="sans-serif" font-size=".2mm" fill="black">okienko</text>
<text x="436.04642" y="245.09352" font-family="sans-serif" font-size=".2mm" fill="black">pylasta pochylnia</text>
<text x="914.1494" y="406.23584" font-family="sans-serif" font-size=".2mm" fill="black">wiszace wanty</text>
</g>
<g>
<line fill="none" stroke="#111111" stroke-width="0.05mm" x1="20.00" y1="69.00" x2="59.29" y2="113.93" />
<line fill="none" stroke="#5674b9" stroke-width="0.05mm" stroke-dasharray="0.4,0.2" x1="59.29" y1="113.93" x2="58.09" y2="184.39" />
<line fill="none" stroke="#5674b9" stroke-width="0.05mm" stroke-dasharray="0.4,0.2" x1="59.29" y1="113.93" x2="40.22" y2="213.99" />
<line fill="none" stroke="#111111" stroke-width="0.05mm" x1="59.29" y1="113.93" x2="138.26" y2="222.97" />
<line fill="none" stroke="#5674b9" stroke-width="0.05mm" stroke-dasharray="0.4,0.2" x1="138.26" y1="222.97" x2="115.63" y2="221.45" />
<line fill="none" stroke="#00aeef" stroke-width="0.05mm" stroke-dasharray="0.4,0.2" x1="138.26" y1="222.97" x2="137.93" y2="241.06" />
<line fill="none" stroke="#5674b9" stroke-width="0.05mm" stroke-dasharray="0.4,0.2" x1="138.26" y1="222.97" x2="107.09" y2="89.91" />
<line fill="none" stroke="#00aeef" stroke-width="0.05mm" stroke-dasharray="0.4,0.2" x1="138.26" y1="222.97" x2="112.56" y2="220.98" />
<line fill="none" stroke="#111111" stroke-width="0.05mm" x1="138.26" y1="222.97" x2="256.73" y2="195.26" />
<line fill="none" stroke="#5674b9" stroke-width="0.05mm" stroke-dasharray="0.4,0.2" x1="256.73" y1="195.26" x2="244.23" y2="26.59" />
<line fill="none" stroke="#5674b9" stroke-width="0.05mm" stroke-dasharray="0.4,0.2" x1="256.73" y1="195.26" x2="252.98" y2="223.39" />
<line fill="none" stroke="#00aeef" stroke-width="0.05mm" stroke-dasharray="0.4,0.2" x1="256.73" y1="195.26" x2="214.99" y2="197.59" />
<line fill="none" stroke="#5674b9" stroke-width="0.05mm" stroke-dasharray="0.4,0.2" x1="256.73" y1="195.26" x2="176.75" y2="194.97" />
<line fill="none" stroke="#111111" stroke-width="0.05mm" x1="256.73" y1="195.26" x2="364.43" y2="232.26" />
<line fill="none" stroke="#00aeef" stroke-width="0.05mm" stroke-dasharray="0.4,0.2" x1="364.43" y1="232.26" x2="352.88" y2="232.10" />
<line fill="none" stroke="#00aeef" stroke-width="0.05mm" stroke-dasharray="0.4,0.2" x1="364.43" y1="232.26" x2="362.73" y2="242.35" />
<line fill="none" stroke="#5674b9" stroke-width="0.05mm" stroke-dasharray="0.4,0.2" x1="364.43" y1="232.26" x2="363.36" y2="226.98" />
<line fill="none" stroke="#00aeef" stroke-width="0.05mm" stroke-dasharray="0.4,0.2" x1="364.43" y1="232.26" x2="355.18" y2="422.07" />
<line fill="none" stroke="#111111" stroke-width="0.05mm" x1="364.43" y1="232.26" x2="405.51" y2="240.17" />
<line fill="none" stroke="#00aeef" stroke-width="0.05mm" stroke-dasharray="0.4,0.2" x1="405.51" y1="240.17" x2="423.81" y2="240.35" />
<line fill="none" stroke="#00aeef" stroke-width="0.05mm" stroke-dasharray="0.4,0.2" x1="405.51" y1="240.17" x2="397.26" y2="237.81" />
<line fill="none" stroke="#111111" stroke-width="0.05mm" x1="405.51" y1="240.17" x2="446.54" y2="283.23" />
<line fill="none" stroke="#5674b9" stroke-width="0.05mm" stroke-dasharray="0.4,0.2" x1="446.54" y1="283.23" x2="437.07" y2="276.14" />
<line fill="none" stroke="#5674b9" stroke-width="0.05mm" stroke-dasharray="0.4,0.2" x1="446.54" y1="283.23" x2="444.33" y2="271.87" />
<line fill="none" stroke="#5674b9" stroke-width="0.05mm" stroke-dasharray="0.4,0.2" x1="446.54" y1="283.23" x2="447.08" y2="301.88" />
<line fill="none" stroke="#00aeef" stroke-width="0.05mm" stroke-dasharray="0.4,0.2" x1="446.54" y1="283.23" x2="442.24" y2="283.76" />
<line fill="none" stroke="#5674b9" stroke-width="0.05mm" stroke-dasharray="0.4,0.2" x1="446.54" y1="283.23" x2="450.35" y2="283.96" />
<line fill="none" stroke="#111111" stroke-width="0.05mm" x1="446.54" y1="283.23" x2="480.46" y2="284.43" />
<line fill="none" stroke="#00aeef" stroke-width="0.05mm" stroke-dasharray="0.4,0.2" x1="480.46" y1="284.43" x2="475.48" y2="272.97" />
<line fill="none" stroke="#5674b9" stroke-width="0.05mm" stroke-dasharray="0.4,0.2" x1="480.46" y1="284.43" x2="479.71" y2="302.89" />
<line fill="none" stroke="#00aeef" stroke-width="0.05mm" stroke-dasharray="0.4,0.2" x1="480.46" y1="284.43" x2="476.99" y2="281.69" />
<line fill="none" stroke="#5674b9" stroke-width="0.05mm" stroke-dasharray="0.4,0.2" x1="480.46" y1="284.43" x2="475.16" y2="284.02" />
<line fill="none" stroke="#111111" stroke-width="0.05mm" x1="480.46" y1="284.43" x2="516.59" y2="266.24" />
<line fill="none" stroke="#5674b9" stroke-width="0.05mm" stroke-dasharray="0.4,0.2" x1="516.59" y1="266.24" x2="506.57" y2="271.03" />
<line fill="none" stroke="#00aeef" stroke-width="0.05mm" stroke-dasharray="0.4,0.2" x1="516.59" y1="266.24" x2="503.53" y2="264.90" />
<line fill="none" stroke="#5674b9" stroke-width="0.05mm" stroke-dasharray="0.4,0.2" x1="516.59" y1="266.24" x2="514.45" y2="278.26" />
<line fill="none" stroke="#5674b9" stroke-width="0.05mm" stroke-dasharray="0.4,0.2" x1="516.59" y1="266.24" x2="522.74" y2="268.61" />
<line fill="none" stroke="#5674b9" stroke-width="0.05mm" stroke-dasharray="0.4,0.2" x1="516.59" y1="266.24" x2="509.32" y2="265.59" />
<line fill="none" stroke="#00aeef" stroke-width="0.05mm" stroke-dasharray="0.4,0.2" x1="516.59" y1="266.24" x2="525.74" y2="265.68" />
<line fill="none" stroke="#00aeef" stroke-width="0.05mm" stroke-dasharray="0.4,0.2" x1="516.59" y1="266.24" x2="517.50" y2="274.58" />
<line fill="none" stroke="#5674b9" stroke-width="0.05mm" stroke-dasharray="0.4,0.2" x1="516.59" y1="266.24" x2="505.63" y2="253.39" />
<line fill="none" stroke="#111111" stroke-width="0.05mm" x1="516.59" y1="266.24" x2="534.68" y2="268.29" />
<line fill="none" stroke="#5674b9" stroke-width="0.05mm" stroke-dasharray="0.4,0.2" x1="534.68" y1="268.29" x2="552.96" y2="270.41" />
<line fill="none" stroke="#5674b9" stroke-width="0.05mm" stroke-dasharray="0.4,0.2" x1="534.68" y1="268.29" x2="536.93" y2="267.29" />
<line fill="none" stroke="#00aeef" stroke-width="0.05mm" stroke-dasharray="0.4,0.2" x1="534.68" y1="268.29" x2="536.66" y2="267.68" />
<line fill="none" stroke="#5674b9" stroke-width="0.05mm" stroke-dasharray="0.4,0.2" x1="534.68" y1="268.29" x2="533.11" y2="277.11" />
<line fill="none" stroke="#111111" stroke-width="0.05mm" x1="534.68" y1="268.29" x2="563.30" y2="254.48" />
<line fill="none" stroke="#5674b9" stroke-width="0.05mm" stroke-dasharray="0.4,0.2" x1="563.30" y1="254.48" x2="556.04" y2="250.66" />
<line fill="none" stroke="#00aeef" stroke-width="0.05mm" stroke-dasharray="0.4,0.2" x1="563.30" y1="254.48" x2="564.28" y2="267.28" />
<line fill="none" stroke="#111111" stroke-width="0.05mm" x1="563.30" y1="254.48" x2="569.06" y2="264.19" />
<line fill="none" stroke="#00aeef" stroke-width="0.05mm" stroke-dasharray="0.4,0.2" x1="569.06" y1="264.19" x2="574.78" y2="273.89" />
<line fill="none" stroke="#111111" stroke-width="0.05mm" x1="569.06" y1="264.19" x2="626.23" y2="288.03" />
<line fill="none" stroke="#00aeef" stroke-width="0.05mm" stroke-dasharray="0.4,0.2" x1="626.23" y1="288.03" x2="622.47" y2="287.00" />
<line fill="none" stroke="#5674b9" stroke-width="0.05mm" stroke-dasharray="0.4,0.2" x1="626.23" y1="288.03" x2="625.65" y2="286.09" />
<line fill="none" stroke="#00aeef" stroke-width="0.05mm" stroke-dasharray="0.4,0.2" x1="626.23" y1="288.03" x2="626.74" y2="294.76" />
<line fill="none" stroke="#5674b9" stroke-width="0.05mm" stroke-dasharray="0.4,0.2" x1="626.23" y1="288.03" x2="646.95" y2="292.16" />
<line fill="none" stroke="#111111" stroke-width="0.05mm" x1="626.23" y1="288.03" x2="649.01" y2="292.24" />
<line fill="none" stroke="#00aeef" stroke-width="0.05mm" stroke-dasharray="0.4,0.2" x1="649.01" y1="292.24" x2="671.88" y2="296.36" />
<line fill="none" stroke="#00aeef" stroke-width="0.05mm" stroke-dasharray="0.4,0.2" x1="649.01" y1="292.24" x2="638.24" y2="290.44" />
<line fill="none" stroke="#00aeef" stroke-width="0.05mm" stroke-dasharray="0.4,0.2" x1="649.01" y1="292.24" x2="648.20" y2="299.93" />
<line fill="none" stroke="#00aeef" stroke-width="0.05mm" stroke-dasharray="0.4,0.2" x1="649.01" y1="292.24" x2="650.42" y2="284.90" />
<line fill="none" stroke="#111111" stroke-width="0.05mm" x1="649.01" y1="292.24" x2="681.71" y2="280.16" />
<line fill="none" stroke="#00aeef" stroke-width="0.05mm" stroke-dasharray="0.4,0.2" x1="681.71" y1="280.16" x2="696.06" y2="278.81" />
<line fill="none" stroke="#00aeef" stroke-width="0.05mm" stroke-dasharray="0.4,0.2" x1="681.71" y1="280.16" x2="726.75" y2="275.31" />
<line fill="none" stroke="#00aeef" stroke-width="0.05mm" stroke-dasharray="0.4,0.2" x1="681.71" y1="280.16" x2="823.14" y2="279.55" />
<line fill="none" stroke="#5674b9" stroke-width="0.05mm" stroke-dasharray="0.4,0.2" x1="681.71" y1="280.16" x2="836.75" y2="268.11" />
<line fill="none" stroke="#5674b9" stroke-width="0.05mm" stroke-dasharray="0.4,0.2" x1="681.71" y1="280.16" x2="766.81" y2="267.94" />
<line fill="none" stroke="#5674b9" stroke-width="0.05mm" stroke-dasharray="0.4,0.2" x1="681.71" y1="280.16" x2="674.46" y2="270.88" />
<line fill="none" stroke="#5674b9" stroke-width="0.05mm" stroke-dasharray="0.4,0.2" x1="681.71" y1="280.16" x2="690.45" y2="315.67" />
<line fill="none" stroke="#5674b9" stroke-width="0.05mm" stroke-dasharray="0.4,0.2" x1="681.71" y1="280.16" x2="741.90" y2="19.09" />
<line fill="none" stroke="#111111" stroke-width="0.05mm" x1="681.71" y1="280.16" x2="810.84" y2="332.06" />
<line fill="none" stroke="#5674b9" stroke-width="0.05mm" stroke-dasharray="0.4,0.2" x1="810.84" y1="332.06" x2="939.91" y2="383.86" />
<line fill="none" stroke="#111111" stroke-width="0.05mm" x1="810.84" y1="332.06" x2="857.61" y2="380.89" />
<line fill="none" stroke="#5674b9" stroke-width="0.05mm" stroke-dasharray="0.4,0.2" x1="857.61" y1="380.89" x2="844.92" y2="379.42" />
<line fill="none" stroke="#111111" stroke-width="0.05mm" x1="857.61" y1="380.89" x2="879.61" y2="447.78" />
<line fill="none" stroke="#00aeef" stroke-width="0.05mm" stroke-dasharray="0.4,0.2" x1="879.61" y1="447.78" x2="903.14" y2="563.50" />
</g>
<g>
<circle cx="20.00" cy="69.00" r="0.1" fill="#111111" />
<circle cx="59.29" cy="113.93" r="0.1" fill="#111111" />
<circle cx="138.26" cy="222.97" r="0.1" fill="#111111" />
<circle cx="256.73" cy="195.26" r="0.1" fill="#111111" />
<circle cx="364.43" cy="232.26" r="0.1" fill="#111111" />
<circle cx="405.51" cy="240.17" r="0.1" fill="#111111" />
<circle cx="446.54" cy="283.23" r="0.1" fill="#111111" />
<circle cx="480.46" cy="284.43" r="0.1" fill="#111111" />
<circle cx="516.59" cy="266.24" r="0.1" fill="#111111" />
<circle cx="534.68" cy="268.29" r="0.1" fill="#111111" />
<circle cx="563.30" cy="254.48" r="0.1" fill="#111111" />
<circle cx="569.06" cy="264.19" r="0.1" fill="#111111" />
<circle cx="626.23" cy="288.03" r="0.1" fill="#111111" />
<circle cx="649.01" cy="292.24" r="0.1" fill="#111111" />
<circle cx="681.71" cy="280.16" r="0.1" fill="#111111" />
<circle cx="810.84" cy="332.06" r="0.1" fill="#111111" />
<circle cx="857.61" cy="380.89" r="0.1" fill="#111111" />
<circle cx="879.61" cy="447.78" r="0.1" fill="#111111" />
</g>
<g>
<text x="20.20" y="69.00" font-size=".2mm" fill="#000000">0</text>
<text x="59.49" y="113.93" font-size=".2mm" fill="#000000">1</text>
<text x="138.46" y="222.97" font-size=".2mm" fill="#000000">2</text>
<text x="256.93" y="195.26" font-size=".2mm" fill="#000000">3</text>
<text x="364.63" y="232.26" font-size=".2mm" fill="#000000">4</text>
<text x="405.71" y="240.17" font-size=".2mm" fill="#000000">5</text>
<text x="446.74" y="283.23" font-size=".2mm" fill="#000000">6</text>
<text x="480.66" y="284.43" font-size=".2mm" fill="#000000">7</text>
<text x="516.79" y="266.24" font-size=".2mm" fill="#000000">8</text>
<text x="534.88" y="268.29" font-size=".2mm" fill="#000000">9</text>
<text x="563.50" y="254.48" font-size=".2mm" fill="#000000">10</text>
<text x="569.26" y="264.19" font-size=".2mm" fill="#000000">11</text>
<text x="626.43" y="288.03" font-size=".2mm" fill="#000000">12</text>
<text x="649.21" y="292.24" font-size=".2mm" fill="#000000">13</text>
<text x="681.91" y="280.16" font-size=".2mm" fill="#000000">14</text>
<text x="811.04" y="332.06" font-size=".2mm" fill="#000000">15</text>
<text x="857.81" y="380.89" font-size=".2mm" fill="#000000">16</text>
<text x="879.81" y="447.78" font-size=".2mm" fill="#000000">17</text>
</g>
<g>
</g>
</g>
</svg>