<?xml version="1.0" encoding="utf-8"?>
<!DOCTYPE svg PUBLIC "-//W3C//DTD SVG 1.1//EN" "http://www.w3.org/Graphics/SVG/1.1/DTD/svg11.dtd">
<svg version="1.1" id="Layer_1" xmlns="http://www.w3.org/2000/svg" xmlns:xlink="http://www.w3.org/1999/xlink" x="0px" y="0px" width="58mm" height="51mm" viewBox="0 0 58 51" style="background-color:#ffffff;enable-background:new 0 0 58 51;" xml:space="preserve">
<symbol id="airflow" viewBox="-12 -12 24 24">
<path d="M-4.38,10.73l4.2-3.84V3.55L-4.07,7.13l-.31-.29L-.18,3V-6.89a3.37,3.37,0,0,0-1.68.53l1.68-4.15L0-11l.21.51h0v0l1.65,4.1A3.26,3.26,0,0,0,.24-6.89v14l-.08,0L-4.07,11Z"/>
<rect fill="none" x="-12" y="-12" width="24" height="24"/>
</symbol>
<symbol id="anastomosis" viewBox="-12 -12 24 24">
<path d="M2.23-4.78l.37.24L5.22-2.78l-.47.57L2.49-3.7l-4.61,8-.24.44-.37-.34L-5.22,2.3l.55-.52,2.1,1.82L2-4.39Z"/>
<rect fill="none" x="-12" y="-12" width="24" height="24"/>
</symbol>
<symbol id="bivouac" viewBox="-12 -12 24 24">
<path d="M.25-7.66l.24.58L.54-7l3.88.48-3.31.91L6,6H8.35v.48l-16.7.07V6.05h2.64L0-7.08Zm0,1.32L-5.13,6H-4l2.07-5L.2-4l2.09,5L4.37,6H5.44Z"/>
<rect fill="none" x="-12" y="-12" width="24" height="24"/>
</symbol>
<symbol id="bones" viewBox="-12 -12 24 24">
<path d="M2.44,4.27l-.16,0H2.13a.22.22,0,0,1-.11,0l-.1-.06a.39.39,0,0,1-.09-.11l-.08-.13a1.51,1.51,0,0,1-.06-.15l-.07-.17s0-.11-.08-.19-.06-.16-.08-.21a4.75,4.75,0,0,0-.38-.71c-.18-.29-.43-.64-.74-1A11.15,11.15,0,0,0-.7.32,6.73,6.73,0,0,0-2-.64a4.12,4.12,0,0,0-1.44-.52A1.64,1.64,0,0,1-5-2.19.72.72,0,0,1-5-2.44a1,1,0,0,1,0-.29A.52.52,0,0,1-4.87-3a.54.54,0,0,1,.35-.15L-4-3.22l.46,0a.54.54,0,0,0,.27-.06A.52.52,0,0,0-3-3.56a.74.74,0,0,0,.13-.31.54.54,0,0,1,.15-.26.54.54,0,0,1,.3-.15.83.83,0,0,1,.47,0,1.11,1.11,0,0,1,.35.4A7.46,7.46,0,0,1-1-2.76q.18.42.33.72a3.22,3.22,0,0,0,.39.57L.1-1a4.77,4.77,0,0,0,.58.43c.28.18.51.33.69.43l1,.56a1.84,1.84,0,0,0,.39.23A5.29,5.29,0,0,1,3.22.9l.43.26a3.7,3.7,0,0,1,.46.3l.36.29a2.28,2.28,0,0,1,.31.32A1,1,0,0,1,5,2.4c.2.48,0,.78-.47.91h0a8.48,8.48,0,0,0-1.12.09,1,1,0,0,0-.42.44A1,1,0,0,1,2.44,4.27Z"/>
<rect fill="none" x="-12" y="-12" width="24" height="24"/>
</symbol>
<symbol id="calcite" viewBox="-12 -12 24 24">
<path d="M2.36-2.22l.05.46.34,3.91L2,2.22,1.65-1.26-2.52-.06l-.23-.7L1.89-2.08Z"/>
<rect fill="none" x="-12" y="-12" width="24" height="24"/>
</symbol>
<symbol id="cauliflower" viewBox="-12 -12 24 24">
<path d="M5.58,3.22v-3A2.12,2.12,0,0,0,6.92-.43a1.78,1.78,0,0,0,.55-1.32,1.92,1.92,0,0,0-.65-1.42,2.19,2.19,0,0,0-1.53-.59,2.21,2.21,0,0,0-1.54.59,1.78,1.78,0,0,0-.64,1.42A1.86,1.86,0,0,0,3.65-.43,2.12,2.12,0,0,0,5,.23v3H.26v-3A2.17,2.17,0,0,0,1.61-.43a1.81,1.81,0,0,0,.54-1.32,1.91,1.91,0,0,0-.64-1.42A2.21,2.21,0,0,0,0-3.76a2.21,2.21,0,0,0-1.54.59,1.82,1.82,0,0,0-.64,1.42A1.83,1.83,0,0,0-1.66-.43,2.12,2.12,0,0,0-.32.23v3H-5v-3A2.12,2.12,0,0,0-3.71-.43a1.78,1.78,0,0,0,.55-1.32,1.92,1.92,0,0,0-.65-1.42,2.19,2.19,0,0,0-1.53-.59,2.21,2.21,0,0,0-1.54.59,1.83,1.83,0,0,0-.65,1.42A1.87,1.87,0,0,0-7-.43,2.12,2.12,0,0,0-5.64.23v3H-8v.54H8V3.22Z"/>
<rect fill="none" x="-12" y="-12" width="24" height="24"/>
</symbol>
<symbol id="clay" viewBox="-12 -12 24 24">
<path d="M1.85-1.33a3,3,0,0,1,1.67.48,3.23,3.23,0,0,1,1,1l.29.51-1,.43a3.81,3.81,0,0,0-.23-.4A3.74,3.74,0,0,0,2.93,0,1.77,1.77,0,0,0,1.85-.32a2.57,2.57,0,0,0-1.1.15A.86.86,0,0,0,.51.14,2.23,2.23,0,0,1,0,.88a2.55,2.55,0,0,1-1.45.43,3.16,3.16,0,0,1-2.75-1,4.28,4.28,0,0,1-.37-.57,3.91,3.91,0,0,1-.21-.47l0-.16,1-.22a1.87,1.87,0,0,0,.45.79A2.12,2.12,0,0,0-1.51.33,1.82,1.82,0,0,0-.69.14l.21-.36A1.53,1.53,0,0,1,.17-1,3.76,3.76,0,0,1,1.85-1.33Z"/>
<rect fill="none" x="-12" y="-12" width="24" height="24"/>
</symbol>
<symbol id="crystals" viewBox="-12 -12 24 24">
<path d="M-2.94-5.38,0-.72,2.94-5.38,3.62-5,.68-.36H6.56V.36H.68L3.62,5l-.68.36L0,.72-2.94,5.38-3.62,5-.68.36H-6.56V-.36H-.68L-3.62-5Z"/>
<rect fill="none" x="-12" y="-12" width="24" height="24"/>
</symbol>
<symbol id="curtain" viewBox="-12 -12 24 24">
<path d="M3.57-6.69l.52.53L.39-3V-.33L.1-.26a3.79,3.79,0,0,0-1,.41c-.58.3-.87.65-.87,1v.07A1.61,1.61,0,0,0-.84,2.48a3.69,3.69,0,0,0,.45.24L0,2.86l.13.05L.39,3V6.12H-.39V3.51a7.65,7.65,0,0,1-.9-.46A2.19,2.19,0,0,1-2.54,1.28V1.23A2,2,0,0,1-1.31-.48,5.32,5.32,0,0,1-.39-.86V-3l-3.7-3.14.52-.53L0-3.67Z"/>
<rect fill="none" x="-12" y="-12" width="24" height="24"/>
</symbol>
<symbol id="disk" viewBox="-12 -12 24 24">
<path d="M-.09-4.19a2.43,2.43,0,0,1,1.7.64A2,2,0,0,1,2.35-2,2.09,2.09,0,0,1,1.81-.55,2.44,2.44,0,0,1,.35.23l2.18,3.6-.68.33L0,1.14-1.48,4.19l-.71-.29L-.41.25A2.53,2.53,0,0,1-1.9-.47a2,2,0,0,1-.63-1.41,2,2,0,0,1,.67-1.61,2.46,2.46,0,0,1,1.72-.7ZM1.05-3.06.56-3.49l-.69,0A1.72,1.72,0,0,0-1.29-3a1.51,1.51,0,0,0-.45,1.08,1.36,1.36,0,0,0,.51,1A1.68,1.68,0,0,0-.07-.44v0l0,0A1.7,1.7,0,0,0,1.11-.92,1.36,1.36,0,0,0,1.56-2,1.47,1.47,0,0,0,1.05-3.06Z"/>
<rect fill="none" x="-12" y="-12" width="24" height="24"/>
</symbol>
<symbol id="entrance" viewBox="-12 -12 24 24">
<path d="M4.46,9H-4.46L0-9Z"/>
<rect fill="none" x="-12" y="-12" width="24" height="24"/>
</symbol>
<symbol id="flowstone" viewBox="-12 -12 24 24">
<rect x="-6" y="-0.21" width="12" height="0.42"/>
<rect fill="none" x="-12" y="-12" width="24" height="24"/>
</symbol>
<symbol id="flutes" viewBox="-12 -12 24 24">
<path d="M-7-1H7v.72H3.87A4.7,4.7,0,0,1,2.16,1.5,4.2,4.2,0,0,1,0,2.13,3.94,3.94,0,0,1-2.19,1.5,4.18,4.18,0,0,1-3.76-.27H-7Zm4.17.72A3.15,3.15,0,0,0-1.65,1,3.21,3.21,0,0,0,0,1.41,3.49,3.49,0,0,0,1.6,1,3.68,3.68,0,0,0,3-.27Z"/>
<rect fill="none" x="-12" y="-12" width="24" height="24"/>
</symbol>
<symbol id="gradient" viewBox="-12 -12 24 24">
<path d="M2.58-3.83,0-10-2.58-3.83A4.74,4.74,0,0,1-.17-4.5V10H.25V-4.5A6.65,6.65,0,0,1,2.58-3.83Z"/>
<rect fill="none" x="-12" y="-12" width="24" height="24"/>
</symbol>
<symbol id="guano" viewBox="-12 -12 24 24">
<path d="M-3.24-3a2.15,2.15,0,0,1,1.57.55A3.93,3.93,0,0,1-.59.24a4.32,4.32,0,0,1,2.75-2.3,2.68,2.68,0,0,1,2.23.36A2.36,2.36,0,0,1,5.5.19l-.79,0a1.72,1.72,0,0,0-.79-1.37,1.94,1.94,0,0,0-1.55-.24A3.53,3.53,0,0,0,.48,0,6.63,6.63,0,0,0-.69,3l-.79-.09a10.72,10.72,0,0,0,0-3.16A3.21,3.21,0,0,0-2.22-2,1.44,1.44,0,0,0-3.37-2.3,3.45,3.45,0,0,0-5-1.54l-.5-.55a4.29,4.29,0,0,1,2-.91A.9.9,0,0,1-3.24-3Z"/>
<rect fill="none" x="-12" y="-12" width="24" height="24"/>
</symbol>
<symbol id="helictites" viewBox="-12 -12 24 24">
<path d="M-4.59-7.92h.79v7.7l3.41,0V-7.92H.39V-.17L4.2-.12h.39v8H3.8V.6L.39.55V7.92H-.39V.55L-4.2.5l-.39,0v-8.4Z"/>
<rect fill="none" x="-12" y="-12" width="24" height="24"/>
</symbol>
<symbol id="human" viewBox="-12 -12 24 24">
<path d="M-3.59-3.29A5.13,5.13,0,0,1,0-4.66,5.13,5.13,0,0,1,3.59-3.29,4.3,4.3,0,0,1,5.09,0a4.3,4.3,0,0,1-1.5,3.29A5.13,5.13,0,0,1,0,4.66,5.13,5.13,0,0,1-3.59,3.29,4.3,4.3,0,0,1-5.09,0,4.3,4.3,0,0,1-3.59-3.29Zm.28.77A3.68,3.68,0,0,0-4.3,0a3.62,3.62,0,0,0,1,2.57L-.5.05ZM0-3.94A4.42,4.42,0,0,0-2.75-3L.16-.36H4.28A3.62,3.62,0,0,0,2.91-2.9,4.38,4.38,0,0,0,0-3.94ZM.16.46-2.7,3.07A4.42,4.42,0,0,0,0,3.94a4.37,4.37,0,0,0,2.87-1A3.78,3.78,0,0,0,4.28.46Z"/>
<rect fill="none" x="-12" y="-12" width="24" height="24"/>
</symbol>
<symbol id="karren" viewBox="-12 -12 24 24">
<path d="M1-5.84h0a1.37,1.37,0,0,1,1.06.68A3.33,3.33,0,0,1,2.5-3.79,25.79,25.79,0,0,1,2.36,0a18.61,18.61,0,0,0-.08,3.72,2.68,2.68,0,0,0,.41,1.2,1.13,1.13,0,0,0,.79.5A.92.92,0,0,0,4,4.94a4.43,4.43,0,0,0,.47-1.22c.16-.64.36-1.86.59-3.66a26.71,26.71,0,0,1,.64-3.69,4.62,4.62,0,0,1,.57-1.29,1.34,1.34,0,0,1,1-.59h0A1.28,1.28,0,0,1,8.37-5a2.17,2.17,0,0,1,.39,1.15A19.91,19.91,0,0,1,8.54-.53a21.51,21.51,0,0,0-.2,3.64A2.64,2.64,0,0,0,9.45,5.36,1.91,1.91,0,0,0,10.88,5a3.84,3.84,0,0,0,.7-1l.42.2-.1.18-.12.21-.11.18L11.52,5a.94.94,0,0,1-.14.16c-.06.07-.13.12-.19.18a2.5,2.5,0,0,1-1.85.41H9.29l0,0A3.06,3.06,0,0,1,7.87,3.13a22.11,22.11,0,0,1,.2-3.7,18.17,18.17,0,0,0,.22-3.28A1.85,1.85,0,0,0,8-4.79a.77.77,0,0,0-.67-.3.93.93,0,0,0-.64.42,4.51,4.51,0,0,0-.51,1.15A26.26,26.26,0,0,0,5.54.1c-.24,1.83-.45,3.07-.61,3.72a5.38,5.38,0,0,1-.51,1.34,1.33,1.33,0,0,1-.89.68H3.47A1.58,1.58,0,0,1,2.3,5.16a3.29,3.29,0,0,1-.49-1.4A20.27,20.27,0,0,1,1.89,0,23.45,23.45,0,0,0,2-3.75a2.94,2.94,0,0,0-.32-1.19A.93.93,0,0,0,1-5.42,1.1,1.1,0,0,0,.19-5,3.69,3.69,0,0,0-.43-3.76,20.78,20.78,0,0,0-1.07.07c-.2,2-.37,3.32-.49,3.86A4.48,4.48,0,0,1-2,5.26,1.06,1.06,0,0,1-3,5.81h0a1.9,1.9,0,0,1-1.29-.67,2.7,2.7,0,0,1-.58-1.31,14.92,14.92,0,0,1,0-3.6q0-.12.06-.54c0-.28,0-.47,0-.57s0-.28,0-.52,0-.42,0-.55,0-.28,0-.47,0-.36,0-.51,0-.29,0-.43A3.09,3.09,0,0,0-5-4.62a1.19,1.19,0,0,0-.67-.6,1.5,1.5,0,0,0-1.2.9A7,7,0,0,0-7.41-2.1c0,.39-.1,1-.14,1.76s-.11,1.47-.18,2.08A9.61,9.61,0,0,1-8,3.32h0l0,0A2.81,2.81,0,0,1-9.2,4.62a1.82,1.82,0,0,1-1.35.15A1.94,1.94,0,0,1-11.61,4,2.39,2.39,0,0,1-12,2.56l.47,0a1.92,1.92,0,0,0,.31,1.16,1.47,1.47,0,0,0,.81.62,1.3,1.3,0,0,0,1-.11A2.32,2.32,0,0,0-8.5,3.18a7.53,7.53,0,0,0,.29-1.5Q-8.1.8-8-.36c0-.78.1-1.37.16-1.78A7.23,7.23,0,0,1-7.28-4.5,1.93,1.93,0,0,1-5.65-5.66h.05l0,0a1.59,1.59,0,0,1,1,.84,3.47,3.47,0,0,1,.34,1.41,4.91,4.91,0,0,1,0,.57v.54c0,.15,0,.37,0,.66s0,.47,0,.58,0,.33-.06.68,0,.56-.06.63a14.78,14.78,0,0,0,0,3.49,2.58,2.58,0,0,0,.5,1.13,1.57,1.57,0,0,0,1,.5A.61.61,0,0,0-2.44,5,3.89,3.89,0,0,0-2,3.85C-1.9,3.31-1.74,2-1.53,0A20.65,20.65,0,0,1-.86-3.89,3.89,3.89,0,0,1-.18-5.26,1.58,1.58,0,0,1,1-5.84Z"/>
<rect fill="none" x="-12" y="-12" width="24" height="24"/>
</symbol>
<symbol id="moonmilk" viewBox="-12 -12 24 24">
<path d="M-4.78-3.06a3.39,3.39,0,0,1,1.5.34,2.48,2.48,0,0,1,1.1,1,3.74,3.74,0,0,1,1.62-.8,3.52,3.52,0,0,1,1.71,0,2.9,2.9,0,0,1,1.39.77A2.49,2.49,0,0,1,3.25-.37,4,4,0,0,1,5-.76a3.58,3.58,0,0,1,1.6.36A2.84,2.84,0,0,1,7.88.92a2.32,2.32,0,0,1,0,1.88.34.34,0,0,1-.37.26A.36.36,0,0,1,7.25,3a.32.32,0,0,1-.12-.25.21.21,0,0,1,0-.12,2,2,0,0,0,0-1.43,2,2,0,0,0-1-.9A2.81,2.81,0,0,0,4.68,0,2.78,2.78,0,0,0,3.12.56L2.46.25A1.7,1.7,0,0,0,2.15-1.1,2.15,2.15,0,0,0,1-1.81a2.85,2.85,0,0,0-1.58.06A3,3,0,0,0-2-.83l-.71-.12A1.74,1.74,0,0,0-3.55-2a2.36,2.36,0,0,0-1.39-.27,3.08,3.08,0,0,0-1.45.53A2.33,2.33,0,0,0-7.32-.56a.35.35,0,0,1-.37.24A.39.39,0,0,1-8-.42a.33.33,0,0,1-.1-.26v-.1A3,3,0,0,1-6.89-2.35,4,4,0,0,1-5-3Z"/>
<rect fill="none" x="-12" y="-12" width="24" height="24"/>
</symbol>
<symbol id="narrow" viewBox="-12 -12 24 24">
<path d="M-1.5,5V-5h0.64V5H-1.5z"/>
<path d="M0.86,5V-5H1.5V5H0.86z"/>
<rect fill="none" x="-12" y="-12" width="24" height="24"/>
</symbol>
<symbol id="paleoflow" viewBox="-12 -12 24 24">
<path d="M.38-12V.17A1.9,1.9,0,0,0,1,0,1.57,1.57,0,0,0,1.7-.72a1.86,1.86,0,0,0,.23-1c0-.09,0-.14.08-.16a.92.92,0,0,1,.24,0,.52.52,0,0,0,.25,0h.08A2.48,2.48,0,0,1,2,0,2.5,2.5,0,0,1,.38.77V7.21H2.09L0,12-1.8,7.23c.07,0,.59,0,1.53,0V.77A3,3,0,0,1-1.35.43a2.16,2.16,0,0,1-1-1,2.38,2.38,0,0,1-.24-1.33l.67,0a2,2,0,0,0,.15,1,1.73,1.73,0,0,0,.59.67A2.14,2.14,0,0,0-.27.16V-12Z"/>
<rect fill="none" x="-12" y="-12" width="24" height="24"/>
</symbol>
<symbol id="rain" viewBox="-12 -12 24 24">
<path d="M-4.14-6.34h0.71v4.69h-0.71V-6.34z"/>
<path d="M-0.35-6.34h0.71v4.69h-0.71V-6.34z"/>
<path d="M3.43-6.34h0.71v4.69H3.43V-6.34z"/>
<path d="M-4.14,1.65h0.71v4.69h-0.71V1.65z"/>
<path d="M-0.35,1.65h0.71v4.69h-0.71V1.65z"/>
<path d="M3.43,1.65h0.71v4.69H3.43V1.65z"/>
<rect fill="none" x="-12" y="-12" width="24" height="24"/>
</symbol>
<symbol id="rats" viewBox="-12 -12 24 24">
<path d="M8.78-2.32,7-2.27c-.51-.17-.65-.56-1.46-.45l-.25.45C3.59-2.75,2.59-3.66.56-3.62l-1.35.3A4.89,4.89,0,0,0-4.24,1.57c-.68.6-2.58.86-3.39.94a6.84,6.84,0,0,0-1.62.39,4.91,4.91,0,0,0-1,.52A1.75,1.75,0,0,0-11,4.61a1.16,1.16,0,0,0,.59,1.48,1.3,1.3,0,0,1,.14.12c.16-.52-.35-.92-.2-1.42a3.35,3.35,0,0,1,.27-.45,3.18,3.18,0,0,1,1.79-1c.63-.12,1.27-.22,1.91-.3.48-.07,1,0,1.4-.12A6.94,6.94,0,0,1-4,2.82,30.64,30.64,0,0,0,.41,2.69l2.16.15c.1-.09,0,0,.1-.15a.87.87,0,0,0-.9-.55c.86-1,2.27-.37,3.1-.05.5.19,1,0,1.25.4.11-.1.1-.07.15-.25.3,0,.31.07.6.15-.06-.49-.34-.64-1-.6a.78.78,0,0,1,0-.55C6.3.56,7.29.73,8.13.43a13.78,13.78,0,0,0,2.15-.9l.6-.85v-.2A16.9,16.9,0,0,0,8.78-2.32Z"/>
<rect fill="none" x="-12" y="-12" width="24" height="24"/>
</symbol>
<symbol id="sand" viewBox="-12 -12 24 24">
<path d="M-1.58,0.83c0.23,0.2,0.35,0.44,0.36,0.73c0.01,0.29-0.08,0.54-0.28,0.75c-0.2,0.21-0.46,0.32-0.78,0.33c-0.32,0.01-0.6-0.08-0.83-0.26C-3.36,2.19-3.49,1.95-3.5,1.67C-3.51,1.38-3.41,1.12-3.2,0.9c0.21-0.22,0.48-0.34,0.8-0.35C-2.08,0.54-1.81,0.64-1.58,0.83z"/>
<path d="M0.08-2.36c0.23,0.2,0.35,0.44,0.36,0.73c0.01,0.29-0.08,0.54-0.28,0.75c-0.2,0.21-0.46,0.32-0.78,0.33c-0.32,0.01-0.59-0.07-0.83-0.26s-0.37-0.42-0.38-0.71c-0.01-0.29,0.09-0.54,0.3-0.76c0.21-0.22,0.48-0.33,0.8-0.35C-0.42-2.65-0.14-2.56,0.08-2.36z"/>
<path d="M3.12,0.55c0.23,0.2,0.35,0.43,0.38,0.71c0.02,0.28-0.07,0.53-0.28,0.75C3,2.23,2.73,2.35,2.42,2.36C2.1,2.37,1.82,2.28,1.58,2.08C1.34,1.88,1.22,1.64,1.2,1.35c-0.01-0.29,0.09-0.54,0.3-0.75C1.72,0.4,1.99,0.29,2.3,0.28S2.89,0.36,3.12,0.55z"/>
<rect fill="none" x="-12" y="-12" width="24" height="24"/>
</symbol>
<symbol  id="scallops" viewBox="-12 -12 24 24">
<path d="M.05-3.74l.21,0A2.35,2.35,0,0,1,1.74-3a2,2,0,0,1,.59,1.55v0l0,0A9.59,9.59,0,0,1-.08,3.27l-.39.47-.27-.55A14.26,14.26,0,0,1-2.33-1.89v-.05l0-.05A2,2,0,0,1-1.44-3.3,2.42,2.42,0,0,1,.05-3.74ZM-.11-3A1.44,1.44,0,0,0-1.55-1.89,13.06,13.06,0,0,0-.29,2.33,8.6,8.6,0,0,0,1.55-1.54a1.41,1.41,0,0,0-.38-1A1.62,1.62,0,0,0,.18-3Z"/>
<rect fill="none" x="-12" y="-12" width="24" height="24"/>
</symbol>
<symbol  id="sink" viewBox="-12 -12 24 24">
<path d="M.72,9.41H.9c1.94,0,3.26-.54,3.94-1.51a3.61,3.61,0,0,0,.33-.69,2,2,0,0,0,.11-.54V6.46l.69,0a2.8,2.8,0,0,1-.58,1.78C4.58,9.39,3.1,10,.93,10H-.93q-3.25,0-4.46-1.8a2.74,2.74,0,0,1-.43-.83A2.37,2.37,0,0,1-6,6.67V6.43l.68,0A2.27,2.27,0,0,0-4.84,7.9c.68,1,2,1.47,3.93,1.48l.5,0ZM-1.46-10a.68.68,0,0,0,.16.41A2.77,2.77,0,0,0-.51-9l0,0a3.63,3.63,0,0,1,1,.7,1.15,1.15,0,0,1,.34.88c0,.58-.53,1.14-1.49,1.68-.68.42-1,.79-1,1.11s.3.61.84,1h0Q.61-2.86.46-1.78a3.51,3.51,0,0,1-1.55,2,.61.61,0,0,0-.26.41,1.67,1.67,0,0,0,.1.51,5.3,5.3,0,0,1,.32,1L.56,1.9.46,8.06-3.4,2.54l1.73-.28A6.16,6.16,0,0,0-2,1.39,1.7,1.7,0,0,1-2.09.58a1.21,1.21,0,0,1,.53-.82h0v0C-.75-.86-.33-1.38-.28-1.85s-.23-.87-.91-1.27h0C-2-3.6-2.37-4.1-2.4-4.61S-2-5.74-1.09-6.29C-.34-6.72.06-7.1.09-7.44a.67.67,0,0,0-.18-.43,3.17,3.17,0,0,0-.79-.58,2.93,2.93,0,0,1-1-.67A1.16,1.16,0,0,1-2.17-10Z"/>
<rect fill="none" x="-12" y="-12" width="24" height="24"/>
</symbol>
<symbol  id="spring" viewBox="-12 -12 24 24">
<path d="M-1.34-9.86,2.52-4.34.78-4.06a8,8,0,0,0,.29.87,1.4,1.4,0,0,1,.13.79,1.3,1.3,0,0,1-.52.84l0,0v0C-.13-.95-.55-.42-.61,0S-.37.91.31,1.3l0,0c.75.46,1.14,1,1.18,1.46S1.12,3.92.21,4.46C-.54,4.9-.94,5.29-1,5.64a.74.74,0,0,0,.18.43A3.2,3.2,0,0,0,0,6.62a3,3,0,0,1,1,.7,1.14,1.14,0,0,1,.31.86A1.74,1.74,0,0,1,.71,9.26H.92c1.92,0,3.22-.52,3.9-1.51a2.05,2.05,0,0,0,.35-.67,2.59,2.59,0,0,0,.1-.55l0-.19.65,0a2.84,2.84,0,0,1-.55,1.8C4.58,9.26,3.08,9.85.92,9.86H-.92c-2.17,0-3.66-.6-4.49-1.77a3.65,3.65,0,0,1-.4-.85A2.43,2.43,0,0,1-6,6.53V6.29l.66,0a2.08,2.08,0,0,0,.47,1.41c.68,1,2,1.5,3.91,1.51H-.4c.62-.43.94-.8,1-1.1a.76.76,0,0,0-.16-.43,3.25,3.25,0,0,0-.79-.51v0a3.8,3.8,0,0,1-1-.7,1.15,1.15,0,0,1-.34-.91q.06-.84,1.5-1.68c.68-.4,1-.77,1-1.1S.49,2.21,0,1.87c0,0,0,0,0,0C-1,1.32-1.44.69-1.34,0a3.58,3.58,0,0,1,1.55-2,.54.54,0,0,0,.23-.38A1.28,1.28,0,0,0,.37-3a4.57,4.57,0,0,1-.32-1l-1.49.24Z"/>
<rect fill="none" x="-12" y="-12" width="24" height="24"/>
</symbol>
<symbol  id="stalactite" viewBox="-12 -12 24 24">
<path d="M3.57-6.69l.52.53L.39-3V6.12H-.39V-3l-3.7-3.14.52-.53L0-3.67Z"/>
<rect fill="none" x="-12" y="-12" width="24" height="24"/>
</symbol>
<symbol  id="stalagmite" viewBox="-12 -12 24 24">
<path d="M.38-6.42V2.75L4.11,5.89l-.56.53L0,3.4l-3.57,3-.53-.53,3.7-3.14V-6.42Z"/>
<rect fill="none" x="-12" y="-12" width="24" height="24"/>
</symbol>
<symbol  id="stalagnate" viewBox="-12 -12 24 24">
<path d="M3.55-8.46l.56.53L.38-4.78v9L4.11,7.36l-.56.53L0,4.86l-3.57,3-.53-.53,3.7-3.14v-9l-3.7-3.15.53-.53L0-5.43Z"/>
<rect fill="none" x="-12" y="-12" width="24" height="24"/>
</symbol>
<symbol  id="straws" viewBox="-12 -12 24 24">
<path d="M-10.89-2.76H10.89V-2H9.63V.46H8.84V-2H8.29v5.6H7.5V-2H5.56V.7H4.77V-2H2.07V2.38H1.29V-2H-.1v3H-.89V-2H-3.2V4.11H-4V-2H-6.22L-6.16.75l-.79,0L-7-2H-8.32V2.33H-9.1V-2h-1.79Z"/>
<rect fill="none" x="-12" y="-12" width="24" height="24"/>
</symbol>
<symbol  id="water" viewBox="-12 -12 24 24">
<path d="M-1.72-9.86,2.11-4.32.38-4.06a6.49,6.49,0,0,0,.29.89,1.5,1.5,0,0,1,.13.79,1.2,1.2,0,0,1-.5.82h0l0,0C-.54-.94-1-.42-1,.05s.24.89.92,1.27h0c.77.48,1.17,1,1.19,1.49S.71,3.94-.2,4.49c-.75.43-1.13.81-1.15,1.15a.51.51,0,0,0,.18.43,2.66,2.66,0,0,0,.76.58,2.93,2.93,0,0,1,1,.67,1.16,1.16,0,0,1,.29.89C.84,8.75.42,9.3-.41,9.86l-.44-.55c.66-.45,1-.83,1-1.15A.47.47,0,0,0,0,7.75a2.84,2.84,0,0,0-.78-.53h0a3.87,3.87,0,0,1-1-.69,1.24,1.24,0,0,1-.34-.91c0-.58.54-1.14,1.52-1.68.66-.42,1-.79,1-1.11s-.3-.61-.84-1h0Q-1.9,1.06-1.74,0a3.44,3.44,0,0,1,1.54-2,.67.67,0,0,0,.27-.41A1.11,1.11,0,0,0,0-3a4.33,4.33,0,0,1-.31-1l-1.5.24Z"/>
<rect fill="none" x="-12" y="-12" width="24" height="24"/>
</symbol><symbol  id="tree" viewBox="-12 -12 24 24">
<path d="M7.4-5.04A4.271,4.271,0,0,0,7.7-6.627a4.3,4.3,0,0,0-4.3-4.3A4.279,4.279,0,0,0,.636-9.914,4.293,4.293,0,0,0-3.045-12a4.3,4.3,0,0,0-4.3,4.3,4.27,4.27,0,0,0,.421,1.845,4.3,4.3,0,0,0-3.645,4.244,4.3,4.3,0,0,0,4.3,4.3A4.282,4.282,0,0,0-3.946,2L-1.175,5.23h0L-1.612,12H.982L.757,6.376,4.119,2.827v0a4.272,4.272,0,0,0,2.15.58,4.3,4.3,0,0,0,4.3-4.3A4.3,4.3,0,0,0,7.4-5.04ZM-3.346,1.538h0A4.346,4.346,0,0,0-2.7.788a4.266,4.266,0,0,0,1.765.753l-.135,2.087ZM.69,4.7.563,1.544A4.258,4.258,0,0,0,2.321.805,4.3,4.3,0,0,0,3.378,2.279Z"/>
<rect fill="none" x="-12" y="-12" width="24" height="24"/>
</symbol><g>
<desc></desc>
<g>
<line fill="none" stroke="#dddddd" stroke-width="0.1mm" x1="0.00" y1="22.00" x2="58.00" y2="22.00" />
<text x="55.20" y="21.80" font-size=".2mm" fill="#000000">0m</text>
<line fill="none" stroke="#dddddd" stroke-width="0.1mm" x1="0.00" y1="2.00" x2="58.00" y2="2.00" />
<text x="55.20" y="1.80" font-size=".2mm" fill="#000000">10m</text>
<line fill="none" stroke="#dddddd" stroke-width="0.1mm" x1="0.00" y1="42.00" x2="58.00" y2="42.00" />
<text x="55.20" y="41.80" font-size=".2mm" fill="#000000">-10m</text>
<line fill="none" stroke="#dddddd" stroke-width="0.1mm" x1="39.00" y1="0.00" x2="39.00" y2="51.00" />
<text x="39.40" y="2.00" font-size=".2mm" fill="#000000">0m</text>
<line fill="none" stroke="#dddddd" stroke-width="0.1mm" x1="19.00" y1="0.00" x2="19.00" y2="51.00" />
<text x="19.40" y="2.00" font-size=".2mm" fill="#000000">-10m</text>
</g>
<g>
<path fill="none" stroke="#248B00" stroke-width="0.06mm" d="M34.498837,19.295593 C34.50201,19.374462 34.542088,19.588026 34.394268,19.579727 C34.379658,19.578909 34.28516,19.56896 34.278324,19.534245 C34.274803,19.516354 34.293297,19.498875 34.308273,19.48847 C34.35836,19.453667 34.412014,19.422522 34.469288,19.40155 C34.65921,19.33201 34.908844,19.268772 35.11577,19.266783 C35.307022,19.264944 35.49924,19.269297 35.688908,19.293926 C35.823242,19.311369 35.951996,19.358635 36.083176,19.392405 C36.315296,19.45216 36.545174,19.520924 36.778793,19.574497 C36.998444,19.624866 37.168858,19.520763 37.3704,19.473751 C37.396675,19.46762 37.42365,19.463863 37.450615,19.462942 C37.476852,19.462046 37.502987,19.466658 37.529186,19.468325 C37.548126,19.469528 37.568268,19.478247 37.58603,19.471558 C37.652,19.446703 37.71177,19.407757 37.77464,19.375858 L37.77464,19.375858" /><path fill="none" stroke="#248B00" stroke-width="0.06mm" d="M37.709244,19.429369 C37.77442,19.483376 37.844357,19.532112 37.90478,19.591393 C38.014286,19.698818 38.060986,19.801687 38.16216,19.916191 C38.196075,19.954576 38.237293,19.985838 38.27498,20.02053 C38.53787,20.262518 38.424408,20.14879 38.60102,20.333088 L38.60102,20.333088" /><path fill="none" stroke="#248B00" stroke-width="0.06mm" d="M34.724754,17.806236 C34.761604,17.43661 34.78443,17.065313 34.835297,16.697353 C34.8652,16.584106 34.88919,16.469131 34.92501,16.357615 C34.927395,16.350182 34.94001,16.346079 34.947002,16.349556 C34.959366,16.355707 34.96904,16.36846 34.97324,16.381615 C35.063717,16.664818 35.14062,16.95222 35.23011,17.235737 C35.256676,17.319891 35.302917,17.340263 35.313713,17.233511 C35.369495,16.681868 35.42251,16.129894 35.46782,15.577292 C35.484585,15.372843 35.47915,15.166805 35.499916,14.962724 C35.517353,14.891125 35.534786,14.819527 35.552223,14.747929 C35.565517,14.748608 35.583664,14.739674 35.592113,14.749964 C35.609707,14.771393 35.615135,14.8013 35.618626,14.828808 C35.70216,15.486986 35.763733,16.147907 35.85297,16.805336 C35.862144,16.872932 35.877293,16.942999 35.913456,17.00084 C35.94952,17.05852 36.012768,17.093836 36.062424,17.140335 L36.062424,17.140335" /><path fill="none" stroke="#248B00" stroke-width="0.06mm" d="M36.21997,16.920351 C36.28619,16.845455 36.396095,16.742853 36.432274,16.638372 C36.481636,16.495827 36.5183,16.34911 36.555405,16.202892 C36.58132,16.100754 36.442787,16.00222 36.352573,16.044268 C36.26488,16.08514 36.246284,16.27014 36.250217,16.334866 C36.264614,16.571882 36.29404,16.807991 36.32907,17.042845 C36.35068,17.187727 36.5466,17.617426 36.675556,17.287327 C36.725895,17.158472 36.774124,17.028803 36.82341,16.899542 L36.82341,16.899542" /><path fill="none" stroke="#248B00" stroke-width="0.06mm" d="M36.900696,17.321674 C36.94875,17.258526 37.12096,15.85981 37.34314,16.358969 C37.38548,16.454092 37.43586,16.54762 37.45848,16.649254 C37.65163,17.517048 37.798935,17.316898 37.56953,17.592197 L37.56953,17.592197" /><path fill="none" stroke="#248B00" stroke-width="0.06mm" d="M37.08797,16.700367 C37.244404,16.945965 37.30459,16.94775 37.584393,17.00359 L37.584393,17.00359" /><path fill="none" stroke="#248B00" stroke-width="0.06mm" d="M37.620064,17.508959 C37.64037,17.249027 37.622307,17.22873 37.684994,17.02926 C37.71852,16.922577 37.756798,16.817442 37.792652,16.711517 C37.803246,16.680225 37.810493,16.647606 37.82434,16.61761 C37.864338,16.530954 38.038517,16.26775 38.109943,16.482073 C38.135105,16.557579 38.161304,16.633541 38.173767,16.712147 C38.210335,16.942791 38.08129,17.561941 38.25671,17.407791 C38.482903,17.209028 38.34251,16.811539 38.397552,16.515497 C38.40712,16.464052 38.569263,16.02067 38.669155,16.24168 C38.821606,16.578972 38.634846,16.937542 38.787064,17.283356 C38.805016,17.324139 38.82507,17.3652 38.85409,17.399012 C38.882942,17.432629 38.923187,17.454473 38.957733,17.482204 L38.957733,17.482204" /><path fill="none" stroke="#248B00" stroke-width="0.06mm" d="M39.064747,16.420925 C38.988274,16.62387 38.892494,16.835985 38.97791,17.050306 C38.996613,17.09724 39.028305,17.143673 39.07194,17.170876 C39.153652,17.221807 39.287888,17.206337 39.32343,17.10647 C39.35317,17.02289 39.329544,16.834362 39.32548,16.80616 C39.30218,16.64446 39.260654,16.485918 39.22824,16.325796 L39.22824,16.325796" /><path fill="none" stroke="#248B00" stroke-width="0.06mm" d="M39.290665,15.213982 C39.332912,15.834627 39.362316,16.45628 39.417408,17.075916 C39.424,17.150087 39.49839,17.564539 39.634556,17.618137 C39.702667,17.644949 39.77588,17.656336 39.846542,17.675434 L39.846542,17.675434" /><path fill="none" stroke="#248B00" stroke-width="0.06mm" d="M39.920853,17.247356 C39.97897,17.184025 40.04122,17.124254 40.0952,17.057364 C40.212887,16.911531 40.20214,16.667198 40.178474,16.49902 C40.168842,16.43059 40.151314,16.362946 40.127518,16.298067 C40.12131,16.28115 40.10819,16.261463 40.090366,16.258799 C40.017517,16.247904 39.96897,16.492233 39.966805,16.503939 C39.928413,16.7113 39.96022,16.879345 39.993103,17.097788 C40.007557,17.193779 40.05114,17.303526 40.101616,17.385864 C40.233093,17.600336 40.34071,17.672836 40.4791,17.426353 C40.638283,17.142834 40.558174,16.744173 40.794674,16.491995 C40.831684,16.452532 40.884533,16.493582 40.89949,16.530752 C40.936626,16.623026 40.975174,16.715818 40.996246,16.813026 C41.04932,17.057838 41.06354,17.310299 41.121334,17.554043 C41.125286,17.570711 41.15773,17.54346 41.165867,17.528383 C41.271408,17.332714 41.347992,17.121964 41.458466,16.929031 C42.01419,15.958486 41.806503,16.530062 41.954113,16.099867 L41.954113,16.099867" /><path fill="none" stroke="#248B00" stroke-width="0.06mm" d="M37.07608,18.154049 C37.0161,18.026669 36.920666,17.860659 36.982784,17.710894 C36.996616,17.677538 37.03691,17.582382 37.039215,17.61842 C37.06094,17.958275 37.044247,18.29952 37.042175,18.640064 C37.04189,18.687435 37.026653,18.734774 37.03214,18.78183 C37.03747,18.827578 37.11138,18.796305 37.120106,18.79191 C37.16019,18.771725 37.207893,18.75637 37.233723,18.719671 C37.24499,18.703663 37.194786,18.711342 37.175323,18.71346 C37.121582,18.719315 37.069057,18.733416 37.015926,18.743393 C36.93651,18.744392 36.856853,18.740177 36.77767,18.746391 C36.678284,18.754192 36.56266,18.842087 36.471607,18.765831 C36.373646,18.683784 36.32057,18.464363 36.293633,18.38128 C36.28532,18.355637 36.256752,18.31407 36.280582,18.30147 C36.324966,18.278002 36.38088,18.306246 36.431026,18.308634 L36.431026,18.308634" /><path fill="none" stroke="#248B00" stroke-width="0.06mm" d="M34.543427,19.33424 C34.398865,19.356552 34.254303,19.378866 34.109737,19.40118 C33.989822,19.408451 33.868874,19.4057 33.74999,19.42299 C33.68722,19.43212 33.62894,19.460934 33.568417,19.479906 L33.568417,19.479906" /><path fill="none" stroke="#248B00" stroke-width="0.06mm" d="M53.940002,8.080001 C53.906567,8.197309 53.878616,8.316319 53.8397,8.431924 C53.82153,8.485894 53.783524,8.541841 53.742233,8.581928 C53.691284,8.631396 53.567783,8.675202 53.565975,8.56029 C53.563652,8.412842 53.580345,8.380138 53.616135,8.241211 C53.624687,8.207996 53.663845,8.168481 53.64239,8.14172 C53.621124,8.115192 53.54363,8.204918 53.534084,8.220428 C53.467865,8.328067 53.626472,8.435762 53.72177,8.431047 C53.773567,8.428485 53.822643,8.401992 53.861893,8.369794 C54.072727,8.1968355 54.03678,7.9921083 54.071793,7.7405663 C54.09149,7.5990467 54.271996,7.348423 54.3,7.3 L54.3,7.3" /><path fill="none" stroke="#248B00" stroke-width="0.06mm" d="M33.505993,23.727991 C33.503834,23.877644 33.48525,23.954428 33.526993,24.08493 C33.53958,24.124279 33.55988,24.16073 33.576355,24.198616 C33.60839,24.272274 33.647667,24.343184 33.67254,24.41956 C33.724163,24.578112 33.753666,24.743309 33.80534,24.901846 C33.841515,25.012827 33.968124,25.157326 34.03693,25.225658 C34.18209,25.369831 34.509502,25.773508 34.80995,25.852503 C35.10302,25.929558 35.41821,25.809408 35.6978,25.758348 C35.75401,25.748083 35.809742,25.7306 35.866882,25.730133 C36.303326,25.726555 36.46453,25.790062 36.933395,25.883247 L36.933395,25.883247" /><path fill="none" stroke="#248B00" stroke-width="0.06mm" d="M53.78207,43.253136 L53.7795,43.259483" /><path fill="none" stroke="#248B00" stroke-width="0.06mm" d="M36.383465,24.096615 L36.57114,24.06729" /><path fill="none" stroke="#248B00" stroke-width="0.06mm" d="M35.090385,23.154247 L35.26577,22.907509" /><path fill="none" stroke="#248B00" stroke-width="0.06mm" d="M35.360893,22.746979 L35.263195,22.667112" /><path fill="none" stroke="#248B00" stroke-width="0.06mm" d="M35.265766,22.797516 C35.382664,22.84664 35.473347,22.868687 35.565453,22.94982 C35.647152,23.021791 35.716206,23.107803 35.80092,23.176207 C35.91927,23.271772 36.05304,23.346888 36.173008,23.440416 C36.279743,23.523628 36.480656,23.837906 36.504314,23.869658 C36.537743,23.914518 36.578327,23.95386 36.610542,23.9996 C36.649,24.054203 36.67123,24.116106 36.68753,24.180126 C36.789345,24.580076 36.86992,24.759325 36.867054,25.120173 C36.865932,25.261711 36.71161,25.785305 36.503654,25.662704 C36.3789,25.589155 36.364513,25.453764 36.291313,25.31545 L36.291313,25.31545" /><path fill="none" stroke="#248B00" stroke-width="0.06mm" d="M36.377518,25.687046 C36.337826,25.823212 36.32421,25.985199 36.183727,25.84405 C36.104275,25.76422 36.00134,25.699924 35.95081,25.599264 C35.89721,25.492477 35.906315,25.364471 35.884068,25.247076 L35.884068,25.247076" /><path fill="none" stroke="#248B00" stroke-width="0.06mm" d="M36.54101,25.030064 C36.422894,25.035843 36.00159,25.1188 35.931572,24.925375 C35.924526,24.905914 35.915844,24.854486 35.92293,24.834858 C35.94668,24.769117 35.980255,24.707355 36.00892,24.643604 L36.00892,24.643604" /><path fill="none" stroke="#248B00" stroke-width="0.06mm" d="M36.46075,24.043104 C36.09041,24.12183 35.958794,24.213886 35.66707,24.022295 L35.66707,24.022295" /><path fill="none" stroke="#248B00" stroke-width="0.06mm" d="M34.186718,25.877302 C34.169876,25.9592 34.130215,26.039597 34.136196,26.122993 C34.137985,26.147896 34.1853,26.105532 34.20174,26.086742 C34.484196,25.763926 34.57235,25.617489 34.805016,25.279776 L34.805016,25.279776" /><path fill="none" stroke="#248B00" stroke-width="0.06mm" d="M34.061867,25.047901 C34.28683,24.680183 34.155533,24.861343 34.46317,24.50983 L34.46317,24.50983" /><path fill="none" stroke="#248B00" stroke-width="0.06mm" d="M33.491127,24.046078 C33.828667,24.032364 33.979694,23.95006 34.290756,23.814203 L34.290756,23.814203" /><path fill="none" stroke="#248B00" stroke-width="0.06mm" d="M33.45843,23.52287 C33.694252,23.435106 33.931324,23.350643 34.165894,23.259583 C34.244877,23.22892 34.31722,23.18066 34.398808,23.157804 C34.50067,23.129269 34.831383,23.103167 34.99794,23.013414 C35.026356,22.998102 35.051006,22.976624 35.078228,22.959278 C35.188847,22.888794 35.30036,22.819727 35.411427,22.74995 L35.411427,22.74995" /><path fill="none" stroke="#248B00" stroke-width="0.06mm" d="M26.671993,24.881426 C27.01601,24.776587 27.074482,24.73811 27.254456,24.389664 C27.329473,24.244425 27.39112,24.092314 27.447886,23.939018 C27.472141,23.87351 27.487038,23.80441 27.49678,23.73524 C27.504019,23.68386 27.507723,23.630655 27.498518,23.579592 C27.496124,23.566309 27.477518,23.553062 27.464706,23.557312 C27.43863,23.565962 27.421347,23.591404 27.402533,23.611427 C27.270302,23.752142 27.341888,24.02694 27.414022,24.17424 C27.48684,24.322933 27.612652,24.406189 27.746841,24.500633 C27.82865,24.558212 27.87855,24.563324 27.931969,24.63217 C28.015305,24.73957 27.99583,24.913467 27.945215,25.02996 C27.93295,25.05819 27.924726,25.09525 27.897066,25.108751 C27.825361,25.143751 27.742249,25.147459 27.66484,25.166813 L27.66484,25.166813" /><path fill="none" stroke="#248B00" stroke-width="0.06mm" d="M27.90562,22.232689 C27.903347,23.006493 27.876333,22.877605 28.099182,23.923494 C28.155602,24.188282 28.310398,24.6216 28.525448,24.831457 C28.608921,24.912916 28.708729,24.975754 28.800371,25.047901 L28.800371,25.047901" /><path fill="none" stroke="#248B00" stroke-width="0.06mm" d="M27.968044,23.962841 C28.177391,23.712694 28.190735,23.716375 28.50014,23.707182 L28.50014,23.707182" /><path fill="none" stroke="#248B00" stroke-width="0.06mm" d="M28.954945,24.093641 C28.90124,24.204777 28.831818,24.32351 28.84922,24.453728 C28.859653,24.531776 28.875454,24.609373 28.89746,24.684978 C28.927845,24.789362 28.957317,24.876104 29.023548,24.957054 C29.089096,25.037167 29.233067,25.10658 29.305826,24.999218 C29.375065,24.897047 29.382713,24.69913 29.38908,24.601917 C29.399261,24.44644 29.312935,24.147871 29.287891,24.061504 C29.282894,24.044262 29.268639,24.013817 29.252247,24.021133 C29.230076,24.031027 29.230701,24.065268 29.226055,24.089096 C29.217787,24.131512 29.212906,24.174953 29.213833,24.218157 C29.216139,24.325577 29.262463,24.675484 29.399284,24.725677 C29.447678,24.74343 29.499405,24.750237 29.549465,24.762516 L29.549465,24.762516" /><path fill="none" stroke="#248B00" stroke-width="0.06mm" d="M29.71296,24.078777 C29.695705,24.249735 29.665928,24.36479 29.70297,24.528408 C29.714403,24.578907 29.85416,25.092266 30.004658,25.034006 C30.038237,25.021008 30.06284,24.98312 30.079308,24.954866 C30.20185,24.744625 30.06509,24.455156 29.942905,24.28028 C29.866322,24.17067 29.793072,24.15749 29.662424,24.08175 L29.662424,24.08175" /><path fill="none" stroke="#248B00" stroke-width="0.06mm" d="M29.475151,22.672659 C29.479252,22.58925 29.456478,22.344881 29.487453,22.422434 C29.712852,22.98679 29.856535,23.58084 30.065748,24.151394 C30.12508,24.3132 30.290962,24.634521 30.452063,24.760647 C30.561583,24.84639 30.65614,24.86002 30.80093,24.914127 L30.80093,24.914127" /><path fill="none" stroke="#248B00" stroke-width="0.06mm" d="M30.456108,23.998514 C30.495098,24.08047 30.54052,24.159662 30.57308,24.244379 C30.594412,24.299883 30.605469,24.358936 30.617046,24.417261 C30.632877,24.497013 30.58934,24.705826 30.655226,24.65818 C30.712381,24.616846 30.698154,24.25476 30.693604,24.165962 C30.691246,24.120007 30.657963,24.067902 30.681622,24.028433 C30.69606,24.004347 30.72511,24.065655 30.739153,24.089973 C30.787697,24.174044 30.832647,24.260746 30.867977,24.351166 C30.946594,24.55236 30.955933,24.714228 31.065662,24.882147 C31.146523,25.005886 31.275703,24.831337 31.30438,24.759056 C31.324938,24.707247 31.332823,24.65013 31.33116,24.594692 C31.326029,24.423801 31.302914,24.253231 31.307621,24.082327 C31.308064,24.066257 31.33797,24.098782 31.34441,24.113512 C31.430052,24.309404 31.494307,24.514275 31.581757,24.709366 C31.610355,24.773169 31.731148,24.986282 31.836126,24.891054 C31.861141,24.868364 31.888626,24.827295 31.897453,24.79425 C31.92759,24.681438 31.951202,24.566982 31.978077,24.453348 L31.978077,24.453348" /><path fill="none" stroke="#248B00" stroke-width="0.06mm" d="M31.107107,22.607256 L31.273972,22.679005" /><path fill="none" stroke="#248B00" stroke-width="0.06mm" d="M32.06428,24.813053 C32.008934,24.75523 31.949938,24.700691 31.898235,24.639585 C31.770096,24.488148 31.727032,24.121033 31.711788,23.995308 C31.710155,23.981844 31.740458,23.988718 31.752472,23.995008 C31.783659,24.011333 31.81081,24.035145 31.835608,24.06013 C31.98148,24.207111 32.017735,24.267296 32.118237,24.457298 C32.20104,24.613832 32.269814,24.777683 32.35603,24.932362 C32.36448,24.94752 32.38208,24.964079 32.399227,24.961416 C32.41637,24.958754 32.42539,24.936846 32.43156,24.920631 C32.44327,24.889877 32.44617,24.856419 32.451565,24.823956 C32.47139,24.704588 32.488655,24.58481 32.5072,24.465239 L32.5072,24.465239" /><path fill="none" stroke="#248B00" stroke-width="0.06mm" d="M31.903763,24.500912 C32.13295,24.46104 32.02646,24.496336 32.224804,24.399837 L32.224804,24.399837" /><path fill="none" stroke="#248B00" stroke-width="0.06mm" d="M36.074314,23.121546 L36.074715,23.127892" /><path fill="none" stroke="#248B00" stroke-width="0.06mm" d="M36.098095,23.163164 C36.037174,22.841574 35.760174,22.228819 36.10861,21.928738 C36.199135,21.850773 36.317974,21.786987 36.4397,21.779055 C36.549637,21.77189 36.783924,21.742155 36.91494,21.811274 C36.954033,21.8319 37.000626,21.869724 37.025276,21.904804 C37.095947,22.005383 37.311096,22.453266 37.532227,22.576149 C37.555847,22.589275 37.58077,22.600359 37.60646,22.608732 C37.764763,22.66032 37.926594,22.700993 38.083775,22.75589 C38.174107,22.78744 38.257935,22.835802 38.34812,22.86776 C38.38546,22.880991 38.425083,22.890684 38.4647,22.890871 C38.715324,22.892046 38.965797,22.87818 39.21635,22.871834 L39.21635,22.871834" /><path fill="none" stroke="#248B00" stroke-width="0.06mm" d="M38.386993,20.208233 C38.40144,20.286768 38.410095,20.366592 38.430332,20.443838 C38.48043,20.635038 38.667786,20.859201 38.833282,20.962917 C38.934322,21.02624 39.038944,21.038134 39.159187,21.05967 C39.237545,21.073702 39.317436,21.0779 39.395855,21.091597 C39.44688,21.100508 39.49685,21.140118 39.547062,21.127415 C39.591858,21.116081 39.611958,21.061615 39.6444,21.028717 L39.6444,21.028717" /><path fill="none" stroke="#000000" stroke-width="0.06mm" d="M34.14824,23.791992 L33.892597,23.06069" /><path fill="none" stroke="#000000" stroke-width="0.06mm" d="M34.326595,23.619572 L34.231873,23.39404" /><path fill="none" stroke="#000000" stroke-width="0.06mm" d="M32.5252,21.978603 L32.528576,22.06224" /><path fill="none" stroke="#000000" stroke-width="0.06mm" d="M31.612616,22.162914 C32.26264,21.90058 32.167366,21.995672 32.842083,21.937607 C32.947906,21.9285 33.441326,21.800356 33.67434,21.880472 C33.85046,21.941027 33.95808,22.106445 34.09305,22.22159 C34.25512,22.35986 34.498966,22.401602 34.695198,22.457218 L34.695198,22.457218" /><path fill="none" stroke="#248B00" stroke-width="0.06mm" d="M33.330776,19.567686 C33.306004,20.568617 33.23452,21.56948 33.256462,22.570477 C33.288483,24.031563 32.968708,23.90377 33.550747,24.062513 L33.550747,24.062513" /><path fill="none" stroke="#248B00" stroke-width="0.06mm" d="M34.314705,22.463165 L34.315105,22.46059" /><path fill="none" stroke="#248B00" stroke-width="0.06mm" d="M34.32065,22.454247 L34.606018,22.371008" /><path fill="none" stroke="#248B00" stroke-width="0.06mm" d="M34.317677,22.314526 C34.5079,22.578094 34.5508,22.744717 34.598278,23.07712 C34.607586,23.142267 34.59928,23.268202 34.574352,23.33364 C34.55105,23.394812 34.516193,23.450932 34.487114,23.509579 L34.487114,23.509579" /><path fill="none" stroke="#000000" stroke-width="0.06mm" d="M34.056087,22.14805 C34.17986,22.249401 34.308052,22.34558 34.4274,22.452103 C34.638752,22.640749 34.633743,22.97239 34.605,23.2247 C34.59585,23.304981 34.556473,23.411997 34.483364,23.457699 C34.189987,23.641102 33.862843,23.681177 33.523735,23.708397 C33.306824,23.72581 33.06788,23.756075 32.848305,23.705975 C32.672134,23.665777 32.420994,23.520597 32.300804,23.452469 C32.1457,23.364546 32.047577,23.08654 31.979061,22.97319 C31.928692,22.889868 31.77287,22.779245 31.676107,22.85248 C31.659992,22.864677 31.622686,22.903292 31.625692,22.928001 C31.632462,22.98363 31.654627,23.03628 31.669094,23.090418 L31.669094,23.090418" /><path fill="none" stroke="#000000" stroke-width="0.06mm" d="M45.88,15.08 C46.022633,15.323994 46.15497,15.574308 46.307896,15.811984 C46.31443,15.822142 46.333126,15.803419 46.33852,15.792612 C46.347622,15.774367 46.34649,15.752493 46.34774,15.7321415 C46.361305,15.51115 46.365456,15.289569 46.382954,15.068855 C46.43206,14.449397 47.26503,14.4291725 47.7,14.36 L47.7,14.36" /><path fill="none" stroke="#000000" stroke-width="0.06mm" d="M37.14,50.879997 L37.1404,50.880398" /><path fill="none" stroke="#000000" stroke-width="0.06mm" d="M37.620003,50.84 L38.18,50.96" /><path fill="none" stroke="#000000" stroke-width="0.06mm" d="M31.55341,21.955374 C31.413454,22.012228 31.288004,22.078398 31.13872,22.042725 C31.043322,22.01993 30.981241,21.968191 30.884045,21.933903 C30.778881,21.896805 30.667992,21.887325 30.557407,21.893959 C30.363857,21.905571 30.238731,22.009392 30.06388,22.084461 C29.989723,22.116299 29.848589,22.129564 29.774986,22.201067 C29.73209,22.242737 29.717266,22.298092 29.715117,22.356115 C29.70543,22.617517 29.644463,23.010904 29.72091,23.310854 C29.746891,23.412796 29.792007,23.509632 29.813068,23.612703 C30.040646,24.726467 29.557106,23.328201 30.25418,25.278166 C30.409351,25.712229 30.499489,25.680141 30.73003,26.10175 C31.47684,27.467493 30.418657,25.780054 31.397549,27.469158 C31.425648,27.517647 31.480217,27.544846 31.521551,27.58269 L31.521551,27.58269" /><path fill="none" stroke="#000000" stroke-width="0.06mm" d="M31.784382,23.038622 C31.751097,23.354733 31.705542,23.500452 31.754074,23.786282 C31.880482,24.530746 32.515663,25.27898 32.843456,25.928406 C33.753002,27.730394 32.783413,26.123453 33.30562,26.969381 L33.30562,26.969381" /><path fill="none" stroke="#000000" stroke-width="0.06mm" d="M32.688362,23.67981 C32.50407,23.354282 32.57219,23.517763 32.47332,23.193941 L32.47332,23.193941" /><path fill="none" stroke="#000000" stroke-width="0.06mm" d="M33.074646,23.444841 C32.757736,23.11398 32.746647,23.069815 32.847656,22.648335 L32.847656,22.648335" /><path fill="none" stroke="#000000" stroke-width="0.06mm" d="M25.3012,16.710384 C25.164734,16.65566 24.936066,16.539732 24.882824,16.753931 C24.86198,16.837788 24.86158,16.929045 24.890282,17.01118 C24.899086,17.036377 24.90575,17.064508 24.924362,17.083637 C25.136913,17.30207 25.360876,17.50911 25.580465,17.720469 C25.667503,17.804243 25.67792,17.789833 25.725052,17.881676 C25.806389,18.040165 25.731945,18.296574 25.538479,18.319813 C25.516796,18.322418 25.494793,18.322449 25.472984,18.32135 C25.247189,18.30999 25.021896,18.286737 24.795856,18.28245 C24.67349,18.280128 24.76568,18.381235 24.820053,18.3861 C24.950779,18.397802 25.082409,18.394684 25.213589,18.398975 L25.213589,18.398975" /><path fill="none" stroke="#000000" stroke-width="0.06mm" d="M25.61182,15.702803 C25.730015,16.438885 25.589283,17.7644 26.120058,18.474094 C26.129614,18.48687 26.140137,18.499779 26.153765,18.508074 C26.249939,18.566614 26.34999,18.618538 26.448101,18.67377 L26.448101,18.67377" /><path fill="none" stroke="#000000" stroke-width="0.06mm" d="M26.065802,16.89358 C25.996475,16.82958 25.938004,16.751312 25.857824,16.70158 C25.842115,16.691837 25.821997,16.72158 25.81733,16.739466 C25.807854,16.775785 25.81432,16.81477 25.818562,16.852066 C25.829136,16.945074 25.88091,17.025211 25.958704,17.076176 C26.096006,17.16613 26.351261,17.19191 26.479961,17.220146 L26.479961,17.220146" /><path fill="none" stroke="#000000" stroke-width="0.06mm" d="M26.794563,17.371483 C26.763102,17.64383 26.741886,18.247747 26.990093,18.461807 C27.042418,18.506931 27.103424,18.45563 27.123821,18.404598 C27.171288,18.285843 27.215075,18.165154 27.247948,18.041557 C27.27169,17.952278 27.282478,17.85988 27.293104,17.768108 C27.297215,17.732624 27.298367,17.625797 27.29202,17.66095 C27.235977,17.971369 27.242592,18.384113 27.488646,18.622683 C27.518295,18.65143 27.54824,18.694647 27.589539,18.694588 C27.721039,18.694405 27.84805,18.646194 27.977303,18.621998 L27.977303,18.621998" /><path fill="none" stroke="#000000" stroke-width="0.06mm" d="M28.116686,17.96488 C28.088894,18.071716 28.055779,18.177307 28.033306,18.285389 C27.98299,18.52741 28.164665,18.789183 28.28169,18.967842 C28.289696,18.980064 28.313595,18.989128 28.32409,18.978962 C28.342361,18.96126 28.34646,18.93121 28.345755,18.905779 C28.340134,18.703075 28.329048,18.50016 28.305225,18.298782 C28.281832,18.101036 28.237938,17.90626 28.204296,17.71 L28.204296,17.71" /><path fill="none" stroke="#000000" stroke-width="0.06mm" d="M27.798101,15.790419 C27.900253,16.12866 28.002403,16.4669 28.104553,16.805141 C28.203045,17.217804 28.272562,17.63848 28.400032,18.043129 C28.48713,18.319614 28.630604,18.575068 28.745888,18.841038 L28.745888,18.841038" /><path fill="none" stroke="#000000" stroke-width="0.06mm" d="M28.638367,17.940985 C28.726007,17.900034 28.810242,17.850815 28.90129,17.81813 C29.045155,17.766487 29.020706,18.146591 29.021908,18.151173 C29.043316,18.23291 29.115963,18.023024 29.18449,18.012835 C29.227213,18.006483 29.277515,18.03763 29.30467,18.06484 C29.45273,18.213207 29.575146,18.388607 29.738197,18.52032 C29.763792,18.540997 29.749886,18.45475 29.7468,18.421993 C29.730093,18.244703 29.528816,17.987768 29.679,17.892088 C29.820488,17.801952 29.762135,18.21778 29.820444,18.375076 C29.882145,18.54152 30.043348,18.770487 30.15732,18.89374 C30.207558,18.94807 30.273003,18.986046 30.330843,19.032198 L30.330843,19.032198" /><path fill="none" stroke="#000000" stroke-width="0.06mm" d="M29.92863,16.762156 L29.992884,16.770657" /><path fill="none" stroke="#000000" stroke-width="0.06mm" d="M30.629515,18.068424 C30.570248,18.832806 30.558855,17.893192 30.368176,17.688906 C30.310715,17.627344 30.456951,17.836456 30.471672,17.919373 C30.506203,18.113874 30.499908,18.313448 30.514029,18.510487 L30.514029,18.510487" /><path fill="none" stroke="#000000" stroke-width="0.06mm" d="M28.777746,19.374695 C28.694845,19.455658 28.57089,19.54243 28.516415,19.658413 C28.483822,19.7278 28.469599,19.826334 28.49635,19.900272 C28.651703,20.329653 28.808636,20.758638 28.978905,21.182323 C29.006256,21.250378 29.040318,21.317762 29.0883,21.373232 C29.10065,21.387506 29.143328,21.39304 29.144918,21.374231 C29.18715,20.874886 29.20182,20.373442 29.215221,19.872492 C29.221382,19.642183 29.018185,19.171295 29.31934,19.928268 L29.31934,19.928268" /><path fill="none" stroke="#000000" stroke-width="0.06mm" d="M33.20208,27.25612 C33.358444,26.739254 33.152927,26.906887 32.883434,26.502277 C32.788116,26.359165 32.7066,26.207102 32.60989,26.064926 C32.579094,26.01965 32.49474,25.953505 32.446556,25.9286 C32.27728,25.841108 32.066696,25.693676 31.85343,25.67047 C31.826809,25.667572 31.79958,25.667244 31.773098,25.67122 C31.640224,25.691183 31.50933,25.723312 31.376291,25.74215 C31.066639,25.78599 30.757835,25.744911 30.56732,26.029312 C30.313942,26.40755 30.62109,26.921953 30.996853,27.074646 C31.163683,27.142437 31.329388,27.134426 31.505621,27.132662 L31.505621,27.132662" /><path fill="none" stroke="#000000" stroke-width="0.06mm" d="M31.00642,27.024055 L31.130974,26.502089" /><path fill="none" stroke="#000000" stroke-width="0.06mm" d="M31.205112,27.293938 C31.776678,27.080847 31.511,27.198318 32.005814,26.949913 L32.005814,26.949913" /><path fill="none" stroke="#000000" stroke-width="0.06mm" d="M31.937607,27.353252 L31.908348,27.137154" /><path fill="none" stroke="#000000" stroke-width="0.06mm" d="M30.689106,26.353802 L30.695438,26.176258" /><path fill="none" stroke="#000000" stroke-width="0.06mm" d="M30.647589,25.962326 L30.94711,26.709688" /><path fill="none" stroke="#000000" stroke-width="0.06mm" d="M31.136906,26.027573 L31.234768,26.30635" /><path fill="none" stroke="#000000" stroke-width="0.06mm" d="M31.623257,25.680582 L31.623657,25.68098" /><path fill="none" stroke="#000000" stroke-width="0.06mm" d="M31.74781,25.683548 C31.734493,25.926527 31.73402,25.802937 31.750774,26.054262 L31.750774,26.054262" /><path fill="none" stroke="#000000" stroke-width="0.06mm" d="M31.821949,25.730999 C31.799799,25.975496 31.796265,25.837452 31.863468,26.143234 L31.863468,26.143234" /><path fill="none" stroke="#000000" stroke-width="0.06mm" d="M32.026573,25.131924 C31.249527,25.252136 31.57763,25.190018 31.039043,25.300968 L31.039043,25.300968" /><path fill="none" stroke="#000000" stroke-width="0.06mm" d="M32.130367,24.900597 L31.472013,25.00143" /><path fill="none" stroke="#000000" stroke-width="0.06mm" d="M29.722336,25.300968 C29.99873,25.20088 30.035278,25.130733 30.24724,24.906527 L30.24724,24.906527" /><path fill="none" stroke="#000000" stroke-width="0.06mm" d="M29.686749,24.295588 C29.884245,24.060274 29.765694,24.187716 30.054478,23.924871 L30.054478,23.924871" /><path fill="none" stroke="#000000" stroke-width="0.06mm" d="M29.66006,23.767689 C29.881908,23.940084 30.005104,23.935728 30.276894,23.936733 L30.276894,23.936733" /><path fill="none" stroke="#000000" stroke-width="0.06mm" d="M29.974407,22.708923 C30.111315,22.979597 30.236645,23.060705 30.484484,23.207165 L30.484484,23.207165" /><path fill="none" stroke="#000000" stroke-width="0.06mm" d="M31.139872,21.771755 C31.105385,22.044466 31.171953,22.28921 31.246632,22.545809 L31.246632,22.545809" /><path fill="none" stroke="#000000" stroke-width="0.06mm" d="M31.670706,22.145435 C31.629997,22.405413 31.643875,22.249786 31.658844,22.614021 L31.658844,22.614021" /><path fill="none" stroke="#000000" stroke-width="0.06mm" d="M32.201538,25.253517 L31.558014,25.32766" /><path fill="none" stroke="#000000" stroke-width="0.06mm" d="M31.543186,23.797346 L31.279652,23.797745" /><path fill="none" stroke="#000000" stroke-width="0.06mm" d="M30.29469,25.55009 L30.15274,25.68098" /><path fill="none" stroke="#000000" stroke-width="0.06mm" d="M30.831657,26.93937 L30.772747,26.93977" /><path fill="none" stroke="#000000" stroke-width="0.06mm" d="M32.37671,28.401474 L32.374146,28.360353" /><path fill="none" stroke="#000000" stroke-width="0.06mm" d="M30.653725,25.966612 L30.568123,25.96701" /><path fill="none" stroke="#000000" stroke-width="0.06mm" d="M25.07255,24.204971 L25.037363,24.261719" /><path fill="none" stroke="#000000" stroke-width="0.06mm" d="M25.265312,24.46892 C25.369255,24.41161 25.473198,24.3543 25.577143,24.29699 C25.662024,24.240347 25.738949,24.16942 25.831787,24.127062 C26.105835,24.002026 26.448212,23.87512 26.761372,23.842552 C27.27944,23.788675 27.679737,24.012302 28.168049,24.15886 C30.828045,24.957203 28.06805,24.00437 30.276371,24.914413 C31.39644,25.37599 29.930859,24.696577 30.98312,25.055904 C31.464691,25.22035 31.933922,25.41937 32.403492,25.61547 C32.45957,25.638893 32.51135,25.673588 32.557335,25.713324 C32.66784,25.808811 32.9775,26.0448 33.04031,26.255299 C33.074524,26.36996 33.11087,26.484734 33.130352,26.602797 C33.177372,26.887781 33.112797,27.360592 33.08673,27.58639 C33.0766,27.674162 33.019676,27.740196 33.014305,27.826122 L33.014305,27.826122" /><path fill="none" stroke="#000000" stroke-width="0.06mm" d="M32.46271,28.38961 C32.40383,28.413946 32.346695,28.443016 32.286076,28.462618 C32.134842,28.511522 31.896147,28.507072 31.787533,28.368319 C31.692585,28.247025 31.669842,28.073282 31.632357,27.93289 L31.632357,27.93289" /><path fill="none" stroke="#000000" stroke-width="0.06mm" d="M25.894009,29.718258 L27.023884,29.237808" /><path fill="none" stroke="#000000" stroke-width="0.06mm" d="M25.704214,28.018894 C26.404705,27.860676 26.12053,27.970325 26.579052,27.754946 L26.579052,27.754946" /><path fill="none" stroke="#000000" stroke-width="0.06mm" d="M25.140759,27.07876 C25.265701,26.68871 25.323479,26.637375 25.630074,26.396643 L25.630074,26.396643" /><path fill="none" stroke="#000000" stroke-width="0.06mm" d="M24.624752,25.78867 C25.102547,25.956673 25.20184,25.966305 25.644901,25.939922 L25.644901,25.939922" /><path fill="none" stroke="#000000" stroke-width="0.06mm" d="M25.529245,24.46892 C25.643673,24.872997 25.64972,25.059874 25.836403,25.367226 C25.890808,25.456795 25.955864,25.539444 26.015596,25.625553 L26.015596,25.625553" /><path fill="none" stroke="#000000" stroke-width="0.06mm" d="M27.780102,24.181244 C27.754406,24.24916 27.71939,24.31425 27.70301,24.384995 C27.659252,24.57401 27.619595,24.881905 27.710613,25.072006 C27.742083,25.137733 27.819843,25.192535 27.869068,25.237041 L27.869068,25.237041" /><path fill="none" stroke="#000000" stroke-width="0.06mm" d="M28.613422,24.560858 C28.58758,24.684933 28.54894,24.807018 28.535892,24.93308 C28.500164,25.278297 28.520416,25.759468 28.72139,26.063442 C28.769157,26.13569 28.849567,26.196537 28.909977,26.25132 L28.909977,26.25132" /><path fill="none" stroke="#000000" stroke-width="0.06mm" d="M29.500122,25.36457 L29.544605,25.969578" /><path fill="none" stroke="#000000" stroke-width="0.06mm" d="M32.90458,27.811295 L32.907944,27.704927" /><path fill="none" stroke="#000000" stroke-width="0.06mm" d="M32.907547,27.686733 L32.93167,27.633749" /><path fill="none" stroke="#000000" stroke-width="0.06mm" d="M32.937202,27.562174 C32.94647,27.899574 32.99967,28.296608 32.839973,28.614426 C32.608067,29.075958 31.983173,29.443726 31.51286,29.564714 C30.9791,29.702024 30.43312,29.79539 29.885355,29.856274 C29.106358,29.942862 28.321796,29.97172 27.53877,30.006443 C27.438297,30.010899 27.335215,30.00239 27.238838,29.973637 C26.91318,29.876472 26.595455,29.753841 26.278776,29.630516 C26.222614,29.608644 26.17119,29.574986 26.12283,29.539022 C25.714352,29.235264 25.081367,28.057262 25.019596,27.925186 C24.803291,27.462708 24.67936,26.962288 24.521915,26.476608 C24.504147,26.421791 24.498415,26.363394 24.49467,26.30589 C24.460468,25.780655 24.8564,25.095198 25.036072,24.72535 C25.093456,24.607225 25.176159,24.502777 25.2556,24.398205 C25.318535,24.315367 25.456491,24.094322 25.60836,24.052803 C25.701405,24.027367 25.813404,24.056454 25.902905,24.068546 L25.902905,24.068546" /><path fill="none" stroke="#000000" stroke-width="0.06mm" d="M28.22197,30.020761 C28.34082,29.369987 28.25771,29.64594 28.429558,29.181461 L28.429558,29.181461" /><path fill="none" stroke="#000000" stroke-width="0.06mm" d="M29.69585,29.7924 C29.570927,29.239017 29.639526,29.449532 29.532745,29.148838 L29.532745,29.148838" /><path fill="none" stroke="#000000" stroke-width="0.06mm" d="M32.207676,29.276361 C31.92199,28.990725 31.921795,29.024872 31.504837,28.98869 L31.504837,28.98869" /><path fill="none" stroke="#000000" stroke-width="0.06mm" d="M32.468643,28.66839 C31.997196,28.397408 32.20613,28.477272 31.866634,28.371817 L31.866634,28.371817" /><path fill="none" stroke="#000000" stroke-width="0.06mm" d="M33.74494,27.511173 C33.783962,27.54228 33.82497,27.571045 33.862003,27.60449 C33.889397,27.629227 33.933823,27.707098 33.939007,27.733212 C34.003704,28.059195 34.04486,28.38952 34.107994,28.71581 C34.124443,28.80082 34.200123,28.683544 34.205853,28.672718 C34.243084,28.602365 34.276844,28.53022 34.311142,28.458391 C34.318314,28.44337 34.321613,28.42649 34.33023,28.412249 C34.333138,28.407436 34.33926,28.4012 34.344498,28.403248 C34.351803,28.406109 34.356167,28.415163 34.357445,28.422905 C34.38706,28.602127 34.393284,28.785694 34.43682,28.962051 C34.46506,29.07644 34.522526,29.181686 34.57126,29.28896 C34.58879,29.327549 34.653645,29.44506 34.71199,29.377985 C34.83283,29.239069 34.83791,28.882507 34.835854,28.754795 C34.832497,28.546162 34.806923,28.338337 34.783096,28.131042 C34.743645,27.787817 34.710373,27.886236 34.74137,27.636028 L34.74137,27.636028" /><path fill="none" stroke="#000000" stroke-width="0.06mm" d="M35.426857,27.942278 C35.28905,28.072495 35.10922,28.199173 35.037193,28.386433 C34.975372,28.547165 35.010292,28.743458 35.04087,28.903086 C35.05931,28.999363 35.10279,29.13912 35.18841,29.203568 C35.331627,29.311363 35.526417,29.035944 35.544125,28.92087 C35.597992,28.570831 35.645588,28.305012 35.547394,27.967758 C35.502758,27.81445 35.38501,27.730566 35.250736,27.654964 C35.204453,27.628904 35.141247,27.61713 35.096485,27.65251 C35.03017,27.70493 35.01095,27.848534 34.993423,27.909298 L34.993423,27.909298" /><path fill="none" stroke="#000000" stroke-width="0.06mm" d="M35.827312,27.76324 C35.801678,27.814056 35.772026,27.863039 35.750404,27.91569 C35.738464,27.94476 35.728935,27.975685 35.727177,28.007063 C35.712677,28.265554 35.715473,28.524805 35.70174,28.783337 C35.69898,28.83533 35.65731,28.914726 35.669083,28.971207 C35.676376,29.006176 35.706944,29.03217 35.73941,29.043604 C35.805008,29.066708 36.051632,29.216106 36.147366,29.094402 C36.24439,28.971056 36.252987,28.773697 36.229122,28.626997 C36.185783,28.360603 36.119495,28.082418 35.960064,27.858696 C35.930492,27.817202 35.82654,27.792812 35.82154,27.869644 C35.81803,27.923582 35.822247,27.977747 35.8226,28.031797 L35.8226,28.031797" /><path fill="none" stroke="#000000" stroke-width="0.06mm" d="M37.035748,27.928146 C36.992886,27.912174 36.91189,27.86416 36.84855,27.86924 C36.765396,27.875904 36.7109,27.972424 36.69304,28.043205 C36.621384,28.327147 36.562634,28.615143 36.743446,28.867228 C36.84391,29.00729 36.938698,28.979536 36.999477,28.816488 C37.06144,28.650269 37.11706,28.481476 37.164513,28.310547 C37.18381,28.241037 37.193966,28.16888 37.19923,28.096933 C37.20453,28.02459 37.19005,27.796719 37.145805,27.738274 C37.101505,27.679752 37.022182,27.659117 36.96037,27.61954 L36.96037,27.61954" /><path fill="none" stroke="#000000" stroke-width="0.06mm" d="M37.485672,28.281507 C37.479843,28.214014 37.474014,28.14652 37.468185,28.079025 C37.472633,28.071877 37.473938,28.061213 37.481533,28.05758 C37.501408,28.048077 37.540894,28.078709 37.54794,28.086082 C37.705395,28.250854 37.862667,28.416012 38.012493,28.587751 C38.056923,28.638676 38.111584,28.7358 38.11654,28.808315 C38.12276,28.899351 38.012554,28.986244 37.924614,28.953222 C37.865364,28.930975 37.824123,28.84258 37.796616,28.802132 L37.796616,28.802132" /><path fill="none" stroke="#000000" stroke-width="0.06mm" d="M38.246536,28.260307 C38.20872,28.771267 38.176647,29.282682 38.13309,29.793182 C38.130383,29.824907 38.117966,29.855116 38.10789,29.885319 C38.07462,29.985048 38.003967,29.901674 37.973812,29.849983 C37.917862,29.754066 37.89469,29.61541 37.909756,29.50834 C37.961777,29.138603 38.025497,28.770405 38.098183,28.40417 C38.162296,28.081106 38.368576,27.928 38.658833,27.803259 C38.737617,27.7694 38.86984,27.737566 38.945137,27.802544 C38.981655,27.834053 38.988255,27.88797 38.977283,27.932655 C38.920322,28.16466 38.722645,28.287388 38.519093,28.405966 C38.47415,28.432146 38.41748,28.428219 38.366676,28.439344 L38.366676,28.439344" /><path fill="none" stroke="#000000" stroke-width="0.06mm" d="M39.075718,28.02002 C39.017117,28.085442 38.955105,28.147964 38.899918,28.21629 C38.852562,28.274914 38.814518,28.361479 38.81138,28.438026 C38.8105,28.459393 38.81042,28.499125 38.846638,28.490318 C38.864933,28.48587 38.88184,28.475353 38.89611,28.463074 C39.028698,28.348965 39.13664,28.228092 39.158047,28.04906 C39.16259,28.011066 39.17269,27.969269 39.157223,27.934269 C39.12762,27.86729 39.071476,27.815538 39.028606,27.756172 L39.028606,27.756172" /><path fill="none" stroke="#000000" stroke-width="0.06mm" d="M39.28537,27.850403 L39.323376,27.747068" /><path fill="none" stroke="#000000" stroke-width="0.06mm" d="M39.34897,27.673721 C39.25051,27.966978 39.25556,27.897888 39.237,28.279064 C39.23424,28.335732 39.233276,28.515602 39.28309,28.581705 C39.28833,28.588663 39.297676,28.591532 39.305847,28.594551 C39.39042,28.625786 39.475933,28.654411 39.560978,28.684343 L39.560978,28.684343" /><path fill="none" stroke="#000000" stroke-width="0.06mm" d="M39.963787,27.71377 C39.75945,27.843561 39.714714,27.942017 39.59014,28.183424 C39.537823,28.284817 39.470703,28.445393 39.509083,28.566624 C39.539116,28.661488 39.6985,28.740776 39.78603,28.679142 C39.825775,28.651157 39.836742,28.608181 39.852528,28.564632 C39.929718,28.351706 40.006794,28.138737 40.083923,27.925789 L40.083923,27.925789" /><path fill="none" stroke="#000000" stroke-width="0.06mm" d="M40.66812,26.578293 C40.621586,26.53373 40.556763,26.44976 40.499966,26.520847 C40.48653,26.537664 40.469715,26.553196 40.46259,26.573507 C40.349033,26.89722 40.229015,27.219427 40.138805,27.550407 C40.08773,27.73781 40.05371,27.930914 40.039825,28.124655 C40.019318,28.410816 40.032764,28.698456 40.035965,28.985336 C40.037174,29.09362 40.081085,29.174534 40.18099,29.216667 C40.192703,29.22161 40.20513,29.230534 40.217518,29.227654 C40.308113,29.206572 40.395428,29.173265 40.484383,29.146072 L40.484383,29.146072" /><path fill="none" stroke="#000000" stroke-width="0.06mm" d="M34.011127,30.733856 C34.06398,30.528996 33.98946,30.008472 34.16969,30.119278 C34.372288,30.243837 34.165085,30.595024 34.17198,30.83275 C34.17337,30.880672 34.18419,30.927982 34.194515,30.974796 C34.213516,31.06092 34.27577,31.11614 34.36479,31.086266 C34.399807,31.074516 34.434788,31.055496 34.45704,31.024904 C34.471638,31.004835 34.519806,30.877739 34.528725,30.875603 C34.54403,30.87194 34.552353,30.897406 34.559418,30.911465 C34.57473,30.941927 34.579765,30.976852 34.59495,31.007378 C34.62748,31.072746 34.699936,31.005882 34.724266,30.973831 C34.752567,30.936552 34.780167,30.898415 34.80289,30.857498 C34.823494,30.820404 34.840363,30.781063 34.8537,30.740784 C34.9076,30.57799 34.891228,30.422783 34.883205,30.246708 C34.880966,30.197548 34.87114,30.148771 34.8591,30.101055 C34.84092,30.02901 34.789658,29.962486 34.792755,29.888247 C34.79422,29.853127 34.84487,29.841059 34.87093,29.817465 L34.87093,29.817465" /><path fill="none" stroke="#000000" stroke-width="0.06mm" d="M35.318497,30.740921 C35.400562,30.459293 35.38991,30.545832 35.400425,30.151283 C35.40178,30.100399 35.39024,29.933851 35.29702,29.939796 C35.260807,29.942104 35.217842,29.953194 35.223015,29.999573 C35.224773,30.015343 35.22943,30.031303 35.237675,30.044865 C35.283733,30.120651 35.333263,30.194387 35.385136,30.266323 C35.483025,30.402079 35.661045,30.560978 35.68849,30.749908 C35.694393,30.790554 35.696266,31.098248 35.59515,31.014956 C35.564404,30.989628 35.529484,30.92357 35.515903,30.893856 C35.47144,30.796572 35.495007,30.702831 35.511658,30.601933 L35.511658,30.601933" /><path fill="none" stroke="#000000" stroke-width="0.06mm" d="M35.90505,29.800974 C35.903408,28.973232 35.895958,29.624144 36.021927,30.857298 C36.02796,30.916367 36.046402,30.973572 36.06214,31.030823 C36.066257,31.045792 36.08895,31.108498 36.119785,31.08519 C36.12857,31.078552 36.134308,31.068499 36.14002,31.059086 C36.160145,31.025908 36.178104,30.991463 36.197144,30.957651 L36.197144,30.957651" /><path fill="none" stroke="#000000" stroke-width="0.06mm" d="M35.843803,30.135492 L36.30315,30.00357" /><path fill="none" stroke="#000000" stroke-width="0.06mm" d="M36.515156,29.99179 C36.46527,30.278984 36.319214,30.629446 36.45713,30.922207 C36.470085,30.949703 36.544704,31.114998 36.60938,31.043941 C36.620968,31.031208 36.630016,31.015802 36.635914,30.999628 C36.684254,30.867098 36.71792,30.729206 36.771732,30.598804 C36.77525,30.590282 36.792953,30.598196 36.798557,30.605515 C36.81315,30.624561 36.819572,30.64878 36.827385,30.671467 C36.850246,30.737867 36.865635,30.806793 36.89048,30.872478 C36.901386,30.901306 36.91782,30.927849 36.93423,30.953938 C37.03496,31.11407 37.14898,31.01986 37.18263,30.87185 C37.213875,30.734398 37.228733,30.593523 37.26076,30.45625 C37.26222,30.450016 37.275913,30.449883 37.279922,30.454876 C37.291553,30.46936 37.295284,30.488789 37.30107,30.506443 C37.334145,30.607328 37.360313,30.710503 37.39645,30.810333 C37.408432,30.843443 37.44903,30.888073 37.476154,30.908897 C37.641834,31.036098 37.659874,30.84399 37.660973,30.709665 C37.662388,30.536655 37.643566,30.345493 37.542904,30.197266 C37.48742,30.11556 37.421516,30.041435 37.360825,29.963522 L37.360825,29.963522" /><path fill="none" stroke="#000000" stroke-width="0.06mm" d="M37.478607,29.490013 C37.403645,29.862793 37.456078,30.221184 37.568516,30.580475 C37.572075,30.591846 37.639328,30.844265 37.73909,30.80589 C37.877876,30.752499 37.97544,30.328815 38.02389,30.20852 C38.027702,30.199059 38.042324,30.190533 38.051422,30.195148 C38.11051,30.225134 38.12571,30.44548 38.128647,30.491316 C38.130985,30.527874 38.124146,30.564983 38.129593,30.601208 C38.130825,30.609406 38.139954,30.621143 38.14772,30.61824 C38.216858,30.59239 38.24237,30.39683 38.329464,30.382881 C38.387787,30.373543 38.415794,30.52823 38.420883,30.540237 C38.500954,30.72908 38.725796,30.392097 38.80589,30.42809 C38.82248,30.435543 38.823654,30.460999 38.82238,30.474468 C38.812435,30.579502 38.793488,30.683678 38.786705,30.788965 C38.78314,30.844316 38.812393,31.016136 38.900143,31.00511 C38.93929,31.00019 38.990665,30.959282 39.009106,30.926134 C39.072018,30.813032 39.127323,30.695866 39.18643,30.58073 L39.18643,30.58073" /><path fill="none" stroke="#000000" stroke-width="0.06mm" d="M39.00034,29.287416 C38.842182,29.230404 38.866333,29.241316 39.078075,29.30391 L39.078075,29.30391" /></g>
<g>
<line fill="none" stroke="#111111" stroke-width="0.05mm" x1="39.00" y1="22.00" x2="37.38" y2="20.41" />
<line fill="none" stroke="#00aeef" stroke-width="0.05mm" stroke-dasharray="0.4,0.2" opacity="0.96" x1="37.38" y1="20.41" x2="37.35" y2="19.33" />
<line fill="none" stroke="#5674b9" stroke-width="0.05mm" stroke-dasharray="0.4,0.2" opacity="0.28" x1="37.38" y1="20.41" x2="37.09" y2="19.21" />
<line fill="none" stroke="#111111" stroke-width="0.05mm" x1="37.38" y1="20.41" x2="34.92" y2="20.96" />
<line fill="none" stroke="#00aeef" stroke-width="0.05mm" stroke-dasharray="0.4,0.2" opacity="0.68" x1="34.92" y1="20.96" x2="34.73" y2="21.52" />
<line fill="none" stroke="#00aeef" stroke-width="0.05mm" stroke-dasharray="0.4,0.2" opacity="0.79" x1="34.92" y1="20.96" x2="32.86" y2="21.13" />
<line fill="none" stroke="#5674b9" stroke-width="0.05mm" stroke-dasharray="0.4,0.2" opacity="0.03" x1="34.92" y1="20.96" x2="34.95" y2="21.04" />
<line fill="none" stroke="#00aeef" stroke-width="0.05mm" stroke-dasharray="0.4,0.2" opacity="0.75" x1="34.92" y1="20.96" x2="34.86" y2="21.21" />
<line fill="none" stroke="#111111" stroke-width="0.05mm" x1="34.92" y1="20.96" x2="35.41" y2="23.20" />
<line fill="none" stroke="#00aeef" stroke-width="0.05mm" stroke-dasharray="0.4,0.2" opacity="0.60" x1="35.41" y1="23.20" x2="34.71" y2="25.28" />
<line fill="none" stroke="#00aeef" stroke-width="0.05mm" stroke-dasharray="0.4,0.2" opacity="0.71" x1="35.41" y1="23.20" x2="35.56" y2="23.53" />
<line fill="none" stroke="#00aeef" stroke-width="0.05mm" stroke-dasharray="0.4,0.2" opacity="0.92" x1="35.41" y1="23.20" x2="36.61" y2="23.83" />
<line fill="none" stroke="#00aeef" stroke-width="0.05mm" stroke-dasharray="0.4,0.2" opacity="0.77" x1="35.41" y1="23.20" x2="36.07" y2="23.53" />
<line fill="none" stroke="#111111" stroke-width="0.05mm" x1="35.41" y1="23.20" x2="33.40" y2="22.28" />
<line fill="none" stroke="#00aeef" stroke-width="0.05mm" stroke-dasharray="0.4,0.2" opacity="0.79" x1="33.40" y1="22.28" x2="32.91" y2="21.78" />
<line fill="none" stroke="#111111" stroke-width="0.05mm" x1="33.40" y1="22.28" x2="31.01" y2="22.99" />
<line fill="none" stroke="#111111" stroke-width="0.05mm" x1="31.01" y1="22.99" x2="31.98" y2="26.43" />
<line fill="none" stroke="#00aeef" stroke-width="0.05mm" stroke-dasharray="0.4,0.2" opacity="0.69" x1="31.98" y1="26.43" x2="32.42" y2="27.30" />
<line fill="none" stroke="#5674b9" stroke-width="0.05mm" stroke-dasharray="0.4,0.2" opacity="0.16" x1="31.98" y1="26.43" x2="26.98" y2="30.61" />
<line fill="none" stroke="#5674b9" stroke-width="0.05mm" stroke-dasharray="0.4,0.2" opacity="0.12" x1="31.98" y1="26.43" x2="32.67" y2="27.73" />
<line fill="none" stroke="#111111" stroke-width="0.05mm" x1="31.98" y1="26.43" x2="32.59" y2="27.54" />
<line fill="none" stroke="#00aeef" stroke-width="0.05mm" stroke-dasharray="0.4,0.2" opacity="0.86" x1="32.59" y1="27.54" x2="24.97" y2="24.41" />
<line fill="none" stroke="#00aeef" stroke-width="0.05mm" stroke-dasharray="0.4,0.2" opacity="0.85" x1="32.59" y1="27.54" x2="33.18" y2="27.92" />
<line fill="none" stroke="#5674b9" stroke-width="0.05mm" stroke-dasharray="0.4,0.2" opacity="0.03" x1="32.59" y1="27.54" x2="33.16" y2="28.77" />
<line fill="none" stroke="#5674b9" stroke-width="0.05mm" stroke-dasharray="0.4,0.2" opacity="0.03" x1="32.59" y1="27.54" x2="33.20" y2="28.51" />
<line fill="none" stroke="#5674b9" stroke-width="0.05mm" stroke-dasharray="0.4,0.2" opacity="0.03" x1="32.59" y1="27.54" x2="33.30" y2="28.53" />
<line fill="none" stroke="#111111" stroke-width="0.05mm" x1="32.59" y1="27.54" x2="30.96" y2="29.03" />
<line fill="none" stroke="#5674b9" stroke-width="0.05mm" stroke-dasharray="0.4,0.2" opacity="0.94" x1="30.96" y1="29.03" x2="31.22" y2="28.91" />
<line fill="none" stroke="#111111" stroke-width="0.05mm" x1="30.96" y1="29.03" x2="25.93" y2="24.24" />
<line fill="none" stroke="#5674b9" stroke-width="0.05mm" stroke-dasharray="0.4,0.2" opacity="0.89" x1="25.93" y1="24.24" x2="20.94" y2="19.48" />
<line fill="none" stroke="#00aeef" stroke-width="0.05mm" stroke-dasharray="0.4,0.2" opacity="0.90" x1="25.93" y1="24.24" x2="26.09" y2="24.00" />
<line fill="none" stroke="#5674b9" stroke-width="0.05mm" stroke-dasharray="0.4,0.2" opacity="0.99" x1="25.93" y1="24.24" x2="27.84" y2="20.34" />
<line fill="none" stroke="#00aeef" stroke-width="0.05mm" stroke-dasharray="0.4,0.2" opacity="0.90" x1="25.93" y1="24.24" x2="26.02" y2="23.97" />
</g>
<g>
<circle cx="39.00" cy="22.00" r="0.1" fill="#111111" />
<circle cx="37.38" cy="20.41" r="0.1" fill="#111111" />
<circle cx="34.92" cy="20.96" r="0.1" fill="#111111" />
<circle cx="35.41" cy="23.20" r="0.1" fill="#111111" />
<circle cx="33.40" cy="22.28" r="0.1" fill="#111111" />
<circle cx="31.01" cy="22.99" r="0.1" fill="#111111" />
<circle cx="31.98" cy="26.43" r="0.1" fill="#111111" />
<circle cx="32.59" cy="27.54" r="0.1" fill="#111111" />
<circle cx="30.96" cy="29.03" r="0.1" fill="#111111" />
<circle cx="25.93" cy="24.24" r="0.1" fill="#111111" />
</g>
<g>
<text x="39.20" y="22.00" font-size=".2mm" fill="#000000">0</text>
<text x="37.58" y="20.41" font-size=".2mm" fill="#000000">1</text>
<text x="35.12" y="20.96" font-size=".2mm" fill="#000000">2</text>
<text x="35.61" y="23.20" font-size=".2mm" fill="#000000">3</text>
<text x="33.60" y="22.28" font-size=".2mm" fill="#000000">4</text>
<text x="31.21" y="22.99" font-size=".2mm" fill="#000000">5</text>
<text x="32.18" y="26.43" font-size=".2mm" fill="#000000">6</text>
<text x="32.79" y="27.54" font-size=".2mm" fill="#000000">7</text>
<text x="31.16" y="29.03" font-size=".2mm" fill="#000000">8</text>
<text x="26.13" y="24.24" font-size=".2mm" fill="#000000">9</text>
</g>
<g>
</g>
</g>
</svg>