<?xml version="1.0" encoding="utf-8"?>
<!DOCTYPE svg PUBLIC "-//W3C//DTD SVG 1.1//EN" "http://www.w3.org/Graphics/SVG/1.1/DTD/svg11.dtd">
<svg version="1.1" id="Layer_1" xmlns="http://www.w3.org/2000/svg" xmlns:xlink="http://www.w3.org/1999/xlink" x="0px" y="0px" width="164mm" height="178mm" viewBox="0 0 164 178" enable-background="new 0 0 164 178" xml:space="preserve">
<symbol id="airflow" viewBox="-12 -12 24 24">
<path d="M-4.38,10.73l4.2-3.84V3.55L-4.07,7.13l-.31-.29L-.18,3V-6.89a3.37,3.37,0,0,0-1.68.53l1.68-4.15L0-11l.21.51h0v0l1.65,4.1A3.26,3.26,0,0,0,.24-6.89v14l-.08,0L-4.07,11Z"/>
<rect fill="none" x="-12" y="-12" width="24" height="24"/>
</symbol>
<symbol id="anastomosis" viewBox="-12 -12 24 24">
<path d="M2.23-4.78l.37.24L5.22-2.78l-.47.57L2.49-3.7l-4.61,8-.24.44-.37-.34L-5.22,2.3l.55-.52,2.1,1.82L2-4.39Z"/>
<rect fill="none" x="-12" y="-12" width="24" height="24"/>
</symbol>
<symbol id="bivouac" viewBox="-12 -12 24 24">
<path d="M.25-7.66l.24.58L.54-7l3.88.48-3.31.91L6,6H8.35v.48l-16.7.07V6.05h2.64L0-7.08Zm0,1.32L-5.13,6H-4l2.07-5L.2-4l2.09,5L4.37,6H5.44Z"/>
<rect fill="none" x="-12" y="-12" width="24" height="24"/>
</symbol>
<symbol id="bones" viewBox="-12 -12 24 24">
<path d="M2.44,4.27l-.16,0H2.13a.22.22,0,0,1-.11,0l-.1-.06a.39.39,0,0,1-.09-.11l-.08-.13a1.51,1.51,0,0,1-.06-.15l-.07-.17s0-.11-.08-.19-.06-.16-.08-.21a4.75,4.75,0,0,0-.38-.71c-.18-.29-.43-.64-.74-1A11.15,11.15,0,0,0-.7.32,6.73,6.73,0,0,0-2-.64a4.12,4.12,0,0,0-1.44-.52A1.64,1.64,0,0,1-5-2.19.72.72,0,0,1-5-2.44a1,1,0,0,1,0-.29A.52.52,0,0,1-4.87-3a.54.54,0,0,1,.35-.15L-4-3.22l.46,0a.54.54,0,0,0,.27-.06A.52.52,0,0,0-3-3.56a.74.74,0,0,0,.13-.31.54.54,0,0,1,.15-.26.54.54,0,0,1,.3-.15.83.83,0,0,1,.47,0,1.11,1.11,0,0,1,.35.4A7.46,7.46,0,0,1-1-2.76q.18.42.33.72a3.22,3.22,0,0,0,.39.57L.1-1a4.77,4.77,0,0,0,.58.43c.28.18.51.33.69.43l1,.56a1.84,1.84,0,0,0,.39.23A5.29,5.29,0,0,1,3.22.9l.43.26a3.7,3.7,0,0,1,.46.3l.36.29a2.28,2.28,0,0,1,.31.32A1,1,0,0,1,5,2.4c.2.48,0,.78-.47.91h0a8.48,8.48,0,0,0-1.12.09,1,1,0,0,0-.42.44A1,1,0,0,1,2.44,4.27Z"/>
<rect fill="none" x="-12" y="-12" width="24" height="24"/>
</symbol>
<symbol id="calcite" viewBox="-12 -12 24 24">
<path d="M2.36-2.22l.05.46.34,3.91L2,2.22,1.65-1.26-2.52-.06l-.23-.7L1.89-2.08Z"/>
<rect fill="none" x="-12" y="-12" width="24" height="24"/>
</symbol>
<symbol id="cauliflower" viewBox="-12 -12 24 24">
<path d="M5.58,3.22v-3A2.12,2.12,0,0,0,6.92-.43a1.78,1.78,0,0,0,.55-1.32,1.92,1.92,0,0,0-.65-1.42,2.19,2.19,0,0,0-1.53-.59,2.21,2.21,0,0,0-1.54.59,1.78,1.78,0,0,0-.64,1.42A1.86,1.86,0,0,0,3.65-.43,2.12,2.12,0,0,0,5,.23v3H.26v-3A2.17,2.17,0,0,0,1.61-.43a1.81,1.81,0,0,0,.54-1.32,1.91,1.91,0,0,0-.64-1.42A2.21,2.21,0,0,0,0-3.76a2.21,2.21,0,0,0-1.54.59,1.82,1.82,0,0,0-.64,1.42A1.83,1.83,0,0,0-1.66-.43,2.12,2.12,0,0,0-.32.23v3H-5v-3A2.12,2.12,0,0,0-3.71-.43a1.78,1.78,0,0,0,.55-1.32,1.92,1.92,0,0,0-.65-1.42,2.19,2.19,0,0,0-1.53-.59,2.21,2.21,0,0,0-1.54.59,1.83,1.83,0,0,0-.65,1.42A1.87,1.87,0,0,0-7-.43,2.12,2.12,0,0,0-5.64.23v3H-8v.54H8V3.22Z"/>
<rect fill="none" x="-12" y="-12" width="24" height="24"/>
</symbol>
<symbol id="clay" viewBox="-12 -12 24 24">
<path d="M1.85-1.33a3,3,0,0,1,1.67.48,3.23,3.23,0,0,1,1,1l.29.51-1,.43a3.81,3.81,0,0,0-.23-.4A3.74,3.74,0,0,0,2.93,0,1.77,1.77,0,0,0,1.85-.32a2.57,2.57,0,0,0-1.1.15A.86.86,0,0,0,.51.14,2.23,2.23,0,0,1,0,.88a2.55,2.55,0,0,1-1.45.43,3.16,3.16,0,0,1-2.75-1,4.28,4.28,0,0,1-.37-.57,3.91,3.91,0,0,1-.21-.47l0-.16,1-.22a1.87,1.87,0,0,0,.45.79A2.12,2.12,0,0,0-1.51.33,1.82,1.82,0,0,0-.69.14l.21-.36A1.53,1.53,0,0,1,.17-1,3.76,3.76,0,0,1,1.85-1.33Z"/>
<rect fill="none" x="-12" y="-12" width="24" height="24"/>
</symbol>
<symbol id="crystals" viewBox="-12 -12 24 24">
<path d="M-2.94-5.38,0-.72,2.94-5.38,3.62-5,.68-.36H6.56V.36H.68L3.62,5l-.68.36L0,.72-2.94,5.38-3.62,5-.68.36H-6.56V-.36H-.68L-3.62-5Z"/>
<rect fill="none" x="-12" y="-12" width="24" height="24"/>
</symbol>
<symbol id="curtain" viewBox="-12 -12 24 24">
<path d="M3.57-6.69l.52.53L.39-3V-.33L.1-.26a3.79,3.79,0,0,0-1,.41c-.58.3-.87.65-.87,1v.07A1.61,1.61,0,0,0-.84,2.48a3.69,3.69,0,0,0,.45.24L0,2.86l.13.05L.39,3V6.12H-.39V3.51a7.65,7.65,0,0,1-.9-.46A2.19,2.19,0,0,1-2.54,1.28V1.23A2,2,0,0,1-1.31-.48,5.32,5.32,0,0,1-.39-.86V-3l-3.7-3.14.52-.53L0-3.67Z"/>
<rect fill="none" x="-12" y="-12" width="24" height="24"/>
</symbol>
<symbol id="disk" viewBox="-12 -12 24 24">
<path d="M-.09-4.19a2.43,2.43,0,0,1,1.7.64A2,2,0,0,1,2.35-2,2.09,2.09,0,0,1,1.81-.55,2.44,2.44,0,0,1,.35.23l2.18,3.6-.68.33L0,1.14-1.48,4.19l-.71-.29L-.41.25A2.53,2.53,0,0,1-1.9-.47a2,2,0,0,1-.63-1.41,2,2,0,0,1,.67-1.61,2.46,2.46,0,0,1,1.72-.7ZM1.05-3.06.56-3.49l-.69,0A1.72,1.72,0,0,0-1.29-3a1.51,1.51,0,0,0-.45,1.08,1.36,1.36,0,0,0,.51,1A1.68,1.68,0,0,0-.07-.44v0l0,0A1.7,1.7,0,0,0,1.11-.92,1.36,1.36,0,0,0,1.56-2,1.47,1.47,0,0,0,1.05-3.06Z"/>
<rect fill="none" x="-12" y="-12" width="24" height="24"/>
</symbol>
<symbol id="entrance" viewBox="-12 -12 24 24">
<path d="M4.46,9H-4.46L0-9Z"/>
<rect fill="none" x="-12" y="-12" width="24" height="24"/>
</symbol>
<symbol id="flowstone" viewBox="-12 -12 24 24">
<rect x="-6" y="-0.21" width="12" height="0.42"/>
<rect fill="none" x="-12" y="-12" width="24" height="24"/>
</symbol>
<symbol id="flutes" viewBox="-12 -12 24 24">
<path d="M-7-1H7v.72H3.87A4.7,4.7,0,0,1,2.16,1.5,4.2,4.2,0,0,1,0,2.13,3.94,3.94,0,0,1-2.19,1.5,4.18,4.18,0,0,1-3.76-.27H-7Zm4.17.72A3.15,3.15,0,0,0-1.65,1,3.21,3.21,0,0,0,0,1.41,3.49,3.49,0,0,0,1.6,1,3.68,3.68,0,0,0,3-.27Z"/>
<rect fill="none" x="-12" y="-12" width="24" height="24"/>
</symbol>
<symbol id="gradient" viewBox="-12 -12 24 24">
<path d="M2.58-3.83,0-10-2.58-3.83A4.74,4.74,0,0,1-.17-4.5V10H.25V-4.5A6.65,6.65,0,0,1,2.58-3.83Z"/>
<rect fill="none" x="-12" y="-12" width="24" height="24"/>
</symbol>
<symbol id="guano" viewBox="-12 -12 24 24">
<path d="M-3.24-3a2.15,2.15,0,0,1,1.57.55A3.93,3.93,0,0,1-.59.24a4.32,4.32,0,0,1,2.75-2.3,2.68,2.68,0,0,1,2.23.36A2.36,2.36,0,0,1,5.5.19l-.79,0a1.72,1.72,0,0,0-.79-1.37,1.94,1.94,0,0,0-1.55-.24A3.53,3.53,0,0,0,.48,0,6.63,6.63,0,0,0-.69,3l-.79-.09a10.72,10.72,0,0,0,0-3.16A3.21,3.21,0,0,0-2.22-2,1.44,1.44,0,0,0-3.37-2.3,3.45,3.45,0,0,0-5-1.54l-.5-.55a4.29,4.29,0,0,1,2-.91A.9.9,0,0,1-3.24-3Z"/>
<rect fill="none" x="-12" y="-12" width="24" height="24"/>
</symbol>
<symbol id="helictites" viewBox="-12 -12 24 24">
<path d="M-4.59-7.92h.79v7.7l3.41,0V-7.92H.39V-.17L4.2-.12h.39v8H3.8V.6L.39.55V7.92H-.39V.55L-4.2.5l-.39,0v-8.4Z"/>
<rect fill="none" x="-12" y="-12" width="24" height="24"/>
</symbol>
<symbol id="human" viewBox="-12 -12 24 24">
<path d="M-3.59-3.29A5.13,5.13,0,0,1,0-4.66,5.13,5.13,0,0,1,3.59-3.29,4.3,4.3,0,0,1,5.09,0a4.3,4.3,0,0,1-1.5,3.29A5.13,5.13,0,0,1,0,4.66,5.13,5.13,0,0,1-3.59,3.29,4.3,4.3,0,0,1-5.09,0,4.3,4.3,0,0,1-3.59-3.29Zm.28.77A3.68,3.68,0,0,0-4.3,0a3.62,3.62,0,0,0,1,2.57L-.5.05ZM0-3.94A4.42,4.42,0,0,0-2.75-3L.16-.36H4.28A3.62,3.62,0,0,0,2.91-2.9,4.38,4.38,0,0,0,0-3.94ZM.16.46-2.7,3.07A4.42,4.42,0,0,0,0,3.94a4.37,4.37,0,0,0,2.87-1A3.78,3.78,0,0,0,4.28.46Z"/>
<rect fill="none" x="-12" y="-12" width="24" height="24"/>
</symbol>
<symbol id="karren" viewBox="-12 -12 24 24">
<path d="M1-5.84h0a1.37,1.37,0,0,1,1.06.68A3.33,3.33,0,0,1,2.5-3.79,25.79,25.79,0,0,1,2.36,0a18.61,18.61,0,0,0-.08,3.72,2.68,2.68,0,0,0,.41,1.2,1.13,1.13,0,0,0,.79.5A.92.92,0,0,0,4,4.94a4.43,4.43,0,0,0,.47-1.22c.16-.64.36-1.86.59-3.66a26.71,26.71,0,0,1,.64-3.69,4.62,4.62,0,0,1,.57-1.29,1.34,1.34,0,0,1,1-.59h0A1.28,1.28,0,0,1,8.37-5a2.17,2.17,0,0,1,.39,1.15A19.91,19.91,0,0,1,8.54-.53a21.51,21.51,0,0,0-.2,3.64A2.64,2.64,0,0,0,9.45,5.36,1.91,1.91,0,0,0,10.88,5a3.84,3.84,0,0,0,.7-1l.42.2-.1.18-.12.21-.11.18L11.52,5a.94.94,0,0,1-.14.16c-.06.07-.13.12-.19.18a2.5,2.5,0,0,1-1.85.41H9.29l0,0A3.06,3.06,0,0,1,7.87,3.13a22.11,22.11,0,0,1,.2-3.7,18.17,18.17,0,0,0,.22-3.28A1.85,1.85,0,0,0,8-4.79a.77.77,0,0,0-.67-.3.93.93,0,0,0-.64.42,4.51,4.51,0,0,0-.51,1.15A26.26,26.26,0,0,0,5.54.1c-.24,1.83-.45,3.07-.61,3.72a5.38,5.38,0,0,1-.51,1.34,1.33,1.33,0,0,1-.89.68H3.47A1.58,1.58,0,0,1,2.3,5.16a3.29,3.29,0,0,1-.49-1.4A20.27,20.27,0,0,1,1.89,0,23.45,23.45,0,0,0,2-3.75a2.94,2.94,0,0,0-.32-1.19A.93.93,0,0,0,1-5.42,1.1,1.1,0,0,0,.19-5,3.69,3.69,0,0,0-.43-3.76,20.78,20.78,0,0,0-1.07.07c-.2,2-.37,3.32-.49,3.86A4.48,4.48,0,0,1-2,5.26,1.06,1.06,0,0,1-3,5.81h0a1.9,1.9,0,0,1-1.29-.67,2.7,2.7,0,0,1-.58-1.31,14.92,14.92,0,0,1,0-3.6q0-.12.06-.54c0-.28,0-.47,0-.57s0-.28,0-.52,0-.42,0-.55,0-.28,0-.47,0-.36,0-.51,0-.29,0-.43A3.09,3.09,0,0,0-5-4.62a1.19,1.19,0,0,0-.67-.6,1.5,1.5,0,0,0-1.2.9A7,7,0,0,0-7.41-2.1c0,.39-.1,1-.14,1.76s-.11,1.47-.18,2.08A9.61,9.61,0,0,1-8,3.32h0l0,0A2.81,2.81,0,0,1-9.2,4.62a1.82,1.82,0,0,1-1.35.15A1.94,1.94,0,0,1-11.61,4,2.39,2.39,0,0,1-12,2.56l.47,0a1.92,1.92,0,0,0,.31,1.16,1.47,1.47,0,0,0,.81.62,1.3,1.3,0,0,0,1-.11A2.32,2.32,0,0,0-8.5,3.18a7.53,7.53,0,0,0,.29-1.5Q-8.1.8-8-.36c0-.78.1-1.37.16-1.78A7.23,7.23,0,0,1-7.28-4.5,1.93,1.93,0,0,1-5.65-5.66h.05l0,0a1.59,1.59,0,0,1,1,.84,3.47,3.47,0,0,1,.34,1.41,4.91,4.91,0,0,1,0,.57v.54c0,.15,0,.37,0,.66s0,.47,0,.58,0,.33-.06.68,0,.56-.06.63a14.78,14.78,0,0,0,0,3.49,2.58,2.58,0,0,0,.5,1.13,1.57,1.57,0,0,0,1,.5A.61.61,0,0,0-2.44,5,3.89,3.89,0,0,0-2,3.85C-1.9,3.31-1.74,2-1.53,0A20.65,20.65,0,0,1-.86-3.89,3.89,3.89,0,0,1-.18-5.26,1.58,1.58,0,0,1,1-5.84Z"/>
<rect fill="none" x="-12" y="-12" width="24" height="24"/>
</symbol>
<symbol id="moonmilk" viewBox="-12 -12 24 24">
<path d="M-4.78-3.06a3.39,3.39,0,0,1,1.5.34,2.48,2.48,0,0,1,1.1,1,3.74,3.74,0,0,1,1.62-.8,3.52,3.52,0,0,1,1.71,0,2.9,2.9,0,0,1,1.39.77A2.49,2.49,0,0,1,3.25-.37,4,4,0,0,1,5-.76a3.58,3.58,0,0,1,1.6.36A2.84,2.84,0,0,1,7.88.92a2.32,2.32,0,0,1,0,1.88.34.34,0,0,1-.37.26A.36.36,0,0,1,7.25,3a.32.32,0,0,1-.12-.25.21.21,0,0,1,0-.12,2,2,0,0,0,0-1.43,2,2,0,0,0-1-.9A2.81,2.81,0,0,0,4.68,0,2.78,2.78,0,0,0,3.12.56L2.46.25A1.7,1.7,0,0,0,2.15-1.1,2.15,2.15,0,0,0,1-1.81a2.85,2.85,0,0,0-1.58.06A3,3,0,0,0-2-.83l-.71-.12A1.74,1.74,0,0,0-3.55-2a2.36,2.36,0,0,0-1.39-.27,3.08,3.08,0,0,0-1.45.53A2.33,2.33,0,0,0-7.32-.56a.35.35,0,0,1-.37.24A.39.39,0,0,1-8-.42a.33.33,0,0,1-.1-.26v-.1A3,3,0,0,1-6.89-2.35,4,4,0,0,1-5-3Z"/>
<rect fill="none" x="-12" y="-12" width="24" height="24"/>
</symbol>
<symbol id="narrow" viewBox="-12 -12 24 24">
<path d="M-1.5,5V-5h0.64V5H-1.5z"/>
<path d="M0.86,5V-5H1.5V5H0.86z"/>
<rect fill="none" x="-12" y="-12" width="24" height="24"/>
</symbol>
<symbol id="paleoflow" viewBox="-12 -12 24 24">
<path d="M.38-12V.17A1.9,1.9,0,0,0,1,0,1.57,1.57,0,0,0,1.7-.72a1.86,1.86,0,0,0,.23-1c0-.09,0-.14.08-.16a.92.92,0,0,1,.24,0,.52.52,0,0,0,.25,0h.08A2.48,2.48,0,0,1,2,0,2.5,2.5,0,0,1,.38.77V7.21H2.09L0,12-1.8,7.23c.07,0,.59,0,1.53,0V.77A3,3,0,0,1-1.35.43a2.16,2.16,0,0,1-1-1,2.38,2.38,0,0,1-.24-1.33l.67,0a2,2,0,0,0,.15,1,1.73,1.73,0,0,0,.59.67A2.14,2.14,0,0,0-.27.16V-12Z"/>
<rect fill="none" x="-12" y="-12" width="24" height="24"/>
</symbol>
<symbol id="rain" viewBox="-12 -12 24 24">
<path d="M-4.14-6.34h0.71v4.69h-0.71V-6.34z"/>
<path d="M-0.35-6.34h0.71v4.69h-0.71V-6.34z"/>
<path d="M3.43-6.34h0.71v4.69H3.43V-6.34z"/>
<path d="M-4.14,1.65h0.71v4.69h-0.71V1.65z"/>
<path d="M-0.35,1.65h0.71v4.69h-0.71V1.65z"/>
<path d="M3.43,1.65h0.71v4.69H3.43V1.65z"/>
<rect fill="none" x="-12" y="-12" width="24" height="24"/>
</symbol>
<symbol id="rats" viewBox="-12 -12 24 24">
<path d="M8.78-2.32,7-2.27c-.51-.17-.65-.56-1.46-.45l-.25.45C3.59-2.75,2.59-3.66.56-3.62l-1.35.3A4.89,4.89,0,0,0-4.24,1.57c-.68.6-2.58.86-3.39.94a6.84,6.84,0,0,0-1.62.39,4.91,4.91,0,0,0-1,.52A1.75,1.75,0,0,0-11,4.61a1.16,1.16,0,0,0,.59,1.48,1.3,1.3,0,0,1,.14.12c.16-.52-.35-.92-.2-1.42a3.35,3.35,0,0,1,.27-.45,3.18,3.18,0,0,1,1.79-1c.63-.12,1.27-.22,1.91-.3.48-.07,1,0,1.4-.12A6.94,6.94,0,0,1-4,2.82,30.64,30.64,0,0,0,.41,2.69l2.16.15c.1-.09,0,0,.1-.15a.87.87,0,0,0-.9-.55c.86-1,2.27-.37,3.1-.05.5.19,1,0,1.25.4.11-.1.1-.07.15-.25.3,0,.31.07.6.15-.06-.49-.34-.64-1-.6a.78.78,0,0,1,0-.55C6.3.56,7.29.73,8.13.43a13.78,13.78,0,0,0,2.15-.9l.6-.85v-.2A16.9,16.9,0,0,0,8.78-2.32Z"/>
<rect fill="none" x="-12" y="-12" width="24" height="24"/>
</symbol>
<symbol id="sand" viewBox="-12 -12 24 24">
<path d="M-1.58,0.83c0.23,0.2,0.35,0.44,0.36,0.73c0.01,0.29-0.08,0.54-0.28,0.75c-0.2,0.21-0.46,0.32-0.78,0.33c-0.32,0.01-0.6-0.08-0.83-0.26C-3.36,2.19-3.49,1.95-3.5,1.67C-3.51,1.38-3.41,1.12-3.2,0.9c0.21-0.22,0.48-0.34,0.8-0.35C-2.08,0.54-1.81,0.64-1.58,0.83z"/>
<path d="M0.08-2.36c0.23,0.2,0.35,0.44,0.36,0.73c0.01,0.29-0.08,0.54-0.28,0.75c-0.2,0.21-0.46,0.32-0.78,0.33c-0.32,0.01-0.59-0.07-0.83-0.26s-0.37-0.42-0.38-0.71c-0.01-0.29,0.09-0.54,0.3-0.76c0.21-0.22,0.48-0.33,0.8-0.35C-0.42-2.65-0.14-2.56,0.08-2.36z"/>
<path d="M3.12,0.55c0.23,0.2,0.35,0.43,0.38,0.71c0.02,0.28-0.07,0.53-0.28,0.75C3,2.23,2.73,2.35,2.42,2.36C2.1,2.37,1.82,2.28,1.58,2.08C1.34,1.88,1.22,1.64,1.2,1.35c-0.01-0.29,0.09-0.54,0.3-0.75C1.72,0.4,1.99,0.29,2.3,0.28S2.89,0.36,3.12,0.55z"/>
<rect fill="none" x="-12" y="-12" width="24" height="24"/>
</symbol>
<symbol  id="scallops" viewBox="-12 -12 24 24">
<path d="M.05-3.74l.21,0A2.35,2.35,0,0,1,1.74-3a2,2,0,0,1,.59,1.55v0l0,0A9.59,9.59,0,0,1-.08,3.27l-.39.47-.27-.55A14.26,14.26,0,0,1-2.33-1.89v-.05l0-.05A2,2,0,0,1-1.44-3.3,2.42,2.42,0,0,1,.05-3.74ZM-.11-3A1.44,1.44,0,0,0-1.55-1.89,13.06,13.06,0,0,0-.29,2.33,8.6,8.6,0,0,0,1.55-1.54a1.41,1.41,0,0,0-.38-1A1.62,1.62,0,0,0,.18-3Z"/>
<rect fill="none" x="-12" y="-12" width="24" height="24"/>
</symbol>
<symbol  id="sink" viewBox="-12 -12 24 24">
<path d="M.72,9.41H.9c1.94,0,3.26-.54,3.94-1.51a3.61,3.61,0,0,0,.33-.69,2,2,0,0,0,.11-.54V6.46l.69,0a2.8,2.8,0,0,1-.58,1.78C4.58,9.39,3.1,10,.93,10H-.93q-3.25,0-4.46-1.8a2.74,2.74,0,0,1-.43-.83A2.37,2.37,0,0,1-6,6.67V6.43l.68,0A2.27,2.27,0,0,0-4.84,7.9c.68,1,2,1.47,3.93,1.48l.5,0ZM-1.46-10a.68.68,0,0,0,.16.41A2.77,2.77,0,0,0-.51-9l0,0a3.63,3.63,0,0,1,1,.7,1.15,1.15,0,0,1,.34.88c0,.58-.53,1.14-1.49,1.68-.68.42-1,.79-1,1.11s.3.61.84,1h0Q.61-2.86.46-1.78a3.51,3.51,0,0,1-1.55,2,.61.61,0,0,0-.26.41,1.67,1.67,0,0,0,.1.51,5.3,5.3,0,0,1,.32,1L.56,1.9.46,8.06-3.4,2.54l1.73-.28A6.16,6.16,0,0,0-2,1.39,1.7,1.7,0,0,1-2.09.58a1.21,1.21,0,0,1,.53-.82h0v0C-.75-.86-.33-1.38-.28-1.85s-.23-.87-.91-1.27h0C-2-3.6-2.37-4.1-2.4-4.61S-2-5.74-1.09-6.29C-.34-6.72.06-7.1.09-7.44a.67.67,0,0,0-.18-.43,3.17,3.17,0,0,0-.79-.58,2.93,2.93,0,0,1-1-.67A1.16,1.16,0,0,1-2.17-10Z"/>
<rect fill="none" x="-12" y="-12" width="24" height="24"/>
</symbol>
<symbol  id="spring" viewBox="-12 -12 24 24">
<path d="M-1.34-9.86,2.52-4.34.78-4.06a8,8,0,0,0,.29.87,1.4,1.4,0,0,1,.13.79,1.3,1.3,0,0,1-.52.84l0,0v0C-.13-.95-.55-.42-.61,0S-.37.91.31,1.3l0,0c.75.46,1.14,1,1.18,1.46S1.12,3.92.21,4.46C-.54,4.9-.94,5.29-1,5.64a.74.74,0,0,0,.18.43A3.2,3.2,0,0,0,0,6.62a3,3,0,0,1,1,.7,1.14,1.14,0,0,1,.31.86A1.74,1.74,0,0,1,.71,9.26H.92c1.92,0,3.22-.52,3.9-1.51a2.05,2.05,0,0,0,.35-.67,2.59,2.59,0,0,0,.1-.55l0-.19.65,0a2.84,2.84,0,0,1-.55,1.8C4.58,9.26,3.08,9.85.92,9.86H-.92c-2.17,0-3.66-.6-4.49-1.77a3.65,3.65,0,0,1-.4-.85A2.43,2.43,0,0,1-6,6.53V6.29l.66,0a2.08,2.08,0,0,0,.47,1.41c.68,1,2,1.5,3.91,1.51H-.4c.62-.43.94-.8,1-1.1a.76.76,0,0,0-.16-.43,3.25,3.25,0,0,0-.79-.51v0a3.8,3.8,0,0,1-1-.7,1.15,1.15,0,0,1-.34-.91q.06-.84,1.5-1.68c.68-.4,1-.77,1-1.1S.49,2.21,0,1.87c0,0,0,0,0,0C-1,1.32-1.44.69-1.34,0a3.58,3.58,0,0,1,1.55-2,.54.54,0,0,0,.23-.38A1.28,1.28,0,0,0,.37-3a4.57,4.57,0,0,1-.32-1l-1.49.24Z"/>
<rect fill="none" x="-12" y="-12" width="24" height="24"/>
</symbol>
<symbol  id="stalactite" viewBox="-12 -12 24 24">
<path d="M3.57-6.69l.52.53L.39-3V6.12H-.39V-3l-3.7-3.14.52-.53L0-3.67Z"/>
<rect fill="none" x="-12" y="-12" width="24" height="24"/>
</symbol>
<symbol  id="stalagmite" viewBox="-12 -12 24 24">
<path d="M.38-6.42V2.75L4.11,5.89l-.56.53L0,3.4l-3.57,3-.53-.53,3.7-3.14V-6.42Z"/>
<rect fill="none" x="-12" y="-12" width="24" height="24"/>
</symbol>
<symbol  id="stalagnate" viewBox="-12 -12 24 24">
<path d="M3.55-8.46l.56.53L.38-4.78v9L4.11,7.36l-.56.53L0,4.86l-3.57,3-.53-.53,3.7-3.14v-9l-3.7-3.15.53-.53L0-5.43Z"/>
<rect fill="none" x="-12" y="-12" width="24" height="24"/>
</symbol>
<symbol  id="straws" viewBox="-12 -12 24 24">
<path d="M-10.89-2.76H10.89V-2H9.63V.46H8.84V-2H8.29v5.6H7.5V-2H5.56V.7H4.77V-2H2.07V2.38H1.29V-2H-.1v3H-.89V-2H-3.2V4.11H-4V-2H-6.22L-6.16.75l-.79,0L-7-2H-8.32V2.33H-9.1V-2h-1.79Z"/>
<rect fill="none" x="-12" y="-12" width="24" height="24"/>
</symbol>
<symbol  id="water" viewBox="-12 -12 24 24">
<path d="M-1.72-9.86,2.11-4.32.38-4.06a6.49,6.49,0,0,0,.29.89,1.5,1.5,0,0,1,.13.79,1.2,1.2,0,0,1-.5.82h0l0,0C-.54-.94-1-.42-1,.05s.24.89.92,1.27h0c.77.48,1.17,1,1.19,1.49S.71,3.94-.2,4.49c-.75.43-1.13.81-1.15,1.15a.51.51,0,0,0,.18.43,2.66,2.66,0,0,0,.76.58,2.93,2.93,0,0,1,1,.67,1.16,1.16,0,0,1,.29.89C.84,8.75.42,9.3-.41,9.86l-.44-.55c.66-.45,1-.83,1-1.15A.47.47,0,0,0,0,7.75a2.84,2.84,0,0,0-.78-.53h0a3.87,3.87,0,0,1-1-.69,1.24,1.24,0,0,1-.34-.91c0-.58.54-1.14,1.52-1.68.66-.42,1-.79,1-1.11s-.3-.61-.84-1h0Q-1.9,1.06-1.74,0a3.44,3.44,0,0,1,1.54-2,.67.67,0,0,0,.27-.41A1.11,1.11,0,0,0,0-3a4.33,4.33,0,0,1-.31-1l-1.5.24Z"/>
<rect fill="none" x="-12" y="-12" width="24" height="24"/>
</symbol><symbol  id="tree" viewBox="-12 -12 24 24">
<path d="M7.4-5.04A4.271,4.271,0,0,0,7.7-6.627a4.3,4.3,0,0,0-4.3-4.3A4.279,4.279,0,0,0,.636-9.914,4.293,4.293,0,0,0-3.045-12a4.3,4.3,0,0,0-4.3,4.3,4.27,4.27,0,0,0,.421,1.845,4.3,4.3,0,0,0-3.645,4.244,4.3,4.3,0,0,0,4.3,4.3A4.282,4.282,0,0,0-3.946,2L-1.175,5.23h0L-1.612,12H.982L.757,6.376,4.119,2.827v0a4.272,4.272,0,0,0,2.15.58,4.3,4.3,0,0,0,4.3-4.3A4.3,4.3,0,0,0,7.4-5.04ZM-3.346,1.538h0A4.346,4.346,0,0,0-2.7.788a4.266,4.266,0,0,0,1.765.753l-.135,2.087ZM.69,4.7.563,1.544A4.258,4.258,0,0,0,2.321.805,4.3,4.3,0,0,0,3.378,2.279Z"/>
<rect fill="none" x="-12" y="-12" width="24" height="24"/>
</symbol><g>
<desc></desc>
<g>
<line fill="none" stroke="#dddddd" stroke-width="0.1mm" x1="0.00" y1="41.00" x2="164.00" y2="41.00" />
<text x="161.20" y="40.80" font-size=".2mm" fill="#000000">0m</text>
<line fill="none" stroke="#dddddd" stroke-width="0.1mm" x1="0.00" y1="21.00" x2="164.00" y2="21.00" />
<text x="161.20" y="20.80" font-size=".2mm" fill="#000000">10m</text>
<line fill="none" stroke="#dddddd" stroke-width="0.1mm" x1="0.00" y1="1.00" x2="164.00" y2="1.00" />
<text x="161.20" y="0.80" font-size=".2mm" fill="#000000">20m</text>
<line fill="none" stroke="#dddddd" stroke-width="0.1mm" x1="0.00" y1="61.00" x2="164.00" y2="61.00" />
<text x="161.20" y="60.80" font-size=".2mm" fill="#000000">-10m</text>
<line fill="none" stroke="#dddddd" stroke-width="0.1mm" x1="0.00" y1="81.00" x2="164.00" y2="81.00" />
<text x="161.20" y="80.80" font-size=".2mm" fill="#000000">-20m</text>
<line fill="none" stroke="#dddddd" stroke-width="0.1mm" x1="0.00" y1="101.00" x2="164.00" y2="101.00" />
<text x="161.20" y="100.80" font-size=".2mm" fill="#000000">-30m</text>
<line fill="none" stroke="#dddddd" stroke-width="0.1mm" x1="0.00" y1="121.00" x2="164.00" y2="121.00" />
<text x="161.20" y="120.80" font-size=".2mm" fill="#000000">-40m</text>
<line fill="none" stroke="#dddddd" stroke-width="0.1mm" x1="0.00" y1="141.00" x2="164.00" y2="141.00" />
<text x="161.20" y="140.80" font-size=".2mm" fill="#000000">-50m</text>
<line fill="none" stroke="#dddddd" stroke-width="0.1mm" x1="0.00" y1="161.00" x2="164.00" y2="161.00" />
<text x="161.20" y="160.80" font-size=".2mm" fill="#000000">-60m</text>
</g>
<g>
<path fill="none" stroke="#000000" stroke-width="0.06mm" d="M29.040112,37.07914 C28.921928,37.164093 28.798101,37.2417 28.685564,37.334003 C28.627602,37.381546 28.259045,37.60225 28.310932,37.802956 C28.331543,37.88269 28.372833,37.942917 28.398144,38.024216 C28.414106,38.07549 28.42287,38.128834 28.431255,38.181877 C28.458162,38.35214 28.448418,38.4992 28.618298,38.593246 C28.654373,38.61322 28.718204,38.626373 28.757578,38.61425 C28.957008,38.55283 29.155422,38.487503 29.350624,38.413734 C29.539516,38.34235 29.797867,38.267067 29.893623,38.060627 C29.93465,37.97218 29.902363,37.87955 29.861092,37.79872 C29.537178,37.164364 29.665655,37.367107 29.423576,37.013737 L29.423576,37.013737" /><path fill="none" stroke="#000000" stroke-width="0.06mm" d="M29.741642,38.393105 L29.697456,38.387558" /><path fill="none" stroke="#000000" stroke-width="0.06mm" d="M29.655437,38.413914 L29.620167,38.417286" /><path fill="none" stroke="#000000" stroke-width="0.06mm" d="M33.79032,39.174942 C33.081417,39.21249 32.462296,39.151234 31.81076,39.371243 C31.590885,39.445488 31.380598,39.54558 31.165516,39.632748 L31.165516,39.632748" /><path fill="none" stroke="#000000" stroke-width="0.06mm" d="M30.330217,39.698147 C30.288837,39.697998 29.224915,39.62431 28.855434,39.745262 C28.743408,39.781937 28.641659,39.844658 28.534771,39.894352 L28.534771,39.894352" /><path fill="none" stroke="#000000" stroke-width="0.06mm" d="M29.093616,39.98056 C28.555368,39.91063 28.28892,40.1242 27.75055,40.2301 C25.451115,40.682404 27.487595,40.117382 25.746475,40.637543 L25.746475,40.637543" /><path fill="none" stroke="#000000" stroke-width="0.06mm" d="M25.72864,40.59295 C24.888859,40.69906 25.326576,40.67349 24.414753,40.65538 L24.414753,40.65538" /><path fill="none" stroke="#000000" stroke-width="0.06mm" d="M24.483122,40.5989 C24.251404,40.649082 24.060684,40.669037 23.857176,40.817623 C23.458471,41.108727 23.085817,41.434044 22.706713,41.75025 C22.620577,41.822098 22.554539,41.917812 22.462057,41.98128 C21.849567,42.401623 21.891338,42.236355 21.120749,42.571644 C21.070442,42.593533 20.434492,43.02572 20.118967,43.02613 C20.052616,43.026215 19.986446,43.019215 19.920185,43.01576 L19.920185,43.01576" /><path fill="none" stroke="#000000" stroke-width="0.06mm" d="M29.280891,39.68923 C29.496872,39.648438 29.716415,39.62333 29.928833,39.566845 C30.359642,39.452293 30.454668,39.340588 30.806274,39.30173 C30.971367,39.283485 31.161625,39.34611 31.311563,39.366745 C31.4579,39.386887 31.595222,39.329273 31.736256,39.296825 L31.736256,39.296825" /><path fill="none" stroke="#000000" stroke-width="0.06mm" d="M33.46036,39.19278 L33.475624,39.175343" /><path fill="none" stroke="#000000" stroke-width="0.06mm" d="M38.468742,33.21312 C38.381306,33.17784 38.296013,33.1367 38.206436,33.107285 C38.156197,33.090786 38.103806,33.076702 38.050934,33.075916 C37.691288,33.07058 37.328682,33.042904 36.971962,33.088966 C36.278778,33.178482 35.59086,33.31424 34.912163,33.481247 C34.5619,33.567436 34.226067,33.706734 33.893528,33.84648 C33.289795,34.100193 32.68766,34.36067 32.105553,34.660694 C31.047485,35.206043 29.28756,36.50671 28.484058,37.001 C28.285479,37.123158 28.05904,37.194866 27.837957,37.268883 C26.848225,37.600224 25.840591,37.877007 24.853592,38.216408 C24.676151,38.277424 24.526688,38.404655 24.350151,38.46824 C23.897467,38.631287 23.418663,38.71795 22.971052,38.894447 C22.615911,39.03448 22.315971,39.30368 21.950626,39.414394 C21.122011,39.665497 21.030058,39.488945 20.199163,39.7324 L20.199163,39.7324" /><path fill="none" stroke="#000000" stroke-width="0.06mm" d="M38.688713,33.42716 C38.827293,33.447937 39.02439,33.456635 39.15325,33.539352 C39.462154,33.73764 39.76385,33.94752 40.058098,34.16696 C40.2367,34.300156 40.43847,34.652008 40.537186,34.781673 C40.67308,34.960175 40.901356,35.001247 41.107727,34.950825 C41.302036,34.903347 41.673042,34.683933 41.7379,34.63394 C42.62077,33.95349 43.477463,33.23942 44.33091,32.522415 C44.59038,32.30442 44.72233,31.878595 44.786324,31.577435 C44.881496,31.129555 44.94731,30.675797 45.014145,30.22282 C45.02231,30.167515 45.016006,30.110813 45.01094,30.055141 C44.991817,29.845034 44.852737,29.751709 44.66159,29.687635 C44.589134,29.663345 44.482048,29.639908 44.401,29.64442 C44.25383,29.652615 44.098763,29.711798 43.97587,29.783358 C42.78708,30.47556 41.581955,31.14321 40.43234,31.898682 C39.247192,32.900246 39.71528,32.591656 39.13163,32.963406 L39.13163,32.963406" /><path fill="none" stroke="#000000" stroke-width="0.06mm" d="M39.434837,32.663155 C39.340073,32.71949 39.24531,32.775818 39.15055,32.832153 C39.110878,32.86918 39.044815,32.890614 39.031536,32.94323 C39.00754,33.0383 39.042778,33.13901 39.048397,33.2369 L39.048397,33.2369" /><path fill="none" stroke="#000000" stroke-width="0.06mm" d="M44.53878,29.8093 C44.301495,30.15802 44.06421,30.506742 43.82692,30.855465 C43.584282,31.14457 43.31153,31.410866 43.099014,31.722775 C43.040413,31.808784 43.05214,31.925583 43.0287,32.026985 L43.0287,32.026985" /><path fill="none" stroke="#000000" stroke-width="0.06mm" d="M42.83846,31.860508 C42.29595,32.482384 42.592426,32.192215 41.94668,32.728558 L41.94668,32.728558" /><path fill="none" stroke="#000000" stroke-width="0.06mm" d="M39.015697,33.26663 C39.66209,33.14132 40.09625,32.985477 40.691284,32.999897 C41.30238,33.0147 40.848846,33.057747 41.28379,33.002052 L41.28379,33.002052" /><path fill="none" stroke="#000000" stroke-width="0.06mm" d="M41.655365,32.921787 L42.38365,34.11387" /><path fill="none" stroke="#000000" stroke-width="0.06mm" d="M44.413933,29.526886 C45.101154,28.448483 44.38276,29.538765 46.9355,27.277786 C47.02305,27.200249 47.09877,27.108946 47.165813,27.013123 C47.262627,26.874746 47.338722,26.722973 47.42517,26.5779 L47.42517,26.5779" /><path fill="none" stroke="#000000" stroke-width="0.06mm" d="M33.85174,39.207104 C34.12648,39.288147 34.401215,39.369186 34.67595,39.450226 C34.71107,39.46958 34.751648,39.48131 34.781315,39.5083 C34.963303,39.67387 35.142048,39.843758 35.308075,40.025326 C35.366997,40.089764 35.41252,40.166115 35.453392,40.24328 C35.60311,40.52594 35.73187,40.81931 35.87906,41.103294 C36.94464,43.159214 34.06921,36.415054 37.362335,44.85647 C37.431587,45.033993 37.53009,45.198666 37.613976,45.369766 C38.362534,47.066208 39.195717,48.727783 39.859657,50.459095 C40.300804,51.60944 40.438755,53.392483 40.64306,54.58012 C40.999332,56.651154 40.600395,53.296227 40.88788,56.00622 L40.88788,56.00622" /><path fill="none" stroke="#000000" stroke-width="0.06mm" d="M60.190895,65.153725 C58.214092,65.13456 60.58636,65.19048 56.598236,64.75859 C55.723648,64.66388 54.842014,64.64595 53.966873,64.556465 C53.82696,64.54216 53.690212,64.498924 53.559177,64.447845 C53.392925,64.38303 53.233704,64.300026 53.079353,64.210495 C52.998444,64.16356 52.92117,64.10759 52.856354,64.040146 C52.381306,63.545853 52.15712,63.262913 51.907616,62.59689 C51.713943,62.079918 51.628563,61.52579 51.4255,61.012436 C51.179657,60.390923 50.865128,59.79855 50.564575,59.201572 C50.51705,59.107178 50.45276,59.021057 50.38298,58.941692 C50.29104,58.837124 50.18639,58.744152 50.081696,58.65236 C49.963123,58.5484 49.75625,58.50374 49.609257,58.49221 C48.738445,58.423912 47.860397,58.431583 46.994865,58.31398 C46.543198,58.25261 46.106003,58.104977 45.674664,57.957603 C45.519905,57.90473 45.384895,57.805046 45.247173,57.716858 C44.82134,57.444176 44.41151,57.146965 43.984867,56.87555 C43.603912,56.6332 43.211617,56.40916 42.82499,56.175964 L42.82499,56.175964" /><path fill="none" stroke="#000000" stroke-width="0.06mm" d="M59.967953,65.031845 C60.431976,64.94521 60.93431,64.898636 61.25453,64.51435 C61.679546,64.00432 61.609585,63.053646 61.677612,62.51826 C61.704273,62.308434 61.862457,62.04293 62.083054,61.98573 C62.442448,61.89254 62.802597,61.78897 63.171974,61.75147 C64.10837,61.656395 65.05044,61.62608 65.99091,61.588966 C67.383766,61.533997 66.075455,61.68409 66.908966,61.577484 L66.908966,61.577484" /><path fill="none" stroke="#000000" stroke-width="0.06mm" d="M54.20706,63.682205 C53.923004,63.843407 53.63895,64.00461 53.354893,64.16582 C53.339146,64.17139 53.324356,64.18234 53.307655,64.182526 C53.30224,64.18258 53.30686,64.17172 53.306465,64.16632 C53.323376,64.14904 53.340286,64.131744 53.3572,64.114456 C53.59668,63.928978 53.834164,63.740887 54.07564,63.558014 C54.254196,63.422802 54.476795,63.60382 54.581264,63.745247 C54.693947,63.89779 54.802315,64.05357 54.9072,64.21158 C54.945316,64.269 54.912678,64.334015 54.85946,64.36418 C54.84175,64.37422 54.82276,64.38219 54.803307,64.38817 C54.39809,64.51262 53.991627,64.63297 53.585785,64.75537 L53.585785,64.75537" /><path fill="none" stroke="#000000" stroke-width="0.06mm" d="M53.14882,63.96759 C53.432186,64.38358 53.483234,64.392426 53.918716,64.59782 L53.918716,64.59782" /><path fill="none" stroke="#000000" stroke-width="0.06mm" d="M58.448956,63.441414 C58.150787,63.635735 57.863407,63.84772 57.554447,64.02438 C57.39111,64.11778 57.207386,64.170044 57.0366,64.24899 C57.021366,64.25604 57.008682,64.268456 56.998188,64.281555 C56.917057,64.382835 57.167088,64.549164 57.232304,64.58045 C57.461613,64.69047 57.696598,64.78823 57.928753,64.89212 L57.928753,64.89212" /><path fill="none" stroke="#000000" stroke-width="0.06mm" d="M58.0536,63.295746 C58.20868,63.676506 58.356895,64.060135 58.518833,64.438034 C58.556908,64.526886 58.613495,64.60689 58.653214,64.695015 C58.659428,64.7088 58.658344,64.725586 58.655094,64.74036 C58.64372,64.79208 58.57645,64.81096 58.5323,64.813446 C58.05183,64.84051 58.176266,64.83824 57.753365,64.791046 L57.753365,64.791046" /><path fill="none" stroke="#000000" stroke-width="0.06mm" d="M60.428703,64.17568 C60.240532,64.21998 60.0489,64.25151 59.864193,64.308556 C59.66623,64.36969 59.47213,64.444405 59.283195,64.52945 C59.271072,64.53491 59.27655,64.55897 59.28491,64.569305 C59.30144,64.589745 59.32574,64.60447 59.35065,64.61287 C59.360867,64.61631 59.993843,64.83386 60.17491,64.82709 C60.25865,64.82396 60.33816,64.789185 60.41979,64.77023 L60.41979,64.77023" /><path fill="none" stroke="#000000" stroke-width="0.06mm" d="M60.33655,63.82787 C60.61467,64.10033 60.862026,64.182686 60.661026,64.5289 C60.637386,64.56962 60.61741,64.616745 60.57888,64.643814 C60.501064,64.69847 60.40742,64.72612 60.32169,64.767265 L60.32169,64.767265" /><path fill="none" stroke="#000000" stroke-width="0.06mm" d="M56.166,64.00624 C55.859634,63.974472 55.830257,63.950493 55.507446,64.01271 C55.339333,64.04511 55.174473,64.09297 55.00984,64.13994 C54.983803,64.14737 54.928497,64.17499 54.918896,64.20923 C54.895515,64.29261 55.120655,64.38785 55.127098,64.39105 C55.167187,64.41095 55.20988,64.426025 55.253284,64.43694 C55.476654,64.49314 55.70373,64.53408 55.92661,64.59221 C56.035,64.62048 56.13971,64.66135 56.24626,64.69592 L56.24626,64.69592" /><path fill="none" stroke="#000000" stroke-width="0.06mm" d="M55.9163,63.75355 C55.80727,63.840202 56.328655,64.1975 56.32059,64.362274 C56.31118,64.55462 55.902622,64.64969 55.788483,64.68403 L55.788483,64.68403" /><path fill="none" stroke="#000000" stroke-width="0.06mm" d="M64.60817,61.021576 C64.28638,61.11772 63.961376,61.20375 63.642776,61.310013 C63.63029,61.31418 63.62547,61.335518 63.630688,61.347595 C63.63918,61.36725 63.65942,61.380287 63.67784,61.39119 C63.75824,61.438744 63.85189,61.473312 63.944344,61.487568 C64.10124,61.511757 64.25826,61.5427 64.41698,61.546185 C64.565125,61.549435 64.712524,61.523506 64.85986,61.507656 C64.87926,61.50557 64.89863,61.500534 64.9164,61.492462 C64.96725,61.469353 64.97684,61.42287 64.94809,61.37581 C64.8466,61.20968 64.640625,61.02919 64.451965,60.972706 C64.4118,60.96068 64.36983,60.95574 64.32875,60.947258 L64.32875,60.947258" /><path fill="none" stroke="#000000" stroke-width="0.06mm" d="M66.48983,61.182106 C66.33567,61.218628 66.17987,61.248802 66.02735,61.291676 C65.72592,61.37641 65.89909,61.540413 66.08941,61.576202 C66.18734,61.59462 66.32411,61.57463 66.40733,61.560764 C66.42242,61.55825 66.62938,61.536373 66.59956,61.447075 C66.588135,61.412838 66.55365,61.383232 66.522575,61.367928 C66.403854,61.30945 66.28276,61.255936 66.16284,61.199944 L66.16284,61.199944" /><path fill="none" stroke="#000000" stroke-width="0.06mm" d="M67.423225,61.253456 C67.30623,61.238197 67.1713,61.19636 67.05548,61.249302 C67.01648,61.267128 66.983154,61.293953 66.95638,61.3275 C66.87117,61.434273 67.014244,61.515076 67.10551,61.53414 C67.16429,61.546425 67.229996,61.54133 67.285614,61.518127 C67.429016,61.458305 67.510376,61.229393 67.41559,61.09957 C67.37477,61.043663 67.30309,61.004654 67.241455,60.97919 C67.10398,60.9224 66.9953,60.95174 66.84952,60.97401 L66.84952,60.97401" /><path fill="none" stroke="#000000" stroke-width="0.06mm" d="M47.51409,70.38339 C46.804447,70.464386 47.426525,70.37112 46.28135,70.70219 C46.202522,70.724976 46.12024,70.73343 46.039684,70.74905 L46.039684,70.74905" /><path fill="none" stroke="#000000" stroke-width="0.06mm" d="M47.389244,70.50528 C48.44785,70.6596 47.03952,70.44876 48.510796,70.69557 C48.636047,70.71658 48.765015,70.71668 48.88828,70.74728 C49.00596,70.77648 49.115612,70.831696 49.22928,70.8739 L49.22928,70.8739" /><path fill="none" stroke="#000000" stroke-width="0.06mm" d="M45.980232,70.92146 C45.91159,71.34244 46.01687,71.655464 46.083492,72.07222 C46.100876,72.18097 46.099045,72.29242 46.119408,72.40064 C46.144855,72.53592 46.217384,72.850136 46.377686,72.92191 C46.478813,72.96719 46.614143,72.92587 46.708298,72.88875 C47.058018,72.75085 47.400513,72.594864 47.751717,72.4608 C47.89161,72.407394 48.043423,72.4468 48.182613,72.39322 C48.348305,72.32944 48.624916,72.1207 48.703133,72.068954 L48.703133,72.068954" /><path fill="none" stroke="#000000" stroke-width="0.06mm" d="M49.401695,70.847145 C49.05578,71.418434 49.490677,70.67392 48.976753,71.752846 C48.741558,72.24662 48.91954,71.79915 48.798706,72.01615 C48.734512,72.13143 48.675537,72.24954 48.613953,72.366234 L48.613953,72.366234" /><path fill="none" stroke="#000000" stroke-width="0.06mm" d="M46.372616,72.20273 L46.35518,72.19421" /><path fill="none" stroke="#248B00" stroke-width="0.06mm" d="M38.964684,68.30568 L39.03008,68.82591" /><path fill="none" stroke="#248B00" stroke-width="0.06mm" d="M39.475967,70.520386 L39.396107,70.30675" /><path fill="none" stroke="#248B00" stroke-width="0.06mm" d="M39.407597,70.25284 L39.413944,70.24135" /><path fill="none" stroke="#248B00" stroke-width="0.06mm" d="M39.389763,68.36513 C39.409557,68.73066 39.42935,69.09619 39.44915,69.461716 C39.493534,69.86406 39.55697,70.26477 39.58231,70.66876 C39.700706,72.556404 39.47705,72.3265 39.966515,74.07597 C40.033348,74.31486 40.487865,75.65304 40.804947,75.969635 C41.212326,76.37639 41.831062,76.524704 42.369984,76.64122 C42.76893,76.72746 42.840096,76.6739 43.131958,76.81183 C43.36371,76.92136 43.53782,77.13678 43.67472,77.34499 C43.961113,77.78058 43.73389,77.59105 43.97648,77.768 L43.97648,77.768" /><path fill="none" stroke="#248B00" stroke-width="0.06mm" d="M43.86055,77.583694 C43.857647,78.22511 43.837646,77.916756 44.051846,78.9269 C44.058758,78.9595 44.075684,78.98945 44.09237,79.018295 C44.259872,79.3078 44.836487,79.59794 45.17105,79.60568 C49.53975,79.70674 47.889572,79.48995 49.651165,79.73895 L49.651165,79.73895" /><path fill="none" stroke="#248B00" stroke-width="0.06mm" d="M55.787575,76.83658 C55.664,76.787766 55.56337,76.78464 55.437065,76.79317 L55.437065,76.79317" /><path fill="none" stroke="#248B00" stroke-width="0.06mm" d="M55.72326,76.76262 C55.51109,76.83142 55.16149,76.67527 54.91882,76.78722 C54.824135,76.83089 54.74012,76.936295 54.69544,77.02291 C54.570187,77.265724 54.438072,77.5071 54.34599,77.76434 C54.278267,77.95352 54.269974,78.159256 54.219078,78.353645 C54.16796,78.548874 54.049107,78.69984 53.92268,78.85539 C53.730373,79.092 53.038868,79.44328 53.009937,79.459274 C52.303688,79.84979 51.43429,79.613754 50.685036,79.57173 C50.620476,79.568115 49.766613,79.63308 49.369102,79.5186 L49.369102,79.5186" /><path fill="none" stroke="#248B00" stroke-width="0.06mm" d="M49.412514,79.54915 C49.48802,79.54346 49.563347,79.534325 49.639038,79.53206 C49.737194,79.52911 49.760048,79.55829 49.68125,79.61679 C49.63105,79.65405 49.58117,79.69234 49.52677,79.72316 C49.440872,79.77182 49.349842,79.81083 49.261375,79.85466 L49.261375,79.85466" /><path fill="none" stroke="#248B00" stroke-width="0.06mm" d="M55.636684,76.83688 C55.939075,76.88316 56.242897,76.9209 56.543854,76.97572 C56.594845,76.98501 56.64142,77.01074 56.690006,77.02878 C56.75188,77.05176 56.81237,77.078674 56.875244,77.09877 C57.372887,77.25784 57.86602,77.433235 58.37127,77.56619 C58.716778,77.65712 59.072063,77.70592 59.423653,77.769394 C59.534576,77.78942 59.64803,77.79419 59.758484,77.81666 C59.809093,77.82695 59.85801,77.84567 59.904907,77.867294 C59.981384,77.90255 60.28779,78.03233 60.410896,78.14389 C60.566277,78.284676 60.76209,78.6193 60.822952,78.72272 C60.99506,79.01512 61.03306,79.39505 61.066345,79.71309 C61.15041,80.51622 61.19877,81.32269 61.26498,82.127495 L61.26498,82.127495" /><path fill="none" stroke="#248B00" stroke-width="0.06mm" d="M78.12903,77.12812 C77.96352,83.188065 78.06483,76.74704 78.41261,86.885635 C78.45305,88.06445 78.34871,89.24631 78.41109,90.424164 C78.7415,96.662506 78.74992,91.93831 78.744125,93.409325 L78.744125,93.409325" /><path fill="none" stroke="#248B00" stroke-width="0.06mm" d="M61.073284,81.79696 C60.782673,83.61096 60.46561,85.42091 60.201443,87.23895 C60.103992,87.909615 60.002007,88.58333 59.988747,89.260895 C59.94862,91.31166 60.16231,93.36653 60.04147,95.41412 C59.99326,96.23102 59.670155,97.00808 59.484497,97.80505 L59.484497,97.80505" /><path fill="none" stroke="#248B00" stroke-width="0.06mm" d="M67.96747,105.51124 C68.13988,105.5283 68.56111,105.606606 68.81146,105.56224 C70.88258,105.195175 69.65221,105.36039 71.23224,105.14432 C71.7121,105.0787 72.18833,104.96344 72.67255,104.952805 C74.338394,104.91621 76.00495,105.026436 77.671036,105.00288 C78.32024,104.9937 78.96657,104.913284 79.613174,104.85465 C79.67613,104.848946 79.73775,104.8307 79.7975,104.81006 C79.87627,104.78284 79.9507,104.74439 80.02729,104.71156 L80.02729,104.71156" /><path fill="none" stroke="#248B00" stroke-width="0.06mm" d="M79.78183,104.68805 C79.860504,104.718735 79.94191,104.74316 80.01782,104.78012 C80.4749,105.00266 80.642136,105.578415 80.7603,106.0174 C81.03941,107.05437 80.85851,106.95828 80.99606,108.03903 C81.06464,108.57781 81.207695,109.105736 81.2688,109.64542 C81.347275,110.33853 81.18919,110.510216 81.38992,111.0833 C81.4841,111.352165 81.62731,111.601654 81.72955,111.86755 C81.84763,112.174675 81.77566,112.52132 81.89436,112.8285 C81.914185,112.87978 81.94311,112.9271 81.969604,112.97528 C81.97566,112.986305 81.98011,113.00125 81.99185,113.005775 C82.07917,113.03941 82.17093,113.060135 82.26047,113.08731 L82.26047,113.08731" /><path fill="none" stroke="#248B00" stroke-width="0.06mm" d="M79.24511,100.51538 C81.159805,100.63249 77.35217,100.42446 81.31018,100.44274 C81.61224,100.44414 81.91,100.51549 82.20863,100.56093 C82.23853,100.565475 82.266464,100.579285 82.29373,100.59239 C82.32141,100.60568 82.35086,100.618225 82.372734,100.63977 C82.677795,100.94035 82.99037,101.234695 83.27257,101.55684 C83.763626,102.1174 84.26749,103.861404 84.31635,104.022835 C85.16292,106.81943 84.97249,107.52107 86.0415,109.548416 C86.62021,110.64594 87.23733,111.72297 87.856834,112.798 C87.87374,112.827324 87.861496,112.72978 87.85564,112.696434 C87.835365,112.5811 87.804375,112.46791 87.77874,112.35365 L87.77874,112.35365" /><path fill="none" stroke="#248B00" stroke-width="0.06mm" d="M79.64158,100.39401 C79.39038,100.38649 79.108215,100.36207 78.910416,100.184845 C78.63345,99.936676 78.45528,99.19234 78.40356,98.892624 C78.29607,98.26973 78.18881,97.64409 78.15248,97.01305 C78.12415,96.521034 78.166626,96.026596 78.21028,95.53571 C78.28792,94.6626 78.32614,94.05339 78.522285,93.313705 L78.522285,93.313705" /><path fill="none" stroke="#248B00" stroke-width="0.06mm" d="M59.67468,96.64678 C59.73981,97.1613 59.839764,97.67261 59.870075,98.19035 C59.901512,98.72737 59.85105,99.266266 59.859512,99.80414 C59.86078,99.88451 59.8789,99.96422 59.899216,100.04199 C59.986786,100.37721 60.20302,100.67526 60.53015,100.807945 C60.62212,100.84525 60.714718,100.89412 60.81388,100.89821 C61.46661,100.92517 62.120476,100.89549 62.77374,100.90063 C62.89159,100.90156 63.01856,101.04076 63.0545,101.14055 C63.300255,101.822815 63.20085,102.364685 63.314236,103.18968 C63.34303,103.399185 63.42546,103.597885 63.471947,103.804184 C63.558453,104.1881 63.64281,104.5727 63.71311,104.959915 C63.816643,105.530174 63.6495,105.287964 63.87137,105.54773 L63.87137,105.54773" /><path fill="none" stroke="#248B00" stroke-width="0.06mm" d="M63.739212,105.34274 C63.835598,105.38235 63.92712,105.436905 64.028366,105.46155 C64.328445,105.5346 64.63138,105.602745 64.93855,105.63469 C65.60622,105.7041 66.47384,105.64207 67.12059,105.54545 C69.407585,105.20381 67.43332,105.39064 68.36744,105.30767 L68.36744,105.30767" /><path fill="none" stroke="#248B00" stroke-width="0.06mm" d="M81.90581,112.6197 C81.86966,112.67671 81.83033,112.73183 81.79737,112.79073 C81.781525,112.819046 81.75804,112.89736 81.75895,112.930466 C81.76555,113.16871 81.776505,113.40691 81.79347,113.644646 C81.79598,113.67978 81.81996,113.73491 81.84068,113.76577 C81.9305,113.89955 82.23927,114.018234 82.390045,114.034904 C83.01149,114.10363 83.494064,114.01439 84.159,113.98886 C84.39336,113.97986 84.68643,114.1477 84.85643,114.213776 L84.85643,114.213776" /><path fill="none" stroke="#248B00" stroke-width="0.06mm" d="M84.807884,114.44574 C85.02362,114.44686 85.1252,114.479675 85.24882,114.662285 C85.27244,114.69718 85.29889,114.73245 85.309326,114.77328 C85.45624,115.38942 85.60315,116.005554 85.75005,116.6217 C85.78782,116.90886 85.80173,117.20019 85.86336,117.48319 C85.933304,117.804405 86.08733,118.10487 86.14356,118.42878 C86.15722,118.50746 86.22004,119.236626 86.14365,119.51658 C86.06376,119.80933 86.03185,119.860176 85.927185,120.07492 L85.927185,120.07492" /><path fill="none" stroke="#248B00" stroke-width="0.06mm" d="M86.06204,119.71888 C86.03614,119.91297 86.024345,120.11899 86.13705,120.290726 C86.24422,120.454025 86.55864,120.60528 86.66762,120.65882 C87.42709,121.03191 89.21355,120.93943 89.44796,120.93858 C90.76296,120.93385 90.90424,120.88605 91.742134,120.69529 L91.742134,120.69529" /><path fill="none" stroke="#248B00" stroke-width="0.06mm" d="M87.896065,112.3149 L87.89373,112.30178" /><path fill="none" stroke="#248B00" stroke-width="0.06mm" d="M87.90955,112.15577 L87.89373,112.19389" /><path fill="none" stroke="#248B00" stroke-width="0.06mm" d="M87.79088,112.24478 C88.00785,112.50606 88.22134,112.84728 88.520454,113.04931 C88.67498,113.15368 88.84718,113.23147 88.9963,113.34343 C89.28426,113.58069 89.57222,113.81794 89.86018,114.05519 C89.993484,114.191124 90.111664,114.343765 90.2601,114.46298 C91.37848,115.36115 90.617714,114.61644 91.65667,115.38199 C91.821655,115.503555 91.95592,115.662506 92.114456,115.79236 C92.78111,116.3384 92.382774,115.804405 93.20535,116.85566 C93.94203,117.79713 93.72718,118.233406 93.921394,117.79844 L93.921394,117.79844" /><path fill="none" stroke="#248B00" stroke-width="0.06mm" d="M91.287285,120.91984 C91.21151,121.98509 91.151474,123.11501 91.46406,124.14902 C91.49961,124.26664 91.551186,124.37881 91.59476,124.493706 L91.59476,124.493706" /><path fill="none" stroke="#248B00" stroke-width="0.06mm" d="M91.438324,124.42628 C91.45871,124.49321 91.485085,124.5586 91.49947,124.62707 C91.51082,124.68104 91.514175,124.73664 91.51513,124.79179 C91.51956,125.048546 91.50757,125.30551 91.51562,125.56219 C91.5247,125.851654 91.70325,125.921974 91.96551,125.9254 C92.6265,125.93406 93.28773,125.95875 93.94859,125.94273 C94.8924,125.91987 95.83362,125.80244 96.77768,125.8088 C97.2144,125.81174 97.64323,125.927666 98.07784,125.970535 C98.375496,125.99989 98.674904,126.00721 98.97345,126.025375 C98.99603,126.02676 99.01877,126.0319 99.04123,126.029175 C99.15872,126.01489 99.27512,125.99273 99.392075,125.9745 L99.392075,125.9745" /><path fill="none" stroke="#248B00" stroke-width="0.06mm" d="M93.714676,117.834175 L93.71504,117.83184" /><path fill="none" stroke="#248B00" stroke-width="0.06mm" d="M93.72007,117.82878 C93.82909,117.8634 93.942924,117.88543 94.04711,117.932625 C94.85903,118.30042 95.3766,118.715805 96.15054,119.28301 C96.40871,119.47221 96.640114,119.6965 96.90035,119.882835 C97.209526,120.10422 97.56526,120.24062 97.829094,120.51584 C97.87962,120.56854 97.92107,120.62936 97.96383,120.68854 C98.62732,121.60694 98.618126,121.514946 98.97133,122.18216 L98.97133,122.18216" /><path fill="none" stroke="#248B00" stroke-width="0.06mm" d="M99.31656,126.133644 C99.62627,126.135635 99.914856,125.8951 100.22236,126.0084 C100.40166,126.07446 100.48956,126.32366 100.51009,126.49306 C100.568565,126.97548 100.557884,126.98718 100.54374,127.36899 L100.54374,127.36899" /><path fill="none" stroke="#248B00" stroke-width="0.06mm" d="M108.84237,136.96884 C107.648636,136.94798 106.45491,136.92712 105.26118,136.90628 C104.30694,136.92902 103.35272,136.99611 102.39846,136.97449 C102.06961,136.96704 101.748764,136.8711 101.42392,136.81938 L101.42392,136.81938" /><path fill="none" stroke="#248B00" stroke-width="0.06mm" d="M100.48572,127.079765 C100.97032,130.55884 101.1091,131.44379 101.584236,135.80066 C101.605385,135.99463 101.57129,136.19089 101.57597,136.38596 C101.57874,136.5018 101.596375,136.61679 101.60658,136.73221 L101.60658,136.73221" /><path fill="none" stroke="#248B00" stroke-width="0.06mm" d="M98.98293,122.13939 C99.20479,122.28082 99.42019,122.43293 99.648506,122.56368 C99.86574,122.68808 100.507744,122.82724 100.60899,122.84047 C101.50206,122.957085 102.405045,122.98848 103.29749,123.10978 C104.56179,123.281624 104.00105,123.4347 104.84047,123.297676 L104.84047,123.297676" /><path fill="none" stroke="#248B00" stroke-width="0.06mm" d="M104.89444,123.517715 C105.30636,123.25646 105.40638,123.13985 105.61176,122.657326 C105.677795,122.502174 105.731445,122.340515 105.765144,122.1753 C105.85189,121.74997 105.83094,121.48277 105.86624,121.06838 C105.87193,121.00152 105.92932,120.813675 105.94058,120.773506 L105.94058,120.773506" /><path fill="none" stroke="#248B00" stroke-width="0.06mm" stroke-dasharray="0.3mm,0.1mm" d="M114.10627,125.11192 C114.02192,124.52953 113.88163,123.952545 113.85323,123.36478 C113.40801,114.14932 114.82436,129.09454 113.564224,114.32967 C113.53166,113.94812 113.4093,113.576065 113.27155,113.21876 C112.784645,111.95572 112.963196,112.160614 112.3461,111.68154 L112.3461,111.68154" /><path fill="none" stroke="#248B00" stroke-width="0.06mm" stroke-dasharray="0.3mm,0.1mm" d="M106.01945,120.60745 C106.42116,118.21211 106.24266,118.50746 107.3835,115.91178 C107.623405,115.365944 108.2725,113.8472 108.92734,113.13075 C109.20888,112.82273 109.67231,112.534805 110.01761,112.3622 C110.38443,112.178825 110.769394,112.033875 111.15047,111.88232 C111.21794,111.85548 111.28964,111.83912 111.36137,111.827736 C111.45905,111.81224 111.558426,111.81055 111.656975,111.80195 L111.656975,111.80195" /><path fill="none" stroke="#248B00" stroke-width="0.06mm" d="M114.276474,125.04134 C114.30289,125.39439 114.32931,125.74744 114.355736,126.10047 C114.376015,126.32907 114.413956,126.556786 114.41657,126.78626 C114.423935,127.43135 114.36096,128.07675 114.38565,128.72142 C114.39703,129.01837 114.45617,129.31284 114.52444,129.60205 C114.88156,131.11511 114.81896,130.90979 115.20637,131.82501 L115.20637,131.82501" /><path fill="none" stroke="#248B00" stroke-width="0.06mm" d="M115.26865,131.47214 C115.480034,131.57217 115.70079,131.65445 115.902824,131.77222 C116.22233,131.95847 116.51589,132.18631 116.829636,132.3821 C117.64812,132.89285 118.49507,133.35843 119.29911,133.89163 C120.323296,134.71667 119.87747,134.40424 120.59897,134.88058 L120.59897,134.88058" /><path fill="none" stroke="#248B00" stroke-width="0.06mm" d="M108.584984,137.06433 C109.100845,137.0936 110.39618,136.81516 110.944374,137.24957 C111.17955,137.43594 111.31758,137.67746 111.40942,137.96375 C111.47952,138.18231 111.549194,138.40353 111.57915,138.6311 C111.73221,139.79407 111.56109,139.94846 111.611465,141.22662 C111.74719,144.67076 111.58518,143.85468 111.92681,145.4007 L111.92681,145.4007" /><path fill="none" stroke="#248B00" stroke-width="0.06mm" d="M111.63879,145.39578 C111.64665,146.33417 111.588005,147.27547 111.662384,148.2109 C111.70313,148.72346 111.86525,149.21921 111.98258,149.71982 C112.01778,149.86998 112.06859,150.26855 112.25115,150.42596 C112.48521,150.62775 113.10466,150.63583 113.27853,150.64034 C114.09372,150.6614 115.902664,150.18694 116.24524,150.14337 C117.33412,150.00488 118.13048,150.19295 119.22223,150.26334 C119.42042,150.27611 119.61946,150.25409 119.81801,150.25836 C120.400856,150.27087 120.34872,150.37543 120.738525,150.03311 L120.738525,150.03311" /><path fill="none" stroke="#248B00" stroke-width="0.06mm" d="M120.47284,134.68887 C120.60714,134.76102 121.17357,135.00507 121.387245,135.2273 C121.74466,135.59898 121.905014,136.0607 122.17954,136.50992 C122.25025,136.62564 122.35333,136.71945 122.42343,136.83554 C122.57993,137.09473 122.650116,137.3692 122.70049,137.66702 C122.81313,138.33302 122.567535,139.45435 122.54208,139.8638 C122.530685,140.0472 122.56996,140.23022 122.58303,140.41351 C122.59511,140.58282 122.74265,141.7161 122.66404,142.22217 C122.65138,142.30365 122.620224,142.38113 122.59833,142.46063 L122.59833,142.46063" /><path fill="none" stroke="#248B00" stroke-width="0.06mm" d="M120.22376,118.053474 L120.054115,118.17858" /><path fill="none" stroke="#248B00" stroke-width="0.06mm" d="M120.48115,117.85005 L120.11583,118.248604" /><path fill="none" stroke="#248B00" stroke-width="0.06mm" d="M111.14617,138.9415 C111.41703,138.60042 111.25415,138.78482 111.65155,138.40454 L111.65155,138.40454" /></g>
<g>
<line fill="none" stroke="#111111" stroke-width="0.04mm" x1="20.00" y1="41.00" x2="29.29" y2="37.21" />
<line fill="none" stroke="#00aeef" stroke-width="0.04mm" stroke-dasharray="0.4,0.2" x1="29.29" y1="37.21" x2="38.57" y2="33.40" />
<line fill="none" stroke="#111111" stroke-width="0.04mm" x1="29.29" y1="37.21" x2="32.32" y2="36.84" />
<line fill="none" stroke="#00aeef" stroke-width="0.04mm" stroke-dasharray="0.4,0.2" x1="32.32" y1="36.84" x2="31.83" y2="36.96" />
<line fill="none" stroke="#00aeef" stroke-width="0.04mm" stroke-dasharray="0.4,0.2" x1="32.32" y1="36.84" x2="32.02" y2="31.65" />
<line fill="none" stroke="#00aeef" stroke-width="0.04mm" stroke-dasharray="0.4,0.2" x1="32.32" y1="36.84" x2="34.18" y2="19.56" />
<line fill="none" stroke="#00aeef" stroke-width="0.04mm" stroke-dasharray="0.4,0.2" x1="32.32" y1="36.84" x2="31.97" y2="39.37" />
<line fill="none" stroke="#111111" stroke-width="0.04mm" x1="32.32" y1="36.84" x2="35.68" y2="38.52" />
<line fill="none" stroke="#111111" stroke-width="0.04mm" x1="35.68" y1="38.52" x2="43.69" y2="55.17" />
<line fill="none" stroke="#00aeef" stroke-width="0.04mm" stroke-dasharray="0.4,0.2" x1="43.69" y1="55.17" x2="49.98" y2="56.70" />
<line fill="none" stroke="#00aeef" stroke-width="0.04mm" stroke-dasharray="0.4,0.2" x1="43.69" y1="55.17" x2="41.55" y2="40.34" />
<line fill="none" stroke="#111111" stroke-width="0.04mm" x1="43.69" y1="55.17" x2="51.51" y2="55.52" />
<line fill="none" stroke="#5674b9" stroke-width="0.04mm" stroke-dasharray="0.4,0.2" x1="51.51" y1="55.52" x2="50.34" y2="55.89" />
<line fill="none" stroke="#5674b9" stroke-width="0.04mm" stroke-dasharray="0.4,0.2" x1="51.51" y1="55.52" x2="52.43" y2="62.17" />
<line fill="none" stroke="#5674b9" stroke-width="0.04mm" stroke-dasharray="0.4,0.2" x1="51.51" y1="55.52" x2="51.10" y2="37.26" />
<line fill="none" stroke="#111111" stroke-width="0.04mm" x1="51.51" y1="55.52" x2="60.29" y2="60.22" />
<line fill="none" stroke="#00aeef" stroke-width="0.04mm" stroke-dasharray="0.4,0.2" x1="60.29" y1="60.22" x2="59.89" y2="60.29" />
<line fill="none" stroke="#5674b9" stroke-width="0.04mm" stroke-dasharray="0.4,0.2" x1="60.29" y1="60.22" x2="60.83" y2="60.25" />
<line fill="none" stroke="#00aeef" stroke-width="0.04mm" stroke-dasharray="0.4,0.2" x1="60.29" y1="60.22" x2="59.97" y2="63.06" />
<line fill="none" stroke="#111111" stroke-width="0.04mm" x1="60.29" y1="60.22" x2="66.58" y2="60.06" />
<line fill="none" stroke="#111111" stroke-width="0.04mm" x1="43.69" y1="55.17" x2="47.49" y2="70.47" />
<line fill="none" stroke="#5674b9" stroke-width="0.04mm" stroke-dasharray="0.4,0.2" x1="47.49" y1="70.47" x2="45.08" y2="79.16" />
<line fill="none" stroke="#5674b9" stroke-width="0.04mm" stroke-dasharray="0.4,0.2" x1="47.49" y1="70.47" x2="39.82" y2="71.88" />
<line fill="none" stroke="#5674b9" stroke-width="0.04mm" stroke-dasharray="0.4,0.2" x1="47.49" y1="70.47" x2="50.10" y2="70.19" />
<line fill="none" stroke="#00aeef" stroke-width="0.04mm" stroke-dasharray="0.4,0.2" x1="47.49" y1="70.47" x2="46.53" y2="69.26" />
<line fill="none" stroke="#111111" stroke-width="0.04mm" x1="47.49" y1="70.47" x2="55.27" y2="71.60" />
<line fill="none" stroke="#00aeef" stroke-width="0.04mm" stroke-dasharray="0.4,0.2" x1="55.27" y1="71.60" x2="54.98" y2="71.97" />
<line fill="none" stroke="#00aeef" stroke-width="0.04mm" stroke-dasharray="0.4,0.2" x1="55.27" y1="71.60" x2="54.37" y2="76.93" />
<line fill="none" stroke="#00aeef" stroke-width="0.04mm" stroke-dasharray="0.4,0.2" x1="55.27" y1="71.60" x2="58.98" y2="63.92" />
<line fill="none" stroke="#00aeef" stroke-width="0.04mm" stroke-dasharray="0.4,0.2" x1="55.27" y1="71.60" x2="68.08" y2="71.59" />
<line fill="none" stroke="#111111" stroke-width="0.04mm" x1="55.27" y1="71.60" x2="61.64" y2="78.04" />
<line fill="none" stroke="#00aeef" stroke-width="0.04mm" stroke-dasharray="0.4,0.2" x1="61.64" y1="78.04" x2="62.06" y2="78.19" />
<line fill="none" stroke="#00aeef" stroke-width="0.04mm" stroke-dasharray="0.4,0.2" x1="61.64" y1="78.04" x2="66.95" y2="79.97" />
<line fill="none" stroke="#5674b9" stroke-width="0.04mm" stroke-dasharray="0.4,0.2" x1="61.64" y1="78.04" x2="77.97" y2="85.12" />
<line fill="none" stroke="#5674b9" stroke-width="0.04mm" stroke-dasharray="0.4,0.2" x1="61.64" y1="78.04" x2="64.36" y2="84.82" />
<line fill="none" stroke="#111111" stroke-width="0.04mm" x1="61.64" y1="78.04" x2="65.35" y2="98.38" />
<line fill="none" stroke="#00aeef" stroke-width="0.04mm" stroke-dasharray="0.4,0.2" x1="65.35" y1="98.38" x2="60.43" y2="96.38" />
<line fill="none" stroke="#00aeef" stroke-width="0.04mm" stroke-dasharray="0.4,0.2" x1="65.35" y1="98.38" x2="63.34" y2="100.64" />
<line fill="none" stroke="#00aeef" stroke-width="0.04mm" stroke-dasharray="0.4,0.2" x1="65.35" y1="98.38" x2="58.69" y2="104.71" />
<line fill="none" stroke="#00aeef" stroke-width="0.04mm" stroke-dasharray="0.4,0.2" x1="65.35" y1="98.38" x2="62.84" y2="101.21" />
<line fill="none" stroke="#111111" stroke-width="0.04mm" x1="65.35" y1="98.38" x2="79.30" y2="101.72" />
<line fill="none" stroke="#00aeef" stroke-width="0.04mm" stroke-dasharray="0.4,0.2" x1="79.30" y1="101.72" x2="74.54" y2="103.36" />
<line fill="none" stroke="#111111" stroke-width="0.04mm" x1="79.30" y1="101.72" x2="81.93" y2="102.11" />
<line fill="none" stroke="#00aeef" stroke-width="0.04mm" stroke-dasharray="0.4,0.2" x1="81.93" y1="102.11" x2="82.69" y2="109.29" />
<line fill="none" stroke="#5674b9" stroke-width="0.04mm" stroke-dasharray="0.4,0.2" x1="81.93" y1="102.11" x2="81.00" y2="102.71" />
<line fill="none" stroke="#111111" stroke-width="0.04mm" x1="81.93" y1="102.11" x2="85.18" y2="112.69" />
<line fill="none" stroke="#5674b9" stroke-width="0.04mm" stroke-dasharray="0.4,0.2" x1="85.18" y1="112.69" x2="88.85" y2="114.97" />
<line fill="none" stroke="#111111" stroke-width="0.04mm" x1="85.18" y1="112.69" x2="92.20" y2="119.84" />
<line fill="none" stroke="#111111" stroke-width="0.04mm" x1="92.20" y1="119.84" x2="98.48" y2="124.56" />
<line fill="none" stroke="#111111" stroke-width="0.04mm" x1="98.48" y1="124.56" x2="104.54" y2="125.57" />
<line fill="none" stroke="#111111" stroke-width="0.04mm" x1="104.54" y1="125.57" x2="108.75" y2="134.67" />
<line fill="none" stroke="#111111" stroke-width="0.04mm" x1="108.75" y1="134.67" x2="114.28" y2="135.63" />
<line fill="none" stroke="#111111" stroke-width="0.04mm" x1="114.28" y1="135.63" x2="119.61" y2="149.21" />
<line fill="none" stroke="#111111" stroke-width="0.04mm" x1="119.61" y1="149.21" x2="127.58" y2="149.48" />
<line fill="none" stroke="#111111" stroke-width="0.04mm" x1="127.58" y1="149.48" x2="133.74" y2="152.01" />
<line fill="none" stroke="#5674b9" stroke-width="0.04mm" stroke-dasharray="0.4,0.2" x1="133.74" y1="152.01" x2="133.36" y2="152.02" />
<line fill="none" stroke="#5674b9" stroke-width="0.04mm" stroke-dasharray="0.4,0.2" x1="133.74" y1="152.01" x2="134.07" y2="156.22" />
<line fill="none" stroke="#5674b9" stroke-width="0.04mm" stroke-dasharray="0.4,0.2" x1="133.74" y1="152.01" x2="133.72" y2="150.01" />
<line fill="none" stroke="#111111" stroke-width="0.04mm" x1="133.74" y1="152.01" x2="135.24" y2="152.16" />
<line fill="none" stroke="#00aeef" stroke-width="0.04mm" stroke-dasharray="0.4,0.2" x1="135.24" y1="152.16" x2="135.88" y2="153.93" />
<line fill="none" stroke="#00aeef" stroke-width="0.04mm" stroke-dasharray="0.4,0.2" x1="135.24" y1="152.16" x2="135.87" y2="153.92" />
<line fill="none" stroke="#00aeef" stroke-width="0.04mm" stroke-dasharray="0.4,0.2" x1="135.24" y1="152.16" x2="135.88" y2="153.94" />
<line fill="none" stroke="#111111" stroke-width="0.04mm" x1="135.24" y1="152.16" x2="142.27" y2="155.81" />
<line fill="none" stroke="#5674b9" stroke-width="0.04mm" stroke-dasharray="0.4,0.2" x1="142.27" y1="155.81" x2="142.23" y2="153.67" />
<line fill="none" stroke="#5674b9" stroke-width="0.04mm" stroke-dasharray="0.4,0.2" x1="142.27" y1="155.81" x2="142.50" y2="157.98" />
<line fill="none" stroke="#5674b9" stroke-width="0.04mm" stroke-dasharray="0.4,0.2" x1="142.27" y1="155.81" x2="141.52" y2="155.88" />
<line fill="none" stroke="#111111" stroke-width="0.04mm" x1="142.27" y1="155.81" x2="144.56" y2="155.83" />
<line fill="none" stroke="#00aeef" stroke-width="0.04mm" stroke-dasharray="0.4,0.2" x1="144.56" y1="155.83" x2="143.79" y2="155.99" />
<line fill="none" stroke="#111111" stroke-width="0.04mm" x1="47.49" y1="70.47" x2="51.76" y2="66.16" />
<line fill="none" stroke="#111111" stroke-width="0.04mm" x1="51.76" y1="66.16" x2="56.27" y2="66.39" />
<line fill="none" stroke="#111111" stroke-width="0.04mm" x1="56.27" y1="66.39" x2="66.32" y2="71.53" />
<line fill="none" stroke="#111111" stroke-width="0.04mm" x1="56.27" y1="66.39" x2="59.77" y2="69.08" />
<line fill="none" stroke="#00aeef" stroke-width="0.04mm" stroke-dasharray="0.4,0.2" x1="59.77" y1="69.08" x2="59.42" y2="69.13" />
<line fill="none" stroke="#5674b9" stroke-width="0.04mm" stroke-dasharray="0.4,0.2" x1="59.77" y1="69.08" x2="60.28" y2="73.25" />
<line fill="none" stroke="#00aeef" stroke-width="0.04mm" stroke-dasharray="0.4,0.2" x1="59.77" y1="69.08" x2="59.82" y2="64.41" />
<line fill="none" stroke="#111111" stroke-width="0.04mm" x1="59.77" y1="69.08" x2="63.71" y2="71.75" />
<line fill="none" stroke="#111111" stroke-width="0.04mm" x1="63.71" y1="71.75" x2="66.39" y2="71.66" />
<line fill="none" stroke="#00aeef" stroke-width="0.04mm" stroke-dasharray="0.4,0.2" x1="66.39" y1="71.66" x2="66.36" y2="71.65" />
<line fill="none" stroke="#00aeef" stroke-width="0.04mm" stroke-dasharray="0.4,0.2" x1="66.39" y1="71.66" x2="73.20" y2="101.75" />
<line fill="none" stroke="#00aeef" stroke-width="0.04mm" stroke-dasharray="0.4,0.2" x1="66.39" y1="71.66" x2="69.44" y2="64.66" />
</g>
<g>
<circle cx="20.00" cy="41.00" r="0.1" fill="#111111" />
<circle cx="29.29" cy="37.21" r="0.1" fill="#111111" />
<circle cx="32.32" cy="36.84" r="0.1" fill="#111111" />
<circle cx="35.68" cy="38.52" r="0.1" fill="#111111" />
<circle cx="43.69" cy="55.17" r="0.1" fill="#111111" />
<circle cx="51.51" cy="55.52" r="0.1" fill="#111111" />
<circle cx="60.29" cy="60.22" r="0.1" fill="#111111" />
<circle cx="66.58" cy="60.06" r="0.1" fill="#111111" />
<circle cx="47.49" cy="70.47" r="0.1" fill="#111111" />
<circle cx="55.27" cy="71.60" r="0.1" fill="#111111" />
<circle cx="61.64" cy="78.04" r="0.1" fill="#111111" />
<circle cx="65.35" cy="98.38" r="0.1" fill="#111111" />
<circle cx="79.30" cy="101.72" r="0.1" fill="#111111" />
<circle cx="81.93" cy="102.11" r="0.1" fill="#111111" />
<circle cx="85.18" cy="112.69" r="0.1" fill="#111111" />
<circle cx="92.20" cy="119.84" r="0.1" fill="#111111" />
<circle cx="98.48" cy="124.56" r="0.1" fill="#111111" />
<circle cx="104.54" cy="125.57" r="0.1" fill="#111111" />
<circle cx="108.75" cy="134.67" r="0.1" fill="#111111" />
<circle cx="114.28" cy="135.63" r="0.1" fill="#111111" />
<circle cx="119.61" cy="149.21" r="0.1" fill="#111111" />
<circle cx="127.58" cy="149.48" r="0.1" fill="#111111" />
<circle cx="133.74" cy="152.01" r="0.1" fill="#111111" />
<circle cx="135.24" cy="152.16" r="0.1" fill="#111111" />
<circle cx="142.27" cy="155.81" r="0.1" fill="#111111" />
<circle cx="144.56" cy="155.83" r="0.1" fill="#111111" />
<circle cx="51.76" cy="66.16" r="0.1" fill="#111111" />
<circle cx="56.27" cy="66.39" r="0.1" fill="#111111" />
<circle cx="66.32" cy="71.53" r="0.1" fill="#111111" />
<circle cx="59.77" cy="69.08" r="0.1" fill="#111111" />
<circle cx="63.71" cy="71.75" r="0.1" fill="#111111" />
<circle cx="66.39" cy="71.66" r="0.1" fill="#111111" />
</g>
<g>
<text x="20.20" y="41.00" font-size=".2mm" fill="#000000">0</text>
<text x="29.49" y="37.21" font-size=".2mm" fill="#000000">1</text>
<text x="32.52" y="36.84" font-size=".2mm" fill="#000000">2</text>
<text x="35.88" y="38.52" font-size=".2mm" fill="#000000">3</text>
<text x="43.89" y="55.17" font-size=".2mm" fill="#000000">4</text>
<text x="51.71" y="55.52" font-size=".2mm" fill="#000000">5</text>
<text x="60.49" y="60.22" font-size=".2mm" fill="#000000">6</text>
<text x="66.78" y="60.06" font-size=".2mm" fill="#000000">7</text>
<text x="47.69" y="70.47" font-size=".2mm" fill="#000000">4.1</text>
<text x="55.47" y="71.60" font-size=".2mm" fill="#000000">4.2</text>
<text x="61.84" y="78.04" font-size=".2mm" fill="#000000">4.3</text>
<text x="65.55" y="98.38" font-size=".2mm" fill="#000000">4.4</text>
<text x="79.50" y="101.72" font-size=".2mm" fill="#000000">4.5</text>
<text x="82.13" y="102.11" font-size=".2mm" fill="#000000">4.6</text>
<text x="85.38" y="112.69" font-size=".2mm" fill="#000000">4.7</text>
<text x="92.40" y="119.84" font-size=".2mm" fill="#000000">4.8</text>
<text x="98.68" y="124.56" font-size=".2mm" fill="#000000">4.9</text>
<text x="104.74" y="125.57" font-size=".2mm" fill="#000000">4.10</text>
<text x="108.95" y="134.67" font-size=".2mm" fill="#000000">4.11</text>
<text x="114.48" y="135.63" font-size=".2mm" fill="#000000">4.12</text>
<text x="119.81" y="149.21" font-size=".2mm" fill="#000000">4.13</text>
<text x="127.78" y="149.48" font-size=".2mm" fill="#000000">4.14</text>
<text x="133.94" y="152.01" font-size=".2mm" fill="#000000">4.15</text>
<text x="135.44" y="152.16" font-size=".2mm" fill="#000000">4.16</text>
<text x="142.47" y="155.81" font-size=".2mm" fill="#000000">4.17</text>
<text x="144.76" y="155.83" font-size=".2mm" fill="#000000">4.18</text>
<text x="51.96" y="66.16" font-size=".2mm" fill="#000000">4.1.1</text>
<text x="56.47" y="66.39" font-size=".2mm" fill="#000000">4.1.2</text>
<text x="66.52" y="71.53" font-size=".2mm" fill="#000000">4.1.3</text>
<text x="59.97" y="69.08" font-size=".2mm" fill="#000000">4.1.2.1</text>
<text x="63.91" y="71.75" font-size=".2mm" fill="#000000">4.1.2.2</text>
<text x="66.59" y="71.66" font-size=".2mm" fill="#000000">4.1.2.3</text>
</g>
<g>
</g>
</g>
</svg>