  999
DXF created by TopoDroid v. 3.1.4
  0
SECTION
  2
HEADER
  9
$ACADVER
  1
AC1009
  9
$INSBASE
  10
0.00
  20
0.00
  30
0.00
  9
$EXTMIN
  10
-16.27
  20
-150.76
  30
0.00
  9
$EXTMAX
  10
219.74
  20
-57.11
  30
0.00
  0
ENDSEC
  0
SECTION
  2
TABLES
  0
TABLE
  2
LTYPE
  70
1
  0
LTYPE
  2
CONTINUOUS
  70
64
  3
Solid line
  72
65
  73
0
  40
0.0
  0
ENDTAB
  0
TABLE
  2
LAYER
  70
36
  0
LAYER
  2
LEG
  70
0
  62
1
  6
CONTINUOUS
  0
LAYER
  2
SPLAY
  70
0
  62
2
  6
CONTINUOUS
  0
LAYER
  2
STATION
  70
0
  62
3
  6
CONTINUOUS
  0
LAYER
  2
LINE
  70
0
  62
4
  6
CONTINUOUS
  0
LAYER
  2
POINT
  70
0
  62
5
  6
CONTINUOUS
  0
LAYER
  2
REF
  70
0
  62
6
  6
CONTINUOUS
  0
LAYER
  2
L_u-user
  70
0
  62
7
  6
CONTINUOUS
  0
LAYER
  2
L_wall
  70
0
  62
8
  6
CONTINUOUS
  0
LAYER
  2
L_arrow
  70
0
  62
9
  6
CONTINUOUS
  0
LAYER
  2
L_border
  70
0
  62
10
  6
CONTINUOUS
  0
LAYER
  2
L_ceiling-meander
  70
0
  62
11
  6
CONTINUOUS
  0
LAYER
  2
L_chimney
  70
0
  62
12
  6
CONTINUOUS
  0
LAYER
  2
L_contour
  70
0
  62
13
  6
CONTINUOUS
  0
LAYER
  2
L_fault
  70
0
  62
14
  6
CONTINUOUS
  0
LAYER
  2
L_floor-meander
  70
0
  62
15
  6
CONTINUOUS
  0
LAYER
  2
L_overhang
  70
0
  62
16
  6
CONTINUOUS
  0
LAYER
  2
L_pit
  70
0
  62
17
  6
CONTINUOUS
  0
LAYER
  2
L_wall-presumed
  70
0
  62
18
  6
CONTINUOUS
  0
LAYER
  2
L_rock-border
  70
0
  62
19
  6
CONTINUOUS
  0
LAYER
  2
L_section
  70
0
  62
20
  6
CONTINUOUS
  0
LAYER
  2
L_slope
  70
0
  62
21
  6
CONTINUOUS
  0
LAYER
  2
L_wall-blocks
  70
0
  62
22
  6
CONTINUOUS
  0
LAYER
  2
L_wall-clay
  70
0
  62
23
  6
CONTINUOUS
  0
LAYER
  2
L_wall-debris
  70
0
  62
24
  6
CONTINUOUS
  0
LAYER
  2
L_wall-ice
  70
0
  62
25
  6
CONTINUOUS
  0
LAYER
  2
L_wall-sand
  70
0
  62
26
  6
CONTINUOUS
  0
LAYER
  2
L_water-flow
  70
0
  62
27
  6
CONTINUOUS
  0
LAYER
  2
A_u-user
  70
0
  62
28
  6
CONTINUOUS
  0
LAYER
  2
A_water
  70
0
  62
29
  6
CONTINUOUS
  0
LAYER
  2
A_blocks
  70
0
  62
30
  6
CONTINUOUS
  0
LAYER
  2
A_clay
  70
0
  62
31
  6
CONTINUOUS
  0
LAYER
  2
A_debris
  70
0
  62
32
  6
CONTINUOUS
  0
LAYER
  2
A_ice
  70
0
  62
33
  6
CONTINUOUS
  0
LAYER
  2
A_pebbles
  70
0
  62
34
  6
CONTINUOUS
  0
LAYER
  2
A_sand
  70
0
  62
35
  6
CONTINUOUS
  0
LAYER
  2
A_snow
  70
0
  62
36
  6
CONTINUOUS
  0
ENDTAB
  0
TABLE
  2
VIEW
  70
0
  0
ENDTAB
  0
TABLE
  2
UCS
  70
0
  0
ENDTAB
  0
TABLE
  2
APPID
  70
1
  0
APPID
  2
ACAD
  70
0
  0
ENDTAB
  0
ENDSEC
  0
SECTION
  2
BLOCKS
  0
BLOCK
  8
POINT
  2
P_u-user
  70
64
  10
0.0
  20
0.0
  30
0.0
  0
CIRCLE
  8
POINT
  10
0.00
  20
-0.00
  30
0.00
  40
0.30
  0
ENDBLK
  0
BLOCK
  8
POINT
  2
P_label
  70
64
  10
0.0
  20
0.0
  30
0.0
  0
LINE
  8
POINT
  10
0.00
  20
-0.15
  30
0.00
  11
0.00
  21
0.30
  31
0.00
  0
LINE
  8
POINT
  10
0.00
  20
0.30
  30
0.00
  11
-0.15
  21
0.30
  31
0.00
  0
LINE
  8
POINT
  10
-0.15
  20
0.30
  30
0.00
  11
0.15
  21
0.30
  31
0.00
  0
ENDBLK
  0
BLOCK
  8
POINT
  2
P_air-draught
  70
64
  10
0.0
  20
0.0
  30
0.0
  0
LINE
  8
POINT
  10
-0.20
  20
-0.35
  30
0.00
  11
0.00
  21
-0.15
  31
0.00
  0
LINE
  8
POINT
  10
0.00
  20
-0.15
  30
0.00
  11
0.00
  21
0.50
  31
0.00
  0
LINE
  8
POINT
  10
0.00
  20
0.50
  30
0.00
  11
0.20
  21
0.30
  31
0.00
  0
LINE
  8
POINT
  10
0.00
  20
0.50
  30
0.00
  11
-0.20
  21
0.30
  31
0.00
  0
LINE
  8
POINT
  10
-0.20
  20
-0.20
  30
0.00
  11
0.00
  21
-0.00
  31
0.00
  0
ENDBLK
  0
BLOCK
  8
POINT
  2
P_anchor
  70
64
  10
0.0
  20
0.0
  30
0.0
  0
LINE
  8
POINT
  10
0.25
  20
-0.00
  30
0.00
  11
-0.25
  21
-0.00
  31
0.00
  0
CIRCLE
  8
POINT
  10
0.00
  20
-0.00
  30
0.00
  40
0.25
  0
ENDBLK
  0
BLOCK
  8
POINT
  2
P_aragonite
  70
64
  10
0.0
  20
0.0
  30
0.0
  0
LINE
  8
POINT
  10
0.00
  20
0.25
  30
0.00
  11
0.00
  21
-0.35
  31
0.00
  0
LINE
  8
POINT
  10
-0.10
  20
0.35
  30
0.00
  11
0.00
  21
0.25
  31
0.00
  0
LINE
  8
POINT
  10
0.00
  20
0.25
  30
0.00
  11
0.10
  21
0.35
  31
0.00
  0
LINE
  8
POINT
  10
-0.15
  20
0.20
  30
0.00
  11
0.00
  21
0.05
  31
0.00
  0
LINE
  8
POINT
  10
0.00
  20
0.05
  30
0.00
  11
0.15
  21
0.20
  31
0.00
  0
ENDBLK
  0
BLOCK
  8
POINT
  2
P_archeo-material
  70
64
  10
0.0
  20
0.0
  30
0.0
  0
LINE
  8
POINT
  10
-0.17
  20
-0.17
  30
0.00
  11
0.00
  21
-0.00
  31
0.00
  0
LINE
  8
POINT
  10
-0.17
  20
0.17
  30
0.00
  11
0.00
  21
-0.00
  31
0.00
  0
LINE
  8
POINT
  10
0.00
  20
-0.00
  30
0.00
  11
0.25
  21
-0.00
  31
0.00
  0
CIRCLE
  8
POINT
  10
0.00
  20
-0.00
  30
0.00
  40
0.25
  0
ENDBLK
  0
BLOCK
  8
POINT
  2
P_blocks
  70
64
  10
0.0
  20
0.0
  30
0.0
  0
LINE
  8
POINT
  10
-0.35
  20
-0.20
  30
0.00
  11
0.40
  21
-0.25
  31
0.00
  0
LINE
  8
POINT
  10
0.40
  20
-0.25
  30
0.00
  11
0.35
  21
0.25
  31
0.00
  0
LINE
  8
POINT
  10
0.35
  20
0.25
  30
0.00
  11
-0.25
  21
0.30
  31
0.00
  0
LINE
  8
POINT
  10
-0.25
  20
0.30
  30
0.00
  11
-0.35
  21
0.20
  31
0.00
  0
LINE
  8
POINT
  10
-0.35
  20
0.20
  30
0.00
  11
-0.35
  21
-0.20
  31
0.00
  0
LINE
  8
POINT
  10
-0.35
  20
-0.20
  30
0.00
  11
-0.30
  21
-0.10
  31
0.00
  0
LINE
  8
POINT
  10
-0.30
  20
-0.10
  30
0.00
  11
-0.25
  21
0.10
  31
0.00
  0
LINE
  8
POINT
  10
-0.25
  20
0.10
  30
0.00
  11
-0.20
  21
0.20
  31
0.00
  0
LINE
  8
POINT
  10
-0.20
  20
0.20
  30
0.00
  11
0.25
  21
0.15
  31
0.00
  0
LINE
  8
POINT
  10
0.25
  20
0.15
  30
0.00
  11
0.35
  21
0.25
  31
0.00
  0
LINE
  8
POINT
  10
-0.20
  20
0.20
  30
0.00
  11
-0.25
  21
0.30
  31
0.00
  0
ENDBLK
  0
BLOCK
  8
POINT
  2
P_breakdown-choke
  70
64
  10
0.0
  20
0.0
  30
0.0
  0
LINE
  8
POINT
  10
-0.20
  20
-0.20
  30
0.00
  11
0.20
  21
0.20
  31
0.00
  0
LINE
  8
POINT
  10
-0.20
  20
0.20
  30
0.00
  11
0.20
  21
-0.20
  31
0.00
  0
ENDBLK
  0
BLOCK
  8
POINT
  2
P_clay
  70
64
  10
0.0
  20
0.0
  30
0.0
  0
ARC
  8
POINT
  10
-0.15
  20
-0.00
  30
0.00
  40
0.15
  50
90.00
  51
180.00
  0
ARC
  8
POINT
  10
-0.15
  20
-0.00
  30
0.00
  40
0.15
  50
0.00
  51
90.00
  0
ARC
  8
POINT
  10
0.15
  20
-0.00
  30
0.00
  40
0.15
  50
180.00
  51
270.00
  0
ARC
  8
POINT
  10
0.15
  20
-0.00
  30
0.00
  40
0.15
  50
270.00
  51
360.00
  0
ENDBLK
  0
BLOCK
  8
POINT
  2
P_continuation
  70
64
  10
0.0
  20
0.0
  30
0.0
  0
LINE
  8
POINT
  10
0.00
  20
-0.15
  30
0.00
  11
0.00
  21
-0.00
  31
0.00
  0
ARC
  8
POINT
  10
0.10
  20
-0.00
  30
0.00
  40
0.10
  50
90.00
  51
180.00
  0
ARC
  8
POINT
  10
0.00
  20
0.15
  30
0.00
  40
0.10
  50
0.00
  51
90.00
  0
ARC
  8
POINT
  10
-0.15
  20
0.30
  30
0.00
  40
0.15
  50
270.00
  51
360.00
  0
LINE
  8
POINT
  10
0.00
  20
-0.35
  30
0.00
  11
0.00
  21
-0.25
  31
0.00
  0
ENDBLK
  0
BLOCK
  8
POINT
  2
P_crystal
  70
64
  10
0.0
  20
0.0
  30
0.0
  0
LINE
  8
POINT
  10
-0.25
  20
-0.00
  30
0.00
  11
0.25
  21
-0.00
  31
0.00
  0
LINE
  8
POINT
  10
0.00
  20
0.25
  30
0.00
  11
0.00
  21
-0.25
  31
0.00
  0
LINE
  8
POINT
  10
0.00
  20
-0.25
  30
0.00
  11
0.25
  21
-0.00
  31
0.00
  0
LINE
  8
POINT
  10
0.25
  20
-0.00
  30
0.00
  11
0.00
  21
0.25
  31
0.00
  0
LINE
  8
POINT
  10
0.00
  20
0.25
  30
0.00
  11
-0.25
  21
-0.00
  31
0.00
  0
LINE
  8
POINT
  10
-0.25
  20
-0.00
  30
0.00
  11
0.00
  21
-0.25
  31
0.00
  0
ENDBLK
  0
BLOCK
  8
POINT
  2
P_curtain
  70
64
  10
0.0
  20
0.0
  30
0.0
  0
LINE
  8
POINT
  10
-0.20
  20
0.20
  30
0.00
  11
0.00
  21
-0.00
  31
0.00
  0
LINE
  8
POINT
  10
0.00
  20
-0.00
  30
0.00
  11
0.20
  21
0.20
  31
0.00
  0
LINE
  8
POINT
  10
0.00
  20
-0.00
  30
0.00
  11
0.00
  21
-0.10
  31
0.00
  0
ARC
  8
POINT
  10
0.00
  20
-0.20
  30
0.00
  40
0.10
  50
90.00
  51
180.00
  0
ARC
  8
POINT
  10
0.00
  20
-0.20
  30
0.00
  40
0.10
  50
180.00
  51
270.00
  0
LINE
  8
POINT
  10
0.00
  20
-0.30
  30
0.00
  11
0.00
  21
-0.40
  31
0.00
  0
ENDBLK
  0
BLOCK
  8
POINT
  2
P_u-danger
  70
64
  10
0.0
  20
0.0
  30
0.0
  0
LINE
  8
POINT
  10
0.00
  20
-0.00
  30
0.00
  11
0.10
  21
0.40
  31
0.00
  0
LINE
  8
POINT
  10
0.10
  20
0.40
  30
0.00
  11
-0.10
  21
0.40
  31
0.00
  0
LINE
  8
POINT
  10
-0.10
  20
0.40
  30
0.00
  11
0.00
  21
-0.00
  31
0.00
  0
CIRCLE
  8
POINT
  10
0.00
  20
-0.20
  30
0.00
  40
0.10
  0
ENDBLK
  0
BLOCK
  8
POINT
  2
P_debris
  70
64
  10
0.0
  20
0.0
  30
0.0
  0
LINE
  8
POINT
  10
0.00
  20
-0.00
  30
0.00
  11
0.20
  21
-0.05
  31
0.00
  0
LINE
  8
POINT
  10
0.20
  20
-0.05
  30
0.00
  11
0.10
  21
0.15
  31
0.00
  0
LINE
  8
POINT
  10
0.10
  20
0.15
  30
0.00
  11
0.00
  21
-0.00
  31
0.00
  0
LINE
  8
POINT
  10
0.00
  20
-0.00
  30
0.00
  11
-0.20
  21
-0.00
  31
0.00
  0
LINE
  8
POINT
  10
-0.20
  20
-0.00
  30
0.00
  11
-0.10
  21
0.20
  31
0.00
  0
LINE
  8
POINT
  10
-0.10
  20
0.20
  30
0.00
  11
0.00
  21
-0.00
  31
0.00
  0
ENDBLK
  0
BLOCK
  8
POINT
  2
P_dig
  70
64
  10
0.0
  20
0.0
  30
0.0
  0
LINE
  8
POINT
  10
-0.25
  20
0.10
  30
0.00
  11
-0.05
  21
0.30
  31
0.00
  0
LINE
  8
POINT
  10
-0.15
  20
0.20
  30
0.00
  11
0.20
  21
-0.15
  31
0.00
  0
LINE
  8
POINT
  10
0.25
  20
0.10
  30
0.00
  11
0.05
  21
0.30
  31
0.00
  0
LINE
  8
POINT
  10
0.15
  20
0.20
  30
0.00
  11
-0.20
  21
-0.15
  31
0.00
  0
ENDBLK
  0
BLOCK
  8
POINT
  2
P_disc
  70
64
  10
0.0
  20
0.0
  30
0.0
  0
CIRCLE
  8
POINT
  10
0.00
  20
0.15
  30
0.00
  40
0.15
  0
LINE
  8
POINT
  10
-0.10
  20
-0.15
  30
0.00
  11
0.00
  21
-0.00
  31
0.00
  0
LINE
  8
POINT
  10
0.00
  20
-0.00
  30
0.00
  11
0.10
  21
-0.15
  31
0.00
  0
ENDBLK
  0
BLOCK
  8
POINT
  2
P_entrance
  70
64
  10
0.0
  20
0.0
  30
0.0
  0
LINE
  8
POINT
  10
0.00
  20
0.30
  30
0.00
  11
-0.15
  21
-0.15
  31
0.00
  0
LINE
  8
POINT
  10
-0.15
  20
-0.15
  30
0.00
  11
0.15
  21
-0.15
  31
0.00
  0
LINE
  8
POINT
  10
0.15
  20
-0.15
  30
0.00
  11
0.00
  21
0.30
  31
0.00
  0
ENDBLK
  0
BLOCK
  8
POINT
  2
P_flowstone
  70
64
  10
0.0
  20
0.0
  30
0.0
  0
LINE
  8
POINT
  10
-0.30
  20
0.10
  30
0.00
  11
-0.05
  21
0.10
  31
0.00
  0
LINE
  8
POINT
  10
0.10
  20
0.10
  30
0.00
  11
0.35
  21
0.10
  31
0.00
  0
LINE
  8
POINT
  10
-0.15
  20
-0.10
  30
0.00
  11
0.15
  21
-0.10
  31
0.00
  0
ENDBLK
  0
BLOCK
  8
POINT
  2
P_flute
  70
64
  10
0.0
  20
0.0
  30
0.0
  0
LINE
  8
POINT
  10
-0.30
  20
-0.00
  30
0.00
  11
0.30
  21
-0.00
  31
0.00
  0
ARC
  8
POINT
  10
0.00
  20
-0.00
  30
0.00
  40
0.15
  50
90.00
  51
180.00
  0
ARC
  8
POINT
  10
0.00
  20
-0.00
  30
0.00
  40
0.15
  50
0.00
  51
90.00
  0
ENDBLK
  0
BLOCK
  8
POINT
  2
P_gradient
  70
64
  10
0.0
  20
0.0
  30
0.0
  0
LINE
  8
POINT
  10
0.00
  20
-0.40
  30
0.00
  11
0.00
  21
0.20
  31
0.00
  0
LINE
  8
POINT
  10
0.00
  20
0.20
  30
0.00
  11
-0.10
  21
0.10
  31
0.00
  0
LINE
  8
POINT
  10
-0.10
  20
0.10
  30
0.00
  11
0.10
  21
0.10
  31
0.00
  0
LINE
  8
POINT
  10
0.10
  20
0.10
  30
0.00
  11
0.00
  21
0.20
  31
0.00
  0
ENDBLK
  0
BLOCK
  8
POINT
  2
P_guano
  70
64
  10
0.0
  20
0.0
  30
0.0
  0
ARC
  8
POINT
  10
-0.12
  20
-0.00
  30
0.00
  40
0.12
  50
0.00
  51
180.00
  0
LINE
  8
POINT
  10
0.00
  20
-0.00
  30
0.00
  11
0.00
  21
-0.30
  31
0.00
  0
ARC
  8
POINT
  10
0.12
  20
-0.00
  30
0.00
  40
0.12
  50
0.00
  51
180.00
  0
ENDBLK
  0
BLOCK
  8
POINT
  2
P_gypsum
  70
64
  10
0.0
  20
0.0
  30
0.0
  0
LINE
  8
POINT
  10
-0.25
  20
-0.00
  30
0.00
  11
0.00
  21
0.25
  31
0.00
  0
LINE
  8
POINT
  10
0.00
  20
0.25
  30
0.00
  11
0.00
  21
-0.25
  31
0.00
  0
LINE
  8
POINT
  10
0.00
  20
-0.25
  30
0.00
  11
0.25
  21
-0.00
  31
0.00
  0
LINE
  8
POINT
  10
0.25
  20
-0.00
  30
0.00
  11
-0.25
  21
-0.00
  31
0.00
  0
ENDBLK
  0
BLOCK
  8
POINT
  2
P_helictite
  70
64
  10
0.0
  20
0.0
  30
0.0
  0
LINE
  8
POINT
  10
0.00
  20
0.35
  30
0.00
  11
0.00
  21
-0.35
  31
0.00
  0
LINE
  8
POINT
  10
-0.15
  20
0.25
  30
0.00
  11
-0.15
  21
-0.00
  31
0.00
  0
LINE
  8
POINT
  10
-0.15
  20
-0.00
  30
0.00
  11
0.15
  21
-0.00
  31
0.00
  0
LINE
  8
POINT
  10
0.15
  20
-0.00
  30
0.00
  11
0.15
  21
-0.25
  31
0.00
  0
ENDBLK
  0
BLOCK
  8
POINT
  2
P_ice
  70
64
  10
0.0
  20
0.0
  30
0.0
  0
LINE
  8
POINT
  10
-0.25
  20
-0.00
  30
0.00
  11
0.25
  21
-0.00
  31
0.00
  0
LINE
  8
POINT
  10
0.00
  20
0.25
  30
0.00
  11
0.00
  21
-0.25
  31
0.00
  0
ENDBLK
  0
BLOCK
  8
POINT
  2
P_low-end
  70
64
  10
0.0
  20
0.0
  30
0.0
  0
LINE
  8
POINT
  10
-0.30
  20
0.10
  30
0.00
  11
0.30
  21
0.10
  31
0.00
  0
LINE
  8
POINT
  10
-0.30
  20
-0.10
  30
0.00
  11
0.30
  21
-0.10
  31
0.00
  0
ENDBLK
  0
BLOCK
  8
POINT
  2
P_moonmilk
  70
64
  10
0.0
  20
0.0
  30
0.0
  0
ARC
  8
POINT
  10
-0.28
  20
-0.05
  30
0.00
  40
0.12
  50
0.00
  51
180.00
  0
ARC
  8
POINT
  10
-0.03
  20
-0.05
  30
0.00
  40
0.12
  50
0.00
  51
180.00
  0
ARC
  8
POINT
  10
0.23
  20
-0.05
  30
0.00
  40
0.12
  50
0.00
  51
180.00
  0
ENDBLK
  0
BLOCK
  8
POINT
  2
P_narrow-end
  70
64
  10
0.0
  20
0.0
  30
0.0
  0
LINE
  8
POINT
  10
-0.10
  20
0.30
  30
0.00
  11
-0.10
  21
-0.30
  31
0.00
  0
LINE
  8
POINT
  10
0.10
  20
0.30
  30
0.00
  11
0.10
  21
-0.30
  31
0.00
  0
ENDBLK
  0
BLOCK
  8
POINT
  2
P_paleo-material
  70
64
  10
0.0
  20
0.0
  30
0.0
  0
CIRCLE
  8
POINT
  10
-0.25
  20
-0.10
  30
0.00
  40
0.05
  0
CIRCLE
  8
POINT
  10
-0.20
  20
-0.20
  30
0.00
  40
0.05
  0
CIRCLE
  8
POINT
  10
0.20
  20
0.20
  30
0.00
  40
0.05
  0
CIRCLE
  8
POINT
  10
0.25
  20
0.10
  30
0.00
  40
0.05
  0
LINE
  8
POINT
  10
-0.21
  20
-0.09
  30
0.00
  11
0.17
  21
0.17
  31
0.00
  0
LINE
  8
POINT
  10
0.21
  20
0.09
  30
0.00
  11
-0.17
  21
-0.17
  31
0.00
  0
ENDBLK
  0
BLOCK
  8
POINT
  2
P_paleoflow
  70
64
  10
0.0
  20
0.0
  30
0.0
  0
LINE
  8
POINT
  10
0.00
  20
-0.25
  30
0.00
  11
0.00
  21
0.35
  31
0.00
  0
LINE
  8
POINT
  10
0.00
  20
0.35
  30
0.00
  11
0.10
  21
0.25
  31
0.00
  0
LINE
  8
POINT
  10
0.00
  20
0.35
  30
0.00
  11
-0.10
  21
0.25
  31
0.00
  0
ARC
  8
POINT
  10
0.00
  20
-0.00
  30
0.00
  40
0.15
  50
90.00
  51
180.00
  0
ARC
  8
POINT
  10
0.00
  20
-0.00
  30
0.00
  40
0.15
  50
0.00
  51
90.00
  0
ENDBLK
  0
BLOCK
  8
POINT
  2
P_pebbles
  70
64
  10
0.0
  20
0.0
  30
0.0
  0
CIRCLE
  8
POINT
  10
-0.15
  20
-0.05
  30
0.00
  40
0.10
  0
CIRCLE
  8
POINT
  10
0.20
  20
-0.15
  30
0.00
  40
0.10
  0
CIRCLE
  8
POINT
  10
0.15
  20
0.15
  30
0.00
  40
0.10
  0
ENDBLK
  0
BLOCK
  8
POINT
  2
P_pendant
  70
64
  10
0.0
  20
0.0
  30
0.0
  0
ARC
  8
POINT
  10
-0.20
  20
0.20
  30
0.00
  40
0.10
  50
90.00
  51
270.00
  0
ARC
  8
POINT
  10
0.00
  20
0.10
  30
0.00
  40
0.20
  50
180.00
  51
270.00
  0
ARC
  8
POINT
  10
0.20
  20
-0.30
  30
0.00
  40
0.20
  50
90.00
  51
180.00
  0
ARC
  8
POINT
  10
0.20
  20
0.20
  30
0.00
  40
0.10
  50
90.00
  51
270.00
  0
ENDBLK
  0
BLOCK
  8
POINT
  2
P_pillar
  70
64
  10
0.0
  20
0.0
  30
0.0
  0
LINE
  8
POINT
  10
-0.15
  20
0.35
  30
0.00
  11
0.00
  21
0.20
  31
0.00
  0
LINE
  8
POINT
  10
0.00
  20
0.20
  30
0.00
  11
0.00
  21
-0.20
  31
0.00
  0
LINE
  8
POINT
  10
0.00
  20
-0.20
  30
0.00
  11
-0.15
  21
-0.35
  31
0.00
  0
LINE
  8
POINT
  10
0.00
  20
-0.20
  30
0.00
  11
0.15
  21
-0.35
  31
0.00
  0
LINE
  8
POINT
  10
0.00
  20
0.20
  30
0.00
  11
0.15
  21
0.35
  31
0.00
  0
ENDBLK
  0
BLOCK
  8
POINT
  2
P_popcorn
  70
64
  10
0.0
  20
0.0
  30
0.0
  0
LINE
  8
POINT
  10
-0.35
  20
-0.20
  30
0.00
  11
0.35
  21
-0.20
  31
0.00
  0
LINE
  8
POINT
  10
-0.30
  20
-0.20
  30
0.00
  11
-0.30
  21
0.05
  31
0.00
  0
CIRCLE
  8
POINT
  10
-0.30
  20
0.10
  30
0.00
  40
0.05
  0
LINE
  8
POINT
  10
0.00
  20
-0.20
  30
0.00
  11
0.00
  21
0.05
  31
0.00
  0
CIRCLE
  8
POINT
  10
0.00
  20
0.10
  30
0.00
  40
0.05
  0
LINE
  8
POINT
  10
0.30
  20
-0.20
  30
0.00
  11
0.30
  21
0.05
  31
0.00
  0
CIRCLE
  8
POINT
  10
0.30
  20
0.10
  30
0.00
  40
0.05
  0
ENDBLK
  0
BLOCK
  8
POINT
  2
P_root
  70
64
  10
0.0
  20
0.0
  30
0.0
  0
LINE
  8
POINT
  10
0.00
  20
0.40
  30
0.00
  11
0.00
  21
-0.20
  31
0.00
  0
LINE
  8
POINT
  10
0.00
  20
-0.20
  30
0.00
  11
0.15
  21
-0.35
  31
0.00
  0
LINE
  8
POINT
  10
0.00
  20
-0.05
  30
0.00
  11
0.15
  21
-0.20
  31
0.00
  0
LINE
  8
POINT
  10
0.00
  20
0.10
  30
0.00
  11
0.15
  21
-0.05
  31
0.00
  0
ENDBLK
  0
BLOCK
  8
POINT
  2
P_sand
  70
64
  10
0.0
  20
0.0
  30
0.0
  0
LINE
  8
POINT
  10
-0.35
  20
-0.15
  30
0.00
  11
-0.25
  21
-0.15
  31
0.00
  0
LINE
  8
POINT
  10
-0.25
  20
-0.15
  30
0.00
  11
-0.30
  21
-0.05
  31
0.00
  0
LINE
  8
POINT
  10
-0.30
  20
-0.05
  30
0.00
  11
-0.35
  21
-0.15
  31
0.00
  0
LINE
  8
POINT
  10
0.35
  20
-0.15
  30
0.00
  11
0.25
  21
-0.15
  31
0.00
  0
LINE
  8
POINT
  10
0.25
  20
-0.15
  30
0.00
  11
0.30
  21
-0.05
  31
0.00
  0
LINE
  8
POINT
  10
0.30
  20
-0.05
  30
0.00
  11
0.35
  21
-0.15
  31
0.00
  0
LINE
  8
POINT
  10
-0.05
  20
0.15
  30
0.00
  11
0.05
  21
0.15
  31
0.00
  0
LINE
  8
POINT
  10
0.05
  20
0.15
  30
0.00
  11
0.00
  21
0.25
  31
0.00
  0
LINE
  8
POINT
  10
0.00
  20
0.25
  30
0.00
  11
-0.05
  21
0.15
  31
0.00
  0
ENDBLK
  0
BLOCK
  8
POINT
  2
P_scallop
  70
64
  10
0.0
  20
0.0
  30
0.0
  0
LINE
  8
POINT
  10
0.00
  20
-0.30
  30
0.00
  11
-0.15
  21
-0.00
  31
0.00
  0
ARC
  8
POINT
  10
0.00
  20
-0.00
  30
0.00
  40
0.15
  50
90.00
  51
180.00
  0
ARC
  8
POINT
  10
0.00
  20
-0.00
  30
0.00
  40
0.15
  50
0.00
  51
90.00
  0
LINE
  8
POINT
  10
0.15
  20
-0.00
  30
0.00
  11
0.00
  21
-0.30
  31
0.00
  0
ENDBLK
  0
BLOCK
  8
POINT
  2
P_section
  70
64
  10
0.0
  20
0.0
  30
0.0
  0
LINE
  8
POINT
  10
-0.25
  20
0.25
  30
0.00
  11
-0.25
  21
-0.25
  31
0.00
  0
LINE
  8
POINT
  10
-0.25
  20
-0.25
  30
0.00
  11
0.25
  21
-0.25
  31
0.00
  0
LINE
  8
POINT
  10
0.25
  20
-0.25
  30
0.00
  11
0.25
  21
0.25
  31
0.00
  0
LINE
  8
POINT
  10
0.25
  20
0.25
  30
0.00
  11
-0.25
  21
0.25
  31
0.00
  0
ENDBLK
  0
BLOCK
  8
POINT
  2
P_sink
  70
64
  10
0.0
  20
0.0
  30
0.0
  0
ARC
  8
POINT
  10
0.00
  20
0.15
  30
0.00
  40
0.25
  50
180.00
  51
360.00
  0
ENDBLK
  0
BLOCK
  8
POINT
  2
P_snow
  70
64
  10
0.0
  20
0.0
  30
0.0
  0
LINE
  8
POINT
  10
0.00
  20
0.25
  30
0.00
  11
0.00
  21
-0.25
  31
0.00
  0
LINE
  8
POINT
  10
-0.20
  20
0.15
  30
0.00
  11
0.20
  21
-0.15
  31
0.00
  0
LINE
  8
POINT
  10
-0.20
  20
-0.15
  30
0.00
  11
0.20
  21
0.15
  31
0.00
  0
ENDBLK
  0
BLOCK
  8
POINT
  2
P_soda-straw
  70
64
  10
0.0
  20
0.0
  30
0.0
  0
LINE
  8
POINT
  10
-0.30
  20
0.10
  30
0.00
  11
0.30
  21
0.10
  31
0.00
  0
LINE
  8
POINT
  10
-0.20
  20
0.10
  30
0.00
  11
-0.20
  21
-0.10
  31
0.00
  0
LINE
  8
POINT
  10
0.00
  20
0.10
  30
0.00
  11
0.00
  21
-0.30
  31
0.00
  0
LINE
  8
POINT
  10
0.20
  20
0.10
  30
0.00
  11
0.20
  21
-0.20
  31
0.00
  0
ENDBLK
  0
BLOCK
  8
POINT
  2
P_spring
  70
64
  10
0.0
  20
0.0
  30
0.0
  0
ARC
  8
POINT
  10
0.00
  20
-0.15
  30
0.00
  40
0.25
  50
0.00
  51
180.00
  0
ENDBLK
  0
BLOCK
  8
POINT
  2
P_stalactite
  70
64
  10
0.0
  20
0.0
  30
0.0
  0
LINE
  8
POINT
  10
-0.20
  20
0.20
  30
0.00
  11
0.00
  21
-0.00
  31
0.00
  0
LINE
  8
POINT
  10
0.00
  20
-0.00
  30
0.00
  11
0.20
  21
0.20
  31
0.00
  0
LINE
  8
POINT
  10
0.00
  20
-0.00
  30
0.00
  11
0.00
  21
-0.30
  31
0.00
  0
ENDBLK
  0
BLOCK
  8
POINT
  2
P_stalagmite
  70
64
  10
0.0
  20
0.0
  30
0.0
  0
LINE
  8
POINT
  10
-0.20
  20
-0.20
  30
0.00
  11
0.00
  21
-0.00
  31
0.00
  0
LINE
  8
POINT
  10
0.00
  20
-0.00
  30
0.00
  11
0.20
  21
-0.20
  31
0.00
  0
LINE
  8
POINT
  10
0.00
  20
-0.00
  30
0.00
  11
0.00
  21
0.30
  31
0.00
  0
ENDBLK
  0
BLOCK
  8
POINT
  2
P_wall-calcite
  70
64
  10
0.0
  20
0.0
  30
0.0
  0
LINE
  8
POINT
  10
-0.30
  20
-0.10
  30
0.00
  11
-0.15
  21
0.10
  31
0.00
  0
LINE
  8
POINT
  10
-0.15
  20
0.10
  30
0.00
  11
0.00
  21
-0.10
  31
0.00
  0
LINE
  8
POINT
  10
0.00
  20
-0.10
  30
0.00
  11
0.15
  21
0.10
  31
0.00
  0
LINE
  8
POINT
  10
0.15
  20
0.10
  30
0.00
  11
0.30
  21
-0.10
  31
0.00
  0
ENDBLK
  0
BLOCK
  8
POINT
  2
P_water
  70
64
  10
0.0
  20
0.0
  30
0.0
  0
LINE
  8
POINT
  10
-0.30
  20
0.15
  30
0.00
  11
-0.05
  21
0.15
  31
0.00
  0
LINE
  8
POINT
  10
0.10
  20
0.15
  30
0.00
  11
0.30
  21
0.15
  31
0.00
  0
LINE
  8
POINT
  10
-0.20
  20
-0.00
  30
0.00
  11
0.05
  21
-0.00
  31
0.00
  0
LINE
  8
POINT
  10
0.15
  20
-0.00
  30
0.00
  11
0.35
  21
-0.00
  31
0.00
  0
LINE
  8
POINT
  10
-0.15
  20
-0.15
  30
0.00
  11
0.25
  21
-0.15
  31
0.00
  0
ENDBLK
  0
BLOCK
  8
POINT
  2
P_water-flow
  70
64
  10
0.0
  20
0.0
  30
0.0
  0
ARC
  8
POINT
  10
0.00
  20
-0.08
  30
0.00
  40
0.08
  50
90.00
  51
270.00
  0
ARC
  8
POINT
  10
0.00
  20
0.08
  30
0.00
  40
0.08
  50
270.00
  51
450.00
  0
ARC
  8
POINT
  10
0.00
  20
0.23
  30
0.00
  40
0.08
  50
90.00
  51
270.00
  0
ARC
  8
POINT
  10
0.00
  20
0.38
  30
0.00
  40
0.08
  50
270.00
  51
360.00
  0
ARC
  8
POINT
  10
0.00
  20
0.38
  30
0.00
  40
0.08
  50
0.00
  51
90.00
  0
LINE
  8
POINT
  10
0.00
  20
0.50
  30
0.00
  11
0.20
  21
0.30
  31
0.00
  0
LINE
  8
POINT
  10
0.00
  20
0.50
  30
0.00
  11
-0.20
  21
0.30
  31
0.00
  0
ENDBLK
  0
ENDSEC
  0
SECTION
  2
ENTITIES
  0
LINE
  8
REF
  10
-16.27
  20
-150.76
  30
0.00
  11
183.73
  21
-150.76
  31
0.00
  0
LINE
  8
REF
  10
-16.27
  20
-150.76
  30
0.00
  11
-16.27
  21
49.24
  31
0.00
  0
TEXT
  8
REF
  10
184.73
  20
-150.76
  30
0.00
  40
0.30
  1
"10"
  0
TEXT
  8
REF
  10
-16.27
  20
50.24
  30
0.00
  40
0.30
  1
"10"
  0
LINE
  8
LEG
  10
47.83
  20
-94.80
  30
0.00
  11
100.00
  21
-120.00
  31
0.00
  0
LINE
  8
LEG
  10
100.00
  20
-120.00
  30
0.00
  11
44.67
  21
-129.50
  31
0.00
  0
LINE
  8
LEG
  10
44.67
  20
-129.50
  30
0.00
  11
99.34
  21
-136.56
  31
0.00
  0
LINE
  8
LEG
  10
99.34
  20
-136.56
  30
0.00
  11
197.14
  21
-65.35
  31
0.00
  0
LINE
  8
LEG
  10
197.14
  20
-65.35
  30
0.00
  11
270.88
  21
-109.29
  31
0.00
  0
LINE
  8
LEG
  10
20.76
  20
-117.99
  30
0.00
  11
47.83
  21
-94.80
  31
0.00
  0
LINE
  8
LEG
  10
-44.98
  20
-68.27
  30
0.00
  11
20.76
  21
-117.99
  31
0.00
  0
LINE
  8
LEG
  10
-13.82
  20
30.68
  30
0.00
  11
-44.98
  21
-68.27
  31
0.00
  0
LINE
  8
LEG
  10
-21.01
  20
68.34
  30
0.00
  11
-13.82
  21
30.68
  31
0.00
  0
LINE
  8
LEG
  10
-3.71
  20
65.02
  30
0.00
  11
-21.01
  21
68.34
  31
0.00
  0
LINE
  8
LEG
  10
-8.75
  20
21.01
  30
0.00
  11
-3.71
  21
65.02
  31
0.00
  0
LINE
  8
LEG
  10
8.63
  20
-14.20
  30
0.00
  11
-8.75
  21
21.01
  31
0.00
  0
LINE
  8
LEG
  10
2.04
  20
-41.04
  30
0.00
  11
8.63
  21
-14.20
  31
0.00
  0
LINE
  8
LEG
  10
80.44
  20
-85.35
  30
0.00
  11
2.04
  21
-41.04
  31
0.00
  0
LINE
  8
LEG
  10
101.95
  20
-99.09
  30
0.00
  11
80.44
  21
-85.35
  31
0.00
  0
LINE
  8
LEG
  10
135.71
  20
-112.93
  30
0.00
  11
101.95
  21
-99.09
  31
0.00
  0
LINE
  8
LEG
  10
164.01
  20
-133.09
  30
0.00
  11
135.71
  21
-112.93
  31
0.00
  0
LINE
  8
LEG
  10
189.99
  20
-151.64
  30
0.00
  11
164.01
  21
-133.09
  31
0.00
  0
LINE
  8
LEG
  10
219.11
  20
-121.94
  30
0.00
  11
189.99
  21
-151.64
  31
0.00
  0
LINE
  8
LEG
  10
276.94
  20
-118.70
  30
0.00
  11
219.11
  21
-121.94
  31
0.00
  0
LINE
  8
LEG
  10
292.25
  20
-79.34
  30
0.00
  11
276.94
  21
-118.70
  31
0.00
  0
LINE
  8
LEG
  10
320.45
  20
-50.40
  30
0.00
  11
292.25
  21
-79.34
  31
0.00
  0
LINE
  8
SPLAY
  10
320.45
  20
-50.40
  30
0.00
  11
300.08
  21
-41.97
  31
0.00
  0
LINE
  8
SPLAY
  10
320.45
  20
-50.40
  30
0.00
  11
274.20
  21
-92.41
  31
0.00
  0
LINE
  8
SPLAY
  10
320.45
  20
-50.40
  30
0.00
  11
316.30
  21
-77.94
  31
0.00
  0
LINE
  8
SPLAY
  10
320.45
  20
-50.40
  30
0.00
  11
347.45
  21
42.68
  31
0.00
  0
LINE
  8
SPLAY
  10
320.45
  20
-50.40
  30
0.00
  11
338.69
  21
-28.22
  31
0.00
  0
LINE
  8
SPLAY
  10
320.45
  20
-50.40
  30
0.00
  11
306.45
  21
-11.44
  31
0.00
  0
LINE
  8
SPLAY
  10
320.45
  20
-50.40
  30
0.00
  11
312.88
  21
-40.40
  31
0.00
  0
LINE
  8
SPLAY
  10
320.45
  20
-50.40
  30
0.00
  11
301.19
  21
-103.23
  31
0.00
  0
LINE
  8
SPLAY
  10
320.45
  20
-50.40
  30
0.00
  11
252.88
  21
-118.13
  31
0.00
  0
LINE
  8
SPLAY
  10
320.45
  20
-50.40
  30
0.00
  11
290.36
  21
-57.71
  31
0.00
  0
LINE
  8
SPLAY
  10
320.45
  20
-50.40
  30
0.00
  11
309.66
  21
-18.44
  31
0.00
  0
LINE
  8
SPLAY
  10
320.45
  20
-50.40
  30
0.00
  11
300.72
  21
-54.93
  31
0.00
  0
LINE
  8
SPLAY
  10
320.45
  20
-50.40
  30
0.00
  11
304.07
  21
-17.83
  31
0.00
  0
LINE
  8
SPLAY
  10
320.45
  20
-50.40
  30
0.00
  11
291.82
  21
-79.26
  31
0.00
  0
LINE
  8
SPLAY
  10
320.45
  20
-50.40
  30
0.00
  11
293.62
  21
-77.21
  31
0.00
  0
LINE
  8
SPLAY
  10
292.25
  20
-79.34
  30
0.00
  11
307.55
  21
-93.12
  31
0.00
  0
LINE
  8
SPLAY
  10
292.25
  20
-79.34
  30
0.00
  11
332.44
  21
-80.67
  31
0.00
  0
LINE
  8
SPLAY
  10
292.25
  20
-79.34
  30
0.00
  11
344.04
  21
-56.60
  31
0.00
  0
LINE
  8
SPLAY
  10
292.25
  20
-79.34
  30
0.00
  11
341.56
  21
-20.81
  31
0.00
  0
LINE
  8
SPLAY
  10
292.25
  20
-79.34
  30
0.00
  11
321.76
  21
-71.01
  31
0.00
  0
LINE
  8
SPLAY
  10
292.25
  20
-79.34
  30
0.00
  11
316.77
  21
-89.65
  31
0.00
  0
LINE
  8
SPLAY
  10
292.25
  20
-79.34
  30
0.00
  11
225.61
  21
-137.14
  31
0.00
  0
LINE
  8
SPLAY
  10
292.25
  20
-79.34
  30
0.00
  11
247.44
  21
-98.48
  31
0.00
  0
LINE
  8
SPLAY
  10
292.25
  20
-79.34
  30
0.00
  11
270.56
  21
-125.40
  31
0.00
  0
LINE
  8
SPLAY
  10
292.25
  20
-79.34
  30
0.00
  11
291.96
  21
-97.34
  31
0.00
  0
LINE
  8
SPLAY
  10
292.25
  20
-79.34
  30
0.00
  11
254.65
  21
-98.18
  31
0.00
  0
LINE
  8
SPLAY
  10
292.25
  20
-79.34
  30
0.00
  11
252.81
  21
-120.11
  31
0.00
  0
LINE
  8
SPLAY
  10
292.25
  20
-79.34
  30
0.00
  11
331.08
  21
-86.58
  31
0.00
  0
LINE
  8
SPLAY
  10
292.25
  20
-79.34
  30
0.00
  11
317.61
  21
-86.52
  31
0.00
  0
LINE
  8
SPLAY
  10
276.94
  20
-118.70
  30
0.00
  11
316.68
  21
-59.70
  31
0.00
  0
LINE
  8
SPLAY
  10
276.94
  20
-118.70
  30
0.00
  11
279.39
  21
-84.62
  31
0.00
  0
LINE
  8
SPLAY
  10
276.94
  20
-118.70
  30
0.00
  11
294.14
  21
-67.87
  31
0.00
  0
LINE
  8
SPLAY
  10
276.94
  20
-118.70
  30
0.00
  11
261.61
  21
-95.29
  31
0.00
  0
LINE
  8
SPLAY
  10
276.94
  20
-118.70
  30
0.00
  11
284.62
  21
-74.65
  31
0.00
  0
LINE
  8
SPLAY
  10
276.94
  20
-118.70
  30
0.00
  11
349.80
  21
-54.21
  31
0.00
  0
LINE
  8
SPLAY
  10
276.94
  20
-118.70
  30
0.00
  11
239.00
  21
-110.48
  31
0.00
  0
LINE
  8
SPLAY
  10
276.94
  20
-118.70
  30
0.00
  11
206.70
  21
-132.02
  31
0.00
  0
LINE
  8
SPLAY
  10
276.94
  20
-118.70
  30
0.00
  11
189.85
  21
-163.27
  31
0.00
  0
LINE
  8
SPLAY
  10
276.94
  20
-118.70
  30
0.00
  11
196.23
  21
-129.63
  31
0.00
  0
LINE
  8
SPLAY
  10
276.94
  20
-118.70
  30
0.00
  11
244.71
  21
-105.01
  31
0.00
  0
LINE
  8
SPLAY
  10
276.94
  20
-118.70
  30
0.00
  11
233.63
  21
-146.38
  31
0.00
  0
LINE
  8
SPLAY
  10
276.94
  20
-118.70
  30
0.00
  11
186.46
  21
-133.70
  31
0.00
  0
LINE
  8
SPLAY
  10
276.94
  20
-118.70
  30
0.00
  11
279.59
  21
-94.85
  31
0.00
  0
LINE
  8
SPLAY
  10
276.94
  20
-118.70
  30
0.00
  11
217.57
  21
-155.73
  31
0.00
  0
LINE
  8
SPLAY
  10
276.94
  20
-118.70
  30
0.00
  11
165.26
  21
-150.36
  31
0.00
  0
LINE
  8
SPLAY
  10
276.94
  20
-118.70
  30
0.00
  11
184.20
  21
-151.08
  31
0.00
  0
LINE
  8
SPLAY
  10
276.94
  20
-118.70
  30
0.00
  11
218.30
  21
-121.97
  31
0.00
  0
LINE
  8
SPLAY
  10
276.94
  20
-118.70
  30
0.00
  11
216.53
  21
-122.52
  31
0.00
  0
LINE
  8
SPLAY
  10
219.11
  20
-121.94
  30
0.00
  11
226.50
  21
-155.15
  31
0.00
  0
LINE
  8
SPLAY
  10
219.11
  20
-121.94
  30
0.00
  11
213.47
  21
-155.84
  31
0.00
  0
LINE
  8
SPLAY
  10
219.11
  20
-121.94
  30
0.00
  11
201.67
  21
-173.17
  31
0.00
  0
LINE
  8
SPLAY
  10
219.11
  20
-121.94
  30
0.00
  11
171.19
  21
-172.03
  31
0.00
  0
LINE
  8
SPLAY
  10
219.11
  20
-121.94
  30
0.00
  11
163.60
  21
-146.38
  31
0.00
  0
LINE
  8
SPLAY
  10
219.11
  20
-121.94
  30
0.00
  11
288.92
  21
-108.08
  31
0.00
  0
LINE
  8
SPLAY
  10
219.11
  20
-121.94
  30
0.00
  11
277.42
  21
-125.86
  31
0.00
  0
LINE
  8
SPLAY
  10
219.11
  20
-121.94
  30
0.00
  11
256.14
  21
-141.93
  31
0.00
  0
LINE
  8
SPLAY
  10
219.11
  20
-121.94
  30
0.00
  11
239.56
  21
-152.79
  31
0.00
  0
LINE
  8
SPLAY
  10
219.11
  20
-121.94
  30
0.00
  11
292.71
  21
-111.55
  31
0.00
  0
LINE
  8
SPLAY
  10
219.11
  20
-121.94
  30
0.00
  11
288.91
  21
-111.41
  31
0.00
  0
LINE
  8
SPLAY
  10
219.11
  20
-121.94
  30
0.00
  11
193.25
  21
-161.21
  31
0.00
  0
LINE
  8
SPLAY
  10
219.11
  20
-121.94
  30
0.00
  11
225.97
  21
-142.77
  31
0.00
  0
LINE
  8
SPLAY
  10
189.99
  20
-151.64
  30
0.00
  11
184.65
  21
-141.41
  31
0.00
  0
LINE
  8
SPLAY
  10
189.99
  20
-151.64
  30
0.00
  11
170.92
  21
-122.23
  31
0.00
  0
LINE
  8
SPLAY
  10
189.99
  20
-151.64
  30
0.00
  11
185.84
  21
-133.58
  31
0.00
  0
LINE
  8
SPLAY
  10
189.99
  20
-151.64
  30
0.00
  11
171.34
  21
-141.40
  31
0.00
  0
LINE
  8
SPLAY
  10
189.99
  20
-151.64
  30
0.00
  11
216.82
  21
-158.30
  31
0.00
  0
LINE
  8
SPLAY
  10
189.99
  20
-151.64
  30
0.00
  11
173.22
  21
-144.14
  31
0.00
  0
LINE
  8
SPLAY
  10
189.99
  20
-151.64
  30
0.00
  11
175.17
  21
-140.07
  31
0.00
  0
LINE
  8
SPLAY
  10
189.99
  20
-151.64
  30
0.00
  11
202.86
  21
-144.05
  31
0.00
  0
LINE
  8
SPLAY
  10
164.01
  20
-133.09
  30
0.00
  11
159.13
  21
-139.95
  31
0.00
  0
LINE
  8
SPLAY
  10
164.01
  20
-133.09
  30
0.00
  11
152.92
  21
-132.47
  31
0.00
  0
LINE
  8
SPLAY
  10
164.01
  20
-133.09
  30
0.00
  11
175.65
  21
-135.91
  31
0.00
  0
LINE
  8
SPLAY
  10
164.01
  20
-133.09
  30
0.00
  11
208.21
  21
-155.87
  31
0.00
  0
LINE
  8
SPLAY
  10
164.01
  20
-133.09
  30
0.00
  11
189.74
  21
-162.47
  31
0.00
  0
LINE
  8
SPLAY
  10
164.01
  20
-133.09
  30
0.00
  11
169.47
  21
-157.11
  31
0.00
  0
LINE
  8
SPLAY
  10
164.01
  20
-133.09
  30
0.00
  11
221.51
  21
-145.41
  31
0.00
  0
LINE
  8
SPLAY
  10
164.01
  20
-133.09
  30
0.00
  11
178.02
  21
-120.06
  31
0.00
  0
LINE
  8
SPLAY
  10
164.01
  20
-133.09
  30
0.00
  11
144.25
  21
-119.31
  31
0.00
  0
LINE
  8
SPLAY
  10
164.01
  20
-133.09
  30
0.00
  11
136.43
  21
-113.34
  31
0.00
  0
LINE
  8
SPLAY
  10
135.71
  20
-112.93
  30
0.00
  11
147.93
  21
-103.14
  31
0.00
  0
LINE
  8
SPLAY
  10
135.71
  20
-112.93
  30
0.00
  11
143.83
  21
-104.27
  31
0.00
  0
LINE
  8
SPLAY
  10
135.71
  20
-112.93
  30
0.00
  11
149.67
  21
-108.20
  31
0.00
  0
LINE
  8
SPLAY
  10
135.71
  20
-112.93
  30
0.00
  11
129.33
  21
-106.27
  31
0.00
  0
LINE
  8
SPLAY
  10
135.71
  20
-112.93
  30
0.00
  11
135.99
  21
-104.92
  31
0.00
  0
LINE
  8
SPLAY
  10
135.71
  20
-112.93
  30
0.00
  11
141.27
  21
-120.46
  31
0.00
  0
LINE
  8
SPLAY
  10
135.71
  20
-112.93
  30
0.00
  11
145.02
  21
-120.94
  31
0.00
  0
LINE
  8
SPLAY
  10
135.71
  20
-112.93
  30
0.00
  11
157.32
  21
-126.06
  31
0.00
  0
LINE
  8
SPLAY
  10
135.71
  20
-112.93
  30
0.00
  11
148.93
  21
-117.66
  31
0.00
  0
LINE
  8
SPLAY
  10
135.71
  20
-112.93
  30
0.00
  11
147.78
  21
-112.15
  31
0.00
  0
LINE
  8
SPLAY
  10
135.71
  20
-112.93
  30
0.00
  11
148.95
  21
-108.54
  31
0.00
  0
LINE
  8
SPLAY
  10
135.71
  20
-112.93
  30
0.00
  11
135.55
  21
-105.90
  31
0.00
  0
LINE
  8
SPLAY
  10
135.71
  20
-112.93
  30
0.00
  11
125.03
  21
-114.78
  31
0.00
  0
LINE
  8
SPLAY
  10
135.71
  20
-112.93
  30
0.00
  11
118.36
  21
-109.77
  31
0.00
  0
LINE
  8
SPLAY
  10
135.71
  20
-112.93
  30
0.00
  11
129.75
  21
-107.51
  31
0.00
  0
LINE
  8
SPLAY
  10
135.71
  20
-112.93
  30
0.00
  11
126.37
  21
-111.75
  31
0.00
  0
LINE
  8
SPLAY
  10
101.95
  20
-99.09
  30
0.00
  11
98.31
  21
-104.95
  31
0.00
  0
LINE
  8
SPLAY
  10
101.95
  20
-99.09
  30
0.00
  11
130.27
  21
-107.93
  31
0.00
  0
LINE
  8
SPLAY
  10
101.95
  20
-99.09
  30
0.00
  11
119.75
  21
-110.50
  31
0.00
  0
LINE
  8
SPLAY
  10
101.95
  20
-99.09
  30
0.00
  11
110.17
  21
-113.77
  31
0.00
  0
LINE
  8
SPLAY
  10
101.95
  20
-99.09
  30
0.00
  11
108.61
  21
-98.45
  31
0.00
  0
LINE
  8
SPLAY
  10
101.95
  20
-99.09
  30
0.00
  11
104.50
  21
-113.68
  31
0.00
  0
LINE
  8
SPLAY
  10
101.95
  20
-99.09
  30
0.00
  11
103.88
  21
-102.08
  31
0.00
  0
LINE
  8
SPLAY
  10
101.95
  20
-99.09
  30
0.00
  11
89.05
  21
-95.33
  31
0.00
  0
LINE
  8
SPLAY
  10
101.95
  20
-99.09
  30
0.00
  11
88.51
  21
-99.83
  31
0.00
  0
LINE
  8
SPLAY
  10
101.95
  20
-99.09
  30
0.00
  11
97.70
  21
-111.08
  31
0.00
  0
LINE
  8
SPLAY
  10
101.95
  20
-99.09
  30
0.00
  11
99.21
  21
-103.20
  31
0.00
  0
LINE
  8
SPLAY
  10
80.44
  20
-85.35
  30
0.00
  11
94.29
  21
-91.56
  31
0.00
  0
LINE
  8
SPLAY
  10
80.44
  20
-85.35
  30
0.00
  11
79.77
  21
-90.72
  31
0.00
  0
LINE
  8
SPLAY
  10
80.44
  20
-85.35
  30
0.00
  11
76.86
  21
-90.78
  31
0.00
  0
LINE
  8
SPLAY
  10
80.44
  20
-85.35
  30
0.00
  11
15.28
  21
-55.25
  31
0.00
  0
LINE
  8
SPLAY
  10
80.44
  20
-85.35
  30
0.00
  11
65.00
  21
-76.45
  31
0.00
  0
LINE
  8
SPLAY
  10
80.44
  20
-85.35
  30
0.00
  11
54.44
  21
-78.03
  31
0.00
  0
LINE
  8
SPLAY
  10
80.44
  20
-85.35
  30
0.00
  11
49.90
  21
-76.09
  31
0.00
  0
LINE
  8
SPLAY
  10
80.44
  20
-85.35
  30
0.00
  11
48.58
  21
-81.38
  31
0.00
  0
LINE
  8
SPLAY
  10
80.44
  20
-85.35
  30
0.00
  11
56.86
  21
-87.70
  31
0.00
  0
LINE
  8
SPLAY
  10
80.44
  20
-85.35
  30
0.00
  11
66.99
  21
-91.89
  31
0.00
  0
LINE
  8
SPLAY
  10
80.44
  20
-85.35
  30
0.00
  11
111.59
  21
-109.92
  31
0.00
  0
LINE
  8
SPLAY
  10
80.44
  20
-85.35
  30
0.00
  11
1.74
  21
-72.06
  31
0.00
  0
LINE
  8
SPLAY
  10
80.44
  20
-85.35
  30
0.00
  11
6.28
  21
-47.87
  31
0.00
  0
LINE
  8
SPLAY
  10
80.44
  20
-85.35
  30
0.00
  11
28.93
  21
-51.78
  31
0.00
  0
LINE
  8
SPLAY
  10
80.44
  20
-85.35
  30
0.00
  11
54.80
  21
-80.92
  31
0.00
  0
LINE
  8
SPLAY
  10
80.44
  20
-85.35
  30
0.00
  11
-0.45
  21
-70.33
  31
0.00
  0
LINE
  8
SPLAY
  10
80.44
  20
-85.35
  30
0.00
  11
34.87
  21
-80.70
  31
0.00
  0
LINE
  8
SPLAY
  10
80.44
  20
-85.35
  30
0.00
  11
70.58
  21
-75.55
  31
0.00
  0
LINE
  8
SPLAY
  10
80.44
  20
-85.35
  30
0.00
  11
-5.40
  21
-61.23
  31
0.00
  0
LINE
  8
SPLAY
  10
2.04
  20
-41.04
  30
0.00
  11
13.50
  21
-38.63
  31
0.00
  0
LINE
  8
SPLAY
  10
2.04
  20
-41.04
  30
0.00
  11
10.90
  21
-34.91
  31
0.00
  0
LINE
  8
SPLAY
  10
2.04
  20
-41.04
  30
0.00
  11
6.10
  21
-30.78
  31
0.00
  0
LINE
  8
SPLAY
  10
2.04
  20
-41.04
  30
0.00
  11
-0.71
  21
-50.70
  31
0.00
  0
LINE
  8
SPLAY
  10
2.04
  20
-41.04
  30
0.00
  11
10.02
  21
-86.37
  31
0.00
  0
LINE
  8
SPLAY
  10
2.04
  20
-41.04
  30
0.00
  11
14.62
  21
-92.61
  31
0.00
  0
LINE
  8
SPLAY
  10
2.04
  20
-41.04
  30
0.00
  11
37.45
  21
-87.58
  31
0.00
  0
LINE
  8
SPLAY
  10
2.04
  20
-41.04
  30
0.00
  11
63.86
  21
-99.04
  31
0.00
  0
LINE
  8
SPLAY
  10
2.04
  20
-41.04
  30
0.00
  11
80.15
  21
-82.25
  31
0.00
  0
LINE
  8
SPLAY
  10
2.04
  20
-41.04
  30
0.00
  11
62.09
  21
-69.80
  31
0.00
  0
LINE
  8
SPLAY
  10
2.04
  20
-41.04
  30
0.00
  11
15.05
  21
-44.71
  31
0.00
  0
LINE
  8
SPLAY
  10
2.04
  20
-41.04
  30
0.00
  11
41.55
  21
-50.32
  31
0.00
  0
LINE
  8
SPLAY
  10
2.04
  20
-41.04
  30
0.00
  11
16.91
  21
-76.20
  31
0.00
  0
LINE
  8
SPLAY
  10
2.04
  20
-41.04
  30
0.00
  11
2.60
  21
-57.17
  31
0.00
  0
LINE
  8
SPLAY
  10
2.04
  20
-41.04
  30
0.00
  11
16.75
  21
-40.90
  31
0.00
  0
LINE
  8
SPLAY
  10
8.63
  20
-14.20
  30
0.00
  11
-10.62
  21
-17.54
  31
0.00
  0
LINE
  8
SPLAY
  10
8.63
  20
-14.20
  30
0.00
  11
-2.13
  21
-40.63
  31
0.00
  0
LINE
  8
SPLAY
  10
8.63
  20
-14.20
  30
0.00
  11
5.62
  21
-66.45
  31
0.00
  0
LINE
  8
SPLAY
  10
8.63
  20
-14.20
  30
0.00
  11
-4.17
  21
-17.46
  31
0.00
  0
LINE
  8
SPLAY
  10
8.63
  20
-14.20
  30
0.00
  11
-12.01
  21
5.66
  31
0.00
  0
LINE
  8
SPLAY
  10
8.63
  20
-14.20
  30
0.00
  11
-6.82
  21
-4.85
  31
0.00
  0
LINE
  8
SPLAY
  10
8.63
  20
-14.20
  30
0.00
  11
-11.86
  21
-28.12
  31
0.00
  0
LINE
  8
SPLAY
  10
8.63
  20
-14.20
  30
0.00
  11
-8.24
  21
18.34
  31
0.00
  0
LINE
  8
SPLAY
  10
-8.75
  20
21.01
  30
0.00
  11
-1.33
  21
20.19
  31
0.00
  0
LINE
  8
SPLAY
  10
-8.75
  20
21.01
  30
0.00
  11
8.39
  21
-70.98
  31
0.00
  0
LINE
  8
SPLAY
  10
-8.75
  20
21.01
  30
0.00
  11
-5.73
  21
-25.81
  31
0.00
  0
LINE
  8
SPLAY
  10
-8.75
  20
21.01
  30
0.00
  11
-5.39
  21
9.53
  31
0.00
  0
LINE
  8
SPLAY
  10
-8.75
  20
21.01
  30
0.00
  11
3.56
  21
21.31
  31
0.00
  0
LINE
  8
SPLAY
  10
-8.75
  20
21.01
  30
0.00
  11
-5.76
  21
62.99
  31
0.00
  0
LINE
  8
SPLAY
  10
-8.75
  20
21.01
  30
0.00
  11
3.85
  21
42.72
  31
0.00
  0
LINE
  8
SPLAY
  10
-8.75
  20
21.01
  30
0.00
  11
0.71
  21
28.95
  31
0.00
  0
LINE
  8
SPLAY
  10
-8.75
  20
21.01
  30
0.00
  11
1.05
  21
34.88
  31
0.00
  0
LINE
  8
SPLAY
  10
-8.75
  20
21.01
  30
0.00
  11
0.39
  21
-2.27
  31
0.00
  0
LINE
  8
SPLAY
  10
-8.75
  20
21.01
  30
0.00
  11
-1.63
  21
-20.03
  31
0.00
  0
LINE
  8
SPLAY
  10
-8.75
  20
21.01
  30
0.00
  11
5.48
  21
-3.35
  31
0.00
  0
LINE
  8
SPLAY
  10
-8.75
  20
21.01
  30
0.00
  11
-11.02
  21
81.10
  31
0.00
  0
LINE
  8
SPLAY
  10
-3.71
  20
65.02
  30
0.00
  11
-13.42
  21
56.80
  31
0.00
  0
LINE
  8
SPLAY
  10
-3.71
  20
65.02
  30
0.00
  11
-15.50
  21
70.94
  31
0.00
  0
LINE
  8
SPLAY
  10
-3.71
  20
65.02
  30
0.00
  11
-11.32
  21
63.97
  31
0.00
  0
LINE
  8
SPLAY
  10
-3.71
  20
65.02
  30
0.00
  11
-21.90
  21
95.34
  31
0.00
  0
LINE
  8
SPLAY
  10
-3.71
  20
65.02
  30
0.00
  11
0.65
  21
56.72
  31
0.00
  0
LINE
  8
SPLAY
  10
-3.71
  20
65.02
  30
0.00
  11
-5.42
  21
55.31
  31
0.00
  0
LINE
  8
SPLAY
  10
-3.71
  20
65.02
  30
0.00
  11
-2.16
  21
-31.98
  31
0.00
  0
LINE
  8
SPLAY
  10
-3.71
  20
65.02
  30
0.00
  11
-4.70
  21
-8.29
  31
0.00
  0
LINE
  8
SPLAY
  10
-3.71
  20
65.02
  30
0.00
  11
-4.26
  21
-26.89
  31
0.00
  0
LINE
  8
SPLAY
  10
-3.71
  20
65.02
  30
0.00
  11
5.46
  21
19.47
  31
0.00
  0
LINE
  8
SPLAY
  10
-3.71
  20
65.02
  30
0.00
  11
3.79
  21
31.29
  31
0.00
  0
LINE
  8
SPLAY
  10
-21.01
  20
68.34
  30
0.00
  11
-25.63
  21
109.18
  31
0.00
  0
LINE
  8
SPLAY
  10
-21.01
  20
68.34
  30
0.00
  11
-22.79
  21
109.82
  31
0.00
  0
LINE
  8
SPLAY
  10
-21.01
  20
68.34
  30
0.00
  11
-7.89
  21
81.16
  31
0.00
  0
LINE
  8
SPLAY
  10
-21.01
  20
68.34
  30
0.00
  11
-3.06
  21
66.91
  31
0.00
  0
LINE
  8
SPLAY
  10
-21.01
  20
68.34
  30
0.00
  11
-1.93
  21
57.59
  31
0.00
  0
LINE
  8
SPLAY
  10
-21.01
  20
68.34
  30
0.00
  11
-2.01
  21
63.60
  31
0.00
  0
LINE
  8
SPLAY
  10
-21.01
  20
68.34
  30
0.00
  11
-5.94
  21
68.65
  31
0.00
  0
LINE
  8
SPLAY
  10
-21.01
  20
68.34
  30
0.00
  11
-9.86
  21
49.53
  31
0.00
  0
LINE
  8
SPLAY
  10
-21.01
  20
68.34
  30
0.00
  11
-23.21
  21
-1.71
  31
0.00
  0
LINE
  8
SPLAY
  10
-21.01
  20
68.34
  30
0.00
  11
-20.16
  21
59.85
  31
0.00
  0
LINE
  8
SPLAY
  10
-13.82
  20
30.68
  30
0.00
  11
-13.41
  21
3.62
  31
0.00
  0
LINE
  8
SPLAY
  10
-13.82
  20
30.68
  30
0.00
  11
-25.75
  21
-12.33
  31
0.00
  0
LINE
  8
SPLAY
  10
-13.82
  20
30.68
  30
0.00
  11
-34.34
  21
-3.54
  31
0.00
  0
LINE
  8
SPLAY
  10
-13.82
  20
30.68
  30
0.00
  11
-40.34
  21
5.11
  31
0.00
  0
LINE
  8
SPLAY
  10
-13.82
  20
30.68
  30
0.00
  11
-51.17
  21
21.03
  31
0.00
  0
LINE
  8
SPLAY
  10
-13.82
  20
30.68
  30
0.00
  11
-55.09
  21
38.95
  31
0.00
  0
LINE
  8
SPLAY
  10
-13.82
  20
30.68
  30
0.00
  11
-58.36
  21
50.63
  31
0.00
  0
LINE
  8
SPLAY
  10
-13.82
  20
30.68
  30
0.00
  11
-55.91
  21
73.71
  31
0.00
  0
LINE
  8
SPLAY
  10
-13.82
  20
30.68
  30
0.00
  11
-48.07
  21
93.73
  31
0.00
  0
LINE
  8
SPLAY
  10
-13.82
  20
30.68
  30
0.00
  11
-31.21
  21
95.24
  31
0.00
  0
LINE
  8
SPLAY
  10
-13.82
  20
30.68
  30
0.00
  11
-13.52
  21
56.71
  31
0.00
  0
LINE
  8
SPLAY
  10
-13.82
  20
30.68
  30
0.00
  11
-38.75
  21
64.93
  31
0.00
  0
LINE
  8
SPLAY
  10
-13.82
  20
30.68
  30
0.00
  11
-15.02
  21
32.03
  31
0.00
  0
LINE
  8
SPLAY
  10
-13.82
  20
30.68
  30
0.00
  11
-29.84
  21
4.35
  31
0.00
  0
LINE
  8
SPLAY
  10
-13.82
  20
30.68
  30
0.00
  11
-22.42
  21
73.07
  31
0.00
  0
LINE
  8
SPLAY
  10
-13.82
  20
30.68
  30
0.00
  11
-21.26
  21
106.03
  31
0.00
  0
LINE
  8
SPLAY
  10
-13.82
  20
30.68
  30
0.00
  11
-28.29
  21
-32.49
  31
0.00
  0
LINE
  8
SPLAY
  10
-13.82
  20
30.68
  30
0.00
  11
-63.74
  21
-45.68
  31
0.00
  0
LINE
  8
SPLAY
  10
-13.82
  20
30.68
  30
0.00
  11
-75.55
  21
-7.85
  31
0.00
  0
LINE
  8
SPLAY
  10
-13.82
  20
30.68
  30
0.00
  11
-48.68
  21
-44.60
  31
0.00
  0
LINE
  8
SPLAY
  10
-13.82
  20
30.68
  30
0.00
  11
-45.69
  21
-52.43
  31
0.00
  0
LINE
  8
SPLAY
  10
-44.98
  20
-68.27
  30
0.00
  11
1.71
  21
-77.20
  31
0.00
  0
LINE
  8
SPLAY
  10
-44.98
  20
-68.27
  30
0.00
  11
5.41
  21
-123.23
  31
0.00
  0
LINE
  8
SPLAY
  10
-44.98
  20
-68.27
  30
0.00
  11
-39.27
  21
-78.63
  31
0.00
  0
LINE
  8
SPLAY
  10
-44.98
  20
-68.27
  30
0.00
  11
-39.60
  21
14.98
  31
0.00
  0
LINE
  8
SPLAY
  10
-44.98
  20
-68.27
  30
0.00
  11
-10.25
  21
2.86
  31
0.00
  0
LINE
  8
SPLAY
  10
-44.98
  20
-68.27
  30
0.00
  11
-5.98
  21
-42.52
  31
0.00
  0
LINE
  8
SPLAY
  10
-44.98
  20
-68.27
  30
0.00
  11
-1.05
  21
-63.35
  31
0.00
  0
LINE
  8
SPLAY
  10
-44.98
  20
-68.27
  30
0.00
  11
1.54
  21
-35.48
  31
0.00
  0
LINE
  8
SPLAY
  10
-44.98
  20
-68.27
  30
0.00
  11
-48.28
  21
7.29
  31
0.00
  0
LINE
  8
SPLAY
  10
-44.98
  20
-68.27
  30
0.00
  11
-22.16
  21
-50.30
  31
0.00
  0
LINE
  8
SPLAY
  10
-44.98
  20
-68.27
  30
0.00
  11
-40.17
  21
-64.09
  31
0.00
  0
LINE
  8
SPLAY
  10
-44.98
  20
-68.27
  30
0.00
  11
-8.32
  21
-63.16
  31
0.00
  0
LINE
  8
SPLAY
  10
-44.98
  20
-68.27
  30
0.00
  11
38.58
  21
-131.29
  31
0.00
  0
LINE
  8
SPLAY
  10
-44.98
  20
-68.27
  30
0.00
  11
-3.98
  21
-71.21
  31
0.00
  0
LINE
  8
SPLAY
  10
-44.98
  20
-68.27
  30
0.00
  11
-4.67
  21
-82.34
  31
0.00
  0
LINE
  8
SPLAY
  10
20.76
  20
-117.99
  30
0.00
  11
13.06
  21
-107.47
  31
0.00
  0
LINE
  8
SPLAY
  10
20.76
  20
-117.99
  30
0.00
  11
32.46
  21
-96.80
  31
0.00
  0
LINE
  8
SPLAY
  10
20.76
  20
-117.99
  30
0.00
  11
39.80
  21
-110.48
  31
0.00
  0
LINE
  8
SPLAY
  10
20.76
  20
-117.99
  30
0.00
  11
35.09
  21
-101.88
  31
0.00
  0
LINE
  8
SPLAY
  10
20.76
  20
-117.99
  30
0.00
  11
68.74
  21
-113.65
  31
0.00
  0
LINE
  8
SPLAY
  10
20.76
  20
-117.99
  30
0.00
  11
54.23
  21
-129.27
  31
0.00
  0
LINE
  8
SPLAY
  10
20.76
  20
-117.99
  30
0.00
  11
-26.66
  21
-100.02
  31
0.00
  0
LINE
  8
SPLAY
  10
20.76
  20
-117.99
  30
0.00
  11
-44.44
  21
-68.10
  31
0.00
  0
LINE
  8
SPLAY
  10
20.76
  20
-117.99
  30
0.00
  11
9.09
  21
-114.57
  31
0.00
  0
LINE
  8
SPLAY
  10
20.76
  20
-117.99
  30
0.00
  11
-17.47
  21
-101.36
  31
0.00
  0
LINE
  8
SPLAY
  10
20.76
  20
-117.99
  30
0.00
  11
-8.75
  21
-109.46
  31
0.00
  0
LINE
  8
SPLAY
  10
20.76
  20
-117.99
  30
0.00
  11
-21.52
  21
-90.47
  31
0.00
  0
LINE
  8
SPLAY
  10
20.76
  20
-117.99
  30
0.00
  11
-26.12
  21
-91.25
  31
0.00
  0
LINE
  8
SPLAY
  10
20.76
  20
-117.99
  30
0.00
  11
-28.47
  21
-84.16
  31
0.00
  0
LINE
  8
SPLAY
  10
47.83
  20
-94.80
  30
0.00
  11
96.23
  21
-73.39
  31
0.00
  0
LINE
  8
SPLAY
  10
47.83
  20
-94.80
  30
0.00
  11
88.00
  21
-111.63
  31
0.00
  0
LINE
  8
SPLAY
  10
47.83
  20
-94.80
  30
0.00
  11
72.29
  21
-126.74
  31
0.00
  0
LINE
  8
SPLAY
  10
47.83
  20
-94.80
  30
0.00
  11
13.01
  21
-134.34
  31
0.00
  0
LINE
  8
SPLAY
  10
47.83
  20
-94.80
  30
0.00
  11
54.48
  21
-138.76
  31
0.00
  0
LINE
  8
SPLAY
  10
47.83
  20
-94.80
  30
0.00
  11
34.52
  21
-126.55
  31
0.00
  0
LINE
  8
SPLAY
  10
47.83
  20
-94.80
  30
0.00
  11
27.00
  21
-119.62
  31
0.00
  0
LINE
  8
SPLAY
  10
47.83
  20
-94.80
  30
0.00
  11
59.72
  21
-123.37
  31
0.00
  0
LINE
  8
SPLAY
  10
47.83
  20
-94.80
  30
0.00
  11
85.20
  21
-97.50
  31
0.00
  0
LINE
  8
SPLAY
  10
47.83
  20
-94.80
  30
0.00
  11
107.77
  21
-98.76
  31
0.00
  0
LINE
  8
SPLAY
  10
47.83
  20
-94.80
  30
0.00
  11
100.45
  21
-76.34
  31
0.00
  0
LINE
  8
SPLAY
  10
47.83
  20
-94.80
  30
0.00
  11
105.50
  21
-115.49
  31
0.00
  0
LINE
  8
SPLAY
  10
47.83
  20
-94.80
  30
0.00
  11
104.41
  21
-138.78
  31
0.00
  0
LINE
  8
SPLAY
  10
47.83
  20
-94.80
  30
0.00
  11
92.66
  21
-96.20
  31
0.00
  0
LINE
  8
SPLAY
  10
47.83
  20
-94.80
  30
0.00
  11
103.10
  21
-118.31
  31
0.00
  0
LINE
  8
SPLAY
  10
100.00
  20
-120.00
  30
0.00
  11
39.33
  21
-74.85
  31
0.00
  0
LINE
  8
SPLAY
  10
100.00
  20
-120.00
  30
0.00
  11
55.69
  21
-73.56
  31
0.00
  0
LINE
  8
SPLAY
  10
100.00
  20
-120.00
  30
0.00
  11
85.20
  21
-84.93
  31
0.00
  0
LINE
  8
SPLAY
  10
100.00
  20
-120.00
  30
0.00
  11
9.69
  21
-94.04
  31
0.00
  0
LINE
  8
SPLAY
  10
100.00
  20
-120.00
  30
0.00
  11
4.52
  21
-109.61
  31
0.00
  0
LINE
  8
SPLAY
  10
100.00
  20
-120.00
  30
0.00
  11
35.42
  21
-138.68
  31
0.00
  0
LINE
  8
SPLAY
  10
100.00
  20
-120.00
  30
0.00
  11
54.11
  21
-164.31
  31
0.00
  0
LINE
  8
SPLAY
  10
100.00
  20
-120.00
  30
0.00
  11
81.03
  21
-168.56
  31
0.00
  0
LINE
  8
SPLAY
  10
100.00
  20
-120.00
  30
0.00
  11
108.17
  21
-159.09
  31
0.00
  0
LINE
  8
SPLAY
  10
100.00
  20
-120.00
  30
0.00
  11
56.74
  21
-159.18
  31
0.00
  0
LINE
  8
SPLAY
  10
100.00
  20
-120.00
  30
0.00
  11
11.12
  21
-122.57
  31
0.00
  0
LINE
  8
SPLAY
  10
100.00
  20
-120.00
  30
0.00
  11
40.59
  21
-149.81
  31
0.00
  0
LINE
  8
SPLAY
  10
100.00
  20
-120.00
  30
0.00
  11
26.58
  21
-160.68
  31
0.00
  0
LINE
  8
SPLAY
  10
100.00
  20
-120.00
  30
0.00
  11
80.68
  21
-145.20
  31
0.00
  0
LINE
  8
SPLAY
  10
44.67
  20
-129.50
  30
0.00
  11
-19.81
  21
-92.68
  31
0.00
  0
LINE
  8
SPLAY
  10
44.67
  20
-129.50
  30
0.00
  11
-25.19
  21
-81.50
  31
0.00
  0
LINE
  8
SPLAY
  10
44.67
  20
-129.50
  30
0.00
  11
-12.44
  21
-102.26
  31
0.00
  0
LINE
  8
SPLAY
  10
44.67
  20
-129.50
  30
0.00
  11
20.73
  21
-124.79
  31
0.00
  0
LINE
  8
SPLAY
  10
44.67
  20
-129.50
  30
0.00
  11
30.20
  21
-132.04
  31
0.00
  0
LINE
  8
SPLAY
  10
44.67
  20
-129.50
  30
0.00
  11
27.65
  21
-86.55
  31
0.00
  0
LINE
  8
SPLAY
  10
44.67
  20
-129.50
  30
0.00
  11
70.16
  21
-127.14
  31
0.00
  0
LINE
  8
SPLAY
  10
44.67
  20
-129.50
  30
0.00
  11
73.99
  21
-94.99
  31
0.00
  0
LINE
  8
SPLAY
  10
44.67
  20
-129.50
  30
0.00
  11
48.97
  21
-121.46
  31
0.00
  0
LINE
  8
SPLAY
  10
44.67
  20
-129.50
  30
0.00
  11
34.37
  21
-79.64
  31
0.00
  0
LINE
  8
SPLAY
  10
44.67
  20
-129.50
  30
0.00
  11
21.38
  21
-110.23
  31
0.00
  0
LINE
  8
SPLAY
  10
99.34
  20
-136.56
  30
0.00
  11
96.34
  21
-52.86
  31
0.00
  0
LINE
  8
SPLAY
  10
99.34
  20
-136.56
  30
0.00
  11
58.33
  21
-78.07
  31
0.00
  0
LINE
  8
SPLAY
  10
99.34
  20
-136.56
  30
0.00
  11
40.64
  21
-106.67
  31
0.00
  0
LINE
  8
SPLAY
  10
99.34
  20
-136.56
  30
0.00
  11
58.97
  21
-136.05
  31
0.00
  0
LINE
  8
SPLAY
  10
99.34
  20
-136.56
  30
0.00
  11
119.80
  21
-102.21
  31
0.00
  0
LINE
  8
SPLAY
  10
99.34
  20
-136.56
  30
0.00
  11
115.82
  21
-132.10
  31
0.00
  0
LINE
  8
SPLAY
  10
99.34
  20
-136.56
  30
0.00
  11
109.03
  21
-75.57
  31
0.00
  0
LINE
  8
SPLAY
  10
99.34
  20
-136.56
  30
0.00
  11
103.83
  21
-87.82
  31
0.00
  0
LINE
  8
SPLAY
  10
99.34
  20
-136.56
  30
0.00
  11
129.05
  21
-112.75
  31
0.00
  0
LINE
  8
SPLAY
  10
99.34
  20
-136.56
  30
0.00
  11
5.56
  21
-83.20
  31
0.00
  0
LINE
  8
SPLAY
  10
99.34
  20
-136.56
  30
0.00
  11
-26.99
  21
-87.32
  31
0.00
  0
LINE
  8
SPLAY
  10
99.34
  20
-136.56
  30
0.00
  11
5.58
  21
-113.17
  31
0.00
  0
LINE
  8
SPLAY
  10
99.34
  20
-136.56
  30
0.00
  11
80.62
  21
-150.85
  31
0.00
  0
LINE
  8
SPLAY
  10
99.34
  20
-136.56
  30
0.00
  11
115.12
  21
-140.75
  31
0.00
  0
LINE
  8
SPLAY
  10
99.34
  20
-136.56
  30
0.00
  11
141.51
  21
-76.85
  31
0.00
  0
LINE
  8
SPLAY
  10
197.14
  20
-65.35
  30
0.00
  11
223.41
  21
-21.85
  31
0.00
  0
LINE
  8
SPLAY
  10
197.14
  20
-65.35
  30
0.00
  11
245.11
  21
-51.29
  31
0.00
  0
LINE
  8
SPLAY
  10
197.14
  20
-65.35
  30
0.00
  11
272.73
  21
-80.69
  31
0.00
  0
LINE
  8
SPLAY
  10
197.14
  20
-65.35
  30
0.00
  11
343.67
  21
-157.28
  31
0.00
  0
LINE
  8
SPLAY
  10
197.14
  20
-65.35
  30
0.00
  11
220.49
  21
-92.70
  31
0.00
  0
POLYLINE
  8
L_wall
  66
1
  70
0
  0
VERTEX
  8
L_wall
  10
10.35
  20
-128.22
  30
0.00
  0
VERTEX
  8
L_wall
  10
13.39
  20
-131.23
  30
0.00
  0
VERTEX
  8
L_wall
  10
17.26
  20
-133.36
  30
0.00
  0
VERTEX
  8
L_wall
  10
22.84
  20
-135.61
  30
0.00
  0
VERTEX
  8
L_wall
  10
27.72
  20
-135.73
  30
0.00
  0
VERTEX
  8
L_wall
  10
33.08
  20
-135.47
  30
0.00
  0
VERTEX
  8
L_wall
  10
38.19
  20
-135.14
  30
0.00
  0
VERTEX
  8
L_wall
  10
44.80
  20
-134.85
  30
0.00
  0
VERTEX
  8
L_wall
  10
52.32
  20
-134.35
  30
0.00
  0
VERTEX
  8
L_wall
  10
57.81
  20
-135.83
  30
0.00
  0
VERTEX
  8
L_wall
  10
64.05
  20
-137.01
  30
0.00
  0
VERTEX
  8
L_wall
  10
69.78
  20
-138.10
  30
0.00
  0
VERTEX
  8
L_wall
  10
75.30
  20
-138.79
  30
0.00
  0
VERTEX
  8
L_wall
  10
80.56
  20
-139.57
  30
0.00
  0
VERTEX
  8
L_wall
  10
85.97
  20
-141.16
  30
0.00
  0
VERTEX
  8
L_wall
  10
90.51
  20
-140.77
  30
0.00
  0
VERTEX
  8
L_wall
  10
95.43
  20
-138.62
  30
0.00
  0
VERTEX
  8
L_wall
  10
99.71
  20
-139.88
  30
0.00
  0
VERTEX
  8
L_wall
  10
104.33
  20
-140.27
  30
0.00
  0
SEQEND
  0
POLYLINE
  8
L_wall
  66
1
  70
0
  0
VERTEX
  8
L_wall
  10
11.73
  20
-90.10
  30
0.00
  0
VERTEX
  8
L_wall
  10
15.57
  20
-86.91
  30
0.00
  0
VERTEX
  8
L_wall
  10
21.21
  20
-84.37
  30
0.00
  0
VERTEX
  8
L_wall
  10
29.55
  20
-83.31
  30
0.00
  0
VERTEX
  8
L_wall
  10
37.67
  20
-82.55
  30
0.00
  0
VERTEX
  8
L_wall
  10
43.12
  20
-82.69
  30
0.00
  0
VERTEX
  8
L_wall
  10
51.08
  20
-83.90
  30
0.00
  0
VERTEX
  8
L_wall
  10
55.55
  20
-84.67
  30
0.00
  0
VERTEX
  8
L_wall
  10
61.40
  20
-85.84
  30
0.00
  0
VERTEX
  8
L_wall
  10
65.92
  20
-87.73
  30
0.00
  0
VERTEX
  8
L_wall
  10
70.42
  20
-89.58
  30
0.00
  0
VERTEX
  8
L_wall
  10
74.55
  20
-90.96
  30
0.00
  0
VERTEX
  8
L_wall
  10
79.06
  20
-91.88
  30
0.00
  0
VERTEX
  8
L_wall
  10
83.55
  20
-93.63
  30
0.00
  0
VERTEX
  8
L_wall
  10
88.34
  20
-94.94
  30
0.00
  0
VERTEX
  8
L_wall
  10
93.68
  20
-97.42
  30
0.00
  0
VERTEX
  8
L_wall
  10
98.44
  20
-99.77
  30
0.00
  0
VERTEX
  8
L_wall
  10
100.06
  20
-101.12
  30
0.00
  0
SEQEND
  0
POLYLINE
  8
L_pit
  66
1
  70
0
  0
VERTEX
  8
L_pit
  10
55.96
  20
-80.82
  30
0.00
  0
VERTEX
  8
L_pit
  10
51.89
  20
-85.38
  30
0.00
  0
VERTEX
  8
L_pit
  10
48.74
  20
-90.13
  30
0.00
  0
VERTEX
  8
L_pit
  10
45.42
  20
-96.25
  30
0.00
  0
VERTEX
  8
L_pit
  10
43.40
  20
-102.45
  30
0.00
  0
VERTEX
  8
L_pit
  10
41.78
  20
-106.42
  30
0.00
  0
VERTEX
  8
L_pit
  10
39.67
  20
-113.11
  30
0.00
  0
VERTEX
  8
L_pit
  10
38.98
  20
-118.32
  30
0.00
  0
VERTEX
  8
L_pit
  10
38.98
  20
-125.11
  30
0.00
  0
VERTEX
  8
L_pit
  10
38.98
  20
-130.48
  30
0.00
  0
VERTEX
  8
L_pit
  10
39.37
  20
-135.22
  30
0.00
  0
VERTEX
  8
L_pit
  10
41.40
  20
-138.01
  30
0.00
  0
SEQEND
  0
POLYLINE
  8
L_wall
  66
1
  70
0
  0
VERTEX
  8
L_wall
  10
10.35
  20
-128.22
  30
0.00
  0
VERTEX
  8
L_wall
  10
11.05
  20
-126.29
  30
0.00
  0
VERTEX
  8
L_wall
  10
4.61
  20
-132.39
  30
0.00
  0
VERTEX
  8
L_wall
  10
0.07
  20
-137.32
  30
0.00
  0
VERTEX
  8
L_wall
  10
-3.67
  20
-142.38
  30
0.00
  0
SEQEND
  0
POLYLINE
  8
L_wall
  66
1
  70
0
  0
VERTEX
  8
L_wall
  10
18.56
  20
-112.39
  30
0.00
  0
VERTEX
  8
L_wall
  10
14.38
  20
-115.79
  30
0.00
  0
VERTEX
  8
L_wall
  10
8.94
  20
-119.56
  30
0.00
  0
VERTEX
  8
L_wall
  10
3.26
  20
-125.13
  30
0.00
  0
VERTEX
  8
L_wall
  10
1.45
  20
-130.50
  30
0.00
  0
SEQEND
  0
INSERT
  8
POINT
  2
P_continuation
  41
10.00
  42
10.00
  50
360.00
  10
-14.27
  20
-148.76
  30
0.00
  0
POLYLINE
  8
L_wall
  66
1
  70
0
  0
VERTEX
  8
L_wall
  10
219.74
  20
-91.51
  30
0.00
  0
VERTEX
  8
L_wall
  10
213.81
  20
-95.10
  30
0.00
  0
VERTEX
  8
L_wall
  10
208.24
  20
-98.59
  30
0.00
  0
VERTEX
  8
L_wall
  10
201.73
  20
-102.76
  30
0.00
  0
VERTEX
  8
L_wall
  10
196.59
  20
-105.83
  30
0.00
  0
VERTEX
  8
L_wall
  10
190.60
  20
-108.56
  30
0.00
  0
VERTEX
  8
L_wall
  10
184.27
  20
-110.80
  30
0.00
  0
VERTEX
  8
L_wall
  10
176.07
  20
-114.87
  30
0.00
  0
VERTEX
  8
L_wall
  10
169.11
  20
-117.64
  30
0.00
  0
VERTEX
  8
L_wall
  10
159.86
  20
-121.87
  30
0.00
  0
VERTEX
  8
L_wall
  10
152.17
  20
-126.82
  30
0.00
  0
VERTEX
  8
L_wall
  10
141.48
  20
-133.42
  30
0.00
  0
VERTEX
  8
L_wall
  10
134.88
  20
-136.71
  30
0.00
  0
VERTEX
  8
L_wall
  10
128.19
  20
-137.40
  30
0.00
  0
VERTEX
  8
L_wall
  10
121.17
  20
-140.00
  30
0.00
  0
VERTEX
  8
L_wall
  10
115.29
  20
-140.40
  30
0.00
  0
VERTEX
  8
L_wall
  10
110.21
  20
-140.75
  30
0.00
  0
VERTEX
  8
L_wall
  10
105.76
  20
-140.15
  30
0.00
  0
SEQEND
  0
POLYLINE
  8
L_wall
  66
1
  70
0
  0
VERTEX
  8
L_wall
  10
102.47
  20
-102.78
  30
0.00
  0
VERTEX
  8
L_wall
  10
109.24
  20
-98.99
  30
0.00
  0
VERTEX
  8
L_wall
  10
118.67
  20
-95.15
  30
0.00
  0
VERTEX
  8
L_wall
  10
126.99
  20
-93.37
  30
0.00
  0
VERTEX
  8
L_wall
  10
132.68
  20
-91.24
  30
0.00
  0
VERTEX
  8
L_wall
  10
139.65
  20
-86.83
  30
0.00
  0
VERTEX
  8
L_wall
  10
146.80
  20
-83.07
  30
0.00
  0
VERTEX
  8
L_wall
  10
152.76
  20
-80.23
  30
0.00
  0
VERTEX
  8
L_wall
  10
157.66
  20
-77.09
  30
0.00
  0
VERTEX
  8
L_wall
  10
163.28
  20
-74.63
  30
0.00
  0
VERTEX
  8
L_wall
  10
169.74
  20
-71.51
  30
0.00
  0
VERTEX
  8
L_wall
  10
174.56
  20
-67.33
  30
0.00
  0
VERTEX
  8
L_wall
  10
180.32
  20
-64.38
  30
0.00
  0
VERTEX
  8
L_wall
  10
185.00
  20
-61.24
  30
0.00
  0
VERTEX
  8
L_wall
  10
190.44
  20
-57.11
  30
0.00
  0
SEQEND
  0
POLYLINE
  8
L_wall-presumed
  66
1
  70
0
  0
VERTEX
  8
L_wall-presumed
  10
190.44
  20
-57.11
  30
0.00
  0
VERTEX
  8
L_wall-presumed
  10
206.95
  20
-33.77
  30
0.00
  0
VERTEX
  8
L_wall-presumed
  10
220.20
  20
-24.52
  30
0.00
  0
VERTEX
  8
L_wall-presumed
  10
235.12
  20
-27.16
  30
0.00
  0
VERTEX
  8
L_wall-presumed
  10
245.76
  20
-38.18
  30
0.00
  0
VERTEX
  8
L_wall-presumed
  10
258.70
  20
-51.08
  30
0.00
  0
VERTEX
  8
L_wall-presumed
  10
268.99
  20
-62.97
  30
0.00
  0
VERTEX
  8
L_wall-presumed
  10
280.43
  20
-77.25
  30
0.00
  0
VERTEX
  8
L_wall-presumed
  10
292.57
  20
-91.28
  30
0.00
  0
VERTEX
  8
L_wall-presumed
  10
302.95
  20
-103.10
  30
0.00
  0
VERTEX
  8
L_wall-presumed
  10
316.99
  20
-114.00
  30
0.00
  0
VERTEX
  8
L_wall-presumed
  10
321.12
  20
-121.43
  30
0.00
  0
SEQEND
  0
POLYLINE
  8
L_wall-presumed
  66
1
  70
0
  0
VERTEX
  8
L_wall-presumed
  10
219.74
  20
-91.51
  30
0.00
  0
VERTEX
  8
L_wall-presumed
  10
234.40
  20
-103.68
  30
0.00
  0
VERTEX
  8
L_wall-presumed
  10
246.03
  20
-116.28
  30
0.00
  0
VERTEX
  8
L_wall-presumed
  10
260.10
  20
-128.47
  30
0.00
  0
VERTEX
  8
L_wall-presumed
  10
273.41
  20
-139.91
  30
0.00
  0
VERTEX
  8
L_wall-presumed
  10
283.25
  20
-151.73
  30
0.00
  0
VERTEX
  8
L_wall-presumed
  10
291.73
  20
-157.48
  30
0.00
  0
SEQEND
  0
POLYLINE
  8
L_pit
  66
1
  70
0
  0
VERTEX
  8
L_pit
  10
210.41
  20
-29.42
  30
0.00
  0
VERTEX
  8
L_pit
  10
197.27
  20
-38.80
  30
0.00
  0
VERTEX
  8
L_pit
  10
195.35
  20
-56.77
  30
0.00
  0
VERTEX
  8
L_pit
  10
196.54
  20
-74.89
  30
0.00
  0
VERTEX
  8
L_pit
  10
204.99
  20
-90.28
  30
0.00
  0
VERTEX
  8
L_pit
  10
215.73
  20
-101.03
  30
0.00
  0
SEQEND
  0
INSERT
  8
POINT
  2
P_blocks
  41
10.00
  42
10.00
  50
360.00
  10
194.60
  20
-77.40
  30
0.00
  0
INSERT
  8
POINT
  2
P_blocks
  41
10.00
  42
10.00
  50
360.00
  10
177.99
  20
-94.20
  30
0.00
  0
ENDSEC
  0
EOF
