  999
DXF created by TopoDroid v. 3.1.4
  0
SECTION
  2
HEADER
  9
$ACADVER
  1
AC1009
  9
$INSBASE
  10
0.00
  20
0.00
  30
0.00
  9
$EXTMIN
  10
9998.00
  20
9998.00
  30
0.00
  9
$EXTMAX
  10
-10000.00
  20
-10000.00
  30
0.00
  0
ENDSEC
  0
SECTION
  2
TABLES
  0
TABLE
  2
LTYPE
  70
1
  0
LTYPE
  2
CONTINUOUS
  70
64
  3
Solid line
  72
65
  73
0
  40
0.0
  0
ENDTAB
  0
TABLE
  2
LAYER
  70
36
  0
LAYER
  2
LEG
  70
0
  62
1
  6
CONTINUOUS
  0
LAYER
  2
SPLAY
  70
0
  62
2
  6
CONTINUOUS
  0
LAYER
  2
STATION
  70
0
  62
3
  6
CONTINUOUS
  0
LAYER
  2
LINE
  70
0
  62
4
  6
CONTINUOUS
  0
LAYER
  2
POINT
  70
0
  62
5
  6
CONTINUOUS
  0
LAYER
  2
REF
  70
0
  62
6
  6
CONTINUOUS
  0
LAYER
  2
L_u-user
  70
0
  62
7
  6
CONTINUOUS
  0
LAYER
  2
L_wall
  70
0
  62
8
  6
CONTINUOUS
  0
LAYER
  2
L_arrow
  70
0
  62
9
  6
CONTINUOUS
  0
LAYER
  2
L_border
  70
0
  62
10
  6
CONTINUOUS
  0
LAYER
  2
L_ceiling-meander
  70
0
  62
11
  6
CONTINUOUS
  0
LAYER
  2
L_chimney
  70
0
  62
12
  6
CONTINUOUS
  0
LAYER
  2
L_contour
  70
0
  62
13
  6
CONTINUOUS
  0
LAYER
  2
L_fault
  70
0
  62
14
  6
CONTINUOUS
  0
LAYER
  2
L_floor-meander
  70
0
  62
15
  6
CONTINUOUS
  0
LAYER
  2
L_overhang
  70
0
  62
16
  6
CONTINUOUS
  0
LAYER
  2
L_pit
  70
0
  62
17
  6
CONTINUOUS
  0
LAYER
  2
L_wall-presumed
  70
0
  62
18
  6
CONTINUOUS
  0
LAYER
  2
L_rock-border
  70
0
  62
19
  6
CONTINUOUS
  0
LAYER
  2
L_section
  70
0
  62
20
  6
CONTINUOUS
  0
LAYER
  2
L_slope
  70
0
  62
21
  6
CONTINUOUS
  0
LAYER
  2
L_wall-blocks
  70
0
  62
22
  6
CONTINUOUS
  0
LAYER
  2
L_wall-clay
  70
0
  62
23
  6
CONTINUOUS
  0
LAYER
  2
L_wall-debris
  70
0
  62
24
  6
CONTINUOUS
  0
LAYER
  2
L_wall-ice
  70
0
  62
25
  6
CONTINUOUS
  0
LAYER
  2
L_wall-sand
  70
0
  62
26
  6
CONTINUOUS
  0
LAYER
  2
L_water-flow
  70
0
  62
27
  6
CONTINUOUS
  0
LAYER
  2
A_u-user
  70
0
  62
28
  6
CONTINUOUS
  0
LAYER
  2
A_water
  70
0
  62
29
  6
CONTINUOUS
  0
LAYER
  2
A_blocks
  70
0
  62
30
  6
CONTINUOUS
  0
LAYER
  2
A_clay
  70
0
  62
31
  6
CONTINUOUS
  0
LAYER
  2
A_debris
  70
0
  62
32
  6
CONTINUOUS
  0
LAYER
  2
A_ice
  70
0
  62
33
  6
CONTINUOUS
  0
LAYER
  2
A_pebbles
  70
0
  62
34
  6
CONTINUOUS
  0
LAYER
  2
A_sand
  70
0
  62
35
  6
CONTINUOUS
  0
LAYER
  2
A_snow
  70
0
  62
36
  6
CONTINUOUS
  0
ENDTAB
  0
TABLE
  2
VIEW
  70
0
  0
ENDTAB
  0
TABLE
  2
UCS
  70
0
  0
ENDTAB
  0
TABLE
  2
APPID
  70
1
  0
APPID
  2
ACAD
  70
0
  0
ENDTAB
  0
ENDSEC
  0
SECTION
  2
BLOCKS
  0
BLOCK
  8
POINT
  2
P_u-user
  70
64
  10
0.0
  20
0.0
  30
0.0
  0
CIRCLE
  8
POINT
  10
0.00
  20
-0.00
  30
0.00
  40
0.30
  0
ENDBLK
  0
BLOCK
  8
POINT
  2
P_label
  70
64
  10
0.0
  20
0.0
  30
0.0
  0
LINE
  8
POINT
  10
0.00
  20
-0.15
  30
0.00
  11
0.00
  21
0.30
  31
0.00
  0
LINE
  8
POINT
  10
0.00
  20
0.30
  30
0.00
  11
-0.15
  21
0.30
  31
0.00
  0
LINE
  8
POINT
  10
-0.15
  20
0.30
  30
0.00
  11
0.15
  21
0.30
  31
0.00
  0
ENDBLK
  0
BLOCK
  8
POINT
  2
P_air-draught
  70
64
  10
0.0
  20
0.0
  30
0.0
  0
LINE
  8
POINT
  10
-0.20
  20
-0.35
  30
0.00
  11
0.00
  21
-0.15
  31
0.00
  0
LINE
  8
POINT
  10
0.00
  20
-0.15
  30
0.00
  11
0.00
  21
0.50
  31
0.00
  0
LINE
  8
POINT
  10
0.00
  20
0.50
  30
0.00
  11
0.20
  21
0.30
  31
0.00
  0
LINE
  8
POINT
  10
0.00
  20
0.50
  30
0.00
  11
-0.20
  21
0.30
  31
0.00
  0
LINE
  8
POINT
  10
-0.20
  20
-0.20
  30
0.00
  11
0.00
  21
-0.00
  31
0.00
  0
ENDBLK
  0
BLOCK
  8
POINT
  2
P_anchor
  70
64
  10
0.0
  20
0.0
  30
0.0
  0
LINE
  8
POINT
  10
0.25
  20
-0.00
  30
0.00
  11
-0.25
  21
-0.00
  31
0.00
  0
CIRCLE
  8
POINT
  10
0.00
  20
-0.00
  30
0.00
  40
0.25
  0
ENDBLK
  0
BLOCK
  8
POINT
  2
P_aragonite
  70
64
  10
0.0
  20
0.0
  30
0.0
  0
LINE
  8
POINT
  10
0.00
  20
0.25
  30
0.00
  11
0.00
  21
-0.35
  31
0.00
  0
LINE
  8
POINT
  10
-0.10
  20
0.35
  30
0.00
  11
0.00
  21
0.25
  31
0.00
  0
LINE
  8
POINT
  10
0.00
  20
0.25
  30
0.00
  11
0.10
  21
0.35
  31
0.00
  0
LINE
  8
POINT
  10
-0.15
  20
0.20
  30
0.00
  11
0.00
  21
0.05
  31
0.00
  0
LINE
  8
POINT
  10
0.00
  20
0.05
  30
0.00
  11
0.15
  21
0.20
  31
0.00
  0
ENDBLK
  0
BLOCK
  8
POINT
  2
P_archeo-material
  70
64
  10
0.0
  20
0.0
  30
0.0
  0
LINE
  8
POINT
  10
-0.17
  20
-0.17
  30
0.00
  11
0.00
  21
-0.00
  31
0.00
  0
LINE
  8
POINT
  10
-0.17
  20
0.17
  30
0.00
  11
0.00
  21
-0.00
  31
0.00
  0
LINE
  8
POINT
  10
0.00
  20
-0.00
  30
0.00
  11
0.25
  21
-0.00
  31
0.00
  0
CIRCLE
  8
POINT
  10
0.00
  20
-0.00
  30
0.00
  40
0.25
  0
ENDBLK
  0
BLOCK
  8
POINT
  2
P_blocks
  70
64
  10
0.0
  20
0.0
  30
0.0
  0
LINE
  8
POINT
  10
-0.35
  20
-0.20
  30
0.00
  11
0.40
  21
-0.25
  31
0.00
  0
LINE
  8
POINT
  10
0.40
  20
-0.25
  30
0.00
  11
0.35
  21
0.25
  31
0.00
  0
LINE
  8
POINT
  10
0.35
  20
0.25
  30
0.00
  11
-0.25
  21
0.30
  31
0.00
  0
LINE
  8
POINT
  10
-0.25
  20
0.30
  30
0.00
  11
-0.35
  21
0.20
  31
0.00
  0
LINE
  8
POINT
  10
-0.35
  20
0.20
  30
0.00
  11
-0.35
  21
-0.20
  31
0.00
  0
LINE
  8
POINT
  10
-0.35
  20
-0.20
  30
0.00
  11
-0.30
  21
-0.10
  31
0.00
  0
LINE
  8
POINT
  10
-0.30
  20
-0.10
  30
0.00
  11
-0.25
  21
0.10
  31
0.00
  0
LINE
  8
POINT
  10
-0.25
  20
0.10
  30
0.00
  11
-0.20
  21
0.20
  31
0.00
  0
LINE
  8
POINT
  10
-0.20
  20
0.20
  30
0.00
  11
0.25
  21
0.15
  31
0.00
  0
LINE
  8
POINT
  10
0.25
  20
0.15
  30
0.00
  11
0.35
  21
0.25
  31
0.00
  0
LINE
  8
POINT
  10
-0.20
  20
0.20
  30
0.00
  11
-0.25
  21
0.30
  31
0.00
  0
ENDBLK
  0
BLOCK
  8
POINT
  2
P_breakdown-choke
  70
64
  10
0.0
  20
0.0
  30
0.0
  0
LINE
  8
POINT
  10
-0.20
  20
-0.20
  30
0.00
  11
0.20
  21
0.20
  31
0.00
  0
LINE
  8
POINT
  10
-0.20
  20
0.20
  30
0.00
  11
0.20
  21
-0.20
  31
0.00
  0
ENDBLK
  0
BLOCK
  8
POINT
  2
P_clay
  70
64
  10
0.0
  20
0.0
  30
0.0
  0
ARC
  8
POINT
  10
-0.15
  20
-0.00
  30
0.00
  40
0.15
  50
90.00
  51
180.00
  0
ARC
  8
POINT
  10
-0.15
  20
-0.00
  30
0.00
  40
0.15
  50
0.00
  51
90.00
  0
ARC
  8
POINT
  10
0.15
  20
-0.00
  30
0.00
  40
0.15
  50
180.00
  51
270.00
  0
ARC
  8
POINT
  10
0.15
  20
-0.00
  30
0.00
  40
0.15
  50
270.00
  51
360.00
  0
ENDBLK
  0
BLOCK
  8
POINT
  2
P_continuation
  70
64
  10
0.0
  20
0.0
  30
0.0
  0
LINE
  8
POINT
  10
0.00
  20
-0.15
  30
0.00
  11
0.00
  21
-0.00
  31
0.00
  0
ARC
  8
POINT
  10
0.10
  20
-0.00
  30
0.00
  40
0.10
  50
90.00
  51
180.00
  0
ARC
  8
POINT
  10
0.00
  20
0.15
  30
0.00
  40
0.10
  50
0.00
  51
90.00
  0
ARC
  8
POINT
  10
-0.15
  20
0.30
  30
0.00
  40
0.15
  50
270.00
  51
360.00
  0
LINE
  8
POINT
  10
0.00
  20
-0.35
  30
0.00
  11
0.00
  21
-0.25
  31
0.00
  0
ENDBLK
  0
BLOCK
  8
POINT
  2
P_crystal
  70
64
  10
0.0
  20
0.0
  30
0.0
  0
LINE
  8
POINT
  10
-0.25
  20
-0.00
  30
0.00
  11
0.25
  21
-0.00
  31
0.00
  0
LINE
  8
POINT
  10
0.00
  20
0.25
  30
0.00
  11
0.00
  21
-0.25
  31
0.00
  0
LINE
  8
POINT
  10
0.00
  20
-0.25
  30
0.00
  11
0.25
  21
-0.00
  31
0.00
  0
LINE
  8
POINT
  10
0.25
  20
-0.00
  30
0.00
  11
0.00
  21
0.25
  31
0.00
  0
LINE
  8
POINT
  10
0.00
  20
0.25
  30
0.00
  11
-0.25
  21
-0.00
  31
0.00
  0
LINE
  8
POINT
  10
-0.25
  20
-0.00
  30
0.00
  11
0.00
  21
-0.25
  31
0.00
  0
ENDBLK
  0
BLOCK
  8
POINT
  2
P_curtain
  70
64
  10
0.0
  20
0.0
  30
0.0
  0
LINE
  8
POINT
  10
-0.20
  20
0.20
  30
0.00
  11
0.00
  21
-0.00
  31
0.00
  0
LINE
  8
POINT
  10
0.00
  20
-0.00
  30
0.00
  11
0.20
  21
0.20
  31
0.00
  0
LINE
  8
POINT
  10
0.00
  20
-0.00
  30
0.00
  11
0.00
  21
-0.10
  31
0.00
  0
ARC
  8
POINT
  10
0.00
  20
-0.20
  30
0.00
  40
0.10
  50
90.00
  51
180.00
  0
ARC
  8
POINT
  10
0.00
  20
-0.20
  30
0.00
  40
0.10
  50
180.00
  51
270.00
  0
LINE
  8
POINT
  10
0.00
  20
-0.30
  30
0.00
  11
0.00
  21
-0.40
  31
0.00
  0
ENDBLK
  0
BLOCK
  8
POINT
  2
P_u-danger
  70
64
  10
0.0
  20
0.0
  30
0.0
  0
LINE
  8
POINT
  10
0.00
  20
-0.00
  30
0.00
  11
0.10
  21
0.40
  31
0.00
  0
LINE
  8
POINT
  10
0.10
  20
0.40
  30
0.00
  11
-0.10
  21
0.40
  31
0.00
  0
LINE
  8
POINT
  10
-0.10
  20
0.40
  30
0.00
  11
0.00
  21
-0.00
  31
0.00
  0
CIRCLE
  8
POINT
  10
0.00
  20
-0.20
  30
0.00
  40
0.10
  0
ENDBLK
  0
BLOCK
  8
POINT
  2
P_debris
  70
64
  10
0.0
  20
0.0
  30
0.0
  0
LINE
  8
POINT
  10
0.00
  20
-0.00
  30
0.00
  11
0.20
  21
-0.05
  31
0.00
  0
LINE
  8
POINT
  10
0.20
  20
-0.05
  30
0.00
  11
0.10
  21
0.15
  31
0.00
  0
LINE
  8
POINT
  10
0.10
  20
0.15
  30
0.00
  11
0.00
  21
-0.00
  31
0.00
  0
LINE
  8
POINT
  10
0.00
  20
-0.00
  30
0.00
  11
-0.20
  21
-0.00
  31
0.00
  0
LINE
  8
POINT
  10
-0.20
  20
-0.00
  30
0.00
  11
-0.10
  21
0.20
  31
0.00
  0
LINE
  8
POINT
  10
-0.10
  20
0.20
  30
0.00
  11
0.00
  21
-0.00
  31
0.00
  0
ENDBLK
  0
BLOCK
  8
POINT
  2
P_dig
  70
64
  10
0.0
  20
0.0
  30
0.0
  0
LINE
  8
POINT
  10
-0.25
  20
0.10
  30
0.00
  11
-0.05
  21
0.30
  31
0.00
  0
LINE
  8
POINT
  10
-0.15
  20
0.20
  30
0.00
  11
0.20
  21
-0.15
  31
0.00
  0
LINE
  8
POINT
  10
0.25
  20
0.10
  30
0.00
  11
0.05
  21
0.30
  31
0.00
  0
LINE
  8
POINT
  10
0.15
  20
0.20
  30
0.00
  11
-0.20
  21
-0.15
  31
0.00
  0
ENDBLK
  0
BLOCK
  8
POINT
  2
P_disc
  70
64
  10
0.0
  20
0.0
  30
0.0
  0
CIRCLE
  8
POINT
  10
0.00
  20
0.15
  30
0.00
  40
0.15
  0
LINE
  8
POINT
  10
-0.10
  20
-0.15
  30
0.00
  11
0.00
  21
-0.00
  31
0.00
  0
LINE
  8
POINT
  10
0.00
  20
-0.00
  30
0.00
  11
0.10
  21
-0.15
  31
0.00
  0
ENDBLK
  0
BLOCK
  8
POINT
  2
P_entrance
  70
64
  10
0.0
  20
0.0
  30
0.0
  0
LINE
  8
POINT
  10
0.00
  20
0.30
  30
0.00
  11
-0.15
  21
-0.15
  31
0.00
  0
LINE
  8
POINT
  10
-0.15
  20
-0.15
  30
0.00
  11
0.15
  21
-0.15
  31
0.00
  0
LINE
  8
POINT
  10
0.15
  20
-0.15
  30
0.00
  11
0.00
  21
0.30
  31
0.00
  0
ENDBLK
  0
BLOCK
  8
POINT
  2
P_flowstone
  70
64
  10
0.0
  20
0.0
  30
0.0
  0
LINE
  8
POINT
  10
-0.30
  20
0.10
  30
0.00
  11
-0.05
  21
0.10
  31
0.00
  0
LINE
  8
POINT
  10
0.10
  20
0.10
  30
0.00
  11
0.35
  21
0.10
  31
0.00
  0
LINE
  8
POINT
  10
-0.15
  20
-0.10
  30
0.00
  11
0.15
  21
-0.10
  31
0.00
  0
ENDBLK
  0
BLOCK
  8
POINT
  2
P_flute
  70
64
  10
0.0
  20
0.0
  30
0.0
  0
LINE
  8
POINT
  10
-0.30
  20
-0.00
  30
0.00
  11
0.30
  21
-0.00
  31
0.00
  0
ARC
  8
POINT
  10
0.00
  20
-0.00
  30
0.00
  40
0.15
  50
90.00
  51
180.00
  0
ARC
  8
POINT
  10
0.00
  20
-0.00
  30
0.00
  40
0.15
  50
0.00
  51
90.00
  0
ENDBLK
  0
BLOCK
  8
POINT
  2
P_gradient
  70
64
  10
0.0
  20
0.0
  30
0.0
  0
LINE
  8
POINT
  10
0.00
  20
-0.40
  30
0.00
  11
0.00
  21
0.20
  31
0.00
  0
LINE
  8
POINT
  10
0.00
  20
0.20
  30
0.00
  11
-0.10
  21
0.10
  31
0.00
  0
LINE
  8
POINT
  10
-0.10
  20
0.10
  30
0.00
  11
0.10
  21
0.10
  31
0.00
  0
LINE
  8
POINT
  10
0.10
  20
0.10
  30
0.00
  11
0.00
  21
0.20
  31
0.00
  0
ENDBLK
  0
BLOCK
  8
POINT
  2
P_guano
  70
64
  10
0.0
  20
0.0
  30
0.0
  0
ARC
  8
POINT
  10
-0.12
  20
-0.00
  30
0.00
  40
0.12
  50
0.00
  51
180.00
  0
LINE
  8
POINT
  10
0.00
  20
-0.00
  30
0.00
  11
0.00
  21
-0.30
  31
0.00
  0
ARC
  8
POINT
  10
0.12
  20
-0.00
  30
0.00
  40
0.12
  50
0.00
  51
180.00
  0
ENDBLK
  0
BLOCK
  8
POINT
  2
P_gypsum
  70
64
  10
0.0
  20
0.0
  30
0.0
  0
LINE
  8
POINT
  10
-0.25
  20
-0.00
  30
0.00
  11
0.00
  21
0.25
  31
0.00
  0
LINE
  8
POINT
  10
0.00
  20
0.25
  30
0.00
  11
0.00
  21
-0.25
  31
0.00
  0
LINE
  8
POINT
  10
0.00
  20
-0.25
  30
0.00
  11
0.25
  21
-0.00
  31
0.00
  0
LINE
  8
POINT
  10
0.25
  20
-0.00
  30
0.00
  11
-0.25
  21
-0.00
  31
0.00
  0
ENDBLK
  0
BLOCK
  8
POINT
  2
P_helictite
  70
64
  10
0.0
  20
0.0
  30
0.0
  0
LINE
  8
POINT
  10
0.00
  20
0.35
  30
0.00
  11
0.00
  21
-0.35
  31
0.00
  0
LINE
  8
POINT
  10
-0.15
  20
0.25
  30
0.00
  11
-0.15
  21
-0.00
  31
0.00
  0
LINE
  8
POINT
  10
-0.15
  20
-0.00
  30
0.00
  11
0.15
  21
-0.00
  31
0.00
  0
LINE
  8
POINT
  10
0.15
  20
-0.00
  30
0.00
  11
0.15
  21
-0.25
  31
0.00
  0
ENDBLK
  0
BLOCK
  8
POINT
  2
P_ice
  70
64
  10
0.0
  20
0.0
  30
0.0
  0
LINE
  8
POINT
  10
-0.25
  20
-0.00
  30
0.00
  11
0.25
  21
-0.00
  31
0.00
  0
LINE
  8
POINT
  10
0.00
  20
0.25
  30
0.00
  11
0.00
  21
-0.25
  31
0.00
  0
ENDBLK
  0
BLOCK
  8
POINT
  2
P_low-end
  70
64
  10
0.0
  20
0.0
  30
0.0
  0
LINE
  8
POINT
  10
-0.30
  20
0.10
  30
0.00
  11
0.30
  21
0.10
  31
0.00
  0
LINE
  8
POINT
  10
-0.30
  20
-0.10
  30
0.00
  11
0.30
  21
-0.10
  31
0.00
  0
ENDBLK
  0
BLOCK
  8
POINT
  2
P_moonmilk
  70
64
  10
0.0
  20
0.0
  30
0.0
  0
ARC
  8
POINT
  10
-0.28
  20
-0.05
  30
0.00
  40
0.12
  50
0.00
  51
180.00
  0
ARC
  8
POINT
  10
-0.03
  20
-0.05
  30
0.00
  40
0.12
  50
0.00
  51
180.00
  0
ARC
  8
POINT
  10
0.23
  20
-0.05
  30
0.00
  40
0.12
  50
0.00
  51
180.00
  0
ENDBLK
  0
BLOCK
  8
POINT
  2
P_narrow-end
  70
64
  10
0.0
  20
0.0
  30
0.0
  0
LINE
  8
POINT
  10
-0.10
  20
0.30
  30
0.00
  11
-0.10
  21
-0.30
  31
0.00
  0
LINE
  8
POINT
  10
0.10
  20
0.30
  30
0.00
  11
0.10
  21
-0.30
  31
0.00
  0
ENDBLK
  0
BLOCK
  8
POINT
  2
P_paleo-material
  70
64
  10
0.0
  20
0.0
  30
0.0
  0
CIRCLE
  8
POINT
  10
-0.25
  20
-0.10
  30
0.00
  40
0.05
  0
CIRCLE
  8
POINT
  10
-0.20
  20
-0.20
  30
0.00
  40
0.05
  0
CIRCLE
  8
POINT
  10
0.20
  20
0.20
  30
0.00
  40
0.05
  0
CIRCLE
  8
POINT
  10
0.25
  20
0.10
  30
0.00
  40
0.05
  0
LINE
  8
POINT
  10
-0.21
  20
-0.09
  30
0.00
  11
0.17
  21
0.17
  31
0.00
  0
LINE
  8
POINT
  10
0.21
  20
0.09
  30
0.00
  11
-0.17
  21
-0.17
  31
0.00
  0
ENDBLK
  0
BLOCK
  8
POINT
  2
P_paleoflow
  70
64
  10
0.0
  20
0.0
  30
0.0
  0
LINE
  8
POINT
  10
0.00
  20
-0.25
  30
0.00
  11
0.00
  21
0.35
  31
0.00
  0
LINE
  8
POINT
  10
0.00
  20
0.35
  30
0.00
  11
0.10
  21
0.25
  31
0.00
  0
LINE
  8
POINT
  10
0.00
  20
0.35
  30
0.00
  11
-0.10
  21
0.25
  31
0.00
  0
ARC
  8
POINT
  10
0.00
  20
-0.00
  30
0.00
  40
0.15
  50
90.00
  51
180.00
  0
ARC
  8
POINT
  10
0.00
  20
-0.00
  30
0.00
  40
0.15
  50
0.00
  51
90.00
  0
ENDBLK
  0
BLOCK
  8
POINT
  2
P_pebbles
  70
64
  10
0.0
  20
0.0
  30
0.0
  0
CIRCLE
  8
POINT
  10
-0.15
  20
-0.05
  30
0.00
  40
0.10
  0
CIRCLE
  8
POINT
  10
0.20
  20
-0.15
  30
0.00
  40
0.10
  0
CIRCLE
  8
POINT
  10
0.15
  20
0.15
  30
0.00
  40
0.10
  0
ENDBLK
  0
BLOCK
  8
POINT
  2
P_pendant
  70
64
  10
0.0
  20
0.0
  30
0.0
  0
ARC
  8
POINT
  10
-0.20
  20
0.20
  30
0.00
  40
0.10
  50
90.00
  51
270.00
  0
ARC
  8
POINT
  10
0.00
  20
0.10
  30
0.00
  40
0.20
  50
180.00
  51
270.00
  0
ARC
  8
POINT
  10
0.20
  20
-0.30
  30
0.00
  40
0.20
  50
90.00
  51
180.00
  0
ARC
  8
POINT
  10
0.20
  20
0.20
  30
0.00
  40
0.10
  50
90.00
  51
270.00
  0
ENDBLK
  0
BLOCK
  8
POINT
  2
P_pillar
  70
64
  10
0.0
  20
0.0
  30
0.0
  0
LINE
  8
POINT
  10
-0.15
  20
0.35
  30
0.00
  11
0.00
  21
0.20
  31
0.00
  0
LINE
  8
POINT
  10
0.00
  20
0.20
  30
0.00
  11
0.00
  21
-0.20
  31
0.00
  0
LINE
  8
POINT
  10
0.00
  20
-0.20
  30
0.00
  11
-0.15
  21
-0.35
  31
0.00
  0
LINE
  8
POINT
  10
0.00
  20
-0.20
  30
0.00
  11
0.15
  21
-0.35
  31
0.00
  0
LINE
  8
POINT
  10
0.00
  20
0.20
  30
0.00
  11
0.15
  21
0.35
  31
0.00
  0
ENDBLK
  0
BLOCK
  8
POINT
  2
P_popcorn
  70
64
  10
0.0
  20
0.0
  30
0.0
  0
LINE
  8
POINT
  10
-0.35
  20
-0.20
  30
0.00
  11
0.35
  21
-0.20
  31
0.00
  0
LINE
  8
POINT
  10
-0.30
  20
-0.20
  30
0.00
  11
-0.30
  21
0.05
  31
0.00
  0
CIRCLE
  8
POINT
  10
-0.30
  20
0.10
  30
0.00
  40
0.05
  0
LINE
  8
POINT
  10
0.00
  20
-0.20
  30
0.00
  11
0.00
  21
0.05
  31
0.00
  0
CIRCLE
  8
POINT
  10
0.00
  20
0.10
  30
0.00
  40
0.05
  0
LINE
  8
POINT
  10
0.30
  20
-0.20
  30
0.00
  11
0.30
  21
0.05
  31
0.00
  0
CIRCLE
  8
POINT
  10
0.30
  20
0.10
  30
0.00
  40
0.05
  0
ENDBLK
  0
BLOCK
  8
POINT
  2
P_root
  70
64
  10
0.0
  20
0.0
  30
0.0
  0
LINE
  8
POINT
  10
0.00
  20
0.40
  30
0.00
  11
0.00
  21
-0.20
  31
0.00
  0
LINE
  8
POINT
  10
0.00
  20
-0.20
  30
0.00
  11
0.15
  21
-0.35
  31
0.00
  0
LINE
  8
POINT
  10
0.00
  20
-0.05
  30
0.00
  11
0.15
  21
-0.20
  31
0.00
  0
LINE
  8
POINT
  10
0.00
  20
0.10
  30
0.00
  11
0.15
  21
-0.05
  31
0.00
  0
ENDBLK
  0
BLOCK
  8
POINT
  2
P_sand
  70
64
  10
0.0
  20
0.0
  30
0.0
  0
LINE
  8
POINT
  10
-0.35
  20
-0.15
  30
0.00
  11
-0.25
  21
-0.15
  31
0.00
  0
LINE
  8
POINT
  10
-0.25
  20
-0.15
  30
0.00
  11
-0.30
  21
-0.05
  31
0.00
  0
LINE
  8
POINT
  10
-0.30
  20
-0.05
  30
0.00
  11
-0.35
  21
-0.15
  31
0.00
  0
LINE
  8
POINT
  10
0.35
  20
-0.15
  30
0.00
  11
0.25
  21
-0.15
  31
0.00
  0
LINE
  8
POINT
  10
0.25
  20
-0.15
  30
0.00
  11
0.30
  21
-0.05
  31
0.00
  0
LINE
  8
POINT
  10
0.30
  20
-0.05
  30
0.00
  11
0.35
  21
-0.15
  31
0.00
  0
LINE
  8
POINT
  10
-0.05
  20
0.15
  30
0.00
  11
0.05
  21
0.15
  31
0.00
  0
LINE
  8
POINT
  10
0.05
  20
0.15
  30
0.00
  11
0.00
  21
0.25
  31
0.00
  0
LINE
  8
POINT
  10
0.00
  20
0.25
  30
0.00
  11
-0.05
  21
0.15
  31
0.00
  0
ENDBLK
  0
BLOCK
  8
POINT
  2
P_scallop
  70
64
  10
0.0
  20
0.0
  30
0.0
  0
LINE
  8
POINT
  10
0.00
  20
-0.30
  30
0.00
  11
-0.15
  21
-0.00
  31
0.00
  0
ARC
  8
POINT
  10
0.00
  20
-0.00
  30
0.00
  40
0.15
  50
90.00
  51
180.00
  0
ARC
  8
POINT
  10
0.00
  20
-0.00
  30
0.00
  40
0.15
  50
0.00
  51
90.00
  0
LINE
  8
POINT
  10
0.15
  20
-0.00
  30
0.00
  11
0.00
  21
-0.30
  31
0.00
  0
ENDBLK
  0
BLOCK
  8
POINT
  2
P_section
  70
64
  10
0.0
  20
0.0
  30
0.0
  0
LINE
  8
POINT
  10
-0.25
  20
0.25
  30
0.00
  11
-0.25
  21
-0.25
  31
0.00
  0
LINE
  8
POINT
  10
-0.25
  20
-0.25
  30
0.00
  11
0.25
  21
-0.25
  31
0.00
  0
LINE
  8
POINT
  10
0.25
  20
-0.25
  30
0.00
  11
0.25
  21
0.25
  31
0.00
  0
LINE
  8
POINT
  10
0.25
  20
0.25
  30
0.00
  11
-0.25
  21
0.25
  31
0.00
  0
ENDBLK
  0
BLOCK
  8
POINT
  2
P_sink
  70
64
  10
0.0
  20
0.0
  30
0.0
  0
ARC
  8
POINT
  10
0.00
  20
0.15
  30
0.00
  40
0.25
  50
180.00
  51
360.00
  0
ENDBLK
  0
BLOCK
  8
POINT
  2
P_snow
  70
64
  10
0.0
  20
0.0
  30
0.0
  0
LINE
  8
POINT
  10
0.00
  20
0.25
  30
0.00
  11
0.00
  21
-0.25
  31
0.00
  0
LINE
  8
POINT
  10
-0.20
  20
0.15
  30
0.00
  11
0.20
  21
-0.15
  31
0.00
  0
LINE
  8
POINT
  10
-0.20
  20
-0.15
  30
0.00
  11
0.20
  21
0.15
  31
0.00
  0
ENDBLK
  0
BLOCK
  8
POINT
  2
P_soda-straw
  70
64
  10
0.0
  20
0.0
  30
0.0
  0
LINE
  8
POINT
  10
-0.30
  20
0.10
  30
0.00
  11
0.30
  21
0.10
  31
0.00
  0
LINE
  8
POINT
  10
-0.20
  20
0.10
  30
0.00
  11
-0.20
  21
-0.10
  31
0.00
  0
LINE
  8
POINT
  10
0.00
  20
0.10
  30
0.00
  11
0.00
  21
-0.30
  31
0.00
  0
LINE
  8
POINT
  10
0.20
  20
0.10
  30
0.00
  11
0.20
  21
-0.20
  31
0.00
  0
ENDBLK
  0
BLOCK
  8
POINT
  2
P_spring
  70
64
  10
0.0
  20
0.0
  30
0.0
  0
ARC
  8
POINT
  10
0.00
  20
-0.15
  30
0.00
  40
0.25
  50
0.00
  51
180.00
  0
ENDBLK
  0
BLOCK
  8
POINT
  2
P_stalactite
  70
64
  10
0.0
  20
0.0
  30
0.0
  0
LINE
  8
POINT
  10
-0.20
  20
0.20
  30
0.00
  11
0.00
  21
-0.00
  31
0.00
  0
LINE
  8
POINT
  10
0.00
  20
-0.00
  30
0.00
  11
0.20
  21
0.20
  31
0.00
  0
LINE
  8
POINT
  10
0.00
  20
-0.00
  30
0.00
  11
0.00
  21
-0.30
  31
0.00
  0
ENDBLK
  0
BLOCK
  8
POINT
  2
P_stalagmite
  70
64
  10
0.0
  20
0.0
  30
0.0
  0
LINE
  8
POINT
  10
-0.20
  20
-0.20
  30
0.00
  11
0.00
  21
-0.00
  31
0.00
  0
LINE
  8
POINT
  10
0.00
  20
-0.00
  30
0.00
  11
0.20
  21
-0.20
  31
0.00
  0
LINE
  8
POINT
  10
0.00
  20
-0.00
  30
0.00
  11
0.00
  21
0.30
  31
0.00
  0
ENDBLK
  0
BLOCK
  8
POINT
  2
P_wall-calcite
  70
64
  10
0.0
  20
0.0
  30
0.0
  0
LINE
  8
POINT
  10
-0.30
  20
-0.10
  30
0.00
  11
-0.15
  21
0.10
  31
0.00
  0
LINE
  8
POINT
  10
-0.15
  20
0.10
  30
0.00
  11
0.00
  21
-0.10
  31
0.00
  0
LINE
  8
POINT
  10
0.00
  20
-0.10
  30
0.00
  11
0.15
  21
0.10
  31
0.00
  0
LINE
  8
POINT
  10
0.15
  20
0.10
  30
0.00
  11
0.30
  21
-0.10
  31
0.00
  0
ENDBLK
  0
BLOCK
  8
POINT
  2
P_water
  70
64
  10
0.0
  20
0.0
  30
0.0
  0
LINE
  8
POINT
  10
-0.30
  20
0.15
  30
0.00
  11
-0.05
  21
0.15
  31
0.00
  0
LINE
  8
POINT
  10
0.10
  20
0.15
  30
0.00
  11
0.30
  21
0.15
  31
0.00
  0
LINE
  8
POINT
  10
-0.20
  20
-0.00
  30
0.00
  11
0.05
  21
-0.00
  31
0.00
  0
LINE
  8
POINT
  10
0.15
  20
-0.00
  30
0.00
  11
0.35
  21
-0.00
  31
0.00
  0
LINE
  8
POINT
  10
-0.15
  20
-0.15
  30
0.00
  11
0.25
  21
-0.15
  31
0.00
  0
ENDBLK
  0
BLOCK
  8
POINT
  2
P_water-flow
  70
64
  10
0.0
  20
0.0
  30
0.0
  0
ARC
  8
POINT
  10
0.00
  20
-0.08
  30
0.00
  40
0.08
  50
90.00
  51
270.00
  0
ARC
  8
POINT
  10
0.00
  20
0.08
  30
0.00
  40
0.08
  50
270.00
  51
450.00
  0
ARC
  8
POINT
  10
0.00
  20
0.23
  30
0.00
  40
0.08
  50
90.00
  51
270.00
  0
ARC
  8
POINT
  10
0.00
  20
0.38
  30
0.00
  40
0.08
  50
270.00
  51
360.00
  0
ARC
  8
POINT
  10
0.00
  20
0.38
  30
0.00
  40
0.08
  50
0.00
  51
90.00
  0
LINE
  8
POINT
  10
0.00
  20
0.50
  30
0.00
  11
0.20
  21
0.30
  31
0.00
  0
LINE
  8
POINT
  10
0.00
  20
0.50
  30
0.00
  11
-0.20
  21
0.30
  31
0.00
  0
ENDBLK
  0
ENDSEC
  0
SECTION
  2
ENTITIES
  0
LINE
  8
REF
  10
9998.00
  20
9998.00
  30
0.00
  11
10198.00
  21
9998.00
  31
0.00
  0
LINE
  8
REF
  10
9998.00
  20
9998.00
  30
0.00
  11
9998.00
  21
10198.00
  31
0.00
  0
TEXT
  8
REF
  10
10199.00
  20
9998.00
  30
0.00
  40
0.30
  1
"10"
  0
TEXT
  8
REF
  10
9998.00
  20
10199.00
  30
0.00
  40
0.30
  1
"10"
  0
LINE
  8
LEG
  10
42.06
  20
126.24
  30
0.00
  11
100.00
  21
-120.00
  31
0.00
  0
LINE
  8
LEG
  10
100.00
  20
-120.00
  30
0.00
  11
43.86
  21
-245.40
  31
0.00
  0
LINE
  8
LEG
  10
43.86
  20
-245.40
  30
0.00
  11
98.99
  21
-419.18
  31
0.00
  0
LINE
  8
LEG
  10
98.99
  20
-419.18
  30
0.00
  11
219.96
  21
-644.06
  31
0.00
  0
LINE
  8
LEG
  10
219.96
  20
-644.06
  30
0.00
  11
305.80
  21
-1106.90
  31
0.00
  0
LINE
  8
LEG
  10
6.42
  20
279.81
  30
0.00
  11
42.06
  21
126.24
  31
0.00
  0
LINE
  8
LEG
  10
88.84
  20
299.53
  30
0.00
  11
6.42
  21
279.81
  31
0.00
  0
LINE
  8
LEG
  10
192.58
  20
642.67
  30
0.00
  11
88.84
  21
299.53
  31
0.00
  0
LINE
  8
LEG
  10
154.25
  20
846.06
  30
0.00
  11
192.58
  21
642.67
  31
0.00
  0
LINE
  8
LEG
  10
171.86
  20
895.42
  30
0.00
  11
154.25
  21
846.06
  31
0.00
  0
LINE
  8
LEG
  10
216.16
  20
927.94
  30
0.00
  11
171.86
  21
895.42
  31
0.00
  0
LINE
  8
LEG
  10
255.43
  20
919.18
  30
0.00
  11
216.16
  21
927.94
  31
0.00
  0
LINE
  8
LEG
  10
227.79
  20
993.82
  30
0.00
  11
255.43
  21
919.18
  31
0.00
  0
LINE
  8
LEG
  10
317.84
  20
1112.23
  30
0.00
  11
227.79
  21
993.82
  31
0.00
  0
LINE
  8
LEG
  10
343.37
  20
1172.27
  30
0.00
  11
317.84
  21
1112.23
  31
0.00
  0
LINE
  8
LEG
  10
379.86
  20
1150.81
  30
0.00
  11
343.37
  21
1172.27
  31
0.00
  0
LINE
  8
LEG
  10
414.60
  20
1167.50
  30
0.00
  11
379.86
  21
1150.81
  31
0.00
  0
LINE
  8
LEG
  10
446.53
  20
1233.87
  30
0.00
  11
414.60
  21
1167.50
  31
0.00
  0
LINE
  8
LEG
  10
488.11
  20
1264.39
  30
0.00
  11
446.53
  21
1233.87
  31
0.00
  0
LINE
  8
LEG
  10
546.03
  20
1369.82
  30
0.00
  11
488.11
  21
1264.39
  31
0.00
  0
LINE
  8
LEG
  10
588.26
  20
1493.96
  30
0.00
  11
546.03
  21
1369.82
  31
0.00
  0
LINE
  8
LEG
  10
628.67
  20
1624.69
  30
0.00
  11
588.26
  21
1493.96
  31
0.00
  0
LINE
  8
SPLAY
  10
628.67
  20
1624.69
  30
0.00
  11
606.63
  21
1625.99
  31
0.00
  0
LINE
  8
SPLAY
  10
628.67
  20
1624.69
  30
0.00
  11
566.19
  21
1619.69
  31
0.00
  0
LINE
  8
SPLAY
  10
628.67
  20
1624.69
  30
0.00
  11
600.82
  21
1621.97
  31
0.00
  0
LINE
  8
SPLAY
  10
628.67
  20
1624.69
  30
0.00
  11
725.59
  21
1623.98
  31
0.00
  0
LINE
  8
SPLAY
  10
628.67
  20
1624.69
  30
0.00
  11
657.39
  21
1623.59
  31
0.00
  0
LINE
  8
SPLAY
  10
628.67
  20
1624.69
  30
0.00
  11
587.27
  21
1630.03
  31
0.00
  0
LINE
  8
SPLAY
  10
628.67
  20
1624.69
  30
0.00
  11
615.28
  21
1470.73
  31
0.00
  0
LINE
  8
SPLAY
  10
628.67
  20
1624.69
  30
0.00
  11
616.12
  21
1584.90
  31
0.00
  0
LINE
  8
SPLAY
  10
628.67
  20
1624.69
  30
0.00
  11
572.44
  21
1512.24
  31
0.00
  0
LINE
  8
SPLAY
  10
628.67
  20
1624.69
  30
0.00
  11
532.99
  21
1555.38
  31
0.00
  0
LINE
  8
SPLAY
  10
628.67
  20
1624.69
  30
0.00
  11
597.71
  21
1624.40
  31
0.00
  0
LINE
  8
SPLAY
  10
628.67
  20
1624.69
  30
0.00
  11
616.52
  21
1701.68
  31
0.00
  0
LINE
  8
SPLAY
  10
628.67
  20
1624.69
  30
0.00
  11
594.94
  21
1713.35
  31
0.00
  0
LINE
  8
SPLAY
  10
628.67
  20
1624.69
  30
0.00
  11
608.43
  21
1671.57
  31
0.00
  0
LINE
  8
SPLAY
  10
628.67
  20
1624.69
  30
0.00
  11
592.21
  21
1697.02
  31
0.00
  0
LINE
  8
SPLAY
  10
628.67
  20
1624.69
  30
0.00
  11
588.02
  21
1493.50
  31
0.00
  0
LINE
  8
SPLAY
  10
628.67
  20
1624.69
  30
0.00
  11
590.74
  21
1502.88
  31
0.00
  0
LINE
  8
SPLAY
  10
588.26
  20
1493.96
  30
0.00
  11
608.85
  21
1495.01
  31
0.00
  0
LINE
  8
SPLAY
  10
588.26
  20
1493.96
  30
0.00
  11
628.48
  21
1494.58
  31
0.00
  0
LINE
  8
SPLAY
  10
588.26
  20
1493.96
  30
0.00
  11
644.83
  21
1495.19
  31
0.00
  0
LINE
  8
SPLAY
  10
588.26
  20
1493.96
  30
0.00
  11
664.80
  21
1495.91
  31
0.00
  0
LINE
  8
SPLAY
  10
588.26
  20
1493.96
  30
0.00
  11
618.93
  21
1619.96
  31
0.00
  0
LINE
  8
SPLAY
  10
588.26
  20
1493.96
  30
0.00
  11
614.87
  21
1558.64
  31
0.00
  0
LINE
  8
SPLAY
  10
588.26
  20
1493.96
  30
0.00
  11
500.05
  21
1496.88
  31
0.00
  0
LINE
  8
SPLAY
  10
588.26
  20
1493.96
  30
0.00
  11
539.54
  21
1500.23
  31
0.00
  0
LINE
  8
SPLAY
  10
588.26
  20
1493.96
  30
0.00
  11
537.35
  21
1497.55
  31
0.00
  0
LINE
  8
SPLAY
  10
588.26
  20
1493.96
  30
0.00
  11
570.26
  21
1494.77
  31
0.00
  0
LINE
  8
SPLAY
  10
588.26
  20
1493.96
  30
0.00
  11
546.21
  21
1573.08
  31
0.00
  0
LINE
  8
SPLAY
  10
588.26
  20
1493.96
  30
0.00
  11
531.54
  21
1552.65
  31
0.00
  0
LINE
  8
SPLAY
  10
588.26
  20
1493.96
  30
0.00
  11
627.76
  21
1422.86
  31
0.00
  0
LINE
  8
SPLAY
  10
588.26
  20
1493.96
  30
0.00
  11
614.62
  21
1352.07
  31
0.00
  0
LINE
  8
SPLAY
  10
588.26
  20
1493.96
  30
0.00
  11
600.79
  21
1357.48
  31
0.00
  0
LINE
  8
SPLAY
  10
546.03
  20
1369.82
  30
0.00
  11
617.17
  21
1370.15
  31
0.00
  0
LINE
  8
SPLAY
  10
546.03
  20
1369.82
  30
0.00
  11
580.20
  21
1368.90
  31
0.00
  0
LINE
  8
SPLAY
  10
546.03
  20
1369.82
  30
0.00
  11
599.69
  21
1369.69
  31
0.00
  0
LINE
  8
SPLAY
  10
546.03
  20
1369.82
  30
0.00
  11
518.05
  21
1370.85
  31
0.00
  0
LINE
  8
SPLAY
  10
546.03
  20
1369.82
  30
0.00
  11
590.74
  21
1461.86
  31
0.00
  0
LINE
  8
SPLAY
  10
546.03
  20
1369.82
  30
0.00
  11
643.34
  21
1532.34
  31
0.00
  0
LINE
  8
SPLAY
  10
546.03
  20
1369.82
  30
0.00
  11
507.21
  21
1380.86
  31
0.00
  0
LINE
  8
SPLAY
  10
546.03
  20
1369.82
  30
0.00
  11
474.54
  21
1434.04
  31
0.00
  0
LINE
  8
SPLAY
  10
546.03
  20
1369.82
  30
0.00
  11
448.20
  21
1382.29
  31
0.00
  0
LINE
  8
SPLAY
  10
546.03
  20
1369.82
  30
0.00
  11
464.58
  21
1382.18
  31
0.00
  0
LINE
  8
SPLAY
  10
546.03
  20
1369.82
  30
0.00
  11
511.02
  21
1379.40
  31
0.00
  0
LINE
  8
SPLAY
  10
546.03
  20
1369.82
  30
0.00
  11
494.64
  21
1367.70
  31
0.00
  0
LINE
  8
SPLAY
  10
546.03
  20
1369.82
  30
0.00
  11
454.32
  21
1237.91
  31
0.00
  0
LINE
  8
SPLAY
  10
546.03
  20
1369.82
  30
0.00
  11
522.29
  21
1219.59
  31
0.00
  0
LINE
  8
SPLAY
  10
546.03
  20
1369.82
  30
0.00
  11
570.03
  21
1263.97
  31
0.00
  0
LINE
  8
SPLAY
  10
546.03
  20
1369.82
  30
0.00
  11
476.06
  21
1230.82
  31
0.00
  0
LINE
  8
SPLAY
  10
546.03
  20
1369.82
  30
0.00
  11
429.96
  21
1257.88
  31
0.00
  0
LINE
  8
SPLAY
  10
546.03
  20
1369.82
  30
0.00
  11
447.80
  21
1241.02
  31
0.00
  0
LINE
  8
SPLAY
  10
546.03
  20
1369.82
  30
0.00
  11
487.30
  21
1263.43
  31
0.00
  0
LINE
  8
SPLAY
  10
546.03
  20
1369.82
  30
0.00
  11
485.50
  21
1259.50
  31
0.00
  0
LINE
  8
SPLAY
  10
488.11
  20
1264.39
  30
0.00
  11
522.13
  21
1263.11
  31
0.00
  0
LINE
  8
SPLAY
  10
488.11
  20
1264.39
  30
0.00
  11
453.75
  21
1267.73
  31
0.00
  0
LINE
  8
SPLAY
  10
488.11
  20
1264.39
  30
0.00
  11
434.00
  21
1273.40
  31
0.00
  0
LINE
  8
SPLAY
  10
488.11
  20
1264.39
  30
0.00
  11
418.79
  21
1272.38
  31
0.00
  0
LINE
  8
SPLAY
  10
488.11
  20
1264.39
  30
0.00
  11
427.47
  21
1274.48
  31
0.00
  0
LINE
  8
SPLAY
  10
488.11
  20
1264.39
  30
0.00
  11
559.29
  21
1265.23
  31
0.00
  0
LINE
  8
SPLAY
  10
488.11
  20
1264.39
  30
0.00
  11
546.55
  21
1265.87
  31
0.00
  0
LINE
  8
SPLAY
  10
488.11
  20
1264.39
  30
0.00
  11
530.19
  21
1266.68
  31
0.00
  0
LINE
  8
SPLAY
  10
488.11
  20
1264.39
  30
0.00
  11
525.13
  21
1266.59
  31
0.00
  0
LINE
  8
SPLAY
  10
488.11
  20
1264.39
  30
0.00
  11
562.44
  21
1327.86
  31
0.00
  0
LINE
  8
SPLAY
  10
488.11
  20
1264.39
  30
0.00
  11
558.70
  21
1447.86
  31
0.00
  0
LINE
  8
SPLAY
  10
488.11
  20
1264.39
  30
0.00
  11
460.63
  21
1451.55
  31
0.00
  0
LINE
  8
SPLAY
  10
488.11
  20
1264.39
  30
0.00
  11
441.10
  21
1359.75
  31
0.00
  0
LINE
  8
SPLAY
  10
488.11
  20
1264.39
  30
0.00
  11
490.20
  21
1233.46
  31
0.00
  0
LINE
  8
SPLAY
  10
488.11
  20
1264.39
  30
0.00
  11
510.04
  21
1224.52
  31
0.00
  0
LINE
  8
SPLAY
  10
446.53
  20
1233.87
  30
0.00
  11
434.99
  21
1234.02
  31
0.00
  0
LINE
  8
SPLAY
  10
446.53
  20
1233.87
  30
0.00
  11
411.47
  21
1274.82
  31
0.00
  0
LINE
  8
SPLAY
  10
446.53
  20
1233.87
  30
0.00
  11
428.00
  21
1299.40
  31
0.00
  0
LINE
  8
SPLAY
  10
446.53
  20
1233.87
  30
0.00
  11
425.25
  21
1258.28
  31
0.00
  0
LINE
  8
SPLAY
  10
446.53
  20
1233.87
  30
0.00
  11
473.08
  21
1391.49
  31
0.00
  0
LINE
  8
SPLAY
  10
446.53
  20
1233.87
  30
0.00
  11
443.66
  21
1341.17
  31
0.00
  0
LINE
  8
SPLAY
  10
446.53
  20
1233.87
  30
0.00
  11
474.17
  21
1251.97
  31
0.00
  0
LINE
  8
SPLAY
  10
446.53
  20
1233.87
  30
0.00
  11
428.15
  21
1233.38
  31
0.00
  0
LINE
  8
SPLAY
  10
446.53
  20
1233.87
  30
0.00
  11
427.73
  21
1231.76
  31
0.00
  0
LINE
  8
SPLAY
  10
446.53
  20
1233.87
  30
0.00
  11
461.46
  21
1226.72
  31
0.00
  0
LINE
  8
SPLAY
  10
414.60
  20
1167.50
  30
0.00
  11
406.18
  21
1166.06
  31
0.00
  0
LINE
  8
SPLAY
  10
414.60
  20
1167.50
  30
0.00
  11
403.50
  21
1178.23
  31
0.00
  0
LINE
  8
SPLAY
  10
414.60
  20
1167.50
  30
0.00
  11
416.68
  21
1194.92
  31
0.00
  0
LINE
  8
SPLAY
  10
414.60
  20
1167.50
  30
0.00
  11
426.58
  21
1214.37
  31
0.00
  0
LINE
  8
SPLAY
  10
414.60
  20
1167.50
  30
0.00
  11
464.33
  21
1203.03
  31
0.00
  0
LINE
  8
SPLAY
  10
414.60
  20
1167.50
  30
0.00
  11
453.66
  21
1188.98
  31
0.00
  0
LINE
  8
SPLAY
  10
414.60
  20
1167.50
  30
0.00
  11
439.24
  21
1190.40
  31
0.00
  0
LINE
  8
SPLAY
  10
414.60
  20
1167.50
  30
0.00
  11
412.73
  21
1148.85
  31
0.00
  0
LINE
  8
SPLAY
  10
414.60
  20
1167.50
  30
0.00
  11
473.41
  21
1215.89
  31
0.00
  0
LINE
  8
SPLAY
  10
414.60
  20
1167.50
  30
0.00
  11
433.73
  21
1254.50
  31
0.00
  0
LINE
  8
SPLAY
  10
414.60
  20
1167.50
  30
0.00
  11
390.51
  21
1173.24
  31
0.00
  0
LINE
  8
SPLAY
  10
414.60
  20
1167.50
  30
0.00
  11
380.68
  21
1150.99
  31
0.00
  0
LINE
  8
SPLAY
  10
379.86
  20
1150.81
  30
0.00
  11
395.51
  21
1154.14
  31
0.00
  0
LINE
  8
SPLAY
  10
379.86
  20
1150.81
  30
0.00
  11
391.73
  21
1149.92
  31
0.00
  0
LINE
  8
SPLAY
  10
379.86
  20
1150.81
  30
0.00
  11
394.60
  21
1161.32
  31
0.00
  0
LINE
  8
SPLAY
  10
379.86
  20
1150.81
  30
0.00
  11
370.64
  21
1150.13
  31
0.00
  0
LINE
  8
SPLAY
  10
379.86
  20
1150.81
  30
0.00
  11
387.87
  21
1151.44
  31
0.00
  0
LINE
  8
SPLAY
  10
379.86
  20
1150.81
  30
0.00
  11
389.22
  21
1150.80
  31
0.00
  0
LINE
  8
SPLAY
  10
379.86
  20
1150.81
  30
0.00
  11
392.14
  21
1150.76
  31
0.00
  0
LINE
  8
SPLAY
  10
379.86
  20
1150.81
  30
0.00
  11
405.14
  21
1153.43
  31
0.00
  0
LINE
  8
SPLAY
  10
379.86
  20
1150.81
  30
0.00
  11
393.90
  21
1152.31
  31
0.00
  0
LINE
  8
SPLAY
  10
379.86
  20
1150.81
  30
0.00
  11
391.96
  21
1151.85
  31
0.00
  0
LINE
  8
SPLAY
  10
379.86
  20
1150.81
  30
0.00
  11
393.80
  21
1162.66
  31
0.00
  0
LINE
  8
SPLAY
  10
379.86
  20
1150.81
  30
0.00
  11
372.83
  21
1133.24
  31
0.00
  0
LINE
  8
SPLAY
  10
379.86
  20
1150.81
  30
0.00
  11
369.01
  21
1153.44
  31
0.00
  0
LINE
  8
SPLAY
  10
379.86
  20
1150.81
  30
0.00
  11
362.23
  21
1157.50
  31
0.00
  0
LINE
  8
SPLAY
  10
379.86
  20
1150.81
  30
0.00
  11
371.80
  21
1155.00
  31
0.00
  0
LINE
  8
SPLAY
  10
379.86
  20
1150.81
  30
0.00
  11
370.44
  21
1174.49
  31
0.00
  0
LINE
  8
SPLAY
  10
343.37
  20
1172.27
  30
0.00
  11
336.47
  21
1172.24
  31
0.00
  0
LINE
  8
SPLAY
  10
343.37
  20
1172.27
  30
0.00
  11
373.04
  21
1176.73
  31
0.00
  0
LINE
  8
SPLAY
  10
343.37
  20
1172.27
  30
0.00
  11
364.52
  21
1176.46
  31
0.00
  0
LINE
  8
SPLAY
  10
343.37
  20
1172.27
  30
0.00
  11
360.20
  21
1178.07
  31
0.00
  0
LINE
  8
SPLAY
  10
343.37
  20
1172.27
  30
0.00
  11
350.06
  21
1179.68
  31
0.00
  0
LINE
  8
SPLAY
  10
343.37
  20
1172.27
  30
0.00
  11
358.18
  21
1171.82
  31
0.00
  0
LINE
  8
SPLAY
  10
343.37
  20
1172.27
  30
0.00
  11
346.93
  21
1189.69
  31
0.00
  0
LINE
  8
SPLAY
  10
343.37
  20
1172.27
  30
0.00
  11
329.93
  21
1131.79
  31
0.00
  0
LINE
  8
SPLAY
  10
343.37
  20
1172.27
  30
0.00
  11
329.91
  21
1119.71
  31
0.00
  0
LINE
  8
SPLAY
  10
343.37
  20
1172.27
  30
0.00
  11
330.65
  21
1142.04
  31
0.00
  0
LINE
  8
SPLAY
  10
343.37
  20
1172.27
  30
0.00
  11
338.43
  21
1147.05
  31
0.00
  0
LINE
  8
SPLAY
  10
317.84
  20
1112.23
  30
0.00
  11
333.03
  21
1115.46
  31
0.00
  0
LINE
  8
SPLAY
  10
317.84
  20
1112.23
  30
0.00
  11
312.43
  21
1137.52
  31
0.00
  0
LINE
  8
SPLAY
  10
317.84
  20
1112.23
  30
0.00
  11
311.34
  21
1122.10
  31
0.00
  0
LINE
  8
SPLAY
  10
317.84
  20
1112.23
  30
0.00
  11
246.07
  21
1115.34
  31
0.00
  0
LINE
  8
SPLAY
  10
317.84
  20
1112.23
  30
0.00
  11
300.02
  21
1116.73
  31
0.00
  0
LINE
  8
SPLAY
  10
317.84
  20
1112.23
  30
0.00
  11
290.84
  21
1141.66
  31
0.00
  0
LINE
  8
SPLAY
  10
317.84
  20
1112.23
  30
0.00
  11
285.94
  21
1116.07
  31
0.00
  0
LINE
  8
SPLAY
  10
317.84
  20
1112.23
  30
0.00
  11
285.74
  21
1109.47
  31
0.00
  0
LINE
  8
SPLAY
  10
317.84
  20
1112.23
  30
0.00
  11
294.15
  21
1109.24
  31
0.00
  0
LINE
  8
SPLAY
  10
317.84
  20
1112.23
  30
0.00
  11
302.89
  21
1112.45
  31
0.00
  0
LINE
  8
SPLAY
  10
317.84
  20
1112.23
  30
0.00
  11
322.29
  21
1076.83
  31
0.00
  0
LINE
  8
SPLAY
  10
317.84
  20
1112.23
  30
0.00
  11
357.52
  21
1184.50
  31
0.00
  0
LINE
  8
SPLAY
  10
317.84
  20
1112.23
  30
0.00
  11
238.04
  21
1072.66
  31
0.00
  0
LINE
  8
SPLAY
  10
317.84
  20
1112.23
  30
0.00
  11
234.76
  21
1065.76
  31
0.00
  0
LINE
  8
SPLAY
  10
317.84
  20
1112.23
  30
0.00
  11
256.36
  21
1075.57
  31
0.00
  0
LINE
  8
SPLAY
  10
317.84
  20
1112.23
  30
0.00
  11
291.82
  21
1142.35
  31
0.00
  0
LINE
  8
SPLAY
  10
317.84
  20
1112.23
  30
0.00
  11
235.57
  21
896.68
  31
0.00
  0
LINE
  8
SPLAY
  10
317.84
  20
1112.23
  30
0.00
  11
272.04
  21
953.32
  31
0.00
  0
LINE
  8
SPLAY
  10
317.84
  20
1112.23
  30
0.00
  11
303.95
  21
1073.40
  31
0.00
  0
LINE
  8
SPLAY
  10
317.84
  20
1112.23
  30
0.00
  11
228.68
  21
1003.39
  31
0.00
  0
LINE
  8
SPLAY
  10
227.79
  20
993.82
  30
0.00
  11
239.50
  21
993.38
  31
0.00
  0
LINE
  8
SPLAY
  10
227.79
  20
993.82
  30
0.00
  11
238.57
  21
1008.44
  31
0.00
  0
LINE
  8
SPLAY
  10
227.79
  20
993.82
  30
0.00
  11
238.83
  21
1029.47
  31
0.00
  0
LINE
  8
SPLAY
  10
227.79
  20
993.82
  30
0.00
  11
217.76
  21
1027.73
  31
0.00
  0
LINE
  8
SPLAY
  10
227.79
  20
993.82
  30
0.00
  11
273.82
  21
986.91
  31
0.00
  0
LINE
  8
SPLAY
  10
227.79
  20
993.82
  30
0.00
  11
280.87
  21
1026.44
  31
0.00
  0
LINE
  8
SPLAY
  10
227.79
  20
993.82
  30
0.00
  11
286.27
  21
1027.09
  31
0.00
  0
LINE
  8
SPLAY
  10
227.79
  20
993.82
  30
0.00
  11
312.56
  21
1060.09
  31
0.00
  0
LINE
  8
SPLAY
  10
227.79
  20
993.82
  30
0.00
  11
316.11
  21
1077.09
  31
0.00
  0
LINE
  8
SPLAY
  10
227.79
  20
993.82
  30
0.00
  11
294.37
  21
1100.65
  31
0.00
  0
LINE
  8
SPLAY
  10
227.79
  20
993.82
  30
0.00
  11
241.31
  21
1021.98
  31
0.00
  0
LINE
  8
SPLAY
  10
227.79
  20
993.82
  30
0.00
  11
268.38
  21
966.55
  31
0.00
  0
LINE
  8
SPLAY
  10
227.79
  20
993.82
  30
0.00
  11
265.96
  21
972.71
  31
0.00
  0
LINE
  8
SPLAY
  10
227.79
  20
993.82
  30
0.00
  11
243.92
  21
981.07
  31
0.00
  0
LINE
  8
SPLAY
  10
227.79
  20
993.82
  30
0.00
  11
242.51
  21
976.12
  31
0.00
  0
LINE
  8
SPLAY
  10
255.43
  20
919.18
  30
0.00
  11
235.89
  21
917.58
  31
0.00
  0
LINE
  8
SPLAY
  10
255.43
  20
919.18
  30
0.00
  11
226.89
  21
920.38
  31
0.00
  0
LINE
  8
SPLAY
  10
255.43
  20
919.18
  30
0.00
  11
203.09
  21
919.88
  31
0.00
  0
LINE
  8
SPLAY
  10
255.43
  20
919.18
  30
0.00
  11
252.41
  21
859.43
  31
0.00
  0
LINE
  8
SPLAY
  10
255.43
  20
919.18
  30
0.00
  11
246.86
  21
834.95
  31
0.00
  0
LINE
  8
SPLAY
  10
255.43
  20
919.18
  30
0.00
  11
242.22
  21
873.43
  31
0.00
  0
LINE
  8
SPLAY
  10
255.43
  20
919.18
  30
0.00
  11
226.78
  21
917.78
  31
0.00
  0
LINE
  8
SPLAY
  10
255.43
  20
919.18
  30
0.00
  11
237.37
  21
964.17
  31
0.00
  0
LINE
  8
SPLAY
  10
255.43
  20
919.18
  30
0.00
  11
247.29
  21
985.50
  31
0.00
  0
LINE
  8
SPLAY
  10
255.43
  20
919.18
  30
0.00
  11
230.66
  21
881.68
  31
0.00
  0
LINE
  8
SPLAY
  10
255.43
  20
919.18
  30
0.00
  11
218.77
  21
919.12
  31
0.00
  0
LINE
  8
SPLAY
  10
216.16
  20
927.94
  30
0.00
  11
223.63
  21
928.32
  31
0.00
  0
LINE
  8
SPLAY
  10
216.16
  20
927.94
  30
0.00
  11
309.73
  21
919.89
  31
0.00
  0
LINE
  8
SPLAY
  10
216.16
  20
927.94
  30
0.00
  11
263.07
  21
926.45
  31
0.00
  0
LINE
  8
SPLAY
  10
216.16
  20
927.94
  30
0.00
  11
228.12
  21
970.05
  31
0.00
  0
LINE
  8
SPLAY
  10
216.16
  20
927.94
  30
0.00
  11
228.47
  21
997.01
  31
0.00
  0
LINE
  8
SPLAY
  10
216.16
  20
927.94
  30
0.00
  11
258.24
  21
943.70
  31
0.00
  0
LINE
  8
SPLAY
  10
216.16
  20
927.94
  30
0.00
  11
241.25
  21
933.66
  31
0.00
  0
LINE
  8
SPLAY
  10
216.16
  20
927.94
  30
0.00
  11
228.50
  21
934.79
  31
0.00
  0
LINE
  8
SPLAY
  10
216.16
  20
927.94
  30
0.00
  11
233.14
  21
910.51
  31
0.00
  0
LINE
  8
SPLAY
  10
216.16
  20
927.94
  30
0.00
  11
241.16
  21
863.46
  31
0.00
  0
LINE
  8
SPLAY
  10
216.16
  20
927.94
  30
0.00
  11
257.82
  21
869.22
  31
0.00
  0
LINE
  8
SPLAY
  10
216.16
  20
927.94
  30
0.00
  11
244.37
  21
874.70
  31
0.00
  0
LINE
  8
SPLAY
  10
216.16
  20
927.94
  30
0.00
  11
219.65
  21
900.32
  31
0.00
  0
LINE
  8
SPLAY
  10
216.16
  20
927.94
  30
0.00
  11
156.03
  21
914.66
  31
0.00
  0
LINE
  8
SPLAY
  10
171.86
  20
895.42
  30
0.00
  11
159.14
  21
895.27
  31
0.00
  0
LINE
  8
SPLAY
  10
171.86
  20
895.42
  30
0.00
  11
158.67
  21
895.98
  31
0.00
  0
LINE
  8
SPLAY
  10
171.86
  20
895.42
  30
0.00
  11
164.18
  21
917.14
  31
0.00
  0
LINE
  8
SPLAY
  10
171.86
  20
895.42
  30
0.00
  11
136.50
  21
894.71
  31
0.00
  0
LINE
  8
SPLAY
  10
171.86
  20
895.42
  30
0.00
  11
181.24
  21
881.95
  31
0.00
  0
LINE
  8
SPLAY
  10
171.86
  20
895.42
  30
0.00
  11
162.00
  21
845.32
  31
0.00
  0
LINE
  8
SPLAY
  10
171.86
  20
895.42
  30
0.00
  11
268.87
  21
933.28
  31
0.00
  0
LINE
  8
SPLAY
  10
171.86
  20
895.42
  30
0.00
  11
98.53
  21
948.43
  31
0.00
  0
LINE
  8
SPLAY
  10
171.86
  20
895.42
  30
0.00
  11
79.94
  21
919.51
  31
0.00
  0
LINE
  8
SPLAY
  10
171.86
  20
895.42
  30
0.00
  11
218.33
  21
867.02
  31
0.00
  0
LINE
  8
SPLAY
  10
171.86
  20
895.42
  30
0.00
  11
206.42
  21
865.92
  31
0.00
  0
LINE
  8
SPLAY
  10
154.25
  20
846.06
  30
0.00
  11
113.15
  21
845.89
  31
0.00
  0
LINE
  8
SPLAY
  10
154.25
  20
846.06
  30
0.00
  11
112.73
  21
846.70
  31
0.00
  0
LINE
  8
SPLAY
  10
154.25
  20
846.06
  30
0.00
  11
172.59
  21
847.19
  31
0.00
  0
LINE
  8
SPLAY
  10
154.25
  20
846.06
  30
0.00
  11
172.25
  21
843.15
  31
0.00
  0
LINE
  8
SPLAY
  10
154.25
  20
846.06
  30
0.00
  11
176.15
  21
872.36
  31
0.00
  0
LINE
  8
SPLAY
  10
154.25
  20
846.06
  30
0.00
  11
173.82
  21
893.31
  31
0.00
  0
LINE
  8
SPLAY
  10
154.25
  20
846.06
  30
0.00
  11
169.32
  21
912.17
  31
0.00
  0
LINE
  8
SPLAY
  10
154.25
  20
846.06
  30
0.00
  11
176.11
  21
806.64
  31
0.00
  0
LINE
  8
SPLAY
  10
154.25
  20
846.06
  30
0.00
  11
84.16
  21
695.32
  31
0.00
  0
LINE
  8
SPLAY
  10
154.25
  20
846.06
  30
0.00
  11
170.24
  21
718.14
  31
0.00
  0
LINE
  8
SPLAY
  10
154.25
  20
846.06
  30
0.00
  11
162.78
  21
856.08
  31
0.00
  0
LINE
  8
SPLAY
  10
192.58
  20
642.67
  30
0.00
  11
219.65
  21
641.87
  31
0.00
  0
LINE
  8
SPLAY
  10
192.58
  20
642.67
  30
0.00
  11
147.95
  21
643.46
  31
0.00
  0
LINE
  8
SPLAY
  10
192.58
  20
642.67
  30
0.00
  11
152.67
  21
644.72
  31
0.00
  0
LINE
  8
SPLAY
  10
192.58
  20
642.67
  30
0.00
  11
155.74
  21
644.81
  31
0.00
  0
LINE
  8
SPLAY
  10
192.58
  20
642.67
  30
0.00
  11
154.00
  21
644.79
  31
0.00
  0
LINE
  8
SPLAY
  10
192.58
  20
642.67
  30
0.00
  11
150.49
  21
647.27
  31
0.00
  0
LINE
  8
SPLAY
  10
192.58
  20
642.67
  30
0.00
  11
143.78
  21
646.07
  31
0.00
  0
LINE
  8
SPLAY
  10
192.58
  20
642.67
  30
0.00
  11
132.40
  21
652.60
  31
0.00
  0
LINE
  8
SPLAY
  10
192.58
  20
642.67
  30
0.00
  11
120.84
  21
676.12
  31
0.00
  0
LINE
  8
SPLAY
  10
192.58
  20
642.67
  30
0.00
  11
125.72
  21
681.55
  31
0.00
  0
LINE
  8
SPLAY
  10
192.58
  20
642.67
  30
0.00
  11
218.61
  21
650.22
  31
0.00
  0
LINE
  8
SPLAY
  10
192.58
  20
642.67
  30
0.00
  11
150.22
  21
600.69
  31
0.00
  0
LINE
  8
SPLAY
  10
192.58
  20
642.67
  30
0.00
  11
190.78
  21
639.06
  31
0.00
  0
LINE
  8
SPLAY
  10
192.58
  20
642.67
  30
0.00
  11
161.76
  21
729.36
  31
0.00
  0
LINE
  8
SPLAY
  10
192.58
  20
642.67
  30
0.00
  11
174.32
  21
785.65
  31
0.00
  0
LINE
  8
SPLAY
  10
192.58
  20
642.67
  30
0.00
  11
149.33
  21
843.55
  31
0.00
  0
LINE
  8
SPLAY
  10
192.58
  20
642.67
  30
0.00
  11
116.86
  21
865.75
  31
0.00
  0
LINE
  8
SPLAY
  10
192.58
  20
642.67
  30
0.00
  11
127.77
  21
532.57
  31
0.00
  0
LINE
  8
SPLAY
  10
192.58
  20
642.67
  30
0.00
  11
101.35
  21
488.79
  31
0.00
  0
LINE
  8
SPLAY
  10
192.58
  20
642.67
  30
0.00
  11
119.81
  21
525.16
  31
0.00
  0
LINE
  8
SPLAY
  10
192.58
  20
642.67
  30
0.00
  11
109.62
  21
383.05
  31
0.00
  0
LINE
  8
SPLAY
  10
192.58
  20
642.67
  30
0.00
  11
103.57
  21
433.37
  31
0.00
  0
LINE
  8
SPLAY
  10
88.84
  20
299.53
  30
0.00
  11
136.38
  21
297.12
  31
0.00
  0
LINE
  8
SPLAY
  10
88.84
  20
299.53
  30
0.00
  11
163.40
  21
307.60
  31
0.00
  0
LINE
  8
SPLAY
  10
88.84
  20
299.53
  30
0.00
  11
100.67
  21
301.27
  31
0.00
  0
LINE
  8
SPLAY
  10
88.84
  20
299.53
  30
0.00
  11
172.26
  21
301.45
  31
0.00
  0
LINE
  8
SPLAY
  10
88.84
  20
299.53
  30
0.00
  11
168.00
  21
298.70
  31
0.00
  0
LINE
  8
SPLAY
  10
88.84
  20
299.53
  30
0.00
  11
135.58
  21
299.71
  31
0.00
  0
LINE
  8
SPLAY
  10
88.84
  20
299.53
  30
0.00
  11
133.04
  21
300.68
  31
0.00
  0
LINE
  8
SPLAY
  10
88.84
  20
299.53
  30
0.00
  11
145.75
  21
393.83
  31
0.00
  0
LINE
  8
SPLAY
  10
88.84
  20
299.53
  30
0.00
  11
13.21
  21
451.20
  31
0.00
  0
LINE
  8
SPLAY
  10
88.84
  20
299.53
  30
0.00
  11
117.89
  21
448.55
  31
0.00
  0
LINE
  8
SPLAY
  10
88.84
  20
299.53
  30
0.00
  11
95.21
  21
267.19
  31
0.00
  0
LINE
  8
SPLAY
  10
88.84
  20
299.53
  30
0.00
  11
125.86
  21
263.47
  31
0.00
  0
LINE
  8
SPLAY
  10
88.84
  20
299.53
  30
0.00
  11
193.51
  21
210.52
  31
0.00
  0
LINE
  8
SPLAY
  10
88.84
  20
299.53
  30
0.00
  11
129.95
  21
271.92
  31
0.00
  0
LINE
  8
SPLAY
  10
88.84
  20
299.53
  30
0.00
  11
131.54
  21
267.79
  31
0.00
  0
LINE
  8
SPLAY
  10
6.42
  20
279.81
  30
0.00
  11
-6.62
  21
279.04
  31
0.00
  0
LINE
  8
SPLAY
  10
6.42
  20
279.81
  30
0.00
  11
30.62
  21
278.84
  31
0.00
  0
LINE
  8
SPLAY
  10
6.42
  20
279.81
  30
0.00
  11
26.88
  21
273.49
  31
0.00
  0
LINE
  8
SPLAY
  10
6.42
  20
279.81
  30
0.00
  11
27.97
  21
239.81
  31
0.00
  0
LINE
  8
SPLAY
  10
6.42
  20
279.81
  30
0.00
  11
54.60
  21
219.93
  31
0.00
  0
LINE
  8
SPLAY
  10
6.42
  20
279.81
  30
0.00
  11
41.74
  21
181.04
  31
0.00
  0
LINE
  8
SPLAY
  10
6.42
  20
279.81
  30
0.00
  11
-44.30
  21
279.01
  31
0.00
  0
LINE
  8
SPLAY
  10
6.42
  20
279.81
  30
0.00
  11
-75.68
  21
283.96
  31
0.00
  0
LINE
  8
SPLAY
  10
6.42
  20
279.81
  30
0.00
  11
-5.75
  21
294.98
  31
0.00
  0
LINE
  8
SPLAY
  10
6.42
  20
279.81
  30
0.00
  11
-35.27
  21
358.29
  31
0.00
  0
LINE
  8
SPLAY
  10
6.42
  20
279.81
  30
0.00
  11
-24.30
  21
274.34
  31
0.00
  0
LINE
  8
SPLAY
  10
6.42
  20
279.81
  30
0.00
  11
-44.03
  21
256.10
  31
0.00
  0
LINE
  8
SPLAY
  10
6.42
  20
279.81
  30
0.00
  11
-47.55
  21
221.36
  31
0.00
  0
LINE
  8
SPLAY
  10
6.42
  20
279.81
  30
0.00
  11
-53.31
  21
180.47
  31
0.00
  0
LINE
  8
SPLAY
  10
42.06
  20
126.24
  30
0.00
  11
94.98
  21
129.49
  31
0.00
  0
LINE
  8
SPLAY
  10
42.06
  20
126.24
  30
0.00
  11
85.61
  21
128.71
  31
0.00
  0
LINE
  8
SPLAY
  10
42.06
  20
126.24
  30
0.00
  11
82.30
  21
131.84
  31
0.00
  0
LINE
  8
SPLAY
  10
42.06
  20
126.24
  30
0.00
  11
-10.62
  21
133.15
  31
0.00
  0
LINE
  8
SPLAY
  10
42.06
  20
126.24
  30
0.00
  11
86.53
  21
128.52
  31
0.00
  0
LINE
  8
SPLAY
  10
42.06
  20
126.24
  30
0.00
  11
7.63
  21
231.89
  31
0.00
  0
LINE
  8
SPLAY
  10
42.06
  20
126.24
  30
0.00
  11
9.66
  21
274.38
  31
0.00
  0
LINE
  8
SPLAY
  10
42.06
  20
126.24
  30
0.00
  11
73.02
  21
207.76
  31
0.00
  0
LINE
  8
SPLAY
  10
42.06
  20
126.24
  30
0.00
  11
79.53
  21
170.80
  31
0.00
  0
LINE
  8
SPLAY
  10
42.06
  20
126.24
  30
0.00
  11
102.13
  21
-27.59
  31
0.00
  0
LINE
  8
SPLAY
  10
42.06
  20
126.24
  30
0.00
  11
97.83
  21
59.80
  31
0.00
  0
LINE
  8
SPLAY
  10
42.06
  20
126.24
  30
0.00
  11
103.34
  21
46.55
  31
0.00
  0
LINE
  8
SPLAY
  10
42.06
  20
126.24
  30
0.00
  11
113.72
  21
-100.57
  31
0.00
  0
LINE
  8
SPLAY
  10
42.06
  20
126.24
  30
0.00
  11
86.91
  21
-116.07
  31
0.00
  0
LINE
  8
SPLAY
  10
42.06
  20
126.24
  30
0.00
  11
102.12
  21
-112.28
  31
0.00
  0
LINE
  8
SPLAY
  10
100.00
  20
-120.00
  30
0.00
  11
24.38
  21
-44.93
  31
0.00
  0
LINE
  8
SPLAY
  10
100.00
  20
-120.00
  30
0.00
  11
35.82
  21
-53.11
  31
0.00
  0
LINE
  8
SPLAY
  10
100.00
  20
-120.00
  30
0.00
  11
61.94
  21
-84.25
  31
0.00
  0
LINE
  8
SPLAY
  10
100.00
  20
-120.00
  30
0.00
  11
6.03
  21
-72.26
  31
0.00
  0
LINE
  8
SPLAY
  10
100.00
  20
-120.00
  30
0.00
  11
3.95
  21
-92.53
  31
0.00
  0
LINE
  8
SPLAY
  10
100.00
  20
-120.00
  30
0.00
  11
32.77
  21
-105.87
  31
0.00
  0
LINE
  8
SPLAY
  10
100.00
  20
-120.00
  30
0.00
  11
36.21
  21
-105.87
  31
0.00
  0
LINE
  8
SPLAY
  10
100.00
  20
-120.00
  30
0.00
  11
47.87
  21
-131.08
  31
0.00
  0
LINE
  8
SPLAY
  10
100.00
  20
-120.00
  30
0.00
  11
139.94
  21
-120.00
  31
0.00
  0
LINE
  8
SPLAY
  10
100.00
  20
-120.00
  30
0.00
  11
41.64
  21
11.80
  31
0.00
  0
LINE
  8
SPLAY
  10
100.00
  20
-120.00
  30
0.00
  11
29.72
  21
283.42
  31
0.00
  0
LINE
  8
SPLAY
  10
100.00
  20
-120.00
  30
0.00
  11
11.08
  21
150.04
  31
0.00
  0
LINE
  8
SPLAY
  10
100.00
  20
-120.00
  30
0.00
  11
33.53
  21
-116.63
  31
0.00
  0
LINE
  8
SPLAY
  10
100.00
  20
-120.00
  30
0.00
  11
16.06
  21
-103.43
  31
0.00
  0
LINE
  8
SPLAY
  10
100.00
  20
-120.00
  30
0.00
  11
68.25
  21
-221.72
  31
0.00
  0
LINE
  8
SPLAY
  10
43.86
  20
-245.40
  30
0.00
  11
-30.39
  21
-290.33
  31
0.00
  0
LINE
  8
SPLAY
  10
43.86
  20
-245.40
  30
0.00
  11
-40.90
  21
-275.33
  31
0.00
  0
LINE
  8
SPLAY
  10
43.86
  20
-245.40
  30
0.00
  11
-19.41
  21
-307.17
  31
0.00
  0
LINE
  8
SPLAY
  10
43.86
  20
-245.40
  30
0.00
  11
19.46
  21
-277.78
  31
0.00
  0
LINE
  8
SPLAY
  10
43.86
  20
-245.40
  30
0.00
  11
29.17
  21
-264.64
  31
0.00
  0
LINE
  8
SPLAY
  10
43.86
  20
-245.40
  30
0.00
  11
-2.34
  21
-246.13
  31
0.00
  0
LINE
  8
SPLAY
  10
43.86
  20
-245.40
  30
0.00
  11
69.46
  21
-247.88
  31
0.00
  0
LINE
  8
SPLAY
  10
43.86
  20
-245.40
  30
0.00
  11
89.14
  21
-235.00
  31
0.00
  0
LINE
  8
SPLAY
  10
43.86
  20
-245.40
  30
0.00
  11
52.97
  21
-244.33
  31
0.00
  0
LINE
  8
SPLAY
  10
43.86
  20
-245.40
  30
0.00
  11
-7.05
  21
-256.67
  31
0.00
  0
LINE
  8
SPLAY
  10
43.86
  20
-245.40
  30
0.00
  11
13.63
  21
-199.17
  31
0.00
  0
LINE
  8
SPLAY
  10
43.86
  20
-245.40
  30
0.00
  11
25.60
  21
-400.29
  31
0.00
  0
LINE
  8
SPLAY
  10
43.86
  20
-245.40
  30
0.00
  11
67.96
  21
-426.67
  31
0.00
  0
LINE
  8
SPLAY
  10
98.99
  20
-419.18
  30
0.00
  11
15.23
  21
-419.11
  31
0.00
  0
LINE
  8
SPLAY
  10
98.99
  20
-419.18
  30
0.00
  11
27.55
  21
-422.28
  31
0.00
  0
LINE
  8
SPLAY
  10
98.99
  20
-419.18
  30
0.00
  11
33.11
  21
-419.86
  31
0.00
  0
LINE
  8
SPLAY
  10
98.99
  20
-419.18
  30
0.00
  11
58.62
  21
-409.92
  31
0.00
  0
LINE
  8
SPLAY
  10
98.99
  20
-419.18
  30
0.00
  11
138.97
  21
-405.36
  31
0.00
  0
LINE
  8
SPLAY
  10
98.99
  20
-419.18
  30
0.00
  11
116.06
  21
-396.86
  31
0.00
  0
LINE
  8
SPLAY
  10
98.99
  20
-419.18
  30
0.00
  11
160.75
  21
-539.34
  31
0.00
  0
LINE
  8
SPLAY
  10
98.99
  20
-419.18
  30
0.00
  11
147.93
  21
-599.54
  31
0.00
  0
LINE
  8
SPLAY
  10
98.99
  20
-419.18
  30
0.00
  11
137.06
  21
-601.98
  31
0.00
  0
LINE
  8
SPLAY
  10
98.99
  20
-419.18
  30
0.00
  11
-8.92
  21
-272.22
  31
0.00
  0
LINE
  8
SPLAY
  10
98.99
  20
-419.18
  30
0.00
  11
-36.60
  21
-229.99
  31
0.00
  0
LINE
  8
SPLAY
  10
98.99
  20
-419.18
  30
0.00
  11
2.35
  21
-276.48
  31
0.00
  0
LINE
  8
SPLAY
  10
98.99
  20
-419.18
  30
0.00
  11
75.44
  21
-348.61
  31
0.00
  0
LINE
  8
SPLAY
  10
98.99
  20
-419.18
  30
0.00
  11
104.67
  21
-349.63
  31
0.00
  0
LINE
  8
SPLAY
  10
98.99
  20
-419.18
  30
0.00
  11
115.31
  21
-419.88
  31
0.00
  0
LINE
  8
SPLAY
  10
98.99
  20
-419.18
  30
0.00
  11
172.09
  21
-650.32
  31
0.00
  0
LINE
  8
SPLAY
  10
219.96
  20
-644.06
  30
0.00
  11
270.78
  21
-691.53
  31
0.00
  0
LINE
  8
SPLAY
  10
219.96
  20
-644.06
  30
0.00
  11
269.95
  21
-714.85
  31
0.00
  0
LINE
  8
SPLAY
  10
219.96
  20
-644.06
  30
0.00
  11
297.09
  21
-755.61
  31
0.00
  0
LINE
  8
SPLAY
  10
219.96
  20
-644.06
  30
0.00
  11
392.95
  21
-1000.39
  31
0.00
  0
LINE
  8
SPLAY
  10
219.96
  20
-644.06
  30
0.00
  11
255.93
  21
-776.73
  31
0.00
  0
ENDSEC
  0
EOF
