<svg width="-19800" height="-19800"
   xmlns:svg="http://www.w3.org/2000/svg"
   xmlns="http://www.w3.org/2000/svg" >
<!-- SVG created by TopoDroid v. 3.1.4 -->
  <defs>
    <marker id="Triangle" viewBox="0 0 10 10" refX="0" refY="5" 
      markerUnits="strokeWidth" markerWidth="4" markerHeight="3" orient="auto" >
      <path d="M 0 0 L 10 5 L 0 10 z" />
    </marker>
  </defs>
<g>
<g style="fill:none;stroke-opacity:0.6;stroke:red" >
  <path stroke-width="1" stroke="black" d="M 42.06 -126.24 L 100.00 120.00" />
  <path stroke-width="1" stroke="black" d="M 100.00 120.00 L 43.86 245.40" />
  <path stroke-width="1" stroke="black" d="M 43.86 245.40 L 98.99 419.18" />
  <path stroke-width="1" stroke="black" d="M 98.99 419.18 L 219.96 644.06" />
  <path stroke-width="1" stroke="black" d="M 219.96 644.06 L 305.80 1106.90" />
  <path stroke-width="1" stroke="black" d="M 6.42 -279.81 L 42.06 -126.24" />
  <path stroke-width="1" stroke="black" d="M 88.84 -299.53 L 6.42 -279.81" />
  <path stroke-width="1" stroke="black" d="M 192.58 -642.67 L 88.84 -299.53" />
  <path stroke-width="1" stroke="black" d="M 154.25 -846.06 L 192.58 -642.67" />
  <path stroke-width="1" stroke="black" d="M 171.86 -895.42 L 154.25 -846.06" />
  <path stroke-width="1" stroke="black" d="M 216.16 -927.94 L 171.86 -895.42" />
  <path stroke-width="1" stroke="black" d="M 255.43 -919.18 L 216.16 -927.94" />
  <path stroke-width="1" stroke="black" d="M 227.79 -993.82 L 255.43 -919.18" />
  <path stroke-width="1" stroke="black" d="M 317.84 -1112.23 L 227.79 -993.82" />
  <path stroke-width="1" stroke="black" d="M 343.37 -1172.27 L 317.84 -1112.23" />
  <path stroke-width="1" stroke="black" d="M 379.86 -1150.81 L 343.37 -1172.27" />
  <path stroke-width="1" stroke="black" d="M 414.60 -1167.50 L 379.86 -1150.81" />
  <path stroke-width="1" stroke="black" d="M 446.53 -1233.87 L 414.60 -1167.50" />
  <path stroke-width="1" stroke="black" d="M 488.11 -1264.39 L 446.53 -1233.87" />
  <path stroke-width="1" stroke="black" d="M 546.03 -1369.82 L 488.11 -1264.39" />
  <path stroke-width="1" stroke="black" d="M 588.26 -1493.96 L 546.03 -1369.82" />
  <path stroke-width="1" stroke="black" d="M 628.67 -1624.69 L 588.26 -1493.96" />
  <path stroke-width="1" stroke="grey" d="M 628.67 -1624.69 L 606.63 -1625.99" />
  <path stroke-width="1" stroke="grey" d="M 628.67 -1624.69 L 566.19 -1619.69" />
  <path stroke-width="1" stroke="grey" d="M 628.67 -1624.69 L 600.82 -1621.97" />
  <path stroke-width="1" stroke="grey" d="M 628.67 -1624.69 L 725.59 -1623.98" />
  <path stroke-width="1" stroke="grey" d="M 628.67 -1624.69 L 657.39 -1623.59" />
  <path stroke-width="1" stroke="grey" d="M 628.67 -1624.69 L 587.27 -1630.03" />
  <path stroke-width="1" stroke="grey" d="M 628.67 -1624.69 L 615.28 -1470.73" />
  <path stroke-width="1" stroke="grey" d="M 628.67 -1624.69 L 616.12 -1584.90" />
  <path stroke-width="1" stroke="grey" d="M 628.67 -1624.69 L 572.44 -1512.24" />
  <path stroke-width="1" stroke="grey" d="M 628.67 -1624.69 L 532.99 -1555.38" />
  <path stroke-width="1" stroke="grey" d="M 628.67 -1624.69 L 597.71 -1624.40" />
  <path stroke-width="1" stroke="grey" d="M 628.67 -1624.69 L 616.52 -1701.68" />
  <path stroke-width="1" stroke="grey" d="M 628.67 -1624.69 L 594.94 -1713.35" />
  <path stroke-width="1" stroke="grey" d="M 628.67 -1624.69 L 608.43 -1671.57" />
  <path stroke-width="1" stroke="grey" d="M 628.67 -1624.69 L 592.21 -1697.02" />
  <path stroke-width="1" stroke="grey" d="M 628.67 -1624.69 L 588.02 -1493.50" />
  <path stroke-width="1" stroke="grey" d="M 628.67 -1624.69 L 590.74 -1502.88" />
  <path stroke-width="1" stroke="grey" d="M 588.26 -1493.96 L 608.85 -1495.01" />
  <path stroke-width="1" stroke="grey" d="M 588.26 -1493.96 L 628.48 -1494.58" />
  <path stroke-width="1" stroke="grey" d="M 588.26 -1493.96 L 644.83 -1495.19" />
  <path stroke-width="1" stroke="grey" d="M 588.26 -1493.96 L 664.80 -1495.91" />
  <path stroke-width="1" stroke="grey" d="M 588.26 -1493.96 L 618.93 -1619.96" />
  <path stroke-width="1" stroke="grey" d="M 588.26 -1493.96 L 614.87 -1558.64" />
  <path stroke-width="1" stroke="grey" d="M 588.26 -1493.96 L 500.05 -1496.88" />
  <path stroke-width="1" stroke="grey" d="M 588.26 -1493.96 L 539.54 -1500.23" />
  <path stroke-width="1" stroke="grey" d="M 588.26 -1493.96 L 537.35 -1497.55" />
  <path stroke-width="1" stroke="grey" d="M 588.26 -1493.96 L 570.26 -1494.77" />
  <path stroke-width="1" stroke="grey" d="M 588.26 -1493.96 L 546.21 -1573.08" />
  <path stroke-width="1" stroke="grey" d="M 588.26 -1493.96 L 531.54 -1552.65" />
  <path stroke-width="1" stroke="grey" d="M 588.26 -1493.96 L 627.76 -1422.86" />
  <path stroke-width="1" stroke="grey" d="M 588.26 -1493.96 L 614.62 -1352.07" />
  <path stroke-width="1" stroke="grey" d="M 588.26 -1493.96 L 600.79 -1357.48" />
  <path stroke-width="1" stroke="grey" d="M 546.03 -1369.82 L 617.17 -1370.15" />
  <path stroke-width="1" stroke="grey" d="M 546.03 -1369.82 L 580.20 -1368.90" />
  <path stroke-width="1" stroke="grey" d="M 546.03 -1369.82 L 599.69 -1369.69" />
  <path stroke-width="1" stroke="grey" d="M 546.03 -1369.82 L 518.05 -1370.85" />
  <path stroke-width="1" stroke="grey" d="M 546.03 -1369.82 L 590.74 -1461.86" />
  <path stroke-width="1" stroke="grey" d="M 546.03 -1369.82 L 643.34 -1532.34" />
  <path stroke-width="1" stroke="grey" d="M 546.03 -1369.82 L 507.21 -1380.86" />
  <path stroke-width="1" stroke="grey" d="M 546.03 -1369.82 L 474.54 -1434.04" />
  <path stroke-width="1" stroke="grey" d="M 546.03 -1369.82 L 448.20 -1382.29" />
  <path stroke-width="1" stroke="grey" d="M 546.03 -1369.82 L 464.58 -1382.18" />
  <path stroke-width="1" stroke="grey" d="M 546.03 -1369.82 L 511.02 -1379.40" />
  <path stroke-width="1" stroke="grey" d="M 546.03 -1369.82 L 494.64 -1367.70" />
  <path stroke-width="1" stroke="grey" d="M 546.03 -1369.82 L 454.32 -1237.91" />
  <path stroke-width="1" stroke="grey" d="M 546.03 -1369.82 L 522.29 -1219.59" />
  <path stroke-width="1" stroke="grey" d="M 546.03 -1369.82 L 570.03 -1263.97" />
  <path stroke-width="1" stroke="grey" d="M 546.03 -1369.82 L 476.06 -1230.82" />
  <path stroke-width="1" stroke="grey" d="M 546.03 -1369.82 L 429.96 -1257.88" />
  <path stroke-width="1" stroke="grey" d="M 546.03 -1369.82 L 447.80 -1241.02" />
  <path stroke-width="1" stroke="grey" d="M 546.03 -1369.82 L 487.30 -1263.43" />
  <path stroke-width="1" stroke="grey" d="M 546.03 -1369.82 L 485.50 -1259.50" />
  <path stroke-width="1" stroke="grey" d="M 488.11 -1264.39 L 522.13 -1263.11" />
  <path stroke-width="1" stroke="grey" d="M 488.11 -1264.39 L 453.75 -1267.73" />
  <path stroke-width="1" stroke="grey" d="M 488.11 -1264.39 L 434.00 -1273.40" />
  <path stroke-width="1" stroke="grey" d="M 488.11 -1264.39 L 418.79 -1272.38" />
  <path stroke-width="1" stroke="grey" d="M 488.11 -1264.39 L 427.47 -1274.48" />
  <path stroke-width="1" stroke="grey" d="M 488.11 -1264.39 L 559.29 -1265.23" />
  <path stroke-width="1" stroke="grey" d="M 488.11 -1264.39 L 546.55 -1265.87" />
  <path stroke-width="1" stroke="grey" d="M 488.11 -1264.39 L 530.19 -1266.68" />
  <path stroke-width="1" stroke="grey" d="M 488.11 -1264.39 L 525.13 -1266.59" />
  <path stroke-width="1" stroke="grey" d="M 488.11 -1264.39 L 562.44 -1327.86" />
  <path stroke-width="1" stroke="grey" d="M 488.11 -1264.39 L 558.70 -1447.86" />
  <path stroke-width="1" stroke="grey" d="M 488.11 -1264.39 L 460.63 -1451.55" />
  <path stroke-width="1" stroke="grey" d="M 488.11 -1264.39 L 441.10 -1359.75" />
  <path stroke-width="1" stroke="grey" d="M 488.11 -1264.39 L 490.20 -1233.46" />
  <path stroke-width="1" stroke="grey" d="M 488.11 -1264.39 L 510.04 -1224.52" />
  <path stroke-width="1" stroke="grey" d="M 446.53 -1233.87 L 434.99 -1234.02" />
  <path stroke-width="1" stroke="grey" d="M 446.53 -1233.87 L 411.47 -1274.82" />
  <path stroke-width="1" stroke="grey" d="M 446.53 -1233.87 L 428.00 -1299.40" />
  <path stroke-width="1" stroke="grey" d="M 446.53 -1233.87 L 425.25 -1258.28" />
  <path stroke-width="1" stroke="grey" d="M 446.53 -1233.87 L 473.08 -1391.49" />
  <path stroke-width="1" stroke="grey" d="M 446.53 -1233.87 L 443.66 -1341.17" />
  <path stroke-width="1" stroke="grey" d="M 446.53 -1233.87 L 474.17 -1251.97" />
  <path stroke-width="1" stroke="grey" d="M 446.53 -1233.87 L 428.15 -1233.38" />
  <path stroke-width="1" stroke="grey" d="M 446.53 -1233.87 L 427.73 -1231.76" />
  <path stroke-width="1" stroke="grey" d="M 446.53 -1233.87 L 461.46 -1226.72" />
  <path stroke-width="1" stroke="grey" d="M 414.60 -1167.50 L 406.18 -1166.06" />
  <path stroke-width="1" stroke="grey" d="M 414.60 -1167.50 L 403.50 -1178.23" />
  <path stroke-width="1" stroke="grey" d="M 414.60 -1167.50 L 416.68 -1194.92" />
  <path stroke-width="1" stroke="grey" d="M 414.60 -1167.50 L 426.58 -1214.37" />
  <path stroke-width="1" stroke="grey" d="M 414.60 -1167.50 L 464.33 -1203.03" />
  <path stroke-width="1" stroke="grey" d="M 414.60 -1167.50 L 453.66 -1188.98" />
  <path stroke-width="1" stroke="grey" d="M 414.60 -1167.50 L 439.24 -1190.40" />
  <path stroke-width="1" stroke="grey" d="M 414.60 -1167.50 L 412.73 -1148.85" />
  <path stroke-width="1" stroke="grey" d="M 414.60 -1167.50 L 473.41 -1215.89" />
  <path stroke-width="1" stroke="grey" d="M 414.60 -1167.50 L 433.73 -1254.50" />
  <path stroke-width="1" stroke="grey" d="M 414.60 -1167.50 L 390.51 -1173.24" />
  <path stroke-width="1" stroke="grey" d="M 414.60 -1167.50 L 380.68 -1150.99" />
  <path stroke-width="1" stroke="grey" d="M 379.86 -1150.81 L 395.51 -1154.14" />
  <path stroke-width="1" stroke="grey" d="M 379.86 -1150.81 L 391.73 -1149.92" />
  <path stroke-width="1" stroke="grey" d="M 379.86 -1150.81 L 394.60 -1161.32" />
  <path stroke-width="1" stroke="grey" d="M 379.86 -1150.81 L 370.64 -1150.13" />
  <path stroke-width="1" stroke="grey" d="M 379.86 -1150.81 L 387.87 -1151.44" />
  <path stroke-width="1" stroke="grey" d="M 379.86 -1150.81 L 389.22 -1150.80" />
  <path stroke-width="1" stroke="grey" d="M 379.86 -1150.81 L 392.14 -1150.76" />
  <path stroke-width="1" stroke="grey" d="M 379.86 -1150.81 L 405.14 -1153.43" />
  <path stroke-width="1" stroke="grey" d="M 379.86 -1150.81 L 393.90 -1152.31" />
  <path stroke-width="1" stroke="grey" d="M 379.86 -1150.81 L 391.96 -1151.85" />
  <path stroke-width="1" stroke="grey" d="M 379.86 -1150.81 L 393.80 -1162.66" />
  <path stroke-width="1" stroke="grey" d="M 379.86 -1150.81 L 372.83 -1133.24" />
  <path stroke-width="1" stroke="grey" d="M 379.86 -1150.81 L 369.01 -1153.44" />
  <path stroke-width="1" stroke="grey" d="M 379.86 -1150.81 L 362.23 -1157.50" />
  <path stroke-width="1" stroke="grey" d="M 379.86 -1150.81 L 371.80 -1155.00" />
  <path stroke-width="1" stroke="grey" d="M 379.86 -1150.81 L 370.44 -1174.49" />
  <path stroke-width="1" stroke="grey" d="M 343.37 -1172.27 L 336.47 -1172.24" />
  <path stroke-width="1" stroke="grey" d="M 343.37 -1172.27 L 373.04 -1176.73" />
  <path stroke-width="1" stroke="grey" d="M 343.37 -1172.27 L 364.52 -1176.46" />
  <path stroke-width="1" stroke="grey" d="M 343.37 -1172.27 L 360.20 -1178.07" />
  <path stroke-width="1" stroke="grey" d="M 343.37 -1172.27 L 350.06 -1179.68" />
  <path stroke-width="1" stroke="grey" d="M 343.37 -1172.27 L 358.18 -1171.82" />
  <path stroke-width="1" stroke="grey" d="M 343.37 -1172.27 L 346.93 -1189.69" />
  <path stroke-width="1" stroke="grey" d="M 343.37 -1172.27 L 329.93 -1131.79" />
  <path stroke-width="1" stroke="grey" d="M 343.37 -1172.27 L 329.91 -1119.71" />
  <path stroke-width="1" stroke="grey" d="M 343.37 -1172.27 L 330.65 -1142.04" />
  <path stroke-width="1" stroke="grey" d="M 343.37 -1172.27 L 338.43 -1147.05" />
  <path stroke-width="1" stroke="grey" d="M 317.84 -1112.23 L 333.03 -1115.46" />
  <path stroke-width="1" stroke="grey" d="M 317.84 -1112.23 L 312.43 -1137.52" />
  <path stroke-width="1" stroke="grey" d="M 317.84 -1112.23 L 311.34 -1122.10" />
  <path stroke-width="1" stroke="grey" d="M 317.84 -1112.23 L 246.07 -1115.34" />
  <path stroke-width="1" stroke="grey" d="M 317.84 -1112.23 L 300.02 -1116.73" />
  <path stroke-width="1" stroke="grey" d="M 317.84 -1112.23 L 290.84 -1141.66" />
  <path stroke-width="1" stroke="grey" d="M 317.84 -1112.23 L 285.94 -1116.07" />
  <path stroke-width="1" stroke="grey" d="M 317.84 -1112.23 L 285.74 -1109.47" />
  <path stroke-width="1" stroke="grey" d="M 317.84 -1112.23 L 294.15 -1109.24" />
  <path stroke-width="1" stroke="grey" d="M 317.84 -1112.23 L 302.89 -1112.45" />
  <path stroke-width="1" stroke="grey" d="M 317.84 -1112.23 L 322.29 -1076.83" />
  <path stroke-width="1" stroke="grey" d="M 317.84 -1112.23 L 357.52 -1184.50" />
  <path stroke-width="1" stroke="grey" d="M 317.84 -1112.23 L 238.04 -1072.66" />
  <path stroke-width="1" stroke="grey" d="M 317.84 -1112.23 L 234.76 -1065.76" />
  <path stroke-width="1" stroke="grey" d="M 317.84 -1112.23 L 256.36 -1075.57" />
  <path stroke-width="1" stroke="grey" d="M 317.84 -1112.23 L 291.82 -1142.35" />
  <path stroke-width="1" stroke="grey" d="M 317.84 -1112.23 L 235.57 -896.68" />
  <path stroke-width="1" stroke="grey" d="M 317.84 -1112.23 L 272.04 -953.32" />
  <path stroke-width="1" stroke="grey" d="M 317.84 -1112.23 L 303.95 -1073.40" />
  <path stroke-width="1" stroke="grey" d="M 317.84 -1112.23 L 228.68 -1003.39" />
  <path stroke-width="1" stroke="grey" d="M 227.79 -993.82 L 239.50 -993.38" />
  <path stroke-width="1" stroke="grey" d="M 227.79 -993.82 L 238.57 -1008.44" />
  <path stroke-width="1" stroke="grey" d="M 227.79 -993.82 L 238.83 -1029.47" />
  <path stroke-width="1" stroke="grey" d="M 227.79 -993.82 L 217.76 -1027.73" />
  <path stroke-width="1" stroke="grey" d="M 227.79 -993.82 L 273.82 -986.91" />
  <path stroke-width="1" stroke="grey" d="M 227.79 -993.82 L 280.87 -1026.44" />
  <path stroke-width="1" stroke="grey" d="M 227.79 -993.82 L 286.27 -1027.09" />
  <path stroke-width="1" stroke="grey" d="M 227.79 -993.82 L 312.56 -1060.09" />
  <path stroke-width="1" stroke="grey" d="M 227.79 -993.82 L 316.11 -1077.09" />
  <path stroke-width="1" stroke="grey" d="M 227.79 -993.82 L 294.37 -1100.65" />
  <path stroke-width="1" stroke="grey" d="M 227.79 -993.82 L 241.31 -1021.98" />
  <path stroke-width="1" stroke="grey" d="M 227.79 -993.82 L 268.38 -966.55" />
  <path stroke-width="1" stroke="grey" d="M 227.79 -993.82 L 265.96 -972.71" />
  <path stroke-width="1" stroke="grey" d="M 227.79 -993.82 L 243.92 -981.07" />
  <path stroke-width="1" stroke="grey" d="M 227.79 -993.82 L 242.51 -976.12" />
  <path stroke-width="1" stroke="grey" d="M 255.43 -919.18 L 235.89 -917.58" />
  <path stroke-width="1" stroke="grey" d="M 255.43 -919.18 L 226.89 -920.38" />
  <path stroke-width="1" stroke="grey" d="M 255.43 -919.18 L 203.09 -919.88" />
  <path stroke-width="1" stroke="grey" d="M 255.43 -919.18 L 252.41 -859.43" />
  <path stroke-width="1" stroke="grey" d="M 255.43 -919.18 L 246.86 -834.95" />
  <path stroke-width="1" stroke="grey" d="M 255.43 -919.18 L 242.22 -873.43" />
  <path stroke-width="1" stroke="grey" d="M 255.43 -919.18 L 226.78 -917.78" />
  <path stroke-width="1" stroke="grey" d="M 255.43 -919.18 L 237.37 -964.17" />
  <path stroke-width="1" stroke="grey" d="M 255.43 -919.18 L 247.29 -985.50" />
  <path stroke-width="1" stroke="grey" d="M 255.43 -919.18 L 230.66 -881.68" />
  <path stroke-width="1" stroke="grey" d="M 255.43 -919.18 L 218.77 -919.12" />
  <path stroke-width="1" stroke="grey" d="M 216.16 -927.94 L 223.63 -928.32" />
  <path stroke-width="1" stroke="grey" d="M 216.16 -927.94 L 309.73 -919.89" />
  <path stroke-width="1" stroke="grey" d="M 216.16 -927.94 L 263.07 -926.45" />
  <path stroke-width="1" stroke="grey" d="M 216.16 -927.94 L 228.12 -970.05" />
  <path stroke-width="1" stroke="grey" d="M 216.16 -927.94 L 228.47 -997.01" />
  <path stroke-width="1" stroke="grey" d="M 216.16 -927.94 L 258.24 -943.70" />
  <path stroke-width="1" stroke="grey" d="M 216.16 -927.94 L 241.25 -933.66" />
  <path stroke-width="1" stroke="grey" d="M 216.16 -927.94 L 228.50 -934.79" />
  <path stroke-width="1" stroke="grey" d="M 216.16 -927.94 L 233.14 -910.51" />
  <path stroke-width="1" stroke="grey" d="M 216.16 -927.94 L 241.16 -863.46" />
  <path stroke-width="1" stroke="grey" d="M 216.16 -927.94 L 257.82 -869.22" />
  <path stroke-width="1" stroke="grey" d="M 216.16 -927.94 L 244.37 -874.70" />
  <path stroke-width="1" stroke="grey" d="M 216.16 -927.94 L 219.65 -900.32" />
  <path stroke-width="1" stroke="grey" d="M 216.16 -927.94 L 156.03 -914.66" />
  <path stroke-width="1" stroke="grey" d="M 171.86 -895.42 L 159.14 -895.27" />
  <path stroke-width="1" stroke="grey" d="M 171.86 -895.42 L 158.67 -895.98" />
  <path stroke-width="1" stroke="grey" d="M 171.86 -895.42 L 164.18 -917.14" />
  <path stroke-width="1" stroke="grey" d="M 171.86 -895.42 L 136.50 -894.71" />
  <path stroke-width="1" stroke="grey" d="M 171.86 -895.42 L 181.24 -881.95" />
  <path stroke-width="1" stroke="grey" d="M 171.86 -895.42 L 162.00 -845.32" />
  <path stroke-width="1" stroke="grey" d="M 171.86 -895.42 L 268.87 -933.28" />
  <path stroke-width="1" stroke="grey" d="M 171.86 -895.42 L 98.53 -948.43" />
  <path stroke-width="1" stroke="grey" d="M 171.86 -895.42 L 79.94 -919.51" />
  <path stroke-width="1" stroke="grey" d="M 171.86 -895.42 L 218.33 -867.02" />
  <path stroke-width="1" stroke="grey" d="M 171.86 -895.42 L 206.42 -865.92" />
  <path stroke-width="1" stroke="grey" d="M 154.25 -846.06 L 113.15 -845.89" />
  <path stroke-width="1" stroke="grey" d="M 154.25 -846.06 L 112.73 -846.70" />
  <path stroke-width="1" stroke="grey" d="M 154.25 -846.06 L 172.59 -847.19" />
  <path stroke-width="1" stroke="grey" d="M 154.25 -846.06 L 172.25 -843.15" />
  <path stroke-width="1" stroke="grey" d="M 154.25 -846.06 L 176.15 -872.36" />
  <path stroke-width="1" stroke="grey" d="M 154.25 -846.06 L 173.82 -893.31" />
  <path stroke-width="1" stroke="grey" d="M 154.25 -846.06 L 169.32 -912.17" />
  <path stroke-width="1" stroke="grey" d="M 154.25 -846.06 L 176.11 -806.64" />
  <path stroke-width="1" stroke="grey" d="M 154.25 -846.06 L 84.16 -695.32" />
  <path stroke-width="1" stroke="grey" d="M 154.25 -846.06 L 170.24 -718.14" />
  <path stroke-width="1" stroke="grey" d="M 154.25 -846.06 L 162.78 -856.08" />
  <path stroke-width="1" stroke="grey" d="M 192.58 -642.67 L 219.65 -641.87" />
  <path stroke-width="1" stroke="grey" d="M 192.58 -642.67 L 147.95 -643.46" />
  <path stroke-width="1" stroke="grey" d="M 192.58 -642.67 L 152.67 -644.72" />
  <path stroke-width="1" stroke="grey" d="M 192.58 -642.67 L 155.74 -644.81" />
  <path stroke-width="1" stroke="grey" d="M 192.58 -642.67 L 154.00 -644.79" />
  <path stroke-width="1" stroke="grey" d="M 192.58 -642.67 L 150.49 -647.27" />
  <path stroke-width="1" stroke="grey" d="M 192.58 -642.67 L 143.78 -646.07" />
  <path stroke-width="1" stroke="grey" d="M 192.58 -642.67 L 132.40 -652.60" />
  <path stroke-width="1" stroke="grey" d="M 192.58 -642.67 L 120.84 -676.12" />
  <path stroke-width="1" stroke="grey" d="M 192.58 -642.67 L 125.72 -681.55" />
  <path stroke-width="1" stroke="grey" d="M 192.58 -642.67 L 218.61 -650.22" />
  <path stroke-width="1" stroke="grey" d="M 192.58 -642.67 L 150.22 -600.69" />
  <path stroke-width="1" stroke="grey" d="M 192.58 -642.67 L 190.78 -639.06" />
  <path stroke-width="1" stroke="grey" d="M 192.58 -642.67 L 161.76 -729.36" />
  <path stroke-width="1" stroke="grey" d="M 192.58 -642.67 L 174.32 -785.65" />
  <path stroke-width="1" stroke="grey" d="M 192.58 -642.67 L 149.33 -843.55" />
  <path stroke-width="1" stroke="grey" d="M 192.58 -642.67 L 116.86 -865.75" />
  <path stroke-width="1" stroke="grey" d="M 192.58 -642.67 L 127.77 -532.57" />
  <path stroke-width="1" stroke="grey" d="M 192.58 -642.67 L 101.35 -488.79" />
  <path stroke-width="1" stroke="grey" d="M 192.58 -642.67 L 119.81 -525.16" />
  <path stroke-width="1" stroke="grey" d="M 192.58 -642.67 L 109.62 -383.05" />
  <path stroke-width="1" stroke="grey" d="M 192.58 -642.67 L 103.57 -433.37" />
  <path stroke-width="1" stroke="grey" d="M 88.84 -299.53 L 136.38 -297.12" />
  <path stroke-width="1" stroke="grey" d="M 88.84 -299.53 L 163.40 -307.60" />
  <path stroke-width="1" stroke="grey" d="M 88.84 -299.53 L 100.67 -301.27" />
  <path stroke-width="1" stroke="grey" d="M 88.84 -299.53 L 172.26 -301.45" />
  <path stroke-width="1" stroke="grey" d="M 88.84 -299.53 L 168.00 -298.70" />
  <path stroke-width="1" stroke="grey" d="M 88.84 -299.53 L 135.58 -299.71" />
  <path stroke-width="1" stroke="grey" d="M 88.84 -299.53 L 133.04 -300.68" />
  <path stroke-width="1" stroke="grey" d="M 88.84 -299.53 L 145.75 -393.83" />
  <path stroke-width="1" stroke="grey" d="M 88.84 -299.53 L 13.21 -451.20" />
  <path stroke-width="1" stroke="grey" d="M 88.84 -299.53 L 117.89 -448.55" />
  <path stroke-width="1" stroke="grey" d="M 88.84 -299.53 L 95.21 -267.19" />
  <path stroke-width="1" stroke="grey" d="M 88.84 -299.53 L 125.86 -263.47" />
  <path stroke-width="1" stroke="grey" d="M 88.84 -299.53 L 193.51 -210.52" />
  <path stroke-width="1" stroke="grey" d="M 88.84 -299.53 L 129.95 -271.92" />
  <path stroke-width="1" stroke="grey" d="M 88.84 -299.53 L 131.54 -267.79" />
  <path stroke-width="1" stroke="grey" d="M 6.42 -279.81 L -6.62 -279.04" />
  <path stroke-width="1" stroke="grey" d="M 6.42 -279.81 L 30.62 -278.84" />
  <path stroke-width="1" stroke="grey" d="M 6.42 -279.81 L 26.88 -273.49" />
  <path stroke-width="1" stroke="grey" d="M 6.42 -279.81 L 27.97 -239.81" />
  <path stroke-width="1" stroke="grey" d="M 6.42 -279.81 L 54.60 -219.93" />
  <path stroke-width="1" stroke="grey" d="M 6.42 -279.81 L 41.74 -181.04" />
  <path stroke-width="1" stroke="grey" d="M 6.42 -279.81 L -44.30 -279.01" />
  <path stroke-width="1" stroke="grey" d="M 6.42 -279.81 L -75.68 -283.96" />
  <path stroke-width="1" stroke="grey" d="M 6.42 -279.81 L -5.75 -294.98" />
  <path stroke-width="1" stroke="grey" d="M 6.42 -279.81 L -35.27 -358.29" />
  <path stroke-width="1" stroke="grey" d="M 6.42 -279.81 L -24.30 -274.34" />
  <path stroke-width="1" stroke="grey" d="M 6.42 -279.81 L -44.03 -256.10" />
  <path stroke-width="1" stroke="grey" d="M 6.42 -279.81 L -47.55 -221.36" />
  <path stroke-width="1" stroke="grey" d="M 6.42 -279.81 L -53.31 -180.47" />
  <path stroke-width="1" stroke="grey" d="M 42.06 -126.24 L 94.98 -129.49" />
  <path stroke-width="1" stroke="grey" d="M 42.06 -126.24 L 85.61 -128.71" />
  <path stroke-width="1" stroke="grey" d="M 42.06 -126.24 L 82.30 -131.84" />
  <path stroke-width="1" stroke="grey" d="M 42.06 -126.24 L -10.62 -133.15" />
  <path stroke-width="1" stroke="grey" d="M 42.06 -126.24 L 86.53 -128.52" />
  <path stroke-width="1" stroke="grey" d="M 42.06 -126.24 L 7.63 -231.89" />
  <path stroke-width="1" stroke="grey" d="M 42.06 -126.24 L 9.66 -274.38" />
  <path stroke-width="1" stroke="grey" d="M 42.06 -126.24 L 73.02 -207.76" />
  <path stroke-width="1" stroke="grey" d="M 42.06 -126.24 L 79.53 -170.80" />
  <path stroke-width="1" stroke="grey" d="M 42.06 -126.24 L 102.13 27.59" />
  <path stroke-width="1" stroke="grey" d="M 42.06 -126.24 L 97.83 -59.80" />
  <path stroke-width="1" stroke="grey" d="M 42.06 -126.24 L 103.34 -46.55" />
  <path stroke-width="1" stroke="grey" d="M 42.06 -126.24 L 113.72 100.57" />
  <path stroke-width="1" stroke="grey" d="M 42.06 -126.24 L 86.91 116.07" />
  <path stroke-width="1" stroke="grey" d="M 42.06 -126.24 L 102.12 112.28" />
  <path stroke-width="1" stroke="grey" d="M 100.00 120.00 L 24.38 44.93" />
  <path stroke-width="1" stroke="grey" d="M 100.00 120.00 L 35.82 53.11" />
  <path stroke-width="1" stroke="grey" d="M 100.00 120.00 L 61.94 84.25" />
  <path stroke-width="1" stroke="grey" d="M 100.00 120.00 L 6.03 72.26" />
  <path stroke-width="1" stroke="grey" d="M 100.00 120.00 L 3.95 92.53" />
  <path stroke-width="1" stroke="grey" d="M 100.00 120.00 L 32.77 105.87" />
  <path stroke-width="1" stroke="grey" d="M 100.00 120.00 L 36.21 105.87" />
  <path stroke-width="1" stroke="grey" d="M 100.00 120.00 L 47.87 131.08" />
  <path stroke-width="1" stroke="grey" d="M 100.00 120.00 L 139.94 120.00" />
  <path stroke-width="1" stroke="grey" d="M 100.00 120.00 L 41.64 -11.80" />
  <path stroke-width="1" stroke="grey" d="M 100.00 120.00 L 29.72 -283.42" />
  <path stroke-width="1" stroke="grey" d="M 100.00 120.00 L 11.08 -150.04" />
  <path stroke-width="1" stroke="grey" d="M 100.00 120.00 L 33.53 116.63" />
  <path stroke-width="1" stroke="grey" d="M 100.00 120.00 L 16.06 103.43" />
  <path stroke-width="1" stroke="grey" d="M 100.00 120.00 L 68.25 221.72" />
  <path stroke-width="1" stroke="grey" d="M 43.86 245.40 L -30.39 290.33" />
  <path stroke-width="1" stroke="grey" d="M 43.86 245.40 L -40.90 275.33" />
  <path stroke-width="1" stroke="grey" d="M 43.86 245.40 L -19.41 307.17" />
  <path stroke-width="1" stroke="grey" d="M 43.86 245.40 L 19.46 277.78" />
  <path stroke-width="1" stroke="grey" d="M 43.86 245.40 L 29.17 264.64" />
  <path stroke-width="1" stroke="grey" d="M 43.86 245.40 L -2.34 246.13" />
  <path stroke-width="1" stroke="grey" d="M 43.86 245.40 L 69.46 247.88" />
  <path stroke-width="1" stroke="grey" d="M 43.86 245.40 L 89.14 235.00" />
  <path stroke-width="1" stroke="grey" d="M 43.86 245.40 L 52.97 244.33" />
  <path stroke-width="1" stroke="grey" d="M 43.86 245.40 L -7.05 256.67" />
  <path stroke-width="1" stroke="grey" d="M 43.86 245.40 L 13.63 199.17" />
  <path stroke-width="1" stroke="grey" d="M 43.86 245.40 L 25.60 400.29" />
  <path stroke-width="1" stroke="grey" d="M 43.86 245.40 L 67.96 426.67" />
  <path stroke-width="1" stroke="grey" d="M 98.99 419.18 L 15.23 419.11" />
  <path stroke-width="1" stroke="grey" d="M 98.99 419.18 L 27.55 422.28" />
  <path stroke-width="1" stroke="grey" d="M 98.99 419.18 L 33.11 419.86" />
  <path stroke-width="1" stroke="grey" d="M 98.99 419.18 L 58.62 409.92" />
  <path stroke-width="1" stroke="grey" d="M 98.99 419.18 L 138.97 405.36" />
  <path stroke-width="1" stroke="grey" d="M 98.99 419.18 L 116.06 396.86" />
  <path stroke-width="1" stroke="grey" d="M 98.99 419.18 L 160.75 539.34" />
  <path stroke-width="1" stroke="grey" d="M 98.99 419.18 L 147.93 599.54" />
  <path stroke-width="1" stroke="grey" d="M 98.99 419.18 L 137.06 601.98" />
  <path stroke-width="1" stroke="grey" d="M 98.99 419.18 L -8.92 272.22" />
  <path stroke-width="1" stroke="grey" d="M 98.99 419.18 L -36.60 229.99" />
  <path stroke-width="1" stroke="grey" d="M 98.99 419.18 L 2.35 276.48" />
  <path stroke-width="1" stroke="grey" d="M 98.99 419.18 L 75.44 348.61" />
  <path stroke-width="1" stroke="grey" d="M 98.99 419.18 L 104.67 349.63" />
  <path stroke-width="1" stroke="grey" d="M 98.99 419.18 L 115.31 419.88" />
  <path stroke-width="1" stroke="grey" d="M 98.99 419.18 L 172.09 650.32" />
  <path stroke-width="1" stroke="grey" d="M 219.96 644.06 L 270.78 691.53" />
  <path stroke-width="1" stroke="grey" d="M 219.96 644.06 L 269.95 714.85" />
  <path stroke-width="1" stroke="grey" d="M 219.96 644.06 L 297.09 755.61" />
  <path stroke-width="1" stroke="grey" d="M 219.96 644.06 L 392.95 1000.39" />
  <path stroke-width="1" stroke="grey" d="M 219.96 644.06 L 255.93 776.73" />
</g>
</g>
</svg>
